2, 0, Program_c, 0, 0
2, 0, Control_c, 0, 7, 127
2, 9, Note_on_c, 0, 72, 65
2, 11, Note_on_c, 0, 60, 61
2, 15, Note_on_c, 0, 69, 62
2, 21, Note_on_c, 0, 53, 45
2, 123, Note_off_c, 0, 72, 64
2, 125, Note_off_c, 0, 60, 64
2, 129, Note_off_c, 0, 69, 64
2, 135, Note_off_c, 0, 53, 64
2, 182, Note_on_c, 0, 69, 61
2, 185, Note_on_c, 0, 72, 61
2, 185, Note_on_c, 0, 60, 61
2, 185, Note_on_c, 0, 53, 62
2, 207, Note_off_c, 0, 72, 64
2, 207, Note_off_c, 0, 69, 64
2, 214, Note_off_c, 0, 53, 64
2, 214, Note_off_c, 0, 60, 64
2, 217, Control_c, 0, 64, 0
2, 228, Note_on_c, 0, 72, 74
2, 230, Note_on_c, 0, 69, 65
2, 230, Note_on_c, 0, 60, 61
2, 230, Note_on_c, 0, 53, 69
2, 248, Control_c, 0, 64, 127
2, 359, Note_off_c, 0, 72, 64
2, 361, Note_off_c, 0, 53, 64
2, 361, Note_off_c, 0, 60, 64
2, 361, Note_off_c, 0, 69, 64
2, 440, Note_on_c, 0, 77, 68
2, 440, Note_on_c, 0, 69, 64
2, 444, Note_on_c, 0, 60, 61
2, 444, Note_on_c, 0, 53, 61
2, 571, Note_off_c, 0, 69, 64
2, 571, Note_off_c, 0, 77, 64
2, 575, Note_off_c, 0, 53, 64
2, 575, Note_off_c, 0, 60, 64
2, 660, Note_on_c, 0, 67, 62
2, 662, Note_on_c, 0, 76, 69
2, 669, Note_on_c, 0, 60, 61
2, 669, Note_on_c, 0, 55, 61
2, 675, Note_on_c, 0, 48, 55
2, 690, Control_c, 0, 64, 0
2, 701, Control_c, 0, 64, 127
2, 774, Note_off_c, 0, 67, 64
2, 776, Note_off_c, 0, 76, 64
2, 783, Note_off_c, 0, 55, 64
2, 783, Note_off_c, 0, 60, 64
2, 840, Note_on_c, 0, 74, 72
2, 840, Note_on_c, 0, 59, 61
2, 842, Note_on_c, 0, 65, 72
2, 895, Note_on_c, 0, 72, 64
2, 896, Note_on_c, 0, 60, 68
2, 896, Note_on_c, 0, 64, 69
2, 907, Control_c, 0, 64, 0
2, 918, Note_off_c, 0, 59, 64
2, 918, Note_off_c, 0, 74, 64
2, 920, Note_off_c, 0, 65, 64
2, 1069, Control_c, 0, 64, 127
2, 1250, Control_c, 0, 64, 0
2, 1358, Note_off_c, 0, 72, 64
2, 1359, Note_off_c, 0, 64, 64
2, 1359, Note_off_c, 0, 60, 64
2, 1382, Note_off_c, 0, 48, 64
2, 1392, Control_c, 0, 64, 0
2, 1396, Note_on_c, 0, 57, 61
2, 1398, Note_on_c, 0, 50, 61
2, 1399, Note_on_c, 0, 69, 64
2, 1399, Note_on_c, 0, 65, 61
2, 1433, Control_c, 0, 64, 127
2, 1510, Note_off_c, 0, 57, 64
2, 1512, Note_off_c, 0, 50, 64
2, 1513, Note_off_c, 0, 65, 64
2, 1513, Note_off_c, 0, 69, 64
2, 1563, Note_on_c, 0, 65, 61
2, 1564, Note_on_c, 0, 57, 61
2, 1568, Note_on_c, 0, 69, 61
2, 1573, Note_on_c, 0, 50, 61
2, 1590, Note_off_c, 0, 65, 64
2, 1591, Note_off_c, 0, 69, 64
2, 1591, Note_off_c, 0, 57, 64
2, 1598, Note_off_c, 0, 50, 64
2, 1612, Note_on_c, 0, 65, 68
2, 1612, Note_on_c, 0, 57, 72
2, 1614, Note_on_c, 0, 69, 72
2, 1618, Control_c, 0, 64, 0
2, 1622, Note_on_c, 0, 50, 69
2, 1632, Control_c, 0, 64, 127
2, 1743, Note_off_c, 0, 57, 64
2, 1743, Note_off_c, 0, 65, 64
2, 1745, Note_off_c, 0, 69, 64
2, 1753, Note_off_c, 0, 50, 64
2, 1818, Note_on_c, 0, 50, 56
2, 1822, Note_on_c, 0, 74, 65
2, 1823, Note_on_c, 0, 65, 64
2, 1828, Note_on_c, 0, 57, 62
2, 1832, Control_c, 0, 64, 0
2, 1843, Control_c, 0, 64, 127
2, 1949, Note_off_c, 0, 50, 64
2, 1953, Note_off_c, 0, 74, 64
2, 1954, Note_off_c, 0, 65, 64
2, 1959, Note_off_c, 0, 57, 64
2, 2038, Note_on_c, 0, 64, 62
2, 2040, Note_on_c, 0, 72, 65
2, 2049, Note_on_c, 0, 52, 61
2, 2049, Note_on_c, 0, 45, 59
2, 2060, Control_c, 0, 64, 0
2, 2074, Control_c, 0, 64, 127
2, 2152, Note_off_c, 0, 64, 64
2, 2154, Note_off_c, 0, 72, 64
2, 2163, Note_off_c, 0, 52, 64
2, 2200, Note_on_c, 0, 70, 61
2, 2200, Note_on_c, 0, 62, 56
2, 2203, Note_on_c, 0, 56, 62
2, 2248, Note_on_c, 0, 69, 65
2, 2248, Note_on_c, 0, 60, 72
2, 2252, Note_on_c, 0, 57, 54
2, 2264, Note_off_c, 0, 62, 64
2, 2264, Note_off_c, 0, 70, 64
2, 2267, Note_off_c, 0, 56, 64
2, 2293, Control_c, 0, 64, 0
2, 2463, Control_c, 0, 64, 127
2, 2607, Control_c, 0, 64, 0
2, 2617, Control_c, 0, 64, 127
2, 2699, Note_off_c, 0, 45, 64
2, 2711, Note_off_c, 0, 60, 64
2, 2711, Note_off_c, 0, 69, 64
2, 2715, Note_off_c, 0, 57, 64
2, 2737, Note_on_c, 0, 46, 61
2, 2740, Note_on_c, 0, 53, 55
2, 2743, Note_on_c, 0, 65, 62
2, 2744, Note_on_c, 0, 62, 57
2, 2754, Control_c, 0, 64, 0
2, 2787, Control_c, 0, 64, 127
2, 2851, Note_off_c, 0, 46, 64
2, 2854, Note_off_c, 0, 53, 64
2, 2857, Note_off_c, 0, 65, 64
2, 2858, Note_off_c, 0, 62, 64
2, 2892, Note_on_c, 0, 62, 57
2, 2900, Note_on_c, 0, 65, 57
2, 2900, Note_on_c, 0, 53, 61
2, 2902, Note_on_c, 0, 46, 61
2, 2912, Note_off_c, 0, 65, 64
2, 2917, Note_off_c, 0, 62, 64
2, 2921, Note_off_c, 0, 53, 64
2, 2923, Note_off_c, 0, 46, 64
2, 2936, Note_on_c, 0, 62, 61
2, 2940, Note_on_c, 0, 65, 72
2, 2940, Note_on_c, 0, 53, 72
2, 2946, Note_on_c, 0, 46, 72
2, 2959, Control_c, 0, 64, 0
2, 2969, Control_c, 0, 64, 127
2, 3067, Note_off_c, 0, 62, 64
2, 3071, Note_off_c, 0, 53, 64
2, 3071, Note_off_c, 0, 65, 64
2, 3077, Note_off_c, 0, 46, 64
2, 3153, Note_on_c, 0, 70, 65
2, 3153, Note_on_c, 0, 62, 65
2, 3153, Note_on_c, 0, 46, 64
2, 3157, Note_on_c, 0, 53, 64
2, 3170, Control_c, 0, 64, 0
2, 3182, Control_c, 0, 64, 127
2, 3284, Note_off_c, 0, 46, 64
2, 3284, Note_off_c, 0, 62, 64
2, 3284, Note_off_c, 0, 70, 64
2, 3288, Note_off_c, 0, 53, 64
2, 3368, Note_on_c, 0, 60, 62
2, 3369, Note_on_c, 0, 69, 64
2, 3373, Note_on_c, 0, 41, 50
2, 3378, Note_on_c, 0, 53, 69
2, 3482, Note_off_c, 0, 60, 64
2, 3483, Note_off_c, 0, 69, 64
2, 3489, Note_off_c, 0, 41, 64
2, 3492, Note_off_c, 0, 53, 64
2, 3528, Note_on_c, 0, 53, 77
2, 3532, Note_on_c, 0, 67, 61
2, 3532, Note_on_c, 0, 58, 59
2, 3532, Note_on_c, 0, 41, 50
2, 3563, Note_off_c, 0, 58, 64
2, 3567, Note_off_c, 0, 53, 64
2, 3570, Note_off_c, 0, 67, 64
2, 3571, Note_off_c, 0, 41, 64
2, 3575, Note_on_c, 0, 65, 72
2, 3575, Control_c, 0, 64, 0
2, 3576, Note_on_c, 0, 57, 78
2, 3584, Note_on_c, 0, 41, 55
2, 3584, Note_on_c, 0, 53, 68
2, 3602, Control_c, 0, 64, 127
2, 3706, Note_off_c, 0, 65, 64
2, 3707, Note_off_c, 0, 57, 64
2, 3715, Note_off_c, 0, 53, 64
2, 3715, Note_off_c, 0, 41, 64
2, 3778, Note_on_c, 0, 70, 72
2, 3779, Note_on_c, 0, 62, 69
2, 3780, Note_on_c, 0, 46, 65
2, 3787, Note_on_c, 0, 53, 62
2, 3797, Control_c, 0, 64, 0
2, 3830, Control_c, 0, 64, 127
2, 3909, Note_off_c, 0, 70, 64
2, 3910, Note_off_c, 0, 62, 64
2, 3911, Note_off_c, 0, 46, 64
2, 3918, Note_off_c, 0, 53, 64
2, 3990, Note_on_c, 0, 69, 64
2, 3990, Note_on_c, 0, 60, 68
2, 3990, Note_on_c, 0, 41, 61
2, 3991, Control_c, 0, 64, 0
2, 3996, Note_on_c, 0, 53, 72
2, 4011, Control_c, 0, 64, 127
2, 4104, Note_off_c, 0, 60, 64
2, 4104, Note_off_c, 0, 69, 64
2, 4110, Note_off_c, 0, 53, 64
2, 4121, Note_off_c, 0, 41, 64
2, 4136, Note_on_c, 0, 53, 81
2, 4138, Note_on_c, 0, 67, 61
2, 4144, Note_on_c, 0, 58, 64
2, 4148, Note_on_c, 0, 41, 50
2, 4187, Note_off_c, 0, 41, 64
2, 4189, Note_off_c, 0, 53, 64
2, 4191, Note_on_c, 0, 57, 81
2, 4195, Note_on_c, 0, 65, 68
2, 4196, Note_on_c, 0, 53, 72
2, 4199, Control_c, 0, 64, 0
2, 4204, Note_on_c, 0, 41, 55
2, 4207, Note_off_c, 0, 67, 64
2, 4213, Note_off_c, 0, 58, 64
2, 4226, Control_c, 0, 64, 127
2, 4271, Note_off_c, 0, 57, 64
2, 4275, Note_off_c, 0, 65, 64
2, 4276, Note_off_c, 0, 53, 64
2, 4282, Note_off_c, 0, 41, 64
2, 4409, Note_on_c, 0, 50, 55
2, 4413, Note_on_c, 0, 67, 68
2, 4413, Note_on_c, 0, 59, 61
2, 4420, Note_on_c, 0, 43, 56
2, 4433, Control_c, 0, 64, 0
2, 4466, Control_c, 0, 64, 127
2, 4516, Note_on_c, 0, 55, 61
2, 4527, Note_off_c, 0, 50, 64
2, 4534, Note_off_c, 0, 43, 64
2, 4548, Note_off_c, 0, 67, 64
2, 4585, Note_off_c, 0, 59, 64
2, 4612, Note_off_c, 0, 55, 64
2, 4639, Note_on_c, 0, 64, 64
2, 4645, Note_on_c, 0, 55, 68
2, 4645, Note_on_c, 0, 48, 56
2, 4649, Note_on_c, 0, 60, 57
2, 4700, Control_c, 0, 64, 0
2, 4751, Control_c, 0, 64, 127
2, 4849, Note_off_c, 0, 60, 64
2, 4849, Note_on_c, 0, 62, 50
2, 4851, Note_off_c, 0, 64, 64
2, 4856, Note_on_c, 0, 53, 54
2, 4880, Note_off_c, 0, 55, 64
2, 4905, Note_on_c, 0, 60, 49
2, 4910, Note_on_c, 0, 52, 45
2, 4919, Note_off_c, 0, 62, 64
2, 4919, Control_c, 0, 64, 0
2, 4940, Note_off_c, 0, 53, 64
2, 5045, Control_c, 0, 64, 127
2, 5350, Note_off_c, 0, 60, 64
2, 5355, Note_off_c, 0, 52, 64
2, 5391, Note_off_c, 0, 48, 64
2, 5404, Note_on_c, 0, 60, 45
2, 5411, Note_on_c, 0, 53, 38
2, 5412, Note_on_c, 0, 72, 43
2, 5415, Note_on_c, 0, 69, 32
2, 5422, Control_c, 0, 64, 0
2, 5447, Control_c, 0, 64, 127
2, 5518, Note_off_c, 0, 60, 64
2, 5525, Note_off_c, 0, 53, 64
2, 5526, Note_off_c, 0, 72, 64
2, 5529, Note_off_c, 0, 69, 64
2, 5568, Note_on_c, 0, 72, 48
2, 5575, Note_on_c, 0, 69, 41
2, 5575, Note_on_c, 0, 60, 49
2, 5578, Note_on_c, 0, 53, 45
2, 5592, Note_off_c, 0, 72, 64
2, 5598, Note_off_c, 0, 69, 64
2, 5601, Note_off_c, 0, 53, 64
2, 5605, Note_off_c, 0, 60, 64
2, 5621, Note_on_c, 0, 69, 52
2, 5623, Note_on_c, 0, 72, 64
2, 5628, Note_on_c, 0, 60, 56
2, 5631, Note_on_c, 0, 53, 55
2, 5752, Note_off_c, 0, 69, 64
2, 5754, Note_off_c, 0, 72, 64
2, 5759, Note_off_c, 0, 60, 64
2, 5762, Note_off_c, 0, 53, 64
2, 5833, Note_on_c, 0, 69, 52
2, 5833, Note_on_c, 0, 60, 51
2, 5836, Note_on_c, 0, 77, 62
2, 5841, Note_on_c, 0, 53, 45
2, 5852, Control_c, 0, 64, 0
2, 5864, Control_c, 0, 64, 127
2, 5964, Note_off_c, 0, 60, 64
2, 5964, Note_off_c, 0, 69, 64
2, 5967, Note_off_c, 0, 77, 64
2, 5972, Note_off_c, 0, 53, 64
2, 6053, Note_on_c, 0, 67, 52
2, 6059, Note_on_c, 0, 76, 61
2, 6062, Note_on_c, 0, 60, 49
2, 6062, Note_on_c, 0, 55, 48
2, 6070, Note_on_c, 0, 48, 45
2, 6076, Control_c, 0, 64, 0
2, 6101, Control_c, 0, 64, 127
2, 6167, Note_off_c, 0, 67, 64
2, 6173, Note_off_c, 0, 76, 64
2, 6176, Note_off_c, 0, 55, 64
2, 6176, Note_off_c, 0, 60, 64
2, 6232, Note_on_c, 0, 65, 45
2, 6232, Note_on_c, 0, 59, 48
2, 6233, Note_on_c, 0, 74, 45
2, 6271, Note_on_c, 0, 64, 39
2, 6271, Note_on_c, 0, 72, 54
2, 6272, Note_on_c, 0, 60, 56
2, 6285, Note_off_c, 0, 59, 64
2, 6285, Note_off_c, 0, 65, 64
2, 6286, Note_off_c, 0, 74, 64
2, 6295, Control_c, 0, 64, 0
2, 6445, Control_c, 0, 64, 127
2, 6681, Note_off_c, 0, 72, 64
2, 6681, Note_off_c, 0, 64, 64
2, 6682, Note_off_c, 0, 60, 64
2, 6709, Note_off_c, 0, 48, 64
2, 6732, Note_on_c, 0, 69, 56
2, 6733, Control_c, 0, 64, 0
2, 6739, Note_on_c, 0, 57, 45
2, 6740, Note_on_c, 0, 50, 47
2, 6743, Note_on_c, 0, 65, 39
2, 6776, Control_c, 0, 64, 127
2, 6846, Note_off_c, 0, 69, 64
2, 6853, Note_off_c, 0, 57, 64
2, 6854, Note_off_c, 0, 50, 64
2, 6857, Note_off_c, 0, 65, 64
2, 6908, Note_on_c, 0, 57, 50
2, 6911, Note_on_c, 0, 69, 56
2, 6911, Note_on_c, 0, 65, 49
2, 6919, Note_on_c, 0, 50, 49
2, 6930, Note_off_c, 0, 57, 64
2, 6936, Note_off_c, 0, 65, 64
2, 6937, Note_off_c, 0, 69, 64
2, 6941, Note_off_c, 0, 50, 64
2, 6947, Control_c, 0, 64, 0
2, 6956, Note_on_c, 0, 57, 59
2, 6960, Note_on_c, 0, 69, 64
2, 6960, Note_on_c, 0, 65, 56
2, 6969, Note_on_c, 0, 50, 56
2, 6978, Control_c, 0, 64, 127
2, 7066, Control_c, 0, 64, 127
2, 7087, Note_off_c, 0, 57, 64
2, 7091, Note_off_c, 0, 65, 64
2, 7091, Note_off_c, 0, 69, 64
2, 7100, Note_off_c, 0, 50, 64
2, 7172, Note_on_c, 0, 50, 45
2, 7173, Note_on_c, 0, 74, 56
2, 7173, Note_on_c, 0, 65, 51
2, 7181, Note_on_c, 0, 57, 47
2, 7303, Note_off_c, 0, 50, 64
2, 7304, Note_off_c, 0, 65, 64
2, 7304, Note_off_c, 0, 74, 64
2, 7312, Note_off_c, 0, 57, 64
2, 7405, Note_on_c, 0, 72, 52
2, 7410, Note_on_c, 0, 45, 42
2, 7410, Note_on_c, 0, 52, 38
2, 7412, Note_on_c, 0, 64, 45
2, 7424, Control_c, 0, 64, 0
2, 7437, Control_c, 0, 64, 127
2, 7519, Note_off_c, 0, 72, 64
2, 7524, Note_off_c, 0, 52, 64
2, 7526, Note_off_c, 0, 64, 64
2, 7572, Note_on_c, 0, 70, 45
2, 7572, Note_on_c, 0, 56, 54
2, 7580, Note_on_c, 0, 62, 42
2, 7617, Note_on_c, 0, 57, 49
2, 7620, Note_on_c, 0, 69, 57
2, 7622, Note_on_c, 0, 60, 57
2, 7637, Note_off_c, 0, 56, 64
2, 7637, Note_off_c, 0, 70, 64
2, 7645, Note_off_c, 0, 62, 64
2, 7660, Control_c, 0, 64, 0
2, 7822, Control_c, 0, 64, 127
2, 8032, Note_off_c, 0, 57, 64
2, 8035, Note_off_c, 0, 69, 64
2, 8037, Note_off_c, 0, 60, 64
2, 8057, Note_off_c, 0, 45, 64
2, 8096, Note_on_c, 0, 65, 51
2, 8098, Note_on_c, 0, 46, 45
2, 8102, Note_on_c, 0, 62, 38
2, 8102, Note_on_c, 0, 53, 42
2, 8114, Control_c, 0, 64, 0
2, 8164, Control_c, 0, 64, 127
2, 8210, Note_off_c, 0, 65, 64
2, 8212, Note_off_c, 0, 46, 64
2, 8216, Note_off_c, 0, 53, 64
2, 8216, Note_off_c, 0, 62, 64
2, 8244, Note_on_c, 0, 62, 47
2, 8244, Note_on_c, 0, 53, 47
2, 8251, Note_on_c, 0, 65, 51
2, 8252, Note_on_c, 0, 46, 43
2, 8270, Note_off_c, 0, 62, 64
2, 8275, Note_off_c, 0, 65, 64
2, 8277, Note_off_c, 0, 53, 64
2, 8285, Note_off_c, 0, 46, 64
2, 8300, Note_on_c, 0, 62, 52
2, 8300, Note_on_c, 0, 53, 56
2, 8305, Note_on_c, 0, 65, 64
2, 8310, Note_on_c, 0, 46, 57
2, 8315, Control_c, 0, 64, 0
2, 8328, Control_c, 0, 64, 127
2, 8395, Control_c, 0, 64, 0
2, 8408, Control_c, 0, 64, 127
2, 8456, Note_off_c, 0, 53, 64
2, 8456, Note_off_c, 0, 62, 64
2, 8461, Note_off_c, 0, 65, 64
2, 8466, Note_off_c, 0, 46, 64
2, 8514, Note_on_c, 0, 46, 47
2, 8514, Note_on_c, 0, 62, 52
2, 8514, Note_on_c, 0, 70, 61
2, 8524, Note_on_c, 0, 53, 45
2, 8527, Control_c, 0, 64, 0
2, 8566, Control_c, 0, 64, 127
2, 8645, Note_off_c, 0, 70, 64
2, 8645, Note_off_c, 0, 62, 64
2, 8645, Note_off_c, 0, 46, 64
2, 8655, Note_off_c, 0, 53, 64
2, 8730, Note_on_c, 0, 60, 52
2, 8733, Note_on_c, 0, 41, 49
2, 8738, Note_on_c, 0, 53, 51
2, 8739, Note_on_c, 0, 69, 56
2, 8842, Note_off_c, 0, 41, 64
2, 8844, Note_off_c, 0, 60, 64
2, 8852, Note_off_c, 0, 53, 64
2, 8853, Note_off_c, 0, 69, 64
2, 8880, Note_on_c, 0, 58, 50
2, 8886, Note_on_c, 0, 53, 64
2, 8888, Note_on_c, 0, 67, 49
2, 8896, Note_on_c, 0, 41, 45
2, 8919, Note_off_c, 0, 67, 64
2, 8920, Note_off_c, 0, 58, 64
2, 8927, Note_off_c, 0, 41, 64
2, 8927, Note_off_c, 0, 53, 64
2, 8935, Note_on_c, 0, 65, 62
2, 8940, Note_on_c, 0, 57, 61
2, 8944, Note_on_c, 0, 53, 55
2, 8945, Note_on_c, 0, 41, 33
2, 8945, Control_c, 0, 64, 0
2, 8971, Control_c, 0, 64, 127
2, 9066, Note_off_c, 0, 65, 64
2, 9071, Note_off_c, 0, 57, 64
2, 9075, Note_off_c, 0, 53, 64
2, 9102, Note_off_c, 0, 41, 64
2, 9152, Note_on_c, 0, 70, 61
2, 9158, Note_on_c, 0, 53, 52
2, 9162, Note_on_c, 0, 62, 52
2, 9162, Note_on_c, 0, 46, 56
2, 9181, Control_c, 0, 64, 0
2, 9214, Control_c, 0, 64, 127
2, 9358, Note_off_c, 0, 70, 64
2, 9364, Note_off_c, 0, 53, 64
2, 9365, Note_off_c, 0, 46, 64
2, 9368, Note_off_c, 0, 62, 64
2, 9381, Note_on_c, 0, 60, 49
2, 9388, Note_on_c, 0, 69, 57
2, 9392, Note_on_c, 0, 41, 39
2, 9395, Note_on_c, 0, 53, 42
2, 9495, Note_off_c, 0, 60, 64
2, 9502, Note_off_c, 0, 69, 64
2, 9506, Note_off_c, 0, 41, 64
2, 9509, Note_off_c, 0, 53, 64
2, 9528, Note_on_c, 0, 58, 45
2, 9532, Note_on_c, 0, 67, 51
2, 9532, Note_on_c, 0, 53, 57
2, 9539, Note_on_c, 0, 41, 45
2, 9562, Note_off_c, 0, 58, 64
2, 9567, Note_off_c, 0, 67, 64
2, 9570, Note_off_c, 0, 41, 64
2, 9570, Note_off_c, 0, 53, 64
2, 9591, Note_on_c, 0, 65, 62
2, 9596, Note_on_c, 0, 53, 55
2, 9596, Note_on_c, 0, 57, 55
2, 9597, Note_on_c, 0, 41, 45
2, 9613, Control_c, 0, 64, 0
2, 9626, Control_c, 0, 64, 127
2, 9722, Note_off_c, 0, 65, 64
2, 9727, Note_off_c, 0, 57, 64
2, 9727, Note_off_c, 0, 53, 64
2, 9728, Note_off_c, 0, 41, 64
2, 9818, Note_on_c, 0, 46, 51
2, 9819, Note_on_c, 0, 67, 64
2, 9822, Note_on_c, 0, 62, 57
2, 9827, Note_on_c, 0, 55, 51
2, 9843, Control_c, 0, 64, 0
2, 9895, Control_c, 0, 64, 127
2, 9979, Note_off_c, 0, 46, 64
2, 9980, Note_off_c, 0, 67, 64
2, 9983, Note_off_c, 0, 62, 64
2, 9988, Note_off_c, 0, 55, 64
2, 10096, Note_on_c, 0, 62, 61
2, 10098, Note_on_c, 0, 48, 45
2, 10105, Note_on_c, 0, 55, 45
2, 10150, Control_c, 0, 64, 0
2, 10184, Control_c, 0, 64, 127
2, 10246, Note_off_c, 0, 62, 64
2, 10249, Note_on_c, 0, 60, 50
2, 10254, Note_on_c, 0, 64, 42
2, 10297, Note_off_c, 0, 55, 64
2, 10392, Note_off_c, 0, 64, 64
2, 10399, Note_on_c, 0, 65, 51
2, 10406, Note_on_c, 0, 57, 33
2, 10406, Note_on_c, 0, 53, 25
2, 10411, Note_on_c, 0, 41, 39
2, 10416, Note_off_c, 0, 48, 64
2, 10419, Note_off_c, 0, 60, 64
2, 10449, Control_c, 0, 64, 0
2, 10521, Control_c, 0, 64, 127
2, 10639, Note_off_c, 0, 65, 64
2, 10646, Note_off_c, 0, 53, 64
2, 10646, Note_off_c, 0, 57, 64
2, 10651, Note_off_c, 0, 41, 64
2, 10868, Control_c, 0, 64, 0
2, 10877, Note_on_c, 0, 57, 68
2, 10879, Note_on_c, 0, 81, 81
2, 10879, Note_on_c, 0, 45, 72
2, 10885, Note_on_c, 0, 69, 74
2, 10908, Control_c, 0, 64, 127
2, 10991, Note_off_c, 0, 57, 64
2, 10993, Note_off_c, 0, 81, 64
2, 10999, Note_off_c, 0, 69, 64
2, 11050, Note_on_c, 0, 57, 81
2, 11057, Note_on_c, 0, 69, 73
2, 11060, Note_on_c, 0, 81, 78
2, 11074, Note_off_c, 0, 69, 64
2, 11081, Note_off_c, 0, 81, 64
2, 11084, Note_off_c, 0, 57, 64
2, 11097, Note_on_c, 0, 57, 72
2, 11099, Control_c, 0, 64, 0
2, 11105, Note_on_c, 0, 69, 75
2, 11105, Note_on_c, 0, 81, 75
2, 11141, Control_c, 0, 64, 127
2, 11163, Note_off_c, 0, 45, 64
2, 11175, Note_off_c, 0, 81, 64
2, 11178, Note_off_c, 0, 57, 64
2, 11326, Note_on_c, 0, 65, 68
2, 11331, Note_on_c, 0, 62, 64
2, 11331, Note_on_c, 0, 74, 72
2, 11340, Note_on_c, 0, 77, 73
2, 11440, Note_off_c, 0, 65, 64
2, 11445, Note_off_c, 0, 74, 64
2, 11445, Note_off_c, 0, 62, 64
2, 11454, Note_off_c, 0, 77, 64
2, 11468, Note_on_c, 0, 65, 61
2, 11475, Note_on_c, 0, 62, 51
2, 11482, Note_on_c, 0, 74, 64
2, 11482, Note_on_c, 0, 77, 64
2, 11521, Note_on_c, 0, 76, 75
2, 11527, Note_on_c, 0, 73, 68
2, 11532, Note_on_c, 0, 64, 50
2, 11532, Note_on_c, 0, 61, 65
2, 11535, Note_off_c, 0, 77, 64
2, 11542, Note_off_c, 0, 65, 64
2, 11545, Note_off_c, 0, 69, 64
2, 11548, Note_off_c, 0, 74, 64
2, 11552, Control_c, 0, 64, 0
2, 11564, Note_off_c, 0, 62, 64
2, 11578, Control_c, 0, 64, 127
2, 11635, Note_off_c, 0, 76, 64
2, 11641, Note_off_c, 0, 73, 64
2, 11646, Note_off_c, 0, 61, 64
2, 11646, Note_off_c, 0, 64, 64
2, 11684, Note_on_c, 0, 62, 68
2, 11686, Note_on_c, 0, 74, 68
2, 11688, Note_on_c, 0, 71, 72
2, 11688, Note_on_c, 0, 59, 65
2, 11732, Note_on_c, 0, 76, 68
2, 11734, Note_on_c, 0, 73, 68
2, 11745, Note_on_c, 0, 64, 72
2, 11747, Note_on_c, 0, 61, 75
2, 11747, Control_c, 0, 64, 0
2, 11749, Note_off_c, 0, 62, 64
2, 11751, Note_off_c, 0, 74, 64
2, 11753, Note_off_c, 0, 59, 64
2, 11753, Note_off_c, 0, 71, 64
2, 11773, Control_c, 0, 64, 127
2, 11937, Note_off_c, 0, 76, 64
2, 11939, Note_off_c, 0, 73, 64
2, 11950, Note_off_c, 0, 64, 64
2, 11952, Note_off_c, 0, 61, 64
2, 11964, Note_on_c, 0, 61, 62
2, 11968, Note_on_c, 0, 73, 72
2, 11972, Note_on_c, 0, 69, 64
2, 11972, Note_on_c, 0, 52, 49
2, 11993, Control_c, 0, 64, 0
2, 12028, Control_c, 0, 64, 127
2, 12152, Note_off_c, 0, 61, 64
2, 12156, Note_off_c, 0, 73, 64
2, 12160, Note_off_c, 0, 52, 64
2, 12160, Note_off_c, 0, 69, 64
2, 12193, Control_c, 0, 64, 0
2, 12200, Note_on_c, 0, 45, 71
2, 12200, Note_on_c, 0, 81, 74
2, 12200, Note_on_c, 0, 57, 80
2, 12202, Note_on_c, 0, 69, 78
2, 12228, Control_c, 0, 64, 127
2, 12314, Note_off_c, 0, 57, 64
2, 12314, Note_off_c, 0, 81, 64
2, 12316, Note_off_c, 0, 69, 64
2, 12359, Note_on_c, 0, 57, 81
2, 12363, Note_on_c, 0, 81, 78
2, 12365, Note_on_c, 0, 69, 78
2, 12385, Note_off_c, 0, 81, 64
2, 12388, Note_off_c, 0, 57, 64
2, 12390, Note_off_c, 0, 69, 64
2, 12409, Note_on_c, 0, 69, 72
2, 12414, Note_on_c, 0, 81, 81
2, 12415, Note_on_c, 0, 57, 75
2, 12424, Control_c, 0, 64, 0
2, 12445, Control_c, 0, 64, 127
2, 12474, Note_off_c, 0, 45, 64
2, 12570, Note_off_c, 0, 69, 64
2, 12575, Note_off_c, 0, 81, 64
2, 12624, Note_on_c, 0, 65, 64
2, 12627, Note_on_c, 0, 77, 74
2, 12631, Note_on_c, 0, 74, 72
2, 12634, Note_on_c, 0, 62, 55
2, 12634, Control_c, 0, 64, 0
2, 12661, Control_c, 0, 64, 127
2, 12785, Note_off_c, 0, 65, 64
2, 12788, Note_off_c, 0, 77, 64
2, 12792, Note_off_c, 0, 74, 64
2, 12795, Note_off_c, 0, 62, 64
2, 12823, Note_on_c, 0, 76, 73
2, 12825, Note_off_c, 0, 57, 64
2, 12825, Note_on_c, 0, 73, 75
2, 12828, Note_on_c, 0, 64, 75
2, 12831, Note_on_c, 0, 61, 68
2, 12837, Control_c, 0, 64, 0
2, 12860, Control_c, 0, 64, 127
2, 12937, Note_off_c, 0, 76, 64
2, 12939, Note_off_c, 0, 73, 64
2, 12942, Note_off_c, 0, 64, 64
2, 12945, Note_off_c, 0, 61, 64
2, 13005, Note_on_c, 0, 74, 57
2, 13011, Note_on_c, 0, 71, 59
2, 13011, Note_on_c, 0, 62, 65
2, 13013, Note_on_c, 0, 59, 61
2, 13046, Note_off_c, 0, 59, 64
2, 13049, Note_off_c, 0, 71, 64
2, 13050, Note_off_c, 0, 62, 64
2, 13062, Note_off_c, 0, 74, 64
2, 13070, Note_on_c, 0, 71, 72
2, 13076, Note_on_c, 0, 52, 65
2, 13079, Note_on_c, 0, 59, 68
2, 13080, Note_on_c, 0, 64, 73
2, 13112, Control_c, 0, 64, 0
2, 13185, Control_c, 0, 64, 127
2, 13310, Note_off_c, 0, 71, 64
2, 13316, Note_off_c, 0, 52, 64
2, 13319, Note_off_c, 0, 59, 64
2, 13320, Note_off_c, 0, 64, 64
2, 13555, Note_on_c, 0, 81, 48
2, 13555, Note_on_c, 0, 69, 47
2, 13561, Note_on_c, 0, 57, 45
2, 13563, Note_on_c, 0, 45, 45
2, 13574, Control_c, 0, 64, 0
2, 13587, Control_c, 0, 64, 127
2, 13669, Note_off_c, 0, 69, 64
2, 13669, Note_off_c, 0, 81, 64
2, 13675, Note_off_c, 0, 57, 64
2, 13723, Note_on_c, 0, 57, 50
2, 13727, Note_on_c, 0, 81, 53
2, 13728, Note_on_c, 0, 69, 47
2, 13748, Note_off_c, 0, 69, 64
2, 13750, Note_off_c, 0, 81, 64
2, 13759, Note_off_c, 0, 57, 64
2, 13772, Note_on_c, 0, 69, 48
2, 13780, Note_on_c, 0, 57, 51
2, 13782, Note_on_c, 0, 81, 56
2, 13790, Control_c, 0, 64, 0
2, 13805, Control_c, 0, 64, 127
2, 13839, Note_off_c, 0, 45, 64
2, 13933, Note_off_c, 0, 69, 64
2, 13943, Note_off_c, 0, 81, 64
2, 13979, Note_on_c, 0, 77, 48
2, 13986, Note_on_c, 0, 74, 45
2, 13986, Note_on_c, 0, 65, 45
2, 13986, Note_on_c, 0, 62, 45
2, 14051, Note_off_c, 0, 57, 64
2, 14110, Note_off_c, 0, 77, 64
2, 14117, Note_off_c, 0, 62, 64
2, 14117, Note_off_c, 0, 65, 64
2, 14117, Note_off_c, 0, 74, 64
2, 14136, Note_on_c, 0, 65, 52
2, 14138, Note_on_c, 0, 62, 42
2, 14140, Note_on_c, 0, 74, 45
2, 14142, Note_on_c, 0, 77, 47
2, 14176, Note_on_c, 0, 61, 53
2, 14176, Note_on_c, 0, 64, 45
2, 14180, Note_on_c, 0, 76, 50
2, 14184, Note_on_c, 0, 73, 45
2, 14192, Note_off_c, 0, 65, 64
2, 14194, Note_off_c, 0, 62, 64
2, 14196, Note_off_c, 0, 74, 64
2, 14198, Note_off_c, 0, 77, 64
2, 14206, Control_c, 0, 64, 0
2, 14235, Control_c, 0, 64, 127
2, 14290, Note_off_c, 0, 64, 64
2, 14290, Note_off_c, 0, 61, 64
2, 14294, Note_off_c, 0, 76, 64
2, 14298, Note_off_c, 0, 73, 64
2, 14340, Note_on_c, 0, 74, 43
2, 14343, Note_on_c, 0, 71, 56
2, 14344, Note_on_c, 0, 62, 43
2, 14344, Note_on_c, 0, 59, 45
2, 14380, Note_on_c, 0, 61, 55
2, 14380, Note_on_c, 0, 64, 56
2, 14384, Note_on_c, 0, 73, 45
2, 14386, Note_on_c, 0, 76, 47
2, 14395, Note_off_c, 0, 74, 64
2, 14396, Note_off_c, 0, 71, 64
2, 14396, Control_c, 0, 64, 0
2, 14399, Note_off_c, 0, 59, 64
2, 14399, Note_off_c, 0, 62, 64
2, 14435, Control_c, 0, 64, 127
2, 14541, Note_off_c, 0, 64, 64
2, 14541, Note_off_c, 0, 61, 64
2, 14545, Note_off_c, 0, 73, 64
2, 14547, Note_off_c, 0, 76, 64
2, 14612, Note_on_c, 0, 73, 49
2, 14616, Note_on_c, 0, 61, 48
2, 14617, Note_on_c, 0, 69, 47
2, 14623, Note_on_c, 0, 52, 45
2, 14634, Control_c, 0, 64, 0
2, 14661, Control_c, 0, 64, 127
2, 14773, Note_off_c, 0, 73, 64
2, 14777, Note_off_c, 0, 61, 64
2, 14778, Note_off_c, 0, 69, 64
2, 14784, Note_off_c, 0, 52, 64
2, 14836, Note_on_c, 0, 45, 47
2, 14842, Note_on_c, 0, 57, 45
2, 14843, Note_on_c, 0, 81, 49
2, 14847, Note_on_c, 0, 69, 45
2, 14956, Note_off_c, 0, 57, 64
2, 14957, Note_off_c, 0, 81, 64
2, 14961, Note_off_c, 0, 69, 64
2, 15008, Note_on_c, 0, 57, 56
2, 15014, Note_on_c, 0, 69, 53
2, 15020, Note_on_c, 0, 81, 55
2, 15043, Note_off_c, 0, 69, 64
2, 15046, Note_off_c, 0, 81, 64
2, 15046, Note_off_c, 0, 57, 64
2, 15065, Note_on_c, 0, 69, 50
2, 15065, Note_on_c, 0, 81, 56
2, 15068, Note_on_c, 0, 57, 54
2, 15069, Control_c, 0, 64, 0
2, 15085, Control_c, 0, 64, 127
2, 15119, Note_off_c, 0, 81, 64
2, 15122, Note_off_c, 0, 45, 64
2, 15132, Note_off_c, 0, 57, 64
2, 15292, Note_on_c, 0, 74, 61
2, 15295, Note_on_c, 0, 65, 54
2, 15295, Note_on_c, 0, 77, 68
2, 15296, Note_on_c, 0, 62, 59
2, 15497, Note_off_c, 0, 69, 64
2, 15514, Note_off_c, 0, 74, 64
2, 15517, Note_off_c, 0, 77, 64
2, 15517, Note_off_c, 0, 65, 64
2, 15518, Note_off_c, 0, 62, 64
2, 15564, Note_on_c, 0, 76, 73
2, 15564, Note_on_c, 0, 73, 72
2, 15569, Note_on_c, 0, 64, 49
2, 15569, Note_on_c, 0, 61, 64
2, 15582, Control_c, 0, 64, 0
2, 15603, Control_c, 0, 64, 127
2, 15766, Note_off_c, 0, 73, 64
2, 15771, Note_off_c, 0, 61, 64
2, 15771, Note_off_c, 0, 64, 64
2, 15808, Note_on_c, 0, 73, 68
2, 15814, Note_off_c, 0, 76, 64
2, 15815, Note_on_c, 0, 69, 61
2, 15819, Note_on_c, 0, 61, 61
2, 15819, Note_on_c, 0, 57, 72
2, 15887, Note_off_c, 0, 69, 64
2, 15890, Note_off_c, 0, 57, 64
2, 15891, Note_off_c, 0, 61, 64
2, 15920, Note_on_c, 0, 69, 68
2, 15920, Note_on_c, 0, 61, 64
2, 15923, Note_on_c, 0, 57, 64
2, 15924, Note_on_c, 0, 45, 71
2, 15926, Note_off_c, 0, 73, 64
2, 15997, Control_c, 0, 64, 0
2, 16123, Control_c, 0, 64, 127
2, 16753, Note_off_c, 0, 61, 64
2, 16753, Note_off_c, 0, 69, 64
2, 16756, Note_off_c, 0, 57, 64
2, 16757, Note_off_c, 0, 45, 64
2, 16886, Note_on_c, 0, 64, 54
2, 16891, Note_on_c, 0, 60, 38
2, 16891, Note_on_c, 0, 48, 49
2, 16892, Note_on_c, 0, 72, 59
2, 16892, Note_on_c, 0, 70, 56
2, 16892, Note_on_c, 0, 55, 48
2, 16911, Control_c, 0, 64, 0
2, 16942, Control_c, 0, 64, 127
2, 17078, Note_off_c, 0, 72, 64
2, 17088, Note_off_c, 0, 64, 64
2, 17093, Note_off_c, 0, 48, 64
2, 17093, Note_off_c, 0, 60, 64
2, 17094, Note_off_c, 0, 55, 64
2, 17094, Note_off_c, 0, 70, 64
2, 17099, Note_on_c, 0, 72, 61
2, 17132, Note_off_c, 0, 72, 64
2, 17156, Note_on_c, 0, 69, 68
2, 17161, Note_on_c, 0, 60, 56
2, 17163, Note_on_c, 0, 72, 65
2, 17166, Note_on_c, 0, 53, 55
2, 17186, Control_c, 0, 64, 0
2, 17229, Control_c, 0, 64, 127
2, 17287, Note_off_c, 0, 69, 64
2, 17292, Note_off_c, 0, 60, 64
2, 17294, Note_off_c, 0, 72, 64
2, 17297, Note_off_c, 0, 53, 64
2, 17390, Note_on_c, 0, 77, 65
2, 17395, Note_on_c, 0, 69, 55
2, 17397, Note_on_c, 0, 60, 51
2, 17397, Note_on_c, 0, 53, 45
2, 17420, Control_c, 0, 64, 0
2, 17433, Control_c, 0, 64, 127
2, 17521, Note_off_c, 0, 77, 64
2, 17526, Note_off_c, 0, 69, 64
2, 17528, Note_off_c, 0, 53, 64
2, 17528, Note_off_c, 0, 60, 64
2, 17615, Note_on_c, 0, 76, 65
2, 17621, Note_on_c, 0, 67, 57
2, 17625, Note_on_c, 0, 60, 48
2, 17625, Note_on_c, 0, 55, 50
2, 17631, Note_on_c, 0, 48, 42
2, 17644, Control_c, 0, 64, 0
2, 17659, Control_c, 0, 64, 127
2, 17729, Note_off_c, 0, 76, 64
2, 17735, Note_off_c, 0, 67, 64
2, 17739, Note_off_c, 0, 55, 64
2, 17739, Note_off_c, 0, 60, 64
2, 17800, Note_on_c, 0, 65, 45
2, 17800, Note_on_c, 0, 59, 51
2, 17802, Note_on_c, 0, 74, 42
2, 17842, Note_on_c, 0, 64, 41
2, 17842, Note_on_c, 0, 72, 64
2, 17844, Note_on_c, 0, 60, 56
2, 17855, Note_off_c, 0, 59, 64
2, 17855, Note_off_c, 0, 65, 64
2, 17857, Note_off_c, 0, 74, 64
2, 17861, Control_c, 0, 64, 0
2, 18007, Control_c, 0, 64, 127
2, 18234, Note_off_c, 0, 72, 64
2, 18234, Note_off_c, 0, 64, 64
2, 18236, Note_off_c, 0, 60, 64
2, 18281, Note_off_c, 0, 48, 64
2, 18312, Note_on_c, 0, 69, 64
2, 18312, Note_on_c, 0, 65, 55
2, 18312, Note_on_c, 0, 57, 51
2, 18316, Note_on_c, 0, 50, 55
2, 18325, Control_c, 0, 64, 0
2, 18348, Control_c, 0, 64, 127
2, 18426, Note_off_c, 0, 57, 64
2, 18426, Note_off_c, 0, 65, 64
2, 18426, Note_off_c, 0, 69, 64
2, 18430, Note_off_c, 0, 50, 64
2, 18454, Note_on_c, 0, 69, 57
2, 18454, Note_on_c, 0, 65, 48
2, 18457, Note_on_c, 0, 57, 52
2, 18464, Note_on_c, 0, 50, 53
2, 18483, Note_off_c, 0, 65, 64
2, 18483, Note_off_c, 0, 69, 64
2, 18489, Note_off_c, 0, 50, 64
2, 18498, Note_off_c, 0, 57, 64
2, 18508, Note_on_c, 0, 69, 65
2, 18512, Note_on_c, 0, 65, 57
2, 18516, Note_on_c, 0, 57, 51
2, 18518, Control_c, 0, 64, 0
2, 18525, Note_on_c, 0, 50, 56
2, 18536, Control_c, 0, 64, 127
2, 18639, Note_off_c, 0, 69, 64
2, 18643, Note_off_c, 0, 65, 64
2, 18647, Note_off_c, 0, 57, 64
2, 18656, Note_off_c, 0, 50, 64
2, 18718, Note_on_c, 0, 74, 64
2, 18721, Note_on_c, 0, 65, 56
2, 18727, Note_on_c, 0, 57, 45
2, 18728, Note_on_c, 0, 50, 50
2, 18734, Control_c, 0, 64, 0
2, 18757, Control_c, 0, 64, 127
2, 18849, Note_off_c, 0, 74, 64
2, 18852, Note_off_c, 0, 65, 64
2, 18858, Note_off_c, 0, 57, 64
2, 18859, Note_off_c, 0, 50, 64
2, 18947, Note_on_c, 0, 72, 59
2, 18948, Note_on_c, 0, 57, 51
2, 18948, Note_on_c, 0, 64, 55
2, 18951, Note_on_c, 0, 45, 51
2, 18957, Note_on_c, 0, 52, 47
2, 18965, Control_c, 0, 64, 0
2, 18986, Control_c, 0, 64, 127
2, 19061, Note_off_c, 0, 72, 64
2, 19062, Note_off_c, 0, 64, 64
2, 19062, Note_off_c, 0, 57, 64
2, 19071, Note_off_c, 0, 52, 64
2, 19104, Note_on_c, 0, 62, 50
2, 19108, Note_on_c, 0, 70, 61
2, 19111, Note_on_c, 0, 56, 61
2, 19153, Note_on_c, 0, 57, 51
2, 19156, Note_on_c, 0, 60, 57
2, 19156, Note_on_c, 0, 69, 65
2, 19166, Note_off_c, 0, 62, 64
2, 19170, Note_off_c, 0, 70, 64
2, 19173, Note_off_c, 0, 56, 64
2, 19186, Control_c, 0, 64, 0
2, 19349, Control_c, 0, 64, 127
2, 19383, Note_off_c, 0, 57, 64
2, 19385, Note_off_c, 0, 69, 64
2, 19409, Note_off_c, 0, 45, 64
2, 19411, Note_off_c, 0, 60, 64
2, 19473, Control_c, 0, 64, 127
2, 19592, Note_on_c, 0, 62, 52
2, 19598, Note_on_c, 0, 65, 64
2, 19598, Note_on_c, 0, 53, 50
2, 19598, Note_on_c, 0, 46, 56
2, 19611, Control_c, 0, 64, 0
2, 19635, Control_c, 0, 64, 127
2, 19706, Note_off_c, 0, 62, 64
2, 19712, Note_off_c, 0, 46, 64
2, 19712, Note_off_c, 0, 53, 64
2, 19712, Note_off_c, 0, 65, 64
2, 19742, Note_on_c, 0, 65, 61
2, 19746, Note_on_c, 0, 62, 56
2, 19748, Note_on_c, 0, 53, 56
2, 19748, Note_on_c, 0, 46, 65
2, 19769, Note_off_c, 0, 46, 64
2, 19769, Note_off_c, 0, 53, 64
2, 19772, Note_off_c, 0, 65, 64
2, 19774, Note_off_c, 0, 62, 64
2, 19786, Control_c, 0, 64, 0
2, 19794, Note_on_c, 0, 62, 57
2, 19799, Note_on_c, 0, 65, 65
2, 19804, Note_on_c, 0, 53, 56
2, 19807, Note_on_c, 0, 46, 64
2, 19825, Control_c, 0, 64, 127
2, 19925, Note_off_c, 0, 62, 64
2, 19930, Note_off_c, 0, 65, 64
2, 19935, Note_off_c, 0, 53, 64
2, 19938, Note_off_c, 0, 46, 64
2, 19997, Note_on_c, 0, 70, 64
2, 20001, Note_on_c, 0, 62, 57
2, 20005, Note_on_c, 0, 46, 54
2, 20009, Note_on_c, 0, 53, 48
2, 20014, Control_c, 0, 64, 0
2, 20036, Control_c, 0, 64, 127
2, 20128, Note_off_c, 0, 70, 64
2, 20132, Note_off_c, 0, 62, 64
2, 20136, Note_off_c, 0, 46, 64
2, 20140, Note_off_c, 0, 53, 64
2, 20205, Note_on_c, 0, 69, 64
2, 20210, Note_on_c, 0, 41, 47
2, 20212, Note_on_c, 0, 60, 56
2, 20212, Note_on_c, 0, 53, 51
2, 20216, Control_c, 0, 64, 0
2, 20230, Control_c, 0, 64, 127
2, 20319, Note_off_c, 0, 69, 64
2, 20324, Note_off_c, 0, 41, 64
2, 20326, Note_off_c, 0, 53, 64
2, 20326, Note_off_c, 0, 60, 64
2, 20352, Note_on_c, 0, 67, 61
2, 20352, Note_on_c, 0, 58, 56
2, 20352, Note_on_c, 0, 53, 61
2, 20355, Note_on_c, 0, 41, 56
2, 20395, Note_off_c, 0, 53, 64
2, 20395, Note_off_c, 0, 58, 64
2, 20395, Note_off_c, 0, 67, 64
2, 20397, Note_on_c, 0, 65, 71
2, 20397, Note_on_c, 0, 57, 62
2, 20398, Note_off_c, 0, 41, 64
2, 20407, Control_c, 0, 64, 0
2, 20411, Note_on_c, 0, 53, 57
2, 20416, Note_on_c, 0, 41, 56
2, 20434, Control_c, 0, 64, 127
2, 20528, Note_off_c, 0, 57, 64
2, 20528, Note_off_c, 0, 65, 64
2, 20542, Note_off_c, 0, 53, 64
2, 20547, Note_off_c, 0, 41, 64
2, 20600, Note_on_c, 0, 70, 56
2, 20602, Note_on_c, 0, 62, 61
2, 20606, Note_on_c, 0, 46, 54
2, 20610, Note_on_c, 0, 53, 49
2, 20624, Control_c, 0, 64, 0
2, 20656, Control_c, 0, 64, 127
2, 20731, Note_off_c, 0, 70, 64
2, 20733, Note_off_c, 0, 62, 64
2, 20737, Note_off_c, 0, 46, 64
2, 20741, Note_off_c, 0, 53, 64
2, 20806, Note_on_c, 0, 69, 64
2, 20809, Note_on_c, 0, 60, 61
2, 20815, Note_on_c, 0, 53, 57
2, 20819, Note_on_c, 0, 41, 51
2, 20829, Control_c, 0, 64, 0
2, 20842, Control_c, 0, 64, 127
2, 20920, Note_off_c, 0, 69, 64
2, 20923, Note_off_c, 0, 60, 64
2, 20929, Note_off_c, 0, 53, 64
2, 20933, Note_off_c, 0, 41, 64
2, 20964, Note_on_c, 0, 41, 56
2, 20966, Note_on_c, 0, 67, 55
2, 20967, Note_on_c, 0, 53, 65
2, 20968, Note_on_c, 0, 58, 42
2, 21013, Note_off_c, 0, 41, 64
2, 21015, Note_off_c, 0, 67, 64
2, 21016, Note_off_c, 0, 53, 64
2, 21017, Note_off_c, 0, 58, 64
2, 21024, Note_on_c, 0, 41, 28
2, 21025, Control_c, 0, 64, 0
2, 21028, Note_on_c, 0, 57, 65
2, 21028, Note_on_c, 0, 65, 74
2, 21033, Note_on_c, 0, 53, 61
2, 21059, Control_c, 0, 64, 127
2, 21185, Note_off_c, 0, 41, 64
2, 21189, Note_off_c, 0, 65, 64
2, 21189, Note_off_c, 0, 57, 64
2, 21194, Note_off_c, 0, 53, 64
2, 21265, Note_on_c, 0, 67, 65
2, 21270, Note_on_c, 0, 62, 61
2, 21274, Note_on_c, 0, 46, 55
2, 21275, Note_on_c, 0, 55, 54
2, 21304, Control_c, 0, 64, 0
2, 21336, Control_c, 0, 64, 127
2, 21426, Note_off_c, 0, 67, 64
2, 21431, Note_off_c, 0, 62, 64
2, 21435, Note_off_c, 0, 46, 64
2, 21436, Note_off_c, 0, 55, 64
2, 21565, Note_on_c, 0, 62, 59
2, 21578, Note_on_c, 0, 55, 42
2, 21579, Note_on_c, 0, 48, 42
2, 21601, Control_c, 0, 64, 0
2, 21635, Control_c, 0, 64, 127
2, 21751, Note_on_c, 0, 60, 52
2, 21755, Note_off_c, 0, 62, 64
2, 21755, Note_on_c, 0, 64, 47
2, 21971, Note_off_c, 0, 55, 64
2, 21992, Note_off_c, 0, 64, 64
2, 21994, Note_on_c, 0, 65, 32
2, 22003, Note_on_c, 0, 53, 32
2, 22004, Note_on_c, 0, 41, 32
2, 22008, Note_on_c, 0, 57, 38
2, 22014, Note_off_c, 0, 48, 64
2, 22028, Note_off_c, 0, 60, 64
2, 22063, Control_c, 0, 64, 0
2, 22194, Control_c, 0, 64, 127
2, 22521, Note_off_c, 0, 57, 64
2, 22535, Note_off_c, 0, 41, 64
2, 22556, Note_off_c, 0, 53, 64
2, 22561, Note_off_c, 0, 65, 64
2, 22992, Note_on_c, 0, 58, 55
2, 22996, Note_on_c, 0, 65, 45
2, 23011, Control_c, 0, 64, 0
2, 23035, Control_c, 0, 64, 127
2, 23051, Note_off_c, 0, 58, 64
2, 23074, Note_off_c, 0, 65, 64
2, 23156, Note_on_c, 0, 58, 49
2, 23159, Note_on_c, 0, 65, 36
2, 23205, Note_off_c, 0, 58, 64
2, 23215, Note_off_c, 0, 65, 64
2, 23316, Note_on_c, 0, 58, 45
2, 23319, Note_on_c, 0, 65, 39
2, 23362, Note_off_c, 0, 58, 64
2, 23368, Note_off_c, 0, 65, 64
2, 23476, Note_on_c, 0, 65, 36
2, 23476, Note_on_c, 0, 58, 45
2, 23523, Note_off_c, 0, 58, 64
2, 23539, Note_off_c, 0, 65, 64
2, 23637, Note_on_c, 0, 58, 49
2, 23641, Note_on_c, 0, 65, 29
2, 23692, Note_off_c, 0, 58, 64
2, 23702, Note_off_c, 0, 65, 64
2, 23792, Note_on_c, 0, 58, 47
2, 23798, Note_on_c, 0, 65, 32
2, 23847, Note_off_c, 0, 58, 64
2, 23859, Note_off_c, 0, 65, 64
2, 23951, Note_on_c, 0, 58, 49
2, 23955, Note_on_c, 0, 65, 36
2, 24006, Note_off_c, 0, 58, 64
2, 24015, Note_off_c, 0, 65, 64
2, 24105, Note_on_c, 0, 65, 64
2, 24105, Note_on_c, 0, 58, 69
2, 24147, Note_off_c, 0, 58, 64
2, 24150, Note_off_c, 0, 65, 64
2, 24263, Note_on_c, 0, 58, 49
2, 24271, Note_on_c, 0, 65, 36
2, 24314, Note_off_c, 0, 58, 64
2, 24320, Note_off_c, 0, 65, 64
2, 24429, Note_on_c, 0, 65, 69
2, 24429, Note_on_c, 0, 58, 72
2, 24472, Note_off_c, 0, 58, 64
2, 24472, Note_off_c, 0, 65, 64
2, 24595, Note_on_c, 0, 58, 48
2, 24602, Note_on_c, 0, 65, 44
2, 24639, Note_off_c, 0, 65, 64
2, 24641, Note_off_c, 0, 58, 64
2, 24759, Note_on_c, 0, 58, 72
2, 24762, Note_on_c, 0, 65, 64
2, 24796, Note_off_c, 0, 58, 64
2, 24802, Note_off_c, 0, 65, 64
2, 24836, Note_on_c, 0, 77, 62
2, 24894, Note_on_c, 0, 89, 69
2, 24903, Note_on_c, 0, 58, 51
2, 24906, Note_on_c, 0, 65, 50
2, 24924, Note_off_c, 0, 77, 64
2, 24947, Note_off_c, 0, 58, 64
2, 24953, Note_off_c, 0, 65, 64
2, 25034, Note_on_c, 0, 58, 50
2, 25037, Note_on_c, 0, 65, 43
2, 25080, Note_off_c, 0, 58, 64
2, 25086, Note_off_c, 0, 65, 64
2, 25103, Note_off_c, 0, 89, 64
2, 25103, Note_on_c, 0, 88, 61
2, 25171, Note_on_c, 0, 58, 45
2, 25176, Note_on_c, 0, 89, 61
2, 25179, Note_on_c, 0, 65, 36
2, 25203, Note_off_c, 0, 88, 64
2, 25221, Note_off_c, 0, 58, 64
2, 25230, Note_off_c, 0, 65, 64
2, 25253, Note_on_c, 0, 86, 64
2, 25270, Note_off_c, 0, 89, 64
2, 25306, Note_on_c, 0, 58, 44
2, 25309, Note_on_c, 0, 65, 40
2, 25319, Note_on_c, 0, 82, 74
2, 25336, Note_off_c, 0, 86, 64
2, 25361, Note_off_c, 0, 58, 64
2, 25368, Note_off_c, 0, 65, 64
2, 25381, Note_on_c, 0, 86, 61
2, 25402, Note_off_c, 0, 82, 64
2, 25454, Note_on_c, 0, 84, 64
2, 25459, Note_on_c, 0, 58, 40
2, 25463, Note_on_c, 0, 65, 34
2, 25473, Note_off_c, 0, 86, 64
2, 25509, Note_off_c, 0, 58, 64
2, 25518, Note_off_c, 0, 65, 64
2, 25523, Note_on_c, 0, 88, 61
2, 25532, Note_off_c, 0, 84, 64
2, 25587, Note_on_c, 0, 58, 68
2, 25591, Note_on_c, 0, 65, 56
2, 25594, Note_on_c, 0, 89, 69
2, 25616, Note_off_c, 0, 88, 64
2, 25647, Note_off_c, 0, 58, 64
2, 25654, Note_off_c, 0, 65, 64
2, 25728, Note_on_c, 0, 82, 68
2, 25737, Note_on_c, 0, 58, 45
2, 25742, Note_on_c, 0, 65, 34
2, 25781, Note_off_c, 0, 89, 64
2, 25787, Note_off_c, 0, 58, 64
2, 25790, Note_on_c, 0, 86, 56
2, 25796, Note_off_c, 0, 65, 64
2, 25820, Note_off_c, 0, 82, 64
2, 25865, Note_on_c, 0, 84, 61
2, 25869, Note_on_c, 0, 58, 50
2, 25873, Note_on_c, 0, 65, 40
2, 25876, Note_off_c, 0, 86, 64
2, 25924, Note_off_c, 0, 58, 64
2, 25934, Note_off_c, 0, 65, 64
2, 25934, Note_on_c, 0, 88, 64
2, 25938, Note_off_c, 0, 84, 64
2, 26009, Note_on_c, 0, 89, 61
2, 26009, Note_on_c, 0, 58, 45
2, 26013, Note_on_c, 0, 65, 38
2, 26032, Note_off_c, 0, 88, 64
2, 26062, Note_off_c, 0, 58, 64
2, 26069, Note_off_c, 0, 65, 64
2, 26075, Note_on_c, 0, 86, 56
2, 26092, Note_off_c, 0, 89, 64
2, 26140, Note_on_c, 0, 82, 75
2, 26145, Note_on_c, 0, 58, 44
2, 26150, Note_off_c, 0, 86, 64
2, 26150, Note_on_c, 0, 65, 37
2, 26207, Note_off_c, 0, 58, 64
2, 26215, Note_off_c, 0, 65, 64
2, 26219, Note_on_c, 0, 86, 61
2, 26235, Note_off_c, 0, 82, 64
2, 26288, Note_on_c, 0, 84, 65
2, 26297, Note_on_c, 0, 58, 40
2, 26303, Note_on_c, 0, 65, 35
2, 26307, Note_off_c, 0, 86, 64
2, 26357, Note_off_c, 0, 58, 64
2, 26357, Note_on_c, 0, 81, 56
2, 26365, Note_off_c, 0, 84, 64
2, 26366, Note_off_c, 0, 65, 64
2, 26441, Note_on_c, 0, 65, 55
2, 26441, Note_on_c, 0, 58, 61
2, 26446, Note_on_c, 0, 77, 57
2, 26461, Note_off_c, 0, 81, 64
2, 26500, Note_off_c, 0, 58, 64
2, 26508, Note_off_c, 0, 65, 64
2, 26540, Note_off_c, 0, 77, 64
2, 26576, Note_on_c, 0, 77, 61
2, 26628, Note_on_c, 0, 89, 62
2, 26638, Note_on_c, 0, 58, 44
2, 26640, Note_on_c, 0, 65, 43
2, 26661, Control_c, 0, 64, 0
2, 26667, Note_off_c, 0, 77, 64
2, 26674, Control_c, 0, 64, 127
2, 26690, Note_off_c, 0, 58, 64
2, 26697, Note_off_c, 0, 65, 64
2, 26802, Note_on_c, 0, 58, 36
2, 26806, Note_on_c, 0, 65, 32
2, 26863, Note_off_c, 0, 58, 64
2, 26868, Note_off_c, 0, 65, 64
2, 26871, Note_off_c, 0, 89, 64
2, 26877, Note_on_c, 0, 88, 51
2, 26949, Note_on_c, 0, 89, 56
2, 26953, Note_on_c, 0, 58, 44
2, 26958, Note_on_c, 0, 65, 37
2, 26976, Note_off_c, 0, 88, 64
2, 27007, Note_off_c, 0, 58, 64
2, 27009, Note_off_c, 0, 65, 64
2, 27028, Note_on_c, 0, 86, 55
2, 27038, Note_off_c, 0, 89, 64
2, 27081, Note_on_c, 0, 82, 72
2, 27090, Note_off_c, 0, 86, 64
2, 27090, Note_on_c, 0, 58, 40
2, 27096, Note_on_c, 0, 65, 38
2, 27142, Note_off_c, 0, 58, 64
2, 27149, Note_off_c, 0, 65, 64
2, 27151, Note_on_c, 0, 86, 56
2, 27172, Note_off_c, 0, 82, 64
2, 27221, Note_on_c, 0, 58, 43
2, 27225, Note_on_c, 0, 65, 37
2, 27228, Note_on_c, 0, 84, 56
2, 27238, Note_off_c, 0, 86, 64
2, 27269, Note_off_c, 0, 58, 64
2, 27279, Note_off_c, 0, 65, 64
2, 27293, Note_on_c, 0, 88, 56
2, 27303, Note_off_c, 0, 84, 64
2, 27362, Note_on_c, 0, 65, 61
2, 27364, Note_on_c, 0, 89, 68
2, 27364, Note_on_c, 0, 58, 64
2, 27387, Note_off_c, 0, 88, 64
2, 27416, Note_off_c, 0, 58, 64
2, 27416, Note_off_c, 0, 65, 64
2, 27505, Note_on_c, 0, 82, 61
2, 27516, Note_on_c, 0, 58, 51
2, 27524, Note_on_c, 0, 65, 45
2, 27552, Note_off_c, 0, 89, 64
2, 27562, Note_off_c, 0, 58, 64
2, 27567, Note_off_c, 0, 65, 64
2, 27575, Note_on_c, 0, 86, 56
2, 27611, Note_off_c, 0, 82, 64
2, 27649, Note_on_c, 0, 84, 61
2, 27657, Note_on_c, 0, 58, 50
2, 27664, Note_off_c, 0, 86, 64
2, 27664, Note_on_c, 0, 65, 39
2, 27705, Note_off_c, 0, 58, 64
2, 27708, Note_off_c, 0, 65, 64
2, 27719, Note_on_c, 0, 88, 61
2, 27728, Note_off_c, 0, 84, 64
2, 27806, Note_on_c, 0, 58, 40
2, 27809, Note_on_c, 0, 65, 37
2, 27813, Note_on_c, 0, 89, 55
2, 27846, Note_off_c, 0, 88, 64
2, 27860, Note_off_c, 0, 58, 64
2, 27869, Note_off_c, 0, 65, 64
2, 27898, Note_on_c, 0, 86, 56
2, 27908, Note_off_c, 0, 89, 64
2, 27976, Note_on_c, 0, 82, 65
2, 27983, Note_off_c, 0, 86, 64
2, 27983, Note_on_c, 0, 58, 43
2, 27991, Note_on_c, 0, 65, 39
2, 27999, Control_c, 0, 64, 0
2, 28013, Control_c, 0, 64, 127
2, 28019, Note_off_c, 0, 58, 64
2, 28042, Note_off_c, 0, 65, 64
2, 28088, Note_on_c, 0, 86, 55
2, 28112, Note_off_c, 0, 82, 64
2, 28193, Note_on_c, 0, 84, 61
2, 28202, Note_on_c, 0, 60, 47
2, 28206, Note_on_c, 0, 64, 38
2, 28210, Note_on_c, 0, 70, 41
2, 28222, Control_c, 0, 64, 0
2, 28231, Note_off_c, 0, 86, 64
2, 28235, Control_c, 0, 64, 127
2, 28287, Note_off_c, 0, 64, 64
2, 28298, Note_off_c, 0, 60, 64
2, 28301, Note_off_c, 0, 70, 64
2, 28307, Note_on_c, 0, 82, 56
2, 28313, Note_off_c, 0, 84, 64
2, 28449, Note_on_c, 0, 79, 55
2, 28451, Note_off_c, 0, 82, 64
2, 28454, Note_on_c, 0, 70, 47
2, 28460, Note_on_c, 0, 60, 39
2, 28462, Note_on_c, 0, 64, 36
2, 28493, Control_c, 0, 64, 0
2, 28514, Control_c, 0, 64, 127
2, 28563, Note_off_c, 0, 70, 64
2, 28568, Note_off_c, 0, 64, 64
2, 28580, Note_off_c, 0, 60, 64
2, 28808, Note_on_c, 0, 77, 64
2, 28808, Note_on_c, 0, 69, 57
2, 28812, Note_on_c, 0, 65, 51
2, 28816, Note_off_c, 0, 79, 64
2, 28821, Control_c, 0, 64, 0
2, 28850, Control_c, 0, 64, 127
2, 28922, Note_off_c, 0, 69, 64
2, 28922, Note_off_c, 0, 77, 64
2, 28926, Note_off_c, 0, 65, 64
2, 28995, Note_on_c, 0, 65, 54
2, 29002, Note_on_c, 0, 72, 58
2, 29002, Note_on_c, 0, 69, 55
2, 29002, Note_on_c, 0, 60, 58
2, 29007, Note_on_c, 0, 53, 54
2, 29024, Note_off_c, 0, 53, 64
2, 29025, Note_off_c, 0, 72, 64
2, 29028, Note_off_c, 0, 60, 64
2, 29030, Note_off_c, 0, 69, 64
2, 29037, Note_off_c, 0, 65, 64
2, 29049, Note_on_c, 0, 72, 64
2, 29049, Note_on_c, 0, 69, 61
2, 29057, Note_on_c, 0, 65, 64
2, 29059, Note_on_c, 0, 60, 64
2, 29064, Note_on_c, 0, 53, 64
2, 29210, Note_off_c, 0, 69, 64
2, 29210, Note_off_c, 0, 72, 64
2, 29218, Note_off_c, 0, 65, 64
2, 29220, Note_off_c, 0, 60, 64
2, 29225, Note_off_c, 0, 53, 64
2, 29260, Note_on_c, 0, 69, 58
2, 29260, Note_on_c, 0, 60, 55
2, 29266, Note_on_c, 0, 77, 58
2, 29267, Control_c, 0, 64, 0
2, 29275, Note_on_c, 0, 53, 54
2, 29283, Control_c, 0, 64, 127
2, 29421, Note_off_c, 0, 60, 64
2, 29421, Note_off_c, 0, 69, 64
2, 29427, Note_off_c, 0, 77, 64
2, 29436, Note_off_c, 0, 53, 64
2, 29480, Note_on_c, 0, 55, 51
2, 29483, Note_on_c, 0, 67, 58
2, 29488, Note_on_c, 0, 76, 61
2, 29491, Note_on_c, 0, 48, 51
2, 29491, Note_on_c, 0, 60, 54
2, 29594, Note_off_c, 0, 55, 64
2, 29597, Note_off_c, 0, 67, 64
2, 29602, Note_off_c, 0, 76, 64
2, 29605, Note_off_c, 0, 60, 64
2, 29652, Note_on_c, 0, 74, 54
2, 29658, Note_on_c, 0, 65, 54
2, 29658, Note_on_c, 0, 59, 55
2, 29692, Note_on_c, 0, 72, 59
2, 29696, Note_off_c, 0, 74, 64
2, 29701, Note_off_c, 0, 65, 64
2, 29701, Note_on_c, 0, 64, 59
2, 29707, Note_on_c, 0, 60, 67
2, 29717, Note_off_c, 0, 59, 64
2, 29730, Control_c, 0, 64, 0
2, 29882, Control_c, 0, 64, 127
2, 30122, Note_off_c, 0, 48, 64
2, 30137, Note_off_c, 0, 72, 64
2, 30146, Note_off_c, 0, 64, 64
2, 30152, Note_off_c, 0, 60, 64
2, 30162, Note_on_c, 0, 69, 61
2, 30162, Note_on_c, 0, 57, 55
2, 30167, Note_on_c, 0, 65, 54
2, 30170, Note_on_c, 0, 50, 55
2, 30176, Control_c, 0, 64, 0
2, 30209, Control_c, 0, 64, 127
2, 30276, Note_off_c, 0, 57, 64
2, 30276, Note_off_c, 0, 69, 64
2, 30281, Note_off_c, 0, 65, 64
2, 30284, Note_off_c, 0, 50, 64
2, 30311, Note_on_c, 0, 69, 54
2, 30316, Note_on_c, 0, 65, 50
2, 30316, Note_on_c, 0, 57, 54
2, 30320, Note_on_c, 0, 50, 54
2, 30339, Note_off_c, 0, 65, 64
2, 30342, Note_off_c, 0, 50, 64
2, 30342, Note_off_c, 0, 69, 64
2, 30349, Note_off_c, 0, 57, 64
2, 30359, Control_c, 0, 64, 0
2, 30365, Note_on_c, 0, 65, 61
2, 30369, Note_on_c, 0, 69, 64
2, 30372, Note_on_c, 0, 57, 57
2, 30375, Note_on_c, 0, 50, 62
2, 30382, Control_c, 0, 64, 127
2, 30496, Note_off_c, 0, 65, 64
2, 30500, Note_off_c, 0, 69, 64
2, 30503, Note_off_c, 0, 57, 64
2, 30506, Note_off_c, 0, 50, 64
2, 30561, Control_c, 0, 64, 0
2, 30568, Note_on_c, 0, 50, 51
2, 30572, Note_on_c, 0, 74, 58
2, 30573, Note_on_c, 0, 65, 62
2, 30573, Note_on_c, 0, 57, 58
2, 30584, Control_c, 0, 64, 127
2, 30699, Note_off_c, 0, 50, 64
2, 30703, Note_off_c, 0, 74, 64
2, 30704, Note_off_c, 0, 57, 64
2, 30704, Note_off_c, 0, 65, 64
2, 30781, Note_on_c, 0, 64, 57
2, 30788, Note_on_c, 0, 52, 58
2, 30789, Note_on_c, 0, 72, 58
2, 30792, Note_on_c, 0, 45, 54
2, 30798, Control_c, 0, 64, 0
2, 30810, Control_c, 0, 64, 127
2, 30895, Note_off_c, 0, 64, 64
2, 30902, Note_off_c, 0, 52, 64
2, 30903, Note_off_c, 0, 72, 64
2, 30938, Note_on_c, 0, 70, 54
2, 30938, Note_on_c, 0, 56, 61
2, 30941, Note_on_c, 0, 62, 39
2, 30982, Note_on_c, 0, 57, 59
2, 30990, Note_on_c, 0, 60, 63
2, 30991, Note_on_c, 0, 69, 58
2, 31000, Note_off_c, 0, 56, 64
2, 31003, Note_off_c, 0, 62, 64
2, 31003, Note_off_c, 0, 70, 64
2, 31018, Control_c, 0, 64, 0
2, 31203, Control_c, 0, 64, 127
2, 31373, Note_off_c, 0, 45, 64
2, 31409, Note_off_c, 0, 57, 64
2, 31417, Note_off_c, 0, 60, 64
2, 31418, Note_off_c, 0, 69, 64
2, 31424, Note_on_c, 0, 53, 55
2, 31430, Note_on_c, 0, 46, 54
2, 31430, Note_on_c, 0, 62, 54
2, 31432, Note_on_c, 0, 65, 57
2, 31439, Control_c, 0, 64, 0
2, 31464, Control_c, 0, 64, 127
2, 31509, Control_c, 0, 64, 127
2, 31538, Note_off_c, 0, 53, 64
2, 31544, Note_off_c, 0, 62, 64
2, 31544, Note_off_c, 0, 46, 64
2, 31546, Note_off_c, 0, 65, 64
2, 31583, Note_on_c, 0, 65, 57
2, 31583, Note_on_c, 0, 62, 54
2, 31588, Note_on_c, 0, 53, 45
2, 31593, Note_on_c, 0, 46, 45
2, 31604, Note_off_c, 0, 65, 64
2, 31606, Note_off_c, 0, 62, 64
2, 31611, Note_off_c, 0, 53, 64
2, 31616, Note_off_c, 0, 46, 64
2, 31618, Control_c, 0, 64, 0
2, 31628, Note_on_c, 0, 62, 61
2, 31630, Note_on_c, 0, 65, 64
2, 31633, Note_on_c, 0, 46, 64
2, 31636, Note_on_c, 0, 53, 64
2, 31645, Control_c, 0, 64, 127
2, 31759, Note_off_c, 0, 62, 64
2, 31761, Note_off_c, 0, 65, 64
2, 31764, Note_off_c, 0, 46, 64
2, 31767, Note_off_c, 0, 53, 64
2, 31819, Note_on_c, 0, 70, 58
2, 31825, Note_on_c, 0, 46, 51
2, 31827, Note_on_c, 0, 62, 61
2, 31827, Note_on_c, 0, 53, 51
2, 31836, Control_c, 0, 64, 0
2, 31849, Control_c, 0, 64, 127
2, 31950, Note_off_c, 0, 70, 64
2, 31956, Note_off_c, 0, 46, 64
2, 31958, Note_off_c, 0, 53, 64
2, 31958, Note_off_c, 0, 62, 64
2, 32019, Note_on_c, 0, 60, 54
2, 32021, Note_on_c, 0, 69, 54
2, 32029, Note_on_c, 0, 53, 57
2, 32031, Note_on_c, 0, 41, 54
2, 32037, Control_c, 0, 64, 0
2, 32051, Control_c, 0, 64, 127
2, 32133, Note_off_c, 0, 60, 64
2, 32135, Note_off_c, 0, 69, 64
2, 32143, Note_off_c, 0, 53, 64
2, 32145, Note_off_c, 0, 41, 64
2, 32157, Note_on_c, 0, 67, 54
2, 32157, Note_on_c, 0, 58, 50
2, 32166, Note_on_c, 0, 53, 66
2, 32168, Note_on_c, 0, 41, 61
2, 32193, Note_off_c, 0, 58, 64
2, 32202, Note_off_c, 0, 53, 64
2, 32207, Note_off_c, 0, 41, 64
2, 32209, Note_on_c, 0, 65, 68
2, 32209, Note_on_c, 0, 57, 64
2, 32211, Control_c, 0, 64, 0
2, 32212, Note_on_c, 0, 53, 61
2, 32212, Note_on_c, 0, 41, 55
2, 32220, Note_off_c, 0, 67, 64
2, 32244, Control_c, 0, 64, 127
2, 32340, Note_off_c, 0, 57, 64
2, 32340, Note_off_c, 0, 65, 64
2, 32343, Note_off_c, 0, 41, 64
2, 32343, Note_off_c, 0, 53, 64
2, 32411, Note_on_c, 0, 70, 61
2, 32417, Note_on_c, 0, 53, 61
2, 32417, Note_on_c, 0, 62, 64
2, 32424, Note_on_c, 0, 46, 61
2, 32435, Control_c, 0, 64, 0
2, 32474, Control_c, 0, 64, 127
2, 32542, Note_off_c, 0, 70, 64
2, 32548, Note_off_c, 0, 62, 64
2, 32548, Note_off_c, 0, 53, 64
2, 32555, Note_off_c, 0, 46, 64
2, 32625, Note_on_c, 0, 69, 61
2, 32634, Note_on_c, 0, 41, 54
2, 32634, Note_on_c, 0, 60, 61
2, 32636, Note_on_c, 0, 53, 64
2, 32643, Control_c, 0, 64, 0
2, 32656, Control_c, 0, 64, 127
2, 32739, Note_off_c, 0, 69, 64
2, 32748, Note_off_c, 0, 60, 64
2, 32748, Note_off_c, 0, 41, 64
2, 32750, Note_off_c, 0, 53, 64
2, 32765, Note_on_c, 0, 67, 57
2, 32768, Note_on_c, 0, 53, 64
2, 32772, Note_on_c, 0, 58, 58
2, 32780, Note_on_c, 0, 41, 54
2, 32810, Note_off_c, 0, 67, 64
2, 32813, Note_off_c, 0, 53, 64
2, 32817, Note_off_c, 0, 58, 64
2, 32821, Note_on_c, 0, 65, 64
2, 32825, Note_off_c, 0, 41, 64
2, 32826, Note_on_c, 0, 57, 68
2, 32828, Note_on_c, 0, 53, 61
2, 32830, Note_on_c, 0, 41, 53
2, 32830, Control_c, 0, 64, 0
2, 32853, Control_c, 0, 64, 127
2, 32952, Note_off_c, 0, 65, 64
2, 32957, Note_off_c, 0, 57, 64
2, 32959, Note_off_c, 0, 53, 64
2, 32961, Note_off_c, 0, 41, 64
2, 33037, Note_on_c, 0, 67, 61
2, 33044, Note_on_c, 0, 59, 57
2, 33044, Note_on_c, 0, 50, 55
2, 33044, Note_on_c, 0, 43, 54
2, 33063, Control_c, 0, 64, 0
2, 33105, Control_c, 0, 64, 127
2, 33171, Note_on_c, 0, 55, 50
2, 33268, Note_off_c, 0, 55, 64
2, 33279, Note_off_c, 0, 67, 64
2, 33286, Note_off_c, 0, 43, 64
2, 33286, Note_off_c, 0, 50, 64
2, 33286, Note_off_c, 0, 59, 64
2, 33301, Note_on_c, 0, 48, 45
2, 33301, Note_on_c, 0, 55, 46
2, 33301, Note_on_c, 0, 60, 50
2, 33301, Note_on_c, 0, 64, 50
2, 33337, Control_c, 0, 64, 0
2, 33389, Control_c, 0, 64, 127
2, 33520, Note_off_c, 0, 60, 64
2, 33524, Note_on_c, 0, 53, 36
2, 33524, Note_on_c, 0, 62, 39
2, 33528, Note_off_c, 0, 64, 64
2, 33553, Note_off_c, 0, 55, 64
2, 33577, Note_on_c, 0, 60, 45
2, 33593, Note_off_c, 0, 62, 64
2, 33593, Note_on_c, 0, 52, 36
2, 33610, Note_off_c, 0, 53, 64
2, 33620, Control_c, 0, 64, 0
2, 33722, Control_c, 0, 64, 127
2, 34022, Note_off_c, 0, 60, 64
2, 34038, Note_off_c, 0, 52, 64
2, 34092, Note_off_c, 0, 48, 64
2, 34105, Control_c, 0, 64, 0
2, 34110, Note_on_c, 0, 60, 47
2, 34112, Note_on_c, 0, 72, 51
2, 34112, Note_on_c, 0, 69, 25
2, 34112, Note_on_c, 0, 53, 39
2, 34126, Control_c, 0, 64, 127
2, 34224, Note_off_c, 0, 60, 64
2, 34226, Note_off_c, 0, 53, 64
2, 34226, Note_off_c, 0, 69, 64
2, 34226, Note_off_c, 0, 72, 64
2, 34276, Note_on_c, 0, 72, 61
2, 34276, Note_on_c, 0, 69, 51
2, 34276, Note_on_c, 0, 60, 61
2, 34276, Note_on_c, 0, 53, 51
2, 34300, Note_off_c, 0, 72, 64
2, 34306, Note_off_c, 0, 69, 64
2, 34308, Note_off_c, 0, 53, 64
2, 34308, Note_off_c, 0, 60, 64
2, 34317, Control_c, 0, 64, 0
2, 34326, Note_on_c, 0, 72, 65
2, 34329, Note_on_c, 0, 69, 55
2, 34334, Note_on_c, 0, 60, 57
2, 34338, Note_on_c, 0, 53, 51
2, 34349, Control_c, 0, 64, 127
2, 34457, Note_off_c, 0, 72, 64
2, 34460, Note_off_c, 0, 69, 64
2, 34465, Note_off_c, 0, 60, 64
2, 34469, Note_off_c, 0, 53, 64
2, 34531, Note_on_c, 0, 77, 61
2, 34536, Note_on_c, 0, 53, 52
2, 34538, Note_on_c, 0, 60, 56
2, 34542, Note_on_c, 0, 69, 49
2, 34548, Control_c, 0, 64, 0
2, 34578, Control_c, 0, 64, 127
2, 34662, Note_off_c, 0, 77, 64
2, 34667, Note_off_c, 0, 53, 64
2, 34669, Note_off_c, 0, 60, 64
2, 34673, Note_off_c, 0, 69, 64
2, 34747, Note_on_c, 0, 67, 55
2, 34751, Note_on_c, 0, 76, 61
2, 34754, Note_on_c, 0, 55, 43
2, 34755, Note_on_c, 0, 60, 47
2, 34761, Note_on_c, 0, 48, 36
2, 34774, Control_c, 0, 64, 0
2, 34798, Control_c, 0, 64, 127
2, 34861, Note_off_c, 0, 67, 64
2, 34865, Note_off_c, 0, 76, 64
2, 34868, Note_off_c, 0, 55, 64
2, 34869, Note_off_c, 0, 60, 64
2, 34935, Note_on_c, 0, 59, 52
2, 34940, Note_on_c, 0, 74, 42
2, 34940, Note_on_c, 0, 65, 49
2, 34986, Note_off_c, 0, 65, 64
2, 34986, Note_on_c, 0, 64, 45
2, 34986, Note_on_c, 0, 72, 56
2, 34993, Note_on_c, 0, 60, 56
2, 35001, Control_c, 0, 64, 0
2, 35007, Note_off_c, 0, 74, 64
2, 35012, Note_off_c, 0, 59, 64
2, 35130, Control_c, 0, 64, 127
2, 35391, Note_off_c, 0, 48, 64
2, 35401, Note_off_c, 0, 72, 64
2, 35401, Note_off_c, 0, 64, 64
2, 35408, Note_off_c, 0, 60, 64
2, 35442, Note_on_c, 0, 57, 39
2, 35442, Note_on_c, 0, 69, 55
2, 35446, Note_on_c, 0, 65, 43
2, 35448, Note_on_c, 0, 50, 41
2, 35454, Control_c, 0, 64, 0
2, 35491, Control_c, 0, 64, 127
2, 35556, Note_off_c, 0, 69, 64
2, 35556, Note_off_c, 0, 57, 64
2, 35560, Note_off_c, 0, 65, 64
2, 35562, Note_off_c, 0, 50, 64
2, 35608, Note_on_c, 0, 69, 65
2, 35609, Note_on_c, 0, 65, 57
2, 35609, Note_on_c, 0, 50, 54
2, 35612, Note_on_c, 0, 57, 48
2, 35634, Note_off_c, 0, 69, 64
2, 35638, Note_off_c, 0, 65, 64
2, 35639, Note_off_c, 0, 50, 64
2, 35642, Note_off_c, 0, 57, 64
2, 35649, Control_c, 0, 64, 0
2, 35658, Note_on_c, 0, 69, 65
2, 35658, Note_on_c, 0, 65, 57
2, 35660, Note_on_c, 0, 57, 57
2, 35664, Note_on_c, 0, 50, 57
2, 35668, Control_c, 0, 64, 127
2, 35772, Control_c, 0, 64, 127
2, 35789, Note_off_c, 0, 65, 64
2, 35789, Note_off_c, 0, 69, 64
2, 35791, Note_off_c, 0, 57, 64
2, 35795, Note_off_c, 0, 50, 64
2, 35852, Note_on_c, 0, 74, 62
2, 35852, Note_on_c, 0, 65, 56
2, 35858, Note_on_c, 0, 57, 52
2, 35858, Note_on_c, 0, 50, 50
2, 35868, Control_c, 0, 64, 0
2, 35894, Control_c, 0, 64, 127
2, 35983, Note_off_c, 0, 65, 64
2, 35983, Note_off_c, 0, 74, 64
2, 35989, Note_off_c, 0, 50, 64
2, 35989, Note_off_c, 0, 57, 64
2, 36063, Note_on_c, 0, 64, 54
2, 36070, Note_on_c, 0, 45, 51
2, 36070, Note_on_c, 0, 72, 61
2, 36076, Note_on_c, 0, 52, 50
2, 36080, Control_c, 0, 64, 0
2, 36099, Control_c, 0, 64, 127
2, 36177, Note_off_c, 0, 64, 64
2, 36184, Note_off_c, 0, 72, 64
2, 36190, Note_off_c, 0, 52, 64
2, 36232, Note_on_c, 0, 56, 55
2, 36236, Note_on_c, 0, 70, 61
2, 36236, Note_on_c, 0, 62, 55
2, 36283, Note_on_c, 0, 57, 43
2, 36286, Note_on_c, 0, 60, 57
2, 36290, Note_on_c, 0, 69, 61
2, 36296, Note_off_c, 0, 56, 64
2, 36300, Note_off_c, 0, 62, 64
2, 36300, Note_off_c, 0, 70, 64
2, 36315, Control_c, 0, 64, 0
2, 36496, Control_c, 0, 64, 127
2, 36730, Note_off_c, 0, 57, 64
2, 36731, Note_off_c, 0, 45, 64
2, 36733, Note_off_c, 0, 60, 64
2, 36737, Note_off_c, 0, 69, 64
2, 36786, Note_on_c, 0, 53, 56
2, 36786, Note_on_c, 0, 46, 56
2, 36787, Note_on_c, 0, 65, 62
2, 36787, Note_on_c, 0, 62, 57
2, 36807, Control_c, 0, 64, 0
2, 36829, Control_c, 0, 64, 127
2, 36900, Note_off_c, 0, 46, 64
2, 36900, Note_off_c, 0, 53, 64
2, 36901, Note_off_c, 0, 62, 64
2, 36901, Note_off_c, 0, 65, 64
2, 36935, Note_on_c, 0, 65, 68
2, 36935, Note_on_c, 0, 62, 65
2, 36937, Note_on_c, 0, 46, 72
2, 36941, Note_on_c, 0, 53, 65
2, 36964, Note_off_c, 0, 46, 64
2, 36967, Note_off_c, 0, 62, 64
2, 36967, Note_off_c, 0, 65, 64
2, 36973, Note_off_c, 0, 53, 64
2, 36980, Control_c, 0, 64, 0
2, 36987, Note_on_c, 0, 62, 65
2, 36990, Note_on_c, 0, 65, 68
2, 36997, Note_on_c, 0, 53, 62
2, 36999, Note_on_c, 0, 46, 69
2, 37014, Control_c, 0, 64, 127
2, 37118, Note_off_c, 0, 62, 64
2, 37121, Note_off_c, 0, 65, 64
2, 37128, Note_off_c, 0, 53, 64
2, 37130, Note_off_c, 0, 46, 64
2, 37187, Note_on_c, 0, 70, 68
2, 37192, Note_on_c, 0, 62, 68
2, 37192, Note_on_c, 0, 53, 68
2, 37193, Note_on_c, 0, 46, 68
2, 37203, Control_c, 0, 64, 0
2, 37218, Control_c, 0, 64, 127
2, 37318, Note_off_c, 0, 70, 64
2, 37323, Note_off_c, 0, 53, 64
2, 37323, Note_off_c, 0, 62, 64
2, 37324, Note_off_c, 0, 46, 64
2, 37389, Note_on_c, 0, 69, 64
2, 37396, Note_on_c, 0, 41, 61
2, 37396, Note_on_c, 0, 60, 68
2, 37399, Note_on_c, 0, 53, 68
2, 37408, Control_c, 0, 64, 0
2, 37422, Control_c, 0, 64, 127
2, 37503, Note_off_c, 0, 69, 64
2, 37510, Note_off_c, 0, 60, 64
2, 37510, Note_off_c, 0, 41, 64
2, 37513, Note_off_c, 0, 53, 64
2, 37526, Note_on_c, 0, 67, 62
2, 37528, Note_on_c, 0, 58, 57
2, 37536, Note_on_c, 0, 53, 62
2, 37542, Note_on_c, 0, 41, 68
2, 37564, Note_off_c, 0, 53, 64
2, 37570, Note_off_c, 0, 41, 64
2, 37571, Note_off_c, 0, 58, 64
2, 37582, Note_on_c, 0, 65, 70
2, 37582, Note_on_c, 0, 57, 78
2, 37582, Control_c, 0, 64, 0
2, 37584, Note_on_c, 0, 53, 74
2, 37591, Note_off_c, 0, 67, 64
2, 37592, Note_on_c, 0, 41, 62
2, 37614, Control_c, 0, 64, 127
2, 37682, Control_c, 0, 64, 0
2, 37759, Note_off_c, 0, 53, 64
2, 37763, Note_off_c, 0, 57, 64
2, 37763, Note_off_c, 0, 65, 64
2, 37767, Note_off_c, 0, 41, 64
2, 37795, Note_on_c, 0, 70, 72
2, 37799, Note_on_c, 0, 62, 72
2, 37804, Note_on_c, 0, 46, 72
2, 37807, Note_on_c, 0, 53, 77
2, 37821, Control_c, 0, 64, 0
2, 37853, Control_c, 0, 64, 127
2, 37926, Note_off_c, 0, 70, 64
2, 37930, Note_off_c, 0, 62, 64
2, 37935, Note_off_c, 0, 46, 64
2, 37938, Note_off_c, 0, 53, 64
2, 38010, Note_on_c, 0, 60, 68
2, 38011, Note_on_c, 0, 69, 65
2, 38012, Note_on_c, 0, 53, 72
2, 38018, Note_on_c, 0, 41, 69
2, 38020, Control_c, 0, 64, 0
2, 38038, Control_c, 0, 64, 127
2, 38124, Note_off_c, 0, 60, 64
2, 38125, Note_off_c, 0, 69, 64
2, 38126, Note_off_c, 0, 53, 64
2, 38132, Note_off_c, 0, 41, 64
2, 38155, Note_on_c, 0, 41, 72
2, 38156, Note_on_c, 0, 67, 72
2, 38156, Note_on_c, 0, 58, 53
2, 38160, Note_on_c, 0, 53, 75
2, 38206, Note_off_c, 0, 41, 64
2, 38208, Control_c, 0, 64, 0
2, 38211, Note_off_c, 0, 53, 64
2, 38214, Note_on_c, 0, 41, 68
2, 38216, Note_on_c, 0, 65, 81
2, 38216, Note_on_c, 0, 57, 68
2, 38216, Note_on_c, 0, 53, 72
2, 38223, Note_off_c, 0, 58, 64
2, 38235, Note_off_c, 0, 67, 64
2, 38244, Control_c, 0, 64, 127
2, 38415, Note_off_c, 0, 41, 64
2, 38417, Note_off_c, 0, 53, 64
2, 38417, Note_off_c, 0, 57, 64
2, 38417, Note_off_c, 0, 65, 64
2, 38453, Note_on_c, 0, 67, 81
2, 38457, Note_on_c, 0, 62, 72
2, 38457, Note_on_c, 0, 55, 72
2, 38457, Note_on_c, 0, 46, 72
2, 38469, Control_c, 0, 64, 0
2, 38522, Control_c, 0, 64, 127
2, 38674, Note_off_c, 0, 67, 64
2, 38678, Note_off_c, 0, 46, 64
2, 38678, Note_off_c, 0, 55, 64
2, 38678, Note_off_c, 0, 62, 64
2, 38754, Note_on_c, 0, 62, 69
2, 38760, Note_on_c, 0, 48, 64
2, 38761, Note_on_c, 0, 55, 72
2, 38817, Control_c, 0, 64, 0
2, 38871, Control_c, 0, 64, 127
2, 38948, Note_on_c, 0, 60, 62
2, 38948, Note_on_c, 0, 64, 62
2, 38970, Note_off_c, 0, 62, 64
2, 39140, Note_off_c, 0, 55, 64
2, 39222, Note_on_c, 0, 65, 65
2, 39224, Note_on_c, 0, 53, 68
2, 39226, Note_on_c, 0, 57, 62
2, 39229, Note_on_c, 0, 41, 61
2, 39237, Note_off_c, 0, 64, 64
2, 39257, Note_off_c, 0, 48, 64
2, 39276, Control_c, 0, 64, 0
2, 40394, Note_off_c, 0, 60, 64
2, 40401, Note_off_c, 0, 57, 64
2, 40401, Note_off_c, 0, 41, 64
2, 40405, Note_off_c, 0, 65, 64
2, 40405, Note_off_c, 0, 53, 64
2, 41770, Control_c, 0, 64, 127
