2, 0, Program_c, 0, 0
2, 0, Control_c, 0, 7, 127
2, 132, Control_c, 0, 64, 0
2, 136, Control_c, 0, 64, 0
2, 144, Control_c, 0, 64, 127
2, 148, Control_c, 0, 64, 127
2, 502, Note_on_c, 0, 59, 66
2, 502, Note_on_c, 0, 52, 62
2, 523, Note_off_c, 0, 52, 64
2, 525, Note_off_c, 0, 59, 64
2, 654, Note_on_c, 0, 59, 63
2, 654, Note_on_c, 0, 52, 67
2, 673, Note_off_c, 0, 59, 64
2, 677, Note_off_c, 0, 52, 64
2, 737, Control_c, 0, 64, 0
2, 741, Control_c, 0, 64, 0
2, 802, Note_on_c, 0, 59, 88
2, 804, Control_c, 0, 64, 127
2, 804, Note_on_c, 0, 52, 88
2, 808, Control_c, 0, 64, 127
2, 823, Note_off_c, 0, 59, 64
2, 825, Note_off_c, 0, 52, 64
2, 944, Note_on_c, 0, 59, 65
2, 944, Note_on_c, 0, 52, 62
2, 966, Note_off_c, 0, 59, 64
2, 968, Note_off_c, 0, 52, 64
2, 1097, Note_on_c, 0, 59, 70
2, 1098, Note_on_c, 0, 52, 67
2, 1118, Note_off_c, 0, 59, 64
2, 1120, Note_off_c, 0, 52, 64
2, 1240, Note_on_c, 0, 59, 89
2, 1242, Note_on_c, 0, 52, 88
2, 1264, Note_off_c, 0, 59, 64
2, 1267, Note_off_c, 0, 52, 64
2, 1378, Note_on_c, 0, 59, 70
2, 1380, Note_on_c, 0, 52, 66
2, 1400, Note_off_c, 0, 59, 64
2, 1403, Note_off_c, 0, 52, 64
2, 1468, Control_c, 0, 64, 0
2, 1472, Control_c, 0, 64, 0
2, 1501, Control_c, 0, 64, 127
2, 1505, Control_c, 0, 64, 127
2, 1517, Note_on_c, 0, 59, 92
2, 1521, Note_on_c, 0, 52, 88
2, 1541, Note_off_c, 0, 59, 64
2, 1544, Note_off_c, 0, 52, 64
2, 1657, Note_on_c, 0, 59, 66
2, 1657, Note_on_c, 0, 52, 61
2, 1676, Note_off_c, 0, 59, 64
2, 1678, Note_off_c, 0, 52, 64
2, 1763, Control_c, 0, 64, 0
2, 1767, Control_c, 0, 64, 0
2, 1792, Note_on_c, 0, 59, 92
2, 1794, Note_on_c, 0, 52, 88
2, 1801, Control_c, 0, 64, 127
2, 1805, Control_c, 0, 64, 127
2, 1816, Note_off_c, 0, 59, 64
2, 1817, Note_off_c, 0, 52, 64
2, 1935, Note_on_c, 0, 52, 58
2, 1937, Note_on_c, 0, 59, 63
2, 1958, Note_off_c, 0, 52, 64
2, 1959, Note_off_c, 0, 59, 64
2, 2070, Note_on_c, 0, 52, 83
2, 2073, Note_on_c, 0, 59, 88
2, 2098, Note_off_c, 0, 52, 64
2, 2099, Note_off_c, 0, 59, 64
2, 2196, Note_on_c, 0, 49, 74
2, 2201, Note_on_c, 0, 52, 61
2, 2204, Note_on_c, 0, 59, 57
2, 2230, Note_off_c, 0, 52, 64
2, 2236, Note_off_c, 0, 59, 64
2, 2272, Note_on_c, 0, 47, 76
2, 2275, Control_c, 0, 64, 0
2, 2279, Control_c, 0, 64, 0
2, 2281, Note_off_c, 0, 49, 64
2, 2324, Note_on_c, 0, 59, 55
2, 2324, Note_on_c, 0, 52, 57
2, 2329, Note_on_c, 0, 45, 72
2, 2337, Control_c, 0, 64, 127
2, 2339, Note_off_c, 0, 47, 64
2, 2341, Control_c, 0, 64, 127
2, 2349, Note_off_c, 0, 52, 64
2, 2349, Note_off_c, 0, 59, 64
2, 2375, Note_off_c, 0, 45, 64
2, 2451, Note_on_c, 0, 52, 74
2, 2457, Note_on_c, 0, 59, 66
2, 2464, Note_on_c, 0, 44, 98
2, 2476, Note_off_c, 0, 52, 64
2, 2479, Note_off_c, 0, 59, 64
2, 2484, Control_c, 0, 64, 0
2, 2488, Control_c, 0, 64, 0
2, 2510, Note_off_c, 0, 44, 64
2, 2557, Note_on_c, 0, 44, 88
2, 2581, Note_on_c, 0, 42, 80
2, 2590, Note_on_c, 0, 52, 58
2, 2594, Note_on_c, 0, 59, 48
2, 2601, Note_off_c, 0, 44, 64
2, 2617, Note_on_c, 0, 40, 82
2, 2619, Note_off_c, 0, 52, 64
2, 2620, Note_off_c, 0, 59, 64
2, 2629, Note_off_c, 0, 42, 64
2, 2731, Note_on_c, 0, 59, 57
2, 2731, Note_on_c, 0, 52, 57
2, 2754, Note_off_c, 0, 59, 64
2, 2758, Note_off_c, 0, 52, 64
2, 2844, Control_c, 0, 64, 127
2, 2848, Control_c, 0, 64, 127
2, 2854, Note_on_c, 0, 59, 70
2, 2854, Note_on_c, 0, 52, 72
2, 2882, Note_off_c, 0, 52, 64
2, 2883, Note_off_c, 0, 59, 64
2, 2989, Note_on_c, 0, 59, 55
2, 2989, Note_on_c, 0, 52, 63
2, 2989, Note_on_c, 0, 49, 75
2, 2994, Control_c, 0, 64, 0
2, 2998, Control_c, 0, 64, 0
2, 3009, Note_off_c, 0, 40, 64
2, 3018, Note_off_c, 0, 59, 64
2, 3021, Note_off_c, 0, 52, 64
2, 3085, Note_on_c, 0, 47, 79
2, 3094, Note_off_c, 0, 49, 64
2, 3117, Note_on_c, 0, 52, 58
2, 3118, Note_on_c, 0, 59, 57
2, 3131, Note_on_c, 0, 45, 74
2, 3139, Note_off_c, 0, 47, 64
2, 3143, Note_off_c, 0, 59, 64
2, 3143, Note_off_c, 0, 52, 64
2, 3177, Note_off_c, 0, 45, 64
2, 3244, Note_on_c, 0, 59, 66
2, 3246, Note_on_c, 0, 52, 76
2, 3252, Note_on_c, 0, 44, 96
2, 3265, Note_off_c, 0, 59, 64
2, 3271, Note_off_c, 0, 52, 64
2, 3298, Note_off_c, 0, 44, 64
2, 3345, Note_on_c, 0, 44, 79
2, 3369, Note_on_c, 0, 42, 81
2, 3384, Note_on_c, 0, 59, 52
2, 3385, Note_off_c, 0, 44, 64
2, 3385, Note_on_c, 0, 52, 58
2, 3398, Note_on_c, 0, 40, 86
2, 3410, Note_off_c, 0, 59, 64
2, 3418, Control_c, 0, 64, 127
2, 3420, Note_off_c, 0, 52, 64
2, 3420, Note_off_c, 0, 42, 64
2, 3422, Control_c, 0, 64, 127
2, 3476, Control_c, 0, 64, 0
2, 3480, Control_c, 0, 64, 0
2, 3506, Control_c, 0, 64, 127
2, 3510, Control_c, 0, 64, 127
2, 3533, Note_on_c, 0, 59, 62
2, 3535, Note_on_c, 0, 52, 62
2, 3566, Note_off_c, 0, 59, 64
2, 3567, Note_off_c, 0, 52, 64
2, 3661, Note_on_c, 0, 52, 65
2, 3663, Note_on_c, 0, 59, 63
2, 3695, Note_off_c, 0, 40, 64
2, 3777, Note_off_c, 0, 52, 64
2, 3779, Note_off_c, 0, 59, 64
2, 3814, Note_on_c, 0, 40, 84
2, 3816, Note_on_c, 0, 56, 78
2, 3819, Note_on_c, 0, 59, 68
2, 3866, Note_off_c, 0, 59, 64
2, 3871, Note_off_c, 0, 56, 64
2, 3916, Note_on_c, 0, 59, 61
2, 3917, Note_on_c, 0, 64, 55
2, 3939, Note_off_c, 0, 59, 64
2, 3940, Note_off_c, 0, 64, 64
2, 3964, Note_on_c, 0, 59, 55
2, 3966, Note_on_c, 0, 68, 88
2, 3966, Note_on_c, 0, 52, 68
2, 3968, Note_on_c, 0, 64, 68
2, 4007, Note_off_c, 0, 52, 64
2, 4010, Note_off_c, 0, 59, 64
2, 4029, Note_off_c, 0, 68, 64
2, 4041, Note_off_c, 0, 64, 64
2, 4092, Note_on_c, 0, 68, 81
2, 4099, Note_on_c, 0, 71, 102
2, 4102, Note_on_c, 0, 59, 58
2, 4102, Note_on_c, 0, 52, 65
2, 4138, Note_off_c, 0, 59, 64
2, 4151, Note_off_c, 0, 52, 64
2, 4153, Note_off_c, 0, 68, 64
2, 4158, Note_off_c, 0, 71, 64
2, 4166, Note_off_c, 0, 40, 64
2, 4219, Control_c, 0, 64, 0
2, 4223, Control_c, 0, 64, 0
2, 4228, Note_on_c, 0, 76, 91
2, 4229, Note_on_c, 0, 71, 83
2, 4240, Control_c, 0, 64, 127
2, 4240, Note_on_c, 0, 59, 61
2, 4243, Note_on_c, 0, 52, 71
2, 4244, Control_c, 0, 64, 127
2, 4283, Note_off_c, 0, 59, 64
2, 4287, Note_off_c, 0, 76, 64
2, 4288, Note_off_c, 0, 52, 64
2, 4288, Note_off_c, 0, 71, 64
2, 4340, Note_on_c, 0, 68, 76
2, 4340, Note_on_c, 0, 64, 70
2, 4363, Note_off_c, 0, 64, 64
2, 4363, Note_off_c, 0, 68, 64
2, 4370, Note_on_c, 0, 59, 67
2, 4370, Note_on_c, 0, 52, 67
2, 4384, Note_on_c, 0, 68, 84
2, 4385, Note_on_c, 0, 71, 104
2, 4423, Note_off_c, 0, 52, 64
2, 4424, Note_off_c, 0, 59, 64
2, 4447, Note_off_c, 0, 68, 64
2, 4448, Note_off_c, 0, 71, 64
2, 4495, Control_c, 0, 64, 0
2, 4499, Control_c, 0, 64, 0
2, 4516, Note_on_c, 0, 76, 96
2, 4516, Note_on_c, 0, 71, 76
2, 4520, Note_on_c, 0, 64, 67
2, 4520, Note_on_c, 0, 59, 65
2, 4520, Note_on_c, 0, 56, 59
2, 4520, Note_on_c, 0, 52, 59
2, 4527, Control_c, 0, 64, 127
2, 4531, Control_c, 0, 64, 127
2, 4564, Note_off_c, 0, 64, 64
2, 4572, Note_off_c, 0, 71, 64
2, 4574, Note_off_c, 0, 59, 64
2, 4577, Note_off_c, 0, 76, 64
2, 4582, Note_off_c, 0, 52, 64
2, 4582, Note_off_c, 0, 56, 64
2, 4636, Note_on_c, 0, 78, 88
2, 4636, Note_on_c, 0, 75, 65
2, 4644, Note_on_c, 0, 63, 55
2, 4644, Note_on_c, 0, 59, 46
2, 4644, Note_on_c, 0, 57, 47
2, 4644, Note_on_c, 0, 52, 42
2, 4672, Note_on_c, 0, 80, 72
2, 4682, Note_off_c, 0, 78, 64
2, 4696, Note_off_c, 0, 52, 64
2, 4696, Note_off_c, 0, 57, 64
2, 4696, Note_off_c, 0, 59, 64
2, 4703, Note_off_c, 0, 63, 64
2, 4712, Note_on_c, 0, 78, 74
2, 4727, Note_off_c, 0, 80, 64
2, 4792, Note_on_c, 0, 59, 40
2, 4792, Note_on_c, 0, 57, 41
2, 4793, Note_on_c, 0, 63, 45
2, 4793, Note_on_c, 0, 52, 37
2, 4796, Note_off_c, 0, 78, 64
2, 4797, Note_on_c, 0, 74, 75
2, 4800, Note_on_c, 0, 77, 78
2, 4811, Note_off_c, 0, 75, 64
2, 4833, Note_off_c, 0, 52, 64
2, 4833, Note_off_c, 0, 57, 64
2, 4840, Note_off_c, 0, 59, 64
2, 4842, Note_off_c, 0, 63, 64
2, 4863, Note_on_c, 0, 78, 82
2, 4864, Note_on_c, 0, 75, 75
2, 4866, Note_off_c, 0, 77, 64
2, 4867, Note_off_c, 0, 74, 64
2, 4932, Note_on_c, 0, 76, 80
2, 4932, Note_on_c, 0, 63, 55
2, 4936, Note_on_c, 0, 59, 46
2, 4936, Note_on_c, 0, 57, 46
2, 4936, Note_on_c, 0, 52, 33
2, 4937, Note_on_c, 0, 80, 86
2, 4942, Note_off_c, 0, 78, 64
2, 4946, Note_off_c, 0, 75, 64
2, 4971, Note_off_c, 0, 57, 64
2, 4972, Note_off_c, 0, 52, 64
2, 4977, Note_off_c, 0, 59, 64
2, 4983, Note_off_c, 0, 63, 64
2, 5004, Note_on_c, 0, 78, 77
2, 5010, Note_off_c, 0, 80, 64
2, 5010, Note_on_c, 0, 81, 93
2, 5012, Note_off_c, 0, 76, 64
2, 5060, Note_off_c, 0, 81, 64
2, 5060, Control_c, 0, 64, 0
2, 5064, Control_c, 0, 64, 0
2, 5069, Note_on_c, 0, 81, 92
2, 5070, Note_off_c, 0, 78, 64
2, 5074, Note_on_c, 0, 85, 112
2, 5075, Note_on_c, 0, 56, 54
2, 5076, Note_on_c, 0, 64, 62
2, 5076, Note_on_c, 0, 59, 54
2, 5076, Note_on_c, 0, 52, 52
2, 5100, Control_c, 0, 64, 127
2, 5104, Control_c, 0, 64, 127
2, 5112, Note_off_c, 0, 64, 64
2, 5117, Note_off_c, 0, 59, 64
2, 5124, Note_off_c, 0, 52, 64
2, 5127, Note_off_c, 0, 56, 64
2, 5184, Note_on_c, 0, 83, 95
2, 5184, Note_on_c, 0, 80, 80
2, 5187, Note_off_c, 0, 81, 64
2, 5192, Note_off_c, 0, 85, 64
2, 5192, Control_c, 0, 64, 0
2, 5196, Control_c, 0, 64, 0
2, 5204, Note_off_c, 0, 80, 64
2, 5212, Note_on_c, 0, 80, 103
2, 5212, Note_on_c, 0, 76, 76
2, 5212, Note_on_c, 0, 64, 49
2, 5219, Note_on_c, 0, 56, 41
2, 5220, Note_on_c, 0, 59, 70
2, 5222, Note_on_c, 0, 52, 52
2, 5233, Note_off_c, 0, 83, 64
2, 5238, Control_c, 0, 64, 127
2, 5242, Control_c, 0, 64, 127
2, 5247, Note_off_c, 0, 64, 64
2, 5248, Note_off_c, 0, 59, 64
2, 5257, Note_off_c, 0, 56, 64
2, 5258, Note_off_c, 0, 52, 64
2, 5344, Note_on_c, 0, 59, 62
2, 5347, Note_on_c, 0, 64, 66
2, 5347, Note_on_c, 0, 56, 62
2, 5350, Note_on_c, 0, 52, 66
2, 5384, Note_off_c, 0, 59, 64
2, 5392, Note_off_c, 0, 52, 64
2, 5395, Note_off_c, 0, 56, 64
2, 5400, Note_off_c, 0, 64, 64
2, 5459, Control_c, 0, 64, 0
2, 5463, Control_c, 0, 64, 0
2, 5466, Note_off_c, 0, 76, 64
2, 5471, Note_off_c, 0, 80, 64
2, 5483, Note_on_c, 0, 78, 79
2, 5487, Note_on_c, 0, 75, 80
2, 5487, Note_on_c, 0, 52, 27
2, 5490, Control_c, 0, 64, 127
2, 5494, Note_on_c, 0, 63, 44
2, 5494, Control_c, 0, 64, 127
2, 5501, Note_on_c, 0, 59, 35
2, 5501, Note_on_c, 0, 57, 36
2, 5519, Note_on_c, 0, 80, 71
2, 5529, Note_off_c, 0, 59, 64
2, 5529, Note_off_c, 0, 78, 64
2, 5531, Note_off_c, 0, 57, 64
2, 5535, Note_off_c, 0, 52, 64
2, 5536, Note_off_c, 0, 63, 64
2, 5556, Note_on_c, 0, 78, 70
2, 5568, Note_off_c, 0, 80, 64
2, 5620, Note_on_c, 0, 77, 80
2, 5620, Note_on_c, 0, 74, 80
2, 5620, Note_on_c, 0, 52, 33
2, 5624, Note_off_c, 0, 75, 64
2, 5626, Note_on_c, 0, 63, 44
2, 5629, Note_on_c, 0, 59, 39
2, 5629, Note_on_c, 0, 57, 39
2, 5636, Note_off_c, 0, 78, 64
2, 5657, Note_off_c, 0, 59, 64
2, 5658, Note_off_c, 0, 57, 64
2, 5660, Note_off_c, 0, 63, 64
2, 5664, Note_off_c, 0, 52, 64
2, 5684, Note_on_c, 0, 78, 87
2, 5687, Note_on_c, 0, 75, 80
2, 5689, Note_off_c, 0, 74, 64
2, 5691, Note_off_c, 0, 77, 64
2, 5752, Note_on_c, 0, 80, 87
2, 5752, Note_on_c, 0, 76, 83
2, 5758, Note_off_c, 0, 75, 64
2, 5758, Note_on_c, 0, 63, 54
2, 5764, Note_on_c, 0, 57, 50
2, 5765, Note_off_c, 0, 78, 64
2, 5770, Note_on_c, 0, 59, 46
2, 5770, Note_on_c, 0, 52, 46
2, 5799, Note_off_c, 0, 52, 64
2, 5799, Note_off_c, 0, 59, 64
2, 5805, Note_off_c, 0, 57, 64
2, 5815, Note_off_c, 0, 63, 64
2, 5827, Note_off_c, 0, 76, 64
2, 5832, Note_on_c, 0, 81, 83
2, 5832, Note_on_c, 0, 78, 75
2, 5835, Note_off_c, 0, 80, 64
2, 5888, Note_off_c, 0, 81, 64
2, 5891, Control_c, 0, 64, 0
2, 5894, Note_off_c, 0, 78, 64
2, 5895, Control_c, 0, 64, 0
2, 5901, Note_on_c, 0, 81, 85
2, 5904, Note_on_c, 0, 85, 98
2, 5908, Note_on_c, 0, 64, 63
2, 5908, Note_on_c, 0, 56, 58
2, 5910, Note_on_c, 0, 59, 54
2, 5910, Note_on_c, 0, 52, 63
2, 5919, Control_c, 0, 64, 127
2, 5923, Control_c, 0, 64, 127
2, 5945, Note_off_c, 0, 59, 64
2, 5945, Note_off_c, 0, 56, 64
2, 5945, Note_off_c, 0, 64, 64
2, 5949, Note_off_c, 0, 52, 64
2, 6000, Control_c, 0, 64, 0
2, 6004, Control_c, 0, 64, 0
2, 6008, Note_on_c, 0, 80, 85
2, 6011, Note_on_c, 0, 83, 78
2, 6013, Note_off_c, 0, 81, 64
2, 6016, Note_off_c, 0, 85, 64
2, 6024, Control_c, 0, 64, 127
2, 6028, Control_c, 0, 64, 127
2, 6042, Note_off_c, 0, 80, 64
2, 6047, Note_on_c, 0, 59, 59
2, 6052, Note_on_c, 0, 80, 92
2, 6052, Note_on_c, 0, 76, 74
2, 6052, Note_on_c, 0, 64, 61
2, 6052, Note_on_c, 0, 56, 57
2, 6059, Note_on_c, 0, 52, 46
2, 6078, Note_off_c, 0, 83, 64
2, 6080, Note_off_c, 0, 56, 64
2, 6082, Note_off_c, 0, 52, 64
2, 6083, Note_off_c, 0, 59, 64
2, 6086, Note_off_c, 0, 64, 64
2, 6174, Note_on_c, 0, 64, 59
2, 6174, Note_on_c, 0, 59, 50
2, 6178, Note_on_c, 0, 56, 66
2, 6182, Note_on_c, 0, 52, 44
2, 6200, Note_off_c, 0, 59, 64
2, 6201, Note_off_c, 0, 52, 64
2, 6208, Note_off_c, 0, 64, 64
2, 6210, Note_off_c, 0, 56, 64
2, 6301, Control_c, 0, 64, 0
2, 6305, Control_c, 0, 64, 0
2, 6308, Note_on_c, 0, 75, 81
2, 6311, Note_on_c, 0, 78, 80
2, 6315, Note_off_c, 0, 76, 64
2, 6315, Note_off_c, 0, 80, 64
2, 6324, Note_on_c, 0, 42, 88
2, 6325, Control_c, 0, 64, 127
2, 6329, Control_c, 0, 64, 127
2, 6416, Note_on_c, 0, 73, 72
2, 6419, Note_on_c, 0, 76, 88
2, 6422, Note_off_c, 0, 75, 64
2, 6425, Note_off_c, 0, 78, 64
2, 6429, Control_c, 0, 64, 0
2, 6433, Control_c, 0, 64, 0
2, 6445, Note_off_c, 0, 73, 64
2, 6452, Note_on_c, 0, 73, 88
2, 6456, Note_on_c, 0, 64, 71
2, 6456, Note_on_c, 0, 61, 71
2, 6460, Note_on_c, 0, 54, 74
2, 6463, Note_on_c, 0, 66, 96
2, 6468, Note_off_c, 0, 76, 64
2, 6472, Control_c, 0, 64, 127
2, 6476, Control_c, 0, 64, 127
2, 6499, Note_off_c, 0, 61, 64
2, 6501, Note_off_c, 0, 64, 64
2, 6509, Note_off_c, 0, 54, 64
2, 6585, Note_on_c, 0, 61, 67
2, 6589, Note_on_c, 0, 64, 75
2, 6589, Note_on_c, 0, 54, 80
2, 6621, Note_off_c, 0, 64, 64
2, 6625, Note_off_c, 0, 61, 64
2, 6627, Note_off_c, 0, 54, 64
2, 6723, Note_on_c, 0, 75, 83
2, 6723, Note_on_c, 0, 47, 68
2, 6724, Note_on_c, 0, 71, 80
2, 6724, Control_c, 0, 64, 0
2, 6728, Note_on_c, 0, 59, 72
2, 6728, Control_c, 0, 64, 0
2, 6729, Note_off_c, 0, 73, 64
2, 6731, Note_off_c, 0, 42, 64
2, 6735, Note_on_c, 0, 54, 67
2, 6740, Note_off_c, 0, 66, 64
2, 6742, Control_c, 0, 64, 127
2, 6746, Control_c, 0, 64, 127
2, 6762, Note_off_c, 0, 54, 64
2, 6762, Note_off_c, 0, 59, 64
2, 6768, Note_off_c, 0, 47, 64
2, 6829, Note_off_c, 0, 71, 64
2, 6834, Note_on_c, 0, 66, 80
2, 6837, Note_on_c, 0, 71, 80
2, 6851, Note_off_c, 0, 75, 64
2, 6857, Control_c, 0, 64, 0
2, 6861, Control_c, 0, 64, 0
2, 6869, Note_on_c, 0, 54, 84
2, 6878, Note_on_c, 0, 59, 88
2, 6878, Note_on_c, 0, 47, 78
2, 6880, Control_c, 0, 64, 127
2, 6884, Control_c, 0, 64, 127
2, 6891, Note_off_c, 0, 66, 64
2, 6910, Note_off_c, 0, 54, 64
2, 6918, Note_off_c, 0, 47, 64
2, 6969, Control_c, 0, 64, 0
2, 6973, Control_c, 0, 64, 0
2, 7009, Note_on_c, 0, 54, 84
2, 7009, Note_on_c, 0, 47, 78
2, 7016, Control_c, 0, 64, 127
2, 7020, Control_c, 0, 64, 127
2, 7055, Note_off_c, 0, 54, 64
2, 7061, Note_off_c, 0, 47, 64
2, 7117, Note_off_c, 0, 59, 64
2, 7137, Note_on_c, 0, 44, 94
2, 7144, Note_on_c, 0, 54, 52
2, 7145, Note_on_c, 0, 47, 48
2, 7152, Control_c, 0, 64, 0
2, 7155, Note_on_c, 0, 59, 83
2, 7156, Control_c, 0, 64, 0
2, 7162, Note_off_c, 0, 71, 64
2, 7166, Control_c, 0, 64, 127
2, 7170, Control_c, 0, 64, 127
2, 7190, Note_off_c, 0, 59, 64
2, 7192, Note_off_c, 0, 54, 64
2, 7198, Note_on_c, 0, 42, 83
2, 7201, Note_off_c, 0, 47, 64
2, 7224, Note_off_c, 0, 44, 64
2, 7228, Control_c, 0, 64, 0
2, 7232, Control_c, 0, 64, 0
2, 7260, Note_on_c, 0, 40, 80
2, 7268, Note_on_c, 0, 54, 55
2, 7273, Note_off_c, 0, 42, 64
2, 7273, Note_on_c, 0, 47, 45
2, 7305, Note_off_c, 0, 40, 64
2, 7306, Note_off_c, 0, 54, 64
2, 7309, Note_off_c, 0, 47, 64
2, 7401, Note_on_c, 0, 39, 96
2, 7404, Note_on_c, 0, 54, 85
2, 7404, Note_on_c, 0, 47, 80
2, 7432, Note_off_c, 0, 39, 64
2, 7433, Note_off_c, 0, 54, 64
2, 7440, Note_off_c, 0, 47, 64
2, 7502, Note_on_c, 0, 39, 74
2, 7517, Note_on_c, 0, 37, 75
2, 7538, Note_on_c, 0, 47, 46
2, 7539, Note_off_c, 0, 39, 64
2, 7539, Note_on_c, 0, 54, 52
2, 7544, Control_c, 0, 64, 127
2, 7548, Control_c, 0, 64, 127
2, 7558, Note_on_c, 0, 35, 105
2, 7569, Note_off_c, 0, 37, 64
2, 7576, Note_off_c, 0, 54, 64
2, 7581, Note_off_c, 0, 47, 64
2, 7683, Note_on_c, 0, 54, 55
2, 7683, Note_on_c, 0, 47, 52
2, 7720, Note_off_c, 0, 47, 64
2, 7722, Note_off_c, 0, 54, 64
2, 7771, Control_c, 0, 64, 0
2, 7775, Control_c, 0, 64, 0
2, 7817, Note_on_c, 0, 54, 96
2, 7817, Note_on_c, 0, 47, 88
2, 7821, Note_off_c, 0, 35, 64
2, 7827, Control_c, 0, 64, 127
2, 7831, Control_c, 0, 64, 127
2, 7858, Note_off_c, 0, 54, 64
2, 7863, Note_off_c, 0, 47, 64
2, 7934, Control_c, 0, 64, 0
2, 7938, Note_on_c, 0, 44, 88
2, 7938, Control_c, 0, 64, 0
2, 7947, Note_on_c, 0, 47, 55
2, 7948, Note_on_c, 0, 54, 57
2, 7950, Control_c, 0, 64, 127
2, 7954, Control_c, 0, 64, 127
2, 7988, Note_off_c, 0, 54, 64
2, 7992, Note_off_c, 0, 47, 64
2, 8003, Note_on_c, 0, 42, 74
2, 8030, Note_off_c, 0, 44, 64
2, 8051, Control_c, 0, 64, 0
2, 8055, Control_c, 0, 64, 0
2, 8069, Note_on_c, 0, 40, 66
2, 8078, Note_off_c, 0, 42, 64
2, 8082, Note_on_c, 0, 54, 57
2, 8083, Note_on_c, 0, 47, 52
2, 8116, Note_off_c, 0, 47, 64
2, 8116, Note_off_c, 0, 54, 64
2, 8122, Note_off_c, 0, 40, 64
2, 8210, Note_on_c, 0, 39, 105
2, 8218, Note_on_c, 0, 47, 88
2, 8220, Note_on_c, 0, 54, 98
2, 8245, Note_off_c, 0, 39, 64
2, 8250, Note_off_c, 0, 54, 64
2, 8250, Note_off_c, 0, 47, 64
2, 8310, Note_on_c, 0, 39, 79
2, 8334, Note_on_c, 0, 37, 83
2, 8347, Note_off_c, 0, 39, 64
2, 8348, Note_on_c, 0, 47, 55
2, 8354, Note_on_c, 0, 54, 61
2, 8357, Note_on_c, 0, 35, 93
2, 8369, Control_c, 0, 64, 127
2, 8373, Control_c, 0, 64, 127
2, 8378, Note_off_c, 0, 37, 64
2, 8387, Note_off_c, 0, 54, 64
2, 8393, Note_off_c, 0, 47, 64
2, 8420, Control_c, 0, 64, 0
2, 8424, Control_c, 0, 64, 0
2, 8461, Control_c, 0, 64, 127
2, 8465, Control_c, 0, 64, 127
2, 8484, Note_on_c, 0, 47, 52
2, 8485, Note_on_c, 0, 54, 57
2, 8527, Note_off_c, 0, 54, 64
2, 8528, Note_off_c, 0, 47, 64
2, 8595, Note_off_c, 0, 35, 64
2, 8608, Note_on_c, 0, 54, 89
2, 8612, Note_on_c, 0, 47, 88
2, 8701, Note_off_c, 0, 54, 64
2, 8717, Note_off_c, 0, 47, 64
2, 8732, Note_on_c, 0, 56, 94
2, 8732, Note_on_c, 0, 40, 79
2, 8734, Note_on_c, 0, 59, 75
2, 8780, Note_off_c, 0, 56, 64
2, 8782, Note_off_c, 0, 59, 64
2, 8832, Note_on_c, 0, 64, 74
2, 8836, Note_on_c, 0, 59, 68
2, 8860, Note_off_c, 0, 64, 64
2, 8864, Note_off_c, 0, 59, 64
2, 8864, Note_on_c, 0, 68, 100
2, 8864, Note_on_c, 0, 64, 80
2, 8872, Note_on_c, 0, 59, 70
2, 8875, Note_on_c, 0, 52, 71
2, 8918, Note_off_c, 0, 52, 64
2, 8926, Note_off_c, 0, 59, 64
2, 8927, Note_off_c, 0, 68, 64
2, 8930, Note_off_c, 0, 64, 64
2, 8980, Control_c, 0, 64, 0
2, 8984, Control_c, 0, 64, 0
2, 8996, Note_on_c, 0, 68, 89
2, 8999, Note_on_c, 0, 71, 94
2, 9004, Note_off_c, 0, 40, 64
2, 9008, Note_on_c, 0, 59, 66
2, 9008, Note_on_c, 0, 52, 72
2, 9030, Control_c, 0, 64, 127
2, 9034, Control_c, 0, 64, 127
2, 9052, Note_off_c, 0, 59, 64
2, 9054, Note_off_c, 0, 52, 64
2, 9061, Note_off_c, 0, 71, 64
2, 9063, Note_off_c, 0, 68, 64
2, 9115, Control_c, 0, 64, 0
2, 9119, Control_c, 0, 64, 0
2, 9135, Note_on_c, 0, 71, 86
2, 9137, Note_on_c, 0, 76, 97
2, 9141, Note_on_c, 0, 59, 70
2, 9145, Note_on_c, 0, 52, 72
2, 9158, Control_c, 0, 64, 127
2, 9162, Control_c, 0, 64, 127
2, 9187, Note_off_c, 0, 59, 64
2, 9194, Note_off_c, 0, 52, 64
2, 9194, Note_off_c, 0, 71, 64
2, 9196, Note_off_c, 0, 76, 64
2, 9236, Note_on_c, 0, 68, 79
2, 9236, Note_on_c, 0, 64, 72
2, 9240, Control_c, 0, 64, 0
2, 9244, Control_c, 0, 64, 0
2, 9264, Note_off_c, 0, 64, 64
2, 9264, Note_off_c, 0, 68, 64
2, 9276, Note_on_c, 0, 71, 87
2, 9276, Note_on_c, 0, 68, 78
2, 9276, Note_on_c, 0, 52, 68
2, 9278, Note_on_c, 0, 59, 71
2, 9281, Control_c, 0, 64, 127
2, 9285, Control_c, 0, 64, 127
2, 9320, Note_off_c, 0, 59, 64
2, 9324, Note_off_c, 0, 52, 64
2, 9336, Note_off_c, 0, 71, 64
2, 9339, Note_off_c, 0, 68, 64
2, 9378, Control_c, 0, 64, 0
2, 9382, Control_c, 0, 64, 0
2, 9412, Note_on_c, 0, 76, 93
2, 9412, Note_on_c, 0, 71, 83
2, 9412, Note_on_c, 0, 56, 72
2, 9414, Note_on_c, 0, 59, 65
2, 9414, Note_on_c, 0, 52, 63
2, 9416, Note_on_c, 0, 64, 71
2, 9423, Control_c, 0, 64, 127
2, 9427, Control_c, 0, 64, 127
2, 9452, Note_off_c, 0, 64, 64
2, 9456, Note_off_c, 0, 56, 64
2, 9473, Note_off_c, 0, 52, 64
2, 9474, Note_off_c, 0, 59, 64
2, 9486, Note_off_c, 0, 71, 64
2, 9486, Note_off_c, 0, 76, 64
2, 9526, Control_c, 0, 64, 0
2, 9530, Control_c, 0, 64, 0
2, 9538, Control_c, 0, 64, 127
2, 9542, Control_c, 0, 64, 127
2, 9548, Note_on_c, 0, 75, 91
2, 9550, Note_on_c, 0, 78, 97
2, 9550, Note_on_c, 0, 52, 71
2, 9558, Note_on_c, 0, 59, 42
2, 9561, Note_on_c, 0, 57, 41
2, 9565, Note_on_c, 0, 63, 41
2, 9581, Note_on_c, 0, 80, 72
2, 9591, Note_off_c, 0, 52, 64
2, 9592, Note_off_c, 0, 78, 64
2, 9595, Note_off_c, 0, 63, 64
2, 9597, Note_off_c, 0, 57, 64
2, 9597, Note_off_c, 0, 59, 64
2, 9617, Note_on_c, 0, 78, 78
2, 9633, Note_off_c, 0, 80, 64
2, 9679, Note_on_c, 0, 52, 32
2, 9680, Note_on_c, 0, 77, 78
2, 9682, Note_on_c, 0, 74, 81
2, 9688, Note_off_c, 0, 75, 64
2, 9688, Note_on_c, 0, 57, 41
2, 9693, Note_on_c, 0, 63, 36
2, 9696, Note_on_c, 0, 59, 37
2, 9700, Note_off_c, 0, 78, 64
2, 9717, Note_off_c, 0, 59, 64
2, 9724, Note_off_c, 0, 52, 64
2, 9725, Note_off_c, 0, 57, 64
2, 9726, Note_off_c, 0, 63, 64
2, 9753, Note_on_c, 0, 75, 79
2, 9756, Note_on_c, 0, 78, 85
2, 9761, Note_off_c, 0, 74, 64
2, 9769, Note_off_c, 0, 77, 64
2, 9820, Note_on_c, 0, 76, 44
2, 9824, Note_on_c, 0, 80, 83
2, 9827, Note_off_c, 0, 75, 64
2, 9829, Note_on_c, 0, 63, 58
2, 9832, Note_on_c, 0, 57, 50
2, 9838, Note_on_c, 0, 59, 49
2, 9840, Note_on_c, 0, 52, 40
2, 9842, Note_off_c, 0, 78, 64
2, 9862, Note_off_c, 0, 59, 64
2, 9864, Note_off_c, 0, 52, 64
2, 9868, Note_off_c, 0, 57, 64
2, 9869, Note_off_c, 0, 63, 64
2, 9896, Note_on_c, 0, 81, 87
2, 9900, Note_on_c, 0, 78, 75
2, 9902, Note_off_c, 0, 80, 64
2, 9905, Note_off_c, 0, 76, 64
2, 9941, Control_c, 0, 64, 0
2, 9945, Control_c, 0, 64, 0
2, 9964, Note_off_c, 0, 81, 64
2, 9964, Note_on_c, 0, 85, 97
2, 9967, Note_on_c, 0, 56, 53
2, 9969, Note_on_c, 0, 81, 80
2, 9969, Note_on_c, 0, 64, 61
2, 9969, Note_on_c, 0, 59, 57
2, 9969, Note_on_c, 0, 52, 53
2, 9979, Note_off_c, 0, 78, 64
2, 9990, Control_c, 0, 64, 127
2, 9994, Control_c, 0, 64, 127
2, 10003, Note_off_c, 0, 64, 64
2, 10007, Note_off_c, 0, 52, 64
2, 10007, Note_off_c, 0, 59, 64
2, 10007, Note_off_c, 0, 56, 64
2, 10070, Note_off_c, 0, 85, 64
2, 10071, Note_on_c, 0, 83, 81
2, 10072, Note_on_c, 0, 80, 78
2, 10075, Note_off_c, 0, 81, 64
2, 10082, Control_c, 0, 64, 0
2, 10086, Control_c, 0, 64, 0
2, 10096, Note_off_c, 0, 80, 64
2, 10100, Note_on_c, 0, 76, 78
2, 10107, Note_on_c, 0, 80, 96
2, 10111, Note_on_c, 0, 56, 70
2, 10117, Note_on_c, 0, 59, 62
2, 10121, Note_on_c, 0, 64, 62
2, 10121, Note_on_c, 0, 52, 67
2, 10129, Note_off_c, 0, 83, 64
2, 10130, Control_c, 0, 64, 127
2, 10134, Control_c, 0, 64, 127
2, 10144, Note_off_c, 0, 52, 64
2, 10148, Note_off_c, 0, 59, 64
2, 10153, Note_off_c, 0, 64, 64
2, 10153, Note_off_c, 0, 56, 64
2, 10237, Note_on_c, 0, 64, 68
2, 10241, Note_on_c, 0, 52, 54
2, 10245, Note_on_c, 0, 56, 45
2, 10248, Note_on_c, 0, 59, 52
2, 10283, Note_off_c, 0, 59, 64
2, 10284, Note_off_c, 0, 56, 64
2, 10288, Note_off_c, 0, 64, 64
2, 10295, Note_off_c, 0, 52, 64
2, 10357, Control_c, 0, 64, 0
2, 10361, Control_c, 0, 64, 0
2, 10372, Note_on_c, 0, 78, 80
2, 10375, Note_on_c, 0, 75, 80
2, 10384, Note_on_c, 0, 63, 42
2, 10384, Note_on_c, 0, 57, 37
2, 10389, Note_off_c, 0, 80, 64
2, 10389, Note_on_c, 0, 59, 37
2, 10392, Control_c, 0, 64, 127
2, 10392, Note_on_c, 0, 52, 15
2, 10394, Note_off_c, 0, 76, 64
2, 10396, Control_c, 0, 64, 127
2, 10412, Note_on_c, 0, 80, 75
2, 10419, Note_off_c, 0, 52, 64
2, 10419, Note_off_c, 0, 78, 64
2, 10425, Note_off_c, 0, 59, 64
2, 10429, Note_off_c, 0, 57, 64
2, 10429, Note_off_c, 0, 63, 64
2, 10449, Note_on_c, 0, 78, 70
2, 10458, Note_off_c, 0, 80, 64
2, 10510, Note_on_c, 0, 77, 84
2, 10510, Note_on_c, 0, 74, 81
2, 10513, Note_on_c, 0, 63, 49
2, 10520, Note_on_c, 0, 59, 44
2, 10520, Note_on_c, 0, 57, 41
2, 10520, Note_on_c, 0, 52, 44
2, 10522, Note_off_c, 0, 78, 64
2, 10524, Note_off_c, 0, 75, 64
2, 10542, Note_off_c, 0, 52, 64
2, 10549, Note_off_c, 0, 59, 64
2, 10551, Note_off_c, 0, 63, 64
2, 10552, Note_off_c, 0, 57, 64
2, 10581, Note_on_c, 0, 75, 89
2, 10583, Note_on_c, 0, 78, 91
2, 10588, Note_off_c, 0, 74, 64
2, 10588, Note_off_c, 0, 77, 64
2, 10644, Note_on_c, 0, 76, 81
2, 10644, Note_on_c, 0, 63, 54
2, 10648, Note_on_c, 0, 80, 91
2, 10648, Note_on_c, 0, 57, 48
2, 10654, Note_on_c, 0, 59, 42
2, 10656, Note_on_c, 0, 52, 58
2, 10658, Note_off_c, 0, 78, 64
2, 10663, Note_off_c, 0, 75, 64
2, 10688, Note_off_c, 0, 52, 64
2, 10692, Note_off_c, 0, 59, 64
2, 10692, Note_off_c, 0, 57, 64
2, 10697, Note_off_c, 0, 63, 64
2, 10714, Note_on_c, 0, 81, 75
2, 10719, Note_on_c, 0, 78, 74
2, 10726, Note_off_c, 0, 76, 64
2, 10730, Note_off_c, 0, 80, 64
2, 10768, Control_c, 0, 64, 0
2, 10772, Control_c, 0, 64, 0
2, 10774, Note_off_c, 0, 81, 64
2, 10784, Note_on_c, 0, 59, 54
2, 10785, Note_on_c, 0, 64, 63
2, 10785, Note_on_c, 0, 56, 52
2, 10785, Note_on_c, 0, 52, 58
2, 10792, Note_on_c, 0, 85, 100
2, 10792, Note_on_c, 0, 81, 85
2, 10803, Control_c, 0, 64, 127
2, 10807, Control_c, 0, 64, 127
2, 10815, Note_off_c, 0, 78, 64
2, 10823, Note_off_c, 0, 56, 64
2, 10823, Note_off_c, 0, 59, 64
2, 10824, Note_off_c, 0, 52, 64
2, 10828, Note_off_c, 0, 64, 64
2, 10888, Note_on_c, 0, 80, 48
2, 10894, Note_on_c, 0, 83, 72
2, 10897, Note_off_c, 0, 81, 64
2, 10897, Note_off_c, 0, 85, 64
2, 10900, Control_c, 0, 64, 0
2, 10904, Control_c, 0, 64, 0
2, 10913, Control_c, 0, 64, 127
2, 10914, Note_off_c, 0, 80, 64
2, 10917, Control_c, 0, 64, 127
2, 10924, Note_on_c, 0, 80, 94
2, 10924, Note_on_c, 0, 76, 67
2, 10932, Note_on_c, 0, 59, 46
2, 10932, Note_on_c, 0, 56, 66
2, 10936, Note_on_c, 0, 64, 71
2, 10937, Note_on_c, 0, 52, 66
2, 10948, Note_off_c, 0, 83, 64
2, 10967, Note_off_c, 0, 59, 64
2, 10971, Note_off_c, 0, 56, 64
2, 10972, Note_off_c, 0, 64, 64
2, 10973, Note_off_c, 0, 52, 64
2, 11060, Note_on_c, 0, 56, 65
2, 11063, Note_on_c, 0, 59, 58
2, 11064, Note_on_c, 0, 64, 79
2, 11064, Note_on_c, 0, 52, 65
2, 11086, Note_off_c, 0, 59, 64
2, 11092, Note_off_c, 0, 64, 64
2, 11099, Note_off_c, 0, 52, 64
2, 11099, Note_off_c, 0, 56, 64
2, 11180, Control_c, 0, 64, 0
2, 11184, Control_c, 0, 64, 0
2, 11192, Note_on_c, 0, 75, 72
2, 11194, Note_on_c, 0, 78, 83
2, 11194, Note_on_c, 0, 42, 96
2, 11208, Note_off_c, 0, 76, 64
2, 11208, Note_off_c, 0, 80, 64
2, 11211, Control_c, 0, 64, 127
2, 11215, Control_c, 0, 64, 127
2, 11296, Note_on_c, 0, 76, 83
2, 11296, Note_on_c, 0, 73, 92
2, 11308, Control_c, 0, 64, 0
2, 11309, Note_off_c, 0, 75, 64
2, 11311, Note_off_c, 0, 78, 64
2, 11312, Control_c, 0, 64, 0
2, 11329, Note_off_c, 0, 73, 64
2, 11333, Note_on_c, 0, 61, 80
2, 11333, Note_on_c, 0, 54, 80
2, 11336, Note_on_c, 0, 73, 84
2, 11341, Note_on_c, 0, 66, 89
2, 11341, Note_on_c, 0, 64, 66
2, 11343, Note_off_c, 0, 76, 64
2, 11351, Control_c, 0, 64, 127
2, 11355, Control_c, 0, 64, 127
2, 11383, Note_off_c, 0, 54, 64
2, 11388, Note_off_c, 0, 64, 64
2, 11390, Note_off_c, 0, 61, 64
2, 11462, Note_off_c, 0, 42, 64
2, 11464, Note_on_c, 0, 64, 85
2, 11464, Note_on_c, 0, 61, 78
2, 11469, Note_on_c, 0, 54, 80
2, 11497, Note_off_c, 0, 64, 64
2, 11500, Note_off_c, 0, 54, 64
2, 11503, Note_off_c, 0, 61, 64
2, 11588, Note_on_c, 0, 71, 72
2, 11595, Control_c, 0, 64, 0
2, 11595, Note_on_c, 0, 75, 94
2, 11599, Control_c, 0, 64, 0
2, 11606, Note_on_c, 0, 59, 67
2, 11606, Note_on_c, 0, 54, 75
2, 11606, Note_on_c, 0, 47, 74
2, 11610, Note_off_c, 0, 73, 64
2, 11615, Note_off_c, 0, 66, 64
2, 11616, Control_c, 0, 64, 127
2, 11620, Control_c, 0, 64, 127
2, 11636, Note_off_c, 0, 59, 64
2, 11637, Note_off_c, 0, 54, 64
2, 11645, Note_off_c, 0, 47, 64
2, 11697, Note_off_c, 0, 71, 64
2, 11708, Note_on_c, 0, 71, 57
2, 11712, Note_on_c, 0, 66, 75
2, 11740, Note_on_c, 0, 54, 84
2, 11740, Note_on_c, 0, 47, 83
2, 11748, Note_off_c, 0, 75, 64
2, 11755, Note_on_c, 0, 59, 101
2, 11769, Note_off_c, 0, 66, 64
2, 11778, Note_off_c, 0, 54, 64
2, 11782, Note_off_c, 0, 47, 64
2, 11845, Control_c, 0, 64, 0
2, 11849, Control_c, 0, 64, 0
2, 11872, Note_on_c, 0, 54, 88
2, 11872, Note_on_c, 0, 47, 78
2, 11897, Control_c, 0, 64, 127
2, 11901, Control_c, 0, 64, 127
2, 11926, Note_off_c, 0, 54, 64
2, 11932, Note_off_c, 0, 47, 64
2, 11952, Note_off_c, 0, 71, 64
2, 12002, Control_c, 0, 64, 0
2, 12006, Control_c, 0, 64, 0
2, 12011, Note_on_c, 0, 44, 80
2, 12016, Note_on_c, 0, 54, 52
2, 12017, Note_on_c, 0, 47, 49
2, 12023, Note_on_c, 0, 59, 81
2, 12032, Note_off_c, 0, 59, 64
2, 12034, Control_c, 0, 64, 127
2, 12038, Control_c, 0, 64, 127
2, 12061, Note_off_c, 0, 59, 64
2, 12067, Note_off_c, 0, 54, 64
2, 12075, Note_off_c, 0, 47, 64
2, 12075, Note_on_c, 0, 42, 65
2, 12090, Note_off_c, 0, 44, 64
2, 12134, Control_c, 0, 64, 0
2, 12136, Note_on_c, 0, 40, 84
2, 12138, Control_c, 0, 64, 0
2, 12148, Note_off_c, 0, 42, 64
2, 12151, Note_on_c, 0, 54, 52
2, 12156, Note_on_c, 0, 47, 46
2, 12179, Note_off_c, 0, 40, 64
2, 12187, Note_off_c, 0, 54, 64
2, 12189, Note_off_c, 0, 47, 64
2, 12191, Control_c, 0, 64, 127
2, 12195, Control_c, 0, 64, 127
2, 12216, Control_c, 0, 64, 0
2, 12220, Control_c, 0, 64, 0
2, 12281, Note_on_c, 0, 47, 88
2, 12286, Note_on_c, 0, 54, 88
2, 12287, Note_on_c, 0, 39, 98
2, 12308, Note_off_c, 0, 39, 64
2, 12318, Note_off_c, 0, 54, 64
2, 12318, Note_off_c, 0, 47, 64
2, 12385, Note_on_c, 0, 39, 92
2, 12409, Note_on_c, 0, 37, 96
2, 12423, Note_on_c, 0, 47, 67
2, 12425, Note_on_c, 0, 54, 70
2, 12429, Note_off_c, 0, 39, 64
2, 12444, Note_on_c, 0, 35, 98
2, 12456, Note_off_c, 0, 37, 64
2, 12461, Note_off_c, 0, 54, 64
2, 12464, Note_off_c, 0, 47, 64
2, 12566, Note_on_c, 0, 54, 70
2, 12566, Note_on_c, 0, 47, 66
2, 12576, Control_c, 0, 64, 127
2, 12580, Control_c, 0, 64, 127
2, 12606, Note_off_c, 0, 54, 64
2, 12610, Note_off_c, 0, 47, 64
2, 12695, Note_on_c, 0, 54, 84
2, 12697, Note_on_c, 0, 47, 79
2, 12718, Note_off_c, 0, 35, 64
2, 12739, Note_off_c, 0, 54, 64
2, 12742, Note_off_c, 0, 47, 64
2, 12814, Note_on_c, 0, 44, 92
2, 12818, Note_on_c, 0, 47, 63
2, 12827, Note_on_c, 0, 54, 66
2, 12828, Control_c, 0, 64, 0
2, 12832, Control_c, 0, 64, 0
2, 12878, Note_off_c, 0, 54, 64
2, 12883, Note_off_c, 0, 47, 64
2, 12913, Note_on_c, 0, 42, 88
2, 12930, Note_off_c, 0, 44, 64
2, 12952, Note_on_c, 0, 54, 66
2, 12953, Note_on_c, 0, 47, 66
2, 12956, Note_on_c, 0, 40, 85
2, 12966, Note_off_c, 0, 42, 64
2, 12991, Note_off_c, 0, 47, 64
2, 12994, Note_off_c, 0, 54, 64
2, 12997, Note_off_c, 0, 40, 64
2, 13078, Note_on_c, 0, 39, 101
2, 13082, Note_on_c, 0, 54, 89
2, 13089, Note_on_c, 0, 47, 83
2, 13105, Note_off_c, 0, 39, 64
2, 13115, Note_off_c, 0, 54, 64
2, 13118, Note_off_c, 0, 47, 64
2, 13174, Note_on_c, 0, 39, 89
2, 13192, Note_on_c, 0, 37, 98
2, 13207, Note_off_c, 0, 39, 64
2, 13217, Note_on_c, 0, 47, 66
2, 13221, Note_on_c, 0, 54, 70
2, 13226, Note_on_c, 0, 35, 111
2, 13240, Note_off_c, 0, 37, 64
2, 13262, Note_off_c, 0, 54, 64
2, 13263, Note_off_c, 0, 47, 64
2, 13266, Control_c, 0, 64, 127
2, 13270, Control_c, 0, 64, 127
2, 13352, Note_off_c, 0, 35, 64
2, 13352, Note_on_c, 0, 54, 70
2, 13358, Note_on_c, 0, 47, 66
2, 13403, Note_off_c, 0, 54, 64
2, 13404, Note_off_c, 0, 47, 64
2, 13488, Note_on_c, 0, 54, 75
2, 13495, Note_on_c, 0, 47, 74
2, 13541, Note_off_c, 0, 47, 64
2, 13550, Note_off_c, 0, 54, 64
2, 13606, Control_c, 0, 64, 0
2, 13610, Control_c, 0, 64, 0
2, 13620, Note_on_c, 0, 78, 89
2, 13620, Note_on_c, 0, 75, 83
2, 13620, Note_on_c, 0, 66, 85
2, 13625, Note_on_c, 0, 35, 83
2, 13627, Note_on_c, 0, 71, 88
2, 13628, Note_on_c, 0, 47, 74
2, 13642, Control_c, 0, 64, 127
2, 13646, Control_c, 0, 64, 127
2, 13651, Note_off_c, 0, 75, 64
2, 13658, Note_off_c, 0, 66, 64
2, 13660, Note_off_c, 0, 71, 64
2, 13672, Note_off_c, 0, 78, 64
2, 13726, Note_on_c, 0, 78, 92
2, 13728, Note_on_c, 0, 75, 89
2, 13734, Note_on_c, 0, 71, 78
2, 13760, Note_off_c, 0, 78, 64
2, 13762, Note_off_c, 0, 75, 64
2, 13768, Note_off_c, 0, 71, 64
2, 13777, Note_on_c, 0, 78, 88
2, 13780, Note_on_c, 0, 59, 72
2, 13781, Note_on_c, 0, 71, 101
2, 13786, Note_on_c, 0, 66, 84
2, 13787, Note_on_c, 0, 74, 96
2, 13795, Control_c, 0, 64, 0
2, 13799, Control_c, 0, 64, 0
2, 13820, Note_off_c, 0, 35, 64
2, 13825, Note_off_c, 0, 47, 64
2, 13884, Control_c, 0, 64, 127
2, 13888, Control_c, 0, 64, 127
2, 13921, Note_off_c, 0, 78, 64
2, 13928, Note_off_c, 0, 71, 64
2, 13932, Note_off_c, 0, 66, 64
2, 13935, Note_off_c, 0, 59, 64
2, 13937, Note_off_c, 0, 74, 64
2, 14120, Note_on_c, 0, 81, 88
2, 14124, Note_on_c, 0, 69, 78
2, 14125, Note_on_c, 0, 73, 92
2, 14128, Note_on_c, 0, 42, 88
2, 14129, Note_on_c, 0, 54, 96
2, 14136, Control_c, 0, 64, 127
2, 14140, Control_c, 0, 64, 127
2, 14167, Note_off_c, 0, 69, 64
2, 14168, Note_off_c, 0, 73, 64
2, 14176, Note_off_c, 0, 81, 64
2, 14224, Note_on_c, 0, 81, 36
2, 14228, Note_on_c, 0, 73, 101
2, 14247, Note_off_c, 0, 81, 64
2, 14250, Note_off_c, 0, 42, 64
2, 14251, Note_off_c, 0, 73, 64
2, 14253, Note_off_c, 0, 54, 64
2, 14272, Note_on_c, 0, 81, 96
2, 14272, Note_on_c, 0, 61, 83
2, 14276, Note_on_c, 0, 54, 70
2, 14278, Note_on_c, 0, 73, 87
2, 14280, Note_on_c, 0, 66, 91
2, 14415, Note_on_c, 0, 80, 67
2, 14424, Note_on_c, 0, 71, 63
2, 14425, Note_off_c, 0, 81, 64
2, 14429, Note_off_c, 0, 61, 64
2, 14431, Note_off_c, 0, 73, 64
2, 14433, Note_off_c, 0, 54, 64
2, 14433, Note_off_c, 0, 66, 64
2, 14480, Note_on_c, 0, 78, 72
2, 14485, Note_on_c, 0, 69, 62
2, 14495, Note_off_c, 0, 80, 64
2, 14504, Note_off_c, 0, 71, 64
2, 14537, Control_c, 0, 64, 0
2, 14541, Control_c, 0, 64, 0
2, 14551, Note_on_c, 0, 37, 76
2, 14557, Note_on_c, 0, 49, 70
2, 14557, Control_c, 0, 64, 127
2, 14561, Note_on_c, 0, 68, 83
2, 14561, Control_c, 0, 64, 127
2, 14567, Note_on_c, 0, 76, 76
2, 14573, Note_off_c, 0, 78, 64
2, 14582, Note_off_c, 0, 69, 64
2, 14640, Note_on_c, 0, 66, 70
2, 14643, Note_off_c, 0, 68, 64
2, 14644, Note_on_c, 0, 75, 66
2, 14649, Note_off_c, 0, 76, 64
2, 14661, Control_c, 0, 64, 0
2, 14665, Control_c, 0, 64, 0
2, 14667, Note_off_c, 0, 37, 64
2, 14668, Note_off_c, 0, 49, 64
2, 14685, Note_on_c, 0, 73, 70
2, 14691, Note_on_c, 0, 49, 66
2, 14692, Note_on_c, 0, 64, 58
2, 14692, Note_on_c, 0, 61, 70
2, 14692, Note_on_c, 0, 56, 58
2, 14701, Note_off_c, 0, 66, 64
2, 14705, Note_off_c, 0, 75, 64
2, 14707, Control_c, 0, 64, 127
2, 14711, Control_c, 0, 64, 127
2, 14728, Note_off_c, 0, 56, 64
2, 14739, Note_off_c, 0, 61, 64
2, 14744, Note_off_c, 0, 49, 64
2, 14809, Control_c, 0, 64, 0
2, 14813, Control_c, 0, 64, 0
2, 14829, Note_on_c, 0, 76, 66
2, 14829, Note_on_c, 0, 68, 72
2, 14829, Note_on_c, 0, 49, 63
2, 14835, Note_on_c, 0, 56, 58
2, 14837, Note_off_c, 0, 73, 64
2, 14839, Note_on_c, 0, 61, 72
2, 14844, Note_off_c, 0, 64, 64
2, 14845, Control_c, 0, 64, 127
2, 14849, Control_c, 0, 64, 127
2, 14865, Note_off_c, 0, 49, 64
2, 14866, Note_off_c, 0, 56, 64
2, 14872, Note_off_c, 0, 61, 64
2, 14944, Note_off_c, 0, 76, 64
2, 14944, Control_c, 0, 64, 0
2, 14948, Control_c, 0, 64, 0
2, 14949, Note_off_c, 0, 68, 64
2, 14963, Note_on_c, 0, 76, 72
2, 14963, Note_on_c, 0, 68, 79
2, 14970, Note_on_c, 0, 56, 70
2, 14979, Control_c, 0, 64, 127
2, 14979, Note_on_c, 0, 61, 74
2, 14979, Note_on_c, 0, 49, 63
2, 14983, Control_c, 0, 64, 127
2, 15009, Note_off_c, 0, 49, 64
2, 15012, Note_off_c, 0, 61, 64
2, 15012, Note_off_c, 0, 56, 64
2, 15060, Note_on_c, 0, 66, 71
2, 15064, Note_on_c, 0, 75, 66
2, 15075, Note_off_c, 0, 68, 64
2, 15077, Control_c, 0, 64, 0
2, 15079, Note_off_c, 0, 76, 64
2, 15081, Control_c, 0, 64, 0
2, 15098, Note_on_c, 0, 73, 52
2, 15101, Note_on_c, 0, 49, 66
2, 15106, Note_on_c, 0, 61, 71
2, 15107, Note_on_c, 0, 64, 74
2, 15107, Note_on_c, 0, 56, 48
2, 15112, Control_c, 0, 64, 127
2, 15114, Note_off_c, 0, 66, 64
2, 15116, Control_c, 0, 64, 127
2, 15118, Note_off_c, 0, 75, 64
2, 15140, Note_off_c, 0, 49, 64
2, 15145, Note_off_c, 0, 61, 64
2, 15146, Note_off_c, 0, 56, 64
2, 15224, Note_on_c, 0, 68, 53
2, 15228, Note_on_c, 0, 61, 46
2, 15228, Note_on_c, 0, 56, 57
2, 15228, Note_on_c, 0, 49, 58
2, 15230, Note_on_c, 0, 76, 67
2, 15243, Note_off_c, 0, 73, 64
2, 15249, Note_off_c, 0, 56, 64
2, 15251, Note_off_c, 0, 61, 64
2, 15252, Note_off_c, 0, 64, 64
2, 15266, Note_off_c, 0, 49, 64
2, 15361, Note_off_c, 0, 68, 64
2, 15369, Control_c, 0, 64, 0
2, 15373, Control_c, 0, 64, 0
2, 15377, Note_off_c, 0, 76, 64
2, 15379, Note_on_c, 0, 78, 94
2, 15380, Note_on_c, 0, 73, 81
2, 15380, Note_on_c, 0, 69, 85
2, 15380, Note_on_c, 0, 66, 89
2, 15386, Note_on_c, 0, 42, 80
2, 15392, Note_on_c, 0, 54, 80
2, 15407, Control_c, 0, 64, 127
2, 15411, Control_c, 0, 64, 127
2, 15413, Note_off_c, 0, 73, 64
2, 15416, Note_off_c, 0, 66, 64
2, 15419, Note_off_c, 0, 69, 64
2, 15440, Note_off_c, 0, 78, 64
2, 15501, Note_on_c, 0, 69, 88
2, 15504, Note_on_c, 0, 78, 89
2, 15504, Note_on_c, 0, 73, 88
2, 15520, Note_off_c, 0, 69, 64
2, 15522, Note_off_c, 0, 42, 64
2, 15526, Note_off_c, 0, 78, 64
2, 15529, Note_off_c, 0, 73, 64
2, 15529, Note_off_c, 0, 54, 64
2, 15552, Note_on_c, 0, 69, 93
2, 15553, Note_on_c, 0, 78, 91
2, 15556, Note_on_c, 0, 73, 91
2, 15556, Note_on_c, 0, 66, 79
2, 15556, Note_on_c, 0, 61, 70
2, 15556, Note_on_c, 0, 54, 58
2, 15558, Control_c, 0, 64, 0
2, 15562, Control_c, 0, 64, 0
2, 15596, Control_c, 0, 64, 127
2, 15600, Control_c, 0, 64, 127
2, 15720, Note_off_c, 0, 66, 64
2, 15724, Note_off_c, 0, 54, 64
2, 15724, Note_off_c, 0, 61, 64
2, 15726, Note_off_c, 0, 73, 64
2, 15731, Note_off_c, 0, 78, 64
2, 15734, Note_off_c, 0, 69, 64
2, 15748, Control_c, 0, 64, 0
2, 15752, Control_c, 0, 64, 0
2, 15868, Note_on_c, 0, 73, 92
2, 15870, Note_on_c, 0, 81, 88
2, 15875, Note_on_c, 0, 35, 88
2, 15880, Note_on_c, 0, 47, 80
2, 15889, Control_c, 0, 64, 127
2, 15893, Control_c, 0, 64, 127
2, 15949, Note_off_c, 0, 73, 64
2, 15951, Note_off_c, 0, 81, 64
2, 15976, Note_on_c, 0, 81, 88
2, 15979, Note_on_c, 0, 73, 89
2, 16011, Note_off_c, 0, 47, 64
2, 16013, Note_off_c, 0, 81, 64
2, 16016, Note_off_c, 0, 73, 64
2, 16016, Note_on_c, 0, 81, 85
2, 16020, Note_on_c, 0, 73, 81
2, 16023, Note_off_c, 0, 35, 64
2, 16028, Note_on_c, 0, 63, 72
2, 16028, Note_on_c, 0, 59, 72
2, 16030, Note_on_c, 0, 54, 89
2, 16130, Note_off_c, 0, 63, 64
2, 16132, Note_off_c, 0, 54, 64
2, 16139, Note_off_c, 0, 59, 64
2, 16166, Note_on_c, 0, 75, 75
2, 16166, Note_on_c, 0, 71, 81
2, 16168, Note_on_c, 0, 80, 74
2, 16176, Note_on_c, 0, 47, 67
2, 16177, Note_off_c, 0, 81, 64
2, 16181, Note_off_c, 0, 73, 64
2, 16226, Note_on_c, 0, 78, 75
2, 16229, Note_on_c, 0, 69, 59
2, 16232, Note_off_c, 0, 71, 64
2, 16234, Note_off_c, 0, 80, 64
2, 16293, Control_c, 0, 64, 0
2, 16297, Control_c, 0, 64, 0
2, 16305, Note_on_c, 0, 68, 51
2, 16311, Note_on_c, 0, 76, 80
2, 16315, Note_off_c, 0, 75, 64
2, 16316, Note_on_c, 0, 52, 59
2, 16317, Control_c, 0, 64, 127
2, 16320, Note_off_c, 0, 78, 64
2, 16320, Note_on_c, 0, 40, 50
2, 16321, Control_c, 0, 64, 127
2, 16323, Note_off_c, 0, 69, 64
2, 16333, Note_off_c, 0, 47, 64
2, 16396, Note_on_c, 0, 69, 31
2, 16399, Note_on_c, 0, 73, 57
2, 16404, Note_off_c, 0, 68, 64
2, 16410, Note_off_c, 0, 76, 64
2, 16419, Control_c, 0, 64, 0
2, 16423, Control_c, 0, 64, 0
2, 16436, Note_off_c, 0, 52, 64
2, 16440, Note_on_c, 0, 68, 71
2, 16444, Note_on_c, 0, 52, 50
2, 16445, Note_on_c, 0, 71, 70
2, 16445, Note_on_c, 0, 59, 50
2, 16453, Control_c, 0, 64, 127
2, 16457, Note_off_c, 0, 69, 64
2, 16457, Control_c, 0, 64, 127
2, 16459, Note_off_c, 0, 40, 64
2, 16460, Note_off_c, 0, 73, 64
2, 16478, Note_off_c, 0, 52, 64
2, 16489, Note_off_c, 0, 59, 64
2, 16569, Control_c, 0, 64, 0
2, 16573, Control_c, 0, 64, 0
2, 16582, Note_on_c, 0, 76, 62
2, 16588, Note_on_c, 0, 52, 57
2, 16590, Note_on_c, 0, 59, 48
2, 16591, Note_on_c, 0, 64, 58
2, 16595, Note_off_c, 0, 68, 64
2, 16600, Note_off_c, 0, 71, 64
2, 16602, Control_c, 0, 64, 127
2, 16606, Control_c, 0, 64, 127
2, 16623, Note_off_c, 0, 59, 64
2, 16629, Note_off_c, 0, 52, 64
2, 16674, Note_off_c, 0, 76, 64
2, 16683, Note_off_c, 0, 64, 64
2, 16708, Control_c, 0, 64, 0
2, 16712, Control_c, 0, 64, 0
2, 16724, Note_on_c, 0, 64, 71
2, 16728, Note_on_c, 0, 76, 66
2, 16730, Note_on_c, 0, 59, 62
2, 16730, Note_on_c, 0, 52, 65
2, 16737, Control_c, 0, 64, 127
2, 16741, Control_c, 0, 64, 127
2, 16763, Note_off_c, 0, 59, 64
2, 16768, Note_off_c, 0, 52, 64
2, 16804, Note_off_c, 0, 76, 64
2, 16806, Note_off_c, 0, 64, 64
2, 16820, Note_on_c, 0, 73, 58
2, 16824, Note_on_c, 0, 69, 58
2, 16848, Note_on_c, 0, 71, 63
2, 16848, Note_on_c, 0, 68, 61
2, 16861, Note_on_c, 0, 59, 61
2, 16867, Note_on_c, 0, 52, 54
2, 16878, Note_off_c, 0, 73, 64
2, 16881, Note_off_c, 0, 69, 64
2, 16915, Note_off_c, 0, 52, 64
2, 16917, Note_off_c, 0, 59, 64
2, 16988, Note_on_c, 0, 76, 65
2, 16992, Note_on_c, 0, 64, 22
2, 16996, Note_on_c, 0, 52, 66
2, 17000, Note_on_c, 0, 59, 65
2, 17003, Note_off_c, 0, 68, 64
2, 17003, Note_off_c, 0, 71, 64
2, 17035, Note_off_c, 0, 52, 64
2, 17039, Note_off_c, 0, 59, 64
2, 17068, Note_off_c, 0, 76, 64
2, 17072, Note_off_c, 0, 64, 64
2, 17129, Control_c, 0, 64, 0
2, 17133, Control_c, 0, 64, 0
2, 17142, Note_on_c, 0, 78, 74
2, 17143, Note_on_c, 0, 71, 66
2, 17144, Note_on_c, 0, 47, 58
2, 17144, Note_on_c, 0, 35, 63
2, 17147, Note_on_c, 0, 75, 65
2, 17148, Note_on_c, 0, 66, 70
2, 17167, Control_c, 0, 64, 127
2, 17171, Control_c, 0, 64, 127
2, 17226, Note_off_c, 0, 75, 64
2, 17228, Note_off_c, 0, 71, 64
2, 17244, Note_off_c, 0, 66, 64
2, 17244, Note_off_c, 0, 78, 64
2, 17260, Note_on_c, 0, 75, 58
2, 17261, Note_on_c, 0, 78, 70
2, 17264, Note_on_c, 0, 71, 70
2, 17284, Note_off_c, 0, 35, 64
2, 17287, Note_off_c, 0, 75, 64
2, 17288, Note_off_c, 0, 78, 64
2, 17290, Note_off_c, 0, 47, 64
2, 17291, Note_off_c, 0, 71, 64
2, 17300, Note_on_c, 0, 78, 70
2, 17300, Note_on_c, 0, 74, 80
2, 17300, Note_on_c, 0, 59, 65
2, 17303, Note_on_c, 0, 71, 71
2, 17304, Note_on_c, 0, 66, 83
2, 17320, Control_c, 0, 64, 0
2, 17324, Control_c, 0, 64, 0
2, 17417, Control_c, 0, 64, 127
2, 17421, Control_c, 0, 64, 127
2, 17431, Note_off_c, 0, 66, 64
2, 17435, Note_off_c, 0, 59, 64
2, 17442, Note_off_c, 0, 71, 64
2, 17443, Note_off_c, 0, 74, 64
2, 17454, Note_off_c, 0, 78, 64
2, 17605, Control_c, 0, 64, 0
2, 17609, Control_c, 0, 64, 0
2, 17645, Note_on_c, 0, 81, 71
2, 17645, Note_on_c, 0, 73, 80
2, 17650, Note_on_c, 0, 42, 70
2, 17651, Note_on_c, 0, 54, 72
2, 17676, Control_c, 0, 64, 127
2, 17680, Control_c, 0, 64, 127
2, 17689, Note_off_c, 0, 73, 64
2, 17699, Note_off_c, 0, 81, 64
2, 17740, Note_off_c, 0, 54, 64
2, 17743, Note_off_c, 0, 42, 64
2, 17764, Note_on_c, 0, 81, 55
2, 17766, Note_on_c, 0, 73, 71
2, 17789, Control_c, 0, 64, 0
2, 17793, Control_c, 0, 64, 0
2, 17798, Note_off_c, 0, 81, 64
2, 17800, Note_off_c, 0, 73, 64
2, 17800, Note_on_c, 0, 54, 55
2, 17804, Note_on_c, 0, 81, 71
2, 17804, Note_on_c, 0, 66, 70
2, 17804, Note_on_c, 0, 61, 50
2, 17805, Note_on_c, 0, 73, 66
2, 17813, Control_c, 0, 64, 127
2, 17817, Control_c, 0, 64, 127
2, 17903, Note_off_c, 0, 54, 64
2, 17906, Note_off_c, 0, 61, 64
2, 17914, Note_off_c, 0, 66, 64
2, 17944, Note_on_c, 0, 71, 70
2, 17948, Note_on_c, 0, 80, 67
2, 17961, Note_off_c, 0, 81, 64
2, 17962, Note_off_c, 0, 73, 64
2, 18008, Note_on_c, 0, 69, 66
2, 18012, Note_on_c, 0, 78, 71
2, 18019, Note_off_c, 0, 71, 64
2, 18023, Note_off_c, 0, 80, 64
2, 18055, Control_c, 0, 64, 0
2, 18059, Control_c, 0, 64, 0
2, 18070, Note_on_c, 0, 37, 57
2, 18072, Note_on_c, 0, 49, 48
2, 18079, Note_off_c, 0, 69, 64
2, 18079, Note_on_c, 0, 76, 61
2, 18079, Note_on_c, 0, 68, 66
2, 18083, Note_off_c, 0, 78, 64
2, 18089, Control_c, 0, 64, 127
2, 18093, Control_c, 0, 64, 127
2, 18168, Note_on_c, 0, 66, 58
2, 18170, Note_on_c, 0, 75, 46
2, 18174, Note_off_c, 0, 68, 64
2, 18174, Note_off_c, 0, 76, 64
2, 18192, Control_c, 0, 64, 0
2, 18196, Note_off_c, 0, 49, 64
2, 18196, Control_c, 0, 64, 0
2, 18204, Note_on_c, 0, 64, 53
2, 18204, Note_on_c, 0, 61, 50
2, 18206, Note_on_c, 0, 73, 52
2, 18212, Note_on_c, 0, 56, 37
2, 18213, Note_on_c, 0, 49, 48
2, 18214, Note_off_c, 0, 37, 64
2, 18215, Note_off_c, 0, 66, 64
2, 18217, Note_off_c, 0, 75, 64
2, 18220, Control_c, 0, 64, 127
2, 18224, Control_c, 0, 64, 127
2, 18232, Note_off_c, 0, 61, 64
2, 18238, Note_off_c, 0, 56, 64
2, 18265, Note_off_c, 0, 49, 64
2, 18331, Control_c, 0, 64, 0
2, 18335, Control_c, 0, 64, 0
2, 18357, Note_on_c, 0, 76, 52
2, 18358, Note_on_c, 0, 68, 55
2, 18362, Note_off_c, 0, 73, 64
2, 18362, Note_on_c, 0, 49, 53
2, 18363, Note_on_c, 0, 61, 58
2, 18363, Note_on_c, 0, 56, 55
2, 18366, Control_c, 0, 64, 127
2, 18370, Control_c, 0, 64, 127
2, 18373, Note_off_c, 0, 64, 64
2, 18395, Note_off_c, 0, 49, 64
2, 18397, Note_off_c, 0, 56, 64
2, 18399, Note_off_c, 0, 61, 64
2, 18475, Note_off_c, 0, 76, 64
2, 18477, Control_c, 0, 64, 0
2, 18481, Control_c, 0, 64, 0
2, 18486, Note_off_c, 0, 68, 64
2, 18487, Note_on_c, 0, 76, 55
2, 18491, Note_on_c, 0, 68, 61
2, 18494, Control_c, 0, 64, 127
2, 18498, Control_c, 0, 64, 127
2, 18505, Note_on_c, 0, 56, 55
2, 18510, Note_on_c, 0, 61, 57
2, 18510, Note_on_c, 0, 49, 50
2, 18531, Note_off_c, 0, 56, 64
2, 18532, Note_off_c, 0, 49, 64
2, 18540, Note_off_c, 0, 61, 64
2, 18588, Note_on_c, 0, 75, 46
2, 18588, Note_on_c, 0, 66, 52
2, 18620, Note_off_c, 0, 76, 64
2, 18620, Note_on_c, 0, 73, 49
2, 18620, Note_on_c, 0, 64, 57
2, 18622, Note_off_c, 0, 68, 64
2, 18626, Note_on_c, 0, 56, 53
2, 18628, Note_off_c, 0, 66, 64
2, 18628, Note_off_c, 0, 75, 64
2, 18631, Note_on_c, 0, 61, 58
2, 18631, Note_on_c, 0, 49, 50
2, 18668, Note_off_c, 0, 49, 64
2, 18668, Note_off_c, 0, 61, 64
2, 18668, Note_off_c, 0, 56, 64
2, 18751, Note_on_c, 0, 76, 57
2, 18752, Note_on_c, 0, 68, 44
2, 18756, Note_on_c, 0, 56, 50
2, 18757, Note_on_c, 0, 61, 48
2, 18758, Note_off_c, 0, 73, 64
2, 18759, Note_on_c, 0, 49, 53
2, 18764, Note_off_c, 0, 64, 64
2, 18790, Note_off_c, 0, 61, 64
2, 18795, Note_off_c, 0, 49, 64
2, 18800, Note_off_c, 0, 56, 64
2, 18876, Note_off_c, 0, 68, 64
2, 18878, Control_c, 0, 64, 0
2, 18882, Control_c, 0, 64, 0
2, 18895, Note_on_c, 0, 69, 66
2, 18896, Note_on_c, 0, 73, 66
2, 18897, Note_on_c, 0, 78, 74
2, 18897, Note_on_c, 0, 66, 76
2, 18901, Note_off_c, 0, 76, 64
2, 18903, Note_on_c, 0, 54, 66
2, 18903, Note_on_c, 0, 42, 71
2, 18933, Control_c, 0, 64, 127
2, 18937, Control_c, 0, 64, 127
2, 18953, Note_off_c, 0, 73, 64
2, 18960, Note_off_c, 0, 66, 64
2, 18961, Note_off_c, 0, 69, 64
2, 18983, Note_off_c, 0, 78, 64
2, 19004, Note_on_c, 0, 69, 44
2, 19009, Note_on_c, 0, 73, 70
2, 19012, Note_on_c, 0, 78, 70
2, 19031, Note_off_c, 0, 69, 64
2, 19032, Control_c, 0, 64, 0
2, 19036, Note_off_c, 0, 73, 64
2, 19036, Control_c, 0, 64, 0
2, 19039, Note_off_c, 0, 78, 64
2, 19043, Note_off_c, 0, 54, 64
2, 19046, Note_on_c, 0, 73, 80
2, 19048, Note_on_c, 0, 69, 83
2, 19048, Note_on_c, 0, 66, 70
2, 19048, Note_on_c, 0, 61, 59
2, 19048, Note_on_c, 0, 54, 66
2, 19051, Note_on_c, 0, 78, 79
2, 19064, Note_off_c, 0, 42, 64
2, 19080, Control_c, 0, 64, 127
2, 19084, Control_c, 0, 64, 127
2, 19174, Note_off_c, 0, 61, 64
2, 19175, Note_off_c, 0, 73, 64
2, 19179, Note_off_c, 0, 54, 64
2, 19179, Note_off_c, 0, 69, 64
2, 19186, Note_off_c, 0, 78, 64
2, 19187, Note_off_c, 0, 66, 64
2, 19279, Control_c, 0, 64, 0
2, 19283, Control_c, 0, 64, 0
2, 19388, Note_on_c, 0, 35, 66
2, 19392, Note_on_c, 0, 81, 70
2, 19396, Note_on_c, 0, 73, 70
2, 19396, Note_on_c, 0, 47, 63
2, 19405, Control_c, 0, 64, 127
2, 19409, Control_c, 0, 64, 127
2, 19458, Note_off_c, 0, 73, 64
2, 19467, Note_off_c, 0, 81, 64
2, 19486, Note_on_c, 0, 73, 72
2, 19488, Note_on_c, 0, 81, 71
2, 19506, Note_off_c, 0, 73, 64
2, 19509, Note_off_c, 0, 81, 64
2, 19531, Note_on_c, 0, 73, 79
2, 19532, Note_off_c, 0, 47, 64
2, 19532, Note_off_c, 0, 35, 64
2, 19533, Note_on_c, 0, 81, 72
2, 19533, Note_on_c, 0, 66, 70
2, 19536, Note_on_c, 0, 59, 50
2, 19574, Note_off_c, 0, 59, 64
2, 19581, Note_off_c, 0, 66, 64
2, 19673, Note_on_c, 0, 80, 58
2, 19673, Note_on_c, 0, 71, 53
2, 19678, Note_on_c, 0, 75, 44
2, 19679, Note_off_c, 0, 73, 64
2, 19681, Note_off_c, 0, 81, 64
2, 19733, Note_on_c, 0, 78, 52
2, 19737, Note_on_c, 0, 69, 46
2, 19742, Note_off_c, 0, 80, 64
2, 19744, Note_off_c, 0, 71, 64
2, 19807, Note_on_c, 0, 68, 62
2, 19812, Note_on_c, 0, 76, 66
2, 19812, Note_on_c, 0, 40, 50
2, 19823, Note_off_c, 0, 78, 64
2, 19823, Note_on_c, 0, 52, 29
2, 19824, Control_c, 0, 64, 0
2, 19827, Note_off_c, 0, 69, 64
2, 19828, Note_off_c, 0, 75, 64
2, 19828, Control_c, 0, 64, 0
2, 19839, Control_c, 0, 64, 127
2, 19843, Control_c, 0, 64, 127
2, 19849, Note_off_c, 0, 52, 64
2, 19877, Note_off_c, 0, 40, 64
2, 19916, Note_on_c, 0, 73, 44
2, 19916, Note_on_c, 0, 69, 18
2, 19924, Note_off_c, 0, 68, 64
2, 19925, Note_off_c, 0, 76, 64
2, 19940, Control_c, 0, 64, 0
2, 19944, Control_c, 0, 64, 0
2, 19948, Note_on_c, 0, 68, 50
2, 19956, Note_on_c, 0, 71, 52
2, 19957, Note_on_c, 0, 59, 40
2, 19959, Note_on_c, 0, 64, 53
2, 19960, Note_off_c, 0, 69, 64
2, 19962, Note_on_c, 0, 52, 42
2, 19972, Note_off_c, 0, 73, 64
2, 19980, Control_c, 0, 64, 127
2, 19984, Note_off_c, 0, 52, 64
2, 19984, Control_c, 0, 64, 127
2, 19991, Note_off_c, 0, 64, 64
2, 19991, Note_off_c, 0, 59, 64
2, 20093, Control_c, 0, 64, 0
2, 20097, Control_c, 0, 64, 0
2, 20103, Note_off_c, 0, 68, 64
2, 20103, Note_on_c, 0, 76, 53
2, 20106, Note_on_c, 0, 64, 45
2, 20111, Note_off_c, 0, 71, 64
2, 20111, Note_on_c, 0, 59, 44
2, 20111, Note_on_c, 0, 52, 45
2, 20116, Control_c, 0, 64, 127
2, 20120, Control_c, 0, 64, 127
2, 20141, Note_off_c, 0, 52, 64
2, 20141, Note_off_c, 0, 59, 64
2, 20214, Note_off_c, 0, 76, 64
2, 20217, Note_off_c, 0, 64, 64
2, 20236, Note_on_c, 0, 76, 52
2, 20236, Note_on_c, 0, 64, 52
2, 20240, Note_on_c, 0, 59, 48
2, 20240, Note_on_c, 0, 52, 52
2, 20263, Note_off_c, 0, 59, 64
2, 20282, Note_off_c, 0, 52, 64
2, 20320, Note_on_c, 0, 73, 44
2, 20324, Note_on_c, 0, 69, 55
2, 20341, Note_off_c, 0, 64, 64
2, 20341, Note_off_c, 0, 76, 64
2, 20360, Note_on_c, 0, 71, 48
2, 20360, Note_on_c, 0, 68, 35
2, 20366, Note_off_c, 0, 73, 64
2, 20369, Note_off_c, 0, 69, 64
2, 20373, Control_c, 0, 64, 0
2, 20375, Note_on_c, 0, 59, 50
2, 20377, Control_c, 0, 64, 0
2, 20384, Note_on_c, 0, 64, 52
2, 20384, Note_on_c, 0, 52, 48
2, 20392, Control_c, 0, 64, 127
2, 20396, Control_c, 0, 64, 127
2, 20420, Note_off_c, 0, 64, 64
2, 20422, Note_off_c, 0, 59, 64
2, 20427, Note_off_c, 0, 52, 64
2, 20514, Note_on_c, 0, 76, 48
2, 20515, Note_off_c, 0, 68, 64
2, 20515, Note_off_c, 0, 71, 64
2, 20523, Note_on_c, 0, 64, 44
2, 20528, Note_on_c, 0, 52, 50
2, 20531, Note_on_c, 0, 59, 28
2, 20576, Note_off_c, 0, 52, 64
2, 20580, Note_off_c, 0, 59, 64
2, 20639, Note_on_c, 0, 71, 79
2, 20645, Note_off_c, 0, 76, 64
2, 20654, Note_off_c, 0, 64, 64
2, 20660, Control_c, 0, 64, 0
2, 20664, Control_c, 0, 64, 0
2, 20696, Note_on_c, 0, 83, 67
2, 20700, Note_on_c, 0, 59, 50
2, 20700, Note_on_c, 0, 57, 48
2, 20703, Note_on_c, 0, 63, 50
2, 20706, Note_on_c, 0, 52, 28
2, 20712, Control_c, 0, 64, 127
2, 20716, Control_c, 0, 64, 127
2, 20754, Note_off_c, 0, 52, 64
2, 20754, Note_off_c, 0, 57, 64
2, 20756, Note_off_c, 0, 63, 64
2, 20761, Note_off_c, 0, 59, 64
2, 20787, Note_off_c, 0, 83, 64
2, 20808, Note_on_c, 0, 82, 74
2, 20850, Note_on_c, 0, 63, 49
2, 20850, Note_on_c, 0, 52, 46
2, 20856, Note_on_c, 0, 81, 76
2, 20856, Note_on_c, 0, 59, 54
2, 20861, Note_on_c, 0, 57, 46
2, 20872, Note_off_c, 0, 82, 64
2, 20877, Note_off_c, 0, 71, 64
2, 20897, Note_off_c, 0, 63, 64
2, 20900, Note_off_c, 0, 57, 64
2, 20900, Note_off_c, 0, 52, 64
2, 20916, Note_off_c, 0, 59, 64
2, 20926, Note_on_c, 0, 71, 83
2, 20988, Note_on_c, 0, 80, 80
2, 20988, Note_on_c, 0, 63, 53
2, 20992, Note_on_c, 0, 59, 54
2, 20994, Note_on_c, 0, 57, 46
2, 20998, Note_off_c, 0, 81, 64
2, 20999, Note_on_c, 0, 52, 36
2, 21028, Note_off_c, 0, 57, 64
2, 21032, Note_off_c, 0, 59, 64
2, 21032, Note_off_c, 0, 63, 64
2, 21033, Note_off_c, 0, 52, 64
2, 21049, Note_on_c, 0, 78, 71
2, 21063, Note_off_c, 0, 80, 64
2, 21108, Note_off_c, 0, 71, 64
2, 21109, Control_c, 0, 64, 0
2, 21113, Control_c, 0, 64, 0
2, 21120, Note_on_c, 0, 76, 83
2, 21136, Note_on_c, 0, 64, 50
2, 21144, Note_on_c, 0, 59, 41
2, 21144, Note_on_c, 0, 56, 44
2, 21144, Note_on_c, 0, 52, 50
2, 21145, Note_off_c, 0, 78, 64
2, 21152, Control_c, 0, 64, 127
2, 21156, Control_c, 0, 64, 127
2, 21171, Note_off_c, 0, 56, 64
2, 21171, Note_off_c, 0, 59, 64
2, 21172, Note_off_c, 0, 64, 64
2, 21178, Note_off_c, 0, 52, 64
2, 21191, Note_on_c, 0, 71, 80
2, 21205, Note_off_c, 0, 76, 64
2, 21242, Control_c, 0, 64, 0
2, 21246, Control_c, 0, 64, 0
2, 21270, Note_on_c, 0, 80, 83
2, 21276, Note_on_c, 0, 56, 53
2, 21280, Note_on_c, 0, 52, 49
2, 21284, Note_on_c, 0, 64, 50
2, 21284, Note_on_c, 0, 59, 40
2, 21286, Control_c, 0, 64, 127
2, 21290, Control_c, 0, 64, 127
2, 21313, Note_off_c, 0, 59, 64
2, 21315, Note_off_c, 0, 56, 64
2, 21318, Note_off_c, 0, 64, 64
2, 21318, Note_off_c, 0, 52, 64
2, 21348, Note_on_c, 0, 82, 81
2, 21368, Note_off_c, 0, 80, 64
2, 21387, Control_c, 0, 64, 0
2, 21391, Control_c, 0, 64, 0
2, 21412, Note_on_c, 0, 83, 89
2, 21421, Note_on_c, 0, 64, 44
2, 21426, Note_on_c, 0, 52, 32
2, 21428, Note_on_c, 0, 56, 40
2, 21430, Note_off_c, 0, 82, 64
2, 21430, Note_on_c, 0, 59, 36
2, 21434, Control_c, 0, 64, 127
2, 21438, Control_c, 0, 64, 127
2, 21457, Note_off_c, 0, 59, 64
2, 21461, Note_off_c, 0, 52, 64
2, 21467, Note_off_c, 0, 56, 64
2, 21472, Note_off_c, 0, 64, 64
2, 21542, Control_c, 0, 64, 0
2, 21546, Control_c, 0, 64, 0
2, 21555, Note_on_c, 0, 52, 49
2, 21556, Note_on_c, 0, 59, 46
2, 21561, Note_on_c, 0, 57, 46
2, 21562, Note_on_c, 0, 63, 55
2, 21563, Control_c, 0, 64, 127
2, 21567, Control_c, 0, 64, 127
2, 21592, Note_off_c, 0, 59, 64
2, 21594, Note_off_c, 0, 63, 64
2, 21603, Note_off_c, 0, 57, 64
2, 21613, Note_off_c, 0, 52, 64
2, 21619, Note_on_c, 0, 82, 75
2, 21640, Note_off_c, 0, 83, 64
2, 21696, Note_on_c, 0, 59, 54
2, 21698, Note_on_c, 0, 81, 72
2, 21698, Note_on_c, 0, 63, 40
2, 21700, Note_on_c, 0, 52, 32
2, 21705, Note_on_c, 0, 57, 40
2, 21710, Note_off_c, 0, 82, 64
2, 21721, Note_off_c, 0, 71, 64
2, 21741, Note_off_c, 0, 57, 64
2, 21744, Note_off_c, 0, 52, 64
2, 21744, Note_off_c, 0, 63, 64
2, 21744, Note_off_c, 0, 59, 64
2, 21773, Note_on_c, 0, 71, 83
2, 21788, Note_off_c, 0, 81, 64
2, 21832, Note_on_c, 0, 59, 54
2, 21835, Note_on_c, 0, 63, 46
2, 21835, Note_on_c, 0, 52, 36
2, 21836, Note_on_c, 0, 57, 36
2, 21843, Note_on_c, 0, 80, 88
2, 21872, Note_off_c, 0, 59, 64
2, 21877, Note_off_c, 0, 57, 64
2, 21879, Note_off_c, 0, 52, 64
2, 21882, Note_off_c, 0, 63, 64
2, 21914, Note_on_c, 0, 78, 83
2, 21940, Note_off_c, 0, 80, 64
2, 21950, Note_off_c, 0, 71, 64
2, 21983, Note_on_c, 0, 59, 49
2, 21987, Note_on_c, 0, 56, 44
2, 21990, Note_on_c, 0, 52, 44
2, 21991, Note_on_c, 0, 64, 46
2, 21996, Note_on_c, 0, 76, 81
2, 22012, Note_off_c, 0, 78, 64
2, 22032, Note_off_c, 0, 64, 64
2, 22035, Note_off_c, 0, 52, 64
2, 22035, Note_off_c, 0, 59, 64
2, 22040, Note_off_c, 0, 56, 64
2, 22055, Note_on_c, 0, 71, 81
2, 22071, Note_off_c, 0, 76, 64
2, 22132, Note_on_c, 0, 75, 79
2, 22140, Note_on_c, 0, 52, 46
2, 22144, Note_on_c, 0, 56, 48
2, 22145, Note_off_c, 0, 71, 64
2, 22147, Note_on_c, 0, 64, 49
2, 22148, Note_on_c, 0, 59, 49
2, 22183, Note_off_c, 0, 56, 64
2, 22186, Note_off_c, 0, 59, 64
2, 22186, Note_off_c, 0, 52, 64
2, 22192, Note_off_c, 0, 64, 64
2, 22216, Note_off_c, 0, 75, 64
2, 22218, Note_on_c, 0, 73, 84
2, 22240, Note_on_c, 0, 75, 54
2, 22256, Note_off_c, 0, 73, 64
2, 22268, Note_on_c, 0, 73, 80
2, 22274, Control_c, 0, 64, 0
2, 22278, Control_c, 0, 64, 0
2, 22284, Note_off_c, 0, 75, 64
2, 22285, Note_on_c, 0, 64, 48
2, 22285, Note_on_c, 0, 52, 46
2, 22291, Note_on_c, 0, 71, 88
2, 22291, Note_on_c, 0, 59, 44
2, 22292, Note_on_c, 0, 56, 36
2, 22303, Control_c, 0, 64, 127
2, 22307, Control_c, 0, 64, 127
2, 22311, Note_off_c, 0, 73, 64
2, 22320, Note_off_c, 0, 56, 64
2, 22321, Note_off_c, 0, 59, 64
2, 22323, Note_off_c, 0, 64, 64
2, 22328, Note_off_c, 0, 52, 64
2, 22428, Note_on_c, 0, 63, 55
2, 22428, Note_on_c, 0, 57, 49
2, 22428, Note_on_c, 0, 52, 39
2, 22432, Note_on_c, 0, 83, 76
2, 22432, Note_on_c, 0, 59, 46
2, 22470, Note_off_c, 0, 63, 64
2, 22472, Note_off_c, 0, 57, 64
2, 22473, Note_off_c, 0, 59, 64
2, 22473, Note_off_c, 0, 52, 64
2, 22477, Note_off_c, 0, 71, 64
2, 22528, Note_on_c, 0, 82, 89
2, 22537, Note_off_c, 0, 83, 64
2, 22568, Note_on_c, 0, 57, 46
2, 22571, Note_on_c, 0, 63, 50
2, 22572, Note_on_c, 0, 59, 48
2, 22572, Note_on_c, 0, 52, 24
2, 22576, Note_on_c, 0, 81, 88
2, 22587, Note_off_c, 0, 82, 64
2, 22599, Note_off_c, 0, 52, 64
2, 22609, Note_off_c, 0, 59, 64
2, 22613, Note_off_c, 0, 57, 64
2, 22621, Note_off_c, 0, 63, 64
2, 22638, Note_on_c, 0, 71, 83
2, 22657, Note_off_c, 0, 81, 64
2, 22696, Control_c, 0, 64, 0
2, 22700, Control_c, 0, 64, 0
2, 22710, Note_on_c, 0, 63, 49
2, 22714, Note_on_c, 0, 52, 40
2, 22716, Note_on_c, 0, 59, 44
2, 22716, Note_on_c, 0, 57, 44
2, 22717, Control_c, 0, 64, 127
2, 22721, Note_on_c, 0, 80, 94
2, 22721, Control_c, 0, 64, 127
2, 22747, Note_off_c, 0, 59, 64
2, 22750, Note_off_c, 0, 57, 64
2, 22755, Note_off_c, 0, 52, 64
2, 22759, Note_off_c, 0, 63, 64
2, 22781, Note_on_c, 0, 78, 88
2, 22791, Note_off_c, 0, 80, 64
2, 22817, Note_off_c, 0, 71, 64
2, 22847, Control_c, 0, 64, 0
2, 22851, Control_c, 0, 64, 0
2, 22856, Note_on_c, 0, 64, 50
2, 22856, Note_on_c, 0, 52, 54
2, 22860, Note_on_c, 0, 59, 1
2, 22860, Note_on_c, 0, 56, 54
2, 22863, Note_on_c, 0, 76, 78
2, 22871, Note_off_c, 0, 78, 64
2, 22892, Control_c, 0, 64, 127
2, 22896, Control_c, 0, 64, 127
2, 22931, Note_on_c, 0, 71, 83
2, 22938, Note_off_c, 0, 76, 64
2, 23004, Note_on_c, 0, 68, 79
2, 23008, Note_off_c, 0, 64, 64
2, 23009, Note_on_c, 0, 80, 88
2, 23012, Note_off_c, 0, 59, 64
2, 23012, Note_off_c, 0, 52, 64
2, 23016, Note_off_c, 0, 56, 64
2, 23029, Note_off_c, 0, 71, 64
2, 23080, Control_c, 0, 64, 0
2, 23084, Control_c, 0, 64, 0
2, 23088, Note_on_c, 0, 70, 70
2, 23090, Note_on_c, 0, 82, 74
2, 23101, Note_off_c, 0, 68, 64
2, 23106, Note_off_c, 0, 80, 64
2, 23161, Note_on_c, 0, 83, 62
2, 23161, Note_on_c, 0, 71, 76
2, 23172, Note_off_c, 0, 70, 64
2, 23174, Note_off_c, 0, 82, 64
2, 23370, Note_on_c, 0, 70, 63
2, 23377, Note_on_c, 0, 82, 64
2, 23403, Note_off_c, 0, 83, 64
2, 23408, Note_off_c, 0, 71, 64
2, 23440, Note_on_c, 0, 78, 62
2, 23447, Note_on_c, 0, 66, 55
2, 23462, Note_off_c, 0, 70, 64
2, 23469, Note_off_c, 0, 82, 64
2, 23520, Note_on_c, 0, 69, 54
2, 23521, Note_on_c, 0, 81, 70
2, 23538, Note_off_c, 0, 78, 64
2, 23545, Note_off_c, 0, 66, 64
2, 23588, Note_on_c, 0, 68, 40
2, 23590, Note_on_c, 0, 80, 76
2, 23608, Note_off_c, 0, 69, 64
2, 23609, Note_off_c, 0, 81, 64
2, 23657, Note_on_c, 0, 76, 59
2, 23659, Note_on_c, 0, 64, 36
2, 23661, Control_c, 0, 64, 127
2, 23665, Control_c, 0, 64, 127
2, 23676, Note_off_c, 0, 68, 64
2, 23678, Note_off_c, 0, 80, 64
2, 23740, Note_on_c, 0, 78, 67
2, 23740, Note_on_c, 0, 66, 67
2, 23755, Note_off_c, 0, 76, 64
2, 23757, Note_off_c, 0, 64, 64
2, 23807, Note_on_c, 0, 75, 69
2, 23808, Note_on_c, 0, 63, 23
2, 23822, Note_off_c, 0, 66, 64
2, 23822, Note_off_c, 0, 78, 64
2, 23884, Note_on_c, 0, 64, 53
2, 23885, Note_on_c, 0, 76, 60
2, 23896, Note_off_c, 0, 75, 64
2, 23897, Note_off_c, 0, 63, 64
2, 23948, Note_on_c, 0, 61, 43
2, 23953, Note_on_c, 0, 73, 52
2, 23968, Note_off_c, 0, 64, 64
2, 23969, Note_off_c, 0, 76, 64
2, 24036, Note_on_c, 0, 76, 55
2, 24038, Note_on_c, 0, 64, 43
2, 24042, Note_off_c, 0, 61, 64
2, 24047, Note_off_c, 0, 73, 64
2, 24106, Note_on_c, 0, 72, 43
2, 24108, Note_on_c, 0, 60, 36
2, 24123, Note_off_c, 0, 76, 64
2, 24125, Note_off_c, 0, 64, 64
2, 24200, Note_on_c, 0, 59, 29
2, 24202, Note_on_c, 0, 71, 43
2, 24214, Note_off_c, 0, 72, 64
2, 24216, Note_off_c, 0, 60, 64
2, 24294, Note_off_c, 0, 59, 64
2, 24314, Note_on_c, 0, 68, 57
2, 24329, Control_c, 0, 64, 0
2, 24333, Control_c, 0, 64, 0
2, 24342, Note_off_c, 0, 71, 64
2, 24344, Note_on_c, 0, 62, 40
2, 24344, Note_on_c, 0, 59, 42
2, 24348, Note_on_c, 0, 52, 40
2, 24351, Note_on_c, 0, 64, 70
2, 24375, Note_off_c, 0, 68, 64
2, 24397, Note_off_c, 0, 59, 64
2, 24397, Note_off_c, 0, 62, 64
2, 24412, Note_off_c, 0, 52, 64
2, 24412, Control_c, 0, 64, 127
2, 24416, Control_c, 0, 64, 127
2, 24481, Control_c, 0, 64, 0
2, 24485, Control_c, 0, 64, 0
2, 24508, Note_on_c, 0, 62, 36
2, 24508, Note_on_c, 0, 59, 36
2, 24508, Note_on_c, 0, 52, 37
2, 24510, Note_on_c, 0, 66, 72
2, 24525, Control_c, 0, 64, 127
2, 24527, Note_off_c, 0, 64, 64
2, 24529, Control_c, 0, 64, 127
2, 24550, Note_off_c, 0, 52, 64
2, 24553, Note_off_c, 0, 59, 64
2, 24559, Note_off_c, 0, 62, 64
2, 24574, Note_on_c, 0, 68, 67
2, 24591, Note_off_c, 0, 66, 64
2, 24644, Note_on_c, 0, 57, 39
2, 24647, Note_on_c, 0, 69, 74
2, 24647, Note_on_c, 0, 61, 44
2, 24650, Control_c, 0, 64, 0
2, 24654, Control_c, 0, 64, 0
2, 24658, Note_off_c, 0, 68, 64
2, 24678, Control_c, 0, 64, 127
2, 24682, Control_c, 0, 64, 127
2, 24707, Note_off_c, 0, 57, 64
2, 24715, Note_off_c, 0, 61, 64
2, 24716, Note_on_c, 0, 73, 59
2, 24748, Note_off_c, 0, 69, 64
2, 24788, Control_c, 0, 64, 0
2, 24792, Control_c, 0, 64, 0
2, 24800, Note_on_c, 0, 56, 46
2, 24801, Note_on_c, 0, 76, 66
2, 24801, Note_on_c, 0, 59, 41
2, 24804, Note_on_c, 0, 64, 29
2, 24810, Note_off_c, 0, 73, 64
2, 24821, Control_c, 0, 64, 127
2, 24825, Control_c, 0, 64, 127
2, 24863, Note_off_c, 0, 56, 64
2, 24867, Note_off_c, 0, 59, 64
2, 24876, Note_off_c, 0, 64, 64
2, 24942, Control_c, 0, 64, 0
2, 24946, Control_c, 0, 64, 0
2, 24955, Note_on_c, 0, 64, 33
2, 24959, Note_on_c, 0, 59, 39
2, 24959, Note_on_c, 0, 55, 40
2, 24971, Control_c, 0, 64, 127
2, 24975, Control_c, 0, 64, 127
2, 25004, Note_off_c, 0, 59, 64
2, 25008, Note_off_c, 0, 64, 64
2, 25014, Note_off_c, 0, 55, 64
2, 25019, Note_on_c, 0, 77, 61
2, 25049, Note_off_c, 0, 76, 64
2, 25085, Control_c, 0, 64, 0
2, 25089, Control_c, 0, 64, 0
2, 25100, Note_on_c, 0, 61, 49
2, 25100, Note_on_c, 0, 54, 46
2, 25102, Note_on_c, 0, 78, 74
2, 25105, Note_on_c, 0, 64, 40
2, 25114, Note_off_c, 0, 77, 64
2, 25116, Control_c, 0, 64, 127
2, 25120, Control_c, 0, 64, 127
2, 25155, Note_off_c, 0, 54, 64
2, 25161, Note_off_c, 0, 64, 64
2, 25163, Note_on_c, 0, 70, 58
2, 25173, Note_off_c, 0, 61, 64
2, 25178, Note_off_c, 0, 78, 64
2, 25227, Control_c, 0, 64, 0
2, 25231, Control_c, 0, 64, 0
2, 25240, Note_on_c, 0, 62, 42
2, 25246, Note_on_c, 0, 71, 63
2, 25246, Note_on_c, 0, 59, 46
2, 25257, Control_c, 0, 64, 127
2, 25259, Note_off_c, 0, 70, 64
2, 25261, Control_c, 0, 64, 127
2, 25296, Note_off_c, 0, 62, 64
2, 25303, Note_off_c, 0, 59, 64
2, 25384, Note_on_c, 0, 62, 37
2, 25384, Note_on_c, 0, 59, 36
2, 25384, Note_on_c, 0, 53, 36
2, 25390, Note_on_c, 0, 73, 58
2, 25392, Control_c, 0, 64, 0
2, 25396, Control_c, 0, 64, 0
2, 25404, Note_off_c, 0, 71, 64
2, 25406, Control_c, 0, 64, 127
2, 25410, Control_c, 0, 64, 127
2, 25434, Note_off_c, 0, 59, 64
2, 25435, Note_off_c, 0, 53, 64
2, 25436, Note_off_c, 0, 62, 64
2, 25455, Note_on_c, 0, 74, 57
2, 25472, Note_off_c, 0, 73, 64
2, 25531, Control_c, 0, 64, 0
2, 25534, Note_on_c, 0, 59, 39
2, 25535, Note_on_c, 0, 76, 68
2, 25535, Note_on_c, 0, 62, 41
2, 25535, Control_c, 0, 64, 0
2, 25536, Note_on_c, 0, 52, 41
2, 25556, Control_c, 0, 64, 127
2, 25560, Control_c, 0, 64, 127
2, 25567, Note_off_c, 0, 74, 64
2, 25578, Note_off_c, 0, 52, 64
2, 25579, Note_off_c, 0, 62, 64
2, 25583, Note_off_c, 0, 59, 64
2, 25606, Note_on_c, 0, 68, 67
2, 25623, Note_off_c, 0, 76, 64
2, 25668, Control_c, 0, 64, 0
2, 25672, Control_c, 0, 64, 0
2, 25680, Note_on_c, 0, 61, 48
2, 25684, Note_on_c, 0, 57, 41
2, 25687, Note_on_c, 0, 69, 62
2, 25688, Control_c, 0, 64, 127
2, 25692, Control_c, 0, 64, 127
2, 25702, Note_off_c, 0, 68, 64
2, 25750, Note_off_c, 0, 61, 64
2, 25754, Note_off_c, 0, 57, 64
2, 25820, Note_on_c, 0, 57, 40
2, 25824, Note_on_c, 0, 45, 41
2, 25826, Note_on_c, 0, 71, 66
2, 25838, Note_off_c, 0, 69, 64
2, 25889, Note_on_c, 0, 73, 70
2, 25904, Note_off_c, 0, 71, 64
2, 25964, Note_on_c, 0, 71, 55
2, 25968, Note_off_c, 0, 73, 64
2, 25986, Control_c, 0, 64, 0
2, 25990, Control_c, 0, 64, 0
2, 25996, Note_on_c, 0, 73, 61
2, 26002, Note_off_c, 0, 57, 64
2, 26006, Note_off_c, 0, 45, 64
2, 26007, Note_off_c, 0, 71, 64
2, 26008, Note_on_c, 0, 52, 24
2, 26008, Note_on_c, 0, 40, 49
2, 26018, Control_c, 0, 64, 127
2, 26022, Control_c, 0, 64, 127
2, 26026, Note_on_c, 0, 71, 78
2, 26063, Note_off_c, 0, 73, 64
2, 26120, Note_on_c, 0, 68, 74
2, 26124, Note_off_c, 0, 40, 64
2, 26130, Note_off_c, 0, 71, 64
2, 26134, Note_off_c, 0, 52, 64
2, 26134, Control_c, 0, 64, 0
2, 26138, Control_c, 0, 64, 0
2, 26153, Note_on_c, 0, 64, 62
2, 26156, Note_on_c, 0, 62, 42
2, 26156, Note_on_c, 0, 59, 41
2, 26156, Note_on_c, 0, 52, 36
2, 26172, Note_off_c, 0, 68, 64
2, 26178, Control_c, 0, 64, 127
2, 26182, Control_c, 0, 64, 127
2, 26193, Note_off_c, 0, 62, 64
2, 26194, Note_off_c, 0, 59, 64
2, 26199, Note_off_c, 0, 52, 64
2, 26286, Control_c, 0, 64, 0
2, 26290, Control_c, 0, 64, 0
2, 26296, Note_on_c, 0, 66, 71
2, 26296, Note_on_c, 0, 62, 36
2, 26297, Note_on_c, 0, 59, 33
2, 26303, Note_on_c, 0, 52, 36
2, 26311, Note_off_c, 0, 64, 64
2, 26320, Control_c, 0, 64, 127
2, 26324, Control_c, 0, 64, 127
2, 26342, Note_off_c, 0, 59, 64
2, 26347, Note_off_c, 0, 52, 64
2, 26350, Note_on_c, 0, 68, 74
2, 26353, Note_off_c, 0, 62, 64
2, 26372, Note_off_c, 0, 66, 64
2, 26423, Note_on_c, 0, 69, 75
2, 26428, Note_on_c, 0, 61, 41
2, 26430, Note_off_c, 0, 68, 64
2, 26432, Note_on_c, 0, 57, 32
2, 26435, Control_c, 0, 64, 0
2, 26439, Control_c, 0, 64, 0
2, 26461, Control_c, 0, 64, 127
2, 26465, Control_c, 0, 64, 127
2, 26484, Note_off_c, 0, 57, 64
2, 26487, Note_on_c, 0, 73, 71
2, 26493, Note_off_c, 0, 61, 64
2, 26516, Note_off_c, 0, 69, 64
2, 26570, Note_on_c, 0, 76, 74
2, 26572, Note_on_c, 0, 64, 23
2, 26572, Note_on_c, 0, 59, 36
2, 26574, Note_on_c, 0, 56, 42
2, 26575, Control_c, 0, 64, 0
2, 26579, Control_c, 0, 64, 0
2, 26584, Note_off_c, 0, 73, 64
2, 26595, Control_c, 0, 64, 127
2, 26599, Control_c, 0, 64, 127
2, 26630, Note_off_c, 0, 56, 64
2, 26635, Note_off_c, 0, 59, 64
2, 26635, Note_off_c, 0, 64, 64
2, 26708, Control_c, 0, 64, 0
2, 26710, Note_on_c, 0, 59, 39
2, 26712, Control_c, 0, 64, 0
2, 26719, Note_on_c, 0, 64, 42
2, 26719, Note_on_c, 0, 55, 41
2, 26725, Control_c, 0, 64, 127
2, 26729, Control_c, 0, 64, 127
2, 26764, Note_off_c, 0, 59, 64
2, 26767, Note_off_c, 0, 55, 64
2, 26768, Note_off_c, 0, 64, 64
2, 26779, Note_on_c, 0, 77, 61
2, 26797, Note_off_c, 0, 76, 64
2, 26837, Control_c, 0, 64, 0
2, 26841, Control_c, 0, 64, 0
2, 26850, Note_on_c, 0, 61, 42
2, 26855, Note_on_c, 0, 78, 80
2, 26855, Note_on_c, 0, 64, 33
2, 26859, Note_on_c, 0, 54, 46
2, 26869, Note_off_c, 0, 77, 64
2, 26870, Control_c, 0, 64, 127
2, 26874, Control_c, 0, 64, 127
2, 26912, Note_off_c, 0, 64, 64
2, 26918, Note_off_c, 0, 54, 64
2, 26920, Note_off_c, 0, 61, 64
2, 26923, Note_on_c, 0, 70, 67
2, 26943, Note_off_c, 0, 78, 64
2, 26996, Control_c, 0, 64, 0
2, 27000, Note_on_c, 0, 71, 67
2, 27000, Note_on_c, 0, 62, 39
2, 27000, Note_on_c, 0, 59, 41
2, 27000, Control_c, 0, 64, 0
2, 27013, Control_c, 0, 64, 127
2, 27015, Note_off_c, 0, 70, 64
2, 27017, Control_c, 0, 64, 127
2, 27044, Note_off_c, 0, 59, 64
2, 27051, Note_off_c, 0, 62, 64
2, 27120, Control_c, 0, 64, 0
2, 27124, Control_c, 0, 64, 0
2, 27144, Note_on_c, 0, 59, 29
2, 27148, Note_on_c, 0, 52, 36
2, 27152, Note_on_c, 0, 73, 58
2, 27152, Note_on_c, 0, 62, 39
2, 27157, Control_c, 0, 64, 127
2, 27161, Control_c, 0, 64, 127
2, 27164, Note_off_c, 0, 71, 64
2, 27203, Note_off_c, 0, 62, 64
2, 27211, Note_off_c, 0, 59, 64
2, 27214, Note_off_c, 0, 52, 64
2, 27219, Note_on_c, 0, 68, 71
2, 27224, Note_off_c, 0, 73, 64
2, 27292, Note_on_c, 0, 69, 74
2, 27292, Note_on_c, 0, 61, 36
2, 27296, Note_on_c, 0, 57, 29
2, 27310, Note_off_c, 0, 68, 64
2, 27355, Note_off_c, 0, 61, 64
2, 27356, Note_off_c, 0, 57, 64
2, 27429, Control_c, 0, 64, 0
2, 27432, Note_on_c, 0, 81, 66
2, 27432, Note_on_c, 0, 57, 42
2, 27432, Note_on_c, 0, 45, 46
2, 27433, Control_c, 0, 64, 0
2, 27446, Control_c, 0, 64, 127
2, 27450, Control_c, 0, 64, 127
2, 27463, Note_off_c, 0, 69, 64
2, 27498, Note_off_c, 0, 45, 64
2, 27500, Note_off_c, 0, 57, 64
2, 27572, Note_on_c, 0, 45, 55
2, 27576, Note_on_c, 0, 33, 58
2, 27635, Note_off_c, 0, 81, 64
2, 27650, Note_on_c, 0, 70, 50
2, 27709, Note_off_c, 0, 45, 64
2, 27713, Note_off_c, 0, 33, 64
2, 27713, Control_c, 0, 64, 0
2, 27717, Control_c, 0, 64, 0
2, 27721, Note_on_c, 0, 71, 54
2, 27727, Note_on_c, 0, 40, 41
2, 27734, Note_on_c, 0, 52, 49
2, 27739, Note_off_c, 0, 70, 64
2, 27752, Control_c, 0, 64, 127
2, 27756, Control_c, 0, 64, 127
2, 27824, Note_on_c, 0, 68, 50
2, 27845, Control_c, 0, 64, 0
2, 27849, Control_c, 0, 64, 0
2, 27850, Note_off_c, 0, 71, 64
2, 27855, Note_off_c, 0, 52, 64
2, 27868, Note_on_c, 0, 64, 50
2, 27873, Note_off_c, 0, 40, 64
2, 27874, Note_on_c, 0, 62, 41
2, 27874, Note_on_c, 0, 59, 42
2, 27874, Note_on_c, 0, 52, 42
2, 27888, Note_off_c, 0, 68, 64
2, 27888, Control_c, 0, 64, 127
2, 27892, Control_c, 0, 64, 127
2, 27908, Note_off_c, 0, 59, 64
2, 27912, Note_off_c, 0, 62, 64
2, 27913, Note_off_c, 0, 52, 64
2, 27996, Control_c, 0, 64, 0
2, 28000, Control_c, 0, 64, 0
2, 28008, Note_on_c, 0, 62, 37
2, 28013, Note_on_c, 0, 66, 55
2, 28013, Note_on_c, 0, 59, 19
2, 28016, Note_on_c, 0, 52, 39
2, 28017, Control_c, 0, 64, 127
2, 28021, Control_c, 0, 64, 127
2, 28026, Note_off_c, 0, 64, 64
2, 28058, Note_off_c, 0, 52, 64
2, 28060, Note_off_c, 0, 62, 64
2, 28062, Note_off_c, 0, 59, 64
2, 28072, Note_on_c, 0, 68, 62
2, 28089, Note_off_c, 0, 66, 64
2, 28132, Note_on_c, 0, 61, 33
2, 28134, Control_c, 0, 64, 0
2, 28136, Note_on_c, 0, 57, 27
2, 28138, Control_c, 0, 64, 0
2, 28143, Note_on_c, 0, 69, 62
2, 28151, Note_off_c, 0, 68, 64
2, 28159, Control_c, 0, 64, 127
2, 28163, Control_c, 0, 64, 127
2, 28197, Note_off_c, 0, 57, 64
2, 28204, Note_off_c, 0, 61, 64
2, 28208, Note_on_c, 0, 73, 62
2, 28240, Note_off_c, 0, 69, 64
2, 28276, Control_c, 0, 64, 0
2, 28280, Control_c, 0, 64, 0
2, 28288, Note_on_c, 0, 76, 61
2, 28288, Note_on_c, 0, 59, 36
2, 28288, Note_on_c, 0, 56, 44
2, 28295, Note_on_c, 0, 64, 33
2, 28299, Control_c, 0, 64, 127
2, 28302, Note_off_c, 0, 73, 64
2, 28303, Control_c, 0, 64, 127
2, 28340, Note_off_c, 0, 56, 64
2, 28344, Note_off_c, 0, 64, 64
2, 28348, Note_off_c, 0, 59, 64
2, 28420, Note_on_c, 0, 64, 40
2, 28420, Control_c, 0, 64, 0
2, 28424, Note_on_c, 0, 59, 36
2, 28424, Note_on_c, 0, 55, 41
2, 28424, Control_c, 0, 64, 0
2, 28439, Control_c, 0, 64, 127
2, 28443, Control_c, 0, 64, 127
2, 28463, Note_off_c, 0, 55, 64
2, 28469, Note_off_c, 0, 59, 64
2, 28479, Note_off_c, 0, 64, 64
2, 28482, Note_on_c, 0, 77, 55
2, 28502, Note_off_c, 0, 76, 64
2, 28565, Note_on_c, 0, 78, 67
2, 28565, Note_on_c, 0, 54, 46
2, 28567, Note_on_c, 0, 64, 29
2, 28568, Note_on_c, 0, 61, 36
2, 28584, Note_off_c, 0, 77, 64
2, 28617, Note_off_c, 0, 54, 64
2, 28624, Note_off_c, 0, 61, 64
2, 28630, Note_on_c, 0, 70, 63
2, 28634, Note_off_c, 0, 64, 64
2, 28654, Note_off_c, 0, 78, 64
2, 28689, Control_c, 0, 64, 0
2, 28693, Control_c, 0, 64, 0
2, 28698, Note_on_c, 0, 63, 18
2, 28704, Note_on_c, 0, 57, 57
2, 28704, Note_on_c, 0, 54, 36
2, 28705, Note_on_c, 0, 71, 54
2, 28718, Control_c, 0, 64, 127
2, 28722, Note_off_c, 0, 70, 64
2, 28722, Control_c, 0, 64, 127
2, 28766, Note_off_c, 0, 54, 64
2, 28770, Note_off_c, 0, 57, 64
2, 28774, Note_off_c, 0, 63, 64
2, 28836, Note_on_c, 0, 57, 19
2, 28836, Note_on_c, 0, 53, 36
2, 28843, Note_on_c, 0, 73, 55
2, 28843, Note_on_c, 0, 62, 35
2, 28852, Control_c, 0, 64, 0
2, 28856, Control_c, 0, 64, 0
2, 28860, Note_off_c, 0, 71, 64
2, 28865, Control_c, 0, 64, 127
2, 28869, Control_c, 0, 64, 127
2, 28884, Note_off_c, 0, 57, 64
2, 28889, Note_off_c, 0, 53, 64
2, 28898, Note_off_c, 0, 62, 64
2, 28911, Note_on_c, 0, 74, 55
2, 28921, Note_off_c, 0, 73, 64
2, 28981, Note_on_c, 0, 62, 42
2, 28981, Note_on_c, 0, 59, 36
2, 28984, Note_on_c, 0, 52, 41
2, 28986, Control_c, 0, 64, 0
2, 28990, Note_on_c, 0, 76, 57
2, 28990, Control_c, 0, 64, 0
2, 29000, Control_c, 0, 64, 127
2, 29004, Control_c, 0, 64, 127
2, 29010, Note_off_c, 0, 74, 64
2, 29028, Note_off_c, 0, 52, 64
2, 29028, Note_off_c, 0, 59, 64
2, 29032, Note_off_c, 0, 62, 64
2, 29055, Note_on_c, 0, 68, 62
2, 29062, Note_off_c, 0, 76, 64
2, 29114, Control_c, 0, 64, 0
2, 29118, Control_c, 0, 64, 0
2, 29120, Note_on_c, 0, 55, 23
2, 29124, Note_on_c, 0, 52, 22
2, 29125, Note_on_c, 0, 61, 45
2, 29131, Note_on_c, 0, 69, 55
2, 29142, Note_off_c, 0, 68, 64
2, 29145, Control_c, 0, 64, 127
2, 29149, Control_c, 0, 64, 127
2, 29168, Note_off_c, 0, 55, 64
2, 29171, Note_off_c, 0, 52, 64
2, 29178, Note_off_c, 0, 61, 64
2, 29268, Note_on_c, 0, 71, 52
2, 29268, Note_on_c, 0, 55, 57
2, 29268, Note_on_c, 0, 51, 49
2, 29275, Note_on_c, 0, 61, 14
2, 29284, Note_off_c, 0, 69, 64
2, 29305, Note_off_c, 0, 51, 64
2, 29305, Note_off_c, 0, 55, 64
2, 29316, Note_off_c, 0, 61, 64
2, 29330, Note_on_c, 0, 73, 50
2, 29344, Note_off_c, 0, 71, 64
2, 29360, Note_on_c, 0, 71, 55
2, 29380, Note_off_c, 0, 73, 64
2, 29392, Note_on_c, 0, 73, 56
2, 29407, Control_c, 0, 64, 0
2, 29411, Control_c, 0, 64, 0
2, 29416, Note_on_c, 0, 54, 42
2, 29416, Note_on_c, 0, 50, 40
2, 29419, Note_on_c, 0, 62, 36
2, 29420, Note_off_c, 0, 71, 64
2, 29428, Note_on_c, 0, 71, 71
2, 29429, Control_c, 0, 64, 127
2, 29433, Control_c, 0, 64, 127
2, 29451, Note_off_c, 0, 50, 64
2, 29455, Note_off_c, 0, 73, 64
2, 29458, Note_off_c, 0, 54, 64
2, 29467, Note_off_c, 0, 62, 64
2, 29489, Note_off_c, 0, 71, 64
2, 29520, Note_on_c, 0, 68, 64
2, 29548, Note_on_c, 0, 64, 72
2, 29552, Note_on_c, 0, 59, 28
2, 29552, Note_on_c, 0, 50, 29
2, 29553, Note_on_c, 0, 56, 27
2, 29556, Control_c, 0, 64, 0
2, 29560, Control_c, 0, 64, 0
2, 29575, Control_c, 0, 64, 127
2, 29579, Control_c, 0, 64, 127
2, 29584, Note_off_c, 0, 68, 64
2, 29610, Note_off_c, 0, 50, 64
2, 29610, Note_off_c, 0, 59, 64
2, 29611, Note_off_c, 0, 56, 64
2, 29688, Note_on_c, 0, 59, 42
2, 29692, Note_off_c, 0, 64, 64
2, 29692, Note_on_c, 0, 66, 59
2, 29692, Note_on_c, 0, 50, 36
2, 29698, Note_on_c, 0, 52, 19
2, 29744, Note_off_c, 0, 59, 64
2, 29749, Note_off_c, 0, 50, 64
2, 29752, Note_off_c, 0, 52, 64
2, 29753, Note_on_c, 0, 68, 63
2, 29769, Note_off_c, 0, 66, 64
2, 29825, Note_on_c, 0, 69, 66
2, 29834, Note_on_c, 0, 61, 46
2, 29835, Note_off_c, 0, 68, 64
2, 29836, Note_on_c, 0, 52, 29
2, 29836, Note_on_c, 0, 49, 35
2, 29887, Note_on_c, 0, 73, 62
2, 29896, Note_off_c, 0, 49, 64
2, 29897, Note_off_c, 0, 52, 64
2, 29897, Note_off_c, 0, 69, 64
2, 29902, Note_off_c, 0, 61, 64
2, 29972, Note_on_c, 0, 57, 49
2, 29972, Note_on_c, 0, 49, 42
2, 29974, Note_on_c, 0, 76, 58
2, 29976, Note_on_c, 0, 52, 19
2, 29982, Note_off_c, 0, 73, 64
2, 30031, Note_off_c, 0, 49, 64
2, 30031, Note_off_c, 0, 57, 64
2, 30035, Note_off_c, 0, 52, 64
2, 30116, Note_on_c, 0, 57, 39
2, 30120, Note_on_c, 0, 52, 40
2, 30122, Note_on_c, 0, 48, 40
2, 30131, Control_c, 0, 64, 0
2, 30135, Control_c, 0, 64, 0
2, 30142, Control_c, 0, 64, 127
2, 30146, Control_c, 0, 64, 127
2, 30166, Note_off_c, 0, 57, 64
2, 30167, Note_off_c, 0, 52, 64
2, 30178, Note_off_c, 0, 48, 64
2, 30178, Note_on_c, 0, 77, 58
2, 30204, Note_off_c, 0, 76, 64
2, 30260, Note_on_c, 0, 78, 67
2, 30261, Note_on_c, 0, 51, 29
2, 30266, Note_on_c, 0, 57, 37
2, 30268, Note_on_c, 0, 47, 36
2, 30273, Control_c, 0, 64, 0
2, 30277, Control_c, 0, 64, 0
2, 30280, Note_off_c, 0, 77, 64
2, 30286, Control_c, 0, 64, 127
2, 30290, Control_c, 0, 64, 127
2, 30328, Note_on_c, 0, 70, 52
2, 30348, Note_off_c, 0, 78, 64
2, 30351, Note_off_c, 0, 57, 64
2, 30361, Note_off_c, 0, 47, 64
2, 30367, Note_off_c, 0, 51, 64
2, 30402, Note_on_c, 0, 40, 42
2, 30405, Note_on_c, 0, 71, 57
2, 30407, Control_c, 0, 64, 0
2, 30411, Control_c, 0, 64, 0
2, 30420, Note_off_c, 0, 70, 64
2, 30430, Control_c, 0, 64, 127
2, 30434, Control_c, 0, 64, 127
2, 30551, Note_on_c, 0, 62, 36
2, 30551, Note_on_c, 0, 52, 40
2, 30557, Control_c, 0, 64, 0
2, 30557, Note_on_c, 0, 59, 41
2, 30558, Note_on_c, 0, 73, 55
2, 30560, Note_off_c, 0, 40, 64
2, 30561, Control_c, 0, 64, 0
2, 30570, Note_off_c, 0, 71, 64
2, 30573, Control_c, 0, 64, 127
2, 30577, Control_c, 0, 64, 127
2, 30592, Note_off_c, 0, 62, 64
2, 30595, Note_off_c, 0, 59, 64
2, 30605, Note_off_c, 0, 52, 64
2, 30616, Note_on_c, 0, 68, 52
2, 30633, Note_off_c, 0, 73, 64
2, 30688, Note_on_c, 0, 57, 42
2, 30689, Control_c, 0, 64, 0
2, 30692, Note_on_c, 0, 61, 45
2, 30693, Control_c, 0, 64, 0
2, 30700, Note_on_c, 0, 69, 63
2, 30716, Note_off_c, 0, 68, 64
2, 30717, Control_c, 0, 64, 127
2, 30721, Control_c, 0, 64, 127
2, 30743, Note_off_c, 0, 61, 64
2, 30746, Note_off_c, 0, 57, 64
2, 30812, Control_c, 0, 64, 0
2, 30816, Control_c, 0, 64, 0
2, 30836, Note_on_c, 0, 81, 62
2, 30838, Control_c, 0, 64, 127
2, 30842, Control_c, 0, 64, 127
2, 30848, Note_on_c, 0, 64, 40
2, 30848, Note_on_c, 0, 57, 55
2, 30907, Note_off_c, 0, 81, 64
2, 30910, Note_off_c, 0, 57, 64
2, 30910, Note_off_c, 0, 64, 64
2, 30963, Note_off_c, 0, 69, 64
2, 30980, Note_on_c, 0, 57, 66
2, 30984, Note_on_c, 0, 64, 63
2, 31036, Note_off_c, 0, 64, 64
2, 31048, Note_off_c, 0, 57, 64
2, 31119, Control_c, 0, 64, 0
2, 31123, Control_c, 0, 64, 0
2, 31134, Note_on_c, 0, 54, 84
2, 31141, Note_on_c, 0, 57, 50
2, 31146, Note_on_c, 0, 64, 49
2, 31153, Control_c, 0, 64, 127
2, 31157, Control_c, 0, 64, 127
2, 31181, Note_off_c, 0, 64, 64
2, 31197, Note_off_c, 0, 57, 64
2, 31202, Note_off_c, 0, 54, 64
2, 31204, Note_on_c, 0, 52, 61
2, 31246, Control_c, 0, 64, 0
2, 31250, Control_c, 0, 64, 0
2, 31264, Note_on_c, 0, 50, 66
2, 31271, Note_off_c, 0, 52, 64
2, 31271, Note_on_c, 0, 57, 44
2, 31272, Note_on_c, 0, 64, 52
2, 31308, Note_off_c, 0, 64, 64
2, 31308, Note_off_c, 0, 50, 64
2, 31315, Note_off_c, 0, 57, 64
2, 31405, Note_on_c, 0, 49, 83
2, 31413, Note_on_c, 0, 64, 63
2, 31413, Note_on_c, 0, 57, 61
2, 31439, Note_off_c, 0, 57, 64
2, 31444, Note_off_c, 0, 49, 64
2, 31446, Note_off_c, 0, 64, 64
2, 31507, Note_on_c, 0, 49, 70
2, 31528, Note_on_c, 0, 47, 70
2, 31546, Note_off_c, 0, 49, 64
2, 31557, Note_on_c, 0, 57, 48
2, 31559, Note_on_c, 0, 64, 48
2, 31562, Note_on_c, 0, 45, 63
2, 31576, Note_off_c, 0, 47, 64
2, 31597, Note_off_c, 0, 64, 64
2, 31597, Note_off_c, 0, 57, 64
2, 31681, Control_c, 0, 64, 127
2, 31685, Control_c, 0, 64, 127
2, 31690, Note_on_c, 0, 57, 42
2, 31700, Note_on_c, 0, 64, 28
2, 31746, Note_off_c, 0, 64, 64
2, 31747, Note_off_c, 0, 57, 64
2, 31801, Note_off_c, 0, 45, 64
2, 31831, Note_on_c, 0, 64, 63
2, 31834, Note_on_c, 0, 57, 66
2, 31882, Note_off_c, 0, 64, 64
2, 31884, Note_off_c, 0, 57, 64
2, 31953, Note_on_c, 0, 54, 74
2, 31960, Note_on_c, 0, 57, 53
2, 31963, Note_on_c, 0, 64, 46
2, 31973, Control_c, 0, 64, 0
2, 31977, Control_c, 0, 64, 0
2, 32012, Note_off_c, 0, 64, 64
2, 32020, Note_off_c, 0, 57, 64
2, 32058, Note_on_c, 0, 52, 63
2, 32077, Note_off_c, 0, 54, 64
2, 32087, Note_on_c, 0, 64, 46
2, 32087, Note_on_c, 0, 57, 50
2, 32100, Note_on_c, 0, 50, 65
2, 32109, Note_off_c, 0, 52, 64
2, 32139, Note_off_c, 0, 64, 64
2, 32140, Note_off_c, 0, 57, 64
2, 32142, Note_off_c, 0, 50, 64
2, 32223, Note_on_c, 0, 57, 65
2, 32223, Note_on_c, 0, 49, 83
2, 32227, Note_on_c, 0, 64, 50
2, 32260, Note_off_c, 0, 49, 64
2, 32267, Note_off_c, 0, 64, 64
2, 32267, Note_off_c, 0, 57, 64
2, 32321, Note_on_c, 0, 49, 66
2, 32345, Note_on_c, 0, 47, 68
2, 32366, Note_on_c, 0, 57, 46
2, 32373, Note_off_c, 0, 49, 64
2, 32374, Note_on_c, 0, 45, 61
2, 32378, Note_on_c, 0, 64, 32
2, 32394, Note_off_c, 0, 47, 64
2, 32421, Control_c, 0, 64, 127
2, 32425, Control_c, 0, 64, 127
2, 32430, Note_off_c, 0, 64, 64
2, 32436, Note_off_c, 0, 57, 64
2, 32448, Control_c, 0, 64, 0
2, 32452, Control_c, 0, 64, 0
2, 32484, Control_c, 0, 64, 127
2, 32488, Control_c, 0, 64, 127
2, 32506, Note_on_c, 0, 64, 54
2, 32510, Note_on_c, 0, 57, 57
2, 32570, Note_off_c, 0, 64, 64
2, 32574, Note_off_c, 0, 57, 64
2, 32639, Note_on_c, 0, 64, 79
2, 32639, Note_on_c, 0, 57, 80
2, 32707, Note_off_c, 0, 57, 64
2, 32707, Note_off_c, 0, 64, 64
2, 32755, Note_off_c, 0, 45, 64
2, 32788, Note_on_c, 0, 59, 83
2, 32790, Note_on_c, 0, 56, 101
2, 32795, Note_on_c, 0, 40, 66
2, 32827, Note_off_c, 0, 59, 64
2, 32845, Note_off_c, 0, 56, 64
2, 32884, Note_on_c, 0, 64, 80
2, 32884, Note_on_c, 0, 59, 67
2, 32910, Note_off_c, 0, 64, 64
2, 32916, Note_off_c, 0, 59, 64
2, 32920, Note_on_c, 0, 64, 74
2, 32925, Note_on_c, 0, 68, 102
2, 32928, Note_on_c, 0, 59, 63
2, 32928, Note_on_c, 0, 52, 71
2, 32959, Note_off_c, 0, 59, 64
2, 32970, Note_off_c, 0, 52, 64
2, 32988, Note_off_c, 0, 68, 64
2, 32989, Note_off_c, 0, 64, 64
2, 33061, Note_on_c, 0, 71, 117
2, 33063, Note_on_c, 0, 59, 58
2, 33064, Note_on_c, 0, 68, 92
2, 33065, Note_on_c, 0, 52, 53
2, 33104, Note_off_c, 0, 59, 64
2, 33117, Note_off_c, 0, 52, 64
2, 33117, Note_off_c, 0, 71, 64
2, 33129, Note_off_c, 0, 68, 64
2, 33188, Control_c, 0, 64, 0
2, 33188, Note_on_c, 0, 76, 100
2, 33189, Note_on_c, 0, 71, 96
2, 33192, Control_c, 0, 64, 0
2, 33199, Note_on_c, 0, 59, 61
2, 33203, Note_on_c, 0, 52, 74
2, 33211, Control_c, 0, 64, 127
2, 33215, Control_c, 0, 64, 127
2, 33238, Note_off_c, 0, 71, 64
2, 33238, Note_off_c, 0, 76, 64
2, 33242, Note_off_c, 0, 59, 64
2, 33251, Note_off_c, 0, 52, 64
2, 33296, Note_on_c, 0, 68, 72
2, 33296, Note_on_c, 0, 64, 74
2, 33309, Note_off_c, 0, 40, 64
2, 33319, Control_c, 0, 64, 0
2, 33322, Note_off_c, 0, 64, 64
2, 33322, Note_off_c, 0, 68, 64
2, 33323, Control_c, 0, 64, 0
2, 33336, Note_on_c, 0, 68, 76
2, 33336, Note_on_c, 0, 59, 63
2, 33336, Note_on_c, 0, 52, 65
2, 33339, Note_on_c, 0, 71, 119
2, 33348, Control_c, 0, 64, 127
2, 33352, Control_c, 0, 64, 127
2, 33395, Note_off_c, 0, 52, 64
2, 33396, Note_off_c, 0, 59, 64
2, 33405, Note_off_c, 0, 68, 64
2, 33409, Note_off_c, 0, 71, 64
2, 33462, Note_on_c, 0, 76, 111
2, 33464, Note_on_c, 0, 71, 105
2, 33464, Note_on_c, 0, 59, 63
2, 33468, Note_on_c, 0, 52, 52
2, 33524, Note_off_c, 0, 52, 64
2, 33524, Note_off_c, 0, 59, 64
2, 33539, Note_off_c, 0, 76, 64
2, 33541, Note_off_c, 0, 71, 64
2, 33604, Note_on_c, 0, 63, 44
2, 33606, Note_on_c, 0, 75, 82
2, 33606, Note_on_c, 0, 52, 37
2, 33608, Note_on_c, 0, 78, 92
2, 33608, Note_on_c, 0, 59, 40
2, 33608, Note_on_c, 0, 57, 41
2, 33637, Note_on_c, 0, 80, 74
2, 33641, Note_off_c, 0, 59, 64
2, 33643, Note_off_c, 0, 63, 64
2, 33654, Note_off_c, 0, 78, 64
2, 33655, Note_off_c, 0, 57, 64
2, 33661, Note_off_c, 0, 52, 64
2, 33681, Note_on_c, 0, 78, 82
2, 33691, Note_off_c, 0, 80, 64
2, 33742, Note_on_c, 0, 52, 42
2, 33748, Note_on_c, 0, 59, 41
2, 33749, Note_on_c, 0, 63, 44
2, 33751, Note_on_c, 0, 57, 42
2, 33755, Note_on_c, 0, 77, 92
2, 33755, Note_on_c, 0, 74, 93
2, 33763, Note_off_c, 0, 75, 64
2, 33767, Note_off_c, 0, 78, 64
2, 33785, Note_off_c, 0, 59, 64
2, 33788, Note_off_c, 0, 63, 64
2, 33793, Note_off_c, 0, 57, 64
2, 33794, Note_off_c, 0, 52, 64
2, 33832, Note_on_c, 0, 75, 98
2, 33834, Note_on_c, 0, 78, 92
2, 33840, Note_off_c, 0, 74, 64
2, 33840, Note_off_c, 0, 77, 64
2, 33892, Note_on_c, 0, 76, 100
2, 33892, Note_on_c, 0, 63, 49
2, 33892, Note_on_c, 0, 59, 70
2, 33892, Note_on_c, 0, 52, 46
2, 33896, Note_on_c, 0, 80, 106
2, 33896, Note_on_c, 0, 57, 62
2, 33915, Note_off_c, 0, 59, 64
2, 33916, Note_off_c, 0, 57, 64
2, 33920, Note_off_c, 0, 75, 64
2, 33922, Note_off_c, 0, 78, 64
2, 33932, Note_off_c, 0, 52, 64
2, 33967, Note_off_c, 0, 63, 64
2, 33968, Note_on_c, 0, 78, 80
2, 33970, Note_on_c, 0, 81, 106
2, 33973, Note_off_c, 0, 76, 64
2, 33979, Note_off_c, 0, 80, 64
2, 34021, Note_off_c, 0, 81, 64
2, 34033, Control_c, 0, 64, 0
2, 34036, Note_on_c, 0, 81, 102
2, 34037, Control_c, 0, 64, 0
2, 34042, Note_on_c, 0, 85, 108
2, 34047, Note_on_c, 0, 59, 57
2, 34047, Note_on_c, 0, 56, 44
2, 34048, Note_off_c, 0, 78, 64
2, 34048, Note_on_c, 0, 64, 66
2, 34048, Note_on_c, 0, 52, 52
2, 34062, Control_c, 0, 64, 127
2, 34066, Control_c, 0, 64, 127
2, 34079, Note_off_c, 0, 59, 64
2, 34082, Note_off_c, 0, 64, 64
2, 34082, Note_off_c, 0, 56, 64
2, 34092, Note_off_c, 0, 52, 64
2, 34144, Note_on_c, 0, 83, 95
2, 34144, Note_on_c, 0, 80, 67
2, 34147, Note_off_c, 0, 81, 64
2, 34153, Note_off_c, 0, 85, 64
2, 34157, Control_c, 0, 64, 0
2, 34161, Control_c, 0, 64, 0
2, 34176, Note_off_c, 0, 80, 64
2, 34180, Note_on_c, 0, 80, 117
2, 34180, Note_on_c, 0, 64, 71
2, 34180, Note_on_c, 0, 59, 70
2, 34181, Note_on_c, 0, 56, 72
2, 34184, Note_on_c, 0, 76, 85
2, 34190, Note_on_c, 0, 52, 72
2, 34196, Note_off_c, 0, 59, 64
2, 34199, Note_off_c, 0, 83, 64
2, 34200, Control_c, 0, 64, 127
2, 34204, Control_c, 0, 64, 127
2, 34210, Note_off_c, 0, 64, 64
2, 34214, Note_off_c, 0, 56, 64
2, 34217, Note_off_c, 0, 52, 64
2, 34312, Note_on_c, 0, 56, 40
2, 34312, Note_on_c, 0, 52, 49
2, 34313, Note_on_c, 0, 64, 76
2, 34316, Note_on_c, 0, 59, 75
2, 34332, Note_off_c, 0, 59, 64
2, 34354, Note_off_c, 0, 56, 64
2, 34362, Note_off_c, 0, 64, 64
2, 34364, Note_off_c, 0, 52, 64
2, 34428, Control_c, 0, 64, 0
2, 34432, Control_c, 0, 64, 0
2, 34446, Note_on_c, 0, 78, 86
2, 34448, Note_on_c, 0, 75, 63
2, 34452, Control_c, 0, 64, 127
2, 34454, Note_off_c, 0, 80, 64
2, 34454, Note_on_c, 0, 52, 27
2, 34456, Control_c, 0, 64, 127
2, 34458, Note_off_c, 0, 76, 64
2, 34460, Note_on_c, 0, 59, 40
2, 34460, Note_on_c, 0, 57, 32
2, 34464, Note_on_c, 0, 63, 33
2, 34476, Note_off_c, 0, 59, 64
2, 34482, Note_on_c, 0, 80, 80
2, 34489, Note_off_c, 0, 57, 64
2, 34497, Note_off_c, 0, 78, 64
2, 34500, Note_off_c, 0, 63, 64
2, 34501, Note_off_c, 0, 52, 64
2, 34522, Note_on_c, 0, 78, 80
2, 34535, Note_off_c, 0, 80, 64
2, 34583, Note_on_c, 0, 63, 44
2, 34588, Note_on_c, 0, 77, 90
2, 34588, Note_on_c, 0, 74, 93
2, 34591, Note_on_c, 0, 59, 42
2, 34591, Note_on_c, 0, 57, 41
2, 34592, Note_on_c, 0, 52, 54
2, 34601, Note_off_c, 0, 78, 64
2, 34603, Note_off_c, 0, 75, 64
2, 34622, Note_off_c, 0, 59, 64
2, 34623, Note_off_c, 0, 52, 64
2, 34626, Note_off_c, 0, 63, 64
2, 34627, Note_off_c, 0, 57, 64
2, 34653, Note_on_c, 0, 75, 92
2, 34659, Note_on_c, 0, 78, 105
2, 34663, Note_off_c, 0, 74, 64
2, 34666, Note_off_c, 0, 77, 64
2, 34725, Note_on_c, 0, 80, 105
2, 34730, Note_on_c, 0, 63, 48
2, 34733, Note_on_c, 0, 76, 92
2, 34740, Note_on_c, 0, 57, 44
2, 34740, Note_on_c, 0, 52, 55
2, 34746, Note_off_c, 0, 75, 64
2, 34750, Note_on_c, 0, 59, 36
2, 34752, Note_off_c, 0, 78, 64
2, 34756, Note_off_c, 0, 52, 64
2, 34769, Note_off_c, 0, 59, 64
2, 34773, Note_off_c, 0, 57, 64
2, 34792, Note_on_c, 0, 78, 96
2, 34794, Note_off_c, 0, 63, 64
2, 34794, Note_on_c, 0, 81, 90
2, 34798, Note_off_c, 0, 80, 64
2, 34806, Note_off_c, 0, 76, 64
2, 34850, Note_off_c, 0, 81, 64
2, 34851, Control_c, 0, 64, 0
2, 34855, Control_c, 0, 64, 0
2, 34856, Note_on_c, 0, 81, 102
2, 34859, Note_off_c, 0, 78, 64
2, 34862, Note_on_c, 0, 85, 110
2, 34862, Note_on_c, 0, 59, 58
2, 34864, Note_on_c, 0, 64, 67
2, 34864, Note_on_c, 0, 56, 58
2, 34870, Note_on_c, 0, 52, 65
2, 34874, Control_c, 0, 64, 127
2, 34878, Control_c, 0, 64, 127
2, 34897, Note_off_c, 0, 56, 64
2, 34900, Note_off_c, 0, 64, 64
2, 34900, Note_off_c, 0, 59, 64
2, 34907, Note_off_c, 0, 52, 64
2, 34968, Note_on_c, 0, 80, 83
2, 34969, Note_on_c, 0, 83, 67
2, 34983, Note_off_c, 0, 81, 64
2, 34989, Note_off_c, 0, 85, 64
2, 35005, Note_off_c, 0, 80, 64
2, 35012, Note_on_c, 0, 80, 94
2, 35012, Note_on_c, 0, 76, 78
2, 35022, Note_off_c, 0, 83, 64
2, 35031, Note_on_c, 0, 59, 55
2, 35032, Note_on_c, 0, 64, 46
2, 35035, Note_on_c, 0, 56, 27
2, 35036, Note_on_c, 0, 52, 72
2, 35052, Note_off_c, 0, 52, 64
2, 35060, Note_off_c, 0, 56, 64
2, 35061, Note_off_c, 0, 59, 64
2, 35072, Note_off_c, 0, 64, 64
2, 35134, Note_on_c, 0, 56, 58
2, 35139, Note_on_c, 0, 59, 46
2, 35140, Note_on_c, 0, 52, 67
2, 35144, Note_on_c, 0, 64, 84
2, 35163, Note_off_c, 0, 59, 64
2, 35172, Note_off_c, 0, 64, 64
2, 35172, Note_off_c, 0, 52, 64
2, 35174, Note_off_c, 0, 56, 64
2, 35244, Control_c, 0, 64, 0
2, 35248, Control_c, 0, 64, 0
2, 35262, Note_on_c, 0, 78, 85
2, 35263, Note_on_c, 0, 42, 92
2, 35270, Note_on_c, 0, 75, 81
2, 35286, Note_off_c, 0, 76, 64
2, 35286, Note_off_c, 0, 80, 64
2, 35287, Control_c, 0, 64, 127
2, 35291, Control_c, 0, 64, 127
2, 35316, Note_off_c, 0, 75, 64
2, 35336, Note_off_c, 0, 78, 64
2, 35360, Note_on_c, 0, 73, 80
2, 35363, Note_on_c, 0, 76, 81
2, 35379, Control_c, 0, 64, 0
2, 35383, Control_c, 0, 64, 0
2, 35396, Note_off_c, 0, 73, 64
2, 35407, Note_on_c, 0, 54, 68
2, 35408, Note_on_c, 0, 61, 74
2, 35412, Note_on_c, 0, 73, 66
2, 35415, Note_on_c, 0, 66, 98
2, 35415, Note_on_c, 0, 64, 71
2, 35421, Control_c, 0, 64, 127
2, 35425, Control_c, 0, 64, 127
2, 35446, Note_off_c, 0, 54, 64
2, 35452, Note_off_c, 0, 76, 64
2, 35454, Note_off_c, 0, 61, 64
2, 35459, Note_off_c, 0, 64, 64
2, 35534, Note_off_c, 0, 42, 64
2, 35538, Note_on_c, 0, 61, 81
2, 35542, Note_on_c, 0, 64, 79
2, 35542, Note_on_c, 0, 54, 83
2, 35573, Note_off_c, 0, 64, 64
2, 35573, Note_off_c, 0, 61, 64
2, 35581, Note_off_c, 0, 54, 64
2, 35666, Control_c, 0, 64, 0
2, 35670, Note_on_c, 0, 75, 88
2, 35670, Control_c, 0, 64, 0
2, 35672, Note_on_c, 0, 71, 74
2, 35679, Note_on_c, 0, 47, 74
2, 35680, Note_on_c, 0, 59, 74
2, 35680, Note_on_c, 0, 54, 74
2, 35686, Note_off_c, 0, 73, 64
2, 35689, Note_off_c, 0, 66, 64
2, 35689, Control_c, 0, 64, 127
2, 35693, Control_c, 0, 64, 127
2, 35715, Note_off_c, 0, 59, 64
2, 35725, Note_off_c, 0, 54, 64
2, 35725, Note_off_c, 0, 47, 64
2, 35729, Note_off_c, 0, 71, 64
2, 35764, Note_off_c, 0, 75, 64
2, 35792, Note_on_c, 0, 66, 67
2, 35796, Note_on_c, 0, 71, 66
2, 35803, Control_c, 0, 64, 0
2, 35807, Control_c, 0, 64, 0
2, 35821, Note_on_c, 0, 54, 72
2, 35821, Control_c, 0, 64, 127
2, 35821, Note_on_c, 0, 47, 80
2, 35825, Note_on_c, 0, 59, 88
2, 35825, Control_c, 0, 64, 127
2, 35867, Note_off_c, 0, 47, 64
2, 35867, Note_off_c, 0, 54, 64
2, 35871, Note_off_c, 0, 66, 64
2, 35935, Control_c, 0, 64, 0
2, 35939, Control_c, 0, 64, 0
2, 35958, Note_on_c, 0, 54, 75
2, 35958, Note_on_c, 0, 47, 68
2, 35963, Control_c, 0, 64, 127
2, 35967, Control_c, 0, 64, 127
2, 36007, Note_off_c, 0, 54, 64
2, 36012, Note_off_c, 0, 47, 64
2, 36064, Note_off_c, 0, 59, 64
2, 36068, Note_off_c, 0, 71, 64
2, 36095, Note_on_c, 0, 44, 85
2, 36098, Note_on_c, 0, 47, 58
2, 36102, Note_on_c, 0, 54, 63
2, 36111, Control_c, 0, 64, 0
2, 36115, Control_c, 0, 64, 0
2, 36121, Control_c, 0, 64, 127
2, 36125, Control_c, 0, 64, 127
2, 36147, Note_off_c, 0, 54, 64
2, 36155, Note_off_c, 0, 47, 64
2, 36155, Note_on_c, 0, 42, 83
2, 36163, Control_c, 0, 64, 0
2, 36167, Control_c, 0, 64, 0
2, 36178, Note_off_c, 0, 44, 64
2, 36214, Note_on_c, 0, 40, 80
2, 36224, Note_off_c, 0, 42, 64
2, 36229, Note_on_c, 0, 54, 70
2, 36232, Note_on_c, 0, 47, 63
2, 36262, Note_off_c, 0, 40, 64
2, 36268, Note_off_c, 0, 47, 64
2, 36268, Note_off_c, 0, 54, 64
2, 36353, Note_on_c, 0, 39, 89
2, 36360, Note_on_c, 0, 54, 88
2, 36360, Note_on_c, 0, 47, 80
2, 36391, Note_off_c, 0, 54, 64
2, 36395, Note_off_c, 0, 39, 64
2, 36396, Note_off_c, 0, 47, 64
2, 36458, Note_on_c, 0, 39, 88
2, 36474, Note_on_c, 0, 37, 92
2, 36491, Note_off_c, 0, 39, 64
2, 36496, Note_on_c, 0, 47, 66
2, 36498, Note_on_c, 0, 54, 70
2, 36507, Note_on_c, 0, 35, 101
2, 36519, Note_off_c, 0, 37, 64
2, 36540, Note_off_c, 0, 54, 64
2, 36543, Note_off_c, 0, 47, 64
2, 36629, Control_c, 0, 64, 127
2, 36632, Note_on_c, 0, 54, 70
2, 36633, Control_c, 0, 64, 127
2, 36639, Note_on_c, 0, 47, 61
2, 36684, Note_off_c, 0, 54, 64
2, 36686, Note_off_c, 0, 47, 64
2, 36700, Note_off_c, 0, 35, 64
2, 36761, Note_on_c, 0, 54, 81
2, 36765, Note_on_c, 0, 47, 78
2, 36809, Note_off_c, 0, 54, 64
2, 36813, Note_off_c, 0, 47, 64
2, 36887, Note_on_c, 0, 44, 89
2, 36893, Note_on_c, 0, 54, 55
2, 36898, Note_on_c, 0, 47, 63
2, 36904, Control_c, 0, 64, 0
2, 36908, Control_c, 0, 64, 0
2, 36947, Note_off_c, 0, 54, 64
2, 36952, Note_off_c, 0, 47, 64
2, 36993, Note_on_c, 0, 42, 67
2, 37018, Note_off_c, 0, 44, 64
2, 37029, Note_on_c, 0, 54, 58
2, 37032, Note_on_c, 0, 47, 59
2, 37034, Note_on_c, 0, 40, 88
2, 37048, Note_off_c, 0, 42, 64
2, 37070, Note_off_c, 0, 54, 64
2, 37075, Note_off_c, 0, 40, 64
2, 37075, Note_off_c, 0, 47, 64
2, 37159, Note_on_c, 0, 39, 102
2, 37166, Note_on_c, 0, 54, 92
2, 37166, Note_on_c, 0, 47, 83
2, 37199, Note_off_c, 0, 39, 64
2, 37204, Note_off_c, 0, 54, 64
2, 37205, Note_off_c, 0, 47, 64
2, 37260, Note_on_c, 0, 39, 94
2, 37280, Note_on_c, 0, 37, 92
2, 37301, Note_off_c, 0, 39, 64
2, 37303, Note_on_c, 0, 47, 67
2, 37303, Note_on_c, 0, 35, 102
2, 37309, Note_on_c, 0, 54, 71
2, 37326, Note_off_c, 0, 37, 64
2, 37355, Note_off_c, 0, 54, 64
2, 37358, Note_off_c, 0, 47, 64
2, 37432, Note_on_c, 0, 54, 70
2, 37441, Note_off_c, 0, 35, 64
2, 37441, Note_on_c, 0, 47, 66
2, 37449, Control_c, 0, 64, 127
2, 37453, Control_c, 0, 64, 127
2, 37486, Note_off_c, 0, 47, 64
2, 37492, Note_off_c, 0, 54, 64
2, 37568, Note_on_c, 0, 47, 89
2, 37569, Note_on_c, 0, 54, 102
2, 37605, Note_off_c, 0, 54, 64
2, 37608, Note_off_c, 0, 47, 64
2, 37690, Note_on_c, 0, 59, 88
2, 37692, Note_on_c, 0, 56, 102
2, 37705, Note_on_c, 0, 40, 70
2, 37707, Control_c, 0, 64, 0
2, 37711, Control_c, 0, 64, 0
2, 37718, Control_c, 0, 64, 127
2, 37722, Control_c, 0, 64, 127
2, 37730, Note_off_c, 0, 59, 64
2, 37736, Note_off_c, 0, 56, 64
2, 37780, Note_on_c, 0, 59, 81
2, 37786, Note_on_c, 0, 64, 67
2, 37831, Note_off_c, 0, 59, 64
2, 37833, Note_on_c, 0, 68, 105
2, 37837, Note_off_c, 0, 64, 64
2, 37840, Note_on_c, 0, 64, 93
2, 37843, Note_on_c, 0, 52, 72
2, 37844, Note_on_c, 0, 59, 61
2, 37879, Note_off_c, 0, 52, 64
2, 37881, Note_off_c, 0, 59, 64
2, 37899, Note_off_c, 0, 68, 64
2, 37909, Note_off_c, 0, 64, 64
2, 37948, Control_c, 0, 64, 0
2, 37952, Control_c, 0, 64, 0
2, 37968, Note_on_c, 0, 68, 87
2, 37970, Note_on_c, 0, 71, 100
2, 37973, Note_on_c, 0, 59, 74
2, 37977, Note_on_c, 0, 52, 71
2, 37989, Control_c, 0, 64, 127
2, 37993, Control_c, 0, 64, 127
2, 38026, Note_off_c, 0, 59, 64
2, 38026, Note_off_c, 0, 71, 64
2, 38030, Note_off_c, 0, 52, 64
2, 38036, Note_off_c, 0, 68, 64
2, 38096, Note_on_c, 0, 71, 92
2, 38103, Control_c, 0, 64, 0
2, 38104, Note_on_c, 0, 76, 106
2, 38105, Note_on_c, 0, 59, 72
2, 38107, Control_c, 0, 64, 0
2, 38112, Note_on_c, 0, 52, 72
2, 38118, Control_c, 0, 64, 127
2, 38122, Control_c, 0, 64, 127
2, 38154, Note_off_c, 0, 59, 64
2, 38154, Note_off_c, 0, 71, 64
2, 38158, Note_off_c, 0, 52, 64
2, 38162, Note_off_c, 0, 76, 64
2, 38204, Note_on_c, 0, 68, 95
2, 38204, Note_on_c, 0, 64, 81
2, 38219, Note_off_c, 0, 40, 64
2, 38230, Control_c, 0, 64, 0
2, 38232, Note_off_c, 0, 64, 64
2, 38232, Note_off_c, 0, 68, 64
2, 38234, Control_c, 0, 64, 0
2, 38240, Note_on_c, 0, 52, 70
2, 38243, Note_on_c, 0, 71, 105
2, 38243, Note_on_c, 0, 59, 71
2, 38244, Note_on_c, 0, 68, 92
2, 38248, Control_c, 0, 64, 127
2, 38252, Control_c, 0, 64, 127
2, 38294, Note_off_c, 0, 59, 64
2, 38299, Note_off_c, 0, 52, 64
2, 38306, Note_off_c, 0, 71, 64
2, 38316, Note_off_c, 0, 68, 64
2, 38360, Control_c, 0, 64, 0
2, 38364, Control_c, 0, 64, 0
2, 38372, Note_on_c, 0, 76, 104
2, 38372, Note_on_c, 0, 71, 86
2, 38374, Note_on_c, 0, 59, 62
2, 38374, Note_on_c, 0, 52, 62
2, 38376, Note_on_c, 0, 56, 71
2, 38380, Control_c, 0, 64, 127
2, 38383, Note_on_c, 0, 64, 68
2, 38384, Control_c, 0, 64, 127
2, 38420, Note_off_c, 0, 64, 64
2, 38428, Note_off_c, 0, 56, 64
2, 38431, Note_off_c, 0, 59, 64
2, 38432, Note_off_c, 0, 52, 64
2, 38438, Note_off_c, 0, 71, 64
2, 38438, Note_off_c, 0, 76, 64
2, 38498, Note_on_c, 0, 78, 91
2, 38500, Note_on_c, 0, 75, 83
2, 38505, Note_on_c, 0, 52, 40
2, 38512, Note_on_c, 0, 63, 46
2, 38514, Note_on_c, 0, 57, 42
2, 38515, Note_on_c, 0, 59, 44
2, 38528, Note_on_c, 0, 80, 83
2, 38546, Note_off_c, 0, 78, 64
2, 38560, Note_off_c, 0, 59, 64
2, 38561, Note_off_c, 0, 63, 64
2, 38566, Note_off_c, 0, 57, 64
2, 38569, Note_off_c, 0, 52, 64
2, 38574, Note_on_c, 0, 78, 75
2, 38580, Note_off_c, 0, 80, 64
2, 38628, Note_on_c, 0, 77, 81
2, 38632, Note_on_c, 0, 74, 83
2, 38641, Note_off_c, 0, 75, 64
2, 38641, Note_on_c, 0, 63, 54
2, 38641, Note_on_c, 0, 52, 35
2, 38643, Note_off_c, 0, 78, 64
2, 38645, Note_on_c, 0, 59, 46
2, 38645, Note_on_c, 0, 57, 45
2, 38676, Note_off_c, 0, 59, 64
2, 38678, Note_off_c, 0, 63, 64
2, 38681, Note_off_c, 0, 57, 64
2, 38682, Note_off_c, 0, 52, 64
2, 38703, Note_on_c, 0, 75, 83
2, 38707, Note_off_c, 0, 77, 64
2, 38707, Note_on_c, 0, 78, 96
2, 38711, Note_off_c, 0, 74, 64
2, 38776, Note_on_c, 0, 80, 84
2, 38776, Note_on_c, 0, 76, 81
2, 38780, Note_on_c, 0, 63, 62
2, 38782, Note_off_c, 0, 75, 64
2, 38786, Note_off_c, 0, 78, 64
2, 38786, Note_on_c, 0, 57, 54
2, 38790, Note_on_c, 0, 52, 42
2, 38794, Note_on_c, 0, 59, 48
2, 38817, Note_off_c, 0, 59, 64
2, 38824, Note_off_c, 0, 52, 64
2, 38824, Note_off_c, 0, 57, 64
2, 38825, Note_off_c, 0, 63, 64
2, 38846, Note_on_c, 0, 81, 88
2, 38851, Note_off_c, 0, 76, 64
2, 38854, Note_on_c, 0, 78, 79
2, 38859, Note_off_c, 0, 80, 64
2, 38890, Control_c, 0, 64, 0
2, 38894, Control_c, 0, 64, 0
2, 38897, Note_off_c, 0, 81, 64
2, 38916, Note_on_c, 0, 85, 100
2, 38916, Note_on_c, 0, 81, 88
2, 38919, Note_on_c, 0, 56, 48
2, 38923, Note_on_c, 0, 59, 54
2, 38923, Note_on_c, 0, 52, 54
2, 38924, Note_on_c, 0, 64, 67
2, 38925, Note_off_c, 0, 78, 64
2, 38939, Control_c, 0, 64, 127
2, 38943, Control_c, 0, 64, 127
2, 38959, Note_off_c, 0, 56, 64
2, 38963, Note_off_c, 0, 64, 64
2, 38966, Note_off_c, 0, 52, 64
2, 38966, Note_off_c, 0, 59, 64
2, 39019, Note_off_c, 0, 81, 64
2, 39019, Note_off_c, 0, 85, 64
2, 39021, Note_on_c, 0, 83, 92
2, 39024, Note_on_c, 0, 80, 74
2, 39038, Control_c, 0, 64, 0
2, 39042, Control_c, 0, 64, 0
2, 39044, Note_off_c, 0, 80, 64
2, 39056, Note_on_c, 0, 56, 67
2, 39059, Note_on_c, 0, 80, 101
2, 39060, Note_on_c, 0, 76, 81
2, 39065, Note_on_c, 0, 64, 66
2, 39067, Note_on_c, 0, 52, 63
2, 39071, Note_on_c, 0, 59, 48
2, 39076, Control_c, 0, 64, 127
2, 39080, Control_c, 0, 64, 127
2, 39087, Note_off_c, 0, 83, 64
2, 39099, Note_off_c, 0, 64, 64
2, 39100, Note_off_c, 0, 56, 64
2, 39103, Note_off_c, 0, 52, 64
2, 39109, Note_off_c, 0, 59, 64
2, 39184, Note_on_c, 0, 52, 61
2, 39187, Note_on_c, 0, 64, 75
2, 39187, Note_on_c, 0, 56, 65
2, 39196, Note_on_c, 0, 59, 67
2, 39231, Note_off_c, 0, 64, 64
2, 39238, Note_off_c, 0, 59, 64
2, 39238, Note_off_c, 0, 56, 64
2, 39240, Note_off_c, 0, 52, 64
2, 39303, Control_c, 0, 64, 0
2, 39307, Control_c, 0, 64, 0
2, 39314, Note_on_c, 0, 78, 71
2, 39320, Note_on_c, 0, 75, 62
2, 39322, Note_on_c, 0, 52, 26
2, 39328, Control_c, 0, 64, 127
2, 39332, Control_c, 0, 64, 127
2, 39333, Note_off_c, 0, 80, 64
2, 39334, Note_off_c, 0, 76, 64
2, 39338, Note_on_c, 0, 63, 41
2, 39338, Note_on_c, 0, 59, 35
2, 39339, Note_on_c, 0, 57, 39
2, 39354, Note_on_c, 0, 80, 72
2, 39368, Note_off_c, 0, 59, 64
2, 39371, Note_off_c, 0, 57, 64
2, 39372, Note_off_c, 0, 78, 64
2, 39374, Note_off_c, 0, 63, 64
2, 39376, Note_off_c, 0, 52, 64
2, 39397, Note_on_c, 0, 78, 67
2, 39406, Note_off_c, 0, 80, 64
2, 39448, Note_on_c, 0, 77, 79
2, 39450, Note_on_c, 0, 74, 84
2, 39460, Note_on_c, 0, 63, 48
2, 39460, Note_on_c, 0, 57, 41
2, 39461, Note_off_c, 0, 75, 64
2, 39464, Note_on_c, 0, 52, 48
2, 39466, Note_on_c, 0, 59, 41
2, 39469, Note_off_c, 0, 78, 64
2, 39488, Note_off_c, 0, 52, 64
2, 39490, Note_off_c, 0, 59, 64
2, 39493, Note_off_c, 0, 63, 64
2, 39496, Note_off_c, 0, 57, 64
2, 39520, Note_on_c, 0, 75, 85
2, 39523, Note_off_c, 0, 77, 64
2, 39525, Note_off_c, 0, 74, 64
2, 39526, Note_on_c, 0, 78, 89
2, 39597, Note_on_c, 0, 80, 87
2, 39597, Note_on_c, 0, 63, 48
2, 39604, Note_off_c, 0, 75, 64
2, 39604, Note_on_c, 0, 76, 78
2, 39608, Note_on_c, 0, 57, 41
2, 39610, Note_off_c, 0, 78, 64
2, 39612, Note_on_c, 0, 59, 45
2, 39617, Note_on_c, 0, 52, 27
2, 39635, Note_off_c, 0, 59, 64
2, 39635, Note_off_c, 0, 57, 64
2, 39640, Note_off_c, 0, 52, 64
2, 39641, Note_off_c, 0, 63, 64
2, 39664, Note_on_c, 0, 81, 89
2, 39670, Note_on_c, 0, 78, 83
2, 39677, Note_off_c, 0, 80, 64
2, 39684, Note_off_c, 0, 76, 64
2, 39743, Control_c, 0, 64, 0
2, 39744, Note_off_c, 0, 81, 64
2, 39747, Note_on_c, 0, 85, 100
2, 39747, Control_c, 0, 64, 0
2, 39748, Note_on_c, 0, 81, 89
2, 39754, Note_on_c, 0, 64, 67
2, 39754, Note_on_c, 0, 56, 58
2, 39757, Note_on_c, 0, 59, 53
2, 39757, Note_on_c, 0, 52, 52
2, 39758, Note_off_c, 0, 78, 64
2, 39766, Control_c, 0, 64, 127
2, 39770, Control_c, 0, 64, 127
2, 39783, Note_off_c, 0, 56, 64
2, 39789, Note_off_c, 0, 59, 64
2, 39792, Note_off_c, 0, 64, 64
2, 39801, Note_off_c, 0, 52, 64
2, 39856, Note_on_c, 0, 83, 80
2, 39856, Note_on_c, 0, 80, 80
2, 39861, Note_off_c, 0, 85, 64
2, 39862, Note_off_c, 0, 81, 64
2, 39866, Control_c, 0, 64, 0
2, 39870, Control_c, 0, 64, 0
2, 39892, Note_off_c, 0, 80, 64
2, 39894, Control_c, 0, 64, 127
2, 39896, Note_on_c, 0, 80, 96
2, 39898, Control_c, 0, 64, 127
2, 39904, Note_on_c, 0, 76, 59
2, 39906, Note_on_c, 0, 56, 62
2, 39908, Note_on_c, 0, 59, 71
2, 39913, Note_on_c, 0, 52, 61
2, 39914, Note_on_c, 0, 64, 62
2, 39932, Note_off_c, 0, 83, 64
2, 39941, Note_off_c, 0, 64, 64
2, 39945, Note_off_c, 0, 59, 64
2, 39945, Note_off_c, 0, 56, 64
2, 39950, Note_off_c, 0, 52, 64
2, 40027, Note_on_c, 0, 56, 36
2, 40032, Note_on_c, 0, 59, 46
2, 40032, Note_on_c, 0, 52, 59
2, 40036, Note_on_c, 0, 64, 76
2, 40063, Note_off_c, 0, 59, 64
2, 40072, Note_off_c, 0, 52, 64
2, 40080, Note_off_c, 0, 56, 64
2, 40085, Note_off_c, 0, 64, 64
2, 40170, Note_off_c, 0, 80, 64
2, 40170, Note_on_c, 0, 78, 70
2, 40173, Control_c, 0, 64, 0
2, 40173, Note_on_c, 0, 73, 66
2, 40177, Control_c, 0, 64, 0
2, 40178, Note_off_c, 0, 76, 64
2, 40183, Note_on_c, 0, 64, 50
2, 40186, Note_on_c, 0, 57, 49
2, 40190, Control_c, 0, 64, 127
2, 40194, Control_c, 0, 64, 127
2, 40215, Note_off_c, 0, 78, 64
2, 40221, Note_off_c, 0, 57, 64
2, 40231, Note_off_c, 0, 64, 64
2, 40244, Note_on_c, 0, 72, 70
2, 40245, Note_on_c, 0, 78, 71
2, 40252, Note_off_c, 0, 73, 64
2, 40275, Note_off_c, 0, 78, 64
2, 40311, Note_on_c, 0, 78, 70
2, 40315, Note_on_c, 0, 71, 65
2, 40323, Note_off_c, 0, 72, 64
2, 40324, Note_on_c, 0, 63, 50
2, 40324, Note_on_c, 0, 59, 49
2, 40359, Note_off_c, 0, 59, 64
2, 40372, Note_off_c, 0, 63, 64
2, 40388, Note_off_c, 0, 78, 64
2, 40458, Control_c, 0, 64, 0
2, 40462, Note_on_c, 0, 80, 72
2, 40462, Control_c, 0, 64, 0
2, 40468, Note_on_c, 0, 69, 63
2, 40469, Note_on_c, 0, 63, 56
2, 40474, Note_on_c, 0, 59, 48
2, 40488, Note_off_c, 0, 71, 64
2, 40489, Control_c, 0, 64, 127
2, 40493, Control_c, 0, 64, 127
2, 40517, Note_off_c, 0, 59, 64
2, 40517, Note_off_c, 0, 63, 64
2, 40599, Control_c, 0, 64, 0
2, 40602, Note_on_c, 0, 68, 70
2, 40603, Control_c, 0, 64, 0
2, 40610, Note_on_c, 0, 76, 71
2, 40612, Note_on_c, 0, 52, 56
2, 40614, Note_on_c, 0, 59, 56
2, 40617, Note_on_c, 0, 64, 56
2, 40631, Note_off_c, 0, 80, 64
2, 40632, Control_c, 0, 64, 127
2, 40636, Control_c, 0, 64, 127
2, 40657, Note_off_c, 0, 69, 64
2, 40664, Note_off_c, 0, 52, 64
2, 40681, Note_off_c, 0, 64, 64
2, 40683, Note_off_c, 0, 59, 64
2, 40751, Note_on_c, 0, 59, 48
2, 40755, Note_on_c, 0, 64, 56
2, 40756, Note_on_c, 0, 52, 52
2, 40818, Note_off_c, 0, 52, 64
2, 40818, Note_off_c, 0, 64, 64
2, 40833, Note_off_c, 0, 59, 64
2, 40910, Note_off_c, 0, 76, 64
2, 40911, Note_off_c, 0, 68, 64
2, 40912, Note_on_c, 0, 88, 70
2, 40912, Note_on_c, 0, 76, 58
2, 40919, Note_on_c, 0, 56, 56
2, 40922, Note_on_c, 0, 64, 46
2, 40971, Note_off_c, 0, 64, 64
2, 40990, Note_off_c, 0, 56, 64
2, 41022, Note_off_c, 0, 88, 64
2, 41043, Note_off_c, 0, 76, 64
2, 41075, Note_on_c, 0, 78, 42
2, 41079, Note_on_c, 0, 73, 46
2, 41079, Note_on_c, 0, 64, 37
2, 41080, Note_on_c, 0, 57, 37
2, 41116, Note_off_c, 0, 78, 64
2, 41119, Note_off_c, 0, 57, 64
2, 41125, Note_off_c, 0, 73, 64
2, 41126, Note_off_c, 0, 64, 64
2, 41152, Note_on_c, 0, 73, 53
2, 41155, Note_on_c, 0, 78, 53
2, 41189, Note_off_c, 0, 78, 64
2, 41233, Note_on_c, 0, 78, 55
2, 41233, Note_on_c, 0, 72, 50
2, 41238, Note_on_c, 0, 57, 37
2, 41240, Note_off_c, 0, 73, 64
2, 41244, Note_on_c, 0, 64, 35
2, 41295, Note_off_c, 0, 64, 64
2, 41297, Note_off_c, 0, 57, 64
2, 41355, Note_off_c, 0, 72, 64
2, 41364, Note_off_c, 0, 78, 64
2, 41418, Note_on_c, 0, 80, 52
2, 41418, Note_on_c, 0, 71, 44
2, 41418, Note_on_c, 0, 63, 34
2, 41420, Note_on_c, 0, 59, 37
2, 41430, Control_c, 0, 64, 0
2, 41434, Control_c, 0, 64, 0
2, 41442, Control_c, 0, 64, 127
2, 41446, Control_c, 0, 64, 127
2, 41467, Note_off_c, 0, 63, 64
2, 41476, Note_off_c, 0, 59, 64
2, 41514, Note_on_c, 0, 69, 44
2, 41532, Note_off_c, 0, 71, 64
2, 41636, Note_on_c, 0, 68, 52
2, 41642, Note_off_c, 0, 80, 64
2, 41642, Note_on_c, 0, 76, 44
2, 41644, Note_on_c, 0, 64, 29
2, 41646, Note_off_c, 0, 69, 64
2, 41646, Note_on_c, 0, 59, 41
2, 41648, Note_on_c, 0, 52, 28
2, 41661, Control_c, 0, 64, 0
2, 41665, Control_c, 0, 64, 0
2, 41697, Control_c, 0, 64, 127
2, 41701, Control_c, 0, 64, 127
2, 41948, Note_off_c, 0, 68, 64
2, 41954, Note_off_c, 0, 76, 64
2, 41956, Note_off_c, 0, 64, 64
2, 41958, Note_off_c, 0, 59, 64
2, 41960, Note_off_c, 0, 52, 64
2, 41982, Note_on_c, 0, 76, 35
2, 41983, Note_on_c, 0, 40, 35
2, 41986, Note_on_c, 0, 88, 41
2, 41986, Note_on_c, 0, 52, 29
2, 42004, Control_c, 0, 64, 0
2, 42008, Control_c, 0, 64, 0
2, 42039, Control_c, 0, 64, 127
2, 42043, Control_c, 0, 64, 127
2, 42112, Note_off_c, 0, 52, 64
2, 42120, Note_off_c, 0, 40, 64
2, 42122, Note_off_c, 0, 76, 64
2, 42128, Note_off_c, 0, 88, 64
2, 42618, Control_c, 0, 64, 0
2, 42622, Control_c, 0, 64, 0
