2, 0, Program_c, 0, 0
2, 0, Control_c, 0, 7, 127
2, 24, Control_c, 0, 64, 0
2, 39, Note_on_c, 0, 32, 77
2, 68, Control_c, 0, 64, 127
2, 304, Note_on_c, 0, 56, 28
2, 305, Note_on_c, 0, 51, 31
2, 311, Note_on_c, 0, 63, 28
2, 349, Note_on_c, 0, 72, 81
2, 492, Note_off_c, 0, 56, 64
2, 493, Note_off_c, 0, 51, 64
2, 499, Note_off_c, 0, 63, 64
2, 570, Note_on_c, 0, 63, 36
2, 576, Note_on_c, 0, 51, 18
2, 579, Note_on_c, 0, 56, 36
2, 670, Note_on_c, 0, 73, 66
2, 688, Note_off_c, 0, 72, 64
2, 748, Note_off_c, 0, 63, 64
2, 754, Note_off_c, 0, 51, 64
2, 757, Note_off_c, 0, 56, 64
2, 773, Note_on_c, 0, 44, 57
2, 779, Note_off_c, 0, 32, 64
2, 788, Note_on_c, 0, 72, 71
2, 809, Note_off_c, 0, 73, 64
2, 871, Note_on_c, 0, 70, 66
2, 881, Note_off_c, 0, 72, 64
2, 960, Note_on_c, 0, 56, 23
2, 962, Note_on_c, 0, 68, 66
2, 968, Note_on_c, 0, 66, 44
2, 975, Note_on_c, 0, 60, 44
2, 975, Control_c, 0, 64, 0
2, 981, Note_off_c, 0, 70, 64
2, 1004, Control_c, 0, 64, 127
2, 1123, Note_off_c, 0, 56, 64
2, 1131, Note_off_c, 0, 66, 64
2, 1138, Note_off_c, 0, 60, 64
2, 1144, Note_on_c, 0, 63, 44
2, 1144, Note_on_c, 0, 56, 23
2, 1145, Note_on_c, 0, 66, 55
2, 1156, Note_on_c, 0, 72, 75
2, 1176, Note_off_c, 0, 68, 64
2, 1225, Note_off_c, 0, 44, 64
2, 1239, Control_c, 0, 64, 0
2, 1268, Control_c, 0, 64, 127
2, 1322, Note_off_c, 0, 56, 64
2, 1322, Note_off_c, 0, 63, 64
2, 1323, Note_off_c, 0, 66, 64
2, 1341, Note_on_c, 0, 73, 75
2, 1344, Note_on_c, 0, 49, 65
2, 1355, Note_off_c, 0, 72, 64
2, 1355, Control_c, 0, 64, 0
2, 1378, Control_c, 0, 64, 127
2, 1522, Note_on_c, 0, 56, 44
2, 1525, Note_on_c, 0, 61, 50
2, 1529, Note_on_c, 0, 75, 73
2, 1532, Note_on_c, 0, 65, 31
2, 1548, Note_off_c, 0, 73, 64
2, 1555, Control_c, 0, 64, 0
2, 1577, Control_c, 0, 64, 127
2, 1619, Control_c, 0, 64, 0
2, 1630, Note_off_c, 0, 49, 64
2, 1642, Control_c, 0, 64, 127
2, 1670, Note_off_c, 0, 65, 64
2, 1687, Note_off_c, 0, 56, 64
2, 1690, Note_off_c, 0, 61, 64
2, 1705, Note_on_c, 0, 65, 48
2, 1711, Note_on_c, 0, 56, 56
2, 1712, Note_on_c, 0, 61, 56
2, 1793, Note_on_c, 0, 77, 59
2, 1808, Note_off_c, 0, 75, 64
2, 1819, Control_c, 0, 64, 0
2, 1841, Control_c, 0, 64, 127
2, 1867, Note_off_c, 0, 61, 64
2, 1873, Note_off_c, 0, 65, 64
2, 1889, Note_off_c, 0, 56, 64
2, 1894, Note_on_c, 0, 74, 71
2, 1898, Note_on_c, 0, 44, 44
2, 1924, Note_off_c, 0, 77, 64
2, 1929, Control_c, 0, 64, 0
2, 1943, Control_c, 0, 64, 127
2, 1976, Note_on_c, 0, 77, 63
2, 1998, Note_off_c, 0, 74, 64
2, 2051, Note_on_c, 0, 56, 48
2, 2056, Note_on_c, 0, 63, 39
2, 2058, Note_on_c, 0, 75, 71
2, 2061, Note_on_c, 0, 60, 40
2, 2068, Note_off_c, 0, 77, 64
2, 2078, Control_c, 0, 64, 0
2, 2113, Control_c, 0, 64, 127
2, 2193, Note_off_c, 0, 44, 64
2, 2193, Control_c, 0, 64, 0
2, 2207, Control_c, 0, 64, 127
2, 2214, Note_off_c, 0, 56, 64
2, 2219, Note_off_c, 0, 63, 64
2, 2224, Note_off_c, 0, 60, 64
2, 2299, Note_on_c, 0, 60, 33
2, 2300, Note_on_c, 0, 80, 63
2, 2303, Note_on_c, 0, 63, 28
2, 2322, Note_on_c, 0, 51, 16
2, 2324, Note_off_c, 0, 75, 64
2, 2342, Control_c, 0, 64, 0
2, 2377, Control_c, 0, 64, 127
2, 2588, Note_on_c, 0, 32, 65
2, 2592, Note_off_c, 0, 60, 64
2, 2596, Note_off_c, 0, 63, 64
2, 2606, Control_c, 0, 64, 0
2, 2615, Note_off_c, 0, 51, 64
2, 2642, Control_c, 0, 64, 127
2, 2801, Note_on_c, 0, 72, 63
2, 2808, Note_off_c, 0, 80, 64
2, 2809, Note_on_c, 0, 51, 41
2, 2817, Note_on_c, 0, 56, 55
2, 2817, Note_on_c, 0, 60, 47
2, 2837, Control_c, 0, 64, 0
2, 2861, Control_c, 0, 64, 127
2, 2870, Control_c, 0, 64, 0
2, 2906, Control_c, 0, 64, 127
2, 2972, Note_off_c, 0, 51, 64
2, 2980, Note_off_c, 0, 60, 64
2, 2980, Note_off_c, 0, 56, 64
2, 3010, Note_on_c, 0, 56, 48
2, 3013, Note_on_c, 0, 60, 57
2, 3015, Note_on_c, 0, 52, 39
2, 3069, Note_on_c, 0, 75, 56
2, 3101, Control_c, 0, 64, 0
2, 3109, Note_on_c, 0, 73, 58
2, 3115, Note_off_c, 0, 72, 64
2, 3125, Control_c, 0, 64, 127
2, 3135, Note_off_c, 0, 75, 64
2, 3178, Note_off_c, 0, 56, 64
2, 3185, Note_on_c, 0, 44, 56
2, 3191, Note_off_c, 0, 60, 64
2, 3197, Control_c, 0, 64, 0
2, 3202, Note_on_c, 0, 72, 67
2, 3209, Note_off_c, 0, 73, 64
2, 3224, Control_c, 0, 64, 127
2, 3232, Note_off_c, 0, 52, 64
2, 3275, Note_on_c, 0, 70, 73
2, 3290, Note_off_c, 0, 72, 64
2, 3310, Note_off_c, 0, 32, 64
2, 3344, Note_on_c, 0, 53, 50
2, 3345, Note_on_c, 0, 60, 49
2, 3348, Note_on_c, 0, 68, 67
2, 3361, Note_off_c, 0, 70, 64
2, 3380, Control_c, 0, 64, 0
2, 3403, Control_c, 0, 64, 127
2, 3461, Control_c, 0, 64, 0
2, 3488, Control_c, 0, 64, 127
2, 3507, Note_off_c, 0, 53, 64
2, 3508, Note_off_c, 0, 60, 64
2, 3544, Note_on_c, 0, 53, 28
2, 3544, Note_on_c, 0, 56, 26
2, 3548, Note_on_c, 0, 72, 66
2, 3551, Note_on_c, 0, 63, 54
2, 3554, Note_off_c, 0, 68, 64
2, 3626, Note_off_c, 0, 44, 64
2, 3644, Control_c, 0, 64, 0
2, 3667, Control_c, 0, 64, 127
2, 3722, Note_off_c, 0, 56, 64
2, 3722, Note_off_c, 0, 53, 64
2, 3729, Note_off_c, 0, 63, 64
2, 3760, Note_on_c, 0, 65, 63
2, 3763, Note_on_c, 0, 46, 58
2, 3774, Control_c, 0, 64, 0
2, 3779, Note_off_c, 0, 72, 64
2, 3820, Control_c, 0, 64, 127
2, 3961, Note_on_c, 0, 67, 73
2, 3966, Note_on_c, 0, 56, 40
2, 3967, Note_on_c, 0, 62, 36
2, 3992, Note_off_c, 0, 65, 64
2, 3995, Control_c, 0, 64, 0
2, 4017, Control_c, 0, 64, 127
2, 4038, Control_c, 0, 64, 0
2, 4084, Control_c, 0, 64, 127
2, 4086, Note_off_c, 0, 46, 64
2, 4122, Note_off_c, 0, 62, 64
2, 4126, Note_off_c, 0, 56, 64
2, 4176, Note_on_c, 0, 62, 42
2, 4184, Note_on_c, 0, 56, 40
2, 4259, Control_c, 0, 64, 0
2, 4261, Note_on_c, 0, 68, 57
2, 4281, Control_c, 0, 64, 127
2, 4288, Note_off_c, 0, 67, 64
2, 4386, Note_off_c, 0, 56, 64
2, 4395, Note_on_c, 0, 39, 62
2, 4396, Note_on_c, 0, 69, 58
2, 4416, Note_off_c, 0, 62, 64
2, 4427, Note_off_c, 0, 68, 64
2, 4486, Note_on_c, 0, 72, 50
2, 4499, Note_off_c, 0, 69, 64
2, 4568, Note_on_c, 0, 70, 62
2, 4568, Note_on_c, 0, 56, 44
2, 4571, Note_on_c, 0, 61, 29
2, 4576, Note_on_c, 0, 51, 2
2, 4592, Note_off_c, 0, 72, 64
2, 4595, Control_c, 0, 64, 0
2, 4627, Control_c, 0, 64, 127
2, 4654, Note_on_c, 0, 75, 55
2, 4673, Note_off_c, 0, 70, 64
2, 4675, Note_off_c, 0, 39, 64
2, 4724, Note_off_c, 0, 51, 64
2, 4736, Note_off_c, 0, 56, 64
2, 4771, Note_on_c, 0, 65, 54
2, 4773, Note_off_c, 0, 61, 64
2, 4776, Note_on_c, 0, 61, 26
2, 4781, Note_on_c, 0, 51, 35
2, 4781, Note_on_c, 0, 55, 42
2, 4797, Control_c, 0, 64, 0
2, 4804, Note_off_c, 0, 75, 64
2, 4824, Control_c, 0, 64, 127
2, 4859, Control_c, 0, 64, 0
2, 4891, Control_c, 0, 64, 127
2, 5000, Note_off_c, 0, 61, 64
2, 5005, Note_off_c, 0, 55, 64
2, 5005, Note_off_c, 0, 51, 64
2, 5028, Note_on_c, 0, 63, 47
2, 5030, Note_on_c, 0, 32, 62
2, 5044, Note_off_c, 0, 65, 64
2, 5049, Control_c, 0, 64, 0
2, 5061, Control_c, 0, 64, 0
2, 5088, Control_c, 0, 64, 127
2, 5092, Control_c, 0, 64, 127
2, 5286, Note_on_c, 0, 51, 39
2, 5294, Note_on_c, 0, 56, 39
2, 5302, Note_on_c, 0, 60, 44
2, 5313, Control_c, 0, 64, 0
2, 5341, Note_off_c, 0, 63, 64
2, 5341, Note_on_c, 0, 72, 71
2, 5346, Control_c, 0, 64, 0
2, 5356, Control_c, 0, 64, 127
2, 5358, Control_c, 0, 64, 127
2, 5446, Note_off_c, 0, 51, 64
2, 5464, Note_off_c, 0, 56, 64
2, 5472, Note_off_c, 0, 60, 64
2, 5520, Note_on_c, 0, 56, 35
2, 5523, Note_on_c, 0, 63, 44
2, 5527, Note_on_c, 0, 51, 35
2, 5604, Note_on_c, 0, 73, 65
2, 5610, Control_c, 0, 64, 0
2, 5622, Control_c, 0, 64, 127
2, 5633, Note_off_c, 0, 72, 64
2, 5636, Control_c, 0, 64, 0
2, 5706, Note_off_c, 0, 32, 64
2, 5717, Note_on_c, 0, 44, 57
2, 5735, Note_on_c, 0, 72, 66
2, 5754, Control_c, 0, 64, 0
2, 5762, Note_off_c, 0, 73, 64
2, 5769, Control_c, 0, 64, 127
2, 5805, Note_off_c, 0, 56, 64
2, 5808, Note_off_c, 0, 63, 64
2, 5808, Note_on_c, 0, 70, 54
2, 5812, Note_off_c, 0, 51, 64
2, 5825, Note_off_c, 0, 72, 64
2, 5872, Note_on_c, 0, 65, 44
2, 5872, Note_on_c, 0, 60, 44
2, 5878, Note_on_c, 0, 56, 33
2, 5893, Note_on_c, 0, 68, 71
2, 5894, Note_off_c, 0, 70, 64
2, 5900, Control_c, 0, 64, 0
2, 5916, Control_c, 0, 64, 0
2, 5951, Control_c, 0, 64, 127
2, 6018, Control_c, 0, 64, 0
2, 6033, Control_c, 0, 64, 127
2, 6035, Note_off_c, 0, 60, 64
2, 6035, Note_off_c, 0, 65, 64
2, 6041, Note_off_c, 0, 56, 64
2, 6084, Note_on_c, 0, 56, 40
2, 6089, Note_off_c, 0, 44, 64
2, 6091, Note_on_c, 0, 66, 23
2, 6095, Note_on_c, 0, 72, 66
2, 6103, Note_on_c, 0, 63, 44
2, 6106, Note_off_c, 0, 68, 64
2, 6111, Control_c, 0, 64, 0
2, 6126, Control_c, 0, 64, 127
2, 6180, Control_c, 0, 64, 0
2, 6215, Control_c, 0, 64, 127
2, 6250, Note_on_c, 0, 49, 57
2, 6255, Note_on_c, 0, 73, 66
2, 6262, Note_off_c, 0, 56, 64
2, 6269, Note_off_c, 0, 66, 64
2, 6276, Note_off_c, 0, 72, 64
2, 6281, Note_off_c, 0, 63, 64
2, 6286, Control_c, 0, 64, 0
2, 6299, Control_c, 0, 64, 127
2, 6375, Control_c, 0, 64, 0
2, 6390, Control_c, 0, 64, 127
2, 6421, Note_on_c, 0, 61, 52
2, 6422, Note_on_c, 0, 56, 21
2, 6422, Note_on_c, 0, 65, 28
2, 6422, Note_on_c, 0, 75, 56
2, 6445, Control_c, 0, 64, 0
2, 6451, Note_off_c, 0, 73, 64
2, 6473, Control_c, 0, 64, 127
2, 6550, Control_c, 0, 64, 0
2, 6563, Control_c, 0, 64, 127
2, 6584, Note_off_c, 0, 61, 64
2, 6585, Note_off_c, 0, 65, 64
2, 6585, Note_off_c, 0, 56, 64
2, 6624, Note_on_c, 0, 56, 49
2, 6624, Note_on_c, 0, 65, 37
2, 6631, Note_on_c, 0, 61, 37
2, 6642, Note_off_c, 0, 49, 64
2, 6709, Control_c, 0, 64, 0
2, 6715, Note_on_c, 0, 77, 56
2, 6718, Note_off_c, 0, 75, 64
2, 6737, Control_c, 0, 64, 127
2, 6808, Note_on_c, 0, 44, 57
2, 6823, Note_on_c, 0, 74, 56
2, 6837, Control_c, 0, 64, 0
2, 6850, Control_c, 0, 64, 127
2, 6852, Note_off_c, 0, 77, 64
2, 6897, Note_on_c, 0, 77, 57
2, 6909, Note_off_c, 0, 65, 64
2, 6916, Note_off_c, 0, 61, 64
2, 6929, Note_off_c, 0, 74, 64
2, 6934, Note_off_c, 0, 56, 64
2, 6974, Note_on_c, 0, 63, 48
2, 6976, Note_on_c, 0, 75, 66
2, 6976, Note_on_c, 0, 56, 50
2, 6982, Note_on_c, 0, 60, 50
2, 6989, Note_off_c, 0, 77, 64
2, 6997, Control_c, 0, 64, 0
2, 7020, Control_c, 0, 64, 127
2, 7101, Control_c, 0, 64, 0
2, 7114, Control_c, 0, 64, 127
2, 7185, Note_off_c, 0, 63, 64
2, 7193, Note_off_c, 0, 56, 64
2, 7196, Note_off_c, 0, 44, 64
2, 7199, Note_off_c, 0, 60, 64
2, 7208, Note_on_c, 0, 60, 48
2, 7209, Note_on_c, 0, 63, 36
2, 7216, Note_on_c, 0, 51, 47
2, 7224, Note_on_c, 0, 84, 83
2, 7243, Note_off_c, 0, 75, 64
2, 7261, Control_c, 0, 64, 0
2, 7284, Control_c, 0, 64, 127
2, 7333, Control_c, 0, 64, 0
2, 7428, Note_on_c, 0, 43, 59
2, 7449, Control_c, 0, 64, 0
2, 7487, Control_c, 0, 64, 127
2, 7501, Note_off_c, 0, 60, 64
2, 7502, Note_off_c, 0, 63, 64
2, 7509, Note_off_c, 0, 51, 64
2, 7597, Control_c, 0, 64, 0
2, 7609, Note_off_c, 0, 84, 64
2, 7632, Note_on_c, 0, 58, 40
2, 7636, Note_on_c, 0, 72, 66
2, 7645, Note_on_c, 0, 60, 32
2, 7645, Note_on_c, 0, 64, 44
2, 7668, Control_c, 0, 64, 0
2, 7713, Control_c, 0, 64, 0
2, 7714, Control_c, 0, 64, 127
2, 7751, Control_c, 0, 64, 127
2, 7822, Note_off_c, 0, 43, 64
2, 7850, Note_on_c, 0, 75, 56
2, 7851, Note_off_c, 0, 60, 64
2, 7859, Note_off_c, 0, 58, 64
2, 7864, Note_off_c, 0, 64, 64
2, 7872, Note_on_c, 0, 60, 24
2, 7873, Note_on_c, 0, 58, 47
2, 7875, Note_on_c, 0, 73, 66
2, 7875, Note_on_c, 0, 64, 32
2, 7897, Note_off_c, 0, 75, 64
2, 7910, Note_off_c, 0, 72, 64
2, 7932, Control_c, 0, 64, 0
2, 7978, Control_c, 0, 64, 127
2, 8052, Note_on_c, 0, 72, 66
2, 8061, Note_off_c, 0, 73, 64
2, 8084, Note_off_c, 0, 72, 64
2, 8113, Note_on_c, 0, 72, 66
2, 8118, Note_on_c, 0, 41, 58
2, 8132, Control_c, 0, 64, 0
2, 8165, Note_off_c, 0, 60, 64
2, 8165, Control_c, 0, 64, 127
2, 8166, Note_off_c, 0, 58, 64
2, 8168, Note_off_c, 0, 64, 64
2, 8271, Note_on_c, 0, 70, 52
2, 8280, Note_off_c, 0, 72, 64
2, 8305, Note_on_c, 0, 65, 36
2, 8312, Note_on_c, 0, 56, 36
2, 8316, Note_on_c, 0, 60, 36
2, 8325, Note_on_c, 0, 68, 65
2, 8343, Control_c, 0, 64, 0
2, 8351, Note_off_c, 0, 70, 64
2, 8366, Control_c, 0, 64, 127
2, 8396, Control_c, 0, 64, 0
2, 8397, Note_off_c, 0, 41, 64
2, 8429, Control_c, 0, 64, 127
2, 8451, Note_off_c, 0, 65, 64
2, 8452, Note_off_c, 0, 56, 64
2, 8456, Note_off_c, 0, 60, 64
2, 8496, Note_on_c, 0, 62, 36
2, 8508, Note_on_c, 0, 53, 44
2, 8509, Note_on_c, 0, 56, 47
2, 8509, Note_on_c, 0, 72, 66
2, 8515, Note_off_c, 0, 68, 64
2, 8607, Control_c, 0, 64, 0
2, 8630, Control_c, 0, 64, 127
2, 8631, Control_c, 0, 64, 0
2, 8703, Note_on_c, 0, 67, 59
2, 8711, Note_on_c, 0, 43, 64
2, 8713, Note_off_c, 0, 72, 64
2, 8730, Control_c, 0, 64, 0
2, 8764, Control_c, 0, 64, 127
2, 8789, Note_off_c, 0, 62, 64
2, 8801, Note_off_c, 0, 53, 64
2, 8802, Note_off_c, 0, 56, 64
2, 8884, Note_off_c, 0, 67, 64
2, 8895, Control_c, 0, 64, 0
2, 8896, Note_on_c, 0, 60, 39
2, 8902, Note_on_c, 0, 67, 44
2, 8907, Note_on_c, 0, 55, 29
2, 8908, Note_on_c, 0, 75, 62
2, 8940, Control_c, 0, 64, 0
2, 8972, Control_c, 0, 64, 127
2, 8994, Control_c, 0, 64, 0
2, 8999, Note_off_c, 0, 43, 64
2, 9028, Control_c, 0, 64, 127
2, 9059, Note_off_c, 0, 60, 64
2, 9065, Note_off_c, 0, 67, 64
2, 9070, Note_off_c, 0, 55, 64
2, 9081, Note_on_c, 0, 65, 42
2, 9084, Note_on_c, 0, 62, 42
2, 9089, Note_on_c, 0, 55, 39
2, 9163, Note_on_c, 0, 71, 65
2, 9176, Note_off_c, 0, 75, 64
2, 9204, Control_c, 0, 64, 0
2, 9236, Control_c, 0, 64, 127
2, 9267, Control_c, 0, 64, 0
2, 9284, Note_on_c, 0, 48, 62
2, 9284, Note_on_c, 0, 72, 57
2, 9291, Control_c, 0, 64, 0
2, 9300, Control_c, 0, 64, 127
2, 9305, Note_off_c, 0, 71, 64
2, 9324, Control_c, 0, 64, 127
2, 9345, Note_off_c, 0, 65, 64
2, 9356, Note_off_c, 0, 62, 64
2, 9369, Note_on_c, 0, 80, 42
2, 9382, Note_off_c, 0, 55, 64
2, 9386, Note_off_c, 0, 72, 64
2, 9454, Note_on_c, 0, 79, 59
2, 9456, Note_on_c, 0, 60, 23
2, 9461, Note_on_c, 0, 51, 36
2, 9464, Note_off_c, 0, 80, 64
2, 9468, Note_on_c, 0, 63, 23
2, 9491, Control_c, 0, 64, 0
2, 9524, Control_c, 0, 64, 127
2, 9531, Control_c, 0, 64, 0
2, 9555, Control_c, 0, 64, 0
2, 9564, Control_c, 0, 64, 127
2, 9570, Note_off_c, 0, 48, 64
2, 9588, Control_c, 0, 64, 127
2, 9630, Note_off_c, 0, 51, 64
2, 9657, Note_off_c, 0, 60, 64
2, 9669, Note_off_c, 0, 63, 64
2, 9693, Note_off_c, 0, 79, 64
2, 9694, Note_on_c, 0, 68, 65
2, 9700, Note_on_c, 0, 63, 29
2, 9700, Note_on_c, 0, 60, 32
2, 9705, Note_on_c, 0, 53, 29
2, 9720, Control_c, 0, 64, 0
2, 9733, Control_c, 0, 64, 127
2, 9755, Control_c, 0, 64, 0
2, 9788, Control_c, 0, 64, 127
2, 9822, Control_c, 0, 64, 0
2, 9876, Note_off_c, 0, 53, 64
2, 9876, Note_off_c, 0, 60, 64
2, 9876, Note_off_c, 0, 63, 64
2, 9876, Note_on_c, 0, 43, 58
2, 9885, Note_on_c, 0, 67, 62
2, 9904, Note_off_c, 0, 68, 64
2, 9906, Control_c, 0, 64, 0
2, 9935, Control_c, 0, 64, 127
2, 9984, Control_c, 0, 64, 0
2, 9997, Control_c, 0, 64, 127
2, 10068, Note_off_c, 0, 67, 64
2, 10079, Note_on_c, 0, 75, 58
2, 10084, Note_on_c, 0, 60, 37
2, 10084, Note_on_c, 0, 55, 37
2, 10086, Control_c, 0, 64, 0
2, 10094, Note_on_c, 0, 67, 40
2, 10114, Control_c, 0, 64, 0
2, 10148, Control_c, 0, 64, 127
2, 10170, Control_c, 0, 64, 0
2, 10178, Note_off_c, 0, 43, 64
2, 10194, Note_off_c, 0, 67, 64
2, 10199, Control_c, 0, 64, 127
2, 10209, Note_off_c, 0, 55, 64
2, 10209, Note_off_c, 0, 60, 64
2, 10258, Note_on_c, 0, 65, 40
2, 10262, Note_on_c, 0, 62, 39
2, 10276, Note_on_c, 0, 55, 40
2, 10366, Note_on_c, 0, 71, 62
2, 10378, Control_c, 0, 64, 0
2, 10391, Note_off_c, 0, 75, 64
2, 10412, Control_c, 0, 64, 127
2, 10462, Note_off_c, 0, 55, 64
2, 10468, Note_on_c, 0, 48, 62
2, 10475, Note_off_c, 0, 65, 64
2, 10479, Note_off_c, 0, 62, 64
2, 10489, Control_c, 0, 64, 0
2, 10512, Note_on_c, 0, 72, 55
2, 10515, Control_c, 0, 64, 127
2, 10537, Note_off_c, 0, 71, 64
2, 10624, Note_on_c, 0, 82, 64
2, 10656, Note_on_c, 0, 80, 58
2, 10686, Note_off_c, 0, 82, 64
2, 10740, Note_on_c, 0, 60, 14
2, 10740, Note_on_c, 0, 51, 37
2, 10744, Note_on_c, 0, 79, 66
2, 10747, Note_on_c, 0, 63, 19
2, 10752, Note_off_c, 0, 48, 64
2, 10753, Note_off_c, 0, 72, 64
2, 10753, Control_c, 0, 64, 0
2, 10764, Control_c, 0, 64, 0
2, 10774, Note_off_c, 0, 80, 64
2, 10779, Control_c, 0, 64, 127
2, 10792, Control_c, 0, 64, 127
2, 10896, Note_off_c, 0, 63, 64
2, 10896, Note_off_c, 0, 51, 64
2, 10896, Note_off_c, 0, 60, 64
2, 10920, Note_on_c, 0, 53, 20
2, 10922, Note_on_c, 0, 63, 27
2, 10929, Note_on_c, 0, 60, 29
2, 10936, Note_on_c, 0, 68, 64
2, 10962, Note_off_c, 0, 79, 64
2, 10974, Control_c, 0, 64, 0
2, 10997, Control_c, 0, 64, 127
2, 11028, Control_c, 0, 64, 0
2, 11056, Control_c, 0, 64, 127
2, 11104, Note_off_c, 0, 53, 64
2, 11116, Note_off_c, 0, 63, 64
2, 11130, Note_off_c, 0, 60, 64
2, 11134, Note_on_c, 0, 67, 66
2, 11141, Note_on_c, 0, 43, 57
2, 11148, Note_off_c, 0, 68, 64
2, 11170, Control_c, 0, 64, 0
2, 11194, Control_c, 0, 64, 127
2, 11238, Control_c, 0, 64, 0
2, 11261, Control_c, 0, 64, 127
2, 11309, Note_off_c, 0, 67, 64
2, 11312, Note_on_c, 0, 55, 36
2, 11315, Note_on_c, 0, 60, 33
2, 11317, Note_on_c, 0, 75, 66
2, 11322, Note_on_c, 0, 67, 47
2, 11350, Control_c, 0, 64, 0
2, 11388, Control_c, 0, 64, 127
2, 11426, Note_off_c, 0, 43, 64
2, 11434, Control_c, 0, 64, 0
2, 11439, Note_off_c, 0, 55, 64
2, 11442, Note_off_c, 0, 60, 64
2, 11449, Note_off_c, 0, 67, 64
2, 11458, Control_c, 0, 64, 127
2, 11481, Note_on_c, 0, 65, 39
2, 11486, Note_on_c, 0, 55, 40
2, 11490, Note_on_c, 0, 62, 40
2, 11552, Note_on_c, 0, 71, 66
2, 11571, Note_off_c, 0, 75, 64
2, 11614, Control_c, 0, 64, 0
2, 11645, Note_off_c, 0, 62, 64
2, 11652, Control_c, 0, 64, 127
2, 11659, Note_off_c, 0, 55, 64
2, 11662, Note_off_c, 0, 65, 64
2, 11683, Note_on_c, 0, 48, 58
2, 11685, Note_on_c, 0, 74, 65
2, 11697, Note_off_c, 0, 71, 64
2, 11722, Control_c, 0, 64, 0
2, 11746, Control_c, 0, 64, 127
2, 11773, Note_on_c, 0, 72, 59
2, 11787, Note_off_c, 0, 74, 64
2, 11917, Note_on_c, 0, 84, 75
2, 11928, Note_on_c, 0, 63, 37
2, 11930, Note_on_c, 0, 55, 41
2, 11950, Note_off_c, 0, 72, 64
2, 11981, Control_c, 0, 64, 0
2, 11986, Control_c, 0, 64, 0
2, 12010, Control_c, 0, 64, 127
2, 12025, Control_c, 0, 64, 127
2, 12094, Note_off_c, 0, 48, 64
2, 12114, Note_off_c, 0, 55, 64
2, 12116, Note_off_c, 0, 63, 64
2, 12175, Note_on_c, 0, 80, 57
2, 12205, Note_off_c, 0, 84, 64
2, 12221, Control_c, 0, 64, 0
2, 12243, Control_c, 0, 64, 127
2, 12245, Control_c, 0, 64, 0
2, 12274, Note_on_c, 0, 77, 58
2, 12283, Note_off_c, 0, 80, 64
2, 12289, Control_c, 0, 64, 127
2, 12364, Note_on_c, 0, 79, 58
2, 12392, Note_off_c, 0, 77, 64
2, 12447, Note_on_c, 0, 74, 59
2, 12455, Control_c, 0, 64, 0
2, 12485, Control_c, 0, 64, 0
2, 12496, Note_off_c, 0, 79, 64
2, 12507, Control_c, 0, 64, 127
2, 12545, Note_on_c, 0, 75, 56
2, 12555, Control_c, 0, 64, 127
2, 12568, Note_off_c, 0, 74, 64
2, 12621, Note_on_c, 0, 71, 52
2, 12647, Note_off_c, 0, 75, 64
2, 12696, Note_on_c, 0, 72, 69
2, 12719, Control_c, 0, 64, 0
2, 12721, Note_off_c, 0, 71, 64
2, 12787, Note_on_c, 0, 67, 59
2, 12817, Note_off_c, 0, 72, 64
2, 12819, Control_c, 0, 64, 127
2, 12820, Control_c, 0, 64, 0
2, 12872, Note_on_c, 0, 68, 72
2, 12895, Note_off_c, 0, 67, 64
2, 12919, Control_c, 0, 64, 127
2, 12952, Note_on_c, 0, 65, 66
2, 12982, Note_off_c, 0, 68, 64
2, 13039, Note_on_c, 0, 67, 77
2, 13046, Note_off_c, 0, 65, 64
2, 13084, Control_c, 0, 64, 0
2, 13106, Control_c, 0, 64, 0
2, 13121, Control_c, 0, 64, 127
2, 13138, Note_on_c, 0, 62, 75
2, 13155, Note_off_c, 0, 67, 64
2, 13183, Control_c, 0, 64, 127
2, 13235, Note_on_c, 0, 65, 77
2, 13243, Note_off_c, 0, 62, 64
2, 13254, Control_c, 0, 64, 0
2, 13337, Note_on_c, 0, 64, 77
2, 13351, Note_off_c, 0, 65, 64
2, 13370, Control_c, 0, 64, 0
2, 13385, Control_c, 0, 64, 127
2, 13478, Note_on_c, 0, 63, 67
2, 13489, Note_on_c, 0, 32, 62
2, 13505, Note_on_c, 0, 44, 42
2, 13508, Note_off_c, 0, 64, 64
2, 13518, Control_c, 0, 64, 0
2, 13520, Control_c, 0, 64, 127
2, 13665, Note_off_c, 0, 63, 64
2, 13746, Note_on_c, 0, 51, 37
2, 13754, Note_on_c, 0, 56, 36
2, 13757, Note_on_c, 0, 72, 90
2, 13762, Note_on_c, 0, 60, 42
2, 13763, Note_on_c, 0, 63, 82
2, 13784, Control_c, 0, 64, 127
2, 13800, Control_c, 0, 64, 0
2, 13814, Note_off_c, 0, 32, 64
2, 13815, Control_c, 0, 64, 127
2, 13819, Note_off_c, 0, 44, 64
2, 13912, Note_off_c, 0, 51, 64
2, 13925, Note_off_c, 0, 60, 64
2, 13945, Note_off_c, 0, 56, 64
2, 13969, Note_on_c, 0, 56, 49
2, 13975, Note_on_c, 0, 60, 48
2, 13978, Note_on_c, 0, 51, 44
2, 14056, Note_on_c, 0, 73, 77
2, 14064, Control_c, 0, 64, 0
2, 14064, Note_on_c, 0, 65, 64
2, 14067, Note_off_c, 0, 72, 64
2, 14073, Note_off_c, 0, 63, 64
2, 14077, Note_off_c, 0, 56, 64
2, 14079, Control_c, 0, 64, 127
2, 14083, Note_off_c, 0, 60, 64
2, 14086, Note_off_c, 0, 51, 64
2, 14187, Note_on_c, 0, 72, 79
2, 14189, Note_on_c, 0, 63, 67
2, 14195, Note_on_c, 0, 44, 49
2, 14196, Note_on_c, 0, 56, 50
2, 14200, Note_off_c, 0, 73, 64
2, 14208, Note_off_c, 0, 65, 64
2, 14209, Control_c, 0, 64, 0
2, 14232, Control_c, 0, 64, 127
2, 14296, Note_on_c, 0, 70, 62
2, 14296, Note_on_c, 0, 61, 57
2, 14304, Note_off_c, 0, 72, 64
2, 14306, Note_off_c, 0, 63, 64
2, 14347, Note_off_c, 0, 56, 64
2, 14376, Note_on_c, 0, 68, 74
2, 14376, Note_on_c, 0, 60, 71
2, 14383, Note_off_c, 0, 61, 64
2, 14383, Note_off_c, 0, 70, 64
2, 14384, Note_on_c, 0, 51, 36
2, 14384, Note_on_c, 0, 63, 62
2, 14395, Note_on_c, 0, 56, 31
2, 14407, Control_c, 0, 64, 0
2, 14443, Control_c, 0, 64, 127
2, 14473, Control_c, 0, 64, 0
2, 14478, Note_off_c, 0, 44, 64
2, 14496, Control_c, 0, 64, 127
2, 14498, Note_off_c, 0, 63, 64
2, 14498, Note_off_c, 0, 51, 64
2, 14509, Note_off_c, 0, 56, 64
2, 14580, Note_on_c, 0, 72, 77
2, 14582, Note_on_c, 0, 66, 56
2, 14584, Note_on_c, 0, 63, 55
2, 14584, Note_on_c, 0, 56, 44
2, 14587, Note_on_c, 0, 51, 44
2, 14595, Note_off_c, 0, 60, 64
2, 14595, Note_off_c, 0, 68, 64
2, 14671, Control_c, 0, 64, 0
2, 14695, Control_c, 0, 64, 0
2, 14707, Control_c, 0, 64, 127
2, 14731, Control_c, 0, 64, 127
2, 14771, Note_off_c, 0, 56, 64
2, 14774, Note_off_c, 0, 51, 64
2, 14782, Note_off_c, 0, 66, 64
2, 14808, Note_on_c, 0, 65, 66
2, 14815, Note_on_c, 0, 37, 50
2, 14815, Note_on_c, 0, 73, 73
2, 14819, Note_off_c, 0, 72, 64
2, 14821, Note_on_c, 0, 49, 44
2, 14823, Note_off_c, 0, 63, 64
2, 14838, Control_c, 0, 64, 0
2, 14872, Control_c, 0, 64, 127
2, 14959, Control_c, 0, 64, 0
2, 14995, Control_c, 0, 64, 127
2, 15003, Note_off_c, 0, 65, 64
2, 15017, Note_on_c, 0, 53, 41
2, 15019, Note_on_c, 0, 75, 74
2, 15020, Note_on_c, 0, 61, 1
2, 15020, Note_on_c, 0, 65, 31
2, 15022, Note_on_c, 0, 68, 72
2, 15046, Note_off_c, 0, 73, 64
2, 15049, Control_c, 0, 64, 0
2, 15094, Control_c, 0, 64, 127
2, 15099, Note_off_c, 0, 37, 64
2, 15102, Control_c, 0, 64, 0
2, 15118, Note_off_c, 0, 49, 64
2, 15136, Control_c, 0, 64, 127
2, 15138, Note_off_c, 0, 53, 64
2, 15141, Note_off_c, 0, 65, 64
2, 15141, Note_off_c, 0, 61, 64
2, 15189, Note_on_c, 0, 65, 46
2, 15193, Note_on_c, 0, 61, 47
2, 15200, Note_on_c, 0, 56, 36
2, 15296, Note_off_c, 0, 68, 64
2, 15296, Note_on_c, 0, 73, 71
2, 15296, Note_on_c, 0, 77, 62
2, 15313, Note_off_c, 0, 75, 64
2, 15313, Control_c, 0, 64, 0
2, 15335, Note_off_c, 0, 65, 64
2, 15358, Control_c, 0, 64, 127
2, 15361, Note_off_c, 0, 61, 64
2, 15368, Note_off_c, 0, 56, 64
2, 15398, Note_on_c, 0, 44, 48
2, 15400, Note_on_c, 0, 32, 57
2, 15407, Note_on_c, 0, 74, 72
2, 15407, Note_on_c, 0, 71, 57
2, 15421, Note_off_c, 0, 77, 64
2, 15421, Note_off_c, 0, 73, 64
2, 15485, Note_on_c, 0, 77, 72
2, 15489, Note_on_c, 0, 73, 81
2, 15504, Note_off_c, 0, 71, 64
2, 15504, Note_off_c, 0, 74, 64
2, 15576, Note_on_c, 0, 72, 67
2, 15579, Note_on_c, 0, 75, 74
2, 15584, Note_on_c, 0, 60, 33
2, 15584, Note_on_c, 0, 51, 32
2, 15588, Note_on_c, 0, 63, 47
2, 15588, Note_on_c, 0, 56, 33
2, 15591, Note_off_c, 0, 77, 64
2, 15595, Note_off_c, 0, 73, 64
2, 15611, Control_c, 0, 64, 0
2, 15644, Control_c, 0, 64, 127
2, 15681, Note_off_c, 0, 44, 64
2, 15683, Note_off_c, 0, 32, 64
2, 15739, Control_c, 0, 64, 0
2, 15777, Note_off_c, 0, 63, 64
2, 15777, Note_off_c, 0, 51, 64
2, 15777, Note_off_c, 0, 60, 64
2, 15781, Note_off_c, 0, 56, 64
2, 15801, Note_on_c, 0, 80, 74
2, 15808, Note_on_c, 0, 56, 29
2, 15812, Note_on_c, 0, 68, 66
2, 15812, Note_on_c, 0, 63, 28
2, 15812, Note_on_c, 0, 60, 28
2, 15815, Note_off_c, 0, 72, 64
2, 15815, Note_on_c, 0, 51, 29
2, 15818, Note_off_c, 0, 75, 64
2, 15875, Control_c, 0, 64, 0
2, 15908, Control_c, 0, 64, 127
2, 15936, Control_c, 0, 64, 0
2, 15986, Note_off_c, 0, 56, 64
2, 15990, Note_off_c, 0, 60, 64
2, 15990, Note_off_c, 0, 63, 64
2, 15993, Note_off_c, 0, 51, 64
2, 15999, Note_on_c, 0, 44, 49
2, 16003, Control_c, 0, 64, 0
2, 16024, Control_c, 0, 64, 0
2, 16032, Note_off_c, 0, 80, 64
2, 16043, Note_off_c, 0, 68, 64
2, 16047, Control_c, 0, 64, 127
2, 16111, Control_c, 0, 64, 0
2, 16127, Control_c, 0, 64, 0
2, 16192, Note_on_c, 0, 51, 21
2, 16192, Note_on_c, 0, 60, 28
2, 16196, Note_on_c, 0, 63, 62
2, 16200, Control_c, 0, 64, 0
2, 16201, Note_on_c, 0, 72, 73
2, 16214, Note_off_c, 0, 44, 64
2, 16229, Control_c, 0, 64, 0
2, 16243, Control_c, 0, 64, 127
2, 16288, Control_c, 0, 64, 0
2, 16311, Control_c, 0, 64, 127
2, 16358, Note_off_c, 0, 60, 64
2, 16358, Note_off_c, 0, 51, 64
2, 16375, Control_c, 0, 64, 0
2, 16391, Control_c, 0, 64, 0
2, 16394, Note_on_c, 0, 64, 55
2, 16400, Note_on_c, 0, 43, 44
2, 16401, Note_off_c, 0, 63, 64
2, 16416, Control_c, 0, 64, 0
2, 16431, Control_c, 0, 64, 127
2, 16477, Note_on_c, 0, 75, 72
2, 16493, Control_c, 0, 64, 0
2, 16506, Note_on_c, 0, 73, 54
2, 16507, Control_c, 0, 64, 127
2, 16508, Note_on_c, 0, 70, 41
2, 16514, Note_off_c, 0, 72, 64
2, 16535, Note_off_c, 0, 64, 64
2, 16539, Note_off_c, 0, 75, 64
2, 16596, Note_on_c, 0, 72, 62
2, 16603, Note_on_c, 0, 64, 62
2, 16604, Note_on_c, 0, 58, 40
2, 16608, Note_on_c, 0, 55, 18
2, 16608, Note_on_c, 0, 48, 18
2, 16614, Note_off_c, 0, 73, 64
2, 16615, Note_off_c, 0, 43, 64
2, 16616, Note_off_c, 0, 70, 64
2, 16680, Control_c, 0, 64, 0
2, 16695, Control_c, 0, 64, 127
2, 16697, Note_on_c, 0, 70, 72
2, 16704, Note_on_c, 0, 60, 48
2, 16705, Note_off_c, 0, 64, 64
2, 16714, Note_off_c, 0, 72, 64
2, 16770, Note_off_c, 0, 58, 64
2, 16774, Note_off_c, 0, 48, 64
2, 16774, Note_off_c, 0, 55, 64
2, 16800, Note_on_c, 0, 65, 54
2, 16802, Note_on_c, 0, 68, 74
2, 16809, Note_off_c, 0, 70, 64
2, 16813, Note_on_c, 0, 41, 44
2, 16816, Note_off_c, 0, 60, 64
2, 16848, Control_c, 0, 64, 0
2, 16881, Control_c, 0, 64, 127
2, 17005, Note_on_c, 0, 63, 64
2, 17007, Note_on_c, 0, 72, 71
2, 17013, Note_on_c, 0, 53, 32
2, 17015, Note_off_c, 0, 65, 64
2, 17017, Note_off_c, 0, 68, 64
2, 17017, Note_on_c, 0, 56, 36
2, 17036, Control_c, 0, 64, 0
2, 17058, Note_off_c, 0, 41, 64
2, 17065, Control_c, 0, 64, 127
2, 17112, Control_c, 0, 64, 0
2, 17145, Control_c, 0, 64, 127
2, 17153, Note_off_c, 0, 63, 64
2, 17179, Note_off_c, 0, 53, 64
2, 17183, Note_off_c, 0, 56, 64
2, 17208, Note_on_c, 0, 34, 40
2, 17210, Note_on_c, 0, 65, 64
2, 17217, Note_on_c, 0, 63, 57
2, 17219, Note_on_c, 0, 46, 40
2, 17222, Note_off_c, 0, 72, 64
2, 17248, Control_c, 0, 64, 0
2, 17292, Control_c, 0, 64, 127
2, 17300, Control_c, 0, 64, 0
2, 17329, Control_c, 0, 64, 127
2, 17393, Note_off_c, 0, 63, 64
2, 17421, Note_on_c, 0, 67, 66
2, 17432, Note_on_c, 0, 62, 41
2, 17442, Note_off_c, 0, 46, 64
2, 17442, Note_on_c, 0, 56, 21
2, 17444, Note_on_c, 0, 53, 36
2, 17448, Note_on_c, 0, 46, 21
2, 17451, Control_c, 0, 64, 0
2, 17465, Note_off_c, 0, 65, 64
2, 17481, Control_c, 0, 64, 127
2, 17512, Control_c, 0, 64, 0
2, 17556, Note_off_c, 0, 34, 64
2, 17556, Control_c, 0, 64, 127
2, 17608, Note_off_c, 0, 56, 64
2, 17610, Note_off_c, 0, 53, 64
2, 17614, Note_off_c, 0, 46, 64
2, 17614, Note_off_c, 0, 62, 64
2, 17618, Note_on_c, 0, 62, 62
2, 17620, Note_on_c, 0, 53, 21
2, 17621, Note_on_c, 0, 56, 42
2, 17626, Note_on_c, 0, 46, 48
2, 17671, Note_off_c, 0, 53, 64
2, 17672, Note_off_c, 0, 56, 64
2, 17677, Note_off_c, 0, 46, 64
2, 17710, Note_on_c, 0, 68, 72
2, 17715, Control_c, 0, 64, 0
2, 17741, Note_off_c, 0, 67, 64
2, 17745, Control_c, 0, 64, 127
2, 17814, Note_on_c, 0, 39, 48
2, 17823, Note_on_c, 0, 69, 73
2, 17829, Note_off_c, 0, 68, 64
2, 17853, Control_c, 0, 64, 0
2, 17866, Control_c, 0, 64, 127
2, 17922, Note_on_c, 0, 72, 57
2, 17945, Note_off_c, 0, 62, 64
2, 17950, Note_off_c, 0, 69, 64
2, 18027, Note_on_c, 0, 70, 81
2, 18033, Note_on_c, 0, 61, 67
2, 18034, Note_off_c, 0, 72, 64
2, 18036, Note_on_c, 0, 51, 47
2, 18040, Note_on_c, 0, 56, 19
2, 18064, Control_c, 0, 64, 0
2, 18078, Control_c, 0, 64, 127
2, 18116, Note_off_c, 0, 39, 64
2, 18117, Control_c, 0, 64, 0
2, 18130, Control_c, 0, 64, 127
2, 18135, Note_on_c, 0, 75, 82
2, 18143, Note_off_c, 0, 70, 64
2, 18150, Note_off_c, 0, 51, 64
2, 18154, Note_off_c, 0, 56, 64
2, 18208, Note_off_c, 0, 61, 64
2, 18260, Note_on_c, 0, 65, 77
2, 18264, Note_on_c, 0, 61, 73
2, 18268, Note_on_c, 0, 51, 54
2, 18272, Note_on_c, 0, 55, 46
2, 18278, Note_off_c, 0, 75, 64
2, 18302, Control_c, 0, 64, 0
2, 18325, Control_c, 0, 64, 127
2, 18328, Control_c, 0, 64, 0
2, 18342, Control_c, 0, 64, 127
2, 18429, Note_off_c, 0, 61, 64
2, 18434, Note_off_c, 0, 51, 64
2, 18438, Note_off_c, 0, 55, 64
2, 18508, Note_on_c, 0, 63, 81
2, 18508, Note_on_c, 0, 32, 77
2, 18512, Note_on_c, 0, 61, 75
2, 18519, Note_on_c, 0, 44, 64
2, 18535, Note_off_c, 0, 65, 64
2, 18537, Control_c, 0, 64, 0
2, 18540, Control_c, 0, 64, 0
2, 18566, Control_c, 0, 64, 0
2, 18571, Control_c, 0, 64, 127
2, 18589, Control_c, 0, 64, 127
2, 18735, Note_off_c, 0, 63, 64
2, 18739, Note_off_c, 0, 61, 64
2, 18744, Note_on_c, 0, 63, 66
2, 18745, Note_on_c, 0, 72, 94
2, 18745, Note_on_c, 0, 60, 75
2, 18750, Note_on_c, 0, 56, 66
2, 18754, Note_on_c, 0, 51, 56
2, 18760, Control_c, 0, 64, 0
2, 18801, Control_c, 0, 64, 0
2, 18804, Control_c, 0, 64, 0
2, 18815, Note_off_c, 0, 32, 64
2, 18826, Note_off_c, 0, 44, 64
2, 18832, Note_off_c, 0, 51, 64
2, 18832, Control_c, 0, 64, 127
2, 18835, Control_c, 0, 64, 127
2, 18836, Note_off_c, 0, 63, 64
2, 18842, Note_off_c, 0, 56, 64
2, 18912, Note_off_c, 0, 60, 64
2, 18973, Note_on_c, 0, 63, 66
2, 18973, Note_on_c, 0, 51, 59
2, 18976, Note_on_c, 0, 56, 65
2, 18983, Note_on_c, 0, 60, 75
2, 19020, Note_off_c, 0, 51, 64
2, 19020, Note_off_c, 0, 63, 64
2, 19023, Note_off_c, 0, 56, 64
2, 19024, Control_c, 0, 64, 0
2, 19070, Note_on_c, 0, 73, 88
2, 19074, Note_on_c, 0, 65, 73
2, 19085, Note_off_c, 0, 60, 64
2, 19091, Note_off_c, 0, 72, 64
2, 19096, Control_c, 0, 64, 127
2, 19176, Note_on_c, 0, 63, 81
2, 19180, Note_on_c, 0, 72, 93
2, 19192, Note_on_c, 0, 44, 74
2, 19192, Note_on_c, 0, 56, 59
2, 19197, Note_off_c, 0, 73, 64
2, 19201, Note_off_c, 0, 65, 64
2, 19209, Control_c, 0, 64, 0
2, 19235, Control_c, 0, 64, 127
2, 19305, Note_on_c, 0, 70, 73
2, 19309, Note_off_c, 0, 63, 64
2, 19312, Note_on_c, 0, 61, 74
2, 19313, Note_off_c, 0, 72, 64
2, 19345, Note_off_c, 0, 56, 64
2, 19351, Note_on_c, 0, 68, 93
2, 19356, Note_on_c, 0, 60, 74
2, 19356, Note_on_c, 0, 56, 59
2, 19356, Note_on_c, 0, 51, 48
2, 19360, Note_on_c, 0, 63, 66
2, 19365, Note_off_c, 0, 70, 64
2, 19372, Note_off_c, 0, 61, 64
2, 19379, Control_c, 0, 64, 0
2, 19424, Control_c, 0, 64, 127
2, 19448, Note_off_c, 0, 51, 64
2, 19448, Note_off_c, 0, 56, 64
2, 19452, Note_off_c, 0, 63, 64
2, 19468, Note_off_c, 0, 44, 64
2, 19473, Control_c, 0, 64, 0
2, 19499, Control_c, 0, 64, 127
2, 19552, Note_on_c, 0, 56, 40
2, 19554, Note_on_c, 0, 72, 93
2, 19554, Note_on_c, 0, 51, 65
2, 19557, Note_on_c, 0, 66, 71
2, 19558, Note_on_c, 0, 63, 40
2, 19567, Note_off_c, 0, 68, 64
2, 19572, Note_off_c, 0, 60, 64
2, 19643, Control_c, 0, 64, 0
2, 19656, Control_c, 0, 64, 0
2, 19664, Note_off_c, 0, 56, 64
2, 19666, Note_off_c, 0, 51, 64
2, 19670, Note_off_c, 0, 63, 64
2, 19688, Control_c, 0, 64, 127
2, 19759, Note_on_c, 0, 65, 75
2, 19759, Note_on_c, 0, 73, 75
2, 19767, Note_on_c, 0, 37, 82
2, 19767, Note_on_c, 0, 49, 67
2, 19773, Control_c, 0, 64, 0
2, 19776, Note_off_c, 0, 72, 64
2, 19779, Note_off_c, 0, 66, 64
2, 19822, Control_c, 0, 64, 127
2, 19920, Control_c, 0, 64, 0
2, 19929, Note_off_c, 0, 65, 64
2, 19958, Note_on_c, 0, 75, 77
2, 19962, Note_on_c, 0, 68, 83
2, 19962, Note_on_c, 0, 65, 66
2, 19964, Note_off_c, 0, 73, 64
2, 19967, Note_on_c, 0, 56, 47
2, 19971, Note_on_c, 0, 61, 64
2, 19987, Control_c, 0, 64, 0
2, 20021, Control_c, 0, 64, 127
2, 20030, Note_off_c, 0, 56, 64
2, 20037, Note_off_c, 0, 65, 64
2, 20037, Control_c, 0, 64, 0
2, 20039, Note_off_c, 0, 61, 64
2, 20042, Note_off_c, 0, 37, 64
2, 20053, Note_off_c, 0, 49, 64
2, 20086, Control_c, 0, 64, 127
2, 20131, Note_on_c, 0, 65, 63
2, 20135, Note_on_c, 0, 56, 64
2, 20135, Note_on_c, 0, 61, 65
2, 20164, Note_off_c, 0, 65, 64
2, 20172, Note_off_c, 0, 61, 64
2, 20180, Note_off_c, 0, 56, 64
2, 20229, Note_on_c, 0, 73, 65
2, 20235, Note_on_c, 0, 77, 74
2, 20244, Note_off_c, 0, 75, 64
2, 20248, Note_off_c, 0, 68, 64
2, 20251, Control_c, 0, 64, 0
2, 20285, Control_c, 0, 64, 127
2, 20324, Note_on_c, 0, 32, 75
2, 20328, Note_on_c, 0, 44, 75
2, 20334, Note_on_c, 0, 71, 75
2, 20337, Note_on_c, 0, 74, 72
2, 20346, Note_off_c, 0, 73, 64
2, 20352, Note_off_c, 0, 77, 64
2, 20447, Note_on_c, 0, 73, 81
2, 20448, Note_on_c, 0, 77, 75
2, 20459, Note_off_c, 0, 71, 64
2, 20462, Note_off_c, 0, 74, 64
2, 20504, Note_on_c, 0, 72, 81
2, 20508, Note_on_c, 0, 75, 92
2, 20520, Note_on_c, 0, 56, 59
2, 20520, Note_on_c, 0, 51, 59
2, 20524, Note_on_c, 0, 63, 75
2, 20528, Note_off_c, 0, 73, 64
2, 20529, Note_off_c, 0, 77, 64
2, 20530, Control_c, 0, 64, 0
2, 20576, Note_off_c, 0, 51, 64
2, 20576, Note_off_c, 0, 56, 64
2, 20576, Control_c, 0, 64, 127
2, 20604, Note_off_c, 0, 63, 64
2, 20641, Note_on_c, 0, 51, 74
2, 20668, Note_on_c, 0, 56, 75
2, 20696, Note_on_c, 0, 60, 57
2, 20723, Note_on_c, 0, 68, 81
2, 20740, Note_on_c, 0, 80, 73
2, 20743, Note_on_c, 0, 84, 93
2, 20754, Note_off_c, 0, 72, 64
2, 20758, Note_off_c, 0, 75, 64
2, 20794, Control_c, 0, 64, 0
2, 20800, Note_off_c, 0, 32, 64
2, 20804, Note_off_c, 0, 44, 64
2, 20840, Control_c, 0, 64, 127
2, 20890, Control_c, 0, 64, 0
2, 20944, Note_on_c, 0, 31, 83
2, 20944, Note_on_c, 0, 43, 83
2, 20967, Control_c, 0, 64, 0
2, 20976, Note_off_c, 0, 60, 64
2, 20979, Note_off_c, 0, 56, 64
2, 20996, Note_off_c, 0, 51, 64
2, 21000, Control_c, 0, 64, 127
2, 21039, Control_c, 0, 64, 0
2, 21054, Note_off_c, 0, 68, 64
2, 21102, Note_off_c, 0, 80, 64
2, 21105, Note_off_c, 0, 84, 64
2, 21124, Note_on_c, 0, 60, 55
2, 21124, Note_on_c, 0, 55, 58
2, 21127, Note_on_c, 0, 58, 50
2, 21135, Note_on_c, 0, 64, 70
2, 21136, Note_on_c, 0, 72, 77
2, 21154, Control_c, 0, 64, 0
2, 21162, Control_c, 0, 64, 0
2, 21173, Control_c, 0, 64, 127
2, 21230, Note_off_c, 0, 55, 64
2, 21230, Note_off_c, 0, 60, 64
2, 21231, Control_c, 0, 64, 0
2, 21232, Note_off_c, 0, 58, 64
2, 21240, Note_off_c, 0, 43, 64
2, 21240, Note_off_c, 0, 31, 64
2, 21244, Note_off_c, 0, 64, 64
2, 21263, Note_on_c, 0, 75, 67
2, 21264, Control_c, 0, 64, 127
2, 21284, Note_on_c, 0, 48, 58
2, 21299, Note_off_c, 0, 72, 64
2, 21303, Control_c, 0, 64, 0
2, 21304, Note_on_c, 0, 55, 58
2, 21312, Note_on_c, 0, 73, 60
2, 21316, Note_on_c, 0, 70, 65
2, 21316, Note_on_c, 0, 58, 54
2, 21320, Note_on_c, 0, 64, 58
2, 21331, Note_off_c, 0, 75, 64
2, 21394, Note_off_c, 0, 48, 64
2, 21410, Note_off_c, 0, 55, 64
2, 21422, Note_off_c, 0, 58, 64
2, 21426, Note_off_c, 0, 64, 64
2, 21426, Control_c, 0, 64, 0
2, 21437, Control_c, 0, 64, 127
2, 21456, Note_on_c, 0, 72, 80
2, 21456, Note_on_c, 0, 60, 70
2, 21459, Note_off_c, 0, 73, 64
2, 21463, Note_off_c, 0, 70, 64
2, 21482, Note_off_c, 0, 60, 64
2, 21482, Note_off_c, 0, 72, 64
2, 21504, Note_on_c, 0, 72, 80
2, 21510, Note_on_c, 0, 68, 66
2, 21516, Note_on_c, 0, 41, 58
2, 21516, Note_on_c, 0, 29, 71
2, 21546, Control_c, 0, 64, 0
2, 21571, Control_c, 0, 64, 127
2, 21624, Note_on_c, 0, 70, 48
2, 21632, Note_on_c, 0, 67, 63
2, 21638, Note_off_c, 0, 72, 64
2, 21644, Note_off_c, 0, 68, 64
2, 21684, Note_on_c, 0, 65, 75
2, 21688, Note_on_c, 0, 68, 71
2, 21688, Note_on_c, 0, 60, 47
2, 21695, Note_on_c, 0, 53, 50
2, 21702, Note_off_c, 0, 70, 64
2, 21709, Note_off_c, 0, 67, 64
2, 21724, Control_c, 0, 64, 0
2, 21736, Control_c, 0, 64, 127
2, 21774, Note_off_c, 0, 60, 64
2, 21784, Note_off_c, 0, 53, 64
2, 21804, Note_off_c, 0, 29, 64
2, 21804, Note_off_c, 0, 41, 64
2, 21810, Control_c, 0, 64, 0
2, 21835, Control_c, 0, 64, 127
2, 21884, Note_on_c, 0, 62, 62
2, 21884, Note_on_c, 0, 60, 51
2, 21884, Note_on_c, 0, 56, 51
2, 21884, Note_on_c, 0, 53, 51
2, 21885, Note_on_c, 0, 72, 74
2, 21897, Note_off_c, 0, 65, 64
2, 21901, Note_off_c, 0, 68, 64
2, 21966, Note_off_c, 0, 56, 64
2, 21971, Note_off_c, 0, 60, 64
2, 21976, Note_off_c, 0, 53, 64
2, 21988, Control_c, 0, 64, 0
2, 22000, Control_c, 0, 64, 127
2, 22064, Note_on_c, 0, 43, 44
2, 22071, Note_on_c, 0, 55, 40
2, 22071, Note_on_c, 0, 67, 63
2, 22075, Note_on_c, 0, 63, 54
2, 22079, Note_off_c, 0, 62, 64
2, 22080, Note_off_c, 0, 72, 64
2, 22088, Control_c, 0, 64, 0
2, 22133, Control_c, 0, 64, 127
2, 22252, Note_off_c, 0, 67, 64
2, 22252, Note_off_c, 0, 55, 64
2, 22260, Note_on_c, 0, 60, 35
2, 22260, Note_on_c, 0, 55, 36
2, 22268, Note_on_c, 0, 75, 57
2, 22268, Note_on_c, 0, 67, 49
2, 22270, Note_off_c, 0, 63, 64
2, 22289, Control_c, 0, 64, 0
2, 22344, Control_c, 0, 64, 127
2, 22352, Control_c, 0, 64, 0
2, 22365, Note_off_c, 0, 43, 64
2, 22397, Control_c, 0, 64, 127
2, 22425, Note_off_c, 0, 55, 64
2, 22425, Note_off_c, 0, 60, 64
2, 22441, Note_on_c, 0, 62, 31
2, 22441, Note_on_c, 0, 55, 31
2, 22524, Note_on_c, 0, 65, 46
2, 22528, Note_on_c, 0, 71, 47
2, 22542, Note_off_c, 0, 67, 64
2, 22542, Note_off_c, 0, 75, 64
2, 22553, Control_c, 0, 64, 0
2, 22591, Note_off_c, 0, 55, 64
2, 22591, Note_off_c, 0, 62, 64
2, 22608, Control_c, 0, 64, 127
2, 22619, Control_c, 0, 64, 0
2, 22631, Note_on_c, 0, 63, 63
2, 22635, Note_on_c, 0, 48, 48
2, 22635, Note_on_c, 0, 72, 57
2, 22635, Control_c, 0, 64, 127
2, 22636, Note_off_c, 0, 65, 64
2, 22642, Note_off_c, 0, 71, 64
2, 22728, Note_on_c, 0, 77, 71
2, 22728, Note_on_c, 0, 80, 57
2, 22740, Note_off_c, 0, 63, 64
2, 22744, Note_off_c, 0, 72, 64
2, 22812, Note_on_c, 0, 75, 44
2, 22816, Note_on_c, 0, 60, 32
2, 22819, Note_on_c, 0, 79, 65
2, 22819, Note_on_c, 0, 51, 47
2, 22820, Note_on_c, 0, 63, 37
2, 22823, Note_off_c, 0, 80, 64
2, 22823, Note_off_c, 0, 77, 64
2, 22842, Control_c, 0, 64, 0
2, 22867, Control_c, 0, 64, 127
2, 22876, Note_off_c, 0, 60, 64
2, 22879, Note_off_c, 0, 51, 64
2, 22880, Note_off_c, 0, 63, 64
2, 22880, Note_off_c, 0, 79, 64
2, 22881, Note_off_c, 0, 75, 64
2, 22883, Control_c, 0, 64, 0
2, 22899, Control_c, 0, 64, 127
2, 22903, Note_off_c, 0, 48, 64
2, 23008, Note_on_c, 0, 53, 49
2, 23011, Note_on_c, 0, 68, 62
2, 23012, Note_on_c, 0, 60, 49
2, 23012, Note_on_c, 0, 62, 55
2, 23024, Control_c, 0, 64, 0
2, 23046, Control_c, 0, 64, 127
2, 23106, Control_c, 0, 64, 0
2, 23131, Control_c, 0, 64, 127
2, 23159, Note_off_c, 0, 53, 64
2, 23163, Note_off_c, 0, 60, 64
2, 23204, Note_on_c, 0, 67, 64
2, 23208, Note_on_c, 0, 43, 56
2, 23211, Note_on_c, 0, 63, 62
2, 23213, Note_on_c, 0, 55, 44
2, 23221, Note_off_c, 0, 68, 64
2, 23222, Note_off_c, 0, 62, 64
2, 23224, Control_c, 0, 64, 0
2, 23258, Control_c, 0, 64, 127
2, 23288, Control_c, 0, 64, 0
2, 23310, Control_c, 0, 64, 127
2, 23376, Note_off_c, 0, 55, 64
2, 23387, Note_off_c, 0, 67, 64
2, 23387, Note_on_c, 0, 60, 27
2, 23387, Note_on_c, 0, 55, 35
2, 23389, Note_off_c, 0, 63, 64
2, 23397, Note_on_c, 0, 75, 59
2, 23398, Note_on_c, 0, 67, 50
2, 23417, Control_c, 0, 64, 0
2, 23448, Control_c, 0, 64, 127
2, 23485, Note_off_c, 0, 43, 64
2, 23488, Control_c, 0, 64, 0
2, 23522, Control_c, 0, 64, 127
2, 23556, Note_off_c, 0, 55, 64
2, 23556, Note_off_c, 0, 60, 64
2, 23560, Note_on_c, 0, 62, 42
2, 23562, Note_on_c, 0, 55, 33
2, 23644, Note_on_c, 0, 65, 32
2, 23646, Note_on_c, 0, 71, 46
2, 23655, Note_off_c, 0, 75, 64
2, 23656, Note_off_c, 0, 67, 64
2, 23681, Control_c, 0, 64, 0
2, 23712, Control_c, 0, 64, 127
2, 23719, Note_off_c, 0, 55, 64
2, 23725, Note_off_c, 0, 62, 64
2, 23757, Note_on_c, 0, 63, 63
2, 23764, Note_on_c, 0, 48, 50
2, 23767, Note_on_c, 0, 72, 64
2, 23772, Note_off_c, 0, 65, 64
2, 23774, Note_off_c, 0, 71, 64
2, 23884, Note_on_c, 0, 82, 50
2, 23908, Note_on_c, 0, 77, 55
2, 23912, Note_on_c, 0, 80, 64
2, 23923, Note_off_c, 0, 63, 64
2, 23924, Note_off_c, 0, 82, 64
2, 23933, Note_off_c, 0, 72, 64
2, 23999, Note_on_c, 0, 75, 66
2, 23999, Note_on_c, 0, 79, 63
2, 24004, Note_off_c, 0, 77, 64
2, 24006, Note_on_c, 0, 51, 44
2, 24008, Note_off_c, 0, 80, 64
2, 24016, Note_on_c, 0, 63, 37
2, 24016, Control_c, 0, 64, 0
2, 24045, Note_off_c, 0, 48, 64
2, 24053, Control_c, 0, 64, 127
2, 24063, Note_off_c, 0, 79, 64
2, 24063, Note_off_c, 0, 75, 64
2, 24067, Note_off_c, 0, 51, 64
2, 24076, Note_off_c, 0, 63, 64
2, 24239, Note_on_c, 0, 68, 50
2, 24242, Note_on_c, 0, 65, 48
2, 24248, Note_on_c, 0, 53, 49
2, 24254, Note_on_c, 0, 60, 44
2, 24279, Control_c, 0, 64, 0
2, 24280, Control_c, 0, 64, 0
2, 24292, Control_c, 0, 64, 127
2, 24299, Note_off_c, 0, 60, 64
2, 24300, Note_off_c, 0, 53, 64
2, 24314, Note_off_c, 0, 65, 64
2, 24317, Control_c, 0, 64, 127
2, 24433, Note_on_c, 0, 67, 56
2, 24436, Note_on_c, 0, 55, 44
2, 24437, Note_on_c, 0, 63, 58
2, 24439, Note_on_c, 0, 43, 39
2, 24448, Note_off_c, 0, 68, 64
2, 24453, Control_c, 0, 64, 0
2, 24485, Control_c, 0, 64, 127
2, 24543, Control_c, 0, 64, 0
2, 24556, Control_c, 0, 64, 127
2, 24580, Note_off_c, 0, 63, 64
2, 24594, Note_off_c, 0, 55, 64
2, 24602, Note_off_c, 0, 67, 64
2, 24616, Note_on_c, 0, 55, 36
2, 24618, Note_on_c, 0, 60, 28
2, 24620, Note_on_c, 0, 75, 50
2, 24627, Note_on_c, 0, 67, 49
2, 24643, Control_c, 0, 64, 0
2, 24717, Control_c, 0, 64, 0
2, 24718, Control_c, 0, 64, 127
2, 24749, Control_c, 0, 64, 127
2, 24766, Note_off_c, 0, 43, 64
2, 24793, Note_off_c, 0, 55, 64
2, 24795, Note_off_c, 0, 60, 64
2, 24808, Note_on_c, 0, 55, 36
2, 24808, Note_on_c, 0, 62, 42
2, 24893, Note_on_c, 0, 65, 52
2, 24897, Note_on_c, 0, 71, 52
2, 24907, Control_c, 0, 64, 0
2, 24908, Note_off_c, 0, 75, 64
2, 24915, Note_off_c, 0, 67, 64
2, 24976, Note_off_c, 0, 62, 64
2, 24976, Note_off_c, 0, 55, 64
2, 24982, Control_c, 0, 64, 127
2, 25016, Note_off_c, 0, 65, 64
2, 25028, Note_on_c, 0, 65, 50
2, 25031, Note_on_c, 0, 74, 49
2, 25032, Note_off_c, 0, 71, 64
2, 25042, Note_on_c, 0, 48, 41
2, 25058, Control_c, 0, 64, 0
2, 25091, Control_c, 0, 64, 127
2, 25132, Note_on_c, 0, 63, 49
2, 25133, Note_on_c, 0, 72, 57
2, 25140, Note_off_c, 0, 65, 64
2, 25143, Note_off_c, 0, 74, 64
2, 25219, Note_off_c, 0, 72, 64
2, 25228, Note_on_c, 0, 72, 74
2, 25240, Note_off_c, 0, 63, 64
2, 25319, Note_on_c, 0, 63, 37
2, 25321, Note_on_c, 0, 84, 72
2, 25322, Control_c, 0, 64, 0
2, 25332, Note_on_c, 0, 55, 33
2, 25349, Control_c, 0, 64, 0
2, 25355, Control_c, 0, 64, 127
2, 25373, Note_off_c, 0, 72, 64
2, 25412, Control_c, 0, 64, 127
2, 25496, Note_off_c, 0, 63, 64
2, 25498, Note_off_c, 0, 55, 64
2, 25504, Note_off_c, 0, 48, 64
2, 25578, Note_on_c, 0, 80, 52
2, 25600, Note_off_c, 0, 84, 64
2, 25613, Control_c, 0, 64, 0
2, 25676, Control_c, 0, 64, 127
2, 25677, Note_on_c, 0, 77, 47
2, 25685, Note_off_c, 0, 80, 64
2, 25775, Note_on_c, 0, 79, 52
2, 25782, Note_off_c, 0, 77, 64
2, 25784, Control_c, 0, 64, 0
2, 25867, Note_on_c, 0, 74, 56
2, 25907, Note_off_c, 0, 79, 64
2, 25956, Note_on_c, 0, 75, 48
2, 25980, Note_off_c, 0, 74, 64
2, 26039, Note_on_c, 0, 71, 40
2, 26048, Control_c, 0, 64, 0
2, 26062, Note_off_c, 0, 75, 64
2, 26072, Control_c, 0, 64, 127
2, 26085, Control_c, 0, 64, 0
2, 26102, Control_c, 0, 64, 127
2, 26116, Note_on_c, 0, 72, 50
2, 26144, Note_off_c, 0, 71, 64
2, 26213, Note_on_c, 0, 67, 26
2, 26244, Note_off_c, 0, 72, 64
2, 26304, Note_on_c, 0, 68, 40
2, 26327, Note_off_c, 0, 67, 64
2, 26336, Control_c, 0, 64, 127
2, 26349, Control_c, 0, 64, 0
2, 26366, Control_c, 0, 64, 127
2, 26394, Note_on_c, 0, 65, 36
2, 26412, Note_off_c, 0, 68, 64
2, 26496, Note_on_c, 0, 67, 39
2, 26517, Note_off_c, 0, 65, 64
2, 26599, Note_on_c, 0, 62, 40
2, 26613, Note_off_c, 0, 67, 64
2, 26615, Control_c, 0, 64, 0
2, 26668, Control_c, 0, 64, 127
2, 26701, Note_on_c, 0, 63, 37
2, 26715, Note_off_c, 0, 62, 64
2, 26798, Note_on_c, 0, 60, 31
2, 26814, Note_off_c, 0, 63, 64
2, 26879, Control_c, 0, 64, 0
2, 26897, Note_on_c, 0, 58, 26
2, 26916, Note_off_c, 0, 60, 64
2, 26932, Control_c, 0, 64, 127
2, 26940, Note_on_c, 0, 49, 41
2, 26964, Control_c, 0, 64, 0
2, 26983, Note_on_c, 0, 65, 47
2, 27031, Note_off_c, 0, 58, 64
2, 27097, Control_c, 0, 64, 127
2, 27169, Note_on_c, 0, 56, 29
2, 27176, Note_on_c, 0, 58, 20
2, 27195, Note_off_c, 0, 49, 64
2, 27228, Control_c, 0, 64, 0
2, 27286, Note_off_c, 0, 56, 64
2, 27296, Note_off_c, 0, 58, 64
2, 27361, Control_c, 0, 64, 127
2, 27362, Note_on_c, 0, 67, 44
2, 27364, Note_on_c, 0, 56, 31
2, 27371, Note_on_c, 0, 58, 24
2, 27378, Note_off_c, 0, 65, 64
2, 27461, Note_on_c, 0, 68, 47
2, 27499, Note_off_c, 0, 67, 64
2, 27556, Note_on_c, 0, 64, 39
2, 27568, Note_on_c, 0, 70, 54
2, 27586, Note_off_c, 0, 68, 64
2, 27657, Note_on_c, 0, 67, 58
2, 27663, Note_on_c, 0, 72, 40
2, 27669, Note_off_c, 0, 64, 64
2, 27681, Note_off_c, 0, 70, 64
2, 27756, Note_on_c, 0, 65, 47
2, 27764, Note_on_c, 0, 73, 66
2, 27769, Note_off_c, 0, 67, 64
2, 27777, Note_off_c, 0, 72, 64
2, 27788, Control_c, 0, 64, 0
2, 27819, Control_c, 0, 64, 127
2, 27834, Note_off_c, 0, 56, 64
2, 27841, Note_off_c, 0, 58, 64
2, 27947, Note_on_c, 0, 58, 24
2, 27947, Note_on_c, 0, 56, 27
2, 27970, Control_c, 0, 64, 0
2, 28003, Control_c, 0, 64, 127
2, 28042, Note_on_c, 0, 75, 49
2, 28052, Control_c, 0, 64, 0
2, 28069, Note_off_c, 0, 65, 64
2, 28077, Note_off_c, 0, 73, 64
2, 28083, Control_c, 0, 64, 127
2, 28149, Note_on_c, 0, 76, 50
2, 28168, Note_off_c, 0, 75, 64
2, 28203, Note_off_c, 0, 56, 64
2, 28203, Note_off_c, 0, 58, 64
2, 28232, Note_on_c, 0, 79, 49
2, 28234, Control_c, 0, 64, 0
2, 28249, Note_off_c, 0, 76, 64
2, 28267, Control_c, 0, 64, 127
2, 28322, Note_on_c, 0, 77, 49
2, 28322, Note_on_c, 0, 58, 29
2, 28327, Note_on_c, 0, 56, 27
2, 28332, Note_off_c, 0, 79, 64
2, 28344, Control_c, 0, 64, 0
2, 28367, Control_c, 0, 64, 127
2, 28447, Note_off_c, 0, 56, 64
2, 28465, Note_off_c, 0, 58, 64
2, 28492, Note_on_c, 0, 58, 29
2, 28497, Note_on_c, 0, 56, 24
2, 28500, Note_on_c, 0, 72, 50
2, 28505, Note_off_c, 0, 77, 64
2, 28608, Control_c, 0, 64, 0
2, 28631, Control_c, 0, 64, 127
2, 28640, Control_c, 0, 64, 0
2, 28694, Note_on_c, 0, 46, 37
2, 28700, Note_on_c, 0, 75, 44
2, 28733, Note_off_c, 0, 72, 64
2, 28739, Control_c, 0, 64, 0
2, 28750, Control_c, 0, 64, 127
2, 28803, Note_off_c, 0, 58, 64
2, 28808, Note_off_c, 0, 56, 64
2, 28904, Control_c, 0, 64, 0
2, 28913, Note_on_c, 0, 58, 36
2, 28920, Note_on_c, 0, 68, 20
2, 28929, Note_on_c, 0, 65, 29
2, 28952, Note_on_c, 0, 73, 59
2, 28965, Control_c, 0, 64, 0
2, 28976, Note_off_c, 0, 75, 64
2, 28997, Note_off_c, 0, 46, 64
2, 29002, Control_c, 0, 64, 127
2, 29003, Control_c, 0, 64, 0
2, 29014, Control_c, 0, 64, 127
2, 29036, Note_off_c, 0, 58, 64
2, 29045, Note_off_c, 0, 68, 64
2, 29054, Note_off_c, 0, 65, 64
2, 29140, Note_on_c, 0, 65, 32
2, 29140, Note_on_c, 0, 58, 36
2, 29147, Note_on_c, 0, 68, 32
2, 29229, Control_c, 0, 64, 0
2, 29239, Note_on_c, 0, 72, 55
2, 29252, Note_off_c, 0, 73, 64
2, 29266, Control_c, 0, 64, 127
2, 29310, Note_off_c, 0, 58, 64
2, 29310, Note_off_c, 0, 65, 64
2, 29317, Note_off_c, 0, 68, 64
2, 29326, Note_off_c, 0, 72, 64
2, 29349, Note_on_c, 0, 49, 49
2, 29380, Note_on_c, 0, 72, 50
2, 29396, Control_c, 0, 64, 0
2, 29428, Control_c, 0, 64, 127
2, 29437, Note_on_c, 0, 65, 58
2, 29480, Note_off_c, 0, 72, 64
2, 29564, Note_on_c, 0, 56, 29
2, 29565, Note_on_c, 0, 58, 29
2, 29580, Control_c, 0, 64, 0
2, 29594, Control_c, 0, 64, 127
2, 29660, Control_c, 0, 64, 0
2, 29664, Note_off_c, 0, 49, 64
2, 29674, Note_off_c, 0, 56, 64
2, 29681, Note_off_c, 0, 58, 64
2, 29692, Control_c, 0, 64, 127
2, 29751, Note_on_c, 0, 67, 50
2, 29767, Note_on_c, 0, 58, 29
2, 29772, Note_on_c, 0, 56, 23
2, 29777, Note_off_c, 0, 65, 64
2, 29777, Control_c, 0, 64, 0
2, 29811, Control_c, 0, 64, 127
2, 29842, Note_on_c, 0, 68, 52
2, 29844, Control_c, 0, 64, 0
2, 29858, Control_c, 0, 64, 127
2, 29869, Note_off_c, 0, 67, 64
2, 29925, Note_on_c, 0, 70, 54
2, 29927, Note_on_c, 0, 64, 40
2, 29955, Note_off_c, 0, 68, 64
2, 29996, Note_on_c, 0, 72, 63
2, 30000, Note_on_c, 0, 67, 41
2, 30029, Note_off_c, 0, 64, 64
2, 30031, Note_off_c, 0, 70, 64
2, 30041, Control_c, 0, 64, 0
2, 30075, Control_c, 0, 64, 127
2, 30086, Note_on_c, 0, 73, 62
2, 30098, Note_off_c, 0, 72, 64
2, 30098, Note_on_c, 0, 65, 47
2, 30104, Note_off_c, 0, 67, 64
2, 30117, Control_c, 0, 64, 0
2, 30148, Control_c, 0, 64, 127
2, 30212, Note_off_c, 0, 58, 64
2, 30217, Note_off_c, 0, 56, 64
2, 30268, Note_on_c, 0, 58, 1
2, 30273, Note_on_c, 0, 56, 24
2, 30295, Control_c, 0, 64, 0
2, 30335, Control_c, 0, 64, 127
2, 30356, Note_on_c, 0, 75, 50
2, 30381, Control_c, 0, 64, 0
2, 30396, Note_off_c, 0, 73, 64
2, 30408, Note_off_c, 0, 65, 64
2, 30412, Control_c, 0, 64, 127
2, 30454, Note_off_c, 0, 58, 64
2, 30459, Note_off_c, 0, 56, 64
2, 30462, Note_on_c, 0, 51, 47
2, 30472, Note_on_c, 0, 76, 50
2, 30482, Note_off_c, 0, 75, 64
2, 30510, Control_c, 0, 64, 0
2, 30524, Control_c, 0, 64, 127
2, 30559, Control_c, 0, 64, 0
2, 30564, Note_on_c, 0, 79, 47
2, 30599, Control_c, 0, 64, 127
2, 30602, Note_off_c, 0, 76, 64
2, 30653, Note_on_c, 0, 61, 36
2, 30653, Note_on_c, 0, 77, 49
2, 30666, Note_on_c, 0, 56, 26
2, 30670, Note_off_c, 0, 79, 64
2, 30670, Control_c, 0, 64, 0
2, 30712, Control_c, 0, 64, 127
2, 30730, Note_off_c, 0, 51, 64
2, 30774, Control_c, 0, 64, 0
2, 30779, Note_off_c, 0, 56, 64
2, 30788, Control_c, 0, 64, 127
2, 30791, Note_off_c, 0, 61, 64
2, 30843, Note_on_c, 0, 55, 42
2, 30846, Note_on_c, 0, 61, 21
2, 30847, Note_on_c, 0, 70, 50
2, 30868, Note_off_c, 0, 77, 64
2, 30934, Control_c, 0, 64, 0
2, 30976, Control_c, 0, 64, 127
2, 31030, Note_on_c, 0, 44, 39
2, 31031, Note_on_c, 0, 73, 52
2, 31044, Control_c, 0, 64, 0
2, 31061, Note_off_c, 0, 70, 64
2, 31067, Control_c, 0, 64, 127
2, 31103, Note_off_c, 0, 55, 64
2, 31106, Note_off_c, 0, 61, 64
2, 31235, Note_on_c, 0, 51, 36
2, 31235, Note_on_c, 0, 72, 56
2, 31236, Note_on_c, 0, 60, 40
2, 31242, Note_on_c, 0, 56, 42
2, 31264, Control_c, 0, 64, 0
2, 31266, Note_off_c, 0, 73, 64
2, 31296, Control_c, 0, 64, 127
2, 31308, Control_c, 0, 64, 0
2, 31330, Note_off_c, 0, 44, 64
2, 31331, Control_c, 0, 64, 127
2, 31433, Note_off_c, 0, 51, 64
2, 31434, Note_off_c, 0, 60, 64
2, 31440, Note_off_c, 0, 56, 64
2, 31453, Note_on_c, 0, 60, 47
2, 31454, Note_on_c, 0, 56, 44
2, 31459, Note_on_c, 0, 52, 44
2, 31475, Control_c, 0, 64, 0
2, 31500, Control_c, 0, 64, 127
2, 31528, Control_c, 0, 64, 0
2, 31552, Note_on_c, 0, 68, 55
2, 31560, Note_off_c, 0, 72, 64
2, 31560, Control_c, 0, 64, 127
2, 31629, Note_off_c, 0, 60, 64
2, 31630, Note_off_c, 0, 56, 64
2, 31635, Note_off_c, 0, 52, 64
2, 31676, Note_on_c, 0, 53, 56
2, 31676, Note_on_c, 0, 58, 47
2, 31708, Note_on_c, 0, 49, 55
2, 31710, Control_c, 0, 64, 0
2, 31712, Note_on_c, 0, 37, 54
2, 31713, Note_off_c, 0, 68, 64
2, 31714, Note_on_c, 0, 65, 57
2, 31739, Control_c, 0, 64, 0
2, 31747, Control_c, 0, 64, 127
2, 31764, Control_c, 0, 64, 127
2, 31809, Note_off_c, 0, 58, 64
2, 31812, Note_off_c, 0, 53, 64
2, 31896, Note_on_c, 0, 56, 31
2, 31899, Note_on_c, 0, 58, 36
2, 31974, Control_c, 0, 64, 0
2, 32011, Control_c, 0, 64, 127
2, 32016, Note_off_c, 0, 56, 64
2, 32019, Note_off_c, 0, 58, 64
2, 32020, Note_off_c, 0, 49, 64
2, 32024, Note_off_c, 0, 37, 64
2, 32074, Note_on_c, 0, 67, 49
2, 32088, Note_on_c, 0, 56, 48
2, 32090, Note_on_c, 0, 58, 28
2, 32106, Note_off_c, 0, 65, 64
2, 32119, Control_c, 0, 64, 0
2, 32152, Control_c, 0, 64, 127
2, 32169, Note_on_c, 0, 68, 58
2, 32194, Note_off_c, 0, 67, 64
2, 32270, Note_on_c, 0, 70, 59
2, 32272, Note_on_c, 0, 64, 42
2, 32293, Note_off_c, 0, 68, 64
2, 32352, Note_on_c, 0, 67, 48
2, 32352, Note_on_c, 0, 72, 58
2, 32369, Note_off_c, 0, 70, 64
2, 32371, Note_off_c, 0, 64, 64
2, 32383, Control_c, 0, 64, 0
2, 32416, Control_c, 0, 64, 127
2, 32443, Note_on_c, 0, 73, 57
2, 32444, Note_off_c, 0, 67, 64
2, 32444, Note_on_c, 0, 65, 50
2, 32459, Note_off_c, 0, 72, 64
2, 32461, Control_c, 0, 64, 0
2, 32499, Control_c, 0, 64, 127
2, 32581, Note_off_c, 0, 56, 64
2, 32583, Note_off_c, 0, 58, 64
2, 32595, Note_off_c, 0, 65, 64
2, 32608, Note_on_c, 0, 74, 49
2, 32623, Note_on_c, 0, 56, 39
2, 32624, Note_on_c, 0, 58, 1
2, 32631, Note_off_c, 0, 73, 64
2, 32696, Note_on_c, 0, 75, 63
2, 32714, Note_off_c, 0, 74, 64
2, 32725, Control_c, 0, 64, 0
2, 32763, Control_c, 0, 64, 127
2, 32800, Note_on_c, 0, 76, 55
2, 32822, Note_off_c, 0, 75, 64
2, 32875, Note_on_c, 0, 79, 49
2, 32918, Note_off_c, 0, 76, 64
2, 32941, Note_off_c, 0, 56, 64
2, 32942, Note_off_c, 0, 58, 64
2, 32975, Note_on_c, 0, 58, 48
2, 32976, Note_on_c, 0, 77, 54
2, 32976, Note_on_c, 0, 56, 28
2, 32992, Note_off_c, 0, 79, 64
2, 32995, Control_c, 0, 64, 0
2, 33043, Control_c, 0, 64, 127
2, 33071, Note_off_c, 0, 58, 64
2, 33072, Note_off_c, 0, 56, 64
2, 33148, Note_on_c, 0, 56, 35
2, 33148, Note_on_c, 0, 58, 28
2, 33156, Note_on_c, 0, 72, 57
2, 33165, Note_off_c, 0, 77, 64
2, 33227, Control_c, 0, 64, 0
2, 33259, Control_c, 0, 64, 0
2, 33307, Control_c, 0, 64, 127
2, 33341, Note_on_c, 0, 75, 56
2, 33345, Note_on_c, 0, 46, 47
2, 33358, Note_off_c, 0, 72, 64
2, 33366, Control_c, 0, 64, 0
2, 33377, Note_off_c, 0, 58, 64
2, 33377, Note_off_c, 0, 56, 64
2, 33392, Control_c, 0, 64, 127
2, 33491, Control_c, 0, 64, 0
2, 33502, Note_on_c, 0, 77, 47
2, 33516, Note_off_c, 0, 75, 64
2, 33540, Note_on_c, 0, 75, 50
2, 33553, Note_on_c, 0, 58, 19
2, 33568, Note_on_c, 0, 65, 18
2, 33571, Note_on_c, 0, 68, 29
2, 33572, Note_off_c, 0, 77, 64
2, 33581, Note_on_c, 0, 73, 42
2, 33597, Control_c, 0, 64, 0
2, 33602, Note_off_c, 0, 75, 64
2, 33620, Control_c, 0, 64, 127
2, 33625, Note_off_c, 0, 46, 64
2, 33630, Control_c, 0, 64, 0
2, 33656, Control_c, 0, 64, 127
2, 33673, Note_off_c, 0, 58, 64
2, 33681, Note_off_c, 0, 68, 64
2, 33686, Note_off_c, 0, 65, 64
2, 33744, Note_on_c, 0, 65, 29
2, 33744, Note_on_c, 0, 58, 29
2, 33746, Note_on_c, 0, 68, 24
2, 33836, Note_on_c, 0, 72, 56
2, 33856, Note_off_c, 0, 73, 64
2, 33861, Control_c, 0, 64, 0
2, 33884, Control_c, 0, 64, 127
2, 33938, Note_off_c, 0, 72, 64
2, 33940, Note_on_c, 0, 49, 49
2, 33979, Note_on_c, 0, 72, 55
2, 33985, Control_c, 0, 64, 0
2, 33993, Note_off_c, 0, 58, 64
2, 33993, Note_off_c, 0, 65, 64
2, 33995, Note_off_c, 0, 68, 64
2, 34018, Control_c, 0, 64, 127
2, 34032, Note_on_c, 0, 65, 62
2, 34062, Note_off_c, 0, 72, 64
2, 34160, Note_on_c, 0, 58, 40
2, 34163, Note_on_c, 0, 56, 40
2, 34177, Control_c, 0, 64, 0
2, 34201, Control_c, 0, 64, 127
2, 34249, Control_c, 0, 64, 0
2, 34282, Control_c, 0, 64, 127
2, 34320, Note_off_c, 0, 58, 64
2, 34323, Note_off_c, 0, 56, 64
2, 34332, Note_on_c, 0, 56, 20
2, 34344, Note_on_c, 0, 58, 27
2, 34344, Note_on_c, 0, 67, 55
2, 34367, Note_off_c, 0, 65, 64
2, 34383, Control_c, 0, 64, 0
2, 34386, Note_off_c, 0, 49, 64
2, 34404, Control_c, 0, 64, 127
2, 34433, Note_on_c, 0, 68, 52
2, 34441, Control_c, 0, 64, 0
2, 34465, Note_off_c, 0, 67, 64
2, 34465, Control_c, 0, 64, 127
2, 34523, Note_on_c, 0, 70, 52
2, 34527, Note_on_c, 0, 64, 41
2, 34555, Note_off_c, 0, 68, 64
2, 34590, Note_on_c, 0, 67, 50
2, 34607, Note_on_c, 0, 72, 50
2, 34610, Note_off_c, 0, 70, 64
2, 34614, Note_off_c, 0, 64, 64
2, 34647, Control_c, 0, 64, 0
2, 34668, Control_c, 0, 64, 127
2, 34692, Note_on_c, 0, 73, 62
2, 34692, Note_on_c, 0, 65, 55
2, 34700, Note_off_c, 0, 72, 64
2, 34709, Control_c, 0, 64, 0
2, 34714, Note_off_c, 0, 67, 64
2, 34743, Control_c, 0, 64, 127
2, 34860, Note_off_c, 0, 56, 64
2, 34872, Note_off_c, 0, 58, 64
2, 34898, Note_on_c, 0, 75, 56
2, 34908, Note_on_c, 0, 56, 37
2, 34910, Note_on_c, 0, 58, 52
2, 34917, Note_off_c, 0, 65, 64
2, 34917, Note_off_c, 0, 73, 64
2, 34925, Control_c, 0, 64, 0
2, 34947, Control_c, 0, 64, 127
2, 34973, Control_c, 0, 64, 0
2, 35000, Note_on_c, 0, 76, 42
2, 35007, Control_c, 0, 64, 127
2, 35008, Note_off_c, 0, 75, 64
2, 35088, Note_on_c, 0, 49, 62
2, 35096, Note_on_c, 0, 77, 47
2, 35134, Note_off_c, 0, 76, 64
2, 35151, Note_off_c, 0, 58, 64
2, 35173, Note_off_c, 0, 56, 64
2, 35189, Control_c, 0, 64, 0
2, 35192, Note_on_c, 0, 79, 58
2, 35211, Control_c, 0, 64, 127
2, 35216, Note_off_c, 0, 77, 64
2, 35273, Note_on_c, 0, 80, 50
2, 35301, Note_off_c, 0, 79, 64
2, 35448, Note_on_c, 0, 55, 57
2, 35453, Note_on_c, 0, 65, 57
2, 35456, Note_on_c, 0, 82, 67
2, 35478, Note_off_c, 0, 80, 64
2, 35510, Note_off_c, 0, 49, 64
2, 35537, Note_on_c, 0, 83, 52
2, 35556, Note_off_c, 0, 82, 64
2, 35634, Note_on_c, 0, 84, 71
2, 35636, Note_on_c, 0, 48, 55
2, 35655, Note_off_c, 0, 83, 64
2, 35669, Control_c, 0, 64, 0
2, 35680, Note_off_c, 0, 55, 64
2, 35685, Note_off_c, 0, 65, 64
2, 35691, Control_c, 0, 64, 127
2, 35707, Note_off_c, 0, 84, 64
2, 35763, Note_on_c, 0, 72, 33
2, 35784, Note_off_c, 0, 72, 64
2, 35809, Note_on_c, 0, 72, 64
2, 35822, Note_on_c, 0, 64, 48
2, 35824, Note_on_c, 0, 55, 49
2, 35830, Control_c, 0, 64, 0
2, 35853, Control_c, 0, 64, 127
2, 35909, Note_off_c, 0, 72, 64
2, 35933, Control_c, 0, 64, 0
2, 35954, Note_off_c, 0, 64, 64
2, 35955, Control_c, 0, 64, 127
2, 35956, Note_off_c, 0, 55, 64
2, 36004, Note_on_c, 0, 72, 66
2, 36012, Note_on_c, 0, 55, 44
2, 36013, Note_on_c, 0, 64, 48
2, 36027, Control_c, 0, 64, 0
2, 36049, Control_c, 0, 64, 127
2, 36094, Control_c, 0, 64, 0
2, 36101, Note_off_c, 0, 48, 64
2, 36117, Control_c, 0, 64, 127
2, 36132, Note_off_c, 0, 72, 64
2, 36144, Note_off_c, 0, 55, 64
2, 36145, Note_off_c, 0, 64, 64
2, 36196, Note_on_c, 0, 72, 71
2, 36203, Note_on_c, 0, 48, 49
2, 36222, Control_c, 0, 64, 0
2, 36255, Control_c, 0, 64, 127
2, 36291, Control_c, 0, 64, 0
2, 36313, Control_c, 0, 64, 127
2, 36379, Note_on_c, 0, 61, 44
2, 36386, Note_on_c, 0, 53, 42
2, 36405, Control_c, 0, 64, 0
2, 36439, Control_c, 0, 64, 127
2, 36452, Note_on_c, 0, 73, 54
2, 36483, Note_off_c, 0, 72, 64
2, 36486, Control_c, 0, 64, 0
2, 36511, Note_off_c, 0, 61, 64
2, 36518, Note_off_c, 0, 53, 64
2, 36519, Control_c, 0, 64, 127
2, 36549, Note_on_c, 0, 61, 40
2, 36553, Note_on_c, 0, 77, 50
2, 36556, Note_off_c, 0, 73, 64
2, 36564, Note_on_c, 0, 53, 44
2, 36626, Note_on_c, 0, 75, 44
2, 36661, Note_off_c, 0, 77, 64
2, 36668, Note_off_c, 0, 48, 64
2, 36669, Control_c, 0, 64, 0
2, 36681, Note_off_c, 0, 61, 64
2, 36696, Note_off_c, 0, 53, 64
2, 36703, Control_c, 0, 64, 127
2, 36717, Note_on_c, 0, 36, 81
2, 36729, Note_off_c, 0, 75, 64
2, 36735, Control_c, 0, 64, 0
2, 36775, Control_c, 0, 64, 127
2, 36864, Note_on_c, 0, 72, 56
2, 36904, Note_on_c, 0, 67, 58
2, 36909, Note_on_c, 0, 63, 58
2, 36913, Note_on_c, 0, 55, 50
2, 36939, Note_off_c, 0, 72, 64
2, 36999, Control_c, 0, 64, 0
2, 37039, Control_c, 0, 64, 127
2, 37041, Note_off_c, 0, 63, 64
2, 37045, Note_off_c, 0, 55, 64
2, 37081, Note_on_c, 0, 63, 49
2, 37086, Note_on_c, 0, 72, 56
2, 37091, Note_off_c, 0, 67, 64
2, 37095, Note_on_c, 0, 55, 40
2, 37101, Control_c, 0, 64, 0
2, 37126, Control_c, 0, 64, 127
2, 37162, Note_on_c, 0, 67, 56
2, 37163, Note_off_c, 0, 36, 64
2, 37181, Note_off_c, 0, 72, 64
2, 37254, Note_on_c, 0, 70, 64
2, 37259, Note_on_c, 0, 48, 49
2, 37267, Control_c, 0, 64, 0
2, 37274, Note_off_c, 0, 67, 64
2, 37315, Control_c, 0, 64, 127
2, 37321, Note_off_c, 0, 63, 64
2, 37335, Note_off_c, 0, 55, 64
2, 37365, Control_c, 0, 64, 0
2, 37390, Control_c, 0, 64, 127
2, 37428, Note_on_c, 0, 61, 49
2, 37434, Note_on_c, 0, 53, 49
2, 37521, Note_on_c, 0, 72, 52
2, 37531, Control_c, 0, 64, 0
2, 37544, Note_off_c, 0, 70, 64
2, 37560, Note_off_c, 0, 61, 64
2, 37566, Note_off_c, 0, 53, 64
2, 37579, Control_c, 0, 64, 127
2, 37607, Note_on_c, 0, 61, 56
2, 37607, Note_on_c, 0, 75, 50
2, 37614, Note_on_c, 0, 53, 49
2, 37639, Note_off_c, 0, 72, 64
2, 37683, Note_on_c, 0, 73, 54
2, 37689, Note_off_c, 0, 75, 64
2, 37724, Note_off_c, 0, 48, 64
2, 37764, Note_on_c, 0, 36, 81
2, 37784, Control_c, 0, 64, 0
2, 37785, Note_off_c, 0, 61, 64
2, 37792, Note_off_c, 0, 53, 64
2, 37820, Note_off_c, 0, 73, 64
2, 37822, Control_c, 0, 64, 127
2, 37881, Note_on_c, 0, 72, 63
2, 37914, Note_off_c, 0, 72, 64
2, 37928, Note_on_c, 0, 55, 48
2, 37928, Note_on_c, 0, 52, 48
2, 37932, Note_on_c, 0, 72, 56
2, 37936, Note_on_c, 0, 60, 48
2, 37940, Note_on_c, 0, 64, 48
2, 37952, Control_c, 0, 64, 0
2, 37985, Control_c, 0, 64, 127
2, 38048, Control_c, 0, 64, 0
2, 38067, Note_off_c, 0, 72, 64
2, 38086, Control_c, 0, 64, 127
2, 38121, Note_off_c, 0, 52, 64
2, 38121, Note_off_c, 0, 55, 64
2, 38126, Note_on_c, 0, 67, 65
2, 38128, Note_on_c, 0, 58, 67
2, 38129, Note_off_c, 0, 60, 64
2, 38132, Note_on_c, 0, 72, 56
2, 38133, Note_off_c, 0, 64, 64
2, 38191, Note_off_c, 0, 36, 64
2, 38216, Control_c, 0, 64, 0
2, 38249, Control_c, 0, 64, 127
2, 38310, Note_on_c, 0, 56, 54
2, 38311, Note_off_c, 0, 58, 64
2, 38400, Note_on_c, 0, 65, 62
2, 38400, Note_on_c, 0, 58, 66
2, 38403, Note_on_c, 0, 73, 62
2, 38415, Note_off_c, 0, 72, 64
2, 38418, Note_off_c, 0, 56, 64
2, 38426, Note_off_c, 0, 67, 64
2, 38475, Note_on_c, 0, 56, 57
2, 38479, Note_on_c, 0, 80, 58
2, 38506, Note_off_c, 0, 73, 64
2, 38512, Note_off_c, 0, 58, 64
2, 38516, Note_off_c, 0, 65, 64
2, 38603, Note_off_c, 0, 56, 64
2, 38662, Note_on_c, 0, 77, 56
2, 38668, Note_on_c, 0, 48, 48
2, 38695, Note_off_c, 0, 80, 64
2, 38756, Note_on_c, 0, 70, 56
2, 38779, Note_off_c, 0, 77, 64
2, 38800, Control_c, 0, 64, 0
2, 38841, Note_on_c, 0, 36, 79
2, 38841, Control_c, 0, 64, 0
2, 38871, Note_off_c, 0, 70, 64
2, 38878, Note_off_c, 0, 48, 64
2, 38879, Control_c, 0, 64, 127
2, 38956, Note_on_c, 0, 63, 65
2, 38960, Note_on_c, 0, 55, 52
2, 38961, Note_on_c, 0, 72, 56
2, 38983, Note_off_c, 0, 63, 64
2, 38984, Note_off_c, 0, 55, 64
2, 39012, Note_on_c, 0, 67, 67
2, 39012, Note_on_c, 0, 63, 59
2, 39012, Note_on_c, 0, 55, 44
2, 39025, Control_c, 0, 64, 0
2, 39027, Note_off_c, 0, 72, 64
2, 39057, Control_c, 0, 64, 127
2, 39064, Control_c, 0, 64, 0
2, 39105, Control_c, 0, 64, 0
2, 39143, Note_off_c, 0, 55, 64
2, 39143, Note_off_c, 0, 63, 64
2, 39143, Control_c, 0, 64, 127
2, 39204, Note_on_c, 0, 63, 62
2, 39207, Note_off_c, 0, 67, 64
2, 39207, Note_on_c, 0, 55, 57
2, 39207, Note_on_c, 0, 72, 66
2, 39279, Note_off_c, 0, 36, 64
2, 39280, Note_on_c, 0, 67, 58
2, 39289, Control_c, 0, 64, 0
2, 39319, Note_off_c, 0, 72, 64
2, 39321, Control_c, 0, 64, 127
2, 39368, Note_on_c, 0, 53, 66
2, 39380, Note_on_c, 0, 68, 56
2, 39394, Note_off_c, 0, 55, 64
2, 39404, Note_off_c, 0, 67, 64
2, 39451, Note_on_c, 0, 70, 55
2, 39456, Note_on_c, 0, 61, 48
2, 39456, Note_on_c, 0, 55, 71
2, 39469, Note_off_c, 0, 53, 64
2, 39483, Note_off_c, 0, 68, 64
2, 39495, Note_off_c, 0, 63, 64
2, 39538, Note_on_c, 0, 80, 62
2, 39547, Note_on_c, 0, 53, 58
2, 39552, Note_off_c, 0, 55, 64
2, 39561, Note_off_c, 0, 70, 64
2, 39711, Note_on_c, 0, 56, 58
2, 39712, Note_on_c, 0, 48, 59
2, 39716, Note_on_c, 0, 77, 56
2, 39730, Note_off_c, 0, 53, 64
2, 39731, Note_off_c, 0, 61, 64
2, 39734, Note_off_c, 0, 80, 64
2, 39798, Note_on_c, 0, 65, 65
2, 39819, Note_off_c, 0, 77, 64
2, 39888, Note_on_c, 0, 64, 65
2, 39892, Note_on_c, 0, 72, 50
2, 39894, Note_off_c, 0, 65, 64
2, 39900, Note_on_c, 0, 55, 47
2, 39908, Note_off_c, 0, 56, 64
2, 39912, Control_c, 0, 64, 0
2, 39923, Control_c, 0, 64, 127
2, 39942, Note_off_c, 0, 64, 64
2, 39944, Note_off_c, 0, 55, 64
2, 39983, Note_on_c, 0, 73, 59
2, 39984, Note_on_c, 0, 64, 65
2, 39996, Note_on_c, 0, 46, 44
2, 39998, Note_off_c, 0, 72, 64
2, 40004, Note_on_c, 0, 55, 48
2, 40016, Control_c, 0, 64, 0
2, 40019, Note_off_c, 0, 48, 64
2, 40027, Control_c, 0, 64, 127
2, 40038, Note_off_c, 0, 64, 64
2, 40056, Note_off_c, 0, 55, 64
2, 40091, Note_on_c, 0, 55, 52
2, 40091, Note_on_c, 0, 49, 44
2, 40097, Note_on_c, 0, 70, 56
2, 40097, Note_on_c, 0, 64, 67
2, 40118, Note_off_c, 0, 46, 64
2, 40124, Note_off_c, 0, 73, 64
2, 40126, Control_c, 0, 64, 0
2, 40172, Control_c, 0, 64, 127
2, 40176, Control_c, 0, 64, 0
2, 40187, Control_c, 0, 64, 127
2, 40224, Note_off_c, 0, 55, 64
2, 40241, Note_off_c, 0, 64, 64
2, 40249, Note_off_c, 0, 49, 64
2, 40280, Control_c, 0, 64, 0
2, 40291, Control_c, 0, 64, 127
2, 40320, Note_on_c, 0, 63, 59
2, 40320, Note_on_c, 0, 48, 48
2, 40323, Note_on_c, 0, 55, 44
2, 40329, Note_on_c, 0, 75, 66
2, 40336, Note_off_c, 0, 70, 64
2, 40347, Control_c, 0, 64, 0
2, 40362, Control_c, 0, 64, 127
2, 40390, Control_c, 0, 64, 0
2, 40436, Control_c, 0, 64, 127
2, 40450, Note_on_c, 0, 46, 48
2, 40453, Note_on_c, 0, 61, 62
2, 40467, Note_off_c, 0, 48, 64
2, 40489, Note_off_c, 0, 55, 64
2, 40595, Note_off_c, 0, 75, 64
2, 40599, Note_on_c, 0, 60, 56
2, 40606, Note_off_c, 0, 46, 64
2, 40609, Note_off_c, 0, 61, 64
2, 40611, Control_c, 0, 64, 0
2, 40613, Note_on_c, 0, 44, 56
2, 40617, Note_on_c, 0, 51, 57
2, 40626, Control_c, 0, 64, 127
2, 40635, Control_c, 0, 64, 0
2, 40696, Control_c, 0, 64, 127
2, 40707, Note_off_c, 0, 44, 64
2, 40712, Note_off_c, 0, 51, 64
2, 40775, Note_off_c, 0, 60, 64
2, 40785, Note_off_c, 0, 63, 64
2, 40881, Note_on_c, 0, 60, 66
2, 40889, Note_on_c, 0, 63, 40
2, 40890, Note_on_c, 0, 68, 29
2, 40899, Control_c, 0, 64, 0
2, 40915, Control_c, 0, 64, 0
2, 40958, Note_off_c, 0, 63, 64
2, 40959, Control_c, 0, 64, 127
2, 40960, Control_c, 0, 64, 127
2, 40964, Note_off_c, 0, 68, 64
2, 41059, Note_on_c, 0, 65, 44
2, 41063, Note_on_c, 0, 68, 46
2, 41139, Note_off_c, 0, 65, 64
2, 41143, Note_off_c, 0, 68, 64
2, 41156, Note_on_c, 0, 61, 64
2, 41173, Note_off_c, 0, 60, 64
2, 41179, Control_c, 0, 64, 0
2, 41199, Note_on_c, 0, 60, 52
2, 41202, Note_off_c, 0, 61, 64
2, 41223, Control_c, 0, 64, 127
2, 41236, Note_on_c, 0, 61, 59
2, 41252, Note_off_c, 0, 60, 64
2, 41264, Note_on_c, 0, 63, 50
2, 41268, Note_on_c, 0, 60, 59
2, 41272, Note_on_c, 0, 68, 47
2, 41275, Note_off_c, 0, 61, 64
2, 41283, Control_c, 0, 64, 0
2, 41319, Control_c, 0, 64, 127
2, 41344, Note_off_c, 0, 63, 64
2, 41352, Note_off_c, 0, 68, 64
2, 41392, Note_on_c, 0, 68, 47
2, 41392, Note_on_c, 0, 61, 50
2, 41396, Note_on_c, 0, 58, 66
2, 41404, Note_off_c, 0, 60, 64
2, 41430, Note_off_c, 0, 68, 64
2, 41440, Note_on_c, 0, 68, 44
2, 41440, Note_on_c, 0, 60, 47
2, 41440, Note_on_c, 0, 56, 71
2, 41459, Note_off_c, 0, 61, 64
2, 41464, Note_off_c, 0, 58, 64
2, 41469, Control_c, 0, 64, 0
2, 41522, Control_c, 0, 64, 127
2, 41539, Note_off_c, 0, 60, 64
2, 41539, Note_off_c, 0, 68, 64
2, 41547, Control_c, 0, 64, 0
2, 41583, Control_c, 0, 64, 127
2, 41648, Note_on_c, 0, 68, 44
2, 41648, Note_on_c, 0, 66, 44
2, 41650, Note_on_c, 0, 60, 66
2, 41653, Note_on_c, 0, 63, 44
2, 41661, Control_c, 0, 64, 0
2, 41668, Note_off_c, 0, 56, 64
2, 41687, Control_c, 0, 64, 127
2, 41728, Note_off_c, 0, 66, 64
2, 41728, Note_off_c, 0, 68, 64
2, 41733, Note_off_c, 0, 63, 64
2, 41733, Control_c, 0, 64, 0
2, 41741, Control_c, 0, 64, 0
2, 41767, Control_c, 0, 64, 127
2, 41786, Control_c, 0, 64, 127
2, 41796, Note_on_c, 0, 49, 55
2, 41842, Note_on_c, 0, 61, 77
2, 41844, Note_on_c, 0, 68, 57
2, 41844, Note_on_c, 0, 65, 57
2, 41858, Note_off_c, 0, 49, 64
2, 41863, Note_off_c, 0, 60, 64
2, 41871, Control_c, 0, 64, 0
2, 41918, Control_c, 0, 64, 127
2, 41924, Note_off_c, 0, 65, 64
2, 41924, Note_off_c, 0, 68, 64
2, 41925, Control_c, 0, 64, 0
2, 41951, Control_c, 0, 64, 127
2, 41995, Control_c, 0, 64, 0
2, 42005, Control_c, 0, 64, 0
2, 42031, Control_c, 0, 64, 127
2, 42033, Control_c, 0, 64, 0
2, 42038, Note_on_c, 0, 63, 56
2, 42060, Control_c, 0, 64, 127
2, 42085, Note_off_c, 0, 61, 64
2, 42135, Control_c, 0, 64, 0
2, 42182, Control_c, 0, 64, 127
2, 42214, Note_on_c, 0, 73, 55
2, 42216, Note_on_c, 0, 68, 56
2, 42259, Control_c, 0, 64, 0
2, 42294, Note_off_c, 0, 73, 64
2, 42296, Note_off_c, 0, 68, 64
2, 42297, Control_c, 0, 64, 0
2, 42297, Note_on_c, 0, 65, 54
2, 42324, Control_c, 0, 64, 127
2, 42328, Note_off_c, 0, 63, 64
2, 42356, Note_on_c, 0, 63, 81
2, 42360, Note_off_c, 0, 65, 64
2, 42394, Note_on_c, 0, 65, 74
2, 42407, Note_off_c, 0, 63, 64
2, 42414, Control_c, 0, 64, 0
2, 42416, Note_on_c, 0, 72, 47
2, 42420, Note_on_c, 0, 56, 65
2, 42422, Note_on_c, 0, 68, 26
2, 42427, Note_on_c, 0, 63, 75
2, 42441, Note_off_c, 0, 65, 64
2, 42447, Control_c, 0, 64, 127
2, 42496, Note_off_c, 0, 72, 64
2, 42501, Note_off_c, 0, 68, 64
2, 42515, Note_off_c, 0, 56, 64
2, 42544, Note_on_c, 0, 71, 50
2, 42552, Note_on_c, 0, 77, 47
2, 42557, Note_on_c, 0, 62, 66
2, 42563, Note_off_c, 0, 63, 64
2, 42590, Note_off_c, 0, 77, 64
2, 42597, Note_on_c, 0, 72, 48
2, 42598, Note_on_c, 0, 63, 83
2, 42600, Note_on_c, 0, 75, 23
2, 42611, Note_off_c, 0, 71, 64
2, 42612, Note_off_c, 0, 62, 64
2, 42628, Control_c, 0, 64, 0
2, 42674, Control_c, 0, 64, 127
2, 42677, Note_off_c, 0, 72, 64
2, 42678, Control_c, 0, 64, 0
2, 42680, Note_off_c, 0, 75, 64
2, 42711, Control_c, 0, 64, 127
2, 42798, Control_c, 0, 64, 0
2, 42800, Note_on_c, 0, 72, 46
2, 42807, Note_on_c, 0, 68, 81
2, 42828, Control_c, 0, 64, 127
2, 42855, Note_off_c, 0, 63, 64
2, 42880, Note_off_c, 0, 72, 64
2, 42892, Control_c, 0, 64, 0
2, 42938, Control_c, 0, 64, 127
2, 43004, Note_off_c, 0, 68, 64
2, 43024, Note_on_c, 0, 51, 59
2, 43024, Note_on_c, 0, 44, 58
2, 43055, Control_c, 0, 64, 0
2, 43062, Control_c, 0, 64, 0
2, 43080, Control_c, 0, 64, 127
2, 43091, Control_c, 0, 64, 0
2, 43092, Control_c, 0, 64, 127
2, 43127, Control_c, 0, 64, 127
2, 43208, Note_on_c, 0, 68, 41
2, 43208, Note_on_c, 0, 63, 41
2, 43208, Note_on_c, 0, 60, 75
2, 43260, Control_c, 0, 64, 0
2, 43274, Control_c, 0, 64, 127
2, 43288, Note_off_c, 0, 63, 64
2, 43288, Note_off_c, 0, 68, 64
2, 43319, Control_c, 0, 64, 0
2, 43344, Note_off_c, 0, 44, 64
2, 43344, Note_off_c, 0, 51, 64
2, 43344, Control_c, 0, 64, 127
2, 43355, Control_c, 0, 64, 0
2, 43391, Control_c, 0, 64, 127
2, 43440, Note_on_c, 0, 68, 46
2, 43440, Note_on_c, 0, 65, 44
2, 43520, Note_off_c, 0, 65, 64
2, 43520, Note_off_c, 0, 68, 64
2, 43524, Control_c, 0, 64, 0
2, 43538, Control_c, 0, 64, 127
2, 43556, Note_on_c, 0, 61, 71
2, 43566, Note_off_c, 0, 60, 64
2, 43596, Note_on_c, 0, 60, 58
2, 43612, Note_off_c, 0, 61, 64
2, 43632, Note_on_c, 0, 61, 71
2, 43643, Control_c, 0, 64, 0
2, 43648, Note_off_c, 0, 60, 64
2, 43664, Note_on_c, 0, 68, 47
2, 43668, Note_on_c, 0, 63, 50
2, 43668, Note_on_c, 0, 60, 58
2, 43678, Note_off_c, 0, 61, 64
2, 43679, Control_c, 0, 64, 127
2, 43719, Control_c, 0, 64, 0
2, 43744, Note_off_c, 0, 68, 64
2, 43748, Note_off_c, 0, 63, 64
2, 43752, Control_c, 0, 64, 127
2, 43818, Note_off_c, 0, 60, 64
2, 43829, Control_c, 0, 64, 0
2, 43832, Note_on_c, 0, 68, 47
2, 43832, Note_on_c, 0, 61, 50
2, 43835, Note_on_c, 0, 58, 58
2, 43870, Note_off_c, 0, 68, 64
2, 43880, Note_on_c, 0, 68, 44
2, 43880, Note_on_c, 0, 60, 49
2, 43884, Note_on_c, 0, 56, 66
2, 43899, Note_off_c, 0, 61, 64
2, 43904, Note_off_c, 0, 58, 64
2, 43907, Control_c, 0, 64, 0
2, 43909, Control_c, 0, 64, 0
2, 43943, Control_c, 0, 64, 127
2, 43944, Control_c, 0, 64, 127
2, 43960, Note_off_c, 0, 60, 64
2, 43960, Note_off_c, 0, 68, 64
2, 43983, Control_c, 0, 64, 0
2, 44016, Control_c, 0, 64, 127
2, 44049, Control_c, 0, 64, 0
2, 44071, Control_c, 0, 64, 127
2, 44080, Note_on_c, 0, 53, 65
2, 44084, Note_on_c, 0, 60, 74
2, 44085, Note_on_c, 0, 63, 44
2, 44091, Note_on_c, 0, 68, 42
2, 44093, Control_c, 0, 64, 0
2, 44101, Note_off_c, 0, 56, 64
2, 44105, Control_c, 0, 64, 0
2, 44127, Control_c, 0, 64, 127
2, 44165, Note_off_c, 0, 63, 64
2, 44171, Note_off_c, 0, 68, 64
2, 44173, Control_c, 0, 64, 0
2, 44208, Control_c, 0, 64, 127
2, 44252, Note_off_c, 0, 53, 64
2, 44281, Note_on_c, 0, 53, 82
2, 44282, Note_on_c, 0, 46, 65
2, 44291, Note_on_c, 0, 62, 28
2, 44292, Note_on_c, 0, 68, 46
2, 44312, Note_off_c, 0, 60, 64
2, 44313, Control_c, 0, 64, 0
2, 44317, Control_c, 0, 64, 0
2, 44335, Control_c, 0, 64, 127
2, 44356, Control_c, 0, 64, 127
2, 44369, Control_c, 0, 64, 0
2, 44371, Note_off_c, 0, 62, 64
2, 44372, Note_off_c, 0, 68, 64
2, 44391, Control_c, 0, 64, 127
2, 44484, Note_on_c, 0, 62, 47
2, 44493, Note_on_c, 0, 67, 40
2, 44496, Note_on_c, 0, 55, 63
2, 44513, Note_off_c, 0, 53, 64
2, 44516, Control_c, 0, 64, 0
2, 44552, Control_c, 0, 64, 127
2, 44564, Note_off_c, 0, 62, 64
2, 44573, Note_off_c, 0, 67, 64
2, 44581, Control_c, 0, 64, 0
2, 44620, Control_c, 0, 64, 127
2, 44664, Note_on_c, 0, 65, 40
2, 44664, Note_on_c, 0, 62, 47
2, 44744, Note_off_c, 0, 62, 64
2, 44744, Note_off_c, 0, 65, 64
2, 44753, Note_on_c, 0, 56, 59
2, 44772, Note_off_c, 0, 55, 64
2, 44780, Control_c, 0, 64, 0
2, 44816, Control_c, 0, 64, 127
2, 44854, Note_on_c, 0, 61, 49
2, 44854, Note_on_c, 0, 66, 44
2, 44867, Note_on_c, 0, 51, 62
2, 44868, Note_on_c, 0, 57, 66
2, 44885, Note_off_c, 0, 56, 64
2, 44886, Note_off_c, 0, 46, 64
2, 44893, Control_c, 0, 64, 0
2, 44912, Control_c, 0, 64, 127
2, 44916, Note_off_c, 0, 66, 64
2, 44919, Note_off_c, 0, 61, 64
2, 44961, Note_on_c, 0, 60, 71
2, 44980, Note_off_c, 0, 57, 64
2, 45042, Note_on_c, 0, 58, 71
2, 45048, Note_on_c, 0, 61, 49
2, 45053, Note_on_c, 0, 67, 54
2, 45059, Note_off_c, 0, 60, 64
2, 45079, Control_c, 0, 64, 0
2, 45112, Control_c, 0, 64, 127
2, 45128, Note_off_c, 0, 61, 64
2, 45133, Note_off_c, 0, 67, 64
2, 45156, Note_on_c, 0, 63, 66
2, 45157, Control_c, 0, 64, 0
2, 45176, Control_c, 0, 64, 127
2, 45179, Note_off_c, 0, 58, 64
2, 45237, Note_off_c, 0, 51, 64
2, 45249, Note_on_c, 0, 70, 57
2, 45254, Note_on_c, 0, 61, 63
2, 45267, Note_on_c, 0, 53, 66
2, 45271, Note_off_c, 0, 63, 64
2, 45272, Control_c, 0, 64, 0
2, 45277, Control_c, 0, 64, 0
2, 45300, Control_c, 0, 64, 127
2, 45314, Note_off_c, 0, 70, 64
2, 45340, Note_off_c, 0, 61, 64
2, 45343, Control_c, 0, 64, 0
2, 45376, Control_c, 0, 64, 127
2, 45456, Note_on_c, 0, 70, 77
2, 45460, Note_on_c, 0, 61, 73
2, 45460, Note_on_c, 0, 51, 66
2, 45465, Note_on_c, 0, 44, 66
2, 45480, Note_off_c, 0, 53, 64
2, 45480, Control_c, 0, 64, 0
2, 45498, Note_on_c, 0, 63, 93
2, 45514, Control_c, 0, 64, 127
2, 45521, Note_off_c, 0, 70, 64
2, 45525, Note_off_c, 0, 61, 64
2, 45536, Control_c, 0, 64, 0
2, 45541, Control_c, 0, 64, 0
2, 45564, Control_c, 0, 64, 127
2, 45576, Control_c, 0, 64, 0
2, 45657, Note_off_c, 0, 51, 64
2, 45663, Note_on_c, 0, 51, 56
2, 45668, Note_on_c, 0, 60, 71
2, 45670, Note_off_c, 0, 63, 64
2, 45671, Note_on_c, 0, 56, 58
2, 45671, Note_on_c, 0, 72, 93
2, 45674, Note_on_c, 0, 63, 71
2, 45684, Control_c, 0, 64, 0
2, 45690, Control_c, 0, 64, 127
2, 45730, Control_c, 0, 64, 127
2, 45744, Control_c, 0, 64, 0
2, 45778, Control_c, 0, 64, 127
2, 45819, Note_off_c, 0, 51, 64
2, 45831, Note_off_c, 0, 56, 64
2, 45834, Note_off_c, 0, 63, 64
2, 45840, Control_c, 0, 64, 0
2, 45863, Note_off_c, 0, 60, 64
2, 45873, Note_off_c, 0, 44, 64
2, 45880, Note_on_c, 0, 63, 59
2, 45880, Note_on_c, 0, 60, 58
2, 45881, Note_on_c, 0, 56, 58
2, 45884, Note_on_c, 0, 51, 44
2, 45948, Control_c, 0, 64, 0
2, 45954, Control_c, 0, 64, 127
2, 45988, Note_on_c, 0, 65, 66
2, 45992, Note_on_c, 0, 73, 75
2, 45994, Control_c, 0, 64, 127
2, 46011, Note_off_c, 0, 60, 64
2, 46013, Note_off_c, 0, 72, 64
2, 46058, Note_off_c, 0, 63, 64
2, 46059, Note_off_c, 0, 56, 64
2, 46062, Note_off_c, 0, 51, 64
2, 46100, Note_on_c, 0, 72, 82
2, 46104, Note_on_c, 0, 63, 73
2, 46104, Note_on_c, 0, 44, 66
2, 46104, Note_on_c, 0, 32, 65
2, 46141, Note_off_c, 0, 65, 64
2, 46145, Note_off_c, 0, 73, 64
2, 46156, Control_c, 0, 64, 0
2, 46169, Control_c, 0, 64, 127
2, 46268, Note_on_c, 0, 70, 71
2, 46275, Note_on_c, 0, 61, 72
2, 46277, Note_off_c, 0, 72, 64
2, 46281, Note_off_c, 0, 63, 64
2, 46319, Note_on_c, 0, 68, 94
2, 46321, Note_on_c, 0, 51, 58
2, 46324, Note_on_c, 0, 63, 64
2, 46327, Note_on_c, 0, 56, 62
2, 46329, Note_on_c, 0, 60, 66
2, 46339, Note_off_c, 0, 70, 64
2, 46342, Control_c, 0, 64, 0
2, 46346, Note_off_c, 0, 61, 64
2, 46368, Control_c, 0, 64, 127
2, 46389, Note_off_c, 0, 32, 64
2, 46389, Note_off_c, 0, 44, 64
2, 46420, Control_c, 0, 64, 0
2, 46433, Control_c, 0, 64, 127
2, 46452, Note_off_c, 0, 60, 64
2, 46486, Note_off_c, 0, 51, 64
2, 46487, Note_off_c, 0, 56, 64
2, 46489, Note_off_c, 0, 63, 64
2, 46494, Note_off_c, 0, 68, 64
2, 46512, Note_on_c, 0, 68, 66
2, 46512, Note_on_c, 0, 60, 67
2, 46516, Note_on_c, 0, 72, 81
2, 46518, Note_on_c, 0, 66, 66
2, 46524, Note_on_c, 0, 63, 64
2, 46524, Note_on_c, 0, 51, 56
2, 46527, Note_on_c, 0, 56, 64
2, 46606, Control_c, 0, 64, 0
2, 46626, Note_off_c, 0, 60, 64
2, 46626, Note_off_c, 0, 68, 64
2, 46632, Note_off_c, 0, 66, 64
2, 46632, Control_c, 0, 64, 127
2, 46702, Note_off_c, 0, 51, 64
2, 46702, Note_off_c, 0, 63, 64
2, 46705, Note_off_c, 0, 56, 64
2, 46737, Note_on_c, 0, 73, 86
2, 46742, Note_on_c, 0, 65, 66
2, 46749, Note_on_c, 0, 37, 71
2, 46749, Note_on_c, 0, 49, 71
2, 46753, Note_off_c, 0, 72, 64
2, 46764, Control_c, 0, 64, 0
2, 46789, Control_c, 0, 64, 127
2, 46906, Note_off_c, 0, 65, 64
2, 46932, Note_on_c, 0, 75, 75
2, 46936, Note_on_c, 0, 56, 37
2, 46936, Note_on_c, 0, 61, 57
2, 46936, Note_on_c, 0, 65, 66
2, 46936, Note_on_c, 0, 68, 66
2, 46964, Note_off_c, 0, 73, 64
2, 46965, Control_c, 0, 64, 0
2, 46993, Control_c, 0, 64, 127
2, 47028, Control_c, 0, 64, 0
2, 47037, Note_off_c, 0, 49, 64
2, 47037, Note_off_c, 0, 37, 64
2, 47053, Control_c, 0, 64, 127
2, 47099, Note_off_c, 0, 68, 64
2, 47099, Note_off_c, 0, 61, 64
2, 47099, Note_off_c, 0, 56, 64
2, 47107, Note_off_c, 0, 65, 64
2, 47120, Note_on_c, 0, 68, 29
2, 47120, Note_on_c, 0, 61, 64
2, 47121, Note_on_c, 0, 65, 73
2, 47129, Note_on_c, 0, 56, 57
2, 47211, Note_on_c, 0, 73, 52
2, 47215, Note_on_c, 0, 77, 72
2, 47223, Note_off_c, 0, 65, 64
2, 47225, Note_off_c, 0, 75, 64
2, 47229, Control_c, 0, 64, 0
2, 47257, Control_c, 0, 64, 127
2, 47298, Note_off_c, 0, 61, 64
2, 47298, Note_off_c, 0, 68, 64
2, 47307, Note_off_c, 0, 56, 64
2, 47318, Note_on_c, 0, 74, 75
2, 47319, Note_on_c, 0, 71, 71
2, 47320, Note_on_c, 0, 32, 63
2, 47324, Note_on_c, 0, 44, 66
2, 47326, Note_off_c, 0, 73, 64
2, 47330, Note_off_c, 0, 77, 64
2, 47431, Note_off_c, 0, 74, 64
2, 47432, Note_off_c, 0, 71, 64
2, 47436, Note_on_c, 0, 77, 75
2, 47436, Note_on_c, 0, 73, 66
2, 47482, Note_on_c, 0, 75, 93
2, 47485, Note_on_c, 0, 72, 73
2, 47492, Note_off_c, 0, 73, 64
2, 47492, Note_off_c, 0, 77, 64
2, 47513, Note_off_c, 0, 72, 64
2, 47515, Note_off_c, 0, 75, 64
2, 47532, Note_on_c, 0, 63, 66
2, 47532, Note_on_c, 0, 56, 66
2, 47536, Note_on_c, 0, 75, 77
2, 47536, Note_on_c, 0, 60, 59
2, 47536, Note_on_c, 0, 51, 59
2, 47537, Note_on_c, 0, 72, 65
2, 47543, Control_c, 0, 64, 0
2, 47579, Control_c, 0, 64, 127
2, 47644, Note_off_c, 0, 56, 64
2, 47644, Note_off_c, 0, 63, 64
2, 47648, Note_off_c, 0, 51, 64
2, 47648, Note_off_c, 0, 60, 64
2, 47696, Note_on_c, 0, 51, 74
2, 47724, Note_on_c, 0, 56, 67
2, 47748, Note_on_c, 0, 60, 75
2, 47773, Note_on_c, 0, 68, 81
2, 47779, Note_on_c, 0, 84, 93
2, 47780, Note_on_c, 0, 80, 82
2, 47792, Note_off_c, 0, 75, 64
2, 47793, Note_off_c, 0, 72, 64
2, 47807, Control_c, 0, 64, 0
2, 47843, Control_c, 0, 64, 127
2, 47877, Note_off_c, 0, 32, 64
2, 47879, Control_c, 0, 64, 0
2, 47915, Control_c, 0, 64, 127
2, 48006, Note_off_c, 0, 56, 64
2, 48011, Note_off_c, 0, 44, 64
2, 48019, Note_off_c, 0, 51, 64
2, 48020, Note_off_c, 0, 60, 64
2, 48027, Control_c, 0, 64, 0
2, 48038, Note_on_c, 0, 44, 66
2, 48063, Control_c, 0, 64, 127
2, 48075, Control_c, 0, 64, 0
2, 48083, Control_c, 0, 64, 0
2, 48084, Control_c, 0, 64, 0
2, 48096, Note_off_c, 0, 68, 64
2, 48100, Control_c, 0, 64, 127
2, 48115, Note_off_c, 0, 84, 64
2, 48116, Note_off_c, 0, 80, 64
2, 48143, Control_c, 0, 64, 0
2, 48179, Control_c, 0, 64, 127
2, 48291, Control_c, 0, 64, 0
2, 48327, Control_c, 0, 64, 127
2, 48330, Note_on_c, 0, 75, 66
2, 48333, Note_on_c, 0, 56, 71
2, 48333, Note_on_c, 0, 66, 55
2, 48339, Control_c, 0, 64, 0
2, 48347, Control_c, 0, 64, 0
2, 48348, Control_c, 0, 64, 0
2, 48349, Note_off_c, 0, 44, 64
2, 48364, Control_c, 0, 64, 127
2, 48374, Control_c, 0, 64, 0
2, 48426, Control_c, 0, 64, 127
2, 48579, Note_on_c, 0, 48, 49
2, 48612, Control_c, 0, 64, 0
2, 48638, Control_c, 0, 64, 0
2, 48638, Control_c, 0, 64, 127
2, 48690, Control_c, 0, 64, 127
2, 48693, Note_on_c, 0, 74, 48
2, 48705, Note_off_c, 0, 75, 64
2, 48792, Note_on_c, 0, 65, 29
2, 48798, Note_on_c, 0, 73, 58
2, 48804, Note_off_c, 0, 74, 64
2, 48805, Note_off_c, 0, 66, 64
2, 48806, Note_on_c, 0, 49, 29
2, 48831, Note_off_c, 0, 48, 64
2, 48876, Control_c, 0, 64, 0
2, 48887, Note_off_c, 0, 65, 64
2, 48889, Note_on_c, 0, 66, 42
2, 48894, Note_on_c, 0, 72, 69
2, 48899, Note_on_c, 0, 57, 58
2, 48902, Control_c, 0, 64, 127
2, 48903, Note_off_c, 0, 73, 64
2, 48915, Note_off_c, 0, 56, 64
2, 48991, Note_on_c, 0, 70, 79
2, 48992, Note_on_c, 0, 65, 59
2, 48997, Note_off_c, 0, 66, 64
2, 48997, Note_on_c, 0, 58, 65
2, 49002, Note_off_c, 0, 72, 64
2, 49019, Control_c, 0, 64, 0
2, 49029, Note_off_c, 0, 57, 64
2, 49056, Control_c, 0, 64, 127
2, 49153, Note_off_c, 0, 58, 64
2, 49166, Note_off_c, 0, 70, 64
2, 49167, Note_off_c, 0, 65, 64
2, 49168, Note_on_c, 0, 58, 65
2, 49171, Note_on_c, 0, 77, 59
2, 49171, Note_on_c, 0, 68, 63
2, 49171, Note_on_c, 0, 50, 56
2, 49189, Note_off_c, 0, 49, 64
2, 49196, Control_c, 0, 64, 0
2, 49219, Control_c, 0, 64, 127
2, 49283, Control_c, 0, 64, 0
2, 49320, Control_c, 0, 64, 127
2, 49336, Note_on_c, 0, 67, 24
2, 49338, Note_on_c, 0, 51, 58
2, 49344, Note_on_c, 0, 75, 58
2, 49353, Control_c, 0, 64, 0
2, 49357, Note_off_c, 0, 50, 64
2, 49359, Note_off_c, 0, 68, 64
2, 49359, Note_off_c, 0, 77, 64
2, 49366, Control_c, 0, 64, 127
2, 49432, Note_on_c, 0, 68, 52
2, 49435, Note_on_c, 0, 74, 59
2, 49438, Note_off_c, 0, 67, 64
2, 49438, Note_on_c, 0, 59, 49
2, 49446, Note_off_c, 0, 75, 64
2, 49460, Control_c, 0, 64, 0
2, 49473, Note_off_c, 0, 58, 64
2, 49483, Control_c, 0, 64, 127
2, 49524, Note_on_c, 0, 60, 52
2, 49530, Note_on_c, 0, 72, 66
2, 49533, Note_on_c, 0, 67, 56
2, 49538, Note_off_c, 0, 68, 64
2, 49539, Note_off_c, 0, 59, 64
2, 49541, Note_off_c, 0, 74, 64
2, 49546, Control_c, 0, 64, 0
2, 49570, Control_c, 0, 64, 127
2, 49617, Control_c, 0, 64, 0
2, 49630, Control_c, 0, 64, 127
2, 49688, Note_off_c, 0, 72, 64
2, 49691, Note_off_c, 0, 67, 64
2, 49694, Note_on_c, 0, 79, 63
2, 49694, Note_on_c, 0, 52, 56
2, 49696, Note_on_c, 0, 70, 66
2, 49732, Note_off_c, 0, 51, 64
2, 49784, Note_on_c, 0, 61, 58
2, 49810, Control_c, 0, 64, 0
2, 49828, Note_off_c, 0, 60, 64
2, 49834, Control_c, 0, 64, 127
2, 49864, Note_on_c, 0, 62, 56
2, 49875, Note_on_c, 0, 53, 71
2, 49880, Note_on_c, 0, 69, 66
2, 49881, Note_on_c, 0, 77, 66
2, 49886, Note_off_c, 0, 61, 64
2, 49891, Note_off_c, 0, 79, 64
2, 49893, Note_off_c, 0, 70, 64
2, 49893, Control_c, 0, 64, 0
2, 49903, Note_off_c, 0, 52, 64
2, 49904, Control_c, 0, 64, 127
2, 49948, Note_on_c, 0, 61, 1
2, 49956, Note_on_c, 0, 70, 52
2, 49962, Note_on_c, 0, 76, 66
2, 49964, Note_on_c, 0, 55, 62
2, 49966, Note_off_c, 0, 69, 64
2, 49967, Note_off_c, 0, 77, 64
2, 49969, Note_off_c, 0, 62, 64
2, 49985, Note_off_c, 0, 53, 64
2, 50040, Note_on_c, 0, 69, 28
2, 50040, Note_on_c, 0, 54, 58
2, 50047, Note_on_c, 0, 74, 66
2, 50051, Note_off_c, 0, 70, 64
2, 50054, Note_on_c, 0, 62, 58
2, 50057, Note_off_c, 0, 76, 64
2, 50063, Note_off_c, 0, 55, 64
2, 50063, Note_off_c, 0, 61, 64
2, 50064, Control_c, 0, 64, 0
2, 50077, Control_c, 0, 64, 127
2, 50157, Control_c, 0, 64, 0
2, 50168, Control_c, 0, 64, 127
2, 50226, Note_on_c, 0, 72, 65
2, 50232, Note_on_c, 0, 81, 65
2, 50233, Note_off_c, 0, 69, 64
2, 50237, Note_on_c, 0, 63, 58
2, 50237, Note_on_c, 0, 53, 59
2, 50240, Note_off_c, 0, 74, 64
2, 50248, Note_off_c, 0, 62, 64
2, 50250, Note_off_c, 0, 54, 64
2, 50255, Control_c, 0, 64, 0
2, 50276, Control_c, 0, 64, 127
2, 50314, Note_on_c, 0, 71, 42
2, 50324, Note_off_c, 0, 72, 64
2, 50328, Control_c, 0, 64, 0
2, 50341, Control_c, 0, 64, 127
2, 50386, Note_off_c, 0, 71, 64
2, 50408, Note_on_c, 0, 71, 48
2, 50410, Note_on_c, 0, 52, 47
2, 50414, Note_on_c, 0, 80, 57
2, 50418, Note_off_c, 0, 63, 64
2, 50420, Note_off_c, 0, 81, 64
2, 50420, Note_on_c, 0, 64, 42
2, 50428, Note_off_c, 0, 53, 64
2, 50497, Note_off_c, 0, 64, 64
2, 50509, Note_on_c, 0, 79, 58
2, 50512, Note_on_c, 0, 73, 58
2, 50514, Note_off_c, 0, 71, 64
2, 50519, Note_off_c, 0, 80, 64
2, 50519, Control_c, 0, 64, 0
2, 50524, Note_on_c, 0, 57, 62
2, 50526, Note_on_c, 0, 64, 56
2, 50540, Control_c, 0, 64, 127
2, 50561, Note_off_c, 0, 52, 64
2, 50582, Note_off_c, 0, 64, 64
2, 50594, Note_off_c, 0, 73, 64
2, 50600, Note_on_c, 0, 78, 63
2, 50607, Note_on_c, 0, 64, 54
2, 50607, Note_on_c, 0, 73, 62
2, 50614, Note_on_c, 0, 58, 63
2, 50617, Note_off_c, 0, 79, 64
2, 50623, Control_c, 0, 64, 0
2, 50626, Note_off_c, 0, 57, 64
2, 50659, Control_c, 0, 64, 127
2, 50796, Note_on_c, 0, 77, 57
2, 50798, Note_off_c, 0, 73, 64
2, 50800, Note_on_c, 0, 68, 56
2, 50804, Note_on_c, 0, 59, 59
2, 50804, Note_on_c, 0, 62, 57
2, 50808, Note_off_c, 0, 78, 64
2, 50816, Control_c, 0, 64, 0
2, 50819, Note_off_c, 0, 64, 64
2, 50835, Note_off_c, 0, 58, 64
2, 50836, Control_c, 0, 64, 127
2, 50887, Control_c, 0, 64, 0
2, 50896, Note_on_c, 0, 67, 50
2, 50902, Note_off_c, 0, 68, 64
2, 50923, Control_c, 0, 64, 127
2, 50957, Note_off_c, 0, 67, 64
2, 50971, Control_c, 0, 64, 0
2, 50975, Note_off_c, 0, 62, 64
2, 50977, Note_on_c, 0, 60, 67
2, 50984, Note_on_c, 0, 67, 33
2, 50985, Note_on_c, 0, 76, 67
2, 50993, Note_off_c, 0, 77, 64
2, 50993, Note_off_c, 0, 59, 64
2, 50999, Control_c, 0, 64, 127
2, 51056, Note_off_c, 0, 60, 64
2, 51065, Note_on_c, 0, 69, 57
2, 51070, Note_on_c, 0, 75, 71
2, 51075, Note_on_c, 0, 53, 48
2, 51077, Note_on_c, 0, 60, 41
2, 51079, Note_off_c, 0, 67, 64
2, 51080, Control_c, 0, 64, 0
2, 51083, Note_off_c, 0, 76, 64
2, 51100, Control_c, 0, 64, 127
2, 51143, Note_off_c, 0, 69, 64
2, 51155, Note_off_c, 0, 60, 64
2, 51160, Note_on_c, 0, 69, 41
2, 51166, Note_on_c, 0, 74, 63
2, 51168, Note_on_c, 0, 54, 44
2, 51173, Note_on_c, 0, 60, 18
2, 51178, Note_off_c, 0, 75, 64
2, 51190, Note_off_c, 0, 53, 64
2, 51198, Control_c, 0, 64, 0
2, 51220, Control_c, 0, 64, 127
2, 51235, Control_c, 0, 64, 0
2, 51260, Note_off_c, 0, 60, 64
2, 51263, Control_c, 0, 64, 127
2, 51350, Note_on_c, 0, 73, 57
2, 51352, Note_on_c, 0, 64, 56
2, 51354, Note_off_c, 0, 69, 64
2, 51356, Note_on_c, 0, 55, 41
2, 51360, Note_off_c, 0, 74, 64
2, 51360, Note_on_c, 0, 58, 18
2, 51369, Note_off_c, 0, 54, 64
2, 51386, Control_c, 0, 64, 0
2, 51410, Control_c, 0, 64, 127
2, 51462, Control_c, 0, 64, 0
2, 51484, Note_off_c, 0, 64, 64
2, 51484, Control_c, 0, 64, 127
2, 51522, Note_on_c, 0, 56, 54
2, 51524, Note_on_c, 0, 64, 22
2, 51524, Note_on_c, 0, 72, 54
2, 51539, Note_off_c, 0, 73, 64
2, 51540, Note_off_c, 0, 55, 64
2, 51544, Note_off_c, 0, 58, 64
2, 51611, Note_off_c, 0, 56, 64
2, 51612, Note_on_c, 0, 71, 47
2, 51612, Note_on_c, 0, 65, 54
2, 51619, Note_off_c, 0, 72, 64
2, 51619, Note_off_c, 0, 64, 64
2, 51624, Note_on_c, 0, 49, 39
2, 51626, Note_on_c, 0, 56, 39
2, 51650, Control_c, 0, 64, 0
2, 51674, Control_c, 0, 64, 127
2, 51706, Note_off_c, 0, 65, 64
2, 51708, Note_off_c, 0, 56, 64
2, 51711, Note_on_c, 0, 70, 55
2, 51712, Note_on_c, 0, 65, 56
2, 51713, Note_on_c, 0, 50, 44
2, 51722, Note_off_c, 0, 71, 64
2, 51724, Note_on_c, 0, 56, 46
2, 51734, Note_off_c, 0, 49, 64
2, 51740, Control_c, 0, 64, 0
2, 51776, Control_c, 0, 64, 127
2, 51815, Note_off_c, 0, 56, 64
2, 51921, Note_on_c, 0, 69, 47
2, 51923, Note_on_c, 0, 60, 48
2, 51928, Note_on_c, 0, 54, 22
2, 51929, Note_on_c, 0, 51, 42
2, 51945, Note_off_c, 0, 70, 64
2, 51945, Note_off_c, 0, 65, 64
2, 51953, Control_c, 0, 64, 0
2, 51955, Note_off_c, 0, 50, 64
2, 51977, Control_c, 0, 64, 127
2, 52004, Control_c, 0, 64, 0
2, 52040, Control_c, 0, 64, 127
2, 52132, Note_on_c, 0, 52, 42
2, 52136, Note_on_c, 0, 56, 55
2, 52149, Note_on_c, 0, 68, 55
2, 52149, Note_on_c, 0, 59, 42
2, 52160, Note_off_c, 0, 69, 64
2, 52162, Note_off_c, 0, 60, 64
2, 52168, Note_off_c, 0, 54, 64
2, 52169, Note_off_c, 0, 51, 64
2, 52217, Control_c, 0, 64, 0
2, 52241, Control_c, 0, 64, 127
2, 52265, Note_off_c, 0, 59, 64
2, 52291, Note_off_c, 0, 68, 64
2, 52308, Note_on_c, 0, 68, 55
2, 52309, Note_on_c, 0, 59, 29
2, 52312, Note_off_c, 0, 56, 64
2, 52312, Note_on_c, 0, 50, 33
2, 52312, Note_on_c, 0, 64, 46
2, 52326, Note_off_c, 0, 52, 64
2, 52335, Control_c, 0, 64, 0
2, 52369, Control_c, 0, 64, 127
2, 52497, Note_off_c, 0, 68, 64
2, 52529, Note_on_c, 0, 68, 52
2, 52537, Note_on_c, 0, 51, 26
2, 52540, Note_on_c, 0, 60, 23
2, 52541, Note_on_c, 0, 63, 29
2, 52545, Note_off_c, 0, 50, 64
2, 52558, Note_off_c, 0, 59, 64
2, 52561, Note_off_c, 0, 64, 64
2, 52576, Control_c, 0, 64, 0
2, 52599, Control_c, 0, 64, 0
2, 52628, Control_c, 0, 64, 127
2, 52633, Control_c, 0, 64, 127
2, 52840, Control_c, 0, 64, 0
2, 52872, Note_on_c, 0, 77, 36
2, 52890, Note_off_c, 0, 60, 64
2, 52890, Note_off_c, 0, 63, 64
2, 52892, Control_c, 0, 64, 127
2, 52893, Note_off_c, 0, 51, 64
2, 52903, Note_off_c, 0, 68, 64
2, 52912, Note_on_c, 0, 51, 41
2, 52928, Note_on_c, 0, 58, 42
2, 52948, Note_on_c, 0, 61, 23
2, 52960, Note_on_c, 0, 67, 57
2, 53025, Note_off_c, 0, 77, 64
2, 53042, Control_c, 0, 64, 0
2, 53067, Control_c, 0, 64, 127
2, 53227, Note_off_c, 0, 51, 64
2, 53243, Note_off_c, 0, 58, 64
2, 53263, Note_off_c, 0, 61, 64
2, 53300, Note_on_c, 0, 68, 59
2, 53306, Control_c, 0, 64, 0
2, 53313, Note_on_c, 0, 60, 56
2, 53315, Note_on_c, 0, 32, 44
2, 53317, Note_on_c, 0, 44, 29
2, 53331, Control_c, 0, 64, 127
2, 53333, Note_off_c, 0, 67, 64
2, 53343, Control_c, 0, 64, 0
2, 53377, Control_c, 0, 64, 127
2, 53598, Note_off_c, 0, 60, 64
2, 53607, Control_c, 0, 64, 0
2, 53609, Note_on_c, 0, 75, 63
2, 53619, Note_on_c, 0, 66, 40
2, 53625, Note_on_c, 0, 56, 36
2, 53627, Note_on_c, 0, 60, 36
2, 53634, Note_off_c, 0, 68, 64
2, 53641, Control_c, 0, 64, 127
2, 53647, Control_c, 0, 64, 0
2, 53662, Control_c, 0, 64, 127
2, 53664, Note_off_c, 0, 32, 64
2, 53666, Note_off_c, 0, 44, 64
2, 53737, Note_off_c, 0, 56, 64
2, 53763, Note_off_c, 0, 60, 64
2, 53779, Note_off_c, 0, 66, 64
2, 53836, Note_on_c, 0, 56, 36
2, 53836, Note_on_c, 0, 51, 36
2, 53838, Note_on_c, 0, 60, 46
2, 53911, Control_c, 0, 64, 0
2, 53926, Control_c, 0, 64, 127
2, 53928, Note_on_c, 0, 77, 59
2, 53955, Note_off_c, 0, 75, 64
2, 54010, Note_on_c, 0, 44, 58
2, 54020, Note_on_c, 0, 75, 62
2, 54033, Note_off_c, 0, 77, 64
2, 54040, Control_c, 0, 64, 0
2, 54058, Control_c, 0, 64, 127
2, 54060, Note_off_c, 0, 51, 64
2, 54060, Note_off_c, 0, 56, 64
2, 54062, Note_off_c, 0, 60, 64
2, 54107, Note_on_c, 0, 74, 62
2, 54115, Note_off_c, 0, 75, 64
2, 54183, Note_on_c, 0, 56, 40
2, 54185, Note_on_c, 0, 61, 42
2, 54194, Note_on_c, 0, 73, 65
2, 54195, Note_on_c, 0, 65, 36
2, 54208, Note_off_c, 0, 74, 64
2, 54216, Control_c, 0, 64, 0
2, 54240, Control_c, 0, 64, 127
2, 54292, Note_off_c, 0, 65, 64
2, 54293, Note_off_c, 0, 61, 64
2, 54296, Note_off_c, 0, 44, 64
2, 54304, Control_c, 0, 64, 0
2, 54313, Note_off_c, 0, 56, 64
2, 54322, Control_c, 0, 64, 127
2, 54375, Note_on_c, 0, 53, 36
2, 54375, Note_on_c, 0, 61, 47
2, 54381, Note_on_c, 0, 56, 48
2, 54387, Note_on_c, 0, 80, 64
2, 54408, Note_off_c, 0, 73, 64
2, 54480, Control_c, 0, 64, 0
2, 54504, Control_c, 0, 64, 127
2, 54553, Note_off_c, 0, 61, 64
2, 54553, Note_off_c, 0, 53, 64
2, 54559, Note_off_c, 0, 56, 64
2, 54561, Note_on_c, 0, 44, 59
2, 54593, Control_c, 0, 64, 0
2, 54609, Control_c, 0, 64, 127
2, 54747, Note_on_c, 0, 55, 36
2, 54755, Note_on_c, 0, 72, 66
2, 54758, Note_off_c, 0, 80, 64
2, 54760, Note_on_c, 0, 64, 36
2, 54760, Note_on_c, 0, 60, 26
2, 54783, Control_c, 0, 64, 0
2, 54817, Control_c, 0, 64, 127
2, 54849, Note_off_c, 0, 44, 64
2, 54857, Control_c, 0, 64, 0
2, 54873, Control_c, 0, 64, 127
2, 54903, Note_off_c, 0, 55, 64
2, 54905, Note_off_c, 0, 60, 64
2, 54929, Note_off_c, 0, 64, 64
2, 54936, Note_on_c, 0, 55, 44
2, 54943, Note_on_c, 0, 52, 44
2, 54948, Note_on_c, 0, 60, 46
2, 55023, Note_on_c, 0, 73, 56
2, 55039, Note_off_c, 0, 72, 64
2, 55047, Control_c, 0, 64, 0
2, 55081, Control_c, 0, 64, 127
2, 55113, Note_on_c, 0, 72, 62
2, 55114, Note_off_c, 0, 55, 64
2, 55121, Note_off_c, 0, 52, 64
2, 55121, Note_on_c, 0, 44, 62
2, 55126, Note_off_c, 0, 60, 64
2, 55129, Note_off_c, 0, 73, 64
2, 55142, Control_c, 0, 64, 0
2, 55167, Control_c, 0, 64, 127
2, 55205, Note_on_c, 0, 70, 59
2, 55220, Note_off_c, 0, 72, 64
2, 55290, Note_on_c, 0, 63, 36
2, 55295, Note_on_c, 0, 61, 44
2, 55296, Note_on_c, 0, 55, 44
2, 55302, Control_c, 0, 64, 0
2, 55306, Note_on_c, 0, 77, 57
2, 55347, Control_c, 0, 64, 127
2, 55352, Note_off_c, 0, 70, 64
2, 55389, Note_on_c, 0, 75, 58
2, 55406, Control_c, 0, 64, 0
2, 55409, Note_off_c, 0, 77, 64
2, 55416, Note_off_c, 0, 44, 64
2, 55431, Control_c, 0, 64, 127
2, 55446, Note_off_c, 0, 63, 64
2, 55451, Note_off_c, 0, 61, 64
2, 55452, Note_off_c, 0, 55, 64
2, 55476, Note_on_c, 0, 58, 36
2, 55483, Note_on_c, 0, 61, 44
2, 55486, Note_on_c, 0, 67, 56
2, 55493, Note_on_c, 0, 51, 36
2, 55544, Note_off_c, 0, 75, 64
2, 55566, Control_c, 0, 64, 0
2, 55611, Control_c, 0, 64, 127
2, 55720, Note_on_c, 0, 68, 56
2, 55733, Note_on_c, 0, 32, 61
2, 55734, Control_c, 0, 64, 0
2, 55744, Control_c, 0, 64, 0
2, 55767, Control_c, 0, 64, 127
2, 55769, Note_off_c, 0, 58, 64
2, 55776, Note_off_c, 0, 61, 64
2, 55786, Note_off_c, 0, 51, 64
2, 55790, Note_off_c, 0, 67, 64
2, 55959, Note_on_c, 0, 66, 24
2, 55964, Note_off_c, 0, 68, 64
2, 55968, Note_on_c, 0, 60, 32
2, 55975, Note_on_c, 0, 56, 13
2, 55994, Note_on_c, 0, 75, 56
2, 55998, Control_c, 0, 64, 0
2, 56008, Control_c, 0, 64, 0
2, 56027, Note_off_c, 0, 32, 64
2, 56028, Control_c, 0, 64, 0
2, 56031, Control_c, 0, 64, 127
2, 56050, Control_c, 0, 64, 127
2, 56118, Note_off_c, 0, 56, 64
2, 56125, Note_off_c, 0, 66, 64
2, 56134, Note_off_c, 0, 60, 64
2, 56184, Note_on_c, 0, 56, 27
2, 56189, Note_on_c, 0, 60, 33
2, 56197, Note_on_c, 0, 51, 27
2, 56277, Note_on_c, 0, 77, 50
2, 56292, Control_c, 0, 64, 0
2, 56294, Note_off_c, 0, 75, 64
2, 56314, Control_c, 0, 64, 127
2, 56362, Note_off_c, 0, 56, 64
2, 56367, Note_off_c, 0, 60, 64
2, 56375, Note_off_c, 0, 51, 64
2, 56375, Note_on_c, 0, 44, 47
2, 56383, Note_on_c, 0, 75, 44
2, 56406, Note_off_c, 0, 77, 64
2, 56413, Control_c, 0, 64, 0
2, 56429, Control_c, 0, 64, 127
2, 56476, Note_on_c, 0, 74, 46
2, 56487, Note_off_c, 0, 75, 64
2, 56574, Note_on_c, 0, 73, 54
2, 56579, Note_on_c, 0, 64, 33
2, 56580, Note_on_c, 0, 56, 23
2, 56584, Note_on_c, 0, 61, 23
2, 56591, Note_off_c, 0, 74, 64
2, 56655, Note_off_c, 0, 44, 64
2, 56677, Control_c, 0, 64, 0
2, 56693, Control_c, 0, 64, 127
2, 56693, Note_on_c, 0, 82, 57
2, 56732, Note_off_c, 0, 73, 64
2, 56735, Note_off_c, 0, 64, 64
2, 56736, Note_off_c, 0, 56, 64
2, 56740, Note_off_c, 0, 61, 64
2, 56822, Note_on_c, 0, 80, 50
2, 56832, Note_on_c, 0, 58, 12
2, 56832, Note_on_c, 0, 56, 23
2, 56840, Note_on_c, 0, 52, 18
2, 56841, Note_off_c, 0, 82, 64
2, 57010, Note_off_c, 0, 56, 64
2, 57010, Note_off_c, 0, 58, 64
2, 57018, Note_off_c, 0, 52, 64
2, 57057, Note_on_c, 0, 44, 47
2, 57073, Control_c, 0, 64, 0
2, 57097, Control_c, 0, 64, 127
2, 57111, Note_off_c, 0, 80, 64
2, 57266, Note_on_c, 0, 63, 31
2, 57270, Note_on_c, 0, 56, 24
2, 57270, Note_on_c, 0, 71, 52
2, 57272, Note_on_c, 0, 59, 24
2, 57293, Control_c, 0, 64, 0
2, 57327, Control_c, 0, 64, 127
2, 57337, Control_c, 0, 64, 0
2, 57351, Note_off_c, 0, 44, 64
2, 57361, Control_c, 0, 64, 127
2, 57422, Note_off_c, 0, 63, 64
2, 57426, Note_off_c, 0, 56, 64
2, 57428, Note_off_c, 0, 59, 64
2, 57440, Note_on_c, 0, 59, 29
2, 57448, Note_on_c, 0, 56, 29
2, 57450, Note_on_c, 0, 51, 29
2, 57532, Note_on_c, 0, 73, 49
2, 57555, Note_off_c, 0, 71, 64
2, 57557, Control_c, 0, 64, 0
2, 57591, Control_c, 0, 64, 127
2, 57629, Note_on_c, 0, 39, 50
2, 57638, Note_on_c, 0, 71, 54
2, 57648, Control_c, 0, 64, 0
2, 57653, Note_off_c, 0, 73, 64
2, 57662, Note_off_c, 0, 59, 64
2, 57670, Note_off_c, 0, 56, 64
2, 57672, Note_off_c, 0, 51, 64
2, 57692, Control_c, 0, 64, 127
2, 57736, Note_on_c, 0, 70, 49
2, 57749, Note_off_c, 0, 71, 64
2, 57843, Note_on_c, 0, 61, 26
2, 57843, Note_on_c, 0, 55, 31
2, 57849, Note_on_c, 0, 51, 16
2, 57856, Note_on_c, 0, 76, 44
2, 57869, Control_c, 0, 64, 0
2, 57882, Control_c, 0, 64, 127
2, 57912, Control_c, 0, 64, 0
2, 57922, Note_off_c, 0, 39, 64
2, 57928, Note_off_c, 0, 70, 64
2, 57956, Control_c, 0, 64, 127
2, 57959, Note_on_c, 0, 75, 36
2, 57976, Note_off_c, 0, 76, 64
2, 58055, Note_on_c, 0, 39, 40
2, 58068, Note_on_c, 0, 67, 52
2, 58070, Control_c, 0, 64, 0
2, 58100, Note_off_c, 0, 55, 64
2, 58100, Note_off_c, 0, 61, 64
2, 58101, Note_off_c, 0, 75, 64
2, 58102, Control_c, 0, 64, 127
2, 58106, Note_off_c, 0, 51, 64
2, 58133, Control_c, 0, 64, 0
2, 58146, Control_c, 0, 64, 127
2, 58298, Note_off_c, 0, 67, 64
2, 58302, Control_c, 0, 64, 0
2, 58307, Note_on_c, 0, 44, 50
2, 58311, Note_off_c, 0, 39, 64
2, 58334, Control_c, 0, 64, 0
2, 58348, Control_c, 0, 64, 127
2, 58366, Control_c, 0, 64, 127
2, 58538, Note_on_c, 0, 51, 24
2, 58553, Note_on_c, 0, 60, 23
2, 58554, Note_on_c, 0, 56, 21
2, 58566, Control_c, 0, 64, 0
2, 58576, Note_on_c, 0, 72, 56
2, 58595, Control_c, 0, 64, 0
2, 58612, Control_c, 0, 64, 127
2, 58613, Note_off_c, 0, 44, 64
2, 58621, Control_c, 0, 64, 127
2, 58694, Note_off_c, 0, 51, 64
2, 58709, Note_off_c, 0, 60, 64
2, 58710, Note_off_c, 0, 56, 64
2, 58791, Note_on_c, 0, 44, 46
2, 58859, Control_c, 0, 64, 0
2, 58885, Control_c, 0, 64, 127
2, 58897, Note_on_c, 0, 73, 50
2, 58918, Note_off_c, 0, 72, 64
2, 59039, Note_on_c, 0, 39, 40
2, 59049, Note_off_c, 0, 44, 64
2, 59054, Note_on_c, 0, 72, 48
2, 59077, Control_c, 0, 64, 0
2, 59091, Note_off_c, 0, 73, 64
2, 59106, Control_c, 0, 64, 127
2, 59172, Note_on_c, 0, 70, 46
2, 59181, Note_off_c, 0, 72, 64
2, 59296, Note_on_c, 0, 55, 24
2, 59298, Note_on_c, 0, 61, 24
2, 59302, Note_on_c, 0, 51, 27
2, 59324, Note_on_c, 0, 77, 46
2, 59341, Control_c, 0, 64, 0
2, 59345, Note_off_c, 0, 39, 64
2, 59363, Note_off_c, 0, 70, 64
2, 59370, Control_c, 0, 64, 127
2, 59450, Note_on_c, 0, 75, 47
2, 59452, Note_off_c, 0, 55, 64
2, 59454, Note_off_c, 0, 61, 64
2, 59458, Note_off_c, 0, 51, 64
2, 59463, Note_off_c, 0, 77, 64
2, 59588, Note_on_c, 0, 67, 48
2, 59588, Note_on_c, 0, 39, 44
2, 59607, Note_off_c, 0, 75, 64
2, 59755, Note_off_c, 0, 39, 64
2, 59811, Note_off_c, 0, 67, 64
2, 59852, Note_on_c, 0, 38, 65
2, 59879, Control_c, 0, 64, 0
2, 59903, Control_c, 0, 64, 127
2, 60126, Note_on_c, 0, 55, 30
2, 60134, Note_on_c, 0, 50, 34
2, 60134, Note_on_c, 0, 62, 34
2, 60143, Note_on_c, 0, 71, 62
2, 60143, Control_c, 0, 64, 0
2, 60164, Control_c, 0, 64, 0
2, 60167, Control_c, 0, 64, 127
2, 60189, Control_c, 0, 64, 127
2, 60317, Note_off_c, 0, 50, 64
2, 60325, Note_off_c, 0, 55, 64
2, 60343, Note_off_c, 0, 62, 64
2, 60408, Note_on_c, 0, 67, 39
2, 60410, Note_on_c, 0, 55, 29
2, 60411, Note_off_c, 0, 38, 64
2, 60416, Note_on_c, 0, 62, 32
2, 60428, Control_c, 0, 64, 0
2, 60449, Control_c, 0, 64, 0
2, 60453, Control_c, 0, 64, 127
2, 60461, Control_c, 0, 64, 127
2, 60557, Note_on_c, 0, 72, 57
2, 60590, Note_off_c, 0, 71, 64
2, 60603, Note_off_c, 0, 55, 64
2, 60632, Note_off_c, 0, 67, 64
2, 60640, Note_off_c, 0, 62, 64
2, 60684, Note_on_c, 0, 64, 40
2, 60686, Note_on_c, 0, 49, 26
2, 60695, Note_on_c, 0, 71, 58
2, 60695, Note_on_c, 0, 55, 36
2, 60713, Control_c, 0, 64, 0
2, 60715, Note_off_c, 0, 72, 64
2, 60725, Control_c, 0, 64, 127
2, 60829, Note_on_c, 0, 70, 44
2, 60861, Note_off_c, 0, 71, 64
2, 60945, Note_off_c, 0, 64, 64
2, 60947, Note_off_c, 0, 49, 64
2, 60952, Note_on_c, 0, 46, 50
2, 60956, Note_off_c, 0, 55, 64
2, 61002, Note_on_c, 0, 61, 44
2, 61008, Note_on_c, 0, 76, 56
2, 61039, Note_off_c, 0, 70, 64
2, 61056, Control_c, 0, 64, 0
2, 61078, Control_c, 0, 64, 127
2, 61178, Note_on_c, 0, 75, 54
2, 61205, Note_off_c, 0, 76, 64
2, 61320, Control_c, 0, 64, 0
2, 61342, Control_c, 0, 64, 127
2, 61354, Note_off_c, 0, 46, 64
2, 61379, Note_off_c, 0, 61, 64
2, 61388, Note_on_c, 0, 67, 59
2, 61391, Note_on_c, 0, 61, 29
2, 61395, Note_on_c, 0, 58, 24
2, 61400, Note_on_c, 0, 51, 16
2, 61418, Note_off_c, 0, 75, 64
2, 61430, Control_c, 0, 64, 0
2, 61475, Control_c, 0, 64, 127
2, 61694, Control_c, 0, 64, 0
2, 61739, Control_c, 0, 64, 127
2, 61782, Note_on_c, 0, 44, 44
2, 61812, Control_c, 0, 64, 0
2, 61845, Control_c, 0, 64, 127
2, 61873, Note_off_c, 0, 51, 64
2, 61908, Note_off_c, 0, 58, 64
2, 61943, Note_on_c, 0, 68, 47
2, 61948, Note_off_c, 0, 61, 64
2, 61980, Note_off_c, 0, 67, 64
2, 62040, Note_on_c, 0, 56, 28
2, 62048, Note_on_c, 0, 60, 24
2, 62051, Note_on_c, 0, 62, 62
2, 62055, Note_on_c, 0, 51, 32
2, 62061, Note_off_c, 0, 68, 64
2, 62076, Control_c, 0, 64, 0
2, 62078, Control_c, 0, 64, 0
2, 62101, Control_c, 0, 64, 127
2, 62109, Control_c, 0, 64, 127
2, 62118, Note_off_c, 0, 60, 64
2, 62121, Note_off_c, 0, 56, 64
2, 62131, Note_off_c, 0, 51, 64
2, 62146, Note_on_c, 0, 63, 56
2, 62184, Note_off_c, 0, 62, 64
2, 62221, Control_c, 0, 64, 0
2, 62228, Note_on_c, 0, 56, 40
2, 62233, Note_on_c, 0, 51, 40
2, 62238, Note_on_c, 0, 60, 35
2, 62238, Note_on_c, 0, 68, 75
2, 62256, Note_off_c, 0, 63, 64
2, 62262, Control_c, 0, 64, 127
2, 62305, Note_on_c, 0, 73, 56
2, 62322, Note_off_c, 0, 68, 64
2, 62342, Control_c, 0, 64, 0
2, 62365, Control_c, 0, 64, 127
2, 62395, Note_on_c, 0, 72, 63
2, 62398, Note_off_c, 0, 51, 64
2, 62402, Note_off_c, 0, 73, 64
2, 62410, Note_off_c, 0, 56, 64
2, 62422, Note_off_c, 0, 60, 64
2, 62466, Note_on_c, 0, 70, 63
2, 62481, Note_off_c, 0, 72, 64
2, 62485, Control_c, 0, 64, 0
2, 62519, Note_on_c, 0, 51, 37
2, 62523, Note_on_c, 0, 60, 47
2, 62524, Note_on_c, 0, 56, 40
2, 62526, Control_c, 0, 64, 127
2, 62526, Note_on_c, 0, 68, 77
2, 62542, Note_off_c, 0, 70, 64
2, 62607, Note_on_c, 0, 72, 57
2, 62625, Note_off_c, 0, 68, 64
2, 62670, Note_on_c, 0, 77, 63
2, 62688, Note_off_c, 0, 72, 64
2, 62740, Note_on_c, 0, 72, 66
2, 62757, Note_off_c, 0, 77, 64
2, 62804, Note_on_c, 0, 75, 66
2, 62811, Note_on_c, 0, 32, 67
2, 62821, Note_off_c, 0, 51, 64
2, 62825, Note_off_c, 0, 56, 64
2, 62826, Note_off_c, 0, 60, 64
2, 62833, Note_off_c, 0, 44, 64
2, 62838, Note_off_c, 0, 72, 64
2, 62871, Note_on_c, 0, 73, 59
2, 62884, Note_off_c, 0, 75, 64
2, 62932, Control_c, 0, 64, 0
2, 62940, Note_on_c, 0, 60, 64
2, 62945, Note_on_c, 0, 56, 58
2, 62949, Note_on_c, 0, 72, 77
2, 62952, Note_on_c, 0, 51, 2
2, 62959, Note_off_c, 0, 73, 64
2, 62964, Control_c, 0, 64, 127
2, 63000, Note_on_c, 0, 75, 66
2, 63024, Note_off_c, 0, 72, 64
2, 63054, Note_on_c, 0, 80, 66
2, 63088, Note_off_c, 0, 75, 64
2, 63122, Note_on_c, 0, 77, 67
2, 63129, Note_off_c, 0, 80, 64
2, 63181, Note_on_c, 0, 75, 71
2, 63196, Control_c, 0, 64, 0
2, 63214, Note_off_c, 0, 77, 64
2, 63228, Control_c, 0, 64, 127
2, 63237, Note_on_c, 0, 84, 81
2, 63248, Note_off_c, 0, 60, 64
2, 63253, Note_off_c, 0, 56, 64
2, 63260, Note_off_c, 0, 51, 64
2, 63265, Note_off_c, 0, 75, 64
2, 63287, Note_on_c, 0, 79, 73
2, 63308, Note_off_c, 0, 84, 64
2, 63332, Note_off_c, 0, 32, 64
2, 63347, Note_on_c, 0, 80, 83
2, 63362, Note_off_c, 0, 79, 64
2, 63404, Note_on_c, 0, 68, 71
2, 63404, Note_on_c, 0, 59, 26
2, 63406, Note_on_c, 0, 56, 41
2, 63410, Note_on_c, 0, 74, 82
2, 63433, Note_off_c, 0, 80, 64
2, 63469, Note_on_c, 0, 79, 63
2, 63477, Note_off_c, 0, 59, 64
2, 63477, Note_off_c, 0, 68, 64
2, 63479, Note_off_c, 0, 56, 64
2, 63493, Note_off_c, 0, 74, 64
2, 63516, Note_on_c, 0, 77, 77
2, 63516, Note_on_c, 0, 68, 52
2, 63516, Note_on_c, 0, 60, 29
2, 63524, Note_on_c, 0, 56, 28
2, 63537, Control_c, 0, 64, 0
2, 63542, Note_off_c, 0, 79, 64
2, 63570, Note_on_c, 0, 76, 57
2, 63574, Control_c, 0, 64, 127
2, 63585, Note_off_c, 0, 77, 64
2, 63637, Note_on_c, 0, 75, 59
2, 63645, Note_off_c, 0, 76, 64
2, 63688, Note_on_c, 0, 74, 67
2, 63700, Note_off_c, 0, 75, 64
2, 63729, Note_off_c, 0, 60, 64
2, 63729, Note_off_c, 0, 68, 64
2, 63737, Note_off_c, 0, 56, 64
2, 63749, Note_on_c, 0, 73, 74
2, 63761, Note_off_c, 0, 74, 64
2, 63793, Note_on_c, 0, 71, 74
2, 63801, Control_c, 0, 64, 0
2, 63802, Note_off_c, 0, 73, 64
2, 63838, Control_c, 0, 64, 127
2, 63852, Note_on_c, 0, 72, 73
2, 63853, Note_on_c, 0, 63, 62
2, 63866, Note_off_c, 0, 71, 64
2, 63899, Note_on_c, 0, 62, 62
2, 63901, Note_on_c, 0, 71, 66
2, 63905, Note_off_c, 0, 63, 64
2, 63928, Note_off_c, 0, 72, 64
2, 63957, Note_on_c, 0, 61, 66
2, 63963, Note_on_c, 0, 70, 66
2, 63969, Note_off_c, 0, 62, 64
2, 63973, Note_off_c, 0, 71, 64
2, 64016, Note_on_c, 0, 69, 71
2, 64021, Note_on_c, 0, 60, 54
2, 64023, Note_off_c, 0, 70, 64
2, 64029, Note_off_c, 0, 61, 64
2, 64068, Note_on_c, 0, 59, 44
2, 64071, Note_on_c, 0, 68, 66
2, 64073, Note_off_c, 0, 60, 64
2, 64081, Note_off_c, 0, 69, 64
2, 64124, Note_on_c, 0, 58, 44
2, 64125, Note_on_c, 0, 64, 57
2, 64132, Note_off_c, 0, 59, 64
2, 64137, Note_off_c, 0, 68, 64
2, 64185, Note_on_c, 0, 67, 64
2, 64189, Note_on_c, 0, 57, 66
2, 64194, Note_off_c, 0, 58, 64
2, 64196, Note_off_c, 0, 64, 64
2, 64196, Control_c, 0, 64, 0
2, 64210, Control_c, 0, 64, 127
2, 64233, Note_on_c, 0, 65, 52
2, 64236, Note_on_c, 0, 56, 52
2, 64250, Note_off_c, 0, 57, 64
2, 64252, Note_off_c, 0, 67, 64
2, 64276, Note_on_c, 0, 55, 39
2, 64277, Note_on_c, 0, 64, 64
2, 64291, Note_off_c, 0, 56, 64
2, 64296, Note_off_c, 0, 65, 64
2, 64336, Note_on_c, 0, 54, 37
2, 64338, Note_on_c, 0, 63, 50
2, 64339, Note_off_c, 0, 55, 64
2, 64346, Note_off_c, 0, 64, 64
2, 64381, Note_on_c, 0, 61, 57
2, 64384, Note_on_c, 0, 53, 41
2, 64387, Note_off_c, 0, 54, 64
2, 64391, Note_off_c, 0, 63, 64
2, 64424, Note_on_c, 0, 52, 36
2, 64427, Note_on_c, 0, 56, 56
2, 64429, Note_off_c, 0, 53, 64
2, 64435, Note_off_c, 0, 61, 64
2, 64460, Control_c, 0, 64, 0
2, 64474, Control_c, 0, 64, 127
2, 64495, Note_on_c, 0, 51, 50
2, 64501, Note_on_c, 0, 60, 72
2, 64502, Note_off_c, 0, 52, 64
2, 64515, Note_off_c, 0, 56, 64
2, 64532, Control_c, 0, 64, 0
2, 64548, Note_on_c, 0, 44, 65
2, 64555, Note_on_c, 0, 63, 60
2, 64556, Control_c, 0, 64, 127
2, 64578, Note_off_c, 0, 60, 64
2, 64583, Note_off_c, 0, 51, 64
2, 64620, Note_on_c, 0, 68, 35
2, 64620, Note_on_c, 0, 51, 48
2, 64627, Note_off_c, 0, 44, 64
2, 64636, Note_off_c, 0, 63, 64
2, 64680, Note_on_c, 0, 60, 43
2, 64683, Note_off_c, 0, 51, 64
2, 64686, Note_on_c, 0, 72, 61
2, 64707, Note_off_c, 0, 68, 64
2, 64742, Note_on_c, 0, 75, 51
2, 64744, Note_on_c, 0, 63, 23
2, 64748, Note_off_c, 0, 60, 64
2, 64768, Note_off_c, 0, 72, 64
2, 64792, Note_on_c, 0, 72, 35
2, 64794, Note_on_c, 0, 80, 41
2, 64796, Control_c, 0, 64, 0
2, 64820, Control_c, 0, 64, 127
2, 64831, Note_off_c, 0, 63, 64
2, 64843, Note_off_c, 0, 75, 64
2, 64876, Note_on_c, 0, 92, 42
2, 64884, Note_on_c, 0, 56, 55
2, 64893, Note_off_c, 0, 72, 64
2, 64895, Note_off_c, 0, 80, 64
2, 64915, Control_c, 0, 64, 0
2, 64942, Control_c, 0, 64, 127
2, 65179, Control_c, 0, 64, 0
2, 65198, Control_c, 0, 64, 0
2, 65206, Control_c, 0, 64, 127
2, 65210, Note_off_c, 0, 92, 64
2, 65218, Note_off_c, 0, 56, 64
2, 65436, Note_on_c, 0, 56, 54
2, 65438, Note_on_c, 0, 51, 47
2, 65440, Note_on_c, 0, 44, 48
2, 65443, Note_on_c, 0, 32, 57
2, 65444, Note_on_c, 0, 60, 58
2, 65450, Control_c, 0, 64, 127
2, 65462, Control_c, 0, 64, 0
2, 65530, Note_off_c, 0, 32, 64
2, 65553, Note_off_c, 0, 56, 64
2, 65555, Note_off_c, 0, 51, 64
2, 65557, Note_off_c, 0, 44, 64
2, 65561, Note_off_c, 0, 60, 64
2, 65632, Note_on_c, 0, 56, 33
2, 65633, Note_on_c, 0, 51, 31
2, 65636, Note_on_c, 0, 44, 52
2, 65638, Note_on_c, 0, 60, 48
2, 65638, Note_on_c, 0, 32, 48
2, 65651, Control_c, 0, 64, 0
2, 65676, Control_c, 0, 64, 127
2, 65714, Control_c, 0, 64, 127
2, 65837, Control_c, 0, 64, 0
2, 65891, Control_c, 0, 64, 127
2, 65915, Control_c, 0, 64, 0
2, 65924, Note_off_c, 0, 56, 64
2, 65925, Note_off_c, 0, 51, 64
2, 65928, Note_off_c, 0, 44, 64
2, 65930, Note_off_c, 0, 60, 64
2, 65940, Control_c, 0, 64, 127
2, 66004, Note_off_c, 0, 32, 64
2, 66040, Note_on_c, 0, 56, 26
2, 66041, Note_on_c, 0, 32, 35
2, 66044, Note_on_c, 0, 60, 28
2, 66047, Note_on_c, 0, 51, 24
2, 66047, Note_on_c, 0, 44, 28
2, 66051, Control_c, 0, 64, 0
2, 66090, Control_c, 0, 64, 127
2, 66101, Control_c, 0, 64, 0
2, 66128, Note_off_c, 0, 32, 64
2, 66155, Control_c, 0, 64, 127
2, 66197, Note_off_c, 0, 56, 64
2, 66201, Note_off_c, 0, 60, 64
2, 66204, Note_off_c, 0, 44, 64
2, 66204, Note_off_c, 0, 51, 64
2, 66292, Note_on_c, 0, 44, 23
2, 66294, Note_on_c, 0, 51, 21
2, 66296, Note_on_c, 0, 32, 28
2, 66299, Note_on_c, 0, 60, 24
2, 66300, Note_on_c, 0, 56, 21
2, 66315, Control_c, 0, 64, 0
2, 66324, Control_c, 0, 64, 0
2, 66348, Control_c, 0, 64, 127
2, 66354, Control_c, 0, 64, 127
2, 66588, Control_c, 0, 64, 0
2, 66612, Control_c, 0, 64, 127
2, 66635, Control_c, 0, 64, 0
2, 66786, Note_off_c, 0, 44, 64
2, 66788, Note_off_c, 0, 51, 64
2, 66790, Note_off_c, 0, 32, 64
2, 66793, Note_off_c, 0, 60, 64
2, 66794, Note_off_c, 0, 56, 64
2, 66899, Control_c, 0, 64, 0
