0, 0, Header, 1, 7, 240
1, 0, Start_track
1, 0, Time_signature, 4, 2, 24, 8
1, 0, Tempo, 600000
1, 0, Marker_t, "Chopin: Mazurka, Op. 6 No. 2- Sotto voce"
1, 0, End_track
2, 0, Start_track
2, 0, Title_t, "Chopin: Op. 6 No. 2"
2, 0, Program_c, 0, 0
2, 0, Control_c, 0, 7, 127
2, 40, Control_c, 0, 64, 127
2, 48, Control_c, 0, 64, 127
2, 53, Control_c, 0, 64, 0
2, 61, Control_c, 0, 64, 0
2, 530, Control_c, 0, 64, 0
2, 538, Control_c, 0, 64, 0
2, 605, Note_on_c, 0, 68, 36
2, 605, Note_on_c, 0, 51, 27
2, 613, Note_on_c, 0, 60, 31
2, 614, Control_c, 0, 64, 127
2, 615, Note_on_c, 0, 44, 16
2, 622, Control_c, 0, 64, 127
2, 666, Note_off_c, 0, 51, 64
2, 673, Note_off_c, 0, 68, 64
2, 680, Note_off_c, 0, 44, 64
2, 709, Note_off_c, 0, 60, 64
2, 771, Note_on_c, 0, 68, 35
2, 774, Note_on_c, 0, 58, 39
2, 778, Note_on_c, 0, 51, 31
2, 780, Control_c, 0, 64, 0
2, 781, Note_on_c, 0, 44, 31
2, 788, Control_c, 0, 64, 0
2, 825, Control_c, 0, 64, 127
2, 831, Note_off_c, 0, 58, 64
2, 833, Control_c, 0, 64, 127
2, 912, Note_off_c, 0, 68, 64
2, 927, Note_on_c, 0, 60, 36
2, 960, Note_off_c, 0, 51, 64
2, 974, Note_off_c, 0, 44, 64
2, 987, Note_on_c, 0, 61, 49
2, 1004, Note_off_c, 0, 60, 64
2, 1064, Note_on_c, 0, 68, 44
2, 1069, Note_on_c, 0, 51, 35
2, 1074, Control_c, 0, 64, 0
2, 1075, Note_on_c, 0, 63, 41
2, 1075, Note_on_c, 0, 44, 35
2, 1082, Control_c, 0, 64, 0
2, 1090, Note_off_c, 0, 61, 64
2, 1103, Control_c, 0, 64, 127
2, 1111, Control_c, 0, 64, 127
2, 1134, Note_off_c, 0, 51, 64
2, 1135, Note_off_c, 0, 44, 64
2, 1142, Note_off_c, 0, 68, 64
2, 1142, Note_on_c, 0, 60, 40
2, 1159, Note_off_c, 0, 63, 64
2, 1214, Note_on_c, 0, 68, 40
2, 1214, Note_on_c, 0, 61, 48
2, 1224, Note_on_c, 0, 51, 35
2, 1229, Note_on_c, 0, 44, 33
2, 1234, Control_c, 0, 64, 0
2, 1237, Note_off_c, 0, 60, 64
2, 1242, Control_c, 0, 64, 0
2, 1276, Control_c, 0, 64, 127
2, 1284, Control_c, 0, 64, 127
2, 1344, Note_off_c, 0, 68, 64
2, 1400, Note_off_c, 0, 61, 64
2, 1419, Note_off_c, 0, 44, 64
2, 1422, Note_off_c, 0, 51, 64
2, 1450, Note_on_c, 0, 58, 32
2, 1488, Note_off_c, 0, 58, 64
2, 1540, Control_c, 0, 64, 0
2, 1548, Control_c, 0, 64, 0
2, 1552, Note_on_c, 0, 51, 31
2, 1554, Note_on_c, 0, 68, 33
2, 1554, Note_on_c, 0, 60, 45
2, 1554, Note_on_c, 0, 44, 33
2, 1575, Control_c, 0, 64, 127
2, 1583, Control_c, 0, 64, 127
2, 1592, Note_on_c, 0, 61, 45
2, 1603, Note_off_c, 0, 60, 64
2, 1604, Note_off_c, 0, 44, 64
2, 1607, Note_off_c, 0, 51, 64
2, 1634, Note_on_c, 0, 60, 45
2, 1640, Note_off_c, 0, 68, 64
2, 1642, Note_off_c, 0, 61, 64
2, 1670, Control_c, 0, 64, 0
2, 1678, Control_c, 0, 64, 0
2, 1682, Note_on_c, 0, 58, 50
2, 1686, Note_on_c, 0, 68, 29
2, 1689, Note_on_c, 0, 51, 29
2, 1695, Note_on_c, 0, 44, 33
2, 1701, Note_off_c, 0, 60, 64
2, 1715, Control_c, 0, 64, 127
2, 1723, Control_c, 0, 64, 127
2, 1762, Note_off_c, 0, 58, 64
2, 1771, Note_off_c, 0, 68, 64
2, 1822, Note_on_c, 0, 60, 37
2, 1828, Note_on_c, 0, 68, 37
2, 1877, Note_off_c, 0, 51, 64
2, 1887, Note_off_c, 0, 44, 64
2, 1890, Note_on_c, 0, 61, 46
2, 1894, Note_off_c, 0, 60, 64
2, 1916, Note_off_c, 0, 68, 64
2, 1957, Note_off_c, 0, 61, 64
2, 1959, Control_c, 0, 64, 0
2, 1967, Control_c, 0, 64, 0
2, 1974, Note_on_c, 0, 63, 44
2, 1976, Note_on_c, 0, 51, 35
2, 1976, Note_on_c, 0, 44, 35
2, 1987, Note_on_c, 0, 68, 37
2, 2002, Control_c, 0, 64, 127
2, 2010, Control_c, 0, 64, 127
2, 2019, Note_off_c, 0, 63, 64
2, 2031, Note_on_c, 0, 66, 33
2, 2041, Note_off_c, 0, 51, 64
2, 2054, Note_off_c, 0, 44, 64
2, 2057, Note_off_c, 0, 68, 64
2, 2072, Note_on_c, 0, 64, 32
2, 2126, Note_off_c, 0, 66, 64
2, 2137, Note_on_c, 0, 63, 29
2, 2146, Note_on_c, 0, 51, 32
2, 2146, Note_on_c, 0, 44, 35
2, 2147, Note_off_c, 0, 64, 64
2, 2149, Note_on_c, 0, 68, 45
2, 2157, Control_c, 0, 64, 0
2, 2165, Control_c, 0, 64, 0
2, 2223, Control_c, 0, 64, 127
2, 2231, Control_c, 0, 64, 127
2, 2277, Note_off_c, 0, 68, 64
2, 2337, Note_off_c, 0, 63, 64
2, 2359, Note_off_c, 0, 51, 64
2, 2366, Note_off_c, 0, 44, 64
2, 2442, Note_on_c, 0, 60, 29
2, 2445, Note_on_c, 0, 68, 35
2, 2449, Control_c, 0, 64, 0
2, 2450, Note_on_c, 0, 51, 32
2, 2450, Note_on_c, 0, 44, 35
2, 2457, Control_c, 0, 64, 0
2, 2464, Control_c, 0, 64, 127
2, 2472, Control_c, 0, 64, 127
2, 2487, Note_on_c, 0, 61, 41
2, 2497, Note_off_c, 0, 60, 64
2, 2503, Note_off_c, 0, 51, 64
2, 2507, Note_off_c, 0, 44, 64
2, 2526, Note_off_c, 0, 68, 64
2, 2540, Note_off_c, 0, 61, 64
2, 2540, Note_on_c, 0, 60, 41
2, 2567, Control_c, 0, 64, 0
2, 2575, Control_c, 0, 64, 0
2, 2580, Note_on_c, 0, 58, 46
2, 2581, Note_on_c, 0, 68, 26
2, 2588, Note_on_c, 0, 51, 29
2, 2596, Note_on_c, 0, 44, 27
2, 2597, Note_off_c, 0, 60, 64
2, 2615, Control_c, 0, 64, 127
2, 2623, Control_c, 0, 64, 127
2, 2637, Note_off_c, 0, 58, 64
2, 2647, Note_off_c, 0, 44, 64
2, 2647, Note_off_c, 0, 51, 64
2, 2667, Note_off_c, 0, 68, 64
2, 2725, Note_on_c, 0, 68, 31
2, 2730, Note_on_c, 0, 60, 37
2, 2732, Note_on_c, 0, 51, 23
2, 2747, Note_on_c, 0, 44, 16
2, 2774, Note_off_c, 0, 51, 64
2, 2777, Note_off_c, 0, 44, 64
2, 2782, Note_on_c, 0, 61, 37
2, 2786, Note_off_c, 0, 60, 64
2, 2815, Note_off_c, 0, 68, 64
2, 2850, Note_off_c, 0, 61, 64
2, 2863, Note_on_c, 0, 68, 37
2, 2868, Control_c, 0, 64, 0
2, 2870, Note_on_c, 0, 51, 27
2, 2876, Note_on_c, 0, 63, 22
2, 2876, Note_on_c, 0, 44, 20
2, 2876, Control_c, 0, 64, 0
2, 2897, Control_c, 0, 64, 127
2, 2905, Control_c, 0, 64, 127
2, 2918, Note_off_c, 0, 63, 64
2, 2924, Note_off_c, 0, 51, 64
2, 2931, Note_off_c, 0, 68, 64
2, 2934, Note_off_c, 0, 44, 64
2, 2934, Note_on_c, 0, 60, 37
2, 2981, Note_on_c, 0, 63, 33
2, 2991, Note_on_c, 0, 68, 36
2, 2996, Note_off_c, 0, 60, 64
2, 3004, Note_on_c, 0, 61, 32
2, 3005, Control_c, 0, 64, 0
2, 3013, Note_on_c, 0, 51, 28
2, 3013, Control_c, 0, 64, 0
2, 3025, Note_on_c, 0, 44, 20
2, 3046, Note_off_c, 0, 63, 64
2, 3052, Control_c, 0, 64, 127
2, 3060, Control_c, 0, 64, 127
2, 3068, Note_off_c, 0, 51, 64
2, 3070, Note_off_c, 0, 44, 64
2, 3078, Note_on_c, 0, 60, 44
2, 3079, Note_off_c, 0, 61, 64
2, 3116, Note_off_c, 0, 68, 64
2, 3137, Note_off_c, 0, 60, 64
2, 3137, Note_on_c, 0, 61, 46
2, 3147, Note_on_c, 0, 68, 35
2, 3152, Note_on_c, 0, 51, 26
2, 3155, Control_c, 0, 64, 0
2, 3160, Note_on_c, 0, 44, 23
2, 3163, Control_c, 0, 64, 0
2, 3178, Control_c, 0, 64, 127
2, 3186, Control_c, 0, 64, 127
2, 3197, Note_off_c, 0, 61, 64
2, 3206, Note_off_c, 0, 51, 64
2, 3212, Note_off_c, 0, 44, 64
2, 3212, Note_on_c, 0, 58, 46
2, 3216, Note_off_c, 0, 68, 64
2, 3243, Note_off_c, 0, 58, 64
2, 3290, Control_c, 0, 64, 0
2, 3298, Note_on_c, 0, 68, 28
2, 3298, Control_c, 0, 64, 0
2, 3312, Note_on_c, 0, 51, 18
2, 3312, Note_on_c, 0, 44, 27
2, 3314, Note_on_c, 0, 60, 41
2, 3325, Control_c, 0, 64, 127
2, 3333, Control_c, 0, 64, 127
2, 3348, Note_on_c, 0, 61, 36
2, 3357, Note_off_c, 0, 60, 64
2, 3357, Note_off_c, 0, 44, 64
2, 3357, Note_off_c, 0, 51, 64
2, 3394, Note_on_c, 0, 60, 44
2, 3397, Note_off_c, 0, 61, 64
2, 3416, Note_off_c, 0, 68, 64
2, 3441, Note_on_c, 0, 68, 35
2, 3448, Control_c, 0, 64, 0
2, 3448, Note_on_c, 0, 51, 32
2, 3450, Note_on_c, 0, 58, 46
2, 3451, Note_on_c, 0, 44, 26
2, 3456, Control_c, 0, 64, 0
2, 3462, Note_off_c, 0, 60, 64
2, 3471, Control_c, 0, 64, 127
2, 3479, Control_c, 0, 64, 127
2, 3487, Note_off_c, 0, 58, 64
2, 3502, Note_off_c, 0, 51, 64
2, 3509, Note_off_c, 0, 44, 64
2, 3509, Note_off_c, 0, 68, 64
2, 3601, Note_on_c, 0, 68, 36
2, 3601, Note_on_c, 0, 60, 37
2, 3605, Note_on_c, 0, 51, 27
2, 3612, Note_on_c, 0, 44, 20
2, 3651, Note_off_c, 0, 44, 64
2, 3654, Note_off_c, 0, 51, 64
2, 3654, Note_off_c, 0, 60, 64
2, 3658, Note_off_c, 0, 68, 64
2, 3667, Note_on_c, 0, 61, 44
2, 3719, Note_off_c, 0, 61, 64
2, 3767, Note_on_c, 0, 63, 41
2, 3774, Note_on_c, 0, 68, 44
2, 3786, Note_on_c, 0, 51, 24
2, 3786, Note_on_c, 0, 44, 27
2, 3802, Note_off_c, 0, 63, 64
2, 3815, Note_off_c, 0, 68, 64
2, 3831, Note_off_c, 0, 51, 64
2, 3831, Note_on_c, 0, 66, 35
2, 3836, Note_off_c, 0, 44, 64
2, 3838, Note_on_c, 0, 68, 40
2, 3871, Note_off_c, 0, 68, 64
2, 3874, Note_off_c, 0, 66, 64
2, 3893, Note_on_c, 0, 64, 41
2, 3903, Note_on_c, 0, 68, 32
2, 3932, Note_off_c, 0, 68, 64
2, 3947, Note_off_c, 0, 64, 64
2, 3969, Note_on_c, 0, 68, 40
2, 3975, Note_on_c, 0, 63, 44
2, 3983, Note_on_c, 0, 51, 27
2, 3985, Note_on_c, 0, 44, 23
2, 3988, Control_c, 0, 64, 0
2, 3996, Control_c, 0, 64, 0
2, 4040, Control_c, 0, 64, 127
2, 4048, Control_c, 0, 64, 127
2, 4061, Note_off_c, 0, 63, 64
2, 4079, Note_off_c, 0, 68, 64
2, 4142, Note_off_c, 0, 44, 64
2, 4156, Note_off_c, 0, 51, 64
2, 4243, Note_on_c, 0, 68, 53
2, 4478, Note_on_c, 0, 80, 50
2, 4482, Note_off_c, 0, 68, 64
2, 4484, Control_c, 0, 64, 0
2, 4486, Note_on_c, 0, 48, 50
2, 4492, Control_c, 0, 64, 0
2, 4540, Control_c, 0, 64, 127
2, 4548, Control_c, 0, 64, 127
2, 4618, Note_on_c, 0, 81, 46
2, 4645, Control_c, 0, 64, 0
2, 4653, Note_off_c, 0, 80, 64
2, 4653, Control_c, 0, 64, 0
2, 4659, Note_on_c, 0, 56, 30
2, 4663, Note_on_c, 0, 78, 57
2, 4670, Note_on_c, 0, 66, 34
2, 4674, Note_off_c, 0, 81, 64
2, 4679, Note_on_c, 0, 63, 19
2, 4703, Note_off_c, 0, 56, 64
2, 4703, Control_c, 0, 64, 127
2, 4709, Note_off_c, 0, 63, 64
2, 4711, Control_c, 0, 64, 127
2, 4718, Note_off_c, 0, 66, 64
2, 4726, Note_off_c, 0, 48, 64
2, 4820, Note_on_c, 0, 56, 37
2, 4824, Note_on_c, 0, 66, 33
2, 4826, Note_on_c, 0, 63, 37
2, 4855, Note_off_c, 0, 63, 64
2, 4855, Note_off_c, 0, 66, 64
2, 4861, Note_off_c, 0, 56, 64
2, 4875, Note_off_c, 0, 78, 64
2, 4895, Note_on_c, 0, 80, 50
2, 4960, Note_on_c, 0, 76, 52
2, 4960, Note_on_c, 0, 49, 50
2, 4962, Control_c, 0, 64, 0
2, 4970, Control_c, 0, 64, 0
2, 4976, Note_off_c, 0, 80, 64
2, 5006, Control_c, 0, 64, 127
2, 5014, Control_c, 0, 64, 127
2, 5067, Note_on_c, 0, 80, 49
2, 5074, Note_off_c, 0, 76, 64
2, 5096, Control_c, 0, 64, 0
2, 5101, Note_on_c, 0, 73, 49
2, 5104, Control_c, 0, 64, 0
2, 5109, Note_on_c, 0, 56, 38
2, 5114, Note_on_c, 0, 64, 30
2, 5119, Note_on_c, 0, 61, 39
2, 5127, Note_off_c, 0, 80, 64
2, 5137, Control_c, 0, 64, 127
2, 5145, Control_c, 0, 64, 127
2, 5157, Note_off_c, 0, 56, 64
2, 5161, Note_off_c, 0, 61, 64
2, 5170, Note_off_c, 0, 64, 64
2, 5200, Note_off_c, 0, 49, 64
2, 5217, Note_off_c, 0, 73, 64
2, 5246, Note_on_c, 0, 64, 25
2, 5250, Note_on_c, 0, 76, 55
2, 5250, Note_on_c, 0, 61, 34
2, 5255, Note_on_c, 0, 56, 31
2, 5279, Note_off_c, 0, 64, 64
2, 5284, Note_off_c, 0, 61, 64
2, 5285, Note_off_c, 0, 56, 64
2, 5382, Note_off_c, 0, 76, 64
2, 5382, Control_c, 0, 64, 0
2, 5386, Note_on_c, 0, 80, 54
2, 5390, Control_c, 0, 64, 0
2, 5399, Note_on_c, 0, 48, 50
2, 5425, Control_c, 0, 64, 127
2, 5433, Control_c, 0, 64, 127
2, 5485, Note_off_c, 0, 80, 64
2, 5490, Note_on_c, 0, 81, 49
2, 5511, Control_c, 0, 64, 0
2, 5519, Control_c, 0, 64, 0
2, 5528, Note_on_c, 0, 78, 50
2, 5528, Note_on_c, 0, 56, 34
2, 5531, Note_on_c, 0, 63, 30
2, 5535, Note_on_c, 0, 66, 34
2, 5539, Note_off_c, 0, 81, 64
2, 5566, Control_c, 0, 64, 127
2, 5567, Note_off_c, 0, 63, 64
2, 5570, Note_off_c, 0, 56, 64
2, 5574, Control_c, 0, 64, 127
2, 5589, Note_off_c, 0, 66, 64
2, 5639, Note_off_c, 0, 48, 64
2, 5670, Note_on_c, 0, 66, 30
2, 5671, Note_on_c, 0, 56, 34
2, 5674, Note_off_c, 0, 78, 64
2, 5675, Note_on_c, 0, 80, 55
2, 5680, Note_on_c, 0, 63, 19
2, 5697, Note_off_c, 0, 63, 64
2, 5708, Note_off_c, 0, 66, 64
2, 5713, Note_off_c, 0, 56, 64
2, 5798, Control_c, 0, 64, 0
2, 5805, Note_on_c, 0, 76, 50
2, 5806, Control_c, 0, 64, 0
2, 5814, Note_off_c, 0, 80, 64
2, 5816, Note_on_c, 0, 49, 44
2, 5855, Control_c, 0, 64, 127
2, 5863, Control_c, 0, 64, 127
2, 5874, Note_on_c, 0, 78, 41
2, 5883, Note_off_c, 0, 76, 64
2, 5906, Note_on_c, 0, 80, 59
2, 5923, Note_off_c, 0, 78, 64
2, 5942, Note_off_c, 0, 80, 64
2, 5965, Note_on_c, 0, 80, 58
2, 5985, Note_on_c, 0, 61, 39
2, 5998, Note_on_c, 0, 56, 20
2, 6002, Control_c, 0, 64, 0
2, 6003, Note_on_c, 0, 73, 55
2, 6007, Note_on_c, 0, 64, 18
2, 6010, Control_c, 0, 64, 0
2, 6024, Note_off_c, 0, 80, 64
2, 6056, Note_off_c, 0, 49, 64
2, 6058, Control_c, 0, 64, 127
2, 6066, Control_c, 0, 64, 127
2, 6086, Note_off_c, 0, 61, 64
2, 6089, Note_off_c, 0, 64, 64
2, 6100, Note_off_c, 0, 56, 64
2, 6215, Note_off_c, 0, 73, 64
2, 6253, Note_on_c, 0, 74, 55
2, 6352, Note_on_c, 0, 75, 66
2, 6353, Control_c, 0, 64, 0
2, 6354, Note_on_c, 0, 43, 42
2, 6358, Note_off_c, 0, 74, 64
2, 6361, Control_c, 0, 64, 0
2, 6406, Control_c, 0, 64, 127
2, 6414, Control_c, 0, 64, 127
2, 6460, Note_on_c, 0, 76, 59
2, 6473, Note_off_c, 0, 75, 64
2, 6473, Control_c, 0, 64, 0
2, 6481, Control_c, 0, 64, 0
2, 6502, Note_on_c, 0, 58, 33
2, 6504, Note_on_c, 0, 73, 72
2, 6504, Note_on_c, 0, 61, 33
2, 6508, Note_on_c, 0, 51, 17
2, 6524, Note_off_c, 0, 76, 64
2, 6539, Note_off_c, 0, 61, 64
2, 6550, Note_off_c, 0, 51, 64
2, 6551, Note_off_c, 0, 58, 64
2, 6553, Control_c, 0, 64, 127
2, 6561, Control_c, 0, 64, 127
2, 6579, Control_c, 0, 64, 127
2, 6587, Control_c, 0, 64, 127
2, 6594, Note_off_c, 0, 43, 64
2, 6598, Control_c, 0, 64, 0
2, 6606, Control_c, 0, 64, 0
2, 6634, Note_on_c, 0, 61, 49
2, 6640, Note_on_c, 0, 51, 48
2, 6642, Note_on_c, 0, 58, 34
2, 6670, Note_off_c, 0, 58, 64
2, 6680, Note_off_c, 0, 61, 64
2, 6686, Note_off_c, 0, 51, 64
2, 6706, Note_on_c, 0, 75, 61
2, 6714, Note_off_c, 0, 73, 64
2, 6763, Note_on_c, 0, 72, 63
2, 6773, Control_c, 0, 64, 0
2, 6781, Control_c, 0, 64, 0
2, 6783, Note_on_c, 0, 44, 61
2, 6786, Note_off_c, 0, 75, 64
2, 6816, Control_c, 0, 64, 127
2, 6824, Control_c, 0, 64, 127
2, 6874, Note_off_c, 0, 72, 64
2, 6874, Note_on_c, 0, 75, 46
2, 6897, Control_c, 0, 64, 0
2, 6905, Control_c, 0, 64, 0
2, 6914, Note_on_c, 0, 68, 59
2, 6925, Note_off_c, 0, 75, 64
2, 6925, Note_on_c, 0, 54, 42
2, 6930, Note_on_c, 0, 60, 44
2, 6930, Note_on_c, 0, 51, 39
2, 6939, Control_c, 0, 64, 127
2, 6947, Control_c, 0, 64, 127
2, 6963, Note_off_c, 0, 51, 64
2, 6968, Note_off_c, 0, 54, 64
2, 6971, Note_off_c, 0, 60, 64
2, 7005, Note_off_c, 0, 68, 64
2, 7023, Note_off_c, 0, 44, 64
2, 7058, Note_on_c, 0, 71, 59
2, 7076, Note_on_c, 0, 60, 51
2, 7080, Note_on_c, 0, 54, 40
2, 7080, Note_on_c, 0, 51, 50
2, 7094, Note_on_c, 0, 69, 48
2, 7095, Note_off_c, 0, 71, 64
2, 7120, Note_off_c, 0, 51, 64
2, 7122, Note_on_c, 0, 71, 71
2, 7125, Note_off_c, 0, 54, 64
2, 7128, Note_off_c, 0, 60, 64
2, 7130, Note_off_c, 0, 69, 64
2, 7153, Note_on_c, 0, 69, 63
2, 7155, Note_off_c, 0, 71, 64
2, 7184, Note_on_c, 0, 71, 68
2, 7192, Note_off_c, 0, 69, 64
2, 7208, Note_on_c, 0, 69, 62
2, 7217, Note_off_c, 0, 71, 64
2, 7232, Control_c, 0, 64, 0
2, 7235, Note_on_c, 0, 68, 76
2, 7240, Control_c, 0, 64, 0
2, 7248, Note_off_c, 0, 69, 64
2, 7248, Note_on_c, 0, 44, 48
2, 7269, Note_off_c, 0, 68, 64
2, 7291, Control_c, 0, 64, 127
2, 7299, Control_c, 0, 64, 127
2, 7355, Note_on_c, 0, 66, 49
2, 7367, Control_c, 0, 64, 0
2, 7375, Control_c, 0, 64, 0
2, 7395, Note_on_c, 0, 54, 41
2, 7396, Note_on_c, 0, 60, 48
2, 7396, Note_on_c, 0, 51, 45
2, 7399, Note_on_c, 0, 63, 68
2, 7405, Note_off_c, 0, 66, 64
2, 7434, Control_c, 0, 64, 127
2, 7440, Note_off_c, 0, 51, 64
2, 7441, Note_off_c, 0, 54, 64
2, 7442, Control_c, 0, 64, 127
2, 7451, Note_off_c, 0, 60, 64
2, 7488, Note_off_c, 0, 44, 64
2, 7549, Note_on_c, 0, 68, 70
2, 7552, Note_on_c, 0, 54, 31
2, 7555, Note_on_c, 0, 60, 35
2, 7556, Note_on_c, 0, 51, 41
2, 7568, Note_off_c, 0, 63, 64
2, 7592, Note_off_c, 0, 68, 64
2, 7597, Note_off_c, 0, 60, 64
2, 7600, Note_off_c, 0, 51, 64
2, 7600, Note_off_c, 0, 54, 64
2, 7701, Note_on_c, 0, 68, 54
2, 7721, Control_c, 0, 64, 0
2, 7721, Note_on_c, 0, 37, 57
2, 7729, Control_c, 0, 64, 0
2, 7736, Note_on_c, 0, 61, 66
2, 7749, Note_off_c, 0, 68, 64
2, 7770, Control_c, 0, 64, 127
2, 7778, Control_c, 0, 64, 127
2, 7900, Note_on_c, 0, 49, 48
2, 7940, Note_on_c, 0, 56, 39
2, 7961, Note_off_c, 0, 37, 64
2, 7971, Note_on_c, 0, 64, 55
2, 8140, Note_off_c, 0, 49, 64
2, 8169, Note_on_c, 0, 68, 57
2, 8181, Note_off_c, 0, 64, 64
2, 8195, Note_off_c, 0, 56, 64
2, 8205, Note_off_c, 0, 61, 64
2, 8347, Control_c, 0, 64, 0
2, 8349, Note_on_c, 0, 80, 58
2, 8349, Note_on_c, 0, 48, 61
2, 8355, Control_c, 0, 64, 0
2, 8409, Control_c, 0, 64, 127
2, 8417, Control_c, 0, 64, 127
2, 8452, Note_on_c, 0, 81, 58
2, 8459, Control_c, 0, 64, 0
2, 8461, Note_off_c, 0, 68, 64
2, 8463, Note_off_c, 0, 80, 64
2, 8467, Control_c, 0, 64, 0
2, 8500, Note_on_c, 0, 78, 65
2, 8500, Note_on_c, 0, 56, 49
2, 8504, Note_on_c, 0, 66, 24
2, 8504, Note_on_c, 0, 63, 37
2, 8514, Note_off_c, 0, 81, 64
2, 8522, Control_c, 0, 64, 127
2, 8530, Control_c, 0, 64, 127
2, 8542, Note_off_c, 0, 63, 64
2, 8550, Note_off_c, 0, 66, 64
2, 8555, Note_off_c, 0, 56, 64
2, 8589, Note_off_c, 0, 48, 64
2, 8640, Note_on_c, 0, 66, 56
2, 8640, Note_on_c, 0, 63, 51
2, 8640, Note_on_c, 0, 56, 30
2, 8675, Note_off_c, 0, 63, 64
2, 8679, Note_off_c, 0, 66, 64
2, 8684, Note_off_c, 0, 56, 64
2, 8717, Note_on_c, 0, 80, 52
2, 8728, Note_off_c, 0, 78, 64
2, 8773, Control_c, 0, 64, 0
2, 8773, Note_on_c, 0, 76, 59
2, 8773, Note_on_c, 0, 49, 63
2, 8781, Control_c, 0, 64, 0
2, 8789, Note_off_c, 0, 80, 64
2, 8838, Control_c, 0, 64, 127
2, 8846, Control_c, 0, 64, 127
2, 8879, Note_on_c, 0, 80, 54
2, 8883, Control_c, 0, 64, 0
2, 8891, Note_off_c, 0, 76, 64
2, 8891, Control_c, 0, 64, 0
2, 8912, Note_on_c, 0, 64, 46
2, 8914, Note_on_c, 0, 73, 70
2, 8917, Note_on_c, 0, 61, 40
2, 8917, Note_on_c, 0, 56, 30
2, 8939, Note_off_c, 0, 80, 64
2, 8944, Control_c, 0, 64, 127
2, 8952, Note_off_c, 0, 64, 64
2, 8952, Control_c, 0, 64, 127
2, 8960, Note_off_c, 0, 56, 64
2, 8973, Note_off_c, 0, 61, 64
2, 9013, Note_off_c, 0, 49, 64
2, 9052, Note_on_c, 0, 76, 61
2, 9052, Note_on_c, 0, 61, 49
2, 9058, Note_off_c, 0, 73, 64
2, 9058, Note_on_c, 0, 64, 49
2, 9058, Note_on_c, 0, 56, 40
2, 9087, Note_off_c, 0, 56, 64
2, 9090, Note_off_c, 0, 64, 64
2, 9090, Note_off_c, 0, 61, 64
2, 9191, Note_on_c, 0, 80, 65
2, 9197, Control_c, 0, 64, 0
2, 9199, Note_off_c, 0, 76, 64
2, 9205, Control_c, 0, 64, 0
2, 9211, Note_on_c, 0, 48, 53
2, 9246, Control_c, 0, 64, 127
2, 9254, Control_c, 0, 64, 127
2, 9285, Note_off_c, 0, 80, 64
2, 9285, Note_on_c, 0, 81, 63
2, 9324, Control_c, 0, 64, 0
2, 9332, Control_c, 0, 64, 0
2, 9344, Note_on_c, 0, 63, 35
2, 9347, Note_off_c, 0, 81, 64
2, 9352, Note_on_c, 0, 66, 46
2, 9353, Note_on_c, 0, 56, 45
2, 9362, Note_on_c, 0, 78, 71
2, 9386, Note_off_c, 0, 63, 64
2, 9397, Control_c, 0, 64, 127
2, 9398, Note_off_c, 0, 56, 64
2, 9401, Note_off_c, 0, 66, 64
2, 9405, Control_c, 0, 64, 127
2, 9451, Note_off_c, 0, 48, 64
2, 9489, Note_off_c, 0, 78, 64
2, 9513, Note_on_c, 0, 80, 57
2, 9523, Note_on_c, 0, 66, 49
2, 9523, Note_on_c, 0, 63, 48
2, 9523, Note_on_c, 0, 56, 42
2, 9553, Note_off_c, 0, 66, 64
2, 9559, Note_off_c, 0, 63, 64
2, 9563, Note_off_c, 0, 56, 64
2, 9615, Note_off_c, 0, 80, 64
2, 9686, Note_on_c, 0, 49, 53
2, 9687, Note_on_c, 0, 76, 58
2, 9689, Control_c, 0, 64, 0
2, 9697, Control_c, 0, 64, 0
2, 9724, Control_c, 0, 64, 127
2, 9732, Control_c, 0, 64, 127
2, 9753, Note_on_c, 0, 78, 66
2, 9775, Note_off_c, 0, 76, 64
2, 9805, Note_on_c, 0, 80, 66
2, 9824, Note_off_c, 0, 78, 64
2, 9827, Note_off_c, 0, 80, 64
2, 9833, Control_c, 0, 64, 0
2, 9841, Control_c, 0, 64, 0
2, 9848, Note_on_c, 0, 80, 76
2, 9884, Note_on_c, 0, 73, 70
2, 9884, Note_on_c, 0, 64, 46
2, 9888, Note_on_c, 0, 61, 46
2, 9888, Note_on_c, 0, 56, 22
2, 9893, Note_off_c, 0, 80, 64
2, 9911, Control_c, 0, 64, 127
2, 9919, Control_c, 0, 64, 127
2, 9926, Note_off_c, 0, 49, 64
2, 9968, Note_off_c, 0, 64, 64
2, 9976, Note_off_c, 0, 56, 64
2, 9989, Note_off_c, 0, 61, 64
2, 10141, Note_on_c, 0, 74, 65
2, 10145, Note_off_c, 0, 73, 64
2, 10223, Note_on_c, 0, 43, 52
2, 10230, Note_on_c, 0, 75, 61
2, 10260, Note_off_c, 0, 74, 64
2, 10337, Note_off_c, 0, 75, 64
2, 10337, Note_on_c, 0, 76, 55
2, 10346, Control_c, 0, 64, 0
2, 10354, Control_c, 0, 64, 0
2, 10367, Note_on_c, 0, 61, 48
2, 10373, Note_on_c, 0, 51, 24
2, 10377, Note_on_c, 0, 73, 74
2, 10377, Note_on_c, 0, 58, 48
2, 10400, Note_off_c, 0, 76, 64
2, 10426, Note_off_c, 0, 58, 64
2, 10426, Note_off_c, 0, 61, 64
2, 10427, Note_off_c, 0, 51, 64
2, 10463, Note_off_c, 0, 43, 64
2, 10509, Note_on_c, 0, 61, 50
2, 10517, Note_on_c, 0, 51, 44
2, 10520, Note_on_c, 0, 58, 24
2, 10542, Control_c, 0, 64, 127
2, 10549, Note_off_c, 0, 58, 64
2, 10550, Control_c, 0, 64, 127
2, 10556, Note_off_c, 0, 61, 64
2, 10566, Note_off_c, 0, 51, 64
2, 10584, Note_on_c, 0, 75, 63
2, 10599, Note_off_c, 0, 73, 64
2, 10602, Control_c, 0, 64, 0
2, 10610, Control_c, 0, 64, 0
2, 10645, Note_on_c, 0, 72, 62
2, 10653, Note_on_c, 0, 44, 66
2, 10664, Note_off_c, 0, 75, 64
2, 10682, Control_c, 0, 64, 127
2, 10690, Control_c, 0, 64, 127
2, 10746, Note_on_c, 0, 75, 62
2, 10753, Note_off_c, 0, 72, 64
2, 10759, Control_c, 0, 64, 0
2, 10767, Control_c, 0, 64, 0
2, 10782, Control_c, 0, 64, 127
2, 10790, Control_c, 0, 64, 127
2, 10797, Note_on_c, 0, 68, 55
2, 10797, Note_on_c, 0, 51, 41
2, 10802, Note_on_c, 0, 60, 31
2, 10807, Note_off_c, 0, 75, 64
2, 10838, Note_off_c, 0, 51, 64
2, 10844, Note_off_c, 0, 60, 64
2, 10867, Note_off_c, 0, 68, 64
2, 10893, Note_off_c, 0, 44, 64
2, 10933, Note_on_c, 0, 71, 66
2, 10944, Note_on_c, 0, 54, 45
2, 10950, Note_on_c, 0, 60, 42
2, 10950, Note_on_c, 0, 51, 42
2, 10972, Note_on_c, 0, 69, 55
2, 10975, Note_off_c, 0, 71, 64
2, 10989, Note_off_c, 0, 51, 64
2, 10994, Note_off_c, 0, 60, 64
2, 10998, Note_off_c, 0, 54, 64
2, 11002, Note_on_c, 0, 71, 70
2, 11010, Note_off_c, 0, 69, 64
2, 11031, Note_off_c, 0, 71, 64
2, 11033, Note_on_c, 0, 69, 63
2, 11060, Note_on_c, 0, 71, 61
2, 11087, Note_off_c, 0, 71, 64
2, 11107, Note_on_c, 0, 68, 87
2, 11111, Control_c, 0, 64, 0
2, 11115, Note_off_c, 0, 69, 64
2, 11119, Note_on_c, 0, 44, 61
2, 11119, Control_c, 0, 64, 0
2, 11143, Note_off_c, 0, 68, 64
2, 11155, Control_c, 0, 64, 127
2, 11163, Control_c, 0, 64, 127
2, 11224, Note_on_c, 0, 66, 63
2, 11234, Control_c, 0, 64, 0
2, 11242, Control_c, 0, 64, 0
2, 11245, Note_off_c, 0, 66, 64
2, 11258, Note_on_c, 0, 54, 48
2, 11260, Note_on_c, 0, 51, 52
2, 11267, Note_on_c, 0, 60, 44
2, 11274, Note_on_c, 0, 63, 68
2, 11297, Control_c, 0, 64, 127
2, 11305, Control_c, 0, 64, 127
2, 11310, Note_off_c, 0, 51, 64
2, 11313, Note_off_c, 0, 54, 64
2, 11322, Note_off_c, 0, 60, 64
2, 11359, Note_off_c, 0, 44, 64
2, 11417, Note_on_c, 0, 60, 45
2, 11425, Note_on_c, 0, 68, 75
2, 11431, Note_on_c, 0, 51, 33
2, 11433, Note_on_c, 0, 54, 33
2, 11451, Note_off_c, 0, 60, 64
2, 11455, Note_off_c, 0, 51, 64
2, 11456, Note_off_c, 0, 54, 64
2, 11456, Note_off_c, 0, 63, 64
2, 11473, Note_off_c, 0, 68, 64
2, 11562, Note_on_c, 0, 68, 50
2, 11587, Control_c, 0, 64, 0
2, 11589, Note_on_c, 0, 61, 72
2, 11595, Control_c, 0, 64, 0
2, 11603, Note_on_c, 0, 37, 61
2, 11609, Note_off_c, 0, 68, 64
2, 11638, Control_c, 0, 64, 127
2, 11646, Control_c, 0, 64, 127
2, 11759, Note_on_c, 0, 49, 40
2, 11820, Note_on_c, 0, 56, 55
2, 11843, Note_off_c, 0, 37, 64
2, 11856, Note_on_c, 0, 64, 50
2, 11900, Note_off_c, 0, 61, 64
2, 11967, Note_on_c, 0, 62, 50
2, 12026, Note_off_c, 0, 49, 64
2, 12096, Control_c, 0, 64, 0
2, 12098, Note_off_c, 0, 56, 64
2, 12101, Note_off_c, 0, 64, 64
2, 12104, Control_c, 0, 64, 0
2, 12115, Note_on_c, 0, 63, 53
2, 12121, Note_on_c, 0, 44, 53
2, 12128, Note_off_c, 0, 62, 64
2, 12149, Control_c, 0, 64, 127
2, 12157, Control_c, 0, 64, 127
2, 12242, Note_on_c, 0, 67, 46
2, 12248, Control_c, 0, 64, 0
2, 12256, Control_c, 0, 64, 0
2, 12272, Note_off_c, 0, 63, 64
2, 12284, Note_on_c, 0, 51, 35
2, 12288, Note_on_c, 0, 60, 37
2, 12289, Note_off_c, 0, 67, 64
2, 12292, Note_on_c, 0, 56, 36
2, 12296, Note_on_c, 0, 68, 46
2, 12301, Control_c, 0, 64, 127
2, 12304, Control_c, 0, 64, 0
2, 12309, Note_off_c, 0, 56, 64
2, 12309, Control_c, 0, 64, 127
2, 12312, Control_c, 0, 64, 0
2, 12345, Control_c, 0, 64, 127
2, 12346, Note_off_c, 0, 51, 64
2, 12350, Note_off_c, 0, 60, 64
2, 12353, Control_c, 0, 64, 127
2, 12361, Note_off_c, 0, 44, 64
2, 12409, Note_off_c, 0, 68, 64
2, 12416, Note_on_c, 0, 72, 50
2, 12420, Note_on_c, 0, 60, 31
2, 12420, Note_on_c, 0, 51, 35
2, 12427, Note_on_c, 0, 56, 36
2, 12456, Note_off_c, 0, 60, 64
2, 12461, Note_off_c, 0, 56, 64
2, 12462, Note_off_c, 0, 51, 64
2, 12494, Note_off_c, 0, 72, 64
2, 12500, Note_on_c, 0, 75, 55
2, 12551, Control_c, 0, 64, 0
2, 12553, Note_off_c, 0, 75, 64
2, 12559, Control_c, 0, 64, 0
2, 12570, Note_on_c, 0, 63, 55
2, 12570, Note_on_c, 0, 44, 57
2, 12582, Control_c, 0, 64, 127
2, 12590, Control_c, 0, 64, 127
2, 12605, Note_off_c, 0, 63, 64
2, 12672, Note_on_c, 0, 67, 54
2, 12705, Note_on_c, 0, 68, 52
2, 12711, Note_on_c, 0, 56, 33
2, 12711, Note_on_c, 0, 51, 37
2, 12716, Note_on_c, 0, 60, 24
2, 12739, Note_off_c, 0, 67, 64
2, 12755, Note_off_c, 0, 51, 64
2, 12756, Note_off_c, 0, 60, 64
2, 12764, Note_off_c, 0, 56, 64
2, 12797, Note_off_c, 0, 68, 64
2, 12797, Note_on_c, 0, 72, 49
2, 12810, Note_off_c, 0, 44, 64
2, 12844, Note_on_c, 0, 60, 31
2, 12848, Note_on_c, 0, 56, 40
2, 12855, Note_on_c, 0, 75, 55
2, 12857, Note_on_c, 0, 51, 27
2, 12872, Note_off_c, 0, 72, 64
2, 12887, Note_off_c, 0, 60, 64
2, 12888, Note_off_c, 0, 51, 64
2, 12906, Note_off_c, 0, 56, 64
2, 12945, Note_off_c, 0, 75, 64
2, 12975, Control_c, 0, 64, 0
2, 12983, Control_c, 0, 64, 0
2, 12991, Note_on_c, 0, 74, 48
2, 12991, Note_on_c, 0, 58, 46
2, 12991, Note_on_c, 0, 56, 46
2, 12992, Note_on_c, 0, 53, 44
2, 13026, Control_c, 0, 64, 127
2, 13034, Control_c, 0, 64, 127
2, 13051, Note_off_c, 0, 56, 64
2, 13073, Note_off_c, 0, 74, 64
2, 13082, Note_off_c, 0, 53, 64
2, 13092, Note_on_c, 0, 70, 46
2, 13105, Control_c, 0, 64, 0
2, 13113, Control_c, 0, 64, 0
2, 13127, Note_on_c, 0, 73, 46
2, 13127, Note_on_c, 0, 51, 44
2, 13135, Note_on_c, 0, 55, 44
2, 13167, Control_c, 0, 64, 127
2, 13168, Note_off_c, 0, 70, 64
2, 13175, Control_c, 0, 64, 127
2, 13189, Note_off_c, 0, 51, 64
2, 13192, Note_off_c, 0, 55, 64
2, 13254, Note_off_c, 0, 73, 64
2, 13265, Control_c, 0, 64, 0
2, 13271, Note_on_c, 0, 72, 50
2, 13273, Control_c, 0, 64, 0
2, 13279, Note_on_c, 0, 56, 50
2, 13283, Note_on_c, 0, 44, 55
2, 13286, Note_off_c, 0, 58, 64
2, 13302, Control_c, 0, 64, 127
2, 13310, Control_c, 0, 64, 127
2, 13317, Note_off_c, 0, 44, 64
2, 13329, Note_off_c, 0, 56, 64
2, 13342, Note_on_c, 0, 68, 62
2, 13345, Note_off_c, 0, 72, 64
2, 13398, Note_off_c, 0, 68, 64
2, 13406, Control_c, 0, 64, 0
2, 13414, Control_c, 0, 64, 0
2, 13424, Note_on_c, 0, 74, 49
2, 13424, Note_on_c, 0, 56, 44
2, 13433, Note_on_c, 0, 58, 40
2, 13440, Note_on_c, 0, 53, 31
2, 13452, Control_c, 0, 64, 127
2, 13460, Control_c, 0, 64, 127
2, 13484, Note_on_c, 0, 70, 58
2, 13486, Note_off_c, 0, 74, 64
2, 13488, Note_off_c, 0, 56, 64
2, 13512, Note_on_c, 0, 72, 50
2, 13543, Note_off_c, 0, 70, 64
2, 13543, Note_on_c, 0, 55, 45
2, 13550, Control_c, 0, 64, 0
2, 13554, Note_on_c, 0, 73, 59
2, 13558, Control_c, 0, 64, 0
2, 13562, Note_off_c, 0, 53, 64
2, 13573, Note_off_c, 0, 72, 64
2, 13576, Note_on_c, 0, 51, 42
2, 13606, Control_c, 0, 64, 127
2, 13614, Control_c, 0, 64, 127
2, 13644, Note_off_c, 0, 51, 64
2, 13644, Note_off_c, 0, 55, 64
2, 13703, Control_c, 0, 64, 0
2, 13711, Control_c, 0, 64, 0
2, 13718, Note_on_c, 0, 72, 49
2, 13722, Note_on_c, 0, 56, 36
2, 13728, Note_off_c, 0, 58, 64
2, 13730, Note_on_c, 0, 44, 58
2, 13735, Control_c, 0, 64, 127
2, 13739, Note_off_c, 0, 73, 64
2, 13743, Control_c, 0, 64, 127
2, 13761, Note_off_c, 0, 56, 64
2, 13772, Note_off_c, 0, 44, 64
2, 13777, Note_off_c, 0, 72, 64
2, 13803, Note_on_c, 0, 68, 55
2, 13828, Note_off_c, 0, 68, 64
2, 13860, Control_c, 0, 64, 0
2, 13868, Note_on_c, 0, 32, 53
2, 13868, Control_c, 0, 64, 0
2, 13875, Note_on_c, 0, 44, 24
2, 13883, Note_on_c, 0, 63, 57
2, 13892, Control_c, 0, 64, 0
2, 13900, Control_c, 0, 64, 0
2, 13908, Control_c, 0, 64, 127
2, 13916, Control_c, 0, 64, 127
2, 13933, Control_c, 0, 64, 127
2, 13941, Control_c, 0, 64, 127
2, 13996, Note_on_c, 0, 67, 54
2, 14007, Control_c, 0, 64, 0
2, 14012, Note_on_c, 0, 51, 36
2, 14015, Control_c, 0, 64, 0
2, 14023, Note_on_c, 0, 60, 40
2, 14023, Note_on_c, 0, 56, 22
2, 14030, Note_off_c, 0, 63, 64
2, 14030, Note_on_c, 0, 68, 55
2, 14050, Control_c, 0, 64, 127
2, 14055, Note_off_c, 0, 67, 64
2, 14058, Control_c, 0, 64, 127
2, 14065, Note_off_c, 0, 51, 64
2, 14068, Note_off_c, 0, 60, 64
2, 14071, Note_off_c, 0, 56, 64
2, 14108, Note_off_c, 0, 32, 64
2, 14115, Note_off_c, 0, 44, 64
2, 14136, Control_c, 0, 64, 0
2, 14144, Control_c, 0, 64, 0
2, 14156, Note_off_c, 0, 68, 64
2, 14163, Note_on_c, 0, 72, 50
2, 14163, Note_on_c, 0, 60, 42
2, 14170, Note_on_c, 0, 56, 28
2, 14173, Note_on_c, 0, 51, 35
2, 14180, Control_c, 0, 64, 127
2, 14188, Control_c, 0, 64, 127
2, 14203, Note_off_c, 0, 56, 64
2, 14205, Note_off_c, 0, 60, 64
2, 14209, Note_off_c, 0, 51, 64
2, 14230, Note_on_c, 0, 75, 58
2, 14233, Note_off_c, 0, 72, 64
2, 14278, Control_c, 0, 64, 0
2, 14286, Control_c, 0, 64, 0
2, 14301, Note_on_c, 0, 44, 58
2, 14305, Note_on_c, 0, 63, 61
2, 14319, Control_c, 0, 64, 127
2, 14327, Control_c, 0, 64, 127
2, 14336, Note_off_c, 0, 75, 64
2, 14337, Note_off_c, 0, 63, 64
2, 14393, Note_on_c, 0, 67, 58
2, 14420, Control_c, 0, 64, 0
2, 14428, Control_c, 0, 64, 0
2, 14435, Note_on_c, 0, 68, 55
2, 14438, Note_on_c, 0, 51, 40
2, 14442, Note_on_c, 0, 60, 37
2, 14442, Note_on_c, 0, 56, 36
2, 14464, Note_off_c, 0, 67, 64
2, 14464, Control_c, 0, 64, 127
2, 14472, Control_c, 0, 64, 127
2, 14487, Note_off_c, 0, 51, 64
2, 14492, Note_off_c, 0, 56, 64
2, 14494, Note_off_c, 0, 60, 64
2, 14514, Note_on_c, 0, 72, 53
2, 14526, Note_off_c, 0, 68, 64
2, 14541, Note_off_c, 0, 44, 64
2, 14544, Control_c, 0, 64, 0
2, 14552, Control_c, 0, 64, 0
2, 14576, Note_on_c, 0, 56, 40
2, 14579, Note_on_c, 0, 51, 31
2, 14583, Note_on_c, 0, 75, 66
2, 14585, Note_on_c, 0, 60, 28
2, 14587, Control_c, 0, 64, 127
2, 14595, Control_c, 0, 64, 127
2, 14600, Note_off_c, 0, 72, 64
2, 14626, Note_off_c, 0, 60, 64
2, 14634, Note_off_c, 0, 51, 64
2, 14634, Note_off_c, 0, 56, 64
2, 14690, Note_off_c, 0, 75, 64
2, 14695, Control_c, 0, 64, 0
2, 14703, Control_c, 0, 64, 0
2, 14723, Note_on_c, 0, 74, 50
2, 14723, Note_on_c, 0, 56, 49
2, 14727, Note_on_c, 0, 58, 58
2, 14736, Note_on_c, 0, 53, 31
2, 14752, Control_c, 0, 64, 127
2, 14760, Control_c, 0, 64, 127
2, 14790, Note_off_c, 0, 56, 64
2, 14804, Note_on_c, 0, 70, 67
2, 14816, Note_off_c, 0, 74, 64
2, 14826, Note_off_c, 0, 53, 64
2, 14844, Control_c, 0, 64, 0
2, 14852, Control_c, 0, 64, 0
2, 14860, Note_on_c, 0, 73, 50
2, 14861, Note_on_c, 0, 55, 49
2, 14864, Note_on_c, 0, 51, 45
2, 14879, Note_off_c, 0, 70, 64
2, 14888, Control_c, 0, 64, 127
2, 14896, Control_c, 0, 64, 127
2, 14929, Note_off_c, 0, 55, 64
2, 14932, Note_off_c, 0, 51, 64
2, 14966, Note_off_c, 0, 73, 64
2, 14986, Control_c, 0, 64, 0
2, 14994, Control_c, 0, 64, 0
2, 15010, Note_on_c, 0, 72, 50
2, 15010, Note_on_c, 0, 56, 53
2, 15014, Note_on_c, 0, 44, 55
2, 15022, Note_off_c, 0, 58, 64
2, 15056, Control_c, 0, 64, 127
2, 15064, Control_c, 0, 64, 127
2, 15092, Note_on_c, 0, 68, 53
2, 15093, Note_off_c, 0, 44, 64
2, 15096, Note_off_c, 0, 56, 64
2, 15115, Note_off_c, 0, 72, 64
2, 15126, Control_c, 0, 64, 0
2, 15134, Control_c, 0, 64, 0
2, 15152, Note_on_c, 0, 80, 65
2, 15161, Note_off_c, 0, 68, 64
2, 15181, Control_c, 0, 64, 127
2, 15189, Control_c, 0, 64, 127
2, 15276, Note_off_c, 0, 80, 64
2, 15276, Note_on_c, 0, 68, 66
2, 15281, Control_c, 0, 64, 0
2, 15289, Control_c, 0, 64, 0
2, 15322, Note_on_c, 0, 80, 59
2, 15348, Note_off_c, 0, 68, 64
2, 15348, Control_c, 0, 64, 127
2, 15356, Control_c, 0, 64, 127
2, 15464, Note_off_c, 0, 80, 64
2, 15473, Note_on_c, 0, 68, 58
2, 15523, Note_on_c, 0, 80, 62
2, 15554, Note_off_c, 0, 68, 64
2, 15705, Note_off_c, 0, 80, 64
2, 15708, Note_on_c, 0, 68, 48
2, 15804, Control_c, 0, 64, 0
2, 15806, Note_on_c, 0, 48, 50
2, 15812, Control_c, 0, 64, 0
2, 15817, Note_on_c, 0, 80, 49
2, 15835, Note_off_c, 0, 68, 64
2, 15852, Control_c, 0, 64, 127
2, 15860, Control_c, 0, 64, 127
2, 15980, Note_off_c, 0, 80, 64
2, 15981, Note_on_c, 0, 81, 44
2, 16007, Control_c, 0, 64, 0
2, 16010, Note_on_c, 0, 56, 27
2, 16015, Control_c, 0, 64, 0
2, 16019, Note_on_c, 0, 66, 30
2, 16029, Note_on_c, 0, 78, 59
2, 16029, Note_on_c, 0, 63, 20
2, 16041, Note_off_c, 0, 81, 64
2, 16046, Note_off_c, 0, 48, 64
2, 16050, Control_c, 0, 64, 127
2, 16058, Control_c, 0, 64, 127
2, 16066, Note_off_c, 0, 63, 64
2, 16069, Note_off_c, 0, 56, 64
2, 16076, Note_off_c, 0, 66, 64
2, 16166, Note_on_c, 0, 66, 37
2, 16166, Note_on_c, 0, 56, 39
2, 16170, Note_on_c, 0, 63, 37
2, 16196, Note_off_c, 0, 63, 64
2, 16197, Note_off_c, 0, 66, 64
2, 16203, Note_off_c, 0, 56, 64
2, 16220, Note_off_c, 0, 78, 64
2, 16220, Note_on_c, 0, 80, 44
2, 16272, Control_c, 0, 64, 0
2, 16280, Control_c, 0, 64, 0
2, 16287, Note_on_c, 0, 76, 54
2, 16288, Note_on_c, 0, 49, 58
2, 16303, Note_off_c, 0, 80, 64
2, 16320, Control_c, 0, 64, 127
2, 16328, Control_c, 0, 64, 127
2, 16376, Note_on_c, 0, 80, 55
2, 16389, Control_c, 0, 64, 0
2, 16397, Control_c, 0, 64, 0
2, 16401, Note_off_c, 0, 76, 64
2, 16409, Note_on_c, 0, 64, 30
2, 16416, Note_on_c, 0, 56, 24
2, 16421, Note_on_c, 0, 61, 34
2, 16423, Note_on_c, 0, 73, 62
2, 16428, Note_off_c, 0, 80, 64
2, 16461, Note_off_c, 0, 56, 64
2, 16464, Control_c, 0, 64, 127
2, 16472, Control_c, 0, 64, 127
2, 16477, Note_off_c, 0, 61, 64
2, 16478, Note_off_c, 0, 64, 64
2, 16521, Control_c, 0, 64, 0
2, 16528, Note_off_c, 0, 49, 64
2, 16529, Control_c, 0, 64, 0
2, 16547, Note_on_c, 0, 76, 54
2, 16553, Note_on_c, 0, 64, 45
2, 16557, Note_on_c, 0, 61, 41
2, 16559, Note_off_c, 0, 73, 64
2, 16562, Note_on_c, 0, 56, 26
2, 16577, Control_c, 0, 64, 127
2, 16582, Note_off_c, 0, 56, 64
2, 16582, Note_off_c, 0, 61, 64
2, 16585, Control_c, 0, 64, 127
2, 16594, Note_off_c, 0, 64, 64
2, 16673, Control_c, 0, 64, 0
2, 16681, Control_c, 0, 64, 0
2, 16687, Note_off_c, 0, 76, 64
2, 16687, Note_on_c, 0, 80, 54
2, 16692, Note_on_c, 0, 48, 40
2, 16724, Control_c, 0, 64, 127
2, 16732, Control_c, 0, 64, 127
2, 16781, Note_off_c, 0, 80, 64
2, 16786, Note_on_c, 0, 81, 53
2, 16800, Control_c, 0, 64, 0
2, 16808, Control_c, 0, 64, 0
2, 16828, Note_on_c, 0, 56, 39
2, 16830, Note_on_c, 0, 78, 55
2, 16830, Note_on_c, 0, 66, 49
2, 16832, Note_on_c, 0, 63, 42
2, 16846, Note_off_c, 0, 81, 64
2, 16852, Control_c, 0, 64, 127
2, 16860, Control_c, 0, 64, 127
2, 16866, Note_off_c, 0, 56, 64
2, 16867, Note_off_c, 0, 63, 64
2, 16869, Note_off_c, 0, 66, 64
2, 16869, Control_c, 0, 64, 127
2, 16877, Control_c, 0, 64, 127
2, 16914, Control_c, 0, 64, 0
2, 16922, Control_c, 0, 64, 0
2, 16932, Note_off_c, 0, 48, 64
2, 16948, Note_off_c, 0, 78, 64
2, 16960, Note_on_c, 0, 80, 50
2, 16964, Note_on_c, 0, 66, 38
2, 16964, Note_on_c, 0, 63, 39
2, 16969, Note_on_c, 0, 56, 35
2, 16996, Note_off_c, 0, 66, 64
2, 17004, Note_off_c, 0, 63, 64
2, 17007, Note_off_c, 0, 56, 64
2, 17068, Note_off_c, 0, 80, 64
2, 17095, Control_c, 0, 64, 0
2, 17097, Note_on_c, 0, 76, 49
2, 17103, Control_c, 0, 64, 0
2, 17109, Note_on_c, 0, 49, 50
2, 17143, Control_c, 0, 64, 127
2, 17151, Control_c, 0, 64, 127
2, 17165, Note_on_c, 0, 78, 46
2, 17180, Note_off_c, 0, 76, 64
2, 17212, Note_on_c, 0, 80, 48
2, 17226, Note_off_c, 0, 78, 64
2, 17239, Note_off_c, 0, 80, 64
2, 17255, Control_c, 0, 64, 0
2, 17260, Note_on_c, 0, 80, 48
2, 17263, Control_c, 0, 64, 0
2, 17282, Note_on_c, 0, 56, 28
2, 17297, Note_on_c, 0, 73, 58
2, 17297, Note_on_c, 0, 64, 20
2, 17302, Note_on_c, 0, 61, 24
2, 17319, Control_c, 0, 64, 127
2, 17327, Control_c, 0, 64, 127
2, 17329, Note_off_c, 0, 80, 64
2, 17339, Note_off_c, 0, 64, 64
2, 17341, Note_off_c, 0, 61, 64
2, 17345, Note_off_c, 0, 56, 64
2, 17349, Note_off_c, 0, 49, 64
2, 17619, Note_on_c, 0, 74, 61
2, 17639, Note_off_c, 0, 73, 64
2, 17727, Note_on_c, 0, 75, 62
2, 17738, Note_off_c, 0, 74, 64
2, 17739, Control_c, 0, 64, 0
2, 17745, Note_on_c, 0, 43, 63
2, 17747, Control_c, 0, 64, 0
2, 17794, Control_c, 0, 64, 127
2, 17802, Control_c, 0, 64, 127
2, 17812, Note_on_c, 0, 76, 72
2, 17833, Note_off_c, 0, 75, 64
2, 17861, Control_c, 0, 64, 0
2, 17869, Control_c, 0, 64, 0
2, 17888, Note_on_c, 0, 73, 84
2, 17892, Note_on_c, 0, 61, 44
2, 17894, Note_on_c, 0, 51, 40
2, 17908, Note_off_c, 0, 76, 64
2, 17922, Control_c, 0, 64, 127
2, 17930, Control_c, 0, 64, 127
2, 17935, Note_off_c, 0, 61, 64
2, 17936, Note_off_c, 0, 51, 64
2, 17954, Note_off_c, 0, 73, 64
2, 18020, Note_on_c, 0, 75, 70
2, 18020, Note_on_c, 0, 51, 59
2, 18024, Note_on_c, 0, 61, 45
2, 18059, Note_off_c, 0, 51, 64
2, 18063, Note_off_c, 0, 61, 64
2, 18086, Note_off_c, 0, 75, 64
2, 18154, Control_c, 0, 64, 0
2, 18162, Control_c, 0, 64, 0
2, 18168, Note_on_c, 0, 72, 66
2, 18172, Note_on_c, 0, 44, 66
2, 18184, Note_off_c, 0, 43, 64
2, 18194, Control_c, 0, 64, 127
2, 18202, Control_c, 0, 64, 127
2, 18261, Note_on_c, 0, 75, 57
2, 18274, Note_off_c, 0, 72, 64
2, 18282, Control_c, 0, 64, 0
2, 18290, Control_c, 0, 64, 0
2, 18308, Note_on_c, 0, 51, 31
2, 18314, Note_on_c, 0, 68, 80
2, 18314, Note_on_c, 0, 54, 29
2, 18316, Note_on_c, 0, 60, 44
2, 18318, Control_c, 0, 64, 127
2, 18325, Note_off_c, 0, 75, 64
2, 18326, Control_c, 0, 64, 127
2, 18352, Note_off_c, 0, 51, 64
2, 18359, Note_off_c, 0, 60, 64
2, 18366, Note_off_c, 0, 54, 64
2, 18411, Note_off_c, 0, 68, 64
2, 18412, Note_off_c, 0, 44, 64
2, 18426, Note_on_c, 0, 71, 59
2, 18462, Note_on_c, 0, 69, 48
2, 18463, Note_off_c, 0, 71, 64
2, 18490, Note_on_c, 0, 71, 71
2, 18498, Note_off_c, 0, 69, 64
2, 18521, Note_on_c, 0, 69, 63
2, 18523, Note_off_c, 0, 71, 64
2, 18552, Note_on_c, 0, 71, 68
2, 18560, Note_off_c, 0, 69, 64
2, 18576, Note_on_c, 0, 69, 62
2, 18585, Note_off_c, 0, 71, 64
2, 18595, Note_on_c, 0, 68, 80
2, 18596, Control_c, 0, 64, 0
2, 18604, Control_c, 0, 64, 0
2, 18610, Note_on_c, 0, 44, 52
2, 18616, Note_off_c, 0, 69, 64
2, 18639, Control_c, 0, 64, 127
2, 18647, Control_c, 0, 64, 127
2, 18665, Note_off_c, 0, 68, 64
2, 18715, Note_on_c, 0, 66, 48
2, 18730, Control_c, 0, 64, 0
2, 18738, Control_c, 0, 64, 0
2, 18748, Note_on_c, 0, 51, 37
2, 18753, Note_on_c, 0, 54, 39
2, 18757, Note_on_c, 0, 63, 66
2, 18758, Note_off_c, 0, 66, 64
2, 18758, Note_on_c, 0, 60, 45
2, 18773, Control_c, 0, 64, 127
2, 18781, Control_c, 0, 64, 127
2, 18805, Note_off_c, 0, 51, 64
2, 18808, Note_off_c, 0, 54, 64
2, 18812, Note_off_c, 0, 60, 64
2, 18850, Note_off_c, 0, 44, 64
2, 18897, Note_on_c, 0, 60, 44
2, 18900, Note_on_c, 0, 51, 28
2, 18903, Note_on_c, 0, 54, 40
2, 18907, Note_on_c, 0, 68, 58
2, 18919, Note_off_c, 0, 60, 64
2, 18927, Note_off_c, 0, 51, 64
2, 18930, Note_off_c, 0, 54, 64
2, 18933, Note_off_c, 0, 63, 64
2, 18956, Note_off_c, 0, 68, 64
2, 19040, Note_on_c, 0, 68, 53
2, 19069, Control_c, 0, 64, 0
2, 19071, Note_on_c, 0, 37, 58
2, 19077, Control_c, 0, 64, 0
2, 19082, Note_on_c, 0, 61, 61
2, 19102, Note_off_c, 0, 68, 64
2, 19116, Control_c, 0, 64, 127
2, 19124, Control_c, 0, 64, 127
2, 19249, Note_on_c, 0, 49, 22
2, 19293, Note_on_c, 0, 56, 41
2, 19311, Note_off_c, 0, 37, 64
2, 19325, Note_on_c, 0, 64, 37
2, 19379, Note_off_c, 0, 61, 64
2, 19489, Note_off_c, 0, 49, 64
2, 19502, Note_off_c, 0, 56, 64
2, 19513, Note_on_c, 0, 62, 55
2, 19549, Note_off_c, 0, 64, 64
2, 19698, Note_on_c, 0, 63, 55
2, 19700, Control_c, 0, 64, 0
2, 19708, Control_c, 0, 64, 0
2, 19715, Note_on_c, 0, 44, 28
2, 19736, Note_off_c, 0, 62, 64
2, 19754, Control_c, 0, 64, 127
2, 19762, Control_c, 0, 64, 127
2, 19816, Note_on_c, 0, 67, 40
2, 19821, Note_off_c, 0, 63, 64
2, 19835, Control_c, 0, 64, 0
2, 19843, Control_c, 0, 64, 0
2, 19858, Note_on_c, 0, 68, 55
2, 19863, Note_on_c, 0, 60, 37
2, 19865, Note_on_c, 0, 56, 31
2, 19872, Note_on_c, 0, 51, 17
2, 19880, Note_off_c, 0, 67, 64
2, 19880, Control_c, 0, 64, 127
2, 19888, Control_c, 0, 64, 127
2, 19905, Note_off_c, 0, 51, 64
2, 19918, Note_off_c, 0, 56, 64
2, 19920, Note_off_c, 0, 60, 64
2, 19955, Note_off_c, 0, 44, 64
2, 19973, Note_off_c, 0, 68, 64
2, 19991, Note_on_c, 0, 72, 56
2, 20002, Note_on_c, 0, 51, 37
2, 20003, Note_on_c, 0, 60, 45
2, 20014, Note_on_c, 0, 56, 20
2, 20032, Note_off_c, 0, 56, 64
2, 20039, Note_off_c, 0, 60, 64
2, 20042, Note_off_c, 0, 51, 64
2, 20084, Note_on_c, 0, 75, 59
2, 20091, Note_off_c, 0, 72, 64
2, 20124, Control_c, 0, 64, 0
2, 20132, Control_c, 0, 64, 0
2, 20140, Note_on_c, 0, 44, 50
2, 20154, Note_on_c, 0, 63, 63
2, 20156, Note_off_c, 0, 75, 64
2, 20163, Control_c, 0, 64, 127
2, 20171, Control_c, 0, 64, 127
2, 20264, Note_on_c, 0, 67, 29
2, 20277, Control_c, 0, 64, 0
2, 20283, Note_off_c, 0, 63, 64
2, 20285, Control_c, 0, 64, 0
2, 20290, Note_on_c, 0, 60, 28
2, 20297, Note_on_c, 0, 68, 67
2, 20297, Note_on_c, 0, 56, 38
2, 20300, Note_on_c, 0, 51, 37
2, 20309, Note_off_c, 0, 67, 64
2, 20334, Control_c, 0, 64, 127
2, 20342, Control_c, 0, 64, 127
2, 20350, Note_off_c, 0, 51, 64
2, 20350, Note_off_c, 0, 56, 64
2, 20355, Note_off_c, 0, 60, 64
2, 20379, Note_on_c, 0, 72, 49
2, 20380, Note_off_c, 0, 44, 64
2, 20383, Note_off_c, 0, 68, 64
2, 20411, Control_c, 0, 64, 0
2, 20419, Control_c, 0, 64, 0
2, 20427, Note_on_c, 0, 56, 40
2, 20435, Note_on_c, 0, 60, 24
2, 20441, Note_on_c, 0, 51, 30
2, 20442, Note_on_c, 0, 75, 63
2, 20456, Control_c, 0, 64, 127
2, 20458, Note_off_c, 0, 72, 64
2, 20464, Control_c, 0, 64, 127
2, 20478, Note_off_c, 0, 60, 64
2, 20485, Note_off_c, 0, 51, 64
2, 20492, Note_off_c, 0, 56, 64
2, 20565, Control_c, 0, 64, 0
2, 20572, Note_off_c, 0, 75, 64
2, 20573, Control_c, 0, 64, 0
2, 20580, Note_on_c, 0, 74, 55
2, 20580, Note_on_c, 0, 58, 49
2, 20580, Note_on_c, 0, 56, 46
2, 20580, Note_on_c, 0, 53, 46
2, 20608, Control_c, 0, 64, 127
2, 20616, Control_c, 0, 64, 127
2, 20648, Note_off_c, 0, 56, 64
2, 20658, Note_off_c, 0, 74, 64
2, 20661, Note_on_c, 0, 70, 58
2, 20681, Note_off_c, 0, 53, 64
2, 20696, Control_c, 0, 64, 0
2, 20704, Control_c, 0, 64, 0
2, 20713, Note_on_c, 0, 55, 50
2, 20713, Note_on_c, 0, 51, 44
2, 20716, Note_on_c, 0, 73, 41
2, 20742, Note_off_c, 0, 70, 64
2, 20751, Control_c, 0, 64, 127
2, 20759, Control_c, 0, 64, 127
2, 20768, Note_off_c, 0, 51, 64
2, 20776, Note_off_c, 0, 55, 64
2, 20839, Control_c, 0, 64, 0
2, 20847, Control_c, 0, 64, 0
2, 20862, Note_on_c, 0, 72, 49
2, 20864, Note_on_c, 0, 44, 54
2, 20868, Note_on_c, 0, 56, 36
2, 20875, Note_off_c, 0, 58, 64
2, 20889, Note_off_c, 0, 73, 64
2, 20892, Control_c, 0, 64, 127
2, 20900, Control_c, 0, 64, 127
2, 20932, Note_on_c, 0, 68, 54
2, 20933, Note_off_c, 0, 72, 64
2, 20971, Note_off_c, 0, 68, 64
2, 20980, Control_c, 0, 64, 0
2, 20984, Note_off_c, 0, 56, 64
2, 20988, Control_c, 0, 64, 0
2, 21006, Note_on_c, 0, 56, 36
2, 21007, Note_off_c, 0, 44, 64
2, 21010, Note_on_c, 0, 74, 49
2, 21010, Note_on_c, 0, 58, 48
2, 21017, Note_on_c, 0, 53, 28
2, 21033, Control_c, 0, 64, 127
2, 21041, Control_c, 0, 64, 127
2, 21048, Note_on_c, 0, 70, 58
2, 21063, Note_off_c, 0, 74, 64
2, 21099, Note_on_c, 0, 72, 55
2, 21106, Note_off_c, 0, 56, 64
2, 21108, Note_off_c, 0, 53, 64
2, 21109, Note_off_c, 0, 70, 64
2, 21125, Control_c, 0, 64, 0
2, 21133, Control_c, 0, 64, 0
2, 21138, Note_on_c, 0, 73, 58
2, 21143, Note_on_c, 0, 55, 35
2, 21155, Note_off_c, 0, 72, 64
2, 21158, Note_on_c, 0, 51, 45
2, 21188, Note_off_c, 0, 73, 64
2, 21190, Control_c, 0, 64, 127
2, 21198, Control_c, 0, 64, 127
2, 21204, Note_off_c, 0, 55, 64
2, 21211, Note_off_c, 0, 51, 64
2, 21296, Note_on_c, 0, 44, 50
2, 21304, Note_on_c, 0, 56, 41
2, 21305, Note_off_c, 0, 58, 64
2, 21310, Note_on_c, 0, 72, 59
2, 21317, Control_c, 0, 64, 0
2, 21325, Note_off_c, 0, 44, 64
2, 21325, Control_c, 0, 64, 0
2, 21341, Control_c, 0, 64, 127
2, 21349, Control_c, 0, 64, 127
2, 21376, Note_off_c, 0, 56, 64
2, 21377, Note_off_c, 0, 72, 64
2, 21416, Note_on_c, 0, 68, 45
2, 21444, Control_c, 0, 64, 0
2, 21452, Control_c, 0, 64, 0
2, 21462, Note_off_c, 0, 68, 64
2, 21464, Note_on_c, 0, 63, 62
2, 21470, Note_on_c, 0, 44, 58
2, 21472, Note_on_c, 0, 32, 74
2, 21485, Control_c, 0, 64, 127
2, 21492, Control_c, 0, 64, 127
2, 21493, Control_c, 0, 64, 127
2, 21500, Control_c, 0, 64, 127
2, 21530, Control_c, 0, 64, 0
2, 21538, Control_c, 0, 64, 0
2, 21590, Note_on_c, 0, 67, 40
2, 21592, Control_c, 0, 64, 0
2, 21594, Note_off_c, 0, 63, 64
2, 21600, Control_c, 0, 64, 0
2, 21606, Note_on_c, 0, 60, 48
2, 21606, Note_on_c, 0, 51, 42
2, 21613, Note_on_c, 0, 56, 29
2, 21620, Note_on_c, 0, 68, 62
2, 21634, Control_c, 0, 64, 127
2, 21642, Control_c, 0, 64, 127
2, 21648, Note_off_c, 0, 51, 64
2, 21652, Note_off_c, 0, 60, 64
2, 21652, Note_off_c, 0, 67, 64
2, 21656, Note_off_c, 0, 56, 64
2, 21710, Note_off_c, 0, 44, 64
2, 21712, Note_off_c, 0, 32, 64
2, 21725, Note_off_c, 0, 68, 64
2, 21740, Note_on_c, 0, 72, 50
2, 21746, Note_on_c, 0, 60, 53
2, 21755, Note_on_c, 0, 51, 44
2, 21787, Note_off_c, 0, 60, 64
2, 21793, Note_off_c, 0, 51, 64
2, 21819, Note_on_c, 0, 75, 57
2, 21823, Note_off_c, 0, 72, 64
2, 21867, Control_c, 0, 64, 0
2, 21870, Note_off_c, 0, 75, 64
2, 21875, Control_c, 0, 64, 0
2, 21879, Note_on_c, 0, 44, 55
2, 21884, Control_c, 0, 64, 127
2, 21885, Note_on_c, 0, 63, 58
2, 21892, Control_c, 0, 64, 127
2, 21914, Note_off_c, 0, 63, 64
2, 21980, Note_on_c, 0, 67, 57
2, 22002, Control_c, 0, 64, 0
2, 22006, Note_on_c, 0, 68, 53
2, 22008, Note_on_c, 0, 60, 36
2, 22010, Control_c, 0, 64, 0
2, 22020, Note_on_c, 0, 56, 36
2, 22020, Note_on_c, 0, 51, 32
2, 22041, Control_c, 0, 64, 127
2, 22049, Control_c, 0, 64, 127
2, 22053, Note_off_c, 0, 67, 64
2, 22060, Note_off_c, 0, 51, 64
2, 22060, Note_off_c, 0, 56, 64
2, 22074, Note_off_c, 0, 60, 64
2, 22083, Note_on_c, 0, 72, 50
2, 22097, Note_off_c, 0, 68, 64
2, 22119, Note_off_c, 0, 44, 64
2, 22135, Control_c, 0, 64, 0
2, 22143, Control_c, 0, 64, 0
2, 22148, Note_on_c, 0, 60, 36
2, 22150, Note_on_c, 0, 56, 40
2, 22154, Note_on_c, 0, 51, 36
2, 22156, Note_on_c, 0, 75, 62
2, 22164, Note_off_c, 0, 72, 64
2, 22165, Control_c, 0, 64, 127
2, 22173, Control_c, 0, 64, 127
2, 22192, Note_off_c, 0, 60, 64
2, 22202, Note_off_c, 0, 51, 64
2, 22202, Note_off_c, 0, 56, 64
2, 22208, Note_off_c, 0, 75, 64
2, 22316, Note_on_c, 0, 74, 50
2, 22320, Note_on_c, 0, 56, 45
2, 22320, Note_on_c, 0, 53, 48
2, 22324, Note_on_c, 0, 58, 55
2, 22344, Control_c, 0, 64, 0
2, 22352, Control_c, 0, 64, 0
2, 22375, Control_c, 0, 64, 127
2, 22376, Note_off_c, 0, 74, 64
2, 22383, Control_c, 0, 64, 127
2, 22404, Note_off_c, 0, 56, 64
2, 22404, Note_on_c, 0, 70, 49
2, 22425, Note_off_c, 0, 53, 64
2, 22468, Note_on_c, 0, 73, 49
2, 22474, Note_on_c, 0, 51, 46
2, 22475, Control_c, 0, 64, 0
2, 22478, Note_on_c, 0, 55, 54
2, 22483, Control_c, 0, 64, 0
2, 22503, Note_off_c, 0, 70, 64
2, 22509, Control_c, 0, 64, 127
2, 22517, Control_c, 0, 64, 127
2, 22540, Note_off_c, 0, 55, 64
2, 22541, Note_off_c, 0, 51, 64
2, 22584, Note_off_c, 0, 73, 64
2, 22612, Note_on_c, 0, 72, 55
2, 22617, Control_c, 0, 64, 0
2, 22617, Note_on_c, 0, 56, 50
2, 22619, Note_off_c, 0, 58, 64
2, 22623, Note_on_c, 0, 44, 58
2, 22625, Control_c, 0, 64, 0
2, 22657, Control_c, 0, 64, 127
2, 22665, Control_c, 0, 64, 127
2, 22681, Note_off_c, 0, 44, 64
2, 22698, Note_off_c, 0, 56, 64
2, 22700, Note_on_c, 0, 68, 52
2, 22709, Note_off_c, 0, 72, 64
2, 22743, Control_c, 0, 64, 0
2, 22743, Note_on_c, 0, 80, 52
2, 22751, Control_c, 0, 64, 0
2, 22772, Note_off_c, 0, 68, 64
2, 22785, Control_c, 0, 64, 127
2, 22793, Control_c, 0, 64, 127
2, 22854, Note_on_c, 0, 68, 58
2, 22861, Note_off_c, 0, 80, 64
2, 22873, Control_c, 0, 64, 0
2, 22881, Control_c, 0, 64, 0
2, 22904, Note_on_c, 0, 80, 66
2, 22919, Control_c, 0, 64, 127
2, 22927, Control_c, 0, 64, 127
2, 22931, Note_off_c, 0, 68, 64
2, 23021, Note_off_c, 0, 80, 64
2, 23041, Note_on_c, 0, 68, 58
2, 23084, Note_on_c, 0, 80, 59
2, 23119, Note_off_c, 0, 68, 64
2, 23240, Note_off_c, 0, 80, 64
2, 23251, Note_on_c, 0, 68, 49
2, 23319, Control_c, 0, 64, 0
2, 23322, Note_on_c, 0, 80, 49
2, 23326, Note_on_c, 0, 48, 53
2, 23327, Control_c, 0, 64, 0
2, 23350, Note_off_c, 0, 68, 64
2, 23365, Control_c, 0, 64, 127
2, 23373, Control_c, 0, 64, 127
2, 23447, Note_off_c, 0, 80, 64
2, 23447, Note_on_c, 0, 81, 50
2, 23462, Control_c, 0, 64, 0
2, 23470, Control_c, 0, 64, 0
2, 23477, Note_on_c, 0, 56, 26
2, 23494, Note_on_c, 0, 63, 37
2, 23496, Note_on_c, 0, 78, 54
2, 23502, Note_on_c, 0, 66, 37
2, 23520, Control_c, 0, 64, 127
2, 23523, Note_off_c, 0, 81, 64
2, 23525, Note_off_c, 0, 56, 64
2, 23528, Control_c, 0, 64, 127
2, 23545, Note_off_c, 0, 63, 64
2, 23549, Note_off_c, 0, 66, 64
2, 23566, Note_off_c, 0, 48, 64
2, 23630, Note_on_c, 0, 56, 40
2, 23633, Note_on_c, 0, 66, 39
2, 23637, Note_on_c, 0, 63, 37
2, 23664, Note_off_c, 0, 63, 64
2, 23669, Note_off_c, 0, 66, 64
2, 23669, Note_off_c, 0, 56, 64
2, 23702, Note_on_c, 0, 80, 44
2, 23708, Note_off_c, 0, 78, 64
2, 23753, Control_c, 0, 64, 0
2, 23758, Note_on_c, 0, 49, 55
2, 23761, Control_c, 0, 64, 0
2, 23769, Note_on_c, 0, 76, 50
2, 23780, Note_off_c, 0, 80, 64
2, 23803, Control_c, 0, 64, 127
2, 23811, Control_c, 0, 64, 127
2, 23864, Note_on_c, 0, 80, 53
2, 23873, Note_off_c, 0, 76, 64
2, 23880, Control_c, 0, 64, 0
2, 23888, Control_c, 0, 64, 0
2, 23895, Note_on_c, 0, 64, 30
2, 23896, Note_on_c, 0, 56, 20
2, 23900, Note_on_c, 0, 61, 40
2, 23904, Note_on_c, 0, 73, 59
2, 23925, Note_off_c, 0, 80, 64
2, 23934, Control_c, 0, 64, 127
2, 23942, Note_off_c, 0, 56, 64
2, 23942, Control_c, 0, 64, 127
2, 23948, Note_off_c, 0, 64, 64
2, 23950, Note_off_c, 0, 61, 64
2, 23998, Note_off_c, 0, 49, 64
2, 24010, Control_c, 0, 64, 0
2, 24018, Control_c, 0, 64, 0
2, 24030, Note_off_c, 0, 73, 64
2, 24033, Note_on_c, 0, 76, 53
2, 24036, Note_on_c, 0, 64, 37
2, 24040, Note_on_c, 0, 61, 27
2, 24040, Note_on_c, 0, 56, 30
2, 24041, Control_c, 0, 64, 127
2, 24049, Control_c, 0, 64, 127
2, 24064, Note_off_c, 0, 56, 64
2, 24069, Note_off_c, 0, 61, 64
2, 24079, Note_off_c, 0, 64, 64
2, 24160, Control_c, 0, 64, 0
2, 24164, Note_off_c, 0, 76, 64
2, 24168, Control_c, 0, 64, 0
2, 24175, Note_on_c, 0, 80, 48
2, 24180, Note_on_c, 0, 48, 44
2, 24211, Control_c, 0, 64, 127
2, 24219, Control_c, 0, 64, 127
2, 24258, Note_off_c, 0, 80, 64
2, 24266, Note_on_c, 0, 81, 54
2, 24324, Note_on_c, 0, 63, 42
2, 24325, Note_on_c, 0, 78, 52
2, 24325, Note_on_c, 0, 66, 46
2, 24326, Control_c, 0, 64, 0
2, 24329, Note_on_c, 0, 56, 33
2, 24334, Control_c, 0, 64, 0
2, 24343, Note_off_c, 0, 81, 64
2, 24359, Note_off_c, 0, 63, 64
2, 24363, Control_c, 0, 64, 127
2, 24368, Note_off_c, 0, 56, 64
2, 24371, Control_c, 0, 64, 127
2, 24377, Note_off_c, 0, 66, 64
2, 24420, Note_off_c, 0, 48, 64
2, 24430, Note_off_c, 0, 78, 64
2, 24456, Note_on_c, 0, 80, 62
2, 24472, Note_on_c, 0, 63, 42
2, 24477, Note_on_c, 0, 66, 34
2, 24478, Note_on_c, 0, 56, 39
2, 24500, Note_off_c, 0, 66, 64
2, 24507, Note_off_c, 0, 63, 64
2, 24518, Note_off_c, 0, 56, 64
2, 24578, Note_off_c, 0, 80, 64
2, 24637, Control_c, 0, 64, 0
2, 24644, Note_on_c, 0, 49, 39
2, 24645, Control_c, 0, 64, 0
2, 24649, Note_on_c, 0, 76, 49
2, 24686, Control_c, 0, 64, 127
2, 24694, Control_c, 0, 64, 127
2, 24720, Note_on_c, 0, 78, 50
2, 24736, Note_off_c, 0, 76, 64
2, 24773, Note_on_c, 0, 80, 55
2, 24796, Note_off_c, 0, 78, 64
2, 24821, Note_off_c, 0, 80, 64
2, 24832, Note_on_c, 0, 80, 62
2, 24864, Note_on_c, 0, 61, 19
2, 24867, Note_on_c, 0, 64, 33
2, 24870, Note_on_c, 0, 56, 18
2, 24872, Control_c, 0, 64, 0
2, 24878, Note_on_c, 0, 73, 54
2, 24880, Control_c, 0, 64, 0
2, 24884, Note_off_c, 0, 49, 64
2, 24888, Note_off_c, 0, 80, 64
2, 24919, Control_c, 0, 64, 127
2, 24927, Control_c, 0, 64, 127
2, 25103, Note_off_c, 0, 61, 64
2, 25106, Note_off_c, 0, 64, 64
2, 25109, Note_off_c, 0, 56, 64
2, 25117, Note_off_c, 0, 73, 64
2, 25228, Note_on_c, 0, 74, 58
2, 25295, Note_off_c, 0, 74, 64
2, 25304, Control_c, 0, 64, 0
2, 25305, Note_on_c, 0, 75, 70
2, 25309, Note_on_c, 0, 43, 57
2, 25312, Control_c, 0, 64, 0
2, 25339, Control_c, 0, 64, 127
2, 25347, Control_c, 0, 64, 127
2, 25384, Note_on_c, 0, 76, 67
2, 25393, Note_off_c, 0, 75, 64
2, 25427, Control_c, 0, 64, 0
2, 25435, Control_c, 0, 64, 0
2, 25445, Note_off_c, 0, 76, 64
2, 25445, Note_on_c, 0, 61, 56
2, 25450, Note_on_c, 0, 51, 37
2, 25453, Note_on_c, 0, 73, 72
2, 25457, Note_on_c, 0, 58, 22
2, 25498, Note_off_c, 0, 51, 64
2, 25502, Note_off_c, 0, 58, 64
2, 25507, Note_off_c, 0, 61, 64
2, 25508, Control_c, 0, 64, 127
2, 25516, Control_c, 0, 64, 127
2, 25547, Note_off_c, 0, 73, 64
2, 25549, Note_off_c, 0, 43, 64
2, 25559, Control_c, 0, 64, 0
2, 25567, Control_c, 0, 64, 0
2, 25580, Note_on_c, 0, 75, 66
2, 25580, Note_on_c, 0, 58, 30
2, 25583, Note_on_c, 0, 61, 46
2, 25587, Note_on_c, 0, 51, 49
2, 25589, Control_c, 0, 64, 127
2, 25597, Control_c, 0, 64, 127
2, 25608, Note_off_c, 0, 58, 64
2, 25618, Note_off_c, 0, 61, 64
2, 25623, Note_off_c, 0, 51, 64
2, 25649, Note_off_c, 0, 75, 64
2, 25704, Control_c, 0, 64, 0
2, 25712, Control_c, 0, 64, 0
2, 25721, Note_on_c, 0, 44, 59
2, 25724, Note_on_c, 0, 72, 50
2, 25749, Control_c, 0, 64, 127
2, 25757, Control_c, 0, 64, 127
2, 25808, Note_on_c, 0, 75, 44
2, 25823, Note_off_c, 0, 72, 64
2, 25830, Control_c, 0, 64, 0
2, 25838, Control_c, 0, 64, 0
2, 25856, Note_on_c, 0, 68, 72
2, 25861, Control_c, 0, 64, 127
2, 25862, Note_on_c, 0, 60, 44
2, 25864, Note_on_c, 0, 51, 40
2, 25869, Note_off_c, 0, 75, 64
2, 25869, Note_on_c, 0, 54, 39
2, 25869, Control_c, 0, 64, 127
2, 25902, Note_off_c, 0, 51, 64
2, 25911, Note_off_c, 0, 60, 64
2, 25913, Note_off_c, 0, 54, 64
2, 25957, Note_off_c, 0, 68, 64
2, 25961, Note_off_c, 0, 44, 64
2, 25986, Note_on_c, 0, 71, 59
2, 26022, Note_on_c, 0, 69, 48
2, 26023, Note_off_c, 0, 71, 64
2, 26050, Note_on_c, 0, 71, 71
2, 26058, Note_off_c, 0, 69, 64
2, 26081, Note_on_c, 0, 69, 63
2, 26083, Note_off_c, 0, 71, 64
2, 26112, Note_on_c, 0, 71, 68
2, 26120, Note_off_c, 0, 69, 64
2, 26136, Note_on_c, 0, 69, 62
2, 26145, Note_off_c, 0, 71, 64
2, 26160, Note_on_c, 0, 68, 59
2, 26170, Note_on_c, 0, 44, 57
2, 26174, Control_c, 0, 64, 0
2, 26176, Note_off_c, 0, 69, 64
2, 26182, Control_c, 0, 64, 0
2, 26208, Control_c, 0, 64, 127
2, 26216, Control_c, 0, 64, 127
2, 26241, Note_off_c, 0, 68, 64
2, 26285, Note_on_c, 0, 66, 53
2, 26316, Control_c, 0, 64, 0
2, 26324, Control_c, 0, 64, 0
2, 26333, Note_off_c, 0, 66, 64
2, 26333, Note_on_c, 0, 54, 41
2, 26333, Note_on_c, 0, 51, 46
2, 26339, Note_on_c, 0, 63, 62
2, 26339, Note_on_c, 0, 60, 46
2, 26340, Control_c, 0, 64, 127
2, 26348, Control_c, 0, 64, 127
2, 26392, Note_off_c, 0, 60, 64
2, 26392, Note_off_c, 0, 54, 64
2, 26395, Note_off_c, 0, 51, 64
2, 26410, Note_off_c, 0, 44, 64
2, 26488, Note_off_c, 0, 63, 64
2, 26513, Note_on_c, 0, 60, 37
2, 26517, Note_on_c, 0, 68, 66
2, 26520, Note_on_c, 0, 54, 42
2, 26520, Note_on_c, 0, 51, 42
2, 26542, Note_off_c, 0, 60, 64
2, 26549, Note_off_c, 0, 54, 64
2, 26551, Note_off_c, 0, 51, 64
2, 26570, Note_off_c, 0, 68, 64
2, 26693, Note_on_c, 0, 68, 55
2, 26726, Note_on_c, 0, 37, 54
2, 26731, Control_c, 0, 64, 0
2, 26739, Control_c, 0, 64, 0
2, 26745, Note_on_c, 0, 61, 70
2, 26754, Note_off_c, 0, 68, 64
2, 26777, Control_c, 0, 64, 127
2, 26785, Control_c, 0, 64, 127
2, 26966, Note_off_c, 0, 37, 64
2, 26972, Note_on_c, 0, 49, 23
2, 27016, Note_on_c, 0, 56, 37
2, 27048, Note_on_c, 0, 64, 35
2, 27162, Note_off_c, 0, 61, 64
2, 27245, Note_off_c, 0, 56, 64
2, 27248, Note_off_c, 0, 49, 64
2, 27273, Note_on_c, 0, 61, 44
2, 27296, Note_off_c, 0, 64, 64
2, 27429, Note_off_c, 0, 61, 64
2, 27455, Note_on_c, 0, 45, 42
2, 27456, Control_c, 0, 64, 0
2, 27456, Note_on_c, 0, 73, 50
2, 27464, Control_c, 0, 64, 0
2, 27499, Control_c, 0, 64, 127
2, 27507, Control_c, 0, 64, 127
2, 27527, Note_on_c, 0, 75, 41
2, 27561, Note_off_c, 0, 73, 64
2, 27585, Control_c, 0, 64, 0
2, 27593, Control_c, 0, 64, 0
2, 27622, Note_on_c, 0, 61, 35
2, 27623, Note_on_c, 0, 76, 44
2, 27623, Control_c, 0, 64, 127
2, 27623, Note_on_c, 0, 52, 44
2, 27631, Control_c, 0, 64, 127
2, 27644, Note_off_c, 0, 75, 64
2, 27681, Note_off_c, 0, 52, 64
2, 27689, Note_off_c, 0, 61, 64
2, 27697, Note_off_c, 0, 45, 64
2, 27768, Note_on_c, 0, 61, 41
2, 27775, Note_on_c, 0, 52, 37
2, 27808, Note_off_c, 0, 61, 64
2, 27815, Note_off_c, 0, 52, 64
2, 27825, Note_on_c, 0, 73, 46
2, 27862, Note_off_c, 0, 76, 64
2, 27903, Note_on_c, 0, 71, 44
2, 27908, Control_c, 0, 64, 0
2, 27910, Note_on_c, 0, 40, 44
2, 27916, Control_c, 0, 64, 0
2, 27926, Note_off_c, 0, 73, 64
2, 27970, Note_on_c, 0, 68, 44
2, 28003, Note_off_c, 0, 71, 64
2, 28038, Note_on_c, 0, 52, 40
2, 28044, Note_on_c, 0, 64, 48
2, 28047, Note_on_c, 0, 59, 22
2, 28049, Note_off_c, 0, 68, 64
2, 28077, Note_off_c, 0, 59, 64
2, 28091, Note_off_c, 0, 52, 64
2, 28150, Note_off_c, 0, 40, 64
2, 28155, Control_c, 0, 64, 127
2, 28163, Control_c, 0, 64, 127
2, 28183, Note_on_c, 0, 52, 40
2, 28196, Note_on_c, 0, 59, 41
2, 28257, Note_off_c, 0, 52, 64
2, 28259, Note_off_c, 0, 59, 64
2, 28283, Note_off_c, 0, 64, 64
2, 28311, Control_c, 0, 64, 0
2, 28319, Control_c, 0, 64, 0
2, 28327, Note_on_c, 0, 73, 29
2, 28329, Note_on_c, 0, 45, 41
2, 28331, Control_c, 0, 64, 127
2, 28339, Control_c, 0, 64, 127
2, 28433, Note_on_c, 0, 75, 33
2, 28472, Note_off_c, 0, 73, 64
2, 28489, Note_on_c, 0, 76, 40
2, 28494, Control_c, 0, 64, 0
2, 28495, Note_on_c, 0, 52, 44
2, 28502, Control_c, 0, 64, 0
2, 28508, Control_c, 0, 64, 127
2, 28509, Note_off_c, 0, 75, 64
2, 28514, Note_on_c, 0, 61, 20
2, 28516, Control_c, 0, 64, 127
2, 28554, Note_off_c, 0, 61, 64
2, 28555, Note_off_c, 0, 52, 64
2, 28569, Note_off_c, 0, 45, 64
2, 28592, Note_on_c, 0, 78, 50
2, 28618, Note_off_c, 0, 76, 64
2, 28628, Note_on_c, 0, 76, 41
2, 28635, Control_c, 0, 64, 0
2, 28635, Note_on_c, 0, 61, 35
2, 28637, Note_on_c, 0, 52, 44
2, 28643, Control_c, 0, 64, 0
2, 28649, Note_off_c, 0, 78, 64
2, 28649, Control_c, 0, 64, 127
2, 28657, Note_off_c, 0, 61, 64
2, 28657, Control_c, 0, 64, 127
2, 28675, Note_off_c, 0, 52, 64
2, 28702, Note_on_c, 0, 73, 44
2, 28718, Note_off_c, 0, 76, 64
2, 28766, Control_c, 0, 64, 0
2, 28767, Note_on_c, 0, 71, 44
2, 28767, Note_on_c, 0, 40, 44
2, 28774, Control_c, 0, 64, 0
2, 28788, Control_c, 0, 64, 127
2, 28790, Note_off_c, 0, 73, 64
2, 28796, Control_c, 0, 64, 127
2, 28833, Note_on_c, 0, 68, 44
2, 28861, Note_off_c, 0, 71, 64
2, 28880, Control_c, 0, 64, 0
2, 28888, Control_c, 0, 64, 0
2, 28907, Note_on_c, 0, 59, 37
2, 28910, Note_on_c, 0, 52, 44
2, 28911, Note_on_c, 0, 64, 41
2, 28923, Control_c, 0, 64, 127
2, 28924, Note_off_c, 0, 68, 64
2, 28931, Control_c, 0, 64, 127
2, 28957, Note_off_c, 0, 59, 64
2, 28961, Note_off_c, 0, 52, 64
2, 29007, Note_off_c, 0, 40, 64
2, 29040, Note_on_c, 0, 52, 44
2, 29045, Note_on_c, 0, 59, 44
2, 29092, Note_off_c, 0, 59, 64
2, 29097, Note_off_c, 0, 52, 64
2, 29158, Control_c, 0, 64, 0
2, 29166, Control_c, 0, 64, 0
2, 29173, Note_on_c, 0, 61, 45
2, 29179, Note_on_c, 0, 52, 42
2, 29183, Note_on_c, 0, 45, 40
2, 29197, Control_c, 0, 64, 127
2, 29205, Control_c, 0, 64, 127
2, 29219, Note_off_c, 0, 52, 64
2, 29227, Note_off_c, 0, 45, 64
2, 29232, Note_on_c, 0, 69, 32
2, 29248, Note_off_c, 0, 61, 64
2, 29281, Control_c, 0, 64, 0
2, 29289, Control_c, 0, 64, 0
2, 29294, Note_off_c, 0, 64, 64
2, 29312, Note_on_c, 0, 40, 50
2, 29316, Note_on_c, 0, 59, 50
2, 29320, Note_on_c, 0, 68, 50
2, 29320, Note_on_c, 0, 52, 42
2, 29334, Note_off_c, 0, 69, 64
2, 29345, Note_off_c, 0, 40, 64
2, 29346, Note_off_c, 0, 52, 64
2, 29358, Note_off_c, 0, 59, 64
2, 29440, Note_on_c, 0, 52, 53
2, 29441, Note_on_c, 0, 59, 45
2, 29456, Note_on_c, 0, 40, 45
2, 29480, Note_off_c, 0, 52, 64
2, 29487, Note_off_c, 0, 40, 64
2, 29492, Note_off_c, 0, 59, 64
2, 29510, Control_c, 0, 64, 0
2, 29518, Control_c, 0, 64, 0
2, 29548, Control_c, 0, 64, 127
2, 29556, Control_c, 0, 64, 127
2, 29572, Note_on_c, 0, 64, 44
2, 29575, Note_on_c, 0, 61, 50
2, 29576, Note_on_c, 0, 52, 50
2, 29576, Note_on_c, 0, 45, 44
2, 29578, Note_off_c, 0, 68, 64
2, 29581, Control_c, 0, 64, 127
2, 29589, Control_c, 0, 64, 127
2, 29647, Note_on_c, 0, 71, 32
2, 29664, Note_off_c, 0, 61, 64
2, 29666, Note_off_c, 0, 45, 64
2, 29667, Note_off_c, 0, 64, 64
2, 29680, Note_on_c, 0, 69, 54
2, 29687, Note_off_c, 0, 52, 64
2, 29693, Control_c, 0, 64, 0
2, 29701, Control_c, 0, 64, 0
2, 29709, Note_off_c, 0, 71, 64
2, 29712, Note_on_c, 0, 68, 42
2, 29718, Note_off_c, 0, 69, 64
2, 29718, Note_on_c, 0, 59, 35
2, 29723, Note_on_c, 0, 40, 42
2, 29726, Note_on_c, 0, 52, 41
2, 29763, Note_off_c, 0, 40, 64
2, 29763, Note_off_c, 0, 52, 64
2, 29794, Note_off_c, 0, 59, 64
2, 29868, Note_on_c, 0, 59, 46
2, 29868, Note_on_c, 0, 52, 44
2, 29873, Note_on_c, 0, 40, 41
2, 29875, Control_c, 0, 64, 127
2, 29883, Control_c, 0, 64, 127
2, 29913, Note_off_c, 0, 40, 64
2, 29919, Note_off_c, 0, 52, 64
2, 29919, Note_off_c, 0, 59, 64
2, 29930, Note_off_c, 0, 68, 64
2, 30014, Control_c, 0, 64, 0
2, 30014, Note_on_c, 0, 64, 44
2, 30014, Note_on_c, 0, 61, 54
2, 30021, Note_on_c, 0, 52, 50
2, 30021, Note_on_c, 0, 45, 50
2, 30022, Control_c, 0, 64, 0
2, 30052, Control_c, 0, 64, 127
2, 30059, Note_off_c, 0, 45, 64
2, 30060, Control_c, 0, 64, 127
2, 30067, Note_off_c, 0, 52, 64
2, 30079, Note_off_c, 0, 61, 64
2, 30083, Note_on_c, 0, 69, 41
2, 30109, Note_off_c, 0, 64, 64
2, 30110, Control_c, 0, 64, 0
2, 30118, Control_c, 0, 64, 0
2, 30135, Note_on_c, 0, 68, 50
2, 30150, Note_on_c, 0, 59, 50
2, 30152, Note_on_c, 0, 52, 44
2, 30152, Note_on_c, 0, 40, 45
2, 30158, Note_off_c, 0, 69, 64
2, 30187, Note_off_c, 0, 40, 64
2, 30188, Note_off_c, 0, 59, 64
2, 30194, Note_off_c, 0, 52, 64
2, 30203, Note_off_c, 0, 68, 64
2, 30270, Control_c, 0, 64, 127
2, 30278, Control_c, 0, 64, 127
2, 30284, Note_on_c, 0, 68, 50
2, 30284, Note_on_c, 0, 59, 44
2, 30290, Note_on_c, 0, 40, 44
2, 30297, Note_on_c, 0, 52, 42
2, 30335, Note_off_c, 0, 59, 64
2, 30338, Note_off_c, 0, 52, 64
2, 30351, Note_off_c, 0, 40, 64
2, 30352, Note_off_c, 0, 68, 64
2, 30408, Control_c, 0, 64, 0
2, 30416, Note_on_c, 0, 52, 33
2, 30416, Control_c, 0, 64, 0
2, 30421, Note_on_c, 0, 64, 44
2, 30421, Note_on_c, 0, 61, 53
2, 30430, Note_on_c, 0, 45, 32
2, 30440, Control_c, 0, 64, 127
2, 30448, Control_c, 0, 64, 127
2, 30540, Note_on_c, 0, 69, 41
2, 30566, Note_off_c, 0, 64, 64
2, 30592, Note_on_c, 0, 47, 32
2, 30596, Note_off_c, 0, 61, 64
2, 30596, Note_off_c, 0, 52, 64
2, 30609, Note_off_c, 0, 45, 64
2, 30619, Control_c, 0, 64, 0
2, 30627, Control_c, 0, 64, 0
2, 30656, Note_on_c, 0, 68, 54
2, 30656, Note_on_c, 0, 56, 57
2, 30656, Note_on_c, 0, 49, 54
2, 30671, Note_off_c, 0, 69, 64
2, 30682, Note_off_c, 0, 47, 64
2, 30687, Control_c, 0, 64, 127
2, 30695, Control_c, 0, 64, 127
2, 30872, Note_on_c, 0, 37, 54
2, 30888, Note_off_c, 0, 56, 64
2, 30888, Note_off_c, 0, 68, 64
2, 30896, Note_off_c, 0, 49, 64
2, 31056, Note_on_c, 0, 77, 52
2, 31112, Note_off_c, 0, 37, 64
2, 31132, Note_on_c, 0, 79, 58
2, 31146, Note_off_c, 0, 77, 64
2, 31186, Control_c, 0, 64, 0
2, 31194, Note_on_c, 0, 80, 65
2, 31194, Control_c, 0, 64, 0
2, 31213, Note_on_c, 0, 61, 37
2, 31216, Note_off_c, 0, 79, 64
2, 31217, Note_on_c, 0, 53, 35
2, 31220, Note_on_c, 0, 56, 31
2, 31224, Note_on_c, 0, 65, 36
2, 31234, Control_c, 0, 64, 127
2, 31242, Control_c, 0, 64, 127
2, 31254, Note_off_c, 0, 56, 64
2, 31255, Note_off_c, 0, 53, 64
2, 31265, Note_off_c, 0, 61, 64
2, 31268, Note_off_c, 0, 65, 64
2, 31340, Note_on_c, 0, 61, 40
2, 31340, Note_on_c, 0, 53, 40
2, 31344, Note_on_c, 0, 65, 31
2, 31344, Note_on_c, 0, 56, 44
2, 31373, Note_off_c, 0, 65, 64
2, 31375, Note_off_c, 0, 61, 64
2, 31382, Note_off_c, 0, 56, 64
2, 31382, Note_off_c, 0, 53, 64
2, 31421, Note_on_c, 0, 77, 32
2, 31433, Note_off_c, 0, 80, 64
2, 31492, Note_on_c, 0, 75, 55
2, 31492, Note_on_c, 0, 44, 49
2, 31507, Control_c, 0, 64, 0
2, 31512, Note_off_c, 0, 77, 64
2, 31515, Control_c, 0, 64, 0
2, 31550, Control_c, 0, 64, 127
2, 31558, Control_c, 0, 64, 127
2, 31576, Note_on_c, 0, 72, 49
2, 31599, Note_off_c, 0, 75, 64
2, 31632, Control_c, 0, 64, 0
2, 31640, Control_c, 0, 64, 0
2, 31644, Note_on_c, 0, 68, 58
2, 31644, Note_on_c, 0, 51, 35
2, 31648, Note_on_c, 0, 56, 46
2, 31652, Note_on_c, 0, 60, 37
2, 31658, Note_off_c, 0, 72, 64
2, 31673, Control_c, 0, 64, 127
2, 31681, Control_c, 0, 64, 127
2, 31706, Note_off_c, 0, 51, 64
2, 31714, Note_off_c, 0, 60, 64
2, 31732, Note_off_c, 0, 44, 64
2, 31734, Note_off_c, 0, 68, 64
2, 31738, Note_off_c, 0, 56, 64
2, 31800, Note_on_c, 0, 51, 35
2, 31808, Note_on_c, 0, 60, 37
2, 31810, Note_on_c, 0, 56, 16
2, 31816, Control_c, 0, 64, 0
2, 31824, Control_c, 0, 64, 0
2, 31833, Note_off_c, 0, 56, 64
2, 31857, Control_c, 0, 64, 127
2, 31862, Note_off_c, 0, 51, 64
2, 31865, Control_c, 0, 64, 127
2, 31870, Note_off_c, 0, 60, 64
2, 31939, Note_on_c, 0, 77, 55
2, 31948, Control_c, 0, 64, 0
2, 31950, Note_on_c, 0, 49, 44
2, 31956, Control_c, 0, 64, 0
2, 31983, Control_c, 0, 64, 127
2, 31991, Control_c, 0, 64, 127
2, 32056, Note_on_c, 0, 79, 31
2, 32084, Note_off_c, 0, 77, 64
2, 32095, Note_on_c, 0, 80, 63
2, 32096, Note_on_c, 0, 61, 39
2, 32096, Note_on_c, 0, 56, 37
2, 32096, Note_on_c, 0, 53, 35
2, 32099, Note_on_c, 0, 65, 18
2, 32112, Control_c, 0, 64, 0
2, 32120, Control_c, 0, 64, 0
2, 32123, Note_off_c, 0, 79, 64
2, 32153, Control_c, 0, 64, 127
2, 32158, Note_off_c, 0, 65, 64
2, 32158, Note_off_c, 0, 53, 64
2, 32158, Note_off_c, 0, 56, 64
2, 32161, Control_c, 0, 64, 127
2, 32175, Note_off_c, 0, 80, 64
2, 32181, Note_on_c, 0, 82, 65
2, 32185, Note_off_c, 0, 61, 64
2, 32190, Note_off_c, 0, 49, 64
2, 32222, Note_on_c, 0, 80, 65
2, 32228, Note_on_c, 0, 65, 36
2, 32228, Note_on_c, 0, 61, 37
2, 32228, Note_on_c, 0, 56, 36
2, 32228, Note_on_c, 0, 53, 31
2, 32237, Note_off_c, 0, 82, 64
2, 32263, Note_off_c, 0, 65, 64
2, 32270, Note_off_c, 0, 61, 64
2, 32272, Note_off_c, 0, 56, 64
2, 32273, Note_off_c, 0, 53, 64
2, 32295, Note_on_c, 0, 77, 55
2, 32309, Note_off_c, 0, 80, 64
2, 32337, Control_c, 0, 64, 127
2, 32345, Control_c, 0, 64, 127
2, 32350, Control_c, 0, 64, 0
2, 32358, Control_c, 0, 64, 0
2, 32360, Note_on_c, 0, 75, 58
2, 32364, Note_on_c, 0, 44, 54
2, 32371, Note_off_c, 0, 77, 64
2, 32372, Control_c, 0, 64, 127
2, 32380, Control_c, 0, 64, 127
2, 32382, Control_c, 0, 64, 0
2, 32390, Control_c, 0, 64, 0
2, 32425, Note_on_c, 0, 72, 57
2, 32456, Note_off_c, 0, 75, 64
2, 32478, Control_c, 0, 64, 0
2, 32486, Control_c, 0, 64, 0
2, 32492, Control_c, 0, 64, 127
2, 32500, Control_c, 0, 64, 127
2, 32504, Note_on_c, 0, 68, 67
2, 32504, Note_on_c, 0, 56, 41
2, 32504, Note_on_c, 0, 51, 41
2, 32508, Note_on_c, 0, 60, 41
2, 32519, Note_off_c, 0, 72, 64
2, 32539, Note_off_c, 0, 56, 64
2, 32559, Note_off_c, 0, 60, 64
2, 32567, Note_off_c, 0, 51, 64
2, 32604, Note_off_c, 0, 44, 64
2, 32648, Note_on_c, 0, 56, 41
2, 32648, Note_on_c, 0, 51, 41
2, 32652, Note_on_c, 0, 60, 41
2, 32687, Note_off_c, 0, 60, 64
2, 32688, Note_off_c, 0, 56, 64
2, 32696, Note_off_c, 0, 51, 64
2, 32788, Note_on_c, 0, 65, 53
2, 32792, Note_on_c, 0, 49, 45
2, 32796, Note_on_c, 0, 61, 55
2, 32796, Note_on_c, 0, 56, 52
2, 32813, Note_off_c, 0, 68, 64
2, 32818, Control_c, 0, 64, 0
2, 32826, Control_c, 0, 64, 0
2, 32831, Note_off_c, 0, 56, 64
2, 32834, Note_off_c, 0, 61, 64
2, 32837, Note_off_c, 0, 49, 64
2, 32846, Control_c, 0, 64, 127
2, 32854, Control_c, 0, 64, 127
2, 32874, Note_on_c, 0, 73, 46
2, 32878, Note_off_c, 0, 65, 64
2, 32931, Control_c, 0, 64, 0
2, 32939, Control_c, 0, 64, 0
2, 32947, Note_on_c, 0, 72, 55
2, 32949, Note_on_c, 0, 63, 70
2, 32954, Note_off_c, 0, 73, 64
2, 32954, Note_on_c, 0, 56, 55
2, 32958, Note_on_c, 0, 44, 53
2, 32978, Note_off_c, 0, 44, 64
2, 32981, Note_off_c, 0, 56, 64
2, 32984, Note_off_c, 0, 63, 64
2, 33087, Note_on_c, 0, 56, 57
2, 33093, Note_on_c, 0, 44, 52
2, 33097, Note_on_c, 0, 63, 59
2, 33125, Note_off_c, 0, 44, 64
2, 33125, Note_off_c, 0, 56, 64
2, 33140, Note_off_c, 0, 63, 64
2, 33172, Note_off_c, 0, 72, 64
2, 33223, Note_on_c, 0, 68, 52
2, 33225, Note_on_c, 0, 56, 49
2, 33233, Note_on_c, 0, 65, 35
2, 33233, Note_on_c, 0, 49, 20
2, 33239, Control_c, 0, 64, 127
2, 33247, Control_c, 0, 64, 127
2, 33277, Note_off_c, 0, 49, 64
2, 33284, Note_off_c, 0, 56, 64
2, 33292, Note_off_c, 0, 65, 64
2, 33293, Note_on_c, 0, 75, 26
2, 33317, Note_off_c, 0, 68, 64
2, 33329, Note_on_c, 0, 73, 49
2, 33331, Control_c, 0, 64, 0
2, 33339, Control_c, 0, 64, 0
2, 33345, Note_off_c, 0, 75, 64
2, 33357, Note_on_c, 0, 63, 53
2, 33364, Note_on_c, 0, 56, 44
2, 33364, Note_on_c, 0, 44, 44
2, 33371, Note_on_c, 0, 72, 55
2, 33392, Note_off_c, 0, 44, 64
2, 33392, Note_off_c, 0, 73, 64
2, 33393, Note_off_c, 0, 56, 64
2, 33420, Note_off_c, 0, 63, 64
2, 33503, Note_on_c, 0, 63, 57
2, 33512, Note_on_c, 0, 56, 48
2, 33512, Note_on_c, 0, 44, 45
2, 33549, Note_off_c, 0, 44, 64
2, 33549, Note_off_c, 0, 56, 64
2, 33553, Note_off_c, 0, 63, 64
2, 33623, Note_off_c, 0, 72, 64
2, 33644, Note_on_c, 0, 49, 39
2, 33649, Note_on_c, 0, 56, 42
2, 33650, Note_on_c, 0, 68, 41
2, 33656, Note_on_c, 0, 65, 36
2, 33662, Control_c, 0, 64, 127
2, 33670, Control_c, 0, 64, 127
2, 33684, Note_off_c, 0, 49, 64
2, 33695, Note_off_c, 0, 56, 64
2, 33700, Note_off_c, 0, 65, 64
2, 33721, Note_on_c, 0, 73, 50
2, 33730, Note_off_c, 0, 68, 64
2, 33753, Control_c, 0, 64, 0
2, 33761, Control_c, 0, 64, 0
2, 33769, Note_on_c, 0, 72, 49
2, 33775, Note_on_c, 0, 63, 53
2, 33779, Note_on_c, 0, 56, 41
2, 33779, Note_on_c, 0, 44, 39
2, 33786, Note_off_c, 0, 73, 64
2, 33806, Note_off_c, 0, 63, 64
2, 33813, Note_off_c, 0, 44, 64
2, 33814, Note_off_c, 0, 56, 64
2, 33826, Note_off_c, 0, 72, 64
2, 33904, Note_on_c, 0, 72, 37
2, 33906, Note_on_c, 0, 63, 50
2, 33916, Note_on_c, 0, 44, 41
2, 33923, Note_on_c, 0, 56, 41
2, 33927, Control_c, 0, 64, 127
2, 33935, Control_c, 0, 64, 127
2, 33954, Note_off_c, 0, 56, 64
2, 33954, Note_off_c, 0, 63, 64
2, 33957, Note_off_c, 0, 72, 64
2, 33958, Note_off_c, 0, 44, 64
2, 34014, Control_c, 0, 64, 0
2, 34022, Control_c, 0, 64, 0
2, 34051, Note_on_c, 0, 68, 42
2, 34051, Note_on_c, 0, 49, 39
2, 34056, Note_on_c, 0, 65, 37
2, 34056, Note_on_c, 0, 56, 40
2, 34079, Control_c, 0, 64, 127
2, 34087, Control_c, 0, 64, 127
2, 34105, Note_off_c, 0, 65, 64
2, 34118, Note_off_c, 0, 49, 64
2, 34133, Note_on_c, 0, 73, 37
2, 34140, Note_off_c, 0, 68, 64
2, 34164, Note_off_c, 0, 56, 64
2, 34169, Control_c, 0, 64, 0
2, 34177, Control_c, 0, 64, 0
2, 34187, Note_on_c, 0, 72, 40
2, 34192, Note_on_c, 0, 63, 48
2, 34193, Note_off_c, 0, 73, 64
2, 34196, Note_on_c, 0, 56, 27
2, 34196, Note_on_c, 0, 44, 32
2, 34214, Control_c, 0, 64, 127
2, 34222, Control_c, 0, 64, 127
2, 34248, Note_off_c, 0, 56, 64
2, 34253, Note_off_c, 0, 63, 64
2, 34260, Note_off_c, 0, 44, 64
2, 34314, Note_off_c, 0, 72, 64
2, 34359, Note_on_c, 0, 44, 27
2, 34366, Note_on_c, 0, 63, 31
2, 34368, Note_on_c, 0, 63, 28
2, 34374, Note_on_c, 0, 56, 26
2, 34403, Note_off_c, 0, 63, 64
2, 34412, Note_off_c, 0, 44, 64
2, 34414, Note_off_c, 0, 56, 64
2, 34418, Note_off_c, 0, 63, 64
2, 34444, Note_on_c, 0, 61, 42
2, 34540, Note_on_c, 0, 68, 40
2, 34547, Note_on_c, 0, 60, 35
2, 34551, Note_on_c, 0, 44, 40
2, 34556, Note_off_c, 0, 61, 64
2, 34559, Control_c, 0, 64, 0
2, 34567, Control_c, 0, 64, 0
2, 34601, Control_c, 0, 64, 127
2, 34609, Control_c, 0, 64, 127
2, 34623, Note_off_c, 0, 44, 64
2, 34645, Note_off_c, 0, 60, 64
2, 34675, Note_off_c, 0, 68, 64
2, 34721, Note_on_c, 0, 68, 40
2, 34724, Note_on_c, 0, 58, 50
2, 34725, Control_c, 0, 64, 0
2, 34730, Note_on_c, 0, 51, 36
2, 34732, Note_on_c, 0, 44, 31
2, 34733, Control_c, 0, 64, 0
2, 34761, Control_c, 0, 64, 127
2, 34769, Control_c, 0, 64, 127
2, 34790, Note_off_c, 0, 58, 64
2, 34827, Note_off_c, 0, 68, 64
2, 34871, Note_on_c, 0, 60, 39
2, 34909, Note_off_c, 0, 51, 64
2, 34919, Note_off_c, 0, 44, 64
2, 34933, Note_on_c, 0, 61, 48
2, 34962, Note_off_c, 0, 60, 64
2, 34993, Control_c, 0, 64, 0
2, 34995, Note_on_c, 0, 68, 48
2, 35001, Control_c, 0, 64, 0
2, 35005, Note_on_c, 0, 44, 40
2, 35008, Note_on_c, 0, 51, 36
2, 35010, Note_on_c, 0, 63, 49
2, 35025, Control_c, 0, 64, 127
2, 35033, Control_c, 0, 64, 127
2, 35037, Note_off_c, 0, 61, 64
2, 35053, Note_off_c, 0, 51, 64
2, 35069, Note_off_c, 0, 44, 64
2, 35072, Note_off_c, 0, 68, 64
2, 35076, Note_on_c, 0, 60, 44
2, 35099, Note_off_c, 0, 63, 64
2, 35166, Control_c, 0, 64, 0
2, 35174, Control_c, 0, 64, 0
2, 35182, Note_on_c, 0, 44, 18
2, 35184, Note_on_c, 0, 51, 22
2, 35197, Note_on_c, 0, 68, 41
2, 35200, Note_on_c, 0, 61, 42
2, 35228, Note_off_c, 0, 60, 64
2, 35238, Control_c, 0, 64, 127
2, 35246, Control_c, 0, 64, 127
2, 35380, Note_off_c, 0, 68, 64
2, 35417, Note_off_c, 0, 51, 64
2, 35419, Note_off_c, 0, 44, 64
2, 35421, Note_on_c, 0, 58, 40
2, 35427, Note_off_c, 0, 61, 64
2, 35469, Note_off_c, 0, 58, 64
2, 35508, Note_on_c, 0, 51, 31
2, 35508, Note_on_c, 0, 44, 36
2, 35513, Note_on_c, 0, 68, 36
2, 35518, Note_on_c, 0, 60, 44
2, 35519, Control_c, 0, 64, 0
2, 35527, Control_c, 0, 64, 0
2, 35541, Control_c, 0, 64, 127
2, 35549, Control_c, 0, 64, 127
2, 35568, Note_off_c, 0, 51, 64
2, 35582, Note_off_c, 0, 44, 64
2, 35582, Note_on_c, 0, 61, 49
2, 35599, Note_off_c, 0, 60, 64
2, 35630, Note_off_c, 0, 61, 64
2, 35635, Note_on_c, 0, 60, 48
2, 35651, Control_c, 0, 64, 0
2, 35659, Control_c, 0, 64, 0
2, 35668, Note_on_c, 0, 51, 39
2, 35675, Note_on_c, 0, 58, 49
2, 35675, Note_on_c, 0, 44, 36
2, 35689, Control_c, 0, 64, 127
2, 35691, Note_off_c, 0, 60, 64
2, 35697, Control_c, 0, 64, 127
2, 35731, Note_off_c, 0, 51, 64
2, 35736, Note_off_c, 0, 44, 64
2, 35744, Note_off_c, 0, 68, 64
2, 35772, Note_off_c, 0, 58, 64
2, 35810, Note_on_c, 0, 60, 42
2, 35818, Note_on_c, 0, 68, 36
2, 35871, Note_on_c, 0, 61, 44
2, 35878, Note_off_c, 0, 60, 64
2, 35881, Note_off_c, 0, 68, 64
2, 35930, Note_off_c, 0, 61, 64
2, 35953, Note_on_c, 0, 63, 36
2, 35955, Control_c, 0, 64, 0
2, 35958, Note_on_c, 0, 68, 42
2, 35958, Note_on_c, 0, 51, 36
2, 35963, Control_c, 0, 64, 0
2, 35970, Note_on_c, 0, 44, 31
2, 35971, Control_c, 0, 64, 127
2, 35979, Control_c, 0, 64, 127
2, 36002, Note_off_c, 0, 63, 64
2, 36005, Note_on_c, 0, 66, 28
2, 36015, Note_off_c, 0, 51, 64
2, 36023, Note_off_c, 0, 44, 64
2, 36023, Note_off_c, 0, 68, 64
2, 36059, Note_on_c, 0, 64, 39
2, 36104, Note_on_c, 0, 51, 32
2, 36107, Note_on_c, 0, 68, 44
2, 36108, Note_on_c, 0, 44, 36
2, 36117, Control_c, 0, 64, 0
2, 36120, Note_on_c, 0, 63, 42
2, 36125, Control_c, 0, 64, 0
2, 36131, Note_off_c, 0, 66, 64
2, 36137, Note_off_c, 0, 64, 64
2, 36163, Control_c, 0, 64, 127
2, 36171, Control_c, 0, 64, 127
2, 36229, Note_off_c, 0, 68, 64
2, 36297, Note_off_c, 0, 63, 64
2, 36323, Note_off_c, 0, 44, 64
2, 36326, Note_off_c, 0, 51, 64
2, 36404, Control_c, 0, 64, 0
2, 36408, Note_on_c, 0, 51, 36
2, 36412, Control_c, 0, 64, 0
2, 36418, Note_on_c, 0, 60, 46
2, 36418, Note_on_c, 0, 44, 36
2, 36424, Note_on_c, 0, 68, 31
2, 36424, Control_c, 0, 64, 127
2, 36432, Control_c, 0, 64, 127
2, 36470, Note_on_c, 0, 61, 36
2, 36477, Note_off_c, 0, 44, 64
2, 36477, Note_off_c, 0, 51, 64
2, 36480, Note_off_c, 0, 60, 64
2, 36514, Note_off_c, 0, 68, 64
2, 36514, Note_on_c, 0, 60, 46
2, 36520, Note_off_c, 0, 61, 64
2, 36540, Control_c, 0, 64, 0
2, 36542, Note_on_c, 0, 68, 40
2, 36548, Control_c, 0, 64, 0
2, 36558, Note_on_c, 0, 58, 49
2, 36558, Note_on_c, 0, 51, 28
2, 36565, Note_on_c, 0, 44, 31
2, 36569, Note_off_c, 0, 60, 64
2, 36570, Control_c, 0, 64, 127
2, 36578, Control_c, 0, 64, 127
2, 36612, Note_off_c, 0, 44, 64
2, 36615, Note_off_c, 0, 51, 64
2, 36626, Note_off_c, 0, 68, 64
2, 36636, Note_off_c, 0, 58, 64
2, 36694, Note_on_c, 0, 60, 44
2, 36697, Note_on_c, 0, 68, 44
2, 36702, Note_on_c, 0, 51, 29
2, 36709, Note_on_c, 0, 44, 23
2, 36753, Note_on_c, 0, 61, 49
2, 36755, Note_off_c, 0, 51, 64
2, 36757, Note_off_c, 0, 44, 64
2, 36764, Note_off_c, 0, 68, 64
2, 36764, Note_off_c, 0, 60, 64
2, 36817, Note_off_c, 0, 61, 64
2, 36830, Note_on_c, 0, 63, 44
2, 36835, Control_c, 0, 64, 0
2, 36837, Note_on_c, 0, 68, 48
2, 36839, Note_on_c, 0, 51, 24
2, 36843, Control_c, 0, 64, 0
2, 36849, Note_on_c, 0, 44, 29
2, 36861, Control_c, 0, 64, 127
2, 36869, Control_c, 0, 64, 127
2, 36892, Note_off_c, 0, 63, 64
2, 36897, Note_off_c, 0, 51, 64
2, 36900, Note_off_c, 0, 44, 64
2, 36905, Note_on_c, 0, 60, 46
2, 36938, Note_off_c, 0, 68, 64
2, 36972, Note_on_c, 0, 63, 37
2, 36981, Note_off_c, 0, 60, 64
2, 36986, Note_on_c, 0, 61, 49
2, 36991, Note_on_c, 0, 68, 23
2, 36991, Note_on_c, 0, 51, 28
2, 36994, Note_on_c, 0, 44, 22
2, 37003, Note_off_c, 0, 63, 64
2, 37059, Note_off_c, 0, 44, 64
2, 37063, Note_off_c, 0, 51, 64
2, 37069, Note_on_c, 0, 60, 49
2, 37072, Note_off_c, 0, 61, 64
2, 37075, Note_off_c, 0, 68, 64
2, 37127, Note_on_c, 0, 61, 49
2, 37131, Note_off_c, 0, 60, 64
2, 37140, Note_on_c, 0, 68, 18
2, 37142, Note_on_c, 0, 51, 36
2, 37157, Note_on_c, 0, 44, 19
2, 37186, Note_off_c, 0, 68, 64
2, 37200, Note_off_c, 0, 44, 64
2, 37203, Note_off_c, 0, 61, 64
2, 37219, Note_off_c, 0, 51, 64
2, 37220, Note_on_c, 0, 58, 55
2, 37261, Note_off_c, 0, 58, 64
2, 37308, Note_on_c, 0, 51, 36
2, 37313, Control_c, 0, 64, 0
2, 37314, Note_on_c, 0, 44, 36
2, 37316, Note_on_c, 0, 68, 36
2, 37316, Note_on_c, 0, 60, 49
2, 37321, Control_c, 0, 64, 0
2, 37346, Note_on_c, 0, 61, 46
2, 37349, Control_c, 0, 64, 127
2, 37357, Control_c, 0, 64, 127
2, 37360, Note_off_c, 0, 60, 64
2, 37373, Note_off_c, 0, 44, 64
2, 37377, Note_off_c, 0, 51, 64
2, 37393, Note_on_c, 0, 60, 48
2, 37399, Note_off_c, 0, 61, 64
2, 37419, Note_off_c, 0, 68, 64
2, 37439, Note_on_c, 0, 68, 40
2, 37444, Note_on_c, 0, 58, 53
2, 37447, Control_c, 0, 64, 0
2, 37450, Note_on_c, 0, 51, 29
2, 37455, Note_off_c, 0, 60, 64
2, 37455, Control_c, 0, 64, 0
2, 37464, Control_c, 0, 64, 127
2, 37468, Note_on_c, 0, 44, 22
2, 37472, Control_c, 0, 64, 127
2, 37520, Note_off_c, 0, 44, 64
2, 37534, Note_off_c, 0, 51, 64
2, 37541, Note_off_c, 0, 68, 64
2, 37543, Note_off_c, 0, 58, 64
2, 37580, Note_on_c, 0, 51, 31
2, 37583, Note_on_c, 0, 60, 42
2, 37584, Note_on_c, 0, 68, 36
2, 37584, Note_on_c, 0, 44, 36
2, 37665, Note_on_c, 0, 61, 46
2, 37668, Note_off_c, 0, 51, 64
2, 37670, Note_off_c, 0, 44, 64
2, 37678, Note_off_c, 0, 60, 64
2, 37685, Note_off_c, 0, 68, 64
2, 37723, Note_off_c, 0, 61, 64
2, 37756, Control_c, 0, 64, 0
2, 37761, Note_on_c, 0, 51, 24
2, 37764, Control_c, 0, 64, 0
2, 37772, Note_on_c, 0, 44, 20
2, 37776, Note_on_c, 0, 63, 36
2, 37787, Note_on_c, 0, 68, 35
2, 37792, Control_c, 0, 64, 127
2, 37800, Control_c, 0, 64, 127
2, 37814, Note_off_c, 0, 68, 64
2, 37814, Note_off_c, 0, 63, 64
2, 37823, Note_off_c, 0, 51, 64
2, 37829, Note_off_c, 0, 44, 64
2, 37845, Note_on_c, 0, 68, 37
2, 37845, Note_on_c, 0, 66, 44
2, 37878, Note_off_c, 0, 68, 64
2, 37898, Note_off_c, 0, 66, 64
2, 37913, Note_on_c, 0, 64, 42
2, 37918, Note_on_c, 0, 68, 42
2, 37962, Note_off_c, 0, 68, 64
2, 37964, Note_off_c, 0, 64, 64
2, 37996, Note_on_c, 0, 68, 44
2, 38006, Note_on_c, 0, 63, 40
2, 38023, Control_c, 0, 64, 0
2, 38026, Note_on_c, 0, 44, 19
2, 38030, Note_on_c, 0, 51, 16
2, 38031, Control_c, 0, 64, 0
2, 38070, Control_c, 0, 64, 127
2, 38078, Control_c, 0, 64, 127
2, 38108, Note_off_c, 0, 63, 64
2, 38123, Note_off_c, 0, 68, 64
2, 38217, Note_off_c, 0, 44, 64
2, 38234, Note_off_c, 0, 51, 64
2, 38290, Note_on_c, 0, 68, 55
2, 38488, Control_c, 0, 64, 0
2, 38494, Note_on_c, 0, 48, 52
2, 38496, Control_c, 0, 64, 0
2, 38512, Note_on_c, 0, 80, 59
2, 38545, Control_c, 0, 64, 127
2, 38553, Control_c, 0, 64, 127
2, 38564, Note_off_c, 0, 68, 64
2, 38662, Note_on_c, 0, 81, 46
2, 38666, Note_off_c, 0, 80, 64
2, 38684, Control_c, 0, 64, 0
2, 38692, Note_on_c, 0, 56, 31
2, 38692, Control_c, 0, 64, 0
2, 38706, Note_on_c, 0, 78, 55
2, 38706, Note_on_c, 0, 63, 35
2, 38712, Note_on_c, 0, 66, 23
2, 38720, Note_off_c, 0, 81, 64
2, 38734, Note_off_c, 0, 48, 64
2, 38736, Control_c, 0, 64, 127
2, 38744, Control_c, 0, 64, 127
2, 38752, Note_off_c, 0, 56, 64
2, 38760, Note_off_c, 0, 66, 64
2, 38762, Note_off_c, 0, 63, 64
2, 38845, Note_on_c, 0, 56, 34
2, 38851, Note_on_c, 0, 66, 42
2, 38858, Note_on_c, 0, 63, 28
2, 38875, Note_off_c, 0, 63, 64
2, 38882, Note_off_c, 0, 66, 64
2, 38888, Note_off_c, 0, 56, 64
2, 38925, Note_on_c, 0, 80, 46
2, 38928, Note_off_c, 0, 78, 64
2, 38969, Control_c, 0, 64, 0
2, 38977, Control_c, 0, 64, 0
2, 38982, Note_on_c, 0, 49, 48
2, 38984, Note_on_c, 0, 76, 55
2, 38994, Note_off_c, 0, 80, 64
2, 39008, Control_c, 0, 64, 127
2, 39016, Control_c, 0, 64, 127
2, 39085, Note_on_c, 0, 80, 44
2, 39088, Note_off_c, 0, 76, 64
2, 39110, Control_c, 0, 64, 0
2, 39113, Note_on_c, 0, 56, 26
2, 39115, Note_on_c, 0, 73, 57
2, 39118, Control_c, 0, 64, 0
2, 39124, Note_on_c, 0, 61, 37
2, 39129, Control_c, 0, 64, 127
2, 39131, Note_on_c, 0, 64, 19
2, 39137, Control_c, 0, 64, 127
2, 39145, Note_off_c, 0, 80, 64
2, 39164, Note_off_c, 0, 56, 64
2, 39174, Note_off_c, 0, 61, 64
2, 39183, Note_off_c, 0, 64, 64
2, 39222, Note_off_c, 0, 49, 64
2, 39260, Note_off_c, 0, 73, 64
2, 39260, Note_on_c, 0, 76, 46
2, 39260, Note_on_c, 0, 61, 34
2, 39264, Note_on_c, 0, 64, 28
2, 39264, Note_on_c, 0, 56, 37
2, 39284, Note_off_c, 0, 61, 64
2, 39299, Note_off_c, 0, 64, 64
2, 39304, Note_off_c, 0, 56, 64
2, 39389, Note_off_c, 0, 76, 64
2, 39392, Note_on_c, 0, 80, 52
2, 39396, Control_c, 0, 64, 0
2, 39399, Note_on_c, 0, 48, 46
2, 39404, Control_c, 0, 64, 0
2, 39420, Control_c, 0, 64, 127
2, 39428, Control_c, 0, 64, 127
2, 39489, Note_off_c, 0, 80, 64
2, 39494, Note_on_c, 0, 81, 52
2, 39522, Control_c, 0, 64, 0
2, 39530, Control_c, 0, 64, 0
2, 39531, Note_on_c, 0, 56, 42
2, 39537, Note_on_c, 0, 78, 52
2, 39542, Note_on_c, 0, 66, 29
2, 39542, Note_on_c, 0, 63, 18
2, 39552, Note_off_c, 0, 81, 64
2, 39562, Control_c, 0, 64, 127
2, 39570, Control_c, 0, 64, 127
2, 39577, Note_off_c, 0, 56, 64
2, 39584, Note_off_c, 0, 63, 64
2, 39596, Note_off_c, 0, 66, 64
2, 39639, Note_off_c, 0, 48, 64
2, 39676, Note_on_c, 0, 63, 40
2, 39680, Note_on_c, 0, 66, 34
2, 39681, Note_on_c, 0, 56, 37
2, 39683, Note_on_c, 0, 80, 52
2, 39690, Note_off_c, 0, 78, 64
2, 39711, Note_off_c, 0, 63, 64
2, 39713, Note_off_c, 0, 66, 64
2, 39727, Note_off_c, 0, 56, 64
2, 39811, Note_on_c, 0, 76, 44
2, 39816, Note_on_c, 0, 49, 44
2, 39825, Control_c, 0, 64, 0
2, 39826, Note_off_c, 0, 80, 64
2, 39833, Control_c, 0, 64, 0
2, 39848, Control_c, 0, 64, 127
2, 39856, Control_c, 0, 64, 127
2, 39883, Note_on_c, 0, 78, 44
2, 39887, Note_off_c, 0, 76, 64
2, 39917, Note_on_c, 0, 80, 41
2, 39932, Note_off_c, 0, 78, 64
2, 39951, Note_off_c, 0, 80, 64
2, 39978, Note_on_c, 0, 80, 55
2, 39984, Control_c, 0, 64, 0
2, 39992, Control_c, 0, 64, 0
2, 40008, Note_on_c, 0, 64, 31
2, 40009, Note_on_c, 0, 61, 29
2, 40013, Note_on_c, 0, 73, 55
2, 40013, Note_on_c, 0, 56, 22
2, 40031, Note_off_c, 0, 80, 64
2, 40044, Control_c, 0, 64, 127
2, 40052, Control_c, 0, 64, 127
2, 40056, Note_off_c, 0, 49, 64
2, 40104, Note_off_c, 0, 61, 64
2, 40109, Note_off_c, 0, 56, 64
2, 40114, Note_off_c, 0, 64, 64
2, 40228, Note_off_c, 0, 73, 64
2, 40249, Note_on_c, 0, 74, 58
2, 40337, Control_c, 0, 64, 0
2, 40340, Note_on_c, 0, 75, 58
2, 40340, Note_on_c, 0, 43, 55
2, 40345, Control_c, 0, 64, 0
2, 40359, Note_off_c, 0, 74, 64
2, 40385, Control_c, 0, 64, 127
2, 40393, Control_c, 0, 64, 127
2, 40430, Control_c, 0, 64, 0
2, 40438, Control_c, 0, 64, 0
2, 40446, Note_on_c, 0, 76, 61
2, 40460, Note_off_c, 0, 75, 64
2, 40475, Note_on_c, 0, 58, 46
2, 40478, Note_on_c, 0, 61, 46
2, 40484, Note_on_c, 0, 51, 37
2, 40492, Note_on_c, 0, 73, 70
2, 40500, Note_off_c, 0, 58, 64
2, 40509, Note_off_c, 0, 51, 64
2, 40515, Note_off_c, 0, 76, 64
2, 40520, Note_off_c, 0, 61, 64
2, 40580, Note_off_c, 0, 43, 64
2, 40608, Note_on_c, 0, 61, 40
2, 40613, Note_on_c, 0, 51, 44
2, 40623, Note_on_c, 0, 58, 48
2, 40630, Control_c, 0, 64, 127
2, 40638, Control_c, 0, 64, 127
2, 40646, Note_off_c, 0, 58, 64
2, 40656, Note_off_c, 0, 61, 64
2, 40659, Note_off_c, 0, 51, 64
2, 40694, Note_on_c, 0, 75, 52
2, 40702, Note_off_c, 0, 73, 64
2, 40711, Control_c, 0, 64, 0
2, 40719, Control_c, 0, 64, 0
2, 40739, Note_on_c, 0, 72, 58
2, 40755, Note_off_c, 0, 75, 64
2, 40758, Note_on_c, 0, 44, 66
2, 40780, Control_c, 0, 64, 127
2, 40788, Control_c, 0, 64, 127
2, 40840, Note_on_c, 0, 75, 59
2, 40847, Note_off_c, 0, 72, 64
2, 40857, Control_c, 0, 64, 0
2, 40865, Control_c, 0, 64, 0
2, 40885, Note_on_c, 0, 68, 66
2, 40888, Note_on_c, 0, 51, 45
2, 40892, Note_on_c, 0, 54, 44
2, 40900, Note_off_c, 0, 75, 64
2, 40900, Note_on_c, 0, 60, 44
2, 40902, Control_c, 0, 64, 127
2, 40910, Control_c, 0, 64, 127
2, 40935, Note_off_c, 0, 51, 64
2, 40946, Note_off_c, 0, 60, 64
2, 40946, Note_off_c, 0, 54, 64
2, 40998, Note_off_c, 0, 44, 64
2, 41009, Note_off_c, 0, 68, 64
2, 41023, Note_on_c, 0, 71, 57
2, 41037, Note_on_c, 0, 54, 45
2, 41040, Note_on_c, 0, 60, 48
2, 41048, Note_on_c, 0, 51, 38
2, 41059, Note_on_c, 0, 69, 58
2, 41060, Note_off_c, 0, 71, 64
2, 41081, Note_off_c, 0, 51, 64
2, 41082, Note_off_c, 0, 60, 64
2, 41084, Note_off_c, 0, 54, 64
2, 41089, Note_on_c, 0, 71, 70
2, 41092, Note_off_c, 0, 69, 64
2, 41123, Note_off_c, 0, 71, 64
2, 41127, Note_on_c, 0, 69, 70
2, 41150, Note_on_c, 0, 71, 70
2, 41156, Note_off_c, 0, 69, 64
2, 41186, Note_on_c, 0, 69, 63
2, 41189, Note_off_c, 0, 71, 64
2, 41204, Control_c, 0, 64, 0
2, 41209, Note_on_c, 0, 44, 44
2, 41212, Note_on_c, 0, 68, 58
2, 41212, Control_c, 0, 64, 0
2, 41219, Note_off_c, 0, 69, 64
2, 41253, Control_c, 0, 64, 127
2, 41261, Control_c, 0, 64, 127
2, 41291, Note_off_c, 0, 68, 64
2, 41337, Note_on_c, 0, 66, 54
2, 41349, Control_c, 0, 64, 0
2, 41357, Control_c, 0, 64, 0
2, 41369, Note_on_c, 0, 51, 41
2, 41374, Note_on_c, 0, 54, 40
2, 41377, Note_on_c, 0, 63, 67
2, 41385, Note_on_c, 0, 60, 45
2, 41386, Note_off_c, 0, 66, 64
2, 41394, Control_c, 0, 64, 127
2, 41402, Control_c, 0, 64, 127
2, 41430, Note_off_c, 0, 54, 64
2, 41430, Note_off_c, 0, 51, 64
2, 41432, Note_off_c, 0, 60, 64
2, 41449, Note_off_c, 0, 44, 64
2, 41527, Note_on_c, 0, 68, 70
2, 41534, Note_on_c, 0, 60, 40
2, 41536, Note_on_c, 0, 54, 37
2, 41536, Note_on_c, 0, 51, 46
2, 41556, Note_off_c, 0, 63, 64
2, 41570, Note_off_c, 0, 54, 64
2, 41572, Note_off_c, 0, 60, 64
2, 41576, Note_off_c, 0, 51, 64
2, 41579, Note_off_c, 0, 68, 64
2, 41581, Control_c, 0, 64, 127
2, 41589, Control_c, 0, 64, 127
2, 41626, Control_c, 0, 64, 0
2, 41634, Control_c, 0, 64, 0
2, 41678, Note_on_c, 0, 68, 57
2, 41717, Note_on_c, 0, 61, 67
2, 41717, Note_on_c, 0, 37, 50
2, 41723, Control_c, 0, 64, 0
2, 41731, Control_c, 0, 64, 0
2, 41744, Note_off_c, 0, 68, 64
2, 41769, Control_c, 0, 64, 127
2, 41777, Control_c, 0, 64, 127
2, 41899, Note_on_c, 0, 49, 19
2, 41943, Note_on_c, 0, 56, 40
2, 41957, Note_off_c, 0, 37, 64
2, 41972, Note_on_c, 0, 64, 29
2, 42116, Note_on_c, 0, 68, 50
2, 42132, Note_off_c, 0, 56, 64
2, 42147, Note_off_c, 0, 49, 64
2, 42154, Note_off_c, 0, 61, 64
2, 42182, Note_off_c, 0, 64, 64
2, 42256, Control_c, 0, 64, 0
2, 42264, Control_c, 0, 64, 0
2, 42270, Note_on_c, 0, 80, 46
2, 42273, Note_on_c, 0, 48, 48
2, 42306, Control_c, 0, 64, 127
2, 42314, Control_c, 0, 64, 127
2, 42332, Note_off_c, 0, 68, 64
2, 42344, Note_on_c, 0, 81, 46
2, 42367, Note_off_c, 0, 80, 64
2, 42373, Control_c, 0, 64, 0
2, 42381, Control_c, 0, 64, 0
2, 42404, Note_on_c, 0, 78, 52
2, 42410, Note_on_c, 0, 56, 35
2, 42413, Note_off_c, 0, 81, 64
2, 42420, Note_on_c, 0, 63, 35
2, 42423, Note_on_c, 0, 66, 18
2, 42449, Control_c, 0, 64, 127
2, 42450, Note_off_c, 0, 56, 64
2, 42457, Control_c, 0, 64, 127
2, 42464, Note_off_c, 0, 66, 64
2, 42464, Note_off_c, 0, 63, 64
2, 42513, Note_off_c, 0, 48, 64
2, 42533, Control_c, 0, 64, 0
2, 42541, Control_c, 0, 64, 0
2, 42552, Control_c, 0, 64, 127
2, 42557, Note_on_c, 0, 56, 39
2, 42560, Note_on_c, 0, 80, 46
2, 42560, Note_on_c, 0, 66, 28
2, 42560, Control_c, 0, 64, 127
2, 42564, Note_on_c, 0, 63, 35
2, 42572, Note_off_c, 0, 78, 64
2, 42587, Note_off_c, 0, 66, 64
2, 42594, Note_off_c, 0, 63, 64
2, 42601, Note_off_c, 0, 56, 64
2, 42690, Note_on_c, 0, 76, 46
2, 42693, Control_c, 0, 64, 0
2, 42695, Note_off_c, 0, 80, 64
2, 42695, Note_on_c, 0, 49, 50
2, 42701, Control_c, 0, 64, 0
2, 42712, Control_c, 0, 64, 127
2, 42720, Control_c, 0, 64, 127
2, 42759, Note_on_c, 0, 80, 55
2, 42770, Note_off_c, 0, 76, 64
2, 42791, Control_c, 0, 64, 0
2, 42799, Control_c, 0, 64, 0
2, 42814, Note_on_c, 0, 73, 57
2, 42814, Note_on_c, 0, 64, 31
2, 42814, Note_on_c, 0, 56, 37
2, 42816, Note_on_c, 0, 61, 37
2, 42827, Note_off_c, 0, 80, 64
2, 42838, Control_c, 0, 64, 127
2, 42842, Note_off_c, 0, 56, 64
2, 42846, Note_off_c, 0, 61, 64
2, 42846, Note_off_c, 0, 64, 64
2, 42846, Control_c, 0, 64, 127
2, 42935, Note_off_c, 0, 49, 64
2, 42948, Note_on_c, 0, 64, 28
2, 42956, Note_on_c, 0, 76, 50
2, 42956, Note_on_c, 0, 56, 22
2, 42962, Note_on_c, 0, 61, 28
2, 42979, Note_off_c, 0, 73, 64
2, 42993, Note_off_c, 0, 61, 64
2, 42994, Note_off_c, 0, 56, 64
2, 42994, Note_off_c, 0, 64, 64
2, 43077, Note_off_c, 0, 76, 64
2, 43094, Note_on_c, 0, 80, 44
2, 43104, Control_c, 0, 64, 0
2, 43110, Note_on_c, 0, 48, 42
2, 43112, Control_c, 0, 64, 0
2, 43117, Control_c, 0, 64, 127
2, 43125, Control_c, 0, 64, 127
2, 43148, Note_off_c, 0, 80, 64
2, 43151, Note_on_c, 0, 83, 52
2, 43185, Note_on_c, 0, 81, 48
2, 43210, Note_off_c, 0, 83, 64
2, 43228, Note_on_c, 0, 80, 61
2, 43248, Note_off_c, 0, 81, 64
2, 43252, Note_on_c, 0, 63, 35
2, 43252, Note_on_c, 0, 56, 33
2, 43254, Note_on_c, 0, 66, 37
2, 43260, Control_c, 0, 64, 0
2, 43268, Control_c, 0, 64, 0
2, 43275, Note_on_c, 0, 75, 55
2, 43296, Note_off_c, 0, 56, 64
2, 43298, Note_off_c, 0, 63, 64
2, 43298, Note_off_c, 0, 80, 64
2, 43299, Control_c, 0, 64, 127
2, 43304, Note_off_c, 0, 66, 64
2, 43307, Control_c, 0, 64, 127
2, 43350, Note_off_c, 0, 48, 64
2, 43436, Note_on_c, 0, 63, 31
2, 43444, Note_on_c, 0, 66, 31
2, 43444, Note_on_c, 0, 56, 29
2, 43445, Note_on_c, 0, 80, 49
2, 43472, Note_off_c, 0, 66, 64
2, 43476, Note_off_c, 0, 63, 64
2, 43480, Note_off_c, 0, 56, 64
2, 43480, Note_off_c, 0, 75, 64
2, 43537, Note_off_c, 0, 80, 64
2, 43542, Note_on_c, 0, 80, 39
2, 43584, Note_on_c, 0, 76, 36
2, 43598, Note_off_c, 0, 80, 64
2, 43608, Note_on_c, 0, 49, 35
2, 43610, Control_c, 0, 64, 0
2, 43618, Control_c, 0, 64, 0
2, 43653, Control_c, 0, 64, 127
2, 43660, Note_on_c, 0, 78, 46
2, 43661, Control_c, 0, 64, 127
2, 43676, Note_off_c, 0, 76, 64
2, 43704, Note_on_c, 0, 80, 48
2, 43724, Note_off_c, 0, 78, 64
2, 43745, Note_off_c, 0, 80, 64
2, 43771, Note_on_c, 0, 80, 53
2, 43807, Note_on_c, 0, 61, 22
2, 43808, Note_on_c, 0, 73, 55
2, 43808, Note_on_c, 0, 64, 23
2, 43808, Note_on_c, 0, 56, 22
2, 43812, Control_c, 0, 64, 0
2, 43820, Control_c, 0, 64, 0
2, 43834, Note_off_c, 0, 80, 64
2, 43845, Control_c, 0, 64, 127
2, 43848, Note_off_c, 0, 49, 64
2, 43853, Control_c, 0, 64, 127
2, 43895, Note_off_c, 0, 64, 64
2, 43895, Note_off_c, 0, 61, 64
2, 43898, Note_off_c, 0, 56, 64
2, 44009, Note_off_c, 0, 73, 64
2, 44055, Note_on_c, 0, 74, 63
2, 44151, Note_on_c, 0, 75, 62
2, 44155, Note_on_c, 0, 43, 66
2, 44174, Note_off_c, 0, 74, 64
2, 44285, Note_on_c, 0, 76, 66
2, 44289, Note_off_c, 0, 75, 64
2, 44295, Control_c, 0, 64, 0
2, 44303, Control_c, 0, 64, 0
2, 44310, Note_on_c, 0, 51, 49
2, 44312, Note_on_c, 0, 61, 24
2, 44317, Note_on_c, 0, 58, 52
2, 44320, Note_on_c, 0, 73, 79
2, 44341, Note_off_c, 0, 76, 64
2, 44349, Control_c, 0, 64, 127
2, 44357, Control_c, 0, 64, 127
2, 44362, Note_off_c, 0, 61, 64
2, 44365, Note_off_c, 0, 58, 64
2, 44369, Note_off_c, 0, 51, 64
2, 44395, Note_off_c, 0, 43, 64
2, 44462, Note_on_c, 0, 61, 41
2, 44464, Note_on_c, 0, 51, 52
2, 44471, Note_on_c, 0, 75, 70
2, 44475, Note_on_c, 0, 58, 56
2, 44482, Note_off_c, 0, 73, 64
2, 44498, Note_off_c, 0, 58, 64
2, 44503, Note_off_c, 0, 61, 64
2, 44512, Note_off_c, 0, 51, 64
2, 44613, Note_on_c, 0, 72, 71
2, 44619, Control_c, 0, 64, 0
2, 44620, Note_on_c, 0, 44, 66
2, 44624, Note_off_c, 0, 75, 64
2, 44627, Control_c, 0, 64, 0
2, 44683, Control_c, 0, 64, 127
2, 44691, Control_c, 0, 64, 127
2, 44742, Note_on_c, 0, 75, 75
2, 44749, Note_off_c, 0, 72, 64
2, 44773, Note_on_c, 0, 51, 50
2, 44779, Note_on_c, 0, 54, 52
2, 44785, Note_on_c, 0, 68, 79
2, 44788, Note_on_c, 0, 60, 37
2, 44801, Note_off_c, 0, 75, 64
2, 44824, Note_off_c, 0, 51, 64
2, 44828, Note_off_c, 0, 60, 64
2, 44830, Note_off_c, 0, 54, 64
2, 44860, Note_off_c, 0, 44, 64
2, 44886, Note_off_c, 0, 68, 64
2, 44963, Note_on_c, 0, 71, 57
2, 44999, Note_on_c, 0, 69, 58
2, 45000, Note_off_c, 0, 71, 64
2, 45029, Note_on_c, 0, 71, 70
2, 45032, Note_off_c, 0, 69, 64
2, 45063, Note_off_c, 0, 71, 64
2, 45067, Note_on_c, 0, 69, 70
2, 45090, Note_on_c, 0, 71, 70
2, 45096, Note_off_c, 0, 69, 64
2, 45129, Note_off_c, 0, 71, 64
2, 45136, Note_on_c, 0, 69, 63
2, 45151, Control_c, 0, 64, 0
2, 45159, Control_c, 0, 64, 0
2, 45165, Note_on_c, 0, 68, 89
2, 45167, Note_on_c, 0, 44, 66
2, 45169, Note_off_c, 0, 69, 64
2, 45211, Control_c, 0, 64, 127
2, 45219, Control_c, 0, 64, 127
2, 45239, Note_off_c, 0, 68, 64
2, 45325, Note_on_c, 0, 66, 66
2, 45348, Control_c, 0, 64, 0
2, 45356, Control_c, 0, 64, 0
2, 45377, Note_on_c, 0, 54, 48
2, 45378, Note_on_c, 0, 63, 79
2, 45381, Note_on_c, 0, 51, 44
2, 45382, Note_on_c, 0, 60, 50
2, 45389, Note_off_c, 0, 66, 64
2, 45402, Control_c, 0, 64, 127
2, 45407, Note_off_c, 0, 44, 64
2, 45410, Control_c, 0, 64, 127
2, 45429, Note_off_c, 0, 51, 64
2, 45439, Note_off_c, 0, 54, 64
2, 45444, Note_off_c, 0, 60, 64
2, 45604, Note_on_c, 0, 68, 74
2, 45605, Note_on_c, 0, 54, 37
2, 45611, Note_on_c, 0, 51, 38
2, 45614, Note_on_c, 0, 60, 40
2, 45618, Note_off_c, 0, 63, 64
2, 45655, Note_off_c, 0, 60, 64
2, 45657, Note_off_c, 0, 54, 64
2, 45658, Note_off_c, 0, 51, 64
2, 45673, Note_off_c, 0, 68, 64
2, 45853, Note_on_c, 0, 37, 66
2, 45878, Control_c, 0, 64, 0
2, 45886, Control_c, 0, 64, 0
2, 45899, Note_on_c, 0, 68, 70
2, 45945, Control_c, 0, 64, 127
2, 45953, Control_c, 0, 64, 127
2, 45972, Note_on_c, 0, 61, 79
2, 45987, Note_off_c, 0, 68, 64
2, 46157, Note_on_c, 0, 49, 41
2, 46223, Note_on_c, 0, 56, 48
2, 46292, Note_on_c, 0, 64, 54
2, 46360, Note_off_c, 0, 49, 64
2, 46414, Note_off_c, 0, 56, 64
2, 46475, Note_off_c, 0, 64, 64
2, 46557, Note_off_c, 0, 61, 64
2, 46689, Note_off_c, 0, 37, 64
2, 46689, End_track
3, 0, Start_track
3, 0, Title_t, "Played by Dr. Ron Lubetsky"
3, 0, End_track
4, 0, Start_track
4, 0, Title_t, "Jan. 11, 1998"
4, 0, End_track
5, 0, Start_track
5, 0, Title_t, "email: acuity2020@aol.com"
5, 0, End_track
6, 0, Start_track
6, 0, Title_t, "Copyright  1998"
6, 0, End_track
7, 0, Start_track
7, 0, Title_t, "All Rights Reserved"
7, 0, End_track
0, 0, End_of_file
