0, 0, Header, 1, 7, 240
1, 0, Start_track
1, 0, Time_signature, 4, 2, 24, 8
1, 0, Tempo, 500000
1, 0, Marker_t, "Chopin: Mazurka, Op. 56 No. 3- Moderato"
1, 0, End_track
2, 0, Start_track
2, 0, Title_t, "Chopin: Op. 56 No. 3"
2, 0, Program_c, 0, 0
2, 0, Control_c, 0, 7, 127
2, 16, Control_c, 0, 64, 127
2, 25, Note_on_c, 0, 55, 40
2, 84, Control_c, 0, 64, 127
2, 285, Note_on_c, 0, 67, 55
2, 299, Control_c, 0, 64, 0
2, 310, Note_off_c, 0, 55, 64
2, 342, Control_c, 0, 64, 127
2, 367, Control_c, 0, 64, 0
2, 410, Control_c, 0, 64, 127
2, 567, Note_on_c, 0, 65, 31
2, 668, Note_on_c, 0, 72, 41
2, 672, Note_on_c, 0, 63, 40
2, 685, Note_off_c, 0, 65, 64
2, 764, Note_on_c, 0, 71, 47
2, 764, Note_on_c, 0, 62, 43
2, 767, Note_on_c, 0, 74, 32
2, 777, Note_off_c, 0, 72, 64
2, 781, Note_off_c, 0, 63, 64
2, 848, Note_on_c, 0, 72, 34
2, 852, Note_on_c, 0, 60, 42
2, 852, Note_on_c, 0, 75, 34
2, 870, Note_off_c, 0, 62, 64
2, 870, Note_off_c, 0, 71, 64
2, 873, Note_off_c, 0, 74, 64
2, 932, Note_on_c, 0, 77, 51
2, 934, Note_on_c, 0, 71, 48
2, 938, Note_on_c, 0, 62, 60
2, 945, Note_off_c, 0, 72, 64
2, 949, Note_off_c, 0, 75, 64
2, 949, Note_off_c, 0, 60, 64
2, 952, Control_c, 0, 64, 0
2, 997, Control_c, 0, 64, 127
2, 1020, Control_c, 0, 64, 0
2, 1059, Note_off_c, 0, 77, 64
2, 1061, Note_off_c, 0, 71, 64
2, 1065, Note_off_c, 0, 62, 64
2, 1065, Control_c, 0, 64, 127
2, 1066, Note_on_c, 0, 79, 36
2, 1073, Note_on_c, 0, 55, 35
2, 1098, Control_c, 0, 64, 0
2, 1104, Note_on_c, 0, 71, 54
2, 1107, Note_on_c, 0, 77, 52
2, 1111, Note_on_c, 0, 62, 35
2, 1114, Note_off_c, 0, 79, 64
2, 1143, Note_off_c, 0, 55, 64
2, 1161, Control_c, 0, 64, 127
2, 1166, Control_c, 0, 64, 0
2, 1229, Control_c, 0, 64, 127
2, 1289, Note_on_c, 0, 75, 48
2, 1294, Note_on_c, 0, 72, 35
2, 1296, Note_on_c, 0, 60, 42
2, 1305, Control_c, 0, 64, 0
2, 1318, Note_off_c, 0, 71, 64
2, 1321, Note_off_c, 0, 77, 64
2, 1325, Note_off_c, 0, 62, 64
2, 1351, Control_c, 0, 64, 127
2, 1373, Control_c, 0, 64, 0
2, 1419, Control_c, 0, 64, 127
2, 1445, Note_off_c, 0, 72, 64
2, 1452, Note_off_c, 0, 60, 64
2, 1454, Note_off_c, 0, 75, 64
2, 1477, Note_on_c, 0, 77, 49
2, 1479, Note_on_c, 0, 71, 48
2, 1482, Note_on_c, 0, 62, 40
2, 1494, Control_c, 0, 64, 0
2, 1527, Control_c, 0, 64, 127
2, 1562, Control_c, 0, 64, 0
2, 1595, Control_c, 0, 64, 127
2, 1602, Note_off_c, 0, 77, 64
2, 1605, Note_off_c, 0, 71, 64
2, 1615, Note_on_c, 0, 55, 46
2, 1619, Note_off_c, 0, 62, 64
2, 1619, Note_on_c, 0, 79, 35
2, 1644, Note_on_c, 0, 71, 48
2, 1648, Note_on_c, 0, 62, 52
2, 1650, Note_on_c, 0, 77, 52
2, 1662, Note_off_c, 0, 79, 64
2, 1665, Control_c, 0, 64, 0
2, 1685, Note_off_c, 0, 55, 64
2, 1724, Control_c, 0, 64, 127
2, 1733, Control_c, 0, 64, 0
2, 1792, Control_c, 0, 64, 127
2, 1920, Note_on_c, 0, 72, 37
2, 1922, Note_on_c, 0, 75, 42
2, 1926, Note_on_c, 0, 60, 37
2, 1946, Note_off_c, 0, 71, 64
2, 1950, Note_off_c, 0, 62, 64
2, 1950, Control_c, 0, 64, 0
2, 1952, Note_off_c, 0, 77, 64
2, 2014, Control_c, 0, 64, 127
2, 2018, Control_c, 0, 64, 0
2, 2082, Control_c, 0, 64, 127
2, 2147, Note_off_c, 0, 72, 64
2, 2159, Note_off_c, 0, 75, 64
2, 2187, Note_off_c, 0, 60, 64
2, 2344, Note_on_c, 0, 59, 51
2, 2354, Note_off_c, 0, 67, 64
2, 2407, Control_c, 0, 64, 0
2, 2439, Note_on_c, 0, 60, 52
2, 2454, Note_off_c, 0, 59, 64
2, 2475, Control_c, 0, 64, 0
2, 2535, Note_on_c, 0, 62, 54
2, 2548, Note_off_c, 0, 60, 64
2, 2616, Note_on_c, 0, 63, 66
2, 2632, Note_off_c, 0, 62, 64
2, 2722, Note_on_c, 0, 62, 55
2, 2727, Note_off_c, 0, 63, 64
2, 2745, Control_c, 0, 64, 127
2, 2813, Control_c, 0, 64, 127
2, 2956, Note_on_c, 0, 60, 49
2, 3039, Note_on_c, 0, 58, 42
2, 3042, Note_on_c, 0, 67, 54
2, 3049, Note_off_c, 0, 60, 64
2, 3128, Note_on_c, 0, 69, 46
2, 3128, Note_on_c, 0, 66, 47
2, 3128, Note_on_c, 0, 57, 47
2, 3147, Note_off_c, 0, 58, 64
2, 3150, Note_off_c, 0, 67, 64
2, 3200, Note_on_c, 0, 67, 57
2, 3204, Note_on_c, 0, 70, 57
2, 3206, Note_on_c, 0, 55, 59
2, 3220, Note_off_c, 0, 57, 64
2, 3222, Note_off_c, 0, 69, 64
2, 3234, Note_off_c, 0, 66, 64
2, 3288, Control_c, 0, 64, 0
2, 3292, Note_on_c, 0, 72, 59
2, 3292, Note_on_c, 0, 57, 59
2, 3298, Note_on_c, 0, 66, 48
2, 3312, Note_off_c, 0, 67, 64
2, 3316, Note_off_c, 0, 70, 64
2, 3318, Note_off_c, 0, 55, 64
2, 3336, Control_c, 0, 64, 127
2, 3356, Control_c, 0, 64, 0
2, 3404, Control_c, 0, 64, 127
2, 3425, Note_on_c, 0, 50, 60
2, 3426, Note_off_c, 0, 57, 64
2, 3426, Note_off_c, 0, 72, 64
2, 3428, Note_off_c, 0, 66, 64
2, 3429, Note_on_c, 0, 74, 60
2, 3468, Note_on_c, 0, 66, 64
2, 3468, Note_on_c, 0, 57, 40
2, 3471, Note_on_c, 0, 72, 60
2, 3481, Control_c, 0, 64, 0
2, 3487, Note_off_c, 0, 74, 64
2, 3514, Note_off_c, 0, 50, 64
2, 3536, Control_c, 0, 64, 127
2, 3549, Control_c, 0, 64, 0
2, 3604, Control_c, 0, 64, 127
2, 3661, Control_c, 0, 64, 0
2, 3668, Note_on_c, 0, 55, 49
2, 3668, Note_on_c, 0, 67, 57
2, 3672, Note_on_c, 0, 70, 63
2, 3675, Note_off_c, 0, 57, 64
2, 3675, Note_off_c, 0, 66, 64
2, 3676, Note_off_c, 0, 72, 64
2, 3716, Control_c, 0, 64, 127
2, 3729, Control_c, 0, 64, 0
2, 3784, Control_c, 0, 64, 127
2, 3831, Note_off_c, 0, 70, 64
2, 3832, Note_off_c, 0, 67, 64
2, 3834, Note_on_c, 0, 57, 42
2, 3841, Note_on_c, 0, 66, 57
2, 3841, Note_on_c, 0, 72, 58
2, 3845, Note_off_c, 0, 55, 64
2, 3849, Control_c, 0, 64, 0
2, 3891, Control_c, 0, 64, 127
2, 3917, Control_c, 0, 64, 0
2, 3958, Note_off_c, 0, 66, 64
2, 3959, Control_c, 0, 64, 127
2, 3968, Note_off_c, 0, 72, 64
2, 3971, Note_on_c, 0, 74, 55
2, 3971, Note_on_c, 0, 50, 48
2, 3979, Note_off_c, 0, 57, 64
2, 4017, Control_c, 0, 64, 0
2, 4020, Note_on_c, 0, 57, 55
2, 4023, Note_on_c, 0, 72, 55
2, 4024, Note_on_c, 0, 66, 58
2, 4027, Note_off_c, 0, 74, 64
2, 4056, Note_off_c, 0, 50, 64
2, 4079, Control_c, 0, 64, 127
2, 4085, Control_c, 0, 64, 0
2, 4147, Control_c, 0, 64, 127
2, 4252, Note_on_c, 0, 67, 42
2, 4253, Note_on_c, 0, 70, 55
2, 4267, Note_on_c, 0, 55, 46
2, 4271, Note_off_c, 0, 57, 64
2, 4272, Note_off_c, 0, 72, 64
2, 4273, Control_c, 0, 64, 0
2, 4275, Note_off_c, 0, 66, 64
2, 4318, Control_c, 0, 64, 127
2, 4341, Control_c, 0, 64, 0
2, 4386, Control_c, 0, 64, 127
2, 4508, Note_off_c, 0, 67, 64
2, 4509, Note_off_c, 0, 70, 64
2, 4516, Note_off_c, 0, 62, 64
2, 4541, Note_on_c, 0, 68, 52
2, 4544, Note_on_c, 0, 63, 48
2, 4547, Note_on_c, 0, 60, 46
2, 4570, Control_c, 0, 64, 0
2, 4638, Control_c, 0, 64, 0
2, 4642, Control_c, 0, 64, 127
2, 4710, Control_c, 0, 64, 127
2, 5061, Note_on_c, 0, 66, 28
2, 5079, Note_off_c, 0, 68, 64
2, 5095, Note_off_c, 0, 63, 64
2, 5186, Note_off_c, 0, 60, 64
2, 5347, Note_on_c, 0, 67, 34
2, 5355, Note_off_c, 0, 66, 64
2, 5360, Note_on_c, 0, 59, 25
2, 5363, Note_on_c, 0, 62, 26
2, 5383, Control_c, 0, 64, 0
2, 5435, Control_c, 0, 64, 127
2, 5451, Control_c, 0, 64, 0
2, 5503, Control_c, 0, 64, 127
2, 5647, Note_off_c, 0, 59, 64
2, 5656, Note_on_c, 0, 53, 25
2, 5674, Note_off_c, 0, 62, 64
2, 5715, Note_off_c, 0, 67, 64
2, 5742, Note_on_c, 0, 51, 43
2, 5746, Note_on_c, 0, 60, 47
2, 5754, Note_off_c, 0, 53, 64
2, 5831, Note_on_c, 0, 50, 35
2, 5836, Note_on_c, 0, 62, 37
2, 5838, Note_on_c, 0, 59, 43
2, 5840, Note_off_c, 0, 51, 64
2, 5844, Note_off_c, 0, 60, 64
2, 5912, Note_on_c, 0, 60, 46
2, 5913, Note_on_c, 0, 63, 41
2, 5916, Note_on_c, 0, 48, 34
2, 5923, Note_off_c, 0, 50, 64
2, 5928, Note_off_c, 0, 62, 64
2, 5930, Note_off_c, 0, 59, 64
2, 5997, Control_c, 0, 64, 0
2, 6007, Note_on_c, 0, 65, 52
2, 6007, Note_on_c, 0, 59, 59
2, 6007, Note_on_c, 0, 50, 48
2, 6012, Note_off_c, 0, 60, 64
2, 6013, Note_off_c, 0, 63, 64
2, 6016, Note_off_c, 0, 48, 64
2, 6059, Control_c, 0, 64, 127
2, 6065, Control_c, 0, 64, 0
2, 6125, Note_on_c, 0, 43, 54
2, 6127, Control_c, 0, 64, 127
2, 6132, Note_on_c, 0, 67, 51
2, 6141, Note_off_c, 0, 50, 64
2, 6141, Note_off_c, 0, 59, 64
2, 6141, Note_off_c, 0, 65, 64
2, 6172, Control_c, 0, 64, 0
2, 6180, Note_on_c, 0, 65, 54
2, 6180, Note_on_c, 0, 59, 54
2, 6188, Note_on_c, 0, 50, 52
2, 6191, Note_off_c, 0, 67, 64
2, 6193, Note_off_c, 0, 43, 64
2, 6236, Control_c, 0, 64, 127
2, 6240, Control_c, 0, 64, 0
2, 6304, Control_c, 0, 64, 127
2, 6356, Note_on_c, 0, 48, 48
2, 6363, Note_on_c, 0, 63, 54
2, 6364, Note_off_c, 0, 50, 64
2, 6364, Note_on_c, 0, 60, 52
2, 6380, Control_c, 0, 64, 0
2, 6389, Note_off_c, 0, 65, 64
2, 6397, Note_off_c, 0, 59, 64
2, 6426, Control_c, 0, 64, 127
2, 6448, Control_c, 0, 64, 0
2, 6494, Control_c, 0, 64, 127
2, 6534, Note_on_c, 0, 50, 51
2, 6537, Note_off_c, 0, 60, 64
2, 6537, Note_on_c, 0, 65, 52
2, 6537, Note_on_c, 0, 59, 51
2, 6544, Note_off_c, 0, 48, 64
2, 6558, Control_c, 0, 64, 0
2, 6563, Note_off_c, 0, 63, 64
2, 6603, Control_c, 0, 64, 127
2, 6626, Control_c, 0, 64, 0
2, 6656, Note_on_c, 0, 43, 48
2, 6661, Note_on_c, 0, 67, 48
2, 6668, Note_off_c, 0, 65, 64
2, 6669, Note_off_c, 0, 50, 64
2, 6671, Control_c, 0, 64, 127
2, 6672, Note_off_c, 0, 59, 64
2, 6710, Note_on_c, 0, 65, 48
2, 6710, Note_on_c, 0, 59, 52
2, 6714, Note_off_c, 0, 67, 64
2, 6717, Note_on_c, 0, 50, 54
2, 6721, Control_c, 0, 64, 0
2, 6744, Note_off_c, 0, 43, 64
2, 6767, Control_c, 0, 64, 127
2, 6789, Control_c, 0, 64, 0
2, 6835, Control_c, 0, 64, 127
2, 6950, Note_on_c, 0, 63, 35
2, 6950, Note_on_c, 0, 48, 34
2, 6956, Note_on_c, 0, 60, 26
2, 6960, Control_c, 0, 64, 0
2, 6975, Note_off_c, 0, 50, 64
2, 6977, Note_off_c, 0, 65, 64
2, 6996, Note_off_c, 0, 59, 64
2, 7016, Control_c, 0, 64, 127
2, 7028, Control_c, 0, 64, 0
2, 7060, Note_off_c, 0, 63, 64
2, 7067, Note_off_c, 0, 60, 64
2, 7084, Control_c, 0, 64, 127
2, 7128, Note_off_c, 0, 48, 64
2, 7251, Note_off_c, 0, 55, 64
2, 7252, Note_on_c, 0, 48, 52
2, 7284, Note_on_c, 0, 50, 57
2, 7297, Note_off_c, 0, 48, 64
2, 7329, Note_on_c, 0, 48, 64
2, 7345, Control_c, 0, 64, 0
2, 7349, Note_off_c, 0, 50, 64
2, 7378, Note_on_c, 0, 47, 57
2, 7389, Note_off_c, 0, 48, 64
2, 7413, Control_c, 0, 64, 0
2, 7474, Note_on_c, 0, 48, 64
2, 7507, Note_off_c, 0, 47, 64
2, 7569, Note_on_c, 0, 50, 59
2, 7594, Note_off_c, 0, 48, 64
2, 7644, Note_on_c, 0, 51, 48
2, 7667, Note_off_c, 0, 50, 64
2, 7712, Control_c, 0, 64, 127
2, 7742, Note_on_c, 0, 50, 59
2, 7755, Note_off_c, 0, 51, 64
2, 7780, Control_c, 0, 64, 127
2, 7820, Control_c, 0, 64, 0
2, 7824, Note_on_c, 0, 49, 55
2, 7827, Note_on_c, 0, 52, 66
2, 7842, Note_off_c, 0, 50, 64
2, 7888, Control_c, 0, 64, 0
2, 7911, Note_on_c, 0, 54, 65
2, 7912, Note_on_c, 0, 48, 69
2, 7923, Note_off_c, 0, 49, 64
2, 7926, Note_off_c, 0, 52, 64
2, 7998, Note_on_c, 0, 55, 69
2, 8002, Note_on_c, 0, 46, 66
2, 8013, Note_off_c, 0, 54, 64
2, 8014, Note_off_c, 0, 48, 64
2, 8092, Note_on_c, 0, 57, 66
2, 8092, Note_on_c, 0, 54, 57
2, 8095, Note_on_c, 0, 45, 63
2, 8104, Note_off_c, 0, 55, 64
2, 8108, Note_off_c, 0, 46, 64
2, 8176, Note_on_c, 0, 58, 74
2, 8176, Note_on_c, 0, 55, 60
2, 8176, Note_on_c, 0, 43, 65
2, 8190, Note_off_c, 0, 54, 64
2, 8190, Note_off_c, 0, 57, 64
2, 8193, Note_off_c, 0, 45, 64
2, 8256, Note_on_c, 0, 45, 72
2, 8259, Note_on_c, 0, 57, 66
2, 8260, Note_on_c, 0, 53, 69
2, 8266, Note_off_c, 0, 43, 64
2, 8266, Note_off_c, 0, 55, 64
2, 8266, Note_off_c, 0, 58, 64
2, 8289, Control_c, 0, 64, 127
2, 8354, Note_off_c, 0, 45, 64
2, 8357, Note_off_c, 0, 57, 64
2, 8357, Control_c, 0, 64, 127
2, 8358, Note_off_c, 0, 53, 64
2, 8377, Note_on_c, 0, 33, 78
2, 8380, Note_on_c, 0, 61, 74
2, 8386, Note_on_c, 0, 52, 83
2, 8428, Note_on_c, 0, 50, 88
2, 8428, Note_on_c, 0, 38, 88
2, 8429, Note_on_c, 0, 62, 77
2, 8436, Note_off_c, 0, 33, 64
2, 8440, Note_off_c, 0, 61, 64
2, 8441, Control_c, 0, 64, 0
2, 8446, Note_off_c, 0, 52, 64
2, 8453, Control_c, 0, 64, 0
2, 8509, Control_c, 0, 64, 0
2, 8521, Control_c, 0, 64, 0
2, 8600, Control_c, 0, 64, 127
2, 8655, Note_off_c, 0, 38, 64
2, 8655, Note_off_c, 0, 50, 64
2, 8656, Note_off_c, 0, 62, 64
2, 8668, Control_c, 0, 64, 127
2, 8826, Note_on_c, 0, 69, 54
2, 8831, Note_on_c, 0, 65, 52
2, 8834, Note_on_c, 0, 57, 51
2, 8835, Note_on_c, 0, 50, 40
2, 8842, Control_c, 0, 64, 0
2, 8864, Control_c, 0, 64, 127
2, 8910, Control_c, 0, 64, 0
2, 8932, Control_c, 0, 64, 127
2, 8953, Note_on_c, 0, 73, 55
2, 8959, Note_off_c, 0, 69, 64
2, 8959, Note_on_c, 0, 64, 63
2, 8962, Note_on_c, 0, 55, 40
2, 8965, Note_off_c, 0, 65, 64
2, 8968, Note_off_c, 0, 57, 64
2, 9014, Note_on_c, 0, 62, 64
2, 9018, Note_on_c, 0, 74, 60
2, 9018, Note_on_c, 0, 53, 54
2, 9028, Note_off_c, 0, 73, 64
2, 9031, Control_c, 0, 64, 0
2, 9034, Note_off_c, 0, 64, 64
2, 9037, Note_off_c, 0, 55, 64
2, 9099, Control_c, 0, 64, 0
2, 9156, Control_c, 0, 64, 127
2, 9224, Control_c, 0, 64, 127
2, 9309, Note_off_c, 0, 62, 64
2, 9325, Note_off_c, 0, 53, 64
2, 9379, Note_off_c, 0, 74, 64
2, 9477, Note_on_c, 0, 65, 32
2, 9483, Note_on_c, 0, 69, 40
2, 9486, Note_on_c, 0, 57, 28
2, 9492, Control_c, 0, 64, 0
2, 9526, Control_c, 0, 64, 127
2, 9560, Control_c, 0, 64, 0
2, 9594, Control_c, 0, 64, 127
2, 9662, Note_on_c, 0, 64, 47
2, 9664, Note_on_c, 0, 73, 46
2, 9676, Note_off_c, 0, 65, 64
2, 9676, Note_on_c, 0, 55, 28
2, 9682, Note_off_c, 0, 69, 64
2, 9685, Note_off_c, 0, 57, 64
2, 9726, Note_on_c, 0, 74, 41
2, 9731, Note_on_c, 0, 62, 47
2, 9732, Note_on_c, 0, 53, 28
2, 9734, Note_off_c, 0, 64, 64
2, 9736, Note_off_c, 0, 73, 64
2, 9739, Control_c, 0, 64, 0
2, 9748, Note_off_c, 0, 55, 64
2, 9807, Control_c, 0, 64, 0
2, 9870, Control_c, 0, 64, 127
2, 9938, Control_c, 0, 64, 127
2, 10148, Note_off_c, 0, 62, 64
2, 10149, Note_off_c, 0, 53, 64
2, 10156, Note_off_c, 0, 74, 64
2, 10163, Note_on_c, 0, 69, 40
2, 10170, Note_on_c, 0, 57, 29
2, 10194, Control_c, 0, 64, 0
2, 10229, Control_c, 0, 64, 127
2, 10262, Control_c, 0, 64, 0
2, 10269, Note_on_c, 0, 72, 42
2, 10272, Note_off_c, 0, 69, 64
2, 10276, Note_on_c, 0, 60, 36
2, 10292, Note_off_c, 0, 57, 64
2, 10297, Control_c, 0, 64, 127
2, 10312, Note_off_c, 0, 72, 64
2, 10373, Note_on_c, 0, 72, 51
2, 10410, Note_on_c, 0, 58, 32
2, 10415, Note_on_c, 0, 70, 54
2, 10423, Note_off_c, 0, 72, 64
2, 10425, Note_off_c, 0, 60, 64
2, 10448, Note_on_c, 0, 72, 51
2, 10452, Control_c, 0, 64, 0
2, 10456, Note_off_c, 0, 70, 64
2, 10488, Note_on_c, 0, 70, 51
2, 10500, Control_c, 0, 64, 127
2, 10506, Note_off_c, 0, 72, 64
2, 10520, Control_c, 0, 64, 0
2, 10568, Control_c, 0, 64, 127
2, 10572, Note_off_c, 0, 70, 64
2, 10580, Note_on_c, 0, 69, 48
2, 10588, Note_on_c, 0, 57, 40
2, 10593, Note_off_c, 0, 58, 64
2, 10608, Control_c, 0, 64, 0
2, 10639, Control_c, 0, 64, 127
2, 10668, Note_on_c, 0, 67, 48
2, 10674, Note_on_c, 0, 55, 40
2, 10676, Control_c, 0, 64, 0
2, 10678, Note_off_c, 0, 57, 64
2, 10684, Note_off_c, 0, 69, 64
2, 10707, Control_c, 0, 64, 127
2, 10742, Control_c, 0, 64, 0
2, 10760, Note_on_c, 0, 69, 42
2, 10763, Note_on_c, 0, 57, 46
2, 10768, Note_off_c, 0, 55, 64
2, 10770, Note_off_c, 0, 67, 64
2, 10810, Control_c, 0, 64, 0
2, 10822, Control_c, 0, 64, 127
2, 10890, Control_c, 0, 64, 127
2, 10895, Note_on_c, 0, 64, 41
2, 10910, Note_off_c, 0, 69, 64
2, 10910, Note_on_c, 0, 52, 40
2, 10930, Control_c, 0, 64, 0
2, 10940, Note_on_c, 0, 65, 42
2, 10958, Note_off_c, 0, 64, 64
2, 10959, Note_on_c, 0, 53, 32
2, 10966, Note_off_c, 0, 52, 64
2, 10998, Control_c, 0, 64, 0
2, 10999, Control_c, 0, 64, 127
2, 11067, Control_c, 0, 64, 127
2, 11089, Note_off_c, 0, 50, 64
2, 11115, Control_c, 0, 64, 0
2, 11119, Note_on_c, 0, 50, 40
2, 11123, Note_off_c, 0, 65, 64
2, 11126, Note_on_c, 0, 62, 40
2, 11132, Note_off_c, 0, 53, 64
2, 11148, Note_off_c, 0, 57, 64
2, 11168, Control_c, 0, 64, 127
2, 11183, Control_c, 0, 64, 0
2, 11236, Control_c, 0, 64, 127
2, 11299, Note_on_c, 0, 69, 42
2, 11306, Note_on_c, 0, 57, 36
2, 11306, Control_c, 0, 64, 0
2, 11312, Note_off_c, 0, 62, 64
2, 11351, Control_c, 0, 64, 127
2, 11374, Control_c, 0, 64, 0
2, 11387, Note_off_c, 0, 69, 64
2, 11390, Note_on_c, 0, 72, 46
2, 11397, Note_on_c, 0, 60, 40
2, 11410, Note_off_c, 0, 57, 64
2, 11419, Control_c, 0, 64, 127
2, 11427, Note_off_c, 0, 72, 64
2, 11479, Note_on_c, 0, 72, 51
2, 11503, Note_on_c, 0, 58, 26
2, 11506, Control_c, 0, 64, 0
2, 11513, Note_on_c, 0, 70, 51
2, 11519, Note_off_c, 0, 60, 64
2, 11524, Note_off_c, 0, 72, 64
2, 11552, Note_on_c, 0, 72, 51
2, 11561, Note_off_c, 0, 70, 64
2, 11568, Control_c, 0, 64, 127
2, 11574, Control_c, 0, 64, 0
2, 11591, Note_on_c, 0, 70, 48
2, 11608, Note_off_c, 0, 72, 64
2, 11636, Control_c, 0, 64, 127
2, 11659, Note_off_c, 0, 70, 64
2, 11663, Note_on_c, 0, 69, 47
2, 11668, Note_on_c, 0, 57, 40
2, 11673, Note_off_c, 0, 58, 64
2, 11675, Control_c, 0, 64, 0
2, 11741, Control_c, 0, 64, 127
2, 11743, Control_c, 0, 64, 0
2, 11750, Note_on_c, 0, 67, 42
2, 11758, Note_on_c, 0, 55, 40
2, 11760, Note_off_c, 0, 69, 64
2, 11765, Note_off_c, 0, 57, 64
2, 11809, Control_c, 0, 64, 127
2, 11829, Control_c, 0, 64, 0
2, 11840, Note_on_c, 0, 69, 43
2, 11842, Note_on_c, 0, 57, 40
2, 11849, Note_off_c, 0, 55, 64
2, 11855, Note_off_c, 0, 67, 64
2, 11889, Control_c, 0, 64, 127
2, 11897, Control_c, 0, 64, 0
2, 11957, Control_c, 0, 64, 127
2, 11980, Note_on_c, 0, 64, 43
2, 11990, Note_on_c, 0, 52, 28
2, 12000, Note_off_c, 0, 69, 64
2, 12010, Control_c, 0, 64, 0
2, 12025, Note_on_c, 0, 65, 43
2, 12036, Note_on_c, 0, 53, 26
2, 12045, Note_off_c, 0, 52, 64
2, 12045, Note_off_c, 0, 64, 64
2, 12071, Control_c, 0, 64, 127
2, 12078, Control_c, 0, 64, 0
2, 12139, Control_c, 0, 64, 127
2, 12204, Note_off_c, 0, 50, 64
2, 12213, Control_c, 0, 64, 0
2, 12220, Note_on_c, 0, 50, 28
2, 12220, Note_on_c, 0, 62, 37
2, 12235, Note_off_c, 0, 65, 64
2, 12249, Note_off_c, 0, 53, 64
2, 12267, Note_off_c, 0, 57, 64
2, 12281, Control_c, 0, 64, 0
2, 12281, Control_c, 0, 64, 127
2, 12349, Control_c, 0, 64, 127
2, 12408, Note_on_c, 0, 69, 35
2, 12418, Note_on_c, 0, 57, 32
2, 12418, Control_c, 0, 64, 0
2, 12425, Note_off_c, 0, 62, 64
2, 12471, Control_c, 0, 64, 127
2, 12486, Control_c, 0, 64, 0
2, 12539, Control_c, 0, 64, 127
2, 12566, Note_on_c, 0, 64, 32
2, 12575, Note_on_c, 0, 52, 26
2, 12598, Note_off_c, 0, 69, 64
2, 12614, Control_c, 0, 64, 0
2, 12619, Note_on_c, 0, 65, 41
2, 12634, Note_off_c, 0, 52, 64
2, 12635, Note_on_c, 0, 53, 40
2, 12642, Note_off_c, 0, 64, 64
2, 12673, Control_c, 0, 64, 127
2, 12682, Control_c, 0, 64, 0
2, 12741, Control_c, 0, 64, 127
2, 12805, Note_off_c, 0, 50, 64
2, 12831, Note_on_c, 0, 50, 32
2, 12834, Note_on_c, 0, 62, 40
2, 12845, Control_c, 0, 64, 0
2, 12850, Note_off_c, 0, 65, 64
2, 12860, Note_off_c, 0, 53, 64
2, 12899, Note_off_c, 0, 57, 64
2, 12902, Control_c, 0, 64, 127
2, 12913, Control_c, 0, 64, 0
2, 12970, Control_c, 0, 64, 127
2, 13050, Note_on_c, 0, 57, 32
2, 13053, Note_on_c, 0, 69, 40
2, 13060, Control_c, 0, 64, 0
2, 13080, Note_off_c, 0, 62, 64
2, 13116, Control_c, 0, 64, 127
2, 13128, Control_c, 0, 64, 0
2, 13184, Control_c, 0, 64, 127
2, 13264, Note_on_c, 0, 64, 34
2, 13266, Note_on_c, 0, 52, 36
2, 13302, Note_off_c, 0, 69, 64
2, 13303, Control_c, 0, 64, 0
2, 13328, Note_on_c, 0, 65, 41
2, 13331, Note_on_c, 0, 53, 32
2, 13336, Note_off_c, 0, 64, 64
2, 13338, Note_off_c, 0, 52, 64
2, 13354, Control_c, 0, 64, 127
2, 13371, Control_c, 0, 64, 0
2, 13422, Control_c, 0, 64, 127
2, 13550, Note_off_c, 0, 50, 64
2, 13593, Note_on_c, 0, 62, 40
2, 13593, Note_on_c, 0, 50, 28
2, 13601, Note_off_c, 0, 53, 64
2, 13604, Control_c, 0, 64, 0
2, 13632, Note_off_c, 0, 65, 64
2, 13633, Note_off_c, 0, 57, 64
2, 13651, Control_c, 0, 64, 127
2, 13672, Control_c, 0, 64, 0
2, 13719, Control_c, 0, 64, 127
2, 13952, Note_off_c, 0, 50, 64
2, 13996, Note_on_c, 0, 67, 41
2, 13996, Note_on_c, 0, 43, 43
2, 13999, Note_on_c, 0, 71, 48
2, 14071, Control_c, 0, 64, 0
2, 14139, Control_c, 0, 64, 0
2, 14162, Control_c, 0, 64, 127
2, 14230, Control_c, 0, 64, 127
2, 14844, Note_on_c, 0, 55, 41
2, 14859, Note_off_c, 0, 43, 64
2, 14859, Note_off_c, 0, 67, 64
2, 14862, Note_off_c, 0, 71, 64
2, 14871, Note_off_c, 0, 62, 64
2, 14911, Note_off_c, 0, 55, 64
2, 14984, Note_on_c, 0, 55, 57
2, 15016, Note_off_c, 0, 55, 64
2, 15046, Note_on_c, 0, 55, 65
2, 15090, Note_off_c, 0, 55, 64
2, 15262, Note_on_c, 0, 55, 72
2, 15275, Control_c, 0, 64, 0
2, 15342, Control_c, 0, 64, 127
2, 15343, Control_c, 0, 64, 0
2, 15410, Control_c, 0, 64, 127
2, 15563, Note_on_c, 0, 67, 72
2, 15600, Control_c, 0, 64, 0
2, 15643, Control_c, 0, 64, 127
2, 15658, Note_off_c, 0, 55, 64
2, 15668, Control_c, 0, 64, 0
2, 15711, Control_c, 0, 64, 127
2, 15917, Note_on_c, 0, 65, 28
2, 16008, Note_on_c, 0, 72, 48
2, 16013, Note_on_c, 0, 63, 40
2, 16022, Note_off_c, 0, 65, 64
2, 16100, Note_on_c, 0, 71, 55
2, 16104, Note_on_c, 0, 74, 43
2, 16106, Note_on_c, 0, 62, 28
2, 16110, Note_off_c, 0, 72, 64
2, 16115, Note_off_c, 0, 63, 64
2, 16185, Note_on_c, 0, 72, 48
2, 16188, Note_on_c, 0, 60, 48
2, 16189, Note_on_c, 0, 75, 48
2, 16198, Note_off_c, 0, 71, 64
2, 16202, Note_off_c, 0, 74, 64
2, 16204, Note_off_c, 0, 62, 64
2, 16267, Control_c, 0, 64, 0
2, 16272, Note_on_c, 0, 62, 60
2, 16278, Note_on_c, 0, 71, 48
2, 16278, Note_on_c, 0, 77, 54
2, 16283, Note_off_c, 0, 72, 64
2, 16286, Note_off_c, 0, 60, 64
2, 16287, Note_off_c, 0, 75, 64
2, 16320, Control_c, 0, 64, 127
2, 16335, Control_c, 0, 64, 0
2, 16388, Control_c, 0, 64, 127
2, 16396, Note_off_c, 0, 62, 64
2, 16397, Note_on_c, 0, 55, 54
2, 16402, Note_off_c, 0, 77, 64
2, 16402, Note_off_c, 0, 71, 64
2, 16407, Note_on_c, 0, 79, 43
2, 16444, Note_on_c, 0, 71, 48
2, 16447, Note_on_c, 0, 77, 55
2, 16451, Note_on_c, 0, 62, 34
2, 16456, Control_c, 0, 64, 0
2, 16464, Note_off_c, 0, 79, 64
2, 16476, Note_off_c, 0, 55, 64
2, 16494, Control_c, 0, 64, 127
2, 16524, Control_c, 0, 64, 0
2, 16562, Control_c, 0, 64, 127
2, 16622, Note_on_c, 0, 60, 46
2, 16628, Note_on_c, 0, 75, 52
2, 16636, Note_on_c, 0, 72, 54
2, 16638, Note_off_c, 0, 62, 64
2, 16646, Control_c, 0, 64, 0
2, 16652, Note_off_c, 0, 71, 64
2, 16655, Note_off_c, 0, 77, 64
2, 16696, Control_c, 0, 64, 127
2, 16714, Control_c, 0, 64, 0
2, 16764, Control_c, 0, 64, 127
2, 16798, Note_off_c, 0, 72, 64
2, 16801, Note_off_c, 0, 75, 64
2, 16804, Note_on_c, 0, 62, 34
2, 16808, Note_on_c, 0, 77, 51
2, 16810, Note_on_c, 0, 71, 51
2, 16814, Note_off_c, 0, 60, 64
2, 16817, Control_c, 0, 64, 0
2, 16853, Control_c, 0, 64, 127
2, 16885, Control_c, 0, 64, 0
2, 16921, Control_c, 0, 64, 127
2, 16924, Note_on_c, 0, 55, 40
2, 16928, Note_off_c, 0, 71, 64
2, 16929, Note_off_c, 0, 77, 64
2, 16931, Note_on_c, 0, 79, 43
2, 16935, Note_off_c, 0, 62, 64
2, 16970, Note_on_c, 0, 77, 54
2, 16978, Note_on_c, 0, 71, 52
2, 16980, Control_c, 0, 64, 0
2, 16985, Note_on_c, 0, 62, 48
2, 16988, Note_off_c, 0, 79, 64
2, 17017, Note_off_c, 0, 55, 64
2, 17027, Control_c, 0, 64, 127
2, 17048, Control_c, 0, 64, 0
2, 17095, Control_c, 0, 64, 127
2, 17187, Note_on_c, 0, 75, 43
2, 17194, Note_on_c, 0, 60, 37
2, 17194, Note_on_c, 0, 72, 43
2, 17201, Control_c, 0, 64, 0
2, 17206, Note_off_c, 0, 77, 64
2, 17209, Note_off_c, 0, 62, 64
2, 17210, Note_off_c, 0, 71, 64
2, 17260, Control_c, 0, 64, 127
2, 17269, Control_c, 0, 64, 0
2, 17328, Control_c, 0, 64, 127
2, 17387, Note_off_c, 0, 60, 64
2, 17394, Note_off_c, 0, 75, 64
2, 17399, Note_off_c, 0, 72, 64
2, 17624, Note_on_c, 0, 59, 54
2, 17658, Note_off_c, 0, 67, 64
2, 17709, Note_on_c, 0, 60, 49
2, 17715, Note_off_c, 0, 59, 64
2, 17798, Note_on_c, 0, 62, 40
2, 17812, Control_c, 0, 64, 0
2, 17819, Note_off_c, 0, 60, 64
2, 17874, Note_on_c, 0, 63, 54
2, 17880, Control_c, 0, 64, 0
2, 17889, Note_off_c, 0, 62, 64
2, 17985, Note_on_c, 0, 62, 48
2, 18003, Note_off_c, 0, 63, 64
2, 18034, Control_c, 0, 64, 127
2, 18102, Control_c, 0, 64, 127
2, 18191, Note_on_c, 0, 60, 40
2, 18275, Note_on_c, 0, 67, 47
2, 18275, Note_on_c, 0, 58, 47
2, 18293, Note_off_c, 0, 60, 64
2, 18357, Note_on_c, 0, 66, 51
2, 18357, Note_on_c, 0, 57, 46
2, 18361, Note_on_c, 0, 69, 43
2, 18383, Note_off_c, 0, 58, 64
2, 18383, Note_off_c, 0, 67, 64
2, 18442, Note_on_c, 0, 55, 47
2, 18444, Note_on_c, 0, 70, 59
2, 18444, Note_on_c, 0, 67, 59
2, 18462, Note_off_c, 0, 69, 64
2, 18469, Note_off_c, 0, 57, 64
2, 18469, Note_off_c, 0, 66, 64
2, 18524, Note_on_c, 0, 66, 54
2, 18527, Note_on_c, 0, 72, 54
2, 18527, Note_on_c, 0, 57, 57
2, 18537, Note_off_c, 0, 55, 64
2, 18539, Note_off_c, 0, 67, 64
2, 18539, Note_off_c, 0, 70, 64
2, 18540, Control_c, 0, 64, 0
2, 18580, Control_c, 0, 64, 127
2, 18608, Control_c, 0, 64, 0
2, 18622, Note_off_c, 0, 57, 64
2, 18645, Note_on_c, 0, 50, 52
2, 18648, Control_c, 0, 64, 127
2, 18651, Note_off_c, 0, 66, 64
2, 18658, Note_on_c, 0, 74, 51
2, 18659, Note_off_c, 0, 72, 64
2, 18700, Note_on_c, 0, 72, 49
2, 18704, Note_on_c, 0, 66, 55
2, 18707, Note_on_c, 0, 57, 43
2, 18708, Control_c, 0, 64, 0
2, 18715, Note_off_c, 0, 50, 64
2, 18718, Note_off_c, 0, 74, 64
2, 18766, Control_c, 0, 64, 127
2, 18776, Control_c, 0, 64, 0
2, 18834, Control_c, 0, 64, 127
2, 18897, Note_on_c, 0, 70, 51
2, 18901, Note_on_c, 0, 67, 46
2, 18903, Control_c, 0, 64, 0
2, 18908, Note_on_c, 0, 55, 40
2, 18911, Note_off_c, 0, 72, 64
2, 18914, Note_off_c, 0, 57, 64
2, 18918, Note_off_c, 0, 66, 64
2, 18962, Control_c, 0, 64, 127
2, 18971, Control_c, 0, 64, 0
2, 19030, Control_c, 0, 64, 127
2, 19064, Note_off_c, 0, 70, 64
2, 19078, Control_c, 0, 64, 0
2, 19084, Note_on_c, 0, 57, 37
2, 19085, Note_on_c, 0, 72, 49
2, 19090, Note_off_c, 0, 55, 64
2, 19090, Note_on_c, 0, 66, 46
2, 19098, Note_off_c, 0, 67, 64
2, 19130, Control_c, 0, 64, 127
2, 19146, Control_c, 0, 64, 0
2, 19198, Control_c, 0, 64, 127
2, 19206, Note_off_c, 0, 66, 64
2, 19212, Note_on_c, 0, 74, 43
2, 19219, Note_off_c, 0, 72, 64
2, 19219, Note_on_c, 0, 50, 40
2, 19228, Note_off_c, 0, 57, 64
2, 19254, Note_on_c, 0, 72, 51
2, 19254, Control_c, 0, 64, 0
2, 19258, Note_on_c, 0, 66, 49
2, 19265, Note_off_c, 0, 74, 64
2, 19278, Note_on_c, 0, 57, 46
2, 19303, Control_c, 0, 64, 127
2, 19314, Note_off_c, 0, 50, 64
2, 19322, Control_c, 0, 64, 0
2, 19371, Control_c, 0, 64, 127
2, 19470, Control_c, 0, 64, 0
2, 19476, Note_off_c, 0, 66, 64
2, 19476, Note_on_c, 0, 70, 48
2, 19483, Note_on_c, 0, 55, 47
2, 19483, Note_on_c, 0, 67, 40
2, 19500, Note_off_c, 0, 72, 64
2, 19507, Note_off_c, 0, 57, 64
2, 19529, Control_c, 0, 64, 127
2, 19538, Control_c, 0, 64, 0
2, 19597, Control_c, 0, 64, 127
2, 19716, Note_off_c, 0, 70, 64
2, 19723, Note_off_c, 0, 67, 64
2, 19756, Note_on_c, 0, 63, 42
2, 19756, Note_on_c, 0, 68, 55
2, 19759, Note_on_c, 0, 60, 47
2, 19771, Control_c, 0, 64, 0
2, 19773, Note_off_c, 0, 62, 64
2, 19839, Control_c, 0, 64, 0
2, 20286, Control_c, 0, 64, 127
2, 20299, Note_on_c, 0, 66, 46
2, 20307, Note_off_c, 0, 68, 64
2, 20353, Note_off_c, 0, 63, 64
2, 20354, Control_c, 0, 64, 127
2, 20420, Note_off_c, 0, 60, 64
2, 20641, Note_on_c, 0, 67, 34
2, 20649, Note_on_c, 0, 59, 26
2, 20655, Note_on_c, 0, 62, 26
2, 20660, Note_off_c, 0, 66, 64
2, 20677, Control_c, 0, 64, 0
2, 20731, Control_c, 0, 64, 127
2, 20745, Control_c, 0, 64, 0
2, 20799, Control_c, 0, 64, 127
2, 20959, Note_off_c, 0, 59, 64
2, 20966, Note_on_c, 0, 53, 40
2, 20980, Note_off_c, 0, 62, 64
2, 21050, Note_on_c, 0, 60, 47
2, 21055, Note_on_c, 0, 51, 40
2, 21064, Note_off_c, 0, 53, 64
2, 21101, Note_off_c, 0, 67, 64
2, 21132, Note_on_c, 0, 50, 25
2, 21136, Note_on_c, 0, 59, 42
2, 21139, Note_on_c, 0, 62, 47
2, 21152, Note_off_c, 0, 60, 64
2, 21157, Note_off_c, 0, 51, 64
2, 21212, Note_on_c, 0, 48, 31
2, 21216, Note_on_c, 0, 60, 37
2, 21217, Note_on_c, 0, 63, 37
2, 21244, Note_off_c, 0, 50, 64
2, 21248, Note_off_c, 0, 59, 64
2, 21251, Note_off_c, 0, 62, 64
2, 21310, Note_on_c, 0, 50, 47
2, 21315, Note_on_c, 0, 65, 48
2, 21316, Note_on_c, 0, 59, 37
2, 21317, Control_c, 0, 64, 0
2, 21328, Note_off_c, 0, 48, 64
2, 21332, Note_off_c, 0, 60, 64
2, 21333, Note_off_c, 0, 63, 64
2, 21374, Control_c, 0, 64, 127
2, 21385, Control_c, 0, 64, 0
2, 21438, Note_on_c, 0, 43, 48
2, 21442, Note_off_c, 0, 59, 64
2, 21442, Control_c, 0, 64, 127
2, 21446, Note_on_c, 0, 67, 46
2, 21453, Note_off_c, 0, 50, 64
2, 21456, Note_off_c, 0, 65, 64
2, 21483, Control_c, 0, 64, 0
2, 21492, Note_on_c, 0, 65, 48
2, 21495, Note_on_c, 0, 59, 46
2, 21502, Note_off_c, 0, 67, 64
2, 21505, Note_on_c, 0, 50, 42
2, 21516, Note_off_c, 0, 43, 64
2, 21551, Control_c, 0, 64, 0
2, 21558, Control_c, 0, 64, 127
2, 21626, Control_c, 0, 64, 127
2, 21677, Note_on_c, 0, 48, 43
2, 21679, Note_on_c, 0, 63, 48
2, 21686, Note_off_c, 0, 50, 64
2, 21686, Note_on_c, 0, 60, 48
2, 21692, Control_c, 0, 64, 0
2, 21700, Note_off_c, 0, 65, 64
2, 21709, Note_off_c, 0, 59, 64
2, 21738, Control_c, 0, 64, 127
2, 21760, Control_c, 0, 64, 0
2, 21806, Control_c, 0, 64, 127
2, 21868, Note_off_c, 0, 60, 64
2, 21869, Note_on_c, 0, 65, 48
2, 21873, Note_on_c, 0, 59, 48
2, 21873, Note_on_c, 0, 50, 48
2, 21879, Note_off_c, 0, 48, 64
2, 21882, Control_c, 0, 64, 0
2, 21891, Note_off_c, 0, 63, 64
2, 21916, Control_c, 0, 64, 127
2, 21950, Control_c, 0, 64, 0
2, 21984, Control_c, 0, 64, 127
2, 21990, Note_off_c, 0, 59, 64
2, 21997, Note_off_c, 0, 65, 64
2, 21997, Note_on_c, 0, 67, 42
2, 22003, Note_on_c, 0, 43, 42
2, 22004, Note_off_c, 0, 50, 64
2, 22039, Control_c, 0, 64, 0
2, 22043, Note_on_c, 0, 65, 43
2, 22045, Note_on_c, 0, 59, 48
2, 22050, Note_off_c, 0, 67, 64
2, 22060, Note_on_c, 0, 50, 41
2, 22092, Note_off_c, 0, 43, 64
2, 22101, Control_c, 0, 64, 127
2, 22107, Control_c, 0, 64, 0
2, 22169, Control_c, 0, 64, 127
2, 22284, Note_on_c, 0, 63, 34
2, 22288, Control_c, 0, 64, 0
2, 22292, Note_on_c, 0, 48, 37
2, 22298, Note_on_c, 0, 60, 24
2, 22302, Note_off_c, 0, 50, 64
2, 22309, Note_off_c, 0, 65, 64
2, 22344, Note_off_c, 0, 59, 64
2, 22348, Control_c, 0, 64, 127
2, 22356, Control_c, 0, 64, 0
2, 22416, Control_c, 0, 64, 127
2, 22458, Note_off_c, 0, 63, 64
2, 22460, Note_off_c, 0, 60, 64
2, 22481, Note_off_c, 0, 48, 64
2, 22540, Note_on_c, 0, 48, 48
2, 22546, Note_off_c, 0, 55, 64
2, 22572, Note_on_c, 0, 50, 58
2, 22582, Note_off_c, 0, 48, 64
2, 22590, Control_c, 0, 64, 0
2, 22608, Note_on_c, 0, 48, 66
2, 22632, Note_off_c, 0, 50, 64
2, 22658, Control_c, 0, 64, 0
2, 22667, Note_on_c, 0, 47, 63
2, 22677, Note_off_c, 0, 48, 64
2, 22760, Note_on_c, 0, 48, 63
2, 22783, Note_off_c, 0, 47, 64
2, 22855, Note_on_c, 0, 50, 63
2, 22883, Note_off_c, 0, 48, 64
2, 22932, Note_on_c, 0, 51, 54
2, 22965, Note_off_c, 0, 50, 64
2, 23030, Note_on_c, 0, 50, 63
2, 23040, Note_off_c, 0, 51, 64
2, 23050, Control_c, 0, 64, 127
2, 23116, Note_on_c, 0, 49, 63
2, 23118, Control_c, 0, 64, 127
2, 23119, Note_on_c, 0, 52, 60
2, 23145, Note_off_c, 0, 50, 64
2, 23202, Note_on_c, 0, 54, 69
2, 23207, Note_on_c, 0, 48, 55
2, 23224, Note_off_c, 0, 49, 64
2, 23227, Note_off_c, 0, 52, 64
2, 23286, Note_on_c, 0, 46, 49
2, 23287, Note_on_c, 0, 55, 72
2, 23305, Note_off_c, 0, 54, 64
2, 23310, Note_off_c, 0, 48, 64
2, 23368, Note_on_c, 0, 45, 58
2, 23371, Note_on_c, 0, 57, 59
2, 23371, Note_on_c, 0, 54, 59
2, 23381, Note_off_c, 0, 46, 64
2, 23382, Note_off_c, 0, 55, 64
2, 23407, Control_c, 0, 64, 0
2, 23449, Note_on_c, 0, 55, 78
2, 23452, Note_on_c, 0, 43, 70
2, 23453, Note_on_c, 0, 58, 78
2, 23463, Note_off_c, 0, 45, 64
2, 23466, Note_off_c, 0, 54, 64
2, 23466, Note_off_c, 0, 57, 64
2, 23475, Control_c, 0, 64, 0
2, 23542, Note_on_c, 0, 57, 64
2, 23545, Note_off_c, 0, 55, 64
2, 23545, Note_on_c, 0, 53, 75
2, 23548, Note_off_c, 0, 43, 64
2, 23548, Note_on_c, 0, 45, 83
2, 23549, Note_off_c, 0, 58, 64
2, 23578, Control_c, 0, 64, 127
2, 23631, Note_off_c, 0, 45, 64
2, 23635, Note_off_c, 0, 53, 64
2, 23646, Control_c, 0, 64, 127
2, 23647, Note_off_c, 0, 57, 64
2, 23662, Note_on_c, 0, 61, 74
2, 23667, Note_on_c, 0, 52, 82
2, 23669, Note_on_c, 0, 33, 74
2, 23716, Note_on_c, 0, 62, 80
2, 23716, Note_on_c, 0, 38, 88
2, 23720, Note_on_c, 0, 50, 88
2, 23728, Note_off_c, 0, 61, 64
2, 23733, Note_off_c, 0, 52, 64
2, 23740, Note_off_c, 0, 33, 64
2, 23741, Control_c, 0, 64, 0
2, 23809, Control_c, 0, 64, 0
2, 23876, Control_c, 0, 64, 127
2, 23911, Note_off_c, 0, 62, 64
2, 23924, Note_off_c, 0, 38, 64
2, 23928, Note_off_c, 0, 50, 64
2, 23944, Control_c, 0, 64, 127
2, 24134, Note_on_c, 0, 69, 57
2, 24140, Note_on_c, 0, 65, 55
2, 24141, Note_on_c, 0, 57, 57
2, 24141, Control_c, 0, 64, 0
2, 24150, Note_on_c, 0, 50, 32
2, 24179, Control_c, 0, 64, 127
2, 24209, Control_c, 0, 64, 0
2, 24247, Control_c, 0, 64, 127
2, 24269, Note_on_c, 0, 73, 63
2, 24272, Note_on_c, 0, 64, 65
2, 24277, Note_off_c, 0, 69, 64
2, 24278, Note_on_c, 0, 55, 59
2, 24283, Note_off_c, 0, 65, 64
2, 24284, Note_off_c, 0, 57, 64
2, 24327, Note_on_c, 0, 74, 70
2, 24328, Note_on_c, 0, 53, 57
2, 24333, Note_on_c, 0, 62, 72
2, 24341, Note_off_c, 0, 64, 64
2, 24341, Note_off_c, 0, 73, 64
2, 24347, Note_off_c, 0, 55, 64
2, 24353, Control_c, 0, 64, 0
2, 24421, Control_c, 0, 64, 0
2, 24481, Control_c, 0, 64, 127
2, 24549, Control_c, 0, 64, 127
2, 24615, Note_off_c, 0, 74, 64
2, 24616, Note_off_c, 0, 53, 64
2, 24621, Note_off_c, 0, 62, 64
2, 24794, Control_c, 0, 64, 0
2, 24799, Note_on_c, 0, 57, 40
2, 24807, Note_on_c, 0, 69, 43
2, 24808, Note_on_c, 0, 65, 42
2, 24845, Control_c, 0, 64, 127
2, 24862, Control_c, 0, 64, 0
2, 24913, Control_c, 0, 64, 127
2, 24988, Note_on_c, 0, 64, 57
2, 24992, Note_on_c, 0, 73, 54
2, 24992, Note_on_c, 0, 55, 35
2, 25011, Note_off_c, 0, 57, 64
2, 25019, Note_off_c, 0, 69, 64
2, 25020, Note_off_c, 0, 65, 64
2, 25060, Note_on_c, 0, 74, 51
2, 25064, Note_on_c, 0, 62, 48
2, 25064, Note_on_c, 0, 53, 48
2, 25070, Note_off_c, 0, 64, 64
2, 25074, Note_off_c, 0, 55, 64
2, 25074, Note_off_c, 0, 73, 64
2, 25080, Control_c, 0, 64, 0
2, 25148, Control_c, 0, 64, 0
2, 25194, Control_c, 0, 64, 127
2, 25262, Control_c, 0, 64, 127
2, 25484, Note_off_c, 0, 74, 64
2, 25488, Note_off_c, 0, 53, 64
2, 25488, Note_off_c, 0, 62, 64
2, 25489, Note_on_c, 0, 69, 36
2, 25492, Control_c, 0, 64, 0
2, 25498, Note_on_c, 0, 57, 32
2, 25538, Control_c, 0, 64, 127
2, 25560, Control_c, 0, 64, 0
2, 25591, Note_off_c, 0, 69, 64
2, 25596, Note_on_c, 0, 72, 40
2, 25596, Note_on_c, 0, 60, 40
2, 25603, Note_off_c, 0, 57, 64
2, 25606, Control_c, 0, 64, 127
2, 25629, Note_off_c, 0, 72, 64
2, 25693, Note_on_c, 0, 72, 46
2, 25731, Note_on_c, 0, 70, 41
2, 25731, Note_on_c, 0, 58, 32
2, 25743, Note_off_c, 0, 60, 64
2, 25744, Note_off_c, 0, 72, 64
2, 25766, Control_c, 0, 64, 0
2, 25768, Note_on_c, 0, 72, 51
2, 25776, Note_off_c, 0, 70, 64
2, 25806, Note_on_c, 0, 70, 51
2, 25825, Note_off_c, 0, 72, 64
2, 25834, Control_c, 0, 64, 0
2, 25835, Control_c, 0, 64, 127
2, 25887, Note_on_c, 0, 69, 49
2, 25891, Note_off_c, 0, 70, 64
2, 25901, Note_on_c, 0, 57, 46
2, 25903, Control_c, 0, 64, 127
2, 25905, Note_off_c, 0, 58, 64
2, 25914, Control_c, 0, 64, 0
2, 25978, Note_on_c, 0, 67, 51
2, 25980, Note_on_c, 0, 55, 40
2, 25982, Control_c, 0, 64, 0
2, 25986, Note_off_c, 0, 57, 64
2, 25989, Note_off_c, 0, 69, 64
2, 26068, Note_on_c, 0, 69, 43
2, 26071, Note_off_c, 0, 67, 64
2, 26071, Note_on_c, 0, 57, 47
2, 26080, Note_off_c, 0, 55, 64
2, 26211, Note_on_c, 0, 64, 40
2, 26226, Note_on_c, 0, 52, 40
2, 26229, Note_off_c, 0, 69, 64
2, 26258, Note_on_c, 0, 65, 47
2, 26264, Note_on_c, 0, 53, 36
2, 26270, Note_off_c, 0, 52, 64
2, 26274, Note_off_c, 0, 64, 64
2, 26396, Note_off_c, 0, 50, 64
2, 26434, Note_on_c, 0, 50, 41
2, 26440, Note_off_c, 0, 65, 64
2, 26441, Note_on_c, 0, 62, 41
2, 26448, Note_off_c, 0, 53, 64
2, 26455, Note_off_c, 0, 57, 64
2, 26478, Control_c, 0, 64, 127
2, 26546, Control_c, 0, 64, 127
2, 26602, Note_off_c, 0, 62, 64
2, 26612, Control_c, 0, 64, 0
2, 26617, Note_on_c, 0, 69, 46
2, 26622, Note_on_c, 0, 57, 34
2, 26660, Control_c, 0, 64, 127
2, 26680, Control_c, 0, 64, 0
2, 26712, Note_on_c, 0, 72, 46
2, 26713, Note_off_c, 0, 69, 64
2, 26720, Note_on_c, 0, 60, 36
2, 26728, Control_c, 0, 64, 127
2, 26736, Note_off_c, 0, 57, 64
2, 26748, Note_off_c, 0, 72, 64
2, 26801, Note_on_c, 0, 72, 51
2, 26817, Control_c, 0, 64, 0
2, 26824, Note_on_c, 0, 58, 31
2, 26838, Note_on_c, 0, 70, 43
2, 26848, Note_off_c, 0, 72, 64
2, 26856, Note_off_c, 0, 60, 64
2, 26872, Note_on_c, 0, 72, 51
2, 26877, Note_off_c, 0, 70, 64
2, 26885, Control_c, 0, 64, 0
2, 26913, Note_on_c, 0, 70, 48
2, 26926, Note_off_c, 0, 72, 64
2, 26982, Note_on_c, 0, 69, 48
2, 26987, Note_off_c, 0, 70, 64
2, 26990, Note_on_c, 0, 57, 43
2, 26992, Note_off_c, 0, 58, 64
2, 27070, Note_on_c, 0, 67, 47
2, 27079, Note_on_c, 0, 55, 37
2, 27083, Note_off_c, 0, 69, 64
2, 27089, Note_off_c, 0, 57, 64
2, 27162, Note_on_c, 0, 57, 40
2, 27167, Note_on_c, 0, 69, 42
2, 27170, Note_off_c, 0, 55, 64
2, 27174, Note_off_c, 0, 67, 64
2, 27301, Note_on_c, 0, 64, 42
2, 27316, Note_on_c, 0, 52, 26
2, 27324, Note_off_c, 0, 69, 64
2, 27341, Note_on_c, 0, 65, 43
2, 27357, Note_on_c, 0, 53, 25
2, 27361, Note_off_c, 0, 64, 64
2, 27365, Note_off_c, 0, 52, 64
2, 27519, Note_off_c, 0, 50, 64
2, 27537, Note_on_c, 0, 62, 37
2, 27540, Note_on_c, 0, 50, 37
2, 27545, Note_off_c, 0, 65, 64
2, 27558, Note_off_c, 0, 53, 64
2, 27593, Note_off_c, 0, 57, 64
2, 27637, Control_c, 0, 64, 127
2, 27705, Control_c, 0, 64, 127
2, 27710, Control_c, 0, 64, 0
2, 27738, Note_on_c, 0, 57, 32
2, 27738, Note_on_c, 0, 69, 36
2, 27750, Note_off_c, 0, 62, 64
2, 27778, Control_c, 0, 64, 0
2, 27779, Control_c, 0, 64, 127
2, 27847, Control_c, 0, 64, 127
2, 27899, Note_on_c, 0, 64, 35
2, 27903, Note_on_c, 0, 52, 25
2, 27931, Control_c, 0, 64, 0
2, 27936, Note_off_c, 0, 69, 64
2, 27948, Note_on_c, 0, 53, 36
2, 27953, Note_on_c, 0, 65, 32
2, 27969, Note_off_c, 0, 64, 64
2, 27973, Note_off_c, 0, 52, 64
2, 27983, Control_c, 0, 64, 127
2, 27999, Control_c, 0, 64, 0
2, 28051, Control_c, 0, 64, 127
2, 28141, Note_off_c, 0, 50, 64
2, 28142, Control_c, 0, 64, 0
2, 28165, Note_on_c, 0, 62, 32
2, 28169, Note_on_c, 0, 50, 26
2, 28175, Note_off_c, 0, 53, 64
2, 28176, Note_off_c, 0, 65, 64
2, 28204, Control_c, 0, 64, 127
2, 28210, Control_c, 0, 64, 0
2, 28231, Note_off_c, 0, 57, 64
2, 28272, Control_c, 0, 64, 127
2, 28389, Note_on_c, 0, 57, 26
2, 28398, Control_c, 0, 64, 0
2, 28401, Note_on_c, 0, 69, 32
2, 28415, Note_off_c, 0, 62, 64
2, 28466, Control_c, 0, 64, 0
2, 28467, Control_c, 0, 64, 127
2, 28535, Control_c, 0, 64, 127
2, 28588, Note_on_c, 0, 52, 19
2, 28589, Note_on_c, 0, 64, 26
2, 28615, Control_c, 0, 64, 0
2, 28647, Note_off_c, 0, 69, 64
2, 28657, Note_on_c, 0, 65, 29
2, 28659, Note_on_c, 0, 53, 31
2, 28669, Note_off_c, 0, 52, 64
2, 28670, Note_off_c, 0, 64, 64
2, 28683, Control_c, 0, 64, 0
2, 28686, Control_c, 0, 64, 127
2, 28754, Control_c, 0, 64, 127
2, 28880, Note_off_c, 0, 50, 64
2, 28921, Control_c, 0, 64, 0
2, 28925, Note_on_c, 0, 62, 31
2, 28929, Note_on_c, 0, 50, 32
2, 28942, Note_off_c, 0, 65, 64
2, 28945, Note_off_c, 0, 53, 64
2, 28983, Control_c, 0, 64, 127
2, 28989, Control_c, 0, 64, 0
2, 29051, Control_c, 0, 64, 127
2, 29140, Note_off_c, 0, 62, 64
2, 29154, Note_off_c, 0, 57, 64
2, 29322, Note_on_c, 0, 74, 32
2, 29327, Note_on_c, 0, 62, 23
2, 29360, Note_off_c, 0, 50, 64
2, 29366, Control_c, 0, 64, 0
2, 29434, Control_c, 0, 64, 0
2, 29438, Control_c, 0, 64, 127
2, 29506, Control_c, 0, 64, 127
2, 29786, Note_off_c, 0, 74, 64
2, 29805, Note_off_c, 0, 62, 64
2, 30004, Note_on_c, 0, 62, 40
2, 30018, Control_c, 0, 64, 0
2, 30051, Control_c, 0, 64, 127
2, 30086, Control_c, 0, 64, 0
2, 30092, Note_off_c, 0, 62, 64
2, 30119, Control_c, 0, 64, 127
2, 30146, Note_on_c, 0, 62, 59
2, 30179, Note_off_c, 0, 62, 64
2, 30202, Note_on_c, 0, 62, 64
2, 30215, Control_c, 0, 64, 0
2, 30251, Control_c, 0, 64, 127
2, 30283, Control_c, 0, 64, 0
2, 30319, Control_c, 0, 64, 127
2, 30384, Note_off_c, 0, 62, 64
2, 30428, Note_on_c, 0, 62, 63
2, 30447, Control_c, 0, 64, 0
2, 30489, Control_c, 0, 64, 127
2, 30515, Control_c, 0, 64, 0
2, 30557, Control_c, 0, 64, 127
2, 30621, Note_off_c, 0, 62, 64
2, 30675, Note_on_c, 0, 62, 71
2, 30690, Control_c, 0, 64, 0
2, 30736, Control_c, 0, 64, 127
2, 30758, Control_c, 0, 64, 0
2, 30804, Control_c, 0, 64, 127
2, 30909, Control_c, 0, 64, 0
2, 30918, Note_on_c, 0, 56, 40
2, 30922, Note_on_c, 0, 46, 48
2, 30957, Control_c, 0, 64, 127
2, 30977, Control_c, 0, 64, 0
2, 31025, Control_c, 0, 64, 127
2, 31150, Note_on_c, 0, 63, 64
2, 31150, Note_on_c, 0, 55, 58
2, 31157, Note_off_c, 0, 56, 64
2, 31160, Note_on_c, 0, 39, 57
2, 31168, Control_c, 0, 64, 0
2, 31187, Note_off_c, 0, 62, 64
2, 31199, Note_off_c, 0, 46, 64
2, 31207, Control_c, 0, 64, 127
2, 31236, Control_c, 0, 64, 0
2, 31275, Control_c, 0, 64, 127
2, 31384, Note_on_c, 0, 67, 63
2, 31390, Note_on_c, 0, 61, 60
2, 31393, Note_on_c, 0, 51, 70
2, 31406, Note_off_c, 0, 55, 64
2, 31406, Note_off_c, 0, 63, 64
2, 31409, Control_c, 0, 64, 0
2, 31441, Control_c, 0, 64, 127
2, 31446, Note_off_c, 0, 39, 64
2, 31477, Control_c, 0, 64, 0
2, 31509, Control_c, 0, 64, 127
2, 31550, Note_on_c, 0, 56, 77
2, 31554, Note_on_c, 0, 65, 60
2, 31573, Note_off_c, 0, 67, 64
2, 31582, Note_off_c, 0, 51, 64
2, 31609, Note_off_c, 0, 61, 64
2, 31612, Note_on_c, 0, 63, 63
2, 31619, Note_on_c, 0, 61, 59
2, 31624, Note_off_c, 0, 65, 64
2, 31624, Note_on_c, 0, 51, 46
2, 31624, Note_on_c, 0, 55, 57
2, 31636, Note_off_c, 0, 56, 64
2, 31641, Control_c, 0, 64, 0
2, 31709, Control_c, 0, 64, 0
2, 31734, Control_c, 0, 64, 127
2, 31791, Note_off_c, 0, 55, 64
2, 31801, Note_off_c, 0, 61, 64
2, 31802, Control_c, 0, 64, 127
2, 31806, Note_off_c, 0, 63, 64
2, 31841, Note_off_c, 0, 51, 64
2, 31946, Note_on_c, 0, 61, 52
2, 31948, Note_on_c, 0, 56, 52
2, 31949, Note_on_c, 0, 51, 52
2, 31950, Note_on_c, 0, 65, 57
2, 31958, Note_on_c, 0, 61, 52
2, 31990, Note_off_c, 0, 61, 64
2, 32002, Note_off_c, 0, 61, 64
2, 32023, Note_off_c, 0, 51, 64
2, 32040, Note_on_c, 0, 67, 66
2, 32041, Note_on_c, 0, 61, 64
2, 32044, Note_on_c, 0, 58, 74
2, 32048, Note_on_c, 0, 51, 60
2, 32050, Control_c, 0, 64, 0
2, 32053, Note_off_c, 0, 56, 64
2, 32055, Note_off_c, 0, 65, 64
2, 32083, Control_c, 0, 64, 127
2, 32118, Control_c, 0, 64, 0
2, 32151, Control_c, 0, 64, 127
2, 32154, Note_off_c, 0, 67, 64
2, 32157, Note_off_c, 0, 61, 64
2, 32164, Note_off_c, 0, 51, 64
2, 32176, Note_on_c, 0, 51, 52
2, 32180, Note_on_c, 0, 60, 64
2, 32181, Note_on_c, 0, 68, 69
2, 32181, Note_on_c, 0, 63, 64
2, 32191, Note_off_c, 0, 58, 64
2, 32222, Note_off_c, 0, 51, 64
2, 32240, Note_on_c, 0, 65, 60
2, 32240, Note_on_c, 0, 61, 74
2, 32240, Note_on_c, 0, 51, 64
2, 32244, Note_off_c, 0, 63, 64
2, 32244, Note_on_c, 0, 70, 54
2, 32246, Note_off_c, 0, 68, 64
2, 32247, Note_off_c, 0, 60, 64
2, 32256, Control_c, 0, 64, 0
2, 32287, Control_c, 0, 64, 127
2, 32324, Control_c, 0, 64, 0
2, 32355, Control_c, 0, 64, 127
2, 32406, Note_off_c, 0, 51, 64
2, 32441, Note_on_c, 0, 72, 70
2, 32450, Note_on_c, 0, 51, 57
2, 32452, Note_on_c, 0, 67, 66
2, 32454, Note_on_c, 0, 63, 72
2, 32462, Control_c, 0, 64, 0
2, 32466, Note_off_c, 0, 61, 64
2, 32466, Note_off_c, 0, 65, 64
2, 32467, Note_off_c, 0, 70, 64
2, 32475, Control_c, 0, 64, 127
2, 32530, Control_c, 0, 64, 0
2, 32543, Control_c, 0, 64, 127
2, 32615, Note_off_c, 0, 51, 64
2, 32640, Note_on_c, 0, 68, 59
2, 32642, Note_on_c, 0, 65, 65
2, 32646, Note_on_c, 0, 73, 71
2, 32652, Note_on_c, 0, 51, 58
2, 32652, Control_c, 0, 64, 0
2, 32657, Note_off_c, 0, 63, 64
2, 32666, Control_c, 0, 64, 127
2, 32667, Note_off_c, 0, 72, 64
2, 32667, Note_off_c, 0, 67, 64
2, 32720, Control_c, 0, 64, 0
2, 32734, Control_c, 0, 64, 127
2, 32736, Note_off_c, 0, 65, 64
2, 32739, Note_off_c, 0, 68, 64
2, 32751, Note_off_c, 0, 51, 64
2, 32762, Note_off_c, 0, 73, 64
2, 32776, Note_on_c, 0, 67, 65
2, 32786, Note_on_c, 0, 77, 64
2, 32791, Note_on_c, 0, 61, 77
2, 32791, Note_on_c, 0, 51, 57
2, 32832, Note_off_c, 0, 51, 64
2, 32835, Note_off_c, 0, 61, 64
2, 32839, Note_off_c, 0, 67, 64
2, 32845, Note_on_c, 0, 75, 77
2, 32845, Note_on_c, 0, 56, 69
2, 32848, Note_on_c, 0, 67, 66
2, 32848, Note_on_c, 0, 61, 51
2, 32850, Note_off_c, 0, 77, 64
2, 32860, Control_c, 0, 64, 0
2, 32928, Control_c, 0, 64, 0
2, 32938, Control_c, 0, 64, 127
2, 33006, Control_c, 0, 64, 127
2, 33009, Note_off_c, 0, 61, 64
2, 33127, Note_on_c, 0, 60, 57
2, 33134, Note_on_c, 0, 68, 64
2, 33147, Control_c, 0, 64, 0
2, 33157, Note_off_c, 0, 75, 64
2, 33160, Note_off_c, 0, 67, 64
2, 33213, Control_c, 0, 64, 127
2, 33215, Control_c, 0, 64, 0
2, 33281, Control_c, 0, 64, 127
2, 33318, Note_off_c, 0, 68, 64
2, 33328, Note_off_c, 0, 60, 64
2, 33353, Note_off_c, 0, 56, 64
2, 33435, Note_on_c, 0, 65, 75
2, 33464, Control_c, 0, 64, 0
2, 33516, Control_c, 0, 64, 127
2, 33532, Control_c, 0, 64, 0
2, 33584, Control_c, 0, 64, 127
2, 33699, Note_on_c, 0, 63, 66
2, 33706, Note_on_c, 0, 57, 63
2, 33713, Note_on_c, 0, 53, 52
2, 33717, Control_c, 0, 64, 0
2, 33760, Control_c, 0, 64, 127
2, 33785, Control_c, 0, 64, 0
2, 33828, Control_c, 0, 64, 127
2, 33897, Note_off_c, 0, 63, 64
2, 33903, Note_on_c, 0, 67, 66
2, 33910, Note_on_c, 0, 58, 85
2, 33914, Note_off_c, 0, 65, 64
2, 33915, Note_on_c, 0, 63, 82
2, 33917, Control_c, 0, 64, 0
2, 33925, Note_on_c, 0, 41, 42
2, 33933, Note_off_c, 0, 57, 64
2, 33942, Control_c, 0, 64, 127
2, 33985, Control_c, 0, 64, 0
2, 34010, Control_c, 0, 64, 127
2, 34015, Note_off_c, 0, 53, 64
2, 34097, Note_off_c, 0, 63, 64
2, 34104, Note_off_c, 0, 58, 64
2, 34115, Control_c, 0, 64, 0
2, 34119, Note_on_c, 0, 29, 66
2, 34123, Note_on_c, 0, 69, 72
2, 34126, Note_on_c, 0, 63, 66
2, 34126, Note_on_c, 0, 60, 70
2, 34142, Note_off_c, 0, 67, 64
2, 34148, Note_off_c, 0, 41, 64
2, 34155, Control_c, 0, 64, 127
2, 34183, Control_c, 0, 64, 0
2, 34199, Note_off_c, 0, 60, 64
2, 34209, Note_off_c, 0, 63, 64
2, 34212, Note_off_c, 0, 69, 64
2, 34223, Control_c, 0, 64, 127
2, 34280, Note_on_c, 0, 63, 59
2, 34281, Note_on_c, 0, 67, 57
2, 34284, Note_on_c, 0, 60, 58
2, 34284, Note_on_c, 0, 58, 55
2, 34284, Note_on_c, 0, 53, 52
2, 34319, Note_off_c, 0, 63, 64
2, 34320, Note_off_c, 0, 53, 64
2, 34323, Note_off_c, 0, 60, 64
2, 34332, Note_on_c, 0, 65, 72
2, 34335, Control_c, 0, 64, 0
2, 34339, Note_on_c, 0, 63, 70
2, 34340, Note_on_c, 0, 57, 66
2, 34342, Note_on_c, 0, 60, 70
2, 34344, Note_on_c, 0, 53, 66
2, 34347, Note_off_c, 0, 67, 64
2, 34351, Note_off_c, 0, 58, 64
2, 34355, Control_c, 0, 64, 0
2, 34399, Note_off_c, 0, 29, 64
2, 34403, Control_c, 0, 64, 0
2, 34423, Control_c, 0, 64, 0
2, 34430, Control_c, 0, 64, 127
2, 34473, Note_off_c, 0, 60, 64
2, 34489, Note_off_c, 0, 63, 64
2, 34495, Note_off_c, 0, 65, 64
2, 34498, Control_c, 0, 64, 127
2, 34503, Note_off_c, 0, 57, 64
2, 34507, Note_off_c, 0, 53, 64
2, 34632, Note_on_c, 0, 67, 60
2, 34632, Note_on_c, 0, 63, 64
2, 34632, Note_on_c, 0, 60, 59
2, 34632, Note_on_c, 0, 58, 59
2, 34632, Note_on_c, 0, 53, 48
2, 34709, Note_off_c, 0, 53, 64
2, 34717, Note_off_c, 0, 60, 64
2, 34720, Note_off_c, 0, 63, 64
2, 34721, Control_c, 0, 64, 0
2, 34728, Note_on_c, 0, 63, 65
2, 34728, Note_on_c, 0, 65, 65
2, 34730, Note_on_c, 0, 53, 60
2, 34730, Note_on_c, 0, 69, 72
2, 34735, Note_off_c, 0, 58, 64
2, 34735, Note_off_c, 0, 67, 64
2, 34735, Note_on_c, 0, 60, 63
2, 34737, Control_c, 0, 64, 0
2, 34761, Control_c, 0, 64, 127
2, 34789, Control_c, 0, 64, 0
2, 34805, Control_c, 0, 64, 0
2, 34829, Control_c, 0, 64, 127
2, 34833, Note_off_c, 0, 65, 64
2, 34833, Note_off_c, 0, 63, 64
2, 34850, Note_off_c, 0, 69, 64
2, 34851, Note_off_c, 0, 53, 64
2, 34862, Note_on_c, 0, 53, 65
2, 34864, Note_on_c, 0, 70, 66
2, 34864, Note_on_c, 0, 65, 64
2, 34871, Note_on_c, 0, 62, 60
2, 34886, Note_off_c, 0, 60, 64
2, 34902, Note_off_c, 0, 53, 64
2, 34912, Control_c, 0, 64, 0
2, 34914, Note_off_c, 0, 70, 64
2, 34923, Note_on_c, 0, 67, 71
2, 34924, Note_on_c, 0, 72, 70
2, 34924, Note_on_c, 0, 70, 74
2, 34924, Note_on_c, 0, 63, 72
2, 34924, Note_on_c, 0, 53, 72
2, 34931, Note_off_c, 0, 65, 64
2, 34935, Control_c, 0, 64, 127
2, 34938, Note_off_c, 0, 62, 64
2, 34967, Control_c, 0, 64, 127
2, 34980, Control_c, 0, 64, 0
2, 35003, Control_c, 0, 64, 127
2, 35035, Control_c, 0, 64, 127
2, 35117, Note_on_c, 0, 69, 70
2, 35119, Note_on_c, 0, 74, 72
2, 35123, Note_off_c, 0, 53, 64
2, 35123, Control_c, 0, 64, 0
2, 35128, Note_on_c, 0, 53, 58
2, 35130, Note_on_c, 0, 65, 59
2, 35141, Note_off_c, 0, 67, 64
2, 35142, Note_off_c, 0, 63, 64
2, 35142, Note_off_c, 0, 70, 64
2, 35142, Note_off_c, 0, 72, 64
2, 35152, Control_c, 0, 64, 127
2, 35191, Control_c, 0, 64, 0
2, 35220, Control_c, 0, 64, 127
2, 35306, Note_off_c, 0, 53, 64
2, 35308, Note_on_c, 0, 70, 66
2, 35308, Note_on_c, 0, 67, 52
2, 35310, Note_on_c, 0, 75, 66
2, 35314, Control_c, 0, 64, 0
2, 35320, Note_on_c, 0, 53, 52
2, 35327, Note_off_c, 0, 69, 64
2, 35329, Note_off_c, 0, 74, 64
2, 35333, Control_c, 0, 64, 127
2, 35340, Note_off_c, 0, 65, 64
2, 35382, Control_c, 0, 64, 0
2, 35401, Control_c, 0, 64, 127
2, 35402, Note_off_c, 0, 67, 64
2, 35407, Note_off_c, 0, 70, 64
2, 35422, Note_off_c, 0, 53, 64
2, 35430, Note_off_c, 0, 75, 64
2, 35438, Note_on_c, 0, 53, 66
2, 35444, Note_on_c, 0, 69, 72
2, 35445, Note_on_c, 0, 63, 64
2, 35448, Note_on_c, 0, 79, 63
2, 35451, Control_c, 0, 64, 0
2, 35489, Note_off_c, 0, 63, 64
2, 35490, Note_off_c, 0, 69, 64
2, 35506, Note_on_c, 0, 58, 77
2, 35510, Note_off_c, 0, 53, 64
2, 35512, Note_on_c, 0, 63, 60
2, 35512, Note_on_c, 0, 69, 72
2, 35514, Note_on_c, 0, 77, 72
2, 35519, Control_c, 0, 64, 0
2, 35521, Note_off_c, 0, 79, 64
2, 35539, Control_c, 0, 64, 0
2, 35602, Control_c, 0, 64, 127
2, 35607, Control_c, 0, 64, 0
2, 35670, Control_c, 0, 64, 127
2, 35800, Note_on_c, 0, 70, 63
2, 35802, Note_on_c, 0, 62, 52
2, 35811, Control_c, 0, 64, 0
2, 35817, Note_off_c, 0, 69, 64
2, 35823, Note_off_c, 0, 63, 64
2, 35825, Note_off_c, 0, 77, 64
2, 35867, Control_c, 0, 64, 127
2, 35879, Control_c, 0, 64, 0
2, 35935, Control_c, 0, 64, 127
2, 35969, Note_off_c, 0, 62, 64
2, 36013, Note_off_c, 0, 58, 64
2, 36028, Note_off_c, 0, 70, 64
2, 36103, Note_on_c, 0, 70, 72
2, 36110, Note_on_c, 0, 54, 54
2, 36118, Note_on_c, 0, 61, 31
2, 36121, Note_on_c, 0, 64, 32
2, 36129, Control_c, 0, 64, 0
2, 36172, Control_c, 0, 64, 127
2, 36197, Control_c, 0, 64, 0
2, 36200, Note_off_c, 0, 64, 64
2, 36208, Note_off_c, 0, 61, 64
2, 36217, Note_off_c, 0, 54, 64
2, 36240, Control_c, 0, 64, 127
2, 36397, Note_on_c, 0, 42, 57
2, 36420, Control_c, 0, 64, 0
2, 36473, Control_c, 0, 64, 127
2, 36488, Control_c, 0, 64, 0
2, 36496, Note_on_c, 0, 71, 48
2, 36504, Note_off_c, 0, 70, 64
2, 36541, Control_c, 0, 64, 127
2, 36602, Note_on_c, 0, 73, 48
2, 36616, Note_off_c, 0, 71, 64
2, 36694, Note_on_c, 0, 75, 57
2, 36704, Note_off_c, 0, 73, 64
2, 36767, Note_off_c, 0, 42, 64
2, 36797, Note_on_c, 0, 76, 64
2, 36805, Note_off_c, 0, 75, 64
2, 36887, Note_on_c, 0, 80, 72
2, 36897, Note_off_c, 0, 76, 64
2, 36988, Note_on_c, 0, 54, 59
2, 36988, Note_on_c, 0, 78, 63
2, 37008, Note_off_c, 0, 80, 64
2, 37024, Control_c, 0, 64, 0
2, 37085, Control_c, 0, 64, 127
2, 37092, Control_c, 0, 64, 0
2, 37153, Control_c, 0, 64, 127
2, 37221, Note_on_c, 0, 70, 70
2, 37225, Note_on_c, 0, 61, 63
2, 37238, Control_c, 0, 64, 0
2, 37245, Note_off_c, 0, 78, 64
2, 37263, Control_c, 0, 64, 127
2, 37306, Control_c, 0, 64, 0
2, 37331, Control_c, 0, 64, 127
2, 37424, Note_on_c, 0, 64, 42
2, 37425, Note_on_c, 0, 73, 71
2, 37454, Note_off_c, 0, 70, 64
2, 37458, Note_off_c, 0, 61, 64
2, 37503, Note_off_c, 0, 73, 64
2, 37503, Note_on_c, 0, 68, 64
2, 37504, Note_off_c, 0, 64, 64
2, 37509, Note_on_c, 0, 76, 70
2, 37592, Note_on_c, 0, 75, 66
2, 37600, Note_on_c, 0, 66, 63
2, 37620, Note_off_c, 0, 68, 64
2, 37626, Note_off_c, 0, 76, 64
2, 37769, Control_c, 0, 64, 0
2, 37780, Note_on_c, 0, 68, 71
2, 37780, Note_on_c, 0, 59, 63
2, 37791, Note_off_c, 0, 75, 64
2, 37799, Note_off_c, 0, 66, 64
2, 37818, Control_c, 0, 64, 127
2, 37837, Control_c, 0, 64, 0
2, 37886, Control_c, 0, 64, 127
2, 37976, Note_on_c, 0, 65, 48
2, 37977, Note_on_c, 0, 62, 51
2, 37984, Note_on_c, 0, 71, 66
2, 37997, Note_off_c, 0, 59, 64
2, 37997, Note_off_c, 0, 68, 64
2, 38030, Note_on_c, 0, 73, 63
2, 38042, Note_off_c, 0, 71, 64
2, 38092, Note_on_c, 0, 71, 58
2, 38104, Note_off_c, 0, 73, 64
2, 38176, Note_off_c, 0, 71, 64
2, 38176, Note_on_c, 0, 70, 66
2, 38181, Note_on_c, 0, 66, 48
2, 38184, Note_on_c, 0, 61, 31
2, 38191, Control_c, 0, 64, 0
2, 38199, Note_off_c, 0, 65, 64
2, 38200, Note_off_c, 0, 62, 64
2, 38235, Control_c, 0, 64, 127
2, 38259, Control_c, 0, 64, 0
2, 38303, Control_c, 0, 64, 127
2, 38329, Note_off_c, 0, 54, 64
2, 38383, Control_c, 0, 64, 0
2, 38393, Note_on_c, 0, 54, 42
2, 38410, Control_c, 0, 64, 127
2, 38429, Note_off_c, 0, 66, 64
2, 38432, Note_off_c, 0, 61, 64
2, 38451, Control_c, 0, 64, 0
2, 38464, Note_on_c, 0, 68, 59
2, 38478, Note_off_c, 0, 70, 64
2, 38478, Control_c, 0, 64, 127
2, 38563, Note_on_c, 0, 66, 63
2, 38564, Note_on_c, 0, 64, 47
2, 38564, Note_on_c, 0, 58, 47
2, 38570, Control_c, 0, 64, 0
2, 38585, Note_off_c, 0, 68, 64
2, 38612, Control_c, 0, 64, 127
2, 38628, Note_off_c, 0, 54, 64
2, 38638, Control_c, 0, 64, 0
2, 38665, Note_on_c, 0, 68, 63
2, 38680, Control_c, 0, 64, 127
2, 38690, Note_off_c, 0, 66, 64
2, 38731, Note_off_c, 0, 58, 64
2, 38731, Note_off_c, 0, 64, 64
2, 38752, Note_on_c, 0, 42, 48
2, 38757, Note_on_c, 0, 70, 48
2, 38764, Control_c, 0, 64, 0
2, 38770, Note_off_c, 0, 68, 64
2, 38809, Control_c, 0, 64, 127
2, 38832, Control_c, 0, 64, 0
2, 38839, Note_on_c, 0, 71, 66
2, 38845, Note_off_c, 0, 70, 64
2, 38877, Control_c, 0, 64, 127
2, 38916, Note_on_c, 0, 73, 64
2, 38927, Control_c, 0, 64, 0
2, 38946, Note_off_c, 0, 42, 64
2, 38960, Note_off_c, 0, 71, 64
2, 38960, Control_c, 0, 64, 127
2, 38995, Control_c, 0, 64, 0
2, 39002, Note_on_c, 0, 75, 63
2, 39024, Note_off_c, 0, 73, 64
2, 39028, Control_c, 0, 64, 127
2, 39096, Note_on_c, 0, 76, 64
2, 39110, Note_off_c, 0, 75, 64
2, 39181, Note_on_c, 0, 80, 64
2, 39199, Note_off_c, 0, 76, 64
2, 39263, Note_on_c, 0, 54, 52
2, 39263, Note_on_c, 0, 78, 64
2, 39278, Control_c, 0, 64, 0
2, 39279, Note_off_c, 0, 80, 64
2, 39340, Control_c, 0, 64, 127
2, 39346, Control_c, 0, 64, 0
2, 39408, Control_c, 0, 64, 127
2, 39452, Note_on_c, 0, 61, 41
2, 39453, Note_on_c, 0, 70, 63
2, 39499, Note_off_c, 0, 78, 64
2, 39626, Note_on_c, 0, 64, 52
2, 39631, Note_on_c, 0, 73, 55
2, 39635, Note_off_c, 0, 61, 64
2, 39636, Note_off_c, 0, 70, 64
2, 39712, Note_on_c, 0, 76, 51
2, 39716, Note_on_c, 0, 68, 54
2, 39736, Note_off_c, 0, 64, 64
2, 39741, Note_off_c, 0, 73, 64
2, 39793, Note_on_c, 0, 75, 55
2, 39798, Note_on_c, 0, 66, 52
2, 39806, Control_c, 0, 64, 0
2, 39811, Note_off_c, 0, 76, 64
2, 39815, Note_off_c, 0, 68, 64
2, 39839, Control_c, 0, 64, 127
2, 39874, Control_c, 0, 64, 0
2, 39907, Control_c, 0, 64, 127
2, 39980, Note_on_c, 0, 59, 25
2, 39981, Note_on_c, 0, 68, 54
2, 40008, Note_off_c, 0, 75, 64
2, 40013, Note_off_c, 0, 66, 64
2, 40090, Note_off_c, 0, 59, 64
2, 40091, Note_off_c, 0, 68, 64
2, 40124, Note_on_c, 0, 71, 55
2, 40147, Note_off_c, 0, 71, 64
2, 40168, Note_on_c, 0, 65, 43
2, 40171, Note_on_c, 0, 62, 48
2, 40174, Note_on_c, 0, 71, 64
2, 40196, Control_c, 0, 64, 0
2, 40236, Control_c, 0, 64, 127
2, 40245, Note_on_c, 0, 73, 43
2, 40260, Note_off_c, 0, 71, 64
2, 40264, Control_c, 0, 64, 0
2, 40300, Note_on_c, 0, 71, 48
2, 40304, Control_c, 0, 64, 127
2, 40308, Note_off_c, 0, 73, 64
2, 40367, Note_on_c, 0, 70, 63
2, 40373, Note_on_c, 0, 66, 55
2, 40379, Note_on_c, 0, 61, 48
2, 40382, Note_off_c, 0, 71, 64
2, 40384, Note_off_c, 0, 65, 64
2, 40387, Note_off_c, 0, 62, 64
2, 40392, Control_c, 0, 64, 0
2, 40433, Control_c, 0, 64, 127
2, 40460, Control_c, 0, 64, 0
2, 40501, Control_c, 0, 64, 127
2, 40537, Note_off_c, 0, 54, 64
2, 40577, Note_on_c, 0, 54, 58
2, 40651, Note_on_c, 0, 68, 63
2, 40655, Note_off_c, 0, 66, 64
2, 40655, Note_off_c, 0, 70, 64
2, 40661, Note_off_c, 0, 61, 64
2, 40759, Note_on_c, 0, 64, 59
2, 40760, Note_on_c, 0, 58, 51
2, 40761, Note_on_c, 0, 66, 74
2, 40763, Control_c, 0, 64, 0
2, 40772, Note_off_c, 0, 68, 64
2, 40792, Control_c, 0, 64, 127
2, 40831, Control_c, 0, 64, 0
2, 40857, Note_off_c, 0, 58, 64
2, 40859, Note_off_c, 0, 54, 64
2, 40860, Control_c, 0, 64, 127
2, 40875, Note_off_c, 0, 64, 64
2, 40890, Note_off_c, 0, 66, 64
2, 40912, Note_on_c, 0, 68, 52
2, 40950, Note_on_c, 0, 70, 64
2, 40952, Note_on_c, 0, 42, 63
2, 40952, Control_c, 0, 64, 0
2, 40974, Note_off_c, 0, 68, 64
2, 40989, Control_c, 0, 64, 127
2, 41020, Control_c, 0, 64, 0
2, 41028, Note_off_c, 0, 42, 64
2, 41040, Note_on_c, 0, 71, 71
2, 41051, Note_off_c, 0, 70, 64
2, 41057, Control_c, 0, 64, 127
2, 41132, Note_on_c, 0, 73, 72
2, 41169, Note_off_c, 0, 71, 64
2, 41210, Note_on_c, 0, 75, 72
2, 41236, Note_off_c, 0, 73, 64
2, 41297, Note_on_c, 0, 76, 66
2, 41317, Note_off_c, 0, 75, 64
2, 41375, Note_on_c, 0, 78, 72
2, 41410, Note_off_c, 0, 76, 64
2, 41459, Note_on_c, 0, 80, 70
2, 41477, Note_off_c, 0, 78, 64
2, 41617, Control_c, 0, 64, 0
2, 41648, Note_on_c, 0, 61, 55
2, 41649, Note_on_c, 0, 54, 57
2, 41652, Note_on_c, 0, 70, 66
2, 41655, Note_on_c, 0, 64, 59
2, 41673, Control_c, 0, 64, 127
2, 41685, Note_off_c, 0, 80, 64
2, 41685, Control_c, 0, 64, 0
2, 41729, Note_off_c, 0, 64, 64
2, 41741, Control_c, 0, 64, 127
2, 41745, Note_off_c, 0, 61, 64
2, 41750, Note_off_c, 0, 54, 64
2, 41852, Control_c, 0, 64, 0
2, 41863, Note_on_c, 0, 65, 55
2, 41863, Note_on_c, 0, 69, 65
2, 41871, Note_off_c, 0, 70, 64
2, 41871, Note_on_c, 0, 62, 52
2, 41873, Note_on_c, 0, 53, 57
2, 41909, Control_c, 0, 64, 127
2, 41920, Control_c, 0, 64, 0
2, 41969, Note_off_c, 0, 69, 64
2, 41977, Note_off_c, 0, 62, 64
2, 41977, Control_c, 0, 64, 127
2, 41989, Note_off_c, 0, 65, 64
2, 41999, Note_on_c, 0, 70, 66
2, 42010, Note_off_c, 0, 53, 64
2, 42038, Control_c, 0, 64, 0
2, 42058, Note_on_c, 0, 72, 64
2, 42064, Note_on_c, 0, 41, 64
2, 42074, Note_off_c, 0, 70, 64
2, 42098, Control_c, 0, 64, 127
2, 42106, Control_c, 0, 64, 0
2, 42136, Note_off_c, 0, 41, 64
2, 42147, Note_on_c, 0, 74, 66
2, 42166, Control_c, 0, 64, 127
2, 42170, Note_off_c, 0, 72, 64
2, 42209, Control_c, 0, 64, 0
2, 42231, Note_on_c, 0, 75, 65
2, 42246, Control_c, 0, 64, 127
2, 42261, Note_off_c, 0, 74, 64
2, 42277, Control_c, 0, 64, 0
2, 42308, Note_on_c, 0, 77, 72
2, 42314, Control_c, 0, 64, 127
2, 42323, Note_off_c, 0, 75, 64
2, 42367, Control_c, 0, 64, 0
2, 42388, Control_c, 0, 64, 127
2, 42396, Note_on_c, 0, 79, 72
2, 42409, Note_off_c, 0, 77, 64
2, 42435, Control_c, 0, 64, 0
2, 42456, Control_c, 0, 64, 127
2, 42481, Note_on_c, 0, 81, 63
2, 42488, Control_c, 0, 64, 0
2, 42492, Note_off_c, 0, 79, 64
2, 42552, Control_c, 0, 64, 127
2, 42556, Control_c, 0, 64, 0
2, 42557, Note_on_c, 0, 82, 83
2, 42568, Note_off_c, 0, 81, 64
2, 42620, Control_c, 0, 64, 127
2, 42748, Note_on_c, 0, 67, 72
2, 42749, Control_c, 0, 64, 0
2, 42758, Note_on_c, 0, 52, 48
2, 42762, Note_on_c, 0, 60, 41
2, 42762, Note_on_c, 0, 58, 41
2, 42783, Note_off_c, 0, 82, 64
2, 42784, Control_c, 0, 64, 127
2, 42817, Control_c, 0, 64, 0
2, 42852, Control_c, 0, 64, 127
2, 42929, Note_on_c, 0, 53, 48
2, 42937, Note_off_c, 0, 52, 64
2, 42943, Note_on_c, 0, 65, 70
2, 42949, Control_c, 0, 64, 0
2, 42967, Note_off_c, 0, 67, 64
2, 43004, Control_c, 0, 64, 127
2, 43017, Control_c, 0, 64, 0
2, 43033, Note_on_c, 0, 79, 57
2, 43072, Control_c, 0, 64, 127
2, 43125, Note_on_c, 0, 77, 69
2, 43132, Note_on_c, 0, 57, 57
2, 43133, Control_c, 0, 64, 0
2, 43134, Note_off_c, 0, 79, 64
2, 43143, Note_off_c, 0, 58, 64
2, 43143, Note_off_c, 0, 60, 64
2, 43148, Note_off_c, 0, 65, 64
2, 43190, Control_c, 0, 64, 127
2, 43201, Control_c, 0, 64, 0
2, 43258, Control_c, 0, 64, 127
2, 43324, Note_on_c, 0, 63, 42
2, 43420, Note_off_c, 0, 53, 64
2, 43422, Note_off_c, 0, 57, 64
2, 43428, Note_on_c, 0, 76, 60
2, 43439, Note_off_c, 0, 77, 64
2, 43488, Note_off_c, 0, 63, 64
2, 43516, Note_on_c, 0, 75, 52
2, 43524, Note_on_c, 0, 46, 42
2, 43530, Note_off_c, 0, 76, 64
2, 43572, Control_c, 0, 64, 0
2, 43616, Control_c, 0, 64, 127
2, 43620, Note_on_c, 0, 74, 63
2, 43640, Control_c, 0, 64, 0
2, 43642, Note_off_c, 0, 75, 64
2, 43684, Control_c, 0, 64, 127
2, 43714, Note_on_c, 0, 72, 70
2, 43725, Note_on_c, 0, 62, 40
2, 43730, Note_on_c, 0, 58, 40
2, 43745, Note_on_c, 0, 53, 32
2, 43746, Note_off_c, 0, 74, 64
2, 43758, Note_off_c, 0, 46, 64
2, 43791, Note_on_c, 0, 70, 77
2, 43820, Note_off_c, 0, 72, 64
2, 43822, Note_off_c, 0, 62, 64
2, 43827, Note_off_c, 0, 58, 64
2, 43837, Note_off_c, 0, 53, 64
2, 43892, Note_on_c, 0, 69, 59
2, 43911, Note_off_c, 0, 70, 64
2, 43981, Note_on_c, 0, 67, 48
2, 43990, Note_off_c, 0, 69, 64
2, 44064, Note_on_c, 0, 41, 46
2, 44077, Note_on_c, 0, 65, 55
2, 44082, Control_c, 0, 64, 0
2, 44099, Note_off_c, 0, 67, 64
2, 44126, Control_c, 0, 64, 127
2, 44150, Control_c, 0, 64, 0
2, 44170, Note_on_c, 0, 75, 54
2, 44194, Control_c, 0, 64, 127
2, 44201, Note_off_c, 0, 65, 64
2, 44278, Note_on_c, 0, 64, 52
2, 44283, Note_on_c, 0, 74, 58
2, 44286, Note_on_c, 0, 55, 36
2, 44295, Control_c, 0, 64, 0
2, 44297, Note_off_c, 0, 75, 64
2, 44339, Control_c, 0, 64, 127
2, 44363, Control_c, 0, 64, 0
2, 44407, Control_c, 0, 64, 127
2, 44479, Note_off_c, 0, 41, 64
2, 44498, Note_on_c, 0, 63, 54
2, 44504, Note_on_c, 0, 57, 43
2, 44511, Control_c, 0, 64, 0
2, 44521, Note_off_c, 0, 55, 64
2, 44527, Note_off_c, 0, 64, 64
2, 44545, Control_c, 0, 64, 127
2, 44579, Control_c, 0, 64, 0
2, 44599, Note_on_c, 0, 72, 51
2, 44609, Note_off_c, 0, 74, 64
2, 44613, Control_c, 0, 64, 127
2, 44713, Note_on_c, 0, 58, 32
2, 44716, Note_on_c, 0, 70, 43
2, 44722, Note_on_c, 0, 46, 40
2, 44724, Control_c, 0, 64, 0
2, 44728, Note_off_c, 0, 72, 64
2, 44730, Note_on_c, 0, 62, 25
2, 44735, Note_off_c, 0, 63, 64
2, 44741, Note_off_c, 0, 57, 64
2, 44792, Control_c, 0, 64, 0
2, 44792, Control_c, 0, 64, 127
2, 44828, Note_on_c, 0, 55, 48
2, 44834, Note_off_c, 0, 58, 64
2, 44835, Note_off_c, 0, 46, 64
2, 44857, Note_off_c, 0, 70, 64
2, 44860, Control_c, 0, 64, 127
2, 44903, Note_off_c, 0, 62, 64
2, 44930, Note_on_c, 0, 53, 48
2, 44955, Note_off_c, 0, 55, 64
2, 45035, Note_on_c, 0, 51, 46
2, 45047, Note_off_c, 0, 53, 64
2, 45136, Note_on_c, 0, 50, 47
2, 45142, Note_on_c, 0, 53, 64
2, 45151, Control_c, 0, 64, 0
2, 45153, Note_off_c, 0, 51, 64
2, 45219, Control_c, 0, 64, 0
2, 45236, Control_c, 0, 64, 127
2, 45249, Note_on_c, 0, 48, 43
2, 45273, Note_off_c, 0, 50, 64
2, 45304, Control_c, 0, 64, 127
2, 45362, Note_on_c, 0, 58, 51
2, 45364, Note_on_c, 0, 62, 46
2, 45370, Note_on_c, 0, 46, 47
2, 45374, Control_c, 0, 64, 0
2, 45420, Note_off_c, 0, 48, 64
2, 45440, Control_c, 0, 64, 127
2, 45442, Control_c, 0, 64, 0
2, 45508, Control_c, 0, 64, 127
2, 45524, Note_on_c, 0, 43, 47
2, 45537, Note_off_c, 0, 46, 64
2, 45547, Control_c, 0, 64, 0
2, 45593, Note_on_c, 0, 41, 64
2, 45615, Control_c, 0, 64, 0
2, 45619, Note_off_c, 0, 43, 64
2, 45625, Control_c, 0, 64, 127
2, 45693, Control_c, 0, 64, 127
2, 45793, Note_on_c, 0, 63, 55
2, 45797, Note_on_c, 0, 46, 52
2, 45807, Note_off_c, 0, 62, 64
2, 45810, Control_c, 0, 64, 0
2, 45815, Note_off_c, 0, 41, 64
2, 45869, Control_c, 0, 64, 127
2, 45878, Control_c, 0, 64, 0
2, 45937, Control_c, 0, 64, 127
2, 45992, Note_on_c, 0, 65, 54
2, 46043, Note_off_c, 0, 65, 64
2, 46059, Note_off_c, 0, 63, 64
2, 46124, Note_on_c, 0, 63, 52
2, 46127, Note_on_c, 0, 57, 60
2, 46128, Note_off_c, 0, 58, 64
2, 46128, Note_on_c, 0, 65, 54
2, 46135, Note_on_c, 0, 47, 51
2, 46149, Note_off_c, 0, 46, 64
2, 46173, Note_off_c, 0, 63, 64
2, 46177, Note_off_c, 0, 65, 64
2, 46182, Note_on_c, 0, 48, 55
2, 46186, Note_on_c, 0, 55, 63
2, 46190, Note_on_c, 0, 65, 54
2, 46196, Note_on_c, 0, 63, 52
2, 46197, Note_off_c, 0, 47, 64
2, 46198, Note_off_c, 0, 57, 64
2, 46206, Control_c, 0, 64, 0
2, 46271, Control_c, 0, 64, 127
2, 46274, Control_c, 0, 64, 0
2, 46339, Control_c, 0, 64, 127
2, 46350, Note_off_c, 0, 48, 64
2, 46359, Note_off_c, 0, 63, 64
2, 46360, Note_off_c, 0, 65, 64
2, 46368, Note_off_c, 0, 55, 64
2, 46404, Note_on_c, 0, 65, 54
2, 46404, Note_on_c, 0, 63, 54
2, 46406, Control_c, 0, 64, 0
2, 46414, Note_on_c, 0, 57, 57
2, 46419, Note_on_c, 0, 41, 51
2, 46437, Control_c, 0, 64, 127
2, 46474, Control_c, 0, 64, 0
2, 46477, Control_c, 0, 64, 127
2, 46505, Control_c, 0, 64, 127
2, 46525, Note_off_c, 0, 63, 64
2, 46525, Note_off_c, 0, 65, 64
2, 46545, Control_c, 0, 64, 127
2, 46565, Note_off_c, 0, 57, 64
2, 46568, Note_off_c, 0, 41, 64
2, 46625, Note_on_c, 0, 58, 55
2, 46628, Note_on_c, 0, 62, 58
2, 46628, Note_on_c, 0, 46, 52
2, 46644, Control_c, 0, 64, 0
2, 46702, Control_c, 0, 64, 127
2, 46712, Control_c, 0, 64, 0
2, 46770, Control_c, 0, 64, 127
2, 46771, Note_on_c, 0, 43, 49
2, 46792, Note_off_c, 0, 46, 64
2, 46815, Control_c, 0, 64, 0
2, 46837, Note_on_c, 0, 41, 60
2, 46864, Control_c, 0, 64, 127
2, 46869, Note_off_c, 0, 43, 64
2, 46883, Control_c, 0, 64, 0
2, 46932, Control_c, 0, 64, 127
2, 47013, Note_off_c, 0, 53, 64
2, 47020, Note_off_c, 0, 58, 64
2, 47036, Note_on_c, 0, 58, 55
2, 47038, Note_on_c, 0, 67, 54
2, 47043, Note_off_c, 0, 62, 64
2, 47043, Note_on_c, 0, 40, 47
2, 47048, Control_c, 0, 64, 0
2, 47052, Note_off_c, 0, 41, 64
2, 47053, Note_on_c, 0, 48, 48
2, 47102, Control_c, 0, 64, 127
2, 47116, Control_c, 0, 64, 0
2, 47155, Note_off_c, 0, 67, 64
2, 47170, Control_c, 0, 64, 127
2, 47200, Note_off_c, 0, 58, 64
2, 47230, Note_off_c, 0, 40, 64
2, 47242, Note_on_c, 0, 58, 54
2, 47247, Note_on_c, 0, 41, 43
2, 47253, Note_on_c, 0, 60, 55
2, 47256, Control_c, 0, 64, 0
2, 47295, Control_c, 0, 64, 127
2, 47306, Note_off_c, 0, 58, 64
2, 47311, Note_off_c, 0, 60, 64
2, 47324, Control_c, 0, 64, 0
2, 47363, Control_c, 0, 64, 127
2, 47384, Note_on_c, 0, 60, 52
2, 47388, Note_off_c, 0, 41, 64
2, 47390, Note_on_c, 0, 57, 52
2, 47398, Note_on_c, 0, 36, 64
2, 47423, Note_off_c, 0, 60, 64
2, 47440, Note_on_c, 0, 60, 58
2, 47444, Note_on_c, 0, 55, 64
2, 47450, Note_off_c, 0, 57, 64
2, 47450, Control_c, 0, 64, 0
2, 47456, Note_on_c, 0, 41, 59
2, 47458, Note_off_c, 0, 36, 64
2, 47498, Control_c, 0, 64, 127
2, 47518, Control_c, 0, 64, 0
2, 47566, Control_c, 0, 64, 127
2, 47578, Note_off_c, 0, 60, 64
2, 47656, Note_on_c, 0, 36, 48
2, 47656, Control_c, 0, 64, 0
2, 47660, Note_on_c, 0, 57, 55
2, 47663, Note_on_c, 0, 60, 55
2, 47668, Note_off_c, 0, 41, 64
2, 47693, Note_off_c, 0, 55, 64
2, 47724, Control_c, 0, 64, 0
2, 47728, Control_c, 0, 64, 127
2, 47759, Note_off_c, 0, 57, 64
2, 47774, Note_off_c, 0, 60, 64
2, 47790, Note_off_c, 0, 36, 64
2, 47796, Control_c, 0, 64, 127
2, 47881, Note_off_c, 0, 48, 64
2, 47898, Control_c, 0, 64, 0
2, 47902, Note_on_c, 0, 60, 57
2, 47905, Note_on_c, 0, 56, 64
2, 47908, Note_on_c, 0, 41, 58
2, 47911, Note_on_c, 0, 48, 48
2, 47953, Control_c, 0, 64, 127
2, 47966, Control_c, 0, 64, 0
2, 48021, Control_c, 0, 64, 127
2, 48048, Note_on_c, 0, 37, 52
2, 48055, Note_off_c, 0, 41, 64
2, 48094, Control_c, 0, 64, 0
2, 48116, Note_on_c, 0, 36, 70
2, 48144, Control_c, 0, 64, 127
2, 48153, Note_off_c, 0, 37, 64
2, 48162, Control_c, 0, 64, 0
2, 48212, Control_c, 0, 64, 127
2, 48323, Note_on_c, 0, 62, 69
2, 48329, Note_on_c, 0, 41, 52
2, 48333, Note_off_c, 0, 36, 64
2, 48338, Note_off_c, 0, 60, 64
2, 48343, Control_c, 0, 64, 0
2, 48375, Control_c, 0, 64, 127
2, 48411, Control_c, 0, 64, 0
2, 48443, Control_c, 0, 64, 127
2, 48538, Note_off_c, 0, 41, 64
2, 48539, Note_on_c, 0, 63, 74
2, 48544, Control_c, 0, 64, 0
2, 48546, Note_off_c, 0, 62, 64
2, 48549, Note_on_c, 0, 55, 65
2, 48549, Note_on_c, 0, 36, 64
2, 48562, Note_off_c, 0, 56, 64
2, 48585, Control_c, 0, 64, 127
2, 48612, Control_c, 0, 64, 0
2, 48620, Note_off_c, 0, 48, 64
2, 48653, Control_c, 0, 64, 127
2, 48690, Note_off_c, 0, 63, 64
2, 48705, Note_off_c, 0, 55, 64
2, 48715, Note_on_c, 0, 63, 74
2, 48751, Note_off_c, 0, 63, 64
2, 48766, Note_on_c, 0, 58, 80
2, 48769, Note_on_c, 0, 63, 77
2, 48781, Note_on_c, 0, 55, 64
2, 48781, Note_on_c, 0, 48, 66
2, 48782, Control_c, 0, 64, 0
2, 48845, Note_off_c, 0, 36, 64
2, 48850, Control_c, 0, 64, 0
2, 48857, Control_c, 0, 64, 127
2, 48925, Control_c, 0, 64, 127
2, 48968, Note_off_c, 0, 48, 64
2, 48980, Note_off_c, 0, 55, 64
2, 49096, Note_on_c, 0, 62, 66
2, 49107, Note_off_c, 0, 63, 64
2, 49232, Note_on_c, 0, 60, 72
2, 49234, Note_on_c, 0, 41, 65
2, 49242, Note_on_c, 0, 51, 65
2, 49243, Note_off_c, 0, 62, 64
2, 49256, Control_c, 0, 64, 0
2, 49305, Control_c, 0, 64, 127
2, 49324, Control_c, 0, 64, 0
2, 49342, Note_off_c, 0, 58, 64
2, 49373, Control_c, 0, 64, 127
2, 49387, Note_on_c, 0, 59, 71
2, 49393, Note_off_c, 0, 60, 64
2, 49393, Note_on_c, 0, 50, 72
2, 49403, Note_off_c, 0, 51, 64
2, 49440, Note_on_c, 0, 60, 70
2, 49442, Control_c, 0, 64, 0
2, 49448, Note_on_c, 0, 51, 87
2, 49450, Note_off_c, 0, 59, 64
2, 49456, Note_off_c, 0, 50, 64
2, 49492, Control_c, 0, 64, 127
2, 49510, Control_c, 0, 64, 0
2, 49560, Control_c, 0, 64, 127
2, 49634, Note_on_c, 0, 56, 72
2, 49636, Note_on_c, 0, 62, 78
2, 49639, Note_on_c, 0, 47, 72
2, 49640, Note_off_c, 0, 60, 64
2, 49646, Note_off_c, 0, 51, 64
2, 49646, Control_c, 0, 64, 0
2, 49694, Control_c, 0, 64, 127
2, 49714, Control_c, 0, 64, 0
2, 49762, Control_c, 0, 64, 127
2, 49835, Control_c, 0, 64, 0
2, 49841, Note_on_c, 0, 48, 70
2, 49844, Note_on_c, 0, 55, 78
2, 49844, Note_on_c, 0, 63, 74
2, 49865, Note_off_c, 0, 56, 64
2, 49867, Note_off_c, 0, 62, 64
2, 49870, Note_off_c, 0, 47, 64
2, 49871, Control_c, 0, 64, 127
2, 49903, Control_c, 0, 64, 0
2, 49939, Control_c, 0, 64, 127
2, 49985, Note_on_c, 0, 64, 60
2, 49988, Note_on_c, 0, 46, 80
2, 49992, Note_on_c, 0, 54, 63
2, 49996, Note_off_c, 0, 48, 64
2, 49998, Note_off_c, 0, 41, 64
2, 49999, Note_off_c, 0, 63, 64
2, 49999, Note_off_c, 0, 55, 64
2, 50028, Control_c, 0, 64, 0
2, 50039, Note_on_c, 0, 65, 77
2, 50045, Note_on_c, 0, 45, 86
2, 50045, Note_on_c, 0, 53, 81
2, 50061, Note_off_c, 0, 64, 64
2, 50064, Note_off_c, 0, 46, 64
2, 50068, Note_off_c, 0, 54, 64
2, 50084, Control_c, 0, 64, 127
2, 50096, Control_c, 0, 64, 0
2, 50152, Control_c, 0, 64, 127
2, 50228, Note_off_c, 0, 53, 64
2, 50231, Note_on_c, 0, 41, 64
2, 50263, Note_off_c, 0, 45, 64
2, 50264, Note_on_c, 0, 73, 82
2, 50265, Note_off_c, 0, 65, 64
2, 50270, Note_on_c, 0, 63, 88
2, 50277, Note_on_c, 0, 57, 77
2, 50278, Control_c, 0, 64, 0
2, 50318, Control_c, 0, 64, 127
2, 50346, Control_c, 0, 64, 0
2, 50386, Control_c, 0, 64, 127
2, 50439, Note_off_c, 0, 41, 64
2, 50482, Note_on_c, 0, 58, 60
2, 50486, Note_on_c, 0, 62, 72
2, 50490, Note_off_c, 0, 57, 64
2, 50490, Note_on_c, 0, 74, 72
2, 50491, Note_off_c, 0, 73, 64
2, 50492, Note_on_c, 0, 70, 66
2, 50492, Control_c, 0, 64, 0
2, 50493, Note_off_c, 0, 63, 64
2, 50497, Note_on_c, 0, 53, 57
2, 50497, Note_on_c, 0, 46, 64
2, 50528, Control_c, 0, 64, 127
2, 50556, Note_off_c, 0, 53, 64
2, 50560, Control_c, 0, 64, 0
2, 50571, Note_off_c, 0, 46, 64
2, 50585, Note_off_c, 0, 58, 64
2, 50596, Control_c, 0, 64, 127
2, 50637, Note_on_c, 0, 43, 52
2, 50679, Control_c, 0, 64, 0
2, 50689, Note_on_c, 0, 41, 74
2, 50723, Note_off_c, 0, 43, 64
2, 50732, Control_c, 0, 64, 127
2, 50747, Control_c, 0, 64, 0
2, 50800, Control_c, 0, 64, 127
2, 50847, Note_off_c, 0, 70, 64
2, 50892, Note_on_c, 0, 75, 72
2, 50892, Note_on_c, 0, 70, 64
2, 50892, Note_on_c, 0, 63, 64
2, 50897, Note_off_c, 0, 74, 64
2, 50899, Note_on_c, 0, 46, 60
2, 50901, Note_off_c, 0, 62, 64
2, 50908, Note_on_c, 0, 53, 52
2, 50914, Control_c, 0, 64, 0
2, 50921, Note_off_c, 0, 41, 64
2, 50954, Control_c, 0, 64, 127
2, 50982, Control_c, 0, 64, 0
2, 51022, Control_c, 0, 64, 127
2, 51066, Note_off_c, 0, 75, 64
2, 51073, Note_off_c, 0, 63, 64
2, 51073, Note_off_c, 0, 70, 64
2, 51086, Note_on_c, 0, 65, 66
2, 51091, Note_on_c, 0, 77, 66
2, 51092, Note_on_c, 0, 70, 64
2, 51095, Note_on_c, 0, 75, 66
2, 51119, Note_off_c, 0, 70, 64
2, 51132, Note_off_c, 0, 75, 64
2, 51132, Note_off_c, 0, 65, 64
2, 51141, Note_off_c, 0, 77, 64
2, 51212, Note_on_c, 0, 65, 66
2, 51216, Note_on_c, 0, 77, 65
2, 51216, Note_on_c, 0, 69, 72
2, 51220, Note_on_c, 0, 47, 66
2, 51225, Note_on_c, 0, 75, 60
2, 51229, Note_off_c, 0, 46, 64
2, 51238, Note_off_c, 0, 69, 64
2, 51243, Note_off_c, 0, 65, 64
2, 51250, Note_off_c, 0, 75, 64
2, 51253, Note_off_c, 0, 77, 64
2, 51268, Control_c, 0, 64, 0
2, 51276, Note_on_c, 0, 77, 60
2, 51276, Note_on_c, 0, 75, 60
2, 51276, Note_on_c, 0, 65, 55
2, 51276, Note_on_c, 0, 48, 74
2, 51281, Note_on_c, 0, 67, 71
2, 51285, Note_off_c, 0, 47, 64
2, 51292, Control_c, 0, 64, 0
2, 51330, Control_c, 0, 64, 127
2, 51336, Control_c, 0, 64, 0
2, 51360, Control_c, 0, 64, 0
2, 51390, Note_off_c, 0, 67, 64
2, 51392, Note_on_c, 0, 50, 64
2, 51398, Control_c, 0, 64, 127
2, 51407, Note_off_c, 0, 48, 64
2, 51420, Note_off_c, 0, 75, 64
2, 51420, Note_off_c, 0, 77, 64
2, 51428, Note_off_c, 0, 65, 64
2, 51476, Note_on_c, 0, 75, 77
2, 51476, Note_on_c, 0, 77, 77
2, 51483, Control_c, 0, 64, 127
2, 51485, Note_on_c, 0, 65, 65
2, 51491, Note_on_c, 0, 69, 74
2, 51491, Note_on_c, 0, 48, 66
2, 51494, Note_off_c, 0, 50, 64
2, 51501, Control_c, 0, 64, 0
2, 51531, Control_c, 0, 64, 127
2, 51551, Control_c, 0, 64, 127
2, 51569, Control_c, 0, 64, 0
2, 51599, Control_c, 0, 64, 127
2, 51602, Note_off_c, 0, 53, 64
2, 51647, Note_off_c, 0, 69, 64
2, 51651, Note_off_c, 0, 77, 64
2, 51651, Note_off_c, 0, 75, 64
2, 51666, Note_off_c, 0, 48, 64
2, 51684, Note_off_c, 0, 65, 64
2, 51693, Note_on_c, 0, 70, 66
2, 51694, Note_on_c, 0, 62, 65
2, 51694, Note_on_c, 0, 74, 70
2, 51701, Note_on_c, 0, 46, 60
2, 51706, Note_on_c, 0, 53, 57
2, 51710, Control_c, 0, 64, 0
2, 51759, Control_c, 0, 64, 127
2, 51778, Control_c, 0, 64, 0
2, 51827, Control_c, 0, 64, 127
2, 51834, Note_on_c, 0, 43, 47
2, 51839, Note_off_c, 0, 46, 64
2, 51875, Note_on_c, 0, 41, 70
2, 51883, Control_c, 0, 64, 0
2, 51888, Note_off_c, 0, 43, 64
2, 51913, Control_c, 0, 64, 127
2, 51951, Control_c, 0, 64, 0
2, 51981, Control_c, 0, 64, 127
2, 52070, Note_off_c, 0, 70, 64
2, 52084, Note_on_c, 0, 70, 66
2, 52087, Note_on_c, 0, 79, 69
2, 52087, Note_on_c, 0, 67, 66
2, 52087, Note_on_c, 0, 40, 64
2, 52092, Note_on_c, 0, 72, 66
2, 52094, Note_on_c, 0, 48, 65
2, 52095, Note_off_c, 0, 74, 64
2, 52100, Control_c, 0, 64, 0
2, 52101, Note_off_c, 0, 41, 64
2, 52108, Note_off_c, 0, 53, 64
2, 52117, Note_off_c, 0, 62, 64
2, 52132, Control_c, 0, 64, 127
2, 52168, Control_c, 0, 64, 0
2, 52190, Note_off_c, 0, 70, 64
2, 52198, Note_off_c, 0, 72, 64
2, 52200, Control_c, 0, 64, 127
2, 52207, Note_off_c, 0, 79, 64
2, 52217, Note_off_c, 0, 67, 64
2, 52241, Note_off_c, 0, 48, 64
2, 52276, Note_off_c, 0, 40, 64
2, 52276, Note_on_c, 0, 72, 72
2, 52283, Note_on_c, 0, 70, 63
2, 52290, Note_on_c, 0, 65, 64
2, 52290, Note_on_c, 0, 48, 60
2, 52290, Note_on_c, 0, 41, 63
2, 52292, Control_c, 0, 64, 0
2, 52297, Note_on_c, 0, 60, 72
2, 52320, Control_c, 0, 64, 127
2, 52355, Note_off_c, 0, 72, 64
2, 52360, Control_c, 0, 64, 0
2, 52376, Note_off_c, 0, 65, 64
2, 52378, Note_off_c, 0, 60, 64
2, 52388, Control_c, 0, 64, 127
2, 52389, Note_off_c, 0, 41, 64
2, 52396, Note_off_c, 0, 48, 64
2, 52403, Note_off_c, 0, 70, 64
2, 52420, Note_on_c, 0, 69, 66
2, 52427, Note_on_c, 0, 65, 65
2, 52428, Note_on_c, 0, 72, 59
2, 52428, Note_on_c, 0, 60, 60
2, 52436, Note_on_c, 0, 36, 72
2, 52441, Note_on_c, 0, 48, 41
2, 52456, Note_off_c, 0, 65, 64
2, 52456, Note_off_c, 0, 69, 64
2, 52457, Note_off_c, 0, 72, 64
2, 52461, Note_off_c, 0, 60, 64
2, 52479, Control_c, 0, 64, 0
2, 52484, Note_on_c, 0, 67, 77
2, 52484, Note_on_c, 0, 65, 77
2, 52488, Note_on_c, 0, 72, 69
2, 52489, Note_off_c, 0, 48, 64
2, 52490, Control_c, 0, 64, 127
2, 52492, Note_off_c, 0, 36, 64
2, 52492, Note_on_c, 0, 60, 60
2, 52492, Note_on_c, 0, 41, 72
2, 52498, Control_c, 0, 64, 127
2, 52500, Note_on_c, 0, 48, 72
2, 52538, Control_c, 0, 64, 127
2, 52547, Control_c, 0, 64, 0
2, 52558, Control_c, 0, 64, 127
2, 52566, Control_c, 0, 64, 127
2, 52594, Note_off_c, 0, 65, 64
2, 52594, Note_off_c, 0, 67, 64
2, 52606, Control_c, 0, 64, 127
2, 52627, Note_off_c, 0, 72, 64
2, 52637, Note_off_c, 0, 60, 64
2, 52639, Note_off_c, 0, 41, 64
2, 52647, Note_off_c, 0, 48, 64
2, 52712, Note_on_c, 0, 60, 64
2, 52714, Note_on_c, 0, 72, 66
2, 52718, Note_on_c, 0, 69, 65
2, 52719, Note_on_c, 0, 65, 64
2, 52719, Note_on_c, 0, 36, 72
2, 52725, Note_on_c, 0, 48, 52
2, 52725, Control_c, 0, 64, 0
2, 52765, Control_c, 0, 64, 127
2, 52793, Control_c, 0, 64, 0
2, 52833, Control_c, 0, 64, 127
2, 52845, Note_off_c, 0, 36, 64
2, 52849, Note_off_c, 0, 48, 64
2, 52862, Note_off_c, 0, 65, 64
2, 52874, Note_off_c, 0, 72, 64
2, 52882, Note_off_c, 0, 69, 64
2, 52894, Note_off_c, 0, 60, 64
2, 52956, Note_on_c, 0, 68, 74
2, 52961, Note_on_c, 0, 72, 72
2, 52964, Note_on_c, 0, 65, 64
2, 52966, Note_on_c, 0, 60, 66
2, 52970, Note_on_c, 0, 41, 65
2, 52973, Note_on_c, 0, 48, 54
2, 52984, Control_c, 0, 64, 0
2, 53032, Control_c, 0, 64, 127
2, 53052, Control_c, 0, 64, 0
2, 53100, Control_c, 0, 64, 127
2, 53105, Note_on_c, 0, 37, 63
2, 53121, Note_off_c, 0, 41, 64
2, 53146, Control_c, 0, 64, 0
2, 53173, Note_on_c, 0, 36, 77
2, 53196, Control_c, 0, 64, 127
2, 53214, Control_c, 0, 64, 0
2, 53220, Note_off_c, 0, 37, 64
2, 53264, Control_c, 0, 64, 127
2, 53328, Note_off_c, 0, 48, 64
2, 53344, Note_off_c, 0, 68, 64
2, 53376, Note_on_c, 0, 68, 69
2, 53377, Note_off_c, 0, 36, 64
2, 53382, Note_on_c, 0, 74, 65
2, 53382, Note_on_c, 0, 62, 60
2, 53382, Note_on_c, 0, 48, 55
2, 53382, Note_on_c, 0, 41, 64
2, 53395, Control_c, 0, 64, 0
2, 53397, Note_off_c, 0, 60, 64
2, 53397, Note_off_c, 0, 65, 64
2, 53398, Note_off_c, 0, 72, 64
2, 53432, Control_c, 0, 64, 127
2, 53463, Control_c, 0, 64, 0
2, 53500, Control_c, 0, 64, 127
2, 53558, Note_off_c, 0, 41, 64
2, 53572, Note_on_c, 0, 67, 65
2, 53572, Note_on_c, 0, 63, 72
2, 53572, Note_on_c, 0, 36, 64
2, 53575, Note_on_c, 0, 75, 71
2, 53575, Control_c, 0, 64, 0
2, 53579, Note_off_c, 0, 68, 64
2, 53585, Note_off_c, 0, 62, 64
2, 53585, Note_off_c, 0, 74, 64
2, 53623, Control_c, 0, 64, 127
2, 53638, Note_off_c, 0, 48, 64
2, 53643, Control_c, 0, 64, 0
2, 53691, Control_c, 0, 64, 127
2, 53708, Note_off_c, 0, 36, 64
2, 53708, Note_off_c, 0, 63, 64
2, 53708, Note_off_c, 0, 67, 64
2, 53711, Note_off_c, 0, 75, 64
2, 53740, Note_on_c, 0, 48, 72
2, 53744, Note_on_c, 0, 60, 72
2, 53744, Note_on_c, 0, 63, 72
2, 53744, Note_on_c, 0, 75, 72
2, 53744, Note_on_c, 0, 55, 46
2, 53772, Note_off_c, 0, 55, 64
2, 53774, Note_off_c, 0, 75, 64
2, 53774, Note_off_c, 0, 60, 64
2, 53775, Note_off_c, 0, 48, 64
2, 53779, Note_off_c, 0, 63, 64
2, 53804, Note_on_c, 0, 75, 81
2, 53804, Note_on_c, 0, 70, 70
2, 53804, Note_on_c, 0, 63, 63
2, 53808, Note_on_c, 0, 60, 48
2, 53808, Note_on_c, 0, 55, 46
2, 53811, Note_on_c, 0, 48, 54
2, 53817, Control_c, 0, 64, 0
2, 53885, Control_c, 0, 64, 0
2, 53893, Control_c, 0, 64, 127
2, 53950, Note_off_c, 0, 55, 64
2, 53961, Control_c, 0, 64, 127
2, 53968, Note_off_c, 0, 60, 64
2, 53984, Note_off_c, 0, 48, 64
2, 53994, Note_off_c, 0, 70, 64
2, 54003, Note_off_c, 0, 63, 64
2, 54076, Note_on_c, 0, 74, 59
2, 54086, Note_off_c, 0, 75, 64
2, 54158, Note_on_c, 0, 63, 58
2, 54159, Note_on_c, 0, 72, 48
2, 54165, Note_off_c, 0, 74, 64
2, 54178, Note_off_c, 0, 63, 64
2, 54178, Note_on_c, 0, 74, 63
2, 54185, Note_off_c, 0, 72, 64
2, 54198, Control_c, 0, 64, 0
2, 54208, Note_on_c, 0, 63, 69
2, 54211, Note_on_c, 0, 41, 31
2, 54211, Note_on_c, 0, 57, 51
2, 54213, Note_on_c, 0, 72, 74
2, 54217, Note_on_c, 0, 48, 48
2, 54231, Note_off_c, 0, 74, 64
2, 54263, Control_c, 0, 64, 127
2, 54266, Control_c, 0, 64, 0
2, 54305, Note_off_c, 0, 41, 64
2, 54320, Note_off_c, 0, 63, 64
2, 54322, Note_off_c, 0, 48, 64
2, 54331, Control_c, 0, 64, 127
2, 54346, Note_off_c, 0, 72, 64
2, 54354, Note_off_c, 0, 57, 64
2, 54354, Note_on_c, 0, 63, 64
2, 54359, Note_on_c, 0, 71, 64
2, 54367, Note_on_c, 0, 57, 72
2, 54367, Note_on_c, 0, 53, 64
2, 54388, Note_off_c, 0, 63, 64
2, 54394, Control_c, 0, 64, 0
2, 54404, Note_off_c, 0, 57, 64
2, 54406, Note_off_c, 0, 53, 64
2, 54407, Note_on_c, 0, 72, 72
2, 54411, Note_on_c, 0, 63, 72
2, 54418, Note_on_c, 0, 53, 65
2, 54421, Note_off_c, 0, 71, 64
2, 54423, Note_on_c, 0, 57, 63
2, 54453, Control_c, 0, 64, 127
2, 54462, Control_c, 0, 64, 0
2, 54521, Control_c, 0, 64, 127
2, 54604, Control_c, 0, 64, 0
2, 54609, Note_off_c, 0, 53, 64
2, 54612, Note_off_c, 0, 57, 64
2, 54616, Note_off_c, 0, 63, 64
2, 54616, Note_on_c, 0, 53, 52
2, 54616, Note_on_c, 0, 63, 37
2, 54620, Note_on_c, 0, 57, 47
2, 54620, Note_on_c, 0, 74, 70
2, 54632, Note_off_c, 0, 72, 64
2, 54668, Control_c, 0, 64, 127
2, 54672, Control_c, 0, 64, 0
2, 54736, Control_c, 0, 64, 127
2, 54802, Note_off_c, 0, 57, 64
2, 54807, Note_on_c, 0, 46, 37
2, 54816, Note_off_c, 0, 53, 64
2, 54828, Note_on_c, 0, 58, 46
2, 54829, Note_on_c, 0, 62, 52
2, 54829, Note_on_c, 0, 53, 36
2, 54832, Note_off_c, 0, 63, 64
2, 54832, Note_on_c, 0, 70, 69
2, 54838, Control_c, 0, 64, 0
2, 54848, Note_off_c, 0, 74, 64
2, 54892, Control_c, 0, 64, 127
2, 54906, Control_c, 0, 64, 0
2, 54960, Control_c, 0, 64, 127
2, 54979, Note_off_c, 0, 70, 64
2, 55003, Note_off_c, 0, 58, 64
2, 55005, Note_off_c, 0, 46, 64
2, 55012, Note_off_c, 0, 62, 64
2, 55049, Note_off_c, 0, 53, 64
2, 55051, Note_on_c, 0, 59, 57
2, 55090, Control_c, 0, 64, 0
2, 55146, Note_on_c, 0, 58, 40
2, 55150, Control_c, 0, 64, 127
2, 55158, Control_c, 0, 64, 0
2, 55160, Note_off_c, 0, 59, 64
2, 55209, Control_c, 0, 64, 0
2, 55218, Control_c, 0, 64, 127
2, 55231, Note_on_c, 0, 56, 52
2, 55256, Note_off_c, 0, 58, 64
2, 55268, Control_c, 0, 64, 127
2, 55277, Control_c, 0, 64, 0
2, 55317, Note_on_c, 0, 58, 52
2, 55336, Control_c, 0, 64, 127
2, 55337, Note_off_c, 0, 56, 64
2, 55442, Note_on_c, 0, 59, 63
2, 55448, Note_off_c, 0, 58, 64
2, 55500, Note_on_c, 0, 63, 43
2, 55532, Note_off_c, 0, 59, 64
2, 55543, Note_on_c, 0, 71, 37
2, 55556, Note_on_c, 0, 44, 47
2, 55563, Note_off_c, 0, 63, 64
2, 55588, Control_c, 0, 64, 0
2, 55596, Note_on_c, 0, 51, 55
2, 55601, Note_on_c, 0, 70, 72
2, 55615, Note_off_c, 0, 71, 64
2, 55617, Note_on_c, 0, 59, 49
2, 55622, Note_off_c, 0, 44, 64
2, 55655, Note_off_c, 0, 51, 64
2, 55656, Control_c, 0, 64, 0
2, 55668, Note_off_c, 0, 59, 64
2, 55676, Control_c, 0, 64, 127
2, 55744, Control_c, 0, 64, 127
2, 55784, Note_on_c, 0, 44, 51
2, 55805, Control_c, 0, 64, 0
2, 55812, Note_on_c, 0, 68, 72
2, 55812, Note_on_c, 0, 59, 46
2, 55812, Note_on_c, 0, 51, 42
2, 55817, Note_off_c, 0, 70, 64
2, 55873, Control_c, 0, 64, 0
2, 55887, Control_c, 0, 64, 127
2, 55948, Note_off_c, 0, 44, 64
2, 55955, Control_c, 0, 64, 127
2, 55988, Note_off_c, 0, 51, 64
2, 55992, Note_on_c, 0, 75, 71
2, 56001, Note_off_c, 0, 59, 64
2, 56023, Note_off_c, 0, 68, 64
2, 56108, Note_on_c, 0, 44, 48
2, 56152, Note_on_c, 0, 51, 35
2, 56182, Note_on_c, 0, 73, 71
2, 56182, Note_on_c, 0, 59, 48
2, 56191, Control_c, 0, 64, 0
2, 56197, Note_off_c, 0, 44, 64
2, 56198, Note_off_c, 0, 75, 64
2, 56208, Note_off_c, 0, 51, 64
2, 56242, Control_c, 0, 64, 127
2, 56253, Note_off_c, 0, 59, 64
2, 56259, Control_c, 0, 64, 0
2, 56310, Control_c, 0, 64, 127
2, 56334, Note_on_c, 0, 44, 51
2, 56373, Note_on_c, 0, 53, 48
2, 56384, Control_c, 0, 64, 0
2, 56397, Note_on_c, 0, 59, 48
2, 56442, Control_c, 0, 64, 127
2, 56452, Control_c, 0, 64, 0
2, 56488, Note_on_c, 0, 71, 66
2, 56499, Note_off_c, 0, 53, 64
2, 56507, Note_off_c, 0, 73, 64
2, 56508, Note_off_c, 0, 59, 64
2, 56510, Control_c, 0, 64, 127
2, 56515, Note_off_c, 0, 44, 64
2, 56570, Note_on_c, 0, 70, 72
2, 56576, Note_off_c, 0, 71, 64
2, 56645, Note_on_c, 0, 68, 78
2, 56656, Note_off_c, 0, 70, 64
2, 56684, Note_on_c, 0, 39, 55
2, 56722, Note_on_c, 0, 46, 43
2, 56730, Control_c, 0, 64, 0
2, 56741, Note_on_c, 0, 70, 74
2, 56745, Note_on_c, 0, 54, 64
2, 56750, Note_off_c, 0, 68, 64
2, 56753, Note_off_c, 0, 39, 64
2, 56770, Note_off_c, 0, 46, 64
2, 56786, Control_c, 0, 64, 127
2, 56789, Note_off_c, 0, 54, 64
2, 56798, Control_c, 0, 64, 0
2, 56854, Control_c, 0, 64, 127
2, 56924, Control_c, 0, 64, 0
2, 56933, Note_on_c, 0, 66, 64
2, 56938, Note_on_c, 0, 54, 52
2, 56938, Note_on_c, 0, 39, 47
2, 56941, Note_off_c, 0, 70, 64
2, 56946, Note_on_c, 0, 46, 41
2, 56992, Control_c, 0, 64, 0
2, 57008, Control_c, 0, 64, 127
2, 57076, Control_c, 0, 64, 127
2, 57111, Note_off_c, 0, 46, 64
2, 57114, Note_off_c, 0, 39, 64
2, 57118, Note_on_c, 0, 63, 64
2, 57126, Note_off_c, 0, 66, 64
2, 57129, Note_off_c, 0, 54, 64
2, 57251, Note_on_c, 0, 39, 51
2, 57279, Note_on_c, 0, 46, 40
2, 57298, Control_c, 0, 64, 0
2, 57306, Note_on_c, 0, 54, 52
2, 57324, Note_off_c, 0, 39, 64
2, 57333, Note_off_c, 0, 46, 64
2, 57350, Control_c, 0, 64, 127
2, 57356, Note_off_c, 0, 54, 64
2, 57366, Control_c, 0, 64, 0
2, 57418, Control_c, 0, 64, 127
2, 57467, Note_on_c, 0, 39, 40
2, 57491, Note_on_c, 0, 48, 54
2, 57510, Control_c, 0, 64, 0
2, 57523, Note_on_c, 0, 54, 54
2, 57561, Control_c, 0, 64, 127
2, 57578, Control_c, 0, 64, 0
2, 57584, Note_off_c, 0, 63, 64
2, 57629, Control_c, 0, 64, 127
2, 57671, Note_off_c, 0, 39, 64
2, 57673, Note_off_c, 0, 48, 64
2, 57682, Control_c, 0, 64, 0
2, 57690, Note_on_c, 0, 61, 71
2, 57694, Note_off_c, 0, 54, 64
2, 57743, Control_c, 0, 64, 127
2, 57750, Control_c, 0, 64, 0
2, 57804, Note_off_c, 0, 61, 64
2, 57811, Control_c, 0, 64, 127
2, 57813, Note_on_c, 0, 41, 49
2, 57824, Note_on_c, 0, 60, 65
2, 57837, Note_on_c, 0, 49, 48
2, 57853, Control_c, 0, 64, 0
2, 57866, Note_on_c, 0, 58, 72
2, 57866, Note_on_c, 0, 53, 48
2, 57877, Note_off_c, 0, 41, 64
2, 57890, Note_off_c, 0, 60, 64
2, 57891, Note_off_c, 0, 49, 64
2, 57909, Note_off_c, 0, 53, 64
2, 57916, Control_c, 0, 64, 127
2, 57921, Control_c, 0, 64, 0
2, 57984, Control_c, 0, 64, 127
2, 58012, Note_on_c, 0, 41, 35
2, 58028, Note_on_c, 0, 49, 43
2, 58048, Note_on_c, 0, 53, 51
2, 58054, Control_c, 0, 64, 0
2, 58060, Note_on_c, 0, 65, 64
2, 58084, Note_off_c, 0, 58, 64
2, 58112, Control_c, 0, 64, 127
2, 58116, Note_off_c, 0, 41, 64
2, 58120, Note_off_c, 0, 49, 64
2, 58122, Control_c, 0, 64, 0
2, 58143, Note_off_c, 0, 53, 64
2, 58180, Control_c, 0, 64, 127
2, 58201, Note_off_c, 0, 65, 64
2, 58250, Note_on_c, 0, 53, 72
2, 58364, Note_on_c, 0, 41, 48
2, 58404, Note_on_c, 0, 51, 54
2, 58409, Control_c, 0, 64, 0
2, 58422, Note_off_c, 0, 41, 64
2, 58425, Note_on_c, 0, 57, 55
2, 58466, Note_off_c, 0, 51, 64
2, 58476, Note_off_c, 0, 57, 64
2, 58477, Control_c, 0, 64, 0
2, 58482, Control_c, 0, 64, 127
2, 58550, Control_c, 0, 64, 127
2, 58613, Note_on_c, 0, 41, 40
2, 58618, Note_on_c, 0, 51, 51
2, 58623, Note_on_c, 0, 57, 40
2, 58625, Control_c, 0, 64, 0
2, 58664, Control_c, 0, 64, 127
2, 58690, Note_off_c, 0, 53, 64
2, 58693, Control_c, 0, 64, 0
2, 58714, Note_off_c, 0, 57, 64
2, 58731, Note_off_c, 0, 41, 64
2, 58732, Control_c, 0, 64, 127
2, 58741, Note_off_c, 0, 51, 64
2, 58805, Note_on_c, 0, 58, 70
2, 58944, Note_on_c, 0, 46, 42
2, 58972, Control_c, 0, 64, 0
2, 58976, Note_on_c, 0, 53, 51
2, 59003, Note_on_c, 0, 61, 54
2, 59014, Control_c, 0, 64, 127
2, 59040, Control_c, 0, 64, 0
2, 59057, Note_off_c, 0, 46, 64
2, 59082, Control_c, 0, 64, 127
2, 59090, Note_off_c, 0, 61, 64
2, 59100, Note_off_c, 0, 53, 64
2, 59179, Note_on_c, 0, 46, 31
2, 59194, Note_on_c, 0, 61, 40
2, 59194, Control_c, 0, 64, 0
2, 59199, Note_on_c, 0, 53, 31
2, 59217, Control_c, 0, 64, 127
2, 59262, Control_c, 0, 64, 0
2, 59285, Control_c, 0, 64, 127
2, 59366, Note_on_c, 0, 65, 65
2, 59375, Control_c, 0, 64, 0
2, 59397, Note_off_c, 0, 53, 64
2, 59397, Note_off_c, 0, 61, 64
2, 59399, Note_off_c, 0, 58, 64
2, 59404, Note_off_c, 0, 46, 64
2, 59407, Control_c, 0, 64, 127
2, 59443, Control_c, 0, 64, 0
2, 59466, Note_on_c, 0, 68, 43
2, 59475, Control_c, 0, 64, 127
2, 59482, Note_off_c, 0, 65, 64
2, 59492, Note_on_c, 0, 66, 64
2, 59496, Note_on_c, 0, 46, 40
2, 59518, Note_on_c, 0, 53, 43
2, 59525, Note_off_c, 0, 68, 64
2, 59529, Control_c, 0, 64, 0
2, 59541, Note_on_c, 0, 61, 55
2, 59546, Note_on_c, 0, 65, 77
2, 59555, Note_off_c, 0, 66, 64
2, 59562, Note_off_c, 0, 46, 64
2, 59569, Note_off_c, 0, 53, 64
2, 59578, Note_off_c, 0, 61, 64
2, 59585, Control_c, 0, 64, 127
2, 59597, Control_c, 0, 64, 0
2, 59653, Control_c, 0, 64, 127
2, 59729, Note_on_c, 0, 70, 63
2, 59732, Control_c, 0, 64, 0
2, 59744, Note_on_c, 0, 61, 54
2, 59744, Note_on_c, 0, 46, 40
2, 59758, Note_on_c, 0, 53, 25
2, 59777, Control_c, 0, 64, 127
2, 59800, Control_c, 0, 64, 0
2, 59811, Note_off_c, 0, 65, 64
2, 59827, Note_on_c, 0, 72, 70
2, 59845, Control_c, 0, 64, 127
2, 59853, Note_off_c, 0, 70, 64
2, 59927, Note_on_c, 0, 73, 80
2, 59941, Note_off_c, 0, 46, 64
2, 59942, Note_off_c, 0, 61, 64
2, 59943, Note_off_c, 0, 72, 64
2, 59947, Note_off_c, 0, 53, 64
2, 60016, Note_on_c, 0, 75, 47
2, 60030, Note_off_c, 0, 73, 64
2, 60049, Note_on_c, 0, 46, 55
2, 60059, Note_on_c, 0, 73, 55
2, 60072, Note_off_c, 0, 75, 64
2, 60074, Note_on_c, 0, 53, 41
2, 60079, Control_c, 0, 64, 0
2, 60088, Note_on_c, 0, 61, 60
2, 60094, Note_on_c, 0, 72, 65
2, 60109, Note_off_c, 0, 73, 64
2, 60134, Note_off_c, 0, 46, 64
2, 60136, Note_off_c, 0, 53, 64
2, 60139, Note_off_c, 0, 61, 64
2, 60144, Control_c, 0, 64, 127
2, 60147, Control_c, 0, 64, 0
2, 60212, Control_c, 0, 64, 127
2, 60275, Note_on_c, 0, 70, 64
2, 60282, Control_c, 0, 64, 0
2, 60295, Note_on_c, 0, 46, 55
2, 60298, Note_on_c, 0, 61, 60
2, 60305, Note_off_c, 0, 72, 64
2, 60305, Note_on_c, 0, 53, 48
2, 60330, Control_c, 0, 64, 127
2, 60350, Note_off_c, 0, 70, 64
2, 60350, Control_c, 0, 64, 0
2, 60398, Control_c, 0, 64, 127
2, 60419, Note_on_c, 0, 70, 78
2, 60469, Note_on_c, 0, 77, 72
2, 60488, Note_off_c, 0, 53, 64
2, 60491, Note_off_c, 0, 46, 64
2, 60494, Note_off_c, 0, 70, 64
2, 60494, Note_off_c, 0, 61, 64
2, 60523, Note_off_c, 0, 77, 64
2, 60594, Note_on_c, 0, 77, 58
2, 60613, Note_on_c, 0, 46, 60
2, 60629, Note_on_c, 0, 75, 64
2, 60636, Control_c, 0, 64, 0
2, 60650, Note_off_c, 0, 77, 64
2, 60652, Note_on_c, 0, 53, 48
2, 60659, Note_on_c, 0, 61, 60
2, 60681, Note_off_c, 0, 46, 64
2, 60681, Control_c, 0, 64, 127
2, 60688, Note_off_c, 0, 53, 64
2, 60704, Note_off_c, 0, 61, 64
2, 60704, Control_c, 0, 64, 0
2, 60749, Control_c, 0, 64, 127
2, 60802, Note_on_c, 0, 46, 55
2, 60811, Note_on_c, 0, 55, 58
2, 60824, Control_c, 0, 64, 0
2, 60834, Note_on_c, 0, 73, 70
2, 60839, Note_on_c, 0, 61, 64
2, 60854, Note_off_c, 0, 75, 64
2, 60887, Control_c, 0, 64, 127
2, 60892, Control_c, 0, 64, 0
2, 60955, Control_c, 0, 64, 127
2, 60961, Note_off_c, 0, 55, 64
2, 60968, Note_off_c, 0, 46, 64
2, 60991, Note_off_c, 0, 61, 64
2, 61008, Note_on_c, 0, 72, 65
2, 61026, Note_off_c, 0, 73, 64
2, 61081, Note_on_c, 0, 70, 77
2, 61097, Note_off_c, 0, 72, 64
2, 61149, Note_on_c, 0, 48, 54
2, 61158, Note_on_c, 0, 56, 49
2, 61159, Control_c, 0, 64, 0
2, 61166, Note_on_c, 0, 72, 69
2, 61167, Note_on_c, 0, 60, 57
2, 61176, Note_off_c, 0, 70, 64
2, 61211, Note_off_c, 0, 48, 64
2, 61213, Note_off_c, 0, 56, 64
2, 61219, Note_off_c, 0, 60, 64
2, 61227, Control_c, 0, 64, 0
2, 61227, Control_c, 0, 64, 127
2, 61295, Control_c, 0, 64, 127
2, 61355, Control_c, 0, 64, 0
2, 61361, Note_on_c, 0, 56, 63
2, 61361, Note_on_c, 0, 68, 63
2, 61366, Note_on_c, 0, 60, 55
2, 61373, Note_on_c, 0, 48, 55
2, 61385, Note_off_c, 0, 72, 64
2, 61423, Control_c, 0, 64, 0
2, 61430, Control_c, 0, 64, 127
2, 61498, Control_c, 0, 64, 127
2, 61538, Control_c, 0, 64, 0
2, 61552, Note_off_c, 0, 48, 64
2, 61552, Note_on_c, 0, 65, 74
2, 61565, Note_off_c, 0, 68, 64
2, 61568, Note_off_c, 0, 56, 64
2, 61568, Note_off_c, 0, 60, 64
2, 61585, Control_c, 0, 64, 127
2, 61606, Control_c, 0, 64, 0
2, 61653, Control_c, 0, 64, 127
2, 61681, Note_on_c, 0, 49, 28
2, 61709, Note_on_c, 0, 56, 34
2, 61724, Note_on_c, 0, 59, 55
2, 61728, Control_c, 0, 64, 0
2, 61778, Control_c, 0, 64, 127
2, 61780, Note_off_c, 0, 56, 64
2, 61784, Note_off_c, 0, 49, 64
2, 61796, Control_c, 0, 64, 0
2, 61813, Note_off_c, 0, 59, 64
2, 61846, Control_c, 0, 64, 127
2, 61917, Control_c, 0, 64, 0
2, 61925, Note_on_c, 0, 59, 51
2, 61930, Note_on_c, 0, 49, 40
2, 61932, Note_on_c, 0, 56, 25
2, 61978, Control_c, 0, 64, 127
2, 61985, Control_c, 0, 64, 0
2, 62046, Control_c, 0, 64, 127
2, 62089, Note_off_c, 0, 49, 64
2, 62094, Note_off_c, 0, 56, 64
2, 62095, Note_on_c, 0, 68, 64
2, 62110, Note_off_c, 0, 59, 64
2, 62164, Note_off_c, 0, 65, 64
2, 62225, Note_on_c, 0, 48, 43
2, 62230, Note_on_c, 0, 67, 63
2, 62245, Note_on_c, 0, 56, 48
2, 62264, Control_c, 0, 64, 0
2, 62269, Note_off_c, 0, 68, 64
2, 62271, Note_on_c, 0, 65, 72
2, 62284, Note_on_c, 0, 60, 48
2, 62289, Note_off_c, 0, 67, 64
2, 62292, Note_off_c, 0, 48, 64
2, 62302, Note_off_c, 0, 56, 64
2, 62318, Control_c, 0, 64, 127
2, 62326, Note_off_c, 0, 60, 64
2, 62332, Control_c, 0, 64, 0
2, 62386, Control_c, 0, 64, 127
2, 62446, Note_on_c, 0, 48, 25
2, 62451, Note_on_c, 0, 56, 35
2, 62461, Control_c, 0, 64, 0
2, 62467, Note_on_c, 0, 72, 72
2, 62468, Note_off_c, 0, 65, 64
2, 62470, Note_on_c, 0, 60, 49
2, 62521, Control_c, 0, 64, 127
2, 62529, Control_c, 0, 64, 0
2, 62550, Note_off_c, 0, 60, 64
2, 62556, Note_off_c, 0, 56, 64
2, 62572, Note_off_c, 0, 48, 64
2, 62589, Control_c, 0, 64, 127
2, 62650, Note_on_c, 0, 60, 57
2, 62673, Note_off_c, 0, 72, 64
2, 62776, Note_on_c, 0, 48, 36
2, 62819, Note_on_c, 0, 58, 41
2, 62822, Control_c, 0, 64, 0
2, 62842, Note_off_c, 0, 48, 64
2, 62850, Note_on_c, 0, 64, 42
2, 62880, Note_off_c, 0, 58, 64
2, 62884, Control_c, 0, 64, 127
2, 62890, Control_c, 0, 64, 0
2, 62897, Note_off_c, 0, 64, 64
2, 62952, Control_c, 0, 64, 127
2, 63021, Note_on_c, 0, 58, 31
2, 63025, Note_on_c, 0, 64, 28
2, 63025, Control_c, 0, 64, 0
2, 63028, Note_on_c, 0, 48, 13
2, 63067, Control_c, 0, 64, 127
2, 63093, Control_c, 0, 64, 0
2, 63135, Control_c, 0, 64, 127
2, 63185, Note_off_c, 0, 60, 64
2, 63195, Control_c, 0, 64, 0
2, 63201, Note_off_c, 0, 64, 64
2, 63202, Note_on_c, 0, 68, 60
2, 63208, Note_off_c, 0, 58, 64
2, 63230, Note_off_c, 0, 48, 64
2, 63232, Control_c, 0, 64, 127
2, 63263, Control_c, 0, 64, 0
2, 63300, Control_c, 0, 64, 127
2, 63312, Note_on_c, 0, 67, 66
2, 63324, Note_off_c, 0, 68, 64
2, 63338, Note_on_c, 0, 48, 42
2, 63349, Note_on_c, 0, 56, 47
2, 63373, Note_on_c, 0, 60, 36
2, 63377, Note_on_c, 0, 65, 63
2, 63388, Control_c, 0, 64, 0
2, 63397, Note_off_c, 0, 67, 64
2, 63413, Note_off_c, 0, 56, 64
2, 63415, Note_off_c, 0, 48, 64
2, 63420, Control_c, 0, 64, 127
2, 63427, Note_off_c, 0, 60, 64
2, 63456, Control_c, 0, 64, 0
2, 63475, Note_on_c, 0, 72, 72
2, 63488, Control_c, 0, 64, 127
2, 63505, Note_off_c, 0, 65, 64
2, 63547, Control_c, 0, 64, 0
2, 63551, Note_on_c, 0, 56, 40
2, 63562, Note_on_c, 0, 75, 66
2, 63562, Note_on_c, 0, 60, 40
2, 63573, Note_on_c, 0, 48, 25
2, 63578, Note_off_c, 0, 72, 64
2, 63594, Control_c, 0, 64, 127
2, 63615, Control_c, 0, 64, 0
2, 63642, Note_on_c, 0, 73, 70
2, 63659, Note_off_c, 0, 75, 64
2, 63662, Control_c, 0, 64, 127
2, 63691, Note_off_c, 0, 48, 64
2, 63691, Note_off_c, 0, 56, 64
2, 63696, Note_off_c, 0, 60, 64
2, 63721, Control_c, 0, 64, 0
2, 63731, Note_on_c, 0, 60, 78
2, 63751, Note_off_c, 0, 73, 64
2, 63753, Control_c, 0, 64, 127
2, 63789, Control_c, 0, 64, 0
2, 63821, Control_c, 0, 64, 127
2, 63853, Note_on_c, 0, 48, 36
2, 63894, Note_on_c, 0, 55, 41
2, 63912, Control_c, 0, 64, 0
2, 63918, Note_on_c, 0, 64, 40
2, 63921, Note_off_c, 0, 48, 64
2, 63956, Note_off_c, 0, 55, 64
2, 63964, Control_c, 0, 64, 127
2, 63970, Note_off_c, 0, 64, 64
2, 63980, Control_c, 0, 64, 0
2, 64032, Control_c, 0, 64, 127
2, 64114, Note_on_c, 0, 48, 25
2, 64130, Note_on_c, 0, 55, 37
2, 64151, Control_c, 0, 64, 0
2, 64156, Note_on_c, 0, 64, 36
2, 64190, Control_c, 0, 64, 127
2, 64219, Control_c, 0, 64, 0
2, 64235, Note_off_c, 0, 55, 64
2, 64251, Note_off_c, 0, 64, 64
2, 64258, Control_c, 0, 64, 127
2, 64365, Note_off_c, 0, 48, 64
2, 64386, Note_on_c, 0, 65, 72
2, 64395, Note_off_c, 0, 60, 64
2, 64596, Note_on_c, 0, 48, 48
2, 64599, Note_on_c, 0, 57, 57
2, 64606, Control_c, 0, 64, 0
2, 64674, Control_c, 0, 64, 0
2, 64683, Control_c, 0, 64, 127
2, 64751, Control_c, 0, 64, 127
2, 64835, Note_on_c, 0, 41, 59
2, 64850, Control_c, 0, 64, 0
2, 64861, Control_c, 0, 64, 127
2, 64891, Note_off_c, 0, 57, 64
2, 64918, Control_c, 0, 64, 0
2, 64929, Control_c, 0, 64, 127
2, 64968, Note_off_c, 0, 48, 64
2, 65002, Note_off_c, 0, 41, 64
2, 65021, Note_on_c, 0, 78, 52
2, 65080, Note_off_c, 0, 65, 64
2, 65106, Note_on_c, 0, 77, 48
2, 65122, Note_off_c, 0, 78, 64
2, 65184, Control_c, 0, 64, 0
2, 65190, Note_on_c, 0, 63, 49
2, 65194, Note_on_c, 0, 53, 25
2, 65198, Note_on_c, 0, 75, 55
2, 65203, Note_on_c, 0, 57, 35
2, 65211, Note_off_c, 0, 77, 64
2, 65224, Control_c, 0, 64, 127
2, 65252, Control_c, 0, 64, 0
2, 65292, Control_c, 0, 64, 127
2, 65302, Note_off_c, 0, 57, 64
2, 65316, Note_off_c, 0, 63, 64
2, 65347, Note_off_c, 0, 53, 64
2, 65377, Note_on_c, 0, 73, 55
2, 65380, Note_on_c, 0, 41, 35
2, 65387, Control_c, 0, 64, 0
2, 65398, Note_off_c, 0, 75, 64
2, 65426, Control_c, 0, 64, 127
2, 65455, Control_c, 0, 64, 0
2, 65456, Note_on_c, 0, 72, 58
2, 65468, Note_off_c, 0, 73, 64
2, 65491, Note_off_c, 0, 41, 64
2, 65494, Control_c, 0, 64, 127
2, 65538, Note_on_c, 0, 77, 58
2, 65581, Note_off_c, 0, 72, 64
2, 65613, Note_on_c, 0, 75, 64
2, 65638, Note_off_c, 0, 77, 64
2, 65697, Note_on_c, 0, 58, 51
2, 65702, Note_on_c, 0, 53, 43
2, 65702, Note_on_c, 0, 61, 49
2, 65707, Note_on_c, 0, 73, 55
2, 65717, Control_c, 0, 64, 0
2, 65727, Note_off_c, 0, 75, 64
2, 65740, Control_c, 0, 64, 127
2, 65785, Control_c, 0, 64, 0
2, 65801, Note_off_c, 0, 61, 64
2, 65808, Control_c, 0, 64, 127
2, 65814, Note_off_c, 0, 53, 64
2, 65818, Note_off_c, 0, 58, 64
2, 65882, Note_on_c, 0, 72, 55
2, 65890, Control_c, 0, 64, 0
2, 65894, Note_off_c, 0, 73, 64
2, 65898, Note_on_c, 0, 41, 55
2, 65931, Control_c, 0, 64, 127
2, 65958, Control_c, 0, 64, 0
2, 65964, Note_on_c, 0, 70, 64
2, 65990, Note_off_c, 0, 72, 64
2, 65999, Control_c, 0, 64, 127
2, 66019, Note_off_c, 0, 41, 64
2, 66049, Note_on_c, 0, 73, 55
2, 66055, Note_off_c, 0, 70, 64
2, 66126, Note_on_c, 0, 72, 58
2, 66158, Note_off_c, 0, 73, 64
2, 66199, Note_on_c, 0, 70, 64
2, 66211, Note_on_c, 0, 61, 47
2, 66218, Control_c, 0, 64, 0
2, 66224, Note_off_c, 0, 72, 64
2, 66224, Note_on_c, 0, 52, 43
2, 66251, Control_c, 0, 64, 127
2, 66286, Control_c, 0, 64, 0
2, 66319, Control_c, 0, 64, 127
2, 66336, Note_off_c, 0, 52, 64
2, 66358, Note_off_c, 0, 61, 64
2, 66381, Note_on_c, 0, 66, 51
2, 66396, Note_on_c, 0, 41, 48
2, 66404, Control_c, 0, 64, 0
2, 66408, Note_off_c, 0, 70, 64
2, 66444, Control_c, 0, 64, 127
2, 66472, Control_c, 0, 64, 0
2, 66504, Note_off_c, 0, 41, 64
2, 66512, Control_c, 0, 64, 127
2, 66559, Note_on_c, 0, 65, 52
2, 66574, Note_off_c, 0, 66, 64
2, 66730, Note_on_c, 0, 57, 35
2, 66733, Note_on_c, 0, 60, 35
2, 66738, Note_on_c, 0, 48, 26
2, 66742, Control_c, 0, 64, 0
2, 66762, Control_c, 0, 64, 127
2, 66810, Control_c, 0, 64, 0
2, 66830, Control_c, 0, 64, 127
2, 66859, Note_off_c, 0, 60, 64
2, 66893, Note_off_c, 0, 57, 64
2, 66900, Note_off_c, 0, 48, 64
2, 66915, Note_on_c, 0, 41, 37
2, 66923, Note_on_c, 0, 77, 57
2, 66923, Control_c, 0, 64, 0
2, 66965, Note_off_c, 0, 65, 64
2, 66967, Control_c, 0, 64, 127
2, 66991, Control_c, 0, 64, 0
2, 67035, Control_c, 0, 64, 127
2, 67050, Note_off_c, 0, 41, 64
2, 67157, Note_on_c, 0, 78, 57
2, 67177, Note_off_c, 0, 77, 64
2, 67252, Note_on_c, 0, 77, 57
2, 67293, Note_off_c, 0, 78, 64
2, 67328, Note_on_c, 0, 75, 60
2, 67330, Note_on_c, 0, 63, 42
2, 67337, Note_on_c, 0, 53, 37
2, 67340, Note_on_c, 0, 57, 43
2, 67340, Control_c, 0, 64, 0
2, 67348, Note_off_c, 0, 77, 64
2, 67373, Control_c, 0, 64, 127
2, 67408, Control_c, 0, 64, 0
2, 67441, Control_c, 0, 64, 127
2, 67502, Note_off_c, 0, 57, 64
2, 67502, Note_on_c, 0, 73, 49
2, 67513, Note_off_c, 0, 63, 64
2, 67517, Note_on_c, 0, 41, 37
2, 67517, Control_c, 0, 64, 0
2, 67521, Note_off_c, 0, 53, 64
2, 67527, Note_off_c, 0, 75, 64
2, 67548, Control_c, 0, 64, 127
2, 67585, Control_c, 0, 64, 0
2, 67586, Note_on_c, 0, 72, 58
2, 67599, Note_off_c, 0, 73, 64
2, 67616, Control_c, 0, 64, 127
2, 67629, Note_off_c, 0, 41, 64
2, 67654, Control_c, 0, 64, 0
2, 67659, Note_on_c, 0, 77, 58
2, 67695, Control_c, 0, 64, 127
2, 67722, Control_c, 0, 64, 0
2, 67733, Note_on_c, 0, 75, 57
2, 67737, Note_off_c, 0, 72, 64
2, 67750, Note_off_c, 0, 77, 64
2, 67763, Control_c, 0, 64, 127
2, 67812, Note_on_c, 0, 73, 60
2, 67818, Note_on_c, 0, 61, 46
2, 67821, Note_on_c, 0, 58, 37
2, 67826, Note_on_c, 0, 53, 41
2, 67841, Note_off_c, 0, 75, 64
2, 67969, Note_off_c, 0, 61, 64
2, 67988, Note_on_c, 0, 72, 52
2, 67993, Note_off_c, 0, 58, 64
2, 67995, Control_c, 0, 64, 0
2, 67996, Note_off_c, 0, 53, 64
2, 68001, Note_off_c, 0, 73, 64
2, 68001, Note_on_c, 0, 41, 31
2, 68026, Control_c, 0, 64, 127
2, 68061, Note_on_c, 0, 70, 64
2, 68063, Control_c, 0, 64, 0
2, 68091, Note_off_c, 0, 72, 64
2, 68094, Control_c, 0, 64, 127
2, 68130, Note_off_c, 0, 41, 64
2, 68145, Note_on_c, 0, 73, 54
2, 68159, Note_off_c, 0, 70, 64
2, 68219, Note_on_c, 0, 72, 54
2, 68221, Note_off_c, 0, 73, 64
2, 68303, Note_on_c, 0, 70, 63
2, 68309, Note_on_c, 0, 52, 48
2, 68309, Note_on_c, 0, 61, 28
2, 68314, Control_c, 0, 64, 0
2, 68326, Note_off_c, 0, 72, 64
2, 68355, Control_c, 0, 64, 127
2, 68382, Control_c, 0, 64, 0
2, 68423, Control_c, 0, 64, 127
2, 68466, Note_off_c, 0, 61, 64
2, 68477, Note_off_c, 0, 52, 64
2, 68477, Note_on_c, 0, 66, 52
2, 68489, Note_on_c, 0, 41, 46
2, 68498, Control_c, 0, 64, 0
2, 68507, Note_off_c, 0, 70, 64
2, 68530, Control_c, 0, 64, 127
2, 68566, Control_c, 0, 64, 0
2, 68598, Control_c, 0, 64, 127
2, 68606, Note_off_c, 0, 41, 64
2, 68641, Control_c, 0, 64, 0
2, 68644, Note_on_c, 0, 65, 55
2, 68663, Note_off_c, 0, 66, 64
2, 68673, Control_c, 0, 64, 127
2, 68709, Control_c, 0, 64, 0
2, 68741, Control_c, 0, 64, 127
2, 68813, Note_on_c, 0, 60, 34
2, 68824, Note_on_c, 0, 48, 37
2, 68827, Note_on_c, 0, 57, 23
2, 68953, Note_off_c, 0, 57, 64
2, 68956, Note_off_c, 0, 60, 64
2, 68971, Note_off_c, 0, 48, 64
2, 68980, Note_on_c, 0, 41, 49
2, 68985, Note_on_c, 0, 72, 55
2, 68994, Control_c, 0, 64, 0
2, 69012, Note_off_c, 0, 65, 64
2, 69043, Control_c, 0, 64, 127
2, 69062, Control_c, 0, 64, 0
2, 69111, Control_c, 0, 64, 127
2, 69121, Note_off_c, 0, 41, 64
2, 69141, Note_on_c, 0, 73, 57
2, 69145, Note_off_c, 0, 72, 64
2, 69210, Note_on_c, 0, 72, 58
2, 69252, Note_off_c, 0, 73, 64
2, 69297, Note_on_c, 0, 51, 54
2, 69302, Note_on_c, 0, 70, 66
2, 69305, Note_on_c, 0, 61, 48
2, 69307, Note_on_c, 0, 58, 48
2, 69311, Control_c, 0, 64, 0
2, 69318, Note_off_c, 0, 72, 64
2, 69353, Control_c, 0, 64, 127
2, 69379, Control_c, 0, 64, 0
2, 69421, Control_c, 0, 64, 127
2, 69469, Note_off_c, 0, 61, 64
2, 69475, Note_off_c, 0, 58, 64
2, 69496, Note_off_c, 0, 51, 64
2, 69510, Note_on_c, 0, 66, 55
2, 69513, Note_on_c, 0, 41, 51
2, 69521, Control_c, 0, 64, 0
2, 69543, Note_off_c, 0, 70, 64
2, 69572, Control_c, 0, 64, 127
2, 69589, Control_c, 0, 64, 0
2, 69634, Note_off_c, 0, 41, 64
2, 69640, Control_c, 0, 64, 127
2, 69685, Note_on_c, 0, 65, 60
2, 69695, Note_off_c, 0, 66, 64
2, 69845, Note_on_c, 0, 57, 49
2, 69851, Note_on_c, 0, 60, 41
2, 69852, Note_on_c, 0, 51, 51
2, 69861, Control_c, 0, 64, 0
2, 69891, Control_c, 0, 64, 127
2, 69929, Control_c, 0, 64, 0
2, 69959, Control_c, 0, 64, 127
2, 69972, Note_off_c, 0, 60, 64
2, 69993, Note_off_c, 0, 57, 64
2, 70003, Note_off_c, 0, 51, 64
2, 70047, Note_on_c, 0, 41, 42
2, 70050, Note_on_c, 0, 72, 72
2, 70064, Control_c, 0, 64, 0
2, 70076, Note_off_c, 0, 65, 64
2, 70111, Control_c, 0, 64, 127
2, 70132, Control_c, 0, 64, 0
2, 70179, Control_c, 0, 64, 127
2, 70184, Note_off_c, 0, 41, 64
2, 70225, Note_on_c, 0, 73, 72
2, 70242, Note_off_c, 0, 72, 64
2, 70294, Note_on_c, 0, 72, 63
2, 70298, Note_off_c, 0, 73, 64
2, 70407, Note_on_c, 0, 61, 51
2, 70407, Note_on_c, 0, 58, 43
2, 70407, Note_on_c, 0, 51, 41
2, 70407, Note_on_c, 0, 70, 77
2, 70420, Control_c, 0, 64, 0
2, 70423, Note_off_c, 0, 72, 64
2, 70459, Control_c, 0, 64, 127
2, 70488, Control_c, 0, 64, 0
2, 70527, Control_c, 0, 64, 127
2, 70532, Note_off_c, 0, 61, 64
2, 70539, Note_off_c, 0, 58, 64
2, 70560, Note_off_c, 0, 51, 64
2, 70633, Note_on_c, 0, 41, 37
2, 70636, Note_on_c, 0, 66, 66
2, 70647, Note_off_c, 0, 70, 64
2, 70647, Control_c, 0, 64, 0
2, 70686, Control_c, 0, 64, 127
2, 70715, Control_c, 0, 64, 0
2, 70754, Control_c, 0, 64, 127
2, 70806, Note_off_c, 0, 41, 64
2, 70820, Note_on_c, 0, 63, 64
2, 70839, Note_off_c, 0, 66, 64
2, 70905, Note_on_c, 0, 64, 70
2, 70917, Note_off_c, 0, 63, 64
2, 71009, Note_on_c, 0, 57, 40
2, 71012, Note_on_c, 0, 51, 52
2, 71017, Note_on_c, 0, 65, 64
2, 71022, Note_on_c, 0, 60, 41
2, 71026, Note_off_c, 0, 64, 64
2, 71038, Control_c, 0, 64, 0
2, 71102, Control_c, 0, 64, 127
2, 71106, Control_c, 0, 64, 0
2, 71170, Control_c, 0, 64, 127
2, 71173, Note_off_c, 0, 57, 64
2, 71186, Note_off_c, 0, 51, 64
2, 71197, Note_on_c, 0, 68, 60
2, 71206, Note_off_c, 0, 60, 64
2, 71229, Note_off_c, 0, 65, 64
2, 71282, Note_on_c, 0, 66, 64
2, 71307, Note_off_c, 0, 68, 64
2, 71353, Note_on_c, 0, 60, 52
2, 71367, Control_c, 0, 64, 0
2, 71416, Note_off_c, 0, 66, 64
2, 71418, Control_c, 0, 64, 127
2, 71432, Note_on_c, 0, 61, 60
2, 71435, Control_c, 0, 64, 0
2, 71455, Note_off_c, 0, 60, 64
2, 71486, Control_c, 0, 64, 127
2, 71524, Note_on_c, 0, 62, 60
2, 71553, Note_off_c, 0, 61, 64
2, 71569, Control_c, 0, 64, 0
2, 71625, Control_c, 0, 64, 127
2, 71637, Control_c, 0, 64, 0
2, 71693, Control_c, 0, 64, 127
2, 71698, Note_on_c, 0, 65, 60
2, 71720, Note_off_c, 0, 62, 64
2, 71776, Note_on_c, 0, 63, 60
2, 71805, Note_off_c, 0, 65, 64
2, 71878, Note_on_c, 0, 52, 63
2, 71887, Control_c, 0, 64, 0
2, 71943, Note_off_c, 0, 63, 64
2, 71955, Control_c, 0, 64, 0
2, 71961, Note_on_c, 0, 53, 64
2, 71972, Note_off_c, 0, 52, 64
2, 71994, Control_c, 0, 64, 127
2, 72041, Control_c, 0, 64, 0
2, 72062, Control_c, 0, 64, 127
2, 72076, Note_on_c, 0, 63, 60
2, 72109, Control_c, 0, 64, 0
2, 72117, Note_off_c, 0, 53, 64
2, 72138, Control_c, 0, 64, 127
2, 72206, Control_c, 0, 64, 127
2, 72273, Note_on_c, 0, 53, 60
2, 72295, Control_c, 0, 64, 0
2, 72341, Control_c, 0, 64, 127
2, 72361, Note_on_c, 0, 54, 57
2, 72363, Control_c, 0, 64, 0
2, 72382, Note_off_c, 0, 63, 64
2, 72387, Note_off_c, 0, 53, 64
2, 72409, Control_c, 0, 64, 127
2, 72465, Control_c, 0, 64, 0
2, 72484, Note_on_c, 0, 63, 51
2, 72515, Note_off_c, 0, 54, 64
2, 72516, Control_c, 0, 64, 127
2, 72533, Control_c, 0, 64, 0
2, 72584, Control_c, 0, 64, 127
2, 72587, Note_on_c, 0, 55, 63
2, 72613, Note_off_c, 0, 63, 64
2, 72698, Note_on_c, 0, 56, 58
2, 72711, Control_c, 0, 64, 0
2, 72717, Note_off_c, 0, 55, 64
2, 72779, Control_c, 0, 64, 0
2, 72780, Control_c, 0, 64, 127
2, 72848, Control_c, 0, 64, 127
2, 72962, Note_on_c, 0, 63, 55
2, 72970, Control_c, 0, 64, 0
2, 73003, Note_off_c, 0, 56, 64
2, 73012, Control_c, 0, 64, 127
2, 73038, Control_c, 0, 64, 0
2, 73076, Note_on_c, 0, 57, 52
2, 73080, Control_c, 0, 64, 127
2, 73082, Note_off_c, 0, 63, 64
2, 73210, Note_on_c, 0, 58, 51
2, 73218, Note_on_c, 0, 62, 48
2, 73222, Note_on_c, 0, 46, 48
2, 73229, Control_c, 0, 64, 0
2, 73235, Note_on_c, 0, 53, 26
2, 73241, Note_off_c, 0, 57, 64
2, 73297, Control_c, 0, 64, 0
2, 73360, Note_on_c, 0, 43, 40
2, 73385, Note_off_c, 0, 46, 64
2, 73429, Note_on_c, 0, 41, 58
2, 73454, Control_c, 0, 64, 127
2, 73468, Note_off_c, 0, 43, 64
2, 73522, Control_c, 0, 64, 127
2, 73627, Note_on_c, 0, 63, 54
2, 73630, Note_on_c, 0, 46, 51
2, 73644, Control_c, 0, 64, 0
2, 73653, Note_off_c, 0, 62, 64
2, 73657, Note_off_c, 0, 41, 64
2, 73686, Control_c, 0, 64, 127
2, 73712, Control_c, 0, 64, 0
2, 73754, Control_c, 0, 64, 127
2, 73815, Note_on_c, 0, 65, 52
2, 73854, Note_off_c, 0, 63, 64
2, 73874, Note_off_c, 0, 65, 64
2, 73944, Note_on_c, 0, 65, 42
2, 73944, Note_on_c, 0, 63, 42
2, 73948, Note_on_c, 0, 57, 47
2, 73950, Note_off_c, 0, 58, 64
2, 73951, Note_on_c, 0, 47, 32
2, 73963, Note_off_c, 0, 46, 64
2, 73994, Control_c, 0, 64, 0
2, 73995, Note_off_c, 0, 63, 64
2, 73995, Note_off_c, 0, 65, 64
2, 73998, Note_off_c, 0, 57, 64
2, 73998, Note_on_c, 0, 48, 55
2, 74000, Note_on_c, 0, 65, 54
2, 74002, Note_off_c, 0, 47, 64
2, 74004, Note_on_c, 0, 63, 54
2, 74004, Note_on_c, 0, 55, 60
2, 74018, Control_c, 0, 64, 0
2, 74062, Control_c, 0, 64, 0
2, 74076, Control_c, 0, 64, 127
2, 74086, Control_c, 0, 64, 0
2, 74121, Note_on_c, 0, 50, 55
2, 74128, Note_off_c, 0, 65, 64
2, 74132, Note_off_c, 0, 63, 64
2, 74136, Note_off_c, 0, 48, 64
2, 74139, Note_off_c, 0, 55, 64
2, 74144, Control_c, 0, 64, 127
2, 74204, Note_on_c, 0, 65, 52
2, 74204, Note_on_c, 0, 57, 55
2, 74207, Note_on_c, 0, 48, 54
2, 74208, Note_on_c, 0, 63, 52
2, 74221, Note_off_c, 0, 50, 64
2, 74233, Control_c, 0, 64, 0
2, 74270, Control_c, 0, 64, 127
2, 74301, Control_c, 0, 64, 0
2, 74338, Control_c, 0, 64, 127
2, 74363, Note_off_c, 0, 65, 64
2, 74367, Note_off_c, 0, 63, 64
2, 74378, Note_off_c, 0, 57, 64
2, 74403, Note_on_c, 0, 58, 55
2, 74407, Note_on_c, 0, 62, 55
2, 74410, Note_on_c, 0, 46, 54
2, 74420, Control_c, 0, 64, 0
2, 74429, Note_off_c, 0, 48, 64
2, 74476, Control_c, 0, 64, 127
2, 74488, Control_c, 0, 64, 0
2, 74538, Note_on_c, 0, 43, 35
2, 74544, Note_off_c, 0, 46, 64
2, 74544, Control_c, 0, 64, 127
2, 74582, Control_c, 0, 64, 0
2, 74594, Note_on_c, 0, 41, 60
2, 74629, Note_off_c, 0, 43, 64
2, 74633, Control_c, 0, 64, 127
2, 74650, Control_c, 0, 64, 0
2, 74701, Control_c, 0, 64, 127
2, 74771, Note_off_c, 0, 58, 64
2, 74785, Note_off_c, 0, 53, 64
2, 74792, Note_on_c, 0, 58, 57
2, 74793, Note_on_c, 0, 40, 48
2, 74795, Note_on_c, 0, 67, 58
2, 74798, Note_off_c, 0, 41, 64
2, 74802, Note_on_c, 0, 48, 48
2, 74808, Control_c, 0, 64, 0
2, 74814, Note_off_c, 0, 62, 64
2, 74859, Control_c, 0, 64, 127
2, 74876, Control_c, 0, 64, 0
2, 74927, Control_c, 0, 64, 127
2, 74961, Note_off_c, 0, 58, 64
2, 74977, Note_on_c, 0, 58, 54
2, 74983, Note_on_c, 0, 60, 55
2, 74983, Note_on_c, 0, 41, 52
2, 74989, Note_off_c, 0, 67, 64
2, 74992, Note_off_c, 0, 40, 64
2, 74998, Control_c, 0, 64, 0
2, 75045, Control_c, 0, 64, 127
2, 75049, Note_off_c, 0, 58, 64
2, 75054, Note_off_c, 0, 60, 64
2, 75066, Control_c, 0, 64, 0
2, 75113, Control_c, 0, 64, 127
2, 75116, Note_off_c, 0, 41, 64
2, 75116, Note_on_c, 0, 60, 55
2, 75117, Note_on_c, 0, 57, 55
2, 75127, Note_on_c, 0, 36, 64
2, 75152, Note_off_c, 0, 60, 64
2, 75153, Note_off_c, 0, 57, 64
2, 75168, Note_on_c, 0, 60, 55
2, 75172, Note_on_c, 0, 55, 64
2, 75176, Control_c, 0, 64, 0
2, 75190, Note_on_c, 0, 41, 51
2, 75198, Note_off_c, 0, 36, 64
2, 75237, Control_c, 0, 64, 127
2, 75244, Control_c, 0, 64, 0
2, 75305, Control_c, 0, 64, 127
2, 75367, Note_off_c, 0, 60, 64
2, 75369, Note_off_c, 0, 41, 64
2, 75376, Note_off_c, 0, 55, 64
2, 75379, Note_on_c, 0, 60, 57
2, 75382, Note_on_c, 0, 57, 64
2, 75382, Note_on_c, 0, 36, 54
2, 75392, Control_c, 0, 64, 0
2, 75414, Note_off_c, 0, 48, 64
2, 75448, Control_c, 0, 64, 127
2, 75460, Control_c, 0, 64, 0
2, 75516, Control_c, 0, 64, 127
2, 75551, Note_off_c, 0, 60, 64
2, 75554, Note_off_c, 0, 57, 64
2, 75584, Note_on_c, 0, 60, 55
2, 75588, Note_off_c, 0, 36, 64
2, 75588, Note_on_c, 0, 56, 63
2, 75592, Note_on_c, 0, 41, 54
2, 75597, Control_c, 0, 64, 0
2, 75599, Note_on_c, 0, 48, 40
2, 75656, Control_c, 0, 64, 127
2, 75665, Control_c, 0, 64, 0
2, 75717, Note_on_c, 0, 37, 57
2, 75724, Control_c, 0, 64, 127
2, 75741, Note_off_c, 0, 41, 64
2, 75759, Control_c, 0, 64, 0
2, 75781, Note_on_c, 0, 36, 52
2, 75809, Note_off_c, 0, 37, 64
2, 75827, Control_c, 0, 64, 0
2, 75836, Control_c, 0, 64, 127
2, 75904, Control_c, 0, 64, 127
2, 75977, Note_off_c, 0, 36, 64
2, 75981, Note_on_c, 0, 41, 54
2, 75985, Note_on_c, 0, 62, 60
2, 75991, Note_off_c, 0, 60, 64
2, 75993, Control_c, 0, 64, 0
2, 76049, Control_c, 0, 64, 127
2, 76061, Control_c, 0, 64, 0
2, 76117, Control_c, 0, 64, 127
2, 76175, Note_on_c, 0, 63, 60
2, 76180, Note_on_c, 0, 55, 52
2, 76183, Note_on_c, 0, 36, 57
2, 76185, Note_off_c, 0, 62, 64
2, 76193, Control_c, 0, 64, 0
2, 76194, Note_off_c, 0, 56, 64
2, 76201, Note_off_c, 0, 41, 64
2, 76215, Control_c, 0, 64, 127
2, 76227, Note_off_c, 0, 48, 64
2, 76261, Control_c, 0, 64, 0
2, 76277, Note_off_c, 0, 55, 64
2, 76283, Control_c, 0, 64, 127
2, 76291, Note_off_c, 0, 63, 64
2, 76325, Note_on_c, 0, 63, 63
2, 76357, Note_off_c, 0, 63, 64
2, 76378, Note_on_c, 0, 63, 63
2, 76380, Note_on_c, 0, 58, 74
2, 76380, Note_on_c, 0, 55, 42
2, 76391, Note_on_c, 0, 48, 54
2, 76406, Control_c, 0, 64, 0
2, 76474, Control_c, 0, 64, 0
2, 76484, Control_c, 0, 64, 127
2, 76485, Note_off_c, 0, 36, 64
2, 76552, Control_c, 0, 64, 127
2, 76629, Note_off_c, 0, 55, 64
2, 76642, Note_off_c, 0, 48, 64
2, 76680, Note_on_c, 0, 62, 54
2, 76681, Note_off_c, 0, 58, 64
2, 76700, Note_off_c, 0, 63, 64
2, 76780, Note_on_c, 0, 51, 59
2, 76782, Note_on_c, 0, 41, 57
2, 76784, Note_on_c, 0, 60, 63
2, 76795, Control_c, 0, 64, 0
2, 76800, Note_off_c, 0, 62, 64
2, 76832, Control_c, 0, 64, 127
2, 76863, Control_c, 0, 64, 0
2, 76900, Control_c, 0, 64, 127
2, 76900, Note_on_c, 0, 59, 46
2, 76906, Note_on_c, 0, 50, 52
2, 76915, Note_off_c, 0, 51, 64
2, 76919, Note_off_c, 0, 60, 64
2, 76947, Control_c, 0, 64, 0
2, 76956, Note_on_c, 0, 60, 63
2, 76960, Note_on_c, 0, 51, 70
2, 76970, Note_off_c, 0, 59, 64
2, 76976, Note_off_c, 0, 50, 64
2, 77015, Control_c, 0, 64, 0
2, 77031, Control_c, 0, 64, 127
2, 77099, Control_c, 0, 64, 127
2, 77144, Note_on_c, 0, 62, 65
2, 77148, Note_on_c, 0, 47, 58
2, 77149, Note_on_c, 0, 56, 60
2, 77152, Control_c, 0, 64, 0
2, 77161, Note_off_c, 0, 60, 64
2, 77165, Note_off_c, 0, 51, 64
2, 77204, Control_c, 0, 64, 127
2, 77220, Control_c, 0, 64, 0
2, 77272, Control_c, 0, 64, 127
2, 77346, Note_on_c, 0, 48, 72
2, 77352, Note_on_c, 0, 55, 70
2, 77353, Note_on_c, 0, 63, 70
2, 77359, Note_off_c, 0, 62, 64
2, 77362, Control_c, 0, 64, 0
2, 77363, Note_off_c, 0, 47, 64
2, 77364, Note_off_c, 0, 56, 64
2, 77401, Control_c, 0, 64, 127
2, 77430, Control_c, 0, 64, 0
2, 77469, Control_c, 0, 64, 127
2, 77473, Note_on_c, 0, 46, 63
2, 77483, Note_on_c, 0, 64, 65
2, 77483, Note_on_c, 0, 54, 77
2, 77496, Note_off_c, 0, 48, 64
2, 77496, Note_off_c, 0, 41, 64
2, 77502, Note_off_c, 0, 55, 64
2, 77503, Note_off_c, 0, 63, 64
2, 77536, Note_on_c, 0, 45, 48
2, 77539, Note_on_c, 0, 65, 64
2, 77543, Note_on_c, 0, 53, 81
2, 77548, Control_c, 0, 64, 0
2, 77552, Note_off_c, 0, 46, 64
2, 77554, Note_off_c, 0, 64, 64
2, 77562, Note_off_c, 0, 54, 64
2, 77595, Control_c, 0, 64, 127
2, 77616, Control_c, 0, 64, 0
2, 77663, Control_c, 0, 64, 127
2, 77690, Note_off_c, 0, 53, 64
2, 77698, Note_off_c, 0, 45, 64
2, 77706, Note_off_c, 0, 65, 64
2, 77739, Note_on_c, 0, 41, 65
2, 77772, Note_on_c, 0, 57, 70
2, 77774, Control_c, 0, 64, 0
2, 77780, Note_on_c, 0, 73, 88
2, 77780, Note_on_c, 0, 63, 87
2, 77830, Control_c, 0, 64, 127
2, 77842, Control_c, 0, 64, 0
2, 77898, Control_c, 0, 64, 127
2, 77976, Note_on_c, 0, 46, 57
2, 78001, Note_on_c, 0, 53, 52
2, 78015, Note_off_c, 0, 41, 64
2, 78017, Control_c, 0, 64, 0
2, 78023, Note_on_c, 0, 70, 72
2, 78027, Note_off_c, 0, 73, 64
2, 78027, Note_on_c, 0, 74, 74
2, 78029, Note_on_c, 0, 58, 72
2, 78031, Note_on_c, 0, 62, 78
2, 78033, Note_off_c, 0, 63, 64
2, 78057, Note_off_c, 0, 57, 64
2, 78068, Control_c, 0, 64, 127
2, 78085, Control_c, 0, 64, 0
2, 78096, Note_off_c, 0, 46, 64
2, 78125, Note_off_c, 0, 53, 64
2, 78136, Control_c, 0, 64, 127
2, 78140, Note_off_c, 0, 58, 64
2, 78180, Note_on_c, 0, 43, 60
2, 78226, Control_c, 0, 64, 0
2, 78238, Note_on_c, 0, 41, 78
2, 78269, Note_off_c, 0, 43, 64
2, 78275, Control_c, 0, 64, 127
2, 78294, Control_c, 0, 64, 0
2, 78343, Control_c, 0, 64, 127
2, 78428, Note_off_c, 0, 70, 64
2, 78433, Note_on_c, 0, 75, 71
2, 78434, Note_off_c, 0, 62, 64
2, 78436, Note_on_c, 0, 46, 63
2, 78440, Note_on_c, 0, 53, 58
2, 78441, Note_on_c, 0, 70, 66
2, 78442, Note_on_c, 0, 63, 78
2, 78452, Note_off_c, 0, 74, 64
2, 78457, Control_c, 0, 64, 0
2, 78494, Note_off_c, 0, 41, 64
2, 78497, Control_c, 0, 64, 127
2, 78525, Control_c, 0, 64, 0
2, 78565, Control_c, 0, 64, 127
2, 78610, Note_off_c, 0, 75, 64
2, 78615, Note_off_c, 0, 70, 64
2, 78616, Note_off_c, 0, 63, 64
2, 78625, Note_on_c, 0, 65, 69
2, 78625, Note_on_c, 0, 77, 69
2, 78626, Note_on_c, 0, 70, 71
2, 78629, Note_on_c, 0, 75, 66
2, 78740, Note_off_c, 0, 75, 64
2, 78741, Note_off_c, 0, 77, 64
2, 78741, Note_off_c, 0, 65, 64
2, 78748, Note_on_c, 0, 75, 74
2, 78752, Note_on_c, 0, 77, 74
2, 78752, Note_on_c, 0, 69, 72
2, 78752, Note_on_c, 0, 65, 64
2, 78752, Note_on_c, 0, 47, 64
2, 78762, Note_off_c, 0, 46, 64
2, 78765, Note_off_c, 0, 70, 64
2, 78784, Note_off_c, 0, 75, 64
2, 78788, Note_off_c, 0, 77, 64
2, 78793, Note_off_c, 0, 65, 64
2, 78803, Note_on_c, 0, 65, 63
2, 78803, Note_on_c, 0, 48, 65
2, 78809, Note_on_c, 0, 77, 72
2, 78809, Note_on_c, 0, 75, 71
2, 78809, Note_on_c, 0, 67, 64
2, 78815, Control_c, 0, 64, 0
2, 78821, Note_off_c, 0, 47, 64
2, 78823, Note_off_c, 0, 69, 64
2, 78854, Control_c, 0, 64, 127
2, 78867, Note_off_c, 0, 67, 64
2, 78883, Note_off_c, 0, 75, 64
2, 78883, Control_c, 0, 64, 0
2, 78919, Note_on_c, 0, 51, 88
2, 78922, Control_c, 0, 64, 127
2, 78942, Note_off_c, 0, 48, 64
2, 78978, Note_off_c, 0, 77, 64
2, 78978, Note_off_c, 0, 65, 64
2, 79008, Note_on_c, 0, 75, 69
2, 79008, Note_on_c, 0, 65, 58
2, 79009, Note_on_c, 0, 50, 81
2, 79012, Note_on_c, 0, 77, 66
2, 79012, Note_on_c, 0, 69, 69
2, 79027, Control_c, 0, 64, 0
2, 79028, Note_off_c, 0, 51, 64
2, 79057, Note_off_c, 0, 75, 64
2, 79061, Note_off_c, 0, 69, 64
2, 79066, Control_c, 0, 64, 127
2, 79095, Control_c, 0, 64, 0
2, 79117, Note_on_c, 0, 48, 65
2, 79124, Note_off_c, 0, 50, 64
2, 79134, Control_c, 0, 64, 127
2, 79143, Note_off_c, 0, 77, 64
2, 79145, Note_off_c, 0, 65, 64
2, 79188, Note_off_c, 0, 53, 64
2, 79212, Note_on_c, 0, 74, 82
2, 79215, Note_on_c, 0, 62, 63
2, 79216, Note_on_c, 0, 53, 58
2, 79216, Note_on_c, 0, 70, 80
2, 79221, Note_on_c, 0, 46, 88
2, 79227, Control_c, 0, 64, 0
2, 79241, Note_off_c, 0, 48, 64
2, 79249, Control_c, 0, 64, 127
2, 79290, Control_c, 0, 64, 127
2, 79295, Control_c, 0, 64, 0
2, 79317, Control_c, 0, 64, 127
2, 79335, Note_off_c, 0, 46, 64
2, 79336, Note_on_c, 0, 43, 64
2, 79358, Control_c, 0, 64, 127
2, 79387, Control_c, 0, 64, 0
2, 79398, Note_on_c, 0, 41, 78
2, 79426, Note_off_c, 0, 43, 64
2, 79428, Control_c, 0, 64, 127
2, 79455, Control_c, 0, 64, 0
2, 79496, Control_c, 0, 64, 127
2, 79589, Note_off_c, 0, 70, 64
2, 79598, Note_on_c, 0, 72, 72
2, 79601, Note_on_c, 0, 67, 66
2, 79604, Note_on_c, 0, 70, 77
2, 79604, Note_on_c, 0, 79, 74
2, 79607, Note_off_c, 0, 74, 64
2, 79610, Note_on_c, 0, 40, 69
2, 79612, Note_off_c, 0, 53, 64
2, 79614, Note_off_c, 0, 41, 64
2, 79614, Note_on_c, 0, 48, 63
2, 79620, Control_c, 0, 64, 0
2, 79626, Note_off_c, 0, 62, 64
2, 79652, Control_c, 0, 64, 127
2, 79688, Control_c, 0, 64, 0
2, 79720, Control_c, 0, 64, 127
2, 79778, Note_off_c, 0, 70, 64
2, 79785, Note_off_c, 0, 72, 64
2, 79794, Note_on_c, 0, 72, 72
2, 79798, Note_on_c, 0, 70, 72
2, 79803, Note_on_c, 0, 60, 71
2, 79804, Note_on_c, 0, 65, 66
2, 79807, Note_on_c, 0, 41, 66
2, 79813, Control_c, 0, 64, 0
2, 79819, Note_off_c, 0, 79, 64
2, 79824, Note_off_c, 0, 67, 64
2, 79830, Note_off_c, 0, 40, 64
2, 79834, Control_c, 0, 64, 127
2, 79881, Control_c, 0, 64, 0
2, 79898, Note_off_c, 0, 65, 64
2, 79900, Note_off_c, 0, 72, 64
2, 79902, Control_c, 0, 64, 127
2, 79912, Note_off_c, 0, 41, 64
2, 79912, Note_off_c, 0, 60, 64
2, 79931, Note_off_c, 0, 70, 64
2, 79931, Note_on_c, 0, 69, 59
2, 79931, Note_on_c, 0, 65, 66
2, 79937, Note_on_c, 0, 60, 64
2, 79941, Note_on_c, 0, 72, 64
2, 79942, Note_on_c, 0, 48, 58
2, 79944, Note_on_c, 0, 36, 77
2, 79961, Note_off_c, 0, 69, 64
2, 79963, Note_off_c, 0, 60, 64
2, 79968, Note_off_c, 0, 65, 64
2, 79970, Note_off_c, 0, 72, 64
2, 79983, Note_off_c, 0, 48, 64
2, 79987, Control_c, 0, 64, 0
2, 79988, Note_on_c, 0, 65, 88
2, 79994, Note_on_c, 0, 67, 77
2, 79994, Note_on_c, 0, 60, 72
2, 79999, Note_off_c, 0, 36, 64
2, 79999, Note_on_c, 0, 48, 55
2, 80001, Note_on_c, 0, 72, 66
2, 80004, Note_on_c, 0, 41, 80
2, 80055, Control_c, 0, 64, 0
2, 80059, Control_c, 0, 64, 127
2, 80115, Note_off_c, 0, 72, 64
2, 80127, Control_c, 0, 64, 127
2, 80129, Note_off_c, 0, 65, 64
2, 80134, Note_off_c, 0, 60, 64
2, 80141, Note_off_c, 0, 67, 64
2, 80158, Note_off_c, 0, 48, 64
2, 80161, Note_off_c, 0, 41, 64
2, 80209, Note_on_c, 0, 69, 72
2, 80212, Note_on_c, 0, 60, 72
2, 80212, Note_on_c, 0, 48, 66
2, 80216, Note_on_c, 0, 72, 69
2, 80218, Note_on_c, 0, 65, 70
2, 80218, Note_on_c, 0, 36, 78
2, 80229, Control_c, 0, 64, 0
2, 80278, Control_c, 0, 64, 127
2, 80297, Control_c, 0, 64, 0
2, 80346, Control_c, 0, 64, 127
2, 80351, Note_off_c, 0, 69, 64
2, 80357, Note_off_c, 0, 48, 64
2, 80359, Note_off_c, 0, 65, 64
2, 80362, Note_off_c, 0, 72, 64
2, 80364, Note_off_c, 0, 36, 64
2, 80364, Note_off_c, 0, 60, 64
2, 80439, Note_on_c, 0, 65, 72
2, 80439, Note_on_c, 0, 68, 88
2, 80442, Note_on_c, 0, 60, 72
2, 80446, Note_on_c, 0, 72, 74
2, 80451, Note_on_c, 0, 48, 66
2, 80451, Note_on_c, 0, 41, 65
2, 80459, Control_c, 0, 64, 0
2, 80524, Control_c, 0, 64, 127
2, 80527, Control_c, 0, 64, 0
2, 80590, Note_on_c, 0, 37, 64
2, 80592, Control_c, 0, 64, 127
2, 80596, Note_off_c, 0, 41, 64
2, 80619, Control_c, 0, 64, 0
2, 80658, Note_on_c, 0, 36, 78
2, 80680, Control_c, 0, 64, 127
2, 80686, Note_off_c, 0, 37, 64
2, 80687, Control_c, 0, 64, 0
2, 80748, Control_c, 0, 64, 127
2, 80846, Note_off_c, 0, 68, 64
2, 80870, Note_on_c, 0, 68, 64
2, 80873, Note_on_c, 0, 62, 66
2, 80873, Note_on_c, 0, 41, 65
2, 80878, Note_on_c, 0, 74, 70
2, 80878, Note_on_c, 0, 48, 63
2, 80887, Control_c, 0, 64, 0
2, 80888, Note_off_c, 0, 65, 64
2, 80893, Note_off_c, 0, 36, 64
2, 80910, Note_off_c, 0, 60, 64
2, 80911, Note_off_c, 0, 72, 64
2, 80925, Control_c, 0, 64, 127
2, 80955, Control_c, 0, 64, 0
2, 80993, Control_c, 0, 64, 127
2, 81034, Note_off_c, 0, 48, 64
2, 81034, Note_off_c, 0, 48, 64
2, 81060, Note_off_c, 0, 48, 64
2, 81077, Note_on_c, 0, 75, 72
2, 81077, Control_c, 0, 64, 0
2, 81086, Note_off_c, 0, 41, 64
2, 81087, Note_on_c, 0, 67, 70
2, 81089, Note_on_c, 0, 36, 65
2, 81089, Note_on_c, 0, 63, 80
2, 81092, Note_on_c, 0, 48, 66
2, 81100, Note_off_c, 0, 68, 64
2, 81101, Note_off_c, 0, 74, 64
2, 81103, Note_off_c, 0, 62, 64
2, 81118, Control_c, 0, 64, 127
2, 81145, Control_c, 0, 64, 0
2, 81186, Control_c, 0, 64, 127
2, 81190, Note_off_c, 0, 36, 64
2, 81201, Note_off_c, 0, 67, 64
2, 81210, Note_off_c, 0, 63, 64
2, 81220, Note_off_c, 0, 75, 64
2, 81222, Note_off_c, 0, 48, 64
2, 81264, Note_on_c, 0, 55, 67
2, 81264, Note_on_c, 0, 48, 67
2, 81268, Note_on_c, 0, 63, 79
2, 81299, Note_off_c, 0, 48, 64
2, 81303, Note_off_c, 0, 63, 64
2, 81320, Note_on_c, 0, 63, 87
2, 81322, Note_on_c, 0, 48, 67
2, 81323, Note_on_c, 0, 54, 74
2, 81328, Note_off_c, 0, 55, 64
2, 81338, Control_c, 0, 64, 0
2, 81406, Control_c, 0, 64, 0
2, 81411, Control_c, 0, 64, 127
2, 81479, Control_c, 0, 64, 127
2, 81652, Note_on_c, 0, 62, 58
2, 81654, Note_on_c, 0, 55, 54
2, 81658, Note_on_c, 0, 47, 37
2, 81659, Note_off_c, 0, 54, 64
2, 81663, Note_off_c, 0, 63, 64
2, 81670, Note_off_c, 0, 48, 64
2, 81760, Note_on_c, 0, 65, 59
2, 81764, Note_on_c, 0, 50, 55
2, 81766, Note_on_c, 0, 56, 63
2, 81771, Note_off_c, 0, 62, 64
2, 81777, Note_off_c, 0, 47, 64
2, 81778, Control_c, 0, 64, 0
2, 81788, Note_off_c, 0, 55, 64
2, 81809, Control_c, 0, 64, 127
2, 81846, Control_c, 0, 64, 0
2, 81877, Control_c, 0, 64, 127
2, 81908, Note_on_c, 0, 64, 55
2, 81908, Note_on_c, 0, 49, 59
2, 81910, Note_on_c, 0, 57, 69
2, 81922, Note_off_c, 0, 65, 64
2, 81925, Note_off_c, 0, 50, 64
2, 81927, Note_off_c, 0, 56, 64
2, 81974, Control_c, 0, 64, 0
2, 81976, Note_on_c, 0, 67, 65
2, 81976, Note_on_c, 0, 52, 54
2, 81980, Note_on_c, 0, 58, 69
2, 81989, Note_off_c, 0, 49, 64
2, 81989, Note_off_c, 0, 64, 64
2, 81991, Note_off_c, 0, 57, 64
2, 82042, Control_c, 0, 64, 0
2, 82098, Control_c, 0, 64, 127
2, 82166, Control_c, 0, 64, 127
2, 82292, Note_on_c, 0, 66, 64
2, 82296, Note_on_c, 0, 59, 66
2, 82296, Note_on_c, 0, 51, 58
2, 82301, Note_off_c, 0, 52, 64
2, 82301, Note_off_c, 0, 67, 64
2, 82308, Note_off_c, 0, 58, 64
2, 82397, Note_on_c, 0, 54, 60
2, 82403, Note_on_c, 0, 69, 66
2, 82407, Note_on_c, 0, 60, 72
2, 82408, Note_off_c, 0, 51, 64
2, 82412, Note_off_c, 0, 59, 64
2, 82416, Note_off_c, 0, 66, 64
2, 82419, Control_c, 0, 64, 0
2, 82449, Control_c, 0, 64, 127
2, 82487, Control_c, 0, 64, 0
2, 82517, Control_c, 0, 64, 127
2, 82528, Note_on_c, 0, 61, 63
2, 82532, Note_on_c, 0, 68, 64
2, 82532, Note_on_c, 0, 53, 65
2, 82554, Note_off_c, 0, 60, 64
2, 82562, Note_off_c, 0, 69, 64
2, 82566, Note_off_c, 0, 54, 64
2, 82580, Note_on_c, 0, 62, 69
2, 82584, Note_on_c, 0, 65, 69
2, 82584, Note_on_c, 0, 71, 69
2, 82586, Note_on_c, 0, 56, 69
2, 82592, Control_c, 0, 64, 0
2, 82596, Note_off_c, 0, 68, 64
2, 82599, Note_off_c, 0, 61, 64
2, 82603, Note_off_c, 0, 53, 64
2, 82616, Control_c, 0, 64, 0
2, 82684, Control_c, 0, 64, 0
2, 82701, Control_c, 0, 64, 127
2, 82769, Control_c, 0, 64, 127
2, 82910, Note_on_c, 0, 55, 72
2, 82913, Control_c, 0, 64, 0
2, 82934, Note_off_c, 0, 56, 64
2, 82934, Control_c, 0, 64, 127
2, 82981, Control_c, 0, 64, 0
2, 83002, Control_c, 0, 64, 127
2, 83047, Note_off_c, 0, 62, 64
2, 83047, Note_on_c, 0, 67, 80
2, 83051, Note_off_c, 0, 65, 64
2, 83064, Control_c, 0, 64, 0
2, 83113, Control_c, 0, 64, 127
2, 83126, Note_off_c, 0, 71, 64
2, 83132, Control_c, 0, 64, 0
2, 83181, Control_c, 0, 64, 127
2, 83198, Note_off_c, 0, 55, 64
2, 83312, Note_on_c, 0, 65, 60
2, 83325, Control_c, 0, 64, 0
2, 83338, Control_c, 0, 64, 127
2, 83393, Control_c, 0, 64, 0
2, 83406, Control_c, 0, 64, 127
2, 83417, Note_on_c, 0, 63, 47
2, 83418, Note_on_c, 0, 72, 63
2, 83428, Note_off_c, 0, 65, 64
2, 83499, Note_on_c, 0, 62, 52
2, 83500, Note_on_c, 0, 71, 54
2, 83502, Note_on_c, 0, 74, 58
2, 83518, Note_off_c, 0, 63, 64
2, 83519, Note_off_c, 0, 72, 64
2, 83574, Note_on_c, 0, 75, 69
2, 83574, Note_on_c, 0, 72, 69
2, 83579, Note_off_c, 0, 62, 64
2, 83584, Note_on_c, 0, 60, 49
2, 83593, Note_off_c, 0, 74, 64
2, 83603, Note_off_c, 0, 71, 64
2, 83660, Note_on_c, 0, 62, 69
2, 83660, Control_c, 0, 64, 0
2, 83667, Note_on_c, 0, 77, 69
2, 83667, Note_on_c, 0, 71, 52
2, 83677, Note_off_c, 0, 60, 64
2, 83680, Note_off_c, 0, 72, 64
2, 83680, Note_off_c, 0, 75, 64
2, 83713, Control_c, 0, 64, 127
2, 83728, Control_c, 0, 64, 0
2, 83781, Note_off_c, 0, 62, 64
2, 83781, Control_c, 0, 64, 127
2, 83787, Note_on_c, 0, 79, 59
2, 83787, Note_on_c, 0, 55, 63
2, 83788, Note_off_c, 0, 71, 64
2, 83788, Note_off_c, 0, 77, 64
2, 83818, Note_on_c, 0, 62, 60
2, 83824, Note_on_c, 0, 71, 57
2, 83827, Note_on_c, 0, 77, 65
2, 83836, Note_off_c, 0, 55, 64
2, 83844, Note_off_c, 0, 79, 64
2, 83847, Control_c, 0, 64, 0
2, 83893, Control_c, 0, 64, 127
2, 83915, Control_c, 0, 64, 0
2, 83961, Control_c, 0, 64, 127
2, 84020, Note_on_c, 0, 75, 65
2, 84024, Note_on_c, 0, 72, 58
2, 84030, Note_on_c, 0, 60, 55
2, 84050, Control_c, 0, 64, 0
2, 84053, Note_off_c, 0, 62, 64
2, 84059, Note_off_c, 0, 71, 64
2, 84062, Note_off_c, 0, 77, 64
2, 84089, Control_c, 0, 64, 127
2, 84118, Control_c, 0, 64, 0
2, 84157, Control_c, 0, 64, 127
2, 84168, Note_off_c, 0, 60, 64
2, 84203, Note_off_c, 0, 72, 64
2, 84207, Note_off_c, 0, 75, 64
2, 84212, Note_on_c, 0, 77, 57
2, 84218, Note_on_c, 0, 71, 54
2, 84218, Note_on_c, 0, 62, 36
2, 84226, Control_c, 0, 64, 0
2, 84265, Control_c, 0, 64, 127
2, 84294, Control_c, 0, 64, 0
2, 84333, Control_c, 0, 64, 127
2, 84354, Note_off_c, 0, 77, 64
2, 84363, Note_on_c, 0, 55, 47
2, 84364, Note_off_c, 0, 62, 64
2, 84370, Note_off_c, 0, 71, 64
2, 84371, Note_on_c, 0, 79, 47
2, 84419, Note_on_c, 0, 77, 55
2, 84423, Note_off_c, 0, 79, 64
2, 84423, Note_on_c, 0, 71, 51
2, 84429, Note_on_c, 0, 62, 46
2, 84432, Note_off_c, 0, 55, 64
2, 84436, Control_c, 0, 64, 0
2, 84475, Control_c, 0, 64, 127
2, 84504, Control_c, 0, 64, 0
2, 84543, Control_c, 0, 64, 127
2, 84695, Note_on_c, 0, 60, 26
2, 84700, Note_on_c, 0, 72, 41
2, 84704, Note_on_c, 0, 75, 34
2, 84707, Note_off_c, 0, 71, 64
2, 84713, Note_off_c, 0, 62, 64
2, 84729, Control_c, 0, 64, 0
2, 84745, Note_off_c, 0, 77, 64
2, 84785, Control_c, 0, 64, 127
2, 84797, Control_c, 0, 64, 0
2, 84853, Control_c, 0, 64, 127
2, 84906, Note_off_c, 0, 75, 64
2, 84937, Note_off_c, 0, 72, 64
2, 84978, Note_off_c, 0, 60, 64
2, 85120, Note_off_c, 0, 67, 64
2, 85120, Note_on_c, 0, 59, 47
2, 85171, Control_c, 0, 64, 0
2, 85208, Note_on_c, 0, 60, 46
2, 85220, Control_c, 0, 64, 127
2, 85238, Note_off_c, 0, 59, 64
2, 85239, Control_c, 0, 64, 0
2, 85288, Control_c, 0, 64, 127
2, 85309, Note_on_c, 0, 62, 48
2, 85325, Note_off_c, 0, 60, 64
2, 85390, Note_on_c, 0, 63, 48
2, 85404, Note_off_c, 0, 62, 64
2, 85408, Control_c, 0, 64, 0
2, 85476, Control_c, 0, 64, 0
2, 85496, Note_on_c, 0, 62, 42
2, 85508, Note_off_c, 0, 63, 64
2, 85519, Control_c, 0, 64, 127
2, 85587, Control_c, 0, 64, 127
2, 85715, Note_on_c, 0, 60, 51
2, 85752, Control_c, 0, 64, 0
2, 85781, Control_c, 0, 64, 127
2, 85784, Note_on_c, 0, 58, 52
2, 85786, Note_on_c, 0, 67, 56
2, 85820, Control_c, 0, 64, 0
2, 85822, Note_off_c, 0, 60, 64
2, 85849, Control_c, 0, 64, 127
2, 85876, Note_on_c, 0, 57, 54
2, 85883, Note_on_c, 0, 69, 37
2, 85883, Note_on_c, 0, 66, 31
2, 85912, Note_off_c, 0, 58, 64
2, 85914, Note_off_c, 0, 67, 64
2, 85948, Note_on_c, 0, 55, 51
2, 85951, Note_on_c, 0, 70, 65
2, 85951, Note_on_c, 0, 67, 65
2, 85979, Note_off_c, 0, 57, 64
2, 85981, Note_off_c, 0, 69, 64
2, 85986, Note_off_c, 0, 66, 64
2, 86044, Note_on_c, 0, 66, 59
2, 86045, Note_on_c, 0, 57, 63
2, 86049, Note_on_c, 0, 72, 54
2, 86052, Control_c, 0, 64, 0
2, 86056, Note_off_c, 0, 55, 64
2, 86059, Note_off_c, 0, 67, 64
2, 86059, Note_off_c, 0, 70, 64
2, 86102, Control_c, 0, 64, 127
2, 86120, Control_c, 0, 64, 0
2, 86146, Note_off_c, 0, 57, 64
2, 86170, Control_c, 0, 64, 127
2, 86173, Note_on_c, 0, 50, 69
2, 86177, Note_off_c, 0, 72, 64
2, 86178, Note_off_c, 0, 66, 64
2, 86182, Note_on_c, 0, 74, 57
2, 86220, Note_on_c, 0, 72, 55
2, 86226, Note_on_c, 0, 66, 60
2, 86229, Note_on_c, 0, 57, 52
2, 86236, Note_off_c, 0, 74, 64
2, 86238, Control_c, 0, 64, 0
2, 86241, Note_off_c, 0, 50, 64
2, 86285, Control_c, 0, 64, 127
2, 86306, Control_c, 0, 64, 0
2, 86353, Control_c, 0, 64, 127
2, 86403, Note_on_c, 0, 70, 63
2, 86408, Note_on_c, 0, 55, 58
2, 86409, Note_on_c, 0, 67, 58
2, 86413, Note_off_c, 0, 66, 64
2, 86418, Note_off_c, 0, 57, 64
2, 86423, Control_c, 0, 64, 0
2, 86432, Note_off_c, 0, 72, 64
2, 86471, Control_c, 0, 64, 127
2, 86491, Control_c, 0, 64, 0
2, 86539, Control_c, 0, 64, 127
2, 86576, Note_on_c, 0, 72, 64
2, 86578, Note_on_c, 0, 57, 54
2, 86580, Note_on_c, 0, 66, 60
2, 86588, Control_c, 0, 64, 0
2, 86600, Note_off_c, 0, 70, 64
2, 86605, Note_off_c, 0, 55, 64
2, 86606, Note_off_c, 0, 67, 64
2, 86638, Control_c, 0, 64, 127
2, 86656, Control_c, 0, 64, 0
2, 86705, Note_off_c, 0, 66, 64
2, 86706, Control_c, 0, 64, 127
2, 86713, Note_on_c, 0, 74, 54
2, 86714, Note_on_c, 0, 50, 59
2, 86718, Note_off_c, 0, 72, 64
2, 86719, Note_off_c, 0, 57, 64
2, 86753, Note_on_c, 0, 72, 63
2, 86753, Note_on_c, 0, 66, 69
2, 86759, Control_c, 0, 64, 0
2, 86765, Note_on_c, 0, 57, 66
2, 86768, Note_off_c, 0, 74, 64
2, 86782, Note_off_c, 0, 50, 64
2, 86804, Control_c, 0, 64, 127
2, 86827, Control_c, 0, 64, 0
2, 86872, Control_c, 0, 64, 127
2, 86942, Note_on_c, 0, 70, 63
2, 86946, Note_on_c, 0, 67, 57
2, 86950, Note_on_c, 0, 55, 59
2, 86956, Control_c, 0, 64, 0
2, 86959, Note_off_c, 0, 72, 64
2, 86963, Note_off_c, 0, 66, 64
2, 86966, Note_off_c, 0, 57, 64
2, 86988, Control_c, 0, 64, 127
2, 87024, Control_c, 0, 64, 0
2, 87056, Control_c, 0, 64, 127
2, 87179, Note_off_c, 0, 67, 64
2, 87181, Note_on_c, 0, 68, 59
2, 87184, Note_on_c, 0, 63, 57
2, 87187, Note_on_c, 0, 60, 55
2, 87189, Note_off_c, 0, 70, 64
2, 87197, Control_c, 0, 64, 0
2, 87198, Note_off_c, 0, 62, 64
2, 87265, Control_c, 0, 64, 0
2, 87272, Control_c, 0, 64, 127
2, 87340, Control_c, 0, 64, 127
2, 87689, Note_on_c, 0, 66, 41
2, 87704, Note_off_c, 0, 63, 64
2, 87706, Note_off_c, 0, 68, 64
2, 87766, Note_off_c, 0, 60, 64
2, 87969, Note_on_c, 0, 67, 43
2, 87973, Note_on_c, 0, 62, 41
2, 87977, Note_on_c, 0, 59, 32
2, 87982, Note_off_c, 0, 66, 64
2, 87992, Control_c, 0, 64, 0
2, 88055, Control_c, 0, 64, 127
2, 88060, Control_c, 0, 64, 0
2, 88123, Control_c, 0, 64, 127
2, 88188, Note_off_c, 0, 62, 64
2, 88232, Note_on_c, 0, 53, 47
2, 88257, Note_off_c, 0, 59, 64
2, 88303, Note_off_c, 0, 67, 64
2, 88317, Note_on_c, 0, 51, 48
2, 88318, Note_on_c, 0, 60, 55
2, 88337, Note_off_c, 0, 53, 64
2, 88398, Note_on_c, 0, 50, 48
2, 88406, Note_on_c, 0, 62, 51
2, 88408, Note_on_c, 0, 59, 58
2, 88414, Note_off_c, 0, 51, 64
2, 88415, Note_off_c, 0, 60, 64
2, 88476, Note_on_c, 0, 60, 28
2, 88477, Note_on_c, 0, 63, 46
2, 88486, Note_on_c, 0, 48, 52
2, 88496, Control_c, 0, 64, 0
2, 88499, Note_off_c, 0, 50, 64
2, 88507, Note_off_c, 0, 62, 64
2, 88509, Note_off_c, 0, 59, 64
2, 88529, Control_c, 0, 64, 127
2, 88564, Control_c, 0, 64, 0
2, 88575, Note_on_c, 0, 65, 59
2, 88575, Note_on_c, 0, 50, 57
2, 88581, Note_on_c, 0, 59, 66
2, 88586, Note_off_c, 0, 60, 64
2, 88587, Note_off_c, 0, 63, 64
2, 88588, Control_c, 0, 64, 0
2, 88591, Note_off_c, 0, 48, 64
2, 88597, Control_c, 0, 64, 127
2, 88635, Control_c, 0, 64, 127
2, 88656, Control_c, 0, 64, 0
2, 88700, Note_on_c, 0, 43, 57
2, 88702, Note_on_c, 0, 67, 58
2, 88703, Control_c, 0, 64, 127
2, 88716, Note_off_c, 0, 50, 64
2, 88716, Note_off_c, 0, 65, 64
2, 88722, Note_off_c, 0, 59, 64
2, 88743, Control_c, 0, 64, 0
2, 88749, Note_on_c, 0, 65, 59
2, 88752, Note_on_c, 0, 59, 63
2, 88752, Note_on_c, 0, 50, 54
2, 88761, Note_off_c, 0, 67, 64
2, 88792, Note_off_c, 0, 43, 64
2, 88810, Control_c, 0, 64, 127
2, 88811, Control_c, 0, 64, 0
2, 88878, Control_c, 0, 64, 127
2, 88928, Note_on_c, 0, 48, 51
2, 88930, Note_on_c, 0, 63, 60
2, 88933, Note_on_c, 0, 60, 60
2, 88952, Control_c, 0, 64, 0
2, 88958, Note_off_c, 0, 65, 64
2, 88961, Note_off_c, 0, 50, 64
2, 88961, Note_off_c, 0, 59, 64
2, 89013, Control_c, 0, 64, 127
2, 89020, Control_c, 0, 64, 0
2, 89081, Control_c, 0, 64, 127
2, 89096, Note_off_c, 0, 60, 64
2, 89109, Note_off_c, 0, 63, 64
2, 89110, Note_on_c, 0, 59, 55
2, 89110, Note_on_c, 0, 50, 47
2, 89113, Note_off_c, 0, 48, 64
2, 89118, Note_on_c, 0, 65, 52
2, 89122, Control_c, 0, 64, 0
2, 89162, Control_c, 0, 64, 127
2, 89190, Control_c, 0, 64, 0
2, 89230, Control_c, 0, 64, 127
2, 89244, Note_on_c, 0, 43, 54
2, 89245, Note_off_c, 0, 50, 64
2, 89245, Note_off_c, 0, 59, 64
2, 89247, Note_on_c, 0, 67, 51
2, 89253, Note_off_c, 0, 65, 64
2, 89293, Note_on_c, 0, 59, 57
2, 89296, Note_on_c, 0, 50, 51
2, 89299, Note_on_c, 0, 65, 54
2, 89301, Control_c, 0, 64, 0
2, 89308, Note_off_c, 0, 67, 64
2, 89336, Note_off_c, 0, 43, 64
2, 89350, Control_c, 0, 64, 127
2, 89369, Control_c, 0, 64, 0
2, 89418, Control_c, 0, 64, 127
2, 89506, Note_on_c, 0, 63, 54
2, 89506, Note_on_c, 0, 48, 52
2, 89511, Note_on_c, 0, 60, 54
2, 89512, Note_off_c, 0, 50, 64
2, 89522, Control_c, 0, 64, 0
2, 89535, Note_off_c, 0, 59, 64
2, 89541, Note_off_c, 0, 65, 64
2, 89573, Control_c, 0, 64, 127
2, 89590, Control_c, 0, 64, 0
2, 89641, Control_c, 0, 64, 127
2, 89771, Note_off_c, 0, 63, 64
2, 89808, Note_off_c, 0, 60, 64
2, 89823, Note_off_c, 0, 48, 64
2, 89848, Note_on_c, 0, 48, 63
2, 89856, Note_off_c, 0, 55, 64
2, 89881, Note_on_c, 0, 50, 64
2, 89889, Note_off_c, 0, 48, 64
2, 89916, Note_on_c, 0, 48, 63
2, 89936, Note_off_c, 0, 50, 64
2, 89953, Control_c, 0, 64, 0
2, 89968, Note_on_c, 0, 47, 60
2, 89980, Note_off_c, 0, 48, 64
2, 90021, Control_c, 0, 64, 0
2, 90056, Note_on_c, 0, 48, 65
2, 90080, Note_off_c, 0, 47, 64
2, 90155, Note_on_c, 0, 50, 58
2, 90191, Note_off_c, 0, 48, 64
2, 90227, Note_on_c, 0, 51, 58
2, 90253, Note_off_c, 0, 50, 64
2, 90312, Note_on_c, 0, 50, 64
2, 90329, Note_off_c, 0, 51, 64
2, 90403, Note_on_c, 0, 52, 70
2, 90407, Note_on_c, 0, 49, 72
2, 90424, Note_off_c, 0, 50, 64
2, 90488, Note_on_c, 0, 48, 63
2, 90490, Note_on_c, 0, 54, 74
2, 90501, Control_c, 0, 64, 127
2, 90511, Note_off_c, 0, 52, 64
2, 90515, Note_off_c, 0, 49, 64
2, 90565, Note_on_c, 0, 55, 64
2, 90569, Control_c, 0, 64, 127
2, 90570, Note_on_c, 0, 46, 66
2, 90584, Note_off_c, 0, 48, 64
2, 90586, Note_off_c, 0, 54, 64
2, 90617, Control_c, 0, 64, 0
2, 90648, Note_on_c, 0, 57, 57
2, 90652, Note_on_c, 0, 54, 57
2, 90656, Note_on_c, 0, 45, 60
2, 90660, Note_off_c, 0, 55, 64
2, 90665, Note_off_c, 0, 46, 64
2, 90685, Control_c, 0, 64, 0
2, 90730, Note_on_c, 0, 58, 57
2, 90730, Note_on_c, 0, 55, 57
2, 90732, Note_on_c, 0, 43, 51
2, 90745, Note_off_c, 0, 45, 64
2, 90747, Note_off_c, 0, 57, 64
2, 90751, Note_off_c, 0, 54, 64
2, 90826, Note_on_c, 0, 57, 69
2, 90830, Note_on_c, 0, 53, 64
2, 90832, Note_on_c, 0, 45, 80
2, 90841, Note_off_c, 0, 55, 64
2, 90841, Note_off_c, 0, 58, 64
2, 90843, Note_off_c, 0, 43, 64
2, 90858, Control_c, 0, 64, 127
2, 90919, Note_off_c, 0, 57, 64
2, 90926, Note_off_c, 0, 45, 64
2, 90926, Control_c, 0, 64, 127
2, 90928, Note_off_c, 0, 53, 64
2, 90947, Note_on_c, 0, 52, 81
2, 90950, Note_on_c, 0, 61, 74
2, 90954, Note_on_c, 0, 33, 81
2, 91000, Note_on_c, 0, 50, 89
2, 91000, Note_on_c, 0, 62, 80
2, 91004, Note_on_c, 0, 38, 89
2, 91014, Note_off_c, 0, 52, 64
2, 91017, Note_off_c, 0, 61, 64
2, 91032, Note_off_c, 0, 33, 64
2, 91038, Control_c, 0, 64, 0
2, 91106, Control_c, 0, 64, 0
2, 91157, Control_c, 0, 64, 127
2, 91179, Note_off_c, 0, 62, 64
2, 91202, Note_off_c, 0, 50, 64
2, 91206, Note_off_c, 0, 38, 64
2, 91225, Control_c, 0, 64, 127
2, 91438, Control_c, 0, 64, 0
2, 91447, Note_on_c, 0, 57, 51
2, 91450, Note_on_c, 0, 50, 48
2, 91450, Note_on_c, 0, 69, 54
2, 91450, Note_on_c, 0, 65, 51
2, 91486, Control_c, 0, 64, 127
2, 91506, Control_c, 0, 64, 0
2, 91554, Control_c, 0, 64, 127
2, 91575, Note_on_c, 0, 73, 54
2, 91579, Note_on_c, 0, 55, 51
2, 91583, Note_on_c, 0, 64, 59
2, 91589, Note_off_c, 0, 57, 64
2, 91592, Note_off_c, 0, 65, 64
2, 91592, Note_off_c, 0, 69, 64
2, 91640, Note_on_c, 0, 74, 55
2, 91640, Note_on_c, 0, 62, 60
2, 91640, Note_on_c, 0, 53, 55
2, 91651, Note_off_c, 0, 55, 64
2, 91653, Control_c, 0, 64, 0
2, 91657, Note_off_c, 0, 73, 64
2, 91665, Note_off_c, 0, 64, 64
2, 91721, Control_c, 0, 64, 0
2, 91729, Control_c, 0, 64, 127
2, 91797, Control_c, 0, 64, 127
2, 91995, Note_off_c, 0, 53, 64
2, 91995, Note_off_c, 0, 62, 64
2, 91995, Note_off_c, 0, 74, 64
2, 92074, Control_c, 0, 64, 0
2, 92083, Note_on_c, 0, 65, 36
2, 92083, Note_on_c, 0, 57, 36
2, 92086, Note_on_c, 0, 69, 42
2, 92119, Control_c, 0, 64, 127
2, 92142, Control_c, 0, 64, 0
2, 92187, Control_c, 0, 64, 127
2, 92240, Note_on_c, 0, 73, 46
2, 92243, Note_on_c, 0, 64, 51
2, 92256, Note_on_c, 0, 55, 32
2, 92266, Note_off_c, 0, 57, 64
2, 92266, Note_off_c, 0, 65, 64
2, 92269, Note_off_c, 0, 69, 64
2, 92300, Note_on_c, 0, 62, 51
2, 92304, Note_on_c, 0, 53, 40
2, 92306, Note_on_c, 0, 74, 47
2, 92315, Note_off_c, 0, 73, 64
2, 92318, Note_off_c, 0, 64, 64
2, 92326, Control_c, 0, 64, 0
2, 92331, Note_off_c, 0, 55, 64
2, 92394, Control_c, 0, 64, 0
2, 92430, Control_c, 0, 64, 127
2, 92498, Control_c, 0, 64, 127
2, 92637, Note_off_c, 0, 62, 64
2, 92641, Note_off_c, 0, 53, 64
2, 92643, Note_off_c, 0, 74, 64
2, 92692, Note_on_c, 0, 57, 57
2, 92694, Note_on_c, 0, 69, 60
2, 92695, Control_c, 0, 64, 0
2, 92746, Control_c, 0, 64, 127
2, 92763, Control_c, 0, 64, 0
2, 92805, Note_on_c, 0, 60, 57
2, 92809, Note_off_c, 0, 69, 64
2, 92810, Note_off_c, 0, 57, 64
2, 92811, Note_on_c, 0, 72, 58
2, 92814, Control_c, 0, 64, 127
2, 92846, Note_off_c, 0, 72, 64
2, 92902, Note_on_c, 0, 72, 72
2, 92936, Note_off_c, 0, 60, 64
2, 92936, Note_on_c, 0, 58, 52
2, 92943, Note_on_c, 0, 70, 64
2, 92947, Note_off_c, 0, 72, 64
2, 92970, Control_c, 0, 64, 0
2, 92976, Note_on_c, 0, 72, 77
2, 92983, Note_off_c, 0, 70, 64
2, 93010, Note_on_c, 0, 70, 64
2, 93022, Control_c, 0, 64, 127
2, 93029, Note_off_c, 0, 72, 64
2, 93038, Control_c, 0, 64, 0
2, 93090, Control_c, 0, 64, 127
2, 93094, Note_on_c, 0, 69, 66
2, 93095, Note_off_c, 0, 70, 64
2, 93104, Note_on_c, 0, 57, 58
2, 93107, Note_off_c, 0, 58, 64
2, 93133, Control_c, 0, 64, 0
2, 93180, Control_c, 0, 64, 127
2, 93186, Note_on_c, 0, 67, 72
2, 93193, Note_on_c, 0, 55, 54
2, 93196, Note_off_c, 0, 69, 64
2, 93201, Control_c, 0, 64, 0
2, 93209, Note_off_c, 0, 57, 64
2, 93248, Control_c, 0, 64, 127
2, 93275, Note_on_c, 0, 69, 64
2, 93280, Note_on_c, 0, 57, 60
2, 93284, Note_off_c, 0, 55, 64
2, 93284, Control_c, 0, 64, 0
2, 93291, Note_off_c, 0, 67, 64
2, 93352, Control_c, 0, 64, 0
2, 93352, Control_c, 0, 64, 127
2, 93420, Control_c, 0, 64, 127
2, 93420, Note_on_c, 0, 52, 57
2, 93424, Note_on_c, 0, 64, 60
2, 93434, Note_off_c, 0, 69, 64
2, 93458, Control_c, 0, 64, 0
2, 93470, Note_on_c, 0, 65, 57
2, 93472, Note_on_c, 0, 53, 48
2, 93480, Note_off_c, 0, 52, 64
2, 93484, Note_off_c, 0, 64, 64
2, 93522, Control_c, 0, 64, 127
2, 93526, Control_c, 0, 64, 0
2, 93590, Control_c, 0, 64, 127
2, 93609, Note_off_c, 0, 50, 64
2, 93648, Control_c, 0, 64, 0
2, 93656, Note_off_c, 0, 65, 64
2, 93658, Note_on_c, 0, 50, 57
2, 93663, Note_on_c, 0, 62, 58
2, 93674, Note_off_c, 0, 53, 64
2, 93686, Control_c, 0, 64, 127
2, 93694, Note_off_c, 0, 57, 64
2, 93716, Control_c, 0, 64, 0
2, 93754, Control_c, 0, 64, 127
2, 93830, Note_off_c, 0, 62, 64
2, 93831, Note_on_c, 0, 69, 63
2, 93837, Control_c, 0, 64, 0
2, 93841, Note_on_c, 0, 57, 58
2, 93869, Control_c, 0, 64, 127
2, 93905, Control_c, 0, 64, 0
2, 93928, Note_on_c, 0, 72, 66
2, 93929, Note_off_c, 0, 69, 64
2, 93937, Control_c, 0, 64, 127
2, 93944, Note_on_c, 0, 60, 55
2, 93957, Note_off_c, 0, 57, 64
2, 93968, Note_off_c, 0, 72, 64
2, 94024, Note_on_c, 0, 72, 74
2, 94056, Note_on_c, 0, 58, 32
2, 94062, Note_on_c, 0, 70, 77
2, 94063, Control_c, 0, 64, 0
2, 94070, Note_off_c, 0, 72, 64
2, 94078, Note_off_c, 0, 60, 64
2, 94093, Note_on_c, 0, 72, 72
2, 94102, Note_off_c, 0, 70, 64
2, 94115, Control_c, 0, 64, 127
2, 94131, Control_c, 0, 64, 0
2, 94138, Note_on_c, 0, 70, 72
2, 94149, Note_off_c, 0, 72, 64
2, 94183, Control_c, 0, 64, 127
2, 94213, Note_on_c, 0, 69, 65
2, 94216, Note_off_c, 0, 70, 64
2, 94226, Note_on_c, 0, 57, 60
2, 94233, Note_off_c, 0, 58, 64
2, 94237, Control_c, 0, 64, 0
2, 94292, Control_c, 0, 64, 127
2, 94298, Note_on_c, 0, 67, 71
2, 94305, Control_c, 0, 64, 0
2, 94306, Note_on_c, 0, 55, 59
2, 94312, Note_off_c, 0, 57, 64
2, 94314, Note_off_c, 0, 69, 64
2, 94360, Control_c, 0, 64, 127
2, 94383, Control_c, 0, 64, 0
2, 94396, Note_on_c, 0, 69, 59
2, 94399, Note_off_c, 0, 67, 64
2, 94402, Note_on_c, 0, 57, 60
2, 94404, Note_off_c, 0, 55, 64
2, 94451, Control_c, 0, 64, 0
2, 94456, Control_c, 0, 64, 127
2, 94524, Control_c, 0, 64, 127
2, 94538, Note_on_c, 0, 64, 57
2, 94546, Note_on_c, 0, 52, 60
2, 94553, Note_off_c, 0, 69, 64
2, 94570, Control_c, 0, 64, 0
2, 94583, Note_on_c, 0, 53, 46
2, 94584, Note_on_c, 0, 65, 63
2, 94590, Note_off_c, 0, 52, 64
2, 94602, Note_off_c, 0, 64, 64
2, 94633, Control_c, 0, 64, 127
2, 94638, Control_c, 0, 64, 0
2, 94701, Control_c, 0, 64, 127
2, 94753, Note_off_c, 0, 50, 64
2, 94776, Note_on_c, 0, 62, 58
2, 94783, Note_on_c, 0, 50, 52
2, 94783, Control_c, 0, 64, 0
2, 94795, Note_off_c, 0, 65, 64
2, 94806, Note_off_c, 0, 53, 64
2, 94835, Control_c, 0, 64, 127
2, 94848, Note_off_c, 0, 57, 64
2, 94851, Control_c, 0, 64, 0
2, 94903, Control_c, 0, 64, 127
2, 94975, Note_on_c, 0, 69, 60
2, 94978, Note_on_c, 0, 57, 48
2, 94979, Note_off_c, 0, 62, 64
2, 94988, Control_c, 0, 64, 0
2, 95034, Control_c, 0, 64, 127
2, 95056, Control_c, 0, 64, 0
2, 95102, Control_c, 0, 64, 127
2, 95129, Note_on_c, 0, 64, 52
2, 95137, Note_on_c, 0, 52, 51
2, 95153, Note_off_c, 0, 69, 64
2, 95175, Note_on_c, 0, 65, 60
2, 95181, Control_c, 0, 64, 0
2, 95189, Note_on_c, 0, 53, 57
2, 95192, Note_off_c, 0, 52, 64
2, 95204, Note_off_c, 0, 64, 64
2, 95241, Control_c, 0, 64, 127
2, 95249, Control_c, 0, 64, 0
2, 95309, Control_c, 0, 64, 127
2, 95367, Note_off_c, 0, 50, 64
2, 95388, Note_on_c, 0, 62, 52
2, 95392, Note_on_c, 0, 50, 52
2, 95399, Note_off_c, 0, 65, 64
2, 95401, Control_c, 0, 64, 0
2, 95417, Note_off_c, 0, 53, 64
2, 95457, Control_c, 0, 64, 127
2, 95469, Control_c, 0, 64, 0
2, 95471, Note_off_c, 0, 57, 64
2, 95525, Control_c, 0, 64, 127
2, 95613, Note_on_c, 0, 69, 41
2, 95614, Note_on_c, 0, 57, 48
2, 95623, Note_off_c, 0, 62, 64
2, 95630, Control_c, 0, 64, 0
2, 95667, Control_c, 0, 64, 127
2, 95698, Control_c, 0, 64, 0
2, 95735, Control_c, 0, 64, 127
2, 95790, Note_on_c, 0, 64, 42
2, 95794, Note_on_c, 0, 52, 57
2, 95818, Note_off_c, 0, 69, 64
2, 95829, Control_c, 0, 64, 0
2, 95843, Note_on_c, 0, 65, 52
2, 95854, Note_on_c, 0, 53, 48
2, 95856, Note_off_c, 0, 52, 64
2, 95859, Note_off_c, 0, 64, 64
2, 95893, Control_c, 0, 64, 127
2, 95897, Control_c, 0, 64, 0
2, 95961, Control_c, 0, 64, 127
2, 96049, Note_off_c, 0, 50, 64
2, 96065, Control_c, 0, 64, 0
2, 96075, Note_on_c, 0, 50, 52
2, 96081, Note_on_c, 0, 62, 48
2, 96112, Note_off_c, 0, 65, 64
2, 96118, Control_c, 0, 64, 127
2, 96127, Note_off_c, 0, 53, 64
2, 96133, Control_c, 0, 64, 0
2, 96186, Control_c, 0, 64, 127
2, 96427, Note_off_c, 0, 50, 64
2, 96439, Note_on_c, 0, 71, 37
2, 96446, Note_on_c, 0, 67, 32
2, 96451, Note_on_c, 0, 43, 37
2, 96490, Control_c, 0, 64, 0
2, 96513, Note_off_c, 0, 57, 64
2, 96558, Control_c, 0, 64, 0
2, 96619, Control_c, 0, 64, 127
2, 96687, Control_c, 0, 64, 127
2, 97066, Control_c, 0, 64, 0
2, 97083, Note_off_c, 0, 62, 64
2, 97088, Note_on_c, 0, 55, 34
2, 97099, Control_c, 0, 64, 127
2, 97104, Note_off_c, 0, 71, 64
2, 97111, Note_off_c, 0, 67, 64
2, 97116, Note_off_c, 0, 43, 64
2, 97134, Control_c, 0, 64, 0
2, 97167, Control_c, 0, 64, 127
2, 97182, Note_off_c, 0, 55, 64
2, 97231, Note_on_c, 0, 55, 63
2, 97261, Note_off_c, 0, 55, 64
2, 97293, Note_on_c, 0, 55, 64
2, 97306, Control_c, 0, 64, 0
2, 97318, Control_c, 0, 64, 127
2, 97346, Note_off_c, 0, 55, 64
2, 97374, Control_c, 0, 64, 0
2, 97386, Control_c, 0, 64, 127
2, 97558, Note_on_c, 0, 55, 70
2, 97574, Control_c, 0, 64, 0
2, 97616, Control_c, 0, 64, 127
2, 97642, Control_c, 0, 64, 0
2, 97684, Control_c, 0, 64, 127
2, 97873, Note_on_c, 0, 67, 75
2, 97888, Control_c, 0, 64, 0
2, 97919, Note_off_c, 0, 55, 64
2, 97928, Control_c, 0, 64, 127
2, 97956, Control_c, 0, 64, 0
2, 97996, Control_c, 0, 64, 127
2, 98189, Note_on_c, 0, 65, 49
2, 98275, Note_on_c, 0, 63, 54
2, 98285, Note_on_c, 0, 72, 63
2, 98286, Note_off_c, 0, 65, 64
2, 98372, Note_on_c, 0, 71, 69
2, 98372, Note_on_c, 0, 62, 29
2, 98374, Note_on_c, 0, 74, 52
2, 98380, Note_off_c, 0, 72, 64
2, 98387, Note_off_c, 0, 63, 64
2, 98448, Note_on_c, 0, 72, 59
2, 98452, Note_on_c, 0, 75, 59
2, 98459, Note_on_c, 0, 60, 47
2, 98463, Note_on_c, 0, 60, 47
2, 98470, Note_off_c, 0, 62, 64
2, 98470, Note_off_c, 0, 71, 64
2, 98472, Note_off_c, 0, 74, 64
2, 98537, Note_on_c, 0, 77, 57
2, 98537, Note_on_c, 0, 71, 54
2, 98542, Note_on_c, 0, 62, 59
2, 98545, Note_off_c, 0, 72, 64
2, 98548, Note_off_c, 0, 60, 64
2, 98549, Note_off_c, 0, 75, 64
2, 98554, Control_c, 0, 64, 0
2, 98556, Note_off_c, 0, 60, 64
2, 98583, Control_c, 0, 64, 127
2, 98622, Control_c, 0, 64, 0
2, 98651, Control_c, 0, 64, 127
2, 98667, Note_on_c, 0, 55, 57
2, 98671, Note_on_c, 0, 79, 55
2, 98674, Note_off_c, 0, 71, 64
2, 98674, Note_off_c, 0, 77, 64
2, 98679, Note_off_c, 0, 62, 64
2, 98704, Note_on_c, 0, 71, 55
2, 98707, Note_on_c, 0, 77, 59
2, 98713, Note_on_c, 0, 62, 47
2, 98722, Note_off_c, 0, 55, 64
2, 98727, Control_c, 0, 64, 0
2, 98732, Note_off_c, 0, 79, 64
2, 98775, Control_c, 0, 64, 127
2, 98795, Control_c, 0, 64, 0
2, 98843, Control_c, 0, 64, 127
2, 98892, Note_on_c, 0, 72, 58
2, 98894, Note_on_c, 0, 75, 60
2, 98897, Note_on_c, 0, 60, 51
2, 98903, Note_off_c, 0, 62, 64
2, 98909, Note_off_c, 0, 77, 64
2, 98920, Control_c, 0, 64, 0
2, 98927, Note_off_c, 0, 71, 64
2, 98950, Control_c, 0, 64, 127
2, 98988, Control_c, 0, 64, 0
2, 99018, Control_c, 0, 64, 127
2, 99054, Note_off_c, 0, 72, 64
2, 99069, Note_on_c, 0, 62, 41
2, 99071, Note_on_c, 0, 77, 58
2, 99077, Note_off_c, 0, 60, 64
2, 99077, Note_on_c, 0, 71, 57
2, 99093, Note_off_c, 0, 75, 64
2, 99099, Control_c, 0, 64, 0
2, 99128, Control_c, 0, 64, 127
2, 99167, Control_c, 0, 64, 0
2, 99196, Control_c, 0, 64, 127
2, 99198, Note_off_c, 0, 71, 64
2, 99198, Note_on_c, 0, 55, 55
2, 99201, Note_off_c, 0, 62, 64
2, 99201, Note_on_c, 0, 79, 51
2, 99205, Note_off_c, 0, 77, 64
2, 99241, Note_on_c, 0, 77, 58
2, 99243, Note_on_c, 0, 71, 52
2, 99250, Note_on_c, 0, 62, 46
2, 99256, Note_off_c, 0, 79, 64
2, 99262, Control_c, 0, 64, 0
2, 99280, Note_off_c, 0, 55, 64
2, 99303, Control_c, 0, 64, 127
2, 99330, Control_c, 0, 64, 0
2, 99371, Control_c, 0, 64, 127
2, 99483, Note_on_c, 0, 60, 41
2, 99488, Note_on_c, 0, 75, 46
2, 99493, Note_on_c, 0, 72, 46
2, 99506, Note_off_c, 0, 62, 64
2, 99508, Control_c, 0, 64, 0
2, 99514, Note_off_c, 0, 77, 64
2, 99516, Note_off_c, 0, 71, 64
2, 99568, Control_c, 0, 64, 127
2, 99576, Control_c, 0, 64, 0
2, 99636, Control_c, 0, 64, 127
2, 99672, Note_off_c, 0, 72, 64
2, 99699, Note_off_c, 0, 75, 64
2, 99705, Note_off_c, 0, 60, 64
2, 99840, Note_on_c, 0, 59, 46
2, 99847, Note_off_c, 0, 67, 64
2, 99924, Note_on_c, 0, 60, 48
2, 99940, Note_off_c, 0, 59, 64
2, 100022, Note_on_c, 0, 62, 40
2, 100045, Note_off_c, 0, 60, 64
2, 100082, Control_c, 0, 64, 0
2, 100100, Note_on_c, 0, 63, 52
2, 100116, Note_off_c, 0, 62, 64
2, 100150, Control_c, 0, 64, 0
2, 100195, Note_on_c, 0, 62, 41
2, 100210, Note_off_c, 0, 63, 64
2, 100225, Control_c, 0, 64, 127
2, 100287, Note_on_c, 0, 61, 51
2, 100291, Note_on_c, 0, 64, 56
2, 100293, Control_c, 0, 64, 127
2, 100368, Note_on_c, 0, 60, 46
2, 100370, Note_on_c, 0, 66, 62
2, 100388, Note_off_c, 0, 61, 64
2, 100392, Note_off_c, 0, 64, 64
2, 100461, Note_on_c, 0, 67, 65
2, 100461, Note_on_c, 0, 58, 39
2, 100480, Note_off_c, 0, 60, 64
2, 100482, Note_off_c, 0, 66, 64
2, 100504, Control_c, 0, 64, 0
2, 100534, Control_c, 0, 64, 127
2, 100540, Note_on_c, 0, 66, 54
2, 100544, Note_on_c, 0, 69, 35
2, 100546, Note_on_c, 0, 57, 48
2, 100556, Note_off_c, 0, 58, 64
2, 100556, Note_off_c, 0, 67, 64
2, 100572, Control_c, 0, 64, 0
2, 100602, Control_c, 0, 64, 127
2, 100632, Note_on_c, 0, 67, 71
2, 100636, Note_on_c, 0, 70, 71
2, 100640, Note_off_c, 0, 66, 64
2, 100642, Note_on_c, 0, 55, 49
2, 100644, Note_off_c, 0, 69, 64
2, 100646, Note_off_c, 0, 57, 64
2, 100732, Note_on_c, 0, 57, 67
2, 100732, Note_on_c, 0, 72, 62
2, 100734, Note_off_c, 0, 70, 64
2, 100736, Note_on_c, 0, 66, 67
2, 100738, Note_off_c, 0, 67, 64
2, 100740, Note_off_c, 0, 55, 64
2, 100749, Control_c, 0, 64, 0
2, 100788, Control_c, 0, 64, 127
2, 100817, Control_c, 0, 64, 0
2, 100838, Note_off_c, 0, 57, 64
2, 100851, Note_on_c, 0, 50, 59
2, 100856, Control_c, 0, 64, 127
2, 100861, Note_on_c, 0, 74, 64
2, 100867, Note_off_c, 0, 66, 64
2, 100870, Note_off_c, 0, 72, 64
2, 100902, Note_on_c, 0, 57, 60
2, 100903, Note_on_c, 0, 72, 65
2, 100912, Note_on_c, 0, 66, 69
2, 100913, Control_c, 0, 64, 0
2, 100920, Note_off_c, 0, 74, 64
2, 100922, Note_off_c, 0, 50, 64
2, 100972, Control_c, 0, 64, 127
2, 100981, Control_c, 0, 64, 0
2, 101040, Control_c, 0, 64, 127
2, 101102, Note_on_c, 0, 70, 63
2, 101109, Note_on_c, 0, 55, 58
2, 101110, Note_on_c, 0, 67, 46
2, 101115, Note_off_c, 0, 72, 64
2, 101129, Note_off_c, 0, 57, 64
2, 101135, Control_c, 0, 64, 0
2, 101141, Note_off_c, 0, 66, 64
2, 101184, Control_c, 0, 64, 127
2, 101203, Control_c, 0, 64, 0
2, 101252, Control_c, 0, 64, 127
2, 101256, Note_off_c, 0, 67, 64
2, 101272, Note_off_c, 0, 70, 64
2, 101290, Note_on_c, 0, 72, 63
2, 101293, Note_on_c, 0, 57, 65
2, 101299, Note_on_c, 0, 66, 66
2, 101302, Note_off_c, 0, 55, 64
2, 101322, Control_c, 0, 64, 0
2, 101360, Control_c, 0, 64, 127
2, 101390, Control_c, 0, 64, 0
2, 101428, Control_c, 0, 64, 127
2, 101434, Note_on_c, 0, 50, 43
2, 101442, Note_off_c, 0, 66, 64
2, 101443, Note_on_c, 0, 74, 57
2, 101450, Note_off_c, 0, 72, 64
2, 101453, Note_off_c, 0, 57, 64
2, 101486, Note_on_c, 0, 72, 58
2, 101488, Note_on_c, 0, 66, 58
2, 101495, Note_off_c, 0, 74, 64
2, 101499, Note_on_c, 0, 57, 49
2, 101504, Control_c, 0, 64, 0
2, 101525, Note_off_c, 0, 50, 64
2, 101551, Control_c, 0, 64, 127
2, 101572, Control_c, 0, 64, 0
2, 101619, Control_c, 0, 64, 127
2, 101714, Note_on_c, 0, 70, 55
2, 101721, Note_on_c, 0, 67, 42
2, 101725, Note_off_c, 0, 66, 64
2, 101727, Note_on_c, 0, 55, 48
2, 101731, Control_c, 0, 64, 0
2, 101746, Note_off_c, 0, 57, 64
2, 101746, Note_off_c, 0, 72, 64
2, 101764, Control_c, 0, 64, 127
2, 101799, Control_c, 0, 64, 0
2, 101832, Control_c, 0, 64, 127
2, 101939, Note_off_c, 0, 70, 64
2, 101942, Note_off_c, 0, 67, 64
2, 101974, Note_off_c, 0, 62, 64
2, 101979, Note_on_c, 0, 63, 49
2, 101981, Note_on_c, 0, 68, 57
2, 101983, Note_on_c, 0, 60, 46
2, 102008, Control_c, 0, 64, 0
2, 102072, Control_c, 0, 64, 127
2, 102076, Control_c, 0, 64, 0
2, 102140, Control_c, 0, 64, 127
2, 102463, Note_on_c, 0, 66, 46
2, 102481, Note_off_c, 0, 68, 64
2, 102489, Note_off_c, 0, 63, 64
2, 102561, Note_off_c, 0, 60, 64
2, 102756, Note_on_c, 0, 67, 40
2, 102765, Note_on_c, 0, 62, 32
2, 102768, Note_on_c, 0, 59, 34
2, 102791, Note_off_c, 0, 66, 64
2, 102792, Control_c, 0, 64, 0
2, 102850, Control_c, 0, 64, 127
2, 102860, Control_c, 0, 64, 0
2, 102918, Control_c, 0, 64, 127
2, 102984, Note_off_c, 0, 59, 64
2, 103040, Note_on_c, 0, 53, 32
2, 103062, Note_off_c, 0, 62, 64
2, 103120, Note_on_c, 0, 51, 52
2, 103122, Note_on_c, 0, 60, 51
2, 103141, Note_off_c, 0, 53, 64
2, 103181, Note_off_c, 0, 67, 64
2, 103208, Note_on_c, 0, 50, 26
2, 103212, Note_on_c, 0, 59, 58
2, 103213, Note_on_c, 0, 62, 54
2, 103226, Note_off_c, 0, 51, 64
2, 103228, Note_off_c, 0, 60, 64
2, 103286, Note_on_c, 0, 63, 46
2, 103302, Note_on_c, 0, 48, 35
2, 103303, Note_off_c, 0, 50, 64
2, 103307, Note_off_c, 0, 59, 64
2, 103308, Note_off_c, 0, 62, 64
2, 103311, Note_on_c, 0, 59, 26
2, 103334, Note_off_c, 0, 59, 64
2, 103377, Note_on_c, 0, 65, 64
2, 103378, Note_on_c, 0, 50, 60
2, 103382, Note_on_c, 0, 59, 65
2, 103390, Control_c, 0, 64, 0
2, 103391, Note_off_c, 0, 63, 64
2, 103394, Note_off_c, 0, 48, 64
2, 103430, Control_c, 0, 64, 127
2, 103458, Control_c, 0, 64, 0
2, 103498, Control_c, 0, 64, 127
2, 103501, Note_on_c, 0, 43, 65
2, 103512, Note_on_c, 0, 67, 59
2, 103524, Note_off_c, 0, 65, 64
2, 103525, Note_off_c, 0, 50, 64
2, 103529, Note_off_c, 0, 59, 64
2, 103558, Note_on_c, 0, 50, 64
2, 103558, Note_on_c, 0, 59, 66
2, 103558, Note_on_c, 0, 65, 60
2, 103569, Note_off_c, 0, 67, 64
2, 103570, Note_off_c, 0, 43, 64
2, 103574, Control_c, 0, 64, 0
2, 103613, Control_c, 0, 64, 127
2, 103642, Control_c, 0, 64, 0
2, 103681, Control_c, 0, 64, 127
2, 103736, Note_off_c, 0, 65, 64
2, 103744, Note_on_c, 0, 63, 59
2, 103749, Note_on_c, 0, 60, 59
2, 103751, Note_on_c, 0, 48, 54
2, 103757, Note_off_c, 0, 50, 64
2, 103768, Control_c, 0, 64, 0
2, 103772, Note_off_c, 0, 59, 64
2, 103808, Control_c, 0, 64, 127
2, 103836, Control_c, 0, 64, 0
2, 103876, Control_c, 0, 64, 127
2, 103921, Note_on_c, 0, 50, 64
2, 103926, Note_off_c, 0, 48, 64
2, 103926, Note_on_c, 0, 59, 57
2, 103930, Note_off_c, 0, 60, 64
2, 103933, Note_on_c, 0, 65, 58
2, 103943, Control_c, 0, 64, 0
2, 103960, Note_off_c, 0, 63, 64
2, 103983, Control_c, 0, 64, 127
2, 104011, Control_c, 0, 64, 0
2, 104051, Control_c, 0, 64, 127
2, 104057, Note_on_c, 0, 67, 57
2, 104058, Note_off_c, 0, 59, 64
2, 104060, Note_on_c, 0, 43, 60
2, 104065, Note_off_c, 0, 50, 64
2, 104071, Note_off_c, 0, 65, 64
2, 104104, Note_on_c, 0, 65, 57
2, 104104, Note_on_c, 0, 59, 57
2, 104110, Note_on_c, 0, 50, 59
2, 104117, Note_off_c, 0, 67, 64
2, 104117, Control_c, 0, 64, 0
2, 104130, Note_off_c, 0, 43, 64
2, 104175, Control_c, 0, 64, 127
2, 104185, Control_c, 0, 64, 0
2, 104243, Control_c, 0, 64, 127
2, 104339, Note_on_c, 0, 48, 48
2, 104346, Note_off_c, 0, 65, 64
2, 104346, Note_on_c, 0, 63, 37
2, 104346, Note_on_c, 0, 60, 48
2, 104355, Note_off_c, 0, 50, 64
2, 104355, Control_c, 0, 64, 0
2, 104382, Note_off_c, 0, 59, 64
2, 104414, Control_c, 0, 64, 127
2, 104423, Control_c, 0, 64, 0
2, 104482, Control_c, 0, 64, 127
2, 104566, Note_off_c, 0, 48, 64
2, 104572, Note_off_c, 0, 63, 64
2, 104573, Note_off_c, 0, 60, 64
2, 104649, Note_off_c, 0, 55, 64
2, 104650, Note_on_c, 0, 48, 51
2, 104680, Note_on_c, 0, 50, 65
2, 104698, Note_off_c, 0, 48, 64
2, 104719, Note_on_c, 0, 48, 60
2, 104739, Note_off_c, 0, 50, 64
2, 104749, Control_c, 0, 64, 0
2, 104770, Note_on_c, 0, 47, 59
2, 104785, Note_off_c, 0, 48, 64
2, 104817, Control_c, 0, 64, 0
2, 104866, Note_on_c, 0, 48, 63
2, 104893, Note_off_c, 0, 47, 64
2, 104958, Note_on_c, 0, 50, 58
2, 104980, Note_off_c, 0, 48, 64
2, 104994, Control_c, 0, 64, 127
2, 105052, Note_on_c, 0, 51, 65
2, 105062, Control_c, 0, 64, 127
2, 105086, Note_off_c, 0, 50, 64
2, 105163, Note_on_c, 0, 56, 64
2, 105166, Note_on_c, 0, 53, 55
2, 105180, Note_off_c, 0, 51, 64
2, 105212, Control_c, 0, 64, 0
2, 105280, Control_c, 0, 64, 0
2, 105428, Note_on_c, 0, 60, 66
2, 105474, Control_c, 0, 64, 127
2, 105518, Note_on_c, 0, 61, 64
2, 105542, Control_c, 0, 64, 127
2, 105567, Note_off_c, 0, 60, 64
2, 105616, Note_on_c, 0, 63, 64
2, 105661, Note_off_c, 0, 61, 64
2, 105706, Note_on_c, 0, 65, 57
2, 105747, Note_off_c, 0, 63, 64
2, 105798, Note_off_c, 0, 53, 64
2, 105798, Note_on_c, 0, 66, 66
2, 105802, Note_on_c, 0, 60, 58
2, 105806, Note_on_c, 0, 51, 55
2, 105815, Control_c, 0, 64, 0
2, 105834, Note_off_c, 0, 65, 64
2, 105865, Control_c, 0, 64, 127
2, 105883, Control_c, 0, 64, 0
2, 105933, Control_c, 0, 64, 127
2, 105947, Note_on_c, 0, 68, 72
2, 105973, Note_off_c, 0, 68, 64
2, 105988, Control_c, 0, 64, 0
2, 106002, Note_on_c, 0, 68, 72
2, 106040, Control_c, 0, 64, 127
2, 106056, Control_c, 0, 64, 0
2, 106108, Control_c, 0, 64, 127
2, 106164, Note_off_c, 0, 68, 64
2, 106199, Note_on_c, 0, 68, 74
2, 106238, Note_off_c, 0, 51, 64
2, 106246, Note_off_c, 0, 60, 64
2, 106336, Note_off_c, 0, 68, 64
2, 106398, Note_on_c, 0, 61, 47
2, 106402, Note_on_c, 0, 65, 63
2, 106402, Note_on_c, 0, 68, 64
2, 106405, Note_off_c, 0, 66, 64
2, 106408, Note_on_c, 0, 49, 31
2, 106417, Control_c, 0, 64, 0
2, 106464, Control_c, 0, 64, 127
2, 106471, Note_off_c, 0, 68, 64
2, 106485, Control_c, 0, 64, 0
2, 106532, Control_c, 0, 64, 127
2, 106545, Note_on_c, 0, 68, 65
2, 106568, Note_off_c, 0, 68, 64
2, 106584, Control_c, 0, 64, 0
2, 106591, Note_on_c, 0, 68, 77
2, 106614, Control_c, 0, 64, 127
2, 106652, Control_c, 0, 64, 0
2, 106682, Control_c, 0, 64, 127
2, 106780, Note_off_c, 0, 68, 64
2, 106798, Note_on_c, 0, 68, 70
2, 106807, Note_on_c, 0, 48, 48
2, 106812, Control_c, 0, 64, 0
2, 106818, Note_off_c, 0, 49, 64
2, 106850, Control_c, 0, 64, 127
2, 106880, Control_c, 0, 64, 0
2, 106918, Control_c, 0, 64, 127
2, 106941, Note_off_c, 0, 61, 64
2, 106945, Note_off_c, 0, 65, 64
2, 106970, Note_off_c, 0, 68, 64
2, 107046, Note_on_c, 0, 68, 46
2, 107050, Note_on_c, 0, 47, 41
2, 107053, Note_on_c, 0, 65, 52
2, 107059, Note_on_c, 0, 62, 34
2, 107080, Note_off_c, 0, 48, 64
2, 107085, Note_off_c, 0, 56, 64
2, 107086, Control_c, 0, 64, 0
2, 107146, Control_c, 0, 64, 127
2, 107154, Control_c, 0, 64, 0
2, 107214, Control_c, 0, 64, 127
2, 107415, Note_on_c, 0, 67, 31
2, 107426, Control_c, 0, 64, 0
2, 107444, Note_off_c, 0, 68, 64
2, 107475, Control_c, 0, 64, 127
2, 107494, Control_c, 0, 64, 0
2, 107543, Control_c, 0, 64, 127
2, 107553, Note_off_c, 0, 65, 64
2, 107566, Note_off_c, 0, 47, 64
2, 107628, Note_off_c, 0, 62, 64
2, 107688, Note_off_c, 0, 67, 64
2, 107853, Note_on_c, 0, 43, 57
2, 107904, Control_c, 0, 64, 0
2, 107972, Control_c, 0, 64, 0
2, 108053, Note_on_c, 0, 45, 54
2, 108073, Note_off_c, 0, 43, 64
2, 108143, Note_on_c, 0, 47, 59
2, 108175, Note_off_c, 0, 45, 64
2, 108240, Note_on_c, 0, 48, 54
2, 108264, Control_c, 0, 64, 127
2, 108288, Note_off_c, 0, 47, 64
2, 108332, Control_c, 0, 64, 127
2, 108336, Note_on_c, 0, 50, 44
2, 108341, Note_off_c, 0, 48, 64
2, 108421, Note_on_c, 0, 51, 60
2, 108424, Note_on_c, 0, 60, 1
2, 108426, Note_on_c, 0, 66, 65
2, 108426, Note_on_c, 0, 54, 56
2, 108439, Control_c, 0, 64, 0
2, 108450, Note_off_c, 0, 50, 64
2, 108507, Control_c, 0, 64, 0
2, 108550, Note_off_c, 0, 51, 64
2, 108565, Note_on_c, 0, 51, 65
2, 108597, Note_off_c, 0, 51, 64
2, 108601, Control_c, 0, 64, 127
2, 108626, Note_on_c, 0, 51, 57
2, 108669, Control_c, 0, 64, 127
2, 108784, Note_off_c, 0, 51, 64
2, 108814, Note_on_c, 0, 51, 57
2, 108958, Note_off_c, 0, 51, 64
2, 108992, Note_off_c, 0, 60, 64
2, 108994, Note_off_c, 0, 54, 64
2, 108994, Note_off_c, 0, 66, 64
2, 108999, Note_on_c, 0, 56, 46
2, 109003, Note_on_c, 0, 51, 57
2, 109006, Note_on_c, 0, 65, 50
2, 109006, Note_on_c, 0, 60, 50
2, 109049, Note_off_c, 0, 51, 64
2, 109132, Note_on_c, 0, 51, 57
2, 109170, Note_off_c, 0, 51, 64
2, 109192, Note_on_c, 0, 50, 60
2, 109200, Note_on_c, 0, 59, 58
2, 109215, Control_c, 0, 64, 0
2, 109221, Note_off_c, 0, 60, 64
2, 109235, Control_c, 0, 64, 127
2, 109283, Control_c, 0, 64, 0
2, 109303, Control_c, 0, 64, 127
2, 109405, Note_on_c, 0, 63, 58
2, 109412, Note_on_c, 0, 48, 64
2, 109421, Control_c, 0, 64, 0
2, 109428, Note_off_c, 0, 50, 64
2, 109431, Note_off_c, 0, 59, 64
2, 109464, Control_c, 0, 64, 127
2, 109489, Control_c, 0, 64, 0
2, 109532, Control_c, 0, 64, 127
2, 109585, Note_off_c, 0, 56, 64
2, 109628, Note_off_c, 0, 48, 64
2, 109647, Note_on_c, 0, 47, 65
2, 109654, Note_on_c, 0, 56, 39
2, 109700, Control_c, 0, 64, 0
2, 109768, Control_c, 0, 64, 0
2, 109774, Control_c, 0, 64, 127
2, 109842, Control_c, 0, 64, 127
2, 110060, Note_off_c, 0, 56, 64
2, 110086, Note_on_c, 0, 66, 67
2, 110095, Note_off_c, 0, 65, 64
2, 110100, Note_on_c, 0, 57, 39
2, 110112, Control_c, 0, 64, 0
2, 110145, Control_c, 0, 64, 127
2, 110180, Control_c, 0, 64, 0
2, 110198, Note_off_c, 0, 47, 64
2, 110213, Control_c, 0, 64, 127
2, 110301, Note_off_c, 0, 63, 64
2, 110332, Note_on_c, 0, 58, 48
2, 110341, Note_on_c, 0, 67, 64
2, 110347, Note_on_c, 0, 63, 58
2, 110351, Note_on_c, 0, 46, 37
2, 110352, Note_off_c, 0, 66, 64
2, 110373, Note_off_c, 0, 57, 64
2, 110374, Control_c, 0, 64, 0
2, 110411, Control_c, 0, 64, 127
2, 110442, Control_c, 0, 64, 0
2, 110479, Control_c, 0, 64, 127
2, 110642, Note_on_c, 0, 51, 40
2, 110661, Note_off_c, 0, 46, 64
2, 110748, Note_on_c, 0, 55, 51
2, 110793, Note_off_c, 0, 51, 64
2, 110840, Note_on_c, 0, 60, 57
2, 110859, Note_off_c, 0, 55, 64
2, 110912, Note_off_c, 0, 58, 64
2, 110916, Note_on_c, 0, 62, 64
2, 110920, Note_on_c, 0, 56, 42
2, 110920, Note_on_c, 0, 58, 52
2, 110934, Note_off_c, 0, 60, 64
2, 110943, Note_off_c, 0, 67, 64
2, 110962, Note_off_c, 0, 63, 64
2, 111022, Note_off_c, 0, 58, 64
2, 111029, Note_on_c, 0, 46, 63
2, 111094, Note_on_c, 0, 50, 72
2, 111100, Note_off_c, 0, 46, 64
2, 111136, Note_on_c, 0, 48, 71
2, 111157, Note_off_c, 0, 50, 64
2, 111165, Control_c, 0, 64, 0
2, 111233, Control_c, 0, 64, 0
2, 111265, Control_c, 0, 64, 127
2, 111294, Control_c, 0, 64, 0
2, 111333, Control_c, 0, 64, 127
2, 111342, Control_c, 0, 64, 127
2, 111350, Note_on_c, 0, 46, 71
2, 111362, Control_c, 0, 64, 0
2, 111386, Note_off_c, 0, 48, 64
2, 111410, Control_c, 0, 64, 127
2, 111484, Note_off_c, 0, 62, 64
2, 111488, Note_off_c, 0, 56, 64
2, 111552, Note_on_c, 0, 45, 62
2, 111556, Note_on_c, 0, 61, 62
2, 111556, Note_on_c, 0, 57, 41
2, 111556, Note_on_c, 0, 53, 41
2, 111559, Note_off_c, 0, 46, 64
2, 111581, Control_c, 0, 64, 0
2, 111641, Control_c, 0, 64, 127
2, 111649, Control_c, 0, 64, 0
2, 111700, Note_on_c, 0, 62, 58
2, 111709, Note_off_c, 0, 61, 64
2, 111709, Control_c, 0, 64, 127
2, 111762, Note_on_c, 0, 65, 57
2, 111782, Note_off_c, 0, 62, 64
2, 111847, Note_on_c, 0, 50, 58
2, 111870, Note_off_c, 0, 45, 64
2, 111880, Note_off_c, 0, 53, 64
2, 111944, Note_on_c, 0, 64, 62
2, 111944, Note_on_c, 0, 53, 56
2, 111952, Note_off_c, 0, 57, 64
2, 111988, Note_off_c, 0, 50, 64
2, 111990, Note_off_c, 0, 65, 64
2, 112036, Note_off_c, 0, 64, 64
2, 112036, Note_on_c, 0, 57, 51
2, 112069, Note_off_c, 0, 53, 64
2, 112132, Note_on_c, 0, 53, 59
2, 112139, Note_on_c, 0, 56, 69
2, 112140, Note_on_c, 0, 59, 59
2, 112142, Note_on_c, 0, 64, 59
2, 112145, Note_off_c, 0, 57, 64
2, 112154, Control_c, 0, 64, 127
2, 112157, Control_c, 0, 64, 0
2, 112186, Control_c, 0, 64, 127
2, 112222, Control_c, 0, 64, 127
2, 112223, Note_off_c, 0, 56, 64
2, 112225, Control_c, 0, 64, 0
2, 112254, Control_c, 0, 64, 127
2, 112278, Note_on_c, 0, 44, 59
2, 112324, Note_off_c, 0, 53, 64
2, 112342, Note_on_c, 0, 53, 57
2, 112347, Note_off_c, 0, 44, 64
2, 112355, Control_c, 0, 64, 0
2, 112402, Control_c, 0, 64, 127
2, 112423, Control_c, 0, 64, 0
2, 112470, Control_c, 0, 64, 127
2, 112563, Note_on_c, 0, 44, 56
2, 112566, Note_on_c, 0, 62, 62
2, 112580, Control_c, 0, 64, 0
2, 112594, Note_off_c, 0, 64, 64
2, 112605, Note_off_c, 0, 53, 64
2, 112612, Control_c, 0, 64, 127
2, 112644, Note_off_c, 0, 59, 64
2, 112648, Control_c, 0, 64, 0
2, 112680, Control_c, 0, 64, 127
2, 112749, Note_off_c, 0, 62, 64
2, 112786, Note_on_c, 0, 43, 52
2, 112786, Note_on_c, 0, 62, 65
2, 112786, Note_on_c, 0, 58, 64
2, 112790, Note_on_c, 0, 53, 64
2, 112795, Note_off_c, 0, 44, 64
2, 112803, Control_c, 0, 64, 0
2, 112803, Control_c, 0, 64, 0
2, 112859, Control_c, 0, 64, 127
2, 112871, Control_c, 0, 64, 0
2, 112871, Control_c, 0, 64, 0
2, 112927, Control_c, 0, 64, 127
2, 112936, Note_on_c, 0, 61, 66
2, 112958, Note_off_c, 0, 62, 64
2, 112985, Note_off_c, 0, 58, 64
2, 112992, Note_on_c, 0, 52, 64
2, 112998, Note_on_c, 0, 70, 80
2, 113002, Note_off_c, 0, 53, 64
2, 113005, Control_c, 0, 64, 0
2, 113019, Note_off_c, 0, 61, 64
2, 113055, Control_c, 0, 64, 127
2, 113073, Control_c, 0, 64, 0
2, 113123, Control_c, 0, 64, 127
2, 113214, Note_on_c, 0, 61, 71
2, 113221, Control_c, 0, 64, 0
2, 113232, Note_off_c, 0, 70, 64
2, 113246, Control_c, 0, 64, 127
2, 113289, Control_c, 0, 64, 0
2, 113314, Note_off_c, 0, 61, 64
2, 113314, Control_c, 0, 64, 127
2, 113424, Note_on_c, 0, 57, 63
2, 113425, Note_on_c, 0, 61, 66
2, 113562, Note_on_c, 0, 42, 64
2, 113568, Note_off_c, 0, 43, 64
2, 113627, Note_on_c, 0, 51, 77
2, 113641, Control_c, 0, 64, 0
2, 113642, Note_off_c, 0, 52, 64
2, 113647, Note_off_c, 0, 42, 64
2, 113692, Control_c, 0, 64, 127
2, 113709, Control_c, 0, 64, 0
2, 113750, Note_off_c, 0, 57, 64
2, 113760, Control_c, 0, 64, 127
2, 113846, Note_on_c, 0, 42, 60
2, 113847, Note_on_c, 0, 60, 70
2, 113860, Control_c, 0, 64, 0
2, 113880, Note_off_c, 0, 61, 64
2, 113893, Control_c, 0, 64, 127
2, 113928, Control_c, 0, 64, 0
2, 113961, Control_c, 0, 64, 127
2, 114010, Note_off_c, 0, 60, 64
2, 114058, Note_on_c, 0, 41, 57
2, 114065, Note_on_c, 0, 56, 63
2, 114069, Note_on_c, 0, 60, 71
2, 114074, Note_off_c, 0, 42, 64
2, 114075, Control_c, 0, 64, 0
2, 114114, Control_c, 0, 64, 127
2, 114133, Note_off_c, 0, 51, 64
2, 114143, Control_c, 0, 64, 0
2, 114182, Control_c, 0, 64, 127
2, 114236, Note_on_c, 0, 61, 69
2, 114255, Note_off_c, 0, 60, 64
2, 114281, Note_off_c, 0, 56, 64
2, 114308, Note_on_c, 0, 49, 64
2, 114310, Note_on_c, 0, 68, 66
2, 114419, Note_on_c, 0, 39, 60
2, 114431, Note_off_c, 0, 41, 64
2, 114445, Note_off_c, 0, 49, 64
2, 114497, Note_off_c, 0, 68, 64
2, 114532, Note_on_c, 0, 68, 66
2, 114532, Note_on_c, 0, 65, 66
2, 114533, Note_on_c, 0, 37, 65
2, 114546, Note_off_c, 0, 39, 64
2, 114557, Note_off_c, 0, 61, 64
2, 114658, Note_on_c, 0, 61, 55
2, 114666, Note_on_c, 0, 29, 65
2, 114690, Note_off_c, 0, 37, 64
2, 114735, Note_off_c, 0, 65, 64
2, 114735, Note_off_c, 0, 68, 64
2, 114826, Note_on_c, 0, 68, 60
2, 114834, Note_on_c, 0, 65, 59
2, 114834, Note_on_c, 0, 59, 48
2, 114836, Note_on_c, 0, 31, 59
2, 114847, Control_c, 0, 64, 0
2, 114865, Note_off_c, 0, 61, 64
2, 114873, Note_off_c, 0, 29, 64
2, 114886, Control_c, 0, 64, 127
2, 114915, Control_c, 0, 64, 0
2, 114954, Control_c, 0, 64, 127
2, 115002, Note_on_c, 0, 43, 59
2, 115015, Control_c, 0, 64, 0
2, 115035, Control_c, 0, 64, 127
2, 115083, Control_c, 0, 64, 0
2, 115103, Control_c, 0, 64, 127
2, 115174, Note_on_c, 0, 50, 66
2, 115182, Control_c, 0, 64, 0
2, 115212, Control_c, 0, 64, 127
2, 115250, Control_c, 0, 64, 0
2, 115280, Control_c, 0, 64, 127
2, 115339, Note_off_c, 0, 43, 64
2, 115358, Note_off_c, 0, 65, 64
2, 115369, Note_off_c, 0, 68, 64
2, 115377, Note_off_c, 0, 31, 64
2, 115379, Note_off_c, 0, 59, 64
2, 115548, Note_on_c, 0, 67, 64
2, 115552, Note_on_c, 0, 65, 64
2, 115561, Note_on_c, 0, 59, 63
2, 115568, Control_c, 0, 64, 0
2, 115597, Control_c, 0, 64, 127
2, 115606, Note_off_c, 0, 50, 64
2, 115636, Control_c, 0, 64, 0
2, 115665, Control_c, 0, 64, 127
2, 115803, Note_off_c, 0, 65, 64
2, 115811, Note_off_c, 0, 67, 64
2, 115812, Note_off_c, 0, 59, 64
2, 115876, Note_on_c, 0, 36, 48
2, 115922, Note_on_c, 0, 48, 31
2, 115963, Note_on_c, 0, 72, 66
2, 115966, Note_on_c, 0, 60, 57
2, 115977, Control_c, 0, 64, 0
2, 115999, Control_c, 0, 64, 127
2, 116007, Note_off_c, 0, 36, 64
2, 116035, Note_off_c, 0, 48, 64
2, 116045, Control_c, 0, 64, 0
2, 116067, Control_c, 0, 64, 127
2, 116156, Note_on_c, 0, 64, 49
2, 116203, Note_off_c, 0, 60, 64
2, 116317, Note_off_c, 0, 72, 64
2, 116323, Note_on_c, 0, 67, 59
2, 116342, Note_off_c, 0, 64, 64
2, 116436, Note_on_c, 0, 70, 47
2, 116467, Note_off_c, 0, 67, 64
2, 116556, Note_on_c, 0, 71, 60
2, 116556, Note_on_c, 0, 55, 23
2, 116563, Note_on_c, 0, 64, 47
2, 116572, Note_off_c, 0, 70, 64
2, 116661, Note_on_c, 0, 72, 58
2, 116677, Note_off_c, 0, 71, 64
2, 116718, Note_off_c, 0, 55, 64
2, 116725, Note_off_c, 0, 64, 64
2, 116769, Note_on_c, 0, 48, 46
2, 116776, Note_on_c, 0, 73, 59
2, 116799, Note_off_c, 0, 72, 64
2, 116799, Control_c, 0, 64, 0
2, 116819, Control_c, 0, 64, 127
2, 116867, Control_c, 0, 64, 0
2, 116887, Control_c, 0, 64, 127
2, 116889, Note_on_c, 0, 70, 51
2, 116900, Note_off_c, 0, 73, 64
2, 116997, Control_c, 0, 64, 0
2, 117002, Note_on_c, 0, 64, 31
2, 117004, Note_on_c, 0, 55, 40
2, 117008, Note_on_c, 0, 80, 71
2, 117014, Control_c, 0, 64, 127
2, 117033, Note_off_c, 0, 48, 64
2, 117035, Note_off_c, 0, 70, 64
2, 117065, Control_c, 0, 64, 0
2, 117070, Note_off_c, 0, 55, 64
2, 117073, Note_off_c, 0, 64, 64
2, 117082, Control_c, 0, 64, 127
2, 117232, Note_on_c, 0, 64, 43
2, 117233, Note_on_c, 0, 55, 52
2, 117342, Note_on_c, 0, 79, 63
2, 117350, Note_off_c, 0, 80, 64
2, 117443, Note_on_c, 0, 48, 59
2, 117448, Note_off_c, 0, 64, 64
2, 117449, Note_off_c, 0, 55, 64
2, 117453, Control_c, 0, 64, 0
2, 117466, Control_c, 0, 64, 127
2, 117489, Note_off_c, 0, 79, 64
2, 117521, Control_c, 0, 64, 0
2, 117534, Control_c, 0, 64, 127
2, 117639, Note_on_c, 0, 70, 69
2, 117645, Note_on_c, 0, 61, 55
2, 117646, Note_on_c, 0, 64, 54
2, 117663, Control_c, 0, 64, 0
2, 117675, Control_c, 0, 64, 127
2, 117731, Control_c, 0, 64, 0
2, 117743, Control_c, 0, 64, 127
2, 117804, Note_off_c, 0, 64, 64
2, 117833, Note_on_c, 0, 72, 52
2, 117841, Note_off_c, 0, 61, 64
2, 117846, Note_off_c, 0, 70, 64
2, 117856, Note_on_c, 0, 64, 43
2, 117860, Note_on_c, 0, 61, 73
2, 117865, Note_on_c, 0, 70, 51
2, 117879, Control_c, 0, 64, 0
2, 117889, Control_c, 0, 64, 127
2, 117897, Note_off_c, 0, 72, 64
2, 117931, Note_off_c, 0, 48, 64
2, 117947, Control_c, 0, 64, 0
2, 117957, Control_c, 0, 64, 127
2, 117971, Note_on_c, 0, 69, 51
2, 117977, Note_off_c, 0, 70, 64
2, 118055, Note_on_c, 0, 48, 57
2, 118061, Note_on_c, 0, 68, 57
2, 118071, Control_c, 0, 64, 0
2, 118078, Note_off_c, 0, 69, 64
2, 118104, Control_c, 0, 64, 127
2, 118139, Control_c, 0, 64, 0
2, 118160, Note_off_c, 0, 64, 64
2, 118162, Note_off_c, 0, 68, 64
2, 118164, Note_off_c, 0, 61, 64
2, 118172, Control_c, 0, 64, 127
2, 118244, Note_on_c, 0, 64, 48
2, 118244, Note_on_c, 0, 61, 48
2, 118248, Note_on_c, 0, 68, 54
2, 118248, Note_on_c, 0, 58, 52
2, 118274, Control_c, 0, 64, 0
2, 118287, Control_c, 0, 64, 127
2, 118342, Control_c, 0, 64, 0
2, 118355, Control_c, 0, 64, 127
2, 118388, Note_on_c, 0, 70, 46
2, 118394, Note_off_c, 0, 68, 64
2, 118407, Note_off_c, 0, 61, 64
2, 118407, Note_off_c, 0, 64, 64
2, 118411, Note_off_c, 0, 58, 64
2, 118425, Note_on_c, 0, 68, 60
2, 118428, Note_on_c, 0, 64, 62
2, 118428, Note_on_c, 0, 61, 62
2, 118437, Note_on_c, 0, 58, 51
2, 118452, Control_c, 0, 64, 0
2, 118474, Control_c, 0, 64, 127
2, 118478, Note_off_c, 0, 70, 64
2, 118517, Note_on_c, 0, 67, 54
2, 118520, Control_c, 0, 64, 0
2, 118530, Note_off_c, 0, 68, 64
2, 118542, Control_c, 0, 64, 127
2, 118578, Note_off_c, 0, 58, 64
2, 118591, Note_off_c, 0, 61, 64
2, 118591, Note_off_c, 0, 64, 64
2, 118596, Note_on_c, 0, 36, 55
2, 118612, Note_off_c, 0, 48, 64
2, 118624, Note_on_c, 0, 65, 54
2, 118642, Note_off_c, 0, 67, 64
2, 118642, Control_c, 0, 64, 0
2, 118653, Control_c, 0, 64, 127
2, 118710, Control_c, 0, 64, 0
2, 118721, Control_c, 0, 64, 127
2, 118744, Note_on_c, 0, 79, 69
2, 118783, Note_off_c, 0, 65, 64
2, 118783, Note_off_c, 0, 36, 64
2, 118852, Note_on_c, 0, 56, 35
2, 118863, Note_on_c, 0, 65, 40
2, 118868, Note_on_c, 0, 77, 58
2, 118897, Note_off_c, 0, 79, 64
2, 118924, Note_off_c, 0, 56, 64
2, 118933, Note_off_c, 0, 65, 64
2, 118957, Note_on_c, 0, 76, 57
2, 119000, Note_off_c, 0, 77, 64
2, 119045, Note_on_c, 0, 56, 51
2, 119053, Note_on_c, 0, 65, 43
2, 119059, Note_on_c, 0, 75, 51
2, 119082, Note_off_c, 0, 76, 64
2, 119098, Note_off_c, 0, 65, 64
2, 119099, Note_off_c, 0, 56, 64
2, 119151, Note_on_c, 0, 74, 62
2, 119174, Note_off_c, 0, 75, 64
2, 119271, Note_on_c, 0, 48, 59
2, 119290, Control_c, 0, 64, 0
2, 119311, Control_c, 0, 64, 127
2, 119358, Control_c, 0, 64, 0
2, 119379, Control_c, 0, 64, 127
2, 119396, Note_on_c, 0, 75, 54
2, 119409, Note_off_c, 0, 74, 64
2, 119429, Note_on_c, 0, 73, 59
2, 119455, Note_off_c, 0, 75, 64
2, 119462, Note_on_c, 0, 65, 48
2, 119470, Note_on_c, 0, 56, 48
2, 119490, Note_on_c, 0, 72, 59
2, 119503, Note_off_c, 0, 73, 64
2, 119552, Note_off_c, 0, 65, 64
2, 119560, Note_off_c, 0, 56, 64
2, 119573, Note_on_c, 0, 71, 66
2, 119594, Note_off_c, 0, 48, 64
2, 119620, Note_off_c, 0, 72, 64
2, 119644, Note_on_c, 0, 65, 52
2, 119658, Note_on_c, 0, 68, 57
2, 119664, Note_on_c, 0, 56, 54
2, 119687, Note_off_c, 0, 71, 64
2, 119762, Note_on_c, 0, 67, 73
2, 119774, Note_off_c, 0, 65, 64
2, 119794, Note_off_c, 0, 56, 64
2, 119808, Note_off_c, 0, 68, 64
2, 119868, Note_on_c, 0, 36, 72
2, 119871, Control_c, 0, 64, 0
2, 119893, Control_c, 0, 64, 127
2, 119939, Control_c, 0, 64, 0
2, 119961, Control_c, 0, 64, 127
2, 119999, Note_on_c, 0, 65, 70
2, 120001, Note_off_c, 0, 67, 64
2, 120035, Note_off_c, 0, 65, 64
2, 120057, Note_on_c, 0, 65, 63
2, 120058, Note_on_c, 0, 59, 64
2, 120060, Note_on_c, 0, 55, 60
2, 120077, Control_c, 0, 64, 0
2, 120106, Control_c, 0, 64, 127
2, 120145, Control_c, 0, 64, 0
2, 120149, Note_off_c, 0, 36, 64
2, 120166, Note_off_c, 0, 65, 64
2, 120174, Control_c, 0, 64, 127
2, 120185, Note_off_c, 0, 59, 64
2, 120187, Note_off_c, 0, 55, 64
2, 120262, Note_on_c, 0, 65, 64
2, 120268, Note_on_c, 0, 59, 60
2, 120270, Note_on_c, 0, 55, 57
2, 120405, Note_off_c, 0, 59, 64
2, 120407, Note_off_c, 0, 55, 64
2, 120421, Note_off_c, 0, 65, 64
2, 120462, Note_on_c, 0, 43, 51
2, 120587, Note_on_c, 0, 65, 63
2, 120640, Note_on_c, 0, 59, 52
2, 120647, Note_on_c, 0, 55, 58
2, 120652, Note_on_c, 0, 67, 66
2, 120670, Note_off_c, 0, 65, 64
2, 120670, Control_c, 0, 64, 0
2, 120710, Control_c, 0, 64, 127
2, 120738, Control_c, 0, 64, 0
2, 120775, Note_off_c, 0, 55, 64
2, 120778, Control_c, 0, 64, 127
2, 120787, Note_off_c, 0, 59, 64
2, 120815, Note_off_c, 0, 43, 64
2, 120852, Note_on_c, 0, 59, 51
2, 120852, Note_on_c, 0, 55, 48
2, 120855, Note_on_c, 0, 62, 64
2, 120869, Note_off_c, 0, 67, 64
2, 121014, Note_off_c, 0, 59, 64
2, 121022, Note_off_c, 0, 55, 64
2, 121051, Note_on_c, 0, 36, 48
2, 121072, Note_on_c, 0, 64, 52
2, 121079, Control_c, 0, 64, 0
2, 121090, Note_off_c, 0, 62, 64
2, 121111, Control_c, 0, 64, 127
2, 121147, Control_c, 0, 64, 0
2, 121170, Note_on_c, 0, 66, 49
2, 121176, Note_off_c, 0, 64, 64
2, 121179, Control_c, 0, 64, 127
2, 121267, Note_on_c, 0, 64, 43
2, 121268, Note_on_c, 0, 67, 48
2, 121268, Note_on_c, 0, 55, 43
2, 121278, Note_off_c, 0, 66, 64
2, 121327, Note_off_c, 0, 55, 64
2, 121331, Note_off_c, 0, 64, 64
2, 121341, Note_off_c, 0, 36, 64
2, 121356, Note_on_c, 0, 68, 63
2, 121380, Note_off_c, 0, 67, 64
2, 121448, Note_on_c, 0, 64, 46
2, 121448, Note_on_c, 0, 55, 46
2, 121451, Note_on_c, 0, 70, 60
2, 121473, Note_off_c, 0, 68, 64
2, 121495, Note_off_c, 0, 55, 64
2, 121533, Note_on_c, 0, 72, 64
2, 121547, Note_off_c, 0, 70, 64
2, 121631, Note_on_c, 0, 73, 70
2, 121631, Note_on_c, 0, 48, 58
2, 121638, Control_c, 0, 64, 0
2, 121647, Note_off_c, 0, 72, 64
2, 121660, Control_c, 0, 64, 127
2, 121677, Note_off_c, 0, 64, 64
2, 121706, Control_c, 0, 64, 0
2, 121716, Note_on_c, 0, 70, 66
2, 121728, Control_c, 0, 64, 127
2, 121734, Note_off_c, 0, 73, 64
2, 121828, Note_off_c, 0, 48, 64
2, 121838, Note_off_c, 0, 70, 64
2, 121841, Note_on_c, 0, 64, 51
2, 121846, Note_on_c, 0, 80, 70
2, 121850, Note_on_c, 0, 55, 46
2, 121864, Control_c, 0, 64, 0
2, 121883, Control_c, 0, 64, 127
2, 121932, Control_c, 0, 64, 0
2, 121951, Control_c, 0, 64, 127
2, 122003, Note_off_c, 0, 64, 64
2, 122022, Note_off_c, 0, 55, 64
2, 122040, Note_on_c, 0, 55, 48
2, 122046, Note_on_c, 0, 64, 34
2, 122138, Note_on_c, 0, 79, 74
2, 122154, Note_off_c, 0, 80, 64
2, 122303, Note_on_c, 0, 48, 34
2, 122344, Note_on_c, 0, 85, 81
2, 122364, Control_c, 0, 64, 0
2, 122367, Note_off_c, 0, 79, 64
2, 122396, Control_c, 0, 64, 127
2, 122409, Note_off_c, 0, 55, 64
2, 122432, Note_off_c, 0, 64, 64
2, 122432, Control_c, 0, 64, 0
2, 122464, Control_c, 0, 64, 127
2, 122596, Note_on_c, 0, 64, 51
2, 122599, Note_on_c, 0, 70, 54
2, 122600, Note_on_c, 0, 61, 48
2, 122673, Note_off_c, 0, 85, 64
2, 122727, Note_off_c, 0, 64, 64
2, 122731, Note_off_c, 0, 61, 64
2, 122746, Note_on_c, 0, 72, 55
2, 122760, Note_off_c, 0, 70, 64
2, 122782, Note_on_c, 0, 70, 64
2, 122787, Note_on_c, 0, 61, 50
2, 122790, Note_on_c, 0, 64, 50
2, 122809, Note_off_c, 0, 72, 64
2, 122814, Note_off_c, 0, 48, 64
2, 122885, Note_on_c, 0, 69, 54
2, 122898, Note_off_c, 0, 70, 64
2, 122938, Note_off_c, 0, 64, 64
2, 122962, Note_off_c, 0, 61, 64
2, 122968, Note_on_c, 0, 48, 64
2, 122972, Note_on_c, 0, 68, 60
2, 122992, Note_off_c, 0, 69, 64
2, 122996, Control_c, 0, 64, 0
2, 123026, Control_c, 0, 64, 127
2, 123064, Control_c, 0, 64, 0
2, 123086, Note_off_c, 0, 68, 64
2, 123094, Control_c, 0, 64, 127
2, 123156, Note_on_c, 0, 58, 43
2, 123157, Note_on_c, 0, 68, 55
2, 123162, Note_on_c, 0, 64, 43
2, 123164, Note_on_c, 0, 61, 43
2, 123189, Control_c, 0, 64, 0
2, 123218, Control_c, 0, 64, 127
2, 123241, Note_off_c, 0, 58, 64
2, 123247, Note_off_c, 0, 64, 64
2, 123249, Note_off_c, 0, 61, 64
2, 123257, Control_c, 0, 64, 0
2, 123286, Control_c, 0, 64, 127
2, 123301, Note_on_c, 0, 70, 51
2, 123318, Note_off_c, 0, 68, 64
2, 123332, Note_on_c, 0, 68, 64
2, 123332, Note_on_c, 0, 64, 44
2, 123340, Note_on_c, 0, 61, 51
2, 123346, Note_on_c, 0, 58, 44
2, 123392, Note_off_c, 0, 70, 64
2, 123425, Note_off_c, 0, 61, 64
2, 123431, Note_off_c, 0, 58, 64
2, 123437, Note_on_c, 0, 67, 57
2, 123443, Note_off_c, 0, 64, 64
2, 123460, Note_off_c, 0, 68, 64
2, 123481, Note_off_c, 0, 48, 64
2, 123546, Note_on_c, 0, 36, 72
2, 123550, Note_on_c, 0, 65, 55
2, 123555, Control_c, 0, 64, 0
2, 123565, Note_off_c, 0, 67, 64
2, 123568, Control_c, 0, 64, 127
2, 123623, Control_c, 0, 64, 0
2, 123636, Control_c, 0, 64, 127
2, 123643, Note_on_c, 0, 79, 65
2, 123670, Note_off_c, 0, 65, 64
2, 123739, Note_on_c, 0, 77, 60
2, 123740, Note_on_c, 0, 56, 37
2, 123742, Note_on_c, 0, 65, 47
2, 123752, Control_c, 0, 64, 0
2, 123764, Control_c, 0, 64, 127
2, 123772, Note_off_c, 0, 79, 64
2, 123820, Control_c, 0, 64, 0
2, 123824, Note_on_c, 0, 76, 64
2, 123832, Control_c, 0, 64, 127
2, 123833, Note_off_c, 0, 65, 64
2, 123843, Note_off_c, 0, 56, 64
2, 123854, Note_off_c, 0, 77, 64
2, 123908, Note_on_c, 0, 65, 51
2, 123915, Note_on_c, 0, 75, 59
2, 123915, Note_on_c, 0, 56, 49
2, 123939, Note_off_c, 0, 76, 64
2, 123995, Note_on_c, 0, 74, 57
2, 124004, Note_off_c, 0, 75, 64
2, 124030, Note_off_c, 0, 65, 64
2, 124037, Note_off_c, 0, 56, 64
2, 124052, Note_off_c, 0, 36, 64
2, 124090, Note_on_c, 0, 73, 71
2, 124096, Note_on_c, 0, 48, 43
2, 124109, Control_c, 0, 64, 0
2, 124119, Note_off_c, 0, 74, 64
2, 124142, Control_c, 0, 64, 127
2, 124177, Control_c, 0, 64, 0
2, 124186, Note_on_c, 0, 75, 63
2, 124194, Note_off_c, 0, 73, 64
2, 124210, Control_c, 0, 64, 127
2, 124237, Note_on_c, 0, 73, 57
2, 124253, Note_off_c, 0, 75, 64
2, 124268, Note_on_c, 0, 65, 41
2, 124273, Note_on_c, 0, 56, 42
2, 124278, Note_on_c, 0, 72, 59
2, 124294, Note_off_c, 0, 73, 64
2, 124360, Note_on_c, 0, 71, 60
2, 124371, Note_off_c, 0, 65, 64
2, 124378, Note_off_c, 0, 56, 64
2, 124379, Note_off_c, 0, 72, 64
2, 124428, Note_off_c, 0, 48, 64
2, 124460, Note_on_c, 0, 65, 40
2, 124466, Note_on_c, 0, 68, 52
2, 124475, Note_on_c, 0, 56, 49
2, 124499, Note_off_c, 0, 71, 64
2, 124527, Note_off_c, 0, 65, 64
2, 124572, Note_on_c, 0, 65, 51
2, 124577, Note_off_c, 0, 56, 64
2, 124600, Note_off_c, 0, 68, 64
2, 124692, Note_on_c, 0, 36, 63
2, 124704, Note_on_c, 0, 80, 64
2, 124724, Note_off_c, 0, 65, 64
2, 124866, Note_on_c, 0, 65, 60
2, 124926, Note_off_c, 0, 65, 64
2, 124936, Note_on_c, 0, 65, 59
2, 124943, Note_on_c, 0, 59, 49
2, 124944, Note_on_c, 0, 56, 25
2, 124977, Note_off_c, 0, 36, 64
2, 124986, Note_off_c, 0, 80, 64
2, 125080, Note_off_c, 0, 65, 64
2, 125084, Note_off_c, 0, 59, 64
2, 125085, Note_off_c, 0, 56, 64
2, 125134, Note_on_c, 0, 65, 54
2, 125139, Note_on_c, 0, 56, 47
2, 125142, Note_on_c, 0, 59, 37
2, 125320, Note_on_c, 0, 43, 60
2, 125456, Note_off_c, 0, 65, 64
2, 125473, Note_on_c, 0, 65, 40
2, 125495, Note_off_c, 0, 56, 64
2, 125498, Note_off_c, 0, 59, 64
2, 125536, Note_on_c, 0, 55, 43
2, 125536, Note_on_c, 0, 59, 57
2, 125539, Note_on_c, 0, 63, 59
2, 125559, Note_off_c, 0, 65, 64
2, 125575, Control_c, 0, 64, 0
2, 125587, Control_c, 0, 64, 127
2, 125643, Control_c, 0, 64, 0
2, 125655, Control_c, 0, 64, 127
2, 125726, Note_off_c, 0, 59, 64
2, 125751, Note_off_c, 0, 55, 64
2, 125780, Note_on_c, 0, 59, 55
2, 125782, Note_on_c, 0, 61, 51
2, 125784, Note_on_c, 0, 55, 46
2, 125791, Note_off_c, 0, 63, 64
2, 125804, Control_c, 0, 64, 0
2, 125807, Control_c, 0, 64, 0
2, 125819, Control_c, 0, 64, 127
2, 125823, Control_c, 0, 64, 127
2, 125872, Control_c, 0, 64, 0
2, 125875, Control_c, 0, 64, 0
2, 125887, Control_c, 0, 64, 127
2, 125891, Control_c, 0, 64, 127
2, 125956, Note_off_c, 0, 43, 64
2, 125961, Note_off_c, 0, 55, 64
2, 125970, Note_off_c, 0, 59, 64
2, 126027, Note_on_c, 0, 60, 46
2, 126027, Note_on_c, 0, 36, 64
2, 126032, Note_off_c, 0, 61, 64
2, 126047, Control_c, 0, 64, 0
2, 126078, Control_c, 0, 64, 127
2, 126115, Control_c, 0, 64, 0
2, 126146, Control_c, 0, 64, 127
2, 126289, Note_on_c, 0, 52, 70
2, 126297, Note_on_c, 0, 70, 60
2, 126328, Control_c, 0, 64, 0
2, 126332, Note_off_c, 0, 36, 64
2, 126366, Control_c, 0, 64, 127
2, 126377, Note_on_c, 0, 68, 58
2, 126390, Note_on_c, 0, 53, 52
2, 126396, Control_c, 0, 64, 0
2, 126420, Note_off_c, 0, 70, 64
2, 126428, Note_off_c, 0, 52, 64
2, 126434, Control_c, 0, 64, 127
2, 126479, Note_on_c, 0, 67, 60
2, 126479, Note_on_c, 0, 55, 60
2, 126501, Note_off_c, 0, 60, 64
2, 126504, Note_off_c, 0, 53, 64
2, 126520, Note_off_c, 0, 68, 64
2, 126563, Note_on_c, 0, 56, 66
2, 126563, Note_on_c, 0, 65, 65
2, 126576, Note_off_c, 0, 55, 64
2, 126583, Note_off_c, 0, 67, 64
2, 126664, Note_on_c, 0, 61, 66
2, 126664, Note_on_c, 0, 64, 66
2, 126664, Note_on_c, 0, 67, 60
2, 126668, Note_on_c, 0, 48, 64
2, 126668, Note_on_c, 0, 58, 72
2, 126676, Note_off_c, 0, 65, 64
2, 126677, Note_on_c, 0, 58, 72
2, 126691, Note_on_c, 0, 67, 60
2, 126695, Control_c, 0, 64, 0
2, 126696, Note_off_c, 0, 56, 64
2, 126733, Control_c, 0, 64, 127
2, 126763, Control_c, 0, 64, 0
2, 126795, Note_on_c, 0, 68, 59
2, 126801, Control_c, 0, 64, 127
2, 126808, Note_off_c, 0, 61, 64
2, 126809, Note_on_c, 0, 60, 74
2, 126814, Note_off_c, 0, 64, 64
2, 126842, Note_on_c, 0, 67, 72
2, 126852, Note_on_c, 0, 64, 66
2, 126852, Note_on_c, 0, 61, 52
2, 126855, Note_on_c, 0, 58, 71
2, 126864, Note_off_c, 0, 68, 64
2, 126867, Control_c, 0, 64, 0
2, 126877, Note_on_c, 0, 58, 72
2, 126884, Note_off_c, 0, 60, 64
2, 126888, Note_off_c, 0, 67, 64
2, 126891, Note_on_c, 0, 67, 60
2, 126907, Control_c, 0, 64, 127
2, 126912, Note_off_c, 0, 58, 64
2, 126912, Note_off_c, 0, 58, 64
2, 126935, Control_c, 0, 64, 0
2, 126975, Control_c, 0, 64, 127
2, 126989, Note_off_c, 0, 58, 64
2, 126996, Note_off_c, 0, 67, 64
2, 126996, Note_off_c, 0, 64, 64
2, 127022, Note_off_c, 0, 58, 64
2, 127037, Note_on_c, 0, 65, 66
2, 127038, Note_on_c, 0, 56, 64
2, 127158, Note_off_c, 0, 65, 64
2, 127159, Note_off_c, 0, 56, 64
2, 127210, Note_off_c, 0, 67, 64
2, 127210, Note_off_c, 0, 67, 64
2, 127228, Note_on_c, 0, 65, 51
2, 127228, Note_on_c, 0, 56, 71
2, 127233, Note_on_c, 0, 73, 56
2, 127237, Note_off_c, 0, 61, 64
2, 127247, Control_c, 0, 64, 0
2, 127279, Control_c, 0, 64, 127
2, 127315, Control_c, 0, 64, 0
2, 127347, Control_c, 0, 64, 127
2, 127380, Note_on_c, 0, 77, 50
2, 127380, Note_on_c, 0, 68, 28
2, 127400, Note_off_c, 0, 73, 64
2, 127402, Note_off_c, 0, 65, 64
2, 127417, Note_off_c, 0, 56, 64
2, 127419, Note_off_c, 0, 68, 64
2, 127419, Note_off_c, 0, 77, 64
2, 127430, Note_on_c, 0, 58, 64
2, 127433, Note_on_c, 0, 68, 57
2, 127438, Note_on_c, 0, 77, 56
2, 127447, Control_c, 0, 64, 0
2, 127477, Control_c, 0, 64, 127
2, 127515, Control_c, 0, 64, 0
2, 127535, Note_on_c, 0, 60, 77
2, 127536, Note_off_c, 0, 58, 64
2, 127545, Control_c, 0, 64, 127
2, 127630, Note_on_c, 0, 65, 71
2, 127636, Note_on_c, 0, 61, 54
2, 127639, Note_on_c, 0, 73, 62
2, 127644, Note_off_c, 0, 68, 64
2, 127646, Control_c, 0, 64, 0
2, 127649, Note_off_c, 0, 77, 64
2, 127659, Control_c, 0, 64, 127
2, 127665, Note_off_c, 0, 60, 64
2, 127714, Control_c, 0, 64, 0
2, 127727, Control_c, 0, 64, 127
2, 127731, Note_on_c, 0, 63, 54
2, 127739, Note_off_c, 0, 61, 64
2, 127821, Note_off_c, 0, 65, 64
2, 127832, Note_on_c, 0, 61, 74
2, 127833, Note_on_c, 0, 65, 82
2, 127835, Note_off_c, 0, 48, 64
2, 127837, Note_on_c, 0, 68, 50
2, 127845, Note_off_c, 0, 63, 64
2, 127850, Note_off_c, 0, 73, 64
2, 127937, Note_on_c, 0, 60, 55
2, 127948, Note_off_c, 0, 61, 64
2, 127992, Note_on_c, 0, 67, 46
2, 128004, Note_off_c, 0, 68, 64
2, 128037, Note_off_c, 0, 67, 64
2, 128052, Note_on_c, 0, 67, 49
2, 128052, Note_on_c, 0, 59, 77
2, 128081, Note_off_c, 0, 60, 64
2, 128086, Control_c, 0, 64, 0
2, 128118, Control_c, 0, 64, 127
2, 128132, Note_off_c, 0, 65, 64
2, 128154, Control_c, 0, 64, 0
2, 128186, Control_c, 0, 64, 127
2, 128223, Note_off_c, 0, 59, 64
2, 128223, Note_off_c, 0, 67, 64
2, 128271, Note_on_c, 0, 65, 64
2, 128272, Note_on_c, 0, 55, 52
2, 128274, Note_on_c, 0, 74, 65
2, 128281, Control_c, 0, 64, 0
2, 128311, Control_c, 0, 64, 127
2, 128349, Control_c, 0, 64, 0
2, 128379, Control_c, 0, 64, 127
2, 128460, Note_on_c, 0, 48, 64
2, 128460, Note_on_c, 0, 36, 64
2, 128468, Note_off_c, 0, 65, 64
2, 128472, Note_on_c, 0, 64, 57
2, 128477, Note_off_c, 0, 74, 64
2, 128482, Note_on_c, 0, 72, 57
2, 128493, Control_c, 0, 64, 0
2, 128517, Note_off_c, 0, 55, 64
2, 128523, Control_c, 0, 64, 127
2, 128561, Control_c, 0, 64, 0
2, 128572, Note_on_c, 0, 71, 63
2, 128591, Note_off_c, 0, 72, 64
2, 128591, Control_c, 0, 64, 127
2, 128635, Note_off_c, 0, 64, 64
2, 128676, Note_on_c, 0, 72, 83
2, 128677, Note_on_c, 0, 52, 64
2, 128678, Note_on_c, 0, 70, 77
2, 128692, Note_off_c, 0, 71, 64
2, 128709, Control_c, 0, 64, 0
2, 128737, Control_c, 0, 64, 127
2, 128775, Note_on_c, 0, 68, 64
2, 128776, Note_on_c, 0, 53, 70
2, 128777, Control_c, 0, 64, 0
2, 128781, Note_off_c, 0, 70, 64
2, 128783, Note_off_c, 0, 52, 64
2, 128805, Control_c, 0, 64, 127
2, 128863, Note_off_c, 0, 72, 64
2, 128867, Note_on_c, 0, 55, 71
2, 128868, Note_on_c, 0, 67, 72
2, 128877, Control_c, 0, 64, 0
2, 128879, Note_off_c, 0, 68, 64
2, 128880, Note_off_c, 0, 53, 64
2, 128884, Note_on_c, 0, 72, 83
2, 128891, Note_off_c, 0, 36, 64
2, 128916, Control_c, 0, 64, 127
2, 128945, Control_c, 0, 64, 0
2, 128945, Note_on_c, 0, 56, 59
2, 128950, Note_on_c, 0, 65, 60
2, 128958, Note_off_c, 0, 55, 64
2, 128959, Note_off_c, 0, 67, 64
2, 128984, Control_c, 0, 64, 127
2, 129025, Note_off_c, 0, 72, 64
2, 129048, Note_on_c, 0, 72, 79
2, 129057, Note_on_c, 0, 67, 66
2, 129058, Note_on_c, 0, 58, 87
2, 129060, Note_on_c, 0, 64, 48
2, 129064, Note_off_c, 0, 56, 64
2, 129069, Note_off_c, 0, 65, 64
2, 129077, Control_c, 0, 64, 0
2, 129106, Control_c, 0, 64, 127
2, 129145, Control_c, 0, 64, 0
2, 129174, Control_c, 0, 64, 127
2, 129192, Note_on_c, 0, 68, 48
2, 129196, Note_on_c, 0, 60, 72
2, 129209, Note_off_c, 0, 67, 64
2, 129210, Note_off_c, 0, 58, 64
2, 129236, Note_on_c, 0, 58, 66
2, 129238, Note_on_c, 0, 67, 74
2, 129260, Note_off_c, 0, 68, 64
2, 129264, Note_off_c, 0, 60, 64
2, 129267, Control_c, 0, 64, 0
2, 129315, Control_c, 0, 64, 127
2, 129335, Control_c, 0, 64, 0
2, 129383, Control_c, 0, 64, 127
2, 129404, Note_off_c, 0, 64, 64
2, 129436, Note_on_c, 0, 56, 70
2, 129449, Note_on_c, 0, 65, 66
2, 129452, Note_on_c, 0, 73, 71
2, 129461, Control_c, 0, 64, 0
2, 129463, Note_off_c, 0, 58, 64
2, 129465, Note_off_c, 0, 67, 64
2, 129465, Note_off_c, 0, 72, 64
2, 129493, Control_c, 0, 64, 127
2, 129529, Control_c, 0, 64, 0
2, 129561, Control_c, 0, 64, 127
2, 129583, Note_off_c, 0, 56, 64
2, 129591, Note_off_c, 0, 65, 64
2, 129668, Note_on_c, 0, 56, 70
2, 129677, Control_c, 0, 64, 127
2, 129735, Note_on_c, 0, 80, 72
2, 129745, Control_c, 0, 64, 127
2, 129835, Note_on_c, 0, 58, 64
2, 129837, Note_off_c, 0, 56, 64
2, 129842, Note_on_c, 0, 77, 64
2, 129843, Note_on_c, 0, 68, 80
2, 129860, Note_off_c, 0, 80, 64
2, 129868, Control_c, 0, 64, 0
2, 129873, Note_off_c, 0, 73, 64
2, 129898, Control_c, 0, 64, 127
2, 129936, Control_c, 0, 64, 0
2, 129940, Note_on_c, 0, 60, 64
2, 129959, Note_off_c, 0, 58, 64
2, 129966, Control_c, 0, 64, 127
2, 130028, Note_on_c, 0, 61, 71
2, 130028, Note_on_c, 0, 61, 71
2, 130036, Note_on_c, 0, 73, 72
2, 130036, Note_on_c, 0, 65, 72
2, 130043, Note_off_c, 0, 60, 64
2, 130098, Note_off_c, 0, 77, 64
2, 130099, Note_off_c, 0, 68, 64
2, 130121, Note_on_c, 0, 63, 64
2, 130145, Note_off_c, 0, 61, 64
2, 130145, Note_off_c, 0, 61, 64
2, 130219, Note_off_c, 0, 65, 64
2, 130228, Note_on_c, 0, 61, 70
2, 130235, Note_on_c, 0, 65, 66
2, 130236, Note_on_c, 0, 68, 59
2, 130239, Note_off_c, 0, 73, 64
2, 130254, Note_off_c, 0, 48, 64
2, 130255, Note_off_c, 0, 63, 64
2, 130326, Note_on_c, 0, 60, 77
2, 130338, Note_off_c, 0, 61, 64
2, 130392, Note_on_c, 0, 67, 66
2, 130399, Note_off_c, 0, 68, 64
2, 130437, Note_off_c, 0, 67, 64
2, 130439, Control_c, 0, 64, 0
2, 130447, Note_on_c, 0, 67, 70
2, 130447, Note_on_c, 0, 59, 66
2, 130475, Control_c, 0, 64, 127
2, 130479, Note_off_c, 0, 60, 64
2, 130507, Control_c, 0, 64, 0
2, 130543, Control_c, 0, 64, 127
2, 130644, Note_off_c, 0, 65, 64
2, 130681, Note_on_c, 0, 74, 58
2, 130681, Note_on_c, 0, 55, 59
2, 130684, Note_on_c, 0, 65, 72
2, 130704, Note_off_c, 0, 59, 64
2, 130704, Note_off_c, 0, 67, 64
2, 130711, Control_c, 0, 64, 0
2, 130740, Control_c, 0, 64, 127
2, 130779, Control_c, 0, 64, 0
2, 130808, Control_c, 0, 64, 127
2, 130957, Note_off_c, 0, 55, 64
2, 131000, Note_on_c, 0, 72, 59
2, 131000, Note_on_c, 0, 64, 59
2, 131002, Note_on_c, 0, 48, 42
2, 131010, Note_on_c, 0, 55, 48
2, 131011, Note_off_c, 0, 74, 64
2, 131014, Note_off_c, 0, 65, 64
2, 131040, Control_c, 0, 64, 0
2, 131087, Control_c, 0, 64, 127
2, 131108, Control_c, 0, 64, 0
2, 131155, Control_c, 0, 64, 127
2, 131321, Note_off_c, 0, 48, 64
2, 131325, Note_on_c, 0, 43, 65
2, 131416, Note_on_c, 0, 48, 69
2, 131423, Note_off_c, 0, 43, 64
2, 131445, Control_c, 0, 64, 0
2, 131499, Control_c, 0, 64, 127
2, 131513, Control_c, 0, 64, 0
2, 131523, Note_on_c, 0, 50, 71
2, 131537, Note_off_c, 0, 48, 64
2, 131567, Control_c, 0, 64, 127
2, 131604, Control_c, 0, 64, 0
2, 131613, Note_on_c, 0, 48, 71
2, 131625, Note_off_c, 0, 50, 64
2, 131672, Control_c, 0, 64, 0
2, 131684, Control_c, 0, 64, 127
2, 131752, Control_c, 0, 64, 127
2, 131777, Note_on_c, 0, 43, 65
2, 131779, Note_off_c, 0, 48, 64
2, 131806, Control_c, 0, 64, 0
2, 131823, Note_on_c, 0, 48, 71
2, 131841, Note_off_c, 0, 43, 64
2, 131874, Control_c, 0, 64, 0
2, 131884, Control_c, 0, 64, 127
2, 131947, Note_off_c, 0, 64, 64
2, 131952, Control_c, 0, 64, 127
2, 131962, Note_off_c, 0, 48, 64
2, 131977, Note_off_c, 0, 55, 64
2, 131993, Note_off_c, 0, 72, 64
2, 132065, Note_on_c, 0, 65, 49
2, 132068, Note_on_c, 0, 71, 52
2, 132068, Note_on_c, 0, 43, 51
2, 132072, Note_on_c, 0, 55, 37
2, 132095, Control_c, 0, 64, 0
2, 132152, Control_c, 0, 64, 127
2, 132163, Control_c, 0, 64, 0
2, 132220, Control_c, 0, 64, 127
2, 132382, Note_off_c, 0, 55, 64
2, 132390, Note_on_c, 0, 64, 43
2, 132390, Note_on_c, 0, 72, 47
2, 132395, Note_on_c, 0, 55, 32
2, 132395, Note_on_c, 0, 48, 34
2, 132407, Note_off_c, 0, 71, 64
2, 132409, Note_off_c, 0, 43, 64
2, 132410, Note_off_c, 0, 65, 64
2, 132427, Control_c, 0, 64, 0
2, 132491, Control_c, 0, 64, 127
2, 132495, Control_c, 0, 64, 0
2, 132559, Control_c, 0, 64, 127
2, 132729, Note_on_c, 0, 43, 49
2, 132732, Note_off_c, 0, 48, 64
2, 132833, Note_on_c, 0, 48, 57
2, 132844, Note_off_c, 0, 43, 64
2, 132931, Note_on_c, 0, 50, 55
2, 132949, Note_off_c, 0, 48, 64
2, 133004, Control_c, 0, 64, 0
2, 133033, Note_on_c, 0, 48, 55
2, 133054, Note_off_c, 0, 50, 64
2, 133072, Control_c, 0, 64, 0
2, 133090, Control_c, 0, 64, 127
2, 133158, Control_c, 0, 64, 127
2, 133207, Note_on_c, 0, 43, 49
2, 133209, Note_off_c, 0, 48, 64
2, 133231, Control_c, 0, 64, 0
2, 133250, Note_on_c, 0, 48, 49
2, 133268, Note_off_c, 0, 43, 64
2, 133299, Control_c, 0, 64, 0
2, 133299, Control_c, 0, 64, 127
2, 133335, Note_off_c, 0, 55, 64
2, 133337, Note_off_c, 0, 48, 64
2, 133367, Note_off_c, 0, 64, 64
2, 133367, Control_c, 0, 64, 127
2, 133416, Note_off_c, 0, 72, 64
2, 133504, Note_on_c, 0, 55, 31
2, 133508, Note_on_c, 0, 71, 34
2, 133508, Note_on_c, 0, 65, 46
2, 133508, Note_on_c, 0, 43, 31
2, 133516, Control_c, 0, 64, 127
2, 133517, Control_c, 0, 64, 0
2, 133548, Control_c, 0, 64, 127
2, 133584, Control_c, 0, 64, 127
2, 133585, Control_c, 0, 64, 0
2, 133616, Control_c, 0, 64, 127
2, 133721, Note_off_c, 0, 55, 64
2, 133725, Note_off_c, 0, 43, 64
2, 133725, Note_off_c, 0, 65, 64
2, 133725, Note_off_c, 0, 71, 64
2, 133743, Note_on_c, 0, 64, 51
2, 133750, Note_on_c, 0, 76, 43
2, 133750, Note_on_c, 0, 72, 52
2, 133753, Note_on_c, 0, 48, 40
2, 133759, Note_on_c, 0, 55, 26
2, 133770, Control_c, 0, 64, 0
2, 133803, Note_off_c, 0, 76, 64
2, 133810, Note_off_c, 0, 72, 64
2, 133810, Control_c, 0, 64, 127
2, 133838, Control_c, 0, 64, 0
2, 133841, Note_off_c, 0, 64, 64
2, 133878, Control_c, 0, 64, 127
2, 133908, Note_on_c, 0, 64, 64
2, 133939, Note_off_c, 0, 55, 64
2, 133949, Note_off_c, 0, 64, 64
2, 133959, Note_off_c, 0, 48, 64
2, 133963, Control_c, 0, 64, 0
2, 133969, Note_on_c, 0, 64, 57
2, 134005, Control_c, 0, 64, 127
2, 134031, Control_c, 0, 64, 0
2, 134073, Control_c, 0, 64, 127
2, 134175, Note_off_c, 0, 64, 64
2, 134198, Note_on_c, 0, 56, 58
2, 134205, Note_on_c, 0, 60, 59
2, 134208, Note_on_c, 0, 64, 55
2, 134214, Note_on_c, 0, 41, 54
2, 134217, Note_on_c, 0, 53, 46
2, 134224, Control_c, 0, 64, 0
2, 134263, Control_c, 0, 64, 127
2, 134292, Control_c, 0, 64, 0
2, 134331, Control_c, 0, 64, 127
2, 134337, Note_off_c, 0, 60, 64
2, 134355, Note_off_c, 0, 64, 64
2, 134381, Note_off_c, 0, 53, 64
2, 134389, Note_off_c, 0, 41, 64
2, 134431, Note_off_c, 0, 56, 64
2, 134454, Note_on_c, 0, 64, 51
2, 134454, Note_on_c, 0, 55, 48
2, 134460, Note_on_c, 0, 60, 51
2, 134464, Note_on_c, 0, 36, 48
2, 134467, Note_on_c, 0, 48, 47
2, 134467, Control_c, 0, 64, 0
2, 134519, Control_c, 0, 64, 127
2, 134521, Note_off_c, 0, 48, 64
2, 134526, Note_off_c, 0, 36, 64
2, 134535, Control_c, 0, 64, 0
2, 134577, Note_off_c, 0, 60, 64
2, 134587, Control_c, 0, 64, 127
2, 134618, Note_off_c, 0, 64, 64
2, 134621, Note_on_c, 0, 64, 51
2, 134650, Note_off_c, 0, 64, 64
2, 134662, Control_c, 0, 64, 0
2, 134672, Note_on_c, 0, 64, 59
2, 134730, Control_c, 0, 64, 0
2, 134741, Control_c, 0, 64, 127
2, 134780, Note_off_c, 0, 55, 64
2, 134809, Control_c, 0, 64, 127
2, 134869, Note_off_c, 0, 64, 64
2, 134925, Note_on_c, 0, 56, 41
2, 134929, Note_on_c, 0, 64, 54
2, 134934, Note_on_c, 0, 41, 41
2, 134934, Note_on_c, 0, 60, 54
2, 134939, Control_c, 0, 64, 0
2, 134945, Note_on_c, 0, 48, 21
2, 134980, Control_c, 0, 64, 127
2, 135007, Control_c, 0, 64, 0
2, 135048, Control_c, 0, 64, 127
2, 135052, Note_off_c, 0, 60, 64
2, 135059, Note_off_c, 0, 48, 64
2, 135062, Note_off_c, 0, 41, 64
2, 135095, Note_off_c, 0, 64, 64
2, 135131, Note_off_c, 0, 56, 64
2, 135203, Note_on_c, 0, 60, 49
2, 135207, Note_on_c, 0, 36, 47
2, 135212, Note_on_c, 0, 64, 43
2, 135212, Note_on_c, 0, 55, 41
2, 135219, Note_on_c, 0, 48, 40
2, 135222, Control_c, 0, 64, 0
2, 135248, Note_off_c, 0, 60, 64
2, 135249, Note_off_c, 0, 55, 64
2, 135250, Note_off_c, 0, 36, 64
2, 135252, Note_off_c, 0, 48, 64
2, 135256, Note_off_c, 0, 64, 64
2, 135290, Control_c, 0, 64, 0
2, 135311, Control_c, 0, 64, 127
2, 135369, Control_c, 0, 64, 0
2, 135379, Control_c, 0, 64, 127
2, 135437, Control_c, 0, 64, 0
2, 135479, Note_on_c, 0, 64, 40
2, 135479, Note_on_c, 0, 36, 42
2, 135485, Note_on_c, 0, 55, 35
2, 135485, Note_on_c, 0, 48, 42
2, 135487, Note_on_c, 0, 60, 42
2, 135511, Note_off_c, 0, 60, 64
2, 135513, Note_off_c, 0, 55, 64
2, 135515, Note_off_c, 0, 36, 64
2, 135520, Note_off_c, 0, 48, 64
2, 135523, Note_off_c, 0, 64, 64
2, 136088, Note_on_c, 0, 36, 28
2, 136090, Note_on_c, 0, 60, 36
2, 136092, Note_on_c, 0, 64, 37
2, 136097, Note_on_c, 0, 55, 31
2, 136100, Note_on_c, 0, 48, 28
2, 136125, Note_off_c, 0, 60, 64
2, 136130, Note_off_c, 0, 55, 64
2, 136132, Note_off_c, 0, 64, 64
2, 136135, Note_off_c, 0, 36, 64
2, 136136, Note_off_c, 0, 48, 64
2, 136421, Note_on_c, 0, 64, 36
2, 136427, Note_on_c, 0, 55, 23
2, 136427, Note_on_c, 0, 36, 23
2, 136431, Note_on_c, 0, 60, 35
2, 136437, Note_on_c, 0, 48, 23
2, 136450, Note_off_c, 0, 60, 64
2, 136457, Note_off_c, 0, 55, 64
2, 136459, Note_off_c, 0, 36, 64
2, 136460, Note_off_c, 0, 64, 64
2, 136466, Note_off_c, 0, 48, 64
2, 136466, End_track
3, 0, Start_track
3, 0, Title_t, "Played by Dr. Ron Lubetsky"
3, 0, End_track
4, 0, Start_track
4, 0, Title_t, "March 24, 1998"
4, 0, End_track
5, 0, Start_track
5, 0, Title_t, "email: acuity2020@aol.com"
5, 0, End_track
6, 0, Start_track
6, 0, Title_t, "Copyright  1998"
6, 0, End_track
7, 0, Start_track
7, 0, Title_t, "All Rights Reserved"
7, 0, End_track
0, 0, End_of_file
