2, 0, Program_c, 0, 0
2, 0, Control_c, 0, 7, 127
2, 24, Note_on_c, 0, 80, 58
2, 144, Control_c, 0, 64, 0
2, 226, Control_c, 0, 64, 127
2, 343, Control_c, 0, 64, 127
2, 477, Note_off_c, 0, 80, 64
2, 529, Note_on_c, 0, 80, 32
2, 560, Control_c, 0, 64, 0
2, 637, Note_on_c, 0, 83, 55
2, 642, Control_c, 0, 64, 127
2, 650, Note_off_c, 0, 80, 64
2, 709, Control_c, 0, 64, 0
2, 719, Note_on_c, 0, 81, 49
2, 732, Note_off_c, 0, 83, 64
2, 748, Control_c, 0, 64, 127
2, 771, Control_c, 0, 64, 0
2, 809, Note_on_c, 0, 80, 58
2, 825, Control_c, 0, 64, 127
2, 844, Note_off_c, 0, 81, 64
2, 909, Note_on_c, 0, 79, 56
2, 922, Note_off_c, 0, 80, 64
2, 948, Control_c, 0, 64, 0
2, 1002, Note_on_c, 0, 75, 46
2, 1015, Control_c, 0, 64, 127
2, 1035, Note_off_c, 0, 79, 64
2, 1068, Control_c, 0, 64, 0
2, 1112, Note_on_c, 0, 80, 54
2, 1122, Control_c, 0, 64, 127
2, 1125, Control_c, 0, 64, 0
2, 1132, Note_off_c, 0, 75, 64
2, 1164, Control_c, 0, 64, 127
2, 1187, Control_c, 0, 64, 0
2, 1241, Control_c, 0, 64, 127
2, 1361, Note_on_c, 0, 68, 36
2, 1364, Control_c, 0, 64, 0
2, 1364, Note_on_c, 0, 72, 41
2, 1387, Control_c, 0, 64, 0
2, 1431, Control_c, 0, 64, 127
2, 1443, Control_c, 0, 64, 127
2, 1479, Note_on_c, 0, 78, 39
2, 1484, Control_c, 0, 64, 0
2, 1538, Control_c, 0, 64, 127
2, 1550, Note_off_c, 0, 80, 64
2, 1620, Note_on_c, 0, 73, 40
2, 1624, Note_on_c, 0, 76, 42
2, 1636, Note_off_c, 0, 78, 64
2, 1638, Control_c, 0, 64, 0
2, 1662, Note_off_c, 0, 72, 64
2, 1669, Control_c, 0, 64, 127
2, 1744, Note_off_c, 0, 68, 64
2, 1803, Control_c, 0, 64, 0
2, 1859, Control_c, 0, 64, 127
2, 1881, Note_on_c, 0, 68, 45
2, 1982, Note_on_c, 0, 71, 49
2, 2016, Note_off_c, 0, 68, 64
2, 2054, Control_c, 0, 64, 0
2, 2081, Note_on_c, 0, 69, 49
2, 2085, Control_c, 0, 64, 127
2, 2105, Note_off_c, 0, 71, 64
2, 2154, Note_on_c, 0, 68, 45
2, 2174, Note_off_c, 0, 69, 64
2, 2251, Note_on_c, 0, 67, 50
2, 2258, Note_on_c, 0, 75, 45
2, 2264, Note_off_c, 0, 76, 64
2, 2275, Control_c, 0, 64, 0
2, 2277, Note_off_c, 0, 68, 64
2, 2311, Control_c, 0, 64, 127
2, 2336, Note_on_c, 0, 63, 49
2, 2364, Note_off_c, 0, 67, 64
2, 2444, Note_on_c, 0, 68, 55
2, 2448, Note_on_c, 0, 72, 42
2, 2476, Note_off_c, 0, 63, 64
2, 2476, Control_c, 0, 64, 0
2, 2493, Note_off_c, 0, 73, 64
2, 2519, Control_c, 0, 64, 127
2, 2644, Note_on_c, 0, 56, 45
2, 2691, Control_c, 0, 64, 0
2, 2697, Note_off_c, 0, 72, 64
2, 2727, Control_c, 0, 64, 127
2, 2745, Note_on_c, 0, 66, 46
2, 2791, Note_off_c, 0, 68, 64
2, 2866, Note_on_c, 0, 73, 42
2, 2872, Note_on_c, 0, 61, 20
2, 2873, Note_on_c, 0, 64, 42
2, 2880, Note_off_c, 0, 66, 64
2, 2883, Note_off_c, 0, 56, 64
2, 2886, Note_off_c, 0, 75, 64
2, 2892, Control_c, 0, 64, 0
2, 2918, Control_c, 0, 64, 0
2, 2935, Control_c, 0, 64, 127
2, 2990, Control_c, 0, 64, 127
2, 3123, Note_on_c, 0, 75, 52
2, 3160, Note_off_c, 0, 64, 64
2, 3181, Note_off_c, 0, 73, 64
2, 3200, Note_off_c, 0, 61, 64
2, 3219, Note_on_c, 0, 78, 58
2, 3249, Note_off_c, 0, 75, 64
2, 3316, Note_on_c, 0, 76, 56
2, 3333, Note_off_c, 0, 78, 64
2, 3334, Control_c, 0, 64, 0
2, 3403, Note_on_c, 0, 75, 57
2, 3406, Control_c, 0, 64, 127
2, 3412, Note_off_c, 0, 76, 64
2, 3417, Control_c, 0, 64, 0
2, 3494, Note_on_c, 0, 73, 58
2, 3504, Note_off_c, 0, 75, 64
2, 3504, Control_c, 0, 64, 127
2, 3568, Note_on_c, 0, 70, 64
2, 3583, Note_off_c, 0, 73, 64
2, 3674, Note_on_c, 0, 75, 49
2, 3689, Note_off_c, 0, 70, 64
2, 3833, Control_c, 0, 64, 0
2, 3872, Note_on_c, 0, 63, 39
2, 3878, Note_on_c, 0, 67, 37
2, 3903, Control_c, 0, 64, 0
2, 3920, Control_c, 0, 64, 127
2, 3954, Control_c, 0, 64, 127
2, 3971, Note_on_c, 0, 73, 41
2, 3999, Note_off_c, 0, 75, 64
2, 4076, Note_on_c, 0, 68, 45
2, 4078, Note_on_c, 0, 71, 49
2, 4085, Note_off_c, 0, 67, 64
2, 4087, Note_off_c, 0, 73, 64
2, 4097, Control_c, 0, 64, 0
2, 4121, Control_c, 0, 64, 127
2, 4234, Note_off_c, 0, 63, 64
2, 4307, Note_on_c, 0, 63, 46
2, 4319, Control_c, 0, 64, 0
2, 4370, Control_c, 0, 64, 127
2, 4398, Note_on_c, 0, 66, 42
2, 4414, Note_off_c, 0, 63, 64
2, 4491, Note_on_c, 0, 64, 47
2, 4505, Note_off_c, 0, 66, 64
2, 4513, Control_c, 0, 64, 0
2, 4537, Control_c, 0, 64, 127
2, 4581, Note_on_c, 0, 63, 53
2, 4593, Note_off_c, 0, 64, 64
2, 4670, Note_on_c, 0, 61, 41
2, 4673, Note_on_c, 0, 70, 36
2, 4681, Note_off_c, 0, 71, 64
2, 4685, Note_off_c, 0, 63, 64
2, 4701, Control_c, 0, 64, 0
2, 4748, Control_c, 0, 64, 127
2, 4764, Note_on_c, 0, 58, 48
2, 4784, Note_off_c, 0, 61, 64
2, 4864, Note_on_c, 0, 67, 57
2, 4867, Note_on_c, 0, 63, 54
2, 4876, Note_off_c, 0, 68, 64
2, 4879, Control_c, 0, 64, 0
2, 4880, Note_off_c, 0, 58, 64
2, 4912, Control_c, 0, 64, 127
2, 5086, Note_on_c, 0, 51, 45
2, 5117, Control_c, 0, 64, 0
2, 5164, Control_c, 0, 64, 127
2, 5187, Note_off_c, 0, 51, 64
2, 5188, Note_on_c, 0, 61, 54
2, 5211, Note_off_c, 0, 63, 64
2, 5295, Control_c, 0, 64, 0
2, 5328, Control_c, 0, 64, 127
2, 5353, Note_on_c, 0, 44, 53
2, 5360, Note_on_c, 0, 66, 41
2, 5361, Note_on_c, 0, 72, 63
2, 5365, Note_on_c, 0, 60, 47
2, 5372, Note_off_c, 0, 70, 64
2, 5384, Note_off_c, 0, 67, 64
2, 5385, Note_off_c, 0, 61, 64
2, 5396, Control_c, 0, 64, 0
2, 5460, Control_c, 0, 64, 127
2, 5465, Note_on_c, 0, 73, 67
2, 5478, Note_off_c, 0, 66, 64
2, 5479, Note_off_c, 0, 72, 64
2, 5483, Note_off_c, 0, 60, 64
2, 5547, Note_on_c, 0, 75, 59
2, 5581, Note_off_c, 0, 73, 64
2, 5626, Note_on_c, 0, 76, 67
2, 5641, Note_off_c, 0, 75, 64
2, 5680, Note_off_c, 0, 44, 64
2, 5703, Note_on_c, 0, 78, 69
2, 5737, Note_off_c, 0, 76, 64
2, 5775, Note_on_c, 0, 80, 71
2, 5797, Note_off_c, 0, 78, 64
2, 5812, Control_c, 0, 64, 0
2, 5848, Note_on_c, 0, 81, 63
2, 5876, Control_c, 0, 64, 127
2, 5883, Note_off_c, 0, 80, 64
2, 5889, Note_on_c, 0, 83, 65
2, 5909, Note_off_c, 0, 81, 64
2, 5916, Control_c, 0, 64, 0
2, 5934, Note_on_c, 0, 81, 54
2, 5954, Note_off_c, 0, 83, 64
2, 5995, Note_on_c, 0, 78, 66
2, 6011, Note_on_c, 0, 60, 60
2, 6011, Note_on_c, 0, 56, 49
2, 6012, Note_on_c, 0, 66, 54
2, 6021, Control_c, 0, 64, 127
2, 6027, Note_off_c, 0, 81, 64
2, 6073, Note_on_c, 0, 76, 58
2, 6078, Note_off_c, 0, 78, 64
2, 6093, Note_off_c, 0, 56, 64
2, 6093, Note_off_c, 0, 60, 64
2, 6094, Note_off_c, 0, 66, 64
2, 6145, Control_c, 0, 64, 0
2, 6155, Note_on_c, 0, 75, 69
2, 6160, Note_on_c, 0, 66, 49
2, 6160, Note_on_c, 0, 57, 42
2, 6161, Note_on_c, 0, 61, 46
2, 6172, Note_off_c, 0, 76, 64
2, 6199, Control_c, 0, 64, 127
2, 6228, Note_on_c, 0, 73, 59
2, 6238, Note_off_c, 0, 75, 64
2, 6242, Note_off_c, 0, 57, 64
2, 6242, Note_off_c, 0, 66, 64
2, 6243, Note_off_c, 0, 61, 64
2, 6298, Control_c, 0, 64, 0
2, 6316, Note_on_c, 0, 66, 49
2, 6320, Note_on_c, 0, 72, 62
2, 6320, Note_on_c, 0, 60, 64
2, 6325, Note_on_c, 0, 56, 47
2, 6329, Note_off_c, 0, 73, 64
2, 6332, Control_c, 0, 64, 0
2, 6332, Control_c, 0, 64, 127
2, 6380, Note_on_c, 0, 73, 63
2, 6398, Note_off_c, 0, 66, 64
2, 6402, Note_off_c, 0, 60, 64
2, 6407, Note_off_c, 0, 56, 64
2, 6411, Note_off_c, 0, 72, 64
2, 6437, Control_c, 0, 64, 127
2, 6454, Control_c, 0, 64, 0
2, 6460, Note_on_c, 0, 75, 66
2, 6460, Note_on_c, 0, 44, 69
2, 6481, Note_off_c, 0, 73, 64
2, 6484, Control_c, 0, 64, 127
2, 6534, Note_on_c, 0, 76, 62
2, 6544, Note_off_c, 0, 75, 64
2, 6561, Control_c, 0, 64, 0
2, 6600, Note_on_c, 0, 56, 58
2, 6604, Note_on_c, 0, 66, 58
2, 6606, Note_on_c, 0, 60, 42
2, 6607, Note_on_c, 0, 78, 83
2, 6610, Control_c, 0, 64, 0
2, 6615, Control_c, 0, 64, 127
2, 6630, Note_off_c, 0, 76, 64
2, 6682, Note_off_c, 0, 56, 64
2, 6683, Note_on_c, 0, 80, 56
2, 6686, Note_off_c, 0, 66, 64
2, 6688, Note_off_c, 0, 60, 64
2, 6698, Control_c, 0, 64, 127
2, 6714, Control_c, 0, 64, 0
2, 6718, Note_off_c, 0, 78, 64
2, 6735, Note_off_c, 0, 44, 64
2, 6748, Control_c, 0, 64, 127
2, 6758, Note_on_c, 0, 81, 57
2, 6790, Note_off_c, 0, 80, 64
2, 6804, Note_on_c, 0, 83, 69
2, 6821, Note_off_c, 0, 81, 64
2, 6849, Note_on_c, 0, 81, 66
2, 6863, Note_off_c, 0, 83, 64
2, 6870, Control_c, 0, 64, 0
2, 6900, Control_c, 0, 64, 127
2, 6901, Control_c, 0, 64, 0
2, 6911, Note_on_c, 0, 78, 62
2, 6912, Note_on_c, 0, 60, 54
2, 6916, Note_on_c, 0, 56, 54
2, 6918, Note_on_c, 0, 66, 40
2, 6932, Control_c, 0, 64, 127
2, 6938, Note_off_c, 0, 81, 64
2, 6976, Note_on_c, 0, 76, 63
2, 6986, Note_off_c, 0, 78, 64
2, 6994, Note_off_c, 0, 60, 64
2, 6998, Note_off_c, 0, 56, 64
2, 7000, Note_off_c, 0, 66, 64
2, 7026, Control_c, 0, 64, 0
2, 7045, Control_c, 0, 64, 0
2, 7054, Note_on_c, 0, 75, 62
2, 7056, Note_on_c, 0, 66, 46
2, 7056, Note_on_c, 0, 61, 26
2, 7056, Note_on_c, 0, 57, 42
2, 7061, Note_off_c, 0, 76, 64
2, 7091, Control_c, 0, 64, 127
2, 7114, Control_c, 0, 64, 127
2, 7120, Note_on_c, 0, 73, 54
2, 7138, Note_off_c, 0, 57, 64
2, 7138, Note_off_c, 0, 61, 64
2, 7138, Note_off_c, 0, 66, 64
2, 7140, Note_off_c, 0, 75, 64
2, 7197, Control_c, 0, 64, 0
2, 7208, Note_on_c, 0, 66, 59
2, 7208, Note_on_c, 0, 60, 58
2, 7211, Note_on_c, 0, 75, 43
2, 7212, Note_on_c, 0, 56, 3
2, 7230, Note_off_c, 0, 73, 64
2, 7241, Control_c, 0, 64, 127
2, 7274, Note_on_c, 0, 68, 58
2, 7290, Note_off_c, 0, 60, 64
2, 7290, Note_off_c, 0, 66, 64
2, 7294, Note_off_c, 0, 56, 64
2, 7301, Note_off_c, 0, 75, 64
2, 7317, Control_c, 0, 64, 0
2, 7348, Control_c, 0, 64, 127
2, 7358, Note_on_c, 0, 80, 73
2, 7366, Note_on_c, 0, 44, 56
2, 7366, Control_c, 0, 64, 0
2, 7409, Control_c, 0, 64, 127
2, 7461, Control_c, 0, 64, 0
2, 7503, Control_c, 0, 64, 0
2, 7507, Control_c, 0, 64, 127
2, 7512, Note_on_c, 0, 60, 54
2, 7514, Note_on_c, 0, 51, 52
2, 7539, Control_c, 0, 64, 127
2, 7561, Note_off_c, 0, 68, 64
2, 7584, Note_off_c, 0, 80, 64
2, 7588, Note_on_c, 0, 75, 62
2, 7594, Note_off_c, 0, 60, 64
2, 7596, Note_off_c, 0, 51, 64
2, 7613, Control_c, 0, 64, 0
2, 7655, Note_on_c, 0, 80, 64
2, 7657, Control_c, 0, 64, 127
2, 7660, Note_on_c, 0, 56, 58
2, 7661, Note_on_c, 0, 66, 59
2, 7665, Note_off_c, 0, 75, 64
2, 7709, Note_off_c, 0, 44, 64
2, 7739, Note_on_c, 0, 75, 59
2, 7742, Note_off_c, 0, 56, 64
2, 7743, Note_off_c, 0, 66, 64
2, 7749, Note_off_c, 0, 80, 64
2, 7782, Control_c, 0, 64, 0
2, 7810, Note_on_c, 0, 80, 59
2, 7812, Note_on_c, 0, 60, 29
2, 7814, Note_on_c, 0, 51, 60
2, 7814, Control_c, 0, 64, 0
2, 7825, Control_c, 0, 64, 127
2, 7828, Note_off_c, 0, 75, 64
2, 7833, Control_c, 0, 64, 127
2, 7894, Note_off_c, 0, 60, 64
2, 7896, Note_off_c, 0, 51, 64
2, 7919, Control_c, 0, 64, 0
2, 7952, Note_on_c, 0, 44, 73
2, 7955, Control_c, 0, 64, 127
2, 8028, Note_on_c, 0, 68, 56
2, 8034, Note_off_c, 0, 80, 64
2, 8110, Control_c, 0, 64, 0
2, 8116, Note_on_c, 0, 32, 72
2, 8122, Note_on_c, 0, 75, 56
2, 8149, Control_c, 0, 64, 127
2, 8155, Note_off_c, 0, 68, 64
2, 8220, Note_on_c, 0, 68, 60
2, 8230, Control_c, 0, 64, 0
2, 8231, Note_off_c, 0, 75, 64
2, 8239, Note_off_c, 0, 44, 64
2, 8249, Control_c, 0, 64, 127
2, 8296, Note_on_c, 0, 56, 24
2, 8300, Note_on_c, 0, 80, 67
2, 8300, Note_on_c, 0, 66, 39
2, 8300, Note_on_c, 0, 60, 44
2, 8302, Control_c, 0, 64, 0
2, 8331, Control_c, 0, 64, 127
2, 8378, Note_off_c, 0, 56, 64
2, 8382, Note_off_c, 0, 60, 64
2, 8382, Note_off_c, 0, 66, 64
2, 8395, Note_off_c, 0, 32, 64
2, 8398, Note_off_c, 0, 68, 64
2, 8526, Control_c, 0, 64, 0
2, 8536, Note_off_c, 0, 80, 64
2, 8536, Note_on_c, 0, 68, 57
2, 8565, Control_c, 0, 64, 127
2, 8640, Note_on_c, 0, 37, 54
2, 8645, Control_c, 0, 64, 0
2, 8650, Note_on_c, 0, 75, 56
2, 8680, Control_c, 0, 64, 127
2, 8712, Note_off_c, 0, 68, 64
2, 8718, Control_c, 0, 64, 0
2, 8741, Note_on_c, 0, 76, 47
2, 8747, Control_c, 0, 64, 127
2, 8764, Note_off_c, 0, 75, 64
2, 8868, Note_on_c, 0, 73, 64
2, 8881, Note_on_c, 0, 49, 41
2, 8885, Note_on_c, 0, 56, 32
2, 8887, Note_off_c, 0, 76, 64
2, 8891, Note_on_c, 0, 64, 32
2, 8921, Control_c, 0, 64, 0
2, 8954, Control_c, 0, 64, 127
2, 9061, Control_c, 0, 64, 0
2, 9096, Control_c, 0, 64, 127
2, 9182, Note_off_c, 0, 37, 64
2, 9248, Note_on_c, 0, 80, 62
2, 9280, Note_off_c, 0, 73, 64
2, 9284, Control_c, 0, 64, 0
2, 9337, Control_c, 0, 64, 0
2, 9344, Control_c, 0, 64, 127
2, 9370, Control_c, 0, 64, 127
2, 9429, Note_off_c, 0, 56, 64
2, 9431, Note_off_c, 0, 64, 64
2, 9434, Note_off_c, 0, 49, 64
2, 9542, Control_c, 0, 64, 0
2, 9607, Control_c, 0, 64, 127
2, 9663, Note_off_c, 0, 80, 64
2, 9700, Control_c, 0, 64, 0
2, 9711, Note_on_c, 0, 80, 59
2, 9754, Control_c, 0, 64, 0
2, 9760, Control_c, 0, 64, 127
2, 9779, Control_c, 0, 64, 127
2, 9807, Note_on_c, 0, 83, 59
2, 9814, Note_off_c, 0, 80, 64
2, 9858, Control_c, 0, 64, 0
2, 9888, Note_on_c, 0, 81, 58
2, 9906, Note_off_c, 0, 83, 64
2, 9913, Control_c, 0, 64, 127
2, 9958, Control_c, 0, 64, 0
2, 9965, Note_on_c, 0, 80, 55
2, 9988, Note_off_c, 0, 81, 64
2, 10011, Control_c, 0, 64, 0
2, 10023, Control_c, 0, 64, 127
2, 10056, Note_on_c, 0, 79, 55
2, 10076, Note_off_c, 0, 80, 64
2, 10106, Control_c, 0, 64, 127
2, 10154, Note_on_c, 0, 75, 29
2, 10168, Note_off_c, 0, 79, 64
2, 10170, Control_c, 0, 64, 0
2, 10195, Control_c, 0, 64, 127
2, 10243, Note_on_c, 0, 80, 47
2, 10265, Note_off_c, 0, 75, 64
2, 10274, Control_c, 0, 64, 0
2, 10329, Control_c, 0, 64, 127
2, 10427, Control_c, 0, 64, 0
2, 10442, Note_on_c, 0, 72, 47
2, 10443, Note_on_c, 0, 68, 35
2, 10457, Control_c, 0, 64, 0
2, 10522, Control_c, 0, 64, 127
2, 10531, Control_c, 0, 64, 127
2, 10545, Note_on_c, 0, 78, 42
2, 10563, Note_off_c, 0, 80, 64
2, 10652, Note_on_c, 0, 76, 49
2, 10652, Note_on_c, 0, 73, 49
2, 10663, Note_off_c, 0, 78, 64
2, 10666, Control_c, 0, 64, 0
2, 10667, Note_off_c, 0, 72, 64
2, 10720, Control_c, 0, 64, 127
2, 10828, Note_off_c, 0, 68, 64
2, 10858, Note_on_c, 0, 68, 39
2, 10873, Control_c, 0, 64, 0
2, 10942, Note_on_c, 0, 71, 55
2, 10947, Control_c, 0, 64, 127
2, 10957, Note_off_c, 0, 68, 64
2, 11031, Note_on_c, 0, 69, 41
2, 11055, Note_off_c, 0, 71, 64
2, 11082, Control_c, 0, 64, 0
2, 11112, Note_on_c, 0, 68, 44
2, 11129, Note_off_c, 0, 69, 64
2, 11136, Control_c, 0, 64, 127
2, 11187, Note_on_c, 0, 67, 40
2, 11190, Note_on_c, 0, 75, 54
2, 11204, Note_off_c, 0, 76, 64
2, 11205, Note_off_c, 0, 68, 64
2, 11213, Control_c, 0, 64, 0
2, 11261, Note_on_c, 0, 63, 49
2, 11261, Control_c, 0, 64, 127
2, 11284, Note_off_c, 0, 67, 64
2, 11354, Note_on_c, 0, 68, 62
2, 11356, Note_on_c, 0, 72, 42
2, 11377, Note_off_c, 0, 63, 64
2, 11378, Control_c, 0, 64, 0
2, 11404, Note_off_c, 0, 73, 64
2, 11440, Control_c, 0, 64, 127
2, 11536, Note_on_c, 0, 56, 46
2, 11618, Note_on_c, 0, 66, 58
2, 11629, Control_c, 0, 64, 0
2, 11649, Note_off_c, 0, 68, 64
2, 11673, Note_off_c, 0, 56, 64
2, 11677, Control_c, 0, 64, 127
2, 11728, Note_on_c, 0, 61, 19
2, 11729, Note_on_c, 0, 73, 44
2, 11729, Note_on_c, 0, 64, 39
2, 11735, Note_off_c, 0, 75, 64
2, 11747, Note_off_c, 0, 66, 64
2, 11763, Note_off_c, 0, 72, 64
2, 11766, Control_c, 0, 64, 0
2, 11794, Control_c, 0, 64, 0
2, 11840, Control_c, 0, 64, 127
2, 11856, Control_c, 0, 64, 127
2, 11932, Note_on_c, 0, 75, 62
2, 11954, Note_off_c, 0, 73, 64
2, 12015, Note_on_c, 0, 78, 56
2, 12034, Note_off_c, 0, 75, 64
2, 12052, Note_off_c, 0, 61, 64
2, 12053, Note_off_c, 0, 64, 64
2, 12059, Control_c, 0, 64, 0
2, 12090, Note_on_c, 0, 76, 63
2, 12096, Note_off_c, 0, 78, 64
2, 12115, Control_c, 0, 64, 127
2, 12171, Note_on_c, 0, 75, 44
2, 12181, Control_c, 0, 64, 0
2, 12182, Control_c, 0, 64, 0
2, 12188, Note_off_c, 0, 76, 64
2, 12250, Note_on_c, 0, 73, 58
2, 12256, Control_c, 0, 64, 127
2, 12258, Control_c, 0, 64, 127
2, 12267, Note_off_c, 0, 75, 64
2, 12332, Note_on_c, 0, 70, 64
2, 12354, Note_off_c, 0, 73, 64
2, 12413, Note_on_c, 0, 75, 54
2, 12439, Note_off_c, 0, 70, 64
2, 12475, Control_c, 0, 64, 0
2, 12531, Control_c, 0, 64, 127
2, 12596, Note_on_c, 0, 67, 29
2, 12597, Control_c, 0, 64, 0
2, 12598, Note_on_c, 0, 63, 46
2, 12619, Control_c, 0, 64, 0
2, 12673, Control_c, 0, 64, 127
2, 12674, Control_c, 0, 64, 127
2, 12682, Note_on_c, 0, 73, 47
2, 12699, Note_off_c, 0, 75, 64
2, 12763, Control_c, 0, 64, 0
2, 12784, Note_on_c, 0, 71, 46
2, 12784, Note_on_c, 0, 68, 56
2, 12807, Note_off_c, 0, 67, 64
2, 12808, Note_off_c, 0, 73, 64
2, 12821, Control_c, 0, 64, 127
2, 12983, Note_off_c, 0, 63, 64
2, 13003, Note_on_c, 0, 63, 55
2, 13013, Control_c, 0, 64, 0
2, 13035, Control_c, 0, 64, 0
2, 13051, Control_c, 0, 64, 127
2, 13080, Note_on_c, 0, 66, 66
2, 13089, Control_c, 0, 64, 127
2, 13108, Note_off_c, 0, 63, 64
2, 13155, Note_on_c, 0, 64, 52
2, 13173, Note_off_c, 0, 66, 64
2, 13179, Control_c, 0, 64, 0
2, 13237, Control_c, 0, 64, 127
2, 13237, Note_on_c, 0, 63, 60
2, 13254, Note_off_c, 0, 64, 64
2, 13316, Note_on_c, 0, 70, 55
2, 13322, Note_on_c, 0, 61, 50
2, 13331, Control_c, 0, 64, 0
2, 13335, Note_off_c, 0, 71, 64
2, 13347, Note_off_c, 0, 63, 64
2, 13389, Control_c, 0, 64, 127
2, 13405, Note_on_c, 0, 58, 58
2, 13425, Note_off_c, 0, 61, 64
2, 13429, Control_c, 0, 64, 0
2, 13467, Control_c, 0, 64, 127
2, 13488, Note_on_c, 0, 67, 50
2, 13489, Note_on_c, 0, 63, 65
2, 13497, Control_c, 0, 64, 0
2, 13503, Note_off_c, 0, 68, 64
2, 13519, Note_off_c, 0, 58, 64
2, 13546, Control_c, 0, 64, 127
2, 13656, Note_on_c, 0, 51, 54
2, 13745, Note_on_c, 0, 61, 60
2, 13747, Control_c, 0, 64, 0
2, 13769, Note_off_c, 0, 63, 64
2, 13805, Control_c, 0, 64, 127
2, 13866, Note_off_c, 0, 51, 64
2, 13868, Note_on_c, 0, 60, 41
2, 13868, Note_on_c, 0, 44, 42
2, 13872, Note_off_c, 0, 61, 64
2, 13872, Note_on_c, 0, 72, 63
2, 13875, Note_on_c, 0, 66, 57
2, 13883, Note_off_c, 0, 67, 64
2, 13886, Note_off_c, 0, 70, 64
2, 13898, Control_c, 0, 64, 0
2, 13913, Control_c, 0, 64, 0
2, 13957, Note_on_c, 0, 73, 67
2, 13962, Note_off_c, 0, 60, 64
2, 13962, Control_c, 0, 64, 127
2, 13969, Note_off_c, 0, 66, 64
2, 13978, Note_off_c, 0, 72, 64
2, 14006, Control_c, 0, 64, 127
2, 14030, Note_on_c, 0, 75, 58
2, 14049, Note_off_c, 0, 73, 64
2, 14099, Note_on_c, 0, 76, 73
2, 14120, Note_off_c, 0, 75, 64
2, 14161, Note_off_c, 0, 44, 64
2, 14174, Note_on_c, 0, 78, 79
2, 14200, Note_off_c, 0, 76, 64
2, 14243, Note_on_c, 0, 80, 66
2, 14265, Note_off_c, 0, 78, 64
2, 14311, Note_on_c, 0, 81, 66
2, 14314, Control_c, 0, 64, 0
2, 14344, Note_off_c, 0, 80, 64
2, 14358, Note_on_c, 0, 83, 71
2, 14372, Note_off_c, 0, 81, 64
2, 14407, Note_on_c, 0, 81, 69
2, 14419, Note_off_c, 0, 83, 64
2, 14422, Control_c, 0, 64, 127
2, 14458, Note_on_c, 0, 78, 66
2, 14460, Note_on_c, 0, 60, 56
2, 14464, Note_on_c, 0, 66, 55
2, 14464, Note_on_c, 0, 56, 52
2, 14471, Control_c, 0, 64, 0
2, 14489, Note_off_c, 0, 81, 64
2, 14530, Control_c, 0, 64, 127
2, 14537, Note_on_c, 0, 76, 60
2, 14541, Note_off_c, 0, 78, 64
2, 14542, Note_off_c, 0, 60, 64
2, 14546, Note_off_c, 0, 56, 64
2, 14546, Note_off_c, 0, 66, 64
2, 14593, Control_c, 0, 64, 0
2, 14610, Note_on_c, 0, 75, 62
2, 14616, Note_on_c, 0, 66, 47
2, 14616, Note_on_c, 0, 61, 44
2, 14616, Note_on_c, 0, 57, 39
2, 14631, Note_off_c, 0, 76, 64
2, 14651, Control_c, 0, 64, 127
2, 14681, Note_on_c, 0, 73, 54
2, 14698, Note_off_c, 0, 57, 64
2, 14698, Note_off_c, 0, 61, 64
2, 14698, Note_off_c, 0, 66, 64
2, 14698, Note_off_c, 0, 75, 64
2, 14733, Control_c, 0, 64, 0
2, 14760, Note_on_c, 0, 66, 60
2, 14764, Note_on_c, 0, 56, 34
2, 14766, Note_on_c, 0, 72, 63
2, 14767, Note_on_c, 0, 60, 55
2, 14773, Note_off_c, 0, 73, 64
2, 14788, Control_c, 0, 64, 127
2, 14828, Note_on_c, 0, 73, 65
2, 14842, Note_off_c, 0, 66, 64
2, 14846, Note_off_c, 0, 56, 64
2, 14849, Note_off_c, 0, 60, 64
2, 14867, Note_off_c, 0, 72, 64
2, 14886, Control_c, 0, 64, 0
2, 14887, Control_c, 0, 64, 0
2, 14897, Note_on_c, 0, 75, 73
2, 14903, Note_on_c, 0, 44, 73
2, 14917, Control_c, 0, 64, 127
2, 14923, Note_off_c, 0, 73, 64
2, 14946, Control_c, 0, 64, 127
2, 14971, Note_on_c, 0, 76, 71
2, 14980, Note_off_c, 0, 75, 64
2, 15009, Control_c, 0, 64, 0
2, 15024, Control_c, 0, 64, 0
2, 15034, Note_on_c, 0, 78, 81
2, 15034, Note_on_c, 0, 56, 64
2, 15036, Note_on_c, 0, 66, 59
2, 15036, Note_on_c, 0, 60, 49
2, 15067, Note_off_c, 0, 76, 64
2, 15067, Control_c, 0, 64, 127
2, 15078, Control_c, 0, 64, 127
2, 15106, Note_on_c, 0, 80, 66
2, 15116, Note_off_c, 0, 56, 64
2, 15118, Note_off_c, 0, 60, 64
2, 15118, Note_off_c, 0, 66, 64
2, 15126, Note_off_c, 0, 78, 64
2, 15149, Control_c, 0, 64, 0
2, 15171, Note_off_c, 0, 44, 64
2, 15182, Note_on_c, 0, 81, 85
2, 15204, Control_c, 0, 64, 127
2, 15212, Note_off_c, 0, 80, 64
2, 15226, Note_on_c, 0, 83, 67
2, 15241, Note_off_c, 0, 81, 64
2, 15272, Note_on_c, 0, 81, 66
2, 15286, Note_off_c, 0, 83, 64
2, 15302, Control_c, 0, 64, 0
2, 15302, Control_c, 0, 64, 0
2, 15324, Note_on_c, 0, 60, 57
2, 15326, Note_on_c, 0, 78, 69
2, 15328, Note_on_c, 0, 56, 59
2, 15330, Note_on_c, 0, 66, 44
2, 15333, Control_c, 0, 64, 127
2, 15343, Control_c, 0, 64, 127
2, 15351, Note_off_c, 0, 81, 64
2, 15387, Note_on_c, 0, 76, 59
2, 15399, Note_off_c, 0, 78, 64
2, 15406, Note_off_c, 0, 60, 64
2, 15410, Note_off_c, 0, 56, 64
2, 15412, Note_off_c, 0, 66, 64
2, 15440, Control_c, 0, 64, 0
2, 15447, Control_c, 0, 64, 0
2, 15455, Note_on_c, 0, 75, 67
2, 15464, Note_on_c, 0, 66, 31
2, 15464, Note_on_c, 0, 61, 41
2, 15464, Note_on_c, 0, 57, 41
2, 15470, Note_off_c, 0, 76, 64
2, 15478, Control_c, 0, 64, 127
2, 15494, Control_c, 0, 64, 127
2, 15523, Note_on_c, 0, 73, 60
2, 15534, Note_off_c, 0, 75, 64
2, 15546, Note_off_c, 0, 57, 64
2, 15546, Note_off_c, 0, 61, 64
2, 15546, Note_off_c, 0, 66, 64
2, 15588, Control_c, 0, 64, 0
2, 15599, Note_on_c, 0, 75, 73
2, 15601, Note_on_c, 0, 60, 55
2, 15604, Note_on_c, 0, 56, 55
2, 15607, Note_on_c, 0, 66, 56
2, 15610, Note_off_c, 0, 73, 64
2, 15630, Control_c, 0, 64, 127
2, 15662, Note_on_c, 0, 68, 73
2, 15680, Note_off_c, 0, 75, 64
2, 15683, Note_off_c, 0, 60, 64
2, 15686, Note_off_c, 0, 56, 64
2, 15689, Note_off_c, 0, 66, 64
2, 15718, Control_c, 0, 64, 0
2, 15742, Note_on_c, 0, 80, 73
2, 15748, Note_on_c, 0, 44, 62
2, 15749, Control_c, 0, 64, 0
2, 15759, Control_c, 0, 64, 127
2, 15793, Control_c, 0, 64, 127
2, 15810, Note_off_c, 0, 68, 64
2, 15863, Control_c, 0, 64, 0
2, 15879, Control_c, 0, 64, 0
2, 15892, Note_on_c, 0, 51, 60
2, 15894, Control_c, 0, 64, 127
2, 15899, Note_on_c, 0, 60, 64
2, 15908, Control_c, 0, 64, 127
2, 15963, Note_off_c, 0, 80, 64
2, 15968, Note_on_c, 0, 75, 58
2, 15974, Note_off_c, 0, 51, 64
2, 15981, Note_off_c, 0, 60, 64
2, 16004, Control_c, 0, 64, 0
2, 16035, Note_on_c, 0, 66, 67
2, 16036, Note_on_c, 0, 56, 62
2, 16038, Note_on_c, 0, 80, 73
2, 16046, Control_c, 0, 64, 127
2, 16048, Note_off_c, 0, 75, 64
2, 16069, Note_off_c, 0, 44, 64
2, 16117, Note_off_c, 0, 66, 64
2, 16118, Note_off_c, 0, 56, 64
2, 16120, Note_on_c, 0, 75, 62
2, 16140, Note_off_c, 0, 80, 64
2, 16165, Control_c, 0, 64, 0
2, 16180, Control_c, 0, 64, 0
2, 16186, Note_on_c, 0, 60, 63
2, 16186, Note_on_c, 0, 51, 62
2, 16187, Note_on_c, 0, 80, 66
2, 16202, Note_off_c, 0, 75, 64
2, 16209, Control_c, 0, 64, 127
2, 16210, Control_c, 0, 64, 127
2, 16268, Note_off_c, 0, 51, 64
2, 16268, Note_off_c, 0, 60, 64
2, 16295, Control_c, 0, 64, 0
2, 16314, Note_on_c, 0, 44, 71
2, 16324, Control_c, 0, 64, 127
2, 16399, Note_on_c, 0, 68, 71
2, 16400, Note_off_c, 0, 80, 64
2, 16467, Note_on_c, 0, 32, 77
2, 16467, Control_c, 0, 64, 0
2, 16483, Note_on_c, 0, 75, 59
2, 16504, Note_off_c, 0, 68, 64
2, 16507, Control_c, 0, 64, 127
2, 16510, Note_off_c, 0, 32, 64
2, 16568, Note_off_c, 0, 75, 64
2, 16573, Note_on_c, 0, 68, 74
2, 16596, Control_c, 0, 64, 0
2, 16609, Note_off_c, 0, 44, 64
2, 16626, Control_c, 0, 64, 127
2, 16646, Control_c, 0, 64, 0
2, 16652, Note_on_c, 0, 80, 70
2, 16652, Note_on_c, 0, 66, 36
2, 16657, Note_on_c, 0, 56, 42
2, 16660, Note_on_c, 0, 60, 44
2, 16672, Control_c, 0, 64, 127
2, 16716, Note_off_c, 0, 68, 64
2, 16734, Note_off_c, 0, 66, 64
2, 16739, Note_off_c, 0, 56, 64
2, 16742, Note_off_c, 0, 60, 64
2, 16883, Control_c, 0, 64, 0
2, 16903, Note_on_c, 0, 68, 71
2, 16912, Note_off_c, 0, 80, 64
2, 16923, Control_c, 0, 64, 127
2, 17011, Note_on_c, 0, 75, 69
2, 17011, Note_on_c, 0, 37, 62
2, 17025, Control_c, 0, 64, 0
2, 17051, Control_c, 0, 64, 127
2, 17058, Note_off_c, 0, 68, 64
2, 17062, Control_c, 0, 64, 0
2, 17088, Control_c, 0, 64, 127
2, 17132, Note_on_c, 0, 76, 50
2, 17154, Note_off_c, 0, 75, 64
2, 17248, Note_on_c, 0, 64, 39
2, 17248, Note_on_c, 0, 56, 46
2, 17254, Note_on_c, 0, 73, 56
2, 17254, Note_on_c, 0, 49, 33
2, 17267, Control_c, 0, 64, 0
2, 17272, Note_off_c, 0, 76, 64
2, 17292, Control_c, 0, 64, 127
2, 17441, Control_c, 0, 64, 0
2, 17467, Control_c, 0, 64, 127
2, 17683, Control_c, 0, 64, 0
2, 17708, Control_c, 0, 64, 127
2, 17709, Control_c, 0, 64, 0
2, 17732, Note_on_c, 0, 33, 102
2, 17734, Note_off_c, 0, 56, 64
2, 17734, Note_off_c, 0, 64, 64
2, 17735, Note_off_c, 0, 37, 64
2, 17740, Note_off_c, 0, 49, 64
2, 17740, Note_off_c, 0, 73, 64
2, 17740, Note_on_c, 0, 57, 95
2, 17740, Note_on_c, 0, 45, 90
2, 17763, Control_c, 0, 64, 127
2, 17947, Note_off_c, 0, 57, 64
2, 17980, Note_on_c, 0, 64, 41
2, 17982, Note_on_c, 0, 69, 73
2, 17982, Note_on_c, 0, 61, 69
2, 17983, Note_on_c, 0, 57, 63
2, 17984, Note_on_c, 0, 73, 73
2, 17984, Note_on_c, 0, 52, 73
2, 18007, Control_c, 0, 64, 0
2, 18022, Control_c, 0, 64, 127
2, 18125, Control_c, 0, 64, 0
2, 18130, Note_off_c, 0, 64, 64
2, 18132, Note_off_c, 0, 61, 64
2, 18132, Note_off_c, 0, 69, 64
2, 18133, Note_off_c, 0, 57, 64
2, 18134, Note_off_c, 0, 52, 64
2, 18134, Note_off_c, 0, 73, 64
2, 18179, Control_c, 0, 64, 127
2, 18217, Note_on_c, 0, 57, 64
2, 18220, Note_on_c, 0, 61, 78
2, 18220, Note_on_c, 0, 52, 67
2, 18221, Note_on_c, 0, 64, 69
2, 18245, Note_off_c, 0, 52, 64
2, 18246, Note_off_c, 0, 33, 64
2, 18251, Note_off_c, 0, 57, 64
2, 18253, Note_off_c, 0, 45, 64
2, 18259, Note_off_c, 0, 64, 64
2, 18264, Note_off_c, 0, 61, 64
2, 18283, Note_on_c, 0, 73, 69
2, 18292, Note_on_c, 0, 69, 69
2, 18292, Note_on_c, 0, 64, 69
2, 18292, Note_on_c, 0, 57, 73
2, 18298, Note_on_c, 0, 52, 66
2, 18372, Note_off_c, 0, 73, 64
2, 18381, Note_off_c, 0, 57, 64
2, 18381, Note_off_c, 0, 64, 64
2, 18381, Note_off_c, 0, 69, 64
2, 18387, Note_off_c, 0, 52, 64
2, 18394, Note_on_c, 0, 69, 65
2, 18395, Note_on_c, 0, 73, 73
2, 18395, Note_on_c, 0, 64, 74
2, 18395, Note_on_c, 0, 57, 80
2, 18402, Note_on_c, 0, 52, 74
2, 18420, Note_off_c, 0, 52, 64
2, 18423, Control_c, 0, 64, 0
2, 18424, Note_off_c, 0, 57, 64
2, 18424, Note_off_c, 0, 64, 64
2, 18429, Control_c, 0, 64, 0
2, 18434, Note_off_c, 0, 69, 64
2, 18438, Control_c, 0, 64, 127
2, 18441, Note_off_c, 0, 73, 64
2, 18447, Note_on_c, 0, 64, 73
2, 18448, Note_on_c, 0, 61, 85
2, 18449, Note_on_c, 0, 57, 73
2, 18455, Note_on_c, 0, 52, 73
2, 18464, Control_c, 0, 64, 127
2, 18585, Note_off_c, 0, 64, 64
2, 18586, Note_off_c, 0, 61, 64
2, 18587, Note_off_c, 0, 57, 64
2, 18588, Note_on_c, 0, 69, 69
2, 18588, Note_on_c, 0, 61, 69
2, 18591, Note_on_c, 0, 64, 71
2, 18593, Note_off_c, 0, 52, 64
2, 18593, Note_on_c, 0, 73, 77
2, 18593, Note_on_c, 0, 57, 69
2, 18598, Note_on_c, 0, 52, 67
2, 18729, Note_off_c, 0, 57, 64
2, 18730, Control_c, 0, 64, 0
2, 18736, Note_on_c, 0, 57, 74
2, 18741, Note_on_c, 0, 45, 64
2, 18743, Note_on_c, 0, 33, 69
2, 18752, Note_off_c, 0, 61, 64
2, 18752, Note_off_c, 0, 69, 64
2, 18755, Note_off_c, 0, 64, 64
2, 18757, Note_off_c, 0, 73, 64
2, 18762, Note_off_c, 0, 52, 64
2, 18771, Control_c, 0, 64, 127
2, 18836, Note_on_c, 0, 69, 71
2, 18840, Note_on_c, 0, 73, 73
2, 18845, Control_c, 0, 64, 0
2, 18880, Control_c, 0, 64, 127
2, 18895, Note_off_c, 0, 57, 64
2, 18906, Note_off_c, 0, 69, 64
2, 18915, Note_off_c, 0, 73, 64
2, 18928, Note_on_c, 0, 73, 85
2, 18928, Note_on_c, 0, 69, 71
2, 18928, Note_on_c, 0, 64, 59
2, 18928, Note_on_c, 0, 52, 63
2, 18932, Note_on_c, 0, 57, 62
2, 18976, Note_on_c, 0, 75, 69
2, 18984, Note_off_c, 0, 69, 64
2, 18990, Note_off_c, 0, 73, 64
2, 19020, Note_off_c, 0, 33, 64
2, 19022, Note_on_c, 0, 73, 66
2, 19027, Note_off_c, 0, 45, 64
2, 19037, Note_off_c, 0, 75, 64
2, 19060, Note_on_c, 0, 71, 77
2, 19066, Note_on_c, 0, 68, 77
2, 19073, Note_off_c, 0, 73, 64
2, 19141, Note_on_c, 0, 69, 78
2, 19145, Note_on_c, 0, 66, 73
2, 19146, Control_c, 0, 64, 0
2, 19147, Note_off_c, 0, 71, 64
2, 19153, Note_off_c, 0, 68, 64
2, 19168, Note_off_c, 0, 52, 64
2, 19168, Note_off_c, 0, 64, 64
2, 19172, Note_off_c, 0, 57, 64
2, 19187, Control_c, 0, 64, 127
2, 19215, Note_on_c, 0, 71, 69
2, 19216, Note_on_c, 0, 68, 69
2, 19218, Note_on_c, 0, 40, 63
2, 19220, Control_c, 0, 64, 0
2, 19229, Note_off_c, 0, 69, 64
2, 19233, Note_off_c, 0, 66, 64
2, 19260, Control_c, 0, 64, 127
2, 19264, Note_off_c, 0, 68, 64
2, 19285, Note_off_c, 0, 71, 64
2, 19328, Note_on_c, 0, 71, 58
2, 19332, Note_on_c, 0, 68, 69
2, 19363, Control_c, 0, 64, 0
2, 19369, Note_off_c, 0, 68, 64
2, 19376, Note_on_c, 0, 52, 50
2, 19380, Note_on_c, 0, 59, 50
2, 19381, Note_on_c, 0, 68, 73
2, 19381, Note_on_c, 0, 64, 73
2, 19384, Note_off_c, 0, 71, 64
2, 19407, Control_c, 0, 64, 127
2, 19505, Note_off_c, 0, 40, 64
2, 19517, Note_off_c, 0, 52, 64
2, 19521, Note_off_c, 0, 59, 64
2, 19522, Note_off_c, 0, 64, 64
2, 19522, Note_off_c, 0, 68, 64
2, 19537, Note_on_c, 0, 64, 73
2, 19540, Note_on_c, 0, 68, 70
2, 19544, Note_on_c, 0, 76, 73
2, 19547, Note_on_c, 0, 59, 65
2, 19548, Note_on_c, 0, 52, 62
2, 19636, Control_c, 0, 64, 0
2, 19676, Control_c, 0, 64, 127
2, 19678, Note_off_c, 0, 64, 64
2, 19681, Note_off_c, 0, 68, 64
2, 19685, Note_off_c, 0, 76, 64
2, 19688, Note_off_c, 0, 59, 64
2, 19689, Note_off_c, 0, 52, 64
2, 19730, Control_c, 0, 64, 0
2, 19737, Note_on_c, 0, 57, 95
2, 19737, Note_on_c, 0, 30, 90
2, 19743, Note_on_c, 0, 42, 105
2, 19771, Control_c, 0, 64, 127
2, 19779, Control_c, 0, 64, 0
2, 19823, Control_c, 0, 64, 127
2, 19910, Note_off_c, 0, 57, 64
2, 19928, Note_on_c, 0, 69, 73
2, 19928, Note_on_c, 0, 66, 71
2, 19932, Note_on_c, 0, 57, 69
2, 19933, Note_on_c, 0, 61, 71
2, 19939, Note_on_c, 0, 49, 62
2, 19940, Note_on_c, 0, 54, 66
2, 19947, Control_c, 0, 64, 0
2, 19983, Control_c, 0, 64, 127
2, 20119, Note_off_c, 0, 66, 64
2, 20119, Note_off_c, 0, 69, 64
2, 20123, Note_off_c, 0, 57, 64
2, 20124, Note_off_c, 0, 61, 64
2, 20130, Note_off_c, 0, 49, 64
2, 20131, Note_off_c, 0, 54, 64
2, 20146, Control_c, 0, 64, 0
2, 20184, Note_on_c, 0, 57, 69
2, 20185, Note_on_c, 0, 61, 73
2, 20187, Control_c, 0, 64, 127
2, 20189, Note_on_c, 0, 54, 62
2, 20189, Note_on_c, 0, 49, 58
2, 20208, Note_off_c, 0, 54, 64
2, 20209, Note_off_c, 0, 49, 64
2, 20217, Note_off_c, 0, 61, 64
2, 20226, Note_off_c, 0, 57, 64
2, 20252, Note_on_c, 0, 69, 67
2, 20252, Note_on_c, 0, 54, 77
2, 20252, Note_on_c, 0, 49, 73
2, 20254, Note_on_c, 0, 61, 77
2, 20255, Note_on_c, 0, 66, 77
2, 20265, Note_off_c, 0, 30, 64
2, 20269, Note_off_c, 0, 42, 64
2, 20341, Note_off_c, 0, 49, 64
2, 20341, Note_off_c, 0, 54, 64
2, 20341, Note_off_c, 0, 69, 64
2, 20343, Note_off_c, 0, 61, 64
2, 20344, Note_off_c, 0, 66, 64
2, 20361, Note_on_c, 0, 49, 74
2, 20363, Control_c, 0, 64, 0
2, 20367, Note_on_c, 0, 66, 82
2, 20367, Note_on_c, 0, 61, 77
2, 20367, Note_on_c, 0, 54, 82
2, 20368, Note_on_c, 0, 69, 77
2, 20382, Note_off_c, 0, 54, 64
2, 20385, Note_off_c, 0, 49, 64
2, 20390, Note_off_c, 0, 61, 64
2, 20399, Control_c, 0, 64, 127
2, 20402, Note_off_c, 0, 66, 64
2, 20408, Note_off_c, 0, 69, 64
2, 20416, Control_c, 0, 64, 0
2, 20423, Note_on_c, 0, 61, 83
2, 20424, Note_on_c, 0, 57, 80
2, 20428, Note_on_c, 0, 54, 80
2, 20428, Note_on_c, 0, 49, 80
2, 20450, Control_c, 0, 64, 127
2, 20564, Note_off_c, 0, 61, 64
2, 20565, Note_off_c, 0, 57, 64
2, 20569, Note_off_c, 0, 49, 64
2, 20569, Note_off_c, 0, 54, 64
2, 20572, Note_on_c, 0, 61, 73
2, 20575, Note_on_c, 0, 69, 74
2, 20575, Note_on_c, 0, 49, 69
2, 20576, Note_on_c, 0, 66, 77
2, 20582, Note_on_c, 0, 54, 73
2, 20709, Control_c, 0, 64, 0
2, 20723, Note_on_c, 0, 30, 63
2, 20727, Note_on_c, 0, 42, 67
2, 20728, Note_on_c, 0, 57, 69
2, 20736, Note_off_c, 0, 61, 64
2, 20739, Note_off_c, 0, 49, 64
2, 20739, Note_off_c, 0, 69, 64
2, 20740, Note_off_c, 0, 66, 64
2, 20746, Note_off_c, 0, 54, 64
2, 20752, Control_c, 0, 64, 127
2, 20832, Control_c, 0, 64, 0
2, 20837, Note_on_c, 0, 69, 80
2, 20839, Note_on_c, 0, 66, 77
2, 20866, Control_c, 0, 64, 127
2, 20893, Note_off_c, 0, 69, 64
2, 20895, Note_off_c, 0, 66, 64
2, 20905, Note_off_c, 0, 57, 64
2, 20914, Note_on_c, 0, 54, 58
2, 20916, Note_on_c, 0, 69, 73
2, 20920, Note_on_c, 0, 61, 64
2, 20923, Note_on_c, 0, 66, 78
2, 20923, Note_on_c, 0, 49, 44
2, 20965, Note_on_c, 0, 71, 69
2, 20967, Note_off_c, 0, 66, 64
2, 20977, Note_off_c, 0, 69, 64
2, 21004, Note_off_c, 0, 30, 64
2, 21004, Note_on_c, 0, 69, 70
2, 21015, Note_off_c, 0, 42, 64
2, 21017, Note_off_c, 0, 71, 64
2, 21060, Note_on_c, 0, 68, 92
2, 21060, Note_on_c, 0, 64, 63
2, 21068, Note_off_c, 0, 69, 64
2, 21125, Control_c, 0, 64, 0
2, 21128, Note_on_c, 0, 66, 82
2, 21131, Note_on_c, 0, 63, 74
2, 21148, Note_off_c, 0, 64, 64
2, 21148, Note_off_c, 0, 68, 64
2, 21154, Note_off_c, 0, 54, 64
2, 21160, Note_off_c, 0, 61, 64
2, 21163, Note_off_c, 0, 49, 64
2, 21168, Control_c, 0, 64, 127
2, 21215, Note_on_c, 0, 68, 77
2, 21221, Note_on_c, 0, 64, 74
2, 21221, Note_on_c, 0, 37, 62
2, 21230, Note_off_c, 0, 66, 64
2, 21232, Control_c, 0, 64, 0
2, 21233, Note_off_c, 0, 63, 64
2, 21259, Control_c, 0, 64, 127
2, 21269, Note_off_c, 0, 64, 64
2, 21290, Note_off_c, 0, 68, 64
2, 21347, Note_on_c, 0, 68, 62
2, 21348, Note_on_c, 0, 64, 73
2, 21374, Control_c, 0, 64, 0
2, 21390, Note_off_c, 0, 64, 64
2, 21396, Note_on_c, 0, 64, 74
2, 21396, Note_on_c, 0, 61, 74
2, 21396, Note_on_c, 0, 56, 62
2, 21396, Note_on_c, 0, 49, 48
2, 21427, Note_off_c, 0, 68, 64
2, 21427, Control_c, 0, 64, 127
2, 21507, Note_off_c, 0, 37, 64
2, 21537, Note_off_c, 0, 49, 64
2, 21537, Note_off_c, 0, 56, 64
2, 21537, Note_off_c, 0, 61, 64
2, 21537, Note_off_c, 0, 64, 64
2, 21608, Note_on_c, 0, 49, 29
2, 21609, Note_on_c, 0, 73, 73
2, 21613, Note_on_c, 0, 61, 70
2, 21633, Control_c, 0, 64, 0
2, 21648, Control_c, 0, 64, 0
2, 21667, Control_c, 0, 64, 127
2, 21675, Control_c, 0, 64, 127
2, 21790, Control_c, 0, 64, 0
2, 21828, Note_off_c, 0, 49, 64
2, 21829, Note_off_c, 0, 73, 64
2, 21833, Note_off_c, 0, 61, 64
2, 21843, Note_on_c, 0, 72, 59
2, 21843, Control_c, 0, 64, 127
2, 21843, Note_on_c, 0, 39, 47
2, 21850, Note_on_c, 0, 61, 48
2, 21851, Note_on_c, 0, 67, 51
2, 21869, Control_c, 0, 64, 0
2, 21901, Control_c, 0, 64, 127
2, 21949, Note_on_c, 0, 51, 62
2, 21964, Note_off_c, 0, 39, 64
2, 22008, Note_on_c, 0, 53, 52
2, 22026, Note_off_c, 0, 51, 64
2, 22049, Control_c, 0, 64, 0
2, 22083, Control_c, 0, 64, 127
2, 22087, Note_on_c, 0, 55, 58
2, 22106, Note_off_c, 0, 53, 64
2, 22152, Note_off_c, 0, 72, 64
2, 22156, Note_on_c, 0, 70, 70
2, 22162, Note_on_c, 0, 56, 62
2, 22168, Control_c, 0, 64, 0
2, 22175, Note_off_c, 0, 67, 64
2, 22178, Note_off_c, 0, 55, 64
2, 22227, Note_on_c, 0, 58, 59
2, 22237, Control_c, 0, 64, 127
2, 22244, Note_off_c, 0, 56, 64
2, 22248, Note_off_c, 0, 61, 64
2, 22285, Control_c, 0, 64, 0
2, 22316, Note_on_c, 0, 63, 58
2, 22317, Control_c, 0, 64, 127
2, 22320, Note_on_c, 0, 60, 63
2, 22360, Note_off_c, 0, 58, 64
2, 22379, Note_off_c, 0, 70, 64
2, 22383, Control_c, 0, 64, 0
2, 22404, Note_on_c, 0, 56, 49
2, 22424, Control_c, 0, 64, 127
2, 22433, Note_off_c, 0, 60, 64
2, 22483, Note_on_c, 0, 51, 62
2, 22493, Note_off_c, 0, 56, 64
2, 22559, Note_on_c, 0, 65, 63
2, 22566, Note_off_c, 0, 63, 64
2, 22584, Control_c, 0, 64, 0
2, 22604, Note_off_c, 0, 51, 64
2, 22638, Note_on_c, 0, 68, 51
2, 22638, Note_on_c, 0, 63, 39
2, 22642, Note_on_c, 0, 72, 56
2, 22646, Control_c, 0, 64, 0
2, 22653, Note_off_c, 0, 65, 64
2, 22653, Control_c, 0, 64, 127
2, 22673, Control_c, 0, 64, 127
2, 22779, Note_off_c, 0, 63, 64
2, 22779, Note_off_c, 0, 68, 64
2, 22783, Note_off_c, 0, 72, 64
2, 22799, Control_c, 0, 64, 0
2, 22810, Note_on_c, 0, 39, 56
2, 22824, Note_on_c, 0, 75, 54
2, 22824, Note_on_c, 0, 72, 49
2, 22836, Note_on_c, 0, 61, 46
2, 22840, Control_c, 0, 64, 127
2, 22841, Note_on_c, 0, 67, 29
2, 22849, Control_c, 0, 64, 0
2, 22883, Control_c, 0, 64, 127
2, 22908, Note_on_c, 0, 51, 51
2, 22947, Note_off_c, 0, 39, 64
2, 22975, Note_on_c, 0, 53, 50
2, 22996, Note_off_c, 0, 51, 64
2, 23062, Control_c, 0, 64, 0
2, 23062, Note_on_c, 0, 55, 58
2, 23074, Note_off_c, 0, 72, 64
2, 23074, Note_off_c, 0, 75, 64
2, 23076, Note_off_c, 0, 53, 64
2, 23089, Control_c, 0, 64, 127
2, 23120, Note_on_c, 0, 73, 54
2, 23128, Note_on_c, 0, 70, 48
2, 23135, Note_on_c, 0, 56, 64
2, 23139, Control_c, 0, 64, 0
2, 23157, Note_off_c, 0, 55, 64
2, 23173, Control_c, 0, 64, 127
2, 23204, Note_on_c, 0, 58, 56
2, 23219, Note_off_c, 0, 61, 64
2, 23224, Note_off_c, 0, 67, 64
2, 23232, Note_off_c, 0, 56, 64
2, 23265, Control_c, 0, 64, 0
2, 23294, Note_off_c, 0, 73, 64
2, 23294, Note_on_c, 0, 60, 63
2, 23296, Note_on_c, 0, 68, 51
2, 23299, Control_c, 0, 64, 127
2, 23299, Note_on_c, 0, 63, 58
2, 23302, Note_off_c, 0, 70, 64
2, 23304, Note_on_c, 0, 72, 55
2, 23321, Note_off_c, 0, 58, 64
2, 23345, Control_c, 0, 64, 0
2, 23378, Control_c, 0, 64, 127
2, 23385, Note_on_c, 0, 56, 39
2, 23392, Note_off_c, 0, 60, 64
2, 23471, Note_on_c, 0, 51, 59
2, 23483, Note_off_c, 0, 68, 64
2, 23486, Note_off_c, 0, 63, 64
2, 23491, Note_off_c, 0, 72, 64
2, 23492, Note_off_c, 0, 56, 64
2, 23543, Note_on_c, 0, 55, 52
2, 23551, Note_off_c, 0, 51, 64
2, 23555, Control_c, 0, 64, 0
2, 23580, Note_on_c, 0, 53, 34
2, 23589, Control_c, 0, 64, 127
2, 23613, Note_off_c, 0, 55, 64
2, 23625, Note_on_c, 0, 73, 54
2, 23632, Note_on_c, 0, 68, 54
2, 23632, Note_on_c, 0, 65, 47
2, 23636, Note_on_c, 0, 51, 56
2, 23644, Control_c, 0, 64, 0
2, 23671, Note_off_c, 0, 53, 64
2, 23680, Control_c, 0, 64, 127
2, 23761, Control_c, 0, 64, 0
2, 23777, Note_off_c, 0, 51, 64
2, 23794, Control_c, 0, 64, 127
2, 23801, Note_off_c, 0, 73, 64
2, 23807, Note_on_c, 0, 39, 51
2, 23808, Note_off_c, 0, 65, 64
2, 23808, Note_off_c, 0, 68, 64
2, 23811, Note_on_c, 0, 63, 51
2, 23813, Note_on_c, 0, 72, 58
2, 23813, Note_on_c, 0, 67, 51
2, 23826, Control_c, 0, 64, 0
2, 23849, Control_c, 0, 64, 127
2, 23902, Note_on_c, 0, 51, 57
2, 23919, Note_off_c, 0, 39, 64
2, 23967, Note_on_c, 0, 53, 44
2, 23990, Note_off_c, 0, 51, 64
2, 24051, Note_on_c, 0, 55, 63
2, 24060, Control_c, 0, 64, 0
2, 24070, Note_off_c, 0, 53, 64
2, 24096, Control_c, 0, 64, 127
2, 24125, Note_on_c, 0, 65, 52
2, 24126, Note_on_c, 0, 61, 58
2, 24129, Note_on_c, 0, 70, 49
2, 24130, Note_on_c, 0, 56, 59
2, 24139, Note_off_c, 0, 55, 64
2, 24139, Note_off_c, 0, 63, 64
2, 24141, Note_off_c, 0, 67, 64
2, 24141, Note_off_c, 0, 72, 64
2, 24148, Control_c, 0, 64, 0
2, 24181, Control_c, 0, 64, 127
2, 24203, Note_on_c, 0, 58, 59
2, 24218, Note_off_c, 0, 56, 64
2, 24242, Control_c, 0, 64, 0
2, 24265, Control_c, 0, 64, 127
2, 24299, Note_on_c, 0, 60, 62
2, 24300, Note_on_c, 0, 63, 62
2, 24311, Note_off_c, 0, 65, 64
2, 24312, Note_off_c, 0, 61, 64
2, 24313, Note_off_c, 0, 58, 64
2, 24315, Note_off_c, 0, 70, 64
2, 24325, Control_c, 0, 64, 0
2, 24381, Note_on_c, 0, 56, 51
2, 24384, Control_c, 0, 64, 127
2, 24406, Note_off_c, 0, 60, 64
2, 24464, Note_on_c, 0, 51, 70
2, 24478, Note_off_c, 0, 56, 64
2, 24490, Note_off_c, 0, 63, 64
2, 24556, Note_on_c, 0, 63, 62
2, 24564, Control_c, 0, 64, 0
2, 24576, Note_off_c, 0, 51, 64
2, 24597, Control_c, 0, 64, 127
2, 24638, Note_on_c, 0, 75, 56
2, 24640, Note_on_c, 0, 68, 71
2, 24641, Note_on_c, 0, 72, 58
2, 24648, Note_off_c, 0, 63, 64
2, 24659, Control_c, 0, 64, 0
2, 24722, Control_c, 0, 64, 127
2, 24741, Control_c, 0, 64, 0
2, 24800, Control_c, 0, 64, 127
2, 24806, Note_on_c, 0, 73, 62
2, 24820, Note_off_c, 0, 72, 64
2, 24898, Note_on_c, 0, 67, 39
2, 24930, Note_off_c, 0, 68, 64
2, 24942, Note_off_c, 0, 75, 64
2, 24948, Note_off_c, 0, 73, 64
2, 24988, Note_on_c, 0, 51, 62
2, 25023, Note_off_c, 0, 67, 64
2, 25069, Note_on_c, 0, 65, 62
2, 25075, Control_c, 0, 64, 0
2, 25094, Note_off_c, 0, 51, 64
2, 25138, Control_c, 0, 64, 127
2, 25152, Note_on_c, 0, 75, 51
2, 25157, Note_on_c, 0, 67, 51
2, 25161, Note_on_c, 0, 63, 54
2, 25163, Control_c, 0, 64, 0
2, 25186, Note_off_c, 0, 65, 64
2, 25206, Control_c, 0, 64, 127
2, 25339, Control_c, 0, 64, 0
2, 25346, Note_on_c, 0, 61, 49
2, 25348, Note_on_c, 0, 68, 54
2, 25362, Note_off_c, 0, 63, 64
2, 25369, Note_off_c, 0, 67, 64
2, 25369, Control_c, 0, 64, 127
2, 25442, Note_on_c, 0, 60, 49
2, 25449, Note_off_c, 0, 75, 64
2, 25458, Note_off_c, 0, 61, 64
2, 25470, Note_off_c, 0, 68, 64
2, 25540, Note_on_c, 0, 44, 58
2, 25560, Note_off_c, 0, 60, 64
2, 25579, Control_c, 0, 64, 0
2, 25622, Control_c, 0, 64, 127
2, 25644, Note_on_c, 0, 58, 46
2, 25675, Note_off_c, 0, 44, 64
2, 25746, Note_on_c, 0, 75, 42
2, 25746, Note_on_c, 0, 63, 39
2, 25748, Note_on_c, 0, 72, 19
2, 25755, Control_c, 0, 64, 0
2, 25757, Note_on_c, 0, 56, 25
2, 25768, Control_c, 0, 64, 0
2, 25779, Note_off_c, 0, 58, 64
2, 25785, Control_c, 0, 64, 127
2, 25834, Control_c, 0, 64, 127
2, 26040, Note_on_c, 0, 73, 49
2, 26045, Note_on_c, 0, 76, 48
2, 26048, Note_on_c, 0, 64, 39
2, 26066, Note_off_c, 0, 63, 64
2, 26067, Control_c, 0, 64, 0
2, 26068, Note_off_c, 0, 75, 64
2, 26070, Note_off_c, 0, 72, 64
2, 26109, Control_c, 0, 64, 127
2, 26184, Control_c, 0, 64, 0
2, 26250, Control_c, 0, 64, 127
2, 26274, Note_off_c, 0, 56, 64
2, 26287, Note_on_c, 0, 56, 49
2, 26319, Control_c, 0, 64, 0
2, 26358, Control_c, 0, 64, 127
2, 26384, Note_on_c, 0, 59, 57
2, 26418, Note_off_c, 0, 56, 64
2, 26420, Note_off_c, 0, 76, 64
2, 26464, Note_off_c, 0, 73, 64
2, 26464, Note_on_c, 0, 57, 54
2, 26470, Note_off_c, 0, 64, 64
2, 26479, Note_off_c, 0, 59, 64
2, 26483, Control_c, 0, 64, 0
2, 26525, Control_c, 0, 64, 127
2, 26535, Note_on_c, 0, 56, 57
2, 26544, Note_off_c, 0, 57, 64
2, 26619, Note_on_c, 0, 75, 48
2, 26621, Note_on_c, 0, 55, 59
2, 26623, Note_on_c, 0, 70, 44
2, 26629, Note_on_c, 0, 63, 48
2, 26640, Control_c, 0, 64, 0
2, 26645, Note_off_c, 0, 56, 64
2, 26674, Control_c, 0, 64, 127
2, 26692, Note_on_c, 0, 51, 58
2, 26698, Note_on_c, 0, 73, 44
2, 26702, Note_off_c, 0, 75, 64
2, 26712, Note_off_c, 0, 55, 64
2, 26735, Control_c, 0, 64, 0
2, 26774, Control_c, 0, 64, 127
2, 26793, Note_on_c, 0, 72, 44
2, 26797, Note_on_c, 0, 68, 50
2, 26802, Note_on_c, 0, 56, 70
2, 26806, Note_off_c, 0, 73, 64
2, 26820, Control_c, 0, 64, 0
2, 26822, Note_off_c, 0, 70, 64
2, 26833, Note_off_c, 0, 51, 64
2, 26863, Control_c, 0, 64, 127
2, 26970, Note_on_c, 0, 44, 50
2, 26974, Note_on_c, 0, 75, 48
2, 26984, Note_off_c, 0, 72, 64
2, 27056, Control_c, 0, 64, 0
2, 27070, Note_on_c, 0, 54, 62
2, 27083, Note_off_c, 0, 56, 64
2, 27089, Note_off_c, 0, 63, 64
2, 27090, Control_c, 0, 64, 127
2, 27127, Note_off_c, 0, 44, 64
2, 27136, Note_off_c, 0, 75, 64
2, 27156, Note_on_c, 0, 75, 39
2, 27156, Note_on_c, 0, 61, 51
2, 27164, Note_on_c, 0, 44, 24
2, 27166, Note_on_c, 0, 52, 46
2, 27176, Control_c, 0, 64, 0
2, 27186, Note_off_c, 0, 54, 64
2, 27203, Control_c, 0, 64, 127
2, 27236, Control_c, 0, 64, 0
2, 27240, Note_off_c, 0, 68, 64
2, 27244, Note_on_c, 0, 68, 48
2, 27272, Note_off_c, 0, 75, 64
2, 27279, Control_c, 0, 64, 127
2, 27341, Note_on_c, 0, 51, 39
2, 27345, Note_off_c, 0, 68, 64
2, 27346, Note_on_c, 0, 63, 70
2, 27347, Note_off_c, 0, 52, 64
2, 27352, Note_on_c, 0, 68, 43
2, 27361, Note_off_c, 0, 61, 64
2, 27424, Note_on_c, 0, 66, 58
2, 27442, Note_off_c, 0, 63, 64
2, 27504, Note_on_c, 0, 64, 65
2, 27504, Note_on_c, 0, 49, 50
2, 27507, Note_on_c, 0, 73, 39
2, 27514, Note_off_c, 0, 51, 64
2, 27532, Note_off_c, 0, 66, 64
2, 27592, Control_c, 0, 64, 0
2, 27592, Note_on_c, 0, 63, 70
2, 27594, Note_on_c, 0, 51, 55
2, 27596, Note_on_c, 0, 72, 42
2, 27612, Note_off_c, 0, 49, 64
2, 27612, Note_off_c, 0, 64, 64
2, 27615, Note_off_c, 0, 73, 64
2, 27619, Control_c, 0, 64, 127
2, 27664, Note_off_c, 0, 44, 64
2, 27696, Note_on_c, 0, 70, 32
2, 27696, Note_on_c, 0, 61, 72
2, 27696, Note_on_c, 0, 44, 50
2, 27700, Note_on_c, 0, 52, 49
2, 27718, Note_off_c, 0, 63, 64
2, 27718, Control_c, 0, 64, 0
2, 27720, Note_off_c, 0, 51, 64
2, 27733, Note_off_c, 0, 72, 64
2, 27733, Control_c, 0, 64, 127
2, 27808, Note_on_c, 0, 73, 51
2, 27815, Note_on_c, 0, 58, 64
2, 27822, Note_off_c, 0, 61, 64
2, 27822, Note_off_c, 0, 70, 64
2, 27896, Note_on_c, 0, 70, 37
2, 27896, Note_on_c, 0, 67, 47
2, 27900, Note_on_c, 0, 63, 70
2, 27900, Note_on_c, 0, 51, 57
2, 27909, Note_off_c, 0, 52, 64
2, 27915, Note_off_c, 0, 73, 64
2, 27918, Note_off_c, 0, 58, 64
2, 27918, Note_off_c, 0, 68, 64
2, 27939, Control_c, 0, 64, 0
2, 27985, Control_c, 0, 64, 127
2, 28080, Note_on_c, 0, 72, 46
2, 28099, Note_off_c, 0, 70, 64
2, 28134, Control_c, 0, 64, 0
2, 28149, Control_c, 0, 64, 127
2, 28171, Note_on_c, 0, 61, 65
2, 28181, Note_off_c, 0, 63, 64
2, 28250, Note_off_c, 0, 44, 64
2, 28285, Note_on_c, 0, 44, 55
2, 28290, Note_on_c, 0, 68, 46
2, 28293, Note_on_c, 0, 60, 58
2, 28300, Note_off_c, 0, 51, 64
2, 28302, Note_off_c, 0, 67, 64
2, 28306, Note_off_c, 0, 72, 64
2, 28321, Note_off_c, 0, 61, 64
2, 28344, Control_c, 0, 64, 0
2, 28355, Control_c, 0, 64, 0
2, 28390, Control_c, 0, 64, 127
2, 28401, Control_c, 0, 64, 127
2, 28421, Note_off_c, 0, 68, 64
2, 28479, Note_on_c, 0, 68, 51
2, 28516, Control_c, 0, 64, 0
2, 28551, Control_c, 0, 64, 127
2, 28555, Note_off_c, 0, 68, 64
2, 28563, Note_on_c, 0, 71, 51
2, 28625, Note_off_c, 0, 44, 64
2, 28640, Note_on_c, 0, 69, 54
2, 28669, Note_off_c, 0, 71, 64
2, 28678, Note_off_c, 0, 60, 64
2, 28719, Note_on_c, 0, 68, 41
2, 28729, Note_off_c, 0, 69, 64
2, 28760, Control_c, 0, 64, 0
2, 28806, Control_c, 0, 64, 127
2, 28822, Control_c, 0, 64, 0
2, 28828, Note_on_c, 0, 67, 69
2, 28831, Note_off_c, 0, 68, 64
2, 28832, Note_on_c, 0, 73, 37
2, 28832, Note_on_c, 0, 70, 37
2, 28836, Control_c, 0, 64, 0
2, 28866, Control_c, 0, 64, 127
2, 28876, Control_c, 0, 64, 127
2, 28918, Note_on_c, 0, 63, 65
2, 28923, Note_off_c, 0, 67, 64
2, 28932, Control_c, 0, 64, 0
2, 28967, Control_c, 0, 64, 127
2, 29010, Note_on_c, 0, 68, 54
2, 29038, Note_off_c, 0, 63, 64
2, 29062, Control_c, 0, 64, 0
2, 29087, Control_c, 0, 64, 127
2, 29153, Note_off_c, 0, 70, 64
2, 29153, Note_off_c, 0, 73, 64
2, 29179, Note_on_c, 0, 75, 54
2, 29180, Control_c, 0, 64, 0
2, 29190, Note_on_c, 0, 72, 51
2, 29220, Control_c, 0, 64, 127
2, 29238, Control_c, 0, 64, 0
2, 29252, Control_c, 0, 64, 0
2, 29265, Note_off_c, 0, 72, 64
2, 29280, Note_on_c, 0, 66, 54
2, 29282, Control_c, 0, 64, 127
2, 29292, Control_c, 0, 64, 127
2, 29300, Note_off_c, 0, 68, 64
2, 29349, Note_off_c, 0, 75, 64
2, 29410, Note_on_c, 0, 80, 58
2, 29410, Note_on_c, 0, 64, 21
2, 29412, Note_on_c, 0, 73, 59
2, 29417, Note_on_c, 0, 56, 49
2, 29445, Note_off_c, 0, 66, 64
2, 29464, Control_c, 0, 64, 0
2, 29478, Control_c, 0, 64, 0
2, 29503, Control_c, 0, 64, 127
2, 29514, Control_c, 0, 64, 127
2, 29596, Control_c, 0, 64, 0
2, 29617, Note_off_c, 0, 80, 64
2, 29623, Note_on_c, 0, 75, 58
2, 29636, Control_c, 0, 64, 127
2, 29645, Note_off_c, 0, 73, 64
2, 29698, Note_on_c, 0, 78, 58
2, 29716, Note_off_c, 0, 75, 64
2, 29780, Note_on_c, 0, 76, 51
2, 29804, Note_off_c, 0, 78, 64
2, 29850, Note_on_c, 0, 75, 54
2, 29868, Note_off_c, 0, 76, 64
2, 29880, Control_c, 0, 64, 0
2, 29930, Control_c, 0, 64, 127
2, 29936, Note_on_c, 0, 82, 64
2, 29938, Note_on_c, 0, 79, 51
2, 29943, Note_on_c, 0, 73, 62
2, 29950, Control_c, 0, 64, 0
2, 29954, Note_off_c, 0, 75, 64
2, 29954, Control_c, 0, 64, 0
2, 29990, Control_c, 0, 64, 127
2, 29996, Control_c, 0, 64, 127
2, 30016, Note_on_c, 0, 70, 71
2, 30022, Note_off_c, 0, 73, 64
2, 30098, Note_off_c, 0, 64, 64
2, 30114, Note_on_c, 0, 75, 65
2, 30121, Note_on_c, 0, 63, 42
2, 30124, Control_c, 0, 64, 0
2, 30129, Note_off_c, 0, 70, 64
2, 30169, Control_c, 0, 64, 127
2, 30199, Note_off_c, 0, 56, 64
2, 30298, Note_on_c, 0, 70, 55
2, 30310, Note_off_c, 0, 63, 64
2, 30356, Note_off_c, 0, 70, 64
2, 30366, Control_c, 0, 64, 0
2, 30370, Control_c, 0, 64, 0
2, 30398, Note_off_c, 0, 82, 64
2, 30400, Note_off_c, 0, 79, 64
2, 30400, Note_on_c, 0, 73, 59
2, 30406, Control_c, 0, 64, 127
2, 30412, Control_c, 0, 64, 127
2, 30432, Note_off_c, 0, 75, 64
2, 30514, Note_on_c, 0, 72, 47
2, 30540, Control_c, 0, 64, 0
2, 30547, Note_off_c, 0, 73, 64
2, 30563, Note_on_c, 0, 84, 63
2, 30563, Note_on_c, 0, 56, 26
2, 30582, Control_c, 0, 64, 0
2, 30585, Control_c, 0, 64, 127
2, 30587, Note_on_c, 0, 63, 3
2, 30623, Control_c, 0, 64, 127
2, 30634, Note_on_c, 0, 82, 66
2, 30644, Note_off_c, 0, 84, 64
2, 30714, Control_c, 0, 64, 0
2, 30731, Note_on_c, 0, 80, 40
2, 30740, Note_off_c, 0, 82, 64
2, 30750, Note_off_c, 0, 72, 64
2, 30758, Control_c, 0, 64, 127
2, 30902, Note_on_c, 0, 75, 43
2, 30917, Note_off_c, 0, 80, 64
2, 30998, Control_c, 0, 64, 0
2, 31039, Control_c, 0, 64, 127
2, 31084, Note_on_c, 0, 72, 46
2, 31104, Note_off_c, 0, 75, 64
2, 31130, Control_c, 0, 64, 0
2, 31163, Note_on_c, 0, 68, 44
2, 31174, Control_c, 0, 64, 127
2, 31212, Note_off_c, 0, 72, 64
2, 31228, Control_c, 0, 64, 0
2, 31246, Note_on_c, 0, 75, 57
2, 31256, Control_c, 0, 64, 127
2, 31318, Note_off_c, 0, 68, 64
2, 31437, Note_on_c, 0, 80, 52
2, 31496, Note_off_c, 0, 75, 64
2, 31626, Note_on_c, 0, 84, 62
2, 31630, Note_off_c, 0, 80, 64
2, 31633, Control_c, 0, 64, 0
2, 31644, Control_c, 0, 64, 0
2, 31657, Control_c, 0, 64, 127
2, 31662, Note_off_c, 0, 63, 64
2, 31672, Control_c, 0, 64, 127
2, 31695, Note_on_c, 0, 82, 60
2, 31709, Note_off_c, 0, 84, 64
2, 31737, Note_off_c, 0, 56, 64
2, 31787, Note_on_c, 0, 80, 59
2, 31800, Control_c, 0, 64, 0
2, 31806, Note_off_c, 0, 82, 64
2, 31819, Control_c, 0, 64, 127
2, 31969, Note_on_c, 0, 75, 55
2, 31994, Note_off_c, 0, 80, 64
2, 32049, Control_c, 0, 64, 0
2, 32073, Control_c, 0, 64, 127
2, 32163, Note_on_c, 0, 72, 50
2, 32176, Note_off_c, 0, 75, 64
2, 32216, Control_c, 0, 64, 0
2, 32235, Control_c, 0, 64, 127
2, 32239, Note_on_c, 0, 68, 43
2, 32257, Note_off_c, 0, 72, 64
2, 32361, Note_on_c, 0, 75, 32
2, 32370, Control_c, 0, 64, 0
2, 32390, Note_off_c, 0, 68, 64
2, 32403, Control_c, 0, 64, 127
2, 32618, Note_on_c, 0, 80, 44
2, 32624, Note_off_c, 0, 75, 64
2, 32786, Control_c, 0, 64, 0
2, 32819, Control_c, 0, 64, 127
2, 32824, Note_off_c, 0, 80, 64
2, 32845, Note_on_c, 0, 47, 46
2, 32850, Note_on_c, 0, 75, 46
2, 32867, Control_c, 0, 64, 0
2, 32880, Control_c, 0, 64, 127
2, 32935, Note_on_c, 0, 73, 47
2, 32952, Note_off_c, 0, 75, 64
2, 32986, Note_off_c, 0, 47, 64
2, 33025, Note_on_c, 0, 71, 47
2, 33027, Note_on_c, 0, 63, 39
2, 33027, Note_on_c, 0, 54, 31
2, 33035, Control_c, 0, 64, 0
2, 33037, Note_off_c, 0, 73, 64
2, 33071, Control_c, 0, 64, 127
2, 33109, Note_off_c, 0, 54, 64
2, 33109, Note_off_c, 0, 63, 64
2, 33188, Note_on_c, 0, 59, 28
2, 33188, Note_on_c, 0, 56, 28
2, 33190, Note_on_c, 0, 64, 33
2, 33194, Note_on_c, 0, 68, 46
2, 33221, Note_off_c, 0, 71, 64
2, 33270, Note_off_c, 0, 56, 64
2, 33270, Note_off_c, 0, 59, 64
2, 33272, Note_off_c, 0, 64, 64
2, 33283, Control_c, 0, 64, 0
2, 33296, Control_c, 0, 64, 127
2, 33351, Note_on_c, 0, 66, 50
2, 33351, Note_on_c, 0, 47, 27
2, 33363, Note_off_c, 0, 68, 64
2, 33365, Control_c, 0, 64, 0
2, 33401, Control_c, 0, 64, 127
2, 33421, Note_on_c, 0, 63, 47
2, 33436, Note_off_c, 0, 66, 64
2, 33451, Control_c, 0, 64, 0
2, 33487, Control_c, 0, 64, 127
2, 33492, Note_off_c, 0, 47, 64
2, 33492, Note_on_c, 0, 59, 42
2, 33492, Note_on_c, 0, 54, 48
2, 33493, Note_on_c, 0, 66, 55
2, 33493, Control_c, 0, 64, 0
2, 33501, Note_off_c, 0, 63, 64
2, 33538, Control_c, 0, 64, 127
2, 33574, Note_off_c, 0, 54, 64
2, 33574, Note_off_c, 0, 59, 64
2, 33648, Note_on_c, 0, 63, 29
2, 33652, Note_on_c, 0, 59, 35
2, 33653, Note_on_c, 0, 71, 44
2, 33653, Note_on_c, 0, 54, 33
2, 33666, Note_off_c, 0, 66, 64
2, 33730, Note_off_c, 0, 63, 64
2, 33734, Note_off_c, 0, 59, 64
2, 33735, Note_off_c, 0, 54, 64
2, 33781, Control_c, 0, 64, 0
2, 33790, Note_on_c, 0, 47, 58
2, 33799, Control_c, 0, 64, 0
2, 33803, Note_on_c, 0, 75, 51
2, 33817, Control_c, 0, 64, 127
2, 33826, Control_c, 0, 64, 127
2, 33828, Note_off_c, 0, 71, 64
2, 33856, Note_on_c, 0, 73, 55
2, 33867, Note_off_c, 0, 75, 64
2, 33909, Control_c, 0, 64, 0
2, 33931, Note_off_c, 0, 47, 64
2, 33931, Note_on_c, 0, 54, 33
2, 33937, Note_on_c, 0, 71, 51
2, 33941, Note_off_c, 0, 73, 64
2, 33943, Note_on_c, 0, 63, 41
2, 33951, Control_c, 0, 64, 0
2, 33954, Control_c, 0, 64, 127
2, 33964, Control_c, 0, 64, 127
2, 34013, Note_off_c, 0, 54, 64
2, 34025, Note_off_c, 0, 63, 64
2, 34083, Note_on_c, 0, 64, 41
2, 34090, Note_on_c, 0, 68, 49
2, 34090, Note_on_c, 0, 56, 37
2, 34094, Note_on_c, 0, 59, 39
2, 34098, Note_off_c, 0, 71, 64
2, 34106, Control_c, 0, 64, 0
2, 34120, Control_c, 0, 64, 127
2, 34165, Note_off_c, 0, 64, 64
2, 34172, Note_off_c, 0, 56, 64
2, 34176, Note_off_c, 0, 59, 64
2, 34215, Control_c, 0, 64, 0
2, 34229, Note_on_c, 0, 66, 52
2, 34234, Note_on_c, 0, 47, 57
2, 34238, Note_off_c, 0, 68, 64
2, 34242, Control_c, 0, 64, 127
2, 34242, Control_c, 0, 64, 0
2, 34256, Control_c, 0, 64, 127
2, 34290, Note_on_c, 0, 63, 55
2, 34314, Note_off_c, 0, 66, 64
2, 34365, Note_on_c, 0, 66, 63
2, 34367, Control_c, 0, 64, 0
2, 34368, Note_on_c, 0, 54, 52
2, 34369, Note_on_c, 0, 59, 46
2, 34370, Control_c, 0, 64, 0
2, 34375, Note_off_c, 0, 47, 64
2, 34380, Control_c, 0, 64, 127
2, 34388, Note_off_c, 0, 63, 64
2, 34396, Control_c, 0, 64, 127
2, 34450, Note_off_c, 0, 54, 64
2, 34451, Note_off_c, 0, 59, 64
2, 34507, Note_on_c, 0, 71, 56
2, 34512, Note_off_c, 0, 66, 64
2, 34516, Note_on_c, 0, 63, 36
2, 34516, Note_on_c, 0, 54, 41
2, 34522, Control_c, 0, 64, 0
2, 34523, Note_on_c, 0, 59, 39
2, 34536, Control_c, 0, 64, 127
2, 34598, Note_off_c, 0, 54, 64
2, 34598, Note_off_c, 0, 63, 64
2, 34605, Note_off_c, 0, 59, 64
2, 34651, Control_c, 0, 64, 0
2, 34657, Note_on_c, 0, 49, 57
2, 34658, Control_c, 0, 64, 0
2, 34658, Note_on_c, 0, 75, 56
2, 34672, Control_c, 0, 64, 127
2, 34677, Note_off_c, 0, 71, 64
2, 34678, Control_c, 0, 64, 127
2, 34713, Note_on_c, 0, 73, 51
2, 34728, Note_off_c, 0, 75, 64
2, 34774, Control_c, 0, 64, 0
2, 34786, Control_c, 0, 64, 0
2, 34786, Note_on_c, 0, 71, 52
2, 34792, Note_on_c, 0, 59, 42
2, 34795, Note_off_c, 0, 73, 64
2, 34796, Note_on_c, 0, 65, 41
2, 34798, Note_off_c, 0, 49, 64
2, 34805, Control_c, 0, 64, 127
2, 34812, Control_c, 0, 64, 127
2, 34874, Note_off_c, 0, 59, 64
2, 34878, Note_off_c, 0, 65, 64
2, 34940, Note_on_c, 0, 68, 62
2, 34945, Note_on_c, 0, 65, 29
2, 34955, Note_on_c, 0, 59, 41
2, 34961, Note_off_c, 0, 71, 64
2, 35027, Note_off_c, 0, 65, 64
2, 35037, Note_off_c, 0, 59, 64
2, 35067, Control_c, 0, 64, 0
2, 35080, Note_on_c, 0, 66, 60
2, 35083, Note_on_c, 0, 42, 65
2, 35087, Note_off_c, 0, 68, 64
2, 35090, Control_c, 0, 64, 0
2, 35094, Control_c, 0, 64, 127
2, 35105, Control_c, 0, 64, 127
2, 35148, Note_on_c, 0, 61, 52
2, 35164, Note_off_c, 0, 66, 64
2, 35190, Control_c, 0, 64, 0
2, 35203, Note_on_c, 0, 66, 63
2, 35204, Note_on_c, 0, 58, 57
2, 35211, Control_c, 0, 64, 0
2, 35221, Note_off_c, 0, 61, 64
2, 35221, Control_c, 0, 64, 127
2, 35224, Note_off_c, 0, 42, 64
2, 35243, Control_c, 0, 64, 127
2, 35286, Note_off_c, 0, 58, 64
2, 35354, Note_on_c, 0, 58, 59
2, 35362, Note_on_c, 0, 70, 54
2, 35364, Note_on_c, 0, 49, 48
2, 35380, Note_off_c, 0, 66, 64
2, 35436, Note_off_c, 0, 58, 64
2, 35446, Note_off_c, 0, 49, 64
2, 35494, Control_c, 0, 64, 0
2, 35501, Note_on_c, 0, 75, 58
2, 35501, Note_on_c, 0, 37, 66
2, 35506, Control_c, 0, 64, 0
2, 35521, Control_c, 0, 64, 127
2, 35521, Control_c, 0, 64, 127
2, 35522, Note_off_c, 0, 70, 64
2, 35564, Note_on_c, 0, 73, 54
2, 35584, Note_off_c, 0, 75, 64
2, 35602, Control_c, 0, 64, 0
2, 35626, Note_on_c, 0, 59, 32
2, 35627, Control_c, 0, 64, 0
2, 35634, Note_on_c, 0, 71, 64
2, 35639, Note_on_c, 0, 65, 32
2, 35642, Note_off_c, 0, 37, 64
2, 35645, Control_c, 0, 64, 127
2, 35652, Note_off_c, 0, 73, 64
2, 35659, Control_c, 0, 64, 127
2, 35708, Note_off_c, 0, 59, 64
2, 35721, Note_off_c, 0, 65, 64
2, 35774, Note_on_c, 0, 68, 65
2, 35780, Note_on_c, 0, 65, 43
2, 35783, Note_on_c, 0, 59, 48
2, 35786, Note_off_c, 0, 71, 64
2, 35862, Note_off_c, 0, 65, 64
2, 35865, Note_off_c, 0, 59, 64
2, 35910, Control_c, 0, 64, 0
2, 35910, Note_on_c, 0, 42, 71
2, 35915, Note_on_c, 0, 66, 54
2, 35921, Note_off_c, 0, 68, 64
2, 35937, Control_c, 0, 64, 127
2, 35972, Note_on_c, 0, 61, 59
2, 35996, Note_off_c, 0, 66, 64
2, 36018, Control_c, 0, 64, 0
2, 36035, Note_on_c, 0, 66, 66
2, 36036, Note_on_c, 0, 64, 48
2, 36041, Note_on_c, 0, 54, 56
2, 36042, Note_on_c, 0, 58, 49
2, 36049, Note_off_c, 0, 61, 64
2, 36051, Note_off_c, 0, 42, 64
2, 36051, Control_c, 0, 64, 0
2, 36061, Control_c, 0, 64, 127
2, 36082, Control_c, 0, 64, 127
2, 36118, Note_off_c, 0, 64, 64
2, 36123, Note_off_c, 0, 54, 64
2, 36124, Note_off_c, 0, 58, 64
2, 36202, Note_on_c, 0, 54, 41
2, 36205, Note_on_c, 0, 64, 56
2, 36211, Note_on_c, 0, 70, 63
2, 36223, Note_off_c, 0, 66, 64
2, 36284, Note_off_c, 0, 54, 64
2, 36287, Note_off_c, 0, 64, 64
2, 36369, Note_on_c, 0, 47, 64
2, 36373, Note_on_c, 0, 75, 63
2, 36383, Control_c, 0, 64, 0
2, 36395, Control_c, 0, 64, 127
2, 36404, Note_off_c, 0, 70, 64
2, 36421, Note_on_c, 0, 73, 60
2, 36441, Note_off_c, 0, 75, 64
2, 36467, Control_c, 0, 64, 0
2, 36496, Note_on_c, 0, 63, 46
2, 36498, Control_c, 0, 64, 127
2, 36498, Note_on_c, 0, 71, 64
2, 36503, Note_on_c, 0, 54, 39
2, 36508, Note_off_c, 0, 73, 64
2, 36510, Note_off_c, 0, 47, 64
2, 36512, Control_c, 0, 64, 0
2, 36526, Control_c, 0, 64, 127
2, 36578, Note_off_c, 0, 63, 64
2, 36585, Note_off_c, 0, 54, 64
2, 36641, Control_c, 0, 64, 0
2, 36650, Note_on_c, 0, 64, 42
2, 36650, Note_on_c, 0, 56, 49
2, 36657, Note_on_c, 0, 68, 71
2, 36657, Note_on_c, 0, 59, 46
2, 36668, Control_c, 0, 64, 127
2, 36673, Note_off_c, 0, 71, 64
2, 36732, Note_off_c, 0, 56, 64
2, 36732, Note_off_c, 0, 64, 64
2, 36739, Note_off_c, 0, 59, 64
2, 36784, Note_on_c, 0, 66, 62
2, 36790, Note_on_c, 0, 47, 66
2, 36799, Control_c, 0, 64, 0
2, 36800, Note_off_c, 0, 68, 64
2, 36811, Control_c, 0, 64, 127
2, 36844, Note_on_c, 0, 63, 50
2, 36861, Note_off_c, 0, 66, 64
2, 36910, Control_c, 0, 64, 0
2, 36916, Note_on_c, 0, 66, 77
2, 36916, Note_on_c, 0, 54, 57
2, 36920, Note_on_c, 0, 59, 25
2, 36928, Control_c, 0, 64, 0
2, 36931, Note_off_c, 0, 47, 64
2, 36939, Note_off_c, 0, 63, 64
2, 36942, Control_c, 0, 64, 127
2, 36943, Control_c, 0, 64, 127
2, 36998, Note_off_c, 0, 54, 64
2, 37002, Note_off_c, 0, 59, 64
2, 37047, Note_on_c, 0, 63, 49
2, 37054, Note_on_c, 0, 54, 46
2, 37056, Note_on_c, 0, 59, 48
2, 37057, Control_c, 0, 64, 0
2, 37063, Note_on_c, 0, 71, 67
2, 37084, Note_off_c, 0, 66, 64
2, 37084, Control_c, 0, 64, 127
2, 37129, Note_off_c, 0, 63, 64
2, 37136, Note_off_c, 0, 54, 64
2, 37138, Note_off_c, 0, 59, 64
2, 37182, Note_on_c, 0, 47, 70
2, 37184, Note_on_c, 0, 75, 67
2, 37207, Note_off_c, 0, 71, 64
2, 37236, Note_on_c, 0, 73, 69
2, 37258, Note_off_c, 0, 75, 64
2, 37311, Note_on_c, 0, 63, 62
2, 37315, Note_on_c, 0, 71, 69
2, 37315, Control_c, 0, 64, 0
2, 37321, Note_on_c, 0, 54, 25
2, 37323, Note_off_c, 0, 47, 64
2, 37326, Control_c, 0, 64, 0
2, 37327, Note_off_c, 0, 73, 64
2, 37334, Control_c, 0, 64, 127
2, 37359, Control_c, 0, 64, 127
2, 37393, Note_off_c, 0, 63, 64
2, 37403, Note_off_c, 0, 54, 64
2, 37462, Note_on_c, 0, 64, 51
2, 37463, Control_c, 0, 64, 0
2, 37471, Note_off_c, 0, 71, 64
2, 37471, Note_on_c, 0, 68, 69
2, 37471, Note_on_c, 0, 59, 51
2, 37471, Note_on_c, 0, 56, 50
2, 37497, Control_c, 0, 64, 127
2, 37544, Note_off_c, 0, 64, 64
2, 37553, Note_off_c, 0, 56, 64
2, 37553, Note_off_c, 0, 59, 64
2, 37584, Control_c, 0, 64, 0
2, 37591, Note_on_c, 0, 47, 71
2, 37593, Note_on_c, 0, 66, 69
2, 37602, Control_c, 0, 64, 127
2, 37614, Note_off_c, 0, 68, 64
2, 37652, Note_on_c, 0, 63, 64
2, 37675, Note_off_c, 0, 66, 64
2, 37699, Note_on_c, 0, 59, 51
2, 37700, Note_on_c, 0, 54, 59
2, 37712, Note_on_c, 0, 66, 78
2, 37718, Control_c, 0, 64, 0
2, 37723, Note_off_c, 0, 63, 64
2, 37731, Control_c, 0, 64, 0
2, 37732, Note_off_c, 0, 47, 64
2, 37743, Control_c, 0, 64, 127
2, 37750, Control_c, 0, 64, 127
2, 37781, Note_off_c, 0, 59, 64
2, 37782, Note_off_c, 0, 54, 64
2, 37857, Note_on_c, 0, 63, 46
2, 37859, Note_on_c, 0, 54, 46
2, 37862, Note_on_c, 0, 71, 65
2, 37866, Note_on_c, 0, 59, 46
2, 37879, Control_c, 0, 64, 0
2, 37885, Note_off_c, 0, 66, 64
2, 37913, Control_c, 0, 64, 127
2, 37939, Note_off_c, 0, 63, 64
2, 37941, Note_off_c, 0, 54, 64
2, 37948, Note_off_c, 0, 59, 64
2, 37988, Control_c, 0, 64, 0
2, 37995, Note_on_c, 0, 75, 69
2, 37995, Note_on_c, 0, 44, 73
2, 38000, Control_c, 0, 64, 0
2, 38005, Note_off_c, 0, 71, 64
2, 38014, Control_c, 0, 64, 127
2, 38018, Control_c, 0, 64, 127
2, 38051, Note_on_c, 0, 73, 62
2, 38068, Note_off_c, 0, 75, 64
2, 38113, Note_on_c, 0, 56, 51
2, 38114, Note_on_c, 0, 59, 54
2, 38119, Note_on_c, 0, 71, 65
2, 38119, Note_on_c, 0, 51, 50
2, 38119, Control_c, 0, 64, 0
2, 38134, Control_c, 0, 64, 0
2, 38136, Note_off_c, 0, 44, 64
2, 38136, Control_c, 0, 64, 127
2, 38145, Note_off_c, 0, 73, 64
2, 38159, Control_c, 0, 64, 127
2, 38195, Note_off_c, 0, 56, 64
2, 38196, Note_off_c, 0, 59, 64
2, 38201, Note_off_c, 0, 51, 64
2, 38259, Note_on_c, 0, 61, 44
2, 38263, Note_on_c, 0, 68, 69
2, 38265, Note_on_c, 0, 52, 51
2, 38273, Note_on_c, 0, 56, 49
2, 38273, Control_c, 0, 64, 0
2, 38282, Note_off_c, 0, 71, 64
2, 38294, Control_c, 0, 64, 127
2, 38341, Note_off_c, 0, 61, 64
2, 38347, Note_off_c, 0, 52, 64
2, 38355, Note_off_c, 0, 56, 64
2, 38404, Control_c, 0, 64, 0
2, 38410, Note_on_c, 0, 44, 69
2, 38415, Note_on_c, 0, 63, 69
2, 38430, Control_c, 0, 64, 127
2, 38431, Control_c, 0, 64, 0
2, 38436, Note_off_c, 0, 68, 64
2, 38449, Control_c, 0, 64, 127
2, 38470, Note_on_c, 0, 59, 66
2, 38490, Note_off_c, 0, 63, 64
2, 38526, Note_off_c, 0, 59, 64
2, 38529, Control_c, 0, 64, 0
2, 38535, Note_on_c, 0, 68, 67
2, 38535, Note_on_c, 0, 56, 62
2, 38535, Control_c, 0, 64, 0
2, 38535, Note_on_c, 0, 51, 58
2, 38536, Note_on_c, 0, 59, 46
2, 38551, Note_off_c, 0, 44, 64
2, 38552, Control_c, 0, 64, 127
2, 38569, Control_c, 0, 64, 127
2, 38617, Note_off_c, 0, 51, 64
2, 38617, Note_off_c, 0, 56, 64
2, 38618, Note_off_c, 0, 59, 64
2, 38680, Note_on_c, 0, 71, 63
2, 38682, Note_on_c, 0, 56, 56
2, 38684, Note_on_c, 0, 59, 46
2, 38689, Note_on_c, 0, 51, 49
2, 38689, Control_c, 0, 64, 0
2, 38698, Note_off_c, 0, 68, 64
2, 38710, Control_c, 0, 64, 127
2, 38764, Note_off_c, 0, 56, 64
2, 38766, Note_off_c, 0, 59, 64
2, 38771, Note_off_c, 0, 51, 64
2, 38810, Control_c, 0, 64, 0
2, 38818, Note_on_c, 0, 75, 62
2, 38818, Note_on_c, 0, 44, 73
2, 38839, Control_c, 0, 64, 127
2, 38840, Note_off_c, 0, 71, 64
2, 38847, Control_c, 0, 64, 0
2, 38865, Control_c, 0, 64, 127
2, 38876, Note_on_c, 0, 73, 66
2, 38893, Note_off_c, 0, 75, 64
2, 38937, Note_on_c, 0, 59, 47
2, 38941, Note_on_c, 0, 51, 49
2, 38942, Control_c, 0, 64, 0
2, 38945, Control_c, 0, 64, 0
2, 38950, Note_on_c, 0, 56, 40
2, 38954, Note_on_c, 0, 71, 64
2, 38959, Note_off_c, 0, 44, 64
2, 38961, Note_off_c, 0, 73, 64
2, 38961, Control_c, 0, 64, 127
2, 38985, Control_c, 0, 64, 127
2, 39019, Note_off_c, 0, 59, 64
2, 39023, Note_off_c, 0, 51, 64
2, 39032, Note_off_c, 0, 56, 64
2, 39112, Note_on_c, 0, 61, 42
2, 39112, Note_on_c, 0, 52, 46
2, 39116, Note_on_c, 0, 68, 67
2, 39116, Note_on_c, 0, 56, 46
2, 39139, Note_off_c, 0, 71, 64
2, 39194, Note_off_c, 0, 52, 64
2, 39194, Note_off_c, 0, 61, 64
2, 39198, Note_off_c, 0, 56, 64
2, 39226, Control_c, 0, 64, 0
2, 39246, Note_on_c, 0, 63, 58
2, 39253, Note_on_c, 0, 44, 57
2, 39255, Control_c, 0, 64, 127
2, 39263, Note_off_c, 0, 68, 64
2, 39266, Control_c, 0, 64, 0
2, 39301, Control_c, 0, 64, 127
2, 39314, Note_on_c, 0, 59, 40
2, 39331, Note_off_c, 0, 63, 64
2, 39358, Control_c, 0, 64, 0
2, 39377, Control_c, 0, 64, 127
2, 39389, Control_c, 0, 64, 0
2, 39394, Note_off_c, 0, 44, 64
2, 39396, Note_off_c, 0, 59, 64
2, 39397, Note_on_c, 0, 68, 62
2, 39406, Note_on_c, 0, 56, 42
2, 39410, Note_on_c, 0, 59, 49
2, 39415, Note_on_c, 0, 51, 26
2, 39423, Control_c, 0, 64, 127
2, 39488, Note_off_c, 0, 56, 64
2, 39492, Note_off_c, 0, 59, 64
2, 39497, Note_off_c, 0, 51, 64
2, 39565, Note_on_c, 0, 44, 47
2, 39576, Note_on_c, 0, 71, 56
2, 39594, Note_off_c, 0, 68, 64
2, 39682, Control_c, 0, 64, 0
2, 39706, Note_off_c, 0, 44, 64
2, 39717, Control_c, 0, 64, 127
2, 39760, Note_on_c, 0, 42, 49
2, 39800, Note_on_c, 0, 73, 69
2, 39800, Control_c, 0, 64, 0
2, 39805, Control_c, 0, 64, 0
2, 39815, Note_off_c, 0, 71, 64
2, 39826, Control_c, 0, 64, 127
2, 39839, Control_c, 0, 64, 127
2, 39983, Note_on_c, 0, 54, 28
2, 39999, Note_on_c, 0, 64, 46
2, 39999, Note_on_c, 0, 58, 23
2, 40065, Note_off_c, 0, 54, 64
2, 40081, Note_off_c, 0, 58, 64
2, 40081, Note_off_c, 0, 64, 64
2, 40142, Note_on_c, 0, 58, 49
2, 40148, Note_on_c, 0, 64, 34
2, 40154, Note_on_c, 0, 54, 29
2, 40216, Control_c, 0, 64, 0
2, 40242, Control_c, 0, 64, 127
2, 40252, Note_off_c, 0, 58, 64
2, 40258, Note_off_c, 0, 64, 64
2, 40264, Note_off_c, 0, 54, 64
2, 40313, Note_on_c, 0, 35, 67
2, 40316, Control_c, 0, 64, 0
2, 40323, Note_on_c, 0, 75, 71
2, 40332, Note_off_c, 0, 42, 64
2, 40341, Note_off_c, 0, 73, 64
2, 40345, Control_c, 0, 64, 127
2, 40521, Note_on_c, 0, 69, 42
2, 40525, Note_on_c, 0, 57, 37
2, 40529, Note_on_c, 0, 63, 40
2, 40532, Note_on_c, 0, 59, 51
2, 40720, Note_on_c, 0, 73, 64
2, 40732, Control_c, 0, 64, 0
2, 40748, Note_off_c, 0, 75, 64
2, 40761, Note_off_c, 0, 69, 64
2, 40761, Control_c, 0, 64, 127
2, 40765, Note_off_c, 0, 57, 64
2, 40769, Note_off_c, 0, 63, 64
2, 40772, Note_off_c, 0, 59, 64
2, 40788, Note_off_c, 0, 35, 64
2, 40838, Note_on_c, 0, 75, 53
2, 40854, Note_off_c, 0, 73, 64
2, 40882, Note_on_c, 0, 73, 74
2, 40892, Note_on_c, 0, 47, 64
2, 40892, Control_c, 0, 64, 0
2, 40905, Note_off_c, 0, 75, 64
2, 40916, Control_c, 0, 64, 127
2, 40987, Note_on_c, 0, 71, 51
2, 40997, Note_off_c, 0, 73, 64
2, 41056, Note_on_c, 0, 57, 46
2, 41060, Note_on_c, 0, 80, 85
2, 41064, Note_on_c, 0, 59, 47
2, 41066, Note_on_c, 0, 63, 37
2, 41069, Note_on_c, 0, 69, 34
2, 41086, Note_off_c, 0, 47, 64
2, 41102, Note_off_c, 0, 71, 64
2, 41138, Note_off_c, 0, 57, 64
2, 41146, Note_off_c, 0, 59, 64
2, 41148, Note_off_c, 0, 63, 64
2, 41151, Note_off_c, 0, 69, 64
2, 41208, Note_on_c, 0, 59, 46
2, 41208, Note_on_c, 0, 57, 46
2, 41210, Note_on_c, 0, 69, 57
2, 41220, Note_on_c, 0, 63, 41
2, 41290, Note_off_c, 0, 57, 64
2, 41290, Note_off_c, 0, 59, 64
2, 41290, Note_on_c, 0, 78, 74
2, 41292, Note_off_c, 0, 69, 64
2, 41299, Note_off_c, 0, 80, 64
2, 41302, Note_off_c, 0, 63, 64
2, 41308, Control_c, 0, 64, 0
2, 41332, Control_c, 0, 64, 127
2, 41348, Note_off_c, 0, 78, 64
2, 41367, Note_on_c, 0, 40, 65
2, 41377, Note_on_c, 0, 78, 66
2, 41389, Control_c, 0, 64, 0
2, 41400, Control_c, 0, 64, 127
2, 41452, Note_on_c, 0, 77, 72
2, 41473, Note_off_c, 0, 78, 64
2, 41528, Note_on_c, 0, 59, 43
2, 41528, Note_on_c, 0, 56, 43
2, 41530, Note_on_c, 0, 76, 75
2, 41536, Note_on_c, 0, 68, 28
2, 41547, Note_off_c, 0, 77, 64
2, 41561, Note_off_c, 0, 40, 64
2, 41702, Note_on_c, 0, 42, 58
2, 41704, Control_c, 0, 64, 0
2, 41715, Note_off_c, 0, 56, 64
2, 41715, Note_off_c, 0, 59, 64
2, 41720, Control_c, 0, 64, 127
2, 41723, Note_off_c, 0, 68, 64
2, 41805, Control_c, 0, 64, 0
2, 41816, Control_c, 0, 64, 127
2, 41864, Note_on_c, 0, 44, 34
2, 41874, Note_on_c, 0, 75, 58
2, 41883, Note_off_c, 0, 42, 64
2, 41891, Control_c, 0, 64, 0
2, 41892, Note_off_c, 0, 76, 64
2, 41916, Control_c, 0, 64, 127
2, 41949, Note_on_c, 0, 73, 58
2, 41972, Note_off_c, 0, 75, 64
2, 42022, Note_on_c, 0, 72, 58
2, 42036, Note_off_c, 0, 73, 64
2, 42040, Note_on_c, 0, 66, 33
2, 42040, Note_on_c, 0, 63, 39
2, 42040, Note_on_c, 0, 56, 49
2, 42058, Note_off_c, 0, 44, 64
2, 42120, Control_c, 0, 64, 0
2, 42122, Note_off_c, 0, 56, 64
2, 42122, Note_off_c, 0, 63, 64
2, 42122, Note_off_c, 0, 66, 64
2, 42136, Control_c, 0, 64, 127
2, 42160, Note_on_c, 0, 60, 39
2, 42161, Note_on_c, 0, 73, 62
2, 42166, Note_on_c, 0, 66, 39
2, 42168, Note_on_c, 0, 56, 49
2, 42175, Note_off_c, 0, 72, 64
2, 42234, Note_on_c, 0, 75, 52
2, 42242, Note_off_c, 0, 60, 64
2, 42248, Note_off_c, 0, 66, 64
2, 42250, Note_off_c, 0, 56, 64
2, 42253, Note_off_c, 0, 73, 64
2, 42307, Control_c, 0, 64, 0
2, 42310, Note_on_c, 0, 68, 58
2, 42332, Control_c, 0, 64, 127
2, 42339, Note_off_c, 0, 75, 64
2, 42441, Control_c, 0, 64, 0
2, 42448, Note_on_c, 0, 56, 42
2, 42452, Note_on_c, 0, 61, 50
2, 42460, Note_on_c, 0, 64, 32
2, 42473, Control_c, 0, 64, 127
2, 42530, Note_off_c, 0, 56, 64
2, 42534, Note_off_c, 0, 61, 64
2, 42542, Note_off_c, 0, 64, 64
2, 42581, Note_on_c, 0, 49, 44
2, 42591, Note_on_c, 0, 73, 58
2, 42602, Control_c, 0, 64, 0
2, 42610, Note_off_c, 0, 68, 64
2, 42617, Control_c, 0, 64, 127
2, 42670, Note_off_c, 0, 49, 64
2, 42738, Note_on_c, 0, 75, 49
2, 42768, Note_off_c, 0, 73, 64
2, 42798, Note_on_c, 0, 73, 62
2, 42817, Note_off_c, 0, 75, 64
2, 42857, Control_c, 0, 64, 0
2, 42868, Control_c, 0, 64, 0
2, 42877, Note_on_c, 0, 72, 58
2, 42877, Note_on_c, 0, 63, 59
2, 42877, Note_on_c, 0, 56, 48
2, 42886, Note_on_c, 0, 66, 47
2, 42889, Control_c, 0, 64, 127
2, 42898, Note_off_c, 0, 73, 64
2, 42905, Control_c, 0, 64, 127
2, 42959, Note_off_c, 0, 56, 64
2, 42959, Note_off_c, 0, 63, 64
2, 42968, Note_off_c, 0, 66, 64
2, 43016, Control_c, 0, 64, 0
2, 43018, Control_c, 0, 64, 0
2, 43020, Note_on_c, 0, 66, 36
2, 43024, Note_on_c, 0, 56, 34
2, 43025, Note_on_c, 0, 73, 62
2, 43031, Note_on_c, 0, 60, 52
2, 43033, Control_c, 0, 64, 127
2, 43039, Control_c, 0, 64, 127
2, 43043, Note_off_c, 0, 72, 64
2, 43092, Note_on_c, 0, 75, 54
2, 43102, Note_off_c, 0, 66, 64
2, 43106, Note_off_c, 0, 56, 64
2, 43109, Note_off_c, 0, 73, 64
2, 43113, Note_off_c, 0, 60, 64
2, 43161, Note_on_c, 0, 49, 48
2, 43167, Note_on_c, 0, 78, 54
2, 43184, Control_c, 0, 64, 0
2, 43198, Note_off_c, 0, 75, 64
2, 43198, Control_c, 0, 64, 127
2, 43284, Control_c, 0, 64, 0
2, 43302, Note_off_c, 0, 49, 64
2, 43314, Note_on_c, 0, 64, 25
2, 43314, Note_on_c, 0, 56, 24
2, 43315, Note_on_c, 0, 61, 39
2, 43321, Control_c, 0, 64, 127
2, 43337, Control_c, 0, 64, 0
2, 43361, Control_c, 0, 64, 127
2, 43396, Note_off_c, 0, 56, 64
2, 43396, Note_off_c, 0, 64, 64
2, 43397, Note_off_c, 0, 61, 64
2, 43432, Control_c, 0, 64, 0
2, 43455, Control_c, 0, 64, 127
2, 43462, Note_on_c, 0, 76, 48
2, 43469, Note_on_c, 0, 56, 32
2, 43473, Note_on_c, 0, 61, 28
2, 43477, Note_off_c, 0, 78, 64
2, 43479, Note_on_c, 0, 64, 20
2, 43488, Control_c, 0, 64, 0
2, 43502, Control_c, 0, 64, 127
2, 43551, Note_off_c, 0, 56, 64
2, 43555, Note_off_c, 0, 61, 64
2, 43561, Note_off_c, 0, 64, 64
2, 43600, Control_c, 0, 64, 0
2, 43608, Note_on_c, 0, 68, 59
2, 43614, Control_c, 0, 64, 127
2, 43634, Note_off_c, 0, 76, 64
2, 43753, Control_c, 0, 64, 0
2, 43759, Note_on_c, 0, 56, 35
2, 43764, Note_on_c, 0, 61, 32
2, 43767, Note_on_c, 0, 71, 57
2, 43767, Note_on_c, 0, 64, 32
2, 43777, Control_c, 0, 64, 127
2, 43779, Note_off_c, 0, 68, 64
2, 43787, Control_c, 0, 64, 0
2, 43818, Control_c, 0, 64, 127
2, 43841, Note_off_c, 0, 56, 64
2, 43846, Note_off_c, 0, 61, 64
2, 43849, Note_off_c, 0, 64, 64
2, 43904, Control_c, 0, 64, 0
2, 43918, Control_c, 0, 64, 127
2, 43924, Note_on_c, 0, 55, 20
2, 43926, Note_on_c, 0, 64, 25
2, 43930, Note_on_c, 0, 61, 26
2, 43953, Control_c, 0, 64, 0
2, 43988, Control_c, 0, 64, 127
2, 44006, Note_off_c, 0, 55, 64
2, 44008, Note_off_c, 0, 64, 64
2, 44012, Note_off_c, 0, 61, 64
2, 44083, Note_on_c, 0, 70, 47
2, 44101, Note_off_c, 0, 71, 64
2, 44152, Note_on_c, 0, 71, 57
2, 44173, Note_off_c, 0, 70, 64
2, 44203, Control_c, 0, 64, 0
2, 44217, Note_on_c, 0, 54, 35
2, 44225, Note_on_c, 0, 58, 39
2, 44228, Note_on_c, 0, 73, 51
2, 44228, Note_on_c, 0, 64, 37
2, 44230, Control_c, 0, 64, 0
2, 44234, Control_c, 0, 64, 127
2, 44252, Note_off_c, 0, 71, 64
2, 44255, Control_c, 0, 64, 127
2, 44299, Note_off_c, 0, 54, 64
2, 44307, Note_off_c, 0, 58, 64
2, 44310, Note_off_c, 0, 64, 64
2, 44368, Note_on_c, 0, 54, 20
2, 44369, Control_c, 0, 64, 0
2, 44374, Note_on_c, 0, 64, 33
2, 44378, Note_on_c, 0, 59, 35
2, 44381, Note_on_c, 0, 68, 63
2, 44389, Control_c, 0, 64, 0
2, 44403, Control_c, 0, 64, 127
2, 44404, Control_c, 0, 64, 127
2, 44419, Note_off_c, 0, 73, 64
2, 44454, Note_on_c, 0, 70, 51
2, 44469, Note_off_c, 0, 68, 64
2, 44529, Note_on_c, 0, 66, 59
2, 44535, Note_off_c, 0, 70, 64
2, 44569, Note_off_c, 0, 54, 64
2, 44575, Note_off_c, 0, 64, 64
2, 44579, Note_off_c, 0, 59, 64
2, 44646, Control_c, 0, 64, 0
2, 44665, Note_on_c, 0, 54, 35
2, 44666, Note_on_c, 0, 61, 39
2, 44669, Note_on_c, 0, 64, 32
2, 44671, Control_c, 0, 64, 127
2, 44747, Note_off_c, 0, 54, 64
2, 44748, Note_off_c, 0, 61, 64
2, 44751, Note_off_c, 0, 64, 64
2, 44805, Control_c, 0, 64, 0
2, 44819, Control_c, 0, 64, 127
2, 44830, Note_on_c, 0, 64, 41
2, 44836, Note_on_c, 0, 54, 43
2, 44842, Note_on_c, 0, 71, 52
2, 44842, Note_on_c, 0, 56, 44
2, 44849, Control_c, 0, 64, 0
2, 44869, Note_off_c, 0, 66, 64
2, 44884, Control_c, 0, 64, 127
2, 44912, Note_off_c, 0, 64, 64
2, 44918, Note_off_c, 0, 54, 64
2, 44924, Note_off_c, 0, 56, 64
2, 44984, Control_c, 0, 64, 0
2, 44996, Note_on_c, 0, 70, 49
2, 45009, Control_c, 0, 64, 127
2, 45011, Note_off_c, 0, 71, 64
2, 45056, Note_on_c, 0, 71, 54
2, 45059, Note_off_c, 0, 70, 64
2, 45121, Control_c, 0, 64, 0
2, 45128, Note_on_c, 0, 58, 41
2, 45128, Note_on_c, 0, 54, 42
2, 45134, Note_on_c, 0, 73, 52
2, 45137, Note_on_c, 0, 64, 39
2, 45158, Note_off_c, 0, 71, 64
2, 45167, Control_c, 0, 64, 127
2, 45210, Note_off_c, 0, 54, 64
2, 45210, Note_off_c, 0, 58, 64
2, 45219, Note_off_c, 0, 64, 64
2, 45265, Control_c, 0, 64, 0
2, 45272, Note_on_c, 0, 54, 42
2, 45272, Control_c, 0, 64, 0
2, 45281, Note_on_c, 0, 68, 63
2, 45284, Note_on_c, 0, 64, 32
2, 45284, Note_on_c, 0, 59, 39
2, 45294, Control_c, 0, 64, 127
2, 45300, Control_c, 0, 64, 127
2, 45308, Note_off_c, 0, 73, 64
2, 45354, Note_off_c, 0, 54, 64
2, 45356, Note_on_c, 0, 70, 51
2, 45366, Note_off_c, 0, 59, 64
2, 45366, Note_off_c, 0, 64, 64
2, 45376, Note_off_c, 0, 68, 64
2, 45400, Control_c, 0, 64, 0
2, 45425, Control_c, 0, 64, 127
2, 45435, Note_on_c, 0, 66, 63
2, 45443, Note_off_c, 0, 70, 64
2, 45496, Note_on_c, 0, 75, 50
2, 45530, Note_off_c, 0, 66, 64
2, 45537, Control_c, 0, 64, 0
2, 45567, Note_on_c, 0, 73, 55
2, 45568, Note_on_c, 0, 54, 25
2, 45574, Note_off_c, 0, 75, 64
2, 45574, Note_on_c, 0, 58, 39
2, 45574, Control_c, 0, 64, 0
2, 45576, Note_on_c, 0, 64, 35
2, 45583, Control_c, 0, 64, 127
2, 45596, Control_c, 0, 64, 127
2, 45650, Note_off_c, 0, 54, 64
2, 45656, Note_off_c, 0, 58, 64
2, 45658, Note_off_c, 0, 64, 64
2, 45688, Control_c, 0, 64, 0
2, 45710, Control_c, 0, 64, 127
2, 45716, Note_on_c, 0, 59, 41
2, 45716, Control_c, 0, 64, 0
2, 45720, Note_on_c, 0, 68, 54
2, 45724, Note_on_c, 0, 64, 34
2, 45726, Note_on_c, 0, 54, 17
2, 45728, Note_off_c, 0, 73, 64
2, 45739, Control_c, 0, 64, 127
2, 45794, Note_on_c, 0, 70, 39
2, 45798, Note_off_c, 0, 59, 64
2, 45801, Note_off_c, 0, 68, 64
2, 45806, Note_off_c, 0, 64, 64
2, 45808, Note_off_c, 0, 54, 64
2, 45868, Note_on_c, 0, 64, 37
2, 45868, Note_on_c, 0, 54, 19
2, 45872, Note_on_c, 0, 66, 54
2, 45872, Note_on_c, 0, 58, 35
2, 45887, Note_off_c, 0, 70, 64
2, 45944, Note_on_c, 0, 75, 49
2, 45950, Note_off_c, 0, 54, 64
2, 45950, Note_off_c, 0, 64, 64
2, 45954, Note_off_c, 0, 58, 64
2, 45964, Note_off_c, 0, 66, 64
2, 45990, Control_c, 0, 64, 0
2, 45996, Note_on_c, 0, 64, 19
2, 46000, Note_on_c, 0, 73, 51
2, 46000, Note_on_c, 0, 58, 37
2, 46000, Note_on_c, 0, 54, 37
2, 46012, Control_c, 0, 64, 127
2, 46016, Note_off_c, 0, 75, 64
2, 46078, Note_off_c, 0, 64, 64
2, 46080, Note_on_c, 0, 68, 54
2, 46082, Note_off_c, 0, 54, 64
2, 46082, Note_off_c, 0, 58, 64
2, 46095, Note_off_c, 0, 73, 64
2, 46132, Control_c, 0, 64, 0
2, 46148, Note_on_c, 0, 70, 50
2, 46152, Note_on_c, 0, 64, 17
2, 46152, Note_on_c, 0, 59, 31
2, 46152, Note_on_c, 0, 54, 1
2, 46155, Control_c, 0, 64, 127
2, 46168, Note_off_c, 0, 68, 64
2, 46232, Note_on_c, 0, 68, 52
2, 46234, Note_off_c, 0, 54, 64
2, 46234, Note_off_c, 0, 59, 64
2, 46234, Note_off_c, 0, 64, 64
2, 46251, Note_off_c, 0, 70, 64
2, 46304, Note_on_c, 0, 66, 58
2, 46304, Note_on_c, 0, 58, 34
2, 46308, Note_on_c, 0, 54, 26
2, 46312, Note_on_c, 0, 64, 29
2, 46322, Control_c, 0, 64, 0
2, 46329, Note_off_c, 0, 68, 64
2, 46356, Control_c, 0, 64, 127
2, 46386, Note_off_c, 0, 58, 64
2, 46390, Note_off_c, 0, 54, 64
2, 46391, Note_on_c, 0, 75, 40
2, 46394, Note_off_c, 0, 64, 64
2, 46422, Note_off_c, 0, 66, 64
2, 46473, Note_on_c, 0, 73, 44
2, 46479, Control_c, 0, 64, 0
2, 46485, Note_on_c, 0, 58, 23
2, 46486, Note_on_c, 0, 54, 26
2, 46492, Note_off_c, 0, 75, 64
2, 46494, Note_on_c, 0, 64, 13
2, 46508, Control_c, 0, 64, 127
2, 46567, Note_off_c, 0, 58, 64
2, 46568, Note_off_c, 0, 54, 64
2, 46576, Note_off_c, 0, 64, 64
2, 46634, Note_on_c, 0, 66, 65
2, 46660, Note_off_c, 0, 73, 64
2, 46738, Control_c, 0, 64, 0
2, 46772, Control_c, 0, 64, 127
2, 46811, Note_on_c, 0, 80, 69
2, 46819, Note_on_c, 0, 42, 58
2, 46829, Control_c, 0, 64, 0
2, 46836, Note_off_c, 0, 66, 64
2, 46853, Control_c, 0, 64, 127
2, 46895, Control_c, 0, 64, 0
2, 46924, Control_c, 0, 64, 127
2, 47038, Note_on_c, 0, 70, 29
2, 47040, Note_on_c, 0, 64, 36
2, 47098, Note_off_c, 0, 42, 64
2, 47120, Note_off_c, 0, 70, 64
2, 47122, Note_off_c, 0, 64, 64
2, 47148, Note_on_c, 0, 78, 59
2, 47161, Note_off_c, 0, 80, 64
2, 47227, Note_on_c, 0, 77, 62
2, 47245, Control_c, 0, 64, 0
2, 47264, Note_off_c, 0, 78, 64
2, 47269, Control_c, 0, 64, 127
2, 47304, Note_on_c, 0, 76, 62
2, 47327, Note_off_c, 0, 77, 64
2, 47379, Control_c, 0, 64, 0
2, 47384, Note_on_c, 0, 75, 50
2, 47386, Note_on_c, 0, 47, 56
2, 47395, Note_off_c, 0, 76, 64
2, 47397, Control_c, 0, 64, 127
2, 47461, Note_on_c, 0, 73, 48
2, 47480, Note_off_c, 0, 75, 64
2, 47514, Control_c, 0, 64, 0
2, 47523, Note_on_c, 0, 63, 59
2, 47527, Note_off_c, 0, 47, 64
2, 47531, Note_on_c, 0, 71, 64
2, 47533, Note_on_c, 0, 54, 34
2, 47543, Note_off_c, 0, 73, 64
2, 47547, Control_c, 0, 64, 127
2, 47605, Note_off_c, 0, 63, 64
2, 47615, Note_off_c, 0, 54, 64
2, 47670, Note_on_c, 0, 68, 64
2, 47677, Note_on_c, 0, 64, 42
2, 47677, Note_on_c, 0, 56, 43
2, 47680, Note_off_c, 0, 71, 64
2, 47684, Note_on_c, 0, 59, 42
2, 47759, Note_off_c, 0, 56, 64
2, 47759, Note_off_c, 0, 64, 64
2, 47766, Note_off_c, 0, 59, 64
2, 47795, Control_c, 0, 64, 0
2, 47808, Note_on_c, 0, 66, 62
2, 47808, Note_on_c, 0, 47, 69
2, 47811, Control_c, 0, 64, 0
2, 47813, Control_c, 0, 64, 127
2, 47825, Note_off_c, 0, 68, 64
2, 47834, Control_c, 0, 64, 127
2, 47861, Note_on_c, 0, 63, 58
2, 47875, Note_off_c, 0, 66, 64
2, 47926, Note_on_c, 0, 54, 58
2, 47928, Note_on_c, 0, 59, 41
2, 47930, Control_c, 0, 64, 0
2, 47935, Note_on_c, 0, 66, 74
2, 47940, Control_c, 0, 64, 0
2, 47946, Note_off_c, 0, 63, 64
2, 47949, Note_off_c, 0, 47, 64
2, 47963, Control_c, 0, 64, 127
2, 47965, Control_c, 0, 64, 127
2, 48008, Note_off_c, 0, 54, 64
2, 48010, Note_off_c, 0, 59, 64
2, 48074, Note_on_c, 0, 71, 63
2, 48074, Note_on_c, 0, 63, 41
2, 48082, Note_on_c, 0, 54, 39
2, 48096, Note_off_c, 0, 66, 64
2, 48156, Note_off_c, 0, 63, 64
2, 48164, Note_off_c, 0, 54, 64
2, 48200, Note_on_c, 0, 47, 65
2, 48204, Note_on_c, 0, 75, 66
2, 48212, Control_c, 0, 64, 0
2, 48226, Note_off_c, 0, 71, 64
2, 48227, Control_c, 0, 64, 0
2, 48236, Control_c, 0, 64, 127
2, 48250, Control_c, 0, 64, 127
2, 48274, Note_on_c, 0, 73, 67
2, 48292, Note_off_c, 0, 75, 64
2, 48331, Note_on_c, 0, 63, 59
2, 48334, Control_c, 0, 64, 0
2, 48341, Note_off_c, 0, 47, 64
2, 48343, Note_on_c, 0, 54, 39
2, 48344, Note_on_c, 0, 71, 62
2, 48356, Note_off_c, 0, 73, 64
2, 48356, Control_c, 0, 64, 0
2, 48357, Control_c, 0, 64, 127
2, 48381, Control_c, 0, 64, 127
2, 48413, Note_off_c, 0, 63, 64
2, 48425, Note_off_c, 0, 54, 64
2, 48463, Note_on_c, 0, 68, 67
2, 48469, Note_on_c, 0, 64, 50
2, 48473, Note_off_c, 0, 71, 64
2, 48476, Note_on_c, 0, 59, 28
2, 48479, Note_on_c, 0, 56, 41
2, 48551, Note_off_c, 0, 64, 64
2, 48558, Note_off_c, 0, 59, 64
2, 48561, Note_off_c, 0, 56, 64
2, 48589, Note_on_c, 0, 66, 65
2, 48593, Note_on_c, 0, 47, 69
2, 48593, Control_c, 0, 64, 0
2, 48603, Note_off_c, 0, 68, 64
2, 48619, Control_c, 0, 64, 127
2, 48628, Control_c, 0, 64, 0
2, 48645, Note_on_c, 0, 63, 64
2, 48652, Control_c, 0, 64, 127
2, 48667, Note_off_c, 0, 66, 64
2, 48701, Note_on_c, 0, 54, 63
2, 48708, Note_on_c, 0, 59, 59
2, 48711, Control_c, 0, 64, 0
2, 48718, Note_on_c, 0, 66, 71
2, 48725, Note_off_c, 0, 63, 64
2, 48734, Note_off_c, 0, 47, 64
2, 48736, Control_c, 0, 64, 127
2, 48750, Control_c, 0, 64, 0
2, 48773, Control_c, 0, 64, 127
2, 48783, Note_off_c, 0, 54, 64
2, 48790, Note_off_c, 0, 59, 64
2, 48851, Note_on_c, 0, 71, 67
2, 48853, Note_on_c, 0, 63, 42
2, 48853, Note_on_c, 0, 59, 45
2, 48860, Note_off_c, 0, 66, 64
2, 48861, Note_on_c, 0, 54, 40
2, 48935, Note_off_c, 0, 59, 64
2, 48935, Note_off_c, 0, 63, 64
2, 48943, Note_off_c, 0, 54, 64
2, 48967, Control_c, 0, 64, 0
2, 48976, Note_on_c, 0, 75, 69
2, 48976, Note_on_c, 0, 49, 73
2, 49002, Note_off_c, 0, 71, 64
2, 49006, Control_c, 0, 64, 127
2, 49009, Control_c, 0, 64, 0
2, 49032, Note_on_c, 0, 73, 65
2, 49035, Control_c, 0, 64, 127
2, 49048, Note_off_c, 0, 75, 64
2, 49089, Note_on_c, 0, 59, 49
2, 49097, Note_on_c, 0, 71, 67
2, 49102, Note_on_c, 0, 65, 55
2, 49102, Control_c, 0, 64, 0
2, 49117, Note_off_c, 0, 49, 64
2, 49117, Control_c, 0, 64, 127
2, 49121, Note_off_c, 0, 73, 64
2, 49127, Control_c, 0, 64, 0
2, 49152, Control_c, 0, 64, 127
2, 49171, Note_off_c, 0, 59, 64
2, 49184, Note_off_c, 0, 65, 64
2, 49229, Note_on_c, 0, 65, 43
2, 49235, Note_on_c, 0, 68, 67
2, 49236, Note_on_c, 0, 59, 41
2, 49252, Note_off_c, 0, 71, 64
2, 49311, Note_off_c, 0, 65, 64
2, 49318, Note_off_c, 0, 59, 64
2, 49354, Note_on_c, 0, 66, 57
2, 49354, Control_c, 0, 64, 0
2, 49360, Note_on_c, 0, 42, 73
2, 49369, Note_off_c, 0, 68, 64
2, 49383, Control_c, 0, 64, 0
2, 49385, Control_c, 0, 64, 127
2, 49406, Note_on_c, 0, 61, 74
2, 49422, Control_c, 0, 64, 127
2, 49431, Note_off_c, 0, 66, 64
2, 49454, Control_c, 0, 64, 0
2, 49468, Note_on_c, 0, 58, 63
2, 49473, Note_on_c, 0, 66, 74
2, 49500, Control_c, 0, 64, 127
2, 49501, Note_off_c, 0, 42, 64
2, 49517, Note_off_c, 0, 61, 64
2, 49518, Control_c, 0, 64, 0
2, 49533, Control_c, 0, 64, 127
2, 49550, Note_off_c, 0, 58, 64
2, 49595, Note_on_c, 0, 58, 43
2, 49603, Note_on_c, 0, 70, 71
2, 49606, Note_on_c, 0, 49, 35
2, 49608, Note_off_c, 0, 66, 64
2, 49677, Note_off_c, 0, 58, 64
2, 49688, Note_off_c, 0, 49, 64
2, 49716, Note_on_c, 0, 75, 69
2, 49724, Note_on_c, 0, 37, 77
2, 49731, Control_c, 0, 64, 0
2, 49735, Note_off_c, 0, 70, 64
2, 49746, Control_c, 0, 64, 127
2, 49770, Control_c, 0, 64, 0
2, 49776, Note_on_c, 0, 73, 62
2, 49791, Note_off_c, 0, 75, 64
2, 49801, Control_c, 0, 64, 127
2, 49814, Control_c, 0, 64, 0
2, 49843, Note_on_c, 0, 71, 64
2, 49846, Note_on_c, 0, 65, 25
2, 49851, Control_c, 0, 64, 127
2, 49856, Note_on_c, 0, 59, 54
2, 49865, Note_off_c, 0, 37, 64
2, 49870, Note_off_c, 0, 73, 64
2, 49870, Control_c, 0, 64, 0
2, 49916, Control_c, 0, 64, 127
2, 49928, Note_off_c, 0, 65, 64
2, 49938, Note_off_c, 0, 59, 64
2, 49972, Note_on_c, 0, 68, 70
2, 49974, Note_on_c, 0, 65, 40
2, 49974, Note_on_c, 0, 59, 48
2, 49995, Note_off_c, 0, 71, 64
2, 50056, Note_off_c, 0, 59, 64
2, 50056, Note_off_c, 0, 65, 64
2, 50096, Note_on_c, 0, 42, 73
2, 50099, Note_on_c, 0, 66, 58
2, 50105, Control_c, 0, 64, 0
2, 50112, Note_off_c, 0, 68, 64
2, 50117, Control_c, 0, 64, 127
2, 50147, Control_c, 0, 64, 0
2, 50161, Note_on_c, 0, 61, 69
2, 50162, Control_c, 0, 64, 127
2, 50184, Note_off_c, 0, 66, 64
2, 50210, Control_c, 0, 64, 0
2, 50212, Note_on_c, 0, 64, 25
2, 50218, Note_on_c, 0, 66, 82
2, 50218, Note_on_c, 0, 58, 58
2, 50218, Note_on_c, 0, 54, 50
2, 50230, Control_c, 0, 64, 0
2, 50237, Note_off_c, 0, 42, 64
2, 50238, Note_off_c, 0, 61, 64
2, 50240, Control_c, 0, 64, 127
2, 50267, Control_c, 0, 64, 127
2, 50294, Note_off_c, 0, 64, 64
2, 50300, Note_off_c, 0, 54, 64
2, 50300, Note_off_c, 0, 58, 64
2, 50383, Note_on_c, 0, 70, 62
2, 50383, Note_on_c, 0, 54, 19
2, 50388, Note_off_c, 0, 66, 64
2, 50390, Note_on_c, 0, 64, 42
2, 50465, Note_off_c, 0, 54, 64
2, 50472, Note_off_c, 0, 64, 64
2, 50521, Control_c, 0, 64, 0
2, 50528, Note_on_c, 0, 47, 58
2, 50531, Note_on_c, 0, 75, 69
2, 50533, Control_c, 0, 64, 127
2, 50534, Control_c, 0, 64, 0
2, 50546, Note_off_c, 0, 70, 64
2, 50564, Control_c, 0, 64, 127
2, 50587, Note_on_c, 0, 73, 63
2, 50609, Note_off_c, 0, 75, 64
2, 50626, Control_c, 0, 64, 0
2, 50642, Control_c, 0, 64, 0
2, 50649, Note_on_c, 0, 63, 58
2, 50649, Note_on_c, 0, 54, 54
2, 50655, Note_on_c, 0, 71, 66
2, 50656, Control_c, 0, 64, 127
2, 50662, Control_c, 0, 64, 127
2, 50669, Note_off_c, 0, 47, 64
2, 50683, Note_off_c, 0, 73, 64
2, 50731, Note_off_c, 0, 54, 64
2, 50731, Note_off_c, 0, 63, 64
2, 50784, Note_on_c, 0, 56, 42
2, 50785, Note_on_c, 0, 70, 63
2, 50788, Note_on_c, 0, 64, 48
2, 50788, Note_on_c, 0, 59, 48
2, 50802, Note_off_c, 0, 71, 64
2, 50849, Note_on_c, 0, 68, 56
2, 50861, Note_off_c, 0, 70, 64
2, 50866, Note_off_c, 0, 56, 64
2, 50870, Note_off_c, 0, 59, 64
2, 50870, Note_off_c, 0, 64, 64
2, 50902, Note_on_c, 0, 66, 77
2, 50906, Control_c, 0, 64, 0
2, 50912, Note_on_c, 0, 47, 73
2, 50913, Note_off_c, 0, 68, 64
2, 50924, Control_c, 0, 64, 127
2, 50950, Control_c, 0, 64, 0
2, 50964, Note_on_c, 0, 63, 70
2, 50980, Control_c, 0, 64, 127
2, 50985, Note_off_c, 0, 66, 64
2, 51009, Control_c, 0, 64, 0
2, 51016, Note_on_c, 0, 54, 65
2, 51019, Note_on_c, 0, 59, 46
2, 51024, Note_on_c, 0, 66, 73
2, 51041, Control_c, 0, 64, 127
2, 51046, Note_off_c, 0, 63, 64
2, 51053, Note_off_c, 0, 47, 64
2, 51058, Control_c, 0, 64, 0
2, 51078, Control_c, 0, 64, 127
2, 51098, Note_off_c, 0, 54, 64
2, 51101, Note_off_c, 0, 59, 64
2, 51148, Note_on_c, 0, 63, 42
2, 51152, Note_on_c, 0, 59, 43
2, 51152, Note_on_c, 0, 54, 43
2, 51154, Note_on_c, 0, 71, 67
2, 51174, Note_off_c, 0, 66, 64
2, 51230, Note_off_c, 0, 63, 64
2, 51234, Note_off_c, 0, 54, 64
2, 51234, Note_off_c, 0, 59, 64
2, 51265, Note_on_c, 0, 47, 73
2, 51271, Note_on_c, 0, 75, 62
2, 51286, Note_off_c, 0, 71, 64
2, 51322, Control_c, 0, 64, 0
2, 51332, Note_on_c, 0, 73, 73
2, 51340, Control_c, 0, 64, 127
2, 51356, Note_off_c, 0, 75, 64
2, 51380, Note_on_c, 0, 54, 51
2, 51384, Note_on_c, 0, 63, 51
2, 51386, Note_on_c, 0, 71, 73
2, 51393, Note_off_c, 0, 73, 64
2, 51406, Note_off_c, 0, 47, 64
2, 51425, Control_c, 0, 64, 0
2, 51425, Note_on_c, 0, 73, 77
2, 51439, Note_off_c, 0, 71, 64
2, 51457, Control_c, 0, 64, 127
2, 51462, Note_off_c, 0, 54, 64
2, 51463, Note_on_c, 0, 71, 71
2, 51466, Note_off_c, 0, 63, 64
2, 51476, Note_off_c, 0, 73, 64
2, 51515, Note_on_c, 0, 56, 48
2, 51516, Note_on_c, 0, 70, 78
2, 51516, Note_on_c, 0, 64, 44
2, 51534, Note_off_c, 0, 71, 64
2, 51560, Note_on_c, 0, 68, 67
2, 51569, Note_off_c, 0, 70, 64
2, 51597, Note_off_c, 0, 56, 64
2, 51598, Note_off_c, 0, 64, 64
2, 51624, Note_on_c, 0, 47, 62
2, 51631, Note_on_c, 0, 66, 77
2, 51637, Control_c, 0, 64, 0
2, 51643, Note_off_c, 0, 68, 64
2, 51681, Control_c, 0, 64, 127
2, 51690, Note_on_c, 0, 63, 59
2, 51702, Note_off_c, 0, 66, 64
2, 51728, Control_c, 0, 64, 0
2, 51744, Note_on_c, 0, 66, 74
2, 51751, Note_off_c, 0, 63, 64
2, 51752, Note_on_c, 0, 54, 49
2, 51765, Note_off_c, 0, 47, 64
2, 51767, Control_c, 0, 64, 127
2, 51768, Note_on_c, 0, 63, 35
2, 51834, Note_off_c, 0, 54, 64
2, 51850, Note_off_c, 0, 63, 64
2, 51866, Note_on_c, 0, 63, 49
2, 51869, Note_on_c, 0, 54, 45
2, 51876, Note_on_c, 0, 71, 69
2, 51897, Note_off_c, 0, 66, 64
2, 51948, Note_off_c, 0, 63, 64
2, 51951, Note_off_c, 0, 54, 64
2, 51980, Control_c, 0, 64, 0
2, 51991, Note_on_c, 0, 44, 78
2, 51993, Note_on_c, 0, 75, 73
2, 52008, Control_c, 0, 64, 127
2, 52013, Note_off_c, 0, 71, 64
2, 52052, Note_on_c, 0, 73, 69
2, 52053, Control_c, 0, 64, 0
2, 52066, Note_off_c, 0, 75, 64
2, 52097, Control_c, 0, 64, 127
2, 52111, Control_c, 0, 64, 0
2, 52116, Note_on_c, 0, 63, 39
2, 52116, Note_on_c, 0, 60, 39
2, 52118, Note_on_c, 0, 72, 69
2, 52120, Note_on_c, 0, 56, 58
2, 52120, Note_on_c, 0, 51, 54
2, 52128, Control_c, 0, 64, 127
2, 52132, Note_off_c, 0, 44, 64
2, 52140, Note_off_c, 0, 73, 64
2, 52144, Control_c, 0, 64, 0
2, 52183, Control_c, 0, 64, 127
2, 52198, Note_off_c, 0, 60, 64
2, 52198, Note_off_c, 0, 63, 64
2, 52202, Note_off_c, 0, 51, 64
2, 52202, Note_off_c, 0, 56, 64
2, 52235, Note_on_c, 0, 51, 62
2, 52236, Note_on_c, 0, 63, 58
2, 52236, Note_on_c, 0, 60, 54
2, 52236, Note_on_c, 0, 56, 46
2, 52239, Note_on_c, 0, 68, 83
2, 52244, Note_off_c, 0, 72, 64
2, 52244, Control_c, 0, 64, 127
2, 52317, Note_off_c, 0, 51, 64
2, 52318, Note_off_c, 0, 56, 64
2, 52318, Note_off_c, 0, 60, 64
2, 52318, Note_off_c, 0, 63, 64
2, 52361, Note_on_c, 0, 63, 69
2, 52370, Note_on_c, 0, 44, 77
2, 52374, Control_c, 0, 64, 0
2, 52376, Note_off_c, 0, 68, 64
2, 52396, Control_c, 0, 64, 0
2, 52399, Control_c, 0, 64, 127
2, 52424, Control_c, 0, 64, 127
2, 52429, Note_on_c, 0, 60, 69
2, 52449, Note_off_c, 0, 63, 64
2, 52486, Control_c, 0, 64, 0
2, 52492, Note_on_c, 0, 68, 80
2, 52492, Note_on_c, 0, 56, 47
2, 52492, Note_on_c, 0, 51, 58
2, 52498, Note_on_c, 0, 63, 62
2, 52507, Control_c, 0, 64, 127
2, 52511, Note_off_c, 0, 44, 64
2, 52524, Note_off_c, 0, 60, 64
2, 52527, Control_c, 0, 64, 0
2, 52544, Control_c, 0, 64, 127
2, 52574, Note_off_c, 0, 51, 64
2, 52574, Note_off_c, 0, 56, 64
2, 52580, Note_off_c, 0, 63, 64
2, 52636, Note_on_c, 0, 72, 71
2, 52640, Note_on_c, 0, 56, 47
2, 52641, Note_on_c, 0, 63, 54
2, 52645, Note_on_c, 0, 51, 47
2, 52660, Control_c, 0, 64, 127
2, 52661, Note_off_c, 0, 68, 64
2, 52722, Note_off_c, 0, 56, 64
2, 52723, Note_off_c, 0, 63, 64
2, 52727, Note_off_c, 0, 51, 64
2, 52786, Control_c, 0, 64, 0
2, 52790, Control_c, 0, 64, 0
2, 52794, Note_on_c, 0, 75, 69
2, 52799, Note_on_c, 0, 32, 67
2, 52802, Note_on_c, 0, 44, 71
2, 52812, Note_off_c, 0, 72, 64
2, 52815, Control_c, 0, 64, 127
2, 52828, Control_c, 0, 64, 127
2, 52877, Note_on_c, 0, 73, 58
2, 52897, Note_off_c, 0, 75, 64
2, 52902, Control_c, 0, 64, 0
2, 52923, Control_c, 0, 64, 127
2, 52960, Note_on_c, 0, 72, 74
2, 52966, Note_on_c, 0, 63, 64
2, 52968, Note_on_c, 0, 60, 55
2, 52968, Note_on_c, 0, 56, 46
2, 52968, Note_on_c, 0, 51, 46
2, 52973, Note_off_c, 0, 73, 64
2, 53048, Note_off_c, 0, 63, 64
2, 53050, Note_off_c, 0, 51, 64
2, 53050, Note_off_c, 0, 56, 64
2, 53050, Note_off_c, 0, 60, 64
2, 53078, Note_off_c, 0, 32, 64
2, 53081, Note_off_c, 0, 44, 64
2, 53133, Note_on_c, 0, 68, 52
2, 53136, Note_on_c, 0, 60, 72
2, 53202, Control_c, 0, 64, 0
2, 53215, Note_off_c, 0, 68, 64
2, 53218, Note_off_c, 0, 60, 64
2, 53237, Note_on_c, 0, 73, 70
2, 53244, Control_c, 0, 64, 127
2, 53248, Note_off_c, 0, 72, 64
2, 53368, Note_on_c, 0, 68, 55
2, 53374, Note_on_c, 0, 77, 67
2, 53375, Note_on_c, 0, 63, 54
2, 53379, Note_off_c, 0, 73, 64
2, 53379, Note_on_c, 0, 72, 50
2, 53394, Control_c, 0, 64, 0
2, 53437, Control_c, 0, 64, 127
2, 53549, Note_on_c, 0, 75, 62
2, 53571, Note_off_c, 0, 77, 64
2, 53630, Note_on_c, 0, 80, 62
2, 53638, Control_c, 0, 64, 0
2, 53644, Note_off_c, 0, 72, 64
2, 53644, Note_off_c, 0, 63, 64
2, 53644, Note_off_c, 0, 68, 64
2, 53655, Note_off_c, 0, 75, 64
2, 53687, Control_c, 0, 64, 127
2, 53810, Control_c, 0, 64, 0
2, 53853, Control_c, 0, 64, 127
2, 53929, Control_c, 0, 64, 0
2, 53967, Control_c, 0, 64, 127
2, 54054, Control_c, 0, 64, 0
2, 54085, Control_c, 0, 64, 0
2, 54103, Control_c, 0, 64, 127
2, 54137, Control_c, 0, 64, 127
2, 54217, Note_off_c, 0, 80, 64
2, 54304, Note_on_c, 0, 80, 51
2, 54345, Control_c, 0, 64, 0
2, 54383, Control_c, 0, 64, 127
2, 54402, Note_on_c, 0, 83, 51
2, 54426, Note_off_c, 0, 80, 64
2, 54487, Control_c, 0, 64, 0
2, 54494, Note_on_c, 0, 81, 49
2, 54501, Control_c, 0, 64, 0
2, 54504, Control_c, 0, 64, 127
2, 54505, Note_off_c, 0, 83, 64
2, 54553, Control_c, 0, 64, 127
2, 54568, Note_on_c, 0, 80, 36
2, 54584, Note_off_c, 0, 81, 64
2, 54658, Note_on_c, 0, 79, 49
2, 54676, Note_off_c, 0, 80, 64
2, 54694, Control_c, 0, 64, 0
2, 54734, Note_on_c, 0, 75, 39
2, 54742, Note_off_c, 0, 79, 64
2, 54753, Control_c, 0, 64, 127
2, 54766, Control_c, 0, 64, 0
2, 54802, Control_c, 0, 64, 127
2, 54842, Note_on_c, 0, 80, 49
2, 54858, Note_off_c, 0, 75, 64
2, 54903, Control_c, 0, 64, 0
2, 54920, Control_c, 0, 64, 127
2, 55067, Note_on_c, 0, 72, 47
2, 55070, Note_on_c, 0, 68, 47
2, 55106, Control_c, 0, 64, 0
2, 55110, Control_c, 0, 64, 0
2, 55152, Control_c, 0, 64, 127
2, 55166, Note_on_c, 0, 78, 46
2, 55169, Control_c, 0, 64, 127
2, 55170, Note_off_c, 0, 80, 64
2, 55182, Control_c, 0, 64, 0
2, 55218, Control_c, 0, 64, 127
2, 55272, Note_on_c, 0, 76, 43
2, 55273, Note_on_c, 0, 73, 43
2, 55288, Note_off_c, 0, 78, 64
2, 55303, Control_c, 0, 64, 0
2, 55308, Note_off_c, 0, 72, 64
2, 55337, Control_c, 0, 64, 127
2, 55437, Note_off_c, 0, 68, 64
2, 55490, Note_on_c, 0, 68, 58
2, 55513, Control_c, 0, 64, 0
2, 55522, Control_c, 0, 64, 0
2, 55524, Control_c, 0, 64, 127
2, 55568, Control_c, 0, 64, 127
2, 55575, Note_on_c, 0, 71, 62
2, 55588, Note_off_c, 0, 68, 64
2, 55649, Note_on_c, 0, 69, 50
2, 55676, Note_off_c, 0, 71, 64
2, 55719, Control_c, 0, 64, 0
2, 55726, Note_on_c, 0, 68, 47
2, 55739, Note_off_c, 0, 69, 64
2, 55753, Control_c, 0, 64, 127
2, 55789, Note_off_c, 0, 76, 64
2, 55800, Note_on_c, 0, 67, 39
2, 55806, Note_on_c, 0, 75, 56
2, 55810, Note_off_c, 0, 68, 64
2, 55823, Control_c, 0, 64, 0
2, 55855, Control_c, 0, 64, 127
2, 55862, Note_off_c, 0, 73, 64
2, 55884, Note_on_c, 0, 63, 62
2, 55899, Note_off_c, 0, 67, 64
2, 55929, Control_c, 0, 64, 0
2, 55940, Control_c, 0, 64, 127
2, 55967, Note_on_c, 0, 68, 64
2, 55975, Note_on_c, 0, 72, 54
2, 55990, Control_c, 0, 64, 0
2, 56005, Note_off_c, 0, 63, 64
2, 56013, Control_c, 0, 64, 127
2, 56146, Note_on_c, 0, 56, 49
2, 56202, Note_off_c, 0, 72, 64
2, 56239, Control_c, 0, 64, 0
2, 56254, Note_on_c, 0, 66, 59
2, 56268, Note_off_c, 0, 68, 64
2, 56271, Control_c, 0, 64, 127
2, 56370, Note_on_c, 0, 73, 42
2, 56373, Note_on_c, 0, 64, 37
2, 56376, Note_on_c, 0, 61, 25
2, 56384, Note_off_c, 0, 56, 64
2, 56385, Note_off_c, 0, 75, 64
2, 56390, Note_off_c, 0, 66, 64
2, 56406, Control_c, 0, 64, 0
2, 56425, Control_c, 0, 64, 0
2, 56429, Control_c, 0, 64, 127
2, 56481, Control_c, 0, 64, 127
2, 56573, Note_on_c, 0, 75, 52
2, 56612, Note_off_c, 0, 73, 64
2, 56641, Note_off_c, 0, 64, 64
2, 56655, Note_on_c, 0, 78, 52
2, 56662, Note_off_c, 0, 61, 64
2, 56673, Note_off_c, 0, 75, 64
2, 56737, Note_on_c, 0, 76, 57
2, 56753, Note_off_c, 0, 78, 64
2, 56819, Note_on_c, 0, 75, 57
2, 56831, Note_off_c, 0, 76, 64
2, 56841, Control_c, 0, 64, 0
2, 56890, Control_c, 0, 64, 0
2, 56897, Control_c, 0, 64, 127
2, 56903, Note_on_c, 0, 73, 58
2, 56919, Note_off_c, 0, 75, 64
2, 56949, Control_c, 0, 64, 127
2, 56972, Note_on_c, 0, 70, 58
2, 56996, Note_off_c, 0, 73, 64
2, 57057, Note_on_c, 0, 75, 54
2, 57079, Note_off_c, 0, 70, 64
2, 57230, Note_on_c, 0, 67, 32
2, 57232, Note_on_c, 0, 63, 49
2, 57253, Control_c, 0, 64, 0
2, 57299, Control_c, 0, 64, 127
2, 57306, Control_c, 0, 64, 0
2, 57308, Note_on_c, 0, 73, 48
2, 57323, Note_off_c, 0, 75, 64
2, 57365, Control_c, 0, 64, 127
2, 57398, Control_c, 0, 64, 0
2, 57406, Note_on_c, 0, 71, 56
2, 57406, Note_on_c, 0, 68, 57
2, 57416, Note_off_c, 0, 73, 64
2, 57419, Control_c, 0, 64, 127
2, 57420, Note_off_c, 0, 67, 64
2, 57547, Note_off_c, 0, 63, 64
2, 57585, Note_on_c, 0, 63, 56
2, 57660, Note_on_c, 0, 66, 67
2, 57669, Control_c, 0, 64, 0
2, 57681, Note_off_c, 0, 63, 64
2, 57715, Control_c, 0, 64, 127
2, 57735, Note_on_c, 0, 64, 42
2, 57750, Note_off_c, 0, 66, 64
2, 57814, Control_c, 0, 64, 0
2, 57814, Note_on_c, 0, 63, 62
2, 57822, Note_off_c, 0, 64, 64
2, 57835, Control_c, 0, 64, 127
2, 57885, Note_on_c, 0, 70, 48
2, 57894, Note_on_c, 0, 61, 48
2, 57904, Control_c, 0, 64, 0
2, 57910, Note_off_c, 0, 63, 64
2, 57912, Note_off_c, 0, 71, 64
2, 57946, Control_c, 0, 64, 127
2, 57973, Note_on_c, 0, 58, 58
2, 57980, Note_off_c, 0, 61, 64
2, 58055, Note_on_c, 0, 63, 67
2, 58056, Note_on_c, 0, 67, 47
2, 58069, Note_off_c, 0, 68, 64
2, 58074, Note_off_c, 0, 58, 64
2, 58205, Note_on_c, 0, 51, 50
2, 58262, Note_off_c, 0, 67, 64
2, 58303, Note_on_c, 0, 61, 67
2, 58306, Note_off_c, 0, 70, 64
2, 58307, Note_off_c, 0, 63, 64
2, 58320, Control_c, 0, 64, 0
2, 58362, Control_c, 0, 64, 127
2, 58416, Note_on_c, 0, 60, 57
2, 58418, Note_on_c, 0, 66, 46
2, 58420, Note_on_c, 0, 44, 49
2, 58423, Note_on_c, 0, 72, 63
2, 58424, Note_off_c, 0, 51, 64
2, 58434, Control_c, 0, 64, 0
2, 58435, Note_off_c, 0, 61, 64
2, 58504, Note_on_c, 0, 73, 54
2, 58523, Note_off_c, 0, 60, 64
2, 58525, Note_off_c, 0, 66, 64
2, 58530, Note_off_c, 0, 72, 64
2, 58553, Control_c, 0, 64, 127
2, 58578, Note_on_c, 0, 75, 57
2, 58602, Note_off_c, 0, 73, 64
2, 58645, Note_on_c, 0, 76, 71
2, 58660, Note_off_c, 0, 75, 64
2, 58697, Note_off_c, 0, 44, 64
2, 58712, Note_on_c, 0, 78, 63
2, 58728, Note_off_c, 0, 76, 64
2, 58767, Note_on_c, 0, 80, 62
2, 58795, Note_off_c, 0, 78, 64
2, 58827, Note_on_c, 0, 81, 64
2, 58850, Control_c, 0, 64, 0
2, 58858, Note_off_c, 0, 80, 64
2, 58868, Note_on_c, 0, 83, 66
2, 58882, Note_off_c, 0, 81, 64
2, 58919, Note_on_c, 0, 81, 62
2, 58932, Note_off_c, 0, 83, 64
2, 58951, Control_c, 0, 64, 0
2, 58962, Note_on_c, 0, 60, 55
2, 58966, Note_on_c, 0, 56, 48
2, 58969, Control_c, 0, 64, 127
2, 58971, Note_on_c, 0, 78, 62
2, 58974, Note_on_c, 0, 66, 48
2, 58996, Control_c, 0, 64, 127
2, 59002, Note_off_c, 0, 81, 64
2, 59026, Note_on_c, 0, 76, 57
2, 59044, Note_off_c, 0, 60, 64
2, 59048, Note_off_c, 0, 78, 64
2, 59048, Note_off_c, 0, 56, 64
2, 59056, Note_off_c, 0, 66, 64
2, 59098, Control_c, 0, 64, 0
2, 59100, Note_on_c, 0, 75, 64
2, 59107, Note_on_c, 0, 57, 44
2, 59108, Note_on_c, 0, 61, 47
2, 59110, Note_on_c, 0, 66, 51
2, 59115, Note_off_c, 0, 76, 64
2, 59132, Control_c, 0, 64, 127
2, 59166, Note_on_c, 0, 73, 54
2, 59180, Note_off_c, 0, 75, 64
2, 59189, Note_off_c, 0, 57, 64
2, 59190, Note_off_c, 0, 61, 64
2, 59192, Note_off_c, 0, 66, 64
2, 59240, Note_on_c, 0, 60, 39
2, 59243, Note_on_c, 0, 72, 47
2, 59243, Note_on_c, 0, 66, 39
2, 59243, Control_c, 0, 64, 0
2, 59244, Note_on_c, 0, 56, 39
2, 59252, Note_off_c, 0, 73, 64
2, 59267, Control_c, 0, 64, 127
2, 59311, Note_on_c, 0, 73, 52
2, 59322, Note_off_c, 0, 60, 64
2, 59325, Note_off_c, 0, 66, 64
2, 59326, Note_off_c, 0, 56, 64
2, 59340, Note_off_c, 0, 72, 64
2, 59367, Control_c, 0, 64, 0
2, 59369, Control_c, 0, 64, 0
2, 59373, Note_on_c, 0, 44, 70
2, 59377, Note_on_c, 0, 75, 66
2, 59386, Control_c, 0, 64, 127
2, 59394, Note_off_c, 0, 73, 64
2, 59412, Control_c, 0, 64, 127
2, 59430, Note_off_c, 0, 75, 64
2, 59439, Note_on_c, 0, 76, 60
2, 59496, Note_on_c, 0, 56, 54
2, 59500, Note_on_c, 0, 66, 65
2, 59502, Note_on_c, 0, 78, 67
2, 59502, Note_on_c, 0, 60, 52
2, 59502, Control_c, 0, 64, 0
2, 59514, Control_c, 0, 64, 0
2, 59530, Control_c, 0, 64, 127
2, 59544, Note_off_c, 0, 76, 64
2, 59548, Control_c, 0, 64, 127
2, 59575, Note_on_c, 0, 80, 58
2, 59578, Note_off_c, 0, 56, 64
2, 59582, Note_off_c, 0, 66, 64
2, 59584, Note_off_c, 0, 60, 64
2, 59592, Note_off_c, 0, 78, 64
2, 59636, Note_on_c, 0, 81, 59
2, 59644, Note_off_c, 0, 44, 64
2, 59659, Control_c, 0, 64, 0
2, 59665, Note_off_c, 0, 80, 64
2, 59683, Control_c, 0, 64, 127
2, 59685, Note_on_c, 0, 83, 64
2, 59696, Note_off_c, 0, 81, 64
2, 59723, Note_on_c, 0, 81, 65
2, 59738, Note_off_c, 0, 83, 64
2, 59764, Control_c, 0, 64, 0
2, 59770, Note_on_c, 0, 60, 59
2, 59773, Note_on_c, 0, 66, 58
2, 59773, Note_on_c, 0, 56, 55
2, 59779, Note_on_c, 0, 78, 70
2, 59785, Control_c, 0, 64, 0
2, 59794, Control_c, 0, 64, 127
2, 59800, Note_off_c, 0, 81, 64
2, 59802, Control_c, 0, 64, 127
2, 59842, Note_on_c, 0, 76, 64
2, 59848, Note_off_c, 0, 78, 64
2, 59852, Note_off_c, 0, 60, 64
2, 59855, Note_off_c, 0, 56, 64
2, 59855, Note_off_c, 0, 66, 64
2, 59885, Control_c, 0, 64, 0
2, 59898, Note_on_c, 0, 61, 49
2, 59901, Note_on_c, 0, 66, 55
2, 59902, Note_on_c, 0, 57, 47
2, 59907, Note_on_c, 0, 75, 71
2, 59914, Note_off_c, 0, 76, 64
2, 59918, Control_c, 0, 64, 0
2, 59921, Control_c, 0, 64, 127
2, 59946, Control_c, 0, 64, 127
2, 59962, Note_on_c, 0, 73, 58
2, 59973, Note_off_c, 0, 75, 64
2, 59980, Note_off_c, 0, 61, 64
2, 59983, Note_off_c, 0, 66, 64
2, 59984, Note_off_c, 0, 57, 64
2, 60031, Control_c, 0, 64, 0
2, 60038, Note_off_c, 0, 73, 64
2, 60038, Note_on_c, 0, 75, 62
2, 60044, Note_on_c, 0, 60, 28
2, 60048, Note_on_c, 0, 66, 37
2, 60051, Note_on_c, 0, 56, 46
2, 60065, Control_c, 0, 64, 127
2, 60104, Note_off_c, 0, 75, 64
2, 60110, Note_on_c, 0, 68, 73
2, 60126, Note_off_c, 0, 60, 64
2, 60130, Note_off_c, 0, 66, 64
2, 60133, Note_off_c, 0, 56, 64
2, 60172, Control_c, 0, 64, 0
2, 60179, Note_on_c, 0, 44, 67
2, 60180, Control_c, 0, 64, 0
2, 60182, Note_on_c, 0, 80, 77
2, 60201, Control_c, 0, 64, 127
2, 60210, Control_c, 0, 64, 127
2, 60238, Note_off_c, 0, 68, 64
2, 60301, Control_c, 0, 64, 0
2, 60318, Control_c, 0, 64, 0
2, 60328, Note_on_c, 0, 60, 58
2, 60328, Note_on_c, 0, 51, 31
2, 60330, Control_c, 0, 64, 127
2, 60337, Control_c, 0, 64, 127
2, 60403, Note_on_c, 0, 75, 62
2, 60408, Note_off_c, 0, 80, 64
2, 60410, Note_off_c, 0, 51, 64
2, 60410, Note_off_c, 0, 60, 64
2, 60447, Control_c, 0, 64, 0
2, 60453, Control_c, 0, 64, 0
2, 60460, Note_on_c, 0, 56, 47
2, 60461, Note_on_c, 0, 66, 56
2, 60467, Note_on_c, 0, 80, 82
2, 60472, Control_c, 0, 64, 127
2, 60478, Note_off_c, 0, 75, 64
2, 60481, Control_c, 0, 64, 127
2, 60542, Note_off_c, 0, 56, 64
2, 60543, Note_off_c, 0, 66, 64
2, 60544, Note_off_c, 0, 80, 64
2, 60544, Note_on_c, 0, 75, 65
2, 60547, Note_off_c, 0, 44, 64
2, 60588, Control_c, 0, 64, 0
2, 60603, Note_on_c, 0, 51, 58
2, 60607, Note_on_c, 0, 80, 73
2, 60607, Note_on_c, 0, 60, 63
2, 60617, Control_c, 0, 64, 127
2, 60618, Note_off_c, 0, 75, 64
2, 60685, Note_off_c, 0, 51, 64
2, 60689, Note_off_c, 0, 60, 64
2, 60729, Note_on_c, 0, 44, 71
2, 60734, Control_c, 0, 64, 0
2, 60746, Control_c, 0, 64, 127
2, 60800, Note_on_c, 0, 68, 73
2, 60802, Note_off_c, 0, 80, 64
2, 60869, Control_c, 0, 64, 0
2, 60877, Control_c, 0, 64, 0
2, 60883, Note_on_c, 0, 32, 79
2, 60888, Control_c, 0, 64, 127
2, 60890, Note_on_c, 0, 75, 67
2, 60906, Note_off_c, 0, 68, 64
2, 60916, Control_c, 0, 64, 127
2, 60971, Note_on_c, 0, 68, 78
2, 60986, Note_off_c, 0, 75, 64
2, 61027, Note_off_c, 0, 44, 64
2, 61050, Note_on_c, 0, 80, 69
2, 61050, Note_on_c, 0, 66, 51
2, 61050, Note_on_c, 0, 56, 46
2, 61056, Note_on_c, 0, 60, 58
2, 61065, Control_c, 0, 64, 0
2, 61078, Control_c, 0, 64, 127
2, 61126, Note_off_c, 0, 68, 64
2, 61132, Note_off_c, 0, 56, 64
2, 61132, Note_off_c, 0, 66, 64
2, 61138, Note_off_c, 0, 60, 64
2, 61162, Note_off_c, 0, 32, 64
2, 61282, Note_on_c, 0, 68, 57
2, 61293, Control_c, 0, 64, 0
2, 61307, Note_off_c, 0, 80, 64
2, 61332, Control_c, 0, 64, 127
2, 61360, Control_c, 0, 64, 0
2, 61373, Note_on_c, 0, 37, 64
2, 61380, Note_on_c, 0, 75, 69
2, 61396, Note_off_c, 0, 68, 64
2, 61398, Control_c, 0, 64, 127
2, 61466, Note_on_c, 0, 76, 62
2, 61481, Control_c, 0, 64, 0
2, 61483, Note_off_c, 0, 75, 64
2, 61494, Control_c, 0, 64, 127
2, 61590, Control_c, 0, 64, 0
2, 61592, Note_on_c, 0, 73, 62
2, 61596, Note_on_c, 0, 56, 39
2, 61597, Note_on_c, 0, 64, 46
2, 61597, Note_on_c, 0, 49, 50
2, 61606, Note_off_c, 0, 76, 64
2, 61623, Control_c, 0, 64, 127
2, 61776, Control_c, 0, 64, 0
2, 61814, Control_c, 0, 64, 127
2, 61938, Note_off_c, 0, 73, 64
2, 61942, Note_off_c, 0, 56, 64
2, 61943, Note_off_c, 0, 49, 64
2, 61943, Note_off_c, 0, 64, 64
2, 61967, Note_off_c, 0, 37, 64
2, 61984, Note_on_c, 0, 45, 94
2, 61992, Note_on_c, 0, 33, 94
2, 61998, Note_on_c, 0, 57, 83
2, 62006, Control_c, 0, 64, 0
2, 62008, Control_c, 0, 64, 0
2, 62039, Control_c, 0, 64, 127
2, 62041, Control_c, 0, 64, 127
2, 62206, Note_on_c, 0, 64, 64
2, 62206, Note_on_c, 0, 61, 71
2, 62209, Note_off_c, 0, 57, 64
2, 62210, Note_on_c, 0, 73, 74
2, 62211, Note_on_c, 0, 69, 71
2, 62211, Note_on_c, 0, 57, 58
2, 62218, Note_on_c, 0, 52, 56
2, 62230, Control_c, 0, 64, 0
2, 62257, Control_c, 0, 64, 127
2, 62372, Note_off_c, 0, 61, 64
2, 62372, Note_off_c, 0, 64, 64
2, 62376, Note_off_c, 0, 73, 64
2, 62377, Note_off_c, 0, 57, 64
2, 62377, Note_off_c, 0, 69, 64
2, 62384, Note_off_c, 0, 52, 64
2, 62424, Control_c, 0, 64, 0
2, 62424, Note_on_c, 0, 64, 58
2, 62424, Note_on_c, 0, 61, 83
2, 62424, Note_on_c, 0, 57, 62
2, 62424, Note_on_c, 0, 52, 62
2, 62450, Note_off_c, 0, 52, 64
2, 62457, Note_off_c, 0, 64, 64
2, 62457, Control_c, 0, 64, 127
2, 62463, Note_off_c, 0, 57, 64
2, 62463, Note_off_c, 0, 61, 64
2, 62499, Note_on_c, 0, 64, 73
2, 62500, Note_on_c, 0, 69, 69
2, 62502, Note_on_c, 0, 73, 74
2, 62503, Note_on_c, 0, 57, 73
2, 62508, Note_on_c, 0, 52, 70
2, 62509, Note_off_c, 0, 45, 64
2, 62517, Note_off_c, 0, 33, 64
2, 62588, Note_off_c, 0, 64, 64
2, 62589, Note_off_c, 0, 69, 64
2, 62591, Note_off_c, 0, 73, 64
2, 62592, Note_off_c, 0, 57, 64
2, 62597, Note_off_c, 0, 52, 64
2, 62598, Note_on_c, 0, 69, 69
2, 62601, Note_on_c, 0, 73, 69
2, 62608, Note_on_c, 0, 64, 71
2, 62608, Note_on_c, 0, 57, 78
2, 62608, Note_on_c, 0, 52, 73
2, 62628, Note_off_c, 0, 52, 64
2, 62636, Note_off_c, 0, 57, 64
2, 62637, Note_off_c, 0, 64, 64
2, 62638, Note_off_c, 0, 69, 64
2, 62641, Control_c, 0, 64, 0
2, 62646, Control_c, 0, 64, 0
2, 62647, Note_off_c, 0, 73, 64
2, 62653, Note_on_c, 0, 64, 64
2, 62653, Note_on_c, 0, 61, 86
2, 62657, Note_on_c, 0, 57, 71
2, 62657, Note_on_c, 0, 52, 69
2, 62667, Control_c, 0, 64, 127
2, 62673, Control_c, 0, 64, 127
2, 62774, Note_off_c, 0, 61, 64
2, 62774, Note_off_c, 0, 64, 64
2, 62778, Note_off_c, 0, 52, 64
2, 62778, Note_off_c, 0, 57, 64
2, 62796, Note_on_c, 0, 61, 83
2, 62797, Note_on_c, 0, 64, 69
2, 62797, Note_on_c, 0, 57, 67
2, 62798, Note_on_c, 0, 73, 69
2, 62800, Note_on_c, 0, 69, 66
2, 62807, Note_on_c, 0, 52, 60
2, 62937, Note_off_c, 0, 61, 64
2, 62938, Note_off_c, 0, 57, 64
2, 62938, Note_off_c, 0, 64, 64
2, 62939, Note_off_c, 0, 73, 64
2, 62941, Note_off_c, 0, 69, 64
2, 62948, Note_off_c, 0, 52, 64
2, 62984, Note_on_c, 0, 57, 65
2, 62984, Note_on_c, 0, 33, 77
2, 62988, Note_on_c, 0, 45, 77
2, 63057, Control_c, 0, 64, 0
2, 63068, Note_on_c, 0, 69, 67
2, 63069, Note_on_c, 0, 73, 77
2, 63083, Control_c, 0, 64, 127
2, 63096, Note_off_c, 0, 57, 64
2, 63115, Note_off_c, 0, 69, 64
2, 63126, Note_off_c, 0, 73, 64
2, 63140, Note_on_c, 0, 73, 78
2, 63140, Note_on_c, 0, 57, 63
2, 63143, Note_on_c, 0, 69, 67
2, 63144, Note_on_c, 0, 64, 73
2, 63144, Note_on_c, 0, 52, 66
2, 63185, Note_on_c, 0, 75, 74
2, 63202, Note_off_c, 0, 69, 64
2, 63207, Note_off_c, 0, 73, 64
2, 63231, Note_on_c, 0, 73, 69
2, 63250, Note_off_c, 0, 75, 64
2, 63280, Note_off_c, 0, 33, 64
2, 63284, Note_off_c, 0, 45, 64
2, 63292, Note_on_c, 0, 68, 80
2, 63295, Note_on_c, 0, 71, 78
2, 63301, Note_off_c, 0, 57, 64
2, 63305, Note_off_c, 0, 52, 64
2, 63305, Note_off_c, 0, 64, 64
2, 63314, Note_off_c, 0, 73, 64
2, 63376, Note_on_c, 0, 66, 64
2, 63377, Note_on_c, 0, 69, 80
2, 63386, Note_off_c, 0, 68, 64
2, 63389, Note_off_c, 0, 71, 64
2, 63444, Note_on_c, 0, 68, 67
2, 63445, Note_on_c, 0, 71, 69
2, 63449, Control_c, 0, 64, 0
2, 63454, Note_on_c, 0, 40, 70
2, 63470, Note_off_c, 0, 66, 64
2, 63471, Note_off_c, 0, 69, 64
2, 63482, Control_c, 0, 64, 127
2, 63546, Note_off_c, 0, 68, 64
2, 63547, Note_off_c, 0, 71, 64
2, 63566, Note_on_c, 0, 68, 66
2, 63568, Note_on_c, 0, 71, 59
2, 63593, Control_c, 0, 64, 0
2, 63598, Note_on_c, 0, 52, 44
2, 63600, Note_off_c, 0, 68, 64
2, 63600, Note_on_c, 0, 64, 73
2, 63603, Note_on_c, 0, 59, 42
2, 63605, Note_on_c, 0, 68, 73
2, 63619, Note_off_c, 0, 71, 64
2, 63628, Control_c, 0, 64, 127
2, 63709, Note_off_c, 0, 52, 64
2, 63711, Note_off_c, 0, 64, 64
2, 63714, Note_off_c, 0, 59, 64
2, 63716, Note_off_c, 0, 68, 64
2, 63730, Note_off_c, 0, 40, 64
2, 63754, Note_on_c, 0, 68, 71
2, 63761, Note_on_c, 0, 64, 73
2, 63763, Note_on_c, 0, 76, 73
2, 63763, Note_on_c, 0, 59, 50
2, 63763, Note_on_c, 0, 52, 63
2, 63865, Control_c, 0, 64, 0
2, 63868, Note_off_c, 0, 68, 64
2, 63875, Note_off_c, 0, 64, 64
2, 63877, Note_off_c, 0, 52, 64
2, 63877, Note_off_c, 0, 59, 64
2, 63877, Note_off_c, 0, 76, 64
2, 63898, Control_c, 0, 64, 127
2, 63928, Note_on_c, 0, 42, 92
2, 63935, Note_on_c, 0, 57, 88
2, 63937, Note_on_c, 0, 30, 79
2, 63946, Control_c, 0, 64, 0
2, 63990, Control_c, 0, 64, 127
2, 64009, Control_c, 0, 64, 0
2, 64044, Control_c, 0, 64, 127
2, 64094, Note_off_c, 0, 57, 64
2, 64103, Note_on_c, 0, 66, 69
2, 64103, Note_on_c, 0, 49, 49
2, 64104, Note_on_c, 0, 57, 69
2, 64104, Note_on_c, 0, 54, 58
2, 64107, Note_on_c, 0, 69, 73
2, 64107, Note_on_c, 0, 61, 73
2, 64120, Control_c, 0, 64, 0
2, 64152, Control_c, 0, 64, 127
2, 64292, Note_off_c, 0, 49, 64
2, 64292, Note_off_c, 0, 66, 64
2, 64293, Note_off_c, 0, 54, 64
2, 64293, Note_off_c, 0, 57, 64
2, 64296, Note_off_c, 0, 61, 64
2, 64296, Note_off_c, 0, 69, 64
2, 64328, Note_on_c, 0, 57, 69
2, 64328, Note_on_c, 0, 54, 58
2, 64328, Note_on_c, 0, 49, 63
2, 64329, Note_on_c, 0, 61, 70
2, 64344, Control_c, 0, 64, 127
2, 64360, Note_off_c, 0, 61, 64
2, 64362, Control_c, 0, 64, 0
2, 64366, Note_off_c, 0, 49, 64
2, 64366, Note_off_c, 0, 54, 64
2, 64374, Note_off_c, 0, 57, 64
2, 64394, Note_on_c, 0, 66, 74
2, 64396, Note_on_c, 0, 61, 69
2, 64396, Note_on_c, 0, 54, 56
2, 64396, Note_on_c, 0, 49, 48
2, 64398, Note_on_c, 0, 69, 67
2, 64406, Control_c, 0, 64, 127
2, 64483, Note_off_c, 0, 66, 64
2, 64483, Note_off_c, 0, 42, 64
2, 64485, Note_off_c, 0, 49, 64
2, 64485, Note_off_c, 0, 54, 64
2, 64485, Note_off_c, 0, 61, 64
2, 64485, Note_off_c, 0, 30, 64
2, 64487, Note_off_c, 0, 69, 64
2, 64496, Note_on_c, 0, 69, 65
2, 64496, Note_on_c, 0, 66, 80
2, 64497, Note_on_c, 0, 54, 74
2, 64501, Note_on_c, 0, 61, 71
2, 64501, Note_on_c, 0, 49, 63
2, 64522, Note_off_c, 0, 54, 64
2, 64525, Note_off_c, 0, 49, 64
2, 64526, Note_off_c, 0, 61, 64
2, 64535, Note_off_c, 0, 69, 64
2, 64536, Control_c, 0, 64, 0
2, 64536, Note_on_c, 0, 61, 73
2, 64541, Note_off_c, 0, 66, 64
2, 64542, Note_on_c, 0, 57, 73
2, 64544, Note_on_c, 0, 54, 73
2, 64548, Note_on_c, 0, 49, 70
2, 64549, Control_c, 0, 64, 0
2, 64568, Control_c, 0, 64, 127
2, 64570, Control_c, 0, 64, 127
2, 64681, Note_off_c, 0, 61, 64
2, 64687, Note_off_c, 0, 57, 64
2, 64688, Note_on_c, 0, 57, 58
2, 64689, Note_off_c, 0, 54, 64
2, 64693, Note_off_c, 0, 49, 64
2, 64694, Note_on_c, 0, 69, 73
2, 64694, Note_on_c, 0, 66, 64
2, 64694, Note_on_c, 0, 61, 3
2, 64694, Note_on_c, 0, 54, 67
2, 64696, Control_c, 0, 64, 0
2, 64704, Note_on_c, 0, 49, 73
2, 64704, Control_c, 0, 64, 127
2, 64716, Control_c, 0, 64, 127
2, 64760, Control_c, 0, 64, 127
2, 64802, Note_off_c, 0, 57, 64
2, 64827, Note_off_c, 0, 54, 64
2, 64827, Note_off_c, 0, 61, 64
2, 64827, Note_off_c, 0, 66, 64
2, 64830, Note_on_c, 0, 57, 74
2, 64830, Note_on_c, 0, 42, 69
2, 64837, Note_off_c, 0, 49, 64
2, 64837, Note_off_c, 0, 69, 64
2, 64837, Note_on_c, 0, 30, 73
2, 64920, Note_on_c, 0, 69, 73
2, 64920, Note_on_c, 0, 66, 80
2, 64965, Control_c, 0, 64, 0
2, 64986, Note_off_c, 0, 66, 64
2, 64986, Control_c, 0, 64, 127
2, 64998, Note_off_c, 0, 69, 64
2, 65004, Note_on_c, 0, 66, 77
2, 65008, Note_on_c, 0, 69, 80
2, 65008, Note_on_c, 0, 61, 59
2, 65008, Note_on_c, 0, 54, 52
2, 65008, Note_on_c, 0, 49, 49
2, 65019, Note_off_c, 0, 57, 64
2, 65060, Note_on_c, 0, 71, 83
2, 65071, Note_off_c, 0, 66, 64
2, 65075, Note_off_c, 0, 69, 64
2, 65112, Control_c, 0, 64, 0
2, 65112, Note_on_c, 0, 69, 69
2, 65120, Control_c, 0, 64, 127
2, 65130, Note_off_c, 0, 71, 64
2, 65132, Control_c, 0, 64, 127
2, 65140, Note_off_c, 0, 42, 64
2, 65148, Note_off_c, 0, 30, 64
2, 65164, Note_on_c, 0, 68, 85
2, 65168, Note_on_c, 0, 64, 55
2, 65172, Note_off_c, 0, 69, 64
2, 65184, Note_off_c, 0, 49, 64
2, 65184, Note_off_c, 0, 54, 64
2, 65184, Note_off_c, 0, 61, 64
2, 65244, Note_on_c, 0, 66, 85
2, 65244, Note_on_c, 0, 63, 78
2, 65250, Note_off_c, 0, 64, 64
2, 65252, Note_off_c, 0, 68, 64
2, 65312, Note_on_c, 0, 68, 64
2, 65315, Note_off_c, 0, 66, 64
2, 65316, Note_on_c, 0, 64, 74
2, 65316, Note_on_c, 0, 37, 73
2, 65322, Note_off_c, 0, 63, 64
2, 65332, Control_c, 0, 64, 0
2, 65355, Control_c, 0, 64, 127
2, 65420, Note_off_c, 0, 68, 64
2, 65424, Note_off_c, 0, 64, 64
2, 65428, Note_on_c, 0, 64, 69
2, 65433, Note_on_c, 0, 68, 64
2, 65458, Note_off_c, 0, 64, 64
2, 65459, Control_c, 0, 64, 0
2, 65465, Note_on_c, 0, 64, 78
2, 65466, Note_on_c, 0, 56, 55
2, 65468, Note_on_c, 0, 61, 78
2, 65469, Note_on_c, 0, 49, 51
2, 65480, Note_off_c, 0, 68, 64
2, 65500, Control_c, 0, 64, 127
2, 65579, Note_off_c, 0, 64, 64
2, 65580, Note_off_c, 0, 56, 64
2, 65582, Note_off_c, 0, 61, 64
2, 65583, Note_off_c, 0, 49, 64
2, 65591, Note_off_c, 0, 37, 64
2, 65634, Note_on_c, 0, 73, 73
2, 65634, Note_on_c, 0, 61, 64
2, 65644, Note_on_c, 0, 49, 55
2, 65655, Control_c, 0, 64, 0
2, 65670, Control_c, 0, 64, 127
2, 65748, Control_c, 0, 64, 0
2, 65771, Control_c, 0, 64, 127
2, 65786, Note_off_c, 0, 49, 64
2, 65788, Note_on_c, 0, 72, 59
2, 65788, Note_on_c, 0, 39, 63
2, 65791, Note_off_c, 0, 61, 64
2, 65793, Note_on_c, 0, 61, 57
2, 65798, Note_on_c, 0, 67, 50
2, 65809, Control_c, 0, 64, 0
2, 65811, Note_off_c, 0, 73, 64
2, 65833, Control_c, 0, 64, 127
2, 65872, Note_on_c, 0, 51, 62
2, 65875, Control_c, 0, 64, 0
2, 65900, Note_off_c, 0, 39, 64
2, 65916, Control_c, 0, 64, 127
2, 65941, Note_on_c, 0, 53, 58
2, 65957, Note_off_c, 0, 51, 64
2, 66009, Note_on_c, 0, 55, 62
2, 66020, Note_off_c, 0, 53, 64
2, 66067, Control_c, 0, 64, 0
2, 66071, Control_c, 0, 64, 0
2, 66076, Note_on_c, 0, 70, 63
2, 66078, Note_on_c, 0, 56, 64
2, 66084, Note_off_c, 0, 72, 64
2, 66086, Control_c, 0, 64, 127
2, 66097, Note_off_c, 0, 55, 64
2, 66137, Note_on_c, 0, 58, 63
2, 66141, Control_c, 0, 64, 127
2, 66150, Note_off_c, 0, 61, 64
2, 66152, Note_off_c, 0, 56, 64
2, 66155, Note_off_c, 0, 67, 64
2, 66218, Note_on_c, 0, 60, 62
2, 66220, Note_on_c, 0, 63, 62
2, 66225, Control_c, 0, 64, 0
2, 66233, Note_off_c, 0, 58, 64
2, 66249, Control_c, 0, 64, 127
2, 66260, Note_off_c, 0, 70, 64
2, 66294, Note_on_c, 0, 56, 55
2, 66298, Control_c, 0, 64, 0
2, 66318, Note_off_c, 0, 60, 64
2, 66333, Control_c, 0, 64, 127
2, 66372, Note_on_c, 0, 51, 64
2, 66394, Note_off_c, 0, 56, 64
2, 66412, Note_off_c, 0, 63, 64
2, 66461, Note_on_c, 0, 65, 67
2, 66483, Control_c, 0, 64, 0
2, 66488, Note_off_c, 0, 51, 64
2, 66540, Note_on_c, 0, 63, 54
2, 66544, Note_on_c, 0, 68, 58
2, 66546, Note_on_c, 0, 72, 58
2, 66557, Control_c, 0, 64, 127
2, 66562, Control_c, 0, 64, 0
2, 66564, Note_off_c, 0, 65, 64
2, 66575, Control_c, 0, 64, 127
2, 66708, Note_off_c, 0, 72, 64
2, 66714, Control_c, 0, 64, 0
2, 66717, Note_off_c, 0, 63, 64
2, 66722, Note_off_c, 0, 68, 64
2, 66724, Note_on_c, 0, 72, 57
2, 66726, Note_on_c, 0, 39, 58
2, 66728, Note_on_c, 0, 67, 57
2, 66729, Note_on_c, 0, 75, 51
2, 66732, Note_on_c, 0, 61, 57
2, 66737, Control_c, 0, 64, 0
2, 66741, Control_c, 0, 64, 127
2, 66745, Control_c, 0, 64, 127
2, 66749, Control_c, 0, 64, 127
2, 66765, Control_c, 0, 64, 127
2, 66811, Note_on_c, 0, 51, 54
2, 66816, Note_off_c, 0, 39, 64
2, 66870, Note_on_c, 0, 53, 57
2, 66883, Note_off_c, 0, 51, 64
2, 66907, Note_off_c, 0, 72, 64
2, 66917, Note_off_c, 0, 75, 64
2, 66940, Note_on_c, 0, 55, 58
2, 66950, Note_off_c, 0, 53, 64
2, 66978, Control_c, 0, 64, 0
2, 66991, Control_c, 0, 64, 127
2, 67008, Note_on_c, 0, 56, 65
2, 67012, Note_on_c, 0, 73, 58
2, 67015, Note_on_c, 0, 70, 49
2, 67023, Note_off_c, 0, 55, 64
2, 67027, Control_c, 0, 64, 0
2, 67053, Control_c, 0, 64, 127
2, 67082, Note_on_c, 0, 58, 62
2, 67099, Note_off_c, 0, 56, 64
2, 67153, Control_c, 0, 64, 0
2, 67157, Control_c, 0, 64, 127
2, 67161, Note_on_c, 0, 72, 49
2, 67161, Note_on_c, 0, 60, 64
2, 67161, Control_c, 0, 64, 127
2, 67162, Note_off_c, 0, 58, 64
2, 67164, Note_on_c, 0, 68, 62
2, 67164, Note_on_c, 0, 63, 62
2, 67170, Note_off_c, 0, 73, 64
2, 67170, Control_c, 0, 64, 0
2, 67173, Note_off_c, 0, 70, 64
2, 67173, Note_off_c, 0, 67, 64
2, 67177, Note_off_c, 0, 61, 64
2, 67181, Control_c, 0, 64, 127
2, 67190, Control_c, 0, 64, 0
2, 67231, Control_c, 0, 64, 127
2, 67238, Note_on_c, 0, 56, 52
2, 67270, Note_off_c, 0, 60, 64
2, 67324, Note_on_c, 0, 51, 58
2, 67342, Note_off_c, 0, 56, 64
2, 67389, Note_on_c, 0, 55, 57
2, 67411, Note_off_c, 0, 51, 64
2, 67416, Note_on_c, 0, 53, 56
2, 67434, Note_off_c, 0, 72, 64
2, 67437, Note_off_c, 0, 63, 64
2, 67437, Note_off_c, 0, 68, 64
2, 67443, Control_c, 0, 64, 0
2, 67460, Note_off_c, 0, 55, 64
2, 67469, Control_c, 0, 64, 127
2, 67475, Note_on_c, 0, 73, 58
2, 67482, Note_on_c, 0, 68, 62
2, 67482, Note_on_c, 0, 65, 56
2, 67493, Control_c, 0, 64, 0
2, 67504, Note_on_c, 0, 51, 54
2, 67520, Note_off_c, 0, 53, 64
2, 67532, Control_c, 0, 64, 127
2, 67586, Control_c, 0, 64, 0
2, 67606, Control_c, 0, 64, 0
2, 67647, Control_c, 0, 64, 127
2, 67658, Note_off_c, 0, 73, 64
2, 67664, Note_on_c, 0, 63, 58
2, 67665, Note_off_c, 0, 65, 64
2, 67665, Note_off_c, 0, 68, 64
2, 67665, Note_on_c, 0, 67, 57
2, 67665, Note_on_c, 0, 39, 54
2, 67668, Note_on_c, 0, 72, 56
2, 67676, Note_off_c, 0, 51, 64
2, 67680, Control_c, 0, 64, 0
2, 67713, Control_c, 0, 64, 127
2, 67755, Note_on_c, 0, 51, 55
2, 67781, Note_off_c, 0, 39, 64
2, 67815, Note_on_c, 0, 53, 52
2, 67829, Note_off_c, 0, 51, 64
2, 67884, Note_on_c, 0, 55, 62
2, 67904, Note_off_c, 0, 53, 64
2, 67909, Control_c, 0, 64, 0
2, 67926, Note_off_c, 0, 63, 64
2, 67927, Note_off_c, 0, 67, 64
2, 67930, Note_off_c, 0, 72, 64
2, 67948, Control_c, 0, 64, 127
2, 67948, Note_on_c, 0, 65, 57
2, 67951, Note_on_c, 0, 70, 51
2, 67951, Note_on_c, 0, 61, 51
2, 67961, Note_on_c, 0, 56, 64
2, 67970, Control_c, 0, 64, 0
2, 67976, Note_off_c, 0, 55, 64
2, 68028, Control_c, 0, 64, 127
2, 68032, Note_on_c, 0, 58, 58
2, 68044, Note_off_c, 0, 56, 64
2, 68096, Control_c, 0, 64, 0
2, 68112, Note_on_c, 0, 63, 62
2, 68114, Note_on_c, 0, 60, 62
2, 68129, Control_c, 0, 64, 127
2, 68132, Note_off_c, 0, 58, 64
2, 68138, Note_off_c, 0, 65, 64
2, 68141, Note_off_c, 0, 61, 64
2, 68141, Note_off_c, 0, 70, 64
2, 68172, Control_c, 0, 64, 0
2, 68188, Note_on_c, 0, 56, 51
2, 68196, Control_c, 0, 64, 127
2, 68204, Note_off_c, 0, 63, 64
2, 68216, Note_off_c, 0, 60, 64
2, 68267, Note_on_c, 0, 51, 64
2, 68284, Note_off_c, 0, 56, 64
2, 68355, Note_on_c, 0, 63, 58
2, 68386, Control_c, 0, 64, 0
2, 68387, Note_off_c, 0, 51, 64
2, 68444, Control_c, 0, 64, 127
2, 68444, Note_on_c, 0, 75, 51
2, 68449, Note_on_c, 0, 72, 58
2, 68451, Note_on_c, 0, 68, 63
2, 68462, Control_c, 0, 64, 0
2, 68478, Note_off_c, 0, 63, 64
2, 68535, Control_c, 0, 64, 127
2, 68588, Control_c, 0, 64, 0
2, 68612, Control_c, 0, 64, 127
2, 68633, Note_on_c, 0, 73, 58
2, 68650, Note_off_c, 0, 72, 64
2, 68715, Note_on_c, 0, 67, 54
2, 68735, Note_off_c, 0, 68, 64
2, 68800, Note_on_c, 0, 51, 62
2, 68834, Note_off_c, 0, 67, 64
2, 68843, Note_off_c, 0, 73, 64
2, 68848, Note_off_c, 0, 75, 64
2, 68867, Note_on_c, 0, 65, 62
2, 68878, Control_c, 0, 64, 0
2, 68901, Note_off_c, 0, 51, 64
2, 68926, Control_c, 0, 64, 0
2, 68951, Control_c, 0, 64, 127
2, 68958, Control_c, 0, 64, 127
2, 68964, Note_on_c, 0, 75, 51
2, 68964, Note_on_c, 0, 67, 56
2, 68964, Note_on_c, 0, 63, 62
2, 68984, Note_off_c, 0, 65, 64
2, 69151, Note_on_c, 0, 68, 58
2, 69155, Note_off_c, 0, 67, 64
2, 69161, Note_on_c, 0, 61, 46
2, 69170, Control_c, 0, 64, 0
2, 69182, Note_off_c, 0, 63, 64
2, 69207, Control_c, 0, 64, 127
2, 69246, Note_on_c, 0, 60, 56
2, 69252, Note_off_c, 0, 61, 64
2, 69334, Note_on_c, 0, 44, 62
2, 69342, Control_c, 0, 64, 0
2, 69353, Note_off_c, 0, 60, 64
2, 69368, Note_off_c, 0, 68, 64
2, 69374, Control_c, 0, 64, 127
2, 69376, Note_off_c, 0, 75, 64
2, 69433, Note_on_c, 0, 58, 64
2, 69466, Note_off_c, 0, 44, 64
2, 69546, Note_on_c, 0, 63, 40
2, 69547, Note_on_c, 0, 72, 49
2, 69549, Note_on_c, 0, 75, 49
2, 69554, Note_on_c, 0, 56, 42
2, 69563, Control_c, 0, 64, 0
2, 69572, Note_off_c, 0, 58, 64
2, 69586, Control_c, 0, 64, 0
2, 69623, Control_c, 0, 64, 127
2, 69638, Control_c, 0, 64, 127
2, 69799, Note_on_c, 0, 76, 46
2, 69799, Note_on_c, 0, 73, 37
2, 69804, Note_off_c, 0, 72, 64
2, 69805, Note_on_c, 0, 64, 49
2, 69806, Note_off_c, 0, 75, 64
2, 69811, Note_off_c, 0, 63, 64
2, 69822, Control_c, 0, 64, 0
2, 69874, Control_c, 0, 64, 127
2, 69979, Control_c, 0, 64, 0
2, 70002, Note_off_c, 0, 56, 64
2, 70025, Note_on_c, 0, 56, 49
2, 70054, Control_c, 0, 64, 127
2, 70097, Note_off_c, 0, 76, 64
2, 70106, Note_on_c, 0, 59, 62
2, 70121, Note_off_c, 0, 73, 64
2, 70122, Note_off_c, 0, 56, 64
2, 70136, Note_off_c, 0, 64, 64
2, 70173, Note_on_c, 0, 57, 64
2, 70198, Note_off_c, 0, 59, 64
2, 70238, Control_c, 0, 64, 0
2, 70242, Note_on_c, 0, 56, 56
2, 70252, Note_off_c, 0, 57, 64
2, 70290, Control_c, 0, 64, 127
2, 70304, Note_on_c, 0, 75, 41
2, 70308, Note_on_c, 0, 63, 47
2, 70309, Note_on_c, 0, 70, 49
2, 70313, Note_on_c, 0, 55, 58
2, 70314, Control_c, 0, 64, 0
2, 70331, Note_off_c, 0, 56, 64
2, 70350, Control_c, 0, 64, 127
2, 70378, Note_on_c, 0, 51, 67
2, 70385, Note_on_c, 0, 73, 50
2, 70388, Note_off_c, 0, 55, 64
2, 70402, Note_off_c, 0, 70, 64
2, 70412, Note_off_c, 0, 75, 64
2, 70476, Note_on_c, 0, 68, 59
2, 70479, Note_on_c, 0, 72, 54
2, 70479, Note_on_c, 0, 56, 64
2, 70486, Note_off_c, 0, 73, 64
2, 70493, Control_c, 0, 64, 0
2, 70504, Note_off_c, 0, 51, 64
2, 70535, Control_c, 0, 64, 127
2, 70628, Note_on_c, 0, 75, 39
2, 70630, Note_on_c, 0, 44, 51
2, 70637, Note_off_c, 0, 72, 64
2, 70709, Note_on_c, 0, 54, 67
2, 70717, Note_off_c, 0, 56, 64
2, 70730, Control_c, 0, 64, 0
2, 70766, Note_off_c, 0, 44, 64
2, 70766, Control_c, 0, 64, 127
2, 70775, Note_off_c, 0, 75, 64
2, 70787, Note_off_c, 0, 63, 64
2, 70788, Note_on_c, 0, 75, 39
2, 70792, Note_on_c, 0, 61, 55
2, 70796, Note_on_c, 0, 52, 51
2, 70800, Note_on_c, 0, 44, 39
2, 70805, Control_c, 0, 64, 0
2, 70819, Note_off_c, 0, 54, 64
2, 70836, Control_c, 0, 64, 127
2, 70859, Note_off_c, 0, 68, 64
2, 70878, Note_on_c, 0, 68, 49
2, 70883, Note_off_c, 0, 75, 64
2, 70909, Control_c, 0, 64, 0
2, 70951, Control_c, 0, 64, 127
2, 70955, Control_c, 0, 64, 0
2, 70966, Note_off_c, 0, 68, 64
2, 70972, Note_on_c, 0, 68, 49
2, 70972, Note_on_c, 0, 63, 71
2, 70972, Note_on_c, 0, 51, 34
2, 70985, Note_off_c, 0, 52, 64
2, 70987, Control_c, 0, 64, 127
2, 70988, Note_off_c, 0, 61, 64
2, 71056, Note_on_c, 0, 66, 48
2, 71075, Note_off_c, 0, 63, 64
2, 71134, Note_on_c, 0, 73, 48
2, 71136, Note_on_c, 0, 64, 62
2, 71141, Note_on_c, 0, 49, 52
2, 71151, Note_off_c, 0, 51, 64
2, 71159, Note_off_c, 0, 66, 64
2, 71204, Note_on_c, 0, 51, 58
2, 71208, Note_on_c, 0, 72, 48
2, 71211, Note_on_c, 0, 63, 66
2, 71217, Note_off_c, 0, 73, 64
2, 71219, Note_off_c, 0, 64, 64
2, 71221, Control_c, 0, 64, 0
2, 71224, Note_off_c, 0, 49, 64
2, 71252, Control_c, 0, 64, 127
2, 71284, Note_on_c, 0, 52, 56
2, 71288, Note_on_c, 0, 70, 31
2, 71288, Note_on_c, 0, 61, 67
2, 71314, Note_off_c, 0, 51, 64
2, 71318, Note_off_c, 0, 72, 64
2, 71320, Control_c, 0, 64, 0
2, 71321, Note_off_c, 0, 63, 64
2, 71356, Control_c, 0, 64, 127
2, 71371, Control_c, 0, 64, 0
2, 71376, Note_on_c, 0, 58, 63
2, 71380, Note_on_c, 0, 73, 44
2, 71390, Note_off_c, 0, 61, 64
2, 71403, Control_c, 0, 64, 127
2, 71404, Note_off_c, 0, 70, 64
2, 71460, Note_on_c, 0, 63, 60
2, 71460, Note_on_c, 0, 51, 44
2, 71464, Note_on_c, 0, 70, 34
2, 71464, Note_on_c, 0, 67, 34
2, 71465, Note_off_c, 0, 52, 64
2, 71475, Note_off_c, 0, 68, 64
2, 71477, Note_off_c, 0, 58, 64
2, 71485, Note_off_c, 0, 73, 64
2, 71525, Control_c, 0, 64, 0
2, 71569, Control_c, 0, 64, 127
2, 71679, Note_on_c, 0, 72, 46
2, 71704, Note_off_c, 0, 70, 64
2, 71736, Control_c, 0, 64, 0
2, 71769, Note_on_c, 0, 61, 51
2, 71772, Control_c, 0, 64, 127
2, 71780, Note_off_c, 0, 63, 64
2, 71847, Note_off_c, 0, 44, 64
2, 71850, Note_off_c, 0, 51, 64
2, 71872, Note_on_c, 0, 60, 49
2, 71874, Note_on_c, 0, 68, 50
2, 71875, Note_on_c, 0, 44, 62
2, 71884, Note_off_c, 0, 67, 64
2, 71888, Note_off_c, 0, 72, 64
2, 71893, Note_off_c, 0, 61, 64
2, 71900, Control_c, 0, 64, 0
2, 71941, Control_c, 0, 64, 0
2, 71946, Control_c, 0, 64, 127
2, 71985, Control_c, 0, 64, 127
2, 72054, Note_off_c, 0, 60, 64
2, 72064, Note_off_c, 0, 44, 64
2, 72064, Note_off_c, 0, 68, 64
2, 72097, Note_on_c, 0, 68, 57
2, 72189, Note_on_c, 0, 71, 50
2, 72196, Note_off_c, 0, 68, 64
2, 72286, Note_on_c, 0, 69, 42
2, 72303, Note_off_c, 0, 71, 64
2, 72316, Control_c, 0, 64, 0
2, 72355, Note_on_c, 0, 68, 47
2, 72361, Note_off_c, 0, 69, 64
2, 72362, Control_c, 0, 64, 127
2, 72437, Note_on_c, 0, 73, 55
2, 72437, Note_on_c, 0, 70, 62
2, 72447, Note_on_c, 0, 67, 47
2, 72469, Note_off_c, 0, 68, 64
2, 72529, Note_on_c, 0, 63, 65
2, 72555, Note_off_c, 0, 67, 64
2, 72610, Note_on_c, 0, 68, 64
2, 72636, Note_off_c, 0, 63, 64
2, 72638, Control_c, 0, 64, 0
2, 72713, Control_c, 0, 64, 127
2, 72804, Note_on_c, 0, 75, 59
2, 72810, Note_on_c, 0, 72, 58
2, 72828, Note_off_c, 0, 70, 64
2, 72828, Note_off_c, 0, 73, 64
2, 72903, Note_on_c, 0, 66, 63
2, 72911, Note_off_c, 0, 68, 64
2, 73014, Note_off_c, 0, 75, 64
2, 73020, Note_off_c, 0, 72, 64
2, 73023, Note_on_c, 0, 80, 64
2, 73023, Note_on_c, 0, 64, 47
2, 73028, Note_on_c, 0, 73, 59
2, 73035, Note_off_c, 0, 66, 64
2, 73035, Note_on_c, 0, 56, 46
2, 73054, Control_c, 0, 64, 0
2, 73075, Control_c, 0, 64, 0
2, 73129, Control_c, 0, 64, 127
2, 73186, Control_c, 0, 64, 127
2, 73232, Note_on_c, 0, 75, 67
2, 73250, Note_off_c, 0, 73, 64
2, 73306, Note_on_c, 0, 78, 39
2, 73330, Note_off_c, 0, 75, 64
2, 73393, Note_on_c, 0, 76, 39
2, 73412, Note_off_c, 0, 78, 64
2, 73454, Note_on_c, 0, 75, 57
2, 73473, Note_off_c, 0, 76, 64
2, 73491, Control_c, 0, 64, 0
2, 73510, Note_off_c, 0, 80, 64
2, 73540, Note_on_c, 0, 79, 44
2, 73543, Note_on_c, 0, 82, 64
2, 73549, Note_on_c, 0, 73, 59
2, 73564, Note_off_c, 0, 75, 64
2, 73564, Control_c, 0, 64, 0
2, 73585, Control_c, 0, 64, 127
2, 73602, Control_c, 0, 64, 127
2, 73628, Note_on_c, 0, 70, 73
2, 73652, Note_off_c, 0, 73, 64
2, 73703, Note_off_c, 0, 64, 64
2, 73714, Note_on_c, 0, 75, 62
2, 73721, Control_c, 0, 64, 0
2, 73724, Note_on_c, 0, 63, 36
2, 73740, Note_off_c, 0, 70, 64
2, 73741, Note_off_c, 0, 79, 64
2, 73744, Note_off_c, 0, 82, 64
2, 73753, Control_c, 0, 64, 127
2, 73768, Note_off_c, 0, 56, 64
2, 73925, Note_on_c, 0, 70, 58
2, 73953, Note_off_c, 0, 63, 64
2, 73980, Control_c, 0, 64, 0
2, 74001, Control_c, 0, 64, 127
2, 74009, Note_on_c, 0, 73, 52
2, 74024, Note_off_c, 0, 75, 64
2, 74096, Note_on_c, 0, 63, 42
2, 74096, Note_on_c, 0, 56, 50
2, 74107, Note_on_c, 0, 84, 66
2, 74110, Note_on_c, 0, 72, 67
2, 74123, Control_c, 0, 64, 0
2, 74126, Note_off_c, 0, 73, 64
2, 74137, Control_c, 0, 64, 0
2, 74144, Control_c, 0, 64, 127
2, 74145, Note_off_c, 0, 70, 64
2, 74169, Control_c, 0, 64, 127
2, 74200, Note_on_c, 0, 73, 69
2, 74222, Note_off_c, 0, 72, 64
2, 74266, Note_off_c, 0, 84, 64
2, 74274, Note_on_c, 0, 75, 66
2, 74296, Note_off_c, 0, 73, 64
2, 74337, Note_off_c, 0, 56, 64
2, 74337, Note_off_c, 0, 63, 64
2, 74349, Note_on_c, 0, 76, 69
2, 74355, Note_off_c, 0, 75, 64
2, 74425, Note_on_c, 0, 78, 65
2, 74448, Note_off_c, 0, 76, 64
2, 74501, Note_on_c, 0, 80, 64
2, 74520, Note_off_c, 0, 78, 64
2, 74539, Control_c, 0, 64, 0
2, 74549, Control_c, 0, 64, 0
2, 74560, Control_c, 0, 64, 127
2, 74563, Note_on_c, 0, 81, 71
2, 74563, Note_on_c, 0, 44, 55
2, 74585, Control_c, 0, 64, 127
2, 74593, Note_off_c, 0, 80, 64
2, 74604, Note_off_c, 0, 44, 64
2, 74621, Note_on_c, 0, 83, 36
2, 74635, Note_off_c, 0, 81, 64
2, 74654, Note_on_c, 0, 81, 64
2, 74660, Note_off_c, 0, 83, 64
2, 74728, Note_on_c, 0, 78, 54
2, 74728, Note_on_c, 0, 66, 35
2, 74730, Note_on_c, 0, 84, 78
2, 74730, Note_on_c, 0, 60, 59
2, 74732, Note_on_c, 0, 56, 51
2, 74756, Note_off_c, 0, 81, 64
2, 74782, Note_off_c, 0, 56, 64
2, 74807, Note_off_c, 0, 66, 64
2, 74810, Note_on_c, 0, 76, 59
2, 74814, Note_off_c, 0, 60, 64
2, 74820, Note_off_c, 0, 78, 64
2, 74880, Note_on_c, 0, 61, 50
2, 74884, Note_on_c, 0, 66, 49
2, 74886, Note_on_c, 0, 57, 46
2, 74891, Note_on_c, 0, 75, 62
2, 74895, Note_on_c, 0, 85, 92
2, 74900, Note_off_c, 0, 76, 64
2, 74901, Note_off_c, 0, 84, 64
2, 74926, Note_off_c, 0, 57, 64
2, 74926, Note_off_c, 0, 61, 64
2, 74930, Note_off_c, 0, 66, 64
2, 74965, Control_c, 0, 64, 0
2, 74969, Note_on_c, 0, 73, 71
2, 74992, Note_off_c, 0, 75, 64
2, 75001, Control_c, 0, 64, 127
2, 75044, Note_on_c, 0, 63, 62
2, 75048, Note_on_c, 0, 72, 77
2, 75048, Note_on_c, 0, 66, 62
2, 75048, Note_on_c, 0, 56, 59
2, 75053, Control_c, 0, 64, 0
2, 75059, Note_off_c, 0, 73, 64
2, 75063, Note_off_c, 0, 63, 64
2, 75070, Note_off_c, 0, 85, 64
2, 75075, Note_off_c, 0, 66, 64
2, 75080, Note_off_c, 0, 56, 64
2, 75082, Control_c, 0, 64, 127
2, 75128, Note_on_c, 0, 87, 79
2, 75148, Note_off_c, 0, 72, 64
2, 75198, Note_on_c, 0, 44, 70
2, 75198, Control_c, 0, 64, 0
2, 75206, Note_on_c, 0, 75, 82
2, 75228, Note_off_c, 0, 87, 64
2, 75233, Control_c, 0, 64, 127
2, 75242, Note_off_c, 0, 44, 64
2, 75290, Note_on_c, 0, 76, 73
2, 75302, Note_off_c, 0, 75, 64
2, 75358, Note_on_c, 0, 56, 40
2, 75363, Note_on_c, 0, 66, 62
2, 75363, Control_c, 0, 64, 0
2, 75367, Note_on_c, 0, 78, 82
2, 75378, Control_c, 0, 64, 127
2, 75400, Note_off_c, 0, 76, 64
2, 75423, Note_off_c, 0, 56, 64
2, 75432, Note_on_c, 0, 80, 73
2, 75447, Note_off_c, 0, 66, 64
2, 75462, Note_off_c, 0, 78, 64
2, 75469, Control_c, 0, 64, 0
2, 75498, Control_c, 0, 64, 127
2, 75504, Note_on_c, 0, 81, 85
2, 75536, Note_off_c, 0, 80, 64
2, 75568, Note_on_c, 0, 83, 40
2, 75577, Note_off_c, 0, 81, 64
2, 75596, Note_on_c, 0, 81, 71
2, 75603, Note_off_c, 0, 83, 64
2, 75614, Control_c, 0, 64, 0
2, 75649, Control_c, 0, 64, 127
2, 75661, Note_on_c, 0, 84, 86
2, 75668, Note_on_c, 0, 78, 49
2, 75669, Note_on_c, 0, 66, 56
2, 75672, Note_on_c, 0, 60, 56
2, 75672, Note_on_c, 0, 56, 57
2, 75684, Note_off_c, 0, 81, 64
2, 75709, Note_off_c, 0, 60, 64
2, 75711, Note_off_c, 0, 56, 64
2, 75722, Note_off_c, 0, 66, 64
2, 75743, Note_on_c, 0, 76, 65
2, 75757, Note_off_c, 0, 78, 64
2, 75779, Control_c, 0, 64, 0
2, 75794, Control_c, 0, 64, 127
2, 75815, Note_on_c, 0, 85, 83
2, 75816, Note_on_c, 0, 57, 57
2, 75818, Note_on_c, 0, 66, 54
2, 75820, Note_on_c, 0, 75, 74
2, 75820, Note_on_c, 0, 61, 49
2, 75832, Note_off_c, 0, 84, 64
2, 75837, Note_off_c, 0, 76, 64
2, 75862, Note_off_c, 0, 66, 64
2, 75864, Note_off_c, 0, 61, 64
2, 75868, Note_off_c, 0, 57, 64
2, 75895, Note_on_c, 0, 73, 70
2, 75922, Note_off_c, 0, 75, 64
2, 75942, Note_off_c, 0, 85, 64
2, 75976, Note_on_c, 0, 72, 77
2, 75980, Note_on_c, 0, 63, 64
2, 75982, Note_on_c, 0, 56, 60
2, 75984, Note_on_c, 0, 66, 58
2, 75992, Note_off_c, 0, 73, 64
2, 76005, Note_off_c, 0, 63, 64
2, 76012, Note_off_c, 0, 66, 64
2, 76022, Note_off_c, 0, 56, 64
2, 76051, Note_on_c, 0, 87, 79
2, 76121, Note_off_c, 0, 72, 64
2, 76121, Note_on_c, 0, 44, 73
2, 76126, Control_c, 0, 64, 0
2, 76129, Note_on_c, 0, 75, 85
2, 76149, Control_c, 0, 64, 127
2, 76156, Note_off_c, 0, 44, 64
2, 76159, Note_off_c, 0, 87, 64
2, 76209, Note_on_c, 0, 76, 77
2, 76230, Note_off_c, 0, 75, 64
2, 76263, Control_c, 0, 64, 0
2, 76264, Note_on_c, 0, 66, 67
2, 76264, Note_on_c, 0, 56, 63
2, 76268, Note_on_c, 0, 60, 56
2, 76270, Note_on_c, 0, 78, 98
2, 76296, Control_c, 0, 64, 127
2, 76314, Note_off_c, 0, 76, 64
2, 76327, Note_off_c, 0, 56, 64
2, 76346, Note_on_c, 0, 80, 69
2, 76355, Note_off_c, 0, 60, 64
2, 76361, Note_off_c, 0, 66, 64
2, 76365, Note_off_c, 0, 78, 64
2, 76401, Note_on_c, 0, 81, 83
2, 76450, Note_off_c, 0, 80, 64
2, 76466, Note_on_c, 0, 83, 54
2, 76480, Note_off_c, 0, 81, 64
2, 76489, Note_on_c, 0, 81, 57
2, 76509, Note_off_c, 0, 83, 64
2, 76542, Control_c, 0, 64, 0
2, 76549, Note_on_c, 0, 84, 73
2, 76554, Note_on_c, 0, 56, 60
2, 76556, Note_on_c, 0, 78, 48
2, 76558, Note_on_c, 0, 66, 59
2, 76561, Note_on_c, 0, 60, 59
2, 76565, Control_c, 0, 64, 127
2, 76568, Control_c, 0, 64, 0
2, 76579, Note_off_c, 0, 81, 64
2, 76579, Control_c, 0, 64, 127
2, 76605, Note_off_c, 0, 56, 64
2, 76610, Note_off_c, 0, 66, 64
2, 76612, Note_off_c, 0, 60, 64
2, 76624, Note_on_c, 0, 76, 69
2, 76637, Note_off_c, 0, 78, 64
2, 76679, Control_c, 0, 64, 0
2, 76700, Note_on_c, 0, 66, 56
2, 76703, Note_on_c, 0, 85, 83
2, 76703, Note_on_c, 0, 75, 67
2, 76704, Note_on_c, 0, 61, 56
2, 76704, Note_on_c, 0, 56, 55
2, 76708, Note_off_c, 0, 84, 64
2, 76712, Control_c, 0, 64, 127
2, 76714, Note_off_c, 0, 76, 64
2, 76733, Note_off_c, 0, 66, 64
2, 76735, Note_off_c, 0, 61, 64
2, 76741, Note_off_c, 0, 56, 64
2, 76777, Note_on_c, 0, 73, 64
2, 76801, Note_off_c, 0, 75, 64
2, 76844, Note_off_c, 0, 85, 64
2, 76852, Note_on_c, 0, 44, 73
2, 76856, Control_c, 0, 64, 0
2, 76864, Note_on_c, 0, 76, 83
2, 76872, Note_off_c, 0, 73, 64
2, 76882, Control_c, 0, 64, 127
2, 76889, Note_off_c, 0, 44, 64
2, 76904, Note_on_c, 0, 78, 62
2, 76917, Note_off_c, 0, 76, 64
2, 76950, Note_on_c, 0, 76, 57
2, 76968, Note_off_c, 0, 78, 64
2, 76984, Control_c, 0, 64, 0
2, 76995, Control_c, 0, 64, 127
2, 76996, Note_on_c, 0, 52, 26
2, 76999, Note_on_c, 0, 61, 58
2, 77012, Note_on_c, 0, 75, 63
2, 77014, Note_on_c, 0, 80, 66
2, 77027, Note_off_c, 0, 76, 64
2, 77046, Note_off_c, 0, 61, 64
2, 77047, Note_off_c, 0, 52, 64
2, 77080, Note_on_c, 0, 73, 67
2, 77087, Note_off_c, 0, 75, 64
2, 77151, Note_on_c, 0, 61, 52
2, 77159, Note_on_c, 0, 71, 63
2, 77159, Note_on_c, 0, 52, 58
2, 77167, Note_off_c, 0, 73, 64
2, 77167, Note_on_c, 0, 81, 72
2, 77172, Note_off_c, 0, 80, 64
2, 77184, Note_off_c, 0, 61, 64
2, 77196, Note_off_c, 0, 52, 64
2, 77247, Note_on_c, 0, 69, 54
2, 77255, Note_off_c, 0, 71, 64
2, 77272, Control_c, 0, 64, 0
2, 77298, Control_c, 0, 64, 127
2, 77307, Note_off_c, 0, 81, 64
2, 77321, Note_on_c, 0, 44, 60
2, 77322, Note_on_c, 0, 73, 66
2, 77337, Control_c, 0, 64, 0
2, 77345, Note_off_c, 0, 69, 64
2, 77351, Control_c, 0, 64, 127
2, 77356, Note_off_c, 0, 44, 64
2, 77383, Note_on_c, 0, 75, 63
2, 77390, Note_off_c, 0, 73, 64
2, 77442, Note_on_c, 0, 73, 48
2, 77450, Note_off_c, 0, 75, 64
2, 77480, Note_on_c, 0, 71, 54
2, 77480, Note_on_c, 0, 52, 52
2, 77481, Note_on_c, 0, 75, 66
2, 77484, Note_on_c, 0, 61, 19
2, 77505, Note_off_c, 0, 73, 64
2, 77514, Note_off_c, 0, 52, 64
2, 77542, Note_off_c, 0, 61, 64
2, 77564, Note_on_c, 0, 69, 60
2, 77578, Note_off_c, 0, 71, 64
2, 77652, Note_on_c, 0, 52, 46
2, 77655, Note_on_c, 0, 57, 49
2, 77656, Note_on_c, 0, 64, 58
2, 77658, Note_on_c, 0, 76, 83
2, 77670, Note_off_c, 0, 75, 64
2, 77676, Note_off_c, 0, 69, 64
2, 77692, Note_off_c, 0, 57, 64
2, 77692, Note_off_c, 0, 52, 64
2, 77753, Control_c, 0, 64, 0
2, 77767, Control_c, 0, 64, 127
2, 77776, Note_on_c, 0, 61, 60
2, 77814, Note_off_c, 0, 64, 64
2, 77826, Note_off_c, 0, 76, 64
2, 77908, Note_on_c, 0, 44, 58
2, 77934, Control_c, 0, 64, 0
2, 77956, Control_c, 0, 64, 127
2, 77997, Note_on_c, 0, 60, 52
2, 78021, Note_off_c, 0, 61, 64
2, 78087, Control_c, 0, 64, 0
2, 78093, Note_on_c, 0, 56, 51
2, 78100, Control_c, 0, 64, 127
2, 78108, Note_on_c, 0, 51, 43
2, 78142, Note_off_c, 0, 51, 64
2, 78144, Note_off_c, 0, 56, 64
2, 78174, Note_on_c, 0, 72, 64
2, 78260, Note_off_c, 0, 72, 64
2, 78262, Note_on_c, 0, 70, 69
2, 78268, Note_on_c, 0, 51, 48
2, 78273, Note_off_c, 0, 44, 64
2, 78313, Note_off_c, 0, 51, 64
2, 78334, Note_on_c, 0, 72, 65
2, 78343, Note_off_c, 0, 70, 64
2, 78350, Control_c, 0, 64, 0
2, 78372, Control_c, 0, 64, 127
2, 78425, Note_on_c, 0, 70, 78
2, 78425, Note_on_c, 0, 44, 66
2, 78430, Note_off_c, 0, 72, 64
2, 78433, Control_c, 0, 64, 0
2, 78443, Control_c, 0, 64, 127
2, 78456, Note_off_c, 0, 60, 64
2, 78495, Note_on_c, 0, 68, 61
2, 78503, Control_c, 0, 64, 0
2, 78511, Note_off_c, 0, 70, 64
2, 78516, Control_c, 0, 64, 127
2, 78592, Note_on_c, 0, 76, 62
2, 78592, Note_on_c, 0, 64, 62
2, 78598, Note_on_c, 0, 51, 53
2, 78607, Note_off_c, 0, 68, 64
2, 78607, Note_on_c, 0, 60, 57
2, 78615, Control_c, 0, 64, 0
2, 78636, Control_c, 0, 64, 127
2, 78661, Note_off_c, 0, 51, 64
2, 78663, Note_off_c, 0, 60, 64
2, 78764, Note_on_c, 0, 60, 45
2, 78770, Note_on_c, 0, 51, 62
2, 78775, Note_off_c, 0, 44, 64
2, 78820, Note_off_c, 0, 60, 64
2, 78831, Note_on_c, 0, 75, 64
2, 78836, Note_on_c, 0, 63, 76
2, 78845, Note_off_c, 0, 64, 64
2, 78845, Note_off_c, 0, 76, 64
2, 78849, Control_c, 0, 64, 0
2, 78859, Control_c, 0, 64, 127
2, 78881, Note_off_c, 0, 75, 64
2, 78888, Note_off_c, 0, 63, 64
2, 78927, Note_on_c, 0, 75, 66
2, 78931, Note_on_c, 0, 63, 70
2, 78935, Note_on_c, 0, 43, 77
2, 78947, Control_c, 0, 64, 0
2, 78977, Control_c, 0, 64, 127
2, 79031, Note_off_c, 0, 75, 64
2, 79031, Control_c, 0, 64, 0
2, 79043, Note_off_c, 0, 63, 64
2, 79052, Control_c, 0, 64, 127
2, 79068, Note_off_c, 0, 51, 64
2, 79100, Note_on_c, 0, 73, 55
2, 79107, Note_on_c, 0, 61, 69
2, 79114, Note_on_c, 0, 52, 52
2, 79140, Control_c, 0, 64, 0
2, 79152, Control_c, 0, 64, 127
2, 79222, Note_off_c, 0, 61, 64
2, 79225, Note_on_c, 0, 63, 60
2, 79228, Note_on_c, 0, 54, 58
2, 79237, Note_off_c, 0, 52, 64
2, 79264, Note_on_c, 0, 52, 59
2, 79266, Note_on_c, 0, 61, 75
2, 79272, Note_off_c, 0, 63, 64
2, 79274, Control_c, 0, 64, 0
2, 79280, Note_off_c, 0, 54, 64
2, 79282, Note_off_c, 0, 43, 64
2, 79314, Control_c, 0, 64, 127
2, 79363, Control_c, 0, 64, 0
2, 79393, Control_c, 0, 64, 127
2, 79443, Note_on_c, 0, 43, 66
2, 79454, Control_c, 0, 64, 0
2, 79471, Note_off_c, 0, 52, 64
2, 79474, Control_c, 0, 64, 127
2, 79480, Note_off_c, 0, 73, 64
2, 79501, Note_off_c, 0, 61, 64
2, 79556, Control_c, 0, 64, 0
2, 79568, Control_c, 0, 64, 127
2, 79604, Note_on_c, 0, 57, 51
2, 79608, Note_on_c, 0, 61, 55
2, 79613, Note_on_c, 0, 52, 52
2, 79628, Control_c, 0, 64, 0
2, 79649, Control_c, 0, 64, 127
2, 79690, Control_c, 0, 64, 0
2, 79727, Note_on_c, 0, 54, 41
2, 79730, Control_c, 0, 64, 127
2, 79734, Note_off_c, 0, 52, 64
2, 79736, Note_on_c, 0, 63, 59
2, 79742, Note_off_c, 0, 61, 64
2, 79770, Note_on_c, 0, 61, 67
2, 79773, Note_off_c, 0, 57, 64
2, 79773, Note_on_c, 0, 52, 57
2, 79776, Note_on_c, 0, 57, 50
2, 79778, Note_off_c, 0, 43, 64
2, 79782, Control_c, 0, 64, 0
2, 79789, Note_off_c, 0, 54, 64
2, 79792, Note_off_c, 0, 63, 64
2, 79804, Control_c, 0, 64, 127
2, 79870, Control_c, 0, 64, 0
2, 79890, Control_c, 0, 64, 127
2, 79940, Note_on_c, 0, 43, 70
2, 79945, Note_off_c, 0, 57, 64
2, 79945, Control_c, 0, 64, 0
2, 79954, Note_off_c, 0, 61, 64
2, 79968, Note_off_c, 0, 52, 64
2, 79977, Control_c, 0, 64, 127
2, 80044, Control_c, 0, 64, 0
2, 80065, Control_c, 0, 64, 127
2, 80106, Note_on_c, 0, 61, 69
2, 80113, Note_on_c, 0, 57, 49
2, 80113, Note_on_c, 0, 52, 47
2, 80120, Control_c, 0, 64, 0
2, 80151, Control_c, 0, 64, 127
2, 80172, Note_off_c, 0, 57, 64
2, 80174, Note_off_c, 0, 52, 64
2, 80187, Note_on_c, 0, 73, 72
2, 80198, Control_c, 0, 64, 0
2, 80220, Control_c, 0, 64, 127
2, 80246, Note_off_c, 0, 43, 64
2, 80251, Note_off_c, 0, 73, 64
2, 80270, Note_on_c, 0, 71, 65
2, 80276, Note_on_c, 0, 52, 57
2, 80280, Note_on_c, 0, 57, 62
2, 80335, Note_off_c, 0, 71, 64
2, 80338, Note_on_c, 0, 73, 69
2, 80361, Control_c, 0, 64, 0
2, 80393, Control_c, 0, 64, 127
2, 80397, Note_off_c, 0, 57, 64
2, 80404, Note_off_c, 0, 52, 64
2, 80406, Note_off_c, 0, 73, 64
2, 80424, Note_on_c, 0, 71, 66
2, 80428, Note_on_c, 0, 43, 74
2, 80436, Control_c, 0, 64, 0
2, 80458, Control_c, 0, 64, 127
2, 80498, Note_off_c, 0, 61, 64
2, 80504, Note_on_c, 0, 69, 67
2, 80521, Note_off_c, 0, 71, 64
2, 80536, Control_c, 0, 64, 0
2, 80567, Control_c, 0, 64, 127
2, 80600, Note_on_c, 0, 66, 73
2, 80600, Note_on_c, 0, 61, 58
2, 80600, Note_on_c, 0, 52, 66
2, 80604, Note_on_c, 0, 78, 79
2, 80614, Note_off_c, 0, 69, 64
2, 80618, Control_c, 0, 64, 0
2, 80639, Control_c, 0, 64, 127
2, 80679, Note_off_c, 0, 61, 64
2, 80685, Note_off_c, 0, 52, 64
2, 80759, Note_off_c, 0, 43, 64
2, 80771, Note_on_c, 0, 61, 57
2, 80788, Note_on_c, 0, 52, 66
2, 80800, Note_off_c, 0, 61, 64
2, 80816, Note_off_c, 0, 52, 64
2, 80848, Note_on_c, 0, 76, 63
2, 80848, Note_on_c, 0, 64, 63
2, 80852, Control_c, 0, 64, 0
2, 80856, Note_off_c, 0, 66, 64
2, 80860, Note_off_c, 0, 78, 64
2, 80874, Control_c, 0, 64, 127
2, 80902, Note_off_c, 0, 64, 64
2, 80902, Note_off_c, 0, 76, 64
2, 80935, Note_on_c, 0, 76, 81
2, 80937, Note_on_c, 0, 42, 80
2, 80943, Note_on_c, 0, 64, 83
2, 80946, Control_c, 0, 64, 0
2, 80967, Control_c, 0, 64, 127
2, 80989, Note_off_c, 0, 76, 64
2, 80996, Note_off_c, 0, 64, 64
2, 81034, Control_c, 0, 64, 0
2, 81055, Control_c, 0, 64, 127
2, 81117, Note_on_c, 0, 54, 56
2, 81120, Note_on_c, 0, 63, 72
2, 81121, Note_on_c, 0, 75, 55
2, 81127, Note_on_c, 0, 60, 44
2, 81136, Control_c, 0, 64, 0
2, 81158, Control_c, 0, 64, 127
2, 81214, Note_on_c, 0, 56, 65
2, 81220, Note_off_c, 0, 63, 64
2, 81222, Note_off_c, 0, 54, 64
2, 81229, Note_on_c, 0, 64, 63
2, 81238, Note_off_c, 0, 75, 64
2, 81252, Note_off_c, 0, 60, 64
2, 81268, Note_off_c, 0, 42, 64
2, 81268, Note_on_c, 0, 54, 69
2, 81269, Note_on_c, 0, 63, 73
2, 81272, Note_on_c, 0, 60, 43
2, 81278, Note_off_c, 0, 64, 64
2, 81283, Note_off_c, 0, 56, 64
2, 81283, Control_c, 0, 64, 0
2, 81294, Control_c, 0, 64, 127
2, 81362, Control_c, 0, 64, 0
2, 81383, Control_c, 0, 64, 127
2, 81424, Note_off_c, 0, 54, 64
2, 81425, Note_off_c, 0, 63, 64
2, 81428, Note_off_c, 0, 60, 64
2, 81433, Note_on_c, 0, 40, 72
2, 81435, Control_c, 0, 64, 0
2, 81467, Control_c, 0, 64, 127
2, 81552, Control_c, 0, 64, 0
2, 81574, Control_c, 0, 64, 127
2, 81596, Note_on_c, 0, 57, 63
2, 81601, Note_on_c, 0, 64, 57
2, 81601, Note_on_c, 0, 52, 57
2, 81604, Note_on_c, 0, 61, 60
2, 81614, Control_c, 0, 64, 0
2, 81625, Control_c, 0, 64, 127
2, 81699, Control_c, 0, 64, 0
2, 81709, Note_on_c, 0, 66, 51
2, 81710, Control_c, 0, 64, 127
2, 81714, Note_off_c, 0, 52, 64
2, 81714, Note_on_c, 0, 51, 56
2, 81718, Note_off_c, 0, 61, 64
2, 81722, Note_off_c, 0, 64, 64
2, 81737, Note_off_c, 0, 57, 64
2, 81755, Note_on_c, 0, 52, 50
2, 81760, Note_on_c, 0, 61, 58
2, 81760, Note_on_c, 0, 57, 60
2, 81762, Note_off_c, 0, 51, 64
2, 81762, Note_on_c, 0, 64, 57
2, 81764, Note_off_c, 0, 40, 64
2, 81796, Note_off_c, 0, 66, 64
2, 81851, Control_c, 0, 64, 0
2, 81869, Note_off_c, 0, 52, 64
2, 81874, Note_off_c, 0, 57, 64
2, 81874, Note_off_c, 0, 61, 64
2, 81876, Note_off_c, 0, 64, 64
2, 81883, Control_c, 0, 64, 127
2, 81912, Control_c, 0, 64, 0
2, 81919, Note_on_c, 0, 39, 92
2, 81945, Control_c, 0, 64, 127
2, 82030, Control_c, 0, 64, 0
2, 82041, Control_c, 0, 64, 127
2, 82064, Note_on_c, 0, 66, 63
2, 82064, Note_on_c, 0, 60, 65
2, 82064, Note_on_c, 0, 57, 58
2, 82143, Note_off_c, 0, 60, 64
2, 82143, Note_off_c, 0, 66, 64
2, 82152, Note_on_c, 0, 68, 69
2, 82152, Note_on_c, 0, 59, 46
2, 82167, Note_off_c, 0, 57, 64
2, 82228, Note_on_c, 0, 66, 92
2, 82232, Note_on_c, 0, 60, 66
2, 82232, Note_on_c, 0, 57, 25
2, 82247, Note_off_c, 0, 68, 64
2, 82248, Note_off_c, 0, 59, 64
2, 82250, Note_off_c, 0, 39, 64
2, 82328, Control_c, 0, 64, 0
2, 82334, Note_on_c, 0, 75, 74
2, 82336, Note_off_c, 0, 66, 64
2, 82336, Note_on_c, 0, 63, 78
2, 82340, Note_off_c, 0, 57, 64
2, 82340, Note_off_c, 0, 60, 64
2, 82341, Note_on_c, 0, 51, 62
2, 82360, Note_off_c, 0, 75, 64
2, 82361, Control_c, 0, 64, 127
2, 82364, Note_off_c, 0, 63, 64
2, 82387, Note_on_c, 0, 63, 71
2, 82391, Note_on_c, 0, 75, 73
2, 82391, Note_on_c, 0, 54, 69
2, 82400, Control_c, 0, 64, 0
2, 82403, Note_off_c, 0, 51, 64
2, 82413, Control_c, 0, 64, 127
2, 82433, Note_off_c, 0, 75, 64
2, 82452, Note_off_c, 0, 63, 64
2, 82457, Note_off_c, 0, 54, 64
2, 82552, Note_on_c, 0, 60, 58
2, 82552, Note_on_c, 0, 57, 58
2, 82554, Note_on_c, 0, 63, 52
2, 82556, Note_on_c, 0, 54, 55
2, 82577, Control_c, 0, 64, 0
2, 82588, Control_c, 0, 64, 127
2, 82675, Note_on_c, 0, 56, 55
2, 82677, Note_off_c, 0, 54, 64
2, 82677, Note_on_c, 0, 64, 47
2, 82689, Note_off_c, 0, 57, 64
2, 82689, Note_off_c, 0, 60, 64
2, 82691, Note_off_c, 0, 63, 64
2, 82712, Note_on_c, 0, 57, 58
2, 82716, Note_on_c, 0, 63, 64
2, 82716, Note_on_c, 0, 60, 58
2, 82719, Note_on_c, 0, 54, 55
2, 82747, Note_off_c, 0, 56, 64
2, 82749, Note_off_c, 0, 64, 64
2, 82816, Control_c, 0, 64, 0
2, 82829, Control_c, 0, 64, 127
2, 82849, Note_off_c, 0, 57, 64
2, 82853, Note_off_c, 0, 60, 64
2, 82885, Control_c, 0, 64, 0
2, 82890, Note_off_c, 0, 63, 64
2, 82893, Note_off_c, 0, 54, 64
2, 82895, Note_on_c, 0, 36, 92
2, 82909, Control_c, 0, 64, 127
2, 82993, Control_c, 0, 64, 0
2, 83004, Control_c, 0, 64, 127
2, 83056, Note_on_c, 0, 63, 71
2, 83056, Note_on_c, 0, 57, 66
2, 83058, Note_on_c, 0, 66, 73
2, 83071, Control_c, 0, 64, 0
2, 83082, Control_c, 0, 64, 127
2, 83136, Note_on_c, 0, 68, 64
2, 83136, Note_on_c, 0, 59, 64
2, 83150, Note_off_c, 0, 57, 64
2, 83150, Note_off_c, 0, 63, 64
2, 83152, Note_off_c, 0, 66, 64
2, 83200, Note_on_c, 0, 66, 71
2, 83200, Note_on_c, 0, 63, 71
2, 83204, Note_on_c, 0, 57, 46
2, 83218, Note_off_c, 0, 59, 64
2, 83218, Note_off_c, 0, 68, 64
2, 83226, Note_off_c, 0, 36, 64
2, 83301, Control_c, 0, 64, 0
2, 83314, Note_off_c, 0, 63, 64
2, 83314, Note_off_c, 0, 66, 64
2, 83316, Note_on_c, 0, 48, 3
2, 83318, Note_off_c, 0, 57, 64
2, 83320, Note_on_c, 0, 75, 70
2, 83323, Note_on_c, 0, 63, 74
2, 83325, Control_c, 0, 64, 127
2, 83342, Note_off_c, 0, 75, 64
2, 83346, Note_off_c, 0, 63, 64
2, 83364, Note_on_c, 0, 54, 74
2, 83368, Note_on_c, 0, 63, 63
2, 83371, Note_on_c, 0, 75, 77
2, 83375, Control_c, 0, 64, 0
2, 83378, Note_off_c, 0, 48, 64
2, 83386, Control_c, 0, 64, 127
2, 83416, Note_off_c, 0, 75, 64
2, 83433, Note_off_c, 0, 63, 64
2, 83437, Note_off_c, 0, 54, 64
2, 83487, Control_c, 0, 64, 0
2, 83498, Control_c, 0, 64, 127
2, 83554, Note_on_c, 0, 63, 51
2, 83556, Note_on_c, 0, 57, 50
2, 83560, Note_on_c, 0, 54, 52
2, 83668, Note_on_c, 0, 56, 49
2, 83673, Note_on_c, 0, 64, 52
2, 83681, Note_off_c, 0, 57, 64
2, 83685, Note_off_c, 0, 54, 64
2, 83691, Note_off_c, 0, 63, 64
2, 83720, Note_on_c, 0, 63, 64
2, 83724, Note_on_c, 0, 57, 50
2, 83724, Note_on_c, 0, 54, 63
2, 83750, Note_off_c, 0, 64, 64
2, 83750, Note_off_c, 0, 56, 64
2, 83791, Control_c, 0, 64, 0
2, 83802, Control_c, 0, 64, 127
2, 83944, Note_off_c, 0, 54, 64
2, 83944, Note_off_c, 0, 57, 64
2, 83944, Note_off_c, 0, 63, 64
2, 83944, Note_on_c, 0, 32, 92
2, 83947, Control_c, 0, 64, 0
2, 83985, Control_c, 0, 64, 127
2, 84134, Control_c, 0, 64, 0
2, 84189, Note_on_c, 0, 66, 74
2, 84195, Note_on_c, 0, 57, 66
2, 84202, Control_c, 0, 64, 127
2, 84287, Note_on_c, 0, 68, 55
2, 84294, Note_on_c, 0, 59, 70
2, 84297, Note_off_c, 0, 57, 64
2, 84308, Note_off_c, 0, 66, 64
2, 84356, Control_c, 0, 64, 0
2, 84363, Control_c, 0, 64, 0
2, 84381, Note_on_c, 0, 57, 70
2, 84385, Note_on_c, 0, 66, 66
2, 84391, Note_off_c, 0, 68, 64
2, 84393, Note_off_c, 0, 59, 64
2, 84401, Control_c, 0, 64, 127
2, 84401, Control_c, 0, 64, 127
2, 84476, Note_on_c, 0, 51, 54
2, 84479, Note_on_c, 0, 60, 63
2, 84483, Note_off_c, 0, 57, 64
2, 84492, Note_off_c, 0, 66, 64
2, 84550, Control_c, 0, 64, 0
2, 84565, Note_off_c, 0, 51, 64
2, 84574, Note_on_c, 0, 54, 41
2, 84574, Control_c, 0, 64, 0
2, 84581, Note_on_c, 0, 63, 62
2, 84587, Note_off_c, 0, 60, 64
2, 84618, Control_c, 0, 64, 127
2, 84635, Control_c, 0, 64, 127
2, 84664, Note_on_c, 0, 51, 51
2, 84670, Note_off_c, 0, 54, 64
2, 84673, Note_on_c, 0, 60, 67
2, 84686, Note_off_c, 0, 63, 64
2, 84772, Control_c, 0, 64, 0
2, 84776, Note_off_c, 0, 51, 64
2, 84780, Control_c, 0, 64, 0
2, 84785, Note_on_c, 0, 64, 66
2, 84785, Note_on_c, 0, 56, 48
2, 84791, Note_off_c, 0, 60, 64
2, 84817, Control_c, 0, 64, 127
2, 84844, Note_off_c, 0, 32, 64
2, 84877, Control_c, 0, 64, 127
2, 84990, Control_c, 0, 64, 0
2, 85051, Control_c, 0, 64, 127
2, 85170, Note_off_c, 0, 64, 64
2, 85177, Note_on_c, 0, 54, 49
2, 85180, Note_on_c, 0, 63, 56
2, 85186, Note_off_c, 0, 56, 64
2, 85196, Control_c, 0, 64, 0
2, 85209, Control_c, 0, 64, 0
2, 85253, Control_c, 0, 64, 127
2, 85293, Control_c, 0, 64, 127
2, 85296, Note_on_c, 0, 61, 62
2, 85298, Note_on_c, 0, 52, 55
2, 85313, Note_off_c, 0, 54, 64
2, 85328, Control_c, 0, 64, 0
2, 85344, Note_off_c, 0, 63, 64
2, 85376, Control_c, 0, 64, 127
2, 85392, Note_on_c, 0, 51, 56
2, 85398, Note_off_c, 0, 52, 64
2, 85405, Note_on_c, 0, 60, 62
2, 85408, Note_off_c, 0, 61, 64
2, 85422, Control_c, 0, 64, 0
2, 85495, Note_on_c, 0, 61, 58
2, 85497, Note_on_c, 0, 52, 52
2, 85499, Control_c, 0, 64, 127
2, 85504, Note_off_c, 0, 51, 64
2, 85513, Note_off_c, 0, 60, 64
2, 85575, Note_on_c, 0, 54, 58
2, 85579, Note_off_c, 0, 52, 64
2, 85585, Note_on_c, 0, 63, 50
2, 85591, Control_c, 0, 64, 0
2, 85605, Note_off_c, 0, 61, 64
2, 85625, Control_c, 0, 64, 0
2, 85669, Control_c, 0, 64, 127
2, 85677, Note_on_c, 0, 66, 58
2, 85680, Note_on_c, 0, 57, 57
2, 85689, Note_off_c, 0, 54, 64
2, 85690, Control_c, 0, 64, 127
2, 85703, Note_off_c, 0, 63, 64
2, 85744, Control_c, 0, 64, 0
2, 85769, Note_on_c, 0, 56, 54
2, 85775, Note_off_c, 0, 66, 64
2, 85775, Note_on_c, 0, 64, 58
2, 85783, Note_off_c, 0, 57, 64
2, 85792, Control_c, 0, 64, 127
2, 85838, Control_c, 0, 64, 0
2, 85867, Note_on_c, 0, 63, 56
2, 85874, Note_on_c, 0, 54, 39
2, 85880, Note_off_c, 0, 56, 64
2, 85883, Note_off_c, 0, 64, 64
2, 85915, Control_c, 0, 64, 127
2, 85940, Control_c, 0, 64, 0
2, 85964, Note_on_c, 0, 61, 58
2, 85966, Note_off_c, 0, 54, 64
2, 85966, Note_on_c, 0, 52, 32
2, 85988, Note_off_c, 0, 63, 64
2, 86007, Control_c, 0, 64, 0
2, 86060, Note_on_c, 0, 51, 46
2, 86063, Note_off_c, 0, 52, 64
2, 86066, Note_on_c, 0, 60, 62
2, 86076, Note_off_c, 0, 61, 64
2, 86106, Control_c, 0, 64, 127
2, 86158, Note_on_c, 0, 63, 64
2, 86179, Note_off_c, 0, 60, 64
2, 86179, Note_on_c, 0, 54, 23
2, 86185, Note_off_c, 0, 51, 64
2, 86201, Control_c, 0, 64, 127
2, 86260, Note_on_c, 0, 61, 62
2, 86264, Note_on_c, 0, 52, 47
2, 86287, Note_off_c, 0, 63, 64
2, 86308, Note_off_c, 0, 54, 64
2, 86356, Control_c, 0, 64, 0
2, 86359, Note_on_c, 0, 57, 50
2, 86361, Note_on_c, 0, 49, 58
2, 86368, Note_off_c, 0, 61, 64
2, 86372, Note_off_c, 0, 52, 64
2, 86504, Note_on_c, 0, 64, 58
2, 86504, Note_on_c, 0, 56, 42
2, 86505, Note_on_c, 0, 61, 56
2, 86511, Note_on_c, 0, 37, 56
2, 86528, Note_off_c, 0, 57, 64
2, 86530, Note_off_c, 0, 49, 64
2, 86549, Control_c, 0, 64, 0
2, 86617, Control_c, 0, 64, 127
2, 86632, Control_c, 0, 64, 127
2, 86738, Note_off_c, 0, 64, 64
2, 86750, Note_off_c, 0, 37, 64
2, 86758, Note_off_c, 0, 61, 64
2, 86766, Note_off_c, 0, 56, 64
2, 86787, Note_on_c, 0, 44, 64
2, 86885, Note_on_c, 0, 47, 58
2, 86893, Note_off_c, 0, 44, 64
2, 86965, Control_c, 0, 64, 0
2, 86986, Note_on_c, 0, 45, 54
2, 86989, Note_on_c, 0, 61, 63
2, 86991, Note_on_c, 0, 52, 59
2, 86996, Note_off_c, 0, 47, 64
2, 87000, Control_c, 0, 64, 0
2, 87048, Control_c, 0, 64, 127
2, 87066, Control_c, 0, 64, 127
2, 87075, Note_on_c, 0, 44, 57
2, 87109, Note_off_c, 0, 45, 64
2, 87170, Note_on_c, 0, 43, 73
2, 87176, Note_on_c, 0, 53, 62
2, 87182, Note_off_c, 0, 52, 64
2, 87184, Control_c, 0, 64, 0
2, 87189, Note_off_c, 0, 44, 64
2, 87206, Control_c, 0, 64, 127
2, 87259, Note_on_c, 0, 62, 57
2, 87264, Note_on_c, 0, 59, 29
2, 87265, Note_off_c, 0, 61, 64
2, 87357, Note_on_c, 0, 63, 63
2, 87359, Note_off_c, 0, 59, 64
2, 87362, Note_on_c, 0, 54, 73
2, 87363, Control_c, 0, 64, 0
2, 87366, Note_off_c, 0, 62, 64
2, 87369, Note_on_c, 0, 42, 60
2, 87373, Note_off_c, 0, 43, 64
2, 87383, Note_off_c, 0, 53, 64
2, 87416, Control_c, 0, 64, 0
2, 87425, Control_c, 0, 64, 127
2, 87476, Note_off_c, 0, 54, 64
2, 87482, Control_c, 0, 64, 127
2, 87483, Note_off_c, 0, 42, 64
2, 87552, Note_on_c, 0, 52, 39
2, 87554, Note_on_c, 0, 58, 62
2, 87554, Note_on_c, 0, 30, 64
2, 87570, Control_c, 0, 64, 0
2, 87600, Control_c, 0, 64, 0
2, 87609, Control_c, 0, 64, 127
2, 87622, Control_c, 0, 64, 127
2, 87644, Note_on_c, 0, 61, 63
2, 87666, Note_off_c, 0, 52, 64
2, 87667, Note_off_c, 0, 63, 64
2, 87668, Note_off_c, 0, 30, 64
2, 87668, Note_off_c, 0, 58, 64
2, 87750, Note_on_c, 0, 59, 62
2, 87750, Note_on_c, 0, 35, 59
2, 87752, Note_on_c, 0, 51, 67
2, 87760, Control_c, 0, 64, 0
2, 87766, Note_off_c, 0, 61, 64
2, 87779, Control_c, 0, 64, 0
2, 87808, Control_c, 0, 64, 127
2, 87841, Control_c, 0, 64, 127
2, 87864, Note_off_c, 0, 35, 64
2, 87866, Note_off_c, 0, 51, 64
2, 87931, Note_on_c, 0, 56, 56
2, 87945, Note_on_c, 0, 47, 57
2, 87952, Control_c, 0, 64, 0
2, 87956, Note_off_c, 0, 59, 64
2, 87986, Control_c, 0, 64, 0
2, 87998, Control_c, 0, 64, 127
2, 88020, Note_on_c, 0, 51, 64
2, 88025, Control_c, 0, 64, 127
2, 88040, Note_off_c, 0, 47, 64
2, 88096, Note_on_c, 0, 49, 36
2, 88104, Note_on_c, 0, 63, 65
2, 88111, Note_off_c, 0, 51, 64
2, 88119, Control_c, 0, 64, 0
2, 88142, Note_off_c, 0, 56, 64
2, 88151, Control_c, 0, 64, 127
2, 88176, Control_c, 0, 64, 0
2, 88176, Note_on_c, 0, 47, 71
2, 88191, Note_off_c, 0, 49, 64
2, 88224, Control_c, 0, 64, 127
2, 88278, Note_on_c, 0, 46, 72
2, 88281, Note_on_c, 0, 64, 64
2, 88286, Note_off_c, 0, 47, 64
2, 88287, Control_c, 0, 64, 0
2, 88289, Note_off_c, 0, 63, 64
2, 88293, Note_on_c, 0, 55, 58
2, 88319, Control_c, 0, 64, 127
2, 88364, Note_on_c, 0, 65, 67
2, 88364, Note_on_c, 0, 62, 50
2, 88368, Control_c, 0, 64, 0
2, 88380, Note_off_c, 0, 64, 64
2, 88414, Control_c, 0, 64, 127
2, 88456, Control_c, 0, 64, 0
2, 88462, Note_on_c, 0, 66, 73
2, 88464, Note_on_c, 0, 61, 73
2, 88480, Note_off_c, 0, 62, 64
2, 88480, Note_off_c, 0, 65, 64
2, 88498, Control_c, 0, 64, 127
2, 88535, Control_c, 0, 64, 0
2, 88557, Note_off_c, 0, 46, 64
2, 88567, Control_c, 0, 64, 127
2, 88571, Note_off_c, 0, 55, 64
2, 88658, Note_on_c, 0, 55, 60
2, 88658, Note_on_c, 0, 45, 55
2, 88672, Control_c, 0, 64, 0
2, 88703, Control_c, 0, 64, 0
2, 88711, Control_c, 0, 64, 127
2, 88735, Control_c, 0, 64, 127
2, 88744, Note_on_c, 0, 64, 56
2, 88764, Note_off_c, 0, 66, 64
2, 88861, Note_on_c, 0, 66, 50
2, 88871, Note_on_c, 0, 62, 56
2, 88872, Note_off_c, 0, 64, 64
2, 88872, Control_c, 0, 64, 0
2, 88875, Note_on_c, 0, 54, 52
2, 88879, Note_off_c, 0, 61, 64
2, 88879, Note_on_c, 0, 38, 47
2, 88879, Control_c, 0, 64, 0
2, 88897, Note_off_c, 0, 45, 64
2, 88897, Note_off_c, 0, 55, 64
2, 88914, Control_c, 0, 64, 127
2, 88920, Control_c, 0, 64, 127
2, 88923, Note_off_c, 0, 62, 64
2, 88929, Note_off_c, 0, 54, 64
2, 88951, Note_off_c, 0, 38, 64
2, 88965, Note_on_c, 0, 50, 56
2, 88970, Note_on_c, 0, 59, 58
2, 89048, Note_on_c, 0, 49, 55
2, 89052, Note_on_c, 0, 67, 58
2, 89058, Note_off_c, 0, 50, 64
2, 89058, Note_on_c, 0, 58, 67
2, 89059, Note_off_c, 0, 66, 64
2, 89065, Note_off_c, 0, 59, 64
2, 89065, Control_c, 0, 64, 0
2, 89088, Control_c, 0, 64, 0
2, 89112, Control_c, 0, 64, 127
2, 89127, Control_c, 0, 64, 127
2, 89225, Control_c, 0, 64, 0
2, 89231, Note_on_c, 0, 64, 62
2, 89231, Note_on_c, 0, 48, 64
2, 89233, Note_off_c, 0, 49, 64
2, 89260, Control_c, 0, 64, 127
2, 89279, Note_off_c, 0, 58, 64
2, 89295, Control_c, 0, 64, 0
2, 89310, Note_on_c, 0, 68, 69
2, 89322, Note_off_c, 0, 67, 64
2, 89336, Control_c, 0, 64, 127
2, 89408, Note_on_c, 0, 57, 49
2, 89410, Note_on_c, 0, 53, 59
2, 89413, Note_on_c, 0, 69, 60
2, 89419, Control_c, 0, 64, 0
2, 89422, Note_off_c, 0, 68, 64
2, 89424, Note_off_c, 0, 48, 64
2, 89424, Note_off_c, 0, 64, 64
2, 89457, Control_c, 0, 64, 127
2, 89464, Note_on_c, 0, 55, 71
2, 89477, Note_off_c, 0, 53, 64
2, 89481, Control_c, 0, 64, 0
2, 89488, Note_on_c, 0, 62, 56
2, 89510, Note_off_c, 0, 57, 64
2, 89514, Note_on_c, 0, 53, 57
2, 89519, Note_off_c, 0, 55, 64
2, 89528, Control_c, 0, 64, 127
2, 89564, Note_on_c, 0, 70, 74
2, 89566, Note_on_c, 0, 52, 69
2, 89568, Note_on_c, 0, 61, 71
2, 89578, Note_off_c, 0, 62, 64
2, 89580, Note_off_c, 0, 53, 64
2, 89580, Control_c, 0, 64, 0
2, 89584, Note_off_c, 0, 69, 64
2, 89641, Control_c, 0, 64, 0
2, 89643, Control_c, 0, 64, 127
2, 89676, Control_c, 0, 64, 127
2, 89708, Control_c, 0, 64, 0
2, 89728, Control_c, 0, 64, 127
2, 89740, Note_on_c, 0, 51, 70
2, 89748, Note_on_c, 0, 67, 66
2, 89753, Note_off_c, 0, 52, 64
2, 89755, Note_off_c, 0, 61, 64
2, 89835, Control_c, 0, 64, 0
2, 89844, Note_on_c, 0, 71, 67
2, 89854, Note_off_c, 0, 67, 64
2, 89858, Note_off_c, 0, 70, 64
2, 89873, Control_c, 0, 64, 127
2, 89934, Note_on_c, 0, 56, 47
2, 89935, Note_on_c, 0, 72, 71
2, 89935, Note_on_c, 0, 60, 66
2, 89941, Note_off_c, 0, 51, 64
2, 89945, Control_c, 0, 64, 0
2, 89946, Note_off_c, 0, 71, 64
2, 89983, Control_c, 0, 64, 127
2, 89989, Note_on_c, 0, 58, 69
2, 89996, Control_c, 0, 64, 0
2, 90001, Note_off_c, 0, 56, 64
2, 90012, Note_on_c, 0, 65, 58
2, 90028, Note_off_c, 0, 60, 64
2, 90033, Note_on_c, 0, 56, 60
2, 90040, Note_off_c, 0, 58, 64
2, 90059, Control_c, 0, 64, 127
2, 90098, Note_on_c, 0, 55, 66
2, 90100, Note_on_c, 0, 64, 69
2, 90102, Note_on_c, 0, 73, 69
2, 90108, Note_off_c, 0, 56, 64
2, 90117, Note_off_c, 0, 65, 64
2, 90118, Control_c, 0, 64, 0
2, 90124, Control_c, 0, 64, 0
2, 90131, Note_off_c, 0, 72, 64
2, 90144, Control_c, 0, 64, 127
2, 90178, Control_c, 0, 64, 127
2, 90290, Note_on_c, 0, 54, 63
2, 90293, Note_on_c, 0, 70, 59
2, 90297, Note_off_c, 0, 55, 64
2, 90304, Control_c, 0, 64, 0
2, 90305, Note_off_c, 0, 64, 64
2, 90335, Control_c, 0, 64, 127
2, 90361, Control_c, 0, 64, 0
2, 90372, Note_on_c, 0, 74, 56
2, 90385, Note_off_c, 0, 70, 64
2, 90398, Note_off_c, 0, 73, 64
2, 90399, Control_c, 0, 64, 127
2, 90456, Note_on_c, 0, 63, 51
2, 90467, Note_on_c, 0, 59, 44
2, 90468, Note_on_c, 0, 63, 59
2, 90469, Note_on_c, 0, 75, 73
2, 90474, Control_c, 0, 64, 0
2, 90479, Note_off_c, 0, 54, 64
2, 90490, Note_off_c, 0, 74, 64
2, 90504, Control_c, 0, 64, 127
2, 90517, Note_on_c, 0, 61, 54
2, 90534, Control_c, 0, 64, 0
2, 90537, Note_off_c, 0, 59, 64
2, 90540, Note_on_c, 0, 68, 52
2, 90560, Note_on_c, 0, 59, 52
2, 90564, Note_off_c, 0, 61, 64
2, 90565, Note_off_c, 0, 63, 64
2, 90574, Note_off_c, 0, 63, 64
2, 90594, Control_c, 0, 64, 127
2, 90612, Note_on_c, 0, 76, 69
2, 90614, Note_on_c, 0, 67, 55
2, 90614, Note_on_c, 0, 58, 52
2, 90623, Note_off_c, 0, 68, 64
2, 90629, Note_off_c, 0, 75, 64
2, 90648, Note_off_c, 0, 59, 64
2, 90661, Control_c, 0, 64, 0
2, 90691, Control_c, 0, 64, 127
2, 90720, Control_c, 0, 64, 0
2, 90731, Note_on_c, 0, 72, 55
2, 90751, Control_c, 0, 64, 127
2, 90816, Control_c, 0, 64, 0
2, 90821, Note_on_c, 0, 57, 55
2, 90826, Note_off_c, 0, 67, 64
2, 90828, Note_on_c, 0, 73, 78
2, 90835, Note_off_c, 0, 58, 64
2, 90841, Note_off_c, 0, 72, 64
2, 90841, Control_c, 0, 64, 127
2, 90890, Control_c, 0, 64, 0
2, 90903, Note_on_c, 0, 77, 74
2, 90917, Note_off_c, 0, 76, 64
2, 90920, Control_c, 0, 64, 127
2, 90948, Note_off_c, 0, 73, 64
2, 91030, Note_on_c, 0, 78, 67
2, 91032, Note_on_c, 0, 74, 63
2, 91032, Note_on_c, 0, 66, 63
2, 91038, Note_off_c, 0, 77, 64
2, 91038, Note_on_c, 0, 38, 42
2, 91056, Control_c, 0, 64, 0
2, 91060, Note_off_c, 0, 57, 64
2, 91077, Control_c, 0, 64, 0
2, 91107, Control_c, 0, 64, 127
2, 91112, Control_c, 0, 64, 127
2, 91232, Control_c, 0, 64, 0
2, 91257, Control_c, 0, 64, 127
2, 91311, Note_on_c, 0, 50, 67
2, 91335, Control_c, 0, 64, 0
2, 91356, Control_c, 0, 64, 127
2, 91398, Note_on_c, 0, 54, 71
2, 91399, Note_off_c, 0, 78, 64
2, 91401, Note_off_c, 0, 66, 64
2, 91401, Note_off_c, 0, 74, 64
2, 91407, Note_off_c, 0, 38, 64
2, 91413, Note_off_c, 0, 50, 64
2, 91472, Control_c, 0, 64, 0
2, 91482, Note_on_c, 0, 52, 66
2, 91485, Note_on_c, 0, 57, 65
2, 91488, Note_on_c, 0, 66, 65
2, 91507, Note_off_c, 0, 54, 64
2, 91528, Control_c, 0, 64, 127
2, 91571, Note_on_c, 0, 50, 63
2, 91587, Note_off_c, 0, 52, 64
2, 91643, Control_c, 0, 64, 0
2, 91648, Note_on_c, 0, 58, 77
2, 91650, Note_on_c, 0, 67, 62
2, 91657, Note_on_c, 0, 49, 57
2, 91662, Note_off_c, 0, 57, 64
2, 91665, Note_off_c, 0, 66, 64
2, 91668, Note_off_c, 0, 50, 64
2, 91673, Control_c, 0, 64, 127
2, 91742, Note_on_c, 0, 68, 64
2, 91744, Note_on_c, 0, 65, 47
2, 91750, Note_off_c, 0, 58, 64
2, 91750, Note_on_c, 0, 59, 69
2, 91751, Control_c, 0, 64, 0
2, 91755, Note_off_c, 0, 67, 64
2, 91772, Control_c, 0, 64, 127
2, 91797, Note_off_c, 0, 59, 64
2, 91857, Control_c, 0, 64, 0
2, 91863, Note_on_c, 0, 69, 69
2, 91866, Note_on_c, 0, 60, 69
2, 91866, Note_on_c, 0, 48, 64
2, 91874, Note_off_c, 0, 49, 64
2, 91877, Note_off_c, 0, 68, 64
2, 91915, Control_c, 0, 64, 127
2, 92043, Note_off_c, 0, 48, 64
2, 92043, Note_off_c, 0, 60, 64
2, 92059, Control_c, 0, 64, 0
2, 92078, Note_on_c, 0, 36, 55
2, 92081, Note_on_c, 0, 64, 62
2, 92085, Note_on_c, 0, 58, 46
2, 92089, Control_c, 0, 64, 127
2, 92100, Note_off_c, 0, 65, 64
2, 92104, Control_c, 0, 64, 0
2, 92143, Control_c, 0, 64, 127
2, 92180, Note_off_c, 0, 69, 64
2, 92202, Note_on_c, 0, 67, 54
2, 92216, Note_off_c, 0, 64, 64
2, 92273, Control_c, 0, 64, 0
2, 92331, Control_c, 0, 64, 127
2, 92352, Note_on_c, 0, 65, 63
2, 92356, Note_on_c, 0, 41, 55
2, 92359, Note_off_c, 0, 67, 64
2, 92359, Note_off_c, 0, 36, 64
2, 92359, Note_on_c, 0, 57, 55
2, 92365, Control_c, 0, 64, 0
2, 92366, Note_off_c, 0, 58, 64
2, 92403, Control_c, 0, 64, 127
2, 92513, Note_off_c, 0, 65, 64
2, 92517, Note_off_c, 0, 41, 64
2, 92520, Note_off_c, 0, 57, 64
2, 92520, Control_c, 0, 64, 0
2, 92559, Control_c, 0, 64, 127
2, 92569, Note_on_c, 0, 62, 63
2, 92575, Note_on_c, 0, 53, 56
2, 92583, Control_c, 0, 64, 0
2, 92622, Control_c, 0, 64, 127
2, 92658, Note_on_c, 0, 57, 75
2, 92681, Note_off_c, 0, 53, 64
2, 92742, Note_on_c, 0, 55, 66
2, 92748, Note_on_c, 0, 69, 63
2, 92759, Note_off_c, 0, 57, 64
2, 92781, Control_c, 0, 64, 0
2, 92819, Control_c, 0, 64, 127
2, 92828, Note_on_c, 0, 53, 63
2, 92838, Note_off_c, 0, 55, 64
2, 92863, Control_c, 0, 64, 0
2, 92910, Control_c, 0, 64, 127
2, 92918, Note_on_c, 0, 70, 65
2, 92919, Note_on_c, 0, 61, 67
2, 92920, Note_on_c, 0, 52, 55
2, 92921, Note_off_c, 0, 62, 64
2, 92929, Note_off_c, 0, 69, 64
2, 92938, Note_off_c, 0, 53, 64
2, 92999, Control_c, 0, 64, 0
2, 93004, Note_on_c, 0, 68, 67
2, 93010, Note_on_c, 0, 71, 62
2, 93038, Note_off_c, 0, 70, 64
2, 93038, Control_c, 0, 64, 127
2, 93092, Note_on_c, 0, 67, 67
2, 93097, Note_on_c, 0, 72, 73
2, 93103, Control_c, 0, 64, 0
2, 93104, Note_off_c, 0, 68, 64
2, 93110, Note_off_c, 0, 71, 64
2, 93143, Control_c, 0, 64, 127
2, 93279, Control_c, 0, 64, 0
2, 93284, Control_c, 0, 64, 0
2, 93288, Note_on_c, 0, 61, 74
2, 93288, Note_on_c, 0, 51, 58
2, 93289, Note_off_c, 0, 61, 64
2, 93290, Note_off_c, 0, 52, 64
2, 93325, Control_c, 0, 64, 127
2, 93326, Control_c, 0, 64, 127
2, 93353, Note_off_c, 0, 72, 64
2, 93355, Note_on_c, 0, 70, 62
2, 93446, Note_off_c, 0, 51, 64
2, 93446, Note_off_c, 0, 61, 64
2, 93452, Note_on_c, 0, 68, 63
2, 93455, Note_on_c, 0, 44, 58
2, 93457, Note_on_c, 0, 72, 63
2, 93461, Note_on_c, 0, 60, 69
2, 93462, Note_off_c, 0, 67, 64
2, 93466, Control_c, 0, 64, 0
2, 93471, Note_off_c, 0, 70, 64
2, 93498, Control_c, 0, 64, 127
2, 93519, Control_c, 0, 64, 0
2, 93544, Note_on_c, 0, 65, 46
2, 93544, Note_on_c, 0, 56, 82
2, 93557, Note_off_c, 0, 44, 64
2, 93559, Control_c, 0, 64, 127
2, 93563, Note_off_c, 0, 60, 64
2, 93625, Note_on_c, 0, 73, 73
2, 93628, Note_on_c, 0, 55, 65
2, 93631, Note_on_c, 0, 64, 73
2, 93633, Control_c, 0, 64, 0
2, 93637, Note_off_c, 0, 56, 64
2, 93637, Note_off_c, 0, 65, 64
2, 93646, Note_off_c, 0, 68, 64
2, 93651, Note_off_c, 0, 72, 64
2, 93692, Control_c, 0, 64, 127
2, 93700, Control_c, 0, 64, 0
2, 93741, Control_c, 0, 64, 127
2, 93792, Note_on_c, 0, 54, 65
2, 93798, Note_off_c, 0, 55, 64
2, 93800, Note_on_c, 0, 70, 55
2, 93808, Control_c, 0, 64, 0
2, 93820, Note_off_c, 0, 64, 64
2, 93838, Control_c, 0, 64, 127
2, 93875, Note_on_c, 0, 74, 62
2, 93878, Note_off_c, 0, 73, 64
2, 93882, Control_c, 0, 64, 0
2, 93914, Control_c, 0, 64, 127
2, 93960, Note_on_c, 0, 75, 73
2, 93960, Note_on_c, 0, 63, 67
2, 93960, Note_on_c, 0, 59, 65
2, 93973, Note_off_c, 0, 54, 64
2, 93977, Control_c, 0, 64, 0
2, 93981, Note_off_c, 0, 74, 64
2, 93981, Note_off_c, 0, 70, 64
2, 93990, Control_c, 0, 64, 127
2, 94032, Note_off_c, 0, 59, 64
2, 94032, Note_on_c, 0, 61, 77
2, 94045, Note_off_c, 0, 63, 64
2, 94049, Control_c, 0, 64, 0
2, 94066, Note_on_c, 0, 68, 63
2, 94090, Note_on_c, 0, 59, 64
2, 94102, Note_off_c, 0, 61, 64
2, 94108, Control_c, 0, 64, 127
2, 94149, Note_on_c, 0, 58, 62
2, 94150, Control_c, 0, 64, 0
2, 94154, Note_on_c, 0, 67, 74
2, 94160, Note_on_c, 0, 76, 66
2, 94175, Note_off_c, 0, 75, 64
2, 94191, Note_off_c, 0, 68, 64
2, 94195, Control_c, 0, 64, 127
2, 94197, Note_off_c, 0, 59, 64
2, 94224, Control_c, 0, 64, 0
2, 94254, Control_c, 0, 64, 127
2, 94322, Note_on_c, 0, 57, 63
2, 94330, Note_off_c, 0, 58, 64
2, 94330, Control_c, 0, 64, 0
2, 94337, Note_on_c, 0, 73, 85
2, 94360, Control_c, 0, 64, 127
2, 94393, Control_c, 0, 64, 0
2, 94396, Note_off_c, 0, 67, 64
2, 94406, Control_c, 0, 64, 127
2, 94411, Note_on_c, 0, 77, 64
2, 94417, Note_off_c, 0, 76, 64
2, 94509, Note_on_c, 0, 78, 74
2, 94509, Note_on_c, 0, 62, 50
2, 94513, Note_on_c, 0, 66, 70
2, 94517, Note_off_c, 0, 57, 64
2, 94521, Note_off_c, 0, 77, 64
2, 94522, Control_c, 0, 64, 0
2, 94532, Note_off_c, 0, 73, 64
2, 94555, Control_c, 0, 64, 127
2, 94559, Note_on_c, 0, 64, 69
2, 94566, Control_c, 0, 64, 0
2, 94575, Note_off_c, 0, 62, 64
2, 94580, Note_on_c, 0, 71, 65
2, 94599, Note_on_c, 0, 62, 64
2, 94602, Note_off_c, 0, 66, 64
2, 94608, Note_off_c, 0, 64, 64
2, 94611, Control_c, 0, 64, 127
2, 94655, Note_off_c, 0, 71, 64
2, 94680, Note_on_c, 0, 79, 66
2, 94680, Note_on_c, 0, 61, 73
2, 94690, Note_on_c, 0, 70, 77
2, 94690, Control_c, 0, 64, 0
2, 94693, Note_off_c, 0, 78, 64
2, 94698, Note_off_c, 0, 62, 64
2, 94740, Control_c, 0, 64, 127
2, 94746, Control_c, 0, 64, 0
2, 94776, Control_c, 0, 64, 127
2, 94860, Control_c, 0, 64, 0
2, 94861, Note_off_c, 0, 61, 64
2, 94866, Note_on_c, 0, 73, 73
2, 94866, Note_on_c, 0, 64, 62
2, 94871, Note_off_c, 0, 70, 64
2, 94905, Control_c, 0, 64, 127
2, 94918, Note_on_c, 0, 66, 74
2, 94934, Note_off_c, 0, 64, 64
2, 94938, Control_c, 0, 64, 0
2, 94969, Note_on_c, 0, 64, 58
2, 94971, Control_c, 0, 64, 127
2, 94981, Note_off_c, 0, 66, 64
2, 95031, Note_on_c, 0, 78, 69
2, 95034, Note_on_c, 0, 71, 74
2, 95039, Note_off_c, 0, 79, 64
2, 95040, Note_off_c, 0, 73, 64
2, 95040, Note_on_c, 0, 63, 73
2, 95048, Control_c, 0, 64, 0
2, 95054, Note_off_c, 0, 64, 64
2, 95088, Control_c, 0, 64, 127
2, 95106, Control_c, 0, 64, 0
2, 95156, Control_c, 0, 64, 127
2, 95167, Note_off_c, 0, 78, 64
2, 95170, Note_on_c, 0, 80, 66
2, 95172, Note_on_c, 0, 64, 64
2, 95176, Note_off_c, 0, 63, 64
2, 95232, Note_on_c, 0, 72, 73
2, 95235, Note_on_c, 0, 81, 67
2, 95236, Note_on_c, 0, 66, 77
2, 95237, Note_on_c, 0, 75, 70
2, 95242, Note_off_c, 0, 80, 64
2, 95246, Note_off_c, 0, 64, 64
2, 95247, Note_off_c, 0, 71, 64
2, 95252, Control_c, 0, 64, 0
2, 95276, Control_c, 0, 64, 0
2, 95303, Control_c, 0, 64, 127
2, 95321, Control_c, 0, 64, 127
2, 95464, Control_c, 0, 64, 0
2, 95478, Note_on_c, 0, 73, 82
2, 95480, Note_on_c, 0, 67, 73
2, 95492, Control_c, 0, 64, 0
2, 95494, Note_off_c, 0, 66, 64
2, 95498, Note_off_c, 0, 72, 64
2, 95503, Note_off_c, 0, 75, 64
2, 95504, Control_c, 0, 64, 127
2, 95530, Control_c, 0, 64, 127
2, 95668, Control_c, 0, 64, 0
2, 95719, Control_c, 0, 64, 127
2, 95856, Note_on_c, 0, 76, 73
2, 95856, Note_on_c, 0, 68, 85
2, 95861, Note_on_c, 0, 80, 73
2, 95875, Note_off_c, 0, 81, 64
2, 95876, Note_off_c, 0, 67, 64
2, 95908, Control_c, 0, 64, 0
2, 95910, Control_c, 0, 64, 0
2, 95946, Control_c, 0, 64, 127
2, 95967, Control_c, 0, 64, 127
2, 96221, Note_on_c, 0, 79, 56
2, 96231, Note_off_c, 0, 80, 64
2, 96308, Note_on_c, 0, 80, 62
2, 96326, Control_c, 0, 64, 0
2, 96333, Note_off_c, 0, 79, 64
2, 96383, Control_c, 0, 64, 127
2, 96391, Note_on_c, 0, 81, 59
2, 96408, Note_off_c, 0, 80, 64
2, 96477, Note_off_c, 0, 76, 64
2, 96479, Note_off_c, 0, 68, 64
2, 96480, Note_off_c, 0, 73, 64
2, 96491, Note_on_c, 0, 72, 66
2, 96497, Note_on_c, 0, 68, 83
2, 96499, Note_on_c, 0, 75, 56
2, 96499, Note_on_c, 0, 66, 80
2, 96503, Note_on_c, 0, 80, 75
2, 96514, Note_off_c, 0, 81, 64
2, 96528, Control_c, 0, 64, 0
2, 96576, Control_c, 0, 64, 127
2, 96605, Note_on_c, 0, 79, 62
2, 96620, Note_off_c, 0, 80, 64
2, 96690, Note_on_c, 0, 80, 64
2, 96726, Note_off_c, 0, 79, 64
2, 96892, Note_on_c, 0, 81, 62
2, 96908, Note_off_c, 0, 80, 64
2, 96944, Control_c, 0, 64, 0
2, 96992, Control_c, 0, 64, 127
2, 97148, Note_off_c, 0, 72, 64
2, 97154, Note_off_c, 0, 68, 64
2, 97155, Note_on_c, 0, 80, 79
2, 97156, Note_off_c, 0, 66, 64
2, 97156, Note_off_c, 0, 75, 64
2, 97156, Note_on_c, 0, 64, 74
2, 97158, Note_on_c, 0, 73, 73
2, 97163, Note_on_c, 0, 68, 73
2, 97171, Note_off_c, 0, 81, 64
2, 97219, Control_c, 0, 64, 0
2, 97284, Control_c, 0, 64, 127
2, 97535, Note_on_c, 0, 79, 57
2, 97553, Note_off_c, 0, 80, 64
2, 97635, Control_c, 0, 64, 0
2, 97648, Note_on_c, 0, 80, 55
2, 97670, Note_off_c, 0, 79, 64
2, 97700, Control_c, 0, 64, 127
2, 97746, Note_on_c, 0, 81, 60
2, 97769, Note_off_c, 0, 80, 64
2, 97847, Note_off_c, 0, 64, 64
2, 97849, Note_off_c, 0, 73, 64
2, 97854, Note_off_c, 0, 68, 64
2, 97864, Note_on_c, 0, 78, 64
2, 97868, Note_on_c, 0, 68, 63
2, 97870, Note_on_c, 0, 80, 77
2, 97870, Note_on_c, 0, 72, 67
2, 97871, Note_on_c, 0, 66, 66
2, 97871, Note_on_c, 0, 63, 62
2, 97885, Note_off_c, 0, 81, 64
2, 97893, Control_c, 0, 64, 0
2, 97959, Control_c, 0, 64, 127
2, 98014, Note_on_c, 0, 79, 62
2, 98034, Note_off_c, 0, 80, 64
2, 98123, Note_on_c, 0, 80, 67
2, 98146, Note_off_c, 0, 79, 64
2, 98309, Control_c, 0, 64, 0
2, 98375, Control_c, 0, 64, 127
2, 98391, Note_on_c, 0, 81, 47
2, 98412, Note_off_c, 0, 80, 64
2, 98702, Note_off_c, 0, 68, 64
2, 98704, Note_off_c, 0, 63, 64
2, 98704, Note_off_c, 0, 66, 64
2, 98704, Note_off_c, 0, 72, 64
2, 98704, Note_off_c, 0, 78, 64
2, 98704, Note_on_c, 0, 80, 97
2, 98704, Note_on_c, 0, 73, 62
2, 98704, Note_on_c, 0, 68, 66
2, 98704, Note_on_c, 0, 64, 65
2, 98704, Note_on_c, 0, 56, 65
2, 98708, Note_on_c, 0, 76, 69
2, 98725, Note_off_c, 0, 81, 64
2, 98762, Control_c, 0, 64, 0
2, 98873, Control_c, 0, 64, 127
2, 99165, Note_off_c, 0, 76, 64
2, 99178, Control_c, 0, 64, 0
2, 99213, Note_on_c, 0, 79, 66
2, 99250, Note_off_c, 0, 80, 64
2, 99289, Control_c, 0, 64, 127
2, 99373, Note_on_c, 0, 80, 64
2, 99396, Note_off_c, 0, 79, 64
2, 99502, Note_on_c, 0, 76, 58
2, 99503, Note_off_c, 0, 73, 64
2, 99546, Note_off_c, 0, 80, 64
2, 99607, Note_on_c, 0, 75, 58
2, 99624, Note_off_c, 0, 76, 64
2, 99708, Note_on_c, 0, 73, 58
2, 99723, Note_off_c, 0, 75, 64
2, 99740, Control_c, 0, 64, 0
2, 99830, Note_on_c, 0, 76, 59
2, 99852, Note_off_c, 0, 73, 64
2, 99863, Control_c, 0, 64, 127
2, 99923, Note_off_c, 0, 68, 64
2, 99968, Note_off_c, 0, 64, 64
2, 100047, Note_off_c, 0, 56, 64
2, 100060, Note_on_c, 0, 72, 59
2, 100077, Note_off_c, 0, 76, 64
2, 100086, Control_c, 0, 64, 0
2, 100133, Control_c, 0, 64, 127
2, 100156, Control_c, 0, 64, 0
2, 100279, Control_c, 0, 64, 127
2, 100368, Note_on_c, 0, 75, 58
2, 100385, Note_off_c, 0, 72, 64
2, 100390, Control_c, 0, 64, 0
2, 100455, Control_c, 0, 64, 127
2, 100502, Control_c, 0, 64, 0
2, 100549, Control_c, 0, 64, 127
2, 100806, Control_c, 0, 64, 0
2, 100814, Note_on_c, 0, 73, 60
2, 100825, Note_off_c, 0, 75, 64
2, 100856, Control_c, 0, 64, 0
2, 100871, Control_c, 0, 64, 127
2, 100885, Control_c, 0, 64, 127
2, 100956, Note_on_c, 0, 64, 55
2, 100984, Note_off_c, 0, 73, 64
2, 101078, Control_c, 0, 64, 0
2, 101084, Note_on_c, 0, 69, 58
2, 101110, Note_off_c, 0, 64, 64
2, 101130, Control_c, 0, 64, 127
2, 101225, Note_on_c, 0, 68, 63
2, 101244, Note_off_c, 0, 69, 64
2, 101272, Control_c, 0, 64, 0
2, 101301, Control_c, 0, 64, 127
2, 101351, Note_on_c, 0, 56, 58
2, 101376, Note_off_c, 0, 68, 64
2, 101494, Control_c, 0, 64, 0
2, 101523, Note_on_c, 0, 64, 56
2, 101535, Control_c, 0, 64, 0
2, 101546, Control_c, 0, 64, 127
2, 101581, Control_c, 0, 64, 127
2, 101597, Note_off_c, 0, 56, 64
2, 101880, Note_on_c, 0, 44, 39
2, 101884, Note_on_c, 0, 54, 33
2, 101885, Note_on_c, 0, 63, 62
2, 101906, Note_off_c, 0, 64, 64
2, 101941, Control_c, 0, 64, 0
2, 101951, Control_c, 0, 64, 0
2, 101990, Control_c, 0, 64, 127
2, 101997, Control_c, 0, 64, 127
2, 102344, Note_on_c, 0, 52, 46
2, 102346, Note_on_c, 0, 61, 50
2, 102348, Note_on_c, 0, 49, 29
2, 102351, Note_off_c, 0, 44, 64
2, 102355, Note_off_c, 0, 54, 64
2, 102356, Note_off_c, 0, 63, 64
2, 102357, Control_c, 0, 64, 0
2, 102395, Control_c, 0, 64, 0
2, 102406, Control_c, 0, 64, 127
2, 102458, Control_c, 0, 64, 127
2, 102670, Note_on_c, 0, 56, 55
2, 102689, Note_off_c, 0, 52, 64
2, 102699, Control_c, 0, 64, 0
2, 102746, Control_c, 0, 64, 127
2, 102792, Note_on_c, 0, 59, 64
2, 102805, Note_off_c, 0, 56, 64
2, 102811, Control_c, 0, 64, 0
2, 102874, Control_c, 0, 64, 127
2, 102906, Note_on_c, 0, 57, 55
2, 102919, Note_off_c, 0, 59, 64
2, 103003, Note_on_c, 0, 56, 63
2, 103019, Note_off_c, 0, 57, 64
2, 103109, Note_on_c, 0, 54, 52
2, 103115, Control_c, 0, 64, 0
2, 103116, Note_on_c, 0, 63, 65
2, 103135, Note_off_c, 0, 56, 64
2, 103139, Control_c, 0, 64, 0
2, 103162, Control_c, 0, 64, 127
2, 103194, Control_c, 0, 64, 127
2, 103224, Note_on_c, 0, 51, 70
2, 103236, Note_off_c, 0, 54, 64
2, 103351, Note_off_c, 0, 63, 64
2, 103358, Note_off_c, 0, 61, 64
2, 103384, Note_on_c, 0, 60, 46
2, 103385, Note_on_c, 0, 63, 58
2, 103389, Note_on_c, 0, 56, 56
2, 103396, Note_off_c, 0, 51, 64
2, 103436, Control_c, 0, 64, 0
2, 103547, Control_c, 0, 64, 127
2, 103555, Control_c, 0, 64, 0
2, 103610, Control_c, 0, 64, 127
2, 103731, Note_off_c, 0, 63, 64
2, 103741, Note_on_c, 0, 68, 50
2, 103852, Control_c, 0, 64, 0
2, 103882, Note_on_c, 0, 54, 56
2, 103903, Note_off_c, 0, 60, 64
2, 103942, Note_off_c, 0, 56, 64
2, 103963, Control_c, 0, 64, 127
2, 103993, Note_off_c, 0, 68, 64
2, 104042, Note_off_c, 0, 54, 64
2, 104074, Note_on_c, 0, 61, 46
2, 104076, Note_on_c, 0, 52, 48
2, 104078, Note_on_c, 0, 68, 39
2, 104138, Control_c, 0, 64, 0
2, 104213, Control_c, 0, 64, 127
2, 104220, Note_off_c, 0, 52, 64
2, 104343, Note_on_c, 0, 56, 44
2, 104461, Note_on_c, 0, 59, 59
2, 104463, Note_off_c, 0, 56, 64
2, 104554, Control_c, 0, 64, 0
2, 104572, Note_on_c, 0, 57, 54
2, 104573, Note_on_c, 0, 66, 57
2, 104592, Control_c, 0, 64, 0
2, 104605, Note_off_c, 0, 59, 64
2, 104623, Note_off_c, 0, 68, 64
2, 104629, Control_c, 0, 64, 127
2, 104634, Control_c, 0, 64, 127
2, 104667, Note_on_c, 0, 56, 55
2, 104670, Note_on_c, 0, 64, 62
2, 104696, Note_off_c, 0, 57, 64
2, 104700, Note_off_c, 0, 66, 64
2, 104763, Note_off_c, 0, 64, 64
2, 104772, Note_on_c, 0, 54, 62
2, 104773, Note_on_c, 0, 63, 62
2, 104804, Note_off_c, 0, 56, 64
2, 104820, Control_c, 0, 64, 0
2, 104876, Control_c, 0, 64, 127
2, 104881, Note_on_c, 0, 51, 73
2, 104892, Note_off_c, 0, 54, 64
2, 104925, Note_off_c, 0, 63, 64
2, 104961, Note_off_c, 0, 61, 64
2, 105007, Note_on_c, 0, 56, 71
2, 105008, Control_c, 0, 64, 0
2, 105013, Note_off_c, 0, 51, 64
2, 105018, Note_on_c, 0, 63, 59
2, 105018, Note_on_c, 0, 60, 48
2, 105043, Control_c, 0, 64, 0
2, 105050, Control_c, 0, 64, 127
2, 105126, Control_c, 0, 64, 127
2, 105236, Control_c, 0, 64, 0
2, 105292, Control_c, 0, 64, 127
2, 105316, Note_on_c, 0, 68, 59
2, 105446, Note_off_c, 0, 56, 64
2, 105453, Note_on_c, 0, 54, 62
2, 105459, Control_c, 0, 64, 0
2, 105462, Note_off_c, 0, 60, 64
2, 105475, Note_off_c, 0, 63, 64
2, 105517, Note_off_c, 0, 68, 64
2, 105542, Control_c, 0, 64, 127
2, 105648, Note_on_c, 0, 61, 56
2, 105648, Note_on_c, 0, 44, 33
2, 105649, Note_on_c, 0, 37, 63
2, 105650, Note_on_c, 0, 68, 62
2, 105653, Note_off_c, 0, 49, 64
2, 105684, Note_off_c, 0, 54, 64
2, 105685, Control_c, 0, 64, 0
2, 105760, Control_c, 0, 64, 127
2, 105989, Note_on_c, 0, 56, 40
2, 106097, Note_on_c, 0, 59, 34
2, 106100, Note_on_c, 0, 63, 46
2, 106101, Control_c, 0, 64, 0
2, 106115, Note_off_c, 0, 56, 64
2, 106120, Control_c, 0, 64, 0
2, 106130, Note_off_c, 0, 68, 64
2, 106159, Control_c, 0, 64, 127
2, 106176, Control_c, 0, 64, 127
2, 106208, Note_on_c, 0, 57, 50
2, 106212, Note_on_c, 0, 66, 44
2, 106238, Note_off_c, 0, 59, 64
2, 106241, Note_off_c, 0, 63, 64
2, 106316, Note_on_c, 0, 64, 50
2, 106316, Note_on_c, 0, 56, 50
2, 106344, Note_off_c, 0, 57, 64
2, 106348, Note_off_c, 0, 66, 64
2, 106424, Note_on_c, 0, 63, 51
2, 106424, Note_on_c, 0, 54, 51
2, 106442, Control_c, 0, 64, 0
2, 106445, Note_off_c, 0, 56, 64
2, 106445, Note_off_c, 0, 64, 64
2, 106506, Control_c, 0, 64, 127
2, 106524, Note_on_c, 0, 51, 56
2, 106536, Control_c, 0, 64, 0
2, 106544, Note_off_c, 0, 54, 64
2, 106575, Control_c, 0, 64, 127
2, 106641, Note_off_c, 0, 63, 64
2, 106642, Note_off_c, 0, 61, 64
2, 106652, Note_on_c, 0, 60, 39
2, 106652, Note_on_c, 0, 56, 62
2, 106656, Note_on_c, 0, 63, 48
2, 106660, Note_off_c, 0, 51, 64
2, 106684, Control_c, 0, 64, 0
2, 106756, Control_c, 0, 64, 127
2, 106858, Control_c, 0, 64, 0
2, 106897, Note_on_c, 0, 68, 49
2, 106922, Control_c, 0, 64, 127
2, 107010, Note_on_c, 0, 54, 32
2, 107018, Note_off_c, 0, 56, 64
2, 107100, Control_c, 0, 64, 0
2, 107121, Note_off_c, 0, 68, 64
2, 107125, Note_off_c, 0, 60, 64
2, 107129, Note_off_c, 0, 63, 64
2, 107150, Note_on_c, 0, 52, 39
2, 107154, Note_on_c, 0, 68, 50
2, 107157, Note_on_c, 0, 61, 46
2, 107160, Note_off_c, 0, 54, 64
2, 107172, Control_c, 0, 64, 127
2, 107180, Control_c, 0, 64, 0
2, 107255, Control_c, 0, 64, 127
2, 107279, Note_on_c, 0, 73, 49
2, 107319, Note_off_c, 0, 68, 64
2, 107412, Note_on_c, 0, 56, 52
2, 107424, Note_off_c, 0, 52, 64
2, 107442, Control_c, 0, 64, 0
2, 107472, Control_c, 0, 64, 127
2, 107527, Note_on_c, 0, 59, 62
2, 107541, Note_off_c, 0, 56, 64
2, 107563, Note_off_c, 0, 73, 64
2, 107596, Control_c, 0, 64, 0
2, 107655, Note_on_c, 0, 73, 57
2, 107655, Note_on_c, 0, 57, 49
2, 107671, Control_c, 0, 64, 127
2, 107675, Note_off_c, 0, 59, 64
2, 107682, Control_c, 0, 64, 0
2, 107721, Control_c, 0, 64, 127
2, 107772, Note_on_c, 0, 56, 46
2, 107776, Note_on_c, 0, 64, 51
2, 107794, Note_off_c, 0, 73, 64
2, 107800, Note_off_c, 0, 57, 64
2, 107858, Control_c, 0, 64, 0
2, 107888, Control_c, 0, 64, 127
2, 107928, Note_on_c, 0, 54, 48
2, 107934, Note_on_c, 0, 63, 52
2, 107954, Note_off_c, 0, 56, 64
2, 107957, Note_off_c, 0, 64, 64
2, 107970, Control_c, 0, 64, 0
2, 108015, Control_c, 0, 64, 127
2, 108078, Note_on_c, 0, 51, 54
2, 108097, Note_off_c, 0, 54, 64
2, 108098, Control_c, 0, 64, 0
2, 108137, Control_c, 0, 64, 127
2, 108238, Note_off_c, 0, 61, 64
2, 108241, Note_off_c, 0, 63, 64
2, 108264, Note_on_c, 0, 60, 34
2, 108266, Note_on_c, 0, 63, 47
2, 108267, Note_on_c, 0, 56, 44
2, 108273, Note_off_c, 0, 51, 64
2, 108300, Control_c, 0, 64, 0
2, 108358, Control_c, 0, 64, 127
2, 108386, Control_c, 0, 64, 0
2, 108431, Control_c, 0, 64, 127
2, 108681, Note_on_c, 0, 64, 35
2, 108697, Note_off_c, 0, 63, 64
2, 108716, Control_c, 0, 64, 0
2, 108768, Note_off_c, 0, 44, 64
2, 108769, Note_off_c, 0, 37, 64
2, 108774, Control_c, 0, 64, 127
2, 108832, Note_off_c, 0, 56, 64
2, 108842, Note_off_c, 0, 60, 64
2, 108877, Note_on_c, 0, 56, 33
2, 109128, Note_on_c, 0, 61, 33
2, 109128, Note_on_c, 0, 52, 25
2, 109132, Note_on_c, 0, 44, 23
2, 109134, Note_off_c, 0, 64, 64
2, 109135, Note_on_c, 0, 37, 44
2, 109167, Note_off_c, 0, 56, 64
2, 109173, Control_c, 0, 64, 0
2, 109227, Control_c, 0, 64, 127
2, 109324, Note_on_c, 0, 68, 48
2, 109521, Note_on_c, 0, 73, 34
2, 109551, Note_off_c, 0, 68, 64
2, 109589, Control_c, 0, 64, 0
2, 109593, Control_c, 0, 64, 0
2, 109623, Control_c, 0, 64, 127
2, 109643, Control_c, 0, 64, 127
2, 110007, Note_off_c, 0, 73, 64
2, 110009, Control_c, 0, 64, 0
2, 110019, Note_on_c, 0, 68, 25
2, 110039, Control_c, 0, 64, 127
2, 110196, Note_on_c, 0, 73, 34
2, 110224, Note_off_c, 0, 68, 64
2, 110360, Note_on_c, 0, 68, 26
2, 110374, Note_off_c, 0, 73, 64
2, 110555, Note_on_c, 0, 73, 44
2, 110594, Note_off_c, 0, 68, 64
2, 110709, Note_off_c, 0, 61, 64
2, 111062, Note_on_c, 0, 61, 31
2, 111097, Note_off_c, 0, 73, 64
2, 111240, Note_on_c, 0, 68, 26
2, 111284, Note_off_c, 0, 61, 64
2, 111428, Note_on_c, 0, 61, 24
2, 111518, Note_off_c, 0, 68, 64
2, 111638, Note_on_c, 0, 73, 32
2, 111772, Note_off_c, 0, 61, 64
2, 111778, Note_off_c, 0, 44, 64
2, 111796, Note_off_c, 0, 52, 64
2, 111801, Note_off_c, 0, 37, 64
2, 111805, Note_off_c, 0, 73, 64
2, 112138, Note_on_c, 0, 68, 90
2, 112140, Note_on_c, 0, 56, 97
2, 112145, Note_on_c, 0, 44, 105
2, 112147, Note_on_c, 0, 32, 97
2, 112153, Control_c, 0, 64, 0
2, 112171, Note_off_c, 0, 32, 64
2, 112174, Note_off_c, 0, 56, 64
2, 112176, Note_off_c, 0, 44, 64
2, 112176, Note_off_c, 0, 68, 64
2, 112207, Note_on_c, 0, 56, 97
2, 112208, Note_on_c, 0, 68, 90
2, 112208, Note_on_c, 0, 44, 99
2, 112214, Note_on_c, 0, 32, 99
2, 112326, Note_off_c, 0, 68, 64
2, 112335, Note_off_c, 0, 56, 64
2, 112341, Note_off_c, 0, 32, 64
2, 112348, Note_off_c, 0, 44, 64
2, 112524, Note_on_c, 0, 37, 101
2, 112525, Note_on_c, 0, 61, 104
2, 112532, Note_on_c, 0, 49, 113
2, 112569, Control_c, 0, 64, 0
2, 112796, Note_off_c, 0, 37, 64
2, 112797, Note_off_c, 0, 61, 64
2, 112804, Note_off_c, 0, 49, 64
2, 114692, Control_c, 0, 64, 127
