0, 0, Header, 1, 7, 240
1, 0, Start_track
1, 0, Time_signature, 4, 2, 24, 8
1, 0, Tempo, 500000
1, 0, Marker_t, "Chopin : Mazurka, Op. 33 No. 2- Vivace"
1, 0, End_track
2, 0, Start_track
2, 0, Title_t, "Chopin: Op. 33 No. 2"
2, 0, Program_c, 0, 0
2, 0, Control_c, 0, 7, 127
2, 220, Control_c, 0, 64, 0
2, 220, Control_c, 0, 64, 0
2, 346, Control_c, 0, 64, 127
2, 346, Control_c, 0, 64, 127
2, 802, Note_on_c, 0, 69, 65
2, 826, Control_c, 0, 64, 127
2, 826, Control_c, 0, 64, 127
2, 940, Control_c, 0, 64, 0
2, 940, Control_c, 0, 64, 0
2, 976, Note_on_c, 0, 66, 57
2, 986, Note_on_c, 0, 50, 43
2, 1020, Control_c, 0, 64, 127
2, 1020, Control_c, 0, 64, 127
2, 1058, Note_off_c, 0, 66, 64
2, 1058, Note_on_c, 0, 73, 63
2, 1068, Note_off_c, 0, 50, 64
2, 1077, Note_off_c, 0, 69, 64
2, 1120, Control_c, 0, 64, 0
2, 1120, Control_c, 0, 64, 0
2, 1137, Note_on_c, 0, 74, 68
2, 1137, Note_on_c, 0, 66, 35
2, 1142, Note_on_c, 0, 50, 32
2, 1143, Note_on_c, 0, 57, 34
2, 1146, Note_off_c, 0, 73, 64
2, 1157, Control_c, 0, 64, 127
2, 1157, Control_c, 0, 64, 127
2, 1188, Note_off_c, 0, 66, 64
2, 1193, Note_off_c, 0, 50, 64
2, 1194, Note_off_c, 0, 57, 64
2, 1218, Note_on_c, 0, 76, 60
2, 1232, Note_off_c, 0, 74, 64
2, 1234, Control_c, 0, 64, 0
2, 1234, Control_c, 0, 64, 0
2, 1272, Note_on_c, 0, 57, 53
2, 1273, Note_on_c, 0, 66, 60
2, 1275, Note_on_c, 0, 78, 73
2, 1278, Note_on_c, 0, 50, 53
2, 1293, Control_c, 0, 64, 127
2, 1293, Control_c, 0, 64, 127
2, 1294, Control_c, 0, 64, 127
2, 1294, Control_c, 0, 64, 127
2, 1297, Note_off_c, 0, 76, 64
2, 1323, Note_off_c, 0, 57, 64
2, 1324, Note_off_c, 0, 66, 64
2, 1329, Note_off_c, 0, 50, 64
2, 1346, Note_on_c, 0, 79, 56
2, 1368, Note_off_c, 0, 78, 64
2, 1425, Control_c, 0, 64, 0
2, 1425, Control_c, 0, 64, 0
2, 1429, Note_on_c, 0, 78, 73
2, 1434, Note_on_c, 0, 45, 53
2, 1442, Control_c, 0, 64, 127
2, 1442, Control_c, 0, 64, 127
2, 1447, Note_off_c, 0, 79, 64
2, 1454, Note_on_c, 0, 79, 60
2, 1471, Note_off_c, 0, 78, 64
2, 1506, Note_on_c, 0, 78, 68
2, 1516, Note_off_c, 0, 45, 64
2, 1523, Note_off_c, 0, 79, 64
2, 1545, Control_c, 0, 64, 0
2, 1545, Control_c, 0, 64, 0
2, 1564, Note_on_c, 0, 67, 35
2, 1566, Note_on_c, 0, 76, 63
2, 1568, Note_on_c, 0, 64, 17
2, 1568, Note_on_c, 0, 61, 34
2, 1568, Note_on_c, 0, 52, 21
2, 1584, Note_off_c, 0, 78, 64
2, 1588, Control_c, 0, 64, 127
2, 1588, Control_c, 0, 64, 127
2, 1589, Control_c, 0, 64, 127
2, 1589, Control_c, 0, 64, 127
2, 1615, Note_off_c, 0, 67, 64
2, 1619, Note_off_c, 0, 52, 64
2, 1619, Note_off_c, 0, 61, 64
2, 1619, Note_off_c, 0, 64, 64
2, 1621, Note_on_c, 0, 74, 68
2, 1633, Note_off_c, 0, 76, 64
2, 1680, Note_on_c, 0, 61, 43
2, 1680, Note_on_c, 0, 52, 35
2, 1684, Note_on_c, 0, 67, 60
2, 1684, Note_on_c, 0, 64, 35
2, 1687, Note_on_c, 0, 73, 68
2, 1698, Note_off_c, 0, 74, 64
2, 1709, Control_c, 0, 64, 127
2, 1709, Control_c, 0, 64, 127
2, 1731, Note_off_c, 0, 52, 64
2, 1731, Note_off_c, 0, 61, 64
2, 1735, Note_off_c, 0, 64, 64
2, 1735, Note_off_c, 0, 67, 64
2, 1749, Note_on_c, 0, 71, 54
2, 1776, Note_off_c, 0, 73, 64
2, 1808, Control_c, 0, 64, 0
2, 1808, Control_c, 0, 64, 0
2, 1821, Note_on_c, 0, 69, 67
2, 1825, Note_off_c, 0, 71, 64
2, 1825, Note_on_c, 0, 38, 64
2, 1831, Control_c, 0, 64, 127
2, 1831, Control_c, 0, 64, 127
2, 1886, Note_on_c, 0, 74, 69
2, 1907, Note_off_c, 0, 38, 64
2, 1918, Note_off_c, 0, 69, 64
2, 1928, Note_off_c, 0, 74, 64
2, 1941, Control_c, 0, 64, 0
2, 1941, Control_c, 0, 64, 0
2, 1958, Note_on_c, 0, 74, 60
2, 1961, Note_on_c, 0, 66, 35
2, 1965, Note_on_c, 0, 50, 24
2, 1971, Note_on_c, 0, 62, 28
2, 1971, Note_on_c, 0, 57, 24
2, 1971, Control_c, 0, 64, 127
2, 1971, Control_c, 0, 64, 127
2, 1981, Control_c, 0, 64, 127
2, 1981, Control_c, 0, 64, 127
2, 2005, Note_on_c, 0, 76, 60
2, 2012, Note_off_c, 0, 66, 64
2, 2016, Note_off_c, 0, 50, 64
2, 2018, Note_off_c, 0, 74, 64
2, 2022, Note_off_c, 0, 57, 64
2, 2022, Note_off_c, 0, 62, 64
2, 2056, Note_on_c, 0, 74, 60
2, 2072, Note_off_c, 0, 76, 64
2, 2096, Note_on_c, 0, 73, 69
2, 2100, Note_on_c, 0, 66, 60
2, 2100, Note_on_c, 0, 62, 43
2, 2100, Note_on_c, 0, 50, 45
2, 2103, Note_on_c, 0, 57, 19
2, 2115, Note_off_c, 0, 74, 64
2, 2125, Control_c, 0, 64, 127
2, 2125, Control_c, 0, 64, 127
2, 2148, Note_on_c, 0, 71, 65
2, 2151, Note_off_c, 0, 50, 64
2, 2151, Note_off_c, 0, 62, 64
2, 2151, Note_off_c, 0, 66, 64
2, 2154, Note_off_c, 0, 57, 64
2, 2169, Note_off_c, 0, 73, 64
2, 2219, Note_on_c, 0, 73, 69
2, 2223, Control_c, 0, 64, 0
2, 2223, Control_c, 0, 64, 0
2, 2227, Note_off_c, 0, 71, 64
2, 2233, Note_on_c, 0, 45, 43
2, 2276, Control_c, 0, 64, 127
2, 2276, Control_c, 0, 64, 127
2, 2368, Control_c, 0, 64, 0
2, 2368, Control_c, 0, 64, 0
2, 2388, Note_on_c, 0, 57, 26
2, 2390, Note_on_c, 0, 69, 24
2, 2392, Note_on_c, 0, 64, 23
2, 2394, Note_off_c, 0, 45, 64
2, 2400, Control_c, 0, 64, 127
2, 2400, Control_c, 0, 64, 127
2, 2470, Note_off_c, 0, 57, 64
2, 2472, Note_off_c, 0, 69, 64
2, 2474, Note_off_c, 0, 64, 64
2, 2600, Note_on_c, 0, 67, 35
2, 2600, Note_on_c, 0, 64, 45
2, 2600, Note_on_c, 0, 57, 35
2, 2602, Note_on_c, 0, 69, 53
2, 2626, Control_c, 0, 64, 0
2, 2626, Control_c, 0, 64, 0
2, 2653, Control_c, 0, 64, 127
2, 2653, Control_c, 0, 64, 127
2, 2664, Note_off_c, 0, 73, 64
2, 2682, Note_off_c, 0, 57, 64
2, 2682, Note_off_c, 0, 64, 64
2, 2682, Note_off_c, 0, 67, 64
2, 2684, Note_off_c, 0, 69, 64
2, 2688, Control_c, 0, 64, 127
2, 2688, Control_c, 0, 64, 127
2, 2692, Control_c, 0, 64, 127
2, 2692, Control_c, 0, 64, 127
2, 2799, Control_c, 0, 64, 0
2, 2799, Control_c, 0, 64, 0
2, 2805, Note_on_c, 0, 69, 54
2, 2808, Note_on_c, 0, 50, 47
2, 2816, Control_c, 0, 64, 127
2, 2816, Control_c, 0, 64, 127
2, 2867, Note_on_c, 0, 73, 68
2, 2874, Note_off_c, 0, 69, 64
2, 2890, Note_off_c, 0, 50, 64
2, 2911, Control_c, 0, 64, 0
2, 2911, Control_c, 0, 64, 0
2, 2936, Control_c, 0, 64, 127
2, 2936, Control_c, 0, 64, 127
2, 2942, Note_on_c, 0, 74, 68
2, 2946, Note_on_c, 0, 66, 43
2, 2948, Note_on_c, 0, 62, 23
2, 2950, Note_on_c, 0, 57, 28
2, 2952, Note_off_c, 0, 73, 64
2, 2997, Note_off_c, 0, 66, 64
2, 2999, Note_off_c, 0, 62, 64
2, 3001, Note_off_c, 0, 57, 64
2, 3009, Note_on_c, 0, 76, 60
2, 3027, Note_off_c, 0, 74, 64
2, 3062, Note_on_c, 0, 78, 68
2, 3064, Note_on_c, 0, 62, 34
2, 3064, Note_on_c, 0, 57, 43
2, 3065, Note_on_c, 0, 66, 60
2, 3065, Note_on_c, 0, 50, 53
2, 3084, Note_off_c, 0, 76, 64
2, 3085, Control_c, 0, 64, 127
2, 3085, Control_c, 0, 64, 127
2, 3115, Note_off_c, 0, 57, 64
2, 3115, Note_off_c, 0, 62, 64
2, 3116, Note_off_c, 0, 50, 64
2, 3116, Note_off_c, 0, 66, 64
2, 3133, Note_on_c, 0, 79, 43
2, 3152, Note_off_c, 0, 78, 64
2, 3202, Note_on_c, 0, 43, 46
2, 3208, Note_on_c, 0, 78, 69
2, 3216, Note_off_c, 0, 79, 64
2, 3229, Note_on_c, 0, 79, 60
2, 3247, Note_off_c, 0, 78, 64
2, 3284, Note_off_c, 0, 43, 64
2, 3284, Note_on_c, 0, 78, 68
2, 3303, Note_off_c, 0, 79, 64
2, 3314, Control_c, 0, 64, 0
2, 3314, Control_c, 0, 64, 0
2, 3336, Note_on_c, 0, 67, 43
2, 3336, Note_on_c, 0, 59, 39
2, 3337, Note_on_c, 0, 64, 39
2, 3339, Note_on_c, 0, 76, 60
2, 3348, Control_c, 0, 64, 127
2, 3348, Control_c, 0, 64, 127
2, 3358, Note_off_c, 0, 78, 64
2, 3365, Control_c, 0, 64, 127
2, 3365, Control_c, 0, 64, 127
2, 3387, Note_off_c, 0, 59, 64
2, 3387, Note_off_c, 0, 67, 64
2, 3388, Note_off_c, 0, 64, 64
2, 3395, Note_on_c, 0, 74, 68
2, 3402, Note_off_c, 0, 76, 64
2, 3448, Note_on_c, 0, 59, 34
2, 3448, Note_on_c, 0, 52, 47
2, 3450, Note_on_c, 0, 73, 75
2, 3452, Note_on_c, 0, 67, 60
2, 3454, Note_on_c, 0, 64, 45
2, 3461, Note_off_c, 0, 74, 64
2, 3477, Control_c, 0, 64, 127
2, 3477, Control_c, 0, 64, 127
2, 3499, Note_off_c, 0, 52, 64
2, 3499, Note_off_c, 0, 59, 64
2, 3503, Note_off_c, 0, 67, 64
2, 3505, Note_off_c, 0, 64, 64
2, 3515, Note_on_c, 0, 71, 56
2, 3532, Note_off_c, 0, 73, 64
2, 3576, Note_on_c, 0, 45, 53
2, 3578, Note_on_c, 0, 69, 60
2, 3585, Control_c, 0, 64, 0
2, 3585, Control_c, 0, 64, 0
2, 3597, Note_off_c, 0, 71, 64
2, 3597, Control_c, 0, 64, 127
2, 3597, Control_c, 0, 64, 127
2, 3646, Note_on_c, 0, 73, 68
2, 3658, Note_off_c, 0, 45, 64
2, 3659, Note_off_c, 0, 69, 64
2, 3684, Note_off_c, 0, 73, 64
2, 3712, Note_on_c, 0, 73, 69
2, 3712, Note_on_c, 0, 64, 38
2, 3716, Note_on_c, 0, 67, 28
2, 3719, Note_on_c, 0, 57, 28
2, 3759, Note_on_c, 0, 74, 65
2, 3763, Note_off_c, 0, 64, 64
2, 3767, Note_off_c, 0, 67, 64
2, 3768, Note_off_c, 0, 73, 64
2, 3770, Note_off_c, 0, 57, 64
2, 3803, Note_on_c, 0, 73, 65
2, 3824, Note_off_c, 0, 74, 64
2, 3852, Note_on_c, 0, 71, 57
2, 3852, Note_on_c, 0, 64, 43
2, 3852, Note_on_c, 0, 57, 50
2, 3857, Note_on_c, 0, 67, 60
2, 3877, Control_c, 0, 64, 127
2, 3877, Control_c, 0, 64, 127
2, 3886, Note_off_c, 0, 73, 64
2, 3903, Note_off_c, 0, 57, 64
2, 3903, Note_off_c, 0, 64, 64
2, 3908, Note_off_c, 0, 67, 64
2, 3908, Note_on_c, 0, 69, 53
2, 3938, Note_off_c, 0, 71, 64
2, 3993, Note_off_c, 0, 69, 64
2, 3993, Note_on_c, 0, 74, 64
2, 3996, Note_on_c, 0, 38, 57
2, 4000, Control_c, 0, 64, 0
2, 4000, Control_c, 0, 64, 0
2, 4024, Control_c, 0, 64, 127
2, 4024, Control_c, 0, 64, 127
2, 4157, Note_off_c, 0, 38, 64
2, 4180, Note_on_c, 0, 62, 16
2, 4180, Note_on_c, 0, 57, 23
2, 4181, Note_on_c, 0, 50, 23
2, 4183, Note_on_c, 0, 66, 28
2, 4197, Control_c, 0, 64, 0
2, 4197, Control_c, 0, 64, 0
2, 4243, Control_c, 0, 64, 127
2, 4243, Control_c, 0, 64, 127
2, 4262, Note_off_c, 0, 57, 64
2, 4262, Note_off_c, 0, 62, 64
2, 4263, Note_off_c, 0, 50, 64
2, 4265, Note_off_c, 0, 66, 64
2, 4430, Note_on_c, 0, 50, 26
2, 4440, Note_on_c, 0, 57, 24
2, 4451, Note_on_c, 0, 62, 26
2, 4455, Note_on_c, 0, 66, 27
2, 4816, Note_on_c, 0, 69, 39
2, 4854, Note_off_c, 0, 74, 64
2, 4921, Note_on_c, 0, 73, 38
2, 4931, Note_off_c, 0, 69, 64
2, 4958, Note_off_c, 0, 50, 64
2, 4958, Note_off_c, 0, 57, 64
2, 4961, Note_off_c, 0, 62, 64
2, 4961, Note_off_c, 0, 66, 64
2, 5004, Note_on_c, 0, 74, 43
2, 5004, Note_on_c, 0, 62, 21
2, 5008, Note_on_c, 0, 66, 31
2, 5008, Note_on_c, 0, 57, 21
2, 5008, Note_on_c, 0, 50, 21
2, 5014, Note_off_c, 0, 73, 64
2, 5055, Note_off_c, 0, 62, 64
2, 5059, Note_off_c, 0, 50, 64
2, 5059, Note_off_c, 0, 57, 64
2, 5059, Note_off_c, 0, 66, 64
2, 5073, Note_on_c, 0, 76, 36
2, 5096, Note_off_c, 0, 74, 64
2, 5140, Note_on_c, 0, 78, 45
2, 5140, Note_on_c, 0, 66, 38
2, 5144, Note_on_c, 0, 62, 21
2, 5144, Note_on_c, 0, 57, 21
2, 5144, Note_on_c, 0, 50, 32
2, 5164, Note_off_c, 0, 76, 64
2, 5165, Control_c, 0, 64, 127
2, 5165, Control_c, 0, 64, 127
2, 5191, Note_off_c, 0, 66, 64
2, 5195, Note_off_c, 0, 50, 64
2, 5195, Note_off_c, 0, 57, 64
2, 5195, Note_off_c, 0, 62, 64
2, 5217, Note_on_c, 0, 79, 34
2, 5231, Note_off_c, 0, 78, 64
2, 5289, Note_on_c, 0, 78, 47
2, 5294, Note_on_c, 0, 45, 35
2, 5302, Note_off_c, 0, 79, 64
2, 5330, Note_on_c, 0, 79, 35
2, 5336, Note_off_c, 0, 78, 64
2, 5376, Note_off_c, 0, 45, 64
2, 5379, Note_on_c, 0, 78, 39
2, 5408, Note_off_c, 0, 79, 64
2, 5438, Control_c, 0, 64, 0
2, 5438, Control_c, 0, 64, 0
2, 5448, Note_on_c, 0, 67, 38
2, 5448, Note_on_c, 0, 57, 16
2, 5450, Note_on_c, 0, 76, 23
2, 5452, Note_on_c, 0, 61, 28
2, 5452, Note_on_c, 0, 52, 24
2, 5457, Control_c, 0, 64, 127
2, 5457, Control_c, 0, 64, 127
2, 5467, Note_off_c, 0, 78, 64
2, 5477, Control_c, 0, 64, 127
2, 5477, Control_c, 0, 64, 127
2, 5499, Note_off_c, 0, 57, 64
2, 5499, Note_off_c, 0, 67, 64
2, 5499, Note_on_c, 0, 74, 43
2, 5503, Note_off_c, 0, 52, 64
2, 5503, Note_off_c, 0, 61, 64
2, 5509, Note_off_c, 0, 76, 64
2, 5564, Note_on_c, 0, 61, 26
2, 5564, Note_on_c, 0, 57, 16
2, 5564, Note_on_c, 0, 52, 17
2, 5565, Note_on_c, 0, 73, 45
2, 5565, Note_on_c, 0, 67, 38
2, 5573, Note_off_c, 0, 74, 64
2, 5585, Control_c, 0, 64, 127
2, 5585, Control_c, 0, 64, 127
2, 5615, Note_off_c, 0, 52, 64
2, 5615, Note_off_c, 0, 57, 64
2, 5615, Note_off_c, 0, 61, 64
2, 5616, Note_off_c, 0, 67, 64
2, 5640, Note_on_c, 0, 71, 36
2, 5657, Note_off_c, 0, 73, 64
2, 5709, Note_on_c, 0, 69, 34
2, 5720, Note_off_c, 0, 71, 64
2, 5726, Note_on_c, 0, 38, 43
2, 5784, Note_on_c, 0, 74, 35
2, 5808, Note_off_c, 0, 38, 64
2, 5817, Note_off_c, 0, 69, 64
2, 5830, Note_off_c, 0, 74, 64
2, 5863, Control_c, 0, 64, 0
2, 5863, Control_c, 0, 64, 0
2, 5868, Note_on_c, 0, 50, 24
2, 5870, Note_on_c, 0, 74, 38
2, 5872, Note_on_c, 0, 62, 32
2, 5872, Note_on_c, 0, 57, 16
2, 5873, Note_on_c, 0, 66, 38
2, 5879, Control_c, 0, 64, 127
2, 5879, Control_c, 0, 64, 127
2, 5893, Control_c, 0, 64, 127
2, 5893, Control_c, 0, 64, 127
2, 5919, Note_off_c, 0, 50, 64
2, 5923, Note_off_c, 0, 57, 64
2, 5923, Note_off_c, 0, 62, 64
2, 5924, Note_off_c, 0, 66, 64
2, 5924, Note_on_c, 0, 76, 49
2, 5935, Note_off_c, 0, 74, 64
2, 5970, Note_on_c, 0, 74, 42
2, 5988, Note_off_c, 0, 76, 64
2, 6013, Note_on_c, 0, 73, 50
2, 6013, Note_on_c, 0, 62, 21
2, 6017, Note_on_c, 0, 66, 38
2, 6017, Note_on_c, 0, 57, 10
2, 6017, Note_on_c, 0, 50, 21
2, 6037, Control_c, 0, 64, 127
2, 6037, Control_c, 0, 64, 127
2, 6043, Note_off_c, 0, 74, 64
2, 6064, Note_off_c, 0, 62, 64
2, 6068, Note_off_c, 0, 50, 64
2, 6068, Note_off_c, 0, 57, 64
2, 6068, Note_off_c, 0, 66, 64
2, 6071, Note_on_c, 0, 71, 43
2, 6095, Note_off_c, 0, 73, 64
2, 6148, Note_on_c, 0, 73, 47
2, 6156, Note_on_c, 0, 45, 35
2, 6163, Note_off_c, 0, 71, 64
2, 6314, Control_c, 0, 64, 0
2, 6314, Control_c, 0, 64, 0
2, 6317, Note_off_c, 0, 45, 64
2, 6324, Note_on_c, 0, 57, 21
2, 6328, Note_on_c, 0, 64, 21
2, 6328, Note_on_c, 0, 61, 21
2, 6331, Note_on_c, 0, 69, 23
2, 6347, Control_c, 0, 64, 127
2, 6347, Control_c, 0, 64, 127
2, 6406, Note_off_c, 0, 57, 64
2, 6410, Note_off_c, 0, 61, 64
2, 6410, Note_off_c, 0, 64, 64
2, 6413, Note_off_c, 0, 69, 64
2, 6540, Note_on_c, 0, 67, 21
2, 6541, Note_on_c, 0, 69, 28
2, 6544, Note_on_c, 0, 64, 21
2, 6544, Note_on_c, 0, 57, 15
2, 6556, Control_c, 0, 64, 0
2, 6556, Control_c, 0, 64, 0
2, 6579, Control_c, 0, 64, 127
2, 6579, Control_c, 0, 64, 127
2, 6622, Note_off_c, 0, 67, 64
2, 6623, Note_off_c, 0, 69, 64
2, 6626, Note_off_c, 0, 64, 64
2, 6727, Note_off_c, 0, 73, 64
2, 6727, Note_on_c, 0, 69, 35
2, 6730, Note_on_c, 0, 50, 31
2, 6783, Note_off_c, 0, 57, 64
2, 6799, Note_on_c, 0, 73, 39
2, 6812, Note_off_c, 0, 50, 64
2, 6814, Note_off_c, 0, 69, 64
2, 6850, Control_c, 0, 64, 0
2, 6850, Control_c, 0, 64, 0
2, 6861, Control_c, 0, 64, 127
2, 6861, Control_c, 0, 64, 127
2, 6873, Note_on_c, 0, 74, 49
2, 6873, Note_on_c, 0, 66, 36
2, 6876, Note_on_c, 0, 62, 21
2, 6877, Note_on_c, 0, 57, 27
2, 6885, Note_off_c, 0, 73, 64
2, 6924, Note_off_c, 0, 66, 64
2, 6927, Note_off_c, 0, 62, 64
2, 6928, Note_off_c, 0, 57, 64
2, 6936, Note_on_c, 0, 76, 43
2, 6958, Note_off_c, 0, 74, 64
2, 6992, Note_on_c, 0, 57, 21
2, 6994, Note_on_c, 0, 78, 54
2, 6996, Note_on_c, 0, 66, 38
2, 6996, Note_on_c, 0, 62, 21
2, 6996, Note_on_c, 0, 50, 34
2, 7017, Note_off_c, 0, 76, 64
2, 7017, Control_c, 0, 64, 127
2, 7017, Control_c, 0, 64, 127
2, 7043, Note_off_c, 0, 57, 64
2, 7047, Note_off_c, 0, 50, 64
2, 7047, Note_off_c, 0, 62, 64
2, 7047, Note_off_c, 0, 66, 64
2, 7061, Note_on_c, 0, 79, 35
2, 7076, Note_off_c, 0, 78, 64
2, 7130, Note_on_c, 0, 78, 53
2, 7130, Note_on_c, 0, 43, 34
2, 7135, Control_c, 0, 64, 0
2, 7135, Control_c, 0, 64, 0
2, 7136, Note_off_c, 0, 79, 64
2, 7155, Control_c, 0, 64, 127
2, 7155, Control_c, 0, 64, 127
2, 7165, Note_on_c, 0, 79, 43
2, 7178, Note_off_c, 0, 78, 64
2, 7212, Note_off_c, 0, 43, 64
2, 7214, Note_on_c, 0, 78, 45
2, 7236, Note_off_c, 0, 79, 64
2, 7272, Note_on_c, 0, 76, 35
2, 7272, Note_on_c, 0, 67, 38
2, 7276, Note_on_c, 0, 64, 35
2, 7276, Note_on_c, 0, 59, 35
2, 7296, Note_off_c, 0, 78, 64
2, 7297, Control_c, 0, 64, 127
2, 7297, Control_c, 0, 64, 127
2, 7323, Note_off_c, 0, 67, 64
2, 7327, Note_off_c, 0, 59, 64
2, 7327, Note_off_c, 0, 64, 64
2, 7328, Note_on_c, 0, 74, 43
2, 7342, Note_off_c, 0, 76, 64
2, 7388, Note_on_c, 0, 73, 53
2, 7388, Note_on_c, 0, 67, 38
2, 7388, Note_on_c, 0, 59, 35
2, 7392, Note_on_c, 0, 64, 26
2, 7392, Note_on_c, 0, 52, 24
2, 7397, Note_off_c, 0, 74, 64
2, 7413, Control_c, 0, 64, 127
2, 7413, Control_c, 0, 64, 127
2, 7439, Note_off_c, 0, 59, 64
2, 7439, Note_off_c, 0, 67, 64
2, 7443, Note_off_c, 0, 52, 64
2, 7443, Note_off_c, 0, 64, 64
2, 7459, Note_on_c, 0, 71, 39
2, 7469, Note_off_c, 0, 73, 64
2, 7509, Note_on_c, 0, 45, 32
2, 7513, Control_c, 0, 64, 127
2, 7513, Control_c, 0, 64, 127
2, 7522, Note_on_c, 0, 69, 43
2, 7547, Note_off_c, 0, 71, 64
2, 7591, Note_off_c, 0, 45, 64
2, 7591, Note_on_c, 0, 73, 45
2, 7607, Note_off_c, 0, 69, 64
2, 7630, Note_off_c, 0, 73, 64
2, 7660, Note_on_c, 0, 73, 43
2, 7660, Note_on_c, 0, 67, 16
2, 7660, Note_on_c, 0, 64, 17
2, 7660, Note_on_c, 0, 57, 23
2, 7711, Note_off_c, 0, 57, 64
2, 7711, Note_off_c, 0, 64, 64
2, 7711, Note_off_c, 0, 67, 64
2, 7716, Note_on_c, 0, 74, 46
2, 7728, Note_off_c, 0, 73, 64
2, 7763, Note_on_c, 0, 73, 45
2, 7787, Note_off_c, 0, 74, 64
2, 7808, Note_on_c, 0, 57, 16
2, 7812, Note_on_c, 0, 71, 35
2, 7812, Note_on_c, 0, 67, 38
2, 7812, Note_on_c, 0, 64, 21
2, 7841, Control_c, 0, 64, 127
2, 7841, Control_c, 0, 64, 127
2, 7856, Note_off_c, 0, 73, 64
2, 7859, Note_off_c, 0, 57, 64
2, 7863, Note_off_c, 0, 64, 64
2, 7863, Note_off_c, 0, 67, 64
2, 7880, Note_on_c, 0, 69, 35
2, 7904, Note_off_c, 0, 71, 64
2, 7956, Note_on_c, 0, 38, 27
2, 7958, Note_on_c, 0, 74, 43
2, 7964, Control_c, 0, 64, 0
2, 7964, Control_c, 0, 64, 0
2, 7971, Note_off_c, 0, 69, 64
2, 8000, Control_c, 0, 64, 127
2, 8000, Control_c, 0, 64, 127
2, 8117, Note_off_c, 0, 38, 64
2, 8144, Note_on_c, 0, 50, 21
2, 8148, Note_on_c, 0, 62, 19
2, 8148, Note_on_c, 0, 57, 21
2, 8150, Note_on_c, 0, 66, 21
2, 8169, Control_c, 0, 64, 0
2, 8169, Control_c, 0, 64, 0
2, 8184, Control_c, 0, 64, 127
2, 8184, Control_c, 0, 64, 127
2, 8226, Note_off_c, 0, 50, 64
2, 8230, Note_off_c, 0, 57, 64
2, 8230, Note_off_c, 0, 62, 64
2, 8232, Note_off_c, 0, 66, 64
2, 8368, Note_on_c, 0, 57, 15
2, 8368, Note_on_c, 0, 50, 16
2, 8370, Note_on_c, 0, 66, 31
2, 8372, Note_on_c, 0, 62, 19
2, 8450, Note_off_c, 0, 50, 64
2, 8450, Note_off_c, 0, 57, 64
2, 8452, Note_off_c, 0, 66, 64
2, 8454, Note_off_c, 0, 62, 64
2, 8523, Note_off_c, 0, 74, 64
2, 8599, Control_c, 0, 64, 0
2, 8599, Control_c, 0, 64, 0
2, 8606, Note_on_c, 0, 64, 50
2, 8606, Note_on_c, 0, 45, 50
2, 8638, Control_c, 0, 64, 127
2, 8638, Control_c, 0, 64, 127
2, 8670, Note_on_c, 0, 68, 39
2, 8688, Note_off_c, 0, 45, 64
2, 8689, Note_off_c, 0, 64, 64
2, 8742, Note_on_c, 0, 69, 56
2, 8746, Note_on_c, 0, 61, 34
2, 8748, Note_on_c, 0, 57, 31
2, 8750, Note_on_c, 0, 52, 28
2, 8751, Note_off_c, 0, 68, 64
2, 8797, Note_off_c, 0, 61, 64
2, 8799, Note_off_c, 0, 57, 64
2, 8801, Note_off_c, 0, 52, 64
2, 8812, Note_on_c, 0, 71, 53
2, 8834, Note_off_c, 0, 69, 64
2, 8872, Note_on_c, 0, 61, 50
2, 8872, Note_on_c, 0, 57, 45
2, 8872, Note_on_c, 0, 52, 43
2, 8874, Note_on_c, 0, 73, 49
2, 8876, Note_on_c, 0, 45, 45
2, 8893, Note_off_c, 0, 71, 64
2, 8923, Note_off_c, 0, 52, 64
2, 8923, Note_off_c, 0, 57, 64
2, 8923, Note_off_c, 0, 61, 64
2, 8927, Note_off_c, 0, 45, 64
2, 8929, Note_on_c, 0, 74, 43
2, 8952, Note_off_c, 0, 73, 64
2, 8998, Control_c, 0, 64, 0
2, 8998, Control_c, 0, 64, 0
2, 9010, Note_on_c, 0, 73, 58
2, 9012, Note_on_c, 0, 40, 53
2, 9019, Note_off_c, 0, 74, 64
2, 9028, Control_c, 0, 64, 127
2, 9028, Control_c, 0, 64, 127
2, 9038, Note_on_c, 0, 74, 46
2, 9059, Note_off_c, 0, 73, 64
2, 9094, Note_off_c, 0, 40, 64
2, 9096, Note_on_c, 0, 73, 56
2, 9115, Note_off_c, 0, 74, 64
2, 9128, Control_c, 0, 64, 0
2, 9128, Control_c, 0, 64, 0
2, 9142, Note_on_c, 0, 71, 53
2, 9148, Note_on_c, 0, 52, 34
2, 9149, Note_on_c, 0, 62, 28
2, 9151, Note_on_c, 0, 59, 21
2, 9158, Control_c, 0, 64, 127
2, 9158, Control_c, 0, 64, 127
2, 9171, Note_off_c, 0, 73, 64
2, 9194, Note_on_c, 0, 69, 53
2, 9199, Note_off_c, 0, 52, 64
2, 9200, Note_off_c, 0, 62, 64
2, 9201, Note_off_c, 0, 71, 64
2, 9202, Note_off_c, 0, 59, 64
2, 9253, Note_off_c, 0, 69, 64
2, 9256, Note_on_c, 0, 62, 34
2, 9257, Note_on_c, 0, 68, 58
2, 9259, Note_on_c, 0, 59, 34
2, 9260, Note_on_c, 0, 52, 35
2, 9307, Note_off_c, 0, 62, 64
2, 9310, Note_off_c, 0, 59, 64
2, 9311, Note_off_c, 0, 52, 64
2, 9313, Note_on_c, 0, 66, 49
2, 9338, Note_off_c, 0, 68, 64
2, 9377, Note_on_c, 0, 33, 68
2, 9385, Note_on_c, 0, 64, 56
2, 9391, Note_off_c, 0, 66, 64
2, 9439, Note_on_c, 0, 69, 58
2, 9459, Note_off_c, 0, 33, 64
2, 9460, Note_off_c, 0, 64, 64
2, 9483, Note_off_c, 0, 69, 64
2, 9518, Note_on_c, 0, 69, 53
2, 9520, Note_on_c, 0, 57, 31
2, 9520, Note_on_c, 0, 45, 28
2, 9521, Note_on_c, 0, 52, 27
2, 9522, Note_on_c, 0, 61, 28
2, 9565, Note_on_c, 0, 71, 43
2, 9571, Note_off_c, 0, 45, 64
2, 9571, Note_off_c, 0, 57, 64
2, 9572, Note_off_c, 0, 52, 64
2, 9573, Note_off_c, 0, 61, 64
2, 9574, Note_off_c, 0, 69, 64
2, 9613, Note_on_c, 0, 69, 43
2, 9630, Note_off_c, 0, 71, 64
2, 9644, Note_on_c, 0, 45, 43
2, 9648, Note_on_c, 0, 68, 58
2, 9648, Note_on_c, 0, 57, 43
2, 9648, Note_on_c, 0, 52, 35
2, 9652, Note_on_c, 0, 61, 43
2, 9671, Note_off_c, 0, 69, 64
2, 9695, Note_off_c, 0, 45, 64
2, 9699, Note_off_c, 0, 52, 64
2, 9699, Note_off_c, 0, 57, 64
2, 9702, Note_on_c, 0, 66, 58
2, 9703, Note_off_c, 0, 61, 64
2, 9724, Note_off_c, 0, 68, 64
2, 9757, Note_on_c, 0, 40, 50
2, 9758, Control_c, 0, 64, 0
2, 9758, Control_c, 0, 64, 0
2, 9764, Note_on_c, 0, 68, 58
2, 9777, Note_off_c, 0, 66, 64
2, 9787, Control_c, 0, 64, 127
2, 9787, Control_c, 0, 64, 127
2, 9891, Control_c, 0, 64, 0
2, 9891, Control_c, 0, 64, 0
2, 9898, Note_on_c, 0, 52, 28
2, 9900, Note_on_c, 0, 59, 28
2, 9902, Note_on_c, 0, 64, 26
2, 9912, Control_c, 0, 64, 127
2, 9912, Control_c, 0, 64, 127
2, 9918, Note_off_c, 0, 40, 64
2, 9980, Note_off_c, 0, 52, 64
2, 9982, Note_off_c, 0, 59, 64
2, 9984, Note_off_c, 0, 64, 64
2, 10096, Note_on_c, 0, 64, 43
2, 10096, Note_on_c, 0, 62, 50
2, 10096, Note_on_c, 0, 59, 45
2, 10100, Note_on_c, 0, 52, 47
2, 10121, Control_c, 0, 64, 0
2, 10121, Control_c, 0, 64, 0
2, 10137, Control_c, 0, 64, 127
2, 10137, Control_c, 0, 64, 127
2, 10178, Note_off_c, 0, 59, 64
2, 10178, Note_off_c, 0, 62, 64
2, 10178, Note_off_c, 0, 64, 64
2, 10182, Note_off_c, 0, 52, 64
2, 10270, Note_off_c, 0, 68, 64
2, 10287, Note_on_c, 0, 64, 46
2, 10287, Control_c, 0, 64, 0
2, 10287, Control_c, 0, 64, 0
2, 10288, Note_on_c, 0, 45, 38
2, 10317, Control_c, 0, 64, 127
2, 10317, Control_c, 0, 64, 127
2, 10356, Note_on_c, 0, 68, 49
2, 10370, Note_off_c, 0, 45, 64
2, 10372, Note_off_c, 0, 64, 64
2, 10424, Note_on_c, 0, 52, 26
2, 10428, Note_on_c, 0, 69, 56
2, 10428, Note_on_c, 0, 61, 34
2, 10428, Note_on_c, 0, 57, 28
2, 10439, Note_off_c, 0, 68, 64
2, 10475, Note_off_c, 0, 52, 64
2, 10479, Note_off_c, 0, 57, 64
2, 10479, Note_off_c, 0, 61, 64
2, 10488, Note_on_c, 0, 71, 49
2, 10510, Note_off_c, 0, 69, 64
2, 10536, Note_on_c, 0, 57, 35
2, 10536, Note_on_c, 0, 52, 32
2, 10540, Note_on_c, 0, 61, 43
2, 10540, Note_on_c, 0, 45, 35
2, 10542, Note_on_c, 0, 73, 50
2, 10564, Note_off_c, 0, 71, 64
2, 10587, Note_off_c, 0, 52, 64
2, 10587, Note_off_c, 0, 57, 64
2, 10591, Note_off_c, 0, 45, 64
2, 10591, Note_off_c, 0, 61, 64
2, 10602, Note_on_c, 0, 74, 39
2, 10625, Note_off_c, 0, 73, 64
2, 10680, Control_c, 0, 64, 0
2, 10680, Control_c, 0, 64, 0
2, 10684, Note_on_c, 0, 73, 58
2, 10690, Note_off_c, 0, 74, 64
2, 10693, Note_on_c, 0, 38, 54
2, 10715, Note_on_c, 0, 74, 47
2, 10717, Control_c, 0, 64, 127
2, 10717, Control_c, 0, 64, 127
2, 10733, Note_off_c, 0, 73, 64
2, 10775, Note_off_c, 0, 38, 64
2, 10784, Note_on_c, 0, 73, 53
2, 10812, Note_off_c, 0, 74, 64
2, 10836, Note_on_c, 0, 62, 34
2, 10836, Note_on_c, 0, 59, 16
2, 10836, Note_on_c, 0, 54, 34
2, 10837, Note_on_c, 0, 71, 43
2, 10852, Note_off_c, 0, 73, 64
2, 10887, Note_off_c, 0, 54, 64
2, 10887, Note_off_c, 0, 59, 64
2, 10887, Note_off_c, 0, 62, 64
2, 10896, Note_on_c, 0, 69, 50
2, 10909, Note_off_c, 0, 71, 64
2, 10948, Note_on_c, 0, 59, 34
2, 10949, Note_on_c, 0, 47, 38
2, 10952, Note_on_c, 0, 68, 58
2, 10952, Note_on_c, 0, 62, 50
2, 10952, Note_on_c, 0, 54, 34
2, 10958, Note_off_c, 0, 69, 64
2, 10999, Note_off_c, 0, 59, 64
2, 11000, Note_off_c, 0, 47, 64
2, 11003, Note_off_c, 0, 54, 64
2, 11003, Note_off_c, 0, 62, 64
2, 11010, Note_on_c, 0, 66, 53
2, 11040, Note_off_c, 0, 68, 64
2, 11072, Note_on_c, 0, 64, 53
2, 11077, Note_on_c, 0, 40, 60
2, 11090, Note_off_c, 0, 66, 64
2, 11138, Note_on_c, 0, 68, 53
2, 11147, Note_off_c, 0, 64, 64
2, 11159, Note_off_c, 0, 40, 64
2, 11177, Note_off_c, 0, 68, 64
2, 11204, Note_on_c, 0, 62, 19
2, 11204, Note_on_c, 0, 59, 28
2, 11204, Note_on_c, 0, 52, 28
2, 11206, Note_on_c, 0, 68, 53
2, 11255, Note_off_c, 0, 52, 64
2, 11255, Note_off_c, 0, 59, 64
2, 11255, Note_off_c, 0, 62, 64
2, 11255, Note_on_c, 0, 69, 53
2, 11268, Note_off_c, 0, 68, 64
2, 11305, Note_on_c, 0, 68, 49
2, 11328, Note_off_c, 0, 69, 64
2, 11348, Note_on_c, 0, 52, 13
2, 11351, Note_on_c, 0, 66, 58
2, 11352, Note_on_c, 0, 62, 50
2, 11352, Note_on_c, 0, 59, 27
2, 11399, Note_off_c, 0, 52, 64
2, 11399, Note_off_c, 0, 68, 64
2, 11403, Note_off_c, 0, 59, 64
2, 11403, Note_off_c, 0, 62, 64
2, 11409, Note_on_c, 0, 64, 46
2, 11432, Note_off_c, 0, 66, 64
2, 11478, Control_c, 0, 64, 0
2, 11478, Control_c, 0, 64, 0
2, 11485, Note_on_c, 0, 69, 53
2, 11488, Note_on_c, 0, 33, 53
2, 11506, Note_off_c, 0, 64, 64
2, 11543, Control_c, 0, 64, 127
2, 11543, Control_c, 0, 64, 127
2, 11649, Note_off_c, 0, 33, 64
2, 11668, Note_on_c, 0, 45, 19
2, 11669, Note_on_c, 0, 52, 21
2, 11672, Note_on_c, 0, 61, 19
2, 11672, Note_on_c, 0, 57, 8
2, 11750, Note_off_c, 0, 45, 64
2, 11751, Note_off_c, 0, 52, 64
2, 11754, Note_off_c, 0, 57, 64
2, 11754, Note_off_c, 0, 61, 64
2, 11892, Note_on_c, 0, 45, 16
2, 11904, Note_on_c, 0, 52, 17
2, 11908, Note_on_c, 0, 57, 19
2, 11916, Note_on_c, 0, 61, 35
2, 11954, Control_c, 0, 64, 0
2, 11954, Control_c, 0, 64, 0
2, 11988, Control_c, 0, 64, 127
2, 11988, Control_c, 0, 64, 127
2, 12195, Note_off_c, 0, 69, 64
2, 12195, Note_on_c, 0, 64, 27
2, 12279, Note_off_c, 0, 52, 64
2, 12281, Note_off_c, 0, 57, 64
2, 12282, Note_off_c, 0, 45, 64
2, 12284, Note_off_c, 0, 61, 64
2, 12286, Note_on_c, 0, 68, 34
2, 12296, Note_off_c, 0, 64, 64
2, 12356, Note_on_c, 0, 69, 36
2, 12356, Note_on_c, 0, 52, 17
2, 12356, Note_on_c, 0, 45, 10
2, 12360, Note_on_c, 0, 57, 10
2, 12363, Note_on_c, 0, 61, 27
2, 12369, Note_off_c, 0, 68, 64
2, 12407, Note_off_c, 0, 45, 64
2, 12407, Note_off_c, 0, 52, 64
2, 12411, Note_off_c, 0, 57, 64
2, 12414, Note_off_c, 0, 61, 64
2, 12434, Note_on_c, 0, 71, 34
2, 12445, Note_off_c, 0, 69, 64
2, 12493, Note_on_c, 0, 73, 35
2, 12496, Note_on_c, 0, 61, 35
2, 12496, Note_on_c, 0, 57, 17
2, 12496, Note_on_c, 0, 52, 17
2, 12496, Note_on_c, 0, 45, 26
2, 12522, Note_off_c, 0, 71, 64
2, 12547, Note_off_c, 0, 45, 64
2, 12547, Note_off_c, 0, 52, 64
2, 12547, Note_off_c, 0, 57, 64
2, 12547, Note_off_c, 0, 61, 64
2, 12571, Note_on_c, 0, 74, 26
2, 12588, Note_off_c, 0, 73, 64
2, 12663, Note_on_c, 0, 40, 36
2, 12665, Note_on_c, 0, 73, 43
2, 12672, Note_off_c, 0, 74, 64
2, 12703, Note_on_c, 0, 74, 32
2, 12719, Note_off_c, 0, 73, 64
2, 12745, Note_off_c, 0, 40, 64
2, 12756, Note_on_c, 0, 73, 34
2, 12790, Note_off_c, 0, 74, 64
2, 12828, Note_on_c, 0, 59, 10
2, 12831, Note_on_c, 0, 71, 43
2, 12832, Note_on_c, 0, 62, 13
2, 12832, Note_on_c, 0, 52, 15
2, 12854, Note_off_c, 0, 73, 64
2, 12879, Note_off_c, 0, 59, 64
2, 12883, Note_off_c, 0, 52, 64
2, 12883, Note_off_c, 0, 62, 64
2, 12885, Note_off_c, 0, 71, 64
2, 12885, Note_on_c, 0, 69, 47
2, 12944, Note_on_c, 0, 68, 50
2, 12944, Note_on_c, 0, 62, 17
2, 12944, Note_on_c, 0, 59, 26
2, 12948, Note_on_c, 0, 52, 13
2, 12956, Note_off_c, 0, 69, 64
2, 12995, Note_off_c, 0, 59, 64
2, 12995, Note_off_c, 0, 62, 64
2, 12999, Note_off_c, 0, 52, 64
2, 13006, Note_on_c, 0, 66, 36
2, 13021, Note_off_c, 0, 68, 64
2, 13080, Note_on_c, 0, 33, 58
2, 13083, Note_on_c, 0, 64, 34
2, 13091, Note_off_c, 0, 66, 64
2, 13148, Note_on_c, 0, 69, 31
2, 13162, Note_off_c, 0, 33, 64
2, 13172, Note_off_c, 0, 64, 64
2, 13194, Note_off_c, 0, 69, 64
2, 13213, Control_c, 0, 64, 0
2, 13213, Control_c, 0, 64, 0
2, 13227, Control_c, 0, 64, 127
2, 13227, Control_c, 0, 64, 127
2, 13233, Note_on_c, 0, 69, 35
2, 13235, Note_on_c, 0, 52, 27
2, 13236, Note_on_c, 0, 57, 1
2, 13236, Note_on_c, 0, 45, 17
2, 13237, Note_on_c, 0, 61, 34
2, 13279, Note_on_c, 0, 71, 38
2, 13286, Note_off_c, 0, 52, 64
2, 13287, Note_off_c, 0, 45, 64
2, 13287, Note_off_c, 0, 57, 64
2, 13288, Note_off_c, 0, 61, 64
2, 13292, Note_off_c, 0, 69, 64
2, 13324, Note_on_c, 0, 69, 34
2, 13344, Note_off_c, 0, 71, 64
2, 13368, Note_on_c, 0, 52, 17
2, 13368, Note_on_c, 0, 45, 26
2, 13371, Note_on_c, 0, 68, 43
2, 13372, Note_on_c, 0, 61, 35
2, 13372, Note_on_c, 0, 57, 10
2, 13400, Note_off_c, 0, 69, 64
2, 13419, Note_off_c, 0, 45, 64
2, 13419, Note_off_c, 0, 52, 64
2, 13423, Note_off_c, 0, 57, 64
2, 13423, Note_off_c, 0, 61, 64
2, 13428, Note_on_c, 0, 66, 43
2, 13455, Note_off_c, 0, 68, 64
2, 13498, Note_on_c, 0, 40, 45
2, 13507, Note_on_c, 0, 68, 50
2, 13512, Control_c, 0, 64, 0
2, 13512, Control_c, 0, 64, 0
2, 13517, Note_off_c, 0, 66, 64
2, 13528, Control_c, 0, 64, 127
2, 13528, Control_c, 0, 64, 127
2, 13656, Note_on_c, 0, 52, 35
2, 13656, Control_c, 0, 64, 0
2, 13656, Control_c, 0, 64, 0
2, 13659, Note_off_c, 0, 40, 64
2, 13660, Note_on_c, 0, 59, 19
2, 13662, Note_on_c, 0, 64, 26
2, 13694, Control_c, 0, 64, 127
2, 13694, Control_c, 0, 64, 127
2, 13738, Note_off_c, 0, 52, 64
2, 13742, Note_off_c, 0, 59, 64
2, 13744, Note_off_c, 0, 64, 64
2, 13872, Note_on_c, 0, 62, 27
2, 13872, Note_on_c, 0, 59, 21
2, 13872, Note_on_c, 0, 52, 16
2, 13874, Note_on_c, 0, 64, 27
2, 13904, Control_c, 0, 64, 0
2, 13904, Control_c, 0, 64, 0
2, 13916, Control_c, 0, 64, 127
2, 13916, Control_c, 0, 64, 127
2, 13954, Note_off_c, 0, 59, 64
2, 13954, Note_off_c, 0, 62, 64
2, 13956, Note_off_c, 0, 64, 64
2, 14081, Note_on_c, 0, 64, 35
2, 14084, Note_on_c, 0, 45, 27
2, 14087, Note_off_c, 0, 68, 64
2, 14096, Control_c, 0, 64, 0
2, 14096, Control_c, 0, 64, 0
2, 14109, Control_c, 0, 64, 127
2, 14109, Control_c, 0, 64, 127
2, 14159, Note_on_c, 0, 68, 27
2, 14166, Note_off_c, 0, 45, 64
2, 14166, Note_off_c, 0, 52, 64
2, 14168, Note_off_c, 0, 64, 64
2, 14228, Note_on_c, 0, 61, 34
2, 14228, Note_on_c, 0, 57, 27
2, 14228, Note_on_c, 0, 52, 27
2, 14231, Note_on_c, 0, 69, 43
2, 14242, Note_off_c, 0, 68, 64
2, 14279, Note_off_c, 0, 52, 64
2, 14279, Note_off_c, 0, 57, 64
2, 14279, Note_off_c, 0, 61, 64
2, 14299, Note_on_c, 0, 71, 38
2, 14324, Note_off_c, 0, 69, 64
2, 14351, Note_on_c, 0, 73, 35
2, 14352, Note_on_c, 0, 57, 27
2, 14352, Note_on_c, 0, 52, 28
2, 14352, Note_on_c, 0, 45, 24
2, 14354, Note_on_c, 0, 61, 35
2, 14375, Note_off_c, 0, 71, 64
2, 14403, Note_off_c, 0, 45, 64
2, 14403, Note_off_c, 0, 52, 64
2, 14403, Note_off_c, 0, 57, 64
2, 14405, Note_off_c, 0, 61, 64
2, 14420, Note_on_c, 0, 74, 34
2, 14438, Note_off_c, 0, 73, 64
2, 14499, Note_on_c, 0, 73, 50
2, 14506, Note_on_c, 0, 38, 50
2, 14508, Note_off_c, 0, 74, 64
2, 14532, Note_on_c, 0, 74, 43
2, 14548, Note_off_c, 0, 73, 64
2, 14587, Note_on_c, 0, 73, 43
2, 14588, Note_off_c, 0, 38, 64
2, 14610, Note_off_c, 0, 74, 64
2, 14634, Control_c, 0, 64, 0
2, 14634, Control_c, 0, 64, 0
2, 14644, Note_on_c, 0, 54, 39
2, 14647, Note_on_c, 0, 71, 35
2, 14648, Note_on_c, 0, 62, 38
2, 14648, Note_on_c, 0, 59, 35
2, 14648, Control_c, 0, 64, 127
2, 14648, Control_c, 0, 64, 127
2, 14669, Note_off_c, 0, 73, 64
2, 14695, Note_off_c, 0, 54, 64
2, 14699, Note_off_c, 0, 59, 64
2, 14699, Note_off_c, 0, 62, 64
2, 14706, Note_on_c, 0, 69, 43
2, 14714, Note_off_c, 0, 71, 64
2, 14764, Note_on_c, 0, 47, 27
2, 14767, Note_on_c, 0, 68, 53
2, 14768, Note_on_c, 0, 62, 39
2, 14768, Note_on_c, 0, 59, 24
2, 14768, Note_on_c, 0, 54, 17
2, 14776, Note_off_c, 0, 69, 64
2, 14815, Note_off_c, 0, 47, 64
2, 14819, Note_off_c, 0, 54, 64
2, 14819, Note_off_c, 0, 59, 64
2, 14819, Note_off_c, 0, 62, 64
2, 14829, Note_on_c, 0, 66, 36
2, 14859, Note_off_c, 0, 68, 64
2, 14898, Note_on_c, 0, 64, 39
2, 14904, Note_on_c, 0, 40, 43
2, 14918, Control_c, 0, 64, 0
2, 14918, Control_c, 0, 64, 0
2, 14919, Note_off_c, 0, 66, 64
2, 14930, Control_c, 0, 64, 127
2, 14930, Control_c, 0, 64, 127
2, 14964, Note_on_c, 0, 68, 45
2, 14980, Note_off_c, 0, 64, 64
2, 14986, Note_off_c, 0, 40, 64
2, 15017, Note_off_c, 0, 68, 64
2, 15044, Note_on_c, 0, 62, 15
2, 15048, Note_on_c, 0, 68, 46
2, 15048, Note_on_c, 0, 59, 34
2, 15048, Note_on_c, 0, 52, 32
2, 15095, Note_off_c, 0, 62, 64
2, 15096, Note_on_c, 0, 69, 49
2, 15099, Note_off_c, 0, 52, 64
2, 15099, Note_off_c, 0, 59, 64
2, 15108, Note_off_c, 0, 68, 64
2, 15153, Note_on_c, 0, 68, 47
2, 15177, Note_off_c, 0, 69, 64
2, 15204, Note_on_c, 0, 66, 56
2, 15204, Note_on_c, 0, 59, 19
2, 15208, Note_on_c, 0, 62, 45
2, 15208, Note_on_c, 0, 52, 21
2, 15239, Note_off_c, 0, 68, 64
2, 15255, Note_off_c, 0, 59, 64
2, 15259, Note_off_c, 0, 52, 64
2, 15259, Note_off_c, 0, 62, 64
2, 15265, Note_on_c, 0, 64, 35
2, 15284, Note_off_c, 0, 66, 64
2, 15341, Note_on_c, 0, 69, 56
2, 15350, Note_on_c, 0, 33, 56
2, 15356, Note_off_c, 0, 64, 64
2, 15366, Control_c, 0, 64, 0
2, 15366, Control_c, 0, 64, 0
2, 15389, Control_c, 0, 64, 127
2, 15389, Control_c, 0, 64, 127
2, 15511, Note_off_c, 0, 33, 64
2, 15528, Note_on_c, 0, 61, 49
2, 15528, Note_on_c, 0, 57, 43
2, 15532, Note_on_c, 0, 64, 34
2, 15547, Control_c, 0, 64, 0
2, 15547, Control_c, 0, 64, 0
2, 15569, Control_c, 0, 64, 127
2, 15569, Control_c, 0, 64, 127
2, 15610, Note_off_c, 0, 57, 64
2, 15610, Note_off_c, 0, 61, 64
2, 15614, Note_off_c, 0, 64, 64
2, 15748, Note_on_c, 0, 64, 45
2, 15748, Note_on_c, 0, 61, 56
2, 15748, Note_on_c, 0, 57, 49
2, 15750, Note_on_c, 0, 67, 64
2, 15830, Note_off_c, 0, 57, 64
2, 15830, Note_off_c, 0, 61, 64
2, 15830, Note_off_c, 0, 64, 64
2, 15832, Note_off_c, 0, 67, 64
2, 15968, Note_on_c, 0, 50, 68
2, 15969, Note_on_c, 0, 66, 49
2, 15989, Control_c, 0, 64, 0
2, 15989, Control_c, 0, 64, 0
2, 16020, Control_c, 0, 64, 127
2, 16020, Control_c, 0, 64, 127
2, 16050, Note_off_c, 0, 50, 64
2, 16051, Note_on_c, 0, 73, 65
2, 16063, Note_off_c, 0, 66, 64
2, 16067, Note_off_c, 0, 69, 64
2, 16128, Note_on_c, 0, 50, 49
2, 16129, Note_on_c, 0, 74, 75
2, 16132, Note_on_c, 0, 62, 54
2, 16132, Note_on_c, 0, 57, 43
2, 16133, Note_on_c, 0, 66, 54
2, 16139, Note_off_c, 0, 73, 64
2, 16179, Note_off_c, 0, 50, 64
2, 16183, Note_off_c, 0, 57, 64
2, 16183, Note_off_c, 0, 62, 64
2, 16184, Note_off_c, 0, 66, 64
2, 16194, Note_on_c, 0, 76, 65
2, 16217, Note_off_c, 0, 74, 64
2, 16250, Note_on_c, 0, 78, 65
2, 16252, Note_on_c, 0, 66, 65
2, 16252, Note_on_c, 0, 62, 65
2, 16252, Note_on_c, 0, 57, 58
2, 16259, Note_on_c, 0, 50, 58
2, 16272, Note_off_c, 0, 76, 64
2, 16303, Note_off_c, 0, 57, 64
2, 16303, Note_off_c, 0, 62, 64
2, 16303, Note_off_c, 0, 66, 64
2, 16310, Note_off_c, 0, 50, 64
2, 16310, Note_on_c, 0, 79, 58
2, 16328, Note_off_c, 0, 78, 64
2, 16392, Note_on_c, 0, 78, 75
2, 16397, Control_c, 0, 64, 0
2, 16397, Control_c, 0, 64, 0
2, 16402, Note_off_c, 0, 79, 64
2, 16403, Note_on_c, 0, 45, 64
2, 16416, Control_c, 0, 64, 127
2, 16416, Control_c, 0, 64, 127
2, 16420, Note_on_c, 0, 79, 69
2, 16440, Note_off_c, 0, 78, 64
2, 16479, Note_on_c, 0, 78, 75
2, 16485, Note_off_c, 0, 45, 64
2, 16508, Note_off_c, 0, 79, 64
2, 16528, Note_on_c, 0, 67, 54
2, 16528, Note_on_c, 0, 57, 45
2, 16528, Note_on_c, 0, 52, 26
2, 16529, Note_on_c, 0, 76, 65
2, 16532, Note_on_c, 0, 61, 54
2, 16552, Note_off_c, 0, 78, 64
2, 16579, Note_off_c, 0, 52, 64
2, 16579, Note_off_c, 0, 57, 64
2, 16579, Note_off_c, 0, 67, 64
2, 16583, Note_off_c, 0, 61, 64
2, 16594, Note_on_c, 0, 74, 75
2, 16608, Note_off_c, 0, 76, 64
2, 16648, Note_on_c, 0, 67, 65
2, 16652, Note_on_c, 0, 61, 56
2, 16652, Note_on_c, 0, 57, 50
2, 16652, Note_on_c, 0, 52, 32
2, 16653, Note_on_c, 0, 73, 75
2, 16661, Note_off_c, 0, 74, 64
2, 16699, Note_off_c, 0, 67, 64
2, 16703, Note_off_c, 0, 52, 64
2, 16703, Note_off_c, 0, 57, 64
2, 16703, Note_off_c, 0, 61, 64
2, 16718, Note_on_c, 0, 71, 56
2, 16740, Note_off_c, 0, 73, 64
2, 16770, Control_c, 0, 64, 0
2, 16770, Control_c, 0, 64, 0
2, 16780, Note_on_c, 0, 69, 71
2, 16787, Note_on_c, 0, 38, 78
2, 16794, Note_off_c, 0, 71, 64
2, 16800, Control_c, 0, 64, 127
2, 16800, Control_c, 0, 64, 127
2, 16849, Note_on_c, 0, 74, 73
2, 16868, Note_off_c, 0, 69, 64
2, 16869, Note_off_c, 0, 38, 64
2, 16895, Note_off_c, 0, 74, 64
2, 16924, Note_on_c, 0, 74, 68
2, 16924, Note_on_c, 0, 62, 49
2, 16924, Note_on_c, 0, 57, 50
2, 16928, Note_on_c, 0, 50, 38
2, 16929, Note_on_c, 0, 66, 54
2, 16973, Note_on_c, 0, 76, 75
2, 16975, Note_off_c, 0, 57, 64
2, 16975, Note_off_c, 0, 62, 64
2, 16979, Note_off_c, 0, 50, 64
2, 16980, Note_off_c, 0, 66, 64
2, 16985, Note_off_c, 0, 74, 64
2, 17025, Note_on_c, 0, 74, 68
2, 17036, Note_off_c, 0, 76, 64
2, 17064, Note_on_c, 0, 66, 65
2, 17064, Note_on_c, 0, 62, 39
2, 17064, Note_on_c, 0, 57, 47
2, 17064, Note_on_c, 0, 50, 27
2, 17066, Note_on_c, 0, 73, 75
2, 17086, Note_off_c, 0, 74, 64
2, 17115, Note_off_c, 0, 50, 64
2, 17115, Note_off_c, 0, 57, 64
2, 17115, Note_off_c, 0, 62, 64
2, 17115, Note_off_c, 0, 66, 64
2, 17118, Note_on_c, 0, 71, 68
2, 17141, Note_off_c, 0, 73, 64
2, 17174, Control_c, 0, 64, 0
2, 17174, Control_c, 0, 64, 0
2, 17182, Note_on_c, 0, 45, 43
2, 17186, Note_on_c, 0, 73, 75
2, 17197, Note_off_c, 0, 71, 64
2, 17205, Control_c, 0, 64, 127
2, 17205, Control_c, 0, 64, 127
2, 17326, Control_c, 0, 64, 0
2, 17326, Control_c, 0, 64, 0
2, 17331, Note_on_c, 0, 69, 42
2, 17332, Note_on_c, 0, 64, 47
2, 17332, Note_on_c, 0, 57, 42
2, 17340, Control_c, 0, 64, 127
2, 17340, Control_c, 0, 64, 127
2, 17343, Note_off_c, 0, 45, 64
2, 17413, Note_off_c, 0, 69, 64
2, 17414, Note_off_c, 0, 57, 64
2, 17414, Note_off_c, 0, 64, 64
2, 17516, Note_on_c, 0, 67, 50
2, 17520, Note_on_c, 0, 64, 56
2, 17521, Note_on_c, 0, 69, 56
2, 17521, Note_on_c, 0, 57, 56
2, 17598, Note_off_c, 0, 67, 64
2, 17602, Note_off_c, 0, 64, 64
2, 17603, Note_off_c, 0, 57, 64
2, 17603, Note_off_c, 0, 69, 64
2, 17674, Note_off_c, 0, 73, 64
2, 17688, Control_c, 0, 64, 0
2, 17688, Control_c, 0, 64, 0
2, 17694, Note_on_c, 0, 69, 69
2, 17696, Note_on_c, 0, 50, 56
2, 17709, Control_c, 0, 64, 127
2, 17709, Control_c, 0, 64, 127
2, 17756, Note_on_c, 0, 73, 60
2, 17773, Note_off_c, 0, 69, 64
2, 17778, Note_off_c, 0, 50, 64
2, 17828, Note_on_c, 0, 74, 75
2, 17828, Note_on_c, 0, 62, 49
2, 17828, Note_on_c, 0, 57, 46
2, 17829, Note_on_c, 0, 66, 54
2, 17839, Note_off_c, 0, 73, 64
2, 17879, Note_off_c, 0, 57, 64
2, 17879, Note_off_c, 0, 62, 64
2, 17880, Note_off_c, 0, 66, 64
2, 17886, Note_on_c, 0, 76, 69
2, 17913, Note_off_c, 0, 74, 64
2, 17932, Note_on_c, 0, 62, 49
2, 17932, Note_on_c, 0, 57, 65
2, 17932, Note_on_c, 0, 50, 46
2, 17936, Note_on_c, 0, 78, 73
2, 17937, Note_on_c, 0, 66, 65
2, 17966, Note_off_c, 0, 76, 64
2, 17983, Note_off_c, 0, 50, 64
2, 17983, Note_off_c, 0, 57, 64
2, 17983, Note_off_c, 0, 62, 64
2, 17988, Note_off_c, 0, 66, 64
2, 18002, Note_on_c, 0, 79, 53
2, 18027, Note_off_c, 0, 78, 64
2, 18067, Control_c, 0, 64, 0
2, 18067, Control_c, 0, 64, 0
2, 18074, Note_on_c, 0, 43, 71
2, 18076, Note_on_c, 0, 78, 75
2, 18087, Control_c, 0, 64, 127
2, 18087, Control_c, 0, 64, 127
2, 18096, Note_off_c, 0, 79, 64
2, 18112, Note_on_c, 0, 79, 68
2, 18132, Note_off_c, 0, 78, 64
2, 18156, Note_off_c, 0, 43, 64
2, 18165, Note_on_c, 0, 78, 68
2, 18185, Note_off_c, 0, 79, 64
2, 18208, Note_on_c, 0, 67, 54
2, 18208, Note_on_c, 0, 64, 49
2, 18208, Note_on_c, 0, 59, 50
2, 18211, Note_on_c, 0, 76, 73
2, 18239, Note_off_c, 0, 78, 64
2, 18259, Note_off_c, 0, 59, 64
2, 18259, Note_off_c, 0, 64, 64
2, 18259, Note_off_c, 0, 67, 64
2, 18267, Note_on_c, 0, 74, 75
2, 18277, Note_off_c, 0, 76, 64
2, 18320, Note_on_c, 0, 59, 60
2, 18320, Note_on_c, 0, 52, 65
2, 18324, Note_on_c, 0, 67, 65
2, 18324, Note_on_c, 0, 64, 58
2, 18326, Note_on_c, 0, 73, 75
2, 18341, Note_off_c, 0, 74, 64
2, 18371, Note_off_c, 0, 52, 64
2, 18371, Note_off_c, 0, 59, 64
2, 18375, Note_off_c, 0, 64, 64
2, 18375, Note_off_c, 0, 67, 64
2, 18385, Note_on_c, 0, 71, 75
2, 18406, Note_off_c, 0, 73, 64
2, 18442, Control_c, 0, 64, 0
2, 18442, Control_c, 0, 64, 0
2, 18446, Note_on_c, 0, 45, 78
2, 18450, Note_on_c, 0, 69, 69
2, 18459, Control_c, 0, 64, 127
2, 18459, Control_c, 0, 64, 127
2, 18486, Note_off_c, 0, 71, 64
2, 18516, Note_on_c, 0, 73, 75
2, 18528, Note_off_c, 0, 69, 64
2, 18528, Note_off_c, 0, 45, 64
2, 18555, Note_off_c, 0, 73, 64
2, 18584, Note_on_c, 0, 67, 34
2, 18584, Note_on_c, 0, 64, 46
2, 18584, Note_on_c, 0, 57, 27
2, 18587, Note_on_c, 0, 73, 75
2, 18635, Note_off_c, 0, 57, 64
2, 18635, Note_off_c, 0, 64, 64
2, 18635, Note_off_c, 0, 67, 64
2, 18640, Note_on_c, 0, 74, 73
2, 18650, Note_off_c, 0, 73, 64
2, 18685, Note_on_c, 0, 73, 68
2, 18717, Note_off_c, 0, 74, 64
2, 18740, Note_on_c, 0, 57, 45
2, 18744, Note_on_c, 0, 71, 50
2, 18744, Note_on_c, 0, 67, 65
2, 18744, Note_on_c, 0, 64, 43
2, 18777, Note_off_c, 0, 73, 64
2, 18791, Note_off_c, 0, 57, 64
2, 18795, Note_off_c, 0, 64, 64
2, 18795, Note_off_c, 0, 67, 64
2, 18804, Note_on_c, 0, 69, 65
2, 18832, Note_off_c, 0, 71, 64
2, 18879, Note_on_c, 0, 38, 67
2, 18882, Note_on_c, 0, 74, 75
2, 18892, Control_c, 0, 64, 0
2, 18892, Control_c, 0, 64, 0
2, 18896, Note_off_c, 0, 69, 64
2, 18918, Control_c, 0, 64, 127
2, 18918, Control_c, 0, 64, 127
2, 18961, Note_off_c, 0, 38, 64
2, 19088, Note_on_c, 0, 50, 21
2, 19092, Note_on_c, 0, 66, 35
2, 19092, Note_on_c, 0, 57, 26
2, 19095, Note_on_c, 0, 62, 19
2, 19113, Control_c, 0, 64, 0
2, 19113, Control_c, 0, 64, 0
2, 19138, Control_c, 0, 64, 127
2, 19138, Control_c, 0, 64, 127
2, 19170, Note_off_c, 0, 50, 64
2, 19174, Note_off_c, 0, 57, 64
2, 19174, Note_off_c, 0, 66, 64
2, 19177, Note_off_c, 0, 62, 64
2, 19368, Note_on_c, 0, 66, 23
2, 19368, Note_on_c, 0, 62, 24
2, 19368, Note_on_c, 0, 50, 27
2, 19375, Note_on_c, 0, 57, 26
2, 19427, Control_c, 0, 64, 0
2, 19427, Control_c, 0, 64, 0
2, 19460, Control_c, 0, 64, 127
2, 19460, Control_c, 0, 64, 127
2, 19660, Note_on_c, 0, 69, 35
2, 19667, Note_off_c, 0, 74, 64
2, 19708, Note_off_c, 0, 66, 64
2, 19724, Note_off_c, 0, 62, 64
2, 19740, Note_off_c, 0, 57, 64
2, 19743, Note_off_c, 0, 50, 64
2, 19752, Note_on_c, 0, 73, 35
2, 19765, Note_off_c, 0, 69, 64
2, 19832, Note_on_c, 0, 50, 27
2, 19836, Note_on_c, 0, 62, 36
2, 19836, Note_on_c, 0, 57, 32
2, 19837, Note_on_c, 0, 74, 45
2, 19840, Note_on_c, 0, 66, 27
2, 19855, Note_off_c, 0, 73, 64
2, 19883, Note_off_c, 0, 50, 64
2, 19887, Note_off_c, 0, 57, 64
2, 19887, Note_off_c, 0, 62, 64
2, 19891, Note_off_c, 0, 66, 64
2, 19912, Note_on_c, 0, 76, 39
2, 19934, Note_off_c, 0, 74, 64
2, 19972, Note_on_c, 0, 57, 32
2, 19972, Note_on_c, 0, 50, 35
2, 19975, Note_on_c, 0, 78, 60
2, 19976, Note_on_c, 0, 62, 32
2, 19977, Note_on_c, 0, 66, 42
2, 19992, Note_off_c, 0, 76, 64
2, 20023, Note_off_c, 0, 50, 64
2, 20023, Note_off_c, 0, 57, 64
2, 20027, Note_off_c, 0, 62, 64
2, 20028, Note_off_c, 0, 66, 64
2, 20046, Note_on_c, 0, 79, 43
2, 20064, Note_off_c, 0, 78, 64
2, 20133, Note_on_c, 0, 78, 49
2, 20133, Note_on_c, 0, 45, 35
2, 20149, Note_off_c, 0, 79, 64
2, 20174, Note_on_c, 0, 79, 45
2, 20190, Note_off_c, 0, 78, 64
2, 20215, Note_off_c, 0, 45, 64
2, 20229, Note_on_c, 0, 78, 35
2, 20257, Note_off_c, 0, 79, 64
2, 20276, Note_on_c, 0, 67, 42
2, 20276, Note_on_c, 0, 57, 26
2, 20280, Note_on_c, 0, 61, 35
2, 20280, Note_on_c, 0, 52, 21
2, 20282, Note_on_c, 0, 76, 43
2, 20300, Note_off_c, 0, 78, 64
2, 20327, Note_off_c, 0, 57, 64
2, 20327, Note_off_c, 0, 67, 64
2, 20331, Note_off_c, 0, 52, 64
2, 20331, Note_off_c, 0, 61, 64
2, 20341, Note_on_c, 0, 74, 43
2, 20357, Note_off_c, 0, 76, 64
2, 20408, Note_on_c, 0, 52, 21
2, 20409, Note_on_c, 0, 73, 50
2, 20409, Note_on_c, 0, 67, 42
2, 20412, Note_on_c, 0, 61, 27
2, 20414, Note_on_c, 0, 57, 23
2, 20423, Note_off_c, 0, 74, 64
2, 20459, Note_off_c, 0, 52, 64
2, 20460, Note_off_c, 0, 67, 64
2, 20463, Note_off_c, 0, 61, 64
2, 20465, Note_off_c, 0, 57, 64
2, 20478, Note_on_c, 0, 71, 35
2, 20501, Note_off_c, 0, 73, 64
2, 20544, Note_on_c, 0, 69, 39
2, 20556, Note_on_c, 0, 38, 57
2, 20556, Control_c, 0, 64, 0
2, 20556, Control_c, 0, 64, 0
2, 20563, Note_off_c, 0, 71, 64
2, 20576, Control_c, 0, 64, 127
2, 20576, Control_c, 0, 64, 127
2, 20616, Note_on_c, 0, 74, 45
2, 20638, Note_off_c, 0, 38, 64
2, 20640, Note_off_c, 0, 69, 64
2, 20664, Note_off_c, 0, 74, 64
2, 20696, Note_on_c, 0, 57, 23
2, 20696, Note_on_c, 0, 50, 27
2, 20697, Note_on_c, 0, 74, 43
2, 20700, Note_on_c, 0, 62, 34
2, 20701, Note_on_c, 0, 66, 42
2, 20746, Note_on_c, 0, 76, 47
2, 20747, Note_off_c, 0, 50, 64
2, 20747, Note_off_c, 0, 57, 64
2, 20751, Note_off_c, 0, 62, 64
2, 20752, Note_off_c, 0, 66, 64
2, 20757, Note_off_c, 0, 74, 64
2, 20793, Note_on_c, 0, 74, 39
2, 20805, Note_off_c, 0, 76, 64
2, 20832, Note_on_c, 0, 62, 21
2, 20833, Note_on_c, 0, 66, 42
2, 20835, Note_on_c, 0, 73, 54
2, 20836, Note_on_c, 0, 57, 12
2, 20836, Note_on_c, 0, 50, 13
2, 20865, Note_off_c, 0, 74, 64
2, 20883, Note_off_c, 0, 62, 64
2, 20884, Note_off_c, 0, 66, 64
2, 20887, Note_off_c, 0, 50, 64
2, 20887, Note_off_c, 0, 57, 64
2, 20888, Note_on_c, 0, 71, 49
2, 20917, Note_off_c, 0, 73, 64
2, 20975, Note_on_c, 0, 73, 50
2, 20979, Note_on_c, 0, 45, 35
2, 20990, Note_off_c, 0, 71, 64
2, 20993, Control_c, 0, 64, 0
2, 20993, Control_c, 0, 64, 0
2, 21008, Control_c, 0, 64, 127
2, 21008, Control_c, 0, 64, 127
2, 21140, Note_off_c, 0, 45, 64
2, 21144, Note_on_c, 0, 64, 23
2, 21144, Note_on_c, 0, 61, 17
2, 21148, Note_on_c, 0, 57, 24
2, 21149, Note_on_c, 0, 69, 24
2, 21153, Control_c, 0, 64, 0
2, 21153, Control_c, 0, 64, 0
2, 21173, Control_c, 0, 64, 127
2, 21173, Control_c, 0, 64, 127
2, 21226, Note_off_c, 0, 61, 64
2, 21226, Note_off_c, 0, 64, 64
2, 21230, Note_off_c, 0, 57, 64
2, 21231, Note_off_c, 0, 69, 64
2, 21372, Note_on_c, 0, 69, 32
2, 21372, Note_on_c, 0, 67, 15
2, 21372, Note_on_c, 0, 57, 21
2, 21378, Note_on_c, 0, 64, 17
2, 21392, Control_c, 0, 64, 0
2, 21392, Control_c, 0, 64, 0
2, 21417, Control_c, 0, 64, 127
2, 21417, Control_c, 0, 64, 127
2, 21454, Note_off_c, 0, 67, 64
2, 21454, Note_off_c, 0, 69, 64
2, 21460, Note_off_c, 0, 64, 64
2, 21569, Note_off_c, 0, 73, 64
2, 21600, Note_on_c, 0, 50, 24
2, 21601, Note_on_c, 0, 69, 43
2, 21621, Control_c, 0, 64, 0
2, 21621, Control_c, 0, 64, 0
2, 21634, Control_c, 0, 64, 127
2, 21634, Control_c, 0, 64, 127
2, 21673, Note_on_c, 0, 73, 39
2, 21680, Note_off_c, 0, 69, 64
2, 21682, Note_off_c, 0, 50, 64
2, 21698, Note_off_c, 0, 57, 64
2, 21748, Note_on_c, 0, 74, 49
2, 21756, Note_on_c, 0, 66, 35
2, 21756, Note_on_c, 0, 62, 32
2, 21756, Note_on_c, 0, 57, 34
2, 21758, Note_off_c, 0, 73, 64
2, 21807, Note_off_c, 0, 57, 64
2, 21807, Note_off_c, 0, 62, 64
2, 21807, Note_off_c, 0, 66, 64
2, 21821, Note_on_c, 0, 76, 43
2, 21849, Note_off_c, 0, 74, 64
2, 21884, Note_on_c, 0, 62, 32
2, 21884, Note_on_c, 0, 57, 34
2, 21885, Note_on_c, 0, 66, 42
2, 21886, Note_on_c, 0, 78, 63
2, 21890, Note_on_c, 0, 50, 34
2, 21906, Note_off_c, 0, 76, 64
2, 21935, Note_off_c, 0, 57, 64
2, 21935, Note_off_c, 0, 62, 64
2, 21936, Note_off_c, 0, 66, 64
2, 21941, Note_off_c, 0, 50, 64
2, 21954, Note_on_c, 0, 79, 36
2, 21970, Note_off_c, 0, 78, 64
2, 22057, Note_on_c, 0, 78, 54
2, 22057, Note_on_c, 0, 43, 34
2, 22072, Control_c, 0, 64, 0
2, 22072, Control_c, 0, 64, 0
2, 22078, Note_off_c, 0, 79, 64
2, 22089, Note_on_c, 0, 79, 43
2, 22098, Control_c, 0, 64, 127
2, 22098, Control_c, 0, 64, 127
2, 22106, Note_off_c, 0, 78, 64
2, 22139, Note_off_c, 0, 43, 64
2, 22141, Note_on_c, 0, 78, 43
2, 22170, Note_off_c, 0, 79, 64
2, 22221, Note_on_c, 0, 67, 42
2, 22222, Note_on_c, 0, 59, 13
2, 22223, Note_on_c, 0, 76, 32
2, 22224, Note_on_c, 0, 64, 21
2, 22238, Note_off_c, 0, 78, 64
2, 22272, Note_off_c, 0, 67, 64
2, 22273, Note_off_c, 0, 59, 64
2, 22275, Note_off_c, 0, 64, 64
2, 22278, Note_on_c, 0, 74, 45
2, 22286, Note_off_c, 0, 76, 64
2, 22344, Note_on_c, 0, 73, 50
2, 22344, Note_on_c, 0, 64, 35
2, 22344, Note_on_c, 0, 59, 13
2, 22344, Note_on_c, 0, 52, 34
2, 22345, Note_on_c, 0, 67, 42
2, 22349, Note_off_c, 0, 74, 64
2, 22395, Note_off_c, 0, 52, 64
2, 22395, Note_off_c, 0, 59, 64
2, 22395, Note_off_c, 0, 64, 64
2, 22396, Note_off_c, 0, 67, 64
2, 22422, Note_on_c, 0, 71, 39
2, 22429, Note_off_c, 0, 73, 64
2, 22495, Note_on_c, 0, 69, 38
2, 22502, Note_on_c, 0, 45, 34
2, 22515, Note_off_c, 0, 71, 64
2, 22520, Control_c, 0, 64, 0
2, 22520, Control_c, 0, 64, 0
2, 22536, Control_c, 0, 64, 127
2, 22536, Control_c, 0, 64, 127
2, 22576, Note_on_c, 0, 73, 50
2, 22584, Note_off_c, 0, 45, 64
2, 22586, Note_off_c, 0, 69, 64
2, 22622, Note_off_c, 0, 73, 64
2, 22664, Note_on_c, 0, 73, 43
2, 22668, Note_on_c, 0, 67, 21
2, 22668, Note_on_c, 0, 57, 34
2, 22675, Note_on_c, 0, 64, 24
2, 22714, Note_on_c, 0, 74, 49
2, 22719, Note_off_c, 0, 57, 64
2, 22719, Note_off_c, 0, 67, 64
2, 22726, Note_off_c, 0, 64, 64
2, 22726, Note_off_c, 0, 73, 64
2, 22772, Note_on_c, 0, 73, 45
2, 22793, Note_off_c, 0, 74, 64
2, 22835, Note_on_c, 0, 64, 26
2, 22836, Note_on_c, 0, 71, 34
2, 22836, Note_on_c, 0, 57, 32
2, 22837, Note_on_c, 0, 67, 42
2, 22847, Note_off_c, 0, 73, 64
2, 22886, Note_off_c, 0, 64, 64
2, 22887, Note_off_c, 0, 57, 64
2, 22888, Note_off_c, 0, 67, 64
2, 22906, Note_on_c, 0, 69, 43
2, 22937, Note_off_c, 0, 71, 64
2, 23014, Note_on_c, 0, 74, 46
2, 23018, Note_on_c, 0, 38, 28
2, 23025, Note_off_c, 0, 69, 64
2, 23041, Control_c, 0, 64, 0
2, 23041, Control_c, 0, 64, 0
2, 23076, Control_c, 0, 64, 127
2, 23076, Control_c, 0, 64, 127
2, 23179, Note_off_c, 0, 38, 64
2, 23244, Note_on_c, 0, 66, 24
2, 23244, Note_on_c, 0, 50, 13
2, 23248, Note_on_c, 0, 62, 15
2, 23248, Note_on_c, 0, 57, 16
2, 23326, Note_off_c, 0, 50, 64
2, 23326, Note_off_c, 0, 66, 64
2, 23330, Note_off_c, 0, 57, 64
2, 23330, Note_off_c, 0, 62, 64
2, 23476, Note_on_c, 0, 66, 34
2, 23476, Note_on_c, 0, 62, 17
2, 23476, Note_on_c, 0, 50, 16
2, 23482, Note_on_c, 0, 57, 26
2, 23558, Note_off_c, 0, 50, 64
2, 23558, Note_off_c, 0, 62, 64
2, 23564, Note_off_c, 0, 57, 64
2, 23714, Note_on_c, 0, 65, 38
2, 23719, Note_on_c, 0, 46, 45
2, 23724, Control_c, 0, 64, 0
2, 23724, Control_c, 0, 64, 0
2, 23736, Note_off_c, 0, 66, 64
2, 23745, Control_c, 0, 64, 127
2, 23745, Control_c, 0, 64, 127
2, 23801, Note_off_c, 0, 46, 64
2, 23855, Note_off_c, 0, 74, 64
2, 23879, Note_on_c, 0, 74, 43
2, 23918, Note_on_c, 0, 75, 49
2, 23924, Note_on_c, 0, 53, 30
2, 23931, Note_on_c, 0, 58, 31
2, 23936, Note_on_c, 0, 62, 19
2, 23954, Note_off_c, 0, 74, 64
2, 23975, Note_off_c, 0, 53, 64
2, 23982, Note_off_c, 0, 58, 64
2, 23987, Note_off_c, 0, 62, 64
2, 24108, Note_on_c, 0, 62, 19
2, 24112, Note_on_c, 0, 76, 45
2, 24112, Note_on_c, 0, 58, 34
2, 24112, Note_on_c, 0, 53, 30
2, 24114, Note_on_c, 0, 70, 47
2, 24125, Note_off_c, 0, 75, 64
2, 24127, Note_off_c, 0, 65, 64
2, 24159, Note_off_c, 0, 62, 64
2, 24163, Note_off_c, 0, 53, 64
2, 24163, Note_off_c, 0, 58, 64
2, 24305, Note_on_c, 0, 79, 45
2, 24310, Note_on_c, 0, 41, 49
2, 24317, Note_off_c, 0, 76, 64
2, 24328, Control_c, 0, 64, 0
2, 24328, Control_c, 0, 64, 0
2, 24341, Control_c, 0, 64, 127
2, 24341, Control_c, 0, 64, 127
2, 24392, Note_off_c, 0, 41, 64
2, 24415, Note_on_c, 0, 77, 38
2, 24423, Note_off_c, 0, 79, 64
2, 24484, Note_on_c, 0, 69, 30
2, 24484, Note_on_c, 0, 60, 38
2, 24484, Note_on_c, 0, 53, 36
2, 24485, Note_on_c, 0, 63, 38
2, 24494, Note_on_c, 0, 72, 49
2, 24499, Note_off_c, 0, 70, 64
2, 24507, Note_off_c, 0, 77, 64
2, 24535, Note_off_c, 0, 53, 64
2, 24535, Note_off_c, 0, 60, 64
2, 24536, Note_off_c, 0, 63, 64
2, 24579, Note_on_c, 0, 67, 36
2, 24598, Note_off_c, 0, 69, 64
2, 24633, Note_off_c, 0, 72, 64
2, 24652, Note_off_c, 0, 67, 64
2, 24658, Note_on_c, 0, 72, 52
2, 24665, Note_on_c, 0, 65, 34
2, 24668, Note_on_c, 0, 63, 38
2, 24668, Note_on_c, 0, 57, 38
2, 24668, Note_on_c, 0, 53, 36
2, 24719, Note_off_c, 0, 53, 64
2, 24719, Note_off_c, 0, 57, 64
2, 24719, Note_off_c, 0, 63, 64
2, 24840, Note_on_c, 0, 74, 49
2, 24847, Note_on_c, 0, 46, 52
2, 24850, Note_off_c, 0, 72, 64
2, 24860, Control_c, 0, 64, 0
2, 24860, Control_c, 0, 64, 0
2, 24876, Control_c, 0, 64, 127
2, 24876, Control_c, 0, 64, 127
2, 24909, Note_off_c, 0, 74, 64
2, 24929, Note_off_c, 0, 46, 64
2, 24969, Note_on_c, 0, 74, 38
2, 25009, Note_off_c, 0, 65, 64
2, 25012, Note_on_c, 0, 70, 43
2, 25014, Note_on_c, 0, 62, 31
2, 25016, Note_on_c, 0, 65, 41
2, 25016, Note_on_c, 0, 58, 31
2, 25017, Note_on_c, 0, 75, 52
2, 25017, Note_on_c, 0, 53, 34
2, 25025, Control_c, 0, 64, 0
2, 25025, Control_c, 0, 64, 0
2, 25033, Note_off_c, 0, 74, 64
2, 25038, Control_c, 0, 64, 127
2, 25038, Control_c, 0, 64, 127
2, 25063, Note_off_c, 0, 70, 64
2, 25065, Note_off_c, 0, 62, 64
2, 25067, Note_off_c, 0, 58, 64
2, 25067, Note_off_c, 0, 65, 64
2, 25068, Note_off_c, 0, 53, 64
2, 25192, Note_on_c, 0, 65, 49
2, 25192, Note_on_c, 0, 62, 36
2, 25192, Note_on_c, 0, 53, 38
2, 25195, Note_on_c, 0, 76, 49
2, 25195, Note_on_c, 0, 58, 38
2, 25196, Note_on_c, 0, 70, 45
2, 25207, Note_off_c, 0, 75, 64
2, 25243, Note_off_c, 0, 53, 64
2, 25243, Note_off_c, 0, 62, 64
2, 25246, Note_off_c, 0, 58, 64
2, 25247, Note_off_c, 0, 70, 64
2, 25372, Note_on_c, 0, 45, 47
2, 25377, Note_on_c, 0, 79, 52
2, 25380, Note_on_c, 0, 72, 46
2, 25390, Control_c, 0, 64, 0
2, 25390, Control_c, 0, 64, 0
2, 25391, Note_off_c, 0, 76, 64
2, 25414, Control_c, 0, 64, 127
2, 25414, Control_c, 0, 64, 127
2, 25423, Note_off_c, 0, 65, 64
2, 25431, Note_off_c, 0, 72, 64
2, 25454, Note_off_c, 0, 45, 64
2, 25500, Note_on_c, 0, 77, 31
2, 25508, Note_off_c, 0, 79, 64
2, 25556, Note_on_c, 0, 60, 31
2, 25556, Note_on_c, 0, 57, 42
2, 25557, Note_on_c, 0, 72, 57
2, 25560, Note_on_c, 0, 65, 38
2, 25577, Note_off_c, 0, 77, 64
2, 25607, Note_off_c, 0, 57, 64
2, 25607, Note_off_c, 0, 60, 64
2, 25611, Note_off_c, 0, 65, 64
2, 25678, Note_on_c, 0, 43, 52
2, 25728, Note_on_c, 0, 69, 49
2, 25731, Note_on_c, 0, 77, 60
2, 25735, Note_on_c, 0, 41, 53
2, 25736, Note_off_c, 0, 72, 64
2, 25744, Note_off_c, 0, 43, 64
2, 25747, Control_c, 0, 64, 0
2, 25747, Control_c, 0, 64, 0
2, 25773, Control_c, 0, 64, 127
2, 25773, Control_c, 0, 64, 127
2, 25779, Note_off_c, 0, 69, 64
2, 25838, Note_off_c, 0, 41, 64
2, 25927, Note_on_c, 0, 82, 60
2, 25928, Note_on_c, 0, 76, 58
2, 25928, Note_on_c, 0, 48, 57
2, 25931, Note_on_c, 0, 70, 57
2, 25931, Note_on_c, 0, 36, 57
2, 25943, Note_off_c, 0, 77, 64
2, 25950, Control_c, 0, 64, 0
2, 25950, Control_c, 0, 64, 0
2, 25980, Control_c, 0, 64, 127
2, 25980, Control_c, 0, 64, 127
2, 25999, Note_off_c, 0, 82, 64
2, 26000, Note_off_c, 0, 76, 64
2, 26003, Note_off_c, 0, 70, 64
2, 26086, Note_off_c, 0, 48, 64
2, 26089, Note_off_c, 0, 36, 64
2, 26092, Note_on_c, 0, 82, 49
2, 26092, Note_on_c, 0, 76, 58
2, 26096, Note_on_c, 0, 70, 52
2, 26120, Note_off_c, 0, 82, 64
2, 26121, Note_off_c, 0, 76, 64
2, 26125, Note_off_c, 0, 70, 64
2, 26125, Control_c, 0, 64, 0
2, 26125, Control_c, 0, 64, 0
2, 26128, Note_on_c, 0, 60, 53
2, 26132, Note_on_c, 0, 67, 53
2, 26133, Note_on_c, 0, 82, 65
2, 26133, Note_on_c, 0, 76, 64
2, 26134, Note_on_c, 0, 70, 57
2, 26147, Control_c, 0, 64, 127
2, 26147, Control_c, 0, 64, 127
2, 26241, Note_off_c, 0, 76, 64
2, 26241, Note_off_c, 0, 82, 64
2, 26242, Note_off_c, 0, 70, 64
2, 26313, Note_on_c, 0, 70, 45
2, 26316, Note_on_c, 0, 82, 60
2, 26316, Note_on_c, 0, 76, 58
2, 26323, Note_off_c, 0, 60, 64
2, 26327, Note_off_c, 0, 67, 64
2, 26400, Note_off_c, 0, 76, 64
2, 26400, Note_off_c, 0, 82, 64
2, 26400, Note_off_c, 0, 70, 64
2, 26512, Note_on_c, 0, 82, 58
2, 26512, Note_on_c, 0, 77, 60
2, 26512, Note_on_c, 0, 70, 54
2, 26516, Note_on_c, 0, 41, 57
2, 26534, Control_c, 0, 64, 0
2, 26534, Control_c, 0, 64, 0
2, 26564, Control_c, 0, 64, 127
2, 26564, Control_c, 0, 64, 127
2, 26584, Note_off_c, 0, 70, 64
2, 26584, Note_off_c, 0, 77, 64
2, 26584, Note_off_c, 0, 82, 64
2, 26664, Note_on_c, 0, 82, 58
2, 26664, Note_on_c, 0, 59, 58
2, 26669, Note_on_c, 0, 77, 38
2, 26672, Note_on_c, 0, 70, 53
2, 26674, Note_off_c, 0, 41, 64
2, 26692, Note_off_c, 0, 82, 64
2, 26697, Note_off_c, 0, 77, 64
2, 26700, Note_off_c, 0, 70, 64
2, 26708, Note_on_c, 0, 82, 61
2, 26708, Note_on_c, 0, 77, 65
2, 26711, Note_on_c, 0, 60, 61
2, 26712, Note_on_c, 0, 70, 52
2, 26724, Control_c, 0, 64, 0
2, 26724, Control_c, 0, 64, 0
2, 26733, Note_off_c, 0, 59, 64
2, 26753, Control_c, 0, 64, 127
2, 26753, Control_c, 0, 64, 127
2, 26846, Note_on_c, 0, 62, 31
2, 26849, Note_off_c, 0, 77, 64
2, 26850, Note_off_c, 0, 60, 64
2, 26853, Note_off_c, 0, 70, 64
2, 26885, Note_on_c, 0, 81, 54
2, 26888, Note_on_c, 0, 77, 49
2, 26888, Note_on_c, 0, 69, 53
2, 26891, Note_on_c, 0, 60, 54
2, 26893, Note_off_c, 0, 82, 64
2, 26903, Note_off_c, 0, 62, 64
2, 26947, Note_off_c, 0, 60, 64
2, 27018, Note_off_c, 0, 81, 64
2, 27021, Note_off_c, 0, 69, 64
2, 27021, Note_off_c, 0, 77, 64
2, 27072, Note_on_c, 0, 76, 49
2, 27072, Note_on_c, 0, 70, 49
2, 27074, Note_on_c, 0, 81, 49
2, 27074, Note_on_c, 0, 48, 49
2, 27080, Control_c, 0, 64, 0
2, 27080, Control_c, 0, 64, 0
2, 27104, Control_c, 0, 64, 127
2, 27104, Control_c, 0, 64, 127
2, 27144, Note_off_c, 0, 70, 64
2, 27144, Note_off_c, 0, 76, 64
2, 27146, Note_off_c, 0, 81, 64
2, 27205, Note_on_c, 0, 59, 32
2, 27209, Note_on_c, 0, 76, 45
2, 27209, Note_on_c, 0, 70, 42
2, 27215, Note_on_c, 0, 81, 42
2, 27232, Note_off_c, 0, 48, 64
2, 27235, Note_off_c, 0, 70, 64
2, 27237, Note_off_c, 0, 76, 64
2, 27240, Note_off_c, 0, 81, 64
2, 27252, Note_on_c, 0, 70, 49
2, 27255, Note_on_c, 0, 81, 52
2, 27257, Note_on_c, 0, 76, 52
2, 27261, Note_on_c, 0, 60, 47
2, 27265, Control_c, 0, 64, 0
2, 27265, Control_c, 0, 64, 0
2, 27277, Note_off_c, 0, 59, 64
2, 27313, Control_c, 0, 64, 127
2, 27313, Control_c, 0, 64, 127
2, 27404, Note_on_c, 0, 62, 45
2, 27409, Note_off_c, 0, 60, 64
2, 27438, Note_off_c, 0, 70, 64
2, 27443, Note_off_c, 0, 76, 64
2, 27445, Note_on_c, 0, 70, 52
2, 27450, Note_on_c, 0, 79, 46
2, 27450, Note_on_c, 0, 76, 49
2, 27454, Note_off_c, 0, 81, 64
2, 27455, Note_on_c, 0, 60, 49
2, 27471, Note_off_c, 0, 62, 64
2, 27612, Note_off_c, 0, 70, 64
2, 27617, Note_off_c, 0, 76, 64
2, 27617, Note_off_c, 0, 79, 64
2, 27643, Note_off_c, 0, 60, 64
2, 27644, Note_on_c, 0, 79, 49
2, 27646, Note_on_c, 0, 70, 46
2, 27648, Note_on_c, 0, 75, 41
2, 27651, Note_on_c, 0, 53, 38
2, 27666, Control_c, 0, 64, 0
2, 27666, Control_c, 0, 64, 0
2, 27677, Control_c, 0, 64, 127
2, 27677, Control_c, 0, 64, 127
2, 27716, Note_off_c, 0, 79, 64
2, 27718, Note_off_c, 0, 70, 64
2, 27720, Note_off_c, 0, 75, 64
2, 27784, Note_on_c, 0, 75, 46
2, 27784, Note_on_c, 0, 59, 42
2, 27790, Note_on_c, 0, 79, 42
2, 27790, Note_on_c, 0, 70, 43
2, 27809, Note_off_c, 0, 53, 64
2, 27813, Note_off_c, 0, 70, 64
2, 27814, Note_off_c, 0, 75, 64
2, 27820, Note_off_c, 0, 79, 64
2, 27833, Note_on_c, 0, 79, 52
2, 27837, Note_on_c, 0, 75, 52
2, 27837, Note_on_c, 0, 70, 43
2, 27850, Control_c, 0, 64, 0
2, 27850, Control_c, 0, 64, 0
2, 27856, Note_on_c, 0, 60, 36
2, 27872, Note_off_c, 0, 59, 64
2, 27885, Control_c, 0, 64, 127
2, 27885, Control_c, 0, 64, 127
2, 27984, Note_off_c, 0, 70, 64
2, 27991, Note_off_c, 0, 75, 64
2, 27996, Note_off_c, 0, 60, 64
2, 27996, Note_on_c, 0, 64, 35
2, 28068, Note_on_c, 0, 77, 42
2, 28068, Note_on_c, 0, 75, 35
2, 28068, Note_on_c, 0, 69, 42
2, 28068, Note_on_c, 0, 65, 31
2, 28079, Note_off_c, 0, 79, 64
2, 28086, Control_c, 0, 64, 0
2, 28086, Control_c, 0, 64, 0
2, 28101, Note_off_c, 0, 64, 64
2, 28114, Control_c, 0, 64, 127
2, 28114, Control_c, 0, 64, 127
2, 28258, Note_off_c, 0, 65, 64
2, 28258, Note_off_c, 0, 69, 64
2, 28258, Note_off_c, 0, 75, 64
2, 28258, Note_off_c, 0, 77, 64
2, 28311, Note_on_c, 0, 74, 49
2, 28320, Note_on_c, 0, 46, 52
2, 28335, Control_c, 0, 64, 0
2, 28335, Control_c, 0, 64, 0
2, 28371, Control_c, 0, 64, 127
2, 28371, Control_c, 0, 64, 127
2, 28381, Note_off_c, 0, 74, 64
2, 28402, Note_off_c, 0, 46, 64
2, 28453, Note_on_c, 0, 74, 41
2, 28492, Note_on_c, 0, 70, 36
2, 28492, Note_on_c, 0, 53, 31
2, 28494, Note_on_c, 0, 62, 31
2, 28495, Note_on_c, 0, 75, 52
2, 28495, Note_on_c, 0, 65, 26
2, 28496, Note_on_c, 0, 58, 31
2, 28507, Note_off_c, 0, 74, 64
2, 28508, Control_c, 0, 64, 0
2, 28508, Control_c, 0, 64, 0
2, 28537, Control_c, 0, 64, 127
2, 28537, Control_c, 0, 64, 127
2, 28543, Note_off_c, 0, 53, 64
2, 28543, Note_off_c, 0, 70, 64
2, 28545, Note_off_c, 0, 62, 64
2, 28546, Note_off_c, 0, 65, 64
2, 28547, Note_off_c, 0, 58, 64
2, 28676, Note_on_c, 0, 65, 31
2, 28676, Note_on_c, 0, 62, 31
2, 28676, Note_on_c, 0, 53, 28
2, 28680, Note_on_c, 0, 70, 31
2, 28680, Note_on_c, 0, 58, 28
2, 28681, Note_on_c, 0, 76, 46
2, 28701, Note_off_c, 0, 75, 64
2, 28727, Note_off_c, 0, 53, 64
2, 28727, Note_off_c, 0, 62, 64
2, 28727, Note_off_c, 0, 65, 64
2, 28731, Note_off_c, 0, 58, 64
2, 28731, Note_off_c, 0, 70, 64
2, 28866, Note_on_c, 0, 78, 53
2, 28870, Note_on_c, 0, 45, 45
2, 28886, Control_c, 0, 64, 0
2, 28886, Control_c, 0, 64, 0
2, 28899, Control_c, 0, 64, 127
2, 28899, Control_c, 0, 64, 127
2, 28903, Note_off_c, 0, 76, 64
2, 28952, Note_off_c, 0, 45, 64
2, 29001, Note_on_c, 0, 77, 53
2, 29024, Note_off_c, 0, 78, 64
2, 29044, Note_on_c, 0, 72, 49
2, 29045, Note_on_c, 0, 65, 38
2, 29056, Note_on_c, 0, 60, 34
2, 29056, Note_on_c, 0, 53, 15
2, 29057, Note_on_c, 0, 63, 34
2, 29063, Note_off_c, 0, 77, 64
2, 29083, Control_c, 0, 64, 0
2, 29083, Control_c, 0, 64, 0
2, 29097, Control_c, 0, 64, 127
2, 29097, Control_c, 0, 64, 127
2, 29107, Note_off_c, 0, 53, 64
2, 29107, Note_off_c, 0, 60, 64
2, 29108, Note_off_c, 0, 63, 64
2, 29179, Note_on_c, 0, 66, 46
2, 29186, Note_off_c, 0, 65, 64
2, 29192, Note_off_c, 0, 72, 64
2, 29232, Note_on_c, 0, 72, 57
2, 29232, Note_on_c, 0, 65, 46
2, 29232, Note_on_c, 0, 63, 34
2, 29232, Note_on_c, 0, 60, 31
2, 29234, Note_on_c, 0, 53, 23
2, 29245, Note_off_c, 0, 66, 64
2, 29250, Control_c, 0, 64, 0
2, 29250, Control_c, 0, 64, 0
2, 29279, Control_c, 0, 64, 127
2, 29279, Control_c, 0, 64, 127
2, 29283, Note_off_c, 0, 60, 64
2, 29283, Note_off_c, 0, 63, 64
2, 29285, Note_off_c, 0, 53, 64
2, 29383, Note_off_c, 0, 65, 64
2, 29407, Note_on_c, 0, 46, 41
2, 29408, Note_on_c, 0, 73, 52
2, 29425, Control_c, 0, 64, 0
2, 29425, Control_c, 0, 64, 0
2, 29427, Note_off_c, 0, 72, 64
2, 29447, Control_c, 0, 64, 127
2, 29447, Control_c, 0, 64, 127
2, 29466, Note_off_c, 0, 73, 64
2, 29489, Note_off_c, 0, 46, 64
2, 29528, Note_on_c, 0, 73, 45
2, 29576, Note_on_c, 0, 70, 26
2, 29576, Note_on_c, 0, 65, 15
2, 29578, Note_on_c, 0, 75, 52
2, 29580, Note_on_c, 0, 53, 24
2, 29581, Note_on_c, 0, 58, 26
2, 29582, Note_on_c, 0, 61, 24
2, 29594, Note_off_c, 0, 73, 64
2, 29598, Control_c, 0, 64, 0
2, 29598, Control_c, 0, 64, 0
2, 29613, Control_c, 0, 64, 127
2, 29613, Control_c, 0, 64, 127
2, 29627, Note_off_c, 0, 65, 64
2, 29627, Note_off_c, 0, 70, 64
2, 29631, Note_off_c, 0, 53, 64
2, 29632, Note_off_c, 0, 58, 64
2, 29633, Note_off_c, 0, 61, 64
2, 29764, Note_on_c, 0, 76, 60
2, 29764, Note_on_c, 0, 70, 31
2, 29764, Note_on_c, 0, 58, 26
2, 29764, Note_on_c, 0, 53, 17
2, 29768, Note_on_c, 0, 65, 28
2, 29768, Note_on_c, 0, 61, 26
2, 29775, Note_off_c, 0, 75, 64
2, 29815, Note_off_c, 0, 53, 64
2, 29815, Note_off_c, 0, 58, 64
2, 29815, Note_off_c, 0, 70, 64
2, 29819, Note_off_c, 0, 61, 64
2, 29819, Note_off_c, 0, 65, 64
2, 29935, Note_on_c, 0, 44, 46
2, 29940, Note_on_c, 0, 78, 50
2, 29947, Control_c, 0, 64, 0
2, 29947, Control_c, 0, 64, 0
2, 29950, Note_off_c, 0, 76, 64
2, 29960, Control_c, 0, 64, 127
2, 29960, Control_c, 0, 64, 127
2, 30017, Note_off_c, 0, 44, 64
2, 30058, Note_on_c, 0, 77, 43
2, 30070, Note_off_c, 0, 78, 64
2, 30125, Note_on_c, 0, 80, 50
2, 30125, Note_on_c, 0, 73, 41
2, 30128, Note_on_c, 0, 68, 46
2, 30128, Note_on_c, 0, 61, 31
2, 30130, Note_on_c, 0, 65, 30
2, 30131, Note_on_c, 0, 56, 30
2, 30132, Note_on_c, 0, 53, 38
2, 30140, Note_off_c, 0, 77, 64
2, 30140, Control_c, 0, 64, 0
2, 30140, Control_c, 0, 64, 0
2, 30153, Control_c, 0, 64, 127
2, 30153, Control_c, 0, 64, 127
2, 30256, Note_on_c, 0, 46, 53
2, 30261, Note_off_c, 0, 73, 64
2, 30264, Note_off_c, 0, 61, 64
2, 30264, Note_off_c, 0, 68, 64
2, 30266, Note_off_c, 0, 65, 64
2, 30267, Note_off_c, 0, 56, 64
2, 30268, Note_off_c, 0, 53, 64
2, 30315, Note_on_c, 0, 44, 54
2, 30321, Note_on_c, 0, 73, 57
2, 30325, Note_on_c, 0, 85, 64
2, 30329, Note_off_c, 0, 80, 64
2, 30330, Note_off_c, 0, 46, 64
2, 30344, Control_c, 0, 64, 0
2, 30344, Control_c, 0, 64, 0
2, 30374, Control_c, 0, 64, 127
2, 30374, Control_c, 0, 64, 127
2, 30403, Note_off_c, 0, 44, 64
2, 30539, Note_off_c, 0, 73, 64
2, 30543, Note_off_c, 0, 85, 64
2, 30552, Note_on_c, 0, 72, 60
2, 30552, Note_on_c, 0, 66, 60
2, 30554, Note_on_c, 0, 78, 65
2, 30560, Control_c, 0, 64, 0
2, 30560, Control_c, 0, 64, 0
2, 30567, Note_on_c, 0, 32, 65
2, 30590, Control_c, 0, 64, 127
2, 30590, Control_c, 0, 64, 127
2, 30624, Note_off_c, 0, 66, 64
2, 30624, Note_off_c, 0, 72, 64
2, 30626, Note_off_c, 0, 78, 64
2, 30728, Note_off_c, 0, 32, 64
2, 30733, Note_on_c, 0, 78, 60
2, 30736, Note_on_c, 0, 72, 52
2, 30739, Note_on_c, 0, 66, 54
2, 30762, Note_off_c, 0, 66, 64
2, 30763, Note_off_c, 0, 78, 64
2, 30765, Note_off_c, 0, 72, 64
2, 30782, Note_on_c, 0, 56, 60
2, 30784, Note_on_c, 0, 78, 64
2, 30785, Note_on_c, 0, 63, 54
2, 30786, Note_on_c, 0, 72, 64
2, 30791, Note_on_c, 0, 66, 61
2, 30808, Control_c, 0, 64, 0
2, 30808, Control_c, 0, 64, 0
2, 30821, Control_c, 0, 64, 127
2, 30821, Control_c, 0, 64, 127
2, 30927, Note_off_c, 0, 56, 64
2, 30930, Note_off_c, 0, 63, 64
2, 30951, Note_off_c, 0, 78, 64
2, 30953, Note_off_c, 0, 72, 64
2, 30958, Note_off_c, 0, 66, 64
2, 30972, Note_on_c, 0, 78, 54
2, 30972, Note_on_c, 0, 72, 58
2, 30976, Note_on_c, 0, 66, 61
2, 31123, Note_off_c, 0, 66, 64
2, 31139, Note_off_c, 0, 72, 64
2, 31139, Note_off_c, 0, 78, 64
2, 31139, Note_on_c, 0, 37, 54
2, 31146, Note_on_c, 0, 66, 54
2, 31148, Note_on_c, 0, 78, 61
2, 31153, Note_on_c, 0, 73, 53
2, 31160, Control_c, 0, 64, 0
2, 31160, Control_c, 0, 64, 0
2, 31171, Control_c, 0, 64, 127
2, 31171, Control_c, 0, 64, 127
2, 31218, Note_off_c, 0, 66, 64
2, 31220, Note_off_c, 0, 78, 64
2, 31225, Note_off_c, 0, 73, 64
2, 31278, Note_on_c, 0, 55, 49
2, 31280, Note_on_c, 0, 73, 49
2, 31284, Note_on_c, 0, 78, 60
2, 31286, Note_on_c, 0, 66, 60
2, 31300, Note_off_c, 0, 37, 64
2, 31308, Note_off_c, 0, 73, 64
2, 31312, Note_off_c, 0, 78, 64
2, 31314, Note_off_c, 0, 66, 64
2, 31320, Note_on_c, 0, 73, 57
2, 31322, Note_on_c, 0, 78, 56
2, 31323, Note_on_c, 0, 66, 54
2, 31331, Note_on_c, 0, 56, 61
2, 31338, Control_c, 0, 64, 0
2, 31338, Control_c, 0, 64, 0
2, 31346, Note_off_c, 0, 55, 64
2, 31374, Control_c, 0, 64, 127
2, 31374, Control_c, 0, 64, 127
2, 31443, Note_on_c, 0, 58, 46
2, 31454, Note_off_c, 0, 56, 64
2, 31487, Note_off_c, 0, 73, 64
2, 31490, Note_off_c, 0, 66, 64
2, 31512, Note_on_c, 0, 77, 53
2, 31512, Note_on_c, 0, 65, 54
2, 31516, Note_on_c, 0, 73, 49
2, 31516, Note_on_c, 0, 56, 61
2, 31521, Note_off_c, 0, 78, 64
2, 31524, Note_off_c, 0, 58, 64
2, 31661, Note_off_c, 0, 56, 64
2, 31679, Note_off_c, 0, 65, 64
2, 31679, Note_off_c, 0, 77, 64
2, 31683, Note_off_c, 0, 73, 64
2, 31696, Note_on_c, 0, 77, 56
2, 31696, Note_on_c, 0, 72, 53
2, 31696, Note_on_c, 0, 66, 61
2, 31704, Note_on_c, 0, 44, 60
2, 31722, Control_c, 0, 64, 0
2, 31722, Control_c, 0, 64, 0
2, 31747, Control_c, 0, 64, 127
2, 31747, Control_c, 0, 64, 127
2, 31768, Note_off_c, 0, 66, 64
2, 31768, Note_off_c, 0, 72, 64
2, 31768, Note_off_c, 0, 77, 64
2, 31822, Note_on_c, 0, 55, 47
2, 31824, Note_on_c, 0, 72, 38
2, 31827, Note_on_c, 0, 77, 56
2, 31827, Note_on_c, 0, 66, 56
2, 31855, Note_off_c, 0, 72, 64
2, 31858, Note_off_c, 0, 66, 64
2, 31858, Note_off_c, 0, 77, 64
2, 31865, Note_off_c, 0, 44, 64
2, 31873, Note_on_c, 0, 77, 58
2, 31873, Note_on_c, 0, 66, 53
2, 31873, Note_on_c, 0, 56, 60
2, 31882, Note_on_c, 0, 72, 58
2, 31895, Control_c, 0, 64, 0
2, 31895, Control_c, 0, 64, 0
2, 31901, Note_off_c, 0, 55, 64
2, 31921, Control_c, 0, 64, 127
2, 31921, Control_c, 0, 64, 127
2, 32009, Note_on_c, 0, 57, 45
2, 32016, Note_off_c, 0, 56, 64
2, 32040, Note_off_c, 0, 66, 64
2, 32049, Note_off_c, 0, 72, 64
2, 32056, Note_on_c, 0, 75, 45
2, 32060, Note_off_c, 0, 77, 64
2, 32061, Note_on_c, 0, 72, 46
2, 32062, Note_on_c, 0, 66, 57
2, 32069, Note_on_c, 0, 56, 58
2, 32078, Control_c, 0, 64, 0
2, 32078, Control_c, 0, 64, 0
2, 32082, Note_off_c, 0, 57, 64
2, 32104, Control_c, 0, 64, 127
2, 32104, Control_c, 0, 64, 127
2, 32223, Note_off_c, 0, 75, 64
2, 32228, Note_off_c, 0, 72, 64
2, 32229, Note_off_c, 0, 66, 64
2, 32251, Note_on_c, 0, 75, 52
2, 32251, Note_on_c, 0, 66, 47
2, 32261, Note_off_c, 0, 56, 64
2, 32261, Note_on_c, 0, 49, 39
2, 32274, Control_c, 0, 64, 0
2, 32274, Control_c, 0, 64, 0
2, 32297, Control_c, 0, 64, 127
2, 32297, Control_c, 0, 64, 127
2, 32323, Note_off_c, 0, 66, 64
2, 32323, Note_off_c, 0, 75, 64
2, 32389, Note_on_c, 0, 55, 38
2, 32393, Note_off_c, 0, 49, 64
2, 32396, Note_on_c, 0, 75, 47
2, 32402, Note_on_c, 0, 68, 52
2, 32402, Note_on_c, 0, 66, 46
2, 32424, Note_off_c, 0, 75, 64
2, 32430, Note_off_c, 0, 66, 64
2, 32430, Note_off_c, 0, 68, 64
2, 32445, Note_on_c, 0, 56, 31
2, 32448, Note_on_c, 0, 68, 45
2, 32449, Note_on_c, 0, 75, 42
2, 32449, Note_on_c, 0, 66, 39
2, 32462, Note_off_c, 0, 55, 64
2, 32470, Control_c, 0, 64, 0
2, 32470, Control_c, 0, 64, 0
2, 32500, Control_c, 0, 64, 127
2, 32500, Control_c, 0, 64, 127
2, 32641, Note_on_c, 0, 60, 20
2, 32647, Note_off_c, 0, 56, 64
2, 32712, Note_on_c, 0, 73, 34
2, 32712, Note_on_c, 0, 65, 34
2, 32712, Note_on_c, 0, 61, 42
2, 32729, Note_off_c, 0, 66, 64
2, 32733, Note_off_c, 0, 60, 64
2, 32736, Control_c, 0, 64, 0
2, 32736, Control_c, 0, 64, 0
2, 32745, Note_off_c, 0, 75, 64
2, 32754, Note_off_c, 0, 68, 64
2, 32771, Control_c, 0, 64, 127
2, 32771, Control_c, 0, 64, 127
2, 32786, Note_off_c, 0, 61, 64
2, 32875, Note_off_c, 0, 65, 64
2, 32875, Note_off_c, 0, 73, 64
2, 32917, Control_c, 0, 64, 127
2, 32917, Control_c, 0, 64, 127
2, 32968, Control_c, 0, 64, 0
2, 32968, Control_c, 0, 64, 0
2, 32975, Note_on_c, 0, 41, 49
2, 32976, Note_on_c, 0, 68, 46
2, 32977, Note_on_c, 0, 74, 46
2, 33005, Control_c, 0, 64, 127
2, 33005, Control_c, 0, 64, 127
2, 33027, Note_on_c, 0, 62, 49
2, 33029, Note_off_c, 0, 68, 64
2, 33030, Note_off_c, 0, 74, 64
2, 33057, Note_off_c, 0, 41, 64
2, 33064, Note_on_c, 0, 68, 53
2, 33064, Control_c, 0, 64, 0
2, 33064, Control_c, 0, 64, 0
2, 33068, Note_on_c, 0, 74, 46
2, 33080, Note_off_c, 0, 62, 64
2, 33106, Note_on_c, 0, 62, 53
2, 33113, Note_on_c, 0, 53, 46
2, 33119, Note_on_c, 0, 59, 46
2, 33123, Control_c, 0, 64, 0
2, 33123, Control_c, 0, 64, 0
2, 33164, Note_off_c, 0, 53, 64
2, 33164, Control_c, 0, 64, 127
2, 33164, Control_c, 0, 64, 127
2, 33170, Note_off_c, 0, 59, 64
2, 33224, Note_off_c, 0, 68, 64
2, 33228, Note_off_c, 0, 74, 64
2, 33231, Note_off_c, 0, 62, 64
2, 33294, Note_on_c, 0, 62, 50
2, 33295, Note_on_c, 0, 74, 49
2, 33299, Note_on_c, 0, 59, 43
2, 33302, Note_on_c, 0, 53, 43
2, 33350, Note_off_c, 0, 59, 64
2, 33353, Note_off_c, 0, 53, 64
2, 33372, Note_off_c, 0, 62, 64
2, 33373, Note_off_c, 0, 74, 64
2, 33483, Control_c, 0, 64, 0
2, 33483, Control_c, 0, 64, 0
2, 33489, Note_on_c, 0, 42, 46
2, 33492, Note_on_c, 0, 69, 47
2, 33498, Note_on_c, 0, 74, 50
2, 33505, Control_c, 0, 64, 127
2, 33505, Control_c, 0, 64, 127
2, 33534, Note_off_c, 0, 69, 64
2, 33544, Note_on_c, 0, 62, 50
2, 33549, Note_off_c, 0, 74, 64
2, 33571, Note_off_c, 0, 42, 64
2, 33574, Note_on_c, 0, 69, 50
2, 33576, Note_on_c, 0, 74, 46
2, 33576, Control_c, 0, 64, 0
2, 33576, Control_c, 0, 64, 0
2, 33588, Note_off_c, 0, 62, 64
2, 33616, Control_c, 0, 64, 0
2, 33616, Control_c, 0, 64, 0
2, 33622, Note_on_c, 0, 62, 50
2, 33636, Note_on_c, 0, 54, 50
2, 33641, Note_on_c, 0, 57, 46
2, 33659, Control_c, 0, 64, 127
2, 33659, Control_c, 0, 64, 127
2, 33687, Note_off_c, 0, 54, 64
2, 33692, Note_off_c, 0, 57, 64
2, 33743, Note_off_c, 0, 69, 64
2, 33745, Note_off_c, 0, 74, 64
2, 33747, Note_off_c, 0, 62, 64
2, 33773, Note_on_c, 0, 54, 49
2, 33779, Note_on_c, 0, 57, 34
2, 33824, Note_off_c, 0, 54, 64
2, 33830, Note_off_c, 0, 57, 64
2, 33838, Note_on_c, 0, 73, 46
2, 33838, Note_on_c, 0, 61, 53
2, 33916, Note_off_c, 0, 61, 64
2, 33916, Note_off_c, 0, 73, 64
2, 33934, Note_on_c, 0, 41, 49
2, 33938, Control_c, 0, 64, 0
2, 33938, Control_c, 0, 64, 0
2, 33946, Note_on_c, 0, 74, 49
2, 33946, Note_on_c, 0, 68, 56
2, 33957, Control_c, 0, 64, 127
2, 33957, Control_c, 0, 64, 127
2, 33991, Note_off_c, 0, 68, 64
2, 33991, Note_off_c, 0, 74, 64
2, 33995, Note_on_c, 0, 62, 43
2, 34016, Note_off_c, 0, 41, 64
2, 34026, Note_on_c, 0, 74, 43
2, 34028, Note_on_c, 0, 68, 50
2, 34035, Note_off_c, 0, 62, 64
2, 34061, Note_on_c, 0, 62, 50
2, 34078, Note_on_c, 0, 53, 27
2, 34080, Note_on_c, 0, 59, 36
2, 34129, Note_off_c, 0, 53, 64
2, 34131, Note_off_c, 0, 59, 64
2, 34186, Note_off_c, 0, 62, 64
2, 34193, Note_off_c, 0, 68, 64
2, 34193, Note_off_c, 0, 74, 64
2, 34216, Note_on_c, 0, 74, 46
2, 34216, Note_on_c, 0, 62, 53
2, 34220, Control_c, 0, 64, 0
2, 34220, Control_c, 0, 64, 0
2, 34225, Note_on_c, 0, 59, 43
2, 34225, Note_on_c, 0, 53, 42
2, 34276, Note_off_c, 0, 53, 64
2, 34276, Note_off_c, 0, 59, 64
2, 34294, Note_off_c, 0, 62, 64
2, 34294, Note_off_c, 0, 74, 64
2, 34364, Control_c, 0, 64, 0
2, 34364, Control_c, 0, 64, 0
2, 34370, Note_on_c, 0, 42, 50
2, 34378, Note_on_c, 0, 74, 46
2, 34382, Note_on_c, 0, 69, 49
2, 34383, Control_c, 0, 64, 127
2, 34383, Control_c, 0, 64, 127
2, 34420, Note_on_c, 0, 62, 46
2, 34428, Note_off_c, 0, 69, 64
2, 34430, Note_off_c, 0, 74, 64
2, 34441, Note_on_c, 0, 69, 46
2, 34444, Note_on_c, 0, 74, 46
2, 34444, Control_c, 0, 64, 0
2, 34444, Control_c, 0, 64, 0
2, 34452, Note_off_c, 0, 42, 64
2, 34462, Note_off_c, 0, 62, 64
2, 34488, Note_on_c, 0, 62, 50
2, 34490, Control_c, 0, 64, 0
2, 34490, Control_c, 0, 64, 0
2, 34506, Control_c, 0, 64, 127
2, 34506, Control_c, 0, 64, 127
2, 34514, Note_on_c, 0, 54, 50
2, 34519, Note_on_c, 0, 57, 43
2, 34565, Note_off_c, 0, 54, 64
2, 34570, Note_off_c, 0, 57, 64
2, 34609, Note_off_c, 0, 69, 64
2, 34612, Note_off_c, 0, 74, 64
2, 34613, Note_off_c, 0, 62, 64
2, 34647, Note_on_c, 0, 54, 50
2, 34648, Note_on_c, 0, 57, 39
2, 34684, Note_on_c, 0, 73, 50
2, 34684, Note_on_c, 0, 61, 54
2, 34698, Note_off_c, 0, 54, 64
2, 34699, Note_off_c, 0, 57, 64
2, 34762, Note_off_c, 0, 61, 64
2, 34762, Note_off_c, 0, 73, 64
2, 34792, Control_c, 0, 64, 0
2, 34792, Control_c, 0, 64, 0
2, 34798, Note_on_c, 0, 40, 47
2, 34800, Note_on_c, 0, 68, 49
2, 34810, Note_on_c, 0, 74, 46
2, 34825, Control_c, 0, 64, 127
2, 34825, Control_c, 0, 64, 127
2, 34843, Note_off_c, 0, 68, 64
2, 34843, Note_on_c, 0, 62, 43
2, 34857, Note_off_c, 0, 74, 64
2, 34880, Note_off_c, 0, 40, 64
2, 34882, Note_on_c, 0, 68, 58
2, 34884, Note_on_c, 0, 74, 49
2, 34890, Note_off_c, 0, 62, 64
2, 34904, Control_c, 0, 64, 0
2, 34904, Control_c, 0, 64, 0
2, 34923, Note_on_c, 0, 62, 50
2, 34929, Note_on_c, 0, 52, 46
2, 34935, Note_on_c, 0, 59, 43
2, 34944, Control_c, 0, 64, 127
2, 34944, Control_c, 0, 64, 127
2, 34980, Note_off_c, 0, 52, 64
2, 34986, Note_off_c, 0, 59, 64
2, 35045, Note_off_c, 0, 68, 64
2, 35047, Note_off_c, 0, 74, 64
2, 35048, Note_off_c, 0, 62, 64
2, 35076, Note_on_c, 0, 74, 46
2, 35076, Control_c, 0, 64, 0
2, 35076, Control_c, 0, 64, 0
2, 35077, Note_on_c, 0, 62, 53
2, 35082, Note_on_c, 0, 59, 43
2, 35082, Note_on_c, 0, 52, 43
2, 35133, Note_off_c, 0, 52, 64
2, 35133, Note_off_c, 0, 59, 64
2, 35154, Note_off_c, 0, 74, 64
2, 35155, Note_off_c, 0, 62, 64
2, 35230, Note_on_c, 0, 69, 46
2, 35230, Note_on_c, 0, 45, 53
2, 35237, Note_on_c, 0, 74, 47
2, 35239, Control_c, 0, 64, 0
2, 35239, Control_c, 0, 64, 0
2, 35252, Control_c, 0, 64, 127
2, 35252, Control_c, 0, 64, 127
2, 35268, Note_off_c, 0, 69, 64
2, 35270, Note_off_c, 0, 74, 64
2, 35275, Note_on_c, 0, 62, 50
2, 35305, Note_on_c, 0, 69, 50
2, 35306, Note_on_c, 0, 74, 53
2, 35312, Note_off_c, 0, 45, 64
2, 35314, Note_off_c, 0, 62, 64
2, 35337, Control_c, 0, 64, 0
2, 35337, Control_c, 0, 64, 0
2, 35350, Note_on_c, 0, 62, 53
2, 35364, Control_c, 0, 64, 127
2, 35364, Control_c, 0, 64, 127
2, 35373, Note_on_c, 0, 57, 46
2, 35376, Note_on_c, 0, 52, 39
2, 35424, Note_off_c, 0, 57, 64
2, 35427, Note_off_c, 0, 52, 64
2, 35475, Note_off_c, 0, 62, 64
2, 35485, Note_on_c, 0, 52, 43
2, 35488, Note_off_c, 0, 69, 64
2, 35489, Note_off_c, 0, 74, 64
2, 35489, Note_on_c, 0, 57, 42
2, 35536, Note_off_c, 0, 52, 64
2, 35540, Note_off_c, 0, 57, 64
2, 35556, Note_on_c, 0, 61, 53
2, 35557, Note_on_c, 0, 73, 43
2, 35634, Note_off_c, 0, 61, 64
2, 35635, Note_off_c, 0, 73, 64
2, 35645, Note_on_c, 0, 40, 50
2, 35655, Note_on_c, 0, 68, 53
2, 35662, Note_on_c, 0, 74, 50
2, 35698, Note_off_c, 0, 68, 64
2, 35705, Note_on_c, 0, 62, 46
2, 35712, Note_off_c, 0, 74, 64
2, 35727, Note_off_c, 0, 40, 64
2, 35737, Note_on_c, 0, 74, 39
2, 35738, Note_on_c, 0, 68, 58
2, 35746, Note_off_c, 0, 62, 64
2, 35761, Control_c, 0, 64, 0
2, 35761, Control_c, 0, 64, 0
2, 35782, Note_on_c, 0, 62, 53
2, 35790, Note_on_c, 0, 59, 49
2, 35792, Note_on_c, 0, 52, 46
2, 35796, Control_c, 0, 64, 127
2, 35796, Control_c, 0, 64, 127
2, 35841, Note_off_c, 0, 59, 64
2, 35843, Note_off_c, 0, 52, 64
2, 35900, Note_off_c, 0, 74, 64
2, 35901, Note_off_c, 0, 68, 64
2, 35907, Note_off_c, 0, 62, 64
2, 35936, Control_c, 0, 64, 0
2, 35936, Control_c, 0, 64, 0
2, 35939, Note_on_c, 0, 52, 46
2, 35943, Note_on_c, 0, 59, 39
2, 35944, Note_on_c, 0, 62, 53
2, 35945, Note_on_c, 0, 74, 46
2, 35990, Note_off_c, 0, 52, 64
2, 35994, Note_off_c, 0, 59, 64
2, 36022, Note_off_c, 0, 62, 64
2, 36023, Note_off_c, 0, 74, 64
2, 36090, Note_on_c, 0, 69, 43
2, 36091, Note_on_c, 0, 45, 49
2, 36098, Note_on_c, 0, 74, 50
2, 36104, Control_c, 0, 64, 0
2, 36104, Control_c, 0, 64, 0
2, 36116, Control_c, 0, 64, 127
2, 36116, Control_c, 0, 64, 127
2, 36127, Note_off_c, 0, 69, 64
2, 36132, Note_on_c, 0, 62, 42
2, 36136, Note_off_c, 0, 74, 64
2, 36165, Note_on_c, 0, 69, 49
2, 36172, Note_on_c, 0, 74, 46
2, 36173, Note_off_c, 0, 45, 64
2, 36182, Note_off_c, 0, 62, 64
2, 36213, Note_on_c, 0, 62, 43
2, 36216, Control_c, 0, 64, 0
2, 36216, Control_c, 0, 64, 0
2, 36221, Note_off_c, 0, 69, 64
2, 36229, Control_c, 0, 64, 127
2, 36229, Control_c, 0, 64, 127
2, 36237, Note_on_c, 0, 52, 43
2, 36240, Note_on_c, 0, 57, 42
2, 36288, Note_off_c, 0, 52, 64
2, 36291, Note_off_c, 0, 57, 64
2, 36338, Note_off_c, 0, 62, 64
2, 36367, Note_off_c, 0, 74, 64
2, 36382, Note_on_c, 0, 57, 39
2, 36386, Note_on_c, 0, 52, 43
2, 36433, Note_off_c, 0, 57, 64
2, 36437, Note_off_c, 0, 52, 64
2, 36444, Note_on_c, 0, 73, 46
2, 36444, Note_on_c, 0, 61, 53
2, 36522, Note_off_c, 0, 61, 64
2, 36522, Note_off_c, 0, 73, 64
2, 36582, Note_on_c, 0, 41, 39
2, 36585, Note_on_c, 0, 68, 35
2, 36592, Note_on_c, 0, 74, 36
2, 36620, Note_on_c, 0, 62, 39
2, 36622, Note_off_c, 0, 68, 64
2, 36636, Note_off_c, 0, 74, 64
2, 36663, Note_on_c, 0, 68, 49
2, 36664, Note_off_c, 0, 41, 64
2, 36669, Note_off_c, 0, 62, 64
2, 36673, Note_on_c, 0, 74, 43
2, 36705, Note_on_c, 0, 62, 45
2, 36708, Control_c, 0, 64, 0
2, 36708, Control_c, 0, 64, 0
2, 36726, Note_on_c, 0, 59, 39
2, 36732, Note_on_c, 0, 53, 45
2, 36736, Control_c, 0, 64, 127
2, 36736, Control_c, 0, 64, 127
2, 36777, Note_off_c, 0, 59, 64
2, 36783, Note_off_c, 0, 53, 64
2, 36830, Note_off_c, 0, 62, 64
2, 36833, Note_off_c, 0, 68, 64
2, 36843, Note_off_c, 0, 74, 64
2, 36860, Note_on_c, 0, 74, 43
2, 36860, Note_on_c, 0, 62, 43
2, 36864, Control_c, 0, 64, 0
2, 36864, Control_c, 0, 64, 0
2, 36872, Note_on_c, 0, 59, 27
2, 36872, Note_on_c, 0, 53, 34
2, 36923, Note_off_c, 0, 53, 64
2, 36923, Note_off_c, 0, 59, 64
2, 36938, Note_off_c, 0, 62, 64
2, 36938, Note_off_c, 0, 74, 64
2, 37008, Note_on_c, 0, 69, 39
2, 37010, Note_on_c, 0, 42, 46
2, 37016, Note_on_c, 0, 74, 45
2, 37023, Control_c, 0, 64, 0
2, 37023, Control_c, 0, 64, 0
2, 37039, Control_c, 0, 64, 127
2, 37039, Control_c, 0, 64, 127
2, 37047, Note_off_c, 0, 69, 64
2, 37050, Note_off_c, 0, 74, 64
2, 37055, Note_on_c, 0, 62, 43
2, 37080, Note_on_c, 0, 74, 39
2, 37082, Note_on_c, 0, 69, 49
2, 37092, Note_off_c, 0, 42, 64
2, 37105, Note_off_c, 0, 62, 64
2, 37134, Note_on_c, 0, 62, 47
2, 37142, Note_on_c, 0, 54, 49
2, 37150, Note_on_c, 0, 57, 43
2, 37193, Note_off_c, 0, 54, 64
2, 37201, Note_off_c, 0, 57, 64
2, 37245, Note_off_c, 0, 74, 64
2, 37247, Note_off_c, 0, 69, 64
2, 37259, Note_off_c, 0, 62, 64
2, 37276, Note_on_c, 0, 54, 50
2, 37280, Note_on_c, 0, 57, 35
2, 37327, Note_off_c, 0, 54, 64
2, 37331, Note_off_c, 0, 57, 64
2, 37332, Note_on_c, 0, 73, 46
2, 37332, Note_on_c, 0, 61, 49
2, 37410, Note_off_c, 0, 61, 64
2, 37410, Note_off_c, 0, 73, 64
2, 37425, Note_on_c, 0, 41, 47
2, 37430, Note_on_c, 0, 68, 28
2, 37433, Control_c, 0, 64, 0
2, 37433, Control_c, 0, 64, 0
2, 37440, Note_on_c, 0, 74, 46
2, 37452, Control_c, 0, 64, 127
2, 37452, Control_c, 0, 64, 127
2, 37466, Note_off_c, 0, 68, 64
2, 37466, Note_on_c, 0, 62, 46
2, 37482, Note_off_c, 0, 74, 64
2, 37507, Note_off_c, 0, 41, 64
2, 37507, Note_on_c, 0, 68, 50
2, 37508, Note_on_c, 0, 74, 43
2, 37513, Note_off_c, 0, 62, 64
2, 37527, Control_c, 0, 64, 0
2, 37527, Control_c, 0, 64, 0
2, 37548, Note_on_c, 0, 62, 47
2, 37548, Note_on_c, 0, 59, 46
2, 37554, Note_on_c, 0, 53, 43
2, 37554, Control_c, 0, 64, 127
2, 37554, Control_c, 0, 64, 127
2, 37599, Note_off_c, 0, 59, 64
2, 37605, Note_off_c, 0, 53, 64
2, 37667, Note_off_c, 0, 68, 64
2, 37668, Note_off_c, 0, 74, 64
2, 37673, Note_off_c, 0, 62, 64
2, 37690, Note_on_c, 0, 53, 27
2, 37692, Note_on_c, 0, 74, 46
2, 37692, Control_c, 0, 64, 0
2, 37692, Control_c, 0, 64, 0
2, 37694, Note_on_c, 0, 62, 53
2, 37695, Note_on_c, 0, 59, 27
2, 37741, Note_off_c, 0, 53, 64
2, 37746, Note_off_c, 0, 59, 64
2, 37770, Note_off_c, 0, 74, 64
2, 37772, Note_off_c, 0, 62, 64
2, 37822, Note_on_c, 0, 69, 46
2, 37822, Note_on_c, 0, 42, 47
2, 37829, Note_on_c, 0, 74, 47
2, 37832, Control_c, 0, 64, 0
2, 37832, Control_c, 0, 64, 0
2, 37847, Control_c, 0, 64, 127
2, 37847, Control_c, 0, 64, 127
2, 37860, Note_off_c, 0, 69, 64
2, 37864, Note_off_c, 0, 74, 64
2, 37868, Note_on_c, 0, 62, 43
2, 37897, Note_on_c, 0, 69, 56
2, 37904, Note_off_c, 0, 42, 64
2, 37904, Note_on_c, 0, 74, 50
2, 37911, Note_off_c, 0, 62, 64
2, 37936, Note_on_c, 0, 62, 50
2, 37936, Control_c, 0, 64, 0
2, 37936, Control_c, 0, 64, 0
2, 37946, Note_on_c, 0, 54, 50
2, 37953, Note_on_c, 0, 57, 43
2, 37966, Control_c, 0, 64, 127
2, 37966, Control_c, 0, 64, 127
2, 37997, Note_off_c, 0, 54, 64
2, 38004, Note_off_c, 0, 57, 64
2, 38063, Note_off_c, 0, 62, 64
2, 38088, Note_on_c, 0, 54, 43
2, 38096, Note_on_c, 0, 57, 32
2, 38128, Note_off_c, 0, 69, 64
2, 38135, Note_off_c, 0, 74, 64
2, 38139, Note_off_c, 0, 54, 64
2, 38147, Note_off_c, 0, 57, 64
2, 38150, Note_on_c, 0, 73, 56
2, 38152, Note_on_c, 0, 61, 56
2, 38228, Note_off_c, 0, 73, 64
2, 38230, Note_off_c, 0, 61, 64
2, 38247, Note_on_c, 0, 40, 47
2, 38256, Control_c, 0, 64, 0
2, 38256, Control_c, 0, 64, 0
2, 38260, Note_on_c, 0, 74, 53
2, 38260, Note_on_c, 0, 68, 50
2, 38273, Control_c, 0, 64, 127
2, 38273, Control_c, 0, 64, 127
2, 38296, Note_off_c, 0, 74, 64
2, 38296, Note_on_c, 0, 62, 49
2, 38310, Note_off_c, 0, 68, 64
2, 38329, Note_off_c, 0, 40, 64
2, 38336, Note_on_c, 0, 68, 60
2, 38338, Note_off_c, 0, 62, 64
2, 38340, Note_on_c, 0, 74, 60
2, 38361, Control_c, 0, 64, 0
2, 38361, Control_c, 0, 64, 0
2, 38374, Note_on_c, 0, 62, 58
2, 38376, Control_c, 0, 64, 127
2, 38376, Control_c, 0, 64, 127
2, 38384, Note_on_c, 0, 59, 53
2, 38384, Note_on_c, 0, 52, 43
2, 38435, Note_off_c, 0, 52, 64
2, 38435, Note_off_c, 0, 59, 64
2, 38497, Note_off_c, 0, 68, 64
2, 38499, Note_off_c, 0, 62, 64
2, 38501, Note_off_c, 0, 74, 64
2, 38516, Note_on_c, 0, 74, 50
2, 38516, Control_c, 0, 64, 0
2, 38516, Control_c, 0, 64, 0
2, 38519, Note_on_c, 0, 62, 58
2, 38525, Note_on_c, 0, 52, 46
2, 38531, Note_on_c, 0, 59, 39
2, 38576, Note_off_c, 0, 52, 64
2, 38582, Note_off_c, 0, 59, 64
2, 38594, Note_off_c, 0, 74, 64
2, 38597, Note_off_c, 0, 62, 64
2, 38669, Note_on_c, 0, 69, 47
2, 38670, Note_on_c, 0, 74, 53
2, 38672, Note_on_c, 0, 45, 58
2, 38698, Note_off_c, 0, 69, 64
2, 38703, Note_off_c, 0, 74, 64
2, 38703, Note_on_c, 0, 62, 53
2, 38739, Note_on_c, 0, 74, 58
2, 38739, Note_on_c, 0, 69, 58
2, 38747, Note_off_c, 0, 62, 64
2, 38754, Note_off_c, 0, 45, 64
2, 38770, Control_c, 0, 64, 0
2, 38770, Control_c, 0, 64, 0
2, 38785, Note_on_c, 0, 62, 58
2, 38785, Control_c, 0, 64, 127
2, 38785, Control_c, 0, 64, 127
2, 38801, Note_on_c, 0, 52, 54
2, 38806, Note_on_c, 0, 57, 53
2, 38852, Note_off_c, 0, 52, 64
2, 38857, Note_off_c, 0, 57, 64
2, 38910, Note_off_c, 0, 62, 64
2, 38919, Note_off_c, 0, 69, 64
2, 38919, Note_off_c, 0, 74, 64
2, 38927, Note_on_c, 0, 57, 49
2, 38929, Note_on_c, 0, 52, 54
2, 38978, Note_off_c, 0, 57, 64
2, 38980, Note_off_c, 0, 52, 64
2, 38984, Note_on_c, 0, 61, 64
2, 38987, Note_on_c, 0, 73, 47
2, 39062, Note_off_c, 0, 61, 64
2, 39065, Note_off_c, 0, 73, 64
2, 39078, Note_on_c, 0, 40, 49
2, 39089, Control_c, 0, 64, 0
2, 39089, Control_c, 0, 64, 0
2, 39092, Note_on_c, 0, 68, 56
2, 39096, Note_on_c, 0, 74, 56
2, 39108, Control_c, 0, 64, 127
2, 39108, Control_c, 0, 64, 127
2, 39132, Note_on_c, 0, 62, 53
2, 39133, Note_off_c, 0, 68, 64
2, 39138, Note_off_c, 0, 74, 64
2, 39160, Note_off_c, 0, 40, 64
2, 39168, Note_on_c, 0, 74, 50
2, 39170, Note_on_c, 0, 68, 65
2, 39177, Note_off_c, 0, 62, 64
2, 39207, Note_on_c, 0, 62, 56
2, 39213, Note_on_c, 0, 52, 58
2, 39217, Note_on_c, 0, 59, 56
2, 39264, Note_off_c, 0, 52, 64
2, 39268, Note_off_c, 0, 59, 64
2, 39332, Note_off_c, 0, 62, 64
2, 39369, Note_off_c, 0, 74, 64
2, 39371, Note_off_c, 0, 68, 64
2, 39384, Note_on_c, 0, 59, 53
2, 39388, Note_on_c, 0, 74, 58
2, 39388, Control_c, 0, 64, 0
2, 39388, Control_c, 0, 64, 0
2, 39389, Note_on_c, 0, 62, 58
2, 39392, Note_on_c, 0, 52, 43
2, 39435, Note_off_c, 0, 59, 64
2, 39443, Note_off_c, 0, 52, 64
2, 39513, Note_off_c, 0, 74, 64
2, 39514, Note_off_c, 0, 62, 64
2, 39582, Note_on_c, 0, 67, 49
2, 39582, Note_on_c, 0, 45, 56
2, 39586, Note_on_c, 0, 74, 60
2, 39595, Control_c, 0, 64, 0
2, 39595, Control_c, 0, 64, 0
2, 39629, Note_off_c, 0, 67, 64
2, 39629, Control_c, 0, 64, 127
2, 39629, Control_c, 0, 64, 127
2, 39636, Note_on_c, 0, 62, 60
2, 39638, Note_off_c, 0, 74, 64
2, 39665, Note_on_c, 0, 67, 60
2, 39668, Note_on_c, 0, 74, 60
2, 39668, Control_c, 0, 64, 0
2, 39668, Control_c, 0, 64, 0
2, 39685, Note_off_c, 0, 62, 64
2, 39732, Note_on_c, 0, 57, 39
2, 39733, Note_on_c, 0, 62, 49
2, 39736, Note_on_c, 0, 64, 56
2, 39773, Note_off_c, 0, 45, 64
2, 39971, Note_off_c, 0, 57, 64
2, 39975, Note_off_c, 0, 64, 64
2, 40008, Note_on_c, 0, 61, 58
2, 40008, Note_on_c, 0, 57, 53
2, 40010, Note_on_c, 0, 64, 53
2, 40021, Note_off_c, 0, 62, 64
2, 40146, Note_on_c, 0, 73, 63
2, 40151, Note_off_c, 0, 67, 64
2, 40154, Note_off_c, 0, 74, 64
2, 40308, Note_on_c, 0, 50, 49
2, 40313, Note_on_c, 0, 69, 64
2, 40325, Note_off_c, 0, 73, 64
2, 40332, Control_c, 0, 64, 0
2, 40332, Control_c, 0, 64, 0
2, 40340, Note_off_c, 0, 57, 64
2, 40340, Note_off_c, 0, 61, 64
2, 40342, Note_off_c, 0, 64, 64
2, 40365, Control_c, 0, 64, 127
2, 40365, Control_c, 0, 64, 127
2, 40390, Note_off_c, 0, 50, 64
2, 40416, Note_on_c, 0, 73, 57
2, 40424, Note_off_c, 0, 69, 64
2, 40492, Note_on_c, 0, 62, 53
2, 40492, Note_on_c, 0, 57, 53
2, 40492, Note_on_c, 0, 50, 49
2, 40495, Note_on_c, 0, 74, 67
2, 40495, Note_on_c, 0, 66, 53
2, 40504, Note_off_c, 0, 73, 64
2, 40543, Note_off_c, 0, 50, 64
2, 40543, Note_off_c, 0, 57, 64
2, 40543, Note_off_c, 0, 62, 64
2, 40546, Note_off_c, 0, 66, 64
2, 40571, Note_on_c, 0, 76, 58
2, 40594, Note_off_c, 0, 74, 64
2, 40620, Note_on_c, 0, 62, 53
2, 40620, Note_on_c, 0, 57, 47
2, 40621, Note_on_c, 0, 78, 73
2, 40623, Note_on_c, 0, 66, 53
2, 40624, Note_on_c, 0, 50, 49
2, 40649, Note_off_c, 0, 76, 64
2, 40671, Note_off_c, 0, 57, 64
2, 40671, Note_off_c, 0, 62, 64
2, 40674, Note_off_c, 0, 66, 64
2, 40675, Note_off_c, 0, 50, 64
2, 40682, Note_on_c, 0, 79, 56
2, 40706, Note_off_c, 0, 78, 64
2, 40760, Control_c, 0, 64, 0
2, 40760, Control_c, 0, 64, 0
2, 40771, Note_on_c, 0, 78, 75
2, 40780, Note_on_c, 0, 45, 53
2, 40784, Note_off_c, 0, 79, 64
2, 40793, Note_on_c, 0, 79, 58
2, 40801, Control_c, 0, 64, 127
2, 40801, Control_c, 0, 64, 127
2, 40816, Note_off_c, 0, 78, 64
2, 40855, Note_on_c, 0, 78, 60
2, 40862, Note_off_c, 0, 45, 64
2, 40878, Note_off_c, 0, 79, 64
2, 40899, Control_c, 0, 64, 0
2, 40899, Control_c, 0, 64, 0
2, 40912, Note_on_c, 0, 67, 53
2, 40915, Note_on_c, 0, 76, 58
2, 40915, Control_c, 0, 64, 127
2, 40915, Control_c, 0, 64, 127
2, 40916, Note_on_c, 0, 64, 43
2, 40916, Note_on_c, 0, 61, 47
2, 40916, Note_on_c, 0, 57, 39
2, 40938, Note_off_c, 0, 78, 64
2, 40963, Note_off_c, 0, 67, 64
2, 40967, Note_off_c, 0, 57, 64
2, 40967, Note_off_c, 0, 61, 64
2, 40967, Note_off_c, 0, 64, 64
2, 40967, Note_on_c, 0, 74, 67
2, 40976, Note_off_c, 0, 76, 64
2, 41039, Note_on_c, 0, 73, 73
2, 41039, Note_on_c, 0, 67, 53
2, 41039, Note_on_c, 0, 57, 39
2, 41040, Note_on_c, 0, 64, 32
2, 41040, Note_on_c, 0, 61, 53
2, 41052, Note_off_c, 0, 74, 64
2, 41090, Note_off_c, 0, 57, 64
2, 41090, Note_off_c, 0, 67, 64
2, 41091, Note_off_c, 0, 61, 64
2, 41091, Note_off_c, 0, 64, 64
2, 41102, Note_on_c, 0, 71, 56
2, 41123, Note_off_c, 0, 73, 64
2, 41161, Control_c, 0, 64, 0
2, 41161, Control_c, 0, 64, 0
2, 41172, Note_on_c, 0, 69, 60
2, 41176, Note_on_c, 0, 38, 58
2, 41186, Note_off_c, 0, 71, 64
2, 41186, Control_c, 0, 64, 127
2, 41186, Control_c, 0, 64, 127
2, 41241, Note_on_c, 0, 74, 60
2, 41258, Note_off_c, 0, 38, 64
2, 41287, Note_off_c, 0, 69, 64
2, 41287, Note_off_c, 0, 74, 64
2, 41292, Control_c, 0, 64, 0
2, 41292, Control_c, 0, 64, 0
2, 41308, Note_on_c, 0, 66, 53
2, 41312, Note_on_c, 0, 62, 39
2, 41313, Note_on_c, 0, 74, 60
2, 41316, Note_on_c, 0, 57, 35
2, 41316, Note_on_c, 0, 50, 35
2, 41324, Control_c, 0, 64, 127
2, 41324, Control_c, 0, 64, 127
2, 41359, Note_off_c, 0, 66, 64
2, 41360, Note_on_c, 0, 76, 69
2, 41363, Note_off_c, 0, 62, 64
2, 41367, Note_off_c, 0, 50, 64
2, 41367, Note_off_c, 0, 57, 64
2, 41372, Note_off_c, 0, 74, 64
2, 41406, Note_on_c, 0, 74, 54
2, 41424, Note_off_c, 0, 76, 64
2, 41445, Note_on_c, 0, 73, 73
2, 41447, Note_on_c, 0, 66, 53
2, 41448, Note_on_c, 0, 62, 27
2, 41448, Note_on_c, 0, 57, 26
2, 41448, Note_on_c, 0, 50, 27
2, 41472, Note_off_c, 0, 74, 64
2, 41498, Note_off_c, 0, 66, 64
2, 41499, Note_off_c, 0, 50, 64
2, 41499, Note_off_c, 0, 57, 64
2, 41499, Note_off_c, 0, 62, 64
2, 41506, Note_on_c, 0, 71, 54
2, 41517, Note_off_c, 0, 73, 64
2, 41575, Note_on_c, 0, 73, 75
2, 41575, Note_on_c, 0, 45, 46
2, 41586, Control_c, 0, 64, 0
2, 41586, Control_c, 0, 64, 0
2, 41588, Note_off_c, 0, 71, 64
2, 41601, Control_c, 0, 64, 127
2, 41601, Control_c, 0, 64, 127
2, 41714, Control_c, 0, 64, 0
2, 41714, Control_c, 0, 64, 0
2, 41720, Note_on_c, 0, 69, 35
2, 41720, Note_on_c, 0, 64, 49
2, 41720, Note_on_c, 0, 57, 46
2, 41736, Note_off_c, 0, 45, 64
2, 41749, Control_c, 0, 64, 127
2, 41749, Control_c, 0, 64, 127
2, 41802, Note_off_c, 0, 57, 64
2, 41802, Note_off_c, 0, 64, 64
2, 41802, Note_off_c, 0, 69, 64
2, 41928, Note_on_c, 0, 69, 46
2, 41928, Note_on_c, 0, 67, 43
2, 41928, Note_on_c, 0, 64, 46
2, 41932, Note_on_c, 0, 57, 43
2, 41940, Control_c, 0, 64, 0
2, 41940, Control_c, 0, 64, 0
2, 41966, Control_c, 0, 64, 127
2, 41966, Control_c, 0, 64, 127
2, 42010, Note_off_c, 0, 64, 64
2, 42010, Note_off_c, 0, 67, 64
2, 42010, Note_off_c, 0, 69, 64
2, 42014, Note_off_c, 0, 57, 64
2, 42040, Control_c, 0, 64, 127
2, 42040, Control_c, 0, 64, 127
2, 42054, Note_off_c, 0, 73, 64
2, 42119, Note_on_c, 0, 69, 58
2, 42119, Note_on_c, 0, 50, 46
2, 42120, Control_c, 0, 64, 0
2, 42120, Control_c, 0, 64, 0
2, 42136, Control_c, 0, 64, 127
2, 42136, Control_c, 0, 64, 127
2, 42191, Note_on_c, 0, 73, 56
2, 42201, Note_off_c, 0, 50, 64
2, 42215, Note_off_c, 0, 69, 64
2, 42233, Control_c, 0, 64, 0
2, 42233, Control_c, 0, 64, 0
2, 42247, Control_c, 0, 64, 127
2, 42247, Control_c, 0, 64, 127
2, 42256, Note_on_c, 0, 74, 69
2, 42257, Note_on_c, 0, 57, 43
2, 42260, Note_on_c, 0, 62, 46
2, 42263, Note_on_c, 0, 66, 43
2, 42284, Note_off_c, 0, 73, 64
2, 42308, Note_off_c, 0, 57, 64
2, 42311, Note_off_c, 0, 62, 64
2, 42314, Note_off_c, 0, 66, 64
2, 42324, Note_on_c, 0, 76, 58
2, 42352, Note_off_c, 0, 74, 64
2, 42374, Note_on_c, 0, 50, 47
2, 42375, Note_on_c, 0, 78, 73
2, 42376, Note_on_c, 0, 62, 46
2, 42376, Note_on_c, 0, 57, 43
2, 42379, Note_on_c, 0, 66, 53
2, 42398, Note_off_c, 0, 76, 64
2, 42425, Note_off_c, 0, 50, 64
2, 42427, Note_off_c, 0, 57, 64
2, 42427, Note_off_c, 0, 62, 64
2, 42430, Note_off_c, 0, 66, 64
2, 42434, Note_on_c, 0, 79, 45
2, 42452, Note_off_c, 0, 78, 64
2, 42505, Control_c, 0, 64, 0
2, 42505, Control_c, 0, 64, 0
2, 42511, Note_on_c, 0, 43, 47
2, 42514, Note_on_c, 0, 78, 75
2, 42524, Control_c, 0, 64, 127
2, 42524, Control_c, 0, 64, 127
2, 42529, Note_off_c, 0, 79, 64
2, 42532, Note_on_c, 0, 79, 58
2, 42557, Note_off_c, 0, 78, 64
2, 42593, Note_off_c, 0, 43, 64
2, 42593, Note_on_c, 0, 78, 69
2, 42611, Note_off_c, 0, 79, 64
2, 42616, Control_c, 0, 64, 0
2, 42616, Control_c, 0, 64, 0
2, 42636, Control_c, 0, 64, 127
2, 42636, Control_c, 0, 64, 127
2, 42640, Note_on_c, 0, 67, 53
2, 42640, Note_on_c, 0, 64, 47
2, 42640, Note_on_c, 0, 59, 45
2, 42641, Note_on_c, 0, 76, 64
2, 42649, Note_off_c, 0, 78, 64
2, 42691, Note_off_c, 0, 59, 64
2, 42691, Note_off_c, 0, 64, 64
2, 42691, Note_off_c, 0, 67, 64
2, 42692, Note_on_c, 0, 74, 68
2, 42711, Note_off_c, 0, 76, 64
2, 42747, Note_on_c, 0, 73, 75
2, 42748, Note_on_c, 0, 67, 53
2, 42748, Note_on_c, 0, 64, 47
2, 42748, Note_on_c, 0, 59, 45
2, 42753, Note_on_c, 0, 52, 50
2, 42758, Note_off_c, 0, 74, 64
2, 42799, Note_off_c, 0, 59, 64
2, 42799, Note_off_c, 0, 64, 64
2, 42799, Note_off_c, 0, 67, 64
2, 42804, Note_off_c, 0, 52, 64
2, 42804, Note_on_c, 0, 71, 56
2, 42817, Note_off_c, 0, 73, 64
2, 42869, Note_on_c, 0, 69, 60
2, 42876, Note_on_c, 0, 45, 54
2, 42902, Note_off_c, 0, 71, 64
2, 42930, Note_on_c, 0, 73, 68
2, 42948, Note_off_c, 0, 69, 64
2, 42958, Note_off_c, 0, 45, 64
2, 42973, Note_off_c, 0, 73, 64
2, 42995, Control_c, 0, 64, 0
2, 42995, Control_c, 0, 64, 0
2, 42996, Note_on_c, 0, 64, 54
2, 43000, Note_on_c, 0, 67, 43
2, 43003, Note_on_c, 0, 73, 68
2, 43004, Note_on_c, 0, 57, 53
2, 43015, Control_c, 0, 64, 127
2, 43015, Control_c, 0, 64, 127
2, 43047, Note_off_c, 0, 64, 64
2, 43049, Note_on_c, 0, 74, 65
2, 43051, Note_off_c, 0, 67, 64
2, 43055, Note_off_c, 0, 57, 64
2, 43062, Note_off_c, 0, 73, 64
2, 43096, Note_on_c, 0, 73, 58
2, 43117, Note_off_c, 0, 74, 64
2, 43144, Note_on_c, 0, 67, 53
2, 43144, Note_on_c, 0, 64, 31
2, 43146, Note_on_c, 0, 71, 58
2, 43148, Note_on_c, 0, 57, 39
2, 43184, Note_off_c, 0, 73, 64
2, 43195, Note_off_c, 0, 64, 64
2, 43195, Note_off_c, 0, 67, 64
2, 43199, Note_off_c, 0, 57, 64
2, 43205, Note_on_c, 0, 69, 60
2, 43231, Note_off_c, 0, 71, 64
2, 43280, Control_c, 0, 64, 0
2, 43280, Control_c, 0, 64, 0
2, 43284, Note_on_c, 0, 74, 68
2, 43286, Note_on_c, 0, 38, 47
2, 43306, Note_off_c, 0, 69, 64
2, 43332, Control_c, 0, 64, 127
2, 43332, Control_c, 0, 64, 127
2, 43447, Note_off_c, 0, 38, 64
2, 43454, Note_on_c, 0, 50, 43
2, 43460, Note_on_c, 0, 66, 34
2, 43460, Note_on_c, 0, 57, 43
2, 43465, Note_on_c, 0, 62, 35
2, 43476, Control_c, 0, 64, 0
2, 43476, Control_c, 0, 64, 0
2, 43507, Control_c, 0, 64, 127
2, 43507, Control_c, 0, 64, 127
2, 43535, Note_off_c, 0, 50, 64
2, 43548, Note_off_c, 0, 57, 64
2, 43552, Note_off_c, 0, 62, 64
2, 43556, Note_off_c, 0, 66, 64
2, 43699, Note_on_c, 0, 50, 27
2, 43704, Note_on_c, 0, 57, 27
2, 43713, Note_on_c, 0, 62, 27
2, 43720, Note_on_c, 0, 66, 34
2, 43739, Control_c, 0, 64, 0
2, 43739, Control_c, 0, 64, 0
2, 43774, Control_c, 0, 64, 127
2, 43774, Control_c, 0, 64, 127
2, 43964, Note_off_c, 0, 74, 64
2, 43969, Note_on_c, 0, 69, 24
2, 43971, Note_off_c, 0, 50, 64
2, 43984, Note_off_c, 0, 57, 64
2, 43991, Note_off_c, 0, 62, 64
2, 44031, Note_off_c, 0, 66, 64
2, 44060, Note_on_c, 0, 73, 35
2, 44073, Note_off_c, 0, 69, 64
2, 44144, Note_on_c, 0, 66, 23
2, 44145, Note_on_c, 0, 74, 45
2, 44148, Note_on_c, 0, 62, 32
2, 44148, Note_on_c, 0, 57, 16
2, 44148, Note_on_c, 0, 50, 23
2, 44156, Note_off_c, 0, 73, 64
2, 44195, Note_off_c, 0, 66, 64
2, 44199, Note_off_c, 0, 50, 64
2, 44199, Note_off_c, 0, 57, 64
2, 44199, Note_off_c, 0, 62, 64
2, 44226, Note_on_c, 0, 76, 24
2, 44236, Note_off_c, 0, 74, 64
2, 44284, Note_on_c, 0, 62, 32
2, 44284, Note_on_c, 0, 57, 23
2, 44284, Note_on_c, 0, 50, 23
2, 44286, Note_on_c, 0, 78, 50
2, 44287, Note_on_c, 0, 66, 32
2, 44308, Note_off_c, 0, 76, 64
2, 44335, Note_off_c, 0, 50, 64
2, 44335, Note_off_c, 0, 57, 64
2, 44335, Note_off_c, 0, 62, 64
2, 44338, Note_off_c, 0, 66, 64
2, 44348, Note_on_c, 0, 79, 27
2, 44368, Note_off_c, 0, 78, 64
2, 44433, Note_on_c, 0, 78, 45
2, 44436, Note_on_c, 0, 45, 31
2, 44447, Note_off_c, 0, 79, 64
2, 44462, Note_on_c, 0, 79, 35
2, 44478, Note_off_c, 0, 78, 64
2, 44518, Note_off_c, 0, 45, 64
2, 44521, Note_on_c, 0, 78, 34
2, 44551, Note_off_c, 0, 79, 64
2, 44571, Control_c, 0, 64, 0
2, 44571, Control_c, 0, 64, 0
2, 44588, Note_on_c, 0, 76, 23
2, 44588, Note_on_c, 0, 61, 16
2, 44588, Note_on_c, 0, 57, 24
2, 44588, Note_on_c, 0, 52, 10
2, 44592, Note_on_c, 0, 67, 32
2, 44599, Control_c, 0, 64, 127
2, 44599, Control_c, 0, 64, 127
2, 44600, Note_off_c, 0, 78, 64
2, 44639, Note_off_c, 0, 52, 64
2, 44639, Note_off_c, 0, 57, 64
2, 44639, Note_off_c, 0, 61, 64
2, 44643, Note_off_c, 0, 67, 64
2, 44653, Note_on_c, 0, 74, 43
2, 44668, Note_off_c, 0, 76, 64
2, 44712, Note_on_c, 0, 73, 50
2, 44716, Note_on_c, 0, 61, 26
2, 44716, Note_on_c, 0, 57, 23
2, 44716, Note_on_c, 0, 52, 10
2, 44719, Note_on_c, 0, 67, 32
2, 44727, Note_off_c, 0, 74, 64
2, 44767, Note_off_c, 0, 52, 64
2, 44767, Note_off_c, 0, 57, 64
2, 44767, Note_off_c, 0, 61, 64
2, 44770, Note_off_c, 0, 67, 64
2, 44787, Note_on_c, 0, 71, 31
2, 44796, Note_off_c, 0, 73, 64
2, 44854, Note_on_c, 0, 69, 34
2, 44858, Note_off_c, 0, 71, 64
2, 44862, Note_on_c, 0, 38, 42
2, 44930, Note_on_c, 0, 74, 35
2, 44944, Note_off_c, 0, 38, 64
2, 44948, Note_off_c, 0, 69, 64
2, 44967, Note_off_c, 0, 74, 64
2, 44998, Control_c, 0, 64, 0
2, 44998, Control_c, 0, 64, 0
2, 45000, Note_on_c, 0, 50, 16
2, 45003, Note_on_c, 0, 74, 43
2, 45003, Note_on_c, 0, 66, 32
2, 45004, Note_on_c, 0, 62, 19
2, 45004, Note_on_c, 0, 57, 16
2, 45025, Control_c, 0, 64, 127
2, 45025, Control_c, 0, 64, 127
2, 45051, Note_off_c, 0, 50, 64
2, 45052, Note_on_c, 0, 76, 47
2, 45054, Note_off_c, 0, 66, 64
2, 45055, Note_off_c, 0, 57, 64
2, 45055, Note_off_c, 0, 62, 64
2, 45063, Note_off_c, 0, 74, 64
2, 45104, Note_on_c, 0, 74, 35
2, 45119, Note_off_c, 0, 76, 64
2, 45149, Note_on_c, 0, 62, 15
2, 45150, Note_on_c, 0, 73, 50
2, 45152, Note_on_c, 0, 57, 16
2, 45152, Note_on_c, 0, 50, 10
2, 45155, Note_on_c, 0, 66, 32
2, 45166, Note_off_c, 0, 74, 64
2, 45200, Note_off_c, 0, 62, 64
2, 45203, Note_off_c, 0, 50, 64
2, 45203, Note_off_c, 0, 57, 64
2, 45206, Note_off_c, 0, 66, 64
2, 45214, Note_on_c, 0, 71, 45
2, 45229, Note_off_c, 0, 73, 64
2, 45291, Note_on_c, 0, 73, 49
2, 45296, Note_off_c, 0, 71, 64
2, 45298, Note_on_c, 0, 45, 34
2, 45299, Control_c, 0, 64, 0
2, 45299, Control_c, 0, 64, 0
2, 45312, Control_c, 0, 64, 127
2, 45312, Control_c, 0, 64, 127
2, 45450, Note_on_c, 0, 69, 17
2, 45452, Note_on_c, 0, 64, 16
2, 45452, Note_on_c, 0, 61, 15
2, 45454, Note_on_c, 0, 57, 23
2, 45459, Note_off_c, 0, 45, 64
2, 45467, Control_c, 0, 64, 0
2, 45467, Control_c, 0, 64, 0
2, 45483, Control_c, 0, 64, 127
2, 45483, Control_c, 0, 64, 127
2, 45532, Note_off_c, 0, 69, 64
2, 45534, Note_off_c, 0, 61, 64
2, 45534, Note_off_c, 0, 64, 64
2, 45536, Note_off_c, 0, 57, 64
2, 45656, Note_on_c, 0, 69, 24
2, 45656, Note_on_c, 0, 67, 13
2, 45657, Note_on_c, 0, 64, 16
2, 45660, Note_on_c, 0, 57, 21
2, 45738, Note_off_c, 0, 67, 64
2, 45738, Note_off_c, 0, 69, 64
2, 45739, Note_off_c, 0, 64, 64
2, 45839, Note_off_c, 0, 73, 64
2, 45840, Note_on_c, 0, 50, 31
2, 45844, Note_on_c, 0, 69, 43
2, 45846, Control_c, 0, 64, 0
2, 45846, Control_c, 0, 64, 0
2, 45862, Control_c, 0, 64, 127
2, 45862, Control_c, 0, 64, 127
2, 45922, Note_off_c, 0, 50, 64
2, 45922, Note_on_c, 0, 73, 35
2, 45944, Note_off_c, 0, 57, 64
2, 45948, Note_off_c, 0, 69, 64
2, 45990, Note_on_c, 0, 74, 47
2, 45996, Note_on_c, 0, 66, 28
2, 45996, Note_on_c, 0, 62, 23
2, 46000, Note_on_c, 0, 57, 21
2, 46011, Note_off_c, 0, 73, 64
2, 46047, Note_off_c, 0, 62, 64
2, 46047, Note_off_c, 0, 66, 64
2, 46051, Note_off_c, 0, 57, 64
2, 46063, Note_on_c, 0, 76, 35
2, 46086, Note_off_c, 0, 74, 64
2, 46112, Note_on_c, 0, 66, 32
2, 46112, Note_on_c, 0, 62, 12
2, 46115, Note_on_c, 0, 78, 47
2, 46116, Note_on_c, 0, 57, 23
2, 46116, Note_on_c, 0, 50, 23
2, 46141, Note_off_c, 0, 76, 64
2, 46163, Note_off_c, 0, 62, 64
2, 46163, Note_off_c, 0, 66, 64
2, 46167, Note_off_c, 0, 50, 64
2, 46167, Note_off_c, 0, 57, 64
2, 46177, Note_on_c, 0, 79, 31
2, 46191, Note_off_c, 0, 78, 64
2, 46255, Note_on_c, 0, 78, 50
2, 46260, Note_on_c, 0, 43, 35
2, 46262, Note_off_c, 0, 79, 64
2, 46265, Control_c, 0, 64, 0
2, 46265, Control_c, 0, 64, 0
2, 46278, Control_c, 0, 64, 127
2, 46278, Control_c, 0, 64, 127
2, 46286, Note_on_c, 0, 79, 38
2, 46301, Note_off_c, 0, 78, 64
2, 46335, Note_on_c, 0, 78, 39
2, 46342, Note_off_c, 0, 43, 64
2, 46361, Note_off_c, 0, 79, 64
2, 46388, Note_on_c, 0, 64, 12
2, 46389, Note_on_c, 0, 59, 23
2, 46393, Note_on_c, 0, 76, 27
2, 46395, Note_on_c, 0, 67, 32
2, 46412, Note_off_c, 0, 78, 64
2, 46439, Note_off_c, 0, 64, 64
2, 46440, Note_off_c, 0, 59, 64
2, 46446, Note_off_c, 0, 67, 64
2, 46451, Note_on_c, 0, 74, 43
2, 46465, Note_off_c, 0, 76, 64
2, 46512, Note_on_c, 0, 73, 49
2, 46512, Note_on_c, 0, 64, 12
2, 46516, Note_on_c, 0, 59, 23
2, 46519, Note_on_c, 0, 67, 32
2, 46520, Note_on_c, 0, 52, 28
2, 46527, Note_off_c, 0, 74, 64
2, 46563, Note_off_c, 0, 64, 64
2, 46567, Note_off_c, 0, 59, 64
2, 46570, Note_off_c, 0, 67, 64
2, 46571, Note_off_c, 0, 52, 64
2, 46580, Note_on_c, 0, 71, 34
2, 46597, Note_off_c, 0, 73, 64
2, 46649, Note_on_c, 0, 69, 35
2, 46657, Note_off_c, 0, 71, 64
2, 46659, Control_c, 0, 64, 0
2, 46659, Control_c, 0, 64, 0
2, 46665, Note_on_c, 0, 45, 31
2, 46677, Control_c, 0, 64, 127
2, 46677, Control_c, 0, 64, 127
2, 46720, Note_on_c, 0, 73, 49
2, 46745, Note_off_c, 0, 69, 64
2, 46747, Note_off_c, 0, 45, 64
2, 46763, Note_off_c, 0, 73, 64
2, 46790, Control_c, 0, 64, 0
2, 46790, Control_c, 0, 64, 0
2, 46796, Note_on_c, 0, 67, 13
2, 46796, Note_on_c, 0, 64, 13
2, 46796, Note_on_c, 0, 57, 24
2, 46799, Note_on_c, 0, 73, 47
2, 46813, Control_c, 0, 64, 127
2, 46813, Control_c, 0, 64, 127
2, 46845, Note_on_c, 0, 74, 47
2, 46847, Note_off_c, 0, 57, 64
2, 46847, Note_off_c, 0, 64, 64
2, 46847, Note_off_c, 0, 67, 64
2, 46858, Note_off_c, 0, 73, 64
2, 46896, Note_on_c, 0, 73, 43
2, 46920, Note_off_c, 0, 74, 64
2, 46952, Note_on_c, 0, 71, 32
2, 46952, Note_on_c, 0, 64, 23
2, 46952, Note_on_c, 0, 57, 23
2, 46955, Note_on_c, 0, 67, 32
2, 46974, Note_off_c, 0, 73, 64
2, 47003, Note_off_c, 0, 57, 64
2, 47003, Note_off_c, 0, 64, 64
2, 47006, Note_off_c, 0, 67, 64
2, 47015, Note_on_c, 0, 69, 35
2, 47024, Note_off_c, 0, 71, 64
2, 47078, Control_c, 0, 64, 0
2, 47078, Control_c, 0, 64, 0
2, 47084, Note_on_c, 0, 38, 34
2, 47086, Note_on_c, 0, 74, 46
2, 47109, Control_c, 0, 64, 127
2, 47109, Control_c, 0, 64, 127
2, 47114, Note_off_c, 0, 69, 64
2, 47245, Note_off_c, 0, 38, 64
2, 47250, Note_on_c, 0, 66, 21
2, 47250, Note_on_c, 0, 57, 13
2, 47252, Note_on_c, 0, 62, 16
2, 47253, Note_on_c, 0, 50, 13
2, 47267, Control_c, 0, 64, 0
2, 47267, Control_c, 0, 64, 0
2, 47281, Control_c, 0, 64, 127
2, 47281, Control_c, 0, 64, 127
2, 47332, Note_off_c, 0, 57, 64
2, 47332, Note_off_c, 0, 66, 64
2, 47334, Note_off_c, 0, 62, 64
2, 47335, Note_off_c, 0, 50, 64
2, 47516, Note_on_c, 0, 62, 13
2, 47516, Note_on_c, 0, 57, 16
2, 47516, Note_on_c, 0, 50, 21
2, 47519, Note_on_c, 0, 66, 19
2, 47538, Control_c, 0, 64, 0
2, 47538, Control_c, 0, 64, 0
2, 47549, Control_c, 0, 64, 127
2, 47549, Control_c, 0, 64, 127
2, 47624, Note_off_c, 0, 50, 64
2, 47624, Note_off_c, 0, 57, 64
2, 47624, Note_off_c, 0, 62, 64
2, 47627, Note_off_c, 0, 66, 64
2, 47729, Note_on_c, 0, 64, 57
2, 47732, Note_on_c, 0, 45, 43
2, 47739, Note_off_c, 0, 74, 64
2, 47745, Control_c, 0, 64, 0
2, 47745, Control_c, 0, 64, 0
2, 47760, Control_c, 0, 64, 127
2, 47760, Control_c, 0, 64, 127
2, 47806, Note_on_c, 0, 68, 57
2, 47814, Note_off_c, 0, 45, 64
2, 47826, Note_off_c, 0, 64, 64
2, 47857, Control_c, 0, 64, 0
2, 47857, Control_c, 0, 64, 0
2, 47872, Control_c, 0, 64, 127
2, 47872, Control_c, 0, 64, 127
2, 47888, Note_on_c, 0, 69, 60
2, 47892, Note_on_c, 0, 61, 50
2, 47892, Note_on_c, 0, 57, 45
2, 47892, Note_on_c, 0, 52, 43
2, 47892, Note_on_c, 0, 45, 39
2, 47898, Note_off_c, 0, 68, 64
2, 47943, Note_off_c, 0, 45, 64
2, 47943, Note_off_c, 0, 52, 64
2, 47943, Note_off_c, 0, 57, 64
2, 47943, Note_off_c, 0, 61, 64
2, 47959, Note_on_c, 0, 71, 50
2, 47984, Note_off_c, 0, 69, 64
2, 48009, Note_on_c, 0, 73, 53
2, 48012, Note_on_c, 0, 57, 50
2, 48012, Note_on_c, 0, 52, 43
2, 48015, Note_on_c, 0, 61, 50
2, 48020, Note_on_c, 0, 45, 39
2, 48040, Note_off_c, 0, 71, 64
2, 48063, Note_off_c, 0, 52, 64
2, 48063, Note_off_c, 0, 57, 64
2, 48066, Note_off_c, 0, 61, 64
2, 48069, Note_on_c, 0, 74, 45
2, 48071, Note_off_c, 0, 45, 64
2, 48094, Note_off_c, 0, 73, 64
2, 48142, Control_c, 0, 64, 127
2, 48142, Control_c, 0, 64, 127
2, 48151, Control_c, 0, 64, 0
2, 48151, Control_c, 0, 64, 0
2, 48163, Note_on_c, 0, 40, 46
2, 48164, Note_on_c, 0, 73, 65
2, 48175, Control_c, 0, 64, 127
2, 48175, Control_c, 0, 64, 127
2, 48177, Note_off_c, 0, 74, 64
2, 48181, Note_on_c, 0, 74, 54
2, 48206, Note_off_c, 0, 73, 64
2, 48240, Note_on_c, 0, 73, 58
2, 48245, Note_off_c, 0, 40, 64
2, 48259, Note_off_c, 0, 74, 64
2, 48287, Control_c, 0, 64, 0
2, 48287, Control_c, 0, 64, 0
2, 48298, Note_on_c, 0, 71, 43
2, 48300, Note_on_c, 0, 52, 43
2, 48302, Note_on_c, 0, 59, 43
2, 48306, Note_on_c, 0, 62, 46
2, 48316, Note_off_c, 0, 73, 64
2, 48318, Control_c, 0, 64, 127
2, 48318, Control_c, 0, 64, 127
2, 48347, Note_on_c, 0, 69, 58
2, 48351, Note_off_c, 0, 52, 64
2, 48353, Note_off_c, 0, 59, 64
2, 48357, Note_off_c, 0, 62, 64
2, 48366, Note_off_c, 0, 71, 64
2, 48408, Note_on_c, 0, 68, 68
2, 48412, Note_on_c, 0, 59, 35
2, 48412, Note_on_c, 0, 52, 31
2, 48415, Note_on_c, 0, 62, 31
2, 48432, Note_off_c, 0, 69, 64
2, 48463, Note_off_c, 0, 52, 64
2, 48463, Note_off_c, 0, 59, 64
2, 48466, Note_off_c, 0, 62, 64
2, 48468, Note_on_c, 0, 66, 56
2, 48484, Note_off_c, 0, 68, 64
2, 48533, Control_c, 0, 64, 0
2, 48533, Control_c, 0, 64, 0
2, 48540, Note_on_c, 0, 64, 60
2, 48546, Note_off_c, 0, 66, 64
2, 48548, Note_on_c, 0, 33, 58
2, 48563, Control_c, 0, 64, 127
2, 48563, Control_c, 0, 64, 127
2, 48593, Note_on_c, 0, 69, 56
2, 48616, Note_off_c, 0, 64, 64
2, 48630, Note_off_c, 0, 33, 64
2, 48645, Note_off_c, 0, 69, 64
2, 48657, Control_c, 0, 64, 0
2, 48657, Control_c, 0, 64, 0
2, 48672, Note_on_c, 0, 69, 50
2, 48676, Note_on_c, 0, 61, 46
2, 48676, Note_on_c, 0, 57, 26
2, 48676, Note_on_c, 0, 52, 39
2, 48676, Note_on_c, 0, 45, 46
2, 48683, Control_c, 0, 64, 127
2, 48683, Control_c, 0, 64, 127
2, 48726, Note_on_c, 0, 71, 57
2, 48727, Note_off_c, 0, 45, 64
2, 48727, Note_off_c, 0, 52, 64
2, 48727, Note_off_c, 0, 57, 64
2, 48727, Note_off_c, 0, 61, 64
2, 48740, Note_off_c, 0, 69, 64
2, 48772, Note_on_c, 0, 69, 45
2, 48792, Note_off_c, 0, 71, 64
2, 48793, Control_c, 0, 64, 0
2, 48793, Control_c, 0, 64, 0
2, 48812, Note_on_c, 0, 68, 60
2, 48816, Note_on_c, 0, 61, 50
2, 48816, Note_on_c, 0, 57, 26
2, 48816, Note_on_c, 0, 52, 24
2, 48816, Note_on_c, 0, 45, 27
2, 48845, Note_off_c, 0, 69, 64
2, 48867, Note_off_c, 0, 45, 64
2, 48867, Note_off_c, 0, 52, 64
2, 48867, Note_off_c, 0, 57, 64
2, 48867, Note_off_c, 0, 61, 64
2, 48884, Note_on_c, 0, 66, 56
2, 48887, Note_off_c, 0, 68, 64
2, 48930, Control_c, 0, 64, 0
2, 48930, Control_c, 0, 64, 0
2, 48936, Note_on_c, 0, 40, 39
2, 48943, Note_on_c, 0, 68, 65
2, 48959, Control_c, 0, 64, 127
2, 48959, Control_c, 0, 64, 127
2, 48962, Note_off_c, 0, 66, 64
2, 49093, Note_on_c, 0, 52, 45
2, 49096, Note_on_c, 0, 59, 47
2, 49097, Note_off_c, 0, 40, 64
2, 49097, Note_on_c, 0, 64, 43
2, 49102, Control_c, 0, 64, 0
2, 49102, Control_c, 0, 64, 0
2, 49140, Control_c, 0, 64, 127
2, 49140, Control_c, 0, 64, 127
2, 49175, Note_off_c, 0, 52, 64
2, 49178, Note_off_c, 0, 59, 64
2, 49179, Note_off_c, 0, 64, 64
2, 49304, Note_on_c, 0, 52, 43
2, 49306, Note_on_c, 0, 64, 32
2, 49308, Note_on_c, 0, 62, 23
2, 49308, Note_on_c, 0, 59, 45
2, 49386, Note_off_c, 0, 52, 64
2, 49388, Note_off_c, 0, 64, 64
2, 49390, Note_off_c, 0, 59, 64
2, 49390, Note_off_c, 0, 62, 64
2, 49499, Note_off_c, 0, 68, 64
2, 49511, Note_on_c, 0, 64, 43
2, 49519, Note_on_c, 0, 45, 43
2, 49520, Control_c, 0, 64, 0
2, 49520, Control_c, 0, 64, 0
2, 49536, Control_c, 0, 64, 127
2, 49536, Control_c, 0, 64, 127
2, 49588, Note_on_c, 0, 68, 39
2, 49601, Note_off_c, 0, 45, 64
2, 49614, Note_off_c, 0, 64, 64
2, 49644, Note_on_c, 0, 52, 27
2, 49647, Note_on_c, 0, 69, 60
2, 49648, Note_on_c, 0, 57, 39
2, 49650, Note_on_c, 0, 61, 42
2, 49657, Note_off_c, 0, 68, 64
2, 49695, Note_off_c, 0, 52, 64
2, 49699, Note_off_c, 0, 57, 64
2, 49701, Note_off_c, 0, 61, 64
2, 49714, Note_on_c, 0, 71, 54
2, 49738, Note_off_c, 0, 69, 64
2, 49760, Note_on_c, 0, 73, 56
2, 49763, Note_on_c, 0, 61, 50
2, 49764, Note_on_c, 0, 57, 49
2, 49764, Note_on_c, 0, 52, 34
2, 49771, Note_on_c, 0, 45, 43
2, 49788, Note_off_c, 0, 71, 64
2, 49814, Note_off_c, 0, 61, 64
2, 49815, Note_off_c, 0, 52, 64
2, 49815, Note_off_c, 0, 57, 64
2, 49820, Note_on_c, 0, 74, 47
2, 49822, Note_off_c, 0, 45, 64
2, 49840, Note_off_c, 0, 73, 64
2, 49892, Note_on_c, 0, 73, 60
2, 49898, Note_on_c, 0, 38, 69
2, 49905, Note_off_c, 0, 74, 64
2, 49908, Control_c, 0, 64, 0
2, 49908, Control_c, 0, 64, 0
2, 49921, Note_on_c, 0, 74, 57
2, 49921, Control_c, 0, 64, 127
2, 49921, Control_c, 0, 64, 127
2, 49943, Note_off_c, 0, 73, 64
2, 49980, Note_off_c, 0, 38, 64
2, 49981, Note_on_c, 0, 73, 56
2, 50003, Note_off_c, 0, 74, 64
2, 50024, Note_on_c, 0, 54, 26
2, 50028, Note_on_c, 0, 62, 50
2, 50028, Note_on_c, 0, 59, 47
2, 50029, Note_on_c, 0, 71, 56
2, 50058, Note_off_c, 0, 73, 64
2, 50075, Note_off_c, 0, 54, 64
2, 50079, Note_off_c, 0, 59, 64
2, 50079, Note_off_c, 0, 62, 64
2, 50087, Note_on_c, 0, 69, 56
2, 50089, Note_off_c, 0, 71, 64
2, 50144, Note_on_c, 0, 59, 32
2, 50144, Note_on_c, 0, 54, 26
2, 50147, Note_on_c, 0, 68, 60
2, 50147, Note_on_c, 0, 62, 50
2, 50147, Note_on_c, 0, 47, 35
2, 50157, Note_off_c, 0, 69, 64
2, 50195, Note_off_c, 0, 54, 64
2, 50195, Note_off_c, 0, 59, 64
2, 50198, Note_off_c, 0, 47, 64
2, 50198, Note_off_c, 0, 62, 64
2, 50200, Note_on_c, 0, 66, 49
2, 50216, Note_off_c, 0, 68, 64
2, 50249, Control_c, 0, 64, 0
2, 50249, Control_c, 0, 64, 0
2, 50258, Note_on_c, 0, 64, 60
2, 50262, Note_on_c, 0, 40, 47
2, 50264, Note_off_c, 0, 66, 64
2, 50278, Control_c, 0, 64, 127
2, 50278, Control_c, 0, 64, 127
2, 50320, Note_on_c, 0, 68, 58
2, 50337, Note_off_c, 0, 64, 64
2, 50344, Note_off_c, 0, 40, 64
2, 50364, Note_off_c, 0, 68, 64
2, 50388, Note_on_c, 0, 52, 39
2, 50392, Note_on_c, 0, 62, 17
2, 50392, Note_on_c, 0, 59, 38
2, 50396, Note_on_c, 0, 68, 60
2, 50439, Note_off_c, 0, 52, 64
2, 50443, Note_off_c, 0, 59, 64
2, 50443, Note_off_c, 0, 62, 64
2, 50451, Note_on_c, 0, 69, 54
2, 50458, Note_off_c, 0, 68, 64
2, 50503, Note_on_c, 0, 68, 56
2, 50527, Note_off_c, 0, 69, 64
2, 50540, Note_on_c, 0, 59, 21
2, 50540, Note_on_c, 0, 52, 27
2, 50547, Note_on_c, 0, 66, 65
2, 50547, Note_on_c, 0, 62, 50
2, 50569, Note_off_c, 0, 68, 64
2, 50591, Note_off_c, 0, 52, 64
2, 50591, Note_off_c, 0, 59, 64
2, 50598, Note_off_c, 0, 62, 64
2, 50608, Note_on_c, 0, 64, 43
2, 50632, Note_off_c, 0, 66, 64
2, 50677, Note_on_c, 0, 69, 60
2, 50683, Note_on_c, 0, 33, 38
2, 50687, Control_c, 0, 64, 0
2, 50687, Control_c, 0, 64, 0
2, 50694, Note_off_c, 0, 64, 64
2, 50734, Control_c, 0, 64, 127
2, 50734, Control_c, 0, 64, 127
2, 50844, Note_off_c, 0, 33, 64
2, 50848, Note_on_c, 0, 61, 36
2, 50852, Note_on_c, 0, 57, 35
2, 50856, Note_on_c, 0, 52, 31
2, 50856, Note_on_c, 0, 45, 31
2, 50930, Note_off_c, 0, 61, 64
2, 50934, Note_off_c, 0, 57, 64
2, 50938, Note_off_c, 0, 45, 64
2, 50938, Note_off_c, 0, 52, 64
2, 51052, Note_on_c, 0, 57, 35
2, 51053, Note_on_c, 0, 61, 43
2, 51057, Note_on_c, 0, 52, 23
2, 51063, Note_on_c, 0, 45, 26
2, 51079, Control_c, 0, 64, 0
2, 51079, Control_c, 0, 64, 0
2, 51110, Control_c, 0, 64, 127
2, 51110, Control_c, 0, 64, 127
2, 51292, Note_on_c, 0, 64, 32
2, 51311, Note_off_c, 0, 69, 64
2, 51380, Note_off_c, 0, 57, 64
2, 51381, Note_off_c, 0, 61, 64
2, 51385, Note_off_c, 0, 52, 64
2, 51387, Note_on_c, 0, 68, 32
2, 51391, Note_off_c, 0, 45, 64
2, 51397, Note_off_c, 0, 64, 64
2, 51482, Note_on_c, 0, 69, 35
2, 51484, Note_on_c, 0, 61, 21
2, 51484, Note_on_c, 0, 57, 27
2, 51484, Note_on_c, 0, 52, 27
2, 51484, Note_on_c, 0, 45, 21
2, 51493, Note_off_c, 0, 68, 64
2, 51535, Note_off_c, 0, 45, 64
2, 51535, Note_off_c, 0, 52, 64
2, 51535, Note_off_c, 0, 57, 64
2, 51535, Note_off_c, 0, 61, 64
2, 51565, Note_on_c, 0, 71, 27
2, 51591, Note_off_c, 0, 69, 64
2, 51620, Note_on_c, 0, 73, 32
2, 51620, Note_on_c, 0, 57, 27
2, 51620, Note_on_c, 0, 52, 21
2, 51623, Note_on_c, 0, 61, 38
2, 51626, Note_on_c, 0, 45, 23
2, 51653, Note_off_c, 0, 71, 64
2, 51671, Note_off_c, 0, 52, 64
2, 51671, Note_off_c, 0, 57, 64
2, 51674, Note_off_c, 0, 61, 64
2, 51677, Note_off_c, 0, 45, 64
2, 51689, Note_on_c, 0, 74, 21
2, 51712, Note_off_c, 0, 73, 64
2, 51774, Note_on_c, 0, 73, 43
2, 51780, Note_on_c, 0, 40, 36
2, 51795, Note_off_c, 0, 74, 64
2, 51819, Note_on_c, 0, 74, 27
2, 51828, Note_off_c, 0, 73, 64
2, 51862, Note_off_c, 0, 40, 64
2, 51870, Note_on_c, 0, 73, 32
2, 51897, Note_off_c, 0, 74, 64
2, 51910, Control_c, 0, 64, 0
2, 51910, Control_c, 0, 64, 0
2, 51924, Note_on_c, 0, 62, 26
2, 51924, Note_on_c, 0, 59, 12
2, 51924, Note_on_c, 0, 52, 21
2, 51927, Note_on_c, 0, 71, 27
2, 51936, Control_c, 0, 64, 127
2, 51936, Control_c, 0, 64, 127
2, 51956, Note_off_c, 0, 73, 64
2, 51975, Note_off_c, 0, 52, 64
2, 51975, Note_off_c, 0, 59, 64
2, 51975, Note_off_c, 0, 62, 64
2, 51984, Note_on_c, 0, 69, 35
2, 51993, Note_off_c, 0, 71, 64
2, 52045, Note_on_c, 0, 68, 43
2, 52048, Note_off_c, 0, 69, 64
2, 52052, Note_on_c, 0, 59, 13
2, 52054, Note_on_c, 0, 52, 21
2, 52055, Note_on_c, 0, 62, 12
2, 52103, Note_off_c, 0, 59, 64
2, 52105, Note_off_c, 0, 52, 64
2, 52106, Note_off_c, 0, 62, 64
2, 52114, Note_on_c, 0, 66, 28
2, 52128, Note_off_c, 0, 68, 64
2, 52188, Note_on_c, 0, 33, 45
2, 52192, Note_on_c, 0, 64, 39
2, 52199, Note_off_c, 0, 66, 64
2, 52249, Note_on_c, 0, 69, 34
2, 52270, Note_off_c, 0, 33, 64
2, 52296, Note_off_c, 0, 69, 64
2, 52306, Note_off_c, 0, 64, 64
2, 52308, Control_c, 0, 64, 0
2, 52308, Control_c, 0, 64, 0
2, 52324, Note_on_c, 0, 69, 38
2, 52328, Note_on_c, 0, 61, 31
2, 52328, Note_on_c, 0, 57, 31
2, 52328, Note_on_c, 0, 52, 26
2, 52328, Note_on_c, 0, 45, 21
2, 52336, Control_c, 0, 64, 127
2, 52336, Control_c, 0, 64, 127
2, 52379, Note_off_c, 0, 45, 64
2, 52379, Note_off_c, 0, 52, 64
2, 52379, Note_off_c, 0, 57, 64
2, 52379, Note_off_c, 0, 61, 64
2, 52380, Note_on_c, 0, 71, 39
2, 52392, Note_off_c, 0, 69, 64
2, 52427, Note_on_c, 0, 69, 34
2, 52440, Note_off_c, 0, 71, 64
2, 52472, Note_on_c, 0, 61, 38
2, 52476, Note_on_c, 0, 57, 21
2, 52476, Note_on_c, 0, 52, 26
2, 52476, Note_on_c, 0, 45, 17
2, 52477, Note_on_c, 0, 68, 46
2, 52506, Note_off_c, 0, 69, 64
2, 52523, Note_off_c, 0, 61, 64
2, 52527, Note_off_c, 0, 45, 64
2, 52527, Note_off_c, 0, 52, 64
2, 52527, Note_off_c, 0, 57, 64
2, 52537, Note_on_c, 0, 66, 46
2, 52560, Note_off_c, 0, 68, 64
2, 52607, Note_on_c, 0, 40, 34
2, 52609, Control_c, 0, 64, 0
2, 52609, Control_c, 0, 64, 0
2, 52615, Note_on_c, 0, 68, 43
2, 52622, Note_off_c, 0, 66, 64
2, 52645, Control_c, 0, 64, 127
2, 52645, Control_c, 0, 64, 127
2, 52700, Control_c, 0, 64, 127
2, 52700, Control_c, 0, 64, 127
2, 52768, Note_off_c, 0, 40, 64
2, 52776, Note_on_c, 0, 64, 23
2, 52776, Note_on_c, 0, 59, 32
2, 52780, Note_on_c, 0, 52, 32
2, 52858, Note_off_c, 0, 59, 64
2, 52858, Note_off_c, 0, 64, 64
2, 52862, Note_off_c, 0, 52, 64
2, 52980, Note_on_c, 0, 59, 15
2, 52984, Note_on_c, 0, 64, 26
2, 52984, Note_on_c, 0, 62, 15
2, 52984, Note_on_c, 0, 52, 17
2, 53062, Note_off_c, 0, 59, 64
2, 53066, Note_off_c, 0, 62, 64
2, 53066, Note_off_c, 0, 64, 64
2, 53167, Note_off_c, 0, 68, 64
2, 53184, Note_on_c, 0, 64, 36
2, 53190, Note_on_c, 0, 45, 26
2, 53255, Note_on_c, 0, 68, 39
2, 53268, Note_off_c, 0, 52, 64
2, 53272, Note_off_c, 0, 45, 64
2, 53277, Note_off_c, 0, 64, 64
2, 53315, Control_c, 0, 64, 0
2, 53315, Control_c, 0, 64, 0
2, 53316, Note_on_c, 0, 52, 27
2, 53320, Note_on_c, 0, 61, 35
2, 53320, Note_on_c, 0, 57, 28
2, 53322, Note_on_c, 0, 69, 50
2, 53330, Note_off_c, 0, 68, 64
2, 53330, Control_c, 0, 64, 127
2, 53330, Control_c, 0, 64, 127
2, 53367, Note_off_c, 0, 52, 64
2, 53371, Note_off_c, 0, 57, 64
2, 53371, Note_off_c, 0, 61, 64
2, 53386, Note_on_c, 0, 71, 43
2, 53424, Note_off_c, 0, 69, 64
2, 53440, Note_on_c, 0, 57, 28
2, 53440, Note_on_c, 0, 52, 27
2, 53440, Note_on_c, 0, 45, 34
2, 53443, Note_on_c, 0, 73, 36
2, 53443, Note_on_c, 0, 61, 43
2, 53471, Note_off_c, 0, 71, 64
2, 53491, Note_off_c, 0, 45, 64
2, 53491, Note_off_c, 0, 52, 64
2, 53491, Note_off_c, 0, 57, 64
2, 53494, Note_off_c, 0, 61, 64
2, 53501, Note_on_c, 0, 74, 36
2, 53522, Note_off_c, 0, 73, 64
2, 53551, Control_c, 0, 64, 0
2, 53551, Control_c, 0, 64, 0
2, 53566, Control_c, 0, 64, 127
2, 53566, Control_c, 0, 64, 127
2, 53584, Note_on_c, 0, 73, 50
2, 53589, Note_on_c, 0, 38, 50
2, 53597, Note_off_c, 0, 74, 64
2, 53619, Note_on_c, 0, 74, 38
2, 53633, Control_c, 0, 64, 127
2, 53633, Control_c, 0, 64, 127
2, 53639, Note_off_c, 0, 73, 64
2, 53671, Note_off_c, 0, 38, 64
2, 53671, Note_on_c, 0, 73, 43
2, 53702, Note_off_c, 0, 74, 64
2, 53714, Control_c, 0, 64, 0
2, 53714, Control_c, 0, 64, 0
2, 53724, Note_on_c, 0, 54, 35
2, 53728, Note_on_c, 0, 59, 31
2, 53730, Note_on_c, 0, 71, 47
2, 53731, Note_on_c, 0, 62, 35
2, 53741, Control_c, 0, 64, 127
2, 53741, Control_c, 0, 64, 127
2, 53754, Note_off_c, 0, 73, 64
2, 53775, Note_off_c, 0, 54, 64
2, 53776, Note_on_c, 0, 69, 47
2, 53779, Note_off_c, 0, 59, 64
2, 53782, Note_off_c, 0, 62, 64
2, 53798, Note_off_c, 0, 71, 64
2, 53840, Note_on_c, 0, 62, 35
2, 53840, Note_on_c, 0, 59, 31
2, 53840, Note_on_c, 0, 54, 21
2, 53840, Note_on_c, 0, 47, 28
2, 53841, Note_on_c, 0, 68, 50
2, 53859, Note_off_c, 0, 69, 64
2, 53891, Note_off_c, 0, 47, 64
2, 53891, Note_off_c, 0, 54, 64
2, 53891, Note_off_c, 0, 59, 64
2, 53891, Note_off_c, 0, 62, 64
2, 53906, Note_on_c, 0, 66, 34
2, 53918, Note_off_c, 0, 68, 64
2, 53973, Note_on_c, 0, 64, 43
2, 53983, Note_on_c, 0, 40, 50
2, 53990, Note_off_c, 0, 66, 64
2, 54043, Note_on_c, 0, 68, 45
2, 54057, Note_off_c, 0, 64, 64
2, 54065, Note_off_c, 0, 40, 64
2, 54096, Note_off_c, 0, 68, 64
2, 54124, Control_c, 0, 64, 0
2, 54124, Control_c, 0, 64, 0
2, 54128, Note_on_c, 0, 62, 21
2, 54130, Note_on_c, 0, 68, 46
2, 54132, Note_on_c, 0, 52, 31
2, 54134, Note_on_c, 0, 59, 28
2, 54147, Control_c, 0, 64, 127
2, 54147, Control_c, 0, 64, 127
2, 54178, Note_on_c, 0, 69, 49
2, 54179, Note_off_c, 0, 62, 64
2, 54183, Note_off_c, 0, 52, 64
2, 54185, Note_off_c, 0, 59, 64
2, 54188, Note_off_c, 0, 68, 64
2, 54232, Note_on_c, 0, 68, 46
2, 54254, Note_off_c, 0, 69, 64
2, 54260, Control_c, 0, 64, 0
2, 54260, Control_c, 0, 64, 0
2, 54276, Note_on_c, 0, 52, 26
2, 54280, Note_on_c, 0, 62, 43
2, 54280, Note_on_c, 0, 59, 21
2, 54283, Note_on_c, 0, 66, 50
2, 54293, Control_c, 0, 64, 127
2, 54293, Control_c, 0, 64, 127
2, 54294, Note_off_c, 0, 68, 64
2, 54327, Note_off_c, 0, 52, 64
2, 54331, Note_off_c, 0, 59, 64
2, 54331, Note_off_c, 0, 62, 64
2, 54346, Note_on_c, 0, 64, 39
2, 54366, Note_off_c, 0, 66, 64
2, 54420, Note_on_c, 0, 69, 63
2, 54420, Control_c, 0, 64, 0
2, 54420, Control_c, 0, 64, 0
2, 54424, Note_on_c, 0, 33, 46
2, 54435, Note_off_c, 0, 64, 64
2, 54473, Control_c, 0, 64, 127
2, 54473, Control_c, 0, 64, 127
2, 54572, Note_on_c, 0, 64, 39
2, 54572, Note_on_c, 0, 57, 49
2, 54578, Note_on_c, 0, 61, 56
2, 54585, Note_off_c, 0, 33, 64
2, 54654, Note_off_c, 0, 57, 64
2, 54654, Note_off_c, 0, 64, 64
2, 54660, Note_off_c, 0, 61, 64
2, 54780, Note_on_c, 0, 61, 56
2, 54784, Note_on_c, 0, 67, 60
2, 54784, Note_on_c, 0, 64, 56
2, 54784, Note_on_c, 0, 57, 47
2, 54794, Control_c, 0, 64, 0
2, 54794, Control_c, 0, 64, 0
2, 54814, Control_c, 0, 64, 127
2, 54814, Control_c, 0, 64, 127
2, 54862, Note_off_c, 0, 61, 64
2, 54866, Note_off_c, 0, 57, 64
2, 54866, Note_off_c, 0, 64, 64
2, 54866, Note_off_c, 0, 67, 64
2, 54988, Note_on_c, 0, 50, 60
2, 54990, Note_on_c, 0, 66, 58
2, 55006, Control_c, 0, 64, 0
2, 55006, Control_c, 0, 64, 0
2, 55027, Control_c, 0, 64, 127
2, 55027, Control_c, 0, 64, 127
2, 55070, Note_off_c, 0, 50, 64
2, 55072, Note_off_c, 0, 66, 64
2, 55076, Note_on_c, 0, 73, 68
2, 55091, Note_off_c, 0, 69, 64
2, 55129, Control_c, 0, 64, 0
2, 55129, Control_c, 0, 64, 0
2, 55140, Note_on_c, 0, 50, 43
2, 55144, Note_on_c, 0, 62, 47
2, 55147, Note_on_c, 0, 57, 42
2, 55148, Note_on_c, 0, 74, 75
2, 55148, Note_on_c, 0, 66, 45
2, 55160, Control_c, 0, 64, 127
2, 55160, Control_c, 0, 64, 127
2, 55172, Note_off_c, 0, 73, 64
2, 55191, Note_off_c, 0, 50, 64
2, 55195, Note_off_c, 0, 62, 64
2, 55198, Note_off_c, 0, 57, 64
2, 55199, Note_off_c, 0, 66, 64
2, 55207, Note_on_c, 0, 76, 68
2, 55236, Note_off_c, 0, 74, 64
2, 55256, Note_on_c, 0, 66, 68
2, 55256, Note_on_c, 0, 57, 68
2, 55256, Note_on_c, 0, 50, 56
2, 55259, Note_on_c, 0, 78, 86
2, 55260, Note_on_c, 0, 62, 56
2, 55291, Note_off_c, 0, 76, 64
2, 55307, Note_off_c, 0, 50, 64
2, 55307, Note_off_c, 0, 57, 64
2, 55307, Note_off_c, 0, 66, 64
2, 55311, Note_off_c, 0, 62, 64
2, 55320, Note_on_c, 0, 79, 57
2, 55343, Note_off_c, 0, 78, 64
2, 55399, Control_c, 0, 64, 0
2, 55399, Control_c, 0, 64, 0
2, 55406, Note_on_c, 0, 78, 75
2, 55406, Note_on_c, 0, 45, 56
2, 55411, Note_off_c, 0, 79, 64
2, 55425, Note_on_c, 0, 79, 71
2, 55435, Control_c, 0, 64, 127
2, 55435, Control_c, 0, 64, 127
2, 55449, Note_off_c, 0, 78, 64
2, 55488, Note_off_c, 0, 45, 64
2, 55492, Note_on_c, 0, 78, 75
2, 55515, Note_off_c, 0, 79, 64
2, 55536, Note_on_c, 0, 52, 50
2, 55538, Note_on_c, 0, 57, 53
2, 55540, Note_on_c, 0, 67, 58
2, 55540, Note_on_c, 0, 61, 53
2, 55543, Note_on_c, 0, 76, 73
2, 55566, Control_c, 0, 64, 0
2, 55566, Control_c, 0, 64, 0
2, 55570, Note_off_c, 0, 78, 64
2, 55587, Note_off_c, 0, 52, 64
2, 55589, Note_off_c, 0, 57, 64
2, 55591, Note_off_c, 0, 61, 64
2, 55591, Note_off_c, 0, 67, 64
2, 55595, Note_on_c, 0, 74, 75
2, 55602, Note_off_c, 0, 76, 64
2, 55656, Note_on_c, 0, 52, 49
2, 55660, Note_on_c, 0, 67, 58
2, 55660, Note_on_c, 0, 61, 49
2, 55660, Note_on_c, 0, 57, 50
2, 55662, Note_on_c, 0, 73, 75
2, 55678, Note_off_c, 0, 74, 64
2, 55686, Control_c, 0, 64, 0
2, 55686, Control_c, 0, 64, 0
2, 55707, Note_off_c, 0, 52, 64
2, 55711, Note_off_c, 0, 57, 64
2, 55711, Note_off_c, 0, 61, 64
2, 55711, Note_off_c, 0, 67, 64
2, 55720, Note_on_c, 0, 71, 68
2, 55736, Note_off_c, 0, 73, 64
2, 55783, Note_on_c, 0, 69, 73
2, 55789, Control_c, 0, 64, 0
2, 55789, Control_c, 0, 64, 0
2, 55793, Note_on_c, 0, 38, 73
2, 55798, Note_off_c, 0, 71, 64
2, 55803, Control_c, 0, 64, 127
2, 55803, Control_c, 0, 64, 127
2, 55849, Note_on_c, 0, 74, 75
2, 55871, Note_off_c, 0, 69, 64
2, 55875, Note_off_c, 0, 38, 64
2, 55894, Note_off_c, 0, 74, 64
2, 55910, Control_c, 0, 64, 0
2, 55910, Control_c, 0, 64, 0
2, 55923, Note_on_c, 0, 74, 71
2, 55928, Note_on_c, 0, 50, 43
2, 55930, Note_on_c, 0, 66, 24
2, 55932, Note_on_c, 0, 62, 43
2, 55932, Note_on_c, 0, 57, 46
2, 55940, Control_c, 0, 64, 127
2, 55940, Control_c, 0, 64, 127
2, 55972, Note_on_c, 0, 76, 73
2, 55979, Note_off_c, 0, 50, 64
2, 55981, Note_off_c, 0, 66, 64
2, 55983, Note_off_c, 0, 57, 64
2, 55983, Note_off_c, 0, 62, 64
2, 55986, Note_off_c, 0, 74, 64
2, 56021, Note_on_c, 0, 74, 65
2, 56031, Note_off_c, 0, 76, 64
2, 56060, Note_on_c, 0, 73, 75
2, 56064, Note_on_c, 0, 66, 58
2, 56064, Note_on_c, 0, 62, 45
2, 56064, Note_on_c, 0, 57, 34
2, 56064, Note_on_c, 0, 50, 46
2, 56083, Note_off_c, 0, 74, 64
2, 56086, Control_c, 0, 64, 0
2, 56086, Control_c, 0, 64, 0
2, 56114, Note_on_c, 0, 71, 73
2, 56115, Note_off_c, 0, 50, 64
2, 56115, Note_off_c, 0, 57, 64
2, 56115, Note_off_c, 0, 62, 64
2, 56115, Note_off_c, 0, 66, 64
2, 56136, Note_off_c, 0, 73, 64
2, 56173, Note_on_c, 0, 33, 65
2, 56184, Note_on_c, 0, 73, 75
2, 56198, Note_off_c, 0, 71, 64
2, 56312, Control_c, 0, 64, 0
2, 56312, Control_c, 0, 64, 0
2, 56320, Note_on_c, 0, 64, 56
2, 56320, Note_on_c, 0, 57, 50
2, 56322, Note_on_c, 0, 69, 42
2, 56322, Note_on_c, 0, 61, 56
2, 56334, Note_off_c, 0, 33, 64
2, 56355, Control_c, 0, 64, 127
2, 56355, Control_c, 0, 64, 127
2, 56402, Note_off_c, 0, 57, 64
2, 56402, Note_off_c, 0, 64, 64
2, 56404, Note_off_c, 0, 61, 64
2, 56404, Note_off_c, 0, 69, 64
2, 56496, Note_on_c, 0, 64, 50
2, 56496, Note_on_c, 0, 57, 50
2, 56499, Note_on_c, 0, 69, 53
2, 56500, Note_on_c, 0, 67, 35
2, 56502, Control_c, 0, 64, 0
2, 56502, Control_c, 0, 64, 0
2, 56539, Control_c, 0, 64, 127
2, 56539, Control_c, 0, 64, 127
2, 56578, Note_off_c, 0, 57, 64
2, 56578, Note_off_c, 0, 64, 64
2, 56581, Note_off_c, 0, 69, 64
2, 56582, Note_off_c, 0, 67, 64
2, 56627, Note_off_c, 0, 73, 64
2, 56657, Control_c, 0, 64, 0
2, 56657, Control_c, 0, 64, 0
2, 56662, Note_on_c, 0, 69, 69
2, 56672, Note_on_c, 0, 50, 68
2, 56690, Control_c, 0, 64, 127
2, 56690, Control_c, 0, 64, 127
2, 56728, Note_on_c, 0, 73, 63
2, 56748, Note_off_c, 0, 69, 64
2, 56754, Note_off_c, 0, 50, 64
2, 56796, Note_on_c, 0, 74, 75
2, 56796, Note_on_c, 0, 57, 56
2, 56800, Note_on_c, 0, 62, 27
2, 56803, Note_on_c, 0, 66, 65
2, 56806, Note_off_c, 0, 73, 64
2, 56847, Note_off_c, 0, 57, 64
2, 56851, Note_off_c, 0, 62, 64
2, 56854, Note_off_c, 0, 66, 64
2, 56859, Note_on_c, 0, 76, 73
2, 56886, Note_off_c, 0, 74, 64
2, 56912, Note_on_c, 0, 78, 73
2, 56912, Note_on_c, 0, 50, 56
2, 56916, Note_on_c, 0, 62, 27
2, 56916, Note_on_c, 0, 57, 56
2, 56918, Note_on_c, 0, 66, 58
2, 56934, Control_c, 0, 64, 0
2, 56934, Control_c, 0, 64, 0
2, 56944, Note_off_c, 0, 76, 64
2, 56963, Note_off_c, 0, 50, 64
2, 56967, Note_off_c, 0, 57, 64
2, 56967, Note_off_c, 0, 62, 64
2, 56968, Note_on_c, 0, 79, 67
2, 56969, Note_off_c, 0, 66, 64
2, 56999, Note_off_c, 0, 78, 64
2, 57050, Control_c, 0, 64, 0
2, 57050, Control_c, 0, 64, 0
2, 57056, Note_on_c, 0, 43, 64
2, 57062, Note_on_c, 0, 78, 75
2, 57072, Note_off_c, 0, 79, 64
2, 57078, Control_c, 0, 64, 127
2, 57078, Control_c, 0, 64, 127
2, 57091, Note_on_c, 0, 79, 68
2, 57114, Note_off_c, 0, 78, 64
2, 57138, Note_off_c, 0, 43, 64
2, 57157, Note_on_c, 0, 78, 75
2, 57181, Note_off_c, 0, 79, 64
2, 57196, Control_c, 0, 64, 0
2, 57196, Control_c, 0, 64, 0
2, 57200, Note_on_c, 0, 67, 58
2, 57200, Note_on_c, 0, 64, 56
2, 57200, Note_on_c, 0, 59, 35
2, 57202, Note_on_c, 0, 76, 69
2, 57222, Control_c, 0, 64, 127
2, 57222, Control_c, 0, 64, 127
2, 57222, Control_c, 0, 64, 0
2, 57222, Control_c, 0, 64, 0
2, 57233, Note_off_c, 0, 78, 64
2, 57251, Note_off_c, 0, 59, 64
2, 57251, Note_off_c, 0, 64, 64
2, 57251, Note_off_c, 0, 67, 64
2, 57255, Note_on_c, 0, 74, 71
2, 57264, Note_off_c, 0, 76, 64
2, 57316, Note_on_c, 0, 67, 58
2, 57316, Note_on_c, 0, 52, 50
2, 57318, Note_on_c, 0, 73, 75
2, 57320, Note_on_c, 0, 64, 35
2, 57320, Note_on_c, 0, 59, 65
2, 57341, Note_off_c, 0, 74, 64
2, 57342, Control_c, 0, 64, 0
2, 57342, Control_c, 0, 64, 0
2, 57367, Note_off_c, 0, 52, 64
2, 57367, Note_off_c, 0, 67, 64
2, 57371, Note_off_c, 0, 59, 64
2, 57371, Note_off_c, 0, 64, 64
2, 57379, Note_on_c, 0, 71, 58
2, 57399, Note_off_c, 0, 73, 64
2, 57448, Note_on_c, 0, 69, 75
2, 57452, Note_on_c, 0, 45, 64
2, 57459, Control_c, 0, 64, 0
2, 57459, Control_c, 0, 64, 0
2, 57469, Note_off_c, 0, 71, 64
2, 57482, Control_c, 0, 64, 127
2, 57482, Control_c, 0, 64, 127
2, 57516, Note_on_c, 0, 73, 75
2, 57534, Note_off_c, 0, 45, 64
2, 57536, Note_off_c, 0, 69, 64
2, 57566, Note_off_c, 0, 73, 64
2, 57588, Note_on_c, 0, 67, 45
2, 57588, Note_on_c, 0, 64, 56
2, 57590, Note_on_c, 0, 73, 75
2, 57590, Note_on_c, 0, 57, 49
2, 57639, Note_off_c, 0, 64, 64
2, 57639, Note_off_c, 0, 67, 64
2, 57641, Note_off_c, 0, 57, 64
2, 57649, Note_on_c, 0, 74, 73
2, 57658, Note_off_c, 0, 73, 64
2, 57696, Note_on_c, 0, 73, 68
2, 57716, Note_off_c, 0, 74, 64
2, 57744, Note_on_c, 0, 67, 58
2, 57744, Note_on_c, 0, 64, 56
2, 57744, Note_on_c, 0, 57, 35
2, 57747, Note_on_c, 0, 71, 53
2, 57770, Control_c, 0, 64, 0
2, 57770, Control_c, 0, 64, 0
2, 57792, Note_off_c, 0, 73, 64
2, 57795, Note_off_c, 0, 57, 64
2, 57795, Note_off_c, 0, 64, 64
2, 57795, Note_off_c, 0, 67, 64
2, 57805, Note_on_c, 0, 69, 64
2, 57845, Note_off_c, 0, 71, 64
2, 57865, Control_c, 0, 64, 0
2, 57865, Control_c, 0, 64, 0
2, 57876, Note_on_c, 0, 74, 75
2, 57877, Note_on_c, 0, 38, 64
2, 57891, Note_off_c, 0, 69, 64
2, 57917, Control_c, 0, 64, 127
2, 57917, Control_c, 0, 64, 127
2, 58038, Note_off_c, 0, 38, 64
2, 58058, Note_on_c, 0, 66, 43
2, 58058, Note_on_c, 0, 50, 28
2, 58061, Note_on_c, 0, 57, 43
2, 58066, Note_on_c, 0, 62, 34
2, 58083, Control_c, 0, 64, 0
2, 58083, Control_c, 0, 64, 0
2, 58106, Control_c, 0, 64, 127
2, 58106, Control_c, 0, 64, 127
2, 58140, Note_off_c, 0, 50, 64
2, 58140, Note_off_c, 0, 66, 64
2, 58143, Note_off_c, 0, 57, 64
2, 58148, Note_off_c, 0, 62, 64
2, 58206, Control_c, 0, 64, 0
2, 58206, Control_c, 0, 64, 0
2, 58214, Control_c, 0, 64, 0
2, 58214, Control_c, 0, 64, 0
2, 58226, Control_c, 0, 64, 0
2, 58226, Control_c, 0, 64, 0
2, 58328, Note_on_c, 0, 66, 35
2, 58328, Note_on_c, 0, 62, 23
2, 58328, Note_on_c, 0, 57, 19
2, 58328, Note_on_c, 0, 50, 24
2, 58336, Control_c, 0, 64, 0
2, 58336, Control_c, 0, 64, 0
2, 58368, Control_c, 0, 64, 127
2, 58368, Control_c, 0, 64, 127
2, 58535, Note_on_c, 0, 69, 46
2, 58548, Note_off_c, 0, 74, 64
2, 58630, Note_on_c, 0, 73, 36
2, 58632, Note_off_c, 0, 66, 64
2, 58646, Note_off_c, 0, 69, 64
2, 58647, Note_off_c, 0, 62, 64
2, 58654, Note_off_c, 0, 57, 64
2, 58670, Note_off_c, 0, 50, 64
2, 58700, Note_on_c, 0, 66, 31
2, 58700, Note_on_c, 0, 62, 35
2, 58700, Note_on_c, 0, 57, 26
2, 58700, Note_on_c, 0, 50, 35
2, 58706, Note_on_c, 0, 74, 49
2, 58713, Note_off_c, 0, 73, 64
2, 58751, Note_off_c, 0, 50, 64
2, 58751, Note_off_c, 0, 57, 64
2, 58751, Note_off_c, 0, 62, 64
2, 58751, Note_off_c, 0, 66, 64
2, 58786, Note_on_c, 0, 76, 21
2, 58795, Note_off_c, 0, 74, 64
2, 58828, Note_on_c, 0, 66, 35
2, 58828, Note_on_c, 0, 62, 28
2, 58828, Note_on_c, 0, 57, 35
2, 58830, Note_on_c, 0, 78, 50
2, 58832, Note_on_c, 0, 50, 28
2, 58850, Control_c, 0, 64, 0
2, 58850, Control_c, 0, 64, 0
2, 58858, Note_off_c, 0, 76, 64
2, 58879, Note_off_c, 0, 57, 64
2, 58879, Note_off_c, 0, 62, 64
2, 58879, Note_off_c, 0, 66, 64
2, 58883, Note_off_c, 0, 50, 64
2, 58899, Note_on_c, 0, 79, 24
2, 58921, Note_off_c, 0, 78, 64
2, 58979, Note_on_c, 0, 78, 49
2, 58981, Note_on_c, 0, 45, 35
2, 58982, Control_c, 0, 64, 0
2, 58982, Control_c, 0, 64, 0
2, 58990, Note_off_c, 0, 79, 64
2, 58997, Control_c, 0, 64, 127
2, 58997, Control_c, 0, 64, 127
2, 59012, Note_on_c, 0, 79, 38
2, 59029, Note_off_c, 0, 78, 64
2, 59063, Note_off_c, 0, 45, 64
2, 59068, Note_on_c, 0, 78, 32
2, 59100, Note_off_c, 0, 79, 64
2, 59121, Control_c, 0, 64, 0
2, 59121, Control_c, 0, 64, 0
2, 59136, Note_on_c, 0, 61, 27
2, 59136, Note_on_c, 0, 57, 17
2, 59140, Note_on_c, 0, 76, 24
2, 59140, Note_on_c, 0, 67, 35
2, 59140, Note_on_c, 0, 52, 32
2, 59140, Control_c, 0, 64, 127
2, 59140, Control_c, 0, 64, 127
2, 59161, Note_off_c, 0, 78, 64
2, 59162, Control_c, 0, 64, 0
2, 59162, Control_c, 0, 64, 0
2, 59187, Note_off_c, 0, 57, 64
2, 59187, Note_off_c, 0, 61, 64
2, 59191, Note_off_c, 0, 52, 64
2, 59191, Note_off_c, 0, 67, 64
2, 59192, Note_on_c, 0, 74, 47
2, 59213, Note_off_c, 0, 76, 64
2, 59261, Note_on_c, 0, 73, 56
2, 59264, Note_on_c, 0, 67, 35
2, 59264, Note_on_c, 0, 61, 31
2, 59264, Note_on_c, 0, 57, 16
2, 59264, Note_on_c, 0, 52, 28
2, 59273, Note_off_c, 0, 74, 64
2, 59286, Control_c, 0, 64, 0
2, 59286, Control_c, 0, 64, 0
2, 59315, Note_off_c, 0, 52, 64
2, 59315, Note_off_c, 0, 57, 64
2, 59315, Note_off_c, 0, 61, 64
2, 59315, Note_off_c, 0, 67, 64
2, 59327, Note_on_c, 0, 71, 43
2, 59349, Note_off_c, 0, 73, 64
2, 59397, Control_c, 0, 64, 0
2, 59397, Control_c, 0, 64, 0
2, 59419, Note_on_c, 0, 69, 36
2, 59425, Note_on_c, 0, 38, 36
2, 59426, Note_off_c, 0, 71, 64
2, 59430, Control_c, 0, 64, 0
2, 59430, Control_c, 0, 64, 0
2, 59445, Control_c, 0, 64, 127
2, 59445, Control_c, 0, 64, 127
2, 59500, Note_on_c, 0, 74, 32
2, 59507, Note_off_c, 0, 38, 64
2, 59515, Note_off_c, 0, 69, 64
2, 59539, Note_off_c, 0, 74, 64
2, 59573, Control_c, 0, 64, 0
2, 59573, Control_c, 0, 64, 0
2, 59580, Note_on_c, 0, 74, 39
2, 59580, Note_on_c, 0, 62, 35
2, 59580, Note_on_c, 0, 50, 27
2, 59584, Note_on_c, 0, 66, 35
2, 59586, Note_on_c, 0, 57, 21
2, 59604, Control_c, 0, 64, 127
2, 59604, Control_c, 0, 64, 127
2, 59606, Control_c, 0, 64, 0
2, 59606, Control_c, 0, 64, 0
2, 59629, Note_on_c, 0, 76, 47
2, 59631, Note_off_c, 0, 50, 64
2, 59631, Note_off_c, 0, 62, 64
2, 59635, Note_off_c, 0, 66, 64
2, 59637, Note_off_c, 0, 57, 64
2, 59638, Note_off_c, 0, 74, 64
2, 59684, Note_on_c, 0, 74, 43
2, 59693, Note_off_c, 0, 76, 64
2, 59733, Note_on_c, 0, 73, 54
2, 59736, Note_on_c, 0, 62, 21
2, 59736, Note_on_c, 0, 57, 21
2, 59736, Note_on_c, 0, 50, 27
2, 59738, Note_on_c, 0, 66, 35
2, 59754, Control_c, 0, 64, 0
2, 59754, Control_c, 0, 64, 0
2, 59758, Note_off_c, 0, 74, 64
2, 59787, Note_off_c, 0, 50, 64
2, 59787, Note_off_c, 0, 57, 64
2, 59787, Note_off_c, 0, 62, 64
2, 59789, Note_off_c, 0, 66, 64
2, 59795, Note_on_c, 0, 71, 43
2, 59821, Note_off_c, 0, 73, 64
2, 59879, Note_on_c, 0, 45, 31
2, 59881, Note_on_c, 0, 73, 49
2, 59889, Control_c, 0, 64, 0
2, 59889, Control_c, 0, 64, 0
2, 59897, Note_off_c, 0, 71, 64
2, 59910, Control_c, 0, 64, 127
2, 59910, Control_c, 0, 64, 127
2, 60040, Note_off_c, 0, 45, 64
2, 60052, Note_on_c, 0, 61, 13
2, 60054, Note_on_c, 0, 69, 26
2, 60056, Note_on_c, 0, 64, 15
2, 60056, Note_on_c, 0, 57, 13
2, 60086, Control_c, 0, 64, 0
2, 60086, Control_c, 0, 64, 0
2, 60120, Control_c, 0, 64, 127
2, 60120, Control_c, 0, 64, 127
2, 60134, Note_off_c, 0, 61, 64
2, 60136, Note_off_c, 0, 69, 64
2, 60138, Note_off_c, 0, 57, 64
2, 60138, Note_off_c, 0, 64, 64
2, 60296, Note_on_c, 0, 67, 26
2, 60297, Note_on_c, 0, 69, 35
2, 60297, Note_on_c, 0, 64, 24
2, 60303, Note_on_c, 0, 57, 21
2, 60378, Note_off_c, 0, 67, 64
2, 60379, Note_off_c, 0, 64, 64
2, 60379, Note_off_c, 0, 69, 64
2, 60418, Control_c, 0, 64, 0
2, 60418, Control_c, 0, 64, 0
2, 60465, Note_off_c, 0, 73, 64
2, 60499, Note_on_c, 0, 50, 26
2, 60516, Note_on_c, 0, 69, 36
2, 60525, Control_c, 0, 64, 0
2, 60525, Control_c, 0, 64, 0
2, 60553, Control_c, 0, 64, 127
2, 60553, Control_c, 0, 64, 127
2, 60599, Note_off_c, 0, 50, 64
2, 60610, Note_off_c, 0, 57, 64
2, 60612, Note_on_c, 0, 73, 39
2, 60632, Note_off_c, 0, 69, 64
2, 60691, Note_on_c, 0, 74, 49
2, 60692, Note_on_c, 0, 66, 39
2, 60692, Note_on_c, 0, 62, 27
2, 60692, Note_on_c, 0, 57, 24
2, 60698, Note_off_c, 0, 73, 64
2, 60743, Note_off_c, 0, 57, 64
2, 60743, Note_off_c, 0, 62, 64
2, 60743, Note_off_c, 0, 66, 64
2, 60768, Note_on_c, 0, 76, 45
2, 60786, Note_off_c, 0, 74, 64
2, 60824, Note_on_c, 0, 66, 35
2, 60824, Note_on_c, 0, 62, 35
2, 60824, Note_on_c, 0, 57, 34
2, 60824, Note_on_c, 0, 50, 34
2, 60825, Note_on_c, 0, 78, 60
2, 60849, Note_off_c, 0, 76, 64
2, 60850, Control_c, 0, 64, 0
2, 60850, Control_c, 0, 64, 0
2, 60875, Note_off_c, 0, 50, 64
2, 60875, Note_off_c, 0, 57, 64
2, 60875, Note_off_c, 0, 62, 64
2, 60875, Note_off_c, 0, 66, 64
2, 60888, Note_on_c, 0, 79, 43
2, 60914, Note_off_c, 0, 78, 64
2, 60959, Control_c, 0, 64, 0
2, 60959, Control_c, 0, 64, 0
2, 60986, Note_on_c, 0, 78, 56
2, 60989, Control_c, 0, 64, 127
2, 60989, Control_c, 0, 64, 127
2, 60990, Note_on_c, 0, 43, 32
2, 60990, Control_c, 0, 64, 0
2, 60990, Control_c, 0, 64, 0
2, 61001, Note_off_c, 0, 79, 64
2, 61003, Control_c, 0, 64, 0
2, 61003, Control_c, 0, 64, 0
2, 61016, Control_c, 0, 64, 127
2, 61016, Control_c, 0, 64, 127
2, 61023, Note_on_c, 0, 79, 43
2, 61036, Note_off_c, 0, 78, 64
2, 61072, Note_off_c, 0, 43, 64
2, 61074, Note_on_c, 0, 78, 49
2, 61097, Note_off_c, 0, 79, 64
2, 61139, Control_c, 0, 64, 0
2, 61139, Control_c, 0, 64, 0
2, 61149, Note_on_c, 0, 59, 24
2, 61152, Note_on_c, 0, 76, 43
2, 61153, Note_on_c, 0, 64, 32
2, 61154, Note_on_c, 0, 67, 35
2, 61162, Note_off_c, 0, 78, 64
2, 61169, Control_c, 0, 64, 127
2, 61169, Control_c, 0, 64, 127
2, 61170, Control_c, 0, 64, 0
2, 61170, Control_c, 0, 64, 0
2, 61200, Note_off_c, 0, 59, 64
2, 61204, Note_off_c, 0, 64, 64
2, 61205, Note_off_c, 0, 67, 64
2, 61226, Note_on_c, 0, 74, 43
2, 61241, Note_off_c, 0, 76, 64
2, 61293, Note_on_c, 0, 73, 53
2, 61296, Note_on_c, 0, 64, 24
2, 61296, Note_on_c, 0, 59, 24
2, 61296, Note_on_c, 0, 52, 35
2, 61298, Note_on_c, 0, 67, 35
2, 61306, Note_off_c, 0, 74, 64
2, 61314, Control_c, 0, 64, 0
2, 61314, Control_c, 0, 64, 0
2, 61347, Note_off_c, 0, 52, 64
2, 61347, Note_off_c, 0, 59, 64
2, 61347, Note_off_c, 0, 64, 64
2, 61349, Note_off_c, 0, 67, 64
2, 61368, Note_on_c, 0, 71, 43
2, 61390, Note_off_c, 0, 73, 64
2, 61444, Note_on_c, 0, 69, 43
2, 61451, Note_on_c, 0, 45, 35
2, 61463, Control_c, 0, 64, 0
2, 61463, Control_c, 0, 64, 0
2, 61477, Note_off_c, 0, 71, 64
2, 61486, Control_c, 0, 64, 127
2, 61486, Control_c, 0, 64, 127
2, 61533, Note_off_c, 0, 45, 64
2, 61533, Note_on_c, 0, 73, 49
2, 61553, Note_off_c, 0, 69, 64
2, 61585, Note_off_c, 0, 73, 64
2, 61632, Note_on_c, 0, 73, 47
2, 61632, Note_on_c, 0, 67, 15
2, 61636, Note_on_c, 0, 64, 23
2, 61636, Note_on_c, 0, 57, 26
2, 61677, Control_c, 0, 64, 0
2, 61677, Control_c, 0, 64, 0
2, 61683, Note_off_c, 0, 67, 64
2, 61687, Note_off_c, 0, 57, 64
2, 61687, Note_off_c, 0, 64, 64
2, 61689, Control_c, 0, 64, 127
2, 61689, Control_c, 0, 64, 127
2, 61694, Note_on_c, 0, 74, 46
2, 61702, Note_off_c, 0, 73, 64
2, 61748, Note_on_c, 0, 73, 47
2, 61769, Note_off_c, 0, 74, 64
2, 61816, Note_on_c, 0, 57, 27
2, 61817, Note_on_c, 0, 71, 32
2, 61820, Note_on_c, 0, 67, 35
2, 61820, Note_on_c, 0, 64, 24
2, 61841, Note_off_c, 0, 73, 64
2, 61842, Control_c, 0, 64, 0
2, 61842, Control_c, 0, 64, 0
2, 61867, Note_off_c, 0, 57, 64
2, 61871, Note_off_c, 0, 64, 64
2, 61871, Note_off_c, 0, 67, 64
2, 61899, Note_on_c, 0, 69, 39
2, 61933, Note_off_c, 0, 71, 64
2, 62013, Note_on_c, 0, 74, 43
2, 62013, Note_on_c, 0, 38, 35
2, 62028, Control_c, 0, 64, 0
2, 62028, Control_c, 0, 64, 0
2, 62036, Note_off_c, 0, 69, 64
2, 62070, Control_c, 0, 64, 127
2, 62070, Control_c, 0, 64, 127
2, 62174, Note_off_c, 0, 38, 64
2, 62288, Note_on_c, 0, 57, 21
2, 62289, Note_on_c, 0, 66, 24
2, 62292, Note_on_c, 0, 62, 17
2, 62293, Note_on_c, 0, 50, 24
2, 62370, Note_off_c, 0, 57, 64
2, 62371, Note_off_c, 0, 66, 64
2, 62374, Note_off_c, 0, 62, 64
2, 62375, Note_off_c, 0, 50, 64
2, 62551, Note_on_c, 0, 66, 23
2, 62552, Note_on_c, 0, 62, 15
2, 62552, Note_on_c, 0, 57, 21
2, 62552, Note_on_c, 0, 50, 15
2, 62633, Note_off_c, 0, 66, 64
2, 62634, Note_off_c, 0, 50, 64
2, 62634, Note_off_c, 0, 57, 64
2, 62634, Note_off_c, 0, 62, 64
2, 62638, Note_off_c, 0, 74, 64
2, 62860, Note_on_c, 0, 57, 32
2, 62862, Note_on_c, 0, 74, 43
2, 62864, Note_on_c, 0, 50, 27
2, 62868, Note_on_c, 0, 66, 39
2, 62898, Control_c, 0, 64, 0
2, 62898, Control_c, 0, 64, 0
2, 62912, Control_c, 0, 64, 127
2, 62912, Control_c, 0, 64, 127
2, 62978, Note_on_c, 0, 69, 45
2, 62986, Note_off_c, 0, 66, 64
2, 63032, Note_off_c, 0, 50, 64
2, 63033, Note_off_c, 0, 57, 64
2, 63040, Note_off_c, 0, 69, 64
2, 63076, Note_on_c, 0, 69, 49
2, 63076, Note_on_c, 0, 50, 27
2, 63079, Note_on_c, 0, 60, 43
2, 63144, Note_on_c, 0, 71, 23
2, 63156, Note_off_c, 0, 69, 64
2, 63204, Note_on_c, 0, 69, 49
2, 63211, Note_off_c, 0, 50, 64
2, 63222, Note_off_c, 0, 71, 64
2, 63252, Note_off_c, 0, 60, 64
2, 63252, Note_on_c, 0, 68, 47
2, 63252, Note_on_c, 0, 50, 27
2, 63259, Note_on_c, 0, 59, 49
2, 63274, Note_off_c, 0, 69, 64
2, 63340, Note_on_c, 0, 65, 43
2, 63346, Note_off_c, 0, 68, 64
2, 63362, Note_off_c, 0, 74, 64
2, 63394, Note_off_c, 0, 50, 64
2, 63412, Note_off_c, 0, 59, 64
2, 63412, Note_on_c, 0, 74, 38
2, 63416, Note_on_c, 0, 50, 45
2, 63419, Note_on_c, 0, 64, 54
2, 63419, Note_on_c, 0, 55, 43
2, 63436, Note_off_c, 0, 65, 64
2, 63484, Note_on_c, 0, 67, 50
2, 63501, Note_off_c, 0, 64, 64
2, 63534, Note_off_c, 0, 67, 64
2, 63553, Note_off_c, 0, 50, 64
2, 63568, Note_on_c, 0, 50, 27
2, 63571, Note_on_c, 0, 67, 56
2, 63575, Note_on_c, 0, 58, 47
2, 63576, Note_off_c, 0, 55, 64
2, 63631, Note_on_c, 0, 69, 35
2, 63644, Note_off_c, 0, 67, 64
2, 63671, Note_on_c, 0, 67, 46
2, 63688, Note_off_c, 0, 69, 64
2, 63705, Note_off_c, 0, 50, 64
2, 63712, Note_on_c, 0, 57, 39
2, 63712, Note_on_c, 0, 50, 27
2, 63713, Note_on_c, 0, 66, 58
2, 63714, Note_off_c, 0, 58, 64
2, 63736, Note_off_c, 0, 67, 64
2, 63788, Note_on_c, 0, 62, 56
2, 63796, Note_off_c, 0, 66, 64
2, 63841, Note_off_c, 0, 62, 64
2, 63844, Note_off_c, 0, 74, 64
2, 63845, Note_off_c, 0, 57, 64
2, 63847, Note_off_c, 0, 50, 64
2, 63876, Note_on_c, 0, 50, 49
2, 63878, Note_on_c, 0, 57, 50
2, 63880, Note_on_c, 0, 74, 58
2, 63880, Note_on_c, 0, 66, 60
2, 63948, Note_on_c, 0, 69, 54
2, 63960, Note_off_c, 0, 66, 64
2, 63988, Note_off_c, 0, 69, 64
2, 64005, Note_off_c, 0, 50, 64
2, 64021, Note_off_c, 0, 57, 64
2, 64024, Note_on_c, 0, 69, 53
2, 64028, Note_on_c, 0, 60, 47
2, 64028, Note_on_c, 0, 50, 27
2, 64068, Note_on_c, 0, 71, 35
2, 64087, Note_off_c, 0, 69, 64
2, 64115, Note_on_c, 0, 69, 49
2, 64124, Note_off_c, 0, 71, 64
2, 64159, Note_off_c, 0, 50, 64
2, 64161, Note_on_c, 0, 68, 57
2, 64163, Note_off_c, 0, 60, 64
2, 64168, Note_on_c, 0, 59, 43
2, 64168, Note_on_c, 0, 50, 27
2, 64184, Note_off_c, 0, 69, 64
2, 64236, Note_on_c, 0, 65, 47
2, 64244, Note_off_c, 0, 68, 64
2, 64265, Note_off_c, 0, 74, 64
2, 64282, Note_off_c, 0, 50, 64
2, 64296, Control_c, 0, 64, 0
2, 64296, Control_c, 0, 64, 0
2, 64301, Note_off_c, 0, 59, 64
2, 64303, Note_on_c, 0, 64, 58
2, 64304, Note_on_c, 0, 74, 49
2, 64304, Note_on_c, 0, 55, 36
2, 64304, Note_on_c, 0, 50, 54
2, 64313, Control_c, 0, 64, 127
2, 64313, Control_c, 0, 64, 127
2, 64315, Note_off_c, 0, 65, 64
2, 64371, Note_on_c, 0, 67, 56
2, 64380, Note_off_c, 0, 64, 64
2, 64407, Note_off_c, 0, 67, 64
2, 64430, Note_off_c, 0, 50, 64
2, 64436, Note_on_c, 0, 58, 50
2, 64436, Note_on_c, 0, 50, 27
2, 64437, Note_on_c, 0, 67, 57
2, 64453, Note_off_c, 0, 55, 64
2, 64490, Note_on_c, 0, 69, 54
2, 64498, Note_off_c, 0, 67, 64
2, 64531, Note_on_c, 0, 67, 43
2, 64540, Note_off_c, 0, 69, 64
2, 64547, Note_off_c, 0, 50, 64
2, 64557, Note_off_c, 0, 58, 64
2, 64572, Note_on_c, 0, 66, 57
2, 64572, Note_on_c, 0, 50, 27
2, 64576, Note_on_c, 0, 57, 56
2, 64589, Note_off_c, 0, 67, 64
2, 64671, Note_off_c, 0, 74, 64
2, 64700, Note_on_c, 0, 69, 67
2, 64702, Note_off_c, 0, 50, 64
2, 64704, Note_on_c, 0, 62, 58
2, 64704, Note_on_c, 0, 50, 43
2, 64706, Note_on_c, 0, 54, 56
2, 64708, Control_c, 0, 64, 0
2, 64708, Control_c, 0, 64, 0
2, 64711, Note_off_c, 0, 66, 64
2, 64721, Note_off_c, 0, 57, 64
2, 64727, Control_c, 0, 64, 127
2, 64727, Control_c, 0, 64, 127
2, 64759, Note_on_c, 0, 66, 60
2, 64793, Note_off_c, 0, 62, 64
2, 64809, Note_off_c, 0, 66, 64
2, 64831, Note_off_c, 0, 50, 64
2, 64839, Note_on_c, 0, 66, 56
2, 64842, Note_on_c, 0, 57, 53
2, 64844, Note_on_c, 0, 50, 27
2, 64846, Note_off_c, 0, 54, 64
2, 64880, Note_on_c, 0, 67, 50
2, 64902, Note_off_c, 0, 66, 64
2, 64928, Note_on_c, 0, 66, 57
2, 64949, Note_off_c, 0, 67, 64
2, 64969, Note_off_c, 0, 50, 64
2, 64977, Note_on_c, 0, 64, 60
2, 64980, Note_on_c, 0, 56, 53
2, 64982, Note_off_c, 0, 57, 64
2, 64984, Note_off_c, 0, 66, 64
2, 64984, Note_on_c, 0, 50, 27
2, 65038, Note_off_c, 0, 64, 64
2, 65039, Note_on_c, 0, 59, 43
2, 65086, Note_off_c, 0, 50, 64
2, 65091, Note_off_c, 0, 69, 64
2, 65097, Control_c, 0, 64, 0
2, 65097, Control_c, 0, 64, 0
2, 65108, Note_off_c, 0, 56, 64
2, 65112, Note_on_c, 0, 61, 69
2, 65116, Note_on_c, 0, 52, 53
2, 65116, Note_on_c, 0, 50, 45
2, 65118, Note_on_c, 0, 69, 57
2, 65129, Note_off_c, 0, 59, 64
2, 65129, Control_c, 0, 64, 127
2, 65129, Control_c, 0, 64, 127
2, 65173, Note_on_c, 0, 64, 49
2, 65181, Note_off_c, 0, 61, 64
2, 65224, Note_off_c, 0, 52, 64
2, 65225, Note_off_c, 0, 64, 64
2, 65234, Note_off_c, 0, 50, 64
2, 65240, Control_c, 0, 64, 0
2, 65240, Control_c, 0, 64, 0
2, 65248, Note_on_c, 0, 55, 53
2, 65248, Note_on_c, 0, 50, 27
2, 65249, Note_on_c, 0, 64, 58
2, 65258, Control_c, 0, 64, 127
2, 65258, Control_c, 0, 64, 127
2, 65297, Note_on_c, 0, 66, 50
2, 65310, Note_off_c, 0, 64, 64
2, 65346, Note_on_c, 0, 64, 49
2, 65353, Note_off_c, 0, 66, 64
2, 65366, Note_off_c, 0, 50, 64
2, 65371, Note_off_c, 0, 55, 64
2, 65388, Note_on_c, 0, 50, 27
2, 65392, Note_on_c, 0, 62, 50
2, 65393, Note_on_c, 0, 54, 53
2, 65406, Note_off_c, 0, 64, 64
2, 65444, Note_off_c, 0, 62, 64
2, 65456, Note_on_c, 0, 57, 46
2, 65486, Note_off_c, 0, 69, 64
2, 65494, Note_off_c, 0, 50, 64
2, 65499, Note_off_c, 0, 54, 64
2, 65514, Control_c, 0, 64, 0
2, 65514, Control_c, 0, 64, 0
2, 65524, Note_on_c, 0, 69, 60
2, 65524, Note_on_c, 0, 54, 35
2, 65524, Note_on_c, 0, 50, 49
2, 65528, Note_on_c, 0, 62, 65
2, 65534, Note_off_c, 0, 57, 64
2, 65536, Control_c, 0, 64, 127
2, 65536, Control_c, 0, 64, 127
2, 65585, Note_off_c, 0, 62, 64
2, 65585, Note_on_c, 0, 66, 60
2, 65627, Note_off_c, 0, 66, 64
2, 65638, Note_off_c, 0, 50, 64
2, 65638, Note_off_c, 0, 54, 64
2, 65656, Note_on_c, 0, 50, 27
2, 65657, Note_on_c, 0, 57, 54
2, 65659, Note_on_c, 0, 66, 58
2, 65704, Note_on_c, 0, 67, 45
2, 65722, Note_off_c, 0, 66, 64
2, 65744, Note_on_c, 0, 66, 56
2, 65761, Note_off_c, 0, 57, 64
2, 65769, Note_off_c, 0, 67, 64
2, 65770, Note_off_c, 0, 50, 64
2, 65788, Note_on_c, 0, 64, 60
2, 65792, Note_on_c, 0, 56, 53
2, 65792, Note_on_c, 0, 50, 27
2, 65806, Note_off_c, 0, 66, 64
2, 65854, Note_on_c, 0, 59, 56
2, 65856, Note_off_c, 0, 64, 64
2, 65898, Note_off_c, 0, 56, 64
2, 65899, Note_off_c, 0, 69, 64
2, 65908, Note_off_c, 0, 50, 64
2, 65913, Control_c, 0, 64, 0
2, 65913, Control_c, 0, 64, 0
2, 65924, Note_on_c, 0, 52, 53
2, 65928, Note_on_c, 0, 69, 57
2, 65928, Note_on_c, 0, 61, 67
2, 65930, Note_on_c, 0, 50, 46
2, 65938, Note_off_c, 0, 59, 64
2, 65946, Control_c, 0, 64, 127
2, 65946, Control_c, 0, 64, 127
2, 65989, Note_on_c, 0, 64, 46
2, 65995, Note_off_c, 0, 61, 64
2, 66026, Note_off_c, 0, 52, 64
2, 66034, Note_off_c, 0, 64, 64
2, 66040, Note_off_c, 0, 50, 64
2, 66048, Control_c, 0, 64, 0
2, 66048, Control_c, 0, 64, 0
2, 66066, Note_on_c, 0, 64, 60
2, 66068, Note_on_c, 0, 55, 35
2, 66068, Note_on_c, 0, 50, 27
2, 66074, Control_c, 0, 64, 127
2, 66074, Control_c, 0, 64, 127
2, 66112, Note_on_c, 0, 66, 50
2, 66125, Note_off_c, 0, 64, 64
2, 66156, Note_on_c, 0, 64, 49
2, 66160, Note_off_c, 0, 55, 64
2, 66170, Note_off_c, 0, 66, 64
2, 66172, Note_off_c, 0, 50, 64
2, 66200, Note_on_c, 0, 54, 57
2, 66200, Note_on_c, 0, 50, 27
2, 66205, Note_on_c, 0, 62, 47
2, 66208, Note_off_c, 0, 64, 64
2, 66252, Note_off_c, 0, 62, 64
2, 66264, Note_on_c, 0, 57, 56
2, 66303, Note_off_c, 0, 54, 64
2, 66303, Note_off_c, 0, 69, 64
2, 66304, Note_off_c, 0, 50, 64
2, 66308, Control_c, 0, 64, 0
2, 66308, Control_c, 0, 64, 0
2, 66314, Note_off_c, 0, 57, 64
2, 66328, Note_on_c, 0, 45, 35
2, 66329, Note_on_c, 0, 62, 58
2, 66332, Note_on_c, 0, 54, 58
2, 66332, Note_on_c, 0, 38, 50
2, 66347, Control_c, 0, 64, 127
2, 66347, Control_c, 0, 64, 127
2, 66411, Note_on_c, 0, 57, 56
2, 66420, Note_off_c, 0, 38, 64
2, 66420, Note_off_c, 0, 45, 64
2, 66424, Note_off_c, 0, 54, 64
2, 66449, Note_off_c, 0, 57, 64
2, 66449, Control_c, 0, 64, 0
2, 66449, Control_c, 0, 64, 0
2, 66476, Note_on_c, 0, 48, 43
2, 66476, Note_on_c, 0, 38, 49
2, 66476, Control_c, 0, 64, 127
2, 66476, Control_c, 0, 64, 127
2, 66476, Control_c, 0, 64, 0
2, 66476, Control_c, 0, 64, 0
2, 66482, Note_on_c, 0, 57, 53
2, 66515, Control_c, 0, 64, 127
2, 66515, Control_c, 0, 64, 127
2, 66528, Note_on_c, 0, 59, 46
2, 66534, Note_off_c, 0, 57, 64
2, 66558, Note_off_c, 0, 38, 64
2, 66564, Note_on_c, 0, 57, 49
2, 66568, Note_off_c, 0, 48, 64
2, 66592, Note_off_c, 0, 59, 64
2, 66612, Note_on_c, 0, 38, 49
2, 66616, Note_on_c, 0, 56, 60
2, 66616, Note_on_c, 0, 47, 43
2, 66623, Note_off_c, 0, 57, 64
2, 66628, Control_c, 0, 64, 0
2, 66628, Control_c, 0, 64, 0
2, 66667, Control_c, 0, 64, 127
2, 66667, Control_c, 0, 64, 127
2, 66680, Note_on_c, 0, 53, 54
2, 66692, Note_off_c, 0, 56, 64
2, 66694, Note_off_c, 0, 38, 64
2, 66704, Note_off_c, 0, 62, 64
2, 66708, Note_off_c, 0, 47, 64
2, 66740, Note_on_c, 0, 62, 56
2, 66740, Note_on_c, 0, 43, 53
2, 66740, Control_c, 0, 64, 0
2, 66740, Control_c, 0, 64, 0
2, 66744, Note_on_c, 0, 38, 45
2, 66747, Note_on_c, 0, 52, 56
2, 66756, Note_off_c, 0, 53, 64
2, 66761, Control_c, 0, 64, 127
2, 66761, Control_c, 0, 64, 127
2, 66813, Note_on_c, 0, 55, 49
2, 66831, Note_off_c, 0, 52, 64
2, 66832, Note_off_c, 0, 38, 64
2, 66832, Note_off_c, 0, 43, 64
2, 66853, Note_off_c, 0, 55, 64
2, 66861, Control_c, 0, 64, 0
2, 66861, Control_c, 0, 64, 0
2, 66876, Note_on_c, 0, 46, 56
2, 66876, Note_on_c, 0, 38, 46
2, 66882, Note_on_c, 0, 55, 50
2, 66891, Control_c, 0, 64, 127
2, 66891, Control_c, 0, 64, 127
2, 66900, Control_c, 0, 64, 0
2, 66900, Control_c, 0, 64, 0
2, 66927, Note_on_c, 0, 57, 47
2, 66939, Control_c, 0, 64, 127
2, 66939, Control_c, 0, 64, 127
2, 66941, Note_off_c, 0, 55, 64
2, 66958, Note_off_c, 0, 38, 64
2, 66968, Note_off_c, 0, 46, 64
2, 66977, Note_on_c, 0, 55, 45
2, 66993, Note_off_c, 0, 57, 64
2, 66995, Control_c, 0, 64, 0
2, 66995, Control_c, 0, 64, 0
2, 67009, Control_c, 0, 64, 127
2, 67009, Control_c, 0, 64, 127
2, 67016, Note_on_c, 0, 54, 58
2, 67020, Note_on_c, 0, 45, 35
2, 67020, Note_on_c, 0, 38, 46
2, 67020, Control_c, 0, 64, 0
2, 67020, Control_c, 0, 64, 0
2, 67036, Note_off_c, 0, 55, 64
2, 67059, Control_c, 0, 64, 127
2, 67059, Control_c, 0, 64, 127
2, 67084, Note_on_c, 0, 50, 42
2, 67100, Note_off_c, 0, 54, 64
2, 67102, Note_off_c, 0, 38, 64
2, 67112, Note_off_c, 0, 45, 64
2, 67115, Note_off_c, 0, 62, 64
2, 67124, Control_c, 0, 64, 0
2, 67124, Control_c, 0, 64, 0
2, 67139, Note_on_c, 0, 45, 47
2, 67146, Note_on_c, 0, 62, 53
2, 67146, Note_on_c, 0, 54, 60
2, 67146, Note_on_c, 0, 38, 42
2, 67157, Control_c, 0, 64, 127
2, 67157, Control_c, 0, 64, 127
2, 67166, Note_off_c, 0, 50, 64
2, 67206, Note_on_c, 0, 57, 49
2, 67209, Note_off_c, 0, 54, 64
2, 67231, Note_off_c, 0, 45, 64
2, 67234, Note_off_c, 0, 38, 64
2, 67251, Note_off_c, 0, 57, 64
2, 67260, Control_c, 0, 64, 0
2, 67260, Control_c, 0, 64, 0
2, 67268, Note_on_c, 0, 38, 43
2, 67280, Note_on_c, 0, 48, 46
2, 67283, Note_on_c, 0, 57, 43
2, 67284, Control_c, 0, 64, 0
2, 67284, Control_c, 0, 64, 0
2, 67285, Control_c, 0, 64, 127
2, 67285, Control_c, 0, 64, 127
2, 67323, Control_c, 0, 64, 127
2, 67323, Control_c, 0, 64, 127
2, 67324, Note_on_c, 0, 59, 46
2, 67331, Note_off_c, 0, 57, 64
2, 67350, Note_off_c, 0, 38, 64
2, 67372, Note_off_c, 0, 48, 64
2, 67372, Note_on_c, 0, 57, 35
2, 67400, Note_off_c, 0, 59, 64
2, 67412, Note_on_c, 0, 38, 43
2, 67416, Note_on_c, 0, 47, 43
2, 67418, Note_on_c, 0, 56, 56
2, 67420, Control_c, 0, 64, 0
2, 67420, Control_c, 0, 64, 0
2, 67440, Note_off_c, 0, 57, 64
2, 67459, Control_c, 0, 64, 127
2, 67459, Control_c, 0, 64, 127
2, 67480, Note_on_c, 0, 53, 49
2, 67494, Note_off_c, 0, 38, 64
2, 67498, Note_off_c, 0, 56, 64
2, 67508, Note_off_c, 0, 47, 64
2, 67521, Note_off_c, 0, 62, 64
2, 67530, Control_c, 0, 64, 0
2, 67530, Control_c, 0, 64, 0
2, 67544, Note_on_c, 0, 62, 43
2, 67548, Note_on_c, 0, 52, 49
2, 67548, Note_on_c, 0, 43, 50
2, 67550, Note_on_c, 0, 38, 35
2, 67555, Control_c, 0, 64, 127
2, 67555, Control_c, 0, 64, 127
2, 67556, Note_off_c, 0, 53, 64
2, 67624, Note_on_c, 0, 55, 45
2, 67632, Note_off_c, 0, 52, 64
2, 67634, Note_off_c, 0, 38, 64
2, 67640, Note_off_c, 0, 43, 64
2, 67648, Control_c, 0, 64, 0
2, 67648, Control_c, 0, 64, 0
2, 67658, Note_off_c, 0, 55, 64
2, 67676, Note_on_c, 0, 46, 49
2, 67676, Note_on_c, 0, 38, 13
2, 67680, Note_on_c, 0, 55, 47
2, 67683, Control_c, 0, 64, 127
2, 67683, Control_c, 0, 64, 127
2, 67732, Note_on_c, 0, 57, 35
2, 67758, Note_off_c, 0, 55, 64
2, 67768, Note_off_c, 0, 46, 64
2, 67769, Note_off_c, 0, 38, 64
2, 67780, Note_on_c, 0, 55, 39
2, 67793, Note_off_c, 0, 57, 64
2, 67804, Control_c, 0, 64, 0
2, 67804, Control_c, 0, 64, 0
2, 67824, Note_on_c, 0, 45, 27
2, 67825, Note_on_c, 0, 54, 49
2, 67828, Note_on_c, 0, 38, 42
2, 67834, Note_off_c, 0, 55, 64
2, 67843, Control_c, 0, 64, 127
2, 67843, Control_c, 0, 64, 127
2, 67883, Note_off_c, 0, 54, 64
2, 67896, Note_on_c, 0, 50, 46
2, 67919, Note_off_c, 0, 62, 64
2, 67930, Note_off_c, 0, 38, 64
2, 67930, Control_c, 0, 64, 0
2, 67930, Control_c, 0, 64, 0
2, 67945, Note_off_c, 0, 45, 64
2, 67962, Control_c, 0, 64, 127
2, 67962, Control_c, 0, 64, 127
2, 67964, Note_on_c, 0, 62, 43
2, 67964, Note_on_c, 0, 57, 43
2, 67968, Note_on_c, 0, 45, 56
2, 67968, Note_on_c, 0, 38, 56
2, 68061, Note_off_c, 0, 57, 64
2, 68071, Note_off_c, 0, 50, 64
2, 68078, Note_off_c, 0, 62, 64
2, 68145, Note_on_c, 0, 69, 35
2, 68145, Note_on_c, 0, 62, 49
2, 68152, Note_on_c, 0, 57, 38
2, 68152, Note_on_c, 0, 50, 46
2, 68238, Note_off_c, 0, 69, 64
2, 68242, Note_off_c, 0, 62, 64
2, 68319, Note_on_c, 0, 74, 60
2, 68319, Note_on_c, 0, 62, 27
2, 68324, Note_on_c, 0, 69, 43
2, 68393, Note_on_c, 0, 81, 58
2, 68486, Note_on_c, 0, 86, 75
2, 68528, Control_c, 0, 64, 0
2, 68528, Control_c, 0, 64, 0
2, 68556, Note_on_c, 0, 90, 75
2, 68567, Control_c, 0, 64, 127
2, 68567, Control_c, 0, 64, 127
2, 68622, Note_on_c, 0, 92, 75
2, 68642, Note_off_c, 0, 90, 64
2, 68694, Note_on_c, 0, 93, 75
2, 68712, Note_off_c, 0, 92, 64
2, 68773, Note_on_c, 0, 95, 75
2, 68802, Note_off_c, 0, 93, 64
2, 68839, Note_on_c, 0, 97, 75
2, 68861, Note_off_c, 0, 95, 64
2, 69032, Note_on_c, 0, 98, 56
2, 69065, Note_off_c, 0, 97, 64
2, 69073, Control_c, 0, 64, 0
2, 69073, Control_c, 0, 64, 0
2, 69126, Control_c, 0, 64, 127
2, 69126, Control_c, 0, 64, 127
2, 70997, Note_off_c, 0, 38, 64
2, 70999, Note_off_c, 0, 57, 64
2, 71003, Note_off_c, 0, 50, 64
2, 71003, Note_off_c, 0, 98, 64
2, 71010, Note_off_c, 0, 62, 64
2, 71015, Note_off_c, 0, 74, 64
2, 71015, Note_off_c, 0, 86, 64
2, 71017, Note_off_c, 0, 45, 64
2, 71020, Note_off_c, 0, 69, 64
2, 71033, Note_off_c, 0, 81, 64
2, 71033, End_track
3, 0, Start_track
3, 0, Title_t, "Played by Dr. Ron Lubetsky"
3, 0, End_track
4, 0, Start_track
4, 0, Title_t, "Feb. 17, 1998"
4, 0, End_track
5, 0, Start_track
5, 0, Title_t, "email: acuity2020@aol.com"
5, 0, End_track
6, 0, Start_track
6, 0, Title_t, "Copyright  1998"
6, 0, End_track
7, 0, Start_track
7, 0, Title_t, "All Rights Reserved"
7, 0, End_track
0, 0, End_of_file
