0, 0, Header, 1, 7, 240
1, 0, Start_track
1, 0, Time_signature, 4, 2, 24, 8
1, 0, Tempo, 500000
1, 0, Marker_t, "Chopin: Mazurka, Op. 67 No. 1 (posth.)- Vivace"
1, 0, End_track
2, 0, Start_track
2, 0, Title_t, "Chopin: Op. 67 No. 1 (posth.)"
2, 0, Program_c, 0, 0
2, 0, Control_c, 0, 7, 127
2, 2, Note_on_c, 0, 62, 50
2, 2, Note_on_c, 0, 50, 43
2, 2, Note_on_c, 0, 43, 50
2, 4, Note_on_c, 0, 59, 46
2, 28, Note_off_c, 0, 59, 64
2, 32, Note_off_c, 0, 62, 64
2, 36, Note_off_c, 0, 50, 64
2, 38, Note_off_c, 0, 43, 64
2, 56, Control_c, 0, 64, 127
2, 206, Note_on_c, 0, 62, 60
2, 206, Note_on_c, 0, 50, 57
2, 206, Note_on_c, 0, 43, 58
2, 208, Note_on_c, 0, 59, 58
2, 230, Control_c, 0, 64, 0
2, 235, Note_off_c, 0, 59, 64
2, 236, Note_off_c, 0, 43, 64
2, 238, Note_off_c, 0, 50, 64
2, 243, Note_off_c, 0, 62, 64
2, 248, Control_c, 0, 64, 127
2, 403, Note_on_c, 0, 62, 72
2, 403, Note_on_c, 0, 59, 68
2, 403, Note_on_c, 0, 50, 68
2, 409, Note_on_c, 0, 43, 68
2, 519, Note_off_c, 0, 43, 64
2, 526, Note_off_c, 0, 50, 64
2, 590, Note_on_c, 0, 60, 62
2, 594, Note_on_c, 0, 64, 62
2, 600, Note_on_c, 0, 50, 53
2, 604, Note_on_c, 0, 43, 53
2, 605, Note_off_c, 0, 59, 64
2, 608, Note_off_c, 0, 62, 64
2, 624, Note_off_c, 0, 60, 64
2, 632, Note_off_c, 0, 64, 64
2, 634, Note_off_c, 0, 43, 64
2, 637, Note_off_c, 0, 50, 64
2, 680, Control_c, 0, 64, 127
2, 704, Note_on_c, 0, 62, 62
2, 709, Note_on_c, 0, 59, 62
2, 736, Note_on_c, 0, 64, 63
2, 740, Note_off_c, 0, 62, 64
2, 742, Note_off_c, 0, 59, 64
2, 777, Note_on_c, 0, 62, 60
2, 788, Control_c, 0, 64, 0
2, 796, Note_on_c, 0, 50, 56
2, 798, Note_off_c, 0, 64, 64
2, 798, Note_on_c, 0, 43, 53
2, 806, Note_on_c, 0, 61, 72
2, 811, Note_on_c, 0, 58, 70
2, 817, Note_off_c, 0, 62, 64
2, 825, Control_c, 0, 64, 127
2, 924, Control_c, 0, 64, 0
2, 935, Note_off_c, 0, 43, 64
2, 944, Note_off_c, 0, 50, 64
2, 1000, Control_c, 0, 64, 127
2, 1006, Note_on_c, 0, 62, 71
2, 1007, Note_on_c, 0, 43, 71
2, 1007, Note_on_c, 0, 50, 83
2, 1007, Note_on_c, 0, 59, 81
2, 1021, Control_c, 0, 64, 0
2, 1035, Note_off_c, 0, 61, 64
2, 1043, Note_off_c, 0, 58, 64
2, 1062, Control_c, 0, 64, 127
2, 1149, Note_off_c, 0, 43, 64
2, 1160, Note_off_c, 0, 62, 64
2, 1174, Note_off_c, 0, 59, 64
2, 1174, Control_c, 0, 64, 0
2, 1182, Note_off_c, 0, 50, 64
2, 1192, Control_c, 0, 64, 127
2, 1199, Note_on_c, 0, 60, 60
2, 1200, Note_on_c, 0, 64, 63
2, 1204, Note_on_c, 0, 50, 58
2, 1207, Note_on_c, 0, 43, 58
2, 1239, Note_off_c, 0, 60, 64
2, 1249, Note_off_c, 0, 50, 64
2, 1249, Note_off_c, 0, 64, 64
2, 1250, Note_off_c, 0, 43, 64
2, 1300, Note_on_c, 0, 62, 70
2, 1308, Note_on_c, 0, 59, 70
2, 1338, Note_on_c, 0, 64, 58
2, 1341, Note_off_c, 0, 62, 64
2, 1345, Note_off_c, 0, 59, 64
2, 1377, Note_on_c, 0, 62, 63
2, 1406, Note_off_c, 0, 64, 64
2, 1406, Note_on_c, 0, 61, 77
2, 1412, Note_on_c, 0, 58, 75
2, 1418, Note_on_c, 0, 43, 60
2, 1418, Note_on_c, 0, 50, 62
2, 1424, Note_off_c, 0, 62, 64
2, 1516, Note_off_c, 0, 61, 64
2, 1520, Note_off_c, 0, 50, 64
2, 1528, Note_off_c, 0, 58, 64
2, 1542, Note_off_c, 0, 43, 64
2, 1598, Note_on_c, 0, 62, 88
2, 1603, Note_on_c, 0, 59, 88
2, 1606, Note_on_c, 0, 50, 78
2, 1606, Note_on_c, 0, 43, 77
2, 1622, Control_c, 0, 64, 0
2, 1678, Control_c, 0, 64, 127
2, 1729, Note_off_c, 0, 43, 64
2, 1732, Control_c, 0, 64, 0
2, 1740, Note_off_c, 0, 50, 64
2, 1769, Note_off_c, 0, 62, 64
2, 1769, Control_c, 0, 64, 127
2, 1776, Note_off_c, 0, 59, 64
2, 1796, Note_on_c, 0, 60, 66
2, 1800, Note_on_c, 0, 64, 65
2, 1802, Note_on_c, 0, 50, 66
2, 1809, Note_on_c, 0, 43, 68
2, 1836, Note_off_c, 0, 60, 64
2, 1838, Note_off_c, 0, 64, 64
2, 1846, Note_off_c, 0, 50, 64
2, 1853, Note_off_c, 0, 43, 64
2, 1901, Note_on_c, 0, 62, 75
2, 1912, Note_on_c, 0, 59, 62
2, 1938, Note_off_c, 0, 59, 64
2, 1938, Note_on_c, 0, 64, 68
2, 1943, Note_off_c, 0, 62, 64
2, 1965, Control_c, 0, 64, 0
2, 1982, Note_on_c, 0, 62, 75
2, 1993, Note_on_c, 0, 43, 63
2, 1996, Note_on_c, 0, 50, 66
2, 1998, Note_off_c, 0, 64, 64
2, 2006, Control_c, 0, 64, 127
2, 2010, Note_on_c, 0, 61, 81
2, 2012, Note_on_c, 0, 58, 72
2, 2016, Control_c, 0, 64, 0
2, 2028, Note_off_c, 0, 62, 64
2, 2031, Control_c, 0, 64, 127
2, 2042, Note_off_c, 0, 50, 64
2, 2045, Note_off_c, 0, 43, 64
2, 2048, Note_off_c, 0, 61, 64
2, 2080, Note_off_c, 0, 58, 64
2, 2215, Note_on_c, 0, 62, 81
2, 2218, Note_on_c, 0, 59, 82
2, 2224, Note_on_c, 0, 50, 77
2, 2225, Note_on_c, 0, 43, 76
2, 2238, Control_c, 0, 64, 0
2, 2272, Control_c, 0, 64, 127
2, 2317, Note_off_c, 0, 59, 64
2, 2321, Note_off_c, 0, 43, 64
2, 2330, Note_off_c, 0, 62, 64
2, 2352, Note_off_c, 0, 50, 64
2, 2476, Note_on_c, 0, 31, 78
2, 2483, Note_on_c, 0, 43, 78
2, 2483, Note_on_c, 0, 62, 83
2, 2566, Control_c, 0, 64, 0
2, 2622, Control_c, 0, 64, 127
2, 2699, Note_on_c, 0, 71, 51
2, 2716, Note_off_c, 0, 62, 64
2, 2720, Note_on_c, 0, 72, 57
2, 2738, Note_off_c, 0, 71, 64
2, 2744, Note_on_c, 0, 67, 25
2, 2745, Note_on_c, 0, 62, 35
2, 2751, Note_on_c, 0, 55, 50
2, 2752, Note_on_c, 0, 71, 51
2, 2773, Note_off_c, 0, 72, 64
2, 2798, Note_off_c, 0, 67, 64
2, 2804, Note_off_c, 0, 55, 64
2, 2816, Note_off_c, 0, 62, 64
2, 2854, Note_on_c, 0, 69, 63
2, 2859, Note_on_c, 0, 66, 66
2, 2880, Note_off_c, 0, 71, 64
2, 2930, Note_off_c, 0, 66, 64
2, 2939, Note_off_c, 0, 69, 64
2, 2942, Note_on_c, 0, 71, 63
2, 2951, Note_on_c, 0, 67, 63
2, 2952, Note_on_c, 0, 62, 52
2, 2952, Note_on_c, 0, 55, 56
2, 2960, Control_c, 0, 64, 0
2, 2975, Control_c, 0, 64, 127
2, 2996, Note_off_c, 0, 55, 64
2, 2996, Note_off_c, 0, 62, 64
2, 3017, Note_off_c, 0, 67, 64
2, 3039, Note_on_c, 0, 72, 70
2, 3040, Note_on_c, 0, 69, 66
2, 3044, Note_off_c, 0, 71, 64
2, 3100, Note_off_c, 0, 31, 64
2, 3107, Note_off_c, 0, 43, 64
2, 3112, Note_on_c, 0, 74, 71
2, 3115, Note_off_c, 0, 69, 64
2, 3136, Note_on_c, 0, 76, 52
2, 3139, Note_off_c, 0, 74, 64
2, 3141, Note_off_c, 0, 72, 64
2, 3160, Note_on_c, 0, 74, 75
2, 3160, Note_on_c, 0, 71, 78
2, 3169, Note_on_c, 0, 62, 52
2, 3169, Note_on_c, 0, 55, 47
2, 3182, Control_c, 0, 64, 0
2, 3204, Note_off_c, 0, 76, 64
2, 3216, Control_c, 0, 64, 127
2, 3217, Note_off_c, 0, 62, 64
2, 3221, Note_off_c, 0, 55, 64
2, 3260, Note_on_c, 0, 73, 75
2, 3266, Note_off_c, 0, 74, 64
2, 3273, Note_on_c, 0, 70, 53
2, 3279, Note_off_c, 0, 71, 64
2, 3360, Note_on_c, 0, 74, 77
2, 3366, Note_off_c, 0, 70, 64
2, 3367, Note_on_c, 0, 71, 71
2, 3368, Note_on_c, 0, 62, 62
2, 3368, Note_on_c, 0, 55, 63
2, 3377, Note_off_c, 0, 73, 64
2, 3413, Note_off_c, 0, 55, 64
2, 3419, Note_off_c, 0, 62, 64
2, 3530, Note_off_c, 0, 71, 64
2, 3554, Note_off_c, 0, 74, 64
2, 3554, Note_on_c, 0, 79, 76
2, 3554, Note_on_c, 0, 71, 75
2, 3562, Note_on_c, 0, 62, 70
2, 3562, Note_on_c, 0, 55, 68
2, 3585, Note_off_c, 0, 62, 64
2, 3587, Note_off_c, 0, 55, 64
2, 3710, Note_off_c, 0, 71, 64
2, 3752, Note_off_c, 0, 79, 64
2, 3759, Note_on_c, 0, 38, 78
2, 3769, Note_on_c, 0, 62, 78
2, 3789, Control_c, 0, 64, 0
2, 3803, Control_c, 0, 64, 127
2, 3942, Note_on_c, 0, 72, 70
2, 3945, Note_off_c, 0, 62, 64
2, 3972, Note_on_c, 0, 74, 78
2, 3978, Note_on_c, 0, 50, 70
2, 3985, Note_off_c, 0, 72, 64
2, 3989, Note_on_c, 0, 60, 66
2, 3989, Note_on_c, 0, 54, 35
2, 4003, Note_on_c, 0, 72, 76
2, 4009, Note_on_c, 0, 69, 46
2, 4013, Note_off_c, 0, 50, 64
2, 4025, Note_off_c, 0, 54, 64
2, 4025, Note_off_c, 0, 74, 64
2, 4030, Note_off_c, 0, 60, 64
2, 4092, Note_off_c, 0, 69, 64
2, 4093, Note_on_c, 0, 68, 78
2, 4096, Note_on_c, 0, 71, 76
2, 4122, Note_off_c, 0, 72, 64
2, 4176, Note_on_c, 0, 69, 65
2, 4180, Note_on_c, 0, 72, 78
2, 4181, Note_off_c, 0, 68, 64
2, 4198, Note_off_c, 0, 71, 64
2, 4244, Note_off_c, 0, 69, 64
2, 4252, Note_off_c, 0, 72, 64
2, 4264, Note_on_c, 0, 72, 68
2, 4267, Note_off_c, 0, 38, 64
2, 4267, Note_on_c, 0, 76, 85
2, 4316, Note_off_c, 0, 72, 64
2, 4318, Note_off_c, 0, 76, 64
2, 4362, Note_on_c, 0, 43, 81
2, 4368, Note_on_c, 0, 76, 81
2, 4371, Note_on_c, 0, 72, 72
2, 4438, Note_on_c, 0, 78, 60
2, 4443, Note_off_c, 0, 76, 64
2, 4489, Note_off_c, 0, 72, 64
2, 4500, Note_on_c, 0, 76, 72
2, 4527, Note_off_c, 0, 78, 64
2, 4552, Note_on_c, 0, 74, 66
2, 4556, Note_on_c, 0, 50, 56
2, 4561, Note_on_c, 0, 59, 53
2, 4561, Note_on_c, 0, 55, 58
2, 4565, Note_on_c, 0, 71, 60
2, 4568, Note_off_c, 0, 76, 64
2, 4577, Control_c, 0, 64, 0
2, 4591, Note_off_c, 0, 50, 64
2, 4593, Control_c, 0, 64, 127
2, 4600, Note_off_c, 0, 55, 64
2, 4600, Note_off_c, 0, 59, 64
2, 4733, Control_c, 0, 64, 0
2, 4747, Control_c, 0, 64, 127
2, 4749, Note_on_c, 0, 55, 58
2, 4755, Note_on_c, 0, 59, 56
2, 4757, Note_off_c, 0, 74, 64
2, 4758, Note_on_c, 0, 50, 50
2, 4775, Note_off_c, 0, 71, 64
2, 4781, Note_off_c, 0, 59, 64
2, 4782, Note_off_c, 0, 43, 64
2, 4790, Note_off_c, 0, 55, 64
2, 4794, Note_off_c, 0, 50, 64
2, 4846, Note_on_c, 0, 67, 46
2, 4850, Note_on_c, 0, 71, 45
2, 4928, Note_off_c, 0, 67, 64
2, 4948, Note_on_c, 0, 62, 78
2, 4952, Note_on_c, 0, 43, 83
2, 4959, Control_c, 0, 64, 0
2, 4961, Note_off_c, 0, 71, 64
2, 4983, Control_c, 0, 64, 127
2, 5069, Note_off_c, 0, 43, 64
2, 5092, Note_off_c, 0, 62, 64
2, 5129, Note_on_c, 0, 71, 51
2, 5152, Note_on_c, 0, 72, 45
2, 5155, Note_off_c, 0, 71, 64
2, 5164, Note_on_c, 0, 67, 83
2, 5168, Note_on_c, 0, 71, 71
2, 5171, Note_on_c, 0, 62, 50
2, 5171, Note_on_c, 0, 55, 56
2, 5209, Note_off_c, 0, 72, 64
2, 5211, Note_off_c, 0, 62, 64
2, 5213, Note_off_c, 0, 55, 64
2, 5253, Note_off_c, 0, 67, 64
2, 5257, Note_off_c, 0, 71, 64
2, 5259, Note_on_c, 0, 69, 46
2, 5269, Note_on_c, 0, 66, 53
2, 5344, Note_off_c, 0, 66, 64
2, 5350, Note_on_c, 0, 71, 60
2, 5356, Note_on_c, 0, 55, 51
2, 5361, Note_off_c, 0, 69, 64
2, 5364, Note_on_c, 0, 67, 56
2, 5364, Note_on_c, 0, 62, 51
2, 5398, Note_off_c, 0, 62, 64
2, 5399, Note_off_c, 0, 55, 64
2, 5429, Note_off_c, 0, 67, 64
2, 5445, Note_on_c, 0, 72, 62
2, 5447, Note_off_c, 0, 71, 64
2, 5453, Note_on_c, 0, 69, 57
2, 5508, Note_on_c, 0, 74, 68
2, 5516, Note_off_c, 0, 69, 64
2, 5521, Note_off_c, 0, 72, 64
2, 5521, Control_c, 0, 64, 0
2, 5528, Note_on_c, 0, 76, 51
2, 5537, Control_c, 0, 64, 127
2, 5539, Note_off_c, 0, 74, 64
2, 5548, Note_on_c, 0, 74, 65
2, 5548, Note_on_c, 0, 71, 60
2, 5550, Note_on_c, 0, 55, 51
2, 5551, Note_on_c, 0, 62, 51
2, 5581, Note_off_c, 0, 76, 64
2, 5590, Note_off_c, 0, 55, 64
2, 5595, Note_off_c, 0, 62, 64
2, 5646, Note_off_c, 0, 71, 64
2, 5646, Note_off_c, 0, 74, 64
2, 5650, Note_on_c, 0, 73, 72
2, 5656, Note_on_c, 0, 70, 66
2, 5739, Note_off_c, 0, 70, 64
2, 5742, Note_on_c, 0, 74, 77
2, 5748, Note_on_c, 0, 62, 62
2, 5748, Note_on_c, 0, 55, 58
2, 5751, Note_off_c, 0, 73, 64
2, 5752, Note_on_c, 0, 71, 75
2, 5779, Note_off_c, 0, 55, 64
2, 5792, Note_off_c, 0, 62, 64
2, 5807, Note_off_c, 0, 71, 64
2, 5860, Note_off_c, 0, 74, 64
2, 5903, Control_c, 0, 64, 0
2, 5903, Note_on_c, 0, 68, 63
2, 5921, Note_on_c, 0, 74, 63
2, 5927, Control_c, 0, 64, 127
2, 5936, Note_on_c, 0, 52, 68
2, 5943, Note_on_c, 0, 83, 93
2, 5943, Note_on_c, 0, 59, 72
2, 5947, Note_on_c, 0, 64, 66
2, 6036, Note_off_c, 0, 52, 64
2, 6038, Note_off_c, 0, 59, 64
2, 6065, Note_off_c, 0, 64, 64
2, 6099, Note_off_c, 0, 68, 64
2, 6110, Note_off_c, 0, 74, 64
2, 6136, Note_off_c, 0, 83, 64
2, 6150, Note_on_c, 0, 69, 71
2, 6150, Note_on_c, 0, 67, 76
2, 6157, Note_on_c, 0, 64, 63
2, 6157, Note_on_c, 0, 57, 57
2, 6166, Control_c, 0, 64, 0
2, 6191, Control_c, 0, 64, 127
2, 6197, Note_off_c, 0, 57, 64
2, 6208, Note_off_c, 0, 64, 64
2, 6303, Note_off_c, 0, 69, 64
2, 6309, Note_off_c, 0, 67, 64
2, 6329, Note_on_c, 0, 74, 70
2, 6340, Note_on_c, 0, 67, 57
2, 6352, Note_on_c, 0, 72, 63
2, 6353, Note_on_c, 0, 64, 70
2, 6353, Note_on_c, 0, 57, 70
2, 6366, Control_c, 0, 64, 0
2, 6388, Note_off_c, 0, 64, 64
2, 6391, Control_c, 0, 64, 127
2, 6399, Note_off_c, 0, 74, 64
2, 6400, Note_off_c, 0, 57, 64
2, 6453, Note_on_c, 0, 71, 71
2, 6473, Note_off_c, 0, 72, 64
2, 6490, Note_off_c, 0, 67, 64
2, 6536, Note_on_c, 0, 60, 68
2, 6541, Note_on_c, 0, 72, 78
2, 6548, Note_on_c, 0, 57, 70
2, 6551, Note_on_c, 0, 66, 83
2, 6556, Note_on_c, 0, 50, 66
2, 6559, Note_off_c, 0, 71, 64
2, 6591, Note_off_c, 0, 60, 64
2, 6594, Note_off_c, 0, 50, 64
2, 6594, Note_off_c, 0, 57, 64
2, 6639, Note_on_c, 0, 76, 66
2, 6693, Note_off_c, 0, 72, 64
2, 6710, Note_off_c, 0, 76, 64
2, 6723, Note_off_c, 0, 66, 64
2, 6733, Note_on_c, 0, 55, 70
2, 6737, Note_on_c, 0, 66, 77
2, 6739, Note_on_c, 0, 60, 60
2, 6747, Note_on_c, 0, 76, 76
2, 6823, Note_on_c, 0, 78, 78
2, 6840, Note_off_c, 0, 76, 64
2, 6854, Note_off_c, 0, 60, 64
2, 6865, Note_off_c, 0, 66, 64
2, 6868, Note_on_c, 0, 76, 64
2, 6899, Note_off_c, 0, 78, 64
2, 6926, Note_on_c, 0, 74, 87
2, 6935, Note_on_c, 0, 67, 70
2, 6939, Note_off_c, 0, 76, 64
2, 6939, Note_on_c, 0, 59, 60
2, 6951, Control_c, 0, 64, 0
2, 6986, Control_c, 0, 64, 127
2, 7110, Control_c, 0, 64, 0
2, 7124, Note_on_c, 0, 62, 58
2, 7135, Control_c, 0, 64, 127
2, 7145, Note_off_c, 0, 59, 64
2, 7163, Note_off_c, 0, 62, 64
2, 7168, Note_off_c, 0, 55, 64
2, 7183, Note_off_c, 0, 74, 64
2, 7190, Note_on_c, 0, 71, 58
2, 7220, Note_off_c, 0, 67, 64
2, 7310, Control_c, 0, 64, 0
2, 7311, Note_on_c, 0, 69, 83
2, 7311, Note_on_c, 0, 33, 78
2, 7335, Control_c, 0, 64, 127
2, 7340, Note_off_c, 0, 71, 64
2, 7343, Control_c, 0, 64, 0
2, 7357, Control_c, 0, 64, 127
2, 7510, Note_on_c, 0, 61, 72
2, 7517, Note_on_c, 0, 52, 66
2, 7517, Note_on_c, 0, 45, 65
2, 7555, Note_off_c, 0, 61, 64
2, 7606, Note_off_c, 0, 33, 64
2, 7608, Note_on_c, 0, 67, 72
2, 7628, Note_off_c, 0, 69, 64
2, 7647, Note_off_c, 0, 67, 64
2, 7677, Note_on_c, 0, 67, 85
2, 7688, Note_on_c, 0, 61, 70
2, 7708, Note_off_c, 0, 45, 64
2, 7708, Note_off_c, 0, 52, 64
2, 7720, Note_on_c, 0, 57, 85
2, 7721, Note_on_c, 0, 66, 95
2, 7733, Control_c, 0, 64, 0
2, 7746, Note_off_c, 0, 67, 64
2, 7747, Control_c, 0, 64, 127
2, 7756, Note_off_c, 0, 61, 64
2, 7804, Note_on_c, 0, 55, 52
2, 7810, Note_on_c, 0, 64, 77
2, 7827, Note_off_c, 0, 66, 64
2, 7836, Note_off_c, 0, 57, 64
2, 7895, Control_c, 0, 64, 0
2, 7912, Note_on_c, 0, 66, 77
2, 7912, Note_on_c, 0, 60, 77
2, 7912, Note_on_c, 0, 50, 78
2, 7923, Note_on_c, 0, 57, 81
2, 7924, Note_off_c, 0, 64, 64
2, 7924, Note_off_c, 0, 55, 64
2, 7930, Control_c, 0, 64, 127
2, 7939, Control_c, 0, 64, 0
2, 7954, Note_off_c, 0, 57, 64
2, 7960, Note_off_c, 0, 50, 64
2, 7963, Control_c, 0, 64, 127
2, 7977, Note_off_c, 0, 60, 64
2, 8002, Note_on_c, 0, 62, 78
2, 8021, Note_off_c, 0, 66, 64
2, 8098, Note_on_c, 0, 43, 70
2, 8102, Note_on_c, 0, 67, 76
2, 8102, Note_on_c, 0, 59, 87
2, 8102, Note_on_c, 0, 50, 66
2, 8108, Control_c, 0, 64, 0
2, 8121, Note_off_c, 0, 62, 64
2, 8142, Note_off_c, 0, 50, 64
2, 8154, Control_c, 0, 64, 127
2, 8160, Note_off_c, 0, 43, 64
2, 8287, Control_c, 0, 64, 0
2, 8292, Note_on_c, 0, 71, 81
2, 8296, Note_on_c, 0, 31, 78
2, 8297, Note_off_c, 0, 59, 64
2, 8301, Control_c, 0, 64, 127
2, 8310, Note_off_c, 0, 67, 64
2, 8455, Note_off_c, 0, 31, 64
2, 8484, Note_on_c, 0, 36, 78
2, 8491, Note_on_c, 0, 72, 75
2, 8502, Note_off_c, 0, 71, 64
2, 8515, Control_c, 0, 64, 0
2, 8541, Control_c, 0, 64, 127
2, 8623, Note_on_c, 0, 76, 66
2, 8644, Note_off_c, 0, 72, 64
2, 8677, Control_c, 0, 64, 0
2, 8690, Note_on_c, 0, 60, 70
2, 8691, Control_c, 0, 64, 127
2, 8691, Note_on_c, 0, 79, 80
2, 8696, Note_on_c, 0, 64, 50
2, 8700, Note_off_c, 0, 76, 64
2, 8700, Note_on_c, 0, 55, 63
2, 8709, Control_c, 0, 64, 0
2, 8721, Control_c, 0, 64, 127
2, 8744, Note_off_c, 0, 55, 64
2, 8752, Note_off_c, 0, 60, 64
2, 8755, Note_off_c, 0, 64, 64
2, 8765, Note_on_c, 0, 81, 70
2, 8769, Note_off_c, 0, 36, 64
2, 8771, Note_off_c, 0, 79, 64
2, 8834, Note_on_c, 0, 79, 76
2, 8856, Note_off_c, 0, 81, 64
2, 8877, Note_on_c, 0, 64, 56
2, 8883, Control_c, 0, 64, 0
2, 8884, Note_on_c, 0, 60, 63
2, 8888, Note_on_c, 0, 55, 57
2, 8892, Note_on_c, 0, 78, 74
2, 8904, Note_off_c, 0, 64, 64
2, 8907, Control_c, 0, 64, 127
2, 8908, Note_off_c, 0, 60, 64
2, 8918, Note_off_c, 0, 55, 64
2, 8922, Note_off_c, 0, 79, 64
2, 8977, Note_on_c, 0, 76, 68
2, 8992, Note_off_c, 0, 78, 64
2, 9052, Control_c, 0, 64, 0
2, 9073, Note_on_c, 0, 74, 66
2, 9077, Note_on_c, 0, 43, 60
2, 9089, Note_on_c, 0, 83, 85
2, 9094, Note_off_c, 0, 76, 64
2, 9098, Control_c, 0, 64, 127
2, 9104, Control_c, 0, 64, 0
2, 9119, Note_off_c, 0, 74, 64
2, 9128, Control_c, 0, 64, 127
2, 9223, Note_on_c, 0, 81, 78
2, 9240, Note_off_c, 0, 83, 64
2, 9262, Note_on_c, 0, 59, 43
2, 9266, Note_on_c, 0, 50, 37
2, 9269, Note_on_c, 0, 55, 45
2, 9273, Note_on_c, 0, 79, 70
2, 9295, Note_off_c, 0, 81, 64
2, 9362, Note_off_c, 0, 43, 64
2, 9390, Note_on_c, 0, 76, 47
2, 9398, Note_off_c, 0, 79, 64
2, 9416, Note_off_c, 0, 55, 64
2, 9421, Note_off_c, 0, 50, 64
2, 9448, Note_on_c, 0, 74, 68
2, 9459, Control_c, 0, 64, 0
2, 9460, Note_off_c, 0, 59, 64
2, 9462, Note_off_c, 0, 76, 64
2, 9485, Control_c, 0, 64, 127
2, 9560, Note_on_c, 0, 71, 40
2, 9571, Note_off_c, 0, 74, 64
2, 9626, Note_on_c, 0, 33, 85
2, 9634, Note_on_c, 0, 69, 96
2, 9646, Note_off_c, 0, 71, 64
2, 9653, Control_c, 0, 64, 0
2, 9665, Control_c, 0, 64, 127
2, 9819, Note_on_c, 0, 61, 70
2, 9819, Note_on_c, 0, 45, 78
2, 9896, Note_on_c, 0, 52, 76
2, 9904, Note_on_c, 0, 67, 68
2, 9913, Note_off_c, 0, 69, 64
2, 9915, Note_off_c, 0, 33, 64
2, 9919, Note_off_c, 0, 61, 64
2, 9926, Note_off_c, 0, 45, 64
2, 9954, Note_off_c, 0, 67, 64
2, 9975, Note_on_c, 0, 67, 78
2, 9988, Note_on_c, 0, 61, 50
2, 9996, Note_on_c, 0, 57, 78
2, 10003, Note_off_c, 0, 52, 64
2, 10017, Note_on_c, 0, 66, 100
2, 10048, Control_c, 0, 64, 0
2, 10053, Note_off_c, 0, 67, 64
2, 10072, Control_c, 0, 64, 127
2, 10096, Note_on_c, 0, 64, 78
2, 10102, Note_on_c, 0, 55, 62
2, 10118, Note_off_c, 0, 57, 64
2, 10120, Note_off_c, 0, 66, 64
2, 10154, Note_off_c, 0, 61, 64
2, 10192, Note_on_c, 0, 66, 81
2, 10194, Note_on_c, 0, 60, 78
2, 10202, Note_on_c, 0, 57, 76
2, 10204, Note_on_c, 0, 50, 77
2, 10206, Note_off_c, 0, 64, 64
2, 10218, Note_off_c, 0, 55, 64
2, 10218, Control_c, 0, 64, 0
2, 10252, Control_c, 0, 64, 127
2, 10257, Note_off_c, 0, 57, 64
2, 10264, Note_off_c, 0, 50, 64
2, 10276, Note_off_c, 0, 60, 64
2, 10289, Note_on_c, 0, 62, 72
2, 10306, Note_off_c, 0, 66, 64
2, 10376, Note_on_c, 0, 50, 70
2, 10383, Note_on_c, 0, 67, 75
2, 10383, Note_on_c, 0, 43, 65
2, 10387, Note_on_c, 0, 59, 87
2, 10396, Note_off_c, 0, 62, 64
2, 10401, Control_c, 0, 64, 0
2, 10436, Note_off_c, 0, 50, 64
2, 10436, Control_c, 0, 64, 127
2, 10443, Note_off_c, 0, 43, 64
2, 10558, Note_off_c, 0, 59, 64
2, 10564, Note_on_c, 0, 31, 72
2, 10567, Note_on_c, 0, 71, 77
2, 10580, Note_off_c, 0, 67, 64
2, 10727, Note_off_c, 0, 31, 64
2, 10756, Note_on_c, 0, 38, 71
2, 10760, Note_on_c, 0, 69, 72
2, 10783, Control_c, 0, 64, 0
2, 10788, Note_off_c, 0, 71, 64
2, 10806, Control_c, 0, 64, 127
2, 10884, Note_on_c, 0, 72, 62
2, 10904, Note_off_c, 0, 69, 64
2, 10948, Note_on_c, 0, 50, 66
2, 10956, Note_on_c, 0, 76, 75
2, 10956, Note_on_c, 0, 60, 53
2, 10956, Note_on_c, 0, 54, 57
2, 10970, Note_off_c, 0, 72, 64
2, 10995, Note_off_c, 0, 54, 64
2, 11002, Note_off_c, 0, 50, 64
2, 11015, Note_on_c, 0, 78, 70
2, 11019, Note_off_c, 0, 76, 64
2, 11025, Note_off_c, 0, 60, 64
2, 11040, Note_off_c, 0, 38, 64
2, 11077, Note_on_c, 0, 76, 66
2, 11095, Note_off_c, 0, 78, 64
2, 11136, Note_on_c, 0, 60, 62
2, 11138, Note_on_c, 0, 50, 62
2, 11144, Note_on_c, 0, 74, 76
2, 11150, Note_on_c, 0, 54, 45
2, 11159, Note_off_c, 0, 76, 64
2, 11162, Control_c, 0, 64, 0
2, 11171, Note_off_c, 0, 60, 64
2, 11175, Note_off_c, 0, 54, 64
2, 11175, Note_off_c, 0, 50, 64
2, 11196, Control_c, 0, 64, 127
2, 11229, Note_on_c, 0, 72, 63
2, 11252, Note_off_c, 0, 74, 64
2, 11326, Note_on_c, 0, 71, 76
2, 11333, Note_off_c, 0, 72, 64
2, 11333, Note_on_c, 0, 43, 81
2, 11345, Control_c, 0, 64, 0
2, 11349, Control_c, 0, 64, 0
2, 11359, Control_c, 0, 64, 127
2, 11380, Control_c, 0, 64, 127
2, 11470, Note_on_c, 0, 69, 67
2, 11488, Note_off_c, 0, 71, 64
2, 11506, Note_on_c, 0, 59, 52
2, 11517, Note_on_c, 0, 67, 86
2, 11517, Note_on_c, 0, 55, 32
2, 11517, Note_on_c, 0, 50, 33
2, 11547, Note_off_c, 0, 69, 64
2, 11591, Note_off_c, 0, 59, 64
2, 11614, Note_off_c, 0, 43, 64
2, 11645, Note_on_c, 0, 64, 52
2, 11655, Note_off_c, 0, 55, 64
2, 11658, Note_off_c, 0, 67, 64
2, 11666, Note_off_c, 0, 50, 64
2, 11703, Note_on_c, 0, 62, 72
2, 11712, Note_off_c, 0, 64, 64
2, 11727, Control_c, 0, 64, 0
2, 11750, Control_c, 0, 64, 127
2, 11822, Note_on_c, 0, 59, 78
2, 11839, Note_off_c, 0, 62, 64
2, 11864, Note_off_c, 0, 59, 64
2, 11882, Note_on_c, 0, 69, 87
2, 11886, Note_on_c, 0, 33, 91
2, 11896, Control_c, 0, 64, 0
2, 11929, Control_c, 0, 64, 127
2, 12048, Note_on_c, 0, 61, 52
2, 12048, Note_on_c, 0, 45, 76
2, 12056, Note_on_c, 0, 52, 70
2, 12144, Note_on_c, 0, 67, 82
2, 12158, Note_off_c, 0, 61, 64
2, 12168, Note_off_c, 0, 69, 64
2, 12176, Note_off_c, 0, 33, 64
2, 12185, Note_off_c, 0, 45, 64
2, 12192, Note_off_c, 0, 67, 64
2, 12202, Note_off_c, 0, 52, 64
2, 12213, Note_on_c, 0, 67, 90
2, 12240, Note_on_c, 0, 66, 87
2, 12240, Note_on_c, 0, 61, 52
2, 12240, Note_on_c, 0, 57, 78
2, 12265, Control_c, 0, 64, 0
2, 12286, Note_off_c, 0, 67, 64
2, 12291, Control_c, 0, 64, 127
2, 12293, Control_c, 0, 64, 0
2, 12303, Control_c, 0, 64, 127
2, 12328, Note_off_c, 0, 57, 64
2, 12328, Note_on_c, 0, 55, 70
2, 12331, Note_on_c, 0, 64, 46
2, 12341, Note_off_c, 0, 66, 64
2, 12396, Note_off_c, 0, 55, 64
2, 12397, Note_off_c, 0, 61, 64
2, 12426, Note_on_c, 0, 66, 87
2, 12431, Note_on_c, 0, 60, 83
2, 12433, Note_on_c, 0, 57, 78
2, 12438, Note_on_c, 0, 50, 77
2, 12443, Note_off_c, 0, 64, 64
2, 12449, Control_c, 0, 64, 0
2, 12483, Control_c, 0, 64, 127
2, 12491, Note_off_c, 0, 57, 64
2, 12502, Note_off_c, 0, 50, 64
2, 12522, Note_on_c, 0, 62, 81
2, 12530, Note_off_c, 0, 60, 64
2, 12535, Note_off_c, 0, 66, 64
2, 12600, Note_on_c, 0, 43, 75
2, 12604, Note_on_c, 0, 50, 52
2, 12614, Note_on_c, 0, 67, 75
2, 12616, Note_on_c, 0, 59, 85
2, 12628, Note_off_c, 0, 62, 64
2, 12632, Control_c, 0, 64, 0
2, 12672, Control_c, 0, 64, 127
2, 12781, Note_off_c, 0, 43, 64
2, 12784, Note_on_c, 0, 31, 68
2, 12785, Note_off_c, 0, 50, 64
2, 12793, Note_off_c, 0, 59, 64
2, 12796, Note_on_c, 0, 71, 78
2, 12816, Note_off_c, 0, 67, 64
2, 12840, Control_c, 0, 64, 0
2, 12873, Control_c, 0, 64, 127
2, 12981, Note_off_c, 0, 31, 64
2, 12985, Note_on_c, 0, 36, 76
2, 12991, Note_on_c, 0, 72, 72
2, 13007, Control_c, 0, 64, 0
2, 13011, Note_off_c, 0, 71, 64
2, 13043, Control_c, 0, 64, 127
2, 13107, Note_on_c, 0, 76, 70
2, 13119, Note_off_c, 0, 72, 64
2, 13175, Note_on_c, 0, 79, 71
2, 13180, Note_on_c, 0, 60, 56
2, 13188, Note_on_c, 0, 64, 70
2, 13189, Note_on_c, 0, 55, 60
2, 13196, Note_off_c, 0, 76, 64
2, 13201, Control_c, 0, 64, 0
2, 13209, Control_c, 0, 64, 0
2, 13221, Control_c, 0, 64, 127
2, 13227, Note_off_c, 0, 55, 64
2, 13232, Note_off_c, 0, 60, 64
2, 13234, Note_off_c, 0, 64, 64
2, 13235, Control_c, 0, 64, 127
2, 13249, Note_on_c, 0, 81, 72
2, 13268, Note_off_c, 0, 36, 64
2, 13269, Note_off_c, 0, 79, 64
2, 13315, Note_on_c, 0, 79, 70
2, 13339, Note_off_c, 0, 81, 64
2, 13361, Note_on_c, 0, 64, 57
2, 13363, Note_on_c, 0, 78, 77
2, 13363, Note_on_c, 0, 55, 62
2, 13369, Note_on_c, 0, 60, 70
2, 13386, Note_off_c, 0, 64, 64
2, 13392, Note_off_c, 0, 60, 64
2, 13393, Control_c, 0, 64, 0
2, 13399, Note_off_c, 0, 55, 64
2, 13399, Note_off_c, 0, 79, 64
2, 13427, Control_c, 0, 64, 127
2, 13442, Note_on_c, 0, 76, 71
2, 13454, Note_off_c, 0, 78, 64
2, 13534, Note_on_c, 0, 74, 78
2, 13541, Note_off_c, 0, 76, 64
2, 13545, Note_on_c, 0, 43, 71
2, 13551, Control_c, 0, 64, 0
2, 13555, Note_on_c, 0, 83, 78
2, 13576, Control_c, 0, 64, 0
2, 13584, Control_c, 0, 64, 127
2, 13594, Note_off_c, 0, 74, 64
2, 13616, Control_c, 0, 64, 127
2, 13692, Note_on_c, 0, 81, 75
2, 13717, Note_off_c, 0, 83, 64
2, 13720, Note_on_c, 0, 55, 52
2, 13720, Note_on_c, 0, 50, 46
2, 13725, Note_on_c, 0, 59, 40
2, 13734, Note_on_c, 0, 79, 78
2, 13745, Control_c, 0, 64, 0
2, 13761, Note_off_c, 0, 81, 64
2, 13769, Control_c, 0, 64, 127
2, 13835, Note_off_c, 0, 43, 64
2, 13848, Note_on_c, 0, 76, 52
2, 13874, Note_off_c, 0, 79, 64
2, 13906, Note_on_c, 0, 74, 74
2, 13919, Note_off_c, 0, 76, 64
2, 13941, Note_off_c, 0, 55, 64
2, 13948, Note_off_c, 0, 50, 64
2, 13951, Note_off_c, 0, 59, 64
2, 13951, Control_c, 0, 64, 0
2, 13987, Control_c, 0, 64, 127
2, 14032, Note_on_c, 0, 71, 70
2, 14052, Note_off_c, 0, 74, 64
2, 14083, Note_on_c, 0, 33, 81
2, 14095, Note_on_c, 0, 69, 87
2, 14130, Note_off_c, 0, 71, 64
2, 14145, Control_c, 0, 64, 0
2, 14165, Control_c, 0, 64, 127
2, 14259, Note_on_c, 0, 45, 81
2, 14262, Note_on_c, 0, 61, 70
2, 14336, Note_on_c, 0, 52, 70
2, 14342, Note_on_c, 0, 67, 68
2, 14351, Note_off_c, 0, 61, 64
2, 14358, Note_off_c, 0, 69, 64
2, 14373, Note_off_c, 0, 67, 64
2, 14373, Note_off_c, 0, 33, 64
2, 14380, Note_off_c, 0, 45, 64
2, 14408, Note_on_c, 0, 67, 65
2, 14432, Note_on_c, 0, 61, 57
2, 14440, Note_on_c, 0, 57, 83
2, 14448, Note_on_c, 0, 66, 87
2, 14459, Control_c, 0, 64, 0
2, 14462, Note_off_c, 0, 52, 64
2, 14472, Note_off_c, 0, 67, 64
2, 14475, Control_c, 0, 64, 127
2, 14495, Control_c, 0, 64, 0
2, 14511, Note_off_c, 0, 61, 64
2, 14524, Note_on_c, 0, 55, 78
2, 14528, Control_c, 0, 64, 127
2, 14536, Note_on_c, 0, 64, 81
2, 14545, Note_off_c, 0, 57, 64
2, 14556, Note_off_c, 0, 66, 64
2, 14623, Note_on_c, 0, 66, 87
2, 14627, Note_on_c, 0, 60, 85
2, 14631, Note_on_c, 0, 57, 78
2, 14635, Note_on_c, 0, 50, 70
2, 14637, Note_off_c, 0, 64, 64
2, 14646, Note_off_c, 0, 55, 64
2, 14652, Control_c, 0, 64, 0
2, 14675, Control_c, 0, 64, 127
2, 14689, Control_c, 0, 64, 0
2, 14692, Note_off_c, 0, 57, 64
2, 14707, Note_off_c, 0, 60, 64
2, 14710, Note_off_c, 0, 50, 64
2, 14713, Control_c, 0, 64, 127
2, 14718, Note_on_c, 0, 62, 71
2, 14733, Note_off_c, 0, 66, 64
2, 14808, Note_on_c, 0, 43, 60
2, 14810, Note_on_c, 0, 50, 53
2, 14812, Note_on_c, 0, 59, 83
2, 14813, Note_on_c, 0, 67, 78
2, 14824, Control_c, 0, 64, 0
2, 14836, Note_off_c, 0, 62, 64
2, 14874, Control_c, 0, 64, 127
2, 14993, Note_off_c, 0, 43, 64
2, 14995, Note_off_c, 0, 50, 64
2, 15000, Note_on_c, 0, 31, 78
2, 15002, Note_on_c, 0, 71, 81
2, 15009, Note_off_c, 0, 59, 64
2, 15019, Note_off_c, 0, 67, 64
2, 15131, Note_off_c, 0, 31, 64
2, 15192, Note_on_c, 0, 38, 76
2, 15192, Note_on_c, 0, 69, 78
2, 15209, Control_c, 0, 64, 0
2, 15212, Note_off_c, 0, 71, 64
2, 15244, Control_c, 0, 64, 127
2, 15320, Note_on_c, 0, 72, 68
2, 15338, Note_off_c, 0, 69, 64
2, 15379, Note_on_c, 0, 50, 70
2, 15388, Note_on_c, 0, 76, 68
2, 15388, Note_on_c, 0, 60, 66
2, 15394, Note_on_c, 0, 54, 60
2, 15403, Control_c, 0, 64, 0
2, 15404, Note_off_c, 0, 72, 64
2, 15419, Control_c, 0, 64, 127
2, 15427, Note_off_c, 0, 54, 64
2, 15431, Note_off_c, 0, 50, 64
2, 15443, Note_off_c, 0, 60, 64
2, 15447, Note_on_c, 0, 78, 70
2, 15453, Note_off_c, 0, 76, 64
2, 15468, Note_off_c, 0, 38, 64
2, 15507, Note_on_c, 0, 76, 62
2, 15517, Note_off_c, 0, 78, 64
2, 15568, Note_on_c, 0, 60, 57
2, 15568, Note_on_c, 0, 50, 57
2, 15574, Note_on_c, 0, 54, 63
2, 15577, Note_on_c, 0, 74, 76
2, 15596, Control_c, 0, 64, 0
2, 15598, Note_off_c, 0, 60, 64
2, 15600, Note_off_c, 0, 76, 64
2, 15603, Note_off_c, 0, 54, 64
2, 15611, Note_off_c, 0, 50, 64
2, 15619, Control_c, 0, 64, 127
2, 15657, Note_on_c, 0, 72, 68
2, 15685, Note_off_c, 0, 74, 64
2, 15760, Note_on_c, 0, 43, 71
2, 15764, Note_on_c, 0, 71, 78
2, 15768, Control_c, 0, 64, 0
2, 15775, Control_c, 0, 64, 0
2, 15781, Note_off_c, 0, 72, 64
2, 15796, Control_c, 0, 64, 127
2, 15818, Control_c, 0, 64, 127
2, 15894, Note_on_c, 0, 69, 66
2, 15922, Note_off_c, 0, 71, 64
2, 15931, Note_on_c, 0, 59, 57
2, 15934, Note_on_c, 0, 55, 51
2, 15942, Note_on_c, 0, 67, 75
2, 15944, Note_on_c, 0, 50, 32
2, 15967, Note_off_c, 0, 69, 64
2, 16047, Note_off_c, 0, 43, 64
2, 16052, Note_off_c, 0, 59, 64
2, 16058, Note_on_c, 0, 64, 54
2, 16072, Note_off_c, 0, 67, 64
2, 16073, Note_off_c, 0, 55, 64
2, 16084, Note_off_c, 0, 50, 64
2, 16111, Note_on_c, 0, 62, 83
2, 16130, Note_off_c, 0, 64, 64
2, 16153, Control_c, 0, 64, 0
2, 16188, Control_c, 0, 64, 127
2, 16235, Note_on_c, 0, 59, 78
2, 16256, Note_off_c, 0, 62, 64
2, 16280, Note_on_c, 0, 43, 96
2, 16284, Note_on_c, 0, 55, 90
2, 16291, Note_on_c, 0, 31, 85
2, 16292, Control_c, 0, 64, 0
2, 16303, Note_off_c, 0, 59, 64
2, 16325, Control_c, 0, 64, 127
2, 16431, Note_off_c, 0, 55, 64
2, 16504, Note_on_c, 0, 71, 96
2, 16504, Note_on_c, 0, 67, 96
2, 16504, Note_on_c, 0, 62, 90
2, 16508, Note_on_c, 0, 79, 96
2, 16508, Note_on_c, 0, 74, 96
2, 16508, Note_on_c, 0, 65, 90
2, 16508, Note_on_c, 0, 55, 96
2, 16583, Control_c, 0, 64, 0
2, 16655, Control_c, 0, 64, 127
2, 16719, Control_c, 0, 64, 0
2, 16740, Control_c, 0, 64, 127
2, 16848, Note_off_c, 0, 43, 64
2, 16856, Note_off_c, 0, 74, 64
2, 16856, Note_off_c, 0, 71, 64
2, 16860, Note_off_c, 0, 31, 64
2, 16875, Note_off_c, 0, 62, 64
2, 16879, Note_off_c, 0, 67, 64
2, 16892, Note_off_c, 0, 65, 64
2, 16899, Note_on_c, 0, 76, 52
2, 16916, Note_off_c, 0, 55, 64
2, 16921, Note_off_c, 0, 79, 64
2, 16935, Note_on_c, 0, 77, 62
2, 16942, Note_off_c, 0, 76, 64
2, 16961, Note_on_c, 0, 48, 62
2, 16965, Note_on_c, 0, 67, 53
2, 16968, Note_on_c, 0, 76, 62
2, 16984, Control_c, 0, 64, 0
2, 16996, Note_off_c, 0, 77, 64
2, 17013, Control_c, 0, 64, 127
2, 17080, Note_on_c, 0, 66, 56
2, 17082, Note_on_c, 0, 75, 62
2, 17091, Note_off_c, 0, 67, 64
2, 17102, Note_off_c, 0, 76, 64
2, 17144, Note_on_c, 0, 76, 66
2, 17144, Note_on_c, 0, 64, 57
2, 17144, Note_on_c, 0, 60, 52
2, 17144, Note_on_c, 0, 55, 56
2, 17151, Note_on_c, 0, 67, 66
2, 17155, Note_off_c, 0, 66, 64
2, 17157, Note_off_c, 0, 75, 64
2, 17161, Control_c, 0, 64, 0
2, 17182, Control_c, 0, 64, 127
2, 17194, Note_off_c, 0, 55, 64
2, 17195, Note_off_c, 0, 64, 64
2, 17198, Note_off_c, 0, 60, 64
2, 17236, Control_c, 0, 64, 0
2, 17244, Note_off_c, 0, 48, 64
2, 17269, Control_c, 0, 64, 127
2, 17338, Note_on_c, 0, 55, 56
2, 17341, Note_on_c, 0, 77, 62
2, 17342, Note_on_c, 0, 64, 56
2, 17346, Note_on_c, 0, 69, 57
2, 17350, Note_on_c, 0, 60, 52
2, 17364, Note_off_c, 0, 60, 64
2, 17366, Note_off_c, 0, 67, 64
2, 17368, Note_off_c, 0, 64, 64
2, 17370, Note_off_c, 0, 76, 64
2, 17374, Note_off_c, 0, 55, 64
2, 17489, Note_off_c, 0, 77, 64
2, 17492, Note_on_c, 0, 74, 41
2, 17494, Note_off_c, 0, 69, 64
2, 17512, Note_on_c, 0, 76, 62
2, 17527, Control_c, 0, 64, 0
2, 17528, Note_off_c, 0, 74, 64
2, 17537, Note_on_c, 0, 43, 56
2, 17544, Note_on_c, 0, 74, 60
2, 17548, Note_on_c, 0, 65, 57
2, 17559, Control_c, 0, 64, 0
2, 17574, Control_c, 0, 64, 127
2, 17580, Note_off_c, 0, 76, 64
2, 17599, Control_c, 0, 64, 127
2, 17663, Note_on_c, 0, 73, 62
2, 17664, Note_on_c, 0, 64, 56
2, 17679, Note_off_c, 0, 74, 64
2, 17683, Note_off_c, 0, 65, 64
2, 17728, Note_on_c, 0, 65, 66
2, 17731, Note_on_c, 0, 74, 62
2, 17740, Note_off_c, 0, 73, 64
2, 17741, Note_off_c, 0, 64, 64
2, 17743, Note_on_c, 0, 59, 58
2, 17743, Note_on_c, 0, 55, 60
2, 17743, Note_on_c, 0, 50, 60
2, 17757, Control_c, 0, 64, 0
2, 17778, Note_off_c, 0, 59, 64
2, 17780, Note_off_c, 0, 55, 64
2, 17784, Note_off_c, 0, 50, 64
2, 17786, Control_c, 0, 64, 127
2, 17821, Note_off_c, 0, 43, 64
2, 17917, Note_on_c, 0, 76, 66
2, 17920, Note_on_c, 0, 67, 32
2, 17924, Note_on_c, 0, 59, 60
2, 17924, Note_on_c, 0, 55, 52
2, 17924, Note_on_c, 0, 50, 53
2, 17928, Note_off_c, 0, 65, 64
2, 17928, Control_c, 0, 64, 0
2, 17933, Note_off_c, 0, 74, 64
2, 17957, Control_c, 0, 64, 127
2, 17966, Note_off_c, 0, 55, 64
2, 17972, Note_off_c, 0, 50, 64
2, 17986, Note_off_c, 0, 59, 64
2, 18057, Note_on_c, 0, 72, 52
2, 18064, Note_off_c, 0, 67, 64
2, 18072, Note_off_c, 0, 76, 64
2, 18088, Note_on_c, 0, 74, 52
2, 18098, Note_off_c, 0, 72, 64
2, 18105, Control_c, 0, 64, 0
2, 18111, Note_on_c, 0, 48, 62
2, 18112, Note_on_c, 0, 72, 62
2, 18112, Note_on_c, 0, 64, 62
2, 18126, Control_c, 0, 64, 127
2, 18138, Control_c, 0, 64, 0
2, 18153, Note_off_c, 0, 74, 64
2, 18166, Control_c, 0, 64, 127
2, 18232, Note_on_c, 0, 63, 41
2, 18232, Note_on_c, 0, 71, 51
2, 18252, Note_off_c, 0, 64, 64
2, 18254, Note_off_c, 0, 72, 64
2, 18296, Note_on_c, 0, 64, 53
2, 18300, Note_on_c, 0, 72, 66
2, 18304, Note_on_c, 0, 60, 60
2, 18307, Note_on_c, 0, 55, 62
2, 18311, Note_off_c, 0, 71, 64
2, 18311, Note_off_c, 0, 63, 64
2, 18346, Note_off_c, 0, 48, 64
2, 18362, Note_off_c, 0, 60, 64
2, 18366, Note_off_c, 0, 55, 64
2, 18488, Note_on_c, 0, 62, 56
2, 18489, Note_on_c, 0, 69, 62
2, 18489, Note_on_c, 0, 60, 56
2, 18491, Note_on_c, 0, 54, 63
2, 18500, Note_off_c, 0, 64, 64
2, 18503, Control_c, 0, 64, 0
2, 18505, Note_off_c, 0, 72, 64
2, 18518, Control_c, 0, 64, 127
2, 18521, Note_off_c, 0, 60, 64
2, 18529, Note_off_c, 0, 54, 64
2, 18680, Note_off_c, 0, 62, 64
2, 18688, Note_on_c, 0, 59, 96
2, 18688, Note_on_c, 0, 67, 90
2, 18690, Note_on_c, 0, 65, 91
2, 18690, Note_on_c, 0, 62, 96
2, 18692, Note_on_c, 0, 55, 96
2, 18696, Note_on_c, 0, 43, 91
2, 18701, Control_c, 0, 64, 0
2, 18714, Control_c, 0, 64, 0
2, 18715, Note_off_c, 0, 69, 64
2, 18725, Note_off_c, 0, 59, 64
2, 18729, Control_c, 0, 64, 127
2, 18730, Control_c, 0, 64, 127
2, 18735, Note_off_c, 0, 62, 64
2, 18743, Note_off_c, 0, 55, 64
2, 18880, Note_off_c, 0, 67, 64
2, 18893, Note_off_c, 0, 65, 64
2, 18909, Note_on_c, 0, 79, 90
2, 18912, Note_on_c, 0, 71, 90
2, 18916, Note_on_c, 0, 65, 90
2, 18918, Note_on_c, 0, 67, 90
2, 18918, Note_on_c, 0, 55, 90
2, 18920, Note_on_c, 0, 62, 83
2, 18942, Control_c, 0, 64, 0
2, 18985, Control_c, 0, 64, 127
2, 19082, Control_c, 0, 64, 0
2, 19110, Control_c, 0, 64, 127
2, 19222, Note_off_c, 0, 43, 64
2, 19281, Note_off_c, 0, 79, 64
2, 19284, Note_off_c, 0, 71, 64
2, 19288, Note_off_c, 0, 65, 64
2, 19290, Note_off_c, 0, 55, 64
2, 19290, Note_off_c, 0, 67, 64
2, 19292, Note_off_c, 0, 62, 64
2, 19315, Note_on_c, 0, 77, 32
2, 19328, Note_on_c, 0, 72, 46
2, 19328, Note_on_c, 0, 67, 50
2, 19333, Note_on_c, 0, 76, 62
2, 19334, Note_on_c, 0, 64, 56
2, 19340, Note_on_c, 0, 60, 56
2, 19352, Note_off_c, 0, 77, 64
2, 19354, Control_c, 0, 64, 0
2, 19367, Control_c, 0, 64, 127
2, 19389, Note_off_c, 0, 67, 64
2, 19389, Note_off_c, 0, 72, 64
2, 19395, Note_off_c, 0, 64, 64
2, 19401, Note_off_c, 0, 60, 64
2, 19416, Note_on_c, 0, 75, 65
2, 19431, Note_off_c, 0, 76, 64
2, 19504, Note_on_c, 0, 72, 26
2, 19506, Note_on_c, 0, 76, 58
2, 19511, Note_on_c, 0, 67, 52
2, 19517, Note_on_c, 0, 60, 51
2, 19518, Note_off_c, 0, 75, 64
2, 19518, Note_on_c, 0, 64, 51
2, 19565, Note_off_c, 0, 72, 64
2, 19572, Note_off_c, 0, 67, 64
2, 19578, Note_off_c, 0, 60, 64
2, 19579, Note_off_c, 0, 64, 64
2, 19658, Control_c, 0, 64, 0
2, 19673, Control_c, 0, 64, 127
2, 19706, Note_on_c, 0, 77, 58
2, 19712, Note_on_c, 0, 72, 46
2, 19712, Note_on_c, 0, 69, 51
2, 19715, Note_on_c, 0, 65, 51
2, 19715, Note_on_c, 0, 53, 51
2, 19722, Note_on_c, 0, 60, 51
2, 19726, Note_off_c, 0, 76, 64
2, 19734, Control_c, 0, 64, 0
2, 19748, Control_c, 0, 64, 127
2, 19774, Note_off_c, 0, 69, 64
2, 19777, Note_off_c, 0, 53, 64
2, 19777, Note_off_c, 0, 65, 64
2, 19784, Note_off_c, 0, 60, 64
2, 19790, Note_off_c, 0, 72, 64
2, 19872, Note_on_c, 0, 76, 51
2, 19886, Control_c, 0, 64, 0
2, 19888, Note_on_c, 0, 69, 41
2, 19893, Note_off_c, 0, 77, 64
2, 19893, Note_on_c, 0, 65, 46
2, 19897, Note_on_c, 0, 59, 51
2, 19901, Note_on_c, 0, 74, 56
2, 19918, Control_c, 0, 64, 0
2, 19929, Control_c, 0, 64, 127
2, 19933, Control_c, 0, 64, 127
2, 19936, Note_off_c, 0, 76, 64
2, 19950, Note_off_c, 0, 69, 64
2, 19955, Note_off_c, 0, 65, 64
2, 19959, Note_off_c, 0, 59, 64
2, 19989, Note_on_c, 0, 73, 62
2, 19998, Note_off_c, 0, 74, 64
2, 20077, Note_on_c, 0, 74, 62
2, 20081, Note_on_c, 0, 65, 50
2, 20084, Note_on_c, 0, 59, 56
2, 20090, Note_off_c, 0, 73, 64
2, 20096, Note_on_c, 0, 69, 43
2, 20143, Note_off_c, 0, 65, 64
2, 20146, Note_off_c, 0, 59, 64
2, 20158, Note_off_c, 0, 69, 64
2, 20264, Note_on_c, 0, 76, 56
2, 20265, Note_on_c, 0, 52, 51
2, 20270, Note_on_c, 0, 68, 62
2, 20275, Note_on_c, 0, 64, 46
2, 20275, Note_on_c, 0, 59, 50
2, 20286, Note_off_c, 0, 74, 64
2, 20286, Control_c, 0, 64, 0
2, 20298, Control_c, 0, 64, 0
2, 20311, Control_c, 0, 64, 127
2, 20311, Control_c, 0, 64, 127
2, 20327, Note_off_c, 0, 52, 64
2, 20332, Note_off_c, 0, 68, 64
2, 20337, Note_off_c, 0, 59, 64
2, 20337, Note_off_c, 0, 64, 64
2, 20424, Note_on_c, 0, 74, 57
2, 20440, Note_on_c, 0, 72, 56
2, 20443, Note_off_c, 0, 76, 64
2, 20448, Note_on_c, 0, 67, 51
2, 20448, Note_on_c, 0, 64, 51
2, 20463, Note_on_c, 0, 57, 51
2, 20464, Note_off_c, 0, 74, 64
2, 20476, Control_c, 0, 64, 0
2, 20488, Control_c, 0, 64, 127
2, 20510, Note_off_c, 0, 64, 64
2, 20510, Note_off_c, 0, 67, 64
2, 20525, Note_off_c, 0, 57, 64
2, 20550, Note_on_c, 0, 71, 58
2, 20577, Note_off_c, 0, 72, 64
2, 20634, Note_on_c, 0, 72, 58
2, 20644, Note_on_c, 0, 64, 52
2, 20645, Note_on_c, 0, 57, 56
2, 20648, Note_off_c, 0, 71, 64
2, 20648, Note_on_c, 0, 67, 50
2, 20678, Control_c, 0, 64, 0
2, 20692, Control_c, 0, 64, 127
2, 20706, Note_off_c, 0, 64, 64
2, 20707, Note_off_c, 0, 57, 64
2, 20731, Note_off_c, 0, 67, 64
2, 20825, Note_on_c, 0, 69, 60
2, 20831, Note_on_c, 0, 66, 63
2, 20835, Note_on_c, 0, 50, 57
2, 20844, Note_on_c, 0, 57, 51
2, 20861, Note_off_c, 0, 72, 64
2, 20862, Control_c, 0, 64, 0
2, 20876, Note_off_c, 0, 50, 64
2, 20877, Control_c, 0, 64, 127
2, 20878, Note_off_c, 0, 57, 64
2, 21020, Note_on_c, 0, 67, 72
2, 21020, Note_on_c, 0, 55, 77
2, 21023, Note_on_c, 0, 65, 72
2, 21023, Note_on_c, 0, 62, 72
2, 21023, Note_on_c, 0, 59, 71
2, 21030, Note_on_c, 0, 43, 78
2, 21043, Note_off_c, 0, 69, 64
2, 21045, Control_c, 0, 64, 0
2, 21049, Note_off_c, 0, 66, 64
2, 21064, Control_c, 0, 64, 127
2, 21128, Note_off_c, 0, 59, 64
2, 21160, Note_off_c, 0, 62, 64
2, 21190, Note_off_c, 0, 67, 64
2, 21212, Note_off_c, 0, 55, 64
2, 21212, Note_off_c, 0, 65, 64
2, 21230, Control_c, 0, 64, 0
2, 21232, Note_on_c, 0, 71, 72
2, 21234, Note_on_c, 0, 79, 72
2, 21236, Note_on_c, 0, 65, 71
2, 21236, Note_on_c, 0, 62, 72
2, 21239, Note_on_c, 0, 67, 72
2, 21239, Note_on_c, 0, 55, 72
2, 21255, Control_c, 0, 64, 127
2, 21261, Control_c, 0, 64, 0
2, 21293, Control_c, 0, 64, 127
2, 21420, Control_c, 0, 64, 0
2, 21432, Control_c, 0, 64, 127
2, 21549, Note_off_c, 0, 71, 64
2, 21551, Note_off_c, 0, 79, 64
2, 21553, Note_off_c, 0, 62, 64
2, 21553, Note_off_c, 0, 65, 64
2, 21556, Note_off_c, 0, 55, 64
2, 21556, Note_off_c, 0, 67, 64
2, 21556, Note_on_c, 0, 76, 45
2, 21578, Note_off_c, 0, 43, 64
2, 21580, Note_on_c, 0, 77, 87
2, 21590, Note_off_c, 0, 76, 64
2, 21608, Note_on_c, 0, 76, 72
2, 21612, Note_on_c, 0, 67, 66
2, 21615, Note_off_c, 0, 77, 64
2, 21617, Note_on_c, 0, 48, 66
2, 21626, Note_on_c, 0, 54, 70
2, 21668, Note_on_c, 0, 55, 62
2, 21698, Note_off_c, 0, 54, 64
2, 21715, Note_off_c, 0, 55, 64
2, 21744, Note_on_c, 0, 75, 52
2, 21744, Note_on_c, 0, 66, 68
2, 21767, Note_off_c, 0, 76, 64
2, 21771, Note_off_c, 0, 67, 64
2, 21805, Note_on_c, 0, 54, 52
2, 21820, Note_on_c, 0, 76, 78
2, 21823, Note_on_c, 0, 67, 85
2, 21823, Note_on_c, 0, 55, 77
2, 21831, Note_off_c, 0, 66, 64
2, 21831, Note_off_c, 0, 75, 64
2, 21852, Note_off_c, 0, 54, 64
2, 21859, Control_c, 0, 64, 0
2, 21882, Control_c, 0, 64, 127
2, 21989, Control_c, 0, 64, 0
2, 21995, Note_off_c, 0, 55, 64
2, 22006, Note_on_c, 0, 77, 78
2, 22006, Note_on_c, 0, 69, 76
2, 22008, Control_c, 0, 64, 127
2, 22037, Note_off_c, 0, 76, 64
2, 22040, Note_off_c, 0, 67, 64
2, 22151, Note_off_c, 0, 69, 64
2, 22153, Note_off_c, 0, 48, 64
2, 22155, Note_on_c, 0, 74, 63
2, 22158, Note_off_c, 0, 77, 64
2, 22165, Note_on_c, 0, 54, 70
2, 22169, Note_on_c, 0, 48, 60
2, 22176, Note_on_c, 0, 76, 66
2, 22183, Note_off_c, 0, 74, 64
2, 22192, Note_on_c, 0, 55, 63
2, 22204, Note_on_c, 0, 65, 78
2, 22205, Control_c, 0, 64, 0
2, 22211, Note_on_c, 0, 74, 83
2, 22222, Note_off_c, 0, 54, 64
2, 22237, Control_c, 0, 64, 127
2, 22245, Note_off_c, 0, 76, 64
2, 22254, Note_off_c, 0, 55, 64
2, 22328, Note_on_c, 0, 64, 66
2, 22329, Note_on_c, 0, 73, 70
2, 22339, Note_off_c, 0, 65, 64
2, 22346, Note_off_c, 0, 74, 64
2, 22360, Note_on_c, 0, 54, 62
2, 22376, Note_on_c, 0, 65, 83
2, 22376, Note_on_c, 0, 74, 85
2, 22389, Note_on_c, 0, 55, 78
2, 22394, Note_off_c, 0, 64, 64
2, 22395, Note_off_c, 0, 73, 64
2, 22413, Note_off_c, 0, 54, 64
2, 22415, Control_c, 0, 64, 0
2, 22443, Control_c, 0, 64, 127
2, 22572, Note_on_c, 0, 67, 72
2, 22572, Note_on_c, 0, 76, 78
2, 22606, Note_off_c, 0, 65, 64
2, 22609, Note_off_c, 0, 74, 64
2, 22624, Note_off_c, 0, 55, 64
2, 22681, Note_off_c, 0, 67, 64
2, 22690, Note_on_c, 0, 72, 62
2, 22691, Note_off_c, 0, 76, 64
2, 22709, Note_off_c, 0, 48, 64
2, 22724, Note_on_c, 0, 48, 62
2, 22724, Note_on_c, 0, 74, 78
2, 22731, Note_off_c, 0, 72, 64
2, 22731, Note_on_c, 0, 54, 50
2, 22752, Note_on_c, 0, 72, 83
2, 22752, Note_on_c, 0, 64, 78
2, 22756, Note_on_c, 0, 55, 66
2, 22782, Note_off_c, 0, 54, 64
2, 22782, Note_off_c, 0, 74, 64
2, 22784, Control_c, 0, 64, 0
2, 22803, Control_c, 0, 64, 0
2, 22803, Control_c, 0, 64, 127
2, 22826, Control_c, 0, 64, 127
2, 22858, Note_off_c, 0, 55, 64
2, 22872, Note_on_c, 0, 63, 74
2, 22875, Note_on_c, 0, 71, 61
2, 22881, Note_off_c, 0, 64, 64
2, 22881, Note_off_c, 0, 72, 64
2, 22928, Note_on_c, 0, 64, 85
2, 22928, Note_on_c, 0, 72, 83
2, 22932, Note_on_c, 0, 54, 52
2, 22939, Note_off_c, 0, 63, 64
2, 22942, Note_off_c, 0, 71, 64
2, 22948, Note_on_c, 0, 55, 83
2, 22964, Note_off_c, 0, 54, 64
2, 23132, Note_on_c, 0, 69, 78
2, 23137, Note_on_c, 0, 60, 77
2, 23158, Note_off_c, 0, 64, 64
2, 23161, Note_off_c, 0, 72, 64
2, 23190, Note_off_c, 0, 55, 64
2, 23307, Note_off_c, 0, 48, 64
2, 23320, Note_on_c, 0, 67, 72
2, 23320, Note_on_c, 0, 65, 72
2, 23320, Note_on_c, 0, 43, 100
2, 23325, Note_on_c, 0, 59, 81
2, 23325, Note_on_c, 0, 55, 77
2, 23328, Note_off_c, 0, 69, 64
2, 23330, Note_off_c, 0, 60, 64
2, 23345, Control_c, 0, 64, 0
2, 23359, Control_c, 0, 64, 0
2, 23366, Control_c, 0, 64, 127
2, 23387, Control_c, 0, 64, 127
2, 23462, Note_off_c, 0, 55, 64
2, 23469, Note_off_c, 0, 59, 64
2, 23499, Note_off_c, 0, 43, 64
2, 23499, Note_off_c, 0, 65, 64
2, 23499, Note_off_c, 0, 67, 64
2, 23523, Note_on_c, 0, 79, 72
2, 23527, Note_on_c, 0, 74, 72
2, 23527, Note_on_c, 0, 71, 77
2, 23527, Note_on_c, 0, 67, 72
2, 23533, Note_on_c, 0, 55, 78
2, 23538, Note_on_c, 0, 65, 78
2, 23538, Note_on_c, 0, 62, 81
2, 23577, Control_c, 0, 64, 0
2, 23599, Control_c, 0, 64, 127
2, 23728, Control_c, 0, 64, 0
2, 23747, Control_c, 0, 64, 127
2, 23802, Note_off_c, 0, 79, 64
2, 23806, Note_off_c, 0, 67, 64
2, 23806, Note_off_c, 0, 71, 64
2, 23806, Note_off_c, 0, 74, 64
2, 23812, Note_off_c, 0, 55, 64
2, 23817, Note_off_c, 0, 62, 64
2, 23817, Note_off_c, 0, 65, 64
2, 23916, Note_on_c, 0, 76, 71
2, 23952, Note_on_c, 0, 77, 87
2, 23965, Note_off_c, 0, 76, 64
2, 23988, Note_on_c, 0, 48, 58
2, 23991, Note_on_c, 0, 76, 86
2, 23992, Note_on_c, 0, 70, 59
2, 23992, Note_on_c, 0, 67, 59
2, 23992, Note_on_c, 0, 60, 57
2, 24001, Note_off_c, 0, 77, 64
2, 24061, Note_off_c, 0, 67, 64
2, 24067, Note_off_c, 0, 70, 64
2, 24096, Note_on_c, 0, 74, 78
2, 24102, Note_off_c, 0, 76, 64
2, 24130, Note_off_c, 0, 60, 64
2, 24133, Note_off_c, 0, 48, 64
2, 24172, Note_on_c, 0, 60, 49
2, 24173, Note_on_c, 0, 76, 72
2, 24173, Note_on_c, 0, 67, 59
2, 24176, Note_on_c, 0, 48, 49
2, 24176, Note_on_c, 0, 70, 75
2, 24217, Note_off_c, 0, 67, 64
2, 24217, Note_off_c, 0, 74, 64
2, 24239, Note_off_c, 0, 70, 64
2, 24280, Note_off_c, 0, 60, 64
2, 24289, Control_c, 0, 64, 0
2, 24310, Control_c, 0, 64, 127
2, 24323, Note_off_c, 0, 48, 64
2, 24361, Note_on_c, 0, 60, 58
2, 24364, Note_on_c, 0, 65, 71
2, 24365, Note_on_c, 0, 69, 65
2, 24366, Note_on_c, 0, 77, 71
2, 24366, Note_on_c, 0, 53, 60
2, 24371, Note_off_c, 0, 76, 64
2, 24391, Control_c, 0, 64, 0
2, 24414, Note_off_c, 0, 65, 64
2, 24416, Control_c, 0, 64, 127
2, 24440, Note_off_c, 0, 69, 64
2, 24472, Note_off_c, 0, 60, 64
2, 24492, Note_off_c, 0, 53, 64
2, 24499, Note_off_c, 0, 77, 64
2, 24501, Note_on_c, 0, 74, 69
2, 24521, Control_c, 0, 64, 0
2, 24539, Note_on_c, 0, 76, 72
2, 24543, Control_c, 0, 64, 127
2, 24553, Note_off_c, 0, 74, 64
2, 24560, Note_on_c, 0, 60, 60
2, 24564, Note_on_c, 0, 68, 74
2, 24564, Note_on_c, 0, 65, 59
2, 24566, Note_on_c, 0, 74, 81
2, 24566, Note_on_c, 0, 53, 36
2, 24590, Note_off_c, 0, 76, 64
2, 24624, Note_off_c, 0, 68, 64
2, 24636, Note_off_c, 0, 60, 64
2, 24639, Note_off_c, 0, 65, 64
2, 24647, Note_on_c, 0, 73, 88
2, 24672, Note_off_c, 0, 74, 64
2, 24725, Note_off_c, 0, 53, 64
2, 24738, Note_on_c, 0, 74, 82
2, 24744, Note_on_c, 0, 65, 74
2, 24748, Note_on_c, 0, 68, 74
2, 24750, Note_off_c, 0, 73, 64
2, 24751, Note_on_c, 0, 60, 72
2, 24755, Note_on_c, 0, 53, 72
2, 24797, Note_off_c, 0, 65, 64
2, 24814, Note_off_c, 0, 60, 64
2, 24817, Note_off_c, 0, 68, 64
2, 24915, Note_off_c, 0, 53, 64
2, 24937, Note_on_c, 0, 65, 71
2, 24940, Note_on_c, 0, 67, 74
2, 24941, Note_on_c, 0, 76, 81
2, 24941, Note_on_c, 0, 59, 69
2, 24941, Note_on_c, 0, 55, 64
2, 24959, Note_off_c, 0, 74, 64
2, 24988, Note_off_c, 0, 67, 64
2, 24990, Note_off_c, 0, 65, 64
2, 25027, Note_off_c, 0, 55, 64
2, 25027, Note_off_c, 0, 59, 64
2, 25074, Note_on_c, 0, 72, 64
2, 25084, Note_off_c, 0, 76, 64
2, 25102, Note_on_c, 0, 74, 81
2, 25111, Note_off_c, 0, 72, 64
2, 25132, Note_on_c, 0, 48, 58
2, 25132, Note_on_c, 0, 55, 58
2, 25132, Note_on_c, 0, 64, 64
2, 25136, Note_on_c, 0, 60, 60
2, 25136, Note_on_c, 0, 67, 49
2, 25138, Note_on_c, 0, 72, 86
2, 25161, Note_off_c, 0, 74, 64
2, 25213, Note_off_c, 0, 48, 64
2, 25223, Note_off_c, 0, 55, 64
2, 25223, Note_on_c, 0, 71, 81
2, 25227, Note_off_c, 0, 72, 64
2, 25253, Note_off_c, 0, 64, 64
2, 25257, Note_off_c, 0, 67, 64
2, 25257, Note_off_c, 0, 60, 64
2, 25320, Note_on_c, 0, 69, 28
2, 25320, Note_on_c, 0, 60, 60
2, 25323, Note_on_c, 0, 72, 81
2, 25324, Note_on_c, 0, 57, 60
2, 25325, Note_on_c, 0, 64, 74
2, 25335, Control_c, 0, 64, 0
2, 25337, Note_off_c, 0, 71, 64
2, 25353, Control_c, 0, 64, 0
2, 25360, Control_c, 0, 64, 127
2, 25370, Control_c, 0, 64, 127
2, 25511, Note_off_c, 0, 57, 64
2, 25538, Note_on_c, 0, 62, 64
2, 25540, Note_on_c, 0, 50, 71
2, 25540, Note_on_c, 0, 66, 64
2, 25541, Note_off_c, 0, 60, 64
2, 25541, Note_off_c, 0, 69, 64
2, 25543, Note_on_c, 0, 74, 81
2, 25544, Note_off_c, 0, 72, 64
2, 25544, Note_on_c, 0, 60, 54
2, 25546, Note_off_c, 0, 64, 64
2, 25546, Note_on_c, 0, 57, 64
2, 25568, Control_c, 0, 64, 0
2, 25604, Control_c, 0, 64, 127
2, 25778, Note_off_c, 0, 62, 64
2, 25778, Note_on_c, 0, 31, 83
2, 25780, Note_off_c, 0, 66, 64
2, 25780, Note_off_c, 0, 50, 64
2, 25783, Note_off_c, 0, 74, 64
2, 25784, Note_off_c, 0, 60, 64
2, 25785, Note_on_c, 0, 62, 87
2, 25786, Note_off_c, 0, 57, 64
2, 25786, Note_on_c, 0, 43, 78
2, 25799, Control_c, 0, 64, 0
2, 25833, Control_c, 0, 64, 127
2, 25968, Note_on_c, 0, 71, 65
2, 25978, Note_off_c, 0, 62, 64
2, 26004, Note_off_c, 0, 71, 64
2, 26009, Note_on_c, 0, 72, 57
2, 26027, Note_on_c, 0, 62, 51
2, 26032, Note_on_c, 0, 67, 58
2, 26032, Note_on_c, 0, 55, 47
2, 26040, Note_on_c, 0, 71, 62
2, 26072, Note_off_c, 0, 67, 64
2, 26079, Note_off_c, 0, 55, 64
2, 26080, Note_off_c, 0, 72, 64
2, 26095, Note_off_c, 0, 62, 64
2, 26116, Note_on_c, 0, 66, 60
2, 26120, Note_on_c, 0, 69, 63
2, 26133, Note_off_c, 0, 71, 64
2, 26192, Note_on_c, 0, 67, 70
2, 26192, Note_on_c, 0, 71, 70
2, 26198, Note_off_c, 0, 66, 64
2, 26201, Note_off_c, 0, 69, 64
2, 26202, Note_on_c, 0, 55, 57
2, 26207, Note_on_c, 0, 62, 60
2, 26249, Note_off_c, 0, 55, 64
2, 26252, Note_off_c, 0, 62, 64
2, 26280, Note_on_c, 0, 69, 58
2, 26283, Note_on_c, 0, 72, 65
2, 26292, Note_off_c, 0, 71, 64
2, 26292, Note_off_c, 0, 67, 64
2, 26297, Control_c, 0, 64, 0
2, 26314, Control_c, 0, 64, 127
2, 26328, Note_on_c, 0, 74, 72
2, 26342, Note_off_c, 0, 69, 64
2, 26345, Note_off_c, 0, 72, 64
2, 26352, Note_on_c, 0, 76, 57
2, 26362, Note_off_c, 0, 74, 64
2, 26376, Note_on_c, 0, 71, 71
2, 26376, Note_on_c, 0, 74, 62
2, 26387, Note_on_c, 0, 62, 60
2, 26387, Note_on_c, 0, 55, 58
2, 26414, Note_off_c, 0, 76, 64
2, 26449, Note_off_c, 0, 62, 64
2, 26452, Note_off_c, 0, 55, 64
2, 26464, Note_on_c, 0, 70, 70
2, 26468, Note_on_c, 0, 73, 77
2, 26482, Note_off_c, 0, 74, 64
2, 26482, Note_off_c, 0, 71, 64
2, 26512, Control_c, 0, 64, 0
2, 26548, Control_c, 0, 64, 127
2, 26568, Note_on_c, 0, 71, 81
2, 26570, Note_on_c, 0, 62, 71
2, 26574, Note_on_c, 0, 74, 87
2, 26574, Note_on_c, 0, 55, 65
2, 26576, Note_off_c, 0, 70, 64
2, 26585, Note_off_c, 0, 73, 64
2, 26586, Control_c, 0, 64, 0
2, 26603, Control_c, 0, 64, 127
2, 26629, Note_off_c, 0, 55, 64
2, 26632, Note_off_c, 0, 62, 64
2, 26687, Note_off_c, 0, 31, 64
2, 26689, Note_off_c, 0, 43, 64
2, 26743, Note_off_c, 0, 71, 64
2, 26743, Control_c, 0, 64, 0
2, 26758, Note_on_c, 0, 79, 78
2, 26763, Note_on_c, 0, 71, 82
2, 26767, Note_on_c, 0, 62, 71
2, 26771, Note_on_c, 0, 55, 75
2, 26772, Note_off_c, 0, 74, 64
2, 26777, Control_c, 0, 64, 127
2, 26789, Note_off_c, 0, 62, 64
2, 26799, Note_off_c, 0, 55, 64
2, 26960, Note_off_c, 0, 79, 64
2, 26964, Note_on_c, 0, 62, 78
2, 26964, Note_on_c, 0, 38, 83
2, 26965, Note_off_c, 0, 71, 64
2, 26986, Control_c, 0, 64, 0
2, 27001, Control_c, 0, 64, 127
2, 27088, Note_on_c, 0, 72, 66
2, 27112, Note_on_c, 0, 74, 77
2, 27121, Note_off_c, 0, 72, 64
2, 27122, Note_off_c, 0, 62, 64
2, 27148, Note_on_c, 0, 54, 58
2, 27152, Note_on_c, 0, 72, 78
2, 27152, Note_on_c, 0, 69, 78
2, 27154, Note_on_c, 0, 60, 65
2, 27159, Note_on_c, 0, 50, 57
2, 27175, Note_off_c, 0, 74, 64
2, 27197, Note_off_c, 0, 50, 64
2, 27203, Note_off_c, 0, 54, 64
2, 27208, Note_off_c, 0, 60, 64
2, 27241, Note_off_c, 0, 38, 64
2, 27251, Note_on_c, 0, 71, 81
2, 27256, Note_on_c, 0, 68, 70
2, 27266, Note_off_c, 0, 69, 64
2, 27266, Note_off_c, 0, 72, 64
2, 27337, Note_off_c, 0, 68, 64
2, 27339, Note_on_c, 0, 72, 75
2, 27344, Note_on_c, 0, 69, 72
2, 27349, Note_off_c, 0, 71, 64
2, 27408, Note_off_c, 0, 72, 64
2, 27424, Note_on_c, 0, 76, 78
2, 27432, Note_on_c, 0, 72, 71
2, 27438, Note_off_c, 0, 69, 64
2, 27490, Note_off_c, 0, 72, 64
2, 27504, Note_off_c, 0, 76, 64
2, 27523, Note_on_c, 0, 76, 83
2, 27524, Note_on_c, 0, 43, 72
2, 27526, Note_on_c, 0, 72, 78
2, 27530, Control_c, 0, 64, 0
2, 27536, Control_c, 0, 64, 0
2, 27547, Control_c, 0, 64, 127
2, 27561, Control_c, 0, 64, 127
2, 27577, Note_on_c, 0, 78, 84
2, 27585, Note_off_c, 0, 76, 64
2, 27605, Note_off_c, 0, 72, 64
2, 27632, Note_on_c, 0, 76, 72
2, 27663, Note_off_c, 0, 78, 64
2, 27706, Note_on_c, 0, 74, 66
2, 27708, Note_on_c, 0, 71, 70
2, 27715, Note_on_c, 0, 59, 57
2, 27716, Note_on_c, 0, 55, 57
2, 27725, Note_on_c, 0, 50, 53
2, 27726, Note_off_c, 0, 76, 64
2, 27736, Control_c, 0, 64, 0
2, 27760, Control_c, 0, 64, 127
2, 27766, Note_off_c, 0, 50, 64
2, 27781, Note_off_c, 0, 55, 64
2, 27784, Note_off_c, 0, 59, 64
2, 27813, Note_off_c, 0, 43, 64
2, 27894, Note_on_c, 0, 59, 50
2, 27897, Note_on_c, 0, 55, 50
2, 27904, Note_on_c, 0, 50, 38
2, 27930, Control_c, 0, 64, 0
2, 27945, Control_c, 0, 64, 127
2, 27947, Note_off_c, 0, 71, 64
2, 27977, Note_off_c, 0, 59, 64
2, 27986, Note_off_c, 0, 55, 64
2, 27989, Note_off_c, 0, 50, 64
2, 27989, Note_on_c, 0, 67, 45
2, 27993, Note_on_c, 0, 71, 47
2, 28010, Note_off_c, 0, 74, 64
2, 28085, Note_on_c, 0, 62, 77
2, 28091, Note_on_c, 0, 43, 81
2, 28097, Control_c, 0, 64, 0
2, 28098, Note_off_c, 0, 71, 64
2, 28105, Note_off_c, 0, 67, 64
2, 28128, Control_c, 0, 64, 127
2, 28199, Note_off_c, 0, 62, 64
2, 28200, Note_on_c, 0, 71, 56
2, 28232, Note_on_c, 0, 72, 58
2, 28245, Note_off_c, 0, 71, 64
2, 28268, Note_on_c, 0, 67, 52
2, 28270, Note_on_c, 0, 55, 46
2, 28272, Note_on_c, 0, 71, 63
2, 28274, Note_on_c, 0, 62, 53
2, 28286, Note_off_c, 0, 72, 64
2, 28318, Note_off_c, 0, 55, 64
2, 28323, Note_off_c, 0, 62, 64
2, 28362, Note_off_c, 0, 43, 64
2, 28365, Note_on_c, 0, 69, 70
2, 28368, Note_on_c, 0, 66, 72
2, 28370, Note_off_c, 0, 67, 64
2, 28374, Note_off_c, 0, 71, 64
2, 28449, Note_on_c, 0, 71, 68
2, 28452, Note_on_c, 0, 67, 71
2, 28460, Note_off_c, 0, 69, 64
2, 28462, Note_on_c, 0, 62, 53
2, 28462, Note_on_c, 0, 55, 53
2, 28463, Note_off_c, 0, 66, 64
2, 28480, Control_c, 0, 64, 0
2, 28498, Note_off_c, 0, 55, 64
2, 28505, Note_off_c, 0, 62, 64
2, 28505, Control_c, 0, 64, 127
2, 28536, Note_on_c, 0, 72, 72
2, 28538, Note_on_c, 0, 69, 68
2, 28544, Note_off_c, 0, 71, 64
2, 28547, Note_off_c, 0, 67, 64
2, 28584, Note_on_c, 0, 74, 75
2, 28588, Note_off_c, 0, 69, 64
2, 28595, Note_off_c, 0, 72, 64
2, 28616, Note_on_c, 0, 76, 65
2, 28626, Note_off_c, 0, 74, 64
2, 28636, Note_on_c, 0, 55, 56
2, 28640, Note_on_c, 0, 62, 56
2, 28648, Note_on_c, 0, 74, 75
2, 28652, Note_on_c, 0, 71, 60
2, 28673, Note_off_c, 0, 76, 64
2, 28680, Control_c, 0, 64, 0
2, 28686, Note_off_c, 0, 62, 64
2, 28688, Note_off_c, 0, 55, 64
2, 28704, Control_c, 0, 64, 127
2, 28734, Note_on_c, 0, 73, 87
2, 28740, Note_on_c, 0, 70, 76
2, 28742, Note_off_c, 0, 74, 64
2, 28744, Note_off_c, 0, 71, 64
2, 28820, Note_on_c, 0, 71, 82
2, 28825, Note_on_c, 0, 74, 78
2, 28828, Note_on_c, 0, 62, 66
2, 28828, Note_on_c, 0, 55, 63
2, 28830, Note_off_c, 0, 70, 64
2, 28831, Note_off_c, 0, 73, 64
2, 28862, Note_off_c, 0, 55, 64
2, 28877, Note_off_c, 0, 62, 64
2, 28956, Note_off_c, 0, 71, 64
2, 28961, Note_off_c, 0, 74, 64
2, 28970, Note_on_c, 0, 68, 93
2, 28990, Note_on_c, 0, 74, 69
2, 29005, Note_on_c, 0, 52, 75
2, 29009, Note_on_c, 0, 59, 71
2, 29015, Note_on_c, 0, 83, 88
2, 29015, Note_on_c, 0, 64, 66
2, 29035, Control_c, 0, 64, 0
2, 29041, Control_c, 0, 64, 0
2, 29050, Control_c, 0, 64, 127
2, 29072, Control_c, 0, 64, 127
2, 29111, Note_off_c, 0, 68, 64
2, 29116, Note_off_c, 0, 74, 64
2, 29157, Note_off_c, 0, 52, 64
2, 29160, Note_off_c, 0, 83, 64
2, 29162, Note_off_c, 0, 59, 64
2, 29199, Note_off_c, 0, 64, 64
2, 29208, Note_on_c, 0, 69, 83
2, 29211, Note_on_c, 0, 67, 78
2, 29212, Note_on_c, 0, 64, 71
2, 29219, Note_on_c, 0, 57, 70
2, 29231, Control_c, 0, 64, 0
2, 29254, Control_c, 0, 64, 127
2, 29278, Note_off_c, 0, 57, 64
2, 29280, Note_off_c, 0, 64, 64
2, 29354, Note_off_c, 0, 67, 64
2, 29359, Note_off_c, 0, 69, 64
2, 29374, Note_on_c, 0, 74, 57
2, 29389, Note_on_c, 0, 72, 81
2, 29391, Note_on_c, 0, 67, 62
2, 29395, Note_on_c, 0, 57, 65
2, 29406, Note_on_c, 0, 64, 72
2, 29423, Note_off_c, 0, 74, 64
2, 29450, Note_off_c, 0, 64, 64
2, 29460, Note_off_c, 0, 57, 64
2, 29467, Note_off_c, 0, 67, 64
2, 29496, Note_on_c, 0, 71, 72
2, 29507, Note_off_c, 0, 72, 64
2, 29576, Note_on_c, 0, 72, 72
2, 29586, Note_on_c, 0, 57, 57
2, 29589, Note_off_c, 0, 71, 64
2, 29590, Note_on_c, 0, 60, 63
2, 29591, Note_on_c, 0, 66, 85
2, 29591, Note_on_c, 0, 50, 52
2, 29638, Note_off_c, 0, 50, 64
2, 29641, Note_off_c, 0, 57, 64
2, 29644, Note_off_c, 0, 60, 64
2, 29670, Note_on_c, 0, 76, 81
2, 29681, Note_off_c, 0, 72, 64
2, 29693, Note_off_c, 0, 66, 64
2, 29753, Note_off_c, 0, 76, 64
2, 29769, Note_on_c, 0, 60, 68
2, 29769, Note_on_c, 0, 55, 66
2, 29774, Note_on_c, 0, 66, 81
2, 29784, Note_on_c, 0, 76, 66
2, 29792, Control_c, 0, 64, 0
2, 29807, Control_c, 0, 64, 127
2, 29844, Note_on_c, 0, 78, 71
2, 29854, Note_off_c, 0, 76, 64
2, 29886, Note_off_c, 0, 60, 64
2, 29890, Note_off_c, 0, 66, 64
2, 29890, Note_on_c, 0, 76, 58
2, 29905, Note_off_c, 0, 78, 64
2, 29945, Note_on_c, 0, 74, 80
2, 29954, Note_on_c, 0, 67, 74
2, 29957, Note_off_c, 0, 76, 64
2, 29960, Note_on_c, 0, 59, 57
2, 29968, Control_c, 0, 64, 0
2, 29979, Control_c, 0, 64, 0
2, 29994, Control_c, 0, 64, 127
2, 30013, Control_c, 0, 64, 127
2, 30141, Note_on_c, 0, 62, 50
2, 30145, Note_off_c, 0, 55, 64
2, 30172, Note_off_c, 0, 59, 64
2, 30175, Control_c, 0, 64, 0
2, 30198, Control_c, 0, 64, 127
2, 30220, Note_on_c, 0, 71, 47
2, 30236, Note_off_c, 0, 67, 64
2, 30246, Note_off_c, 0, 74, 64
2, 30314, Note_on_c, 0, 33, 78
2, 30321, Note_on_c, 0, 69, 87
2, 30344, Note_off_c, 0, 62, 64
2, 30344, Control_c, 0, 64, 0
2, 30345, Note_off_c, 0, 71, 64
2, 30367, Control_c, 0, 64, 127
2, 30500, Note_on_c, 0, 45, 61
2, 30501, Note_on_c, 0, 61, 74
2, 30504, Note_on_c, 0, 52, 74
2, 30594, Note_on_c, 0, 67, 71
2, 30611, Note_off_c, 0, 69, 64
2, 30625, Note_off_c, 0, 67, 64
2, 30648, Note_off_c, 0, 61, 64
2, 30668, Note_on_c, 0, 67, 80
2, 30689, Note_off_c, 0, 45, 64
2, 30700, Note_on_c, 0, 61, 66
2, 30700, Note_on_c, 0, 57, 76
2, 30701, Note_on_c, 0, 66, 106
2, 30702, Note_off_c, 0, 52, 64
2, 30712, Control_c, 0, 64, 0
2, 30726, Note_off_c, 0, 67, 64
2, 30736, Control_c, 0, 64, 0
2, 30736, Control_c, 0, 64, 127
2, 30751, Control_c, 0, 64, 127
2, 30780, Note_on_c, 0, 55, 67
2, 30784, Note_on_c, 0, 64, 78
2, 30791, Note_off_c, 0, 57, 64
2, 30805, Note_off_c, 0, 66, 64
2, 30847, Note_off_c, 0, 33, 64
2, 30869, Note_off_c, 0, 61, 64
2, 30876, Note_on_c, 0, 60, 83
2, 30876, Note_on_c, 0, 50, 77
2, 30876, Note_on_c, 0, 57, 83
2, 30879, Note_on_c, 0, 66, 83
2, 30882, Note_off_c, 0, 55, 64
2, 30900, Control_c, 0, 64, 0
2, 30901, Note_off_c, 0, 64, 64
2, 30912, Control_c, 0, 64, 0
2, 30913, Note_off_c, 0, 57, 64
2, 30925, Note_off_c, 0, 50, 64
2, 30934, Control_c, 0, 64, 127
2, 30957, Control_c, 0, 64, 127
2, 30965, Note_on_c, 0, 62, 76
2, 30972, Note_off_c, 0, 60, 64
2, 30984, Note_off_c, 0, 66, 64
2, 31056, Note_on_c, 0, 50, 70
2, 31062, Note_on_c, 0, 67, 89
2, 31062, Note_on_c, 0, 59, 96
2, 31067, Note_on_c, 0, 43, 70
2, 31073, Note_on_c, 0, 55, 71
2, 31073, Control_c, 0, 64, 0
2, 31083, Note_off_c, 0, 62, 64
2, 31123, Control_c, 0, 64, 127
2, 31191, Note_off_c, 0, 50, 64
2, 31205, Note_off_c, 0, 55, 64
2, 31229, Note_off_c, 0, 59, 64
2, 31244, Note_on_c, 0, 71, 95
2, 31250, Note_on_c, 0, 31, 83
2, 31260, Note_off_c, 0, 67, 64
2, 31288, Control_c, 0, 64, 0
2, 31311, Control_c, 0, 64, 127
2, 31354, Note_off_c, 0, 43, 64
2, 31386, Note_off_c, 0, 31, 64
2, 31433, Note_on_c, 0, 36, 85
2, 31434, Note_on_c, 0, 72, 81
2, 31447, Control_c, 0, 64, 0
2, 31477, Note_off_c, 0, 71, 64
2, 31489, Control_c, 0, 64, 127
2, 31555, Note_on_c, 0, 76, 70
2, 31588, Note_off_c, 0, 72, 64
2, 31621, Note_on_c, 0, 60, 40
2, 31624, Note_on_c, 0, 64, 70
2, 31624, Note_on_c, 0, 79, 84
2, 31632, Note_on_c, 0, 55, 35
2, 31637, Control_c, 0, 64, 0
2, 31643, Note_off_c, 0, 76, 64
2, 31656, Control_c, 0, 64, 0
2, 31664, Control_c, 0, 64, 127
2, 31680, Control_c, 0, 64, 127
2, 31683, Note_off_c, 0, 60, 64
2, 31689, Note_on_c, 0, 81, 80
2, 31701, Note_off_c, 0, 64, 64
2, 31706, Note_off_c, 0, 79, 64
2, 31708, Note_off_c, 0, 36, 64
2, 31732, Note_off_c, 0, 55, 64
2, 31749, Note_on_c, 0, 79, 80
2, 31777, Note_off_c, 0, 81, 64
2, 31795, Note_on_c, 0, 60, 52
2, 31795, Note_on_c, 0, 64, 46
2, 31804, Note_on_c, 0, 55, 58
2, 31810, Note_on_c, 0, 78, 89
2, 31840, Note_off_c, 0, 79, 64
2, 31844, Control_c, 0, 64, 0
2, 31878, Control_c, 0, 64, 127
2, 31884, Note_on_c, 0, 76, 51
2, 31892, Note_off_c, 0, 60, 64
2, 31909, Note_off_c, 0, 64, 64
2, 31910, Note_off_c, 0, 78, 64
2, 31920, Note_off_c, 0, 55, 64
2, 31974, Note_on_c, 0, 74, 78
2, 31990, Note_on_c, 0, 43, 71
2, 31992, Note_off_c, 0, 76, 64
2, 32001, Control_c, 0, 64, 0
2, 32007, Note_on_c, 0, 83, 82
2, 32017, Control_c, 0, 64, 0
2, 32036, Control_c, 0, 64, 127
2, 32049, Note_off_c, 0, 74, 64
2, 32067, Control_c, 0, 64, 127
2, 32137, Note_on_c, 0, 81, 65
2, 32146, Note_off_c, 0, 83, 64
2, 32176, Note_on_c, 0, 79, 74
2, 32181, Note_on_c, 0, 59, 63
2, 32184, Note_on_c, 0, 50, 32
2, 32188, Note_on_c, 0, 55, 60
2, 32199, Note_off_c, 0, 81, 64
2, 32204, Control_c, 0, 64, 0
2, 32229, Control_c, 0, 64, 127
2, 32268, Note_off_c, 0, 43, 64
2, 32296, Note_on_c, 0, 76, 52
2, 32317, Note_off_c, 0, 50, 64
2, 32323, Note_off_c, 0, 79, 64
2, 32326, Note_off_c, 0, 59, 64
2, 32346, Note_off_c, 0, 55, 64
2, 32354, Note_on_c, 0, 74, 72
2, 32363, Note_off_c, 0, 76, 64
2, 32391, Control_c, 0, 64, 0
2, 32433, Control_c, 0, 64, 127
2, 32465, Note_on_c, 0, 71, 56
2, 32489, Note_off_c, 0, 74, 64
2, 32527, Note_on_c, 0, 33, 85
2, 32538, Note_on_c, 0, 69, 91
2, 32559, Note_off_c, 0, 71, 64
2, 32581, Control_c, 0, 64, 0
2, 32608, Control_c, 0, 64, 127
2, 32716, Note_on_c, 0, 61, 87
2, 32718, Note_on_c, 0, 45, 78
2, 32787, Note_off_c, 0, 69, 64
2, 32800, Note_on_c, 0, 67, 68
2, 32801, Note_off_c, 0, 61, 64
2, 32807, Note_on_c, 0, 52, 70
2, 32829, Note_off_c, 0, 67, 64
2, 32860, Note_off_c, 0, 45, 64
2, 32864, Note_on_c, 0, 67, 88
2, 32888, Note_on_c, 0, 66, 76
2, 32888, Note_on_c, 0, 61, 57
2, 32888, Note_on_c, 0, 57, 83
2, 32908, Control_c, 0, 64, 0
2, 32909, Note_off_c, 0, 52, 64
2, 32931, Note_off_c, 0, 67, 64
2, 32936, Control_c, 0, 64, 127
2, 32945, Control_c, 0, 64, 0
2, 32969, Note_off_c, 0, 61, 64
2, 32974, Note_on_c, 0, 55, 60
2, 32980, Control_c, 0, 64, 127
2, 32983, Note_off_c, 0, 57, 64
2, 32984, Note_on_c, 0, 64, 75
2, 33009, Note_off_c, 0, 66, 64
2, 33053, Note_off_c, 0, 33, 64
2, 33079, Note_on_c, 0, 66, 87
2, 33082, Note_on_c, 0, 60, 83
2, 33088, Note_on_c, 0, 57, 83
2, 33088, Note_on_c, 0, 50, 78
2, 33095, Note_off_c, 0, 64, 64
2, 33099, Control_c, 0, 64, 0
2, 33111, Note_off_c, 0, 55, 64
2, 33132, Note_off_c, 0, 57, 64
2, 33135, Control_c, 0, 64, 127
2, 33148, Control_c, 0, 64, 0
2, 33152, Note_off_c, 0, 50, 64
2, 33163, Note_off_c, 0, 60, 64
2, 33173, Control_c, 0, 64, 127
2, 33178, Note_on_c, 0, 62, 83
2, 33211, Note_off_c, 0, 66, 64
2, 33254, Note_on_c, 0, 50, 33
2, 33263, Note_on_c, 0, 67, 78
2, 33264, Note_on_c, 0, 43, 70
2, 33270, Note_on_c, 0, 59, 88
2, 33276, Control_c, 0, 64, 0
2, 33285, Note_off_c, 0, 62, 64
2, 33315, Control_c, 0, 64, 127
2, 33317, Note_off_c, 0, 43, 64
2, 33356, Note_off_c, 0, 50, 64
2, 33452, Note_on_c, 0, 71, 83
2, 33453, Note_on_c, 0, 31, 81
2, 33453, Control_c, 0, 64, 0
2, 33463, Note_off_c, 0, 59, 64
2, 33472, Control_c, 0, 64, 127
2, 33496, Note_off_c, 0, 67, 64
2, 33628, Note_off_c, 0, 31, 64
2, 33646, Note_on_c, 0, 69, 78
2, 33646, Note_on_c, 0, 38, 81
2, 33660, Note_off_c, 0, 71, 64
2, 33664, Control_c, 0, 64, 0
2, 33697, Control_c, 0, 64, 127
2, 33787, Note_on_c, 0, 72, 70
2, 33806, Note_off_c, 0, 69, 64
2, 33844, Note_on_c, 0, 50, 68
2, 33846, Note_on_c, 0, 76, 72
2, 33852, Control_c, 0, 64, 0
2, 33853, Note_on_c, 0, 57, 78
2, 33859, Note_off_c, 0, 72, 64
2, 33859, Note_on_c, 0, 60, 71
2, 33880, Control_c, 0, 64, 127
2, 33898, Note_off_c, 0, 57, 64
2, 33898, Note_off_c, 0, 50, 64
2, 33904, Note_off_c, 0, 60, 64
2, 33905, Note_on_c, 0, 78, 78
2, 33921, Note_off_c, 0, 76, 64
2, 33923, Note_off_c, 0, 38, 64
2, 33955, Note_on_c, 0, 76, 70
2, 33960, Note_off_c, 0, 78, 64
2, 34029, Note_on_c, 0, 74, 78
2, 34034, Note_on_c, 0, 50, 76
2, 34035, Note_on_c, 0, 60, 78
2, 34037, Note_on_c, 0, 57, 78
2, 34043, Control_c, 0, 64, 0
2, 34044, Note_off_c, 0, 76, 64
2, 34071, Note_off_c, 0, 60, 64
2, 34075, Note_off_c, 0, 57, 64
2, 34076, Note_off_c, 0, 50, 64
2, 34079, Control_c, 0, 64, 127
2, 34186, Note_on_c, 0, 66, 83
2, 34194, Note_off_c, 0, 74, 64
2, 34216, Control_c, 0, 64, 0
2, 34220, Control_c, 0, 64, 0
2, 34232, Note_on_c, 0, 55, 83
2, 34236, Note_on_c, 0, 59, 81
2, 34238, Note_on_c, 0, 67, 95
2, 34245, Note_off_c, 0, 66, 64
2, 34259, Control_c, 0, 64, 127
2, 34269, Note_off_c, 0, 59, 64
2, 34274, Control_c, 0, 64, 127
2, 34275, Note_off_c, 0, 55, 64
2, 34397, Control_c, 0, 64, 0
2, 34416, Control_c, 0, 64, 127
2, 34478, Note_off_c, 0, 67, 64
2, 34487, Note_on_c, 0, 83, 85
2, 34487, Note_on_c, 0, 79, 85
2, 34494, Note_on_c, 0, 91, 83
2, 34494, Note_on_c, 0, 43, 96
2, 34494, Note_on_c, 0, 31, 96
2, 34531, Control_c, 0, 64, 0
2, 34608, Control_c, 0, 64, 0
2, 34641, Control_c, 0, 64, 127
2, 34662, Control_c, 0, 64, 127
2, 34732, Note_off_c, 0, 83, 64
2, 34736, Note_off_c, 0, 91, 64
2, 34743, Note_off_c, 0, 31, 64
2, 34744, Note_off_c, 0, 79, 64
2, 34744, Note_off_c, 0, 43, 64
2, 34874, Control_c, 0, 64, 0
2, 35160, Control_c, 0, 64, 0
2, 35218, Control_c, 0, 64, 127
2, 35475, Control_c, 0, 64, 0
2, 35606, Control_c, 0, 64, 127
2, 35818, Control_c, 0, 64, 0
2, 35818, End_track
3, 0, Start_track
3, 0, Title_t, "Played by Dr. Ron Lubetsky"
3, 0, End_track
4, 0, Start_track
4, 0, Title_t, "Feb. 1, 1998"
4, 0, End_track
5, 0, Start_track
5, 0, Title_t, "email: acuity2020@aol.com"
5, 0, End_track
6, 0, Start_track
6, 0, Title_t, "Copyright  1998"
6, 0, End_track
7, 0, Start_track
7, 0, Title_t, "All Rights Reserved"
7, 0, End_track
0, 0, End_of_file
