2, 0, Program_c, 0, 0
2, 0, Control_c, 0, 7, 127
2, 41, Note_on_c, 0, 72, 71
2, 366, Note_on_c, 0, 56, 32
2, 368, Note_on_c, 0, 60, 33
2, 387, Note_on_c, 0, 65, 26
2, 558, Note_on_c, 0, 73, 72
2, 595, Note_off_c, 0, 72, 64
2, 622, Note_off_c, 0, 56, 64
2, 623, Note_off_c, 0, 65, 64
2, 624, Note_off_c, 0, 60, 64
2, 683, Note_off_c, 0, 73, 64
2, 697, Note_on_c, 0, 73, 73
2, 705, Note_on_c, 0, 56, 37
2, 708, Note_on_c, 0, 60, 44
2, 710, Note_on_c, 0, 65, 35
2, 751, Control_c, 0, 64, 0
2, 783, Control_c, 0, 64, 127
2, 811, Note_on_c, 0, 72, 75
2, 826, Note_off_c, 0, 73, 64
2, 934, Note_off_c, 0, 60, 64
2, 935, Note_on_c, 0, 71, 67
2, 936, Note_off_c, 0, 72, 64
2, 944, Note_off_c, 0, 56, 64
2, 954, Note_off_c, 0, 65, 64
2, 970, Note_on_c, 0, 72, 71
2, 978, Note_off_c, 0, 71, 64
2, 1008, Note_on_c, 0, 71, 66
2, 1024, Note_off_c, 0, 72, 64
2, 1063, Note_on_c, 0, 70, 74
2, 1066, Note_off_c, 0, 71, 64
2, 1157, Note_on_c, 0, 71, 72
2, 1165, Note_off_c, 0, 70, 64
2, 1168, Note_on_c, 0, 55, 36
2, 1168, Note_on_c, 0, 62, 41
2, 1171, Note_on_c, 0, 65, 33
2, 1213, Control_c, 0, 64, 0
2, 1243, Control_c, 0, 64, 127
2, 1284, Note_off_c, 0, 55, 64
2, 1304, Note_off_c, 0, 62, 64
2, 1305, Note_off_c, 0, 65, 64
2, 1484, Note_on_c, 0, 61, 33
2, 1489, Note_on_c, 0, 79, 75
2, 1500, Note_on_c, 0, 55, 31
2, 1502, Note_off_c, 0, 71, 64
2, 1507, Note_on_c, 0, 65, 31
2, 1546, Control_c, 0, 64, 0
2, 1599, Control_c, 0, 64, 127
2, 1786, Note_off_c, 0, 79, 64
2, 1790, Note_on_c, 0, 70, 86
2, 1819, Note_off_c, 0, 55, 64
2, 1825, Note_off_c, 0, 65, 64
2, 1826, Note_off_c, 0, 61, 64
2, 2055, Note_on_c, 0, 61, 44
2, 2058, Note_on_c, 0, 54, 36
2, 2061, Note_on_c, 0, 64, 41
2, 2109, Control_c, 0, 64, 0
2, 2142, Control_c, 0, 64, 127
2, 2182, Note_off_c, 0, 54, 64
2, 2184, Note_on_c, 0, 72, 71
2, 2189, Note_off_c, 0, 64, 64
2, 2194, Note_off_c, 0, 61, 64
2, 2199, Note_off_c, 0, 70, 64
2, 2244, Note_off_c, 0, 72, 64
2, 2312, Note_on_c, 0, 54, 50
2, 2317, Note_on_c, 0, 72, 64
2, 2325, Note_on_c, 0, 63, 35
2, 2328, Note_on_c, 0, 60, 48
2, 2361, Control_c, 0, 64, 0
2, 2417, Control_c, 0, 64, 127
2, 2424, Note_on_c, 0, 70, 85
2, 2454, Note_off_c, 0, 72, 64
2, 2555, Note_off_c, 0, 70, 64
2, 2555, Note_on_c, 0, 69, 62
2, 2590, Note_on_c, 0, 70, 82
2, 2591, Note_off_c, 0, 60, 64
2, 2597, Note_off_c, 0, 54, 64
2, 2600, Note_off_c, 0, 69, 64
2, 2600, Note_off_c, 0, 63, 64
2, 2634, Note_on_c, 0, 69, 71
2, 2636, Note_off_c, 0, 70, 64
2, 2682, Note_on_c, 0, 68, 79
2, 2685, Note_off_c, 0, 69, 64
2, 2780, Note_on_c, 0, 53, 57
2, 2784, Note_on_c, 0, 63, 42
2, 2787, Note_on_c, 0, 69, 72
2, 2794, Note_on_c, 0, 60, 48
2, 2819, Note_off_c, 0, 68, 64
2, 2824, Control_c, 0, 64, 0
2, 2868, Control_c, 0, 64, 127
2, 2908, Note_off_c, 0, 53, 64
2, 2921, Note_off_c, 0, 60, 64
2, 2922, Note_off_c, 0, 63, 64
2, 3114, Note_on_c, 0, 77, 81
2, 3118, Note_on_c, 0, 59, 36
2, 3125, Note_on_c, 0, 63, 32
2, 3127, Note_on_c, 0, 53, 33
2, 3163, Control_c, 0, 64, 0
2, 3171, Note_off_c, 0, 69, 64
2, 3230, Control_c, 0, 64, 127
2, 3454, Note_off_c, 0, 77, 64
2, 3456, Note_on_c, 0, 68, 88
2, 3487, Note_off_c, 0, 59, 64
2, 3503, Note_off_c, 0, 63, 64
2, 3514, Note_off_c, 0, 53, 64
2, 3744, Note_on_c, 0, 62, 33
2, 3748, Note_on_c, 0, 53, 44
2, 3749, Note_on_c, 0, 59, 46
2, 3779, Control_c, 0, 64, 0
2, 3822, Control_c, 0, 64, 127
2, 3861, Note_on_c, 0, 70, 86
2, 3878, Note_off_c, 0, 53, 64
2, 3881, Note_off_c, 0, 59, 64
2, 3883, Note_off_c, 0, 62, 64
2, 3890, Note_off_c, 0, 68, 64
2, 3919, Note_off_c, 0, 70, 64
2, 3991, Note_on_c, 0, 70, 77
2, 3999, Note_on_c, 0, 59, 48
2, 4002, Note_on_c, 0, 62, 56
2, 4009, Note_on_c, 0, 52, 36
2, 4044, Control_c, 0, 64, 0
2, 4094, Note_on_c, 0, 68, 85
2, 4110, Control_c, 0, 64, 127
2, 4120, Note_off_c, 0, 70, 64
2, 4222, Note_off_c, 0, 68, 64
2, 4222, Note_on_c, 0, 67, 75
2, 4259, Note_on_c, 0, 68, 79
2, 4261, Note_off_c, 0, 52, 64
2, 4269, Note_off_c, 0, 59, 64
2, 4272, Note_off_c, 0, 67, 64
2, 4272, Note_off_c, 0, 62, 64
2, 4304, Note_on_c, 0, 67, 66
2, 4309, Note_off_c, 0, 68, 64
2, 4358, Note_on_c, 0, 66, 85
2, 4361, Note_off_c, 0, 67, 64
2, 4470, Note_on_c, 0, 67, 75
2, 4488, Note_on_c, 0, 61, 27
2, 4488, Note_on_c, 0, 52, 48
2, 4490, Note_off_c, 0, 66, 64
2, 4492, Note_on_c, 0, 58, 36
2, 4521, Control_c, 0, 64, 0
2, 4574, Control_c, 0, 64, 127
2, 4585, Note_off_c, 0, 52, 64
2, 4606, Note_off_c, 0, 58, 64
2, 4610, Note_off_c, 0, 61, 64
2, 4790, Note_on_c, 0, 58, 55
2, 4793, Note_on_c, 0, 73, 83
2, 4800, Note_on_c, 0, 53, 37
2, 4803, Note_on_c, 0, 65, 36
2, 4811, Note_off_c, 0, 67, 64
2, 4836, Control_c, 0, 64, 0
2, 4891, Control_c, 0, 64, 127
2, 5040, Note_off_c, 0, 65, 64
2, 5082, Note_off_c, 0, 58, 64
2, 5091, Note_off_c, 0, 53, 64
2, 5094, Note_on_c, 0, 72, 79
2, 5136, Note_off_c, 0, 73, 64
2, 5353, Note_on_c, 0, 64, 55
2, 5364, Note_on_c, 0, 61, 31
2, 5366, Note_on_c, 0, 58, 32
2, 5366, Note_on_c, 0, 55, 32
2, 5379, Control_c, 0, 64, 0
2, 5422, Control_c, 0, 64, 127
2, 5454, Note_off_c, 0, 58, 64
2, 5454, Note_off_c, 0, 61, 64
2, 5464, Note_off_c, 0, 55, 64
2, 5478, Note_on_c, 0, 70, 83
2, 5507, Note_off_c, 0, 72, 64
2, 5544, Note_off_c, 0, 64, 64
2, 5605, Note_on_c, 0, 68, 86
2, 5614, Note_on_c, 0, 48, 32
2, 5616, Note_on_c, 0, 58, 44
2, 5621, Note_on_c, 0, 64, 46
2, 5629, Note_off_c, 0, 70, 64
2, 5644, Control_c, 0, 64, 0
2, 5687, Control_c, 0, 64, 127
2, 5720, Note_on_c, 0, 67, 85
2, 5730, Note_off_c, 0, 68, 64
2, 5763, Note_off_c, 0, 58, 64
2, 5771, Note_off_c, 0, 64, 64
2, 5773, Note_off_c, 0, 48, 64
2, 5825, Note_on_c, 0, 70, 86
2, 5840, Note_off_c, 0, 67, 64
2, 5930, Note_on_c, 0, 68, 81
2, 5961, Note_off_c, 0, 70, 64
2, 6053, Note_on_c, 0, 65, 92
2, 6056, Note_off_c, 0, 68, 64
2, 6056, Note_on_c, 0, 41, 66
2, 6069, Control_c, 0, 64, 0
2, 6109, Control_c, 0, 64, 127
2, 6158, Note_on_c, 0, 67, 81
2, 6172, Note_off_c, 0, 65, 64
2, 6272, Note_on_c, 0, 68, 82
2, 6285, Note_on_c, 0, 56, 36
2, 6288, Note_on_c, 0, 61, 47
2, 6293, Note_on_c, 0, 53, 65
2, 6308, Note_off_c, 0, 67, 64
2, 6331, Control_c, 0, 64, 0
2, 6371, Control_c, 0, 64, 127
2, 6394, Note_on_c, 0, 71, 77
2, 6411, Note_off_c, 0, 68, 64
2, 6521, Note_on_c, 0, 72, 86
2, 6529, Note_off_c, 0, 71, 64
2, 6544, Control_c, 0, 64, 0
2, 6558, Control_c, 0, 64, 127
2, 6582, Note_off_c, 0, 56, 64
2, 6588, Note_off_c, 0, 53, 64
2, 6596, Note_off_c, 0, 41, 64
2, 6597, Note_off_c, 0, 61, 64
2, 6772, Note_on_c, 0, 53, 29
2, 6780, Note_on_c, 0, 56, 35
2, 6784, Note_on_c, 0, 60, 40
2, 6832, Control_c, 0, 64, 0
2, 6875, Control_c, 0, 64, 127
2, 6927, Note_on_c, 0, 73, 73
2, 6966, Note_off_c, 0, 72, 64
2, 6970, Note_off_c, 0, 56, 64
2, 6971, Note_off_c, 0, 60, 64
2, 6974, Note_off_c, 0, 53, 64
2, 7064, Note_on_c, 0, 56, 37
2, 7067, Note_on_c, 0, 71, 72
2, 7069, Note_on_c, 0, 60, 50
2, 7081, Note_off_c, 0, 73, 64
2, 7081, Note_on_c, 0, 65, 29
2, 7110, Control_c, 0, 64, 0
2, 7153, Control_c, 0, 64, 127
2, 7172, Note_on_c, 0, 73, 77
2, 7206, Note_off_c, 0, 71, 64
2, 7277, Note_on_c, 0, 72, 81
2, 7293, Note_off_c, 0, 73, 64
2, 7300, Note_off_c, 0, 60, 64
2, 7308, Note_off_c, 0, 56, 64
2, 7337, Note_off_c, 0, 65, 64
2, 7382, Note_on_c, 0, 70, 81
2, 7396, Note_off_c, 0, 72, 64
2, 7504, Note_on_c, 0, 71, 81
2, 7519, Note_on_c, 0, 55, 33
2, 7526, Note_on_c, 0, 65, 33
2, 7526, Note_on_c, 0, 62, 41
2, 7533, Note_off_c, 0, 70, 64
2, 7537, Control_c, 0, 64, 0
2, 7571, Control_c, 0, 64, 127
2, 7625, Note_on_c, 0, 80, 71
2, 7640, Note_off_c, 0, 55, 64
2, 7641, Note_off_c, 0, 62, 64
2, 7645, Note_off_c, 0, 65, 64
2, 7663, Note_off_c, 0, 71, 64
2, 7768, Note_on_c, 0, 55, 47
2, 7772, Note_on_c, 0, 65, 32
2, 7772, Note_on_c, 0, 79, 57
2, 7778, Note_on_c, 0, 61, 46
2, 7794, Note_off_c, 0, 80, 64
2, 7828, Control_c, 0, 64, 0
2, 7860, Control_c, 0, 64, 127
2, 7890, Note_on_c, 0, 71, 81
2, 7897, Note_off_c, 0, 79, 64
2, 8010, Note_on_c, 0, 70, 79
2, 8027, Note_off_c, 0, 71, 64
2, 8040, Control_c, 0, 64, 0
2, 8054, Control_c, 0, 64, 127
2, 8070, Note_off_c, 0, 55, 64
2, 8073, Note_off_c, 0, 65, 64
2, 8093, Note_off_c, 0, 61, 64
2, 8269, Note_on_c, 0, 61, 33
2, 8272, Note_on_c, 0, 55, 46
2, 8275, Note_on_c, 0, 64, 36
2, 8304, Control_c, 0, 64, 0
2, 8327, Control_c, 0, 64, 127
2, 8376, Note_off_c, 0, 55, 64
2, 8397, Note_on_c, 0, 72, 69
2, 8412, Note_off_c, 0, 64, 64
2, 8412, Note_off_c, 0, 61, 64
2, 8420, Note_off_c, 0, 70, 64
2, 8465, Note_off_c, 0, 72, 64
2, 8515, Note_on_c, 0, 72, 71
2, 8516, Note_on_c, 0, 64, 41
2, 8522, Note_on_c, 0, 61, 47
2, 8524, Note_on_c, 0, 54, 35
2, 8564, Control_c, 0, 64, 0
2, 8607, Control_c, 0, 64, 127
2, 8617, Note_on_c, 0, 70, 81
2, 8645, Note_off_c, 0, 72, 64
2, 8694, Note_off_c, 0, 70, 64
2, 8744, Note_on_c, 0, 70, 91
2, 8751, Note_off_c, 0, 64, 64
2, 8769, Note_off_c, 0, 54, 64
2, 8773, Note_off_c, 0, 61, 64
2, 8849, Note_on_c, 0, 68, 81
2, 8864, Note_off_c, 0, 70, 64
2, 8963, Note_on_c, 0, 69, 81
2, 8966, Note_on_c, 0, 53, 47
2, 8973, Note_on_c, 0, 63, 36
2, 8973, Note_on_c, 0, 60, 50
2, 8980, Note_off_c, 0, 68, 64
2, 8988, Control_c, 0, 64, 0
2, 9042, Control_c, 0, 64, 127
2, 9093, Note_on_c, 0, 78, 75
2, 9100, Note_off_c, 0, 60, 64
2, 9104, Note_off_c, 0, 53, 64
2, 9110, Note_off_c, 0, 63, 64
2, 9117, Note_off_c, 0, 69, 64
2, 9252, Note_on_c, 0, 77, 79
2, 9252, Note_on_c, 0, 59, 48
2, 9260, Note_on_c, 0, 53, 26
2, 9264, Note_on_c, 0, 63, 29
2, 9280, Note_off_c, 0, 78, 64
2, 9306, Control_c, 0, 64, 0
2, 9357, Control_c, 0, 64, 127
2, 9375, Note_on_c, 0, 69, 81
2, 9380, Note_off_c, 0, 77, 64
2, 9496, Note_on_c, 0, 68, 83
2, 9515, Note_off_c, 0, 69, 64
2, 9529, Control_c, 0, 64, 0
2, 9533, Note_off_c, 0, 53, 64
2, 9540, Control_c, 0, 64, 127
2, 9549, Note_off_c, 0, 59, 64
2, 9559, Note_off_c, 0, 63, 64
2, 9772, Note_on_c, 0, 63, 32
2, 9780, Note_on_c, 0, 53, 36
2, 9781, Note_on_c, 0, 59, 41
2, 9869, Note_off_c, 0, 53, 64
2, 9877, Note_off_c, 0, 59, 64
2, 9885, Note_on_c, 0, 71, 75
2, 9893, Note_off_c, 0, 63, 64
2, 9896, Note_off_c, 0, 68, 64
2, 10010, Note_on_c, 0, 70, 85
2, 10020, Note_on_c, 0, 59, 41
2, 10023, Note_on_c, 0, 62, 36
2, 10023, Note_on_c, 0, 52, 33
2, 10035, Note_off_c, 0, 71, 64
2, 10055, Control_c, 0, 64, 0
2, 10096, Control_c, 0, 64, 127
2, 10114, Note_on_c, 0, 68, 86
2, 10137, Note_off_c, 0, 70, 64
2, 10240, Note_on_c, 0, 67, 90
2, 10257, Control_c, 0, 64, 0
2, 10268, Note_off_c, 0, 68, 64
2, 10273, Control_c, 0, 64, 127
2, 10293, Note_off_c, 0, 59, 64
2, 10296, Note_off_c, 0, 52, 64
2, 10311, Note_off_c, 0, 62, 64
2, 10475, Note_on_c, 0, 68, 86
2, 10485, Note_off_c, 0, 67, 64
2, 10492, Note_on_c, 0, 58, 55
2, 10492, Note_on_c, 0, 62, 35
2, 10500, Note_on_c, 0, 52, 44
2, 10514, Control_c, 0, 64, 0
2, 10538, Control_c, 0, 64, 127
2, 10590, Note_on_c, 0, 69, 83
2, 10598, Note_off_c, 0, 52, 64
2, 10606, Note_off_c, 0, 58, 64
2, 10608, Note_off_c, 0, 62, 64
2, 10617, Note_off_c, 0, 68, 64
2, 10710, Note_on_c, 0, 70, 97
2, 10716, Note_on_c, 0, 56, 66
2, 10720, Note_on_c, 0, 52, 47
2, 10720, Note_on_c, 0, 62, 55
2, 10747, Note_off_c, 0, 69, 64
2, 10747, Control_c, 0, 64, 0
2, 10762, Control_c, 0, 64, 127
2, 10831, Note_on_c, 0, 71, 81
2, 10849, Note_off_c, 0, 70, 64
2, 10931, Note_off_c, 0, 62, 64
2, 10940, Note_on_c, 0, 73, 85
2, 10946, Note_off_c, 0, 56, 64
2, 10946, Note_on_c, 0, 45, 57
2, 10968, Note_off_c, 0, 52, 64
2, 10970, Control_c, 0, 64, 0
2, 10971, Note_off_c, 0, 71, 64
2, 11004, Control_c, 0, 64, 127
2, 11050, Note_on_c, 0, 74, 77
2, 11058, Note_off_c, 0, 73, 64
2, 11148, Note_on_c, 0, 75, 86
2, 11150, Note_on_c, 0, 61, 32
2, 11165, Note_on_c, 0, 52, 36
2, 11166, Control_c, 0, 64, 0
2, 11179, Note_off_c, 0, 74, 64
2, 11192, Control_c, 0, 64, 127
2, 11253, Note_on_c, 0, 76, 81
2, 11277, Note_off_c, 0, 75, 64
2, 11341, Note_off_c, 0, 45, 64
2, 11345, Note_off_c, 0, 52, 64
2, 11359, Note_on_c, 0, 81, 81
2, 11369, Note_off_c, 0, 61, 64
2, 11400, Note_off_c, 0, 76, 64
2, 11450, Note_on_c, 0, 80, 82
2, 11474, Note_off_c, 0, 81, 64
2, 11559, Note_on_c, 0, 78, 72
2, 11565, Note_on_c, 0, 45, 55
2, 11578, Note_off_c, 0, 80, 64
2, 11580, Control_c, 0, 64, 0
2, 11611, Control_c, 0, 64, 127
2, 11676, Note_on_c, 0, 76, 52
2, 11701, Note_off_c, 0, 78, 64
2, 11771, Note_on_c, 0, 74, 74
2, 11774, Note_on_c, 0, 54, 27
2, 11783, Note_on_c, 0, 62, 35
2, 11787, Note_off_c, 0, 76, 64
2, 11859, Note_off_c, 0, 62, 64
2, 11863, Note_on_c, 0, 68, 76
2, 11866, Note_off_c, 0, 54, 64
2, 11866, Note_off_c, 0, 74, 64
2, 11880, Note_off_c, 0, 45, 64
2, 11967, Note_on_c, 0, 52, 35
2, 11971, Note_on_c, 0, 62, 33
2, 11976, Note_on_c, 0, 69, 77
2, 11995, Note_off_c, 0, 68, 64
2, 12033, Note_off_c, 0, 62, 64
2, 12049, Note_off_c, 0, 52, 64
2, 12067, Note_on_c, 0, 71, 77
2, 12086, Note_off_c, 0, 69, 64
2, 12170, Note_on_c, 0, 73, 76
2, 12177, Note_on_c, 0, 45, 64
2, 12192, Note_off_c, 0, 71, 64
2, 12195, Control_c, 0, 64, 0
2, 12213, Control_c, 0, 64, 127
2, 12269, Note_on_c, 0, 74, 76
2, 12294, Note_off_c, 0, 73, 64
2, 12360, Note_on_c, 0, 75, 74
2, 12369, Note_on_c, 0, 61, 41
2, 12374, Note_off_c, 0, 74, 64
2, 12379, Note_on_c, 0, 52, 41
2, 12429, Note_off_c, 0, 61, 64
2, 12442, Note_off_c, 0, 52, 64
2, 12469, Note_on_c, 0, 76, 66
2, 12502, Note_off_c, 0, 75, 64
2, 12567, Note_off_c, 0, 45, 64
2, 12569, Note_on_c, 0, 61, 37
2, 12576, Note_on_c, 0, 81, 85
2, 12590, Note_on_c, 0, 52, 33
2, 12616, Note_off_c, 0, 76, 64
2, 12664, Note_on_c, 0, 80, 79
2, 12684, Note_off_c, 0, 81, 64
2, 12701, Note_off_c, 0, 52, 64
2, 12711, Note_off_c, 0, 61, 64
2, 12768, Note_on_c, 0, 78, 83
2, 12782, Control_c, 0, 64, 0
2, 12791, Note_off_c, 0, 80, 64
2, 12791, Note_on_c, 0, 45, 36
2, 12822, Control_c, 0, 64, 127
2, 12871, Note_on_c, 0, 76, 75
2, 12888, Note_off_c, 0, 78, 64
2, 12978, Note_on_c, 0, 74, 72
2, 12978, Note_on_c, 0, 54, 46
2, 12986, Note_on_c, 0, 62, 27
2, 12999, Note_off_c, 0, 76, 64
2, 13076, Note_on_c, 0, 68, 74
2, 13087, Note_off_c, 0, 74, 64
2, 13109, Note_off_c, 0, 62, 64
2, 13119, Note_off_c, 0, 54, 64
2, 13137, Note_off_c, 0, 45, 64
2, 13189, Note_on_c, 0, 52, 47
2, 13194, Note_on_c, 0, 69, 85
2, 13194, Note_on_c, 0, 62, 46
2, 13208, Note_off_c, 0, 68, 64
2, 13223, Control_c, 0, 64, 0
2, 13246, Control_c, 0, 64, 127
2, 13295, Note_off_c, 0, 52, 64
2, 13306, Note_on_c, 0, 71, 92
2, 13312, Note_off_c, 0, 62, 64
2, 13326, Note_off_c, 0, 69, 64
2, 13460, Note_on_c, 0, 73, 81
2, 13472, Note_on_c, 0, 45, 48
2, 13492, Note_off_c, 0, 71, 64
2, 13532, Control_c, 0, 64, 0
2, 13607, Control_c, 0, 64, 127
2, 13741, Note_on_c, 0, 71, 66
2, 13755, Note_off_c, 0, 73, 64
2, 13875, Note_on_c, 0, 72, 77
2, 13903, Note_off_c, 0, 71, 64
2, 13919, Note_off_c, 0, 45, 64
2, 14004, Note_on_c, 0, 53, 37
2, 14006, Note_on_c, 0, 63, 27
2, 14008, Note_on_c, 0, 77, 71
2, 14010, Note_on_c, 0, 60, 29
2, 14019, Control_c, 0, 64, 0
2, 14030, Note_off_c, 0, 72, 64
2, 14052, Control_c, 0, 64, 127
2, 14082, Note_off_c, 0, 63, 64
2, 14087, Note_off_c, 0, 60, 64
2, 14105, Note_off_c, 0, 53, 64
2, 14144, Note_on_c, 0, 76, 64
2, 14177, Note_off_c, 0, 77, 64
2, 14262, Note_on_c, 0, 46, 52
2, 14269, Note_on_c, 0, 75, 66
2, 14292, Control_c, 0, 64, 0
2, 14294, Note_off_c, 0, 76, 64
2, 14324, Control_c, 0, 64, 127
2, 14383, Note_on_c, 0, 74, 65
2, 14405, Note_off_c, 0, 75, 64
2, 14477, Note_off_c, 0, 46, 64
2, 14483, Note_on_c, 0, 61, 29
2, 14484, Note_on_c, 0, 73, 81
2, 14494, Note_on_c, 0, 53, 33
2, 14500, Note_off_c, 0, 74, 64
2, 14552, Note_off_c, 0, 61, 64
2, 14560, Note_off_c, 0, 53, 64
2, 14596, Note_on_c, 0, 64, 66
2, 14608, Note_off_c, 0, 73, 64
2, 14693, Note_on_c, 0, 65, 73
2, 14701, Note_on_c, 0, 48, 37
2, 14701, Note_on_c, 0, 52, 26
2, 14701, Note_on_c, 0, 58, 33
2, 14723, Note_off_c, 0, 64, 64
2, 14762, Note_off_c, 0, 52, 64
2, 14771, Note_off_c, 0, 58, 64
2, 14776, Note_off_c, 0, 48, 64
2, 14799, Note_on_c, 0, 67, 66
2, 14812, Note_off_c, 0, 65, 64
2, 14912, Note_on_c, 0, 68, 79
2, 14919, Note_on_c, 0, 41, 44
2, 14938, Note_off_c, 0, 67, 64
2, 14943, Control_c, 0, 64, 0
2, 14990, Control_c, 0, 64, 127
2, 15011, Note_on_c, 0, 70, 82
2, 15036, Note_off_c, 0, 68, 64
2, 15115, Note_on_c, 0, 71, 82
2, 15116, Note_on_c, 0, 48, 46
2, 15119, Note_on_c, 0, 56, 31
2, 15131, Note_off_c, 0, 70, 64
2, 15162, Control_c, 0, 64, 0
2, 15197, Control_c, 0, 64, 127
2, 15214, Note_on_c, 0, 72, 84
2, 15248, Note_off_c, 0, 71, 64
2, 15326, Note_on_c, 0, 77, 93
2, 15339, Note_off_c, 0, 48, 64
2, 15348, Control_c, 0, 64, 0
2, 15364, Note_off_c, 0, 72, 64
2, 15384, Control_c, 0, 64, 127
2, 15392, Note_off_c, 0, 41, 64
2, 15396, Note_off_c, 0, 56, 64
2, 15439, Note_on_c, 0, 76, 81
2, 15465, Note_off_c, 0, 77, 64
2, 15555, Note_on_c, 0, 75, 67
2, 15577, Note_off_c, 0, 76, 64
2, 15671, Note_on_c, 0, 74, 65
2, 15681, Note_off_c, 0, 75, 64
2, 15790, Note_on_c, 0, 73, 62
2, 15799, Note_on_c, 0, 49, 47
2, 15800, Note_on_c, 0, 56, 41
2, 15818, Note_off_c, 0, 74, 64
2, 15820, Control_c, 0, 64, 0
2, 15842, Control_c, 0, 64, 127
2, 15900, Note_off_c, 0, 49, 64
2, 15920, Note_off_c, 0, 56, 64
2, 15944, Note_on_c, 0, 64, 48
2, 15980, Note_off_c, 0, 73, 64
2, 16088, Note_on_c, 0, 58, 27
2, 16091, Note_on_c, 0, 65, 71
2, 16105, Note_on_c, 0, 48, 35
2, 16133, Note_off_c, 0, 64, 64
2, 16140, Control_c, 0, 64, 0
2, 16193, Control_c, 0, 64, 127
2, 16260, Note_on_c, 0, 68, 52
2, 16268, Note_off_c, 0, 58, 64
2, 16274, Note_off_c, 0, 48, 64
2, 16303, Note_on_c, 0, 67, 57
2, 16311, Note_off_c, 0, 65, 64
2, 16319, Note_off_c, 0, 68, 64
2, 16488, Note_on_c, 0, 65, 52
2, 16493, Note_on_c, 0, 41, 56
2, 16507, Note_off_c, 0, 67, 64
2, 16519, Control_c, 0, 64, 0
2, 16562, Control_c, 0, 64, 127
2, 16607, Note_on_c, 0, 67, 46
2, 16609, Note_off_c, 0, 65, 64
2, 16653, Note_off_c, 0, 67, 64
2, 16666, Note_on_c, 0, 65, 35
2, 16696, Note_off_c, 0, 65, 64
2, 16697, Note_on_c, 0, 67, 71
2, 16729, Note_off_c, 0, 67, 64
2, 16735, Note_on_c, 0, 65, 56
2, 16766, Note_off_c, 0, 65, 64
2, 16766, Note_on_c, 0, 67, 55
2, 16789, Note_on_c, 0, 65, 57
2, 16801, Note_off_c, 0, 67, 64
2, 16833, Note_on_c, 0, 64, 54
2, 16841, Note_off_c, 0, 65, 64
2, 16925, Note_on_c, 0, 65, 47
2, 16926, Note_on_c, 0, 56, 36
2, 16931, Note_off_c, 0, 64, 64
2, 16933, Note_on_c, 0, 48, 35
2, 16965, Control_c, 0, 64, 0
2, 17023, Control_c, 0, 64, 127
2, 17113, Note_off_c, 0, 48, 64
2, 17119, Note_off_c, 0, 56, 64
2, 17319, Note_on_c, 0, 56, 32
2, 17321, Note_on_c, 0, 47, 32
2, 17374, Control_c, 0, 64, 0
2, 17417, Control_c, 0, 64, 127
2, 17484, Note_off_c, 0, 56, 64
2, 17491, Note_off_c, 0, 47, 64
2, 17543, Note_off_c, 0, 41, 64
2, 17672, Note_on_c, 0, 39, 56
2, 17736, Note_on_c, 0, 70, 90
2, 17753, Note_off_c, 0, 65, 64
2, 17760, Control_c, 0, 64, 0
2, 17802, Control_c, 0, 64, 127
2, 18013, Note_on_c, 0, 61, 36
2, 18027, Note_on_c, 0, 55, 41
2, 18034, Note_on_c, 0, 51, 24
2, 18144, Note_off_c, 0, 61, 64
2, 18158, Note_off_c, 0, 55, 64
2, 18165, Note_off_c, 0, 51, 64
2, 18225, Note_on_c, 0, 61, 48
2, 18231, Note_on_c, 0, 51, 33
2, 18235, Note_on_c, 0, 72, 75
2, 18247, Note_on_c, 0, 55, 27
2, 18249, Note_off_c, 0, 70, 64
2, 18290, Note_off_c, 0, 39, 64
2, 18337, Note_on_c, 0, 67, 72
2, 18355, Note_off_c, 0, 72, 64
2, 18356, Note_off_c, 0, 61, 64
2, 18362, Note_off_c, 0, 51, 64
2, 18378, Note_off_c, 0, 55, 64
2, 18445, Note_on_c, 0, 68, 81
2, 18450, Note_on_c, 0, 44, 72
2, 18473, Control_c, 0, 64, 0
2, 18479, Note_off_c, 0, 67, 64
2, 18506, Control_c, 0, 64, 127
2, 18559, Note_on_c, 0, 60, 73
2, 18576, Note_off_c, 0, 68, 64
2, 18656, Note_on_c, 0, 63, 66
2, 18664, Note_on_c, 0, 56, 54
2, 18666, Note_off_c, 0, 60, 64
2, 18666, Note_on_c, 0, 51, 56
2, 18672, Note_on_c, 0, 60, 54
2, 18746, Note_on_c, 0, 68, 77
2, 18777, Note_off_c, 0, 63, 64
2, 18795, Note_off_c, 0, 56, 64
2, 18797, Note_off_c, 0, 51, 64
2, 18803, Note_off_c, 0, 60, 64
2, 18852, Note_on_c, 0, 50, 2
2, 18853, Note_on_c, 0, 71, 86
2, 18859, Note_on_c, 0, 60, 54
2, 18863, Note_on_c, 0, 53, 56
2, 18879, Note_off_c, 0, 68, 64
2, 18948, Note_on_c, 0, 72, 95
2, 18965, Note_off_c, 0, 71, 64
2, 18983, Note_off_c, 0, 50, 64
2, 18990, Note_off_c, 0, 60, 64
2, 18994, Note_off_c, 0, 53, 64
2, 19015, Note_off_c, 0, 44, 64
2, 19093, Note_on_c, 0, 74, 93
2, 19098, Note_on_c, 0, 43, 81
2, 19116, Note_off_c, 0, 72, 64
2, 19127, Control_c, 0, 64, 0
2, 19159, Control_c, 0, 64, 127
2, 19350, Note_on_c, 0, 55, 56
2, 19358, Note_on_c, 0, 75, 84
2, 19358, Note_on_c, 0, 65, 50
2, 19390, Note_off_c, 0, 74, 64
2, 19481, Note_off_c, 0, 55, 64
2, 19489, Note_off_c, 0, 65, 64
2, 19492, Note_on_c, 0, 79, 83
2, 19508, Note_off_c, 0, 75, 64
2, 19612, Note_on_c, 0, 77, 83
2, 19618, Note_on_c, 0, 65, 44
2, 19618, Note_on_c, 0, 55, 48
2, 19620, Note_on_c, 0, 62, 55
2, 19626, Note_off_c, 0, 79, 64
2, 19632, Control_c, 0, 64, 0
2, 19645, Note_off_c, 0, 43, 64
2, 19654, Control_c, 0, 64, 127
2, 19707, Note_on_c, 0, 71, 71
2, 19727, Note_off_c, 0, 77, 64
2, 19749, Note_off_c, 0, 55, 64
2, 19749, Note_off_c, 0, 65, 64
2, 19751, Note_off_c, 0, 62, 64
2, 19811, Note_on_c, 0, 48, 66
2, 19812, Note_on_c, 0, 72, 94
2, 19844, Control_c, 0, 64, 0
2, 19847, Note_off_c, 0, 71, 64
2, 19865, Control_c, 0, 64, 127
2, 20040, Note_on_c, 0, 60, 71
2, 20041, Note_on_c, 0, 63, 65
2, 20044, Note_on_c, 0, 55, 44
2, 20171, Note_off_c, 0, 60, 64
2, 20172, Note_off_c, 0, 63, 64
2, 20175, Note_off_c, 0, 55, 64
2, 20291, Note_on_c, 0, 63, 48
2, 20296, Note_on_c, 0, 67, 88
2, 20296, Note_on_c, 0, 55, 44
2, 20300, Note_on_c, 0, 60, 54
2, 20313, Note_off_c, 0, 72, 64
2, 20363, Note_off_c, 0, 48, 64
2, 20422, Note_off_c, 0, 63, 64
2, 20427, Note_off_c, 0, 55, 64
2, 20431, Note_off_c, 0, 60, 64
2, 20496, Note_on_c, 0, 67, 88
2, 20575, Note_on_c, 0, 43, 74
2, 20594, Note_on_c, 0, 74, 95
2, 20600, Note_off_c, 0, 67, 64
2, 20620, Control_c, 0, 64, 0
2, 20653, Control_c, 0, 64, 127
2, 20684, Note_off_c, 0, 67, 64
2, 20855, Note_on_c, 0, 55, 50
2, 20863, Note_on_c, 0, 59, 64
2, 20870, Note_on_c, 0, 65, 48
2, 20986, Note_off_c, 0, 55, 64
2, 20994, Note_off_c, 0, 59, 64
2, 21001, Note_off_c, 0, 65, 64
2, 21066, Note_on_c, 0, 75, 74
2, 21068, Note_on_c, 0, 55, 66
2, 21072, Note_on_c, 0, 62, 56
2, 21078, Note_on_c, 0, 65, 44
2, 21094, Note_off_c, 0, 74, 64
2, 21141, Note_off_c, 0, 43, 64
2, 21167, Note_on_c, 0, 71, 94
2, 21179, Note_off_c, 0, 75, 64
2, 21199, Note_off_c, 0, 55, 64
2, 21203, Note_off_c, 0, 62, 64
2, 21209, Note_off_c, 0, 65, 64
2, 21296, Note_on_c, 0, 72, 77
2, 21297, Note_on_c, 0, 48, 83
2, 21323, Note_off_c, 0, 71, 64
2, 21389, Note_off_c, 0, 72, 64
2, 21392, Note_on_c, 0, 74, 81
2, 21431, Note_on_c, 0, 72, 83
2, 21435, Note_off_c, 0, 74, 64
2, 21468, Note_off_c, 0, 72, 64
2, 21468, Note_on_c, 0, 74, 83
2, 21496, Note_on_c, 0, 72, 92
2, 21505, Note_off_c, 0, 74, 64
2, 21523, Note_on_c, 0, 71, 94
2, 21533, Note_off_c, 0, 72, 64
2, 21539, Note_on_c, 0, 63, 66
2, 21539, Note_on_c, 0, 55, 57
2, 21546, Note_on_c, 0, 60, 64
2, 21556, Control_c, 0, 64, 0
2, 21590, Control_c, 0, 64, 127
2, 21618, Note_on_c, 0, 72, 85
2, 21636, Note_off_c, 0, 71, 64
2, 21670, Note_off_c, 0, 55, 64
2, 21670, Note_off_c, 0, 63, 64
2, 21677, Note_off_c, 0, 60, 64
2, 21717, Note_on_c, 0, 74, 81
2, 21720, Note_on_c, 0, 63, 64
2, 21720, Note_on_c, 0, 55, 66
2, 21727, Note_on_c, 0, 60, 48
2, 21740, Note_off_c, 0, 72, 64
2, 21804, Note_on_c, 0, 75, 95
2, 21830, Note_off_c, 0, 48, 64
2, 21838, Note_off_c, 0, 74, 64
2, 21851, Note_off_c, 0, 55, 64
2, 21851, Note_off_c, 0, 63, 64
2, 21858, Note_off_c, 0, 60, 64
2, 21922, Note_on_c, 0, 44, 86
2, 21926, Note_on_c, 0, 77, 97
2, 21939, Control_c, 0, 64, 0
2, 21948, Note_off_c, 0, 75, 64
2, 21976, Control_c, 0, 64, 127
2, 22143, Note_on_c, 0, 56, 73
2, 22143, Note_on_c, 0, 76, 90
2, 22151, Note_on_c, 0, 65, 66
2, 22153, Note_on_c, 0, 60, 67
2, 22173, Note_off_c, 0, 77, 64
2, 22213, Note_off_c, 0, 44, 64
2, 22241, Note_on_c, 0, 77, 90
2, 22263, Note_off_c, 0, 76, 64
2, 22368, Note_on_c, 0, 72, 88
2, 22369, Note_off_c, 0, 56, 64
2, 22375, Note_on_c, 0, 38, 93
2, 22377, Note_off_c, 0, 65, 64
2, 22378, Note_on_c, 0, 79, 90
2, 22379, Note_off_c, 0, 60, 64
2, 22406, Note_off_c, 0, 77, 64
2, 22407, Control_c, 0, 64, 0
2, 22443, Control_c, 0, 64, 127
2, 22493, Note_on_c, 0, 80, 93
2, 22525, Note_off_c, 0, 79, 64
2, 22624, Note_off_c, 0, 38, 64
2, 22642, Note_on_c, 0, 79, 82
2, 22643, Note_off_c, 0, 72, 64
2, 22647, Note_on_c, 0, 43, 85
2, 22675, Note_off_c, 0, 80, 64
2, 22680, Control_c, 0, 64, 0
2, 22732, Control_c, 0, 64, 127
2, 22763, Note_on_c, 0, 71, 93
2, 22907, Note_on_c, 0, 76, 77
2, 23058, Note_on_c, 0, 75, 71
2, 23074, Note_off_c, 0, 71, 64
2, 23100, Note_off_c, 0, 76, 64
2, 23184, Note_on_c, 0, 74, 72
2, 23202, Note_off_c, 0, 75, 64
2, 23252, Note_off_c, 0, 43, 64
2, 23307, Note_on_c, 0, 73, 66
2, 23324, Note_off_c, 0, 74, 64
2, 23435, Note_on_c, 0, 72, 65
2, 23445, Control_c, 0, 64, 0
2, 23449, Note_off_c, 0, 73, 64
2, 23490, Control_c, 0, 64, 127
2, 23678, Note_off_c, 0, 72, 64
2, 23782, Note_on_c, 0, 62, 42
2, 23788, Note_on_c, 0, 69, 41
2, 23792, Note_on_c, 0, 77, 86
2, 23795, Note_on_c, 0, 72, 64
2, 23802, Note_off_c, 0, 79, 64
2, 23852, Control_c, 0, 64, 0
2, 23864, Control_c, 0, 64, 127
2, 23919, Note_on_c, 0, 78, 85
2, 23934, Note_off_c, 0, 62, 64
2, 23942, Note_off_c, 0, 72, 64
2, 23948, Note_off_c, 0, 69, 64
2, 23956, Note_off_c, 0, 77, 64
2, 24038, Note_on_c, 0, 72, 75
2, 24040, Note_on_c, 0, 66, 62
2, 24047, Note_on_c, 0, 83, 83
2, 24047, Note_on_c, 0, 62, 57
2, 24060, Note_off_c, 0, 78, 64
2, 24064, Control_c, 0, 64, 0
2, 24097, Control_c, 0, 64, 127
2, 24145, Note_on_c, 0, 81, 82
2, 24178, Note_off_c, 0, 83, 64
2, 24288, Note_on_c, 0, 74, 74
2, 24311, Note_off_c, 0, 66, 64
2, 24313, Note_off_c, 0, 62, 64
2, 24333, Note_off_c, 0, 81, 64
2, 24414, Note_off_c, 0, 72, 64
2, 24519, Note_on_c, 0, 55, 24
2, 24533, Note_on_c, 0, 77, 73
2, 24533, Note_on_c, 0, 71, 57
2, 24533, Note_on_c, 0, 62, 44
2, 24555, Control_c, 0, 64, 0
2, 24560, Note_off_c, 0, 74, 64
2, 24591, Control_c, 0, 64, 127
2, 24648, Note_on_c, 0, 64, 52
2, 24652, Note_on_c, 0, 72, 67
2, 24681, Note_off_c, 0, 62, 64
2, 24723, Note_off_c, 0, 55, 64
2, 24767, Note_on_c, 0, 76, 64
2, 24772, Note_on_c, 0, 55, 31
2, 24773, Note_on_c, 0, 67, 50
2, 24777, Note_off_c, 0, 72, 64
2, 24793, Note_off_c, 0, 64, 64
2, 24835, Control_c, 0, 64, 0
2, 24846, Note_off_c, 0, 71, 64
2, 24871, Note_on_c, 0, 65, 59
2, 24871, Control_c, 0, 64, 127
2, 24879, Note_on_c, 0, 74, 64
2, 24887, Note_off_c, 0, 67, 64
2, 24900, Note_off_c, 0, 76, 64
2, 25008, Note_on_c, 0, 70, 72
2, 25012, Note_on_c, 0, 61, 50
2, 25029, Note_off_c, 0, 55, 64
2, 25034, Note_off_c, 0, 65, 64
2, 25042, Note_off_c, 0, 74, 64
2, 25118, Note_off_c, 0, 77, 64
2, 25215, Note_off_c, 0, 70, 64
2, 25219, Note_off_c, 0, 61, 64
2, 25252, Note_on_c, 0, 65, 52
2, 25258, Note_on_c, 0, 70, 75
2, 25258, Note_on_c, 0, 76, 66
2, 25274, Note_on_c, 0, 60, 41
2, 25363, Note_off_c, 0, 76, 64
2, 25363, Note_on_c, 0, 77, 73
2, 25391, Note_off_c, 0, 70, 64
2, 25400, Note_off_c, 0, 60, 64
2, 25477, Note_on_c, 0, 81, 65
2, 25481, Note_on_c, 0, 64, 62
2, 25483, Note_on_c, 0, 70, 71
2, 25491, Note_off_c, 0, 65, 64
2, 25505, Note_off_c, 0, 77, 64
2, 25513, Control_c, 0, 64, 0
2, 25526, Control_c, 0, 64, 127
2, 25575, Note_on_c, 0, 79, 65
2, 25600, Note_off_c, 0, 81, 64
2, 25719, Note_on_c, 0, 63, 47
2, 25722, Note_on_c, 0, 72, 71
2, 25746, Note_off_c, 0, 79, 64
2, 25755, Control_c, 0, 64, 0
2, 25769, Control_c, 0, 64, 127
2, 25777, Note_off_c, 0, 64, 64
2, 25854, Note_off_c, 0, 63, 64
2, 25951, Note_on_c, 0, 75, 74
2, 25951, Note_on_c, 0, 60, 50
2, 25954, Note_on_c, 0, 53, 41
2, 25954, Note_on_c, 0, 69, 66
2, 25975, Note_off_c, 0, 72, 64
2, 25983, Note_off_c, 0, 70, 64
2, 25988, Control_c, 0, 64, 0
2, 26010, Control_c, 0, 64, 127
2, 26052, Note_on_c, 0, 62, 66
2, 26057, Note_on_c, 0, 70, 74
2, 26109, Note_off_c, 0, 60, 64
2, 26185, Note_on_c, 0, 65, 73
2, 26185, Note_on_c, 0, 74, 67
2, 26191, Note_off_c, 0, 62, 64
2, 26196, Note_off_c, 0, 70, 64
2, 26292, Note_on_c, 0, 72, 71
2, 26296, Note_on_c, 0, 63, 44
2, 26301, Note_off_c, 0, 65, 64
2, 26301, Note_off_c, 0, 69, 64
2, 26329, Note_off_c, 0, 74, 64
2, 26357, Note_off_c, 0, 53, 64
2, 26416, Note_on_c, 0, 59, 64
2, 26423, Note_on_c, 0, 68, 81
2, 26435, Note_off_c, 0, 72, 64
2, 26439, Note_off_c, 0, 63, 64
2, 26535, Note_off_c, 0, 75, 64
2, 26592, Note_off_c, 0, 59, 64
2, 26595, Note_off_c, 0, 68, 64
2, 26646, Note_on_c, 0, 58, 59
2, 26652, Note_on_c, 0, 74, 75
2, 26654, Note_on_c, 0, 63, 55
2, 26658, Note_on_c, 0, 68, 75
2, 26695, Control_c, 0, 64, 0
2, 26708, Control_c, 0, 64, 127
2, 26761, Note_on_c, 0, 75, 72
2, 26774, Note_off_c, 0, 68, 64
2, 26789, Note_off_c, 0, 74, 64
2, 26866, Note_off_c, 0, 58, 64
2, 26872, Note_on_c, 0, 58, 50
2, 26875, Note_on_c, 0, 62, 50
2, 26875, Note_on_c, 0, 79, 65
2, 26882, Note_off_c, 0, 75, 64
2, 26882, Note_on_c, 0, 68, 81
2, 26892, Note_off_c, 0, 63, 64
2, 26910, Control_c, 0, 64, 0
2, 26936, Control_c, 0, 64, 127
2, 26972, Note_on_c, 0, 77, 71
2, 27001, Note_off_c, 0, 79, 64
2, 27097, Note_on_c, 0, 70, 74
2, 27108, Control_c, 0, 64, 0
2, 27110, Note_off_c, 0, 77, 64
2, 27142, Control_c, 0, 64, 127
2, 27149, Note_off_c, 0, 62, 64
2, 27163, Note_off_c, 0, 58, 64
2, 27322, Note_on_c, 0, 67, 66
2, 27323, Note_off_c, 0, 68, 64
2, 27324, Note_on_c, 0, 73, 72
2, 27330, Note_on_c, 0, 58, 32
2, 27335, Note_on_c, 0, 52, 55
2, 27348, Control_c, 0, 64, 0
2, 27372, Control_c, 0, 64, 127
2, 27432, Note_on_c, 0, 66, 75
2, 27434, Note_on_c, 0, 51, 59
2, 27444, Note_off_c, 0, 52, 64
2, 27454, Note_off_c, 0, 67, 64
2, 27536, Note_off_c, 0, 51, 64
2, 27542, Note_on_c, 0, 67, 66
2, 27542, Note_on_c, 0, 51, 65
2, 27547, Note_off_c, 0, 58, 64
2, 27552, Note_on_c, 0, 58, 65
2, 27564, Control_c, 0, 64, 0
2, 27587, Control_c, 0, 64, 127
2, 27614, Note_off_c, 0, 66, 64
2, 27748, Note_off_c, 0, 51, 64
2, 27757, Note_off_c, 0, 67, 64
2, 27759, Note_off_c, 0, 58, 64
2, 27759, Note_on_c, 0, 69, 72
2, 27760, Note_on_c, 0, 51, 50
2, 27760, Note_on_c, 0, 60, 54
2, 27791, Control_c, 0, 64, 0
2, 27804, Control_c, 0, 64, 127
2, 27830, Note_off_c, 0, 70, 64
2, 27955, Note_off_c, 0, 51, 64
2, 27968, Note_on_c, 0, 51, 40
2, 27972, Note_on_c, 0, 72, 66
2, 27978, Note_on_c, 0, 66, 66
2, 27980, Note_on_c, 0, 57, 44
2, 27996, Note_off_c, 0, 60, 64
2, 28010, Control_c, 0, 64, 0
2, 28025, Note_off_c, 0, 73, 64
2, 28049, Control_c, 0, 64, 127
2, 28080, Note_on_c, 0, 50, 44
2, 28083, Note_on_c, 0, 65, 62
2, 28091, Note_off_c, 0, 66, 64
2, 28095, Note_off_c, 0, 51, 64
2, 28176, Note_off_c, 0, 50, 64
2, 28187, Note_on_c, 0, 50, 52
2, 28190, Note_on_c, 0, 66, 79
2, 28204, Control_c, 0, 64, 0
2, 28220, Control_c, 0, 64, 127
2, 28233, Note_off_c, 0, 65, 64
2, 28264, Note_off_c, 0, 57, 64
2, 28353, Note_off_c, 0, 50, 64
2, 28392, Note_on_c, 0, 50, 1
2, 28399, Note_on_c, 0, 68, 64
2, 28400, Note_on_c, 0, 59, 48
2, 28416, Control_c, 0, 64, 0
2, 28439, Control_c, 0, 64, 127
2, 28450, Note_off_c, 0, 69, 64
2, 28550, Note_off_c, 0, 50, 64
2, 28556, Note_off_c, 0, 59, 64
2, 28605, Note_off_c, 0, 66, 64
2, 28636, Note_on_c, 0, 56, 44
2, 28639, Note_on_c, 0, 50, 44
2, 28645, Note_on_c, 0, 71, 64
2, 28646, Note_on_c, 0, 65, 59
2, 28724, Note_off_c, 0, 72, 64
2, 28777, Note_on_c, 0, 64, 63
2, 28796, Note_off_c, 0, 65, 64
2, 28877, Note_off_c, 0, 56, 64
2, 28924, Note_on_c, 0, 65, 65
2, 28936, Note_on_c, 0, 49, 50
2, 28937, Note_off_c, 0, 64, 64
2, 28937, Note_on_c, 0, 56, 37
2, 28962, Control_c, 0, 64, 0
2, 28974, Note_off_c, 0, 50, 64
2, 28983, Control_c, 0, 64, 127
2, 29256, Note_on_c, 0, 48, 64
2, 29265, Note_off_c, 0, 56, 64
2, 29296, Note_on_c, 0, 72, 85
2, 29319, Note_off_c, 0, 49, 64
2, 29340, Control_c, 0, 64, 0
2, 29346, Note_off_c, 0, 68, 64
2, 29351, Note_off_c, 0, 71, 64
2, 29392, Control_c, 0, 64, 127
2, 29694, Note_off_c, 0, 65, 64
2, 29708, Note_on_c, 0, 56, 42
2, 29708, Note_on_c, 0, 60, 55
2, 29709, Note_on_c, 0, 65, 41
2, 29846, Note_off_c, 0, 56, 64
2, 29849, Note_off_c, 0, 65, 64
2, 29868, Note_off_c, 0, 60, 64
2, 29900, Note_off_c, 0, 48, 64
2, 29916, Note_on_c, 0, 73, 73
2, 29942, Note_off_c, 0, 72, 64
2, 29996, Note_off_c, 0, 73, 64
2, 30079, Note_on_c, 0, 56, 44
2, 30085, Note_on_c, 0, 73, 79
2, 30085, Note_on_c, 0, 60, 55
2, 30091, Note_on_c, 0, 65, 37
2, 30117, Control_c, 0, 64, 0
2, 30148, Control_c, 0, 64, 127
2, 30215, Note_on_c, 0, 72, 62
2, 30238, Note_off_c, 0, 73, 64
2, 30338, Note_off_c, 0, 60, 64
2, 30383, Note_on_c, 0, 71, 67
2, 30390, Note_off_c, 0, 72, 64
2, 30399, Note_off_c, 0, 56, 64
2, 30418, Note_on_c, 0, 72, 71
2, 30426, Note_off_c, 0, 71, 64
2, 30456, Note_on_c, 0, 71, 66
2, 30472, Note_off_c, 0, 72, 64
2, 30481, Note_off_c, 0, 65, 64
2, 30511, Note_on_c, 0, 70, 74
2, 30514, Note_off_c, 0, 71, 64
2, 30602, Note_on_c, 0, 62, 57
2, 30602, Note_on_c, 0, 65, 44
2, 30609, Note_on_c, 0, 55, 36
2, 30609, Note_on_c, 0, 71, 77
2, 30631, Note_off_c, 0, 70, 64
2, 30635, Control_c, 0, 64, 0
2, 30649, Control_c, 0, 64, 127
2, 30819, Control_c, 0, 64, 0
2, 30833, Control_c, 0, 64, 127
2, 30876, Note_off_c, 0, 62, 64
2, 30886, Note_off_c, 0, 65, 64
2, 30893, Note_off_c, 0, 55, 64
2, 30906, Note_on_c, 0, 55, 54
2, 30908, Note_on_c, 0, 65, 44
2, 30910, Note_on_c, 0, 61, 54
2, 30913, Note_on_c, 0, 79, 81
2, 30956, Control_c, 0, 64, 0
2, 30963, Note_off_c, 0, 71, 64
2, 30996, Control_c, 0, 64, 127
2, 31152, Note_on_c, 0, 70, 79
2, 31154, Note_off_c, 0, 79, 64
2, 31165, Note_off_c, 0, 55, 64
2, 31172, Note_off_c, 0, 65, 64
2, 31174, Note_off_c, 0, 61, 64
2, 31391, Note_on_c, 0, 61, 33
2, 31395, Note_on_c, 0, 54, 33
2, 31401, Note_on_c, 0, 64, 36
2, 31449, Control_c, 0, 64, 0
2, 31480, Control_c, 0, 64, 127
2, 31511, Note_off_c, 0, 61, 64
2, 31516, Note_off_c, 0, 64, 64
2, 31516, Note_off_c, 0, 54, 64
2, 31519, Note_on_c, 0, 72, 69
2, 31545, Note_off_c, 0, 70, 64
2, 31584, Note_off_c, 0, 72, 64
2, 31640, Note_on_c, 0, 54, 33
2, 31647, Note_on_c, 0, 63, 40
2, 31653, Note_on_c, 0, 72, 73
2, 31655, Note_on_c, 0, 60, 50
2, 31691, Control_c, 0, 64, 0
2, 31727, Control_c, 0, 64, 127
2, 31757, Note_on_c, 0, 70, 85
2, 31783, Note_off_c, 0, 72, 64
2, 31902, Note_off_c, 0, 54, 64
2, 31902, Note_on_c, 0, 69, 75
2, 31914, Note_off_c, 0, 70, 64
2, 31931, Note_off_c, 0, 63, 64
2, 31934, Note_off_c, 0, 60, 64
2, 31950, Note_on_c, 0, 70, 82
2, 31956, Note_off_c, 0, 69, 64
2, 31994, Note_on_c, 0, 69, 71
2, 32002, Note_off_c, 0, 70, 64
2, 32046, Note_on_c, 0, 68, 81
2, 32052, Note_off_c, 0, 69, 64
2, 32106, Note_on_c, 0, 60, 50
2, 32106, Note_on_c, 0, 53, 50
2, 32110, Note_on_c, 0, 63, 44
2, 32119, Note_on_c, 0, 69, 71
2, 32131, Control_c, 0, 64, 0
2, 32143, Note_off_c, 0, 68, 64
2, 32164, Control_c, 0, 64, 127
2, 32206, Note_off_c, 0, 53, 64
2, 32219, Note_off_c, 0, 60, 64
2, 32226, Note_off_c, 0, 63, 64
2, 32362, Note_on_c, 0, 77, 77
2, 32366, Note_on_c, 0, 53, 44
2, 32366, Note_on_c, 0, 59, 35
2, 32366, Note_on_c, 0, 63, 33
2, 32378, Note_off_c, 0, 69, 64
2, 32417, Control_c, 0, 64, 0
2, 32459, Control_c, 0, 64, 127
2, 32681, Note_on_c, 0, 68, 79
2, 32689, Note_off_c, 0, 77, 64
2, 32711, Note_off_c, 0, 59, 64
2, 32735, Note_off_c, 0, 63, 64
2, 32738, Note_off_c, 0, 53, 64
2, 32938, Note_on_c, 0, 53, 41
2, 32948, Note_on_c, 0, 59, 48
2, 32948, Note_on_c, 0, 62, 37
2, 32988, Control_c, 0, 64, 0
2, 33009, Control_c, 0, 64, 127
2, 33043, Note_off_c, 0, 53, 64
2, 33060, Note_on_c, 0, 70, 75
2, 33068, Note_off_c, 0, 59, 64
2, 33075, Note_off_c, 0, 62, 64
2, 33095, Note_off_c, 0, 68, 64
2, 33125, Note_off_c, 0, 70, 64
2, 33203, Note_on_c, 0, 59, 55
2, 33209, Note_on_c, 0, 70, 77
2, 33212, Note_on_c, 0, 62, 41
2, 33212, Note_on_c, 0, 52, 50
2, 33264, Control_c, 0, 64, 0
2, 33294, Control_c, 0, 64, 127
2, 33328, Note_on_c, 0, 68, 77
2, 33333, Note_off_c, 0, 70, 64
2, 33480, Note_on_c, 0, 67, 79
2, 33488, Note_off_c, 0, 68, 64
2, 33490, Note_off_c, 0, 52, 64
2, 33510, Note_off_c, 0, 62, 64
2, 33510, Note_off_c, 0, 59, 64
2, 33532, Note_on_c, 0, 68, 85
2, 33536, Note_off_c, 0, 67, 64
2, 33584, Note_on_c, 0, 67, 79
2, 33596, Note_off_c, 0, 68, 64
2, 33616, Note_on_c, 0, 66, 86
2, 33642, Note_off_c, 0, 67, 64
2, 33671, Note_on_c, 0, 58, 44
2, 33672, Note_on_c, 0, 67, 77
2, 33674, Note_on_c, 0, 52, 44
2, 33683, Note_on_c, 0, 61, 37
2, 33686, Note_off_c, 0, 66, 64
2, 33714, Control_c, 0, 64, 0
2, 33749, Control_c, 0, 64, 127
2, 33786, Note_off_c, 0, 52, 64
2, 33802, Note_off_c, 0, 61, 64
2, 33806, Note_off_c, 0, 58, 64
2, 33996, Note_on_c, 0, 58, 44
2, 34004, Note_on_c, 0, 73, 79
2, 34005, Note_on_c, 0, 53, 40
2, 34011, Note_on_c, 0, 65, 36
2, 34029, Note_off_c, 0, 67, 64
2, 34051, Control_c, 0, 64, 0
2, 34079, Control_c, 0, 64, 127
2, 34224, Note_off_c, 0, 58, 64
2, 34257, Note_on_c, 0, 72, 83
2, 34291, Note_off_c, 0, 65, 64
2, 34293, Note_off_c, 0, 53, 64
2, 34294, Note_off_c, 0, 73, 64
2, 34543, Note_on_c, 0, 55, 31
2, 34543, Note_on_c, 0, 64, 46
2, 34546, Note_on_c, 0, 58, 33
2, 34553, Note_on_c, 0, 61, 20
2, 34627, Note_off_c, 0, 61, 64
2, 34635, Note_off_c, 0, 55, 64
2, 34635, Note_off_c, 0, 58, 64
2, 34661, Note_on_c, 0, 70, 73
2, 34679, Note_off_c, 0, 72, 64
2, 34707, Note_off_c, 0, 64, 64
2, 34792, Note_on_c, 0, 68, 83
2, 34798, Note_on_c, 0, 48, 31
2, 34802, Note_on_c, 0, 64, 54
2, 34807, Note_on_c, 0, 58, 33
2, 34814, Note_off_c, 0, 70, 64
2, 34833, Control_c, 0, 64, 0
2, 34866, Control_c, 0, 64, 127
2, 34912, Note_on_c, 0, 67, 75
2, 34928, Note_off_c, 0, 64, 64
2, 34935, Note_off_c, 0, 68, 64
2, 34964, Note_off_c, 0, 58, 64
2, 34977, Note_off_c, 0, 48, 64
2, 35034, Note_on_c, 0, 70, 73
2, 35070, Note_off_c, 0, 67, 64
2, 35134, Note_on_c, 0, 68, 73
2, 35178, Note_off_c, 0, 70, 64
2, 35244, Note_on_c, 0, 65, 76
2, 35257, Note_off_c, 0, 68, 64
2, 35262, Note_on_c, 0, 41, 59
2, 35271, Control_c, 0, 64, 0
2, 35292, Control_c, 0, 64, 127
2, 35351, Note_on_c, 0, 67, 77
2, 35374, Note_off_c, 0, 65, 64
2, 35472, Note_on_c, 0, 68, 83
2, 35485, Note_on_c, 0, 53, 71
2, 35485, Note_on_c, 0, 56, 41
2, 35485, Note_on_c, 0, 61, 44
2, 35508, Note_off_c, 0, 67, 64
2, 35512, Control_c, 0, 64, 0
2, 35547, Control_c, 0, 64, 127
2, 35584, Note_on_c, 0, 71, 73
2, 35611, Note_off_c, 0, 68, 64
2, 35720, Note_on_c, 0, 72, 79
2, 35728, Note_off_c, 0, 71, 64
2, 35748, Note_off_c, 0, 56, 64
2, 35762, Control_c, 0, 64, 0
2, 35774, Control_c, 0, 64, 127
2, 35790, Note_off_c, 0, 53, 64
2, 35799, Note_off_c, 0, 41, 64
2, 35803, Note_off_c, 0, 61, 64
2, 35970, Note_on_c, 0, 53, 41
2, 35974, Note_on_c, 0, 60, 42
2, 35980, Note_on_c, 0, 56, 29
2, 36016, Control_c, 0, 64, 0
2, 36048, Control_c, 0, 64, 127
2, 36068, Note_off_c, 0, 56, 64
2, 36084, Note_on_c, 0, 73, 66
2, 36087, Note_off_c, 0, 53, 64
2, 36101, Note_off_c, 0, 60, 64
2, 36117, Note_off_c, 0, 72, 64
2, 36198, Note_on_c, 0, 71, 66
2, 36206, Note_on_c, 0, 56, 57
2, 36209, Note_on_c, 0, 65, 44
2, 36211, Note_on_c, 0, 60, 55
2, 36223, Note_off_c, 0, 73, 64
2, 36244, Control_c, 0, 64, 0
2, 36264, Control_c, 0, 64, 127
2, 36312, Note_on_c, 0, 73, 71
2, 36340, Note_off_c, 0, 71, 64
2, 36422, Note_on_c, 0, 72, 71
2, 36441, Note_off_c, 0, 56, 64
2, 36443, Note_off_c, 0, 60, 64
2, 36445, Note_off_c, 0, 73, 64
2, 36460, Note_off_c, 0, 65, 64
2, 36522, Note_on_c, 0, 70, 73
2, 36551, Note_off_c, 0, 72, 64
2, 36651, Note_on_c, 0, 71, 66
2, 36660, Note_on_c, 0, 55, 44
2, 36661, Note_on_c, 0, 62, 44
2, 36666, Note_on_c, 0, 65, 33
2, 36683, Control_c, 0, 64, 0
2, 36689, Note_off_c, 0, 70, 64
2, 36695, Control_c, 0, 64, 127
2, 36758, Note_off_c, 0, 55, 64
2, 36767, Note_off_c, 0, 62, 64
2, 36772, Note_off_c, 0, 65, 64
2, 36778, Note_on_c, 0, 80, 71
2, 36826, Note_off_c, 0, 71, 64
2, 36926, Note_on_c, 0, 61, 50
2, 36926, Note_on_c, 0, 55, 41
2, 36932, Note_on_c, 0, 79, 72
2, 36941, Note_on_c, 0, 65, 33
2, 36965, Note_off_c, 0, 80, 64
2, 36983, Control_c, 0, 64, 0
2, 37017, Control_c, 0, 64, 127
2, 37065, Note_on_c, 0, 71, 66
2, 37073, Note_off_c, 0, 79, 64
2, 37190, Note_on_c, 0, 70, 71
2, 37204, Note_off_c, 0, 71, 64
2, 37214, Note_off_c, 0, 65, 64
2, 37226, Note_off_c, 0, 61, 64
2, 37229, Note_off_c, 0, 55, 64
2, 37432, Note_on_c, 0, 55, 57
2, 37432, Note_on_c, 0, 61, 39
2, 37432, Note_on_c, 0, 64, 37
2, 37479, Control_c, 0, 64, 0
2, 37492, Control_c, 0, 64, 127
2, 37550, Note_on_c, 0, 72, 73
2, 37554, Note_off_c, 0, 64, 64
2, 37554, Note_off_c, 0, 61, 64
2, 37554, Note_off_c, 0, 55, 64
2, 37583, Note_off_c, 0, 70, 64
2, 37628, Note_off_c, 0, 72, 64
2, 37664, Note_on_c, 0, 72, 75
2, 37671, Note_on_c, 0, 54, 46
2, 37677, Note_on_c, 0, 61, 33
2, 37680, Note_on_c, 0, 64, 33
2, 37721, Control_c, 0, 64, 0
2, 37757, Control_c, 0, 64, 127
2, 37772, Note_on_c, 0, 70, 66
2, 37810, Note_off_c, 0, 72, 64
2, 37845, Note_off_c, 0, 70, 64
2, 37894, Note_on_c, 0, 70, 76
2, 37954, Note_off_c, 0, 64, 64
2, 37954, Note_off_c, 0, 54, 64
2, 37961, Note_off_c, 0, 61, 64
2, 38012, Note_on_c, 0, 68, 83
2, 38039, Note_off_c, 0, 70, 64
2, 38124, Note_on_c, 0, 69, 75
2, 38135, Note_on_c, 0, 63, 50
2, 38140, Note_off_c, 0, 68, 64
2, 38140, Note_on_c, 0, 60, 44
2, 38145, Note_on_c, 0, 53, 41
2, 38176, Control_c, 0, 64, 0
2, 38208, Control_c, 0, 64, 127
2, 38261, Note_on_c, 0, 78, 59
2, 38270, Note_off_c, 0, 53, 64
2, 38271, Note_off_c, 0, 63, 64
2, 38284, Note_off_c, 0, 60, 64
2, 38285, Note_off_c, 0, 69, 64
2, 38400, Note_on_c, 0, 77, 73
2, 38401, Note_on_c, 0, 63, 32
2, 38407, Note_on_c, 0, 53, 31
2, 38415, Note_on_c, 0, 59, 47
2, 38422, Note_off_c, 0, 78, 64
2, 38447, Control_c, 0, 64, 0
2, 38477, Control_c, 0, 64, 127
2, 38519, Note_on_c, 0, 69, 71
2, 38536, Note_off_c, 0, 77, 64
2, 38646, Note_on_c, 0, 68, 73
2, 38669, Note_off_c, 0, 69, 64
2, 38688, Control_c, 0, 64, 0
2, 38700, Control_c, 0, 64, 127
2, 38725, Note_off_c, 0, 59, 64
2, 38725, Note_off_c, 0, 53, 64
2, 38738, Note_off_c, 0, 63, 64
2, 38904, Note_on_c, 0, 59, 40
2, 38906, Note_on_c, 0, 53, 35
2, 38912, Note_on_c, 0, 63, 33
2, 39033, Note_off_c, 0, 53, 64
2, 39049, Note_on_c, 0, 71, 65
2, 39058, Note_off_c, 0, 59, 64
2, 39071, Note_off_c, 0, 63, 64
2, 39133, Note_off_c, 0, 68, 64
2, 39199, Note_on_c, 0, 70, 79
2, 39209, Note_off_c, 0, 71, 64
2, 39213, Note_on_c, 0, 52, 50
2, 39220, Note_on_c, 0, 59, 47
2, 39223, Note_on_c, 0, 62, 33
2, 39246, Control_c, 0, 64, 0
2, 39281, Control_c, 0, 64, 127
2, 39312, Note_on_c, 0, 68, 74
2, 39328, Note_off_c, 0, 70, 64
2, 39439, Note_on_c, 0, 67, 77
2, 39466, Note_off_c, 0, 68, 64
2, 39498, Note_off_c, 0, 52, 64
2, 39510, Note_off_c, 0, 59, 64
2, 39517, Note_off_c, 0, 62, 64
2, 39700, Note_on_c, 0, 68, 66
2, 39708, Note_on_c, 0, 58, 32
2, 39720, Note_on_c, 0, 52, 31
2, 39723, Note_on_c, 0, 62, 31
2, 39755, Note_off_c, 0, 67, 64
2, 39829, Note_on_c, 0, 69, 62
2, 39834, Note_off_c, 0, 52, 64
2, 39850, Note_off_c, 0, 62, 64
2, 39852, Note_off_c, 0, 58, 64
2, 39858, Note_off_c, 0, 68, 64
2, 39972, Note_on_c, 0, 70, 75
2, 39984, Note_on_c, 0, 56, 54
2, 39988, Note_on_c, 0, 62, 44
2, 39992, Note_on_c, 0, 52, 35
2, 39995, Note_off_c, 0, 69, 64
2, 40106, Note_on_c, 0, 71, 65
2, 40135, Note_off_c, 0, 70, 64
2, 40198, Note_off_c, 0, 52, 64
2, 40204, Note_off_c, 0, 56, 64
2, 40224, Note_off_c, 0, 62, 64
2, 40236, Note_on_c, 0, 73, 73
2, 40250, Note_on_c, 0, 45, 59
2, 40259, Control_c, 0, 64, 0
2, 40266, Note_off_c, 0, 71, 64
2, 40289, Control_c, 0, 64, 127
2, 40354, Note_on_c, 0, 74, 65
2, 40375, Note_off_c, 0, 73, 64
2, 40464, Note_on_c, 0, 75, 65
2, 40473, Note_on_c, 0, 61, 33
2, 40477, Note_on_c, 0, 52, 44
2, 40484, Note_off_c, 0, 74, 64
2, 40493, Control_c, 0, 64, 0
2, 40528, Control_c, 0, 64, 127
2, 40580, Note_off_c, 0, 45, 64
2, 40580, Note_on_c, 0, 76, 64
2, 40591, Note_off_c, 0, 75, 64
2, 40689, Note_on_c, 0, 81, 65
2, 40699, Note_off_c, 0, 61, 64
2, 40704, Note_off_c, 0, 52, 64
2, 40747, Note_off_c, 0, 76, 64
2, 40790, Note_on_c, 0, 80, 73
2, 40814, Note_off_c, 0, 81, 64
2, 40899, Note_on_c, 0, 78, 71
2, 40902, Note_on_c, 0, 45, 55
2, 40920, Control_c, 0, 64, 0
2, 40925, Note_off_c, 0, 80, 64
2, 40938, Control_c, 0, 64, 127
2, 41004, Note_on_c, 0, 76, 64
2, 41023, Note_off_c, 0, 78, 64
2, 41102, Note_on_c, 0, 54, 65
2, 41107, Note_on_c, 0, 74, 59
2, 41111, Note_on_c, 0, 62, 44
2, 41130, Note_off_c, 0, 76, 64
2, 41195, Note_on_c, 0, 68, 81
2, 41210, Note_off_c, 0, 45, 64
2, 41212, Note_off_c, 0, 62, 64
2, 41219, Note_off_c, 0, 74, 64
2, 41223, Note_off_c, 0, 54, 64
2, 41304, Note_on_c, 0, 52, 64
2, 41310, Note_on_c, 0, 62, 50
2, 41311, Note_on_c, 0, 69, 65
2, 41326, Note_off_c, 0, 68, 64
2, 41331, Control_c, 0, 64, 0
2, 41356, Control_c, 0, 64, 127
2, 41380, Note_off_c, 0, 62, 64
2, 41386, Note_off_c, 0, 52, 64
2, 41408, Note_on_c, 0, 71, 67
2, 41435, Note_off_c, 0, 69, 64
2, 41507, Note_on_c, 0, 73, 71
2, 41521, Note_on_c, 0, 45, 64
2, 41529, Control_c, 0, 64, 0
2, 41534, Note_off_c, 0, 71, 64
2, 41555, Control_c, 0, 64, 127
2, 41605, Note_on_c, 0, 74, 72
2, 41627, Note_off_c, 0, 73, 64
2, 41704, Note_on_c, 0, 75, 71
2, 41710, Note_on_c, 0, 52, 54
2, 41716, Note_on_c, 0, 61, 36
2, 41719, Note_off_c, 0, 74, 64
2, 41784, Note_off_c, 0, 52, 64
2, 41791, Note_off_c, 0, 61, 64
2, 41802, Note_on_c, 0, 76, 66
2, 41827, Note_off_c, 0, 75, 64
2, 41907, Note_on_c, 0, 61, 50
2, 41912, Note_on_c, 0, 81, 73
2, 41922, Note_on_c, 0, 52, 55
2, 41928, Note_off_c, 0, 45, 64
2, 41943, Note_off_c, 0, 76, 64
2, 41997, Note_on_c, 0, 80, 66
2, 42002, Note_off_c, 0, 52, 64
2, 42011, Note_off_c, 0, 61, 64
2, 42018, Note_off_c, 0, 81, 64
2, 42100, Note_on_c, 0, 78, 65
2, 42109, Note_on_c, 0, 45, 63
2, 42118, Control_c, 0, 64, 0
2, 42125, Note_off_c, 0, 80, 64
2, 42141, Control_c, 0, 64, 127
2, 42192, Note_on_c, 0, 76, 71
2, 42208, Note_off_c, 0, 78, 64
2, 42298, Note_on_c, 0, 74, 59
2, 42302, Note_on_c, 0, 54, 57
2, 42308, Note_on_c, 0, 62, 47
2, 42319, Note_off_c, 0, 76, 64
2, 42381, Note_off_c, 0, 62, 64
2, 42391, Note_on_c, 0, 68, 73
2, 42396, Note_off_c, 0, 54, 64
2, 42418, Note_off_c, 0, 74, 64
2, 42498, Note_on_c, 0, 69, 73
2, 42509, Note_on_c, 0, 52, 42
2, 42511, Note_on_c, 0, 62, 44
2, 42512, Note_off_c, 0, 68, 64
2, 42574, Note_off_c, 0, 62, 64
2, 42587, Note_off_c, 0, 52, 64
2, 42600, Note_on_c, 0, 71, 82
2, 42626, Note_off_c, 0, 69, 64
2, 42649, Note_off_c, 0, 45, 64
2, 42760, Note_on_c, 0, 73, 73
2, 42768, Note_on_c, 0, 45, 50
2, 42783, Note_off_c, 0, 71, 64
2, 42806, Control_c, 0, 64, 0
2, 42864, Control_c, 0, 64, 127
2, 43032, Note_on_c, 0, 71, 65
2, 43054, Note_off_c, 0, 73, 64
2, 43163, Note_on_c, 0, 72, 71
2, 43185, Note_off_c, 0, 71, 64
2, 43207, Note_off_c, 0, 45, 64
2, 43291, Note_on_c, 0, 77, 56
2, 43304, Note_on_c, 0, 63, 33
2, 43307, Note_on_c, 0, 53, 33
2, 43310, Note_on_c, 0, 60, 37
2, 43319, Note_off_c, 0, 72, 64
2, 43326, Control_c, 0, 64, 0
2, 43337, Control_c, 0, 64, 127
2, 43380, Note_off_c, 0, 60, 64
2, 43382, Note_off_c, 0, 63, 64
2, 43392, Note_off_c, 0, 53, 64
2, 43419, Note_on_c, 0, 76, 65
2, 43459, Note_off_c, 0, 77, 64
2, 43529, Note_on_c, 0, 75, 47
2, 43533, Note_on_c, 0, 46, 65
2, 43558, Note_off_c, 0, 76, 64
2, 43569, Control_c, 0, 64, 0
2, 43584, Control_c, 0, 64, 127
2, 43637, Note_on_c, 0, 74, 57
2, 43663, Note_off_c, 0, 75, 64
2, 43734, Note_on_c, 0, 73, 71
2, 43742, Note_off_c, 0, 46, 64
2, 43742, Note_on_c, 0, 61, 50
2, 43751, Note_on_c, 0, 53, 52
2, 43754, Note_off_c, 0, 74, 64
2, 43804, Note_off_c, 0, 61, 64
2, 43828, Note_off_c, 0, 53, 64
2, 43851, Note_on_c, 0, 64, 56
2, 43856, Note_off_c, 0, 73, 64
2, 43959, Note_on_c, 0, 65, 66
2, 43976, Note_on_c, 0, 52, 26
2, 43978, Note_on_c, 0, 58, 54
2, 43981, Note_on_c, 0, 48, 33
2, 43982, Note_off_c, 0, 64, 64
2, 43993, Control_c, 0, 64, 0
2, 44007, Control_c, 0, 64, 127
2, 44072, Note_on_c, 0, 67, 55
2, 44085, Note_off_c, 0, 65, 64
2, 44106, Note_off_c, 0, 58, 64
2, 44123, Note_off_c, 0, 52, 64
2, 44129, Note_off_c, 0, 48, 64
2, 44188, Note_on_c, 0, 68, 65
2, 44203, Note_on_c, 0, 41, 65
2, 44206, Note_off_c, 0, 67, 64
2, 44234, Control_c, 0, 64, 0
2, 44259, Control_c, 0, 64, 127
2, 44289, Note_on_c, 0, 70, 75
2, 44321, Note_off_c, 0, 68, 64
2, 44416, Note_on_c, 0, 71, 64
2, 44423, Note_on_c, 0, 48, 52
2, 44423, Note_on_c, 0, 56, 37
2, 44443, Note_off_c, 0, 70, 64
2, 44456, Control_c, 0, 64, 0
2, 44480, Control_c, 0, 64, 127
2, 44515, Note_off_c, 0, 41, 64
2, 44532, Note_on_c, 0, 72, 77
2, 44553, Note_off_c, 0, 71, 64
2, 44653, Note_off_c, 0, 56, 64
2, 44659, Note_off_c, 0, 48, 64
2, 44672, Note_on_c, 0, 77, 79
2, 44691, Note_off_c, 0, 72, 64
2, 44802, Note_on_c, 0, 76, 73
2, 44810, Note_off_c, 0, 77, 64
2, 44944, Note_on_c, 0, 75, 50
2, 44960, Control_c, 0, 64, 0
2, 44982, Note_off_c, 0, 76, 64
2, 44990, Control_c, 0, 64, 127
2, 45090, Note_on_c, 0, 74, 56
2, 45114, Note_off_c, 0, 75, 64
2, 45242, Note_on_c, 0, 73, 57
2, 45249, Note_off_c, 0, 74, 64
2, 45255, Note_on_c, 0, 56, 47
2, 45261, Note_on_c, 0, 49, 44
2, 45288, Control_c, 0, 64, 0
2, 45312, Control_c, 0, 64, 127
2, 45421, Note_on_c, 0, 64, 56
2, 45431, Note_off_c, 0, 56, 64
2, 45437, Note_off_c, 0, 49, 64
2, 45437, Note_off_c, 0, 73, 64
2, 45621, Note_on_c, 0, 65, 65
2, 45631, Note_on_c, 0, 48, 50
2, 45633, Note_on_c, 0, 58, 44
2, 45654, Note_off_c, 0, 64, 64
2, 45666, Control_c, 0, 64, 0
2, 45748, Control_c, 0, 64, 127
2, 45810, Note_on_c, 0, 68, 43
2, 45846, Note_on_c, 0, 67, 64
2, 45871, Note_off_c, 0, 65, 64
2, 45876, Note_off_c, 0, 68, 64
2, 45880, Control_c, 0, 64, 0
2, 45915, Control_c, 0, 64, 127
2, 45919, Note_off_c, 0, 58, 64
2, 45928, Note_off_c, 0, 48, 64
2, 46104, Note_on_c, 0, 65, 65
2, 46112, Note_on_c, 0, 41, 50
2, 46140, Note_off_c, 0, 67, 64
2, 46144, Control_c, 0, 64, 0
2, 46157, Control_c, 0, 64, 127
2, 46232, Note_on_c, 0, 67, 59
2, 46239, Note_off_c, 0, 65, 64
2, 46285, Note_off_c, 0, 67, 64
2, 46285, Note_on_c, 0, 65, 66
2, 46314, Note_off_c, 0, 65, 64
2, 46316, Note_on_c, 0, 67, 65
2, 46352, Note_on_c, 0, 65, 71
2, 46357, Note_off_c, 0, 67, 64
2, 46386, Note_on_c, 0, 67, 65
2, 46393, Note_off_c, 0, 65, 64
2, 46423, Note_on_c, 0, 65, 66
2, 46443, Note_off_c, 0, 67, 64
2, 46495, Note_on_c, 0, 64, 66
2, 46497, Note_off_c, 0, 65, 64
2, 46682, Note_on_c, 0, 65, 54
2, 46700, Note_on_c, 0, 56, 33
2, 46703, Note_on_c, 0, 48, 50
2, 46719, Note_off_c, 0, 64, 64
2, 46777, Control_c, 0, 64, 0
2, 46852, Control_c, 0, 64, 127
2, 46970, Note_off_c, 0, 41, 64
2, 47927, Note_off_c, 0, 48, 64
2, 47948, Note_off_c, 0, 56, 64
2, 47963, Note_off_c, 0, 65, 64
2, 48138, Control_c, 0, 64, 0
2, 48307, Control_c, 0, 64, 0
2, 48350, Control_c, 0, 64, 127
2, 49421, Control_c, 0, 64, 0
2, 49478, Control_c, 0, 64, 127
2, 49871, Control_c, 0, 64, 0
2, 50478, Control_c, 0, 64, 127
2, 50743, Control_c, 0, 64, 0
2, 50793, Control_c, 0, 64, 127
