2, 0, Program_c, 0, 0
2, 0, Control_c, 0, 7, 127
2, 10, Note_on_c, 0, 64, 46
2, 10, Note_on_c, 0, 60, 43
2, 13, Note_on_c, 0, 48, 41
2, 19, Note_on_c, 0, 55, 23
2, 46, Control_c, 0, 64, 0
2, 46, Control_c, 0, 64, 0
2, 86, Control_c, 0, 64, 127
2, 86, Control_c, 0, 64, 127
2, 138, Control_c, 0, 64, 0
2, 138, Control_c, 0, 64, 0
2, 147, Note_off_c, 0, 48, 64
2, 154, Note_on_c, 0, 43, 36
2, 157, Note_on_c, 0, 67, 52
2, 160, Note_off_c, 0, 55, 64
2, 166, Note_on_c, 0, 50, 41
2, 170, Note_on_c, 0, 59, 46
2, 176, Note_off_c, 0, 60, 64
2, 176, Note_off_c, 0, 64, 64
2, 190, Control_c, 0, 64, 127
2, 190, Control_c, 0, 64, 127
2, 291, Note_off_c, 0, 43, 64
2, 298, Note_off_c, 0, 67, 64
2, 308, Note_off_c, 0, 50, 64
2, 312, Note_on_c, 0, 55, 34
2, 312, Note_on_c, 0, 48, 47
2, 320, Note_on_c, 0, 64, 49
2, 324, Note_on_c, 0, 60, 46
2, 325, Note_off_c, 0, 59, 64
2, 327, Control_c, 0, 64, 0
2, 327, Control_c, 0, 64, 0
2, 340, Control_c, 0, 64, 127
2, 340, Control_c, 0, 64, 127
2, 456, Control_c, 0, 64, 0
2, 456, Control_c, 0, 64, 0
2, 466, Note_off_c, 0, 48, 64
2, 466, Note_off_c, 0, 55, 64
2, 466, Note_on_c, 0, 67, 49
2, 473, Note_off_c, 0, 60, 64
2, 477, Note_on_c, 0, 59, 43
2, 480, Note_on_c, 0, 43, 31
2, 483, Note_on_c, 0, 50, 34
2, 492, Control_c, 0, 64, 127
2, 492, Control_c, 0, 64, 127
2, 497, Note_off_c, 0, 64, 64
2, 599, Control_c, 0, 64, 0
2, 599, Control_c, 0, 64, 0
2, 606, Note_off_c, 0, 67, 64
2, 615, Note_off_c, 0, 43, 64
2, 619, Note_on_c, 0, 55, 36
2, 619, Note_on_c, 0, 48, 50
2, 622, Note_on_c, 0, 64, 38
2, 626, Note_on_c, 0, 60, 36
2, 631, Note_off_c, 0, 59, 64
2, 635, Control_c, 0, 64, 127
2, 635, Control_c, 0, 64, 127
2, 643, Note_off_c, 0, 50, 64
2, 759, Control_c, 0, 64, 0
2, 759, Control_c, 0, 64, 0
2, 766, Note_on_c, 0, 67, 38
2, 779, Note_on_c, 0, 43, 41
2, 781, Note_off_c, 0, 55, 64
2, 782, Note_off_c, 0, 48, 64
2, 790, Note_off_c, 0, 60, 64
2, 790, Note_on_c, 0, 59, 41
2, 796, Note_off_c, 0, 64, 64
2, 799, Note_on_c, 0, 50, 28
2, 809, Control_c, 0, 64, 127
2, 809, Control_c, 0, 64, 127
2, 910, Note_off_c, 0, 67, 64
2, 916, Control_c, 0, 64, 0
2, 916, Control_c, 0, 64, 0
2, 928, Note_off_c, 0, 43, 64
2, 930, Note_on_c, 0, 55, 30
2, 935, Note_on_c, 0, 48, 39
2, 935, Note_on_c, 0, 60, 42
2, 935, Note_on_c, 0, 64, 38
2, 942, Note_off_c, 0, 59, 64
2, 949, Note_off_c, 0, 50, 64
2, 960, Control_c, 0, 64, 127
2, 960, Control_c, 0, 64, 127
2, 1068, Control_c, 0, 64, 0
2, 1068, Control_c, 0, 64, 0
2, 1076, Note_on_c, 0, 67, 36
2, 1079, Note_on_c, 0, 50, 36
2, 1083, Note_off_c, 0, 55, 64
2, 1083, Note_off_c, 0, 48, 64
2, 1086, Note_on_c, 0, 43, 28
2, 1092, Note_off_c, 0, 60, 64
2, 1092, Note_on_c, 0, 59, 31
2, 1104, Note_off_c, 0, 64, 64
2, 1116, Control_c, 0, 64, 127
2, 1116, Control_c, 0, 64, 127
2, 1214, Note_off_c, 0, 67, 64
2, 1227, Note_on_c, 0, 55, 28
2, 1233, Control_c, 0, 64, 0
2, 1233, Control_c, 0, 64, 0
2, 1238, Note_on_c, 0, 64, 32
2, 1238, Note_on_c, 0, 60, 36
2, 1244, Note_off_c, 0, 43, 64
2, 1250, Note_on_c, 0, 48, 30
2, 1253, Note_off_c, 0, 59, 64
2, 1264, Note_off_c, 0, 50, 64
2, 1264, Control_c, 0, 64, 127
2, 1264, Control_c, 0, 64, 127
2, 1378, Control_c, 0, 64, 0
2, 1378, Control_c, 0, 64, 0
2, 1391, Note_on_c, 0, 67, 27
2, 1396, Note_off_c, 0, 48, 64
2, 1400, Note_off_c, 0, 60, 64
2, 1402, Note_on_c, 0, 59, 28
2, 1405, Note_on_c, 0, 43, 23
2, 1413, Note_on_c, 0, 50, 23
2, 1417, Note_off_c, 0, 55, 64
2, 1424, Note_off_c, 0, 64, 64
2, 1429, Control_c, 0, 64, 127
2, 1429, Control_c, 0, 64, 127
2, 1537, Note_off_c, 0, 67, 64
2, 1561, Note_off_c, 0, 59, 64
2, 1561, Note_on_c, 0, 64, 26
2, 1561, Note_on_c, 0, 60, 24
2, 1562, Note_off_c, 0, 43, 64
2, 1569, Note_on_c, 0, 55, 19
2, 1574, Note_on_c, 0, 48, 24
2, 1584, Note_off_c, 0, 50, 64
2, 1726, Note_on_c, 0, 59, 26
2, 1734, Note_on_c, 0, 67, 24
2, 1735, Note_on_c, 0, 43, 27
2, 1736, Note_on_c, 0, 50, 1
2, 1757, Note_off_c, 0, 55, 64
2, 1758, Note_off_c, 0, 60, 64
2, 1772, Note_off_c, 0, 48, 64
2, 1780, Note_off_c, 0, 64, 64
2, 1887, Note_off_c, 0, 59, 64
2, 1895, Note_off_c, 0, 67, 64
2, 1896, Note_off_c, 0, 43, 64
2, 1897, Note_off_c, 0, 50, 64
2, 1932, Note_on_c, 0, 72, 50
2, 1938, Note_on_c, 0, 64, 42
2, 1938, Note_on_c, 0, 57, 23
2, 1945, Note_on_c, 0, 60, 32
2, 2022, Note_on_c, 0, 84, 50
2, 2066, Note_off_c, 0, 57, 64
2, 2081, Note_off_c, 0, 84, 64
2, 2088, Note_off_c, 0, 72, 64
2, 2090, Note_off_c, 0, 64, 64
2, 2096, Note_off_c, 0, 60, 64
2, 2097, Control_c, 0, 64, 0
2, 2097, Control_c, 0, 64, 0
2, 2111, Note_on_c, 0, 65, 38
2, 2112, Note_on_c, 0, 57, 39
2, 2115, Note_on_c, 0, 83, 46
2, 2115, Note_on_c, 0, 60, 49
2, 2121, Control_c, 0, 64, 127
2, 2121, Control_c, 0, 64, 127
2, 2151, Note_on_c, 0, 84, 64
2, 2164, Note_off_c, 0, 83, 64
2, 2206, Note_on_c, 0, 83, 43
2, 2217, Note_off_c, 0, 57, 64
2, 2223, Note_off_c, 0, 84, 64
2, 2224, Note_off_c, 0, 60, 64
2, 2234, Note_off_c, 0, 65, 64
2, 2255, Note_on_c, 0, 81, 52
2, 2256, Note_on_c, 0, 60, 30
2, 2264, Note_on_c, 0, 65, 31
2, 2265, Note_on_c, 0, 57, 36
2, 2281, Note_off_c, 0, 83, 64
2, 2330, Note_on_c, 0, 77, 46
2, 2338, Note_off_c, 0, 81, 64
2, 2370, Note_off_c, 0, 57, 64
2, 2375, Note_off_c, 0, 65, 64
2, 2388, Note_off_c, 0, 60, 64
2, 2390, Note_off_c, 0, 77, 64
2, 2401, Note_on_c, 0, 74, 61
2, 2406, Note_on_c, 0, 65, 39
2, 2409, Note_on_c, 0, 59, 42
2, 2438, Note_off_c, 0, 74, 64
2, 2464, Note_on_c, 0, 74, 53
2, 2509, Note_off_c, 0, 74, 64
2, 2515, Note_off_c, 0, 59, 64
2, 2518, Note_off_c, 0, 65, 64
2, 2520, Note_on_c, 0, 76, 56
2, 2526, Control_c, 0, 64, 0
2, 2526, Control_c, 0, 64, 0
2, 2532, Note_on_c, 0, 74, 69
2, 2532, Note_on_c, 0, 65, 39
2, 2537, Note_on_c, 0, 59, 47
2, 2552, Note_off_c, 0, 76, 64
2, 2557, Control_c, 0, 64, 127
2, 2557, Control_c, 0, 64, 127
2, 2575, Note_off_c, 0, 74, 64
2, 2627, Note_off_c, 0, 59, 64
2, 2652, Note_off_c, 0, 65, 64
2, 2683, Note_on_c, 0, 72, 68
2, 2686, Note_on_c, 0, 60, 46
2, 2690, Note_on_c, 0, 64, 39
2, 2690, Control_c, 0, 64, 0
2, 2690, Control_c, 0, 64, 0
2, 2704, Control_c, 0, 64, 127
2, 2704, Control_c, 0, 64, 127
2, 2748, Note_off_c, 0, 72, 64
2, 2778, Note_off_c, 0, 60, 64
2, 2793, Note_off_c, 0, 64, 64
2, 2834, Note_on_c, 0, 69, 65
2, 2844, Note_on_c, 0, 62, 43
2, 2844, Note_on_c, 0, 65, 30
2, 2912, Note_off_c, 0, 69, 64
2, 2920, Note_on_c, 0, 81, 57
2, 2960, Note_off_c, 0, 65, 64
2, 2965, Note_off_c, 0, 62, 64
2, 2972, Note_off_c, 0, 81, 64
2, 2979, Control_c, 0, 64, 0
2, 2979, Control_c, 0, 64, 0
2, 2984, Note_on_c, 0, 79, 61
2, 2984, Note_on_c, 0, 62, 45
2, 2984, Note_on_c, 0, 57, 35
2, 2995, Note_on_c, 0, 53, 36
2, 2999, Control_c, 0, 64, 127
2, 2999, Control_c, 0, 64, 127
2, 3020, Note_on_c, 0, 81, 63
2, 3047, Note_off_c, 0, 79, 64
2, 3072, Note_on_c, 0, 79, 60
2, 3078, Note_off_c, 0, 81, 64
2, 3082, Note_off_c, 0, 53, 64
2, 3109, Note_off_c, 0, 57, 64
2, 3109, Note_off_c, 0, 62, 64
2, 3123, Note_on_c, 0, 77, 69
2, 3126, Note_on_c, 0, 57, 39
2, 3131, Note_on_c, 0, 53, 39
2, 3135, Note_on_c, 0, 62, 39
2, 3137, Note_off_c, 0, 79, 64
2, 3201, Note_on_c, 0, 74, 41
2, 3215, Note_off_c, 0, 77, 64
2, 3221, Note_off_c, 0, 57, 64
2, 3231, Note_off_c, 0, 53, 64
2, 3247, Note_off_c, 0, 62, 64
2, 3263, Note_off_c, 0, 74, 64
2, 3272, Note_on_c, 0, 71, 63
2, 3279, Note_on_c, 0, 62, 39
2, 3283, Note_on_c, 0, 52, 39
2, 3305, Note_off_c, 0, 71, 64
2, 3328, Note_on_c, 0, 71, 72
2, 3370, Note_off_c, 0, 71, 64
2, 3375, Note_off_c, 0, 52, 64
2, 3377, Note_off_c, 0, 62, 64
2, 3392, Note_on_c, 0, 72, 61
2, 3396, Control_c, 0, 64, 0
2, 3396, Control_c, 0, 64, 0
2, 3403, Note_on_c, 0, 62, 49
2, 3403, Note_on_c, 0, 52, 46
2, 3409, Note_on_c, 0, 71, 65
2, 3415, Control_c, 0, 64, 127
2, 3415, Control_c, 0, 64, 127
2, 3420, Note_off_c, 0, 72, 64
2, 3457, Note_off_c, 0, 71, 64
2, 3501, Note_off_c, 0, 52, 64
2, 3501, Note_off_c, 0, 62, 64
2, 3546, Note_on_c, 0, 69, 69
2, 3550, Note_on_c, 0, 60, 39
2, 3552, Note_on_c, 0, 57, 43
2, 3577, Note_off_c, 0, 69, 64
2, 3629, Note_off_c, 0, 57, 64
2, 3633, Note_off_c, 0, 60, 64
2, 3683, Note_on_c, 0, 72, 69
2, 3688, Note_on_c, 0, 64, 46
2, 3691, Note_on_c, 0, 60, 38
2, 3698, Note_on_c, 0, 57, 39
2, 3740, Note_on_c, 0, 84, 61
2, 3744, Note_off_c, 0, 72, 64
2, 3781, Note_off_c, 0, 84, 64
2, 3783, Note_off_c, 0, 64, 64
2, 3786, Note_off_c, 0, 60, 64
2, 3793, Note_off_c, 0, 57, 64
2, 3820, Note_on_c, 0, 83, 76
2, 3825, Note_on_c, 0, 60, 57
2, 3828, Note_on_c, 0, 57, 50
2, 3833, Note_on_c, 0, 65, 50
2, 3840, Note_on_c, 0, 84, 73
2, 3851, Note_off_c, 0, 83, 64
2, 3875, Note_on_c, 0, 83, 73
2, 3882, Note_off_c, 0, 84, 64
2, 3912, Note_off_c, 0, 83, 64
2, 3913, Note_on_c, 0, 84, 64
2, 3920, Note_off_c, 0, 60, 64
2, 3923, Note_off_c, 0, 57, 64
2, 3928, Note_off_c, 0, 65, 64
2, 3933, Note_on_c, 0, 83, 56
2, 3946, Note_off_c, 0, 84, 64
2, 3950, Note_on_c, 0, 60, 38
2, 3956, Note_on_c, 0, 57, 56
2, 3963, Note_on_c, 0, 81, 61
2, 3966, Note_on_c, 0, 65, 36
2, 3972, Note_off_c, 0, 83, 64
2, 4008, Note_off_c, 0, 81, 64
2, 4033, Note_on_c, 0, 77, 73
2, 4045, Note_off_c, 0, 60, 64
2, 4051, Note_off_c, 0, 57, 64
2, 4061, Note_off_c, 0, 65, 64
2, 4077, Note_off_c, 0, 77, 64
2, 4106, Note_on_c, 0, 74, 65
2, 4113, Note_on_c, 0, 65, 47
2, 4113, Note_on_c, 0, 59, 47
2, 4138, Note_off_c, 0, 74, 64
2, 4160, Note_on_c, 0, 74, 73
2, 4191, Note_off_c, 0, 74, 64
2, 4208, Note_off_c, 0, 59, 64
2, 4208, Note_off_c, 0, 65, 64
2, 4216, Note_on_c, 0, 76, 69
2, 4220, Control_c, 0, 64, 0
2, 4220, Control_c, 0, 64, 0
2, 4228, Note_on_c, 0, 74, 69
2, 4228, Note_on_c, 0, 65, 57
2, 4231, Note_on_c, 0, 59, 60
2, 4244, Note_off_c, 0, 76, 64
2, 4260, Control_c, 0, 64, 127
2, 4260, Control_c, 0, 64, 127
2, 4264, Note_off_c, 0, 74, 64
2, 4323, Note_off_c, 0, 65, 64
2, 4326, Note_off_c, 0, 59, 64
2, 4372, Note_on_c, 0, 72, 65
2, 4376, Note_on_c, 0, 60, 49
2, 4380, Note_on_c, 0, 64, 35
2, 4431, Note_off_c, 0, 72, 64
2, 4471, Note_off_c, 0, 60, 64
2, 4475, Note_off_c, 0, 64, 64
2, 4511, Control_c, 0, 64, 0
2, 4511, Control_c, 0, 64, 0
2, 4516, Note_on_c, 0, 65, 39
2, 4518, Note_on_c, 0, 69, 60
2, 4518, Note_on_c, 0, 62, 50
2, 4532, Control_c, 0, 64, 127
2, 4532, Control_c, 0, 64, 127
2, 4584, Note_on_c, 0, 81, 64
2, 4592, Note_off_c, 0, 69, 64
2, 4611, Note_off_c, 0, 65, 64
2, 4613, Note_off_c, 0, 62, 64
2, 4624, Note_off_c, 0, 81, 64
2, 4643, Control_c, 0, 64, 0
2, 4643, Control_c, 0, 64, 0
2, 4655, Note_on_c, 0, 57, 46
2, 4656, Note_on_c, 0, 79, 76
2, 4663, Note_on_c, 0, 62, 47
2, 4663, Note_on_c, 0, 53, 39
2, 4676, Control_c, 0, 64, 127
2, 4676, Control_c, 0, 64, 127
2, 4680, Note_on_c, 0, 81, 75
2, 4690, Note_off_c, 0, 79, 64
2, 4719, Note_on_c, 0, 79, 69
2, 4725, Note_off_c, 0, 81, 64
2, 4741, Note_off_c, 0, 79, 64
2, 4750, Note_off_c, 0, 57, 64
2, 4755, Note_on_c, 0, 81, 64
2, 4758, Note_off_c, 0, 53, 64
2, 4758, Note_off_c, 0, 62, 64
2, 4780, Note_on_c, 0, 79, 69
2, 4784, Note_off_c, 0, 81, 64
2, 4790, Note_on_c, 0, 53, 49
2, 4796, Note_on_c, 0, 57, 39
2, 4800, Note_on_c, 0, 62, 36
2, 4802, Note_off_c, 0, 79, 64
2, 4804, Note_on_c, 0, 77, 67
2, 4844, Note_off_c, 0, 77, 64
2, 4865, Note_on_c, 0, 74, 63
2, 4885, Note_off_c, 0, 53, 64
2, 4891, Note_off_c, 0, 57, 64
2, 4895, Note_off_c, 0, 62, 64
2, 4908, Note_off_c, 0, 74, 64
2, 4928, Note_on_c, 0, 71, 69
2, 4932, Note_on_c, 0, 62, 49
2, 4934, Note_on_c, 0, 52, 49
2, 4962, Note_off_c, 0, 71, 64
2, 4986, Note_on_c, 0, 71, 73
2, 5018, Note_off_c, 0, 71, 64
2, 5027, Note_off_c, 0, 62, 64
2, 5029, Note_off_c, 0, 52, 64
2, 5044, Control_c, 0, 64, 0
2, 5044, Control_c, 0, 64, 0
2, 5054, Note_on_c, 0, 72, 65
2, 5066, Note_on_c, 0, 71, 82
2, 5067, Note_on_c, 0, 62, 53
2, 5067, Note_on_c, 0, 52, 52
2, 5078, Note_off_c, 0, 72, 64
2, 5085, Control_c, 0, 64, 127
2, 5085, Control_c, 0, 64, 127
2, 5099, Note_off_c, 0, 71, 64
2, 5162, Note_off_c, 0, 52, 64
2, 5162, Note_off_c, 0, 62, 64
2, 5173, Control_c, 0, 64, 0
2, 5173, Control_c, 0, 64, 0
2, 5210, Note_on_c, 0, 69, 73
2, 5216, Note_on_c, 0, 60, 68
2, 5220, Note_on_c, 0, 57, 64
2, 5357, Note_on_c, 0, 67, 73
2, 5357, Note_on_c, 0, 62, 67
2, 5357, Note_on_c, 0, 55, 64
2, 5364, Note_on_c, 0, 71, 75
2, 5372, Note_off_c, 0, 69, 64
2, 5378, Note_off_c, 0, 60, 64
2, 5379, Note_off_c, 0, 67, 64
2, 5380, Note_off_c, 0, 71, 64
2, 5382, Note_off_c, 0, 57, 64
2, 5385, Note_off_c, 0, 55, 64
2, 5387, Note_off_c, 0, 62, 64
2, 5507, Note_on_c, 0, 67, 73
2, 5507, Note_on_c, 0, 62, 67
2, 5510, Note_on_c, 0, 55, 61
2, 5511, Note_on_c, 0, 71, 73
2, 5565, Note_on_c, 0, 72, 68
2, 5569, Note_off_c, 0, 67, 64
2, 5588, Note_off_c, 0, 71, 64
2, 5615, Note_off_c, 0, 55, 64
2, 5635, Note_on_c, 0, 74, 78
2, 5640, Note_on_c, 0, 50, 69
2, 5643, Note_on_c, 0, 57, 61
2, 5645, Note_on_c, 0, 65, 73
2, 5650, Note_off_c, 0, 72, 64
2, 5664, Control_c, 0, 64, 127
2, 5664, Control_c, 0, 64, 127
2, 5666, Note_off_c, 0, 62, 64
2, 5688, Note_off_c, 0, 65, 64
2, 5717, Note_off_c, 0, 57, 64
2, 5717, Note_off_c, 0, 50, 64
2, 5757, Control_c, 0, 64, 0
2, 5757, Control_c, 0, 64, 0
2, 5764, Note_off_c, 0, 74, 64
2, 5789, Note_on_c, 0, 67, 76
2, 5795, Note_on_c, 0, 71, 78
2, 5795, Note_on_c, 0, 55, 73
2, 5796, Note_on_c, 0, 62, 73
2, 5818, Note_off_c, 0, 71, 64
2, 5818, Note_off_c, 0, 67, 64
2, 5824, Note_off_c, 0, 62, 64
2, 5824, Note_off_c, 0, 55, 64
2, 5936, Note_on_c, 0, 67, 73
2, 5942, Note_on_c, 0, 71, 78
2, 5942, Note_on_c, 0, 55, 71
2, 5946, Note_on_c, 0, 62, 73
2, 5992, Note_on_c, 0, 72, 61
2, 6005, Note_off_c, 0, 67, 64
2, 6011, Note_off_c, 0, 55, 64
2, 6021, Note_off_c, 0, 71, 64
2, 6038, Note_off_c, 0, 62, 64
2, 6067, Note_on_c, 0, 74, 73
2, 6070, Note_off_c, 0, 72, 64
2, 6070, Control_c, 0, 64, 127
2, 6070, Control_c, 0, 64, 127
2, 6076, Note_on_c, 0, 62, 53
2, 6076, Note_on_c, 0, 50, 68
2, 6077, Note_on_c, 0, 65, 73
2, 6077, Note_on_c, 0, 57, 64
2, 6104, Note_off_c, 0, 50, 64
2, 6105, Note_off_c, 0, 62, 64
2, 6111, Note_off_c, 0, 65, 64
2, 6120, Note_off_c, 0, 57, 64
2, 6121, Note_off_c, 0, 74, 64
2, 6191, Control_c, 0, 64, 0
2, 6191, Control_c, 0, 64, 0
2, 6224, Note_on_c, 0, 65, 67
2, 6224, Note_on_c, 0, 57, 69
2, 6224, Note_on_c, 0, 50, 69
2, 6228, Note_on_c, 0, 62, 71
2, 6229, Note_on_c, 0, 77, 78
2, 6234, Control_c, 0, 64, 127
2, 6234, Control_c, 0, 64, 127
2, 6258, Note_off_c, 0, 50, 64
2, 6267, Note_off_c, 0, 57, 64
2, 6270, Note_off_c, 0, 62, 64
2, 6296, Note_off_c, 0, 77, 64
2, 6296, Note_on_c, 0, 76, 60
2, 6326, Note_off_c, 0, 65, 64
2, 6339, Control_c, 0, 64, 0
2, 6339, Control_c, 0, 64, 0
2, 6358, Note_on_c, 0, 62, 57
2, 6358, Note_on_c, 0, 57, 56
2, 6358, Note_on_c, 0, 50, 69
2, 6360, Note_on_c, 0, 74, 82
2, 6360, Note_on_c, 0, 65, 75
2, 6381, Control_c, 0, 64, 127
2, 6381, Control_c, 0, 64, 127
2, 6385, Note_off_c, 0, 76, 64
2, 6480, Note_off_c, 0, 50, 64
2, 6480, Note_off_c, 0, 57, 64
2, 6480, Note_off_c, 0, 62, 64
2, 6482, Note_off_c, 0, 74, 64
2, 6491, Note_off_c, 0, 65, 64
2, 6496, Note_on_c, 0, 67, 69
2, 6497, Control_c, 0, 64, 0
2, 6497, Control_c, 0, 64, 0
2, 6503, Note_on_c, 0, 65, 75
2, 6506, Note_on_c, 0, 59, 75
2, 6506, Note_on_c, 0, 55, 73
2, 6515, Control_c, 0, 64, 127
2, 6515, Control_c, 0, 64, 127
2, 6549, Note_off_c, 0, 55, 64
2, 6551, Note_off_c, 0, 59, 64
2, 6565, Note_on_c, 0, 76, 69
2, 6579, Note_off_c, 0, 65, 64
2, 6587, Note_off_c, 0, 67, 64
2, 6611, Control_c, 0, 64, 0
2, 6611, Control_c, 0, 64, 0
2, 6616, Note_off_c, 0, 76, 64
2, 6628, Note_on_c, 0, 72, 64
2, 6628, Note_on_c, 0, 64, 75
2, 6628, Note_on_c, 0, 60, 73
2, 6628, Note_on_c, 0, 55, 63
2, 6628, Note_on_c, 0, 48, 63
2, 6645, Note_off_c, 0, 48, 64
2, 6655, Note_off_c, 0, 55, 64
2, 6657, Note_off_c, 0, 64, 64
2, 6660, Note_off_c, 0, 72, 64
2, 6662, Note_off_c, 0, 60, 64
2, 6782, Note_on_c, 0, 55, 71
2, 6784, Note_on_c, 0, 60, 73
2, 6784, Note_on_c, 0, 48, 71
2, 6785, Note_on_c, 0, 72, 83
2, 6786, Note_on_c, 0, 64, 73
2, 6809, Note_off_c, 0, 48, 64
2, 6811, Note_off_c, 0, 64, 64
2, 6813, Note_off_c, 0, 72, 64
2, 6813, Note_off_c, 0, 60, 64
2, 6813, Note_off_c, 0, 55, 64
2, 6928, Note_on_c, 0, 72, 84
2, 6928, Note_on_c, 0, 64, 78
2, 6928, Note_on_c, 0, 60, 75
2, 6928, Note_on_c, 0, 55, 73
2, 6928, Note_on_c, 0, 48, 71
2, 6951, Control_c, 0, 64, 127
2, 6951, Control_c, 0, 64, 127
2, 6956, Note_off_c, 0, 48, 64
2, 6960, Note_off_c, 0, 55, 64
2, 6964, Note_off_c, 0, 60, 64
2, 6967, Note_off_c, 0, 64, 64
2, 6981, Note_off_c, 0, 72, 64
2, 7059, Control_c, 0, 64, 0
2, 7059, Control_c, 0, 64, 0
2, 7066, Note_on_c, 0, 71, 83
2, 7066, Note_on_c, 0, 67, 75
2, 7073, Note_on_c, 0, 62, 73
2, 7073, Note_on_c, 0, 55, 73
2, 7098, Note_off_c, 0, 62, 64
2, 7101, Note_off_c, 0, 71, 64
2, 7102, Note_off_c, 0, 55, 64
2, 7102, Note_off_c, 0, 67, 64
2, 7215, Note_on_c, 0, 71, 73
2, 7215, Note_on_c, 0, 67, 73
2, 7232, Note_on_c, 0, 62, 71
2, 7232, Note_on_c, 0, 55, 69
2, 7271, Note_off_c, 0, 67, 64
2, 7284, Note_on_c, 0, 72, 50
2, 7298, Note_off_c, 0, 71, 64
2, 7305, Note_off_c, 0, 55, 64
2, 7331, Note_off_c, 0, 62, 64
2, 7347, Note_on_c, 0, 74, 78
2, 7353, Note_on_c, 0, 65, 73
2, 7353, Note_on_c, 0, 50, 73
2, 7360, Note_on_c, 0, 57, 67
2, 7364, Note_off_c, 0, 72, 64
2, 7366, Control_c, 0, 64, 127
2, 7366, Control_c, 0, 64, 127
2, 7394, Note_off_c, 0, 50, 64
2, 7399, Note_off_c, 0, 65, 64
2, 7400, Note_off_c, 0, 57, 64
2, 7478, Note_off_c, 0, 74, 64
2, 7487, Control_c, 0, 64, 0
2, 7487, Control_c, 0, 64, 0
2, 7494, Note_on_c, 0, 55, 78
2, 7499, Note_on_c, 0, 62, 75
2, 7500, Note_on_c, 0, 67, 76
2, 7501, Note_on_c, 0, 71, 83
2, 7523, Note_off_c, 0, 55, 64
2, 7527, Note_off_c, 0, 62, 64
2, 7533, Note_off_c, 0, 67, 64
2, 7544, Note_off_c, 0, 71, 64
2, 7554, Note_on_c, 0, 72, 68
2, 7612, Note_off_c, 0, 72, 64
2, 7630, Note_on_c, 0, 67, 76
2, 7633, Note_on_c, 0, 71, 80
2, 7639, Note_on_c, 0, 55, 73
2, 7641, Note_on_c, 0, 62, 73
2, 7668, Note_off_c, 0, 55, 64
2, 7668, Note_off_c, 0, 67, 64
2, 7675, Note_off_c, 0, 62, 64
2, 7698, Note_off_c, 0, 71, 64
2, 7700, Note_on_c, 0, 72, 60
2, 7768, Note_on_c, 0, 74, 76
2, 7772, Note_off_c, 0, 72, 64
2, 7772, Note_on_c, 0, 65, 73
2, 7772, Note_on_c, 0, 57, 73
2, 7773, Note_on_c, 0, 62, 71
2, 7780, Note_on_c, 0, 50, 69
2, 7791, Control_c, 0, 64, 127
2, 7791, Control_c, 0, 64, 127
2, 7805, Note_off_c, 0, 50, 64
2, 7811, Note_off_c, 0, 57, 64
2, 7812, Note_off_c, 0, 62, 64
2, 7812, Note_off_c, 0, 65, 64
2, 7822, Note_off_c, 0, 74, 64
2, 7917, Note_on_c, 0, 65, 69
2, 7920, Note_on_c, 0, 57, 73
2, 7921, Note_on_c, 0, 77, 80
2, 7926, Note_on_c, 0, 62, 71
2, 7929, Note_on_c, 0, 50, 69
2, 7959, Note_off_c, 0, 57, 64
2, 7963, Note_off_c, 0, 50, 64
2, 7963, Note_off_c, 0, 62, 64
2, 7986, Note_off_c, 0, 77, 64
2, 7986, Note_on_c, 0, 76, 80
2, 8016, Note_off_c, 0, 65, 64
2, 8038, Control_c, 0, 64, 0
2, 8038, Control_c, 0, 64, 0
2, 8061, Note_on_c, 0, 74, 80
2, 8064, Note_on_c, 0, 65, 75
2, 8065, Note_on_c, 0, 62, 54
2, 8065, Note_on_c, 0, 57, 60
2, 8065, Note_on_c, 0, 50, 67
2, 8077, Control_c, 0, 64, 127
2, 8077, Control_c, 0, 64, 127
2, 8078, Note_off_c, 0, 76, 64
2, 8183, Note_off_c, 0, 74, 64
2, 8186, Note_off_c, 0, 65, 64
2, 8187, Note_off_c, 0, 50, 64
2, 8187, Note_off_c, 0, 57, 64
2, 8187, Note_off_c, 0, 62, 64
2, 8196, Note_on_c, 0, 67, 69
2, 8204, Note_on_c, 0, 65, 75
2, 8205, Note_on_c, 0, 55, 84
2, 8208, Note_on_c, 0, 59, 82
2, 8215, Control_c, 0, 64, 0
2, 8215, Control_c, 0, 64, 0
2, 8227, Control_c, 0, 64, 127
2, 8227, Control_c, 0, 64, 127
2, 8250, Note_off_c, 0, 55, 64
2, 8254, Note_off_c, 0, 59, 64
2, 8264, Note_on_c, 0, 76, 61
2, 8271, Note_off_c, 0, 65, 64
2, 8275, Note_off_c, 0, 67, 64
2, 8310, Control_c, 0, 64, 0
2, 8310, Control_c, 0, 64, 0
2, 8315, Note_off_c, 0, 76, 64
2, 8329, Note_on_c, 0, 72, 76
2, 8330, Note_on_c, 0, 55, 71
2, 8330, Note_on_c, 0, 48, 76
2, 8332, Note_on_c, 0, 64, 80
2, 8333, Note_on_c, 0, 60, 71
2, 8359, Note_off_c, 0, 64, 64
2, 8361, Note_off_c, 0, 55, 64
2, 8365, Note_off_c, 0, 48, 64
2, 8367, Note_off_c, 0, 72, 64
2, 8369, Note_off_c, 0, 60, 64
2, 8431, Control_c, 0, 64, 127
2, 8431, Control_c, 0, 64, 127
2, 8484, Note_on_c, 0, 72, 69
2, 8484, Note_on_c, 0, 60, 73
2, 8484, Note_on_c, 0, 55, 57
2, 8484, Note_on_c, 0, 48, 60
2, 8488, Note_on_c, 0, 64, 65
2, 8512, Note_off_c, 0, 48, 64
2, 8512, Note_off_c, 0, 55, 64
2, 8512, Note_off_c, 0, 60, 64
2, 8512, Note_off_c, 0, 72, 64
2, 8514, Note_off_c, 0, 64, 64
2, 8652, Note_on_c, 0, 55, 46
2, 8656, Note_on_c, 0, 64, 72
2, 8656, Note_on_c, 0, 60, 57
2, 8656, Note_on_c, 0, 48, 76
2, 8663, Note_on_c, 0, 72, 78
2, 8807, Note_off_c, 0, 55, 64
2, 8811, Note_off_c, 0, 48, 64
2, 8811, Note_off_c, 0, 60, 64
2, 8811, Note_off_c, 0, 64, 64
2, 8876, Control_c, 0, 64, 0
2, 8876, Control_c, 0, 64, 0
2, 8884, Note_on_c, 0, 41, 76
2, 8902, Control_c, 0, 64, 127
2, 8902, Control_c, 0, 64, 127
2, 8966, Note_on_c, 0, 77, 61
2, 8990, Note_off_c, 0, 41, 64
2, 9022, Note_off_c, 0, 72, 64
2, 9045, Note_on_c, 0, 81, 71
2, 9051, Note_on_c, 0, 57, 38
2, 9056, Note_on_c, 0, 60, 64
2, 9060, Note_off_c, 0, 77, 64
2, 9060, Note_on_c, 0, 65, 60
2, 9102, Note_off_c, 0, 57, 64
2, 9107, Note_off_c, 0, 65, 64
2, 9115, Note_off_c, 0, 60, 64
2, 9170, Note_off_c, 0, 81, 64
2, 9197, Note_on_c, 0, 84, 93
2, 9204, Note_on_c, 0, 65, 61
2, 9207, Note_on_c, 0, 60, 57
2, 9207, Note_on_c, 0, 57, 46
2, 9234, Note_off_c, 0, 65, 64
2, 9236, Note_off_c, 0, 57, 64
2, 9242, Note_off_c, 0, 60, 64
2, 9365, Note_on_c, 0, 47, 64
2, 9370, Note_on_c, 0, 86, 90
2, 9387, Control_c, 0, 64, 0
2, 9387, Control_c, 0, 64, 0
2, 9392, Note_off_c, 0, 84, 64
2, 9433, Control_c, 0, 64, 127
2, 9433, Control_c, 0, 64, 127
2, 9466, Note_on_c, 0, 88, 78
2, 9471, Note_off_c, 0, 47, 64
2, 9491, Note_off_c, 0, 86, 64
2, 9541, Note_on_c, 0, 89, 72
2, 9551, Note_on_c, 0, 55, 56
2, 9552, Note_on_c, 0, 62, 53
2, 9557, Note_on_c, 0, 65, 50
2, 9565, Note_off_c, 0, 88, 64
2, 9589, Note_on_c, 0, 91, 65
2, 9598, Note_off_c, 0, 55, 64
2, 9604, Note_off_c, 0, 89, 64
2, 9604, Note_off_c, 0, 65, 64
2, 9608, Note_off_c, 0, 62, 64
2, 9641, Note_on_c, 0, 89, 61
2, 9660, Note_off_c, 0, 91, 64
2, 9672, Note_on_c, 0, 62, 54
2, 9673, Note_on_c, 0, 55, 61
2, 9677, Note_on_c, 0, 88, 73
2, 9680, Note_on_c, 0, 65, 57
2, 9697, Note_off_c, 0, 89, 64
2, 9708, Note_off_c, 0, 62, 64
2, 9711, Note_off_c, 0, 65, 64
2, 9716, Note_off_c, 0, 55, 64
2, 9727, Note_on_c, 0, 86, 61
2, 9747, Note_off_c, 0, 88, 64
2, 9793, Note_off_c, 0, 86, 64
2, 9795, Note_on_c, 0, 48, 64
2, 9796, Note_on_c, 0, 84, 80
2, 9832, Note_off_c, 0, 84, 64
2, 9864, Note_on_c, 0, 84, 69
2, 9901, Note_off_c, 0, 48, 64
2, 9912, Note_on_c, 0, 55, 31
2, 9914, Note_on_c, 0, 79, 73
2, 9916, Note_on_c, 0, 64, 45
2, 9916, Note_on_c, 0, 60, 28
2, 9917, Note_off_c, 0, 84, 64
2, 9923, Control_c, 0, 64, 0
2, 9923, Control_c, 0, 64, 0
2, 9953, Control_c, 0, 64, 127
2, 9953, Control_c, 0, 64, 127
2, 9957, Note_off_c, 0, 55, 64
2, 9961, Note_off_c, 0, 60, 64
2, 9961, Note_off_c, 0, 64, 64
2, 10043, Note_off_c, 0, 79, 64
2, 10067, Note_on_c, 0, 77, 73
2, 10068, Note_on_c, 0, 60, 28
2, 10068, Note_on_c, 0, 55, 31
2, 10070, Note_on_c, 0, 64, 45
2, 10113, Note_off_c, 0, 55, 64
2, 10113, Note_off_c, 0, 60, 64
2, 10115, Note_off_c, 0, 64, 64
2, 10131, Note_on_c, 0, 79, 63
2, 10141, Note_off_c, 0, 77, 64
2, 10202, Note_on_c, 0, 81, 64
2, 10202, Note_on_c, 0, 53, 49
2, 10211, Note_off_c, 0, 79, 64
2, 10221, Control_c, 0, 64, 0
2, 10221, Control_c, 0, 64, 0
2, 10254, Control_c, 0, 64, 127
2, 10254, Control_c, 0, 64, 127
2, 10348, Note_on_c, 0, 57, 45
2, 10352, Note_on_c, 0, 60, 45
2, 10359, Note_on_c, 0, 65, 35
2, 10390, Note_off_c, 0, 60, 64
2, 10396, Note_off_c, 0, 65, 64
2, 10396, Note_off_c, 0, 57, 64
2, 10413, Note_off_c, 0, 53, 64
2, 10521, Note_on_c, 0, 65, 46
2, 10524, Note_on_c, 0, 60, 41
2, 10526, Note_on_c, 0, 57, 49
2, 10526, Note_on_c, 0, 77, 63
2, 10543, Note_off_c, 0, 81, 64
2, 10558, Note_off_c, 0, 65, 64
2, 10561, Note_off_c, 0, 60, 64
2, 10563, Note_off_c, 0, 57, 64
2, 10708, Control_c, 0, 64, 0
2, 10708, Control_c, 0, 64, 0
2, 10712, Note_on_c, 0, 41, 64
2, 10717, Note_off_c, 0, 77, 64
2, 10719, Note_on_c, 0, 72, 69
2, 10733, Control_c, 0, 64, 127
2, 10733, Control_c, 0, 64, 127
2, 10778, Note_on_c, 0, 77, 63
2, 10804, Note_off_c, 0, 72, 64
2, 10818, Note_off_c, 0, 41, 64
2, 10835, Note_on_c, 0, 81, 58
2, 10835, Note_on_c, 0, 60, 58
2, 10836, Note_on_c, 0, 65, 60
2, 10841, Note_on_c, 0, 57, 60
2, 10851, Note_off_c, 0, 77, 64
2, 10868, Note_off_c, 0, 65, 64
2, 10872, Note_off_c, 0, 60, 64
2, 10874, Note_off_c, 0, 57, 64
2, 10970, Note_off_c, 0, 81, 64
2, 10978, Note_on_c, 0, 84, 83
2, 10985, Note_on_c, 0, 60, 54
2, 10989, Note_on_c, 0, 65, 50
2, 10990, Note_on_c, 0, 57, 52
2, 11013, Note_off_c, 0, 65, 64
2, 11020, Note_off_c, 0, 57, 64
2, 11023, Note_off_c, 0, 60, 64
2, 11046, Note_on_c, 0, 89, 79
2, 11100, Note_off_c, 0, 84, 64
2, 11155, Note_on_c, 0, 47, 67
2, 11161, Note_on_c, 0, 93, 91
2, 11177, Note_off_c, 0, 89, 64
2, 11178, Control_c, 0, 64, 0
2, 11178, Control_c, 0, 64, 0
2, 11223, Control_c, 0, 64, 127
2, 11223, Control_c, 0, 64, 127
2, 11261, Note_off_c, 0, 47, 64
2, 11331, Note_on_c, 0, 91, 58
2, 11341, Note_on_c, 0, 55, 61
2, 11347, Note_on_c, 0, 62, 50
2, 11351, Note_on_c, 0, 65, 50
2, 11365, Note_off_c, 0, 93, 64
2, 11389, Note_off_c, 0, 55, 64
2, 11389, Note_on_c, 0, 89, 61
2, 11396, Note_off_c, 0, 65, 64
2, 11396, Note_off_c, 0, 62, 64
2, 11432, Note_off_c, 0, 91, 64
2, 11462, Note_on_c, 0, 88, 46
2, 11468, Note_on_c, 0, 62, 56
2, 11472, Note_on_c, 0, 55, 56
2, 11475, Note_on_c, 0, 65, 46
2, 11481, Note_off_c, 0, 89, 64
2, 11503, Note_off_c, 0, 65, 64
2, 11503, Note_off_c, 0, 62, 64
2, 11508, Note_off_c, 0, 55, 64
2, 11524, Note_off_c, 0, 88, 64
2, 11528, Note_on_c, 0, 86, 69
2, 11580, Note_off_c, 0, 86, 64
2, 11588, Note_on_c, 0, 48, 63
2, 11589, Note_on_c, 0, 84, 75
2, 11642, Note_off_c, 0, 84, 64
2, 11642, Note_on_c, 0, 86, 61
2, 11674, Note_on_c, 0, 84, 69
2, 11683, Control_c, 0, 64, 0
2, 11683, Control_c, 0, 64, 0
2, 11690, Note_off_c, 0, 86, 64
2, 11694, Note_off_c, 0, 48, 64
2, 11697, Note_on_c, 0, 60, 54
2, 11701, Note_on_c, 0, 55, 50
2, 11708, Note_on_c, 0, 64, 50
2, 11714, Note_on_c, 0, 79, 73
2, 11723, Note_off_c, 0, 84, 64
2, 11730, Control_c, 0, 64, 127
2, 11730, Control_c, 0, 64, 127
2, 11742, Note_off_c, 0, 60, 64
2, 11746, Note_off_c, 0, 55, 64
2, 11753, Note_off_c, 0, 64, 64
2, 11757, Note_off_c, 0, 79, 64
2, 11864, Note_on_c, 0, 79, 75
2, 11868, Note_on_c, 0, 55, 35
2, 11872, Note_on_c, 0, 60, 26
2, 11874, Note_on_c, 0, 64, 32
2, 11926, Note_on_c, 0, 83, 64
2, 11948, Note_off_c, 0, 79, 64
2, 11981, Control_c, 0, 64, 0
2, 11981, Control_c, 0, 64, 0
2, 11989, Note_off_c, 0, 55, 64
2, 11992, Note_on_c, 0, 81, 73
2, 11993, Note_off_c, 0, 60, 64
2, 11995, Note_off_c, 0, 64, 64
2, 12000, Note_on_c, 0, 53, 41
2, 12008, Note_off_c, 0, 83, 64
2, 12025, Control_c, 0, 64, 127
2, 12025, Control_c, 0, 64, 127
2, 12159, Note_on_c, 0, 57, 42
2, 12168, Note_on_c, 0, 60, 30
2, 12170, Note_on_c, 0, 65, 26
2, 12212, Note_off_c, 0, 60, 64
2, 12212, Note_off_c, 0, 57, 64
2, 12234, Note_off_c, 0, 65, 64
2, 12341, Note_on_c, 0, 77, 56
2, 12342, Note_off_c, 0, 81, 64
2, 12342, Note_on_c, 0, 65, 41
2, 12348, Note_on_c, 0, 57, 46
2, 12351, Note_on_c, 0, 60, 42
2, 12352, Note_off_c, 0, 53, 64
2, 12463, Note_off_c, 0, 65, 64
2, 12469, Note_off_c, 0, 57, 64
2, 12472, Note_off_c, 0, 60, 64
2, 12473, Note_off_c, 0, 77, 64
2, 12497, Note_on_c, 0, 41, 64
2, 12502, Note_on_c, 0, 72, 64
2, 12502, Control_c, 0, 64, 0
2, 12502, Control_c, 0, 64, 0
2, 12526, Control_c, 0, 64, 127
2, 12526, Control_c, 0, 64, 127
2, 12552, Note_on_c, 0, 77, 64
2, 12584, Note_off_c, 0, 72, 64
2, 12603, Note_off_c, 0, 41, 64
2, 12623, Note_on_c, 0, 81, 67
2, 12632, Note_on_c, 0, 60, 45
2, 12632, Note_on_c, 0, 57, 63
2, 12636, Note_off_c, 0, 77, 64
2, 12637, Note_on_c, 0, 65, 45
2, 12676, Note_off_c, 0, 57, 64
2, 12679, Note_off_c, 0, 60, 64
2, 12684, Note_off_c, 0, 65, 64
2, 12768, Note_on_c, 0, 65, 58
2, 12771, Note_on_c, 0, 84, 76
2, 12774, Note_on_c, 0, 60, 60
2, 12779, Note_on_c, 0, 57, 46
2, 12788, Note_off_c, 0, 81, 64
2, 12805, Note_off_c, 0, 65, 64
2, 12811, Note_off_c, 0, 60, 64
2, 12816, Note_off_c, 0, 57, 64
2, 12934, Note_on_c, 0, 47, 71
2, 12939, Note_on_c, 0, 86, 87
2, 12958, Control_c, 0, 64, 0
2, 12958, Control_c, 0, 64, 0
2, 12967, Note_off_c, 0, 84, 64
2, 13004, Control_c, 0, 64, 127
2, 13004, Control_c, 0, 64, 127
2, 13037, Note_on_c, 0, 88, 84
2, 13040, Note_off_c, 0, 47, 64
2, 13066, Note_off_c, 0, 86, 64
2, 13102, Note_on_c, 0, 89, 73
2, 13105, Note_on_c, 0, 55, 58
2, 13108, Note_on_c, 0, 65, 46
2, 13109, Note_on_c, 0, 62, 58
2, 13127, Note_off_c, 0, 88, 64
2, 13161, Note_off_c, 0, 65, 64
2, 13161, Note_off_c, 0, 55, 64
2, 13165, Note_on_c, 0, 91, 61
2, 13167, Note_off_c, 0, 62, 64
2, 13176, Note_off_c, 0, 89, 64
2, 13209, Note_on_c, 0, 89, 63
2, 13229, Note_on_c, 0, 55, 60
2, 13232, Note_on_c, 0, 62, 58
2, 13235, Note_off_c, 0, 91, 64
2, 13235, Note_on_c, 0, 65, 41
2, 13254, Note_on_c, 0, 88, 73
2, 13277, Note_off_c, 0, 55, 64
2, 13280, Note_off_c, 0, 62, 64
2, 13283, Note_off_c, 0, 65, 64
2, 13285, Note_off_c, 0, 89, 64
2, 13311, Note_on_c, 0, 86, 71
2, 13318, Note_off_c, 0, 88, 64
2, 13347, Control_c, 0, 64, 0
2, 13347, Control_c, 0, 64, 0
2, 13360, Note_off_c, 0, 86, 64
2, 13363, Note_on_c, 0, 48, 68
2, 13364, Note_on_c, 0, 88, 73
2, 13376, Control_c, 0, 64, 127
2, 13376, Control_c, 0, 64, 127
2, 13402, Note_on_c, 0, 86, 73
2, 13416, Note_off_c, 0, 88, 64
2, 13440, Note_on_c, 0, 84, 73
2, 13448, Note_off_c, 0, 86, 64
2, 13469, Note_off_c, 0, 48, 64
2, 13487, Note_off_c, 0, 84, 64
2, 13491, Note_on_c, 0, 79, 73
2, 13492, Note_on_c, 0, 64, 46
2, 13492, Note_on_c, 0, 60, 58
2, 13497, Note_on_c, 0, 55, 36
2, 13540, Note_off_c, 0, 60, 64
2, 13540, Note_off_c, 0, 64, 64
2, 13545, Note_off_c, 0, 55, 64
2, 13631, Note_off_c, 0, 79, 64
2, 13647, Note_on_c, 0, 55, 30
2, 13649, Note_on_c, 0, 77, 71
2, 13649, Note_on_c, 0, 64, 52
2, 13658, Note_on_c, 0, 60, 31
2, 13704, Note_on_c, 0, 79, 69
2, 13727, Note_off_c, 0, 77, 64
2, 13765, Note_off_c, 0, 55, 64
2, 13778, Note_on_c, 0, 81, 64
2, 13786, Control_c, 0, 64, 0
2, 13786, Control_c, 0, 64, 0
2, 13794, Note_off_c, 0, 79, 64
2, 13794, Note_on_c, 0, 53, 53
2, 13796, Note_off_c, 0, 60, 64
2, 13798, Note_off_c, 0, 64, 64
2, 13832, Control_c, 0, 64, 127
2, 13832, Control_c, 0, 64, 127
2, 13923, Note_on_c, 0, 65, 45
2, 13925, Note_on_c, 0, 60, 46
2, 13925, Note_on_c, 0, 57, 46
2, 13971, Note_off_c, 0, 65, 64
2, 13973, Note_off_c, 0, 57, 64
2, 13973, Note_off_c, 0, 60, 64
2, 14073, Note_on_c, 0, 65, 43
2, 14076, Note_off_c, 0, 81, 64
2, 14077, Note_on_c, 0, 77, 67
2, 14077, Note_on_c, 0, 60, 46
2, 14077, Note_on_c, 0, 57, 46
2, 14087, Note_off_c, 0, 53, 64
2, 14121, Note_off_c, 0, 65, 64
2, 14125, Note_off_c, 0, 57, 64
2, 14125, Note_off_c, 0, 60, 64
2, 14200, Note_off_c, 0, 77, 64
2, 14204, Note_on_c, 0, 41, 65
2, 14211, Note_on_c, 0, 72, 65
2, 14217, Control_c, 0, 64, 0
2, 14217, Control_c, 0, 64, 0
2, 14230, Control_c, 0, 64, 127
2, 14230, Control_c, 0, 64, 127
2, 14270, Note_on_c, 0, 77, 61
2, 14310, Note_off_c, 0, 41, 64
2, 14316, Note_off_c, 0, 72, 64
2, 14328, Note_on_c, 0, 79, 57
2, 14339, Note_on_c, 0, 57, 54
2, 14344, Note_on_c, 0, 60, 36
2, 14348, Note_on_c, 0, 65, 57
2, 14375, Note_off_c, 0, 77, 64
2, 14393, Note_off_c, 0, 57, 64
2, 14396, Note_off_c, 0, 60, 64
2, 14401, Note_off_c, 0, 65, 64
2, 14404, Note_on_c, 0, 81, 63
2, 14412, Note_off_c, 0, 79, 64
2, 14474, Note_on_c, 0, 65, 58
2, 14476, Note_on_c, 0, 84, 84
2, 14480, Note_on_c, 0, 60, 57
2, 14485, Note_on_c, 0, 57, 58
2, 14503, Note_off_c, 0, 65, 64
2, 14506, Note_off_c, 0, 81, 64
2, 14508, Note_off_c, 0, 57, 64
2, 14512, Note_off_c, 0, 60, 64
2, 14536, Note_on_c, 0, 89, 76
2, 14601, Note_off_c, 0, 84, 64
2, 14620, Note_on_c, 0, 47, 69
2, 14626, Note_on_c, 0, 91, 76
2, 14631, Control_c, 0, 64, 0
2, 14631, Control_c, 0, 64, 0
2, 14654, Note_off_c, 0, 89, 64
2, 14663, Control_c, 0, 64, 127
2, 14663, Control_c, 0, 64, 127
2, 14699, Note_on_c, 0, 93, 71
2, 14715, Note_off_c, 0, 91, 64
2, 14726, Note_off_c, 0, 47, 64
2, 14762, Note_on_c, 0, 62, 38
2, 14765, Note_on_c, 0, 91, 68
2, 14765, Note_on_c, 0, 55, 58
2, 14771, Note_on_c, 0, 65, 56
2, 14778, Note_off_c, 0, 93, 64
2, 14823, Note_off_c, 0, 65, 64
2, 14823, Note_off_c, 0, 62, 64
2, 14823, Note_on_c, 0, 89, 69
2, 14829, Note_off_c, 0, 55, 64
2, 14855, Note_off_c, 0, 91, 64
2, 14880, Note_on_c, 0, 88, 64
2, 14891, Note_on_c, 0, 62, 58
2, 14894, Note_on_c, 0, 55, 63
2, 14898, Note_on_c, 0, 65, 46
2, 14905, Note_off_c, 0, 89, 64
2, 14918, Note_off_c, 0, 65, 64
2, 14918, Note_off_c, 0, 62, 64
2, 14924, Note_off_c, 0, 55, 64
2, 14941, Note_on_c, 0, 86, 73
2, 14942, Note_off_c, 0, 88, 64
2, 15003, Note_off_c, 0, 86, 64
2, 15009, Note_on_c, 0, 84, 76
2, 15019, Note_on_c, 0, 48, 53
2, 15036, Control_c, 0, 64, 0
2, 15036, Control_c, 0, 64, 0
2, 15055, Note_on_c, 0, 86, 71
2, 15058, Note_off_c, 0, 84, 64
2, 15063, Control_c, 0, 64, 127
2, 15063, Control_c, 0, 64, 127
2, 15096, Note_on_c, 0, 84, 76
2, 15109, Note_off_c, 0, 86, 64
2, 15125, Note_off_c, 0, 48, 64
2, 15137, Note_on_c, 0, 79, 76
2, 15137, Note_on_c, 0, 60, 49
2, 15142, Note_on_c, 0, 64, 54
2, 15143, Note_on_c, 0, 55, 45
2, 15147, Note_off_c, 0, 84, 64
2, 15173, Note_off_c, 0, 60, 64
2, 15176, Note_off_c, 0, 55, 64
2, 15179, Note_off_c, 0, 64, 64
2, 15183, Note_off_c, 0, 79, 64
2, 15307, Note_on_c, 0, 55, 46
2, 15312, Note_on_c, 0, 79, 73
2, 15317, Note_on_c, 0, 64, 42
2, 15321, Note_on_c, 0, 60, 42
2, 15380, Note_on_c, 0, 83, 69
2, 15418, Note_off_c, 0, 79, 64
2, 15444, Note_off_c, 0, 60, 64
2, 15456, Note_off_c, 0, 55, 64
2, 15464, Note_on_c, 0, 53, 57
2, 15468, Note_on_c, 0, 81, 56
2, 15478, Note_off_c, 0, 64, 64
2, 15485, Note_off_c, 0, 83, 64
2, 15504, Control_c, 0, 64, 0
2, 15504, Control_c, 0, 64, 0
2, 15528, Control_c, 0, 64, 127
2, 15528, Control_c, 0, 64, 127
2, 15647, Note_on_c, 0, 65, 38
2, 15653, Note_on_c, 0, 60, 31
2, 15657, Note_on_c, 0, 57, 39
2, 15697, Note_off_c, 0, 57, 64
2, 15699, Note_off_c, 0, 65, 64
2, 15706, Note_off_c, 0, 60, 64
2, 15850, Note_on_c, 0, 60, 31
2, 15852, Note_on_c, 0, 77, 46
2, 15865, Note_on_c, 0, 65, 30
2, 15870, Note_on_c, 0, 57, 27
2, 15918, Note_off_c, 0, 81, 64
2, 15940, Note_off_c, 0, 77, 64
2, 15954, Note_off_c, 0, 65, 64
2, 15955, Note_off_c, 0, 57, 64
2, 15965, Note_off_c, 0, 60, 64
2, 15971, Note_off_c, 0, 53, 64
2, 16088, Note_on_c, 0, 72, 50
2, 16101, Note_on_c, 0, 57, 30
2, 16104, Note_on_c, 0, 60, 27
2, 16108, Note_on_c, 0, 64, 24
2, 16116, Control_c, 0, 64, 0
2, 16116, Control_c, 0, 64, 0
2, 16138, Control_c, 0, 64, 127
2, 16138, Control_c, 0, 64, 127
2, 16196, Note_off_c, 0, 57, 64
2, 16196, Note_on_c, 0, 84, 50
2, 16199, Note_off_c, 0, 60, 64
2, 16203, Note_off_c, 0, 64, 64
2, 16263, Note_off_c, 0, 84, 64
2, 16279, Note_on_c, 0, 83, 54
2, 16288, Note_on_c, 0, 60, 49
2, 16296, Note_on_c, 0, 65, 38
2, 16296, Note_on_c, 0, 57, 39
2, 16309, Note_off_c, 0, 72, 64
2, 16319, Note_on_c, 0, 84, 67
2, 16332, Note_off_c, 0, 83, 64
2, 16371, Note_on_c, 0, 83, 61
2, 16383, Note_off_c, 0, 60, 64
2, 16388, Note_off_c, 0, 84, 64
2, 16391, Note_off_c, 0, 57, 64
2, 16391, Note_off_c, 0, 65, 64
2, 16426, Note_on_c, 0, 81, 41
2, 16426, Note_on_c, 0, 60, 36
2, 16433, Note_on_c, 0, 65, 31
2, 16433, Note_on_c, 0, 57, 39
2, 16450, Note_off_c, 0, 83, 64
2, 16493, Note_on_c, 0, 77, 38
2, 16499, Note_off_c, 0, 81, 64
2, 16521, Note_off_c, 0, 60, 64
2, 16528, Note_off_c, 0, 57, 64
2, 16528, Note_off_c, 0, 65, 64
2, 16554, Note_off_c, 0, 77, 64
2, 16568, Note_on_c, 0, 74, 58
2, 16573, Note_on_c, 0, 65, 46
2, 16573, Note_on_c, 0, 59, 46
2, 16606, Note_off_c, 0, 74, 64
2, 16624, Note_on_c, 0, 74, 47
2, 16658, Note_off_c, 0, 74, 64
2, 16668, Note_off_c, 0, 59, 64
2, 16668, Note_off_c, 0, 65, 64
2, 16684, Note_on_c, 0, 76, 58
2, 16692, Control_c, 0, 64, 0
2, 16692, Control_c, 0, 64, 0
2, 16698, Note_on_c, 0, 74, 69
2, 16701, Note_on_c, 0, 65, 43
2, 16701, Note_on_c, 0, 59, 39
2, 16712, Note_off_c, 0, 76, 64
2, 16714, Control_c, 0, 64, 127
2, 16714, Control_c, 0, 64, 127
2, 16737, Note_off_c, 0, 74, 64
2, 16796, Note_off_c, 0, 59, 64
2, 16796, Note_off_c, 0, 65, 64
2, 16832, Control_c, 0, 64, 0
2, 16832, Control_c, 0, 64, 0
2, 16848, Note_on_c, 0, 72, 61
2, 16849, Note_on_c, 0, 60, 50
2, 16855, Note_on_c, 0, 64, 32
2, 16872, Control_c, 0, 64, 127
2, 16872, Control_c, 0, 64, 127
2, 16909, Note_off_c, 0, 72, 64
2, 16944, Note_off_c, 0, 60, 64
2, 16950, Note_off_c, 0, 64, 64
2, 16992, Note_on_c, 0, 69, 69
2, 16994, Control_c, 0, 64, 0
2, 16994, Control_c, 0, 64, 0
2, 17001, Note_on_c, 0, 62, 46
2, 17002, Note_on_c, 0, 65, 41
2, 17013, Control_c, 0, 64, 127
2, 17013, Control_c, 0, 64, 127
2, 17068, Note_on_c, 0, 81, 61
2, 17096, Note_off_c, 0, 62, 64
2, 17097, Note_off_c, 0, 65, 64
2, 17119, Note_off_c, 0, 69, 64
2, 17121, Note_off_c, 0, 81, 64
2, 17131, Note_on_c, 0, 79, 61
2, 17136, Note_on_c, 0, 57, 46
2, 17139, Note_on_c, 0, 62, 53
2, 17139, Control_c, 0, 64, 0
2, 17139, Control_c, 0, 64, 0
2, 17147, Note_on_c, 0, 53, 31
2, 17156, Control_c, 0, 64, 127
2, 17156, Control_c, 0, 64, 127
2, 17182, Note_on_c, 0, 81, 64
2, 17192, Note_off_c, 0, 79, 64
2, 17219, Note_on_c, 0, 79, 61
2, 17231, Note_off_c, 0, 57, 64
2, 17234, Note_off_c, 0, 81, 64
2, 17234, Note_off_c, 0, 62, 64
2, 17242, Note_off_c, 0, 53, 64
2, 17263, Note_on_c, 0, 53, 46
2, 17265, Note_on_c, 0, 62, 39
2, 17267, Note_on_c, 0, 77, 67
2, 17293, Note_off_c, 0, 79, 64
2, 17325, Note_on_c, 0, 74, 54
2, 17339, Note_off_c, 0, 77, 64
2, 17358, Note_off_c, 0, 53, 64
2, 17360, Note_off_c, 0, 62, 64
2, 17379, Note_off_c, 0, 74, 64
2, 17400, Note_on_c, 0, 71, 73
2, 17400, Note_on_c, 0, 52, 49
2, 17402, Note_on_c, 0, 62, 47
2, 17432, Note_off_c, 0, 71, 64
2, 17456, Note_on_c, 0, 71, 60
2, 17488, Note_off_c, 0, 71, 64
2, 17495, Note_off_c, 0, 52, 64
2, 17497, Note_off_c, 0, 62, 64
2, 17508, Note_on_c, 0, 72, 69
2, 17515, Control_c, 0, 64, 0
2, 17515, Control_c, 0, 64, 0
2, 17525, Note_on_c, 0, 52, 53
2, 17526, Note_on_c, 0, 62, 53
2, 17528, Note_on_c, 0, 71, 69
2, 17538, Note_off_c, 0, 72, 64
2, 17546, Control_c, 0, 64, 127
2, 17546, Control_c, 0, 64, 127
2, 17564, Note_off_c, 0, 71, 64
2, 17620, Note_off_c, 0, 52, 64
2, 17621, Note_off_c, 0, 62, 64
2, 17665, Note_on_c, 0, 69, 75
2, 17669, Note_on_c, 0, 60, 53
2, 17673, Note_on_c, 0, 57, 53
2, 17694, Note_off_c, 0, 69, 64
2, 17764, Note_off_c, 0, 60, 64
2, 17768, Note_off_c, 0, 57, 64
2, 17806, Note_on_c, 0, 60, 46
2, 17806, Note_on_c, 0, 57, 50
2, 17807, Note_on_c, 0, 72, 76
2, 17810, Note_on_c, 0, 64, 50
2, 17863, Note_off_c, 0, 72, 64
2, 17867, Note_on_c, 0, 84, 69
2, 17901, Note_off_c, 0, 57, 64
2, 17901, Note_off_c, 0, 60, 64
2, 17905, Note_off_c, 0, 64, 64
2, 17906, Note_off_c, 0, 84, 64
2, 17936, Note_on_c, 0, 83, 84
2, 17939, Note_on_c, 0, 60, 49
2, 17947, Note_on_c, 0, 65, 54
2, 17948, Note_on_c, 0, 57, 43
2, 17960, Note_on_c, 0, 84, 71
2, 17972, Note_off_c, 0, 83, 64
2, 18004, Note_off_c, 0, 84, 64
2, 18004, Note_on_c, 0, 83, 69
2, 18034, Note_off_c, 0, 60, 64
2, 18034, Note_on_c, 0, 84, 69
2, 18042, Note_off_c, 0, 65, 64
2, 18043, Note_off_c, 0, 57, 64
2, 18063, Note_on_c, 0, 60, 43
2, 18068, Note_on_c, 0, 65, 45
2, 18068, Note_on_c, 0, 57, 46
2, 18069, Note_off_c, 0, 84, 64
2, 18082, Note_on_c, 0, 81, 69
2, 18086, Note_off_c, 0, 83, 64
2, 18118, Note_off_c, 0, 81, 64
2, 18143, Note_on_c, 0, 77, 73
2, 18158, Note_off_c, 0, 60, 64
2, 18163, Note_off_c, 0, 57, 64
2, 18163, Note_off_c, 0, 65, 64
2, 18180, Note_off_c, 0, 77, 64
2, 18211, Note_on_c, 0, 59, 56
2, 18213, Note_on_c, 0, 74, 76
2, 18216, Note_on_c, 0, 65, 45
2, 18239, Note_off_c, 0, 74, 64
2, 18279, Note_on_c, 0, 74, 69
2, 18306, Note_off_c, 0, 59, 64
2, 18308, Control_c, 0, 64, 0
2, 18308, Control_c, 0, 64, 0
2, 18311, Note_off_c, 0, 65, 64
2, 18315, Note_off_c, 0, 74, 64
2, 18320, Note_on_c, 0, 76, 75
2, 18336, Note_on_c, 0, 74, 73
2, 18341, Note_on_c, 0, 65, 53
2, 18341, Note_on_c, 0, 59, 53
2, 18346, Note_off_c, 0, 76, 64
2, 18362, Control_c, 0, 64, 127
2, 18362, Control_c, 0, 64, 127
2, 18370, Note_off_c, 0, 74, 64
2, 18436, Note_off_c, 0, 59, 64
2, 18436, Note_off_c, 0, 65, 64
2, 18450, Control_c, 0, 64, 0
2, 18450, Control_c, 0, 64, 0
2, 18475, Note_on_c, 0, 72, 69
2, 18480, Note_on_c, 0, 60, 47
2, 18488, Note_on_c, 0, 64, 46
2, 18501, Control_c, 0, 64, 127
2, 18501, Control_c, 0, 64, 127
2, 18535, Note_off_c, 0, 72, 64
2, 18575, Note_off_c, 0, 60, 64
2, 18583, Note_off_c, 0, 64, 64
2, 18609, Control_c, 0, 64, 0
2, 18609, Control_c, 0, 64, 0
2, 18613, Note_on_c, 0, 69, 69
2, 18628, Note_on_c, 0, 65, 36
2, 18628, Note_on_c, 0, 62, 53
2, 18642, Control_c, 0, 64, 127
2, 18642, Control_c, 0, 64, 127
2, 18678, Note_on_c, 0, 81, 61
2, 18684, Note_off_c, 0, 69, 64
2, 18723, Note_off_c, 0, 62, 64
2, 18723, Note_off_c, 0, 65, 64
2, 18727, Note_off_c, 0, 81, 64
2, 18753, Note_on_c, 0, 57, 46
2, 18756, Note_on_c, 0, 62, 46
2, 18763, Note_on_c, 0, 79, 67
2, 18768, Note_on_c, 0, 53, 46
2, 18783, Note_on_c, 0, 81, 65
2, 18799, Note_off_c, 0, 79, 64
2, 18821, Note_off_c, 0, 81, 64
2, 18822, Note_on_c, 0, 79, 57
2, 18845, Note_on_c, 0, 81, 61
2, 18848, Note_off_c, 0, 57, 64
2, 18851, Note_off_c, 0, 62, 64
2, 18863, Note_off_c, 0, 53, 64
2, 18880, Note_on_c, 0, 57, 54
2, 18884, Note_off_c, 0, 81, 64
2, 18889, Note_on_c, 0, 53, 43
2, 18891, Note_on_c, 0, 62, 31
2, 18901, Note_on_c, 0, 77, 64
2, 18907, Note_off_c, 0, 79, 64
2, 18937, Note_off_c, 0, 77, 64
2, 18960, Note_on_c, 0, 74, 61
2, 18975, Note_off_c, 0, 57, 64
2, 18980, Note_off_c, 0, 74, 64
2, 18984, Note_off_c, 0, 53, 64
2, 18986, Note_off_c, 0, 62, 64
2, 19032, Note_on_c, 0, 71, 54
2, 19036, Note_on_c, 0, 62, 46
2, 19036, Note_on_c, 0, 52, 45
2, 19062, Note_off_c, 0, 71, 64
2, 19080, Note_on_c, 0, 71, 61
2, 19115, Note_off_c, 0, 71, 64
2, 19131, Note_off_c, 0, 52, 64
2, 19131, Note_off_c, 0, 62, 64
2, 19133, Control_c, 0, 64, 0
2, 19133, Control_c, 0, 64, 0
2, 19148, Note_on_c, 0, 72, 61
2, 19160, Note_on_c, 0, 52, 49
2, 19164, Note_on_c, 0, 71, 69
2, 19164, Note_on_c, 0, 62, 49
2, 19175, Note_off_c, 0, 72, 64
2, 19255, Note_off_c, 0, 52, 64
2, 19257, Note_off_c, 0, 71, 64
2, 19259, Note_off_c, 0, 62, 64
2, 19306, Note_on_c, 0, 69, 69
2, 19311, Note_on_c, 0, 60, 64
2, 19318, Note_on_c, 0, 57, 61
2, 19409, Note_off_c, 0, 57, 64
2, 19421, Note_off_c, 0, 69, 64
2, 19422, Note_off_c, 0, 60, 64
2, 19450, Note_on_c, 0, 62, 73
2, 19454, Note_on_c, 0, 67, 80
2, 19454, Note_on_c, 0, 55, 73
2, 19460, Note_on_c, 0, 71, 83
2, 19495, Note_off_c, 0, 62, 64
2, 19499, Note_off_c, 0, 55, 64
2, 19499, Note_off_c, 0, 67, 64
2, 19505, Note_off_c, 0, 71, 64
2, 19599, Note_on_c, 0, 67, 73
2, 19604, Note_on_c, 0, 71, 80
2, 19614, Note_on_c, 0, 55, 71
2, 19615, Note_on_c, 0, 62, 73
2, 19675, Note_on_c, 0, 72, 76
2, 19679, Note_off_c, 0, 67, 64
2, 19690, Note_off_c, 0, 71, 64
2, 19721, Note_off_c, 0, 55, 64
2, 19735, Note_on_c, 0, 74, 75
2, 19744, Note_on_c, 0, 57, 57
2, 19746, Note_on_c, 0, 65, 73
2, 19746, Note_on_c, 0, 50, 61
2, 19752, Note_off_c, 0, 72, 64
2, 19758, Control_c, 0, 64, 127
2, 19758, Control_c, 0, 64, 127
2, 19774, Note_off_c, 0, 62, 64
2, 19790, Note_off_c, 0, 65, 64
2, 19810, Note_off_c, 0, 50, 64
2, 19812, Note_off_c, 0, 57, 64
2, 19858, Control_c, 0, 64, 0
2, 19858, Control_c, 0, 64, 0
2, 19883, Note_off_c, 0, 74, 64
2, 19889, Note_on_c, 0, 71, 83
2, 19889, Note_on_c, 0, 67, 76
2, 19889, Note_on_c, 0, 55, 73
2, 19895, Note_on_c, 0, 62, 73
2, 19925, Note_off_c, 0, 55, 64
2, 19927, Note_off_c, 0, 62, 64
2, 19934, Note_off_c, 0, 67, 64
2, 19934, Note_off_c, 0, 71, 64
2, 20035, Note_on_c, 0, 71, 83
2, 20039, Note_on_c, 0, 67, 75
2, 20042, Note_on_c, 0, 55, 75
2, 20046, Note_on_c, 0, 62, 73
2, 20092, Note_on_c, 0, 72, 63
2, 20100, Note_off_c, 0, 67, 64
2, 20122, Note_off_c, 0, 71, 64
2, 20129, Note_off_c, 0, 55, 64
2, 20168, Note_on_c, 0, 57, 68
2, 20170, Note_on_c, 0, 74, 73
2, 20175, Note_on_c, 0, 50, 69
2, 20177, Note_on_c, 0, 65, 71
2, 20180, Control_c, 0, 64, 127
2, 20180, Control_c, 0, 64, 127
2, 20190, Note_off_c, 0, 72, 64
2, 20206, Note_off_c, 0, 62, 64
2, 20214, Note_off_c, 0, 50, 64
2, 20219, Note_off_c, 0, 65, 64
2, 20219, Note_off_c, 0, 57, 64
2, 20228, Note_off_c, 0, 74, 64
2, 20299, Control_c, 0, 64, 0
2, 20299, Control_c, 0, 64, 0
2, 20305, Note_on_c, 0, 65, 64
2, 20314, Note_on_c, 0, 57, 69
2, 20320, Note_on_c, 0, 77, 82
2, 20320, Note_on_c, 0, 62, 69
2, 20322, Note_on_c, 0, 50, 69
2, 20334, Control_c, 0, 64, 127
2, 20334, Control_c, 0, 64, 127
2, 20356, Note_off_c, 0, 50, 64
2, 20365, Note_off_c, 0, 62, 64
2, 20365, Note_off_c, 0, 57, 64
2, 20389, Note_off_c, 0, 77, 64
2, 20392, Note_on_c, 0, 76, 68
2, 20396, Note_off_c, 0, 65, 64
2, 20439, Control_c, 0, 64, 0
2, 20439, Control_c, 0, 64, 0
2, 20452, Note_on_c, 0, 65, 60
2, 20455, Note_off_c, 0, 76, 64
2, 20455, Note_on_c, 0, 74, 100
2, 20455, Note_on_c, 0, 57, 57
2, 20457, Note_on_c, 0, 50, 72
2, 20460, Note_on_c, 0, 62, 60
2, 20472, Control_c, 0, 64, 127
2, 20472, Control_c, 0, 64, 127
2, 20577, Note_off_c, 0, 65, 64
2, 20578, Control_c, 0, 64, 0
2, 20578, Control_c, 0, 64, 0
2, 20580, Note_off_c, 0, 57, 64
2, 20580, Note_off_c, 0, 74, 64
2, 20582, Note_off_c, 0, 50, 64
2, 20585, Note_off_c, 0, 62, 64
2, 20592, Note_on_c, 0, 67, 64
2, 20592, Note_on_c, 0, 65, 68
2, 20597, Note_on_c, 0, 55, 71
2, 20601, Note_on_c, 0, 59, 69
2, 20636, Note_off_c, 0, 55, 64
2, 20645, Note_off_c, 0, 59, 64
2, 20653, Note_on_c, 0, 76, 58
2, 20659, Note_off_c, 0, 67, 64
2, 20666, Note_off_c, 0, 65, 64
2, 20702, Note_off_c, 0, 76, 64
2, 20720, Note_on_c, 0, 55, 63
2, 20721, Note_on_c, 0, 72, 61
2, 20727, Note_on_c, 0, 64, 73
2, 20727, Note_on_c, 0, 60, 69
2, 20727, Note_on_c, 0, 48, 64
2, 20748, Note_off_c, 0, 48, 64
2, 20751, Note_off_c, 0, 64, 64
2, 20751, Note_off_c, 0, 72, 64
2, 20756, Note_off_c, 0, 55, 64
2, 20759, Note_off_c, 0, 60, 64
2, 20865, Note_on_c, 0, 64, 73
2, 20873, Note_on_c, 0, 72, 78
2, 20873, Note_on_c, 0, 55, 73
2, 20879, Note_on_c, 0, 60, 73
2, 20881, Note_on_c, 0, 48, 68
2, 20898, Note_off_c, 0, 64, 64
2, 20900, Note_off_c, 0, 48, 64
2, 20900, Note_off_c, 0, 72, 64
2, 20907, Note_off_c, 0, 60, 64
2, 20907, Note_off_c, 0, 55, 64
2, 21016, Note_on_c, 0, 64, 75
2, 21021, Note_on_c, 0, 72, 78
2, 21025, Note_on_c, 0, 60, 73
2, 21025, Note_on_c, 0, 55, 69
2, 21031, Note_on_c, 0, 48, 64
2, 21038, Control_c, 0, 64, 127
2, 21038, Control_c, 0, 64, 127
2, 21052, Note_off_c, 0, 55, 64
2, 21058, Note_off_c, 0, 48, 64
2, 21060, Note_off_c, 0, 60, 64
2, 21066, Note_off_c, 0, 64, 64
2, 21149, Control_c, 0, 64, 0
2, 21149, Control_c, 0, 64, 0
2, 21153, Note_off_c, 0, 72, 64
2, 21159, Note_on_c, 0, 71, 76
2, 21159, Note_on_c, 0, 67, 75
2, 21159, Note_on_c, 0, 55, 65
2, 21166, Note_on_c, 0, 62, 69
2, 21188, Note_off_c, 0, 67, 64
2, 21189, Note_off_c, 0, 71, 64
2, 21191, Note_off_c, 0, 55, 64
2, 21195, Note_off_c, 0, 62, 64
2, 21320, Note_on_c, 0, 71, 78
2, 21320, Note_on_c, 0, 67, 73
2, 21320, Note_on_c, 0, 55, 73
2, 21327, Note_on_c, 0, 62, 73
2, 21368, Note_off_c, 0, 67, 64
2, 21380, Note_on_c, 0, 72, 63
2, 21406, Note_off_c, 0, 71, 64
2, 21432, Note_off_c, 0, 55, 64
2, 21454, Note_on_c, 0, 74, 84
2, 21454, Control_c, 0, 64, 127
2, 21454, Control_c, 0, 64, 127
2, 21463, Note_on_c, 0, 65, 80
2, 21463, Note_on_c, 0, 57, 63
2, 21463, Note_on_c, 0, 50, 73
2, 21472, Note_off_c, 0, 72, 64
2, 21490, Note_off_c, 0, 62, 64
2, 21497, Note_off_c, 0, 65, 64
2, 21512, Note_off_c, 0, 50, 64
2, 21524, Note_off_c, 0, 57, 64
2, 21581, Control_c, 0, 64, 0
2, 21581, Control_c, 0, 64, 0
2, 21591, Note_off_c, 0, 74, 64
2, 21600, Note_on_c, 0, 71, 83
2, 21601, Note_on_c, 0, 67, 75
2, 21608, Note_on_c, 0, 62, 69
2, 21608, Note_on_c, 0, 55, 71
2, 21643, Note_off_c, 0, 55, 64
2, 21645, Note_off_c, 0, 67, 64
2, 21646, Note_off_c, 0, 62, 64
2, 21657, Note_off_c, 0, 71, 64
2, 21680, Note_on_c, 0, 72, 56
2, 21740, Note_off_c, 0, 72, 64
2, 21742, Note_on_c, 0, 71, 76
2, 21748, Note_on_c, 0, 67, 73
2, 21751, Note_on_c, 0, 62, 71
2, 21751, Note_on_c, 0, 55, 73
2, 21792, Note_off_c, 0, 67, 64
2, 21794, Note_off_c, 0, 55, 64
2, 21799, Note_off_c, 0, 62, 64
2, 21810, Note_on_c, 0, 72, 60
2, 21817, Note_off_c, 0, 71, 64
2, 21879, Note_off_c, 0, 72, 64
2, 21879, Note_on_c, 0, 74, 69
2, 21885, Note_on_c, 0, 65, 73
2, 21890, Note_on_c, 0, 62, 71
2, 21890, Note_on_c, 0, 57, 73
2, 21890, Note_on_c, 0, 50, 71
2, 21899, Control_c, 0, 64, 127
2, 21899, Control_c, 0, 64, 127
2, 21923, Note_off_c, 0, 50, 64
2, 21929, Note_off_c, 0, 57, 64
2, 21932, Note_off_c, 0, 62, 64
2, 21932, Note_off_c, 0, 65, 64
2, 21947, Note_off_c, 0, 74, 64
2, 22000, Control_c, 0, 64, 0
2, 22000, Control_c, 0, 64, 0
2, 22026, Note_on_c, 0, 65, 71
2, 22027, Note_on_c, 0, 77, 80
2, 22030, Note_on_c, 0, 57, 73
2, 22032, Note_on_c, 0, 62, 73
2, 22037, Note_on_c, 0, 50, 69
2, 22046, Control_c, 0, 64, 127
2, 22046, Control_c, 0, 64, 127
2, 22071, Note_off_c, 0, 50, 64
2, 22073, Note_off_c, 0, 57, 64
2, 22082, Note_off_c, 0, 62, 64
2, 22096, Note_on_c, 0, 76, 65
2, 22106, Note_off_c, 0, 77, 64
2, 22133, Note_off_c, 0, 65, 64
2, 22147, Control_c, 0, 64, 0
2, 22147, Control_c, 0, 64, 0
2, 22163, Note_on_c, 0, 74, 82
2, 22167, Note_on_c, 0, 57, 42
2, 22168, Note_on_c, 0, 65, 83
2, 22170, Note_on_c, 0, 62, 54
2, 22170, Note_on_c, 0, 50, 69
2, 22176, Note_off_c, 0, 76, 64
2, 22181, Control_c, 0, 64, 127
2, 22181, Control_c, 0, 64, 127
2, 22288, Note_off_c, 0, 74, 64
2, 22291, Control_c, 0, 64, 0
2, 22291, Control_c, 0, 64, 0
2, 22292, Note_off_c, 0, 57, 64
2, 22293, Note_off_c, 0, 65, 64
2, 22295, Note_off_c, 0, 50, 64
2, 22295, Note_off_c, 0, 62, 64
2, 22304, Note_on_c, 0, 67, 58
2, 22304, Note_on_c, 0, 65, 71
2, 22308, Note_on_c, 0, 55, 73
2, 22314, Note_on_c, 0, 59, 69
2, 22324, Control_c, 0, 64, 127
2, 22324, Control_c, 0, 64, 127
2, 22350, Note_off_c, 0, 55, 64
2, 22353, Note_off_c, 0, 59, 64
2, 22368, Note_on_c, 0, 76, 64
2, 22373, Note_off_c, 0, 67, 64
2, 22377, Note_off_c, 0, 65, 64
2, 22412, Control_c, 0, 64, 0
2, 22412, Control_c, 0, 64, 0
2, 22420, Note_off_c, 0, 76, 64
2, 22433, Note_on_c, 0, 72, 75
2, 22438, Note_on_c, 0, 64, 67
2, 22438, Note_on_c, 0, 60, 73
2, 22438, Note_on_c, 0, 55, 61
2, 22440, Note_on_c, 0, 48, 67
2, 22461, Note_off_c, 0, 48, 64
2, 22462, Note_off_c, 0, 64, 64
2, 22474, Note_off_c, 0, 55, 64
2, 22474, Note_off_c, 0, 72, 64
2, 22476, Note_off_c, 0, 60, 64
2, 22582, Note_on_c, 0, 72, 73
2, 22582, Note_on_c, 0, 60, 73
2, 22582, Note_on_c, 0, 55, 68
2, 22582, Note_on_c, 0, 48, 67
2, 22583, Note_on_c, 0, 64, 76
2, 22606, Note_off_c, 0, 48, 64
2, 22613, Note_off_c, 0, 60, 64
2, 22618, Note_off_c, 0, 55, 64
2, 22625, Note_off_c, 0, 64, 64
2, 22626, Note_off_c, 0, 72, 64
2, 22722, Note_on_c, 0, 64, 69
2, 22724, Note_on_c, 0, 55, 63
2, 22724, Note_on_c, 0, 48, 68
2, 22726, Note_on_c, 0, 60, 73
2, 22727, Note_on_c, 0, 72, 69
2, 22741, Note_off_c, 0, 55, 64
2, 22745, Note_off_c, 0, 60, 64
2, 22747, Note_off_c, 0, 48, 64
2, 22752, Control_c, 0, 64, 127
2, 22752, Control_c, 0, 64, 127
2, 22777, Note_off_c, 0, 64, 64
2, 22789, Note_off_c, 0, 72, 64
2, 22870, Note_on_c, 0, 60, 73
2, 22877, Note_on_c, 0, 72, 60
2, 22914, Note_off_c, 0, 60, 64
2, 22928, Note_off_c, 0, 72, 64
2, 23040, Note_on_c, 0, 72, 60
2, 23042, Note_on_c, 0, 60, 61
2, 23078, Note_off_c, 0, 60, 64
2, 23096, Note_off_c, 0, 72, 64
2, 23194, Note_on_c, 0, 60, 65
2, 23196, Note_on_c, 0, 72, 79
2, 23256, Note_off_c, 0, 72, 64
2, 23261, Note_off_c, 0, 60, 64
2, 23345, Note_on_c, 0, 48, 68
2, 23350, Note_on_c, 0, 72, 69
2, 23352, Note_on_c, 0, 64, 69
2, 23354, Note_on_c, 0, 60, 69
2, 23354, Note_on_c, 0, 55, 54
2, 23385, Note_off_c, 0, 60, 64
2, 23385, Note_off_c, 0, 48, 64
2, 23391, Note_off_c, 0, 55, 64
2, 23392, Control_c, 0, 64, 0
2, 23392, Control_c, 0, 64, 0
2, 23400, Note_off_c, 0, 64, 64
2, 23402, Note_off_c, 0, 72, 64
2, 23506, Note_on_c, 0, 60, 57
2, 23508, Note_on_c, 0, 72, 69
2, 23512, Note_on_c, 0, 55, 50
2, 23513, Note_on_c, 0, 64, 60
2, 23513, Note_on_c, 0, 48, 64
2, 23545, Note_off_c, 0, 48, 64
2, 23547, Note_off_c, 0, 60, 64
2, 23554, Note_off_c, 0, 64, 64
2, 23554, Note_off_c, 0, 55, 64
2, 23561, Note_off_c, 0, 72, 64
2, 23654, Note_on_c, 0, 64, 75
2, 23659, Note_on_c, 0, 55, 49
2, 23664, Note_on_c, 0, 72, 76
2, 23664, Note_on_c, 0, 60, 67
2, 23664, Note_on_c, 0, 48, 69
2, 23676, Control_c, 0, 64, 127
2, 23676, Control_c, 0, 64, 127
2, 23700, Note_off_c, 0, 48, 64
2, 23708, Note_off_c, 0, 55, 64
2, 23712, Note_off_c, 0, 60, 64
2, 23712, Note_off_c, 0, 64, 64
2, 23729, Note_off_c, 0, 72, 64
2, 23816, Note_on_c, 0, 72, 75
2, 23816, Note_on_c, 0, 60, 69
2, 23868, Note_off_c, 0, 60, 64
2, 23880, Note_off_c, 0, 72, 64
2, 23972, Note_on_c, 0, 72, 73
2, 23977, Note_on_c, 0, 60, 69
2, 24030, Note_off_c, 0, 72, 64
2, 24032, Note_off_c, 0, 60, 64
2, 24120, Control_c, 0, 64, 0
2, 24120, Control_c, 0, 64, 0
2, 24126, Note_on_c, 0, 72, 64
2, 24126, Note_on_c, 0, 64, 61
2, 24126, Note_on_c, 0, 60, 61
2, 24126, Note_on_c, 0, 55, 57
2, 24134, Note_on_c, 0, 48, 61
2, 24144, Control_c, 0, 64, 127
2, 24144, Control_c, 0, 64, 127
2, 24183, Note_off_c, 0, 64, 64
2, 24196, Note_off_c, 0, 48, 64
2, 24198, Note_off_c, 0, 72, 64
2, 24204, Note_off_c, 0, 60, 64
2, 24206, Note_off_c, 0, 55, 64
2, 24282, Note_on_c, 0, 64, 57
2, 24286, Note_on_c, 0, 72, 63
2, 24286, Note_on_c, 0, 55, 42
2, 24290, Note_on_c, 0, 48, 52
2, 24297, Note_on_c, 0, 60, 46
2, 24336, Note_off_c, 0, 48, 64
2, 24337, Note_off_c, 0, 64, 64
2, 24343, Note_off_c, 0, 55, 64
2, 24356, Note_off_c, 0, 72, 64
2, 24375, Note_off_c, 0, 60, 64
2, 24468, Note_on_c, 0, 72, 50
2, 24470, Note_on_c, 0, 60, 47
2, 24480, Control_c, 0, 64, 0
2, 24480, Control_c, 0, 64, 0
2, 24492, Control_c, 0, 64, 127
2, 24492, Control_c, 0, 64, 127
2, 24556, Note_off_c, 0, 60, 64
2, 24566, Note_off_c, 0, 72, 64
2, 24697, Note_on_c, 0, 60, 65
2, 24703, Note_on_c, 0, 72, 76
2, 24742, Note_off_c, 0, 60, 64
2, 24893, Note_on_c, 0, 32, 87
2, 24900, Note_on_c, 0, 66, 68
2, 24900, Note_on_c, 0, 60, 65
2, 24909, Control_c, 0, 64, 0
2, 24909, Control_c, 0, 64, 0
2, 24932, Note_off_c, 0, 60, 64
2, 24932, Note_off_c, 0, 72, 64
2, 24940, Note_off_c, 0, 66, 64
2, 24999, Note_off_c, 0, 32, 64
2, 25068, Note_on_c, 0, 51, 54
2, 25068, Note_on_c, 0, 44, 69
2, 25070, Note_on_c, 0, 66, 80
2, 25070, Note_on_c, 0, 60, 54
2, 25070, Note_on_c, 0, 56, 80
2, 25105, Note_off_c, 0, 44, 64
2, 25105, Note_off_c, 0, 51, 64
2, 25107, Note_off_c, 0, 56, 64
2, 25107, Note_off_c, 0, 60, 64
2, 25110, Note_off_c, 0, 66, 64
2, 25232, Note_on_c, 0, 60, 52
2, 25233, Control_c, 0, 64, 127
2, 25233, Control_c, 0, 64, 127
2, 25237, Note_on_c, 0, 66, 87
2, 25237, Note_on_c, 0, 56, 64
2, 25240, Note_on_c, 0, 51, 52
2, 25242, Note_on_c, 0, 44, 64
2, 25266, Note_on_c, 0, 68, 95
2, 25269, Note_off_c, 0, 60, 64
2, 25274, Note_off_c, 0, 56, 64
2, 25277, Note_off_c, 0, 51, 64
2, 25279, Note_off_c, 0, 44, 64
2, 25279, Note_off_c, 0, 66, 64
2, 25302, Note_on_c, 0, 66, 84
2, 25324, Note_off_c, 0, 68, 64
2, 25363, Note_off_c, 0, 66, 64
2, 25384, Note_on_c, 0, 37, 93
2, 25387, Note_on_c, 0, 65, 93
2, 25393, Control_c, 0, 64, 0
2, 25393, Control_c, 0, 64, 0
2, 25409, Control_c, 0, 64, 127
2, 25409, Control_c, 0, 64, 127
2, 25443, Note_on_c, 0, 68, 65
2, 25455, Note_off_c, 0, 65, 64
2, 25490, Note_off_c, 0, 37, 64
2, 25507, Note_on_c, 0, 73, 71
2, 25519, Note_off_c, 0, 68, 64
2, 25520, Note_on_c, 0, 53, 42
2, 25522, Note_on_c, 0, 61, 60
2, 25524, Note_on_c, 0, 56, 50
2, 25557, Note_off_c, 0, 53, 64
2, 25559, Note_off_c, 0, 61, 64
2, 25561, Note_off_c, 0, 56, 64
2, 25664, Note_on_c, 0, 61, 54
2, 25665, Note_off_c, 0, 73, 64
2, 25670, Note_on_c, 0, 77, 75
2, 25671, Note_on_c, 0, 53, 54
2, 25672, Note_on_c, 0, 56, 50
2, 25701, Note_off_c, 0, 61, 64
2, 25708, Note_off_c, 0, 53, 64
2, 25709, Note_off_c, 0, 56, 64
2, 25796, Note_on_c, 0, 75, 65
2, 25796, Control_c, 0, 64, 0
2, 25796, Control_c, 0, 64, 0
2, 25803, Note_on_c, 0, 42, 72
2, 25807, Note_off_c, 0, 77, 64
2, 25827, Control_c, 0, 64, 127
2, 25827, Control_c, 0, 64, 127
2, 25853, Note_on_c, 0, 73, 71
2, 25871, Note_off_c, 0, 75, 64
2, 25895, Control_c, 0, 64, 0
2, 25895, Control_c, 0, 64, 0
2, 25909, Note_off_c, 0, 42, 64
2, 25915, Note_on_c, 0, 70, 76
2, 25922, Note_on_c, 0, 61, 64
2, 25922, Note_on_c, 0, 58, 68
2, 25922, Note_on_c, 0, 54, 60
2, 25933, Note_off_c, 0, 73, 64
2, 25937, Control_c, 0, 64, 127
2, 25937, Control_c, 0, 64, 127
2, 25959, Note_off_c, 0, 54, 64
2, 25959, Note_off_c, 0, 58, 64
2, 25959, Note_off_c, 0, 61, 64
2, 26059, Note_off_c, 0, 70, 64
2, 26064, Note_on_c, 0, 61, 61
2, 26065, Note_on_c, 0, 66, 80
2, 26069, Note_on_c, 0, 58, 46
2, 26076, Note_on_c, 0, 54, 46
2, 26101, Note_off_c, 0, 61, 64
2, 26106, Note_off_c, 0, 58, 64
2, 26113, Note_off_c, 0, 54, 64
2, 26156, Note_off_c, 0, 66, 64
2, 26195, Control_c, 0, 64, 0
2, 26195, Control_c, 0, 64, 0
2, 26202, Note_on_c, 0, 37, 69
2, 26210, Note_on_c, 0, 65, 84
2, 26233, Control_c, 0, 64, 127
2, 26233, Control_c, 0, 64, 127
2, 26268, Note_on_c, 0, 68, 76
2, 26287, Note_off_c, 0, 65, 64
2, 26308, Note_off_c, 0, 37, 64
2, 26314, Control_c, 0, 64, 0
2, 26314, Control_c, 0, 64, 0
2, 26320, Note_on_c, 0, 56, 56
2, 26321, Note_on_c, 0, 61, 73
2, 26324, Note_on_c, 0, 53, 67
2, 26328, Note_on_c, 0, 73, 61
2, 26334, Control_c, 0, 64, 127
2, 26334, Control_c, 0, 64, 127
2, 26339, Note_off_c, 0, 68, 64
2, 26357, Note_off_c, 0, 56, 64
2, 26358, Note_off_c, 0, 61, 64
2, 26361, Note_off_c, 0, 53, 64
2, 26464, Note_on_c, 0, 80, 84
2, 26476, Note_on_c, 0, 56, 60
2, 26477, Note_on_c, 0, 61, 69
2, 26482, Note_off_c, 0, 73, 64
2, 26483, Note_on_c, 0, 53, 58
2, 26513, Note_off_c, 0, 56, 64
2, 26514, Note_off_c, 0, 61, 64
2, 26520, Note_off_c, 0, 53, 64
2, 26549, Note_off_c, 0, 80, 64
2, 26593, Note_on_c, 0, 60, 58
2, 26596, Note_on_c, 0, 66, 65
2, 26596, Note_on_c, 0, 44, 72
2, 26598, Control_c, 0, 64, 0
2, 26598, Control_c, 0, 64, 0
2, 26604, Note_on_c, 0, 56, 60
2, 26609, Note_on_c, 0, 51, 54
2, 26625, Note_off_c, 0, 66, 64
2, 26630, Note_off_c, 0, 60, 64
2, 26633, Note_off_c, 0, 44, 64
2, 26638, Control_c, 0, 64, 0
2, 26638, Control_c, 0, 64, 0
2, 26641, Note_off_c, 0, 56, 64
2, 26646, Note_off_c, 0, 51, 64
2, 26739, Note_on_c, 0, 60, 61
2, 26740, Note_on_c, 0, 66, 69
2, 26744, Note_on_c, 0, 51, 54
2, 26745, Note_on_c, 0, 56, 63
2, 26746, Note_on_c, 0, 44, 60
2, 26767, Note_off_c, 0, 66, 64
2, 26776, Note_off_c, 0, 60, 64
2, 26781, Note_off_c, 0, 51, 64
2, 26782, Note_off_c, 0, 56, 64
2, 26783, Note_off_c, 0, 44, 64
2, 26866, Note_on_c, 0, 66, 68
2, 26870, Note_on_c, 0, 56, 54
2, 26872, Note_on_c, 0, 60, 52
2, 26876, Note_on_c, 0, 44, 53
2, 26880, Note_on_c, 0, 51, 46
2, 26885, Note_on_c, 0, 68, 75
2, 26889, Control_c, 0, 64, 127
2, 26889, Control_c, 0, 64, 127
2, 26898, Note_off_c, 0, 66, 64
2, 26907, Note_off_c, 0, 56, 64
2, 26909, Note_off_c, 0, 60, 64
2, 26913, Note_off_c, 0, 44, 64
2, 26917, Note_off_c, 0, 51, 64
2, 26929, Note_on_c, 0, 66, 68
2, 26941, Note_off_c, 0, 68, 64
2, 26975, Note_off_c, 0, 66, 64
2, 26988, Note_on_c, 0, 37, 80
2, 26993, Note_on_c, 0, 65, 93
2, 27041, Note_on_c, 0, 68, 60
2, 27056, Note_off_c, 0, 65, 64
2, 27094, Note_off_c, 0, 37, 64
2, 27105, Control_c, 0, 64, 0
2, 27105, Control_c, 0, 64, 0
2, 27112, Note_on_c, 0, 56, 60
2, 27113, Note_on_c, 0, 73, 52
2, 27113, Note_on_c, 0, 61, 60
2, 27113, Note_on_c, 0, 53, 60
2, 27122, Note_off_c, 0, 68, 64
2, 27138, Control_c, 0, 64, 127
2, 27138, Control_c, 0, 64, 127
2, 27149, Note_off_c, 0, 56, 64
2, 27150, Note_off_c, 0, 53, 64
2, 27150, Note_off_c, 0, 61, 64
2, 27240, Note_on_c, 0, 56, 58
2, 27245, Note_on_c, 0, 61, 58
2, 27249, Note_off_c, 0, 73, 64
2, 27249, Note_on_c, 0, 77, 67
2, 27254, Note_on_c, 0, 53, 58
2, 27277, Note_off_c, 0, 56, 64
2, 27282, Note_off_c, 0, 61, 64
2, 27289, Control_c, 0, 64, 0
2, 27289, Control_c, 0, 64, 0
2, 27291, Note_off_c, 0, 53, 64
2, 27322, Control_c, 0, 64, 127
2, 27322, Control_c, 0, 64, 127
2, 27377, Note_on_c, 0, 39, 73
2, 27381, Note_on_c, 0, 75, 71
2, 27390, Control_c, 0, 64, 0
2, 27390, Control_c, 0, 64, 0
2, 27397, Note_off_c, 0, 77, 64
2, 27419, Control_c, 0, 64, 127
2, 27419, Control_c, 0, 64, 127
2, 27443, Note_on_c, 0, 73, 60
2, 27464, Note_off_c, 0, 75, 64
2, 27483, Note_off_c, 0, 39, 64
2, 27498, Note_on_c, 0, 55, 54
2, 27504, Note_on_c, 0, 61, 54
2, 27509, Note_on_c, 0, 51, 54
2, 27511, Note_on_c, 0, 70, 71
2, 27524, Note_off_c, 0, 73, 64
2, 27535, Note_off_c, 0, 55, 64
2, 27541, Note_off_c, 0, 61, 64
2, 27546, Note_off_c, 0, 51, 64
2, 27638, Note_off_c, 0, 70, 64
2, 27640, Note_on_c, 0, 63, 61
2, 27655, Note_on_c, 0, 61, 53
2, 27660, Note_on_c, 0, 55, 53
2, 27668, Note_on_c, 0, 51, 53
2, 27692, Note_off_c, 0, 61, 64
2, 27697, Note_off_c, 0, 55, 64
2, 27705, Note_off_c, 0, 51, 64
2, 27781, Note_off_c, 0, 63, 64
2, 27790, Control_c, 0, 64, 0
2, 27790, Control_c, 0, 64, 0
2, 27798, Note_on_c, 0, 44, 67
2, 27800, Note_on_c, 0, 68, 69
2, 27828, Control_c, 0, 64, 127
2, 27828, Control_c, 0, 64, 127
2, 27843, Note_off_c, 0, 44, 64
2, 27858, Note_on_c, 0, 72, 61
2, 27871, Note_off_c, 0, 68, 64
2, 27910, Note_on_c, 0, 56, 50
2, 27914, Note_on_c, 0, 51, 50
2, 27918, Note_on_c, 0, 75, 53
2, 27918, Note_on_c, 0, 60, 50
2, 27931, Note_off_c, 0, 72, 64
2, 27947, Note_off_c, 0, 56, 64
2, 27951, Note_off_c, 0, 51, 64
2, 27955, Note_off_c, 0, 60, 64
2, 28077, Note_on_c, 0, 80, 65
2, 28090, Note_on_c, 0, 56, 46
2, 28094, Note_off_c, 0, 75, 64
2, 28094, Note_on_c, 0, 51, 46
2, 28100, Note_on_c, 0, 60, 46
2, 28127, Note_off_c, 0, 56, 64
2, 28131, Note_off_c, 0, 51, 64
2, 28137, Note_off_c, 0, 60, 64
2, 28240, Note_on_c, 0, 56, 71
2, 28240, Note_on_c, 0, 51, 63
2, 28242, Note_on_c, 0, 60, 82
2, 28242, Note_on_c, 0, 44, 84
2, 28245, Note_on_c, 0, 66, 82
2, 28251, Control_c, 0, 64, 0
2, 28251, Control_c, 0, 64, 0
2, 28259, Note_off_c, 0, 80, 64
2, 28277, Note_off_c, 0, 51, 64
2, 28277, Note_off_c, 0, 56, 64
2, 28279, Note_off_c, 0, 44, 64
2, 28279, Note_off_c, 0, 60, 64
2, 28280, Note_off_c, 0, 66, 64
2, 28386, Note_on_c, 0, 60, 79
2, 28389, Note_on_c, 0, 44, 82
2, 28391, Note_on_c, 0, 66, 84
2, 28391, Note_on_c, 0, 56, 84
2, 28391, Note_on_c, 0, 51, 79
2, 28416, Note_off_c, 0, 66, 64
2, 28423, Note_off_c, 0, 60, 64
2, 28426, Note_off_c, 0, 44, 64
2, 28428, Note_off_c, 0, 51, 64
2, 28428, Note_off_c, 0, 56, 64
2, 28449, Control_c, 0, 64, 0
2, 28449, Control_c, 0, 64, 0
2, 28449, Control_c, 0, 64, 0
2, 28449, Control_c, 0, 64, 0
2, 28482, Control_c, 0, 64, 127
2, 28482, Control_c, 0, 64, 127
2, 28482, Control_c, 0, 64, 127
2, 28482, Control_c, 0, 64, 127
2, 28522, Control_c, 0, 64, 127
2, 28522, Control_c, 0, 64, 127
2, 28527, Note_on_c, 0, 66, 97
2, 28528, Note_on_c, 0, 60, 60
2, 28532, Note_on_c, 0, 56, 71
2, 28532, Note_on_c, 0, 51, 67
2, 28532, Note_on_c, 0, 44, 69
2, 28555, Note_on_c, 0, 68, 94
2, 28561, Note_off_c, 0, 66, 64
2, 28565, Note_off_c, 0, 60, 64
2, 28569, Note_off_c, 0, 44, 64
2, 28569, Note_off_c, 0, 51, 64
2, 28569, Note_off_c, 0, 56, 64
2, 28591, Note_on_c, 0, 66, 80
2, 28605, Note_off_c, 0, 68, 64
2, 28639, Note_off_c, 0, 66, 64
2, 28647, Note_on_c, 0, 37, 106
2, 28655, Note_on_c, 0, 65, 75
2, 28698, Note_on_c, 0, 68, 93
2, 28715, Note_off_c, 0, 65, 64
2, 28749, Control_c, 0, 64, 0
2, 28749, Control_c, 0, 64, 0
2, 28753, Note_off_c, 0, 37, 64
2, 28761, Note_on_c, 0, 73, 84
2, 28768, Note_on_c, 0, 56, 68
2, 28768, Note_on_c, 0, 53, 68
2, 28769, Note_on_c, 0, 61, 68
2, 28780, Note_off_c, 0, 68, 64
2, 28805, Note_off_c, 0, 53, 64
2, 28805, Note_off_c, 0, 56, 64
2, 28805, Control_c, 0, 64, 127
2, 28805, Control_c, 0, 64, 127
2, 28806, Note_off_c, 0, 61, 64
2, 28903, Note_on_c, 0, 77, 64
2, 28909, Note_on_c, 0, 61, 67
2, 28910, Note_off_c, 0, 73, 64
2, 28910, Note_on_c, 0, 53, 67
2, 28921, Note_on_c, 0, 56, 67
2, 28946, Note_off_c, 0, 61, 64
2, 28947, Note_off_c, 0, 53, 64
2, 28958, Note_off_c, 0, 56, 64
2, 29026, Control_c, 0, 64, 0
2, 29026, Control_c, 0, 64, 0
2, 29032, Note_on_c, 0, 75, 72
2, 29038, Note_on_c, 0, 42, 106
2, 29044, Note_off_c, 0, 77, 64
2, 29062, Control_c, 0, 64, 127
2, 29062, Control_c, 0, 64, 127
2, 29089, Note_on_c, 0, 73, 71
2, 29105, Note_off_c, 0, 75, 64
2, 29136, Note_on_c, 0, 58, 63
2, 29141, Note_on_c, 0, 61, 63
2, 29141, Note_on_c, 0, 54, 63
2, 29144, Note_off_c, 0, 42, 64
2, 29148, Note_on_c, 0, 70, 80
2, 29157, Note_off_c, 0, 73, 64
2, 29173, Note_off_c, 0, 58, 64
2, 29178, Note_off_c, 0, 54, 64
2, 29178, Note_off_c, 0, 61, 64
2, 29268, Control_c, 0, 64, 0
2, 29268, Control_c, 0, 64, 0
2, 29287, Note_on_c, 0, 61, 60
2, 29289, Note_on_c, 0, 66, 93
2, 29289, Note_on_c, 0, 58, 58
2, 29295, Note_on_c, 0, 54, 58
2, 29301, Note_off_c, 0, 70, 64
2, 29302, Control_c, 0, 64, 127
2, 29302, Control_c, 0, 64, 127
2, 29324, Note_off_c, 0, 61, 64
2, 29326, Note_off_c, 0, 58, 64
2, 29332, Note_off_c, 0, 54, 64
2, 29380, Note_off_c, 0, 66, 64
2, 29403, Control_c, 0, 64, 0
2, 29403, Control_c, 0, 64, 0
2, 29417, Note_on_c, 0, 37, 93
2, 29420, Note_on_c, 0, 65, 75
2, 29433, Control_c, 0, 64, 127
2, 29433, Control_c, 0, 64, 127
2, 29471, Note_on_c, 0, 68, 72
2, 29487, Note_off_c, 0, 65, 64
2, 29512, Control_c, 0, 64, 0
2, 29512, Control_c, 0, 64, 0
2, 29521, Note_on_c, 0, 53, 56
2, 29523, Note_off_c, 0, 37, 64
2, 29528, Note_on_c, 0, 61, 56
2, 29532, Note_on_c, 0, 73, 79
2, 29538, Note_on_c, 0, 56, 56
2, 29543, Note_off_c, 0, 68, 64
2, 29558, Note_off_c, 0, 53, 64
2, 29565, Note_off_c, 0, 61, 64
2, 29570, Control_c, 0, 64, 127
2, 29570, Control_c, 0, 64, 127
2, 29575, Note_off_c, 0, 56, 64
2, 29665, Note_on_c, 0, 80, 76
2, 29672, Note_on_c, 0, 61, 53
2, 29679, Note_on_c, 0, 53, 53
2, 29682, Note_off_c, 0, 73, 64
2, 29682, Note_on_c, 0, 56, 53
2, 29709, Note_off_c, 0, 61, 64
2, 29710, Note_off_c, 0, 80, 64
2, 29716, Note_off_c, 0, 53, 64
2, 29719, Note_off_c, 0, 56, 64
2, 29784, Control_c, 0, 64, 0
2, 29784, Control_c, 0, 64, 0
2, 29795, Note_on_c, 0, 51, 52
2, 29796, Note_on_c, 0, 66, 58
2, 29796, Note_on_c, 0, 60, 57
2, 29796, Note_on_c, 0, 56, 58
2, 29796, Note_on_c, 0, 44, 58
2, 29824, Note_off_c, 0, 66, 64
2, 29832, Note_off_c, 0, 51, 64
2, 29833, Note_off_c, 0, 44, 64
2, 29833, Note_off_c, 0, 56, 64
2, 29833, Note_off_c, 0, 60, 64
2, 29930, Note_on_c, 0, 44, 53
2, 29932, Note_on_c, 0, 51, 54
2, 29933, Note_on_c, 0, 66, 65
2, 29933, Note_on_c, 0, 60, 54
2, 29934, Note_on_c, 0, 56, 61
2, 29967, Note_off_c, 0, 44, 64
2, 29969, Note_off_c, 0, 66, 64
2, 29969, Note_off_c, 0, 51, 64
2, 29970, Note_off_c, 0, 60, 64
2, 29971, Note_off_c, 0, 56, 64
2, 30057, Note_on_c, 0, 66, 56
2, 30060, Note_on_c, 0, 60, 36
2, 30067, Note_on_c, 0, 56, 52
2, 30067, Note_on_c, 0, 51, 46
2, 30067, Note_on_c, 0, 44, 52
2, 30068, Control_c, 0, 64, 127
2, 30068, Control_c, 0, 64, 127
2, 30080, Note_on_c, 0, 68, 61
2, 30087, Note_off_c, 0, 66, 64
2, 30097, Note_off_c, 0, 60, 64
2, 30104, Note_off_c, 0, 44, 64
2, 30104, Note_off_c, 0, 51, 64
2, 30104, Note_off_c, 0, 56, 64
2, 30114, Note_on_c, 0, 66, 56
2, 30120, Note_off_c, 0, 68, 64
2, 30157, Note_off_c, 0, 66, 64
2, 30192, Control_c, 0, 64, 0
2, 30192, Control_c, 0, 64, 0
2, 30198, Note_on_c, 0, 49, 93
2, 30200, Note_on_c, 0, 65, 60
2, 30209, Control_c, 0, 64, 127
2, 30209, Control_c, 0, 64, 127
2, 30237, Note_off_c, 0, 65, 64
2, 30248, Note_on_c, 0, 56, 80
2, 30280, Control_c, 0, 64, 0
2, 30280, Control_c, 0, 64, 0
2, 30294, Note_off_c, 0, 49, 64
2, 30316, Note_on_c, 0, 65, 61
2, 30317, Note_on_c, 0, 61, 69
2, 30320, Note_on_c, 0, 73, 56
2, 30329, Control_c, 0, 64, 127
2, 30329, Control_c, 0, 64, 127
2, 30347, Note_off_c, 0, 56, 64
2, 30366, Note_off_c, 0, 65, 64
2, 30371, Note_off_c, 0, 73, 64
2, 30385, Control_c, 0, 64, 0
2, 30385, Control_c, 0, 64, 0
2, 30429, Note_off_c, 0, 61, 64
2, 30443, Note_on_c, 0, 65, 87
2, 30444, Note_on_c, 0, 68, 61
2, 30447, Note_on_c, 0, 73, 57
2, 30456, Control_c, 0, 64, 127
2, 30456, Control_c, 0, 64, 127
2, 30484, Note_off_c, 0, 68, 64
2, 30487, Note_off_c, 0, 73, 64
2, 30585, Control_c, 0, 64, 0
2, 30585, Control_c, 0, 64, 0
2, 30589, Note_on_c, 0, 63, 69
2, 30595, Note_off_c, 0, 65, 64
2, 30595, Note_on_c, 0, 67, 53
2, 30599, Note_on_c, 0, 73, 60
2, 30606, Control_c, 0, 64, 127
2, 30606, Control_c, 0, 64, 127
2, 30625, Note_off_c, 0, 73, 64
2, 30625, Note_off_c, 0, 67, 64
2, 30637, Note_on_c, 0, 61, 69
2, 30647, Note_off_c, 0, 63, 64
2, 30677, Control_c, 0, 64, 0
2, 30677, Control_c, 0, 64, 0
2, 30693, Note_on_c, 0, 58, 69
2, 30703, Note_off_c, 0, 61, 64
2, 30708, Note_on_c, 0, 73, 63
2, 30709, Note_on_c, 0, 67, 57
2, 30716, Control_c, 0, 64, 127
2, 30716, Control_c, 0, 64, 127
2, 30746, Note_off_c, 0, 67, 64
2, 30751, Note_off_c, 0, 73, 64
2, 30837, Note_on_c, 0, 67, 54
2, 30837, Note_on_c, 0, 51, 84
2, 30839, Note_off_c, 0, 58, 64
2, 30843, Note_on_c, 0, 73, 60
2, 30876, Note_off_c, 0, 67, 64
2, 30877, Note_off_c, 0, 73, 64
2, 30921, Control_c, 0, 64, 127
2, 30921, Control_c, 0, 64, 127
2, 30951, Control_c, 0, 64, 0
2, 30951, Control_c, 0, 64, 0
2, 30964, Note_on_c, 0, 44, 76
2, 30968, Note_off_c, 0, 51, 64
2, 30976, Note_on_c, 0, 72, 61
2, 30976, Control_c, 0, 64, 127
2, 30976, Control_c, 0, 64, 127
2, 30983, Note_on_c, 0, 68, 54
2, 31014, Note_off_c, 0, 72, 64
2, 31017, Note_off_c, 0, 68, 64
2, 31020, Note_on_c, 0, 56, 73
2, 31059, Control_c, 0, 64, 0
2, 31059, Control_c, 0, 64, 0
2, 31070, Note_off_c, 0, 44, 64
2, 31086, Note_on_c, 0, 72, 61
2, 31090, Note_on_c, 0, 68, 63
2, 31095, Note_on_c, 0, 63, 76
2, 31101, Control_c, 0, 64, 127
2, 31101, Control_c, 0, 64, 127
2, 31103, Note_off_c, 0, 56, 64
2, 31124, Note_off_c, 0, 72, 64
2, 31126, Note_off_c, 0, 68, 64
2, 31244, Note_on_c, 0, 68, 87
2, 31255, Note_on_c, 0, 72, 54
2, 31267, Note_off_c, 0, 63, 64
2, 31291, Note_off_c, 0, 72, 64
2, 31330, Note_off_c, 0, 68, 64
2, 31432, Note_on_c, 0, 65, 56
2, 31437, Note_on_c, 0, 68, 56
2, 31442, Note_on_c, 0, 75, 61
2, 31453, Control_c, 0, 64, 0
2, 31453, Control_c, 0, 64, 0
2, 31498, Control_c, 0, 64, 127
2, 31498, Control_c, 0, 64, 127
2, 31504, Note_off_c, 0, 68, 64
2, 31508, Note_off_c, 0, 75, 64
2, 31606, Note_on_c, 0, 68, 54
2, 31609, Note_on_c, 0, 75, 58
2, 31654, Note_off_c, 0, 75, 64
2, 31654, Note_off_c, 0, 68, 64
2, 31739, Note_on_c, 0, 59, 71
2, 31743, Note_off_c, 0, 65, 64
2, 31748, Note_on_c, 0, 68, 54
2, 31752, Note_on_c, 0, 75, 64
2, 31789, Note_off_c, 0, 75, 64
2, 31798, Note_off_c, 0, 68, 64
2, 31881, Note_on_c, 0, 65, 69
2, 31887, Note_on_c, 0, 68, 65
2, 31893, Note_on_c, 0, 75, 65
2, 31896, Note_off_c, 0, 59, 64
2, 31904, Control_c, 0, 64, 0
2, 31904, Control_c, 0, 64, 0
2, 31926, Control_c, 0, 64, 127
2, 31926, Control_c, 0, 64, 127
2, 31937, Note_off_c, 0, 68, 64
2, 31941, Note_off_c, 0, 75, 64
2, 32024, Note_on_c, 0, 75, 64
2, 32024, Note_on_c, 0, 68, 69
2, 32065, Note_off_c, 0, 68, 64
2, 32065, Note_off_c, 0, 75, 64
2, 32152, Note_on_c, 0, 68, 69
2, 32153, Note_on_c, 0, 75, 61
2, 32157, Note_on_c, 0, 59, 64
2, 32190, Note_off_c, 0, 65, 64
2, 32196, Note_off_c, 0, 75, 64
2, 32198, Note_off_c, 0, 68, 64
2, 32244, Note_off_c, 0, 59, 64
2, 32276, Note_on_c, 0, 65, 64
2, 32280, Note_on_c, 0, 74, 58
2, 32283, Note_on_c, 0, 68, 79
2, 32327, Note_off_c, 0, 74, 64
2, 32336, Note_on_c, 0, 59, 69
2, 32352, Note_off_c, 0, 65, 64
2, 32394, Note_on_c, 0, 58, 86
2, 32396, Note_on_c, 0, 74, 58
2, 32401, Note_on_c, 0, 70, 60
2, 32403, Note_off_c, 0, 68, 64
2, 32412, Note_off_c, 0, 59, 64
2, 32443, Note_off_c, 0, 74, 64
2, 32515, Note_off_c, 0, 70, 64
2, 32534, Note_on_c, 0, 56, 76
2, 32541, Note_on_c, 0, 74, 64
2, 32545, Note_on_c, 0, 71, 57
2, 32546, Note_off_c, 0, 58, 64
2, 32588, Note_off_c, 0, 74, 64
2, 32659, Note_off_c, 0, 71, 64
2, 32666, Note_on_c, 0, 54, 69
2, 32671, Control_c, 0, 64, 0
2, 32671, Control_c, 0, 64, 0
2, 32672, Note_on_c, 0, 75, 56
2, 32672, Note_on_c, 0, 70, 79
2, 32679, Note_off_c, 0, 56, 64
2, 32689, Control_c, 0, 64, 127
2, 32689, Control_c, 0, 64, 127
2, 32719, Note_off_c, 0, 75, 64
2, 32724, Note_on_c, 0, 51, 84
2, 32731, Note_off_c, 0, 54, 64
2, 32771, Control_c, 0, 64, 0
2, 32771, Control_c, 0, 64, 0
2, 32780, Note_on_c, 0, 58, 76
2, 32786, Note_off_c, 0, 70, 64
2, 32793, Note_on_c, 0, 75, 60
2, 32793, Note_on_c, 0, 66, 84
2, 32811, Note_off_c, 0, 51, 64
2, 32812, Control_c, 0, 64, 127
2, 32812, Control_c, 0, 64, 127
2, 32840, Note_off_c, 0, 75, 64
2, 32907, Note_off_c, 0, 66, 64
2, 32928, Note_on_c, 0, 70, 69
2, 32928, Note_on_c, 0, 66, 84
2, 32931, Note_off_c, 0, 58, 64
2, 32931, Note_on_c, 0, 75, 63
2, 32978, Note_off_c, 0, 75, 64
2, 32990, Note_off_c, 0, 66, 64
2, 33005, Control_c, 0, 64, 127
2, 33005, Control_c, 0, 64, 127
2, 33042, Note_off_c, 0, 70, 64
2, 33059, Control_c, 0, 64, 0
2, 33059, Control_c, 0, 64, 0
2, 33075, Note_on_c, 0, 68, 71
2, 33075, Note_on_c, 0, 65, 78
2, 33081, Note_on_c, 0, 75, 58
2, 33101, Control_c, 0, 64, 127
2, 33101, Control_c, 0, 64, 127
2, 33116, Note_off_c, 0, 75, 64
2, 33121, Note_off_c, 0, 68, 64
2, 33168, Control_c, 0, 64, 0
2, 33168, Control_c, 0, 64, 0
2, 33180, Control_c, 0, 64, 127
2, 33180, Control_c, 0, 64, 127
2, 33203, Note_on_c, 0, 68, 69
2, 33209, Note_on_c, 0, 75, 61
2, 33248, Note_off_c, 0, 75, 64
2, 33251, Note_off_c, 0, 68, 64
2, 33330, Note_on_c, 0, 59, 67
2, 33334, Note_on_c, 0, 68, 73
2, 33336, Note_on_c, 0, 75, 64
2, 33346, Note_off_c, 0, 65, 64
2, 33378, Note_off_c, 0, 75, 64
2, 33378, Note_off_c, 0, 68, 64
2, 33445, Note_off_c, 0, 59, 64
2, 33445, Control_c, 0, 64, 0
2, 33445, Control_c, 0, 64, 0
2, 33455, Note_on_c, 0, 65, 78
2, 33462, Note_on_c, 0, 68, 76
2, 33468, Note_on_c, 0, 75, 69
2, 33475, Control_c, 0, 64, 127
2, 33475, Control_c, 0, 64, 127
2, 33511, Note_off_c, 0, 75, 64
2, 33513, Note_off_c, 0, 68, 64
2, 33596, Note_on_c, 0, 68, 71
2, 33601, Note_on_c, 0, 75, 56
2, 33639, Note_off_c, 0, 75, 64
2, 33642, Note_off_c, 0, 68, 64
2, 33719, Note_on_c, 0, 68, 69
2, 33721, Note_on_c, 0, 59, 65
2, 33726, Note_on_c, 0, 75, 54
2, 33739, Note_off_c, 0, 65, 64
2, 33762, Note_off_c, 0, 75, 64
2, 33766, Note_off_c, 0, 68, 64
2, 33818, Note_off_c, 0, 59, 64
2, 33848, Note_on_c, 0, 65, 64
2, 33852, Note_on_c, 0, 74, 58
2, 33855, Note_on_c, 0, 68, 79
2, 33899, Note_off_c, 0, 74, 64
2, 33908, Note_on_c, 0, 59, 69
2, 33924, Note_off_c, 0, 65, 64
2, 33966, Note_on_c, 0, 58, 86
2, 33968, Note_on_c, 0, 74, 58
2, 33973, Note_on_c, 0, 70, 60
2, 33975, Note_off_c, 0, 68, 64
2, 33984, Note_off_c, 0, 59, 64
2, 34015, Note_off_c, 0, 74, 64
2, 34087, Note_off_c, 0, 70, 64
2, 34106, Note_on_c, 0, 56, 76
2, 34113, Note_on_c, 0, 74, 64
2, 34117, Note_on_c, 0, 71, 57
2, 34118, Note_off_c, 0, 58, 64
2, 34160, Note_off_c, 0, 74, 64
2, 34231, Note_off_c, 0, 71, 64
2, 34238, Note_on_c, 0, 54, 69
2, 34243, Control_c, 0, 64, 0
2, 34243, Control_c, 0, 64, 0
2, 34244, Note_on_c, 0, 75, 56
2, 34244, Note_on_c, 0, 70, 79
2, 34251, Note_off_c, 0, 56, 64
2, 34261, Control_c, 0, 64, 127
2, 34261, Control_c, 0, 64, 127
2, 34291, Note_off_c, 0, 75, 64
2, 34296, Note_on_c, 0, 53, 84
2, 34303, Note_off_c, 0, 54, 64
2, 34329, Control_c, 0, 64, 0
2, 34329, Control_c, 0, 64, 0
2, 34343, Control_c, 0, 64, 0
2, 34343, Control_c, 0, 64, 0
2, 34352, Note_on_c, 0, 51, 76
2, 34358, Note_off_c, 0, 70, 64
2, 34365, Note_on_c, 0, 75, 60
2, 34365, Note_on_c, 0, 66, 84
2, 34377, Control_c, 0, 64, 127
2, 34377, Control_c, 0, 64, 127
2, 34383, Note_off_c, 0, 53, 64
2, 34384, Control_c, 0, 64, 127
2, 34384, Control_c, 0, 64, 127
2, 34412, Note_off_c, 0, 75, 64
2, 34479, Note_off_c, 0, 66, 64
2, 34503, Note_off_c, 0, 51, 64
2, 34532, Note_on_c, 0, 75, 63
2, 34532, Note_on_c, 0, 70, 69
2, 34532, Note_on_c, 0, 54, 84
2, 34579, Note_off_c, 0, 75, 64
2, 34592, Note_off_c, 0, 54, 64
2, 34617, Note_off_c, 0, 70, 64
2, 34653, Control_c, 0, 64, 0
2, 34653, Control_c, 0, 64, 0
2, 34676, Note_on_c, 0, 68, 61
2, 34679, Note_on_c, 0, 75, 54
2, 34680, Note_on_c, 0, 53, 67
2, 34696, Control_c, 0, 64, 127
2, 34696, Control_c, 0, 64, 127
2, 34716, Note_off_c, 0, 75, 64
2, 34721, Note_off_c, 0, 68, 64
2, 34800, Note_on_c, 0, 68, 58
2, 34802, Note_on_c, 0, 75, 46
2, 34844, Note_off_c, 0, 75, 64
2, 34847, Note_off_c, 0, 68, 64
2, 34913, Control_c, 0, 64, 0
2, 34913, Control_c, 0, 64, 0
2, 34920, Note_on_c, 0, 47, 71
2, 34931, Note_on_c, 0, 68, 60
2, 34937, Note_on_c, 0, 75, 53
2, 34944, Note_off_c, 0, 53, 64
2, 34945, Control_c, 0, 64, 127
2, 34945, Control_c, 0, 64, 127
2, 34974, Note_off_c, 0, 75, 64
2, 34974, Note_off_c, 0, 68, 64
2, 35034, Control_c, 0, 64, 0
2, 35034, Control_c, 0, 64, 0
2, 35050, Note_off_c, 0, 47, 64
2, 35056, Note_on_c, 0, 53, 83
2, 35062, Note_on_c, 0, 68, 61
2, 35064, Note_on_c, 0, 75, 53
2, 35073, Control_c, 0, 64, 127
2, 35073, Control_c, 0, 64, 127
2, 35104, Note_off_c, 0, 75, 64
2, 35109, Note_off_c, 0, 68, 64
2, 35185, Note_on_c, 0, 68, 60
2, 35193, Note_on_c, 0, 75, 46
2, 35229, Note_off_c, 0, 75, 64
2, 35236, Note_off_c, 0, 68, 64
2, 35308, Note_on_c, 0, 47, 68
2, 35309, Note_on_c, 0, 68, 58
2, 35314, Note_on_c, 0, 75, 52
2, 35331, Note_off_c, 0, 53, 64
2, 35354, Note_off_c, 0, 75, 64
2, 35357, Note_off_c, 0, 68, 64
2, 35423, Note_off_c, 0, 47, 64
2, 35423, Note_on_c, 0, 53, 79
2, 35424, Note_on_c, 0, 68, 69
2, 35424, Note_on_c, 0, 74, 47
2, 35464, Note_off_c, 0, 74, 64
2, 35480, Note_on_c, 0, 47, 78
2, 35494, Note_off_c, 0, 53, 64
2, 35534, Note_off_c, 0, 68, 64
2, 35540, Note_on_c, 0, 74, 46
2, 35540, Note_on_c, 0, 70, 56
2, 35540, Note_on_c, 0, 46, 93
2, 35552, Note_off_c, 0, 47, 64
2, 35586, Note_off_c, 0, 74, 64
2, 35639, Note_off_c, 0, 70, 64
2, 35656, Note_on_c, 0, 71, 56
2, 35660, Note_on_c, 0, 44, 93
2, 35664, Note_on_c, 0, 74, 46
2, 35703, Note_off_c, 0, 46, 64
2, 35710, Note_off_c, 0, 74, 64
2, 35755, Note_off_c, 0, 71, 64
2, 35784, Control_c, 0, 64, 0
2, 35784, Control_c, 0, 64, 0
2, 35796, Note_on_c, 0, 70, 61
2, 35799, Note_on_c, 0, 42, 93
2, 35800, Note_on_c, 0, 75, 52
2, 35811, Control_c, 0, 64, 127
2, 35811, Control_c, 0, 64, 127
2, 35824, Note_off_c, 0, 44, 64
2, 35833, Note_off_c, 0, 75, 64
2, 35840, Note_on_c, 0, 39, 93
2, 35874, Note_off_c, 0, 42, 64
2, 35895, Control_c, 0, 64, 0
2, 35895, Control_c, 0, 64, 0
2, 35904, Note_on_c, 0, 75, 57
2, 35906, Note_off_c, 0, 39, 64
2, 35908, Note_on_c, 0, 66, 86
2, 35910, Note_off_c, 0, 70, 64
2, 35920, Note_on_c, 0, 46, 100
2, 35942, Note_off_c, 0, 75, 64
2, 35948, Control_c, 0, 64, 127
2, 35948, Control_c, 0, 64, 127
2, 36024, Note_off_c, 0, 66, 64
2, 36060, Note_on_c, 0, 70, 71
2, 36060, Note_on_c, 0, 54, 69
2, 36061, Note_on_c, 0, 75, 57
2, 36083, Note_off_c, 0, 46, 64
2, 36101, Note_off_c, 0, 75, 64
2, 36157, Note_off_c, 0, 54, 64
2, 36186, Note_off_c, 0, 70, 64
2, 36189, Control_c, 0, 64, 0
2, 36189, Control_c, 0, 64, 0
2, 36198, Note_on_c, 0, 53, 76
2, 36200, Note_on_c, 0, 68, 61
2, 36206, Note_on_c, 0, 75, 53
2, 36238, Control_c, 0, 64, 127
2, 36238, Control_c, 0, 64, 127
2, 36247, Note_off_c, 0, 68, 64
2, 36251, Note_off_c, 0, 75, 64
2, 36327, Note_on_c, 0, 68, 61
2, 36335, Note_on_c, 0, 75, 54
2, 36371, Note_off_c, 0, 75, 64
2, 36379, Note_off_c, 0, 68, 64
2, 36444, Control_c, 0, 64, 0
2, 36444, Control_c, 0, 64, 0
2, 36453, Note_off_c, 0, 53, 64
2, 36457, Note_on_c, 0, 47, 69
2, 36464, Note_on_c, 0, 68, 61
2, 36470, Note_on_c, 0, 75, 57
2, 36477, Control_c, 0, 64, 127
2, 36477, Control_c, 0, 64, 127
2, 36510, Note_off_c, 0, 68, 64
2, 36513, Note_off_c, 0, 75, 64
2, 36592, Note_on_c, 0, 53, 80
2, 36601, Note_on_c, 0, 68, 63
2, 36605, Note_off_c, 0, 47, 64
2, 36605, Note_on_c, 0, 75, 61
2, 36643, Note_off_c, 0, 75, 64
2, 36647, Note_off_c, 0, 68, 64
2, 36730, Note_on_c, 0, 68, 57
2, 36738, Note_on_c, 0, 75, 56
2, 36781, Note_off_c, 0, 75, 64
2, 36781, Note_off_c, 0, 68, 64
2, 36866, Note_on_c, 0, 68, 60
2, 36873, Note_on_c, 0, 47, 68
2, 36877, Note_on_c, 0, 75, 57
2, 36900, Note_off_c, 0, 53, 64
2, 36916, Note_off_c, 0, 68, 64
2, 36921, Note_off_c, 0, 75, 64
2, 37024, Note_on_c, 0, 68, 54
2, 37024, Control_c, 0, 64, 0
2, 37024, Control_c, 0, 64, 0
2, 37031, Note_on_c, 0, 74, 58
2, 37043, Note_on_c, 0, 65, 69
2, 37063, Control_c, 0, 64, 127
2, 37063, Control_c, 0, 64, 127
2, 37075, Note_off_c, 0, 68, 64
2, 37088, Note_off_c, 0, 74, 64
2, 37138, Note_off_c, 0, 47, 64
2, 37172, Note_on_c, 0, 68, 56
2, 37178, Note_on_c, 0, 74, 57
2, 37221, Note_off_c, 0, 68, 64
2, 37232, Note_off_c, 0, 74, 64
2, 37301, Note_on_c, 0, 59, 69
2, 37311, Note_on_c, 0, 68, 60
2, 37316, Note_on_c, 0, 74, 49
2, 37328, Note_off_c, 0, 65, 64
2, 37347, Note_off_c, 0, 59, 64
2, 37362, Note_off_c, 0, 68, 64
2, 37363, Note_off_c, 0, 74, 64
2, 37468, Note_on_c, 0, 64, 65
2, 37475, Note_on_c, 0, 68, 56
2, 37479, Note_on_c, 0, 74, 54
2, 37492, Control_c, 0, 64, 0
2, 37492, Control_c, 0, 64, 0
2, 37527, Note_off_c, 0, 68, 64
2, 37530, Control_c, 0, 64, 127
2, 37530, Control_c, 0, 64, 127
2, 37537, Note_off_c, 0, 74, 64
2, 37635, Note_on_c, 0, 68, 49
2, 37638, Note_on_c, 0, 74, 54
2, 37677, Note_off_c, 0, 68, 64
2, 37685, Note_off_c, 0, 74, 64
2, 37807, Note_on_c, 0, 68, 41
2, 37817, Note_on_c, 0, 59, 67
2, 37820, Note_on_c, 0, 74, 53
2, 37847, Note_off_c, 0, 68, 64
2, 37860, Note_off_c, 0, 74, 64
2, 37869, Note_off_c, 0, 64, 64
2, 37876, Note_off_c, 0, 59, 64
2, 38041, Note_on_c, 0, 72, 69
2, 38041, Note_on_c, 0, 57, 38
2, 38044, Note_on_c, 0, 64, 38
2, 38045, Note_on_c, 0, 60, 36
2, 38074, Control_c, 0, 64, 0
2, 38074, Control_c, 0, 64, 0
2, 38094, Control_c, 0, 64, 127
2, 38094, Control_c, 0, 64, 127
2, 38136, Note_off_c, 0, 57, 64
2, 38136, Note_on_c, 0, 84, 76
2, 38139, Note_off_c, 0, 64, 64
2, 38140, Note_off_c, 0, 60, 64
2, 38204, Note_off_c, 0, 72, 64
2, 38208, Note_off_c, 0, 84, 64
2, 38248, Note_on_c, 0, 60, 41
2, 38250, Note_on_c, 0, 83, 82
2, 38259, Note_on_c, 0, 65, 36
2, 38263, Note_on_c, 0, 57, 39
2, 38273, Note_on_c, 0, 84, 54
2, 38293, Note_off_c, 0, 83, 64
2, 38329, Note_on_c, 0, 83, 73
2, 38343, Note_off_c, 0, 60, 64
2, 38354, Note_off_c, 0, 65, 64
2, 38358, Note_off_c, 0, 57, 64
2, 38382, Note_on_c, 0, 60, 41
2, 38384, Note_on_c, 0, 65, 39
2, 38384, Note_on_c, 0, 57, 39
2, 38395, Note_off_c, 0, 84, 64
2, 38398, Note_on_c, 0, 81, 64
2, 38430, Note_off_c, 0, 83, 64
2, 38458, Note_on_c, 0, 77, 53
2, 38473, Note_off_c, 0, 81, 64
2, 38477, Note_off_c, 0, 60, 64
2, 38479, Note_off_c, 0, 57, 64
2, 38479, Note_off_c, 0, 65, 64
2, 38518, Note_off_c, 0, 77, 64
2, 38520, Note_on_c, 0, 65, 45
2, 38525, Note_on_c, 0, 59, 47
2, 38528, Note_on_c, 0, 74, 69
2, 38573, Note_off_c, 0, 74, 64
2, 38584, Note_on_c, 0, 74, 46
2, 38615, Note_off_c, 0, 65, 64
2, 38620, Note_off_c, 0, 59, 64
2, 38628, Note_off_c, 0, 74, 64
2, 38631, Control_c, 0, 64, 0
2, 38631, Control_c, 0, 64, 0
2, 38632, Note_on_c, 0, 76, 60
2, 38644, Note_on_c, 0, 74, 72
2, 38646, Note_on_c, 0, 65, 30
2, 38647, Note_on_c, 0, 59, 41
2, 38656, Note_off_c, 0, 76, 64
2, 38673, Control_c, 0, 64, 127
2, 38673, Control_c, 0, 64, 127
2, 38686, Note_off_c, 0, 74, 64
2, 38741, Note_off_c, 0, 65, 64
2, 38742, Note_off_c, 0, 59, 64
2, 38770, Control_c, 0, 64, 0
2, 38770, Control_c, 0, 64, 0
2, 38791, Note_on_c, 0, 72, 69
2, 38799, Note_on_c, 0, 60, 38
2, 38805, Note_on_c, 0, 64, 30
2, 38814, Control_c, 0, 64, 127
2, 38814, Control_c, 0, 64, 127
2, 38852, Note_off_c, 0, 72, 64
2, 38894, Note_off_c, 0, 60, 64
2, 38900, Note_off_c, 0, 64, 64
2, 38921, Control_c, 0, 64, 0
2, 38921, Control_c, 0, 64, 0
2, 38936, Note_on_c, 0, 69, 71
2, 38938, Note_on_c, 0, 65, 41
2, 38943, Note_on_c, 0, 62, 53
2, 38951, Control_c, 0, 64, 127
2, 38951, Control_c, 0, 64, 127
2, 39004, Note_on_c, 0, 81, 65
2, 39033, Note_off_c, 0, 65, 64
2, 39038, Note_off_c, 0, 62, 64
2, 39045, Note_off_c, 0, 69, 64
2, 39055, Note_off_c, 0, 81, 64
2, 39062, Control_c, 0, 64, 0
2, 39062, Control_c, 0, 64, 0
2, 39068, Note_on_c, 0, 79, 61
2, 39071, Note_on_c, 0, 57, 50
2, 39074, Note_on_c, 0, 62, 54
2, 39079, Note_on_c, 0, 53, 43
2, 39082, Control_c, 0, 64, 127
2, 39082, Control_c, 0, 64, 127
2, 39115, Note_on_c, 0, 81, 61
2, 39130, Note_off_c, 0, 79, 64
2, 39160, Note_on_c, 0, 79, 63
2, 39166, Note_off_c, 0, 57, 64
2, 39169, Note_off_c, 0, 62, 64
2, 39174, Note_off_c, 0, 53, 64
2, 39176, Note_off_c, 0, 81, 64
2, 39202, Note_on_c, 0, 77, 71
2, 39207, Note_on_c, 0, 62, 41
2, 39207, Note_on_c, 0, 53, 41
2, 39229, Note_off_c, 0, 79, 64
2, 39262, Note_on_c, 0, 74, 47
2, 39274, Note_off_c, 0, 77, 64
2, 39302, Note_off_c, 0, 53, 64
2, 39302, Note_off_c, 0, 62, 64
2, 39315, Note_off_c, 0, 74, 64
2, 39329, Note_on_c, 0, 71, 76
2, 39336, Note_on_c, 0, 62, 50
2, 39343, Note_on_c, 0, 52, 57
2, 39369, Note_off_c, 0, 71, 64
2, 39398, Note_on_c, 0, 71, 61
2, 39431, Note_off_c, 0, 62, 64
2, 39435, Note_off_c, 0, 71, 64
2, 39438, Note_off_c, 0, 52, 64
2, 39440, Note_on_c, 0, 72, 69
2, 39446, Control_c, 0, 64, 0
2, 39446, Control_c, 0, 64, 0
2, 39451, Note_on_c, 0, 62, 46
2, 39456, Note_on_c, 0, 52, 53
2, 39458, Note_on_c, 0, 71, 75
2, 39466, Control_c, 0, 64, 127
2, 39466, Control_c, 0, 64, 127
2, 39472, Note_off_c, 0, 72, 64
2, 39503, Note_off_c, 0, 71, 64
2, 39546, Note_off_c, 0, 62, 64
2, 39551, Note_off_c, 0, 52, 64
2, 39585, Control_c, 0, 64, 0
2, 39585, Control_c, 0, 64, 0
2, 39593, Note_on_c, 0, 69, 73
2, 39598, Note_on_c, 0, 60, 53
2, 39600, Note_on_c, 0, 57, 42
2, 39605, Control_c, 0, 64, 127
2, 39605, Control_c, 0, 64, 127
2, 39624, Note_off_c, 0, 69, 64
2, 39693, Note_off_c, 0, 60, 64
2, 39695, Note_off_c, 0, 57, 64
2, 39716, Control_c, 0, 64, 0
2, 39716, Control_c, 0, 64, 0
2, 39726, Note_on_c, 0, 72, 76
2, 39732, Note_on_c, 0, 60, 45
2, 39733, Control_c, 0, 64, 127
2, 39733, Control_c, 0, 64, 127
2, 39737, Note_on_c, 0, 57, 45
2, 39783, Note_off_c, 0, 72, 64
2, 39788, Note_on_c, 0, 84, 69
2, 39826, Note_off_c, 0, 84, 64
2, 39827, Note_off_c, 0, 60, 64
2, 39832, Note_off_c, 0, 57, 64
2, 39858, Note_on_c, 0, 83, 76
2, 39864, Note_on_c, 0, 60, 50
2, 39867, Note_on_c, 0, 57, 53
2, 39872, Note_on_c, 0, 65, 54
2, 39880, Note_on_c, 0, 84, 73
2, 39895, Note_off_c, 0, 83, 64
2, 39920, Note_on_c, 0, 83, 73
2, 39932, Note_off_c, 0, 84, 64
2, 39949, Note_on_c, 0, 84, 71
2, 39955, Note_off_c, 0, 83, 64
2, 39959, Note_off_c, 0, 60, 64
2, 39962, Note_off_c, 0, 57, 64
2, 39967, Note_off_c, 0, 65, 64
2, 39972, Note_on_c, 0, 83, 53
2, 39980, Note_on_c, 0, 60, 39
2, 39988, Note_off_c, 0, 84, 64
2, 39989, Note_on_c, 0, 65, 39
2, 39989, Note_on_c, 0, 57, 46
2, 39999, Note_on_c, 0, 81, 69
2, 40004, Note_off_c, 0, 83, 64
2, 40043, Note_off_c, 0, 81, 64
2, 40060, Note_on_c, 0, 77, 78
2, 40075, Note_off_c, 0, 60, 64
2, 40084, Note_off_c, 0, 57, 64
2, 40084, Note_off_c, 0, 65, 64
2, 40101, Note_off_c, 0, 77, 64
2, 40105, Control_c, 0, 64, 0
2, 40105, Control_c, 0, 64, 0
2, 40115, Control_c, 0, 64, 127
2, 40115, Control_c, 0, 64, 127
2, 40130, Note_on_c, 0, 65, 45
2, 40130, Note_on_c, 0, 59, 49
2, 40135, Note_on_c, 0, 74, 76
2, 40162, Note_off_c, 0, 74, 64
2, 40188, Note_on_c, 0, 74, 69
2, 40218, Note_off_c, 0, 74, 64
2, 40224, Control_c, 0, 64, 0
2, 40224, Control_c, 0, 64, 0
2, 40225, Note_off_c, 0, 59, 64
2, 40225, Note_off_c, 0, 65, 64
2, 40240, Note_on_c, 0, 76, 75
2, 40251, Note_on_c, 0, 65, 45
2, 40251, Note_on_c, 0, 59, 49
2, 40259, Note_on_c, 0, 74, 67
2, 40265, Note_off_c, 0, 76, 64
2, 40274, Control_c, 0, 64, 127
2, 40274, Control_c, 0, 64, 127
2, 40295, Note_off_c, 0, 74, 64
2, 40346, Note_off_c, 0, 59, 64
2, 40346, Note_off_c, 0, 65, 64
2, 40380, Control_c, 0, 64, 0
2, 40380, Control_c, 0, 64, 0
2, 40385, Note_on_c, 0, 72, 71
2, 40394, Note_on_c, 0, 60, 49
2, 40397, Control_c, 0, 64, 127
2, 40397, Control_c, 0, 64, 127
2, 40405, Note_on_c, 0, 64, 43
2, 40438, Note_off_c, 0, 72, 64
2, 40489, Note_off_c, 0, 60, 64
2, 40500, Note_off_c, 0, 64, 64
2, 40500, Control_c, 0, 64, 0
2, 40500, Control_c, 0, 64, 0
2, 40526, Note_on_c, 0, 69, 73
2, 40530, Note_on_c, 0, 62, 54
2, 40540, Note_on_c, 0, 65, 46
2, 40552, Control_c, 0, 64, 127
2, 40552, Control_c, 0, 64, 127
2, 40575, Note_on_c, 0, 81, 69
2, 40577, Note_off_c, 0, 69, 64
2, 40624, Note_off_c, 0, 81, 64
2, 40625, Note_off_c, 0, 62, 64
2, 40635, Note_off_c, 0, 65, 64
2, 40650, Note_on_c, 0, 57, 39
2, 40656, Note_on_c, 0, 62, 38
2, 40658, Note_on_c, 0, 79, 73
2, 40672, Note_on_c, 0, 53, 20
2, 40681, Note_on_c, 0, 81, 76
2, 40689, Note_off_c, 0, 79, 64
2, 40714, Note_off_c, 0, 81, 64
2, 40718, Note_on_c, 0, 79, 71
2, 40745, Note_off_c, 0, 57, 64
2, 40748, Note_on_c, 0, 81, 69
2, 40751, Note_off_c, 0, 62, 64
2, 40752, Note_off_c, 0, 79, 64
2, 40767, Note_off_c, 0, 53, 64
2, 40773, Note_on_c, 0, 79, 64
2, 40779, Note_on_c, 0, 57, 42
2, 40779, Note_on_c, 0, 53, 46
2, 40785, Note_off_c, 0, 81, 64
2, 40785, Note_on_c, 0, 62, 49
2, 40796, Note_on_c, 0, 77, 73
2, 40804, Note_off_c, 0, 79, 64
2, 40840, Note_off_c, 0, 77, 64
2, 40865, Note_on_c, 0, 74, 61
2, 40874, Note_off_c, 0, 53, 64
2, 40874, Note_off_c, 0, 57, 64
2, 40880, Note_off_c, 0, 62, 64
2, 40901, Note_off_c, 0, 74, 64
2, 40924, Note_on_c, 0, 52, 56
2, 40926, Note_on_c, 0, 71, 68
2, 40926, Note_on_c, 0, 62, 49
2, 40954, Note_off_c, 0, 71, 64
2, 40990, Note_on_c, 0, 71, 73
2, 41019, Note_off_c, 0, 52, 64
2, 41021, Note_off_c, 0, 62, 64
2, 41028, Note_off_c, 0, 71, 64
2, 41032, Control_c, 0, 64, 0
2, 41032, Control_c, 0, 64, 0
2, 41046, Note_on_c, 0, 72, 73
2, 41060, Note_on_c, 0, 71, 76
2, 41060, Note_on_c, 0, 52, 53
2, 41061, Note_on_c, 0, 62, 56
2, 41072, Note_off_c, 0, 72, 64
2, 41104, Note_off_c, 0, 71, 64
2, 41155, Note_off_c, 0, 52, 64
2, 41156, Note_off_c, 0, 62, 64
2, 41202, Note_on_c, 0, 69, 80
2, 41207, Note_on_c, 0, 60, 75
2, 41210, Note_on_c, 0, 57, 71
2, 41293, Note_off_c, 0, 57, 64
2, 41319, Note_off_c, 0, 69, 64
2, 41327, Note_off_c, 0, 60, 64
2, 41340, Note_on_c, 0, 67, 75
2, 41346, Note_on_c, 0, 62, 73
2, 41346, Note_on_c, 0, 55, 73
2, 41349, Note_on_c, 0, 71, 78
2, 41375, Note_off_c, 0, 67, 64
2, 41376, Note_off_c, 0, 71, 64
2, 41376, Note_off_c, 0, 55, 64
2, 41376, Note_off_c, 0, 62, 64
2, 41483, Note_on_c, 0, 67, 75
2, 41484, Note_on_c, 0, 71, 80
2, 41492, Note_on_c, 0, 62, 73
2, 41492, Note_on_c, 0, 55, 69
2, 41534, Note_off_c, 0, 67, 64
2, 41539, Note_on_c, 0, 72, 71
2, 41568, Note_off_c, 0, 71, 64
2, 41572, Note_off_c, 0, 55, 64
2, 41611, Note_on_c, 0, 57, 57
2, 41614, Note_on_c, 0, 50, 73
2, 41615, Note_on_c, 0, 74, 75
2, 41619, Note_on_c, 0, 65, 65
2, 41628, Control_c, 0, 64, 127
2, 41628, Control_c, 0, 64, 127
2, 41634, Note_off_c, 0, 72, 64
2, 41659, Note_off_c, 0, 62, 64
2, 41660, Note_off_c, 0, 65, 64
2, 41680, Note_off_c, 0, 57, 64
2, 41681, Note_off_c, 0, 50, 64
2, 41731, Control_c, 0, 64, 0
2, 41731, Control_c, 0, 64, 0
2, 41742, Note_off_c, 0, 74, 64
2, 41748, Note_on_c, 0, 71, 84
2, 41755, Note_on_c, 0, 67, 73
2, 41758, Note_on_c, 0, 55, 73
2, 41762, Note_on_c, 0, 62, 73
2, 41798, Note_off_c, 0, 55, 64
2, 41801, Note_off_c, 0, 62, 64
2, 41801, Note_off_c, 0, 67, 64
2, 41814, Note_on_c, 0, 72, 71
2, 41824, Note_off_c, 0, 71, 64
2, 41867, Note_off_c, 0, 72, 64
2, 41892, Note_on_c, 0, 71, 80
2, 41892, Note_on_c, 0, 67, 75
2, 41894, Note_on_c, 0, 55, 73
2, 41899, Note_on_c, 0, 62, 73
2, 41936, Note_off_c, 0, 55, 64
2, 41942, Note_off_c, 0, 62, 64
2, 41945, Note_off_c, 0, 67, 64
2, 41951, Note_on_c, 0, 72, 67
2, 41965, Note_off_c, 0, 71, 64
2, 42017, Note_off_c, 0, 72, 64
2, 42020, Note_on_c, 0, 74, 75
2, 42023, Note_on_c, 0, 65, 75
2, 42027, Note_on_c, 0, 62, 73
2, 42027, Note_on_c, 0, 57, 73
2, 42031, Note_on_c, 0, 50, 69
2, 42043, Control_c, 0, 64, 127
2, 42043, Control_c, 0, 64, 127
2, 42065, Note_off_c, 0, 50, 64
2, 42065, Note_off_c, 0, 57, 64
2, 42067, Note_off_c, 0, 62, 64
2, 42067, Note_off_c, 0, 65, 64
2, 42080, Note_off_c, 0, 74, 64
2, 42124, Control_c, 0, 64, 0
2, 42124, Control_c, 0, 64, 0
2, 42164, Note_on_c, 0, 65, 69
2, 42167, Note_on_c, 0, 62, 73
2, 42168, Note_on_c, 0, 77, 84
2, 42168, Note_on_c, 0, 57, 73
2, 42168, Note_on_c, 0, 50, 69
2, 42182, Control_c, 0, 64, 127
2, 42182, Control_c, 0, 64, 127
2, 42203, Note_off_c, 0, 50, 64
2, 42207, Note_off_c, 0, 57, 64
2, 42210, Note_off_c, 0, 62, 64
2, 42232, Note_off_c, 0, 77, 64
2, 42236, Note_on_c, 0, 76, 68
2, 42256, Note_off_c, 0, 65, 64
2, 42263, Control_c, 0, 64, 0
2, 42263, Control_c, 0, 64, 0
2, 42296, Note_on_c, 0, 74, 80
2, 42296, Note_on_c, 0, 65, 75
2, 42296, Note_on_c, 0, 50, 78
2, 42298, Note_on_c, 0, 62, 76
2, 42298, Note_on_c, 0, 57, 76
2, 42308, Control_c, 0, 64, 127
2, 42308, Control_c, 0, 64, 127
2, 42330, Note_off_c, 0, 76, 64
2, 42360, Control_c, 0, 64, 0
2, 42360, Control_c, 0, 64, 0
2, 42378, Control_c, 0, 64, 127
2, 42378, Control_c, 0, 64, 127
2, 42389, Note_off_c, 0, 65, 64
2, 42404, Note_off_c, 0, 57, 64
2, 42405, Note_off_c, 0, 62, 64
2, 42415, Note_off_c, 0, 50, 64
2, 42420, Control_c, 0, 64, 0
2, 42420, Control_c, 0, 64, 0
2, 42424, Note_on_c, 0, 67, 83
2, 42428, Note_on_c, 0, 59, 76
2, 42428, Note_on_c, 0, 55, 76
2, 42429, Note_on_c, 0, 65, 83
2, 42438, Control_c, 0, 64, 127
2, 42438, Control_c, 0, 64, 127
2, 42445, Note_off_c, 0, 74, 64
2, 42467, Note_off_c, 0, 55, 64
2, 42475, Note_off_c, 0, 59, 64
2, 42488, Note_on_c, 0, 76, 67
2, 42492, Note_off_c, 0, 67, 64
2, 42497, Note_off_c, 0, 65, 64
2, 42535, Note_off_c, 0, 76, 64
2, 42546, Control_c, 0, 64, 0
2, 42546, Control_c, 0, 64, 0
2, 42552, Note_on_c, 0, 60, 73
2, 42552, Note_on_c, 0, 55, 73
2, 42558, Note_on_c, 0, 64, 73
2, 42563, Note_on_c, 0, 72, 71
2, 42563, Note_on_c, 0, 48, 73
2, 42586, Note_off_c, 0, 48, 64
2, 42586, Note_off_c, 0, 64, 64
2, 42586, Note_off_c, 0, 55, 64
2, 42588, Note_off_c, 0, 72, 64
2, 42590, Note_off_c, 0, 60, 64
2, 42696, Note_on_c, 0, 72, 84
2, 42696, Note_on_c, 0, 64, 73
2, 42701, Note_on_c, 0, 55, 73
2, 42708, Note_on_c, 0, 60, 73
2, 42722, Note_off_c, 0, 64, 64
2, 42726, Note_off_c, 0, 60, 64
2, 42730, Note_off_c, 0, 55, 64
2, 42730, Note_off_c, 0, 72, 64
2, 42845, Note_on_c, 0, 64, 76
2, 42845, Note_on_c, 0, 55, 69
2, 42850, Note_on_c, 0, 72, 86
2, 42850, Note_on_c, 0, 60, 75
2, 42850, Note_on_c, 0, 48, 73
2, 42866, Control_c, 0, 64, 127
2, 42866, Control_c, 0, 64, 127
2, 42896, Note_off_c, 0, 48, 64
2, 42897, Note_off_c, 0, 64, 64
2, 42898, Note_off_c, 0, 55, 64
2, 42904, Note_off_c, 0, 60, 64
2, 42976, Control_c, 0, 64, 0
2, 42976, Control_c, 0, 64, 0
2, 42982, Note_off_c, 0, 72, 64
2, 42986, Note_on_c, 0, 71, 84
2, 42989, Note_on_c, 0, 67, 78
2, 42989, Note_on_c, 0, 62, 75
2, 42989, Note_on_c, 0, 55, 73
2, 43017, Note_off_c, 0, 71, 64
2, 43020, Note_off_c, 0, 55, 64
2, 43023, Note_off_c, 0, 62, 64
2, 43023, Note_off_c, 0, 67, 64
2, 43130, Note_on_c, 0, 71, 84
2, 43130, Note_on_c, 0, 67, 75
2, 43137, Note_on_c, 0, 62, 75
2, 43137, Note_on_c, 0, 55, 73
2, 43179, Note_on_c, 0, 72, 64
2, 43185, Note_off_c, 0, 67, 64
2, 43215, Note_off_c, 0, 71, 64
2, 43239, Note_off_c, 0, 55, 64
2, 43254, Note_on_c, 0, 74, 78
2, 43260, Note_on_c, 0, 65, 64
2, 43262, Note_on_c, 0, 50, 71
2, 43266, Note_on_c, 0, 57, 67
2, 43274, Note_off_c, 0, 72, 64
2, 43293, Control_c, 0, 64, 127
2, 43293, Control_c, 0, 64, 127
2, 43308, Note_off_c, 0, 62, 64
2, 43320, Note_off_c, 0, 65, 64
2, 43345, Note_off_c, 0, 50, 64
2, 43350, Note_off_c, 0, 57, 64
2, 43360, Control_c, 0, 64, 0
2, 43360, Control_c, 0, 64, 0
2, 43398, Note_off_c, 0, 74, 64
2, 43398, Note_on_c, 0, 71, 80
2, 43398, Note_on_c, 0, 67, 76
2, 43404, Note_on_c, 0, 62, 73
2, 43404, Note_on_c, 0, 55, 75
2, 43444, Note_off_c, 0, 55, 64
2, 43449, Note_off_c, 0, 62, 64
2, 43454, Note_off_c, 0, 67, 64
2, 43458, Note_on_c, 0, 72, 69
2, 43474, Note_off_c, 0, 71, 64
2, 43516, Note_off_c, 0, 72, 64
2, 43530, Note_on_c, 0, 71, 76
2, 43535, Note_on_c, 0, 62, 75
2, 43535, Note_on_c, 0, 55, 73
2, 43541, Note_on_c, 0, 67, 76
2, 43587, Note_on_c, 0, 72, 63
2, 43595, Note_off_c, 0, 67, 64
2, 43602, Note_off_c, 0, 55, 64
2, 43625, Note_off_c, 0, 71, 64
2, 43631, Note_off_c, 0, 62, 64
2, 43660, Note_on_c, 0, 74, 73
2, 43664, Note_on_c, 0, 57, 67
2, 43667, Note_on_c, 0, 65, 75
2, 43667, Note_on_c, 0, 50, 69
2, 43677, Note_off_c, 0, 72, 64
2, 43677, Note_on_c, 0, 62, 58
2, 43684, Control_c, 0, 64, 127
2, 43684, Control_c, 0, 64, 127
2, 43707, Note_off_c, 0, 50, 64
2, 43712, Note_off_c, 0, 62, 64
2, 43713, Note_off_c, 0, 65, 64
2, 43716, Note_off_c, 0, 57, 64
2, 43724, Note_off_c, 0, 74, 64
2, 43774, Control_c, 0, 64, 0
2, 43774, Control_c, 0, 64, 0
2, 43796, Note_on_c, 0, 65, 73
2, 43798, Note_on_c, 0, 57, 68
2, 43803, Note_on_c, 0, 62, 69
2, 43807, Note_on_c, 0, 77, 82
2, 43807, Note_on_c, 0, 50, 64
2, 43820, Control_c, 0, 64, 127
2, 43820, Control_c, 0, 64, 127
2, 43841, Note_off_c, 0, 50, 64
2, 43852, Note_off_c, 0, 57, 64
2, 43859, Note_off_c, 0, 62, 64
2, 43864, Note_on_c, 0, 76, 60
2, 43873, Note_off_c, 0, 77, 64
2, 43886, Note_off_c, 0, 65, 64
2, 43902, Control_c, 0, 64, 0
2, 43902, Control_c, 0, 64, 0
2, 43920, Note_on_c, 0, 62, 53
2, 43924, Note_on_c, 0, 65, 84
2, 43925, Note_on_c, 0, 74, 82
2, 43928, Note_on_c, 0, 50, 72
2, 43931, Note_on_c, 0, 57, 64
2, 43956, Control_c, 0, 64, 127
2, 43956, Control_c, 0, 64, 127
2, 43963, Note_off_c, 0, 76, 64
2, 44012, Control_c, 0, 64, 0
2, 44012, Control_c, 0, 64, 0
2, 44028, Control_c, 0, 64, 127
2, 44028, Control_c, 0, 64, 127
2, 44030, Control_c, 0, 64, 127
2, 44030, Control_c, 0, 64, 127
2, 44042, Note_off_c, 0, 62, 64
2, 44046, Note_off_c, 0, 65, 64
2, 44047, Note_off_c, 0, 74, 64
2, 44050, Note_off_c, 0, 50, 64
2, 44053, Note_off_c, 0, 57, 64
2, 44068, Note_on_c, 0, 65, 84
2, 44070, Note_on_c, 0, 55, 73
2, 44070, Control_c, 0, 64, 0
2, 44070, Control_c, 0, 64, 0
2, 44072, Note_on_c, 0, 67, 84
2, 44076, Note_on_c, 0, 59, 73
2, 44089, Control_c, 0, 64, 127
2, 44089, Control_c, 0, 64, 127
2, 44112, Note_off_c, 0, 55, 64
2, 44114, Note_off_c, 0, 59, 64
2, 44121, Note_on_c, 0, 76, 61
2, 44140, Note_off_c, 0, 67, 64
2, 44140, Note_off_c, 0, 65, 64
2, 44180, Control_c, 0, 64, 0
2, 44180, Control_c, 0, 64, 0
2, 44184, Note_off_c, 0, 76, 64
2, 44196, Note_on_c, 0, 72, 73
2, 44196, Note_on_c, 0, 60, 65
2, 44196, Note_on_c, 0, 55, 61
2, 44200, Note_on_c, 0, 48, 69
2, 44201, Note_on_c, 0, 64, 64
2, 44229, Note_off_c, 0, 48, 64
2, 44229, Note_off_c, 0, 55, 64
2, 44231, Note_off_c, 0, 64, 64
2, 44232, Note_off_c, 0, 60, 64
2, 44236, Note_off_c, 0, 72, 64
2, 44349, Note_on_c, 0, 55, 73
2, 44351, Note_on_c, 0, 72, 76
2, 44352, Note_on_c, 0, 64, 73
2, 44358, Note_on_c, 0, 60, 73
2, 44358, Note_on_c, 0, 48, 68
2, 44380, Note_off_c, 0, 48, 64
2, 44385, Note_off_c, 0, 64, 64
2, 44387, Note_off_c, 0, 60, 64
2, 44387, Note_off_c, 0, 55, 64
2, 44390, Note_off_c, 0, 72, 64
2, 44532, Note_on_c, 0, 64, 68
2, 44537, Note_on_c, 0, 72, 68
2, 44540, Note_on_c, 0, 55, 54
2, 44540, Note_on_c, 0, 48, 61
2, 44544, Note_on_c, 0, 60, 54
2, 44553, Control_c, 0, 64, 127
2, 44553, Control_c, 0, 64, 127
2, 44654, Note_off_c, 0, 60, 64
2, 44703, Note_off_c, 0, 55, 64
2, 44714, Note_off_c, 0, 48, 64
2, 44718, Note_on_c, 0, 69, 58
2, 44722, Note_on_c, 0, 60, 49
2, 44727, Note_off_c, 0, 72, 64
2, 44727, Note_off_c, 0, 64, 64
2, 44727, Note_on_c, 0, 65, 47
2, 44728, Note_on_c, 0, 53, 57
2, 44732, Control_c, 0, 64, 0
2, 44732, Control_c, 0, 64, 0
2, 44857, Note_off_c, 0, 53, 64
2, 44870, Note_on_c, 0, 48, 41
2, 44871, Note_on_c, 0, 64, 57
2, 44876, Note_on_c, 0, 72, 65
2, 44876, Note_on_c, 0, 55, 43
2, 44881, Note_off_c, 0, 65, 64
2, 44881, Note_off_c, 0, 69, 64
2, 44887, Note_off_c, 0, 60, 64
2, 44932, Control_c, 0, 64, 127
2, 44932, Control_c, 0, 64, 127
2, 45013, Note_off_c, 0, 72, 64
2, 45013, Note_on_c, 0, 60, 39
2, 45017, Note_on_c, 0, 69, 50
2, 45022, Note_on_c, 0, 53, 58
2, 45028, Note_off_c, 0, 48, 64
2, 45030, Note_on_c, 0, 65, 43
2, 45036, Note_off_c, 0, 55, 64
2, 45059, Note_off_c, 0, 64, 64
2, 45178, Note_off_c, 0, 53, 64
2, 45178, Note_on_c, 0, 48, 39
2, 45180, Note_on_c, 0, 72, 58
2, 45180, Note_on_c, 0, 64, 50
2, 45180, Note_on_c, 0, 55, 43
2, 45188, Note_off_c, 0, 60, 64
2, 45188, Note_off_c, 0, 65, 64
2, 45188, Note_off_c, 0, 69, 64
2, 45316, Note_off_c, 0, 72, 64
2, 45323, Note_on_c, 0, 69, 49
2, 45327, Note_on_c, 0, 60, 31
2, 45332, Note_on_c, 0, 53, 41
2, 45336, Note_off_c, 0, 48, 64
2, 45336, Note_on_c, 0, 65, 38
2, 45346, Note_off_c, 0, 55, 64
2, 45361, Note_off_c, 0, 64, 64
2, 45432, Control_c, 0, 64, 0
2, 45432, Control_c, 0, 64, 0
2, 45479, Note_on_c, 0, 64, 42
2, 45487, Note_off_c, 0, 65, 64
2, 45487, Note_on_c, 0, 72, 43
2, 45487, Note_on_c, 0, 55, 42
2, 45487, Note_on_c, 0, 48, 30
2, 45496, Note_off_c, 0, 69, 64
2, 45499, Note_off_c, 0, 53, 64
2, 45506, Note_off_c, 0, 60, 64
2, 45533, Control_c, 0, 64, 127
2, 45533, Control_c, 0, 64, 127
2, 45618, Note_off_c, 0, 72, 64
2, 45624, Note_on_c, 0, 69, 49
2, 45634, Note_on_c, 0, 60, 34
2, 45635, Note_on_c, 0, 65, 43
2, 45639, Note_on_c, 0, 53, 38
2, 45645, Note_off_c, 0, 48, 64
2, 45657, Note_off_c, 0, 64, 64
2, 45664, Note_off_c, 0, 55, 64
2, 45787, Note_on_c, 0, 64, 36
2, 45787, Note_on_c, 0, 48, 31
2, 45792, Note_on_c, 0, 72, 46
2, 45798, Note_on_c, 0, 55, 34
2, 45801, Note_off_c, 0, 65, 64
2, 45801, Note_off_c, 0, 60, 64
2, 45804, Note_off_c, 0, 69, 64
2, 45810, Note_off_c, 0, 53, 64
2, 45931, Note_off_c, 0, 72, 64
2, 45938, Note_on_c, 0, 69, 38
2, 45939, Note_on_c, 0, 60, 23
2, 45946, Note_off_c, 0, 48, 64
2, 45949, Note_off_c, 0, 55, 64
2, 45951, Note_on_c, 0, 65, 27
2, 45951, Note_on_c, 0, 53, 23
2, 45968, Note_off_c, 0, 64, 64
2, 46128, Note_on_c, 0, 55, 24
2, 46132, Note_on_c, 0, 48, 27
2, 46134, Note_on_c, 0, 72, 34
2, 46137, Note_on_c, 0, 64, 24
2, 46146, Note_off_c, 0, 60, 64
2, 46155, Note_off_c, 0, 53, 64
2, 46161, Control_c, 0, 64, 0
2, 46161, Control_c, 0, 64, 0
2, 46165, Note_off_c, 0, 69, 64
2, 46165, Note_off_c, 0, 65, 64
2, 46286, Control_c, 0, 64, 127
2, 46286, Control_c, 0, 64, 127
2, 46363, Note_off_c, 0, 72, 64
2, 46375, Note_off_c, 0, 55, 64
2, 46383, Note_off_c, 0, 64, 64
2, 46393, Note_off_c, 0, 48, 64
2, 46451, Control_c, 0, 64, 0
2, 46451, Control_c, 0, 64, 0
2, 46641, Note_on_c, 0, 64, 63
2, 46650, Note_on_c, 0, 55, 45
2, 46650, Note_on_c, 0, 48, 45
2, 46654, Note_on_c, 0, 60, 45
2, 46787, Note_on_c, 0, 67, 69
2, 46792, Note_off_c, 0, 48, 64
2, 46793, Note_on_c, 0, 59, 46
2, 46799, Note_on_c, 0, 43, 46
2, 46808, Note_off_c, 0, 55, 64
2, 46812, Note_off_c, 0, 60, 64
2, 46814, Note_on_c, 0, 50, 42
2, 46828, Note_off_c, 0, 64, 64
2, 46934, Note_off_c, 0, 67, 64
2, 46941, Note_on_c, 0, 64, 61
2, 46944, Note_on_c, 0, 55, 39
2, 46949, Note_on_c, 0, 60, 54
2, 46952, Note_off_c, 0, 50, 64
2, 46956, Note_off_c, 0, 43, 64
2, 46956, Note_on_c, 0, 48, 42
2, 46975, Note_off_c, 0, 59, 64
2, 47097, Note_on_c, 0, 67, 58
2, 47101, Note_on_c, 0, 59, 50
2, 47101, Note_on_c, 0, 50, 39
2, 47106, Note_off_c, 0, 60, 64
2, 47113, Note_on_c, 0, 43, 49
2, 47114, Note_off_c, 0, 48, 64
2, 47114, Note_off_c, 0, 55, 64
2, 47122, Note_off_c, 0, 64, 64
2, 47236, Note_off_c, 0, 67, 64
2, 47250, Note_on_c, 0, 64, 46
2, 47250, Note_on_c, 0, 60, 47
2, 47256, Note_on_c, 0, 55, 32
2, 47260, Note_off_c, 0, 43, 64
2, 47261, Note_on_c, 0, 48, 38
2, 47275, Note_off_c, 0, 59, 64
2, 47286, Note_off_c, 0, 50, 64
2, 47384, Control_c, 0, 64, 127
2, 47384, Control_c, 0, 64, 127
2, 47401, Note_on_c, 0, 67, 42
2, 47407, Note_off_c, 0, 55, 64
2, 47407, Note_on_c, 0, 50, 36
2, 47414, Note_on_c, 0, 59, 35
2, 47414, Note_on_c, 0, 43, 30
2, 47420, Note_off_c, 0, 60, 64
2, 47421, Note_off_c, 0, 48, 64
2, 47434, Note_off_c, 0, 64, 64
2, 47549, Note_off_c, 0, 67, 64
2, 47563, Note_on_c, 0, 64, 41
2, 47564, Note_on_c, 0, 60, 46
2, 47567, Note_on_c, 0, 55, 31
2, 47573, Note_on_c, 0, 48, 31
2, 47585, Note_off_c, 0, 43, 64
2, 47598, Note_off_c, 0, 59, 64
2, 47601, Control_c, 0, 64, 0
2, 47601, Control_c, 0, 64, 0
2, 47607, Note_off_c, 0, 50, 64
2, 47728, Note_on_c, 0, 59, 31
2, 47731, Note_off_c, 0, 60, 64
2, 47731, Note_on_c, 0, 67, 31
2, 47737, Note_on_c, 0, 43, 31
2, 47739, Note_off_c, 0, 55, 64
2, 47745, Note_off_c, 0, 48, 64
2, 47750, Note_off_c, 0, 64, 64
2, 47760, Note_on_c, 0, 50, 8
2, 47859, Note_off_c, 0, 67, 64
2, 47881, Note_on_c, 0, 64, 30
2, 47888, Note_on_c, 0, 60, 30
2, 47895, Note_off_c, 0, 43, 64
2, 47895, Note_on_c, 0, 48, 38
2, 47898, Note_on_c, 0, 55, 27
2, 47904, Note_off_c, 0, 59, 64
2, 47931, Note_off_c, 0, 50, 64
2, 48036, Note_off_c, 0, 48, 64
2, 48037, Note_on_c, 0, 50, 27
2, 48045, Note_on_c, 0, 67, 36
2, 48047, Note_on_c, 0, 59, 27
2, 48053, Note_off_c, 0, 55, 64
2, 48055, Note_on_c, 0, 43, 27
2, 48059, Note_off_c, 0, 60, 64
2, 48068, Note_off_c, 0, 64, 64
2, 48161, Control_c, 0, 64, 127
2, 48161, Control_c, 0, 64, 127
2, 48265, Note_off_c, 0, 59, 64
2, 48278, Note_off_c, 0, 50, 64
2, 48279, Note_off_c, 0, 43, 64
2, 48288, Note_off_c, 0, 67, 64
2, 48340, Control_c, 0, 64, 0
2, 48340, Control_c, 0, 64, 0
2, 48511, Note_on_c, 0, 69, 46
2, 48517, Note_on_c, 0, 65, 39
2, 48517, Note_on_c, 0, 60, 36
2, 48521, Note_on_c, 0, 53, 39
2, 48589, Control_c, 0, 64, 127
2, 48589, Control_c, 0, 64, 127
2, 48674, Note_on_c, 0, 72, 36
2, 48683, Note_on_c, 0, 64, 30
2, 48684, Note_on_c, 0, 48, 46
2, 48690, Note_on_c, 0, 55, 30
2, 48725, Note_off_c, 0, 60, 64
2, 48727, Note_off_c, 0, 65, 64
2, 48733, Note_off_c, 0, 69, 64
2, 48749, Note_off_c, 0, 53, 64
2, 48778, Control_c, 0, 64, 0
2, 48778, Control_c, 0, 64, 0
2, 48818, Note_off_c, 0, 72, 64
2, 48822, Note_off_c, 0, 48, 64
2, 48842, Note_off_c, 0, 55, 64
2, 48863, Note_off_c, 0, 64, 64
2, 49005, Note_on_c, 0, 53, 28
2, 49008, Note_on_c, 0, 65, 39
2, 49009, Note_on_c, 0, 69, 36
2, 49009, Note_on_c, 0, 60, 28
2, 49024, Control_c, 0, 64, 127
2, 49024, Control_c, 0, 64, 127
2, 49168, Note_on_c, 0, 72, 41
2, 49180, Note_on_c, 0, 55, 28
2, 49181, Note_on_c, 0, 64, 30
2, 49189, Note_on_c, 0, 48, 27
2, 49203, Note_off_c, 0, 69, 64
2, 49209, Note_off_c, 0, 65, 64
2, 49217, Note_off_c, 0, 53, 64
2, 49230, Note_off_c, 0, 60, 64
2, 49243, Control_c, 0, 64, 0
2, 49243, Control_c, 0, 64, 0
2, 49287, Note_off_c, 0, 72, 64
2, 49318, Note_off_c, 0, 64, 64
2, 49325, Note_off_c, 0, 48, 64
2, 49326, Note_off_c, 0, 55, 64
2, 49467, Note_on_c, 0, 69, 45
2, 49472, Note_on_c, 0, 65, 39
2, 49472, Note_on_c, 0, 60, 31
2, 49472, Note_on_c, 0, 53, 36
2, 49485, Control_c, 0, 64, 127
2, 49485, Control_c, 0, 64, 127
2, 49622, Note_off_c, 0, 53, 64
2, 49627, Note_on_c, 0, 72, 30
2, 49630, Note_on_c, 0, 64, 23
2, 49630, Note_on_c, 0, 48, 27
2, 49636, Note_off_c, 0, 69, 64
2, 49639, Note_on_c, 0, 55, 23
2, 49640, Note_off_c, 0, 65, 64
2, 49662, Note_off_c, 0, 60, 64
2, 49694, Control_c, 0, 64, 0
2, 49694, Control_c, 0, 64, 0
2, 49763, Note_off_c, 0, 72, 64
2, 49773, Note_off_c, 0, 48, 64
2, 49786, Note_on_c, 0, 69, 39
2, 49788, Note_on_c, 0, 53, 36
2, 49789, Note_on_c, 0, 65, 38
2, 49794, Note_on_c, 0, 60, 30
2, 49801, Note_off_c, 0, 64, 64
2, 49819, Note_off_c, 0, 55, 64
2, 49948, Note_on_c, 0, 64, 36
2, 49948, Note_on_c, 0, 48, 30
2, 49953, Note_on_c, 0, 72, 39
2, 49957, Note_off_c, 0, 65, 64
2, 49962, Note_off_c, 0, 69, 64
2, 49962, Note_on_c, 0, 55, 30
2, 49963, Note_off_c, 0, 53, 64
2, 49974, Note_off_c, 0, 60, 64
2, 49990, Control_c, 0, 64, 127
2, 49990, Control_c, 0, 64, 127
2, 50118, Note_off_c, 0, 72, 64
2, 50131, Note_on_c, 0, 60, 21
2, 50136, Note_on_c, 0, 69, 26
2, 50136, Note_on_c, 0, 65, 30
2, 50141, Note_on_c, 0, 53, 23
2, 50170, Note_off_c, 0, 55, 64
2, 50197, Note_off_c, 0, 48, 64
2, 50203, Control_c, 0, 64, 0
2, 50203, Control_c, 0, 64, 0
2, 50215, Note_off_c, 0, 64, 64
2, 50261, Note_off_c, 0, 60, 64
2, 50264, Note_off_c, 0, 69, 64
2, 50267, Note_off_c, 0, 53, 64
2, 50268, Note_off_c, 0, 65, 64
2, 50474, Note_on_c, 0, 64, 36
2, 50476, Note_on_c, 0, 48, 49
2, 50480, Note_on_c, 0, 60, 35
2, 50480, Note_on_c, 0, 55, 27
2, 50494, Control_c, 0, 64, 127
2, 50494, Control_c, 0, 64, 127
2, 50645, Note_on_c, 0, 50, 24
2, 50648, Note_off_c, 0, 48, 64
2, 50650, Note_on_c, 0, 59, 27
2, 50661, Note_on_c, 0, 67, 27
2, 50668, Note_off_c, 0, 64, 64
2, 50672, Note_off_c, 0, 60, 64
2, 50687, Note_off_c, 0, 55, 64
2, 50693, Note_on_c, 0, 43, 21
2, 50726, Control_c, 0, 64, 0
2, 50726, Control_c, 0, 64, 0
2, 50791, Note_off_c, 0, 43, 64
2, 50792, Note_off_c, 0, 50, 64
2, 50794, Note_off_c, 0, 67, 64
2, 50804, Note_off_c, 0, 59, 64
2, 50972, Note_on_c, 0, 64, 30
2, 50975, Note_on_c, 0, 55, 32
2, 50975, Note_on_c, 0, 48, 39
2, 50984, Note_on_c, 0, 60, 27
2, 51010, Control_c, 0, 64, 127
2, 51010, Control_c, 0, 64, 127
2, 51146, Note_on_c, 0, 67, 28
2, 51152, Note_on_c, 0, 59, 27
2, 51160, Note_on_c, 0, 43, 30
2, 51169, Note_off_c, 0, 55, 64
2, 51173, Note_off_c, 0, 48, 64
2, 51174, Note_off_c, 0, 60, 64
2, 51174, Note_on_c, 0, 50, 28
2, 51194, Note_off_c, 0, 64, 64
2, 51217, Control_c, 0, 64, 0
2, 51217, Control_c, 0, 64, 0
2, 51299, Note_off_c, 0, 67, 64
2, 51315, Note_off_c, 0, 43, 64
2, 51318, Note_off_c, 0, 59, 64
2, 51321, Note_off_c, 0, 50, 64
2, 51458, Note_on_c, 0, 55, 28
2, 51458, Note_on_c, 0, 48, 38
2, 51469, Note_on_c, 0, 64, 39
2, 51469, Note_on_c, 0, 60, 31
2, 51632, Note_off_c, 0, 48, 64
2, 51633, Note_on_c, 0, 43, 31
2, 51639, Note_on_c, 0, 67, 38
2, 51640, Note_on_c, 0, 59, 30
2, 51648, Note_off_c, 0, 55, 64
2, 51652, Note_on_c, 0, 50, 30
2, 51653, Note_off_c, 0, 60, 64
2, 51664, Note_off_c, 0, 64, 64
2, 51795, Note_off_c, 0, 67, 64
2, 51815, Note_on_c, 0, 64, 39
2, 51828, Note_off_c, 0, 50, 64
2, 51828, Note_on_c, 0, 60, 28
2, 51830, Note_on_c, 0, 55, 24
2, 51838, Note_off_c, 0, 59, 64
2, 51838, Note_off_c, 0, 43, 64
2, 51839, Note_on_c, 0, 48, 28
2, 52009, Note_on_c, 0, 43, 31
2, 52015, Note_off_c, 0, 48, 64
2, 52018, Note_on_c, 0, 67, 30
2, 52025, Note_on_c, 0, 59, 27
2, 52028, Note_off_c, 0, 60, 64
2, 52028, Note_off_c, 0, 55, 64
2, 52034, Note_on_c, 0, 50, 27
2, 52055, Note_off_c, 0, 64, 64
2, 52275, Note_on_c, 0, 60, 30
2, 52281, Note_off_c, 0, 67, 64
2, 52283, Note_on_c, 0, 55, 2
2, 52283, Note_on_c, 0, 48, 24
2, 52283, Note_on_c, 0, 64, 30
2, 52310, Note_off_c, 0, 59, 64
2, 52311, Note_off_c, 0, 43, 64
2, 52321, Note_off_c, 0, 50, 64
2, 54689, Note_off_c, 0, 60, 64
2, 54715, Note_off_c, 0, 64, 64
2, 54729, Note_off_c, 0, 48, 64
2, 54732, Note_off_c, 0, 55, 64
