0, 0, Header, 1, 7, 240
1, 0, Start_track
1, 0, Time_signature, 4, 2, 24, 8
1, 0, Tempo, 500000
1, 0, Marker_t, "Chopin: Mazurka, Op. 30 No. 4- Allegretto"
1, 0, End_track
2, 0, Start_track
2, 0, Title_t, "Chopin: Op. 30 No. 4"
2, 0, Program_c, 0, 0
2, 0, Control_c, 0, 7, 127
2, 516, Note_on_c, 0, 67, 46
2, 516, Note_on_c, 0, 61, 52
2, 516, Note_on_c, 0, 52, 30
2, 969, Note_on_c, 0, 51, 23
2, 977, Note_off_c, 0, 52, 64
2, 1081, Note_on_c, 0, 52, 35
2, 1094, Control_c, 0, 64, 0
2, 1098, Note_off_c, 0, 51, 64
2, 1104, Control_c, 0, 64, 0
2, 1106, Control_c, 0, 64, 0
2, 1116, Control_c, 0, 64, 0
2, 1167, Control_c, 0, 64, 127
2, 1179, Control_c, 0, 64, 127
2, 1251, Note_on_c, 0, 51, 32
2, 1266, Note_off_c, 0, 52, 64
2, 1320, Note_on_c, 0, 52, 32
2, 1340, Note_off_c, 0, 51, 64
2, 1358, Control_c, 0, 64, 0
2, 1368, Control_c, 0, 64, 0
2, 1370, Control_c, 0, 64, 0
2, 1380, Control_c, 0, 64, 0
2, 1388, Control_c, 0, 64, 0
2, 1400, Control_c, 0, 64, 0
2, 1431, Control_c, 0, 64, 127
2, 1443, Control_c, 0, 64, 127
2, 1488, Note_on_c, 0, 51, 28
2, 1505, Note_off_c, 0, 52, 64
2, 1560, Note_on_c, 0, 52, 28
2, 1577, Note_off_c, 0, 51, 64
2, 1582, Control_c, 0, 64, 127
2, 1594, Control_c, 0, 64, 127
2, 1675, Control_c, 0, 0, 0
2, 1675, Control_c, 0, 67, 128
2, 1687, Control_c, 0, 0, 0
2, 1687, Control_c, 0, 67, 128
2, 1727, Control_c, 0, 64, 129
2, 1739, Control_c, 0, 64, 129
2, 1824, Note_on_c, 0, 51, 23
2, 1856, Note_off_c, 0, 52, 64
2, 2086, Note_off_c, 0, 51, 64
2, 2093, Note_on_c, 0, 63, 30
2, 2093, Note_on_c, 0, 45, 39
2, 2100, Note_on_c, 0, 66, 35
2, 2121, Note_off_c, 0, 67, 64
2, 2184, Control_c, 0, 64, 0
2, 2196, Control_c, 0, 64, 0
2, 2471, Note_on_c, 0, 60, 32
2, 2476, Note_on_c, 0, 44, 36
2, 2484, Note_off_c, 0, 61, 64
2, 2540, Note_off_c, 0, 45, 64
2, 2600, Note_on_c, 0, 61, 21
2, 2610, Note_on_c, 0, 45, 28
2, 2621, Note_off_c, 0, 60, 64
2, 2628, Note_off_c, 0, 44, 64
2, 2788, Note_on_c, 0, 60, 19
2, 2788, Note_on_c, 0, 44, 34
2, 2809, Note_off_c, 0, 61, 64
2, 2819, Note_off_c, 0, 45, 64
2, 2862, Note_on_c, 0, 61, 26
2, 2868, Note_on_c, 0, 45, 26
2, 2880, Note_off_c, 0, 44, 64
2, 2880, Note_off_c, 0, 60, 64
2, 2954, Control_c, 0, 64, 127
2, 2966, Control_c, 0, 64, 127
2, 3059, Note_on_c, 0, 44, 27
2, 3066, Note_on_c, 0, 60, 21
2, 3069, Note_off_c, 0, 61, 64
2, 3075, Note_off_c, 0, 45, 64
2, 3118, Note_on_c, 0, 61, 27
2, 3121, Note_on_c, 0, 45, 26
2, 3142, Note_off_c, 0, 44, 64
2, 3144, Note_off_c, 0, 60, 64
2, 3168, Control_c, 0, 64, 0
2, 3180, Control_c, 0, 64, 0
2, 3438, Note_on_c, 0, 44, 21
2, 3446, Note_on_c, 0, 60, 16
2, 3455, Control_c, 0, 64, 127
2, 3467, Control_c, 0, 64, 127
2, 3484, Note_off_c, 0, 61, 64
2, 3487, Note_off_c, 0, 45, 64
2, 3532, Note_off_c, 0, 63, 64
2, 3539, Note_off_c, 0, 66, 64
2, 3636, Note_off_c, 0, 44, 64
2, 3644, Note_off_c, 0, 60, 64
2, 3704, Note_on_c, 0, 37, 26
2, 3754, Note_on_c, 0, 44, 32
2, 3785, Note_on_c, 0, 52, 42
2, 3790, Control_c, 0, 64, 0
2, 3794, Note_on_c, 0, 61, 36
2, 3799, Note_on_c, 0, 64, 39
2, 3802, Control_c, 0, 64, 0
2, 3804, Control_c, 0, 64, 127
2, 3816, Control_c, 0, 64, 127
2, 3897, Note_off_c, 0, 37, 64
2, 3907, Note_off_c, 0, 52, 64
2, 3916, Note_off_c, 0, 44, 64
2, 3991, Note_off_c, 0, 64, 64
2, 3991, Note_on_c, 0, 66, 30
2, 3992, Note_off_c, 0, 61, 64
2, 4012, Note_on_c, 0, 69, 24
2, 4037, Note_off_c, 0, 69, 64
2, 4046, Note_off_c, 0, 66, 64
2, 4047, Note_on_c, 0, 71, 30
2, 4079, Note_on_c, 0, 69, 41
2, 4082, Note_on_c, 0, 37, 30
2, 4098, Note_off_c, 0, 71, 64
2, 4109, Note_on_c, 0, 68, 52
2, 4109, Note_on_c, 0, 44, 43
2, 4116, Note_on_c, 0, 64, 41
2, 4124, Note_off_c, 0, 69, 64
2, 4127, Control_c, 0, 64, 0
2, 4139, Control_c, 0, 64, 0
2, 4145, Note_on_c, 0, 52, 43
2, 4153, Control_c, 0, 64, 127
2, 4165, Control_c, 0, 64, 127
2, 4232, Note_off_c, 0, 37, 64
2, 4233, Note_off_c, 0, 44, 64
2, 4314, Note_off_c, 0, 68, 64
2, 4321, Note_off_c, 0, 64, 64
2, 4324, Note_off_c, 0, 52, 64
2, 4338, Note_on_c, 0, 37, 26
2, 4374, Note_on_c, 0, 44, 42
2, 4393, Note_on_c, 0, 52, 49
2, 4395, Control_c, 0, 64, 0
2, 4397, Note_on_c, 0, 76, 49
2, 4399, Note_on_c, 0, 73, 49
2, 4407, Control_c, 0, 64, 0
2, 4409, Control_c, 0, 64, 127
2, 4421, Control_c, 0, 64, 127
2, 4502, Note_off_c, 0, 37, 64
2, 4507, Note_off_c, 0, 44, 64
2, 4557, Note_off_c, 0, 52, 64
2, 4559, Note_off_c, 0, 76, 64
2, 4569, Note_off_c, 0, 73, 64
2, 4622, Note_on_c, 0, 75, 41
2, 4626, Note_on_c, 0, 37, 43
2, 4646, Note_on_c, 0, 76, 45
2, 4649, Note_off_c, 0, 75, 64
2, 4654, Note_on_c, 0, 44, 42
2, 4669, Note_on_c, 0, 54, 53
2, 4677, Note_on_c, 0, 72, 32
2, 4686, Note_on_c, 0, 75, 53
2, 4698, Note_off_c, 0, 76, 64
2, 4737, Note_off_c, 0, 37, 64
2, 4776, Note_off_c, 0, 44, 64
2, 4783, Note_off_c, 0, 75, 64
2, 4806, Note_off_c, 0, 54, 64
2, 4810, Note_off_c, 0, 72, 64
2, 4845, Note_on_c, 0, 70, 39
2, 4846, Note_on_c, 0, 73, 39
2, 4851, Note_on_c, 0, 37, 42
2, 4889, Note_on_c, 0, 44, 42
2, 4892, Note_on_c, 0, 75, 46
2, 4895, Note_on_c, 0, 72, 46
2, 4895, Note_on_c, 0, 54, 49
2, 4905, Note_off_c, 0, 70, 64
2, 4906, Note_off_c, 0, 73, 64
2, 4911, Control_c, 0, 64, 0
2, 4923, Control_c, 0, 64, 0
2, 4960, Control_c, 0, 64, 127
2, 4972, Control_c, 0, 64, 127
2, 5013, Note_off_c, 0, 37, 64
2, 5016, Note_off_c, 0, 44, 64
2, 5031, Note_off_c, 0, 54, 64
2, 5125, Note_on_c, 0, 37, 23
2, 5134, Note_off_c, 0, 75, 64
2, 5137, Note_off_c, 0, 72, 64
2, 5148, Note_on_c, 0, 76, 52
2, 5153, Note_on_c, 0, 73, 57
2, 5153, Note_on_c, 0, 52, 42
2, 5156, Control_c, 0, 64, 0
2, 5156, Note_on_c, 0, 44, 34
2, 5168, Control_c, 0, 64, 0
2, 5182, Control_c, 0, 64, 127
2, 5194, Control_c, 0, 64, 127
2, 5258, Note_off_c, 0, 44, 64
2, 5301, Note_off_c, 0, 37, 64
2, 5342, Note_off_c, 0, 52, 64
2, 5355, Note_on_c, 0, 37, 46
2, 5399, Note_off_c, 0, 76, 64
2, 5399, Note_on_c, 0, 44, 49
2, 5404, Note_off_c, 0, 73, 64
2, 5421, Note_on_c, 0, 64, 47
2, 5425, Note_on_c, 0, 68, 53
2, 5425, Note_on_c, 0, 52, 56
2, 5501, Note_off_c, 0, 44, 64
2, 5503, Note_off_c, 0, 37, 64
2, 5525, Note_off_c, 0, 64, 64
2, 5530, Note_off_c, 0, 68, 64
2, 5585, Note_on_c, 0, 69, 49
2, 5585, Note_on_c, 0, 66, 53
2, 5604, Note_off_c, 0, 52, 64
2, 5626, Note_on_c, 0, 71, 36
2, 5629, Note_off_c, 0, 66, 64
2, 5630, Note_off_c, 0, 69, 64
2, 5657, Note_on_c, 0, 69, 52
2, 5672, Note_on_c, 0, 37, 45
2, 5682, Note_off_c, 0, 71, 64
2, 5690, Note_on_c, 0, 68, 61
2, 5690, Note_on_c, 0, 64, 42
2, 5695, Note_on_c, 0, 44, 42
2, 5701, Note_on_c, 0, 52, 45
2, 5701, Control_c, 0, 64, 0
2, 5703, Note_off_c, 0, 69, 64
2, 5713, Control_c, 0, 64, 0
2, 5730, Control_c, 0, 64, 127
2, 5742, Control_c, 0, 64, 127
2, 5799, Note_off_c, 0, 37, 64
2, 5826, Note_off_c, 0, 44, 64
2, 5829, Note_off_c, 0, 64, 64
2, 5829, Note_off_c, 0, 68, 64
2, 5873, Note_off_c, 0, 52, 64
2, 5882, Note_on_c, 0, 37, 43
2, 5893, Note_on_c, 0, 68, 24
2, 5901, Note_on_c, 0, 64, 35
2, 5928, Note_on_c, 0, 73, 56
2, 5928, Note_on_c, 0, 44, 24
2, 5933, Note_on_c, 0, 76, 52
2, 5938, Note_on_c, 0, 52, 54
2, 5946, Note_off_c, 0, 68, 64
2, 5954, Note_off_c, 0, 64, 64
2, 6052, Note_off_c, 0, 44, 64
2, 6052, Note_off_c, 0, 37, 64
2, 6100, Note_off_c, 0, 52, 64
2, 6105, Note_off_c, 0, 73, 64
2, 6113, Note_off_c, 0, 76, 64
2, 6114, Note_on_c, 0, 75, 50
2, 6130, Note_on_c, 0, 37, 46
2, 6144, Note_on_c, 0, 76, 50
2, 6148, Note_off_c, 0, 75, 64
2, 6164, Note_on_c, 0, 44, 43
2, 6181, Note_on_c, 0, 75, 58
2, 6181, Note_on_c, 0, 54, 56
2, 6189, Note_on_c, 0, 72, 31
2, 6193, Note_off_c, 0, 76, 64
2, 6257, Note_off_c, 0, 37, 64
2, 6283, Note_off_c, 0, 44, 64
2, 6298, Note_off_c, 0, 75, 64
2, 6306, Note_off_c, 0, 72, 64
2, 6331, Note_off_c, 0, 54, 64
2, 6349, Note_on_c, 0, 70, 45
2, 6356, Note_on_c, 0, 73, 36
2, 6364, Note_on_c, 0, 37, 50
2, 6393, Note_off_c, 0, 70, 64
2, 6397, Note_on_c, 0, 72, 63
2, 6399, Note_on_c, 0, 44, 49
2, 6402, Note_off_c, 0, 73, 64
2, 6402, Note_on_c, 0, 75, 57
2, 6418, Note_on_c, 0, 54, 60
2, 6421, Control_c, 0, 64, 0
2, 6433, Control_c, 0, 64, 0
2, 6469, Control_c, 0, 64, 127
2, 6481, Control_c, 0, 64, 127
2, 6492, Note_off_c, 0, 37, 64
2, 6523, Note_off_c, 0, 44, 64
2, 6549, Note_off_c, 0, 54, 64
2, 6588, Note_on_c, 0, 37, 50
2, 6632, Note_on_c, 0, 44, 49
2, 6636, Note_off_c, 0, 72, 64
2, 6641, Note_off_c, 0, 75, 64
2, 6656, Control_c, 0, 64, 0
2, 6657, Note_on_c, 0, 52, 58
2, 6660, Note_on_c, 0, 76, 54
2, 6660, Note_on_c, 0, 73, 64
2, 6668, Control_c, 0, 64, 0
2, 6670, Control_c, 0, 64, 127
2, 6682, Control_c, 0, 64, 127
2, 6734, Note_off_c, 0, 44, 64
2, 6738, Note_off_c, 0, 37, 64
2, 6836, Note_off_c, 0, 52, 64
2, 6909, Note_on_c, 0, 75, 68
2, 6911, Note_on_c, 0, 32, 75
2, 6916, Note_on_c, 0, 78, 69
2, 6917, Control_c, 0, 64, 0
2, 6929, Control_c, 0, 64, 0
2, 6932, Note_off_c, 0, 73, 64
2, 6932, Note_off_c, 0, 76, 64
2, 6936, Control_c, 0, 64, 127
2, 6948, Control_c, 0, 64, 127
2, 7067, Note_off_c, 0, 75, 64
2, 7074, Note_off_c, 0, 78, 64
2, 7085, Note_on_c, 0, 44, 57
2, 7093, Note_on_c, 0, 51, 31
2, 7096, Note_on_c, 0, 80, 52
2, 7098, Note_on_c, 0, 76, 50
2, 7125, Note_on_c, 0, 54, 57
2, 7149, Note_on_c, 0, 81, 58
2, 7149, Note_on_c, 0, 60, 61
2, 7151, Note_on_c, 0, 78, 39
2, 7152, Note_off_c, 0, 76, 64
2, 7154, Note_off_c, 0, 80, 64
2, 7180, Control_c, 0, 64, 0
2, 7192, Control_c, 0, 64, 0
2, 7194, Control_c, 0, 64, 127
2, 7199, Note_off_c, 0, 32, 64
2, 7206, Control_c, 0, 64, 127
2, 7247, Note_off_c, 0, 54, 64
2, 7281, Note_off_c, 0, 44, 64
2, 7301, Note_on_c, 0, 44, 60
2, 7324, Note_off_c, 0, 78, 64
2, 7341, Note_on_c, 0, 83, 63
2, 7341, Note_on_c, 0, 54, 42
2, 7345, Note_off_c, 0, 81, 64
2, 7352, Note_off_c, 0, 60, 64
2, 7365, Note_on_c, 0, 78, 64
2, 7371, Note_on_c, 0, 81, 64
2, 7373, Note_on_c, 0, 60, 63
2, 7395, Note_on_c, 0, 81, 80
2, 7397, Note_off_c, 0, 83, 64
2, 7401, Note_on_c, 0, 78, 50
2, 7404, Control_c, 0, 64, 0
2, 7416, Control_c, 0, 64, 0
2, 7461, Note_off_c, 0, 78, 64
2, 7461, Note_off_c, 0, 81, 64
2, 7484, Note_off_c, 0, 51, 64
2, 7491, Note_off_c, 0, 54, 64
2, 7495, Note_on_c, 0, 80, 73
2, 7501, Note_on_c, 0, 76, 61
2, 7508, Note_off_c, 0, 78, 64
2, 7511, Note_off_c, 0, 44, 64
2, 7514, Note_off_c, 0, 81, 64
2, 7552, Note_off_c, 0, 60, 64
2, 7567, Note_on_c, 0, 44, 49
2, 7588, Note_off_c, 0, 80, 64
2, 7589, Note_on_c, 0, 51, 52
2, 7591, Note_on_c, 0, 78, 73
2, 7594, Note_off_c, 0, 76, 64
2, 7613, Note_on_c, 0, 80, 76
2, 7613, Note_on_c, 0, 54, 41
2, 7619, Note_off_c, 0, 78, 64
2, 7637, Note_on_c, 0, 75, 61
2, 7645, Note_on_c, 0, 78, 61
2, 7645, Note_on_c, 0, 60, 61
2, 7660, Note_off_c, 0, 80, 64
2, 7725, Note_off_c, 0, 44, 64
2, 7744, Note_off_c, 0, 54, 64
2, 7768, Note_off_c, 0, 75, 64
2, 7776, Note_off_c, 0, 78, 64
2, 7789, Note_on_c, 0, 73, 60
2, 7793, Note_on_c, 0, 76, 47
2, 7800, Note_off_c, 0, 60, 64
2, 7810, Note_on_c, 0, 44, 53
2, 7852, Note_on_c, 0, 54, 46
2, 7854, Note_off_c, 0, 73, 64
2, 7855, Note_on_c, 0, 78, 58
2, 7862, Note_on_c, 0, 75, 58
2, 7864, Note_off_c, 0, 76, 64
2, 7868, Note_on_c, 0, 60, 58
2, 7873, Control_c, 0, 64, 0
2, 7885, Control_c, 0, 64, 0
2, 7909, Control_c, 0, 64, 127
2, 7921, Control_c, 0, 64, 127
2, 7974, Note_off_c, 0, 44, 64
2, 7980, Note_off_c, 0, 51, 64
2, 8024, Note_off_c, 0, 54, 64
2, 8026, Note_on_c, 0, 44, 32
2, 8032, Note_off_c, 0, 60, 64
2, 8053, Note_on_c, 0, 52, 38
2, 8066, Note_off_c, 0, 78, 64
2, 8073, Note_off_c, 0, 75, 64
2, 8087, Note_on_c, 0, 76, 57
2, 8092, Note_on_c, 0, 80, 56
2, 8093, Note_on_c, 0, 61, 60
2, 8095, Control_c, 0, 64, 0
2, 8107, Control_c, 0, 64, 0
2, 8120, Control_c, 0, 64, 127
2, 8132, Control_c, 0, 64, 127
2, 8203, Note_off_c, 0, 52, 64
2, 8229, Note_off_c, 0, 44, 64
2, 8257, Control_c, 0, 64, 0
2, 8263, Note_off_c, 0, 61, 64
2, 8269, Control_c, 0, 64, 0
2, 8310, Note_off_c, 0, 76, 64
2, 8314, Note_on_c, 0, 32, 73
2, 8315, Note_off_c, 0, 80, 64
2, 8336, Note_on_c, 0, 78, 65
2, 8336, Note_on_c, 0, 75, 65
2, 8338, Control_c, 0, 64, 0
2, 8350, Control_c, 0, 64, 127
2, 8350, Control_c, 0, 64, 0
2, 8362, Control_c, 0, 64, 127
2, 8511, Note_on_c, 0, 44, 53
2, 8518, Note_on_c, 0, 80, 61
2, 8520, Note_off_c, 0, 75, 64
2, 8520, Note_off_c, 0, 78, 64
2, 8520, Note_on_c, 0, 76, 50
2, 8557, Note_on_c, 0, 51, 38
2, 8566, Note_on_c, 0, 54, 54
2, 8568, Note_off_c, 0, 80, 64
2, 8572, Note_off_c, 0, 76, 64
2, 8580, Note_on_c, 0, 81, 69
2, 8583, Note_on_c, 0, 78, 68
2, 8597, Note_on_c, 0, 60, 67
2, 8598, Control_c, 0, 64, 0
2, 8610, Note_off_c, 0, 32, 64
2, 8610, Control_c, 0, 64, 0
2, 8628, Control_c, 0, 64, 127
2, 8640, Control_c, 0, 64, 127
2, 8731, Note_off_c, 0, 78, 64
2, 8739, Note_off_c, 0, 81, 64
2, 8775, Note_on_c, 0, 83, 67
2, 8803, Note_on_c, 0, 81, 67
2, 8805, Note_on_c, 0, 78, 54
2, 8812, Control_c, 0, 64, 0
2, 8824, Control_c, 0, 64, 0
2, 8830, Control_c, 0, 64, 127
2, 8831, Note_off_c, 0, 83, 64
2, 8842, Control_c, 0, 64, 127
2, 8861, Note_off_c, 0, 44, 64
2, 8902, Note_off_c, 0, 54, 64
2, 8912, Note_on_c, 0, 80, 75
2, 8913, Note_off_c, 0, 51, 64
2, 8918, Note_on_c, 0, 76, 64
2, 8925, Note_off_c, 0, 81, 64
2, 8927, Note_off_c, 0, 78, 64
2, 8939, Note_off_c, 0, 60, 64
2, 9027, Note_on_c, 0, 78, 67
2, 9033, Note_on_c, 0, 75, 68
2, 9053, Note_off_c, 0, 80, 64
2, 9059, Note_off_c, 0, 76, 64
2, 9141, Note_on_c, 0, 76, 64
2, 9141, Note_on_c, 0, 73, 54
2, 9188, Note_off_c, 0, 75, 64
2, 9191, Note_off_c, 0, 78, 64
2, 9302, Note_on_c, 0, 75, 56
2, 9305, Note_on_c, 0, 72, 50
2, 9309, Note_off_c, 0, 73, 64
2, 9309, Note_off_c, 0, 76, 64
2, 9339, Control_c, 0, 64, 0
2, 9351, Control_c, 0, 64, 0
2, 9373, Control_c, 0, 64, 127
2, 9385, Control_c, 0, 64, 127
2, 9510, Note_on_c, 0, 73, 45
2, 9514, Note_on_c, 0, 69, 39
2, 9521, Note_off_c, 0, 75, 64
2, 9524, Note_off_c, 0, 72, 64
2, 9572, Control_c, 0, 64, 0
2, 9584, Control_c, 0, 64, 0
2, 9607, Control_c, 0, 64, 127
2, 9619, Control_c, 0, 64, 127
2, 9952, Note_off_c, 0, 69, 64
2, 9968, Note_on_c, 0, 69, 58
2, 9972, Note_on_c, 0, 66, 30
2, 9980, Control_c, 0, 64, 0
2, 9989, Note_off_c, 0, 73, 64
2, 9992, Control_c, 0, 64, 0
2, 10005, Control_c, 0, 64, 127
2, 10017, Control_c, 0, 64, 127
2, 10186, Note_on_c, 0, 37, 32
2, 10232, Note_on_c, 0, 44, 38
2, 10264, Note_on_c, 0, 52, 49
2, 10265, Note_on_c, 0, 68, 49
2, 10271, Note_on_c, 0, 64, 42
2, 10287, Note_off_c, 0, 69, 64
2, 10291, Note_off_c, 0, 66, 64
2, 10292, Note_off_c, 0, 37, 64
2, 10294, Control_c, 0, 64, 0
2, 10306, Control_c, 0, 64, 0
2, 10309, Control_c, 0, 64, 127
2, 10321, Control_c, 0, 64, 127
2, 10338, Note_off_c, 0, 44, 64
2, 10375, Note_off_c, 0, 52, 64
2, 10398, Note_off_c, 0, 68, 64
2, 10404, Note_off_c, 0, 64, 64
2, 10424, Note_on_c, 0, 66, 50
2, 10431, Note_on_c, 0, 69, 39
2, 10462, Note_off_c, 0, 69, 64
2, 10467, Note_on_c, 0, 71, 38
2, 10482, Note_off_c, 0, 66, 64
2, 10496, Note_on_c, 0, 69, 52
2, 10506, Note_on_c, 0, 37, 41
2, 10515, Note_off_c, 0, 71, 64
2, 10525, Note_on_c, 0, 64, 52
2, 10530, Note_on_c, 0, 68, 63
2, 10530, Note_on_c, 0, 44, 46
2, 10542, Note_on_c, 0, 52, 26
2, 10548, Note_off_c, 0, 69, 64
2, 10550, Control_c, 0, 64, 0
2, 10562, Control_c, 0, 64, 0
2, 10577, Control_c, 0, 64, 127
2, 10589, Control_c, 0, 64, 127
2, 10612, Note_off_c, 0, 37, 64
2, 10615, Note_off_c, 0, 44, 64
2, 10666, Note_off_c, 0, 52, 64
2, 10702, Note_on_c, 0, 37, 38
2, 10743, Note_on_c, 0, 44, 43
2, 10773, Note_off_c, 0, 64, 64
2, 10778, Note_off_c, 0, 68, 64
2, 10779, Note_on_c, 0, 73, 56
2, 10781, Note_on_c, 0, 52, 58
2, 10788, Note_on_c, 0, 76, 52
2, 10824, Note_off_c, 0, 37, 64
2, 10842, Note_off_c, 0, 44, 64
2, 10886, Note_off_c, 0, 52, 64
2, 10962, Note_off_c, 0, 73, 64
2, 10971, Note_off_c, 0, 76, 64
2, 10977, Note_on_c, 0, 75, 53
2, 10981, Note_on_c, 0, 37, 58
2, 11005, Note_on_c, 0, 76, 54
2, 11007, Note_off_c, 0, 75, 64
2, 11013, Note_on_c, 0, 44, 52
2, 11036, Note_on_c, 0, 54, 61
2, 11037, Note_on_c, 0, 72, 46
2, 11039, Note_on_c, 0, 75, 58
2, 11058, Note_off_c, 0, 76, 64
2, 11058, Note_off_c, 0, 37, 64
2, 11099, Note_off_c, 0, 44, 64
2, 11160, Note_off_c, 0, 54, 64
2, 11161, Note_off_c, 0, 72, 64
2, 11163, Note_off_c, 0, 75, 64
2, 11194, Note_on_c, 0, 73, 53
2, 11197, Note_on_c, 0, 70, 46
2, 11200, Note_on_c, 0, 37, 53
2, 11229, Note_on_c, 0, 72, 61
2, 11231, Note_on_c, 0, 44, 53
2, 11234, Note_on_c, 0, 75, 53
2, 11245, Note_off_c, 0, 70, 64
2, 11249, Note_off_c, 0, 73, 64
2, 11257, Note_on_c, 0, 54, 49
2, 11261, Control_c, 0, 64, 0
2, 11273, Control_c, 0, 64, 0
2, 11288, Note_off_c, 0, 37, 64
2, 11305, Control_c, 0, 64, 127
2, 11317, Control_c, 0, 64, 127
2, 11336, Note_off_c, 0, 44, 64
2, 11385, Note_off_c, 0, 54, 64
2, 11442, Note_on_c, 0, 37, 42
2, 11448, Note_off_c, 0, 72, 64
2, 11453, Note_off_c, 0, 75, 64
2, 11461, Note_on_c, 0, 76, 58
2, 11465, Note_on_c, 0, 73, 64
2, 11471, Note_on_c, 0, 52, 46
2, 11471, Note_on_c, 0, 44, 38
2, 11476, Control_c, 0, 64, 0
2, 11488, Control_c, 0, 64, 0
2, 11501, Control_c, 0, 64, 127
2, 11513, Control_c, 0, 64, 127
2, 11538, Note_off_c, 0, 37, 64
2, 11546, Note_off_c, 0, 44, 64
2, 11587, Note_off_c, 0, 52, 64
2, 11654, Note_off_c, 0, 73, 64
2, 11655, Note_on_c, 0, 37, 39
2, 11659, Note_off_c, 0, 76, 64
2, 11679, Note_on_c, 0, 44, 47
2, 11701, Note_on_c, 0, 68, 56
2, 11701, Note_on_c, 0, 52, 46
2, 11707, Control_c, 0, 64, 0
2, 11708, Note_on_c, 0, 64, 53
2, 11719, Control_c, 0, 64, 0
2, 11721, Control_c, 0, 64, 127
2, 11733, Control_c, 0, 64, 127
2, 11763, Note_off_c, 0, 37, 64
2, 11772, Note_off_c, 0, 44, 64
2, 11801, Note_off_c, 0, 52, 64
2, 11804, Note_off_c, 0, 64, 64
2, 11825, Note_off_c, 0, 68, 64
2, 11836, Note_on_c, 0, 69, 46
2, 11843, Note_on_c, 0, 66, 58
2, 11879, Note_off_c, 0, 66, 64
2, 11879, Note_on_c, 0, 71, 43
2, 11885, Note_off_c, 0, 69, 64
2, 11888, Note_on_c, 0, 37, 26
2, 11907, Note_on_c, 0, 69, 58
2, 11913, Note_on_c, 0, 44, 49
2, 11928, Note_off_c, 0, 71, 64
2, 11930, Note_on_c, 0, 52, 50
2, 11935, Note_on_c, 0, 64, 46
2, 11937, Control_c, 0, 64, 0
2, 11945, Note_on_c, 0, 68, 63
2, 11949, Control_c, 0, 64, 0
2, 11957, Control_c, 0, 64, 127
2, 11960, Note_off_c, 0, 69, 64
2, 11969, Control_c, 0, 64, 127
2, 11988, Note_off_c, 0, 44, 64
2, 11994, Note_off_c, 0, 37, 64
2, 12035, Note_off_c, 0, 64, 64
2, 12035, Note_off_c, 0, 52, 64
2, 12050, Note_off_c, 0, 68, 64
2, 12101, Note_on_c, 0, 37, 41
2, 12114, Note_on_c, 0, 68, 42
2, 12116, Note_on_c, 0, 64, 47
2, 12130, Note_on_c, 0, 44, 42
2, 12149, Note_on_c, 0, 73, 61
2, 12157, Note_on_c, 0, 76, 53
2, 12157, Note_on_c, 0, 52, 49
2, 12164, Control_c, 0, 64, 0
2, 12176, Control_c, 0, 64, 0
2, 12187, Control_c, 0, 64, 127
2, 12193, Note_off_c, 0, 64, 64
2, 12193, Note_off_c, 0, 68, 64
2, 12199, Control_c, 0, 64, 127
2, 12215, Note_off_c, 0, 37, 64
2, 12224, Note_off_c, 0, 44, 64
2, 12279, Note_off_c, 0, 52, 64
2, 12297, Note_off_c, 0, 73, 64
2, 12305, Note_off_c, 0, 76, 64
2, 12328, Note_on_c, 0, 75, 38
2, 12332, Note_on_c, 0, 37, 49
2, 12345, Note_on_c, 0, 76, 49
2, 12353, Note_off_c, 0, 75, 64
2, 12366, Note_on_c, 0, 44, 47
2, 12382, Note_on_c, 0, 75, 61
2, 12389, Note_on_c, 0, 72, 50
2, 12393, Control_c, 0, 64, 0
2, 12394, Note_on_c, 0, 54, 58
2, 12398, Note_off_c, 0, 76, 64
2, 12405, Control_c, 0, 64, 0
2, 12408, Control_c, 0, 64, 127
2, 12420, Note_off_c, 0, 37, 64
2, 12420, Control_c, 0, 64, 127
2, 12449, Note_off_c, 0, 44, 64
2, 12493, Note_off_c, 0, 75, 64
2, 12500, Note_off_c, 0, 72, 64
2, 12538, Note_off_c, 0, 54, 64
2, 12540, Note_on_c, 0, 37, 53
2, 12541, Note_on_c, 0, 70, 58
2, 12542, Note_on_c, 0, 73, 52
2, 12578, Note_on_c, 0, 44, 49
2, 12586, Note_on_c, 0, 75, 60
2, 12589, Note_off_c, 0, 70, 64
2, 12590, Note_off_c, 0, 73, 64
2, 12591, Note_on_c, 0, 72, 63
2, 12597, Note_on_c, 0, 54, 63
2, 12609, Control_c, 0, 64, 0
2, 12621, Control_c, 0, 64, 0
2, 12623, Note_off_c, 0, 37, 64
2, 12628, Control_c, 0, 64, 127
2, 12640, Control_c, 0, 64, 127
2, 12653, Note_off_c, 0, 44, 64
2, 12733, Note_off_c, 0, 54, 64
2, 12785, Note_off_c, 0, 75, 64
2, 12790, Note_off_c, 0, 72, 64
2, 12804, Note_on_c, 0, 37, 42
2, 12810, Note_on_c, 0, 73, 61
2, 12813, Note_on_c, 0, 76, 58
2, 12815, Control_c, 0, 64, 0
2, 12820, Note_on_c, 0, 52, 46
2, 12823, Note_on_c, 0, 44, 38
2, 12827, Control_c, 0, 64, 127
2, 12827, Control_c, 0, 64, 0
2, 12839, Control_c, 0, 64, 127
2, 12877, Note_off_c, 0, 44, 64
2, 12881, Note_off_c, 0, 37, 64
2, 12947, Note_off_c, 0, 52, 64
2, 13039, Note_off_c, 0, 73, 64
2, 13045, Note_off_c, 0, 76, 64
2, 13055, Note_on_c, 0, 35, 63
2, 13059, Note_on_c, 0, 78, 68
2, 13059, Note_on_c, 0, 75, 69
2, 13060, Control_c, 0, 64, 0
2, 13072, Control_c, 0, 64, 0
2, 13094, Control_c, 0, 64, 127
2, 13106, Control_c, 0, 64, 127
2, 13221, Note_off_c, 0, 75, 64
2, 13221, Note_off_c, 0, 78, 64
2, 13226, Note_on_c, 0, 47, 56
2, 13237, Note_on_c, 0, 80, 56
2, 13237, Note_on_c, 0, 76, 52
2, 13268, Note_on_c, 0, 54, 48
2, 13272, Note_on_c, 0, 57, 59
2, 13315, Note_off_c, 0, 76, 64
2, 13315, Note_off_c, 0, 80, 64
2, 13317, Note_on_c, 0, 81, 51
2, 13317, Note_on_c, 0, 78, 66
2, 13317, Note_on_c, 0, 63, 43
2, 13362, Note_off_c, 0, 47, 64
2, 13431, Note_off_c, 0, 63, 64
2, 13437, Note_on_c, 0, 47, 60
2, 13451, Note_off_c, 0, 57, 64
2, 13479, Note_on_c, 0, 83, 73
2, 13484, Note_off_c, 0, 78, 64
2, 13484, Note_off_c, 0, 81, 64
2, 13485, Note_on_c, 0, 57, 29
2, 13496, Note_off_c, 0, 35, 64
2, 13507, Note_on_c, 0, 81, 74
2, 13509, Note_on_c, 0, 63, 43
2, 13514, Note_on_c, 0, 78, 72
2, 13534, Note_off_c, 0, 83, 64
2, 13534, Note_off_c, 0, 47, 64
2, 13535, Control_c, 0, 64, 0
2, 13547, Control_c, 0, 64, 0
2, 13560, Control_c, 0, 64, 127
2, 13572, Control_c, 0, 64, 127
2, 13598, Note_off_c, 0, 63, 64
2, 13630, Note_on_c, 0, 80, 87
2, 13635, Note_off_c, 0, 57, 64
2, 13637, Note_off_c, 0, 81, 64
2, 13637, Note_on_c, 0, 76, 72
2, 13644, Note_off_c, 0, 78, 64
2, 13703, Note_on_c, 0, 47, 54
2, 13705, Note_off_c, 0, 80, 64
2, 13712, Note_off_c, 0, 76, 64
2, 13720, Note_on_c, 0, 78, 89
2, 13729, Note_off_c, 0, 54, 64
2, 13744, Note_on_c, 0, 57, 36
2, 13744, Note_on_c, 0, 54, 29
2, 13746, Note_on_c, 0, 80, 86
2, 13754, Note_off_c, 0, 78, 64
2, 13775, Note_on_c, 0, 75, 87
2, 13779, Note_on_c, 0, 78, 90
2, 13784, Note_on_c, 0, 63, 66
2, 13795, Note_off_c, 0, 80, 64
2, 13822, Note_off_c, 0, 47, 64
2, 13881, Note_off_c, 0, 63, 64
2, 13906, Note_off_c, 0, 57, 64
2, 13911, Note_off_c, 0, 75, 64
2, 13915, Note_off_c, 0, 78, 64
2, 13925, Note_on_c, 0, 73, 72
2, 13926, Note_on_c, 0, 76, 70
2, 13940, Note_on_c, 0, 47, 59
2, 13969, Note_on_c, 0, 57, 59
2, 13972, Note_on_c, 0, 78, 79
2, 13974, Note_off_c, 0, 73, 64
2, 13975, Note_off_c, 0, 76, 64
2, 13978, Note_on_c, 0, 75, 70
2, 13990, Control_c, 0, 64, 0
2, 14002, Control_c, 0, 64, 0
2, 14014, Note_on_c, 0, 63, 66
2, 14019, Control_c, 0, 64, 127
2, 14031, Control_c, 0, 64, 127
2, 14062, Note_off_c, 0, 47, 64
2, 14130, Note_off_c, 0, 63, 64
2, 14135, Note_on_c, 0, 47, 54
2, 14144, Note_off_c, 0, 57, 64
2, 14170, Note_off_c, 0, 54, 64
2, 14181, Note_on_c, 0, 52, 56
2, 14192, Note_on_c, 0, 56, 59
2, 14204, Note_on_c, 0, 80, 79
2, 14205, Note_on_c, 0, 76, 83
2, 14216, Control_c, 0, 64, 0
2, 14218, Note_off_c, 0, 78, 64
2, 14218, Note_on_c, 0, 64, 66
2, 14224, Note_off_c, 0, 75, 64
2, 14228, Control_c, 0, 64, 0
2, 14229, Control_c, 0, 64, 127
2, 14241, Control_c, 0, 64, 127
2, 14249, Note_off_c, 0, 47, 64
2, 14303, Note_off_c, 0, 64, 64
2, 14309, Note_off_c, 0, 52, 64
2, 14329, Note_off_c, 0, 56, 64
2, 14391, Note_on_c, 0, 47, 46
2, 14436, Note_on_c, 0, 54, 61
2, 14445, Note_on_c, 0, 57, 30
2, 14448, Note_off_c, 0, 80, 64
2, 14449, Note_off_c, 0, 76, 64
2, 14456, Note_on_c, 0, 75, 56
2, 14461, Note_on_c, 0, 78, 67
2, 14461, Note_on_c, 0, 63, 57
2, 14522, Note_off_c, 0, 47, 64
2, 14557, Note_off_c, 0, 63, 64
2, 14561, Note_off_c, 0, 75, 64
2, 14564, Note_on_c, 0, 76, 68
2, 14567, Note_off_c, 0, 78, 64
2, 14567, Note_on_c, 0, 80, 73
2, 14600, Note_off_c, 0, 57, 64
2, 14637, Note_on_c, 0, 47, 46
2, 14663, Note_on_c, 0, 78, 76
2, 14667, Note_on_c, 0, 81, 80
2, 14668, Note_off_c, 0, 76, 64
2, 14671, Note_off_c, 0, 80, 64
2, 14685, Note_on_c, 0, 57, 61
2, 14709, Note_on_c, 0, 63, 30
2, 14765, Note_on_c, 0, 83, 80
2, 14768, Note_off_c, 0, 47, 64
2, 14773, Note_on_c, 0, 80, 69
2, 14784, Note_off_c, 0, 78, 64
2, 14788, Note_off_c, 0, 81, 64
2, 14831, Note_off_c, 0, 83, 64
2, 14839, Note_off_c, 0, 80, 64
2, 14839, Note_on_c, 0, 87, 75
2, 14840, Note_on_c, 0, 83, 65
2, 14843, Note_off_c, 0, 57, 64
2, 14864, Note_off_c, 0, 63, 64
2, 14917, Note_on_c, 0, 81, 69
2, 14922, Note_on_c, 0, 85, 93
2, 14936, Control_c, 0, 64, 0
2, 14945, Note_off_c, 0, 87, 64
2, 14948, Control_c, 0, 64, 0
2, 14959, Note_off_c, 0, 83, 64
2, 14965, Control_c, 0, 64, 127
2, 14977, Control_c, 0, 64, 127
2, 15017, Note_off_c, 0, 81, 64
2, 15029, Note_on_c, 0, 78, 74
2, 15035, Note_on_c, 0, 81, 74
2, 15041, Note_off_c, 0, 85, 64
2, 15102, Note_on_c, 0, 47, 57
2, 15125, Note_off_c, 0, 78, 64
2, 15135, Note_on_c, 0, 78, 78
2, 15151, Note_off_c, 0, 81, 64
2, 15152, Note_on_c, 0, 57, 36
2, 15159, Note_on_c, 0, 80, 75
2, 15169, Note_off_c, 0, 78, 64
2, 15179, Note_on_c, 0, 63, 69
2, 15196, Note_on_c, 0, 78, 69
2, 15198, Note_on_c, 0, 75, 71
2, 15208, Note_off_c, 0, 80, 64
2, 15218, Note_off_c, 0, 47, 64
2, 15263, Note_off_c, 0, 57, 64
2, 15293, Note_off_c, 0, 63, 64
2, 15347, Note_on_c, 0, 76, 69
2, 15354, Note_on_c, 0, 73, 63
2, 15359, Note_off_c, 0, 78, 64
2, 15361, Note_off_c, 0, 75, 64
2, 15363, Note_on_c, 0, 47, 58
2, 15412, Note_on_c, 0, 78, 73
2, 15414, Note_on_c, 0, 57, 30
2, 15416, Note_on_c, 0, 75, 73
2, 15420, Control_c, 0, 64, 0
2, 15424, Note_off_c, 0, 76, 64
2, 15431, Note_off_c, 0, 73, 64
2, 15432, Control_c, 0, 64, 0
2, 15439, Control_c, 0, 64, 127
2, 15443, Note_on_c, 0, 63, 69
2, 15451, Control_c, 0, 64, 127
2, 15469, Note_off_c, 0, 47, 64
2, 15519, Note_off_c, 0, 57, 64
2, 15567, Note_off_c, 0, 63, 64
2, 15654, Note_off_c, 0, 54, 64
2, 15707, Note_on_c, 0, 80, 58
2, 15709, Note_on_c, 0, 56, 39
2, 15714, Note_on_c, 0, 76, 61
2, 15714, Note_on_c, 0, 52, 42
2, 15720, Note_off_c, 0, 78, 64
2, 15722, Note_on_c, 0, 64, 36
2, 15724, Note_off_c, 0, 75, 64
2, 15748, Control_c, 0, 64, 0
2, 15760, Control_c, 0, 64, 0
2, 15770, Control_c, 0, 64, 127
2, 15782, Control_c, 0, 64, 127
2, 15892, Note_off_c, 0, 64, 64
2, 15938, Note_off_c, 0, 52, 64
2, 15960, Note_off_c, 0, 56, 64
2, 15972, Note_off_c, 0, 76, 64
2, 15982, Note_on_c, 0, 42, 53
2, 15986, Control_c, 0, 64, 0
2, 15989, Note_on_c, 0, 78, 45
2, 15989, Note_on_c, 0, 74, 47
2, 15996, Note_off_c, 0, 80, 64
2, 15998, Control_c, 0, 64, 0
2, 16023, Control_c, 0, 64, 127
2, 16035, Control_c, 0, 64, 127
2, 16182, Note_off_c, 0, 74, 64
2, 16182, Note_off_c, 0, 78, 64
2, 16201, Note_on_c, 0, 69, 27
2, 16248, Note_on_c, 0, 78, 45
2, 16254, Note_on_c, 0, 74, 45
2, 16260, Note_on_c, 0, 54, 36
2, 16261, Note_on_c, 0, 62, 38
2, 16261, Note_on_c, 0, 57, 43
2, 16280, Control_c, 0, 64, 0
2, 16291, Note_off_c, 0, 69, 64
2, 16292, Control_c, 0, 64, 0
2, 16307, Control_c, 0, 64, 127
2, 16319, Control_c, 0, 64, 127
2, 16400, Note_off_c, 0, 42, 64
2, 16450, Note_off_c, 0, 57, 64
2, 16452, Note_off_c, 0, 54, 64
2, 16483, Note_off_c, 0, 62, 64
2, 16500, Note_off_c, 0, 74, 64
2, 16513, Note_off_c, 0, 78, 64
2, 16594, Note_on_c, 0, 76, 41
2, 16594, Note_on_c, 0, 73, 39
2, 16683, Note_off_c, 0, 73, 64
2, 16691, Note_on_c, 0, 75, 45
2, 16694, Note_off_c, 0, 76, 64
2, 16716, Note_on_c, 0, 76, 38
2, 16726, Note_off_c, 0, 75, 64
2, 16738, Control_c, 0, 64, 0
2, 16749, Note_on_c, 0, 72, 49
2, 16749, Note_on_c, 0, 66, 38
2, 16749, Note_on_c, 0, 63, 38
2, 16750, Control_c, 0, 64, 0
2, 16753, Note_on_c, 0, 75, 47
2, 16753, Note_on_c, 0, 56, 24
2, 16767, Note_off_c, 0, 76, 64
2, 16784, Control_c, 0, 64, 127
2, 16796, Control_c, 0, 64, 127
2, 16807, Note_off_c, 0, 63, 64
2, 16807, Note_off_c, 0, 66, 64
2, 16811, Note_off_c, 0, 56, 64
2, 16937, Note_on_c, 0, 73, 50
2, 16940, Note_on_c, 0, 70, 50
2, 16943, Note_off_c, 0, 72, 64
2, 16947, Note_off_c, 0, 75, 64
2, 16993, Note_on_c, 0, 72, 49
2, 16994, Note_off_c, 0, 73, 64
2, 16994, Note_on_c, 0, 75, 46
2, 16997, Note_off_c, 0, 70, 64
2, 16999, Note_on_c, 0, 56, 43
2, 17009, Note_on_c, 0, 66, 38
2, 17009, Note_on_c, 0, 63, 38
2, 17019, Control_c, 0, 64, 0
2, 17031, Control_c, 0, 64, 0
2, 17057, Note_off_c, 0, 56, 64
2, 17057, Control_c, 0, 64, 127
2, 17067, Note_off_c, 0, 63, 64
2, 17067, Note_off_c, 0, 66, 64
2, 17069, Control_c, 0, 64, 127
2, 17232, Note_on_c, 0, 64, 43
2, 17236, Note_on_c, 0, 76, 43
2, 17236, Note_on_c, 0, 73, 45
2, 17236, Note_on_c, 0, 61, 45
2, 17257, Note_off_c, 0, 72, 64
2, 17258, Note_off_c, 0, 75, 64
2, 17263, Control_c, 0, 64, 0
2, 17275, Control_c, 0, 64, 0
2, 17290, Note_off_c, 0, 64, 64
2, 17290, Control_c, 0, 64, 127
2, 17294, Note_off_c, 0, 61, 64
2, 17302, Control_c, 0, 64, 127
2, 17375, Control_c, 0, 64, 0
2, 17387, Control_c, 0, 64, 0
2, 17442, Control_c, 0, 64, 0
2, 17454, Control_c, 0, 64, 0
2, 17459, Note_off_c, 0, 73, 64
2, 17459, Note_off_c, 0, 76, 64
2, 17462, Note_on_c, 0, 42, 65
2, 17464, Note_on_c, 0, 69, 61
2, 17472, Control_c, 0, 64, 127
2, 17484, Control_c, 0, 64, 127
2, 17525, Note_on_c, 0, 74, 46
2, 17528, Note_on_c, 0, 78, 58
2, 17569, Note_off_c, 0, 69, 64
2, 17620, Note_on_c, 0, 81, 67
2, 17672, Note_off_c, 0, 74, 64
2, 17676, Note_off_c, 0, 78, 64
2, 17693, Note_on_c, 0, 90, 64
2, 17699, Note_on_c, 0, 86, 63
2, 17702, Note_on_c, 0, 69, 53
2, 17704, Note_on_c, 0, 62, 28
2, 17712, Note_on_c, 0, 54, 21
2, 17723, Control_c, 0, 64, 0
2, 17735, Control_c, 0, 64, 0
2, 17746, Control_c, 0, 64, 127
2, 17758, Control_c, 0, 64, 127
2, 17826, Note_off_c, 0, 81, 64
2, 17880, Note_off_c, 0, 42, 64
2, 17891, Note_off_c, 0, 54, 64
2, 17908, Note_off_c, 0, 62, 64
2, 17914, Note_off_c, 0, 69, 64
2, 17939, Note_off_c, 0, 90, 64
2, 17940, Note_off_c, 0, 86, 64
2, 18052, Note_on_c, 0, 76, 43
2, 18052, Note_on_c, 0, 73, 41
2, 18158, Note_on_c, 0, 75, 46
2, 18170, Note_off_c, 0, 73, 64
2, 18170, Note_off_c, 0, 76, 64
2, 18187, Note_on_c, 0, 76, 38
2, 18201, Note_off_c, 0, 75, 64
2, 18206, Control_c, 0, 64, 0
2, 18209, Note_on_c, 0, 63, 38
2, 18216, Note_on_c, 0, 75, 41
2, 18217, Note_on_c, 0, 72, 31
2, 18217, Note_on_c, 0, 66, 38
2, 18217, Note_on_c, 0, 56, 38
2, 18218, Control_c, 0, 64, 0
2, 18235, Control_c, 0, 64, 127
2, 18236, Note_off_c, 0, 76, 64
2, 18247, Control_c, 0, 64, 127
2, 18267, Note_off_c, 0, 63, 64
2, 18275, Note_off_c, 0, 56, 64
2, 18275, Note_off_c, 0, 66, 64
2, 18391, Note_on_c, 0, 70, 57
2, 18397, Note_on_c, 0, 73, 49
2, 18404, Note_off_c, 0, 75, 64
2, 18405, Note_off_c, 0, 72, 64
2, 18445, Note_on_c, 0, 75, 45
2, 18446, Note_off_c, 0, 70, 64
2, 18452, Note_off_c, 0, 73, 64
2, 18453, Note_on_c, 0, 72, 50
2, 18455, Note_on_c, 0, 66, 38
2, 18457, Note_on_c, 0, 56, 45
2, 18461, Control_c, 0, 64, 0
2, 18466, Note_on_c, 0, 63, 42
2, 18473, Control_c, 0, 64, 0
2, 18498, Control_c, 0, 64, 127
2, 18510, Control_c, 0, 64, 127
2, 18513, Note_off_c, 0, 66, 64
2, 18515, Note_off_c, 0, 56, 64
2, 18524, Note_off_c, 0, 63, 64
2, 18612, Note_off_c, 0, 72, 64
2, 18612, Note_off_c, 0, 75, 64
2, 18691, Control_c, 0, 64, 0
2, 18694, Note_on_c, 0, 73, 49
2, 18699, Note_on_c, 0, 76, 45
2, 18703, Control_c, 0, 64, 0
2, 18709, Note_on_c, 0, 61, 43
2, 18710, Note_on_c, 0, 64, 35
2, 18719, Control_c, 0, 64, 127
2, 18731, Control_c, 0, 64, 127
2, 18767, Note_off_c, 0, 61, 64
2, 18768, Note_off_c, 0, 64, 64
2, 18852, Note_off_c, 0, 76, 64
2, 18852, Note_off_c, 0, 73, 64
2, 18947, Note_on_c, 0, 69, 60
2, 18947, Note_on_c, 0, 42, 61
2, 18995, Note_on_c, 0, 74, 38
2, 19004, Note_on_c, 0, 78, 64
2, 19032, Note_off_c, 0, 69, 64
2, 19078, Note_on_c, 0, 81, 50
2, 19100, Note_off_c, 0, 74, 64
2, 19109, Note_off_c, 0, 78, 64
2, 19117, Note_on_c, 0, 86, 38
2, 19129, Note_on_c, 0, 90, 56
2, 19185, Note_on_c, 0, 69, 58
2, 19186, Note_on_c, 0, 93, 73
2, 19192, Note_on_c, 0, 62, 56
2, 19193, Note_on_c, 0, 54, 46
2, 19218, Control_c, 0, 64, 0
2, 19230, Control_c, 0, 64, 0
2, 19237, Note_off_c, 0, 81, 64
2, 19242, Control_c, 0, 64, 127
2, 19250, Note_off_c, 0, 86, 64
2, 19254, Control_c, 0, 64, 127
2, 19262, Note_off_c, 0, 90, 64
2, 19331, Note_off_c, 0, 69, 64
2, 19338, Note_off_c, 0, 62, 64
2, 19343, Note_off_c, 0, 54, 64
2, 19365, Note_off_c, 0, 42, 64
2, 19471, Note_off_c, 0, 93, 64
2, 19525, Note_on_c, 0, 73, 39
2, 19530, Note_on_c, 0, 76, 45
2, 19635, Note_off_c, 0, 73, 64
2, 19637, Note_on_c, 0, 75, 43
2, 19640, Note_off_c, 0, 76, 64
2, 19659, Note_on_c, 0, 76, 38
2, 19667, Note_off_c, 0, 75, 64
2, 19684, Note_on_c, 0, 56, 38
2, 19686, Note_on_c, 0, 63, 43
2, 19690, Note_on_c, 0, 66, 31
2, 19693, Note_on_c, 0, 72, 27
2, 19694, Control_c, 0, 64, 0
2, 19696, Note_on_c, 0, 75, 49
2, 19706, Control_c, 0, 64, 0
2, 19713, Note_off_c, 0, 76, 64
2, 19725, Control_c, 0, 64, 127
2, 19737, Control_c, 0, 64, 127
2, 19742, Note_off_c, 0, 56, 64
2, 19744, Note_off_c, 0, 63, 64
2, 19748, Note_off_c, 0, 66, 64
2, 19786, Note_off_c, 0, 72, 64
2, 19789, Note_off_c, 0, 75, 64
2, 19873, Note_on_c, 0, 70, 53
2, 19880, Note_on_c, 0, 73, 45
2, 19921, Note_off_c, 0, 70, 64
2, 19925, Note_on_c, 0, 75, 47
2, 19928, Note_off_c, 0, 73, 64
2, 19929, Note_on_c, 0, 72, 45
2, 19931, Note_on_c, 0, 66, 35
2, 19933, Note_on_c, 0, 56, 41
2, 19939, Note_on_c, 0, 63, 38
2, 19944, Control_c, 0, 64, 0
2, 19956, Control_c, 0, 64, 0
2, 19969, Control_c, 0, 64, 127
2, 19981, Control_c, 0, 64, 127
2, 19989, Note_off_c, 0, 66, 64
2, 19991, Note_off_c, 0, 56, 64
2, 19997, Note_off_c, 0, 63, 64
2, 20181, Note_on_c, 0, 64, 41
2, 20182, Note_on_c, 0, 73, 52
2, 20184, Note_on_c, 0, 76, 47
2, 20186, Note_on_c, 0, 61, 43
2, 20192, Note_off_c, 0, 72, 64
2, 20192, Note_off_c, 0, 75, 64
2, 20239, Note_off_c, 0, 64, 64
2, 20244, Note_off_c, 0, 61, 64
2, 20292, Note_off_c, 0, 76, 64
2, 20292, Note_off_c, 0, 73, 64
2, 20479, Note_on_c, 0, 69, 64
2, 20483, Note_on_c, 0, 42, 69
2, 20541, Note_on_c, 0, 74, 56
2, 20545, Note_on_c, 0, 78, 61
2, 20575, Note_off_c, 0, 69, 64
2, 20613, Note_on_c, 0, 81, 73
2, 20626, Note_off_c, 0, 74, 64
2, 20630, Note_off_c, 0, 78, 64
2, 20669, Note_on_c, 0, 86, 58
2, 20677, Note_on_c, 0, 90, 68
2, 20710, Note_off_c, 0, 81, 64
2, 20727, Note_on_c, 0, 93, 71
2, 20754, Note_off_c, 0, 90, 64
2, 20760, Note_off_c, 0, 86, 64
2, 20773, Note_on_c, 0, 90, 64
2, 20814, Note_on_c, 0, 54, 31
2, 20845, Note_on_c, 0, 86, 38
2, 20873, Note_on_c, 0, 62, 54
2, 20904, Note_on_c, 0, 81, 58
2, 20945, Note_on_c, 0, 69, 38
2, 20979, Control_c, 0, 64, 0
2, 20982, Note_on_c, 0, 98, 78
2, 20991, Control_c, 0, 64, 0
2, 21005, Control_c, 0, 64, 127
2, 21017, Control_c, 0, 64, 127
2, 21341, Control_c, 0, 64, 0
2, 21353, Control_c, 0, 64, 0
2, 21367, Note_off_c, 0, 62, 64
2, 21367, Note_off_c, 0, 81, 64
2, 21377, Note_off_c, 0, 86, 64
2, 21386, Note_off_c, 0, 69, 64
2, 21403, Note_off_c, 0, 90, 64
2, 21418, Note_off_c, 0, 42, 64
2, 21445, Control_c, 0, 64, 0
2, 21453, Note_off_c, 0, 93, 64
2, 21457, Control_c, 0, 64, 0
2, 21492, Note_off_c, 0, 54, 64
2, 21501, Control_c, 0, 64, 0
2, 21502, Note_off_c, 0, 98, 64
2, 21513, Control_c, 0, 64, 0
2, 21573, Control_c, 0, 64, 0
2, 21585, Control_c, 0, 64, 0
2, 21685, Note_on_c, 0, 76, 45
2, 21685, Note_on_c, 0, 73, 30
2, 21795, Note_off_c, 0, 73, 64
2, 21795, Note_off_c, 0, 76, 64
2, 21816, Note_on_c, 0, 75, 31
2, 21835, Note_on_c, 0, 76, 50
2, 21846, Note_off_c, 0, 75, 64
2, 21853, Note_on_c, 0, 66, 42
2, 21853, Note_on_c, 0, 63, 42
2, 21853, Note_on_c, 0, 56, 35
2, 21860, Note_on_c, 0, 72, 20
2, 21867, Note_on_c, 0, 75, 57
2, 21877, Control_c, 0, 64, 0
2, 21889, Note_off_c, 0, 76, 64
2, 21889, Control_c, 0, 64, 0
2, 21911, Note_off_c, 0, 56, 64
2, 21911, Note_off_c, 0, 63, 64
2, 21911, Note_off_c, 0, 66, 64
2, 21924, Control_c, 0, 64, 127
2, 21936, Control_c, 0, 64, 127
2, 21970, Note_off_c, 0, 72, 64
2, 21978, Note_off_c, 0, 75, 64
2, 22002, Note_on_c, 0, 70, 64
2, 22008, Note_on_c, 0, 73, 61
2, 22050, Note_off_c, 0, 70, 64
2, 22056, Note_on_c, 0, 56, 32
2, 22057, Note_off_c, 0, 73, 64
2, 22061, Note_on_c, 0, 72, 58
2, 22063, Note_on_c, 0, 75, 52
2, 22069, Note_on_c, 0, 66, 35
2, 22069, Note_on_c, 0, 63, 42
2, 22114, Note_off_c, 0, 56, 64
2, 22127, Note_off_c, 0, 63, 64
2, 22127, Note_off_c, 0, 66, 64
2, 22235, Note_off_c, 0, 72, 64
2, 22237, Note_off_c, 0, 75, 64
2, 22260, Note_on_c, 0, 76, 52
2, 22260, Note_on_c, 0, 73, 58
2, 22260, Note_on_c, 0, 64, 49
2, 22260, Note_on_c, 0, 61, 38
2, 22318, Note_off_c, 0, 61, 64
2, 22318, Note_off_c, 0, 64, 64
2, 22353, Note_off_c, 0, 73, 64
2, 22353, Note_off_c, 0, 76, 64
2, 22359, Note_on_c, 0, 75, 54
2, 22390, Note_on_c, 0, 76, 50
2, 22407, Note_off_c, 0, 75, 64
2, 22428, Note_on_c, 0, 75, 61
2, 22436, Note_on_c, 0, 72, 49
2, 22440, Note_on_c, 0, 63, 61
2, 22444, Note_on_c, 0, 56, 46
2, 22445, Note_on_c, 0, 66, 42
2, 22449, Note_off_c, 0, 76, 64
2, 22453, Control_c, 0, 64, 0
2, 22465, Control_c, 0, 64, 0
2, 22467, Control_c, 0, 64, 127
2, 22479, Control_c, 0, 64, 127
2, 22498, Note_off_c, 0, 63, 64
2, 22502, Note_off_c, 0, 56, 64
2, 22503, Note_off_c, 0, 66, 64
2, 22524, Note_on_c, 0, 73, 63
2, 22525, Note_on_c, 0, 70, 63
2, 22544, Note_off_c, 0, 75, 64
2, 22552, Note_off_c, 0, 72, 64
2, 22597, Note_on_c, 0, 72, 53
2, 22600, Note_on_c, 0, 75, 49
2, 22605, Note_on_c, 0, 66, 35
2, 22608, Note_on_c, 0, 56, 52
2, 22610, Note_on_c, 0, 63, 38
2, 22611, Control_c, 0, 64, 0
2, 22612, Note_off_c, 0, 73, 64
2, 22614, Note_off_c, 0, 70, 64
2, 22623, Control_c, 0, 64, 0
2, 22656, Control_c, 0, 64, 127
2, 22663, Note_off_c, 0, 66, 64
2, 22666, Note_off_c, 0, 56, 64
2, 22668, Note_off_c, 0, 63, 64
2, 22668, Control_c, 0, 64, 127
2, 22785, Note_off_c, 0, 72, 64
2, 22788, Note_off_c, 0, 75, 64
2, 22789, Note_on_c, 0, 64, 46
2, 22791, Note_on_c, 0, 76, 54
2, 22791, Note_on_c, 0, 73, 61
2, 22796, Note_on_c, 0, 61, 46
2, 22847, Note_off_c, 0, 64, 64
2, 22854, Note_off_c, 0, 61, 64
2, 22871, Note_off_c, 0, 73, 64
2, 22887, Note_off_c, 0, 76, 64
2, 22898, Note_on_c, 0, 75, 54
2, 22924, Note_on_c, 0, 76, 41
2, 22934, Note_off_c, 0, 75, 64
2, 22963, Note_on_c, 0, 75, 64
2, 22966, Note_on_c, 0, 72, 53
2, 22970, Note_on_c, 0, 56, 53
2, 22973, Note_on_c, 0, 63, 64
2, 22974, Control_c, 0, 64, 0
2, 22979, Note_off_c, 0, 76, 64
2, 22981, Note_on_c, 0, 66, 42
2, 22986, Control_c, 0, 64, 0
2, 22989, Control_c, 0, 64, 127
2, 23001, Control_c, 0, 64, 127
2, 23028, Note_off_c, 0, 56, 64
2, 23031, Note_off_c, 0, 63, 64
2, 23039, Note_off_c, 0, 66, 64
2, 23045, Note_off_c, 0, 72, 64
2, 23056, Note_on_c, 0, 73, 63
2, 23061, Note_on_c, 0, 70, 61
2, 23074, Note_off_c, 0, 75, 64
2, 23137, Note_on_c, 0, 75, 56
2, 23141, Note_on_c, 0, 72, 56
2, 23141, Note_on_c, 0, 66, 35
2, 23141, Note_on_c, 0, 63, 49
2, 23143, Note_on_c, 0, 56, 52
2, 23146, Note_off_c, 0, 70, 64
2, 23152, Control_c, 0, 64, 0
2, 23153, Note_off_c, 0, 73, 64
2, 23164, Control_c, 0, 64, 0
2, 23175, Control_c, 0, 64, 127
2, 23187, Control_c, 0, 64, 127
2, 23199, Note_off_c, 0, 63, 64
2, 23199, Note_off_c, 0, 66, 64
2, 23201, Note_off_c, 0, 56, 64
2, 23350, Note_off_c, 0, 75, 64
2, 23354, Note_off_c, 0, 72, 64
2, 23356, Note_on_c, 0, 76, 47
2, 23359, Note_on_c, 0, 73, 38
2, 23359, Note_on_c, 0, 61, 42
2, 23368, Note_on_c, 0, 64, 45
2, 23373, Control_c, 0, 64, 0
2, 23385, Control_c, 0, 64, 0
2, 23406, Control_c, 0, 64, 127
2, 23417, Note_off_c, 0, 61, 64
2, 23418, Control_c, 0, 64, 127
2, 23426, Note_off_c, 0, 64, 64
2, 23593, Note_on_c, 0, 72, 45
2, 23597, Note_on_c, 0, 56, 32
2, 23598, Note_off_c, 0, 76, 64
2, 23601, Note_off_c, 0, 73, 64
2, 23601, Note_on_c, 0, 75, 50
2, 23601, Note_on_c, 0, 63, 38
2, 23625, Control_c, 0, 64, 0
2, 23637, Control_c, 0, 64, 0
2, 23659, Control_c, 0, 64, 127
2, 23671, Control_c, 0, 64, 127
2, 23860, Note_on_c, 0, 80, 56
2, 23866, Note_on_c, 0, 68, 52
2, 23868, Control_c, 0, 64, 0
2, 23871, Note_off_c, 0, 75, 64
2, 23880, Control_c, 0, 64, 0
2, 23887, Note_off_c, 0, 63, 64
2, 23887, Note_off_c, 0, 72, 64
2, 23896, Control_c, 0, 64, 127
2, 23908, Control_c, 0, 64, 127
2, 23911, Note_off_c, 0, 56, 64
2, 24162, Note_off_c, 0, 80, 64
2, 24168, Note_off_c, 0, 68, 64
2, 24360, Note_on_c, 0, 68, 31
2, 24362, Note_on_c, 0, 80, 35
2, 24469, Note_off_c, 0, 68, 64
2, 24488, Note_off_c, 0, 80, 64
2, 24686, Note_on_c, 0, 80, 45
2, 24688, Note_on_c, 0, 68, 31
2, 24898, Note_off_c, 0, 80, 64
2, 24900, Note_off_c, 0, 68, 64
2, 25191, Note_on_c, 0, 44, 31
2, 25195, Note_on_c, 0, 78, 47
2, 25199, Control_c, 0, 64, 0
2, 25211, Control_c, 0, 64, 127
2, 25211, Control_c, 0, 64, 0
2, 25223, Control_c, 0, 64, 127
2, 25381, Note_on_c, 0, 55, 17
2, 25429, Note_on_c, 0, 60, 38
2, 25429, Note_on_c, 0, 56, 23
2, 25434, Note_on_c, 0, 66, 31
2, 25440, Note_off_c, 0, 55, 64
2, 25471, Note_off_c, 0, 44, 64
2, 25618, Note_off_c, 0, 56, 64
2, 25618, Note_off_c, 0, 60, 64
2, 25621, Note_on_c, 0, 44, 38
2, 25623, Note_off_c, 0, 66, 64
2, 25629, Note_on_c, 0, 76, 52
2, 25648, Control_c, 0, 64, 0
2, 25652, Note_off_c, 0, 78, 64
2, 25660, Control_c, 0, 64, 0
2, 25672, Control_c, 0, 64, 127
2, 25684, Control_c, 0, 64, 127
2, 25713, Note_on_c, 0, 75, 42
2, 25720, Note_off_c, 0, 76, 64
2, 25782, Note_off_c, 0, 44, 64
2, 25809, Note_on_c, 0, 49, 31
2, 25815, Note_on_c, 0, 76, 52
2, 25817, Control_c, 0, 64, 0
2, 25829, Control_c, 0, 64, 0
2, 25830, Control_c, 0, 64, 127
2, 25831, Note_off_c, 0, 75, 64
2, 25842, Control_c, 0, 64, 127
2, 25863, Note_off_c, 0, 76, 64
2, 25943, Note_on_c, 0, 55, 31
2, 25957, Note_on_c, 0, 76, 49
2, 25989, Note_on_c, 0, 56, 12
2, 25994, Note_on_c, 0, 73, 60
2, 25997, Note_on_c, 0, 64, 26
2, 25997, Note_on_c, 0, 61, 26
2, 26002, Note_off_c, 0, 55, 64
2, 26016, Note_off_c, 0, 76, 64
2, 26017, Control_c, 0, 64, 0
2, 26029, Control_c, 0, 64, 0
2, 26030, Control_c, 0, 64, 127
2, 26042, Control_c, 0, 64, 127
2, 26089, Note_off_c, 0, 49, 64
2, 26178, Note_off_c, 0, 56, 64
2, 26186, Note_off_c, 0, 61, 64
2, 26186, Note_off_c, 0, 64, 64
2, 26198, Note_on_c, 0, 80, 58
2, 26200, Control_c, 0, 64, 0
2, 26204, Note_on_c, 0, 49, 26
2, 26212, Control_c, 0, 64, 0
2, 26221, Note_off_c, 0, 73, 64
2, 26236, Control_c, 0, 64, 127
2, 26248, Control_c, 0, 64, 127
2, 26363, Note_off_c, 0, 49, 64
2, 26387, Note_on_c, 0, 44, 34
2, 26393, Note_on_c, 0, 78, 53
2, 26396, Control_c, 0, 64, 0
2, 26402, Note_off_c, 0, 80, 64
2, 26407, Control_c, 0, 64, 127
2, 26408, Control_c, 0, 64, 0
2, 26419, Control_c, 0, 64, 127
2, 26524, Note_on_c, 0, 55, 31
2, 26565, Note_on_c, 0, 66, 36
2, 26565, Note_on_c, 0, 60, 30
2, 26566, Control_c, 0, 64, 0
2, 26568, Note_on_c, 0, 56, 24
2, 26578, Control_c, 0, 64, 0
2, 26583, Note_off_c, 0, 55, 64
2, 26603, Control_c, 0, 64, 127
2, 26615, Control_c, 0, 64, 127
2, 26659, Note_off_c, 0, 44, 64
2, 26754, Note_off_c, 0, 60, 64
2, 26754, Note_off_c, 0, 66, 64
2, 26757, Note_off_c, 0, 56, 64
2, 26775, Note_on_c, 0, 44, 27
2, 26779, Note_on_c, 0, 76, 53
2, 26796, Note_off_c, 0, 78, 64
2, 26860, Note_on_c, 0, 75, 43
2, 26877, Note_off_c, 0, 76, 64
2, 26925, Note_off_c, 0, 44, 64
2, 26943, Control_c, 0, 64, 0
2, 26945, Note_on_c, 0, 76, 46
2, 26951, Note_off_c, 0, 75, 64
2, 26952, Note_on_c, 0, 49, 36
2, 26955, Control_c, 0, 64, 0
2, 26971, Control_c, 0, 64, 127
2, 26983, Control_c, 0, 64, 127
2, 26992, Note_off_c, 0, 76, 64
2, 27073, Note_on_c, 0, 55, 38
2, 27076, Note_on_c, 0, 76, 49
2, 27117, Note_on_c, 0, 56, 17
2, 27122, Note_on_c, 0, 64, 34
2, 27122, Note_on_c, 0, 61, 31
2, 27124, Control_c, 0, 64, 0
2, 27128, Note_on_c, 0, 73, 52
2, 27131, Note_off_c, 0, 55, 64
2, 27136, Control_c, 0, 64, 0
2, 27142, Note_off_c, 0, 76, 64
2, 27160, Control_c, 0, 64, 127
2, 27172, Control_c, 0, 64, 127
2, 27227, Note_off_c, 0, 49, 64
2, 27306, Note_off_c, 0, 56, 64
2, 27311, Note_off_c, 0, 61, 64
2, 27311, Note_off_c, 0, 64, 64
2, 27312, Note_on_c, 0, 68, 41
2, 27322, Control_c, 0, 64, 0
2, 27327, Note_off_c, 0, 73, 64
2, 27327, Note_on_c, 0, 49, 20
2, 27334, Control_c, 0, 64, 0
2, 27365, Control_c, 0, 64, 127
2, 27377, Control_c, 0, 64, 127
2, 27451, Note_off_c, 0, 49, 64
2, 27485, Control_c, 0, 64, 0
2, 27488, Note_on_c, 0, 78, 49
2, 27489, Note_on_c, 0, 44, 36
2, 27497, Control_c, 0, 64, 0
2, 27509, Control_c, 0, 64, 127
2, 27518, Note_off_c, 0, 68, 64
2, 27521, Control_c, 0, 64, 127
2, 27622, Note_on_c, 0, 55, 23
2, 27656, Note_on_c, 0, 56, 21
2, 27657, Note_on_c, 0, 66, 30
2, 27657, Note_on_c, 0, 60, 23
2, 27682, Note_off_c, 0, 55, 64
2, 27772, Note_off_c, 0, 44, 64
2, 27845, Note_off_c, 0, 56, 64
2, 27846, Note_off_c, 0, 60, 64
2, 27846, Note_off_c, 0, 66, 64
2, 27867, Note_on_c, 0, 44, 32
2, 27869, Note_on_c, 0, 76, 50
2, 27874, Control_c, 0, 64, 0
2, 27886, Control_c, 0, 64, 0
2, 27903, Note_off_c, 0, 78, 64
2, 27908, Control_c, 0, 64, 127
2, 27920, Control_c, 0, 64, 127
2, 27951, Note_on_c, 0, 75, 52
2, 27961, Note_off_c, 0, 76, 64
2, 28033, Note_off_c, 0, 44, 64
2, 28042, Control_c, 0, 64, 0
2, 28042, Note_on_c, 0, 49, 38
2, 28044, Note_on_c, 0, 76, 53
2, 28054, Control_c, 0, 64, 0
2, 28055, Control_c, 0, 64, 127
2, 28060, Note_off_c, 0, 75, 64
2, 28067, Control_c, 0, 64, 127
2, 28097, Note_off_c, 0, 76, 64
2, 28169, Note_on_c, 0, 76, 36
2, 28169, Note_on_c, 0, 55, 38
2, 28211, Note_on_c, 0, 73, 63
2, 28213, Note_on_c, 0, 61, 26
2, 28213, Note_on_c, 0, 56, 16
2, 28216, Note_on_c, 0, 64, 32
2, 28225, Note_off_c, 0, 55, 64
2, 28238, Note_off_c, 0, 76, 64
2, 28329, Note_off_c, 0, 49, 64
2, 28377, Note_on_c, 0, 80, 57
2, 28389, Note_on_c, 0, 49, 31
2, 28402, Note_off_c, 0, 56, 64
2, 28402, Note_off_c, 0, 61, 64
2, 28405, Note_off_c, 0, 64, 64
2, 28410, Note_off_c, 0, 73, 64
2, 28517, Note_on_c, 0, 68, 69
2, 28534, Note_off_c, 0, 68, 64
2, 28535, Note_off_c, 0, 80, 64
2, 28547, Note_off_c, 0, 49, 64
2, 28548, Note_on_c, 0, 32, 57
2, 28558, Note_on_c, 0, 68, 76
2, 28561, Control_c, 0, 64, 0
2, 28573, Control_c, 0, 64, 0
2, 28583, Control_c, 0, 64, 127
2, 28595, Control_c, 0, 64, 127
2, 28606, Note_off_c, 0, 68, 64
2, 28606, Note_on_c, 0, 70, 84
2, 28647, Note_off_c, 0, 70, 64
2, 28651, Note_on_c, 0, 68, 71
2, 28677, Note_off_c, 0, 68, 64
2, 28677, Note_on_c, 0, 70, 76
2, 28680, Note_on_c, 0, 50, 84
2, 28715, Note_on_c, 0, 68, 69
2, 28719, Note_off_c, 0, 70, 64
2, 28747, Control_c, 0, 64, 0
2, 28747, Note_on_c, 0, 70, 76
2, 28753, Note_off_c, 0, 68, 64
2, 28759, Control_c, 0, 64, 0
2, 28761, Note_on_c, 0, 51, 89
2, 28763, Note_on_c, 0, 56, 46
2, 28766, Control_c, 0, 64, 127
2, 28768, Note_on_c, 0, 59, 54
2, 28778, Control_c, 0, 64, 127
2, 28780, Note_off_c, 0, 50, 64
2, 28791, Note_off_c, 0, 70, 64
2, 28791, Note_on_c, 0, 68, 69
2, 28820, Note_off_c, 0, 68, 64
2, 28834, Note_on_c, 0, 70, 73
2, 28866, Note_off_c, 0, 70, 64
2, 28870, Note_on_c, 0, 68, 71
2, 28888, Note_off_c, 0, 32, 64
2, 28905, Note_on_c, 0, 70, 73
2, 28912, Note_off_c, 0, 68, 64
2, 28928, Note_on_c, 0, 44, 69
2, 28950, Note_off_c, 0, 51, 64
2, 28950, Note_on_c, 0, 68, 71
2, 28951, Note_off_c, 0, 70, 64
2, 28952, Note_off_c, 0, 56, 64
2, 28957, Note_off_c, 0, 59, 64
2, 28984, Note_off_c, 0, 68, 64
2, 28988, Note_on_c, 0, 70, 73
2, 29027, Note_off_c, 0, 70, 64
2, 29032, Note_on_c, 0, 68, 73
2, 29062, Note_off_c, 0, 68, 64
2, 29066, Note_on_c, 0, 70, 69
2, 29071, Note_off_c, 0, 44, 64
2, 29088, Note_on_c, 0, 32, 80
2, 29100, Note_off_c, 0, 70, 64
2, 29101, Control_c, 0, 64, 0
2, 29101, Note_on_c, 0, 68, 69
2, 29113, Control_c, 0, 64, 0
2, 29118, Control_c, 0, 64, 127
2, 29130, Control_c, 0, 64, 127
2, 29138, Note_off_c, 0, 68, 64
2, 29146, Note_on_c, 0, 70, 73
2, 29160, Note_on_c, 0, 50, 79
2, 29184, Note_off_c, 0, 70, 64
2, 29186, Note_on_c, 0, 68, 73
2, 29221, Note_on_c, 0, 70, 71
2, 29223, Note_off_c, 0, 68, 64
2, 29239, Note_on_c, 0, 51, 68
2, 29241, Note_on_c, 0, 59, 57
2, 29241, Note_on_c, 0, 56, 47
2, 29260, Note_off_c, 0, 50, 64
2, 29266, Note_off_c, 0, 70, 64
2, 29266, Note_on_c, 0, 68, 71
2, 29272, Control_c, 0, 64, 0
2, 29284, Control_c, 0, 64, 0
2, 29293, Control_c, 0, 64, 127
2, 29296, Note_on_c, 0, 70, 75
2, 29303, Note_off_c, 0, 68, 64
2, 29305, Control_c, 0, 64, 127
2, 29332, Note_off_c, 0, 70, 64
2, 29341, Note_on_c, 0, 68, 73
2, 29364, Note_off_c, 0, 32, 64
2, 29373, Note_on_c, 0, 70, 71
2, 29376, Note_off_c, 0, 68, 64
2, 29394, Note_off_c, 0, 70, 64
2, 29413, Note_on_c, 0, 68, 58
2, 29428, Note_off_c, 0, 51, 64
2, 29430, Note_off_c, 0, 56, 64
2, 29430, Note_off_c, 0, 59, 64
2, 29433, Note_on_c, 0, 70, 63
2, 29435, Note_on_c, 0, 44, 68
2, 29439, Note_off_c, 0, 68, 64
2, 29472, Note_on_c, 0, 68, 69
2, 29485, Note_off_c, 0, 70, 64
2, 29512, Note_off_c, 0, 68, 64
2, 29517, Note_on_c, 0, 67, 74
2, 29578, Note_off_c, 0, 44, 64
2, 29587, Note_on_c, 0, 68, 54
2, 29599, Note_off_c, 0, 67, 64
2, 29655, Note_on_c, 0, 39, 39
2, 29659, Control_c, 0, 64, 0
2, 29661, Note_on_c, 0, 73, 56
2, 29671, Control_c, 0, 64, 0
2, 29681, Note_off_c, 0, 68, 64
2, 29696, Control_c, 0, 64, 127
2, 29708, Control_c, 0, 64, 127
2, 29809, Note_on_c, 0, 50, 23
2, 29843, Note_on_c, 0, 51, 31
2, 29849, Note_on_c, 0, 61, 43
2, 29853, Note_on_c, 0, 55, 32
2, 29868, Note_off_c, 0, 50, 64
2, 29934, Note_off_c, 0, 39, 64
2, 30032, Note_off_c, 0, 51, 64
2, 30037, Note_on_c, 0, 39, 38
2, 30038, Note_off_c, 0, 61, 64
2, 30041, Note_on_c, 0, 71, 58
2, 30042, Note_off_c, 0, 55, 64
2, 30062, Note_off_c, 0, 73, 64
2, 30117, Note_on_c, 0, 70, 63
2, 30139, Note_off_c, 0, 71, 64
2, 30195, Note_off_c, 0, 39, 64
2, 30203, Control_c, 0, 64, 0
2, 30207, Note_on_c, 0, 44, 39
2, 30211, Note_on_c, 0, 71, 50
2, 30215, Control_c, 0, 64, 0
2, 30227, Note_off_c, 0, 70, 64
2, 30240, Control_c, 0, 64, 127
2, 30252, Control_c, 0, 64, 127
2, 30258, Note_off_c, 0, 71, 64
2, 30326, Note_on_c, 0, 50, 35
2, 30334, Note_on_c, 0, 71, 49
2, 30369, Note_on_c, 0, 51, 16
2, 30373, Note_on_c, 0, 68, 61
2, 30373, Note_on_c, 0, 59, 34
2, 30377, Note_on_c, 0, 56, 17
2, 30384, Note_off_c, 0, 50, 64
2, 30384, Control_c, 0, 64, 0
2, 30396, Control_c, 0, 64, 0
2, 30401, Note_off_c, 0, 71, 64
2, 30410, Control_c, 0, 64, 127
2, 30422, Control_c, 0, 64, 127
2, 30489, Note_off_c, 0, 44, 64
2, 30558, Note_off_c, 0, 51, 64
2, 30562, Note_off_c, 0, 59, 64
2, 30566, Note_off_c, 0, 56, 64
2, 30568, Note_on_c, 0, 75, 56
2, 30578, Note_on_c, 0, 44, 36
2, 30615, Note_off_c, 0, 68, 64
2, 30723, Note_off_c, 0, 44, 64
2, 30739, Note_on_c, 0, 39, 41
2, 30746, Control_c, 0, 64, 0
2, 30750, Note_on_c, 0, 73, 57
2, 30758, Control_c, 0, 64, 0
2, 30781, Note_off_c, 0, 75, 64
2, 30782, Control_c, 0, 64, 127
2, 30794, Control_c, 0, 64, 127
2, 30874, Note_on_c, 0, 50, 34
2, 30913, Note_on_c, 0, 55, 20
2, 30913, Note_on_c, 0, 51, 34
2, 30917, Note_on_c, 0, 61, 43
2, 30929, Note_off_c, 0, 50, 64
2, 31018, Note_off_c, 0, 39, 64
2, 31102, Note_off_c, 0, 51, 64
2, 31102, Note_off_c, 0, 55, 64
2, 31105, Note_on_c, 0, 71, 56
2, 31105, Note_on_c, 0, 39, 35
2, 31106, Note_off_c, 0, 61, 64
2, 31109, Control_c, 0, 64, 0
2, 31121, Control_c, 0, 64, 0
2, 31123, Note_off_c, 0, 73, 64
2, 31143, Control_c, 0, 64, 127
2, 31155, Control_c, 0, 64, 127
2, 31174, Note_on_c, 0, 70, 52
2, 31182, Note_off_c, 0, 71, 64
2, 31258, Note_off_c, 0, 39, 64
2, 31264, Note_on_c, 0, 44, 36
2, 31272, Note_on_c, 0, 71, 46
2, 31279, Note_off_c, 0, 70, 64
2, 31314, Note_off_c, 0, 71, 64
2, 31378, Note_on_c, 0, 50, 38
2, 31398, Note_on_c, 0, 71, 49
2, 31429, Note_on_c, 0, 68, 63
2, 31433, Note_on_c, 0, 59, 31
2, 31433, Note_on_c, 0, 51, 20
2, 31435, Note_on_c, 0, 56, 24
2, 31438, Note_off_c, 0, 50, 64
2, 31446, Control_c, 0, 64, 0
2, 31452, Note_off_c, 0, 71, 64
2, 31458, Control_c, 0, 64, 0
2, 31476, Control_c, 0, 64, 127
2, 31488, Control_c, 0, 64, 127
2, 31544, Note_off_c, 0, 44, 64
2, 31622, Note_off_c, 0, 51, 64
2, 31622, Note_off_c, 0, 59, 64
2, 31624, Note_off_c, 0, 56, 64
2, 31633, Note_on_c, 0, 63, 34
2, 31640, Note_off_c, 0, 68, 64
2, 31640, Note_on_c, 0, 44, 26
2, 31645, Control_c, 0, 64, 0
2, 31657, Control_c, 0, 64, 0
2, 31691, Control_c, 0, 64, 127
2, 31703, Control_c, 0, 64, 127
2, 31792, Note_off_c, 0, 44, 64
2, 31815, Note_on_c, 0, 39, 36
2, 31817, Note_on_c, 0, 73, 58
2, 31820, Control_c, 0, 64, 0
2, 31832, Control_c, 0, 64, 0
2, 31843, Control_c, 0, 64, 127
2, 31855, Control_c, 0, 64, 127
2, 31862, Note_off_c, 0, 63, 64
2, 31946, Note_on_c, 0, 50, 31
2, 31981, Note_on_c, 0, 61, 36
2, 31981, Note_on_c, 0, 55, 30
2, 31983, Note_on_c, 0, 51, 26
2, 32006, Note_off_c, 0, 50, 64
2, 32095, Note_off_c, 0, 39, 64
2, 32170, Note_off_c, 0, 55, 64
2, 32170, Note_off_c, 0, 61, 64
2, 32172, Note_off_c, 0, 51, 64
2, 32185, Note_on_c, 0, 71, 56
2, 32185, Note_on_c, 0, 39, 38
2, 32189, Control_c, 0, 64, 0
2, 32196, Note_off_c, 0, 73, 64
2, 32201, Control_c, 0, 64, 0
2, 32220, Control_c, 0, 64, 127
2, 32232, Control_c, 0, 64, 127
2, 32257, Note_on_c, 0, 70, 61
2, 32271, Note_off_c, 0, 71, 64
2, 32329, Note_off_c, 0, 39, 64
2, 32338, Note_on_c, 0, 44, 38
2, 32353, Note_on_c, 0, 71, 50
2, 32378, Note_off_c, 0, 70, 64
2, 32403, Note_off_c, 0, 71, 64
2, 32459, Note_on_c, 0, 50, 36
2, 32479, Note_on_c, 0, 71, 53
2, 32509, Note_on_c, 0, 56, 31
2, 32513, Note_on_c, 0, 68, 61
2, 32513, Note_on_c, 0, 51, 17
2, 32516, Control_c, 0, 64, 0
2, 32516, Note_on_c, 0, 59, 30
2, 32518, Note_off_c, 0, 50, 64
2, 32526, Note_off_c, 0, 71, 64
2, 32528, Control_c, 0, 64, 0
2, 32551, Control_c, 0, 64, 127
2, 32563, Note_off_c, 0, 56, 64
2, 32563, Control_c, 0, 64, 127
2, 32569, Note_off_c, 0, 51, 64
2, 32572, Note_off_c, 0, 59, 64
2, 32620, Note_off_c, 0, 44, 64
2, 32695, Note_on_c, 0, 75, 53
2, 32700, Note_on_c, 0, 63, 46
2, 32703, Control_c, 0, 64, 0
2, 32715, Note_off_c, 0, 68, 64
2, 32715, Control_c, 0, 64, 0
2, 32739, Control_c, 0, 64, 127
2, 32751, Control_c, 0, 64, 127
2, 32866, Note_off_c, 0, 75, 64
2, 32870, Note_off_c, 0, 63, 64
2, 32870, Note_on_c, 0, 59, 53
2, 32875, Note_on_c, 0, 71, 53
2, 32927, Note_off_c, 0, 71, 64
2, 32928, Note_off_c, 0, 59, 64
2, 32997, Note_on_c, 0, 71, 49
2, 33003, Note_on_c, 0, 59, 46
2, 33035, Note_on_c, 0, 68, 58
2, 33042, Note_on_c, 0, 56, 53
2, 33048, Note_off_c, 0, 59, 64
2, 33049, Note_off_c, 0, 71, 64
2, 33049, Control_c, 0, 64, 0
2, 33061, Control_c, 0, 64, 0
2, 33095, Control_c, 0, 64, 127
2, 33107, Control_c, 0, 64, 127
2, 33207, Note_off_c, 0, 56, 64
2, 33217, Note_on_c, 0, 75, 53
2, 33217, Note_on_c, 0, 63, 49
2, 33237, Note_off_c, 0, 68, 64
2, 33396, Note_on_c, 0, 66, 36
2, 33399, Note_on_c, 0, 78, 49
2, 33406, Note_off_c, 0, 63, 64
2, 33406, Note_off_c, 0, 75, 64
2, 33413, Control_c, 0, 64, 0
2, 33425, Control_c, 0, 64, 0
2, 33446, Control_c, 0, 64, 127
2, 33458, Control_c, 0, 64, 127
2, 33533, Note_on_c, 0, 80, 46
2, 33539, Note_on_c, 0, 68, 34
2, 33540, Note_off_c, 0, 66, 64
2, 33543, Note_off_c, 0, 78, 64
2, 33585, Note_on_c, 0, 78, 60
2, 33589, Note_on_c, 0, 66, 27
2, 33590, Control_c, 0, 64, 0
2, 33600, Note_off_c, 0, 80, 64
2, 33602, Control_c, 0, 64, 0
2, 33609, Note_off_c, 0, 68, 64
2, 33642, Control_c, 0, 64, 127
2, 33654, Control_c, 0, 64, 127
2, 33746, Note_off_c, 0, 78, 64
2, 33750, Note_off_c, 0, 66, 64
2, 33751, Note_on_c, 0, 80, 38
2, 33805, Note_on_c, 0, 78, 60
2, 33818, Note_off_c, 0, 80, 64
2, 34029, Note_on_c, 0, 80, 42
2, 34032, Note_off_c, 0, 78, 64
2, 34092, Note_on_c, 0, 78, 46
2, 34097, Note_off_c, 0, 80, 64
2, 34104, Note_on_c, 0, 44, 35
2, 34105, Control_c, 0, 64, 0
2, 34117, Control_c, 0, 64, 0
2, 34140, Control_c, 0, 64, 127
2, 34152, Control_c, 0, 64, 127
2, 34258, Note_on_c, 0, 55, 31
2, 34301, Note_on_c, 0, 66, 31
2, 34301, Note_on_c, 0, 60, 38
2, 34302, Note_on_c, 0, 56, 31
2, 34325, Note_off_c, 0, 55, 64
2, 34384, Note_off_c, 0, 44, 64
2, 34490, Note_off_c, 0, 60, 64
2, 34490, Note_off_c, 0, 66, 64
2, 34491, Note_off_c, 0, 56, 64
2, 34492, Note_on_c, 0, 44, 34
2, 34496, Note_on_c, 0, 76, 53
2, 34506, Note_off_c, 0, 78, 64
2, 34574, Note_on_c, 0, 75, 43
2, 34590, Note_off_c, 0, 76, 64
2, 34645, Note_off_c, 0, 44, 64
2, 34659, Note_on_c, 0, 76, 53
2, 34662, Control_c, 0, 64, 0
2, 34665, Note_on_c, 0, 49, 34
2, 34668, Note_off_c, 0, 75, 64
2, 34674, Control_c, 0, 64, 0
2, 34693, Control_c, 0, 64, 127
2, 34705, Control_c, 0, 64, 127
2, 34713, Note_off_c, 0, 76, 64
2, 34786, Note_on_c, 0, 76, 46
2, 34793, Note_on_c, 0, 55, 20
2, 34833, Control_c, 0, 64, 0
2, 34833, Note_on_c, 0, 56, 25
2, 34834, Note_on_c, 0, 73, 54
2, 34837, Note_on_c, 0, 61, 18
2, 34839, Note_on_c, 0, 64, 35
2, 34845, Control_c, 0, 64, 0
2, 34852, Note_off_c, 0, 55, 64
2, 34855, Note_off_c, 0, 76, 64
2, 34869, Control_c, 0, 64, 127
2, 34881, Control_c, 0, 64, 127
2, 34945, Note_off_c, 0, 49, 64
2, 35021, Note_on_c, 0, 80, 53
2, 35022, Note_off_c, 0, 56, 64
2, 35026, Note_off_c, 0, 61, 64
2, 35028, Note_off_c, 0, 64, 64
2, 35028, Note_on_c, 0, 49, 26
2, 35036, Note_off_c, 0, 73, 64
2, 35161, Control_c, 0, 64, 0
2, 35173, Control_c, 0, 64, 0
2, 35175, Note_off_c, 0, 49, 64
2, 35186, Note_on_c, 0, 44, 38
2, 35189, Note_on_c, 0, 78, 56
2, 35211, Control_c, 0, 64, 127
2, 35223, Control_c, 0, 64, 127
2, 35314, Note_on_c, 0, 55, 32
2, 35349, Note_on_c, 0, 66, 43
2, 35349, Note_on_c, 0, 60, 38
2, 35350, Control_c, 0, 64, 0
2, 35352, Note_on_c, 0, 56, 20
2, 35362, Control_c, 0, 64, 0
2, 35367, Control_c, 0, 64, 127
2, 35375, Note_off_c, 0, 55, 64
2, 35379, Control_c, 0, 64, 127
2, 35467, Note_off_c, 0, 44, 64
2, 35529, Note_on_c, 0, 44, 36
2, 35533, Control_c, 0, 64, 0
2, 35537, Note_on_c, 0, 76, 52
2, 35538, Note_off_c, 0, 60, 64
2, 35538, Note_off_c, 0, 66, 64
2, 35541, Note_off_c, 0, 56, 64
2, 35545, Control_c, 0, 64, 0
2, 35548, Control_c, 0, 64, 127
2, 35560, Control_c, 0, 64, 127
2, 35563, Note_off_c, 0, 78, 64
2, 35617, Note_on_c, 0, 75, 45
2, 35631, Note_off_c, 0, 76, 64
2, 35689, Note_off_c, 0, 44, 64
2, 35694, Control_c, 0, 64, 0
2, 35697, Note_on_c, 0, 49, 36
2, 35705, Note_on_c, 0, 76, 56
2, 35706, Control_c, 0, 64, 0
2, 35714, Note_off_c, 0, 75, 64
2, 35728, Control_c, 0, 64, 127
2, 35740, Control_c, 0, 64, 127
2, 35755, Note_off_c, 0, 76, 64
2, 35824, Note_on_c, 0, 76, 50
2, 35824, Note_on_c, 0, 55, 17
2, 35861, Note_on_c, 0, 64, 36
2, 35861, Note_on_c, 0, 61, 31
2, 35861, Note_on_c, 0, 56, 34
2, 35863, Control_c, 0, 64, 0
2, 35867, Note_on_c, 0, 73, 54
2, 35875, Control_c, 0, 64, 0
2, 35883, Note_off_c, 0, 55, 64
2, 35883, Note_off_c, 0, 76, 64
2, 35903, Control_c, 0, 64, 127
2, 35915, Control_c, 0, 64, 127
2, 35977, Note_off_c, 0, 49, 64
2, 36019, Note_off_c, 0, 80, 64
2, 36050, Note_off_c, 0, 56, 64
2, 36050, Note_off_c, 0, 61, 64
2, 36050, Note_off_c, 0, 64, 64
2, 36053, Control_c, 0, 64, 0
2, 36056, Note_on_c, 0, 49, 38
2, 36058, Note_on_c, 0, 68, 60
2, 36065, Control_c, 0, 64, 0
2, 36073, Note_off_c, 0, 73, 64
2, 36086, Control_c, 0, 64, 127
2, 36098, Control_c, 0, 64, 127
2, 36237, Control_c, 0, 64, 0
2, 36238, Note_on_c, 0, 78, 63
2, 36241, Note_off_c, 0, 49, 64
2, 36242, Note_on_c, 0, 44, 41
2, 36249, Control_c, 0, 64, 0
2, 36281, Control_c, 0, 64, 127
2, 36293, Control_c, 0, 64, 127
2, 36368, Note_on_c, 0, 55, 32
2, 36397, Note_on_c, 0, 60, 34
2, 36398, Note_on_c, 0, 56, 26
2, 36400, Control_c, 0, 64, 0
2, 36401, Note_on_c, 0, 66, 43
2, 36412, Control_c, 0, 64, 0
2, 36418, Control_c, 0, 64, 127
2, 36423, Note_off_c, 0, 55, 64
2, 36430, Control_c, 0, 64, 127
2, 36522, Note_off_c, 0, 44, 64
2, 36586, Note_off_c, 0, 60, 64
2, 36587, Note_off_c, 0, 56, 64
2, 36590, Note_off_c, 0, 66, 64
2, 36597, Note_on_c, 0, 44, 36
2, 36601, Note_on_c, 0, 76, 58
2, 36602, Control_c, 0, 64, 0
2, 36614, Control_c, 0, 64, 0
2, 36619, Note_off_c, 0, 78, 64
2, 36625, Control_c, 0, 64, 127
2, 36637, Control_c, 0, 64, 127
2, 36672, Note_on_c, 0, 75, 49
2, 36681, Note_off_c, 0, 76, 64
2, 36740, Note_off_c, 0, 44, 64
2, 36746, Control_c, 0, 64, 0
2, 36753, Note_on_c, 0, 49, 36
2, 36758, Control_c, 0, 64, 0
2, 36766, Note_on_c, 0, 76, 56
2, 36777, Note_off_c, 0, 75, 64
2, 36784, Control_c, 0, 64, 127
2, 36796, Control_c, 0, 64, 127
2, 36817, Note_off_c, 0, 76, 64
2, 36872, Note_on_c, 0, 76, 47
2, 36889, Note_on_c, 0, 55, 32
2, 36921, Note_on_c, 0, 61, 26
2, 36925, Note_on_c, 0, 56, 1
2, 36926, Note_on_c, 0, 64, 31
2, 36928, Note_on_c, 0, 73, 64
2, 36936, Note_off_c, 0, 55, 64
2, 36957, Note_off_c, 0, 76, 64
2, 36983, Note_off_c, 0, 68, 64
2, 37034, Note_off_c, 0, 49, 64
2, 37078, Note_on_c, 0, 80, 58
2, 37091, Note_off_c, 0, 73, 64
2, 37091, Note_on_c, 0, 49, 36
2, 37110, Note_off_c, 0, 61, 64
2, 37114, Note_off_c, 0, 56, 64
2, 37115, Note_off_c, 0, 64, 64
2, 37184, Note_on_c, 0, 68, 86
2, 37196, Note_off_c, 0, 80, 64
2, 37213, Note_off_c, 0, 68, 64
2, 37236, Note_off_c, 0, 49, 64
2, 37249, Note_on_c, 0, 68, 78
2, 37261, Note_on_c, 0, 44, 86
2, 37279, Control_c, 0, 64, 0
2, 37285, Note_on_c, 0, 70, 90
2, 37288, Note_off_c, 0, 68, 64
2, 37291, Control_c, 0, 64, 0
2, 37294, Control_c, 0, 64, 127
2, 37306, Control_c, 0, 64, 127
2, 37323, Note_on_c, 0, 68, 76
2, 37326, Note_off_c, 0, 70, 64
2, 37344, Note_on_c, 0, 50, 79
2, 37353, Note_off_c, 0, 68, 64
2, 37365, Note_on_c, 0, 70, 73
2, 37392, Note_on_c, 0, 68, 73
2, 37396, Note_off_c, 0, 70, 64
2, 37421, Note_on_c, 0, 59, 64
2, 37421, Note_on_c, 0, 56, 45
2, 37423, Note_off_c, 0, 50, 64
2, 37425, Note_on_c, 0, 51, 47
2, 37427, Note_off_c, 0, 68, 64
2, 37428, Note_on_c, 0, 70, 73
2, 37463, Note_off_c, 0, 70, 64
2, 37467, Note_on_c, 0, 68, 73
2, 37500, Note_on_c, 0, 70, 75
2, 37507, Note_off_c, 0, 68, 64
2, 37539, Note_off_c, 0, 70, 64
2, 37548, Note_on_c, 0, 68, 75
2, 37551, Note_off_c, 0, 44, 64
2, 37578, Note_on_c, 0, 70, 68
2, 37586, Note_off_c, 0, 68, 64
2, 37602, Note_on_c, 0, 44, 76
2, 37610, Note_off_c, 0, 56, 64
2, 37610, Note_off_c, 0, 59, 64
2, 37614, Note_off_c, 0, 51, 64
2, 37615, Note_on_c, 0, 68, 67
2, 37618, Note_off_c, 0, 70, 64
2, 37653, Note_on_c, 0, 70, 73
2, 37658, Note_off_c, 0, 68, 64
2, 37699, Note_off_c, 0, 70, 64
2, 37702, Note_on_c, 0, 68, 69
2, 37733, Note_on_c, 0, 70, 69
2, 37737, Note_off_c, 0, 68, 64
2, 37751, Note_off_c, 0, 44, 64
2, 37765, Note_on_c, 0, 32, 84
2, 37773, Control_c, 0, 64, 0
2, 37774, Note_on_c, 0, 68, 71
2, 37777, Note_off_c, 0, 70, 64
2, 37785, Control_c, 0, 64, 0
2, 37798, Control_c, 0, 64, 127
2, 37810, Control_c, 0, 64, 127
2, 37815, Note_on_c, 0, 70, 69
2, 37824, Note_off_c, 0, 68, 64
2, 37836, Note_on_c, 0, 50, 73
2, 37855, Note_off_c, 0, 70, 64
2, 37859, Note_on_c, 0, 68, 69
2, 37890, Note_on_c, 0, 70, 73
2, 37897, Note_off_c, 0, 68, 64
2, 37915, Note_off_c, 0, 50, 64
2, 37917, Note_on_c, 0, 59, 69
2, 37917, Note_on_c, 0, 56, 46
2, 37917, Note_on_c, 0, 51, 53
2, 37932, Note_off_c, 0, 70, 64
2, 37935, Note_on_c, 0, 68, 71
2, 37964, Note_on_c, 0, 70, 76
2, 37978, Note_off_c, 0, 68, 64
2, 38005, Note_off_c, 0, 70, 64
2, 38014, Note_on_c, 0, 68, 73
2, 38049, Note_on_c, 0, 70, 73
2, 38051, Note_off_c, 0, 32, 64
2, 38055, Note_off_c, 0, 68, 64
2, 38082, Note_off_c, 0, 70, 64
2, 38092, Note_on_c, 0, 68, 73
2, 38106, Note_off_c, 0, 51, 64
2, 38106, Note_off_c, 0, 56, 64
2, 38106, Note_off_c, 0, 59, 64
2, 38116, Note_on_c, 0, 70, 80
2, 38129, Note_off_c, 0, 68, 64
2, 38138, Note_on_c, 0, 44, 60
2, 38155, Note_on_c, 0, 68, 69
2, 38172, Note_off_c, 0, 70, 64
2, 38197, Note_on_c, 0, 67, 67
2, 38203, Note_off_c, 0, 68, 64
2, 38253, Note_on_c, 0, 68, 76
2, 38277, Note_off_c, 0, 67, 64
2, 38287, Note_off_c, 0, 44, 64
2, 38327, Note_on_c, 0, 73, 64
2, 38329, Control_c, 0, 64, 0
2, 38332, Note_on_c, 0, 39, 43
2, 38341, Control_c, 0, 64, 0
2, 38349, Note_off_c, 0, 68, 64
2, 38374, Control_c, 0, 64, 127
2, 38386, Control_c, 0, 64, 127
2, 38475, Note_on_c, 0, 50, 26
2, 38505, Note_on_c, 0, 55, 34
2, 38507, Note_on_c, 0, 51, 32
2, 38509, Note_on_c, 0, 61, 45
2, 38529, Control_c, 0, 64, 0
2, 38533, Note_off_c, 0, 50, 64
2, 38541, Control_c, 0, 64, 0
2, 38554, Control_c, 0, 64, 127
2, 38566, Control_c, 0, 64, 127
2, 38613, Note_off_c, 0, 39, 64
2, 38694, Note_off_c, 0, 55, 64
2, 38696, Note_off_c, 0, 51, 64
2, 38698, Note_off_c, 0, 61, 64
2, 38707, Note_on_c, 0, 39, 41
2, 38713, Control_c, 0, 64, 0
2, 38715, Note_on_c, 0, 71, 54
2, 38723, Note_off_c, 0, 73, 64
2, 38725, Control_c, 0, 64, 0
2, 38740, Control_c, 0, 64, 127
2, 38752, Control_c, 0, 64, 127
2, 38785, Note_on_c, 0, 70, 63
2, 38798, Note_off_c, 0, 71, 64
2, 38848, Note_off_c, 0, 39, 64
2, 38879, Note_on_c, 0, 44, 38
2, 38880, Note_on_c, 0, 71, 49
2, 38885, Control_c, 0, 64, 0
2, 38891, Note_off_c, 0, 70, 64
2, 38897, Control_c, 0, 64, 0
2, 38898, Control_c, 0, 64, 127
2, 38910, Control_c, 0, 64, 127
2, 38930, Note_off_c, 0, 71, 64
2, 39017, Note_on_c, 0, 50, 27
2, 39019, Note_on_c, 0, 71, 46
2, 39055, Control_c, 0, 64, 0
2, 39057, Note_on_c, 0, 51, 26
2, 39060, Note_on_c, 0, 68, 53
2, 39061, Note_on_c, 0, 59, 34
2, 39061, Note_on_c, 0, 56, 32
2, 39067, Control_c, 0, 64, 0
2, 39075, Note_off_c, 0, 50, 64
2, 39083, Note_off_c, 0, 71, 64
2, 39084, Control_c, 0, 64, 127
2, 39096, Control_c, 0, 64, 127
2, 39159, Note_off_c, 0, 44, 64
2, 39228, Note_on_c, 0, 75, 61
2, 39240, Note_on_c, 0, 44, 38
2, 39246, Note_off_c, 0, 51, 64
2, 39250, Note_off_c, 0, 56, 64
2, 39250, Note_off_c, 0, 59, 64
2, 39270, Note_off_c, 0, 68, 64
2, 39389, Note_off_c, 0, 44, 64
2, 39405, Note_on_c, 0, 39, 41
2, 39407, Note_on_c, 0, 73, 58
2, 39424, Control_c, 0, 64, 0
2, 39436, Control_c, 0, 64, 0
2, 39448, Control_c, 0, 64, 127
2, 39460, Control_c, 0, 64, 127
2, 39513, Note_on_c, 0, 50, 31
2, 39559, Note_on_c, 0, 51, 30
2, 39565, Note_on_c, 0, 61, 42
2, 39565, Note_on_c, 0, 55, 31
2, 39571, Note_off_c, 0, 50, 64
2, 39582, Control_c, 0, 64, 0
2, 39594, Control_c, 0, 64, 0
2, 39601, Control_c, 0, 64, 127
2, 39613, Control_c, 0, 64, 127
2, 39685, Note_off_c, 0, 39, 64
2, 39748, Note_off_c, 0, 51, 64
2, 39754, Note_off_c, 0, 55, 64
2, 39754, Note_off_c, 0, 61, 64
2, 39762, Note_on_c, 0, 39, 38
2, 39764, Note_on_c, 0, 71, 53
2, 39765, Control_c, 0, 64, 0
2, 39776, Note_off_c, 0, 73, 64
2, 39777, Control_c, 0, 64, 0
2, 39799, Control_c, 0, 64, 127
2, 39811, Control_c, 0, 64, 127
2, 39849, Note_on_c, 0, 70, 63
2, 39865, Note_off_c, 0, 71, 64
2, 39912, Note_off_c, 0, 39, 64
2, 39928, Note_on_c, 0, 44, 38
2, 39930, Control_c, 0, 64, 0
2, 39937, Note_on_c, 0, 71, 52
2, 39942, Control_c, 0, 64, 127
2, 39942, Control_c, 0, 64, 0
2, 39949, Note_off_c, 0, 70, 64
2, 39954, Control_c, 0, 64, 127
2, 39984, Note_off_c, 0, 71, 64
2, 40053, Note_on_c, 0, 50, 39
2, 40059, Note_on_c, 0, 71, 46
2, 40101, Note_on_c, 0, 56, 17
2, 40105, Note_on_c, 0, 68, 63
2, 40105, Note_on_c, 0, 59, 30
2, 40105, Note_on_c, 0, 51, 21
2, 40113, Note_off_c, 0, 50, 64
2, 40114, Control_c, 0, 64, 0
2, 40126, Note_off_c, 0, 71, 64
2, 40126, Control_c, 0, 64, 0
2, 40133, Control_c, 0, 64, 127
2, 40145, Control_c, 0, 64, 127
2, 40209, Note_off_c, 0, 44, 64
2, 40290, Note_off_c, 0, 56, 64
2, 40294, Note_off_c, 0, 51, 64
2, 40294, Note_off_c, 0, 59, 64
2, 40297, Note_on_c, 0, 63, 54
2, 40301, Note_on_c, 0, 44, 35
2, 40315, Note_off_c, 0, 68, 64
2, 40323, Control_c, 0, 64, 0
2, 40335, Control_c, 0, 64, 0
2, 40339, Control_c, 0, 64, 127
2, 40351, Control_c, 0, 64, 127
2, 40398, Note_off_c, 0, 75, 64
2, 40448, Note_off_c, 0, 44, 64
2, 40494, Note_on_c, 0, 73, 54
2, 40494, Note_on_c, 0, 39, 38
2, 40506, Control_c, 0, 64, 0
2, 40518, Control_c, 0, 64, 0
2, 40536, Control_c, 0, 64, 127
2, 40548, Control_c, 0, 64, 127
2, 40641, Note_on_c, 0, 50, 30
2, 40688, Note_on_c, 0, 55, 31
2, 40688, Note_on_c, 0, 51, 26
2, 40689, Note_on_c, 0, 61, 36
2, 40699, Note_off_c, 0, 50, 64
2, 40774, Note_off_c, 0, 39, 64
2, 40877, Note_off_c, 0, 51, 64
2, 40877, Note_off_c, 0, 55, 64
2, 40878, Note_off_c, 0, 61, 64
2, 40884, Note_on_c, 0, 71, 60
2, 40884, Note_on_c, 0, 39, 38
2, 40895, Control_c, 0, 64, 0
2, 40899, Note_off_c, 0, 73, 64
2, 40907, Control_c, 0, 64, 0
2, 40917, Control_c, 0, 64, 127
2, 40929, Control_c, 0, 64, 127
2, 40955, Note_on_c, 0, 70, 60
2, 40964, Note_off_c, 0, 71, 64
2, 41033, Note_off_c, 0, 39, 64
2, 41041, Note_on_c, 0, 44, 38
2, 41048, Note_on_c, 0, 71, 57
2, 41060, Note_off_c, 0, 70, 64
2, 41107, Note_off_c, 0, 63, 64
2, 41108, Note_off_c, 0, 71, 64
2, 41176, Note_on_c, 0, 71, 52
2, 41181, Note_on_c, 0, 50, 17
2, 41229, Note_on_c, 0, 51, 32
2, 41230, Note_on_c, 0, 68, 64
2, 41232, Control_c, 0, 64, 0
2, 41233, Note_on_c, 0, 59, 34
2, 41233, Note_on_c, 0, 56, 26
2, 41240, Note_off_c, 0, 50, 64
2, 41243, Note_off_c, 0, 71, 64
2, 41244, Control_c, 0, 64, 0
2, 41257, Control_c, 0, 64, 127
2, 41269, Control_c, 0, 64, 127
2, 41322, Note_off_c, 0, 44, 64
2, 41393, Note_on_c, 0, 63, 53
2, 41399, Note_on_c, 0, 75, 60
2, 41415, Control_c, 0, 64, 0
2, 41418, Note_off_c, 0, 51, 64
2, 41422, Note_off_c, 0, 56, 64
2, 41422, Note_off_c, 0, 59, 64
2, 41427, Control_c, 0, 64, 0
2, 41436, Note_off_c, 0, 68, 64
2, 41452, Control_c, 0, 64, 127
2, 41464, Control_c, 0, 64, 127
2, 41570, Note_off_c, 0, 63, 64
2, 41576, Note_off_c, 0, 75, 64
2, 41578, Note_on_c, 0, 59, 53
2, 41584, Note_on_c, 0, 71, 52
2, 41624, Note_off_c, 0, 59, 64
2, 41629, Note_off_c, 0, 71, 64
2, 41697, Note_on_c, 0, 59, 46
2, 41703, Note_on_c, 0, 71, 38
2, 41744, Note_on_c, 0, 68, 61
2, 41745, Note_on_c, 0, 56, 41
2, 41752, Note_off_c, 0, 59, 64
2, 41758, Note_off_c, 0, 71, 64
2, 41766, Control_c, 0, 64, 0
2, 41778, Control_c, 0, 64, 0
2, 41799, Control_c, 0, 64, 127
2, 41811, Control_c, 0, 64, 127
2, 41917, Note_on_c, 0, 75, 60
2, 41924, Note_on_c, 0, 63, 42
2, 41937, Note_off_c, 0, 68, 64
2, 41938, Note_off_c, 0, 56, 64
2, 41939, Control_c, 0, 64, 0
2, 41951, Control_c, 0, 64, 0
2, 41981, Control_c, 0, 64, 127
2, 41993, Control_c, 0, 64, 127
2, 42124, Note_on_c, 0, 71, 52
2, 42130, Note_on_c, 0, 59, 52
2, 42136, Note_off_c, 0, 75, 64
2, 42143, Note_off_c, 0, 63, 64
2, 42146, Control_c, 0, 64, 0
2, 42158, Control_c, 0, 64, 0
2, 42171, Control_c, 0, 64, 127
2, 42182, Note_off_c, 0, 71, 64
2, 42183, Control_c, 0, 64, 127
2, 42196, Note_off_c, 0, 59, 64
2, 42267, Note_on_c, 0, 71, 52
2, 42278, Note_on_c, 0, 59, 52
2, 42325, Note_on_c, 0, 67, 58
2, 42327, Note_on_c, 0, 55, 49
2, 42338, Control_c, 0, 64, 0
2, 42340, Note_off_c, 0, 71, 64
2, 42347, Note_off_c, 0, 59, 64
2, 42350, Control_c, 0, 64, 0
2, 42370, Control_c, 0, 64, 127
2, 42382, Control_c, 0, 64, 127
2, 42536, Note_on_c, 0, 63, 46
2, 42537, Note_on_c, 0, 75, 61
2, 42769, Note_off_c, 0, 75, 64
2, 42769, Note_off_c, 0, 63, 64
2, 42769, Note_off_c, 0, 55, 64
2, 42797, Note_on_c, 0, 42, 49
2, 42801, Control_c, 0, 64, 0
2, 42801, Note_on_c, 0, 75, 54
2, 42813, Control_c, 0, 64, 0
2, 42840, Control_c, 0, 64, 127
2, 42852, Control_c, 0, 64, 127
2, 42958, Note_off_c, 0, 42, 64
2, 43005, Note_on_c, 0, 66, 30
2, 43005, Note_on_c, 0, 64, 30
2, 43005, Note_on_c, 0, 58, 36
2, 43005, Note_on_c, 0, 54, 30
2, 43036, Note_off_c, 0, 67, 64
2, 43057, Note_off_c, 0, 54, 64
2, 43057, Note_off_c, 0, 58, 64
2, 43057, Note_off_c, 0, 64, 64
2, 43057, Note_off_c, 0, 66, 64
2, 43119, Note_on_c, 0, 73, 34
2, 43126, Note_off_c, 0, 75, 64
2, 43150, Note_off_c, 0, 73, 64
2, 43153, Note_on_c, 0, 75, 47
2, 43189, Note_on_c, 0, 73, 53
2, 43202, Note_off_c, 0, 75, 64
2, 43221, Note_on_c, 0, 66, 38
2, 43221, Note_on_c, 0, 58, 36
2, 43223, Note_on_c, 0, 64, 34
2, 43225, Note_on_c, 0, 54, 35
2, 43239, Note_on_c, 0, 72, 56
2, 43250, Note_off_c, 0, 73, 64
2, 43273, Note_off_c, 0, 58, 64
2, 43275, Note_off_c, 0, 64, 64
2, 43277, Note_off_c, 0, 54, 64
2, 43341, Note_on_c, 0, 73, 52
2, 43354, Note_off_c, 0, 72, 64
2, 43423, Note_on_c, 0, 47, 49
2, 43425, Control_c, 0, 64, 0
2, 43429, Note_on_c, 0, 76, 57
2, 43437, Control_c, 0, 64, 0
2, 43443, Note_off_c, 0, 73, 64
2, 43454, Control_c, 0, 64, 127
2, 43466, Control_c, 0, 64, 127
2, 43513, Note_off_c, 0, 66, 64
2, 43584, Note_off_c, 0, 47, 64
2, 43613, Note_on_c, 0, 54, 41
2, 43618, Note_on_c, 0, 71, 49
2, 43621, Note_on_c, 0, 66, 47
2, 43621, Note_on_c, 0, 59, 32
2, 43627, Note_on_c, 0, 63, 38
2, 43665, Note_off_c, 0, 54, 64
2, 43670, Note_off_c, 0, 71, 64
2, 43673, Note_off_c, 0, 59, 64
2, 43673, Note_off_c, 0, 66, 64
2, 43679, Note_off_c, 0, 63, 64
2, 43693, Note_on_c, 0, 75, 52
2, 43721, Note_off_c, 0, 76, 64
2, 43739, Note_off_c, 0, 75, 64
2, 43781, Note_on_c, 0, 75, 63
2, 43781, Note_on_c, 0, 71, 49
2, 43781, Note_on_c, 0, 66, 47
2, 43781, Note_on_c, 0, 59, 42
2, 43787, Note_on_c, 0, 63, 38
2, 43787, Note_on_c, 0, 54, 42
2, 43833, Note_off_c, 0, 59, 64
2, 43833, Note_off_c, 0, 71, 64
2, 43839, Note_off_c, 0, 54, 64
2, 43839, Note_off_c, 0, 63, 64
2, 43959, Note_on_c, 0, 46, 50
2, 43961, Control_c, 0, 64, 0
2, 43973, Control_c, 0, 64, 0
2, 43974, Note_on_c, 0, 78, 61
2, 43979, Control_c, 0, 64, 0
2, 43990, Control_c, 0, 64, 127
2, 43991, Note_off_c, 0, 75, 64
2, 43991, Control_c, 0, 64, 0
2, 44002, Control_c, 0, 64, 127
2, 44010, Control_c, 0, 64, 127
2, 44022, Control_c, 0, 64, 127
2, 44073, Note_off_c, 0, 66, 64
2, 44120, Note_off_c, 0, 46, 64
2, 44149, Note_on_c, 0, 54, 30
2, 44154, Note_on_c, 0, 73, 41
2, 44157, Note_on_c, 0, 66, 31
2, 44157, Note_on_c, 0, 64, 20
2, 44160, Note_off_c, 0, 78, 64
2, 44163, Note_on_c, 0, 61, 26
2, 44201, Note_off_c, 0, 54, 64
2, 44206, Note_off_c, 0, 73, 64
2, 44209, Note_off_c, 0, 64, 64
2, 44209, Note_off_c, 0, 66, 64
2, 44215, Note_off_c, 0, 61, 64
2, 44225, Note_on_c, 0, 78, 52
2, 44317, Note_on_c, 0, 73, 34
2, 44321, Note_on_c, 0, 77, 63
2, 44321, Note_on_c, 0, 66, 38
2, 44321, Note_on_c, 0, 64, 38
2, 44321, Note_on_c, 0, 54, 39
2, 44324, Note_on_c, 0, 61, 43
2, 44340, Note_off_c, 0, 78, 64
2, 44373, Note_off_c, 0, 54, 64
2, 44373, Note_off_c, 0, 64, 64
2, 44376, Note_off_c, 0, 61, 64
2, 44460, Note_on_c, 0, 76, 63
2, 44468, Note_off_c, 0, 77, 64
2, 44490, Note_off_c, 0, 76, 64
2, 44510, Note_on_c, 0, 76, 60
2, 44518, Note_on_c, 0, 47, 54
2, 44531, Control_c, 0, 64, 0
2, 44543, Control_c, 0, 64, 127
2, 44543, Control_c, 0, 64, 0
2, 44555, Control_c, 0, 64, 127
2, 44609, Note_off_c, 0, 73, 64
2, 44613, Note_off_c, 0, 66, 64
2, 44679, Note_off_c, 0, 47, 64
2, 44689, Note_on_c, 0, 71, 46
2, 44689, Note_on_c, 0, 66, 43
2, 44693, Note_on_c, 0, 63, 38
2, 44693, Note_on_c, 0, 59, 35
2, 44693, Note_on_c, 0, 54, 47
2, 44741, Note_off_c, 0, 66, 64
2, 44741, Note_off_c, 0, 71, 64
2, 44745, Note_off_c, 0, 54, 64
2, 44745, Note_off_c, 0, 59, 64
2, 44745, Note_off_c, 0, 63, 64
2, 44853, Note_on_c, 0, 71, 45
2, 44857, Note_on_c, 0, 66, 45
2, 44860, Note_on_c, 0, 75, 57
2, 44860, Note_on_c, 0, 63, 30
2, 44860, Note_on_c, 0, 54, 42
2, 44864, Note_on_c, 0, 59, 38
2, 44871, Note_off_c, 0, 76, 64
2, 44905, Note_off_c, 0, 71, 64
2, 44909, Note_off_c, 0, 66, 64
2, 44912, Note_off_c, 0, 54, 64
2, 44912, Note_off_c, 0, 63, 64
2, 44916, Note_off_c, 0, 59, 64
2, 45055, Note_on_c, 0, 46, 58
2, 45058, Control_c, 0, 64, 0
2, 45061, Note_on_c, 0, 78, 60
2, 45070, Control_c, 0, 64, 0
2, 45072, Note_off_c, 0, 75, 64
2, 45072, Control_c, 0, 64, 127
2, 45084, Control_c, 0, 64, 127
2, 45175, Note_on_c, 0, 77, 50
2, 45187, Note_off_c, 0, 78, 64
2, 45194, Note_on_c, 0, 78, 60
2, 45206, Note_off_c, 0, 77, 64
2, 45216, Note_off_c, 0, 46, 64
2, 45244, Note_on_c, 0, 77, 56
2, 45260, Note_off_c, 0, 78, 64
2, 45281, Note_on_c, 0, 74, 46
2, 45282, Note_on_c, 0, 76, 60
2, 45286, Control_c, 0, 64, 0
2, 45287, Note_on_c, 0, 68, 45
2, 45287, Note_on_c, 0, 65, 52
2, 45289, Note_on_c, 0, 58, 47
2, 45298, Control_c, 0, 64, 0
2, 45303, Note_off_c, 0, 77, 64
2, 45308, Control_c, 0, 64, 127
2, 45320, Control_c, 0, 64, 127
2, 45333, Note_off_c, 0, 74, 64
2, 45339, Note_off_c, 0, 65, 64
2, 45339, Note_off_c, 0, 68, 64
2, 45341, Note_off_c, 0, 58, 64
2, 45456, Note_on_c, 0, 77, 61
2, 45457, Note_on_c, 0, 74, 47
2, 45464, Note_on_c, 0, 68, 52
2, 45464, Note_on_c, 0, 58, 56
2, 45466, Note_on_c, 0, 65, 54
2, 45474, Note_off_c, 0, 76, 64
2, 45509, Note_off_c, 0, 74, 64
2, 45516, Note_off_c, 0, 58, 64
2, 45516, Note_off_c, 0, 68, 64
2, 45518, Note_off_c, 0, 65, 64
2, 45639, Note_on_c, 0, 80, 67
2, 45643, Note_on_c, 0, 39, 79
2, 45649, Control_c, 0, 64, 0
2, 45652, Note_off_c, 0, 77, 64
2, 45661, Control_c, 0, 64, 0
2, 45673, Control_c, 0, 64, 127
2, 45685, Control_c, 0, 64, 127
2, 45811, Note_on_c, 0, 75, 60
2, 45815, Note_on_c, 0, 58, 38
2, 45820, Note_on_c, 0, 70, 61
2, 45820, Note_on_c, 0, 66, 43
2, 45820, Note_on_c, 0, 51, 42
2, 45863, Note_off_c, 0, 75, 64
2, 45872, Note_off_c, 0, 70, 64
2, 45889, Note_off_c, 0, 58, 64
2, 45894, Note_off_c, 0, 51, 64
2, 45894, Note_off_c, 0, 66, 64
2, 45894, Note_on_c, 0, 78, 63
2, 45906, Note_off_c, 0, 80, 64
2, 45935, Note_off_c, 0, 39, 64
2, 45936, Note_off_c, 0, 78, 64
2, 45961, Note_on_c, 0, 70, 53
2, 45965, Note_on_c, 0, 66, 31
2, 45969, Note_on_c, 0, 75, 27
2, 45969, Note_on_c, 0, 51, 38
2, 45971, Note_on_c, 0, 78, 67
2, 45976, Note_on_c, 0, 58, 31
2, 46021, Note_off_c, 0, 75, 64
2, 46039, Note_off_c, 0, 66, 64
2, 46043, Note_off_c, 0, 51, 64
2, 46050, Note_off_c, 0, 58, 64
2, 46129, Note_on_c, 0, 82, 64
2, 46136, Note_on_c, 0, 38, 68
2, 46137, Control_c, 0, 64, 0
2, 46149, Control_c, 0, 64, 0
2, 46150, Note_off_c, 0, 78, 64
2, 46161, Control_c, 0, 64, 127
2, 46173, Control_c, 0, 64, 127
2, 46253, Note_off_c, 0, 70, 64
2, 46285, Note_on_c, 0, 50, 34
2, 46285, Control_c, 0, 64, 0
2, 46297, Note_on_c, 0, 58, 30
2, 46297, Control_c, 0, 64, 0
2, 46304, Note_on_c, 0, 77, 63
2, 46304, Note_on_c, 0, 70, 68
2, 46308, Note_on_c, 0, 65, 38
2, 46315, Control_c, 0, 64, 127
2, 46327, Control_c, 0, 64, 127
2, 46364, Note_off_c, 0, 50, 64
2, 46367, Note_off_c, 0, 82, 64
2, 46371, Note_off_c, 0, 58, 64
2, 46378, Note_off_c, 0, 70, 64
2, 46378, Note_off_c, 0, 77, 64
2, 46378, Note_on_c, 0, 82, 64
2, 46382, Note_off_c, 0, 65, 64
2, 46428, Note_off_c, 0, 38, 64
2, 46441, Note_on_c, 0, 50, 38
2, 46449, Note_on_c, 0, 58, 41
2, 46457, Control_c, 0, 64, 0
2, 46465, Note_on_c, 0, 81, 65
2, 46465, Note_on_c, 0, 77, 64
2, 46465, Note_on_c, 0, 70, 53
2, 46465, Note_on_c, 0, 65, 39
2, 46469, Control_c, 0, 64, 0
2, 46475, Note_off_c, 0, 82, 64
2, 46515, Note_off_c, 0, 50, 64
2, 46523, Note_off_c, 0, 58, 64
2, 46539, Note_off_c, 0, 65, 64
2, 46539, Note_off_c, 0, 77, 64
2, 46575, Note_on_c, 0, 80, 71
2, 46587, Note_off_c, 0, 81, 64
2, 46606, Note_off_c, 0, 80, 64
2, 46627, Note_on_c, 0, 80, 76
2, 46635, Note_on_c, 0, 39, 84
2, 46656, Control_c, 0, 64, 0
2, 46668, Control_c, 0, 64, 0
2, 46684, Control_c, 0, 64, 127
2, 46696, Control_c, 0, 64, 127
2, 46779, Note_off_c, 0, 70, 64
2, 46781, Control_c, 0, 64, 0
2, 46793, Note_on_c, 0, 66, 38
2, 46793, Note_on_c, 0, 58, 34
2, 46793, Note_on_c, 0, 51, 38
2, 46793, Control_c, 0, 64, 0
2, 46797, Note_on_c, 0, 75, 47
2, 46797, Note_on_c, 0, 70, 60
2, 46802, Control_c, 0, 64, 127
2, 46814, Control_c, 0, 64, 127
2, 46867, Note_off_c, 0, 51, 64
2, 46867, Note_off_c, 0, 58, 64
2, 46867, Note_off_c, 0, 66, 64
2, 46871, Note_off_c, 0, 70, 64
2, 46871, Note_off_c, 0, 75, 64
2, 46927, Note_off_c, 0, 39, 64
2, 46949, Note_on_c, 0, 51, 31
2, 46953, Note_on_c, 0, 78, 78
2, 46953, Note_on_c, 0, 75, 46
2, 46953, Note_on_c, 0, 70, 60
2, 46957, Note_on_c, 0, 66, 31
2, 46957, Note_on_c, 0, 58, 32
2, 46971, Note_off_c, 0, 80, 64
2, 47023, Note_off_c, 0, 51, 64
2, 47027, Note_off_c, 0, 70, 64
2, 47027, Note_off_c, 0, 75, 64
2, 47031, Note_off_c, 0, 58, 64
2, 47031, Note_off_c, 0, 66, 64
2, 47129, Note_off_c, 0, 78, 64
2, 47141, Control_c, 0, 64, 0
2, 47153, Control_c, 0, 64, 0
2, 47157, Note_on_c, 0, 49, 69
2, 47159, Note_on_c, 0, 70, 71
2, 47160, Note_on_c, 0, 82, 67
2, 47160, Note_on_c, 0, 37, 63
2, 47161, Control_c, 0, 64, 127
2, 47161, Note_on_c, 0, 78, 54
2, 47173, Control_c, 0, 64, 127
2, 47289, Note_on_c, 0, 77, 56
2, 47290, Note_on_c, 0, 80, 69
2, 47290, Note_on_c, 0, 68, 72
2, 47295, Note_off_c, 0, 70, 64
2, 47296, Note_off_c, 0, 82, 64
2, 47297, Note_off_c, 0, 78, 64
2, 47318, Note_off_c, 0, 49, 64
2, 47353, Note_on_c, 0, 59, 50
2, 47353, Note_on_c, 0, 56, 58
2, 47355, Note_on_c, 0, 67, 72
2, 47355, Note_on_c, 0, 65, 58
2, 47355, Note_on_c, 0, 61, 54
2, 47357, Note_on_c, 0, 79, 69
2, 47357, Note_on_c, 0, 76, 56
2, 47365, Control_c, 0, 64, 0
2, 47372, Note_off_c, 0, 77, 64
2, 47373, Note_off_c, 0, 68, 64
2, 47373, Note_off_c, 0, 80, 64
2, 47377, Control_c, 0, 64, 0
2, 47378, Control_c, 0, 64, 127
2, 47390, Control_c, 0, 64, 127
2, 47427, Note_off_c, 0, 56, 64
2, 47427, Note_off_c, 0, 59, 64
2, 47429, Note_off_c, 0, 61, 64
2, 47429, Note_off_c, 0, 65, 64
2, 47452, Note_off_c, 0, 37, 64
2, 47544, Note_on_c, 0, 80, 71
2, 47544, Note_on_c, 0, 68, 68
2, 47547, Note_on_c, 0, 77, 67
2, 47549, Note_on_c, 0, 65, 52
2, 47549, Note_on_c, 0, 61, 54
2, 47549, Note_on_c, 0, 59, 37
2, 47549, Note_on_c, 0, 56, 50
2, 47552, Note_off_c, 0, 67, 64
2, 47554, Note_off_c, 0, 76, 64
2, 47554, Note_off_c, 0, 79, 64
2, 47623, Note_off_c, 0, 56, 64
2, 47623, Note_off_c, 0, 59, 64
2, 47623, Note_off_c, 0, 61, 64
2, 47623, Note_off_c, 0, 65, 64
2, 47751, Note_off_c, 0, 80, 64
2, 47765, Note_on_c, 0, 83, 68
2, 47765, Note_on_c, 0, 80, 67
2, 47767, Note_off_c, 0, 68, 64
2, 47767, Note_on_c, 0, 42, 72
2, 47767, Control_c, 0, 64, 0
2, 47767, Note_on_c, 0, 71, 67
2, 47770, Note_off_c, 0, 77, 64
2, 47770, Note_on_c, 0, 30, 69
2, 47779, Control_c, 0, 64, 0
2, 47788, Control_c, 0, 64, 127
2, 47800, Control_c, 0, 64, 127
2, 47931, Note_off_c, 0, 30, 64
2, 47973, Note_off_c, 0, 80, 64
2, 47973, Note_off_c, 0, 83, 64
2, 47973, Note_on_c, 0, 78, 75
2, 47973, Note_on_c, 0, 66, 45
2, 47973, Note_on_c, 0, 54, 53
2, 47975, Note_off_c, 0, 71, 64
2, 47975, Note_on_c, 0, 70, 80
2, 47976, Note_on_c, 0, 82, 73
2, 47977, Note_on_c, 0, 61, 45
2, 48020, Note_off_c, 0, 54, 64
2, 48020, Note_off_c, 0, 66, 64
2, 48020, Note_off_c, 0, 78, 64
2, 48022, Note_off_c, 0, 70, 64
2, 48023, Note_off_c, 0, 82, 64
2, 48024, Note_off_c, 0, 61, 64
2, 48038, Note_on_c, 0, 78, 75
2, 48041, Note_on_c, 0, 70, 71
2, 48044, Note_on_c, 0, 82, 67
2, 48045, Note_on_c, 0, 61, 71
2, 48047, Note_on_c, 0, 54, 72
2, 48051, Note_on_c, 0, 66, 79
2, 48059, Note_off_c, 0, 42, 64
2, 48078, Control_c, 0, 64, 0
2, 48090, Control_c, 0, 64, 0
2, 48109, Control_c, 0, 64, 127
2, 48121, Control_c, 0, 64, 127
2, 48494, Note_on_c, 0, 32, 69
2, 48495, Note_off_c, 0, 78, 64
2, 48497, Note_on_c, 0, 44, 73
2, 48498, Note_off_c, 0, 70, 64
2, 48498, Control_c, 0, 64, 0
2, 48501, Note_off_c, 0, 82, 64
2, 48502, Note_off_c, 0, 61, 64
2, 48504, Note_off_c, 0, 54, 64
2, 48508, Note_off_c, 0, 66, 64
2, 48510, Control_c, 0, 64, 0
2, 48519, Control_c, 0, 64, 127
2, 48531, Control_c, 0, 64, 127
2, 48633, Note_on_c, 0, 76, 71
2, 48633, Note_on_c, 0, 68, 64
2, 48638, Note_on_c, 0, 80, 68
2, 48655, Note_off_c, 0, 32, 64
2, 48658, Note_off_c, 0, 44, 64
2, 48680, Note_off_c, 0, 68, 64
2, 48680, Note_off_c, 0, 76, 64
2, 48685, Note_off_c, 0, 80, 64
2, 48699, Note_on_c, 0, 76, 71
2, 48701, Note_on_c, 0, 80, 63
2, 48701, Note_on_c, 0, 68, 69
2, 48701, Note_on_c, 0, 64, 67
2, 48701, Note_on_c, 0, 59, 67
2, 48701, Note_on_c, 0, 52, 63
2, 48775, Note_off_c, 0, 52, 64
2, 48775, Note_off_c, 0, 59, 64
2, 48775, Note_off_c, 0, 64, 64
2, 48869, Note_on_c, 0, 78, 65
2, 48870, Note_off_c, 0, 76, 64
2, 48872, Note_off_c, 0, 68, 64
2, 48872, Note_off_c, 0, 80, 64
2, 48873, Note_on_c, 0, 70, 76
2, 48875, Note_on_c, 0, 82, 69
2, 48877, Note_on_c, 0, 46, 60
2, 48882, Note_on_c, 0, 34, 69
2, 49005, Note_on_c, 0, 76, 71
2, 49011, Note_on_c, 0, 80, 73
2, 49011, Note_on_c, 0, 68, 75
2, 49012, Note_off_c, 0, 78, 64
2, 49016, Note_off_c, 0, 70, 64
2, 49018, Note_off_c, 0, 82, 64
2, 49038, Note_off_c, 0, 46, 64
2, 49043, Note_off_c, 0, 34, 64
2, 49052, Note_off_c, 0, 76, 64
2, 49058, Note_off_c, 0, 68, 64
2, 49058, Note_off_c, 0, 80, 64
2, 49062, Note_on_c, 0, 80, 69
2, 49066, Note_on_c, 0, 68, 73
2, 49068, Note_on_c, 0, 76, 73
2, 49071, Note_on_c, 0, 35, 64
2, 49073, Control_c, 0, 64, 0
2, 49075, Note_on_c, 0, 47, 68
2, 49085, Control_c, 0, 64, 127
2, 49085, Control_c, 0, 64, 0
2, 49097, Control_c, 0, 64, 127
2, 49232, Note_off_c, 0, 35, 64
2, 49236, Note_off_c, 0, 47, 64
2, 49241, Note_off_c, 0, 80, 64
2, 49245, Note_off_c, 0, 68, 64
2, 49247, Note_off_c, 0, 76, 64
2, 49257, Note_on_c, 0, 75, 69
2, 49257, Note_on_c, 0, 66, 76
2, 49257, Note_on_c, 0, 59, 35
2, 49257, Note_on_c, 0, 54, 45
2, 49257, Note_on_c, 0, 51, 42
2, 49261, Note_on_c, 0, 78, 68
2, 49261, Note_on_c, 0, 63, 53
2, 49304, Note_off_c, 0, 51, 64
2, 49304, Note_off_c, 0, 54, 64
2, 49304, Note_off_c, 0, 59, 64
2, 49304, Note_off_c, 0, 66, 64
2, 49304, Note_off_c, 0, 75, 64
2, 49308, Note_off_c, 0, 63, 64
2, 49308, Note_off_c, 0, 78, 64
2, 49317, Note_on_c, 0, 66, 69
2, 49320, Note_on_c, 0, 51, 42
2, 49321, Note_on_c, 0, 78, 73
2, 49324, Note_on_c, 0, 63, 52
2, 49324, Note_on_c, 0, 59, 49
2, 49324, Note_on_c, 0, 54, 45
2, 49325, Note_on_c, 0, 75, 75
2, 49345, Control_c, 0, 64, 0
2, 49357, Control_c, 0, 64, 0
2, 49410, Control_c, 0, 64, 127
2, 49422, Control_c, 0, 64, 127
2, 49692, Note_off_c, 0, 51, 64
2, 49696, Note_off_c, 0, 54, 64
2, 49696, Note_off_c, 0, 59, 64
2, 49696, Note_off_c, 0, 63, 64
2, 49817, Control_c, 0, 64, 0
2, 49820, Note_on_c, 0, 52, 36
2, 49820, Note_on_c, 0, 40, 38
2, 49829, Control_c, 0, 64, 0
2, 49848, Control_c, 0, 64, 127
2, 49860, Control_c, 0, 64, 127
2, 49956, Note_off_c, 0, 66, 64
2, 49960, Note_off_c, 0, 78, 64
2, 49964, Note_off_c, 0, 75, 64
2, 49965, Note_on_c, 0, 68, 41
2, 49965, Note_on_c, 0, 66, 42
2, 49967, Note_on_c, 0, 55, 39
2, 49981, Note_off_c, 0, 40, 64
2, 49981, Note_off_c, 0, 52, 64
2, 50005, Note_off_c, 0, 66, 64
2, 50005, Note_off_c, 0, 68, 64
2, 50009, Control_c, 0, 64, 0
2, 50011, Note_on_c, 0, 56, 41
2, 50017, Note_on_c, 0, 66, 50
2, 50019, Note_on_c, 0, 68, 52
2, 50021, Control_c, 0, 64, 0
2, 50033, Note_off_c, 0, 55, 64
2, 50051, Control_c, 0, 64, 127
2, 50063, Control_c, 0, 64, 127
2, 50197, Note_off_c, 0, 56, 64
2, 50198, Note_on_c, 0, 76, 43
2, 50201, Note_on_c, 0, 73, 43
2, 50201, Note_on_c, 0, 64, 35
2, 50204, Note_on_c, 0, 61, 35
2, 50214, Note_off_c, 0, 66, 64
2, 50216, Note_off_c, 0, 68, 64
2, 50258, Note_off_c, 0, 61, 64
2, 50350, Control_c, 0, 64, 0
2, 50362, Control_c, 0, 64, 0
2, 50372, Note_on_c, 0, 42, 41
2, 50375, Control_c, 0, 64, 127
2, 50387, Control_c, 0, 64, 127
2, 50396, Note_off_c, 0, 76, 64
2, 50399, Note_off_c, 0, 64, 64
2, 50399, Note_off_c, 0, 73, 64
2, 50489, Note_on_c, 0, 66, 52
2, 50493, Note_on_c, 0, 64, 43
2, 50497, Note_on_c, 0, 53, 38
2, 50529, Note_off_c, 0, 66, 64
2, 50533, Note_off_c, 0, 64, 64
2, 50533, Note_off_c, 0, 42, 64
2, 50536, Control_c, 0, 64, 0
2, 50537, Note_on_c, 0, 54, 21
2, 50542, Note_on_c, 0, 64, 49
2, 50547, Note_on_c, 0, 66, 49
2, 50548, Control_c, 0, 64, 0
2, 50558, Control_c, 0, 64, 127
2, 50570, Control_c, 0, 64, 127
2, 50578, Note_off_c, 0, 53, 64
2, 50725, Control_c, 0, 64, 0
2, 50726, Note_on_c, 0, 71, 42
2, 50726, Note_on_c, 0, 59, 38
2, 50729, Note_on_c, 0, 75, 39
2, 50729, Note_on_c, 0, 63, 49
2, 50736, Note_off_c, 0, 64, 64
2, 50736, Control_c, 0, 64, 127
2, 50737, Control_c, 0, 64, 0
2, 50741, Note_off_c, 0, 66, 64
2, 50748, Control_c, 0, 64, 127
2, 50753, Note_off_c, 0, 54, 64
2, 50780, Note_off_c, 0, 59, 64
2, 50888, Note_on_c, 0, 42, 42
2, 50985, Note_on_c, 0, 70, 41
2, 50985, Note_on_c, 0, 61, 49
2, 50988, Note_on_c, 0, 73, 45
2, 50992, Note_off_c, 0, 71, 64
2, 50995, Note_off_c, 0, 63, 64
2, 50995, Note_off_c, 0, 75, 64
2, 51033, Note_on_c, 0, 69, 45
2, 51033, Note_on_c, 0, 60, 49
2, 51037, Note_on_c, 0, 72, 49
2, 51037, Note_on_c, 0, 64, 17
2, 51037, Note_on_c, 0, 58, 21
2, 51037, Note_on_c, 0, 54, 38
2, 51042, Note_off_c, 0, 70, 64
2, 51043, Note_off_c, 0, 61, 64
2, 51045, Note_off_c, 0, 73, 64
2, 51049, Note_off_c, 0, 42, 64
2, 51061, Control_c, 0, 64, 0
2, 51072, Control_c, 0, 64, 127
2, 51073, Control_c, 0, 64, 0
2, 51084, Control_c, 0, 64, 127
2, 51111, Note_off_c, 0, 54, 64
2, 51111, Note_off_c, 0, 58, 64
2, 51111, Note_off_c, 0, 64, 64
2, 51228, Note_on_c, 0, 54, 38
2, 51229, Note_on_c, 0, 73, 49
2, 51229, Note_on_c, 0, 70, 42
2, 51229, Note_on_c, 0, 64, 35
2, 51229, Note_on_c, 0, 61, 45
2, 51229, Note_on_c, 0, 58, 42
2, 51232, Note_off_c, 0, 60, 64
2, 51232, Note_off_c, 0, 69, 64
2, 51236, Note_off_c, 0, 72, 64
2, 51302, Note_off_c, 0, 54, 64
2, 51303, Note_off_c, 0, 58, 64
2, 51303, Note_off_c, 0, 64, 64
2, 51362, Note_on_c, 0, 68, 42
2, 51428, Note_off_c, 0, 61, 64
2, 51428, Note_off_c, 0, 70, 64
2, 51428, Note_off_c, 0, 73, 64
2, 51461, Note_on_c, 0, 47, 42
2, 51466, Note_on_c, 0, 80, 50
2, 51469, Note_on_c, 0, 76, 49
2, 51496, Control_c, 0, 64, 0
2, 51508, Control_c, 0, 64, 0
2, 51534, Control_c, 0, 64, 127
2, 51546, Control_c, 0, 64, 127
2, 51622, Note_off_c, 0, 47, 64
2, 51682, Note_on_c, 0, 56, 41
2, 51685, Note_on_c, 0, 59, 23
2, 51688, Note_on_c, 0, 64, 24
2, 51827, Note_off_c, 0, 56, 64
2, 51830, Note_off_c, 0, 59, 64
2, 51833, Note_off_c, 0, 64, 64
2, 51892, Note_on_c, 0, 78, 43
2, 51893, Note_on_c, 0, 75, 38
2, 51893, Note_on_c, 0, 59, 23
2, 51896, Note_off_c, 0, 68, 64
2, 51897, Note_on_c, 0, 66, 42
2, 51897, Note_on_c, 0, 63, 27
2, 51899, Note_off_c, 0, 80, 64
2, 51899, Note_on_c, 0, 54, 31
2, 51902, Note_off_c, 0, 76, 64
2, 52038, Note_off_c, 0, 59, 64
2, 52042, Note_off_c, 0, 63, 64
2, 52044, Note_off_c, 0, 54, 64
2, 52090, Note_off_c, 0, 75, 64
2, 52117, Note_off_c, 0, 78, 64
2, 52121, Note_on_c, 0, 75, 50
2, 52125, Note_on_c, 0, 42, 47
2, 52133, Control_c, 0, 64, 0
2, 52145, Control_c, 0, 64, 0
2, 52153, Control_c, 0, 64, 127
2, 52165, Control_c, 0, 64, 127
2, 52279, Note_off_c, 0, 66, 64
2, 52286, Note_off_c, 0, 42, 64
2, 52325, Note_on_c, 0, 54, 26
2, 52329, Note_on_c, 0, 66, 38
2, 52329, Note_on_c, 0, 64, 30
2, 52331, Note_on_c, 0, 58, 31
2, 52379, Note_off_c, 0, 54, 64
2, 52383, Note_off_c, 0, 64, 64
2, 52383, Note_off_c, 0, 66, 64
2, 52385, Note_off_c, 0, 58, 64
2, 52431, Note_on_c, 0, 73, 34
2, 52458, Note_off_c, 0, 75, 64
2, 52465, Note_on_c, 0, 75, 47
2, 52474, Note_off_c, 0, 73, 64
2, 52501, Note_on_c, 0, 73, 53
2, 52514, Note_off_c, 0, 75, 64
2, 52533, Control_c, 0, 64, 0
2, 52541, Note_on_c, 0, 66, 38
2, 52541, Note_on_c, 0, 64, 27
2, 52541, Note_on_c, 0, 58, 32
2, 52541, Note_on_c, 0, 54, 15
2, 52545, Control_c, 0, 64, 0
2, 52551, Note_on_c, 0, 72, 54
2, 52562, Note_off_c, 0, 73, 64
2, 52562, Control_c, 0, 64, 127
2, 52574, Control_c, 0, 64, 127
2, 52595, Note_off_c, 0, 54, 64
2, 52595, Note_off_c, 0, 58, 64
2, 52595, Note_off_c, 0, 64, 64
2, 52630, Note_on_c, 0, 73, 56
2, 52647, Note_off_c, 0, 72, 64
2, 52715, Control_c, 0, 64, 0
2, 52718, Note_on_c, 0, 47, 49
2, 52724, Note_on_c, 0, 76, 56
2, 52727, Control_c, 0, 64, 0
2, 52731, Note_off_c, 0, 73, 64
2, 52737, Control_c, 0, 64, 127
2, 52749, Control_c, 0, 64, 127
2, 52835, Note_off_c, 0, 66, 64
2, 52879, Note_off_c, 0, 47, 64
2, 52882, Note_on_c, 0, 71, 50
2, 52885, Note_on_c, 0, 66, 47
2, 52889, Note_on_c, 0, 59, 36
2, 52891, Note_on_c, 0, 63, 38
2, 52892, Note_on_c, 0, 54, 45
2, 52936, Note_off_c, 0, 71, 64
2, 52939, Note_off_c, 0, 66, 64
2, 52943, Note_off_c, 0, 59, 64
2, 52945, Note_off_c, 0, 63, 64
2, 52946, Note_off_c, 0, 54, 64
2, 52953, Note_on_c, 0, 75, 53
2, 52963, Note_off_c, 0, 76, 64
2, 52996, Note_off_c, 0, 75, 64
2, 53033, Note_on_c, 0, 75, 64
2, 53033, Note_on_c, 0, 71, 54
2, 53034, Note_on_c, 0, 59, 36
2, 53040, Note_on_c, 0, 63, 34
2, 53041, Note_on_c, 0, 66, 46
2, 53041, Note_on_c, 0, 54, 38
2, 53087, Note_off_c, 0, 71, 64
2, 53088, Note_off_c, 0, 59, 64
2, 53094, Note_off_c, 0, 63, 64
2, 53095, Note_off_c, 0, 54, 64
2, 53199, Note_on_c, 0, 46, 53
2, 53202, Note_on_c, 0, 78, 57
2, 53203, Control_c, 0, 64, 0
2, 53204, Note_off_c, 0, 75, 64
2, 53215, Control_c, 0, 64, 0
2, 53224, Control_c, 0, 64, 127
2, 53236, Control_c, 0, 64, 127
2, 53335, Note_off_c, 0, 66, 64
2, 53360, Note_off_c, 0, 46, 64
2, 53361, Note_on_c, 0, 66, 47
2, 53361, Note_on_c, 0, 64, 38
2, 53365, Note_on_c, 0, 73, 49
2, 53365, Note_on_c, 0, 61, 26
2, 53366, Note_on_c, 0, 54, 41
2, 53397, Note_off_c, 0, 78, 64
2, 53415, Note_off_c, 0, 64, 64
2, 53415, Note_off_c, 0, 66, 64
2, 53419, Note_off_c, 0, 61, 64
2, 53419, Note_off_c, 0, 73, 64
2, 53420, Note_off_c, 0, 54, 64
2, 53428, Note_on_c, 0, 78, 60
2, 53510, Note_on_c, 0, 66, 30
2, 53513, Note_on_c, 0, 64, 38
2, 53513, Note_on_c, 0, 61, 41
2, 53513, Note_on_c, 0, 54, 31
2, 53517, Note_on_c, 0, 73, 52
2, 53519, Note_on_c, 0, 77, 61
2, 53536, Note_off_c, 0, 78, 64
2, 53567, Note_off_c, 0, 54, 64
2, 53567, Note_off_c, 0, 61, 64
2, 53567, Note_off_c, 0, 64, 64
2, 53571, Note_off_c, 0, 73, 64
2, 53629, Note_on_c, 0, 76, 60
2, 53637, Note_off_c, 0, 77, 64
2, 53656, Note_off_c, 0, 76, 64
2, 53676, Note_on_c, 0, 76, 63
2, 53683, Note_on_c, 0, 47, 54
2, 53694, Control_c, 0, 64, 0
2, 53706, Control_c, 0, 64, 0
2, 53708, Control_c, 0, 64, 127
2, 53720, Control_c, 0, 64, 127
2, 53804, Note_off_c, 0, 66, 64
2, 53833, Note_on_c, 0, 66, 47
2, 53834, Note_on_c, 0, 71, 46
2, 53836, Control_c, 0, 64, 0
2, 53837, Note_on_c, 0, 63, 32
2, 53837, Note_on_c, 0, 59, 32
2, 53837, Note_on_c, 0, 54, 43
2, 53844, Note_off_c, 0, 47, 64
2, 53848, Control_c, 0, 64, 0
2, 53852, Control_c, 0, 64, 127
2, 53864, Control_c, 0, 64, 127
2, 53887, Note_off_c, 0, 66, 64
2, 53888, Note_off_c, 0, 71, 64
2, 53891, Note_off_c, 0, 54, 64
2, 53891, Note_off_c, 0, 59, 64
2, 53891, Note_off_c, 0, 63, 64
2, 53983, Note_on_c, 0, 66, 39
2, 53985, Note_on_c, 0, 71, 47
2, 53985, Note_on_c, 0, 63, 38
2, 53985, Note_on_c, 0, 54, 45
2, 53987, Note_on_c, 0, 75, 60
2, 53988, Note_on_c, 0, 59, 42
2, 54006, Note_off_c, 0, 76, 64
2, 54037, Note_off_c, 0, 66, 64
2, 54039, Note_off_c, 0, 54, 64
2, 54039, Note_off_c, 0, 63, 64
2, 54039, Note_off_c, 0, 71, 64
2, 54042, Note_off_c, 0, 59, 64
2, 54152, Note_on_c, 0, 46, 56
2, 54159, Note_on_c, 0, 78, 60
2, 54169, Note_off_c, 0, 75, 64
2, 54289, Note_on_c, 0, 77, 50
2, 54298, Note_off_c, 0, 78, 64
2, 54309, Note_on_c, 0, 78, 60
2, 54313, Note_off_c, 0, 46, 64
2, 54320, Note_off_c, 0, 77, 64
2, 54340, Note_on_c, 0, 77, 56
2, 54363, Note_off_c, 0, 78, 64
2, 54369, Note_on_c, 0, 74, 53
2, 54371, Note_on_c, 0, 76, 56
2, 54373, Note_on_c, 0, 68, 53
2, 54373, Note_on_c, 0, 65, 47
2, 54374, Note_on_c, 0, 58, 50
2, 54384, Control_c, 0, 64, 0
2, 54387, Note_off_c, 0, 77, 64
2, 54396, Control_c, 0, 64, 0
2, 54404, Control_c, 0, 64, 127
2, 54416, Control_c, 0, 64, 127
2, 54423, Note_off_c, 0, 74, 64
2, 54427, Note_off_c, 0, 65, 64
2, 54427, Note_off_c, 0, 68, 64
2, 54428, Note_off_c, 0, 58, 64
2, 54541, Note_on_c, 0, 58, 54
2, 54545, Note_on_c, 0, 74, 54
2, 54545, Note_on_c, 0, 68, 50
2, 54545, Note_on_c, 0, 65, 46
2, 54548, Note_on_c, 0, 77, 63
2, 54548, Note_on_c, 0, 77, 56
2, 54558, Note_off_c, 0, 76, 64
2, 54595, Note_off_c, 0, 58, 64
2, 54599, Note_off_c, 0, 65, 64
2, 54599, Note_off_c, 0, 68, 64
2, 54599, Note_off_c, 0, 74, 64
2, 54607, Note_off_c, 0, 77, 64
2, 54720, Note_on_c, 0, 80, 65
2, 54721, Note_on_c, 0, 39, 57
2, 54733, Control_c, 0, 64, 0
2, 54735, Note_off_c, 0, 77, 64
2, 54745, Control_c, 0, 64, 0
2, 54764, Control_c, 0, 64, 127
2, 54776, Control_c, 0, 64, 127
2, 54877, Note_on_c, 0, 75, 52
2, 54878, Note_on_c, 0, 70, 53
2, 54881, Note_on_c, 0, 58, 42
2, 54882, Note_off_c, 0, 39, 64
2, 54884, Note_on_c, 0, 51, 47
2, 54887, Note_on_c, 0, 66, 45
2, 54931, Note_off_c, 0, 75, 64
2, 54932, Note_off_c, 0, 70, 64
2, 54947, Note_on_c, 0, 78, 60
2, 54955, Note_off_c, 0, 58, 64
2, 54958, Note_off_c, 0, 51, 64
2, 54961, Note_off_c, 0, 66, 64
2, 54966, Note_off_c, 0, 80, 64
2, 54999, Note_off_c, 0, 78, 64
2, 55017, Note_on_c, 0, 51, 41
2, 55025, Note_on_c, 0, 78, 64
2, 55025, Note_on_c, 0, 75, 52
2, 55025, Note_on_c, 0, 70, 46
2, 55025, Note_on_c, 0, 66, 39
2, 55025, Note_on_c, 0, 58, 38
2, 55079, Note_off_c, 0, 75, 64
2, 55091, Note_off_c, 0, 51, 64
2, 55099, Note_off_c, 0, 58, 64
2, 55099, Note_off_c, 0, 66, 64
2, 55179, Note_on_c, 0, 82, 64
2, 55182, Note_on_c, 0, 38, 58
2, 55183, Control_c, 0, 64, 0
2, 55184, Note_off_c, 0, 78, 64
2, 55195, Control_c, 0, 64, 0
2, 55222, Control_c, 0, 64, 127
2, 55234, Control_c, 0, 64, 127
2, 55319, Note_off_c, 0, 70, 64
2, 55333, Note_on_c, 0, 70, 56
2, 55333, Note_on_c, 0, 58, 46
2, 55333, Note_on_c, 0, 50, 34
2, 55337, Note_on_c, 0, 77, 49
2, 55337, Note_on_c, 0, 65, 45
2, 55343, Note_off_c, 0, 38, 64
2, 55368, Note_off_c, 0, 82, 64
2, 55400, Note_on_c, 0, 82, 61
2, 55407, Note_off_c, 0, 50, 64
2, 55407, Note_off_c, 0, 58, 64
2, 55407, Note_off_c, 0, 70, 64
2, 55411, Note_off_c, 0, 65, 64
2, 55411, Note_off_c, 0, 77, 64
2, 55493, Note_on_c, 0, 77, 49
2, 55493, Note_on_c, 0, 65, 30
2, 55493, Note_on_c, 0, 50, 46
2, 55494, Note_on_c, 0, 81, 65
2, 55494, Note_on_c, 0, 58, 46
2, 55497, Note_on_c, 0, 70, 30
2, 55506, Note_off_c, 0, 82, 64
2, 55567, Note_off_c, 0, 50, 64
2, 55567, Note_off_c, 0, 65, 64
2, 55567, Note_off_c, 0, 77, 64
2, 55568, Note_off_c, 0, 58, 64
2, 55571, Note_off_c, 0, 70, 64
2, 55604, Note_off_c, 0, 81, 64
2, 55604, Note_on_c, 0, 80, 68
2, 55627, Note_off_c, 0, 80, 64
2, 55654, Note_on_c, 0, 80, 76
2, 55661, Note_on_c, 0, 39, 64
2, 55667, Control_c, 0, 64, 0
2, 55679, Control_c, 0, 64, 0
2, 55700, Control_c, 0, 64, 127
2, 55712, Control_c, 0, 64, 127
2, 55805, Note_on_c, 0, 51, 43
2, 55821, Note_on_c, 0, 58, 43
2, 55822, Note_off_c, 0, 39, 64
2, 55825, Note_on_c, 0, 70, 57
2, 55827, Note_on_c, 0, 75, 47
2, 55829, Note_on_c, 0, 66, 54
2, 55879, Note_off_c, 0, 51, 64
2, 55895, Note_off_c, 0, 58, 64
2, 55899, Note_off_c, 0, 70, 64
2, 55901, Note_off_c, 0, 75, 64
2, 55903, Note_off_c, 0, 66, 64
2, 55973, Note_on_c, 0, 51, 46
2, 55985, Note_on_c, 0, 58, 46
2, 55989, Note_on_c, 0, 66, 42
2, 55991, Note_on_c, 0, 70, 58
2, 55993, Note_on_c, 0, 75, 46
2, 55997, Note_on_c, 0, 78, 75
2, 56012, Note_off_c, 0, 80, 64
2, 56047, Note_off_c, 0, 51, 64
2, 56059, Note_off_c, 0, 58, 64
2, 56063, Note_off_c, 0, 66, 64
2, 56065, Note_off_c, 0, 70, 64
2, 56067, Note_off_c, 0, 75, 64
2, 56162, Note_on_c, 0, 37, 67
2, 56167, Note_on_c, 0, 49, 57
2, 56170, Note_off_c, 0, 78, 64
2, 56173, Note_on_c, 0, 82, 67
2, 56173, Note_on_c, 0, 70, 73
2, 56177, Note_on_c, 0, 78, 61
2, 56293, Note_on_c, 0, 80, 63
2, 56293, Note_on_c, 0, 77, 65
2, 56293, Note_on_c, 0, 68, 65
2, 56299, Note_off_c, 0, 70, 64
2, 56299, Note_off_c, 0, 82, 64
2, 56303, Note_off_c, 0, 78, 64
2, 56323, Note_off_c, 0, 37, 64
2, 56328, Note_off_c, 0, 49, 64
2, 56337, Note_on_c, 0, 79, 63
2, 56337, Note_on_c, 0, 76, 65
2, 56337, Note_on_c, 0, 67, 72
2, 56337, Note_on_c, 0, 65, 65
2, 56337, Note_on_c, 0, 61, 61
2, 56337, Note_on_c, 0, 59, 54
2, 56340, Note_off_c, 0, 68, 64
2, 56340, Note_off_c, 0, 77, 64
2, 56340, Note_off_c, 0, 80, 64
2, 56344, Note_on_c, 0, 56, 64
2, 56411, Note_off_c, 0, 59, 64
2, 56411, Note_off_c, 0, 61, 64
2, 56411, Note_off_c, 0, 65, 64
2, 56418, Note_off_c, 0, 56, 64
2, 56517, Note_on_c, 0, 80, 67
2, 56521, Note_on_c, 0, 77, 67
2, 56521, Note_on_c, 0, 68, 73
2, 56524, Note_off_c, 0, 67, 64
2, 56524, Note_off_c, 0, 76, 64
2, 56524, Note_off_c, 0, 79, 64
2, 56527, Note_on_c, 0, 61, 53
2, 56529, Note_on_c, 0, 59, 54
2, 56533, Note_on_c, 0, 65, 57
2, 56533, Note_on_c, 0, 56, 60
2, 56601, Note_off_c, 0, 61, 64
2, 56603, Note_off_c, 0, 59, 64
2, 56607, Note_off_c, 0, 56, 64
2, 56607, Note_off_c, 0, 65, 64
2, 56704, Note_off_c, 0, 80, 64
2, 56708, Note_off_c, 0, 68, 64
2, 56708, Note_off_c, 0, 77, 64
2, 56723, Note_on_c, 0, 80, 68
2, 56727, Note_on_c, 0, 83, 67
2, 56727, Note_on_c, 0, 71, 65
2, 56728, Control_c, 0, 64, 0
2, 56732, Note_on_c, 0, 30, 61
2, 56734, Note_on_c, 0, 42, 72
2, 56740, Control_c, 0, 64, 0
2, 56748, Control_c, 0, 64, 127
2, 56760, Control_c, 0, 64, 127
2, 56893, Note_off_c, 0, 30, 64
2, 56895, Note_off_c, 0, 42, 64
2, 56909, Note_on_c, 0, 78, 56
2, 56909, Note_on_c, 0, 61, 63
2, 56909, Note_on_c, 0, 54, 63
2, 56913, Note_on_c, 0, 82, 82
2, 56913, Note_on_c, 0, 70, 82
2, 56913, Note_on_c, 0, 66, 67
2, 56914, Note_off_c, 0, 80, 64
2, 56918, Note_off_c, 0, 71, 64
2, 56918, Note_off_c, 0, 83, 64
2, 56956, Note_off_c, 0, 54, 64
2, 56956, Note_off_c, 0, 61, 64
2, 56956, Note_off_c, 0, 78, 64
2, 56960, Note_off_c, 0, 66, 64
2, 56960, Note_off_c, 0, 70, 64
2, 56960, Note_off_c, 0, 82, 64
2, 56969, Note_on_c, 0, 78, 72
2, 56972, Note_on_c, 0, 66, 53
2, 56973, Note_on_c, 0, 82, 67
2, 56973, Note_on_c, 0, 70, 73
2, 56975, Note_on_c, 0, 54, 52
2, 56977, Note_on_c, 0, 61, 52
2, 57008, Control_c, 0, 64, 0
2, 57020, Control_c, 0, 64, 0
2, 57045, Control_c, 0, 64, 127
2, 57057, Control_c, 0, 64, 127
2, 57128, Note_off_c, 0, 78, 64
2, 57131, Note_off_c, 0, 66, 64
2, 57132, Note_off_c, 0, 70, 64
2, 57132, Note_off_c, 0, 82, 64
2, 57134, Note_off_c, 0, 54, 64
2, 57136, Note_off_c, 0, 61, 64
2, 57302, Control_c, 0, 64, 0
2, 57313, Control_c, 0, 64, 127
2, 57314, Control_c, 0, 64, 0
2, 57325, Control_c, 0, 64, 127
2, 57335, Control_c, 0, 64, 0
2, 57343, Note_on_c, 0, 44, 56
2, 57343, Note_on_c, 0, 32, 56
2, 57347, Control_c, 0, 64, 0
2, 57366, Control_c, 0, 64, 127
2, 57378, Control_c, 0, 64, 127
2, 57466, Note_on_c, 0, 80, 49
2, 57469, Note_on_c, 0, 76, 53
2, 57471, Note_on_c, 0, 68, 53
2, 57504, Note_off_c, 0, 32, 64
2, 57504, Note_off_c, 0, 44, 64
2, 57513, Note_off_c, 0, 80, 64
2, 57516, Note_off_c, 0, 76, 64
2, 57518, Note_off_c, 0, 68, 64
2, 57528, Note_on_c, 0, 80, 47
2, 57529, Note_on_c, 0, 76, 52
2, 57529, Note_on_c, 0, 64, 46
2, 57529, Note_on_c, 0, 52, 45
2, 57533, Note_on_c, 0, 68, 52
2, 57534, Note_on_c, 0, 59, 46
2, 57534, Control_c, 0, 64, 0
2, 57545, Control_c, 0, 64, 127
2, 57546, Control_c, 0, 64, 0
2, 57557, Control_c, 0, 64, 127
2, 57603, Note_off_c, 0, 52, 64
2, 57603, Note_off_c, 0, 64, 64
2, 57608, Note_off_c, 0, 59, 64
2, 57705, Note_on_c, 0, 78, 43
2, 57707, Note_off_c, 0, 80, 64
2, 57707, Note_on_c, 0, 70, 52
2, 57708, Note_off_c, 0, 76, 64
2, 57710, Note_on_c, 0, 82, 46
2, 57712, Note_off_c, 0, 68, 64
2, 57713, Note_on_c, 0, 46, 52
2, 57718, Note_on_c, 0, 34, 52
2, 57834, Control_c, 0, 64, 0
2, 57844, Note_on_c, 0, 68, 49
2, 57845, Control_c, 0, 64, 127
2, 57845, Note_on_c, 0, 80, 49
2, 57845, Note_on_c, 0, 76, 45
2, 57846, Note_off_c, 0, 78, 64
2, 57846, Control_c, 0, 64, 0
2, 57848, Note_off_c, 0, 70, 64
2, 57851, Note_off_c, 0, 82, 64
2, 57857, Control_c, 0, 64, 127
2, 57874, Note_off_c, 0, 46, 64
2, 57879, Note_off_c, 0, 34, 64
2, 57891, Note_off_c, 0, 68, 64
2, 57892, Note_off_c, 0, 76, 64
2, 57892, Note_off_c, 0, 80, 64
2, 57902, Note_on_c, 0, 35, 38
2, 57905, Note_on_c, 0, 68, 43
2, 57906, Note_on_c, 0, 47, 38
2, 57909, Control_c, 0, 64, 0
2, 57909, Note_on_c, 0, 80, 43
2, 57911, Note_on_c, 0, 76, 36
2, 57921, Control_c, 0, 64, 127
2, 57921, Control_c, 0, 64, 0
2, 57933, Control_c, 0, 64, 127
2, 58063, Note_off_c, 0, 35, 64
2, 58067, Note_off_c, 0, 47, 64
2, 58081, Note_on_c, 0, 54, 17
2, 58085, Note_on_c, 0, 78, 39
2, 58085, Note_on_c, 0, 75, 42
2, 58085, Note_on_c, 0, 66, 35
2, 58085, Note_on_c, 0, 63, 28
2, 58085, Note_on_c, 0, 51, 23
2, 58086, Note_on_c, 0, 59, 23
2, 58099, Note_off_c, 0, 68, 64
2, 58103, Note_off_c, 0, 80, 64
2, 58105, Note_off_c, 0, 76, 64
2, 58128, Note_off_c, 0, 54, 64
2, 58132, Note_off_c, 0, 51, 64
2, 58132, Note_off_c, 0, 63, 64
2, 58132, Note_off_c, 0, 66, 64
2, 58132, Note_off_c, 0, 75, 64
2, 58132, Note_off_c, 0, 78, 64
2, 58133, Note_off_c, 0, 59, 64
2, 58138, Control_c, 0, 64, 0
2, 58145, Note_on_c, 0, 78, 35
2, 58145, Note_on_c, 0, 75, 38
2, 58145, Note_on_c, 0, 66, 28
2, 58145, Note_on_c, 0, 54, 16
2, 58145, Note_on_c, 0, 51, 15
2, 58148, Note_on_c, 0, 63, 19
2, 58148, Note_on_c, 0, 59, 20
2, 58150, Control_c, 0, 64, 0
2, 58171, Control_c, 0, 64, 127
2, 58183, Control_c, 0, 64, 127
2, 58219, Note_off_c, 0, 51, 64
2, 58219, Note_off_c, 0, 54, 64
2, 58222, Note_off_c, 0, 59, 64
2, 58222, Note_off_c, 0, 63, 64
2, 58304, Note_off_c, 0, 66, 64
2, 58304, Note_off_c, 0, 75, 64
2, 58304, Note_off_c, 0, 78, 64
2, 58310, Control_c, 0, 64, 0
2, 58322, Control_c, 0, 64, 0
2, 58624, Note_on_c, 0, 40, 39
2, 58625, Note_on_c, 0, 52, 41
2, 58637, Control_c, 0, 64, 0
2, 58649, Control_c, 0, 64, 127
2, 58649, Control_c, 0, 64, 0
2, 58661, Control_c, 0, 64, 127
2, 58749, Note_on_c, 0, 68, 38
2, 58755, Note_on_c, 0, 66, 36
2, 58755, Note_on_c, 0, 55, 38
2, 58783, Note_off_c, 0, 66, 64
2, 58785, Note_off_c, 0, 68, 64
2, 58785, Note_off_c, 0, 40, 64
2, 58786, Note_off_c, 0, 52, 64
2, 58798, Note_on_c, 0, 56, 26
2, 58808, Note_on_c, 0, 68, 38
2, 58808, Note_on_c, 0, 66, 36
2, 58812, Control_c, 0, 64, 0
2, 58821, Note_off_c, 0, 55, 64
2, 58824, Control_c, 0, 64, 0
2, 58852, Control_c, 0, 64, 127
2, 58864, Control_c, 0, 64, 127
2, 58997, Note_on_c, 0, 73, 26
2, 59004, Note_on_c, 0, 76, 27
2, 59005, Note_on_c, 0, 64, 26
2, 59008, Note_on_c, 0, 61, 26
2, 59013, Note_off_c, 0, 56, 64
2, 59021, Note_off_c, 0, 66, 64
2, 59021, Note_off_c, 0, 68, 64
2, 59062, Note_off_c, 0, 61, 64
2, 59187, Note_on_c, 0, 42, 28
2, 59195, Note_off_c, 0, 73, 64
2, 59202, Note_off_c, 0, 76, 64
2, 59203, Note_off_c, 0, 64, 64
2, 59296, Note_on_c, 0, 66, 45
2, 59297, Note_on_c, 0, 64, 41
2, 59302, Note_on_c, 0, 53, 32
2, 59327, Note_off_c, 0, 66, 64
2, 59328, Note_off_c, 0, 64, 64
2, 59342, Note_on_c, 0, 54, 23
2, 59348, Note_off_c, 0, 42, 64
2, 59352, Note_on_c, 0, 66, 42
2, 59352, Note_on_c, 0, 64, 38
2, 59360, Control_c, 0, 64, 0
2, 59368, Note_off_c, 0, 53, 64
2, 59372, Control_c, 0, 64, 0
2, 59400, Control_c, 0, 64, 127
2, 59412, Control_c, 0, 64, 127
2, 59532, Note_on_c, 0, 75, 24
2, 59533, Note_on_c, 0, 71, 27
2, 59535, Note_on_c, 0, 63, 28
2, 59541, Note_on_c, 0, 59, 23
2, 59555, Note_off_c, 0, 64, 64
2, 59555, Note_off_c, 0, 66, 64
2, 59560, Note_off_c, 0, 54, 64
2, 59595, Note_off_c, 0, 59, 64
2, 59693, Control_c, 0, 64, 0
2, 59705, Control_c, 0, 64, 0
2, 59716, Note_on_c, 0, 42, 39
2, 59717, Control_c, 0, 64, 127
2, 59729, Control_c, 0, 64, 127
2, 59730, Note_off_c, 0, 75, 64
2, 59731, Note_off_c, 0, 71, 64
2, 59733, Note_off_c, 0, 63, 64
2, 60004, Note_on_c, 0, 61, 50
2, 60008, Note_on_c, 0, 73, 36
2, 60008, Note_on_c, 0, 70, 36
2, 60109, Note_on_c, 0, 75, 31
2, 60109, Note_on_c, 0, 71, 35
2, 60109, Note_on_c, 0, 63, 38
2, 60124, Note_off_c, 0, 61, 64
2, 60128, Note_off_c, 0, 70, 64
2, 60128, Note_off_c, 0, 73, 64
2, 60147, Note_off_c, 0, 42, 64
2, 60164, Control_c, 0, 64, 0
2, 60176, Control_c, 0, 64, 127
2, 60176, Control_c, 0, 64, 0
2, 60188, Control_c, 0, 64, 127
2, 60197, Note_on_c, 0, 73, 38
2, 60197, Note_on_c, 0, 70, 23
2, 60197, Note_on_c, 0, 61, 32
2, 60203, Note_off_c, 0, 63, 64
2, 60203, Note_off_c, 0, 71, 64
2, 60203, Note_off_c, 0, 75, 64
2, 60312, Note_on_c, 0, 75, 26
2, 60314, Note_on_c, 0, 71, 23
2, 60314, Note_on_c, 0, 63, 26
2, 60320, Note_off_c, 0, 61, 64
2, 60320, Note_off_c, 0, 70, 64
2, 60320, Note_off_c, 0, 73, 64
2, 60484, Note_on_c, 0, 73, 31
2, 60484, Note_on_c, 0, 70, 31
2, 60484, Note_on_c, 0, 61, 24
2, 60506, Note_off_c, 0, 75, 64
2, 60508, Note_off_c, 0, 63, 64
2, 60508, Note_off_c, 0, 71, 64
2, 60533, Note_on_c, 0, 71, 27
2, 60535, Note_on_c, 0, 75, 30
2, 60540, Note_on_c, 0, 63, 31
2, 60542, Control_c, 0, 64, 0
2, 60554, Control_c, 0, 64, 0
2, 60572, Control_c, 0, 64, 127
2, 60576, Note_off_c, 0, 61, 64
2, 60576, Note_off_c, 0, 70, 64
2, 60576, Note_off_c, 0, 73, 64
2, 60584, Control_c, 0, 64, 127
2, 60757, Note_on_c, 0, 73, 27
2, 60764, Note_on_c, 0, 70, 17
2, 60765, Note_on_c, 0, 61, 26
2, 60773, Note_off_c, 0, 75, 64
2, 60773, Note_off_c, 0, 71, 64
2, 60801, Note_off_c, 0, 63, 64
2, 60960, Note_on_c, 0, 67, 53
2, 60967, Note_on_c, 0, 52, 46
2, 60980, Note_off_c, 0, 73, 64
2, 60987, Note_off_c, 0, 70, 64
2, 61047, Control_c, 0, 64, 0
2, 61059, Control_c, 0, 64, 0
2, 61098, Control_c, 0, 64, 127
2, 61110, Control_c, 0, 64, 127
2, 61321, Note_on_c, 0, 51, 26
2, 61351, Note_off_c, 0, 52, 64
2, 61408, Note_on_c, 0, 52, 24
2, 61428, Note_off_c, 0, 51, 64
2, 61572, Note_on_c, 0, 51, 31
2, 61591, Note_off_c, 0, 52, 64
2, 61658, Note_on_c, 0, 52, 27
2, 61659, Control_c, 0, 64, 0
2, 61668, Note_off_c, 0, 51, 64
2, 61671, Control_c, 0, 64, 0
2, 61812, Note_on_c, 0, 51, 26
2, 61828, Note_off_c, 0, 52, 64
2, 61887, Note_on_c, 0, 52, 24
2, 61909, Note_off_c, 0, 51, 64
2, 62069, Control_c, 0, 64, 127
2, 62081, Control_c, 0, 64, 127
2, 62156, Note_on_c, 0, 51, 19
2, 62178, Note_off_c, 0, 52, 64
2, 62416, Note_on_c, 0, 63, 28
2, 62417, Note_on_c, 0, 66, 45
2, 62418, Note_on_c, 0, 45, 32
2, 62464, Note_off_c, 0, 51, 64
2, 62466, Control_c, 0, 64, 0
2, 62470, Note_off_c, 0, 67, 64
2, 62478, Control_c, 0, 64, 0
2, 62557, Control_c, 0, 64, 127
2, 62569, Control_c, 0, 64, 127
2, 62766, Note_on_c, 0, 44, 26
2, 62779, Note_on_c, 0, 60, 20
2, 62791, Note_off_c, 0, 45, 64
2, 62797, Note_off_c, 0, 61, 64
2, 62895, Note_on_c, 0, 61, 17
2, 62909, Note_on_c, 0, 45, 23
2, 62935, Note_off_c, 0, 44, 64
2, 62944, Note_off_c, 0, 60, 64
2, 63060, Note_on_c, 0, 60, 21
2, 63060, Note_on_c, 0, 44, 24
2, 63094, Note_off_c, 0, 61, 64
2, 63108, Note_off_c, 0, 45, 64
2, 63149, Note_on_c, 0, 61, 24
2, 63149, Note_on_c, 0, 45, 23
2, 63157, Control_c, 0, 64, 0
2, 63169, Control_c, 0, 64, 0
2, 63171, Note_off_c, 0, 44, 64
2, 63171, Note_off_c, 0, 60, 64
2, 63195, Control_c, 0, 64, 127
2, 63207, Control_c, 0, 64, 127
2, 63345, Note_on_c, 0, 60, 13
2, 63346, Note_on_c, 0, 44, 23
2, 63352, Note_off_c, 0, 45, 64
2, 63352, Note_off_c, 0, 61, 64
2, 63410, Note_on_c, 0, 61, 15
2, 63415, Control_c, 0, 64, 0
2, 63415, Note_on_c, 0, 45, 23
2, 63427, Control_c, 0, 64, 0
2, 63433, Note_off_c, 0, 60, 64
2, 63434, Note_off_c, 0, 44, 64
2, 63463, Control_c, 0, 64, 127
2, 63475, Control_c, 0, 64, 127
2, 63727, Note_on_c, 0, 44, 21
2, 63734, Note_on_c, 0, 60, 16
2, 63741, Note_off_c, 0, 45, 64
2, 63763, Note_off_c, 0, 61, 64
2, 63839, Note_off_c, 0, 66, 64
2, 63847, Note_off_c, 0, 63, 64
2, 63863, Note_off_c, 0, 44, 64
2, 63865, Note_off_c, 0, 60, 64
2, 64021, Note_on_c, 0, 37, 31
2, 64068, Note_on_c, 0, 44, 29
2, 64097, Note_on_c, 0, 61, 41
2, 64103, Note_on_c, 0, 64, 41
2, 64111, Note_on_c, 0, 52, 41
2, 64151, Note_off_c, 0, 37, 64
2, 64204, Note_off_c, 0, 44, 64
2, 64222, Note_off_c, 0, 52, 64
2, 64273, Note_off_c, 0, 61, 64
2, 64279, Note_off_c, 0, 64, 64
2, 64287, Note_on_c, 0, 66, 32
2, 64295, Note_on_c, 0, 69, 43
2, 64322, Note_on_c, 0, 71, 40
2, 64325, Note_on_c, 0, 37, 39
2, 64329, Note_off_c, 0, 69, 64
2, 64330, Note_off_c, 0, 66, 64
2, 64366, Note_on_c, 0, 69, 44
2, 64383, Note_off_c, 0, 71, 64
2, 64389, Note_on_c, 0, 44, 24
2, 64402, Note_on_c, 0, 64, 43
2, 64405, Note_on_c, 0, 68, 52
2, 64425, Note_off_c, 0, 69, 64
2, 64425, Note_on_c, 0, 52, 35
2, 64426, Control_c, 0, 64, 0
2, 64438, Control_c, 0, 64, 0
2, 64448, Control_c, 0, 64, 127
2, 64455, Note_off_c, 0, 37, 64
2, 64460, Control_c, 0, 64, 127
2, 64489, Note_off_c, 0, 44, 64
2, 64514, Note_off_c, 0, 52, 64
2, 64597, Note_on_c, 0, 37, 19
2, 64621, Note_on_c, 0, 44, 40
2, 64649, Note_on_c, 0, 73, 44
2, 64651, Note_on_c, 0, 76, 51
2, 64654, Control_c, 0, 64, 0
2, 64661, Note_on_c, 0, 52, 43
2, 64665, Note_off_c, 0, 64, 64
2, 64666, Control_c, 0, 64, 0
2, 64668, Note_off_c, 0, 68, 64
2, 64675, Control_c, 0, 64, 127
2, 64687, Control_c, 0, 64, 127
2, 64715, Note_off_c, 0, 44, 64
2, 64717, Note_off_c, 0, 37, 64
2, 64777, Note_off_c, 0, 52, 64
2, 64843, Note_off_c, 0, 73, 64
2, 64845, Note_off_c, 0, 76, 64
2, 64845, Note_on_c, 0, 37, 44
2, 64853, Note_on_c, 0, 75, 44
2, 64877, Note_on_c, 0, 44, 41
2, 64882, Note_on_c, 0, 76, 47
2, 64886, Note_off_c, 0, 75, 64
2, 64911, Control_c, 0, 64, 0
2, 64911, Note_on_c, 0, 75, 56
2, 64913, Note_on_c, 0, 54, 44
2, 64917, Note_on_c, 0, 72, 17
2, 64923, Control_c, 0, 64, 0
2, 64935, Note_off_c, 0, 76, 64
2, 64945, Control_c, 0, 64, 127
2, 64957, Control_c, 0, 64, 127
2, 64976, Note_off_c, 0, 44, 64
2, 64982, Note_off_c, 0, 37, 64
2, 65027, Note_off_c, 0, 54, 64
2, 65069, Note_on_c, 0, 37, 29
2, 65070, Note_off_c, 0, 75, 64
2, 65076, Note_off_c, 0, 72, 64
2, 65085, Note_on_c, 0, 73, 47
2, 65088, Note_on_c, 0, 70, 51
2, 65117, Note_on_c, 0, 44, 35
2, 65133, Note_on_c, 0, 72, 56
2, 65138, Note_on_c, 0, 75, 54
2, 65141, Note_on_c, 0, 54, 54
2, 65146, Control_c, 0, 64, 0
2, 65158, Control_c, 0, 64, 0
2, 65164, Note_off_c, 0, 73, 64
2, 65167, Note_off_c, 0, 70, 64
2, 65168, Control_c, 0, 64, 127
2, 65180, Control_c, 0, 64, 127
2, 65189, Note_off_c, 0, 44, 64
2, 65199, Note_off_c, 0, 37, 64
2, 65224, Note_off_c, 0, 54, 64
2, 65309, Note_on_c, 0, 37, 48
2, 65341, Note_on_c, 0, 44, 39
2, 65357, Note_on_c, 0, 73, 54
2, 65366, Note_on_c, 0, 76, 54
2, 65370, Note_on_c, 0, 52, 43
2, 65373, Note_off_c, 0, 72, 64
2, 65374, Control_c, 0, 64, 0
2, 65378, Note_off_c, 0, 75, 64
2, 65385, Control_c, 0, 64, 127
2, 65386, Control_c, 0, 64, 0
2, 65397, Control_c, 0, 64, 127
2, 65405, Note_off_c, 0, 37, 64
2, 65407, Note_off_c, 0, 44, 64
2, 65455, Note_off_c, 0, 52, 64
2, 65533, Note_on_c, 0, 37, 43
2, 65573, Note_on_c, 0, 44, 47
2, 65580, Note_off_c, 0, 73, 64
2, 65589, Note_off_c, 0, 76, 64
2, 65605, Note_on_c, 0, 64, 56
2, 65605, Note_on_c, 0, 52, 52
2, 65609, Note_on_c, 0, 68, 62
2, 65612, Control_c, 0, 64, 0
2, 65624, Control_c, 0, 64, 0
2, 65634, Control_c, 0, 64, 127
2, 65646, Control_c, 0, 64, 127
2, 65650, Note_off_c, 0, 44, 64
2, 65650, Note_off_c, 0, 37, 64
2, 65701, Note_off_c, 0, 52, 64
2, 65730, Note_off_c, 0, 64, 64
2, 65734, Note_off_c, 0, 68, 64
2, 65750, Note_on_c, 0, 69, 48
2, 65751, Note_on_c, 0, 66, 49
2, 65773, Note_on_c, 0, 71, 51
2, 65782, Note_off_c, 0, 69, 64
2, 65789, Note_on_c, 0, 37, 39
2, 65801, Note_off_c, 0, 66, 64
2, 65819, Note_on_c, 0, 69, 56
2, 65821, Note_on_c, 0, 44, 49
2, 65845, Note_off_c, 0, 71, 64
2, 65858, Note_on_c, 0, 64, 56
2, 65858, Note_on_c, 0, 52, 44
2, 65860, Control_c, 0, 64, 0
2, 65862, Note_on_c, 0, 68, 60
2, 65872, Control_c, 0, 64, 0
2, 65879, Note_off_c, 0, 69, 64
2, 65891, Control_c, 0, 64, 127
2, 65903, Note_off_c, 0, 37, 64
2, 65903, Control_c, 0, 64, 127
2, 65907, Note_off_c, 0, 44, 64
2, 65982, Note_off_c, 0, 52, 64
2, 66013, Note_on_c, 0, 37, 29
2, 66021, Note_off_c, 0, 68, 64
2, 66034, Note_off_c, 0, 64, 64
2, 66037, Note_on_c, 0, 44, 43
2, 66042, Note_on_c, 0, 68, 51
2, 66047, Note_on_c, 0, 64, 49
2, 66077, Note_on_c, 0, 73, 52
2, 66078, Note_on_c, 0, 52, 57
2, 66082, Control_c, 0, 64, 0
2, 66084, Note_on_c, 0, 76, 56
2, 66094, Control_c, 0, 64, 0
2, 66097, Control_c, 0, 64, 127
2, 66109, Control_c, 0, 64, 127
2, 66122, Note_off_c, 0, 44, 64
2, 66128, Note_off_c, 0, 68, 64
2, 66133, Note_off_c, 0, 64, 64
2, 66133, Note_off_c, 0, 37, 64
2, 66184, Note_off_c, 0, 52, 64
2, 66221, Note_off_c, 0, 73, 64
2, 66228, Note_off_c, 0, 76, 64
2, 66252, Note_on_c, 0, 75, 40
2, 66262, Note_on_c, 0, 37, 52
2, 66281, Note_off_c, 0, 75, 64
2, 66283, Note_on_c, 0, 76, 47
2, 66289, Note_on_c, 0, 44, 32
2, 66304, Note_on_c, 0, 54, 51
2, 66312, Note_on_c, 0, 75, 59
2, 66317, Control_c, 0, 64, 0
2, 66317, Note_on_c, 0, 72, 39
2, 66329, Control_c, 0, 64, 0
2, 66337, Note_off_c, 0, 76, 64
2, 66340, Control_c, 0, 64, 127
2, 66352, Control_c, 0, 64, 127
2, 66361, Note_off_c, 0, 37, 64
2, 66386, Note_off_c, 0, 44, 64
2, 66398, Note_off_c, 0, 54, 64
2, 66469, Note_off_c, 0, 75, 64
2, 66474, Note_off_c, 0, 72, 64
2, 66477, Note_on_c, 0, 70, 49
2, 66481, Note_on_c, 0, 73, 49
2, 66486, Note_on_c, 0, 37, 48
2, 66523, Note_on_c, 0, 44, 35
2, 66530, Note_on_c, 0, 75, 60
2, 66537, Note_on_c, 0, 72, 64
2, 66539, Note_on_c, 0, 54, 62
2, 66548, Control_c, 0, 64, 0
2, 66550, Note_off_c, 0, 70, 64
2, 66554, Note_off_c, 0, 73, 64
2, 66560, Control_c, 0, 64, 127
2, 66560, Control_c, 0, 64, 0
2, 66572, Control_c, 0, 64, 127
2, 66608, Note_off_c, 0, 44, 64
2, 66610, Note_off_c, 0, 37, 64
2, 66645, Note_off_c, 0, 54, 64
2, 66707, Note_on_c, 0, 37, 39
2, 66715, Note_off_c, 0, 75, 64
2, 66722, Note_off_c, 0, 72, 64
2, 66733, Note_on_c, 0, 44, 43
2, 66744, Note_on_c, 0, 73, 60
2, 66747, Control_c, 0, 64, 0
2, 66749, Note_on_c, 0, 76, 60
2, 66759, Control_c, 0, 64, 0
2, 66762, Control_c, 0, 64, 127
2, 66763, Note_on_c, 0, 52, 47
2, 66774, Control_c, 0, 64, 127
2, 66796, Note_off_c, 0, 37, 64
2, 66805, Note_off_c, 0, 44, 64
2, 66863, Note_off_c, 0, 52, 64
2, 66976, Note_on_c, 0, 32, 53
2, 66981, Control_c, 0, 64, 0
2, 66985, Note_on_c, 0, 78, 58
2, 66985, Note_on_c, 0, 75, 58
2, 66989, Note_off_c, 0, 76, 64
2, 66993, Control_c, 0, 64, 0
2, 66995, Note_off_c, 0, 73, 64
2, 67002, Control_c, 0, 64, 127
2, 67014, Control_c, 0, 64, 127
2, 67137, Note_off_c, 0, 32, 64
2, 67157, Note_on_c, 0, 76, 45
2, 67159, Note_on_c, 0, 80, 47
2, 67159, Note_on_c, 0, 44, 34
2, 67173, Note_off_c, 0, 75, 64
2, 67173, Note_off_c, 0, 78, 64
2, 67173, Note_on_c, 0, 51, 19
2, 67191, Note_on_c, 0, 54, 30
2, 67221, Note_on_c, 0, 81, 54
2, 67221, Note_on_c, 0, 78, 46
2, 67225, Note_on_c, 0, 60, 38
2, 67233, Note_off_c, 0, 76, 64
2, 67235, Note_off_c, 0, 80, 64
2, 67344, Note_off_c, 0, 60, 64
2, 67348, Note_off_c, 0, 44, 64
2, 67363, Note_off_c, 0, 54, 64
2, 67387, Note_on_c, 0, 83, 38
2, 67391, Note_off_c, 0, 78, 64
2, 67394, Note_on_c, 0, 44, 38
2, 67413, Note_off_c, 0, 81, 64
2, 67422, Note_on_c, 0, 81, 49
2, 67429, Note_on_c, 0, 78, 50
2, 67431, Note_on_c, 0, 54, 38
2, 67448, Note_off_c, 0, 83, 64
2, 67461, Note_on_c, 0, 60, 39
2, 67530, Note_off_c, 0, 81, 64
2, 67537, Note_off_c, 0, 78, 64
2, 67539, Note_on_c, 0, 80, 56
2, 67541, Note_on_c, 0, 76, 49
2, 67549, Note_off_c, 0, 44, 64
2, 67558, Note_off_c, 0, 54, 64
2, 67612, Note_on_c, 0, 44, 31
2, 67617, Note_off_c, 0, 51, 64
2, 67619, Note_off_c, 0, 60, 64
2, 67638, Note_on_c, 0, 78, 61
2, 67646, Note_off_c, 0, 80, 64
2, 67648, Note_off_c, 0, 76, 64
2, 67654, Note_on_c, 0, 51, 17
2, 67667, Note_on_c, 0, 80, 61
2, 67668, Note_on_c, 0, 54, 23
2, 67674, Note_off_c, 0, 78, 64
2, 67692, Control_c, 0, 64, 0
2, 67700, Note_on_c, 0, 60, 42
2, 67704, Control_c, 0, 64, 0
2, 67708, Control_c, 0, 64, 127
2, 67709, Note_on_c, 0, 75, 49
2, 67710, Note_on_c, 0, 78, 46
2, 67720, Control_c, 0, 64, 127
2, 67726, Note_off_c, 0, 80, 64
2, 67756, Note_off_c, 0, 44, 64
2, 67812, Note_off_c, 0, 54, 64
2, 67835, Note_off_c, 0, 75, 64
2, 67836, Note_off_c, 0, 78, 64
2, 67847, Note_on_c, 0, 76, 46
2, 67849, Note_on_c, 0, 73, 27
2, 67851, Note_on_c, 0, 44, 27
2, 67859, Note_off_c, 0, 60, 64
2, 67894, Note_on_c, 0, 54, 17
2, 67907, Note_on_c, 0, 78, 49
2, 67907, Note_on_c, 0, 60, 41
2, 67914, Note_on_c, 0, 75, 46
2, 67915, Control_c, 0, 64, 0
2, 67923, Note_off_c, 0, 76, 64
2, 67925, Note_off_c, 0, 73, 64
2, 67927, Control_c, 0, 64, 0
2, 67929, Control_c, 0, 64, 127
2, 67941, Control_c, 0, 64, 127
2, 67975, Note_off_c, 0, 44, 64
2, 68025, Note_off_c, 0, 54, 64
2, 68051, Note_off_c, 0, 60, 64
2, 68053, Note_on_c, 0, 44, 31
2, 68092, Note_off_c, 0, 51, 64
2, 68106, Note_on_c, 0, 52, 32
2, 68127, Note_on_c, 0, 80, 46
2, 68127, Note_on_c, 0, 76, 52
2, 68130, Note_off_c, 0, 78, 64
2, 68134, Note_on_c, 0, 61, 38
2, 68137, Note_off_c, 0, 75, 64
2, 68137, Control_c, 0, 64, 0
2, 68147, Control_c, 0, 64, 127
2, 68149, Control_c, 0, 64, 0
2, 68159, Control_c, 0, 64, 127
2, 68229, Note_off_c, 0, 44, 64
2, 68305, Note_on_c, 0, 32, 56
2, 68316, Note_off_c, 0, 52, 64
2, 68366, Note_off_c, 0, 76, 64
2, 68366, Note_off_c, 0, 80, 64
2, 68382, Control_c, 0, 64, 0
2, 68383, Note_on_c, 0, 78, 46
2, 68384, Note_on_c, 0, 75, 54
2, 68394, Control_c, 0, 64, 0
2, 68400, Note_off_c, 0, 61, 64
2, 68405, Control_c, 0, 64, 127
2, 68417, Control_c, 0, 64, 127
2, 68466, Note_off_c, 0, 32, 64
2, 68541, Note_on_c, 0, 44, 38
2, 68556, Note_off_c, 0, 78, 64
2, 68557, Note_off_c, 0, 75, 64
2, 68564, Note_on_c, 0, 80, 41
2, 68567, Note_on_c, 0, 76, 50
2, 68581, Note_on_c, 0, 51, 24
2, 68602, Note_on_c, 0, 54, 32
2, 68621, Note_on_c, 0, 78, 50
2, 68626, Note_on_c, 0, 81, 47
2, 68629, Note_off_c, 0, 80, 64
2, 68629, Control_c, 0, 64, 0
2, 68629, Note_on_c, 0, 60, 43
2, 68632, Note_off_c, 0, 76, 64
2, 68641, Control_c, 0, 64, 0
2, 68652, Control_c, 0, 64, 127
2, 68664, Control_c, 0, 64, 127
2, 68737, Note_off_c, 0, 44, 64
2, 68760, Note_off_c, 0, 51, 64
2, 68786, Note_off_c, 0, 54, 64
2, 68814, Note_on_c, 0, 83, 41
2, 68822, Note_off_c, 0, 78, 64
2, 68827, Note_off_c, 0, 60, 64
2, 68827, Note_off_c, 0, 81, 64
2, 68845, Note_on_c, 0, 81, 46
2, 68847, Note_on_c, 0, 78, 38
2, 68875, Note_off_c, 0, 83, 64
2, 68954, Note_on_c, 0, 80, 50
2, 68961, Note_on_c, 0, 76, 39
2, 68964, Note_off_c, 0, 81, 64
2, 68966, Note_off_c, 0, 78, 64
2, 69057, Note_on_c, 0, 78, 46
2, 69064, Note_off_c, 0, 80, 64
2, 69064, Note_on_c, 0, 75, 41
2, 69071, Note_off_c, 0, 76, 64
2, 69163, Note_on_c, 0, 73, 38
2, 69166, Note_on_c, 0, 76, 39
2, 69186, Note_off_c, 0, 75, 64
2, 69193, Note_off_c, 0, 78, 64
2, 69288, Note_off_c, 0, 76, 64
2, 69292, Note_on_c, 0, 75, 32
2, 69296, Note_on_c, 0, 72, 30
2, 69311, Note_off_c, 0, 73, 64
2, 69463, Note_on_c, 0, 69, 30
2, 69465, Note_on_c, 0, 73, 31
2, 69470, Note_off_c, 0, 75, 64
2, 69474, Note_off_c, 0, 72, 64
2, 69519, Control_c, 0, 64, 0
2, 69531, Control_c, 0, 64, 0
2, 69558, Control_c, 0, 64, 127
2, 69570, Control_c, 0, 64, 127
2, 69811, Note_off_c, 0, 69, 64
2, 69813, Note_off_c, 0, 73, 64
2, 69837, Note_on_c, 0, 69, 23
2, 69837, Note_on_c, 0, 66, 23
2, 69853, Control_c, 0, 64, 0
2, 69865, Control_c, 0, 64, 0
2, 69884, Control_c, 0, 64, 127
2, 69896, Control_c, 0, 64, 127
2, 70033, Note_on_c, 0, 37, 36
2, 70071, Note_off_c, 0, 66, 64
2, 70071, Note_off_c, 0, 69, 64
2, 70084, Note_on_c, 0, 44, 30
2, 70122, Note_on_c, 0, 52, 36
2, 70129, Note_on_c, 0, 68, 36
2, 70132, Note_on_c, 0, 64, 36
2, 70141, Control_c, 0, 64, 0
2, 70150, Note_off_c, 0, 37, 64
2, 70153, Control_c, 0, 64, 0
2, 70154, Control_c, 0, 64, 127
2, 70166, Control_c, 0, 64, 127
2, 70197, Note_off_c, 0, 44, 64
2, 70255, Note_off_c, 0, 52, 64
2, 70276, Note_off_c, 0, 64, 64
2, 70284, Note_off_c, 0, 68, 64
2, 70285, Note_on_c, 0, 66, 41
2, 70291, Note_on_c, 0, 69, 35
2, 70319, Note_on_c, 0, 71, 30
2, 70332, Note_off_c, 0, 69, 64
2, 70341, Note_on_c, 0, 37, 38
2, 70346, Note_off_c, 0, 66, 64
2, 70364, Note_on_c, 0, 69, 46
2, 70380, Note_off_c, 0, 71, 64
2, 70381, Note_on_c, 0, 44, 36
2, 70397, Note_on_c, 0, 64, 31
2, 70403, Note_on_c, 0, 68, 50
2, 70414, Control_c, 0, 64, 0
2, 70422, Note_off_c, 0, 69, 64
2, 70426, Note_on_c, 0, 52, 20
2, 70426, Control_c, 0, 64, 0
2, 70443, Control_c, 0, 64, 127
2, 70451, Note_off_c, 0, 37, 64
2, 70455, Control_c, 0, 64, 127
2, 70534, Note_off_c, 0, 44, 64
2, 70554, Note_off_c, 0, 52, 64
2, 70597, Note_on_c, 0, 37, 32
2, 70638, Note_on_c, 0, 44, 27
2, 70645, Note_on_c, 0, 73, 38
2, 70646, Note_on_c, 0, 76, 45
2, 70648, Note_off_c, 0, 64, 64
2, 70650, Note_on_c, 0, 52, 39
2, 70654, Note_off_c, 0, 68, 64
2, 70730, Note_off_c, 0, 37, 64
2, 70765, Note_off_c, 0, 44, 64
2, 70778, Note_off_c, 0, 52, 64
2, 70825, Note_on_c, 0, 37, 41
2, 70832, Note_on_c, 0, 75, 35
2, 70837, Note_off_c, 0, 73, 64
2, 70838, Note_off_c, 0, 76, 64
2, 70858, Note_on_c, 0, 76, 41
2, 70861, Note_on_c, 0, 44, 36
2, 70865, Note_off_c, 0, 75, 64
2, 70889, Note_on_c, 0, 54, 42
2, 70893, Note_on_c, 0, 72, 30
2, 70893, Control_c, 0, 64, 0
2, 70894, Note_on_c, 0, 75, 46
2, 70905, Control_c, 0, 64, 0
2, 70917, Note_off_c, 0, 76, 64
2, 70919, Control_c, 0, 64, 127
2, 70931, Control_c, 0, 64, 127
2, 70949, Note_off_c, 0, 37, 64
2, 70997, Note_off_c, 0, 44, 64
2, 71002, Note_off_c, 0, 54, 64
2, 71052, Note_on_c, 0, 37, 39
2, 71061, Note_on_c, 0, 70, 28
2, 71062, Note_on_c, 0, 73, 39
2, 71075, Note_off_c, 0, 72, 64
2, 71076, Note_off_c, 0, 75, 64
2, 71084, Note_on_c, 0, 44, 35
2, 71114, Note_on_c, 0, 72, 49
2, 71114, Note_on_c, 0, 54, 49
2, 71117, Note_on_c, 0, 75, 46
2, 71125, Note_off_c, 0, 70, 64
2, 71126, Note_off_c, 0, 73, 64
2, 71128, Control_c, 0, 64, 0
2, 71140, Control_c, 0, 64, 0
2, 71142, Control_c, 0, 64, 127
2, 71154, Control_c, 0, 64, 127
2, 71157, Note_off_c, 0, 37, 64
2, 71190, Note_off_c, 0, 44, 64
2, 71250, Note_off_c, 0, 54, 64
2, 71274, Note_on_c, 0, 37, 30
2, 71313, Note_on_c, 0, 44, 35
2, 71328, Note_on_c, 0, 73, 50
2, 71332, Note_on_c, 0, 76, 46
2, 71335, Control_c, 0, 64, 0
2, 71339, Note_off_c, 0, 72, 64
2, 71340, Note_on_c, 0, 52, 38
2, 71342, Note_off_c, 0, 75, 64
2, 71347, Control_c, 0, 64, 0
2, 71350, Control_c, 0, 64, 127
2, 71362, Control_c, 0, 64, 127
2, 71413, Note_off_c, 0, 44, 64
2, 71416, Note_off_c, 0, 37, 64
2, 71446, Note_off_c, 0, 52, 64
2, 71498, Note_on_c, 0, 37, 36
2, 71520, Note_off_c, 0, 73, 64
2, 71524, Note_off_c, 0, 76, 64
2, 71530, Note_on_c, 0, 44, 36
2, 71538, Note_on_c, 0, 68, 41
2, 71543, Note_on_c, 0, 64, 41
2, 71559, Note_on_c, 0, 52, 32
2, 71616, Note_off_c, 0, 44, 64
2, 71622, Note_off_c, 0, 37, 64
2, 71644, Note_off_c, 0, 52, 64
2, 71660, Note_on_c, 0, 69, 35
2, 71661, Note_on_c, 0, 66, 41
2, 71662, Note_off_c, 0, 68, 64
2, 71667, Note_off_c, 0, 64, 64
2, 71689, Note_on_c, 0, 71, 45
2, 71710, Note_off_c, 0, 69, 64
2, 71711, Note_off_c, 0, 66, 64
2, 71722, Note_on_c, 0, 37, 28
2, 71734, Note_on_c, 0, 69, 46
2, 71757, Note_off_c, 0, 71, 64
2, 71757, Note_on_c, 0, 44, 31
2, 71763, Note_on_c, 0, 68, 49
2, 71765, Note_on_c, 0, 64, 41
2, 71774, Note_on_c, 0, 52, 36
2, 71788, Note_off_c, 0, 69, 64
2, 71862, Note_off_c, 0, 44, 64
2, 71866, Note_off_c, 0, 37, 64
2, 71867, Note_off_c, 0, 52, 64
2, 71925, Note_off_c, 0, 68, 64
2, 71927, Note_off_c, 0, 64, 64
2, 71945, Note_on_c, 0, 68, 38
2, 71948, Note_on_c, 0, 64, 36
2, 71962, Note_on_c, 0, 37, 30
2, 71989, Note_on_c, 0, 73, 46
2, 71990, Note_on_c, 0, 76, 46
2, 71992, Note_on_c, 0, 44, 36
2, 72001, Note_off_c, 0, 68, 64
2, 72004, Note_on_c, 0, 52, 36
2, 72010, Note_off_c, 0, 64, 64
2, 72016, Control_c, 0, 64, 0
2, 72028, Control_c, 0, 64, 0
2, 72048, Control_c, 0, 64, 127
2, 72060, Control_c, 0, 64, 127
2, 72083, Note_off_c, 0, 44, 64
2, 72096, Note_off_c, 0, 37, 64
2, 72100, Note_off_c, 0, 52, 64
2, 72187, Note_on_c, 0, 75, 24
2, 72189, Note_off_c, 0, 73, 64
2, 72190, Note_off_c, 0, 76, 64
2, 72193, Note_on_c, 0, 37, 32
2, 72223, Note_on_c, 0, 76, 36
2, 72227, Note_on_c, 0, 44, 31
2, 72234, Note_off_c, 0, 75, 64
2, 72249, Note_on_c, 0, 72, 36
2, 72254, Note_on_c, 0, 75, 50
2, 72260, Note_on_c, 0, 54, 46
2, 72261, Control_c, 0, 64, 0
2, 72273, Control_c, 0, 64, 0
2, 72275, Control_c, 0, 64, 127
2, 72279, Note_off_c, 0, 76, 64
2, 72287, Control_c, 0, 64, 127
2, 72306, Note_off_c, 0, 37, 64
2, 72341, Note_off_c, 0, 44, 64
2, 72374, Note_off_c, 0, 54, 64
2, 72445, Note_on_c, 0, 70, 38
2, 72445, Note_on_c, 0, 37, 45
2, 72449, Note_on_c, 0, 73, 42
2, 72452, Note_off_c, 0, 72, 64
2, 72457, Note_off_c, 0, 75, 64
2, 72483, Note_on_c, 0, 44, 31
2, 72493, Note_on_c, 0, 75, 49
2, 72497, Note_on_c, 0, 72, 46
2, 72507, Note_on_c, 0, 54, 49
2, 72510, Note_off_c, 0, 70, 64
2, 72514, Note_off_c, 0, 73, 64
2, 72523, Control_c, 0, 64, 0
2, 72535, Control_c, 0, 64, 127
2, 72535, Control_c, 0, 64, 0
2, 72547, Control_c, 0, 64, 127
2, 72551, Note_off_c, 0, 37, 64
2, 72599, Note_off_c, 0, 44, 64
2, 72600, Note_off_c, 0, 54, 64
2, 72674, Note_on_c, 0, 37, 36
2, 72713, Note_on_c, 0, 44, 30
2, 72734, Note_on_c, 0, 73, 46
2, 72738, Note_on_c, 0, 76, 42
2, 72739, Note_off_c, 0, 75, 64
2, 72743, Note_off_c, 0, 72, 64
2, 72745, Note_on_c, 0, 52, 39
2, 72801, Note_off_c, 0, 44, 64
2, 72802, Note_off_c, 0, 37, 64
2, 72853, Note_off_c, 0, 52, 64
2, 72997, Note_off_c, 0, 73, 64
2, 72997, Note_on_c, 0, 35, 63
2, 73000, Note_on_c, 0, 75, 69
2, 73001, Note_off_c, 0, 76, 64
2, 73001, Control_c, 0, 64, 0
2, 73004, Note_on_c, 0, 78, 69
2, 73013, Control_c, 0, 64, 0
2, 73039, Control_c, 0, 64, 127
2, 73051, Control_c, 0, 64, 127
2, 73158, Note_off_c, 0, 35, 64
2, 73185, Note_on_c, 0, 47, 35
2, 73199, Note_on_c, 0, 76, 57
2, 73202, Note_on_c, 0, 80, 57
2, 73205, Note_off_c, 0, 75, 64
2, 73205, Note_on_c, 0, 54, 38
2, 73209, Note_off_c, 0, 78, 64
2, 73231, Note_on_c, 0, 57, 43
2, 73249, Note_on_c, 0, 81, 69
2, 73249, Note_on_c, 0, 78, 61
2, 73261, Note_on_c, 0, 63, 21
2, 73266, Control_c, 0, 64, 0
2, 73270, Note_off_c, 0, 76, 64
2, 73278, Control_c, 0, 64, 0
2, 73279, Control_c, 0, 64, 127
2, 73284, Note_off_c, 0, 80, 64
2, 73291, Control_c, 0, 64, 127
2, 73321, Note_off_c, 0, 47, 64
2, 73375, Note_off_c, 0, 63, 64
2, 73411, Note_on_c, 0, 83, 61
2, 73414, Note_on_c, 0, 47, 43
2, 73426, Note_off_c, 0, 78, 64
2, 73426, Note_off_c, 0, 81, 64
2, 73427, Note_off_c, 0, 57, 64
2, 73441, Note_on_c, 0, 81, 63
2, 73445, Note_on_c, 0, 78, 69
2, 73451, Note_on_c, 0, 57, 46
2, 73463, Note_off_c, 0, 83, 64
2, 73480, Note_on_c, 0, 63, 50
2, 73524, Note_off_c, 0, 47, 64
2, 73561, Note_on_c, 0, 80, 61
2, 73561, Note_on_c, 0, 76, 56
2, 73571, Note_off_c, 0, 81, 64
2, 73575, Note_off_c, 0, 78, 64
2, 73582, Note_off_c, 0, 57, 64
2, 73608, Note_off_c, 0, 63, 64
2, 73640, Note_on_c, 0, 47, 36
2, 73650, Note_on_c, 0, 78, 78
2, 73663, Note_off_c, 0, 76, 64
2, 73663, Note_off_c, 0, 80, 64
2, 73678, Note_on_c, 0, 80, 73
2, 73688, Note_on_c, 0, 57, 38
2, 73692, Note_off_c, 0, 78, 64
2, 73697, Note_on_c, 0, 63, 52
2, 73713, Note_on_c, 0, 78, 68
2, 73713, Note_on_c, 0, 75, 58
2, 73730, Note_off_c, 0, 80, 64
2, 73764, Note_off_c, 0, 47, 64
2, 73799, Note_off_c, 0, 57, 64
2, 73813, Note_off_c, 0, 63, 64
2, 73841, Note_on_c, 0, 73, 64
2, 73845, Note_on_c, 0, 47, 21
2, 73846, Note_on_c, 0, 76, 68
2, 73859, Note_off_c, 0, 75, 64
2, 73859, Note_off_c, 0, 78, 64
2, 73902, Note_on_c, 0, 57, 31
2, 73912, Note_off_c, 0, 73, 64
2, 73912, Note_on_c, 0, 78, 67
2, 73912, Note_on_c, 0, 75, 73
2, 73914, Control_c, 0, 64, 0
2, 73917, Note_off_c, 0, 76, 64
2, 73918, Note_on_c, 0, 63, 52
2, 73926, Control_c, 0, 64, 0
2, 73939, Control_c, 0, 64, 127
2, 73951, Control_c, 0, 64, 127
2, 73965, Note_off_c, 0, 54, 64
2, 73989, Note_off_c, 0, 47, 64
2, 73998, Note_off_c, 0, 57, 64
2, 74055, Note_off_c, 0, 63, 64
2, 74056, Note_on_c, 0, 47, 20
2, 74069, Note_on_c, 0, 52, 35
2, 74102, Note_on_c, 0, 56, 43
2, 74129, Note_on_c, 0, 80, 69
2, 74132, Note_on_c, 0, 76, 73
2, 74132, Note_on_c, 0, 64, 49
2, 74139, Note_off_c, 0, 75, 64
2, 74139, Note_off_c, 0, 78, 64
2, 74178, Note_off_c, 0, 47, 64
2, 74188, Note_off_c, 0, 52, 64
2, 74260, Note_off_c, 0, 56, 64
2, 74287, Note_off_c, 0, 64, 64
2, 74300, Note_on_c, 0, 47, 24
2, 74309, Note_on_c, 0, 54, 38
2, 74350, Note_on_c, 0, 57, 28
2, 74353, Control_c, 0, 64, 0
2, 74361, Note_off_c, 0, 80, 64
2, 74364, Note_off_c, 0, 76, 64
2, 74365, Control_c, 0, 64, 0
2, 74391, Control_c, 0, 64, 127
2, 74401, Note_on_c, 0, 75, 56
2, 74403, Control_c, 0, 64, 127
2, 74404, Note_on_c, 0, 78, 53
2, 74419, Note_on_c, 0, 63, 50
2, 74462, Note_off_c, 0, 57, 64
2, 74473, Note_off_c, 0, 47, 64
2, 74507, Note_on_c, 0, 80, 65
2, 74509, Note_on_c, 0, 76, 67
2, 74519, Note_off_c, 0, 75, 64
2, 74522, Note_off_c, 0, 78, 64
2, 74550, Note_off_c, 0, 63, 64
2, 74599, Note_on_c, 0, 81, 73
2, 74599, Note_on_c, 0, 78, 69
2, 74599, Note_on_c, 0, 47, 35
2, 74611, Note_off_c, 0, 80, 64
2, 74613, Note_off_c, 0, 76, 64
2, 74646, Note_on_c, 0, 57, 31
2, 74658, Control_c, 0, 64, 0
2, 74662, Note_on_c, 0, 63, 52
2, 74670, Control_c, 0, 64, 0
2, 74683, Control_c, 0, 64, 127
2, 74695, Control_c, 0, 64, 127
2, 74700, Note_on_c, 0, 83, 83
2, 74704, Note_on_c, 0, 80, 73
2, 74707, Note_off_c, 0, 78, 64
2, 74707, Note_off_c, 0, 81, 64
2, 74740, Note_off_c, 0, 47, 64
2, 74783, Note_off_c, 0, 83, 64
2, 74787, Note_off_c, 0, 80, 64
2, 74789, Note_on_c, 0, 87, 71
2, 74789, Note_on_c, 0, 83, 61
2, 74794, Note_off_c, 0, 57, 64
2, 74799, Note_off_c, 0, 63, 64
2, 74829, Note_off_c, 0, 54, 64
2, 74881, Note_on_c, 0, 85, 73
2, 74881, Note_on_c, 0, 81, 69
2, 74895, Note_off_c, 0, 83, 64
2, 74895, Note_off_c, 0, 87, 64
2, 74898, Control_c, 0, 64, 0
2, 74910, Control_c, 0, 64, 0
2, 74920, Control_c, 0, 64, 127
2, 74932, Control_c, 0, 64, 127
2, 74997, Note_off_c, 0, 81, 64
2, 75015, Note_on_c, 0, 81, 68
2, 75017, Note_on_c, 0, 78, 67
2, 75025, Note_off_c, 0, 85, 64
2, 75080, Note_on_c, 0, 47, 43
2, 75109, Note_on_c, 0, 54, 38
2, 75119, Note_off_c, 0, 78, 64
2, 75122, Note_on_c, 0, 78, 76
2, 75129, Note_off_c, 0, 81, 64
2, 75144, Note_on_c, 0, 57, 39
2, 75152, Note_on_c, 0, 80, 75
2, 75153, Control_c, 0, 64, 0
2, 75153, Note_on_c, 0, 63, 52
2, 75165, Note_off_c, 0, 78, 64
2, 75165, Control_c, 0, 64, 0
2, 75178, Note_on_c, 0, 75, 71
2, 75183, Note_on_c, 0, 78, 73
2, 75191, Control_c, 0, 64, 127
2, 75200, Note_off_c, 0, 80, 64
2, 75203, Control_c, 0, 64, 127
2, 75259, Note_off_c, 0, 47, 64
2, 75336, Note_off_c, 0, 57, 64
2, 75353, Note_on_c, 0, 73, 57
2, 75356, Note_on_c, 0, 76, 64
2, 75357, Note_off_c, 0, 75, 64
2, 75359, Note_off_c, 0, 63, 64
2, 75362, Note_off_c, 0, 78, 64
2, 75365, Note_on_c, 0, 47, 38
2, 75417, Note_on_c, 0, 78, 73
2, 75423, Note_on_c, 0, 75, 69
2, 75423, Note_on_c, 0, 57, 43
2, 75426, Note_off_c, 0, 73, 64
2, 75429, Note_off_c, 0, 76, 64
2, 75431, Note_on_c, 0, 63, 49
2, 75537, Note_off_c, 0, 47, 64
2, 75573, Note_off_c, 0, 57, 64
2, 75607, Note_off_c, 0, 63, 64
2, 75629, Note_off_c, 0, 54, 64
2, 75644, Note_on_c, 0, 52, 26
2, 75692, Note_on_c, 0, 56, 19
2, 75725, Note_on_c, 0, 80, 60
2, 75729, Note_on_c, 0, 76, 61
2, 75733, Note_on_c, 0, 64, 27
2, 75737, Note_off_c, 0, 78, 64
2, 75743, Note_off_c, 0, 75, 64
2, 75753, Control_c, 0, 64, 0
2, 75765, Control_c, 0, 64, 0
2, 75791, Control_c, 0, 64, 127
2, 75803, Control_c, 0, 64, 127
2, 75892, Note_off_c, 0, 52, 64
2, 75921, Note_off_c, 0, 56, 64
2, 75999, Note_off_c, 0, 64, 64
2, 76001, Note_off_c, 0, 76, 64
2, 76002, Note_off_c, 0, 80, 64
2, 76046, Note_on_c, 0, 78, 50
2, 76053, Note_on_c, 0, 74, 52
2, 76056, Control_c, 0, 64, 0
2, 76058, Note_on_c, 0, 42, 49
2, 76068, Control_c, 0, 64, 0
2, 76103, Control_c, 0, 64, 127
2, 76115, Control_c, 0, 64, 127
2, 76178, Control_c, 0, 64, 0
2, 76190, Control_c, 0, 64, 0
2, 76200, Control_c, 0, 64, 127
2, 76212, Control_c, 0, 64, 127
2, 76281, Note_off_c, 0, 78, 64
2, 76288, Note_off_c, 0, 74, 64
2, 76317, Note_on_c, 0, 69, 49
2, 76365, Note_on_c, 0, 62, 24
2, 76370, Note_on_c, 0, 78, 45
2, 76370, Note_on_c, 0, 74, 53
2, 76370, Note_on_c, 0, 54, 34
2, 76377, Note_on_c, 0, 57, 38
2, 76407, Control_c, 0, 64, 0
2, 76419, Control_c, 0, 64, 0
2, 76424, Note_off_c, 0, 69, 64
2, 76443, Note_off_c, 0, 42, 64
2, 76447, Control_c, 0, 64, 127
2, 76459, Control_c, 0, 64, 127
2, 76561, Note_off_c, 0, 57, 64
2, 76570, Note_off_c, 0, 54, 64
2, 76585, Note_off_c, 0, 62, 64
2, 76733, Note_on_c, 0, 73, 41
2, 76739, Note_off_c, 0, 74, 64
2, 76739, Note_off_c, 0, 78, 64
2, 76739, Note_on_c, 0, 76, 28
2, 76831, Note_on_c, 0, 75, 52
2, 76838, Note_off_c, 0, 73, 64
2, 76844, Note_off_c, 0, 76, 64
2, 76856, Note_on_c, 0, 76, 31
2, 76861, Note_off_c, 0, 75, 64
2, 76881, Note_on_c, 0, 56, 28
2, 76885, Note_on_c, 0, 75, 49
2, 76885, Note_on_c, 0, 72, 20
2, 76885, Note_on_c, 0, 66, 21
2, 76885, Note_on_c, 0, 63, 28
2, 76888, Control_c, 0, 64, 0
2, 76900, Control_c, 0, 64, 0
2, 76902, Control_c, 0, 64, 127
2, 76907, Note_off_c, 0, 76, 64
2, 76914, Control_c, 0, 64, 127
2, 76935, Note_off_c, 0, 56, 64
2, 76939, Note_off_c, 0, 63, 64
2, 76939, Note_off_c, 0, 66, 64
2, 77042, Note_on_c, 0, 70, 43
2, 77045, Note_on_c, 0, 73, 43
2, 77052, Note_off_c, 0, 72, 64
2, 77052, Note_off_c, 0, 75, 64
2, 77081, Note_on_c, 0, 72, 47
2, 77085, Note_on_c, 0, 63, 31
2, 77086, Note_on_c, 0, 75, 49
2, 77089, Note_on_c, 0, 66, 31
2, 77090, Note_on_c, 0, 56, 38
2, 77093, Note_off_c, 0, 70, 64
2, 77093, Control_c, 0, 64, 0
2, 77096, Note_off_c, 0, 73, 64
2, 77105, Control_c, 0, 64, 0
2, 77131, Control_c, 0, 64, 127
2, 77139, Note_off_c, 0, 63, 64
2, 77143, Note_off_c, 0, 66, 64
2, 77143, Control_c, 0, 64, 127
2, 77144, Note_off_c, 0, 56, 64
2, 77280, Control_c, 0, 64, 0
2, 77283, Note_on_c, 0, 73, 45
2, 77286, Note_off_c, 0, 72, 64
2, 77286, Note_on_c, 0, 76, 46
2, 77290, Note_on_c, 0, 64, 41
2, 77290, Note_on_c, 0, 61, 42
2, 77291, Note_off_c, 0, 75, 64
2, 77292, Control_c, 0, 64, 0
2, 77295, Control_c, 0, 64, 127
2, 77307, Control_c, 0, 64, 127
2, 77344, Note_off_c, 0, 61, 64
2, 77344, Note_off_c, 0, 64, 64
2, 77462, Note_off_c, 0, 73, 64
2, 77465, Note_off_c, 0, 76, 64
2, 77502, Note_on_c, 0, 69, 69
2, 77502, Note_on_c, 0, 42, 68
2, 77579, Note_on_c, 0, 74, 50
2, 77580, Note_on_c, 0, 78, 63
2, 77607, Note_off_c, 0, 69, 64
2, 77669, Note_on_c, 0, 81, 69
2, 77689, Note_off_c, 0, 74, 64
2, 77690, Note_off_c, 0, 78, 64
2, 77713, Note_on_c, 0, 54, 54
2, 77746, Note_on_c, 0, 62, 56
2, 77768, Note_on_c, 0, 90, 67
2, 77768, Note_on_c, 0, 86, 64
2, 77774, Note_on_c, 0, 69, 24
2, 77800, Control_c, 0, 64, 0
2, 77812, Control_c, 0, 64, 0
2, 77829, Control_c, 0, 64, 127
2, 77841, Control_c, 0, 64, 127
2, 77895, Note_off_c, 0, 81, 64
2, 77918, Note_off_c, 0, 54, 64
2, 77920, Note_off_c, 0, 42, 64
2, 77921, Note_off_c, 0, 62, 64
2, 77934, Note_off_c, 0, 69, 64
2, 78008, Note_off_c, 0, 86, 64
2, 78008, Note_off_c, 0, 90, 64
2, 78085, Note_on_c, 0, 76, 39
2, 78088, Note_on_c, 0, 73, 45
2, 78190, Note_off_c, 0, 76, 64
2, 78191, Note_on_c, 0, 75, 60
2, 78193, Note_off_c, 0, 73, 64
2, 78220, Note_on_c, 0, 76, 45
2, 78230, Note_off_c, 0, 75, 64
2, 78253, Note_on_c, 0, 72, 38
2, 78254, Control_c, 0, 64, 0
2, 78254, Note_on_c, 0, 66, 34
2, 78257, Note_on_c, 0, 63, 39
2, 78257, Note_on_c, 0, 56, 41
2, 78258, Note_on_c, 0, 75, 49
2, 78266, Control_c, 0, 64, 0
2, 78276, Control_c, 0, 64, 127
2, 78277, Note_off_c, 0, 76, 64
2, 78288, Control_c, 0, 64, 127
2, 78308, Note_off_c, 0, 66, 64
2, 78311, Note_off_c, 0, 56, 64
2, 78311, Note_off_c, 0, 63, 64
2, 78387, Note_on_c, 0, 70, 52
2, 78389, Note_on_c, 0, 73, 49
2, 78395, Note_off_c, 0, 72, 64
2, 78400, Note_off_c, 0, 75, 64
2, 78441, Note_on_c, 0, 72, 49
2, 78442, Note_on_c, 0, 56, 42
2, 78444, Note_on_c, 0, 75, 53
2, 78449, Note_on_c, 0, 66, 38
2, 78449, Note_on_c, 0, 63, 41
2, 78450, Note_off_c, 0, 70, 64
2, 78451, Control_c, 0, 64, 0
2, 78452, Note_off_c, 0, 73, 64
2, 78463, Control_c, 0, 64, 0
2, 78474, Control_c, 0, 64, 127
2, 78486, Control_c, 0, 64, 127
2, 78496, Note_off_c, 0, 56, 64
2, 78503, Note_off_c, 0, 63, 64
2, 78503, Note_off_c, 0, 66, 64
2, 78622, Control_c, 0, 64, 0
2, 78629, Note_on_c, 0, 76, 46
2, 78629, Note_on_c, 0, 73, 49
2, 78629, Note_on_c, 0, 61, 47
2, 78632, Note_off_c, 0, 72, 64
2, 78634, Note_on_c, 0, 64, 41
2, 78634, Control_c, 0, 64, 0
2, 78635, Note_off_c, 0, 75, 64
2, 78647, Control_c, 0, 64, 127
2, 78659, Control_c, 0, 64, 127
2, 78683, Note_off_c, 0, 61, 64
2, 78688, Note_off_c, 0, 64, 64
2, 78773, Note_off_c, 0, 73, 64
2, 78773, Note_off_c, 0, 76, 64
2, 78815, Note_on_c, 0, 69, 69
2, 78815, Note_on_c, 0, 42, 67
2, 78873, Note_on_c, 0, 74, 46
2, 78876, Note_on_c, 0, 78, 58
2, 78898, Note_off_c, 0, 69, 64
2, 78948, Note_on_c, 0, 81, 69
2, 78995, Note_off_c, 0, 74, 64
2, 78998, Note_off_c, 0, 78, 64
2, 79015, Note_on_c, 0, 86, 64
2, 79017, Note_on_c, 0, 90, 64
2, 79068, Note_on_c, 0, 54, 50
2, 79083, Note_on_c, 0, 62, 57
2, 79087, Note_on_c, 0, 93, 75
2, 79099, Note_on_c, 0, 69, 61
2, 79117, Control_c, 0, 64, 0
2, 79129, Control_c, 0, 64, 0
2, 79147, Control_c, 0, 64, 127
2, 79158, Note_off_c, 0, 86, 64
2, 79159, Control_c, 0, 64, 127
2, 79166, Note_off_c, 0, 90, 64
2, 79206, Note_off_c, 0, 81, 64
2, 79214, Note_off_c, 0, 54, 64
2, 79233, Note_off_c, 0, 42, 64
2, 79249, Note_off_c, 0, 62, 64
2, 79264, Note_off_c, 0, 69, 64
2, 79294, Note_off_c, 0, 93, 64
2, 79461, Note_on_c, 0, 76, 47
2, 79461, Note_on_c, 0, 73, 50
2, 79553, Note_on_c, 0, 75, 63
2, 79558, Note_off_c, 0, 73, 64
2, 79558, Note_off_c, 0, 76, 64
2, 79582, Note_on_c, 0, 76, 52
2, 79584, Note_off_c, 0, 75, 64
2, 79609, Note_on_c, 0, 63, 47
2, 79611, Note_on_c, 0, 66, 41
2, 79613, Note_on_c, 0, 72, 31
2, 79613, Note_on_c, 0, 56, 50
2, 79615, Note_on_c, 0, 75, 57
2, 79616, Control_c, 0, 64, 0
2, 79628, Control_c, 0, 64, 0
2, 79636, Note_off_c, 0, 76, 64
2, 79638, Control_c, 0, 64, 127
2, 79650, Control_c, 0, 64, 127
2, 79663, Note_off_c, 0, 63, 64
2, 79665, Note_off_c, 0, 66, 64
2, 79667, Note_off_c, 0, 56, 64
2, 79761, Note_on_c, 0, 73, 50
2, 79761, Note_on_c, 0, 70, 60
2, 79768, Note_off_c, 0, 72, 64
2, 79770, Note_off_c, 0, 75, 64
2, 79801, Note_on_c, 0, 75, 50
2, 79801, Note_on_c, 0, 72, 56
2, 79801, Note_on_c, 0, 56, 49
2, 79804, Note_on_c, 0, 66, 46
2, 79804, Note_on_c, 0, 63, 52
2, 79814, Control_c, 0, 64, 0
2, 79826, Control_c, 0, 64, 127
2, 79826, Control_c, 0, 64, 0
2, 79829, Note_off_c, 0, 70, 64
2, 79829, Note_off_c, 0, 73, 64
2, 79838, Control_c, 0, 64, 127
2, 79855, Note_off_c, 0, 56, 64
2, 79858, Note_off_c, 0, 63, 64
2, 79858, Note_off_c, 0, 66, 64
2, 79981, Note_on_c, 0, 64, 52
2, 79984, Note_on_c, 0, 73, 58
2, 79984, Note_on_c, 0, 61, 53
2, 79988, Note_on_c, 0, 76, 58
2, 79995, Note_off_c, 0, 72, 64
2, 79995, Note_off_c, 0, 75, 64
2, 80035, Note_off_c, 0, 64, 64
2, 80038, Note_off_c, 0, 61, 64
2, 80088, Note_off_c, 0, 76, 64
2, 80103, Note_off_c, 0, 73, 64
2, 80175, Note_on_c, 0, 69, 64
2, 80179, Note_on_c, 0, 42, 65
2, 80233, Note_on_c, 0, 78, 60
2, 80236, Note_on_c, 0, 74, 46
2, 80264, Note_off_c, 0, 69, 64
2, 80310, Note_on_c, 0, 81, 73
2, 80322, Note_off_c, 0, 78, 64
2, 80325, Note_off_c, 0, 74, 64
2, 80377, Note_on_c, 0, 86, 54
2, 80380, Note_on_c, 0, 90, 68
2, 80399, Note_off_c, 0, 81, 64
2, 80437, Note_on_c, 0, 93, 73
2, 80468, Note_off_c, 0, 86, 64
2, 80471, Note_off_c, 0, 90, 64
2, 80473, Note_on_c, 0, 90, 69
2, 80529, Note_on_c, 0, 86, 63
2, 80529, Note_on_c, 0, 54, 46
2, 80592, Note_on_c, 0, 81, 69
2, 80597, Note_on_c, 0, 62, 64
2, 80672, Note_on_c, 0, 69, 69
2, 80689, Note_on_c, 0, 98, 86
2, 80710, Control_c, 0, 64, 0
2, 80722, Control_c, 0, 64, 0
2, 80768, Control_c, 0, 64, 127
2, 80780, Control_c, 0, 64, 127
2, 81253, Note_off_c, 0, 98, 64
2, 81298, Note_off_c, 0, 93, 64
2, 81309, Note_off_c, 0, 81, 64
2, 81338, Note_off_c, 0, 86, 64
2, 81364, Note_off_c, 0, 90, 64
2, 81453, Note_off_c, 0, 69, 64
2, 81453, Note_off_c, 0, 54, 64
2, 81453, Note_off_c, 0, 62, 64
2, 81467, Note_off_c, 0, 42, 64
2, 81628, Control_c, 0, 64, 127
2, 81640, Control_c, 0, 64, 127
2, 81730, Note_on_c, 0, 76, 41
2, 81734, Note_on_c, 0, 73, 43
2, 81785, Note_off_c, 0, 73, 64
2, 81804, Note_off_c, 0, 76, 64
2, 81962, Note_on_c, 0, 75, 45
2, 81974, Note_on_c, 0, 72, 39
2, 81999, Note_on_c, 0, 76, 42
2, 82002, Note_off_c, 0, 72, 64
2, 82013, Note_off_c, 0, 75, 64
2, 82019, Note_on_c, 0, 56, 31
2, 82022, Note_on_c, 0, 63, 36
2, 82028, Note_on_c, 0, 66, 27
2, 82031, Control_c, 0, 64, 0
2, 82036, Note_on_c, 0, 72, 43
2, 82042, Note_on_c, 0, 75, 52
2, 82043, Control_c, 0, 64, 0
2, 82050, Note_off_c, 0, 76, 64
2, 82054, Control_c, 0, 64, 127
2, 82066, Control_c, 0, 64, 127
2, 82070, Note_off_c, 0, 72, 64
2, 82080, Note_off_c, 0, 75, 64
2, 82108, Note_off_c, 0, 56, 64
2, 82118, Note_off_c, 0, 66, 64
2, 82124, Note_off_c, 0, 63, 64
2, 82207, Note_on_c, 0, 70, 45
2, 82211, Note_on_c, 0, 73, 47
2, 82245, Note_off_c, 0, 70, 64
2, 82254, Note_off_c, 0, 73, 64
2, 82265, Note_on_c, 0, 56, 38
2, 82271, Note_on_c, 0, 63, 38
2, 82274, Note_on_c, 0, 75, 46
2, 82275, Note_on_c, 0, 66, 31
2, 82279, Note_on_c, 0, 72, 53
2, 82294, Control_c, 0, 64, 0
2, 82305, Control_c, 0, 64, 127
2, 82306, Control_c, 0, 64, 0
2, 82317, Control_c, 0, 64, 127
2, 82337, Note_off_c, 0, 75, 64
2, 82367, Note_off_c, 0, 66, 64
2, 82373, Note_off_c, 0, 72, 64
2, 82436, Note_off_c, 0, 56, 64
2, 82459, Note_off_c, 0, 63, 64
2, 82502, Note_on_c, 0, 76, 46
2, 82502, Note_on_c, 0, 61, 41
2, 82504, Note_on_c, 0, 73, 50
2, 82509, Control_c, 0, 64, 0
2, 82515, Note_on_c, 0, 64, 31
2, 82521, Control_c, 0, 64, 0
2, 82529, Control_c, 0, 64, 127
2, 82541, Control_c, 0, 64, 127
2, 82551, Note_off_c, 0, 76, 64
2, 82554, Note_off_c, 0, 73, 64
2, 82599, Note_off_c, 0, 64, 64
2, 82626, Note_off_c, 0, 61, 64
2, 82691, Note_on_c, 0, 75, 52
2, 82723, Note_on_c, 0, 76, 49
2, 82730, Note_off_c, 0, 75, 64
2, 82752, Note_on_c, 0, 63, 43
2, 82753, Note_on_c, 0, 72, 42
2, 82753, Note_on_c, 0, 56, 43
2, 82756, Control_c, 0, 64, 0
2, 82760, Note_on_c, 0, 75, 50
2, 82768, Control_c, 0, 64, 0
2, 82770, Control_c, 0, 64, 127
2, 82779, Note_off_c, 0, 76, 64
2, 82782, Control_c, 0, 64, 127
2, 82789, Note_off_c, 0, 72, 64
2, 82799, Note_off_c, 0, 75, 64
2, 82813, Note_off_c, 0, 56, 64
2, 82813, Note_off_c, 0, 63, 64
2, 82908, Note_on_c, 0, 70, 47
2, 82913, Note_on_c, 0, 73, 42
2, 82942, Note_off_c, 0, 70, 64
2, 82949, Note_off_c, 0, 73, 64
2, 82955, Note_on_c, 0, 63, 38
2, 82957, Note_on_c, 0, 56, 32
2, 82964, Note_on_c, 0, 75, 49
2, 82969, Control_c, 0, 64, 0
2, 82970, Note_on_c, 0, 72, 49
2, 82981, Control_c, 0, 64, 0
2, 82991, Control_c, 0, 64, 127
2, 83003, Control_c, 0, 64, 127
2, 83021, Note_off_c, 0, 72, 64
2, 83032, Note_off_c, 0, 75, 64
2, 83121, Note_off_c, 0, 56, 64
2, 83158, Note_off_c, 0, 63, 64
2, 83162, Note_on_c, 0, 76, 49
2, 83162, Note_on_c, 0, 73, 52
2, 83162, Note_on_c, 0, 61, 41
2, 83168, Note_on_c, 0, 64, 38
2, 83204, Note_off_c, 0, 76, 64
2, 83205, Note_off_c, 0, 73, 64
2, 83280, Note_on_c, 0, 75, 54
2, 83300, Note_off_c, 0, 64, 64
2, 83304, Note_off_c, 0, 61, 64
2, 83311, Note_on_c, 0, 76, 46
2, 83315, Note_off_c, 0, 75, 64
2, 83318, Control_c, 0, 64, 0
2, 83330, Control_c, 0, 64, 0
2, 83340, Note_on_c, 0, 72, 42
2, 83343, Note_on_c, 0, 63, 49
2, 83345, Note_on_c, 0, 75, 53
2, 83349, Control_c, 0, 64, 127
2, 83350, Note_on_c, 0, 56, 41
2, 83361, Note_off_c, 0, 76, 64
2, 83361, Control_c, 0, 64, 127
2, 83374, Note_off_c, 0, 72, 64
2, 83387, Note_off_c, 0, 75, 64
2, 83405, Note_off_c, 0, 56, 64
2, 83412, Note_off_c, 0, 63, 64
2, 83443, Note_on_c, 0, 73, 52
2, 83445, Note_on_c, 0, 70, 52
2, 83471, Note_off_c, 0, 73, 64
2, 83472, Note_off_c, 0, 70, 64
2, 83518, Note_on_c, 0, 75, 43
2, 83522, Note_on_c, 0, 63, 38
2, 83525, Control_c, 0, 64, 0
2, 83526, Note_on_c, 0, 72, 50
2, 83526, Note_on_c, 0, 56, 38
2, 83536, Control_c, 0, 64, 127
2, 83537, Control_c, 0, 64, 0
2, 83548, Control_c, 0, 64, 127
2, 83579, Note_off_c, 0, 75, 64
2, 83584, Note_off_c, 0, 72, 64
2, 83675, Note_off_c, 0, 56, 64
2, 83689, Note_off_c, 0, 63, 64
2, 83694, Note_on_c, 0, 73, 49
2, 83698, Note_on_c, 0, 76, 46
2, 83700, Note_on_c, 0, 61, 38
2, 83705, Note_on_c, 0, 64, 26
2, 83735, Note_off_c, 0, 76, 64
2, 83735, Note_off_c, 0, 73, 64
2, 83795, Note_on_c, 0, 75, 53
2, 83826, Note_off_c, 0, 75, 64
2, 83826, Note_on_c, 0, 76, 38
2, 83829, Note_off_c, 0, 61, 64
2, 83838, Control_c, 0, 64, 0
2, 83843, Note_off_c, 0, 64, 64
2, 83850, Control_c, 0, 64, 0
2, 83856, Note_on_c, 0, 75, 52
2, 83859, Note_on_c, 0, 63, 38
2, 83862, Note_on_c, 0, 72, 41
2, 83864, Note_on_c, 0, 56, 41
2, 83868, Control_c, 0, 64, 127
2, 83874, Note_off_c, 0, 76, 64
2, 83880, Control_c, 0, 64, 127
2, 83894, Note_off_c, 0, 72, 64
2, 83901, Note_off_c, 0, 75, 64
2, 83922, Note_off_c, 0, 56, 64
2, 83931, Note_off_c, 0, 63, 64
2, 83947, Note_on_c, 0, 73, 53
2, 83947, Note_on_c, 0, 70, 52
2, 83975, Note_off_c, 0, 73, 64
2, 83980, Note_off_c, 0, 70, 64
2, 84010, Note_on_c, 0, 63, 38
2, 84014, Note_on_c, 0, 56, 41
2, 84020, Note_on_c, 0, 75, 41
2, 84025, Note_on_c, 0, 72, 49
2, 84066, Note_off_c, 0, 75, 64
2, 84069, Note_off_c, 0, 72, 64
2, 84069, Note_off_c, 0, 56, 64
2, 84075, Note_off_c, 0, 63, 64
2, 84168, Note_on_c, 0, 55, 36
2, 84172, Control_c, 0, 64, 0
2, 84173, Note_on_c, 0, 64, 31
2, 84174, Note_on_c, 0, 76, 43
2, 84175, Note_on_c, 0, 73, 45
2, 84177, Note_on_c, 0, 61, 36
2, 84183, Control_c, 0, 64, 127
2, 84184, Control_c, 0, 64, 0
2, 84195, Control_c, 0, 64, 127
2, 84212, Note_off_c, 0, 73, 64
2, 84217, Note_off_c, 0, 76, 64
2, 84217, Note_off_c, 0, 55, 64
2, 84226, Note_off_c, 0, 61, 64
2, 84236, Note_off_c, 0, 64, 64
2, 84274, Note_on_c, 0, 75, 52
2, 84310, Note_off_c, 0, 75, 64
2, 84313, Note_on_c, 0, 76, 36
2, 84314, Control_c, 0, 64, 0
2, 84326, Control_c, 0, 64, 0
2, 84333, Note_on_c, 0, 72, 30
2, 84333, Note_on_c, 0, 63, 46
2, 84334, Note_on_c, 0, 56, 42
2, 84335, Control_c, 0, 64, 127
2, 84342, Note_on_c, 0, 75, 56
2, 84347, Control_c, 0, 64, 127
2, 84357, Note_off_c, 0, 76, 64
2, 84361, Note_off_c, 0, 72, 64
2, 84384, Note_off_c, 0, 75, 64
2, 84384, Note_off_c, 0, 56, 64
2, 84387, Note_off_c, 0, 63, 64
2, 84422, Note_on_c, 0, 73, 50
2, 84422, Note_on_c, 0, 70, 50
2, 84444, Note_off_c, 0, 73, 64
2, 84448, Note_off_c, 0, 70, 64
2, 84484, Note_on_c, 0, 75, 49
2, 84484, Note_on_c, 0, 63, 39
2, 84484, Note_on_c, 0, 56, 42
2, 84492, Note_on_c, 0, 72, 46
2, 84531, Note_off_c, 0, 72, 64
2, 84536, Note_off_c, 0, 56, 64
2, 84538, Note_off_c, 0, 75, 64
2, 84540, Note_off_c, 0, 63, 64
2, 84622, Control_c, 0, 64, 0
2, 84634, Control_c, 0, 64, 0
2, 84639, Note_on_c, 0, 76, 41
2, 84639, Note_on_c, 0, 73, 42
2, 84639, Note_on_c, 0, 55, 35
2, 84645, Control_c, 0, 64, 127
2, 84646, Note_on_c, 0, 64, 28
2, 84649, Note_on_c, 0, 61, 28
2, 84657, Control_c, 0, 64, 127
2, 84675, Note_off_c, 0, 76, 64
2, 84680, Note_off_c, 0, 55, 64
2, 84681, Note_off_c, 0, 73, 64
2, 84694, Note_off_c, 0, 64, 64
2, 84698, Note_off_c, 0, 61, 64
2, 84756, Note_on_c, 0, 75, 53
2, 84785, Note_on_c, 0, 73, 52
2, 84788, Note_on_c, 0, 70, 46
2, 84792, Note_on_c, 0, 54, 41
2, 84796, Note_on_c, 0, 61, 41
2, 84801, Note_off_c, 0, 75, 64
2, 84802, Note_on_c, 0, 64, 36
2, 84834, Note_off_c, 0, 70, 64
2, 84840, Note_off_c, 0, 73, 64
2, 84845, Note_off_c, 0, 54, 64
2, 84848, Note_off_c, 0, 61, 64
2, 84857, Note_off_c, 0, 64, 64
2, 84894, Note_on_c, 0, 69, 53
2, 84899, Note_on_c, 0, 72, 49
2, 84917, Note_off_c, 0, 69, 64
2, 84924, Note_off_c, 0, 72, 64
2, 84941, Note_on_c, 0, 54, 38
2, 84943, Note_on_c, 0, 64, 42
2, 84948, Note_on_c, 0, 73, 58
2, 84948, Note_on_c, 0, 61, 43
2, 84955, Note_on_c, 0, 70, 53
2, 84984, Note_off_c, 0, 70, 64
2, 84988, Note_off_c, 0, 54, 64
2, 84991, Note_off_c, 0, 73, 64
2, 84993, Note_off_c, 0, 61, 64
2, 84996, Note_off_c, 0, 64, 64
2, 85100, Note_on_c, 0, 60, 27
2, 85101, Note_on_c, 0, 53, 36
2, 85102, Note_on_c, 0, 63, 30
2, 85103, Note_on_c, 0, 69, 47
2, 85105, Note_on_c, 0, 72, 50
2, 85143, Note_off_c, 0, 72, 64
2, 85148, Note_off_c, 0, 69, 64
2, 85148, Note_off_c, 0, 53, 64
2, 85162, Note_off_c, 0, 60, 64
2, 85178, Note_off_c, 0, 63, 64
2, 85248, Note_on_c, 0, 72, 39
2, 85263, Note_on_c, 0, 71, 46
2, 85269, Note_on_c, 0, 68, 50
2, 85270, Note_on_c, 0, 52, 45
2, 85273, Note_off_c, 0, 72, 64
2, 85274, Note_on_c, 0, 59, 39
2, 85279, Note_on_c, 0, 62, 27
2, 85313, Note_off_c, 0, 68, 64
2, 85318, Note_off_c, 0, 52, 64
2, 85323, Note_off_c, 0, 62, 64
2, 85325, Note_off_c, 0, 71, 64
2, 85329, Note_off_c, 0, 59, 64
2, 85377, Note_on_c, 0, 70, 47
2, 85384, Note_on_c, 0, 67, 53
2, 85416, Note_off_c, 0, 67, 64
2, 85418, Control_c, 0, 64, 0
2, 85428, Note_off_c, 0, 70, 64
2, 85430, Control_c, 0, 64, 0
2, 85436, Note_on_c, 0, 71, 50
2, 85436, Note_on_c, 0, 68, 47
2, 85437, Note_on_c, 0, 62, 42
2, 85437, Note_on_c, 0, 52, 42
2, 85439, Control_c, 0, 64, 127
2, 85441, Note_on_c, 0, 59, 32
2, 85451, Control_c, 0, 64, 127
2, 85485, Note_off_c, 0, 62, 64
2, 85486, Note_off_c, 0, 59, 64
2, 85486, Note_off_c, 0, 52, 64
2, 85487, Note_off_c, 0, 68, 64
2, 85489, Note_off_c, 0, 71, 64
2, 85601, Note_on_c, 0, 70, 45
2, 85601, Note_on_c, 0, 67, 46
2, 85604, Note_on_c, 0, 58, 41
2, 85606, Note_on_c, 0, 51, 35
2, 85610, Note_on_c, 0, 61, 31
2, 85650, Note_off_c, 0, 70, 64
2, 85658, Note_off_c, 0, 67, 64
2, 85669, Note_off_c, 0, 58, 64
2, 85680, Note_off_c, 0, 51, 64
2, 85685, Note_off_c, 0, 61, 64
2, 85732, Note_on_c, 0, 70, 36
2, 85772, Note_off_c, 0, 70, 64
2, 85778, Note_on_c, 0, 69, 50
2, 85785, Note_on_c, 0, 50, 39
2, 85788, Note_on_c, 0, 66, 43
2, 85792, Note_on_c, 0, 60, 38
2, 85794, Note_on_c, 0, 57, 38
2, 85835, Note_off_c, 0, 66, 64
2, 85842, Note_off_c, 0, 50, 64
2, 85845, Note_off_c, 0, 60, 64
2, 85845, Note_off_c, 0, 69, 64
2, 85849, Note_off_c, 0, 57, 64
2, 85904, Note_on_c, 0, 68, 46
2, 85907, Note_on_c, 0, 65, 47
2, 85934, Note_off_c, 0, 65, 64
2, 85944, Note_off_c, 0, 68, 64
2, 85959, Note_on_c, 0, 69, 47
2, 85962, Note_on_c, 0, 50, 36
2, 85967, Note_on_c, 0, 66, 47
2, 85967, Note_on_c, 0, 60, 32
2, 85971, Note_on_c, 0, 57, 30
2, 86003, Note_off_c, 0, 66, 64
2, 86010, Note_off_c, 0, 50, 64
2, 86012, Note_off_c, 0, 57, 64
2, 86012, Note_off_c, 0, 69, 64
2, 86016, Note_off_c, 0, 60, 64
2, 86127, Note_on_c, 0, 68, 41
2, 86127, Note_on_c, 0, 65, 41
2, 86133, Note_on_c, 0, 49, 32
2, 86140, Note_on_c, 0, 59, 32
2, 86140, Note_on_c, 0, 56, 27
2, 86151, Control_c, 0, 64, 0
2, 86163, Control_c, 0, 64, 0
2, 86164, Control_c, 0, 64, 127
2, 86176, Control_c, 0, 64, 127
2, 86200, Note_off_c, 0, 68, 64
2, 86208, Note_off_c, 0, 59, 64
2, 86209, Note_off_c, 0, 56, 64
2, 86214, Note_off_c, 0, 65, 64
2, 86218, Note_off_c, 0, 49, 64
2, 86284, Note_on_c, 0, 68, 39
2, 86310, Note_on_c, 0, 67, 56
2, 86314, Note_on_c, 0, 64, 42
2, 86324, Note_off_c, 0, 68, 64
2, 86328, Control_c, 0, 64, 0
2, 86328, Note_on_c, 0, 58, 35
2, 86328, Note_on_c, 0, 48, 38
2, 86332, Note_on_c, 0, 55, 35
2, 86340, Control_c, 0, 64, 127
2, 86340, Control_c, 0, 64, 0
2, 86352, Control_c, 0, 64, 127
2, 86360, Note_off_c, 0, 64, 64
2, 86379, Note_off_c, 0, 67, 64
2, 86382, Note_off_c, 0, 58, 64
2, 86387, Note_off_c, 0, 48, 64
2, 86388, Note_off_c, 0, 55, 64
2, 86457, Note_on_c, 0, 63, 43
2, 86466, Note_on_c, 0, 66, 33
2, 86501, Note_off_c, 0, 66, 64
2, 86504, Note_off_c, 0, 63, 64
2, 86513, Note_on_c, 0, 67, 47
2, 86519, Note_on_c, 0, 48, 35
2, 86524, Note_on_c, 0, 64, 45
2, 86524, Note_on_c, 0, 58, 30
2, 86527, Control_c, 0, 64, 0
2, 86527, Note_on_c, 0, 55, 27
2, 86539, Control_c, 0, 64, 0
2, 86544, Control_c, 0, 64, 127
2, 86556, Control_c, 0, 64, 127
2, 86580, Note_off_c, 0, 55, 64
2, 86585, Note_off_c, 0, 64, 64
2, 86586, Note_off_c, 0, 48, 64
2, 86591, Note_off_c, 0, 58, 64
2, 86601, Note_off_c, 0, 67, 64
2, 86744, Note_on_c, 0, 66, 49
2, 86744, Note_on_c, 0, 63, 34
2, 86748, Note_on_c, 0, 47, 32
2, 86752, Note_on_c, 0, 54, 28
2, 86753, Note_on_c, 0, 57, 27
2, 86772, Control_c, 0, 64, 0
2, 86784, Control_c, 0, 64, 0
2, 86791, Control_c, 0, 64, 127
2, 86803, Control_c, 0, 64, 127
2, 86830, Note_off_c, 0, 57, 64
2, 86843, Note_off_c, 0, 54, 64
2, 86850, Note_off_c, 0, 47, 64
2, 86857, Note_off_c, 0, 66, 64
2, 86881, Note_off_c, 0, 63, 64
2, 87054, Note_on_c, 0, 61, 56
2, 87054, Note_on_c, 0, 54, 38
2, 87059, Note_on_c, 0, 66, 50
2, 87063, Note_on_c, 0, 45, 52
2, 87084, Control_c, 0, 64, 0
2, 87096, Control_c, 0, 64, 0
2, 87124, Control_c, 0, 64, 127
2, 87136, Control_c, 0, 64, 127
2, 87273, Note_on_c, 0, 44, 49
2, 87276, Note_off_c, 0, 45, 64
2, 87325, Note_on_c, 0, 45, 56
2, 87331, Note_off_c, 0, 44, 64
2, 87513, Control_c, 0, 64, 0
2, 87516, Note_on_c, 0, 64, 53
2, 87516, Note_on_c, 0, 39, 52
2, 87519, Note_off_c, 0, 45, 64
2, 87525, Control_c, 0, 64, 0
2, 87527, Control_c, 0, 64, 127
2, 87531, Note_off_c, 0, 66, 64
2, 87539, Control_c, 0, 64, 127
2, 87607, Note_on_c, 0, 63, 53
2, 87619, Note_off_c, 0, 39, 64
2, 87622, Note_off_c, 0, 64, 64
2, 87622, Note_off_c, 0, 61, 64
2, 87630, Note_off_c, 0, 54, 64
2, 87711, Note_on_c, 0, 66, 53
2, 87714, Note_on_c, 0, 61, 47
2, 87720, Note_off_c, 0, 63, 64
2, 87721, Note_on_c, 0, 45, 50
2, 87727, Note_on_c, 0, 54, 52
2, 87751, Control_c, 0, 64, 0
2, 87761, Control_c, 0, 64, 127
2, 87763, Control_c, 0, 64, 0
2, 87773, Control_c, 0, 64, 127
2, 87799, Note_off_c, 0, 66, 64
2, 87829, Note_on_c, 0, 44, 46
2, 87835, Note_off_c, 0, 45, 64
2, 87879, Note_on_c, 0, 66, 45
2, 87889, Control_c, 0, 64, 0
2, 87901, Control_c, 0, 64, 0
2, 87916, Control_c, 0, 64, 127
2, 87928, Control_c, 0, 64, 127
2, 87937, Note_off_c, 0, 44, 64
2, 87944, Note_on_c, 0, 63, 35
2, 87948, Note_on_c, 0, 45, 42
2, 87953, Note_off_c, 0, 66, 64
2, 88157, Note_on_c, 0, 39, 42
2, 88159, Note_on_c, 0, 73, 47
2, 88163, Control_c, 0, 64, 0
2, 88175, Control_c, 0, 64, 0
2, 88181, Note_off_c, 0, 63, 64
2, 88186, Control_c, 0, 64, 127
2, 88188, Note_off_c, 0, 45, 64
2, 88198, Control_c, 0, 64, 127
2, 88278, Note_off_c, 0, 54, 64
2, 88284, Note_off_c, 0, 39, 64
2, 88314, Note_off_c, 0, 61, 64
2, 88421, Note_off_c, 0, 73, 64
2, 88444, Note_on_c, 0, 54, 24
2, 88445, Note_on_c, 0, 66, 47
2, 88453, Note_on_c, 0, 61, 30
2, 88454, Note_on_c, 0, 45, 38
2, 88495, Control_c, 0, 64, 0
2, 88507, Control_c, 0, 64, 0
2, 88525, Control_c, 0, 64, 127
2, 88537, Control_c, 0, 64, 127
2, 88611, Note_on_c, 0, 44, 42
2, 88621, Note_off_c, 0, 45, 64
2, 88703, Note_on_c, 0, 45, 50
2, 88710, Note_off_c, 0, 44, 64
2, 88892, Note_off_c, 0, 66, 64
2, 88926, Note_on_c, 0, 39, 38
2, 88930, Note_on_c, 0, 64, 42
2, 88940, Note_off_c, 0, 45, 64
2, 89037, Note_on_c, 0, 63, 47
2, 89051, Note_off_c, 0, 64, 64
2, 89052, Note_off_c, 0, 61, 64
2, 89117, Note_off_c, 0, 54, 64
2, 89185, Note_off_c, 0, 39, 64
2, 89196, Note_on_c, 0, 54, 19
2, 89217, Note_on_c, 0, 66, 46
2, 89220, Note_on_c, 0, 45, 41
2, 89226, Note_on_c, 0, 61, 35
2, 89232, Note_off_c, 0, 63, 64
2, 89253, Control_c, 0, 64, 0
2, 89265, Control_c, 0, 64, 0
2, 89273, Control_c, 0, 64, 127
2, 89285, Control_c, 0, 64, 127
2, 89390, Note_on_c, 0, 44, 30
2, 89400, Note_off_c, 0, 66, 64
2, 89426, Note_off_c, 0, 45, 64
2, 89472, Note_on_c, 0, 66, 52
2, 89496, Note_off_c, 0, 61, 64
2, 89587, Note_on_c, 0, 63, 36
2, 89597, Note_on_c, 0, 45, 38
2, 89602, Note_off_c, 0, 44, 64
2, 89610, Note_off_c, 0, 66, 64
2, 89657, Control_c, 0, 64, 0
2, 89669, Control_c, 0, 64, 0
2, 89687, Control_c, 0, 64, 127
2, 89699, Control_c, 0, 64, 127
2, 89814, Note_off_c, 0, 45, 64
2, 89820, Note_off_c, 0, 54, 64
2, 90055, Note_on_c, 0, 75, 46
2, 90093, Note_off_c, 0, 63, 64
2, 90104, Control_c, 0, 64, 0
2, 90116, Control_c, 0, 64, 0
2, 90135, Control_c, 0, 64, 127
2, 90147, Control_c, 0, 64, 127
2, 90461, Note_on_c, 0, 73, 46
2, 90471, Note_off_c, 0, 75, 64
2, 90507, Control_c, 0, 64, 0
2, 90519, Control_c, 0, 64, 0
2, 90520, Control_c, 0, 64, 127
2, 90532, Control_c, 0, 64, 127
2, 90629, Note_on_c, 0, 69, 35
2, 90640, Note_off_c, 0, 73, 64
2, 90782, Note_on_c, 0, 66, 35
2, 90797, Note_off_c, 0, 69, 64
2, 91083, Note_on_c, 0, 63, 27
2, 91104, Note_off_c, 0, 66, 64
2, 91423, Note_on_c, 0, 61, 30
2, 91440, Note_off_c, 0, 63, 64
2, 91453, Control_c, 0, 64, 0
2, 91465, Control_c, 0, 64, 0
2, 91474, Control_c, 0, 64, 127
2, 91486, Control_c, 0, 64, 127
2, 91596, Note_on_c, 0, 57, 31
2, 91606, Note_off_c, 0, 61, 64
2, 91793, Note_on_c, 0, 54, 27
2, 91813, Note_off_c, 0, 57, 64
2, 92303, Note_on_c, 0, 49, 34
2, 92352, Control_c, 0, 64, 0
2, 92364, Control_c, 0, 64, 0
2, 92373, Control_c, 0, 64, 127
2, 92385, Control_c, 0, 64, 127
2, 92431, Note_off_c, 0, 54, 64
2, 92908, Note_on_c, 0, 52, 38
2, 92914, Note_on_c, 0, 37, 43
2, 92919, Note_on_c, 0, 44, 38
2, 92952, Note_off_c, 0, 49, 64
2, 93017, Control_c, 0, 64, 0
2, 93029, Control_c, 0, 64, 0
2, 93234, Control_c, 0, 64, 127
2, 93246, Control_c, 0, 64, 127
2, 94938, Note_off_c, 0, 37, 64
2, 94943, Note_off_c, 0, 52, 64
2, 94946, Note_off_c, 0, 44, 64
2, 95201, Control_c, 0, 64, 0
2, 95213, Control_c, 0, 64, 0
2, 95213, End_track
3, 0, Start_track
3, 0, Title_t, "Played by Dr. Ron Lubetsky"
3, 0, End_track
4, 0, Start_track
4, 0, Title_t, "Feb. 15, 1998"
4, 0, End_track
5, 0, Start_track
5, 0, Title_t, "email: acuity2020@aol.com"
5, 0, End_track
6, 0, Start_track
6, 0, Title_t, "Copyright  1998"
6, 0, End_track
7, 0, Start_track
7, 0, Title_t, "All Rights Reserved"
7, 0, End_track
0, 0, End_of_file
