0, 0, Header, 1, 7, 240
1, 0, Start_track
1, 0, Time_signature, 4, 2, 24, 8
1, 0, Tempo, 500000
1, 0, Marker_t, "Chopin: Mazurka, Op. 17 No. 3- Legato assai"
1, 0, End_track
2, 0, Start_track
2, 0, Title_t, "Chopin: Op. 17 No. 3"
2, 0, Program_c, 0, 0
2, 0, Control_c, 0, 7, 127
2, 77, Note_on_c, 0, 72, 39
2, 336, Control_c, 0, 64, 0
2, 376, Note_on_c, 0, 55, 19
2, 380, Note_on_c, 0, 61, 16
2, 383, Note_on_c, 0, 64, 19
2, 413, Control_c, 0, 64, 0
2, 418, Control_c, 0, 64, 127
2, 446, Control_c, 0, 64, 127
2, 505, Note_off_c, 0, 64, 64
2, 517, Note_off_c, 0, 61, 64
2, 597, Note_off_c, 0, 55, 64
2, 610, Note_on_c, 0, 70, 33
2, 624, Note_off_c, 0, 72, 64
2, 655, Note_on_c, 0, 68, 39
2, 669, Note_off_c, 0, 70, 64
2, 671, Note_on_c, 0, 56, 1
2, 675, Note_on_c, 0, 63, 15
2, 699, Note_on_c, 0, 60, 18
2, 717, Control_c, 0, 64, 0
2, 754, Control_c, 0, 64, 127
2, 790, Note_off_c, 0, 56, 64
2, 793, Note_on_c, 0, 70, 37
2, 823, Note_off_c, 0, 68, 64
2, 840, Note_off_c, 0, 60, 64
2, 891, Note_on_c, 0, 72, 42
2, 900, Note_on_c, 0, 51, 22
2, 907, Note_off_c, 0, 70, 64
2, 928, Control_c, 0, 64, 0
2, 941, Control_c, 0, 64, 127
2, 982, Note_off_c, 0, 63, 64
2, 987, Note_off_c, 0, 51, 64
2, 1085, Control_c, 0, 64, 0
2, 1111, Note_on_c, 0, 64, 22
2, 1111, Note_on_c, 0, 55, 16
2, 1116, Note_on_c, 0, 61, 16
2, 1118, Control_c, 0, 64, 127
2, 1143, Control_c, 0, 64, 0
2, 1188, Control_c, 0, 64, 127
2, 1208, Note_off_c, 0, 64, 64
2, 1225, Note_off_c, 0, 61, 64
2, 1262, Note_on_c, 0, 70, 37
2, 1276, Note_off_c, 0, 72, 64
2, 1290, Note_off_c, 0, 55, 64
2, 1308, Note_on_c, 0, 68, 42
2, 1320, Note_on_c, 0, 63, 23
2, 1321, Note_off_c, 0, 70, 64
2, 1326, Note_on_c, 0, 56, 23
2, 1336, Note_on_c, 0, 60, 19
2, 1340, Control_c, 0, 64, 0
2, 1376, Control_c, 0, 64, 127
2, 1389, Control_c, 0, 64, 0
2, 1425, Note_on_c, 0, 77, 39
2, 1426, Control_c, 0, 64, 127
2, 1441, Note_off_c, 0, 68, 64
2, 1498, Note_off_c, 0, 56, 64
2, 1526, Note_on_c, 0, 75, 32
2, 1532, Note_on_c, 0, 51, 31
2, 1533, Note_off_c, 0, 77, 64
2, 1536, Control_c, 0, 64, 0
2, 1546, Note_off_c, 0, 60, 64
2, 1562, Control_c, 0, 64, 127
2, 1600, Control_c, 0, 64, 0
2, 1601, Note_off_c, 0, 75, 64
2, 1605, Note_off_c, 0, 51, 64
2, 1613, Control_c, 0, 64, 127
2, 1621, Note_off_c, 0, 63, 64
2, 1722, Note_on_c, 0, 72, 35
2, 1729, Note_on_c, 0, 61, 22
2, 1729, Note_on_c, 0, 55, 23
2, 1736, Note_on_c, 0, 64, 22
2, 1766, Control_c, 0, 64, 0
2, 1791, Control_c, 0, 64, 127
2, 1815, Control_c, 0, 64, 0
2, 1820, Note_off_c, 0, 64, 64
2, 1841, Note_off_c, 0, 61, 64
2, 1860, Control_c, 0, 64, 127
2, 1867, Note_on_c, 0, 70, 28
2, 1874, Note_off_c, 0, 72, 64
2, 1895, Note_off_c, 0, 55, 64
2, 1919, Note_on_c, 0, 68, 31
2, 1929, Note_off_c, 0, 70, 64
2, 1933, Note_on_c, 0, 63, 26
2, 1939, Note_on_c, 0, 60, 23
2, 1939, Note_on_c, 0, 56, 9
2, 1956, Control_c, 0, 64, 0
2, 2003, Control_c, 0, 64, 127
2, 2012, Control_c, 0, 64, 0
2, 2018, Note_on_c, 0, 70, 36
2, 2043, Note_off_c, 0, 68, 64
2, 2048, Control_c, 0, 64, 127
2, 2108, Note_off_c, 0, 60, 64
2, 2109, Note_off_c, 0, 56, 64
2, 2121, Note_on_c, 0, 72, 35
2, 2129, Note_off_c, 0, 70, 64
2, 2129, Note_on_c, 0, 51, 28
2, 2138, Note_off_c, 0, 63, 64
2, 2147, Control_c, 0, 64, 0
2, 2168, Control_c, 0, 64, 127
2, 2208, Control_c, 0, 64, 0
2, 2234, Control_c, 0, 64, 127
2, 2268, Note_off_c, 0, 51, 64
2, 2357, Note_on_c, 0, 63, 27
2, 2358, Note_on_c, 0, 61, 16
2, 2361, Note_on_c, 0, 56, 26
2, 2395, Note_off_c, 0, 72, 64
2, 2396, Control_c, 0, 64, 0
2, 2438, Control_c, 0, 64, 0
2, 2449, Control_c, 0, 64, 127
2, 2463, Control_c, 0, 64, 127
2, 2518, Note_on_c, 0, 55, 23
2, 2522, Note_off_c, 0, 56, 64
2, 2580, Note_on_c, 0, 53, 14
2, 2584, Note_off_c, 0, 55, 64
2, 2622, Control_c, 0, 64, 0
2, 2628, Control_c, 0, 64, 0
2, 2675, Control_c, 0, 64, 127
2, 2688, Note_on_c, 0, 55, 26
2, 2693, Note_off_c, 0, 53, 64
2, 2819, Control_c, 0, 64, 0
2, 2833, Note_on_c, 0, 51, 14
2, 2840, Control_c, 0, 64, 127
2, 2878, Note_off_c, 0, 55, 64
2, 2890, Control_c, 0, 64, 127
2, 2964, Note_off_c, 0, 61, 64
2, 2964, Note_off_c, 0, 63, 64
2, 3068, Control_c, 0, 64, 0
2, 3121, Control_c, 0, 64, 127
2, 3143, Note_off_c, 0, 51, 64
2, 3162, Note_on_c, 0, 72, 39
2, 3168, Note_on_c, 0, 61, 23
2, 3168, Note_on_c, 0, 55, 28
2, 3175, Note_on_c, 0, 64, 28
2, 3198, Control_c, 0, 64, 0
2, 3228, Control_c, 0, 64, 127
2, 3294, Control_c, 0, 64, 0
2, 3332, Note_on_c, 0, 70, 40
2, 3334, Note_off_c, 0, 64, 64
2, 3335, Note_off_c, 0, 72, 64
2, 3367, Note_off_c, 0, 61, 64
2, 3378, Note_off_c, 0, 55, 64
2, 3384, Note_on_c, 0, 63, 32
2, 3388, Note_on_c, 0, 68, 44
2, 3388, Note_on_c, 0, 56, 16
2, 3395, Note_off_c, 0, 70, 64
2, 3410, Control_c, 0, 64, 0
2, 3417, Note_on_c, 0, 60, 22
2, 3447, Control_c, 0, 64, 127
2, 3490, Note_on_c, 0, 70, 36
2, 3504, Note_off_c, 0, 68, 64
2, 3562, Control_c, 0, 64, 127
2, 3569, Note_off_c, 0, 60, 64
2, 3582, Note_on_c, 0, 72, 42
2, 3589, Note_off_c, 0, 70, 64
2, 3589, Note_on_c, 0, 51, 37
2, 3592, Note_off_c, 0, 56, 64
2, 3605, Control_c, 0, 64, 0
2, 3636, Control_c, 0, 64, 127
2, 3673, Note_off_c, 0, 63, 64
2, 3682, Note_off_c, 0, 51, 64
2, 3778, Note_on_c, 0, 64, 31
2, 3778, Note_on_c, 0, 55, 29
2, 3781, Note_on_c, 0, 61, 28
2, 3801, Control_c, 0, 64, 0
2, 3821, Control_c, 0, 64, 127
2, 3870, Control_c, 0, 64, 0
2, 3900, Control_c, 0, 64, 127
2, 3944, Note_on_c, 0, 70, 39
2, 3954, Note_off_c, 0, 55, 64
2, 3963, Note_off_c, 0, 72, 64
2, 3971, Note_off_c, 0, 61, 64
2, 3977, Note_off_c, 0, 64, 64
2, 3980, Note_on_c, 0, 56, 29
2, 3984, Note_on_c, 0, 63, 29
2, 3987, Note_on_c, 0, 68, 40
2, 3991, Note_off_c, 0, 70, 64
2, 4000, Control_c, 0, 64, 0
2, 4023, Control_c, 0, 64, 127
2, 4082, Control_c, 0, 64, 0
2, 4112, Note_on_c, 0, 79, 44
2, 4119, Control_c, 0, 64, 127
2, 4217, Note_off_c, 0, 56, 64
2, 4220, Note_on_c, 0, 77, 39
2, 4230, Note_on_c, 0, 59, 32
2, 4247, Note_off_c, 0, 79, 64
2, 4258, Control_c, 0, 64, 0
2, 4277, Control_c, 0, 64, 0
2, 4302, Control_c, 0, 64, 127
2, 4308, Control_c, 0, 64, 127
2, 4366, Note_off_c, 0, 59, 64
2, 4397, Note_off_c, 0, 63, 64
2, 4466, Note_off_c, 0, 68, 64
2, 4473, Control_c, 0, 64, 0
2, 4479, Note_off_c, 0, 77, 64
2, 4493, Control_c, 0, 64, 127
2, 4501, Note_on_c, 0, 70, 42
2, 4505, Note_on_c, 0, 63, 22
2, 4505, Note_on_c, 0, 51, 28
2, 4507, Note_on_c, 0, 67, 26
2, 4512, Note_on_c, 0, 58, 28
2, 4556, Control_c, 0, 64, 0
2, 4587, Control_c, 0, 64, 127
2, 4638, Note_off_c, 0, 58, 64
2, 4656, Note_off_c, 0, 67, 64
2, 4667, Note_off_c, 0, 63, 64
2, 4672, Control_c, 0, 64, 0
2, 4695, Control_c, 0, 64, 127
2, 4754, Note_on_c, 0, 68, 40
2, 4760, Note_off_c, 0, 70, 64
2, 4760, Note_on_c, 0, 59, 29
2, 4767, Note_on_c, 0, 62, 26
2, 4777, Control_c, 0, 64, 0
2, 4790, Control_c, 0, 64, 127
2, 4803, Note_off_c, 0, 51, 64
2, 4930, Control_c, 0, 64, 0
2, 4949, Note_on_c, 0, 79, 37
2, 4974, Control_c, 0, 64, 127
2, 5004, Note_on_c, 0, 77, 35
2, 5006, Note_on_c, 0, 51, 33
2, 5023, Note_off_c, 0, 79, 64
2, 5048, Note_off_c, 0, 59, 64
2, 5070, Note_off_c, 0, 62, 64
2, 5195, Note_off_c, 0, 68, 64
2, 5228, Control_c, 0, 64, 0
2, 5240, Note_on_c, 0, 68, 37
2, 5254, Note_on_c, 0, 62, 27
2, 5254, Note_on_c, 0, 59, 31
2, 5259, Control_c, 0, 64, 127
2, 5261, Note_off_c, 0, 77, 64
2, 5263, Note_off_c, 0, 51, 64
2, 5284, Control_c, 0, 64, 0
2, 5330, Control_c, 0, 64, 127
2, 5449, Control_c, 0, 64, 0
2, 5462, Control_c, 0, 64, 127
2, 5464, Note_on_c, 0, 79, 28
2, 5526, Note_on_c, 0, 51, 26
2, 5528, Note_on_c, 0, 77, 39
2, 5554, Note_off_c, 0, 79, 64
2, 5561, Control_c, 0, 64, 0
2, 5588, Note_off_c, 0, 59, 64
2, 5598, Control_c, 0, 64, 127
2, 5623, Note_off_c, 0, 62, 64
2, 5848, Note_off_c, 0, 68, 64
2, 5874, Note_on_c, 0, 63, 16
2, 5875, Note_on_c, 0, 67, 18
2, 5882, Note_on_c, 0, 70, 27
2, 5888, Note_on_c, 0, 58, 16
2, 5895, Note_off_c, 0, 77, 64
2, 5935, Control_c, 0, 64, 0
2, 5956, Control_c, 0, 64, 0
2, 5977, Control_c, 0, 64, 127
2, 6002, Control_c, 0, 64, 127
2, 6101, Note_off_c, 0, 51, 64
2, 6115, Note_off_c, 0, 58, 64
2, 6122, Note_off_c, 0, 63, 64
2, 6131, Note_off_c, 0, 70, 64
2, 6193, Note_off_c, 0, 67, 64
2, 6233, Control_c, 0, 64, 0
2, 6270, Control_c, 0, 64, 127
2, 6302, Note_on_c, 0, 72, 41
2, 6304, Note_on_c, 0, 61, 36
2, 6314, Note_on_c, 0, 64, 27
2, 6318, Note_on_c, 0, 55, 28
2, 6340, Control_c, 0, 64, 0
2, 6373, Control_c, 0, 64, 127
2, 6416, Note_off_c, 0, 64, 64
2, 6425, Note_off_c, 0, 61, 64
2, 6481, Note_off_c, 0, 55, 64
2, 6492, Note_on_c, 0, 70, 32
2, 6513, Note_off_c, 0, 72, 64
2, 6534, Note_on_c, 0, 56, 22
2, 6536, Note_on_c, 0, 63, 41
2, 6546, Note_on_c, 0, 68, 40
2, 6560, Note_on_c, 0, 60, 20
2, 6562, Note_off_c, 0, 70, 64
2, 6576, Control_c, 0, 64, 0
2, 6605, Control_c, 0, 64, 127
2, 6607, Control_c, 0, 64, 0
2, 6649, Control_c, 0, 64, 127
2, 6652, Note_on_c, 0, 70, 46
2, 6680, Note_off_c, 0, 68, 64
2, 6752, Note_on_c, 0, 72, 44
2, 6762, Note_on_c, 0, 51, 41
2, 6766, Note_off_c, 0, 70, 64
2, 6773, Control_c, 0, 64, 0
2, 6779, Note_off_c, 0, 60, 64
2, 6782, Note_off_c, 0, 56, 64
2, 6789, Control_c, 0, 64, 127
2, 6842, Note_off_c, 0, 51, 64
2, 6868, Note_off_c, 0, 63, 64
2, 6946, Note_on_c, 0, 55, 40
2, 6949, Note_on_c, 0, 64, 36
2, 6953, Note_on_c, 0, 61, 37
2, 6962, Control_c, 0, 64, 0
2, 6986, Control_c, 0, 64, 127
2, 7012, Control_c, 0, 64, 0
2, 7028, Note_off_c, 0, 64, 64
2, 7038, Note_off_c, 0, 61, 64
2, 7045, Control_c, 0, 64, 127
2, 7090, Note_off_c, 0, 55, 64
2, 7093, Note_on_c, 0, 70, 41
2, 7108, Note_off_c, 0, 72, 64
2, 7138, Note_on_c, 0, 68, 40
2, 7143, Note_on_c, 0, 63, 44
2, 7146, Note_off_c, 0, 70, 64
2, 7146, Note_on_c, 0, 60, 42
2, 7152, Note_on_c, 0, 56, 23
2, 7165, Control_c, 0, 64, 0
2, 7189, Control_c, 0, 64, 127
2, 7246, Note_on_c, 0, 77, 44
2, 7248, Control_c, 0, 64, 0
2, 7277, Note_off_c, 0, 68, 64
2, 7277, Control_c, 0, 64, 127
2, 7345, Note_on_c, 0, 75, 44
2, 7354, Note_on_c, 0, 51, 28
2, 7358, Note_off_c, 0, 77, 64
2, 7359, Control_c, 0, 64, 0
2, 7371, Note_off_c, 0, 56, 64
2, 7372, Control_c, 0, 64, 127
2, 7387, Note_off_c, 0, 60, 64
2, 7400, Note_off_c, 0, 75, 64
2, 7413, Note_off_c, 0, 51, 64
2, 7442, Note_off_c, 0, 63, 64
2, 7445, Control_c, 0, 64, 0
2, 7461, Control_c, 0, 64, 127
2, 7552, Note_on_c, 0, 72, 48
2, 7558, Note_on_c, 0, 61, 24
2, 7564, Note_on_c, 0, 55, 28
2, 7567, Note_on_c, 0, 64, 22
2, 7583, Control_c, 0, 64, 0
2, 7619, Control_c, 0, 64, 127
2, 7634, Control_c, 0, 64, 0
2, 7657, Note_off_c, 0, 64, 64
2, 7658, Control_c, 0, 64, 127
2, 7682, Note_off_c, 0, 61, 64
2, 7704, Note_on_c, 0, 70, 40
2, 7728, Note_off_c, 0, 72, 64
2, 7732, Note_off_c, 0, 55, 64
2, 7779, Note_on_c, 0, 67, 44
2, 7786, Note_on_c, 0, 63, 35
2, 7791, Note_off_c, 0, 70, 64
2, 7799, Note_on_c, 0, 60, 36
2, 7799, Note_on_c, 0, 56, 19
2, 7812, Control_c, 0, 64, 0
2, 7833, Control_c, 0, 64, 127
2, 7837, Control_c, 0, 64, 0
2, 7861, Control_c, 0, 64, 127
2, 7866, Note_on_c, 0, 68, 40
2, 7891, Note_off_c, 0, 67, 64
2, 7951, Note_on_c, 0, 70, 41
2, 7963, Note_off_c, 0, 56, 64
2, 7963, Note_off_c, 0, 60, 64
2, 7966, Note_off_c, 0, 68, 64
2, 8031, Control_c, 0, 64, 0
2, 8032, Note_on_c, 0, 51, 23
2, 8044, Control_c, 0, 64, 127
2, 8051, Note_on_c, 0, 71, 33
2, 8065, Note_off_c, 0, 70, 64
2, 8075, Control_c, 0, 64, 0
2, 8088, Note_off_c, 0, 63, 64
2, 8088, Control_c, 0, 64, 127
2, 8138, Note_on_c, 0, 73, 52
2, 8144, Note_off_c, 0, 71, 64
2, 8208, Note_off_c, 0, 73, 64
2, 8255, Control_c, 0, 64, 0
2, 8271, Note_on_c, 0, 72, 49
2, 8281, Note_off_c, 0, 51, 64
2, 8291, Control_c, 0, 64, 127
2, 8305, Note_off_c, 0, 72, 64
2, 8334, Note_on_c, 0, 72, 49
2, 8376, Note_on_c, 0, 63, 45
2, 8376, Note_on_c, 0, 56, 32
2, 8383, Note_on_c, 0, 61, 28
2, 8385, Note_off_c, 0, 72, 64
2, 8442, Control_c, 0, 64, 0
2, 8484, Control_c, 0, 64, 0
2, 8505, Control_c, 0, 64, 127
2, 8569, Note_on_c, 0, 55, 40
2, 8573, Note_off_c, 0, 56, 64
2, 8631, Note_on_c, 0, 53, 39
2, 8651, Note_off_c, 0, 55, 64
2, 8747, Control_c, 0, 64, 0
2, 8753, Note_on_c, 0, 55, 36
2, 8755, Note_off_c, 0, 53, 64
2, 8760, Control_c, 0, 64, 127
2, 8912, Note_on_c, 0, 51, 23
2, 8942, Note_off_c, 0, 55, 64
2, 9024, Control_c, 0, 64, 127
2, 9114, Control_c, 0, 64, 0
2, 9126, Note_off_c, 0, 63, 64
2, 9146, Note_off_c, 0, 61, 64
2, 9283, Note_on_c, 0, 72, 40
2, 9288, Note_on_c, 0, 61, 29
2, 9293, Note_on_c, 0, 64, 27
2, 9298, Note_on_c, 0, 55, 27
2, 9299, Note_off_c, 0, 51, 64
2, 9312, Control_c, 0, 64, 0
2, 9344, Control_c, 0, 64, 127
2, 9372, Note_off_c, 0, 64, 64
2, 9390, Note_off_c, 0, 61, 64
2, 9439, Note_off_c, 0, 55, 64
2, 9457, Note_off_c, 0, 72, 64
2, 9468, Note_on_c, 0, 70, 27
2, 9495, Note_on_c, 0, 63, 33
2, 9498, Note_on_c, 0, 56, 23
2, 9502, Note_on_c, 0, 68, 36
2, 9505, Note_off_c, 0, 70, 64
2, 9515, Note_on_c, 0, 60, 18
2, 9527, Control_c, 0, 64, 0
2, 9548, Control_c, 0, 64, 127
2, 9601, Note_on_c, 0, 70, 58
2, 9616, Note_off_c, 0, 68, 64
2, 9691, Note_off_c, 0, 60, 64
2, 9696, Control_c, 0, 64, 127
2, 9705, Note_off_c, 0, 56, 64
2, 9705, Note_on_c, 0, 72, 50
2, 9720, Note_off_c, 0, 70, 64
2, 9721, Note_on_c, 0, 51, 26
2, 9724, Control_c, 0, 64, 0
2, 9760, Control_c, 0, 64, 127
2, 9786, Note_off_c, 0, 51, 64
2, 9815, Note_off_c, 0, 63, 64
2, 9911, Note_on_c, 0, 61, 32
2, 9918, Note_on_c, 0, 64, 23
2, 9924, Note_on_c, 0, 55, 27
2, 9984, Control_c, 0, 64, 0
2, 9989, Note_on_c, 0, 70, 45
2, 10001, Note_off_c, 0, 55, 64
2, 10001, Note_off_c, 0, 64, 64
2, 10003, Note_off_c, 0, 61, 64
2, 10006, Note_off_c, 0, 72, 64
2, 10016, Control_c, 0, 64, 127
2, 10036, Note_on_c, 0, 72, 46
2, 10044, Note_off_c, 0, 70, 64
2, 10074, Note_on_c, 0, 70, 62
2, 10087, Note_off_c, 0, 72, 64
2, 10114, Note_on_c, 0, 68, 61
2, 10122, Note_off_c, 0, 70, 64
2, 10128, Note_on_c, 0, 63, 36
2, 10128, Note_on_c, 0, 56, 36
2, 10137, Note_on_c, 0, 60, 42
2, 10152, Control_c, 0, 64, 0
2, 10177, Control_c, 0, 64, 127
2, 10199, Control_c, 0, 64, 0
2, 10220, Control_c, 0, 64, 127
2, 10242, Note_off_c, 0, 60, 64
2, 10250, Note_off_c, 0, 56, 64
2, 10255, Note_off_c, 0, 68, 64
2, 10276, Note_off_c, 0, 63, 64
2, 10347, Note_on_c, 0, 80, 57
2, 10392, Note_on_c, 0, 71, 32
2, 10393, Note_on_c, 0, 62, 40
2, 10396, Control_c, 0, 64, 0
2, 10400, Note_on_c, 0, 68, 36
2, 10404, Note_on_c, 0, 77, 58
2, 10423, Note_off_c, 0, 80, 64
2, 10432, Control_c, 0, 64, 127
2, 10434, Control_c, 0, 64, 0
2, 10447, Control_c, 0, 64, 127
2, 10490, Note_off_c, 0, 71, 64
2, 10509, Note_off_c, 0, 62, 64
2, 10524, Note_off_c, 0, 68, 64
2, 10672, Note_on_c, 0, 67, 32
2, 10672, Note_on_c, 0, 63, 36
2, 10676, Note_on_c, 0, 70, 53
2, 10708, Note_off_c, 0, 77, 64
2, 10717, Control_c, 0, 64, 0
2, 10728, Control_c, 0, 64, 127
2, 10775, Note_off_c, 0, 67, 64
2, 10824, Control_c, 0, 64, 0
2, 10849, Control_c, 0, 64, 127
2, 10869, Note_on_c, 0, 72, 49
2, 10879, Note_off_c, 0, 70, 64
2, 10901, Note_off_c, 0, 63, 64
2, 10918, Note_on_c, 0, 73, 58
2, 10920, Note_on_c, 0, 65, 28
2, 10920, Note_on_c, 0, 58, 40
2, 10933, Control_c, 0, 64, 0
2, 10939, Note_off_c, 0, 72, 64
2, 10956, Control_c, 0, 64, 127
2, 10999, Note_off_c, 0, 65, 64
2, 11106, Control_c, 0, 64, 0
2, 11119, Control_c, 0, 64, 127
2, 11145, Note_off_c, 0, 58, 64
2, 11151, Note_on_c, 0, 51, 29
2, 11152, Note_on_c, 0, 67, 49
2, 11152, Note_on_c, 0, 63, 46
2, 11154, Note_on_c, 0, 72, 53
2, 11157, Note_off_c, 0, 73, 64
2, 11331, Note_on_c, 0, 70, 36
2, 11331, Note_on_c, 0, 61, 36
2, 11338, Note_off_c, 0, 63, 64
2, 11339, Note_off_c, 0, 72, 64
2, 11354, Note_off_c, 0, 67, 64
2, 11389, Control_c, 0, 64, 0
2, 11400, Control_c, 0, 64, 127
2, 11407, Note_on_c, 0, 65, 48
2, 11409, Note_off_c, 0, 51, 64
2, 11410, Note_on_c, 0, 68, 53
2, 11410, Note_on_c, 0, 56, 27
2, 11412, Note_on_c, 0, 73, 44
2, 11424, Note_off_c, 0, 61, 64
2, 11428, Note_off_c, 0, 70, 64
2, 11458, Control_c, 0, 64, 0
2, 11501, Control_c, 0, 64, 127
2, 11605, Control_c, 0, 64, 0
2, 11628, Control_c, 0, 64, 127
2, 11652, Note_on_c, 0, 63, 29
2, 11658, Note_off_c, 0, 68, 64
2, 11659, Note_on_c, 0, 72, 44
2, 11675, Note_off_c, 0, 73, 64
2, 11711, Note_off_c, 0, 65, 64
2, 11720, Note_on_c, 0, 60, 41
2, 11727, Note_on_c, 0, 68, 35
2, 11734, Note_off_c, 0, 72, 64
2, 11735, Note_off_c, 0, 63, 64
2, 11757, Control_c, 0, 64, 0
2, 11872, Control_c, 0, 64, 127
2, 12048, Note_off_c, 0, 60, 64
2, 12052, Note_on_c, 0, 65, 48
2, 12057, Note_off_c, 0, 68, 64
2, 12080, Note_off_c, 0, 56, 64
2, 12130, Control_c, 0, 64, 0
2, 12173, Control_c, 0, 64, 127
2, 12294, Note_on_c, 0, 73, 55
2, 12309, Control_c, 0, 64, 0
2, 12324, Note_off_c, 0, 65, 64
2, 12333, Control_c, 0, 64, 127
2, 12370, Note_off_c, 0, 73, 64
2, 12429, Control_c, 0, 64, 0
2, 12504, Note_on_c, 0, 70, 53
2, 12513, Note_on_c, 0, 46, 24
2, 12515, Note_on_c, 0, 61, 41
2, 12537, Control_c, 0, 64, 0
2, 12544, Control_c, 0, 64, 127
2, 12569, Control_c, 0, 64, 127
2, 12602, Note_off_c, 0, 61, 64
2, 12615, Note_off_c, 0, 46, 64
2, 12683, Note_on_c, 0, 73, 42
2, 12722, Note_off_c, 0, 70, 64
2, 12738, Note_on_c, 0, 65, 50
2, 12741, Note_on_c, 0, 77, 50
2, 12745, Note_on_c, 0, 61, 52
2, 12752, Note_on_c, 0, 53, 40
2, 12752, Note_on_c, 0, 46, 36
2, 12755, Note_off_c, 0, 73, 64
2, 12781, Control_c, 0, 64, 0
2, 12823, Control_c, 0, 64, 127
2, 12828, Note_off_c, 0, 65, 64
2, 12949, Note_on_c, 0, 76, 58
2, 12956, Note_off_c, 0, 77, 64
2, 12971, Note_off_c, 0, 53, 64
2, 12974, Note_off_c, 0, 61, 64
2, 12978, Note_off_c, 0, 46, 64
2, 12981, Control_c, 0, 64, 0
2, 13005, Control_c, 0, 64, 127
2, 13092, Note_on_c, 0, 72, 36
2, 13111, Note_off_c, 0, 76, 64
2, 13138, Note_on_c, 0, 46, 49
2, 13145, Note_on_c, 0, 60, 42
2, 13148, Note_on_c, 0, 75, 49
2, 13157, Note_on_c, 0, 53, 42
2, 13163, Note_off_c, 0, 72, 64
2, 13168, Control_c, 0, 64, 0
2, 13194, Control_c, 0, 64, 127
2, 13209, Control_c, 0, 64, 0
2, 13214, Note_off_c, 0, 46, 64
2, 13222, Note_off_c, 0, 53, 64
2, 13227, Note_off_c, 0, 60, 64
2, 13241, Control_c, 0, 64, 127
2, 13250, Note_on_c, 0, 73, 54
2, 13256, Note_off_c, 0, 75, 64
2, 13337, Note_on_c, 0, 82, 57
2, 13344, Note_on_c, 0, 70, 55
2, 13344, Note_on_c, 0, 46, 49
2, 13350, Note_on_c, 0, 61, 50
2, 13354, Note_off_c, 0, 73, 64
2, 13354, Note_on_c, 0, 53, 44
2, 13379, Control_c, 0, 64, 0
2, 13403, Control_c, 0, 64, 127
2, 13439, Note_off_c, 0, 82, 64
2, 13453, Control_c, 0, 64, 0
2, 13487, Note_on_c, 0, 73, 49
2, 13494, Note_off_c, 0, 70, 64
2, 13495, Control_c, 0, 64, 127
2, 13517, Note_on_c, 0, 75, 50
2, 13518, Note_off_c, 0, 73, 64
2, 13553, Note_on_c, 0, 73, 55
2, 13563, Note_off_c, 0, 46, 64
2, 13564, Note_off_c, 0, 75, 64
2, 13564, Note_off_c, 0, 53, 64
2, 13570, Note_off_c, 0, 61, 64
2, 13765, Note_on_c, 0, 70, 49
2, 13766, Note_on_c, 0, 61, 49
2, 13766, Note_on_c, 0, 46, 50
2, 13770, Note_on_c, 0, 53, 42
2, 13775, Note_off_c, 0, 73, 64
2, 13785, Control_c, 0, 64, 0
2, 13796, Control_c, 0, 64, 127
2, 13828, Note_off_c, 0, 46, 64
2, 13829, Note_off_c, 0, 53, 64
2, 13835, Note_off_c, 0, 61, 64
2, 13840, Control_c, 0, 64, 0
2, 13862, Note_on_c, 0, 73, 49
2, 13865, Note_off_c, 0, 70, 64
2, 13866, Control_c, 0, 64, 127
2, 13960, Note_on_c, 0, 77, 58
2, 13966, Note_on_c, 0, 65, 46
2, 13966, Note_on_c, 0, 61, 50
2, 13966, Note_on_c, 0, 46, 50
2, 13972, Note_off_c, 0, 73, 64
2, 13972, Note_on_c, 0, 53, 48
2, 13991, Control_c, 0, 64, 0
2, 14025, Note_off_c, 0, 65, 64
2, 14038, Control_c, 0, 64, 127
2, 14051, Control_c, 0, 64, 0
2, 14075, Control_c, 0, 64, 127
2, 14152, Note_on_c, 0, 76, 50
2, 14166, Note_off_c, 0, 53, 64
2, 14171, Note_off_c, 0, 46, 64
2, 14181, Note_off_c, 0, 61, 64
2, 14235, Note_on_c, 0, 72, 57
2, 14243, Note_off_c, 0, 76, 64
2, 14320, Note_on_c, 0, 75, 57
2, 14325, Note_on_c, 0, 46, 49
2, 14332, Note_on_c, 0, 60, 42
2, 14333, Note_on_c, 0, 53, 46
2, 14339, Note_off_c, 0, 72, 64
2, 14340, Control_c, 0, 64, 0
2, 14364, Control_c, 0, 64, 127
2, 14387, Note_off_c, 0, 46, 64
2, 14392, Note_off_c, 0, 53, 64
2, 14393, Note_off_c, 0, 60, 64
2, 14401, Note_on_c, 0, 73, 62
2, 14407, Note_off_c, 0, 75, 64
2, 14457, Control_c, 0, 64, 0
2, 14468, Control_c, 0, 64, 127
2, 14504, Note_off_c, 0, 77, 64
2, 14505, Note_on_c, 0, 82, 57
2, 14509, Note_on_c, 0, 70, 62
2, 14516, Note_off_c, 0, 73, 64
2, 14518, Note_on_c, 0, 46, 50
2, 14522, Note_on_c, 0, 61, 58
2, 14523, Note_on_c, 0, 53, 44
2, 14541, Control_c, 0, 64, 0
2, 14575, Control_c, 0, 64, 127
2, 14663, Control_c, 0, 64, 0
2, 14679, Note_off_c, 0, 70, 64
2, 14689, Note_on_c, 0, 76, 50
2, 14710, Control_c, 0, 64, 127
2, 14711, Note_off_c, 0, 53, 64
2, 14718, Note_off_c, 0, 61, 64
2, 14725, Note_off_c, 0, 46, 64
2, 14768, Note_off_c, 0, 76, 64
2, 14771, Note_on_c, 0, 72, 58
2, 14869, Note_on_c, 0, 75, 66
2, 14869, Note_on_c, 0, 46, 50
2, 14877, Note_on_c, 0, 60, 46
2, 14885, Note_off_c, 0, 72, 64
2, 14885, Note_on_c, 0, 53, 49
2, 14888, Control_c, 0, 64, 0
2, 14909, Control_c, 0, 64, 127
2, 14932, Note_off_c, 0, 46, 64
2, 14945, Note_off_c, 0, 53, 64
2, 14951, Note_on_c, 0, 73, 62
2, 14960, Note_off_c, 0, 60, 64
2, 14964, Note_off_c, 0, 75, 64
2, 15012, Control_c, 0, 64, 0
2, 15036, Control_c, 0, 64, 127
2, 15042, Note_off_c, 0, 82, 64
2, 15050, Note_on_c, 0, 82, 62
2, 15050, Note_on_c, 0, 70, 63
2, 15062, Note_off_c, 0, 73, 64
2, 15063, Note_on_c, 0, 61, 55
2, 15066, Note_on_c, 0, 46, 45
2, 15068, Note_on_c, 0, 53, 49
2, 15095, Control_c, 0, 64, 0
2, 15144, Control_c, 0, 64, 127
2, 15213, Control_c, 0, 64, 0
2, 15230, Note_off_c, 0, 70, 64
2, 15233, Note_on_c, 0, 76, 58
2, 15247, Control_c, 0, 64, 127
2, 15315, Note_on_c, 0, 72, 62
2, 15323, Note_off_c, 0, 76, 64
2, 15324, Note_off_c, 0, 53, 64
2, 15347, Note_off_c, 0, 46, 64
2, 15347, Note_off_c, 0, 61, 64
2, 15429, Note_on_c, 0, 75, 62
2, 15440, Note_on_c, 0, 60, 49
2, 15441, Note_on_c, 0, 46, 49
2, 15445, Note_on_c, 0, 53, 48
2, 15451, Note_off_c, 0, 72, 64
2, 15468, Control_c, 0, 64, 0
2, 15503, Control_c, 0, 64, 127
2, 15536, Note_on_c, 0, 73, 63
2, 15544, Note_off_c, 0, 75, 64
2, 15546, Note_off_c, 0, 46, 64
2, 15559, Note_off_c, 0, 60, 64
2, 15560, Control_c, 0, 64, 0
2, 15565, Note_off_c, 0, 53, 64
2, 15581, Control_c, 0, 64, 127
2, 15656, Note_off_c, 0, 82, 64
2, 15678, Note_on_c, 0, 70, 58
2, 15685, Note_on_c, 0, 82, 58
2, 15694, Note_on_c, 0, 61, 48
2, 15696, Note_on_c, 0, 46, 48
2, 15698, Note_off_c, 0, 73, 64
2, 15703, Note_on_c, 0, 53, 40
2, 15747, Control_c, 0, 64, 0
2, 15767, Control_c, 0, 64, 0
2, 15801, Control_c, 0, 64, 127
2, 15816, Control_c, 0, 64, 127
2, 16028, Note_on_c, 0, 73, 58
2, 16043, Note_off_c, 0, 70, 64
2, 16049, Note_off_c, 0, 82, 64
2, 16054, Note_off_c, 0, 53, 64
2, 16063, Note_off_c, 0, 46, 64
2, 16093, Note_off_c, 0, 61, 64
2, 16140, Control_c, 0, 64, 0
2, 16175, Control_c, 0, 64, 127
2, 16315, Note_on_c, 0, 64, 28
2, 16315, Note_on_c, 0, 58, 37
2, 16322, Note_on_c, 0, 55, 18
2, 16359, Control_c, 0, 64, 0
2, 16372, Control_c, 0, 64, 127
2, 16419, Control_c, 0, 64, 0
2, 16473, Control_c, 0, 64, 127
2, 16578, Note_off_c, 0, 55, 64
2, 16589, Note_off_c, 0, 58, 64
2, 16589, Note_off_c, 0, 64, 64
2, 16594, Note_on_c, 0, 71, 45
2, 16597, Note_on_c, 0, 56, 32
2, 16606, Note_off_c, 0, 73, 64
2, 16606, Note_on_c, 0, 64, 35
2, 16606, Note_on_c, 0, 59, 32
2, 16651, Control_c, 0, 64, 0
2, 16675, Control_c, 0, 64, 127
2, 16897, Note_off_c, 0, 64, 64
2, 16905, Note_on_c, 0, 73, 48
2, 16914, Note_on_c, 0, 55, 23
2, 16921, Note_off_c, 0, 71, 64
2, 16921, Note_on_c, 0, 64, 32
2, 16921, Note_on_c, 0, 58, 36
2, 16948, Note_off_c, 0, 56, 64
2, 16964, Control_c, 0, 64, 0
2, 16986, Control_c, 0, 64, 127
2, 17000, Note_off_c, 0, 59, 64
2, 17031, Control_c, 0, 64, 0
2, 17044, Control_c, 0, 64, 127
2, 17212, Note_off_c, 0, 64, 64
2, 17267, Note_on_c, 0, 71, 37
2, 17267, Note_on_c, 0, 59, 35
2, 17272, Note_on_c, 0, 56, 26
2, 17277, Note_off_c, 0, 73, 64
2, 17282, Note_on_c, 0, 64, 28
2, 17323, Control_c, 0, 64, 0
2, 17331, Control_c, 0, 64, 0
2, 17337, Note_off_c, 0, 55, 64
2, 17339, Note_off_c, 0, 58, 64
2, 17347, Control_c, 0, 64, 127
2, 17379, Control_c, 0, 64, 127
2, 17636, Control_c, 0, 64, 0
2, 17658, Control_c, 0, 64, 127
2, 17670, Note_off_c, 0, 64, 64
2, 17720, Note_on_c, 0, 61, 20
2, 17722, Note_on_c, 0, 70, 37
2, 17724, Note_on_c, 0, 55, 23
2, 17727, Note_on_c, 0, 64, 18
2, 17728, Note_off_c, 0, 59, 64
2, 17745, Note_off_c, 0, 71, 64
2, 17783, Note_off_c, 0, 56, 64
2, 17814, Control_c, 0, 64, 0
2, 17852, Control_c, 0, 64, 127
2, 18003, Control_c, 0, 64, 0
2, 18051, Control_c, 0, 64, 127
2, 18172, Note_off_c, 0, 70, 64
2, 18180, Note_on_c, 0, 72, 29
2, 18211, Control_c, 0, 64, 0
2, 18221, Control_c, 0, 64, 127
2, 18303, Note_off_c, 0, 64, 64
2, 18312, Note_off_c, 0, 61, 64
2, 18316, Note_off_c, 0, 55, 64
2, 18452, Note_on_c, 0, 70, 40
2, 18462, Note_off_c, 0, 72, 64
2, 18486, Control_c, 0, 64, 0
2, 18498, Note_on_c, 0, 56, 16
2, 18505, Note_on_c, 0, 63, 20
2, 18506, Note_on_c, 0, 68, 40
2, 18514, Note_on_c, 0, 60, 27
2, 18516, Note_off_c, 0, 70, 64
2, 18524, Control_c, 0, 64, 127
2, 18555, Control_c, 0, 64, 0
2, 18567, Control_c, 0, 64, 127
2, 18635, Note_off_c, 0, 56, 64
2, 18642, Note_on_c, 0, 70, 40
2, 18682, Note_off_c, 0, 68, 64
2, 18748, Note_on_c, 0, 72, 44
2, 18753, Note_off_c, 0, 70, 64
2, 18763, Note_on_c, 0, 51, 22
2, 18789, Note_off_c, 0, 60, 64
2, 18796, Control_c, 0, 64, 0
2, 18808, Control_c, 0, 64, 127
2, 18851, Note_off_c, 0, 51, 64
2, 18883, Control_c, 0, 64, 0
2, 18885, Note_off_c, 0, 63, 64
2, 18893, Control_c, 0, 64, 127
2, 18954, Note_on_c, 0, 64, 29
2, 18959, Note_on_c, 0, 61, 32
2, 18969, Note_on_c, 0, 55, 19
2, 18993, Control_c, 0, 64, 0
2, 19006, Control_c, 0, 64, 127
2, 19058, Note_off_c, 0, 64, 64
2, 19081, Note_off_c, 0, 61, 64
2, 19117, Note_on_c, 0, 70, 44
2, 19120, Note_off_c, 0, 55, 64
2, 19127, Note_off_c, 0, 72, 64
2, 19159, Note_on_c, 0, 68, 42
2, 19167, Note_on_c, 0, 56, 28
2, 19176, Note_on_c, 0, 63, 28
2, 19179, Note_off_c, 0, 70, 64
2, 19202, Note_on_c, 0, 60, 13
2, 19227, Control_c, 0, 64, 0
2, 19239, Control_c, 0, 64, 127
2, 19337, Note_on_c, 0, 77, 44
2, 19346, Note_off_c, 0, 56, 64
2, 19360, Note_off_c, 0, 60, 64
2, 19366, Note_off_c, 0, 68, 64
2, 19392, Note_on_c, 0, 75, 44
2, 19404, Note_off_c, 0, 77, 64
2, 19406, Note_on_c, 0, 51, 22
2, 19428, Control_c, 0, 64, 0
2, 19452, Control_c, 0, 64, 127
2, 19468, Control_c, 0, 64, 0
2, 19480, Control_c, 0, 64, 127
2, 19507, Note_off_c, 0, 51, 64
2, 19509, Note_off_c, 0, 75, 64
2, 19520, Note_off_c, 0, 63, 64
2, 19634, Note_on_c, 0, 64, 29
2, 19640, Note_on_c, 0, 61, 24
2, 19644, Note_on_c, 0, 72, 49
2, 19649, Note_on_c, 0, 55, 26
2, 19665, Control_c, 0, 64, 0
2, 19678, Control_c, 0, 64, 127
2, 19693, Control_c, 0, 64, 0
2, 19707, Control_c, 0, 64, 127
2, 19742, Note_off_c, 0, 64, 64
2, 19784, Note_off_c, 0, 61, 64
2, 19810, Note_on_c, 0, 70, 53
2, 19815, Note_off_c, 0, 72, 64
2, 19856, Note_off_c, 0, 55, 64
2, 19892, Note_on_c, 0, 68, 36
2, 19900, Note_off_c, 0, 70, 64
2, 19908, Note_on_c, 0, 63, 32
2, 19908, Note_on_c, 0, 56, 32
2, 19926, Note_on_c, 0, 60, 24
2, 20021, Note_on_c, 0, 70, 46
2, 20043, Note_off_c, 0, 68, 64
2, 20095, Note_off_c, 0, 56, 64
2, 20100, Control_c, 0, 64, 0
2, 20124, Control_c, 0, 64, 127
2, 20125, Note_off_c, 0, 60, 64
2, 20145, Note_on_c, 0, 71, 53
2, 20149, Note_on_c, 0, 51, 32
2, 20160, Note_off_c, 0, 70, 64
2, 20201, Note_off_c, 0, 63, 64
2, 20223, Note_on_c, 0, 73, 48
2, 20232, Note_off_c, 0, 71, 64
2, 20306, Note_off_c, 0, 73, 64
2, 20355, Note_on_c, 0, 72, 49
2, 20365, Control_c, 0, 64, 0
2, 20379, Control_c, 0, 64, 127
2, 20397, Note_off_c, 0, 72, 64
2, 20427, Note_on_c, 0, 72, 42
2, 20473, Note_on_c, 0, 56, 36
2, 20480, Note_on_c, 0, 63, 49
2, 20486, Note_on_c, 0, 61, 29
2, 20492, Note_off_c, 0, 72, 64
2, 20502, Note_off_c, 0, 51, 64
2, 20534, Control_c, 0, 64, 0
2, 20615, Control_c, 0, 64, 127
2, 20688, Note_on_c, 0, 55, 36
2, 20700, Note_off_c, 0, 56, 64
2, 20753, Note_on_c, 0, 53, 35
2, 20759, Note_off_c, 0, 55, 64
2, 20776, Control_c, 0, 64, 0
2, 20871, Note_off_c, 0, 53, 64
2, 20875, Note_on_c, 0, 55, 36
2, 20995, Note_on_c, 0, 51, 35
2, 21026, Control_c, 0, 64, 127
2, 21055, Note_off_c, 0, 55, 64
2, 21100, Note_off_c, 0, 63, 64
2, 21104, Note_off_c, 0, 61, 64
2, 21206, Control_c, 0, 64, 0
2, 21287, Control_c, 0, 64, 127
2, 21289, Note_off_c, 0, 51, 64
2, 21295, Note_on_c, 0, 61, 23
2, 21297, Note_on_c, 0, 72, 42
2, 21302, Note_on_c, 0, 64, 29
2, 21305, Note_on_c, 0, 55, 26
2, 21327, Control_c, 0, 64, 0
2, 21350, Control_c, 0, 64, 127
2, 21379, Note_off_c, 0, 64, 64
2, 21393, Note_off_c, 0, 61, 64
2, 21432, Note_off_c, 0, 55, 64
2, 21448, Control_c, 0, 64, 0
2, 21454, Note_on_c, 0, 70, 20
2, 21456, Note_off_c, 0, 72, 64
2, 21495, Note_on_c, 0, 68, 44
2, 21502, Note_off_c, 0, 70, 64
2, 21503, Note_on_c, 0, 56, 22
2, 21507, Note_on_c, 0, 63, 27
2, 21508, Note_on_c, 0, 60, 29
2, 21521, Control_c, 0, 64, 0
2, 21563, Control_c, 0, 64, 127
2, 21628, Note_on_c, 0, 70, 33
2, 21665, Note_off_c, 0, 68, 64
2, 21681, Note_off_c, 0, 56, 64
2, 21698, Control_c, 0, 64, 127
2, 21706, Note_on_c, 0, 72, 48
2, 21708, Note_off_c, 0, 70, 64
2, 21711, Note_off_c, 0, 60, 64
2, 21719, Note_on_c, 0, 51, 29
2, 21727, Control_c, 0, 64, 0
2, 21762, Control_c, 0, 64, 127
2, 21802, Note_off_c, 0, 51, 64
2, 21809, Note_off_c, 0, 63, 64
2, 21910, Note_on_c, 0, 61, 29
2, 21917, Note_on_c, 0, 64, 28
2, 21923, Note_on_c, 0, 55, 24
2, 21937, Control_c, 0, 64, 0
2, 21958, Control_c, 0, 64, 127
2, 21999, Note_off_c, 0, 64, 64
2, 21999, Control_c, 0, 64, 0
2, 22017, Note_off_c, 0, 61, 64
2, 22022, Control_c, 0, 64, 127
2, 22053, Note_off_c, 0, 55, 64
2, 22081, Note_on_c, 0, 70, 42
2, 22087, Note_off_c, 0, 72, 64
2, 22122, Note_on_c, 0, 63, 29
2, 22122, Note_on_c, 0, 56, 22
2, 22123, Note_on_c, 0, 68, 49
2, 22133, Note_off_c, 0, 70, 64
2, 22135, Note_on_c, 0, 60, 22
2, 22151, Control_c, 0, 64, 0
2, 22162, Control_c, 0, 64, 127
2, 22193, Control_c, 0, 64, 0
2, 22234, Note_off_c, 0, 60, 64
2, 22235, Control_c, 0, 64, 127
2, 22247, Note_on_c, 0, 79, 42
2, 22356, Note_on_c, 0, 77, 44
2, 22362, Note_on_c, 0, 59, 33
2, 22384, Control_c, 0, 64, 0
2, 22394, Note_off_c, 0, 79, 64
2, 22395, Control_c, 0, 64, 127
2, 22399, Control_c, 0, 64, 0
2, 22408, Note_off_c, 0, 56, 64
2, 22434, Control_c, 0, 64, 127
2, 22451, Note_off_c, 0, 59, 64
2, 22495, Note_off_c, 0, 68, 64
2, 22581, Note_off_c, 0, 77, 64
2, 22590, Note_on_c, 0, 70, 44
2, 22591, Note_on_c, 0, 67, 40
2, 22600, Note_on_c, 0, 51, 29
2, 22607, Note_on_c, 0, 58, 16
2, 22609, Control_c, 0, 64, 0
2, 22621, Control_c, 0, 64, 0
2, 22630, Control_c, 0, 64, 127
2, 22668, Control_c, 0, 64, 127
2, 22693, Note_off_c, 0, 58, 64
2, 22702, Note_off_c, 0, 67, 64
2, 22748, Note_off_c, 0, 63, 64
2, 22823, Control_c, 0, 64, 0
2, 22824, Note_on_c, 0, 68, 42
2, 22824, Note_on_c, 0, 62, 15
2, 22834, Control_c, 0, 64, 127
2, 22839, Note_on_c, 0, 59, 28
2, 22842, Note_off_c, 0, 70, 64
2, 22845, Note_off_c, 0, 51, 64
2, 22859, Control_c, 0, 64, 0
2, 22885, Control_c, 0, 64, 127
2, 22999, Note_on_c, 0, 79, 41
2, 23056, Control_c, 0, 64, 0
2, 23056, Note_on_c, 0, 77, 48
2, 23064, Note_on_c, 0, 51, 29
2, 23067, Control_c, 0, 64, 127
2, 23078, Control_c, 0, 64, 0
2, 23085, Note_off_c, 0, 59, 64
2, 23085, Note_off_c, 0, 79, 64
2, 23103, Control_c, 0, 64, 127
2, 23106, Note_off_c, 0, 62, 64
2, 23249, Note_off_c, 0, 68, 64
2, 23293, Control_c, 0, 64, 0
2, 23294, Note_on_c, 0, 68, 42
2, 23300, Note_off_c, 0, 51, 64
2, 23307, Note_on_c, 0, 59, 31
2, 23308, Note_off_c, 0, 77, 64
2, 23314, Note_on_c, 0, 62, 24
2, 23340, Control_c, 0, 64, 127
2, 23350, Control_c, 0, 64, 0
2, 23373, Control_c, 0, 64, 127
2, 23531, Control_c, 0, 64, 0
2, 23534, Note_on_c, 0, 79, 33
2, 23557, Control_c, 0, 64, 127
2, 23595, Note_on_c, 0, 77, 48
2, 23602, Note_on_c, 0, 51, 22
2, 23616, Note_off_c, 0, 79, 64
2, 23640, Control_c, 0, 64, 0
2, 23650, Control_c, 0, 64, 127
2, 23678, Note_off_c, 0, 59, 64
2, 23727, Note_off_c, 0, 62, 64
2, 23750, Control_c, 0, 64, 0
2, 23775, Control_c, 0, 64, 127
2, 23942, Note_off_c, 0, 68, 64
2, 23978, Note_on_c, 0, 70, 40
2, 23985, Note_on_c, 0, 63, 18
2, 23989, Note_on_c, 0, 67, 20
2, 23991, Note_on_c, 0, 58, 16
2, 23998, Note_off_c, 0, 77, 64
2, 24022, Control_c, 0, 64, 0
2, 24045, Control_c, 0, 64, 127
2, 24055, Control_c, 0, 64, 0
2, 24076, Control_c, 0, 64, 127
2, 24151, Note_off_c, 0, 51, 64
2, 24187, Note_off_c, 0, 58, 64
2, 24214, Note_off_c, 0, 63, 64
2, 24245, Note_off_c, 0, 70, 64
2, 24312, Control_c, 0, 64, 0
2, 24322, Control_c, 0, 64, 127
2, 24336, Note_off_c, 0, 67, 64
2, 24434, Note_on_c, 0, 72, 42
2, 24438, Note_on_c, 0, 61, 27
2, 24450, Note_on_c, 0, 55, 22
2, 24452, Note_on_c, 0, 64, 24
2, 24493, Control_c, 0, 64, 0
2, 24515, Control_c, 0, 64, 127
2, 24557, Note_off_c, 0, 61, 64
2, 24563, Note_off_c, 0, 64, 64
2, 24630, Note_on_c, 0, 70, 40
2, 24633, Note_off_c, 0, 55, 64
2, 24648, Note_off_c, 0, 72, 64
2, 24668, Note_on_c, 0, 56, 29
2, 24679, Note_on_c, 0, 63, 27
2, 24686, Note_on_c, 0, 60, 27
2, 24691, Note_on_c, 0, 68, 44
2, 24704, Note_off_c, 0, 70, 64
2, 24708, Control_c, 0, 64, 0
2, 24727, Control_c, 0, 64, 0
2, 24748, Control_c, 0, 64, 127
2, 24754, Control_c, 0, 64, 127
2, 24796, Note_on_c, 0, 70, 49
2, 24822, Note_off_c, 0, 68, 64
2, 24897, Note_off_c, 0, 56, 64
2, 24902, Note_off_c, 0, 60, 64
2, 24904, Note_on_c, 0, 72, 45
2, 24905, Note_off_c, 0, 70, 64
2, 24906, Note_on_c, 0, 51, 35
2, 24918, Control_c, 0, 64, 0
2, 24941, Control_c, 0, 64, 127
2, 24977, Note_off_c, 0, 63, 64
2, 24989, Note_off_c, 0, 51, 64
2, 25107, Note_on_c, 0, 61, 33
2, 25113, Note_on_c, 0, 64, 32
2, 25114, Note_on_c, 0, 55, 28
2, 25123, Control_c, 0, 64, 0
2, 25160, Control_c, 0, 64, 127
2, 25165, Control_c, 0, 64, 0
2, 25187, Control_c, 0, 64, 127
2, 25193, Note_off_c, 0, 64, 64
2, 25203, Note_off_c, 0, 61, 64
2, 25267, Note_on_c, 0, 70, 44
2, 25274, Note_off_c, 0, 55, 64
2, 25274, Note_off_c, 0, 72, 64
2, 25310, Note_on_c, 0, 68, 40
2, 25319, Note_on_c, 0, 56, 18
2, 25320, Note_off_c, 0, 70, 64
2, 25323, Note_on_c, 0, 63, 29
2, 25326, Note_on_c, 0, 60, 23
2, 25337, Control_c, 0, 64, 0
2, 25350, Control_c, 0, 64, 127
2, 25380, Control_c, 0, 64, 0
2, 25426, Control_c, 0, 64, 127
2, 25427, Note_on_c, 0, 77, 39
2, 25483, Note_off_c, 0, 56, 64
2, 25494, Note_off_c, 0, 60, 64
2, 25522, Note_on_c, 0, 51, 28
2, 25526, Note_on_c, 0, 75, 40
2, 25536, Note_off_c, 0, 77, 64
2, 25537, Control_c, 0, 64, 0
2, 25560, Control_c, 0, 64, 127
2, 25590, Control_c, 0, 64, 0
2, 25613, Control_c, 0, 64, 127
2, 25634, Note_off_c, 0, 63, 64
2, 25644, Note_off_c, 0, 68, 64
2, 25656, Note_off_c, 0, 75, 64
2, 25659, Note_off_c, 0, 51, 64
2, 25758, Note_on_c, 0, 61, 23
2, 25764, Note_on_c, 0, 72, 45
2, 25771, Note_on_c, 0, 55, 28
2, 25775, Note_on_c, 0, 64, 22
2, 25795, Control_c, 0, 64, 0
2, 25832, Control_c, 0, 64, 127
2, 25843, Note_on_c, 0, 71, 41
2, 25850, Note_off_c, 0, 64, 64
2, 25870, Note_off_c, 0, 61, 64
2, 25886, Note_off_c, 0, 72, 64
2, 25909, Note_on_c, 0, 70, 49
2, 25932, Note_off_c, 0, 71, 64
2, 25934, Note_off_c, 0, 55, 64
2, 25991, Note_on_c, 0, 67, 42
2, 26001, Note_on_c, 0, 63, 32
2, 26007, Note_on_c, 0, 56, 23
2, 26008, Note_on_c, 0, 60, 29
2, 26009, Control_c, 0, 64, 0
2, 26010, Note_off_c, 0, 70, 64
2, 26022, Control_c, 0, 64, 127
2, 26028, Control_c, 0, 64, 0
2, 26053, Control_c, 0, 64, 127
2, 26075, Note_on_c, 0, 68, 33
2, 26092, Note_off_c, 0, 67, 64
2, 26128, Note_off_c, 0, 60, 64
2, 26152, Note_off_c, 0, 56, 64
2, 26164, Note_on_c, 0, 70, 44
2, 26180, Note_off_c, 0, 68, 64
2, 26209, Control_c, 0, 64, 0
2, 26220, Note_off_c, 0, 63, 64
2, 26232, Control_c, 0, 64, 127
2, 26257, Note_on_c, 0, 51, 28
2, 26266, Note_on_c, 0, 71, 36
2, 26280, Note_off_c, 0, 70, 64
2, 26341, Note_on_c, 0, 73, 42
2, 26350, Note_off_c, 0, 71, 64
2, 26414, Note_off_c, 0, 73, 64
2, 26478, Note_on_c, 0, 72, 44
2, 26511, Note_off_c, 0, 72, 64
2, 26551, Note_on_c, 0, 72, 52
2, 26604, Note_on_c, 0, 63, 42
2, 26610, Note_on_c, 0, 56, 29
2, 26613, Note_off_c, 0, 72, 64
2, 26613, Note_on_c, 0, 61, 24
2, 26620, Note_off_c, 0, 51, 64
2, 26652, Control_c, 0, 64, 0
2, 26700, Control_c, 0, 64, 0
2, 26725, Control_c, 0, 64, 127
2, 26800, Note_on_c, 0, 55, 31
2, 26802, Note_off_c, 0, 56, 64
2, 26816, Control_c, 0, 64, 127
2, 26861, Note_on_c, 0, 53, 28
2, 26868, Note_off_c, 0, 55, 64
2, 26998, Note_off_c, 0, 53, 64
2, 27006, Note_on_c, 0, 55, 29
2, 27098, Control_c, 0, 64, 0
2, 27165, Note_on_c, 0, 51, 28
2, 27211, Note_off_c, 0, 55, 64
2, 27315, Control_c, 0, 64, 127
2, 27324, Control_c, 0, 64, 0
2, 27412, Note_off_c, 0, 61, 64
2, 27432, Note_off_c, 0, 63, 64
2, 27488, Control_c, 0, 64, 127
2, 27567, Note_off_c, 0, 51, 64
2, 27572, Note_on_c, 0, 61, 39
2, 27578, Note_on_c, 0, 72, 52
2, 27582, Note_on_c, 0, 64, 42
2, 27588, Note_on_c, 0, 55, 29
2, 27611, Control_c, 0, 64, 0
2, 27643, Control_c, 0, 64, 127
2, 27669, Note_off_c, 0, 64, 64
2, 27684, Note_off_c, 0, 61, 64
2, 27745, Note_off_c, 0, 72, 64
2, 27746, Note_on_c, 0, 70, 28
2, 27754, Note_off_c, 0, 55, 64
2, 27770, Control_c, 0, 64, 0
2, 27794, Note_on_c, 0, 56, 42
2, 27795, Note_on_c, 0, 68, 58
2, 27804, Note_on_c, 0, 63, 44
2, 27807, Note_off_c, 0, 70, 64
2, 27813, Note_on_c, 0, 60, 29
2, 27826, Control_c, 0, 64, 0
2, 27862, Control_c, 0, 64, 127
2, 27900, Note_on_c, 0, 70, 58
2, 27926, Note_off_c, 0, 68, 64
2, 27951, Note_off_c, 0, 60, 64
2, 27955, Note_off_c, 0, 56, 64
2, 27987, Control_c, 0, 64, 127
2, 28011, Note_on_c, 0, 72, 58
2, 28011, Note_on_c, 0, 51, 37
2, 28017, Control_c, 0, 64, 0
2, 28026, Note_off_c, 0, 70, 64
2, 28031, Control_c, 0, 64, 127
2, 28085, Note_off_c, 0, 51, 64
2, 28096, Note_off_c, 0, 63, 64
2, 28212, Note_on_c, 0, 64, 44
2, 28212, Note_on_c, 0, 61, 31
2, 28212, Note_on_c, 0, 55, 44
2, 28272, Note_on_c, 0, 70, 50
2, 28279, Note_off_c, 0, 72, 64
2, 28280, Note_off_c, 0, 64, 64
2, 28282, Note_off_c, 0, 61, 64
2, 28283, Control_c, 0, 64, 0
2, 28299, Note_off_c, 0, 70, 64
2, 28304, Note_on_c, 0, 72, 48
2, 28315, Control_c, 0, 64, 127
2, 28316, Note_off_c, 0, 55, 64
2, 28345, Note_on_c, 0, 70, 59
2, 28356, Note_off_c, 0, 72, 64
2, 28390, Note_on_c, 0, 68, 57
2, 28402, Note_off_c, 0, 70, 64
2, 28412, Note_on_c, 0, 56, 44
2, 28413, Note_on_c, 0, 63, 44
2, 28420, Note_on_c, 0, 60, 42
2, 28471, Note_off_c, 0, 56, 64
2, 28472, Note_off_c, 0, 60, 64
2, 28498, Control_c, 0, 64, 0
2, 28519, Note_off_c, 0, 63, 64
2, 28534, Control_c, 0, 64, 127
2, 28553, Note_off_c, 0, 68, 64
2, 28586, Note_on_c, 0, 80, 50
2, 28645, Note_on_c, 0, 68, 52
2, 28648, Note_on_c, 0, 71, 50
2, 28649, Note_on_c, 0, 77, 62
2, 28649, Note_on_c, 0, 62, 52
2, 28670, Note_off_c, 0, 80, 64
2, 28689, Control_c, 0, 64, 0
2, 28703, Control_c, 0, 64, 127
2, 28716, Note_off_c, 0, 71, 64
2, 28739, Note_off_c, 0, 62, 64
2, 28744, Note_off_c, 0, 68, 64
2, 28911, Note_on_c, 0, 63, 48
2, 28912, Note_on_c, 0, 67, 48
2, 28914, Note_on_c, 0, 70, 63
2, 28940, Control_c, 0, 64, 0
2, 28944, Note_off_c, 0, 77, 64
2, 28976, Control_c, 0, 64, 127
2, 29035, Note_off_c, 0, 67, 64
2, 29122, Note_on_c, 0, 72, 52
2, 29136, Note_off_c, 0, 70, 64
2, 29160, Note_on_c, 0, 65, 48
2, 29160, Note_on_c, 0, 58, 58
2, 29162, Note_on_c, 0, 73, 70
2, 29175, Note_off_c, 0, 63, 64
2, 29182, Note_off_c, 0, 72, 64
2, 29196, Control_c, 0, 64, 0
2, 29219, Control_c, 0, 64, 127
2, 29365, Note_off_c, 0, 73, 64
2, 29380, Note_off_c, 0, 58, 64
2, 29401, Note_off_c, 0, 65, 64
2, 29412, Note_on_c, 0, 72, 63
2, 29412, Note_on_c, 0, 51, 45
2, 29417, Note_on_c, 0, 67, 58
2, 29417, Note_on_c, 0, 63, 52
2, 29443, Control_c, 0, 64, 0
2, 29457, Control_c, 0, 64, 127
2, 29564, Note_off_c, 0, 72, 64
2, 29576, Note_on_c, 0, 70, 36
2, 29576, Note_on_c, 0, 61, 48
2, 29578, Note_off_c, 0, 63, 64
2, 29594, Note_off_c, 0, 67, 64
2, 29602, Note_off_c, 0, 51, 64
2, 29612, Control_c, 0, 64, 0
2, 29628, Note_on_c, 0, 73, 63
2, 29630, Note_on_c, 0, 68, 70
2, 29632, Note_on_c, 0, 65, 59
2, 29637, Note_on_c, 0, 56, 44
2, 29648, Control_c, 0, 64, 127
2, 29655, Note_off_c, 0, 70, 64
2, 29657, Note_off_c, 0, 61, 64
2, 29682, Control_c, 0, 64, 0
2, 29716, Control_c, 0, 64, 127
2, 29852, Note_on_c, 0, 72, 62
2, 29852, Note_on_c, 0, 63, 52
2, 29868, Control_c, 0, 64, 0
2, 29873, Note_off_c, 0, 73, 64
2, 29875, Note_off_c, 0, 68, 64
2, 29891, Control_c, 0, 64, 127
2, 29912, Note_on_c, 0, 60, 53
2, 29914, Note_on_c, 0, 68, 65
2, 29917, Note_off_c, 0, 65, 64
2, 29939, Note_off_c, 0, 63, 64
2, 29941, Note_off_c, 0, 72, 64
2, 29964, Control_c, 0, 64, 0
2, 30048, Control_c, 0, 64, 127
2, 30115, Control_c, 0, 64, 0
2, 30129, Control_c, 0, 64, 127
2, 30194, Control_c, 0, 64, 0
2, 30240, Note_on_c, 0, 65, 72
2, 30248, Note_off_c, 0, 68, 64
2, 30255, Note_off_c, 0, 60, 64
2, 30278, Note_off_c, 0, 56, 64
2, 30315, Control_c, 0, 64, 127
2, 30354, Control_c, 0, 64, 0
2, 30388, Control_c, 0, 64, 127
2, 30475, Note_on_c, 0, 73, 58
2, 30498, Control_c, 0, 64, 0
2, 30505, Note_off_c, 0, 65, 64
2, 30513, Control_c, 0, 64, 127
2, 30555, Note_off_c, 0, 73, 64
2, 30636, Control_c, 0, 64, 0
2, 30706, Note_on_c, 0, 70, 54
2, 30710, Note_on_c, 0, 61, 50
2, 30710, Note_on_c, 0, 46, 53
2, 30712, Note_on_c, 0, 53, 29
2, 30720, Control_c, 0, 64, 127
2, 30821, Note_off_c, 0, 61, 64
2, 30832, Note_off_c, 0, 46, 64
2, 30834, Note_off_c, 0, 53, 64
2, 30866, Control_c, 0, 64, 0
2, 30890, Note_on_c, 0, 73, 49
2, 30926, Note_off_c, 0, 70, 64
2, 30930, Note_on_c, 0, 61, 53
2, 30939, Note_on_c, 0, 46, 42
2, 30943, Note_on_c, 0, 77, 57
2, 30945, Note_on_c, 0, 53, 41
2, 30948, Note_on_c, 0, 65, 58
2, 30953, Note_off_c, 0, 73, 64
2, 30971, Control_c, 0, 64, 0
2, 30987, Control_c, 0, 64, 127
2, 31012, Control_c, 0, 64, 127
2, 31034, Note_off_c, 0, 65, 64
2, 31155, Note_off_c, 0, 77, 64
2, 31159, Note_on_c, 0, 76, 54
2, 31170, Control_c, 0, 64, 0
2, 31176, Note_off_c, 0, 53, 64
2, 31185, Control_c, 0, 64, 127
2, 31187, Note_off_c, 0, 46, 64
2, 31192, Note_off_c, 0, 61, 64
2, 31316, Note_on_c, 0, 72, 48
2, 31331, Note_off_c, 0, 76, 64
2, 31352, Note_on_c, 0, 46, 49
2, 31360, Note_on_c, 0, 60, 44
2, 31361, Note_on_c, 0, 75, 62
2, 31371, Note_on_c, 0, 53, 44
2, 31371, Control_c, 0, 64, 0
2, 31382, Note_off_c, 0, 72, 64
2, 31398, Control_c, 0, 64, 127
2, 31457, Note_off_c, 0, 60, 64
2, 31466, Note_off_c, 0, 46, 64
2, 31469, Note_off_c, 0, 53, 64
2, 31502, Note_on_c, 0, 73, 55
2, 31512, Note_off_c, 0, 75, 64
2, 31570, Note_on_c, 0, 70, 57
2, 31572, Note_on_c, 0, 82, 63
2, 31578, Note_off_c, 0, 73, 64
2, 31583, Note_on_c, 0, 61, 53
2, 31583, Note_on_c, 0, 46, 36
2, 31584, Note_on_c, 0, 53, 48
2, 31619, Control_c, 0, 64, 0
2, 31643, Control_c, 0, 64, 0
2, 31663, Control_c, 0, 64, 127
2, 31684, Control_c, 0, 64, 127
2, 31716, Note_off_c, 0, 82, 64
2, 31757, Note_on_c, 0, 73, 50
2, 31767, Note_off_c, 0, 70, 64
2, 31790, Note_off_c, 0, 73, 64
2, 31790, Note_on_c, 0, 75, 52
2, 31814, Note_off_c, 0, 53, 64
2, 31822, Note_on_c, 0, 73, 55
2, 31827, Note_off_c, 0, 46, 64
2, 31830, Note_off_c, 0, 75, 64
2, 31833, Note_off_c, 0, 61, 64
2, 32022, Note_on_c, 0, 61, 53
2, 32025, Note_on_c, 0, 70, 49
2, 32025, Control_c, 0, 64, 0
2, 32033, Note_off_c, 0, 73, 64
2, 32033, Note_on_c, 0, 46, 49
2, 32036, Note_on_c, 0, 53, 41
2, 32043, Control_c, 0, 64, 0
2, 32065, Control_c, 0, 64, 127
2, 32070, Control_c, 0, 64, 127
2, 32123, Note_off_c, 0, 53, 64
2, 32124, Note_off_c, 0, 46, 64
2, 32125, Note_off_c, 0, 61, 64
2, 32134, Note_off_c, 0, 70, 64
2, 32134, Note_on_c, 0, 73, 55
2, 32232, Note_on_c, 0, 61, 55
2, 32233, Note_on_c, 0, 77, 58
2, 32238, Note_on_c, 0, 46, 50
2, 32239, Note_on_c, 0, 65, 55
2, 32244, Note_off_c, 0, 73, 64
2, 32246, Note_on_c, 0, 53, 48
2, 32272, Control_c, 0, 64, 0
2, 32291, Control_c, 0, 64, 0
2, 32305, Control_c, 0, 64, 127
2, 32335, Control_c, 0, 64, 127
2, 32373, Note_off_c, 0, 65, 64
2, 32425, Note_on_c, 0, 76, 53
2, 32455, Note_off_c, 0, 53, 64
2, 32463, Note_off_c, 0, 46, 64
2, 32478, Note_off_c, 0, 61, 64
2, 32508, Note_on_c, 0, 72, 41
2, 32527, Note_off_c, 0, 76, 64
2, 32606, Note_on_c, 0, 75, 62
2, 32616, Note_on_c, 0, 60, 49
2, 32619, Note_on_c, 0, 46, 49
2, 32622, Note_on_c, 0, 53, 49
2, 32629, Note_off_c, 0, 72, 64
2, 32632, Control_c, 0, 64, 0
2, 32645, Control_c, 0, 64, 127
2, 32687, Note_on_c, 0, 73, 63
2, 32690, Note_off_c, 0, 46, 64
2, 32693, Note_off_c, 0, 75, 64
2, 32696, Note_off_c, 0, 60, 64
2, 32697, Control_c, 0, 64, 0
2, 32700, Note_off_c, 0, 53, 64
2, 32737, Control_c, 0, 64, 127
2, 32791, Note_off_c, 0, 77, 64
2, 32796, Note_on_c, 0, 70, 62
2, 32799, Note_on_c, 0, 82, 52
2, 32804, Note_off_c, 0, 73, 64
2, 32807, Note_on_c, 0, 46, 53
2, 32814, Note_on_c, 0, 61, 58
2, 32814, Note_on_c, 0, 53, 49
2, 32837, Control_c, 0, 64, 0
2, 32871, Control_c, 0, 64, 127
2, 32944, Control_c, 0, 64, 0
2, 32974, Note_off_c, 0, 70, 64
2, 32977, Control_c, 0, 64, 127
2, 32985, Note_on_c, 0, 76, 55
2, 33025, Note_off_c, 0, 53, 64
2, 33025, Note_off_c, 0, 61, 64
2, 33036, Note_off_c, 0, 46, 64
2, 33060, Note_off_c, 0, 76, 64
2, 33067, Note_on_c, 0, 72, 58
2, 33159, Note_on_c, 0, 75, 57
2, 33172, Note_on_c, 0, 46, 48
2, 33174, Note_on_c, 0, 60, 54
2, 33177, Note_on_c, 0, 53, 50
2, 33184, Note_off_c, 0, 72, 64
2, 33191, Control_c, 0, 64, 0
2, 33204, Control_c, 0, 64, 127
2, 33241, Note_on_c, 0, 73, 62
2, 33243, Note_off_c, 0, 60, 64
2, 33252, Note_off_c, 0, 53, 64
2, 33252, Note_off_c, 0, 46, 64
2, 33252, Note_off_c, 0, 75, 64
2, 33304, Control_c, 0, 64, 0
2, 33317, Control_c, 0, 64, 127
2, 33318, Note_off_c, 0, 82, 64
2, 33347, Note_on_c, 0, 82, 59
2, 33349, Note_off_c, 0, 73, 64
2, 33349, Note_on_c, 0, 70, 61
2, 33355, Note_on_c, 0, 61, 58
2, 33360, Note_on_c, 0, 53, 49
2, 33360, Note_on_c, 0, 46, 42
2, 33391, Control_c, 0, 64, 0
2, 33413, Control_c, 0, 64, 127
2, 33509, Control_c, 0, 64, 0
2, 33543, Control_c, 0, 64, 127
2, 33556, Note_off_c, 0, 70, 64
2, 33563, Note_on_c, 0, 76, 55
2, 33610, Note_off_c, 0, 46, 64
2, 33613, Note_off_c, 0, 53, 64
2, 33613, Note_off_c, 0, 61, 64
2, 33655, Note_off_c, 0, 76, 64
2, 33666, Note_on_c, 0, 72, 53
2, 33780, Note_on_c, 0, 75, 53
2, 33781, Note_on_c, 0, 60, 48
2, 33783, Note_on_c, 0, 46, 49
2, 33787, Note_on_c, 0, 53, 44
2, 33802, Note_off_c, 0, 72, 64
2, 33809, Control_c, 0, 64, 0
2, 33832, Control_c, 0, 64, 127
2, 33863, Control_c, 0, 64, 0
2, 33876, Control_c, 0, 64, 127
2, 33901, Note_on_c, 0, 73, 62
2, 33907, Note_off_c, 0, 75, 64
2, 33910, Note_off_c, 0, 46, 64
2, 33910, Note_off_c, 0, 60, 64
2, 33921, Note_off_c, 0, 53, 64
2, 34063, Control_c, 0, 64, 0
2, 34065, Note_off_c, 0, 82, 64
2, 34080, Note_on_c, 0, 70, 61
2, 34080, Note_on_c, 0, 61, 42
2, 34080, Note_on_c, 0, 46, 42
2, 34085, Control_c, 0, 64, 127
2, 34088, Note_on_c, 0, 82, 72
2, 34091, Note_on_c, 0, 53, 36
2, 34097, Note_off_c, 0, 73, 64
2, 34146, Control_c, 0, 64, 0
2, 34179, Control_c, 0, 64, 127
2, 34359, Note_off_c, 0, 53, 64
2, 34383, Note_off_c, 0, 46, 64
2, 34405, Note_on_c, 0, 73, 58
2, 34414, Note_off_c, 0, 82, 64
2, 34421, Note_off_c, 0, 70, 64
2, 34425, Note_off_c, 0, 61, 64
2, 34481, Control_c, 0, 64, 0
2, 34504, Control_c, 0, 64, 127
2, 34679, Note_on_c, 0, 64, 32
2, 34683, Note_on_c, 0, 55, 29
2, 34686, Note_on_c, 0, 58, 24
2, 34723, Control_c, 0, 64, 0
2, 34734, Control_c, 0, 64, 127
2, 34818, Control_c, 0, 64, 0
2, 34851, Control_c, 0, 64, 127
2, 34949, Note_off_c, 0, 58, 64
2, 34958, Note_off_c, 0, 64, 64
2, 34961, Note_on_c, 0, 56, 35
2, 34962, Note_on_c, 0, 71, 52
2, 34969, Note_on_c, 0, 64, 33
2, 34974, Note_on_c, 0, 59, 29
2, 34975, Note_off_c, 0, 55, 64
2, 34975, Note_off_c, 0, 73, 64
2, 35240, Note_off_c, 0, 64, 64
2, 35269, Note_on_c, 0, 73, 45
2, 35278, Note_on_c, 0, 55, 23
2, 35285, Note_on_c, 0, 64, 22
2, 35289, Note_off_c, 0, 56, 64
2, 35292, Note_on_c, 0, 58, 32
2, 35299, Note_off_c, 0, 71, 64
2, 35307, Note_off_c, 0, 59, 64
2, 35347, Control_c, 0, 64, 0
2, 35360, Control_c, 0, 64, 127
2, 35395, Control_c, 0, 64, 0
2, 35406, Control_c, 0, 64, 127
2, 35577, Note_off_c, 0, 64, 64
2, 35610, Note_on_c, 0, 71, 36
2, 35616, Note_on_c, 0, 64, 28
2, 35619, Note_on_c, 0, 56, 22
2, 35623, Note_off_c, 0, 73, 64
2, 35626, Note_on_c, 0, 59, 28
2, 35630, Note_off_c, 0, 58, 64
2, 35635, Note_off_c, 0, 55, 64
2, 35672, Control_c, 0, 64, 0
2, 35694, Control_c, 0, 64, 127
2, 36019, Control_c, 0, 64, 0
2, 36023, Note_off_c, 0, 64, 64
2, 36032, Control_c, 0, 64, 127
2, 36055, Note_on_c, 0, 70, 36
2, 36065, Note_on_c, 0, 61, 18
2, 36065, Note_on_c, 0, 55, 22
2, 36070, Note_on_c, 0, 64, 18
2, 36092, Note_off_c, 0, 59, 64
2, 36094, Note_off_c, 0, 71, 64
2, 36127, Note_off_c, 0, 56, 64
2, 36143, Control_c, 0, 64, 0
2, 36183, Control_c, 0, 64, 127
2, 36344, Control_c, 0, 64, 0
2, 36366, Control_c, 0, 64, 127
2, 36492, Note_on_c, 0, 72, 40
2, 36506, Note_off_c, 0, 70, 64
2, 36552, Note_off_c, 0, 64, 64
2, 36558, Note_off_c, 0, 61, 64
2, 36571, Note_off_c, 0, 55, 64
2, 36745, Note_on_c, 0, 70, 37
2, 36761, Note_off_c, 0, 72, 64
2, 36790, Note_on_c, 0, 63, 29
2, 36790, Note_on_c, 0, 56, 24
2, 36795, Note_on_c, 0, 68, 45
2, 36800, Note_on_c, 0, 60, 28
2, 36811, Note_off_c, 0, 70, 64
2, 36815, Control_c, 0, 64, 0
2, 36855, Control_c, 0, 64, 127
2, 36932, Note_on_c, 0, 70, 27
2, 36970, Note_off_c, 0, 68, 64
2, 36972, Note_off_c, 0, 56, 64
2, 37019, Note_off_c, 0, 60, 64
2, 37020, Note_on_c, 0, 72, 48
2, 37030, Note_on_c, 0, 51, 23
2, 37036, Note_off_c, 0, 70, 64
2, 37093, Note_off_c, 0, 63, 64
2, 37114, Note_off_c, 0, 51, 64
2, 37226, Note_on_c, 0, 61, 28
2, 37235, Note_on_c, 0, 64, 31
2, 37235, Note_on_c, 0, 55, 27
2, 37309, Note_off_c, 0, 64, 64
2, 37324, Note_off_c, 0, 61, 64
2, 37363, Note_off_c, 0, 55, 64
2, 37396, Note_on_c, 0, 70, 36
2, 37408, Note_off_c, 0, 72, 64
2, 37438, Note_on_c, 0, 63, 36
2, 37440, Note_on_c, 0, 68, 41
2, 37440, Note_on_c, 0, 56, 19
2, 37454, Note_off_c, 0, 70, 64
2, 37458, Note_on_c, 0, 60, 20
2, 37469, Control_c, 0, 64, 0
2, 37491, Control_c, 0, 64, 127
2, 37600, Note_off_c, 0, 60, 64
2, 37608, Note_on_c, 0, 77, 41
2, 37609, Note_off_c, 0, 56, 64
2, 37633, Note_off_c, 0, 68, 64
2, 37644, Note_on_c, 0, 51, 28
2, 37655, Note_on_c, 0, 75, 40
2, 37665, Note_off_c, 0, 77, 64
2, 37727, Note_off_c, 0, 75, 64
2, 37734, Note_off_c, 0, 51, 64
2, 37752, Note_off_c, 0, 63, 64
2, 37884, Note_on_c, 0, 64, 22
2, 37884, Note_on_c, 0, 55, 32
2, 37885, Note_on_c, 0, 72, 44
2, 37885, Note_on_c, 0, 61, 27
2, 37984, Note_off_c, 0, 64, 64
2, 38027, Note_off_c, 0, 61, 64
2, 38078, Note_off_c, 0, 55, 64
2, 38080, Note_on_c, 0, 70, 35
2, 38102, Note_off_c, 0, 72, 64
2, 38141, Control_c, 0, 64, 0
2, 38160, Note_on_c, 0, 63, 32
2, 38160, Note_on_c, 0, 60, 19
2, 38160, Note_on_c, 0, 56, 21
2, 38163, Control_c, 0, 64, 127
2, 38164, Note_on_c, 0, 68, 46
2, 38187, Note_off_c, 0, 70, 64
2, 38287, Note_on_c, 0, 70, 42
2, 38294, Note_off_c, 0, 60, 64
2, 38317, Note_off_c, 0, 68, 64
2, 38344, Note_off_c, 0, 56, 64
2, 38400, Note_on_c, 0, 71, 35
2, 38401, Note_on_c, 0, 51, 29
2, 38412, Note_off_c, 0, 70, 64
2, 38439, Note_off_c, 0, 63, 64
2, 38512, Note_on_c, 0, 73, 36
2, 38519, Note_off_c, 0, 71, 64
2, 38611, Note_off_c, 0, 73, 64
2, 38636, Note_on_c, 0, 72, 36
2, 38679, Note_off_c, 0, 72, 64
2, 38708, Note_on_c, 0, 72, 50
2, 38731, Note_on_c, 0, 61, 23
2, 38731, Note_on_c, 0, 56, 29
2, 38747, Note_on_c, 0, 63, 45
2, 38760, Note_off_c, 0, 72, 64
2, 38771, Note_off_c, 0, 51, 64
2, 38775, Control_c, 0, 64, 0
2, 38829, Control_c, 0, 64, 127
2, 38935, Note_on_c, 0, 55, 37
2, 38949, Note_off_c, 0, 56, 64
2, 38996, Note_on_c, 0, 53, 36
2, 39003, Control_c, 0, 64, 0
2, 39030, Note_off_c, 0, 55, 64
2, 39135, Note_on_c, 0, 55, 29
2, 39150, Note_off_c, 0, 53, 64
2, 39279, Note_on_c, 0, 51, 31
2, 39290, Note_off_c, 0, 55, 64
2, 39351, Control_c, 0, 64, 127
2, 39447, Control_c, 0, 64, 0
2, 39465, Note_off_c, 0, 61, 64
2, 39472, Note_off_c, 0, 63, 64
2, 39501, Control_c, 0, 64, 127
2, 39573, Note_off_c, 0, 51, 64
2, 39632, Note_on_c, 0, 61, 29
2, 39638, Note_on_c, 0, 72, 44
2, 39641, Note_on_c, 0, 55, 32
2, 39648, Note_on_c, 0, 64, 27
2, 39670, Control_c, 0, 64, 0
2, 39675, Control_c, 0, 64, 0
2, 39693, Control_c, 0, 64, 127
2, 39739, Note_off_c, 0, 64, 64
2, 39746, Note_off_c, 0, 61, 64
2, 39811, Note_off_c, 0, 55, 64
2, 39821, Note_on_c, 0, 70, 23
2, 39822, Note_off_c, 0, 72, 64
2, 39858, Note_on_c, 0, 56, 24
2, 39865, Note_on_c, 0, 68, 42
2, 39868, Note_on_c, 0, 63, 40
2, 39878, Note_off_c, 0, 70, 64
2, 39883, Note_on_c, 0, 60, 32
2, 39893, Control_c, 0, 64, 0
2, 39935, Control_c, 0, 64, 127
2, 39975, Note_on_c, 0, 70, 36
2, 39996, Note_off_c, 0, 68, 64
2, 40023, Control_c, 0, 64, 127
2, 40034, Note_off_c, 0, 60, 64
2, 40048, Note_off_c, 0, 56, 64
2, 40076, Note_on_c, 0, 72, 44
2, 40088, Note_on_c, 0, 51, 22
2, 40099, Note_off_c, 0, 70, 64
2, 40099, Control_c, 0, 64, 0
2, 40110, Control_c, 0, 64, 127
2, 40152, Note_off_c, 0, 63, 64
2, 40162, Note_off_c, 0, 51, 64
2, 40274, Note_on_c, 0, 64, 31
2, 40274, Note_on_c, 0, 61, 36
2, 40280, Note_on_c, 0, 55, 28
2, 40305, Control_c, 0, 64, 0
2, 40316, Control_c, 0, 64, 127
2, 40342, Control_c, 0, 64, 0
2, 40365, Note_off_c, 0, 64, 64
2, 40365, Control_c, 0, 64, 127
2, 40372, Note_off_c, 0, 61, 64
2, 40430, Note_off_c, 0, 55, 64
2, 40433, Note_on_c, 0, 70, 44
2, 40441, Note_off_c, 0, 72, 64
2, 40479, Note_on_c, 0, 56, 33
2, 40483, Note_on_c, 0, 63, 36
2, 40488, Note_on_c, 0, 68, 36
2, 40488, Note_on_c, 0, 60, 36
2, 40513, Note_off_c, 0, 70, 64
2, 40565, Control_c, 0, 64, 0
2, 40570, Note_off_c, 0, 60, 64
2, 40600, Note_on_c, 0, 79, 41
2, 40607, Control_c, 0, 64, 127
2, 40619, Note_off_c, 0, 68, 64
2, 40689, Note_on_c, 0, 77, 44
2, 40696, Note_off_c, 0, 79, 64
2, 40699, Note_on_c, 0, 59, 41
2, 40718, Control_c, 0, 64, 0
2, 40742, Note_off_c, 0, 56, 64
2, 40742, Control_c, 0, 64, 127
2, 40771, Control_c, 0, 64, 0
2, 40782, Control_c, 0, 64, 127
2, 40801, Note_off_c, 0, 59, 64
2, 40901, Note_off_c, 0, 77, 64
2, 40904, Note_on_c, 0, 70, 44
2, 40914, Note_on_c, 0, 67, 36
2, 40917, Note_on_c, 0, 51, 32
2, 40927, Note_on_c, 0, 58, 20
2, 40940, Control_c, 0, 64, 0
2, 40977, Control_c, 0, 64, 0
2, 40979, Control_c, 0, 64, 127
2, 40988, Control_c, 0, 64, 127
2, 41028, Note_off_c, 0, 67, 64
2, 41030, Note_off_c, 0, 58, 64
2, 41058, Note_off_c, 0, 63, 64
2, 41133, Note_on_c, 0, 68, 49
2, 41137, Note_on_c, 0, 59, 36
2, 41138, Note_on_c, 0, 62, 27
2, 41144, Note_off_c, 0, 51, 64
2, 41147, Note_off_c, 0, 70, 64
2, 41151, Control_c, 0, 64, 0
2, 41173, Control_c, 0, 64, 127
2, 41318, Note_on_c, 0, 79, 33
2, 41364, Note_on_c, 0, 51, 33
2, 41367, Note_on_c, 0, 77, 44
2, 41376, Note_off_c, 0, 79, 64
2, 41390, Control_c, 0, 64, 0
2, 41392, Note_off_c, 0, 59, 64
2, 41396, Control_c, 0, 64, 0
2, 41414, Control_c, 0, 64, 127
2, 41422, Control_c, 0, 64, 127
2, 41455, Note_off_c, 0, 62, 64
2, 41560, Note_off_c, 0, 68, 64
2, 41612, Control_c, 0, 64, 0
2, 41627, Note_on_c, 0, 68, 44
2, 41633, Note_on_c, 0, 59, 32
2, 41634, Note_off_c, 0, 51, 64
2, 41637, Note_off_c, 0, 77, 64
2, 41637, Note_on_c, 0, 62, 28
2, 41651, Control_c, 0, 64, 127
2, 41673, Control_c, 0, 64, 0
2, 41709, Control_c, 0, 64, 127
2, 41823, Control_c, 0, 64, 0
2, 41845, Control_c, 0, 64, 127
2, 41884, Note_on_c, 0, 79, 23
2, 41929, Note_on_c, 0, 51, 31
2, 41930, Note_on_c, 0, 77, 40
2, 41950, Note_off_c, 0, 79, 64
2, 41965, Control_c, 0, 64, 0
2, 41985, Note_off_c, 0, 59, 64
2, 41989, Control_c, 0, 64, 127
2, 42032, Note_off_c, 0, 62, 64
2, 42068, Control_c, 0, 64, 0
2, 42094, Control_c, 0, 64, 127
2, 42309, Note_off_c, 0, 77, 64
2, 42315, Note_off_c, 0, 68, 64
2, 42315, Note_on_c, 0, 63, 19
2, 42316, Note_on_c, 0, 70, 39
2, 42316, Note_on_c, 0, 58, 22
2, 42326, Note_on_c, 0, 67, 20
2, 42345, Control_c, 0, 64, 0
2, 42380, Control_c, 0, 64, 0
2, 42381, Control_c, 0, 64, 127
2, 42401, Control_c, 0, 64, 127
2, 42488, Note_off_c, 0, 51, 64
2, 42529, Note_off_c, 0, 58, 64
2, 42529, Note_off_c, 0, 63, 64
2, 42557, Note_off_c, 0, 70, 64
2, 42624, Note_off_c, 0, 67, 64
2, 42637, Control_c, 0, 64, 0
2, 42661, Control_c, 0, 64, 127
2, 42708, Note_on_c, 0, 72, 29
2, 42717, Note_on_c, 0, 61, 27
2, 42727, Note_on_c, 0, 64, 23
2, 42727, Note_on_c, 0, 55, 22
2, 42769, Control_c, 0, 64, 0
2, 42793, Control_c, 0, 64, 127
2, 42845, Note_off_c, 0, 64, 64
2, 42847, Note_off_c, 0, 61, 64
2, 42892, Note_on_c, 0, 70, 20
2, 42911, Note_off_c, 0, 72, 64
2, 42925, Note_off_c, 0, 55, 64
2, 42944, Note_on_c, 0, 68, 36
2, 42948, Note_on_c, 0, 56, 23
2, 42957, Note_off_c, 0, 70, 64
2, 42960, Note_on_c, 0, 63, 19
2, 42977, Note_on_c, 0, 60, 14
2, 42995, Control_c, 0, 64, 0
2, 43009, Control_c, 0, 64, 127
2, 43052, Control_c, 0, 64, 0
2, 43060, Note_on_c, 0, 70, 41
2, 43073, Control_c, 0, 64, 127
2, 43087, Note_off_c, 0, 68, 64
2, 43131, Note_off_c, 0, 60, 64
2, 43150, Note_off_c, 0, 56, 64
2, 43156, Note_on_c, 0, 72, 36
2, 43164, Note_off_c, 0, 70, 64
2, 43169, Note_on_c, 0, 51, 33
2, 43173, Control_c, 0, 64, 0
2, 43208, Control_c, 0, 64, 127
2, 43252, Note_off_c, 0, 51, 64
2, 43254, Note_off_c, 0, 63, 64
2, 43366, Note_on_c, 0, 61, 22
2, 43369, Note_on_c, 0, 64, 24
2, 43373, Note_on_c, 0, 55, 19
2, 43392, Control_c, 0, 64, 0
2, 43406, Control_c, 0, 64, 127
2, 43441, Control_c, 0, 64, 0
2, 43450, Note_off_c, 0, 64, 64
2, 43463, Note_off_c, 0, 61, 64
2, 43465, Control_c, 0, 64, 127
2, 43510, Note_on_c, 0, 70, 36
2, 43517, Note_off_c, 0, 72, 64
2, 43540, Note_off_c, 0, 55, 64
2, 43552, Note_on_c, 0, 60, 24
2, 43558, Note_on_c, 0, 68, 33
2, 43560, Note_on_c, 0, 63, 29
2, 43560, Note_on_c, 0, 56, 23
2, 43574, Note_off_c, 0, 70, 64
2, 43667, Control_c, 0, 64, 0
2, 43681, Control_c, 0, 64, 127
2, 43683, Note_off_c, 0, 60, 64
2, 43684, Note_on_c, 0, 77, 35
2, 43689, Note_off_c, 0, 56, 64
2, 43734, Note_off_c, 0, 68, 64
2, 43775, Note_on_c, 0, 75, 29
2, 43780, Note_off_c, 0, 77, 64
2, 43789, Note_on_c, 0, 51, 28
2, 43845, Control_c, 0, 64, 0
2, 43864, Note_off_c, 0, 75, 64
2, 43879, Note_off_c, 0, 51, 64
2, 43880, Control_c, 0, 64, 127
2, 43892, Note_off_c, 0, 63, 64
2, 44049, Note_on_c, 0, 55, 18
2, 44054, Note_on_c, 0, 61, 16
2, 44063, Note_on_c, 0, 72, 35
2, 44063, Note_on_c, 0, 64, 16
2, 44064, Control_c, 0, 64, 0
2, 44078, Control_c, 0, 64, 127
2, 44102, Control_c, 0, 64, 0
2, 44116, Control_c, 0, 64, 127
2, 44172, Note_on_c, 0, 71, 28
2, 44200, Note_off_c, 0, 64, 64
2, 44200, Note_off_c, 0, 72, 64
2, 44216, Note_off_c, 0, 61, 64
2, 44243, Note_on_c, 0, 70, 27
2, 44259, Note_off_c, 0, 71, 64
2, 44295, Note_off_c, 0, 55, 64
2, 44329, Note_on_c, 0, 67, 36
2, 44336, Note_on_c, 0, 60, 14
2, 44340, Note_on_c, 0, 56, 1
2, 44342, Note_on_c, 0, 63, 24
2, 44351, Note_off_c, 0, 70, 64
2, 44390, Control_c, 0, 64, 0
2, 44403, Control_c, 0, 64, 127
2, 44417, Note_on_c, 0, 68, 39
2, 44445, Note_off_c, 0, 67, 64
2, 44478, Note_off_c, 0, 60, 64
2, 44508, Note_on_c, 0, 70, 36
2, 44525, Note_off_c, 0, 68, 64
2, 44577, Note_off_c, 0, 56, 64
2, 44615, Note_on_c, 0, 71, 35
2, 44615, Note_on_c, 0, 51, 26
2, 44624, Note_off_c, 0, 70, 64
2, 44646, Control_c, 0, 64, 0
2, 44659, Note_off_c, 0, 63, 64
2, 44674, Control_c, 0, 64, 127
2, 44698, Note_on_c, 0, 73, 35
2, 44720, Note_off_c, 0, 71, 64
2, 44774, Control_c, 0, 64, 0
2, 44784, Note_off_c, 0, 73, 64
2, 44788, Control_c, 0, 64, 127
2, 44844, Note_on_c, 0, 72, 36
2, 44877, Note_off_c, 0, 72, 64
2, 44903, Note_on_c, 0, 72, 42
2, 44940, Note_on_c, 0, 63, 37
2, 44940, Note_on_c, 0, 56, 27
2, 44949, Note_off_c, 0, 72, 64
2, 44949, Note_on_c, 0, 61, 23
2, 44969, Note_off_c, 0, 51, 64
2, 44995, Control_c, 0, 64, 0
2, 45062, Control_c, 0, 64, 0
2, 45075, Control_c, 0, 64, 127
2, 45080, Control_c, 0, 64, 127
2, 45123, Note_on_c, 0, 55, 27
2, 45127, Note_off_c, 0, 56, 64
2, 45183, Note_on_c, 0, 53, 28
2, 45189, Note_off_c, 0, 55, 64
2, 45301, Control_c, 0, 64, 0
2, 45309, Note_off_c, 0, 53, 64
2, 45318, Control_c, 0, 64, 0
2, 45323, Note_on_c, 0, 55, 28
2, 45346, Control_c, 0, 64, 127
2, 45483, Note_on_c, 0, 51, 18
2, 45561, Note_off_c, 0, 55, 64
2, 45565, Control_c, 0, 64, 127
2, 45667, Control_c, 0, 64, 0
2, 45689, Note_off_c, 0, 61, 64
2, 45703, Note_off_c, 0, 63, 64
2, 45752, Control_c, 0, 64, 127
2, 45816, Note_off_c, 0, 51, 64
2, 45863, Note_on_c, 0, 61, 31
2, 45870, Note_on_c, 0, 72, 48
2, 45876, Note_on_c, 0, 64, 24
2, 45876, Note_on_c, 0, 55, 36
2, 45900, Control_c, 0, 64, 0
2, 45923, Control_c, 0, 64, 127
2, 45970, Note_off_c, 0, 61, 64
2, 45973, Control_c, 0, 64, 0
2, 45975, Note_off_c, 0, 64, 64
2, 46020, Note_off_c, 0, 55, 64
2, 46036, Note_on_c, 0, 70, 44
2, 46044, Note_off_c, 0, 72, 64
2, 46091, Note_on_c, 0, 56, 20
2, 46096, Note_on_c, 0, 68, 39
2, 46096, Note_on_c, 0, 63, 31
2, 46105, Note_on_c, 0, 60, 29
2, 46108, Note_off_c, 0, 70, 64
2, 46114, Control_c, 0, 64, 0
2, 46157, Control_c, 0, 64, 127
2, 46207, Note_on_c, 0, 70, 29
2, 46232, Note_off_c, 0, 68, 64
2, 46237, Control_c, 0, 64, 127
2, 46246, Note_off_c, 0, 56, 64
2, 46250, Note_off_c, 0, 60, 64
2, 46309, Note_on_c, 0, 72, 45
2, 46317, Note_on_c, 0, 51, 29
2, 46324, Note_off_c, 0, 70, 64
2, 46328, Control_c, 0, 64, 0
2, 46338, Control_c, 0, 64, 127
2, 46383, Note_off_c, 0, 51, 64
2, 46393, Note_off_c, 0, 63, 64
2, 46525, Note_on_c, 0, 64, 28
2, 46528, Note_on_c, 0, 61, 22
2, 46541, Note_on_c, 0, 55, 22
2, 46572, Control_c, 0, 64, 0
2, 46595, Control_c, 0, 64, 127
2, 46596, Note_on_c, 0, 70, 45
2, 46602, Note_off_c, 0, 64, 64
2, 46603, Note_off_c, 0, 61, 64
2, 46613, Note_off_c, 0, 72, 64
2, 46632, Note_off_c, 0, 55, 64
2, 46633, Note_off_c, 0, 70, 64
2, 46639, Note_on_c, 0, 72, 44
2, 46678, Note_on_c, 0, 70, 53
2, 46688, Note_off_c, 0, 72, 64
2, 46726, Note_on_c, 0, 68, 53
2, 46731, Note_off_c, 0, 70, 64
2, 46734, Note_on_c, 0, 56, 29
2, 46736, Note_on_c, 0, 63, 42
2, 46736, Note_on_c, 0, 60, 44
2, 46737, Control_c, 0, 64, 0
2, 46762, Control_c, 0, 64, 127
2, 46786, Control_c, 0, 64, 0
2, 46808, Note_off_c, 0, 60, 64
2, 46809, Note_off_c, 0, 56, 64
2, 46829, Control_c, 0, 64, 127
2, 46847, Note_off_c, 0, 68, 64
2, 46850, Note_off_c, 0, 63, 64
2, 46914, Note_on_c, 0, 80, 44
2, 46970, Note_on_c, 0, 62, 42
2, 46973, Note_on_c, 0, 68, 44
2, 46980, Note_on_c, 0, 71, 39
2, 46982, Note_on_c, 0, 77, 45
2, 46982, Control_c, 0, 64, 0
2, 46994, Note_off_c, 0, 80, 64
2, 47000, Control_c, 0, 64, 0
2, 47008, Control_c, 0, 64, 127
2, 47010, Control_c, 0, 64, 127
2, 47063, Note_off_c, 0, 77, 64
2, 47077, Note_off_c, 0, 71, 64
2, 47111, Note_off_c, 0, 62, 64
2, 47112, Note_off_c, 0, 68, 64
2, 47224, Note_on_c, 0, 67, 28
2, 47227, Note_on_c, 0, 70, 52
2, 47231, Note_on_c, 0, 63, 39
2, 47241, Control_c, 0, 64, 0
2, 47263, Control_c, 0, 64, 127
2, 47299, Note_off_c, 0, 67, 64
2, 47409, Control_c, 0, 64, 0
2, 47415, Note_off_c, 0, 63, 64
2, 47434, Control_c, 0, 64, 127
2, 47434, Note_on_c, 0, 72, 37
2, 47442, Note_off_c, 0, 70, 64
2, 47480, Note_on_c, 0, 73, 54
2, 47480, Note_on_c, 0, 58, 45
2, 47482, Note_on_c, 0, 65, 39
2, 47496, Note_off_c, 0, 72, 64
2, 47503, Control_c, 0, 64, 0
2, 47518, Control_c, 0, 64, 127
2, 47654, Control_c, 0, 64, 0
2, 47669, Note_off_c, 0, 58, 64
2, 47677, Note_off_c, 0, 73, 64
2, 47680, Control_c, 0, 64, 127
2, 47688, Note_off_c, 0, 65, 64
2, 47728, Note_on_c, 0, 51, 22
2, 47732, Note_on_c, 0, 72, 48
2, 47736, Note_on_c, 0, 63, 42
2, 47738, Note_on_c, 0, 67, 44
2, 47909, Note_off_c, 0, 72, 64
2, 47913, Control_c, 0, 64, 0
2, 47919, Note_on_c, 0, 70, 33
2, 47920, Note_on_c, 0, 61, 45
2, 47932, Note_off_c, 0, 63, 64
2, 47935, Control_c, 0, 64, 127
2, 47963, Note_off_c, 0, 67, 64
2, 47969, Note_off_c, 0, 51, 64
2, 47980, Note_on_c, 0, 73, 53
2, 47994, Note_on_c, 0, 56, 22
2, 48001, Note_on_c, 0, 65, 44
2, 48008, Note_off_c, 0, 61, 64
2, 48009, Note_off_c, 0, 70, 64
2, 48050, Control_c, 0, 64, 0
2, 48082, Control_c, 0, 64, 127
2, 48175, Control_c, 0, 64, 0
2, 48190, Control_c, 0, 64, 127
2, 48232, Note_off_c, 0, 73, 64
2, 48236, Note_on_c, 0, 72, 48
2, 48249, Note_on_c, 0, 63, 29
2, 48288, Note_off_c, 0, 65, 64
2, 48288, Note_on_c, 0, 60, 29
2, 48297, Note_on_c, 0, 68, 44
2, 48318, Note_off_c, 0, 72, 64
2, 48336, Note_off_c, 0, 63, 64
2, 48341, Control_c, 0, 64, 0
2, 48406, Control_c, 0, 64, 127
2, 48528, Note_off_c, 0, 68, 64
2, 48528, Note_off_c, 0, 56, 64
2, 48562, Note_off_c, 0, 60, 64
2, 48588, Note_on_c, 0, 59, 39
2, 48591, Control_c, 0, 64, 0
2, 48627, Control_c, 0, 64, 127
2, 48722, Control_c, 0, 64, 0
2, 48754, Control_c, 0, 64, 127
2, 48904, Note_on_c, 0, 47, 32
2, 49013, Control_c, 0, 64, 0
2, 49060, Note_off_c, 0, 47, 64
2, 49078, Control_c, 0, 64, 127
2, 49083, Note_on_c, 0, 69, 31
2, 49140, Note_on_c, 0, 66, 33
2, 49142, Note_off_c, 0, 69, 64
2, 49147, Note_on_c, 0, 51, 19
2, 49147, Note_on_c, 0, 47, 24
2, 49152, Note_on_c, 0, 57, 22
2, 49172, Note_off_c, 0, 59, 64
2, 49184, Control_c, 0, 64, 0
2, 49197, Control_c, 0, 64, 127
2, 49255, Note_off_c, 0, 47, 64
2, 49255, Note_off_c, 0, 51, 64
2, 49261, Note_off_c, 0, 57, 64
2, 49263, Control_c, 0, 64, 0
2, 49299, Control_c, 0, 64, 127
2, 49374, Note_on_c, 0, 57, 22
2, 49389, Note_on_c, 0, 51, 14
2, 49390, Note_on_c, 0, 47, 15
2, 49488, Note_off_c, 0, 51, 64
2, 49506, Note_off_c, 0, 47, 64
2, 49507, Note_on_c, 0, 71, 44
2, 49515, Note_off_c, 0, 57, 64
2, 49538, Note_off_c, 0, 66, 64
2, 49599, Note_on_c, 0, 68, 44
2, 49608, Note_on_c, 0, 40, 32
2, 49615, Control_c, 0, 64, 0
2, 49620, Note_off_c, 0, 71, 64
2, 49638, Control_c, 0, 64, 127
2, 49759, Note_on_c, 0, 59, 32
2, 49767, Note_off_c, 0, 68, 64
2, 49809, Note_on_c, 0, 56, 33
2, 49816, Note_on_c, 0, 64, 49
2, 49825, Note_off_c, 0, 59, 64
2, 49831, Note_on_c, 0, 52, 20
2, 49856, Control_c, 0, 64, 0
2, 49869, Control_c, 0, 64, 127
2, 49943, Note_off_c, 0, 52, 64
2, 49950, Note_off_c, 0, 56, 64
2, 50016, Note_on_c, 0, 68, 49
2, 50024, Note_off_c, 0, 64, 64
2, 50025, Note_on_c, 0, 59, 28
2, 50028, Note_on_c, 0, 52, 22
2, 50032, Note_on_c, 0, 56, 28
2, 50134, Note_off_c, 0, 40, 64
2, 50175, Note_off_c, 0, 52, 64
2, 50228, Note_off_c, 0, 68, 64
2, 50234, Note_on_c, 0, 51, 29
2, 50237, Note_on_c, 0, 71, 46
2, 50247, Control_c, 0, 64, 0
2, 50279, Control_c, 0, 64, 127
2, 50283, Note_off_c, 0, 59, 64
2, 50287, Control_c, 0, 64, 0
2, 50303, Note_off_c, 0, 56, 64
2, 50310, Control_c, 0, 64, 127
2, 50382, Note_off_c, 0, 51, 64
2, 50387, Note_off_c, 0, 71, 64
2, 50390, Note_on_c, 0, 73, 29
2, 50440, Note_on_c, 0, 70, 54
2, 50440, Note_on_c, 0, 63, 22
2, 50440, Note_on_c, 0, 55, 32
2, 50444, Note_on_c, 0, 51, 27
2, 50454, Control_c, 0, 64, 0
2, 50460, Note_off_c, 0, 73, 64
2, 50477, Control_c, 0, 64, 127
2, 50583, Note_off_c, 0, 55, 64
2, 50585, Note_off_c, 0, 51, 64
2, 50592, Note_off_c, 0, 63, 64
2, 50637, Note_on_c, 0, 61, 32
2, 50640, Note_on_c, 0, 51, 26
2, 50647, Note_on_c, 0, 55, 22
2, 50726, Note_on_c, 0, 75, 46
2, 50738, Note_off_c, 0, 70, 64
2, 50763, Note_off_c, 0, 55, 64
2, 50773, Note_off_c, 0, 61, 64
2, 50818, Note_off_c, 0, 51, 64
2, 50823, Note_on_c, 0, 44, 36
2, 50843, Note_on_c, 0, 71, 55
2, 50847, Control_c, 0, 64, 0
2, 50848, Note_off_c, 0, 75, 64
2, 50872, Control_c, 0, 64, 127
2, 50919, Control_c, 0, 64, 0
2, 50924, Note_off_c, 0, 71, 64
2, 50951, Control_c, 0, 64, 127
2, 50973, Note_on_c, 0, 63, 40
2, 51017, Note_on_c, 0, 56, 19
2, 51023, Note_on_c, 0, 59, 36
2, 51028, Note_on_c, 0, 68, 52
2, 51037, Note_off_c, 0, 63, 64
2, 51037, Control_c, 0, 64, 0
2, 51063, Control_c, 0, 64, 127
2, 51126, Control_c, 0, 64, 0
2, 51149, Control_c, 0, 64, 127
2, 51153, Note_off_c, 0, 56, 64
2, 51179, Note_off_c, 0, 59, 64
2, 51192, Note_off_c, 0, 68, 64
2, 51209, Note_on_c, 0, 56, 36
2, 51213, Note_on_c, 0, 71, 57
2, 51213, Note_on_c, 0, 63, 29
2, 51217, Note_on_c, 0, 59, 36
2, 51228, Control_c, 0, 64, 0
2, 51240, Control_c, 0, 64, 127
2, 51300, Note_off_c, 0, 71, 64
2, 51342, Note_off_c, 0, 56, 64
2, 51362, Note_off_c, 0, 59, 64
2, 51363, Note_off_c, 0, 44, 64
2, 51367, Note_off_c, 0, 63, 64
2, 51390, Note_on_c, 0, 75, 56
2, 51519, Control_c, 0, 64, 0
2, 51540, Note_on_c, 0, 76, 41
2, 51544, Control_c, 0, 64, 127
2, 51555, Note_off_c, 0, 75, 64
2, 51596, Note_on_c, 0, 59, 28
2, 51600, Note_on_c, 0, 64, 33
2, 51600, Note_on_c, 0, 55, 32
2, 51603, Note_on_c, 0, 73, 44
2, 51626, Note_off_c, 0, 76, 64
2, 51709, Control_c, 0, 64, 0
2, 51722, Note_off_c, 0, 55, 64
2, 51728, Note_off_c, 0, 59, 64
2, 51735, Control_c, 0, 64, 127
2, 51743, Note_off_c, 0, 64, 64
2, 51768, Note_on_c, 0, 58, 32
2, 51770, Note_on_c, 0, 54, 32
2, 51784, Note_on_c, 0, 64, 39
2, 51857, Note_on_c, 0, 78, 57
2, 51860, Note_off_c, 0, 73, 64
2, 51888, Note_off_c, 0, 58, 64
2, 51900, Note_off_c, 0, 64, 64
2, 51900, Control_c, 0, 64, 0
2, 51912, Control_c, 0, 64, 127
2, 51913, Note_off_c, 0, 54, 64
2, 51925, Control_c, 0, 64, 0
2, 51951, Note_on_c, 0, 75, 54
2, 51958, Note_off_c, 0, 78, 64
2, 51963, Note_on_c, 0, 47, 36
2, 51976, Control_c, 0, 64, 0
2, 51999, Control_c, 0, 64, 127
2, 52017, Control_c, 0, 64, 0
2, 52040, Note_on_c, 0, 71, 52
2, 52086, Note_off_c, 0, 75, 64
2, 52128, Note_on_c, 0, 69, 54
2, 52138, Note_on_c, 0, 69, 54
2, 52138, Note_on_c, 0, 63, 33
2, 52143, Note_on_c, 0, 54, 32
2, 52148, Note_on_c, 0, 57, 29
2, 52150, Note_off_c, 0, 71, 64
2, 52169, Control_c, 0, 64, 0
2, 52182, Control_c, 0, 64, 127
2, 52200, Note_off_c, 0, 69, 64
2, 52234, Note_off_c, 0, 54, 64
2, 52238, Note_off_c, 0, 57, 64
2, 52263, Note_off_c, 0, 63, 64
2, 52332, Note_on_c, 0, 57, 28
2, 52336, Note_on_c, 0, 63, 32
2, 52336, Note_on_c, 0, 54, 23
2, 52403, Note_on_c, 0, 73, 42
2, 52422, Note_off_c, 0, 57, 64
2, 52427, Note_off_c, 0, 63, 64
2, 52442, Note_off_c, 0, 54, 64
2, 52471, Note_off_c, 0, 47, 64
2, 52485, Note_off_c, 0, 69, 64
2, 52503, Note_on_c, 0, 47, 36
2, 52511, Note_on_c, 0, 71, 48
2, 52523, Note_off_c, 0, 73, 64
2, 52525, Control_c, 0, 64, 0
2, 52538, Control_c, 0, 64, 127
2, 52578, Note_on_c, 0, 68, 45
2, 52593, Note_off_c, 0, 71, 64
2, 52597, Control_c, 0, 64, 0
2, 52648, Control_c, 0, 64, 0
2, 52659, Note_on_c, 0, 66, 35
2, 52671, Control_c, 0, 64, 127
2, 52672, Note_off_c, 0, 68, 64
2, 52672, Note_on_c, 0, 54, 31
2, 52677, Note_on_c, 0, 57, 31
2, 52689, Control_c, 0, 64, 0
2, 52691, Note_on_c, 0, 63, 32
2, 52745, Note_on_c, 0, 69, 37
2, 52753, Note_off_c, 0, 66, 64
2, 52797, Note_off_c, 0, 54, 64
2, 52798, Note_off_c, 0, 57, 64
2, 52828, Note_off_c, 0, 63, 64
2, 52836, Note_on_c, 0, 75, 44
2, 52840, Note_on_c, 0, 54, 16
2, 52841, Control_c, 0, 64, 0
2, 52848, Note_off_c, 0, 69, 64
2, 52848, Note_on_c, 0, 57, 32
2, 52849, Note_on_c, 0, 63, 26
2, 52854, Control_c, 0, 64, 127
2, 52918, Note_off_c, 0, 75, 64
2, 52918, Note_off_c, 0, 47, 64
2, 52920, Note_on_c, 0, 71, 49
2, 53011, Note_off_c, 0, 63, 64
2, 53011, Note_off_c, 0, 54, 64
2, 53015, Note_on_c, 0, 47, 26
2, 53016, Note_off_c, 0, 57, 64
2, 53017, Note_on_c, 0, 69, 48
2, 53019, Note_off_c, 0, 71, 64
2, 53100, Note_on_c, 0, 73, 48
2, 53116, Note_off_c, 0, 69, 64
2, 53184, Note_on_c, 0, 63, 33
2, 53185, Note_off_c, 0, 73, 64
2, 53189, Note_on_c, 0, 54, 27
2, 53194, Note_on_c, 0, 57, 28
2, 53197, Control_c, 0, 64, 0
2, 53197, Note_on_c, 0, 71, 44
2, 53210, Control_c, 0, 64, 127
2, 53268, Note_on_c, 0, 68, 44
2, 53294, Note_off_c, 0, 71, 64
2, 53298, Note_off_c, 0, 54, 64
2, 53299, Note_off_c, 0, 57, 64
2, 53329, Note_off_c, 0, 63, 64
2, 53352, Note_on_c, 0, 66, 45
2, 53356, Note_on_c, 0, 63, 22
2, 53358, Note_off_c, 0, 68, 64
2, 53379, Note_on_c, 0, 57, 22
2, 53380, Note_on_c, 0, 54, 14
2, 53435, Note_on_c, 0, 69, 39
2, 53444, Note_off_c, 0, 66, 64
2, 53474, Note_off_c, 0, 54, 64
2, 53492, Note_off_c, 0, 63, 64
2, 53496, Note_off_c, 0, 57, 64
2, 53521, Note_on_c, 0, 68, 48
2, 53535, Note_off_c, 0, 69, 64
2, 53540, Control_c, 0, 64, 0
2, 53553, Control_c, 0, 64, 127
2, 53556, Note_off_c, 0, 47, 64
2, 53608, Note_on_c, 0, 69, 42
2, 53622, Note_off_c, 0, 68, 64
2, 53690, Note_on_c, 0, 66, 42
2, 53693, Note_on_c, 0, 51, 28
2, 53697, Note_on_c, 0, 57, 24
2, 53700, Note_on_c, 0, 47, 23
2, 53775, Note_off_c, 0, 69, 64
2, 53797, Note_off_c, 0, 47, 64
2, 53823, Note_off_c, 0, 57, 64
2, 53826, Note_off_c, 0, 51, 64
2, 53868, Note_on_c, 0, 57, 29
2, 53873, Note_on_c, 0, 51, 22
2, 53873, Note_on_c, 0, 47, 29
2, 53967, Note_off_c, 0, 51, 64
2, 53968, Note_on_c, 0, 71, 44
2, 53982, Note_off_c, 0, 57, 64
2, 53988, Note_off_c, 0, 66, 64
2, 53989, Note_off_c, 0, 47, 64
2, 54038, Note_on_c, 0, 68, 44
2, 54044, Note_on_c, 0, 40, 28
2, 54054, Note_off_c, 0, 71, 64
2, 54054, Control_c, 0, 64, 0
2, 54077, Control_c, 0, 64, 127
2, 54174, Note_on_c, 0, 59, 27
2, 54182, Note_off_c, 0, 68, 64
2, 54205, Note_on_c, 0, 52, 28
2, 54211, Note_on_c, 0, 56, 29
2, 54212, Control_c, 0, 64, 0
2, 54220, Note_on_c, 0, 64, 46
2, 54225, Control_c, 0, 64, 127
2, 54226, Note_off_c, 0, 59, 64
2, 54321, Note_off_c, 0, 56, 64
2, 54335, Note_off_c, 0, 52, 64
2, 54378, Note_on_c, 0, 68, 49
2, 54384, Note_off_c, 0, 64, 64
2, 54385, Note_on_c, 0, 56, 27
2, 54388, Note_on_c, 0, 52, 20
2, 54407, Note_on_c, 0, 59, 13
2, 54496, Note_off_c, 0, 52, 64
2, 54544, Note_off_c, 0, 68, 64
2, 54550, Note_on_c, 0, 71, 46
2, 54563, Note_on_c, 0, 51, 33
2, 54575, Note_off_c, 0, 40, 64
2, 54624, Note_off_c, 0, 59, 64
2, 54633, Note_off_c, 0, 56, 64
2, 54665, Note_off_c, 0, 51, 64
2, 54671, Note_on_c, 0, 73, 52
2, 54684, Note_off_c, 0, 71, 64
2, 54725, Note_on_c, 0, 70, 57
2, 54726, Control_c, 0, 64, 0
2, 54731, Note_on_c, 0, 55, 36
2, 54732, Note_on_c, 0, 63, 36
2, 54738, Note_off_c, 0, 73, 64
2, 54741, Note_on_c, 0, 51, 28
2, 54743, Control_c, 0, 64, 0
2, 54749, Control_c, 0, 64, 127
2, 54766, Control_c, 0, 64, 127
2, 54816, Note_off_c, 0, 55, 64
2, 54820, Note_off_c, 0, 51, 64
2, 54835, Note_off_c, 0, 63, 64
2, 54905, Note_on_c, 0, 61, 36
2, 54911, Note_on_c, 0, 51, 36
2, 54914, Note_on_c, 0, 55, 36
2, 54986, Note_off_c, 0, 55, 64
2, 54996, Note_on_c, 0, 75, 53
2, 54999, Note_off_c, 0, 70, 64
2, 55004, Note_off_c, 0, 61, 64
2, 55016, Note_off_c, 0, 51, 64
2, 55074, Note_on_c, 0, 44, 39
2, 55077, Note_off_c, 0, 75, 64
2, 55085, Note_on_c, 0, 71, 58
2, 55098, Control_c, 0, 64, 0
2, 55110, Control_c, 0, 64, 127
2, 55200, Note_on_c, 0, 63, 48
2, 55202, Note_off_c, 0, 71, 64
2, 55232, Note_on_c, 0, 59, 36
2, 55245, Note_on_c, 0, 68, 57
2, 55245, Note_on_c, 0, 56, 18
2, 55254, Note_off_c, 0, 63, 64
2, 55268, Control_c, 0, 64, 0
2, 55283, Control_c, 0, 64, 127
2, 55340, Note_off_c, 0, 56, 64
2, 55371, Note_off_c, 0, 59, 64
2, 55393, Note_off_c, 0, 68, 64
2, 55411, Note_on_c, 0, 63, 41
2, 55414, Note_on_c, 0, 71, 58
2, 55414, Note_on_c, 0, 59, 36
2, 55415, Control_c, 0, 64, 0
2, 55421, Note_on_c, 0, 56, 32
2, 55438, Control_c, 0, 64, 127
2, 55524, Note_off_c, 0, 71, 64
2, 55553, Note_off_c, 0, 59, 64
2, 55558, Note_off_c, 0, 56, 64
2, 55578, Note_off_c, 0, 63, 64
2, 55585, Note_on_c, 0, 75, 63
2, 55601, Note_off_c, 0, 44, 64
2, 55704, Note_on_c, 0, 76, 61
2, 55715, Note_off_c, 0, 75, 64
2, 55753, Note_on_c, 0, 64, 35
2, 55760, Note_on_c, 0, 55, 37
2, 55762, Note_on_c, 0, 73, 75
2, 55765, Note_on_c, 0, 59, 24
2, 55766, Control_c, 0, 64, 0
2, 55770, Control_c, 0, 64, 0
2, 55776, Note_off_c, 0, 76, 64
2, 55782, Control_c, 0, 64, 127
2, 55782, Control_c, 0, 64, 127
2, 55865, Note_off_c, 0, 55, 64
2, 55871, Note_off_c, 0, 59, 64
2, 55875, Note_off_c, 0, 64, 64
2, 55913, Note_on_c, 0, 58, 36
2, 55913, Note_on_c, 0, 54, 39
2, 55921, Note_on_c, 0, 64, 37
2, 55940, Control_c, 0, 64, 0
2, 55955, Control_c, 0, 64, 127
2, 55999, Note_off_c, 0, 73, 64
2, 56012, Note_off_c, 0, 64, 64
2, 56019, Note_off_c, 0, 54, 64
2, 56021, Note_on_c, 0, 78, 67
2, 56043, Note_off_c, 0, 58, 64
2, 56093, Note_off_c, 0, 78, 64
2, 56099, Note_on_c, 0, 75, 66
2, 56103, Note_on_c, 0, 47, 41
2, 56119, Control_c, 0, 64, 0
2, 56132, Control_c, 0, 64, 127
2, 56184, Note_on_c, 0, 71, 57
2, 56202, Note_off_c, 0, 75, 64
2, 56259, Note_on_c, 0, 69, 66
2, 56268, Note_on_c, 0, 63, 42
2, 56269, Note_on_c, 0, 54, 44
2, 56272, Note_on_c, 0, 57, 24
2, 56278, Control_c, 0, 64, 0
2, 56286, Note_off_c, 0, 71, 64
2, 56320, Control_c, 0, 64, 127
2, 56377, Note_off_c, 0, 63, 64
2, 56381, Note_off_c, 0, 57, 64
2, 56381, Note_off_c, 0, 54, 64
2, 56415, Note_off_c, 0, 69, 64
2, 56416, Note_on_c, 0, 57, 42
2, 56420, Note_on_c, 0, 63, 37
2, 56424, Note_on_c, 0, 54, 32
2, 56438, Control_c, 0, 64, 0
2, 56454, Control_c, 0, 64, 127
2, 56501, Note_on_c, 0, 73, 55
2, 56510, Note_off_c, 0, 54, 64
2, 56525, Note_off_c, 0, 57, 64
2, 56536, Note_off_c, 0, 63, 64
2, 56593, Note_on_c, 0, 71, 54
2, 56600, Control_c, 0, 64, 0
2, 56609, Note_off_c, 0, 73, 64
2, 56615, Control_c, 0, 64, 127
2, 56635, Note_off_c, 0, 47, 64
2, 56661, Note_on_c, 0, 68, 55
2, 56686, Note_off_c, 0, 71, 64
2, 56737, Note_on_c, 0, 66, 57
2, 56743, Note_on_c, 0, 47, 26
2, 56746, Note_on_c, 0, 51, 19
2, 56748, Note_on_c, 0, 57, 22
2, 56759, Note_off_c, 0, 68, 64
2, 56791, Control_c, 0, 64, 0
2, 56804, Control_c, 0, 64, 127
2, 56836, Note_off_c, 0, 51, 64
2, 56850, Note_off_c, 0, 57, 64
2, 56868, Note_off_c, 0, 47, 64
2, 56896, Note_on_c, 0, 57, 44
2, 56897, Note_on_c, 0, 51, 33
2, 56907, Note_on_c, 0, 47, 24
2, 56916, Note_on_c, 0, 69, 50
2, 56930, Note_off_c, 0, 66, 64
2, 56950, Control_c, 0, 64, 0
2, 56969, Note_off_c, 0, 51, 64
2, 56970, Note_off_c, 0, 47, 64
2, 56979, Note_off_c, 0, 57, 64
2, 56990, Control_c, 0, 64, 0
2, 56992, Control_c, 0, 64, 127
2, 57032, Control_c, 0, 64, 127
2, 57090, Note_on_c, 0, 68, 58
2, 57091, Note_on_c, 0, 40, 31
2, 57095, Note_off_c, 0, 69, 64
2, 57101, Control_c, 0, 64, 0
2, 57113, Control_c, 0, 64, 127
2, 57212, Note_on_c, 0, 59, 33
2, 57237, Note_off_c, 0, 68, 64
2, 57261, Note_on_c, 0, 56, 28
2, 57265, Note_off_c, 0, 59, 64
2, 57265, Note_on_c, 0, 64, 39
2, 57268, Note_on_c, 0, 52, 11
2, 57272, Control_c, 0, 64, 0
2, 57287, Control_c, 0, 64, 127
2, 57291, Control_c, 0, 64, 0
2, 57304, Control_c, 0, 64, 127
2, 57379, Note_off_c, 0, 40, 64
2, 57394, Note_off_c, 0, 52, 64
2, 57421, Note_off_c, 0, 56, 64
2, 57432, Note_off_c, 0, 64, 64
2, 57432, Note_on_c, 0, 68, 61
2, 57606, Note_on_c, 0, 54, 20
2, 57608, Note_on_c, 0, 64, 22
2, 57612, Note_on_c, 0, 59, 28
2, 57648, Note_off_c, 0, 68, 64
2, 57651, Note_on_c, 0, 70, 15
2, 57653, Note_off_c, 0, 54, 64
2, 57662, Control_c, 0, 64, 0
2, 57666, Note_off_c, 0, 64, 64
2, 57667, Note_off_c, 0, 59, 64
2, 57678, Note_off_c, 0, 70, 64
2, 57690, Note_on_c, 0, 71, 36
2, 57704, Control_c, 0, 64, 127
2, 57745, Note_off_c, 0, 71, 64
2, 57749, Note_on_c, 0, 73, 48
2, 57756, Note_on_c, 0, 64, 35
2, 57756, Note_on_c, 0, 59, 33
2, 57759, Note_on_c, 0, 54, 33
2, 57773, Control_c, 0, 64, 0
2, 57785, Control_c, 0, 64, 127
2, 57811, Note_off_c, 0, 59, 64
2, 57813, Note_off_c, 0, 64, 64
2, 57816, Note_off_c, 0, 54, 64
2, 57895, Note_off_c, 0, 73, 64
2, 57911, Note_on_c, 0, 75, 26
2, 57916, Note_on_c, 0, 64, 29
2, 57924, Note_on_c, 0, 54, 26
2, 57931, Note_off_c, 0, 75, 64
2, 57933, Note_on_c, 0, 58, 19
2, 57948, Note_on_c, 0, 76, 49
2, 57963, Control_c, 0, 64, 0
2, 57967, Note_off_c, 0, 64, 64
2, 57970, Note_off_c, 0, 58, 64
2, 57976, Control_c, 0, 64, 127
2, 57977, Note_off_c, 0, 54, 64
2, 57997, Note_on_c, 0, 78, 61
2, 58011, Note_off_c, 0, 76, 64
2, 58062, Note_on_c, 0, 80, 58
2, 58066, Note_on_c, 0, 61, 37
2, 58072, Note_off_c, 0, 78, 64
2, 58075, Note_on_c, 0, 54, 31
2, 58078, Note_on_c, 0, 64, 36
2, 58116, Note_on_c, 0, 82, 61
2, 58122, Note_off_c, 0, 80, 64
2, 58127, Note_off_c, 0, 61, 64
2, 58129, Note_off_c, 0, 54, 64
2, 58135, Note_off_c, 0, 64, 64
2, 58151, Note_off_c, 0, 82, 64
2, 58163, Note_on_c, 0, 83, 55
2, 58209, Note_on_c, 0, 85, 74
2, 58212, Note_on_c, 0, 54, 50
2, 58217, Note_on_c, 0, 58, 40
2, 58224, Note_on_c, 0, 64, 36
2, 58227, Note_off_c, 0, 83, 64
2, 58265, Note_off_c, 0, 58, 64
2, 58269, Note_off_c, 0, 54, 64
2, 58282, Note_off_c, 0, 64, 64
2, 58351, Note_off_c, 0, 85, 64
2, 58368, Note_on_c, 0, 87, 66
2, 58370, Note_on_c, 0, 54, 57
2, 58380, Note_on_c, 0, 64, 37
2, 58380, Note_on_c, 0, 59, 57
2, 58407, Note_off_c, 0, 54, 64
2, 58409, Note_off_c, 0, 59, 64
2, 58427, Note_off_c, 0, 64, 64
2, 58483, Note_off_c, 0, 87, 64
2, 58528, Note_on_c, 0, 68, 29
2, 58543, Note_on_c, 0, 59, 27
2, 58548, Note_on_c, 0, 54, 19
2, 58553, Note_on_c, 0, 64, 18
2, 58574, Note_on_c, 0, 70, 37
2, 58582, Note_off_c, 0, 68, 64
2, 58590, Note_off_c, 0, 54, 64
2, 58590, Note_off_c, 0, 59, 64
2, 58593, Note_off_c, 0, 64, 64
2, 58618, Note_off_c, 0, 70, 64
2, 58633, Note_on_c, 0, 71, 32
2, 58681, Note_on_c, 0, 73, 50
2, 58690, Note_on_c, 0, 59, 26
2, 58690, Note_on_c, 0, 54, 31
2, 58694, Note_on_c, 0, 64, 31
2, 58703, Note_off_c, 0, 71, 64
2, 58739, Note_off_c, 0, 64, 64
2, 58743, Note_off_c, 0, 59, 64
2, 58747, Note_off_c, 0, 54, 64
2, 58770, Note_off_c, 0, 73, 64
2, 58777, Note_on_c, 0, 75, 35
2, 58822, Note_off_c, 0, 75, 64
2, 58828, Note_on_c, 0, 76, 45
2, 58848, Note_on_c, 0, 58, 36
2, 58855, Note_on_c, 0, 54, 28
2, 58867, Note_on_c, 0, 64, 22
2, 58883, Note_on_c, 0, 78, 59
2, 58891, Note_off_c, 0, 64, 64
2, 58893, Note_off_c, 0, 76, 64
2, 58897, Note_off_c, 0, 58, 64
2, 58899, Note_off_c, 0, 54, 64
2, 58937, Note_on_c, 0, 80, 48
2, 58944, Note_off_c, 0, 78, 64
2, 58978, Note_off_c, 0, 80, 64
2, 58992, Note_on_c, 0, 82, 48
2, 58996, Note_on_c, 0, 54, 62
2, 59005, Note_on_c, 0, 64, 59
2, 59027, Note_off_c, 0, 82, 64
2, 59041, Note_on_c, 0, 83, 22
2, 59048, Note_off_c, 0, 64, 64
2, 59055, Note_off_c, 0, 54, 64
2, 59087, Note_on_c, 0, 85, 66
2, 59109, Note_off_c, 0, 83, 64
2, 59155, Note_off_c, 0, 85, 64
2, 59165, Note_on_c, 0, 87, 74
2, 59165, Control_c, 0, 64, 0
2, 59172, Note_on_c, 0, 59, 50
2, 59173, Note_on_c, 0, 63, 50
2, 59173, Note_on_c, 0, 54, 39
2, 59196, Control_c, 0, 64, 127
2, 59215, Note_off_c, 0, 54, 64
2, 59218, Note_off_c, 0, 63, 64
2, 59218, Note_off_c, 0, 59, 64
2, 59280, Note_off_c, 0, 87, 64
2, 59348, Note_on_c, 0, 59, 44
2, 59352, Note_on_c, 0, 63, 42
2, 59353, Note_on_c, 0, 54, 40
2, 59397, Note_off_c, 0, 54, 64
2, 59397, Note_off_c, 0, 63, 64
2, 59398, Note_off_c, 0, 59, 64
2, 59502, Control_c, 0, 64, 0
2, 59506, Note_on_c, 0, 68, 33
2, 59513, Note_on_c, 0, 64, 28
2, 59513, Note_on_c, 0, 59, 31
2, 59513, Note_on_c, 0, 54, 26
2, 59522, Control_c, 0, 64, 127
2, 59551, Note_on_c, 0, 70, 33
2, 59556, Note_off_c, 0, 59, 64
2, 59559, Note_off_c, 0, 64, 64
2, 59561, Note_off_c, 0, 54, 64
2, 59567, Note_off_c, 0, 68, 64
2, 59592, Note_off_c, 0, 70, 64
2, 59607, Note_on_c, 0, 71, 35
2, 59653, Note_on_c, 0, 73, 52
2, 59657, Note_on_c, 0, 59, 29
2, 59662, Note_on_c, 0, 64, 33
2, 59662, Note_on_c, 0, 54, 33
2, 59672, Note_off_c, 0, 71, 64
2, 59700, Note_off_c, 0, 64, 64
2, 59700, Note_off_c, 0, 59, 64
2, 59703, Note_off_c, 0, 54, 64
2, 59784, Note_off_c, 0, 73, 64
2, 59808, Note_on_c, 0, 58, 29
2, 59816, Note_on_c, 0, 75, 50
2, 59816, Note_on_c, 0, 64, 28
2, 59820, Note_on_c, 0, 54, 26
2, 59837, Control_c, 0, 64, 0
2, 59842, Note_off_c, 0, 58, 64
2, 59854, Note_off_c, 0, 75, 64
2, 59856, Note_on_c, 0, 76, 36
2, 59867, Note_off_c, 0, 54, 64
2, 59868, Control_c, 0, 64, 127
2, 59874, Note_off_c, 0, 64, 64
2, 59900, Note_on_c, 0, 78, 58
2, 59927, Note_off_c, 0, 76, 64
2, 59960, Note_on_c, 0, 80, 49
2, 59960, Note_on_c, 0, 64, 40
2, 59964, Note_on_c, 0, 61, 44
2, 59965, Note_on_c, 0, 54, 36
2, 59970, Note_off_c, 0, 78, 64
2, 60004, Note_off_c, 0, 64, 64
2, 60004, Note_on_c, 0, 82, 46
2, 60007, Note_off_c, 0, 61, 64
2, 60010, Note_off_c, 0, 54, 64
2, 60028, Note_off_c, 0, 80, 64
2, 60040, Note_on_c, 0, 83, 58
2, 60049, Note_off_c, 0, 82, 64
2, 60101, Note_off_c, 0, 83, 64
2, 60120, Note_on_c, 0, 85, 74
2, 60120, Note_on_c, 0, 64, 50
2, 60120, Note_on_c, 0, 54, 52
2, 60122, Note_on_c, 0, 58, 18
2, 60165, Note_off_c, 0, 58, 64
2, 60165, Note_off_c, 0, 54, 64
2, 60166, Note_off_c, 0, 64, 64
2, 60174, Control_c, 0, 64, 0
2, 60194, Control_c, 0, 64, 127
2, 60258, Note_on_c, 0, 87, 66
2, 60265, Note_on_c, 0, 63, 44
2, 60266, Note_on_c, 0, 59, 50
2, 60271, Note_on_c, 0, 54, 40
2, 60275, Note_off_c, 0, 85, 64
2, 60307, Note_off_c, 0, 54, 64
2, 60311, Note_off_c, 0, 59, 64
2, 60317, Note_off_c, 0, 63, 64
2, 60373, Note_off_c, 0, 87, 64
2, 60426, Note_on_c, 0, 68, 28
2, 60432, Note_on_c, 0, 59, 29
2, 60432, Note_on_c, 0, 54, 28
2, 60436, Note_on_c, 0, 64, 28
2, 60468, Note_on_c, 0, 70, 33
2, 60472, Note_off_c, 0, 54, 64
2, 60475, Note_off_c, 0, 59, 64
2, 60480, Note_off_c, 0, 64, 64
2, 60480, Note_off_c, 0, 68, 64
2, 60508, Note_off_c, 0, 70, 64
2, 60516, Note_on_c, 0, 71, 32
2, 60572, Note_on_c, 0, 73, 48
2, 60576, Note_off_c, 0, 71, 64
2, 60579, Note_on_c, 0, 54, 33
2, 60583, Note_on_c, 0, 64, 28
2, 60586, Note_on_c, 0, 59, 27
2, 60623, Note_off_c, 0, 64, 64
2, 60628, Note_off_c, 0, 59, 64
2, 60644, Note_off_c, 0, 54, 64
2, 60664, Note_on_c, 0, 75, 48
2, 60667, Note_off_c, 0, 73, 64
2, 60700, Note_off_c, 0, 75, 64
2, 60720, Note_on_c, 0, 76, 50
2, 60732, Note_on_c, 0, 58, 37
2, 60736, Note_on_c, 0, 64, 24
2, 60743, Note_on_c, 0, 54, 33
2, 60776, Note_on_c, 0, 78, 52
2, 60780, Note_off_c, 0, 54, 64
2, 60783, Note_off_c, 0, 58, 64
2, 60788, Note_off_c, 0, 64, 64
2, 60796, Note_off_c, 0, 76, 64
2, 60832, Note_on_c, 0, 80, 45
2, 60857, Note_off_c, 0, 78, 64
2, 60887, Note_on_c, 0, 54, 54
2, 60891, Note_on_c, 0, 64, 50
2, 60908, Note_on_c, 0, 82, 45
2, 60909, Note_off_c, 0, 80, 64
2, 60944, Note_on_c, 0, 83, 57
2, 60953, Note_off_c, 0, 82, 64
2, 60953, Note_on_c, 0, 83, 44
2, 61009, Note_on_c, 0, 85, 67
2, 61074, Note_off_c, 0, 64, 64
2, 61086, Note_on_c, 0, 87, 70
2, 61090, Note_on_c, 0, 63, 39
2, 61093, Note_off_c, 0, 54, 64
2, 61099, Note_on_c, 0, 59, 48
2, 61100, Note_off_c, 0, 83, 64
2, 61100, Note_off_c, 0, 83, 64
2, 61103, Note_off_c, 0, 85, 64
2, 61110, Control_c, 0, 64, 0
2, 61122, Control_c, 0, 64, 127
2, 61201, Note_off_c, 0, 87, 64
2, 61356, Note_on_c, 0, 71, 44
2, 61371, Note_off_c, 0, 63, 64
2, 61381, Control_c, 0, 64, 0
2, 61404, Note_off_c, 0, 59, 64
2, 61404, Control_c, 0, 64, 127
2, 61567, Note_on_c, 0, 68, 41
2, 61584, Note_off_c, 0, 71, 64
2, 61689, Note_off_c, 0, 68, 64
2, 61698, Note_on_c, 0, 69, 36
2, 61740, Note_on_c, 0, 66, 50
2, 61742, Note_on_c, 0, 57, 23
2, 61750, Note_on_c, 0, 51, 23
2, 61757, Note_off_c, 0, 69, 64
2, 61758, Note_on_c, 0, 47, 14
2, 61782, Control_c, 0, 64, 0
2, 61794, Control_c, 0, 64, 127
2, 61818, Note_off_c, 0, 47, 64
2, 61829, Note_off_c, 0, 51, 64
2, 61832, Note_off_c, 0, 57, 64
2, 61915, Note_on_c, 0, 57, 23
2, 61915, Note_on_c, 0, 47, 23
2, 61920, Note_on_c, 0, 51, 19
2, 61993, Note_off_c, 0, 66, 64
2, 62000, Note_on_c, 0, 71, 44
2, 62006, Note_off_c, 0, 51, 64
2, 62009, Note_off_c, 0, 47, 64
2, 62014, Note_off_c, 0, 57, 64
2, 62053, Control_c, 0, 64, 0
2, 62068, Note_on_c, 0, 68, 48
2, 62076, Control_c, 0, 64, 127
2, 62081, Note_off_c, 0, 71, 64
2, 62082, Note_on_c, 0, 40, 36
2, 62195, Note_on_c, 0, 59, 31
2, 62197, Note_off_c, 0, 68, 64
2, 62232, Note_on_c, 0, 56, 36
2, 62235, Note_on_c, 0, 52, 31
2, 62244, Note_on_c, 0, 64, 50
2, 62251, Note_off_c, 0, 59, 64
2, 62262, Control_c, 0, 64, 0
2, 62274, Control_c, 0, 64, 127
2, 62307, Note_off_c, 0, 52, 64
2, 62310, Note_off_c, 0, 56, 64
2, 62388, Note_off_c, 0, 64, 64
2, 62393, Note_on_c, 0, 56, 27
2, 62399, Note_on_c, 0, 68, 50
2, 62399, Note_on_c, 0, 52, 27
2, 62408, Control_c, 0, 64, 0
2, 62413, Note_on_c, 0, 59, 26
2, 62431, Control_c, 0, 64, 127
2, 62497, Note_off_c, 0, 52, 64
2, 62550, Note_off_c, 0, 68, 64
2, 62557, Note_on_c, 0, 51, 32
2, 62567, Note_on_c, 0, 71, 42
2, 62607, Note_off_c, 0, 40, 64
2, 62608, Note_off_c, 0, 59, 64
2, 62634, Note_off_c, 0, 56, 64
2, 62641, Note_off_c, 0, 51, 64
2, 62670, Note_off_c, 0, 71, 64
2, 62674, Note_on_c, 0, 73, 49
2, 62723, Note_on_c, 0, 63, 35
2, 62730, Note_on_c, 0, 70, 61
2, 62730, Note_on_c, 0, 55, 28
2, 62736, Note_on_c, 0, 51, 28
2, 62740, Control_c, 0, 64, 0
2, 62748, Note_off_c, 0, 73, 64
2, 62755, Control_c, 0, 64, 127
2, 62804, Note_off_c, 0, 55, 64
2, 62808, Note_off_c, 0, 63, 64
2, 62811, Note_off_c, 0, 51, 64
2, 62890, Note_on_c, 0, 61, 35
2, 62890, Note_on_c, 0, 51, 39
2, 62897, Note_on_c, 0, 55, 36
2, 62934, Control_c, 0, 64, 0
2, 62946, Control_c, 0, 64, 127
2, 62949, Note_off_c, 0, 70, 64
2, 62958, Note_on_c, 0, 75, 52
2, 62968, Note_off_c, 0, 61, 64
2, 62976, Note_off_c, 0, 55, 64
2, 62995, Note_off_c, 0, 51, 64
2, 63034, Note_off_c, 0, 75, 64
2, 63048, Note_on_c, 0, 44, 40
2, 63050, Note_on_c, 0, 71, 55
2, 63066, Control_c, 0, 64, 0
2, 63080, Control_c, 0, 64, 0
2, 63089, Control_c, 0, 64, 127
2, 63103, Control_c, 0, 64, 127
2, 63118, Note_off_c, 0, 71, 64
2, 63164, Note_on_c, 0, 63, 40
2, 63203, Note_on_c, 0, 56, 24
2, 63207, Note_on_c, 0, 68, 63
2, 63210, Note_on_c, 0, 59, 14
2, 63216, Note_off_c, 0, 63, 64
2, 63267, Note_off_c, 0, 56, 64
2, 63279, Note_off_c, 0, 59, 64
2, 63328, Note_off_c, 0, 68, 64
2, 63361, Note_on_c, 0, 59, 36
2, 63367, Note_on_c, 0, 71, 53
2, 63371, Note_on_c, 0, 56, 41
2, 63374, Note_on_c, 0, 63, 41
2, 63412, Control_c, 0, 64, 0
2, 63427, Control_c, 0, 64, 127
2, 63479, Note_off_c, 0, 71, 64
2, 63502, Note_off_c, 0, 56, 64
2, 63516, Note_off_c, 0, 59, 64
2, 63521, Control_c, 0, 64, 0
2, 63527, Note_on_c, 0, 75, 59
2, 63532, Note_off_c, 0, 63, 64
2, 63537, Control_c, 0, 64, 127
2, 63583, Note_off_c, 0, 44, 64
2, 63613, Note_off_c, 0, 75, 64
2, 63646, Note_on_c, 0, 76, 46
2, 63680, Note_on_c, 0, 59, 29
2, 63682, Note_on_c, 0, 55, 29
2, 63685, Note_on_c, 0, 64, 29
2, 63691, Note_on_c, 0, 73, 66
2, 63699, Control_c, 0, 64, 0
2, 63711, Note_off_c, 0, 76, 64
2, 63734, Control_c, 0, 64, 127
2, 63738, Control_c, 0, 64, 0
2, 63742, Note_off_c, 0, 59, 64
2, 63745, Note_off_c, 0, 55, 64
2, 63761, Control_c, 0, 64, 127
2, 63767, Note_off_c, 0, 64, 64
2, 63872, Note_on_c, 0, 64, 36
2, 63874, Note_on_c, 0, 54, 39
2, 63881, Note_on_c, 0, 58, 33
2, 63947, Note_off_c, 0, 64, 64
2, 63951, Note_off_c, 0, 58, 64
2, 63969, Note_off_c, 0, 54, 64
2, 63970, Note_off_c, 0, 73, 64
2, 63973, Note_on_c, 0, 78, 57
2, 64069, Note_on_c, 0, 75, 62
2, 64074, Note_off_c, 0, 78, 64
2, 64074, Note_on_c, 0, 47, 29
2, 64081, Control_c, 0, 64, 0
2, 64094, Control_c, 0, 64, 127
2, 64160, Note_on_c, 0, 71, 55
2, 64183, Note_off_c, 0, 75, 64
2, 64193, Control_c, 0, 64, 0
2, 64209, Control_c, 0, 64, 127
2, 64236, Note_on_c, 0, 69, 57
2, 64244, Note_on_c, 0, 63, 36
2, 64244, Note_on_c, 0, 57, 39
2, 64249, Note_on_c, 0, 54, 22
2, 64254, Control_c, 0, 64, 0
2, 64261, Note_off_c, 0, 71, 64
2, 64270, Control_c, 0, 64, 127
2, 64312, Note_off_c, 0, 54, 64
2, 64314, Note_off_c, 0, 57, 64
2, 64319, Note_off_c, 0, 63, 64
2, 64364, Note_off_c, 0, 47, 64
2, 64371, Control_c, 0, 64, 0
2, 64400, Note_on_c, 0, 73, 45
2, 64401, Note_off_c, 0, 69, 64
2, 64406, Control_c, 0, 64, 127
2, 64409, Note_on_c, 0, 63, 29
2, 64416, Note_on_c, 0, 57, 24
2, 64418, Note_on_c, 0, 54, 29
2, 64467, Note_off_c, 0, 63, 64
2, 64476, Note_off_c, 0, 57, 64
2, 64499, Note_off_c, 0, 54, 64
2, 64568, Control_c, 0, 64, 0
2, 64573, Note_on_c, 0, 47, 36
2, 64582, Note_on_c, 0, 71, 50
2, 64594, Control_c, 0, 64, 127
2, 64595, Note_off_c, 0, 73, 64
2, 64647, Note_on_c, 0, 68, 52
2, 64653, Note_off_c, 0, 71, 64
2, 64710, Note_on_c, 0, 54, 31
2, 64713, Note_off_c, 0, 68, 64
2, 64715, Note_on_c, 0, 66, 61
2, 64722, Note_on_c, 0, 57, 31
2, 64725, Note_on_c, 0, 63, 40
2, 64753, Control_c, 0, 64, 0
2, 64766, Control_c, 0, 64, 127
2, 64788, Note_on_c, 0, 69, 53
2, 64800, Note_off_c, 0, 66, 64
2, 64804, Note_off_c, 0, 54, 64
2, 64811, Note_off_c, 0, 57, 64
2, 64839, Note_off_c, 0, 63, 64
2, 64860, Note_on_c, 0, 75, 55
2, 64864, Note_off_c, 0, 47, 64
2, 64864, Note_on_c, 0, 63, 23
2, 64864, Note_on_c, 0, 54, 18
2, 64872, Note_on_c, 0, 57, 44
2, 64880, Note_on_c, 0, 66, 23
2, 64887, Note_off_c, 0, 69, 64
2, 64926, Control_c, 0, 64, 0
2, 64932, Note_off_c, 0, 75, 64
2, 64935, Note_off_c, 0, 66, 64
2, 64938, Note_on_c, 0, 71, 50
2, 64942, Control_c, 0, 64, 127
2, 64969, Note_off_c, 0, 63, 64
2, 64984, Note_off_c, 0, 57, 64
2, 64990, Note_off_c, 0, 54, 64
2, 65008, Note_off_c, 0, 71, 64
2, 65014, Note_on_c, 0, 69, 49
2, 65014, Note_on_c, 0, 47, 28
2, 65026, Control_c, 0, 64, 0
2, 65040, Control_c, 0, 64, 127
2, 65088, Note_off_c, 0, 69, 64
2, 65092, Note_on_c, 0, 73, 48
2, 65157, Note_on_c, 0, 71, 50
2, 65161, Note_off_c, 0, 73, 64
2, 65162, Note_on_c, 0, 57, 24
2, 65170, Note_on_c, 0, 63, 29
2, 65174, Note_on_c, 0, 54, 13
2, 65229, Note_on_c, 0, 68, 28
2, 65233, Note_off_c, 0, 71, 64
2, 65240, Control_c, 0, 64, 0
2, 65246, Note_off_c, 0, 54, 64
2, 65251, Note_off_c, 0, 57, 64
2, 65255, Note_off_c, 0, 63, 64
2, 65266, Control_c, 0, 64, 127
2, 65286, Note_off_c, 0, 68, 64
2, 65298, Note_on_c, 0, 66, 41
2, 65298, Note_on_c, 0, 63, 19
2, 65310, Note_off_c, 0, 47, 64
2, 65311, Note_on_c, 0, 57, 24
2, 65317, Note_on_c, 0, 54, 19
2, 65355, Note_off_c, 0, 66, 64
2, 65371, Note_on_c, 0, 69, 40
2, 65377, Note_off_c, 0, 63, 64
2, 65396, Note_off_c, 0, 57, 64
2, 65408, Note_off_c, 0, 54, 64
2, 65439, Note_on_c, 0, 68, 45
2, 65449, Control_c, 0, 64, 0
2, 65470, Note_off_c, 0, 69, 64
2, 65484, Control_c, 0, 64, 127
2, 65533, Note_on_c, 0, 69, 41
2, 65541, Note_off_c, 0, 68, 64
2, 65597, Note_on_c, 0, 51, 23
2, 65600, Note_on_c, 0, 47, 27
2, 65606, Note_on_c, 0, 57, 22
2, 65615, Note_on_c, 0, 66, 46
2, 65628, Note_off_c, 0, 69, 64
2, 65681, Note_off_c, 0, 47, 64
2, 65689, Note_off_c, 0, 57, 64
2, 65691, Note_off_c, 0, 51, 64
2, 65698, Control_c, 0, 64, 0
2, 65712, Control_c, 0, 64, 127
2, 65779, Note_on_c, 0, 57, 26
2, 65782, Note_on_c, 0, 47, 28
2, 65784, Note_on_c, 0, 51, 28
2, 65852, Note_off_c, 0, 66, 64
2, 65855, Note_on_c, 0, 71, 44
2, 65884, Note_off_c, 0, 57, 64
2, 65889, Note_off_c, 0, 51, 64
2, 65891, Note_off_c, 0, 47, 64
2, 65902, Control_c, 0, 64, 0
2, 65944, Control_c, 0, 64, 127
2, 65948, Note_on_c, 0, 68, 48
2, 65952, Note_on_c, 0, 40, 31
2, 65956, Note_off_c, 0, 71, 64
2, 65963, Control_c, 0, 64, 0
2, 65999, Control_c, 0, 64, 127
2, 66072, Note_on_c, 0, 59, 33
2, 66078, Note_off_c, 0, 68, 64
2, 66116, Note_on_c, 0, 52, 35
2, 66120, Note_on_c, 0, 56, 37
2, 66121, Control_c, 0, 64, 0
2, 66124, Note_on_c, 0, 64, 42
2, 66129, Note_off_c, 0, 59, 64
2, 66136, Control_c, 0, 64, 0
2, 66149, Control_c, 0, 64, 127
2, 66156, Control_c, 0, 64, 127
2, 66217, Note_off_c, 0, 52, 64
2, 66226, Note_off_c, 0, 56, 64
2, 66256, Note_on_c, 0, 59, 15
2, 66268, Note_on_c, 0, 56, 28
2, 66273, Note_off_c, 0, 64, 64
2, 66278, Note_on_c, 0, 68, 48
2, 66278, Note_on_c, 0, 52, 24
2, 66418, Note_off_c, 0, 52, 64
2, 66428, Note_off_c, 0, 68, 64
2, 66431, Note_on_c, 0, 71, 48
2, 66438, Note_on_c, 0, 51, 35
2, 66445, Control_c, 0, 64, 0
2, 66480, Control_c, 0, 64, 127
2, 66493, Note_off_c, 0, 40, 64
2, 66495, Note_off_c, 0, 59, 64
2, 66507, Note_off_c, 0, 56, 64
2, 66528, Note_off_c, 0, 51, 64
2, 66529, Note_off_c, 0, 71, 64
2, 66533, Note_on_c, 0, 73, 48
2, 66574, Control_c, 0, 64, 0
2, 66588, Note_on_c, 0, 70, 52
2, 66597, Note_off_c, 0, 73, 64
2, 66597, Note_on_c, 0, 63, 41
2, 66598, Note_on_c, 0, 55, 32
2, 66604, Note_on_c, 0, 51, 32
2, 66610, Control_c, 0, 64, 0
2, 66616, Control_c, 0, 64, 127
2, 66621, Control_c, 0, 64, 127
2, 66635, Control_c, 0, 64, 0
2, 66671, Control_c, 0, 64, 127
2, 66679, Note_off_c, 0, 55, 64
2, 66706, Note_off_c, 0, 51, 64
2, 66713, Note_off_c, 0, 63, 64
2, 66762, Note_on_c, 0, 61, 36
2, 66771, Note_on_c, 0, 55, 37
2, 66771, Note_on_c, 0, 51, 36
2, 66808, Control_c, 0, 64, 0
2, 66821, Control_c, 0, 64, 127
2, 66831, Note_off_c, 0, 55, 64
2, 66832, Note_off_c, 0, 61, 64
2, 66852, Note_off_c, 0, 51, 64
2, 66859, Note_on_c, 0, 75, 50
2, 66863, Note_off_c, 0, 70, 64
2, 66942, Control_c, 0, 64, 0
2, 66968, Note_on_c, 0, 44, 39
2, 66972, Note_off_c, 0, 75, 64
2, 66977, Control_c, 0, 64, 0
2, 66983, Note_on_c, 0, 71, 55
2, 66984, Control_c, 0, 64, 127
2, 67011, Control_c, 0, 64, 127
2, 67057, Note_off_c, 0, 71, 64
2, 67112, Note_on_c, 0, 63, 50
2, 67117, Control_c, 0, 64, 0
2, 67152, Note_on_c, 0, 59, 20
2, 67152, Control_c, 0, 64, 127
2, 67164, Note_on_c, 0, 68, 54
2, 67167, Note_off_c, 0, 63, 64
2, 67167, Note_on_c, 0, 56, 33
2, 67245, Note_off_c, 0, 59, 64
2, 67257, Note_off_c, 0, 56, 64
2, 67275, Note_off_c, 0, 68, 64
2, 67282, Control_c, 0, 64, 0
2, 67293, Control_c, 0, 64, 127
2, 67314, Note_on_c, 0, 59, 40
2, 67315, Note_on_c, 0, 71, 55
2, 67320, Note_on_c, 0, 63, 18
2, 67327, Note_on_c, 0, 56, 22
2, 67330, Control_c, 0, 64, 0
2, 67354, Control_c, 0, 64, 127
2, 67416, Note_off_c, 0, 71, 64
2, 67434, Note_off_c, 0, 63, 64
2, 67443, Note_off_c, 0, 59, 64
2, 67448, Note_off_c, 0, 56, 64
2, 67464, Note_on_c, 0, 75, 58
2, 67516, Note_off_c, 0, 44, 64
2, 67541, Note_off_c, 0, 75, 64
2, 67584, Note_on_c, 0, 76, 49
2, 67614, Control_c, 0, 64, 0
2, 67616, Note_on_c, 0, 55, 36
2, 67623, Note_on_c, 0, 64, 32
2, 67629, Note_on_c, 0, 73, 60
2, 67633, Note_on_c, 0, 59, 35
2, 67649, Control_c, 0, 64, 0
2, 67656, Note_off_c, 0, 76, 64
2, 67656, Control_c, 0, 64, 127
2, 67683, Control_c, 0, 64, 127
2, 67695, Note_off_c, 0, 55, 64
2, 67712, Note_off_c, 0, 59, 64
2, 67716, Note_off_c, 0, 64, 64
2, 67792, Note_on_c, 0, 58, 40
2, 67792, Note_on_c, 0, 54, 39
2, 67799, Note_on_c, 0, 64, 36
2, 67864, Note_off_c, 0, 58, 64
2, 67871, Note_off_c, 0, 64, 64
2, 67880, Note_off_c, 0, 73, 64
2, 67880, Note_on_c, 0, 78, 58
2, 67881, Note_off_c, 0, 54, 64
2, 67972, Note_on_c, 0, 75, 59
2, 67978, Note_off_c, 0, 78, 64
2, 67978, Note_on_c, 0, 47, 28
2, 67982, Control_c, 0, 64, 0
2, 67996, Control_c, 0, 64, 127
2, 68002, Control_c, 0, 64, 0
2, 68026, Control_c, 0, 64, 127
2, 68048, Note_on_c, 0, 71, 62
2, 68055, Note_off_c, 0, 75, 64
2, 68122, Note_on_c, 0, 69, 57
2, 68124, Note_off_c, 0, 71, 64
2, 68133, Note_on_c, 0, 54, 36
2, 68138, Note_on_c, 0, 63, 36
2, 68142, Note_on_c, 0, 57, 36
2, 68149, Control_c, 0, 64, 0
2, 68163, Control_c, 0, 64, 127
2, 68227, Note_off_c, 0, 57, 64
2, 68235, Note_off_c, 0, 63, 64
2, 68239, Note_off_c, 0, 54, 64
2, 68289, Note_on_c, 0, 63, 32
2, 68304, Note_on_c, 0, 57, 32
2, 68304, Note_on_c, 0, 54, 44
2, 68358, Note_on_c, 0, 73, 44
2, 68361, Note_off_c, 0, 63, 64
2, 68374, Note_off_c, 0, 57, 64
2, 68384, Note_off_c, 0, 69, 64
2, 68387, Note_off_c, 0, 54, 64
2, 68433, Note_off_c, 0, 73, 64
2, 68454, Note_on_c, 0, 71, 48
2, 68498, Note_off_c, 0, 47, 64
2, 68515, Note_off_c, 0, 71, 64
2, 68516, Note_on_c, 0, 68, 52
2, 68604, Note_off_c, 0, 68, 64
2, 68607, Note_on_c, 0, 51, 29
2, 68608, Note_on_c, 0, 66, 53
2, 68617, Note_on_c, 0, 47, 24
2, 68621, Note_on_c, 0, 57, 24
2, 68654, Control_c, 0, 64, 0
2, 68668, Control_c, 0, 64, 127
2, 68683, Note_off_c, 0, 47, 64
2, 68690, Note_off_c, 0, 51, 64
2, 68700, Note_off_c, 0, 57, 64
2, 68744, Note_on_c, 0, 47, 42
2, 68757, Note_off_c, 0, 66, 64
2, 68765, Note_on_c, 0, 51, 32
2, 68768, Note_on_c, 0, 57, 28
2, 68821, Control_c, 0, 64, 0
2, 68825, Note_off_c, 0, 47, 64
2, 68832, Note_off_c, 0, 57, 64
2, 68834, Note_on_c, 0, 69, 33
2, 68835, Control_c, 0, 64, 127
2, 68854, Note_off_c, 0, 51, 64
2, 68911, Note_on_c, 0, 68, 50
2, 68916, Note_off_c, 0, 69, 64
2, 68929, Note_on_c, 0, 40, 36
2, 69000, Note_on_c, 0, 59, 42
2, 69024, Note_off_c, 0, 68, 64
2, 69075, Note_off_c, 0, 59, 64
2, 69082, Note_on_c, 0, 64, 46
2, 69099, Note_on_c, 0, 56, 28
2, 69101, Note_on_c, 0, 52, 18
2, 69111, Control_c, 0, 64, 0
2, 69161, Control_c, 0, 64, 127
2, 69224, Note_off_c, 0, 40, 64
2, 69262, Note_on_c, 0, 68, 61
2, 69264, Note_off_c, 0, 52, 64
2, 69264, Note_off_c, 0, 64, 64
2, 69279, Note_off_c, 0, 56, 64
2, 69412, Note_on_c, 0, 54, 23
2, 69423, Note_on_c, 0, 59, 28
2, 69438, Note_on_c, 0, 64, 14
2, 69456, Note_on_c, 0, 70, 16
2, 69461, Note_off_c, 0, 68, 64
2, 69484, Note_off_c, 0, 59, 64
2, 69484, Note_off_c, 0, 54, 64
2, 69485, Note_off_c, 0, 64, 64
2, 69491, Note_off_c, 0, 70, 64
2, 69505, Note_on_c, 0, 71, 32
2, 69560, Note_off_c, 0, 71, 64
2, 69560, Note_on_c, 0, 73, 45
2, 69566, Note_on_c, 0, 54, 36
2, 69573, Note_on_c, 0, 64, 29
2, 69583, Note_on_c, 0, 59, 27
2, 69626, Note_off_c, 0, 64, 64
2, 69628, Note_off_c, 0, 59, 64
2, 69629, Note_off_c, 0, 54, 64
2, 69697, Note_off_c, 0, 73, 64
2, 69706, Note_on_c, 0, 75, 36
2, 69711, Note_on_c, 0, 54, 39
2, 69720, Note_on_c, 0, 58, 37
2, 69724, Note_on_c, 0, 64, 20
2, 69739, Note_off_c, 0, 75, 64
2, 69755, Note_on_c, 0, 76, 45
2, 69769, Note_off_c, 0, 64, 64
2, 69775, Note_off_c, 0, 58, 64
2, 69779, Note_off_c, 0, 54, 64
2, 69783, Control_c, 0, 64, 0
2, 69801, Note_on_c, 0, 78, 54
2, 69818, Note_off_c, 0, 76, 64
2, 69833, Control_c, 0, 64, 127
2, 69860, Note_on_c, 0, 80, 55
2, 69873, Note_on_c, 0, 54, 41
2, 69877, Note_off_c, 0, 78, 64
2, 69880, Note_on_c, 0, 64, 44
2, 69880, Note_on_c, 0, 61, 45
2, 69917, Note_off_c, 0, 61, 64
2, 69920, Note_on_c, 0, 82, 24
2, 69924, Note_off_c, 0, 64, 64
2, 69930, Note_off_c, 0, 54, 64
2, 69930, Note_off_c, 0, 80, 64
2, 69950, Note_off_c, 0, 82, 64
2, 69961, Note_on_c, 0, 83, 58
2, 70011, Note_on_c, 0, 85, 74
2, 70011, Note_on_c, 0, 58, 44
2, 70017, Note_on_c, 0, 64, 37
2, 70027, Note_on_c, 0, 54, 29
2, 70030, Note_off_c, 0, 83, 64
2, 70061, Note_off_c, 0, 64, 64
2, 70068, Note_off_c, 0, 54, 64
2, 70068, Note_off_c, 0, 58, 64
2, 70159, Note_on_c, 0, 87, 68
2, 70165, Note_off_c, 0, 85, 64
2, 70172, Note_on_c, 0, 63, 53
2, 70174, Note_on_c, 0, 54, 52
2, 70178, Note_on_c, 0, 59, 57
2, 70210, Note_off_c, 0, 54, 64
2, 70217, Note_off_c, 0, 59, 64
2, 70218, Note_off_c, 0, 63, 64
2, 70274, Note_off_c, 0, 87, 64
2, 70303, Note_on_c, 0, 68, 26
2, 70323, Note_on_c, 0, 54, 28
2, 70329, Note_on_c, 0, 64, 22
2, 70332, Note_on_c, 0, 59, 23
2, 70356, Note_on_c, 0, 70, 29
2, 70361, Note_off_c, 0, 59, 64
2, 70367, Note_off_c, 0, 68, 64
2, 70369, Note_off_c, 0, 64, 64
2, 70372, Note_off_c, 0, 54, 64
2, 70394, Note_off_c, 0, 70, 64
2, 70414, Note_on_c, 0, 71, 32
2, 70459, Note_on_c, 0, 73, 48
2, 70467, Note_on_c, 0, 64, 36
2, 70469, Note_on_c, 0, 54, 36
2, 70476, Note_off_c, 0, 71, 64
2, 70477, Note_on_c, 0, 59, 35
2, 70505, Note_off_c, 0, 59, 64
2, 70511, Note_off_c, 0, 54, 64
2, 70518, Note_off_c, 0, 64, 64
2, 70552, Note_off_c, 0, 73, 64
2, 70557, Note_on_c, 0, 75, 29
2, 70587, Note_off_c, 0, 75, 64
2, 70604, Note_on_c, 0, 58, 35
2, 70610, Note_on_c, 0, 76, 41
2, 70613, Note_on_c, 0, 54, 27
2, 70620, Note_on_c, 0, 64, 31
2, 70643, Note_off_c, 0, 54, 64
2, 70649, Note_on_c, 0, 78, 52
2, 70652, Note_off_c, 0, 64, 64
2, 70652, Note_off_c, 0, 58, 64
2, 70665, Note_off_c, 0, 76, 64
2, 70693, Note_on_c, 0, 80, 48
2, 70712, Note_off_c, 0, 78, 64
2, 70752, Note_on_c, 0, 82, 35
2, 70763, Note_off_c, 0, 80, 64
2, 70763, Note_on_c, 0, 54, 62
2, 70770, Note_on_c, 0, 64, 44
2, 70781, Note_off_c, 0, 82, 64
2, 70799, Note_on_c, 0, 83, 52
2, 70810, Note_off_c, 0, 64, 64
2, 70822, Note_off_c, 0, 54, 64
2, 70852, Note_on_c, 0, 85, 52
2, 70863, Note_off_c, 0, 83, 64
2, 70899, Note_on_c, 0, 59, 53
2, 70901, Note_on_c, 0, 63, 61
2, 70909, Note_on_c, 0, 87, 72
2, 70909, Note_on_c, 0, 54, 50
2, 70918, Note_off_c, 0, 85, 64
2, 70927, Note_off_c, 0, 54, 64
2, 70935, Note_off_c, 0, 63, 64
2, 70935, Note_off_c, 0, 59, 64
2, 71024, Note_off_c, 0, 87, 64
2, 71066, Note_on_c, 0, 59, 53
2, 71072, Note_on_c, 0, 63, 57
2, 71079, Note_on_c, 0, 54, 46
2, 71107, Note_off_c, 0, 54, 64
2, 71120, Note_off_c, 0, 59, 64
2, 71125, Note_off_c, 0, 63, 64
2, 71222, Control_c, 0, 64, 0
2, 71225, Note_on_c, 0, 68, 37
2, 71229, Note_on_c, 0, 54, 29
2, 71233, Note_on_c, 0, 64, 26
2, 71233, Note_on_c, 0, 59, 23
2, 71245, Control_c, 0, 64, 127
2, 71268, Note_on_c, 0, 70, 39
2, 71274, Note_off_c, 0, 59, 64
2, 71277, Note_off_c, 0, 54, 64
2, 71279, Note_off_c, 0, 64, 64
2, 71290, Note_off_c, 0, 68, 64
2, 71315, Note_off_c, 0, 70, 64
2, 71327, Note_on_c, 0, 71, 36
2, 71367, Note_on_c, 0, 54, 33
2, 71373, Note_on_c, 0, 73, 52
2, 71373, Note_on_c, 0, 64, 28
2, 71373, Note_on_c, 0, 59, 29
2, 71388, Note_off_c, 0, 71, 64
2, 71413, Note_off_c, 0, 64, 64
2, 71415, Note_off_c, 0, 59, 64
2, 71419, Note_off_c, 0, 54, 64
2, 71506, Note_off_c, 0, 73, 64
2, 71511, Note_on_c, 0, 75, 48
2, 71523, Note_on_c, 0, 58, 44
2, 71526, Note_on_c, 0, 64, 41
2, 71542, Note_on_c, 0, 54, 26
2, 71556, Note_off_c, 0, 75, 64
2, 71562, Note_off_c, 0, 54, 64
2, 71569, Note_on_c, 0, 76, 48
2, 71573, Note_off_c, 0, 64, 64
2, 71576, Note_off_c, 0, 58, 64
2, 71616, Note_on_c, 0, 78, 57
2, 71632, Note_off_c, 0, 76, 64
2, 71660, Note_on_c, 0, 80, 24
2, 71663, Note_on_c, 0, 61, 48
2, 71663, Note_on_c, 0, 54, 45
2, 71668, Note_on_c, 0, 64, 50
2, 71677, Note_off_c, 0, 78, 64
2, 71694, Note_on_c, 0, 82, 52
2, 71700, Note_off_c, 0, 54, 64
2, 71704, Note_off_c, 0, 61, 64
2, 71709, Note_off_c, 0, 64, 64
2, 71720, Note_off_c, 0, 80, 64
2, 71749, Note_off_c, 0, 82, 64
2, 71759, Note_on_c, 0, 83, 57
2, 71805, Note_on_c, 0, 64, 52
2, 71809, Note_on_c, 0, 85, 74
2, 71809, Note_on_c, 0, 54, 50
2, 71814, Note_on_c, 0, 58, 36
2, 71825, Note_off_c, 0, 83, 64
2, 71854, Note_off_c, 0, 58, 64
2, 71854, Note_off_c, 0, 54, 64
2, 71857, Note_off_c, 0, 64, 64
2, 71894, Control_c, 0, 64, 0
2, 71917, Control_c, 0, 64, 127
2, 71964, Note_on_c, 0, 87, 70
2, 71969, Note_off_c, 0, 85, 64
2, 71972, Note_on_c, 0, 59, 52
2, 71974, Note_on_c, 0, 63, 50
2, 71984, Note_on_c, 0, 54, 33
2, 72004, Note_off_c, 0, 54, 64
2, 72017, Note_off_c, 0, 59, 64
2, 72024, Note_off_c, 0, 63, 64
2, 72079, Note_off_c, 0, 87, 64
2, 72120, Note_on_c, 0, 68, 36
2, 72123, Note_on_c, 0, 64, 29
2, 72129, Note_on_c, 0, 54, 28
2, 72136, Note_on_c, 0, 59, 37
2, 72167, Note_off_c, 0, 64, 64
2, 72174, Note_off_c, 0, 54, 64
2, 72177, Note_off_c, 0, 59, 64
2, 72177, Note_on_c, 0, 70, 39
2, 72188, Note_off_c, 0, 68, 64
2, 72214, Note_off_c, 0, 70, 64
2, 72228, Note_on_c, 0, 71, 39
2, 72273, Note_on_c, 0, 54, 42
2, 72275, Note_on_c, 0, 73, 54
2, 72279, Note_on_c, 0, 59, 36
2, 72283, Note_on_c, 0, 64, 31
2, 72290, Note_off_c, 0, 71, 64
2, 72313, Note_off_c, 0, 59, 64
2, 72316, Note_off_c, 0, 54, 64
2, 72318, Note_off_c, 0, 64, 64
2, 72364, Note_on_c, 0, 75, 48
2, 72377, Note_off_c, 0, 73, 64
2, 72410, Note_off_c, 0, 75, 64
2, 72419, Note_on_c, 0, 64, 50
2, 72424, Note_on_c, 0, 76, 48
2, 72427, Note_on_c, 0, 54, 44
2, 72433, Note_on_c, 0, 58, 57
2, 72463, Note_off_c, 0, 64, 64
2, 72469, Note_off_c, 0, 58, 64
2, 72469, Note_off_c, 0, 54, 64
2, 72473, Note_on_c, 0, 78, 59
2, 72495, Note_off_c, 0, 76, 64
2, 72524, Note_on_c, 0, 80, 44
2, 72548, Note_off_c, 0, 78, 64
2, 72578, Note_on_c, 0, 54, 70
2, 72583, Note_on_c, 0, 64, 71
2, 72586, Note_on_c, 0, 82, 62
2, 72601, Note_off_c, 0, 80, 64
2, 72629, Note_off_c, 0, 82, 64
2, 72643, Note_on_c, 0, 83, 65
2, 72712, Note_on_c, 0, 85, 57
2, 72727, Note_off_c, 0, 83, 64
2, 72767, Note_on_c, 0, 59, 54
2, 72771, Note_off_c, 0, 54, 64
2, 72776, Note_off_c, 0, 64, 64
2, 72782, Note_on_c, 0, 63, 36
2, 72787, Note_on_c, 0, 87, 79
2, 72796, Control_c, 0, 64, 0
2, 72802, Note_off_c, 0, 85, 64
2, 72819, Control_c, 0, 64, 127
2, 72902, Note_off_c, 0, 87, 64
2, 73065, Note_on_c, 0, 71, 36
2, 73091, Control_c, 0, 64, 0
2, 73113, Note_off_c, 0, 63, 64
2, 73127, Control_c, 0, 64, 127
2, 73131, Note_off_c, 0, 59, 64
2, 73267, Note_on_c, 0, 68, 32
2, 73287, Note_off_c, 0, 71, 64
2, 73421, Note_off_c, 0, 68, 64
2, 73431, Note_on_c, 0, 69, 32
2, 73468, Control_c, 0, 64, 0
2, 73471, Note_on_c, 0, 51, 15
2, 73471, Note_on_c, 0, 47, 16
2, 73477, Note_on_c, 0, 66, 35
2, 73477, Note_on_c, 0, 57, 18
2, 73490, Note_off_c, 0, 69, 64
2, 73491, Control_c, 0, 64, 127
2, 73497, Control_c, 0, 64, 0
2, 73516, Control_c, 0, 64, 127
2, 73549, Note_off_c, 0, 47, 64
2, 73550, Note_off_c, 0, 51, 64
2, 73556, Note_off_c, 0, 57, 64
2, 73651, Note_on_c, 0, 51, 23
2, 73653, Note_on_c, 0, 47, 23
2, 73657, Note_on_c, 0, 57, 20
2, 73737, Note_off_c, 0, 51, 64
2, 73742, Note_off_c, 0, 57, 64
2, 73746, Note_off_c, 0, 66, 64
2, 73751, Note_on_c, 0, 71, 36
2, 73758, Note_off_c, 0, 47, 64
2, 73763, Control_c, 0, 64, 0
2, 73799, Control_c, 0, 64, 127
2, 73871, Note_on_c, 0, 68, 41
2, 73871, Note_on_c, 0, 40, 32
2, 73883, Note_off_c, 0, 71, 64
2, 73890, Control_c, 0, 64, 0
2, 73912, Control_c, 0, 64, 127
2, 74034, Note_on_c, 0, 59, 28
2, 74039, Note_off_c, 0, 68, 64
2, 74071, Note_on_c, 0, 52, 18
2, 74074, Note_on_c, 0, 56, 23
2, 74078, Note_on_c, 0, 64, 40
2, 74089, Note_off_c, 0, 59, 64
2, 74158, Note_off_c, 0, 52, 64
2, 74169, Control_c, 0, 64, 0
2, 74173, Note_off_c, 0, 56, 64
2, 74188, Control_c, 0, 64, 127
2, 74223, Note_on_c, 0, 56, 15
2, 74224, Note_on_c, 0, 59, 23
2, 74230, Note_off_c, 0, 64, 64
2, 74234, Note_on_c, 0, 52, 22
2, 74240, Note_on_c, 0, 68, 39
2, 74328, Note_off_c, 0, 52, 64
2, 74394, Note_off_c, 0, 68, 64
2, 74400, Note_on_c, 0, 51, 26
2, 74404, Note_on_c, 0, 71, 37
2, 74426, Note_off_c, 0, 40, 64
2, 74463, Note_off_c, 0, 59, 64
2, 74475, Note_off_c, 0, 56, 64
2, 74482, Note_off_c, 0, 51, 64
2, 74520, Note_off_c, 0, 71, 64
2, 74520, Note_on_c, 0, 73, 37
2, 74562, Control_c, 0, 64, 0
2, 74567, Note_on_c, 0, 63, 33
2, 74573, Note_on_c, 0, 55, 27
2, 74576, Note_on_c, 0, 70, 41
2, 74577, Note_on_c, 0, 51, 23
2, 74584, Control_c, 0, 64, 127
2, 74587, Control_c, 0, 64, 0
2, 74590, Note_off_c, 0, 73, 64
2, 74600, Control_c, 0, 64, 127
2, 74647, Note_off_c, 0, 55, 64
2, 74666, Note_off_c, 0, 51, 64
2, 74669, Note_off_c, 0, 63, 64
2, 74737, Note_on_c, 0, 61, 29
2, 74746, Note_on_c, 0, 55, 29
2, 74747, Note_on_c, 0, 51, 31
2, 74818, Note_off_c, 0, 55, 64
2, 74822, Note_off_c, 0, 61, 64
2, 74830, Note_off_c, 0, 51, 64
2, 74858, Note_on_c, 0, 75, 41
2, 74869, Note_off_c, 0, 70, 64
2, 74941, Note_on_c, 0, 44, 31
2, 74950, Note_off_c, 0, 75, 64
2, 74952, Note_on_c, 0, 71, 48
2, 74957, Control_c, 0, 64, 0
2, 74993, Control_c, 0, 64, 127
2, 75032, Note_off_c, 0, 71, 64
2, 75071, Note_on_c, 0, 63, 37
2, 75117, Note_on_c, 0, 56, 31
2, 75120, Note_on_c, 0, 68, 45
2, 75126, Note_on_c, 0, 59, 26
2, 75130, Note_off_c, 0, 63, 64
2, 75176, Note_off_c, 0, 56, 64
2, 75192, Note_off_c, 0, 59, 64
2, 75248, Note_off_c, 0, 68, 64
2, 75259, Control_c, 0, 64, 0
2, 75272, Control_c, 0, 64, 127
2, 75276, Note_on_c, 0, 59, 28
2, 75278, Note_on_c, 0, 56, 28
2, 75281, Note_on_c, 0, 71, 46
2, 75290, Note_on_c, 0, 63, 36
2, 75297, Control_c, 0, 64, 0
2, 75309, Control_c, 0, 64, 127
2, 75365, Note_off_c, 0, 71, 64
2, 75405, Note_off_c, 0, 56, 64
2, 75411, Note_off_c, 0, 59, 64
2, 75420, Note_off_c, 0, 63, 64
2, 75435, Note_on_c, 0, 75, 45
2, 75482, Note_off_c, 0, 44, 64
2, 75517, Note_off_c, 0, 75, 64
2, 75548, Note_on_c, 0, 76, 45
2, 75595, Note_on_c, 0, 64, 22
2, 75600, Note_on_c, 0, 55, 26
2, 75602, Note_on_c, 0, 58, 26
2, 75605, Note_on_c, 0, 73, 49
2, 75615, Note_off_c, 0, 76, 64
2, 75629, Control_c, 0, 64, 0
2, 75665, Control_c, 0, 64, 127
2, 75678, Note_off_c, 0, 55, 64
2, 75685, Note_off_c, 0, 58, 64
2, 75686, Note_off_c, 0, 64, 64
2, 75767, Note_on_c, 0, 58, 20
2, 75771, Note_on_c, 0, 64, 31
2, 75772, Note_on_c, 0, 54, 35
2, 75843, Note_off_c, 0, 64, 64
2, 75843, Note_off_c, 0, 73, 64
2, 75846, Note_off_c, 0, 54, 64
2, 75846, Note_off_c, 0, 58, 64
2, 75850, Note_on_c, 0, 78, 46
2, 75941, Note_on_c, 0, 75, 52
2, 75941, Note_on_c, 0, 47, 31
2, 75948, Note_off_c, 0, 78, 64
2, 75948, Control_c, 0, 64, 0
2, 75969, Control_c, 0, 64, 0
2, 75972, Control_c, 0, 64, 127
2, 75981, Control_c, 0, 64, 127
2, 76019, Note_off_c, 0, 75, 64
2, 76019, Note_on_c, 0, 71, 45
2, 76091, Note_on_c, 0, 69, 45
2, 76096, Note_off_c, 0, 71, 64
2, 76100, Note_on_c, 0, 54, 26
2, 76106, Note_on_c, 0, 57, 29
2, 76115, Note_on_c, 0, 63, 24
2, 76118, Control_c, 0, 64, 0
2, 76131, Control_c, 0, 64, 127
2, 76181, Note_off_c, 0, 54, 64
2, 76188, Note_off_c, 0, 57, 64
2, 76197, Note_off_c, 0, 63, 64
2, 76228, Note_off_c, 0, 47, 64
2, 76248, Note_on_c, 0, 73, 32
2, 76255, Note_on_c, 0, 63, 26
2, 76256, Note_on_c, 0, 57, 26
2, 76256, Note_on_c, 0, 54, 26
2, 76306, Note_off_c, 0, 69, 64
2, 76327, Note_off_c, 0, 63, 64
2, 76328, Note_off_c, 0, 54, 64
2, 76328, Note_off_c, 0, 57, 64
2, 76422, Note_on_c, 0, 47, 24
2, 76440, Note_on_c, 0, 71, 35
2, 76455, Note_off_c, 0, 73, 64
2, 76502, Note_off_c, 0, 71, 64
2, 76507, Note_on_c, 0, 68, 40
2, 76570, Note_off_c, 0, 68, 64
2, 76573, Note_on_c, 0, 66, 32
2, 76579, Note_on_c, 0, 57, 23
2, 76579, Note_on_c, 0, 54, 23
2, 76590, Note_on_c, 0, 63, 31
2, 76620, Control_c, 0, 64, 0
2, 76644, Control_c, 0, 64, 127
2, 76651, Note_on_c, 0, 69, 32
2, 76653, Note_off_c, 0, 54, 64
2, 76658, Note_off_c, 0, 57, 64
2, 76658, Note_off_c, 0, 66, 64
2, 76684, Note_off_c, 0, 63, 64
2, 76721, Note_on_c, 0, 63, 20
2, 76728, Note_on_c, 0, 75, 37
2, 76732, Note_off_c, 0, 47, 64
2, 76734, Note_off_c, 0, 69, 64
2, 76734, Note_on_c, 0, 57, 24
2, 76743, Note_on_c, 0, 54, 15
2, 76750, Note_on_c, 0, 66, 16
2, 76790, Control_c, 0, 64, 0
2, 76800, Note_off_c, 0, 75, 64
2, 76802, Note_on_c, 0, 71, 37
2, 76803, Control_c, 0, 64, 127
2, 76806, Note_off_c, 0, 63, 64
2, 76806, Note_off_c, 0, 66, 64
2, 76831, Note_off_c, 0, 57, 64
2, 76838, Note_off_c, 0, 54, 64
2, 76878, Note_on_c, 0, 69, 37
2, 76880, Note_off_c, 0, 71, 64
2, 76880, Note_on_c, 0, 47, 28
2, 76955, Note_on_c, 0, 73, 37
2, 76977, Note_off_c, 0, 69, 64
2, 77016, Note_on_c, 0, 71, 41
2, 77024, Note_on_c, 0, 63, 29
2, 77024, Note_on_c, 0, 57, 26
2, 77028, Note_off_c, 0, 73, 64
2, 77028, Note_on_c, 0, 54, 16
2, 77086, Note_on_c, 0, 68, 28
2, 77098, Note_off_c, 0, 57, 64
2, 77099, Note_off_c, 0, 71, 64
2, 77102, Note_off_c, 0, 63, 64
2, 77106, Note_off_c, 0, 54, 64
2, 77153, Note_off_c, 0, 68, 64
2, 77158, Note_on_c, 0, 66, 39
2, 77158, Note_on_c, 0, 63, 23
2, 77164, Note_off_c, 0, 47, 64
2, 77164, Note_on_c, 0, 57, 23
2, 77168, Note_on_c, 0, 54, 20
2, 77227, Note_off_c, 0, 66, 64
2, 77228, Note_off_c, 0, 63, 64
2, 77231, Note_on_c, 0, 69, 37
2, 77246, Note_off_c, 0, 57, 64
2, 77258, Note_off_c, 0, 54, 64
2, 77297, Note_on_c, 0, 68, 52
2, 77308, Control_c, 0, 64, 0
2, 77313, Note_off_c, 0, 69, 64
2, 77323, Control_c, 0, 64, 127
2, 77375, Note_on_c, 0, 69, 31
2, 77384, Note_off_c, 0, 68, 64
2, 77446, Note_on_c, 0, 51, 22
2, 77453, Note_on_c, 0, 66, 41
2, 77453, Note_on_c, 0, 47, 22
2, 77456, Note_on_c, 0, 57, 19
2, 77461, Note_off_c, 0, 69, 64
2, 77461, Control_c, 0, 64, 0
2, 77477, Control_c, 0, 64, 127
2, 77518, Note_off_c, 0, 51, 64
2, 77528, Note_off_c, 0, 47, 64
2, 77541, Note_off_c, 0, 57, 64
2, 77605, Note_on_c, 0, 57, 22
2, 77607, Note_on_c, 0, 51, 19
2, 77613, Note_on_c, 0, 47, 14
2, 77671, Note_off_c, 0, 51, 64
2, 77677, Note_off_c, 0, 47, 64
2, 77679, Note_off_c, 0, 57, 64
2, 77680, Note_on_c, 0, 71, 36
2, 77688, Note_off_c, 0, 66, 64
2, 77773, Note_on_c, 0, 40, 20
2, 77777, Note_on_c, 0, 68, 39
2, 77784, Note_off_c, 0, 71, 64
2, 77803, Control_c, 0, 64, 0
2, 77818, Control_c, 0, 64, 127
2, 77898, Note_on_c, 0, 59, 28
2, 77906, Note_off_c, 0, 68, 64
2, 77937, Note_on_c, 0, 64, 37
2, 77940, Note_on_c, 0, 56, 26
2, 77945, Note_on_c, 0, 52, 23
2, 77952, Note_off_c, 0, 59, 64
2, 77980, Control_c, 0, 64, 0
2, 77995, Control_c, 0, 64, 127
2, 78004, Note_off_c, 0, 52, 64
2, 78004, Note_off_c, 0, 56, 64
2, 78089, Note_off_c, 0, 64, 64
2, 78096, Note_on_c, 0, 68, 39
2, 78096, Note_on_c, 0, 56, 16
2, 78099, Note_on_c, 0, 52, 16
2, 78104, Note_on_c, 0, 59, 18
2, 78133, Control_c, 0, 64, 0
2, 78149, Control_c, 0, 64, 127
2, 78199, Note_off_c, 0, 52, 64
2, 78242, Note_off_c, 0, 68, 64
2, 78249, Note_on_c, 0, 71, 33
2, 78253, Note_on_c, 0, 51, 28
2, 78314, Note_off_c, 0, 59, 64
2, 78317, Note_off_c, 0, 40, 64
2, 78336, Note_off_c, 0, 56, 64
2, 78347, Note_off_c, 0, 51, 64
2, 78354, Note_off_c, 0, 71, 64
2, 78354, Note_on_c, 0, 73, 35
2, 78412, Note_on_c, 0, 70, 29
2, 78415, Note_on_c, 0, 55, 28
2, 78416, Note_on_c, 0, 51, 26
2, 78419, Note_off_c, 0, 73, 64
2, 78419, Note_on_c, 0, 63, 31
2, 78429, Control_c, 0, 64, 0
2, 78445, Control_c, 0, 64, 127
2, 78475, Control_c, 0, 64, 0
2, 78490, Control_c, 0, 64, 127
2, 78510, Note_off_c, 0, 55, 64
2, 78513, Note_off_c, 0, 51, 64
2, 78520, Note_off_c, 0, 63, 64
2, 78606, Note_on_c, 0, 61, 27
2, 78616, Note_on_c, 0, 51, 23
2, 78621, Note_on_c, 0, 55, 14
2, 78629, Control_c, 0, 64, 0
2, 78644, Control_c, 0, 64, 127
2, 78711, Note_off_c, 0, 61, 64
2, 78714, Note_off_c, 0, 70, 64
2, 78721, Note_off_c, 0, 51, 64
2, 78722, Note_off_c, 0, 55, 64
2, 78727, Note_on_c, 0, 75, 40
2, 78829, Note_off_c, 0, 75, 64
2, 78831, Note_on_c, 0, 44, 31
2, 78844, Note_on_c, 0, 71, 41
2, 78868, Control_c, 0, 64, 0
2, 78891, Control_c, 0, 64, 127
2, 78914, Note_off_c, 0, 71, 64
2, 78956, Note_on_c, 0, 63, 36
2, 79008, Note_on_c, 0, 68, 48
2, 79017, Note_on_c, 0, 56, 28
2, 79022, Note_off_c, 0, 63, 64
2, 79025, Note_on_c, 0, 59, 26
2, 79027, Control_c, 0, 64, 0
2, 79041, Control_c, 0, 64, 127
2, 79098, Note_off_c, 0, 56, 64
2, 79101, Control_c, 0, 64, 0
2, 79111, Note_off_c, 0, 59, 64
2, 79117, Note_off_c, 0, 68, 64
2, 79117, Control_c, 0, 64, 127
2, 79168, Note_on_c, 0, 63, 26
2, 79169, Note_on_c, 0, 71, 46
2, 79169, Note_on_c, 0, 59, 28
2, 79176, Note_on_c, 0, 56, 26
2, 79187, Control_c, 0, 64, 0
2, 79201, Control_c, 0, 64, 127
2, 79266, Note_off_c, 0, 71, 64
2, 79298, Note_off_c, 0, 63, 64
2, 79299, Note_off_c, 0, 59, 64
2, 79301, Control_c, 0, 64, 0
2, 79305, Note_off_c, 0, 56, 64
2, 79316, Control_c, 0, 64, 127
2, 79320, Note_on_c, 0, 75, 50
2, 79387, Note_off_c, 0, 44, 64
2, 79435, Note_on_c, 0, 76, 46
2, 79437, Note_off_c, 0, 75, 64
2, 79472, Note_on_c, 0, 55, 28
2, 79479, Note_on_c, 0, 73, 42
2, 79482, Note_on_c, 0, 64, 23
2, 79483, Note_on_c, 0, 59, 28
2, 79502, Note_off_c, 0, 76, 64
2, 79540, Control_c, 0, 64, 0
2, 79557, Note_off_c, 0, 55, 64
2, 79563, Control_c, 0, 64, 127
2, 79595, Note_off_c, 0, 59, 64
2, 79599, Note_off_c, 0, 64, 64
2, 79646, Note_on_c, 0, 58, 31
2, 79646, Note_on_c, 0, 54, 31
2, 79649, Note_on_c, 0, 64, 31
2, 79699, Control_c, 0, 64, 0
2, 79707, Note_off_c, 0, 73, 64
2, 79713, Control_c, 0, 64, 127
2, 79719, Note_on_c, 0, 78, 46
2, 79727, Note_off_c, 0, 64, 64
2, 79729, Note_off_c, 0, 58, 64
2, 79736, Note_off_c, 0, 54, 64
2, 79816, Note_off_c, 0, 78, 64
2, 79816, Note_on_c, 0, 75, 50
2, 79823, Note_on_c, 0, 47, 28
2, 79835, Control_c, 0, 64, 0
2, 79846, Control_c, 0, 64, 127
2, 79859, Control_c, 0, 64, 0
2, 79873, Control_c, 0, 64, 127
2, 79894, Note_on_c, 0, 71, 49
2, 79896, Note_off_c, 0, 75, 64
2, 79968, Note_on_c, 0, 69, 41
2, 79968, Note_on_c, 0, 57, 24
2, 79968, Note_on_c, 0, 54, 24
2, 79972, Note_on_c, 0, 63, 26
2, 79987, Control_c, 0, 64, 0
2, 79993, Note_off_c, 0, 71, 64
2, 80003, Control_c, 0, 64, 127
2, 80051, Note_off_c, 0, 57, 64
2, 80053, Note_off_c, 0, 54, 64
2, 80077, Note_off_c, 0, 63, 64
2, 80144, Note_on_c, 0, 63, 37
2, 80148, Note_on_c, 0, 57, 24
2, 80153, Note_on_c, 0, 54, 29
2, 80216, Note_off_c, 0, 63, 64
2, 80223, Note_off_c, 0, 54, 64
2, 80231, Note_off_c, 0, 57, 64
2, 80236, Note_on_c, 0, 73, 41
2, 80241, Note_off_c, 0, 69, 64
2, 80328, Note_on_c, 0, 71, 46
2, 80334, Note_off_c, 0, 73, 64
2, 80345, Note_off_c, 0, 47, 64
2, 80402, Note_on_c, 0, 68, 42
2, 80408, Note_off_c, 0, 71, 64
2, 80477, Note_off_c, 0, 68, 64
2, 80484, Note_on_c, 0, 66, 42
2, 80491, Note_on_c, 0, 57, 16
2, 80495, Note_on_c, 0, 47, 19
2, 80498, Note_on_c, 0, 51, 16
2, 80507, Control_c, 0, 64, 0
2, 80518, Control_c, 0, 64, 127
2, 80564, Note_off_c, 0, 51, 64
2, 80570, Note_off_c, 0, 57, 64
2, 80573, Note_off_c, 0, 47, 64
2, 80659, Control_c, 0, 64, 0
2, 80664, Note_on_c, 0, 57, 22
2, 80673, Note_on_c, 0, 51, 22
2, 80673, Note_on_c, 0, 47, 26
2, 80675, Control_c, 0, 64, 127
2, 80732, Note_off_c, 0, 51, 64
2, 80735, Note_off_c, 0, 47, 64
2, 80743, Note_off_c, 0, 57, 64
2, 80755, Note_off_c, 0, 66, 64
2, 80788, Note_on_c, 0, 69, 32
2, 80899, Note_on_c, 0, 40, 28
2, 80903, Note_on_c, 0, 68, 45
2, 80917, Control_c, 0, 64, 0
2, 80919, Note_off_c, 0, 69, 64
2, 80930, Control_c, 0, 64, 127
2, 81057, Note_off_c, 0, 68, 64
2, 81064, Note_on_c, 0, 59, 37
2, 81135, Note_on_c, 0, 56, 26
2, 81138, Note_on_c, 0, 64, 39
2, 81142, Note_on_c, 0, 52, 24
2, 81175, Control_c, 0, 64, 0
2, 81187, Control_c, 0, 64, 127
2, 81203, Note_off_c, 0, 59, 64
2, 81407, Note_off_c, 0, 64, 64
2, 81464, Note_on_c, 0, 64, 42
2, 81492, Control_c, 0, 64, 0
2, 81515, Control_c, 0, 64, 127
2, 81589, Control_c, 0, 64, 0
2, 81602, Control_c, 0, 64, 127
2, 81672, Note_off_c, 0, 40, 64
2, 81784, Note_off_c, 0, 52, 64
2, 81830, Note_on_c, 0, 72, 33
2, 81832, Note_on_c, 0, 55, 15
2, 81835, Control_c, 0, 64, 0
2, 81838, Note_off_c, 0, 56, 64
2, 81843, Note_on_c, 0, 61, 14
2, 81847, Control_c, 0, 64, 0
2, 81859, Control_c, 0, 64, 127
2, 81859, Control_c, 0, 64, 127
2, 81881, Control_c, 0, 64, 0
2, 81914, Control_c, 0, 64, 127
2, 81980, Note_off_c, 0, 61, 64
2, 82053, Note_off_c, 0, 55, 64
2, 82074, Note_on_c, 0, 70, 26
2, 82092, Note_off_c, 0, 72, 64
2, 82120, Note_on_c, 0, 60, 16
2, 82120, Note_on_c, 0, 56, 1
2, 82140, Note_on_c, 0, 68, 33
2, 82143, Note_on_c, 0, 63, 11
2, 82147, Note_off_c, 0, 64, 64
2, 82164, Control_c, 0, 64, 0
2, 82184, Note_off_c, 0, 70, 64
2, 82185, Control_c, 0, 64, 0
2, 82187, Control_c, 0, 64, 127
2, 82222, Control_c, 0, 64, 127
2, 82252, Note_on_c, 0, 70, 35
2, 82283, Note_off_c, 0, 68, 64
2, 82392, Note_on_c, 0, 51, 15
2, 82396, Note_on_c, 0, 72, 36
2, 82411, Note_off_c, 0, 70, 64
2, 82442, Note_off_c, 0, 60, 64
2, 82450, Note_off_c, 0, 63, 64
2, 82454, Note_off_c, 0, 56, 64
2, 82507, Control_c, 0, 64, 0
2, 82531, Control_c, 0, 64, 127
2, 82553, Control_c, 0, 64, 0
2, 82582, Note_off_c, 0, 51, 64
2, 82586, Control_c, 0, 64, 127
2, 82652, Note_on_c, 0, 64, 27
2, 82656, Note_on_c, 0, 61, 18
2, 82656, Note_on_c, 0, 55, 18
2, 82725, Control_c, 0, 64, 0
2, 82739, Control_c, 0, 64, 127
2, 82753, Note_off_c, 0, 64, 64
2, 82772, Note_off_c, 0, 61, 64
2, 82830, Note_off_c, 0, 55, 64
2, 82853, Note_on_c, 0, 70, 41
2, 82857, Control_c, 0, 64, 0
2, 82859, Note_off_c, 0, 72, 64
2, 82894, Control_c, 0, 64, 127
2, 82900, Note_on_c, 0, 68, 44
2, 82913, Note_on_c, 0, 63, 29
2, 82918, Note_off_c, 0, 70, 64
2, 82926, Note_on_c, 0, 60, 16
2, 82932, Note_on_c, 0, 56, 12
2, 82954, Control_c, 0, 64, 0
2, 82976, Control_c, 0, 64, 127
2, 83004, Note_off_c, 0, 68, 64
2, 83024, Note_on_c, 0, 77, 44
2, 83072, Note_off_c, 0, 60, 64
2, 83115, Note_off_c, 0, 56, 64
2, 83144, Note_on_c, 0, 75, 39
2, 83148, Note_on_c, 0, 51, 25
2, 83161, Note_off_c, 0, 77, 64
2, 83216, Note_off_c, 0, 75, 64
2, 83229, Note_off_c, 0, 51, 64
2, 83252, Note_off_c, 0, 63, 64
2, 83388, Note_on_c, 0, 61, 20
2, 83390, Note_on_c, 0, 72, 44
2, 83394, Note_on_c, 0, 64, 24
2, 83397, Control_c, 0, 64, 0
2, 83399, Note_on_c, 0, 55, 23
2, 83411, Control_c, 0, 64, 127
2, 83484, Note_off_c, 0, 64, 64
2, 83496, Note_off_c, 0, 61, 64
2, 83561, Note_off_c, 0, 55, 64
2, 83568, Note_off_c, 0, 72, 64
2, 83568, Note_on_c, 0, 70, 27
2, 83625, Note_on_c, 0, 63, 33
2, 83626, Control_c, 0, 64, 0
2, 83630, Note_on_c, 0, 60, 28
2, 83632, Note_off_c, 0, 70, 64
2, 83638, Note_on_c, 0, 56, 15
2, 83640, Note_on_c, 0, 68, 44
2, 83648, Control_c, 0, 64, 127
2, 83652, Control_c, 0, 64, 0
2, 83674, Control_c, 0, 64, 127
2, 83754, Note_on_c, 0, 70, 36
2, 83761, Note_off_c, 0, 60, 64
2, 83774, Note_off_c, 0, 56, 64
2, 83788, Note_off_c, 0, 68, 64
2, 83864, Note_on_c, 0, 72, 44
2, 83874, Note_off_c, 0, 70, 64
2, 83881, Note_on_c, 0, 51, 19
2, 83884, Note_off_c, 0, 63, 64
2, 84136, Note_on_c, 0, 63, 29
2, 84136, Note_on_c, 0, 56, 33
2, 84140, Note_on_c, 0, 61, 18
2, 84157, Note_off_c, 0, 51, 64
2, 84160, Note_off_c, 0, 72, 64
2, 84189, Control_c, 0, 64, 0
2, 84221, Control_c, 0, 64, 127
2, 84324, Control_c, 0, 64, 0
2, 84339, Note_on_c, 0, 55, 29
2, 84345, Note_off_c, 0, 56, 64
2, 84346, Control_c, 0, 64, 127
2, 84401, Note_on_c, 0, 53, 24
2, 84428, Note_off_c, 0, 55, 64
2, 84559, Note_on_c, 0, 55, 20
2, 84566, Note_off_c, 0, 53, 64
2, 84581, Control_c, 0, 64, 0
2, 84741, Note_on_c, 0, 51, 22
2, 84810, Note_off_c, 0, 55, 64
2, 84823, Control_c, 0, 64, 127
2, 84861, Control_c, 0, 64, 0
2, 84885, Note_off_c, 0, 51, 64
2, 84893, Control_c, 0, 64, 127
2, 84899, Note_off_c, 0, 61, 64
2, 84915, Note_off_c, 0, 63, 64
2, 85121, Note_on_c, 0, 72, 36
2, 85127, Note_on_c, 0, 55, 24
2, 85128, Note_on_c, 0, 61, 22
2, 85129, Note_on_c, 0, 64, 22
2, 85151, Control_c, 0, 64, 0
2, 85184, Control_c, 0, 64, 127
2, 85239, Note_off_c, 0, 64, 64
2, 85243, Note_off_c, 0, 61, 64
2, 85253, Control_c, 0, 64, 0
2, 85263, Note_off_c, 0, 55, 64
2, 85299, Note_on_c, 0, 70, 36
2, 85317, Note_off_c, 0, 72, 64
2, 85353, Note_on_c, 0, 63, 18
2, 85356, Note_on_c, 0, 68, 50
2, 85361, Note_on_c, 0, 56, 16
2, 85370, Note_off_c, 0, 70, 64
2, 85466, Note_on_c, 0, 70, 49
2, 85491, Note_off_c, 0, 56, 64
2, 85492, Note_off_c, 0, 68, 64
2, 85495, Control_c, 0, 64, 127
2, 85573, Note_on_c, 0, 72, 44
2, 85577, Note_off_c, 0, 70, 64
2, 85577, Note_on_c, 0, 51, 29
2, 85592, Control_c, 0, 64, 0
2, 85615, Control_c, 0, 64, 127
2, 85649, Note_off_c, 0, 51, 64
2, 85651, Note_off_c, 0, 63, 64
2, 85785, Note_on_c, 0, 64, 29
2, 85785, Note_on_c, 0, 61, 29
2, 85792, Note_on_c, 0, 55, 28
2, 85823, Control_c, 0, 64, 0
2, 85856, Control_c, 0, 64, 127
2, 85860, Note_off_c, 0, 64, 64
2, 85867, Note_off_c, 0, 61, 64
2, 85893, Note_off_c, 0, 55, 64
2, 85952, Note_on_c, 0, 70, 41
2, 85968, Note_off_c, 0, 72, 64
2, 85996, Note_on_c, 0, 63, 36
2, 85999, Note_on_c, 0, 60, 36
2, 86006, Note_on_c, 0, 68, 39
2, 86009, Note_on_c, 0, 56, 16
2, 86018, Note_off_c, 0, 70, 64
2, 86064, Note_off_c, 0, 60, 64
2, 86117, Note_on_c, 0, 79, 46
2, 86208, Note_off_c, 0, 56, 64
2, 86222, Note_on_c, 0, 77, 44
2, 86234, Note_off_c, 0, 79, 64
2, 86238, Note_on_c, 0, 59, 35
2, 86240, Control_c, 0, 64, 0
2, 86264, Control_c, 0, 64, 0
2, 86267, Control_c, 0, 64, 127
2, 86287, Control_c, 0, 64, 127
2, 86288, Note_off_c, 0, 68, 64
2, 86315, Note_off_c, 0, 59, 64
2, 86446, Note_on_c, 0, 70, 46
2, 86451, Note_on_c, 0, 67, 41
2, 86459, Note_off_c, 0, 77, 64
2, 86460, Note_on_c, 0, 51, 29
2, 86480, Note_on_c, 0, 58, 11
2, 86483, Control_c, 0, 64, 0
2, 86506, Control_c, 0, 64, 127
2, 86539, Note_off_c, 0, 58, 64
2, 86564, Note_off_c, 0, 67, 64
2, 86585, Note_off_c, 0, 63, 64
2, 86641, Note_off_c, 0, 51, 64
2, 86669, Note_off_c, 0, 70, 64
2, 86672, Note_on_c, 0, 68, 49
2, 86677, Note_on_c, 0, 62, 24
2, 86680, Note_on_c, 0, 59, 29
2, 86692, Control_c, 0, 64, 0
2, 86725, Control_c, 0, 64, 127
2, 86853, Note_on_c, 0, 79, 35
2, 86904, Note_on_c, 0, 77, 45
2, 86904, Note_on_c, 0, 51, 22
2, 86912, Control_c, 0, 64, 0
2, 86928, Control_c, 0, 64, 0
2, 86931, Note_off_c, 0, 79, 64
2, 86939, Control_c, 0, 64, 127
2, 86948, Note_off_c, 0, 59, 64
2, 86951, Note_off_c, 0, 62, 64
2, 86957, Control_c, 0, 64, 127
2, 86959, Note_off_c, 0, 68, 64
2, 87153, Note_off_c, 0, 51, 64
2, 87153, Note_on_c, 0, 68, 44
2, 87155, Control_c, 0, 64, 0
2, 87157, Note_off_c, 0, 77, 64
2, 87163, Note_on_c, 0, 59, 29
2, 87166, Note_on_c, 0, 62, 24
2, 87178, Control_c, 0, 64, 127
2, 87199, Control_c, 0, 64, 0
2, 87222, Control_c, 0, 64, 127
2, 87364, Control_c, 0, 64, 0
2, 87382, Note_on_c, 0, 79, 28
2, 87397, Control_c, 0, 64, 127
2, 87439, Note_on_c, 0, 51, 24
2, 87441, Note_on_c, 0, 77, 31
2, 87456, Note_off_c, 0, 79, 64
2, 87479, Control_c, 0, 64, 0
2, 87496, Note_off_c, 0, 59, 64
2, 87502, Control_c, 0, 64, 127
2, 87512, Note_off_c, 0, 62, 64
2, 87542, Note_off_c, 0, 68, 64
2, 87600, Control_c, 0, 64, 0
2, 87629, Control_c, 0, 64, 127
2, 87826, Note_off_c, 0, 77, 64
2, 87828, Note_on_c, 0, 70, 33
2, 87834, Note_on_c, 0, 63, 14
2, 87844, Note_on_c, 0, 67, 27
2, 87844, Note_on_c, 0, 58, 14
2, 87871, Control_c, 0, 64, 0
2, 87894, Control_c, 0, 64, 127
2, 87894, Control_c, 0, 64, 0
2, 87940, Control_c, 0, 64, 127
2, 88070, Note_off_c, 0, 51, 64
2, 88113, Note_off_c, 0, 58, 64
2, 88130, Note_off_c, 0, 63, 64
2, 88151, Control_c, 0, 64, 0
2, 88174, Control_c, 0, 64, 127
2, 88179, Note_off_c, 0, 67, 64
2, 88182, Note_off_c, 0, 70, 64
2, 88395, Note_on_c, 0, 72, 41
2, 88397, Note_on_c, 0, 61, 23
2, 88404, Note_on_c, 0, 55, 24
2, 88407, Note_on_c, 0, 64, 24
2, 88440, Control_c, 0, 64, 0
2, 88488, Control_c, 0, 64, 127
2, 88515, Note_off_c, 0, 61, 64
2, 88516, Note_off_c, 0, 64, 64
2, 88566, Control_c, 0, 64, 0
2, 88574, Note_off_c, 0, 55, 64
2, 88576, Note_on_c, 0, 70, 27
2, 88583, Note_off_c, 0, 72, 64
2, 88612, Control_c, 0, 64, 127
2, 88626, Note_on_c, 0, 68, 42
2, 88637, Note_on_c, 0, 63, 28
2, 88643, Note_off_c, 0, 70, 64
2, 88649, Note_on_c, 0, 56, 13
2, 88651, Note_on_c, 0, 60, 22
2, 88670, Control_c, 0, 64, 0
2, 88693, Control_c, 0, 64, 127
2, 88735, Note_on_c, 0, 70, 44
2, 88742, Note_off_c, 0, 68, 64
2, 88804, Note_off_c, 0, 56, 64
2, 88810, Note_off_c, 0, 60, 64
2, 88846, Note_on_c, 0, 72, 36
2, 88858, Note_on_c, 0, 51, 16
2, 88864, Note_off_c, 0, 70, 64
2, 88868, Control_c, 0, 64, 0
2, 88892, Control_c, 0, 64, 127
2, 88938, Note_off_c, 0, 63, 64
2, 88940, Note_off_c, 0, 51, 64
2, 89052, Note_on_c, 0, 61, 28
2, 89061, Note_on_c, 0, 64, 29
2, 89074, Note_on_c, 0, 55, 16
2, 89082, Control_c, 0, 64, 0
2, 89098, Control_c, 0, 64, 127
2, 89112, Control_c, 0, 64, 0
2, 89133, Note_off_c, 0, 64, 64
2, 89150, Note_off_c, 0, 61, 64
2, 89160, Control_c, 0, 64, 127
2, 89186, Note_off_c, 0, 72, 64
2, 89189, Note_off_c, 0, 55, 64
2, 89192, Note_on_c, 0, 70, 42
2, 89246, Note_on_c, 0, 68, 41
2, 89251, Note_off_c, 0, 70, 64
2, 89256, Note_on_c, 0, 63, 29
2, 89262, Note_on_c, 0, 60, 27
2, 89264, Note_on_c, 0, 56, 16
2, 89342, Control_c, 0, 64, 0
2, 89353, Note_on_c, 0, 77, 36
2, 89365, Control_c, 0, 64, 127
2, 89408, Note_off_c, 0, 56, 64
2, 89431, Note_off_c, 0, 60, 64
2, 89460, Note_on_c, 0, 75, 36
2, 89461, Note_on_c, 0, 51, 33
2, 89462, Note_off_c, 0, 68, 64
2, 89472, Note_off_c, 0, 77, 64
2, 89519, Note_off_c, 0, 75, 64
2, 89524, Note_off_c, 0, 51, 64
2, 89540, Control_c, 0, 64, 0
2, 89560, Note_off_c, 0, 63, 64
2, 89564, Control_c, 0, 64, 127
2, 89693, Note_on_c, 0, 72, 36
2, 89693, Note_on_c, 0, 61, 29
2, 89699, Note_on_c, 0, 55, 27
2, 89703, Note_on_c, 0, 64, 22
2, 89754, Control_c, 0, 64, 0
2, 89770, Control_c, 0, 64, 127
2, 89785, Note_off_c, 0, 64, 64
2, 89824, Note_off_c, 0, 61, 64
2, 89851, Note_on_c, 0, 70, 36
2, 89868, Note_off_c, 0, 72, 64
2, 89906, Note_off_c, 0, 55, 64
2, 89953, Note_on_c, 0, 67, 33
2, 89958, Note_on_c, 0, 63, 33
2, 89965, Note_on_c, 0, 56, 20
2, 89969, Note_off_c, 0, 70, 64
2, 89969, Note_on_c, 0, 60, 24
2, 89994, Control_c, 0, 64, 0
2, 90007, Control_c, 0, 64, 127
2, 90041, Note_on_c, 0, 68, 28
2, 90064, Note_off_c, 0, 67, 64
2, 90086, Note_off_c, 0, 60, 64
2, 90118, Note_on_c, 0, 70, 28
2, 90126, Note_off_c, 0, 56, 64
2, 90138, Note_off_c, 0, 68, 64
2, 90200, Note_off_c, 0, 63, 64
2, 90210, Note_on_c, 0, 51, 33
2, 90221, Note_on_c, 0, 71, 29
2, 90223, Control_c, 0, 64, 0
2, 90257, Note_off_c, 0, 70, 64
2, 90276, Control_c, 0, 64, 127
2, 90289, Note_on_c, 0, 73, 36
2, 90299, Note_off_c, 0, 71, 64
2, 90367, Note_off_c, 0, 73, 64
2, 90421, Note_on_c, 0, 72, 22
2, 90443, Note_off_c, 0, 72, 64
2, 90482, Note_on_c, 0, 72, 36
2, 90518, Note_on_c, 0, 63, 36
2, 90525, Note_off_c, 0, 72, 64
2, 90542, Note_on_c, 0, 61, 16
2, 90548, Note_on_c, 0, 56, 23
2, 90571, Note_off_c, 0, 51, 64
2, 90578, Control_c, 0, 64, 0
2, 90666, Control_c, 0, 64, 0
2, 90679, Control_c, 0, 64, 127
2, 90708, Note_on_c, 0, 55, 29
2, 90712, Note_off_c, 0, 56, 64
2, 90716, Control_c, 0, 64, 127
2, 90774, Note_on_c, 0, 53, 32
2, 90779, Note_off_c, 0, 55, 64
2, 90895, Control_c, 0, 64, 0
2, 90918, Note_on_c, 0, 55, 23
2, 90918, Control_c, 0, 64, 0
2, 90925, Note_off_c, 0, 53, 64
2, 90948, Control_c, 0, 64, 127
2, 91078, Note_on_c, 0, 51, 29
2, 91117, Note_off_c, 0, 55, 64
2, 91206, Control_c, 0, 64, 127
2, 91250, Control_c, 0, 64, 0
2, 91288, Note_off_c, 0, 61, 64
2, 91288, Note_off_c, 0, 63, 64
2, 91388, Control_c, 0, 64, 127
2, 91393, Note_off_c, 0, 51, 64
2, 91452, Note_on_c, 0, 64, 37
2, 91455, Note_on_c, 0, 61, 36
2, 91461, Note_on_c, 0, 55, 37
2, 91463, Note_on_c, 0, 72, 45
2, 91481, Control_c, 0, 64, 0
2, 91517, Control_c, 0, 64, 127
2, 91530, Note_off_c, 0, 64, 64
2, 91555, Note_off_c, 0, 61, 64
2, 91590, Control_c, 0, 64, 0
2, 91621, Note_off_c, 0, 55, 64
2, 91624, Note_on_c, 0, 70, 33
2, 91631, Note_off_c, 0, 72, 64
2, 91673, Note_on_c, 0, 56, 20
2, 91677, Note_on_c, 0, 68, 45
2, 91680, Note_on_c, 0, 63, 33
2, 91693, Note_off_c, 0, 70, 64
2, 91693, Note_on_c, 0, 60, 31
2, 91706, Control_c, 0, 64, 0
2, 91720, Control_c, 0, 64, 127
2, 91784, Note_on_c, 0, 70, 35
2, 91795, Note_off_c, 0, 68, 64
2, 91797, Note_off_c, 0, 60, 64
2, 91844, Note_off_c, 0, 56, 64
2, 91873, Note_on_c, 0, 72, 46
2, 91878, Control_c, 0, 64, 127
2, 91879, Note_off_c, 0, 70, 64
2, 91892, Note_on_c, 0, 51, 31
2, 91900, Control_c, 0, 64, 0
2, 91923, Control_c, 0, 64, 127
2, 91939, Note_off_c, 0, 51, 64
2, 91961, Note_off_c, 0, 63, 64
2, 92077, Note_on_c, 0, 61, 26
2, 92085, Note_on_c, 0, 64, 27
2, 92096, Note_on_c, 0, 55, 18
2, 92144, Note_off_c, 0, 61, 64
2, 92149, Note_off_c, 0, 64, 64
2, 92153, Control_c, 0, 64, 0
2, 92161, Note_on_c, 0, 70, 39
2, 92162, Note_off_c, 0, 72, 64
2, 92167, Note_off_c, 0, 55, 64
2, 92189, Control_c, 0, 64, 127
2, 92204, Note_on_c, 0, 72, 44
2, 92223, Note_off_c, 0, 70, 64
2, 92233, Note_on_c, 0, 70, 50
2, 92247, Note_off_c, 0, 72, 64
2, 92280, Note_on_c, 0, 68, 50
2, 92287, Note_on_c, 0, 56, 28
2, 92289, Note_on_c, 0, 63, 31
2, 92291, Note_on_c, 0, 60, 36
2, 92296, Note_off_c, 0, 70, 64
2, 92298, Control_c, 0, 64, 0
2, 92311, Control_c, 0, 64, 127
2, 92325, Note_off_c, 0, 56, 64
2, 92328, Note_off_c, 0, 60, 64
2, 92340, Note_off_c, 0, 68, 64
2, 92350, Note_off_c, 0, 63, 64
2, 92378, Control_c, 0, 64, 0
2, 92392, Control_c, 0, 64, 127
2, 92446, Note_on_c, 0, 80, 50
2, 92491, Note_on_c, 0, 62, 50
2, 92495, Note_on_c, 0, 77, 54
2, 92499, Note_on_c, 0, 71, 46
2, 92499, Note_on_c, 0, 68, 46
2, 92507, Note_off_c, 0, 80, 64
2, 92572, Control_c, 0, 64, 0
2, 92595, Control_c, 0, 64, 127
2, 92598, Note_off_c, 0, 71, 64
2, 92616, Note_off_c, 0, 77, 64
2, 92620, Note_off_c, 0, 68, 64
2, 92628, Note_off_c, 0, 62, 64
2, 92704, Note_on_c, 0, 70, 50
2, 92708, Note_on_c, 0, 63, 54
2, 92718, Note_on_c, 0, 67, 45
2, 92725, Control_c, 0, 64, 0
2, 92758, Control_c, 0, 64, 127
2, 92787, Note_off_c, 0, 67, 64
2, 92862, Note_on_c, 0, 72, 50
2, 92868, Note_off_c, 0, 63, 64
2, 92868, Note_off_c, 0, 70, 64
2, 92895, Note_on_c, 0, 58, 55
2, 92903, Note_on_c, 0, 73, 65
2, 92903, Note_on_c, 0, 65, 52
2, 92923, Note_off_c, 0, 72, 64
2, 92947, Note_off_c, 0, 65, 64
2, 92960, Note_off_c, 0, 58, 64
2, 92970, Control_c, 0, 64, 0
2, 92983, Control_c, 0, 64, 127
2, 93059, Note_off_c, 0, 73, 64
2, 93098, Note_on_c, 0, 72, 58
2, 93098, Note_on_c, 0, 67, 55
2, 93098, Note_on_c, 0, 51, 24
2, 93107, Note_on_c, 0, 63, 52
2, 93170, Note_off_c, 0, 51, 64
2, 93218, Note_off_c, 0, 72, 64
2, 93241, Note_on_c, 0, 70, 45
2, 93242, Note_on_c, 0, 61, 52
2, 93250, Note_off_c, 0, 63, 64
2, 93264, Note_off_c, 0, 67, 64
2, 93293, Note_on_c, 0, 73, 59
2, 93296, Note_on_c, 0, 65, 62
2, 93296, Note_on_c, 0, 56, 29
2, 93317, Note_off_c, 0, 70, 64
2, 93323, Note_off_c, 0, 61, 64
2, 93334, Control_c, 0, 64, 0
2, 93366, Control_c, 0, 64, 127
2, 93397, Control_c, 0, 64, 0
2, 93430, Control_c, 0, 64, 127
2, 93476, Note_on_c, 0, 72, 42
2, 93476, Note_on_c, 0, 63, 42
2, 93480, Note_off_c, 0, 73, 64
2, 93515, Note_off_c, 0, 65, 64
2, 93530, Note_on_c, 0, 68, 42
2, 93532, Note_on_c, 0, 60, 41
2, 93540, Note_off_c, 0, 72, 64
2, 93554, Note_off_c, 0, 63, 64
2, 93686, Control_c, 0, 64, 0
2, 93817, Note_on_c, 0, 65, 48
2, 93837, Note_off_c, 0, 68, 64
2, 93912, Control_c, 0, 64, 127
2, 93951, Note_off_c, 0, 56, 64
2, 93964, Note_off_c, 0, 60, 64
2, 94006, Control_c, 0, 64, 0
2, 94038, Control_c, 0, 64, 127
2, 94116, Note_on_c, 0, 73, 57
2, 94135, Control_c, 0, 64, 0
2, 94157, Note_off_c, 0, 65, 64
2, 94180, Control_c, 0, 64, 127
2, 94328, Note_on_c, 0, 70, 57
2, 94332, Note_on_c, 0, 61, 44
2, 94332, Note_on_c, 0, 46, 44
2, 94343, Note_on_c, 0, 53, 46
2, 94350, Note_off_c, 0, 73, 64
2, 94353, Control_c, 0, 64, 0
2, 94358, Control_c, 0, 64, 0
2, 94374, Control_c, 0, 64, 127
2, 94404, Note_off_c, 0, 46, 64
2, 94404, Note_off_c, 0, 61, 64
2, 94407, Note_off_c, 0, 53, 64
2, 94471, Note_on_c, 0, 73, 44
2, 94508, Note_off_c, 0, 70, 64
2, 94524, Note_on_c, 0, 61, 54
2, 94527, Note_on_c, 0, 46, 49
2, 94531, Note_on_c, 0, 65, 55
2, 94534, Note_on_c, 0, 77, 53
2, 94536, Note_on_c, 0, 53, 40
2, 94543, Note_off_c, 0, 73, 64
2, 94558, Control_c, 0, 64, 0
2, 94584, Control_c, 0, 64, 127
2, 94600, Control_c, 0, 64, 127
2, 94635, Note_off_c, 0, 65, 64
2, 94715, Note_off_c, 0, 77, 64
2, 94730, Note_on_c, 0, 76, 57
2, 94734, Note_off_c, 0, 53, 64
2, 94740, Note_off_c, 0, 61, 64
2, 94746, Note_off_c, 0, 46, 64
2, 94807, Control_c, 0, 64, 0
2, 94852, Control_c, 0, 64, 127
2, 94860, Note_on_c, 0, 72, 55
2, 94867, Note_off_c, 0, 76, 64
2, 94896, Note_on_c, 0, 46, 46
2, 94900, Note_on_c, 0, 60, 48
2, 94904, Note_on_c, 0, 53, 49
2, 94911, Note_on_c, 0, 75, 53
2, 94924, Control_c, 0, 64, 0
2, 94929, Note_off_c, 0, 72, 64
2, 94947, Control_c, 0, 64, 127
2, 94966, Note_off_c, 0, 60, 64
2, 94978, Note_off_c, 0, 53, 64
2, 94979, Note_off_c, 0, 46, 64
2, 95011, Note_on_c, 0, 73, 62
2, 95022, Note_off_c, 0, 75, 64
2, 95025, Control_c, 0, 64, 0
2, 95046, Control_c, 0, 64, 127
2, 95078, Note_on_c, 0, 61, 53
2, 95078, Note_on_c, 0, 46, 49
2, 95086, Note_on_c, 0, 82, 62
2, 95086, Note_on_c, 0, 53, 48
2, 95088, Note_on_c, 0, 70, 57
2, 95096, Note_off_c, 0, 73, 64
2, 95104, Control_c, 0, 64, 0
2, 95137, Control_c, 0, 64, 127
2, 95161, Note_off_c, 0, 82, 64
2, 95205, Note_on_c, 0, 73, 62
2, 95212, Note_off_c, 0, 70, 64
2, 95230, Control_c, 0, 64, 0
2, 95237, Note_on_c, 0, 75, 58
2, 95241, Note_off_c, 0, 73, 64
2, 95266, Note_off_c, 0, 53, 64
2, 95268, Note_on_c, 0, 73, 62
2, 95272, Control_c, 0, 64, 127
2, 95276, Note_off_c, 0, 61, 64
2, 95280, Note_off_c, 0, 46, 64
2, 95281, Note_off_c, 0, 75, 64
2, 95439, Note_on_c, 0, 70, 58
2, 95440, Note_on_c, 0, 61, 63
2, 95440, Note_on_c, 0, 53, 48
2, 95441, Note_off_c, 0, 73, 64
2, 95441, Note_on_c, 0, 46, 62
2, 95459, Control_c, 0, 64, 0
2, 95477, Note_off_c, 0, 53, 64
2, 95477, Note_off_c, 0, 61, 64
2, 95479, Note_off_c, 0, 46, 64
2, 95482, Control_c, 0, 64, 127
2, 95531, Note_on_c, 0, 73, 48
2, 95539, Note_off_c, 0, 70, 64
2, 95596, Control_c, 0, 64, 0
2, 95614, Note_off_c, 0, 73, 64
2, 95617, Note_on_c, 0, 77, 57
2, 95618, Note_on_c, 0, 65, 61
2, 95619, Control_c, 0, 64, 127
2, 95623, Note_on_c, 0, 46, 58
2, 95624, Note_on_c, 0, 61, 63
2, 95629, Note_on_c, 0, 53, 48
2, 95631, Control_c, 0, 64, 0
2, 95667, Control_c, 0, 64, 127
2, 95712, Note_off_c, 0, 65, 64
2, 95776, Control_c, 0, 64, 0
2, 95793, Note_on_c, 0, 76, 53
2, 95809, Control_c, 0, 64, 127
2, 95827, Note_off_c, 0, 53, 64
2, 95827, Note_off_c, 0, 61, 64
2, 95829, Note_off_c, 0, 46, 64
2, 95865, Note_on_c, 0, 72, 54
2, 95881, Note_off_c, 0, 76, 64
2, 95947, Note_on_c, 0, 75, 63
2, 95955, Note_on_c, 0, 53, 50
2, 95957, Note_off_c, 0, 72, 64
2, 95961, Note_on_c, 0, 60, 55
2, 95961, Note_on_c, 0, 46, 50
2, 95971, Control_c, 0, 64, 0
2, 95986, Control_c, 0, 64, 127
2, 96006, Note_off_c, 0, 46, 64
2, 96018, Note_off_c, 0, 60, 64
2, 96022, Note_off_c, 0, 53, 64
2, 96022, Note_on_c, 0, 73, 66
2, 96026, Note_off_c, 0, 75, 64
2, 96108, Note_on_c, 0, 82, 70
2, 96114, Note_off_c, 0, 73, 64
2, 96118, Note_on_c, 0, 70, 66
2, 96122, Note_on_c, 0, 61, 62
2, 96130, Note_on_c, 0, 46, 58
2, 96131, Control_c, 0, 64, 0
2, 96134, Note_on_c, 0, 53, 50
2, 96135, Note_off_c, 0, 77, 64
2, 96141, Control_c, 0, 64, 0
2, 96154, Control_c, 0, 64, 127
2, 96166, Control_c, 0, 64, 127
2, 96255, Note_off_c, 0, 70, 64
2, 96273, Note_on_c, 0, 76, 55
2, 96303, Control_c, 0, 64, 0
2, 96311, Note_off_c, 0, 53, 64
2, 96315, Note_off_c, 0, 61, 64
2, 96324, Note_off_c, 0, 46, 64
2, 96339, Control_c, 0, 64, 127
2, 96340, Note_off_c, 0, 76, 64
2, 96340, Note_on_c, 0, 72, 58
2, 96426, Note_on_c, 0, 75, 63
2, 96433, Note_on_c, 0, 46, 49
2, 96438, Note_on_c, 0, 60, 58
2, 96440, Note_on_c, 0, 53, 49
2, 96444, Note_off_c, 0, 72, 64
2, 96454, Control_c, 0, 64, 0
2, 96465, Control_c, 0, 64, 127
2, 96492, Note_off_c, 0, 60, 64
2, 96494, Note_off_c, 0, 46, 64
2, 96498, Note_off_c, 0, 53, 64
2, 96501, Note_on_c, 0, 73, 66
2, 96507, Note_off_c, 0, 75, 64
2, 96579, Note_off_c, 0, 82, 64
2, 96599, Note_on_c, 0, 82, 66
2, 96603, Note_on_c, 0, 70, 66
2, 96605, Note_off_c, 0, 73, 64
2, 96615, Note_on_c, 0, 61, 55
2, 96618, Note_on_c, 0, 46, 39
2, 96624, Note_on_c, 0, 53, 40
2, 96636, Control_c, 0, 64, 0
2, 96643, Control_c, 0, 64, 0
2, 96651, Control_c, 0, 64, 127
2, 96658, Control_c, 0, 64, 127
2, 96775, Note_off_c, 0, 70, 64
2, 96775, Note_on_c, 0, 76, 58
2, 96813, Control_c, 0, 64, 0
2, 96834, Note_off_c, 0, 53, 64
2, 96838, Note_off_c, 0, 61, 64
2, 96838, Control_c, 0, 64, 127
2, 96847, Note_off_c, 0, 46, 64
2, 96860, Note_off_c, 0, 76, 64
2, 96863, Note_on_c, 0, 72, 62
2, 96961, Note_on_c, 0, 75, 66
2, 96971, Note_on_c, 0, 46, 46
2, 96975, Note_on_c, 0, 60, 54
2, 96978, Note_on_c, 0, 53, 49
2, 96984, Note_off_c, 0, 72, 64
2, 96991, Control_c, 0, 64, 0
2, 97001, Control_c, 0, 64, 127
2, 97053, Note_on_c, 0, 73, 63
2, 97054, Note_off_c, 0, 75, 64
2, 97061, Note_off_c, 0, 53, 64
2, 97066, Note_off_c, 0, 60, 64
2, 97067, Note_off_c, 0, 46, 64
2, 97126, Control_c, 0, 64, 0
2, 97137, Control_c, 0, 64, 127
2, 97138, Note_off_c, 0, 82, 64
2, 97187, Note_on_c, 0, 70, 53
2, 97189, Note_on_c, 0, 82, 62
2, 97194, Note_off_c, 0, 73, 64
2, 97194, Note_on_c, 0, 61, 50
2, 97200, Note_on_c, 0, 46, 41
2, 97202, Note_on_c, 0, 53, 33
2, 97243, Control_c, 0, 64, 0
2, 97270, Control_c, 0, 64, 127
2, 97308, Control_c, 0, 64, 0
2, 97323, Control_c, 0, 64, 127
2, 97432, Note_off_c, 0, 82, 64
2, 97434, Note_off_c, 0, 53, 64
2, 97437, Note_on_c, 0, 73, 59
2, 97444, Note_off_c, 0, 70, 64
2, 97446, Note_off_c, 0, 46, 64
2, 97480, Note_off_c, 0, 61, 64
2, 97663, Control_c, 0, 64, 0
2, 97673, Control_c, 0, 64, 127
2, 97686, Note_on_c, 0, 55, 26
2, 97689, Note_on_c, 0, 64, 36
2, 97689, Note_on_c, 0, 58, 36
2, 97711, Control_c, 0, 64, 0
2, 97745, Control_c, 0, 64, 127
2, 97915, Control_c, 0, 64, 0
2, 97942, Control_c, 0, 64, 127
2, 97961, Note_off_c, 0, 64, 64
2, 97968, Note_off_c, 0, 58, 64
2, 98012, Note_on_c, 0, 56, 26
2, 98019, Note_off_c, 0, 55, 64
2, 98020, Note_on_c, 0, 71, 48
2, 98026, Note_on_c, 0, 64, 32
2, 98033, Note_off_c, 0, 73, 64
2, 98040, Note_on_c, 0, 59, 22
2, 98249, Note_off_c, 0, 59, 64
2, 98252, Note_off_c, 0, 56, 64
2, 98281, Note_off_c, 0, 64, 64
2, 98292, Note_on_c, 0, 73, 49
2, 98307, Note_on_c, 0, 55, 27
2, 98308, Note_on_c, 0, 58, 22
2, 98313, Note_on_c, 0, 64, 27
2, 98316, Note_off_c, 0, 71, 64
2, 98344, Control_c, 0, 64, 0
2, 98373, Control_c, 0, 64, 127
2, 98383, Control_c, 0, 64, 0
2, 98417, Control_c, 0, 64, 127
2, 98579, Note_on_c, 0, 71, 40
2, 98581, Note_off_c, 0, 64, 64
2, 98586, Note_on_c, 0, 64, 24
2, 98586, Note_on_c, 0, 56, 23
2, 98591, Note_on_c, 0, 59, 40
2, 98596, Note_off_c, 0, 73, 64
2, 98638, Note_off_c, 0, 58, 64
2, 98641, Note_off_c, 0, 55, 64
2, 98642, Control_c, 0, 64, 0
2, 98655, Control_c, 0, 64, 127
2, 98874, Note_off_c, 0, 64, 64
2, 98920, Note_on_c, 0, 64, 19
2, 98920, Note_on_c, 0, 55, 27
2, 98928, Note_on_c, 0, 61, 27
2, 98941, Note_on_c, 0, 70, 37
2, 98969, Note_off_c, 0, 71, 64
2, 98978, Note_off_c, 0, 56, 64
2, 98978, Note_off_c, 0, 59, 64
2, 99016, Control_c, 0, 64, 0
2, 99031, Control_c, 0, 64, 0
2, 99045, Control_c, 0, 64, 127
2, 99080, Control_c, 0, 64, 127
2, 99314, Control_c, 0, 64, 0
2, 99327, Control_c, 0, 64, 127
2, 99432, Note_on_c, 0, 72, 42
2, 99452, Note_off_c, 0, 70, 64
2, 99455, Control_c, 0, 64, 0
2, 99470, Note_off_c, 0, 64, 64
2, 99472, Control_c, 0, 64, 127
2, 99478, Note_off_c, 0, 55, 64
2, 99485, Note_off_c, 0, 61, 64
2, 99672, Note_on_c, 0, 70, 44
2, 99703, Control_c, 0, 64, 0
2, 99705, Note_off_c, 0, 72, 64
2, 99725, Note_off_c, 0, 70, 64
2, 99730, Note_on_c, 0, 56, 24
2, 99740, Note_on_c, 0, 63, 29
2, 99742, Note_on_c, 0, 68, 45
2, 99750, Note_on_c, 0, 60, 36
2, 99752, Control_c, 0, 64, 127
2, 99872, Note_off_c, 0, 56, 64
2, 99885, Note_on_c, 0, 70, 50
2, 99898, Note_off_c, 0, 68, 64
2, 99977, Note_off_c, 0, 60, 64
2, 99990, Note_off_c, 0, 70, 64
2, 99992, Note_on_c, 0, 72, 55
2, 99999, Note_on_c, 0, 51, 40
2, 100023, Control_c, 0, 64, 0
2, 100038, Control_c, 0, 64, 127
2, 100084, Note_off_c, 0, 51, 64
2, 100105, Note_off_c, 0, 63, 64
2, 100127, Control_c, 0, 64, 0
2, 100144, Control_c, 0, 64, 127
2, 100212, Note_on_c, 0, 61, 32
2, 100218, Note_on_c, 0, 64, 36
2, 100225, Note_on_c, 0, 55, 24
2, 100251, Control_c, 0, 64, 0
2, 100264, Control_c, 0, 64, 127
2, 100288, Note_off_c, 0, 72, 64
2, 100297, Note_off_c, 0, 64, 64
2, 100324, Note_off_c, 0, 61, 64
2, 100340, Note_off_c, 0, 55, 64
2, 100385, Note_on_c, 0, 70, 53
2, 100431, Note_on_c, 0, 68, 55
2, 100431, Note_on_c, 0, 56, 40
2, 100434, Note_on_c, 0, 63, 48
2, 100444, Note_off_c, 0, 70, 64
2, 100454, Note_on_c, 0, 60, 24
2, 100589, Note_on_c, 0, 77, 40
2, 100591, Note_off_c, 0, 56, 64
2, 100614, Note_off_c, 0, 60, 64
2, 100645, Note_on_c, 0, 75, 52
2, 100648, Note_off_c, 0, 77, 64
2, 100651, Note_on_c, 0, 51, 42
2, 100695, Control_c, 0, 64, 0
2, 100703, Note_off_c, 0, 75, 64
2, 100710, Control_c, 0, 64, 127
2, 100717, Note_off_c, 0, 51, 64
2, 100717, Note_off_c, 0, 68, 64
2, 100732, Note_off_c, 0, 63, 64
2, 100884, Note_on_c, 0, 61, 32
2, 100886, Note_on_c, 0, 55, 39
2, 100890, Note_on_c, 0, 72, 53
2, 100895, Note_on_c, 0, 64, 29
2, 100915, Control_c, 0, 64, 0
2, 100923, Control_c, 0, 64, 0
2, 100928, Control_c, 0, 64, 127
2, 100936, Control_c, 0, 64, 127
2, 100968, Note_off_c, 0, 64, 64
2, 100992, Note_off_c, 0, 61, 64
2, 101041, Note_on_c, 0, 70, 50
2, 101057, Note_off_c, 0, 72, 64
2, 101066, Note_off_c, 0, 55, 64
2, 101141, Note_on_c, 0, 68, 45
2, 101148, Note_on_c, 0, 63, 28
2, 101152, Note_on_c, 0, 56, 22
2, 101157, Note_on_c, 0, 60, 32
2, 101158, Note_off_c, 0, 70, 64
2, 101165, Control_c, 0, 64, 0
2, 101178, Control_c, 0, 64, 127
2, 101247, Note_off_c, 0, 68, 64
2, 101255, Note_on_c, 0, 70, 32
2, 101259, Note_off_c, 0, 60, 64
2, 101306, Note_off_c, 0, 70, 64
2, 101312, Note_off_c, 0, 63, 64
2, 101344, Note_off_c, 0, 56, 64
2, 101368, Note_on_c, 0, 71, 46
2, 101376, Note_on_c, 0, 51, 29
2, 101445, Note_on_c, 0, 73, 49
2, 101448, Note_off_c, 0, 71, 64
2, 101505, Note_off_c, 0, 73, 64
2, 101579, Note_on_c, 0, 72, 52
2, 101587, Control_c, 0, 64, 0
2, 101600, Control_c, 0, 64, 127
2, 101604, Note_off_c, 0, 72, 64
2, 101639, Note_on_c, 0, 72, 57
2, 101674, Note_on_c, 0, 63, 53
2, 101682, Note_on_c, 0, 56, 40
2, 101685, Note_off_c, 0, 72, 64
2, 101687, Note_on_c, 0, 61, 32
2, 101695, Note_off_c, 0, 51, 64
2, 101750, Control_c, 0, 64, 0
2, 101837, Control_c, 0, 64, 0
2, 101850, Control_c, 0, 64, 127
2, 101861, Note_on_c, 0, 55, 44
2, 101864, Note_off_c, 0, 56, 64
2, 101916, Note_on_c, 0, 53, 40
2, 101920, Note_off_c, 0, 55, 64
2, 102028, Note_off_c, 0, 53, 64
2, 102047, Note_on_c, 0, 55, 32
2, 102202, Note_on_c, 0, 51, 35
2, 102268, Control_c, 0, 64, 127
2, 102312, Note_off_c, 0, 55, 64
2, 102352, Note_off_c, 0, 63, 64
2, 102375, Note_off_c, 0, 61, 64
2, 102422, Control_c, 0, 64, 0
2, 102547, Note_off_c, 0, 51, 64
2, 102578, Note_on_c, 0, 72, 53
2, 102581, Note_on_c, 0, 61, 42
2, 102587, Note_on_c, 0, 55, 42
2, 102589, Note_on_c, 0, 64, 40
2, 102597, Control_c, 0, 64, 0
2, 102640, Control_c, 0, 64, 127
2, 102679, Note_off_c, 0, 64, 64
2, 102679, Note_off_c, 0, 61, 64
2, 102751, Note_off_c, 0, 55, 64
2, 102759, Note_on_c, 0, 70, 50
2, 102768, Note_off_c, 0, 72, 64
2, 102792, Note_on_c, 0, 56, 29
2, 102803, Note_on_c, 0, 63, 44
2, 102808, Note_on_c, 0, 68, 58
2, 102827, Note_off_c, 0, 70, 64
2, 102830, Note_on_c, 0, 60, 23
2, 102853, Control_c, 0, 64, 0
2, 102867, Control_c, 0, 64, 127
2, 102911, Note_on_c, 0, 70, 41
2, 102913, Note_off_c, 0, 56, 64
2, 102916, Note_off_c, 0, 68, 64
2, 102940, Control_c, 0, 64, 127
2, 102956, Note_off_c, 0, 60, 64
2, 103017, Note_on_c, 0, 72, 54
2, 103017, Note_on_c, 0, 51, 40
2, 103033, Control_c, 0, 64, 0
2, 103040, Note_off_c, 0, 70, 64
2, 103046, Control_c, 0, 64, 127
2, 103092, Note_off_c, 0, 51, 64
2, 103099, Note_off_c, 0, 63, 64
2, 103213, Note_on_c, 0, 61, 41
2, 103219, Note_on_c, 0, 64, 40
2, 103220, Note_on_c, 0, 55, 36
2, 103237, Control_c, 0, 64, 0
2, 103250, Control_c, 0, 64, 127
2, 103269, Control_c, 0, 64, 0
2, 103312, Control_c, 0, 64, 127
2, 103344, Note_off_c, 0, 64, 64
2, 103364, Note_off_c, 0, 55, 64
2, 103364, Note_off_c, 0, 61, 64
2, 103371, Note_on_c, 0, 70, 54
2, 103391, Note_off_c, 0, 72, 64
2, 103416, Note_on_c, 0, 63, 49
2, 103420, Note_on_c, 0, 56, 32
2, 103426, Note_on_c, 0, 60, 40
2, 103428, Note_on_c, 0, 68, 48
2, 103452, Note_off_c, 0, 70, 64
2, 103502, Note_off_c, 0, 60, 64
2, 103525, Control_c, 0, 64, 0
2, 103531, Note_on_c, 0, 79, 52
2, 103539, Control_c, 0, 64, 127
2, 103579, Note_off_c, 0, 68, 64
2, 103626, Note_on_c, 0, 77, 50
2, 103638, Note_on_c, 0, 59, 49
2, 103648, Note_off_c, 0, 79, 64
2, 103648, Note_off_c, 0, 56, 64
2, 103705, Control_c, 0, 64, 0
2, 103718, Control_c, 0, 64, 127
2, 103721, Note_off_c, 0, 59, 64
2, 103831, Note_off_c, 0, 77, 64
2, 103842, Note_on_c, 0, 70, 55
2, 103844, Note_on_c, 0, 67, 45
2, 103849, Note_on_c, 0, 51, 36
2, 103877, Control_c, 0, 64, 0
2, 103891, Control_c, 0, 64, 127
2, 103909, Control_c, 0, 64, 0
2, 103922, Control_c, 0, 64, 127
2, 103933, Note_off_c, 0, 67, 64
2, 103992, Note_off_c, 0, 63, 64
2, 104065, Note_off_c, 0, 51, 64
2, 104070, Note_on_c, 0, 68, 52
2, 104070, Note_on_c, 0, 62, 45
2, 104074, Note_on_c, 0, 59, 43
2, 104076, Note_off_c, 0, 70, 64
2, 104090, Control_c, 0, 64, 0
2, 104123, Control_c, 0, 64, 127
2, 104250, Note_on_c, 0, 79, 42
2, 104310, Note_on_c, 0, 77, 58
2, 104328, Note_off_c, 0, 79, 64
2, 104328, Note_on_c, 0, 51, 35
2, 104343, Control_c, 0, 64, 0
2, 104365, Note_off_c, 0, 59, 64
2, 104371, Control_c, 0, 64, 127
2, 104400, Note_off_c, 0, 62, 64
2, 104515, Note_off_c, 0, 68, 64
2, 104549, Control_c, 0, 64, 0
2, 104563, Control_c, 0, 64, 127
2, 104564, Note_on_c, 0, 68, 52
2, 104567, Note_off_c, 0, 51, 64
2, 104568, Note_off_c, 0, 77, 64
2, 104577, Note_on_c, 0, 59, 43
2, 104582, Note_on_c, 0, 62, 32
2, 104605, Control_c, 0, 64, 0
2, 104628, Control_c, 0, 64, 127
2, 104762, Control_c, 0, 64, 0
2, 104795, Control_c, 0, 64, 127
2, 104796, Note_on_c, 0, 79, 36
2, 104868, Note_on_c, 0, 77, 49
2, 104869, Note_on_c, 0, 51, 27
2, 104892, Note_off_c, 0, 79, 64
2, 104909, Control_c, 0, 64, 0
2, 104935, Note_off_c, 0, 59, 64
2, 104937, Control_c, 0, 64, 127
2, 104967, Note_off_c, 0, 62, 64
2, 105015, Control_c, 0, 64, 0
2, 105043, Control_c, 0, 64, 127
2, 105182, Note_off_c, 0, 68, 64
2, 105261, Note_off_c, 0, 77, 64
2, 105271, Note_on_c, 0, 70, 44
2, 105272, Note_on_c, 0, 67, 23
2, 105277, Control_c, 0, 64, 0
2, 105278, Note_on_c, 0, 63, 29
2, 105278, Note_on_c, 0, 58, 27
2, 105300, Control_c, 0, 64, 127
2, 105354, Control_c, 0, 64, 0
2, 105386, Control_c, 0, 64, 127
2, 105488, Note_off_c, 0, 51, 64
2, 105581, Control_c, 0, 64, 0
2, 105609, Control_c, 0, 64, 127
2, 105731, Note_off_c, 0, 63, 64
2, 105743, Note_on_c, 0, 72, 40
2, 105747, Note_off_c, 0, 58, 64
2, 105755, Note_on_c, 0, 61, 19
2, 105759, Note_off_c, 0, 70, 64
2, 105760, Note_off_c, 0, 67, 64
2, 105763, Note_on_c, 0, 64, 20
2, 105772, Note_on_c, 0, 55, 16
2, 105805, Control_c, 0, 64, 0
2, 105838, Control_c, 0, 64, 127
2, 105881, Note_off_c, 0, 64, 64
2, 105919, Note_off_c, 0, 61, 64
2, 105960, Note_on_c, 0, 70, 39
2, 105972, Note_off_c, 0, 72, 64
2, 105987, Note_off_c, 0, 55, 64
2, 106008, Note_on_c, 0, 63, 20
2, 106009, Note_on_c, 0, 68, 41
2, 106012, Note_on_c, 0, 56, 32
2, 106016, Note_on_c, 0, 60, 15
2, 106024, Note_off_c, 0, 70, 64
2, 106026, Control_c, 0, 64, 0
2, 106058, Control_c, 0, 64, 127
2, 106070, Control_c, 0, 64, 0
2, 106092, Control_c, 0, 64, 127
2, 106103, Note_off_c, 0, 60, 64
2, 106125, Note_on_c, 0, 70, 35
2, 106148, Note_off_c, 0, 68, 64
2, 106217, Note_off_c, 0, 56, 64
2, 106236, Note_on_c, 0, 72, 41
2, 106238, Note_off_c, 0, 70, 64
2, 106247, Note_on_c, 0, 51, 39
2, 106299, Note_off_c, 0, 63, 64
2, 106323, Note_off_c, 0, 51, 64
2, 106443, Note_on_c, 0, 61, 27
2, 106446, Note_on_c, 0, 55, 35
2, 106452, Note_on_c, 0, 64, 28
2, 106477, Control_c, 0, 64, 0
2, 106510, Control_c, 0, 64, 127
2, 106531, Note_off_c, 0, 64, 64
2, 106547, Note_off_c, 0, 61, 64
2, 106607, Note_on_c, 0, 70, 44
2, 106610, Note_off_c, 0, 72, 64
2, 106624, Note_off_c, 0, 55, 64
2, 106644, Note_on_c, 0, 68, 44
2, 106653, Note_off_c, 0, 70, 64
2, 106653, Note_on_c, 0, 56, 29
2, 106660, Note_on_c, 0, 63, 33
2, 106663, Note_on_c, 0, 60, 28
2, 106742, Control_c, 0, 64, 0
2, 106764, Control_c, 0, 64, 127
2, 106776, Note_on_c, 0, 77, 42
2, 106795, Note_off_c, 0, 68, 64
2, 106832, Note_off_c, 0, 60, 64
2, 106836, Note_off_c, 0, 56, 64
2, 106865, Note_on_c, 0, 75, 39
2, 106875, Note_on_c, 0, 51, 28
2, 106881, Note_off_c, 0, 77, 64
2, 106882, Control_c, 0, 64, 0
2, 106895, Control_c, 0, 64, 127
2, 106917, Note_off_c, 0, 75, 64
2, 106941, Note_off_c, 0, 51, 64
2, 106963, Note_off_c, 0, 63, 64
2, 107115, Note_on_c, 0, 72, 40
2, 107115, Note_on_c, 0, 61, 28
2, 107123, Note_on_c, 0, 64, 29
2, 107123, Note_on_c, 0, 55, 32
2, 107208, Note_off_c, 0, 64, 64
2, 107208, Note_on_c, 0, 71, 44
2, 107209, Note_off_c, 0, 61, 64
2, 107220, Note_off_c, 0, 72, 64
2, 107275, Note_on_c, 0, 70, 42
2, 107288, Note_off_c, 0, 71, 64
2, 107311, Note_off_c, 0, 55, 64
2, 107356, Note_on_c, 0, 67, 40
2, 107366, Note_on_c, 0, 63, 36
2, 107367, Note_off_c, 0, 70, 64
2, 107376, Note_on_c, 0, 60, 24
2, 107380, Note_on_c, 0, 56, 19
2, 107395, Control_c, 0, 64, 0
2, 107432, Control_c, 0, 64, 127
2, 107436, Note_on_c, 0, 68, 49
2, 107457, Note_off_c, 0, 67, 64
2, 107510, Note_off_c, 0, 60, 64
2, 107514, Note_off_c, 0, 56, 64
2, 107524, Note_on_c, 0, 70, 36
2, 107545, Note_off_c, 0, 68, 64
2, 107554, Control_c, 0, 64, 0
2, 107567, Control_c, 0, 64, 127
2, 107614, Note_on_c, 0, 51, 32
2, 107616, Note_on_c, 0, 71, 45
2, 107626, Note_off_c, 0, 70, 64
2, 107638, Note_off_c, 0, 63, 64
2, 107650, Control_c, 0, 64, 0
2, 107673, Control_c, 0, 64, 127
2, 107690, Note_on_c, 0, 73, 40
2, 107696, Note_off_c, 0, 71, 64
2, 107745, Note_off_c, 0, 73, 64
2, 107818, Note_on_c, 0, 72, 46
2, 107853, Note_off_c, 0, 72, 64
2, 107881, Note_on_c, 0, 72, 40
2, 107909, Note_on_c, 0, 63, 44
2, 107915, Note_off_c, 0, 72, 64
2, 107918, Note_on_c, 0, 56, 39
2, 107925, Note_on_c, 0, 61, 28
2, 107933, Note_off_c, 0, 51, 64
2, 107981, Control_c, 0, 64, 0
2, 108067, Control_c, 0, 64, 0
2, 108090, Note_off_c, 0, 56, 64
2, 108095, Note_on_c, 0, 55, 28
2, 108104, Control_c, 0, 64, 127
2, 108145, Note_on_c, 0, 53, 39
2, 108149, Note_off_c, 0, 55, 64
2, 108266, Note_off_c, 0, 53, 64
2, 108279, Note_on_c, 0, 55, 32
2, 108322, Control_c, 0, 64, 0
2, 108345, Control_c, 0, 64, 127
2, 108419, Note_on_c, 0, 51, 31
2, 108491, Control_c, 0, 64, 127
2, 108521, Note_off_c, 0, 55, 64
2, 108552, Note_off_c, 0, 63, 64
2, 108591, Note_off_c, 0, 61, 64
2, 108653, Control_c, 0, 64, 0
2, 108777, Note_on_c, 0, 72, 60
2, 108784, Note_on_c, 0, 61, 37
2, 108786, Note_on_c, 0, 64, 37
2, 108786, Note_on_c, 0, 55, 36
2, 108795, Note_off_c, 0, 51, 64
2, 108809, Control_c, 0, 64, 0
2, 108822, Control_c, 0, 64, 127
2, 108869, Note_off_c, 0, 64, 64
2, 108876, Note_off_c, 0, 61, 64
2, 108946, Note_off_c, 0, 72, 64
2, 108946, Note_on_c, 0, 70, 35
2, 108951, Note_off_c, 0, 55, 64
2, 108992, Note_on_c, 0, 63, 45
2, 108993, Note_on_c, 0, 68, 46
2, 109010, Note_on_c, 0, 56, 17
2, 109015, Note_off_c, 0, 70, 64
2, 109016, Note_on_c, 0, 60, 21
2, 109022, Control_c, 0, 64, 0
2, 109035, Control_c, 0, 64, 127
2, 109088, Note_on_c, 0, 70, 47
2, 109108, Note_off_c, 0, 60, 64
2, 109117, Note_off_c, 0, 68, 64
2, 109147, Note_off_c, 0, 56, 64
2, 109163, Control_c, 0, 64, 127
2, 109193, Note_on_c, 0, 72, 52
2, 109205, Note_on_c, 0, 51, 37
2, 109212, Note_off_c, 0, 70, 64
2, 109268, Note_off_c, 0, 51, 64
2, 109281, Note_off_c, 0, 63, 64
2, 109405, Note_on_c, 0, 64, 44
2, 109407, Note_on_c, 0, 61, 35
2, 109411, Note_on_c, 0, 55, 44
2, 109457, Note_on_c, 0, 70, 44
2, 109460, Note_off_c, 0, 61, 64
2, 109464, Note_off_c, 0, 64, 64
2, 109469, Note_off_c, 0, 72, 64
2, 109481, Control_c, 0, 64, 0
2, 109494, Control_c, 0, 64, 127
2, 109497, Note_on_c, 0, 72, 54
2, 109510, Note_off_c, 0, 70, 64
2, 109517, Note_off_c, 0, 55, 64
2, 109540, Note_on_c, 0, 70, 44
2, 109546, Note_off_c, 0, 72, 64
2, 109588, Note_on_c, 0, 68, 68
2, 109588, Note_on_c, 0, 56, 43
2, 109595, Note_off_c, 0, 70, 64
2, 109595, Note_on_c, 0, 60, 46
2, 109596, Note_on_c, 0, 63, 43
2, 109622, Note_off_c, 0, 68, 64
2, 109653, Note_off_c, 0, 60, 64
2, 109654, Note_off_c, 0, 56, 64
2, 109690, Note_off_c, 0, 63, 64
2, 109694, Control_c, 0, 64, 0
2, 109707, Control_c, 0, 64, 127
2, 109764, Note_on_c, 0, 80, 57
2, 109814, Note_on_c, 0, 77, 63
2, 109821, Note_off_c, 0, 80, 64
2, 109824, Note_on_c, 0, 71, 54
2, 109824, Note_on_c, 0, 68, 57
2, 109824, Note_on_c, 0, 62, 53
2, 109902, Note_off_c, 0, 71, 64
2, 109913, Note_off_c, 0, 62, 64
2, 109919, Note_off_c, 0, 77, 64
2, 109925, Note_off_c, 0, 68, 64
2, 110050, Note_on_c, 0, 70, 58
2, 110054, Note_on_c, 0, 63, 58
2, 110063, Note_on_c, 0, 67, 42
2, 110086, Control_c, 0, 64, 0
2, 110096, Control_c, 0, 64, 127
2, 110147, Note_off_c, 0, 67, 64
2, 110251, Note_on_c, 0, 72, 54
2, 110267, Note_off_c, 0, 70, 64
2, 110289, Note_on_c, 0, 73, 68
2, 110293, Note_off_c, 0, 63, 64
2, 110293, Note_on_c, 0, 58, 50
2, 110304, Note_on_c, 0, 65, 44
2, 110305, Note_off_c, 0, 72, 64
2, 110316, Control_c, 0, 64, 0
2, 110329, Control_c, 0, 64, 127
2, 110496, Note_off_c, 0, 58, 64
2, 110502, Note_off_c, 0, 65, 64
2, 110548, Note_on_c, 0, 51, 26
2, 110550, Note_on_c, 0, 72, 58
2, 110554, Note_on_c, 0, 67, 57
2, 110557, Note_on_c, 0, 63, 45
2, 110561, Note_off_c, 0, 73, 64
2, 110578, Control_c, 0, 64, 0
2, 110604, Control_c, 0, 64, 127
2, 110758, Control_c, 0, 64, 0
2, 110768, Control_c, 0, 64, 127
2, 110773, Note_on_c, 0, 70, 54
2, 110780, Note_off_c, 0, 72, 64
2, 110782, Note_on_c, 0, 61, 52
2, 110788, Note_off_c, 0, 51, 64
2, 110803, Note_off_c, 0, 63, 64
2, 110812, Note_off_c, 0, 67, 64
2, 110856, Note_on_c, 0, 65, 58
2, 110856, Note_on_c, 0, 56, 37
2, 110858, Note_on_c, 0, 73, 61
2, 110858, Note_on_c, 0, 68, 63
2, 110869, Note_off_c, 0, 61, 64
2, 110874, Note_off_c, 0, 70, 64
2, 110931, Control_c, 0, 64, 0
2, 110973, Control_c, 0, 64, 127
2, 110988, Control_c, 0, 64, 0
2, 111001, Control_c, 0, 64, 127
2, 111199, Note_on_c, 0, 63, 39
2, 111205, Note_on_c, 0, 72, 52
2, 111206, Note_off_c, 0, 68, 64
2, 111211, Note_off_c, 0, 73, 64
2, 111250, Control_c, 0, 64, 0
2, 111276, Control_c, 0, 64, 127
2, 111294, Note_on_c, 0, 68, 52
2, 111296, Note_on_c, 0, 60, 19
2, 111342, Control_c, 0, 64, 0
2, 111346, Note_off_c, 0, 72, 64
2, 111348, Note_off_c, 0, 65, 64
2, 111351, Note_off_c, 0, 63, 64
2, 111603, Control_c, 0, 64, 0
2, 111645, Control_c, 0, 64, 127
2, 112014, Control_c, 0, 64, 0
2, 112532, Note_off_c, 0, 68, 64
2, 112534, Note_off_c, 0, 60, 64
2, 112536, Note_off_c, 0, 56, 64
2, 112536, End_track
3, 0, Start_track
3, 0, Title_t, "Played by Dr. Ron Lubetsky"
3, 0, End_track
4, 0, Start_track
4, 0, Title_t, "Jan. 19, 1998"
4, 0, End_track
5, 0, Start_track
5, 0, Title_t, "email: acuity2020@aol.com"
5, 0, End_track
6, 0, Start_track
6, 0, Title_t, "Copyright  1998"
6, 0, End_track
7, 0, Start_track
7, 0, Title_t, "All Rights Reserved"
7, 0, End_track
0, 0, End_of_file
