2, 0, Program_c, 0, 0
2, 0, Control_c, 0, 7, 127
2, 16, Note_on_c, 0, 63, 51
2, 37, Control_c, 0, 64, 127
2, 37, Control_c, 0, 64, 127
2, 170, Control_c, 0, 64, 0
2, 170, Control_c, 0, 64, 0
2, 201, Control_c, 0, 64, 127
2, 201, Control_c, 0, 64, 127
2, 216, Note_on_c, 0, 68, 60
2, 221, Note_on_c, 0, 32, 55
2, 226, Note_off_c, 0, 63, 64
2, 248, Control_c, 0, 64, 0
2, 248, Control_c, 0, 64, 0
2, 311, Control_c, 0, 64, 127
2, 311, Control_c, 0, 64, 127
2, 325, Note_on_c, 0, 72, 58
2, 372, Note_off_c, 0, 68, 64
2, 382, Note_off_c, 0, 32, 64
2, 434, Note_on_c, 0, 75, 58
2, 442, Control_c, 0, 64, 0
2, 442, Control_c, 0, 64, 0
2, 449, Note_on_c, 0, 60, 54
2, 449, Note_on_c, 0, 51, 46
2, 450, Note_on_c, 0, 63, 39
2, 473, Control_c, 0, 64, 127
2, 473, Control_c, 0, 64, 127
2, 478, Note_off_c, 0, 72, 64
2, 512, Note_off_c, 0, 51, 64
2, 512, Note_off_c, 0, 60, 64
2, 513, Note_off_c, 0, 63, 64
2, 520, Note_on_c, 0, 76, 52
2, 567, Note_off_c, 0, 75, 64
2, 608, Note_on_c, 0, 51, 46
2, 612, Note_on_c, 0, 77, 63
2, 617, Control_c, 0, 64, 0
2, 617, Control_c, 0, 64, 0
2, 623, Note_on_c, 0, 63, 42
2, 624, Note_on_c, 0, 61, 49
2, 649, Note_off_c, 0, 76, 64
2, 659, Control_c, 0, 64, 127
2, 659, Control_c, 0, 64, 127
2, 671, Note_off_c, 0, 51, 64
2, 686, Note_off_c, 0, 63, 64
2, 687, Note_off_c, 0, 61, 64
2, 708, Note_on_c, 0, 67, 73
2, 760, Note_off_c, 0, 77, 64
2, 778, Control_c, 0, 64, 0
2, 778, Control_c, 0, 64, 0
2, 789, Note_on_c, 0, 44, 59
2, 792, Note_on_c, 0, 68, 74
2, 814, Note_off_c, 0, 67, 64
2, 819, Control_c, 0, 64, 127
2, 819, Control_c, 0, 64, 127
2, 859, Note_on_c, 0, 72, 62
2, 879, Note_off_c, 0, 68, 64
2, 923, Note_on_c, 0, 77, 66
2, 940, Note_on_c, 0, 66, 62
2, 944, Note_off_c, 0, 72, 64
2, 944, Note_on_c, 0, 60, 43
2, 949, Note_on_c, 0, 56, 39
2, 950, Note_off_c, 0, 44, 64
2, 955, Note_on_c, 0, 75, 70
2, 956, Control_c, 0, 64, 0
2, 956, Control_c, 0, 64, 0
2, 982, Note_off_c, 0, 77, 64
2, 986, Control_c, 0, 64, 127
2, 986, Control_c, 0, 64, 127
2, 1003, Note_off_c, 0, 66, 64
2, 1007, Note_off_c, 0, 60, 64
2, 1012, Note_off_c, 0, 56, 64
2, 1028, Note_on_c, 0, 74, 65
2, 1044, Note_off_c, 0, 75, 64
2, 1111, Control_c, 0, 64, 0
2, 1111, Control_c, 0, 64, 0
2, 1123, Note_on_c, 0, 75, 64
2, 1125, Note_on_c, 0, 66, 58
2, 1134, Note_on_c, 0, 60, 49
2, 1136, Note_on_c, 0, 56, 39
2, 1140, Note_off_c, 0, 74, 64
2, 1164, Control_c, 0, 64, 127
2, 1164, Control_c, 0, 64, 127
2, 1188, Note_off_c, 0, 66, 64
2, 1197, Note_off_c, 0, 60, 64
2, 1199, Note_off_c, 0, 56, 64
2, 1326, Note_on_c, 0, 73, 64
2, 1327, Note_on_c, 0, 49, 62
2, 1328, Note_off_c, 0, 75, 64
2, 1339, Control_c, 0, 64, 0
2, 1339, Control_c, 0, 64, 0
2, 1362, Control_c, 0, 64, 127
2, 1362, Control_c, 0, 64, 127
2, 1420, Note_on_c, 0, 77, 56
2, 1455, Note_off_c, 0, 73, 64
2, 1486, Note_on_c, 0, 65, 39
2, 1488, Note_off_c, 0, 49, 64
2, 1489, Note_on_c, 0, 56, 29
2, 1496, Note_on_c, 0, 61, 50
2, 1496, Control_c, 0, 64, 0
2, 1496, Control_c, 0, 64, 0
2, 1503, Note_on_c, 0, 79, 59
2, 1507, Note_off_c, 0, 77, 64
2, 1533, Control_c, 0, 64, 127
2, 1533, Control_c, 0, 64, 127
2, 1549, Note_off_c, 0, 65, 64
2, 1552, Note_off_c, 0, 56, 64
2, 1559, Note_off_c, 0, 61, 64
2, 1570, Note_on_c, 0, 82, 69
2, 1591, Note_off_c, 0, 79, 64
2, 1644, Control_c, 0, 64, 0
2, 1644, Control_c, 0, 64, 0
2, 1654, Note_on_c, 0, 80, 64
2, 1657, Note_on_c, 0, 65, 50
2, 1657, Note_on_c, 0, 56, 49
2, 1662, Note_off_c, 0, 82, 64
2, 1663, Note_on_c, 0, 61, 44
2, 1666, Control_c, 0, 64, 127
2, 1666, Control_c, 0, 64, 127
2, 1720, Note_off_c, 0, 56, 64
2, 1720, Note_off_c, 0, 65, 64
2, 1726, Note_off_c, 0, 61, 64
2, 1742, Note_on_c, 0, 77, 55
2, 1764, Note_off_c, 0, 80, 64
2, 1812, Note_on_c, 0, 46, 73
2, 1815, Control_c, 0, 64, 0
2, 1815, Control_c, 0, 64, 0
2, 1824, Note_on_c, 0, 73, 71
2, 1835, Note_off_c, 0, 77, 64
2, 1846, Control_c, 0, 64, 127
2, 1846, Control_c, 0, 64, 127
2, 1886, Note_on_c, 0, 76, 66
2, 1902, Note_off_c, 0, 73, 64
2, 1948, Note_on_c, 0, 79, 62
2, 1957, Note_on_c, 0, 65, 57
2, 1963, Note_on_c, 0, 61, 59
2, 1965, Note_on_c, 0, 56, 57
2, 1972, Note_off_c, 0, 76, 64
2, 1973, Note_off_c, 0, 46, 64
2, 1976, Note_on_c, 0, 77, 60
2, 1976, Control_c, 0, 64, 0
2, 1976, Control_c, 0, 64, 0
2, 2013, Control_c, 0, 64, 127
2, 2013, Control_c, 0, 64, 127
2, 2017, Note_off_c, 0, 79, 64
2, 2020, Note_off_c, 0, 65, 64
2, 2026, Note_off_c, 0, 61, 64
2, 2028, Note_off_c, 0, 56, 64
2, 2065, Note_on_c, 0, 76, 58
2, 2082, Note_off_c, 0, 77, 64
2, 2160, Note_on_c, 0, 65, 57
2, 2160, Note_on_c, 0, 61, 25
2, 2160, Control_c, 0, 64, 0
2, 2160, Control_c, 0, 64, 0
2, 2167, Note_on_c, 0, 77, 71
2, 2167, Note_on_c, 0, 56, 57
2, 2184, Note_off_c, 0, 76, 64
2, 2196, Control_c, 0, 64, 127
2, 2196, Control_c, 0, 64, 127
2, 2223, Note_off_c, 0, 61, 64
2, 2223, Note_off_c, 0, 65, 64
2, 2230, Note_off_c, 0, 56, 64
2, 2363, Control_c, 0, 64, 0
2, 2363, Control_c, 0, 64, 0
2, 2364, Note_off_c, 0, 77, 64
2, 2370, Note_on_c, 0, 51, 59
2, 2371, Note_on_c, 0, 67, 64
2, 2403, Control_c, 0, 64, 127
2, 2403, Control_c, 0, 64, 127
2, 2439, Note_on_c, 0, 68, 55
2, 2469, Note_off_c, 0, 67, 64
2, 2508, Control_c, 0, 64, 0
2, 2508, Control_c, 0, 64, 0
2, 2524, Note_on_c, 0, 70, 51
2, 2531, Note_off_c, 0, 51, 64
2, 2536, Note_on_c, 0, 63, 56
2, 2536, Note_on_c, 0, 61, 56
2, 2538, Note_on_c, 0, 55, 39
2, 2548, Note_off_c, 0, 68, 64
2, 2552, Control_c, 0, 64, 127
2, 2552, Control_c, 0, 64, 127
2, 2599, Note_off_c, 0, 61, 64
2, 2599, Note_off_c, 0, 63, 64
2, 2601, Note_off_c, 0, 55, 64
2, 2606, Note_on_c, 0, 72, 58
2, 2643, Note_off_c, 0, 70, 64
2, 2680, Note_on_c, 0, 61, 50
2, 2683, Note_on_c, 0, 63, 50
2, 2688, Note_on_c, 0, 73, 64
2, 2688, Note_on_c, 0, 55, 39
2, 2718, Note_off_c, 0, 72, 64
2, 2743, Note_off_c, 0, 61, 64
2, 2746, Note_off_c, 0, 63, 64
2, 2751, Note_off_c, 0, 55, 64
2, 2763, Note_on_c, 0, 71, 66
2, 2784, Note_off_c, 0, 73, 64
2, 2848, Control_c, 0, 64, 0
2, 2848, Control_c, 0, 64, 0
2, 2854, Note_on_c, 0, 72, 73
2, 2868, Note_on_c, 0, 44, 56
2, 2871, Note_off_c, 0, 71, 64
2, 2892, Control_c, 0, 64, 127
2, 2892, Control_c, 0, 64, 127
2, 2946, Note_on_c, 0, 62, 66
2, 2952, Note_off_c, 0, 72, 64
2, 2998, Note_on_c, 0, 65, 74
2, 3014, Note_on_c, 0, 60, 46
2, 3014, Note_on_c, 0, 51, 36
2, 3018, Note_off_c, 0, 62, 64
2, 3018, Note_on_c, 0, 56, 43
2, 3025, Control_c, 0, 64, 0
2, 3025, Control_c, 0, 64, 0
2, 3029, Note_off_c, 0, 44, 64
2, 3030, Note_on_c, 0, 63, 65
2, 3054, Note_off_c, 0, 65, 64
2, 3064, Control_c, 0, 64, 127
2, 3064, Control_c, 0, 64, 127
2, 3077, Note_off_c, 0, 51, 64
2, 3077, Note_off_c, 0, 60, 64
2, 3081, Note_off_c, 0, 56, 64
2, 3104, Note_on_c, 0, 62, 63
2, 3130, Note_off_c, 0, 63, 64
2, 3183, Note_on_c, 0, 63, 65
2, 3195, Note_on_c, 0, 51, 49
2, 3198, Note_on_c, 0, 60, 50
2, 3199, Note_on_c, 0, 56, 48
2, 3212, Note_off_c, 0, 62, 64
2, 3258, Note_off_c, 0, 51, 64
2, 3261, Note_off_c, 0, 60, 64
2, 3262, Note_off_c, 0, 56, 64
2, 3376, Control_c, 0, 64, 0
2, 3376, Control_c, 0, 64, 0
2, 3384, Note_on_c, 0, 70, 64
2, 3384, Note_on_c, 0, 67, 62
2, 3391, Note_on_c, 0, 39, 73
2, 3417, Control_c, 0, 64, 127
2, 3417, Control_c, 0, 64, 127
2, 3422, Note_off_c, 0, 63, 64
2, 3464, Note_on_c, 0, 72, 64
2, 3466, Note_on_c, 0, 68, 73
2, 3472, Note_off_c, 0, 67, 64
2, 3478, Note_off_c, 0, 70, 64
2, 3543, Control_c, 0, 64, 0
2, 3543, Control_c, 0, 64, 0
2, 3552, Note_off_c, 0, 68, 64
2, 3552, Note_on_c, 0, 73, 59
2, 3552, Note_on_c, 0, 70, 62
2, 3556, Note_on_c, 0, 61, 39
2, 3556, Note_on_c, 0, 51, 41
2, 3558, Note_off_c, 0, 72, 64
2, 3559, Note_on_c, 0, 63, 52
2, 3578, Control_c, 0, 64, 127
2, 3578, Control_c, 0, 64, 127
2, 3584, Note_off_c, 0, 39, 64
2, 3619, Note_off_c, 0, 51, 64
2, 3619, Note_off_c, 0, 61, 64
2, 3622, Note_off_c, 0, 63, 64
2, 3625, Note_on_c, 0, 75, 41
2, 3625, Note_on_c, 0, 72, 67
2, 3642, Note_off_c, 0, 70, 64
2, 3642, Note_off_c, 0, 73, 64
2, 3696, Note_on_c, 0, 77, 62
2, 3696, Note_on_c, 0, 73, 46
2, 3700, Note_on_c, 0, 63, 62
2, 3703, Note_on_c, 0, 61, 62
2, 3708, Note_on_c, 0, 51, 33
2, 3722, Note_off_c, 0, 72, 64
2, 3722, Note_off_c, 0, 75, 64
2, 3763, Note_off_c, 0, 63, 64
2, 3766, Note_off_c, 0, 61, 64
2, 3771, Note_off_c, 0, 51, 64
2, 3784, Note_on_c, 0, 74, 64
2, 3784, Note_on_c, 0, 71, 77
2, 3811, Note_off_c, 0, 73, 64
2, 3811, Note_off_c, 0, 77, 64
2, 3877, Control_c, 0, 64, 0
2, 3877, Control_c, 0, 64, 0
2, 3880, Note_on_c, 0, 72, 50
2, 3883, Note_on_c, 0, 75, 73
2, 3883, Note_on_c, 0, 44, 63
2, 3885, Note_off_c, 0, 71, 64
2, 3885, Note_off_c, 0, 74, 64
2, 3922, Control_c, 0, 64, 127
2, 3922, Control_c, 0, 64, 127
2, 4006, Note_on_c, 0, 62, 73
2, 4013, Note_off_c, 0, 72, 64
2, 4016, Note_off_c, 0, 75, 64
2, 4033, Note_on_c, 0, 65, 49
2, 4044, Note_off_c, 0, 44, 64
2, 4060, Note_off_c, 0, 62, 64
2, 4068, Note_on_c, 0, 60, 44
2, 4073, Note_on_c, 0, 63, 73
2, 4073, Note_on_c, 0, 51, 47
2, 4078, Note_on_c, 0, 56, 52
2, 4085, Control_c, 0, 64, 0
2, 4085, Control_c, 0, 64, 0
2, 4101, Note_off_c, 0, 65, 64
2, 4131, Note_off_c, 0, 60, 64
2, 4136, Note_off_c, 0, 51, 64
2, 4136, Control_c, 0, 64, 127
2, 4136, Control_c, 0, 64, 127
2, 4141, Note_off_c, 0, 56, 64
2, 4187, Note_on_c, 0, 62, 69
2, 4203, Note_off_c, 0, 63, 64
2, 4278, Note_on_c, 0, 63, 66
2, 4279, Note_on_c, 0, 60, 65
2, 4284, Note_on_c, 0, 51, 42
2, 4285, Note_on_c, 0, 56, 50
2, 4291, Control_c, 0, 64, 0
2, 4291, Control_c, 0, 64, 0
2, 4315, Note_off_c, 0, 62, 64
2, 4328, Control_c, 0, 64, 127
2, 4328, Control_c, 0, 64, 127
2, 4342, Note_off_c, 0, 60, 64
2, 4347, Note_off_c, 0, 51, 64
2, 4348, Note_off_c, 0, 56, 64
2, 4445, Control_c, 0, 64, 0
2, 4445, Control_c, 0, 64, 0
2, 4534, Note_on_c, 0, 68, 77
2, 4534, Note_on_c, 0, 32, 71
2, 4548, Control_c, 0, 64, 0
2, 4548, Control_c, 0, 64, 0
2, 4594, Control_c, 0, 64, 127
2, 4594, Control_c, 0, 64, 127
2, 4595, Note_off_c, 0, 63, 64
2, 4638, Note_on_c, 0, 72, 66
2, 4663, Note_off_c, 0, 68, 64
2, 4695, Note_off_c, 0, 32, 64
2, 4728, Note_on_c, 0, 63, 44
2, 4728, Note_on_c, 0, 60, 46
2, 4730, Note_on_c, 0, 75, 66
2, 4733, Note_on_c, 0, 51, 46
2, 4750, Control_c, 0, 64, 0
2, 4750, Control_c, 0, 64, 0
2, 4756, Note_off_c, 0, 72, 64
2, 4766, Control_c, 0, 64, 127
2, 4766, Control_c, 0, 64, 127
2, 4791, Note_off_c, 0, 60, 64
2, 4791, Note_off_c, 0, 63, 64
2, 4796, Note_off_c, 0, 51, 64
2, 4803, Note_on_c, 0, 76, 56
2, 4856, Note_off_c, 0, 75, 64
2, 4890, Note_on_c, 0, 77, 63
2, 4890, Note_on_c, 0, 63, 62
2, 4895, Note_on_c, 0, 61, 56
2, 4898, Note_on_c, 0, 51, 59
2, 4913, Note_off_c, 0, 76, 64
2, 4953, Note_off_c, 0, 63, 64
2, 4956, Note_on_c, 0, 67, 70
2, 4958, Note_off_c, 0, 61, 64
2, 4961, Note_off_c, 0, 51, 64
2, 4994, Note_off_c, 0, 77, 64
2, 5037, Note_on_c, 0, 44, 71
2, 5040, Note_on_c, 0, 68, 77
2, 5050, Control_c, 0, 64, 0
2, 5050, Control_c, 0, 64, 0
2, 5066, Note_off_c, 0, 67, 64
2, 5074, Control_c, 0, 64, 127
2, 5074, Control_c, 0, 64, 127
2, 5114, Note_on_c, 0, 72, 63
2, 5135, Note_off_c, 0, 68, 64
2, 5148, Note_on_c, 0, 77, 62
2, 5177, Note_off_c, 0, 72, 64
2, 5185, Note_on_c, 0, 66, 59
2, 5189, Note_on_c, 0, 56, 46
2, 5189, Control_c, 0, 64, 0
2, 5189, Control_c, 0, 64, 0
2, 5197, Note_on_c, 0, 75, 74
2, 5198, Note_off_c, 0, 44, 64
2, 5199, Note_on_c, 0, 60, 49
2, 5214, Note_off_c, 0, 77, 64
2, 5245, Control_c, 0, 64, 127
2, 5245, Control_c, 0, 64, 127
2, 5248, Note_off_c, 0, 66, 64
2, 5252, Note_off_c, 0, 56, 64
2, 5262, Note_off_c, 0, 60, 64
2, 5273, Note_on_c, 0, 74, 69
2, 5295, Note_off_c, 0, 75, 64
2, 5360, Note_on_c, 0, 60, 49
2, 5360, Note_on_c, 0, 56, 46
2, 5363, Control_c, 0, 64, 0
2, 5363, Control_c, 0, 64, 0
2, 5368, Note_on_c, 0, 75, 74
2, 5375, Note_on_c, 0, 66, 62
2, 5391, Note_off_c, 0, 74, 64
2, 5411, Control_c, 0, 64, 127
2, 5411, Control_c, 0, 64, 127
2, 5423, Note_off_c, 0, 56, 64
2, 5423, Note_off_c, 0, 60, 64
2, 5438, Note_off_c, 0, 66, 64
2, 5545, Note_on_c, 0, 49, 57
2, 5551, Note_on_c, 0, 73, 73
2, 5559, Note_off_c, 0, 75, 64
2, 5561, Control_c, 0, 64, 0
2, 5561, Control_c, 0, 64, 0
2, 5594, Control_c, 0, 64, 127
2, 5594, Control_c, 0, 64, 127
2, 5638, Note_on_c, 0, 77, 56
2, 5668, Note_off_c, 0, 73, 64
2, 5703, Note_on_c, 0, 56, 47
2, 5706, Note_off_c, 0, 49, 64
2, 5712, Note_on_c, 0, 65, 58
2, 5713, Note_on_c, 0, 61, 50
2, 5724, Control_c, 0, 64, 0
2, 5724, Control_c, 0, 64, 0
2, 5729, Note_on_c, 0, 79, 73
2, 5739, Control_c, 0, 64, 127
2, 5739, Control_c, 0, 64, 127
2, 5749, Note_off_c, 0, 77, 64
2, 5766, Note_off_c, 0, 56, 64
2, 5775, Note_off_c, 0, 65, 64
2, 5776, Note_off_c, 0, 61, 64
2, 5788, Note_on_c, 0, 82, 73
2, 5801, Note_off_c, 0, 79, 64
2, 5862, Note_on_c, 0, 80, 73
2, 5865, Note_on_c, 0, 65, 55
2, 5872, Note_on_c, 0, 61, 33
2, 5872, Note_on_c, 0, 56, 39
2, 5877, Note_off_c, 0, 82, 64
2, 5928, Note_off_c, 0, 65, 64
2, 5935, Note_off_c, 0, 56, 64
2, 5935, Note_off_c, 0, 61, 64
2, 5946, Note_on_c, 0, 77, 73
2, 5965, Note_off_c, 0, 80, 64
2, 5999, Note_on_c, 0, 46, 73
2, 6010, Control_c, 0, 64, 0
2, 6010, Control_c, 0, 64, 0
2, 6016, Note_on_c, 0, 73, 69
2, 6024, Control_c, 0, 64, 127
2, 6024, Control_c, 0, 64, 127
2, 6040, Note_off_c, 0, 77, 64
2, 6076, Note_on_c, 0, 76, 62
2, 6087, Note_off_c, 0, 73, 64
2, 6117, Note_on_c, 0, 79, 57
2, 6140, Note_on_c, 0, 56, 58
2, 6144, Note_on_c, 0, 61, 63
2, 6145, Note_on_c, 0, 65, 57
2, 6148, Note_off_c, 0, 76, 64
2, 6152, Note_on_c, 0, 77, 64
2, 6158, Control_c, 0, 64, 0
2, 6158, Control_c, 0, 64, 0
2, 6160, Note_off_c, 0, 46, 64
2, 6199, Note_off_c, 0, 79, 64
2, 6203, Note_off_c, 0, 56, 64
2, 6207, Note_off_c, 0, 61, 64
2, 6208, Note_off_c, 0, 65, 64
2, 6251, Note_on_c, 0, 76, 63
2, 6265, Note_off_c, 0, 77, 64
2, 6274, Control_c, 0, 64, 127
2, 6274, Control_c, 0, 64, 127
2, 6333, Note_on_c, 0, 65, 62
2, 6340, Note_on_c, 0, 61, 50
2, 6340, Note_on_c, 0, 56, 51
2, 6347, Note_on_c, 0, 77, 74
2, 6363, Note_off_c, 0, 76, 64
2, 6396, Note_off_c, 0, 65, 64
2, 6403, Note_off_c, 0, 56, 64
2, 6403, Note_off_c, 0, 61, 64
2, 6514, Control_c, 0, 64, 0
2, 6514, Control_c, 0, 64, 0
2, 6520, Note_on_c, 0, 51, 59
2, 6528, Note_on_c, 0, 67, 63
2, 6532, Note_off_c, 0, 77, 64
2, 6562, Control_c, 0, 64, 127
2, 6562, Control_c, 0, 64, 127
2, 6592, Note_on_c, 0, 68, 67
2, 6621, Note_off_c, 0, 67, 64
2, 6649, Control_c, 0, 64, 0
2, 6649, Control_c, 0, 64, 0
2, 6667, Note_on_c, 0, 63, 57
2, 6667, Note_on_c, 0, 61, 52
2, 6672, Note_on_c, 0, 55, 49
2, 6681, Note_off_c, 0, 51, 64
2, 6681, Note_on_c, 0, 70, 55
2, 6690, Control_c, 0, 64, 127
2, 6690, Control_c, 0, 64, 127
2, 6697, Note_off_c, 0, 68, 64
2, 6730, Note_off_c, 0, 61, 64
2, 6730, Note_off_c, 0, 63, 64
2, 6735, Note_off_c, 0, 55, 64
2, 6749, Note_on_c, 0, 72, 59
2, 6756, Note_off_c, 0, 70, 64
2, 6816, Note_on_c, 0, 63, 49
2, 6816, Note_on_c, 0, 61, 40
2, 6818, Note_on_c, 0, 55, 49
2, 6825, Note_on_c, 0, 73, 69
2, 6846, Note_off_c, 0, 72, 64
2, 6879, Note_off_c, 0, 61, 64
2, 6879, Note_off_c, 0, 63, 64
2, 6881, Note_off_c, 0, 55, 64
2, 6886, Note_on_c, 0, 71, 62
2, 6908, Note_off_c, 0, 73, 64
2, 6962, Control_c, 0, 64, 0
2, 6962, Control_c, 0, 64, 0
2, 6969, Note_on_c, 0, 44, 67
2, 6973, Note_on_c, 0, 72, 64
2, 6992, Note_off_c, 0, 71, 64
2, 7008, Control_c, 0, 64, 127
2, 7008, Control_c, 0, 64, 127
2, 7064, Note_on_c, 0, 62, 62
2, 7093, Note_off_c, 0, 72, 64
2, 7104, Note_on_c, 0, 65, 74
2, 7119, Note_off_c, 0, 62, 64
2, 7120, Control_c, 0, 64, 0
2, 7120, Control_c, 0, 64, 0
2, 7127, Note_on_c, 0, 56, 49
2, 7128, Note_on_c, 0, 51, 33
2, 7129, Note_on_c, 0, 60, 48
2, 7130, Note_off_c, 0, 44, 64
2, 7139, Note_on_c, 0, 63, 73
2, 7165, Note_off_c, 0, 65, 64
2, 7175, Control_c, 0, 64, 127
2, 7175, Control_c, 0, 64, 127
2, 7190, Note_off_c, 0, 56, 64
2, 7191, Note_off_c, 0, 51, 64
2, 7192, Note_off_c, 0, 60, 64
2, 7210, Note_on_c, 0, 62, 74
2, 7226, Note_off_c, 0, 63, 64
2, 7277, Note_on_c, 0, 51, 41
2, 7287, Note_on_c, 0, 63, 82
2, 7291, Note_on_c, 0, 60, 40
2, 7292, Note_on_c, 0, 56, 23
2, 7300, Note_off_c, 0, 62, 64
2, 7340, Note_off_c, 0, 51, 64
2, 7354, Note_off_c, 0, 60, 64
2, 7355, Note_off_c, 0, 56, 64
2, 7466, Note_on_c, 0, 39, 57
2, 7475, Note_on_c, 0, 70, 69
2, 7475, Note_on_c, 0, 67, 60
2, 7492, Note_off_c, 0, 63, 64
2, 7552, Note_on_c, 0, 72, 69
2, 7558, Note_on_c, 0, 68, 73
2, 7573, Note_off_c, 0, 67, 64
2, 7573, Note_off_c, 0, 70, 64
2, 7627, Note_off_c, 0, 39, 64
2, 7635, Control_c, 0, 64, 0
2, 7635, Control_c, 0, 64, 0
2, 7644, Note_on_c, 0, 70, 66
2, 7647, Note_on_c, 0, 73, 60
2, 7652, Note_on_c, 0, 63, 46
2, 7652, Note_on_c, 0, 61, 58
2, 7652, Note_on_c, 0, 51, 57
2, 7660, Note_off_c, 0, 72, 64
2, 7666, Note_off_c, 0, 68, 64
2, 7678, Control_c, 0, 64, 127
2, 7678, Control_c, 0, 64, 127
2, 7715, Note_off_c, 0, 51, 64
2, 7715, Note_off_c, 0, 61, 64
2, 7715, Note_off_c, 0, 63, 64
2, 7724, Note_on_c, 0, 72, 69
2, 7728, Note_off_c, 0, 70, 64
2, 7728, Note_on_c, 0, 75, 69
2, 7731, Note_off_c, 0, 73, 64
2, 7800, Note_on_c, 0, 77, 66
2, 7800, Note_on_c, 0, 73, 66
2, 7800, Note_on_c, 0, 63, 59
2, 7800, Note_on_c, 0, 61, 62
2, 7800, Note_on_c, 0, 51, 57
2, 7822, Note_off_c, 0, 72, 64
2, 7826, Note_off_c, 0, 75, 64
2, 7863, Note_off_c, 0, 51, 64
2, 7863, Note_off_c, 0, 61, 64
2, 7863, Note_off_c, 0, 63, 64
2, 7872, Note_on_c, 0, 74, 43
2, 7875, Note_on_c, 0, 71, 67
2, 7886, Note_off_c, 0, 73, 64
2, 7892, Note_off_c, 0, 77, 64
2, 7951, Note_on_c, 0, 44, 54
2, 7952, Note_on_c, 0, 75, 65
2, 7954, Note_off_c, 0, 71, 64
2, 7959, Note_off_c, 0, 74, 64
2, 7959, Note_on_c, 0, 72, 64
2, 7966, Control_c, 0, 64, 0
2, 7966, Control_c, 0, 64, 0
2, 8005, Control_c, 0, 64, 127
2, 8005, Control_c, 0, 64, 127
2, 8053, Note_off_c, 0, 72, 64
2, 8061, Note_off_c, 0, 75, 64
2, 8076, Note_on_c, 0, 62, 71
2, 8110, Note_on_c, 0, 65, 64
2, 8112, Note_off_c, 0, 44, 64
2, 8148, Note_off_c, 0, 62, 64
2, 8148, Note_on_c, 0, 60, 46
2, 8150, Control_c, 0, 64, 0
2, 8150, Control_c, 0, 64, 0
2, 8152, Note_on_c, 0, 51, 29
2, 8156, Note_on_c, 0, 63, 63
2, 8156, Note_on_c, 0, 56, 56
2, 8188, Note_off_c, 0, 65, 64
2, 8202, Control_c, 0, 64, 127
2, 8202, Control_c, 0, 64, 127
2, 8211, Note_off_c, 0, 60, 64
2, 8215, Note_off_c, 0, 51, 64
2, 8219, Note_off_c, 0, 56, 64
2, 8241, Note_on_c, 0, 62, 69
2, 8259, Note_off_c, 0, 63, 64
2, 8328, Note_on_c, 0, 56, 46
2, 8329, Note_on_c, 0, 63, 65
2, 8335, Note_on_c, 0, 60, 51
2, 8337, Note_on_c, 0, 51, 57
2, 8350, Control_c, 0, 64, 0
2, 8350, Control_c, 0, 64, 0
2, 8359, Note_off_c, 0, 62, 64
2, 8398, Note_off_c, 0, 60, 64
2, 8400, Note_off_c, 0, 51, 64
2, 8404, Control_c, 0, 64, 127
2, 8404, Control_c, 0, 64, 127
2, 8570, Note_on_c, 0, 65, 63
2, 8580, Note_on_c, 0, 49, 56
2, 8610, Control_c, 0, 64, 0
2, 8610, Control_c, 0, 64, 0
2, 8673, Control_c, 0, 64, 127
2, 8673, Control_c, 0, 64, 127
2, 8801, Note_on_c, 0, 58, 50
2, 8802, Note_on_c, 0, 61, 55
2, 8825, Note_off_c, 0, 56, 64
2, 8826, Note_off_c, 0, 63, 64
2, 8830, Control_c, 0, 64, 0
2, 8830, Control_c, 0, 64, 0
2, 8870, Control_c, 0, 64, 127
2, 8870, Control_c, 0, 64, 127
2, 8987, Note_on_c, 0, 51, 58
2, 8992, Note_on_c, 0, 67, 56
2, 9002, Note_off_c, 0, 49, 64
2, 9002, Control_c, 0, 64, 0
2, 9002, Control_c, 0, 64, 0
2, 9015, Note_off_c, 0, 65, 64
2, 9050, Control_c, 0, 64, 127
2, 9050, Control_c, 0, 64, 127
2, 9177, Note_on_c, 0, 60, 62
2, 9177, Control_c, 0, 64, 0
2, 9177, Control_c, 0, 64, 0
2, 9184, Note_on_c, 0, 44, 62
2, 9193, Note_off_c, 0, 58, 64
2, 9194, Note_off_c, 0, 61, 64
2, 9214, Control_c, 0, 64, 127
2, 9214, Control_c, 0, 64, 127
2, 9304, Note_off_c, 0, 44, 64
2, 9306, Note_off_c, 0, 51, 64
2, 9307, Note_off_c, 0, 67, 64
2, 9311, Note_on_c, 0, 68, 62
2, 9359, Note_off_c, 0, 68, 64
2, 9371, Note_on_c, 0, 68, 70
2, 9448, Note_on_c, 0, 70, 64
2, 9478, Note_off_c, 0, 68, 64
2, 9540, Note_on_c, 0, 72, 65
2, 9540, Note_on_c, 0, 66, 62
2, 9540, Note_on_c, 0, 63, 55
2, 9547, Note_on_c, 0, 56, 56
2, 9550, Control_c, 0, 64, 0
2, 9550, Control_c, 0, 64, 0
2, 9560, Note_off_c, 0, 70, 64
2, 9560, Note_off_c, 0, 60, 64
2, 9597, Control_c, 0, 64, 127
2, 9597, Control_c, 0, 64, 127
2, 9718, Note_off_c, 0, 63, 64
2, 9728, Note_on_c, 0, 65, 62
2, 9734, Note_on_c, 0, 49, 59
2, 9748, Control_c, 0, 64, 0
2, 9748, Control_c, 0, 64, 0
2, 9784, Note_off_c, 0, 66, 64
2, 9791, Control_c, 0, 64, 127
2, 9791, Control_c, 0, 64, 127
2, 9826, Note_on_c, 0, 73, 58
2, 9843, Note_off_c, 0, 72, 64
2, 9917, Note_on_c, 0, 72, 69
2, 9919, Note_off_c, 0, 73, 64
2, 10056, Note_off_c, 0, 56, 64
2, 10069, Note_off_c, 0, 49, 64
2, 10094, Note_on_c, 0, 51, 58
2, 10100, Note_on_c, 0, 67, 50
2, 10103, Note_on_c, 0, 61, 57
2, 10110, Control_c, 0, 64, 0
2, 10110, Control_c, 0, 64, 0
2, 10119, Note_off_c, 0, 65, 64
2, 10146, Control_c, 0, 64, 127
2, 10146, Control_c, 0, 64, 127
2, 10166, Note_off_c, 0, 72, 64
2, 10185, Note_on_c, 0, 70, 58
2, 10272, Note_off_c, 0, 51, 64
2, 10280, Note_on_c, 0, 56, 56
2, 10281, Note_off_c, 0, 61, 64
2, 10284, Note_on_c, 0, 65, 55
2, 10286, Note_off_c, 0, 67, 64
2, 10286, Note_on_c, 0, 73, 50
2, 10296, Control_c, 0, 64, 0
2, 10296, Control_c, 0, 64, 0
2, 10306, Note_off_c, 0, 70, 64
2, 10326, Control_c, 0, 64, 127
2, 10326, Control_c, 0, 64, 127
2, 10384, Note_on_c, 0, 72, 50
2, 10389, Note_on_c, 0, 63, 62
2, 10399, Note_off_c, 0, 65, 64
2, 10401, Note_off_c, 0, 73, 64
2, 10444, Note_off_c, 0, 72, 64
2, 10449, Note_off_c, 0, 63, 64
2, 10460, Note_on_c, 0, 73, 69
2, 10483, Note_on_c, 0, 63, 56
2, 10486, Note_on_c, 0, 72, 66
2, 10507, Control_c, 0, 64, 0
2, 10507, Control_c, 0, 64, 0
2, 10514, Note_off_c, 0, 73, 64
2, 10544, Control_c, 0, 64, 127
2, 10544, Control_c, 0, 64, 127
2, 10565, Note_on_c, 0, 62, 52
2, 10573, Note_off_c, 0, 63, 64
2, 10576, Note_on_c, 0, 71, 65
2, 10603, Note_off_c, 0, 72, 64
2, 10687, Note_on_c, 0, 72, 64
2, 10691, Note_on_c, 0, 63, 64
2, 10702, Control_c, 0, 64, 0
2, 10702, Control_c, 0, 64, 0
2, 10710, Note_off_c, 0, 62, 64
2, 10721, Note_off_c, 0, 71, 64
2, 10760, Control_c, 0, 64, 127
2, 10760, Control_c, 0, 64, 127
2, 10766, Note_off_c, 0, 56, 64
2, 10922, Note_on_c, 0, 65, 63
2, 10925, Note_on_c, 0, 49, 56
2, 10936, Note_off_c, 0, 72, 64
2, 10948, Control_c, 0, 64, 0
2, 10948, Control_c, 0, 64, 0
2, 11024, Control_c, 0, 64, 127
2, 11024, Control_c, 0, 64, 127
2, 11118, Note_on_c, 0, 61, 46
2, 11126, Note_on_c, 0, 58, 49
2, 11136, Note_off_c, 0, 63, 64
2, 11162, Control_c, 0, 64, 0
2, 11162, Control_c, 0, 64, 0
2, 11172, Control_c, 0, 64, 127
2, 11172, Control_c, 0, 64, 127
2, 11315, Note_on_c, 0, 67, 62
2, 11325, Control_c, 0, 64, 0
2, 11325, Control_c, 0, 64, 0
2, 11331, Note_on_c, 0, 51, 29
2, 11335, Note_off_c, 0, 65, 64
2, 11338, Note_off_c, 0, 49, 64
2, 11384, Control_c, 0, 64, 127
2, 11384, Control_c, 0, 64, 127
2, 11483, Note_on_c, 0, 44, 63
2, 11489, Note_on_c, 0, 60, 62
2, 11489, Control_c, 0, 64, 0
2, 11489, Control_c, 0, 64, 0
2, 11529, Control_c, 0, 64, 127
2, 11529, Control_c, 0, 64, 127
2, 11538, Note_off_c, 0, 61, 64
2, 11546, Note_off_c, 0, 58, 64
2, 11604, Note_on_c, 0, 68, 71
2, 11619, Note_off_c, 0, 67, 64
2, 11649, Note_off_c, 0, 68, 64
2, 11674, Note_on_c, 0, 68, 62
2, 11710, Note_off_c, 0, 44, 64
2, 11718, Note_off_c, 0, 51, 64
2, 11752, Note_on_c, 0, 70, 58
2, 11773, Note_off_c, 0, 68, 64
2, 11848, Note_on_c, 0, 44, 59
2, 11854, Note_on_c, 0, 72, 67
2, 11856, Note_on_c, 0, 62, 73
2, 11863, Note_off_c, 0, 70, 64
2, 11863, Note_on_c, 0, 53, 58
2, 11865, Control_c, 0, 64, 0
2, 11865, Control_c, 0, 64, 0
2, 11877, Note_off_c, 0, 60, 64
2, 11907, Control_c, 0, 64, 127
2, 11907, Control_c, 0, 64, 127
2, 12048, Note_on_c, 0, 63, 67
2, 12060, Control_c, 0, 64, 0
2, 12060, Control_c, 0, 64, 0
2, 12065, Note_on_c, 0, 55, 47
2, 12065, Note_on_c, 0, 43, 48
2, 12082, Note_off_c, 0, 44, 64
2, 12087, Control_c, 0, 64, 127
2, 12087, Control_c, 0, 64, 127
2, 12090, Note_off_c, 0, 62, 64
2, 12097, Note_off_c, 0, 53, 64
2, 12157, Note_off_c, 0, 72, 64
2, 12158, Note_on_c, 0, 74, 62
2, 12260, Note_on_c, 0, 71, 59
2, 12266, Note_on_c, 0, 62, 65
2, 12268, Note_off_c, 0, 74, 64
2, 12283, Control_c, 0, 64, 0
2, 12283, Control_c, 0, 64, 0
2, 12288, Note_off_c, 0, 63, 64
2, 12316, Control_c, 0, 64, 127
2, 12316, Control_c, 0, 64, 127
2, 12351, Note_off_c, 0, 62, 64
2, 12439, Note_off_c, 0, 43, 64
2, 12439, Note_off_c, 0, 55, 64
2, 12464, Note_on_c, 0, 65, 64
2, 12466, Note_on_c, 0, 62, 47
2, 12471, Note_on_c, 0, 55, 55
2, 12480, Control_c, 0, 64, 0
2, 12480, Control_c, 0, 64, 0
2, 12516, Control_c, 0, 64, 127
2, 12516, Control_c, 0, 64, 127
2, 12571, Note_on_c, 0, 67, 56
2, 12582, Note_off_c, 0, 62, 64
2, 12584, Note_off_c, 0, 65, 64
2, 12588, Note_off_c, 0, 55, 64
2, 12680, Note_on_c, 0, 55, 32
2, 12680, Note_on_c, 0, 48, 41
2, 12682, Note_on_c, 0, 63, 74
2, 12684, Note_off_c, 0, 67, 64
2, 12686, Note_on_c, 0, 74, 59
2, 12692, Note_off_c, 0, 71, 64
2, 12706, Control_c, 0, 64, 0
2, 12706, Control_c, 0, 64, 0
2, 12738, Control_c, 0, 64, 127
2, 12738, Control_c, 0, 64, 127
2, 12803, Note_on_c, 0, 75, 58
2, 12820, Note_off_c, 0, 74, 64
2, 12860, Note_on_c, 0, 50, 64
2, 12866, Note_off_c, 0, 48, 64
2, 12879, Note_off_c, 0, 63, 64
2, 12934, Note_on_c, 0, 53, 41
2, 12941, Note_on_c, 0, 72, 59
2, 12944, Note_off_c, 0, 75, 64
2, 12945, Note_on_c, 0, 63, 56
2, 12953, Note_off_c, 0, 50, 64
2, 12986, Control_c, 0, 64, 0
2, 12986, Control_c, 0, 64, 0
2, 13050, Control_c, 0, 64, 127
2, 13050, Control_c, 0, 64, 127
2, 13177, Note_on_c, 0, 51, 62
2, 13203, Note_off_c, 0, 53, 64
2, 13214, Control_c, 0, 64, 0
2, 13214, Control_c, 0, 64, 0
2, 13237, Control_c, 0, 64, 127
2, 13237, Control_c, 0, 64, 127
2, 13238, Note_off_c, 0, 55, 64
2, 13248, Note_off_c, 0, 72, 64
2, 13281, Note_on_c, 0, 50, 41
2, 13301, Note_off_c, 0, 51, 64
2, 13419, Note_on_c, 0, 49, 65
2, 13426, Note_on_c, 0, 65, 63
2, 13432, Note_off_c, 0, 50, 64
2, 13435, Note_off_c, 0, 63, 64
2, 13456, Control_c, 0, 64, 0
2, 13456, Control_c, 0, 64, 0
2, 13539, Control_c, 0, 64, 127
2, 13539, Control_c, 0, 64, 127
2, 13644, Note_on_c, 0, 61, 55
2, 13644, Note_on_c, 0, 58, 50
2, 13667, Control_c, 0, 64, 0
2, 13667, Control_c, 0, 64, 0
2, 13730, Control_c, 0, 64, 127
2, 13730, Control_c, 0, 64, 127
2, 13834, Note_on_c, 0, 51, 57
2, 13838, Note_on_c, 0, 67, 56
2, 13849, Control_c, 0, 64, 0
2, 13849, Control_c, 0, 64, 0
2, 13852, Note_off_c, 0, 49, 64
2, 13852, Note_off_c, 0, 65, 64
2, 13917, Control_c, 0, 64, 127
2, 13917, Control_c, 0, 64, 127
2, 14014, Note_on_c, 0, 44, 55
2, 14021, Note_on_c, 0, 60, 64
2, 14046, Note_off_c, 0, 58, 64
2, 14046, Note_off_c, 0, 61, 64
2, 14136, Note_on_c, 0, 68, 58
2, 14143, Note_off_c, 0, 67, 64
2, 14162, Control_c, 0, 64, 0
2, 14162, Control_c, 0, 64, 0
2, 14190, Note_off_c, 0, 68, 64
2, 14200, Note_on_c, 0, 68, 64
2, 14221, Control_c, 0, 64, 127
2, 14221, Control_c, 0, 64, 127
2, 14264, Note_off_c, 0, 51, 64
2, 14268, Note_off_c, 0, 44, 64
2, 14293, Note_on_c, 0, 70, 64
2, 14319, Note_off_c, 0, 68, 64
2, 14384, Note_on_c, 0, 72, 64
2, 14388, Note_on_c, 0, 66, 46
2, 14388, Note_on_c, 0, 63, 47
2, 14394, Note_off_c, 0, 70, 64
2, 14395, Note_on_c, 0, 56, 50
2, 14404, Control_c, 0, 64, 0
2, 14404, Control_c, 0, 64, 0
2, 14405, Note_off_c, 0, 60, 64
2, 14461, Control_c, 0, 64, 127
2, 14461, Control_c, 0, 64, 127
2, 14583, Note_on_c, 0, 65, 55
2, 14587, Note_on_c, 0, 49, 55
2, 14594, Control_c, 0, 64, 0
2, 14594, Control_c, 0, 64, 0
2, 14634, Note_off_c, 0, 66, 64
2, 14636, Note_off_c, 0, 63, 64
2, 14647, Control_c, 0, 64, 127
2, 14647, Control_c, 0, 64, 127
2, 14669, Note_on_c, 0, 73, 62
2, 14681, Note_off_c, 0, 72, 64
2, 14764, Control_c, 0, 64, 0
2, 14764, Control_c, 0, 64, 0
2, 14770, Note_on_c, 0, 72, 71
2, 14786, Note_off_c, 0, 73, 64
2, 14800, Note_off_c, 0, 65, 64
2, 14810, Control_c, 0, 64, 127
2, 14810, Control_c, 0, 64, 127
2, 14944, Note_on_c, 0, 51, 58
2, 14948, Control_c, 0, 64, 0
2, 14948, Control_c, 0, 64, 0
2, 14952, Note_off_c, 0, 56, 64
2, 14954, Note_on_c, 0, 61, 57
2, 14955, Note_on_c, 0, 67, 49
2, 14963, Note_off_c, 0, 49, 64
2, 14999, Control_c, 0, 64, 127
2, 14999, Control_c, 0, 64, 127
2, 15044, Note_on_c, 0, 70, 47
2, 15058, Note_off_c, 0, 72, 64
2, 15111, Note_off_c, 0, 51, 64
2, 15121, Note_off_c, 0, 61, 64
2, 15122, Note_off_c, 0, 67, 64
2, 15144, Control_c, 0, 64, 0
2, 15144, Control_c, 0, 64, 0
2, 15152, Note_on_c, 0, 56, 48
2, 15156, Note_on_c, 0, 73, 62
2, 15156, Note_on_c, 0, 65, 42
2, 15175, Note_off_c, 0, 70, 64
2, 15189, Control_c, 0, 64, 127
2, 15189, Control_c, 0, 64, 127
2, 15248, Note_on_c, 0, 63, 62
2, 15254, Note_on_c, 0, 72, 39
2, 15280, Note_off_c, 0, 65, 64
2, 15280, Note_off_c, 0, 73, 64
2, 15306, Note_off_c, 0, 63, 64
2, 15312, Note_off_c, 0, 72, 64
2, 15328, Note_on_c, 0, 73, 62
2, 15356, Note_on_c, 0, 63, 55
2, 15360, Note_on_c, 0, 72, 57
2, 15382, Note_off_c, 0, 73, 64
2, 15450, Note_on_c, 0, 71, 58
2, 15450, Note_on_c, 0, 62, 51
2, 15461, Note_off_c, 0, 72, 64
2, 15462, Note_off_c, 0, 63, 64
2, 15488, Control_c, 0, 64, 0
2, 15488, Control_c, 0, 64, 0
2, 15556, Note_on_c, 0, 72, 54
2, 15560, Note_on_c, 0, 63, 47
2, 15568, Note_off_c, 0, 71, 64
2, 15586, Control_c, 0, 64, 127
2, 15586, Control_c, 0, 64, 127
2, 15589, Note_off_c, 0, 62, 64
2, 15685, Note_off_c, 0, 56, 64
2, 15829, Note_on_c, 0, 49, 55
2, 15831, Note_on_c, 0, 65, 63
2, 15851, Note_off_c, 0, 72, 64
2, 15859, Control_c, 0, 64, 0
2, 15859, Control_c, 0, 64, 0
2, 15922, Control_c, 0, 64, 127
2, 15922, Control_c, 0, 64, 127
2, 16040, Note_on_c, 0, 61, 51
2, 16040, Note_on_c, 0, 58, 48
2, 16072, Note_off_c, 0, 63, 64
2, 16086, Control_c, 0, 64, 0
2, 16086, Control_c, 0, 64, 0
2, 16127, Control_c, 0, 64, 127
2, 16127, Control_c, 0, 64, 127
2, 16224, Note_on_c, 0, 51, 35
2, 16230, Note_on_c, 0, 67, 52
2, 16253, Note_off_c, 0, 65, 64
2, 16256, Note_off_c, 0, 49, 64
2, 16261, Control_c, 0, 64, 0
2, 16261, Control_c, 0, 64, 0
2, 16336, Control_c, 0, 64, 127
2, 16336, Control_c, 0, 64, 127
2, 16404, Note_on_c, 0, 60, 54
2, 16404, Note_on_c, 0, 44, 57
2, 16426, Note_off_c, 0, 58, 64
2, 16426, Note_off_c, 0, 61, 64
2, 16524, Note_on_c, 0, 68, 65
2, 16530, Note_off_c, 0, 67, 64
2, 16561, Note_off_c, 0, 68, 64
2, 16581, Note_on_c, 0, 68, 58
2, 16590, Note_off_c, 0, 51, 64
2, 16591, Note_off_c, 0, 44, 64
2, 16655, Note_on_c, 0, 70, 57
2, 16676, Note_off_c, 0, 68, 64
2, 16747, Control_c, 0, 64, 0
2, 16747, Control_c, 0, 64, 0
2, 16752, Note_on_c, 0, 53, 49
2, 16752, Note_on_c, 0, 44, 49
2, 16756, Note_on_c, 0, 72, 67
2, 16756, Note_on_c, 0, 62, 58
2, 16776, Note_off_c, 0, 70, 64
2, 16778, Note_off_c, 0, 60, 64
2, 16804, Control_c, 0, 64, 127
2, 16804, Control_c, 0, 64, 127
2, 16928, Note_on_c, 0, 55, 49
2, 16936, Note_on_c, 0, 63, 63
2, 16943, Note_on_c, 0, 43, 50
2, 16944, Note_off_c, 0, 44, 64
2, 16944, Note_off_c, 0, 53, 64
2, 16945, Control_c, 0, 64, 0
2, 16945, Control_c, 0, 64, 0
2, 16948, Note_off_c, 0, 62, 64
2, 16963, Control_c, 0, 64, 0
2, 16963, Control_c, 0, 64, 0
2, 16980, Control_c, 0, 64, 127
2, 16980, Control_c, 0, 64, 127
2, 17032, Note_on_c, 0, 74, 63
2, 17050, Note_off_c, 0, 72, 64
2, 17123, Note_on_c, 0, 71, 56
2, 17131, Note_on_c, 0, 62, 67
2, 17134, Note_off_c, 0, 74, 64
2, 17137, Control_c, 0, 64, 0
2, 17137, Control_c, 0, 64, 0
2, 17151, Note_off_c, 0, 63, 64
2, 17167, Control_c, 0, 64, 127
2, 17167, Control_c, 0, 64, 127
2, 17300, Note_off_c, 0, 62, 64
2, 17306, Note_off_c, 0, 55, 64
2, 17320, Note_on_c, 0, 65, 55
2, 17320, Note_on_c, 0, 55, 46
2, 17321, Note_off_c, 0, 43, 64
2, 17327, Note_on_c, 0, 62, 41
2, 17417, Note_on_c, 0, 67, 58
2, 17432, Note_off_c, 0, 65, 64
2, 17444, Note_off_c, 0, 71, 64
2, 17520, Note_off_c, 0, 62, 64
2, 17520, Note_off_c, 0, 55, 64
2, 17536, Note_on_c, 0, 55, 46
2, 17536, Note_on_c, 0, 48, 44
2, 17538, Note_on_c, 0, 74, 62
2, 17543, Control_c, 0, 64, 127
2, 17543, Control_c, 0, 64, 127
2, 17546, Note_on_c, 0, 63, 58
2, 17550, Control_c, 0, 64, 0
2, 17550, Control_c, 0, 64, 0
2, 17572, Note_off_c, 0, 67, 64
2, 17616, Control_c, 0, 64, 127
2, 17616, Control_c, 0, 64, 127
2, 17632, Note_on_c, 0, 75, 58
2, 17661, Note_off_c, 0, 74, 64
2, 17738, Control_c, 0, 64, 0
2, 17738, Control_c, 0, 64, 0
2, 17746, Control_c, 0, 64, 0
2, 17746, Control_c, 0, 64, 0
2, 17753, Note_on_c, 0, 72, 64
2, 17760, Note_off_c, 0, 75, 64
2, 17770, Control_c, 0, 64, 127
2, 17770, Control_c, 0, 64, 127
2, 17784, Control_c, 0, 64, 127
2, 17784, Control_c, 0, 64, 127
2, 17921, Note_off_c, 0, 48, 64
2, 17921, Note_off_c, 0, 55, 64
2, 17931, Note_off_c, 0, 63, 64
2, 17975, Note_on_c, 0, 63, 64
2, 17981, Note_on_c, 0, 55, 46
2, 17982, Note_on_c, 0, 48, 43
2, 17989, Control_c, 0, 64, 0
2, 17989, Control_c, 0, 64, 0
2, 18018, Control_c, 0, 64, 127
2, 18018, Control_c, 0, 64, 127
2, 18048, Note_off_c, 0, 72, 64
2, 18071, Note_on_c, 0, 75, 66
2, 18131, Note_off_c, 0, 75, 64
2, 18164, Control_c, 0, 64, 0
2, 18164, Control_c, 0, 64, 0
2, 18182, Note_on_c, 0, 75, 71
2, 18190, Control_c, 0, 64, 127
2, 18190, Control_c, 0, 64, 127
2, 18287, Control_c, 0, 64, 0
2, 18287, Control_c, 0, 64, 0
2, 18331, Note_off_c, 0, 63, 64
2, 18337, Note_off_c, 0, 55, 64
2, 18338, Note_off_c, 0, 48, 64
2, 18384, Note_on_c, 0, 59, 40
2, 18384, Note_on_c, 0, 55, 47
2, 18384, Note_on_c, 0, 48, 50
2, 18391, Note_on_c, 0, 65, 64
2, 18404, Control_c, 0, 64, 0
2, 18404, Control_c, 0, 64, 0
2, 18444, Control_c, 0, 64, 127
2, 18444, Control_c, 0, 64, 127
2, 18487, Note_on_c, 0, 67, 55
2, 18500, Note_off_c, 0, 65, 64
2, 18578, Note_off_c, 0, 48, 64
2, 18578, Note_off_c, 0, 55, 64
2, 18578, Note_off_c, 0, 59, 64
2, 18607, Control_c, 0, 64, 0
2, 18607, Control_c, 0, 64, 0
2, 18611, Note_on_c, 0, 65, 58
2, 18611, Note_on_c, 0, 48, 43
2, 18614, Note_on_c, 0, 59, 39
2, 18619, Note_on_c, 0, 55, 32
2, 18637, Note_off_c, 0, 75, 64
2, 18644, Note_off_c, 0, 67, 64
2, 18646, Control_c, 0, 64, 127
2, 18646, Control_c, 0, 64, 127
2, 18696, Note_on_c, 0, 75, 69
2, 18759, Control_c, 0, 64, 0
2, 18759, Control_c, 0, 64, 0
2, 18793, Control_c, 0, 64, 127
2, 18793, Control_c, 0, 64, 127
2, 18800, Note_on_c, 0, 74, 66
2, 18824, Note_off_c, 0, 75, 64
2, 18857, Note_off_c, 0, 48, 64
2, 18867, Note_off_c, 0, 65, 64
2, 18871, Note_off_c, 0, 55, 64
2, 18871, Note_off_c, 0, 59, 64
2, 18888, Note_on_c, 0, 65, 69
2, 18969, Control_c, 0, 64, 0
2, 18969, Control_c, 0, 64, 0
2, 18987, Note_on_c, 0, 63, 77
2, 18992, Note_on_c, 0, 60, 29
2, 18992, Note_on_c, 0, 55, 32
2, 18998, Note_on_c, 0, 48, 50
2, 18999, Note_off_c, 0, 65, 64
2, 19004, Control_c, 0, 64, 0
2, 19004, Control_c, 0, 64, 0
2, 19009, Control_c, 0, 64, 127
2, 19009, Control_c, 0, 64, 127
2, 19048, Control_c, 0, 64, 127
2, 19048, Control_c, 0, 64, 127
2, 19102, Note_off_c, 0, 55, 64
2, 19109, Note_off_c, 0, 60, 64
2, 19114, Note_off_c, 0, 48, 64
2, 19148, Note_off_c, 0, 63, 64
2, 19207, Note_on_c, 0, 63, 67
2, 19211, Note_on_c, 0, 72, 60
2, 19213, Note_off_c, 0, 74, 64
2, 19213, Note_on_c, 0, 60, 40
2, 19220, Note_on_c, 0, 55, 29
2, 19220, Note_on_c, 0, 48, 44
2, 19236, Control_c, 0, 64, 0
2, 19236, Control_c, 0, 64, 0
2, 19276, Control_c, 0, 64, 127
2, 19276, Control_c, 0, 64, 127
2, 19419, Note_on_c, 0, 75, 70
2, 19425, Note_on_c, 0, 67, 71
2, 19429, Note_off_c, 0, 72, 64
2, 19473, Note_off_c, 0, 63, 64
2, 19514, Note_on_c, 0, 68, 64
2, 19528, Note_off_c, 0, 67, 64
2, 19556, Note_off_c, 0, 48, 64
2, 19556, Note_off_c, 0, 55, 64
2, 19563, Note_off_c, 0, 60, 64
2, 19620, Note_on_c, 0, 67, 70
2, 19624, Note_on_c, 0, 48, 58
2, 19628, Note_on_c, 0, 55, 47
2, 19629, Note_on_c, 0, 59, 62
2, 19639, Note_off_c, 0, 68, 64
2, 19639, Control_c, 0, 64, 0
2, 19639, Control_c, 0, 64, 0
2, 19660, Control_c, 0, 64, 127
2, 19660, Control_c, 0, 64, 127
2, 19711, Note_on_c, 0, 68, 42
2, 19724, Note_off_c, 0, 67, 64
2, 19793, Note_off_c, 0, 59, 64
2, 19793, Note_off_c, 0, 48, 64
2, 19797, Note_off_c, 0, 55, 64
2, 19818, Note_on_c, 0, 59, 58
2, 19824, Note_on_c, 0, 55, 44
2, 19825, Note_on_c, 0, 48, 57
2, 19831, Note_on_c, 0, 65, 71
2, 19846, Note_off_c, 0, 68, 64
2, 19869, Control_c, 0, 64, 0
2, 19869, Control_c, 0, 64, 0
2, 19882, Control_c, 0, 64, 127
2, 19882, Control_c, 0, 64, 127
2, 19902, Note_off_c, 0, 75, 64
2, 19920, Note_on_c, 0, 75, 73
2, 20021, Note_on_c, 0, 74, 67
2, 20025, Control_c, 0, 64, 0
2, 20025, Control_c, 0, 64, 0
2, 20032, Note_off_c, 0, 75, 64
2, 20046, Control_c, 0, 64, 127
2, 20046, Control_c, 0, 64, 127
2, 20068, Control_c, 0, 64, 0
2, 20068, Control_c, 0, 64, 0
2, 20084, Note_off_c, 0, 65, 64
2, 20111, Note_on_c, 0, 65, 73
2, 20126, Control_c, 0, 64, 127
2, 20126, Control_c, 0, 64, 127
2, 20188, Note_off_c, 0, 59, 64
2, 20191, Note_off_c, 0, 48, 64
2, 20192, Note_off_c, 0, 55, 64
2, 20217, Note_on_c, 0, 72, 55
2, 20218, Note_on_c, 0, 63, 71
2, 20224, Note_on_c, 0, 48, 50
2, 20230, Note_on_c, 0, 60, 43
2, 20232, Note_on_c, 0, 55, 35
2, 20235, Note_off_c, 0, 65, 64
2, 20240, Note_off_c, 0, 74, 64
2, 20247, Control_c, 0, 64, 0
2, 20247, Control_c, 0, 64, 0
2, 20273, Control_c, 0, 64, 127
2, 20273, Control_c, 0, 64, 127
2, 20338, Note_off_c, 0, 55, 64
2, 20342, Note_off_c, 0, 60, 64
2, 20345, Note_off_c, 0, 48, 64
2, 20446, Note_on_c, 0, 60, 62
2, 20446, Note_on_c, 0, 55, 50
2, 20446, Note_on_c, 0, 48, 58
2, 20456, Control_c, 0, 64, 0
2, 20456, Control_c, 0, 64, 0
2, 20458, Control_c, 0, 64, 0
2, 20458, Control_c, 0, 64, 0
2, 20468, Control_c, 0, 64, 127
2, 20468, Control_c, 0, 64, 127
2, 20507, Control_c, 0, 64, 127
2, 20507, Control_c, 0, 64, 127
2, 20602, Control_c, 0, 64, 0
2, 20602, Control_c, 0, 64, 0
2, 20634, Note_off_c, 0, 60, 64
2, 20638, Control_c, 0, 64, 127
2, 20638, Control_c, 0, 64, 127
2, 20640, Note_off_c, 0, 55, 64
2, 20676, Note_off_c, 0, 48, 64
2, 20690, Control_c, 0, 64, 0
2, 20690, Control_c, 0, 64, 0
2, 20696, Note_on_c, 0, 75, 74
2, 20696, Note_on_c, 0, 36, 73
2, 20698, Note_on_c, 0, 43, 73
2, 20700, Note_off_c, 0, 63, 64
2, 20725, Note_off_c, 0, 72, 64
2, 20726, Control_c, 0, 64, 127
2, 20726, Control_c, 0, 64, 127
2, 20919, Note_on_c, 0, 67, 63
2, 20924, Note_on_c, 0, 59, 55
2, 20924, Note_on_c, 0, 55, 57
2, 20924, Note_on_c, 0, 48, 58
2, 20936, Note_off_c, 0, 36, 64
2, 20936, Control_c, 0, 64, 0
2, 20936, Control_c, 0, 64, 0
2, 20938, Note_off_c, 0, 43, 64
2, 20957, Control_c, 0, 64, 127
2, 20957, Control_c, 0, 64, 127
2, 21010, Note_on_c, 0, 68, 47
2, 21035, Note_off_c, 0, 67, 64
2, 21041, Control_c, 0, 64, 0
2, 21041, Control_c, 0, 64, 0
2, 21054, Control_c, 0, 64, 127
2, 21054, Control_c, 0, 64, 127
2, 21083, Note_off_c, 0, 48, 64
2, 21083, Note_off_c, 0, 55, 64
2, 21091, Note_off_c, 0, 59, 64
2, 21117, Note_on_c, 0, 65, 69
2, 21117, Note_on_c, 0, 48, 56
2, 21121, Note_on_c, 0, 59, 50
2, 21121, Note_on_c, 0, 55, 47
2, 21135, Control_c, 0, 64, 0
2, 21135, Control_c, 0, 64, 0
2, 21153, Note_off_c, 0, 75, 64
2, 21163, Note_off_c, 0, 68, 64
2, 21166, Control_c, 0, 64, 127
2, 21166, Control_c, 0, 64, 127
2, 21207, Note_on_c, 0, 75, 78
2, 21209, Control_c, 0, 64, 0
2, 21209, Control_c, 0, 64, 0
2, 21245, Control_c, 0, 64, 127
2, 21245, Control_c, 0, 64, 127
2, 21314, Note_on_c, 0, 74, 65
2, 21346, Note_off_c, 0, 75, 64
2, 21376, Note_off_c, 0, 65, 64
2, 21405, Note_on_c, 0, 65, 74
2, 21474, Note_off_c, 0, 48, 64
2, 21480, Note_off_c, 0, 59, 64
2, 21487, Note_off_c, 0, 55, 64
2, 21502, Note_on_c, 0, 63, 73
2, 21507, Note_on_c, 0, 60, 50
2, 21507, Note_on_c, 0, 48, 55
2, 21507, Control_c, 0, 64, 0
2, 21507, Control_c, 0, 64, 0
2, 21511, Note_off_c, 0, 65, 64
2, 21514, Note_on_c, 0, 55, 41
2, 21550, Control_c, 0, 64, 127
2, 21550, Control_c, 0, 64, 127
2, 21562, Control_c, 0, 64, 0
2, 21562, Control_c, 0, 64, 0
2, 21601, Control_c, 0, 64, 127
2, 21601, Control_c, 0, 64, 127
2, 21669, Note_off_c, 0, 63, 64
2, 21670, Note_off_c, 0, 48, 64
2, 21670, Note_off_c, 0, 60, 64
2, 21677, Note_off_c, 0, 55, 64
2, 21713, Note_on_c, 0, 72, 66
2, 21713, Note_on_c, 0, 63, 71
2, 21718, Note_on_c, 0, 60, 62
2, 21718, Note_on_c, 0, 55, 51
2, 21723, Note_on_c, 0, 48, 63
2, 21729, Control_c, 0, 64, 0
2, 21729, Control_c, 0, 64, 0
2, 21735, Note_off_c, 0, 74, 64
2, 21769, Control_c, 0, 64, 127
2, 21769, Control_c, 0, 64, 127
2, 21908, Note_on_c, 0, 75, 64
2, 21908, Note_on_c, 0, 67, 71
2, 21920, Control_c, 0, 64, 0
2, 21920, Control_c, 0, 64, 0
2, 21925, Note_off_c, 0, 72, 64
2, 21953, Note_off_c, 0, 63, 64
2, 21953, Control_c, 0, 64, 127
2, 21953, Control_c, 0, 64, 127
2, 21996, Note_on_c, 0, 68, 69
2, 22004, Note_off_c, 0, 67, 64
2, 22020, Note_off_c, 0, 48, 64
2, 22022, Note_off_c, 0, 55, 64
2, 22035, Note_off_c, 0, 60, 64
2, 22104, Note_on_c, 0, 59, 69
2, 22107, Note_on_c, 0, 67, 69
2, 22107, Note_on_c, 0, 55, 62
2, 22113, Note_on_c, 0, 48, 64
2, 22114, Note_off_c, 0, 68, 64
2, 22122, Control_c, 0, 64, 0
2, 22122, Control_c, 0, 64, 0
2, 22134, Control_c, 0, 64, 127
2, 22134, Control_c, 0, 64, 127
2, 22143, Control_c, 0, 64, 0
2, 22143, Control_c, 0, 64, 0
2, 22167, Control_c, 0, 64, 127
2, 22167, Control_c, 0, 64, 127
2, 22212, Note_on_c, 0, 68, 64
2, 22228, Note_off_c, 0, 67, 64
2, 22263, Note_off_c, 0, 59, 64
2, 22266, Note_off_c, 0, 55, 64
2, 22272, Note_off_c, 0, 48, 64
2, 22297, Note_on_c, 0, 65, 74
2, 22297, Control_c, 0, 64, 0
2, 22297, Control_c, 0, 64, 0
2, 22304, Note_off_c, 0, 68, 64
2, 22305, Note_on_c, 0, 59, 65
2, 22305, Note_on_c, 0, 55, 59
2, 22307, Note_on_c, 0, 48, 63
2, 22334, Control_c, 0, 64, 127
2, 22334, Control_c, 0, 64, 127
2, 22339, Note_off_c, 0, 75, 64
2, 22351, Control_c, 0, 64, 0
2, 22351, Control_c, 0, 64, 0
2, 22387, Note_on_c, 0, 75, 73
2, 22417, Control_c, 0, 64, 127
2, 22417, Control_c, 0, 64, 127
2, 22493, Note_on_c, 0, 74, 72
2, 22513, Note_off_c, 0, 75, 64
2, 22545, Note_off_c, 0, 65, 64
2, 22593, Note_on_c, 0, 65, 80
2, 22669, Note_off_c, 0, 48, 64
2, 22673, Note_off_c, 0, 55, 64
2, 22679, Note_off_c, 0, 59, 64
2, 22722, Note_on_c, 0, 72, 69
2, 22722, Note_on_c, 0, 48, 57
2, 22727, Note_on_c, 0, 60, 50
2, 22729, Note_on_c, 0, 64, 71
2, 22732, Note_on_c, 0, 55, 47
2, 22740, Note_off_c, 0, 65, 64
2, 22744, Control_c, 0, 64, 0
2, 22744, Control_c, 0, 64, 0
2, 22747, Note_off_c, 0, 74, 64
2, 22771, Control_c, 0, 64, 0
2, 22771, Control_c, 0, 64, 0
2, 22793, Control_c, 0, 64, 127
2, 22793, Control_c, 0, 64, 127
2, 22819, Control_c, 0, 64, 127
2, 22819, Control_c, 0, 64, 127
2, 22858, Note_off_c, 0, 48, 64
2, 22873, Note_off_c, 0, 55, 64
2, 22886, Note_off_c, 0, 60, 64
2, 22976, Note_on_c, 0, 55, 37
2, 22978, Note_on_c, 0, 60, 47
2, 22978, Control_c, 0, 64, 0
2, 22978, Control_c, 0, 64, 0
2, 22984, Note_on_c, 0, 48, 49
2, 23004, Control_c, 0, 64, 127
2, 23004, Control_c, 0, 64, 127
2, 23115, Note_off_c, 0, 55, 64
2, 23117, Note_off_c, 0, 60, 64
2, 23123, Note_off_c, 0, 48, 64
2, 23155, Control_c, 0, 64, 0
2, 23155, Control_c, 0, 64, 0
2, 23182, Control_c, 0, 64, 127
2, 23182, Control_c, 0, 64, 127
2, 23213, Note_on_c, 0, 36, 73
2, 23222, Control_c, 0, 64, 0
2, 23222, Control_c, 0, 64, 0
2, 23259, Control_c, 0, 64, 127
2, 23259, Control_c, 0, 64, 127
2, 23301, Note_off_c, 0, 72, 64
2, 23307, Control_c, 0, 64, 0
2, 23307, Control_c, 0, 64, 0
2, 23344, Note_off_c, 0, 64, 64
2, 23362, Control_c, 0, 64, 127
2, 23362, Control_c, 0, 64, 127
2, 23456, Note_on_c, 0, 55, 62
2, 23461, Note_on_c, 0, 67, 64
2, 23463, Note_on_c, 0, 64, 58
2, 23476, Control_c, 0, 64, 0
2, 23476, Control_c, 0, 64, 0
2, 23479, Control_c, 0, 64, 0
2, 23479, Control_c, 0, 64, 0
2, 23509, Control_c, 0, 64, 127
2, 23509, Control_c, 0, 64, 127
2, 23522, Control_c, 0, 64, 127
2, 23522, Control_c, 0, 64, 127
2, 23562, Note_on_c, 0, 68, 69
2, 23599, Note_off_c, 0, 67, 64
2, 23658, Control_c, 0, 64, 127
2, 23658, Control_c, 0, 64, 127
2, 23659, Note_on_c, 0, 69, 66
2, 23665, Note_on_c, 0, 65, 59
2, 23665, Control_c, 0, 64, 0
2, 23665, Control_c, 0, 64, 0
2, 23679, Note_off_c, 0, 55, 64
2, 23686, Note_off_c, 0, 64, 64
2, 23687, Note_off_c, 0, 68, 64
2, 23688, Note_on_c, 0, 55, 62
2, 23712, Control_c, 0, 64, 127
2, 23712, Control_c, 0, 64, 127
2, 23756, Note_on_c, 0, 59, 71
2, 23831, Control_c, 0, 64, 0
2, 23831, Control_c, 0, 64, 0
2, 23845, Note_off_c, 0, 36, 64
2, 23856, Note_on_c, 0, 60, 67
2, 23862, Note_off_c, 0, 59, 64
2, 23862, Note_off_c, 0, 69, 64
2, 23888, Note_off_c, 0, 65, 64
2, 23889, Control_c, 0, 64, 0
2, 23889, Control_c, 0, 64, 0
2, 23891, Control_c, 0, 64, 127
2, 23891, Control_c, 0, 64, 127
2, 23911, Note_off_c, 0, 55, 64
2, 23937, Control_c, 0, 64, 0
2, 23937, Control_c, 0, 64, 0
2, 23946, Control_c, 0, 64, 127
2, 23946, Control_c, 0, 64, 127
2, 24010, Control_c, 0, 64, 0
2, 24010, Control_c, 0, 64, 0
2, 24031, Note_on_c, 0, 69, 56
2, 24038, Control_c, 0, 64, 127
2, 24038, Control_c, 0, 64, 127
2, 24058, Note_on_c, 0, 67, 60
2, 24067, Note_on_c, 0, 64, 33
2, 24069, Note_on_c, 0, 55, 44
2, 24075, Note_off_c, 0, 69, 64
2, 24095, Control_c, 0, 64, 0
2, 24095, Control_c, 0, 64, 0
2, 24102, Note_off_c, 0, 60, 64
2, 24135, Control_c, 0, 64, 127
2, 24135, Control_c, 0, 64, 127
2, 24148, Note_on_c, 0, 66, 63
2, 24164, Note_off_c, 0, 67, 64
2, 24174, Control_c, 0, 64, 0
2, 24174, Control_c, 0, 64, 0
2, 24202, Control_c, 0, 64, 127
2, 24202, Control_c, 0, 64, 127
2, 24236, Note_off_c, 0, 64, 64
2, 24238, Note_off_c, 0, 55, 64
2, 24256, Note_on_c, 0, 64, 49
2, 24261, Note_on_c, 0, 67, 59
2, 24269, Note_on_c, 0, 55, 51
2, 24272, Note_off_c, 0, 66, 64
2, 24284, Control_c, 0, 64, 0
2, 24284, Control_c, 0, 64, 0
2, 24322, Control_c, 0, 64, 127
2, 24322, Control_c, 0, 64, 127
2, 24340, Control_c, 0, 64, 0
2, 24340, Control_c, 0, 64, 0
2, 24389, Control_c, 0, 64, 127
2, 24389, Control_c, 0, 64, 127
2, 24425, Note_off_c, 0, 64, 64
2, 24438, Note_off_c, 0, 55, 64
2, 24448, Note_on_c, 0, 60, 57
2, 24453, Note_on_c, 0, 48, 48
2, 24473, Control_c, 0, 64, 0
2, 24473, Control_c, 0, 64, 0
2, 24476, Note_off_c, 0, 67, 64
2, 24496, Control_c, 0, 64, 0
2, 24496, Control_c, 0, 64, 0
2, 24511, Control_c, 0, 64, 127
2, 24511, Control_c, 0, 64, 127
2, 24553, Control_c, 0, 64, 127
2, 24553, Control_c, 0, 64, 127
2, 24648, Note_on_c, 0, 64, 47
2, 24648, Note_on_c, 0, 55, 41
2, 24650, Note_on_c, 0, 67, 57
2, 24672, Control_c, 0, 64, 0
2, 24672, Control_c, 0, 64, 0
2, 24692, Note_off_c, 0, 60, 64
2, 24694, Control_c, 0, 64, 127
2, 24694, Control_c, 0, 64, 127
2, 24748, Note_on_c, 0, 71, 62
2, 24771, Note_off_c, 0, 67, 64
2, 24817, Note_off_c, 0, 55, 64
2, 24817, Note_off_c, 0, 64, 64
2, 24839, Note_on_c, 0, 69, 42
2, 24839, Note_on_c, 0, 65, 49
2, 24840, Note_on_c, 0, 55, 55
2, 24849, Note_off_c, 0, 71, 64
2, 24874, Control_c, 0, 64, 0
2, 24874, Control_c, 0, 64, 0
2, 24933, Control_c, 0, 64, 127
2, 24933, Control_c, 0, 64, 127
2, 24938, Note_on_c, 0, 59, 69
2, 24944, Note_off_c, 0, 48, 64
2, 24960, Note_off_c, 0, 69, 64
2, 25033, Note_on_c, 0, 60, 71
2, 25035, Note_off_c, 0, 59, 64
2, 25038, Note_on_c, 0, 48, 44
2, 25052, Control_c, 0, 64, 0
2, 25052, Control_c, 0, 64, 0
2, 25065, Control_c, 0, 64, 0
2, 25065, Control_c, 0, 64, 0
2, 25099, Control_c, 0, 64, 127
2, 25099, Control_c, 0, 64, 127
2, 25110, Control_c, 0, 64, 127
2, 25110, Control_c, 0, 64, 127
2, 25205, Note_off_c, 0, 65, 64
2, 25206, Note_off_c, 0, 55, 64
2, 25239, Note_on_c, 0, 64, 55
2, 25241, Note_on_c, 0, 55, 50
2, 25253, Control_c, 0, 64, 0
2, 25253, Control_c, 0, 64, 0
2, 25261, Control_c, 0, 64, 0
2, 25261, Control_c, 0, 64, 0
2, 25290, Control_c, 0, 64, 127
2, 25290, Control_c, 0, 64, 127
2, 25306, Control_c, 0, 64, 127
2, 25306, Control_c, 0, 64, 127
2, 25433, Control_c, 0, 64, 0
2, 25433, Control_c, 0, 64, 0
2, 25459, Note_off_c, 0, 48, 64
2, 25473, Note_off_c, 0, 55, 64
2, 25474, Note_on_c, 0, 48, 49
2, 25487, Control_c, 0, 64, 127
2, 25487, Control_c, 0, 64, 127
2, 25503, Control_c, 0, 64, 0
2, 25503, Control_c, 0, 64, 0
2, 25513, Note_off_c, 0, 64, 64
2, 25534, Control_c, 0, 64, 127
2, 25534, Control_c, 0, 64, 127
2, 25630, Control_c, 0, 64, 0
2, 25630, Control_c, 0, 64, 0
2, 25671, Control_c, 0, 64, 127
2, 25671, Control_c, 0, 64, 127
2, 25694, Note_on_c, 0, 64, 55
2, 25725, Control_c, 0, 64, 0
2, 25725, Control_c, 0, 64, 0
2, 25772, Control_c, 0, 64, 127
2, 25772, Control_c, 0, 64, 127
2, 25818, Control_c, 0, 64, 0
2, 25818, Control_c, 0, 64, 0
2, 25896, Control_c, 0, 64, 127
2, 25896, Control_c, 0, 64, 127
2, 25926, Note_on_c, 0, 55, 40
2, 25938, Control_c, 0, 64, 0
2, 25938, Control_c, 0, 64, 0
2, 25959, Control_c, 0, 64, 127
2, 25959, Control_c, 0, 64, 127
2, 25995, Note_off_c, 0, 60, 64
2, 26015, Note_on_c, 0, 56, 57
2, 26040, Note_off_c, 0, 55, 64
2, 26044, Control_c, 0, 64, 0
2, 26044, Control_c, 0, 64, 0
2, 26100, Control_c, 0, 64, 127
2, 26100, Control_c, 0, 64, 127
2, 26109, Note_off_c, 0, 48, 64
2, 26128, Note_on_c, 0, 57, 47
2, 26131, Note_on_c, 0, 65, 54
2, 26141, Control_c, 0, 64, 0
2, 26141, Control_c, 0, 64, 0
2, 26152, Note_off_c, 0, 64, 64
2, 26162, Note_off_c, 0, 56, 64
2, 26174, Control_c, 0, 64, 127
2, 26174, Control_c, 0, 64, 127
2, 26223, Note_on_c, 0, 47, 57
2, 26251, Control_c, 0, 64, 0
2, 26251, Control_c, 0, 64, 0
2, 26286, Control_c, 0, 64, 127
2, 26286, Control_c, 0, 64, 127
2, 26335, Note_on_c, 0, 48, 62
2, 26342, Note_off_c, 0, 47, 64
2, 26361, Control_c, 0, 64, 0
2, 26361, Control_c, 0, 64, 0
2, 26402, Control_c, 0, 64, 127
2, 26402, Control_c, 0, 64, 127
2, 26441, Control_c, 0, 64, 0
2, 26441, Control_c, 0, 64, 0
2, 26448, Note_on_c, 0, 64, 56
2, 26448, Note_on_c, 0, 55, 39
2, 26466, Note_off_c, 0, 57, 64
2, 26469, Note_off_c, 0, 65, 64
2, 26486, Control_c, 0, 64, 127
2, 26486, Control_c, 0, 64, 127
2, 26504, Note_off_c, 0, 55, 64
2, 26508, Note_off_c, 0, 64, 64
2, 26520, Note_on_c, 0, 65, 62
2, 26528, Note_on_c, 0, 57, 35
2, 26544, Note_on_c, 0, 64, 59
2, 26544, Note_on_c, 0, 55, 36
2, 26581, Note_off_c, 0, 65, 64
2, 26585, Note_off_c, 0, 57, 64
2, 26587, Control_c, 0, 64, 0
2, 26587, Control_c, 0, 64, 0
2, 26629, Control_c, 0, 64, 127
2, 26629, Control_c, 0, 64, 127
2, 26656, Note_on_c, 0, 63, 64
2, 26656, Note_on_c, 0, 54, 41
2, 26675, Note_off_c, 0, 55, 64
2, 26675, Note_off_c, 0, 64, 64
2, 26680, Control_c, 0, 64, 0
2, 26680, Control_c, 0, 64, 0
2, 26749, Control_c, 0, 64, 127
2, 26749, Control_c, 0, 64, 127
2, 26802, Note_on_c, 0, 64, 56
2, 26811, Note_on_c, 0, 55, 50
2, 26812, Note_off_c, 0, 54, 64
2, 26812, Note_off_c, 0, 63, 64
2, 26825, Control_c, 0, 64, 0
2, 26825, Control_c, 0, 64, 0
2, 26865, Note_off_c, 0, 48, 64
2, 26866, Control_c, 0, 64, 0
2, 26866, Control_c, 0, 64, 0
2, 26882, Control_c, 0, 64, 127
2, 26882, Control_c, 0, 64, 127
2, 26931, Control_c, 0, 64, 127
2, 26931, Control_c, 0, 64, 127
2, 27041, Note_on_c, 0, 48, 69
2, 27048, Control_c, 0, 64, 0
2, 27048, Control_c, 0, 64, 0
2, 27062, Note_off_c, 0, 55, 64
2, 27097, Control_c, 0, 64, 127
2, 27097, Control_c, 0, 64, 127
2, 27143, Note_off_c, 0, 64, 64
2, 27159, Control_c, 0, 64, 0
2, 27159, Control_c, 0, 64, 0
2, 27196, Control_c, 0, 64, 127
2, 27196, Control_c, 0, 64, 127
2, 27242, Control_c, 0, 64, 0
2, 27242, Control_c, 0, 64, 0
2, 27250, Note_on_c, 0, 55, 55
2, 27260, Note_on_c, 0, 64, 42
2, 27288, Control_c, 0, 64, 127
2, 27288, Control_c, 0, 64, 127
2, 27350, Note_on_c, 0, 67, 46
2, 27356, Note_on_c, 0, 58, 37
2, 27370, Note_off_c, 0, 64, 64
2, 27389, Control_c, 0, 64, 0
2, 27389, Control_c, 0, 64, 0
2, 27406, Note_off_c, 0, 55, 64
2, 27440, Note_off_c, 0, 58, 64
2, 27450, Control_c, 0, 64, 127
2, 27450, Control_c, 0, 64, 127
2, 27453, Note_off_c, 0, 67, 64
2, 27454, Note_on_c, 0, 65, 56
2, 27463, Note_on_c, 0, 57, 41
2, 27463, Control_c, 0, 64, 0
2, 27463, Control_c, 0, 64, 0
2, 27475, Note_off_c, 0, 48, 64
2, 27486, Control_c, 0, 64, 127
2, 27486, Control_c, 0, 64, 127
2, 27561, Note_on_c, 0, 47, 62
2, 27612, Note_off_c, 0, 47, 64
2, 27680, Note_on_c, 0, 64, 58
2, 27684, Note_off_c, 0, 65, 64
2, 27689, Note_on_c, 0, 55, 54
2, 27692, Note_on_c, 0, 48, 39
2, 27697, Note_off_c, 0, 57, 64
2, 27732, Control_c, 0, 64, 0
2, 27732, Control_c, 0, 64, 0
2, 27786, Note_on_c, 0, 59, 47
2, 27801, Control_c, 0, 64, 127
2, 27801, Control_c, 0, 64, 127
2, 27815, Note_off_c, 0, 64, 64
2, 27930, Note_on_c, 0, 60, 51
2, 27941, Control_c, 0, 64, 0
2, 27941, Control_c, 0, 64, 0
2, 27946, Note_off_c, 0, 59, 64
2, 27999, Control_c, 0, 64, 127
2, 27999, Control_c, 0, 64, 127
2, 28001, Control_c, 0, 64, 0
2, 28001, Control_c, 0, 64, 0
2, 28080, Control_c, 0, 64, 127
2, 28080, Control_c, 0, 64, 127
2, 28206, Note_on_c, 0, 67, 56
2, 28256, Control_c, 0, 64, 0
2, 28256, Control_c, 0, 64, 0
2, 28300, Note_off_c, 0, 60, 64
2, 28309, Control_c, 0, 64, 127
2, 28309, Control_c, 0, 64, 127
2, 28346, Note_on_c, 0, 71, 57
2, 28362, Note_off_c, 0, 67, 64
2, 28413, Note_off_c, 0, 48, 64
2, 28427, Note_off_c, 0, 55, 64
2, 28488, Note_on_c, 0, 72, 62
2, 28504, Note_off_c, 0, 71, 64
2, 28545, Control_c, 0, 64, 0
2, 28545, Control_c, 0, 64, 0
2, 28551, Control_c, 0, 64, 0
2, 28551, Control_c, 0, 64, 0
2, 28600, Control_c, 0, 64, 127
2, 28600, Control_c, 0, 64, 127
2, 28708, Control_c, 0, 64, 0
2, 28708, Control_c, 0, 64, 0
2, 28748, Control_c, 0, 64, 127
2, 28748, Control_c, 0, 64, 127
2, 28791, Control_c, 0, 64, 127
2, 28791, Control_c, 0, 64, 127
2, 28821, Control_c, 0, 64, 0
2, 28821, Control_c, 0, 64, 0
2, 29003, Control_c, 0, 64, 127
2, 29003, Control_c, 0, 64, 127
2, 29014, Note_on_c, 0, 67, 54
2, 29039, Note_off_c, 0, 72, 64
2, 29159, Note_on_c, 0, 71, 55
2, 29189, Note_off_c, 0, 67, 64
2, 29305, Note_on_c, 0, 72, 59
2, 29323, Note_off_c, 0, 71, 64
2, 29458, Note_on_c, 0, 71, 54
2, 29482, Note_off_c, 0, 72, 64
2, 29579, Note_on_c, 0, 67, 57
2, 29597, Note_off_c, 0, 71, 64
2, 29710, Note_on_c, 0, 74, 63
2, 29744, Note_off_c, 0, 67, 64
2, 29800, Control_c, 0, 64, 0
2, 29800, Control_c, 0, 64, 0
2, 29836, Note_on_c, 0, 72, 62
2, 29850, Note_off_c, 0, 74, 64
2, 29949, Note_on_c, 0, 71, 59
2, 29973, Note_off_c, 0, 72, 64
2, 30064, Note_on_c, 0, 67, 65
2, 30083, Note_off_c, 0, 71, 64
2, 30125, Control_c, 0, 64, 127
2, 30125, Control_c, 0, 64, 127
2, 30170, Note_on_c, 0, 73, 64
2, 30213, Note_off_c, 0, 67, 64
2, 30274, Note_on_c, 0, 72, 63
2, 30297, Note_off_c, 0, 73, 64
2, 30376, Note_on_c, 0, 71, 63
2, 30402, Note_off_c, 0, 72, 64
2, 30477, Note_on_c, 0, 67, 67
2, 30492, Note_off_c, 0, 71, 64
2, 30577, Note_on_c, 0, 73, 65
2, 30615, Note_off_c, 0, 67, 64
2, 30690, Note_on_c, 0, 72, 58
2, 30720, Note_off_c, 0, 73, 64
2, 30766, Control_c, 0, 64, 0
2, 30766, Control_c, 0, 64, 0
2, 30789, Control_c, 0, 64, 127
2, 30789, Control_c, 0, 64, 127
2, 30795, Note_on_c, 0, 71, 72
2, 30812, Note_off_c, 0, 72, 64
2, 30852, Control_c, 0, 64, 127
2, 30852, Control_c, 0, 64, 127
2, 30910, Control_c, 0, 64, 0
2, 30910, Control_c, 0, 64, 0
2, 30913, Note_on_c, 0, 70, 80
2, 30920, Control_c, 0, 64, 0
2, 30920, Control_c, 0, 64, 0
2, 30931, Note_off_c, 0, 71, 64
2, 30966, Control_c, 0, 64, 127
2, 30966, Control_c, 0, 64, 127
2, 31017, Note_on_c, 0, 73, 73
2, 31051, Note_off_c, 0, 70, 64
2, 31071, Control_c, 0, 64, 0
2, 31071, Control_c, 0, 64, 0
2, 31107, Control_c, 0, 64, 127
2, 31107, Control_c, 0, 64, 127
2, 31129, Note_on_c, 0, 72, 78
2, 31152, Note_off_c, 0, 73, 64
2, 31223, Control_c, 0, 64, 0
2, 31223, Control_c, 0, 64, 0
2, 31235, Note_on_c, 0, 70, 77
2, 31251, Note_off_c, 0, 72, 64
2, 31261, Control_c, 0, 64, 127
2, 31261, Control_c, 0, 64, 127
2, 31350, Note_on_c, 0, 32, 100
2, 31358, Note_on_c, 0, 68, 78
2, 31368, Note_off_c, 0, 70, 64
2, 31391, Control_c, 0, 64, 127
2, 31391, Control_c, 0, 64, 127
2, 31464, Note_on_c, 0, 72, 66
2, 31495, Note_off_c, 0, 68, 64
2, 31584, Note_on_c, 0, 75, 64
2, 31584, Note_on_c, 0, 63, 56
2, 31584, Note_on_c, 0, 60, 62
2, 31584, Note_on_c, 0, 51, 48
2, 31618, Note_off_c, 0, 72, 64
2, 31641, Control_c, 0, 64, 0
2, 31641, Control_c, 0, 64, 0
2, 31680, Control_c, 0, 64, 127
2, 31680, Control_c, 0, 64, 127
2, 31711, Note_off_c, 0, 51, 64
2, 31711, Note_off_c, 0, 60, 64
2, 31711, Note_off_c, 0, 63, 64
2, 31712, Note_on_c, 0, 76, 58
2, 31727, Note_off_c, 0, 75, 64
2, 31808, Note_on_c, 0, 77, 58
2, 31816, Note_on_c, 0, 63, 75
2, 31816, Note_on_c, 0, 61, 42
2, 31824, Note_on_c, 0, 51, 71
2, 31853, Note_off_c, 0, 76, 64
2, 31913, Note_off_c, 0, 61, 64
2, 31913, Note_off_c, 0, 63, 64
2, 31921, Note_off_c, 0, 51, 64
2, 31923, Note_off_c, 0, 77, 64
2, 31928, Note_on_c, 0, 67, 73
2, 31958, Note_off_c, 0, 32, 64
2, 32016, Note_on_c, 0, 68, 73
2, 32019, Note_on_c, 0, 44, 73
2, 32071, Note_off_c, 0, 67, 64
2, 32100, Note_on_c, 0, 72, 62
2, 32109, Note_off_c, 0, 68, 64
2, 32152, Note_on_c, 0, 77, 55
2, 32166, Note_off_c, 0, 72, 64
2, 32176, Note_on_c, 0, 60, 46
2, 32177, Note_on_c, 0, 66, 49
2, 32177, Note_on_c, 0, 56, 40
2, 32180, Note_off_c, 0, 44, 64
2, 32180, Control_c, 0, 64, 0
2, 32180, Control_c, 0, 64, 0
2, 32192, Note_on_c, 0, 75, 67
2, 32215, Note_off_c, 0, 77, 64
2, 32239, Note_off_c, 0, 60, 64
2, 32240, Note_off_c, 0, 56, 64
2, 32240, Note_off_c, 0, 66, 64
2, 32274, Note_on_c, 0, 74, 69
2, 32280, Control_c, 0, 64, 127
2, 32280, Control_c, 0, 64, 127
2, 32285, Note_off_c, 0, 75, 64
2, 32304, Control_c, 0, 64, 0
2, 32304, Control_c, 0, 64, 0
2, 32368, Note_on_c, 0, 66, 52
2, 32373, Note_on_c, 0, 75, 73
2, 32376, Note_on_c, 0, 60, 19
2, 32376, Note_on_c, 0, 56, 20
2, 32396, Control_c, 0, 64, 127
2, 32396, Control_c, 0, 64, 127
2, 32402, Note_off_c, 0, 74, 64
2, 32431, Note_off_c, 0, 66, 64
2, 32439, Note_off_c, 0, 56, 64
2, 32439, Note_off_c, 0, 60, 64
2, 32549, Note_on_c, 0, 49, 69
2, 32555, Note_on_c, 0, 73, 73
2, 32558, Note_off_c, 0, 75, 64
2, 32562, Control_c, 0, 64, 0
2, 32562, Control_c, 0, 64, 0
2, 32575, Control_c, 0, 64, 127
2, 32575, Control_c, 0, 64, 127
2, 32637, Note_on_c, 0, 77, 62
2, 32654, Note_off_c, 0, 73, 64
2, 32706, Note_on_c, 0, 56, 54
2, 32706, Control_c, 0, 64, 0
2, 32706, Control_c, 0, 64, 0
2, 32710, Note_off_c, 0, 49, 64
2, 32710, Note_on_c, 0, 65, 57
2, 32713, Note_on_c, 0, 61, 55
2, 32720, Note_on_c, 0, 79, 62
2, 32729, Note_off_c, 0, 77, 64
2, 32769, Note_off_c, 0, 56, 64
2, 32773, Note_off_c, 0, 65, 64
2, 32776, Note_off_c, 0, 61, 64
2, 32789, Note_on_c, 0, 82, 69
2, 32801, Note_off_c, 0, 79, 64
2, 32856, Control_c, 0, 64, 127
2, 32856, Control_c, 0, 64, 127
2, 32867, Note_on_c, 0, 80, 62
2, 32870, Note_off_c, 0, 82, 64
2, 32876, Note_on_c, 0, 56, 58
2, 32880, Note_on_c, 0, 65, 58
2, 32880, Note_on_c, 0, 61, 59
2, 32939, Note_off_c, 0, 56, 64
2, 32943, Note_off_c, 0, 61, 64
2, 32943, Note_off_c, 0, 65, 64
2, 32959, Note_on_c, 0, 77, 62
2, 32967, Note_off_c, 0, 80, 64
2, 33008, Control_c, 0, 64, 0
2, 33008, Control_c, 0, 64, 0
2, 33022, Note_on_c, 0, 46, 74
2, 33040, Note_on_c, 0, 73, 74
2, 33044, Note_off_c, 0, 77, 64
2, 33047, Control_c, 0, 64, 127
2, 33047, Control_c, 0, 64, 127
2, 33098, Note_on_c, 0, 76, 67
2, 33115, Note_off_c, 0, 73, 64
2, 33144, Note_on_c, 0, 79, 57
2, 33160, Note_on_c, 0, 65, 44
2, 33164, Note_on_c, 0, 61, 51
2, 33168, Note_on_c, 0, 56, 49
2, 33171, Note_off_c, 0, 76, 64
2, 33173, Control_c, 0, 64, 0
2, 33173, Control_c, 0, 64, 0
2, 33183, Note_off_c, 0, 46, 64
2, 33190, Note_on_c, 0, 77, 65
2, 33203, Note_off_c, 0, 79, 64
2, 33223, Note_off_c, 0, 65, 64
2, 33227, Note_off_c, 0, 61, 64
2, 33231, Note_off_c, 0, 56, 64
2, 33270, Note_on_c, 0, 76, 64
2, 33279, Note_off_c, 0, 77, 64
2, 33351, Note_on_c, 0, 65, 48
2, 33351, Note_on_c, 0, 56, 48
2, 33355, Note_on_c, 0, 61, 41
2, 33359, Note_on_c, 0, 77, 62
2, 33366, Control_c, 0, 64, 127
2, 33366, Control_c, 0, 64, 127
2, 33376, Note_off_c, 0, 76, 64
2, 33414, Note_off_c, 0, 56, 64
2, 33414, Note_off_c, 0, 65, 64
2, 33418, Note_off_c, 0, 61, 64
2, 33528, Control_c, 0, 64, 0
2, 33528, Control_c, 0, 64, 0
2, 33533, Note_on_c, 0, 51, 63
2, 33537, Note_on_c, 0, 67, 64
2, 33540, Note_off_c, 0, 77, 64
2, 33563, Control_c, 0, 64, 127
2, 33563, Control_c, 0, 64, 127
2, 33610, Note_on_c, 0, 68, 67
2, 33621, Note_off_c, 0, 67, 64
2, 33673, Control_c, 0, 64, 0
2, 33673, Control_c, 0, 64, 0
2, 33687, Note_on_c, 0, 70, 59
2, 33694, Note_off_c, 0, 51, 64
2, 33696, Note_on_c, 0, 63, 59
2, 33697, Note_on_c, 0, 61, 46
2, 33699, Note_off_c, 0, 68, 64
2, 33700, Note_on_c, 0, 55, 39
2, 33727, Control_c, 0, 64, 127
2, 33727, Control_c, 0, 64, 127
2, 33747, Note_on_c, 0, 72, 58
2, 33759, Note_off_c, 0, 63, 64
2, 33760, Note_off_c, 0, 61, 64
2, 33763, Note_off_c, 0, 55, 64
2, 33770, Note_off_c, 0, 70, 64
2, 33824, Note_on_c, 0, 63, 50
2, 33828, Note_on_c, 0, 55, 48
2, 33831, Note_on_c, 0, 61, 51
2, 33839, Note_on_c, 0, 73, 71
2, 33851, Note_off_c, 0, 72, 64
2, 33887, Note_off_c, 0, 63, 64
2, 33891, Note_off_c, 0, 55, 64
2, 33894, Note_off_c, 0, 61, 64
2, 33921, Note_on_c, 0, 71, 46
2, 33942, Note_off_c, 0, 73, 64
2, 33979, Control_c, 0, 64, 0
2, 33979, Control_c, 0, 64, 0
2, 33990, Note_on_c, 0, 44, 73
2, 33998, Note_on_c, 0, 72, 73
2, 34011, Note_off_c, 0, 71, 64
2, 34031, Control_c, 0, 64, 127
2, 34031, Control_c, 0, 64, 127
2, 34095, Note_on_c, 0, 62, 58
2, 34129, Note_on_c, 0, 65, 69
2, 34141, Note_off_c, 0, 72, 64
2, 34151, Note_off_c, 0, 44, 64
2, 34156, Note_off_c, 0, 62, 64
2, 34158, Note_on_c, 0, 60, 36
2, 34160, Note_on_c, 0, 51, 44
2, 34162, Note_on_c, 0, 56, 34
2, 34165, Note_on_c, 0, 63, 74
2, 34172, Control_c, 0, 64, 0
2, 34172, Control_c, 0, 64, 0
2, 34183, Note_off_c, 0, 65, 64
2, 34221, Note_off_c, 0, 60, 64
2, 34223, Note_off_c, 0, 51, 64
2, 34225, Note_off_c, 0, 56, 64
2, 34247, Note_on_c, 0, 62, 71
2, 34253, Note_off_c, 0, 63, 64
2, 34323, Note_on_c, 0, 63, 80
2, 34324, Note_on_c, 0, 60, 43
2, 34325, Note_on_c, 0, 56, 46
2, 34334, Note_on_c, 0, 51, 40
2, 34342, Control_c, 0, 64, 127
2, 34342, Control_c, 0, 64, 127
2, 34348, Note_off_c, 0, 62, 64
2, 34387, Note_off_c, 0, 60, 64
2, 34388, Note_off_c, 0, 56, 64
2, 34397, Note_off_c, 0, 51, 64
2, 34504, Control_c, 0, 64, 0
2, 34504, Control_c, 0, 64, 0
2, 34519, Note_on_c, 0, 70, 69
2, 34519, Note_on_c, 0, 67, 59
2, 34522, Note_on_c, 0, 39, 67
2, 34526, Note_off_c, 0, 63, 64
2, 34555, Control_c, 0, 64, 127
2, 34555, Control_c, 0, 64, 127
2, 34596, Note_on_c, 0, 72, 64
2, 34602, Note_on_c, 0, 68, 78
2, 34613, Note_off_c, 0, 67, 64
2, 34613, Note_off_c, 0, 70, 64
2, 34679, Control_c, 0, 64, 0
2, 34679, Control_c, 0, 64, 0
2, 34683, Note_off_c, 0, 39, 64
2, 34683, Note_on_c, 0, 51, 42
2, 34684, Note_on_c, 0, 61, 51
2, 34688, Note_on_c, 0, 73, 67
2, 34688, Note_on_c, 0, 70, 73
2, 34688, Note_on_c, 0, 63, 46
2, 34691, Note_off_c, 0, 72, 64
2, 34697, Note_off_c, 0, 68, 64
2, 34722, Control_c, 0, 64, 127
2, 34722, Control_c, 0, 64, 127
2, 34746, Note_off_c, 0, 51, 64
2, 34747, Note_off_c, 0, 61, 64
2, 34751, Note_off_c, 0, 63, 64
2, 34760, Note_on_c, 0, 72, 66
2, 34764, Note_off_c, 0, 70, 64
2, 34764, Note_off_c, 0, 73, 64
2, 34764, Note_on_c, 0, 75, 63
2, 34828, Note_on_c, 0, 63, 62
2, 34828, Note_on_c, 0, 61, 48
2, 34832, Note_on_c, 0, 73, 67
2, 34832, Note_on_c, 0, 51, 25
2, 34836, Note_on_c, 0, 77, 77
2, 34861, Note_off_c, 0, 72, 64
2, 34865, Note_off_c, 0, 75, 64
2, 34891, Note_off_c, 0, 61, 64
2, 34891, Note_off_c, 0, 63, 64
2, 34895, Note_off_c, 0, 51, 64
2, 34908, Note_on_c, 0, 74, 67
2, 34910, Note_on_c, 0, 71, 77
2, 34921, Note_off_c, 0, 73, 64
2, 34925, Note_off_c, 0, 77, 64
2, 34977, Note_on_c, 0, 44, 67
2, 34980, Note_on_c, 0, 72, 69
2, 34982, Note_on_c, 0, 75, 62
2, 34988, Note_off_c, 0, 74, 64
2, 34990, Note_off_c, 0, 71, 64
2, 34990, Control_c, 0, 64, 0
2, 34990, Control_c, 0, 64, 0
2, 35026, Control_c, 0, 64, 127
2, 35026, Control_c, 0, 64, 127
2, 35097, Note_on_c, 0, 62, 73
2, 35108, Note_off_c, 0, 72, 64
2, 35110, Note_off_c, 0, 75, 64
2, 35125, Note_on_c, 0, 65, 69
2, 35138, Note_off_c, 0, 44, 64
2, 35145, Control_c, 0, 64, 0
2, 35145, Control_c, 0, 64, 0
2, 35160, Note_on_c, 0, 60, 47
2, 35163, Note_off_c, 0, 62, 64
2, 35163, Note_on_c, 0, 63, 78
2, 35164, Note_on_c, 0, 56, 50
2, 35164, Note_on_c, 0, 51, 37
2, 35190, Note_off_c, 0, 65, 64
2, 35223, Note_off_c, 0, 60, 64
2, 35227, Note_off_c, 0, 51, 64
2, 35227, Note_off_c, 0, 56, 64
2, 35245, Note_on_c, 0, 62, 73
2, 35265, Note_off_c, 0, 63, 64
2, 35322, Note_on_c, 0, 63, 82
2, 35327, Note_on_c, 0, 60, 58
2, 35332, Note_on_c, 0, 51, 46
2, 35333, Note_on_c, 0, 56, 52
2, 35346, Control_c, 0, 64, 127
2, 35346, Control_c, 0, 64, 127
2, 35353, Note_off_c, 0, 62, 64
2, 35390, Note_off_c, 0, 60, 64
2, 35395, Note_off_c, 0, 51, 64
2, 35396, Note_off_c, 0, 56, 64
2, 35515, Control_c, 0, 64, 0
2, 35515, Control_c, 0, 64, 0
2, 35527, Note_on_c, 0, 32, 88
2, 35528, Note_on_c, 0, 68, 98
2, 35537, Note_off_c, 0, 63, 64
2, 35592, Control_c, 0, 64, 127
2, 35592, Control_c, 0, 64, 127
2, 35633, Note_on_c, 0, 72, 65
2, 35642, Note_off_c, 0, 68, 64
2, 35688, Note_off_c, 0, 32, 64
2, 35697, Control_c, 0, 64, 0
2, 35697, Control_c, 0, 64, 0
2, 35704, Note_on_c, 0, 60, 55
2, 35707, Note_on_c, 0, 63, 55
2, 35708, Note_on_c, 0, 75, 73
2, 35708, Note_on_c, 0, 51, 50
2, 35736, Note_off_c, 0, 72, 64
2, 35743, Control_c, 0, 64, 127
2, 35743, Control_c, 0, 64, 127
2, 35767, Note_off_c, 0, 60, 64
2, 35770, Note_off_c, 0, 63, 64
2, 35771, Note_off_c, 0, 51, 64
2, 35777, Note_on_c, 0, 76, 69
2, 35816, Note_off_c, 0, 75, 64
2, 35856, Note_on_c, 0, 63, 58
2, 35860, Note_on_c, 0, 77, 64
2, 35860, Note_on_c, 0, 61, 34
2, 35868, Note_on_c, 0, 51, 58
2, 35897, Note_off_c, 0, 76, 64
2, 35913, Note_on_c, 0, 67, 63
2, 35919, Note_off_c, 0, 63, 64
2, 35923, Note_off_c, 0, 61, 64
2, 35931, Note_off_c, 0, 51, 64
2, 35942, Note_off_c, 0, 77, 64
2, 36000, Note_on_c, 0, 44, 73
2, 36004, Control_c, 0, 64, 0
2, 36004, Control_c, 0, 64, 0
2, 36009, Note_on_c, 0, 68, 78
2, 36021, Note_off_c, 0, 67, 64
2, 36040, Control_c, 0, 64, 127
2, 36040, Control_c, 0, 64, 127
2, 36070, Note_on_c, 0, 72, 64
2, 36087, Note_off_c, 0, 68, 64
2, 36125, Note_on_c, 0, 77, 64
2, 36137, Note_on_c, 0, 66, 59
2, 36142, Note_off_c, 0, 72, 64
2, 36147, Note_on_c, 0, 60, 51
2, 36148, Control_c, 0, 64, 0
2, 36148, Control_c, 0, 64, 0
2, 36152, Note_on_c, 0, 56, 39
2, 36156, Note_on_c, 0, 75, 77
2, 36161, Note_off_c, 0, 44, 64
2, 36182, Note_off_c, 0, 77, 64
2, 36200, Note_off_c, 0, 66, 64
2, 36210, Note_off_c, 0, 60, 64
2, 36215, Note_off_c, 0, 56, 64
2, 36237, Note_on_c, 0, 74, 66
2, 36245, Note_off_c, 0, 75, 64
2, 36306, Note_on_c, 0, 66, 62
2, 36310, Note_on_c, 0, 75, 78
2, 36312, Note_on_c, 0, 56, 58
2, 36316, Note_on_c, 0, 60, 26
2, 36320, Control_c, 0, 64, 127
2, 36320, Control_c, 0, 64, 127
2, 36330, Note_off_c, 0, 74, 64
2, 36369, Note_off_c, 0, 66, 64
2, 36375, Note_off_c, 0, 56, 64
2, 36379, Note_off_c, 0, 60, 64
2, 36412, Control_c, 0, 64, 127
2, 36412, Control_c, 0, 64, 127
2, 36464, Note_on_c, 0, 49, 73
2, 36469, Note_on_c, 0, 73, 73
2, 36471, Control_c, 0, 64, 0
2, 36471, Control_c, 0, 64, 0
2, 36477, Note_off_c, 0, 75, 64
2, 36488, Control_c, 0, 64, 127
2, 36488, Control_c, 0, 64, 127
2, 36538, Note_on_c, 0, 77, 65
2, 36555, Note_off_c, 0, 73, 64
2, 36585, Control_c, 0, 64, 0
2, 36585, Control_c, 0, 64, 0
2, 36593, Note_on_c, 0, 56, 51
2, 36597, Note_on_c, 0, 61, 57
2, 36600, Note_on_c, 0, 65, 56
2, 36610, Note_on_c, 0, 79, 59
2, 36620, Note_off_c, 0, 77, 64
2, 36625, Note_off_c, 0, 49, 64
2, 36656, Note_off_c, 0, 56, 64
2, 36660, Note_off_c, 0, 61, 64
2, 36663, Note_off_c, 0, 65, 64
2, 36678, Note_on_c, 0, 82, 69
2, 36690, Note_off_c, 0, 79, 64
2, 36751, Note_on_c, 0, 80, 62
2, 36757, Note_on_c, 0, 56, 62
2, 36760, Note_on_c, 0, 61, 59
2, 36761, Note_on_c, 0, 65, 58
2, 36767, Note_off_c, 0, 82, 64
2, 36779, Control_c, 0, 64, 127
2, 36779, Control_c, 0, 64, 127
2, 36820, Note_off_c, 0, 56, 64
2, 36823, Note_off_c, 0, 61, 64
2, 36824, Note_off_c, 0, 65, 64
2, 36834, Note_on_c, 0, 77, 66
2, 36845, Note_off_c, 0, 80, 64
2, 36878, Control_c, 0, 64, 0
2, 36878, Control_c, 0, 64, 0
2, 36901, Note_on_c, 0, 46, 73
2, 36908, Note_on_c, 0, 73, 73
2, 36914, Note_off_c, 0, 77, 64
2, 36925, Control_c, 0, 64, 127
2, 36925, Control_c, 0, 64, 127
2, 36971, Note_on_c, 0, 76, 62
2, 36986, Note_off_c, 0, 73, 64
2, 37017, Note_on_c, 0, 79, 62
2, 37023, Note_on_c, 0, 65, 51
2, 37023, Note_on_c, 0, 56, 48
2, 37024, Note_on_c, 0, 61, 52
2, 37037, Control_c, 0, 64, 0
2, 37037, Control_c, 0, 64, 0
2, 37046, Note_off_c, 0, 76, 64
2, 37062, Note_off_c, 0, 46, 64
2, 37067, Note_on_c, 0, 77, 63
2, 37086, Note_off_c, 0, 56, 64
2, 37086, Note_off_c, 0, 65, 64
2, 37087, Note_off_c, 0, 61, 64
2, 37101, Note_off_c, 0, 79, 64
2, 37137, Note_on_c, 0, 76, 63
2, 37145, Note_off_c, 0, 77, 64
2, 37228, Note_on_c, 0, 77, 66
2, 37228, Control_c, 0, 64, 127
2, 37228, Control_c, 0, 64, 127
2, 37232, Note_on_c, 0, 65, 57
2, 37232, Note_on_c, 0, 61, 26
2, 37232, Note_on_c, 0, 56, 42
2, 37242, Note_off_c, 0, 76, 64
2, 37295, Note_off_c, 0, 56, 64
2, 37295, Note_off_c, 0, 61, 64
2, 37295, Note_off_c, 0, 65, 64
2, 37392, Note_off_c, 0, 77, 64
2, 37399, Note_on_c, 0, 51, 59
2, 37402, Note_on_c, 0, 67, 67
2, 37406, Control_c, 0, 64, 0
2, 37406, Control_c, 0, 64, 0
2, 37451, Control_c, 0, 64, 127
2, 37451, Control_c, 0, 64, 127
2, 37475, Note_on_c, 0, 68, 63
2, 37507, Note_off_c, 0, 67, 64
2, 37529, Control_c, 0, 64, 0
2, 37529, Control_c, 0, 64, 0
2, 37553, Note_on_c, 0, 70, 59
2, 37556, Note_on_c, 0, 61, 48
2, 37559, Note_on_c, 0, 63, 51
2, 37559, Note_on_c, 0, 55, 42
2, 37560, Note_off_c, 0, 51, 64
2, 37574, Note_off_c, 0, 68, 64
2, 37580, Control_c, 0, 64, 127
2, 37580, Control_c, 0, 64, 127
2, 37619, Note_off_c, 0, 61, 64
2, 37620, Note_on_c, 0, 72, 56
2, 37622, Note_off_c, 0, 55, 64
2, 37622, Note_off_c, 0, 63, 64
2, 37634, Note_off_c, 0, 70, 64
2, 37696, Note_on_c, 0, 73, 70
2, 37699, Note_on_c, 0, 63, 36
2, 37699, Note_on_c, 0, 61, 39
2, 37705, Note_on_c, 0, 55, 40
2, 37710, Note_off_c, 0, 72, 64
2, 37757, Note_on_c, 0, 71, 64
2, 37762, Note_off_c, 0, 61, 64
2, 37762, Note_off_c, 0, 63, 64
2, 37768, Note_off_c, 0, 55, 64
2, 37768, Note_off_c, 0, 73, 64
2, 37831, Control_c, 0, 64, 0
2, 37831, Control_c, 0, 64, 0
2, 37840, Note_on_c, 0, 72, 69
2, 37846, Note_on_c, 0, 44, 73
2, 37859, Note_off_c, 0, 71, 64
2, 37894, Note_on_c, 0, 62, 59
2, 37909, Note_off_c, 0, 72, 64
2, 37952, Note_on_c, 0, 65, 69
2, 37963, Note_on_c, 0, 60, 51
2, 37963, Note_on_c, 0, 51, 50
2, 37965, Note_on_c, 0, 56, 54
2, 37981, Note_on_c, 0, 63, 69
2, 37994, Note_off_c, 0, 65, 64
2, 37998, Note_off_c, 0, 62, 64
2, 38007, Note_off_c, 0, 44, 64
2, 38026, Note_off_c, 0, 51, 64
2, 38026, Note_off_c, 0, 60, 64
2, 38028, Note_off_c, 0, 56, 64
2, 38067, Note_on_c, 0, 62, 69
2, 38082, Note_off_c, 0, 63, 64
2, 38144, Note_on_c, 0, 63, 78
2, 38152, Note_on_c, 0, 60, 52
2, 38158, Note_on_c, 0, 56, 51
2, 38158, Note_on_c, 0, 51, 50
2, 38169, Note_off_c, 0, 62, 64
2, 38175, Control_c, 0, 64, 127
2, 38175, Control_c, 0, 64, 127
2, 38215, Note_off_c, 0, 60, 64
2, 38221, Note_off_c, 0, 51, 64
2, 38221, Note_off_c, 0, 56, 64
2, 38228, Control_c, 0, 64, 127
2, 38228, Control_c, 0, 64, 127
2, 38308, Control_c, 0, 64, 0
2, 38308, Control_c, 0, 64, 0
2, 38320, Note_on_c, 0, 67, 67
2, 38323, Note_on_c, 0, 70, 62
2, 38331, Note_off_c, 0, 63, 64
2, 38331, Note_on_c, 0, 39, 69
2, 38338, Control_c, 0, 64, 127
2, 38338, Control_c, 0, 64, 127
2, 38416, Note_on_c, 0, 72, 69
2, 38416, Note_on_c, 0, 68, 80
2, 38425, Note_off_c, 0, 67, 64
2, 38428, Note_off_c, 0, 70, 64
2, 38453, Control_c, 0, 64, 0
2, 38453, Control_c, 0, 64, 0
2, 38485, Note_on_c, 0, 73, 64
2, 38488, Note_on_c, 0, 70, 69
2, 38492, Note_off_c, 0, 39, 64
2, 38492, Note_on_c, 0, 63, 55
2, 38492, Note_on_c, 0, 51, 58
2, 38494, Note_off_c, 0, 68, 64
2, 38494, Note_off_c, 0, 72, 64
2, 38495, Note_on_c, 0, 61, 54
2, 38510, Control_c, 0, 64, 127
2, 38510, Control_c, 0, 64, 127
2, 38555, Note_off_c, 0, 51, 64
2, 38555, Note_off_c, 0, 63, 64
2, 38558, Note_off_c, 0, 61, 64
2, 38564, Note_on_c, 0, 75, 52
2, 38564, Note_on_c, 0, 72, 69
2, 38568, Note_off_c, 0, 73, 64
2, 38571, Note_off_c, 0, 70, 64
2, 38624, Note_on_c, 0, 63, 49
2, 38624, Note_on_c, 0, 51, 33
2, 38627, Note_on_c, 0, 77, 73
2, 38628, Note_on_c, 0, 73, 67
2, 38628, Note_on_c, 0, 61, 54
2, 38641, Note_off_c, 0, 72, 64
2, 38641, Note_off_c, 0, 75, 64
2, 38687, Note_off_c, 0, 51, 64
2, 38687, Note_off_c, 0, 63, 64
2, 38691, Note_off_c, 0, 61, 64
2, 38696, Note_on_c, 0, 74, 67
2, 38696, Note_on_c, 0, 71, 78
2, 38713, Note_off_c, 0, 77, 64
2, 38714, Note_off_c, 0, 73, 64
2, 38741, Control_c, 0, 64, 0
2, 38741, Control_c, 0, 64, 0
2, 38760, Note_on_c, 0, 72, 71
2, 38763, Note_on_c, 0, 75, 62
2, 38763, Note_on_c, 0, 44, 71
2, 38772, Note_off_c, 0, 71, 64
2, 38772, Note_off_c, 0, 74, 64
2, 38794, Control_c, 0, 64, 127
2, 38794, Control_c, 0, 64, 127
2, 38876, Note_on_c, 0, 62, 71
2, 38892, Note_off_c, 0, 72, 64
2, 38895, Note_off_c, 0, 75, 64
2, 38914, Note_on_c, 0, 65, 69
2, 38924, Note_off_c, 0, 44, 64
2, 38934, Note_on_c, 0, 51, 33
2, 38936, Note_on_c, 0, 60, 51
2, 38940, Note_on_c, 0, 56, 44
2, 38943, Note_on_c, 0, 63, 69
2, 38946, Control_c, 0, 64, 0
2, 38946, Control_c, 0, 64, 0
2, 38951, Note_off_c, 0, 62, 64
2, 38975, Note_off_c, 0, 65, 64
2, 38997, Note_off_c, 0, 51, 64
2, 38999, Note_off_c, 0, 60, 64
2, 39003, Note_off_c, 0, 56, 64
2, 39032, Note_on_c, 0, 62, 69
2, 39040, Note_off_c, 0, 63, 64
2, 39126, Note_on_c, 0, 63, 69
2, 39128, Note_on_c, 0, 56, 32
2, 39133, Note_on_c, 0, 60, 58
2, 39133, Note_on_c, 0, 51, 40
2, 39148, Note_off_c, 0, 62, 64
2, 39167, Control_c, 0, 64, 127
2, 39167, Control_c, 0, 64, 127
2, 39196, Note_off_c, 0, 51, 64
2, 39196, Note_off_c, 0, 60, 64
2, 39342, Note_on_c, 0, 65, 67
2, 39347, Note_on_c, 0, 49, 58
2, 39362, Control_c, 0, 64, 0
2, 39362, Control_c, 0, 64, 0
2, 39522, Note_off_c, 0, 63, 64
2, 39524, Note_on_c, 0, 61, 41
2, 39524, Note_on_c, 0, 58, 41
2, 39528, Note_off_c, 0, 56, 64
2, 39633, Control_c, 0, 64, 127
2, 39633, Control_c, 0, 64, 127
2, 39707, Note_off_c, 0, 49, 64
2, 39707, Note_on_c, 0, 51, 50
2, 39713, Note_on_c, 0, 67, 66
2, 39722, Control_c, 0, 64, 0
2, 39722, Control_c, 0, 64, 0
2, 39735, Note_off_c, 0, 65, 64
2, 39748, Control_c, 0, 64, 127
2, 39748, Control_c, 0, 64, 127
2, 39879, Note_on_c, 0, 44, 59
2, 39884, Note_on_c, 0, 60, 55
2, 39884, Control_c, 0, 64, 0
2, 39884, Control_c, 0, 64, 0
2, 39890, Note_off_c, 0, 58, 64
2, 39904, Note_off_c, 0, 61, 64
2, 39920, Control_c, 0, 64, 127
2, 39920, Control_c, 0, 64, 127
2, 39990, Note_off_c, 0, 67, 64
2, 39995, Note_on_c, 0, 68, 54
2, 40026, Control_c, 0, 64, 0
2, 40026, Control_c, 0, 64, 0
2, 40053, Control_c, 0, 64, 127
2, 40053, Control_c, 0, 64, 127
2, 40056, Note_off_c, 0, 68, 64
2, 40056, Note_on_c, 0, 68, 62
2, 40135, Note_off_c, 0, 44, 64
2, 40136, Note_on_c, 0, 70, 58
2, 40148, Note_off_c, 0, 51, 64
2, 40179, Note_off_c, 0, 68, 64
2, 40206, Note_off_c, 0, 60, 64
2, 40215, Note_on_c, 0, 66, 67
2, 40219, Note_on_c, 0, 63, 59
2, 40223, Note_on_c, 0, 72, 70
2, 40229, Note_on_c, 0, 56, 56
2, 40236, Note_off_c, 0, 70, 64
2, 40242, Control_c, 0, 64, 0
2, 40242, Control_c, 0, 64, 0
2, 40282, Control_c, 0, 64, 127
2, 40282, Control_c, 0, 64, 127
2, 40396, Note_on_c, 0, 49, 50
2, 40400, Note_on_c, 0, 65, 62
2, 40403, Control_c, 0, 64, 0
2, 40403, Control_c, 0, 64, 0
2, 40430, Note_off_c, 0, 66, 64
2, 40434, Note_off_c, 0, 63, 64
2, 40458, Control_c, 0, 64, 127
2, 40458, Control_c, 0, 64, 127
2, 40479, Note_on_c, 0, 73, 66
2, 40484, Note_off_c, 0, 72, 64
2, 40561, Note_on_c, 0, 72, 62
2, 40573, Note_off_c, 0, 73, 64
2, 40717, Note_off_c, 0, 56, 64
2, 40726, Note_off_c, 0, 49, 64
2, 40737, Note_on_c, 0, 67, 58
2, 40741, Note_on_c, 0, 61, 56
2, 40744, Note_on_c, 0, 51, 51
2, 40751, Control_c, 0, 64, 0
2, 40751, Control_c, 0, 64, 0
2, 40765, Note_off_c, 0, 65, 64
2, 40786, Control_c, 0, 64, 127
2, 40786, Control_c, 0, 64, 127
2, 40820, Note_on_c, 0, 70, 50
2, 40826, Note_off_c, 0, 72, 64
2, 40916, Note_on_c, 0, 73, 64
2, 40920, Note_on_c, 0, 56, 55
2, 40924, Note_on_c, 0, 65, 55
2, 40929, Note_off_c, 0, 67, 64
2, 40933, Note_off_c, 0, 61, 64
2, 40936, Note_off_c, 0, 51, 64
2, 40938, Control_c, 0, 64, 0
2, 40938, Control_c, 0, 64, 0
2, 40941, Note_off_c, 0, 70, 64
2, 40949, Control_c, 0, 64, 127
2, 40949, Control_c, 0, 64, 127
2, 40992, Note_on_c, 0, 72, 57
2, 41000, Note_on_c, 0, 63, 58
2, 41031, Note_off_c, 0, 73, 64
2, 41039, Note_off_c, 0, 65, 64
2, 41051, Note_off_c, 0, 72, 64
2, 41059, Note_off_c, 0, 63, 64
2, 41072, Note_on_c, 0, 73, 69
2, 41096, Note_on_c, 0, 72, 67
2, 41104, Note_on_c, 0, 63, 59
2, 41129, Note_off_c, 0, 73, 64
2, 41205, Note_on_c, 0, 71, 58
2, 41205, Note_on_c, 0, 62, 57
2, 41206, Note_off_c, 0, 72, 64
2, 41214, Note_off_c, 0, 63, 64
2, 41309, Note_on_c, 0, 72, 62
2, 41309, Control_c, 0, 64, 0
2, 41309, Control_c, 0, 64, 0
2, 41317, Note_on_c, 0, 63, 58
2, 41330, Note_off_c, 0, 62, 64
2, 41330, Note_off_c, 0, 71, 64
2, 41390, Control_c, 0, 64, 127
2, 41390, Control_c, 0, 64, 127
2, 41417, Note_off_c, 0, 56, 64
2, 41529, Note_on_c, 0, 49, 46
2, 41531, Note_on_c, 0, 65, 62
2, 41546, Note_off_c, 0, 72, 64
2, 41562, Control_c, 0, 64, 0
2, 41562, Control_c, 0, 64, 0
2, 41629, Control_c, 0, 64, 127
2, 41629, Control_c, 0, 64, 127
2, 41710, Control_c, 0, 64, 0
2, 41710, Control_c, 0, 64, 0
2, 41712, Note_on_c, 0, 58, 41
2, 41718, Note_on_c, 0, 61, 46
2, 41728, Note_off_c, 0, 63, 64
2, 41779, Control_c, 0, 64, 127
2, 41779, Control_c, 0, 64, 127
2, 41885, Note_on_c, 0, 67, 66
2, 41886, Control_c, 0, 64, 0
2, 41886, Control_c, 0, 64, 0
2, 41893, Note_on_c, 0, 51, 46
2, 41906, Note_off_c, 0, 65, 64
2, 41911, Note_off_c, 0, 49, 64
2, 41944, Control_c, 0, 64, 127
2, 41944, Control_c, 0, 64, 127
2, 42034, Note_on_c, 0, 44, 55
2, 42050, Note_on_c, 0, 60, 71
2, 42070, Note_off_c, 0, 58, 64
2, 42075, Note_off_c, 0, 61, 64
2, 42141, Note_on_c, 0, 68, 67
2, 42164, Note_off_c, 0, 67, 64
2, 42173, Note_off_c, 0, 60, 64
2, 42195, Note_off_c, 0, 68, 64
2, 42204, Note_on_c, 0, 68, 73
2, 42215, Note_off_c, 0, 44, 64
2, 42236, Note_off_c, 0, 51, 64
2, 42276, Note_on_c, 0, 70, 60
2, 42303, Note_off_c, 0, 68, 64
2, 42345, Control_c, 0, 64, 0
2, 42345, Control_c, 0, 64, 0
2, 42360, Note_on_c, 0, 72, 67
2, 42363, Note_on_c, 0, 44, 56
2, 42370, Note_on_c, 0, 62, 71
2, 42370, Note_on_c, 0, 53, 57
2, 42380, Note_off_c, 0, 70, 64
2, 42413, Control_c, 0, 64, 127
2, 42413, Control_c, 0, 64, 127
2, 42520, Control_c, 0, 64, 0
2, 42520, Control_c, 0, 64, 0
2, 42534, Note_on_c, 0, 63, 73
2, 42544, Note_on_c, 0, 55, 42
2, 42544, Note_on_c, 0, 43, 42
2, 42555, Note_off_c, 0, 44, 64
2, 42562, Note_off_c, 0, 53, 64
2, 42562, Note_off_c, 0, 62, 64
2, 42579, Control_c, 0, 64, 127
2, 42579, Control_c, 0, 64, 127
2, 42618, Note_on_c, 0, 74, 64
2, 42647, Note_off_c, 0, 72, 64
2, 42708, Note_on_c, 0, 71, 59
2, 42716, Note_on_c, 0, 62, 67
2, 42724, Note_off_c, 0, 74, 64
2, 42726, Control_c, 0, 64, 0
2, 42726, Control_c, 0, 64, 0
2, 42735, Note_off_c, 0, 63, 64
2, 42760, Control_c, 0, 64, 127
2, 42760, Control_c, 0, 64, 127
2, 42848, Note_off_c, 0, 43, 64
2, 42848, Note_off_c, 0, 55, 64
2, 42862, Note_off_c, 0, 62, 64
2, 42885, Note_on_c, 0, 62, 51
2, 42885, Note_on_c, 0, 55, 55
2, 42890, Note_on_c, 0, 65, 77
2, 42974, Note_on_c, 0, 67, 50
2, 42979, Note_off_c, 0, 65, 64
2, 43024, Note_off_c, 0, 71, 64
2, 43054, Note_off_c, 0, 55, 64
2, 43054, Note_off_c, 0, 62, 64
2, 43077, Note_on_c, 0, 48, 50
2, 43085, Control_c, 0, 64, 0
2, 43085, Control_c, 0, 64, 0
2, 43088, Note_on_c, 0, 74, 55
2, 43088, Note_on_c, 0, 55, 42
2, 43096, Note_on_c, 0, 63, 47
2, 43129, Note_off_c, 0, 67, 64
2, 43134, Control_c, 0, 64, 127
2, 43134, Control_c, 0, 64, 127
2, 43206, Note_on_c, 0, 75, 62
2, 43222, Note_off_c, 0, 74, 64
2, 43258, Note_on_c, 0, 50, 63
2, 43263, Note_off_c, 0, 55, 64
2, 43289, Note_off_c, 0, 48, 64
2, 43314, Note_on_c, 0, 53, 57
2, 43324, Note_on_c, 0, 72, 63
2, 43338, Note_off_c, 0, 50, 64
2, 43347, Note_off_c, 0, 75, 64
2, 43365, Control_c, 0, 64, 0
2, 43365, Control_c, 0, 64, 0
2, 43467, Control_c, 0, 64, 127
2, 43467, Control_c, 0, 64, 127
2, 43578, Note_on_c, 0, 51, 56
2, 43602, Note_off_c, 0, 53, 64
2, 43615, Control_c, 0, 64, 0
2, 43615, Control_c, 0, 64, 0
2, 43670, Control_c, 0, 64, 127
2, 43670, Control_c, 0, 64, 127
2, 43695, Note_on_c, 0, 50, 63
2, 43705, Note_off_c, 0, 51, 64
2, 43843, Note_on_c, 0, 65, 65
2, 43850, Note_off_c, 0, 72, 64
2, 43850, Note_on_c, 0, 49, 64
2, 43866, Note_off_c, 0, 50, 64
2, 43879, Control_c, 0, 64, 0
2, 43879, Control_c, 0, 64, 0
2, 43939, Control_c, 0, 64, 127
2, 43939, Control_c, 0, 64, 127
2, 43947, Control_c, 0, 64, 127
2, 43947, Control_c, 0, 64, 127
2, 44075, Note_on_c, 0, 61, 44
2, 44077, Note_on_c, 0, 58, 50
2, 44106, Control_c, 0, 64, 127
2, 44106, Control_c, 0, 64, 127
2, 44108, Note_off_c, 0, 63, 64
2, 44281, Note_off_c, 0, 49, 64
2, 44283, Note_on_c, 0, 51, 59
2, 44286, Note_on_c, 0, 67, 59
2, 44295, Control_c, 0, 64, 0
2, 44295, Control_c, 0, 64, 0
2, 44304, Note_off_c, 0, 65, 64
2, 44371, Control_c, 0, 64, 127
2, 44371, Control_c, 0, 64, 127
2, 44441, Control_c, 0, 64, 0
2, 44441, Control_c, 0, 64, 0
2, 44512, Note_off_c, 0, 58, 64
2, 44524, Note_on_c, 0, 60, 59
2, 44524, Note_on_c, 0, 44, 63
2, 44525, Note_off_c, 0, 61, 64
2, 44570, Control_c, 0, 64, 127
2, 44570, Control_c, 0, 64, 127
2, 44634, Note_off_c, 0, 67, 64
2, 44651, Note_on_c, 0, 68, 72
2, 44709, Note_off_c, 0, 68, 64
2, 44714, Note_on_c, 0, 68, 69
2, 44732, Note_off_c, 0, 44, 64
2, 44748, Note_off_c, 0, 51, 64
2, 44832, Note_on_c, 0, 70, 55
2, 44848, Note_off_c, 0, 68, 64
2, 44944, Note_off_c, 0, 60, 64
2, 44944, Note_on_c, 0, 66, 47
2, 44948, Note_on_c, 0, 63, 44
2, 44948, Control_c, 0, 64, 0
2, 44948, Control_c, 0, 64, 0
2, 44955, Note_on_c, 0, 56, 55
2, 44956, Note_on_c, 0, 72, 64
2, 44958, Note_off_c, 0, 70, 64
2, 44999, Control_c, 0, 64, 127
2, 44999, Control_c, 0, 64, 127
2, 45186, Note_on_c, 0, 65, 58
2, 45193, Note_on_c, 0, 49, 50
2, 45202, Control_c, 0, 64, 0
2, 45202, Control_c, 0, 64, 0
2, 45210, Note_off_c, 0, 66, 64
2, 45214, Note_off_c, 0, 63, 64
2, 45277, Control_c, 0, 64, 127
2, 45277, Control_c, 0, 64, 127
2, 45284, Note_on_c, 0, 73, 57
2, 45303, Note_off_c, 0, 72, 64
2, 45382, Note_on_c, 0, 72, 65
2, 45400, Note_off_c, 0, 73, 64
2, 45526, Note_off_c, 0, 56, 64
2, 45558, Note_off_c, 0, 65, 64
2, 45558, Control_c, 0, 64, 0
2, 45558, Control_c, 0, 64, 0
2, 45564, Note_on_c, 0, 51, 59
2, 45567, Note_on_c, 0, 67, 46
2, 45567, Note_on_c, 0, 61, 58
2, 45590, Note_off_c, 0, 49, 64
2, 45610, Control_c, 0, 64, 127
2, 45610, Control_c, 0, 64, 127
2, 45660, Note_on_c, 0, 70, 57
2, 45670, Note_off_c, 0, 72, 64
2, 45775, Note_on_c, 0, 73, 62
2, 45780, Note_on_c, 0, 65, 47
2, 45787, Note_off_c, 0, 51, 64
2, 45788, Note_off_c, 0, 70, 64
2, 45788, Note_on_c, 0, 56, 50
2, 45790, Note_off_c, 0, 61, 64
2, 45791, Note_off_c, 0, 67, 64
2, 45801, Control_c, 0, 64, 0
2, 45801, Control_c, 0, 64, 0
2, 45833, Control_c, 0, 64, 127
2, 45833, Control_c, 0, 64, 127
2, 45884, Note_on_c, 0, 63, 51
2, 45891, Note_on_c, 0, 72, 46
2, 45901, Note_off_c, 0, 73, 64
2, 45906, Note_off_c, 0, 65, 64
2, 45940, Note_off_c, 0, 63, 64
2, 45947, Note_off_c, 0, 72, 64
2, 45960, Note_on_c, 0, 73, 59
2, 46000, Note_on_c, 0, 72, 59
2, 46000, Note_on_c, 0, 63, 55
2, 46029, Note_off_c, 0, 73, 64
2, 46035, Control_c, 0, 64, 0
2, 46035, Control_c, 0, 64, 0
2, 46091, Control_c, 0, 64, 127
2, 46091, Control_c, 0, 64, 127
2, 46104, Note_on_c, 0, 71, 42
2, 46104, Note_on_c, 0, 62, 49
2, 46124, Note_off_c, 0, 63, 64
2, 46124, Note_off_c, 0, 72, 64
2, 46233, Control_c, 0, 64, 0
2, 46233, Control_c, 0, 64, 0
2, 46248, Note_on_c, 0, 72, 58
2, 46248, Note_on_c, 0, 63, 56
2, 46265, Note_off_c, 0, 62, 64
2, 46265, Note_off_c, 0, 71, 64
2, 46315, Control_c, 0, 64, 127
2, 46315, Control_c, 0, 64, 127
2, 46382, Note_off_c, 0, 56, 64
2, 46560, Note_off_c, 0, 63, 64
2, 46560, Note_off_c, 0, 72, 64
2, 46628, Note_on_c, 0, 65, 56
2, 46636, Note_on_c, 0, 49, 50
2, 46645, Control_c, 0, 64, 0
2, 46645, Control_c, 0, 64, 0
2, 46708, Control_c, 0, 64, 127
2, 46708, Control_c, 0, 64, 127
2, 46868, Note_on_c, 0, 58, 36
2, 46871, Note_on_c, 0, 61, 31
2, 46901, Control_c, 0, 64, 0
2, 46901, Control_c, 0, 64, 0
2, 46933, Control_c, 0, 64, 127
2, 46933, Control_c, 0, 64, 127
2, 47084, Note_on_c, 0, 67, 57
2, 47100, Note_on_c, 0, 51, 32
2, 47123, Control_c, 0, 64, 0
2, 47123, Control_c, 0, 64, 0
2, 47141, Note_off_c, 0, 65, 64
2, 47149, Note_off_c, 0, 49, 64
2, 47176, Control_c, 0, 64, 127
2, 47176, Control_c, 0, 64, 127
2, 47343, Note_on_c, 0, 60, 49
2, 47347, Note_off_c, 0, 58, 64
2, 47347, Note_on_c, 0, 44, 48
2, 47350, Note_off_c, 0, 61, 64
2, 47370, Control_c, 0, 64, 0
2, 47370, Control_c, 0, 64, 0
2, 47424, Control_c, 0, 64, 127
2, 47424, Control_c, 0, 64, 127
2, 47548, Note_on_c, 0, 68, 59
2, 47554, Note_off_c, 0, 67, 64
2, 47592, Note_off_c, 0, 68, 64
2, 47612, Note_on_c, 0, 68, 51
2, 47758, Note_on_c, 0, 70, 49
2, 47790, Note_off_c, 0, 68, 64
2, 47994, Note_on_c, 0, 72, 41
2, 48006, Note_on_c, 0, 63, 34
2, 48009, Note_off_c, 0, 70, 64
2, 48046, Control_c, 0, 64, 0
2, 48046, Control_c, 0, 64, 0
2, 48188, Control_c, 0, 64, 127
2, 48188, Control_c, 0, 64, 127
2, 48225, Control_c, 0, 64, 0
2, 48225, Control_c, 0, 64, 0
2, 48841, Control_c, 0, 64, 127
2, 48841, Control_c, 0, 64, 127
2, 49581, Note_off_c, 0, 72, 64
2, 49590, Note_off_c, 0, 63, 64
2, 49601, Note_off_c, 0, 60, 64
2, 49607, Note_off_c, 0, 44, 64
2, 49614, Note_off_c, 0, 51, 64
2, 49867, Control_c, 0, 64, 0
2, 49867, Control_c, 0, 64, 0
