2, 0, Program_c, 0, 0
2, 0, Control_c, 0, 7, 127
2, 112, Control_c, 0, 64, 0
2, 168, Control_c, 0, 64, 127
2, 424, Control_c, 0, 64, 0
2, 480, Control_c, 0, 64, 127
2, 608, Note_on_c, 0, 57, 24
2, 610, Note_on_c, 0, 59, 28
2, 614, Note_on_c, 0, 65, 22
2, 911, Note_off_c, 0, 57, 64
2, 917, Note_off_c, 0, 65, 64
2, 928, Note_on_c, 0, 57, 22
2, 931, Note_on_c, 0, 60, 26
2, 934, Note_on_c, 0, 65, 22
2, 981, Note_off_c, 0, 59, 64
2, 1231, Note_off_c, 0, 57, 64
2, 1237, Note_off_c, 0, 65, 64
2, 1242, Note_on_c, 0, 62, 22
2, 1245, Note_on_c, 0, 65, 22
2, 1251, Note_on_c, 0, 57, 22
2, 1307, Note_off_c, 0, 60, 64
2, 1548, Note_off_c, 0, 65, 64
2, 1554, Note_off_c, 0, 57, 64
2, 1569, Note_on_c, 0, 65, 26
2, 1579, Note_on_c, 0, 59, 29
2, 1579, Note_on_c, 0, 57, 26
2, 1659, Note_off_c, 0, 62, 64
2, 1869, Note_off_c, 0, 65, 64
2, 1879, Note_off_c, 0, 57, 64
2, 1906, Note_on_c, 0, 65, 25
2, 1908, Note_on_c, 0, 60, 26
2, 1908, Note_on_c, 0, 57, 28
2, 1979, Note_off_c, 0, 59, 64
2, 2206, Note_off_c, 0, 65, 64
2, 2208, Note_off_c, 0, 57, 64
2, 2239, Note_on_c, 0, 65, 28
2, 2239, Note_on_c, 0, 62, 25
2, 2245, Note_on_c, 0, 57, 28
2, 2312, Note_off_c, 0, 60, 64
2, 2539, Note_off_c, 0, 65, 64
2, 2545, Note_off_c, 0, 57, 64
2, 2571, Note_on_c, 0, 65, 35
2, 2578, Note_on_c, 0, 59, 31
2, 2580, Note_on_c, 0, 57, 35
2, 2662, Note_off_c, 0, 62, 64
2, 2730, Control_c, 0, 64, 0
2, 2761, Control_c, 0, 64, 127
2, 2967, Note_off_c, 0, 65, 64
2, 2976, Note_off_c, 0, 57, 64
2, 2980, Note_on_c, 0, 65, 40
2, 2981, Note_on_c, 0, 57, 40
2, 2983, Note_on_c, 0, 60, 29
2, 3042, Control_c, 0, 64, 0
2, 3061, Note_off_c, 0, 59, 64
2, 3073, Control_c, 0, 64, 127
2, 3456, Note_on_c, 0, 62, 29
2, 3530, Note_off_c, 0, 65, 64
2, 3531, Note_off_c, 0, 57, 64
2, 3533, Note_off_c, 0, 60, 64
2, 3676, Note_on_c, 0, 64, 28
2, 3705, Note_off_c, 0, 62, 64
2, 3835, Note_on_c, 0, 62, 26
2, 3852, Note_off_c, 0, 64, 64
2, 3872, Control_c, 0, 64, 0
2, 3998, Control_c, 0, 64, 127
2, 4094, Note_on_c, 0, 65, 18
2, 4098, Note_on_c, 0, 60, 24
2, 4098, Note_on_c, 0, 57, 20
2, 4145, Note_off_c, 0, 62, 64
2, 4184, Control_c, 0, 64, 0
2, 4310, Control_c, 0, 64, 127
2, 5512, Note_on_c, 0, 71, 36
2, 5519, Note_on_c, 0, 62, 15
2, 5663, Note_off_c, 0, 57, 64
2, 5663, Note_off_c, 0, 60, 64
2, 5696, Note_off_c, 0, 65, 64
2, 5781, Note_on_c, 0, 72, 33
2, 5802, Note_off_c, 0, 71, 64
2, 5819, Note_off_c, 0, 62, 64
2, 5855, Note_on_c, 0, 74, 40
2, 5866, Note_on_c, 0, 65, 22
2, 5866, Note_on_c, 0, 62, 23
2, 5872, Note_on_c, 0, 57, 24
2, 5877, Note_off_c, 0, 72, 64
2, 6166, Note_off_c, 0, 62, 64
2, 6166, Note_off_c, 0, 65, 64
2, 6172, Note_off_c, 0, 57, 64
2, 6200, Note_on_c, 0, 65, 19
2, 6200, Note_on_c, 0, 62, 20
2, 6201, Note_on_c, 0, 69, 48
2, 6204, Note_on_c, 0, 57, 19
2, 6240, Note_off_c, 0, 74, 64
2, 6268, Control_c, 0, 64, 0
2, 6281, Control_c, 0, 64, 127
2, 6381, Note_off_c, 0, 69, 64
2, 6463, Note_on_c, 0, 69, 49
2, 6500, Note_off_c, 0, 62, 64
2, 6500, Note_off_c, 0, 65, 64
2, 6504, Note_off_c, 0, 57, 64
2, 6511, Note_on_c, 0, 72, 44
2, 6525, Note_on_c, 0, 65, 23
2, 6525, Note_on_c, 0, 60, 29
2, 6533, Note_on_c, 0, 57, 22
2, 6535, Note_off_c, 0, 69, 64
2, 6580, Control_c, 0, 64, 0
2, 6593, Control_c, 0, 64, 127
2, 6805, Note_off_c, 0, 60, 64
2, 6805, Note_off_c, 0, 65, 64
2, 6813, Note_off_c, 0, 57, 64
2, 6814, Note_on_c, 0, 65, 27
2, 6819, Note_on_c, 0, 57, 23
2, 6820, Note_on_c, 0, 60, 27
2, 7094, Note_off_c, 0, 65, 64
2, 7099, Note_off_c, 0, 57, 64
2, 7100, Note_off_c, 0, 60, 64
2, 7118, Note_on_c, 0, 71, 49
2, 7118, Note_on_c, 0, 65, 27
2, 7123, Note_on_c, 0, 57, 23
2, 7126, Note_on_c, 0, 60, 24
2, 7133, Note_off_c, 0, 72, 64
2, 7176, Control_c, 0, 64, 0
2, 7190, Control_c, 0, 64, 127
2, 7277, Note_off_c, 0, 71, 64
2, 7282, Note_on_c, 0, 72, 52
2, 7398, Note_off_c, 0, 65, 64
2, 7403, Note_off_c, 0, 57, 64
2, 7406, Note_off_c, 0, 60, 64
2, 7441, Note_on_c, 0, 65, 27
2, 7441, Note_on_c, 0, 60, 33
2, 7444, Note_on_c, 0, 74, 50
2, 7448, Note_on_c, 0, 55, 24
2, 7457, Note_off_c, 0, 72, 64
2, 7475, Control_c, 0, 64, 0
2, 7488, Control_c, 0, 64, 0
2, 7500, Control_c, 0, 64, 127
2, 7502, Control_c, 0, 64, 127
2, 7593, Note_on_c, 0, 76, 45
2, 7614, Note_off_c, 0, 74, 64
2, 7721, Note_off_c, 0, 60, 64
2, 7721, Note_off_c, 0, 65, 64
2, 7728, Note_off_c, 0, 55, 64
2, 7731, Note_on_c, 0, 77, 45
2, 7731, Note_on_c, 0, 59, 39
2, 7739, Note_on_c, 0, 65, 26
2, 7742, Note_on_c, 0, 55, 29
2, 7750, Note_off_c, 0, 76, 64
2, 7787, Control_c, 0, 64, 0
2, 7812, Control_c, 0, 64, 127
2, 8051, Note_off_c, 0, 59, 64
2, 8059, Note_off_c, 0, 65, 64
2, 8062, Note_off_c, 0, 55, 64
2, 8091, Note_on_c, 0, 65, 18
2, 8091, Note_on_c, 0, 59, 24
2, 8098, Note_on_c, 0, 55, 18
2, 8108, Note_on_c, 0, 79, 59
2, 8121, Note_off_c, 0, 77, 64
2, 8206, Control_c, 0, 64, 0
2, 8249, Control_c, 0, 64, 127
2, 8400, Note_on_c, 0, 74, 50
2, 8414, Note_off_c, 0, 79, 64
2, 8441, Note_off_c, 0, 59, 64
2, 8441, Note_off_c, 0, 65, 64
2, 8448, Note_off_c, 0, 55, 64
2, 8468, Note_on_c, 0, 76, 52
2, 8475, Note_on_c, 0, 55, 22
2, 8478, Note_on_c, 0, 64, 22
2, 8482, Note_off_c, 0, 74, 64
2, 8484, Note_on_c, 0, 59, 22
2, 8518, Control_c, 0, 64, 0
2, 8561, Control_c, 0, 64, 127
2, 8715, Note_off_c, 0, 55, 64
2, 8718, Note_off_c, 0, 64, 64
2, 8724, Note_off_c, 0, 59, 64
2, 8750, Note_on_c, 0, 64, 24
2, 8757, Note_on_c, 0, 55, 18
2, 8769, Note_on_c, 0, 59, 15
2, 8990, Note_off_c, 0, 64, 64
2, 8997, Note_off_c, 0, 55, 64
2, 9009, Note_off_c, 0, 59, 64
2, 9024, Note_on_c, 0, 64, 24
2, 9034, Note_on_c, 0, 59, 22
2, 9036, Note_on_c, 0, 55, 22
2, 9324, Note_off_c, 0, 64, 64
2, 9328, Note_on_c, 0, 58, 15
2, 9334, Note_off_c, 0, 59, 64
2, 9336, Note_off_c, 0, 55, 64
2, 9344, Note_on_c, 0, 64, 22
2, 9344, Note_on_c, 0, 54, 15
2, 9359, Note_on_c, 0, 78, 50
2, 9382, Note_off_c, 0, 76, 64
2, 9628, Note_off_c, 0, 58, 64
2, 9634, Note_on_c, 0, 58, 15
2, 9644, Note_off_c, 0, 54, 64
2, 9644, Note_off_c, 0, 64, 64
2, 9648, Note_on_c, 0, 75, 29
2, 9648, Note_on_c, 0, 63, 15
2, 9648, Note_on_c, 0, 54, 15
2, 9670, Note_off_c, 0, 78, 64
2, 9874, Note_off_c, 0, 58, 64
2, 9888, Note_off_c, 0, 54, 64
2, 9888, Note_off_c, 0, 63, 64
2, 9890, Note_on_c, 0, 58, 23
2, 9898, Note_on_c, 0, 54, 15
2, 9900, Note_on_c, 0, 63, 15
2, 10150, Note_off_c, 0, 58, 64
2, 10158, Note_off_c, 0, 54, 64
2, 10160, Note_off_c, 0, 63, 64
2, 10190, Note_on_c, 0, 63, 23
2, 10192, Note_on_c, 0, 57, 22
2, 10199, Note_on_c, 0, 77, 48
2, 10199, Note_on_c, 0, 53, 15
2, 10203, Note_off_c, 0, 75, 64
2, 10235, Control_c, 0, 64, 0
2, 10290, Control_c, 0, 64, 127
2, 10490, Note_off_c, 0, 63, 64
2, 10492, Note_off_c, 0, 57, 64
2, 10499, Note_off_c, 0, 53, 64
2, 10510, Note_on_c, 0, 74, 41
2, 10516, Note_on_c, 0, 62, 22
2, 10517, Note_on_c, 0, 57, 15
2, 10527, Note_on_c, 0, 53, 15
2, 10538, Note_off_c, 0, 77, 64
2, 10547, Control_c, 0, 64, 0
2, 10602, Control_c, 0, 64, 127
2, 10766, Note_off_c, 0, 62, 64
2, 10767, Note_off_c, 0, 57, 64
2, 10777, Note_off_c, 0, 53, 64
2, 10782, Note_on_c, 0, 53, 15
2, 10790, Note_on_c, 0, 62, 15
2, 10795, Note_on_c, 0, 57, 15
2, 10831, Control_c, 0, 64, 0
2, 10876, Control_c, 0, 64, 127
2, 11082, Note_off_c, 0, 53, 64
2, 11090, Note_off_c, 0, 62, 64
2, 11095, Note_off_c, 0, 57, 64
2, 11112, Note_on_c, 0, 56, 32
2, 11113, Control_c, 0, 64, 0
2, 11113, Note_on_c, 0, 52, 22
2, 11121, Note_on_c, 0, 62, 15
2, 11134, Control_c, 0, 64, 127
2, 11143, Control_c, 0, 64, 0
2, 11152, Note_on_c, 0, 76, 42
2, 11166, Note_off_c, 0, 74, 64
2, 11188, Control_c, 0, 64, 127
2, 11212, Note_on_c, 0, 71, 49
2, 11227, Note_off_c, 0, 76, 64
2, 11352, Note_off_c, 0, 56, 64
2, 11353, Note_off_c, 0, 52, 64
2, 11361, Note_off_c, 0, 62, 64
2, 11397, Note_on_c, 0, 56, 32
2, 11400, Note_on_c, 0, 52, 33
2, 11406, Note_on_c, 0, 62, 22
2, 11425, Control_c, 0, 64, 0
2, 11446, Control_c, 0, 64, 127
2, 11637, Note_off_c, 0, 56, 64
2, 11640, Note_off_c, 0, 52, 64
2, 11646, Note_off_c, 0, 62, 64
2, 11659, Note_on_c, 0, 56, 40
2, 11664, Note_on_c, 0, 62, 23
2, 11675, Note_on_c, 0, 52, 24
2, 11730, Control_c, 0, 64, 0
2, 11776, Control_c, 0, 64, 127
2, 11899, Note_off_c, 0, 56, 64
2, 11904, Note_off_c, 0, 62, 64
2, 11915, Note_off_c, 0, 52, 64
2, 11953, Note_on_c, 0, 57, 32
2, 11953, Note_on_c, 0, 52, 22
2, 11954, Note_on_c, 0, 62, 22
2, 11992, Note_off_c, 0, 71, 64
2, 11998, Note_on_c, 0, 72, 42
2, 12042, Control_c, 0, 64, 0
2, 12051, Control_c, 0, 64, 0
2, 12071, Note_on_c, 0, 68, 52
2, 12074, Control_c, 0, 64, 127
2, 12086, Note_off_c, 0, 72, 64
2, 12088, Control_c, 0, 64, 127
2, 12283, Note_off_c, 0, 52, 64
2, 12283, Note_off_c, 0, 57, 64
2, 12284, Note_off_c, 0, 62, 64
2, 12313, Note_on_c, 0, 62, 24
2, 12314, Note_on_c, 0, 52, 27
2, 12318, Note_on_c, 0, 59, 32
2, 12363, Control_c, 0, 64, 0
2, 12386, Control_c, 0, 64, 127
2, 12593, Note_off_c, 0, 62, 64
2, 12594, Note_off_c, 0, 52, 64
2, 12598, Note_off_c, 0, 59, 64
2, 12648, Note_on_c, 0, 62, 22
2, 12648, Note_on_c, 0, 59, 32
2, 12649, Note_on_c, 0, 52, 22
2, 12662, Note_off_c, 0, 68, 64
2, 12839, Control_c, 0, 64, 0
2, 12895, Control_c, 0, 64, 127
2, 13067, Note_on_c, 0, 45, 40
2, 13073, Note_off_c, 0, 59, 64
2, 13073, Note_off_c, 0, 62, 64
2, 13074, Note_off_c, 0, 52, 64
2, 13104, Note_on_c, 0, 71, 42
2, 13151, Control_c, 0, 64, 0
2, 13207, Control_c, 0, 64, 127
2, 13313, Note_on_c, 0, 72, 32
2, 13339, Note_off_c, 0, 71, 64
2, 13420, Note_on_c, 0, 71, 36
2, 13452, Note_off_c, 0, 72, 64
2, 13480, Note_off_c, 0, 45, 64
2, 13523, Note_on_c, 0, 69, 48
2, 13529, Note_on_c, 0, 57, 24
2, 13532, Note_on_c, 0, 62, 24
2, 13536, Note_on_c, 0, 65, 22
2, 13542, Note_off_c, 0, 71, 64
2, 13585, Control_c, 0, 64, 0
2, 13600, Control_c, 0, 64, 127
2, 13661, Note_on_c, 0, 71, 45
2, 13695, Note_off_c, 0, 69, 64
2, 13767, Note_on_c, 0, 72, 44
2, 13785, Note_off_c, 0, 71, 64
2, 13846, Note_off_c, 0, 57, 64
2, 13849, Note_off_c, 0, 62, 64
2, 13853, Note_off_c, 0, 65, 64
2, 13881, Note_on_c, 0, 62, 24
2, 13886, Note_on_c, 0, 76, 49
2, 13886, Note_on_c, 0, 65, 24
2, 13890, Note_on_c, 0, 57, 24
2, 13897, Control_c, 0, 64, 0
2, 13912, Note_off_c, 0, 72, 64
2, 13912, Control_c, 0, 64, 127
2, 13970, Control_c, 0, 64, 0
2, 14006, Control_c, 0, 64, 127
2, 14055, Note_off_c, 0, 76, 64
2, 14079, Note_on_c, 0, 74, 49
2, 14128, Note_off_c, 0, 74, 64
2, 14133, Note_on_c, 0, 69, 45
2, 14176, Note_off_c, 0, 69, 64
2, 14198, Note_off_c, 0, 62, 64
2, 14200, Note_on_c, 0, 69, 52
2, 14203, Note_off_c, 0, 65, 64
2, 14207, Note_off_c, 0, 57, 64
2, 14251, Note_on_c, 0, 65, 24
2, 14254, Note_on_c, 0, 72, 52
2, 14255, Note_on_c, 0, 60, 32
2, 14259, Note_on_c, 0, 57, 24
2, 14261, Note_off_c, 0, 69, 64
2, 14282, Control_c, 0, 64, 0
2, 14318, Control_c, 0, 64, 127
2, 14527, Note_off_c, 0, 65, 64
2, 14531, Note_off_c, 0, 60, 64
2, 14535, Note_off_c, 0, 57, 64
2, 14560, Note_on_c, 0, 65, 27
2, 14562, Note_on_c, 0, 57, 29
2, 14569, Note_on_c, 0, 60, 32
2, 14696, Note_off_c, 0, 72, 64
2, 14836, Note_off_c, 0, 65, 64
2, 14838, Note_off_c, 0, 57, 64
2, 14845, Note_off_c, 0, 60, 64
2, 14868, Note_on_c, 0, 65, 22
2, 14868, Note_on_c, 0, 60, 22
2, 14878, Note_on_c, 0, 71, 42
2, 14887, Note_on_c, 0, 57, 18
2, 14910, Control_c, 0, 64, 0
2, 14924, Control_c, 0, 64, 127
2, 14993, Note_on_c, 0, 72, 42
2, 15007, Note_off_c, 0, 71, 64
2, 15108, Note_off_c, 0, 60, 64
2, 15108, Note_off_c, 0, 65, 64
2, 15127, Note_off_c, 0, 57, 64
2, 15132, Note_on_c, 0, 74, 52
2, 15136, Note_on_c, 0, 65, 24
2, 15142, Note_off_c, 0, 72, 64
2, 15143, Note_on_c, 0, 60, 24
2, 15144, Note_on_c, 0, 55, 23
2, 15222, Control_c, 0, 64, 0
2, 15236, Control_c, 0, 64, 127
2, 15249, Note_on_c, 0, 76, 50
2, 15274, Note_off_c, 0, 74, 64
2, 15301, Note_on_c, 0, 74, 50
2, 15318, Note_off_c, 0, 76, 64
2, 15357, Note_on_c, 0, 73, 50
2, 15381, Note_off_c, 0, 74, 64
2, 15417, Note_on_c, 0, 74, 49
2, 15423, Note_off_c, 0, 73, 64
2, 15454, Note_on_c, 0, 75, 48
2, 15456, Note_off_c, 0, 65, 64
2, 15463, Note_off_c, 0, 60, 64
2, 15464, Note_off_c, 0, 55, 64
2, 15468, Note_off_c, 0, 74, 64
2, 15501, Note_on_c, 0, 55, 22
2, 15504, Note_on_c, 0, 65, 24
2, 15504, Note_on_c, 0, 59, 24
2, 15524, Note_on_c, 0, 76, 48
2, 15530, Note_off_c, 0, 75, 64
2, 15550, Control_c, 0, 64, 0
2, 15572, Control_c, 0, 64, 127
2, 15576, Note_on_c, 0, 77, 45
2, 15587, Note_off_c, 0, 76, 64
2, 15644, Note_on_c, 0, 79, 44
2, 15666, Note_off_c, 0, 77, 64
2, 15705, Note_on_c, 0, 80, 44
2, 15728, Note_off_c, 0, 79, 64
2, 15741, Note_off_c, 0, 55, 64
2, 15744, Note_off_c, 0, 59, 64
2, 15744, Note_off_c, 0, 65, 64
2, 15760, Note_on_c, 0, 65, 35
2, 15766, Note_on_c, 0, 83, 44
2, 15768, Note_on_c, 0, 59, 42
2, 15772, Note_on_c, 0, 55, 22
2, 15780, Note_off_c, 0, 80, 64
2, 15800, Control_c, 0, 64, 0
2, 15826, Note_on_c, 0, 81, 42
2, 15829, Control_c, 0, 64, 127
2, 15835, Note_off_c, 0, 83, 64
2, 15862, Control_c, 0, 64, 0
2, 15884, Control_c, 0, 64, 127
2, 15894, Note_on_c, 0, 79, 42
2, 15900, Note_off_c, 0, 81, 64
2, 15924, Control_c, 0, 64, 0
2, 15966, Control_c, 0, 64, 127
2, 15969, Note_on_c, 0, 77, 40
2, 15983, Note_off_c, 0, 79, 64
2, 16020, Note_off_c, 0, 65, 64
2, 16028, Note_off_c, 0, 59, 64
2, 16032, Note_off_c, 0, 55, 64
2, 16045, Note_on_c, 0, 76, 45
2, 16048, Note_on_c, 0, 64, 35
2, 16054, Note_on_c, 0, 59, 28
2, 16059, Note_off_c, 0, 77, 64
2, 16059, Note_on_c, 0, 55, 20
2, 16076, Control_c, 0, 64, 0
2, 16112, Control_c, 0, 64, 0
2, 16118, Control_c, 0, 64, 127
2, 16141, Control_c, 0, 64, 127
2, 16236, Control_c, 0, 64, 0
2, 16278, Control_c, 0, 64, 127
2, 16296, Note_off_c, 0, 64, 64
2, 16302, Note_off_c, 0, 59, 64
2, 16307, Note_off_c, 0, 55, 64
2, 16332, Note_on_c, 0, 64, 31
2, 16345, Control_c, 0, 64, 0
2, 16353, Note_on_c, 0, 59, 25
2, 16355, Note_on_c, 0, 55, 25
2, 16368, Control_c, 0, 64, 127
2, 16388, Control_c, 0, 64, 0
2, 16430, Control_c, 0, 64, 127
2, 16608, Note_off_c, 0, 64, 64
2, 16629, Note_off_c, 0, 59, 64
2, 16630, Note_on_c, 0, 64, 28
2, 16631, Note_off_c, 0, 55, 64
2, 16632, Note_on_c, 0, 55, 32
2, 16636, Note_on_c, 0, 59, 22
2, 16640, Control_c, 0, 64, 0
2, 16657, Control_c, 0, 64, 0
2, 16680, Control_c, 0, 64, 127
2, 16685, Control_c, 0, 64, 127
2, 16906, Note_off_c, 0, 64, 64
2, 16908, Note_off_c, 0, 55, 64
2, 16912, Note_off_c, 0, 59, 64
2, 16920, Note_on_c, 0, 58, 25
2, 16929, Note_on_c, 0, 54, 29
2, 16942, Note_on_c, 0, 64, 31
2, 16952, Control_c, 0, 64, 0
2, 16967, Note_off_c, 0, 76, 64
2, 16987, Control_c, 0, 64, 0
2, 16997, Control_c, 0, 64, 127
2, 17032, Control_c, 0, 64, 127
2, 17196, Note_off_c, 0, 58, 64
2, 17205, Note_off_c, 0, 54, 64
2, 17218, Note_off_c, 0, 64, 64
2, 17219, Note_on_c, 0, 58, 20
2, 17219, Note_on_c, 0, 54, 20
2, 17236, Note_on_c, 0, 63, 27
2, 17278, Note_on_c, 0, 78, 54
2, 17289, Control_c, 0, 64, 0
2, 17299, Control_c, 0, 64, 0
2, 17313, Control_c, 0, 64, 127
2, 17337, Note_on_c, 0, 75, 45
2, 17344, Control_c, 0, 64, 127
2, 17358, Note_off_c, 0, 78, 64
2, 17536, Note_off_c, 0, 54, 64
2, 17536, Note_off_c, 0, 58, 64
2, 17553, Note_off_c, 0, 63, 64
2, 17554, Note_on_c, 0, 58, 22
2, 17560, Note_on_c, 0, 63, 22
2, 17561, Note_on_c, 0, 54, 22
2, 17601, Control_c, 0, 64, 0
2, 17601, Control_c, 0, 64, 0
2, 17624, Control_c, 0, 64, 127
2, 17625, Control_c, 0, 64, 127
2, 17830, Note_off_c, 0, 58, 64
2, 17836, Note_off_c, 0, 63, 64
2, 17837, Note_off_c, 0, 54, 64
2, 17864, Note_on_c, 0, 53, 19
2, 17868, Note_off_c, 0, 75, 64
2, 17875, Note_on_c, 0, 63, 22
2, 17878, Note_on_c, 0, 57, 18
2, 17913, Control_c, 0, 64, 0
2, 17929, Control_c, 0, 64, 0
2, 17930, Note_on_c, 0, 76, 31
2, 17936, Control_c, 0, 64, 127
2, 17962, Control_c, 0, 64, 127
2, 17972, Note_on_c, 0, 77, 36
2, 18000, Note_off_c, 0, 76, 64
2, 18015, Note_on_c, 0, 80, 31
2, 18034, Note_off_c, 0, 77, 64
2, 18064, Note_on_c, 0, 79, 32
2, 18070, Note_off_c, 0, 80, 64
2, 18116, Note_on_c, 0, 78, 48
2, 18125, Note_off_c, 0, 79, 64
2, 18152, Note_on_c, 0, 77, 45
2, 18162, Note_off_c, 0, 78, 64
2, 18181, Note_off_c, 0, 53, 64
2, 18192, Note_off_c, 0, 63, 64
2, 18195, Note_off_c, 0, 57, 64
2, 18206, Note_on_c, 0, 74, 49
2, 18221, Note_on_c, 0, 57, 14
2, 18221, Note_on_c, 0, 53, 13
2, 18223, Note_on_c, 0, 62, 18
2, 18229, Note_off_c, 0, 77, 64
2, 18241, Control_c, 0, 64, 0
2, 18274, Control_c, 0, 64, 127
2, 18497, Note_off_c, 0, 53, 64
2, 18497, Note_off_c, 0, 57, 64
2, 18499, Note_off_c, 0, 62, 64
2, 18507, Note_on_c, 0, 57, 22
2, 18512, Note_on_c, 0, 53, 24
2, 18517, Note_on_c, 0, 62, 13
2, 18566, Control_c, 0, 64, 0
2, 18597, Control_c, 0, 64, 127
2, 18765, Note_on_c, 0, 80, 48
2, 18809, Note_off_c, 0, 74, 64
2, 18824, Note_off_c, 0, 57, 64
2, 18829, Note_off_c, 0, 53, 64
2, 18834, Note_off_c, 0, 62, 64
2, 18842, Note_on_c, 0, 84, 66
2, 18856, Note_on_c, 0, 52, 44
2, 18865, Note_off_c, 0, 80, 64
2, 18866, Note_on_c, 0, 40, 39
2, 18878, Control_c, 0, 64, 0
2, 18909, Control_c, 0, 64, 127
2, 18933, Control_c, 0, 64, 0
2, 18982, Control_c, 0, 64, 127
2, 19006, Note_off_c, 0, 84, 64
2, 19098, Note_on_c, 0, 83, 44
2, 19133, Note_on_c, 0, 84, 48
2, 19142, Note_off_c, 0, 83, 64
2, 19173, Note_off_c, 0, 52, 64
2, 19176, Note_on_c, 0, 83, 49
2, 19188, Note_off_c, 0, 84, 64
2, 19217, Note_on_c, 0, 62, 33
2, 19222, Note_on_c, 0, 80, 58
2, 19222, Note_on_c, 0, 59, 24
2, 19229, Note_on_c, 0, 52, 32
2, 19230, Note_off_c, 0, 40, 64
2, 19243, Note_off_c, 0, 83, 64
2, 19245, Control_c, 0, 64, 0
2, 19294, Control_c, 0, 64, 127
2, 19303, Control_c, 0, 64, 0
2, 19321, Note_off_c, 0, 80, 64
2, 19330, Control_c, 0, 64, 127
2, 19534, Note_off_c, 0, 62, 64
2, 19539, Note_off_c, 0, 59, 64
2, 19546, Note_off_c, 0, 52, 64
2, 19582, Note_on_c, 0, 68, 44
2, 19598, Note_on_c, 0, 59, 24
2, 19598, Note_on_c, 0, 52, 24
2, 19599, Note_on_c, 0, 62, 24
2, 19615, Control_c, 0, 64, 0
2, 19642, Control_c, 0, 64, 127
2, 19709, Control_c, 0, 64, 0
2, 19752, Control_c, 0, 64, 127
2, 19976, Note_on_c, 0, 45, 33
2, 19984, Note_on_c, 0, 69, 40
2, 20007, Note_off_c, 0, 68, 64
2, 20016, Note_off_c, 0, 52, 64
2, 20016, Note_off_c, 0, 59, 64
2, 20017, Note_off_c, 0, 62, 64
2, 20021, Control_c, 0, 64, 0
2, 20064, Control_c, 0, 64, 127
2, 20346, Note_on_c, 0, 60, 26
2, 20352, Note_on_c, 0, 52, 1
2, 20353, Note_on_c, 0, 57, 33
2, 20398, Note_off_c, 0, 45, 64
2, 20622, Note_off_c, 0, 60, 64
2, 20628, Note_off_c, 0, 52, 64
2, 20629, Note_off_c, 0, 57, 64
2, 20666, Note_on_c, 0, 64, 16
2, 20666, Note_on_c, 0, 60, 16
2, 20666, Note_on_c, 0, 57, 27
2, 20730, Control_c, 0, 64, 0
2, 20754, Control_c, 0, 64, 127
2, 20895, Note_off_c, 0, 69, 64
2, 20966, Note_off_c, 0, 57, 64
2, 20966, Note_off_c, 0, 60, 64
2, 20966, Note_off_c, 0, 64, 64
2, 20974, Note_on_c, 0, 71, 36
2, 20989, Note_on_c, 0, 57, 16
2, 20995, Note_on_c, 0, 65, 20
2, 21003, Note_on_c, 0, 62, 14
2, 21024, Control_c, 0, 64, 0
2, 21042, Control_c, 0, 64, 0
2, 21047, Control_c, 0, 64, 127
2, 21066, Control_c, 0, 64, 127
2, 21234, Note_on_c, 0, 72, 29
2, 21265, Note_off_c, 0, 57, 64
2, 21268, Note_off_c, 0, 71, 64
2, 21271, Note_off_c, 0, 65, 64
2, 21279, Note_off_c, 0, 62, 64
2, 21292, Note_on_c, 0, 74, 29
2, 21300, Note_on_c, 0, 62, 16
2, 21300, Note_on_c, 0, 57, 16
2, 21307, Control_c, 0, 64, 0
2, 21309, Note_on_c, 0, 65, 20
2, 21321, Note_off_c, 0, 72, 64
2, 21335, Control_c, 0, 64, 127
2, 21336, Control_c, 0, 64, 0
2, 21359, Control_c, 0, 64, 127
2, 21576, Note_off_c, 0, 57, 64
2, 21576, Note_off_c, 0, 62, 64
2, 21581, Note_on_c, 0, 69, 36
2, 21585, Note_off_c, 0, 65, 64
2, 21587, Note_on_c, 0, 57, 16
2, 21589, Note_on_c, 0, 62, 18
2, 21595, Note_on_c, 0, 65, 20
2, 21607, Control_c, 0, 64, 0
2, 21619, Control_c, 0, 64, 0
2, 21625, Note_off_c, 0, 74, 64
2, 21629, Control_c, 0, 64, 127
2, 21647, Control_c, 0, 64, 127
2, 21755, Note_off_c, 0, 69, 64
2, 21812, Note_on_c, 0, 69, 41
2, 21858, Note_on_c, 0, 72, 36
2, 21863, Note_off_c, 0, 57, 64
2, 21864, Control_c, 0, 64, 0
2, 21865, Note_off_c, 0, 62, 64
2, 21871, Note_off_c, 0, 65, 64
2, 21879, Note_on_c, 0, 65, 31
2, 21879, Control_c, 0, 64, 127
2, 21881, Note_on_c, 0, 57, 16
2, 21885, Note_on_c, 0, 60, 20
2, 21886, Note_off_c, 0, 69, 64
2, 21919, Control_c, 0, 64, 0
2, 21941, Control_c, 0, 64, 127
2, 22119, Note_off_c, 0, 65, 64
2, 22121, Note_off_c, 0, 57, 64
2, 22125, Note_off_c, 0, 60, 64
2, 22129, Note_on_c, 0, 65, 33
2, 22130, Note_on_c, 0, 57, 16
2, 22135, Note_on_c, 0, 60, 20
2, 22176, Control_c, 0, 64, 0
2, 22191, Control_c, 0, 64, 127
2, 22405, Note_off_c, 0, 65, 64
2, 22406, Note_off_c, 0, 57, 64
2, 22411, Note_off_c, 0, 60, 64
2, 22432, Note_on_c, 0, 60, 20
2, 22432, Note_on_c, 0, 57, 20
2, 22439, Note_on_c, 0, 65, 20
2, 22480, Note_on_c, 0, 71, 36
2, 22496, Note_off_c, 0, 72, 64
2, 22604, Note_on_c, 0, 72, 41
2, 22626, Note_off_c, 0, 71, 64
2, 22722, Note_off_c, 0, 57, 64
2, 22722, Note_off_c, 0, 60, 64
2, 22729, Note_off_c, 0, 65, 64
2, 22752, Note_on_c, 0, 60, 18
2, 22752, Note_on_c, 0, 55, 20
2, 22764, Note_on_c, 0, 65, 20
2, 22781, Note_on_c, 0, 74, 18
2, 22814, Note_off_c, 0, 72, 64
2, 22819, Note_on_c, 0, 76, 36
2, 22831, Note_off_c, 0, 74, 64
2, 22856, Note_on_c, 0, 74, 41
2, 22878, Note_off_c, 0, 76, 64
2, 22934, Note_on_c, 0, 73, 35
2, 22947, Note_off_c, 0, 74, 64
2, 23052, Note_off_c, 0, 55, 64
2, 23052, Note_off_c, 0, 60, 64
2, 23064, Note_off_c, 0, 65, 64
2, 23070, Note_on_c, 0, 74, 41
2, 23070, Note_on_c, 0, 65, 20
2, 23072, Note_on_c, 0, 55, 1
2, 23075, Note_on_c, 0, 59, 20
2, 23080, Control_c, 0, 64, 0
2, 23085, Note_off_c, 0, 73, 64
2, 23113, Control_c, 0, 64, 127
2, 23166, Note_on_c, 0, 76, 41
2, 23187, Note_off_c, 0, 74, 64
2, 23245, Note_on_c, 0, 77, 36
2, 23256, Note_off_c, 0, 76, 64
2, 23340, Note_off_c, 0, 65, 64
2, 23342, Note_off_c, 0, 55, 64
2, 23345, Note_off_c, 0, 59, 64
2, 23356, Note_on_c, 0, 79, 36
2, 23362, Note_on_c, 0, 59, 18
2, 23364, Note_off_c, 0, 77, 64
2, 23370, Note_on_c, 0, 65, 20
2, 23370, Note_on_c, 0, 55, 16
2, 23392, Control_c, 0, 64, 0
2, 23415, Control_c, 0, 64, 0
2, 23425, Control_c, 0, 64, 127
2, 23450, Control_c, 0, 64, 127
2, 23619, Note_off_c, 0, 79, 64
2, 23628, Note_on_c, 0, 74, 41
2, 23652, Note_off_c, 0, 59, 64
2, 23660, Note_off_c, 0, 55, 64
2, 23660, Note_off_c, 0, 65, 64
2, 23690, Note_on_c, 0, 59, 20
2, 23694, Note_on_c, 0, 55, 18
2, 23698, Note_on_c, 0, 64, 16
2, 23699, Note_on_c, 0, 76, 41
2, 23725, Note_off_c, 0, 74, 64
2, 23727, Control_c, 0, 64, 0
2, 23762, Control_c, 0, 64, 127
2, 23930, Note_off_c, 0, 59, 64
2, 23934, Note_off_c, 0, 55, 64
2, 23938, Note_off_c, 0, 64, 64
2, 23962, Note_on_c, 0, 64, 16
2, 23968, Note_on_c, 0, 59, 16
2, 23975, Note_on_c, 0, 55, 16
2, 24202, Note_off_c, 0, 64, 64
2, 24208, Note_off_c, 0, 59, 64
2, 24215, Note_off_c, 0, 55, 64
2, 24223, Note_on_c, 0, 64, 18
2, 24227, Note_on_c, 0, 59, 20
2, 24227, Note_on_c, 0, 55, 16
2, 24254, Control_c, 0, 64, 0
2, 24284, Control_c, 0, 64, 127
2, 24499, Note_off_c, 0, 64, 64
2, 24503, Note_off_c, 0, 55, 64
2, 24503, Note_off_c, 0, 59, 64
2, 24526, Note_on_c, 0, 58, 16
2, 24534, Note_on_c, 0, 54, 16
2, 24535, Note_on_c, 0, 78, 46
2, 24538, Note_on_c, 0, 64, 18
2, 24550, Note_off_c, 0, 76, 64
2, 24566, Control_c, 0, 64, 0
2, 24596, Control_c, 0, 64, 127
2, 24802, Note_off_c, 0, 58, 64
2, 24810, Note_off_c, 0, 54, 64
2, 24814, Note_off_c, 0, 64, 64
2, 24815, Note_on_c, 0, 58, 16
2, 24817, Note_on_c, 0, 54, 16
2, 24835, Note_on_c, 0, 75, 33
2, 24836, Note_on_c, 0, 63, 16
2, 24855, Note_off_c, 0, 78, 64
2, 25055, Note_off_c, 0, 58, 64
2, 25057, Note_off_c, 0, 54, 64
2, 25076, Note_off_c, 0, 63, 64
2, 25079, Note_on_c, 0, 58, 20
2, 25079, Note_on_c, 0, 54, 18
2, 25083, Control_c, 0, 64, 0
2, 25092, Note_on_c, 0, 63, 18
2, 25106, Control_c, 0, 64, 127
2, 25319, Note_off_c, 0, 54, 64
2, 25319, Note_off_c, 0, 58, 64
2, 25332, Note_off_c, 0, 63, 64
2, 25343, Control_c, 0, 64, 0
2, 25358, Note_on_c, 0, 77, 40
2, 25365, Note_on_c, 0, 63, 18
2, 25372, Note_on_c, 0, 57, 20
2, 25372, Note_on_c, 0, 53, 16
2, 25375, Control_c, 0, 64, 127
2, 25378, Note_off_c, 0, 75, 64
2, 25395, Control_c, 0, 64, 0
2, 25418, Control_c, 0, 64, 127
2, 25605, Note_off_c, 0, 63, 64
2, 25612, Note_off_c, 0, 53, 64
2, 25612, Note_off_c, 0, 57, 64
2, 25640, Note_on_c, 0, 62, 18
2, 25640, Note_on_c, 0, 57, 16
2, 25644, Note_on_c, 0, 53, 14
2, 25655, Control_c, 0, 64, 0
2, 25656, Note_on_c, 0, 74, 26
2, 25687, Control_c, 0, 64, 127
2, 25710, Note_off_c, 0, 77, 64
2, 25860, Note_off_c, 0, 57, 64
2, 25860, Note_off_c, 0, 62, 64
2, 25864, Note_off_c, 0, 53, 64
2, 25876, Note_on_c, 0, 53, 18
2, 25877, Note_on_c, 0, 57, 20
2, 25880, Note_on_c, 0, 62, 20
2, 25938, Control_c, 0, 64, 0
2, 25973, Control_c, 0, 64, 127
2, 26152, Note_off_c, 0, 53, 64
2, 26153, Note_off_c, 0, 57, 64
2, 26156, Note_off_c, 0, 62, 64
2, 26160, Note_on_c, 0, 56, 20
2, 26161, Note_on_c, 0, 62, 16
2, 26167, Note_on_c, 0, 52, 16
2, 26212, Note_on_c, 0, 76, 46
2, 26250, Control_c, 0, 64, 0
2, 26264, Note_off_c, 0, 74, 64
2, 26277, Note_on_c, 0, 71, 35
2, 26285, Control_c, 0, 64, 127
2, 26401, Note_off_c, 0, 76, 64
2, 26436, Note_off_c, 0, 56, 64
2, 26437, Note_off_c, 0, 62, 64
2, 26443, Note_off_c, 0, 52, 64
2, 26443, Control_c, 0, 64, 0
2, 26454, Control_c, 0, 64, 127
2, 26456, Note_on_c, 0, 56, 31
2, 26472, Note_on_c, 0, 62, 26
2, 26472, Note_on_c, 0, 52, 26
2, 26696, Note_off_c, 0, 56, 64
2, 26712, Note_off_c, 0, 52, 64
2, 26712, Note_off_c, 0, 62, 64
2, 26718, Note_on_c, 0, 56, 46
2, 26726, Note_on_c, 0, 62, 33
2, 26733, Note_on_c, 0, 52, 20
2, 26734, Control_c, 0, 64, 0
2, 26755, Control_c, 0, 64, 127
2, 26755, Control_c, 0, 64, 0
2, 26766, Control_c, 0, 64, 127
2, 26958, Note_off_c, 0, 56, 64
2, 26966, Note_off_c, 0, 62, 64
2, 26973, Note_off_c, 0, 52, 64
2, 26992, Note_on_c, 0, 52, 20
2, 26995, Note_on_c, 0, 62, 18
2, 26995, Note_on_c, 0, 57, 35
2, 27006, Note_off_c, 0, 71, 64
2, 27008, Note_on_c, 0, 72, 46
2, 27034, Control_c, 0, 64, 0
2, 27046, Control_c, 0, 64, 0
2, 27067, Control_c, 0, 64, 127
2, 27067, Control_c, 0, 64, 127
2, 27078, Note_on_c, 0, 68, 53
2, 27226, Note_off_c, 0, 72, 64
2, 27268, Note_off_c, 0, 52, 64
2, 27271, Note_off_c, 0, 57, 64
2, 27271, Note_off_c, 0, 62, 64
2, 27303, Note_on_c, 0, 52, 33
2, 27309, Note_on_c, 0, 59, 35
2, 27312, Note_on_c, 0, 62, 26
2, 27346, Control_c, 0, 64, 0
2, 27379, Control_c, 0, 64, 127
2, 27579, Note_off_c, 0, 52, 64
2, 27585, Note_off_c, 0, 59, 64
2, 27588, Note_off_c, 0, 62, 64
2, 27622, Note_on_c, 0, 52, 20
2, 27625, Note_on_c, 0, 59, 35
2, 27627, Note_on_c, 0, 62, 20
2, 27744, Control_c, 0, 64, 0
2, 27768, Control_c, 0, 64, 127
2, 27782, Note_off_c, 0, 68, 64
2, 27898, Note_on_c, 0, 71, 36
2, 27969, Note_off_c, 0, 71, 64
2, 28008, Note_on_c, 0, 71, 36
2, 28017, Note_on_c, 0, 45, 33
2, 28040, Note_off_c, 0, 52, 64
2, 28043, Note_off_c, 0, 59, 64
2, 28045, Note_off_c, 0, 62, 64
2, 28056, Control_c, 0, 64, 0
2, 28067, Note_off_c, 0, 71, 64
2, 28080, Control_c, 0, 64, 127
2, 28096, Note_on_c, 0, 71, 45
2, 28132, Note_off_c, 0, 71, 64
2, 28140, Control_c, 0, 64, 0
2, 28160, Note_on_c, 0, 71, 45
2, 28172, Control_c, 0, 64, 127
2, 28196, Note_off_c, 0, 71, 64
2, 28224, Note_on_c, 0, 71, 41
2, 28280, Note_off_c, 0, 71, 64
2, 28301, Note_on_c, 0, 72, 45
2, 28366, Note_on_c, 0, 71, 45
2, 28380, Note_off_c, 0, 72, 64
2, 28420, Note_on_c, 0, 57, 32
2, 28429, Note_on_c, 0, 65, 22
2, 28435, Note_on_c, 0, 62, 22
2, 28444, Note_on_c, 0, 69, 41
2, 28449, Note_off_c, 0, 71, 64
2, 28452, Note_off_c, 0, 45, 64
2, 28452, Control_c, 0, 64, 0
2, 28455, Control_c, 0, 64, 0
2, 28484, Control_c, 0, 64, 127
2, 28486, Control_c, 0, 64, 127
2, 28548, Note_on_c, 0, 71, 41
2, 28566, Note_off_c, 0, 69, 64
2, 28625, Note_on_c, 0, 72, 41
2, 28639, Note_off_c, 0, 71, 64
2, 28696, Note_off_c, 0, 57, 64
2, 28705, Note_off_c, 0, 65, 64
2, 28711, Note_off_c, 0, 62, 64
2, 28722, Note_on_c, 0, 76, 36
2, 28730, Note_on_c, 0, 62, 22
2, 28733, Note_on_c, 0, 65, 14
2, 28742, Note_on_c, 0, 57, 14
2, 28746, Note_off_c, 0, 72, 64
2, 28767, Control_c, 0, 64, 0
2, 28772, Control_c, 0, 64, 0
2, 28797, Control_c, 0, 64, 127
2, 28798, Control_c, 0, 64, 127
2, 28837, Note_off_c, 0, 76, 64
2, 28841, Note_on_c, 0, 74, 36
2, 28935, Note_on_c, 0, 69, 42
2, 28937, Note_off_c, 0, 74, 64
2, 28964, Note_off_c, 0, 69, 64
2, 28991, Note_on_c, 0, 69, 41
2, 29030, Note_off_c, 0, 62, 64
2, 29033, Note_off_c, 0, 65, 64
2, 29040, Note_on_c, 0, 72, 41
2, 29042, Note_off_c, 0, 57, 64
2, 29049, Note_off_c, 0, 69, 64
2, 29051, Note_on_c, 0, 65, 28
2, 29055, Note_on_c, 0, 60, 28
2, 29059, Note_on_c, 0, 57, 16
2, 29084, Control_c, 0, 64, 0
2, 29109, Control_c, 0, 64, 127
2, 29291, Note_off_c, 0, 65, 64
2, 29295, Note_off_c, 0, 60, 64
2, 29299, Note_off_c, 0, 57, 64
2, 29307, Note_on_c, 0, 65, 28
2, 29311, Note_on_c, 0, 60, 26
2, 29316, Note_on_c, 0, 57, 26
2, 29607, Note_off_c, 0, 65, 64
2, 29607, Note_off_c, 0, 72, 64
2, 29611, Note_off_c, 0, 60, 64
2, 29616, Note_off_c, 0, 57, 64
2, 29616, Note_on_c, 0, 65, 16
2, 29624, Note_on_c, 0, 56, 16
2, 29629, Note_on_c, 0, 60, 16
2, 29636, Note_on_c, 0, 71, 32
2, 29666, Control_c, 0, 64, 0
2, 29688, Control_c, 0, 64, 127
2, 29767, Note_on_c, 0, 72, 36
2, 29768, Note_off_c, 0, 71, 64
2, 29868, Control_c, 0, 64, 0
2, 29892, Note_off_c, 0, 65, 64
2, 29900, Note_off_c, 0, 56, 64
2, 29905, Note_off_c, 0, 60, 64
2, 29910, Control_c, 0, 64, 127
2, 29912, Note_on_c, 0, 65, 16
2, 29912, Note_on_c, 0, 55, 26
2, 29940, Note_on_c, 0, 74, 32
2, 29940, Note_on_c, 0, 60, 28
2, 29950, Note_off_c, 0, 72, 64
2, 29978, Control_c, 0, 64, 0
2, 30000, Control_c, 0, 64, 127
2, 30068, Note_off_c, 0, 74, 64
2, 30068, Note_on_c, 0, 76, 33
2, 30137, Note_on_c, 0, 74, 33
2, 30173, Note_off_c, 0, 76, 64
2, 30180, Control_c, 0, 64, 0
2, 30199, Note_on_c, 0, 73, 20
2, 30217, Note_off_c, 0, 74, 64
2, 30222, Control_c, 0, 64, 127
2, 30229, Note_off_c, 0, 55, 64
2, 30229, Note_off_c, 0, 65, 64
2, 30257, Note_off_c, 0, 60, 64
2, 30258, Note_on_c, 0, 55, 28
2, 30264, Note_on_c, 0, 65, 16
2, 30264, Note_on_c, 0, 59, 28
2, 30286, Note_off_c, 0, 73, 64
2, 30288, Note_on_c, 0, 74, 36
2, 30365, Note_on_c, 0, 83, 20
2, 30424, Note_off_c, 0, 74, 64
2, 30425, Note_on_c, 0, 77, 26
2, 30438, Note_off_c, 0, 83, 64
2, 30486, Note_on_c, 0, 81, 29
2, 30504, Note_off_c, 0, 77, 64
2, 30549, Note_on_c, 0, 76, 32
2, 30575, Note_off_c, 0, 55, 64
2, 30579, Note_off_c, 0, 81, 64
2, 30581, Note_off_c, 0, 59, 64
2, 30581, Note_off_c, 0, 65, 64
2, 30600, Note_on_c, 0, 65, 33
2, 30600, Note_on_c, 0, 55, 14
2, 30605, Note_on_c, 0, 59, 16
2, 30612, Note_on_c, 0, 79, 36
2, 30624, Note_off_c, 0, 76, 64
2, 30656, Control_c, 0, 64, 0
2, 30665, Note_on_c, 0, 74, 37
2, 30668, Note_off_c, 0, 79, 64
2, 30700, Control_c, 0, 64, 127
2, 30720, Note_off_c, 0, 74, 64
2, 30734, Note_on_c, 0, 77, 32
2, 30782, Note_on_c, 0, 69, 32
2, 30814, Note_off_c, 0, 77, 64
2, 30841, Note_on_c, 0, 67, 31
2, 30867, Note_off_c, 0, 69, 64
2, 30899, Note_on_c, 0, 74, 29
2, 30915, Note_off_c, 0, 67, 64
2, 30917, Note_off_c, 0, 55, 64
2, 30917, Note_off_c, 0, 65, 64
2, 30922, Note_off_c, 0, 59, 64
2, 30936, Note_on_c, 0, 64, 14
2, 30938, Note_on_c, 0, 59, 16
2, 30942, Note_on_c, 0, 55, 16
2, 30952, Control_c, 0, 64, 0
2, 30953, Note_on_c, 0, 76, 42
2, 30968, Control_c, 0, 64, 0
2, 30975, Control_c, 0, 64, 127
2, 30976, Note_off_c, 0, 74, 64
2, 31012, Control_c, 0, 64, 127
2, 31212, Note_off_c, 0, 64, 64
2, 31214, Note_off_c, 0, 59, 64
2, 31218, Note_off_c, 0, 55, 64
2, 31234, Note_on_c, 0, 64, 25
2, 31234, Note_on_c, 0, 55, 25
2, 31241, Note_on_c, 0, 59, 14
2, 31264, Control_c, 0, 64, 0
2, 31287, Control_c, 0, 64, 127
2, 31510, Note_off_c, 0, 55, 64
2, 31510, Note_off_c, 0, 64, 64
2, 31517, Note_off_c, 0, 59, 64
2, 31526, Note_on_c, 0, 64, 26
2, 31530, Note_on_c, 0, 55, 16
2, 31534, Note_on_c, 0, 59, 26
2, 31802, Note_off_c, 0, 64, 64
2, 31806, Note_off_c, 0, 55, 64
2, 31810, Note_off_c, 0, 59, 64
2, 31821, Note_on_c, 0, 58, 16
2, 31826, Note_on_c, 0, 64, 22
2, 31831, Note_on_c, 0, 54, 16
2, 31910, Control_c, 0, 64, 0
2, 31933, Control_c, 0, 64, 127
2, 31938, Note_off_c, 0, 76, 64
2, 32061, Note_off_c, 0, 58, 64
2, 32066, Note_off_c, 0, 64, 64
2, 32071, Note_off_c, 0, 54, 64
2, 32087, Note_on_c, 0, 54, 16
2, 32096, Note_on_c, 0, 63, 28
2, 32097, Note_on_c, 0, 58, 28
2, 32173, Note_on_c, 0, 78, 36
2, 32222, Control_c, 0, 64, 0
2, 32242, Note_on_c, 0, 75, 45
2, 32245, Control_c, 0, 64, 127
2, 32255, Note_off_c, 0, 78, 64
2, 32451, Note_off_c, 0, 54, 64
2, 32460, Note_off_c, 0, 63, 64
2, 32461, Note_off_c, 0, 58, 64
2, 32474, Note_on_c, 0, 58, 16
2, 32476, Note_on_c, 0, 54, 26
2, 32482, Note_on_c, 0, 63, 28
2, 32570, Control_c, 0, 64, 0
2, 32600, Control_c, 0, 64, 127
2, 32791, Note_off_c, 0, 58, 64
2, 32793, Note_off_c, 0, 54, 64
2, 32799, Note_off_c, 0, 63, 64
2, 32816, Note_on_c, 0, 57, 14
2, 32820, Note_on_c, 0, 53, 14
2, 32824, Note_on_c, 0, 63, 22
2, 32857, Note_off_c, 0, 75, 64
2, 32882, Control_c, 0, 64, 0
2, 32889, Note_on_c, 0, 76, 32
2, 32908, Control_c, 0, 64, 0
2, 32912, Control_c, 0, 64, 127
2, 32940, Note_on_c, 0, 77, 23
2, 32953, Control_c, 0, 64, 127
2, 32957, Note_off_c, 0, 76, 64
2, 32995, Note_on_c, 0, 80, 28
2, 33003, Note_off_c, 0, 77, 64
2, 33044, Note_on_c, 0, 79, 24
2, 33063, Note_off_c, 0, 80, 64
2, 33095, Note_on_c, 0, 78, 28
2, 33100, Note_off_c, 0, 79, 64
2, 33131, Note_on_c, 0, 77, 40
2, 33142, Note_off_c, 0, 78, 64
2, 33180, Note_off_c, 0, 57, 64
2, 33181, Note_on_c, 0, 74, 42
2, 33184, Note_off_c, 0, 53, 64
2, 33188, Note_off_c, 0, 63, 64
2, 33197, Note_on_c, 0, 53, 16
2, 33198, Note_on_c, 0, 62, 16
2, 33202, Note_on_c, 0, 57, 16
2, 33203, Note_off_c, 0, 77, 64
2, 33220, Control_c, 0, 64, 0
2, 33265, Control_c, 0, 64, 127
2, 33473, Note_off_c, 0, 53, 64
2, 33474, Note_off_c, 0, 62, 64
2, 33478, Note_off_c, 0, 57, 64
2, 33495, Note_on_c, 0, 62, 28
2, 33502, Note_on_c, 0, 53, 14
2, 33506, Note_on_c, 0, 57, 23
2, 33562, Control_c, 0, 64, 0
2, 33585, Control_c, 0, 64, 127
2, 33787, Note_on_c, 0, 80, 41
2, 33805, Note_off_c, 0, 74, 64
2, 33842, Note_on_c, 0, 84, 36
2, 33856, Note_on_c, 0, 40, 36
2, 33859, Note_off_c, 0, 62, 64
2, 33859, Note_on_c, 0, 52, 40
2, 33863, Note_off_c, 0, 80, 64
2, 33866, Note_off_c, 0, 53, 64
2, 33870, Note_off_c, 0, 57, 64
2, 33874, Control_c, 0, 64, 0
2, 33897, Control_c, 0, 64, 127
2, 33915, Control_c, 0, 64, 0
2, 33949, Control_c, 0, 64, 127
2, 33984, Note_off_c, 0, 84, 64
2, 34085, Note_on_c, 0, 83, 36
2, 34121, Note_on_c, 0, 84, 41
2, 34133, Note_off_c, 0, 83, 64
2, 34159, Note_on_c, 0, 83, 41
2, 34176, Note_off_c, 0, 52, 64
2, 34177, Note_off_c, 0, 84, 64
2, 34195, Note_on_c, 0, 59, 33
2, 34199, Note_on_c, 0, 80, 50
2, 34204, Note_on_c, 0, 62, 20
2, 34208, Note_on_c, 0, 52, 1
2, 34217, Note_off_c, 0, 83, 64
2, 34227, Control_c, 0, 64, 0
2, 34261, Control_c, 0, 64, 127
2, 34274, Note_off_c, 0, 40, 64
2, 34284, Note_off_c, 0, 80, 64
2, 34512, Note_off_c, 0, 59, 64
2, 34521, Note_off_c, 0, 62, 64
2, 34525, Note_off_c, 0, 52, 64
2, 34552, Note_on_c, 0, 68, 42
2, 34552, Note_on_c, 0, 62, 20
2, 34560, Note_on_c, 0, 52, 20
2, 34563, Note_on_c, 0, 59, 20
2, 34669, Control_c, 0, 64, 0
2, 34710, Control_c, 0, 64, 127
2, 34931, Note_on_c, 0, 69, 32
2, 34936, Note_on_c, 0, 45, 27
2, 34954, Note_off_c, 0, 68, 64
2, 34970, Note_off_c, 0, 62, 64
2, 34978, Note_off_c, 0, 52, 64
2, 34981, Note_off_c, 0, 59, 64
2, 34981, Control_c, 0, 64, 0
2, 35022, Control_c, 0, 64, 127
2, 35249, Note_on_c, 0, 52, 23
2, 35257, Note_on_c, 0, 60, 14
2, 35527, Control_c, 0, 64, 0
2, 35547, Note_on_c, 0, 64, 43
2, 35553, Note_off_c, 0, 69, 64
2, 35558, Control_c, 0, 64, 127
2, 35591, Note_off_c, 0, 45, 64
2, 35613, Note_off_c, 0, 52, 64
2, 35614, Note_off_c, 0, 60, 64
2, 35774, Control_c, 0, 64, 0
2, 35798, Control_c, 0, 64, 127
2, 35812, Note_on_c, 0, 76, 40
2, 35812, Note_on_c, 0, 56, 28
2, 35831, Note_off_c, 0, 64, 64
2, 35831, Note_on_c, 0, 47, 22
2, 35839, Control_c, 0, 64, 0
2, 35870, Control_c, 0, 64, 127
2, 36064, Note_on_c, 0, 75, 39
2, 36072, Note_on_c, 0, 40, 29
2, 36086, Control_c, 0, 64, 0
2, 36089, Note_off_c, 0, 76, 64
2, 36110, Control_c, 0, 64, 127
2, 36136, Note_off_c, 0, 56, 64
2, 36155, Note_off_c, 0, 47, 64
2, 36155, Note_on_c, 0, 71, 40
2, 36161, Note_off_c, 0, 75, 64
2, 36188, Control_c, 0, 64, 0
2, 36213, Control_c, 0, 64, 127
2, 36270, Note_off_c, 0, 40, 64
2, 36276, Note_on_c, 0, 74, 35
2, 36280, Note_on_c, 0, 40, 39
2, 36299, Note_off_c, 0, 71, 64
2, 36362, Note_off_c, 0, 74, 64
2, 36365, Note_on_c, 0, 71, 44
2, 36380, Control_c, 0, 64, 0
2, 36404, Control_c, 0, 64, 127
2, 36473, Note_on_c, 0, 74, 39
2, 36482, Note_on_c, 0, 48, 36
2, 36488, Note_on_c, 0, 57, 22
2, 36500, Control_c, 0, 64, 0
2, 36502, Note_off_c, 0, 71, 64
2, 36525, Control_c, 0, 64, 127
2, 36540, Note_on_c, 0, 76, 39
2, 36566, Note_off_c, 0, 74, 64
2, 36583, Control_c, 0, 64, 0
2, 36597, Note_on_c, 0, 74, 42
2, 36610, Control_c, 0, 64, 127
2, 36625, Note_off_c, 0, 76, 64
2, 36630, Note_off_c, 0, 40, 64
2, 36662, Note_on_c, 0, 72, 42
2, 36671, Note_on_c, 0, 40, 24
2, 36676, Note_off_c, 0, 74, 64
2, 36692, Control_c, 0, 64, 0
2, 36716, Control_c, 0, 64, 127
2, 36802, Control_c, 0, 64, 0
2, 36806, Note_off_c, 0, 48, 64
2, 36812, Note_off_c, 0, 57, 64
2, 36819, Control_c, 0, 64, 127
2, 36850, Note_off_c, 0, 40, 64
2, 36855, Note_on_c, 0, 81, 45
2, 36867, Note_off_c, 0, 72, 64
2, 36886, Note_on_c, 0, 40, 33
2, 36895, Control_c, 0, 64, 0
2, 36899, Note_on_c, 0, 69, 37
2, 36922, Control_c, 0, 64, 127
2, 36937, Note_off_c, 0, 81, 64
2, 37006, Control_c, 0, 64, 0
2, 37020, Control_c, 0, 64, 127
2, 37086, Note_on_c, 0, 56, 32
2, 37095, Note_on_c, 0, 76, 44
2, 37095, Note_on_c, 0, 47, 40
2, 37114, Control_c, 0, 64, 0
2, 37124, Note_off_c, 0, 69, 64
2, 37131, Control_c, 0, 64, 127
2, 37145, Note_on_c, 0, 77, 44
2, 37171, Note_off_c, 0, 76, 64
2, 37183, Note_on_c, 0, 76, 48
2, 37198, Control_c, 0, 64, 0
2, 37200, Note_off_c, 0, 77, 64
2, 37212, Control_c, 0, 64, 127
2, 37296, Note_on_c, 0, 75, 48
2, 37297, Note_off_c, 0, 40, 64
2, 37304, Note_on_c, 0, 40, 45
2, 37318, Control_c, 0, 64, 0
2, 37321, Note_off_c, 0, 76, 64
2, 37332, Control_c, 0, 64, 127
2, 37351, Note_on_c, 0, 71, 40
2, 37376, Note_off_c, 0, 75, 64
2, 37410, Note_off_c, 0, 56, 64
2, 37419, Note_off_c, 0, 47, 64
2, 37494, Note_off_c, 0, 40, 64
2, 37504, Note_on_c, 0, 74, 58
2, 37504, Note_on_c, 0, 40, 44
2, 37510, Control_c, 0, 64, 0
2, 37524, Control_c, 0, 64, 127
2, 37529, Note_off_c, 0, 71, 64
2, 37581, Note_off_c, 0, 74, 64
2, 37596, Note_on_c, 0, 71, 48
2, 37688, Note_on_c, 0, 45, 22
2, 37690, Note_on_c, 0, 54, 28
2, 37698, Note_on_c, 0, 74, 45
2, 37702, Note_off_c, 0, 71, 64
2, 37756, Note_on_c, 0, 76, 44
2, 37766, Note_off_c, 0, 74, 64
2, 37788, Control_c, 0, 64, 0
2, 37801, Control_c, 0, 64, 127
2, 37802, Note_on_c, 0, 74, 52
2, 37822, Note_off_c, 0, 76, 64
2, 37856, Note_off_c, 0, 40, 64
2, 37865, Note_on_c, 0, 73, 61
2, 37875, Note_off_c, 0, 74, 64
2, 37885, Note_on_c, 0, 40, 52
2, 37985, Control_c, 0, 64, 0
2, 37998, Note_off_c, 0, 73, 64
2, 38012, Note_off_c, 0, 45, 64
2, 38014, Note_off_c, 0, 54, 64
2, 38020, Control_c, 0, 64, 127
2, 38029, Note_on_c, 0, 72, 53
2, 38060, Note_off_c, 0, 40, 64
2, 38077, Note_on_c, 0, 63, 62
2, 38085, Note_on_c, 0, 40, 44
2, 38093, Note_off_c, 0, 72, 64
2, 38100, Control_c, 0, 64, 0
2, 38113, Control_c, 0, 64, 127
2, 38172, Control_c, 0, 64, 0
2, 38182, Note_off_c, 0, 63, 64
2, 38196, Control_c, 0, 64, 127
2, 38238, Note_on_c, 0, 64, 44
2, 38266, Note_on_c, 0, 56, 35
2, 38279, Note_on_c, 0, 47, 50
2, 38282, Note_on_c, 0, 76, 54
2, 38297, Control_c, 0, 64, 0
2, 38332, Note_off_c, 0, 64, 64
2, 38332, Control_c, 0, 64, 127
2, 38353, Control_c, 0, 64, 0
2, 38367, Control_c, 0, 64, 127
2, 38397, Note_off_c, 0, 56, 64
2, 38401, Note_off_c, 0, 47, 64
2, 38467, Note_off_c, 0, 40, 64
2, 38469, Note_on_c, 0, 75, 57
2, 38479, Note_on_c, 0, 40, 57
2, 38484, Note_off_c, 0, 76, 64
2, 38484, Control_c, 0, 64, 0
2, 38508, Control_c, 0, 64, 127
2, 38541, Note_on_c, 0, 71, 52
2, 38563, Control_c, 0, 64, 0
2, 38564, Note_off_c, 0, 75, 64
2, 38575, Control_c, 0, 64, 127
2, 38654, Note_off_c, 0, 40, 64
2, 38655, Note_on_c, 0, 74, 52
2, 38658, Note_on_c, 0, 40, 53
2, 38664, Note_off_c, 0, 71, 64
2, 38665, Control_c, 0, 64, 0
2, 38679, Control_c, 0, 64, 127
2, 38698, Note_on_c, 0, 71, 57
2, 38728, Note_off_c, 0, 74, 64
2, 38849, Note_on_c, 0, 54, 35
2, 38855, Note_on_c, 0, 74, 53
2, 38861, Note_on_c, 0, 45, 50
2, 38865, Note_off_c, 0, 71, 64
2, 38875, Control_c, 0, 64, 0
2, 38887, Control_c, 0, 64, 127
2, 38907, Note_on_c, 0, 76, 44
2, 38910, Note_off_c, 0, 74, 64
2, 38944, Note_on_c, 0, 74, 58
2, 38956, Control_c, 0, 64, 0
2, 38969, Note_off_c, 0, 45, 64
2, 38975, Note_off_c, 0, 76, 64
2, 38979, Control_c, 0, 64, 127
2, 38981, Note_off_c, 0, 54, 64
2, 38984, Note_off_c, 0, 40, 64
2, 39019, Note_on_c, 0, 72, 33
2, 39033, Note_on_c, 0, 40, 58
2, 39035, Note_off_c, 0, 74, 64
2, 39059, Note_off_c, 0, 72, 64
2, 39186, Note_on_c, 0, 76, 59
2, 39187, Note_on_c, 0, 84, 61
2, 39199, Control_c, 0, 64, 0
2, 39221, Note_off_c, 0, 40, 64
2, 39233, Control_c, 0, 64, 127
2, 39248, Note_on_c, 0, 69, 63
2, 39261, Note_on_c, 0, 40, 67
2, 39268, Control_c, 0, 64, 0
2, 39274, Note_off_c, 0, 84, 64
2, 39288, Note_off_c, 0, 76, 64
2, 39291, Control_c, 0, 64, 127
2, 39437, Control_c, 0, 64, 0
2, 39489, Control_c, 0, 64, 127
2, 39495, Note_on_c, 0, 70, 68
2, 39500, Note_on_c, 0, 67, 62
2, 39511, Control_c, 0, 64, 0
2, 39519, Note_off_c, 0, 40, 64
2, 39536, Note_off_c, 0, 69, 64
2, 39545, Control_c, 0, 64, 127
2, 39570, Note_on_c, 0, 76, 67
2, 39574, Note_on_c, 0, 66, 67
2, 39589, Note_off_c, 0, 67, 64
2, 39607, Note_off_c, 0, 70, 64
2, 39642, Note_on_c, 0, 74, 65
2, 39651, Note_on_c, 0, 69, 62
2, 39651, Note_on_c, 0, 65, 68
2, 39657, Note_off_c, 0, 66, 64
2, 39662, Note_off_c, 0, 76, 64
2, 39726, Note_on_c, 0, 71, 65
2, 39732, Note_on_c, 0, 68, 67
2, 39732, Note_on_c, 0, 64, 68
2, 39742, Note_off_c, 0, 65, 64
2, 39747, Note_off_c, 0, 74, 64
2, 39748, Note_off_c, 0, 69, 64
2, 39749, Control_c, 0, 64, 0
2, 39801, Control_c, 0, 64, 127
2, 39832, Control_c, 0, 64, 0
2, 39857, Control_c, 0, 64, 127
2, 39966, Note_off_c, 0, 71, 64
2, 39972, Note_off_c, 0, 64, 64
2, 39972, Note_off_c, 0, 68, 64
2, 40097, Note_on_c, 0, 71, 58
2, 40097, Note_on_c, 0, 68, 57
2, 40097, Note_on_c, 0, 64, 58
2, 40144, Control_c, 0, 64, 0
2, 40169, Control_c, 0, 64, 127
2, 40220, Control_c, 0, 64, 0
2, 40242, Control_c, 0, 64, 127
2, 40502, Note_off_c, 0, 68, 64
2, 40508, Note_on_c, 0, 70, 44
2, 40512, Note_on_c, 0, 67, 37
2, 40516, Note_off_c, 0, 64, 64
2, 40516, Note_off_c, 0, 71, 64
2, 40532, Control_c, 0, 64, 0
2, 40554, Control_c, 0, 64, 127
2, 40630, Note_on_c, 0, 76, 42
2, 40633, Note_off_c, 0, 67, 64
2, 40640, Note_on_c, 0, 66, 29
2, 40651, Note_off_c, 0, 70, 64
2, 40675, Control_c, 0, 64, 0
2, 40737, Note_on_c, 0, 74, 35
2, 40750, Note_on_c, 0, 65, 36
2, 40759, Note_on_c, 0, 69, 26
2, 40772, Note_off_c, 0, 76, 64
2, 40778, Note_off_c, 0, 66, 64
2, 40789, Control_c, 0, 64, 127
2, 40842, Control_c, 0, 64, 0
2, 40891, Note_on_c, 0, 68, 39
2, 40896, Note_on_c, 0, 71, 37
2, 40896, Note_on_c, 0, 64, 24
2, 40897, Note_off_c, 0, 65, 64
2, 40906, Control_c, 0, 64, 127
2, 40909, Note_off_c, 0, 69, 64
2, 40911, Note_off_c, 0, 74, 64
2, 40987, Control_c, 0, 64, 0
2, 41101, Control_c, 0, 64, 127
2, 41154, Control_c, 0, 64, 0
2, 41218, Control_c, 0, 64, 127
2, 42094, Control_c, 0, 64, 0
2, 42117, Control_c, 0, 64, 127
2, 42339, Note_on_c, 0, 62, 10
2, 42341, Note_on_c, 0, 65, 10
2, 42353, Note_on_c, 0, 57, 10
2, 42362, Note_off_c, 0, 64, 64
2, 42406, Control_c, 0, 64, 0
2, 42429, Control_c, 0, 64, 127
2, 42641, Note_on_c, 0, 72, 35
2, 42656, Note_off_c, 0, 71, 64
2, 42703, Note_off_c, 0, 62, 64
2, 42705, Note_off_c, 0, 65, 64
2, 42717, Note_off_c, 0, 57, 64
2, 42717, Note_on_c, 0, 74, 35
2, 42720, Note_on_c, 0, 65, 23
2, 42733, Note_on_c, 0, 62, 18
2, 42741, Note_off_c, 0, 72, 64
2, 42741, Note_on_c, 0, 57, 14
2, 42960, Note_off_c, 0, 65, 64
2, 42973, Note_off_c, 0, 62, 64
2, 42981, Note_off_c, 0, 57, 64
2, 43000, Note_on_c, 0, 65, 23
2, 43014, Note_on_c, 0, 62, 23
2, 43016, Note_on_c, 0, 57, 18
2, 43057, Control_c, 0, 64, 0
2, 43079, Control_c, 0, 64, 127
2, 43170, Note_off_c, 0, 74, 64
2, 43208, Note_on_c, 0, 69, 37
2, 43228, Note_off_c, 0, 68, 64
2, 43245, Note_off_c, 0, 69, 64
2, 43267, Note_on_c, 0, 69, 41
2, 43276, Note_off_c, 0, 65, 64
2, 43290, Note_off_c, 0, 62, 64
2, 43292, Note_off_c, 0, 57, 64
2, 43315, Note_on_c, 0, 65, 16
2, 43323, Note_on_c, 0, 72, 46
2, 43323, Note_on_c, 0, 60, 16
2, 43332, Note_on_c, 0, 57, 16
2, 43338, Note_off_c, 0, 69, 64
2, 43369, Control_c, 0, 64, 0
2, 43391, Control_c, 0, 64, 127
2, 43555, Note_off_c, 0, 65, 64
2, 43563, Note_off_c, 0, 60, 64
2, 43572, Note_off_c, 0, 57, 64
2, 43592, Note_on_c, 0, 65, 23
2, 43600, Note_on_c, 0, 57, 23
2, 43601, Note_off_c, 0, 72, 64
2, 43604, Note_on_c, 0, 60, 23
2, 43868, Note_off_c, 0, 65, 64
2, 43876, Note_off_c, 0, 57, 64
2, 43880, Note_off_c, 0, 60, 64
2, 43880, Note_on_c, 0, 65, 23
2, 43900, Note_on_c, 0, 71, 41
2, 43900, Note_on_c, 0, 60, 16
2, 43900, Note_on_c, 0, 57, 18
2, 44056, Note_on_c, 0, 72, 46
2, 44081, Note_off_c, 0, 71, 64
2, 44120, Note_off_c, 0, 65, 64
2, 44140, Note_off_c, 0, 57, 64
2, 44140, Note_off_c, 0, 60, 64
2, 44157, Note_on_c, 0, 55, 14
2, 44169, Note_on_c, 0, 60, 23
2, 44174, Note_off_c, 0, 72, 64
2, 44176, Note_on_c, 0, 65, 25
2, 44214, Note_on_c, 0, 74, 35
2, 44246, Note_on_c, 0, 76, 41
2, 44253, Note_off_c, 0, 74, 64
2, 44289, Note_on_c, 0, 74, 48
2, 44309, Note_off_c, 0, 76, 64
2, 44424, Note_on_c, 0, 73, 41
2, 44432, Note_off_c, 0, 74, 64
2, 44474, Note_off_c, 0, 55, 64
2, 44486, Note_off_c, 0, 60, 64
2, 44493, Note_off_c, 0, 65, 64
2, 44520, Note_on_c, 0, 65, 10
2, 44520, Note_on_c, 0, 55, 16
2, 44531, Control_c, 0, 64, 0
2, 44532, Note_on_c, 0, 59, 23
2, 44546, Note_on_c, 0, 74, 41
2, 44554, Note_off_c, 0, 73, 64
2, 44567, Control_c, 0, 64, 127
2, 44636, Note_on_c, 0, 76, 50
2, 44661, Note_off_c, 0, 74, 64
2, 44713, Note_on_c, 0, 77, 41
2, 44731, Note_off_c, 0, 76, 64
2, 44796, Note_off_c, 0, 55, 64
2, 44796, Note_off_c, 0, 65, 64
2, 44808, Note_off_c, 0, 59, 64
2, 44808, Note_on_c, 0, 79, 46
2, 44818, Note_on_c, 0, 59, 23
2, 44820, Note_on_c, 0, 55, 14
2, 44827, Note_on_c, 0, 65, 14
2, 44829, Note_off_c, 0, 77, 64
2, 44843, Control_c, 0, 64, 0
2, 44877, Control_c, 0, 64, 0
2, 44879, Control_c, 0, 64, 127
2, 44912, Control_c, 0, 64, 127
2, 44940, Note_off_c, 0, 79, 64
2, 45087, Note_on_c, 0, 74, 46
2, 45135, Note_off_c, 0, 59, 64
2, 45137, Note_off_c, 0, 55, 64
2, 45144, Note_off_c, 0, 65, 64
2, 45159, Note_on_c, 0, 76, 52
2, 45159, Note_on_c, 0, 59, 23
2, 45164, Note_on_c, 0, 64, 16
2, 45164, Note_on_c, 0, 55, 14
2, 45170, Note_off_c, 0, 74, 64
2, 45189, Control_c, 0, 64, 0
2, 45224, Control_c, 0, 64, 127
2, 45399, Note_off_c, 0, 59, 64
2, 45404, Note_off_c, 0, 55, 64
2, 45404, Note_off_c, 0, 64, 64
2, 45432, Note_on_c, 0, 64, 16
2, 45442, Note_on_c, 0, 59, 23
2, 45444, Note_on_c, 0, 55, 14
2, 45672, Note_off_c, 0, 64, 64
2, 45682, Note_off_c, 0, 59, 64
2, 45684, Note_off_c, 0, 55, 64
2, 45700, Note_on_c, 0, 64, 18
2, 45702, Note_on_c, 0, 55, 16
2, 45708, Note_on_c, 0, 59, 23
2, 45709, Control_c, 0, 64, 0
2, 45745, Control_c, 0, 64, 127
2, 45940, Note_off_c, 0, 64, 64
2, 45942, Note_off_c, 0, 55, 64
2, 45948, Note_off_c, 0, 59, 64
2, 45985, Note_on_c, 0, 54, 13
2, 45987, Note_on_c, 0, 58, 13
2, 45991, Note_on_c, 0, 78, 57
2, 45997, Note_on_c, 0, 64, 16
2, 46000, Control_c, 0, 64, 0
2, 46019, Note_off_c, 0, 76, 64
2, 46021, Control_c, 0, 64, 0
2, 46029, Control_c, 0, 64, 127
2, 46057, Control_c, 0, 64, 127
2, 46225, Note_off_c, 0, 54, 64
2, 46227, Note_off_c, 0, 58, 64
2, 46237, Note_off_c, 0, 64, 64
2, 46266, Note_on_c, 0, 54, 12
2, 46272, Note_on_c, 0, 75, 29
2, 46272, Note_on_c, 0, 58, 18
2, 46287, Note_on_c, 0, 63, 5
2, 46301, Note_off_c, 0, 78, 64
2, 46312, Control_c, 0, 64, 0
2, 46341, Control_c, 0, 64, 127
2, 46506, Note_off_c, 0, 54, 64
2, 46512, Note_off_c, 0, 58, 64
2, 46527, Note_off_c, 0, 63, 64
2, 46528, Note_on_c, 0, 58, 11
2, 46531, Note_on_c, 0, 54, 12
2, 46536, Control_c, 0, 64, 0
2, 46537, Note_on_c, 0, 63, 11
2, 46571, Control_c, 0, 64, 127
2, 46768, Note_off_c, 0, 58, 64
2, 46771, Note_off_c, 0, 54, 64
2, 46777, Note_off_c, 0, 63, 64
2, 46811, Note_off_c, 0, 75, 64
2, 46819, Note_on_c, 0, 63, 11
2, 46824, Note_on_c, 0, 77, 51
2, 46828, Note_on_c, 0, 53, 11
2, 46829, Note_on_c, 0, 57, 16
2, 46829, Control_c, 0, 64, 0
2, 46843, Control_c, 0, 64, 127
2, 46848, Control_c, 0, 64, 0
2, 46883, Control_c, 0, 64, 127
2, 47059, Note_off_c, 0, 63, 64
2, 47068, Note_off_c, 0, 53, 64
2, 47069, Note_off_c, 0, 57, 64
2, 47090, Note_on_c, 0, 74, 27
2, 47096, Note_on_c, 0, 57, 23
2, 47103, Note_on_c, 0, 62, 16
2, 47103, Note_on_c, 0, 53, 16
2, 47112, Note_off_c, 0, 77, 64
2, 47141, Control_c, 0, 64, 0
2, 47155, Control_c, 0, 64, 127
2, 47316, Note_off_c, 0, 57, 64
2, 47323, Note_off_c, 0, 53, 64
2, 47323, Note_off_c, 0, 62, 64
2, 47335, Note_on_c, 0, 57, 16
2, 47335, Note_on_c, 0, 53, 12
2, 47338, Note_on_c, 0, 62, 12
2, 47342, Control_c, 0, 64, 0
2, 47367, Control_c, 0, 64, 127
2, 47575, Note_off_c, 0, 53, 64
2, 47575, Note_off_c, 0, 57, 64
2, 47578, Note_off_c, 0, 62, 64
2, 47600, Note_on_c, 0, 52, 18
2, 47607, Note_on_c, 0, 56, 25
2, 47615, Control_c, 0, 64, 0
2, 47616, Note_on_c, 0, 62, 18
2, 47636, Control_c, 0, 64, 127
2, 47654, Note_on_c, 0, 76, 41
2, 47654, Control_c, 0, 64, 0
2, 47668, Note_off_c, 0, 74, 64
2, 47679, Control_c, 0, 64, 127
2, 47706, Note_on_c, 0, 71, 47
2, 47717, Note_off_c, 0, 76, 64
2, 47840, Note_off_c, 0, 52, 64
2, 47847, Note_off_c, 0, 56, 64
2, 47856, Note_off_c, 0, 62, 64
2, 47856, Note_on_c, 0, 56, 16
2, 47880, Note_on_c, 0, 62, 23
2, 47880, Note_on_c, 0, 52, 18
2, 47927, Control_c, 0, 64, 0
2, 47948, Control_c, 0, 64, 127
2, 48096, Note_off_c, 0, 56, 64
2, 48120, Note_off_c, 0, 52, 64
2, 48120, Note_off_c, 0, 62, 64
2, 48134, Note_on_c, 0, 56, 39
2, 48144, Note_on_c, 0, 62, 29
2, 48152, Note_on_c, 0, 52, 11
2, 48155, Control_c, 0, 64, 0
2, 48191, Control_c, 0, 64, 127
2, 48374, Note_off_c, 0, 56, 64
2, 48384, Note_off_c, 0, 62, 64
2, 48392, Note_off_c, 0, 52, 64
2, 48418, Note_on_c, 0, 62, 18
2, 48421, Note_on_c, 0, 52, 23
2, 48422, Note_on_c, 0, 57, 36
2, 48431, Control_c, 0, 64, 0
2, 48467, Control_c, 0, 64, 0
2, 48471, Note_off_c, 0, 71, 64
2, 48471, Note_on_c, 0, 72, 41
2, 48475, Control_c, 0, 64, 127
2, 48503, Control_c, 0, 64, 127
2, 48530, Note_on_c, 0, 68, 66
2, 48554, Note_off_c, 0, 72, 64
2, 48694, Note_off_c, 0, 62, 64
2, 48697, Note_off_c, 0, 52, 64
2, 48698, Note_off_c, 0, 57, 64
2, 48699, Control_c, 0, 64, 0
2, 48714, Note_on_c, 0, 59, 25
2, 48719, Note_on_c, 0, 62, 25
2, 48720, Control_c, 0, 64, 127
2, 48726, Note_on_c, 0, 52, 23
2, 48743, Control_c, 0, 64, 0
2, 48787, Control_c, 0, 64, 127
2, 48990, Note_off_c, 0, 59, 64
2, 48995, Note_off_c, 0, 62, 64
2, 49002, Note_off_c, 0, 52, 64
2, 49011, Control_c, 0, 64, 0
2, 49019, Note_on_c, 0, 59, 32
2, 49020, Note_on_c, 0, 62, 25
2, 49026, Note_on_c, 0, 52, 23
2, 49032, Control_c, 0, 64, 127
2, 49130, Control_c, 0, 64, 0
2, 49142, Note_off_c, 0, 68, 64
2, 49142, Control_c, 0, 64, 127
2, 49274, Note_on_c, 0, 71, 41
2, 49325, Note_off_c, 0, 71, 64
2, 49403, Note_on_c, 0, 71, 41
2, 49408, Note_on_c, 0, 45, 57
2, 49437, Note_off_c, 0, 59, 64
2, 49438, Note_off_c, 0, 62, 64
2, 49442, Control_c, 0, 64, 0
2, 49444, Note_off_c, 0, 52, 64
2, 49454, Control_c, 0, 64, 127
2, 49462, Note_off_c, 0, 71, 64
2, 49522, Note_on_c, 0, 71, 41
2, 49529, Control_c, 0, 64, 0
2, 49545, Control_c, 0, 64, 127
2, 49624, Note_on_c, 0, 72, 41
2, 49629, Note_off_c, 0, 71, 64
2, 49696, Note_off_c, 0, 45, 64
2, 49714, Note_on_c, 0, 71, 41
2, 49749, Note_off_c, 0, 72, 64
2, 49793, Note_on_c, 0, 57, 25
2, 49800, Note_on_c, 0, 65, 18
2, 49803, Note_on_c, 0, 62, 25
2, 49816, Note_on_c, 0, 69, 46
2, 49830, Note_off_c, 0, 71, 64
2, 49841, Control_c, 0, 64, 0
2, 49847, Control_c, 0, 64, 0
2, 49857, Control_c, 0, 64, 127
2, 49860, Control_c, 0, 64, 127
2, 49947, Note_on_c, 0, 71, 41
2, 50029, Note_on_c, 0, 72, 46
2, 50036, Note_off_c, 0, 69, 64
2, 50052, Note_off_c, 0, 71, 64
2, 50083, Note_off_c, 0, 57, 64
2, 50090, Note_off_c, 0, 65, 64
2, 50093, Note_off_c, 0, 62, 64
2, 50124, Note_on_c, 0, 76, 41
2, 50134, Note_on_c, 0, 65, 29
2, 50134, Note_on_c, 0, 62, 25
2, 50134, Note_on_c, 0, 57, 25
2, 50148, Note_off_c, 0, 72, 64
2, 50159, Control_c, 0, 64, 0
2, 50172, Control_c, 0, 64, 127
2, 50179, Control_c, 0, 64, 0
2, 50213, Control_c, 0, 64, 127
2, 50296, Note_off_c, 0, 76, 64
2, 50303, Note_on_c, 0, 74, 46
2, 50359, Note_off_c, 0, 74, 64
2, 50376, Note_on_c, 0, 69, 33
2, 50412, Note_off_c, 0, 69, 64
2, 50424, Note_on_c, 0, 69, 46
2, 50451, Control_c, 0, 64, 0
2, 50465, Control_c, 0, 64, 127
2, 50467, Note_off_c, 0, 57, 64
2, 50467, Note_off_c, 0, 62, 64
2, 50467, Note_off_c, 0, 65, 64
2, 50474, Note_on_c, 0, 72, 46
2, 50480, Note_off_c, 0, 69, 64
2, 50484, Note_on_c, 0, 60, 16
2, 50484, Note_on_c, 0, 57, 25
2, 50491, Control_c, 0, 64, 0
2, 50496, Note_on_c, 0, 65, 16
2, 50525, Control_c, 0, 64, 127
2, 50704, Note_off_c, 0, 57, 64
2, 50704, Note_off_c, 0, 60, 64
2, 50716, Note_off_c, 0, 65, 64
2, 50726, Note_on_c, 0, 57, 25
2, 50732, Note_on_c, 0, 65, 18
2, 50732, Note_on_c, 0, 60, 25
2, 50763, Control_c, 0, 64, 0
2, 50777, Control_c, 0, 64, 127
2, 50904, Note_off_c, 0, 72, 64
2, 50966, Note_off_c, 0, 57, 64
2, 50972, Note_off_c, 0, 60, 64
2, 50972, Note_off_c, 0, 65, 64
2, 51008, Note_on_c, 0, 56, 13
2, 51011, Note_on_c, 0, 65, 28
2, 51012, Note_on_c, 0, 60, 28
2, 51026, Note_on_c, 0, 71, 41
2, 51042, Control_c, 0, 64, 0
2, 51058, Control_c, 0, 64, 127
2, 51131, Note_on_c, 0, 72, 41
2, 51140, Note_off_c, 0, 71, 64
2, 51205, Note_on_c, 0, 73, 41
2, 51240, Note_off_c, 0, 72, 64
2, 51284, Note_off_c, 0, 56, 64
2, 51287, Note_off_c, 0, 65, 64
2, 51288, Note_off_c, 0, 60, 64
2, 51313, Note_on_c, 0, 74, 54
2, 51321, Note_on_c, 0, 60, 18
2, 51323, Note_off_c, 0, 73, 64
2, 51328, Note_on_c, 0, 65, 18
2, 51334, Note_on_c, 0, 55, 13
2, 51354, Control_c, 0, 64, 0
2, 51370, Control_c, 0, 64, 127
2, 51428, Note_off_c, 0, 74, 64
2, 51429, Note_on_c, 0, 76, 20
2, 51479, Note_on_c, 0, 74, 42
2, 51506, Note_off_c, 0, 76, 64
2, 51531, Note_on_c, 0, 73, 33
2, 51534, Note_off_c, 0, 74, 64
2, 51561, Note_off_c, 0, 60, 64
2, 51568, Note_off_c, 0, 65, 64
2, 51574, Note_off_c, 0, 55, 64
2, 51585, Note_off_c, 0, 73, 64
2, 51586, Note_on_c, 0, 74, 54
2, 51609, Note_on_c, 0, 65, 18
2, 51616, Note_on_c, 0, 60, 18
2, 51625, Note_on_c, 0, 55, 18
2, 51643, Note_off_c, 0, 74, 64
2, 51645, Note_on_c, 0, 75, 47
2, 51707, Note_on_c, 0, 76, 54
2, 51708, Note_off_c, 0, 75, 64
2, 51757, Note_off_c, 0, 76, 64
2, 51758, Note_on_c, 0, 77, 41
2, 51821, Note_off_c, 0, 77, 64
2, 51823, Note_on_c, 0, 79, 33
2, 51884, Note_on_c, 0, 80, 41
2, 51885, Note_off_c, 0, 65, 64
2, 51887, Note_off_c, 0, 79, 64
2, 51892, Note_off_c, 0, 60, 64
2, 51901, Note_off_c, 0, 55, 64
2, 51912, Note_on_c, 0, 59, 18
2, 51928, Note_on_c, 0, 55, 18
2, 51935, Note_on_c, 0, 65, 18
2, 51940, Control_c, 0, 64, 0
2, 51945, Note_on_c, 0, 83, 41
2, 51966, Note_off_c, 0, 80, 64
2, 51976, Control_c, 0, 64, 127
2, 52001, Note_on_c, 0, 81, 35
2, 52019, Note_off_c, 0, 83, 64
2, 52065, Note_on_c, 0, 79, 35
2, 52080, Note_off_c, 0, 81, 64
2, 52137, Note_on_c, 0, 77, 37
2, 52165, Note_off_c, 0, 79, 64
2, 52188, Note_off_c, 0, 59, 64
2, 52204, Note_off_c, 0, 55, 64
2, 52211, Note_off_c, 0, 65, 64
2, 52216, Note_on_c, 0, 76, 55
2, 52216, Note_on_c, 0, 64, 18
2, 52222, Note_on_c, 0, 59, 26
2, 52229, Note_on_c, 0, 55, 13
2, 52238, Note_off_c, 0, 77, 64
2, 52252, Control_c, 0, 64, 0
2, 52288, Control_c, 0, 64, 127
2, 52456, Note_off_c, 0, 64, 64
2, 52462, Note_off_c, 0, 59, 64
2, 52469, Note_off_c, 0, 55, 64
2, 52499, Note_on_c, 0, 55, 26
2, 52500, Note_on_c, 0, 64, 18
2, 52501, Note_on_c, 0, 59, 18
2, 52739, Note_off_c, 0, 55, 64
2, 52740, Note_off_c, 0, 64, 64
2, 52741, Note_off_c, 0, 59, 64
2, 52769, Note_on_c, 0, 64, 18
2, 52769, Note_on_c, 0, 55, 18
2, 52775, Note_on_c, 0, 59, 20
2, 52776, Control_c, 0, 64, 0
2, 52800, Control_c, 0, 64, 127
2, 53009, Note_off_c, 0, 55, 64
2, 53009, Note_off_c, 0, 64, 64
2, 53015, Note_off_c, 0, 59, 64
2, 53046, Note_on_c, 0, 58, 27
2, 53046, Note_on_c, 0, 54, 27
2, 53053, Note_on_c, 0, 64, 23
2, 53088, Control_c, 0, 64, 0
2, 53097, Control_c, 0, 64, 0
2, 53112, Control_c, 0, 64, 127
2, 53122, Control_c, 0, 64, 127
2, 53257, Note_off_c, 0, 76, 64
2, 53286, Note_off_c, 0, 54, 64
2, 53286, Note_off_c, 0, 58, 64
2, 53293, Note_off_c, 0, 64, 64
2, 53311, Note_on_c, 0, 54, 17
2, 53316, Note_on_c, 0, 58, 18
2, 53330, Note_on_c, 0, 63, 18
2, 53353, Note_on_c, 0, 78, 47
2, 53403, Note_on_c, 0, 75, 57
2, 53409, Control_c, 0, 64, 0
2, 53429, Note_off_c, 0, 78, 64
2, 53434, Control_c, 0, 64, 127
2, 53587, Note_off_c, 0, 54, 64
2, 53592, Note_off_c, 0, 58, 64
2, 53606, Note_off_c, 0, 63, 64
2, 53636, Note_on_c, 0, 58, 18
2, 53643, Note_on_c, 0, 54, 31
2, 53651, Note_on_c, 0, 63, 18
2, 53846, Note_off_c, 0, 75, 64
2, 53912, Note_off_c, 0, 58, 64
2, 53919, Note_off_c, 0, 54, 64
2, 53927, Note_off_c, 0, 63, 64
2, 53944, Note_on_c, 0, 57, 21
2, 53952, Note_on_c, 0, 53, 1
2, 53953, Note_on_c, 0, 63, 26
2, 54011, Note_on_c, 0, 76, 36
2, 54025, Control_c, 0, 64, 0
2, 54041, Note_on_c, 0, 77, 52
2, 54059, Control_c, 0, 64, 127
2, 54074, Note_off_c, 0, 76, 64
2, 54094, Note_on_c, 0, 80, 42
2, 54098, Note_off_c, 0, 77, 64
2, 54144, Note_on_c, 0, 79, 47
2, 54155, Note_off_c, 0, 80, 64
2, 54194, Note_on_c, 0, 78, 40
2, 54202, Note_off_c, 0, 79, 64
2, 54232, Note_on_c, 0, 77, 57
2, 54240, Note_off_c, 0, 78, 64
2, 54261, Note_off_c, 0, 57, 64
2, 54269, Note_off_c, 0, 53, 64
2, 54270, Note_off_c, 0, 63, 64
2, 54285, Note_on_c, 0, 74, 56
2, 54296, Note_on_c, 0, 53, 16
2, 54301, Note_on_c, 0, 57, 24
2, 54306, Note_off_c, 0, 77, 64
2, 54308, Note_on_c, 0, 62, 16
2, 54337, Control_c, 0, 64, 0
2, 54371, Control_c, 0, 64, 127
2, 54572, Note_off_c, 0, 53, 64
2, 54577, Note_off_c, 0, 57, 64
2, 54584, Note_off_c, 0, 62, 64
2, 54618, Note_on_c, 0, 62, 20
2, 54622, Note_on_c, 0, 57, 27
2, 54622, Note_on_c, 0, 53, 16
2, 54678, Control_c, 0, 64, 0
2, 54699, Control_c, 0, 64, 127
2, 54895, Note_on_c, 0, 80, 59
2, 54935, Note_off_c, 0, 62, 64
2, 54939, Note_off_c, 0, 53, 64
2, 54939, Note_off_c, 0, 57, 64
2, 54940, Note_off_c, 0, 74, 64
2, 54968, Note_on_c, 0, 84, 59
2, 54979, Note_on_c, 0, 40, 40
2, 54986, Note_off_c, 0, 80, 64
2, 54990, Control_c, 0, 64, 0
2, 55011, Control_c, 0, 64, 127
2, 55045, Control_c, 0, 64, 0
2, 55068, Control_c, 0, 64, 127
2, 55124, Note_off_c, 0, 84, 64
2, 55220, Note_on_c, 0, 83, 48
2, 55255, Note_on_c, 0, 84, 48
2, 55261, Note_off_c, 0, 83, 64
2, 55298, Note_on_c, 0, 83, 57
2, 55311, Note_off_c, 0, 84, 64
2, 55327, Note_on_c, 0, 59, 36
2, 55334, Note_on_c, 0, 62, 27
2, 55341, Note_on_c, 0, 80, 59
2, 55344, Note_on_c, 0, 52, 27
2, 55357, Control_c, 0, 64, 0
2, 55361, Note_off_c, 0, 83, 64
2, 55380, Control_c, 0, 64, 127
2, 55397, Note_off_c, 0, 40, 64
2, 55442, Note_off_c, 0, 80, 64
2, 55455, Control_c, 0, 64, 0
2, 55467, Control_c, 0, 64, 127
2, 55691, Note_off_c, 0, 59, 64
2, 55698, Note_off_c, 0, 62, 64
2, 55708, Note_off_c, 0, 52, 64
2, 55722, Note_on_c, 0, 68, 50
2, 55736, Note_on_c, 0, 62, 17
2, 55736, Note_on_c, 0, 52, 17
2, 55737, Note_on_c, 0, 59, 17
2, 55767, Control_c, 0, 64, 0
2, 55779, Control_c, 0, 64, 127
2, 55820, Control_c, 0, 64, 0
2, 55876, Control_c, 0, 64, 127
2, 56115, Note_on_c, 0, 69, 31
2, 56116, Note_on_c, 0, 45, 33
2, 56130, Note_off_c, 0, 68, 64
2, 56132, Control_c, 0, 64, 0
2, 56154, Note_off_c, 0, 52, 64
2, 56154, Note_off_c, 0, 62, 64
2, 56155, Note_off_c, 0, 59, 64
2, 56188, Control_c, 0, 64, 127
2, 56455, Note_on_c, 0, 61, 20
2, 56460, Note_on_c, 0, 57, 15
2, 56463, Note_on_c, 0, 52, 15
2, 56819, Note_off_c, 0, 61, 64
2, 56824, Note_off_c, 0, 57, 64
2, 56827, Note_off_c, 0, 52, 64
2, 56832, Note_on_c, 0, 61, 15
2, 56853, Note_on_c, 0, 57, 14
2, 56855, Note_on_c, 0, 52, 14
2, 56909, Note_off_c, 0, 69, 64
2, 56915, Note_off_c, 0, 45, 64
2, 57108, Note_off_c, 0, 61, 64
2, 57129, Note_off_c, 0, 57, 64
2, 57131, Note_off_c, 0, 52, 64
2, 57200, Note_on_c, 0, 61, 19
2, 57204, Note_on_c, 0, 45, 29
2, 57207, Note_on_c, 0, 73, 35
2, 57213, Note_on_c, 0, 52, 20
2, 57318, Note_off_c, 0, 45, 64
2, 57337, Note_off_c, 0, 52, 64
2, 57341, Note_on_c, 0, 71, 16
2, 57363, Note_off_c, 0, 73, 64
2, 57452, Note_off_c, 0, 61, 64
2, 57452, Note_on_c, 0, 52, 22
2, 57456, Note_on_c, 0, 69, 29
2, 57458, Note_on_c, 0, 61, 31
2, 57464, Note_on_c, 0, 45, 16
2, 57480, Note_off_c, 0, 71, 64
2, 57521, Note_off_c, 0, 45, 64
2, 57526, Note_off_c, 0, 52, 64
2, 57679, Note_on_c, 0, 66, 39
2, 57681, Note_off_c, 0, 61, 64
2, 57686, Note_off_c, 0, 69, 64
2, 57688, Note_on_c, 0, 61, 33
2, 57688, Note_on_c, 0, 52, 29
2, 57688, Note_on_c, 0, 45, 26
2, 57756, Note_off_c, 0, 52, 64
2, 57763, Note_off_c, 0, 45, 64
2, 57828, Note_on_c, 0, 68, 35
2, 57846, Note_off_c, 0, 66, 64
2, 57862, Note_off_c, 0, 61, 64
2, 57870, Note_on_c, 0, 66, 39
2, 57906, Note_on_c, 0, 64, 42
2, 57913, Note_off_c, 0, 68, 64
2, 57913, Note_on_c, 0, 45, 31
2, 57914, Note_on_c, 0, 52, 33
2, 57916, Note_on_c, 0, 62, 39
2, 57955, Note_off_c, 0, 66, 64
2, 57959, Note_off_c, 0, 62, 64
2, 57982, Note_off_c, 0, 52, 64
2, 57984, Note_off_c, 0, 45, 64
2, 58030, Note_on_c, 0, 62, 37
2, 58057, Note_off_c, 0, 62, 64
2, 58122, Note_on_c, 0, 62, 39
2, 58128, Note_on_c, 0, 52, 33
2, 58129, Note_on_c, 0, 45, 29
2, 58187, Note_off_c, 0, 45, 64
2, 58187, Note_off_c, 0, 52, 64
2, 58332, Note_on_c, 0, 52, 33
2, 58332, Note_on_c, 0, 45, 33
2, 58338, Note_on_c, 0, 61, 37
2, 58346, Note_off_c, 0, 62, 64
2, 58390, Note_off_c, 0, 52, 64
2, 58398, Note_off_c, 0, 45, 64
2, 58423, Note_on_c, 0, 59, 42
2, 58445, Control_c, 0, 64, 0
2, 58458, Control_c, 0, 64, 127
2, 58474, Note_off_c, 0, 61, 64
2, 58528, Note_on_c, 0, 61, 45
2, 58532, Note_off_c, 0, 59, 64
2, 58534, Note_on_c, 0, 73, 48
2, 58541, Note_on_c, 0, 52, 28
2, 58542, Note_on_c, 0, 45, 22
2, 58555, Note_off_c, 0, 64, 64
2, 58610, Note_off_c, 0, 45, 64
2, 58618, Note_off_c, 0, 52, 64
2, 58631, Note_on_c, 0, 71, 35
2, 58664, Note_off_c, 0, 73, 64
2, 58705, Note_off_c, 0, 61, 64
2, 58735, Note_on_c, 0, 52, 29
2, 58740, Note_on_c, 0, 61, 48
2, 58744, Note_on_c, 0, 69, 42
2, 58749, Note_on_c, 0, 45, 26
2, 58757, Control_c, 0, 64, 0
2, 58770, Control_c, 0, 64, 127
2, 58799, Note_off_c, 0, 71, 64
2, 58806, Note_off_c, 0, 45, 64
2, 58807, Note_off_c, 0, 52, 64
2, 58931, Note_off_c, 0, 61, 64
2, 58939, Note_on_c, 0, 66, 35
2, 58943, Note_on_c, 0, 61, 39
2, 58944, Note_off_c, 0, 69, 64
2, 58945, Note_on_c, 0, 52, 33
2, 58951, Note_on_c, 0, 45, 29
2, 58999, Note_off_c, 0, 52, 64
2, 59004, Note_off_c, 0, 45, 64
2, 59070, Note_off_c, 0, 61, 64
2, 59070, Note_on_c, 0, 68, 35
2, 59087, Note_off_c, 0, 66, 64
2, 59108, Note_on_c, 0, 66, 35
2, 59143, Note_on_c, 0, 64, 37
2, 59149, Note_on_c, 0, 62, 42
2, 59153, Note_on_c, 0, 45, 31
2, 59154, Note_on_c, 0, 52, 37
2, 59181, Note_off_c, 0, 68, 64
2, 59185, Note_off_c, 0, 62, 64
2, 59193, Note_off_c, 0, 66, 64
2, 59210, Note_off_c, 0, 52, 64
2, 59215, Note_off_c, 0, 45, 64
2, 59232, Note_on_c, 0, 62, 42
2, 59259, Note_off_c, 0, 62, 64
2, 59305, Note_on_c, 0, 62, 48
2, 59347, Note_off_c, 0, 62, 64
2, 59350, Note_on_c, 0, 52, 26
2, 59355, Note_on_c, 0, 45, 22
2, 59363, Note_on_c, 0, 62, 44
2, 59413, Note_off_c, 0, 45, 64
2, 59413, Note_off_c, 0, 52, 64
2, 59557, Note_on_c, 0, 61, 40
2, 59564, Note_on_c, 0, 52, 37
2, 59567, Note_on_c, 0, 45, 33
2, 59579, Note_off_c, 0, 62, 64
2, 59621, Note_off_c, 0, 45, 64
2, 59624, Note_off_c, 0, 52, 64
2, 59652, Note_on_c, 0, 59, 48
2, 59688, Note_off_c, 0, 61, 64
2, 59749, Note_off_c, 0, 64, 64
2, 59755, Note_on_c, 0, 52, 31
2, 59755, Note_on_c, 0, 45, 22
2, 59757, Note_on_c, 0, 62, 31
2, 59758, Note_on_c, 0, 64, 36
2, 59802, Note_off_c, 0, 59, 64
2, 59822, Note_off_c, 0, 52, 64
2, 59830, Note_off_c, 0, 45, 64
2, 59841, Note_on_c, 0, 66, 35
2, 59873, Note_off_c, 0, 64, 64
2, 59875, Note_off_c, 0, 62, 64
2, 59941, Note_on_c, 0, 68, 40
2, 59943, Note_on_c, 0, 45, 28
2, 59949, Note_on_c, 0, 62, 37
2, 59949, Note_on_c, 0, 52, 33
2, 59951, Note_on_c, 0, 64, 35
2, 59951, Note_on_c, 0, 59, 24
2, 59987, Note_off_c, 0, 66, 64
2, 59994, Note_off_c, 0, 64, 64
2, 59995, Note_off_c, 0, 62, 64
2, 60009, Note_off_c, 0, 59, 64
2, 60010, Note_off_c, 0, 52, 64
2, 60012, Note_off_c, 0, 45, 64
2, 60138, Note_on_c, 0, 69, 42
2, 60144, Note_on_c, 0, 62, 39
2, 60145, Note_on_c, 0, 64, 37
2, 60146, Note_off_c, 0, 68, 64
2, 60153, Note_on_c, 0, 52, 31
2, 60153, Note_on_c, 0, 45, 31
2, 60155, Note_on_c, 0, 59, 26
2, 60200, Note_off_c, 0, 52, 64
2, 60206, Note_off_c, 0, 59, 64
2, 60208, Note_off_c, 0, 45, 64
2, 60208, Note_off_c, 0, 64, 64
2, 60213, Note_off_c, 0, 62, 64
2, 60340, Note_on_c, 0, 64, 1
2, 60343, Note_on_c, 0, 59, 29
2, 60343, Note_on_c, 0, 45, 29
2, 60348, Note_on_c, 0, 62, 39
2, 60349, Note_on_c, 0, 52, 35
2, 60352, Note_on_c, 0, 71, 44
2, 60376, Note_off_c, 0, 69, 64
2, 60391, Note_off_c, 0, 52, 64
2, 60394, Note_off_c, 0, 45, 64
2, 60396, Note_off_c, 0, 62, 64
2, 60397, Note_off_c, 0, 59, 64
2, 60402, Note_off_c, 0, 64, 64
2, 60439, Note_on_c, 0, 73, 61
2, 60507, Note_off_c, 0, 71, 64
2, 60524, Note_on_c, 0, 64, 31
2, 60531, Note_on_c, 0, 68, 37
2, 60531, Note_on_c, 0, 62, 50
2, 60536, Note_on_c, 0, 74, 52
2, 60536, Note_on_c, 0, 59, 37
2, 60536, Note_on_c, 0, 45, 37
2, 60542, Note_on_c, 0, 52, 40
2, 60566, Note_off_c, 0, 73, 64
2, 60575, Note_off_c, 0, 62, 64
2, 60575, Note_off_c, 0, 64, 64
2, 60584, Note_off_c, 0, 52, 64
2, 60593, Note_off_c, 0, 45, 64
2, 60593, Note_off_c, 0, 59, 64
2, 60638, Note_off_c, 0, 68, 64
2, 60731, Note_on_c, 0, 75, 50
2, 60733, Note_on_c, 0, 68, 52
2, 60740, Note_on_c, 0, 62, 50
2, 60740, Note_on_c, 0, 59, 45
2, 60740, Note_on_c, 0, 52, 52
2, 60746, Note_on_c, 0, 45, 35
2, 60748, Note_on_c, 0, 64, 40
2, 60756, Note_off_c, 0, 74, 64
2, 60779, Note_off_c, 0, 45, 64
2, 60780, Note_off_c, 0, 68, 64
2, 60786, Note_off_c, 0, 59, 64
2, 60787, Note_off_c, 0, 52, 64
2, 60790, Note_off_c, 0, 64, 64
2, 60806, Note_off_c, 0, 62, 64
2, 60924, Note_on_c, 0, 64, 36
2, 60927, Note_on_c, 0, 68, 57
2, 60927, Note_on_c, 0, 62, 58
2, 60940, Note_on_c, 0, 76, 54
2, 60940, Note_on_c, 0, 59, 44
2, 60940, Note_on_c, 0, 52, 50
2, 60940, Note_on_c, 0, 45, 36
2, 60968, Note_off_c, 0, 68, 64
2, 60975, Note_off_c, 0, 75, 64
2, 60978, Note_off_c, 0, 64, 64
2, 60983, Note_off_c, 0, 45, 64
2, 60985, Note_off_c, 0, 52, 64
2, 60991, Note_off_c, 0, 59, 64
2, 60995, Note_off_c, 0, 62, 64
2, 61008, Note_on_c, 0, 74, 52
2, 61025, Note_off_c, 0, 76, 64
2, 61105, Note_on_c, 0, 71, 37
2, 61107, Note_on_c, 0, 62, 37
2, 61108, Note_on_c, 0, 64, 44
2, 61113, Note_on_c, 0, 68, 42
2, 61117, Note_on_c, 0, 59, 44
2, 61122, Note_on_c, 0, 45, 37
2, 61123, Note_on_c, 0, 52, 44
2, 61135, Note_off_c, 0, 74, 64
2, 61156, Note_off_c, 0, 64, 64
2, 61167, Note_off_c, 0, 68, 64
2, 61167, Note_off_c, 0, 62, 64
2, 61172, Note_off_c, 0, 52, 64
2, 61173, Note_off_c, 0, 45, 64
2, 61175, Note_off_c, 0, 59, 64
2, 61217, Control_c, 0, 64, 0
2, 61233, Control_c, 0, 64, 127
2, 61300, Note_on_c, 0, 68, 35
2, 61308, Note_on_c, 0, 64, 1
2, 61316, Note_on_c, 0, 62, 42
2, 61319, Note_on_c, 0, 73, 50
2, 61319, Note_on_c, 0, 59, 40
2, 61324, Note_on_c, 0, 52, 40
2, 61324, Note_on_c, 0, 45, 39
2, 61377, Note_off_c, 0, 71, 64
2, 61441, Note_off_c, 0, 68, 64
2, 61447, Note_off_c, 0, 59, 64
2, 61450, Note_off_c, 0, 52, 64
2, 61459, Note_off_c, 0, 64, 64
2, 61467, Note_off_c, 0, 45, 64
2, 61468, Control_c, 0, 64, 0
2, 61469, Note_off_c, 0, 62, 64
2, 61520, Note_on_c, 0, 69, 50
2, 61520, Note_on_c, 0, 52, 48
2, 61524, Note_on_c, 0, 61, 57
2, 61528, Note_on_c, 0, 45, 48
2, 61529, Control_c, 0, 64, 0
2, 61544, Note_off_c, 0, 73, 64
2, 61545, Control_c, 0, 64, 127
2, 61593, Control_c, 0, 64, 127
2, 61614, Note_on_c, 0, 73, 50
2, 61645, Note_off_c, 0, 69, 64
2, 61654, Note_off_c, 0, 45, 64
2, 61656, Note_off_c, 0, 52, 64
2, 61661, Note_off_c, 0, 61, 64
2, 61726, Note_on_c, 0, 68, 53
2, 61728, Note_on_c, 0, 71, 54
2, 61734, Note_on_c, 0, 59, 57
2, 61740, Note_on_c, 0, 52, 57
2, 61742, Note_on_c, 0, 64, 57
2, 61742, Note_on_c, 0, 40, 54
2, 61754, Note_off_c, 0, 73, 64
2, 61780, Control_c, 0, 64, 0
2, 61905, Control_c, 0, 64, 127
2, 61996, Note_on_c, 0, 62, 39
2, 61998, Note_on_c, 0, 66, 37
2, 62017, Control_c, 0, 64, 0
2, 62029, Control_c, 0, 64, 127
2, 62030, Note_off_c, 0, 68, 64
2, 62038, Note_off_c, 0, 59, 64
2, 62046, Note_off_c, 0, 64, 64
2, 62207, Note_off_c, 0, 71, 64
2, 62208, Note_off_c, 0, 62, 64
2, 62208, Control_c, 0, 64, 0
2, 62210, Note_off_c, 0, 66, 64
2, 62219, Note_off_c, 0, 52, 64
2, 62221, Note_off_c, 0, 40, 64
2, 62223, Control_c, 0, 64, 127
2, 62285, Note_on_c, 0, 61, 44
2, 62286, Note_on_c, 0, 73, 44
2, 62293, Note_on_c, 0, 52, 33
2, 62298, Note_on_c, 0, 45, 35
2, 62329, Control_c, 0, 64, 0
2, 62341, Control_c, 0, 64, 127
2, 62390, Note_on_c, 0, 71, 35
2, 62424, Note_off_c, 0, 45, 64
2, 62424, Note_off_c, 0, 52, 64
2, 62442, Note_off_c, 0, 73, 64
2, 62469, Note_off_c, 0, 61, 64
2, 62505, Note_on_c, 0, 52, 42
2, 62505, Note_on_c, 0, 45, 42
2, 62511, Note_on_c, 0, 61, 52
2, 62514, Note_on_c, 0, 69, 44
2, 62520, Control_c, 0, 64, 0
2, 62535, Control_c, 0, 64, 127
2, 62568, Note_off_c, 0, 71, 64
2, 62572, Note_off_c, 0, 52, 64
2, 62579, Note_off_c, 0, 45, 64
2, 62690, Note_off_c, 0, 61, 64
2, 62704, Note_on_c, 0, 66, 44
2, 62709, Note_on_c, 0, 61, 52
2, 62711, Note_on_c, 0, 52, 42
2, 62717, Note_on_c, 0, 45, 33
2, 62757, Note_off_c, 0, 69, 64
2, 62764, Note_off_c, 0, 45, 64
2, 62770, Note_off_c, 0, 52, 64
2, 62836, Note_off_c, 0, 61, 64
2, 62838, Note_on_c, 0, 68, 44
2, 62854, Note_off_c, 0, 66, 64
2, 62873, Note_on_c, 0, 66, 39
2, 62907, Note_on_c, 0, 64, 44
2, 62913, Note_on_c, 0, 62, 53
2, 62919, Note_on_c, 0, 52, 44
2, 62919, Note_on_c, 0, 45, 39
2, 62923, Note_off_c, 0, 68, 64
2, 62950, Note_off_c, 0, 62, 64
2, 62958, Note_off_c, 0, 66, 64
2, 62973, Note_off_c, 0, 45, 64
2, 62974, Note_off_c, 0, 52, 64
2, 63001, Control_c, 0, 64, 0
2, 63012, Note_on_c, 0, 62, 42
2, 63015, Control_c, 0, 64, 127
2, 63046, Note_off_c, 0, 62, 64
2, 63101, Note_on_c, 0, 62, 54
2, 63103, Note_on_c, 0, 52, 44
2, 63109, Note_on_c, 0, 45, 39
2, 63161, Note_off_c, 0, 52, 64
2, 63169, Note_off_c, 0, 45, 64
2, 63184, Control_c, 0, 64, 0
2, 63197, Control_c, 0, 64, 127
2, 63297, Note_on_c, 0, 52, 44
2, 63297, Note_on_c, 0, 45, 42
2, 63299, Note_on_c, 0, 61, 45
2, 63313, Control_c, 0, 64, 0
2, 63322, Note_off_c, 0, 62, 64
2, 63327, Control_c, 0, 64, 127
2, 63356, Note_off_c, 0, 52, 64
2, 63358, Note_off_c, 0, 45, 64
2, 63374, Control_c, 0, 64, 0
2, 63381, Note_on_c, 0, 59, 53
2, 63391, Control_c, 0, 64, 127
2, 63410, Note_off_c, 0, 61, 64
2, 63480, Note_on_c, 0, 73, 50
2, 63483, Note_on_c, 0, 61, 57
2, 63489, Note_on_c, 0, 52, 42
2, 63489, Note_on_c, 0, 45, 39
2, 63496, Control_c, 0, 64, 0
2, 63509, Control_c, 0, 64, 127
2, 63512, Note_off_c, 0, 59, 64
2, 63517, Note_off_c, 0, 64, 64
2, 63553, Note_off_c, 0, 52, 64
2, 63555, Note_off_c, 0, 45, 64
2, 63577, Note_on_c, 0, 71, 29
2, 63583, Note_off_c, 0, 73, 64
2, 63672, Note_on_c, 0, 52, 44
2, 63676, Note_on_c, 0, 45, 44
2, 63679, Note_on_c, 0, 69, 50
2, 63682, Note_off_c, 0, 61, 64
2, 63684, Note_on_c, 0, 61, 54
2, 63686, Control_c, 0, 64, 0
2, 63703, Control_c, 0, 64, 127
2, 63736, Note_off_c, 0, 45, 64
2, 63736, Note_off_c, 0, 52, 64
2, 63745, Note_off_c, 0, 71, 64
2, 63846, Note_off_c, 0, 61, 64
2, 63852, Note_on_c, 0, 66, 50
2, 63863, Note_on_c, 0, 61, 54
2, 63868, Note_on_c, 0, 52, 44
2, 63871, Note_on_c, 0, 45, 40
2, 63883, Note_off_c, 0, 69, 64
2, 63921, Note_off_c, 0, 45, 64
2, 63921, Note_off_c, 0, 52, 64
2, 63945, Note_off_c, 0, 66, 64
2, 63980, Note_on_c, 0, 68, 55
2, 64012, Note_on_c, 0, 66, 39
2, 64052, Note_off_c, 0, 68, 64
2, 64052, Note_on_c, 0, 62, 52
2, 64060, Note_on_c, 0, 64, 44
2, 64062, Note_on_c, 0, 52, 45
2, 64063, Note_on_c, 0, 45, 44
2, 64066, Note_off_c, 0, 61, 64
2, 64086, Note_off_c, 0, 66, 64
2, 64091, Note_off_c, 0, 62, 64
2, 64116, Note_off_c, 0, 45, 64
2, 64116, Note_off_c, 0, 52, 64
2, 64132, Note_on_c, 0, 62, 53
2, 64165, Note_off_c, 0, 62, 64
2, 64206, Note_on_c, 0, 62, 50
2, 64226, Note_off_c, 0, 62, 64
2, 64259, Note_on_c, 0, 62, 57
2, 64262, Note_on_c, 0, 52, 48
2, 64262, Note_on_c, 0, 45, 44
2, 64302, Note_off_c, 0, 52, 64
2, 64304, Note_off_c, 0, 45, 64
2, 64446, Note_on_c, 0, 61, 50
2, 64454, Note_on_c, 0, 52, 44
2, 64454, Note_on_c, 0, 45, 44
2, 64476, Note_off_c, 0, 62, 64
2, 64507, Note_off_c, 0, 45, 64
2, 64508, Note_off_c, 0, 52, 64
2, 64522, Note_on_c, 0, 59, 53
2, 64548, Note_off_c, 0, 61, 64
2, 64595, Note_off_c, 0, 59, 64
2, 64610, Note_off_c, 0, 64, 64
2, 64628, Note_on_c, 0, 62, 55
2, 64631, Note_on_c, 0, 64, 49
2, 64632, Note_on_c, 0, 59, 35
2, 64632, Note_on_c, 0, 45, 45
2, 64636, Note_on_c, 0, 52, 46
2, 64684, Note_off_c, 0, 45, 64
2, 64697, Note_off_c, 0, 59, 64
2, 64697, Note_off_c, 0, 62, 64
2, 64701, Note_off_c, 0, 52, 64
2, 64710, Note_on_c, 0, 66, 54
2, 64740, Note_off_c, 0, 64, 64
2, 64800, Note_on_c, 0, 68, 50
2, 64809, Note_on_c, 0, 64, 50
2, 64811, Note_on_c, 0, 62, 50
2, 64812, Note_on_c, 0, 59, 36
2, 64812, Note_on_c, 0, 52, 50
2, 64814, Note_on_c, 0, 45, 50
2, 64831, Note_off_c, 0, 66, 64
2, 64854, Note_off_c, 0, 62, 64
2, 64864, Note_off_c, 0, 64, 64
2, 64869, Note_off_c, 0, 45, 64
2, 64872, Note_off_c, 0, 52, 64
2, 64877, Note_off_c, 0, 59, 64
2, 64984, Note_on_c, 0, 59, 37
2, 64992, Note_off_c, 0, 68, 64
2, 64993, Note_on_c, 0, 69, 57
2, 64993, Note_on_c, 0, 62, 50
2, 64999, Note_on_c, 0, 64, 52
2, 64999, Note_on_c, 0, 52, 52
2, 65004, Note_on_c, 0, 45, 49
2, 65040, Control_c, 0, 64, 0
2, 65043, Note_off_c, 0, 62, 64
2, 65047, Note_off_c, 0, 64, 64
2, 65049, Note_off_c, 0, 59, 64
2, 65050, Note_off_c, 0, 45, 64
2, 65052, Note_off_c, 0, 52, 64
2, 65066, Control_c, 0, 64, 127
2, 65164, Note_on_c, 0, 64, 46
2, 65166, Note_on_c, 0, 71, 55
2, 65169, Note_on_c, 0, 62, 50
2, 65172, Note_on_c, 0, 68, 39
2, 65172, Note_on_c, 0, 45, 45
2, 65175, Note_on_c, 0, 52, 46
2, 65176, Note_on_c, 0, 59, 39
2, 65189, Note_off_c, 0, 69, 64
2, 65218, Note_off_c, 0, 64, 64
2, 65223, Note_off_c, 0, 62, 64
2, 65224, Note_off_c, 0, 52, 64
2, 65225, Note_off_c, 0, 45, 64
2, 65226, Note_off_c, 0, 68, 64
2, 65241, Note_off_c, 0, 59, 64
2, 65263, Note_on_c, 0, 72, 54
2, 65303, Note_off_c, 0, 71, 64
2, 65352, Control_c, 0, 64, 0
2, 65360, Note_on_c, 0, 57, 40
2, 65361, Note_on_c, 0, 52, 57
2, 65361, Note_on_c, 0, 45, 54
2, 65362, Note_on_c, 0, 61, 60
2, 65368, Note_on_c, 0, 69, 46
2, 65378, Control_c, 0, 64, 127
2, 65380, Note_on_c, 0, 73, 56
2, 65400, Note_off_c, 0, 61, 64
2, 65407, Note_off_c, 0, 72, 64
2, 65420, Note_off_c, 0, 52, 64
2, 65424, Note_off_c, 0, 45, 64
2, 65425, Note_off_c, 0, 57, 64
2, 65436, Note_off_c, 0, 69, 64
2, 65551, Note_on_c, 0, 61, 71
2, 65558, Note_on_c, 0, 69, 59
2, 65568, Note_on_c, 0, 57, 41
2, 65568, Note_on_c, 0, 45, 48
2, 65569, Note_on_c, 0, 52, 50
2, 65589, Note_off_c, 0, 61, 64
2, 65591, Note_off_c, 0, 69, 64
2, 65620, Note_off_c, 0, 45, 64
2, 65625, Control_c, 0, 64, 0
2, 65626, Note_off_c, 0, 52, 64
2, 65633, Note_off_c, 0, 57, 64
2, 65636, Note_on_c, 0, 66, 70
2, 65640, Note_on_c, 0, 78, 70
2, 65657, Note_off_c, 0, 73, 64
2, 65664, Control_c, 0, 64, 127
2, 65689, Note_off_c, 0, 66, 64
2, 65744, Note_on_c, 0, 59, 48
2, 65744, Note_on_c, 0, 45, 39
2, 65745, Note_on_c, 0, 52, 57
2, 65748, Note_on_c, 0, 64, 57
2, 65750, Note_on_c, 0, 68, 62
2, 65751, Note_on_c, 0, 76, 65
2, 65758, Note_off_c, 0, 78, 64
2, 65806, Note_off_c, 0, 59, 64
2, 65811, Note_off_c, 0, 52, 64
2, 65816, Note_off_c, 0, 45, 64
2, 65820, Note_off_c, 0, 64, 64
2, 65836, Note_on_c, 0, 71, 62
2, 65844, Note_off_c, 0, 68, 64
2, 65861, Note_off_c, 0, 76, 64
2, 65920, Note_on_c, 0, 45, 52
2, 65922, Note_on_c, 0, 73, 62
2, 65928, Note_on_c, 0, 69, 62
2, 65928, Note_on_c, 0, 61, 72
2, 65931, Note_on_c, 0, 52, 54
2, 65937, Control_c, 0, 64, 0
2, 65944, Note_off_c, 0, 71, 64
2, 65976, Control_c, 0, 64, 127
2, 65979, Note_off_c, 0, 45, 64
2, 65998, Note_off_c, 0, 52, 64
2, 66016, Note_off_c, 0, 69, 64
2, 66039, Note_off_c, 0, 61, 64
2, 66112, Note_on_c, 0, 69, 67
2, 66116, Note_on_c, 0, 52, 57
2, 66116, Note_on_c, 0, 45, 40
2, 66117, Note_on_c, 0, 61, 62
2, 66171, Note_off_c, 0, 52, 64
2, 66179, Note_off_c, 0, 61, 64
2, 66180, Note_off_c, 0, 69, 64
2, 66187, Note_off_c, 0, 45, 64
2, 66204, Note_on_c, 0, 66, 63
2, 66205, Control_c, 0, 64, 0
2, 66206, Note_on_c, 0, 78, 54
2, 66230, Note_off_c, 0, 73, 64
2, 66230, Control_c, 0, 64, 127
2, 66257, Note_off_c, 0, 66, 64
2, 66284, Note_on_c, 0, 62, 66
2, 66285, Note_on_c, 0, 64, 54
2, 66292, Note_on_c, 0, 68, 54
2, 66294, Note_on_c, 0, 45, 41
2, 66303, Note_on_c, 0, 76, 55
2, 66307, Note_on_c, 0, 59, 32
2, 66314, Note_on_c, 0, 52, 20
2, 66327, Note_off_c, 0, 78, 64
2, 66369, Note_off_c, 0, 59, 64
2, 66392, Note_off_c, 0, 52, 64
2, 66399, Note_on_c, 0, 75, 50
2, 66404, Note_off_c, 0, 45, 64
2, 66422, Note_off_c, 0, 68, 64
2, 66438, Note_off_c, 0, 76, 64
2, 66444, Note_off_c, 0, 62, 64
2, 66445, Note_off_c, 0, 64, 64
2, 66492, Note_on_c, 0, 52, 42
2, 66497, Note_on_c, 0, 59, 33
2, 66497, Note_on_c, 0, 45, 31
2, 66498, Note_on_c, 0, 74, 50
2, 66500, Note_on_c, 0, 62, 54
2, 66504, Note_on_c, 0, 68, 48
2, 66504, Note_on_c, 0, 64, 32
2, 66517, Control_c, 0, 64, 0
2, 66536, Note_off_c, 0, 75, 64
2, 66542, Control_c, 0, 64, 127
2, 66572, Note_off_c, 0, 59, 64
2, 66573, Note_off_c, 0, 45, 64
2, 66576, Note_off_c, 0, 52, 64
2, 66582, Note_off_c, 0, 62, 64
2, 66587, Note_off_c, 0, 64, 64
2, 66632, Note_off_c, 0, 68, 64
2, 66638, Control_c, 0, 64, 0
2, 66652, Control_c, 0, 64, 127
2, 66695, Note_on_c, 0, 52, 35
2, 66700, Note_on_c, 0, 59, 27
2, 66700, Note_on_c, 0, 45, 23
2, 66701, Note_on_c, 0, 64, 35
2, 66755, Note_off_c, 0, 59, 64
2, 66759, Note_off_c, 0, 52, 64
2, 66766, Note_off_c, 0, 45, 64
2, 66792, Note_on_c, 0, 72, 35
2, 66800, Control_c, 0, 64, 0
2, 66811, Note_off_c, 0, 74, 64
2, 66812, Note_off_c, 0, 64, 64
2, 66836, Control_c, 0, 64, 127
2, 66914, Note_on_c, 0, 61, 44
2, 66916, Note_on_c, 0, 69, 58
2, 66919, Note_on_c, 0, 73, 48
2, 66926, Note_on_c, 0, 52, 35
2, 66928, Note_off_c, 0, 72, 64
2, 66929, Note_on_c, 0, 45, 29
2, 66950, Control_c, 0, 64, 0
2, 66964, Control_c, 0, 64, 127
2, 66994, Control_c, 0, 64, 0
2, 66998, Note_off_c, 0, 52, 64
2, 67003, Note_off_c, 0, 45, 64
2, 67007, Control_c, 0, 64, 127
2, 67008, Note_on_c, 0, 71, 42
2, 67027, Note_off_c, 0, 73, 64
2, 67043, Note_off_c, 0, 69, 64
2, 67088, Note_off_c, 0, 61, 64
2, 67102, Note_on_c, 0, 69, 52
2, 67102, Note_on_c, 0, 52, 44
2, 67108, Note_on_c, 0, 45, 42
2, 67112, Control_c, 0, 64, 0
2, 67116, Note_on_c, 0, 61, 44
2, 67124, Note_off_c, 0, 71, 64
2, 67148, Control_c, 0, 64, 127
2, 67151, Control_c, 0, 64, 0
2, 67158, Note_off_c, 0, 52, 64
2, 67161, Note_off_c, 0, 45, 64
2, 67196, Control_c, 0, 64, 127
2, 67272, Note_off_c, 0, 61, 64
2, 67289, Note_on_c, 0, 52, 44
2, 67290, Note_on_c, 0, 66, 50
2, 67295, Note_on_c, 0, 61, 44
2, 67300, Note_on_c, 0, 45, 39
2, 67302, Note_off_c, 0, 69, 64
2, 67306, Control_c, 0, 64, 0
2, 67319, Control_c, 0, 64, 127
2, 67334, Note_off_c, 0, 45, 64
2, 67341, Note_off_c, 0, 52, 64
2, 67356, Control_c, 0, 64, 0
2, 67368, Control_c, 0, 64, 127
2, 67392, Note_on_c, 0, 68, 48
2, 67424, Note_off_c, 0, 66, 64
2, 67426, Note_on_c, 0, 66, 35
2, 67458, Note_off_c, 0, 61, 64
2, 67463, Control_c, 0, 64, 0
2, 67477, Note_off_c, 0, 68, 64
2, 67484, Note_on_c, 0, 64, 44
2, 67486, Note_on_c, 0, 62, 44
2, 67493, Note_on_c, 0, 52, 39
2, 67495, Note_on_c, 0, 45, 39
2, 67508, Control_c, 0, 64, 127
2, 67511, Note_off_c, 0, 66, 64
2, 67517, Control_c, 0, 64, 0
2, 67523, Note_off_c, 0, 62, 64
2, 67538, Note_off_c, 0, 52, 64
2, 67544, Note_off_c, 0, 45, 64
2, 67546, Control_c, 0, 64, 127
2, 67565, Note_on_c, 0, 62, 50
2, 67600, Note_off_c, 0, 62, 64
2, 67646, Note_on_c, 0, 62, 53
2, 67655, Note_on_c, 0, 52, 50
2, 67660, Note_on_c, 0, 45, 44
2, 67668, Control_c, 0, 64, 0
2, 67680, Control_c, 0, 64, 127
2, 67698, Note_off_c, 0, 45, 64
2, 67704, Note_off_c, 0, 52, 64
2, 67705, Control_c, 0, 64, 0
2, 67721, Control_c, 0, 64, 127
2, 67825, Note_on_c, 0, 61, 48
2, 67829, Control_c, 0, 64, 0
2, 67835, Note_on_c, 0, 52, 53
2, 67837, Note_on_c, 0, 45, 48
2, 67858, Control_c, 0, 64, 127
2, 67864, Note_off_c, 0, 62, 64
2, 67885, Note_off_c, 0, 52, 64
2, 67887, Note_off_c, 0, 45, 64
2, 67900, Control_c, 0, 64, 0
2, 67913, Control_c, 0, 64, 127
2, 67920, Note_on_c, 0, 59, 54
2, 67947, Note_off_c, 0, 61, 64
2, 68007, Note_on_c, 0, 73, 53
2, 68007, Note_on_c, 0, 45, 37
2, 68012, Note_on_c, 0, 61, 53
2, 68012, Note_on_c, 0, 52, 22
2, 68017, Control_c, 0, 64, 0
2, 68029, Note_off_c, 0, 64, 64
2, 68033, Control_c, 0, 64, 127
2, 68037, Note_off_c, 0, 59, 64
2, 68069, Note_off_c, 0, 52, 64
2, 68076, Note_off_c, 0, 45, 64
2, 68087, Note_on_c, 0, 71, 39
2, 68106, Note_off_c, 0, 73, 64
2, 68168, Note_off_c, 0, 61, 64
2, 68184, Note_on_c, 0, 52, 44
2, 68189, Note_on_c, 0, 45, 42
2, 68192, Note_on_c, 0, 69, 50
2, 68202, Note_on_c, 0, 61, 50
2, 68207, Note_off_c, 0, 71, 64
2, 68212, Control_c, 0, 64, 0
2, 68225, Control_c, 0, 64, 127
2, 68241, Note_off_c, 0, 52, 64
2, 68243, Note_off_c, 0, 45, 64
2, 68360, Note_off_c, 0, 61, 64
2, 68369, Note_on_c, 0, 66, 53
2, 68369, Note_on_c, 0, 61, 57
2, 68376, Note_on_c, 0, 52, 45
2, 68380, Note_on_c, 0, 45, 44
2, 68385, Note_off_c, 0, 69, 64
2, 68418, Note_off_c, 0, 52, 64
2, 68425, Note_off_c, 0, 45, 64
2, 68464, Note_on_c, 0, 68, 53
2, 68479, Note_off_c, 0, 66, 64
2, 68500, Note_off_c, 0, 61, 64
2, 68508, Note_on_c, 0, 66, 50
2, 68533, Note_off_c, 0, 68, 64
2, 68548, Note_on_c, 0, 64, 44
2, 68552, Note_on_c, 0, 62, 53
2, 68565, Note_off_c, 0, 66, 64
2, 68566, Note_on_c, 0, 45, 42
2, 68573, Note_on_c, 0, 52, 36
2, 68582, Note_off_c, 0, 62, 64
2, 68603, Control_c, 0, 64, 0
2, 68622, Note_off_c, 0, 52, 64
2, 68622, Note_on_c, 0, 62, 54
2, 68626, Note_off_c, 0, 45, 64
2, 68632, Control_c, 0, 64, 127
2, 68654, Note_off_c, 0, 62, 64
2, 68684, Note_on_c, 0, 62, 48
2, 68712, Note_off_c, 0, 62, 64
2, 68739, Note_on_c, 0, 62, 58
2, 68749, Note_on_c, 0, 52, 48
2, 68752, Note_on_c, 0, 45, 44
2, 68786, Note_off_c, 0, 45, 64
2, 68793, Control_c, 0, 64, 0
2, 68794, Note_off_c, 0, 52, 64
2, 68807, Control_c, 0, 64, 127
2, 68915, Control_c, 0, 64, 0
2, 68922, Note_on_c, 0, 61, 50
2, 68925, Note_on_c, 0, 52, 44
2, 68925, Note_on_c, 0, 45, 42
2, 68942, Note_off_c, 0, 62, 64
2, 68944, Control_c, 0, 64, 127
2, 68979, Note_off_c, 0, 52, 64
2, 68981, Note_off_c, 0, 45, 64
2, 68999, Note_on_c, 0, 59, 54
2, 69016, Note_off_c, 0, 61, 64
2, 69068, Note_off_c, 0, 64, 64
2, 69090, Note_on_c, 0, 64, 40
2, 69090, Note_on_c, 0, 62, 44
2, 69090, Note_on_c, 0, 52, 31
2, 69098, Note_on_c, 0, 45, 35
2, 69105, Control_c, 0, 64, 0
2, 69115, Note_off_c, 0, 59, 64
2, 69119, Control_c, 0, 64, 127
2, 69147, Note_off_c, 0, 45, 64
2, 69150, Note_off_c, 0, 52, 64
2, 69167, Note_on_c, 0, 66, 36
2, 69196, Note_off_c, 0, 62, 64
2, 69200, Note_off_c, 0, 64, 64
2, 69254, Note_on_c, 0, 68, 40
2, 69262, Note_on_c, 0, 64, 42
2, 69262, Note_on_c, 0, 52, 37
2, 69266, Note_on_c, 0, 62, 42
2, 69266, Note_on_c, 0, 45, 37
2, 69302, Note_off_c, 0, 66, 64
2, 69315, Note_off_c, 0, 45, 64
2, 69318, Note_off_c, 0, 62, 64
2, 69318, Note_off_c, 0, 52, 64
2, 69322, Note_off_c, 0, 64, 64
2, 69437, Note_on_c, 0, 69, 50
2, 69437, Note_on_c, 0, 64, 44
2, 69437, Note_on_c, 0, 62, 44
2, 69447, Note_on_c, 0, 52, 40
2, 69448, Note_off_c, 0, 68, 64
2, 69453, Note_on_c, 0, 45, 36
2, 69488, Note_off_c, 0, 64, 64
2, 69490, Note_off_c, 0, 45, 64
2, 69491, Note_off_c, 0, 52, 64
2, 69495, Note_off_c, 0, 62, 64
2, 69618, Note_on_c, 0, 71, 50
2, 69620, Note_on_c, 0, 64, 22
2, 69623, Note_on_c, 0, 62, 44
2, 69623, Note_on_c, 0, 52, 42
2, 69623, Note_on_c, 0, 45, 44
2, 69640, Note_off_c, 0, 69, 64
2, 69663, Note_off_c, 0, 64, 64
2, 69670, Note_off_c, 0, 45, 64
2, 69672, Note_off_c, 0, 52, 64
2, 69683, Note_off_c, 0, 62, 64
2, 69704, Note_on_c, 0, 73, 60
2, 69734, Note_off_c, 0, 71, 64
2, 69788, Note_on_c, 0, 74, 51
2, 69788, Note_on_c, 0, 64, 62
2, 69792, Note_on_c, 0, 62, 58
2, 69796, Note_on_c, 0, 68, 59
2, 69799, Note_on_c, 0, 52, 50
2, 69799, Note_on_c, 0, 45, 48
2, 69810, Note_off_c, 0, 73, 64
2, 69840, Note_off_c, 0, 45, 64
2, 69841, Note_off_c, 0, 64, 64
2, 69842, Note_off_c, 0, 68, 64
2, 69845, Note_off_c, 0, 52, 64
2, 69847, Note_off_c, 0, 62, 64
2, 69972, Note_on_c, 0, 75, 54
2, 69972, Note_on_c, 0, 68, 67
2, 69976, Note_on_c, 0, 45, 50
2, 69983, Note_on_c, 0, 52, 53
2, 69984, Note_on_c, 0, 64, 67
2, 69988, Note_on_c, 0, 62, 45
2, 69998, Note_off_c, 0, 74, 64
2, 70025, Note_off_c, 0, 68, 64
2, 70029, Note_off_c, 0, 62, 64
2, 70029, Note_off_c, 0, 45, 64
2, 70034, Note_off_c, 0, 52, 64
2, 70037, Note_off_c, 0, 64, 64
2, 70149, Note_on_c, 0, 68, 53
2, 70156, Note_on_c, 0, 64, 57
2, 70160, Note_on_c, 0, 62, 50
2, 70162, Note_on_c, 0, 52, 57
2, 70165, Note_on_c, 0, 45, 53
2, 70169, Note_on_c, 0, 76, 60
2, 70189, Note_off_c, 0, 75, 64
2, 70202, Note_off_c, 0, 64, 64
2, 70211, Note_off_c, 0, 62, 64
2, 70212, Note_off_c, 0, 52, 64
2, 70216, Note_off_c, 0, 45, 64
2, 70237, Note_on_c, 0, 74, 57
2, 70271, Note_off_c, 0, 76, 64
2, 70271, Note_off_c, 0, 68, 64
2, 70340, Note_on_c, 0, 64, 62
2, 70340, Note_on_c, 0, 62, 54
2, 70344, Note_on_c, 0, 71, 62
2, 70346, Note_on_c, 0, 68, 61
2, 70346, Note_on_c, 0, 52, 50
2, 70346, Note_on_c, 0, 45, 50
2, 70370, Note_off_c, 0, 74, 64
2, 70422, Note_off_c, 0, 64, 64
2, 70426, Note_off_c, 0, 52, 64
2, 70428, Note_off_c, 0, 68, 64
2, 70429, Note_off_c, 0, 45, 64
2, 70435, Control_c, 0, 64, 0
2, 70439, Note_off_c, 0, 62, 64
2, 70450, Control_c, 0, 64, 127
2, 70532, Note_on_c, 0, 68, 54
2, 70532, Note_on_c, 0, 64, 54
2, 70532, Note_on_c, 0, 62, 48
2, 70535, Note_on_c, 0, 73, 50
2, 70542, Note_off_c, 0, 71, 64
2, 70547, Note_on_c, 0, 45, 44
2, 70550, Note_on_c, 0, 52, 44
2, 70599, Note_off_c, 0, 52, 64
2, 70612, Note_off_c, 0, 45, 64
2, 70622, Note_on_c, 0, 71, 39
2, 70635, Note_off_c, 0, 73, 64
2, 70648, Note_off_c, 0, 62, 64
2, 70659, Note_off_c, 0, 64, 64
2, 70659, Note_off_c, 0, 68, 64
2, 70662, Control_c, 0, 64, 0
2, 70729, Note_on_c, 0, 69, 54
2, 70733, Note_on_c, 0, 61, 63
2, 70738, Note_on_c, 0, 52, 50
2, 70738, Note_on_c, 0, 45, 48
2, 70747, Control_c, 0, 64, 0
2, 70753, Note_off_c, 0, 71, 64
2, 70762, Control_c, 0, 64, 127
2, 70782, Note_off_c, 0, 52, 64
2, 70798, Note_off_c, 0, 45, 64
2, 70826, Note_on_c, 0, 73, 52
2, 70828, Note_off_c, 0, 69, 64
2, 70869, Note_off_c, 0, 61, 64
2, 70896, Control_c, 0, 64, 127
2, 70924, Note_on_c, 0, 68, 61
2, 70928, Note_on_c, 0, 64, 58
2, 70928, Note_on_c, 0, 52, 61
2, 70930, Note_on_c, 0, 71, 61
2, 70930, Note_on_c, 0, 59, 62
2, 70932, Note_on_c, 0, 40, 58
2, 70952, Note_off_c, 0, 73, 64
2, 70974, Control_c, 0, 64, 0
2, 71208, Control_c, 0, 64, 127
2, 71226, Control_c, 0, 64, 0
2, 71258, Control_c, 0, 64, 127
2, 71265, Note_off_c, 0, 59, 64
2, 71304, Note_on_c, 0, 66, 44
2, 71304, Note_on_c, 0, 62, 57
2, 71324, Note_off_c, 0, 68, 64
2, 71328, Note_off_c, 0, 64, 64
2, 71428, Control_c, 0, 64, 0
2, 71451, Control_c, 0, 64, 127
2, 71475, Note_off_c, 0, 62, 64
2, 71475, Note_off_c, 0, 66, 64
2, 71478, Note_off_c, 0, 52, 64
2, 71480, Note_off_c, 0, 71, 64
2, 71482, Note_off_c, 0, 40, 64
2, 71511, Note_on_c, 0, 61, 35
2, 71518, Note_on_c, 0, 64, 39
2, 71525, Note_on_c, 0, 73, 44
2, 71527, Note_on_c, 0, 52, 37
2, 71527, Note_on_c, 0, 45, 35
2, 71538, Control_c, 0, 64, 0
2, 71570, Control_c, 0, 64, 127
2, 71590, Note_off_c, 0, 52, 64
2, 71607, Note_off_c, 0, 45, 64
2, 71614, Note_on_c, 0, 71, 44
2, 71620, Note_off_c, 0, 73, 64
2, 71620, Note_off_c, 0, 64, 64
2, 71705, Note_off_c, 0, 61, 64
2, 71720, Note_on_c, 0, 61, 58
2, 71722, Note_on_c, 0, 52, 42
2, 71723, Note_on_c, 0, 69, 44
2, 71723, Note_on_c, 0, 45, 42
2, 71730, Note_off_c, 0, 71, 64
2, 71740, Control_c, 0, 64, 0
2, 71763, Control_c, 0, 64, 127
2, 71780, Note_off_c, 0, 52, 64
2, 71786, Note_off_c, 0, 45, 64
2, 71794, Control_c, 0, 64, 0
2, 71815, Control_c, 0, 64, 127
2, 71887, Note_off_c, 0, 61, 64
2, 71907, Note_on_c, 0, 61, 44
2, 71910, Note_on_c, 0, 66, 44
2, 71911, Note_on_c, 0, 45, 35
2, 71916, Note_on_c, 0, 52, 31
2, 71938, Note_off_c, 0, 69, 64
2, 71958, Control_c, 0, 64, 0
2, 71966, Note_off_c, 0, 52, 64
2, 71969, Note_off_c, 0, 45, 64
2, 71997, Control_c, 0, 64, 127
2, 72025, Note_on_c, 0, 68, 35
2, 72035, Note_off_c, 0, 66, 64
2, 72047, Note_on_c, 0, 66, 39
2, 72057, Note_off_c, 0, 61, 64
2, 72092, Note_on_c, 0, 64, 44
2, 72102, Note_on_c, 0, 62, 48
2, 72106, Note_on_c, 0, 52, 42
2, 72106, Control_c, 0, 64, 0
2, 72116, Note_off_c, 0, 66, 64
2, 72116, Note_on_c, 0, 45, 35
2, 72127, Control_c, 0, 64, 127
2, 72137, Note_off_c, 0, 62, 64
2, 72144, Control_c, 0, 64, 0
2, 72156, Note_off_c, 0, 52, 64
2, 72159, Note_off_c, 0, 45, 64
2, 72171, Control_c, 0, 64, 127
2, 72180, Note_on_c, 0, 62, 48
2, 72182, Note_off_c, 0, 68, 64
2, 72211, Note_off_c, 0, 62, 64
2, 72270, Control_c, 0, 64, 0
2, 72276, Note_on_c, 0, 52, 44
2, 72276, Note_on_c, 0, 45, 44
2, 72284, Note_on_c, 0, 62, 53
2, 72309, Control_c, 0, 64, 127
2, 72322, Note_off_c, 0, 52, 64
2, 72324, Control_c, 0, 64, 0
2, 72325, Note_off_c, 0, 45, 64
2, 72342, Control_c, 0, 64, 127
2, 72450, Note_on_c, 0, 61, 50
2, 72454, Note_on_c, 0, 45, 44
2, 72456, Note_on_c, 0, 52, 50
2, 72456, Control_c, 0, 64, 0
2, 72483, Control_c, 0, 64, 127
2, 72496, Note_off_c, 0, 62, 64
2, 72499, Note_off_c, 0, 45, 64
2, 72504, Note_off_c, 0, 52, 64
2, 72506, Control_c, 0, 64, 0
2, 72535, Control_c, 0, 64, 127
2, 72542, Note_on_c, 0, 59, 57
2, 72570, Note_off_c, 0, 61, 64
2, 72636, Note_on_c, 0, 52, 42
2, 72636, Note_on_c, 0, 45, 44
2, 72636, Control_c, 0, 64, 0
2, 72644, Note_on_c, 0, 73, 54
2, 72644, Note_on_c, 0, 61, 54
2, 72654, Control_c, 0, 64, 127
2, 72679, Note_off_c, 0, 59, 64
2, 72694, Note_off_c, 0, 64, 64
2, 72696, Note_off_c, 0, 45, 64
2, 72696, Note_off_c, 0, 52, 64
2, 72716, Note_on_c, 0, 71, 48
2, 72744, Note_off_c, 0, 73, 64
2, 72809, Note_off_c, 0, 61, 64
2, 72810, Note_on_c, 0, 52, 44
2, 72817, Note_on_c, 0, 69, 44
2, 72817, Note_on_c, 0, 45, 44
2, 72818, Control_c, 0, 64, 0
2, 72826, Note_on_c, 0, 61, 57
2, 72847, Control_c, 0, 64, 127
2, 72854, Note_off_c, 0, 71, 64
2, 72866, Note_off_c, 0, 52, 64
2, 72870, Control_c, 0, 64, 0
2, 72876, Note_off_c, 0, 45, 64
2, 72889, Control_c, 0, 64, 127
2, 72981, Note_off_c, 0, 61, 64
2, 72987, Note_on_c, 0, 66, 50
2, 72987, Note_on_c, 0, 61, 53
2, 72996, Note_on_c, 0, 52, 44
2, 72997, Note_on_c, 0, 45, 44
2, 73006, Note_off_c, 0, 69, 64
2, 73042, Note_off_c, 0, 52, 64
2, 73049, Note_off_c, 0, 45, 64
2, 73102, Note_on_c, 0, 68, 44
2, 73110, Note_off_c, 0, 66, 64
2, 73119, Note_on_c, 0, 66, 35
2, 73160, Note_off_c, 0, 61, 64
2, 73160, Note_on_c, 0, 64, 50
2, 73177, Note_on_c, 0, 62, 52
2, 73182, Control_c, 0, 64, 0
2, 73187, Note_off_c, 0, 68, 64
2, 73190, Note_off_c, 0, 66, 64
2, 73190, Note_on_c, 0, 52, 44
2, 73195, Note_on_c, 0, 45, 44
2, 73201, Control_c, 0, 64, 127
2, 73210, Note_off_c, 0, 62, 64
2, 73221, Control_c, 0, 64, 0
2, 73246, Note_off_c, 0, 45, 64
2, 73246, Note_off_c, 0, 52, 64
2, 73246, Note_on_c, 0, 62, 54
2, 73248, Control_c, 0, 64, 127
2, 73278, Note_off_c, 0, 62, 64
2, 73299, Note_on_c, 0, 62, 54
2, 73334, Note_off_c, 0, 62, 64
2, 73361, Note_on_c, 0, 62, 57
2, 73367, Note_on_c, 0, 52, 44
2, 73369, Note_on_c, 0, 45, 44
2, 73415, Note_off_c, 0, 52, 64
2, 73419, Note_off_c, 0, 45, 64
2, 73533, Control_c, 0, 64, 0
2, 73548, Note_on_c, 0, 61, 48
2, 73548, Note_on_c, 0, 52, 39
2, 73548, Note_on_c, 0, 45, 42
2, 73560, Control_c, 0, 64, 127
2, 73577, Note_off_c, 0, 62, 64
2, 73603, Note_off_c, 0, 45, 64
2, 73608, Note_off_c, 0, 52, 64
2, 73626, Note_on_c, 0, 59, 50
2, 73636, Note_off_c, 0, 61, 64
2, 73710, Note_off_c, 0, 64, 64
2, 73716, Note_on_c, 0, 64, 50
2, 73719, Note_on_c, 0, 62, 53
2, 73719, Note_on_c, 0, 52, 48
2, 73728, Note_on_c, 0, 45, 40
2, 73742, Note_off_c, 0, 59, 64
2, 73779, Note_off_c, 0, 52, 64
2, 73788, Note_off_c, 0, 62, 64
2, 73800, Note_off_c, 0, 45, 64
2, 73800, Note_on_c, 0, 66, 37
2, 73829, Note_off_c, 0, 64, 64
2, 73883, Note_on_c, 0, 68, 37
2, 73890, Note_on_c, 0, 64, 42
2, 73891, Note_on_c, 0, 62, 37
2, 73891, Note_on_c, 0, 52, 35
2, 73897, Note_on_c, 0, 59, 33
2, 73898, Note_on_c, 0, 45, 40
2, 73927, Note_off_c, 0, 62, 64
2, 73927, Note_off_c, 0, 66, 64
2, 73939, Note_off_c, 0, 64, 64
2, 73945, Note_off_c, 0, 59, 64
2, 73949, Note_off_c, 0, 45, 64
2, 73952, Note_off_c, 0, 52, 64
2, 74074, Note_on_c, 0, 69, 40
2, 74074, Note_on_c, 0, 64, 39
2, 74080, Note_on_c, 0, 62, 39
2, 74084, Note_on_c, 0, 52, 39
2, 74084, Note_on_c, 0, 45, 41
2, 74089, Note_on_c, 0, 59, 29
2, 74102, Note_off_c, 0, 68, 64
2, 74124, Note_off_c, 0, 45, 64
2, 74126, Note_off_c, 0, 62, 64
2, 74126, Note_off_c, 0, 64, 64
2, 74132, Note_off_c, 0, 59, 64
2, 74132, Note_off_c, 0, 52, 64
2, 74254, Note_on_c, 0, 62, 41
2, 74254, Note_on_c, 0, 45, 48
2, 74256, Note_on_c, 0, 68, 39
2, 74256, Note_on_c, 0, 64, 39
2, 74256, Note_on_c, 0, 52, 44
2, 74257, Note_on_c, 0, 71, 52
2, 74263, Note_on_c, 0, 59, 44
2, 74279, Note_off_c, 0, 69, 64
2, 74299, Note_off_c, 0, 59, 64
2, 74304, Note_off_c, 0, 52, 64
2, 74304, Note_off_c, 0, 45, 64
2, 74313, Note_off_c, 0, 62, 64
2, 74324, Note_off_c, 0, 64, 64
2, 74330, Note_off_c, 0, 68, 64
2, 74338, Note_on_c, 0, 73, 61
2, 74353, Note_off_c, 0, 71, 64
2, 74421, Note_on_c, 0, 68, 54
2, 74421, Note_on_c, 0, 45, 52
2, 74427, Note_on_c, 0, 74, 54
2, 74428, Note_on_c, 0, 64, 58
2, 74428, Note_on_c, 0, 62, 57
2, 74428, Note_on_c, 0, 59, 46
2, 74428, Note_on_c, 0, 52, 49
2, 74456, Note_off_c, 0, 73, 64
2, 74464, Note_off_c, 0, 62, 64
2, 74466, Note_off_c, 0, 68, 64
2, 74472, Note_off_c, 0, 59, 64
2, 74476, Note_off_c, 0, 45, 64
2, 74480, Note_off_c, 0, 52, 64
2, 74481, Note_off_c, 0, 64, 64
2, 74492, Control_c, 0, 64, 0
2, 74540, Control_c, 0, 64, 127
2, 74616, Note_on_c, 0, 76, 57
2, 74616, Note_on_c, 0, 68, 57
2, 74616, Note_on_c, 0, 64, 63
2, 74623, Note_on_c, 0, 62, 50
2, 74628, Note_on_c, 0, 59, 55
2, 74628, Note_on_c, 0, 52, 53
2, 74634, Note_on_c, 0, 45, 54
2, 74643, Note_off_c, 0, 74, 64
2, 74661, Note_off_c, 0, 68, 64
2, 74667, Note_off_c, 0, 45, 64
2, 74669, Note_off_c, 0, 64, 64
2, 74675, Note_off_c, 0, 52, 64
2, 74676, Note_off_c, 0, 59, 64
2, 74679, Note_off_c, 0, 62, 64
2, 74804, Control_c, 0, 64, 0
2, 74818, Note_on_c, 0, 68, 58
2, 74820, Note_on_c, 0, 62, 68
2, 74821, Note_on_c, 0, 77, 62
2, 74829, Note_on_c, 0, 59, 62
2, 74829, Note_on_c, 0, 52, 63
2, 74829, Note_on_c, 0, 45, 65
2, 74838, Note_off_c, 0, 76, 64
2, 74849, Note_off_c, 0, 68, 64
2, 74852, Control_c, 0, 64, 127
2, 74856, Control_c, 0, 64, 0
2, 74858, Note_off_c, 0, 45, 64
2, 74864, Note_off_c, 0, 52, 64
2, 74872, Note_off_c, 0, 59, 64
2, 74873, Note_off_c, 0, 62, 64
2, 74889, Control_c, 0, 64, 127
2, 74970, Note_off_c, 0, 77, 64
2, 75000, Note_on_c, 0, 76, 45
2, 75002, Note_on_c, 0, 64, 63
2, 75073, Note_on_c, 0, 67, 46
2, 75078, Note_off_c, 0, 76, 64
2, 75100, Note_on_c, 0, 79, 65
2, 75112, Note_off_c, 0, 64, 64
2, 75115, Note_on_c, 0, 77, 72
2, 75122, Note_on_c, 0, 65, 65
2, 75137, Note_off_c, 0, 67, 64
2, 75143, Note_off_c, 0, 79, 64
2, 75168, Control_c, 0, 64, 0
2, 75201, Control_c, 0, 64, 127
2, 75409, Control_c, 0, 64, 0
2, 75434, Control_c, 0, 64, 127
2, 75538, Note_on_c, 0, 76, 62
2, 75540, Note_on_c, 0, 64, 58
2, 75561, Note_off_c, 0, 77, 64
2, 75582, Note_off_c, 0, 65, 64
2, 75642, Note_off_c, 0, 76, 64
2, 75642, Note_on_c, 0, 67, 59
2, 75651, Note_on_c, 0, 79, 68
2, 75657, Note_off_c, 0, 64, 64
2, 75657, Note_on_c, 0, 77, 71
2, 75673, Note_on_c, 0, 65, 58
2, 75697, Note_off_c, 0, 67, 64
2, 75699, Note_off_c, 0, 79, 64
2, 75721, Control_c, 0, 64, 0
2, 75746, Control_c, 0, 64, 127
2, 75784, Control_c, 0, 64, 0
2, 75846, Control_c, 0, 64, 127
2, 75983, Note_on_c, 0, 76, 70
2, 75985, Note_on_c, 0, 64, 63
2, 75996, Note_off_c, 0, 77, 64
2, 76008, Note_off_c, 0, 65, 64
2, 76066, Note_on_c, 0, 77, 78
2, 76070, Note_on_c, 0, 65, 76
2, 76085, Note_off_c, 0, 64, 64
2, 76090, Note_off_c, 0, 76, 64
2, 76096, Control_c, 0, 64, 0
2, 76158, Control_c, 0, 64, 127
2, 76931, Note_on_c, 0, 71, 42
2, 76991, Note_off_c, 0, 77, 64
2, 77140, Note_on_c, 0, 62, 20
2, 77148, Note_on_c, 0, 57, 16
2, 77428, Note_on_c, 0, 72, 35
2, 77457, Note_off_c, 0, 62, 64
2, 77465, Note_off_c, 0, 57, 64
2, 77481, Note_off_c, 0, 71, 64
2, 77484, Note_on_c, 0, 74, 44
2, 77497, Note_on_c, 0, 57, 27
2, 77500, Note_on_c, 0, 62, 20
2, 77511, Note_off_c, 0, 72, 64
2, 77814, Note_off_c, 0, 57, 64
2, 77817, Note_off_c, 0, 62, 64
2, 77832, Note_on_c, 0, 57, 16
2, 77840, Note_on_c, 0, 69, 44
2, 77840, Note_on_c, 0, 62, 27
2, 77986, Control_c, 0, 64, 0
2, 78009, Control_c, 0, 64, 127
2, 78064, Note_off_c, 0, 74, 64
2, 78114, Note_off_c, 0, 69, 64
2, 78140, Note_off_c, 0, 57, 64
2, 78148, Note_off_c, 0, 62, 64
2, 78192, Note_on_c, 0, 60, 27
2, 78192, Note_on_c, 0, 57, 13
2, 78208, Note_on_c, 0, 69, 44
2, 78272, Note_on_c, 0, 72, 52
2, 78298, Control_c, 0, 64, 0
2, 78316, Note_off_c, 0, 69, 64
2, 78321, Control_c, 0, 64, 127
2, 78432, Note_off_c, 0, 57, 64
2, 78432, Note_off_c, 0, 60, 64
2, 78528, Note_on_c, 0, 60, 27
2, 78528, Note_on_c, 0, 57, 27
2, 78768, Note_off_c, 0, 57, 64
2, 78768, Note_off_c, 0, 60, 64
2, 78811, Note_on_c, 0, 57, 16
2, 78818, Note_on_c, 0, 60, 36
2, 78846, Note_on_c, 0, 71, 42
2, 78871, Note_off_c, 0, 72, 64
2, 78971, Note_on_c, 0, 72, 37
2, 79051, Note_off_c, 0, 57, 64
2, 79058, Note_off_c, 0, 60, 64
2, 79067, Note_off_c, 0, 71, 64
2, 79080, Note_on_c, 0, 60, 27
2, 79084, Note_on_c, 0, 55, 36
2, 79143, Note_on_c, 0, 74, 37
2, 79156, Note_off_c, 0, 72, 64
2, 79175, Note_on_c, 0, 76, 44
2, 79190, Note_off_c, 0, 74, 64
2, 79227, Note_on_c, 0, 74, 48
2, 79244, Note_off_c, 0, 76, 64
2, 79332, Note_on_c, 0, 73, 35
2, 79360, Note_off_c, 0, 74, 64
2, 79440, Control_c, 0, 64, 0
2, 79444, Note_off_c, 0, 60, 64
2, 79448, Note_off_c, 0, 55, 64
2, 79452, Note_on_c, 0, 74, 45
2, 79456, Control_c, 0, 64, 127
2, 79469, Note_off_c, 0, 73, 64
2, 79470, Note_on_c, 0, 59, 15
2, 79480, Note_on_c, 0, 55, 1
2, 79543, Note_on_c, 0, 76, 53
2, 79574, Note_off_c, 0, 74, 64
2, 79618, Note_on_c, 0, 77, 50
2, 79638, Note_off_c, 0, 76, 64
2, 79690, Note_off_c, 0, 59, 64
2, 79700, Note_off_c, 0, 55, 64
2, 79705, Note_on_c, 0, 79, 45
2, 79719, Note_on_c, 0, 59, 33
2, 79719, Note_on_c, 0, 55, 27
2, 79734, Note_off_c, 0, 77, 64
2, 79739, Control_c, 0, 64, 0
2, 79752, Control_c, 0, 64, 0
2, 79768, Control_c, 0, 64, 127
2, 79770, Control_c, 0, 64, 127
2, 79801, Note_off_c, 0, 79, 64
2, 79909, Note_off_c, 0, 65, 64
2, 79954, Note_on_c, 0, 74, 44
2, 79972, Note_off_c, 0, 55, 64
2, 79972, Note_off_c, 0, 59, 64
2, 80004, Note_on_c, 0, 64, 16
2, 80016, Note_on_c, 0, 76, 48
2, 80023, Note_on_c, 0, 59, 27
2, 80023, Note_on_c, 0, 55, 16
2, 80036, Note_off_c, 0, 74, 64
2, 80051, Control_c, 0, 64, 0
2, 80082, Control_c, 0, 64, 127
2, 80244, Note_off_c, 0, 64, 64
2, 80263, Note_off_c, 0, 55, 64
2, 80263, Note_off_c, 0, 59, 64
2, 80270, Note_on_c, 0, 64, 27
2, 80278, Note_on_c, 0, 59, 27
2, 80278, Note_on_c, 0, 55, 20
2, 80510, Note_off_c, 0, 64, 64
2, 80510, Control_c, 0, 64, 0
2, 80518, Note_off_c, 0, 55, 64
2, 80518, Note_off_c, 0, 59, 64
2, 80520, Note_on_c, 0, 64, 16
2, 80528, Note_on_c, 0, 59, 27
2, 80532, Note_on_c, 0, 55, 16
2, 80533, Control_c, 0, 64, 127
2, 80760, Note_off_c, 0, 64, 64
2, 80762, Note_on_c, 0, 54, 14
2, 80768, Note_off_c, 0, 59, 64
2, 80769, Note_on_c, 0, 58, 22
2, 80772, Note_off_c, 0, 55, 64
2, 80776, Note_on_c, 0, 64, 16
2, 80805, Note_on_c, 0, 78, 52
2, 80822, Control_c, 0, 64, 0
2, 80831, Note_off_c, 0, 76, 64
2, 80845, Control_c, 0, 64, 127
2, 81002, Note_off_c, 0, 54, 64
2, 81009, Note_off_c, 0, 58, 64
2, 81016, Note_off_c, 0, 64, 64
2, 81044, Note_on_c, 0, 63, 14
2, 81052, Note_on_c, 0, 58, 20
2, 81058, Note_on_c, 0, 54, 14
2, 81072, Note_on_c, 0, 75, 36
2, 81103, Note_off_c, 0, 78, 64
2, 81284, Note_off_c, 0, 63, 64
2, 81292, Note_off_c, 0, 58, 64
2, 81298, Note_off_c, 0, 54, 64
2, 81301, Note_on_c, 0, 54, 16
2, 81306, Note_on_c, 0, 58, 16
2, 81310, Note_on_c, 0, 63, 16
2, 81313, Control_c, 0, 64, 0
2, 81336, Control_c, 0, 64, 127
2, 81541, Note_off_c, 0, 54, 64
2, 81546, Note_off_c, 0, 58, 64
2, 81550, Note_off_c, 0, 63, 64
2, 81559, Note_on_c, 0, 53, 22
2, 81566, Note_on_c, 0, 63, 16
2, 81566, Note_on_c, 0, 57, 22
2, 81585, Note_on_c, 0, 77, 45
2, 81597, Note_off_c, 0, 75, 64
2, 81625, Control_c, 0, 64, 0
2, 81648, Control_c, 0, 64, 127
2, 81799, Note_off_c, 0, 53, 64
2, 81806, Note_off_c, 0, 57, 64
2, 81806, Note_off_c, 0, 63, 64
2, 81831, Note_on_c, 0, 74, 35
2, 81837, Note_on_c, 0, 62, 26
2, 81837, Note_on_c, 0, 57, 22
2, 81844, Note_on_c, 0, 53, 14
2, 81865, Note_off_c, 0, 77, 64
2, 82057, Note_off_c, 0, 57, 64
2, 82057, Note_off_c, 0, 62, 64
2, 82064, Note_off_c, 0, 53, 64
2, 82072, Note_on_c, 0, 57, 22
2, 82078, Note_on_c, 0, 62, 22
2, 82081, Note_on_c, 0, 53, 14
2, 82141, Control_c, 0, 64, 0
2, 82153, Control_c, 0, 64, 127
2, 82325, Note_off_c, 0, 57, 64
2, 82330, Note_on_c, 0, 52, 22
2, 82331, Note_off_c, 0, 62, 64
2, 82334, Note_off_c, 0, 53, 64
2, 82334, Note_on_c, 0, 56, 14
2, 82350, Note_on_c, 0, 62, 14
2, 82406, Note_on_c, 0, 76, 48
2, 82418, Note_off_c, 0, 74, 64
2, 82453, Control_c, 0, 64, 0
2, 82465, Control_c, 0, 64, 127
2, 82472, Note_on_c, 0, 71, 48
2, 82486, Note_off_c, 0, 76, 64
2, 82594, Note_off_c, 0, 52, 64
2, 82598, Note_off_c, 0, 56, 64
2, 82614, Note_off_c, 0, 62, 64
2, 82644, Note_on_c, 0, 56, 29
2, 82652, Note_on_c, 0, 62, 22
2, 82658, Note_on_c, 0, 52, 22
2, 82844, Note_off_c, 0, 56, 64
2, 82852, Note_off_c, 0, 62, 64
2, 82858, Note_off_c, 0, 52, 64
2, 82860, Note_on_c, 0, 52, 29
2, 82867, Note_on_c, 0, 56, 31
2, 82872, Note_on_c, 0, 62, 29
2, 82909, Control_c, 0, 64, 0
2, 82946, Control_c, 0, 64, 127
2, 83011, Note_off_c, 0, 71, 64
2, 83090, Note_off_c, 0, 52, 64
2, 83097, Note_off_c, 0, 56, 64
2, 83102, Note_off_c, 0, 62, 64
2, 83108, Note_on_c, 0, 62, 14
2, 83109, Note_on_c, 0, 52, 22
2, 83113, Note_on_c, 0, 57, 42
2, 83180, Control_c, 0, 64, 0
2, 83180, Note_on_c, 0, 72, 50
2, 83191, Control_c, 0, 64, 127
2, 83221, Control_c, 0, 64, 0
2, 83229, Note_on_c, 0, 68, 53
2, 83249, Note_off_c, 0, 72, 64
2, 83258, Control_c, 0, 64, 127
2, 83411, Note_off_c, 0, 62, 64
2, 83412, Note_off_c, 0, 52, 64
2, 83416, Note_off_c, 0, 57, 64
2, 83447, Note_on_c, 0, 62, 20
2, 83447, Note_on_c, 0, 59, 31
2, 83450, Note_on_c, 0, 52, 22
2, 83492, Control_c, 0, 64, 0
2, 83503, Control_c, 0, 64, 127
2, 83677, Note_off_c, 0, 59, 64
2, 83677, Note_off_c, 0, 62, 64
2, 83680, Note_off_c, 0, 52, 64
2, 83719, Note_on_c, 0, 62, 28
2, 83724, Note_on_c, 0, 59, 42
2, 83734, Note_on_c, 0, 52, 14
2, 83817, Note_off_c, 0, 68, 64
2, 83822, Control_c, 0, 64, 0
2, 83835, Control_c, 0, 64, 127
2, 83987, Note_on_c, 0, 71, 48
2, 84032, Note_off_c, 0, 71, 64
2, 84067, Note_off_c, 0, 62, 64
2, 84072, Note_off_c, 0, 59, 64
2, 84082, Note_off_c, 0, 52, 64
2, 84088, Note_on_c, 0, 45, 50
2, 84091, Note_on_c, 0, 71, 44
2, 84134, Control_c, 0, 64, 0
2, 84147, Control_c, 0, 64, 127
2, 84242, Note_on_c, 0, 72, 48
2, 84261, Note_off_c, 0, 71, 64
2, 84346, Note_on_c, 0, 71, 39
2, 84379, Note_off_c, 0, 72, 64
2, 84438, Note_on_c, 0, 57, 16
2, 84449, Note_on_c, 0, 65, 16
2, 84449, Note_on_c, 0, 62, 14
2, 84454, Note_on_c, 0, 69, 44
2, 84484, Note_off_c, 0, 71, 64
2, 84506, Note_off_c, 0, 45, 64
2, 84567, Note_on_c, 0, 71, 35
2, 84595, Note_off_c, 0, 69, 64
2, 84657, Note_on_c, 0, 72, 44
2, 84681, Note_off_c, 0, 71, 64
2, 84739, Note_off_c, 0, 72, 64
2, 84749, Note_on_c, 0, 72, 36
2, 84755, Note_off_c, 0, 57, 64
2, 84758, Note_off_c, 0, 65, 64
2, 84766, Note_off_c, 0, 62, 64
2, 84769, Note_on_c, 0, 57, 22
2, 84775, Note_on_c, 0, 65, 22
2, 84778, Note_on_c, 0, 62, 16
2, 84784, Note_on_c, 0, 76, 50
2, 84799, Note_off_c, 0, 72, 64
2, 84896, Note_on_c, 0, 74, 42
2, 84902, Control_c, 0, 64, 0
2, 84913, Note_off_c, 0, 76, 64
2, 84935, Control_c, 0, 64, 127
2, 85040, Note_off_c, 0, 74, 64
2, 85056, Note_on_c, 0, 69, 48
2, 85093, Note_off_c, 0, 69, 64
2, 85116, Note_on_c, 0, 69, 50
2, 85133, Note_off_c, 0, 57, 64
2, 85139, Note_off_c, 0, 65, 64
2, 85142, Note_off_c, 0, 62, 64
2, 85171, Note_on_c, 0, 72, 50
2, 85179, Note_on_c, 0, 65, 28
2, 85185, Note_on_c, 0, 60, 36
2, 85185, Note_on_c, 0, 57, 29
2, 85191, Note_off_c, 0, 69, 64
2, 85214, Control_c, 0, 64, 0
2, 85247, Control_c, 0, 64, 127
2, 85419, Note_off_c, 0, 65, 64
2, 85425, Note_off_c, 0, 57, 64
2, 85425, Note_off_c, 0, 60, 64
2, 85435, Note_on_c, 0, 57, 22
2, 85439, Note_on_c, 0, 65, 26
2, 85439, Note_on_c, 0, 60, 22
2, 85528, Note_off_c, 0, 72, 64
2, 85675, Note_off_c, 0, 57, 64
2, 85679, Note_off_c, 0, 60, 64
2, 85679, Note_off_c, 0, 65, 64
2, 85687, Note_on_c, 0, 56, 29
2, 85697, Note_on_c, 0, 65, 22
2, 85703, Note_on_c, 0, 60, 22
2, 85708, Note_on_c, 0, 71, 40
2, 85807, Note_on_c, 0, 72, 40
2, 85839, Note_off_c, 0, 71, 64
2, 85888, Note_on_c, 0, 73, 44
2, 85920, Note_off_c, 0, 72, 64
2, 85927, Note_off_c, 0, 56, 64
2, 85937, Note_off_c, 0, 65, 64
2, 85943, Note_off_c, 0, 60, 64
2, 85983, Note_on_c, 0, 60, 22
2, 85990, Note_on_c, 0, 65, 22
2, 85990, Note_on_c, 0, 55, 22
2, 85993, Note_on_c, 0, 74, 42
2, 86011, Note_off_c, 0, 73, 64
2, 86084, Note_on_c, 0, 84, 45
2, 86123, Note_off_c, 0, 74, 64
2, 86161, Note_on_c, 0, 83, 42
2, 86183, Note_off_c, 0, 84, 64
2, 86213, Note_off_c, 0, 60, 64
2, 86220, Note_off_c, 0, 55, 64
2, 86220, Note_off_c, 0, 65, 64
2, 86228, Note_on_c, 0, 55, 14
2, 86236, Note_on_c, 0, 65, 22
2, 86236, Note_on_c, 0, 59, 31
2, 86238, Note_on_c, 0, 72, 44
2, 86259, Note_off_c, 0, 83, 64
2, 86313, Note_on_c, 0, 71, 40
2, 86343, Note_off_c, 0, 72, 64
2, 86404, Note_on_c, 0, 81, 37
2, 86441, Note_off_c, 0, 71, 64
2, 86444, Note_off_c, 0, 55, 64
2, 86452, Note_off_c, 0, 59, 64
2, 86452, Note_off_c, 0, 65, 64
2, 86453, Control_c, 0, 64, 0
2, 86460, Note_on_c, 0, 65, 20
2, 86475, Note_on_c, 0, 59, 36
2, 86476, Note_on_c, 0, 55, 16
2, 86480, Note_on_c, 0, 79, 44
2, 86485, Control_c, 0, 64, 127
2, 86493, Note_off_c, 0, 81, 64
2, 86544, Note_on_c, 0, 69, 24
2, 86570, Note_off_c, 0, 79, 64
2, 86621, Note_on_c, 0, 67, 44
2, 86633, Note_off_c, 0, 69, 64
2, 86700, Note_off_c, 0, 65, 64
2, 86714, Note_on_c, 0, 76, 48
2, 86715, Note_off_c, 0, 59, 64
2, 86716, Note_off_c, 0, 55, 64
2, 86727, Note_on_c, 0, 59, 29
2, 86732, Note_off_c, 0, 67, 64
2, 86734, Note_on_c, 0, 55, 22
2, 86735, Note_on_c, 0, 64, 26
2, 86765, Control_c, 0, 64, 0
2, 86797, Control_c, 0, 64, 127
2, 86980, Note_off_c, 0, 59, 64
2, 86987, Note_off_c, 0, 55, 64
2, 86988, Note_off_c, 0, 64, 64
2, 87004, Note_on_c, 0, 55, 14
2, 87008, Note_on_c, 0, 64, 22
2, 87017, Note_on_c, 0, 59, 22
2, 87224, Note_off_c, 0, 55, 64
2, 87228, Note_off_c, 0, 64, 64
2, 87234, Note_on_c, 0, 64, 22
2, 87234, Note_on_c, 0, 55, 22
2, 87237, Note_off_c, 0, 59, 64
2, 87243, Note_on_c, 0, 59, 22
2, 87484, Note_on_c, 0, 54, 22
2, 87487, Note_off_c, 0, 55, 64
2, 87487, Note_off_c, 0, 64, 64
2, 87491, Note_on_c, 0, 58, 22
2, 87496, Note_off_c, 0, 59, 64
2, 87500, Note_on_c, 0, 64, 22
2, 87537, Control_c, 0, 64, 0
2, 87583, Control_c, 0, 64, 127
2, 87586, Note_off_c, 0, 76, 64
2, 87724, Note_off_c, 0, 54, 64
2, 87731, Note_off_c, 0, 58, 64
2, 87740, Note_off_c, 0, 64, 64
2, 87740, Note_on_c, 0, 58, 27
2, 87756, Note_on_c, 0, 63, 33
2, 87756, Note_on_c, 0, 54, 26
2, 87823, Note_on_c, 0, 78, 50
2, 87849, Control_c, 0, 64, 0
2, 87884, Note_on_c, 0, 75, 54
2, 87894, Note_off_c, 0, 78, 64
2, 87895, Control_c, 0, 64, 127
2, 88039, Note_off_c, 0, 58, 64
2, 88055, Note_off_c, 0, 54, 64
2, 88055, Note_off_c, 0, 63, 64
2, 88070, Note_on_c, 0, 58, 16
2, 88076, Note_on_c, 0, 54, 20
2, 88080, Note_on_c, 0, 63, 27
2, 88291, Note_off_c, 0, 75, 64
2, 88346, Note_off_c, 0, 58, 64
2, 88352, Note_off_c, 0, 54, 64
2, 88356, Note_off_c, 0, 63, 64
2, 88362, Note_on_c, 0, 53, 20
2, 88364, Note_on_c, 0, 57, 16
2, 88378, Note_on_c, 0, 63, 16
2, 88407, Control_c, 0, 64, 0
2, 88414, Note_on_c, 0, 76, 35
2, 88441, Control_c, 0, 64, 127
2, 88460, Note_on_c, 0, 77, 36
2, 88483, Note_off_c, 0, 76, 64
2, 88499, Note_on_c, 0, 80, 26
2, 88514, Note_off_c, 0, 77, 64
2, 88543, Note_on_c, 0, 79, 33
2, 88556, Note_off_c, 0, 80, 64
2, 88602, Note_on_c, 0, 78, 36
2, 88609, Note_off_c, 0, 79, 64
2, 88641, Note_on_c, 0, 77, 36
2, 88658, Note_off_c, 0, 78, 64
2, 88679, Note_off_c, 0, 53, 64
2, 88681, Note_off_c, 0, 57, 64
2, 88692, Note_on_c, 0, 74, 42
2, 88695, Note_off_c, 0, 63, 64
2, 88699, Note_on_c, 0, 53, 13
2, 88703, Note_on_c, 0, 57, 16
2, 88707, Note_on_c, 0, 62, 16
2, 88712, Note_off_c, 0, 77, 64
2, 88719, Control_c, 0, 64, 0
2, 88753, Control_c, 0, 64, 127
2, 88939, Note_off_c, 0, 53, 64
2, 88943, Note_off_c, 0, 57, 64
2, 88947, Note_off_c, 0, 62, 64
2, 88975, Note_on_c, 0, 53, 11
2, 88980, Note_on_c, 0, 62, 11
2, 88982, Note_on_c, 0, 57, 11
2, 88988, Note_off_c, 0, 74, 64
2, 89065, Control_c, 0, 64, 0
2, 89078, Control_c, 0, 64, 127
2, 89268, Note_on_c, 0, 80, 62
2, 89334, Note_on_c, 0, 88, 63
2, 89337, Note_on_c, 0, 84, 67
2, 89338, Note_on_c, 0, 40, 54
2, 89349, Note_off_c, 0, 80, 64
2, 89377, Control_c, 0, 64, 0
2, 89390, Control_c, 0, 64, 127
2, 89393, Note_off_c, 0, 53, 64
2, 89398, Note_off_c, 0, 62, 64
2, 89400, Note_off_c, 0, 57, 64
2, 89439, Control_c, 0, 64, 0
2, 89471, Control_c, 0, 64, 127
2, 89610, Note_off_c, 0, 88, 64
2, 89618, Note_off_c, 0, 84, 64
2, 89638, Note_on_c, 0, 83, 54
2, 89646, Note_on_c, 0, 88, 58
2, 89711, Note_off_c, 0, 88, 64
2, 89715, Note_off_c, 0, 83, 64
2, 89721, Note_on_c, 0, 88, 50
2, 89721, Note_on_c, 0, 80, 58
2, 89726, Note_on_c, 0, 52, 33
2, 89733, Note_on_c, 0, 62, 22
2, 89733, Note_on_c, 0, 59, 24
2, 89751, Control_c, 0, 64, 0
2, 89756, Note_off_c, 0, 40, 64
2, 89783, Control_c, 0, 64, 127
2, 89828, Note_off_c, 0, 88, 64
2, 89851, Note_off_c, 0, 80, 64
2, 90090, Note_off_c, 0, 52, 64
2, 90097, Note_off_c, 0, 59, 64
2, 90097, Note_off_c, 0, 62, 64
2, 90107, Note_on_c, 0, 68, 52
2, 90116, Note_on_c, 0, 52, 13
2, 90123, Note_on_c, 0, 62, 15
2, 90124, Note_on_c, 0, 59, 1
2, 90151, Control_c, 0, 64, 0
2, 90184, Control_c, 0, 64, 127
2, 90424, Note_on_c, 0, 69, 33
2, 90433, Note_on_c, 0, 45, 28
2, 90453, Note_off_c, 0, 68, 64
2, 90463, Control_c, 0, 64, 0
2, 90480, Note_off_c, 0, 52, 64
2, 90487, Note_off_c, 0, 62, 64
2, 90488, Note_off_c, 0, 59, 64
2, 90496, Control_c, 0, 64, 127
2, 90718, Note_on_c, 0, 52, 22
2, 90722, Note_on_c, 0, 60, 14
2, 90759, Note_off_c, 0, 69, 64
2, 90958, Note_off_c, 0, 52, 64
2, 90962, Note_off_c, 0, 60, 64
2, 90973, Note_on_c, 0, 76, 50
2, 90973, Note_on_c, 0, 60, 22
2, 90978, Note_on_c, 0, 52, 33
2, 91127, Note_off_c, 0, 45, 64
2, 91180, Control_c, 0, 64, 0
2, 91215, Control_c, 0, 64, 127
2, 91216, Note_on_c, 0, 45, 37
2, 91249, Note_off_c, 0, 52, 64
2, 91262, Note_off_c, 0, 60, 64
2, 91424, Note_on_c, 0, 75, 48
2, 91443, Note_off_c, 0, 76, 64
2, 91466, Note_on_c, 0, 54, 22
2, 91469, Note_on_c, 0, 60, 22
2, 91481, Note_on_c, 0, 69, 45
2, 91492, Control_c, 0, 64, 0
2, 91510, Note_off_c, 0, 75, 64
2, 91527, Control_c, 0, 64, 127
2, 91561, Note_off_c, 0, 69, 64
2, 91662, Control_c, 0, 64, 0
2, 91699, Control_c, 0, 64, 127
2, 91706, Note_off_c, 0, 54, 64
2, 91709, Note_off_c, 0, 60, 64
2, 91720, Note_on_c, 0, 63, 48
2, 91726, Note_on_c, 0, 60, 31
2, 91726, Note_on_c, 0, 54, 24
2, 91916, Note_off_c, 0, 45, 64
2, 91942, Note_on_c, 0, 75, 45
2, 91950, Note_on_c, 0, 45, 33
2, 91952, Note_off_c, 0, 63, 64
2, 91955, Note_on_c, 0, 69, 37
2, 91966, Note_off_c, 0, 54, 64
2, 91966, Note_off_c, 0, 60, 64
2, 91974, Control_c, 0, 64, 0
2, 92011, Control_c, 0, 64, 127
2, 92096, Note_on_c, 0, 60, 26
2, 92096, Note_on_c, 0, 53, 35
2, 92336, Note_off_c, 0, 53, 64
2, 92336, Note_off_c, 0, 60, 64
2, 92416, Note_on_c, 0, 60, 29
2, 92424, Note_on_c, 0, 53, 22
2, 92550, Control_c, 0, 64, 0
2, 92585, Control_c, 0, 64, 127
2, 92588, Note_off_c, 0, 45, 64
2, 92618, Note_on_c, 0, 45, 22
2, 92632, Note_off_c, 0, 75, 64
2, 92639, Note_off_c, 0, 69, 64
2, 92656, Note_off_c, 0, 60, 64
2, 92664, Note_off_c, 0, 53, 64
2, 92780, Note_on_c, 0, 74, 45
2, 92828, Note_on_c, 0, 53, 28
2, 92829, Note_on_c, 0, 59, 22
2, 92838, Note_on_c, 0, 68, 48
2, 92862, Control_c, 0, 64, 0
2, 92876, Note_off_c, 0, 74, 64
2, 92897, Control_c, 0, 64, 127
2, 93044, Control_c, 0, 64, 0
2, 93068, Note_off_c, 0, 53, 64
2, 93069, Note_off_c, 0, 59, 64
2, 93079, Note_on_c, 0, 62, 42
2, 93082, Note_on_c, 0, 59, 29
2, 93082, Note_on_c, 0, 53, 29
2, 93082, Control_c, 0, 64, 127
2, 93102, Note_off_c, 0, 68, 64
2, 93283, Note_off_c, 0, 45, 64
2, 93320, Note_on_c, 0, 68, 40
2, 93322, Note_off_c, 0, 53, 64
2, 93322, Note_off_c, 0, 59, 64
2, 93327, Note_on_c, 0, 74, 40
2, 93336, Note_on_c, 0, 45, 40
2, 93356, Control_c, 0, 64, 0
2, 93372, Note_off_c, 0, 62, 64
2, 93394, Control_c, 0, 64, 127
2, 93496, Note_on_c, 0, 58, 28
2, 93496, Note_on_c, 0, 53, 31
2, 93696, Note_off_c, 0, 53, 64
2, 93696, Note_off_c, 0, 58, 64
2, 93703, Control_c, 0, 64, 0
2, 93726, Control_c, 0, 64, 127
2, 93782, Note_on_c, 0, 58, 24
2, 93785, Note_on_c, 0, 53, 24
2, 93915, Control_c, 0, 64, 0
2, 93948, Control_c, 0, 64, 127
2, 93984, Note_off_c, 0, 45, 64
2, 93994, Note_on_c, 0, 45, 37
2, 94015, Control_c, 0, 64, 0
2, 94022, Note_off_c, 0, 58, 64
2, 94025, Note_off_c, 0, 53, 64
2, 94038, Control_c, 0, 64, 127
2, 94063, Note_off_c, 0, 68, 64
2, 94070, Note_off_c, 0, 74, 64
2, 94161, Note_on_c, 0, 73, 44
2, 94196, Note_on_c, 0, 58, 22
2, 94198, Note_on_c, 0, 67, 45
2, 94205, Note_on_c, 0, 52, 26
2, 94227, Control_c, 0, 64, 0
2, 94240, Note_off_c, 0, 73, 64
2, 94260, Control_c, 0, 64, 127
2, 94432, Control_c, 0, 64, 0
2, 94436, Note_off_c, 0, 58, 64
2, 94445, Note_off_c, 0, 52, 64
2, 94447, Note_on_c, 0, 61, 36
2, 94450, Note_on_c, 0, 58, 22
2, 94462, Control_c, 0, 64, 127
2, 94462, Note_on_c, 0, 52, 22
2, 94476, Note_off_c, 0, 67, 64
2, 94632, Note_off_c, 0, 45, 64
2, 94686, Note_off_c, 0, 61, 64
2, 94690, Note_off_c, 0, 58, 64
2, 94694, Note_on_c, 0, 72, 50
2, 94698, Note_on_c, 0, 66, 33
2, 94698, Note_on_c, 0, 45, 37
2, 94702, Note_off_c, 0, 52, 64
2, 94744, Control_c, 0, 64, 0
2, 94774, Control_c, 0, 64, 127
2, 94840, Note_on_c, 0, 57, 22
2, 94840, Note_on_c, 0, 51, 28
2, 95040, Note_off_c, 0, 51, 64
2, 95040, Note_off_c, 0, 57, 64
2, 95160, Note_on_c, 0, 57, 22
2, 95160, Note_on_c, 0, 51, 42
2, 95195, Note_off_c, 0, 66, 64
2, 95205, Note_off_c, 0, 72, 64
2, 95312, Note_off_c, 0, 45, 64
2, 95338, Note_off_c, 0, 51, 64
2, 95338, Note_off_c, 0, 57, 64
2, 95364, Note_on_c, 0, 71, 39
2, 95369, Note_on_c, 0, 65, 37
2, 95373, Note_on_c, 0, 45, 40
2, 95461, Note_on_c, 0, 72, 50
2, 95490, Note_off_c, 0, 71, 64
2, 95527, Note_off_c, 0, 65, 64
2, 95582, Control_c, 0, 64, 0
2, 95582, Note_on_c, 0, 74, 52
2, 95583, Note_on_c, 0, 57, 28
2, 95591, Note_on_c, 0, 50, 29
2, 95592, Note_off_c, 0, 72, 64
2, 95595, Note_on_c, 0, 65, 45
2, 95604, Control_c, 0, 64, 127
2, 95704, Note_off_c, 0, 65, 64
2, 95823, Note_off_c, 0, 57, 64
2, 95831, Note_off_c, 0, 50, 64
2, 95853, Note_on_c, 0, 69, 48
2, 95853, Note_on_c, 0, 50, 37
2, 95860, Note_on_c, 0, 65, 45
2, 95864, Note_on_c, 0, 57, 33
2, 95879, Control_c, 0, 64, 0
2, 95888, Note_off_c, 0, 74, 64
2, 95894, Control_c, 0, 64, 0
2, 95916, Control_c, 0, 64, 127
2, 95943, Control_c, 0, 64, 127
2, 95998, Note_off_c, 0, 65, 64
2, 96126, Note_off_c, 0, 45, 64
2, 96155, Note_on_c, 0, 72, 48
2, 96156, Note_on_c, 0, 64, 33
2, 96165, Note_on_c, 0, 45, 36
2, 96185, Note_off_c, 0, 69, 64
2, 96191, Control_c, 0, 64, 0
2, 96196, Note_off_c, 0, 50, 64
2, 96207, Note_off_c, 0, 57, 64
2, 96255, Control_c, 0, 64, 127
2, 96416, Control_c, 0, 64, 0
2, 96428, Control_c, 0, 64, 127
2, 96442, Note_on_c, 0, 52, 28
2, 96445, Note_on_c, 0, 60, 14
2, 96672, Note_off_c, 0, 52, 64
2, 96675, Note_off_c, 0, 60, 64
2, 96682, Note_off_c, 0, 72, 64
2, 96690, Note_on_c, 0, 76, 32
2, 96700, Note_on_c, 0, 60, 23
2, 96701, Note_on_c, 0, 52, 28
2, 96721, Note_off_c, 0, 64, 64
2, 96728, Control_c, 0, 64, 0
2, 96740, Control_c, 0, 64, 127
2, 96841, Note_off_c, 0, 45, 64
2, 96927, Note_off_c, 0, 60, 64
2, 96933, Note_on_c, 0, 45, 20
2, 96937, Note_off_c, 0, 52, 64
2, 97085, Note_on_c, 0, 75, 29
2, 97121, Note_off_c, 0, 76, 64
2, 97145, Note_on_c, 0, 54, 29
2, 97147, Note_on_c, 0, 69, 31
2, 97149, Note_on_c, 0, 60, 29
2, 97177, Note_off_c, 0, 75, 64
2, 97201, Note_off_c, 0, 69, 64
2, 97323, Note_on_c, 0, 81, 42
2, 97351, Control_c, 0, 64, 0
2, 97385, Note_off_c, 0, 54, 64
2, 97389, Note_off_c, 0, 60, 64
2, 97395, Control_c, 0, 64, 127
2, 97396, Note_on_c, 0, 63, 36
2, 97396, Note_on_c, 0, 60, 23
2, 97403, Note_on_c, 0, 54, 16
2, 97454, Note_off_c, 0, 81, 64
2, 97583, Control_c, 0, 64, 0
2, 97591, Note_off_c, 0, 45, 64
2, 97597, Control_c, 0, 64, 127
2, 97636, Note_off_c, 0, 60, 64
2, 97643, Note_off_c, 0, 54, 64
2, 97646, Note_on_c, 0, 75, 31
2, 97655, Note_on_c, 0, 45, 20
2, 97660, Note_off_c, 0, 63, 64
2, 97661, Note_on_c, 0, 69, 23
2, 97663, Control_c, 0, 64, 0
2, 97707, Control_c, 0, 64, 127
2, 97824, Note_on_c, 0, 60, 29
2, 97824, Note_on_c, 0, 53, 26
2, 97895, Control_c, 0, 64, 0
2, 97909, Control_c, 0, 64, 127
2, 98024, Note_off_c, 0, 53, 64
2, 98024, Note_off_c, 0, 60, 64
2, 98120, Note_on_c, 0, 53, 29
2, 98128, Note_on_c, 0, 60, 23
2, 98269, Note_off_c, 0, 45, 64
2, 98311, Note_on_c, 0, 45, 20
2, 98345, Note_off_c, 0, 60, 64
2, 98361, Note_off_c, 0, 69, 64
2, 98368, Note_off_c, 0, 53, 64
2, 98377, Note_off_c, 0, 75, 64
2, 98472, Note_on_c, 0, 74, 32
2, 98521, Note_on_c, 0, 53, 16
2, 98522, Note_on_c, 0, 59, 16
2, 98530, Note_on_c, 0, 68, 31
2, 98553, Note_off_c, 0, 74, 64
2, 98589, Note_off_c, 0, 68, 64
2, 98689, Note_on_c, 0, 81, 39
2, 98701, Control_c, 0, 64, 0
2, 98749, Control_c, 0, 64, 127
2, 98761, Note_off_c, 0, 53, 64
2, 98762, Note_off_c, 0, 59, 64
2, 98772, Note_on_c, 0, 62, 20
2, 98782, Note_on_c, 0, 59, 23
2, 98795, Note_on_c, 0, 53, 15
2, 98845, Note_off_c, 0, 81, 64
2, 98879, Control_c, 0, 64, 0
2, 98915, Control_c, 0, 64, 127
2, 98961, Note_off_c, 0, 45, 64
2, 98986, Note_on_c, 0, 68, 29
2, 98992, Note_on_c, 0, 74, 29
2, 99001, Note_on_c, 0, 45, 27
2, 99013, Control_c, 0, 64, 0
2, 99022, Note_off_c, 0, 59, 64
2, 99027, Note_off_c, 0, 62, 64
2, 99035, Note_off_c, 0, 53, 64
2, 99061, Control_c, 0, 64, 127
2, 99120, Note_on_c, 0, 53, 20
2, 99128, Note_on_c, 0, 58, 33
2, 99191, Control_c, 0, 64, 0
2, 99227, Control_c, 0, 64, 127
2, 99320, Note_off_c, 0, 53, 64
2, 99328, Note_off_c, 0, 58, 64
2, 99329, Control_c, 0, 64, 0
2, 99343, Control_c, 0, 64, 127
2, 99432, Note_on_c, 0, 58, 27
2, 99437, Note_on_c, 0, 53, 16
2, 99628, Note_off_c, 0, 45, 64
2, 99637, Note_off_c, 0, 53, 64
2, 99641, Control_c, 0, 64, 0
2, 99655, Control_c, 0, 64, 127
2, 99660, Note_on_c, 0, 45, 29
2, 99665, Note_off_c, 0, 58, 64
2, 99723, Note_off_c, 0, 68, 64
2, 99729, Note_off_c, 0, 74, 64
2, 99778, Note_on_c, 0, 73, 24
2, 99840, Note_on_c, 0, 67, 31
2, 99852, Note_on_c, 0, 58, 16
2, 99859, Note_on_c, 0, 52, 15
2, 99878, Note_off_c, 0, 73, 64
2, 99903, Note_off_c, 0, 67, 64
2, 100028, Control_c, 0, 64, 0
2, 100032, Note_on_c, 0, 81, 42
2, 100052, Note_off_c, 0, 58, 64
2, 100059, Note_off_c, 0, 52, 64
2, 100063, Control_c, 0, 64, 127
2, 100077, Note_on_c, 0, 58, 29
2, 100093, Note_on_c, 0, 52, 18
2, 100096, Note_on_c, 0, 61, 32
2, 100168, Note_off_c, 0, 81, 64
2, 100229, Control_c, 0, 64, 0
2, 100268, Control_c, 0, 64, 127
2, 100287, Note_off_c, 0, 61, 64
2, 100316, Note_off_c, 0, 45, 64
2, 100317, Note_off_c, 0, 58, 64
2, 100320, Note_on_c, 0, 66, 29
2, 100321, Note_on_c, 0, 72, 31
2, 100329, Note_on_c, 0, 45, 29
2, 100333, Note_off_c, 0, 52, 64
2, 100340, Control_c, 0, 64, 0
2, 100375, Control_c, 0, 64, 127
2, 100464, Note_on_c, 0, 57, 23
2, 100472, Note_on_c, 0, 51, 37
2, 100541, Control_c, 0, 64, 0
2, 100580, Control_c, 0, 64, 127
2, 100664, Note_off_c, 0, 57, 64
2, 100672, Note_off_c, 0, 51, 64
2, 100776, Note_on_c, 0, 57, 23
2, 100776, Note_on_c, 0, 51, 27
2, 100905, Note_off_c, 0, 45, 64
2, 100923, Control_c, 0, 64, 0
2, 100938, Note_off_c, 0, 66, 64
2, 100939, Note_off_c, 0, 72, 64
2, 100957, Control_c, 0, 64, 127
2, 100965, Note_on_c, 0, 71, 40
2, 100974, Note_on_c, 0, 65, 35
2, 100980, Note_on_c, 0, 45, 28
2, 101016, Note_off_c, 0, 51, 64
2, 101016, Note_off_c, 0, 57, 64
2, 101083, Note_on_c, 0, 72, 31
2, 101106, Note_off_c, 0, 71, 64
2, 101134, Note_off_c, 0, 65, 64
2, 101198, Note_on_c, 0, 74, 39
2, 101206, Note_off_c, 0, 72, 64
2, 101214, Note_on_c, 0, 65, 23
2, 101217, Note_on_c, 0, 57, 24
2, 101224, Note_on_c, 0, 50, 24
2, 101227, Control_c, 0, 64, 0
2, 101235, Control_c, 0, 64, 0
2, 101240, Control_c, 0, 64, 127
2, 101269, Control_c, 0, 64, 127
2, 101340, Note_off_c, 0, 65, 64
2, 101457, Note_off_c, 0, 57, 64
2, 101464, Note_off_c, 0, 50, 64
2, 101487, Note_on_c, 0, 69, 35
2, 101494, Note_off_c, 0, 74, 64
2, 101494, Note_on_c, 0, 65, 26
2, 101502, Note_on_c, 0, 57, 24
2, 101508, Note_on_c, 0, 50, 23
2, 101539, Control_c, 0, 64, 0
2, 101552, Control_c, 0, 64, 127
2, 101580, Control_c, 0, 64, 0
2, 101623, Control_c, 0, 64, 127
2, 101640, Note_off_c, 0, 65, 64
2, 101780, Note_off_c, 0, 45, 64
2, 101843, Note_on_c, 0, 72, 32
2, 101847, Note_on_c, 0, 64, 23
2, 101849, Note_on_c, 0, 45, 22
2, 101863, Note_off_c, 0, 69, 64
2, 101892, Control_c, 0, 64, 0
2, 101901, Note_off_c, 0, 57, 64
2, 101907, Note_off_c, 0, 50, 64
2, 101935, Control_c, 0, 64, 127
2, 102124, Note_on_c, 0, 52, 18
2, 102131, Note_on_c, 0, 60, 14
2, 102323, Note_off_c, 0, 60, 64
2, 102328, Note_off_c, 0, 52, 64
2, 102338, Control_c, 0, 64, 0
2, 102352, Control_c, 0, 64, 127
2, 102364, Note_on_c, 0, 52, 24
2, 102376, Note_on_c, 0, 60, 16
2, 102498, Note_off_c, 0, 45, 64
2, 102598, Note_on_c, 0, 45, 15
2, 102648, Note_off_c, 0, 52, 64
2, 102650, Control_c, 0, 64, 0
2, 102660, Note_off_c, 0, 60, 64
2, 102664, Control_c, 0, 64, 127
2, 102831, Note_on_c, 0, 52, 27
2, 102846, Note_on_c, 0, 60, 14
2, 103034, Control_c, 0, 64, 0
2, 103055, Control_c, 0, 64, 127
2, 103060, Note_on_c, 0, 69, 42
2, 103062, Note_off_c, 0, 64, 64
2, 103074, Note_off_c, 0, 72, 64
2, 103270, Note_off_c, 0, 52, 64
2, 103291, Note_on_c, 0, 72, 35
2, 103305, Note_off_c, 0, 60, 64
2, 103309, Note_off_c, 0, 45, 64
2, 103318, Note_off_c, 0, 69, 64
2, 103346, Control_c, 0, 64, 0
2, 103367, Control_c, 0, 64, 127
2, 103529, Note_on_c, 0, 60, 13
2, 103536, Note_on_c, 0, 52, 13
2, 103771, Note_on_c, 0, 45, 10
2, 103817, Note_off_c, 0, 60, 64
2, 103824, Note_off_c, 0, 52, 64
2, 104012, Note_on_c, 0, 52, 18
2, 104021, Note_on_c, 0, 60, 11
2, 104033, Note_off_c, 0, 45, 64
2, 104275, Note_on_c, 0, 45, 10
2, 104375, Note_off_c, 0, 72, 64
2, 104558, Note_on_c, 0, 72, 32
2, 104614, Note_off_c, 0, 52, 64
2, 104623, Note_off_c, 0, 60, 64
2, 104860, Note_off_c, 0, 45, 64
2, 104988, Note_on_c, 0, 69, 23
2, 105025, Note_off_c, 0, 72, 64
2, 105218, Control_c, 0, 64, 0
2, 105311, Control_c, 0, 64, 127
2, 105530, Control_c, 0, 64, 0
2, 105623, Control_c, 0, 64, 127
2, 106430, Note_on_c, 0, 59, 16
2, 106439, Note_on_c, 0, 57, 16
2, 106441, Note_on_c, 0, 65, 16
2, 106682, Note_off_c, 0, 57, 64
2, 106689, Note_off_c, 0, 65, 64
2, 106724, Note_on_c, 0, 60, 24
2, 106728, Note_on_c, 0, 65, 18
2, 106730, Note_on_c, 0, 57, 22
2, 106745, Note_off_c, 0, 59, 64
2, 106981, Note_off_c, 0, 57, 64
2, 107008, Note_off_c, 0, 65, 64
2, 107020, Note_on_c, 0, 65, 16
2, 107020, Note_on_c, 0, 62, 20
2, 107027, Note_on_c, 0, 57, 20
2, 107073, Note_off_c, 0, 60, 64
2, 107282, Note_off_c, 0, 57, 64
2, 107302, Note_off_c, 0, 65, 64
2, 107341, Note_on_c, 0, 65, 19
2, 107341, Note_on_c, 0, 59, 24
2, 107341, Note_on_c, 0, 57, 19
2, 107378, Note_off_c, 0, 62, 64
2, 107629, Note_off_c, 0, 57, 64
2, 107637, Note_off_c, 0, 65, 64
2, 107654, Note_on_c, 0, 65, 12
2, 107655, Note_on_c, 0, 60, 20
2, 107660, Note_on_c, 0, 57, 16
2, 107705, Note_off_c, 0, 59, 64
2, 107955, Note_off_c, 0, 57, 64
2, 107999, Note_off_c, 0, 65, 64
2, 108030, Note_on_c, 0, 65, 16
2, 108035, Note_on_c, 0, 62, 15
2, 108040, Note_on_c, 0, 57, 15
2, 108081, Note_off_c, 0, 60, 64
2, 108364, Note_off_c, 0, 57, 64
2, 108380, Note_off_c, 0, 65, 64
2, 108404, Note_on_c, 0, 65, 15
2, 108408, Note_on_c, 0, 59, 18
2, 108408, Note_on_c, 0, 57, 18
2, 108484, Note_off_c, 0, 62, 64
2, 108807, Note_off_c, 0, 57, 64
2, 108828, Note_off_c, 0, 65, 64
2, 108843, Note_on_c, 0, 65, 12
2, 108843, Note_on_c, 0, 57, 12
2, 108847, Note_on_c, 0, 60, 12
2, 108931, Note_off_c, 0, 59, 64
2, 109009, Note_off_c, 0, 69, 64
2, 109343, Note_on_c, 0, 62, 22
2, 109472, Note_off_c, 0, 57, 64
2, 109472, Note_off_c, 0, 65, 64
2, 109476, Note_off_c, 0, 60, 64
2, 109524, Note_on_c, 0, 64, 19
2, 109584, Note_off_c, 0, 62, 64
2, 109738, Note_off_c, 0, 64, 64
2, 109741, Note_on_c, 0, 62, 22
2, 109845, Control_c, 0, 64, 0
2, 109918, Control_c, 0, 64, 127
2, 110050, Note_on_c, 0, 65, 18
2, 110058, Note_on_c, 0, 60, 16
2, 110061, Note_on_c, 0, 57, 14
2, 110157, Control_c, 0, 64, 0
2, 110196, Note_off_c, 0, 62, 64
2, 110230, Control_c, 0, 64, 127
2, 112258, Control_c, 0, 64, 0
2, 112570, Control_c, 0, 64, 0
2, 112891, Note_off_c, 0, 57, 64
2, 112891, Note_off_c, 0, 60, 64
2, 112895, Note_off_c, 0, 65, 64
