0, 0, Header, 1, 7, 240
1, 0, Start_track
1, 0, Time_signature, 4, 2, 24, 8
1, 0, Tempo, 500000
1, 0, Marker_t, "Chopin: Mazurka, Op. 33 No. 1- Mesto"
1, 0, End_track
2, 0, Start_track
2, 0, Title_t, "Chopin: Op. 33 No. 1"
2, 0, Program_c, 0, 0
2, 0, Control_c, 0, 7, 127
2, 36, Note_on_c, 0, 63, 49
2, 47, Control_c, 0, 64, 127
2, 59, Control_c, 0, 64, 127
2, 376, Note_on_c, 0, 64, 53
2, 406, Control_c, 0, 64, 0
2, 418, Control_c, 0, 64, 0
2, 420, Note_off_c, 0, 63, 64
2, 451, Control_c, 0, 64, 127
2, 463, Control_c, 0, 64, 127
2, 683, Note_on_c, 0, 63, 52
2, 692, Note_off_c, 0, 64, 64
2, 752, Note_on_c, 0, 71, 57
2, 753, Note_on_c, 0, 68, 46
2, 753, Note_on_c, 0, 62, 60
2, 775, Note_off_c, 0, 63, 64
2, 779, Control_c, 0, 64, 0
2, 791, Control_c, 0, 64, 0
2, 822, Control_c, 0, 64, 127
2, 834, Control_c, 0, 64, 127
2, 1164, Note_on_c, 0, 70, 68
2, 1168, Note_on_c, 0, 61, 54
2, 1171, Note_on_c, 0, 39, 49
2, 1173, Note_on_c, 0, 67, 54
2, 1176, Note_off_c, 0, 62, 64
2, 1176, Note_off_c, 0, 68, 64
2, 1232, Note_off_c, 0, 71, 64
2, 1236, Control_c, 0, 64, 0
2, 1247, Control_c, 0, 64, 127
2, 1248, Control_c, 0, 64, 0
2, 1259, Control_c, 0, 64, 127
2, 1642, Note_off_c, 0, 39, 64
2, 1645, Note_on_c, 0, 44, 56
2, 1654, Note_on_c, 0, 68, 65
2, 1678, Note_off_c, 0, 61, 64
2, 1683, Note_off_c, 0, 67, 64
2, 1698, Note_off_c, 0, 70, 64
2, 1716, Control_c, 0, 64, 0
2, 1728, Control_c, 0, 64, 0
2, 1763, Control_c, 0, 64, 127
2, 1775, Control_c, 0, 64, 127
2, 2208, Note_on_c, 0, 51, 30
2, 2220, Note_on_c, 0, 63, 39
2, 2220, Note_on_c, 0, 56, 27
2, 2225, Note_on_c, 0, 59, 45
2, 2304, Control_c, 0, 64, 0
2, 2316, Control_c, 0, 64, 0
2, 2358, Control_c, 0, 64, 127
2, 2370, Control_c, 0, 64, 127
2, 2803, Note_on_c, 0, 70, 52
2, 2817, Note_off_c, 0, 68, 64
2, 2941, Note_off_c, 0, 51, 64
2, 2951, Note_off_c, 0, 56, 64
2, 2951, Note_off_c, 0, 63, 64
2, 2956, Note_off_c, 0, 59, 64
2, 2969, Note_on_c, 0, 71, 54
2, 2985, Note_off_c, 0, 70, 64
2, 3009, Control_c, 0, 64, 0
2, 3021, Control_c, 0, 64, 0
2, 3050, Note_off_c, 0, 44, 64
2, 3075, Control_c, 0, 64, 127
2, 3087, Control_c, 0, 64, 127
2, 3106, Note_on_c, 0, 73, 54
2, 3135, Note_off_c, 0, 71, 64
2, 3248, Note_on_c, 0, 75, 57
2, 3269, Note_off_c, 0, 73, 64
2, 3484, Note_on_c, 0, 78, 54
2, 3504, Note_off_c, 0, 75, 64
2, 3521, Note_on_c, 0, 76, 56
2, 3549, Note_off_c, 0, 78, 64
2, 3808, Note_on_c, 0, 75, 50
2, 3828, Control_c, 0, 64, 0
2, 3840, Control_c, 0, 64, 0
2, 3846, Note_off_c, 0, 76, 64
2, 3852, Control_c, 0, 64, 127
2, 3864, Control_c, 0, 64, 127
2, 3943, Note_on_c, 0, 80, 54
2, 3947, Note_off_c, 0, 75, 64
2, 3986, Note_off_c, 0, 80, 64
2, 4108, Note_on_c, 0, 75, 61
2, 4114, Control_c, 0, 64, 0
2, 4126, Control_c, 0, 64, 0
2, 4181, Control_c, 0, 64, 127
2, 4193, Control_c, 0, 64, 127
2, 4428, Note_on_c, 0, 56, 39
2, 4435, Note_on_c, 0, 71, 38
2, 4437, Note_on_c, 0, 68, 24
2, 4444, Note_on_c, 0, 63, 23
2, 4490, Control_c, 0, 64, 0
2, 4502, Control_c, 0, 64, 0
2, 4524, Control_c, 0, 64, 127
2, 4536, Control_c, 0, 64, 127
2, 4599, Note_off_c, 0, 75, 64
2, 4763, Note_on_c, 0, 75, 61
2, 5024, Note_off_c, 0, 56, 64
2, 5030, Note_on_c, 0, 73, 57
2, 5031, Note_off_c, 0, 71, 64
2, 5033, Note_off_c, 0, 68, 64
2, 5033, Note_off_c, 0, 75, 64
2, 5040, Note_off_c, 0, 63, 64
2, 5093, Note_on_c, 0, 70, 58
2, 5095, Note_off_c, 0, 73, 64
2, 5095, Note_on_c, 0, 76, 61
2, 5107, Note_on_c, 0, 68, 50
2, 5107, Note_on_c, 0, 49, 47
2, 5109, Note_on_c, 0, 61, 38
2, 5115, Control_c, 0, 64, 0
2, 5127, Control_c, 0, 64, 0
2, 5150, Control_c, 0, 64, 127
2, 5162, Control_c, 0, 64, 127
2, 5419, Note_off_c, 0, 70, 64
2, 5433, Note_off_c, 0, 68, 64
2, 5471, Note_on_c, 0, 75, 53
2, 5475, Note_on_c, 0, 71, 57
2, 5481, Note_off_c, 0, 49, 64
2, 5481, Note_on_c, 0, 68, 39
2, 5481, Note_on_c, 0, 56, 38
2, 5481, Note_on_c, 0, 44, 46
2, 5483, Note_off_c, 0, 61, 64
2, 5508, Control_c, 0, 64, 0
2, 5520, Control_c, 0, 64, 0
2, 5531, Control_c, 0, 64, 127
2, 5538, Note_off_c, 0, 76, 64
2, 5543, Control_c, 0, 64, 127
2, 5789, Note_on_c, 0, 73, 58
2, 5791, Note_off_c, 0, 75, 64
2, 5792, Note_off_c, 0, 71, 64
2, 5832, Note_on_c, 0, 71, 61
2, 5842, Note_off_c, 0, 68, 64
2, 5847, Control_c, 0, 64, 0
2, 5859, Control_c, 0, 64, 0
2, 5869, Control_c, 0, 64, 127
2, 5875, Note_off_c, 0, 73, 64
2, 5881, Control_c, 0, 64, 127
2, 5893, Note_off_c, 0, 44, 64
2, 5916, Note_off_c, 0, 56, 64
2, 6091, Note_on_c, 0, 70, 61
2, 6102, Note_off_c, 0, 71, 64
2, 6152, Note_on_c, 0, 49, 46
2, 6152, Note_on_c, 0, 37, 46
2, 6155, Note_on_c, 0, 73, 69
2, 6162, Note_on_c, 0, 64, 46
2, 6172, Note_on_c, 0, 68, 58
2, 6186, Control_c, 0, 64, 0
2, 6191, Note_off_c, 0, 70, 64
2, 6198, Control_c, 0, 64, 0
2, 6199, Control_c, 0, 64, 127
2, 6211, Control_c, 0, 64, 127
2, 6582, Note_off_c, 0, 68, 64
2, 6594, Note_off_c, 0, 64, 64
2, 6604, Note_on_c, 0, 71, 56
2, 6606, Note_on_c, 0, 68, 41
2, 6613, Note_on_c, 0, 63, 32
2, 6614, Note_on_c, 0, 32, 31
2, 6620, Note_on_c, 0, 44, 30
2, 6624, Note_off_c, 0, 73, 64
2, 6649, Note_off_c, 0, 49, 64
2, 6671, Control_c, 0, 64, 0
2, 6683, Control_c, 0, 64, 0
2, 6720, Note_off_c, 0, 37, 64
2, 6721, Control_c, 0, 64, 127
2, 6733, Control_c, 0, 64, 127
2, 6993, Note_on_c, 0, 64, 50
2, 7012, Note_off_c, 0, 71, 64
2, 7014, Note_off_c, 0, 68, 64
2, 7021, Note_off_c, 0, 63, 64
2, 7027, Control_c, 0, 64, 0
2, 7028, Note_off_c, 0, 44, 64
2, 7039, Control_c, 0, 64, 0
2, 7044, Note_off_c, 0, 32, 64
2, 7060, Control_c, 0, 64, 127
2, 7072, Control_c, 0, 64, 127
2, 7248, Note_on_c, 0, 63, 50
2, 7278, Note_off_c, 0, 64, 64
2, 7309, Note_on_c, 0, 62, 57
2, 7317, Note_on_c, 0, 71, 53
2, 7320, Note_on_c, 0, 68, 42
2, 7330, Note_off_c, 0, 63, 64
2, 7330, Control_c, 0, 64, 0
2, 7342, Control_c, 0, 64, 0
2, 7352, Control_c, 0, 64, 127
2, 7364, Control_c, 0, 64, 127
2, 7668, Note_off_c, 0, 68, 64
2, 7671, Note_off_c, 0, 62, 64
2, 7680, Note_on_c, 0, 70, 56
2, 7681, Note_on_c, 0, 61, 49
2, 7687, Note_off_c, 0, 71, 64
2, 7687, Note_on_c, 0, 67, 53
2, 7692, Note_on_c, 0, 39, 39
2, 7728, Control_c, 0, 64, 0
2, 7740, Control_c, 0, 64, 0
2, 7750, Control_c, 0, 64, 127
2, 7762, Control_c, 0, 64, 127
2, 8069, Note_off_c, 0, 39, 64
2, 8088, Note_on_c, 0, 44, 30
2, 8101, Note_on_c, 0, 68, 63
2, 8103, Note_off_c, 0, 70, 64
2, 8105, Note_off_c, 0, 67, 64
2, 8125, Note_off_c, 0, 61, 64
2, 8158, Control_c, 0, 64, 0
2, 8170, Control_c, 0, 64, 0
2, 8182, Control_c, 0, 64, 127
2, 8194, Control_c, 0, 64, 127
2, 8525, Note_on_c, 0, 63, 30
2, 8531, Note_on_c, 0, 59, 23
2, 8541, Note_on_c, 0, 56, 19
2, 8542, Note_on_c, 0, 51, 23
2, 8827, Note_off_c, 0, 63, 64
2, 8833, Note_off_c, 0, 59, 64
2, 8843, Note_off_c, 0, 56, 64
2, 8844, Note_off_c, 0, 51, 64
2, 8918, Note_on_c, 0, 71, 47
2, 8918, Note_on_c, 0, 63, 31
2, 8923, Note_off_c, 0, 68, 64
2, 8931, Note_on_c, 0, 56, 15
2, 8935, Note_on_c, 0, 59, 16
2, 8935, Note_on_c, 0, 51, 17
2, 8953, Control_c, 0, 64, 0
2, 8965, Control_c, 0, 64, 0
2, 8976, Control_c, 0, 64, 127
2, 8988, Control_c, 0, 64, 127
2, 9252, Note_on_c, 0, 75, 58
2, 9267, Note_off_c, 0, 63, 64
2, 9267, Note_off_c, 0, 71, 64
2, 9280, Note_off_c, 0, 56, 64
2, 9284, Note_off_c, 0, 51, 64
2, 9284, Note_off_c, 0, 59, 64
2, 9312, Note_off_c, 0, 44, 64
2, 9503, Note_on_c, 0, 73, 42
2, 9509, Note_off_c, 0, 75, 64
2, 9541, Note_on_c, 0, 76, 52
2, 9547, Note_on_c, 0, 68, 42
2, 9553, Note_on_c, 0, 49, 39
2, 9556, Note_on_c, 0, 70, 57
2, 9563, Note_on_c, 0, 61, 26
2, 9577, Note_off_c, 0, 73, 64
2, 9857, Note_off_c, 0, 68, 64
2, 9866, Note_off_c, 0, 70, 64
2, 9894, Note_on_c, 0, 75, 52
2, 9901, Note_on_c, 0, 71, 36
2, 9901, Note_on_c, 0, 44, 27
2, 9909, Note_off_c, 0, 49, 64
2, 9909, Note_off_c, 0, 76, 64
2, 9909, Note_on_c, 0, 68, 24
2, 9910, Note_on_c, 0, 56, 20
2, 9919, Note_off_c, 0, 61, 64
2, 10199, Note_on_c, 0, 73, 47
2, 10203, Note_off_c, 0, 71, 64
2, 10228, Note_off_c, 0, 75, 64
2, 10243, Note_off_c, 0, 68, 64
2, 10243, Note_on_c, 0, 71, 47
2, 10253, Note_off_c, 0, 73, 64
2, 10279, Control_c, 0, 64, 0
2, 10291, Control_c, 0, 64, 0
2, 10296, Note_off_c, 0, 44, 64
2, 10313, Note_off_c, 0, 56, 64
2, 10313, Control_c, 0, 64, 127
2, 10325, Control_c, 0, 64, 127
2, 10539, Note_on_c, 0, 70, 46
2, 10558, Note_off_c, 0, 71, 64
2, 10596, Note_on_c, 0, 37, 34
2, 10599, Note_on_c, 0, 73, 41
2, 10605, Note_on_c, 0, 49, 21
2, 10608, Note_on_c, 0, 68, 50
2, 10608, Note_on_c, 0, 64, 21
2, 10647, Note_off_c, 0, 70, 64
2, 10912, Note_off_c, 0, 64, 64
2, 10917, Note_off_c, 0, 68, 64
2, 11023, Note_off_c, 0, 37, 64
2, 11029, Note_on_c, 0, 63, 31
2, 11032, Note_off_c, 0, 49, 64
2, 11032, Note_on_c, 0, 68, 32
2, 11038, Note_on_c, 0, 71, 34
2, 11040, Note_on_c, 0, 32, 26
2, 11045, Note_off_c, 0, 73, 64
2, 11051, Note_on_c, 0, 44, 17
2, 11098, Control_c, 0, 64, 0
2, 11110, Control_c, 0, 64, 0
2, 11121, Control_c, 0, 64, 127
2, 11133, Control_c, 0, 64, 127
2, 11329, Note_off_c, 0, 63, 64
2, 11332, Note_off_c, 0, 68, 64
2, 11335, Note_off_c, 0, 71, 64
2, 11408, Note_on_c, 0, 64, 21
2, 11444, Note_on_c, 0, 66, 41
2, 11450, Note_off_c, 0, 64, 64
2, 11491, Note_on_c, 0, 64, 42
2, 11496, Control_c, 0, 64, 0
2, 11500, Note_off_c, 0, 44, 64
2, 11506, Note_off_c, 0, 32, 64
2, 11508, Note_off_c, 0, 66, 64
2, 11508, Control_c, 0, 64, 0
2, 11524, Control_c, 0, 64, 127
2, 11536, Control_c, 0, 64, 127
2, 11807, Note_on_c, 0, 63, 32
2, 11814, Note_off_c, 0, 64, 64
2, 11860, Note_on_c, 0, 71, 46
2, 11860, Note_on_c, 0, 62, 45
2, 11870, Note_on_c, 0, 68, 35
2, 11890, Note_off_c, 0, 63, 64
2, 11908, Control_c, 0, 64, 0
2, 11920, Control_c, 0, 64, 0
2, 11926, Control_c, 0, 64, 127
2, 11938, Control_c, 0, 64, 127
2, 12301, Note_off_c, 0, 62, 64
2, 12306, Note_on_c, 0, 61, 23
2, 12310, Note_on_c, 0, 70, 49
2, 12311, Note_off_c, 0, 68, 64
2, 12311, Note_off_c, 0, 71, 64
2, 12315, Note_on_c, 0, 67, 32
2, 12316, Note_on_c, 0, 39, 35
2, 12366, Control_c, 0, 64, 0
2, 12378, Control_c, 0, 64, 0
2, 12398, Control_c, 0, 64, 127
2, 12410, Control_c, 0, 64, 127
2, 12695, Note_off_c, 0, 39, 64
2, 12699, Note_on_c, 0, 68, 36
2, 12699, Note_on_c, 0, 44, 23
2, 12737, Note_off_c, 0, 61, 64
2, 12741, Note_off_c, 0, 70, 64
2, 12746, Note_off_c, 0, 67, 64
2, 12751, Control_c, 0, 64, 0
2, 12763, Control_c, 0, 64, 0
2, 12774, Control_c, 0, 64, 127
2, 12786, Control_c, 0, 64, 127
2, 13099, Note_on_c, 0, 63, 23
2, 13107, Note_on_c, 0, 56, 23
2, 13108, Note_on_c, 0, 59, 30
2, 13148, Control_c, 0, 64, 0
2, 13160, Control_c, 0, 64, 0
2, 13172, Control_c, 0, 64, 127
2, 13184, Control_c, 0, 64, 127
2, 13195, Note_off_c, 0, 44, 64
2, 13404, Note_off_c, 0, 68, 64
2, 13492, Note_on_c, 0, 55, 28
2, 13496, Note_on_c, 0, 71, 47
2, 13501, Note_on_c, 0, 64, 46
2, 13507, Note_off_c, 0, 63, 64
2, 13576, Note_off_c, 0, 56, 64
2, 13805, Note_off_c, 0, 64, 64
2, 13864, Note_on_c, 0, 64, 49
2, 13864, Note_on_c, 0, 61, 24
2, 13868, Note_on_c, 0, 70, 60
2, 13868, Note_on_c, 0, 54, 35
2, 13884, Note_off_c, 0, 59, 64
2, 13887, Note_off_c, 0, 55, 64
2, 13934, Control_c, 0, 64, 0
2, 13938, Note_off_c, 0, 71, 64
2, 13946, Control_c, 0, 64, 0
2, 13966, Control_c, 0, 64, 127
2, 13978, Control_c, 0, 64, 127
2, 14164, Note_off_c, 0, 70, 64
2, 14164, Note_on_c, 0, 68, 49
2, 14164, Note_on_c, 0, 59, 9
2, 14172, Note_off_c, 0, 61, 64
2, 14217, Note_off_c, 0, 59, 64
2, 14217, Note_off_c, 0, 68, 64
2, 14219, Note_on_c, 0, 66, 32
2, 14220, Note_on_c, 0, 58, 16
2, 14244, Control_c, 0, 64, 0
2, 14256, Control_c, 0, 64, 127
2, 14256, Control_c, 0, 64, 0
2, 14268, Control_c, 0, 64, 127
2, 14541, Note_on_c, 0, 71, 58
2, 14547, Note_on_c, 0, 63, 38
2, 14568, Note_off_c, 0, 66, 64
2, 14583, Note_off_c, 0, 58, 64
2, 14623, Note_off_c, 0, 54, 64
2, 14650, Note_off_c, 0, 64, 64
2, 14871, Note_on_c, 0, 54, 39
2, 14872, Note_on_c, 0, 64, 53
2, 14876, Note_on_c, 0, 61, 36
2, 14877, Note_on_c, 0, 70, 60
2, 14882, Note_off_c, 0, 71, 64
2, 14888, Note_off_c, 0, 63, 64
2, 14933, Control_c, 0, 64, 0
2, 14945, Control_c, 0, 64, 0
2, 14967, Control_c, 0, 64, 127
2, 14979, Control_c, 0, 64, 127
2, 15157, Note_on_c, 0, 59, 27
2, 15162, Note_on_c, 0, 68, 49
2, 15187, Note_off_c, 0, 61, 64
2, 15188, Note_off_c, 0, 70, 64
2, 15210, Note_on_c, 0, 66, 56
2, 15212, Note_on_c, 0, 58, 23
2, 15228, Note_off_c, 0, 68, 64
2, 15240, Note_off_c, 0, 59, 64
2, 15260, Control_c, 0, 64, 0
2, 15272, Control_c, 0, 64, 0
2, 15290, Control_c, 0, 64, 127
2, 15302, Control_c, 0, 64, 127
2, 15542, Note_on_c, 0, 68, 54
2, 15545, Note_off_c, 0, 66, 64
2, 15545, Note_on_c, 0, 59, 56
2, 15547, Note_off_c, 0, 58, 64
2, 15604, Note_off_c, 0, 54, 64
2, 15653, Note_off_c, 0, 64, 64
2, 15869, Note_on_c, 0, 54, 54
2, 15870, Note_off_c, 0, 68, 64
2, 15872, Note_on_c, 0, 70, 60
2, 15873, Note_on_c, 0, 66, 60
2, 15879, Note_on_c, 0, 61, 58
2, 15882, Note_on_c, 0, 64, 53
2, 15907, Note_off_c, 0, 59, 64
2, 16116, Note_on_c, 0, 63, 31
2, 16119, Note_on_c, 0, 71, 63
2, 16140, Note_off_c, 0, 61, 64
2, 16151, Note_off_c, 0, 70, 64
2, 16152, Note_off_c, 0, 66, 64
2, 16161, Note_off_c, 0, 64, 64
2, 16184, Note_on_c, 0, 73, 67
2, 16188, Note_on_c, 0, 70, 69
2, 16188, Note_on_c, 0, 66, 61
2, 16189, Note_off_c, 0, 63, 64
2, 16195, Note_off_c, 0, 71, 64
2, 16195, Note_on_c, 0, 64, 69
2, 16530, Note_on_c, 0, 72, 69
2, 16534, Note_on_c, 0, 63, 58
2, 16535, Note_on_c, 0, 69, 69
2, 16555, Note_off_c, 0, 73, 64
2, 16559, Note_off_c, 0, 70, 64
2, 16574, Note_off_c, 0, 64, 64
2, 16656, Note_off_c, 0, 54, 64
2, 16752, Note_off_c, 0, 66, 64
2, 16860, Note_on_c, 0, 54, 47
2, 16861, Note_on_c, 0, 61, 56
2, 16865, Note_on_c, 0, 73, 72
2, 16867, Note_on_c, 0, 70, 61
2, 16873, Note_on_c, 0, 66, 51
2, 16892, Note_off_c, 0, 72, 64
2, 16896, Note_off_c, 0, 63, 64
2, 16897, Note_off_c, 0, 69, 64
2, 17124, Note_on_c, 0, 71, 58
2, 17127, Note_on_c, 0, 80, 64
2, 17127, Note_on_c, 0, 65, 44
2, 17132, Note_on_c, 0, 62, 63
2, 17135, Note_off_c, 0, 61, 64
2, 17139, Note_off_c, 0, 73, 64
2, 17141, Note_off_c, 0, 70, 64
2, 17147, Note_off_c, 0, 66, 64
2, 17194, Note_on_c, 0, 61, 67
2, 17199, Note_on_c, 0, 70, 75
2, 17201, Note_off_c, 0, 62, 64
2, 17202, Note_on_c, 0, 78, 72
2, 17211, Note_on_c, 0, 66, 74
2, 17216, Note_off_c, 0, 80, 64
2, 17216, Note_off_c, 0, 71, 64
2, 17219, Note_off_c, 0, 65, 64
2, 17472, Note_off_c, 0, 61, 64
2, 17478, Note_on_c, 0, 63, 67
2, 17498, Control_c, 0, 64, 0
2, 17510, Control_c, 0, 64, 0
2, 17531, Note_off_c, 0, 54, 64
2, 17544, Note_on_c, 0, 61, 58
2, 17563, Note_off_c, 0, 63, 64
2, 17588, Control_c, 0, 64, 127
2, 17600, Control_c, 0, 64, 127
2, 17644, Note_off_c, 0, 66, 64
2, 17895, Note_on_c, 0, 68, 57
2, 17905, Note_on_c, 0, 71, 56
2, 17918, Note_off_c, 0, 70, 64
2, 17936, Control_c, 0, 64, 0
2, 17948, Control_c, 0, 64, 0
2, 17962, Control_c, 0, 64, 127
2, 17974, Control_c, 0, 64, 127
2, 18140, Note_off_c, 0, 78, 64
2, 18165, Note_on_c, 0, 77, 60
2, 18242, Note_on_c, 0, 83, 69
2, 18242, Note_on_c, 0, 73, 61
2, 18274, Note_off_c, 0, 68, 64
2, 18581, Note_on_c, 0, 82, 64
2, 18581, Note_on_c, 0, 78, 46
2, 18583, Note_off_c, 0, 77, 64
2, 18587, Note_off_c, 0, 83, 64
2, 18597, Control_c, 0, 64, 0
2, 18600, Note_on_c, 0, 66, 30
2, 18609, Control_c, 0, 64, 0
2, 18619, Control_c, 0, 64, 127
2, 18631, Control_c, 0, 64, 127
2, 18639, Note_off_c, 0, 61, 64
2, 18647, Note_off_c, 0, 71, 64
2, 18657, Note_off_c, 0, 73, 64
2, 18760, Note_off_c, 0, 78, 64
2, 18760, Note_off_c, 0, 82, 64
2, 18779, Note_off_c, 0, 66, 64
2, 18868, Note_on_c, 0, 66, 38
2, 18901, Note_on_c, 0, 68, 50
2, 18906, Note_off_c, 0, 66, 64
2, 18945, Note_on_c, 0, 66, 46
2, 18949, Control_c, 0, 64, 0
2, 18953, Note_off_c, 0, 68, 64
2, 18961, Control_c, 0, 64, 0
2, 18986, Control_c, 0, 64, 127
2, 18998, Control_c, 0, 64, 127
2, 19195, Note_off_c, 0, 66, 64
2, 19205, Note_on_c, 0, 65, 43
2, 19283, Note_on_c, 0, 49, 32
2, 19284, Note_on_c, 0, 71, 43
2, 19292, Note_on_c, 0, 61, 20
2, 19292, Note_on_c, 0, 56, 21
2, 19323, Control_c, 0, 64, 0
2, 19335, Control_c, 0, 64, 0
2, 19356, Control_c, 0, 64, 127
2, 19368, Control_c, 0, 64, 127
2, 19606, Note_on_c, 0, 70, 41
2, 19611, Note_on_c, 0, 66, 38
2, 19618, Note_off_c, 0, 56, 64
2, 19620, Note_off_c, 0, 49, 64
2, 19623, Note_off_c, 0, 65, 64
2, 19627, Note_on_c, 0, 54, 26
2, 19635, Note_off_c, 0, 71, 64
2, 19637, Control_c, 0, 64, 0
2, 19649, Control_c, 0, 64, 0
2, 19691, Control_c, 0, 64, 127
2, 19703, Control_c, 0, 64, 127
2, 19715, Note_off_c, 0, 66, 64
2, 19731, Note_off_c, 0, 70, 64
2, 19951, Note_off_c, 0, 54, 64
2, 19959, Note_on_c, 0, 78, 69
2, 19983, Note_off_c, 0, 61, 64
2, 20202, Note_on_c, 0, 77, 61
2, 20215, Note_off_c, 0, 78, 64
2, 20264, Note_on_c, 0, 83, 64
2, 20269, Note_on_c, 0, 73, 47
2, 20269, Note_on_c, 0, 61, 57
2, 20284, Note_on_c, 0, 68, 31
2, 20291, Control_c, 0, 64, 0
2, 20303, Control_c, 0, 64, 0
2, 20324, Control_c, 0, 64, 127
2, 20336, Control_c, 0, 64, 127
2, 20594, Note_on_c, 0, 82, 58
2, 20596, Note_on_c, 0, 78, 57
2, 20611, Note_off_c, 0, 83, 64
2, 20612, Control_c, 0, 64, 0
2, 20617, Note_on_c, 0, 66, 24
2, 20624, Note_off_c, 0, 68, 64
2, 20624, Control_c, 0, 64, 0
2, 20631, Note_off_c, 0, 77, 64
2, 20637, Control_c, 0, 64, 127
2, 20649, Control_c, 0, 64, 127
2, 20651, Note_off_c, 0, 61, 64
2, 20662, Note_off_c, 0, 82, 64
2, 20668, Note_off_c, 0, 78, 64
2, 20696, Note_off_c, 0, 73, 64
2, 20730, Note_off_c, 0, 66, 64
2, 20850, Note_on_c, 0, 66, 46
2, 20877, Note_on_c, 0, 68, 52
2, 20883, Note_off_c, 0, 66, 64
2, 20920, Note_on_c, 0, 66, 58
2, 20924, Control_c, 0, 64, 0
2, 20933, Note_off_c, 0, 68, 64
2, 20936, Control_c, 0, 64, 0
2, 20937, Control_c, 0, 64, 127
2, 20949, Control_c, 0, 64, 127
2, 21203, Note_on_c, 0, 65, 31
2, 21210, Note_off_c, 0, 66, 64
2, 21276, Note_on_c, 0, 49, 26
2, 21292, Note_on_c, 0, 71, 49
2, 21292, Note_on_c, 0, 61, 23
2, 21292, Note_on_c, 0, 56, 31
2, 21329, Control_c, 0, 64, 0
2, 21341, Control_c, 0, 64, 0
2, 21359, Control_c, 0, 64, 127
2, 21371, Control_c, 0, 64, 127
2, 21645, Note_off_c, 0, 61, 64
2, 21692, Note_off_c, 0, 49, 64
2, 21693, Note_on_c, 0, 70, 36
2, 21694, Note_on_c, 0, 66, 41
2, 21701, Note_on_c, 0, 54, 28
2, 21706, Note_off_c, 0, 56, 64
2, 21706, Note_on_c, 0, 61, 20
2, 21708, Note_off_c, 0, 65, 64
2, 21715, Note_off_c, 0, 71, 64
2, 21742, Control_c, 0, 64, 0
2, 21754, Control_c, 0, 64, 0
2, 21775, Control_c, 0, 64, 127
2, 21787, Control_c, 0, 64, 127
2, 21849, Note_off_c, 0, 54, 64
2, 21881, Note_off_c, 0, 61, 64
2, 21920, Note_off_c, 0, 66, 64
2, 22075, Note_on_c, 0, 52, 52
2, 22123, Note_on_c, 0, 68, 68
2, 22143, Note_off_c, 0, 70, 64
2, 22178, Control_c, 0, 64, 0
2, 22190, Control_c, 0, 64, 0
2, 22220, Control_c, 0, 64, 127
2, 22232, Control_c, 0, 64, 127
2, 22470, Note_on_c, 0, 56, 36
2, 22483, Note_on_c, 0, 61, 27
2, 22487, Note_on_c, 0, 64, 28
2, 22591, Note_off_c, 0, 61, 64
2, 22601, Note_off_c, 0, 64, 64
2, 22602, Note_off_c, 0, 56, 64
2, 22606, Note_on_c, 0, 70, 41
2, 22613, Note_off_c, 0, 68, 64
2, 22673, Note_off_c, 0, 70, 64
2, 22707, Note_on_c, 0, 68, 50
2, 22733, Note_on_c, 0, 70, 57
2, 22742, Note_off_c, 0, 68, 64
2, 22764, Note_on_c, 0, 61, 38
2, 22769, Note_on_c, 0, 64, 31
2, 22773, Note_on_c, 0, 56, 32
2, 22775, Note_on_c, 0, 68, 61
2, 22790, Note_off_c, 0, 70, 64
2, 22790, Control_c, 0, 64, 0
2, 22802, Control_c, 0, 64, 0
2, 22812, Control_c, 0, 64, 127
2, 22824, Control_c, 0, 64, 127
2, 22915, Note_on_c, 0, 67, 63
2, 22923, Note_off_c, 0, 68, 64
2, 22964, Note_off_c, 0, 61, 64
2, 22974, Note_off_c, 0, 64, 64
2, 22975, Note_off_c, 0, 56, 64
2, 23059, Note_on_c, 0, 68, 61
2, 23064, Note_on_c, 0, 64, 46
2, 23069, Note_on_c, 0, 61, 49
2, 23069, Note_on_c, 0, 56, 46
2, 23076, Note_off_c, 0, 67, 64
2, 23094, Control_c, 0, 64, 0
2, 23106, Control_c, 0, 64, 0
2, 23107, Control_c, 0, 64, 127
2, 23119, Control_c, 0, 64, 127
2, 23188, Note_on_c, 0, 73, 56
2, 23221, Note_off_c, 0, 68, 64
2, 23316, Note_off_c, 0, 61, 64
2, 23321, Note_off_c, 0, 73, 64
2, 23322, Note_off_c, 0, 56, 64
2, 23325, Note_on_c, 0, 75, 54
2, 23331, Note_off_c, 0, 64, 64
2, 23351, Control_c, 0, 64, 0
2, 23363, Control_c, 0, 64, 0
2, 23364, Control_c, 0, 64, 127
2, 23376, Control_c, 0, 64, 127
2, 23423, Note_off_c, 0, 52, 64
2, 23584, Note_off_c, 0, 75, 64
2, 23671, Note_on_c, 0, 76, 71
2, 23962, Note_off_c, 0, 76, 64
2, 23966, Note_on_c, 0, 64, 52
2, 23975, Note_on_c, 0, 42, 57
2, 24003, Control_c, 0, 64, 0
2, 24015, Control_c, 0, 64, 0
2, 24017, Control_c, 0, 64, 127
2, 24029, Control_c, 0, 64, 127
2, 24239, Note_off_c, 0, 42, 64
2, 24244, Note_on_c, 0, 66, 58
2, 24252, Note_on_c, 0, 49, 42
2, 24257, Note_on_c, 0, 58, 38
2, 24263, Note_on_c, 0, 54, 24
2, 24264, Note_off_c, 0, 64, 64
2, 24300, Note_off_c, 0, 49, 64
2, 24305, Note_off_c, 0, 58, 64
2, 24311, Note_off_c, 0, 54, 64
2, 24522, Note_on_c, 0, 58, 31
2, 24528, Note_on_c, 0, 49, 30
2, 24533, Note_on_c, 0, 54, 30
2, 24570, Note_off_c, 0, 58, 64
2, 24576, Note_off_c, 0, 49, 64
2, 24581, Note_off_c, 0, 54, 64
2, 24617, Note_off_c, 0, 66, 64
2, 24620, Note_on_c, 0, 61, 53
2, 24734, Note_on_c, 0, 47, 50
2, 24746, Note_on_c, 0, 63, 63
2, 24757, Control_c, 0, 64, 0
2, 24761, Note_off_c, 0, 61, 64
2, 24769, Control_c, 0, 64, 0
2, 24780, Control_c, 0, 64, 127
2, 24792, Control_c, 0, 64, 127
2, 24847, Note_on_c, 0, 66, 64
2, 24862, Note_off_c, 0, 63, 64
2, 24941, Note_off_c, 0, 66, 64
2, 24944, Note_on_c, 0, 68, 60
2, 24952, Note_on_c, 0, 54, 24
2, 24957, Note_on_c, 0, 59, 24
2, 24964, Note_on_c, 0, 51, 20
2, 24998, Note_off_c, 0, 47, 64
2, 25000, Note_off_c, 0, 54, 64
2, 25005, Note_off_c, 0, 59, 64
2, 25012, Note_off_c, 0, 51, 64
2, 25194, Note_on_c, 0, 63, 61
2, 25200, Note_on_c, 0, 54, 17
2, 25203, Note_on_c, 0, 59, 38
2, 25209, Note_on_c, 0, 51, 41
2, 25217, Note_off_c, 0, 68, 64
2, 25248, Note_off_c, 0, 54, 64
2, 25251, Note_off_c, 0, 59, 64
2, 25257, Note_off_c, 0, 51, 64
2, 25442, Note_off_c, 0, 63, 64
2, 25442, Note_on_c, 0, 76, 56
2, 25445, Note_on_c, 0, 42, 49
2, 25449, Note_on_c, 0, 64, 39
2, 25681, Note_on_c, 0, 58, 20
2, 25684, Note_off_c, 0, 64, 64
2, 25684, Note_on_c, 0, 66, 54
2, 25684, Note_on_c, 0, 49, 30
2, 25685, Note_on_c, 0, 78, 64
2, 25701, Note_off_c, 0, 76, 64
2, 25701, Note_on_c, 0, 54, 19
2, 25704, Control_c, 0, 64, 0
2, 25709, Note_off_c, 0, 42, 64
2, 25716, Control_c, 0, 64, 0
2, 25729, Note_off_c, 0, 58, 64
2, 25732, Note_off_c, 0, 49, 64
2, 25749, Note_off_c, 0, 54, 64
2, 25750, Control_c, 0, 64, 127
2, 25762, Control_c, 0, 64, 127
2, 25919, Note_on_c, 0, 49, 36
2, 25923, Note_on_c, 0, 58, 21
2, 25936, Note_on_c, 0, 54, 20
2, 25967, Note_off_c, 0, 49, 64
2, 25971, Note_off_c, 0, 58, 64
2, 25984, Note_off_c, 0, 54, 64
2, 26008, Note_on_c, 0, 61, 50
2, 26015, Note_on_c, 0, 73, 53
2, 26024, Note_off_c, 0, 78, 64
2, 26058, Note_off_c, 0, 66, 64
2, 26136, Note_off_c, 0, 61, 64
2, 26136, Note_on_c, 0, 63, 57
2, 26139, Note_on_c, 0, 75, 61
2, 26146, Note_on_c, 0, 47, 43
2, 26148, Note_off_c, 0, 73, 64
2, 26233, Note_on_c, 0, 66, 61
2, 26239, Note_on_c, 0, 78, 64
2, 26261, Note_off_c, 0, 63, 64
2, 26264, Note_off_c, 0, 75, 64
2, 26328, Note_on_c, 0, 80, 64
2, 26331, Note_on_c, 0, 68, 57
2, 26335, Note_on_c, 0, 51, 36
2, 26342, Note_off_c, 0, 66, 64
2, 26347, Control_c, 0, 64, 0
2, 26348, Note_off_c, 0, 78, 64
2, 26348, Note_on_c, 0, 59, 30
2, 26349, Note_on_c, 0, 54, 23
2, 26355, Note_off_c, 0, 47, 64
2, 26359, Control_c, 0, 64, 0
2, 26374, Control_c, 0, 64, 127
2, 26383, Note_off_c, 0, 51, 64
2, 26386, Control_c, 0, 64, 127
2, 26396, Note_off_c, 0, 59, 64
2, 26397, Note_off_c, 0, 54, 64
2, 26612, Note_off_c, 0, 80, 64
2, 26620, Note_on_c, 0, 75, 53
2, 26620, Note_on_c, 0, 63, 45
2, 26626, Note_off_c, 0, 68, 64
2, 26630, Note_on_c, 0, 51, 34
2, 26636, Note_on_c, 0, 59, 23
2, 26637, Note_on_c, 0, 54, 20
2, 26678, Note_off_c, 0, 51, 64
2, 26684, Note_off_c, 0, 59, 64
2, 26685, Note_off_c, 0, 54, 64
2, 26900, Note_off_c, 0, 75, 64
2, 26902, Note_on_c, 0, 64, 47
2, 26907, Note_on_c, 0, 76, 53
2, 26914, Note_off_c, 0, 63, 64
2, 26914, Note_on_c, 0, 42, 36
2, 27178, Note_off_c, 0, 42, 64
2, 27202, Note_on_c, 0, 66, 41
2, 27204, Note_on_c, 0, 78, 46
2, 27204, Note_on_c, 0, 49, 20
2, 27213, Note_on_c, 0, 58, 20
2, 27219, Note_on_c, 0, 54, 16
2, 27243, Control_c, 0, 64, 0
2, 27245, Note_off_c, 0, 76, 64
2, 27252, Note_off_c, 0, 49, 64
2, 27255, Control_c, 0, 64, 0
2, 27258, Note_off_c, 0, 64, 64
2, 27261, Note_off_c, 0, 58, 64
2, 27266, Control_c, 0, 64, 127
2, 27267, Note_off_c, 0, 54, 64
2, 27278, Control_c, 0, 64, 127
2, 27533, Note_on_c, 0, 58, 15
2, 27536, Note_on_c, 0, 49, 24
2, 27542, Note_on_c, 0, 54, 23
2, 27581, Note_off_c, 0, 58, 64
2, 27584, Note_off_c, 0, 49, 64
2, 27590, Note_off_c, 0, 54, 64
2, 27650, Note_on_c, 0, 73, 43
2, 27651, Note_on_c, 0, 61, 46
2, 27673, Note_off_c, 0, 78, 64
2, 27724, Note_off_c, 0, 66, 64
2, 27772, Note_on_c, 0, 63, 23
2, 27787, Note_on_c, 0, 75, 43
2, 27802, Note_off_c, 0, 73, 64
2, 27802, Note_on_c, 0, 47, 27
2, 27803, Note_off_c, 0, 61, 64
2, 27850, Control_c, 0, 64, 0
2, 27862, Control_c, 0, 64, 0
2, 27894, Control_c, 0, 64, 127
2, 27906, Control_c, 0, 64, 127
2, 28161, Note_on_c, 0, 54, 23
2, 28170, Note_on_c, 0, 59, 17
2, 28182, Control_c, 0, 64, 0
2, 28194, Control_c, 0, 64, 0
2, 28198, Control_c, 0, 64, 127
2, 28210, Control_c, 0, 64, 127
2, 28299, Note_off_c, 0, 63, 64
2, 28314, Note_off_c, 0, 75, 64
2, 28449, Note_on_c, 0, 66, 63
2, 28473, Note_off_c, 0, 47, 64
2, 28485, Note_off_c, 0, 54, 64
2, 28502, Note_off_c, 0, 59, 64
2, 28731, Note_on_c, 0, 52, 50
2, 28745, Note_on_c, 0, 68, 60
2, 28756, Note_off_c, 0, 66, 64
2, 28785, Control_c, 0, 64, 0
2, 28797, Control_c, 0, 64, 0
2, 28812, Control_c, 0, 64, 127
2, 28824, Control_c, 0, 64, 127
2, 29032, Note_on_c, 0, 56, 38
2, 29035, Note_on_c, 0, 61, 28
2, 29046, Note_on_c, 0, 64, 28
2, 29131, Note_off_c, 0, 64, 64
2, 29137, Note_off_c, 0, 61, 64
2, 29148, Note_off_c, 0, 56, 64
2, 29151, Note_on_c, 0, 70, 54
2, 29153, Note_off_c, 0, 68, 64
2, 29184, Note_off_c, 0, 70, 64
2, 29258, Note_on_c, 0, 68, 58
2, 29290, Note_on_c, 0, 70, 61
2, 29297, Note_off_c, 0, 68, 64
2, 29299, Note_on_c, 0, 61, 38
2, 29311, Note_on_c, 0, 64, 36
2, 29313, Note_on_c, 0, 56, 31
2, 29328, Note_on_c, 0, 68, 60
2, 29343, Note_off_c, 0, 70, 64
2, 29385, Note_off_c, 0, 61, 64
2, 29389, Note_off_c, 0, 56, 64
2, 29396, Note_off_c, 0, 64, 64
2, 29421, Note_on_c, 0, 67, 61
2, 29428, Note_off_c, 0, 68, 64
2, 29532, Note_on_c, 0, 68, 64
2, 29532, Note_on_c, 0, 61, 31
2, 29540, Note_on_c, 0, 64, 30
2, 29543, Note_on_c, 0, 56, 31
2, 29548, Note_off_c, 0, 67, 64
2, 29639, Note_on_c, 0, 73, 61
2, 29660, Note_off_c, 0, 68, 64
2, 29683, Note_off_c, 0, 61, 64
2, 29690, Note_off_c, 0, 56, 64
2, 29706, Note_off_c, 0, 64, 64
2, 29752, Note_on_c, 0, 75, 53
2, 29770, Note_off_c, 0, 73, 64
2, 29781, Note_off_c, 0, 52, 64
2, 29864, Note_off_c, 0, 75, 64
2, 30002, Note_on_c, 0, 76, 65
2, 30297, Note_on_c, 0, 64, 47
2, 30303, Note_on_c, 0, 42, 54
2, 30312, Note_off_c, 0, 76, 64
2, 30567, Note_off_c, 0, 42, 64
2, 30569, Note_on_c, 0, 66, 60
2, 30571, Note_on_c, 0, 49, 36
2, 30577, Note_on_c, 0, 54, 38
2, 30582, Note_on_c, 0, 58, 38
2, 30585, Control_c, 0, 64, 0
2, 30597, Control_c, 0, 64, 0
2, 30602, Note_off_c, 0, 64, 64
2, 30614, Control_c, 0, 64, 127
2, 30619, Note_off_c, 0, 49, 64
2, 30625, Note_off_c, 0, 54, 64
2, 30626, Control_c, 0, 64, 127
2, 30630, Note_off_c, 0, 58, 64
2, 30828, Note_on_c, 0, 58, 45
2, 30833, Note_on_c, 0, 49, 34
2, 30842, Note_on_c, 0, 54, 35
2, 30876, Note_off_c, 0, 58, 64
2, 30881, Note_off_c, 0, 49, 64
2, 30890, Note_off_c, 0, 54, 64
2, 30923, Note_on_c, 0, 61, 58
2, 30930, Note_off_c, 0, 66, 64
2, 31033, Control_c, 0, 64, 0
2, 31035, Note_on_c, 0, 47, 56
2, 31039, Note_on_c, 0, 63, 64
2, 31045, Control_c, 0, 64, 0
2, 31054, Note_off_c, 0, 61, 64
2, 31057, Control_c, 0, 64, 127
2, 31069, Control_c, 0, 64, 127
2, 31126, Note_on_c, 0, 66, 58
2, 31149, Note_off_c, 0, 63, 64
2, 31216, Note_on_c, 0, 68, 61
2, 31220, Note_on_c, 0, 51, 38
2, 31225, Note_on_c, 0, 59, 42
2, 31227, Control_c, 0, 64, 0
2, 31229, Note_off_c, 0, 66, 64
2, 31229, Note_on_c, 0, 54, 26
2, 31239, Control_c, 0, 64, 0
2, 31256, Control_c, 0, 64, 127
2, 31268, Note_off_c, 0, 51, 64
2, 31268, Control_c, 0, 64, 127
2, 31273, Note_off_c, 0, 59, 64
2, 31277, Note_off_c, 0, 54, 64
2, 31299, Note_off_c, 0, 47, 64
2, 31464, Note_on_c, 0, 63, 61
2, 31474, Note_on_c, 0, 59, 41
2, 31477, Note_on_c, 0, 51, 43
2, 31486, Note_on_c, 0, 54, 24
2, 31490, Note_off_c, 0, 68, 64
2, 31522, Note_off_c, 0, 59, 64
2, 31525, Note_off_c, 0, 51, 64
2, 31534, Note_off_c, 0, 54, 64
2, 31687, Note_off_c, 0, 63, 64
2, 31687, Note_on_c, 0, 76, 56
2, 31690, Note_on_c, 0, 64, 49
2, 31696, Note_on_c, 0, 42, 46
2, 31905, Note_on_c, 0, 58, 34
2, 31906, Note_on_c, 0, 78, 68
2, 31906, Note_on_c, 0, 49, 34
2, 31910, Note_off_c, 0, 64, 64
2, 31913, Note_on_c, 0, 54, 36
2, 31916, Note_on_c, 0, 66, 53
2, 31921, Note_off_c, 0, 76, 64
2, 31930, Control_c, 0, 64, 0
2, 31942, Control_c, 0, 64, 0
2, 31947, Control_c, 0, 64, 127
2, 31953, Note_off_c, 0, 58, 64
2, 31954, Note_off_c, 0, 49, 64
2, 31959, Control_c, 0, 64, 127
2, 31960, Note_off_c, 0, 42, 64
2, 31961, Note_off_c, 0, 54, 64
2, 32138, Note_on_c, 0, 58, 50
2, 32148, Note_on_c, 0, 49, 35
2, 32170, Note_on_c, 0, 54, 19
2, 32186, Note_off_c, 0, 58, 64
2, 32196, Note_off_c, 0, 49, 64
2, 32218, Note_off_c, 0, 54, 64
2, 32239, Note_on_c, 0, 73, 58
2, 32242, Note_on_c, 0, 61, 64
2, 32254, Note_off_c, 0, 78, 64
2, 32278, Note_off_c, 0, 66, 64
2, 32340, Note_on_c, 0, 63, 60
2, 32348, Note_on_c, 0, 75, 60
2, 32358, Note_on_c, 0, 47, 50
2, 32366, Note_off_c, 0, 73, 64
2, 32369, Note_off_c, 0, 61, 64
2, 32442, Note_on_c, 0, 66, 64
2, 32444, Note_on_c, 0, 78, 63
2, 32473, Note_off_c, 0, 63, 64
2, 32481, Note_off_c, 0, 75, 64
2, 32528, Note_on_c, 0, 68, 58
2, 32530, Note_on_c, 0, 80, 71
2, 32537, Note_off_c, 0, 66, 64
2, 32539, Note_off_c, 0, 78, 64
2, 32539, Note_on_c, 0, 51, 38
2, 32541, Control_c, 0, 64, 0
2, 32542, Note_on_c, 0, 59, 38
2, 32542, Note_on_c, 0, 54, 30
2, 32553, Control_c, 0, 64, 0
2, 32576, Control_c, 0, 64, 127
2, 32587, Note_off_c, 0, 51, 64
2, 32588, Control_c, 0, 64, 127
2, 32590, Note_off_c, 0, 54, 64
2, 32590, Note_off_c, 0, 59, 64
2, 32622, Note_off_c, 0, 47, 64
2, 32818, Note_on_c, 0, 75, 53
2, 32818, Note_on_c, 0, 63, 60
2, 32825, Note_on_c, 0, 59, 21
2, 32835, Note_on_c, 0, 54, 19
2, 32838, Note_on_c, 0, 51, 20
2, 32850, Note_off_c, 0, 80, 64
2, 32869, Note_off_c, 0, 68, 64
2, 32873, Note_off_c, 0, 59, 64
2, 32883, Note_off_c, 0, 54, 64
2, 32886, Note_off_c, 0, 51, 64
2, 33058, Note_on_c, 0, 64, 41
2, 33064, Note_on_c, 0, 76, 43
2, 33071, Note_on_c, 0, 42, 42
2, 33085, Note_off_c, 0, 75, 64
2, 33087, Note_off_c, 0, 63, 64
2, 33335, Note_off_c, 0, 42, 64
2, 33350, Note_on_c, 0, 78, 53
2, 33353, Note_on_c, 0, 66, 49
2, 33356, Note_on_c, 0, 49, 20
2, 33360, Note_on_c, 0, 58, 20
2, 33370, Note_on_c, 0, 54, 20
2, 33371, Note_off_c, 0, 64, 64
2, 33373, Note_off_c, 0, 76, 64
2, 33377, Control_c, 0, 64, 0
2, 33389, Control_c, 0, 64, 0
2, 33402, Control_c, 0, 64, 127
2, 33404, Note_off_c, 0, 49, 64
2, 33408, Note_off_c, 0, 58, 64
2, 33414, Control_c, 0, 64, 127
2, 33418, Note_off_c, 0, 54, 64
2, 33720, Note_on_c, 0, 58, 17
2, 33721, Note_on_c, 0, 54, 26
2, 33725, Note_on_c, 0, 49, 20
2, 33864, Note_off_c, 0, 78, 64
2, 33873, Note_on_c, 0, 73, 47
2, 33879, Note_on_c, 0, 61, 41
2, 33926, Note_off_c, 0, 66, 64
2, 34096, Note_off_c, 0, 49, 64
2, 34131, Note_on_c, 0, 47, 30
2, 34140, Note_on_c, 0, 75, 49
2, 34144, Note_on_c, 0, 63, 42
2, 34158, Note_off_c, 0, 58, 64
2, 34160, Note_off_c, 0, 54, 64
2, 34170, Note_off_c, 0, 73, 64
2, 34176, Note_off_c, 0, 61, 64
2, 34199, Control_c, 0, 64, 0
2, 34211, Control_c, 0, 64, 0
2, 34231, Control_c, 0, 64, 127
2, 34243, Control_c, 0, 64, 127
2, 34734, Note_on_c, 0, 54, 21
2, 34751, Note_on_c, 0, 59, 21
2, 34910, Note_off_c, 0, 75, 64
2, 34997, Note_off_c, 0, 63, 64
2, 35167, Note_on_c, 0, 63, 52
2, 35192, Control_c, 0, 64, 0
2, 35198, Note_off_c, 0, 59, 64
2, 35203, Note_off_c, 0, 54, 64
2, 35204, Control_c, 0, 64, 0
2, 35213, Note_off_c, 0, 47, 64
2, 35229, Control_c, 0, 64, 127
2, 35241, Control_c, 0, 64, 127
2, 35482, Note_on_c, 0, 64, 47
2, 35498, Note_off_c, 0, 63, 64
2, 35504, Control_c, 0, 64, 0
2, 35516, Control_c, 0, 64, 0
2, 35527, Control_c, 0, 64, 127
2, 35539, Control_c, 0, 64, 127
2, 35762, Note_on_c, 0, 63, 49
2, 35784, Note_off_c, 0, 64, 64
2, 35826, Note_on_c, 0, 62, 56
2, 35832, Note_on_c, 0, 68, 52
2, 35837, Note_on_c, 0, 71, 54
2, 35866, Control_c, 0, 64, 0
2, 35878, Control_c, 0, 64, 0
2, 35894, Note_off_c, 0, 63, 64
2, 35896, Control_c, 0, 64, 127
2, 35908, Control_c, 0, 64, 127
2, 36264, Note_on_c, 0, 61, 54
2, 36265, Note_on_c, 0, 70, 61
2, 36271, Note_on_c, 0, 67, 56
2, 36278, Note_on_c, 0, 39, 53
2, 36309, Note_off_c, 0, 62, 64
2, 36315, Note_off_c, 0, 68, 64
2, 36320, Note_off_c, 0, 71, 64
2, 36325, Control_c, 0, 64, 0
2, 36337, Control_c, 0, 64, 0
2, 36351, Control_c, 0, 64, 127
2, 36363, Control_c, 0, 64, 127
2, 36668, Note_on_c, 0, 68, 60
2, 36672, Note_on_c, 0, 44, 56
2, 36691, Note_off_c, 0, 61, 64
2, 36692, Note_off_c, 0, 70, 64
2, 36698, Note_off_c, 0, 67, 64
2, 36701, Note_off_c, 0, 39, 64
2, 36714, Control_c, 0, 64, 0
2, 36726, Control_c, 0, 64, 0
2, 36758, Control_c, 0, 64, 127
2, 36770, Control_c, 0, 64, 127
2, 37272, Note_on_c, 0, 56, 26
2, 37272, Note_on_c, 0, 51, 31
2, 37279, Note_on_c, 0, 63, 45
2, 37279, Note_on_c, 0, 59, 38
2, 37355, Control_c, 0, 64, 0
2, 37367, Control_c, 0, 64, 0
2, 37391, Control_c, 0, 64, 127
2, 37403, Control_c, 0, 64, 127
2, 37720, Note_off_c, 0, 51, 64
2, 37720, Note_off_c, 0, 56, 64
2, 37727, Note_off_c, 0, 59, 64
2, 37727, Note_off_c, 0, 63, 64
2, 37826, Note_on_c, 0, 70, 60
2, 37847, Note_off_c, 0, 68, 64
2, 37944, Note_off_c, 0, 44, 64
2, 37981, Note_on_c, 0, 71, 61
2, 37986, Note_off_c, 0, 70, 64
2, 38006, Control_c, 0, 64, 0
2, 38018, Control_c, 0, 64, 0
2, 38111, Control_c, 0, 64, 127
2, 38120, Note_on_c, 0, 73, 67
2, 38123, Control_c, 0, 64, 127
2, 38135, Note_off_c, 0, 71, 64
2, 38249, Control_c, 0, 64, 0
2, 38256, Note_on_c, 0, 75, 65
2, 38261, Control_c, 0, 64, 0
2, 38272, Note_off_c, 0, 73, 64
2, 38278, Control_c, 0, 64, 127
2, 38290, Control_c, 0, 64, 127
2, 38493, Note_on_c, 0, 78, 54
2, 38510, Note_off_c, 0, 75, 64
2, 38532, Note_on_c, 0, 76, 54
2, 38568, Note_off_c, 0, 78, 64
2, 38801, Note_on_c, 0, 75, 63
2, 38818, Note_off_c, 0, 76, 64
2, 38925, Note_on_c, 0, 80, 45
2, 38931, Note_off_c, 0, 75, 64
2, 38969, Note_off_c, 0, 80, 64
2, 39041, Control_c, 0, 64, 0
2, 39053, Control_c, 0, 64, 0
2, 39091, Note_on_c, 0, 75, 61
2, 39125, Control_c, 0, 64, 127
2, 39137, Control_c, 0, 64, 127
2, 39469, Note_on_c, 0, 68, 36
2, 39478, Note_on_c, 0, 71, 34
2, 39478, Note_on_c, 0, 63, 27
2, 39483, Note_on_c, 0, 56, 24
2, 39512, Control_c, 0, 64, 0
2, 39524, Control_c, 0, 64, 0
2, 39534, Control_c, 0, 64, 127
2, 39546, Control_c, 0, 64, 127
2, 39740, Note_off_c, 0, 75, 64
2, 39827, Note_on_c, 0, 75, 61
2, 40057, Note_on_c, 0, 73, 60
2, 40064, Note_off_c, 0, 68, 64
2, 40073, Note_off_c, 0, 63, 64
2, 40073, Note_off_c, 0, 71, 64
2, 40078, Note_off_c, 0, 56, 64
2, 40088, Note_off_c, 0, 75, 64
2, 40118, Note_on_c, 0, 70, 47
2, 40121, Note_off_c, 0, 73, 64
2, 40125, Note_on_c, 0, 76, 60
2, 40129, Note_on_c, 0, 68, 53
2, 40136, Note_on_c, 0, 61, 50
2, 40136, Note_on_c, 0, 49, 54
2, 40153, Control_c, 0, 64, 0
2, 40165, Control_c, 0, 64, 127
2, 40165, Control_c, 0, 64, 0
2, 40177, Control_c, 0, 64, 127
2, 40422, Note_off_c, 0, 70, 64
2, 40429, Note_off_c, 0, 76, 64
2, 40433, Note_off_c, 0, 68, 64
2, 40435, Note_on_c, 0, 75, 61
2, 40435, Note_on_c, 0, 71, 60
2, 40440, Note_on_c, 0, 68, 54
2, 40441, Note_on_c, 0, 44, 56
2, 40445, Note_on_c, 0, 56, 49
2, 40456, Control_c, 0, 64, 0
2, 40464, Note_off_c, 0, 49, 64
2, 40464, Note_off_c, 0, 61, 64
2, 40468, Control_c, 0, 64, 0
2, 40483, Control_c, 0, 64, 127
2, 40495, Control_c, 0, 64, 127
2, 40693, Note_on_c, 0, 73, 58
2, 40699, Note_off_c, 0, 71, 64
2, 40725, Note_off_c, 0, 75, 64
2, 40738, Note_on_c, 0, 71, 64
2, 40745, Note_off_c, 0, 68, 64
2, 40752, Note_off_c, 0, 73, 64
2, 40776, Note_off_c, 0, 44, 64
2, 40794, Note_off_c, 0, 56, 64
2, 40987, Note_on_c, 0, 70, 63
2, 41007, Note_off_c, 0, 71, 64
2, 41049, Note_on_c, 0, 73, 68
2, 41053, Note_on_c, 0, 64, 58
2, 41053, Note_on_c, 0, 37, 52
2, 41060, Note_on_c, 0, 68, 61
2, 41060, Note_on_c, 0, 49, 42
2, 41066, Note_off_c, 0, 70, 64
2, 41408, Note_off_c, 0, 68, 64
2, 41471, Note_on_c, 0, 63, 53
2, 41472, Note_on_c, 0, 68, 54
2, 41478, Note_on_c, 0, 71, 58
2, 41482, Note_on_c, 0, 32, 50
2, 41483, Note_off_c, 0, 37, 64
2, 41484, Note_off_c, 0, 73, 64
2, 41489, Note_on_c, 0, 44, 31
2, 41490, Note_off_c, 0, 49, 64
2, 41527, Note_off_c, 0, 64, 64
2, 41535, Control_c, 0, 64, 0
2, 41547, Control_c, 0, 64, 0
2, 41566, Control_c, 0, 64, 127
2, 41578, Control_c, 0, 64, 127
2, 41825, Note_off_c, 0, 63, 64
2, 41829, Note_on_c, 0, 64, 49
2, 41853, Control_c, 0, 64, 0
2, 41855, Note_off_c, 0, 68, 64
2, 41858, Note_off_c, 0, 44, 64
2, 41859, Note_off_c, 0, 32, 64
2, 41865, Note_off_c, 0, 71, 64
2, 41865, Control_c, 0, 64, 0
2, 41868, Control_c, 0, 64, 127
2, 41880, Control_c, 0, 64, 127
2, 42097, Note_on_c, 0, 63, 50
2, 42135, Note_off_c, 0, 64, 64
2, 42163, Note_on_c, 0, 62, 61
2, 42168, Note_on_c, 0, 71, 56
2, 42170, Note_on_c, 0, 68, 50
2, 42180, Control_c, 0, 64, 0
2, 42186, Note_off_c, 0, 63, 64
2, 42192, Control_c, 0, 64, 0
2, 42202, Control_c, 0, 64, 127
2, 42214, Control_c, 0, 64, 127
2, 42560, Note_on_c, 0, 61, 56
2, 42566, Note_on_c, 0, 70, 67
2, 42576, Note_on_c, 0, 67, 46
2, 42579, Note_on_c, 0, 39, 39
2, 42587, Note_off_c, 0, 71, 64
2, 42588, Note_off_c, 0, 62, 64
2, 42589, Note_off_c, 0, 68, 64
2, 42619, Control_c, 0, 64, 0
2, 42631, Control_c, 0, 64, 0
2, 42648, Control_c, 0, 64, 127
2, 42660, Control_c, 0, 64, 127
2, 42964, Note_on_c, 0, 44, 38
2, 42981, Note_on_c, 0, 68, 58
2, 42995, Note_off_c, 0, 67, 64
2, 43004, Note_off_c, 0, 39, 64
2, 43019, Note_off_c, 0, 70, 64
2, 43020, Note_off_c, 0, 61, 64
2, 43030, Control_c, 0, 64, 0
2, 43042, Control_c, 0, 64, 0
2, 43056, Control_c, 0, 64, 127
2, 43068, Control_c, 0, 64, 127
2, 43392, Note_on_c, 0, 63, 26
2, 43394, Note_on_c, 0, 59, 43
2, 43410, Note_on_c, 0, 56, 21
2, 43415, Note_on_c, 0, 51, 21
2, 43665, Note_off_c, 0, 63, 64
2, 43667, Note_off_c, 0, 59, 64
2, 43683, Note_off_c, 0, 56, 64
2, 43688, Note_off_c, 0, 51, 64
2, 43727, Note_off_c, 0, 68, 64
2, 43743, Note_on_c, 0, 63, 26
2, 43747, Note_on_c, 0, 71, 49
2, 43754, Note_on_c, 0, 59, 23
2, 43759, Note_on_c, 0, 56, 15
2, 43770, Note_on_c, 0, 51, 17
2, 43790, Control_c, 0, 64, 0
2, 43802, Control_c, 0, 64, 0
2, 43805, Control_c, 0, 64, 127
2, 43817, Control_c, 0, 64, 127
2, 44090, Note_on_c, 0, 75, 49
2, 44126, Note_off_c, 0, 71, 64
2, 44134, Note_off_c, 0, 63, 64
2, 44145, Note_off_c, 0, 59, 64
2, 44150, Note_off_c, 0, 56, 64
2, 44151, Note_off_c, 0, 44, 64
2, 44161, Note_off_c, 0, 51, 64
2, 44330, Note_off_c, 0, 75, 64
2, 44330, Note_on_c, 0, 73, 38
2, 44391, Note_on_c, 0, 76, 52
2, 44394, Note_off_c, 0, 73, 64
2, 44394, Note_on_c, 0, 70, 39
2, 44400, Note_on_c, 0, 68, 47
2, 44400, Note_on_c, 0, 49, 38
2, 44408, Note_on_c, 0, 61, 27
2, 44436, Control_c, 0, 64, 0
2, 44448, Control_c, 0, 64, 127
2, 44448, Control_c, 0, 64, 0
2, 44460, Control_c, 0, 64, 127
2, 44674, Note_off_c, 0, 68, 64
2, 44707, Note_on_c, 0, 75, 47
2, 44715, Note_on_c, 0, 71, 42
2, 44715, Note_on_c, 0, 44, 34
2, 44721, Note_on_c, 0, 68, 36
2, 44725, Note_on_c, 0, 56, 23
2, 44736, Note_off_c, 0, 70, 64
2, 44737, Note_off_c, 0, 76, 64
2, 44738, Control_c, 0, 64, 0
2, 44746, Note_off_c, 0, 49, 64
2, 44750, Control_c, 0, 64, 127
2, 44750, Control_c, 0, 64, 0
2, 44754, Note_off_c, 0, 61, 64
2, 44762, Control_c, 0, 64, 127
2, 44775, Note_off_c, 0, 71, 64
2, 44790, Note_off_c, 0, 75, 64
2, 44966, Note_on_c, 0, 73, 39
2, 45001, Note_off_c, 0, 68, 64
2, 45012, Note_on_c, 0, 71, 35
2, 45024, Note_off_c, 0, 73, 64
2, 45073, Note_off_c, 0, 44, 64
2, 45093, Note_off_c, 0, 56, 64
2, 45276, Note_off_c, 0, 71, 64
2, 45281, Note_on_c, 0, 70, 21
2, 45336, Note_on_c, 0, 73, 41
2, 45337, Note_on_c, 0, 37, 43
2, 45343, Note_on_c, 0, 64, 43
2, 45347, Note_on_c, 0, 68, 38
2, 45347, Note_on_c, 0, 49, 26
2, 45359, Note_off_c, 0, 70, 64
2, 45373, Control_c, 0, 64, 0
2, 45385, Control_c, 0, 64, 0
2, 45398, Control_c, 0, 64, 127
2, 45410, Control_c, 0, 64, 127
2, 45763, Note_off_c, 0, 37, 64
2, 45769, Note_off_c, 0, 64, 64
2, 45773, Note_off_c, 0, 49, 64
2, 45773, Note_off_c, 0, 68, 64
2, 45811, Note_on_c, 0, 63, 26
2, 45816, Note_on_c, 0, 68, 34
2, 45821, Note_on_c, 0, 32, 26
2, 45822, Note_on_c, 0, 71, 34
2, 45828, Note_on_c, 0, 44, 19
2, 45831, Note_off_c, 0, 73, 64
2, 45891, Control_c, 0, 64, 0
2, 45903, Control_c, 0, 64, 0
2, 45914, Control_c, 0, 64, 127
2, 45926, Control_c, 0, 64, 127
2, 46099, Note_off_c, 0, 63, 64
2, 46104, Note_off_c, 0, 68, 64
2, 46125, Note_off_c, 0, 71, 64
2, 46172, Note_on_c, 0, 64, 23
2, 46208, Note_on_c, 0, 66, 32
2, 46214, Note_off_c, 0, 64, 64
2, 46255, Note_on_c, 0, 64, 32
2, 46260, Control_c, 0, 64, 0
2, 46264, Control_c, 0, 64, 0
2, 46272, Note_off_c, 0, 66, 64
2, 46272, Control_c, 0, 64, 0
2, 46276, Control_c, 0, 64, 0
2, 46288, Control_c, 0, 64, 127
2, 46290, Control_c, 0, 64, 127
2, 46300, Control_c, 0, 64, 127
2, 46302, Control_c, 0, 64, 127
2, 46601, Note_on_c, 0, 63, 39
2, 46623, Note_off_c, 0, 64, 64
2, 46669, Note_on_c, 0, 62, 45
2, 46685, Note_on_c, 0, 71, 41
2, 46688, Note_on_c, 0, 68, 31
2, 46692, Note_off_c, 0, 63, 64
2, 46708, Note_off_c, 0, 32, 64
2, 46711, Note_off_c, 0, 44, 64
2, 46729, Control_c, 0, 64, 0
2, 46741, Control_c, 0, 64, 0
2, 46751, Control_c, 0, 64, 127
2, 46763, Control_c, 0, 64, 127
2, 47205, Note_on_c, 0, 61, 41
2, 47208, Note_on_c, 0, 70, 42
2, 47215, Note_on_c, 0, 39, 38
2, 47220, Note_on_c, 0, 67, 36
2, 47248, Note_off_c, 0, 62, 64
2, 47264, Note_off_c, 0, 71, 64
2, 47267, Note_off_c, 0, 68, 64
2, 47282, Control_c, 0, 64, 0
2, 47294, Control_c, 0, 64, 0
2, 47322, Control_c, 0, 64, 127
2, 47334, Control_c, 0, 64, 127
2, 47860, Note_on_c, 0, 68, 45
2, 47863, Note_on_c, 0, 44, 34
2, 47884, Note_off_c, 0, 61, 64
2, 47887, Note_off_c, 0, 70, 64
2, 47899, Note_off_c, 0, 67, 64
2, 47950, Control_c, 0, 64, 0
2, 47961, Note_off_c, 0, 39, 64
2, 47962, Control_c, 0, 64, 0
2, 47963, Control_c, 0, 64, 127
2, 47975, Control_c, 0, 64, 127
2, 48780, Note_on_c, 0, 63, 30
2, 48784, Note_on_c, 0, 59, 21
2, 48799, Note_on_c, 0, 51, 17
2, 48803, Note_on_c, 0, 56, 13
2, 49258, Control_c, 0, 64, 0
2, 49270, Control_c, 0, 64, 0
2, 49376, Control_c, 0, 64, 127
2, 49388, Control_c, 0, 64, 127
2, 51128, Note_off_c, 0, 63, 64
2, 51136, Note_off_c, 0, 59, 64
2, 51143, Note_off_c, 0, 44, 64
2, 51143, Note_off_c, 0, 51, 64
2, 51149, Note_off_c, 0, 68, 64
2, 51153, Note_off_c, 0, 56, 64
2, 51203, Control_c, 0, 64, 0
2, 51215, Control_c, 0, 64, 0
2, 51215, End_track
3, 0, Start_track
3, 0, Title_t, "Played by Dr. Ron Lubetsky"
3, 0, End_track
4, 0, Start_track
4, 0, Title_t, "Feb. 11, 1998"
4, 0, End_track
5, 0, Start_track
5, 0, Title_t, "email: acuity2020@aol.com"
5, 0, End_track
6, 0, Start_track
6, 0, Title_t, "Copyright © 1998"
6, 0, End_track
7, 0, Start_track
7, 0, Title_t, "All Rights Reserved"
7, 0, End_track
0, 0, End_of_file
