2, 0, Program_c, 0, 0
2, 0, Control_c, 0, 7, 127
2, 131, Control_c, 0, 64, 127
2, 131, Control_c, 0, 64, 127
2, 161, Note_on_c, 0, 41, 58
2, 167, Note_on_c, 0, 65, 58
2, 223, Note_off_c, 0, 65, 64
2, 248, Note_off_c, 0, 41, 64
2, 308, Note_on_c, 0, 65, 53
2, 341, Note_on_c, 0, 67, 63
2, 351, Note_on_c, 0, 53, 54
2, 357, Note_on_c, 0, 60, 58
2, 358, Note_on_c, 0, 63, 61
2, 362, Note_off_c, 0, 65, 64
2, 393, Note_off_c, 0, 53, 64
2, 399, Note_off_c, 0, 63, 64
2, 401, Note_off_c, 0, 60, 64
2, 518, Control_c, 0, 64, 0
2, 518, Control_c, 0, 64, 0
2, 533, Note_on_c, 0, 69, 62
2, 533, Note_on_c, 0, 63, 35
2, 541, Note_on_c, 0, 60, 59
2, 541, Note_on_c, 0, 53, 55
2, 548, Note_off_c, 0, 67, 64
2, 567, Note_off_c, 0, 60, 64
2, 568, Note_off_c, 0, 63, 64
2, 572, Note_off_c, 0, 53, 64
2, 576, Control_c, 0, 64, 127
2, 576, Control_c, 0, 64, 127
2, 719, Note_on_c, 0, 70, 66
2, 719, Note_on_c, 0, 46, 66
2, 730, Control_c, 0, 64, 0
2, 730, Control_c, 0, 64, 0
2, 743, Control_c, 0, 64, 127
2, 743, Control_c, 0, 64, 127
2, 753, Note_off_c, 0, 69, 64
2, 799, Note_off_c, 0, 70, 64
2, 806, Note_off_c, 0, 46, 64
2, 845, Note_on_c, 0, 72, 61
2, 881, Control_c, 0, 64, 0
2, 881, Control_c, 0, 64, 0
2, 886, Note_on_c, 0, 58, 63
2, 890, Note_on_c, 0, 53, 61
2, 894, Note_on_c, 0, 62, 49
2, 897, Note_on_c, 0, 74, 72
2, 912, Note_off_c, 0, 72, 64
2, 925, Note_off_c, 0, 62, 64
2, 931, Note_off_c, 0, 58, 64
2, 937, Control_c, 0, 64, 127
2, 937, Control_c, 0, 64, 127
2, 940, Note_off_c, 0, 53, 64
2, 1059, Control_c, 0, 64, 0
2, 1059, Control_c, 0, 64, 0
2, 1065, Note_on_c, 0, 46, 67
2, 1069, Note_on_c, 0, 75, 67
2, 1086, Note_off_c, 0, 74, 64
2, 1100, Control_c, 0, 64, 127
2, 1100, Control_c, 0, 64, 127
2, 1152, Note_off_c, 0, 46, 64
2, 1173, Note_on_c, 0, 77, 65
2, 1185, Note_off_c, 0, 75, 64
2, 1240, Note_on_c, 0, 39, 71
2, 1247, Note_on_c, 0, 79, 78
2, 1248, Note_on_c, 0, 51, 67
2, 1253, Control_c, 0, 64, 0
2, 1253, Control_c, 0, 64, 0
2, 1260, Note_off_c, 0, 77, 64
2, 1296, Control_c, 0, 64, 127
2, 1296, Control_c, 0, 64, 127
2, 1376, Note_on_c, 0, 81, 67
2, 1384, Note_on_c, 0, 55, 62
2, 1385, Note_off_c, 0, 79, 64
2, 1448, Note_on_c, 0, 58, 53
2, 1480, Note_off_c, 0, 39, 64
2, 1488, Note_off_c, 0, 51, 64
2, 1496, Note_on_c, 0, 63, 45
2, 1515, Note_on_c, 0, 84, 78
2, 1522, Note_off_c, 0, 81, 64
2, 1525, Control_c, 0, 64, 0
2, 1525, Control_c, 0, 64, 0
2, 1544, Note_on_c, 0, 67, 53
2, 1546, Note_on_c, 0, 82, 83
2, 1552, Control_c, 0, 64, 127
2, 1552, Control_c, 0, 64, 127
2, 1556, Note_off_c, 0, 84, 64
2, 1585, Note_on_c, 0, 84, 79
2, 1595, Note_off_c, 0, 82, 64
2, 1595, Note_off_c, 0, 55, 64
2, 1616, Note_on_c, 0, 82, 74
2, 1629, Note_off_c, 0, 84, 64
2, 1636, Note_off_c, 0, 58, 64
2, 1648, Note_off_c, 0, 82, 64
2, 1648, Note_on_c, 0, 84, 70
2, 1669, Note_off_c, 0, 63, 64
2, 1672, Note_on_c, 0, 82, 71
2, 1677, Note_off_c, 0, 67, 64
2, 1696, Note_off_c, 0, 84, 64
2, 1736, Note_on_c, 0, 81, 72
2, 1744, Note_off_c, 0, 82, 64
2, 1802, Note_on_c, 0, 79, 72
2, 1826, Note_off_c, 0, 81, 64
2, 1895, Note_on_c, 0, 77, 66
2, 1912, Note_off_c, 0, 79, 64
2, 1931, Note_on_c, 0, 82, 72
2, 1936, Note_on_c, 0, 46, 57
2, 1940, Note_off_c, 0, 77, 64
2, 1944, Control_c, 0, 64, 0
2, 1944, Control_c, 0, 64, 0
2, 1964, Note_off_c, 0, 82, 64
2, 2002, Control_c, 0, 64, 127
2, 2002, Control_c, 0, 64, 127
2, 2020, Control_c, 0, 64, 127
2, 2020, Control_c, 0, 64, 127
2, 2023, Note_off_c, 0, 46, 64
2, 2066, Note_on_c, 0, 82, 52
2, 2096, Control_c, 0, 64, 0
2, 2096, Control_c, 0, 64, 0
2, 2105, Note_on_c, 0, 74, 62
2, 2113, Note_on_c, 0, 62, 45
2, 2120, Note_on_c, 0, 58, 42
2, 2120, Note_on_c, 0, 53, 41
2, 2142, Note_off_c, 0, 58, 64
2, 2144, Note_off_c, 0, 82, 64
2, 2150, Note_off_c, 0, 53, 64
2, 2159, Note_off_c, 0, 62, 64
2, 2279, Note_on_c, 0, 62, 39
2, 2287, Note_on_c, 0, 58, 41
2, 2288, Note_on_c, 0, 53, 39
2, 2290, Control_c, 0, 64, 127
2, 2290, Control_c, 0, 64, 127
2, 2309, Note_off_c, 0, 58, 64
2, 2309, Note_off_c, 0, 62, 64
2, 2318, Note_off_c, 0, 53, 64
2, 2409, Note_on_c, 0, 75, 49
2, 2424, Note_off_c, 0, 74, 64
2, 2447, Note_on_c, 0, 41, 52
2, 2452, Note_on_c, 0, 79, 53
2, 2460, Control_c, 0, 64, 0
2, 2460, Control_c, 0, 64, 0
2, 2469, Note_off_c, 0, 75, 64
2, 2489, Note_off_c, 0, 79, 64
2, 2534, Note_off_c, 0, 41, 64
2, 2572, Note_on_c, 0, 79, 41
2, 2612, Note_on_c, 0, 69, 46
2, 2615, Note_on_c, 0, 53, 31
2, 2624, Note_off_c, 0, 79, 64
2, 2626, Note_on_c, 0, 60, 45
2, 2628, Note_on_c, 0, 63, 24
2, 2658, Note_off_c, 0, 53, 64
2, 2665, Note_off_c, 0, 60, 64
2, 2667, Note_off_c, 0, 63, 64
2, 2672, Control_c, 0, 64, 127
2, 2672, Control_c, 0, 64, 127
2, 2776, Note_on_c, 0, 63, 32
2, 2780, Note_on_c, 0, 60, 36
2, 2780, Note_on_c, 0, 53, 36
2, 2815, Note_off_c, 0, 63, 64
2, 2819, Note_off_c, 0, 53, 64
2, 2819, Note_off_c, 0, 60, 64
2, 2899, Note_on_c, 0, 70, 41
2, 2912, Note_off_c, 0, 69, 64
2, 2930, Note_on_c, 0, 46, 41
2, 2938, Note_on_c, 0, 74, 45
2, 2950, Control_c, 0, 64, 0
2, 2950, Control_c, 0, 64, 0
2, 2955, Note_off_c, 0, 70, 64
2, 2975, Note_off_c, 0, 74, 64
2, 3017, Note_off_c, 0, 46, 64
2, 3064, Note_on_c, 0, 74, 39
2, 3096, Note_on_c, 0, 58, 32
2, 3098, Note_on_c, 0, 64, 42
2, 3104, Note_on_c, 0, 53, 33
2, 3110, Note_on_c, 0, 62, 20
2, 3126, Note_off_c, 0, 74, 64
2, 3139, Note_off_c, 0, 58, 64
2, 3141, Note_off_c, 0, 53, 64
2, 3146, Note_off_c, 0, 62, 64
2, 3248, Note_on_c, 0, 58, 31
2, 3254, Note_on_c, 0, 62, 31
2, 3254, Note_on_c, 0, 53, 32
2, 3270, Control_c, 0, 64, 127
2, 3270, Control_c, 0, 64, 127
2, 3277, Note_off_c, 0, 58, 64
2, 3283, Note_off_c, 0, 62, 64
2, 3291, Note_off_c, 0, 53, 64
2, 3398, Control_c, 0, 64, 127
2, 3398, Control_c, 0, 64, 127
2, 3420, Note_on_c, 0, 41, 48
2, 3427, Note_on_c, 0, 65, 52
2, 3434, Control_c, 0, 64, 0
2, 3434, Control_c, 0, 64, 0
2, 3440, Note_off_c, 0, 64, 64
2, 3477, Control_c, 0, 64, 127
2, 3477, Control_c, 0, 64, 127
2, 3507, Note_off_c, 0, 41, 64
2, 3544, Note_on_c, 0, 69, 58
2, 3546, Note_off_c, 0, 65, 64
2, 3592, Control_c, 0, 64, 0
2, 3592, Control_c, 0, 64, 0
2, 3596, Note_on_c, 0, 63, 26
2, 3600, Note_on_c, 0, 53, 48
2, 3608, Note_on_c, 0, 72, 62
2, 3619, Control_c, 0, 64, 127
2, 3619, Control_c, 0, 64, 127
2, 3624, Note_off_c, 0, 69, 64
2, 3661, Note_off_c, 0, 53, 64
2, 3664, Note_on_c, 0, 75, 53
2, 3670, Note_off_c, 0, 63, 64
2, 3728, Note_off_c, 0, 72, 64
2, 3740, Note_on_c, 0, 79, 41
2, 3744, Note_on_c, 0, 63, 52
2, 3747, Note_on_c, 0, 53, 44
2, 3762, Note_off_c, 0, 75, 64
2, 3796, Note_off_c, 0, 63, 64
2, 3811, Note_off_c, 0, 53, 64
2, 3836, Note_on_c, 0, 77, 65
2, 3866, Note_off_c, 0, 79, 64
2, 3882, Note_off_c, 0, 77, 64
2, 3888, Note_on_c, 0, 77, 74
2, 3906, Control_c, 0, 64, 0
2, 3906, Control_c, 0, 64, 0
2, 3912, Note_on_c, 0, 46, 66
2, 3927, Note_on_c, 0, 86, 67
2, 3936, Note_off_c, 0, 77, 64
2, 3952, Control_c, 0, 64, 127
2, 3952, Control_c, 0, 64, 127
2, 3999, Note_off_c, 0, 46, 64
2, 4029, Note_on_c, 0, 84, 67
2, 4056, Note_off_c, 0, 86, 64
2, 4088, Note_on_c, 0, 53, 41
2, 4089, Note_on_c, 0, 82, 74
2, 4098, Note_on_c, 0, 62, 39
2, 4099, Note_on_c, 0, 58, 29
2, 4101, Note_off_c, 0, 84, 64
2, 4106, Control_c, 0, 64, 0
2, 4106, Control_c, 0, 64, 0
2, 4119, Note_on_c, 0, 84, 65
2, 4126, Note_off_c, 0, 58, 64
2, 4132, Note_off_c, 0, 82, 64
2, 4134, Control_c, 0, 64, 127
2, 4134, Control_c, 0, 64, 127
2, 4141, Note_off_c, 0, 53, 64
2, 4144, Note_off_c, 0, 62, 64
2, 4154, Note_on_c, 0, 82, 59
2, 4177, Note_off_c, 0, 84, 64
2, 4212, Note_on_c, 0, 79, 54
2, 4229, Note_off_c, 0, 82, 64
2, 4260, Control_c, 0, 64, 0
2, 4260, Control_c, 0, 64, 0
2, 4267, Note_on_c, 0, 62, 46
2, 4267, Note_on_c, 0, 53, 45
2, 4268, Note_on_c, 0, 58, 44
2, 4271, Note_on_c, 0, 77, 54
2, 4291, Note_off_c, 0, 53, 64
2, 4292, Note_off_c, 0, 58, 64
2, 4292, Note_off_c, 0, 62, 64
2, 4294, Note_off_c, 0, 79, 64
2, 4296, Control_c, 0, 64, 127
2, 4296, Control_c, 0, 64, 127
2, 4416, Note_on_c, 0, 79, 66
2, 4422, Control_c, 0, 64, 0
2, 4422, Control_c, 0, 64, 0
2, 4430, Note_off_c, 0, 77, 64
2, 4456, Note_on_c, 0, 82, 67
2, 4456, Note_on_c, 0, 46, 58
2, 4470, Note_off_c, 0, 79, 64
2, 4474, Control_c, 0, 64, 127
2, 4474, Control_c, 0, 64, 127
2, 4489, Note_off_c, 0, 82, 64
2, 4543, Note_off_c, 0, 46, 64
2, 4608, Note_on_c, 0, 82, 59
2, 4629, Control_c, 0, 64, 0
2, 4629, Control_c, 0, 64, 0
2, 4656, Note_on_c, 0, 60, 45
2, 4656, Note_on_c, 0, 53, 35
2, 4657, Note_off_c, 0, 82, 64
2, 4660, Note_on_c, 0, 69, 58
2, 4660, Note_on_c, 0, 63, 49
2, 4688, Note_off_c, 0, 60, 64
2, 4695, Note_off_c, 0, 53, 64
2, 4702, Note_off_c, 0, 63, 64
2, 4773, Control_c, 0, 64, 0
2, 4773, Control_c, 0, 64, 0
2, 4812, Note_on_c, 0, 60, 45
2, 4818, Note_on_c, 0, 63, 41
2, 4825, Note_on_c, 0, 53, 39
2, 4833, Control_c, 0, 64, 127
2, 4833, Control_c, 0, 64, 127
2, 4844, Note_off_c, 0, 60, 64
2, 4852, Note_off_c, 0, 63, 64
2, 4862, Note_off_c, 0, 53, 64
2, 4931, Note_on_c, 0, 70, 46
2, 4940, Note_off_c, 0, 69, 64
2, 4954, Note_on_c, 0, 74, 41
2, 4968, Note_off_c, 0, 70, 64
2, 4984, Note_on_c, 0, 46, 52
2, 4987, Control_c, 0, 64, 0
2, 4987, Control_c, 0, 64, 0
2, 4992, Note_on_c, 0, 77, 59
2, 5011, Note_off_c, 0, 74, 64
2, 5032, Note_off_c, 0, 77, 64
2, 5071, Note_off_c, 0, 46, 64
2, 5107, Note_on_c, 0, 77, 54
2, 5145, Note_on_c, 0, 53, 35
2, 5150, Note_off_c, 0, 77, 64
2, 5150, Note_on_c, 0, 58, 42
2, 5153, Note_on_c, 0, 64, 62
2, 5154, Note_on_c, 0, 62, 41
2, 5192, Note_off_c, 0, 58, 64
2, 5196, Note_off_c, 0, 53, 64
2, 5199, Note_off_c, 0, 62, 64
2, 5318, Note_on_c, 0, 62, 41
2, 5318, Note_on_c, 0, 53, 45
2, 5320, Note_on_c, 0, 58, 45
2, 5333, Control_c, 0, 64, 127
2, 5333, Control_c, 0, 64, 127
2, 5352, Note_off_c, 0, 58, 64
2, 5361, Note_off_c, 0, 62, 64
2, 5365, Note_off_c, 0, 53, 64
2, 5493, Note_on_c, 0, 41, 44
2, 5494, Note_on_c, 0, 65, 62
2, 5494, Control_c, 0, 64, 0
2, 5494, Control_c, 0, 64, 0
2, 5523, Note_off_c, 0, 64, 64
2, 5538, Control_c, 0, 64, 127
2, 5538, Control_c, 0, 64, 127
2, 5580, Note_off_c, 0, 41, 64
2, 5608, Note_on_c, 0, 69, 53
2, 5634, Note_off_c, 0, 65, 64
2, 5647, Control_c, 0, 64, 0
2, 5647, Control_c, 0, 64, 0
2, 5657, Note_on_c, 0, 63, 53
2, 5661, Note_on_c, 0, 72, 53
2, 5664, Note_on_c, 0, 53, 36
2, 5687, Control_c, 0, 64, 127
2, 5687, Control_c, 0, 64, 127
2, 5724, Note_off_c, 0, 53, 64
2, 5727, Note_off_c, 0, 69, 64
2, 5735, Note_off_c, 0, 63, 64
2, 5739, Note_on_c, 0, 75, 37
2, 5750, Note_off_c, 0, 72, 64
2, 5835, Note_on_c, 0, 74, 55
2, 5844, Note_on_c, 0, 57, 41
2, 5847, Note_on_c, 0, 53, 55
2, 5848, Note_on_c, 0, 63, 46
2, 5854, Note_off_c, 0, 75, 64
2, 5861, Note_on_c, 0, 75, 53
2, 5873, Note_off_c, 0, 57, 64
2, 5880, Note_off_c, 0, 74, 64
2, 5890, Note_off_c, 0, 63, 64
2, 5899, Note_off_c, 0, 53, 64
2, 5906, Note_on_c, 0, 74, 37
2, 5915, Note_off_c, 0, 75, 64
2, 5969, Note_on_c, 0, 72, 57
2, 5986, Note_off_c, 0, 74, 64
2, 5994, Control_c, 0, 64, 127
2, 5994, Control_c, 0, 64, 127
2, 6037, Note_on_c, 0, 74, 66
2, 6037, Note_on_c, 0, 46, 57
2, 6040, Note_off_c, 0, 72, 64
2, 6047, Control_c, 0, 64, 0
2, 6047, Control_c, 0, 64, 0
2, 6082, Control_c, 0, 64, 127
2, 6082, Control_c, 0, 64, 127
2, 6143, Note_on_c, 0, 65, 59
2, 6200, Control_c, 0, 64, 0
2, 6200, Control_c, 0, 64, 0
2, 6204, Note_on_c, 0, 70, 66
2, 6207, Note_off_c, 0, 74, 64
2, 6210, Note_on_c, 0, 62, 41
2, 6210, Note_on_c, 0, 58, 41
2, 6212, Note_on_c, 0, 53, 45
2, 6217, Note_off_c, 0, 65, 64
2, 6232, Note_off_c, 0, 46, 64
2, 6256, Control_c, 0, 64, 127
2, 6256, Control_c, 0, 64, 127
2, 6366, Note_off_c, 0, 58, 64
2, 6368, Note_off_c, 0, 53, 64
2, 6380, Note_off_c, 0, 62, 64
2, 6383, Note_on_c, 0, 69, 49
2, 6387, Note_off_c, 0, 70, 64
2, 6404, Control_c, 0, 64, 0
2, 6404, Control_c, 0, 64, 0
2, 6417, Control_c, 0, 64, 127
2, 6417, Control_c, 0, 64, 127
2, 6500, Note_on_c, 0, 67, 45
2, 6516, Note_off_c, 0, 69, 64
2, 6551, Note_on_c, 0, 65, 66
2, 6559, Control_c, 0, 64, 0
2, 6559, Control_c, 0, 64, 0
2, 6565, Note_on_c, 0, 41, 57
2, 6573, Note_off_c, 0, 67, 64
2, 6608, Control_c, 0, 64, 127
2, 6608, Control_c, 0, 64, 127
2, 6613, Note_off_c, 0, 65, 64
2, 6652, Note_off_c, 0, 41, 64
2, 6673, Note_on_c, 0, 65, 63
2, 6704, Control_c, 0, 64, 0
2, 6704, Control_c, 0, 64, 0
2, 6724, Note_on_c, 0, 67, 75
2, 6724, Note_on_c, 0, 53, 44
2, 6732, Note_on_c, 0, 63, 66
2, 6732, Note_on_c, 0, 60, 37
2, 6740, Note_off_c, 0, 65, 64
2, 6756, Note_off_c, 0, 53, 64
2, 6760, Note_off_c, 0, 60, 64
2, 6779, Note_off_c, 0, 63, 64
2, 6879, Note_on_c, 0, 69, 55
2, 6884, Note_on_c, 0, 53, 44
2, 6885, Note_on_c, 0, 63, 44
2, 6898, Note_off_c, 0, 67, 64
2, 6898, Note_on_c, 0, 60, 35
2, 6910, Control_c, 0, 64, 127
2, 6910, Control_c, 0, 64, 127
2, 6919, Note_off_c, 0, 53, 64
2, 6920, Note_off_c, 0, 60, 64
2, 6920, Note_off_c, 0, 63, 64
2, 6990, Control_c, 0, 64, 127
2, 6990, Control_c, 0, 64, 127
2, 7048, Note_on_c, 0, 46, 59
2, 7048, Control_c, 0, 64, 0
2, 7048, Control_c, 0, 64, 0
2, 7052, Note_on_c, 0, 70, 65
2, 7077, Note_off_c, 0, 69, 64
2, 7087, Control_c, 0, 64, 127
2, 7087, Control_c, 0, 64, 127
2, 7100, Note_off_c, 0, 70, 64
2, 7135, Note_off_c, 0, 46, 64
2, 7162, Note_on_c, 0, 72, 57
2, 7199, Note_on_c, 0, 58, 45
2, 7204, Note_on_c, 0, 62, 36
2, 7208, Control_c, 0, 64, 0
2, 7208, Control_c, 0, 64, 0
2, 7216, Note_on_c, 0, 74, 68
2, 7216, Note_on_c, 0, 53, 55
2, 7236, Note_off_c, 0, 72, 64
2, 7238, Control_c, 0, 64, 127
2, 7238, Control_c, 0, 64, 127
2, 7245, Note_off_c, 0, 62, 64
2, 7247, Note_off_c, 0, 58, 64
2, 7251, Note_off_c, 0, 53, 64
2, 7360, Control_c, 0, 64, 0
2, 7360, Control_c, 0, 64, 0
2, 7367, Note_on_c, 0, 75, 72
2, 7369, Note_on_c, 0, 46, 72
2, 7393, Note_off_c, 0, 74, 64
2, 7398, Control_c, 0, 64, 127
2, 7398, Control_c, 0, 64, 127
2, 7456, Note_off_c, 0, 46, 64
2, 7473, Note_on_c, 0, 77, 67
2, 7494, Note_off_c, 0, 75, 64
2, 7530, Control_c, 0, 64, 0
2, 7530, Control_c, 0, 64, 0
2, 7540, Note_on_c, 0, 39, 74
2, 7543, Note_on_c, 0, 79, 63
2, 7544, Note_on_c, 0, 51, 71
2, 7571, Note_off_c, 0, 77, 64
2, 7571, Control_c, 0, 64, 127
2, 7571, Control_c, 0, 64, 127
2, 7650, Note_on_c, 0, 81, 70
2, 7656, Note_on_c, 0, 55, 63
2, 7663, Note_off_c, 0, 79, 64
2, 7696, Note_on_c, 0, 58, 54
2, 7728, Note_on_c, 0, 63, 46
2, 7767, Note_on_c, 0, 84, 78
2, 7768, Note_off_c, 0, 81, 64
2, 7777, Control_c, 0, 64, 0
2, 7777, Control_c, 0, 64, 0
2, 7780, Note_off_c, 0, 39, 64
2, 7784, Note_off_c, 0, 51, 64
2, 7792, Note_on_c, 0, 67, 53
2, 7798, Note_on_c, 0, 82, 84
2, 7804, Control_c, 0, 64, 127
2, 7804, Control_c, 0, 64, 127
2, 7808, Note_off_c, 0, 84, 64
2, 7835, Note_off_c, 0, 82, 64
2, 7837, Note_on_c, 0, 84, 79
2, 7867, Note_off_c, 0, 55, 64
2, 7870, Note_off_c, 0, 84, 64
2, 7881, Note_on_c, 0, 82, 74
2, 7884, Note_off_c, 0, 58, 64
2, 7900, Note_on_c, 0, 84, 70
2, 7901, Note_off_c, 0, 63, 64
2, 7905, Note_off_c, 0, 82, 64
2, 7925, Note_off_c, 0, 67, 64
2, 7928, Note_on_c, 0, 82, 71
2, 7948, Note_off_c, 0, 84, 64
2, 7981, Note_on_c, 0, 81, 72
2, 7982, Note_off_c, 0, 82, 64
2, 8031, Note_off_c, 0, 81, 64
2, 8053, Note_on_c, 0, 79, 76
2, 8100, Note_off_c, 0, 79, 64
2, 8108, Note_on_c, 0, 77, 62
2, 8125, Control_c, 0, 64, 0
2, 8125, Control_c, 0, 64, 0
2, 8132, Note_on_c, 0, 46, 66
2, 8137, Note_on_c, 0, 82, 66
2, 8151, Note_off_c, 0, 77, 64
2, 8168, Note_off_c, 0, 82, 64
2, 8219, Note_off_c, 0, 46, 64
2, 8260, Note_on_c, 0, 82, 50
2, 8283, Note_on_c, 0, 58, 22
2, 8289, Note_on_c, 0, 53, 36
2, 8291, Note_on_c, 0, 74, 62
2, 8297, Note_on_c, 0, 62, 35
2, 8316, Note_off_c, 0, 82, 64
2, 8333, Note_off_c, 0, 58, 64
2, 8334, Note_off_c, 0, 53, 64
2, 8340, Note_off_c, 0, 62, 64
2, 8442, Note_on_c, 0, 62, 49
2, 8448, Note_on_c, 0, 58, 52
2, 8448, Note_on_c, 0, 53, 46
2, 8458, Control_c, 0, 64, 127
2, 8458, Control_c, 0, 64, 127
2, 8468, Note_off_c, 0, 58, 64
2, 8475, Note_off_c, 0, 62, 64
2, 8480, Note_off_c, 0, 53, 64
2, 8579, Note_on_c, 0, 75, 52
2, 8595, Note_off_c, 0, 74, 64
2, 8603, Note_on_c, 0, 41, 42
2, 8603, Control_c, 0, 64, 0
2, 8603, Control_c, 0, 64, 0
2, 8613, Note_on_c, 0, 79, 57
2, 8630, Note_off_c, 0, 75, 64
2, 8653, Note_off_c, 0, 79, 64
2, 8690, Note_off_c, 0, 41, 64
2, 8743, Note_on_c, 0, 79, 45
2, 8763, Note_on_c, 0, 53, 39
2, 8772, Note_on_c, 0, 63, 41
2, 8772, Note_on_c, 0, 60, 32
2, 8774, Note_on_c, 0, 69, 49
2, 8779, Note_off_c, 0, 79, 64
2, 8811, Note_off_c, 0, 60, 64
2, 8816, Note_off_c, 0, 53, 64
2, 8818, Note_off_c, 0, 63, 64
2, 8829, Control_c, 0, 64, 127
2, 8829, Control_c, 0, 64, 127
2, 8924, Note_on_c, 0, 60, 36
2, 8924, Note_on_c, 0, 53, 36
2, 8925, Note_on_c, 0, 63, 49
2, 8953, Note_off_c, 0, 53, 64
2, 8953, Note_off_c, 0, 60, 64
2, 8962, Note_off_c, 0, 63, 64
2, 9044, Note_on_c, 0, 70, 50
2, 9071, Note_off_c, 0, 69, 64
2, 9081, Note_on_c, 0, 74, 57
2, 9081, Note_on_c, 0, 46, 52
2, 9089, Control_c, 0, 64, 0
2, 9089, Control_c, 0, 64, 0
2, 9100, Note_off_c, 0, 70, 64
2, 9123, Note_off_c, 0, 74, 64
2, 9168, Note_off_c, 0, 46, 64
2, 9196, Note_on_c, 0, 74, 52
2, 9227, Note_on_c, 0, 58, 44
2, 9234, Note_on_c, 0, 53, 41
2, 9241, Note_on_c, 0, 62, 46
2, 9244, Note_on_c, 0, 64, 53
2, 9271, Note_off_c, 0, 74, 64
2, 9285, Note_off_c, 0, 58, 64
2, 9288, Note_off_c, 0, 62, 64
2, 9288, Note_off_c, 0, 53, 64
2, 9404, Note_on_c, 0, 58, 40
2, 9407, Note_on_c, 0, 62, 46
2, 9411, Note_on_c, 0, 53, 41
2, 9430, Control_c, 0, 64, 127
2, 9430, Control_c, 0, 64, 127
2, 9433, Note_off_c, 0, 58, 64
2, 9438, Note_off_c, 0, 62, 64
2, 9440, Note_off_c, 0, 53, 64
2, 9565, Note_on_c, 0, 41, 66
2, 9574, Control_c, 0, 64, 0
2, 9574, Control_c, 0, 64, 0
2, 9578, Note_on_c, 0, 65, 54
2, 9595, Note_off_c, 0, 64, 64
2, 9620, Control_c, 0, 64, 127
2, 9620, Control_c, 0, 64, 127
2, 9652, Note_off_c, 0, 41, 64
2, 9689, Note_on_c, 0, 69, 54
2, 9709, Note_off_c, 0, 65, 64
2, 9718, Control_c, 0, 64, 0
2, 9718, Control_c, 0, 64, 0
2, 9732, Note_on_c, 0, 72, 50
2, 9734, Note_on_c, 0, 63, 49
2, 9741, Note_on_c, 0, 53, 19
2, 9768, Control_c, 0, 64, 127
2, 9768, Control_c, 0, 64, 127
2, 9778, Note_off_c, 0, 53, 64
2, 9780, Note_off_c, 0, 63, 64
2, 9794, Note_off_c, 0, 69, 64
2, 9816, Note_on_c, 0, 75, 39
2, 9861, Note_off_c, 0, 72, 64
2, 9888, Note_on_c, 0, 79, 55
2, 9889, Note_on_c, 0, 53, 44
2, 9892, Note_on_c, 0, 63, 46
2, 9900, Note_on_c, 0, 57, 22
2, 9920, Note_off_c, 0, 75, 64
2, 9928, Note_off_c, 0, 57, 64
2, 9931, Note_off_c, 0, 63, 64
2, 9932, Note_off_c, 0, 53, 64
2, 9943, Note_off_c, 0, 79, 64
2, 9968, Note_on_c, 0, 77, 71
2, 9998, Note_off_c, 0, 77, 64
2, 10016, Note_on_c, 0, 77, 60
2, 10048, Note_on_c, 0, 46, 67
2, 10058, Control_c, 0, 64, 0
2, 10058, Control_c, 0, 64, 0
2, 10067, Note_on_c, 0, 86, 74
2, 10072, Note_off_c, 0, 77, 64
2, 10092, Control_c, 0, 64, 127
2, 10092, Control_c, 0, 64, 127
2, 10135, Note_off_c, 0, 46, 64
2, 10150, Note_off_c, 0, 86, 64
2, 10170, Note_on_c, 0, 84, 62
2, 10209, Note_off_c, 0, 84, 64
2, 10223, Note_on_c, 0, 82, 63
2, 10230, Note_on_c, 0, 53, 41
2, 10231, Note_on_c, 0, 58, 45
2, 10235, Note_on_c, 0, 62, 50
2, 10243, Control_c, 0, 64, 0
2, 10243, Control_c, 0, 64, 0
2, 10262, Note_off_c, 0, 58, 64
2, 10263, Note_on_c, 0, 84, 59
2, 10265, Note_off_c, 0, 82, 64
2, 10277, Note_off_c, 0, 62, 64
2, 10278, Note_off_c, 0, 53, 64
2, 10283, Control_c, 0, 64, 127
2, 10283, Control_c, 0, 64, 127
2, 10300, Note_on_c, 0, 82, 58
2, 10311, Note_off_c, 0, 84, 64
2, 10337, Note_off_c, 0, 82, 64
2, 10346, Note_on_c, 0, 79, 44
2, 10381, Control_c, 0, 64, 0
2, 10381, Control_c, 0, 64, 0
2, 10393, Note_on_c, 0, 58, 46
2, 10400, Note_on_c, 0, 62, 42
2, 10400, Note_on_c, 0, 53, 41
2, 10402, Note_on_c, 0, 77, 46
2, 10408, Note_off_c, 0, 79, 64
2, 10425, Note_off_c, 0, 58, 64
2, 10428, Note_off_c, 0, 62, 64
2, 10429, Note_off_c, 0, 53, 64
2, 10438, Control_c, 0, 64, 127
2, 10438, Control_c, 0, 64, 127
2, 10452, Note_off_c, 0, 77, 64
2, 10529, Note_on_c, 0, 79, 58
2, 10536, Control_c, 0, 64, 0
2, 10536, Control_c, 0, 64, 0
2, 10552, Note_on_c, 0, 46, 63
2, 10553, Note_on_c, 0, 82, 66
2, 10570, Note_off_c, 0, 79, 64
2, 10587, Note_off_c, 0, 82, 64
2, 10619, Control_c, 0, 64, 0
2, 10619, Control_c, 0, 64, 0
2, 10639, Note_off_c, 0, 46, 64
2, 10684, Note_on_c, 0, 82, 62
2, 10721, Note_off_c, 0, 82, 64
2, 10726, Note_on_c, 0, 69, 59
2, 10729, Note_on_c, 0, 63, 51
2, 10729, Note_on_c, 0, 53, 43
2, 10739, Note_on_c, 0, 60, 39
2, 10759, Note_off_c, 0, 60, 64
2, 10762, Note_off_c, 0, 53, 64
2, 10764, Note_off_c, 0, 63, 64
2, 10799, Control_c, 0, 64, 127
2, 10799, Control_c, 0, 64, 127
2, 10815, Control_c, 0, 64, 0
2, 10815, Control_c, 0, 64, 0
2, 10839, Control_c, 0, 64, 127
2, 10839, Control_c, 0, 64, 127
2, 10884, Note_on_c, 0, 60, 37
2, 10890, Note_on_c, 0, 63, 37
2, 10898, Note_on_c, 0, 53, 23
2, 10903, Control_c, 0, 64, 127
2, 10903, Control_c, 0, 64, 127
2, 10909, Note_off_c, 0, 60, 64
2, 10915, Note_off_c, 0, 63, 64
2, 10923, Note_off_c, 0, 53, 64
2, 10988, Note_on_c, 0, 70, 45
2, 11012, Note_off_c, 0, 69, 64
2, 11017, Note_on_c, 0, 74, 50
2, 11034, Note_off_c, 0, 70, 64
2, 11036, Control_c, 0, 64, 0
2, 11036, Control_c, 0, 64, 0
2, 11042, Note_on_c, 0, 46, 52
2, 11053, Note_on_c, 0, 77, 44
2, 11075, Note_off_c, 0, 74, 64
2, 11093, Note_off_c, 0, 77, 64
2, 11129, Note_off_c, 0, 46, 64
2, 11180, Note_on_c, 0, 77, 46
2, 11208, Note_on_c, 0, 58, 27
2, 11208, Note_on_c, 0, 53, 27
2, 11209, Note_on_c, 0, 62, 31
2, 11217, Note_off_c, 0, 77, 64
2, 11220, Note_on_c, 0, 64, 59
2, 11248, Control_c, 0, 64, 127
2, 11248, Control_c, 0, 64, 127
2, 11256, Note_off_c, 0, 58, 64
2, 11260, Note_off_c, 0, 62, 64
2, 11260, Note_off_c, 0, 53, 64
2, 11370, Note_on_c, 0, 62, 35
2, 11375, Note_on_c, 0, 58, 35
2, 11378, Note_on_c, 0, 53, 26
2, 11403, Note_off_c, 0, 58, 64
2, 11407, Note_off_c, 0, 62, 64
2, 11413, Note_off_c, 0, 53, 64
2, 11503, Control_c, 0, 64, 127
2, 11503, Control_c, 0, 64, 127
2, 11529, Control_c, 0, 64, 0
2, 11529, Control_c, 0, 64, 0
2, 11535, Note_on_c, 0, 65, 58
2, 11535, Note_on_c, 0, 41, 46
2, 11542, Note_off_c, 0, 64, 64
2, 11590, Control_c, 0, 64, 127
2, 11590, Control_c, 0, 64, 127
2, 11622, Note_off_c, 0, 41, 64
2, 11632, Note_on_c, 0, 69, 55
2, 11664, Note_off_c, 0, 65, 64
2, 11683, Control_c, 0, 64, 0
2, 11683, Control_c, 0, 64, 0
2, 11691, Note_on_c, 0, 72, 53
2, 11692, Note_on_c, 0, 53, 27
2, 11698, Note_on_c, 0, 63, 54
2, 11715, Control_c, 0, 64, 127
2, 11715, Control_c, 0, 64, 127
2, 11717, Note_off_c, 0, 53, 64
2, 11752, Note_off_c, 0, 63, 64
2, 11756, Note_off_c, 0, 69, 64
2, 11769, Note_on_c, 0, 75, 54
2, 11789, Note_off_c, 0, 72, 64
2, 11860, Note_on_c, 0, 74, 48
2, 11865, Note_on_c, 0, 63, 54
2, 11872, Note_off_c, 0, 75, 64
2, 11876, Note_on_c, 0, 57, 44
2, 11876, Note_on_c, 0, 53, 44
2, 11881, Note_on_c, 0, 75, 55
2, 11893, Note_off_c, 0, 74, 64
2, 11896, Note_off_c, 0, 63, 64
2, 11901, Note_off_c, 0, 57, 64
2, 11903, Note_off_c, 0, 53, 64
2, 11926, Note_on_c, 0, 74, 48
2, 11933, Note_off_c, 0, 75, 64
2, 11973, Note_on_c, 0, 72, 63
2, 11995, Note_off_c, 0, 74, 64
2, 12063, Note_on_c, 0, 74, 63
2, 12066, Note_on_c, 0, 46, 58
2, 12075, Note_off_c, 0, 72, 64
2, 12076, Control_c, 0, 64, 0
2, 12076, Control_c, 0, 64, 0
2, 12132, Control_c, 0, 64, 127
2, 12132, Control_c, 0, 64, 127
2, 12153, Note_off_c, 0, 46, 64
2, 12180, Note_on_c, 0, 65, 59
2, 12194, Note_off_c, 0, 74, 64
2, 12246, Control_c, 0, 64, 0
2, 12246, Control_c, 0, 64, 0
2, 12252, Note_on_c, 0, 70, 64
2, 12259, Note_on_c, 0, 62, 52
2, 12264, Note_on_c, 0, 58, 48
2, 12265, Note_on_c, 0, 53, 49
2, 12284, Note_off_c, 0, 65, 64
2, 12289, Control_c, 0, 64, 127
2, 12289, Control_c, 0, 64, 127
2, 12321, Note_off_c, 0, 58, 64
2, 12363, Note_off_c, 0, 62, 64
2, 12367, Note_off_c, 0, 53, 64
2, 12423, Note_on_c, 0, 69, 63
2, 12439, Note_off_c, 0, 70, 64
2, 12553, Note_on_c, 0, 70, 53
2, 12575, Note_off_c, 0, 69, 64
2, 12606, Note_off_c, 0, 70, 64
2, 12608, Note_on_c, 0, 72, 63
2, 12608, Note_on_c, 0, 41, 45
2, 12622, Control_c, 0, 64, 0
2, 12622, Control_c, 0, 64, 0
2, 12675, Control_c, 0, 64, 127
2, 12675, Control_c, 0, 64, 127
2, 12726, Note_off_c, 0, 72, 64
2, 12741, Control_c, 0, 64, 0
2, 12741, Control_c, 0, 64, 0
2, 12746, Note_on_c, 0, 74, 39
2, 12775, Note_on_c, 0, 57, 42
2, 12775, Note_on_c, 0, 48, 36
2, 12780, Note_on_c, 0, 72, 58
2, 12787, Note_off_c, 0, 74, 64
2, 12831, Note_off_c, 0, 41, 64
2, 12853, Note_off_c, 0, 57, 64
2, 12856, Note_off_c, 0, 48, 64
2, 12949, Note_on_c, 0, 76, 46
2, 12949, Note_on_c, 0, 57, 32
2, 12949, Note_on_c, 0, 48, 37
2, 13048, Note_off_c, 0, 48, 64
2, 13048, Note_off_c, 0, 57, 64
2, 13060, Note_on_c, 0, 77, 35
2, 13078, Note_off_c, 0, 76, 64
2, 13105, Note_off_c, 0, 72, 64
2, 13119, Control_c, 0, 64, 127
2, 13119, Control_c, 0, 64, 127
2, 13128, Note_on_c, 0, 41, 48
2, 13129, Note_on_c, 0, 79, 49
2, 13135, Note_off_c, 0, 77, 64
2, 13260, Control_c, 0, 64, 0
2, 13260, Control_c, 0, 64, 0
2, 13272, Note_on_c, 0, 81, 48
2, 13274, Note_off_c, 0, 79, 64
2, 13312, Note_on_c, 0, 79, 55
2, 13312, Note_on_c, 0, 58, 40
2, 13312, Note_on_c, 0, 50, 32
2, 13327, Note_off_c, 0, 81, 64
2, 13351, Note_off_c, 0, 41, 64
2, 13387, Note_off_c, 0, 50, 64
2, 13405, Note_off_c, 0, 58, 64
2, 13449, Control_c, 0, 64, 127
2, 13449, Control_c, 0, 64, 127
2, 13496, Note_on_c, 0, 77, 55
2, 13496, Note_on_c, 0, 58, 36
2, 13496, Note_on_c, 0, 50, 29
2, 13517, Note_off_c, 0, 79, 64
2, 13570, Note_off_c, 0, 50, 64
2, 13587, Note_off_c, 0, 58, 64
2, 13588, Note_off_c, 0, 77, 64
2, 13596, Note_on_c, 0, 74, 31
2, 13651, Control_c, 0, 64, 0
2, 13651, Control_c, 0, 64, 0
2, 13657, Note_on_c, 0, 41, 48
2, 13664, Note_on_c, 0, 72, 50
2, 13680, Note_off_c, 0, 74, 64
2, 13710, Control_c, 0, 64, 127
2, 13710, Control_c, 0, 64, 127
2, 13776, Note_off_c, 0, 72, 64
2, 13778, Note_on_c, 0, 74, 36
2, 13787, Control_c, 0, 64, 0
2, 13787, Control_c, 0, 64, 0
2, 13820, Note_on_c, 0, 57, 27
2, 13820, Note_on_c, 0, 48, 40
2, 13831, Note_on_c, 0, 72, 53
2, 13840, Note_off_c, 0, 74, 64
2, 13880, Note_off_c, 0, 41, 64
2, 13905, Note_off_c, 0, 48, 64
2, 13934, Note_off_c, 0, 57, 64
2, 13981, Note_on_c, 0, 57, 28
2, 13984, Note_on_c, 0, 76, 44
2, 13984, Note_on_c, 0, 48, 36
2, 14001, Control_c, 0, 64, 127
2, 14001, Control_c, 0, 64, 127
2, 14058, Note_off_c, 0, 48, 64
2, 14095, Note_off_c, 0, 72, 64
2, 14102, Note_on_c, 0, 77, 35
2, 14106, Note_off_c, 0, 76, 64
2, 14114, Note_off_c, 0, 57, 64
2, 14148, Note_on_c, 0, 79, 52
2, 14154, Note_on_c, 0, 41, 52
2, 14158, Control_c, 0, 64, 0
2, 14158, Control_c, 0, 64, 0
2, 14164, Note_off_c, 0, 77, 64
2, 14172, Control_c, 0, 64, 127
2, 14172, Control_c, 0, 64, 127
2, 14217, Note_on_c, 0, 81, 52
2, 14226, Note_off_c, 0, 79, 64
2, 14261, Note_on_c, 0, 79, 56
2, 14278, Note_off_c, 0, 81, 64
2, 14307, Note_on_c, 0, 58, 29
2, 14311, Note_on_c, 0, 50, 24
2, 14311, Note_on_c, 0, 77, 67
2, 14322, Control_c, 0, 64, 0
2, 14322, Control_c, 0, 64, 0
2, 14328, Note_off_c, 0, 79, 64
2, 14367, Control_c, 0, 64, 127
2, 14367, Control_c, 0, 64, 127
2, 14377, Note_off_c, 0, 41, 64
2, 14415, Note_off_c, 0, 50, 64
2, 14452, Note_off_c, 0, 58, 64
2, 14471, Control_c, 0, 64, 0
2, 14471, Control_c, 0, 64, 0
2, 14476, Note_on_c, 0, 41, 37
2, 14517, Control_c, 0, 64, 127
2, 14517, Control_c, 0, 64, 127
2, 14565, Note_on_c, 0, 74, 49
2, 14603, Note_off_c, 0, 41, 64
2, 14603, Note_off_c, 0, 77, 64
2, 14635, Control_c, 0, 64, 0
2, 14635, Control_c, 0, 64, 0
2, 14653, Note_on_c, 0, 57, 31
2, 14656, Note_on_c, 0, 72, 54
2, 14656, Note_on_c, 0, 48, 32
2, 14671, Note_off_c, 0, 74, 64
2, 14691, Control_c, 0, 64, 127
2, 14691, Control_c, 0, 64, 127
2, 14738, Note_on_c, 0, 74, 51
2, 14756, Note_off_c, 0, 72, 64
2, 14797, Note_off_c, 0, 57, 64
2, 14808, Control_c, 0, 64, 0
2, 14808, Control_c, 0, 64, 0
2, 14814, Note_off_c, 0, 48, 64
2, 14814, Note_on_c, 0, 41, 55
2, 14828, Note_on_c, 0, 72, 53
2, 14830, Note_off_c, 0, 74, 64
2, 14858, Control_c, 0, 64, 127
2, 14858, Control_c, 0, 64, 127
2, 14959, Note_off_c, 0, 41, 64
2, 14972, Note_on_c, 0, 76, 44
2, 14975, Note_on_c, 0, 57, 46
2, 14975, Note_on_c, 0, 48, 49
2, 14989, Control_c, 0, 64, 0
2, 14989, Control_c, 0, 64, 0
2, 15011, Control_c, 0, 64, 127
2, 15011, Control_c, 0, 64, 127
2, 15018, Note_off_c, 0, 72, 64
2, 15057, Note_on_c, 0, 77, 51
2, 15084, Note_off_c, 0, 76, 64
2, 15091, Note_off_c, 0, 48, 64
2, 15133, Control_c, 0, 64, 0
2, 15133, Control_c, 0, 64, 0
2, 15139, Note_on_c, 0, 79, 52
2, 15146, Note_on_c, 0, 41, 45
2, 15168, Note_off_c, 0, 77, 64
2, 15172, Note_off_c, 0, 57, 64
2, 15178, Control_c, 0, 64, 127
2, 15178, Control_c, 0, 64, 127
2, 15212, Note_on_c, 0, 81, 49
2, 15224, Note_off_c, 0, 79, 64
2, 15250, Note_off_c, 0, 41, 64
2, 15284, Note_on_c, 0, 79, 49
2, 15293, Note_off_c, 0, 81, 64
2, 15299, Note_on_c, 0, 58, 54
2, 15311, Note_on_c, 0, 50, 44
2, 15316, Control_c, 0, 64, 0
2, 15316, Control_c, 0, 64, 0
2, 15320, Control_c, 0, 64, 127
2, 15320, Control_c, 0, 64, 127
2, 15329, Control_c, 0, 64, 127
2, 15329, Control_c, 0, 64, 127
2, 15336, Control_c, 0, 64, 127
2, 15336, Control_c, 0, 64, 127
2, 15340, Note_on_c, 0, 81, 53
2, 15346, Note_off_c, 0, 79, 64
2, 15364, Note_on_c, 0, 79, 43
2, 15385, Note_off_c, 0, 81, 64
2, 15408, Note_on_c, 0, 81, 51
2, 15415, Note_off_c, 0, 79, 64
2, 15432, Note_off_c, 0, 58, 64
2, 15433, Note_off_c, 0, 50, 64
2, 15434, Note_on_c, 0, 79, 39
2, 15449, Note_off_c, 0, 81, 64
2, 15465, Note_on_c, 0, 41, 41
2, 15466, Control_c, 0, 64, 0
2, 15466, Control_c, 0, 64, 0
2, 15468, Control_c, 0, 64, 0
2, 15468, Control_c, 0, 64, 0
2, 15472, Note_on_c, 0, 77, 71
2, 15472, Note_on_c, 0, 41, 48
2, 15480, Note_off_c, 0, 79, 64
2, 15481, Note_on_c, 0, 41, 41
2, 15484, Control_c, 0, 64, 0
2, 15484, Control_c, 0, 64, 0
2, 15516, Control_c, 0, 64, 127
2, 15516, Control_c, 0, 64, 127
2, 15538, Note_on_c, 0, 74, 44
2, 15562, Note_off_c, 0, 77, 64
2, 15612, Note_off_c, 0, 41, 64
2, 15615, Note_off_c, 0, 41, 64
2, 15623, Note_on_c, 0, 57, 49
2, 15623, Note_on_c, 0, 48, 49
2, 15630, Note_on_c, 0, 72, 59
2, 15631, Note_off_c, 0, 41, 64
2, 15633, Note_off_c, 0, 74, 64
2, 15640, Control_c, 0, 64, 0
2, 15640, Control_c, 0, 64, 0
2, 15673, Control_c, 0, 64, 127
2, 15673, Control_c, 0, 64, 127
2, 15712, Note_on_c, 0, 74, 39
2, 15721, Note_off_c, 0, 72, 64
2, 15790, Note_off_c, 0, 48, 64
2, 15790, Note_on_c, 0, 72, 52
2, 15796, Note_on_c, 0, 41, 52
2, 15797, Control_c, 0, 64, 0
2, 15797, Control_c, 0, 64, 0
2, 15804, Note_off_c, 0, 74, 64
2, 15823, Control_c, 0, 64, 127
2, 15823, Control_c, 0, 64, 127
2, 15833, Note_off_c, 0, 57, 64
2, 15917, Note_off_c, 0, 41, 64
2, 15962, Note_on_c, 0, 76, 49
2, 15962, Note_on_c, 0, 48, 49
2, 15975, Note_on_c, 0, 57, 48
2, 15987, Note_off_c, 0, 72, 64
2, 16070, Note_off_c, 0, 48, 64
2, 16076, Note_on_c, 0, 77, 52
2, 16083, Note_off_c, 0, 57, 64
2, 16089, Note_off_c, 0, 76, 64
2, 16166, Note_off_c, 0, 77, 64
2, 16193, Note_on_c, 0, 48, 24
2, 16193, Note_on_c, 0, 58, 44
2, 16197, Note_on_c, 0, 52, 46
2, 16203, Note_on_c, 0, 79, 39
2, 16297, Note_on_c, 0, 81, 52
2, 16304, Note_off_c, 0, 79, 64
2, 16366, Note_off_c, 0, 52, 64
2, 16370, Note_on_c, 0, 79, 63
2, 16377, Note_off_c, 0, 81, 64
2, 16379, Note_off_c, 0, 58, 64
2, 16445, Note_on_c, 0, 77, 59
2, 16461, Note_on_c, 0, 53, 35
2, 16469, Note_off_c, 0, 79, 64
2, 16472, Note_on_c, 0, 57, 28
2, 16485, Control_c, 0, 64, 0
2, 16485, Control_c, 0, 64, 0
2, 16547, Control_c, 0, 64, 127
2, 16547, Control_c, 0, 64, 127
2, 16612, Note_off_c, 0, 77, 64
2, 16619, Note_on_c, 0, 67, 62
2, 16703, Note_on_c, 0, 77, 62
2, 16720, Note_off_c, 0, 67, 64
2, 16720, Note_off_c, 0, 57, 64
2, 16728, Note_off_c, 0, 53, 64
2, 16743, Note_off_c, 0, 48, 64
2, 16789, Note_off_c, 0, 77, 64
2, 16794, Note_on_c, 0, 66, 75
2, 16869, Note_on_c, 0, 77, 66
2, 16887, Note_off_c, 0, 66, 64
2, 16906, Note_off_c, 0, 77, 64
2, 16932, Note_on_c, 0, 77, 72
2, 16977, Note_on_c, 0, 65, 74
2, 16977, Control_c, 0, 64, 0
2, 16977, Control_c, 0, 64, 0
2, 16985, Note_off_c, 0, 77, 64
2, 16990, Note_on_c, 0, 41, 66
2, 17028, Control_c, 0, 64, 127
2, 17028, Control_c, 0, 64, 127
2, 17052, Note_off_c, 0, 65, 64
2, 17077, Note_off_c, 0, 41, 64
2, 17123, Note_on_c, 0, 65, 74
2, 17135, Control_c, 0, 64, 0
2, 17135, Control_c, 0, 64, 0
2, 17165, Note_on_c, 0, 67, 87
2, 17172, Note_on_c, 0, 63, 48
2, 17172, Note_on_c, 0, 53, 44
2, 17179, Note_on_c, 0, 60, 50
2, 17185, Note_off_c, 0, 65, 64
2, 17210, Note_off_c, 0, 53, 64
2, 17210, Note_off_c, 0, 63, 64
2, 17217, Note_off_c, 0, 60, 64
2, 17221, Control_c, 0, 64, 127
2, 17221, Control_c, 0, 64, 127
2, 17318, Control_c, 0, 64, 0
2, 17318, Control_c, 0, 64, 0
2, 17333, Note_on_c, 0, 69, 74
2, 17337, Note_on_c, 0, 53, 32
2, 17342, Note_on_c, 0, 63, 41
2, 17342, Note_on_c, 0, 60, 41
2, 17355, Note_off_c, 0, 67, 64
2, 17366, Note_off_c, 0, 60, 64
2, 17371, Note_off_c, 0, 53, 64
2, 17376, Note_off_c, 0, 63, 64
2, 17378, Control_c, 0, 64, 127
2, 17378, Control_c, 0, 64, 127
2, 17482, Note_on_c, 0, 46, 78
2, 17491, Note_on_c, 0, 70, 78
2, 17496, Control_c, 0, 64, 0
2, 17496, Control_c, 0, 64, 0
2, 17520, Note_off_c, 0, 69, 64
2, 17520, Control_c, 0, 64, 127
2, 17520, Control_c, 0, 64, 127
2, 17560, Note_off_c, 0, 70, 64
2, 17569, Note_off_c, 0, 46, 64
2, 17606, Note_on_c, 0, 72, 72
2, 17644, Note_on_c, 0, 58, 49
2, 17644, Note_on_c, 0, 53, 47
2, 17649, Note_on_c, 0, 62, 36
2, 17653, Note_on_c, 0, 74, 75
2, 17659, Control_c, 0, 64, 0
2, 17659, Control_c, 0, 64, 0
2, 17670, Note_off_c, 0, 72, 64
2, 17678, Note_off_c, 0, 62, 64
2, 17685, Control_c, 0, 64, 127
2, 17685, Control_c, 0, 64, 127
2, 17689, Note_off_c, 0, 53, 64
2, 17690, Note_off_c, 0, 58, 64
2, 17807, Note_on_c, 0, 75, 75
2, 17808, Note_on_c, 0, 46, 70
2, 17815, Control_c, 0, 64, 0
2, 17815, Control_c, 0, 64, 0
2, 17829, Note_off_c, 0, 74, 64
2, 17846, Control_c, 0, 64, 127
2, 17846, Control_c, 0, 64, 127
2, 17895, Note_off_c, 0, 46, 64
2, 17905, Note_on_c, 0, 77, 71
2, 17918, Note_off_c, 0, 75, 64
2, 17962, Note_on_c, 0, 39, 75
2, 17968, Note_on_c, 0, 51, 75
2, 17968, Control_c, 0, 64, 0
2, 17968, Control_c, 0, 64, 0
2, 17976, Note_on_c, 0, 79, 84
2, 18001, Note_off_c, 0, 77, 64
2, 18013, Control_c, 0, 64, 127
2, 18013, Control_c, 0, 64, 127
2, 18071, Note_on_c, 0, 81, 70
2, 18072, Note_on_c, 0, 55, 50
2, 18092, Note_off_c, 0, 79, 64
2, 18120, Note_on_c, 0, 58, 57
2, 18168, Note_on_c, 0, 63, 55
2, 18186, Note_on_c, 0, 84, 84
2, 18189, Control_c, 0, 64, 0
2, 18189, Control_c, 0, 64, 0
2, 18201, Note_off_c, 0, 81, 64
2, 18202, Note_off_c, 0, 39, 64
2, 18206, Note_off_c, 0, 55, 64
2, 18208, Note_off_c, 0, 51, 64
2, 18215, Control_c, 0, 64, 127
2, 18215, Control_c, 0, 64, 127
2, 18216, Note_on_c, 0, 67, 63
2, 18220, Note_on_c, 0, 82, 88
2, 18225, Note_off_c, 0, 84, 64
2, 18242, Note_off_c, 0, 58, 64
2, 18244, Note_on_c, 0, 84, 72
2, 18253, Note_off_c, 0, 82, 64
2, 18268, Note_off_c, 0, 63, 64
2, 18268, Note_on_c, 0, 82, 78
2, 18272, Note_off_c, 0, 84, 64
2, 18292, Note_on_c, 0, 84, 70
2, 18293, Note_off_c, 0, 67, 64
2, 18298, Note_off_c, 0, 82, 64
2, 18320, Note_on_c, 0, 82, 71
2, 18340, Note_off_c, 0, 84, 64
2, 18360, Note_on_c, 0, 81, 78
2, 18374, Note_off_c, 0, 82, 64
2, 18417, Note_off_c, 0, 81, 64
2, 18444, Note_on_c, 0, 79, 78
2, 18498, Note_off_c, 0, 79, 64
2, 18506, Note_on_c, 0, 77, 70
2, 18511, Control_c, 0, 64, 0
2, 18511, Control_c, 0, 64, 0
2, 18524, Note_on_c, 0, 46, 70
2, 18533, Note_on_c, 0, 82, 70
2, 18552, Note_off_c, 0, 77, 64
2, 18558, Note_off_c, 0, 82, 64
2, 18563, Control_c, 0, 64, 127
2, 18563, Control_c, 0, 64, 127
2, 18611, Note_off_c, 0, 46, 64
2, 18647, Note_on_c, 0, 82, 67
2, 18670, Control_c, 0, 64, 0
2, 18670, Control_c, 0, 64, 0
2, 18679, Note_off_c, 0, 82, 64
2, 18680, Note_on_c, 0, 58, 46
2, 18684, Note_on_c, 0, 74, 72
2, 18685, Note_on_c, 0, 62, 44
2, 18685, Note_on_c, 0, 53, 29
2, 18722, Note_off_c, 0, 58, 64
2, 18724, Control_c, 0, 64, 127
2, 18724, Control_c, 0, 64, 127
2, 18729, Note_off_c, 0, 53, 64
2, 18736, Note_off_c, 0, 62, 64
2, 18836, Note_on_c, 0, 62, 41
2, 18836, Note_on_c, 0, 53, 35
2, 18837, Note_on_c, 0, 58, 45
2, 18861, Note_off_c, 0, 62, 64
2, 18866, Note_off_c, 0, 58, 64
2, 18866, Note_off_c, 0, 53, 64
2, 18958, Note_on_c, 0, 75, 71
2, 18975, Note_off_c, 0, 74, 64
2, 18982, Control_c, 0, 64, 0
2, 18982, Control_c, 0, 64, 0
2, 18990, Note_on_c, 0, 41, 71
2, 19001, Note_on_c, 0, 79, 78
2, 19018, Note_off_c, 0, 75, 64
2, 19031, Note_off_c, 0, 79, 64
2, 19032, Control_c, 0, 64, 127
2, 19032, Control_c, 0, 64, 127
2, 19077, Note_off_c, 0, 41, 64
2, 19124, Note_on_c, 0, 79, 66
2, 19130, Control_c, 0, 64, 0
2, 19130, Control_c, 0, 64, 0
2, 19155, Note_on_c, 0, 53, 41
2, 19160, Note_off_c, 0, 79, 64
2, 19160, Note_on_c, 0, 69, 62
2, 19163, Note_on_c, 0, 63, 66
2, 19163, Note_on_c, 0, 60, 50
2, 19186, Control_c, 0, 64, 127
2, 19186, Control_c, 0, 64, 127
2, 19198, Note_off_c, 0, 53, 64
2, 19200, Note_off_c, 0, 60, 64
2, 19200, Note_off_c, 0, 63, 64
2, 19304, Note_on_c, 0, 53, 52
2, 19312, Note_on_c, 0, 63, 52
2, 19313, Note_on_c, 0, 60, 48
2, 19319, Control_c, 0, 64, 0
2, 19319, Control_c, 0, 64, 0
2, 19335, Control_c, 0, 64, 127
2, 19335, Control_c, 0, 64, 127
2, 19344, Note_off_c, 0, 53, 64
2, 19352, Note_off_c, 0, 60, 64
2, 19355, Note_off_c, 0, 63, 64
2, 19419, Note_on_c, 0, 70, 58
2, 19433, Note_off_c, 0, 69, 64
2, 19452, Note_on_c, 0, 46, 60
2, 19457, Control_c, 0, 64, 0
2, 19457, Control_c, 0, 64, 0
2, 19465, Note_on_c, 0, 74, 81
2, 19486, Note_off_c, 0, 70, 64
2, 19491, Note_off_c, 0, 74, 64
2, 19503, Control_c, 0, 64, 127
2, 19503, Control_c, 0, 64, 127
2, 19539, Note_off_c, 0, 46, 64
2, 19576, Note_on_c, 0, 74, 51
2, 19597, Control_c, 0, 64, 0
2, 19597, Control_c, 0, 64, 0
2, 19608, Note_on_c, 0, 58, 33
2, 19612, Note_on_c, 0, 62, 19
2, 19612, Note_on_c, 0, 53, 25
2, 19616, Note_on_c, 0, 64, 67
2, 19619, Note_off_c, 0, 74, 64
2, 19660, Control_c, 0, 64, 127
2, 19660, Control_c, 0, 64, 127
2, 19663, Note_off_c, 0, 58, 64
2, 19665, Note_off_c, 0, 53, 64
2, 19667, Note_off_c, 0, 62, 64
2, 19763, Note_on_c, 0, 62, 28
2, 19767, Note_on_c, 0, 58, 36
2, 19773, Note_on_c, 0, 53, 25
2, 19796, Note_off_c, 0, 62, 64
2, 19800, Note_off_c, 0, 53, 64
2, 19800, Note_off_c, 0, 58, 64
2, 19920, Note_on_c, 0, 65, 59
2, 19921, Control_c, 0, 64, 0
2, 19921, Control_c, 0, 64, 0
2, 19930, Note_on_c, 0, 41, 59
2, 19944, Note_off_c, 0, 64, 64
2, 19973, Control_c, 0, 64, 127
2, 19973, Control_c, 0, 64, 127
2, 20017, Note_off_c, 0, 41, 64
2, 20028, Note_on_c, 0, 69, 64
2, 20043, Note_off_c, 0, 65, 64
2, 20062, Control_c, 0, 64, 0
2, 20062, Control_c, 0, 64, 0
2, 20068, Note_on_c, 0, 53, 33
2, 20076, Note_on_c, 0, 72, 74
2, 20076, Note_on_c, 0, 63, 36
2, 20076, Note_on_c, 0, 60, 36
2, 20101, Control_c, 0, 64, 127
2, 20101, Control_c, 0, 64, 127
2, 20104, Note_off_c, 0, 60, 64
2, 20108, Note_off_c, 0, 63, 64
2, 20108, Note_off_c, 0, 53, 64
2, 20160, Note_on_c, 0, 75, 44
2, 20163, Note_off_c, 0, 69, 64
2, 20197, Note_off_c, 0, 72, 64
2, 20220, Note_on_c, 0, 79, 74
2, 20222, Note_on_c, 0, 53, 25
2, 20226, Note_on_c, 0, 63, 28
2, 20232, Note_on_c, 0, 60, 24
2, 20251, Note_off_c, 0, 63, 64
2, 20252, Note_off_c, 0, 75, 64
2, 20253, Note_off_c, 0, 60, 64
2, 20255, Note_off_c, 0, 53, 64
2, 20296, Note_on_c, 0, 77, 74
2, 20304, Note_off_c, 0, 79, 64
2, 20326, Note_off_c, 0, 77, 64
2, 20350, Note_on_c, 0, 77, 74
2, 20376, Note_on_c, 0, 46, 64
2, 20379, Control_c, 0, 64, 0
2, 20379, Control_c, 0, 64, 0
2, 20393, Note_on_c, 0, 86, 68
2, 20415, Control_c, 0, 64, 127
2, 20415, Control_c, 0, 64, 127
2, 20429, Note_off_c, 0, 77, 64
2, 20463, Note_off_c, 0, 46, 64
2, 20493, Note_on_c, 0, 84, 64
2, 20505, Note_off_c, 0, 86, 64
2, 20540, Note_on_c, 0, 58, 20
2, 20544, Note_on_c, 0, 62, 43
2, 20544, Note_on_c, 0, 53, 29
2, 20550, Note_on_c, 0, 82, 70
2, 20552, Control_c, 0, 64, 0
2, 20552, Control_c, 0, 64, 0
2, 20561, Note_off_c, 0, 84, 64
2, 20572, Note_on_c, 0, 84, 68
2, 20576, Note_off_c, 0, 62, 64
2, 20580, Note_off_c, 0, 53, 64
2, 20581, Control_c, 0, 64, 127
2, 20581, Control_c, 0, 64, 127
2, 20583, Note_off_c, 0, 58, 64
2, 20596, Note_off_c, 0, 82, 64
2, 20611, Note_on_c, 0, 82, 45
2, 20628, Note_off_c, 0, 84, 64
2, 20644, Note_on_c, 0, 79, 70
2, 20678, Note_off_c, 0, 82, 64
2, 20710, Note_on_c, 0, 77, 75
2, 20721, Control_c, 0, 64, 0
2, 20721, Control_c, 0, 64, 0
2, 20726, Note_off_c, 0, 79, 64
2, 20726, Note_on_c, 0, 53, 41
2, 20727, Note_on_c, 0, 62, 41
2, 20727, Note_on_c, 0, 58, 41
2, 20755, Note_off_c, 0, 58, 64
2, 20755, Note_off_c, 0, 62, 64
2, 20755, Control_c, 0, 64, 127
2, 20755, Control_c, 0, 64, 127
2, 20761, Note_off_c, 0, 53, 64
2, 20830, Note_on_c, 0, 79, 63
2, 20833, Note_off_c, 0, 77, 64
2, 20860, Control_c, 0, 64, 0
2, 20860, Control_c, 0, 64, 0
2, 20864, Note_on_c, 0, 46, 66
2, 20866, Note_on_c, 0, 82, 75
2, 20877, Note_off_c, 0, 79, 64
2, 20890, Note_off_c, 0, 82, 64
2, 20910, Control_c, 0, 64, 127
2, 20910, Control_c, 0, 64, 127
2, 20951, Note_off_c, 0, 46, 64
2, 20977, Note_on_c, 0, 82, 74
2, 21007, Note_off_c, 0, 82, 64
2, 21015, Control_c, 0, 64, 0
2, 21015, Control_c, 0, 64, 0
2, 21025, Note_on_c, 0, 69, 67
2, 21039, Note_on_c, 0, 63, 46
2, 21040, Note_on_c, 0, 60, 41
2, 21040, Note_on_c, 0, 53, 33
2, 21069, Control_c, 0, 64, 127
2, 21069, Control_c, 0, 64, 127
2, 21071, Note_off_c, 0, 60, 64
2, 21083, Note_off_c, 0, 53, 64
2, 21084, Note_off_c, 0, 63, 64
2, 21178, Control_c, 0, 64, 0
2, 21178, Control_c, 0, 64, 0
2, 21182, Note_on_c, 0, 63, 40
2, 21184, Note_on_c, 0, 60, 31
2, 21187, Note_on_c, 0, 53, 33
2, 21213, Note_off_c, 0, 60, 64
2, 21216, Note_off_c, 0, 63, 64
2, 21218, Note_off_c, 0, 53, 64
2, 21220, Control_c, 0, 64, 127
2, 21220, Control_c, 0, 64, 127
2, 21276, Note_on_c, 0, 70, 58
2, 21302, Note_on_c, 0, 74, 63
2, 21312, Note_off_c, 0, 69, 64
2, 21318, Note_off_c, 0, 70, 64
2, 21330, Control_c, 0, 64, 0
2, 21330, Control_c, 0, 64, 0
2, 21332, Note_on_c, 0, 77, 72
2, 21332, Note_on_c, 0, 46, 63
2, 21354, Note_off_c, 0, 74, 64
2, 21356, Note_off_c, 0, 77, 64
2, 21409, Control_c, 0, 64, 127
2, 21409, Control_c, 0, 64, 127
2, 21419, Note_off_c, 0, 46, 64
2, 21452, Control_c, 0, 64, 0
2, 21452, Control_c, 0, 64, 0
2, 21470, Note_on_c, 0, 77, 63
2, 21500, Note_on_c, 0, 58, 23
2, 21504, Note_off_c, 0, 77, 64
2, 21504, Note_on_c, 0, 64, 66
2, 21504, Note_on_c, 0, 53, 36
2, 21508, Note_on_c, 0, 62, 18
2, 21523, Note_off_c, 0, 58, 64
2, 21527, Note_off_c, 0, 53, 64
2, 21533, Note_off_c, 0, 62, 64
2, 21536, Control_c, 0, 64, 127
2, 21536, Control_c, 0, 64, 127
2, 21658, Note_on_c, 0, 62, 36
2, 21659, Note_on_c, 0, 58, 46
2, 21665, Note_on_c, 0, 53, 36
2, 21684, Note_off_c, 0, 62, 64
2, 21687, Note_off_c, 0, 58, 64
2, 21688, Note_off_c, 0, 53, 64
2, 21815, Note_on_c, 0, 65, 68
2, 21819, Note_off_c, 0, 64, 64
2, 21829, Control_c, 0, 64, 0
2, 21829, Control_c, 0, 64, 0
2, 21833, Note_on_c, 0, 41, 58
2, 21866, Control_c, 0, 64, 127
2, 21866, Control_c, 0, 64, 127
2, 21907, Note_on_c, 0, 69, 60
2, 21920, Note_off_c, 0, 41, 64
2, 21946, Note_off_c, 0, 65, 64
2, 21952, Note_on_c, 0, 63, 36
2, 21960, Note_on_c, 0, 53, 46
2, 21964, Note_on_c, 0, 72, 51
2, 21978, Note_off_c, 0, 63, 64
2, 21988, Note_off_c, 0, 53, 64
2, 22019, Note_off_c, 0, 69, 64
2, 22028, Note_on_c, 0, 75, 63
2, 22055, Note_off_c, 0, 72, 64
2, 22114, Note_on_c, 0, 74, 55
2, 22127, Note_on_c, 0, 63, 23
2, 22131, Note_on_c, 0, 53, 46
2, 22133, Note_off_c, 0, 75, 64
2, 22136, Note_on_c, 0, 57, 46
2, 22140, Note_on_c, 0, 75, 63
2, 22147, Note_off_c, 0, 74, 64
2, 22159, Note_off_c, 0, 63, 64
2, 22164, Note_off_c, 0, 57, 64
2, 22172, Note_off_c, 0, 53, 64
2, 22184, Note_on_c, 0, 74, 53
2, 22202, Note_off_c, 0, 75, 64
2, 22223, Note_on_c, 0, 72, 68
2, 22236, Note_off_c, 0, 74, 64
2, 22299, Note_on_c, 0, 74, 75
2, 22302, Note_off_c, 0, 72, 64
2, 22303, Note_on_c, 0, 46, 59
2, 22316, Control_c, 0, 64, 0
2, 22316, Control_c, 0, 64, 0
2, 22359, Control_c, 0, 64, 127
2, 22359, Control_c, 0, 64, 127
2, 22403, Note_on_c, 0, 65, 56
2, 22441, Note_off_c, 0, 74, 64
2, 22464, Note_on_c, 0, 70, 75
2, 22472, Control_c, 0, 64, 0
2, 22472, Control_c, 0, 64, 0
2, 22478, Note_on_c, 0, 62, 49
2, 22478, Note_on_c, 0, 58, 51
2, 22478, Note_on_c, 0, 53, 51
2, 22498, Note_off_c, 0, 46, 64
2, 22521, Control_c, 0, 64, 127
2, 22521, Control_c, 0, 64, 127
2, 22532, Note_off_c, 0, 65, 64
2, 22600, Note_off_c, 0, 62, 64
2, 22601, Note_off_c, 0, 58, 64
2, 22608, Note_off_c, 0, 53, 64
2, 22640, Note_on_c, 0, 69, 53
2, 22650, Note_off_c, 0, 70, 64
2, 22755, Note_on_c, 0, 70, 52
2, 22781, Note_off_c, 0, 69, 64
2, 22819, Control_c, 0, 64, 0
2, 22819, Control_c, 0, 64, 0
2, 22831, Note_on_c, 0, 41, 61
2, 22831, Note_on_c, 0, 72, 58
2, 22857, Note_off_c, 0, 70, 64
2, 22887, Control_c, 0, 64, 127
2, 22887, Control_c, 0, 64, 127
2, 22956, Note_on_c, 0, 74, 52
2, 22970, Note_off_c, 0, 72, 64
2, 22991, Control_c, 0, 64, 0
2, 22991, Control_c, 0, 64, 0
2, 22996, Note_on_c, 0, 48, 44
2, 22996, Note_on_c, 0, 57, 41
2, 23003, Note_off_c, 0, 74, 64
2, 23003, Note_on_c, 0, 72, 57
2, 23031, Control_c, 0, 64, 127
2, 23031, Control_c, 0, 64, 127
2, 23054, Note_off_c, 0, 41, 64
2, 23064, Note_off_c, 0, 48, 64
2, 23075, Note_off_c, 0, 57, 64
2, 23152, Note_on_c, 0, 76, 55
2, 23158, Note_on_c, 0, 57, 27
2, 23160, Control_c, 0, 64, 0
2, 23160, Control_c, 0, 64, 0
2, 23162, Note_on_c, 0, 48, 41
2, 23170, Note_off_c, 0, 72, 64
2, 23187, Control_c, 0, 64, 127
2, 23187, Control_c, 0, 64, 127
2, 23265, Note_on_c, 0, 77, 49
2, 23278, Note_off_c, 0, 57, 64
2, 23278, Note_off_c, 0, 76, 64
2, 23282, Note_off_c, 0, 48, 64
2, 23314, Control_c, 0, 64, 0
2, 23314, Control_c, 0, 64, 0
2, 23320, Note_on_c, 0, 79, 57
2, 23321, Note_on_c, 0, 41, 57
2, 23334, Note_off_c, 0, 77, 64
2, 23364, Control_c, 0, 64, 127
2, 23364, Control_c, 0, 64, 127
2, 23419, Note_on_c, 0, 81, 45
2, 23429, Note_off_c, 0, 79, 64
2, 23465, Note_on_c, 0, 79, 57
2, 23475, Note_on_c, 0, 58, 55
2, 23479, Note_off_c, 0, 81, 64
2, 23479, Note_on_c, 0, 50, 44
2, 23479, Control_c, 0, 64, 0
2, 23479, Control_c, 0, 64, 0
2, 23513, Control_c, 0, 64, 127
2, 23513, Control_c, 0, 64, 127
2, 23544, Note_off_c, 0, 41, 64
2, 23560, Note_off_c, 0, 50, 64
2, 23566, Note_off_c, 0, 58, 64
2, 23632, Control_c, 0, 64, 0
2, 23632, Control_c, 0, 64, 0
2, 23638, Note_on_c, 0, 77, 53
2, 23638, Note_on_c, 0, 58, 32
2, 23646, Note_on_c, 0, 50, 42
2, 23674, Note_off_c, 0, 79, 64
2, 23675, Control_c, 0, 64, 127
2, 23675, Control_c, 0, 64, 127
2, 23724, Note_off_c, 0, 50, 64
2, 23736, Note_off_c, 0, 58, 64
2, 23756, Note_on_c, 0, 74, 48
2, 23779, Note_off_c, 0, 77, 64
2, 23790, Note_on_c, 0, 41, 55
2, 23805, Control_c, 0, 64, 0
2, 23805, Control_c, 0, 64, 0
2, 23812, Note_on_c, 0, 72, 59
2, 23825, Note_off_c, 0, 74, 64
2, 23842, Control_c, 0, 64, 127
2, 23842, Control_c, 0, 64, 127
2, 23917, Note_on_c, 0, 74, 49
2, 23923, Note_off_c, 0, 72, 64
2, 23953, Note_on_c, 0, 48, 48
2, 23954, Control_c, 0, 64, 0
2, 23954, Control_c, 0, 64, 0
2, 23962, Note_on_c, 0, 57, 31
2, 23976, Note_on_c, 0, 72, 53
2, 23992, Note_off_c, 0, 74, 64
2, 23993, Control_c, 0, 64, 127
2, 23993, Control_c, 0, 64, 127
2, 24013, Note_off_c, 0, 41, 64
2, 24027, Note_off_c, 0, 48, 64
2, 24043, Note_off_c, 0, 57, 64
2, 24120, Note_on_c, 0, 76, 45
2, 24120, Note_on_c, 0, 57, 37
2, 24124, Note_on_c, 0, 48, 42
2, 24143, Note_off_c, 0, 72, 64
2, 24214, Note_on_c, 0, 77, 50
2, 24215, Note_off_c, 0, 48, 64
2, 24228, Note_off_c, 0, 76, 64
2, 24229, Note_off_c, 0, 57, 64
2, 24278, Control_c, 0, 64, 0
2, 24278, Control_c, 0, 64, 0
2, 24284, Note_on_c, 0, 79, 44
2, 24296, Note_on_c, 0, 41, 50
2, 24304, Note_off_c, 0, 77, 64
2, 24319, Control_c, 0, 64, 127
2, 24319, Control_c, 0, 64, 127
2, 24340, Note_on_c, 0, 81, 48
2, 24354, Note_off_c, 0, 79, 64
2, 24389, Note_on_c, 0, 79, 50
2, 24404, Note_off_c, 0, 81, 64
2, 24437, Note_on_c, 0, 58, 50
2, 24441, Control_c, 0, 64, 0
2, 24441, Control_c, 0, 64, 0
2, 24444, Note_on_c, 0, 50, 42
2, 24447, Note_on_c, 0, 77, 49
2, 24460, Note_off_c, 0, 79, 64
2, 24478, Control_c, 0, 64, 127
2, 24478, Control_c, 0, 64, 127
2, 24519, Note_off_c, 0, 41, 64
2, 24530, Note_off_c, 0, 58, 64
2, 24535, Note_off_c, 0, 50, 64
2, 24597, Note_on_c, 0, 41, 41
2, 24686, Note_on_c, 0, 74, 52
2, 24709, Note_off_c, 0, 77, 64
2, 24748, Note_off_c, 0, 41, 64
2, 24778, Note_on_c, 0, 72, 55
2, 24781, Note_on_c, 0, 57, 41
2, 24786, Note_off_c, 0, 74, 64
2, 24787, Control_c, 0, 64, 0
2, 24787, Control_c, 0, 64, 0
2, 24794, Note_on_c, 0, 48, 28
2, 24822, Control_c, 0, 64, 127
2, 24822, Control_c, 0, 64, 127
2, 24870, Note_on_c, 0, 74, 41
2, 24888, Note_off_c, 0, 72, 64
2, 24921, Note_off_c, 0, 57, 64
2, 24932, Control_c, 0, 64, 0
2, 24932, Control_c, 0, 64, 0
2, 24939, Note_off_c, 0, 48, 64
2, 24945, Note_on_c, 0, 72, 57
2, 24945, Note_on_c, 0, 41, 45
2, 24954, Note_off_c, 0, 74, 64
2, 24990, Control_c, 0, 64, 127
2, 24990, Control_c, 0, 64, 127
2, 25093, Note_off_c, 0, 41, 64
2, 25104, Note_on_c, 0, 76, 55
2, 25108, Note_on_c, 0, 57, 29
2, 25108, Note_on_c, 0, 48, 40
2, 25122, Note_off_c, 0, 72, 64
2, 25188, Note_on_c, 0, 77, 52
2, 25212, Note_off_c, 0, 76, 64
2, 25263, Note_off_c, 0, 48, 64
2, 25271, Note_on_c, 0, 79, 53
2, 25275, Control_c, 0, 64, 0
2, 25275, Control_c, 0, 64, 0
2, 25279, Note_on_c, 0, 41, 52
2, 25285, Note_off_c, 0, 57, 64
2, 25294, Note_off_c, 0, 77, 64
2, 25323, Control_c, 0, 64, 127
2, 25323, Control_c, 0, 64, 127
2, 25347, Note_on_c, 0, 81, 52
2, 25365, Note_off_c, 0, 79, 64
2, 25411, Note_off_c, 0, 41, 64
2, 25428, Note_on_c, 0, 58, 50
2, 25431, Note_on_c, 0, 79, 47
2, 25432, Note_on_c, 0, 50, 28
2, 25435, Control_c, 0, 64, 0
2, 25435, Control_c, 0, 64, 0
2, 25445, Note_off_c, 0, 81, 64
2, 25464, Control_c, 0, 64, 127
2, 25464, Control_c, 0, 64, 127
2, 25484, Note_on_c, 0, 81, 53
2, 25487, Note_off_c, 0, 79, 64
2, 25508, Note_on_c, 0, 79, 48
2, 25529, Note_off_c, 0, 81, 64
2, 25536, Note_off_c, 0, 50, 64
2, 25552, Note_off_c, 0, 58, 64
2, 25552, Note_on_c, 0, 81, 57
2, 25559, Note_off_c, 0, 79, 64
2, 25578, Note_on_c, 0, 79, 44
2, 25593, Note_off_c, 0, 81, 64
2, 25609, Note_on_c, 0, 41, 41
2, 25612, Note_on_c, 0, 77, 52
2, 25612, Control_c, 0, 64, 0
2, 25612, Control_c, 0, 64, 0
2, 25624, Note_off_c, 0, 79, 64
2, 25646, Control_c, 0, 64, 127
2, 25646, Control_c, 0, 64, 127
2, 25692, Note_on_c, 0, 74, 41
2, 25718, Note_off_c, 0, 77, 64
2, 25759, Note_off_c, 0, 41, 64
2, 25782, Note_on_c, 0, 72, 61
2, 25785, Note_on_c, 0, 57, 39
2, 25785, Note_on_c, 0, 48, 39
2, 25785, Control_c, 0, 64, 0
2, 25785, Control_c, 0, 64, 0
2, 25793, Note_off_c, 0, 74, 64
2, 25824, Control_c, 0, 64, 127
2, 25824, Control_c, 0, 64, 127
2, 25878, Note_on_c, 0, 74, 48
2, 25890, Note_off_c, 0, 72, 64
2, 25933, Note_off_c, 0, 48, 64
2, 25957, Note_on_c, 0, 72, 53
2, 25959, Note_on_c, 0, 41, 57
2, 25963, Note_off_c, 0, 57, 64
2, 25972, Note_off_c, 0, 74, 64
2, 25978, Control_c, 0, 64, 0
2, 25978, Control_c, 0, 64, 0
2, 25999, Control_c, 0, 64, 127
2, 25999, Control_c, 0, 64, 127
2, 26126, Note_off_c, 0, 41, 64
2, 26135, Note_on_c, 0, 76, 50
2, 26140, Note_on_c, 0, 48, 44
2, 26149, Note_on_c, 0, 57, 29
2, 26154, Control_c, 0, 64, 0
2, 26154, Control_c, 0, 64, 0
2, 26158, Note_off_c, 0, 72, 64
2, 26169, Control_c, 0, 64, 127
2, 26169, Control_c, 0, 64, 127
2, 26230, Note_on_c, 0, 77, 44
2, 26232, Note_off_c, 0, 48, 64
2, 26241, Note_off_c, 0, 57, 64
2, 26260, Note_off_c, 0, 76, 64
2, 26328, Note_on_c, 0, 48, 41
2, 26333, Note_on_c, 0, 79, 61
2, 26335, Note_on_c, 0, 58, 42
2, 26341, Note_on_c, 0, 52, 33
2, 26352, Note_off_c, 0, 77, 64
2, 26382, Control_c, 0, 64, 0
2, 26382, Control_c, 0, 64, 0
2, 26413, Control_c, 0, 64, 127
2, 26413, Control_c, 0, 64, 127
2, 26448, Note_on_c, 0, 81, 52
2, 26460, Note_off_c, 0, 79, 64
2, 26518, Note_off_c, 0, 52, 64
2, 26526, Note_off_c, 0, 58, 64
2, 26526, Note_on_c, 0, 79, 50
2, 26541, Note_off_c, 0, 81, 64
2, 26604, Note_on_c, 0, 57, 22
2, 26606, Note_on_c, 0, 77, 53
2, 26608, Note_on_c, 0, 53, 29
2, 26623, Note_off_c, 0, 79, 64
2, 26654, Control_c, 0, 64, 0
2, 26654, Control_c, 0, 64, 0
2, 26697, Control_c, 0, 64, 127
2, 26697, Control_c, 0, 64, 127
2, 26796, Note_on_c, 0, 67, 57
2, 26830, Note_off_c, 0, 48, 64
2, 26833, Note_off_c, 0, 53, 64
2, 26835, Note_off_c, 0, 77, 64
2, 26838, Note_off_c, 0, 57, 64
2, 26888, Note_on_c, 0, 77, 76
2, 26911, Note_off_c, 0, 67, 64
2, 26980, Note_on_c, 0, 66, 87
2, 27006, Note_off_c, 0, 77, 64
2, 27041, Note_on_c, 0, 77, 78
2, 27058, Note_off_c, 0, 66, 64
2, 27084, Note_off_c, 0, 77, 64
2, 27115, Note_on_c, 0, 77, 76
2, 27156, Note_on_c, 0, 65, 72
2, 27156, Note_on_c, 0, 41, 66
2, 27163, Note_off_c, 0, 77, 64
2, 27191, Control_c, 0, 64, 0
2, 27191, Control_c, 0, 64, 0
2, 27236, Control_c, 0, 64, 127
2, 27236, Control_c, 0, 64, 127
2, 27243, Note_off_c, 0, 41, 64
2, 27246, Note_off_c, 0, 65, 64
2, 27315, Note_on_c, 0, 65, 67
2, 27362, Note_on_c, 0, 67, 80
2, 27366, Control_c, 0, 64, 0
2, 27366, Control_c, 0, 64, 0
2, 27372, Note_on_c, 0, 63, 67
2, 27372, Note_on_c, 0, 53, 57
2, 27379, Note_off_c, 0, 65, 64
2, 27385, Note_on_c, 0, 60, 63
2, 27408, Note_off_c, 0, 53, 64
2, 27416, Note_off_c, 0, 63, 64
2, 27418, Note_off_c, 0, 60, 64
2, 27424, Control_c, 0, 64, 127
2, 27424, Control_c, 0, 64, 127
2, 27529, Note_on_c, 0, 53, 55
2, 27531, Control_c, 0, 64, 0
2, 27531, Control_c, 0, 64, 0
2, 27538, Note_on_c, 0, 69, 83
2, 27538, Note_on_c, 0, 63, 59
2, 27542, Note_on_c, 0, 60, 55
2, 27558, Note_off_c, 0, 67, 64
2, 27563, Note_off_c, 0, 60, 64
2, 27568, Note_off_c, 0, 63, 64
2, 27571, Note_off_c, 0, 53, 64
2, 27574, Control_c, 0, 64, 127
2, 27574, Control_c, 0, 64, 127
2, 27681, Control_c, 0, 64, 0
2, 27681, Control_c, 0, 64, 0
2, 27688, Note_on_c, 0, 46, 70
2, 27689, Note_on_c, 0, 70, 66
2, 27718, Note_off_c, 0, 69, 64
2, 27730, Control_c, 0, 64, 127
2, 27730, Control_c, 0, 64, 127
2, 27763, Note_off_c, 0, 70, 64
2, 27775, Note_off_c, 0, 46, 64
2, 27803, Note_on_c, 0, 72, 70
2, 27836, Control_c, 0, 64, 0
2, 27836, Control_c, 0, 64, 0
2, 27840, Note_on_c, 0, 58, 36
2, 27843, Note_on_c, 0, 62, 37
2, 27843, Note_on_c, 0, 53, 48
2, 27853, Note_on_c, 0, 74, 83
2, 27874, Note_off_c, 0, 72, 64
2, 27878, Note_off_c, 0, 62, 64
2, 27884, Control_c, 0, 64, 127
2, 27884, Control_c, 0, 64, 127
2, 27889, Note_off_c, 0, 58, 64
2, 27893, Note_off_c, 0, 53, 64
2, 28008, Note_on_c, 0, 75, 75
2, 28010, Note_on_c, 0, 46, 72
2, 28015, Control_c, 0, 64, 0
2, 28015, Control_c, 0, 64, 0
2, 28030, Note_off_c, 0, 74, 64
2, 28051, Control_c, 0, 64, 127
2, 28051, Control_c, 0, 64, 127
2, 28097, Note_off_c, 0, 46, 64
2, 28113, Note_on_c, 0, 77, 76
2, 28123, Note_off_c, 0, 75, 64
2, 28156, Note_on_c, 0, 39, 78
2, 28159, Note_on_c, 0, 51, 78
2, 28172, Control_c, 0, 64, 0
2, 28172, Control_c, 0, 64, 0
2, 28178, Note_on_c, 0, 79, 87
2, 28196, Note_off_c, 0, 77, 64
2, 28201, Control_c, 0, 64, 127
2, 28201, Control_c, 0, 64, 127
2, 28268, Note_on_c, 0, 55, 36
2, 28271, Note_on_c, 0, 81, 83
2, 28286, Note_off_c, 0, 79, 64
2, 28300, Note_on_c, 0, 58, 46
2, 28356, Note_on_c, 0, 63, 48
2, 28376, Note_on_c, 0, 84, 87
2, 28382, Note_off_c, 0, 55, 64
2, 28388, Note_on_c, 0, 67, 65
2, 28396, Note_off_c, 0, 39, 64
2, 28397, Note_off_c, 0, 81, 64
2, 28399, Note_off_c, 0, 51, 64
2, 28408, Note_on_c, 0, 82, 91
2, 28413, Note_off_c, 0, 84, 64
2, 28424, Note_off_c, 0, 58, 64
2, 28436, Note_on_c, 0, 84, 45
2, 28452, Note_off_c, 0, 82, 64
2, 28467, Note_off_c, 0, 84, 64
2, 28468, Note_off_c, 0, 63, 64
2, 28468, Note_on_c, 0, 82, 79
2, 28491, Note_off_c, 0, 67, 64
2, 28492, Note_on_c, 0, 84, 76
2, 28503, Note_off_c, 0, 82, 64
2, 28532, Note_on_c, 0, 82, 83
2, 28548, Note_off_c, 0, 84, 64
2, 28579, Note_on_c, 0, 81, 84
2, 28588, Note_off_c, 0, 82, 64
2, 28633, Note_on_c, 0, 79, 83
2, 28654, Note_off_c, 0, 81, 64
2, 28700, Note_on_c, 0, 77, 66
2, 28702, Control_c, 0, 64, 0
2, 28702, Control_c, 0, 64, 0
2, 28704, Note_off_c, 0, 79, 64
2, 28739, Note_off_c, 0, 77, 64
2, 28740, Note_on_c, 0, 46, 62
2, 28742, Control_c, 0, 64, 127
2, 28742, Control_c, 0, 64, 127
2, 28748, Note_on_c, 0, 82, 85
2, 28781, Note_off_c, 0, 82, 64
2, 28827, Note_off_c, 0, 46, 64
2, 28862, Control_c, 0, 64, 0
2, 28880, Note_on_c, 0, 82, 63
2, 28904, Note_off_c, 0, 82, 64
2, 28912, Control_c, 0, 64, 127
2, 28912, Note_on_c, 0, 74, 71
2, 28912, Note_on_c, 0, 58, 57
2, 28916, Note_on_c, 0, 62, 39
2, 28916, Note_on_c, 0, 53, 46
2, 28922, Control_c, 0, 64, 0
2, 28940, Note_off_c, 0, 53, 64
2, 28946, Note_off_c, 0, 58, 64
2, 28972, Control_c, 0, 64, 127
2, 28975, Note_off_c, 0, 62, 64
2, 29082, Note_on_c, 0, 62, 52
2, 29082, Note_on_c, 0, 58, 57
2, 29088, Note_on_c, 0, 53, 46
2, 29109, Note_off_c, 0, 62, 64
2, 29112, Note_off_c, 0, 53, 64
2, 29116, Note_off_c, 0, 58, 64
2, 29185, Control_c, 0, 64, 0
2, 29201, Note_on_c, 0, 75, 53
2, 29219, Note_off_c, 0, 74, 64
2, 29220, Control_c, 0, 64, 127
2, 29237, Note_on_c, 0, 41, 50
2, 29241, Note_on_c, 0, 79, 81
2, 29245, Control_c, 0, 64, 0
2, 29261, Note_off_c, 0, 75, 64
2, 29271, Note_off_c, 0, 79, 64
2, 29280, Control_c, 0, 64, 127
2, 29315, Control_c, 0, 64, 0
2, 29324, Note_off_c, 0, 41, 64
2, 29368, Note_on_c, 0, 79, 57
2, 29373, Control_c, 0, 64, 127
2, 29375, Control_c, 0, 64, 0
2, 29392, Note_off_c, 0, 79, 64
2, 29396, Note_on_c, 0, 60, 50
2, 29396, Note_on_c, 0, 53, 41
2, 29397, Note_on_c, 0, 63, 52
2, 29405, Note_on_c, 0, 69, 62
2, 29433, Control_c, 0, 64, 127
2, 29440, Note_off_c, 0, 60, 64
2, 29450, Note_off_c, 0, 63, 64
2, 29456, Note_off_c, 0, 53, 64
2, 29536, Note_on_c, 0, 60, 49
2, 29540, Note_on_c, 0, 53, 52
2, 29545, Note_on_c, 0, 63, 52
2, 29580, Note_off_c, 0, 60, 64
2, 29584, Note_off_c, 0, 53, 64
2, 29589, Note_off_c, 0, 63, 64
2, 29645, Control_c, 0, 64, 0
2, 29657, Note_on_c, 0, 70, 57
2, 29669, Note_off_c, 0, 69, 64
2, 29683, Control_c, 0, 64, 127
2, 29692, Note_on_c, 0, 46, 57
2, 29695, Note_on_c, 0, 74, 71
2, 29705, Control_c, 0, 64, 0
2, 29716, Note_off_c, 0, 70, 64
2, 29725, Note_off_c, 0, 74, 64
2, 29743, Control_c, 0, 64, 127
2, 29777, Control_c, 0, 64, 0
2, 29779, Note_off_c, 0, 46, 64
2, 29824, Note_on_c, 0, 74, 59
2, 29831, Control_c, 0, 64, 127
2, 29837, Control_c, 0, 64, 0
2, 29850, Note_on_c, 0, 53, 31
2, 29852, Note_on_c, 0, 58, 41
2, 29856, Note_on_c, 0, 64, 72
2, 29859, Note_off_c, 0, 74, 64
2, 29866, Note_on_c, 0, 62, 36
2, 29891, Control_c, 0, 64, 127
2, 29904, Note_off_c, 0, 58, 64
2, 29905, Note_off_c, 0, 53, 64
2, 29909, Note_off_c, 0, 62, 64
2, 30004, Note_on_c, 0, 62, 35
2, 30004, Note_on_c, 0, 58, 52
2, 30009, Note_on_c, 0, 53, 35
2, 30032, Note_off_c, 0, 62, 64
2, 30035, Note_off_c, 0, 53, 64
2, 30035, Note_off_c, 0, 58, 64
2, 30048, Note_off_c, 0, 64, 64
2, 30104, Control_c, 0, 64, 0
2, 30146, Control_c, 0, 64, 127
2, 30153, Note_on_c, 0, 41, 57
2, 30159, Note_on_c, 0, 65, 70
2, 30164, Control_c, 0, 64, 0
2, 30206, Control_c, 0, 64, 127
2, 30240, Note_off_c, 0, 41, 64
2, 30244, Control_c, 0, 64, 0
2, 30259, Note_on_c, 0, 69, 63
2, 30270, Control_c, 0, 64, 127
2, 30288, Note_off_c, 0, 65, 64
2, 30304, Control_c, 0, 64, 0
2, 30307, Note_on_c, 0, 72, 80
2, 30308, Note_on_c, 0, 53, 55
2, 30313, Note_on_c, 0, 63, 61
2, 30330, Control_c, 0, 64, 127
2, 30343, Note_off_c, 0, 53, 64
2, 30351, Note_off_c, 0, 63, 64
2, 30373, Note_on_c, 0, 75, 45
2, 30382, Note_off_c, 0, 69, 64
2, 30434, Note_off_c, 0, 72, 64
2, 30441, Note_on_c, 0, 79, 83
2, 30463, Note_on_c, 0, 63, 55
2, 30469, Note_on_c, 0, 53, 52
2, 30474, Note_off_c, 0, 75, 64
2, 30494, Note_off_c, 0, 63, 64
2, 30503, Note_off_c, 0, 53, 64
2, 30538, Note_on_c, 0, 77, 87
2, 30553, Note_off_c, 0, 79, 64
2, 30557, Control_c, 0, 64, 0
2, 30562, Note_off_c, 0, 77, 64
2, 30592, Note_on_c, 0, 77, 83
2, 30598, Control_c, 0, 64, 127
2, 30617, Control_c, 0, 64, 0
2, 30628, Note_on_c, 0, 46, 71
2, 30635, Note_on_c, 0, 86, 83
2, 30658, Note_off_c, 0, 77, 64
2, 30658, Control_c, 0, 64, 127
2, 30715, Note_off_c, 0, 46, 64
2, 30727, Note_on_c, 0, 84, 66
2, 30731, Control_c, 0, 64, 0
2, 30732, Note_off_c, 0, 86, 64
2, 30777, Control_c, 0, 64, 127
2, 30791, Control_c, 0, 64, 0
2, 30798, Note_on_c, 0, 82, 84
2, 30801, Note_off_c, 0, 84, 64
2, 30803, Note_on_c, 0, 58, 26
2, 30803, Note_on_c, 0, 53, 24
2, 30804, Note_on_c, 0, 62, 53
2, 30828, Note_on_c, 0, 84, 78
2, 30834, Note_off_c, 0, 58, 64
2, 30837, Note_off_c, 0, 62, 64
2, 30837, Control_c, 0, 64, 127
2, 30844, Note_off_c, 0, 53, 64
2, 30850, Note_off_c, 0, 82, 64
2, 30862, Note_on_c, 0, 82, 70
2, 30885, Note_off_c, 0, 84, 64
2, 30908, Control_c, 0, 64, 0
2, 30909, Note_on_c, 0, 79, 78
2, 30927, Note_off_c, 0, 82, 64
2, 30931, Control_c, 0, 64, 127
2, 30956, Note_on_c, 0, 53, 52
2, 30962, Note_on_c, 0, 62, 56
2, 30962, Note_on_c, 0, 58, 49
2, 30968, Note_on_c, 0, 77, 75
2, 30968, Control_c, 0, 64, 0
2, 30985, Note_off_c, 0, 53, 64
2, 30985, Note_off_c, 0, 79, 64
2, 30986, Note_off_c, 0, 58, 64
2, 30987, Note_off_c, 0, 62, 64
2, 30991, Control_c, 0, 64, 127
2, 31060, Control_c, 0, 64, 0
2, 31086, Note_on_c, 0, 79, 65
2, 31097, Control_c, 0, 64, 127
2, 31098, Note_off_c, 0, 77, 64
2, 31112, Note_on_c, 0, 46, 71
2, 31120, Control_c, 0, 64, 0
2, 31126, Note_on_c, 0, 82, 80
2, 31137, Note_off_c, 0, 79, 64
2, 31156, Note_off_c, 0, 82, 64
2, 31157, Control_c, 0, 64, 127
2, 31199, Note_off_c, 0, 46, 64
2, 31213, Control_c, 0, 64, 0
2, 31243, Note_on_c, 0, 82, 70
2, 31268, Control_c, 0, 64, 127
2, 31273, Control_c, 0, 64, 0
2, 31286, Note_on_c, 0, 53, 59
2, 31289, Note_off_c, 0, 82, 64
2, 31289, Note_on_c, 0, 63, 55
2, 31295, Note_on_c, 0, 69, 70
2, 31296, Note_on_c, 0, 60, 52
2, 31328, Control_c, 0, 64, 127
2, 31333, Note_off_c, 0, 63, 64
2, 31333, Note_off_c, 0, 53, 64
2, 31336, Note_off_c, 0, 60, 64
2, 31440, Note_on_c, 0, 60, 59
2, 31446, Note_on_c, 0, 63, 50
2, 31449, Note_on_c, 0, 53, 44
2, 31474, Note_off_c, 0, 60, 64
2, 31477, Note_off_c, 0, 63, 64
2, 31484, Note_off_c, 0, 53, 64
2, 31529, Note_on_c, 0, 70, 58
2, 31541, Control_c, 0, 64, 0
2, 31550, Note_off_c, 0, 69, 64
2, 31554, Note_on_c, 0, 74, 61
2, 31577, Note_off_c, 0, 70, 64
2, 31589, Control_c, 0, 64, 127
2, 31597, Note_on_c, 0, 77, 73
2, 31601, Note_on_c, 0, 46, 70
2, 31601, Control_c, 0, 64, 0
2, 31616, Note_off_c, 0, 74, 64
2, 31627, Note_off_c, 0, 77, 64
2, 31649, Control_c, 0, 64, 127
2, 31688, Note_off_c, 0, 46, 64
2, 31698, Control_c, 0, 64, 0
2, 31720, Note_on_c, 0, 77, 74
2, 31756, Control_c, 0, 64, 127
2, 31758, Control_c, 0, 64, 0
2, 31764, Note_on_c, 0, 64, 83
2, 31767, Note_on_c, 0, 58, 48
2, 31769, Note_off_c, 0, 77, 64
2, 31773, Note_on_c, 0, 53, 29
2, 31779, Note_on_c, 0, 62, 27
2, 31815, Note_off_c, 0, 53, 64
2, 31816, Note_off_c, 0, 58, 64
2, 31816, Control_c, 0, 64, 127
2, 31822, Note_off_c, 0, 62, 64
2, 31921, Note_on_c, 0, 62, 48
2, 31927, Note_on_c, 0, 58, 48
2, 31930, Note_on_c, 0, 53, 41
2, 31952, Note_off_c, 0, 58, 64
2, 31953, Note_off_c, 0, 62, 64
2, 31957, Note_off_c, 0, 53, 64
2, 32028, Control_c, 0, 64, 0
2, 32080, Control_c, 0, 64, 127
2, 32081, Note_on_c, 0, 65, 78
2, 32088, Control_c, 0, 64, 0
2, 32095, Note_on_c, 0, 41, 76
2, 32120, Note_off_c, 0, 64, 64
2, 32140, Control_c, 0, 64, 127
2, 32170, Note_on_c, 0, 69, 65
2, 32182, Note_off_c, 0, 41, 64
2, 32218, Note_off_c, 0, 65, 64
2, 32246, Note_on_c, 0, 72, 45
2, 32258, Note_on_c, 0, 53, 52
2, 32262, Note_on_c, 0, 63, 66
2, 32264, Note_on_c, 0, 57, 52
2, 32300, Note_off_c, 0, 69, 64
2, 32316, Note_on_c, 0, 75, 70
2, 32317, Note_off_c, 0, 53, 64
2, 32323, Note_off_c, 0, 57, 64
2, 32333, Note_off_c, 0, 72, 64
2, 32344, Note_off_c, 0, 63, 64
2, 32413, Note_on_c, 0, 74, 67
2, 32422, Note_off_c, 0, 75, 64
2, 32428, Note_on_c, 0, 57, 57
2, 32431, Note_on_c, 0, 53, 57
2, 32437, Note_on_c, 0, 63, 55
2, 32449, Note_on_c, 0, 75, 70
2, 32460, Note_off_c, 0, 74, 64
2, 32476, Note_on_c, 0, 74, 57
2, 32481, Note_off_c, 0, 63, 64
2, 32483, Note_off_c, 0, 57, 64
2, 32497, Note_off_c, 0, 75, 64
2, 32497, Note_off_c, 0, 53, 64
2, 32549, Note_on_c, 0, 72, 67
2, 32565, Note_off_c, 0, 74, 64
2, 32633, Control_c, 0, 64, 0
2, 32655, Note_on_c, 0, 74, 70
2, 32669, Note_on_c, 0, 46, 63
2, 32676, Control_c, 0, 64, 127
2, 32686, Note_off_c, 0, 72, 64
2, 32693, Control_c, 0, 64, 0
2, 32736, Control_c, 0, 64, 127
2, 32806, Note_on_c, 0, 65, 67
2, 32853, Control_c, 0, 64, 0
2, 32864, Note_off_c, 0, 46, 64
2, 32875, Note_off_c, 0, 74, 64
2, 32877, Note_on_c, 0, 70, 70
2, 32885, Control_c, 0, 64, 127
2, 32898, Note_on_c, 0, 62, 46
2, 32902, Note_on_c, 0, 53, 48
2, 32913, Control_c, 0, 64, 0
2, 32922, Note_off_c, 0, 65, 64
2, 32945, Control_c, 0, 64, 127
2, 32968, Note_off_c, 0, 62, 64
2, 32978, Note_off_c, 0, 53, 64
2, 33164, Note_on_c, 0, 46, 58
2, 33195, Note_off_c, 0, 46, 64
2, 33198, Note_on_c, 0, 48, 58
2, 33208, Note_off_c, 0, 70, 64
2, 33234, Note_on_c, 0, 46, 72
2, 33241, Note_off_c, 0, 48, 64
2, 33259, Note_off_c, 0, 46, 64
2, 33264, Note_on_c, 0, 48, 62
2, 33299, Note_off_c, 0, 48, 64
2, 33302, Note_on_c, 0, 46, 65
2, 33326, Note_off_c, 0, 46, 64
2, 33334, Note_on_c, 0, 48, 53
2, 33360, Note_off_c, 0, 48, 64
2, 33361, Note_on_c, 0, 46, 58
2, 33388, Note_on_c, 0, 48, 50
2, 33392, Note_off_c, 0, 46, 64
2, 33408, Control_c, 0, 64, 0
2, 33413, Note_on_c, 0, 46, 52
2, 33421, Note_off_c, 0, 48, 64
2, 33425, Control_c, 0, 64, 0
2, 33443, Note_off_c, 0, 46, 64
2, 33452, Note_on_c, 0, 42, 46
2, 33459, Note_on_c, 0, 77, 70
2, 33465, Control_c, 0, 64, 127
2, 33465, Note_on_c, 0, 49, 42
2, 33468, Control_c, 0, 64, 0
2, 33485, Control_c, 0, 64, 0
2, 33525, Control_c, 0, 64, 127
2, 33540, Note_off_c, 0, 77, 64
2, 33570, Note_off_c, 0, 42, 64
2, 33586, Note_off_c, 0, 49, 64
2, 33624, Note_on_c, 0, 77, 71
2, 33625, Control_c, 0, 64, 0
2, 33659, Note_on_c, 0, 49, 57
2, 33665, Note_on_c, 0, 42, 63
2, 33670, Control_c, 0, 64, 127
2, 33675, Note_on_c, 0, 76, 67
2, 33685, Control_c, 0, 64, 0
2, 33690, Note_off_c, 0, 77, 64
2, 33724, Note_off_c, 0, 49, 64
2, 33730, Note_off_c, 0, 42, 64
2, 33730, Control_c, 0, 64, 127
2, 33848, Note_on_c, 0, 49, 57
2, 33854, Note_on_c, 0, 42, 55
2, 33861, Note_on_c, 0, 73, 66
2, 33888, Note_off_c, 0, 76, 64
2, 33909, Note_off_c, 0, 49, 64
2, 33911, Note_off_c, 0, 42, 64
2, 33956, Note_on_c, 0, 72, 55
2, 33967, Note_off_c, 0, 73, 64
2, 33989, Control_c, 0, 64, 0
2, 34011, Control_c, 0, 64, 127
2, 34032, Note_on_c, 0, 49, 45
2, 34035, Note_on_c, 0, 70, 66
2, 34040, Note_on_c, 0, 42, 36
2, 34048, Note_off_c, 0, 72, 64
2, 34049, Control_c, 0, 64, 0
2, 34071, Control_c, 0, 64, 127
2, 34100, Note_off_c, 0, 42, 64
2, 34116, Note_off_c, 0, 49, 64
2, 34148, Note_on_c, 0, 73, 52
2, 34188, Note_off_c, 0, 70, 64
2, 34207, Control_c, 0, 64, 0
2, 34209, Note_on_c, 0, 72, 50
2, 34220, Note_off_c, 0, 73, 64
2, 34221, Control_c, 0, 64, 127
2, 34234, Note_on_c, 0, 73, 62
2, 34237, Note_on_c, 0, 49, 44
2, 34243, Note_off_c, 0, 72, 64
2, 34243, Note_on_c, 0, 42, 46
2, 34265, Note_on_c, 0, 72, 62
2, 34267, Control_c, 0, 64, 0
2, 34273, Note_off_c, 0, 73, 64
2, 34281, Control_c, 0, 64, 127
2, 34312, Note_off_c, 0, 42, 64
2, 34319, Note_off_c, 0, 49, 64
2, 34443, Note_on_c, 0, 49, 45
2, 34447, Note_on_c, 0, 70, 74
2, 34450, Note_on_c, 0, 42, 55
2, 34457, Note_off_c, 0, 72, 64
2, 34514, Note_off_c, 0, 42, 64
2, 34520, Note_off_c, 0, 49, 64
2, 34537, Note_on_c, 0, 64, 61
2, 34546, Note_off_c, 0, 70, 64
2, 34587, Control_c, 0, 64, 0
2, 34627, Note_on_c, 0, 77, 72
2, 34632, Note_on_c, 0, 49, 48
2, 34634, Control_c, 0, 64, 127
2, 34643, Note_on_c, 0, 42, 35
2, 34647, Control_c, 0, 64, 0
2, 34666, Note_off_c, 0, 64, 64
2, 34690, Note_off_c, 0, 77, 64
2, 34693, Note_off_c, 0, 49, 64
2, 34694, Note_off_c, 0, 42, 64
2, 34694, Control_c, 0, 64, 127
2, 34764, Note_on_c, 0, 77, 65
2, 34774, Control_c, 0, 64, 0
2, 34799, Control_c, 0, 64, 127
2, 34801, Note_on_c, 0, 76, 72
2, 34805, Note_on_c, 0, 49, 59
2, 34809, Note_on_c, 0, 42, 50
2, 34817, Note_off_c, 0, 77, 64
2, 34834, Control_c, 0, 64, 0
2, 34859, Control_c, 0, 64, 127
2, 34865, Note_off_c, 0, 49, 64
2, 34869, Note_off_c, 0, 42, 64
2, 34979, Note_on_c, 0, 73, 55
2, 34988, Note_on_c, 0, 49, 62
2, 34994, Note_off_c, 0, 76, 64
2, 34997, Note_on_c, 0, 42, 33
2, 35040, Note_off_c, 0, 49, 64
2, 35044, Note_off_c, 0, 42, 64
2, 35071, Note_on_c, 0, 72, 70
2, 35090, Note_off_c, 0, 73, 64
2, 35160, Note_on_c, 0, 70, 67
2, 35166, Note_off_c, 0, 72, 64
2, 35167, Note_on_c, 0, 49, 57
2, 35173, Note_on_c, 0, 42, 46
2, 35219, Note_on_c, 0, 72, 72
2, 35229, Note_off_c, 0, 49, 64
2, 35232, Note_off_c, 0, 70, 64
2, 35234, Note_off_c, 0, 42, 64
2, 35285, Note_on_c, 0, 70, 62
2, 35297, Control_c, 0, 64, 0
2, 35308, Note_off_c, 0, 72, 64
2, 35328, Control_c, 0, 64, 127
2, 35345, Note_on_c, 0, 49, 57
2, 35350, Note_on_c, 0, 64, 66
2, 35350, Note_on_c, 0, 42, 46
2, 35354, Note_off_c, 0, 70, 64
2, 35357, Control_c, 0, 64, 0
2, 35388, Control_c, 0, 64, 127
2, 35406, Note_off_c, 0, 49, 64
2, 35409, Note_off_c, 0, 42, 64
2, 35468, Control_c, 0, 64, 0
2, 35497, Control_c, 0, 64, 127
2, 35525, Note_on_c, 0, 49, 53
2, 35528, Control_c, 0, 64, 0
2, 35534, Note_on_c, 0, 42, 44
2, 35557, Control_c, 0, 64, 127
2, 35589, Note_off_c, 0, 49, 64
2, 35596, Note_off_c, 0, 42, 64
2, 35710, Note_on_c, 0, 77, 66
2, 35715, Note_off_c, 0, 64, 64
2, 35716, Note_on_c, 0, 49, 53
2, 35716, Note_on_c, 0, 42, 52
2, 35779, Note_off_c, 0, 49, 64
2, 35786, Note_off_c, 0, 77, 64
2, 35793, Note_off_c, 0, 42, 64
2, 35854, Note_on_c, 0, 77, 53
2, 35860, Control_c, 0, 64, 0
2, 35876, Control_c, 0, 64, 127
2, 35893, Note_on_c, 0, 42, 45
2, 35894, Note_on_c, 0, 76, 65
2, 35894, Note_on_c, 0, 49, 46
2, 35917, Note_off_c, 0, 77, 64
2, 35920, Control_c, 0, 64, 0
2, 35936, Control_c, 0, 64, 127
2, 35962, Note_off_c, 0, 49, 64
2, 35967, Note_off_c, 0, 42, 64
2, 36071, Note_on_c, 0, 73, 70
2, 36075, Note_on_c, 0, 49, 57
2, 36080, Note_on_c, 0, 42, 45
2, 36096, Note_off_c, 0, 76, 64
2, 36142, Note_off_c, 0, 49, 64
2, 36149, Note_off_c, 0, 42, 64
2, 36172, Note_on_c, 0, 72, 53
2, 36206, Note_off_c, 0, 73, 64
2, 36247, Note_on_c, 0, 70, 70
2, 36250, Note_on_c, 0, 49, 57
2, 36261, Note_on_c, 0, 42, 42
2, 36280, Note_off_c, 0, 72, 64
2, 36321, Note_off_c, 0, 49, 64
2, 36322, Note_off_c, 0, 42, 64
2, 36360, Note_on_c, 0, 73, 45
2, 36398, Note_off_c, 0, 70, 64
2, 36434, Note_on_c, 0, 42, 66
2, 36436, Note_on_c, 0, 72, 48
2, 36442, Note_off_c, 0, 73, 64
2, 36445, Note_on_c, 0, 49, 42
2, 36462, Note_on_c, 0, 42, 50
2, 36467, Note_on_c, 0, 73, 50
2, 36474, Note_on_c, 0, 49, 40
2, 36477, Note_off_c, 0, 72, 64
2, 36502, Note_on_c, 0, 72, 52
2, 36504, Note_off_c, 0, 49, 64
2, 36510, Note_off_c, 0, 73, 64
2, 36512, Note_off_c, 0, 42, 64
2, 36531, Note_on_c, 0, 73, 55
2, 36535, Note_off_c, 0, 42, 64
2, 36541, Note_off_c, 0, 72, 64
2, 36541, Note_off_c, 0, 49, 64
2, 36557, Note_on_c, 0, 72, 57
2, 36575, Note_off_c, 0, 73, 64
2, 36606, Note_on_c, 0, 73, 44
2, 36613, Control_c, 0, 64, 0
2, 36615, Note_off_c, 0, 72, 64
2, 36633, Note_on_c, 0, 70, 65
2, 36635, Control_c, 0, 64, 127
2, 36642, Note_off_c, 0, 73, 64
2, 36643, Note_on_c, 0, 49, 59
2, 36643, Note_on_c, 0, 42, 52
2, 36673, Control_c, 0, 64, 0
2, 36695, Control_c, 0, 64, 127
2, 36714, Note_off_c, 0, 49, 64
2, 36715, Note_off_c, 0, 42, 64
2, 36744, Note_on_c, 0, 64, 54
2, 36776, Note_off_c, 0, 70, 64
2, 36793, Control_c, 0, 64, 0
2, 36817, Control_c, 0, 64, 127
2, 36833, Note_on_c, 0, 77, 67
2, 36841, Note_on_c, 0, 42, 53
2, 36843, Note_on_c, 0, 49, 58
2, 36853, Control_c, 0, 64, 0
2, 36873, Note_off_c, 0, 64, 64
2, 36877, Control_c, 0, 64, 127
2, 36896, Note_off_c, 0, 49, 64
2, 36896, Note_off_c, 0, 77, 64
2, 36898, Note_off_c, 0, 42, 64
2, 36980, Note_on_c, 0, 77, 52
2, 36997, Control_c, 0, 64, 0
2, 37012, Control_c, 0, 64, 127
2, 37026, Note_on_c, 0, 76, 66
2, 37026, Note_on_c, 0, 49, 79
2, 37026, Note_on_c, 0, 42, 67
2, 37040, Note_off_c, 0, 77, 64
2, 37057, Control_c, 0, 64, 0
2, 37072, Control_c, 0, 64, 127
2, 37127, Note_off_c, 0, 49, 64
2, 37146, Note_off_c, 0, 42, 64
2, 37222, Note_on_c, 0, 42, 45
2, 37228, Note_on_c, 0, 49, 52
2, 37231, Note_on_c, 0, 73, 70
2, 37266, Note_off_c, 0, 76, 64
2, 37324, Note_off_c, 0, 42, 64
2, 37328, Note_off_c, 0, 49, 64
2, 37384, Note_on_c, 0, 72, 70
2, 37394, Note_off_c, 0, 73, 64
2, 37463, Control_c, 0, 64, 0
2, 37475, Note_on_c, 0, 70, 76
2, 37475, Note_on_c, 0, 49, 53
2, 37475, Note_on_c, 0, 41, 63
2, 37486, Control_c, 0, 64, 127
2, 37490, Note_off_c, 0, 72, 64
2, 37523, Control_c, 0, 64, 0
2, 37546, Control_c, 0, 64, 127
2, 37609, Note_on_c, 0, 72, 63
2, 37632, Note_off_c, 0, 70, 64
2, 37684, Note_on_c, 0, 70, 83
2, 37713, Note_off_c, 0, 72, 64
2, 37776, Note_off_c, 0, 49, 64
2, 37796, Control_c, 0, 64, 0
2, 37800, Note_on_c, 0, 69, 71
2, 37808, Note_on_c, 0, 48, 66
2, 37811, Note_off_c, 0, 70, 64
2, 37856, Control_c, 0, 64, 0
2, 37876, Control_c, 0, 64, 127
2, 37936, Control_c, 0, 64, 127
2, 37969, Note_off_c, 0, 41, 64
2, 38242, Note_on_c, 0, 67, 46
2, 38252, Note_off_c, 0, 69, 64
2, 38269, Control_c, 0, 64, 0
2, 38321, Control_c, 0, 64, 127
2, 38326, Note_off_c, 0, 48, 64
2, 38329, Control_c, 0, 64, 0
2, 38336, Note_on_c, 0, 41, 63
2, 38341, Note_on_c, 0, 65, 67
2, 38366, Control_c, 0, 64, 0
2, 38368, Note_off_c, 0, 67, 64
2, 38381, Control_c, 0, 64, 127
2, 38405, Note_off_c, 0, 65, 64
2, 38423, Note_off_c, 0, 41, 64
2, 38426, Control_c, 0, 64, 0
2, 38478, Control_c, 0, 64, 0
2, 38486, Note_on_c, 0, 65, 68
2, 38503, Control_c, 0, 64, 127
2, 38522, Note_on_c, 0, 67, 66
2, 38522, Note_on_c, 0, 53, 33
2, 38529, Note_on_c, 0, 63, 31
2, 38538, Note_on_c, 0, 60, 50
2, 38538, Control_c, 0, 64, 0
2, 38558, Note_off_c, 0, 65, 64
2, 38563, Control_c, 0, 64, 127
2, 38568, Note_off_c, 0, 53, 64
2, 38577, Note_off_c, 0, 60, 64
2, 38577, Note_off_c, 0, 63, 64
2, 38630, Control_c, 0, 64, 0
2, 38663, Control_c, 0, 64, 127
2, 38690, Control_c, 0, 64, 0
2, 38696, Note_on_c, 0, 60, 49
2, 38698, Note_on_c, 0, 69, 78
2, 38698, Note_on_c, 0, 63, 49
2, 38698, Note_on_c, 0, 53, 42
2, 38719, Note_off_c, 0, 67, 64
2, 38723, Control_c, 0, 64, 127
2, 38729, Note_off_c, 0, 60, 64
2, 38731, Note_off_c, 0, 63, 64
2, 38738, Note_off_c, 0, 53, 64
2, 38802, Control_c, 0, 64, 0
2, 38836, Control_c, 0, 64, 127
2, 38857, Note_on_c, 0, 70, 76
2, 38860, Note_on_c, 0, 46, 72
2, 38862, Control_c, 0, 64, 0
2, 38892, Note_off_c, 0, 69, 64
2, 38896, Control_c, 0, 64, 127
2, 38947, Note_off_c, 0, 46, 64
2, 38970, Control_c, 0, 64, 0
2, 38970, Note_on_c, 0, 72, 70
2, 38978, Note_off_c, 0, 70, 64
2, 39006, Control_c, 0, 64, 127
2, 39014, Note_on_c, 0, 58, 57
2, 39016, Note_on_c, 0, 62, 41
2, 39016, Note_on_c, 0, 53, 62
2, 39020, Note_on_c, 0, 74, 87
2, 39030, Control_c, 0, 64, 0
2, 39043, Note_off_c, 0, 72, 64
2, 39056, Note_off_c, 0, 53, 64
2, 39059, Note_off_c, 0, 62, 64
2, 39061, Note_off_c, 0, 58, 64
2, 39066, Control_c, 0, 64, 127
2, 39130, Control_c, 0, 64, 0
2, 39155, Control_c, 0, 64, 127
2, 39179, Note_on_c, 0, 46, 75
2, 39182, Note_on_c, 0, 75, 78
2, 39190, Control_c, 0, 64, 0
2, 39206, Note_off_c, 0, 74, 64
2, 39215, Control_c, 0, 64, 127
2, 39266, Note_off_c, 0, 46, 64
2, 39281, Note_on_c, 0, 77, 71
2, 39286, Control_c, 0, 64, 0
2, 39301, Note_off_c, 0, 75, 64
2, 39312, Control_c, 0, 64, 127
2, 39341, Note_on_c, 0, 51, 83
2, 39341, Note_on_c, 0, 39, 78
2, 39346, Control_c, 0, 64, 0
2, 39351, Note_on_c, 0, 79, 83
2, 39372, Control_c, 0, 64, 127
2, 39422, Note_off_c, 0, 77, 64
2, 39456, Note_on_c, 0, 55, 41
2, 39459, Note_on_c, 0, 81, 72
2, 39476, Note_off_c, 0, 79, 64
2, 39504, Note_on_c, 0, 58, 41
2, 39552, Note_on_c, 0, 63, 78
2, 39566, Note_on_c, 0, 84, 87
2, 39581, Note_off_c, 0, 81, 64
2, 39581, Note_off_c, 0, 39, 64
2, 39581, Note_off_c, 0, 51, 64
2, 39597, Note_off_c, 0, 55, 64
2, 39600, Note_on_c, 0, 67, 37
2, 39604, Note_on_c, 0, 82, 87
2, 39624, Note_off_c, 0, 84, 64
2, 39642, Note_on_c, 0, 84, 70
2, 39645, Note_off_c, 0, 58, 64
2, 39649, Note_off_c, 0, 82, 64
2, 39657, Note_off_c, 0, 63, 64
2, 39677, Note_on_c, 0, 82, 83
2, 39686, Note_off_c, 0, 67, 64
2, 39693, Note_off_c, 0, 84, 64
2, 39698, Note_on_c, 0, 84, 63
2, 39708, Note_off_c, 0, 82, 64
2, 39727, Note_on_c, 0, 82, 79
2, 39744, Note_off_c, 0, 84, 64
2, 39778, Note_on_c, 0, 81, 83
2, 39786, Note_off_c, 0, 82, 64
2, 39835, Note_on_c, 0, 79, 80
2, 39860, Control_c, 0, 64, 0
2, 39861, Note_off_c, 0, 81, 64
2, 39908, Note_on_c, 0, 77, 62
2, 39920, Control_c, 0, 64, 0
2, 39922, Control_c, 0, 64, 127
2, 39928, Note_off_c, 0, 79, 64
2, 39935, Note_on_c, 0, 46, 52
2, 39938, Note_on_c, 0, 82, 86
2, 39949, Note_off_c, 0, 77, 64
2, 39973, Note_off_c, 0, 82, 64
2, 39982, Control_c, 0, 64, 127
2, 40022, Note_off_c, 0, 46, 64
2, 40036, Control_c, 0, 64, 0
2, 40058, Note_on_c, 0, 82, 57
2, 40069, Control_c, 0, 64, 127
2, 40094, Note_on_c, 0, 58, 52
2, 40094, Note_on_c, 0, 53, 23
2, 40096, Control_c, 0, 64, 0
2, 40106, Note_on_c, 0, 74, 71
2, 40106, Note_on_c, 0, 62, 53
2, 40117, Note_off_c, 0, 82, 64
2, 40129, Control_c, 0, 64, 127
2, 40140, Note_off_c, 0, 58, 64
2, 40147, Note_off_c, 0, 62, 64
2, 40158, Note_off_c, 0, 53, 64
2, 40253, Note_on_c, 0, 62, 32
2, 40256, Note_on_c, 0, 58, 55
2, 40259, Note_on_c, 0, 53, 45
2, 40288, Note_off_c, 0, 62, 64
2, 40293, Note_off_c, 0, 58, 64
2, 40298, Note_off_c, 0, 53, 64
2, 40355, Control_c, 0, 64, 0
2, 40372, Note_on_c, 0, 75, 50
2, 40392, Note_off_c, 0, 74, 64
2, 40392, Control_c, 0, 64, 127
2, 40400, Note_on_c, 0, 41, 61
2, 40407, Note_on_c, 0, 79, 66
2, 40415, Control_c, 0, 64, 0
2, 40434, Note_off_c, 0, 75, 64
2, 40435, Note_off_c, 0, 79, 64
2, 40452, Control_c, 0, 64, 127
2, 40487, Note_off_c, 0, 41, 64
2, 40499, Control_c, 0, 64, 0
2, 40532, Note_on_c, 0, 79, 49
2, 40557, Control_c, 0, 64, 127
2, 40559, Control_c, 0, 64, 0
2, 40564, Note_on_c, 0, 53, 41
2, 40566, Note_on_c, 0, 69, 63
2, 40572, Note_on_c, 0, 60, 44
2, 40574, Note_on_c, 0, 63, 63
2, 40586, Note_off_c, 0, 79, 64
2, 40605, Note_off_c, 0, 60, 64
2, 40610, Note_off_c, 0, 53, 64
2, 40617, Note_off_c, 0, 63, 64
2, 40617, Control_c, 0, 64, 127
2, 40725, Note_on_c, 0, 63, 46
2, 40730, Note_on_c, 0, 60, 52
2, 40730, Note_on_c, 0, 53, 52
2, 40757, Note_off_c, 0, 60, 64
2, 40763, Note_off_c, 0, 53, 64
2, 40770, Note_off_c, 0, 63, 64
2, 40824, Control_c, 0, 64, 0
2, 40828, Note_on_c, 0, 70, 50
2, 40852, Note_off_c, 0, 69, 64
2, 40859, Control_c, 0, 64, 127
2, 40873, Note_on_c, 0, 74, 62
2, 40873, Note_on_c, 0, 46, 61
2, 40884, Control_c, 0, 64, 0
2, 40896, Note_off_c, 0, 70, 64
2, 40903, Note_off_c, 0, 74, 64
2, 40919, Control_c, 0, 64, 127
2, 40956, Control_c, 0, 64, 0
2, 40960, Note_off_c, 0, 46, 64
2, 41000, Note_on_c, 0, 74, 57
2, 41010, Control_c, 0, 64, 127
2, 41016, Control_c, 0, 64, 0
2, 41034, Note_on_c, 0, 58, 24
2, 41034, Note_on_c, 0, 53, 33
2, 41035, Note_on_c, 0, 64, 65
2, 41036, Note_on_c, 0, 62, 26
2, 41043, Note_off_c, 0, 74, 64
2, 41070, Control_c, 0, 64, 127
2, 41087, Note_off_c, 0, 58, 64
2, 41091, Note_off_c, 0, 62, 64
2, 41092, Note_off_c, 0, 53, 64
2, 41192, Note_on_c, 0, 53, 46
2, 41193, Note_on_c, 0, 62, 44
2, 41198, Note_on_c, 0, 58, 46
2, 41233, Note_off_c, 0, 53, 64
2, 41239, Note_off_c, 0, 58, 64
2, 41241, Note_off_c, 0, 62, 64
2, 41286, Control_c, 0, 64, 0
2, 41323, Control_c, 0, 64, 127
2, 41346, Note_on_c, 0, 65, 72
2, 41346, Control_c, 0, 64, 0
2, 41352, Note_on_c, 0, 41, 42
2, 41383, Control_c, 0, 64, 127
2, 41399, Note_off_c, 0, 64, 64
2, 41439, Note_off_c, 0, 41, 64
2, 41440, Note_on_c, 0, 69, 71
2, 41470, Note_off_c, 0, 65, 64
2, 41489, Note_on_c, 0, 63, 58
2, 41496, Note_on_c, 0, 72, 67
2, 41496, Note_on_c, 0, 53, 46
2, 41523, Note_off_c, 0, 53, 64
2, 41546, Note_off_c, 0, 69, 64
2, 41547, Note_off_c, 0, 63, 64
2, 41576, Note_on_c, 0, 75, 48
2, 41624, Note_on_c, 0, 79, 72
2, 41633, Note_off_c, 0, 72, 64
2, 41636, Note_on_c, 0, 53, 35
2, 41640, Note_on_c, 0, 63, 46
2, 41640, Note_on_c, 0, 57, 42
2, 41655, Note_off_c, 0, 75, 64
2, 41663, Note_off_c, 0, 57, 64
2, 41668, Note_off_c, 0, 63, 64
2, 41670, Note_off_c, 0, 53, 64
2, 41713, Note_on_c, 0, 77, 84
2, 41729, Note_off_c, 0, 79, 64
2, 41742, Note_off_c, 0, 77, 64
2, 41751, Control_c, 0, 64, 0
2, 41768, Note_on_c, 0, 77, 63
2, 41782, Control_c, 0, 64, 127
2, 41809, Note_on_c, 0, 46, 74
2, 41811, Control_c, 0, 64, 0
2, 41819, Note_on_c, 0, 86, 77
2, 41835, Note_off_c, 0, 77, 64
2, 41842, Control_c, 0, 64, 127
2, 41896, Note_off_c, 0, 46, 64
2, 41902, Note_on_c, 0, 84, 76
2, 41909, Note_off_c, 0, 86, 64
2, 41934, Control_c, 0, 64, 0
2, 41953, Control_c, 0, 64, 127
2, 41957, Control_c, 0, 64, 127
2, 41974, Note_on_c, 0, 82, 84
2, 41978, Note_on_c, 0, 58, 52
2, 41979, Note_on_c, 0, 58, 22
2, 41979, Note_on_c, 0, 53, 20
2, 41980, Note_off_c, 0, 84, 64
2, 41980, Note_on_c, 0, 62, 44
2, 41981, Note_on_c, 0, 62, 52
2, 41981, Note_on_c, 0, 53, 29
2, 41994, Control_c, 0, 64, 0
2, 42004, Note_on_c, 0, 84, 78
2, 42010, Note_off_c, 0, 58, 64
2, 42013, Note_off_c, 0, 62, 64
2, 42013, Control_c, 0, 64, 127
2, 42017, Control_c, 0, 64, 127
2, 42020, Note_off_c, 0, 53, 64
2, 42024, Note_off_c, 0, 62, 64
2, 42024, Note_off_c, 0, 58, 64
2, 42026, Note_off_c, 0, 82, 64
2, 42030, Note_off_c, 0, 53, 64
2, 42038, Note_on_c, 0, 82, 70
2, 42061, Note_off_c, 0, 84, 64
2, 42083, Note_on_c, 0, 79, 65
2, 42088, Control_c, 0, 64, 0
2, 42103, Note_off_c, 0, 82, 64
2, 42105, Control_c, 0, 64, 127
2, 42138, Note_on_c, 0, 62, 55
2, 42138, Note_on_c, 0, 53, 49
2, 42140, Note_on_c, 0, 58, 52
2, 42146, Note_on_c, 0, 77, 83
2, 42148, Control_c, 0, 64, 0
2, 42165, Note_off_c, 0, 79, 64
2, 42165, Control_c, 0, 64, 127
2, 42179, Note_off_c, 0, 62, 64
2, 42181, Note_off_c, 0, 58, 64
2, 42187, Note_off_c, 0, 53, 64
2, 42238, Control_c, 0, 64, 0
2, 42259, Note_on_c, 0, 79, 57
2, 42266, Control_c, 0, 64, 127
2, 42267, Note_off_c, 0, 77, 64
2, 42288, Note_on_c, 0, 46, 78
2, 42290, Note_on_c, 0, 82, 83
2, 42298, Control_c, 0, 64, 0
2, 42313, Note_off_c, 0, 79, 64
2, 42318, Note_off_c, 0, 82, 64
2, 42326, Control_c, 0, 64, 127
2, 42375, Note_off_c, 0, 46, 64
2, 42395, Control_c, 0, 64, 0
2, 42404, Note_on_c, 0, 82, 66
2, 42438, Control_c, 0, 64, 127
2, 42455, Control_c, 0, 64, 0
2, 42463, Note_on_c, 0, 69, 75
2, 42468, Note_on_c, 0, 63, 48
2, 42471, Note_off_c, 0, 82, 64
2, 42472, Note_on_c, 0, 53, 29
2, 42483, Note_on_c, 0, 60, 45
2, 42498, Control_c, 0, 64, 127
2, 42514, Note_off_c, 0, 60, 64
2, 42522, Note_off_c, 0, 53, 64
2, 42522, Note_off_c, 0, 63, 64
2, 42630, Note_on_c, 0, 53, 45
2, 42632, Note_on_c, 0, 60, 59
2, 42637, Note_on_c, 0, 63, 36
2, 42655, Note_off_c, 0, 60, 64
2, 42658, Note_off_c, 0, 63, 64
2, 42665, Note_off_c, 0, 53, 64
2, 42720, Note_on_c, 0, 70, 54
2, 42733, Control_c, 0, 64, 0
2, 42738, Note_off_c, 0, 69, 64
2, 42740, Note_on_c, 0, 74, 67
2, 42763, Note_off_c, 0, 70, 64
2, 42772, Control_c, 0, 64, 127
2, 42779, Note_on_c, 0, 77, 78
2, 42783, Note_on_c, 0, 46, 70
2, 42793, Control_c, 0, 64, 0
2, 42808, Note_off_c, 0, 74, 64
2, 42813, Note_off_c, 0, 77, 64
2, 42832, Control_c, 0, 64, 127
2, 42870, Note_off_c, 0, 46, 64
2, 42880, Control_c, 0, 64, 0
2, 42898, Note_on_c, 0, 77, 72
2, 42913, Control_c, 0, 64, 127
2, 42940, Control_c, 0, 64, 0
2, 42948, Note_on_c, 0, 64, 80
2, 42948, Note_on_c, 0, 53, 36
2, 42953, Note_off_c, 0, 77, 64
2, 42953, Note_on_c, 0, 58, 45
2, 42954, Note_on_c, 0, 62, 53
2, 42973, Control_c, 0, 64, 127
2, 42997, Note_off_c, 0, 58, 64
2, 42997, Note_off_c, 0, 53, 64
2, 42999, Note_off_c, 0, 62, 64
2, 43110, Note_on_c, 0, 62, 48
2, 43112, Note_on_c, 0, 58, 29
2, 43113, Note_on_c, 0, 53, 29
2, 43140, Note_off_c, 0, 58, 64
2, 43144, Note_off_c, 0, 53, 64
2, 43154, Note_off_c, 0, 62, 64
2, 43217, Control_c, 0, 64, 0
2, 43250, Control_c, 0, 64, 127
2, 43263, Note_on_c, 0, 65, 78
2, 43265, Note_on_c, 0, 41, 55
2, 43275, Note_off_c, 0, 64, 64
2, 43277, Control_c, 0, 64, 0
2, 43310, Control_c, 0, 64, 127
2, 43352, Note_off_c, 0, 41, 64
2, 43360, Note_on_c, 0, 69, 67
2, 43393, Note_off_c, 0, 65, 64
2, 43429, Note_on_c, 0, 72, 46
2, 43432, Note_on_c, 0, 53, 44
2, 43433, Note_on_c, 0, 63, 65
2, 43469, Note_off_c, 0, 53, 64
2, 43483, Note_off_c, 0, 63, 64
2, 43503, Note_off_c, 0, 69, 64
2, 43506, Note_on_c, 0, 75, 72
2, 43539, Note_off_c, 0, 72, 64
2, 43584, Note_on_c, 0, 63, 57
2, 43585, Note_on_c, 0, 53, 48
2, 43592, Note_on_c, 0, 57, 36
2, 43601, Note_on_c, 0, 74, 63
2, 43612, Note_off_c, 0, 75, 64
2, 43617, Note_off_c, 0, 63, 64
2, 43620, Note_off_c, 0, 57, 64
2, 43620, Note_off_c, 0, 53, 64
2, 43627, Note_on_c, 0, 75, 83
2, 43640, Note_off_c, 0, 74, 64
2, 43663, Note_on_c, 0, 74, 68
2, 43670, Note_off_c, 0, 75, 64
2, 43714, Note_on_c, 0, 72, 72
2, 43734, Note_off_c, 0, 74, 64
2, 43740, Control_c, 0, 64, 0
2, 43785, Control_c, 0, 64, 127
2, 43787, Note_on_c, 0, 46, 66
2, 43793, Note_on_c, 0, 74, 84
2, 43800, Control_c, 0, 64, 0
2, 43805, Note_off_c, 0, 72, 64
2, 43845, Control_c, 0, 64, 127
2, 43920, Note_on_c, 0, 65, 46
2, 43924, Control_c, 0, 64, 0
2, 43960, Control_c, 0, 64, 127
2, 43977, Note_on_c, 0, 70, 75
2, 43982, Note_off_c, 0, 46, 64
2, 43984, Control_c, 0, 64, 0
2, 43991, Note_off_c, 0, 74, 64
2, 43995, Note_on_c, 0, 62, 57
2, 43996, Note_on_c, 0, 58, 36
2, 43996, Note_on_c, 0, 53, 36
2, 44020, Control_c, 0, 64, 127
2, 44044, Note_off_c, 0, 53, 64
2, 44046, Note_off_c, 0, 62, 64
2, 44051, Note_off_c, 0, 58, 64
2, 44220, Note_on_c, 0, 46, 49
2, 44251, Note_off_c, 0, 46, 64
2, 44254, Note_on_c, 0, 48, 48
2, 44255, Note_off_c, 0, 65, 64
2, 44286, Note_off_c, 0, 70, 64
2, 44290, Note_on_c, 0, 46, 58
2, 44297, Note_off_c, 0, 48, 64
2, 44315, Note_off_c, 0, 46, 64
2, 44320, Note_on_c, 0, 48, 49
2, 44355, Note_off_c, 0, 48, 64
2, 44358, Note_on_c, 0, 46, 49
2, 44382, Note_off_c, 0, 46, 64
2, 44390, Note_on_c, 0, 48, 40
2, 44416, Note_off_c, 0, 48, 64
2, 44417, Note_on_c, 0, 46, 42
2, 44444, Note_on_c, 0, 48, 36
2, 44448, Note_off_c, 0, 46, 64
2, 44464, Control_c, 0, 64, 0
2, 44469, Note_on_c, 0, 46, 36
2, 44477, Note_off_c, 0, 48, 64
2, 44497, Control_c, 0, 64, 0
2, 44499, Note_off_c, 0, 46, 64
2, 44514, Note_on_c, 0, 42, 53
2, 44519, Note_on_c, 0, 49, 57
2, 44524, Control_c, 0, 64, 0
2, 44528, Note_on_c, 0, 77, 57
2, 44539, Control_c, 0, 64, 127
2, 44557, Control_c, 0, 64, 0
2, 44599, Control_c, 0, 64, 127
2, 44604, Note_off_c, 0, 77, 64
2, 44678, Note_on_c, 0, 77, 53
2, 44684, Note_off_c, 0, 42, 64
2, 44686, Control_c, 0, 64, 0
2, 44691, Note_off_c, 0, 49, 64
2, 44722, Control_c, 0, 64, 127
2, 44731, Note_on_c, 0, 76, 54
2, 44740, Note_on_c, 0, 49, 44
2, 44746, Control_c, 0, 64, 0
2, 44752, Note_off_c, 0, 77, 64
2, 44753, Note_on_c, 0, 42, 40
2, 44782, Control_c, 0, 64, 127
2, 44815, Note_off_c, 0, 42, 64
2, 44820, Note_off_c, 0, 49, 64
2, 44864, Control_c, 0, 64, 0
2, 44880, Control_c, 0, 64, 127
2, 44904, Note_on_c, 0, 73, 54
2, 44910, Note_on_c, 0, 49, 37
2, 44918, Note_on_c, 0, 42, 31
2, 44924, Control_c, 0, 64, 0
2, 44929, Note_off_c, 0, 76, 64
2, 44940, Control_c, 0, 64, 127
2, 44970, Note_off_c, 0, 42, 64
2, 44970, Note_off_c, 0, 49, 64
2, 44996, Note_on_c, 0, 72, 52
2, 44998, Note_off_c, 0, 73, 64
2, 45078, Note_on_c, 0, 70, 52
2, 45084, Note_on_c, 0, 49, 46
2, 45093, Note_on_c, 0, 42, 37
2, 45100, Note_off_c, 0, 72, 64
2, 45160, Note_off_c, 0, 42, 64
2, 45170, Note_on_c, 0, 73, 52
2, 45174, Note_off_c, 0, 49, 64
2, 45182, Note_off_c, 0, 70, 64
2, 45215, Control_c, 0, 64, 0
2, 45217, Note_on_c, 0, 72, 40
2, 45229, Control_c, 0, 64, 127
2, 45230, Note_off_c, 0, 73, 64
2, 45242, Note_on_c, 0, 73, 49
2, 45251, Note_off_c, 0, 72, 64
2, 45273, Note_on_c, 0, 72, 49
2, 45275, Control_c, 0, 64, 0
2, 45281, Note_off_c, 0, 73, 64
2, 45282, Note_on_c, 0, 42, 33
2, 45283, Note_on_c, 0, 49, 36
2, 45289, Control_c, 0, 64, 127
2, 45366, Note_off_c, 0, 42, 64
2, 45371, Note_off_c, 0, 49, 64
2, 45437, Control_c, 0, 64, 0
2, 45462, Control_c, 0, 64, 127
2, 45470, Note_on_c, 0, 70, 57
2, 45473, Note_on_c, 0, 49, 36
2, 45477, Note_off_c, 0, 72, 64
2, 45479, Note_on_c, 0, 42, 44
2, 45497, Control_c, 0, 64, 0
2, 45522, Control_c, 0, 64, 127
2, 45546, Note_off_c, 0, 42, 64
2, 45556, Note_on_c, 0, 64, 42
2, 45564, Note_off_c, 0, 49, 64
2, 45584, Note_off_c, 0, 70, 64
2, 45616, Control_c, 0, 64, 0
2, 45643, Control_c, 0, 64, 127
2, 45653, Note_on_c, 0, 49, 45
2, 45655, Note_on_c, 0, 77, 52
2, 45659, Note_on_c, 0, 42, 45
2, 45676, Control_c, 0, 64, 0
2, 45680, Note_off_c, 0, 64, 64
2, 45703, Control_c, 0, 64, 127
2, 45729, Note_off_c, 0, 77, 64
2, 45734, Note_off_c, 0, 42, 64
2, 45741, Note_off_c, 0, 49, 64
2, 45788, Note_on_c, 0, 77, 41
2, 45792, Control_c, 0, 64, 0
2, 45814, Note_on_c, 0, 76, 59
2, 45820, Note_on_c, 0, 49, 50
2, 45822, Control_c, 0, 64, 127
2, 45828, Note_on_c, 0, 42, 41
2, 45833, Note_off_c, 0, 77, 64
2, 45852, Control_c, 0, 64, 0
2, 45882, Control_c, 0, 64, 127
2, 45895, Note_off_c, 0, 49, 64
2, 45905, Note_off_c, 0, 42, 64
2, 45993, Note_on_c, 0, 73, 55
2, 45999, Note_on_c, 0, 42, 52
2, 46002, Note_on_c, 0, 49, 50
2, 46015, Note_off_c, 0, 76, 64
2, 46059, Note_off_c, 0, 49, 64
2, 46074, Note_off_c, 0, 42, 64
2, 46074, Note_on_c, 0, 72, 53
2, 46107, Note_off_c, 0, 73, 64
2, 46133, Control_c, 0, 64, 0
2, 46166, Control_c, 0, 64, 127
2, 46175, Note_on_c, 0, 49, 50
2, 46176, Note_on_c, 0, 70, 48
2, 46176, Note_on_c, 0, 42, 41
2, 46193, Control_c, 0, 64, 0
2, 46211, Note_off_c, 0, 72, 64
2, 46226, Control_c, 0, 64, 127
2, 46232, Note_on_c, 0, 72, 46
2, 46242, Note_off_c, 0, 49, 64
2, 46248, Note_off_c, 0, 42, 64
2, 46251, Note_off_c, 0, 70, 64
2, 46279, Note_on_c, 0, 70, 66
2, 46283, Control_c, 0, 64, 0
2, 46294, Note_off_c, 0, 72, 64
2, 46324, Control_c, 0, 64, 127
2, 46343, Control_c, 0, 64, 0
2, 46344, Note_on_c, 0, 64, 52
2, 46351, Note_on_c, 0, 49, 49
2, 46353, Note_off_c, 0, 70, 64
2, 46353, Note_on_c, 0, 42, 52
2, 46384, Control_c, 0, 64, 127
2, 46410, Note_off_c, 0, 49, 64
2, 46423, Note_off_c, 0, 42, 64
2, 46464, Control_c, 0, 64, 0
2, 46490, Control_c, 0, 64, 127
2, 46509, Note_on_c, 0, 49, 48
2, 46511, Note_on_c, 0, 42, 49
2, 46524, Control_c, 0, 64, 0
2, 46550, Control_c, 0, 64, 127
2, 46583, Note_off_c, 0, 49, 64
2, 46590, Note_off_c, 0, 42, 64
2, 46684, Note_on_c, 0, 77, 55
2, 46691, Note_on_c, 0, 49, 46
2, 46691, Note_on_c, 0, 42, 44
2, 46705, Note_off_c, 0, 64, 64
2, 46742, Note_off_c, 0, 77, 64
2, 46752, Note_off_c, 0, 49, 64
2, 46756, Note_off_c, 0, 42, 64
2, 46811, Note_on_c, 0, 77, 39
2, 46831, Control_c, 0, 64, 0
2, 46842, Control_c, 0, 64, 127
2, 46847, Note_on_c, 0, 76, 57
2, 46848, Note_on_c, 0, 49, 45
2, 46856, Note_on_c, 0, 42, 36
2, 46863, Note_off_c, 0, 77, 64
2, 46891, Control_c, 0, 64, 0
2, 46902, Control_c, 0, 64, 127
2, 46914, Note_off_c, 0, 49, 64
2, 46916, Note_off_c, 0, 42, 64
2, 47018, Note_on_c, 0, 73, 49
2, 47019, Note_on_c, 0, 49, 42
2, 47029, Note_on_c, 0, 42, 35
2, 47038, Note_off_c, 0, 76, 64
2, 47095, Note_off_c, 0, 49, 64
2, 47097, Note_off_c, 0, 42, 64
2, 47108, Note_on_c, 0, 72, 50
2, 47132, Note_off_c, 0, 73, 64
2, 47188, Note_on_c, 0, 49, 42
2, 47193, Note_on_c, 0, 70, 40
2, 47196, Note_on_c, 0, 42, 32
2, 47216, Note_off_c, 0, 72, 64
2, 47254, Note_off_c, 0, 49, 64
2, 47257, Note_off_c, 0, 42, 64
2, 47267, Note_on_c, 0, 73, 44
2, 47286, Note_off_c, 0, 70, 64
2, 47348, Note_on_c, 0, 72, 45
2, 47368, Note_off_c, 0, 73, 64
2, 47374, Note_on_c, 0, 42, 40
2, 47379, Note_on_c, 0, 73, 46
2, 47386, Note_on_c, 0, 49, 31
2, 47389, Note_off_c, 0, 72, 64
2, 47414, Note_on_c, 0, 72, 49
2, 47422, Note_off_c, 0, 73, 64
2, 47443, Note_on_c, 0, 73, 52
2, 47447, Note_off_c, 0, 42, 64
2, 47453, Note_off_c, 0, 72, 64
2, 47453, Note_off_c, 0, 49, 64
2, 47469, Note_on_c, 0, 72, 53
2, 47487, Note_off_c, 0, 73, 64
2, 47518, Note_on_c, 0, 73, 41
2, 47527, Note_off_c, 0, 72, 64
2, 47536, Control_c, 0, 64, 0
2, 47568, Control_c, 0, 64, 127
2, 47568, Note_on_c, 0, 49, 44
2, 47572, Note_on_c, 0, 70, 45
2, 47576, Note_on_c, 0, 42, 48
2, 47582, Note_off_c, 0, 73, 64
2, 47596, Control_c, 0, 64, 0
2, 47628, Control_c, 0, 64, 127
2, 47641, Note_off_c, 0, 49, 64
2, 47648, Note_off_c, 0, 42, 64
2, 47665, Note_on_c, 0, 64, 46
2, 47692, Note_off_c, 0, 70, 64
2, 47711, Control_c, 0, 64, 0
2, 47727, Control_c, 0, 64, 127
2, 47757, Note_on_c, 0, 77, 54
2, 47763, Note_on_c, 0, 49, 49
2, 47767, Note_on_c, 0, 42, 45
2, 47771, Control_c, 0, 64, 0
2, 47787, Control_c, 0, 64, 127
2, 47798, Note_off_c, 0, 64, 64
2, 47817, Note_off_c, 0, 77, 64
2, 47822, Note_off_c, 0, 49, 64
2, 47829, Note_off_c, 0, 42, 64
2, 47901, Note_on_c, 0, 77, 45
2, 47944, Note_on_c, 0, 49, 65
2, 47945, Note_on_c, 0, 42, 65
2, 47950, Note_on_c, 0, 76, 57
2, 47959, Note_off_c, 0, 77, 64
2, 48061, Note_off_c, 0, 49, 64
2, 48070, Note_off_c, 0, 42, 64
2, 48153, Note_on_c, 0, 42, 40
2, 48157, Note_on_c, 0, 73, 58
2, 48161, Note_on_c, 0, 49, 36
2, 48193, Note_off_c, 0, 76, 64
2, 48294, Note_off_c, 0, 42, 64
2, 48300, Note_off_c, 0, 49, 64
2, 48306, Note_on_c, 0, 72, 52
2, 48340, Note_off_c, 0, 73, 64
2, 48345, Control_c, 0, 64, 0
2, 48373, Note_on_c, 0, 70, 55
2, 48375, Control_c, 0, 64, 127
2, 48378, Note_on_c, 0, 49, 44
2, 48382, Note_on_c, 0, 41, 37
2, 48392, Note_off_c, 0, 72, 64
2, 48405, Control_c, 0, 64, 0
2, 48435, Control_c, 0, 64, 127
2, 48467, Note_on_c, 0, 72, 54
2, 48472, Note_off_c, 0, 70, 64
2, 48536, Note_on_c, 0, 70, 41
2, 48556, Note_off_c, 0, 72, 64
2, 48611, Note_off_c, 0, 49, 64
2, 48630, Control_c, 0, 64, 0
2, 48652, Note_on_c, 0, 69, 54
2, 48667, Note_on_c, 0, 48, 46
2, 48690, Control_c, 0, 64, 0
2, 48696, Note_off_c, 0, 70, 64
2, 48741, Control_c, 0, 64, 127
2, 48801, Control_c, 0, 64, 127
2, 48927, Note_off_c, 0, 41, 64
2, 49105, Note_on_c, 0, 67, 58
2, 49127, Note_off_c, 0, 69, 64
2, 49210, Control_c, 0, 64, 0
2, 49250, Control_c, 0, 64, 127
2, 49269, Note_on_c, 0, 65, 57
2, 49270, Control_c, 0, 64, 0
2, 49276, Note_on_c, 0, 41, 57
2, 49282, Note_off_c, 0, 67, 64
2, 49289, Note_off_c, 0, 48, 64
2, 49308, Note_off_c, 0, 41, 64
2, 49310, Control_c, 0, 64, 127
2, 49369, Note_off_c, 0, 65, 64
2, 49435, Control_c, 0, 64, 0
2, 49448, Note_on_c, 0, 65, 54
2, 49476, Note_on_c, 0, 67, 54
2, 49478, Control_c, 0, 64, 127
2, 49487, Note_on_c, 0, 63, 57
2, 49493, Note_on_c, 0, 53, 22
2, 49495, Note_on_c, 0, 60, 52
2, 49495, Control_c, 0, 64, 0
2, 49516, Note_off_c, 0, 65, 64
2, 49526, Note_off_c, 0, 63, 64
2, 49530, Note_off_c, 0, 53, 64
2, 49532, Note_off_c, 0, 60, 64
2, 49538, Control_c, 0, 64, 127
2, 49596, Control_c, 0, 64, 0
2, 49620, Control_c, 0, 64, 127
2, 49656, Note_on_c, 0, 69, 62
2, 49656, Control_c, 0, 64, 0
2, 49662, Note_on_c, 0, 63, 54
2, 49666, Note_on_c, 0, 53, 45
2, 49668, Note_on_c, 0, 60, 36
2, 49676, Note_off_c, 0, 67, 64
2, 49680, Control_c, 0, 64, 127
2, 49697, Note_off_c, 0, 60, 64
2, 49697, Note_off_c, 0, 53, 64
2, 49701, Note_off_c, 0, 63, 64
2, 49759, Control_c, 0, 64, 0
2, 49783, Control_c, 0, 64, 127
2, 49809, Note_on_c, 0, 70, 62
2, 49811, Note_on_c, 0, 46, 54
2, 49819, Control_c, 0, 64, 0
2, 49840, Note_off_c, 0, 69, 64
2, 49843, Control_c, 0, 64, 127
2, 49858, Note_off_c, 0, 46, 64
2, 49920, Note_on_c, 0, 72, 65
2, 49920, Control_c, 0, 64, 0
2, 49923, Note_off_c, 0, 70, 64
2, 49936, Control_c, 0, 64, 127
2, 49960, Note_on_c, 0, 58, 37
2, 49963, Note_on_c, 0, 62, 28
2, 49968, Note_on_c, 0, 74, 71
2, 49976, Note_on_c, 0, 53, 52
2, 49980, Control_c, 0, 64, 0
2, 49989, Note_off_c, 0, 72, 64
2, 49996, Control_c, 0, 64, 127
2, 50002, Note_off_c, 0, 62, 64
2, 50006, Note_off_c, 0, 53, 64
2, 50006, Note_off_c, 0, 58, 64
2, 50120, Note_on_c, 0, 46, 67
2, 50121, Note_on_c, 0, 75, 70
2, 50146, Note_off_c, 0, 74, 64
2, 50173, Note_off_c, 0, 46, 64
2, 50219, Note_on_c, 0, 77, 61
2, 50221, Control_c, 0, 64, 0
2, 50226, Note_off_c, 0, 75, 64
2, 50260, Control_c, 0, 64, 127
2, 50281, Control_c, 0, 64, 0
2, 50288, Note_on_c, 0, 79, 72
2, 50288, Note_on_c, 0, 39, 67
2, 50292, Note_on_c, 0, 51, 68
2, 50310, Note_off_c, 0, 77, 64
2, 50320, Control_c, 0, 64, 127
2, 50432, Note_on_c, 0, 81, 68
2, 50440, Note_on_c, 0, 55, 52
2, 50450, Note_off_c, 0, 79, 64
2, 50480, Note_on_c, 0, 58, 54
2, 50520, Note_on_c, 0, 63, 76
2, 50528, Note_off_c, 0, 39, 64
2, 50532, Note_off_c, 0, 51, 64
2, 50534, Note_on_c, 0, 84, 85
2, 50541, Note_off_c, 0, 81, 64
2, 50552, Note_off_c, 0, 55, 64
2, 50560, Note_on_c, 0, 67, 36
2, 50572, Note_on_c, 0, 82, 87
2, 50577, Note_off_c, 0, 84, 64
2, 50600, Note_off_c, 0, 58, 64
2, 50610, Note_on_c, 0, 84, 70
2, 50617, Note_off_c, 0, 82, 64
2, 50644, Note_off_c, 0, 63, 64
2, 50645, Note_on_c, 0, 82, 83
2, 50661, Note_off_c, 0, 84, 64
2, 50661, Note_off_c, 0, 67, 64
2, 50672, Note_on_c, 0, 84, 63
2, 50676, Note_off_c, 0, 82, 64
2, 50695, Note_on_c, 0, 82, 79
2, 50718, Note_off_c, 0, 84, 64
2, 50726, Note_on_c, 0, 81, 75
2, 50739, Note_off_c, 0, 82, 64
2, 50812, Note_on_c, 0, 79, 63
2, 50839, Note_off_c, 0, 81, 64
2, 50865, Control_c, 0, 64, 0
2, 50880, Control_c, 0, 64, 127
2, 50892, Note_on_c, 0, 77, 59
2, 50899, Note_off_c, 0, 79, 64
2, 50915, Note_on_c, 0, 46, 62
2, 50920, Note_on_c, 0, 82, 80
2, 50925, Control_c, 0, 64, 0
2, 50933, Note_off_c, 0, 77, 64
2, 50940, Control_c, 0, 64, 127
2, 50951, Note_off_c, 0, 82, 64
2, 51002, Note_off_c, 0, 46, 64
2, 51039, Control_c, 0, 64, 0
2, 51057, Note_on_c, 0, 82, 59
2, 51066, Control_c, 0, 64, 127
2, 51080, Note_on_c, 0, 58, 53
2, 51083, Note_on_c, 0, 53, 48
2, 51087, Note_off_c, 0, 82, 64
2, 51087, Note_on_c, 0, 62, 52
2, 51089, Note_on_c, 0, 74, 66
2, 51099, Control_c, 0, 64, 0
2, 51122, Note_off_c, 0, 62, 64
2, 51125, Note_off_c, 0, 58, 64
2, 51126, Control_c, 0, 64, 127
2, 51131, Note_off_c, 0, 53, 64
2, 51244, Note_on_c, 0, 62, 52
2, 51248, Note_on_c, 0, 58, 55
2, 51248, Note_on_c, 0, 53, 40
2, 51272, Note_off_c, 0, 53, 64
2, 51272, Note_off_c, 0, 58, 64
2, 51276, Note_off_c, 0, 62, 64
2, 51338, Control_c, 0, 64, 0
2, 51368, Note_on_c, 0, 75, 55
2, 51387, Control_c, 0, 64, 127
2, 51388, Note_on_c, 0, 41, 57
2, 51391, Note_off_c, 0, 74, 64
2, 51398, Control_c, 0, 64, 0
2, 51404, Note_on_c, 0, 79, 59
2, 51423, Note_off_c, 0, 75, 64
2, 51436, Note_off_c, 0, 79, 64
2, 51447, Control_c, 0, 64, 127
2, 51475, Note_off_c, 0, 41, 64
2, 51484, Control_c, 0, 64, 0
2, 51528, Note_on_c, 0, 79, 54
2, 51537, Control_c, 0, 64, 127
2, 51544, Control_c, 0, 64, 0
2, 51556, Note_on_c, 0, 53, 45
2, 51560, Note_off_c, 0, 79, 64
2, 51560, Note_on_c, 0, 69, 61
2, 51564, Note_on_c, 0, 63, 57
2, 51567, Note_on_c, 0, 60, 41
2, 51597, Control_c, 0, 64, 127
2, 51610, Note_off_c, 0, 60, 64
2, 51612, Note_off_c, 0, 53, 64
2, 51617, Note_off_c, 0, 63, 64
2, 51710, Note_on_c, 0, 63, 52
2, 51716, Note_on_c, 0, 60, 41
2, 51717, Note_on_c, 0, 53, 48
2, 51749, Note_off_c, 0, 63, 64
2, 51755, Note_off_c, 0, 60, 64
2, 51764, Note_off_c, 0, 53, 64
2, 51815, Control_c, 0, 64, 0
2, 51830, Note_on_c, 0, 70, 57
2, 51835, Note_off_c, 0, 69, 64
2, 51844, Control_c, 0, 64, 127
2, 51862, Note_on_c, 0, 46, 66
2, 51875, Control_c, 0, 64, 0
2, 51883, Note_on_c, 0, 74, 46
2, 51892, Note_off_c, 0, 70, 64
2, 51904, Control_c, 0, 64, 127
2, 51907, Note_off_c, 0, 74, 64
2, 51949, Note_off_c, 0, 46, 64
2, 51950, Control_c, 0, 64, 0
2, 51996, Note_on_c, 0, 74, 55
2, 52003, Control_c, 0, 64, 127
2, 52010, Control_c, 0, 64, 0
2, 52020, Note_on_c, 0, 58, 44
2, 52021, Note_on_c, 0, 64, 62
2, 52024, Note_off_c, 0, 74, 64
2, 52028, Note_on_c, 0, 62, 45
2, 52029, Note_on_c, 0, 53, 32
2, 52063, Control_c, 0, 64, 127
2, 52077, Note_off_c, 0, 62, 64
2, 52080, Note_off_c, 0, 53, 64
2, 52080, Note_off_c, 0, 58, 64
2, 52177, Note_on_c, 0, 58, 50
2, 52182, Note_on_c, 0, 62, 44
2, 52185, Note_on_c, 0, 53, 37
2, 52216, Note_off_c, 0, 53, 64
2, 52222, Note_off_c, 0, 58, 64
2, 52226, Note_off_c, 0, 62, 64
2, 52272, Control_c, 0, 64, 0
2, 52314, Control_c, 0, 64, 127
2, 52328, Note_on_c, 0, 65, 57
2, 52332, Note_on_c, 0, 41, 45
2, 52332, Control_c, 0, 64, 0
2, 52354, Note_off_c, 0, 64, 64
2, 52374, Control_c, 0, 64, 127
2, 52419, Note_off_c, 0, 41, 64
2, 52440, Note_on_c, 0, 69, 52
2, 52457, Note_off_c, 0, 65, 64
2, 52465, Note_on_c, 0, 72, 66
2, 52475, Note_on_c, 0, 63, 53
2, 52480, Note_on_c, 0, 60, 41
2, 52484, Note_on_c, 0, 53, 29
2, 52511, Note_off_c, 0, 53, 64
2, 52512, Note_off_c, 0, 60, 64
2, 52524, Note_off_c, 0, 63, 64
2, 52558, Note_on_c, 0, 75, 44
2, 52575, Note_off_c, 0, 69, 64
2, 52608, Note_on_c, 0, 79, 65
2, 52622, Note_on_c, 0, 63, 50
2, 52625, Note_off_c, 0, 72, 64
2, 52630, Note_on_c, 0, 60, 48
2, 52634, Note_on_c, 0, 53, 35
2, 52640, Note_off_c, 0, 75, 64
2, 52661, Note_off_c, 0, 53, 64
2, 52662, Note_off_c, 0, 60, 64
2, 52662, Note_off_c, 0, 63, 64
2, 52703, Note_off_c, 0, 79, 64
2, 52706, Note_on_c, 0, 77, 70
2, 52730, Control_c, 0, 64, 0
2, 52737, Note_off_c, 0, 77, 64
2, 52767, Note_on_c, 0, 77, 72
2, 52780, Control_c, 0, 64, 127
2, 52784, Note_on_c, 0, 46, 68
2, 52790, Control_c, 0, 64, 0
2, 52804, Note_on_c, 0, 86, 82
2, 52828, Note_off_c, 0, 77, 64
2, 52840, Control_c, 0, 64, 127
2, 52871, Note_off_c, 0, 46, 64
2, 52884, Note_on_c, 0, 84, 64
2, 52924, Control_c, 0, 64, 0
2, 52941, Note_off_c, 0, 86, 64
2, 52956, Control_c, 0, 64, 127
2, 52960, Note_on_c, 0, 82, 52
2, 52964, Note_on_c, 0, 62, 53
2, 52964, Note_on_c, 0, 53, 55
2, 52967, Note_off_c, 0, 84, 64
2, 52968, Note_on_c, 0, 58, 60
2, 52984, Note_on_c, 0, 84, 70
2, 52984, Control_c, 0, 64, 0
2, 52995, Note_off_c, 0, 82, 64
2, 52996, Note_off_c, 0, 53, 64
2, 53005, Note_off_c, 0, 62, 64
2, 53012, Note_off_c, 0, 58, 64
2, 53016, Note_on_c, 0, 82, 70
2, 53016, Control_c, 0, 64, 127
2, 53041, Note_off_c, 0, 84, 64
2, 53068, Note_on_c, 0, 79, 68
2, 53083, Note_off_c, 0, 82, 64
2, 53131, Note_off_c, 0, 79, 64
2, 53145, Note_on_c, 0, 77, 75
2, 53145, Note_on_c, 0, 62, 55
2, 53145, Note_on_c, 0, 58, 59
2, 53151, Note_on_c, 0, 53, 47
2, 53184, Note_off_c, 0, 58, 64
2, 53187, Note_off_c, 0, 53, 64
2, 53192, Note_off_c, 0, 62, 64
2, 53252, Control_c, 0, 64, 0
2, 53275, Note_on_c, 0, 79, 67
2, 53276, Control_c, 0, 64, 127
2, 53297, Note_off_c, 0, 77, 64
2, 53303, Note_on_c, 0, 46, 68
2, 53308, Note_on_c, 0, 82, 78
2, 53312, Control_c, 0, 64, 0
2, 53322, Note_off_c, 0, 79, 64
2, 53336, Control_c, 0, 64, 127
2, 53340, Note_off_c, 0, 82, 64
2, 53390, Note_off_c, 0, 46, 64
2, 53413, Control_c, 0, 64, 0
2, 53439, Note_on_c, 0, 82, 63
2, 53471, Note_off_c, 0, 82, 64
2, 53471, Control_c, 0, 64, 127
2, 53473, Control_c, 0, 64, 0
2, 53486, Note_on_c, 0, 53, 58
2, 53494, Note_on_c, 0, 69, 76
2, 53494, Note_on_c, 0, 63, 63
2, 53496, Note_on_c, 0, 60, 59
2, 53531, Control_c, 0, 64, 127
2, 53532, Note_off_c, 0, 60, 64
2, 53537, Note_off_c, 0, 63, 64
2, 53540, Note_off_c, 0, 53, 64
2, 53676, Note_on_c, 0, 53, 55
2, 53681, Note_on_c, 0, 63, 60
2, 53684, Note_on_c, 0, 60, 59
2, 53707, Note_off_c, 0, 60, 64
2, 53712, Note_off_c, 0, 63, 64
2, 53714, Note_off_c, 0, 53, 64
2, 53805, Control_c, 0, 64, 0
2, 53817, Note_on_c, 0, 70, 66
2, 53837, Note_off_c, 0, 69, 64
2, 53846, Note_on_c, 0, 74, 68
2, 53854, Control_c, 0, 64, 127
2, 53864, Note_off_c, 0, 70, 64
2, 53864, Note_on_c, 0, 46, 68
2, 53865, Control_c, 0, 64, 0
2, 53874, Note_on_c, 0, 77, 74
2, 53900, Note_off_c, 0, 77, 64
2, 53900, Note_off_c, 0, 74, 64
2, 53914, Control_c, 0, 64, 127
2, 53951, Note_off_c, 0, 46, 64
2, 53989, Control_c, 0, 64, 0
2, 54015, Note_on_c, 0, 77, 63
2, 54033, Control_c, 0, 64, 127
2, 54044, Note_on_c, 0, 58, 63
2, 54048, Note_on_c, 0, 64, 78
2, 54048, Note_on_c, 0, 62, 60
2, 54048, Note_on_c, 0, 53, 46
2, 54049, Note_off_c, 0, 77, 64
2, 54049, Control_c, 0, 64, 0
2, 54085, Note_off_c, 0, 53, 64
2, 54087, Note_off_c, 0, 58, 64
2, 54090, Note_off_c, 0, 62, 64
2, 54093, Control_c, 0, 64, 127
2, 54255, Note_on_c, 0, 62, 60
2, 54258, Note_on_c, 0, 58, 60
2, 54258, Note_on_c, 0, 53, 59
2, 54287, Note_off_c, 0, 58, 64
2, 54298, Note_off_c, 0, 62, 64
2, 54301, Note_off_c, 0, 53, 64
2, 54410, Control_c, 0, 64, 0
2, 54447, Control_c, 0, 64, 127
2, 54461, Note_on_c, 0, 41, 64
2, 54464, Note_on_c, 0, 65, 81
2, 54470, Control_c, 0, 64, 0
2, 54484, Note_off_c, 0, 64, 64
2, 54507, Control_c, 0, 64, 127
2, 54548, Note_off_c, 0, 41, 64
2, 54608, Note_on_c, 0, 69, 64
2, 54661, Note_off_c, 0, 65, 64
2, 54663, Note_on_c, 0, 72, 63
2, 54672, Note_on_c, 0, 63, 51
2, 54679, Note_on_c, 0, 53, 40
2, 54702, Note_off_c, 0, 69, 64
2, 54712, Note_off_c, 0, 53, 64
2, 54725, Note_off_c, 0, 63, 64
2, 54763, Note_on_c, 0, 75, 63
2, 54788, Note_off_c, 0, 72, 64
2, 54862, Note_on_c, 0, 74, 60
2, 54869, Note_on_c, 0, 63, 60
2, 54869, Note_on_c, 0, 53, 58
2, 54872, Note_on_c, 0, 57, 51
2, 54885, Note_off_c, 0, 75, 64
2, 54887, Note_on_c, 0, 75, 59
2, 54900, Note_off_c, 0, 74, 64
2, 54905, Note_off_c, 0, 63, 64
2, 54913, Note_off_c, 0, 53, 64
2, 54923, Note_on_c, 0, 74, 55
2, 54925, Note_off_c, 0, 57, 64
2, 54935, Note_off_c, 0, 75, 64
2, 54990, Note_on_c, 0, 72, 55
2, 55013, Note_off_c, 0, 74, 64
2, 55062, Control_c, 0, 64, 0
2, 55084, Control_c, 0, 64, 127
2, 55106, Note_on_c, 0, 74, 71
2, 55108, Note_on_c, 0, 46, 74
2, 55118, Note_off_c, 0, 72, 64
2, 55122, Control_c, 0, 64, 0
2, 55144, Control_c, 0, 64, 127
2, 55220, Note_on_c, 0, 65, 71
2, 55224, Note_off_c, 0, 74, 64
2, 55232, Note_off_c, 0, 46, 64
2, 55385, Note_on_c, 0, 62, 74
2, 55387, Control_c, 0, 64, 0
2, 55389, Note_on_c, 0, 70, 90
2, 55389, Note_on_c, 0, 46, 59
2, 55394, Note_on_c, 0, 82, 90
2, 55394, Note_on_c, 0, 53, 66
2, 55426, Note_off_c, 0, 65, 64
2, 55447, Control_c, 0, 64, 0
2, 55964, Control_c, 0, 64, 127
2, 56024, Control_c, 0, 64, 127
2, 56534, Control_c, 0, 64, 0
2, 56548, Note_off_c, 0, 46, 64
2, 56554, Note_off_c, 0, 70, 64
2, 56555, Note_off_c, 0, 62, 64
2, 56559, Note_off_c, 0, 53, 64
2, 56559, Note_off_c, 0, 82, 64
2, 56594, Control_c, 0, 64, 0
2, 57902, Control_c, 0, 64, 0
2, 58066, Control_c, 0, 64, 127
2, 58184, Control_c, 0, 64, 0
2, 58240, Control_c, 0, 64, 127
2, 58494, Control_c, 0, 64, 0
