0, 0, Header, 1, 7, 240
1, 0, Start_track
1, 0, Time_signature, 4, 2, 24, 8
1, 0, Tempo, 500000
1, 0, Marker_t, "Chopin: Mazurka, Op. 41 No. 2- Andantino"
1, 0, End_track
2, 0, Start_track
2, 0, Title_t, "Chopin: Op. 41 No. 2"
2, 0, Program_c, 0, 0
2, 0, Control_c, 0, 7, 127
2, 109, Control_c, 0, 64, 127
2, 287, Note_on_c, 0, 71, 41
2, 289, Note_on_c, 0, 68, 39
2, 291, Note_on_c, 0, 64, 41
2, 291, Note_on_c, 0, 52, 39
2, 298, Note_on_c, 0, 62, 27
2, 597, Note_off_c, 0, 71, 64
2, 599, Note_off_c, 0, 68, 64
2, 601, Note_off_c, 0, 52, 64
2, 601, Note_off_c, 0, 64, 64
2, 608, Note_off_c, 0, 62, 64
2, 619, Note_on_c, 0, 71, 46
2, 622, Note_on_c, 0, 52, 40
2, 628, Note_on_c, 0, 64, 39
2, 629, Note_on_c, 0, 62, 40
2, 629, Note_on_c, 0, 68, 40
2, 978, Note_off_c, 0, 64, 64
2, 979, Note_off_c, 0, 68, 64
2, 979, Note_off_c, 0, 62, 64
2, 979, Note_on_c, 0, 72, 45
2, 984, Note_on_c, 0, 68, 33
2, 987, Note_off_c, 0, 52, 64
2, 990, Note_off_c, 0, 71, 64
2, 991, Note_on_c, 0, 64, 35
2, 991, Note_on_c, 0, 62, 39
2, 994, Note_on_c, 0, 52, 41
2, 1323, Note_on_c, 0, 71, 46
2, 1364, Note_off_c, 0, 72, 64
2, 1380, Note_off_c, 0, 71, 64
2, 1402, Note_off_c, 0, 64, 64
2, 1405, Note_off_c, 0, 68, 64
2, 1418, Note_off_c, 0, 62, 64
2, 1420, Note_on_c, 0, 71, 49
2, 1421, Note_off_c, 0, 52, 64
2, 1426, Note_on_c, 0, 60, 47
2, 1426, Note_on_c, 0, 64, 46
2, 1431, Note_on_c, 0, 52, 34
2, 1433, Note_on_c, 0, 45, 39
2, 1493, Control_c, 0, 64, 0
2, 1534, Control_c, 0, 64, 127
2, 1763, Note_on_c, 0, 69, 43
2, 1791, Note_off_c, 0, 71, 64
2, 1985, Control_c, 0, 64, 0
2, 2026, Control_c, 0, 64, 127
2, 2064, Note_on_c, 0, 68, 41
2, 2107, Note_off_c, 0, 69, 64
2, 2156, Note_on_c, 0, 69, 41
2, 2173, Control_c, 0, 64, 0
2, 2183, Note_off_c, 0, 68, 64
2, 2291, Control_c, 0, 64, 127
2, 2606, Note_off_c, 0, 69, 64
2, 2617, Note_off_c, 0, 64, 64
2, 2617, Note_off_c, 0, 60, 64
2, 2622, Note_off_c, 0, 52, 64
2, 2624, Note_off_c, 0, 45, 64
2, 2647, Note_on_c, 0, 63, 39
2, 2658, Note_on_c, 0, 66, 41
2, 2663, Note_on_c, 0, 47, 31
2, 2665, Control_c, 0, 64, 0
2, 2668, Note_on_c, 0, 57, 21
2, 2668, Note_on_c, 0, 59, 21
2, 2700, Control_c, 0, 64, 0
2, 2737, Control_c, 0, 64, 127
2, 2783, Control_c, 0, 64, 127
2, 2920, Note_off_c, 0, 66, 64
2, 2925, Note_off_c, 0, 63, 64
2, 2936, Note_off_c, 0, 47, 64
2, 2938, Note_off_c, 0, 59, 64
2, 2942, Note_off_c, 0, 57, 64
2, 2979, Note_on_c, 0, 63, 37
2, 2979, Note_on_c, 0, 59, 34
2, 2981, Note_on_c, 0, 66, 47
2, 2985, Note_on_c, 0, 57, 35
2, 2985, Note_on_c, 0, 47, 39
2, 3192, Control_c, 0, 64, 0
2, 3229, Control_c, 0, 64, 127
2, 3258, Note_off_c, 0, 63, 64
2, 3265, Note_off_c, 0, 57, 64
2, 3269, Note_off_c, 0, 47, 64
2, 3271, Note_off_c, 0, 59, 64
2, 3305, Note_on_c, 0, 63, 43
2, 3309, Note_on_c, 0, 67, 56
2, 3309, Note_on_c, 0, 59, 39
2, 3309, Note_on_c, 0, 57, 40
2, 3318, Note_on_c, 0, 47, 44
2, 3319, Note_off_c, 0, 66, 64
2, 3358, Control_c, 0, 64, 0
2, 3370, Control_c, 0, 64, 127
2, 3560, Note_on_c, 0, 66, 45
2, 3581, Note_off_c, 0, 63, 64
2, 3584, Note_off_c, 0, 59, 64
2, 3585, Note_off_c, 0, 67, 64
2, 3586, Note_off_c, 0, 57, 64
2, 3592, Note_off_c, 0, 47, 64
2, 3626, Note_off_c, 0, 66, 64
2, 3662, Note_on_c, 0, 57, 43
2, 3663, Note_on_c, 0, 60, 44
2, 3666, Note_on_c, 0, 66, 43
2, 3672, Note_on_c, 0, 40, 39
2, 3685, Note_on_c, 0, 52, 26
2, 3714, Control_c, 0, 64, 0
2, 3745, Control_c, 0, 64, 127
2, 3837, Note_on_c, 0, 64, 42
2, 3850, Control_c, 0, 64, 0
2, 3862, Control_c, 0, 64, 127
2, 3865, Note_off_c, 0, 66, 64
2, 3910, Note_off_c, 0, 57, 64
2, 3911, Note_off_c, 0, 60, 64
2, 3960, Note_off_c, 0, 64, 64
2, 3972, Note_on_c, 0, 66, 42
2, 4008, Note_on_c, 0, 59, 39
2, 4018, Note_on_c, 0, 55, 33
2, 4018, Note_on_c, 0, 64, 42
2, 4045, Note_off_c, 0, 66, 64
2, 4072, Control_c, 0, 64, 0
2, 4172, Note_on_c, 0, 63, 21
2, 4190, Note_off_c, 0, 64, 64
2, 4206, Control_c, 0, 64, 0
2, 4237, Control_c, 0, 64, 127
2, 4363, Note_on_c, 0, 64, 28
2, 4372, Note_off_c, 0, 63, 64
2, 4483, Control_c, 0, 64, 127
2, 4564, Control_c, 0, 64, 0
2, 4774, Note_off_c, 0, 64, 64
2, 4781, Note_off_c, 0, 59, 64
2, 4789, Note_off_c, 0, 40, 64
2, 4802, Note_off_c, 0, 52, 64
2, 4803, Note_off_c, 0, 55, 64
2, 4837, Note_on_c, 0, 62, 33
2, 4841, Note_on_c, 0, 68, 39
2, 4843, Note_on_c, 0, 71, 42
2, 4843, Note_on_c, 0, 64, 40
2, 4843, Note_on_c, 0, 52, 39
2, 4885, Control_c, 0, 64, 0
2, 4896, Control_c, 0, 64, 127
2, 4975, Control_c, 0, 64, 127
2, 5100, Note_off_c, 0, 62, 64
2, 5104, Note_off_c, 0, 68, 64
2, 5106, Note_off_c, 0, 64, 64
2, 5109, Note_off_c, 0, 52, 64
2, 5109, Note_off_c, 0, 71, 64
2, 5167, Note_on_c, 0, 62, 42
2, 5170, Note_on_c, 0, 71, 49
2, 5170, Note_on_c, 0, 64, 44
2, 5174, Note_on_c, 0, 68, 43
2, 5174, Note_on_c, 0, 52, 42
2, 5377, Control_c, 0, 64, 0
2, 5388, Control_c, 0, 64, 127
2, 5408, Note_off_c, 0, 64, 64
2, 5415, Note_off_c, 0, 68, 64
2, 5423, Note_off_c, 0, 62, 64
2, 5430, Note_off_c, 0, 52, 64
2, 5484, Note_on_c, 0, 64, 45
2, 5484, Note_on_c, 0, 68, 44
2, 5488, Note_on_c, 0, 52, 43
2, 5488, Note_on_c, 0, 72, 49
2, 5489, Note_on_c, 0, 62, 48
2, 5523, Note_off_c, 0, 71, 64
2, 5733, Note_on_c, 0, 71, 45
2, 5755, Note_off_c, 0, 72, 64
2, 5772, Note_off_c, 0, 68, 64
2, 5772, Note_off_c, 0, 64, 64
2, 5776, Note_off_c, 0, 52, 64
2, 5776, Note_off_c, 0, 62, 64
2, 5795, Note_off_c, 0, 71, 64
2, 5892, Note_on_c, 0, 64, 45
2, 5894, Note_on_c, 0, 76, 49
2, 5894, Note_on_c, 0, 68, 48
2, 5894, Note_on_c, 0, 62, 43
2, 5904, Note_on_c, 0, 45, 43
2, 5904, Note_on_c, 0, 52, 45
2, 5960, Control_c, 0, 64, 0
2, 5996, Control_c, 0, 64, 127
2, 6096, Note_on_c, 0, 71, 49
2, 6127, Note_off_c, 0, 76, 64
2, 6147, Note_off_c, 0, 64, 64
2, 6149, Note_off_c, 0, 62, 64
2, 6149, Note_off_c, 0, 68, 64
2, 6208, Note_off_c, 0, 71, 64
2, 6218, Note_on_c, 0, 69, 54
2, 6247, Note_on_c, 0, 71, 52
2, 6261, Note_off_c, 0, 69, 64
2, 6291, Note_on_c, 0, 69, 47
2, 6298, Note_on_c, 0, 60, 34
2, 6301, Note_off_c, 0, 71, 64
2, 6314, Control_c, 0, 64, 0
2, 6376, Control_c, 0, 64, 127
2, 6452, Control_c, 0, 64, 0
2, 6453, Note_on_c, 0, 68, 49
2, 6461, Note_off_c, 0, 69, 64
2, 6488, Control_c, 0, 64, 127
2, 6604, Note_on_c, 0, 69, 49
2, 6617, Control_c, 0, 64, 0
2, 6628, Note_off_c, 0, 68, 64
2, 6732, Control_c, 0, 64, 127
2, 6806, Control_c, 0, 64, 0
2, 6854, Note_off_c, 0, 52, 64
2, 6854, Note_off_c, 0, 45, 64
2, 6868, Control_c, 0, 64, 127
2, 6958, Note_on_c, 0, 72, 41
2, 6980, Note_off_c, 0, 69, 64
2, 7109, Control_c, 0, 64, 0
2, 7109, Note_on_c, 0, 55, 36
2, 7111, Note_on_c, 0, 67, 40
2, 7131, Note_off_c, 0, 60, 64
2, 7150, Note_off_c, 0, 72, 64
2, 7222, Control_c, 0, 64, 0
2, 7224, Control_c, 0, 64, 127
2, 7262, Note_on_c, 0, 53, 28
2, 7271, Note_on_c, 0, 65, 39
2, 7281, Note_off_c, 0, 55, 64
2, 7290, Note_off_c, 0, 67, 64
2, 7412, Control_c, 0, 64, 127
2, 7580, Note_off_c, 0, 65, 64
2, 7584, Note_on_c, 0, 52, 36
2, 7586, Note_on_c, 0, 64, 34
2, 7609, Control_c, 0, 64, 0
2, 7616, Note_off_c, 0, 53, 64
2, 7714, Control_c, 0, 64, 0
2, 7836, Note_on_c, 0, 67, 41
2, 7836, Note_on_c, 0, 55, 28
2, 7845, Note_off_c, 0, 64, 64
2, 7857, Note_off_c, 0, 52, 64
2, 7896, Note_on_c, 0, 64, 41
2, 7900, Note_on_c, 0, 52, 41
2, 7904, Control_c, 0, 64, 127
2, 7919, Note_off_c, 0, 55, 64
2, 7919, Note_off_c, 0, 67, 64
2, 7954, Control_c, 0, 64, 127
2, 8101, Control_c, 0, 64, 0
2, 8304, Note_on_c, 0, 55, 22
2, 8308, Note_on_c, 0, 47, 21
2, 8310, Note_on_c, 0, 59, 34
2, 8312, Note_on_c, 0, 40, 28
2, 8401, Control_c, 0, 64, 0
2, 8433, Control_c, 0, 64, 127
2, 8446, Control_c, 0, 64, 127
2, 8631, Note_off_c, 0, 64, 64
2, 8870, Note_on_c, 0, 71, 39
2, 8893, Control_c, 0, 64, 0
2, 8925, Control_c, 0, 64, 127
2, 8985, Note_off_c, 0, 55, 64
2, 8989, Note_off_c, 0, 47, 64
2, 8991, Note_off_c, 0, 59, 64
2, 8993, Note_off_c, 0, 40, 64
2, 9056, Note_off_c, 0, 52, 64
2, 9123, Note_off_c, 0, 71, 64
2, 9189, Note_on_c, 0, 71, 45
2, 9504, Note_off_c, 0, 71, 64
2, 9543, Note_on_c, 0, 71, 46
2, 9549, Note_on_c, 0, 68, 39
2, 9549, Note_on_c, 0, 64, 40
2, 9549, Note_on_c, 0, 62, 35
2, 9554, Note_on_c, 0, 52, 33
2, 9595, Control_c, 0, 64, 0
2, 9626, Control_c, 0, 64, 127
2, 9904, Note_off_c, 0, 64, 64
2, 9913, Note_off_c, 0, 68, 64
2, 9919, Note_off_c, 0, 62, 64
2, 9938, Note_off_c, 0, 52, 64
2, 9948, Note_on_c, 0, 68, 43
2, 9949, Note_on_c, 0, 72, 50
2, 9949, Note_on_c, 0, 64, 44
2, 9955, Note_on_c, 0, 62, 43
2, 9955, Note_on_c, 0, 52, 42
2, 9964, Note_off_c, 0, 71, 64
2, 10087, Control_c, 0, 64, 0
2, 10118, Control_c, 0, 64, 127
2, 10299, Note_on_c, 0, 71, 46
2, 10313, Note_off_c, 0, 52, 64
2, 10313, Note_off_c, 0, 62, 64
2, 10323, Note_off_c, 0, 64, 64
2, 10329, Note_off_c, 0, 68, 64
2, 10337, Note_off_c, 0, 72, 64
2, 10352, Note_off_c, 0, 71, 64
2, 10387, Note_on_c, 0, 71, 52
2, 10392, Note_on_c, 0, 60, 39
2, 10392, Note_on_c, 0, 52, 41
2, 10394, Note_on_c, 0, 64, 49
2, 10398, Note_on_c, 0, 45, 35
2, 10440, Control_c, 0, 64, 0
2, 10498, Control_c, 0, 64, 127
2, 10712, Note_on_c, 0, 69, 41
2, 10737, Note_off_c, 0, 71, 64
2, 10745, Control_c, 0, 64, 0
2, 10768, Control_c, 0, 64, 127
2, 10932, Control_c, 0, 64, 0
2, 10950, Note_on_c, 0, 68, 48
2, 10976, Note_off_c, 0, 69, 64
2, 10990, Control_c, 0, 64, 127
2, 11026, Note_on_c, 0, 69, 44
2, 11049, Note_off_c, 0, 68, 64
2, 11071, Control_c, 0, 64, 0
2, 11115, Control_c, 0, 64, 127
2, 11237, Control_c, 0, 64, 0
2, 11260, Control_c, 0, 64, 127
2, 11285, Note_off_c, 0, 52, 64
2, 11285, Note_off_c, 0, 60, 64
2, 11287, Note_off_c, 0, 64, 64
2, 11291, Note_off_c, 0, 45, 64
2, 11360, Note_on_c, 0, 59, 22
2, 11360, Note_on_c, 0, 47, 40
2, 11362, Note_on_c, 0, 66, 44
2, 11364, Note_on_c, 0, 63, 43
2, 11364, Note_on_c, 0, 57, 21
2, 11388, Note_off_c, 0, 69, 64
2, 11406, Control_c, 0, 64, 0
2, 11448, Control_c, 0, 64, 127
2, 11563, Control_c, 0, 64, 0
2, 11607, Note_off_c, 0, 59, 64
2, 11607, Control_c, 0, 64, 127
2, 11615, Note_off_c, 0, 66, 64
2, 11617, Note_off_c, 0, 63, 64
2, 11620, Note_off_c, 0, 57, 64
2, 11638, Note_off_c, 0, 47, 64
2, 11663, Note_on_c, 0, 66, 46
2, 11664, Note_on_c, 0, 59, 39
2, 11668, Note_on_c, 0, 63, 41
2, 11673, Note_on_c, 0, 57, 40
2, 11677, Note_on_c, 0, 47, 43
2, 11712, Control_c, 0, 64, 0
2, 11745, Control_c, 0, 64, 127
2, 11898, Control_c, 0, 64, 0
2, 11905, Note_off_c, 0, 63, 64
2, 11911, Note_off_c, 0, 59, 64
2, 11913, Note_off_c, 0, 57, 64
2, 11940, Note_off_c, 0, 47, 64
2, 11940, Control_c, 0, 64, 127
2, 11964, Note_on_c, 0, 63, 43
2, 11964, Note_on_c, 0, 59, 39
2, 11966, Note_on_c, 0, 67, 49
2, 11972, Note_on_c, 0, 57, 42
2, 11976, Note_on_c, 0, 47, 41
2, 11991, Note_off_c, 0, 66, 64
2, 12003, Control_c, 0, 64, 0
2, 12025, Control_c, 0, 64, 127
2, 12169, Note_off_c, 0, 63, 64
2, 12174, Note_off_c, 0, 59, 64
2, 12182, Note_off_c, 0, 57, 64
2, 12194, Note_on_c, 0, 66, 45
2, 12204, Control_c, 0, 64, 0
2, 12210, Note_off_c, 0, 67, 64
2, 12237, Control_c, 0, 64, 127
2, 12253, Note_off_c, 0, 66, 64
2, 12259, Note_off_c, 0, 47, 64
2, 12295, Note_on_c, 0, 66, 40
2, 12302, Note_on_c, 0, 60, 45
2, 12302, Note_on_c, 0, 57, 44
2, 12315, Note_on_c, 0, 40, 39
2, 12325, Note_on_c, 0, 52, 29
2, 12344, Control_c, 0, 64, 0
2, 12387, Control_c, 0, 64, 127
2, 12495, Note_off_c, 0, 66, 64
2, 12495, Control_c, 0, 64, 0
2, 12502, Note_on_c, 0, 64, 39
2, 12517, Control_c, 0, 64, 127
2, 12604, Note_off_c, 0, 64, 64
2, 12606, Note_off_c, 0, 57, 64
2, 12606, Note_off_c, 0, 60, 64
2, 12630, Note_on_c, 0, 66, 40
2, 12675, Note_on_c, 0, 64, 42
2, 12676, Note_on_c, 0, 59, 34
2, 12686, Note_on_c, 0, 55, 27
2, 12712, Control_c, 0, 64, 0
2, 12715, Note_off_c, 0, 66, 64
2, 12828, Note_on_c, 0, 63, 39
2, 12836, Control_c, 0, 64, 0
2, 12870, Note_off_c, 0, 64, 64
2, 12879, Control_c, 0, 64, 127
2, 12957, Note_on_c, 0, 64, 44
2, 12977, Note_off_c, 0, 63, 64
2, 13074, Note_on_c, 0, 67, 44
2, 13104, Note_off_c, 0, 64, 64
2, 13204, Control_c, 0, 64, 0
2, 13232, Note_on_c, 0, 71, 45
2, 13257, Note_off_c, 0, 67, 64
2, 13277, Control_c, 0, 64, 127
2, 13355, Note_off_c, 0, 40, 64
2, 13365, Note_off_c, 0, 52, 64
2, 13379, Note_off_c, 0, 59, 64
2, 13397, Note_off_c, 0, 55, 64
2, 13510, Note_off_c, 0, 71, 64
2, 13569, Note_on_c, 0, 52, 43
2, 13576, Note_on_c, 0, 68, 41
2, 13578, Note_on_c, 0, 71, 49
2, 13578, Note_on_c, 0, 64, 42
2, 13588, Note_on_c, 0, 62, 41
2, 13611, Control_c, 0, 64, 0
2, 13641, Control_c, 0, 64, 127
2, 13769, Control_c, 0, 64, 127
2, 13876, Note_off_c, 0, 52, 64
2, 13914, Note_off_c, 0, 64, 64
2, 13920, Note_off_c, 0, 62, 64
2, 13932, Note_off_c, 0, 68, 64
2, 13975, Note_on_c, 0, 68, 40
2, 13975, Note_on_c, 0, 64, 43
2, 13980, Note_on_c, 0, 62, 43
2, 13981, Note_on_c, 0, 72, 49
2, 13985, Note_on_c, 0, 52, 40
2, 14008, Note_off_c, 0, 71, 64
2, 14018, Control_c, 0, 64, 0
2, 14030, Control_c, 0, 64, 127
2, 14103, Control_c, 0, 64, 0
2, 14133, Control_c, 0, 64, 127
2, 14280, Note_on_c, 0, 71, 43
2, 14293, Note_off_c, 0, 72, 64
2, 14313, Note_off_c, 0, 64, 64
2, 14313, Note_off_c, 0, 68, 64
2, 14318, Note_off_c, 0, 62, 64
2, 14323, Note_off_c, 0, 52, 64
2, 14386, Note_off_c, 0, 71, 64
2, 14452, Note_on_c, 0, 64, 27
2, 14458, Note_on_c, 0, 52, 37
2, 14458, Note_on_c, 0, 45, 34
2, 14460, Note_on_c, 0, 62, 27
2, 14466, Note_on_c, 0, 76, 53
2, 14466, Note_on_c, 0, 68, 39
2, 14510, Control_c, 0, 64, 0
2, 14520, Control_c, 0, 64, 0
2, 14522, Control_c, 0, 64, 127
2, 14561, Control_c, 0, 64, 127
2, 14671, Note_on_c, 0, 71, 47
2, 14687, Note_off_c, 0, 68, 64
2, 14688, Note_off_c, 0, 76, 64
2, 14719, Note_off_c, 0, 64, 64
2, 14727, Note_off_c, 0, 62, 64
2, 14772, Note_off_c, 0, 71, 64
2, 14790, Note_on_c, 0, 69, 52
2, 14815, Note_on_c, 0, 71, 40
2, 14833, Note_off_c, 0, 69, 64
2, 14866, Note_on_c, 0, 69, 47
2, 14868, Note_on_c, 0, 60, 26
2, 14877, Note_off_c, 0, 71, 64
2, 14884, Control_c, 0, 64, 0
2, 15012, Control_c, 0, 64, 0
2, 15019, Note_on_c, 0, 68, 49
2, 15026, Note_off_c, 0, 69, 64
2, 15038, Control_c, 0, 64, 127
2, 15053, Control_c, 0, 64, 127
2, 15165, Note_on_c, 0, 69, 46
2, 15170, Note_off_c, 0, 68, 64
2, 15204, Control_c, 0, 64, 0
2, 15297, Control_c, 0, 64, 127
2, 15376, Control_c, 0, 64, 0
2, 15481, Note_on_c, 0, 72, 42
2, 15503, Note_off_c, 0, 69, 64
2, 15530, Control_c, 0, 64, 127
2, 15566, Note_off_c, 0, 45, 64
2, 15566, Note_off_c, 0, 52, 64
2, 15630, Note_on_c, 0, 55, 35
2, 15632, Note_on_c, 0, 67, 41
2, 15644, Note_off_c, 0, 72, 64
2, 15663, Note_off_c, 0, 60, 64
2, 15684, Control_c, 0, 64, 0
2, 15696, Control_c, 0, 64, 0
2, 15789, Control_c, 0, 64, 127
2, 15805, Note_on_c, 0, 53, 39
2, 15813, Note_on_c, 0, 65, 39
2, 15817, Note_off_c, 0, 67, 64
2, 15821, Note_off_c, 0, 55, 64
2, 15896, Control_c, 0, 64, 127
2, 16124, Note_on_c, 0, 52, 34
2, 16125, Note_on_c, 0, 64, 37
2, 16152, Note_off_c, 0, 65, 64
2, 16152, Note_off_c, 0, 53, 64
2, 16176, Control_c, 0, 64, 0
2, 16379, Control_c, 0, 64, 0
2, 16388, Control_c, 0, 64, 127
2, 16388, Note_on_c, 0, 55, 31
2, 16390, Note_on_c, 0, 67, 36
2, 16394, Note_off_c, 0, 64, 64
2, 16399, Note_off_c, 0, 52, 64
2, 16455, Note_on_c, 0, 64, 37
2, 16461, Note_on_c, 0, 52, 34
2, 16479, Note_off_c, 0, 55, 64
2, 16481, Note_off_c, 0, 67, 64
2, 16534, Control_c, 0, 64, 127
2, 16836, Note_on_c, 0, 47, 26
2, 16838, Note_on_c, 0, 59, 33
2, 16838, Note_on_c, 0, 55, 26
2, 16838, Note_on_c, 0, 40, 22
2, 16871, Control_c, 0, 64, 0
2, 17026, Control_c, 0, 64, 127
2, 17143, Note_off_c, 0, 47, 64
2, 17145, Note_off_c, 0, 40, 64
2, 17145, Note_off_c, 0, 55, 64
2, 17145, Note_off_c, 0, 59, 64
2, 17252, Note_on_c, 0, 40, 19
2, 17254, Note_on_c, 0, 47, 17
2, 17256, Note_on_c, 0, 59, 21
2, 17256, Note_on_c, 0, 55, 17
2, 17737, Note_off_c, 0, 40, 64
2, 17741, Note_off_c, 0, 55, 64
2, 17741, Note_off_c, 0, 59, 64
2, 17742, Note_on_c, 0, 63, 54
2, 17745, Note_off_c, 0, 64, 64
2, 17751, Note_off_c, 0, 52, 64
2, 17762, Note_on_c, 0, 35, 29
2, 17781, Control_c, 0, 64, 0
2, 17824, Control_c, 0, 64, 127
2, 17912, Note_off_c, 0, 47, 64
2, 18060, Note_on_c, 0, 54, 41
2, 18065, Note_on_c, 0, 59, 33
2, 18073, Note_on_c, 0, 47, 42
2, 18273, Control_c, 0, 64, 0
2, 18296, Note_off_c, 0, 54, 64
2, 18301, Note_off_c, 0, 59, 64
2, 18309, Note_off_c, 0, 47, 64
2, 18316, Control_c, 0, 64, 127
2, 18332, Note_on_c, 0, 54, 32
2, 18336, Note_on_c, 0, 61, 49
2, 18336, Note_on_c, 0, 47, 31
2, 18337, Note_on_c, 0, 64, 52
2, 18341, Note_on_c, 0, 59, 25
2, 18375, Note_off_c, 0, 63, 64
2, 18385, Control_c, 0, 64, 0
2, 18429, Control_c, 0, 64, 127
2, 18582, Note_on_c, 0, 63, 55
2, 18583, Note_on_c, 0, 66, 54
2, 18610, Note_off_c, 0, 61, 64
2, 18611, Note_off_c, 0, 64, 64
2, 18657, Note_off_c, 0, 47, 64
2, 18671, Note_off_c, 0, 54, 64
2, 18685, Note_off_c, 0, 59, 64
2, 18734, Note_off_c, 0, 35, 64
2, 18785, Note_off_c, 0, 63, 64
2, 18786, Note_off_c, 0, 66, 64
2, 18816, Note_on_c, 0, 75, 64
2, 18822, Note_on_c, 0, 54, 39
2, 18825, Note_on_c, 0, 59, 42
2, 18829, Note_on_c, 0, 47, 39
2, 18834, Note_on_c, 0, 66, 39
2, 18834, Note_on_c, 0, 63, 51
2, 18864, Control_c, 0, 64, 0
2, 18877, Control_c, 0, 64, 0
2, 18896, Control_c, 0, 64, 127
2, 18921, Control_c, 0, 64, 127
2, 19007, Note_off_c, 0, 47, 64
2, 19014, Note_off_c, 0, 63, 64
2, 19014, Note_off_c, 0, 66, 64
2, 19017, Note_off_c, 0, 54, 64
2, 19020, Note_off_c, 0, 59, 64
2, 19063, Note_on_c, 0, 66, 51
2, 19063, Note_on_c, 0, 63, 51
2, 19067, Note_on_c, 0, 54, 39
2, 19073, Note_on_c, 0, 59, 47
2, 19073, Note_on_c, 0, 47, 48
2, 19249, Note_off_c, 0, 75, 64
2, 19283, Note_on_c, 0, 75, 71
2, 19315, Note_off_c, 0, 75, 64
2, 19342, Note_on_c, 0, 75, 71
2, 19356, Control_c, 0, 64, 0
2, 19388, Control_c, 0, 64, 127
2, 19499, Note_off_c, 0, 63, 64
2, 19499, Note_off_c, 0, 66, 64
2, 19510, Note_off_c, 0, 47, 64
2, 19510, Note_off_c, 0, 59, 64
2, 19540, Note_off_c, 0, 54, 64
2, 19555, Note_on_c, 0, 47, 47
2, 19560, Note_on_c, 0, 64, 52
2, 19561, Note_on_c, 0, 68, 58
2, 19564, Note_on_c, 0, 61, 34
2, 19567, Note_on_c, 0, 54, 40
2, 19594, Control_c, 0, 64, 0
2, 19608, Control_c, 0, 64, 127
2, 19738, Note_off_c, 0, 75, 64
2, 19764, Note_off_c, 0, 47, 64
2, 19769, Note_off_c, 0, 64, 64
2, 19773, Note_off_c, 0, 61, 64
2, 19776, Note_off_c, 0, 54, 64
2, 19793, Note_on_c, 0, 75, 67
2, 19800, Note_on_c, 0, 70, 55
2, 19800, Note_on_c, 0, 64, 52
2, 19800, Note_on_c, 0, 61, 43
2, 19801, Note_off_c, 0, 68, 64
2, 19804, Note_on_c, 0, 47, 37
2, 19810, Note_on_c, 0, 54, 39
2, 19819, Note_on_c, 0, 47, 47
2, 19828, Control_c, 0, 64, 0
2, 19872, Control_c, 0, 64, 127
2, 19932, Note_off_c, 0, 47, 64
2, 19974, Note_off_c, 0, 75, 64
2, 20019, Note_on_c, 0, 75, 73
2, 20071, Note_off_c, 0, 47, 64
2, 20078, Note_off_c, 0, 54, 64
2, 20086, Control_c, 0, 64, 0
2, 20087, Note_off_c, 0, 70, 64
2, 20089, Note_off_c, 0, 61, 64
2, 20089, Note_off_c, 0, 64, 64
2, 20100, Control_c, 0, 64, 127
2, 20228, Note_on_c, 0, 47, 46
2, 20229, Note_on_c, 0, 61, 46
2, 20232, Note_on_c, 0, 68, 58
2, 20232, Note_on_c, 0, 64, 57
2, 20232, Note_on_c, 0, 54, 43
2, 20248, Control_c, 0, 64, 0
2, 20271, Control_c, 0, 64, 127
2, 20320, Control_c, 0, 64, 0
2, 20364, Control_c, 0, 64, 127
2, 20410, Note_off_c, 0, 47, 64
2, 20410, Note_off_c, 0, 75, 64
2, 20417, Note_off_c, 0, 54, 64
2, 20427, Note_off_c, 0, 61, 64
2, 20437, Note_off_c, 0, 64, 64
2, 20470, Note_on_c, 0, 75, 64
2, 20472, Note_on_c, 0, 47, 48
2, 20480, Note_on_c, 0, 70, 51
2, 20480, Note_on_c, 0, 61, 48
2, 20483, Note_on_c, 0, 54, 44
2, 20484, Note_on_c, 0, 64, 52
2, 20488, Note_off_c, 0, 68, 64
2, 20503, Note_on_c, 0, 47, 47
2, 20628, Note_off_c, 0, 47, 64
2, 20634, Note_off_c, 0, 54, 64
2, 20635, Note_off_c, 0, 75, 64
2, 20650, Note_off_c, 0, 70, 64
2, 20657, Note_off_c, 0, 64, 64
2, 20667, Note_off_c, 0, 61, 64
2, 20673, Note_off_c, 0, 47, 64
2, 20740, Control_c, 0, 64, 0
2, 20742, Note_on_c, 0, 75, 57
2, 20750, Note_on_c, 0, 63, 55
2, 20758, Note_on_c, 0, 71, 48
2, 20758, Note_on_c, 0, 35, 54
2, 20763, Control_c, 0, 64, 127
2, 20779, Control_c, 0, 64, 0
2, 20812, Control_c, 0, 64, 127
2, 20922, Note_off_c, 0, 75, 64
2, 20930, Note_off_c, 0, 63, 64
2, 20938, Note_off_c, 0, 71, 64
2, 21027, Note_on_c, 0, 47, 46
2, 21037, Note_on_c, 0, 59, 51
2, 21039, Note_on_c, 0, 63, 51
2, 21039, Note_on_c, 0, 54, 33
2, 21121, Note_off_c, 0, 35, 64
2, 21148, Note_on_c, 0, 61, 59
2, 21149, Note_off_c, 0, 59, 64
2, 21151, Note_off_c, 0, 63, 64
2, 21153, Note_on_c, 0, 64, 51
2, 21253, Note_on_c, 0, 66, 51
2, 21257, Note_on_c, 0, 70, 59
2, 21266, Control_c, 0, 64, 0
2, 21271, Control_c, 0, 64, 0
2, 21273, Note_off_c, 0, 61, 64
2, 21280, Note_off_c, 0, 64, 64
2, 21302, Control_c, 0, 64, 127
2, 21304, Control_c, 0, 64, 127
2, 21339, Note_on_c, 0, 64, 54
2, 21345, Note_off_c, 0, 66, 64
2, 21347, Note_on_c, 0, 68, 56
2, 21349, Note_off_c, 0, 70, 64
2, 21447, Note_on_c, 0, 66, 54
2, 21448, Note_on_c, 0, 63, 62
2, 21453, Note_off_c, 0, 68, 64
2, 21457, Note_off_c, 0, 64, 64
2, 21480, Control_c, 0, 64, 0
2, 21504, Control_c, 0, 64, 127
2, 21548, Note_off_c, 0, 47, 64
2, 21571, Note_off_c, 0, 54, 64
2, 21653, Note_off_c, 0, 66, 64
2, 21654, Note_off_c, 0, 63, 64
2, 21672, Note_on_c, 0, 59, 39
2, 21684, Note_on_c, 0, 75, 62
2, 21684, Note_on_c, 0, 63, 54
2, 21689, Note_on_c, 0, 47, 48
2, 21694, Note_on_c, 0, 54, 33
2, 21698, Note_on_c, 0, 66, 51
2, 21725, Control_c, 0, 64, 0
2, 21758, Control_c, 0, 64, 0
2, 21772, Control_c, 0, 64, 127
2, 21794, Control_c, 0, 64, 127
2, 21833, Note_off_c, 0, 59, 64
2, 21845, Note_off_c, 0, 63, 64
2, 21859, Note_off_c, 0, 66, 64
2, 21860, Note_off_c, 0, 47, 64
2, 21875, Note_off_c, 0, 54, 64
2, 21916, Note_on_c, 0, 66, 51
2, 21924, Note_on_c, 0, 63, 54
2, 21924, Note_on_c, 0, 54, 34
2, 21925, Note_on_c, 0, 59, 33
2, 21930, Note_on_c, 0, 47, 35
2, 21972, Control_c, 0, 64, 0
2, 21996, Control_c, 0, 64, 127
2, 22040, Note_off_c, 0, 75, 64
2, 22088, Note_on_c, 0, 75, 64
2, 22127, Note_off_c, 0, 75, 64
2, 22144, Note_on_c, 0, 75, 64
2, 22173, Control_c, 0, 64, 0
2, 22195, Control_c, 0, 64, 127
2, 22217, Control_c, 0, 64, 0
2, 22264, Control_c, 0, 64, 127
2, 22301, Note_off_c, 0, 66, 64
2, 22309, Note_off_c, 0, 54, 64
2, 22309, Note_off_c, 0, 63, 64
2, 22310, Note_off_c, 0, 59, 64
2, 22315, Note_off_c, 0, 47, 64
2, 22362, Note_on_c, 0, 68, 50
2, 22365, Note_on_c, 0, 65, 44
2, 22365, Note_on_c, 0, 58, 42
2, 22366, Note_on_c, 0, 51, 46
2, 22398, Control_c, 0, 64, 0
2, 22409, Control_c, 0, 64, 127
2, 22547, Note_off_c, 0, 51, 64
2, 22555, Note_off_c, 0, 75, 64
2, 22560, Note_off_c, 0, 58, 64
2, 22605, Note_on_c, 0, 66, 47
2, 22611, Note_on_c, 0, 75, 65
2, 22614, Note_on_c, 0, 58, 33
2, 22614, Note_on_c, 0, 51, 29
2, 22621, Note_on_c, 0, 70, 39
2, 22629, Note_off_c, 0, 68, 64
2, 22632, Note_off_c, 0, 65, 64
2, 22641, Control_c, 0, 64, 0
2, 22665, Control_c, 0, 64, 0
2, 22679, Control_c, 0, 64, 127
2, 22687, Control_c, 0, 64, 127
2, 22769, Note_off_c, 0, 75, 64
2, 22830, Note_on_c, 0, 75, 71
2, 22890, Control_c, 0, 64, 0
2, 22901, Control_c, 0, 64, 127
2, 22960, Note_off_c, 0, 51, 64
2, 22969, Note_off_c, 0, 58, 64
2, 22981, Note_off_c, 0, 66, 64
2, 22994, Note_off_c, 0, 70, 64
2, 23018, Note_on_c, 0, 68, 57
2, 23022, Note_on_c, 0, 58, 49
2, 23027, Note_on_c, 0, 65, 51
2, 23027, Note_on_c, 0, 51, 49
2, 23133, Control_c, 0, 64, 0
2, 23171, Control_c, 0, 64, 127
2, 23190, Note_off_c, 0, 58, 64
2, 23195, Note_off_c, 0, 51, 64
2, 23226, Note_off_c, 0, 75, 64
2, 23240, Note_on_c, 0, 66, 56
2, 23240, Note_on_c, 0, 58, 49
2, 23246, Note_off_c, 0, 68, 64
2, 23246, Note_on_c, 0, 51, 46
2, 23250, Note_on_c, 0, 75, 58
2, 23250, Note_on_c, 0, 70, 51
2, 23255, Note_off_c, 0, 65, 64
2, 23444, Note_off_c, 0, 51, 64
2, 23458, Note_off_c, 0, 58, 64
2, 23460, Note_off_c, 0, 75, 64
2, 23482, Note_on_c, 0, 35, 54
2, 23484, Note_on_c, 0, 75, 59
2, 23484, Note_on_c, 0, 71, 56
2, 23499, Control_c, 0, 64, 0
2, 23512, Note_off_c, 0, 70, 64
2, 23528, Control_c, 0, 64, 127
2, 23609, Note_off_c, 0, 66, 64
2, 23721, Note_on_c, 0, 63, 57
2, 23724, Note_on_c, 0, 59, 58
2, 23724, Note_on_c, 0, 54, 40
2, 23724, Note_on_c, 0, 47, 43
2, 23787, Note_off_c, 0, 71, 64
2, 23788, Note_off_c, 0, 75, 64
2, 23922, Note_off_c, 0, 47, 64
2, 23922, Note_off_c, 0, 54, 64
2, 23938, Note_off_c, 0, 35, 64
2, 23940, Note_on_c, 0, 64, 54
2, 23940, Note_on_c, 0, 61, 55
2, 23942, Note_off_c, 0, 59, 64
2, 23944, Note_on_c, 0, 54, 40
2, 23948, Note_on_c, 0, 47, 43
2, 23962, Note_off_c, 0, 63, 64
2, 24001, Control_c, 0, 64, 0
2, 24048, Control_c, 0, 64, 127
2, 24051, Control_c, 0, 64, 0
2, 24080, Control_c, 0, 64, 127
2, 24143, Note_off_c, 0, 61, 64
2, 24143, Note_off_c, 0, 64, 64
2, 24144, Note_on_c, 0, 63, 62
2, 24164, Note_on_c, 0, 66, 55
2, 24186, Control_c, 0, 64, 0
2, 24209, Control_c, 0, 64, 127
2, 24303, Note_off_c, 0, 47, 64
2, 24316, Note_off_c, 0, 54, 64
2, 24322, Note_off_c, 0, 63, 64
2, 24326, Note_off_c, 0, 66, 64
2, 24372, Note_on_c, 0, 54, 50
2, 24373, Note_on_c, 0, 75, 62
2, 24377, Note_on_c, 0, 59, 50
2, 24380, Note_on_c, 0, 66, 51
2, 24382, Note_on_c, 0, 47, 49
2, 24384, Note_on_c, 0, 63, 62
2, 24396, Control_c, 0, 64, 0
2, 24443, Control_c, 0, 64, 127
2, 24493, Control_c, 0, 64, 0
2, 24530, Note_off_c, 0, 47, 64
2, 24540, Control_c, 0, 64, 127
2, 24550, Note_off_c, 0, 54, 64
2, 24553, Note_off_c, 0, 59, 64
2, 24559, Note_off_c, 0, 66, 64
2, 24562, Note_off_c, 0, 63, 64
2, 24605, Note_on_c, 0, 66, 54
2, 24609, Note_on_c, 0, 63, 59
2, 24615, Note_on_c, 0, 54, 34
2, 24618, Note_on_c, 0, 59, 46
2, 24619, Note_on_c, 0, 47, 49
2, 24619, Control_c, 0, 64, 0
2, 24645, Control_c, 0, 64, 127
2, 24678, Control_c, 0, 64, 0
2, 24701, Control_c, 0, 64, 127
2, 24752, Note_off_c, 0, 75, 64
2, 24776, Note_on_c, 0, 75, 64
2, 24811, Note_off_c, 0, 75, 64
2, 24834, Note_on_c, 0, 75, 71
2, 24888, Control_c, 0, 64, 0
2, 24935, Control_c, 0, 64, 127
2, 24970, Note_off_c, 0, 63, 64
2, 24971, Note_off_c, 0, 47, 64
2, 24981, Note_off_c, 0, 66, 64
2, 24994, Note_off_c, 0, 54, 64
2, 24998, Note_off_c, 0, 59, 64
2, 25031, Note_on_c, 0, 68, 51
2, 25031, Note_on_c, 0, 64, 51
2, 25031, Note_on_c, 0, 47, 47
2, 25036, Note_on_c, 0, 61, 47
2, 25037, Note_on_c, 0, 54, 42
2, 25070, Control_c, 0, 64, 0
2, 25083, Control_c, 0, 64, 127
2, 25111, Control_c, 0, 64, 0
2, 25137, Control_c, 0, 64, 127
2, 25212, Note_off_c, 0, 47, 64
2, 25219, Note_off_c, 0, 75, 64
2, 25221, Note_off_c, 0, 61, 64
2, 25223, Note_off_c, 0, 54, 64
2, 25228, Note_off_c, 0, 64, 64
2, 25248, Note_on_c, 0, 70, 51
2, 25248, Note_on_c, 0, 64, 58
2, 25253, Note_on_c, 0, 61, 37
2, 25253, Note_on_c, 0, 47, 39
2, 25259, Note_on_c, 0, 75, 73
2, 25261, Note_on_c, 0, 54, 41
2, 25269, Note_off_c, 0, 68, 64
2, 25282, Control_c, 0, 64, 0
2, 25323, Control_c, 0, 64, 127
2, 25429, Note_off_c, 0, 75, 64
2, 25456, Note_on_c, 0, 75, 78
2, 25513, Note_off_c, 0, 47, 64
2, 25514, Note_off_c, 0, 64, 64
2, 25514, Note_off_c, 0, 70, 64
2, 25515, Note_off_c, 0, 54, 64
2, 25519, Note_off_c, 0, 61, 64
2, 25562, Control_c, 0, 64, 0
2, 25575, Control_c, 0, 64, 127
2, 25632, Note_on_c, 0, 64, 58
2, 25632, Note_on_c, 0, 47, 49
2, 25636, Note_on_c, 0, 68, 54
2, 25640, Note_on_c, 0, 61, 49
2, 25644, Note_on_c, 0, 54, 49
2, 25663, Control_c, 0, 64, 0
2, 25688, Control_c, 0, 64, 127
2, 25774, Control_c, 0, 64, 0
2, 25787, Note_off_c, 0, 47, 64
2, 25796, Note_off_c, 0, 64, 64
2, 25802, Note_off_c, 0, 54, 64
2, 25811, Note_off_c, 0, 61, 64
2, 25815, Control_c, 0, 64, 127
2, 25821, Note_off_c, 0, 75, 64
2, 25842, Note_on_c, 0, 75, 59
2, 25848, Note_on_c, 0, 64, 58
2, 25853, Note_on_c, 0, 70, 56
2, 25856, Note_on_c, 0, 47, 47
2, 25862, Note_on_c, 0, 61, 35
2, 25863, Note_on_c, 0, 54, 46
2, 25867, Note_off_c, 0, 68, 64
2, 26036, Note_off_c, 0, 64, 64
2, 26044, Note_off_c, 0, 47, 64
2, 26046, Note_off_c, 0, 75, 64
2, 26050, Note_off_c, 0, 61, 64
2, 26051, Note_off_c, 0, 54, 64
2, 26076, Note_on_c, 0, 63, 46
2, 26087, Note_on_c, 0, 75, 62
2, 26091, Note_on_c, 0, 35, 50
2, 26095, Note_on_c, 0, 71, 55
2, 26107, Control_c, 0, 64, 0
2, 26109, Note_off_c, 0, 70, 64
2, 26148, Control_c, 0, 64, 127
2, 26155, Control_c, 0, 64, 0
2, 26180, Control_c, 0, 64, 127
2, 26279, Note_off_c, 0, 63, 64
2, 26290, Note_off_c, 0, 75, 64
2, 26298, Note_off_c, 0, 71, 64
2, 26334, Note_on_c, 0, 63, 56
2, 26340, Note_on_c, 0, 59, 57
2, 26340, Note_on_c, 0, 47, 39
2, 26349, Note_on_c, 0, 54, 35
2, 26442, Note_off_c, 0, 35, 64
2, 26442, Note_on_c, 0, 61, 57
2, 26454, Note_on_c, 0, 64, 41
2, 26458, Note_off_c, 0, 63, 64
2, 26464, Note_off_c, 0, 59, 64
2, 26542, Note_on_c, 0, 66, 54
2, 26546, Note_on_c, 0, 70, 57
2, 26548, Note_off_c, 0, 61, 64
2, 26561, Note_off_c, 0, 64, 64
2, 26578, Control_c, 0, 64, 0
2, 26599, Control_c, 0, 64, 0
2, 26604, Control_c, 0, 64, 127
2, 26609, Note_on_c, 0, 68, 51
2, 26612, Note_off_c, 0, 66, 64
2, 26616, Note_off_c, 0, 70, 64
2, 26618, Note_on_c, 0, 64, 52
2, 26640, Control_c, 0, 64, 127
2, 26651, Note_off_c, 0, 54, 64
2, 26663, Note_off_c, 0, 47, 64
2, 26664, Note_on_c, 0, 63, 62
2, 26676, Note_on_c, 0, 66, 58
2, 26696, Note_off_c, 0, 68, 64
2, 26705, Note_off_c, 0, 64, 64
2, 26711, Note_off_c, 0, 63, 64
2, 26723, Note_off_c, 0, 66, 64
2, 26748, Note_on_c, 0, 66, 62
2, 26748, Note_on_c, 0, 63, 56
2, 26792, Control_c, 0, 64, 0
2, 26814, Control_c, 0, 64, 127
2, 26961, Note_off_c, 0, 63, 64
2, 26961, Note_off_c, 0, 66, 64
2, 27008, Control_c, 0, 64, 0
2, 27012, Note_on_c, 0, 75, 64
2, 27012, Note_on_c, 0, 63, 56
2, 27012, Note_on_c, 0, 47, 47
2, 27021, Note_on_c, 0, 54, 27
2, 27023, Note_on_c, 0, 66, 54
2, 27028, Note_on_c, 0, 59, 32
2, 27030, Control_c, 0, 64, 127
2, 27053, Control_c, 0, 64, 0
2, 27070, Control_c, 0, 64, 0
2, 27089, Control_c, 0, 64, 127
2, 27096, Control_c, 0, 64, 127
2, 27215, Note_off_c, 0, 47, 64
2, 27215, Note_off_c, 0, 63, 64
2, 27224, Note_off_c, 0, 54, 64
2, 27226, Note_off_c, 0, 66, 64
2, 27231, Note_off_c, 0, 59, 64
2, 27262, Note_on_c, 0, 54, 31
2, 27266, Note_on_c, 0, 66, 54
2, 27266, Note_on_c, 0, 63, 50
2, 27266, Note_on_c, 0, 47, 36
2, 27275, Note_on_c, 0, 59, 31
2, 27284, Control_c, 0, 64, 0
2, 27306, Control_c, 0, 64, 127
2, 27371, Note_off_c, 0, 75, 64
2, 27420, Note_on_c, 0, 75, 62
2, 27450, Note_off_c, 0, 75, 64
2, 27480, Note_on_c, 0, 75, 65
2, 27500, Control_c, 0, 64, 0
2, 27507, Control_c, 0, 64, 0
2, 27522, Control_c, 0, 64, 127
2, 27532, Control_c, 0, 64, 127
2, 27545, Control_c, 0, 64, 0
2, 27581, Control_c, 0, 64, 127
2, 27667, Note_off_c, 0, 54, 64
2, 27671, Note_off_c, 0, 47, 64
2, 27671, Note_off_c, 0, 63, 64
2, 27671, Note_off_c, 0, 66, 64
2, 27680, Note_off_c, 0, 59, 64
2, 27692, Note_on_c, 0, 68, 54
2, 27696, Note_on_c, 0, 65, 47
2, 27701, Note_on_c, 0, 58, 43
2, 27705, Note_on_c, 0, 51, 48
2, 27735, Control_c, 0, 64, 0
2, 27748, Control_c, 0, 64, 127
2, 27880, Note_off_c, 0, 75, 64
2, 27917, Note_off_c, 0, 58, 64
2, 27923, Note_off_c, 0, 51, 64
2, 27965, Note_on_c, 0, 51, 34
2, 27969, Note_on_c, 0, 75, 62
2, 27969, Note_on_c, 0, 58, 32
2, 27976, Note_on_c, 0, 66, 34
2, 27979, Note_on_c, 0, 70, 40
2, 27993, Note_off_c, 0, 68, 64
2, 27997, Note_off_c, 0, 65, 64
2, 27999, Control_c, 0, 64, 0
2, 28002, Control_c, 0, 64, 0
2, 28024, Control_c, 0, 64, 127
2, 28035, Control_c, 0, 64, 127
2, 28142, Note_off_c, 0, 75, 64
2, 28192, Note_on_c, 0, 75, 62
2, 28227, Control_c, 0, 64, 0
2, 28240, Control_c, 0, 64, 127
2, 28296, Note_off_c, 0, 58, 64
2, 28301, Note_off_c, 0, 51, 64
2, 28311, Note_off_c, 0, 66, 64
2, 28314, Note_off_c, 0, 70, 64
2, 28395, Note_on_c, 0, 68, 54
2, 28396, Note_on_c, 0, 65, 56
2, 28404, Note_on_c, 0, 58, 46
2, 28404, Note_on_c, 0, 51, 49
2, 28494, Control_c, 0, 64, 0
2, 28527, Control_c, 0, 64, 127
2, 28554, Note_off_c, 0, 75, 64
2, 28624, Note_off_c, 0, 58, 64
2, 28644, Note_off_c, 0, 51, 64
2, 28658, Note_on_c, 0, 75, 58
2, 28661, Note_on_c, 0, 66, 33
2, 28668, Note_on_c, 0, 58, 35
2, 28670, Note_on_c, 0, 70, 46
2, 28676, Note_on_c, 0, 51, 39
2, 28682, Note_off_c, 0, 68, 64
2, 28683, Note_off_c, 0, 65, 64
2, 28867, Note_off_c, 0, 75, 64
2, 28871, Note_off_c, 0, 58, 64
2, 28879, Note_off_c, 0, 51, 64
2, 28901, Note_off_c, 0, 66, 64
2, 28910, Note_off_c, 0, 70, 64
2, 28942, Note_on_c, 0, 75, 58
2, 28942, Note_on_c, 0, 44, 49
2, 28959, Control_c, 0, 64, 0
2, 29004, Control_c, 0, 64, 127
2, 29200, Note_on_c, 0, 76, 51
2, 29211, Note_on_c, 0, 63, 49
2, 29213, Note_on_c, 0, 56, 48
2, 29221, Note_on_c, 0, 72, 39
2, 29221, Note_on_c, 0, 66, 26
2, 29261, Note_off_c, 0, 44, 64
2, 29264, Note_off_c, 0, 75, 64
2, 29338, Note_off_c, 0, 63, 64
2, 29340, Note_off_c, 0, 56, 64
2, 29348, Note_off_c, 0, 66, 64
2, 29348, Note_off_c, 0, 72, 64
2, 29417, Note_on_c, 0, 66, 52
2, 29420, Note_on_c, 0, 72, 54
2, 29420, Note_on_c, 0, 63, 31
2, 29426, Note_on_c, 0, 56, 41
2, 29451, Control_c, 0, 64, 0
2, 29496, Control_c, 0, 64, 127
2, 29522, Note_on_c, 0, 75, 54
2, 29550, Note_off_c, 0, 76, 64
2, 29588, Note_off_c, 0, 75, 64
2, 29597, Note_on_c, 0, 73, 58
2, 29626, Note_on_c, 0, 75, 62
2, 29636, Note_off_c, 0, 73, 64
2, 29644, Note_off_c, 0, 66, 64
2, 29647, Note_off_c, 0, 63, 64
2, 29647, Note_off_c, 0, 72, 64
2, 29659, Note_on_c, 0, 49, 32
2, 29665, Note_off_c, 0, 56, 64
2, 29665, Note_on_c, 0, 66, 54
2, 29672, Note_on_c, 0, 73, 58
2, 29672, Note_on_c, 0, 57, 21
2, 29693, Note_off_c, 0, 75, 64
2, 29694, Control_c, 0, 64, 0
2, 29707, Control_c, 0, 64, 127
2, 29766, Note_off_c, 0, 73, 64
2, 29773, Note_on_c, 0, 72, 52
2, 29846, Note_off_c, 0, 72, 64
2, 29861, Note_off_c, 0, 66, 64
2, 29887, Note_on_c, 0, 73, 51
2, 29887, Note_on_c, 0, 56, 51
2, 29888, Note_on_c, 0, 64, 49
2, 29905, Note_off_c, 0, 57, 64
2, 29934, Control_c, 0, 64, 0
2, 29959, Control_c, 0, 64, 127
2, 30110, Note_off_c, 0, 56, 64
2, 30116, Note_off_c, 0, 64, 64
2, 30119, Note_on_c, 0, 55, 46
2, 30121, Note_on_c, 0, 71, 49
2, 30156, Control_c, 0, 64, 0
2, 30179, Control_c, 0, 64, 127
2, 30186, Control_c, 0, 64, 0
2, 30199, Control_c, 0, 64, 127
2, 30337, Note_off_c, 0, 73, 64
2, 30349, Note_on_c, 0, 75, 57
2, 30356, Note_on_c, 0, 70, 57
2, 30360, Note_on_c, 0, 42, 50
2, 30378, Control_c, 0, 64, 0
2, 30379, Note_off_c, 0, 71, 64
2, 30393, Note_off_c, 0, 55, 64
2, 30394, Control_c, 0, 64, 127
2, 30397, Note_off_c, 0, 49, 64
2, 30426, Control_c, 0, 64, 0
2, 30451, Control_c, 0, 64, 127
2, 30455, Note_on_c, 0, 73, 49
2, 30459, Note_off_c, 0, 75, 64
2, 30548, Note_on_c, 0, 59, 50
2, 30552, Note_on_c, 0, 68, 63
2, 30558, Note_on_c, 0, 64, 51
2, 30561, Note_on_c, 0, 54, 37
2, 30565, Note_off_c, 0, 73, 64
2, 30589, Note_off_c, 0, 70, 64
2, 30644, Note_on_c, 0, 66, 62
2, 30648, Control_c, 0, 64, 0
2, 30656, Note_on_c, 0, 58, 34
2, 30658, Note_off_c, 0, 42, 64
2, 30661, Note_off_c, 0, 68, 64
2, 30671, Control_c, 0, 64, 127
2, 30685, Note_off_c, 0, 59, 64
2, 30697, Note_off_c, 0, 64, 64
2, 30747, Note_on_c, 0, 64, 51
2, 30750, Note_on_c, 0, 56, 39
2, 30751, Note_on_c, 0, 71, 58
2, 30757, Note_off_c, 0, 58, 64
2, 30772, Note_off_c, 0, 66, 64
2, 30823, Note_off_c, 0, 54, 64
2, 30843, Note_on_c, 0, 73, 63
2, 30846, Note_on_c, 0, 54, 46
2, 30852, Note_off_c, 0, 56, 64
2, 30870, Control_c, 0, 64, 0
2, 30872, Note_off_c, 0, 71, 64
2, 30886, Control_c, 0, 64, 127
2, 30926, Note_off_c, 0, 64, 64
2, 30949, Note_off_c, 0, 54, 64
2, 30952, Note_on_c, 0, 75, 58
2, 30958, Note_on_c, 0, 47, 51
2, 30965, Note_off_c, 0, 73, 64
2, 30993, Control_c, 0, 64, 0
2, 31030, Control_c, 0, 64, 127
2, 31170, Note_on_c, 0, 63, 49
2, 31171, Note_on_c, 0, 54, 44
2, 31174, Note_on_c, 0, 59, 37
2, 31324, Note_off_c, 0, 63, 64
2, 31392, Note_off_c, 0, 54, 64
2, 31395, Note_off_c, 0, 59, 64
2, 31397, Note_on_c, 0, 46, 48
2, 31399, Note_on_c, 0, 63, 44
2, 31429, Note_off_c, 0, 47, 64
2, 31485, Control_c, 0, 64, 0
2, 31522, Control_c, 0, 64, 127
2, 31564, Note_off_c, 0, 63, 64
2, 31622, Note_on_c, 0, 71, 55
2, 31629, Note_on_c, 0, 44, 50
2, 31636, Note_off_c, 0, 75, 64
2, 31646, Note_off_c, 0, 46, 64
2, 31656, Control_c, 0, 64, 0
2, 31701, Control_c, 0, 64, 127
2, 31851, Note_on_c, 0, 73, 57
2, 31857, Note_on_c, 0, 63, 44
2, 31860, Note_on_c, 0, 68, 42
2, 31861, Note_on_c, 0, 59, 37
2, 31864, Note_on_c, 0, 53, 34
2, 31867, Note_off_c, 0, 71, 64
2, 31954, Note_off_c, 0, 68, 64
2, 31966, Note_off_c, 0, 63, 64
2, 32031, Note_off_c, 0, 59, 64
2, 32034, Note_off_c, 0, 53, 64
2, 32064, Note_on_c, 0, 68, 32
2, 32065, Note_on_c, 0, 41, 49
2, 32072, Note_on_c, 0, 63, 43
2, 32090, Note_off_c, 0, 44, 64
2, 32148, Control_c, 0, 64, 0
2, 32165, Note_off_c, 0, 68, 64
2, 32173, Note_off_c, 0, 63, 64
2, 32175, Note_on_c, 0, 71, 52
2, 32193, Control_c, 0, 64, 127
2, 32207, Note_off_c, 0, 73, 64
2, 32257, Note_off_c, 0, 71, 64
2, 32267, Note_on_c, 0, 70, 46
2, 32300, Note_on_c, 0, 71, 43
2, 32304, Note_off_c, 0, 70, 64
2, 32310, Note_on_c, 0, 46, 56
2, 32326, Note_on_c, 0, 70, 52
2, 32340, Note_off_c, 0, 41, 64
2, 32349, Note_off_c, 0, 71, 64
2, 32362, Control_c, 0, 64, 0
2, 32374, Control_c, 0, 64, 127
2, 32418, Note_on_c, 0, 69, 47
2, 32431, Note_off_c, 0, 70, 64
2, 32515, Note_on_c, 0, 70, 51
2, 32528, Note_on_c, 0, 68, 37
2, 32528, Note_on_c, 0, 58, 50
2, 32532, Note_on_c, 0, 62, 43
2, 32533, Note_off_c, 0, 69, 64
2, 32536, Note_on_c, 0, 53, 41
2, 32617, Note_off_c, 0, 68, 64
2, 32621, Note_off_c, 0, 62, 64
2, 32644, Note_off_c, 0, 58, 64
2, 32652, Note_off_c, 0, 53, 64
2, 32731, Note_on_c, 0, 41, 51
2, 32739, Note_on_c, 0, 68, 52
2, 32739, Note_on_c, 0, 62, 51
2, 32770, Control_c, 0, 64, 0
2, 32772, Note_off_c, 0, 46, 64
2, 32792, Control_c, 0, 64, 127
2, 32854, Control_c, 0, 64, 0
2, 32866, Control_c, 0, 64, 127
2, 32871, Note_off_c, 0, 62, 64
2, 32874, Note_off_c, 0, 68, 64
2, 32926, Note_off_c, 0, 70, 64
2, 32954, Note_on_c, 0, 70, 51
2, 32957, Note_on_c, 0, 40, 52
2, 32970, Note_off_c, 0, 41, 64
2, 32988, Control_c, 0, 64, 0
2, 33016, Control_c, 0, 64, 127
2, 33158, Note_on_c, 0, 71, 52
2, 33161, Note_on_c, 0, 61, 49
2, 33166, Note_on_c, 0, 52, 52
2, 33172, Note_off_c, 0, 70, 64
2, 33204, Note_off_c, 0, 40, 64
2, 33262, Control_c, 0, 64, 0
2, 33284, Control_c, 0, 64, 127
2, 33313, Note_off_c, 0, 61, 64
2, 33344, Note_on_c, 0, 67, 37
2, 33347, Note_off_c, 0, 71, 64
2, 33357, Note_on_c, 0, 39, 54
2, 33359, Note_on_c, 0, 61, 51
2, 33363, Note_off_c, 0, 52, 64
2, 33401, Note_off_c, 0, 67, 64
2, 33467, Note_on_c, 0, 67, 62
2, 33480, Control_c, 0, 64, 0
2, 33508, Control_c, 0, 64, 127
2, 33576, Note_on_c, 0, 70, 48
2, 33580, Note_on_c, 0, 44, 42
2, 33596, Note_off_c, 0, 39, 64
2, 33600, Note_off_c, 0, 67, 64
2, 33681, Note_on_c, 0, 69, 56
2, 33701, Note_off_c, 0, 70, 64
2, 33802, Note_on_c, 0, 68, 49
2, 33809, Note_on_c, 0, 59, 42
2, 33815, Note_on_c, 0, 51, 46
2, 33824, Note_off_c, 0, 69, 64
2, 33825, Control_c, 0, 64, 0
2, 33838, Note_off_c, 0, 61, 64
2, 33878, Control_c, 0, 64, 127
2, 33903, Note_off_c, 0, 44, 64
2, 34097, Note_on_c, 0, 61, 57
2, 34100, Note_on_c, 0, 66, 44
2, 34106, Note_on_c, 0, 54, 31
2, 34112, Note_on_c, 0, 46, 33
2, 34115, Note_off_c, 0, 59, 64
2, 34121, Note_off_c, 0, 51, 64
2, 34128, Note_off_c, 0, 68, 64
2, 34165, Control_c, 0, 64, 0
2, 34198, Control_c, 0, 64, 127
2, 34238, Note_on_c, 0, 64, 51
2, 34243, Note_off_c, 0, 66, 64
2, 34317, Control_c, 0, 64, 0
2, 34370, Control_c, 0, 64, 127
2, 34378, Note_off_c, 0, 64, 64
2, 34378, Note_on_c, 0, 63, 54
2, 34384, Note_on_c, 0, 35, 55
2, 34408, Control_c, 0, 64, 0
2, 34452, Control_c, 0, 64, 127
2, 34494, Note_off_c, 0, 54, 64
2, 34500, Note_off_c, 0, 46, 64
2, 34627, Note_on_c, 0, 54, 51
2, 34629, Note_on_c, 0, 47, 50
2, 34637, Note_on_c, 0, 59, 25
2, 34639, Note_off_c, 0, 61, 64
2, 34644, Control_c, 0, 64, 0
2, 34657, Control_c, 0, 64, 0
2, 34666, Control_c, 0, 64, 127
2, 34690, Control_c, 0, 64, 127
2, 34743, Note_off_c, 0, 35, 64
2, 34755, Note_off_c, 0, 59, 64
2, 34762, Note_off_c, 0, 47, 64
2, 34766, Note_off_c, 0, 54, 64
2, 34823, Note_on_c, 0, 64, 55
2, 34824, Note_on_c, 0, 61, 54
2, 34824, Note_on_c, 0, 59, 31
2, 34828, Note_on_c, 0, 54, 43
2, 34828, Note_on_c, 0, 47, 46
2, 34833, Note_off_c, 0, 63, 64
2, 34881, Control_c, 0, 64, 0
2, 34900, Control_c, 0, 64, 0
2, 34915, Control_c, 0, 64, 127
2, 34944, Control_c, 0, 64, 127
2, 35030, Note_on_c, 0, 66, 57
2, 35038, Note_on_c, 0, 63, 49
2, 35043, Note_off_c, 0, 64, 64
2, 35044, Note_off_c, 0, 61, 64
2, 35089, Note_off_c, 0, 59, 64
2, 35093, Note_off_c, 0, 47, 64
2, 35103, Note_off_c, 0, 54, 64
2, 35136, Control_c, 0, 64, 0
2, 35158, Control_c, 0, 64, 127
2, 35227, Note_off_c, 0, 63, 64
2, 35229, Note_off_c, 0, 66, 64
2, 35239, Note_on_c, 0, 75, 59
2, 35240, Note_on_c, 0, 66, 42
2, 35240, Note_on_c, 0, 63, 49
2, 35240, Note_on_c, 0, 59, 34
2, 35240, Note_on_c, 0, 54, 46
2, 35240, Note_on_c, 0, 47, 48
2, 35275, Control_c, 0, 64, 0
2, 35308, Control_c, 0, 64, 127
2, 35372, Note_off_c, 0, 59, 64
2, 35373, Control_c, 0, 64, 0
2, 35381, Note_off_c, 0, 47, 64
2, 35382, Note_off_c, 0, 66, 64
2, 35387, Note_off_c, 0, 63, 64
2, 35395, Note_off_c, 0, 54, 64
2, 35407, Control_c, 0, 64, 127
2, 35442, Note_on_c, 0, 66, 51
2, 35445, Note_on_c, 0, 63, 54
2, 35452, Note_on_c, 0, 54, 41
2, 35455, Note_on_c, 0, 47, 46
2, 35460, Note_on_c, 0, 59, 49
2, 35535, Note_off_c, 0, 75, 64
2, 35575, Note_on_c, 0, 75, 67
2, 35608, Note_off_c, 0, 75, 64
2, 35631, Note_on_c, 0, 75, 70
2, 35647, Control_c, 0, 64, 0
2, 35670, Control_c, 0, 64, 127
2, 35726, Note_off_c, 0, 66, 64
2, 35729, Note_off_c, 0, 63, 64
2, 35732, Note_off_c, 0, 47, 64
2, 35744, Note_off_c, 0, 59, 64
2, 35753, Note_off_c, 0, 54, 64
2, 35767, Control_c, 0, 64, 0
2, 35800, Control_c, 0, 64, 127
2, 35820, Note_on_c, 0, 64, 51
2, 35824, Note_on_c, 0, 68, 57
2, 35826, Control_c, 0, 64, 127
2, 35828, Note_on_c, 0, 47, 33
2, 35830, Note_on_c, 0, 54, 44
2, 35832, Note_on_c, 0, 61, 48
2, 35846, Control_c, 0, 64, 0
2, 35871, Control_c, 0, 64, 127
2, 35957, Note_off_c, 0, 75, 64
2, 35979, Note_off_c, 0, 61, 64
2, 35986, Note_off_c, 0, 47, 64
2, 35999, Note_off_c, 0, 54, 64
2, 36012, Note_on_c, 0, 75, 70
2, 36017, Note_off_c, 0, 64, 64
2, 36024, Note_on_c, 0, 70, 47
2, 36024, Note_on_c, 0, 61, 46
2, 36024, Note_on_c, 0, 54, 43
2, 36024, Note_on_c, 0, 47, 48
2, 36036, Note_on_c, 0, 64, 51
2, 36049, Note_off_c, 0, 68, 64
2, 36051, Control_c, 0, 64, 0
2, 36080, Note_on_c, 0, 47, 33
2, 36082, Note_on_c, 0, 54, 44
2, 36096, Control_c, 0, 64, 127
2, 36139, Control_c, 0, 64, 0
2, 36162, Control_c, 0, 64, 127
2, 36168, Note_off_c, 0, 75, 64
2, 36185, Note_off_c, 0, 47, 64
2, 36194, Note_off_c, 0, 54, 64
2, 36211, Note_on_c, 0, 75, 73
2, 36293, Note_off_c, 0, 47, 64
2, 36312, Note_off_c, 0, 54, 64
2, 36318, Control_c, 0, 64, 127
2, 36319, Note_off_c, 0, 61, 64
2, 36331, Note_off_c, 0, 64, 64
2, 36338, Control_c, 0, 64, 0
2, 36363, Control_c, 0, 64, 127
2, 36397, Note_on_c, 0, 68, 71
2, 36406, Note_on_c, 0, 64, 59
2, 36408, Note_on_c, 0, 61, 48
2, 36408, Note_on_c, 0, 47, 49
2, 36413, Note_off_c, 0, 70, 64
2, 36414, Note_on_c, 0, 54, 46
2, 36440, Control_c, 0, 64, 0
2, 36462, Control_c, 0, 64, 127
2, 36541, Note_off_c, 0, 75, 64
2, 36543, Control_c, 0, 64, 0
2, 36573, Note_off_c, 0, 64, 64
2, 36577, Note_off_c, 0, 61, 64
2, 36582, Note_off_c, 0, 47, 64
2, 36588, Control_c, 0, 64, 127
2, 36593, Note_off_c, 0, 54, 64
2, 36636, Note_on_c, 0, 75, 71
2, 36636, Note_on_c, 0, 64, 57
2, 36642, Note_on_c, 0, 70, 50
2, 36642, Control_c, 0, 64, 127
2, 36648, Note_on_c, 0, 61, 48
2, 36648, Note_on_c, 0, 54, 49
2, 36648, Note_on_c, 0, 47, 50
2, 36664, Note_off_c, 0, 68, 64
2, 36836, Note_off_c, 0, 75, 64
2, 36842, Note_off_c, 0, 61, 64
2, 36846, Note_off_c, 0, 47, 64
2, 36846, Note_off_c, 0, 54, 64
2, 36860, Note_off_c, 0, 64, 64
2, 36889, Note_on_c, 0, 75, 67
2, 36889, Note_on_c, 0, 63, 56
2, 36895, Note_on_c, 0, 35, 51
2, 36900, Note_on_c, 0, 71, 57
2, 36910, Control_c, 0, 64, 0
2, 36911, Note_off_c, 0, 70, 64
2, 36932, Control_c, 0, 64, 0
2, 36940, Control_c, 0, 64, 127
2, 36954, Control_c, 0, 64, 127
2, 37054, Note_off_c, 0, 63, 64
2, 37054, Note_off_c, 0, 75, 64
2, 37065, Note_off_c, 0, 71, 64
2, 37120, Note_on_c, 0, 63, 54
2, 37128, Note_on_c, 0, 59, 50
2, 37134, Control_c, 0, 64, 127
2, 37136, Note_on_c, 0, 54, 46
2, 37143, Note_on_c, 0, 47, 46
2, 37220, Note_off_c, 0, 35, 64
2, 37223, Note_off_c, 0, 63, 64
2, 37225, Note_on_c, 0, 64, 58
2, 37228, Note_on_c, 0, 61, 59
2, 37231, Note_off_c, 0, 59, 64
2, 37317, Note_on_c, 0, 66, 54
2, 37320, Note_on_c, 0, 70, 54
2, 37338, Control_c, 0, 64, 0
2, 37348, Note_off_c, 0, 64, 64
2, 37351, Note_off_c, 0, 61, 64
2, 37359, Control_c, 0, 64, 127
2, 37392, Note_on_c, 0, 68, 54
2, 37395, Note_on_c, 0, 64, 54
2, 37401, Note_off_c, 0, 66, 64
2, 37402, Control_c, 0, 64, 0
2, 37404, Note_off_c, 0, 70, 64
2, 37432, Control_c, 0, 64, 127
2, 37485, Note_on_c, 0, 66, 52
2, 37490, Note_off_c, 0, 68, 64
2, 37493, Note_on_c, 0, 63, 59
2, 37496, Note_off_c, 0, 64, 64
2, 37519, Control_c, 0, 64, 0
2, 37550, Control_c, 0, 64, 127
2, 37578, Note_off_c, 0, 47, 64
2, 37620, Note_off_c, 0, 54, 64
2, 37650, Note_off_c, 0, 66, 64
2, 37658, Note_off_c, 0, 63, 64
2, 37684, Note_on_c, 0, 75, 72
2, 37690, Note_on_c, 0, 47, 46
2, 37692, Note_on_c, 0, 66, 57
2, 37692, Note_on_c, 0, 59, 44
2, 37696, Note_on_c, 0, 54, 41
2, 37700, Note_on_c, 0, 63, 52
2, 37712, Control_c, 0, 64, 0
2, 37751, Control_c, 0, 64, 127
2, 37830, Control_c, 0, 64, 0
2, 37851, Note_off_c, 0, 47, 64
2, 37851, Control_c, 0, 64, 127
2, 37853, Note_off_c, 0, 59, 64
2, 37853, Note_off_c, 0, 66, 64
2, 37857, Note_off_c, 0, 54, 64
2, 37861, Note_off_c, 0, 63, 64
2, 37879, Note_on_c, 0, 63, 51
2, 37880, Note_on_c, 0, 66, 56
2, 37884, Note_on_c, 0, 59, 44
2, 37887, Note_on_c, 0, 54, 33
2, 37892, Note_on_c, 0, 47, 47
2, 37969, Note_off_c, 0, 75, 64
2, 38011, Control_c, 0, 64, 0
2, 38014, Note_on_c, 0, 75, 73
2, 38042, Control_c, 0, 64, 127
2, 38053, Note_off_c, 0, 75, 64
2, 38073, Note_on_c, 0, 75, 77
2, 38098, Control_c, 0, 64, 0
2, 38119, Control_c, 0, 64, 127
2, 38204, Control_c, 0, 64, 0
2, 38229, Note_off_c, 0, 63, 64
2, 38230, Note_off_c, 0, 66, 64
2, 38234, Note_off_c, 0, 59, 64
2, 38237, Note_off_c, 0, 54, 64
2, 38242, Note_off_c, 0, 47, 64
2, 38243, Control_c, 0, 64, 127
2, 38268, Note_on_c, 0, 65, 49
2, 38273, Note_on_c, 0, 68, 56
2, 38273, Note_on_c, 0, 58, 47
2, 38280, Note_on_c, 0, 51, 49
2, 38458, Note_off_c, 0, 75, 64
2, 38490, Note_off_c, 0, 58, 64
2, 38497, Note_off_c, 0, 51, 64
2, 38507, Note_off_c, 0, 65, 64
2, 38509, Note_on_c, 0, 75, 67
2, 38512, Note_off_c, 0, 68, 64
2, 38514, Note_on_c, 0, 70, 51
2, 38518, Note_on_c, 0, 66, 44
2, 38518, Note_on_c, 0, 58, 38
2, 38524, Note_on_c, 0, 51, 44
2, 38546, Control_c, 0, 64, 0
2, 38587, Control_c, 0, 64, 127
2, 38590, Control_c, 0, 64, 0
2, 38611, Control_c, 0, 64, 127
2, 38674, Note_off_c, 0, 75, 64
2, 38725, Note_on_c, 0, 75, 64
2, 38811, Note_off_c, 0, 70, 64
2, 38842, Note_off_c, 0, 66, 64
2, 38870, Note_off_c, 0, 51, 64
2, 38890, Note_off_c, 0, 58, 64
2, 38931, Note_on_c, 0, 68, 51
2, 38937, Note_on_c, 0, 65, 50
2, 38943, Note_on_c, 0, 58, 43
2, 38947, Note_on_c, 0, 51, 42
2, 38986, Note_off_c, 0, 75, 64
2, 39038, Control_c, 0, 64, 0
2, 39073, Note_off_c, 0, 51, 64
2, 39079, Control_c, 0, 64, 127
2, 39095, Note_off_c, 0, 58, 64
2, 39142, Note_on_c, 0, 51, 46
2, 39147, Note_on_c, 0, 66, 42
2, 39147, Note_on_c, 0, 58, 41
2, 39149, Note_on_c, 0, 75, 56
2, 39152, Note_on_c, 0, 70, 45
2, 39173, Note_off_c, 0, 68, 64
2, 39179, Note_off_c, 0, 65, 64
2, 39342, Note_off_c, 0, 51, 64
2, 39344, Note_off_c, 0, 75, 64
2, 39347, Note_off_c, 0, 58, 64
2, 39360, Note_on_c, 0, 71, 48
2, 39364, Note_on_c, 0, 75, 67
2, 39364, Note_on_c, 0, 35, 47
2, 39395, Note_off_c, 0, 66, 64
2, 39398, Control_c, 0, 64, 0
2, 39400, Note_off_c, 0, 70, 64
2, 39428, Control_c, 0, 64, 127
2, 39598, Note_off_c, 0, 71, 64
2, 39602, Note_off_c, 0, 75, 64
2, 39608, Note_on_c, 0, 63, 56
2, 39611, Note_on_c, 0, 59, 51
2, 39617, Note_on_c, 0, 47, 52
2, 39618, Note_on_c, 0, 54, 47
2, 39745, Note_off_c, 0, 35, 64
2, 39768, Note_off_c, 0, 54, 64
2, 39768, Note_off_c, 0, 47, 64
2, 39828, Note_on_c, 0, 54, 39
2, 39828, Note_on_c, 0, 47, 44
2, 39834, Note_on_c, 0, 64, 51
2, 39838, Note_on_c, 0, 61, 62
2, 39842, Note_off_c, 0, 63, 64
2, 39845, Note_off_c, 0, 59, 64
2, 39890, Control_c, 0, 64, 0
2, 39920, Control_c, 0, 64, 127
2, 40031, Note_on_c, 0, 66, 57
2, 40031, Note_on_c, 0, 63, 64
2, 40041, Note_off_c, 0, 64, 64
2, 40045, Note_off_c, 0, 61, 64
2, 40050, Control_c, 0, 64, 0
2, 40073, Control_c, 0, 64, 127
2, 40140, Note_off_c, 0, 47, 64
2, 40161, Note_off_c, 0, 54, 64
2, 40221, Note_off_c, 0, 63, 64
2, 40221, Note_off_c, 0, 66, 64
2, 40224, Note_on_c, 0, 75, 58
2, 40230, Note_on_c, 0, 54, 48
2, 40232, Note_on_c, 0, 63, 56
2, 40233, Note_on_c, 0, 47, 51
2, 40234, Note_on_c, 0, 66, 58
2, 40234, Note_on_c, 0, 59, 43
2, 40260, Control_c, 0, 64, 0
2, 40299, Control_c, 0, 64, 127
2, 40392, Note_off_c, 0, 54, 64
2, 40394, Note_off_c, 0, 63, 64
2, 40395, Note_off_c, 0, 47, 64
2, 40396, Note_off_c, 0, 59, 64
2, 40396, Note_off_c, 0, 66, 64
2, 40440, Note_on_c, 0, 66, 50
2, 40440, Note_on_c, 0, 63, 56
2, 40443, Note_on_c, 0, 59, 37
2, 40449, Note_on_c, 0, 54, 39
2, 40450, Note_on_c, 0, 47, 39
2, 40542, Control_c, 0, 64, 0
2, 40557, Note_off_c, 0, 75, 64
2, 40565, Control_c, 0, 64, 127
2, 40598, Note_on_c, 0, 75, 70
2, 40623, Note_off_c, 0, 75, 64
2, 40650, Note_on_c, 0, 75, 65
2, 40738, Note_off_c, 0, 47, 64
2, 40749, Note_off_c, 0, 63, 64
2, 40749, Note_off_c, 0, 66, 64
2, 40752, Control_c, 0, 64, 0
2, 40758, Note_off_c, 0, 54, 64
2, 40760, Note_off_c, 0, 59, 64
2, 40791, Control_c, 0, 64, 127
2, 40821, Note_on_c, 0, 47, 27
2, 40824, Note_on_c, 0, 61, 50
2, 40830, Note_on_c, 0, 64, 54
2, 40833, Note_on_c, 0, 68, 58
2, 40836, Note_on_c, 0, 54, 42
2, 40852, Control_c, 0, 64, 0
2, 40866, Control_c, 0, 64, 127
2, 40968, Note_off_c, 0, 61, 64
2, 40974, Note_off_c, 0, 64, 64
2, 40977, Note_off_c, 0, 47, 64
2, 40980, Note_off_c, 0, 54, 64
2, 41012, Note_off_c, 0, 75, 64
2, 41019, Note_on_c, 0, 47, 44
2, 41023, Note_on_c, 0, 70, 62
2, 41024, Note_on_c, 0, 64, 58
2, 41029, Note_on_c, 0, 75, 73
2, 41029, Note_on_c, 0, 61, 42
2, 41035, Note_off_c, 0, 68, 64
2, 41035, Note_on_c, 0, 54, 42
2, 41068, Control_c, 0, 64, 0
2, 41089, Control_c, 0, 64, 127
2, 41184, Note_off_c, 0, 75, 64
2, 41216, Note_on_c, 0, 75, 73
2, 41344, Control_c, 0, 64, 0
2, 41358, Control_c, 0, 64, 127
2, 41359, Note_off_c, 0, 70, 64
2, 41360, Note_off_c, 0, 64, 64
2, 41365, Note_off_c, 0, 47, 64
2, 41365, Note_off_c, 0, 61, 64
2, 41367, Note_off_c, 0, 54, 64
2, 41400, Note_on_c, 0, 68, 71
2, 41400, Note_on_c, 0, 64, 58
2, 41400, Note_on_c, 0, 47, 48
2, 41405, Note_on_c, 0, 61, 36
2, 41405, Note_on_c, 0, 54, 39
2, 41425, Control_c, 0, 64, 0
2, 41449, Control_c, 0, 64, 127
2, 41560, Control_c, 0, 64, 0
2, 41565, Note_off_c, 0, 47, 64
2, 41565, Note_off_c, 0, 64, 64
2, 41566, Note_off_c, 0, 75, 64
2, 41570, Note_off_c, 0, 54, 64
2, 41570, Note_off_c, 0, 61, 64
2, 41581, Control_c, 0, 64, 127
2, 41606, Note_on_c, 0, 75, 64
2, 41608, Note_on_c, 0, 64, 58
2, 41614, Note_on_c, 0, 61, 44
2, 41615, Note_on_c, 0, 70, 57
2, 41615, Note_on_c, 0, 47, 49
2, 41616, Note_on_c, 0, 54, 48
2, 41625, Note_off_c, 0, 68, 64
2, 41800, Note_off_c, 0, 75, 64
2, 41802, Note_off_c, 0, 64, 64
2, 41808, Note_off_c, 0, 61, 64
2, 41809, Note_off_c, 0, 47, 64
2, 41809, Note_off_c, 0, 70, 64
2, 41810, Note_off_c, 0, 54, 64
2, 41841, Note_on_c, 0, 75, 64
2, 41848, Note_on_c, 0, 63, 62
2, 41850, Note_on_c, 0, 71, 58
2, 41850, Note_on_c, 0, 35, 62
2, 41863, Control_c, 0, 64, 0
2, 41904, Control_c, 0, 64, 127
2, 41917, Control_c, 0, 64, 0
2, 41941, Control_c, 0, 64, 127
2, 42030, Note_off_c, 0, 63, 64
2, 42096, Note_on_c, 0, 47, 49
2, 42098, Note_on_c, 0, 63, 56
2, 42102, Note_on_c, 0, 59, 52
2, 42106, Note_on_c, 0, 54, 42
2, 42171, Note_off_c, 0, 75, 64
2, 42180, Note_off_c, 0, 71, 64
2, 42199, Note_off_c, 0, 63, 64
2, 42200, Note_on_c, 0, 64, 58
2, 42200, Note_on_c, 0, 61, 64
2, 42203, Note_off_c, 0, 59, 64
2, 42252, Note_off_c, 0, 35, 64
2, 42295, Note_on_c, 0, 70, 56
2, 42295, Note_on_c, 0, 66, 51
2, 42297, Note_off_c, 0, 61, 64
2, 42297, Note_off_c, 0, 64, 64
2, 42308, Control_c, 0, 64, 0
2, 42330, Control_c, 0, 64, 127
2, 42355, Control_c, 0, 64, 0
2, 42357, Note_on_c, 0, 68, 51
2, 42362, Note_on_c, 0, 64, 49
2, 42370, Note_off_c, 0, 66, 64
2, 42370, Note_off_c, 0, 70, 64
2, 42396, Control_c, 0, 64, 127
2, 42424, Note_on_c, 0, 63, 62
2, 42428, Note_on_c, 0, 66, 46
2, 42433, Note_off_c, 0, 68, 64
2, 42438, Note_off_c, 0, 64, 64
2, 42455, Note_off_c, 0, 63, 64
2, 42459, Note_off_c, 0, 66, 64
2, 42488, Note_on_c, 0, 63, 56
2, 42491, Note_on_c, 0, 66, 62
2, 42516, Control_c, 0, 64, 0
2, 42529, Control_c, 0, 64, 127
2, 42565, Note_off_c, 0, 47, 64
2, 42575, Note_off_c, 0, 54, 64
2, 42629, Note_off_c, 0, 63, 64
2, 42632, Note_off_c, 0, 66, 64
2, 42704, Note_on_c, 0, 75, 71
2, 42704, Note_on_c, 0, 63, 56
2, 42712, Note_on_c, 0, 54, 42
2, 42714, Note_on_c, 0, 66, 58
2, 42716, Control_c, 0, 64, 0
2, 42718, Note_on_c, 0, 59, 46
2, 42718, Note_on_c, 0, 47, 42
2, 42729, Control_c, 0, 64, 127
2, 42732, Control_c, 0, 64, 0
2, 42768, Control_c, 0, 64, 127
2, 42800, Control_c, 0, 64, 0
2, 42822, Control_c, 0, 64, 127
2, 42845, Note_off_c, 0, 63, 64
2, 42855, Note_off_c, 0, 66, 64
2, 42859, Note_off_c, 0, 47, 64
2, 42860, Note_off_c, 0, 54, 64
2, 42864, Note_off_c, 0, 59, 64
2, 42914, Note_on_c, 0, 66, 51
2, 42914, Note_on_c, 0, 63, 58
2, 42921, Note_on_c, 0, 54, 39
2, 42927, Note_on_c, 0, 47, 48
2, 42930, Note_on_c, 0, 59, 39
2, 43008, Control_c, 0, 64, 0
2, 43019, Note_off_c, 0, 75, 64
2, 43021, Control_c, 0, 64, 127
2, 43044, Note_on_c, 0, 75, 71
2, 43078, Note_off_c, 0, 75, 64
2, 43103, Note_on_c, 0, 75, 65
2, 43126, Control_c, 0, 64, 0
2, 43149, Control_c, 0, 64, 127
2, 43208, Control_c, 0, 64, 0
2, 43221, Control_c, 0, 64, 127
2, 43224, Control_c, 0, 64, 0
2, 43260, Control_c, 0, 64, 127
2, 43272, Note_off_c, 0, 63, 64
2, 43272, Note_off_c, 0, 66, 64
2, 43279, Note_off_c, 0, 54, 64
2, 43285, Note_off_c, 0, 47, 64
2, 43288, Note_off_c, 0, 59, 64
2, 43300, Note_on_c, 0, 68, 62
2, 43303, Note_on_c, 0, 65, 60
2, 43313, Note_on_c, 0, 58, 60
2, 43313, Note_on_c, 0, 51, 60
2, 43329, Control_c, 0, 64, 0
2, 43352, Control_c, 0, 64, 127
2, 43450, Note_off_c, 0, 75, 64
2, 43455, Note_off_c, 0, 51, 64
2, 43471, Note_off_c, 0, 58, 64
2, 43509, Note_on_c, 0, 75, 66
2, 43512, Note_on_c, 0, 58, 55
2, 43516, Note_on_c, 0, 70, 63
2, 43518, Note_on_c, 0, 66, 66
2, 43518, Note_on_c, 0, 51, 59
2, 43539, Note_off_c, 0, 68, 64
2, 43542, Note_off_c, 0, 65, 64
2, 43550, Control_c, 0, 64, 0
2, 43573, Control_c, 0, 64, 127
2, 43618, Control_c, 0, 64, 0
2, 43641, Control_c, 0, 64, 127
2, 43690, Note_off_c, 0, 75, 64
2, 43715, Note_on_c, 0, 75, 87
2, 43814, Note_off_c, 0, 51, 64
2, 43821, Control_c, 0, 64, 0
2, 43839, Note_off_c, 0, 58, 64
2, 43843, Note_off_c, 0, 70, 64
2, 43844, Control_c, 0, 64, 127
2, 43845, Note_off_c, 0, 66, 64
2, 43919, Note_on_c, 0, 68, 62
2, 43920, Note_on_c, 0, 65, 66
2, 43925, Note_on_c, 0, 58, 64
2, 43928, Note_on_c, 0, 51, 67
2, 44042, Control_c, 0, 64, 0
2, 44065, Control_c, 0, 64, 127
2, 44134, Note_off_c, 0, 75, 64
2, 44144, Note_off_c, 0, 51, 64
2, 44152, Note_off_c, 0, 58, 64
2, 44175, Note_on_c, 0, 75, 73
2, 44177, Note_on_c, 0, 66, 71
2, 44184, Note_on_c, 0, 70, 70
2, 44184, Note_on_c, 0, 51, 70
2, 44187, Note_on_c, 0, 58, 70
2, 44196, Note_off_c, 0, 68, 64
2, 44197, Note_off_c, 0, 65, 64
2, 44206, Control_c, 0, 64, 0
2, 44239, Control_c, 0, 64, 127
2, 44430, Note_off_c, 0, 66, 64
2, 44437, Note_off_c, 0, 51, 64
2, 44437, Note_off_c, 0, 70, 64
2, 44440, Note_off_c, 0, 58, 64
2, 44486, Note_on_c, 0, 64, 71
2, 44491, Note_on_c, 0, 76, 66
2, 44491, Note_on_c, 0, 71, 75
2, 44496, Note_on_c, 0, 56, 65
2, 44498, Note_on_c, 0, 59, 75
2, 44498, Note_on_c, 0, 50, 65
2, 44515, Note_off_c, 0, 75, 64
2, 44534, Control_c, 0, 64, 0
2, 44577, Control_c, 0, 64, 127
2, 44698, Control_c, 0, 64, 0
2, 44714, Note_off_c, 0, 50, 64
2, 44720, Note_off_c, 0, 76, 64
2, 44731, Control_c, 0, 64, 127
2, 44740, Note_off_c, 0, 64, 64
2, 44751, Note_off_c, 0, 59, 64
2, 44754, Note_off_c, 0, 56, 64
2, 44757, Note_off_c, 0, 71, 64
2, 44810, Note_on_c, 0, 76, 71
2, 44810, Note_on_c, 0, 71, 81
2, 44810, Note_on_c, 0, 64, 73
2, 44816, Note_on_c, 0, 56, 71
2, 44820, Note_on_c, 0, 52, 66
2, 44822, Note_on_c, 0, 59, 83
2, 44822, Note_on_c, 0, 50, 66
2, 44848, Control_c, 0, 64, 0
2, 44880, Control_c, 0, 64, 127
2, 44995, Note_off_c, 0, 64, 64
2, 45023, Note_off_c, 0, 76, 64
2, 45026, Control_c, 0, 64, 0
2, 45029, Note_off_c, 0, 56, 64
2, 45068, Note_on_c, 0, 76, 66
2, 45069, Note_off_c, 0, 50, 64
2, 45069, Control_c, 0, 64, 127
2, 45070, Note_on_c, 0, 72, 75
2, 45072, Note_on_c, 0, 64, 71
2, 45072, Note_on_c, 0, 56, 62
2, 45080, Note_on_c, 0, 60, 77
2, 45080, Note_on_c, 0, 50, 58
2, 45090, Note_off_c, 0, 71, 64
2, 45102, Note_off_c, 0, 59, 64
2, 45110, Control_c, 0, 64, 0
2, 45143, Control_c, 0, 64, 127
2, 45303, Note_off_c, 0, 56, 64
2, 45324, Note_on_c, 0, 71, 72
2, 45327, Note_on_c, 0, 59, 71
2, 45340, Control_c, 0, 64, 0
2, 45344, Note_off_c, 0, 50, 64
2, 45344, Note_off_c, 0, 52, 64
2, 45345, Note_off_c, 0, 64, 64
2, 45349, Note_off_c, 0, 72, 64
2, 45359, Note_off_c, 0, 60, 64
2, 45363, Note_off_c, 0, 76, 64
2, 45371, Note_off_c, 0, 71, 64
2, 45372, Control_c, 0, 64, 127
2, 45384, Note_off_c, 0, 59, 64
2, 45405, Note_on_c, 0, 71, 82
2, 45409, Note_on_c, 0, 64, 71
2, 45411, Note_on_c, 0, 76, 73
2, 45417, Note_on_c, 0, 52, 57
2, 45419, Note_on_c, 0, 59, 81
2, 45422, Note_on_c, 0, 48, 58
2, 45457, Control_c, 0, 64, 0
2, 45510, Control_c, 0, 64, 127
2, 45602, Control_c, 0, 64, 0
2, 45635, Control_c, 0, 64, 127
2, 45680, Note_on_c, 0, 69, 71
2, 45683, Note_on_c, 0, 57, 75
2, 45692, Control_c, 0, 64, 0
2, 45703, Control_c, 0, 64, 127
2, 45710, Note_off_c, 0, 71, 64
2, 45724, Note_off_c, 0, 59, 64
2, 45882, Note_on_c, 0, 56, 64
2, 45892, Note_on_c, 0, 68, 75
2, 45900, Note_off_c, 0, 69, 64
2, 45903, Note_off_c, 0, 57, 64
2, 45905, Note_off_c, 0, 52, 64
2, 45931, Note_off_c, 0, 76, 64
2, 45949, Control_c, 0, 64, 0
2, 45954, Note_on_c, 0, 69, 74
2, 45957, Note_on_c, 0, 57, 71
2, 45961, Note_off_c, 0, 56, 64
2, 45971, Note_off_c, 0, 68, 64
2, 45996, Control_c, 0, 64, 0
2, 46002, Control_c, 0, 64, 127
2, 46032, Control_c, 0, 64, 127
2, 46065, Note_off_c, 0, 48, 64
2, 46076, Note_off_c, 0, 64, 64
2, 46184, Control_c, 0, 64, 0
2, 46188, Note_off_c, 0, 69, 64
2, 46195, Control_c, 0, 64, 127
2, 46207, Note_off_c, 0, 57, 64
2, 46252, Note_on_c, 0, 47, 62
2, 46260, Note_on_c, 0, 35, 62
2, 46265, Note_on_c, 0, 66, 71
2, 46265, Note_on_c, 0, 63, 62
2, 46265, Note_on_c, 0, 57, 62
2, 46271, Note_on_c, 0, 59, 59
2, 46275, Note_on_c, 0, 71, 66
2, 46307, Control_c, 0, 64, 0
2, 46348, Control_c, 0, 64, 127
2, 46403, Note_off_c, 0, 47, 64
2, 46411, Note_off_c, 0, 35, 64
2, 46425, Note_off_c, 0, 57, 64
2, 46429, Note_off_c, 0, 63, 64
2, 46438, Note_off_c, 0, 59, 64
2, 46440, Note_off_c, 0, 71, 64
2, 46485, Note_off_c, 0, 66, 64
2, 46488, Control_c, 0, 64, 0
2, 46515, Note_on_c, 0, 63, 67
2, 46520, Note_on_c, 0, 66, 75
2, 46520, Note_on_c, 0, 57, 71
2, 46524, Control_c, 0, 64, 127
2, 46524, Note_on_c, 0, 35, 62
2, 46525, Note_on_c, 0, 71, 62
2, 46528, Note_on_c, 0, 59, 58
2, 46530, Note_on_c, 0, 47, 58
2, 46550, Control_c, 0, 64, 0
2, 46587, Control_c, 0, 64, 127
2, 46651, Note_off_c, 0, 47, 64
2, 46658, Note_off_c, 0, 57, 64
2, 46667, Note_off_c, 0, 71, 64
2, 46671, Note_off_c, 0, 63, 64
2, 46675, Note_off_c, 0, 35, 64
2, 46688, Note_off_c, 0, 59, 64
2, 46764, Note_on_c, 0, 63, 64
2, 46772, Note_on_c, 0, 67, 74
2, 46772, Note_on_c, 0, 59, 58
2, 46772, Note_on_c, 0, 47, 65
2, 46779, Note_on_c, 0, 71, 66
2, 46779, Note_on_c, 0, 57, 66
2, 46780, Note_on_c, 0, 35, 62
2, 46791, Control_c, 0, 64, 0
2, 46794, Note_off_c, 0, 66, 64
2, 46799, Control_c, 0, 64, 0
2, 46805, Control_c, 0, 64, 127
2, 46840, Control_c, 0, 64, 127
2, 46852, Note_off_c, 0, 63, 64
2, 46886, Note_off_c, 0, 59, 64
2, 46893, Note_off_c, 0, 57, 64
2, 46901, Note_off_c, 0, 71, 64
2, 46923, Note_off_c, 0, 47, 64
2, 46930, Note_on_c, 0, 66, 72
2, 46931, Note_off_c, 0, 35, 64
2, 46936, Note_off_c, 0, 67, 64
2, 46987, Note_off_c, 0, 66, 64
2, 47025, Note_on_c, 0, 66, 81
2, 47030, Note_on_c, 0, 71, 66
2, 47030, Note_on_c, 0, 40, 58
2, 47036, Note_on_c, 0, 59, 65
2, 47036, Note_on_c, 0, 57, 71
2, 47038, Note_on_c, 0, 47, 56
2, 47042, Control_c, 0, 64, 0
2, 47050, Control_c, 0, 64, 0
2, 47079, Control_c, 0, 64, 127
2, 47082, Control_c, 0, 64, 127
2, 47165, Note_on_c, 0, 64, 71
2, 47168, Note_on_c, 0, 55, 57
2, 47174, Note_off_c, 0, 66, 64
2, 47185, Note_off_c, 0, 57, 64
2, 47228, Note_off_c, 0, 55, 64
2, 47252, Note_on_c, 0, 66, 66
2, 47253, Note_off_c, 0, 64, 64
2, 47283, Control_c, 0, 64, 0
2, 47286, Note_on_c, 0, 64, 48
2, 47286, Note_on_c, 0, 55, 59
2, 47292, Note_off_c, 0, 66, 64
2, 47297, Control_c, 0, 64, 127
2, 47404, Note_on_c, 0, 54, 63
2, 47407, Note_on_c, 0, 63, 85
2, 47422, Note_off_c, 0, 55, 64
2, 47422, Note_off_c, 0, 64, 64
2, 47536, Note_on_c, 0, 64, 73
2, 47542, Control_c, 0, 64, 0
2, 47542, Note_on_c, 0, 55, 58
2, 47557, Note_off_c, 0, 54, 64
2, 47560, Note_off_c, 0, 63, 64
2, 47565, Control_c, 0, 64, 0
2, 47574, Control_c, 0, 64, 127
2, 47610, Control_c, 0, 64, 127
2, 47627, Note_off_c, 0, 71, 64
2, 47632, Note_off_c, 0, 59, 64
2, 47732, Note_off_c, 0, 40, 64
2, 47740, Note_off_c, 0, 47, 64
2, 47800, Note_off_c, 0, 64, 64
2, 47806, Note_off_c, 0, 55, 64
2, 47843, Note_on_c, 0, 62, 58
2, 47845, Note_on_c, 0, 68, 63
2, 47846, Note_on_c, 0, 71, 71
2, 47849, Note_on_c, 0, 76, 66
2, 47856, Note_on_c, 0, 52, 63
2, 47856, Note_on_c, 0, 40, 67
2, 47896, Control_c, 0, 64, 0
2, 47950, Control_c, 0, 64, 127
2, 48056, Note_off_c, 0, 68, 64
2, 48057, Control_c, 0, 64, 0
2, 48073, Note_off_c, 0, 62, 64
2, 48090, Note_off_c, 0, 71, 64
2, 48096, Note_off_c, 0, 52, 64
2, 48102, Control_c, 0, 64, 127
2, 48105, Note_off_c, 0, 76, 64
2, 48147, Note_on_c, 0, 71, 81
2, 48147, Note_on_c, 0, 62, 71
2, 48153, Note_on_c, 0, 68, 73
2, 48155, Note_on_c, 0, 76, 66
2, 48155, Note_on_c, 0, 52, 72
2, 48199, Control_c, 0, 64, 0
2, 48223, Control_c, 0, 64, 127
2, 48328, Note_off_c, 0, 40, 64
2, 48364, Note_off_c, 0, 52, 64
2, 48388, Note_off_c, 0, 62, 64
2, 48388, Control_c, 0, 64, 0
2, 48392, Note_off_c, 0, 68, 64
2, 48404, Note_off_c, 0, 76, 64
2, 48433, Note_off_c, 0, 71, 64
2, 48433, Note_on_c, 0, 62, 71
2, 48435, Note_on_c, 0, 76, 73
2, 48435, Note_on_c, 0, 72, 82
2, 48441, Note_on_c, 0, 68, 72
2, 48442, Control_c, 0, 64, 127
2, 48448, Note_on_c, 0, 52, 62
2, 48488, Control_c, 0, 64, 0
2, 48523, Control_c, 0, 64, 127
2, 48614, Note_off_c, 0, 68, 64
2, 48675, Note_off_c, 0, 76, 64
2, 48691, Control_c, 0, 64, 0
2, 48707, Note_on_c, 0, 71, 66
2, 48708, Note_off_c, 0, 72, 64
2, 48715, Control_c, 0, 64, 127
2, 48744, Note_off_c, 0, 62, 64
2, 48759, Note_off_c, 0, 52, 64
2, 48762, Note_off_c, 0, 71, 64
2, 48799, Control_c, 0, 64, 127
2, 48816, Note_on_c, 0, 64, 66
2, 48821, Note_on_c, 0, 71, 81
2, 48824, Note_on_c, 0, 76, 71
2, 48824, Note_on_c, 0, 68, 73
2, 48824, Note_on_c, 0, 62, 66
2, 48829, Note_on_c, 0, 45, 58
2, 48831, Note_on_c, 0, 52, 58
2, 48861, Control_c, 0, 64, 0
2, 48903, Control_c, 0, 64, 127
2, 48980, Control_c, 0, 64, 0
2, 48993, Note_off_c, 0, 64, 64
2, 49001, Note_off_c, 0, 62, 64
2, 49001, Note_off_c, 0, 68, 64
2, 49003, Note_on_c, 0, 69, 77
2, 49015, Control_c, 0, 64, 127
2, 49030, Note_off_c, 0, 71, 64
2, 49054, Note_off_c, 0, 76, 64
2, 49121, Note_off_c, 0, 69, 64
2, 49130, Note_on_c, 0, 71, 66
2, 49145, Note_on_c, 0, 60, 47
2, 49162, Control_c, 0, 64, 0
2, 49172, Note_on_c, 0, 69, 75
2, 49187, Control_c, 0, 64, 127
2, 49194, Note_off_c, 0, 71, 64
2, 49228, Note_off_c, 0, 52, 64
2, 49291, Control_c, 0, 64, 127
2, 49302, Note_on_c, 0, 68, 75
2, 49303, Note_on_c, 0, 59, 67
2, 49308, Note_off_c, 0, 60, 64
2, 49335, Note_off_c, 0, 69, 64
2, 49353, Control_c, 0, 64, 0
2, 49395, Control_c, 0, 64, 127
2, 49450, Note_on_c, 0, 69, 75
2, 49456, Note_on_c, 0, 60, 54
2, 49472, Control_c, 0, 64, 0
2, 49477, Note_off_c, 0, 68, 64
2, 49478, Note_off_c, 0, 59, 64
2, 49545, Control_c, 0, 64, 127
2, 49654, Control_c, 0, 64, 0
2, 49679, Control_c, 0, 64, 127
2, 49734, Note_off_c, 0, 45, 64
2, 49817, Note_on_c, 0, 72, 52
2, 49823, Note_off_c, 0, 69, 64
2, 49964, Control_c, 0, 64, 0
2, 49968, Note_on_c, 0, 67, 50
2, 49974, Note_on_c, 0, 55, 46
2, 49979, Control_c, 0, 64, 0
2, 49986, Note_off_c, 0, 72, 64
2, 50002, Control_c, 0, 64, 127
2, 50037, Control_c, 0, 64, 127
2, 50059, Note_off_c, 0, 60, 64
2, 50128, Note_on_c, 0, 53, 46
2, 50138, Note_on_c, 0, 65, 50
2, 50144, Note_off_c, 0, 55, 64
2, 50144, Note_off_c, 0, 67, 64
2, 50164, Control_c, 0, 64, 0
2, 50205, Control_c, 0, 64, 127
2, 50467, Note_on_c, 0, 52, 46
2, 50468, Note_on_c, 0, 64, 47
2, 50471, Control_c, 0, 64, 0
2, 50475, Note_off_c, 0, 65, 64
2, 50492, Control_c, 0, 64, 0
2, 50494, Control_c, 0, 64, 127
2, 50497, Note_off_c, 0, 53, 64
2, 50529, Control_c, 0, 64, 127
2, 50656, Control_c, 0, 64, 0
2, 50697, Control_c, 0, 64, 127
2, 50733, Note_on_c, 0, 55, 42
2, 50736, Note_on_c, 0, 67, 54
2, 50746, Note_off_c, 0, 64, 64
2, 50756, Note_off_c, 0, 52, 64
2, 50799, Note_on_c, 0, 64, 56
2, 50809, Note_on_c, 0, 52, 54
2, 50813, Control_c, 0, 64, 0
2, 50818, Note_off_c, 0, 67, 64
2, 50834, Note_off_c, 0, 55, 64
2, 50879, Control_c, 0, 64, 127
2, 50984, Control_c, 0, 64, 0
2, 51021, Control_c, 0, 64, 127
2, 51158, Note_on_c, 0, 59, 50
2, 51159, Note_on_c, 0, 40, 48
2, 51164, Note_on_c, 0, 55, 47
2, 51165, Note_on_c, 0, 47, 50
2, 51181, Control_c, 0, 64, 0
2, 51224, Control_c, 0, 64, 127
2, 51305, Control_c, 0, 64, 0
2, 51371, Control_c, 0, 64, 127
2, 51374, Note_off_c, 0, 59, 64
2, 51375, Note_off_c, 0, 40, 64
2, 51380, Note_off_c, 0, 55, 64
2, 51381, Note_off_c, 0, 47, 64
2, 51594, Note_on_c, 0, 57, 47
2, 51599, Note_on_c, 0, 60, 47
2, 51599, Note_on_c, 0, 45, 47
2, 51624, Control_c, 0, 64, 0
2, 51673, Control_c, 0, 64, 0
2, 51686, Control_c, 0, 64, 127
2, 51716, Control_c, 0, 64, 127
2, 51799, Note_off_c, 0, 52, 64
2, 51918, Note_on_c, 0, 67, 51
2, 51920, Note_on_c, 0, 55, 49
2, 51924, Note_off_c, 0, 64, 64
2, 51970, Note_on_c, 0, 64, 58
2, 51974, Note_off_c, 0, 57, 64
2, 51974, Note_on_c, 0, 52, 46
2, 51979, Note_off_c, 0, 45, 64
2, 51979, Note_off_c, 0, 60, 64
2, 51983, Control_c, 0, 64, 0
2, 51989, Note_off_c, 0, 67, 64
2, 52005, Note_off_c, 0, 55, 64
2, 52080, Control_c, 0, 64, 127
2, 52116, Control_c, 0, 64, 0
2, 52178, Control_c, 0, 64, 127
2, 52304, Note_on_c, 0, 59, 49
2, 52306, Note_on_c, 0, 55, 46
2, 52316, Note_on_c, 0, 47, 46
2, 52316, Note_on_c, 0, 40, 49
2, 52316, Control_c, 0, 64, 0
2, 52372, Control_c, 0, 64, 127
2, 52475, Control_c, 0, 64, 0
2, 52572, Control_c, 0, 64, 127
2, 52601, Note_off_c, 0, 59, 64
2, 52603, Note_off_c, 0, 55, 64
2, 52613, Note_off_c, 0, 40, 64
2, 52613, Note_off_c, 0, 47, 64
2, 52699, Note_on_c, 0, 60, 49
2, 52704, Note_on_c, 0, 57, 46
2, 52707, Note_on_c, 0, 45, 43
2, 52720, Control_c, 0, 64, 0
2, 52761, Control_c, 0, 64, 127
2, 52808, Control_c, 0, 64, 0
2, 52856, Note_off_c, 0, 52, 64
2, 52864, Control_c, 0, 64, 127
2, 53038, Note_on_c, 0, 67, 51
2, 53042, Note_off_c, 0, 64, 64
2, 53042, Note_on_c, 0, 55, 42
2, 53084, Note_off_c, 0, 60, 64
2, 53089, Note_off_c, 0, 57, 64
2, 53092, Note_off_c, 0, 45, 64
2, 53093, Note_on_c, 0, 52, 48
2, 53096, Note_on_c, 0, 64, 54
2, 53108, Note_off_c, 0, 67, 64
2, 53119, Control_c, 0, 64, 0
2, 53124, Note_off_c, 0, 55, 64
2, 53212, Control_c, 0, 64, 0
2, 53253, Control_c, 0, 64, 127
2, 53584, Note_on_c, 0, 60, 31
2, 53584, Note_on_c, 0, 57, 32
2, 53584, Note_on_c, 0, 45, 34
2, 53611, Control_c, 0, 64, 0
2, 53635, Control_c, 0, 64, 127
2, 53760, Note_off_c, 0, 52, 64
2, 53767, Note_off_c, 0, 64, 64
2, 54005, Note_on_c, 0, 55, 42
2, 54008, Note_on_c, 0, 67, 46
2, 54009, Note_off_c, 0, 45, 64
2, 54009, Note_off_c, 0, 57, 64
2, 54009, Note_off_c, 0, 60, 64
2, 54127, Control_c, 0, 64, 127
2, 54470, Note_on_c, 0, 72, 50
2, 54476, Note_on_c, 0, 60, 35
2, 54494, Control_c, 0, 64, 0
2, 54499, Note_off_c, 0, 67, 64
2, 54503, Note_off_c, 0, 55, 64
2, 54532, Control_c, 0, 64, 127
2, 54670, Note_on_c, 0, 67, 48
2, 54673, Note_on_c, 0, 55, 39
2, 54686, Note_off_c, 0, 72, 64
2, 54702, Note_off_c, 0, 60, 64
2, 54754, Control_c, 0, 64, 0
2, 54785, Control_c, 0, 64, 127
2, 54872, Note_on_c, 0, 53, 39
2, 54877, Note_on_c, 0, 65, 42
2, 54883, Note_off_c, 0, 55, 64
2, 54898, Note_off_c, 0, 67, 64
2, 54911, Control_c, 0, 64, 0
2, 54984, Control_c, 0, 64, 127
2, 54986, Control_c, 0, 64, 0
2, 55024, Control_c, 0, 64, 127
2, 55246, Control_c, 0, 64, 0
2, 55277, Control_c, 0, 64, 127
2, 55337, Note_on_c, 0, 64, 34
2, 55345, Note_on_c, 0, 52, 34
2, 55354, Note_off_c, 0, 65, 64
2, 55366, Control_c, 0, 64, 0
2, 55370, Note_off_c, 0, 53, 64
2, 55399, Control_c, 0, 64, 127
2, 55403, Control_c, 0, 64, 0
2, 55476, Control_c, 0, 64, 127
2, 55741, Note_on_c, 0, 55, 36
2, 55747, Note_on_c, 0, 67, 46
2, 55750, Note_off_c, 0, 52, 64
2, 55762, Note_off_c, 0, 64, 64
2, 55824, Note_on_c, 0, 64, 46
2, 55834, Note_on_c, 0, 52, 37
2, 55842, Note_off_c, 0, 55, 64
2, 55848, Note_off_c, 0, 67, 64
2, 55849, Control_c, 0, 64, 0
2, 55858, Control_c, 0, 64, 0
2, 55891, Control_c, 0, 64, 127
2, 55934, Control_c, 0, 64, 127
2, 56341, Control_c, 0, 64, 0
2, 56426, Control_c, 0, 64, 127
2, 56562, Note_on_c, 0, 59, 25
2, 56569, Note_on_c, 0, 40, 25
2, 56571, Note_on_c, 0, 47, 26
2, 56574, Note_on_c, 0, 55, 23
2, 56641, Control_c, 0, 64, 0
2, 56774, Control_c, 0, 64, 127
2, 57133, Control_c, 0, 64, 0
2, 57266, Control_c, 0, 64, 127
2, 59009, Note_off_c, 0, 52, 64
2, 59015, Note_off_c, 0, 40, 64
2, 59022, Note_off_c, 0, 47, 64
2, 59036, Note_off_c, 0, 55, 64
2, 59045, Note_off_c, 0, 59, 64
2, 59065, Note_off_c, 0, 64, 64
2, 59065, End_track
3, 0, Start_track
3, 0, Title_t, "Played by Dr. Ron Lubetsky"
3, 0, End_track
4, 0, Start_track
4, 0, Title_t, "Feb. 22, 1998"
4, 0, End_track
5, 0, Start_track
5, 0, Title_t, "email: acuity2020@aol.com"
5, 0, End_track
6, 0, Start_track
6, 0, Title_t, "Copyright  1998"
6, 0, End_track
7, 0, Start_track
7, 0, Title_t, "All Rights Reserved"
7, 0, End_track
0, 0, End_of_file
