2, 0, Program_c, 0, 0
2, 0, Control_c, 0, 7, 127
2, 151, Control_c, 0, 64, 0
2, 151, Control_c, 0, 64, 0
2, 151, Control_c, 0, 64, 0
2, 194, Control_c, 0, 64, 127
2, 194, Control_c, 0, 64, 127
2, 194, Control_c, 0, 64, 127
2, 212, Note_on_c, 0, 74, 38
2, 317, Note_off_c, 0, 74, 64
2, 377, Note_on_c, 0, 74, 38
2, 380, Control_c, 0, 64, 0
2, 380, Control_c, 0, 64, 0
2, 380, Control_c, 0, 64, 0
2, 384, Note_on_c, 0, 47, 32
2, 420, Control_c, 0, 64, 127
2, 420, Control_c, 0, 64, 127
2, 420, Control_c, 0, 64, 127
2, 445, Note_on_c, 0, 76, 32
2, 457, Note_off_c, 0, 74, 64
2, 498, Note_on_c, 0, 74, 39
2, 510, Note_off_c, 0, 76, 64
2, 520, Control_c, 0, 64, 0
2, 520, Control_c, 0, 64, 0
2, 520, Control_c, 0, 64, 0
2, 544, Note_on_c, 0, 73, 42
2, 559, Note_off_c, 0, 74, 64
2, 562, Note_on_c, 0, 54, 32
2, 566, Note_on_c, 0, 62, 24
2, 580, Control_c, 0, 64, 127
2, 580, Control_c, 0, 64, 127
2, 580, Control_c, 0, 64, 127
2, 613, Note_off_c, 0, 47, 64
2, 618, Note_off_c, 0, 54, 64
2, 622, Note_off_c, 0, 62, 64
2, 713, Note_on_c, 0, 62, 31
2, 717, Note_on_c, 0, 71, 45
2, 719, Note_on_c, 0, 54, 38
2, 725, Note_off_c, 0, 73, 64
2, 769, Note_off_c, 0, 62, 64
2, 775, Note_off_c, 0, 54, 64
2, 876, Note_on_c, 0, 42, 38
2, 883, Control_c, 0, 64, 0
2, 883, Control_c, 0, 64, 0
2, 883, Control_c, 0, 64, 0
2, 890, Note_on_c, 0, 70, 39
2, 900, Control_c, 0, 64, 127
2, 900, Control_c, 0, 64, 127
2, 900, Control_c, 0, 64, 127
2, 914, Note_off_c, 0, 71, 64
2, 955, Note_on_c, 0, 67, 38
2, 960, Note_on_c, 0, 79, 38
2, 965, Note_off_c, 0, 70, 64
2, 1022, Control_c, 0, 64, 0
2, 1022, Control_c, 0, 64, 0
2, 1022, Control_c, 0, 64, 0
2, 1024, Note_on_c, 0, 66, 47
2, 1028, Note_on_c, 0, 78, 45
2, 1039, Note_off_c, 0, 67, 64
2, 1044, Note_off_c, 0, 79, 64
2, 1048, Note_on_c, 0, 58, 38
2, 1048, Note_on_c, 0, 54, 36
2, 1050, Note_on_c, 0, 64, 28
2, 1076, Control_c, 0, 64, 127
2, 1076, Control_c, 0, 64, 127
2, 1076, Control_c, 0, 64, 127
2, 1104, Note_off_c, 0, 54, 64
2, 1104, Note_off_c, 0, 58, 64
2, 1105, Note_off_c, 0, 42, 64
2, 1106, Note_off_c, 0, 64, 64
2, 1188, Note_on_c, 0, 54, 30
2, 1190, Note_on_c, 0, 64, 31
2, 1192, Note_on_c, 0, 58, 38
2, 1196, Note_off_c, 0, 66, 64
2, 1200, Note_off_c, 0, 78, 64
2, 1244, Note_off_c, 0, 54, 64
2, 1246, Note_off_c, 0, 64, 64
2, 1248, Note_off_c, 0, 58, 64
2, 1286, Note_on_c, 0, 74, 64
2, 1322, Note_off_c, 0, 74, 64
2, 1344, Note_on_c, 0, 74, 71
2, 1350, Control_c, 0, 64, 0
2, 1350, Control_c, 0, 64, 0
2, 1350, Control_c, 0, 64, 0
2, 1356, Note_on_c, 0, 47, 57
2, 1387, Control_c, 0, 64, 127
2, 1387, Control_c, 0, 64, 127
2, 1387, Control_c, 0, 64, 127
2, 1414, Note_on_c, 0, 76, 60
2, 1416, Note_off_c, 0, 74, 64
2, 1459, Note_on_c, 0, 74, 71
2, 1467, Control_c, 0, 64, 0
2, 1467, Control_c, 0, 64, 0
2, 1467, Control_c, 0, 64, 0
2, 1473, Note_off_c, 0, 76, 64
2, 1492, Note_on_c, 0, 54, 49
2, 1497, Note_on_c, 0, 62, 45
2, 1499, Note_on_c, 0, 73, 75
2, 1516, Note_off_c, 0, 74, 64
2, 1522, Control_c, 0, 64, 127
2, 1522, Control_c, 0, 64, 127
2, 1522, Control_c, 0, 64, 127
2, 1548, Note_off_c, 0, 54, 64
2, 1553, Note_off_c, 0, 62, 64
2, 1585, Note_off_c, 0, 47, 64
2, 1656, Note_on_c, 0, 71, 61
2, 1656, Note_on_c, 0, 62, 52
2, 1656, Note_on_c, 0, 54, 49
2, 1668, Note_off_c, 0, 73, 64
2, 1712, Note_off_c, 0, 54, 64
2, 1712, Note_off_c, 0, 62, 64
2, 1799, Note_on_c, 0, 42, 53
2, 1803, Control_c, 0, 64, 0
2, 1803, Control_c, 0, 64, 0
2, 1803, Control_c, 0, 64, 0
2, 1807, Note_on_c, 0, 69, 70
2, 1821, Note_off_c, 0, 71, 64
2, 1837, Control_c, 0, 64, 127
2, 1837, Control_c, 0, 64, 127
2, 1837, Control_c, 0, 64, 127
2, 1875, Note_on_c, 0, 68, 75
2, 1898, Note_off_c, 0, 69, 64
2, 1937, Control_c, 0, 64, 0
2, 1937, Control_c, 0, 64, 0
2, 1937, Control_c, 0, 64, 0
2, 1951, Note_on_c, 0, 66, 71
2, 1964, Note_off_c, 0, 68, 64
2, 1976, Note_on_c, 0, 57, 49
2, 1979, Note_on_c, 0, 54, 38
2, 1983, Note_on_c, 0, 61, 38
2, 1995, Control_c, 0, 64, 127
2, 1995, Control_c, 0, 64, 127
2, 1995, Control_c, 0, 64, 127
2, 2028, Note_off_c, 0, 42, 64
2, 2032, Note_off_c, 0, 57, 64
2, 2035, Note_off_c, 0, 54, 64
2, 2039, Note_off_c, 0, 61, 64
2, 2089, Note_off_c, 0, 66, 64
2, 2097, Note_on_c, 0, 61, 41
2, 2100, Note_on_c, 0, 57, 38
2, 2100, Note_on_c, 0, 54, 35
2, 2153, Note_off_c, 0, 61, 64
2, 2156, Note_off_c, 0, 54, 64
2, 2156, Note_off_c, 0, 57, 64
2, 2214, Control_c, 0, 64, 127
2, 2214, Control_c, 0, 64, 127
2, 2214, Control_c, 0, 64, 127
2, 2261, Control_c, 0, 64, 0
2, 2261, Control_c, 0, 64, 0
2, 2261, Control_c, 0, 64, 0
2, 2267, Note_on_c, 0, 71, 42
2, 2271, Note_on_c, 0, 43, 46
2, 2308, Control_c, 0, 64, 127
2, 2308, Control_c, 0, 64, 127
2, 2308, Control_c, 0, 64, 127
2, 2323, Note_off_c, 0, 71, 64
2, 2323, Note_on_c, 0, 73, 41
2, 2375, Note_on_c, 0, 71, 41
2, 2380, Control_c, 0, 64, 0
2, 2380, Control_c, 0, 64, 0
2, 2380, Control_c, 0, 64, 0
2, 2388, Note_off_c, 0, 73, 64
2, 2423, Note_on_c, 0, 69, 42
2, 2429, Note_on_c, 0, 59, 32
2, 2429, Note_on_c, 0, 50, 41
2, 2439, Note_off_c, 0, 71, 64
2, 2442, Control_c, 0, 64, 127
2, 2442, Control_c, 0, 64, 127
2, 2442, Control_c, 0, 64, 127
2, 2485, Note_off_c, 0, 50, 64
2, 2485, Note_off_c, 0, 59, 64
2, 2500, Note_off_c, 0, 43, 64
2, 2571, Note_on_c, 0, 59, 26
2, 2583, Note_on_c, 0, 50, 43
2, 2588, Note_on_c, 0, 67, 41
2, 2603, Note_off_c, 0, 69, 64
2, 2627, Note_off_c, 0, 59, 64
2, 2639, Note_off_c, 0, 50, 64
2, 2720, Control_c, 0, 64, 0
2, 2720, Control_c, 0, 64, 0
2, 2720, Control_c, 0, 64, 0
2, 2727, Note_on_c, 0, 38, 38
2, 2733, Note_on_c, 0, 66, 42
2, 2735, Note_off_c, 0, 67, 64
2, 2762, Control_c, 0, 64, 127
2, 2762, Control_c, 0, 64, 127
2, 2762, Control_c, 0, 64, 127
2, 2804, Note_off_c, 0, 66, 64
2, 2812, Note_on_c, 0, 76, 45
2, 2812, Note_on_c, 0, 64, 45
2, 2861, Control_c, 0, 64, 0
2, 2861, Control_c, 0, 64, 0
2, 2861, Control_c, 0, 64, 0
2, 2876, Note_on_c, 0, 74, 47
2, 2876, Note_on_c, 0, 62, 42
2, 2884, Note_on_c, 0, 50, 32
2, 2888, Note_on_c, 0, 57, 34
2, 2890, Note_on_c, 0, 54, 41
2, 2896, Note_off_c, 0, 64, 64
2, 2896, Note_off_c, 0, 76, 64
2, 2919, Control_c, 0, 64, 127
2, 2919, Control_c, 0, 64, 127
2, 2919, Control_c, 0, 64, 127
2, 2940, Note_off_c, 0, 50, 64
2, 2944, Note_off_c, 0, 57, 64
2, 2946, Note_off_c, 0, 54, 64
2, 2956, Note_off_c, 0, 38, 64
2, 3023, Note_on_c, 0, 57, 30
2, 3023, Note_on_c, 0, 54, 31
2, 3023, Note_on_c, 0, 50, 23
2, 3074, Note_off_c, 0, 62, 64
2, 3074, Note_off_c, 0, 74, 64
2, 3079, Note_off_c, 0, 50, 64
2, 3079, Note_off_c, 0, 54, 64
2, 3079, Note_off_c, 0, 57, 64
2, 3170, Note_on_c, 0, 67, 67
2, 3177, Note_on_c, 0, 40, 38
2, 3187, Control_c, 0, 64, 0
2, 3187, Control_c, 0, 64, 0
2, 3187, Control_c, 0, 64, 0
2, 3237, Note_on_c, 0, 69, 64
2, 3243, Control_c, 0, 64, 127
2, 3243, Control_c, 0, 64, 127
2, 3243, Control_c, 0, 64, 127
2, 3248, Note_off_c, 0, 67, 64
2, 3282, Note_on_c, 0, 67, 63
2, 3296, Note_off_c, 0, 69, 64
2, 3300, Control_c, 0, 64, 0
2, 3300, Control_c, 0, 64, 0
2, 3300, Control_c, 0, 64, 0
2, 3318, Note_on_c, 0, 66, 75
2, 3328, Note_on_c, 0, 55, 30
2, 3328, Note_on_c, 0, 49, 46
2, 3328, Note_on_c, 0, 47, 38
2, 3347, Note_off_c, 0, 67, 64
2, 3365, Control_c, 0, 64, 127
2, 3365, Control_c, 0, 64, 127
2, 3365, Control_c, 0, 64, 127
2, 3384, Note_off_c, 0, 47, 64
2, 3384, Note_off_c, 0, 49, 64
2, 3384, Note_off_c, 0, 55, 64
2, 3406, Note_off_c, 0, 40, 64
2, 3472, Control_c, 0, 64, 0
2, 3472, Control_c, 0, 64, 0
2, 3472, Control_c, 0, 64, 0
2, 3485, Note_on_c, 0, 64, 61
2, 3485, Note_on_c, 0, 52, 35
2, 3488, Note_on_c, 0, 46, 45
2, 3488, Note_on_c, 0, 42, 45
2, 3493, Note_off_c, 0, 66, 64
2, 3515, Control_c, 0, 64, 127
2, 3515, Control_c, 0, 64, 127
2, 3515, Control_c, 0, 64, 127
2, 3541, Note_off_c, 0, 52, 64
2, 3544, Note_off_c, 0, 42, 64
2, 3544, Note_off_c, 0, 46, 64
2, 3636, Note_on_c, 0, 62, 61
2, 3645, Control_c, 0, 64, 0
2, 3645, Control_c, 0, 64, 0
2, 3645, Control_c, 0, 64, 0
2, 3650, Note_off_c, 0, 64, 64
2, 3652, Note_on_c, 0, 35, 73
2, 3691, Control_c, 0, 64, 127
2, 3691, Control_c, 0, 64, 127
2, 3691, Control_c, 0, 64, 127
2, 3707, Note_on_c, 0, 61, 78
2, 3725, Note_off_c, 0, 62, 64
2, 3783, Control_c, 0, 64, 0
2, 3783, Control_c, 0, 64, 0
2, 3783, Control_c, 0, 64, 0
2, 3792, Note_on_c, 0, 50, 38
2, 3792, Note_on_c, 0, 42, 43
2, 3797, Note_on_c, 0, 59, 69
2, 3806, Note_off_c, 0, 61, 64
2, 3856, Control_c, 0, 64, 127
2, 3856, Control_c, 0, 64, 127
2, 3856, Control_c, 0, 64, 127
2, 3904, Note_off_c, 0, 35, 64
2, 3935, Note_off_c, 0, 42, 64
2, 3940, Note_off_c, 0, 50, 64
2, 3948, Note_off_c, 0, 59, 64
2, 4113, Note_on_c, 0, 74, 45
2, 4150, Note_off_c, 0, 74, 64
2, 4159, Control_c, 0, 64, 0
2, 4159, Control_c, 0, 64, 0
2, 4159, Control_c, 0, 64, 0
2, 4180, Note_on_c, 0, 74, 45
2, 4188, Note_on_c, 0, 47, 38
2, 4228, Control_c, 0, 64, 127
2, 4228, Control_c, 0, 64, 127
2, 4228, Control_c, 0, 64, 127
2, 4243, Note_on_c, 0, 76, 34
2, 4250, Note_off_c, 0, 74, 64
2, 4294, Note_on_c, 0, 74, 46
2, 4297, Control_c, 0, 64, 0
2, 4297, Control_c, 0, 64, 0
2, 4297, Control_c, 0, 64, 0
2, 4308, Note_off_c, 0, 76, 64
2, 4336, Note_on_c, 0, 73, 39
2, 4346, Control_c, 0, 64, 127
2, 4346, Control_c, 0, 64, 127
2, 4346, Control_c, 0, 64, 127
2, 4352, Note_on_c, 0, 62, 30
2, 4356, Note_off_c, 0, 74, 64
2, 4356, Note_on_c, 0, 54, 32
2, 4408, Note_off_c, 0, 62, 64
2, 4412, Note_off_c, 0, 54, 64
2, 4417, Note_off_c, 0, 47, 64
2, 4488, Note_on_c, 0, 62, 30
2, 4496, Note_on_c, 0, 54, 41
2, 4505, Note_on_c, 0, 71, 45
2, 4507, Note_off_c, 0, 73, 64
2, 4544, Note_off_c, 0, 62, 64
2, 4552, Note_off_c, 0, 54, 64
2, 4645, Control_c, 0, 64, 0
2, 4645, Control_c, 0, 64, 0
2, 4645, Control_c, 0, 64, 0
2, 4652, Note_on_c, 0, 42, 42
2, 4660, Note_on_c, 0, 70, 42
2, 4678, Note_off_c, 0, 71, 64
2, 4681, Control_c, 0, 64, 127
2, 4681, Control_c, 0, 64, 127
2, 4681, Control_c, 0, 64, 127
2, 4764, Note_on_c, 0, 67, 34
2, 4768, Note_on_c, 0, 79, 41
2, 4776, Note_off_c, 0, 70, 64
2, 4802, Control_c, 0, 64, 0
2, 4802, Control_c, 0, 64, 0
2, 4802, Control_c, 0, 64, 0
2, 4811, Note_on_c, 0, 54, 30
2, 4815, Note_on_c, 0, 64, 42
2, 4815, Note_on_c, 0, 58, 45
2, 4820, Note_on_c, 0, 78, 52
2, 4820, Note_on_c, 0, 66, 54
2, 4827, Note_off_c, 0, 67, 64
2, 4831, Note_off_c, 0, 79, 64
2, 4867, Note_off_c, 0, 54, 64
2, 4867, Control_c, 0, 64, 127
2, 4867, Control_c, 0, 64, 127
2, 4867, Control_c, 0, 64, 127
2, 4871, Note_off_c, 0, 58, 64
2, 4871, Note_off_c, 0, 64, 64
2, 4881, Note_off_c, 0, 42, 64
2, 4939, Note_off_c, 0, 66, 64
2, 4939, Note_off_c, 0, 78, 64
2, 4956, Note_on_c, 0, 64, 15
2, 4964, Note_on_c, 0, 58, 28
2, 4967, Note_on_c, 0, 54, 23
2, 5012, Note_off_c, 0, 64, 64
2, 5020, Note_off_c, 0, 58, 64
2, 5023, Note_off_c, 0, 54, 64
2, 5058, Note_on_c, 0, 74, 63
2, 5092, Note_off_c, 0, 74, 64
2, 5114, Note_on_c, 0, 74, 65
2, 5118, Control_c, 0, 64, 0
2, 5118, Control_c, 0, 64, 0
2, 5118, Control_c, 0, 64, 0
2, 5125, Note_on_c, 0, 47, 53
2, 5174, Control_c, 0, 64, 127
2, 5174, Control_c, 0, 64, 127
2, 5174, Control_c, 0, 64, 127
2, 5183, Note_on_c, 0, 76, 52
2, 5190, Note_off_c, 0, 74, 64
2, 5224, Note_on_c, 0, 74, 64
2, 5233, Control_c, 0, 64, 0
2, 5233, Control_c, 0, 64, 0
2, 5233, Control_c, 0, 64, 0
2, 5240, Note_off_c, 0, 76, 64
2, 5263, Note_on_c, 0, 73, 71
2, 5268, Note_on_c, 0, 62, 34
2, 5270, Note_on_c, 0, 54, 46
2, 5278, Note_off_c, 0, 74, 64
2, 5287, Control_c, 0, 64, 127
2, 5287, Control_c, 0, 64, 127
2, 5287, Control_c, 0, 64, 127
2, 5324, Note_off_c, 0, 62, 64
2, 5326, Note_off_c, 0, 54, 64
2, 5354, Note_off_c, 0, 47, 64
2, 5409, Note_on_c, 0, 71, 61
2, 5413, Note_on_c, 0, 62, 46
2, 5415, Note_on_c, 0, 54, 50
2, 5426, Note_off_c, 0, 73, 64
2, 5469, Note_off_c, 0, 62, 64
2, 5471, Note_off_c, 0, 54, 64
2, 5558, Control_c, 0, 64, 0
2, 5558, Control_c, 0, 64, 0
2, 5558, Control_c, 0, 64, 0
2, 5563, Note_on_c, 0, 42, 53
2, 5567, Note_on_c, 0, 69, 64
2, 5579, Note_off_c, 0, 71, 64
2, 5606, Control_c, 0, 64, 127
2, 5606, Control_c, 0, 64, 127
2, 5606, Control_c, 0, 64, 127
2, 5668, Note_on_c, 0, 68, 46
2, 5685, Note_off_c, 0, 69, 64
2, 5694, Control_c, 0, 64, 0
2, 5694, Control_c, 0, 64, 0
2, 5694, Control_c, 0, 64, 0
2, 5706, Note_on_c, 0, 66, 69
2, 5724, Note_on_c, 0, 57, 38
2, 5727, Note_on_c, 0, 61, 38
2, 5727, Note_on_c, 0, 54, 34
2, 5737, Note_off_c, 0, 68, 64
2, 5767, Control_c, 0, 64, 127
2, 5767, Control_c, 0, 64, 127
2, 5767, Control_c, 0, 64, 127
2, 5780, Note_off_c, 0, 57, 64
2, 5783, Note_off_c, 0, 54, 64
2, 5783, Note_off_c, 0, 61, 64
2, 5792, Note_off_c, 0, 42, 64
2, 5828, Note_off_c, 0, 66, 64
2, 5844, Note_on_c, 0, 57, 30
2, 5844, Note_on_c, 0, 54, 35
2, 5851, Note_on_c, 0, 61, 36
2, 5900, Note_off_c, 0, 54, 64
2, 5900, Note_off_c, 0, 57, 64
2, 5907, Note_off_c, 0, 61, 64
2, 5965, Note_on_c, 0, 71, 42
2, 6000, Note_off_c, 0, 71, 64
2, 6018, Control_c, 0, 64, 0
2, 6018, Control_c, 0, 64, 0
2, 6018, Control_c, 0, 64, 0
2, 6026, Note_on_c, 0, 71, 43
2, 6026, Note_on_c, 0, 43, 38
2, 6077, Control_c, 0, 64, 127
2, 6077, Control_c, 0, 64, 127
2, 6077, Control_c, 0, 64, 127
2, 6087, Note_on_c, 0, 73, 38
2, 6094, Note_off_c, 0, 71, 64
2, 6127, Note_on_c, 0, 71, 36
2, 6133, Control_c, 0, 64, 0
2, 6133, Control_c, 0, 64, 0
2, 6133, Control_c, 0, 64, 0
2, 6148, Note_off_c, 0, 73, 64
2, 6164, Note_on_c, 0, 59, 30
2, 6171, Note_on_c, 0, 69, 38
2, 6171, Note_on_c, 0, 50, 38
2, 6195, Control_c, 0, 64, 127
2, 6195, Control_c, 0, 64, 127
2, 6195, Control_c, 0, 64, 127
2, 6200, Note_off_c, 0, 71, 64
2, 6220, Note_off_c, 0, 59, 64
2, 6227, Note_off_c, 0, 50, 64
2, 6255, Note_off_c, 0, 43, 64
2, 6286, Control_c, 0, 64, 0
2, 6286, Control_c, 0, 64, 0
2, 6286, Control_c, 0, 64, 0
2, 6314, Note_on_c, 0, 59, 24
2, 6319, Note_on_c, 0, 50, 38
2, 6323, Note_on_c, 0, 67, 38
2, 6327, Control_c, 0, 64, 127
2, 6327, Control_c, 0, 64, 127
2, 6327, Control_c, 0, 64, 127
2, 6337, Note_off_c, 0, 69, 64
2, 6370, Note_off_c, 0, 59, 64
2, 6375, Note_off_c, 0, 50, 64
2, 6458, Control_c, 0, 64, 0
2, 6458, Control_c, 0, 64, 0
2, 6458, Control_c, 0, 64, 0
2, 6464, Note_on_c, 0, 66, 35
2, 6470, Note_on_c, 0, 38, 31
2, 6485, Note_off_c, 0, 67, 64
2, 6501, Control_c, 0, 64, 127
2, 6501, Control_c, 0, 64, 127
2, 6501, Control_c, 0, 64, 127
2, 6568, Note_on_c, 0, 76, 31
2, 6572, Note_on_c, 0, 64, 38
2, 6585, Note_off_c, 0, 66, 64
2, 6601, Control_c, 0, 64, 0
2, 6601, Control_c, 0, 64, 0
2, 6601, Control_c, 0, 64, 0
2, 6610, Note_on_c, 0, 74, 38
2, 6614, Note_on_c, 0, 62, 41
2, 6616, Note_on_c, 0, 57, 31
2, 6616, Note_on_c, 0, 54, 35
2, 6622, Note_off_c, 0, 76, 64
2, 6624, Note_on_c, 0, 50, 31
2, 6626, Note_off_c, 0, 64, 64
2, 6670, Control_c, 0, 64, 127
2, 6670, Control_c, 0, 64, 127
2, 6670, Control_c, 0, 64, 127
2, 6672, Note_off_c, 0, 54, 64
2, 6672, Note_off_c, 0, 57, 64
2, 6680, Note_off_c, 0, 50, 64
2, 6699, Note_off_c, 0, 38, 64
2, 6736, Control_c, 0, 64, 0
2, 6736, Control_c, 0, 64, 0
2, 6736, Control_c, 0, 64, 0
2, 6749, Control_c, 0, 64, 127
2, 6749, Control_c, 0, 64, 127
2, 6749, Control_c, 0, 64, 127
2, 6754, Note_on_c, 0, 57, 27
2, 6762, Note_on_c, 0, 54, 24
2, 6762, Note_on_c, 0, 50, 10
2, 6810, Note_off_c, 0, 57, 64
2, 6818, Note_off_c, 0, 50, 64
2, 6818, Note_off_c, 0, 54, 64
2, 6834, Note_off_c, 0, 74, 64
2, 6838, Note_off_c, 0, 62, 64
2, 6858, Note_on_c, 0, 67, 75
2, 6894, Note_off_c, 0, 67, 64
2, 6917, Note_on_c, 0, 40, 32
2, 6921, Note_on_c, 0, 67, 76
2, 6922, Control_c, 0, 64, 0
2, 6922, Control_c, 0, 64, 0
2, 6922, Control_c, 0, 64, 0
2, 6957, Control_c, 0, 64, 127
2, 6957, Control_c, 0, 64, 127
2, 6957, Control_c, 0, 64, 127
2, 6972, Note_on_c, 0, 69, 67
2, 6990, Note_off_c, 0, 67, 64
2, 7018, Note_on_c, 0, 67, 63
2, 7033, Note_off_c, 0, 69, 64
2, 7050, Control_c, 0, 64, 0
2, 7050, Control_c, 0, 64, 0
2, 7050, Control_c, 0, 64, 0
2, 7056, Note_on_c, 0, 66, 82
2, 7060, Note_on_c, 0, 47, 49
2, 7061, Note_on_c, 0, 49, 49
2, 7065, Note_on_c, 0, 55, 47
2, 7084, Note_off_c, 0, 67, 64
2, 7102, Control_c, 0, 64, 127
2, 7102, Control_c, 0, 64, 127
2, 7102, Control_c, 0, 64, 127
2, 7116, Note_off_c, 0, 47, 64
2, 7117, Note_off_c, 0, 49, 64
2, 7121, Note_off_c, 0, 55, 64
2, 7146, Note_off_c, 0, 40, 64
2, 7206, Note_on_c, 0, 64, 67
2, 7212, Note_on_c, 0, 52, 26
2, 7212, Note_on_c, 0, 42, 50
2, 7214, Note_on_c, 0, 46, 43
2, 7216, Control_c, 0, 64, 0
2, 7216, Control_c, 0, 64, 0
2, 7216, Control_c, 0, 64, 0
2, 7223, Note_off_c, 0, 66, 64
2, 7268, Note_off_c, 0, 42, 64
2, 7268, Note_off_c, 0, 52, 64
2, 7268, Control_c, 0, 64, 127
2, 7268, Control_c, 0, 64, 127
2, 7268, Control_c, 0, 64, 127
2, 7270, Note_off_c, 0, 46, 64
2, 7372, Note_on_c, 0, 62, 64
2, 7377, Note_on_c, 0, 35, 76
2, 7384, Note_off_c, 0, 64, 64
2, 7387, Control_c, 0, 64, 0
2, 7387, Control_c, 0, 64, 0
2, 7387, Control_c, 0, 64, 0
2, 7440, Control_c, 0, 64, 127
2, 7440, Control_c, 0, 64, 127
2, 7440, Control_c, 0, 64, 127
2, 7493, Note_on_c, 0, 61, 57
2, 7504, Note_off_c, 0, 62, 64
2, 7546, Note_on_c, 0, 59, 69
2, 7555, Note_on_c, 0, 50, 50
2, 7555, Note_on_c, 0, 42, 49
2, 7561, Note_off_c, 0, 61, 64
2, 7570, Control_c, 0, 64, 0
2, 7570, Control_c, 0, 64, 0
2, 7570, Control_c, 0, 64, 0
2, 7632, Control_c, 0, 64, 127
2, 7632, Control_c, 0, 64, 127
2, 7632, Control_c, 0, 64, 127
2, 7703, Note_off_c, 0, 35, 64
2, 7718, Note_off_c, 0, 42, 64
2, 7718, Note_off_c, 0, 50, 64
2, 7743, Note_on_c, 0, 66, 67
2, 7770, Note_off_c, 0, 59, 64
2, 7903, Note_on_c, 0, 37, 52
2, 7908, Note_on_c, 0, 65, 52
2, 7916, Control_c, 0, 64, 0
2, 7916, Control_c, 0, 64, 0
2, 7916, Control_c, 0, 64, 0
2, 7922, Note_off_c, 0, 66, 64
2, 7934, Control_c, 0, 64, 0
2, 7934, Control_c, 0, 64, 0
2, 7934, Control_c, 0, 64, 0
2, 7963, Control_c, 0, 64, 127
2, 7963, Control_c, 0, 64, 127
2, 7963, Control_c, 0, 64, 127
2, 7985, Note_on_c, 0, 66, 49
2, 8014, Note_off_c, 0, 65, 64
2, 8050, Control_c, 0, 64, 0
2, 8050, Control_c, 0, 64, 0
2, 8050, Control_c, 0, 64, 0
2, 8056, Note_on_c, 0, 50, 32
2, 8060, Note_on_c, 0, 62, 38
2, 8060, Note_on_c, 0, 59, 24
2, 8061, Note_on_c, 0, 68, 49
2, 8065, Note_on_c, 0, 54, 32
2, 8083, Note_off_c, 0, 66, 64
2, 8104, Control_c, 0, 64, 127
2, 8104, Control_c, 0, 64, 127
2, 8104, Control_c, 0, 64, 127
2, 8112, Note_off_c, 0, 50, 64
2, 8116, Note_off_c, 0, 59, 64
2, 8116, Note_off_c, 0, 62, 64
2, 8121, Note_off_c, 0, 54, 64
2, 8132, Note_off_c, 0, 37, 64
2, 8207, Control_c, 0, 64, 0
2, 8207, Control_c, 0, 64, 0
2, 8207, Control_c, 0, 64, 0
2, 8217, Note_on_c, 0, 61, 38
2, 8220, Note_on_c, 0, 59, 31
2, 8220, Note_on_c, 0, 53, 36
2, 8222, Note_on_c, 0, 69, 52
2, 8222, Note_on_c, 0, 49, 38
2, 8232, Note_off_c, 0, 68, 64
2, 8243, Control_c, 0, 64, 127
2, 8243, Control_c, 0, 64, 127
2, 8243, Control_c, 0, 64, 127
2, 8273, Note_off_c, 0, 61, 64
2, 8276, Note_off_c, 0, 53, 64
2, 8276, Note_off_c, 0, 59, 64
2, 8278, Note_off_c, 0, 49, 64
2, 8289, Note_on_c, 0, 68, 38
2, 8308, Note_off_c, 0, 69, 64
2, 8356, Control_c, 0, 64, 0
2, 8356, Control_c, 0, 64, 0
2, 8356, Control_c, 0, 64, 0
2, 8364, Note_on_c, 0, 66, 52
2, 8364, Note_on_c, 0, 42, 57
2, 8368, Note_on_c, 0, 61, 28
2, 8377, Note_off_c, 0, 68, 64
2, 8392, Control_c, 0, 64, 127
2, 8392, Control_c, 0, 64, 127
2, 8392, Control_c, 0, 64, 127
2, 8424, Note_off_c, 0, 61, 64
2, 8427, Note_on_c, 0, 68, 42
2, 8453, Note_off_c, 0, 66, 64
2, 8492, Control_c, 0, 64, 0
2, 8492, Control_c, 0, 64, 0
2, 8492, Control_c, 0, 64, 0
2, 8496, Note_on_c, 0, 61, 46
2, 8498, Note_on_c, 0, 54, 38
2, 8499, Note_on_c, 0, 69, 53
2, 8500, Note_on_c, 0, 57, 20
2, 8514, Note_off_c, 0, 68, 64
2, 8535, Control_c, 0, 64, 127
2, 8535, Control_c, 0, 64, 127
2, 8535, Control_c, 0, 64, 127
2, 8552, Note_off_c, 0, 61, 64
2, 8554, Note_off_c, 0, 54, 64
2, 8556, Note_off_c, 0, 57, 64
2, 8593, Note_off_c, 0, 42, 64
2, 8635, Control_c, 0, 64, 0
2, 8635, Control_c, 0, 64, 0
2, 8635, Control_c, 0, 64, 0
2, 8644, Note_on_c, 0, 57, 38
2, 8644, Note_on_c, 0, 53, 32
2, 8648, Note_on_c, 0, 71, 52
2, 8648, Note_on_c, 0, 63, 38
2, 8656, Note_off_c, 0, 69, 64
2, 8678, Control_c, 0, 64, 127
2, 8678, Control_c, 0, 64, 127
2, 8678, Control_c, 0, 64, 127
2, 8700, Note_off_c, 0, 53, 64
2, 8700, Note_off_c, 0, 57, 64
2, 8704, Note_off_c, 0, 63, 64
2, 8714, Note_on_c, 0, 69, 46
2, 8723, Note_off_c, 0, 71, 64
2, 8784, Note_on_c, 0, 68, 60
2, 8784, Note_on_c, 0, 64, 30
2, 8784, Note_on_c, 0, 59, 34
2, 8784, Control_c, 0, 64, 0
2, 8784, Control_c, 0, 64, 0
2, 8784, Control_c, 0, 64, 0
2, 8790, Note_on_c, 0, 52, 42
2, 8796, Note_off_c, 0, 69, 64
2, 8819, Control_c, 0, 64, 127
2, 8819, Control_c, 0, 64, 127
2, 8819, Control_c, 0, 64, 127
2, 8840, Note_off_c, 0, 59, 64
2, 8840, Note_off_c, 0, 64, 64
2, 8846, Note_off_c, 0, 52, 64
2, 8846, Note_on_c, 0, 69, 52
2, 8883, Note_off_c, 0, 68, 64
2, 8909, Control_c, 0, 64, 0
2, 8909, Control_c, 0, 64, 0
2, 8909, Control_c, 0, 64, 0
2, 8916, Note_on_c, 0, 65, 38
2, 8916, Note_on_c, 0, 62, 38
2, 8920, Note_on_c, 0, 52, 39
2, 8921, Note_on_c, 0, 71, 58
2, 8921, Note_on_c, 0, 57, 45
2, 8944, Note_off_c, 0, 69, 64
2, 8954, Control_c, 0, 64, 127
2, 8954, Control_c, 0, 64, 127
2, 8954, Control_c, 0, 64, 127
2, 8972, Note_off_c, 0, 62, 64
2, 8972, Note_off_c, 0, 65, 64
2, 8976, Note_off_c, 0, 52, 64
2, 8977, Note_off_c, 0, 57, 64
2, 9063, Note_on_c, 0, 62, 42
2, 9064, Note_on_c, 0, 64, 38
2, 9064, Note_on_c, 0, 56, 45
2, 9064, Note_on_c, 0, 52, 45
2, 9066, Note_on_c, 0, 73, 61
2, 9068, Control_c, 0, 64, 0
2, 9068, Control_c, 0, 64, 0
2, 9068, Control_c, 0, 64, 0
2, 9078, Note_off_c, 0, 71, 64
2, 9088, Control_c, 0, 64, 127
2, 9088, Control_c, 0, 64, 127
2, 9088, Control_c, 0, 64, 127
2, 9119, Note_off_c, 0, 62, 64
2, 9120, Note_off_c, 0, 52, 64
2, 9120, Note_off_c, 0, 56, 64
2, 9120, Note_off_c, 0, 64, 64
2, 9127, Note_on_c, 0, 71, 47
2, 9133, Note_off_c, 0, 73, 64
2, 9193, Note_on_c, 0, 45, 53
2, 9200, Note_on_c, 0, 69, 63
2, 9200, Note_on_c, 0, 64, 47
2, 9207, Control_c, 0, 64, 0
2, 9207, Control_c, 0, 64, 0
2, 9207, Control_c, 0, 64, 0
2, 9215, Note_off_c, 0, 71, 64
2, 9240, Control_c, 0, 64, 127
2, 9240, Control_c, 0, 64, 127
2, 9240, Control_c, 0, 64, 127
2, 9256, Note_off_c, 0, 64, 64
2, 9268, Note_on_c, 0, 71, 52
2, 9298, Note_off_c, 0, 69, 64
2, 9323, Control_c, 0, 64, 0
2, 9323, Control_c, 0, 64, 0
2, 9323, Control_c, 0, 64, 0
2, 9340, Note_on_c, 0, 69, 47
2, 9344, Note_on_c, 0, 64, 31
2, 9344, Note_on_c, 0, 57, 45
2, 9346, Note_on_c, 0, 73, 58
2, 9365, Control_c, 0, 64, 127
2, 9365, Control_c, 0, 64, 127
2, 9365, Control_c, 0, 64, 127
2, 9383, Note_off_c, 0, 71, 64
2, 9396, Note_off_c, 0, 69, 64
2, 9400, Note_off_c, 0, 57, 64
2, 9400, Note_off_c, 0, 64, 64
2, 9422, Note_off_c, 0, 45, 64
2, 9465, Control_c, 0, 64, 0
2, 9465, Control_c, 0, 64, 0
2, 9465, Control_c, 0, 64, 0
2, 9477, Note_on_c, 0, 61, 39
2, 9480, Note_on_c, 0, 75, 64
2, 9480, Note_on_c, 0, 57, 34
2, 9482, Note_on_c, 0, 67, 49
2, 9498, Control_c, 0, 64, 127
2, 9498, Control_c, 0, 64, 127
2, 9498, Control_c, 0, 64, 127
2, 9505, Note_off_c, 0, 73, 64
2, 9533, Note_off_c, 0, 61, 64
2, 9536, Note_off_c, 0, 57, 64
2, 9538, Note_off_c, 0, 67, 64
2, 9544, Note_on_c, 0, 73, 64
2, 9554, Note_off_c, 0, 75, 64
2, 9603, Control_c, 0, 64, 0
2, 9603, Control_c, 0, 64, 0
2, 9603, Control_c, 0, 64, 0
2, 9608, Note_on_c, 0, 63, 50
2, 9610, Note_on_c, 0, 56, 54
2, 9612, Note_on_c, 0, 72, 53
2, 9612, Note_on_c, 0, 68, 52
2, 9616, Note_off_c, 0, 73, 64
2, 9633, Control_c, 0, 64, 127
2, 9633, Control_c, 0, 64, 127
2, 9633, Control_c, 0, 64, 127
2, 9664, Note_off_c, 0, 63, 64
2, 9666, Note_off_c, 0, 56, 64
2, 9668, Note_off_c, 0, 68, 64
2, 9677, Note_on_c, 0, 73, 61
2, 9691, Note_off_c, 0, 72, 64
2, 9722, Control_c, 0, 64, 0
2, 9722, Control_c, 0, 64, 0
2, 9722, Control_c, 0, 64, 0
2, 9744, Note_on_c, 0, 61, 46
2, 9748, Note_on_c, 0, 69, 54
2, 9748, Note_on_c, 0, 66, 52
2, 9748, Note_on_c, 0, 56, 43
2, 9749, Note_on_c, 0, 75, 61
2, 9759, Note_off_c, 0, 73, 64
2, 9773, Control_c, 0, 64, 127
2, 9773, Control_c, 0, 64, 127
2, 9773, Control_c, 0, 64, 127
2, 9800, Note_off_c, 0, 61, 64
2, 9804, Note_off_c, 0, 56, 64
2, 9804, Note_off_c, 0, 66, 64
2, 9804, Note_off_c, 0, 69, 64
2, 9874, Control_c, 0, 64, 0
2, 9874, Control_c, 0, 64, 0
2, 9874, Control_c, 0, 64, 0
2, 9880, Note_on_c, 0, 68, 54
2, 9884, Note_on_c, 0, 66, 45
2, 9884, Note_on_c, 0, 60, 46
2, 9884, Note_on_c, 0, 56, 47
2, 9886, Note_on_c, 0, 77, 60
2, 9898, Note_off_c, 0, 75, 64
2, 9899, Control_c, 0, 64, 127
2, 9899, Control_c, 0, 64, 127
2, 9899, Control_c, 0, 64, 127
2, 9936, Note_off_c, 0, 68, 64
2, 9940, Note_off_c, 0, 56, 64
2, 9940, Note_off_c, 0, 60, 64
2, 9940, Note_off_c, 0, 66, 64
2, 9943, Note_on_c, 0, 75, 65
2, 9948, Note_off_c, 0, 77, 64
2, 9997, Control_c, 0, 64, 0
2, 9997, Control_c, 0, 64, 0
2, 9997, Control_c, 0, 64, 0
2, 10012, Note_on_c, 0, 73, 65
2, 10012, Note_on_c, 0, 71, 57
2, 10016, Note_on_c, 0, 49, 67
2, 10022, Note_off_c, 0, 75, 64
2, 10030, Control_c, 0, 64, 127
2, 10030, Control_c, 0, 64, 127
2, 10030, Control_c, 0, 64, 127
2, 10068, Note_off_c, 0, 71, 64
2, 10068, Note_on_c, 0, 75, 69
2, 10102, Note_off_c, 0, 73, 64
2, 10140, Note_on_c, 0, 61, 52
2, 10140, Control_c, 0, 64, 0
2, 10140, Control_c, 0, 64, 0
2, 10140, Control_c, 0, 64, 0
2, 10144, Note_on_c, 0, 73, 54
2, 10144, Note_on_c, 0, 71, 45
2, 10147, Note_on_c, 0, 77, 61
2, 10147, Note_on_c, 0, 68, 46
2, 10165, Note_off_c, 0, 75, 64
2, 10172, Control_c, 0, 64, 127
2, 10172, Control_c, 0, 64, 127
2, 10172, Control_c, 0, 64, 127
2, 10196, Note_off_c, 0, 61, 64
2, 10200, Note_off_c, 0, 71, 64
2, 10203, Note_off_c, 0, 68, 64
2, 10245, Note_off_c, 0, 49, 64
2, 10247, Note_off_c, 0, 73, 64
2, 10250, Note_off_c, 0, 77, 64
2, 10259, Control_c, 0, 64, 0
2, 10259, Control_c, 0, 64, 0
2, 10259, Control_c, 0, 64, 0
2, 10276, Note_on_c, 0, 69, 49
2, 10276, Note_on_c, 0, 61, 42
2, 10278, Note_on_c, 0, 73, 45
2, 10279, Note_on_c, 0, 78, 69
2, 10305, Control_c, 0, 64, 127
2, 10305, Control_c, 0, 64, 127
2, 10305, Control_c, 0, 64, 127
2, 10332, Note_off_c, 0, 61, 64
2, 10332, Note_off_c, 0, 69, 64
2, 10333, Note_off_c, 0, 78, 64
2, 10334, Note_off_c, 0, 73, 64
2, 10412, Note_on_c, 0, 77, 61
2, 10412, Note_on_c, 0, 71, 49
2, 10412, Note_on_c, 0, 68, 61
2, 10412, Note_on_c, 0, 61, 46
2, 10417, Note_on_c, 0, 73, 49
2, 10468, Note_off_c, 0, 61, 64
2, 10468, Note_off_c, 0, 71, 64
2, 10473, Note_off_c, 0, 73, 64
2, 10473, Note_on_c, 0, 78, 58
2, 10479, Note_off_c, 0, 77, 64
2, 10479, Note_on_c, 0, 66, 72
2, 10485, Note_off_c, 0, 68, 64
2, 10510, Control_c, 0, 64, 0
2, 10510, Control_c, 0, 64, 0
2, 10510, Control_c, 0, 64, 0
2, 10531, Note_on_c, 0, 80, 69
2, 10532, Note_on_c, 0, 71, 49
2, 10532, Note_on_c, 0, 65, 69
2, 10532, Note_on_c, 0, 61, 46
2, 10534, Note_on_c, 0, 73, 52
2, 10539, Note_off_c, 0, 78, 64
2, 10552, Note_off_c, 0, 66, 64
2, 10555, Control_c, 0, 64, 127
2, 10555, Control_c, 0, 64, 127
2, 10555, Control_c, 0, 64, 127
2, 10588, Note_off_c, 0, 61, 64
2, 10588, Note_off_c, 0, 65, 64
2, 10588, Note_off_c, 0, 71, 64
2, 10590, Note_off_c, 0, 73, 64
2, 10624, Note_off_c, 0, 80, 64
2, 10659, Control_c, 0, 64, 0
2, 10659, Control_c, 0, 64, 0
2, 10659, Control_c, 0, 64, 0
2, 10672, Note_on_c, 0, 73, 64
2, 10672, Note_on_c, 0, 71, 58
2, 10672, Note_on_c, 0, 65, 69
2, 10672, Note_on_c, 0, 61, 53
2, 10675, Note_on_c, 0, 81, 65
2, 10692, Control_c, 0, 64, 127
2, 10692, Control_c, 0, 64, 127
2, 10692, Control_c, 0, 64, 127
2, 10728, Note_off_c, 0, 61, 64
2, 10728, Note_off_c, 0, 65, 64
2, 10728, Note_off_c, 0, 71, 64
2, 10728, Note_off_c, 0, 73, 64
2, 10772, Note_off_c, 0, 81, 64
2, 10819, Note_on_c, 0, 78, 69
2, 10825, Note_on_c, 0, 42, 61
2, 10829, Control_c, 0, 64, 0
2, 10829, Control_c, 0, 64, 0
2, 10829, Control_c, 0, 64, 0
2, 10865, Control_c, 0, 64, 127
2, 10865, Control_c, 0, 64, 127
2, 10865, Control_c, 0, 64, 127
2, 10970, Note_on_c, 0, 73, 47
2, 10970, Note_on_c, 0, 69, 41
2, 10970, Note_on_c, 0, 66, 41
2, 10976, Note_on_c, 0, 54, 38
2, 10980, Note_on_c, 0, 61, 43
2, 11023, Note_off_c, 0, 78, 64
2, 11064, Note_off_c, 0, 42, 64
2, 11067, Note_off_c, 0, 66, 64
2, 11067, Note_off_c, 0, 69, 64
2, 11067, Note_off_c, 0, 73, 64
2, 11073, Note_off_c, 0, 54, 64
2, 11077, Note_off_c, 0, 61, 64
2, 11136, Note_on_c, 0, 56, 32
2, 11136, Note_on_c, 0, 50, 34
2, 11137, Note_on_c, 0, 66, 78
2, 11140, Note_on_c, 0, 60, 45
2, 11154, Control_c, 0, 64, 0
2, 11154, Control_c, 0, 64, 0
2, 11154, Control_c, 0, 64, 0
2, 11192, Note_off_c, 0, 50, 64
2, 11192, Note_off_c, 0, 56, 64
2, 11196, Note_off_c, 0, 60, 64
2, 11203, Control_c, 0, 64, 127
2, 11203, Control_c, 0, 64, 127
2, 11203, Control_c, 0, 64, 127
2, 11276, Control_c, 0, 64, 0
2, 11276, Control_c, 0, 64, 0
2, 11276, Control_c, 0, 64, 0
2, 11287, Note_on_c, 0, 61, 38
2, 11288, Note_on_c, 0, 56, 38
2, 11288, Note_on_c, 0, 49, 30
2, 11290, Note_on_c, 0, 65, 67
2, 11306, Note_off_c, 0, 66, 64
2, 11327, Control_c, 0, 64, 127
2, 11327, Control_c, 0, 64, 127
2, 11327, Control_c, 0, 64, 127
2, 11343, Note_off_c, 0, 61, 64
2, 11344, Note_off_c, 0, 49, 64
2, 11344, Note_off_c, 0, 56, 64
2, 11346, Note_on_c, 0, 66, 58
2, 11362, Note_off_c, 0, 65, 64
2, 11407, Control_c, 0, 64, 0
2, 11407, Control_c, 0, 64, 0
2, 11407, Control_c, 0, 64, 0
2, 11425, Note_on_c, 0, 68, 68
2, 11431, Note_off_c, 0, 66, 64
2, 11431, Note_on_c, 0, 49, 30
2, 11432, Note_on_c, 0, 54, 34
2, 11433, Note_on_c, 0, 62, 38
2, 11434, Note_on_c, 0, 59, 30
2, 11449, Control_c, 0, 64, 127
2, 11449, Control_c, 0, 64, 127
2, 11449, Control_c, 0, 64, 127
2, 11487, Note_off_c, 0, 49, 64
2, 11488, Note_off_c, 0, 54, 64
2, 11489, Note_off_c, 0, 62, 64
2, 11490, Note_off_c, 0, 59, 64
2, 11572, Control_c, 0, 64, 0
2, 11572, Control_c, 0, 64, 0
2, 11572, Control_c, 0, 64, 0
2, 11578, Note_on_c, 0, 61, 34
2, 11579, Note_on_c, 0, 69, 61
2, 11584, Note_on_c, 0, 59, 30
2, 11585, Note_on_c, 0, 53, 31
2, 11588, Note_off_c, 0, 68, 64
2, 11590, Note_on_c, 0, 49, 30
2, 11609, Control_c, 0, 64, 127
2, 11609, Control_c, 0, 64, 127
2, 11609, Control_c, 0, 64, 127
2, 11634, Note_off_c, 0, 61, 64
2, 11634, Note_on_c, 0, 68, 61
2, 11640, Note_off_c, 0, 59, 64
2, 11641, Note_off_c, 0, 53, 64
2, 11646, Note_off_c, 0, 49, 64
2, 11648, Note_off_c, 0, 69, 64
2, 11690, Control_c, 0, 64, 0
2, 11690, Control_c, 0, 64, 0
2, 11690, Control_c, 0, 64, 0
2, 11707, Note_on_c, 0, 66, 57
2, 11707, Note_on_c, 0, 61, 31
2, 11715, Note_off_c, 0, 68, 64
2, 11719, Note_on_c, 0, 42, 53
2, 11745, Control_c, 0, 64, 127
2, 11745, Control_c, 0, 64, 127
2, 11745, Control_c, 0, 64, 127
2, 11763, Note_off_c, 0, 61, 64
2, 11771, Note_on_c, 0, 68, 43
2, 11800, Note_off_c, 0, 66, 64
2, 11826, Control_c, 0, 64, 0
2, 11826, Control_c, 0, 64, 0
2, 11826, Control_c, 0, 64, 0
2, 11840, Note_on_c, 0, 57, 28
2, 11840, Note_on_c, 0, 54, 31
2, 11841, Note_on_c, 0, 69, 63
2, 11843, Note_on_c, 0, 61, 38
2, 11864, Control_c, 0, 64, 127
2, 11864, Control_c, 0, 64, 127
2, 11864, Control_c, 0, 64, 127
2, 11870, Note_off_c, 0, 68, 64
2, 11896, Note_off_c, 0, 54, 64
2, 11896, Note_off_c, 0, 57, 64
2, 11899, Note_off_c, 0, 61, 64
2, 11948, Note_off_c, 0, 42, 64
2, 11969, Control_c, 0, 64, 0
2, 11969, Control_c, 0, 64, 0
2, 11969, Control_c, 0, 64, 0
2, 11980, Note_on_c, 0, 53, 42
2, 11984, Note_on_c, 0, 71, 60
2, 11984, Note_on_c, 0, 63, 49
2, 11984, Note_on_c, 0, 57, 36
2, 12002, Note_off_c, 0, 69, 64
2, 12008, Control_c, 0, 64, 127
2, 12008, Control_c, 0, 64, 127
2, 12008, Control_c, 0, 64, 127
2, 12036, Note_off_c, 0, 53, 64
2, 12040, Note_off_c, 0, 57, 64
2, 12040, Note_off_c, 0, 63, 64
2, 12050, Note_on_c, 0, 69, 50
2, 12053, Note_off_c, 0, 71, 64
2, 12102, Control_c, 0, 64, 0
2, 12102, Control_c, 0, 64, 0
2, 12102, Control_c, 0, 64, 0
2, 12104, Note_on_c, 0, 64, 34
2, 12104, Note_on_c, 0, 59, 34
2, 12104, Note_on_c, 0, 52, 46
2, 12110, Note_on_c, 0, 68, 64
2, 12120, Note_off_c, 0, 69, 64
2, 12139, Control_c, 0, 64, 127
2, 12139, Control_c, 0, 64, 127
2, 12139, Control_c, 0, 64, 127
2, 12160, Note_off_c, 0, 52, 64
2, 12160, Note_off_c, 0, 59, 64
2, 12160, Note_off_c, 0, 64, 64
2, 12171, Note_on_c, 0, 69, 52
2, 12210, Note_off_c, 0, 68, 64
2, 12228, Control_c, 0, 64, 0
2, 12228, Control_c, 0, 64, 0
2, 12228, Control_c, 0, 64, 0
2, 12240, Note_on_c, 0, 65, 47
2, 12240, Note_on_c, 0, 62, 34
2, 12240, Note_on_c, 0, 57, 45
2, 12240, Note_on_c, 0, 52, 24
2, 12241, Note_on_c, 0, 71, 58
2, 12270, Note_off_c, 0, 69, 64
2, 12270, Control_c, 0, 64, 127
2, 12270, Control_c, 0, 64, 127
2, 12270, Control_c, 0, 64, 127
2, 12296, Note_off_c, 0, 52, 64
2, 12296, Note_off_c, 0, 57, 64
2, 12296, Note_off_c, 0, 62, 64
2, 12296, Note_off_c, 0, 65, 64
2, 12347, Control_c, 0, 64, 0
2, 12347, Control_c, 0, 64, 0
2, 12347, Control_c, 0, 64, 0
2, 12377, Note_on_c, 0, 64, 43
2, 12377, Note_on_c, 0, 62, 41
2, 12381, Note_on_c, 0, 73, 61
2, 12381, Note_on_c, 0, 56, 42
2, 12381, Note_on_c, 0, 52, 42
2, 12388, Note_off_c, 0, 71, 64
2, 12394, Control_c, 0, 64, 127
2, 12394, Control_c, 0, 64, 127
2, 12394, Control_c, 0, 64, 127
2, 12433, Note_off_c, 0, 62, 64
2, 12433, Note_off_c, 0, 64, 64
2, 12433, Note_on_c, 0, 71, 52
2, 12437, Note_off_c, 0, 52, 64
2, 12437, Note_off_c, 0, 56, 64
2, 12444, Note_off_c, 0, 73, 64
2, 12484, Control_c, 0, 64, 0
2, 12484, Control_c, 0, 64, 0
2, 12484, Control_c, 0, 64, 0
2, 12496, Note_on_c, 0, 45, 61
2, 12504, Note_on_c, 0, 69, 58
2, 12506, Note_on_c, 0, 64, 47
2, 12514, Note_off_c, 0, 71, 64
2, 12518, Control_c, 0, 64, 127
2, 12518, Control_c, 0, 64, 127
2, 12518, Control_c, 0, 64, 127
2, 12562, Note_off_c, 0, 64, 64
2, 12564, Note_on_c, 0, 71, 53
2, 12594, Note_off_c, 0, 69, 64
2, 12613, Control_c, 0, 64, 0
2, 12613, Control_c, 0, 64, 0
2, 12613, Control_c, 0, 64, 0
2, 12634, Note_on_c, 0, 57, 47
2, 12638, Note_on_c, 0, 69, 53
2, 12638, Note_on_c, 0, 64, 52
2, 12640, Note_on_c, 0, 73, 58
2, 12658, Control_c, 0, 64, 127
2, 12658, Control_c, 0, 64, 127
2, 12658, Control_c, 0, 64, 127
2, 12672, Note_off_c, 0, 71, 64
2, 12690, Note_off_c, 0, 57, 64
2, 12694, Note_off_c, 0, 64, 64
2, 12694, Note_off_c, 0, 69, 64
2, 12725, Note_off_c, 0, 45, 64
2, 12760, Note_on_c, 0, 67, 49
2, 12760, Note_on_c, 0, 57, 45
2, 12764, Note_on_c, 0, 75, 65
2, 12764, Note_on_c, 0, 64, 46
2, 12785, Note_off_c, 0, 73, 64
2, 12816, Note_off_c, 0, 57, 64
2, 12816, Note_off_c, 0, 67, 64
2, 12820, Note_off_c, 0, 64, 64
2, 12822, Note_on_c, 0, 73, 53
2, 12838, Note_off_c, 0, 75, 64
2, 12881, Control_c, 0, 64, 0
2, 12881, Control_c, 0, 64, 0
2, 12881, Control_c, 0, 64, 0
2, 12890, Note_on_c, 0, 56, 52
2, 12896, Note_on_c, 0, 68, 52
2, 12896, Note_on_c, 0, 63, 50
2, 12898, Note_on_c, 0, 72, 49
2, 12910, Note_off_c, 0, 73, 64
2, 12911, Control_c, 0, 64, 127
2, 12911, Control_c, 0, 64, 127
2, 12911, Control_c, 0, 64, 127
2, 12946, Note_off_c, 0, 56, 64
2, 12952, Note_off_c, 0, 63, 64
2, 12952, Note_off_c, 0, 68, 64
2, 12959, Note_on_c, 0, 73, 60
2, 12983, Note_off_c, 0, 72, 64
2, 13004, Control_c, 0, 64, 0
2, 13004, Control_c, 0, 64, 0
2, 13004, Control_c, 0, 64, 0
2, 13016, Note_on_c, 0, 66, 46
2, 13016, Note_on_c, 0, 56, 42
2, 13018, Note_on_c, 0, 69, 56
2, 13022, Note_on_c, 0, 61, 46
2, 13023, Note_on_c, 0, 75, 60
2, 13035, Control_c, 0, 64, 127
2, 13035, Control_c, 0, 64, 127
2, 13035, Control_c, 0, 64, 127
2, 13046, Note_off_c, 0, 73, 64
2, 13072, Note_off_c, 0, 56, 64
2, 13072, Note_off_c, 0, 66, 64
2, 13074, Note_off_c, 0, 69, 64
2, 13078, Note_off_c, 0, 61, 64
2, 13136, Note_on_c, 0, 66, 49
2, 13140, Note_on_c, 0, 68, 50
2, 13140, Note_on_c, 0, 60, 46
2, 13140, Note_on_c, 0, 56, 46
2, 13141, Note_on_c, 0, 77, 60
2, 13164, Note_off_c, 0, 75, 64
2, 13192, Note_off_c, 0, 66, 64
2, 13196, Note_off_c, 0, 56, 64
2, 13196, Note_off_c, 0, 60, 64
2, 13196, Note_off_c, 0, 68, 64
2, 13200, Note_on_c, 0, 75, 65
2, 13221, Note_off_c, 0, 77, 64
2, 13268, Note_on_c, 0, 73, 69
2, 13272, Note_on_c, 0, 71, 42
2, 13274, Note_on_c, 0, 49, 69
2, 13276, Note_off_c, 0, 75, 64
2, 13277, Control_c, 0, 64, 0
2, 13277, Control_c, 0, 64, 0
2, 13277, Control_c, 0, 64, 0
2, 13293, Control_c, 0, 64, 127
2, 13293, Control_c, 0, 64, 127
2, 13293, Control_c, 0, 64, 127
2, 13328, Note_off_c, 0, 71, 64
2, 13330, Note_on_c, 0, 75, 61
2, 13358, Note_off_c, 0, 73, 64
2, 13369, Control_c, 0, 64, 0
2, 13369, Control_c, 0, 64, 0
2, 13369, Control_c, 0, 64, 0
2, 13392, Note_on_c, 0, 73, 38
2, 13396, Note_on_c, 0, 71, 38
2, 13399, Note_on_c, 0, 77, 65
2, 13400, Note_on_c, 0, 68, 54
2, 13400, Note_on_c, 0, 61, 56
2, 13415, Control_c, 0, 64, 127
2, 13415, Control_c, 0, 64, 127
2, 13415, Control_c, 0, 64, 127
2, 13435, Note_off_c, 0, 75, 64
2, 13452, Note_off_c, 0, 71, 64
2, 13456, Note_off_c, 0, 61, 64
2, 13456, Note_off_c, 0, 68, 64
2, 13482, Note_off_c, 0, 73, 64
2, 13483, Note_off_c, 0, 77, 64
2, 13503, Note_off_c, 0, 49, 64
2, 13516, Note_on_c, 0, 78, 64
2, 13516, Note_on_c, 0, 73, 54
2, 13516, Note_on_c, 0, 69, 52
2, 13523, Note_on_c, 0, 61, 49
2, 13572, Note_off_c, 0, 69, 64
2, 13572, Note_off_c, 0, 73, 64
2, 13579, Note_off_c, 0, 61, 64
2, 13619, Note_off_c, 0, 78, 64
2, 13648, Note_on_c, 0, 77, 60
2, 13648, Note_on_c, 0, 71, 38
2, 13650, Note_on_c, 0, 68, 42
2, 13652, Note_on_c, 0, 73, 53
2, 13655, Note_on_c, 0, 61, 46
2, 13704, Note_off_c, 0, 71, 64
2, 13706, Note_off_c, 0, 68, 64
2, 13708, Note_off_c, 0, 73, 64
2, 13711, Note_off_c, 0, 61, 64
2, 13732, Note_on_c, 0, 71, 57
2, 13732, Note_on_c, 0, 66, 71
2, 13733, Note_off_c, 0, 77, 64
2, 13736, Note_on_c, 0, 86, 68
2, 13736, Note_on_c, 0, 74, 58
2, 13736, Note_on_c, 0, 61, 50
2, 13759, Note_off_c, 0, 71, 64
2, 13763, Note_off_c, 0, 61, 64
2, 13767, Note_off_c, 0, 66, 64
2, 13778, Note_on_c, 0, 71, 49
2, 13780, Note_on_c, 0, 85, 69
2, 13780, Note_on_c, 0, 73, 76
2, 13780, Note_on_c, 0, 65, 69
2, 13782, Note_on_c, 0, 61, 52
2, 13804, Note_off_c, 0, 74, 64
2, 13804, Note_off_c, 0, 86, 64
2, 13834, Note_off_c, 0, 71, 64
2, 13836, Note_off_c, 0, 65, 64
2, 13838, Note_off_c, 0, 61, 64
2, 13889, Note_off_c, 0, 73, 64
2, 13889, Note_off_c, 0, 85, 64
2, 13908, Control_c, 0, 64, 0
2, 13908, Control_c, 0, 64, 0
2, 13908, Control_c, 0, 64, 0
2, 13920, Note_on_c, 0, 71, 50
2, 13924, Note_on_c, 0, 73, 69
2, 13925, Note_on_c, 0, 65, 64
2, 13925, Note_on_c, 0, 61, 53
2, 13926, Note_on_c, 0, 80, 65
2, 13949, Control_c, 0, 64, 127
2, 13949, Control_c, 0, 64, 127
2, 13949, Control_c, 0, 64, 127
2, 13976, Note_off_c, 0, 71, 64
2, 13980, Note_off_c, 0, 73, 64
2, 13981, Note_off_c, 0, 61, 64
2, 13981, Note_off_c, 0, 65, 64
2, 14004, Note_on_c, 0, 81, 61
2, 14015, Note_off_c, 0, 80, 64
2, 14064, Control_c, 0, 64, 0
2, 14064, Control_c, 0, 64, 0
2, 14064, Control_c, 0, 64, 0
2, 14079, Note_on_c, 0, 78, 78
2, 14079, Note_on_c, 0, 42, 61
2, 14081, Note_off_c, 0, 81, 64
2, 14113, Control_c, 0, 64, 127
2, 14113, Control_c, 0, 64, 127
2, 14113, Control_c, 0, 64, 127
2, 14268, Note_on_c, 0, 54, 34
2, 14272, Note_on_c, 0, 69, 46
2, 14272, Note_on_c, 0, 66, 45
2, 14272, Note_on_c, 0, 61, 50
2, 14275, Note_on_c, 0, 73, 50
2, 14291, Control_c, 0, 64, 0
2, 14291, Control_c, 0, 64, 0
2, 14291, Control_c, 0, 64, 0
2, 14308, Note_off_c, 0, 42, 64
2, 14327, Control_c, 0, 64, 127
2, 14327, Control_c, 0, 64, 127
2, 14327, Control_c, 0, 64, 127
2, 14364, Note_off_c, 0, 78, 64
2, 14365, Note_off_c, 0, 54, 64
2, 14369, Note_off_c, 0, 61, 64
2, 14369, Note_off_c, 0, 66, 64
2, 14369, Note_off_c, 0, 69, 64
2, 14372, Note_off_c, 0, 73, 64
2, 14424, Note_on_c, 0, 78, 58
2, 14475, Note_off_c, 0, 78, 64
2, 14533, Note_on_c, 0, 78, 61
2, 14562, Note_on_c, 0, 80, 58
2, 14566, Note_off_c, 0, 78, 64
2, 14581, Control_c, 0, 64, 0
2, 14581, Control_c, 0, 64, 0
2, 14581, Control_c, 0, 64, 0
2, 14592, Note_on_c, 0, 47, 39
2, 14595, Note_on_c, 0, 78, 61
2, 14615, Note_off_c, 0, 80, 64
2, 14629, Control_c, 0, 64, 127
2, 14629, Control_c, 0, 64, 127
2, 14629, Control_c, 0, 64, 127
2, 14647, Note_off_c, 0, 78, 64
2, 14647, Note_on_c, 0, 77, 58
2, 14705, Control_c, 0, 64, 0
2, 14705, Control_c, 0, 64, 0
2, 14705, Control_c, 0, 64, 0
2, 14718, Note_on_c, 0, 78, 58
2, 14728, Note_on_c, 0, 59, 26
2, 14728, Note_on_c, 0, 54, 30
2, 14732, Note_off_c, 0, 77, 64
2, 14732, Note_on_c, 0, 62, 32
2, 14749, Control_c, 0, 64, 127
2, 14749, Control_c, 0, 64, 127
2, 14749, Control_c, 0, 64, 127
2, 14784, Note_off_c, 0, 54, 64
2, 14784, Note_off_c, 0, 59, 64
2, 14788, Note_off_c, 0, 62, 64
2, 14821, Note_off_c, 0, 47, 64
2, 14864, Note_on_c, 0, 74, 45
2, 14864, Note_on_c, 0, 62, 30
2, 14864, Note_on_c, 0, 59, 20
2, 14864, Note_on_c, 0, 54, 30
2, 14883, Note_off_c, 0, 78, 64
2, 14920, Note_off_c, 0, 54, 64
2, 14920, Note_off_c, 0, 59, 64
2, 14920, Note_off_c, 0, 62, 64
2, 14986, Note_on_c, 0, 73, 52
2, 14993, Note_on_c, 0, 42, 52
2, 14995, Control_c, 0, 64, 0
2, 14995, Control_c, 0, 64, 0
2, 14995, Control_c, 0, 64, 0
2, 15002, Note_off_c, 0, 74, 64
2, 15028, Control_c, 0, 64, 127
2, 15028, Control_c, 0, 64, 127
2, 15028, Control_c, 0, 64, 127
2, 15096, Control_c, 0, 64, 0
2, 15096, Control_c, 0, 64, 0
2, 15096, Control_c, 0, 64, 0
2, 15136, Note_on_c, 0, 69, 49
2, 15140, Note_off_c, 0, 73, 64
2, 15144, Note_on_c, 0, 57, 30
2, 15144, Note_on_c, 0, 54, 28
2, 15145, Control_c, 0, 64, 127
2, 15145, Control_c, 0, 64, 127
2, 15145, Control_c, 0, 64, 127
2, 15148, Note_on_c, 0, 61, 28
2, 15200, Note_off_c, 0, 54, 64
2, 15200, Note_off_c, 0, 57, 64
2, 15204, Note_off_c, 0, 61, 64
2, 15222, Note_off_c, 0, 42, 64
2, 15256, Note_on_c, 0, 61, 29
2, 15256, Note_on_c, 0, 57, 23
2, 15256, Note_on_c, 0, 54, 34
2, 15308, Note_on_c, 0, 78, 58
2, 15312, Note_off_c, 0, 54, 64
2, 15312, Note_off_c, 0, 57, 64
2, 15312, Note_off_c, 0, 61, 64
2, 15348, Note_on_c, 0, 80, 58
2, 15349, Note_off_c, 0, 78, 64
2, 15361, Note_off_c, 0, 69, 64
2, 15378, Note_on_c, 0, 78, 58
2, 15378, Note_on_c, 0, 50, 43
2, 15385, Control_c, 0, 64, 0
2, 15385, Control_c, 0, 64, 0
2, 15385, Control_c, 0, 64, 0
2, 15405, Note_off_c, 0, 80, 64
2, 15416, Control_c, 0, 64, 127
2, 15416, Control_c, 0, 64, 127
2, 15416, Control_c, 0, 64, 127
2, 15421, Note_on_c, 0, 77, 52
2, 15428, Note_off_c, 0, 78, 64
2, 15484, Control_c, 0, 64, 0
2, 15484, Control_c, 0, 64, 0
2, 15484, Control_c, 0, 64, 0
2, 15499, Note_on_c, 0, 78, 58
2, 15504, Note_on_c, 0, 57, 30
2, 15504, Note_on_c, 0, 54, 15
2, 15507, Note_on_c, 0, 62, 15
2, 15514, Note_off_c, 0, 77, 64
2, 15523, Control_c, 0, 64, 127
2, 15523, Control_c, 0, 64, 127
2, 15523, Control_c, 0, 64, 127
2, 15560, Note_off_c, 0, 54, 64
2, 15560, Note_off_c, 0, 57, 64
2, 15563, Note_off_c, 0, 62, 64
2, 15607, Note_off_c, 0, 50, 64
2, 15616, Note_on_c, 0, 57, 20
2, 15618, Note_on_c, 0, 62, 30
2, 15620, Note_on_c, 0, 54, 23
2, 15627, Note_on_c, 0, 74, 50
2, 15641, Note_off_c, 0, 78, 64
2, 15672, Note_off_c, 0, 57, 64
2, 15674, Note_off_c, 0, 62, 64
2, 15676, Note_off_c, 0, 54, 64
2, 15763, Control_c, 0, 64, 0
2, 15763, Control_c, 0, 64, 0
2, 15763, Control_c, 0, 64, 0
2, 15766, Note_on_c, 0, 73, 52
2, 15772, Note_on_c, 0, 45, 42
2, 15784, Note_off_c, 0, 74, 64
2, 15811, Control_c, 0, 64, 127
2, 15811, Control_c, 0, 64, 127
2, 15811, Control_c, 0, 64, 127
2, 15875, Control_c, 0, 64, 0
2, 15875, Control_c, 0, 64, 0
2, 15875, Control_c, 0, 64, 0
2, 15906, Note_on_c, 0, 69, 52
2, 15915, Control_c, 0, 64, 127
2, 15915, Control_c, 0, 64, 127
2, 15915, Control_c, 0, 64, 127
2, 15920, Note_on_c, 0, 61, 30
2, 15920, Note_on_c, 0, 57, 13
2, 15920, Note_on_c, 0, 52, 30
2, 15928, Note_off_c, 0, 73, 64
2, 15976, Note_off_c, 0, 52, 64
2, 15976, Note_off_c, 0, 57, 64
2, 15976, Note_off_c, 0, 61, 64
2, 16001, Note_off_c, 0, 45, 64
2, 16024, Note_on_c, 0, 52, 20
2, 16029, Note_on_c, 0, 61, 41
2, 16032, Note_on_c, 0, 57, 26
2, 16080, Note_off_c, 0, 52, 64
2, 16085, Note_off_c, 0, 61, 64
2, 16086, Note_on_c, 0, 78, 57
2, 16088, Note_off_c, 0, 57, 64
2, 16125, Note_off_c, 0, 78, 64
2, 16127, Note_on_c, 0, 80, 58
2, 16131, Note_off_c, 0, 69, 64
2, 16150, Control_c, 0, 64, 0
2, 16150, Control_c, 0, 64, 0
2, 16150, Control_c, 0, 64, 0
2, 16158, Note_on_c, 0, 78, 58
2, 16163, Note_on_c, 0, 47, 46
2, 16184, Note_off_c, 0, 80, 64
2, 16203, Control_c, 0, 64, 127
2, 16203, Control_c, 0, 64, 127
2, 16203, Control_c, 0, 64, 127
2, 16220, Note_on_c, 0, 77, 50
2, 16229, Note_off_c, 0, 78, 64
2, 16262, Control_c, 0, 64, 0
2, 16262, Control_c, 0, 64, 0
2, 16262, Control_c, 0, 64, 0
2, 16275, Note_on_c, 0, 54, 31
2, 16279, Note_on_c, 0, 62, 32
2, 16280, Note_on_c, 0, 59, 30
2, 16284, Note_on_c, 0, 78, 61
2, 16291, Control_c, 0, 64, 127
2, 16291, Control_c, 0, 64, 127
2, 16291, Control_c, 0, 64, 127
2, 16296, Note_off_c, 0, 77, 64
2, 16331, Note_off_c, 0, 54, 64
2, 16335, Note_off_c, 0, 62, 64
2, 16336, Note_off_c, 0, 59, 64
2, 16392, Note_off_c, 0, 47, 64
2, 16413, Note_on_c, 0, 59, 20
2, 16416, Note_on_c, 0, 54, 30
2, 16419, Note_on_c, 0, 74, 46
2, 16419, Note_on_c, 0, 62, 24
2, 16431, Note_off_c, 0, 78, 64
2, 16469, Note_off_c, 0, 59, 64
2, 16472, Note_off_c, 0, 54, 64
2, 16475, Note_off_c, 0, 62, 64
2, 16535, Control_c, 0, 64, 0
2, 16535, Control_c, 0, 64, 0
2, 16535, Control_c, 0, 64, 0
2, 16540, Note_on_c, 0, 73, 47
2, 16544, Note_on_c, 0, 52, 42
2, 16551, Note_off_c, 0, 74, 64
2, 16593, Control_c, 0, 64, 127
2, 16593, Control_c, 0, 64, 127
2, 16593, Control_c, 0, 64, 127
2, 16654, Control_c, 0, 64, 0
2, 16654, Control_c, 0, 64, 0
2, 16654, Control_c, 0, 64, 0
2, 16678, Control_c, 0, 64, 127
2, 16678, Control_c, 0, 64, 127
2, 16678, Control_c, 0, 64, 127
2, 16684, Note_on_c, 0, 61, 17
2, 16685, Note_on_c, 0, 69, 46
2, 16689, Note_off_c, 0, 73, 64
2, 16691, Note_on_c, 0, 64, 26
2, 16691, Note_on_c, 0, 57, 27
2, 16740, Note_off_c, 0, 61, 64
2, 16747, Note_off_c, 0, 57, 64
2, 16747, Note_off_c, 0, 64, 64
2, 16773, Note_off_c, 0, 52, 64
2, 16796, Note_on_c, 0, 57, 27
2, 16799, Note_on_c, 0, 64, 30
2, 16799, Note_on_c, 0, 61, 28
2, 16839, Note_on_c, 0, 68, 58
2, 16852, Note_off_c, 0, 57, 64
2, 16854, Note_off_c, 0, 69, 64
2, 16855, Note_off_c, 0, 61, 64
2, 16855, Note_off_c, 0, 64, 64
2, 16878, Note_on_c, 0, 78, 38
2, 16886, Note_off_c, 0, 68, 64
2, 16906, Note_on_c, 0, 80, 63
2, 16913, Note_off_c, 0, 78, 64
2, 16933, Note_on_c, 0, 40, 42
2, 16941, Control_c, 0, 64, 0
2, 16941, Control_c, 0, 64, 0
2, 16941, Control_c, 0, 64, 0
2, 16951, Note_on_c, 0, 78, 58
2, 16974, Note_off_c, 0, 80, 64
2, 16988, Control_c, 0, 64, 127
2, 16988, Control_c, 0, 64, 127
2, 16988, Control_c, 0, 64, 127
2, 17002, Note_on_c, 0, 77, 49
2, 17016, Note_off_c, 0, 78, 64
2, 17050, Control_c, 0, 64, 0
2, 17050, Control_c, 0, 64, 0
2, 17050, Control_c, 0, 64, 0
2, 17064, Note_on_c, 0, 78, 63
2, 17064, Note_on_c, 0, 52, 30
2, 17070, Note_on_c, 0, 56, 31
2, 17072, Note_on_c, 0, 62, 34
2, 17073, Note_off_c, 0, 77, 64
2, 17082, Control_c, 0, 64, 127
2, 17082, Control_c, 0, 64, 127
2, 17082, Control_c, 0, 64, 127
2, 17120, Note_off_c, 0, 52, 64
2, 17126, Note_off_c, 0, 56, 64
2, 17128, Note_off_c, 0, 62, 64
2, 17162, Note_off_c, 0, 40, 64
2, 17199, Note_on_c, 0, 56, 27
2, 17200, Note_on_c, 0, 52, 20
2, 17204, Note_on_c, 0, 62, 24
2, 17205, Note_on_c, 0, 74, 42
2, 17221, Note_off_c, 0, 78, 64
2, 17255, Note_off_c, 0, 56, 64
2, 17256, Note_off_c, 0, 52, 64
2, 17260, Note_off_c, 0, 62, 64
2, 17349, Control_c, 0, 64, 0
2, 17349, Control_c, 0, 64, 0
2, 17349, Control_c, 0, 64, 0
2, 17358, Note_on_c, 0, 45, 45
2, 17366, Note_on_c, 0, 73, 49
2, 17386, Note_off_c, 0, 74, 64
2, 17397, Control_c, 0, 64, 127
2, 17397, Control_c, 0, 64, 127
2, 17397, Control_c, 0, 64, 127
2, 17518, Note_on_c, 0, 69, 46
2, 17531, Note_off_c, 0, 73, 64
2, 17536, Note_on_c, 0, 52, 30
2, 17540, Note_on_c, 0, 61, 32
2, 17540, Note_on_c, 0, 57, 27
2, 17587, Note_off_c, 0, 45, 64
2, 17592, Note_off_c, 0, 52, 64
2, 17596, Note_off_c, 0, 57, 64
2, 17596, Note_off_c, 0, 61, 64
2, 17680, Note_on_c, 0, 61, 24
2, 17680, Note_on_c, 0, 57, 19
2, 17683, Note_on_c, 0, 52, 19
2, 17736, Note_off_c, 0, 57, 64
2, 17736, Note_off_c, 0, 61, 64
2, 17739, Note_off_c, 0, 52, 64
2, 17743, Note_off_c, 0, 69, 64
2, 17767, Note_on_c, 0, 78, 43
2, 17802, Note_on_c, 0, 80, 43
2, 17806, Note_off_c, 0, 78, 64
2, 17828, Control_c, 0, 64, 0
2, 17828, Control_c, 0, 64, 0
2, 17828, Control_c, 0, 64, 0
2, 17837, Note_on_c, 0, 78, 41
2, 17837, Note_on_c, 0, 47, 24
2, 17862, Note_off_c, 0, 80, 64
2, 17880, Control_c, 0, 64, 127
2, 17880, Control_c, 0, 64, 127
2, 17880, Control_c, 0, 64, 127
2, 17902, Note_on_c, 0, 77, 34
2, 17905, Note_off_c, 0, 78, 64
2, 17937, Control_c, 0, 64, 0
2, 17937, Control_c, 0, 64, 0
2, 17937, Control_c, 0, 64, 0
2, 17960, Control_c, 0, 64, 127
2, 17960, Control_c, 0, 64, 127
2, 17960, Control_c, 0, 64, 127
2, 17971, Note_on_c, 0, 78, 45
2, 17972, Note_on_c, 0, 62, 6
2, 17972, Note_on_c, 0, 59, 15
2, 17972, Note_on_c, 0, 54, 20
2, 17974, Note_off_c, 0, 77, 64
2, 18028, Note_off_c, 0, 54, 64
2, 18028, Note_off_c, 0, 59, 64
2, 18028, Note_off_c, 0, 62, 64
2, 18066, Note_off_c, 0, 47, 64
2, 18092, Note_on_c, 0, 59, 15
2, 18094, Note_on_c, 0, 74, 36
2, 18096, Note_on_c, 0, 54, 19
2, 18099, Note_on_c, 0, 62, 19
2, 18124, Note_off_c, 0, 78, 64
2, 18148, Note_off_c, 0, 59, 64
2, 18152, Note_off_c, 0, 54, 64
2, 18155, Note_off_c, 0, 62, 64
2, 18220, Control_c, 0, 64, 0
2, 18220, Control_c, 0, 64, 0
2, 18220, Control_c, 0, 64, 0
2, 18228, Note_on_c, 0, 42, 35
2, 18229, Note_on_c, 0, 73, 32
2, 18241, Note_off_c, 0, 74, 64
2, 18259, Control_c, 0, 64, 127
2, 18259, Control_c, 0, 64, 127
2, 18259, Control_c, 0, 64, 127
2, 18334, Control_c, 0, 64, 0
2, 18334, Control_c, 0, 64, 0
2, 18334, Control_c, 0, 64, 0
2, 18366, Control_c, 0, 64, 127
2, 18366, Control_c, 0, 64, 127
2, 18366, Control_c, 0, 64, 127
2, 18372, Note_on_c, 0, 69, 31
2, 18372, Note_on_c, 0, 57, 20
2, 18372, Note_on_c, 0, 54, 17
2, 18374, Note_on_c, 0, 61, 23
2, 18394, Note_off_c, 0, 73, 64
2, 18428, Note_off_c, 0, 54, 64
2, 18428, Note_off_c, 0, 57, 64
2, 18430, Note_off_c, 0, 61, 64
2, 18457, Note_off_c, 0, 42, 64
2, 18492, Note_on_c, 0, 54, 10
2, 18496, Note_on_c, 0, 57, 23
2, 18498, Note_on_c, 0, 61, 19
2, 18548, Note_off_c, 0, 54, 64
2, 18552, Note_off_c, 0, 57, 64
2, 18554, Note_off_c, 0, 61, 64
2, 18575, Note_on_c, 0, 78, 42
2, 18597, Note_off_c, 0, 69, 64
2, 18608, Note_on_c, 0, 80, 42
2, 18615, Note_off_c, 0, 78, 64
2, 18634, Note_on_c, 0, 50, 21
2, 18634, Control_c, 0, 64, 0
2, 18634, Control_c, 0, 64, 0
2, 18634, Control_c, 0, 64, 0
2, 18642, Note_on_c, 0, 78, 41
2, 18667, Note_off_c, 0, 80, 64
2, 18674, Control_c, 0, 64, 127
2, 18674, Control_c, 0, 64, 127
2, 18674, Control_c, 0, 64, 127
2, 18698, Note_on_c, 0, 77, 38
2, 18703, Note_off_c, 0, 78, 64
2, 18733, Control_c, 0, 64, 0
2, 18733, Control_c, 0, 64, 0
2, 18733, Control_c, 0, 64, 0
2, 18760, Note_on_c, 0, 57, 13
2, 18764, Note_on_c, 0, 62, 19
2, 18764, Note_on_c, 0, 54, 20
2, 18765, Note_on_c, 0, 78, 41
2, 18778, Note_off_c, 0, 77, 64
2, 18782, Control_c, 0, 64, 127
2, 18782, Control_c, 0, 64, 127
2, 18782, Control_c, 0, 64, 127
2, 18816, Note_off_c, 0, 57, 64
2, 18820, Note_off_c, 0, 54, 64
2, 18820, Note_off_c, 0, 62, 64
2, 18863, Note_off_c, 0, 50, 64
2, 18896, Note_on_c, 0, 62, 19
2, 18896, Note_on_c, 0, 57, 19
2, 18901, Note_on_c, 0, 74, 30
2, 18903, Note_on_c, 0, 54, 17
2, 18945, Note_off_c, 0, 78, 64
2, 18952, Note_off_c, 0, 57, 64
2, 18952, Note_off_c, 0, 62, 64
2, 18959, Note_off_c, 0, 54, 64
2, 19030, Control_c, 0, 64, 0
2, 19030, Control_c, 0, 64, 0
2, 19030, Control_c, 0, 64, 0
2, 19035, Note_on_c, 0, 73, 36
2, 19038, Note_on_c, 0, 45, 31
2, 19047, Note_off_c, 0, 74, 64
2, 19077, Control_c, 0, 64, 127
2, 19077, Control_c, 0, 64, 127
2, 19077, Control_c, 0, 64, 127
2, 19143, Control_c, 0, 64, 0
2, 19143, Control_c, 0, 64, 0
2, 19143, Control_c, 0, 64, 0
2, 19158, Control_c, 0, 64, 127
2, 19158, Control_c, 0, 64, 127
2, 19158, Control_c, 0, 64, 127
2, 19168, Note_on_c, 0, 69, 34
2, 19168, Note_on_c, 0, 61, 19
2, 19172, Note_on_c, 0, 57, 16
2, 19172, Note_on_c, 0, 52, 15
2, 19187, Note_off_c, 0, 73, 64
2, 19224, Note_off_c, 0, 61, 64
2, 19228, Note_off_c, 0, 52, 64
2, 19228, Note_off_c, 0, 57, 64
2, 19267, Note_off_c, 0, 45, 64
2, 19296, Note_on_c, 0, 57, 16
2, 19300, Note_on_c, 0, 52, 17
2, 19302, Note_on_c, 0, 61, 15
2, 19352, Note_off_c, 0, 57, 64
2, 19356, Note_off_c, 0, 52, 64
2, 19358, Note_off_c, 0, 61, 64
2, 19368, Note_on_c, 0, 78, 36
2, 19393, Note_off_c, 0, 69, 64
2, 19405, Note_off_c, 0, 78, 64
2, 19407, Note_on_c, 0, 80, 38
2, 19422, Control_c, 0, 64, 0
2, 19422, Control_c, 0, 64, 0
2, 19422, Control_c, 0, 64, 0
2, 19428, Note_on_c, 0, 47, 26
2, 19433, Note_on_c, 0, 78, 38
2, 19460, Note_off_c, 0, 80, 64
2, 19471, Control_c, 0, 64, 127
2, 19471, Control_c, 0, 64, 127
2, 19471, Control_c, 0, 64, 127
2, 19489, Note_on_c, 0, 77, 36
2, 19499, Note_off_c, 0, 78, 64
2, 19545, Note_on_c, 0, 62, 20
2, 19554, Note_on_c, 0, 59, 15
2, 19554, Note_on_c, 0, 54, 21
2, 19559, Note_on_c, 0, 78, 41
2, 19570, Note_off_c, 0, 77, 64
2, 19601, Note_off_c, 0, 62, 64
2, 19610, Note_off_c, 0, 54, 64
2, 19610, Note_off_c, 0, 59, 64
2, 19657, Note_off_c, 0, 47, 64
2, 19686, Note_on_c, 0, 74, 31
2, 19695, Note_on_c, 0, 54, 10
2, 19696, Note_on_c, 0, 59, 15
2, 19704, Note_on_c, 0, 62, 15
2, 19709, Note_off_c, 0, 78, 64
2, 19751, Note_off_c, 0, 54, 64
2, 19752, Note_off_c, 0, 59, 64
2, 19760, Note_off_c, 0, 62, 64
2, 19819, Note_on_c, 0, 73, 31
2, 19823, Control_c, 0, 64, 0
2, 19823, Control_c, 0, 64, 0
2, 19823, Control_c, 0, 64, 0
2, 19824, Note_off_c, 0, 74, 64
2, 19829, Note_on_c, 0, 52, 26
2, 19879, Control_c, 0, 64, 127
2, 19879, Control_c, 0, 64, 127
2, 19879, Control_c, 0, 64, 127
2, 19968, Note_on_c, 0, 64, 16
2, 19968, Note_on_c, 0, 57, 16
2, 19973, Note_on_c, 0, 69, 28
2, 19975, Note_on_c, 0, 61, 13
2, 19983, Note_off_c, 0, 73, 64
2, 20024, Note_off_c, 0, 57, 64
2, 20024, Note_off_c, 0, 64, 64
2, 20031, Note_off_c, 0, 61, 64
2, 20058, Note_off_c, 0, 52, 64
2, 20108, Note_on_c, 0, 64, 17
2, 20108, Note_on_c, 0, 61, 15
2, 20110, Note_on_c, 0, 57, 13
2, 20153, Note_on_c, 0, 68, 38
2, 20164, Note_off_c, 0, 61, 64
2, 20164, Note_off_c, 0, 64, 64
2, 20166, Note_off_c, 0, 57, 64
2, 20166, Note_off_c, 0, 69, 64
2, 20201, Note_on_c, 0, 78, 23
2, 20216, Note_off_c, 0, 68, 64
2, 20225, Note_on_c, 0, 80, 39
2, 20238, Note_off_c, 0, 78, 64
2, 20248, Note_on_c, 0, 40, 19
2, 20254, Control_c, 0, 64, 0
2, 20254, Control_c, 0, 64, 0
2, 20254, Control_c, 0, 64, 0
2, 20269, Note_on_c, 0, 78, 38
2, 20287, Note_off_c, 0, 80, 64
2, 20301, Control_c, 0, 64, 127
2, 20301, Control_c, 0, 64, 127
2, 20301, Control_c, 0, 64, 127
2, 20336, Note_off_c, 0, 78, 64
2, 20338, Note_on_c, 0, 77, 31
2, 20388, Note_on_c, 0, 52, 16
2, 20389, Note_on_c, 0, 62, 16
2, 20392, Note_on_c, 0, 56, 6
2, 20397, Note_on_c, 0, 78, 39
2, 20412, Note_off_c, 0, 77, 64
2, 20444, Note_off_c, 0, 52, 64
2, 20445, Note_off_c, 0, 62, 64
2, 20448, Note_off_c, 0, 56, 64
2, 20477, Note_off_c, 0, 40, 64
2, 20540, Note_on_c, 0, 56, 9
2, 20540, Note_on_c, 0, 52, 8
2, 20544, Note_on_c, 0, 62, 16
2, 20549, Note_on_c, 0, 74, 30
2, 20557, Note_off_c, 0, 78, 64
2, 20596, Note_off_c, 0, 52, 64
2, 20596, Note_off_c, 0, 56, 64
2, 20600, Note_off_c, 0, 62, 64
2, 20705, Control_c, 0, 64, 0
2, 20705, Control_c, 0, 64, 0
2, 20705, Control_c, 0, 64, 0
2, 20714, Note_on_c, 0, 73, 32
2, 20714, Note_on_c, 0, 45, 24
2, 20723, Control_c, 0, 64, 0
2, 20723, Control_c, 0, 64, 0
2, 20723, Control_c, 0, 64, 0
2, 20736, Note_off_c, 0, 74, 64
2, 20751, Control_c, 0, 64, 127
2, 20751, Control_c, 0, 64, 127
2, 20751, Control_c, 0, 64, 127
2, 20922, Note_on_c, 0, 69, 30
2, 20928, Note_on_c, 0, 57, 15
2, 20930, Note_on_c, 0, 61, 17
2, 20943, Note_off_c, 0, 45, 64
2, 20956, Note_off_c, 0, 73, 64
2, 20984, Note_off_c, 0, 57, 64
2, 20986, Note_off_c, 0, 61, 64
2, 21128, Note_on_c, 0, 66, 54
2, 21128, Note_on_c, 0, 59, 26
2, 21128, Note_on_c, 0, 56, 23
2, 21128, Note_on_c, 0, 47, 12
2, 21133, Note_on_c, 0, 62, 26
2, 21147, Note_off_c, 0, 69, 64
2, 21149, Control_c, 0, 64, 0
2, 21149, Control_c, 0, 64, 0
2, 21149, Control_c, 0, 64, 0
2, 21184, Note_off_c, 0, 47, 64
2, 21184, Note_off_c, 0, 56, 64
2, 21184, Note_off_c, 0, 59, 64
2, 21189, Note_off_c, 0, 62, 64
2, 21192, Control_c, 0, 64, 127
2, 21192, Control_c, 0, 64, 127
2, 21192, Control_c, 0, 64, 127
2, 21303, Control_c, 0, 64, 0
2, 21303, Control_c, 0, 64, 0
2, 21303, Control_c, 0, 64, 0
2, 21311, Note_on_c, 0, 65, 64
2, 21312, Note_on_c, 0, 59, 30
2, 21312, Note_on_c, 0, 49, 32
2, 21314, Note_on_c, 0, 62, 34
2, 21317, Note_off_c, 0, 66, 64
2, 21321, Note_on_c, 0, 56, 35
2, 21344, Control_c, 0, 64, 127
2, 21344, Control_c, 0, 64, 127
2, 21344, Control_c, 0, 64, 127
2, 21368, Note_off_c, 0, 49, 64
2, 21368, Note_off_c, 0, 59, 64
2, 21370, Note_off_c, 0, 62, 64
2, 21373, Note_on_c, 0, 66, 58
2, 21377, Note_off_c, 0, 56, 64
2, 21389, Note_off_c, 0, 65, 64
2, 21436, Control_c, 0, 64, 0
2, 21436, Control_c, 0, 64, 0
2, 21436, Control_c, 0, 64, 0
2, 21450, Note_on_c, 0, 49, 32
2, 21452, Note_on_c, 0, 62, 32
2, 21452, Note_on_c, 0, 59, 24
2, 21452, Note_on_c, 0, 54, 35
2, 21457, Note_on_c, 0, 68, 56
2, 21462, Note_off_c, 0, 66, 64
2, 21469, Control_c, 0, 64, 127
2, 21469, Control_c, 0, 64, 127
2, 21469, Control_c, 0, 64, 127
2, 21506, Note_off_c, 0, 49, 64
2, 21508, Note_off_c, 0, 54, 64
2, 21508, Note_off_c, 0, 59, 64
2, 21508, Note_off_c, 0, 62, 64
2, 21580, Control_c, 0, 64, 0
2, 21580, Control_c, 0, 64, 0
2, 21580, Control_c, 0, 64, 0
2, 21592, Note_on_c, 0, 53, 19
2, 21592, Note_on_c, 0, 49, 31
2, 21594, Note_on_c, 0, 69, 58
2, 21596, Note_on_c, 0, 59, 31
2, 21599, Note_on_c, 0, 61, 31
2, 21613, Control_c, 0, 64, 127
2, 21613, Control_c, 0, 64, 127
2, 21613, Control_c, 0, 64, 127
2, 21618, Note_off_c, 0, 68, 64
2, 21648, Note_off_c, 0, 49, 64
2, 21648, Note_off_c, 0, 53, 64
2, 21652, Note_off_c, 0, 59, 64
2, 21652, Note_on_c, 0, 68, 46
2, 21655, Note_off_c, 0, 61, 64
2, 21660, Note_off_c, 0, 69, 64
2, 21715, Control_c, 0, 64, 0
2, 21715, Control_c, 0, 64, 0
2, 21715, Control_c, 0, 64, 0
2, 21720, Note_on_c, 0, 61, 38
2, 21721, Note_off_c, 0, 68, 64
2, 21722, Note_on_c, 0, 66, 60
2, 21730, Note_on_c, 0, 42, 38
2, 21743, Control_c, 0, 64, 127
2, 21743, Control_c, 0, 64, 127
2, 21743, Control_c, 0, 64, 127
2, 21776, Note_off_c, 0, 61, 64
2, 21786, Note_on_c, 0, 68, 40
2, 21812, Note_off_c, 0, 66, 64
2, 21833, Control_c, 0, 64, 0
2, 21833, Control_c, 0, 64, 0
2, 21833, Control_c, 0, 64, 0
2, 21848, Note_on_c, 0, 69, 58
2, 21848, Note_on_c, 0, 54, 39
2, 21856, Note_on_c, 0, 57, 39
2, 21857, Note_on_c, 0, 61, 42
2, 21864, Note_off_c, 0, 68, 64
2, 21874, Control_c, 0, 64, 127
2, 21874, Control_c, 0, 64, 127
2, 21874, Control_c, 0, 64, 127
2, 21904, Note_off_c, 0, 54, 64
2, 21912, Note_off_c, 0, 57, 64
2, 21913, Note_off_c, 0, 61, 64
2, 21921, Control_c, 0, 64, 0
2, 21921, Control_c, 0, 64, 0
2, 21921, Control_c, 0, 64, 0
2, 21959, Note_off_c, 0, 42, 64
2, 21964, Control_c, 0, 64, 0
2, 21964, Control_c, 0, 64, 0
2, 21964, Control_c, 0, 64, 0
2, 21976, Note_on_c, 0, 63, 46
2, 21976, Note_on_c, 0, 57, 36
2, 21978, Note_on_c, 0, 53, 35
2, 21979, Note_on_c, 0, 71, 58
2, 21992, Note_off_c, 0, 69, 64
2, 21999, Control_c, 0, 64, 127
2, 21999, Control_c, 0, 64, 127
2, 21999, Control_c, 0, 64, 127
2, 22032, Note_off_c, 0, 57, 64
2, 22032, Note_off_c, 0, 63, 64
2, 22034, Note_off_c, 0, 53, 64
2, 22046, Note_on_c, 0, 69, 52
2, 22056, Note_off_c, 0, 71, 64
2, 22092, Control_c, 0, 64, 0
2, 22092, Control_c, 0, 64, 0
2, 22092, Control_c, 0, 64, 0
2, 22104, Note_on_c, 0, 68, 64
2, 22104, Note_on_c, 0, 64, 52
2, 22104, Note_on_c, 0, 59, 49
2, 22107, Note_on_c, 0, 52, 47
2, 22115, Note_off_c, 0, 69, 64
2, 22123, Control_c, 0, 64, 127
2, 22123, Control_c, 0, 64, 127
2, 22123, Control_c, 0, 64, 127
2, 22153, Note_on_c, 0, 69, 50
2, 22160, Note_off_c, 0, 59, 64
2, 22160, Note_off_c, 0, 64, 64
2, 22163, Note_off_c, 0, 52, 64
2, 22188, Note_off_c, 0, 68, 64
2, 22210, Control_c, 0, 64, 0
2, 22210, Control_c, 0, 64, 0
2, 22210, Control_c, 0, 64, 0
2, 22221, Note_on_c, 0, 57, 50
2, 22222, Note_on_c, 0, 71, 65
2, 22224, Note_on_c, 0, 65, 52
2, 22224, Note_on_c, 0, 62, 45
2, 22224, Note_on_c, 0, 52, 34
2, 22244, Control_c, 0, 64, 127
2, 22244, Control_c, 0, 64, 127
2, 22244, Control_c, 0, 64, 127
2, 22252, Note_off_c, 0, 69, 64
2, 22277, Note_off_c, 0, 57, 64
2, 22280, Note_off_c, 0, 52, 64
2, 22280, Note_off_c, 0, 62, 64
2, 22280, Note_off_c, 0, 65, 64
2, 22326, Control_c, 0, 64, 0
2, 22326, Control_c, 0, 64, 0
2, 22326, Control_c, 0, 64, 0
2, 22347, Note_on_c, 0, 73, 69
2, 22352, Note_on_c, 0, 64, 50
2, 22352, Note_on_c, 0, 62, 39
2, 22355, Note_off_c, 0, 71, 64
2, 22358, Note_on_c, 0, 56, 36
2, 22358, Note_on_c, 0, 52, 42
2, 22369, Control_c, 0, 64, 127
2, 22369, Control_c, 0, 64, 127
2, 22369, Control_c, 0, 64, 127
2, 22402, Note_on_c, 0, 71, 58
2, 22408, Note_off_c, 0, 62, 64
2, 22408, Note_off_c, 0, 64, 64
2, 22411, Note_off_c, 0, 73, 64
2, 22414, Note_off_c, 0, 52, 64
2, 22414, Note_off_c, 0, 56, 64
2, 22462, Control_c, 0, 64, 0
2, 22462, Control_c, 0, 64, 0
2, 22462, Control_c, 0, 64, 0
2, 22468, Note_on_c, 0, 45, 69
2, 22474, Note_on_c, 0, 69, 64
2, 22481, Note_off_c, 0, 71, 64
2, 22483, Note_on_c, 0, 64, 53
2, 22493, Control_c, 0, 64, 127
2, 22493, Control_c, 0, 64, 127
2, 22493, Control_c, 0, 64, 127
2, 22530, Note_on_c, 0, 71, 53
2, 22539, Note_off_c, 0, 64, 64
2, 22552, Note_off_c, 0, 69, 64
2, 22566, Control_c, 0, 64, 0
2, 22566, Control_c, 0, 64, 0
2, 22566, Control_c, 0, 64, 0
2, 22600, Note_on_c, 0, 57, 46
2, 22604, Note_on_c, 0, 69, 58
2, 22605, Note_on_c, 0, 73, 64
2, 22607, Note_on_c, 0, 64, 31
2, 22617, Control_c, 0, 64, 127
2, 22617, Control_c, 0, 64, 127
2, 22617, Control_c, 0, 64, 127
2, 22634, Note_off_c, 0, 71, 64
2, 22656, Note_off_c, 0, 57, 64
2, 22660, Note_off_c, 0, 69, 64
2, 22663, Note_off_c, 0, 64, 64
2, 22697, Note_off_c, 0, 45, 64
2, 22706, Control_c, 0, 64, 0
2, 22706, Control_c, 0, 64, 0
2, 22706, Control_c, 0, 64, 0
2, 22719, Control_c, 0, 64, 127
2, 22719, Control_c, 0, 64, 127
2, 22719, Control_c, 0, 64, 127
2, 22726, Note_on_c, 0, 57, 46
2, 22728, Note_on_c, 0, 61, 49
2, 22729, Note_on_c, 0, 75, 69
2, 22729, Note_on_c, 0, 67, 52
2, 22750, Note_off_c, 0, 73, 64
2, 22782, Note_off_c, 0, 57, 64
2, 22784, Note_off_c, 0, 61, 64
2, 22784, Note_on_c, 0, 73, 64
2, 22785, Note_off_c, 0, 67, 64
2, 22797, Note_off_c, 0, 75, 64
2, 22834, Control_c, 0, 64, 0
2, 22834, Control_c, 0, 64, 0
2, 22834, Control_c, 0, 64, 0
2, 22848, Note_on_c, 0, 56, 58
2, 22853, Note_on_c, 0, 72, 61
2, 22856, Note_off_c, 0, 73, 64
2, 22856, Note_on_c, 0, 63, 47
2, 22858, Note_on_c, 0, 68, 53
2, 22877, Control_c, 0, 64, 127
2, 22877, Control_c, 0, 64, 127
2, 22877, Control_c, 0, 64, 127
2, 22904, Note_off_c, 0, 56, 64
2, 22912, Note_off_c, 0, 63, 64
2, 22913, Note_on_c, 0, 73, 68
2, 22914, Note_off_c, 0, 68, 64
2, 22931, Note_off_c, 0, 72, 64
2, 22947, Control_c, 0, 64, 0
2, 22947, Control_c, 0, 64, 0
2, 22947, Control_c, 0, 64, 0
2, 22968, Note_on_c, 0, 56, 23
2, 22970, Note_on_c, 0, 61, 52
2, 22972, Note_on_c, 0, 69, 61
2, 22972, Note_on_c, 0, 66, 46
2, 22975, Note_on_c, 0, 75, 69
2, 22991, Note_off_c, 0, 73, 64
2, 22991, Control_c, 0, 64, 127
2, 22991, Control_c, 0, 64, 127
2, 22991, Control_c, 0, 64, 127
2, 23024, Note_off_c, 0, 56, 64
2, 23026, Note_off_c, 0, 61, 64
2, 23028, Note_off_c, 0, 66, 64
2, 23028, Note_off_c, 0, 69, 64
2, 23092, Note_on_c, 0, 60, 58
2, 23092, Note_on_c, 0, 56, 56
2, 23096, Note_on_c, 0, 68, 61
2, 23098, Note_on_c, 0, 77, 64
2, 23098, Note_on_c, 0, 66, 54
2, 23110, Note_off_c, 0, 75, 64
2, 23148, Note_off_c, 0, 56, 64
2, 23148, Note_off_c, 0, 60, 64
2, 23152, Note_off_c, 0, 68, 64
2, 23153, Note_on_c, 0, 75, 54
2, 23154, Note_off_c, 0, 66, 64
2, 23165, Note_off_c, 0, 77, 64
2, 23218, Note_on_c, 0, 49, 76
2, 23218, Control_c, 0, 64, 0
2, 23218, Control_c, 0, 64, 0
2, 23218, Control_c, 0, 64, 0
2, 23226, Note_off_c, 0, 75, 64
2, 23226, Note_on_c, 0, 73, 73
2, 23231, Note_on_c, 0, 71, 60
2, 23240, Control_c, 0, 64, 127
2, 23240, Control_c, 0, 64, 127
2, 23240, Control_c, 0, 64, 127
2, 23277, Note_on_c, 0, 75, 71
2, 23287, Note_off_c, 0, 71, 64
2, 23308, Control_c, 0, 64, 0
2, 23308, Control_c, 0, 64, 0
2, 23308, Control_c, 0, 64, 0
2, 23316, Note_off_c, 0, 73, 64
2, 23328, Note_on_c, 0, 61, 58
2, 23332, Note_on_c, 0, 71, 50
2, 23332, Note_on_c, 0, 68, 60
2, 23336, Note_on_c, 0, 73, 50
2, 23338, Note_on_c, 0, 77, 69
2, 23361, Control_c, 0, 64, 127
2, 23361, Control_c, 0, 64, 127
2, 23361, Control_c, 0, 64, 127
2, 23377, Note_off_c, 0, 75, 64
2, 23384, Note_off_c, 0, 61, 64
2, 23388, Note_off_c, 0, 68, 64
2, 23388, Note_off_c, 0, 71, 64
2, 23392, Note_off_c, 0, 73, 64
2, 23429, Note_off_c, 0, 77, 64
2, 23447, Note_off_c, 0, 49, 64
2, 23450, Control_c, 0, 64, 0
2, 23450, Control_c, 0, 64, 0
2, 23450, Control_c, 0, 64, 0
2, 23460, Note_on_c, 0, 78, 75
2, 23464, Note_on_c, 0, 73, 57
2, 23464, Note_on_c, 0, 69, 60
2, 23464, Note_on_c, 0, 61, 56
2, 23468, Control_c, 0, 64, 127
2, 23468, Control_c, 0, 64, 127
2, 23468, Control_c, 0, 64, 127
2, 23520, Note_off_c, 0, 61, 64
2, 23520, Note_off_c, 0, 69, 64
2, 23520, Note_off_c, 0, 73, 64
2, 23572, Note_off_c, 0, 78, 64
2, 23592, Note_on_c, 0, 71, 54
2, 23595, Note_on_c, 0, 73, 53
2, 23596, Note_on_c, 0, 68, 71
2, 23596, Note_on_c, 0, 61, 54
2, 23598, Note_on_c, 0, 77, 63
2, 23648, Note_off_c, 0, 71, 64
2, 23648, Note_on_c, 0, 78, 61
2, 23651, Note_off_c, 0, 73, 64
2, 23652, Note_off_c, 0, 61, 64
2, 23653, Note_off_c, 0, 77, 64
2, 23661, Note_on_c, 0, 66, 75
2, 23669, Note_off_c, 0, 68, 64
2, 23704, Note_on_c, 0, 71, 50
2, 23704, Note_on_c, 0, 65, 72
2, 23704, Note_on_c, 0, 61, 56
2, 23708, Note_on_c, 0, 80, 75
2, 23708, Note_on_c, 0, 73, 58
2, 23719, Note_off_c, 0, 78, 64
2, 23725, Note_off_c, 0, 66, 64
2, 23760, Note_off_c, 0, 61, 64
2, 23760, Note_off_c, 0, 65, 64
2, 23760, Note_off_c, 0, 71, 64
2, 23764, Note_off_c, 0, 73, 64
2, 23801, Note_off_c, 0, 80, 64
2, 23848, Control_c, 0, 64, 0
2, 23848, Control_c, 0, 64, 0
2, 23848, Control_c, 0, 64, 0
2, 23855, Note_on_c, 0, 61, 58
2, 23856, Note_on_c, 0, 81, 72
2, 23856, Note_on_c, 0, 73, 46
2, 23856, Note_on_c, 0, 71, 52
2, 23856, Note_on_c, 0, 65, 73
2, 23871, Control_c, 0, 64, 127
2, 23871, Control_c, 0, 64, 127
2, 23871, Control_c, 0, 64, 127
2, 23911, Note_off_c, 0, 61, 64
2, 23912, Note_off_c, 0, 65, 64
2, 23912, Note_off_c, 0, 71, 64
2, 23912, Note_off_c, 0, 73, 64
2, 23915, Control_c, 0, 64, 0
2, 23915, Control_c, 0, 64, 0
2, 23915, Control_c, 0, 64, 0
2, 23959, Note_off_c, 0, 81, 64
2, 23963, Control_c, 0, 64, 0
2, 23963, Control_c, 0, 64, 0
2, 23963, Control_c, 0, 64, 0
2, 23982, Note_on_c, 0, 78, 68
2, 23982, Note_on_c, 0, 42, 71
2, 23986, Control_c, 0, 64, 0
2, 23986, Control_c, 0, 64, 0
2, 23986, Control_c, 0, 64, 0
2, 24036, Control_c, 0, 64, 127
2, 24036, Control_c, 0, 64, 127
2, 24036, Control_c, 0, 64, 127
2, 24124, Note_on_c, 0, 69, 53
2, 24124, Note_on_c, 0, 61, 50
2, 24130, Note_on_c, 0, 73, 54
2, 24130, Note_on_c, 0, 66, 17
2, 24132, Note_on_c, 0, 54, 1
2, 24195, Note_off_c, 0, 78, 64
2, 24221, Note_off_c, 0, 61, 64
2, 24221, Note_off_c, 0, 69, 64
2, 24227, Note_off_c, 0, 66, 64
2, 24227, Note_off_c, 0, 73, 64
2, 24229, Note_off_c, 0, 54, 64
2, 24284, Note_off_c, 0, 42, 64
2, 24298, Note_on_c, 0, 66, 60
2, 24299, Control_c, 0, 64, 0
2, 24299, Control_c, 0, 64, 0
2, 24299, Control_c, 0, 64, 0
2, 24300, Note_on_c, 0, 56, 46
2, 24300, Note_on_c, 0, 50, 36
2, 24303, Note_on_c, 0, 60, 43
2, 24353, Control_c, 0, 64, 127
2, 24353, Control_c, 0, 64, 127
2, 24353, Control_c, 0, 64, 127
2, 24356, Note_off_c, 0, 50, 64
2, 24356, Note_off_c, 0, 56, 64
2, 24359, Note_off_c, 0, 60, 64
2, 24438, Control_c, 0, 64, 0
2, 24438, Control_c, 0, 64, 0
2, 24438, Control_c, 0, 64, 0
2, 24445, Note_on_c, 0, 49, 41
2, 24448, Note_on_c, 0, 56, 43
2, 24451, Note_on_c, 0, 61, 38
2, 24452, Note_on_c, 0, 65, 60
2, 24465, Note_off_c, 0, 66, 64
2, 24489, Control_c, 0, 64, 127
2, 24489, Control_c, 0, 64, 127
2, 24489, Control_c, 0, 64, 127
2, 24501, Note_off_c, 0, 49, 64
2, 24504, Note_off_c, 0, 56, 64
2, 24507, Note_off_c, 0, 61, 64
2, 24518, Note_on_c, 0, 66, 56
2, 24520, Note_off_c, 0, 65, 64
2, 24558, Control_c, 0, 64, 0
2, 24558, Control_c, 0, 64, 0
2, 24558, Control_c, 0, 64, 0
2, 24583, Note_on_c, 0, 62, 39
2, 24584, Note_on_c, 0, 54, 38
2, 24584, Note_on_c, 0, 49, 42
2, 24587, Note_on_c, 0, 68, 61
2, 24587, Note_on_c, 0, 59, 31
2, 24592, Note_off_c, 0, 66, 64
2, 24604, Control_c, 0, 64, 127
2, 24604, Control_c, 0, 64, 127
2, 24604, Control_c, 0, 64, 127
2, 24639, Note_off_c, 0, 62, 64
2, 24640, Note_off_c, 0, 49, 64
2, 24640, Note_off_c, 0, 54, 64
2, 24643, Note_off_c, 0, 59, 64
2, 24703, Control_c, 0, 64, 0
2, 24703, Control_c, 0, 64, 0
2, 24703, Control_c, 0, 64, 0
2, 24720, Note_on_c, 0, 49, 24
2, 24721, Note_on_c, 0, 59, 23
2, 24722, Note_on_c, 0, 61, 31
2, 24722, Note_on_c, 0, 53, 31
2, 24725, Note_on_c, 0, 69, 61
2, 24738, Control_c, 0, 64, 127
2, 24738, Control_c, 0, 64, 127
2, 24738, Control_c, 0, 64, 127
2, 24746, Note_off_c, 0, 68, 64
2, 24776, Note_off_c, 0, 49, 64
2, 24777, Note_off_c, 0, 59, 64
2, 24778, Note_off_c, 0, 53, 64
2, 24778, Note_off_c, 0, 61, 64
2, 24780, Note_on_c, 0, 68, 50
2, 24787, Note_off_c, 0, 69, 64
2, 24843, Control_c, 0, 64, 0
2, 24843, Control_c, 0, 64, 0
2, 24843, Control_c, 0, 64, 0
2, 24848, Note_on_c, 0, 61, 47
2, 24849, Note_on_c, 0, 66, 54
2, 24849, Note_on_c, 0, 42, 61
2, 24851, Note_off_c, 0, 68, 64
2, 24880, Control_c, 0, 64, 127
2, 24880, Control_c, 0, 64, 127
2, 24880, Control_c, 0, 64, 127
2, 24904, Note_off_c, 0, 61, 64
2, 24905, Note_on_c, 0, 68, 46
2, 24919, Note_off_c, 0, 66, 64
2, 24961, Control_c, 0, 64, 0
2, 24961, Control_c, 0, 64, 0
2, 24961, Control_c, 0, 64, 0
2, 24972, Note_on_c, 0, 69, 61
2, 24972, Note_on_c, 0, 57, 30
2, 24972, Note_on_c, 0, 54, 27
2, 24974, Note_on_c, 0, 61, 49
2, 24993, Control_c, 0, 64, 127
2, 24993, Control_c, 0, 64, 127
2, 24993, Control_c, 0, 64, 127
2, 24996, Note_off_c, 0, 68, 64
2, 25028, Note_off_c, 0, 54, 64
2, 25028, Note_off_c, 0, 57, 64
2, 25030, Note_off_c, 0, 61, 64
2, 25078, Note_off_c, 0, 42, 64
2, 25080, Control_c, 0, 64, 0
2, 25080, Control_c, 0, 64, 0
2, 25080, Control_c, 0, 64, 0
2, 25092, Note_on_c, 0, 71, 50
2, 25092, Note_on_c, 0, 53, 42
2, 25096, Note_on_c, 0, 57, 38
2, 25098, Note_on_c, 0, 63, 50
2, 25113, Note_off_c, 0, 69, 64
2, 25115, Control_c, 0, 64, 127
2, 25115, Control_c, 0, 64, 127
2, 25115, Control_c, 0, 64, 127
2, 25148, Note_off_c, 0, 53, 64
2, 25152, Note_off_c, 0, 57, 64
2, 25154, Note_off_c, 0, 63, 64
2, 25155, Note_on_c, 0, 69, 50
2, 25161, Note_off_c, 0, 71, 64
2, 25205, Control_c, 0, 64, 0
2, 25205, Control_c, 0, 64, 0
2, 25205, Control_c, 0, 64, 0
2, 25214, Note_on_c, 0, 68, 61
2, 25216, Note_on_c, 0, 64, 38
2, 25216, Note_on_c, 0, 59, 46
2, 25216, Note_on_c, 0, 52, 46
2, 25224, Control_c, 0, 64, 127
2, 25224, Control_c, 0, 64, 127
2, 25224, Control_c, 0, 64, 127
2, 25232, Note_off_c, 0, 69, 64
2, 25268, Note_on_c, 0, 69, 41
2, 25272, Note_off_c, 0, 52, 64
2, 25272, Note_off_c, 0, 59, 64
2, 25272, Note_off_c, 0, 64, 64
2, 25297, Note_off_c, 0, 68, 64
2, 25318, Control_c, 0, 64, 0
2, 25318, Control_c, 0, 64, 0
2, 25318, Control_c, 0, 64, 0
2, 25332, Note_on_c, 0, 57, 41
2, 25332, Note_on_c, 0, 52, 38
2, 25336, Note_on_c, 0, 65, 49
2, 25336, Note_on_c, 0, 62, 42
2, 25338, Note_on_c, 0, 71, 58
2, 25361, Control_c, 0, 64, 127
2, 25361, Control_c, 0, 64, 127
2, 25361, Control_c, 0, 64, 127
2, 25376, Note_off_c, 0, 69, 64
2, 25388, Note_off_c, 0, 52, 64
2, 25388, Note_off_c, 0, 57, 64
2, 25392, Note_off_c, 0, 62, 64
2, 25392, Note_off_c, 0, 65, 64
2, 25432, Control_c, 0, 64, 0
2, 25432, Control_c, 0, 64, 0
2, 25432, Control_c, 0, 64, 0
2, 25459, Note_on_c, 0, 73, 61
2, 25460, Note_on_c, 0, 56, 34
2, 25465, Note_on_c, 0, 62, 45
2, 25465, Note_on_c, 0, 52, 36
2, 25466, Note_on_c, 0, 64, 47
2, 25476, Control_c, 0, 64, 127
2, 25476, Control_c, 0, 64, 127
2, 25476, Control_c, 0, 64, 127
2, 25481, Note_off_c, 0, 71, 64
2, 25510, Note_on_c, 0, 71, 46
2, 25516, Note_off_c, 0, 56, 64
2, 25521, Note_off_c, 0, 52, 64
2, 25521, Note_off_c, 0, 62, 64
2, 25522, Note_off_c, 0, 64, 64
2, 25523, Note_off_c, 0, 73, 64
2, 25576, Note_on_c, 0, 69, 58
2, 25580, Note_on_c, 0, 45, 61
2, 25583, Note_on_c, 0, 64, 39
2, 25585, Note_off_c, 0, 71, 64
2, 25629, Note_on_c, 0, 71, 56
2, 25639, Note_off_c, 0, 64, 64
2, 25661, Note_off_c, 0, 69, 64
2, 25674, Control_c, 0, 64, 0
2, 25674, Control_c, 0, 64, 0
2, 25674, Control_c, 0, 64, 0
2, 25691, Note_on_c, 0, 57, 46
2, 25696, Note_on_c, 0, 69, 53
2, 25698, Note_on_c, 0, 64, 50
2, 25700, Note_on_c, 0, 73, 61
2, 25713, Control_c, 0, 64, 127
2, 25713, Control_c, 0, 64, 127
2, 25713, Control_c, 0, 64, 127
2, 25721, Note_off_c, 0, 71, 64
2, 25747, Note_off_c, 0, 57, 64
2, 25752, Note_off_c, 0, 69, 64
2, 25754, Note_off_c, 0, 64, 64
2, 25809, Note_off_c, 0, 45, 64
2, 25816, Note_on_c, 0, 67, 45
2, 25816, Note_on_c, 0, 61, 50
2, 25816, Note_on_c, 0, 57, 38
2, 25821, Note_on_c, 0, 75, 64
2, 25837, Note_off_c, 0, 73, 64
2, 25872, Note_off_c, 0, 57, 64
2, 25872, Note_off_c, 0, 61, 64
2, 25872, Note_off_c, 0, 67, 64
2, 25872, Note_on_c, 0, 73, 53
2, 25880, Note_off_c, 0, 75, 64
2, 25927, Control_c, 0, 64, 0
2, 25927, Control_c, 0, 64, 0
2, 25927, Control_c, 0, 64, 0
2, 25933, Note_on_c, 0, 56, 53
2, 25936, Note_on_c, 0, 63, 52
2, 25939, Note_on_c, 0, 72, 58
2, 25940, Note_on_c, 0, 68, 52
2, 25953, Note_off_c, 0, 73, 64
2, 25956, Control_c, 0, 64, 127
2, 25956, Control_c, 0, 64, 127
2, 25956, Control_c, 0, 64, 127
2, 25989, Note_off_c, 0, 56, 64
2, 25992, Note_off_c, 0, 63, 64
2, 25996, Note_off_c, 0, 68, 64
2, 25996, Note_on_c, 0, 73, 58
2, 26011, Note_off_c, 0, 72, 64
2, 26026, Control_c, 0, 64, 0
2, 26026, Control_c, 0, 64, 0
2, 26026, Control_c, 0, 64, 0
2, 26048, Note_on_c, 0, 68, 52
2, 26048, Note_on_c, 0, 61, 46
2, 26049, Note_on_c, 0, 56, 46
2, 26054, Note_on_c, 0, 66, 52
2, 26055, Note_on_c, 0, 75, 61
2, 26070, Control_c, 0, 64, 127
2, 26070, Control_c, 0, 64, 127
2, 26070, Control_c, 0, 64, 127
2, 26073, Note_off_c, 0, 73, 64
2, 26104, Note_off_c, 0, 61, 64
2, 26104, Note_off_c, 0, 68, 64
2, 26105, Note_off_c, 0, 56, 64
2, 26110, Note_off_c, 0, 66, 64
2, 26172, Note_on_c, 0, 66, 52
2, 26173, Note_on_c, 0, 77, 61
2, 26181, Note_on_c, 0, 60, 50
2, 26181, Note_on_c, 0, 56, 50
2, 26184, Note_on_c, 0, 68, 57
2, 26190, Note_off_c, 0, 75, 64
2, 26228, Note_off_c, 0, 66, 64
2, 26232, Note_on_c, 0, 75, 69
2, 26237, Note_off_c, 0, 56, 64
2, 26237, Note_off_c, 0, 60, 64
2, 26240, Note_off_c, 0, 68, 64
2, 26242, Note_off_c, 0, 77, 64
2, 26288, Note_on_c, 0, 71, 26
2, 26293, Note_on_c, 0, 49, 67
2, 26295, Note_on_c, 0, 73, 75
2, 26296, Note_on_c, 0, 61, 50
2, 26302, Note_off_c, 0, 75, 64
2, 26344, Note_off_c, 0, 71, 64
2, 26346, Note_on_c, 0, 75, 64
2, 26352, Note_off_c, 0, 61, 64
2, 26369, Note_off_c, 0, 73, 64
2, 26400, Control_c, 0, 64, 0
2, 26400, Control_c, 0, 64, 0
2, 26400, Control_c, 0, 64, 0
2, 26404, Note_on_c, 0, 77, 69
2, 26407, Note_on_c, 0, 71, 46
2, 26408, Note_on_c, 0, 73, 53
2, 26408, Note_on_c, 0, 68, 61
2, 26408, Note_on_c, 0, 61, 69
2, 26432, Note_off_c, 0, 75, 64
2, 26432, Control_c, 0, 64, 127
2, 26432, Control_c, 0, 64, 127
2, 26432, Control_c, 0, 64, 127
2, 26463, Note_off_c, 0, 71, 64
2, 26464, Note_off_c, 0, 61, 64
2, 26464, Note_off_c, 0, 68, 64
2, 26464, Note_off_c, 0, 73, 64
2, 26512, Note_off_c, 0, 77, 64
2, 26522, Note_off_c, 0, 49, 64
2, 26532, Note_on_c, 0, 69, 58
2, 26536, Note_on_c, 0, 78, 73
2, 26536, Note_on_c, 0, 73, 61
2, 26536, Note_on_c, 0, 61, 64
2, 26588, Note_off_c, 0, 69, 64
2, 26592, Note_off_c, 0, 61, 64
2, 26592, Note_off_c, 0, 73, 64
2, 26636, Note_off_c, 0, 78, 64
2, 26664, Note_on_c, 0, 77, 61
2, 26664, Note_on_c, 0, 73, 53
2, 26664, Note_on_c, 0, 71, 43
2, 26664, Note_on_c, 0, 61, 61
2, 26667, Note_on_c, 0, 68, 58
2, 26720, Note_off_c, 0, 61, 64
2, 26720, Note_off_c, 0, 71, 64
2, 26720, Note_off_c, 0, 73, 64
2, 26723, Note_off_c, 0, 68, 64
2, 26748, Note_on_c, 0, 86, 69
2, 26748, Note_on_c, 0, 74, 61
2, 26748, Note_on_c, 0, 71, 46
2, 26748, Note_on_c, 0, 61, 50
2, 26750, Note_on_c, 0, 66, 50
2, 26767, Note_off_c, 0, 77, 64
2, 26774, Note_off_c, 0, 61, 64
2, 26774, Note_off_c, 0, 71, 64
2, 26776, Note_off_c, 0, 66, 64
2, 26783, Control_c, 0, 64, 0
2, 26783, Control_c, 0, 64, 0
2, 26783, Control_c, 0, 64, 0
2, 26796, Note_on_c, 0, 85, 69
2, 26800, Note_on_c, 0, 73, 54
2, 26800, Note_on_c, 0, 71, 56
2, 26803, Note_on_c, 0, 65, 60
2, 26804, Note_on_c, 0, 61, 56
2, 26805, Note_off_c, 0, 74, 64
2, 26805, Note_off_c, 0, 86, 64
2, 26831, Control_c, 0, 64, 127
2, 26831, Control_c, 0, 64, 127
2, 26831, Control_c, 0, 64, 127
2, 26856, Note_off_c, 0, 71, 64
2, 26859, Note_off_c, 0, 65, 64
2, 26860, Note_off_c, 0, 61, 64
2, 26921, Note_off_c, 0, 85, 64
2, 26925, Note_off_c, 0, 73, 64
2, 26929, Control_c, 0, 64, 0
2, 26929, Control_c, 0, 64, 0
2, 26929, Control_c, 0, 64, 0
2, 26937, Note_on_c, 0, 80, 78
2, 26940, Note_on_c, 0, 65, 71
2, 26944, Note_on_c, 0, 73, 61
2, 26945, Note_on_c, 0, 71, 72
2, 26945, Note_on_c, 0, 61, 71
2, 26967, Control_c, 0, 64, 127
2, 26967, Control_c, 0, 64, 127
2, 26967, Control_c, 0, 64, 127
2, 26996, Note_off_c, 0, 65, 64
2, 27000, Note_off_c, 0, 73, 64
2, 27001, Note_off_c, 0, 61, 64
2, 27001, Note_off_c, 0, 71, 64
2, 27013, Note_on_c, 0, 81, 61
2, 27020, Note_off_c, 0, 80, 64
2, 27079, Control_c, 0, 64, 0
2, 27079, Control_c, 0, 64, 0
2, 27079, Control_c, 0, 64, 0
2, 27088, Note_on_c, 0, 69, 76
2, 27088, Note_on_c, 0, 66, 78
2, 27088, Note_on_c, 0, 61, 32
2, 27093, Note_on_c, 0, 78, 78
2, 27093, Note_on_c, 0, 54, 64
2, 27096, Note_off_c, 0, 81, 64
2, 27118, Control_c, 0, 64, 127
2, 27118, Control_c, 0, 64, 127
2, 27118, Control_c, 0, 64, 127
2, 27144, Note_off_c, 0, 61, 64
2, 27144, Note_off_c, 0, 66, 64
2, 27144, Note_off_c, 0, 69, 64
2, 27149, Note_off_c, 0, 54, 64
2, 27202, Note_off_c, 0, 78, 64
2, 27310, Note_on_c, 0, 90, 69
2, 27312, Note_on_c, 0, 78, 69
2, 27317, Note_on_c, 0, 54, 73
2, 27317, Note_on_c, 0, 42, 69
2, 27345, Control_c, 0, 64, 0
2, 27345, Control_c, 0, 64, 0
2, 27345, Control_c, 0, 64, 0
2, 27408, Control_c, 0, 64, 127
2, 27408, Control_c, 0, 64, 127
2, 27408, Control_c, 0, 64, 127
2, 27490, Note_off_c, 0, 90, 64
2, 27496, Note_off_c, 0, 78, 64
2, 27505, Note_off_c, 0, 42, 64
2, 27505, Note_off_c, 0, 54, 64
2, 27638, Control_c, 0, 64, 0
2, 27638, Control_c, 0, 64, 0
2, 27638, Control_c, 0, 64, 0
2, 27667, Control_c, 0, 64, 0
2, 27667, Control_c, 0, 64, 0
2, 27667, Control_c, 0, 64, 0
