2, 0, Program_c, 0, 0
2, 0, Control_c, 0, 7, 127
2, 11, Control_c, 0, 64, 0
2, 11, Control_c, 0, 64, 0
2, 49, Note_on_c, 0, 38, 58
2, 52, Note_on_c, 0, 62, 58
2, 58, Control_c, 0, 64, 127
2, 58, Control_c, 0, 64, 127
2, 120, Note_off_c, 0, 38, 64
2, 123, Note_off_c, 0, 62, 64
2, 257, Note_on_c, 0, 50, 49
2, 260, Note_on_c, 0, 60, 58
2, 261, Note_on_c, 0, 66, 54
2, 261, Note_on_c, 0, 57, 52
2, 341, Note_on_c, 0, 64, 51
2, 344, Note_on_c, 0, 55, 50
2, 345, Note_off_c, 0, 66, 64
2, 358, Note_off_c, 0, 57, 64
2, 424, Note_on_c, 0, 54, 48
2, 428, Note_on_c, 0, 62, 63
2, 450, Note_off_c, 0, 50, 64
2, 456, Note_off_c, 0, 64, 64
2, 459, Note_off_c, 0, 55, 64
2, 508, Note_on_c, 0, 57, 62
2, 510, Note_on_c, 0, 66, 63
2, 537, Note_off_c, 0, 54, 64
2, 541, Note_off_c, 0, 62, 64
2, 588, Note_on_c, 0, 69, 62
2, 594, Note_on_c, 0, 50, 62
2, 597, Note_off_c, 0, 57, 64
2, 599, Note_off_c, 0, 66, 64
2, 611, Control_c, 0, 64, 0
2, 611, Control_c, 0, 64, 0
2, 624, Control_c, 0, 64, 127
2, 624, Control_c, 0, 64, 127
2, 650, Note_off_c, 0, 69, 64
2, 710, Note_on_c, 0, 71, 54
2, 733, Note_off_c, 0, 60, 64
2, 756, Note_on_c, 0, 62, 64
2, 756, Note_on_c, 0, 60, 58
2, 759, Note_on_c, 0, 66, 59
2, 762, Note_off_c, 0, 71, 64
2, 763, Note_on_c, 0, 72, 62
2, 798, Control_c, 0, 64, 0
2, 798, Control_c, 0, 64, 0
2, 863, Control_c, 0, 64, 127
2, 863, Control_c, 0, 64, 127
2, 1073, Note_off_c, 0, 60, 64
2, 1073, Note_off_c, 0, 62, 64
2, 1076, Note_off_c, 0, 66, 64
2, 1080, Note_off_c, 0, 72, 64
2, 1108, Note_on_c, 0, 67, 54
2, 1109, Note_on_c, 0, 71, 58
2, 1109, Note_on_c, 0, 62, 54
2, 1109, Note_on_c, 0, 43, 63
2, 1182, Note_off_c, 0, 67, 64
2, 1183, Note_off_c, 0, 62, 64
2, 1183, Note_off_c, 0, 71, 64
2, 1196, Note_off_c, 0, 50, 64
2, 1208, Note_on_c, 0, 50, 58
2, 1210, Note_on_c, 0, 69, 51
2, 1212, Note_on_c, 0, 60, 59
2, 1259, Note_on_c, 0, 67, 75
2, 1260, Note_on_c, 0, 59, 58
2, 1260, Note_on_c, 0, 55, 63
2, 1270, Note_off_c, 0, 69, 64
2, 1272, Note_off_c, 0, 60, 64
2, 1276, Note_off_c, 0, 50, 64
2, 1292, Control_c, 0, 64, 0
2, 1292, Control_c, 0, 64, 0
2, 1305, Control_c, 0, 64, 127
2, 1305, Control_c, 0, 64, 127
2, 1414, Note_off_c, 0, 43, 64
2, 1428, Note_off_c, 0, 67, 64
2, 1429, Note_off_c, 0, 59, 64
2, 1431, Note_on_c, 0, 62, 51
2, 1432, Note_on_c, 0, 71, 62
2, 1432, Note_on_c, 0, 59, 58
2, 1447, Note_on_c, 0, 43, 64
2, 1592, Note_on_c, 0, 49, 48
2, 1600, Note_off_c, 0, 62, 64
2, 1601, Note_off_c, 0, 59, 64
2, 1622, Note_on_c, 0, 67, 63
2, 1622, Note_on_c, 0, 64, 59
2, 1626, Note_on_c, 0, 76, 65
2, 1628, Note_off_c, 0, 55, 64
2, 1630, Note_on_c, 0, 58, 70
2, 1635, Note_off_c, 0, 71, 64
2, 1645, Control_c, 0, 64, 0
2, 1645, Control_c, 0, 64, 0
2, 1678, Control_c, 0, 64, 127
2, 1678, Control_c, 0, 64, 127
2, 1757, Note_off_c, 0, 43, 64
2, 1804, Note_off_c, 0, 67, 64
2, 1832, Note_on_c, 0, 43, 56
2, 1836, Note_on_c, 0, 74, 64
2, 1836, Note_on_c, 0, 67, 71
2, 1836, Note_on_c, 0, 62, 64
2, 1836, Note_on_c, 0, 59, 54
2, 1840, Note_on_c, 0, 50, 50
2, 1849, Control_c, 0, 64, 0
2, 1849, Control_c, 0, 64, 0
2, 1856, Note_off_c, 0, 58, 64
2, 1856, Note_off_c, 0, 49, 64
2, 1866, Note_off_c, 0, 64, 64
2, 1870, Note_off_c, 0, 76, 64
2, 1894, Control_c, 0, 64, 127
2, 1894, Control_c, 0, 64, 127
2, 2196, Note_off_c, 0, 43, 64
2, 2200, Note_off_c, 0, 59, 64
2, 2200, Note_off_c, 0, 62, 64
2, 2200, Note_off_c, 0, 67, 64
2, 2200, Note_off_c, 0, 74, 64
2, 2204, Note_off_c, 0, 50, 64
2, 2258, Note_on_c, 0, 38, 59
2, 2258, Control_c, 0, 64, 0
2, 2258, Control_c, 0, 64, 0
2, 2266, Note_on_c, 0, 62, 63
2, 2302, Control_c, 0, 64, 127
2, 2302, Control_c, 0, 64, 127
2, 2319, Note_off_c, 0, 38, 64
2, 2336, Note_off_c, 0, 62, 64
2, 2456, Note_on_c, 0, 60, 62
2, 2456, Note_on_c, 0, 57, 62
2, 2457, Note_on_c, 0, 66, 56
2, 2457, Control_c, 0, 64, 0
2, 2457, Control_c, 0, 64, 0
2, 2460, Note_on_c, 0, 50, 58
2, 2485, Control_c, 0, 64, 127
2, 2485, Control_c, 0, 64, 127
2, 2524, Note_on_c, 0, 55, 52
2, 2525, Note_on_c, 0, 64, 54
2, 2543, Note_off_c, 0, 57, 64
2, 2544, Note_off_c, 0, 66, 64
2, 2612, Note_on_c, 0, 54, 47
2, 2614, Note_on_c, 0, 62, 63
2, 2629, Note_off_c, 0, 55, 64
2, 2630, Note_off_c, 0, 64, 64
2, 2651, Note_off_c, 0, 50, 64
2, 2672, Note_on_c, 0, 57, 64
2, 2679, Note_on_c, 0, 66, 62
2, 2723, Note_off_c, 0, 54, 64
2, 2725, Note_off_c, 0, 62, 64
2, 2760, Note_on_c, 0, 69, 59
2, 2760, Note_on_c, 0, 50, 72
2, 2769, Note_off_c, 0, 57, 64
2, 2772, Control_c, 0, 64, 0
2, 2772, Control_c, 0, 64, 0
2, 2776, Note_off_c, 0, 66, 64
2, 2797, Control_c, 0, 64, 127
2, 2797, Control_c, 0, 64, 127
2, 2820, Note_off_c, 0, 60, 64
2, 2857, Note_off_c, 0, 69, 64
2, 2925, Note_on_c, 0, 71, 55
2, 2968, Note_on_c, 0, 66, 62
2, 2968, Note_on_c, 0, 62, 58
2, 2968, Note_on_c, 0, 60, 57
2, 2971, Note_on_c, 0, 72, 57
2, 2973, Note_off_c, 0, 71, 64
2, 3004, Control_c, 0, 64, 0
2, 3004, Control_c, 0, 64, 0
2, 3065, Control_c, 0, 64, 127
2, 3065, Control_c, 0, 64, 127
2, 3285, Note_off_c, 0, 60, 64
2, 3285, Note_off_c, 0, 62, 64
2, 3285, Note_off_c, 0, 66, 64
2, 3288, Note_off_c, 0, 72, 64
2, 3310, Note_on_c, 0, 62, 52
2, 3312, Note_on_c, 0, 67, 54
2, 3315, Note_on_c, 0, 71, 58
2, 3316, Note_on_c, 0, 43, 63
2, 3331, Control_c, 0, 64, 0
2, 3331, Control_c, 0, 64, 0
2, 3345, Control_c, 0, 64, 127
2, 3345, Control_c, 0, 64, 127
2, 3381, Note_off_c, 0, 50, 64
2, 3385, Note_off_c, 0, 62, 64
2, 3386, Note_off_c, 0, 67, 64
2, 3390, Note_off_c, 0, 71, 64
2, 3414, Note_on_c, 0, 50, 51
2, 3419, Note_on_c, 0, 69, 44
2, 3423, Note_on_c, 0, 60, 58
2, 3460, Note_on_c, 0, 55, 59
2, 3464, Note_on_c, 0, 59, 71
2, 3468, Note_on_c, 0, 67, 75
2, 3471, Note_off_c, 0, 69, 64
2, 3475, Note_off_c, 0, 60, 64
2, 3478, Note_off_c, 0, 43, 64
2, 3480, Note_off_c, 0, 50, 64
2, 3491, Control_c, 0, 64, 0
2, 3491, Control_c, 0, 64, 0
2, 3512, Control_c, 0, 64, 127
2, 3512, Control_c, 0, 64, 127
2, 3636, Note_on_c, 0, 60, 58
2, 3642, Note_on_c, 0, 64, 56
2, 3649, Note_on_c, 0, 48, 54
2, 3658, Note_off_c, 0, 59, 64
2, 3662, Note_off_c, 0, 67, 64
2, 3662, Control_c, 0, 64, 0
2, 3662, Control_c, 0, 64, 0
2, 3695, Control_c, 0, 64, 127
2, 3695, Control_c, 0, 64, 127
2, 3816, Note_on_c, 0, 62, 56
2, 3820, Note_off_c, 0, 60, 64
2, 3820, Note_on_c, 0, 67, 58
2, 3820, Note_on_c, 0, 59, 56
2, 3825, Note_on_c, 0, 43, 62
2, 3832, Note_off_c, 0, 48, 64
2, 3832, Note_off_c, 0, 64, 64
2, 3840, Control_c, 0, 64, 0
2, 3840, Control_c, 0, 64, 0
2, 3874, Control_c, 0, 64, 127
2, 3874, Control_c, 0, 64, 127
2, 4002, Note_off_c, 0, 55, 64
2, 4004, Note_on_c, 0, 60, 54
2, 4006, Note_on_c, 0, 64, 52
2, 4006, Note_on_c, 0, 48, 48
2, 4008, Note_on_c, 0, 55, 54
2, 4029, Control_c, 0, 64, 0
2, 4029, Control_c, 0, 64, 0
2, 4040, Note_off_c, 0, 62, 64
2, 4044, Note_off_c, 0, 59, 64
2, 4044, Note_off_c, 0, 67, 64
2, 4049, Note_off_c, 0, 43, 64
2, 4096, Control_c, 0, 64, 127
2, 4096, Control_c, 0, 64, 127
2, 4208, Note_on_c, 0, 45, 51
2, 4246, Note_off_c, 0, 48, 64
2, 4288, Control_c, 0, 64, 0
2, 4288, Control_c, 0, 64, 0
2, 4380, Note_off_c, 0, 60, 64
2, 4384, Note_off_c, 0, 55, 64
2, 4385, Note_off_c, 0, 64, 64
2, 4390, Note_on_c, 0, 62, 58
2, 4390, Note_on_c, 0, 60, 58
2, 4392, Note_on_c, 0, 54, 62
2, 4392, Note_on_c, 0, 38, 59
2, 4399, Control_c, 0, 64, 0
2, 4399, Control_c, 0, 64, 0
2, 4414, Control_c, 0, 64, 127
2, 4414, Control_c, 0, 64, 127
2, 4425, Note_off_c, 0, 45, 64
2, 4448, Note_off_c, 0, 60, 64
2, 4448, Note_off_c, 0, 62, 64
2, 4450, Note_off_c, 0, 38, 64
2, 4450, Note_off_c, 0, 54, 64
2, 4564, Note_on_c, 0, 50, 50
2, 4568, Note_on_c, 0, 66, 54
2, 4568, Note_on_c, 0, 60, 52
2, 4571, Note_on_c, 0, 57, 55
2, 4594, Control_c, 0, 64, 0
2, 4594, Control_c, 0, 64, 0
2, 4607, Control_c, 0, 64, 127
2, 4607, Control_c, 0, 64, 127
2, 4654, Note_on_c, 0, 64, 49
2, 4654, Note_on_c, 0, 55, 49
2, 4659, Note_off_c, 0, 60, 64
2, 4668, Note_off_c, 0, 57, 64
2, 4670, Note_off_c, 0, 66, 64
2, 4723, Note_on_c, 0, 54, 47
2, 4724, Note_on_c, 0, 62, 63
2, 4747, Note_off_c, 0, 55, 64
2, 4747, Note_off_c, 0, 64, 64
2, 4804, Note_on_c, 0, 66, 71
2, 4808, Note_on_c, 0, 57, 63
2, 4830, Note_off_c, 0, 50, 64
2, 4832, Note_off_c, 0, 62, 64
2, 4844, Note_off_c, 0, 54, 64
2, 4884, Note_on_c, 0, 69, 58
2, 4890, Note_off_c, 0, 57, 64
2, 4890, Note_on_c, 0, 50, 64
2, 4890, Control_c, 0, 64, 0
2, 4890, Control_c, 0, 64, 0
2, 4896, Note_off_c, 0, 66, 64
2, 4918, Control_c, 0, 64, 127
2, 4918, Control_c, 0, 64, 127
2, 4941, Note_off_c, 0, 69, 64
2, 4995, Note_on_c, 0, 71, 54
2, 5036, Note_on_c, 0, 62, 58
2, 5036, Note_on_c, 0, 60, 58
2, 5041, Note_on_c, 0, 72, 62
2, 5041, Note_on_c, 0, 66, 59
2, 5047, Note_off_c, 0, 71, 64
2, 5072, Control_c, 0, 64, 0
2, 5072, Control_c, 0, 64, 0
2, 5124, Control_c, 0, 64, 127
2, 5124, Control_c, 0, 64, 127
2, 5222, Note_off_c, 0, 50, 64
2, 5353, Note_off_c, 0, 60, 64
2, 5353, Note_off_c, 0, 62, 64
2, 5358, Note_off_c, 0, 66, 64
2, 5358, Note_off_c, 0, 72, 64
2, 5376, Note_on_c, 0, 67, 54
2, 5380, Note_on_c, 0, 62, 52
2, 5381, Note_on_c, 0, 71, 58
2, 5386, Note_on_c, 0, 43, 59
2, 5450, Note_off_c, 0, 67, 64
2, 5454, Note_off_c, 0, 62, 64
2, 5455, Note_off_c, 0, 71, 64
2, 5472, Note_on_c, 0, 60, 55
2, 5473, Note_on_c, 0, 69, 52
2, 5475, Note_on_c, 0, 50, 55
2, 5524, Note_on_c, 0, 67, 66
2, 5524, Note_on_c, 0, 59, 67
2, 5524, Note_on_c, 0, 55, 63
2, 5536, Note_off_c, 0, 60, 64
2, 5537, Note_off_c, 0, 69, 64
2, 5539, Note_off_c, 0, 50, 64
2, 5539, Note_off_c, 0, 43, 64
2, 5556, Control_c, 0, 64, 0
2, 5556, Control_c, 0, 64, 0
2, 5579, Control_c, 0, 64, 127
2, 5579, Control_c, 0, 64, 127
2, 5704, Note_off_c, 0, 59, 64
2, 5704, Note_off_c, 0, 67, 64
2, 5712, Note_on_c, 0, 71, 58
2, 5712, Note_on_c, 0, 43, 62
2, 5716, Note_on_c, 0, 62, 63
2, 5716, Note_on_c, 0, 59, 58
2, 5724, Control_c, 0, 64, 0
2, 5724, Control_c, 0, 64, 0
2, 5837, Note_on_c, 0, 65, 58
2, 5884, Note_off_c, 0, 71, 64
2, 5904, Note_off_c, 0, 59, 64
2, 5908, Note_on_c, 0, 76, 70
2, 5923, Note_on_c, 0, 59, 69
2, 5929, Note_off_c, 0, 62, 64
2, 5936, Note_off_c, 0, 55, 64
2, 5949, Control_c, 0, 64, 0
2, 5949, Control_c, 0, 64, 0
2, 5986, Control_c, 0, 64, 127
2, 5986, Control_c, 0, 64, 127
2, 6242, Note_off_c, 0, 65, 64
2, 6273, Note_on_c, 0, 71, 54
2, 6276, Note_on_c, 0, 65, 51
2, 6280, Note_on_c, 0, 74, 56
2, 6280, Note_on_c, 0, 44, 55
2, 6287, Note_off_c, 0, 76, 64
2, 6294, Note_off_c, 0, 43, 64
2, 6398, Note_off_c, 0, 74, 64
2, 6421, Note_on_c, 0, 74, 56
2, 6456, Note_on_c, 0, 64, 62
2, 6456, Note_on_c, 0, 45, 49
2, 6460, Note_on_c, 0, 72, 62
2, 6460, Note_on_c, 0, 69, 54
2, 6468, Note_off_c, 0, 44, 64
2, 6471, Note_off_c, 0, 59, 64
2, 6474, Note_off_c, 0, 71, 64
2, 6477, Note_off_c, 0, 65, 64
2, 6479, Note_off_c, 0, 74, 64
2, 6601, Note_on_c, 0, 68, 58
2, 6601, Note_on_c, 0, 62, 55
2, 6607, Note_on_c, 0, 71, 54
2, 6607, Note_on_c, 0, 47, 49
2, 6613, Note_off_c, 0, 45, 64
2, 6613, Note_off_c, 0, 64, 64
2, 6617, Note_off_c, 0, 69, 64
2, 6617, Note_off_c, 0, 72, 64
2, 6652, Note_on_c, 0, 64, 55
2, 6656, Note_on_c, 0, 69, 58
2, 6656, Note_on_c, 0, 48, 56
2, 6657, Note_off_c, 0, 62, 64
2, 6657, Note_off_c, 0, 68, 64
2, 6663, Note_off_c, 0, 47, 64
2, 6663, Note_off_c, 0, 71, 64
2, 6669, Control_c, 0, 64, 0
2, 6669, Control_c, 0, 64, 0
2, 6693, Control_c, 0, 64, 127
2, 6693, Control_c, 0, 64, 127
2, 6837, Note_on_c, 0, 71, 43
2, 6839, Note_on_c, 0, 50, 46
2, 6843, Note_off_c, 0, 64, 64
2, 6843, Note_on_c, 0, 62, 46
2, 6847, Note_off_c, 0, 48, 64
2, 6847, Note_off_c, 0, 69, 64
2, 6847, Note_on_c, 0, 65, 44
2, 6874, Control_c, 0, 64, 0
2, 6874, Control_c, 0, 64, 0
2, 6898, Control_c, 0, 64, 127
2, 6898, Control_c, 0, 64, 127
2, 7030, Note_on_c, 0, 69, 46
2, 7037, Note_on_c, 0, 64, 57
2, 7039, Note_on_c, 0, 60, 58
2, 7039, Note_on_c, 0, 52, 50
2, 7043, Note_off_c, 0, 71, 64
2, 7045, Note_off_c, 0, 50, 64
2, 7049, Note_off_c, 0, 62, 64
2, 7053, Note_off_c, 0, 65, 64
2, 7151, Note_off_c, 0, 69, 64
2, 7160, Note_off_c, 0, 60, 64
2, 7160, Note_on_c, 0, 59, 58
2, 7164, Note_on_c, 0, 68, 55
2, 7200, Note_on_c, 0, 40, 49
2, 7206, Note_on_c, 0, 71, 57
2, 7212, Note_off_c, 0, 59, 64
2, 7212, Note_on_c, 0, 62, 60
2, 7216, Note_off_c, 0, 68, 64
2, 7222, Control_c, 0, 64, 0
2, 7222, Control_c, 0, 64, 0
2, 7248, Control_c, 0, 64, 127
2, 7248, Control_c, 0, 64, 127
2, 7393, Note_off_c, 0, 40, 64
2, 7401, Note_on_c, 0, 69, 50
2, 7406, Note_on_c, 0, 60, 54
2, 7409, Note_on_c, 0, 45, 50
2, 7420, Note_off_c, 0, 52, 64
2, 7424, Note_off_c, 0, 71, 64
2, 7429, Control_c, 0, 64, 0
2, 7429, Control_c, 0, 64, 0
2, 7430, Note_off_c, 0, 62, 64
2, 7440, Control_c, 0, 64, 127
2, 7440, Control_c, 0, 64, 127
2, 7559, Note_off_c, 0, 69, 64
2, 7560, Note_off_c, 0, 64, 64
2, 7564, Note_off_c, 0, 60, 64
2, 7567, Note_off_c, 0, 45, 64
2, 7596, Note_on_c, 0, 71, 49
2, 7596, Note_on_c, 0, 62, 49
2, 7599, Note_on_c, 0, 66, 46
2, 7602, Note_on_c, 0, 50, 49
2, 7717, Note_on_c, 0, 69, 46
2, 7719, Note_on_c, 0, 60, 60
2, 7728, Note_off_c, 0, 62, 64
2, 7728, Note_off_c, 0, 71, 64
2, 7762, Note_on_c, 0, 67, 48
2, 7764, Note_on_c, 0, 59, 49
2, 7771, Note_off_c, 0, 69, 64
2, 7771, Note_off_c, 0, 50, 64
2, 7771, Note_on_c, 0, 55, 54
2, 7772, Note_off_c, 0, 66, 64
2, 7773, Note_off_c, 0, 60, 64
2, 7785, Control_c, 0, 64, 0
2, 7785, Control_c, 0, 64, 0
2, 7818, Control_c, 0, 64, 127
2, 7818, Control_c, 0, 64, 127
2, 7950, Note_on_c, 0, 69, 51
2, 7950, Note_on_c, 0, 64, 51
2, 7950, Note_on_c, 0, 60, 46
2, 7955, Note_off_c, 0, 67, 64
2, 7957, Note_off_c, 0, 59, 64
2, 7960, Note_on_c, 0, 48, 50
2, 7972, Note_off_c, 0, 55, 64
2, 7982, Control_c, 0, 64, 0
2, 7982, Control_c, 0, 64, 0
2, 7996, Control_c, 0, 64, 127
2, 7996, Control_c, 0, 64, 127
2, 8133, Note_on_c, 0, 67, 49
2, 8135, Note_on_c, 0, 62, 48
2, 8142, Note_off_c, 0, 60, 64
2, 8142, Note_off_c, 0, 64, 64
2, 8142, Note_off_c, 0, 69, 64
2, 8143, Note_on_c, 0, 59, 55
2, 8143, Note_on_c, 0, 50, 50
2, 8152, Note_off_c, 0, 48, 64
2, 8260, Note_on_c, 0, 66, 48
2, 8264, Note_on_c, 0, 57, 57
2, 8280, Note_off_c, 0, 67, 64
2, 8290, Note_off_c, 0, 59, 64
2, 8306, Note_on_c, 0, 69, 54
2, 8311, Note_on_c, 0, 60, 60
2, 8311, Note_on_c, 0, 38, 46
2, 8314, Note_off_c, 0, 66, 64
2, 8318, Note_off_c, 0, 57, 64
2, 8331, Control_c, 0, 64, 0
2, 8331, Control_c, 0, 64, 0
2, 8353, Control_c, 0, 64, 127
2, 8353, Control_c, 0, 64, 127
2, 8443, Note_off_c, 0, 60, 64
2, 8528, Note_on_c, 0, 59, 54
2, 8529, Note_off_c, 0, 69, 64
2, 8532, Note_on_c, 0, 43, 50
2, 8533, Note_on_c, 0, 67, 47
2, 8540, Note_off_c, 0, 38, 64
2, 8552, Control_c, 0, 64, 0
2, 8552, Control_c, 0, 64, 0
2, 8565, Control_c, 0, 64, 127
2, 8565, Control_c, 0, 64, 127
2, 8662, Note_off_c, 0, 62, 64
2, 8667, Note_off_c, 0, 59, 64
2, 8672, Note_off_c, 0, 67, 64
2, 8699, Note_off_c, 0, 50, 64
2, 8740, Note_on_c, 0, 40, 62
2, 8747, Note_on_c, 0, 70, 71
2, 8757, Note_off_c, 0, 43, 64
2, 8761, Control_c, 0, 64, 0
2, 8761, Control_c, 0, 64, 0
2, 8783, Control_c, 0, 64, 127
2, 8783, Control_c, 0, 64, 127
2, 8813, Note_off_c, 0, 70, 64
2, 8896, Note_on_c, 0, 71, 55
2, 8917, Note_off_c, 0, 40, 64
2, 8955, Note_off_c, 0, 71, 64
2, 8957, Note_on_c, 0, 64, 67
2, 8964, Note_on_c, 0, 52, 58
2, 8967, Note_on_c, 0, 55, 63
2, 8987, Control_c, 0, 64, 0
2, 8987, Control_c, 0, 64, 0
2, 9106, Control_c, 0, 64, 127
2, 9106, Control_c, 0, 64, 127
2, 9321, Note_on_c, 0, 66, 44
2, 9409, Note_off_c, 0, 55, 64
2, 9432, Note_on_c, 0, 67, 48
2, 9441, Note_off_c, 0, 66, 64
2, 9492, Note_on_c, 0, 55, 48
2, 9495, Note_on_c, 0, 71, 47
2, 9513, Note_off_c, 0, 67, 64
2, 9550, Note_on_c, 0, 72, 42
2, 9561, Note_off_c, 0, 71, 64
2, 9593, Note_on_c, 0, 71, 46
2, 9614, Note_off_c, 0, 72, 64
2, 9664, Note_on_c, 0, 69, 48
2, 9670, Note_off_c, 0, 71, 64
2, 9670, Note_on_c, 0, 54, 41
2, 9680, Note_off_c, 0, 55, 64
2, 9682, Control_c, 0, 64, 0
2, 9682, Control_c, 0, 64, 0
2, 9726, Control_c, 0, 64, 127
2, 9726, Control_c, 0, 64, 127
2, 9752, Note_on_c, 0, 71, 42
2, 9752, Note_on_c, 0, 55, 39
2, 9767, Note_off_c, 0, 69, 64
2, 9777, Note_off_c, 0, 54, 64
2, 9840, Note_on_c, 0, 72, 42
2, 9840, Note_on_c, 0, 57, 39
2, 9854, Note_off_c, 0, 55, 64
2, 9854, Note_off_c, 0, 71, 64
2, 9854, Control_c, 0, 64, 0
2, 9854, Control_c, 0, 64, 0
2, 9912, Note_on_c, 0, 59, 50
2, 9919, Note_on_c, 0, 74, 44
2, 9933, Control_c, 0, 64, 127
2, 9933, Control_c, 0, 64, 127
2, 9940, Note_off_c, 0, 57, 64
2, 9940, Note_off_c, 0, 72, 64
2, 9956, Control_c, 0, 64, 0
2, 9956, Control_c, 0, 64, 0
2, 10000, Note_on_c, 0, 60, 28
2, 10001, Note_on_c, 0, 76, 49
2, 10016, Note_off_c, 0, 59, 64
2, 10023, Note_off_c, 0, 74, 64
2, 10172, Note_on_c, 0, 59, 31
2, 10173, Control_c, 0, 64, 127
2, 10173, Control_c, 0, 64, 127
2, 10177, Note_on_c, 0, 74, 44
2, 10213, Note_off_c, 0, 60, 64
2, 10214, Note_off_c, 0, 76, 64
2, 10226, Note_off_c, 0, 52, 64
2, 10260, Note_on_c, 0, 72, 51
2, 10260, Note_on_c, 0, 57, 44
2, 10270, Note_off_c, 0, 59, 64
2, 10275, Note_off_c, 0, 74, 64
2, 10316, Note_on_c, 0, 71, 50
2, 10323, Note_off_c, 0, 72, 64
2, 10336, Note_on_c, 0, 72, 44
2, 10350, Note_off_c, 0, 71, 64
2, 10366, Note_on_c, 0, 55, 48
2, 10368, Note_on_c, 0, 71, 58
2, 10375, Note_off_c, 0, 57, 64
2, 10384, Note_off_c, 0, 72, 64
2, 10492, Note_on_c, 0, 70, 51
2, 10492, Note_on_c, 0, 54, 49
2, 10498, Note_off_c, 0, 55, 64
2, 10500, Note_off_c, 0, 71, 64
2, 10538, Note_on_c, 0, 71, 50
2, 10540, Note_on_c, 0, 55, 46
2, 10550, Note_off_c, 0, 54, 64
2, 10550, Note_off_c, 0, 70, 64
2, 10564, Control_c, 0, 64, 0
2, 10564, Control_c, 0, 64, 0
2, 10620, Control_c, 0, 64, 127
2, 10620, Control_c, 0, 64, 127
2, 10728, Note_on_c, 0, 59, 41
2, 10732, Note_on_c, 0, 67, 44
2, 10741, Note_off_c, 0, 71, 64
2, 10773, Note_off_c, 0, 55, 64
2, 10825, Note_off_c, 0, 59, 64
2, 10829, Note_off_c, 0, 67, 64
2, 10836, Note_off_c, 0, 64, 64
2, 10915, Note_on_c, 0, 40, 63
2, 10920, Note_on_c, 0, 70, 73
2, 10932, Control_c, 0, 64, 0
2, 10932, Control_c, 0, 64, 0
2, 10968, Control_c, 0, 64, 127
2, 10968, Control_c, 0, 64, 127
2, 10996, Note_off_c, 0, 70, 64
2, 11071, Note_on_c, 0, 71, 51
2, 11092, Note_off_c, 0, 40, 64
2, 11120, Note_on_c, 0, 64, 67
2, 11124, Note_on_c, 0, 55, 58
2, 11129, Note_on_c, 0, 52, 58
2, 11133, Note_off_c, 0, 71, 64
2, 11153, Control_c, 0, 64, 0
2, 11153, Control_c, 0, 64, 0
2, 11284, Control_c, 0, 64, 127
2, 11284, Control_c, 0, 64, 127
2, 11500, Note_on_c, 0, 66, 48
2, 11504, Note_off_c, 0, 55, 64
2, 11593, Note_on_c, 0, 67, 49
2, 11595, Note_off_c, 0, 66, 64
2, 11664, Note_on_c, 0, 71, 49
2, 11664, Note_on_c, 0, 55, 51
2, 11673, Note_off_c, 0, 67, 64
2, 11695, Control_c, 0, 64, 0
2, 11695, Control_c, 0, 64, 0
2, 11711, Control_c, 0, 64, 127
2, 11711, Control_c, 0, 64, 127
2, 11724, Note_on_c, 0, 72, 35
2, 11735, Note_off_c, 0, 71, 64
2, 11769, Note_on_c, 0, 71, 51
2, 11786, Note_off_c, 0, 72, 64
2, 11844, Note_on_c, 0, 54, 42
2, 11845, Note_on_c, 0, 69, 58
2, 11854, Control_c, 0, 64, 0
2, 11854, Control_c, 0, 64, 0
2, 11859, Note_off_c, 0, 71, 64
2, 11872, Note_off_c, 0, 55, 64
2, 11884, Control_c, 0, 64, 127
2, 11884, Control_c, 0, 64, 127
2, 11933, Note_on_c, 0, 71, 51
2, 11936, Note_on_c, 0, 55, 37
2, 11948, Note_off_c, 0, 54, 64
2, 11949, Note_off_c, 0, 69, 64
2, 12017, Note_on_c, 0, 72, 57
2, 12018, Note_on_c, 0, 57, 39
2, 12022, Note_off_c, 0, 71, 64
2, 12025, Note_off_c, 0, 55, 64
2, 12033, Control_c, 0, 64, 0
2, 12033, Control_c, 0, 64, 0
2, 12057, Control_c, 0, 64, 127
2, 12057, Control_c, 0, 64, 127
2, 12102, Note_on_c, 0, 74, 54
2, 12103, Note_on_c, 0, 59, 49
2, 12113, Note_off_c, 0, 72, 64
2, 12114, Note_off_c, 0, 57, 64
2, 12180, Note_on_c, 0, 76, 58
2, 12180, Note_on_c, 0, 60, 50
2, 12202, Note_off_c, 0, 74, 64
2, 12203, Note_off_c, 0, 59, 64
2, 12340, Note_on_c, 0, 59, 40
2, 12345, Note_on_c, 0, 74, 47
2, 12357, Note_off_c, 0, 60, 64
2, 12357, Note_off_c, 0, 76, 64
2, 12420, Note_on_c, 0, 57, 31
2, 12427, Note_on_c, 0, 72, 50
2, 12443, Note_off_c, 0, 59, 64
2, 12448, Note_off_c, 0, 74, 64
2, 12518, Note_on_c, 0, 71, 62
2, 12522, Note_on_c, 0, 55, 52
2, 12528, Note_off_c, 0, 72, 64
2, 12529, Note_off_c, 0, 57, 64
2, 12640, Note_on_c, 0, 72, 47
2, 12640, Note_on_c, 0, 57, 51
2, 12654, Note_off_c, 0, 71, 64
2, 12658, Note_off_c, 0, 55, 64
2, 12684, Note_on_c, 0, 55, 56
2, 12685, Note_on_c, 0, 71, 37
2, 12700, Note_off_c, 0, 57, 64
2, 12700, Note_off_c, 0, 72, 64
2, 12736, Note_on_c, 0, 72, 58
2, 12741, Note_off_c, 0, 71, 64
2, 12789, Note_on_c, 0, 71, 59
2, 12803, Note_off_c, 0, 72, 64
2, 12808, Note_off_c, 0, 52, 64
2, 12857, Note_off_c, 0, 55, 64
2, 12863, Note_off_c, 0, 71, 64
2, 12864, Note_on_c, 0, 67, 58
2, 12864, Note_on_c, 0, 61, 65
2, 12865, Note_on_c, 0, 52, 48
2, 12866, Note_on_c, 0, 45, 56
2, 12868, Note_off_c, 0, 64, 64
2, 12966, Note_on_c, 0, 64, 49
2, 12968, Note_on_c, 0, 55, 62
2, 12975, Note_off_c, 0, 61, 64
2, 12980, Note_off_c, 0, 67, 64
2, 12981, Note_off_c, 0, 52, 64
2, 13060, Note_on_c, 0, 62, 73
2, 13060, Note_on_c, 0, 38, 71
2, 13065, Control_c, 0, 64, 0
2, 13065, Control_c, 0, 64, 0
2, 13079, Note_off_c, 0, 64, 64
2, 13081, Note_off_c, 0, 55, 64
2, 13082, Note_off_c, 0, 45, 64
2, 13110, Control_c, 0, 64, 127
2, 13110, Control_c, 0, 64, 127
2, 13118, Note_off_c, 0, 38, 64
2, 13118, Note_off_c, 0, 62, 64
2, 13240, Note_on_c, 0, 66, 73
2, 13240, Note_on_c, 0, 60, 65
2, 13240, Note_on_c, 0, 50, 57
2, 13241, Note_on_c, 0, 57, 63
2, 13255, Control_c, 0, 64, 0
2, 13255, Control_c, 0, 64, 0
2, 13276, Control_c, 0, 64, 127
2, 13276, Control_c, 0, 64, 127
2, 13324, Note_on_c, 0, 64, 50
2, 13324, Note_on_c, 0, 55, 59
2, 13332, Note_off_c, 0, 66, 64
2, 13337, Note_off_c, 0, 57, 64
2, 13412, Note_on_c, 0, 62, 75
2, 13412, Note_on_c, 0, 54, 46
2, 13425, Note_off_c, 0, 55, 64
2, 13425, Note_off_c, 0, 64, 64
2, 13488, Note_on_c, 0, 66, 67
2, 13488, Note_on_c, 0, 57, 71
2, 13530, Note_off_c, 0, 62, 64
2, 13547, Note_off_c, 0, 50, 64
2, 13550, Note_off_c, 0, 54, 64
2, 13555, Note_on_c, 0, 69, 62
2, 13559, Note_on_c, 0, 50, 63
2, 13564, Control_c, 0, 64, 0
2, 13564, Control_c, 0, 64, 0
2, 13569, Note_off_c, 0, 57, 64
2, 13569, Note_off_c, 0, 66, 64
2, 13586, Control_c, 0, 64, 127
2, 13586, Control_c, 0, 64, 127
2, 13611, Note_off_c, 0, 69, 64
2, 13670, Note_on_c, 0, 71, 58
2, 13685, Note_off_c, 0, 60, 64
2, 13720, Note_on_c, 0, 62, 63
2, 13720, Note_on_c, 0, 60, 63
2, 13723, Note_on_c, 0, 66, 64
2, 13725, Note_on_c, 0, 72, 64
2, 13729, Note_off_c, 0, 71, 64
2, 13738, Control_c, 0, 64, 0
2, 13738, Control_c, 0, 64, 0
2, 13812, Control_c, 0, 64, 127
2, 13812, Control_c, 0, 64, 127
2, 13906, Control_c, 0, 64, 0
2, 13906, Control_c, 0, 64, 0
2, 14037, Note_off_c, 0, 60, 64
2, 14037, Note_off_c, 0, 62, 64
2, 14040, Note_off_c, 0, 66, 64
2, 14042, Note_off_c, 0, 72, 64
2, 14056, Control_c, 0, 64, 0
2, 14056, Control_c, 0, 64, 0
2, 14059, Note_off_c, 0, 50, 64
2, 14060, Note_on_c, 0, 67, 54
2, 14062, Note_on_c, 0, 62, 51
2, 14063, Note_on_c, 0, 71, 58
2, 14063, Note_on_c, 0, 43, 64
2, 14077, Control_c, 0, 64, 127
2, 14077, Control_c, 0, 64, 127
2, 14145, Note_off_c, 0, 67, 64
2, 14147, Note_off_c, 0, 62, 64
2, 14148, Note_off_c, 0, 71, 64
2, 14160, Note_on_c, 0, 69, 51
2, 14161, Note_on_c, 0, 50, 58
2, 14167, Note_on_c, 0, 60, 62
2, 14187, Note_off_c, 0, 43, 64
2, 14213, Note_on_c, 0, 67, 64
2, 14216, Note_on_c, 0, 59, 59
2, 14216, Note_on_c, 0, 55, 63
2, 14218, Note_off_c, 0, 69, 64
2, 14225, Note_off_c, 0, 60, 64
2, 14227, Note_off_c, 0, 50, 64
2, 14230, Control_c, 0, 64, 0
2, 14230, Control_c, 0, 64, 0
2, 14275, Control_c, 0, 64, 127
2, 14275, Control_c, 0, 64, 127
2, 14390, Control_c, 0, 64, 0
2, 14390, Control_c, 0, 64, 0
2, 14392, Note_off_c, 0, 55, 64
2, 14392, Note_off_c, 0, 59, 64
2, 14392, Note_on_c, 0, 71, 62
2, 14396, Note_on_c, 0, 59, 59
2, 14398, Note_on_c, 0, 43, 62
2, 14400, Note_on_c, 0, 62, 63
2, 14409, Note_off_c, 0, 67, 64
2, 14529, Note_on_c, 0, 49, 51
2, 14539, Note_off_c, 0, 59, 64
2, 14542, Note_off_c, 0, 62, 64
2, 14576, Note_on_c, 0, 76, 64
2, 14580, Note_on_c, 0, 67, 56
2, 14580, Note_on_c, 0, 64, 51
2, 14586, Note_on_c, 0, 58, 63
2, 14592, Note_off_c, 0, 71, 64
2, 14599, Control_c, 0, 64, 0
2, 14599, Control_c, 0, 64, 0
2, 14628, Control_c, 0, 64, 127
2, 14628, Control_c, 0, 64, 127
2, 14794, Note_off_c, 0, 43, 64
2, 14810, Note_off_c, 0, 67, 64
2, 14820, Note_on_c, 0, 67, 64
2, 14820, Note_on_c, 0, 59, 65
2, 14820, Note_on_c, 0, 50, 54
2, 14823, Note_on_c, 0, 74, 62
2, 14824, Note_on_c, 0, 62, 63
2, 14824, Note_on_c, 0, 43, 57
2, 14837, Note_off_c, 0, 76, 64
2, 14841, Note_off_c, 0, 64, 64
2, 14841, Control_c, 0, 64, 0
2, 14841, Control_c, 0, 64, 0
2, 14846, Note_off_c, 0, 49, 64
2, 14847, Note_off_c, 0, 58, 64
2, 14914, Control_c, 0, 64, 127
2, 14914, Control_c, 0, 64, 127
2, 15184, Note_off_c, 0, 50, 64
2, 15184, Note_off_c, 0, 59, 64
2, 15184, Note_off_c, 0, 67, 64
2, 15187, Note_off_c, 0, 74, 64
2, 15188, Note_off_c, 0, 43, 64
2, 15188, Note_off_c, 0, 62, 64
2, 15221, Control_c, 0, 64, 0
2, 15221, Control_c, 0, 64, 0
2, 15252, Note_on_c, 0, 62, 70
2, 15252, Note_on_c, 0, 38, 62
2, 15301, Control_c, 0, 64, 127
2, 15301, Control_c, 0, 64, 127
2, 15310, Note_off_c, 0, 38, 64
2, 15310, Note_off_c, 0, 62, 64
2, 15444, Note_on_c, 0, 50, 58
2, 15447, Note_on_c, 0, 57, 62
2, 15448, Note_on_c, 0, 66, 56
2, 15448, Note_on_c, 0, 60, 62
2, 15516, Note_on_c, 0, 64, 54
2, 15516, Note_on_c, 0, 55, 51
2, 15536, Note_off_c, 0, 57, 64
2, 15556, Note_off_c, 0, 66, 64
2, 15600, Note_on_c, 0, 62, 64
2, 15600, Note_on_c, 0, 54, 46
2, 15626, Note_off_c, 0, 55, 64
2, 15626, Note_off_c, 0, 64, 64
2, 15673, Note_on_c, 0, 66, 57
2, 15674, Note_on_c, 0, 57, 58
2, 15690, Note_off_c, 0, 54, 64
2, 15690, Note_off_c, 0, 62, 64
2, 15726, Note_off_c, 0, 50, 64
2, 15746, Note_off_c, 0, 66, 64
2, 15753, Note_off_c, 0, 57, 64
2, 15756, Note_on_c, 0, 69, 62
2, 15764, Note_on_c, 0, 50, 64
2, 15771, Control_c, 0, 64, 0
2, 15771, Control_c, 0, 64, 0
2, 15794, Control_c, 0, 64, 127
2, 15794, Control_c, 0, 64, 127
2, 15823, Note_off_c, 0, 69, 64
2, 15871, Note_on_c, 0, 71, 54
2, 15923, Note_off_c, 0, 71, 64
2, 15926, Note_on_c, 0, 72, 62
2, 15926, Note_on_c, 0, 66, 64
2, 15928, Note_off_c, 0, 60, 64
2, 15928, Note_on_c, 0, 62, 62
2, 15932, Note_on_c, 0, 60, 59
2, 15947, Control_c, 0, 64, 0
2, 15947, Control_c, 0, 64, 0
2, 16012, Control_c, 0, 64, 127
2, 16012, Control_c, 0, 64, 127
2, 16243, Note_off_c, 0, 66, 64
2, 16243, Note_off_c, 0, 72, 64
2, 16245, Note_off_c, 0, 62, 64
2, 16249, Note_off_c, 0, 60, 64
2, 16281, Control_c, 0, 64, 127
2, 16281, Control_c, 0, 64, 127
2, 16284, Note_on_c, 0, 71, 57
2, 16284, Note_on_c, 0, 67, 54
2, 16284, Note_on_c, 0, 62, 54
2, 16284, Note_on_c, 0, 43, 62
2, 16341, Note_off_c, 0, 50, 64
2, 16360, Note_off_c, 0, 62, 64
2, 16360, Note_off_c, 0, 67, 64
2, 16360, Note_off_c, 0, 71, 64
2, 16383, Note_on_c, 0, 69, 52
2, 16384, Note_on_c, 0, 60, 56
2, 16384, Note_on_c, 0, 50, 54
2, 16434, Note_on_c, 0, 67, 63
2, 16436, Note_on_c, 0, 59, 57
2, 16441, Note_off_c, 0, 69, 64
2, 16442, Note_off_c, 0, 50, 64
2, 16442, Note_off_c, 0, 60, 64
2, 16443, Note_on_c, 0, 55, 62
2, 16461, Control_c, 0, 64, 0
2, 16461, Control_c, 0, 64, 0
2, 16485, Control_c, 0, 64, 127
2, 16485, Control_c, 0, 64, 127
2, 16617, Note_off_c, 0, 43, 64
2, 16617, Note_on_c, 0, 64, 59
2, 16619, Note_on_c, 0, 60, 62
2, 16621, Note_off_c, 0, 67, 64
2, 16623, Note_off_c, 0, 59, 64
2, 16625, Note_on_c, 0, 48, 56
2, 16649, Control_c, 0, 64, 0
2, 16649, Control_c, 0, 64, 0
2, 16671, Control_c, 0, 64, 127
2, 16671, Control_c, 0, 64, 127
2, 16796, Note_on_c, 0, 62, 54
2, 16800, Note_on_c, 0, 67, 62
2, 16800, Note_on_c, 0, 59, 58
2, 16804, Note_on_c, 0, 43, 58
2, 16809, Note_off_c, 0, 64, 64
2, 16813, Note_off_c, 0, 48, 64
2, 16813, Note_off_c, 0, 60, 64
2, 16817, Control_c, 0, 64, 0
2, 16817, Control_c, 0, 64, 0
2, 16846, Control_c, 0, 64, 127
2, 16846, Control_c, 0, 64, 127
2, 16950, Note_off_c, 0, 55, 64
2, 16988, Note_on_c, 0, 64, 52
2, 16988, Note_on_c, 0, 60, 58
2, 16988, Note_on_c, 0, 55, 48
2, 16991, Note_on_c, 0, 48, 52
2, 16995, Note_off_c, 0, 62, 64
2, 16999, Note_off_c, 0, 59, 64
2, 16999, Note_off_c, 0, 67, 64
2, 17003, Note_off_c, 0, 43, 64
2, 17005, Control_c, 0, 64, 0
2, 17005, Control_c, 0, 64, 0
2, 17067, Control_c, 0, 64, 127
2, 17067, Control_c, 0, 64, 127
2, 17171, Note_on_c, 0, 45, 52
2, 17257, Control_c, 0, 64, 127
2, 17257, Control_c, 0, 64, 127
2, 17305, Note_off_c, 0, 55, 64
2, 17305, Note_off_c, 0, 60, 64
2, 17305, Note_off_c, 0, 64, 64
2, 17308, Note_off_c, 0, 48, 64
2, 17345, Note_off_c, 0, 45, 64
2, 17354, Control_c, 0, 64, 0
2, 17354, Control_c, 0, 64, 0
2, 17360, Note_on_c, 0, 38, 62
2, 17362, Note_on_c, 0, 62, 58
2, 17362, Note_on_c, 0, 60, 62
2, 17362, Note_on_c, 0, 54, 64
2, 17401, Control_c, 0, 64, 127
2, 17401, Control_c, 0, 64, 127
2, 17418, Note_off_c, 0, 38, 64
2, 17420, Note_off_c, 0, 54, 64
2, 17420, Note_off_c, 0, 60, 64
2, 17420, Note_off_c, 0, 62, 64
2, 17554, Note_on_c, 0, 66, 58
2, 17554, Note_on_c, 0, 50, 50
2, 17556, Note_on_c, 0, 57, 58
2, 17558, Note_on_c, 0, 60, 58
2, 17570, Control_c, 0, 64, 0
2, 17570, Control_c, 0, 64, 0
2, 17581, Control_c, 0, 64, 127
2, 17581, Control_c, 0, 64, 127
2, 17631, Note_on_c, 0, 64, 51
2, 17633, Note_on_c, 0, 55, 54
2, 17652, Note_off_c, 0, 57, 64
2, 17653, Note_off_c, 0, 60, 64
2, 17663, Note_off_c, 0, 66, 64
2, 17720, Note_on_c, 0, 62, 65
2, 17720, Note_on_c, 0, 54, 50
2, 17727, Note_off_c, 0, 64, 64
2, 17729, Note_off_c, 0, 55, 64
2, 17744, Note_off_c, 0, 50, 64
2, 17780, Note_on_c, 0, 66, 62
2, 17780, Note_on_c, 0, 57, 62
2, 17831, Note_off_c, 0, 62, 64
2, 17836, Note_off_c, 0, 54, 64
2, 17861, Note_on_c, 0, 69, 62
2, 17865, Note_on_c, 0, 50, 63
2, 17866, Control_c, 0, 64, 0
2, 17866, Control_c, 0, 64, 0
2, 17875, Note_off_c, 0, 57, 64
2, 17875, Note_off_c, 0, 66, 64
2, 17880, Control_c, 0, 64, 127
2, 17880, Control_c, 0, 64, 127
2, 17917, Note_off_c, 0, 69, 64
2, 17971, Note_on_c, 0, 71, 58
2, 18020, Note_on_c, 0, 62, 64
2, 18023, Note_on_c, 0, 66, 65
2, 18024, Note_on_c, 0, 60, 58
2, 18026, Note_on_c, 0, 72, 67
2, 18035, Note_off_c, 0, 71, 64
2, 18048, Control_c, 0, 64, 0
2, 18048, Control_c, 0, 64, 0
2, 18123, Control_c, 0, 64, 127
2, 18123, Control_c, 0, 64, 127
2, 18337, Note_off_c, 0, 62, 64
2, 18340, Note_off_c, 0, 66, 64
2, 18341, Note_off_c, 0, 60, 64
2, 18343, Note_off_c, 0, 72, 64
2, 18372, Note_on_c, 0, 67, 54
2, 18374, Note_on_c, 0, 62, 58
2, 18374, Note_on_c, 0, 43, 63
2, 18376, Note_on_c, 0, 71, 58
2, 18377, Control_c, 0, 64, 127
2, 18377, Control_c, 0, 64, 127
2, 18447, Note_off_c, 0, 67, 64
2, 18449, Note_off_c, 0, 62, 64
2, 18451, Note_off_c, 0, 71, 64
2, 18469, Note_off_c, 0, 50, 64
2, 18477, Note_on_c, 0, 69, 56
2, 18487, Note_on_c, 0, 60, 54
2, 18487, Note_on_c, 0, 50, 57
2, 18532, Note_on_c, 0, 55, 63
2, 18533, Note_off_c, 0, 69, 64
2, 18536, Note_on_c, 0, 59, 62
2, 18537, Note_on_c, 0, 67, 62
2, 18543, Note_off_c, 0, 50, 64
2, 18543, Note_off_c, 0, 60, 64
2, 18567, Control_c, 0, 64, 0
2, 18567, Control_c, 0, 64, 0
2, 18582, Control_c, 0, 64, 127
2, 18582, Control_c, 0, 64, 127
2, 18687, Note_off_c, 0, 43, 64
2, 18708, Note_off_c, 0, 59, 64
2, 18712, Note_on_c, 0, 62, 63
2, 18712, Note_on_c, 0, 59, 62
2, 18713, Note_on_c, 0, 71, 62
2, 18718, Control_c, 0, 64, 127
2, 18718, Control_c, 0, 64, 127
2, 18720, Note_on_c, 0, 43, 58
2, 18728, Note_off_c, 0, 67, 64
2, 18808, Note_on_c, 0, 65, 59
2, 18873, Note_off_c, 0, 55, 64
2, 18889, Note_off_c, 0, 59, 64
2, 18889, Note_off_c, 0, 62, 64
2, 18895, Note_on_c, 0, 76, 62
2, 18901, Note_on_c, 0, 59, 59
2, 18923, Note_off_c, 0, 71, 64
2, 18932, Control_c, 0, 64, 0
2, 18932, Control_c, 0, 64, 0
2, 18945, Control_c, 0, 64, 127
2, 18945, Control_c, 0, 64, 127
2, 19080, Note_off_c, 0, 65, 64
2, 19352, Note_on_c, 0, 44, 54
2, 19356, Note_on_c, 0, 71, 49
2, 19357, Note_on_c, 0, 74, 55
2, 19357, Note_on_c, 0, 65, 50
2, 19363, Note_off_c, 0, 43, 64
2, 19374, Note_off_c, 0, 76, 64
2, 19484, Note_off_c, 0, 65, 64
2, 19489, Note_off_c, 0, 59, 64
2, 19491, Note_on_c, 0, 64, 55
2, 19533, Note_on_c, 0, 69, 51
2, 19544, Note_off_c, 0, 74, 64
2, 19548, Note_off_c, 0, 71, 64
2, 19567, Note_on_c, 0, 74, 52
2, 19586, Note_on_c, 0, 45, 44
2, 19592, Note_off_c, 0, 44, 64
2, 19595, Note_on_c, 0, 72, 52
2, 19609, Note_off_c, 0, 74, 64
2, 19715, Note_off_c, 0, 69, 64
2, 19720, Note_off_c, 0, 72, 64
2, 19720, Note_on_c, 0, 68, 54
2, 19720, Note_on_c, 0, 62, 51
2, 19726, Note_on_c, 0, 71, 51
2, 19727, Note_on_c, 0, 47, 48
2, 19738, Note_off_c, 0, 64, 64
2, 19742, Note_off_c, 0, 45, 64
2, 19770, Note_on_c, 0, 48, 49
2, 19772, Note_on_c, 0, 64, 52
2, 19773, Note_on_c, 0, 69, 51
2, 19774, Note_off_c, 0, 62, 64
2, 19774, Note_off_c, 0, 68, 64
2, 19780, Note_off_c, 0, 71, 64
2, 19781, Note_off_c, 0, 47, 64
2, 19800, Control_c, 0, 64, 0
2, 19800, Control_c, 0, 64, 0
2, 19822, Control_c, 0, 64, 127
2, 19822, Control_c, 0, 64, 127
2, 19955, Note_on_c, 0, 50, 49
2, 19959, Note_on_c, 0, 71, 49
2, 19963, Note_on_c, 0, 65, 50
2, 19963, Note_on_c, 0, 62, 50
2, 19969, Note_off_c, 0, 48, 64
2, 19973, Note_off_c, 0, 69, 64
2, 19975, Note_off_c, 0, 64, 64
2, 19990, Control_c, 0, 64, 0
2, 19990, Control_c, 0, 64, 0
2, 20004, Control_c, 0, 64, 127
2, 20004, Control_c, 0, 64, 127
2, 20136, Note_on_c, 0, 64, 51
2, 20136, Note_on_c, 0, 52, 48
2, 20139, Note_on_c, 0, 69, 47
2, 20142, Note_on_c, 0, 60, 54
2, 20149, Note_off_c, 0, 71, 64
2, 20150, Note_off_c, 0, 50, 64
2, 20153, Note_off_c, 0, 62, 64
2, 20153, Note_off_c, 0, 65, 64
2, 20158, Control_c, 0, 64, 0
2, 20158, Control_c, 0, 64, 0
2, 20171, Control_c, 0, 64, 127
2, 20171, Control_c, 0, 64, 127
2, 20264, Note_on_c, 0, 59, 46
2, 20268, Note_on_c, 0, 68, 44
2, 20282, Note_off_c, 0, 69, 64
2, 20285, Note_off_c, 0, 60, 64
2, 20312, Note_on_c, 0, 62, 51
2, 20313, Note_on_c, 0, 71, 51
2, 20313, Note_on_c, 0, 40, 48
2, 20322, Note_off_c, 0, 59, 64
2, 20326, Note_off_c, 0, 68, 64
2, 20328, Note_off_c, 0, 52, 64
2, 20335, Control_c, 0, 64, 0
2, 20335, Control_c, 0, 64, 0
2, 20348, Control_c, 0, 64, 127
2, 20348, Control_c, 0, 64, 127
2, 20495, Note_on_c, 0, 69, 46
2, 20497, Note_on_c, 0, 45, 47
2, 20499, Note_on_c, 0, 60, 51
2, 20507, Note_off_c, 0, 62, 64
2, 20508, Note_off_c, 0, 40, 64
2, 20508, Note_off_c, 0, 71, 64
2, 20512, Control_c, 0, 64, 0
2, 20512, Control_c, 0, 64, 0
2, 20535, Control_c, 0, 64, 127
2, 20535, Control_c, 0, 64, 127
2, 20590, Control_c, 0, 64, 127
2, 20590, Control_c, 0, 64, 127
2, 20654, Note_off_c, 0, 69, 64
2, 20656, Note_off_c, 0, 45, 64
2, 20658, Note_off_c, 0, 60, 64
2, 20662, Note_off_c, 0, 64, 64
2, 20679, Note_on_c, 0, 62, 49
2, 20680, Note_on_c, 0, 71, 47
2, 20680, Note_on_c, 0, 66, 44
2, 20684, Note_on_c, 0, 50, 47
2, 20793, Note_on_c, 0, 69, 44
2, 20797, Note_on_c, 0, 60, 50
2, 20799, Note_off_c, 0, 62, 64
2, 20800, Note_off_c, 0, 71, 64
2, 20838, Note_off_c, 0, 66, 64
2, 20843, Note_off_c, 0, 50, 64
2, 20845, Note_on_c, 0, 67, 49
2, 20846, Note_on_c, 0, 55, 52
2, 20848, Note_on_c, 0, 59, 44
2, 20851, Note_off_c, 0, 69, 64
2, 20855, Note_off_c, 0, 60, 64
2, 20860, Control_c, 0, 64, 0
2, 20860, Control_c, 0, 64, 0
2, 20885, Control_c, 0, 64, 127
2, 20885, Control_c, 0, 64, 127
2, 21012, Note_on_c, 0, 60, 42
2, 21016, Note_on_c, 0, 69, 50
2, 21020, Note_off_c, 0, 67, 64
2, 21020, Note_on_c, 0, 64, 44
2, 21020, Note_on_c, 0, 48, 44
2, 21023, Note_off_c, 0, 59, 64
2, 21036, Note_off_c, 0, 55, 64
2, 21042, Control_c, 0, 64, 0
2, 21042, Control_c, 0, 64, 0
2, 21075, Control_c, 0, 64, 127
2, 21075, Control_c, 0, 64, 127
2, 21192, Note_on_c, 0, 59, 41
2, 21192, Note_on_c, 0, 50, 43
2, 21194, Note_on_c, 0, 62, 41
2, 21195, Note_off_c, 0, 60, 64
2, 21199, Note_off_c, 0, 69, 64
2, 21199, Note_on_c, 0, 67, 42
2, 21203, Note_off_c, 0, 48, 64
2, 21203, Note_off_c, 0, 64, 64
2, 21222, Control_c, 0, 64, 0
2, 21222, Control_c, 0, 64, 0
2, 21236, Control_c, 0, 64, 127
2, 21236, Control_c, 0, 64, 127
2, 21336, Note_on_c, 0, 66, 37
2, 21336, Note_on_c, 0, 57, 49
2, 21340, Note_off_c, 0, 59, 64
2, 21347, Note_off_c, 0, 67, 64
2, 21380, Note_on_c, 0, 60, 46
2, 21380, Note_on_c, 0, 38, 44
2, 21382, Note_on_c, 0, 69, 42
2, 21394, Control_c, 0, 64, 0
2, 21394, Control_c, 0, 64, 0
2, 21400, Note_off_c, 0, 57, 64
2, 21400, Note_off_c, 0, 66, 64
2, 21418, Control_c, 0, 64, 127
2, 21418, Control_c, 0, 64, 127
2, 21608, Note_on_c, 0, 67, 35
2, 21612, Note_on_c, 0, 59, 36
2, 21619, Note_off_c, 0, 60, 64
2, 21621, Note_off_c, 0, 69, 64
2, 21621, Note_off_c, 0, 38, 64
2, 21624, Note_on_c, 0, 43, 44
2, 21628, Control_c, 0, 64, 0
2, 21628, Control_c, 0, 64, 0
2, 21637, Note_off_c, 0, 50, 64
2, 21685, Control_c, 0, 64, 127
2, 21685, Control_c, 0, 64, 127
2, 21893, Note_on_c, 0, 56, 58
2, 21895, Control_c, 0, 64, 0
2, 21895, Control_c, 0, 64, 0
2, 21898, Note_off_c, 0, 67, 64
2, 21902, Note_off_c, 0, 59, 64
2, 21904, Note_off_c, 0, 62, 64
2, 21914, Note_off_c, 0, 43, 64
2, 21933, Control_c, 0, 64, 127
2, 21933, Control_c, 0, 64, 127
2, 21985, Note_on_c, 0, 55, 39
2, 22004, Note_off_c, 0, 56, 64
2, 22061, Note_on_c, 0, 51, 63
2, 22066, Note_on_c, 0, 63, 34
2, 22067, Note_on_c, 0, 60, 46
2, 22078, Note_on_c, 0, 67, 26
2, 22092, Control_c, 0, 64, 0
2, 22092, Control_c, 0, 64, 0
2, 22135, Control_c, 0, 64, 127
2, 22135, Control_c, 0, 64, 127
2, 22154, Note_off_c, 0, 55, 64
2, 22203, Note_off_c, 0, 63, 64
2, 22204, Note_off_c, 0, 60, 64
2, 22249, Note_on_c, 0, 48, 51
2, 22264, Note_on_c, 0, 63, 25
2, 22269, Note_on_c, 0, 60, 29
2, 22277, Control_c, 0, 64, 0
2, 22277, Control_c, 0, 64, 0
2, 22279, Note_off_c, 0, 51, 64
2, 22302, Control_c, 0, 64, 127
2, 22302, Control_c, 0, 64, 127
2, 22348, Note_on_c, 0, 51, 54
2, 22352, Note_off_c, 0, 63, 64
2, 22357, Note_off_c, 0, 60, 64
2, 22358, Note_off_c, 0, 48, 64
2, 22430, Note_on_c, 0, 43, 63
2, 22436, Note_off_c, 0, 51, 64
2, 22444, Control_c, 0, 64, 0
2, 22444, Control_c, 0, 64, 0
2, 22490, Control_c, 0, 64, 127
2, 22490, Control_c, 0, 64, 127
2, 22518, Note_on_c, 0, 50, 51
2, 22584, Note_on_c, 0, 60, 41
2, 22591, Note_on_c, 0, 62, 44
2, 22591, Note_on_c, 0, 55, 58
2, 22597, Note_off_c, 0, 43, 64
2, 22608, Note_off_c, 0, 50, 64
2, 22616, Control_c, 0, 64, 0
2, 22616, Control_c, 0, 64, 0
2, 22639, Control_c, 0, 64, 127
2, 22639, Control_c, 0, 64, 127
2, 22721, Note_off_c, 0, 60, 64
2, 22728, Note_off_c, 0, 62, 64
2, 22764, Note_on_c, 0, 54, 51
2, 22770, Note_on_c, 0, 59, 42
2, 22774, Note_on_c, 0, 62, 40
2, 22783, Control_c, 0, 64, 0
2, 22783, Control_c, 0, 64, 0
2, 22787, Note_off_c, 0, 55, 64
2, 22826, Control_c, 0, 64, 127
2, 22826, Control_c, 0, 64, 127
2, 22847, Note_on_c, 0, 55, 49
2, 22858, Note_off_c, 0, 59, 64
2, 22861, Note_off_c, 0, 54, 64
2, 22862, Note_off_c, 0, 62, 64
2, 22935, Note_on_c, 0, 56, 64
2, 22951, Control_c, 0, 64, 0
2, 22951, Control_c, 0, 64, 0
2, 22958, Note_off_c, 0, 55, 64
2, 22977, Control_c, 0, 64, 127
2, 22977, Control_c, 0, 64, 127
2, 23020, Note_on_c, 0, 55, 62
2, 23042, Note_off_c, 0, 67, 64
2, 23060, Note_off_c, 0, 56, 64
2, 23099, Note_on_c, 0, 63, 48
2, 23100, Note_on_c, 0, 51, 70
2, 23103, Note_on_c, 0, 60, 47
2, 23107, Note_on_c, 0, 67, 35
2, 23115, Control_c, 0, 64, 0
2, 23115, Control_c, 0, 64, 0
2, 23126, Note_off_c, 0, 55, 64
2, 23150, Control_c, 0, 64, 127
2, 23150, Control_c, 0, 64, 127
2, 23236, Note_off_c, 0, 63, 64
2, 23240, Note_off_c, 0, 60, 64
2, 23244, Note_off_c, 0, 67, 64
2, 23263, Note_on_c, 0, 48, 52
2, 23264, Note_on_c, 0, 63, 55
2, 23265, Note_on_c, 0, 69, 49
2, 23277, Control_c, 0, 64, 0
2, 23277, Control_c, 0, 64, 0
2, 23281, Note_off_c, 0, 51, 64
2, 23321, Control_c, 0, 64, 127
2, 23321, Control_c, 0, 64, 127
2, 23353, Note_off_c, 0, 69, 64
2, 23362, Note_on_c, 0, 53, 49
2, 23367, Note_off_c, 0, 48, 64
2, 23438, Note_on_c, 0, 46, 72
2, 23444, Note_on_c, 0, 70, 42
2, 23448, Note_off_c, 0, 53, 64
2, 23455, Control_c, 0, 64, 0
2, 23455, Control_c, 0, 64, 0
2, 23486, Control_c, 0, 64, 127
2, 23486, Control_c, 0, 64, 127
2, 23526, Note_on_c, 0, 53, 55
2, 23558, Note_off_c, 0, 63, 64
2, 23562, Note_off_c, 0, 46, 64
2, 23618, Note_on_c, 0, 58, 73
2, 23621, Note_on_c, 0, 62, 42
2, 23627, Note_off_c, 0, 53, 64
2, 23635, Control_c, 0, 64, 0
2, 23635, Control_c, 0, 64, 0
2, 23681, Control_c, 0, 64, 127
2, 23681, Control_c, 0, 64, 127
2, 23758, Note_off_c, 0, 62, 64
2, 23800, Note_on_c, 0, 62, 42
2, 23807, Note_on_c, 0, 68, 44
2, 23822, Control_c, 0, 64, 0
2, 23822, Control_c, 0, 64, 0
2, 23867, Control_c, 0, 64, 127
2, 23867, Control_c, 0, 64, 127
2, 23888, Note_off_c, 0, 62, 64
2, 23895, Note_off_c, 0, 68, 64
2, 23943, Note_off_c, 0, 58, 64
2, 23981, Note_on_c, 0, 60, 64
2, 24050, Note_on_c, 0, 58, 49
2, 24073, Note_off_c, 0, 60, 64
2, 24108, Note_off_c, 0, 70, 64
2, 24150, Note_on_c, 0, 55, 46
2, 24158, Note_on_c, 0, 70, 42
2, 24158, Note_on_c, 0, 67, 39
2, 24158, Note_on_c, 0, 63, 36
2, 24171, Note_off_c, 0, 58, 64
2, 24177, Control_c, 0, 64, 0
2, 24177, Control_c, 0, 64, 0
2, 24197, Control_c, 0, 64, 127
2, 24197, Control_c, 0, 64, 127
2, 24295, Note_off_c, 0, 63, 64
2, 24295, Note_off_c, 0, 67, 64
2, 24295, Note_off_c, 0, 70, 64
2, 24328, Note_on_c, 0, 72, 49
2, 24332, Note_on_c, 0, 67, 46
2, 24337, Note_on_c, 0, 51, 58
2, 24357, Control_c, 0, 64, 0
2, 24357, Control_c, 0, 64, 0
2, 24365, Note_off_c, 0, 55, 64
2, 24380, Control_c, 0, 64, 127
2, 24380, Control_c, 0, 64, 127
2, 24416, Note_off_c, 0, 72, 64
2, 24423, Note_on_c, 0, 57, 54
2, 24432, Note_off_c, 0, 51, 64
2, 24498, Note_on_c, 0, 50, 71
2, 24504, Note_on_c, 0, 74, 51
2, 24516, Note_off_c, 0, 57, 64
2, 24534, Control_c, 0, 64, 0
2, 24534, Control_c, 0, 64, 0
2, 24550, Control_c, 0, 64, 127
2, 24550, Control_c, 0, 64, 127
2, 24590, Note_on_c, 0, 57, 50
2, 24639, Note_off_c, 0, 67, 64
2, 24672, Note_on_c, 0, 66, 44
2, 24672, Note_on_c, 0, 62, 58
2, 24698, Note_off_c, 0, 57, 64
2, 24701, Note_off_c, 0, 50, 64
2, 24701, Control_c, 0, 64, 0
2, 24701, Control_c, 0, 64, 0
2, 24715, Control_c, 0, 64, 127
2, 24715, Control_c, 0, 64, 127
2, 24809, Note_off_c, 0, 66, 64
2, 24842, Note_on_c, 0, 61, 55
2, 24850, Note_on_c, 0, 69, 40
2, 24852, Note_on_c, 0, 66, 25
2, 24874, Note_off_c, 0, 62, 64
2, 24938, Note_off_c, 0, 69, 64
2, 24940, Note_off_c, 0, 66, 64
2, 24940, Note_on_c, 0, 62, 64
2, 24966, Note_off_c, 0, 61, 64
2, 25018, Note_on_c, 0, 63, 65
2, 25048, Note_off_c, 0, 62, 64
2, 25107, Note_on_c, 0, 62, 63
2, 25126, Note_off_c, 0, 63, 64
2, 25185, Note_on_c, 0, 58, 62
2, 25190, Note_on_c, 0, 70, 52
2, 25193, Note_on_c, 0, 67, 49
2, 25221, Note_off_c, 0, 74, 64
2, 25278, Note_off_c, 0, 70, 64
2, 25281, Note_off_c, 0, 67, 64
2, 25281, Note_on_c, 0, 74, 49
2, 25299, Note_off_c, 0, 62, 64
2, 25357, Note_on_c, 0, 77, 62
2, 25374, Note_off_c, 0, 74, 64
2, 25376, Note_on_c, 0, 75, 59
2, 25376, Note_on_c, 0, 70, 51
2, 25376, Note_on_c, 0, 67, 26
2, 25380, Note_on_c, 0, 55, 59
2, 25416, Note_off_c, 0, 58, 64
2, 25419, Note_off_c, 0, 77, 64
2, 25468, Note_on_c, 0, 58, 63
2, 25481, Note_off_c, 0, 75, 64
2, 25489, Note_off_c, 0, 67, 64
2, 25492, Note_off_c, 0, 70, 64
2, 25500, Note_off_c, 0, 55, 64
2, 25520, Note_on_c, 0, 74, 49
2, 25550, Note_off_c, 0, 74, 64
2, 25552, Note_on_c, 0, 67, 51
2, 25554, Note_on_c, 0, 74, 58
2, 25556, Note_on_c, 0, 50, 65
2, 25558, Note_on_c, 0, 69, 52
2, 25567, Note_off_c, 0, 58, 64
2, 25585, Control_c, 0, 64, 0
2, 25585, Control_c, 0, 64, 0
2, 25608, Control_c, 0, 64, 127
2, 25608, Control_c, 0, 64, 127
2, 25640, Note_off_c, 0, 67, 64
2, 25646, Note_off_c, 0, 69, 64
2, 25666, Note_on_c, 0, 57, 54
2, 25730, Note_on_c, 0, 69, 57
2, 25737, Control_c, 0, 64, 0
2, 25737, Control_c, 0, 64, 0
2, 25745, Note_on_c, 0, 66, 58
2, 25753, Note_on_c, 0, 62, 51
2, 25754, Note_off_c, 0, 50, 64
2, 25758, Note_off_c, 0, 57, 64
2, 25780, Control_c, 0, 64, 127
2, 25780, Control_c, 0, 64, 127
2, 25833, Note_off_c, 0, 66, 64
2, 25835, Note_off_c, 0, 74, 64
2, 25942, Note_on_c, 0, 66, 44
2, 26079, Note_off_c, 0, 66, 64
2, 26147, Note_on_c, 0, 69, 51
2, 26148, Note_on_c, 0, 67, 46
2, 26153, Note_on_c, 0, 64, 39
2, 26160, Control_c, 0, 64, 0
2, 26160, Control_c, 0, 64, 0
2, 26173, Control_c, 0, 64, 127
2, 26173, Control_c, 0, 64, 127
2, 26228, Note_on_c, 0, 61, 56
2, 26236, Note_off_c, 0, 67, 64
2, 26241, Note_off_c, 0, 64, 64
2, 26267, Note_off_c, 0, 69, 64
2, 26270, Note_off_c, 0, 62, 64
2, 26326, Note_on_c, 0, 57, 56
2, 26348, Note_on_c, 0, 67, 46
2, 26353, Note_on_c, 0, 64, 39
2, 26360, Control_c, 0, 64, 0
2, 26360, Control_c, 0, 64, 0
2, 26373, Control_c, 0, 64, 127
2, 26373, Control_c, 0, 64, 127
2, 26375, Note_off_c, 0, 61, 64
2, 26436, Note_off_c, 0, 67, 64
2, 26441, Note_off_c, 0, 64, 64
2, 26511, Note_on_c, 0, 66, 47
2, 26511, Note_on_c, 0, 62, 63
2, 26519, Note_off_c, 0, 57, 64
2, 26530, Control_c, 0, 64, 0
2, 26530, Control_c, 0, 64, 0
2, 26544, Control_c, 0, 64, 127
2, 26544, Control_c, 0, 64, 127
2, 26648, Note_off_c, 0, 66, 64
2, 26698, Note_on_c, 0, 67, 52
2, 26698, Note_on_c, 0, 64, 56
2, 26773, Note_on_c, 0, 61, 58
2, 26786, Note_off_c, 0, 64, 64
2, 26786, Note_off_c, 0, 67, 64
2, 26826, Note_off_c, 0, 62, 64
2, 26877, Note_on_c, 0, 57, 56
2, 26880, Control_c, 0, 64, 0
2, 26880, Control_c, 0, 64, 0
2, 26882, Note_on_c, 0, 64, 56
2, 26888, Note_on_c, 0, 67, 35
2, 26893, Note_off_c, 0, 61, 64
2, 26906, Control_c, 0, 64, 127
2, 26906, Control_c, 0, 64, 127
2, 26970, Note_off_c, 0, 64, 64
2, 26976, Note_off_c, 0, 67, 64
2, 27043, Note_on_c, 0, 66, 48
2, 27050, Note_on_c, 0, 62, 50
2, 27096, Note_off_c, 0, 57, 64
2, 27114, Note_off_c, 0, 69, 64
2, 27166, Note_off_c, 0, 62, 64
2, 27180, Note_off_c, 0, 66, 64
2, 27196, Note_on_c, 0, 60, 62
2, 27234, Note_off_c, 0, 60, 64
2, 27244, Note_on_c, 0, 60, 54
2, 27248, Note_on_c, 0, 67, 49
2, 27248, Note_on_c, 0, 65, 24
2, 27248, Note_on_c, 0, 62, 39
2, 27262, Control_c, 0, 64, 0
2, 27262, Control_c, 0, 64, 0
2, 27288, Control_c, 0, 64, 127
2, 27288, Control_c, 0, 64, 127
2, 27331, Note_on_c, 0, 59, 59
2, 27336, Note_off_c, 0, 62, 64
2, 27336, Note_off_c, 0, 65, 64
2, 27336, Note_off_c, 0, 67, 64
2, 27348, Note_off_c, 0, 60, 64
2, 27416, Note_on_c, 0, 55, 64
2, 27429, Note_off_c, 0, 59, 64
2, 27432, Note_on_c, 0, 67, 49
2, 27432, Note_on_c, 0, 65, 24
2, 27432, Note_on_c, 0, 62, 39
2, 27437, Control_c, 0, 64, 0
2, 27437, Control_c, 0, 64, 0
2, 27446, Control_c, 0, 64, 0
2, 27446, Control_c, 0, 64, 0
2, 27460, Control_c, 0, 64, 127
2, 27460, Control_c, 0, 64, 127
2, 27472, Control_c, 0, 64, 127
2, 27472, Control_c, 0, 64, 127
2, 27520, Note_off_c, 0, 62, 64
2, 27520, Note_off_c, 0, 65, 64
2, 27520, Note_off_c, 0, 67, 64
2, 27570, Note_off_c, 0, 55, 64
2, 27614, Note_on_c, 0, 67, 51
2, 27617, Note_on_c, 0, 64, 54
2, 27618, Note_on_c, 0, 60, 59
2, 27734, Note_on_c, 0, 59, 41
2, 27739, Note_off_c, 0, 60, 64
2, 27762, Note_off_c, 0, 67, 64
2, 27765, Note_off_c, 0, 64, 64
2, 27772, Note_off_c, 0, 59, 64
2, 27790, Note_on_c, 0, 66, 58
2, 27791, Note_on_c, 0, 59, 66
2, 27799, Note_on_c, 0, 64, 54
2, 27828, Control_c, 0, 64, 0
2, 27828, Control_c, 0, 64, 0
2, 27878, Note_off_c, 0, 66, 64
2, 27887, Note_off_c, 0, 64, 64
2, 27889, Note_on_c, 0, 58, 58
2, 27915, Note_off_c, 0, 59, 64
2, 27972, Control_c, 0, 64, 0
2, 27972, Control_c, 0, 64, 0
2, 27974, Note_on_c, 0, 66, 40
2, 27975, Note_on_c, 0, 64, 54
2, 27975, Note_on_c, 0, 61, 54
2, 27986, Control_c, 0, 64, 127
2, 27986, Control_c, 0, 64, 127
2, 27989, Note_off_c, 0, 58, 64
2, 27990, Note_on_c, 0, 54, 64
2, 27998, Control_c, 0, 64, 127
2, 27998, Control_c, 0, 64, 127
2, 28004, Control_c, 0, 64, 0
2, 28004, Control_c, 0, 64, 0
2, 28026, Control_c, 0, 64, 127
2, 28026, Control_c, 0, 64, 127
2, 28062, Note_off_c, 0, 66, 64
2, 28063, Note_off_c, 0, 61, 64
2, 28063, Note_off_c, 0, 64, 64
2, 28170, Note_on_c, 0, 66, 55
2, 28170, Note_on_c, 0, 59, 54
2, 28180, Note_on_c, 0, 63, 59
2, 28187, Note_off_c, 0, 54, 64
2, 28318, Note_off_c, 0, 66, 64
2, 28328, Note_off_c, 0, 63, 64
2, 28371, Note_on_c, 0, 52, 63
2, 28375, Note_on_c, 0, 68, 58
2, 28378, Note_on_c, 0, 62, 58
2, 28378, Note_on_c, 0, 40, 56
2, 28379, Note_off_c, 0, 59, 64
2, 28380, Note_on_c, 0, 64, 57
2, 28455, Note_off_c, 0, 40, 64
2, 28460, Note_off_c, 0, 62, 64
2, 28467, Note_off_c, 0, 68, 64
2, 28472, Note_off_c, 0, 64, 64
2, 28499, Note_on_c, 0, 69, 54
2, 28558, Note_on_c, 0, 62, 58
2, 28562, Note_on_c, 0, 64, 63
2, 28563, Note_on_c, 0, 68, 72
2, 28566, Note_on_c, 0, 71, 63
2, 28576, Note_off_c, 0, 69, 64
2, 28750, Note_on_c, 0, 72, 64
2, 28767, Note_off_c, 0, 71, 64
2, 28830, Note_off_c, 0, 52, 64
2, 28916, Note_on_c, 0, 71, 39
2, 28931, Note_off_c, 0, 72, 64
2, 28955, Note_off_c, 0, 71, 64
2, 28969, Note_off_c, 0, 62, 64
2, 28973, Note_off_c, 0, 64, 64
2, 28974, Note_off_c, 0, 68, 64
2, 28977, Note_on_c, 0, 60, 49
2, 28980, Note_on_c, 0, 71, 62
2, 28990, Note_on_c, 0, 45, 65
2, 29070, Note_off_c, 0, 60, 64
2, 29132, Note_on_c, 0, 52, 65
2, 29170, Note_on_c, 0, 69, 60
2, 29190, Note_on_c, 0, 60, 69
2, 29192, Note_off_c, 0, 71, 64
2, 29213, Note_off_c, 0, 60, 64
2, 29228, Note_on_c, 0, 60, 63
2, 29232, Note_on_c, 0, 67, 70
2, 29247, Note_off_c, 0, 69, 64
2, 29275, Note_on_c, 0, 76, 72
2, 29282, Note_off_c, 0, 52, 64
2, 29297, Control_c, 0, 64, 0
2, 29297, Control_c, 0, 64, 0
2, 29350, Control_c, 0, 64, 127
2, 29350, Control_c, 0, 64, 127
2, 29790, Note_on_c, 0, 50, 52
2, 29796, Note_on_c, 0, 66, 50
2, 29802, Note_off_c, 0, 45, 64
2, 29820, Note_off_c, 0, 67, 64
2, 29893, Note_on_c, 0, 74, 54
2, 29910, Note_off_c, 0, 76, 64
2, 29982, Note_on_c, 0, 64, 46
2, 29983, Note_on_c, 0, 72, 56
2, 29996, Note_off_c, 0, 74, 64
2, 29999, Note_off_c, 0, 60, 64
2, 30157, Note_on_c, 0, 62, 57
2, 30161, Note_on_c, 0, 71, 55
2, 30172, Note_off_c, 0, 64, 64
2, 30173, Note_off_c, 0, 72, 64
2, 30278, Note_on_c, 0, 69, 58
2, 30278, Note_on_c, 0, 60, 47
2, 30283, Note_off_c, 0, 62, 64
2, 30287, Note_off_c, 0, 71, 64
2, 30338, Note_on_c, 0, 59, 48
2, 30340, Note_on_c, 0, 68, 62
2, 30355, Note_off_c, 0, 60, 64
2, 30355, Note_off_c, 0, 69, 64
2, 30374, Control_c, 0, 64, 0
2, 30374, Control_c, 0, 64, 0
2, 30388, Control_c, 0, 64, 127
2, 30388, Control_c, 0, 64, 127
2, 30518, Note_on_c, 0, 60, 54
2, 30521, Note_on_c, 0, 69, 57
2, 30524, Note_off_c, 0, 59, 64
2, 30536, Note_off_c, 0, 68, 64
2, 30696, Note_on_c, 0, 55, 50
2, 30697, Note_off_c, 0, 60, 64
2, 30700, Note_off_c, 0, 69, 64
2, 30702, Note_on_c, 0, 64, 58
2, 30708, Note_on_c, 0, 60, 51
2, 30713, Note_off_c, 0, 66, 64
2, 30725, Control_c, 0, 64, 0
2, 30725, Control_c, 0, 64, 0
2, 30737, Control_c, 0, 64, 127
2, 30737, Control_c, 0, 64, 127
2, 30759, Note_on_c, 0, 66, 49
2, 30765, Note_off_c, 0, 64, 64
2, 30815, Note_on_c, 0, 64, 51
2, 30842, Note_off_c, 0, 66, 64
2, 30870, Note_on_c, 0, 54, 51
2, 30875, Note_off_c, 0, 55, 64
2, 30875, Note_on_c, 0, 62, 65
2, 30893, Control_c, 0, 64, 0
2, 30893, Control_c, 0, 64, 0
2, 30900, Note_off_c, 0, 64, 64
2, 30931, Control_c, 0, 64, 127
2, 30931, Control_c, 0, 64, 127
2, 31048, Control_c, 0, 64, 0
2, 31048, Control_c, 0, 64, 0
2, 31054, Note_on_c, 0, 66, 52
2, 31055, Note_on_c, 0, 57, 56
2, 31058, Note_off_c, 0, 54, 64
2, 31063, Note_off_c, 0, 62, 64
2, 31077, Control_c, 0, 64, 127
2, 31077, Control_c, 0, 64, 127
2, 31126, Note_on_c, 0, 55, 54
2, 31134, Note_on_c, 0, 64, 59
2, 31140, Note_off_c, 0, 66, 64
2, 31141, Note_off_c, 0, 57, 64
2, 31207, Note_off_c, 0, 64, 64
2, 31208, Note_on_c, 0, 54, 49
2, 31210, Note_on_c, 0, 62, 63
2, 31222, Note_off_c, 0, 55, 64
2, 31277, Note_on_c, 0, 66, 62
2, 31278, Note_on_c, 0, 57, 46
2, 31315, Note_off_c, 0, 50, 64
2, 31320, Note_off_c, 0, 54, 64
2, 31322, Note_off_c, 0, 62, 64
2, 31367, Note_on_c, 0, 69, 56
2, 31374, Note_on_c, 0, 50, 67
2, 31381, Control_c, 0, 64, 0
2, 31381, Control_c, 0, 64, 0
2, 31388, Note_off_c, 0, 66, 64
2, 31389, Note_off_c, 0, 57, 64
2, 31407, Control_c, 0, 64, 127
2, 31407, Control_c, 0, 64, 127
2, 31438, Note_off_c, 0, 69, 64
2, 31483, Note_on_c, 0, 71, 54
2, 31520, Note_off_c, 0, 60, 64
2, 31534, Note_on_c, 0, 62, 63
2, 31534, Note_on_c, 0, 60, 58
2, 31536, Note_on_c, 0, 72, 62
2, 31538, Note_on_c, 0, 66, 65
2, 31555, Note_off_c, 0, 71, 64
2, 31560, Control_c, 0, 64, 0
2, 31560, Control_c, 0, 64, 0
2, 31623, Control_c, 0, 64, 127
2, 31623, Control_c, 0, 64, 127
2, 31851, Note_off_c, 0, 60, 64
2, 31851, Note_off_c, 0, 62, 64
2, 31853, Note_off_c, 0, 50, 64
2, 31853, Note_off_c, 0, 72, 64
2, 31855, Note_off_c, 0, 66, 64
2, 31862, Note_on_c, 0, 67, 54
2, 31862, Control_c, 0, 64, 0
2, 31862, Control_c, 0, 64, 0
2, 31867, Control_c, 0, 64, 127
2, 31867, Control_c, 0, 64, 127
2, 31869, Note_on_c, 0, 71, 64
2, 31869, Note_on_c, 0, 62, 51
2, 31869, Note_on_c, 0, 43, 63
2, 31885, Control_c, 0, 64, 127
2, 31885, Control_c, 0, 64, 127
2, 31947, Note_off_c, 0, 67, 64
2, 31954, Note_off_c, 0, 62, 64
2, 31954, Note_off_c, 0, 71, 64
2, 31990, Note_off_c, 0, 43, 64
2, 31990, Note_on_c, 0, 69, 51
2, 31990, Note_on_c, 0, 60, 46
2, 31990, Note_on_c, 0, 50, 51
2, 32030, Note_on_c, 0, 59, 62
2, 32030, Note_on_c, 0, 55, 64
2, 32034, Note_on_c, 0, 67, 71
2, 32041, Note_off_c, 0, 50, 64
2, 32041, Note_off_c, 0, 60, 64
2, 32041, Note_off_c, 0, 69, 64
2, 32041, Control_c, 0, 64, 0
2, 32041, Control_c, 0, 64, 0
2, 32068, Control_c, 0, 64, 127
2, 32068, Control_c, 0, 64, 127
2, 32183, Note_off_c, 0, 59, 64
2, 32194, Note_on_c, 0, 62, 63
2, 32194, Note_on_c, 0, 59, 2
2, 32200, Note_on_c, 0, 71, 62
2, 32206, Control_c, 0, 64, 0
2, 32206, Control_c, 0, 64, 0
2, 32209, Note_off_c, 0, 67, 64
2, 32222, Control_c, 0, 64, 127
2, 32222, Control_c, 0, 64, 127
2, 32252, Note_on_c, 0, 43, 62
2, 32314, Note_on_c, 0, 43, 58
2, 32346, Note_on_c, 0, 49, 57
2, 32386, Note_off_c, 0, 55, 64
2, 32390, Note_on_c, 0, 67, 63
2, 32390, Note_on_c, 0, 58, 72
2, 32392, Note_on_c, 0, 76, 62
2, 32392, Note_on_c, 0, 64, 62
2, 32401, Note_off_c, 0, 59, 64
2, 32401, Note_off_c, 0, 62, 64
2, 32407, Note_off_c, 0, 71, 64
2, 32414, Control_c, 0, 64, 0
2, 32414, Control_c, 0, 64, 0
2, 32441, Control_c, 0, 64, 127
2, 32441, Control_c, 0, 64, 127
2, 32487, Note_off_c, 0, 43, 64
2, 32592, Note_off_c, 0, 43, 64
2, 32618, Note_on_c, 0, 50, 56
2, 32618, Note_on_c, 0, 43, 47
2, 32620, Note_off_c, 0, 67, 64
2, 32626, Note_on_c, 0, 74, 63
2, 32626, Note_on_c, 0, 62, 64
2, 32628, Note_on_c, 0, 67, 71
2, 32628, Note_on_c, 0, 59, 70
2, 32631, Note_off_c, 0, 49, 64
2, 32640, Note_off_c, 0, 58, 64
2, 32642, Note_off_c, 0, 64, 64
2, 32642, Note_off_c, 0, 76, 64
2, 32659, Control_c, 0, 64, 0
2, 32659, Control_c, 0, 64, 0
2, 32743, Control_c, 0, 64, 127
2, 32743, Control_c, 0, 64, 127
2, 32982, Note_off_c, 0, 43, 64
2, 32982, Note_off_c, 0, 50, 64
2, 32990, Note_off_c, 0, 62, 64
2, 32990, Note_off_c, 0, 74, 64
2, 32992, Note_off_c, 0, 59, 64
2, 32992, Note_off_c, 0, 67, 64
2, 33027, Note_on_c, 0, 38, 62
2, 33027, Control_c, 0, 64, 0
2, 33027, Control_c, 0, 64, 0
2, 33033, Note_on_c, 0, 62, 67
2, 33077, Control_c, 0, 64, 127
2, 33077, Control_c, 0, 64, 127
2, 33085, Note_off_c, 0, 38, 64
2, 33091, Note_off_c, 0, 62, 64
2, 33214, Note_on_c, 0, 60, 58
2, 33214, Note_on_c, 0, 50, 54
2, 33215, Note_on_c, 0, 57, 58
2, 33221, Note_on_c, 0, 66, 57
2, 33286, Note_on_c, 0, 55, 51
2, 33289, Note_on_c, 0, 64, 52
2, 33307, Note_off_c, 0, 57, 64
2, 33313, Note_off_c, 0, 66, 64
2, 33378, Note_on_c, 0, 54, 34
2, 33383, Note_on_c, 0, 62, 64
2, 33394, Note_off_c, 0, 55, 64
2, 33397, Note_off_c, 0, 64, 64
2, 33409, Note_off_c, 0, 50, 64
2, 33455, Note_on_c, 0, 66, 63
2, 33457, Note_on_c, 0, 57, 48
2, 33480, Note_off_c, 0, 54, 64
2, 33485, Note_off_c, 0, 62, 64
2, 33536, Note_on_c, 0, 69, 59
2, 33545, Note_on_c, 0, 50, 62
2, 33548, Control_c, 0, 64, 0
2, 33548, Control_c, 0, 64, 0
2, 33551, Note_off_c, 0, 57, 64
2, 33551, Note_off_c, 0, 66, 64
2, 33562, Control_c, 0, 64, 127
2, 33562, Control_c, 0, 64, 127
2, 33607, Note_off_c, 0, 69, 64
2, 33645, Note_on_c, 0, 71, 54
2, 33669, Note_off_c, 0, 60, 64
2, 33698, Note_on_c, 0, 62, 58
2, 33698, Note_on_c, 0, 60, 58
2, 33699, Note_on_c, 0, 72, 63
2, 33699, Note_on_c, 0, 66, 64
2, 33710, Note_off_c, 0, 71, 64
2, 33723, Control_c, 0, 64, 0
2, 33723, Control_c, 0, 64, 0
2, 33810, Control_c, 0, 64, 127
2, 33810, Control_c, 0, 64, 127
2, 34015, Note_off_c, 0, 60, 64
2, 34015, Note_off_c, 0, 62, 64
2, 34016, Note_off_c, 0, 66, 64
2, 34016, Note_off_c, 0, 72, 64
2, 34038, Note_on_c, 0, 71, 57
2, 34038, Note_on_c, 0, 67, 54
2, 34038, Note_on_c, 0, 62, 51
2, 34043, Control_c, 0, 64, 127
2, 34043, Control_c, 0, 64, 127
2, 34046, Note_on_c, 0, 43, 63
2, 34058, Control_c, 0, 64, 0
2, 34058, Control_c, 0, 64, 0
2, 34059, Note_off_c, 0, 50, 64
2, 34069, Control_c, 0, 64, 127
2, 34069, Control_c, 0, 64, 127
2, 34123, Note_off_c, 0, 62, 64
2, 34123, Note_off_c, 0, 67, 64
2, 34123, Note_off_c, 0, 71, 64
2, 34152, Note_on_c, 0, 50, 54
2, 34154, Note_on_c, 0, 69, 50
2, 34154, Note_on_c, 0, 60, 58
2, 34206, Note_on_c, 0, 59, 58
2, 34208, Note_on_c, 0, 67, 66
2, 34210, Note_on_c, 0, 55, 63
2, 34216, Note_off_c, 0, 50, 64
2, 34218, Note_off_c, 0, 60, 64
2, 34218, Note_off_c, 0, 69, 64
2, 34226, Control_c, 0, 64, 0
2, 34226, Control_c, 0, 64, 0
2, 34252, Control_c, 0, 64, 127
2, 34252, Control_c, 0, 64, 127
2, 34386, Note_on_c, 0, 64, 52
2, 34386, Note_on_c, 0, 60, 58
2, 34393, Note_off_c, 0, 43, 64
2, 34393, Note_on_c, 0, 48, 51
2, 34399, Note_off_c, 0, 59, 64
2, 34401, Note_off_c, 0, 67, 64
2, 34416, Control_c, 0, 64, 0
2, 34416, Control_c, 0, 64, 0
2, 34438, Control_c, 0, 64, 127
2, 34438, Control_c, 0, 64, 127
2, 34550, Note_on_c, 0, 62, 51
2, 34552, Note_on_c, 0, 59, 54
2, 34553, Control_c, 0, 64, 127
2, 34553, Control_c, 0, 64, 127
2, 34555, Note_on_c, 0, 67, 58
2, 34561, Note_on_c, 0, 43, 62
2, 34565, Note_off_c, 0, 64, 64
2, 34570, Control_c, 0, 64, 0
2, 34570, Control_c, 0, 64, 0
2, 34576, Note_off_c, 0, 60, 64
2, 34584, Note_off_c, 0, 48, 64
2, 34608, Control_c, 0, 64, 127
2, 34608, Control_c, 0, 64, 127
2, 34673, Note_off_c, 0, 55, 64
2, 34735, Note_on_c, 0, 64, 57
2, 34735, Note_on_c, 0, 60, 58
2, 34735, Note_on_c, 0, 55, 50
2, 34735, Note_on_c, 0, 48, 56
2, 34755, Control_c, 0, 64, 0
2, 34755, Control_c, 0, 64, 0
2, 34757, Note_off_c, 0, 62, 64
2, 34759, Note_off_c, 0, 59, 64
2, 34762, Note_off_c, 0, 67, 64
2, 34768, Note_off_c, 0, 43, 64
2, 34801, Control_c, 0, 64, 127
2, 34801, Control_c, 0, 64, 127
2, 34918, Note_on_c, 0, 45, 54
2, 35052, Note_off_c, 0, 48, 64
2, 35052, Note_off_c, 0, 55, 64
2, 35052, Note_off_c, 0, 60, 64
2, 35052, Note_off_c, 0, 64, 64
2, 35077, Control_c, 0, 64, 0
2, 35077, Control_c, 0, 64, 0
2, 35093, Note_on_c, 0, 62, 58
2, 35093, Note_on_c, 0, 60, 62
2, 35093, Note_on_c, 0, 38, 63
2, 35094, Note_on_c, 0, 54, 67
2, 35106, Note_off_c, 0, 45, 64
2, 35120, Control_c, 0, 64, 127
2, 35120, Control_c, 0, 64, 127
2, 35151, Note_off_c, 0, 38, 64
2, 35151, Note_off_c, 0, 60, 64
2, 35151, Note_off_c, 0, 62, 64
2, 35152, Note_off_c, 0, 54, 64
2, 35266, Note_on_c, 0, 50, 47
2, 35270, Note_on_c, 0, 57, 49
2, 35273, Note_on_c, 0, 60, 54
2, 35277, Note_on_c, 0, 66, 58
2, 35358, Note_on_c, 0, 64, 54
2, 35358, Note_on_c, 0, 55, 52
2, 35375, Note_off_c, 0, 57, 64
2, 35382, Note_off_c, 0, 66, 64
2, 35442, Note_on_c, 0, 54, 50
2, 35444, Note_on_c, 0, 62, 67
2, 35454, Note_off_c, 0, 55, 64
2, 35454, Note_off_c, 0, 64, 64
2, 35465, Note_off_c, 0, 50, 64
2, 35511, Note_on_c, 0, 66, 63
2, 35514, Note_on_c, 0, 57, 59
2, 35556, Note_off_c, 0, 54, 64
2, 35558, Note_off_c, 0, 62, 64
2, 35587, Note_on_c, 0, 69, 52
2, 35590, Note_on_c, 0, 50, 63
2, 35602, Control_c, 0, 64, 0
2, 35602, Control_c, 0, 64, 0
2, 35607, Note_off_c, 0, 66, 64
2, 35610, Note_off_c, 0, 57, 64
2, 35616, Control_c, 0, 64, 127
2, 35616, Control_c, 0, 64, 127
2, 35658, Note_off_c, 0, 69, 64
2, 35694, Note_on_c, 0, 71, 51
2, 35730, Note_off_c, 0, 60, 64
2, 35750, Note_on_c, 0, 62, 63
2, 35751, Note_on_c, 0, 72, 64
2, 35751, Note_on_c, 0, 66, 64
2, 35757, Note_on_c, 0, 60, 59
2, 35761, Note_off_c, 0, 71, 64
2, 35772, Control_c, 0, 64, 0
2, 35772, Control_c, 0, 64, 0
2, 35823, Control_c, 0, 64, 127
2, 35823, Control_c, 0, 64, 127
2, 36067, Note_off_c, 0, 62, 64
2, 36068, Note_off_c, 0, 66, 64
2, 36068, Note_off_c, 0, 72, 64
2, 36074, Note_off_c, 0, 60, 64
2, 36088, Note_off_c, 0, 50, 64
2, 36091, Control_c, 0, 64, 127
2, 36091, Control_c, 0, 64, 127
2, 36094, Note_on_c, 0, 67, 54
2, 36095, Note_on_c, 0, 62, 57
2, 36095, Note_on_c, 0, 43, 64
2, 36097, Note_on_c, 0, 71, 58
2, 36100, Control_c, 0, 64, 0
2, 36100, Control_c, 0, 64, 0
2, 36119, Control_c, 0, 64, 127
2, 36119, Control_c, 0, 64, 127
2, 36182, Note_off_c, 0, 67, 64
2, 36183, Note_off_c, 0, 62, 64
2, 36185, Note_off_c, 0, 71, 64
2, 36199, Note_on_c, 0, 69, 54
2, 36199, Note_on_c, 0, 50, 57
2, 36202, Note_on_c, 0, 60, 62
2, 36211, Control_c, 0, 64, 127
2, 36211, Control_c, 0, 64, 127
2, 36258, Note_on_c, 0, 59, 62
2, 36259, Note_on_c, 0, 55, 64
2, 36262, Note_on_c, 0, 67, 66
2, 36267, Note_off_c, 0, 50, 64
2, 36267, Note_off_c, 0, 69, 64
2, 36267, Control_c, 0, 64, 0
2, 36267, Control_c, 0, 64, 0
2, 36270, Note_off_c, 0, 60, 64
2, 36303, Control_c, 0, 64, 127
2, 36303, Control_c, 0, 64, 127
2, 36421, Note_off_c, 0, 43, 64
2, 36437, Note_off_c, 0, 59, 64
2, 36438, Note_on_c, 0, 43, 62
2, 36442, Note_on_c, 0, 71, 62
2, 36443, Note_on_c, 0, 62, 64
2, 36445, Note_on_c, 0, 59, 62
2, 36451, Control_c, 0, 64, 0
2, 36451, Control_c, 0, 64, 0
2, 36461, Note_off_c, 0, 67, 64
2, 36487, Control_c, 0, 64, 127
2, 36487, Control_c, 0, 64, 127
2, 36547, Note_on_c, 0, 65, 63
2, 36621, Note_off_c, 0, 59, 64
2, 36633, Note_on_c, 0, 76, 66
2, 36640, Note_off_c, 0, 71, 64
2, 36641, Note_off_c, 0, 62, 64
2, 36644, Note_on_c, 0, 59, 51
2, 36655, Note_off_c, 0, 55, 64
2, 36660, Control_c, 0, 64, 0
2, 36660, Control_c, 0, 64, 0
2, 36691, Control_c, 0, 64, 127
2, 36691, Control_c, 0, 64, 127
2, 36964, Control_c, 0, 64, 127
2, 36964, Control_c, 0, 64, 127
2, 37053, Note_off_c, 0, 65, 64
2, 37068, Note_on_c, 0, 74, 39
2, 37069, Note_on_c, 0, 71, 43
2, 37069, Note_on_c, 0, 44, 50
2, 37072, Note_on_c, 0, 65, 39
2, 37077, Note_off_c, 0, 43, 64
2, 37086, Note_off_c, 0, 76, 64
2, 37205, Note_on_c, 0, 64, 51
2, 37219, Note_off_c, 0, 65, 64
2, 37231, Note_off_c, 0, 74, 64
2, 37232, Note_off_c, 0, 71, 64
2, 37234, Note_on_c, 0, 69, 44
2, 37254, Note_on_c, 0, 74, 49
2, 37262, Note_off_c, 0, 59, 64
2, 37274, Note_on_c, 0, 45, 44
2, 37282, Note_on_c, 0, 72, 60
2, 37285, Note_off_c, 0, 44, 64
2, 37288, Control_c, 0, 64, 0
2, 37288, Control_c, 0, 64, 0
2, 37299, Control_c, 0, 64, 127
2, 37299, Control_c, 0, 64, 127
2, 37306, Note_off_c, 0, 74, 64
2, 37408, Note_on_c, 0, 62, 55
2, 37412, Note_on_c, 0, 71, 55
2, 37412, Note_on_c, 0, 65, 44
2, 37412, Note_on_c, 0, 47, 49
2, 37422, Note_off_c, 0, 69, 64
2, 37425, Note_off_c, 0, 72, 64
2, 37430, Note_off_c, 0, 64, 64
2, 37432, Note_off_c, 0, 45, 64
2, 37464, Note_on_c, 0, 48, 49
2, 37466, Note_off_c, 0, 62, 64
2, 37468, Note_on_c, 0, 69, 57
2, 37468, Note_on_c, 0, 64, 55
2, 37470, Note_off_c, 0, 47, 64
2, 37470, Note_off_c, 0, 65, 64
2, 37470, Note_off_c, 0, 71, 64
2, 37488, Control_c, 0, 64, 0
2, 37488, Control_c, 0, 64, 0
2, 37519, Control_c, 0, 64, 127
2, 37519, Control_c, 0, 64, 127
2, 37657, Note_off_c, 0, 69, 64
2, 37660, Note_off_c, 0, 64, 64
2, 37662, Note_on_c, 0, 50, 47
2, 37667, Note_on_c, 0, 62, 54
2, 37670, Note_on_c, 0, 71, 51
2, 37670, Note_on_c, 0, 65, 54
2, 37672, Note_off_c, 0, 48, 64
2, 37678, Control_c, 0, 64, 0
2, 37678, Control_c, 0, 64, 0
2, 37689, Control_c, 0, 64, 127
2, 37689, Control_c, 0, 64, 127
2, 37848, Control_c, 0, 64, 0
2, 37848, Control_c, 0, 64, 0
2, 37855, Note_on_c, 0, 69, 46
2, 37855, Note_on_c, 0, 64, 49
2, 37859, Note_on_c, 0, 60, 51
2, 37863, Note_on_c, 0, 52, 49
2, 37873, Note_off_c, 0, 62, 64
2, 37874, Note_off_c, 0, 50, 64
2, 37876, Note_off_c, 0, 65, 64
2, 37876, Note_off_c, 0, 71, 64
2, 37880, Control_c, 0, 64, 127
2, 37880, Control_c, 0, 64, 127
2, 37972, Note_on_c, 0, 68, 44
2, 37972, Note_on_c, 0, 59, 51
2, 37994, Note_off_c, 0, 69, 64
2, 37998, Note_off_c, 0, 60, 64
2, 38025, Note_on_c, 0, 40, 49
2, 38029, Note_on_c, 0, 71, 49
2, 38032, Note_on_c, 0, 62, 54
2, 38038, Note_off_c, 0, 59, 64
2, 38038, Note_off_c, 0, 68, 64
2, 38041, Control_c, 0, 64, 0
2, 38041, Control_c, 0, 64, 0
2, 38081, Control_c, 0, 64, 127
2, 38081, Control_c, 0, 64, 127
2, 38218, Note_on_c, 0, 45, 49
2, 38221, Note_on_c, 0, 69, 49
2, 38222, Note_on_c, 0, 60, 58
2, 38225, Note_off_c, 0, 40, 64
2, 38228, Control_c, 0, 64, 0
2, 38228, Control_c, 0, 64, 0
2, 38229, Note_off_c, 0, 71, 64
2, 38232, Note_off_c, 0, 62, 64
2, 38250, Control_c, 0, 64, 127
2, 38250, Control_c, 0, 64, 127
2, 38270, Note_off_c, 0, 52, 64
2, 38369, Note_off_c, 0, 64, 64
2, 38370, Note_off_c, 0, 45, 64
2, 38373, Note_off_c, 0, 69, 64
2, 38374, Note_off_c, 0, 60, 64
2, 38420, Note_on_c, 0, 71, 49
2, 38420, Note_on_c, 0, 50, 50
2, 38424, Note_on_c, 0, 66, 49
2, 38424, Note_on_c, 0, 62, 49
2, 38436, Control_c, 0, 64, 0
2, 38436, Control_c, 0, 64, 0
2, 38460, Control_c, 0, 64, 127
2, 38460, Control_c, 0, 64, 127
2, 38556, Note_on_c, 0, 69, 41
2, 38556, Note_on_c, 0, 60, 49
2, 38575, Note_off_c, 0, 71, 64
2, 38579, Note_off_c, 0, 62, 64
2, 38591, Note_off_c, 0, 66, 64
2, 38593, Control_c, 0, 64, 0
2, 38593, Control_c, 0, 64, 0
2, 38601, Note_off_c, 0, 50, 64
2, 38606, Note_on_c, 0, 67, 50
2, 38606, Note_on_c, 0, 55, 36
2, 38608, Note_on_c, 0, 59, 49
2, 38612, Control_c, 0, 64, 0
2, 38612, Control_c, 0, 64, 0
2, 38614, Note_off_c, 0, 60, 64
2, 38614, Note_off_c, 0, 69, 64
2, 38642, Control_c, 0, 64, 127
2, 38642, Control_c, 0, 64, 127
2, 38784, Note_on_c, 0, 64, 49
2, 38785, Note_on_c, 0, 69, 50
2, 38788, Note_on_c, 0, 60, 23
2, 38788, Note_on_c, 0, 48, 46
2, 38799, Note_off_c, 0, 55, 64
2, 38799, Note_off_c, 0, 67, 64
2, 38801, Note_off_c, 0, 59, 64
2, 38809, Control_c, 0, 64, 0
2, 38809, Control_c, 0, 64, 0
2, 38840, Control_c, 0, 64, 127
2, 38840, Control_c, 0, 64, 127
2, 38975, Note_off_c, 0, 48, 64
2, 38975, Note_on_c, 0, 67, 46
2, 38975, Note_on_c, 0, 62, 47
2, 38975, Note_on_c, 0, 50, 44
2, 38976, Note_on_c, 0, 59, 51
2, 38979, Note_off_c, 0, 64, 64
2, 38980, Note_off_c, 0, 69, 64
2, 38983, Note_off_c, 0, 60, 64
2, 38990, Control_c, 0, 64, 0
2, 38990, Control_c, 0, 64, 0
2, 39003, Control_c, 0, 64, 127
2, 39003, Control_c, 0, 64, 127
2, 39112, Note_on_c, 0, 66, 48
2, 39112, Note_on_c, 0, 57, 51
2, 39133, Note_off_c, 0, 62, 64
2, 39133, Note_off_c, 0, 67, 64
2, 39134, Note_off_c, 0, 59, 64
2, 39148, Note_on_c, 0, 38, 49
2, 39155, Note_on_c, 0, 69, 51
2, 39156, Note_on_c, 0, 60, 58
2, 39174, Control_c, 0, 64, 0
2, 39174, Control_c, 0, 64, 0
2, 39178, Note_off_c, 0, 57, 64
2, 39178, Note_off_c, 0, 66, 64
2, 39202, Control_c, 0, 64, 127
2, 39202, Control_c, 0, 64, 127
2, 39344, Note_on_c, 0, 67, 48
2, 39345, Control_c, 0, 64, 0
2, 39345, Control_c, 0, 64, 0
2, 39350, Note_on_c, 0, 59, 49
2, 39352, Note_on_c, 0, 43, 49
2, 39356, Note_off_c, 0, 38, 64
2, 39358, Note_off_c, 0, 69, 64
2, 39359, Note_off_c, 0, 60, 64
2, 39381, Control_c, 0, 64, 127
2, 39381, Control_c, 0, 64, 127
2, 39405, Note_off_c, 0, 50, 64
2, 39464, Note_off_c, 0, 67, 64
2, 39470, Note_off_c, 0, 59, 64
2, 39472, Note_off_c, 0, 43, 64
2, 39584, Note_on_c, 0, 43, 33
2, 39592, Note_on_c, 0, 63, 39
2, 39592, Note_on_c, 0, 58, 39
2, 39592, Note_on_c, 0, 51, 32
2, 39645, Control_c, 0, 64, 0
2, 39645, Control_c, 0, 64, 0
2, 39674, Control_c, 0, 64, 127
2, 39674, Control_c, 0, 64, 127
2, 39678, Note_off_c, 0, 51, 64
2, 39694, Note_off_c, 0, 63, 64
2, 39807, Note_on_c, 0, 63, 50
2, 39808, Note_on_c, 0, 51, 39
2, 39889, Note_off_c, 0, 63, 64
2, 39896, Note_off_c, 0, 51, 64
2, 39996, Note_on_c, 0, 51, 55
2, 39997, Note_on_c, 0, 63, 58
2, 40004, Control_c, 0, 64, 0
2, 40004, Control_c, 0, 64, 0
2, 40017, Control_c, 0, 64, 127
2, 40017, Control_c, 0, 64, 127
2, 40063, Note_off_c, 0, 63, 64
2, 40073, Note_off_c, 0, 51, 64
2, 40109, Note_off_c, 0, 43, 64
2, 40117, Note_off_c, 0, 58, 64
2, 40184, Note_on_c, 0, 51, 58
2, 40188, Note_on_c, 0, 63, 62
2, 40188, Note_on_c, 0, 43, 50
2, 40192, Note_on_c, 0, 59, 58
2, 40203, Control_c, 0, 64, 0
2, 40203, Control_c, 0, 64, 0
2, 40232, Control_c, 0, 64, 127
2, 40232, Control_c, 0, 64, 127
2, 40300, Note_on_c, 0, 62, 51
2, 40302, Note_on_c, 0, 50, 47
2, 40313, Note_off_c, 0, 51, 64
2, 40317, Note_off_c, 0, 63, 64
2, 40358, Note_on_c, 0, 49, 54
2, 40361, Note_on_c, 0, 61, 55
2, 40371, Control_c, 0, 64, 0
2, 40371, Control_c, 0, 64, 0
2, 40379, Note_off_c, 0, 62, 64
2, 40381, Note_off_c, 0, 50, 64
2, 40539, Control_c, 0, 64, 127
2, 40539, Control_c, 0, 64, 127
2, 40540, Note_on_c, 0, 50, 49
2, 40547, Note_on_c, 0, 62, 48
2, 40552, Note_off_c, 0, 49, 64
2, 40555, Note_off_c, 0, 61, 64
2, 40586, Note_off_c, 0, 59, 64
2, 40660, Note_off_c, 0, 43, 64
2, 40673, Note_off_c, 0, 50, 64
2, 40680, Note_off_c, 0, 62, 64
2, 40727, Note_on_c, 0, 51, 49
2, 40728, Note_on_c, 0, 43, 50
2, 40730, Note_on_c, 0, 63, 50
2, 40730, Note_on_c, 0, 58, 58
2, 40739, Control_c, 0, 64, 0
2, 40739, Control_c, 0, 64, 0
2, 40769, Control_c, 0, 64, 127
2, 40769, Control_c, 0, 64, 127
2, 40856, Note_on_c, 0, 65, 54
2, 40856, Note_on_c, 0, 53, 49
2, 40864, Note_off_c, 0, 58, 64
2, 40867, Note_off_c, 0, 43, 64
2, 40877, Note_off_c, 0, 51, 64
2, 40880, Note_off_c, 0, 63, 64
2, 40900, Note_on_c, 0, 43, 55
2, 40908, Note_on_c, 0, 58, 71
2, 40909, Note_on_c, 0, 67, 59
2, 40911, Note_on_c, 0, 55, 64
2, 40922, Control_c, 0, 64, 0
2, 40922, Control_c, 0, 64, 0
2, 40927, Note_off_c, 0, 53, 64
2, 40927, Note_off_c, 0, 65, 64
2, 40929, Control_c, 0, 64, 127
2, 40929, Control_c, 0, 64, 127
2, 40936, Control_c, 0, 64, 127
2, 40936, Control_c, 0, 64, 127
2, 41039, Note_off_c, 0, 43, 64
2, 41081, Note_off_c, 0, 67, 64
2, 41081, Note_off_c, 0, 58, 64
2, 41084, Note_off_c, 0, 55, 64
2, 41096, Note_on_c, 0, 58, 72
2, 41096, Note_on_c, 0, 43, 37
2, 41097, Note_on_c, 0, 65, 62
2, 41100, Note_on_c, 0, 53, 64
2, 41100, Control_c, 0, 64, 0
2, 41100, Control_c, 0, 64, 0
2, 41117, Control_c, 0, 64, 127
2, 41117, Control_c, 0, 64, 127
2, 41204, Note_on_c, 0, 63, 64
2, 41212, Note_on_c, 0, 51, 62
2, 41221, Note_off_c, 0, 58, 64
2, 41222, Note_off_c, 0, 65, 64
2, 41225, Note_off_c, 0, 53, 64
2, 41235, Note_off_c, 0, 63, 64
2, 41235, Note_off_c, 0, 43, 64
2, 41242, Note_off_c, 0, 51, 64
2, 41264, Note_on_c, 0, 59, 62
2, 41268, Note_on_c, 0, 63, 71
2, 41270, Note_on_c, 0, 51, 67
2, 41274, Note_on_c, 0, 43, 64
2, 41274, Control_c, 0, 64, 0
2, 41274, Control_c, 0, 64, 0
2, 41305, Control_c, 0, 64, 127
2, 41305, Control_c, 0, 64, 127
2, 41396, Note_on_c, 0, 62, 67
2, 41400, Note_on_c, 0, 50, 57
2, 41406, Note_off_c, 0, 63, 64
2, 41408, Note_off_c, 0, 51, 64
2, 41439, Control_c, 0, 64, 0
2, 41439, Control_c, 0, 64, 0
2, 41453, Note_on_c, 0, 61, 65
2, 41458, Note_on_c, 0, 49, 57
2, 41466, Note_off_c, 0, 62, 64
2, 41470, Note_off_c, 0, 50, 64
2, 41619, Control_c, 0, 64, 127
2, 41619, Control_c, 0, 64, 127
2, 41637, Note_on_c, 0, 62, 57
2, 41646, Note_on_c, 0, 50, 58
2, 41650, Note_off_c, 0, 61, 64
2, 41655, Note_off_c, 0, 49, 64
2, 41664, Note_off_c, 0, 59, 64
2, 41818, Note_off_c, 0, 50, 64
2, 41823, Note_off_c, 0, 62, 64
2, 41832, Note_off_c, 0, 43, 64
2, 41838, Note_on_c, 0, 38, 58
2, 41858, Control_c, 0, 64, 0
2, 41858, Control_c, 0, 64, 0
2, 41868, Note_on_c, 0, 65, 58
2, 41870, Note_on_c, 0, 68, 41
2, 41872, Note_on_c, 0, 59, 58
2, 41876, Note_on_c, 0, 50, 63
2, 41886, Control_c, 0, 64, 127
2, 41886, Control_c, 0, 64, 127
2, 41943, Note_off_c, 0, 38, 64
2, 41964, Note_off_c, 0, 65, 64
2, 41966, Note_off_c, 0, 68, 64
2, 41968, Note_off_c, 0, 59, 64
2, 41984, Note_on_c, 0, 60, 55
2, 41988, Note_on_c, 0, 66, 58
2, 41989, Note_on_c, 0, 69, 54
2, 42036, Note_on_c, 0, 56, 58
2, 42044, Note_on_c, 0, 62, 42
2, 42047, Note_on_c, 0, 65, 64
2, 42048, Note_on_c, 0, 71, 66
2, 42059, Control_c, 0, 64, 0
2, 42059, Control_c, 0, 64, 0
2, 42061, Note_off_c, 0, 60, 64
2, 42065, Note_off_c, 0, 66, 64
2, 42066, Note_off_c, 0, 69, 64
2, 42081, Control_c, 0, 64, 127
2, 42081, Control_c, 0, 64, 127
2, 42212, Control_c, 0, 64, 0
2, 42212, Control_c, 0, 64, 0
2, 42216, Note_on_c, 0, 66, 65
2, 42216, Note_on_c, 0, 57, 58
2, 42218, Note_on_c, 0, 72, 58
2, 42230, Control_c, 0, 64, 127
2, 42230, Control_c, 0, 64, 127
2, 42232, Note_off_c, 0, 65, 64
2, 42233, Note_off_c, 0, 71, 64
2, 42244, Note_off_c, 0, 56, 64
2, 42407, Note_on_c, 0, 73, 64
2, 42407, Note_on_c, 0, 67, 58
2, 42408, Note_on_c, 0, 55, 44
2, 42411, Note_on_c, 0, 58, 58
2, 42412, Note_off_c, 0, 62, 64
2, 42413, Note_off_c, 0, 57, 64
2, 42413, Note_off_c, 0, 66, 64
2, 42415, Note_off_c, 0, 72, 64
2, 42417, Note_off_c, 0, 50, 64
2, 42521, Note_on_c, 0, 74, 60
2, 42521, Note_on_c, 0, 59, 52
2, 42540, Note_off_c, 0, 73, 64
2, 42544, Note_off_c, 0, 58, 64
2, 42572, Note_on_c, 0, 71, 58
2, 42572, Note_on_c, 0, 62, 65
2, 42573, Note_on_c, 0, 79, 65
2, 42580, Note_off_c, 0, 67, 64
2, 42587, Note_off_c, 0, 59, 64
2, 42587, Note_off_c, 0, 74, 64
2, 42588, Control_c, 0, 64, 0
2, 42588, Control_c, 0, 64, 0
2, 42601, Note_off_c, 0, 55, 64
2, 42639, Control_c, 0, 64, 127
2, 42639, Control_c, 0, 64, 127
2, 42745, Note_on_c, 0, 55, 54
2, 42793, Note_off_c, 0, 71, 64
2, 42812, Note_off_c, 0, 79, 64
2, 42812, Note_on_c, 0, 67, 51
2, 42814, Note_on_c, 0, 71, 35
2, 42852, Note_on_c, 0, 72, 58
2, 42858, Note_off_c, 0, 67, 64
2, 42860, Note_off_c, 0, 71, 64
2, 42884, Note_on_c, 0, 71, 66
2, 42907, Note_off_c, 0, 72, 64
2, 42924, Note_on_c, 0, 65, 58
2, 42924, Note_on_c, 0, 59, 64
2, 42925, Note_on_c, 0, 68, 73
2, 42931, Note_on_c, 0, 50, 39
2, 42934, Note_off_c, 0, 55, 64
2, 42937, Note_off_c, 0, 71, 64
2, 42937, Control_c, 0, 64, 0
2, 42937, Control_c, 0, 64, 0
2, 42962, Control_c, 0, 64, 127
2, 42962, Control_c, 0, 64, 127
2, 43024, Note_off_c, 0, 59, 64
2, 43024, Note_off_c, 0, 65, 64
2, 43025, Note_off_c, 0, 68, 64
2, 43048, Note_on_c, 0, 69, 55
2, 43052, Note_on_c, 0, 66, 54
2, 43052, Note_on_c, 0, 60, 59
2, 43081, Note_off_c, 0, 66, 64
2, 43088, Note_on_c, 0, 56, 69
2, 43092, Note_on_c, 0, 65, 65
2, 43094, Note_on_c, 0, 71, 67
2, 43098, Note_off_c, 0, 69, 64
2, 43102, Note_off_c, 0, 60, 64
2, 43110, Control_c, 0, 64, 0
2, 43110, Control_c, 0, 64, 0
2, 43140, Control_c, 0, 64, 127
2, 43140, Control_c, 0, 64, 127
2, 43276, Note_on_c, 0, 66, 70
2, 43279, Note_on_c, 0, 72, 78
2, 43284, Note_on_c, 0, 57, 70
2, 43292, Note_off_c, 0, 56, 64
2, 43296, Note_off_c, 0, 65, 64
2, 43298, Note_off_c, 0, 71, 64
2, 43300, Note_off_c, 0, 50, 64
2, 43448, Note_on_c, 0, 76, 64
2, 43450, Note_on_c, 0, 70, 66
2, 43452, Note_off_c, 0, 62, 64
2, 43452, Note_on_c, 0, 55, 64
2, 43454, Note_on_c, 0, 61, 60
2, 43463, Note_off_c, 0, 66, 64
2, 43466, Note_off_c, 0, 72, 64
2, 43471, Note_off_c, 0, 57, 64
2, 43548, Note_on_c, 0, 74, 62
2, 43548, Note_on_c, 0, 71, 62
2, 43555, Note_on_c, 0, 62, 55
2, 43571, Note_off_c, 0, 76, 64
2, 43573, Note_off_c, 0, 70, 64
2, 43577, Note_off_c, 0, 61, 64
2, 43586, Note_off_c, 0, 71, 64
2, 43588, Note_on_c, 0, 71, 65
2, 43634, Note_on_c, 0, 67, 46
2, 43640, Note_on_c, 0, 83, 75
2, 43651, Note_off_c, 0, 74, 64
2, 43654, Control_c, 0, 64, 0
2, 43654, Control_c, 0, 64, 0
2, 43658, Note_off_c, 0, 62, 64
2, 43693, Control_c, 0, 64, 127
2, 43693, Control_c, 0, 64, 127
2, 43784, Note_off_c, 0, 71, 64
2, 43805, Note_off_c, 0, 67, 64
2, 43807, Note_on_c, 0, 79, 74
2, 43818, Note_off_c, 0, 83, 64
2, 43822, Note_off_c, 0, 55, 64
2, 43857, Note_on_c, 0, 74, 71
2, 43878, Note_off_c, 0, 79, 64
2, 43904, Note_on_c, 0, 71, 71
2, 43925, Note_off_c, 0, 74, 64
2, 43949, Note_on_c, 0, 67, 78
2, 43966, Note_off_c, 0, 71, 64
2, 44012, Note_on_c, 0, 63, 65
2, 44015, Note_on_c, 0, 75, 67
2, 44018, Note_on_c, 0, 70, 55
2, 44022, Note_on_c, 0, 51, 56
2, 44022, Note_on_c, 0, 43, 55
2, 44031, Note_off_c, 0, 67, 64
2, 44034, Control_c, 0, 64, 0
2, 44034, Control_c, 0, 64, 0
2, 44063, Control_c, 0, 64, 127
2, 44063, Control_c, 0, 64, 127
2, 44153, Note_off_c, 0, 63, 64
2, 44156, Note_off_c, 0, 75, 64
2, 44163, Note_off_c, 0, 51, 64
2, 44233, Note_on_c, 0, 75, 56
2, 44237, Note_on_c, 0, 63, 62
2, 44240, Note_on_c, 0, 51, 58
2, 44360, Note_off_c, 0, 75, 64
2, 44364, Note_off_c, 0, 63, 64
2, 44367, Note_off_c, 0, 51, 64
2, 44421, Note_on_c, 0, 63, 64
2, 44425, Note_on_c, 0, 51, 62
2, 44429, Note_on_c, 0, 75, 65
2, 44515, Note_off_c, 0, 70, 64
2, 44519, Note_off_c, 0, 43, 64
2, 44546, Note_off_c, 0, 63, 64
2, 44550, Note_off_c, 0, 51, 64
2, 44554, Note_off_c, 0, 75, 64
2, 44593, Note_on_c, 0, 63, 58
2, 44596, Note_on_c, 0, 51, 56
2, 44600, Note_on_c, 0, 75, 62
2, 44600, Note_on_c, 0, 71, 78
2, 44604, Note_on_c, 0, 43, 51
2, 44613, Control_c, 0, 64, 0
2, 44613, Control_c, 0, 64, 0
2, 44623, Control_c, 0, 64, 127
2, 44623, Control_c, 0, 64, 127
2, 44712, Note_on_c, 0, 74, 58
2, 44716, Note_on_c, 0, 62, 56
2, 44721, Note_on_c, 0, 50, 56
2, 44728, Note_off_c, 0, 63, 64
2, 44731, Note_off_c, 0, 51, 64
2, 44735, Note_off_c, 0, 75, 64
2, 44763, Control_c, 0, 64, 0
2, 44763, Control_c, 0, 64, 0
2, 44769, Note_on_c, 0, 73, 63
2, 44773, Note_on_c, 0, 61, 62
2, 44776, Note_on_c, 0, 49, 58
2, 44787, Note_off_c, 0, 74, 64
2, 44791, Note_off_c, 0, 62, 64
2, 44796, Note_off_c, 0, 50, 64
2, 44802, Control_c, 0, 64, 127
2, 44802, Control_c, 0, 64, 127
2, 44950, Control_c, 0, 64, 0
2, 44950, Control_c, 0, 64, 0
2, 44958, Note_on_c, 0, 74, 58
2, 44958, Note_on_c, 0, 62, 63
2, 44963, Note_on_c, 0, 50, 58
2, 44965, Note_off_c, 0, 73, 64
2, 44969, Note_off_c, 0, 61, 64
2, 44972, Note_off_c, 0, 49, 64
2, 44980, Control_c, 0, 64, 127
2, 44980, Control_c, 0, 64, 127
2, 45086, Note_off_c, 0, 71, 64
2, 45090, Note_off_c, 0, 43, 64
2, 45112, Note_off_c, 0, 62, 64
2, 45112, Note_off_c, 0, 74, 64
2, 45117, Note_off_c, 0, 50, 64
2, 45131, Control_c, 0, 64, 0
2, 45131, Control_c, 0, 64, 0
2, 45136, Note_on_c, 0, 63, 58
2, 45137, Note_on_c, 0, 75, 55
2, 45144, Note_on_c, 0, 43, 51
2, 45146, Note_on_c, 0, 70, 64
2, 45147, Note_on_c, 0, 51, 56
2, 45162, Control_c, 0, 64, 127
2, 45162, Control_c, 0, 64, 127
2, 45249, Note_on_c, 0, 53, 51
2, 45251, Note_off_c, 0, 63, 64
2, 45252, Note_off_c, 0, 75, 64
2, 45254, Note_on_c, 0, 77, 52
2, 45254, Note_on_c, 0, 65, 58
2, 45262, Note_off_c, 0, 51, 64
2, 45283, Note_off_c, 0, 70, 64
2, 45311, Note_on_c, 0, 55, 58
2, 45311, Control_c, 0, 64, 0
2, 45311, Control_c, 0, 64, 0
2, 45312, Note_on_c, 0, 70, 78
2, 45312, Note_on_c, 0, 67, 58
2, 45320, Note_on_c, 0, 79, 63
2, 45322, Note_off_c, 0, 53, 64
2, 45327, Note_off_c, 0, 65, 64
2, 45327, Note_off_c, 0, 77, 64
2, 45332, Control_c, 0, 64, 127
2, 45332, Control_c, 0, 64, 127
2, 45449, Note_off_c, 0, 70, 64
2, 45484, Control_c, 0, 64, 127
2, 45484, Control_c, 0, 64, 127
2, 45492, Note_on_c, 0, 70, 78
2, 45493, Note_on_c, 0, 77, 58
2, 45494, Note_on_c, 0, 65, 58
2, 45500, Note_on_c, 0, 53, 52
2, 45508, Note_off_c, 0, 55, 64
2, 45509, Note_off_c, 0, 67, 64
2, 45517, Note_off_c, 0, 79, 64
2, 45620, Note_on_c, 0, 51, 56
2, 45623, Note_on_c, 0, 63, 59
2, 45624, Note_on_c, 0, 75, 51
2, 45628, Note_off_c, 0, 77, 64
2, 45629, Note_off_c, 0, 65, 64
2, 45629, Note_off_c, 0, 70, 64
2, 45632, Note_off_c, 0, 43, 64
2, 45635, Note_off_c, 0, 53, 64
2, 45651, Note_off_c, 0, 51, 64
2, 45654, Note_off_c, 0, 63, 64
2, 45655, Note_off_c, 0, 75, 64
2, 45661, Control_c, 0, 64, 0
2, 45661, Control_c, 0, 64, 0
2, 45667, Note_on_c, 0, 75, 55
2, 45668, Note_on_c, 0, 71, 75
2, 45671, Control_c, 0, 64, 127
2, 45671, Control_c, 0, 64, 127
2, 45672, Note_on_c, 0, 51, 57
2, 45672, Note_on_c, 0, 43, 51
2, 45673, Note_on_c, 0, 63, 58
2, 45690, Control_c, 0, 64, 0
2, 45690, Control_c, 0, 64, 0
2, 45712, Control_c, 0, 64, 127
2, 45712, Control_c, 0, 64, 127
2, 45812, Note_on_c, 0, 74, 58
2, 45816, Note_on_c, 0, 50, 49
2, 45820, Note_on_c, 0, 62, 51
2, 45823, Note_off_c, 0, 75, 64
2, 45828, Note_off_c, 0, 51, 64
2, 45829, Note_off_c, 0, 63, 64
2, 45862, Note_on_c, 0, 73, 59
2, 45864, Note_on_c, 0, 49, 57
2, 45865, Note_on_c, 0, 61, 54
2, 45872, Control_c, 0, 64, 0
2, 45872, Control_c, 0, 64, 0
2, 45887, Control_c, 0, 64, 127
2, 45887, Control_c, 0, 64, 127
2, 45895, Note_off_c, 0, 74, 64
2, 45899, Note_off_c, 0, 50, 64
2, 45903, Note_off_c, 0, 62, 64
2, 46077, Note_on_c, 0, 62, 50
2, 46079, Note_on_c, 0, 74, 52
2, 46085, Note_on_c, 0, 50, 49
2, 46087, Note_off_c, 0, 73, 64
2, 46089, Note_off_c, 0, 49, 64
2, 46090, Note_off_c, 0, 61, 64
2, 46098, Control_c, 0, 64, 0
2, 46098, Control_c, 0, 64, 0
2, 46118, Control_c, 0, 64, 127
2, 46118, Control_c, 0, 64, 127
2, 46210, Control_c, 0, 64, 0
2, 46210, Control_c, 0, 64, 0
2, 46226, Control_c, 0, 64, 127
2, 46226, Control_c, 0, 64, 127
2, 46277, Note_off_c, 0, 71, 64
2, 46281, Note_off_c, 0, 43, 64
2, 46303, Note_off_c, 0, 62, 64
2, 46305, Note_off_c, 0, 74, 64
2, 46311, Note_off_c, 0, 50, 64
2, 46340, Control_c, 0, 64, 127
2, 46340, Control_c, 0, 64, 127
2, 46344, Note_on_c, 0, 65, 49
2, 46348, Note_on_c, 0, 38, 52
2, 46349, Note_on_c, 0, 68, 49
2, 46351, Note_on_c, 0, 59, 51
2, 46360, Note_on_c, 0, 50, 51
2, 46376, Control_c, 0, 64, 0
2, 46376, Control_c, 0, 64, 0
2, 46387, Control_c, 0, 64, 127
2, 46387, Control_c, 0, 64, 127
2, 46417, Note_off_c, 0, 65, 64
2, 46421, Note_off_c, 0, 38, 64
2, 46422, Note_off_c, 0, 68, 64
2, 46424, Note_off_c, 0, 59, 64
2, 46492, Note_on_c, 0, 69, 51
2, 46494, Note_on_c, 0, 60, 58
2, 46496, Note_on_c, 0, 66, 58
2, 46532, Note_on_c, 0, 65, 62
2, 46536, Note_on_c, 0, 71, 58
2, 46538, Note_on_c, 0, 56, 56
2, 46551, Note_off_c, 0, 69, 64
2, 46555, Note_off_c, 0, 60, 64
2, 46556, Note_off_c, 0, 66, 64
2, 46556, Control_c, 0, 64, 0
2, 46556, Control_c, 0, 64, 0
2, 46558, Control_c, 0, 64, 0
2, 46558, Control_c, 0, 64, 0
2, 46574, Control_c, 0, 64, 127
2, 46574, Control_c, 0, 64, 127
2, 46623, Control_c, 0, 64, 127
2, 46623, Control_c, 0, 64, 127
2, 46732, Note_on_c, 0, 66, 51
2, 46733, Note_on_c, 0, 57, 58
2, 46736, Note_on_c, 0, 72, 56
2, 46739, Note_off_c, 0, 65, 64
2, 46743, Note_off_c, 0, 71, 64
2, 46744, Control_c, 0, 64, 0
2, 46744, Control_c, 0, 64, 0
2, 46745, Note_off_c, 0, 56, 64
2, 46785, Control_c, 0, 64, 127
2, 46785, Control_c, 0, 64, 127
2, 46912, Note_on_c, 0, 73, 50
2, 46912, Note_on_c, 0, 67, 46
2, 46916, Note_on_c, 0, 58, 55
2, 46922, Control_c, 0, 64, 0
2, 46922, Control_c, 0, 64, 0
2, 46936, Note_off_c, 0, 66, 64
2, 46937, Note_off_c, 0, 57, 64
2, 46940, Note_off_c, 0, 72, 64
2, 46953, Control_c, 0, 64, 127
2, 46953, Control_c, 0, 64, 127
2, 47040, Note_on_c, 0, 70, 59
2, 47044, Note_on_c, 0, 76, 51
2, 47045, Note_on_c, 0, 61, 52
2, 47066, Note_off_c, 0, 73, 64
2, 47066, Note_off_c, 0, 67, 64
2, 47067, Note_off_c, 0, 50, 64
2, 47070, Note_off_c, 0, 58, 64
2, 47083, Control_c, 0, 64, 0
2, 47083, Control_c, 0, 64, 0
2, 47089, Note_on_c, 0, 79, 58
2, 47090, Note_on_c, 0, 73, 64
2, 47090, Note_on_c, 0, 64, 58
2, 47100, Note_off_c, 0, 70, 64
2, 47104, Note_off_c, 0, 61, 64
2, 47105, Control_c, 0, 64, 0
2, 47105, Control_c, 0, 64, 0
2, 47112, Note_off_c, 0, 76, 64
2, 47118, Control_c, 0, 64, 127
2, 47118, Control_c, 0, 64, 127
2, 47122, Control_c, 0, 64, 127
2, 47122, Control_c, 0, 64, 127
2, 47271, Note_on_c, 0, 82, 54
2, 47271, Note_on_c, 0, 67, 54
2, 47274, Note_on_c, 0, 76, 58
2, 47275, Control_c, 0, 64, 0
2, 47275, Control_c, 0, 64, 0
2, 47276, Control_c, 0, 64, 0
2, 47276, Control_c, 0, 64, 0
2, 47295, Note_off_c, 0, 79, 64
2, 47296, Note_off_c, 0, 64, 64
2, 47296, Note_off_c, 0, 73, 64
2, 47308, Control_c, 0, 64, 127
2, 47308, Control_c, 0, 64, 127
2, 47314, Control_c, 0, 64, 127
2, 47314, Control_c, 0, 64, 127
2, 47440, Note_on_c, 0, 79, 54
2, 47440, Note_on_c, 0, 73, 57
2, 47446, Control_c, 0, 64, 0
2, 47446, Control_c, 0, 64, 0
2, 47451, Note_on_c, 0, 64, 56
2, 47460, Control_c, 0, 64, 127
2, 47460, Control_c, 0, 64, 127
2, 47461, Note_off_c, 0, 67, 64
2, 47461, Note_off_c, 0, 82, 64
2, 47464, Note_off_c, 0, 76, 64
2, 47559, Note_on_c, 0, 76, 49
2, 47560, Note_on_c, 0, 70, 59
2, 47560, Note_on_c, 0, 61, 52
2, 47561, Note_off_c, 0, 73, 64
2, 47561, Note_off_c, 0, 79, 64
2, 47572, Note_off_c, 0, 64, 64
2, 47616, Note_on_c, 0, 73, 59
2, 47616, Note_on_c, 0, 67, 65
2, 47616, Note_on_c, 0, 58, 46
2, 47624, Control_c, 0, 64, 0
2, 47624, Control_c, 0, 64, 0
2, 47627, Note_off_c, 0, 76, 64
2, 47628, Note_off_c, 0, 61, 64
2, 47628, Note_off_c, 0, 70, 64
2, 47639, Control_c, 0, 64, 127
2, 47639, Control_c, 0, 64, 127
2, 47792, Note_on_c, 0, 70, 55
2, 47792, Note_on_c, 0, 64, 57
2, 47793, Control_c, 0, 64, 0
2, 47793, Control_c, 0, 64, 0
2, 47798, Note_on_c, 0, 55, 57
2, 47799, Note_off_c, 0, 58, 64
2, 47799, Note_off_c, 0, 67, 64
2, 47799, Note_off_c, 0, 73, 64
2, 47816, Control_c, 0, 64, 127
2, 47816, Control_c, 0, 64, 127
2, 47947, Note_off_c, 0, 64, 64
2, 47960, Note_on_c, 0, 58, 54
2, 47963, Note_on_c, 0, 50, 51
2, 47966, Note_on_c, 0, 64, 62
2, 47967, Note_on_c, 0, 76, 58
2, 47967, Note_on_c, 0, 67, 62
2, 47969, Note_off_c, 0, 70, 64
2, 47971, Control_c, 0, 64, 0
2, 47971, Control_c, 0, 64, 0
2, 47974, Control_c, 0, 64, 0
2, 47974, Control_c, 0, 64, 0
2, 47975, Note_off_c, 0, 55, 64
2, 47981, Control_c, 0, 64, 127
2, 47981, Control_c, 0, 64, 127
2, 47987, Control_c, 0, 64, 127
2, 47987, Control_c, 0, 64, 127
2, 48084, Note_on_c, 0, 74, 47
2, 48087, Note_on_c, 0, 67, 55
2, 48088, Note_on_c, 0, 62, 55
2, 48088, Note_on_c, 0, 59, 55
2, 48095, Note_off_c, 0, 58, 64
2, 48101, Note_off_c, 0, 64, 64
2, 48102, Note_off_c, 0, 67, 64
2, 48102, Note_off_c, 0, 76, 64
2, 48133, Note_off_c, 0, 67, 64
2, 48134, Note_off_c, 0, 62, 64
2, 48138, Note_on_c, 0, 57, 58
2, 48141, Note_on_c, 0, 72, 58
2, 48141, Note_on_c, 0, 66, 62
2, 48142, Note_on_c, 0, 62, 64
2, 48143, Note_off_c, 0, 74, 64
2, 48143, Control_c, 0, 64, 0
2, 48143, Control_c, 0, 64, 0
2, 48147, Note_off_c, 0, 59, 64
2, 48161, Control_c, 0, 64, 0
2, 48161, Control_c, 0, 64, 0
2, 48175, Control_c, 0, 64, 127
2, 48175, Control_c, 0, 64, 127
2, 48192, Control_c, 0, 64, 127
2, 48192, Control_c, 0, 64, 127
2, 48341, Note_off_c, 0, 66, 64
2, 48350, Note_off_c, 0, 57, 64
2, 48351, Note_on_c, 0, 66, 57
2, 48353, Note_off_c, 0, 72, 64
2, 48354, Note_off_c, 0, 62, 64
2, 48354, Note_on_c, 0, 60, 54
2, 48357, Note_on_c, 0, 62, 56
2, 48368, Control_c, 0, 64, 0
2, 48368, Control_c, 0, 64, 0
2, 48414, Control_c, 0, 64, 127
2, 48414, Control_c, 0, 64, 127
2, 48480, Note_off_c, 0, 60, 64
2, 48482, Note_off_c, 0, 62, 64
2, 48486, Note_off_c, 0, 66, 64
2, 48493, Note_off_c, 0, 50, 64
2, 48609, Note_on_c, 0, 67, 50
2, 48613, Note_on_c, 0, 43, 58
2, 48616, Note_on_c, 0, 59, 26
2, 48648, Control_c, 0, 64, 0
2, 48648, Control_c, 0, 64, 0
2, 48678, Control_c, 0, 64, 127
2, 48678, Control_c, 0, 64, 127
2, 48765, Note_off_c, 0, 59, 64
2, 48832, Note_on_c, 0, 47, 54
2, 48840, Note_on_c, 0, 65, 37
2, 48844, Note_off_c, 0, 43, 64
2, 48844, Note_on_c, 0, 62, 34
2, 48844, Note_on_c, 0, 55, 33
2, 48861, Control_c, 0, 64, 0
2, 48861, Control_c, 0, 64, 0
2, 48882, Control_c, 0, 64, 127
2, 48882, Control_c, 0, 64, 127
2, 48925, Note_on_c, 0, 45, 54
2, 48928, Note_off_c, 0, 65, 64
2, 48932, Note_off_c, 0, 55, 64
2, 48932, Note_off_c, 0, 62, 64
2, 48940, Note_off_c, 0, 47, 64
2, 49000, Note_on_c, 0, 55, 36
2, 49002, Note_on_c, 0, 65, 40
2, 49004, Note_on_c, 0, 62, 39
2, 49006, Note_on_c, 0, 43, 52
2, 49016, Note_off_c, 0, 45, 64
2, 49027, Control_c, 0, 64, 0
2, 49027, Control_c, 0, 64, 0
2, 49057, Control_c, 0, 64, 127
2, 49057, Control_c, 0, 64, 127
2, 49088, Note_off_c, 0, 55, 64
2, 49090, Note_off_c, 0, 65, 64
2, 49091, Note_on_c, 0, 47, 58
2, 49092, Note_off_c, 0, 62, 64
2, 49100, Note_off_c, 0, 67, 64
2, 49135, Note_off_c, 0, 43, 64
2, 49168, Note_on_c, 0, 63, 47
2, 49168, Note_on_c, 0, 62, 36
2, 49172, Note_on_c, 0, 67, 51
2, 49172, Note_on_c, 0, 55, 36
2, 49182, Note_on_c, 0, 48, 52
2, 49190, Note_off_c, 0, 47, 64
2, 49196, Control_c, 0, 64, 0
2, 49196, Control_c, 0, 64, 0
2, 49214, Control_c, 0, 64, 127
2, 49214, Control_c, 0, 64, 127
2, 49305, Note_off_c, 0, 62, 64
2, 49305, Note_off_c, 0, 63, 64
2, 49309, Note_off_c, 0, 55, 64
2, 49310, Note_on_c, 0, 51, 49
2, 49328, Note_off_c, 0, 48, 64
2, 49343, Note_on_c, 0, 63, 49
2, 49344, Note_on_c, 0, 60, 49
2, 49354, Control_c, 0, 64, 0
2, 49354, Control_c, 0, 64, 0
2, 49372, Note_on_c, 0, 55, 51
2, 49382, Note_off_c, 0, 51, 64
2, 49396, Control_c, 0, 64, 127
2, 49396, Control_c, 0, 64, 127
2, 49431, Note_off_c, 0, 63, 64
2, 49432, Note_off_c, 0, 60, 64
2, 49525, Control_c, 0, 64, 0
2, 49525, Control_c, 0, 64, 0
2, 49533, Note_on_c, 0, 63, 41
2, 49537, Note_on_c, 0, 60, 39
2, 49560, Control_c, 0, 64, 127
2, 49560, Control_c, 0, 64, 127
2, 49621, Note_off_c, 0, 63, 64
2, 49625, Note_off_c, 0, 60, 64
2, 49703, Note_on_c, 0, 62, 39
2, 49704, Note_on_c, 0, 60, 37
2, 49712, Note_on_c, 0, 43, 56
2, 49719, Note_off_c, 0, 55, 64
2, 49726, Control_c, 0, 64, 0
2, 49726, Control_c, 0, 64, 0
2, 49755, Control_c, 0, 64, 127
2, 49755, Control_c, 0, 64, 127
2, 49840, Note_off_c, 0, 62, 64
2, 49841, Note_off_c, 0, 60, 64
2, 49886, Control_c, 0, 64, 0
2, 49886, Control_c, 0, 64, 0
2, 49892, Note_on_c, 0, 59, 41
2, 49893, Note_on_c, 0, 50, 50
2, 49895, Note_on_c, 0, 62, 39
2, 49911, Control_c, 0, 64, 127
2, 49911, Control_c, 0, 64, 127
2, 49927, Note_off_c, 0, 43, 64
2, 49960, Note_off_c, 0, 59, 64
2, 49976, Note_on_c, 0, 59, 51
2, 49983, Note_off_c, 0, 62, 64
2, 49990, Note_off_c, 0, 50, 64
2, 50029, Note_off_c, 0, 67, 64
2, 50068, Note_on_c, 0, 71, 41
2, 50068, Note_on_c, 0, 67, 41
2, 50073, Note_on_c, 0, 55, 56
2, 50076, Control_c, 0, 64, 0
2, 50076, Control_c, 0, 64, 0
2, 50088, Note_off_c, 0, 59, 64
2, 50152, Note_on_c, 0, 64, 59
2, 50156, Note_off_c, 0, 67, 64
2, 50156, Note_off_c, 0, 71, 64
2, 50174, Note_off_c, 0, 55, 64
2, 50240, Note_on_c, 0, 62, 63
2, 50244, Note_on_c, 0, 72, 41
2, 50244, Note_on_c, 0, 67, 41
2, 50250, Note_off_c, 0, 64, 64
2, 50252, Control_c, 0, 64, 0
2, 50252, Control_c, 0, 64, 0
2, 50264, Control_c, 0, 64, 127
2, 50264, Control_c, 0, 64, 127
2, 50370, Note_on_c, 0, 57, 49
2, 50381, Note_off_c, 0, 67, 64
2, 50381, Note_off_c, 0, 72, 64
2, 50414, Note_on_c, 0, 50, 54
2, 50417, Note_off_c, 0, 62, 64
2, 50421, Note_on_c, 0, 72, 44
2, 50421, Note_on_c, 0, 66, 46
2, 50427, Note_off_c, 0, 57, 64
2, 50432, Control_c, 0, 64, 0
2, 50432, Control_c, 0, 64, 0
2, 50460, Control_c, 0, 64, 127
2, 50460, Control_c, 0, 64, 127
2, 50509, Note_off_c, 0, 66, 64
2, 50509, Note_off_c, 0, 72, 64
2, 50604, Note_on_c, 0, 72, 37
2, 50608, Note_on_c, 0, 66, 41
2, 50663, Note_on_c, 0, 74, 42
2, 50675, Note_off_c, 0, 72, 64
2, 50696, Note_off_c, 0, 66, 64
2, 50710, Note_on_c, 0, 72, 39
2, 50725, Note_off_c, 0, 74, 64
2, 50754, Note_on_c, 0, 71, 44
2, 50758, Note_on_c, 0, 67, 41
2, 50763, Note_on_c, 0, 62, 32
2, 50770, Note_on_c, 0, 43, 51
2, 50776, Note_off_c, 0, 72, 64
2, 50778, Control_c, 0, 64, 0
2, 50778, Control_c, 0, 64, 0
2, 50791, Control_c, 0, 64, 127
2, 50791, Control_c, 0, 64, 127
2, 50793, Note_off_c, 0, 50, 64
2, 50891, Note_off_c, 0, 71, 64
2, 50895, Note_off_c, 0, 67, 64
2, 50900, Note_off_c, 0, 62, 64
2, 50937, Note_off_c, 0, 43, 64
2, 50937, Note_on_c, 0, 47, 51
2, 50940, Note_on_c, 0, 65, 49
2, 50946, Note_on_c, 0, 67, 46
2, 50946, Note_on_c, 0, 62, 34
2, 50959, Control_c, 0, 64, 0
2, 50959, Control_c, 0, 64, 0
2, 50980, Control_c, 0, 64, 127
2, 50980, Control_c, 0, 64, 127
2, 51025, Note_on_c, 0, 45, 51
2, 51028, Note_off_c, 0, 65, 64
2, 51034, Note_off_c, 0, 62, 64
2, 51034, Note_off_c, 0, 67, 64
2, 51035, Note_off_c, 0, 47, 64
2, 51109, Note_on_c, 0, 62, 39
2, 51113, Note_on_c, 0, 67, 39
2, 51113, Note_on_c, 0, 65, 44
2, 51113, Note_on_c, 0, 43, 58
2, 51126, Control_c, 0, 64, 0
2, 51126, Control_c, 0, 64, 0
2, 51133, Note_off_c, 0, 45, 64
2, 51137, Control_c, 0, 64, 127
2, 51137, Control_c, 0, 64, 127
2, 51196, Note_on_c, 0, 47, 57
2, 51197, Note_off_c, 0, 62, 64
2, 51201, Note_off_c, 0, 65, 64
2, 51201, Note_off_c, 0, 67, 64
2, 51224, Note_off_c, 0, 43, 64
2, 51274, Control_c, 0, 64, 0
2, 51274, Control_c, 0, 64, 0
2, 51279, Note_on_c, 0, 48, 64
2, 51284, Note_off_c, 0, 47, 64
2, 51284, Note_on_c, 0, 63, 42
2, 51285, Note_on_c, 0, 67, 49
2, 51285, Note_on_c, 0, 62, 41
2, 51323, Control_c, 0, 64, 127
2, 51323, Control_c, 0, 64, 127
2, 51413, Note_on_c, 0, 51, 62
2, 51421, Note_off_c, 0, 63, 64
2, 51422, Note_off_c, 0, 62, 64
2, 51431, Note_off_c, 0, 48, 64
2, 51457, Control_c, 0, 64, 0
2, 51457, Control_c, 0, 64, 0
2, 51460, Note_on_c, 0, 63, 43
2, 51467, Note_on_c, 0, 60, 44
2, 51468, Note_on_c, 0, 55, 64
2, 51484, Note_off_c, 0, 51, 64
2, 51512, Control_c, 0, 64, 127
2, 51512, Control_c, 0, 64, 127
2, 51548, Note_off_c, 0, 63, 64
2, 51555, Note_off_c, 0, 60, 64
2, 51633, Control_c, 0, 64, 0
2, 51633, Control_c, 0, 64, 0
2, 51641, Note_on_c, 0, 63, 42
2, 51647, Note_on_c, 0, 60, 42
2, 51685, Control_c, 0, 64, 127
2, 51685, Control_c, 0, 64, 127
2, 51729, Note_off_c, 0, 63, 64
2, 51735, Note_off_c, 0, 60, 64
2, 51814, Note_on_c, 0, 60, 42
2, 51816, Note_on_c, 0, 62, 37
2, 51817, Control_c, 0, 64, 0
2, 51817, Control_c, 0, 64, 0
2, 51823, Note_on_c, 0, 43, 59
2, 51828, Note_off_c, 0, 55, 64
2, 51861, Control_c, 0, 64, 127
2, 51861, Control_c, 0, 64, 127
2, 51951, Note_off_c, 0, 60, 64
2, 51953, Note_off_c, 0, 62, 64
2, 51981, Control_c, 0, 64, 0
2, 51981, Control_c, 0, 64, 0
2, 51988, Note_on_c, 0, 59, 36
2, 51993, Note_on_c, 0, 62, 39
2, 51993, Note_on_c, 0, 50, 50
2, 52010, Control_c, 0, 64, 127
2, 52010, Control_c, 0, 64, 127
2, 52016, Note_off_c, 0, 43, 64
2, 52064, Note_off_c, 0, 59, 64
2, 52079, Note_on_c, 0, 59, 64
2, 52081, Note_off_c, 0, 62, 64
2, 52098, Note_off_c, 0, 50, 64
2, 52164, Note_off_c, 0, 67, 64
2, 52168, Note_on_c, 0, 71, 41
2, 52168, Note_on_c, 0, 67, 41
2, 52174, Note_on_c, 0, 55, 63
2, 52185, Note_off_c, 0, 59, 64
2, 52252, Note_on_c, 0, 64, 62
2, 52256, Note_off_c, 0, 67, 64
2, 52256, Note_off_c, 0, 71, 64
2, 52283, Note_off_c, 0, 55, 64
2, 52296, Control_c, 0, 64, 0
2, 52296, Control_c, 0, 64, 0
2, 52335, Note_on_c, 0, 72, 42
2, 52337, Note_on_c, 0, 66, 41
2, 52344, Note_on_c, 0, 62, 64
2, 52358, Note_off_c, 0, 64, 64
2, 52361, Control_c, 0, 64, 0
2, 52361, Control_c, 0, 64, 0
2, 52374, Control_c, 0, 64, 127
2, 52374, Control_c, 0, 64, 127
2, 52463, Note_on_c, 0, 57, 52
2, 52472, Note_off_c, 0, 72, 64
2, 52474, Note_off_c, 0, 66, 64
2, 52488, Note_off_c, 0, 62, 64
2, 52515, Note_on_c, 0, 72, 46
2, 52515, Note_on_c, 0, 66, 46
2, 52520, Note_on_c, 0, 50, 64
2, 52521, Control_c, 0, 64, 0
2, 52521, Control_c, 0, 64, 0
2, 52528, Note_off_c, 0, 57, 64
2, 52571, Control_c, 0, 64, 127
2, 52571, Control_c, 0, 64, 127
2, 52603, Note_off_c, 0, 66, 64
2, 52603, Note_off_c, 0, 72, 64
2, 52694, Note_on_c, 0, 66, 36
2, 52701, Note_on_c, 0, 72, 36
2, 52759, Note_on_c, 0, 74, 33
2, 52775, Note_off_c, 0, 72, 64
2, 52782, Note_off_c, 0, 66, 64
2, 52804, Note_on_c, 0, 72, 39
2, 52820, Note_off_c, 0, 74, 64
2, 52852, Note_on_c, 0, 71, 43
2, 52852, Note_on_c, 0, 67, 42
2, 52859, Note_on_c, 0, 62, 33
2, 52865, Control_c, 0, 64, 0
2, 52865, Control_c, 0, 64, 0
2, 52873, Note_off_c, 0, 72, 64
2, 52874, Note_on_c, 0, 43, 59
2, 52879, Note_off_c, 0, 50, 64
2, 52910, Control_c, 0, 64, 127
2, 52910, Control_c, 0, 64, 127
2, 52989, Note_off_c, 0, 67, 64
2, 52996, Note_off_c, 0, 62, 64
2, 53031, Note_on_c, 0, 50, 57
2, 53037, Note_on_c, 0, 62, 39
2, 53040, Note_on_c, 0, 67, 36
2, 53048, Control_c, 0, 64, 0
2, 53048, Control_c, 0, 64, 0
2, 53054, Note_off_c, 0, 43, 64
2, 53062, Control_c, 0, 64, 127
2, 53062, Control_c, 0, 64, 127
2, 53122, Note_on_c, 0, 59, 32
2, 53125, Note_off_c, 0, 62, 64
2, 53128, Note_off_c, 0, 67, 64
2, 53129, Note_off_c, 0, 50, 64
2, 53185, Note_off_c, 0, 71, 64
2, 53205, Note_on_c, 0, 67, 39
2, 53205, Note_on_c, 0, 55, 62
2, 53208, Note_on_c, 0, 71, 35
2, 53225, Note_off_c, 0, 59, 64
2, 53290, Note_on_c, 0, 64, 62
2, 53293, Note_off_c, 0, 67, 64
2, 53296, Note_off_c, 0, 71, 64
2, 53317, Note_off_c, 0, 55, 64
2, 53372, Note_on_c, 0, 66, 35
2, 53373, Note_on_c, 0, 71, 31
2, 53376, Note_on_c, 0, 60, 23
2, 53379, Note_on_c, 0, 62, 57
2, 53385, Note_off_c, 0, 64, 64
2, 53391, Control_c, 0, 64, 0
2, 53391, Control_c, 0, 64, 0
2, 53413, Control_c, 0, 64, 127
2, 53413, Control_c, 0, 64, 127
2, 53499, Note_on_c, 0, 57, 51
2, 53509, Note_off_c, 0, 66, 64
2, 53510, Note_off_c, 0, 71, 64
2, 53513, Note_off_c, 0, 60, 64
2, 53514, Note_off_c, 0, 62, 64
2, 53540, Note_on_c, 0, 69, 46
2, 53545, Note_on_c, 0, 66, 44
2, 53548, Note_on_c, 0, 60, 43
2, 53555, Control_c, 0, 64, 0
2, 53555, Control_c, 0, 64, 0
2, 53559, Note_on_c, 0, 50, 41
2, 53580, Note_off_c, 0, 57, 64
2, 53598, Control_c, 0, 64, 127
2, 53598, Control_c, 0, 64, 127
2, 53628, Note_off_c, 0, 69, 64
2, 53633, Note_off_c, 0, 66, 64
2, 53636, Note_off_c, 0, 60, 64
2, 53720, Note_on_c, 0, 66, 39
2, 53725, Note_on_c, 0, 69, 31
2, 53725, Note_on_c, 0, 60, 27
2, 53782, Note_on_c, 0, 71, 37
2, 53799, Note_off_c, 0, 69, 64
2, 53808, Note_off_c, 0, 66, 64
2, 53813, Note_off_c, 0, 60, 64
2, 53826, Note_on_c, 0, 69, 39
2, 53833, Note_off_c, 0, 71, 64
2, 53881, Note_off_c, 0, 50, 64
2, 53884, Note_on_c, 0, 60, 24
2, 53885, Note_on_c, 0, 67, 33
2, 53894, Note_on_c, 0, 43, 58
2, 53895, Control_c, 0, 64, 0
2, 53895, Control_c, 0, 64, 0
2, 53900, Note_off_c, 0, 69, 64
2, 53926, Control_c, 0, 64, 127
2, 53926, Control_c, 0, 64, 127
2, 54021, Note_off_c, 0, 60, 64
2, 54022, Note_off_c, 0, 67, 64
2, 54056, Note_on_c, 0, 59, 39
2, 54059, Note_on_c, 0, 50, 56
2, 54060, Note_on_c, 0, 62, 39
2, 54077, Note_off_c, 0, 43, 64
2, 54136, Note_off_c, 0, 59, 64
2, 54148, Note_off_c, 0, 62, 64
2, 54151, Note_on_c, 0, 59, 58
2, 54164, Note_off_c, 0, 50, 64
2, 54239, Note_off_c, 0, 59, 64
2, 54248, Note_on_c, 0, 62, 37
2, 54248, Note_on_c, 0, 59, 39
2, 54248, Note_on_c, 0, 55, 46
2, 54330, Note_on_c, 0, 64, 62
2, 54336, Note_off_c, 0, 59, 64
2, 54336, Note_off_c, 0, 62, 64
2, 54345, Note_off_c, 0, 55, 64
2, 54428, Note_on_c, 0, 60, 33
2, 54428, Note_on_c, 0, 54, 14
2, 54432, Note_on_c, 0, 62, 42
2, 54454, Note_off_c, 0, 64, 64
2, 54463, Control_c, 0, 64, 0
2, 54463, Control_c, 0, 64, 0
2, 54476, Control_c, 0, 64, 127
2, 54476, Control_c, 0, 64, 127
2, 54514, Note_on_c, 0, 57, 34
2, 54521, Note_off_c, 0, 62, 64
2, 54565, Note_off_c, 0, 54, 64
2, 54565, Note_off_c, 0, 60, 64
2, 54612, Note_on_c, 0, 60, 42
2, 54612, Note_on_c, 0, 54, 36
2, 54616, Note_on_c, 0, 62, 41
2, 54616, Note_on_c, 0, 50, 47
2, 54624, Note_off_c, 0, 57, 64
2, 54636, Control_c, 0, 64, 0
2, 54636, Control_c, 0, 64, 0
2, 54668, Control_c, 0, 64, 127
2, 54668, Control_c, 0, 64, 127
2, 54700, Note_off_c, 0, 54, 64
2, 54700, Note_off_c, 0, 60, 64
2, 54704, Note_off_c, 0, 62, 64
2, 54815, Note_on_c, 0, 54, 36
2, 54816, Control_c, 0, 64, 0
2, 54816, Control_c, 0, 64, 0
2, 54818, Note_on_c, 0, 62, 39
2, 54820, Note_on_c, 0, 60, 42
2, 54885, Note_on_c, 0, 64, 42
2, 54895, Note_off_c, 0, 62, 64
2, 54952, Note_off_c, 0, 54, 64
2, 54954, Note_on_c, 0, 62, 39
2, 54957, Note_off_c, 0, 60, 64
2, 54966, Note_off_c, 0, 64, 64
2, 55041, Note_on_c, 0, 55, 42
2, 55042, Note_on_c, 0, 59, 62
2, 55051, Control_c, 0, 64, 0
2, 55051, Control_c, 0, 64, 0
2, 55065, Note_off_c, 0, 50, 64
2, 55081, Control_c, 0, 64, 127
2, 55081, Control_c, 0, 64, 127
2, 55163, Note_on_c, 0, 50, 42
2, 55165, Note_off_c, 0, 59, 64
2, 55166, Note_off_c, 0, 55, 64
2, 55258, Control_c, 0, 64, 0
2, 55258, Control_c, 0, 64, 0
2, 55262, Note_on_c, 0, 43, 52
2, 55264, Note_on_c, 0, 55, 39
2, 55273, Note_off_c, 0, 50, 64
2, 55276, Control_c, 0, 64, 127
2, 55276, Control_c, 0, 64, 127
2, 55389, Note_off_c, 0, 55, 64
2, 55473, Note_on_c, 0, 55, 42
2, 55480, Note_on_c, 0, 59, 57
2, 55491, Control_c, 0, 64, 0
2, 55491, Control_c, 0, 64, 0
2, 55503, Control_c, 0, 64, 127
2, 55503, Control_c, 0, 64, 127
2, 55510, Note_off_c, 0, 43, 64
2, 55587, Note_on_c, 0, 50, 48
2, 55598, Note_off_c, 0, 55, 64
2, 55639, Note_off_c, 0, 59, 64
2, 55701, Note_on_c, 0, 55, 41
2, 55701, Note_on_c, 0, 43, 51
2, 55708, Note_off_c, 0, 50, 64
2, 55826, Note_off_c, 0, 55, 64
2, 55931, Note_on_c, 0, 55, 49
2, 55972, Note_off_c, 0, 62, 64
2, 56056, Note_off_c, 0, 55, 64
2, 56118, Note_off_c, 0, 43, 64
2, 56166, Note_on_c, 0, 63, 54
2, 56169, Note_on_c, 0, 55, 57
2, 56171, Note_on_c, 0, 60, 58
2, 56174, Note_on_c, 0, 36, 58
2, 56175, Note_on_c, 0, 48, 58
2, 56194, Control_c, 0, 64, 0
2, 56194, Control_c, 0, 64, 0
2, 56206, Control_c, 0, 64, 127
2, 56206, Control_c, 0, 64, 127
2, 56406, Note_off_c, 0, 63, 64
2, 56409, Note_off_c, 0, 55, 64
2, 56411, Note_off_c, 0, 60, 64
2, 56433, Note_on_c, 0, 65, 50
2, 56456, Note_on_c, 0, 63, 49
2, 56456, Note_on_c, 0, 60, 54
2, 56458, Note_on_c, 0, 55, 54
2, 56468, Note_on_c, 0, 31, 75
2, 56474, Note_off_c, 0, 36, 64
2, 56478, Note_off_c, 0, 48, 64
2, 56481, Note_off_c, 0, 65, 64
2, 56487, Control_c, 0, 64, 0
2, 56487, Control_c, 0, 64, 0
2, 56517, Control_c, 0, 64, 127
2, 56517, Control_c, 0, 64, 127
2, 56553, Note_off_c, 0, 60, 64
2, 56600, Note_on_c, 0, 62, 57
2, 56625, Note_off_c, 0, 63, 64
2, 56668, Note_off_c, 0, 62, 64
2, 56712, Note_on_c, 0, 62, 58
2, 56718, Note_on_c, 0, 59, 57
2, 56890, Note_off_c, 0, 62, 64
2, 56896, Note_off_c, 0, 59, 64
2, 56979, Note_off_c, 0, 31, 64
2, 56994, Note_on_c, 0, 67, 57
2, 56998, Note_on_c, 0, 71, 59
2, 56998, Note_on_c, 0, 55, 57
2, 56999, Note_off_c, 0, 55, 64
2, 56999, Note_on_c, 0, 79, 58
2, 56999, Note_on_c, 0, 62, 57
2, 57009, Control_c, 0, 64, 0
2, 57009, Control_c, 0, 64, 0
2, 57032, Control_c, 0, 64, 127
2, 57032, Control_c, 0, 64, 127
2, 57069, Note_off_c, 0, 55, 64
2, 57338, Note_off_c, 0, 67, 64
2, 57342, Note_off_c, 0, 71, 64
2, 57343, Note_off_c, 0, 62, 64
2, 57343, Note_off_c, 0, 79, 64
2, 57389, Note_on_c, 0, 67, 58
2, 57390, Note_on_c, 0, 91, 62
2, 57390, Note_on_c, 0, 83, 62
2, 57390, Note_on_c, 0, 79, 58
2, 57396, Note_on_c, 0, 74, 58
2, 57397, Control_c, 0, 64, 0
2, 57397, Control_c, 0, 64, 0
2, 57428, Control_c, 0, 64, 127
2, 57428, Control_c, 0, 64, 127
2, 58379, Note_off_c, 0, 67, 64
2, 58380, Note_off_c, 0, 79, 64
2, 58380, Note_off_c, 0, 83, 64
2, 58380, Note_off_c, 0, 91, 64
2, 58386, Note_off_c, 0, 74, 64
