2, 0, Program_c, 0, 0
2, 0, Control_c, 0, 7, 127
2, 700, Control_c, 0, 64, 127
2, 700, Control_c, 0, 64, 127
2, 768, Note_on_c, 0, 61, 64
2, 956, Note_on_c, 0, 66, 74
2, 958, Note_off_c, 0, 61, 64
2, 959, Control_c, 0, 64, 0
2, 959, Control_c, 0, 64, 0
2, 964, Note_on_c, 0, 30, 64
2, 1005, Control_c, 0, 64, 127
2, 1005, Control_c, 0, 64, 127
2, 1185, Note_on_c, 0, 61, 33
2, 1192, Note_on_c, 0, 49, 26
2, 1200, Note_on_c, 0, 57, 33
2, 1231, Note_off_c, 0, 57, 64
2, 1235, Note_off_c, 0, 49, 64
2, 1239, Note_off_c, 0, 61, 64
2, 1257, Note_on_c, 0, 68, 67
2, 1258, Note_off_c, 0, 30, 64
2, 1272, Note_off_c, 0, 66, 64
2, 1315, Note_off_c, 0, 68, 64
2, 1334, Note_on_c, 0, 69, 72
2, 1340, Note_on_c, 0, 61, 40
2, 1344, Note_on_c, 0, 57, 54
2, 1344, Note_on_c, 0, 49, 54
2, 1367, Note_off_c, 0, 57, 64
2, 1370, Note_off_c, 0, 61, 64
2, 1385, Note_off_c, 0, 49, 64
2, 1404, Note_on_c, 0, 72, 67
2, 1426, Note_off_c, 0, 69, 64
2, 1486, Note_on_c, 0, 42, 80
2, 1488, Note_on_c, 0, 74, 60
2, 1496, Note_off_c, 0, 72, 64
2, 1531, Note_on_c, 0, 76, 69
2, 1545, Note_off_c, 0, 74, 64
2, 1583, Note_on_c, 0, 74, 75
2, 1594, Note_off_c, 0, 76, 64
2, 1607, Control_c, 0, 64, 0
2, 1607, Control_c, 0, 64, 0
2, 1621, Note_on_c, 0, 57, 60
2, 1624, Note_on_c, 0, 66, 66
2, 1625, Note_on_c, 0, 73, 86
2, 1630, Note_on_c, 0, 61, 60
2, 1637, Note_off_c, 0, 74, 64
2, 1660, Note_off_c, 0, 61, 64
2, 1663, Note_off_c, 0, 66, 64
2, 1663, Control_c, 0, 64, 127
2, 1663, Control_c, 0, 64, 127
2, 1673, Note_off_c, 0, 57, 64
2, 1763, Note_off_c, 0, 42, 64
2, 1808, Note_on_c, 0, 61, 62
2, 1808, Note_on_c, 0, 57, 66
2, 1812, Note_on_c, 0, 78, 78
2, 1815, Note_on_c, 0, 66, 43
2, 1827, Note_off_c, 0, 73, 64
2, 1880, Note_off_c, 0, 57, 64
2, 1880, Note_off_c, 0, 61, 64
2, 1910, Note_off_c, 0, 66, 64
2, 1958, Note_on_c, 0, 54, 47
2, 1962, Note_on_c, 0, 73, 73
2, 1981, Note_off_c, 0, 78, 64
2, 2011, Note_on_c, 0, 74, 62
2, 2016, Note_off_c, 0, 73, 64
2, 2051, Note_on_c, 0, 73, 69
2, 2068, Note_off_c, 0, 74, 64
2, 2082, Control_c, 0, 64, 0
2, 2082, Control_c, 0, 64, 0
2, 2091, Note_on_c, 0, 71, 73
2, 2098, Note_on_c, 0, 66, 67
2, 2098, Note_on_c, 0, 59, 62
2, 2102, Note_off_c, 0, 73, 64
2, 2108, Note_on_c, 0, 62, 58
2, 2128, Control_c, 0, 64, 127
2, 2128, Control_c, 0, 64, 127
2, 2132, Note_off_c, 0, 62, 64
2, 2136, Note_off_c, 0, 59, 64
2, 2136, Note_off_c, 0, 66, 64
2, 2268, Note_on_c, 0, 66, 55
2, 2272, Note_on_c, 0, 62, 58
2, 2273, Note_on_c, 0, 78, 69
2, 2280, Note_on_c, 0, 59, 54
2, 2295, Note_off_c, 0, 66, 64
2, 2296, Note_off_c, 0, 62, 64
2, 2301, Note_off_c, 0, 59, 64
2, 2324, Note_off_c, 0, 71, 64
2, 2329, Note_off_c, 0, 54, 64
2, 2411, Note_on_c, 0, 42, 69
2, 2418, Note_on_c, 0, 71, 67
2, 2430, Note_off_c, 0, 78, 64
2, 2460, Note_on_c, 0, 73, 73
2, 2477, Note_off_c, 0, 71, 64
2, 2502, Note_on_c, 0, 71, 59
2, 2522, Note_off_c, 0, 73, 64
2, 2546, Note_on_c, 0, 69, 64
2, 2553, Control_c, 0, 64, 0
2, 2553, Control_c, 0, 64, 0
2, 2560, Note_off_c, 0, 71, 64
2, 2563, Note_on_c, 0, 66, 69
2, 2563, Note_on_c, 0, 61, 51
2, 2568, Note_on_c, 0, 57, 29
2, 2574, Control_c, 0, 64, 127
2, 2574, Control_c, 0, 64, 127
2, 2597, Note_off_c, 0, 66, 64
2, 2606, Note_off_c, 0, 61, 64
2, 2613, Note_off_c, 0, 57, 64
2, 2695, Note_off_c, 0, 42, 64
2, 2701, Note_on_c, 0, 61, 51
2, 2702, Note_on_c, 0, 73, 69
2, 2710, Note_on_c, 0, 57, 62
2, 2710, Note_on_c, 0, 49, 58
2, 2742, Note_off_c, 0, 61, 64
2, 2748, Note_off_c, 0, 49, 64
2, 2751, Note_off_c, 0, 57, 64
2, 2754, Note_off_c, 0, 69, 64
2, 2857, Note_on_c, 0, 69, 62
2, 2859, Note_on_c, 0, 37, 78
2, 2867, Note_off_c, 0, 73, 64
2, 2867, Control_c, 0, 64, 0
2, 2867, Control_c, 0, 64, 0
2, 2881, Control_c, 0, 64, 127
2, 2881, Control_c, 0, 64, 127
2, 2900, Note_on_c, 0, 71, 62
2, 2905, Note_off_c, 0, 69, 64
2, 2940, Note_on_c, 0, 69, 64
2, 2953, Note_off_c, 0, 71, 64
2, 2979, Note_on_c, 0, 59, 65
2, 2979, Note_on_c, 0, 53, 54
2, 2985, Note_on_c, 0, 49, 58
2, 2988, Control_c, 0, 64, 0
2, 2988, Control_c, 0, 64, 0
2, 2995, Note_on_c, 0, 68, 69
2, 2999, Note_off_c, 0, 69, 64
2, 3017, Control_c, 0, 64, 127
2, 3017, Control_c, 0, 64, 127
2, 3024, Note_off_c, 0, 59, 64
2, 3028, Note_off_c, 0, 49, 64
2, 3029, Note_off_c, 0, 53, 64
2, 3134, Note_off_c, 0, 37, 64
2, 3158, Note_on_c, 0, 73, 69
2, 3165, Note_on_c, 0, 59, 67
2, 3165, Note_on_c, 0, 53, 47
2, 3165, Note_on_c, 0, 49, 47
2, 3188, Note_off_c, 0, 68, 64
2, 3203, Note_off_c, 0, 59, 64
2, 3208, Note_off_c, 0, 53, 64
2, 3215, Note_off_c, 0, 49, 64
2, 3299, Note_on_c, 0, 68, 78
2, 3303, Note_on_c, 0, 42, 74
2, 3319, Note_off_c, 0, 73, 64
2, 3345, Note_on_c, 0, 69, 62
2, 3352, Note_off_c, 0, 68, 64
2, 3387, Note_on_c, 0, 68, 69
2, 3399, Note_off_c, 0, 69, 64
2, 3424, Note_on_c, 0, 57, 62
2, 3424, Note_on_c, 0, 49, 69
2, 3424, Control_c, 0, 64, 0
2, 3424, Control_c, 0, 64, 0
2, 3433, Note_on_c, 0, 66, 70
2, 3433, Note_on_c, 0, 54, 62
2, 3438, Note_off_c, 0, 68, 64
2, 3456, Control_c, 0, 64, 127
2, 3456, Control_c, 0, 64, 127
2, 3466, Note_off_c, 0, 49, 64
2, 3466, Note_off_c, 0, 57, 64
2, 3468, Note_off_c, 0, 54, 64
2, 3585, Note_off_c, 0, 42, 64
2, 3597, Note_on_c, 0, 73, 74
2, 3605, Note_on_c, 0, 54, 60
2, 3611, Note_on_c, 0, 57, 62
2, 3611, Note_on_c, 0, 51, 50
2, 3620, Control_c, 0, 64, 0
2, 3620, Control_c, 0, 64, 0
2, 3634, Note_off_c, 0, 66, 64
2, 3657, Control_c, 0, 64, 127
2, 3657, Control_c, 0, 64, 127
2, 3666, Note_off_c, 0, 51, 64
2, 3678, Note_off_c, 0, 54, 64
2, 3680, Note_off_c, 0, 57, 64
2, 3777, Note_on_c, 0, 44, 67
2, 3784, Note_on_c, 0, 66, 77
2, 3800, Control_c, 0, 64, 0
2, 3800, Control_c, 0, 64, 0
2, 3804, Note_off_c, 0, 73, 64
2, 3815, Control_c, 0, 64, 127
2, 3815, Control_c, 0, 64, 127
2, 3838, Note_on_c, 0, 68, 77
2, 3844, Note_off_c, 0, 66, 64
2, 3882, Note_on_c, 0, 66, 65
2, 3898, Note_off_c, 0, 68, 64
2, 3928, Note_on_c, 0, 64, 73
2, 3936, Note_on_c, 0, 61, 73
2, 3936, Note_on_c, 0, 52, 60
2, 3940, Note_on_c, 0, 56, 55
2, 3946, Note_off_c, 0, 66, 64
2, 3948, Control_c, 0, 64, 0
2, 3948, Control_c, 0, 64, 0
2, 3963, Control_c, 0, 64, 127
2, 3963, Control_c, 0, 64, 127
2, 3983, Note_off_c, 0, 52, 64
2, 3987, Note_off_c, 0, 56, 64
2, 3990, Note_off_c, 0, 61, 64
2, 4008, Note_on_c, 0, 68, 74
2, 4021, Note_off_c, 0, 64, 64
2, 4068, Note_off_c, 0, 44, 64
2, 4082, Control_c, 0, 64, 0
2, 4082, Control_c, 0, 64, 0
2, 4089, Note_on_c, 0, 63, 77
2, 4092, Note_on_c, 0, 56, 57
2, 4095, Note_on_c, 0, 54, 58
2, 4098, Note_on_c, 0, 60, 55
2, 4105, Note_off_c, 0, 68, 64
2, 4117, Control_c, 0, 64, 127
2, 4117, Control_c, 0, 64, 127
2, 4125, Note_off_c, 0, 60, 64
2, 4134, Note_off_c, 0, 56, 64
2, 4137, Note_off_c, 0, 54, 64
2, 4176, Note_on_c, 0, 68, 65
2, 4193, Note_off_c, 0, 63, 64
2, 4219, Note_off_c, 0, 68, 64
2, 4263, Note_on_c, 0, 68, 73
2, 4298, Note_on_c, 0, 37, 60
2, 4312, Note_on_c, 0, 61, 85
2, 4324, Control_c, 0, 64, 0
2, 4324, Control_c, 0, 64, 0
2, 4330, Note_off_c, 0, 68, 64
2, 4350, Control_c, 0, 64, 127
2, 4350, Control_c, 0, 64, 127
2, 4496, Note_on_c, 0, 49, 42
2, 4503, Note_on_c, 0, 53, 49
2, 4509, Note_off_c, 0, 61, 64
2, 4512, Note_on_c, 0, 59, 29
2, 4563, Note_off_c, 0, 59, 64
2, 4563, Note_off_c, 0, 53, 64
2, 4566, Note_off_c, 0, 49, 64
2, 4574, Note_on_c, 0, 62, 63
2, 4579, Note_on_c, 0, 71, 65
2, 4607, Note_off_c, 0, 37, 64
2, 4654, Note_off_c, 0, 62, 64
2, 4657, Note_on_c, 0, 61, 70
2, 4658, Note_off_c, 0, 71, 64
2, 4658, Note_on_c, 0, 69, 65
2, 4672, Note_on_c, 0, 49, 60
2, 4678, Note_on_c, 0, 59, 58
2, 4680, Note_on_c, 0, 56, 58
2, 4707, Note_off_c, 0, 59, 64
2, 4709, Note_off_c, 0, 56, 64
2, 4725, Note_off_c, 0, 49, 64
2, 4728, Note_off_c, 0, 61, 64
2, 4729, Note_on_c, 0, 68, 75
2, 4737, Note_off_c, 0, 69, 64
2, 4748, Note_on_c, 0, 65, 71
2, 4806, Note_off_c, 0, 65, 64
2, 4815, Note_off_c, 0, 68, 64
2, 4834, Note_on_c, 0, 66, 83
2, 4836, Note_on_c, 0, 42, 65
2, 4842, Control_c, 0, 64, 0
2, 4842, Control_c, 0, 64, 0
2, 4897, Control_c, 0, 64, 127
2, 4897, Control_c, 0, 64, 127
2, 5013, Note_on_c, 0, 49, 64
2, 5018, Note_on_c, 0, 61, 66
2, 5021, Note_on_c, 0, 68, 69
2, 5022, Note_off_c, 0, 66, 64
2, 5025, Note_on_c, 0, 57, 62
2, 5063, Note_off_c, 0, 57, 64
2, 5063, Note_off_c, 0, 49, 64
2, 5065, Note_off_c, 0, 61, 64
2, 5071, Note_off_c, 0, 68, 64
2, 5076, Note_on_c, 0, 66, 75
2, 5143, Note_off_c, 0, 42, 64
2, 5149, Note_on_c, 0, 69, 80
2, 5152, Note_off_c, 0, 66, 64
2, 5156, Note_on_c, 0, 61, 44
2, 5161, Note_on_c, 0, 57, 60
2, 5163, Note_on_c, 0, 49, 39
2, 5184, Note_off_c, 0, 57, 64
2, 5185, Note_off_c, 0, 61, 64
2, 5194, Note_off_c, 0, 49, 64
2, 5216, Note_on_c, 0, 72, 70
2, 5231, Note_off_c, 0, 69, 64
2, 5298, Note_on_c, 0, 74, 66
2, 5298, Note_on_c, 0, 42, 80
2, 5319, Note_off_c, 0, 72, 64
2, 5350, Note_on_c, 0, 76, 75
2, 5358, Note_off_c, 0, 74, 64
2, 5379, Note_on_c, 0, 74, 75
2, 5397, Note_off_c, 0, 76, 64
2, 5404, Control_c, 0, 64, 0
2, 5404, Control_c, 0, 64, 0
2, 5418, Note_on_c, 0, 54, 69
2, 5420, Note_on_c, 0, 64, 73
2, 5423, Note_on_c, 0, 58, 71
2, 5429, Note_on_c, 0, 73, 97
2, 5440, Note_off_c, 0, 74, 64
2, 5454, Note_off_c, 0, 58, 64
2, 5456, Note_off_c, 0, 54, 64
2, 5458, Note_off_c, 0, 64, 64
2, 5463, Control_c, 0, 64, 127
2, 5463, Control_c, 0, 64, 127
2, 5567, Note_off_c, 0, 73, 64
2, 5568, Note_off_c, 0, 42, 64
2, 5577, Note_on_c, 0, 78, 83
2, 5577, Note_on_c, 0, 64, 70
2, 5581, Note_on_c, 0, 54, 35
2, 5590, Note_on_c, 0, 58, 43
2, 5607, Note_off_c, 0, 64, 64
2, 5610, Note_off_c, 0, 54, 64
2, 5614, Note_off_c, 0, 58, 64
2, 5705, Control_c, 0, 64, 0
2, 5705, Control_c, 0, 64, 0
2, 5711, Note_on_c, 0, 47, 59
2, 5715, Note_on_c, 0, 73, 67
2, 5724, Note_off_c, 0, 78, 64
2, 5724, Control_c, 0, 64, 127
2, 5724, Control_c, 0, 64, 127
2, 5765, Note_off_c, 0, 73, 64
2, 5765, Note_on_c, 0, 74, 57
2, 5796, Note_on_c, 0, 73, 71
2, 5809, Note_off_c, 0, 74, 64
2, 5833, Note_on_c, 0, 64, 62
2, 5834, Note_on_c, 0, 54, 58
2, 5841, Note_on_c, 0, 71, 67
2, 5844, Control_c, 0, 64, 0
2, 5844, Control_c, 0, 64, 0
2, 5849, Note_off_c, 0, 73, 64
2, 5868, Control_c, 0, 64, 127
2, 5868, Control_c, 0, 64, 127
2, 5876, Note_off_c, 0, 54, 64
2, 5876, Note_off_c, 0, 64, 64
2, 5996, Note_on_c, 0, 54, 58
2, 6001, Note_on_c, 0, 78, 69
2, 6007, Note_on_c, 0, 62, 46
2, 6008, Note_off_c, 0, 47, 64
2, 6030, Note_off_c, 0, 71, 64
2, 6032, Note_off_c, 0, 62, 64
2, 6049, Note_off_c, 0, 54, 64
2, 6134, Note_on_c, 0, 71, 65
2, 6140, Note_on_c, 0, 42, 74
2, 6144, Note_off_c, 0, 78, 64
2, 6180, Note_on_c, 0, 73, 62
2, 6186, Note_off_c, 0, 71, 64
2, 6212, Note_on_c, 0, 71, 59
2, 6235, Note_off_c, 0, 73, 64
2, 6258, Note_on_c, 0, 54, 64
2, 6264, Note_on_c, 0, 61, 69
2, 6267, Note_on_c, 0, 69, 64
2, 6279, Note_off_c, 0, 71, 64
2, 6281, Control_c, 0, 64, 0
2, 6281, Control_c, 0, 64, 0
2, 6302, Control_c, 0, 64, 127
2, 6302, Control_c, 0, 64, 127
2, 6317, Note_off_c, 0, 54, 64
2, 6325, Note_off_c, 0, 61, 64
2, 6396, Note_off_c, 0, 42, 64
2, 6420, Note_on_c, 0, 51, 55
2, 6431, Note_on_c, 0, 61, 57
2, 6431, Note_on_c, 0, 57, 57
2, 6438, Note_on_c, 0, 73, 73
2, 6465, Control_c, 0, 64, 0
2, 6465, Control_c, 0, 64, 0
2, 6469, Note_off_c, 0, 69, 64
2, 6484, Note_off_c, 0, 51, 64
2, 6491, Control_c, 0, 64, 127
2, 6491, Control_c, 0, 64, 127
2, 6582, Note_off_c, 0, 57, 64
2, 6582, Note_off_c, 0, 61, 64
2, 6597, Note_on_c, 0, 52, 41
2, 6619, Control_c, 0, 64, 0
2, 6619, Control_c, 0, 64, 0
2, 6628, Note_on_c, 0, 66, 69
2, 6650, Note_off_c, 0, 73, 64
2, 6667, Control_c, 0, 64, 127
2, 6667, Control_c, 0, 64, 127
2, 6674, Note_on_c, 0, 68, 74
2, 6680, Note_off_c, 0, 66, 64
2, 6708, Note_on_c, 0, 66, 64
2, 6725, Note_off_c, 0, 68, 64
2, 6747, Note_on_c, 0, 64, 70
2, 6755, Note_on_c, 0, 61, 63
2, 6757, Note_off_c, 0, 66, 64
2, 6764, Note_on_c, 0, 57, 56
2, 6802, Note_off_c, 0, 57, 64
2, 6804, Note_off_c, 0, 61, 64
2, 6900, Note_on_c, 0, 61, 55
2, 6901, Note_on_c, 0, 73, 67
2, 6905, Note_on_c, 0, 57, 64
2, 6924, Note_off_c, 0, 52, 64
2, 6926, Note_off_c, 0, 61, 64
2, 6929, Note_off_c, 0, 57, 64
2, 6940, Note_off_c, 0, 64, 64
2, 7040, Control_c, 0, 64, 0
2, 7040, Control_c, 0, 64, 0
2, 7045, Note_on_c, 0, 64, 65
2, 7051, Note_on_c, 0, 40, 62
2, 7063, Note_off_c, 0, 73, 64
2, 7080, Control_c, 0, 64, 127
2, 7080, Control_c, 0, 64, 127
2, 7090, Note_on_c, 0, 66, 69
2, 7104, Note_off_c, 0, 64, 64
2, 7135, Note_on_c, 0, 64, 69
2, 7151, Note_off_c, 0, 66, 64
2, 7153, Control_c, 0, 64, 0
2, 7153, Control_c, 0, 64, 0
2, 7179, Note_on_c, 0, 63, 77
2, 7184, Note_on_c, 0, 54, 56
2, 7194, Control_c, 0, 64, 127
2, 7194, Control_c, 0, 64, 127
2, 7197, Note_off_c, 0, 64, 64
2, 7197, Note_on_c, 0, 57, 29
2, 7219, Note_off_c, 0, 57, 64
2, 7232, Note_off_c, 0, 54, 64
2, 7344, Note_off_c, 0, 40, 64
2, 7356, Note_on_c, 0, 73, 66
2, 7359, Note_on_c, 0, 54, 57
2, 7363, Note_on_c, 0, 57, 39
2, 7384, Note_off_c, 0, 57, 64
2, 7388, Note_off_c, 0, 54, 64
2, 7413, Note_off_c, 0, 63, 64
2, 7531, Note_on_c, 0, 40, 58
2, 7535, Note_on_c, 0, 62, 67
2, 7544, Note_off_c, 0, 73, 64
2, 7550, Control_c, 0, 64, 0
2, 7550, Control_c, 0, 64, 0
2, 7595, Control_c, 0, 64, 127
2, 7595, Control_c, 0, 64, 127
2, 7625, Note_on_c, 0, 71, 59
2, 7649, Note_off_c, 0, 62, 64
2, 7701, Note_on_c, 0, 73, 65
2, 7732, Note_off_c, 0, 71, 64
2, 7770, Note_on_c, 0, 74, 62
2, 7784, Note_off_c, 0, 73, 64
2, 7831, Note_on_c, 0, 73, 50
2, 7837, Note_off_c, 0, 74, 64
2, 7845, Note_on_c, 0, 62, 56
2, 7854, Note_on_c, 0, 56, 49
2, 7854, Note_on_c, 0, 52, 48
2, 7872, Note_off_c, 0, 40, 64
2, 7884, Note_off_c, 0, 56, 64
2, 7884, Note_off_c, 0, 62, 64
2, 7886, Note_off_c, 0, 52, 64
2, 7909, Note_on_c, 0, 71, 52
2, 7912, Note_off_c, 0, 73, 64
2, 7983, Note_on_c, 0, 73, 58
2, 7989, Note_on_c, 0, 45, 47
2, 7992, Control_c, 0, 64, 0
2, 7992, Control_c, 0, 64, 0
2, 8003, Note_off_c, 0, 71, 64
2, 8020, Control_c, 0, 64, 127
2, 8020, Control_c, 0, 64, 127
2, 8048, Note_on_c, 0, 71, 49
2, 8073, Note_off_c, 0, 73, 64
2, 8117, Note_on_c, 0, 57, 21
2, 8120, Note_on_c, 0, 61, 49
2, 8120, Note_on_c, 0, 52, 36
2, 8127, Note_on_c, 0, 69, 60
2, 8146, Note_off_c, 0, 71, 64
2, 8147, Note_off_c, 0, 57, 64
2, 8149, Note_off_c, 0, 52, 64
2, 8161, Note_off_c, 0, 61, 64
2, 8280, Note_off_c, 0, 45, 64
2, 8284, Note_on_c, 0, 40, 44
2, 8291, Note_on_c, 0, 73, 58
2, 8316, Note_off_c, 0, 69, 64
2, 8369, Note_on_c, 0, 74, 52
2, 8386, Note_off_c, 0, 73, 64
2, 8482, Note_on_c, 0, 76, 57
2, 8487, Note_on_c, 0, 33, 49
2, 8498, Control_c, 0, 64, 0
2, 8498, Control_c, 0, 64, 0
2, 8504, Note_off_c, 0, 74, 64
2, 8538, Note_off_c, 0, 40, 64
2, 8566, Control_c, 0, 64, 127
2, 8566, Control_c, 0, 64, 127
2, 8739, Note_on_c, 0, 57, 28
2, 8747, Note_on_c, 0, 55, 25
2, 8748, Note_on_c, 0, 64, 29
2, 8790, Note_off_c, 0, 76, 64
2, 8807, Note_off_c, 0, 64, 64
2, 8814, Note_off_c, 0, 55, 64
2, 8823, Note_off_c, 0, 57, 64
2, 8919, Note_on_c, 0, 78, 51
2, 8928, Note_on_c, 0, 64, 31
2, 8928, Note_on_c, 0, 57, 29
2, 8932, Control_c, 0, 64, 0
2, 8932, Control_c, 0, 64, 0
2, 8942, Note_on_c, 0, 55, 20
2, 8949, Control_c, 0, 64, 127
2, 8949, Control_c, 0, 64, 127
2, 8979, Note_off_c, 0, 55, 64
2, 8984, Note_off_c, 0, 64, 64
2, 8997, Note_on_c, 0, 76, 46
2, 9003, Note_off_c, 0, 57, 64
2, 9032, Note_off_c, 0, 33, 64
2, 9043, Note_off_c, 0, 78, 64
2, 9085, Note_on_c, 0, 75, 41
2, 9093, Note_on_c, 0, 54, 32
2, 9095, Note_on_c, 0, 63, 40
2, 9097, Note_off_c, 0, 76, 64
2, 9097, Note_on_c, 0, 57, 39
2, 9109, Control_c, 0, 64, 0
2, 9109, Control_c, 0, 64, 0
2, 9120, Control_c, 0, 64, 127
2, 9120, Control_c, 0, 64, 127
2, 9145, Note_off_c, 0, 63, 64
2, 9154, Note_off_c, 0, 57, 64
2, 9155, Note_off_c, 0, 54, 64
2, 9194, Note_off_c, 0, 75, 64
2, 9239, Note_on_c, 0, 71, 51
2, 9246, Note_on_c, 0, 63, 35
2, 9246, Note_on_c, 0, 54, 39
2, 9252, Note_on_c, 0, 57, 34
2, 9305, Note_off_c, 0, 57, 64
2, 9305, Note_off_c, 0, 54, 64
2, 9315, Note_on_c, 0, 73, 58
2, 9319, Note_off_c, 0, 63, 64
2, 9336, Note_off_c, 0, 71, 64
2, 9391, Note_on_c, 0, 62, 37
2, 9391, Note_on_c, 0, 57, 43
2, 9391, Control_c, 0, 64, 0
2, 9391, Control_c, 0, 64, 0
2, 9398, Note_off_c, 0, 73, 64
2, 9403, Note_on_c, 0, 74, 48
2, 9404, Note_on_c, 0, 53, 32
2, 9413, Control_c, 0, 64, 127
2, 9413, Control_c, 0, 64, 127
2, 9420, Note_off_c, 0, 62, 64
2, 9426, Note_off_c, 0, 57, 64
2, 9432, Note_off_c, 0, 53, 64
2, 9561, Note_on_c, 0, 62, 51
2, 9565, Note_on_c, 0, 45, 48
2, 9569, Note_off_c, 0, 74, 64
2, 9577, Control_c, 0, 64, 0
2, 9577, Control_c, 0, 64, 0
2, 9592, Control_c, 0, 64, 127
2, 9592, Control_c, 0, 64, 127
2, 9639, Note_on_c, 0, 71, 51
2, 9658, Note_off_c, 0, 62, 64
2, 9707, Note_on_c, 0, 73, 54
2, 9707, Note_on_c, 0, 56, 44
2, 9714, Note_on_c, 0, 52, 43
2, 9717, Control_c, 0, 64, 0
2, 9717, Control_c, 0, 64, 0
2, 9722, Note_on_c, 0, 62, 29
2, 9731, Control_c, 0, 64, 127
2, 9731, Control_c, 0, 64, 127
2, 9738, Note_off_c, 0, 71, 64
2, 9766, Note_off_c, 0, 56, 64
2, 9768, Note_off_c, 0, 62, 64
2, 9776, Note_off_c, 0, 52, 64
2, 9776, Note_on_c, 0, 74, 55
2, 9789, Note_off_c, 0, 73, 64
2, 9843, Note_on_c, 0, 73, 51
2, 9848, Note_on_c, 0, 62, 41
2, 9852, Note_off_c, 0, 74, 64
2, 9853, Note_on_c, 0, 56, 40
2, 9853, Note_on_c, 0, 52, 37
2, 9864, Note_off_c, 0, 45, 64
2, 9878, Note_off_c, 0, 62, 64
2, 9881, Note_off_c, 0, 52, 64
2, 9887, Note_off_c, 0, 56, 64
2, 9917, Note_on_c, 0, 71, 51
2, 9933, Note_off_c, 0, 73, 64
2, 9975, Note_on_c, 0, 45, 58
2, 9986, Note_on_c, 0, 73, 58
2, 9995, Control_c, 0, 64, 0
2, 9995, Control_c, 0, 64, 0
2, 10004, Note_off_c, 0, 71, 64
2, 10020, Control_c, 0, 64, 127
2, 10020, Control_c, 0, 64, 127
2, 10045, Note_on_c, 0, 71, 51
2, 10101, Note_off_c, 0, 73, 64
2, 10114, Note_on_c, 0, 61, 32
2, 10123, Note_off_c, 0, 71, 64
2, 10130, Note_on_c, 0, 69, 57
2, 10137, Note_on_c, 0, 57, 43
2, 10140, Note_on_c, 0, 52, 39
2, 10146, Note_off_c, 0, 61, 64
2, 10159, Note_off_c, 0, 57, 64
2, 10175, Note_off_c, 0, 52, 64
2, 10266, Note_off_c, 0, 45, 64
2, 10285, Note_on_c, 0, 40, 50
2, 10296, Note_on_c, 0, 73, 58
2, 10320, Note_off_c, 0, 69, 64
2, 10369, Note_on_c, 0, 74, 54
2, 10374, Note_off_c, 0, 73, 64
2, 10403, Control_c, 0, 64, 0
2, 10403, Control_c, 0, 64, 0
2, 10468, Note_on_c, 0, 76, 49
2, 10482, Note_on_c, 0, 33, 54
2, 10491, Note_off_c, 0, 74, 64
2, 10506, Note_off_c, 0, 40, 64
2, 10514, Control_c, 0, 64, 127
2, 10514, Control_c, 0, 64, 127
2, 10676, Note_on_c, 0, 64, 20
2, 10676, Note_on_c, 0, 57, 41
2, 10677, Note_on_c, 0, 55, 20
2, 10712, Note_off_c, 0, 76, 64
2, 10736, Note_off_c, 0, 64, 64
2, 10745, Note_off_c, 0, 55, 64
2, 10751, Note_off_c, 0, 57, 64
2, 10840, Note_on_c, 0, 55, 32
2, 10847, Note_on_c, 0, 58, 41
2, 10850, Note_on_c, 0, 64, 32
2, 10856, Note_on_c, 0, 78, 51
2, 10887, Note_off_c, 0, 55, 64
2, 10894, Note_off_c, 0, 78, 64
2, 10894, Note_off_c, 0, 58, 64
2, 10902, Note_off_c, 0, 64, 64
2, 10911, Note_on_c, 0, 76, 48
2, 10938, Note_on_c, 0, 78, 58
2, 10951, Note_off_c, 0, 76, 64
2, 10978, Note_on_c, 0, 76, 55
2, 10997, Note_off_c, 0, 78, 64
2, 11002, Note_off_c, 0, 33, 64
2, 11025, Note_on_c, 0, 54, 29
2, 11025, Control_c, 0, 64, 0
2, 11025, Control_c, 0, 64, 0
2, 11031, Note_on_c, 0, 75, 58
2, 11036, Note_on_c, 0, 63, 42
2, 11043, Note_on_c, 0, 59, 34
2, 11052, Note_off_c, 0, 76, 64
2, 11069, Control_c, 0, 64, 127
2, 11069, Control_c, 0, 64, 127
2, 11092, Note_off_c, 0, 59, 64
2, 11092, Note_off_c, 0, 63, 64
2, 11099, Note_off_c, 0, 54, 64
2, 11176, Note_off_c, 0, 75, 64
2, 11206, Note_on_c, 0, 71, 55
2, 11206, Note_on_c, 0, 63, 40
2, 11206, Note_on_c, 0, 54, 37
2, 11214, Note_on_c, 0, 59, 39
2, 11253, Note_off_c, 0, 59, 64
2, 11256, Note_off_c, 0, 63, 64
2, 11260, Note_off_c, 0, 54, 64
2, 11271, Note_on_c, 0, 73, 58
2, 11299, Note_off_c, 0, 71, 64
2, 11354, Note_off_c, 0, 73, 64
2, 11360, Note_on_c, 0, 59, 37
2, 11367, Note_on_c, 0, 74, 51
2, 11367, Note_on_c, 0, 62, 41
2, 11368, Note_on_c, 0, 53, 35
2, 11375, Note_on_c, 0, 69, 51
2, 11377, Control_c, 0, 64, 0
2, 11377, Control_c, 0, 64, 0
2, 11385, Control_c, 0, 64, 0
2, 11385, Control_c, 0, 64, 0
2, 11406, Control_c, 0, 64, 127
2, 11406, Control_c, 0, 64, 127
2, 11413, Note_off_c, 0, 62, 64
2, 11414, Control_c, 0, 64, 127
2, 11414, Control_c, 0, 64, 127
2, 11426, Note_off_c, 0, 59, 64
2, 11440, Note_off_c, 0, 53, 64
2, 11519, Control_c, 0, 64, 0
2, 11519, Control_c, 0, 64, 0
2, 11524, Note_on_c, 0, 62, 54
2, 11528, Note_off_c, 0, 74, 64
2, 11528, Note_off_c, 0, 69, 64
2, 11531, Note_on_c, 0, 45, 56
2, 11588, Control_c, 0, 64, 127
2, 11588, Control_c, 0, 64, 127
2, 11592, Note_on_c, 0, 71, 49
2, 11606, Note_off_c, 0, 62, 64
2, 11657, Control_c, 0, 64, 0
2, 11657, Control_c, 0, 64, 0
2, 11664, Note_on_c, 0, 68, 52
2, 11664, Note_on_c, 0, 59, 39
2, 11664, Note_on_c, 0, 52, 26
2, 11666, Note_on_c, 0, 62, 44
2, 11675, Note_on_c, 0, 73, 64
2, 11684, Control_c, 0, 64, 127
2, 11684, Control_c, 0, 64, 127
2, 11699, Note_off_c, 0, 52, 64
2, 11709, Note_off_c, 0, 59, 64
2, 11711, Note_off_c, 0, 71, 64
2, 11724, Note_off_c, 0, 62, 64
2, 11756, Note_on_c, 0, 74, 54
2, 11761, Note_off_c, 0, 68, 64
2, 11772, Note_off_c, 0, 73, 64
2, 11806, Note_off_c, 0, 45, 64
2, 11825, Note_on_c, 0, 52, 39
2, 11826, Note_on_c, 0, 56, 41
2, 11831, Note_on_c, 0, 73, 64
2, 11832, Note_on_c, 0, 64, 47
2, 11834, Note_on_c, 0, 62, 28
2, 11838, Control_c, 0, 64, 0
2, 11838, Control_c, 0, 64, 0
2, 11848, Note_off_c, 0, 74, 64
2, 11875, Note_off_c, 0, 56, 64
2, 11875, Control_c, 0, 64, 127
2, 11875, Control_c, 0, 64, 127
2, 11880, Note_off_c, 0, 62, 64
2, 11890, Note_off_c, 0, 52, 64
2, 11905, Note_on_c, 0, 71, 54
2, 11920, Note_off_c, 0, 73, 64
2, 11929, Note_off_c, 0, 64, 64
2, 11932, Control_c, 0, 64, 127
2, 11932, Control_c, 0, 64, 127
2, 11977, Note_on_c, 0, 73, 63
2, 11977, Note_on_c, 0, 45, 51
2, 11989, Note_off_c, 0, 71, 64
2, 11990, Control_c, 0, 64, 0
2, 11990, Control_c, 0, 64, 0
2, 12025, Control_c, 0, 64, 127
2, 12025, Control_c, 0, 64, 127
2, 12038, Note_on_c, 0, 71, 58
2, 12079, Note_off_c, 0, 73, 64
2, 12111, Control_c, 0, 64, 0
2, 12111, Control_c, 0, 64, 0
2, 12117, Note_off_c, 0, 71, 64
2, 12117, Note_on_c, 0, 69, 64
2, 12121, Note_on_c, 0, 57, 35
2, 12127, Note_on_c, 0, 61, 47
2, 12131, Note_on_c, 0, 52, 20
2, 12156, Control_c, 0, 64, 127
2, 12156, Control_c, 0, 64, 127
2, 12169, Note_off_c, 0, 61, 64
2, 12177, Note_off_c, 0, 57, 64
2, 12182, Note_off_c, 0, 52, 64
2, 12262, Note_off_c, 0, 45, 64
2, 12300, Note_on_c, 0, 49, 42
2, 12304, Note_on_c, 0, 59, 44
2, 12309, Note_off_c, 0, 69, 64
2, 12315, Note_on_c, 0, 53, 34
2, 12329, Note_on_c, 0, 68, 63
2, 12335, Control_c, 0, 64, 0
2, 12335, Control_c, 0, 64, 0
2, 12358, Note_off_c, 0, 59, 64
2, 12366, Note_off_c, 0, 53, 64
2, 12371, Control_c, 0, 64, 127
2, 12371, Control_c, 0, 64, 127
2, 12377, Note_off_c, 0, 49, 64
2, 12404, Note_on_c, 0, 69, 70
2, 12408, Note_off_c, 0, 68, 64
2, 12493, Note_on_c, 0, 66, 70
2, 12502, Note_off_c, 0, 69, 64
2, 12504, Note_on_c, 0, 42, 52
2, 12518, Control_c, 0, 64, 0
2, 12518, Control_c, 0, 64, 0
2, 12552, Control_c, 0, 64, 127
2, 12552, Control_c, 0, 64, 127
2, 12680, Note_on_c, 0, 61, 50
2, 12680, Note_on_c, 0, 49, 44
2, 12684, Note_on_c, 0, 57, 44
2, 12688, Note_on_c, 0, 54, 50
2, 12730, Note_off_c, 0, 66, 64
2, 12732, Note_off_c, 0, 49, 64
2, 12732, Note_off_c, 0, 61, 64
2, 12736, Note_off_c, 0, 57, 64
2, 12740, Note_off_c, 0, 54, 64
2, 12744, Note_on_c, 0, 68, 66
2, 12798, Note_off_c, 0, 68, 64
2, 12805, Note_off_c, 0, 42, 64
2, 12816, Note_on_c, 0, 57, 44
2, 12820, Note_on_c, 0, 69, 69
2, 12820, Note_on_c, 0, 61, 50
2, 12824, Note_on_c, 0, 54, 44
2, 12830, Note_on_c, 0, 49, 46
2, 12868, Note_off_c, 0, 57, 64
2, 12872, Note_off_c, 0, 61, 64
2, 12876, Note_off_c, 0, 54, 64
2, 12882, Note_off_c, 0, 49, 64
2, 12897, Note_on_c, 0, 72, 62
2, 12907, Note_off_c, 0, 69, 64
2, 12928, Control_c, 0, 64, 0
2, 12928, Control_c, 0, 64, 0
2, 12948, Note_on_c, 0, 42, 74
2, 12949, Note_on_c, 0, 74, 71
2, 12957, Control_c, 0, 64, 127
2, 12957, Control_c, 0, 64, 127
2, 12961, Note_off_c, 0, 72, 64
2, 13006, Note_on_c, 0, 76, 56
2, 13011, Note_off_c, 0, 74, 64
2, 13055, Note_on_c, 0, 74, 71
2, 13059, Control_c, 0, 64, 0
2, 13059, Control_c, 0, 64, 0
2, 13072, Note_off_c, 0, 76, 64
2, 13088, Note_on_c, 0, 61, 74
2, 13088, Note_on_c, 0, 57, 36
2, 13090, Note_on_c, 0, 73, 73
2, 13090, Note_on_c, 0, 66, 74
2, 13108, Note_off_c, 0, 74, 64
2, 13109, Control_c, 0, 64, 127
2, 13109, Control_c, 0, 64, 127
2, 13140, Note_off_c, 0, 57, 64
2, 13140, Note_off_c, 0, 61, 64
2, 13140, Note_off_c, 0, 42, 64
2, 13142, Note_off_c, 0, 66, 64
2, 13241, Note_off_c, 0, 73, 64
2, 13254, Note_on_c, 0, 61, 36
2, 13262, Note_on_c, 0, 78, 67
2, 13262, Note_on_c, 0, 57, 69
2, 13266, Note_on_c, 0, 66, 63
2, 13306, Note_off_c, 0, 61, 64
2, 13314, Note_off_c, 0, 57, 64
2, 13318, Note_off_c, 0, 66, 64
2, 13339, Control_c, 0, 64, 127
2, 13339, Control_c, 0, 64, 127
2, 13401, Note_on_c, 0, 47, 58
2, 13411, Note_on_c, 0, 73, 80
2, 13432, Note_off_c, 0, 78, 64
2, 13457, Note_on_c, 0, 74, 56
2, 13462, Note_off_c, 0, 73, 64
2, 13492, Note_on_c, 0, 73, 69
2, 13509, Note_off_c, 0, 74, 64
2, 13518, Control_c, 0, 64, 0
2, 13518, Control_c, 0, 64, 0
2, 13524, Note_on_c, 0, 64, 66
2, 13525, Note_on_c, 0, 54, 69
2, 13532, Note_on_c, 0, 72, 58
2, 13547, Note_off_c, 0, 73, 64
2, 13554, Note_off_c, 0, 64, 64
2, 13555, Note_off_c, 0, 54, 64
2, 13561, Control_c, 0, 64, 127
2, 13561, Control_c, 0, 64, 127
2, 13678, Note_off_c, 0, 72, 64
2, 13680, Note_off_c, 0, 47, 64
2, 13682, Note_on_c, 0, 54, 36
2, 13684, Note_on_c, 0, 71, 65
2, 13685, Note_on_c, 0, 78, 73
2, 13688, Note_on_c, 0, 62, 41
2, 13727, Note_off_c, 0, 62, 64
2, 13734, Note_off_c, 0, 54, 64
2, 13809, Note_off_c, 0, 71, 64
2, 13828, Note_on_c, 0, 42, 73
2, 13832, Note_off_c, 0, 78, 64
2, 13835, Note_on_c, 0, 71, 62
2, 13839, Control_c, 0, 64, 0
2, 13839, Control_c, 0, 64, 0
2, 13852, Control_c, 0, 64, 127
2, 13852, Control_c, 0, 64, 127
2, 13873, Note_on_c, 0, 73, 71
2, 13887, Note_off_c, 0, 71, 64
2, 13911, Note_on_c, 0, 71, 62
2, 13931, Note_off_c, 0, 73, 64
2, 13957, Note_on_c, 0, 70, 73
2, 13957, Note_on_c, 0, 61, 71
2, 13957, Control_c, 0, 64, 0
2, 13957, Control_c, 0, 64, 0
2, 13966, Note_on_c, 0, 54, 55
2, 13977, Note_off_c, 0, 71, 64
2, 13987, Control_c, 0, 64, 127
2, 13987, Control_c, 0, 64, 127
2, 13995, Note_off_c, 0, 61, 64
2, 13999, Note_off_c, 0, 54, 64
2, 14046, Note_off_c, 0, 70, 64
2, 14102, Note_on_c, 0, 69, 69
2, 14104, Note_off_c, 0, 42, 64
2, 14106, Note_on_c, 0, 73, 69
2, 14113, Note_on_c, 0, 54, 56
2, 14116, Note_on_c, 0, 61, 50
2, 14172, Note_off_c, 0, 61, 64
2, 14175, Note_off_c, 0, 54, 64
2, 14231, Note_off_c, 0, 69, 64
2, 14243, Note_off_c, 0, 73, 64
2, 14245, Note_on_c, 0, 69, 70
2, 14260, Control_c, 0, 64, 0
2, 14260, Control_c, 0, 64, 0
2, 14265, Note_on_c, 0, 49, 69
2, 14283, Control_c, 0, 64, 127
2, 14283, Control_c, 0, 64, 127
2, 14301, Note_off_c, 0, 69, 64
2, 14304, Note_on_c, 0, 71, 56
2, 14337, Note_on_c, 0, 69, 59
2, 14363, Note_off_c, 0, 71, 64
2, 14378, Control_c, 0, 64, 0
2, 14378, Control_c, 0, 64, 0
2, 14382, Note_on_c, 0, 61, 36
2, 14382, Note_on_c, 0, 53, 57
2, 14389, Note_on_c, 0, 68, 83
2, 14396, Control_c, 0, 64, 127
2, 14396, Control_c, 0, 64, 127
2, 14416, Note_off_c, 0, 69, 64
2, 14422, Note_off_c, 0, 61, 64
2, 14453, Note_off_c, 0, 53, 64
2, 14484, Note_off_c, 0, 68, 64
2, 14518, Control_c, 0, 64, 0
2, 14518, Control_c, 0, 64, 0
2, 14524, Note_on_c, 0, 59, 63
2, 14524, Note_on_c, 0, 53, 64
2, 14528, Note_on_c, 0, 73, 73
2, 14538, Control_c, 0, 64, 127
2, 14538, Control_c, 0, 64, 127
2, 14546, Note_off_c, 0, 59, 64
2, 14552, Note_off_c, 0, 53, 64
2, 14605, Note_off_c, 0, 49, 64
2, 14663, Note_on_c, 0, 68, 69
2, 14671, Note_on_c, 0, 42, 59
2, 14675, Note_off_c, 0, 73, 64
2, 14680, Control_c, 0, 64, 0
2, 14680, Control_c, 0, 64, 0
2, 14708, Note_on_c, 0, 69, 57
2, 14719, Control_c, 0, 64, 127
2, 14719, Control_c, 0, 64, 127
2, 14721, Note_off_c, 0, 68, 64
2, 14751, Note_on_c, 0, 68, 62
2, 14766, Note_off_c, 0, 69, 64
2, 14793, Note_on_c, 0, 67, 67
2, 14802, Control_c, 0, 64, 0
2, 14802, Control_c, 0, 64, 0
2, 14807, Note_off_c, 0, 68, 64
2, 14810, Note_on_c, 0, 57, 71
2, 14830, Control_c, 0, 64, 127
2, 14830, Control_c, 0, 64, 127
2, 14846, Note_off_c, 0, 57, 64
2, 14915, Note_off_c, 0, 67, 64
2, 14949, Note_off_c, 0, 42, 64
2, 14958, Note_on_c, 0, 51, 56
2, 14960, Note_on_c, 0, 57, 41
2, 14961, Note_on_c, 0, 73, 73
2, 14969, Note_on_c, 0, 66, 67
2, 14969, Note_on_c, 0, 61, 47
2, 14973, Control_c, 0, 64, 0
2, 14973, Control_c, 0, 64, 0
2, 14978, Control_c, 0, 64, 0
2, 14978, Control_c, 0, 64, 0
2, 15018, Control_c, 0, 64, 127
2, 15018, Control_c, 0, 64, 127
2, 15022, Note_off_c, 0, 51, 64
2, 15052, Note_off_c, 0, 57, 64
2, 15072, Note_off_c, 0, 61, 64
2, 15091, Note_off_c, 0, 66, 64
2, 15135, Note_on_c, 0, 66, 64
2, 15140, Control_c, 0, 64, 0
2, 15140, Control_c, 0, 64, 0
2, 15145, Note_on_c, 0, 44, 50
2, 15150, Note_off_c, 0, 73, 64
2, 15170, Note_on_c, 0, 68, 56
2, 15180, Control_c, 0, 64, 127
2, 15180, Control_c, 0, 64, 127
2, 15186, Note_off_c, 0, 66, 64
2, 15212, Note_on_c, 0, 66, 56
2, 15232, Note_off_c, 0, 68, 64
2, 15273, Control_c, 0, 64, 0
2, 15273, Control_c, 0, 64, 0
2, 15280, Note_on_c, 0, 65, 52
2, 15284, Note_off_c, 0, 66, 64
2, 15284, Note_on_c, 0, 56, 56
2, 15323, Control_c, 0, 64, 127
2, 15323, Control_c, 0, 64, 127
2, 15344, Note_on_c, 0, 64, 52
2, 15346, Note_off_c, 0, 56, 64
2, 15347, Note_on_c, 0, 68, 62
2, 15371, Control_c, 0, 64, 127
2, 15371, Control_c, 0, 64, 127
2, 15372, Note_off_c, 0, 65, 64
2, 15421, Note_off_c, 0, 68, 64
2, 15426, Note_off_c, 0, 44, 64
2, 15428, Note_on_c, 0, 63, 70
2, 15432, Note_off_c, 0, 64, 64
2, 15441, Note_on_c, 0, 54, 58
2, 15446, Note_on_c, 0, 60, 59
2, 15467, Note_off_c, 0, 60, 64
2, 15473, Note_off_c, 0, 54, 64
2, 15511, Note_on_c, 0, 68, 63
2, 15527, Note_off_c, 0, 63, 64
2, 15572, Note_off_c, 0, 68, 64
2, 15582, Note_on_c, 0, 61, 69
2, 15586, Note_on_c, 0, 37, 60
2, 15602, Control_c, 0, 64, 0
2, 15602, Control_c, 0, 64, 0
2, 15625, Control_c, 0, 64, 127
2, 15625, Control_c, 0, 64, 127
2, 15658, Note_on_c, 0, 62, 62
2, 15666, Note_off_c, 0, 61, 64
2, 15686, Note_on_c, 0, 64, 60
2, 15699, Note_off_c, 0, 62, 64
2, 15722, Note_on_c, 0, 62, 67
2, 15738, Note_off_c, 0, 64, 64
2, 15740, Control_c, 0, 64, 0
2, 15740, Control_c, 0, 64, 0
2, 15753, Note_on_c, 0, 49, 55
2, 15762, Note_on_c, 0, 59, 59
2, 15765, Note_on_c, 0, 61, 71
2, 15768, Note_on_c, 0, 53, 40
2, 15772, Note_off_c, 0, 62, 64
2, 15784, Control_c, 0, 64, 127
2, 15784, Control_c, 0, 64, 127
2, 15800, Note_off_c, 0, 49, 64
2, 15802, Note_off_c, 0, 59, 64
2, 15807, Note_off_c, 0, 53, 64
2, 15830, Note_off_c, 0, 61, 64
2, 15843, Note_on_c, 0, 62, 71
2, 15847, Note_on_c, 0, 71, 70
2, 15872, Note_off_c, 0, 37, 64
2, 15898, Note_off_c, 0, 62, 64
2, 15926, Note_on_c, 0, 56, 41
2, 15927, Note_on_c, 0, 61, 79
2, 15930, Note_on_c, 0, 69, 71
2, 15934, Note_on_c, 0, 59, 64
2, 15934, Note_on_c, 0, 49, 59
2, 15936, Note_off_c, 0, 71, 64
2, 15955, Note_off_c, 0, 59, 64
2, 15965, Note_off_c, 0, 56, 64
2, 15968, Note_off_c, 0, 49, 64
2, 15973, Note_off_c, 0, 61, 64
2, 16010, Note_on_c, 0, 68, 81
2, 16010, Note_on_c, 0, 65, 82
2, 16016, Note_off_c, 0, 69, 64
2, 16048, Control_c, 0, 64, 127
2, 16048, Control_c, 0, 64, 127
2, 16110, Note_on_c, 0, 66, 90
2, 16115, Note_off_c, 0, 65, 64
2, 16115, Note_off_c, 0, 68, 64
2, 16120, Note_on_c, 0, 42, 80
2, 16133, Control_c, 0, 64, 0
2, 16133, Control_c, 0, 64, 0
2, 16174, Control_c, 0, 64, 127
2, 16174, Control_c, 0, 64, 127
2, 16261, Control_c, 0, 64, 0
2, 16261, Control_c, 0, 64, 0
2, 16270, Note_on_c, 0, 56, 27
2, 16273, Note_on_c, 0, 68, 62
2, 16282, Note_on_c, 0, 49, 50
2, 16284, Note_off_c, 0, 56, 64
2, 16284, Note_off_c, 0, 66, 64
2, 16284, Note_on_c, 0, 61, 59
2, 16296, Control_c, 0, 64, 127
2, 16296, Control_c, 0, 64, 127
2, 16329, Note_off_c, 0, 68, 64
2, 16332, Note_on_c, 0, 66, 77
2, 16340, Note_off_c, 0, 49, 64
2, 16344, Note_off_c, 0, 61, 64
2, 16400, Note_on_c, 0, 69, 50
2, 16404, Note_off_c, 0, 66, 64
2, 16411, Note_on_c, 0, 61, 57
2, 16424, Note_off_c, 0, 42, 64
2, 16426, Note_on_c, 0, 49, 55
2, 16438, Note_on_c, 0, 56, 27
2, 16449, Note_off_c, 0, 61, 64
2, 16452, Note_off_c, 0, 56, 64
2, 16453, Control_c, 0, 64, 0
2, 16453, Control_c, 0, 64, 0
2, 16456, Note_off_c, 0, 49, 64
2, 16473, Note_on_c, 0, 72, 63
2, 16488, Note_off_c, 0, 69, 64
2, 16533, Note_on_c, 0, 74, 59
2, 16536, Control_c, 0, 64, 0
2, 16536, Control_c, 0, 64, 0
2, 16545, Note_on_c, 0, 42, 77
2, 16548, Note_off_c, 0, 72, 64
2, 16554, Control_c, 0, 64, 127
2, 16554, Control_c, 0, 64, 127
2, 16580, Note_on_c, 0, 76, 62
2, 16594, Note_off_c, 0, 74, 64
2, 16616, Note_on_c, 0, 74, 73
2, 16625, Note_off_c, 0, 76, 64
2, 16654, Control_c, 0, 64, 0
2, 16654, Control_c, 0, 64, 0
2, 16662, Note_on_c, 0, 73, 85
2, 16665, Note_on_c, 0, 64, 71
2, 16665, Note_on_c, 0, 54, 62
2, 16672, Note_on_c, 0, 58, 71
2, 16676, Note_off_c, 0, 74, 64
2, 16694, Note_off_c, 0, 64, 64
2, 16698, Note_off_c, 0, 58, 64
2, 16698, Note_off_c, 0, 54, 64
2, 16710, Control_c, 0, 64, 127
2, 16710, Control_c, 0, 64, 127
2, 16817, Note_off_c, 0, 42, 64
2, 16859, Note_on_c, 0, 78, 73
2, 16859, Note_on_c, 0, 64, 65
2, 16865, Note_off_c, 0, 73, 64
2, 16865, Note_on_c, 0, 54, 46
2, 16870, Note_on_c, 0, 58, 57
2, 16873, Note_on_c, 0, 66, 73
2, 16895, Note_off_c, 0, 64, 64
2, 16898, Note_off_c, 0, 58, 64
2, 16902, Note_off_c, 0, 54, 64
2, 17001, Note_on_c, 0, 47, 59
2, 17018, Note_off_c, 0, 66, 64
2, 17026, Note_on_c, 0, 73, 66
2, 17048, Note_off_c, 0, 78, 64
2, 17070, Note_off_c, 0, 73, 64
2, 17070, Note_on_c, 0, 74, 58
2, 17101, Note_on_c, 0, 73, 69
2, 17122, Note_off_c, 0, 74, 64
2, 17130, Control_c, 0, 64, 0
2, 17130, Control_c, 0, 64, 0
2, 17136, Note_on_c, 0, 64, 62
2, 17138, Note_on_c, 0, 54, 62
2, 17147, Note_on_c, 0, 72, 69
2, 17160, Note_off_c, 0, 73, 64
2, 17162, Control_c, 0, 64, 127
2, 17162, Control_c, 0, 64, 127
2, 17170, Note_off_c, 0, 64, 64
2, 17176, Note_off_c, 0, 54, 64
2, 17288, Note_off_c, 0, 72, 64
2, 17299, Note_off_c, 0, 47, 64
2, 17301, Note_on_c, 0, 62, 71
2, 17304, Note_on_c, 0, 78, 73
2, 17308, Note_on_c, 0, 71, 69
2, 17308, Note_on_c, 0, 54, 58
2, 17336, Note_off_c, 0, 62, 64
2, 17342, Note_off_c, 0, 54, 64
2, 17355, Note_off_c, 0, 71, 64
2, 17442, Note_off_c, 0, 78, 64
2, 17442, Note_on_c, 0, 71, 71
2, 17450, Note_on_c, 0, 42, 73
2, 17486, Note_on_c, 0, 73, 69
2, 17500, Note_off_c, 0, 71, 64
2, 17525, Note_on_c, 0, 71, 59
2, 17539, Note_off_c, 0, 73, 64
2, 17556, Note_on_c, 0, 70, 60
2, 17570, Note_on_c, 0, 54, 62
2, 17575, Note_on_c, 0, 61, 74
2, 17576, Control_c, 0, 64, 0
2, 17576, Control_c, 0, 64, 0
2, 17582, Note_off_c, 0, 71, 64
2, 17605, Note_off_c, 0, 61, 64
2, 17605, Note_off_c, 0, 54, 64
2, 17611, Control_c, 0, 64, 127
2, 17611, Control_c, 0, 64, 127
2, 17640, Note_off_c, 0, 70, 64
2, 17726, Note_off_c, 0, 42, 64
2, 17726, Note_on_c, 0, 73, 69
2, 17729, Note_on_c, 0, 69, 71
2, 17729, Note_on_c, 0, 61, 37
2, 17736, Note_on_c, 0, 54, 54
2, 17746, Control_c, 0, 64, 0
2, 17746, Control_c, 0, 64, 0
2, 17781, Control_c, 0, 64, 127
2, 17781, Control_c, 0, 64, 127
2, 17844, Note_on_c, 0, 50, 59
2, 17848, Note_off_c, 0, 61, 64
2, 17852, Note_off_c, 0, 54, 64
2, 17906, Note_off_c, 0, 69, 64
2, 17919, Note_on_c, 0, 66, 70
2, 17941, Note_off_c, 0, 73, 64
2, 17953, Control_c, 0, 64, 0
2, 17953, Control_c, 0, 64, 0
2, 18015, Control_c, 0, 64, 127
2, 18015, Control_c, 0, 64, 127
2, 18089, Note_on_c, 0, 61, 55
2, 18097, Note_on_c, 0, 54, 44
2, 18144, Note_on_c, 0, 68, 59
2, 18147, Note_off_c, 0, 61, 64
2, 18159, Note_off_c, 0, 54, 64
2, 18161, Note_off_c, 0, 66, 64
2, 18226, Note_on_c, 0, 69, 73
2, 18233, Note_off_c, 0, 68, 64
2, 18236, Note_on_c, 0, 54, 49
2, 18236, Note_on_c, 0, 59, 57
2, 18300, Note_off_c, 0, 59, 64
2, 18303, Note_on_c, 0, 71, 59
2, 18309, Note_off_c, 0, 69, 64
2, 18322, Note_off_c, 0, 54, 64
2, 18353, Note_off_c, 0, 71, 64
2, 18355, Note_off_c, 0, 50, 64
2, 18357, Control_c, 0, 64, 0
2, 18357, Control_c, 0, 64, 0
2, 18364, Note_on_c, 0, 69, 69
2, 18378, Note_on_c, 0, 49, 62
2, 18396, Control_c, 0, 64, 127
2, 18396, Control_c, 0, 64, 127
2, 18403, Note_on_c, 0, 71, 69
2, 18408, Note_off_c, 0, 69, 64
2, 18451, Note_on_c, 0, 69, 74
2, 18462, Note_off_c, 0, 71, 64
2, 18477, Control_c, 0, 64, 0
2, 18477, Control_c, 0, 64, 0
2, 18492, Note_on_c, 0, 68, 78
2, 18495, Note_on_c, 0, 54, 55
2, 18507, Note_on_c, 0, 59, 50
2, 18512, Note_off_c, 0, 69, 64
2, 18528, Control_c, 0, 64, 127
2, 18528, Control_c, 0, 64, 127
2, 18550, Note_off_c, 0, 59, 64
2, 18552, Note_off_c, 0, 54, 64
2, 18681, Note_on_c, 0, 53, 41
2, 18686, Note_on_c, 0, 59, 36
2, 18692, Control_c, 0, 64, 0
2, 18692, Control_c, 0, 64, 0
2, 18705, Note_on_c, 0, 73, 66
2, 18717, Note_off_c, 0, 68, 64
2, 18741, Control_c, 0, 64, 127
2, 18741, Control_c, 0, 64, 127
2, 18826, Note_off_c, 0, 49, 64
2, 18848, Note_on_c, 0, 50, 46
2, 18862, Note_off_c, 0, 53, 64
2, 18894, Note_off_c, 0, 59, 64
2, 18912, Note_on_c, 0, 66, 74
2, 18930, Note_off_c, 0, 73, 64
2, 18939, Control_c, 0, 64, 0
2, 18939, Control_c, 0, 64, 0
2, 18992, Control_c, 0, 64, 127
2, 18992, Control_c, 0, 64, 127
2, 19072, Note_on_c, 0, 61, 39
2, 19076, Note_on_c, 0, 54, 47
2, 19128, Note_on_c, 0, 68, 62
2, 19134, Note_off_c, 0, 61, 64
2, 19147, Note_off_c, 0, 54, 64
2, 19154, Note_off_c, 0, 66, 64
2, 19192, Note_off_c, 0, 68, 64
2, 19205, Note_on_c, 0, 69, 64
2, 19225, Note_on_c, 0, 54, 47
2, 19294, Note_on_c, 0, 73, 40
2, 19318, Note_on_c, 0, 71, 72
2, 19327, Note_off_c, 0, 54, 64
2, 19333, Note_off_c, 0, 73, 64
2, 19344, Note_off_c, 0, 69, 64
2, 19391, Note_off_c, 0, 71, 64
2, 19405, Note_on_c, 0, 69, 69
2, 19414, Note_off_c, 0, 50, 64
2, 19422, Note_on_c, 0, 49, 58
2, 19431, Control_c, 0, 64, 0
2, 19431, Control_c, 0, 64, 0
2, 19473, Note_on_c, 0, 71, 66
2, 19476, Control_c, 0, 64, 127
2, 19476, Control_c, 0, 64, 127
2, 19482, Note_off_c, 0, 69, 64
2, 19520, Note_on_c, 0, 69, 59
2, 19528, Note_off_c, 0, 71, 64
2, 19572, Note_on_c, 0, 54, 36
2, 19581, Note_on_c, 0, 59, 47
2, 19606, Note_on_c, 0, 68, 82
2, 19640, Note_off_c, 0, 69, 64
2, 19678, Note_off_c, 0, 59, 64
2, 19846, Note_off_c, 0, 54, 64
2, 19874, Note_off_c, 0, 68, 64
2, 19879, Note_on_c, 0, 53, 31
2, 19884, Note_on_c, 0, 73, 64
2, 19890, Note_on_c, 0, 59, 29
2, 19902, Control_c, 0, 64, 0
2, 19902, Control_c, 0, 64, 0
2, 19948, Control_c, 0, 64, 127
2, 19948, Control_c, 0, 64, 127
2, 20026, Note_off_c, 0, 49, 64
2, 20064, Note_on_c, 0, 50, 28
2, 20082, Note_off_c, 0, 53, 64
2, 20116, Note_on_c, 0, 66, 77
2, 20124, Note_off_c, 0, 73, 64
2, 20125, Note_off_c, 0, 59, 64
2, 20148, Control_c, 0, 64, 0
2, 20148, Control_c, 0, 64, 0
2, 20203, Control_c, 0, 64, 127
2, 20203, Control_c, 0, 64, 127
2, 20314, Note_on_c, 0, 54, 43
2, 20318, Note_on_c, 0, 61, 29
2, 20374, Note_off_c, 0, 66, 64
2, 20381, Note_on_c, 0, 68, 59
2, 20387, Note_off_c, 0, 61, 64
2, 20389, Note_off_c, 0, 54, 64
2, 20455, Note_off_c, 0, 68, 64
2, 20485, Note_on_c, 0, 69, 59
2, 20501, Note_on_c, 0, 54, 27
2, 20508, Note_on_c, 0, 59, 29
2, 20563, Note_on_c, 0, 71, 60
2, 20576, Note_off_c, 0, 54, 64
2, 20583, Note_off_c, 0, 59, 64
2, 20589, Note_off_c, 0, 69, 64
2, 20625, Note_off_c, 0, 50, 64
2, 20674, Note_on_c, 0, 35, 56
2, 20707, Control_c, 0, 64, 0
2, 20707, Control_c, 0, 64, 0
2, 20725, Note_on_c, 0, 73, 64
2, 20753, Control_c, 0, 64, 127
2, 20753, Control_c, 0, 64, 127
2, 20763, Note_off_c, 0, 71, 64
2, 20884, Note_on_c, 0, 76, 64
2, 20907, Note_off_c, 0, 73, 64
2, 20971, Note_on_c, 0, 74, 64
2, 20973, Note_on_c, 0, 66, 29
2, 20979, Control_c, 0, 64, 0
2, 20979, Control_c, 0, 64, 0
2, 20982, Note_on_c, 0, 59, 3
2, 20982, Note_on_c, 0, 62, 3
2, 20983, Note_on_c, 0, 56, 41
2, 20988, Note_off_c, 0, 76, 64
2, 21025, Control_c, 0, 64, 127
2, 21025, Control_c, 0, 64, 127
2, 21106, Note_off_c, 0, 74, 64
2, 21149, Note_off_c, 0, 66, 64
2, 21158, Note_off_c, 0, 62, 64
2, 21158, Note_off_c, 0, 59, 64
2, 21159, Note_off_c, 0, 56, 64
2, 21256, Note_off_c, 0, 35, 64
2, 21283, Note_on_c, 0, 66, 77
2, 21335, Note_off_c, 0, 66, 64
2, 21387, Note_on_c, 0, 66, 62
2, 21486, Note_on_c, 0, 65, 66
2, 21507, Note_off_c, 0, 66, 64
2, 21591, Note_on_c, 0, 69, 62
2, 21592, Note_on_c, 0, 37, 55
2, 21612, Note_off_c, 0, 65, 64
2, 21614, Control_c, 0, 64, 0
2, 21614, Control_c, 0, 64, 0
2, 21676, Control_c, 0, 64, 127
2, 21676, Control_c, 0, 64, 127
2, 21807, Note_on_c, 0, 49, 46
2, 21813, Note_on_c, 0, 65, 56
2, 21823, Note_on_c, 0, 59, 29
2, 21826, Note_off_c, 0, 37, 64
2, 21856, Note_off_c, 0, 49, 64
2, 21885, Note_off_c, 0, 59, 64
2, 21925, Note_on_c, 0, 68, 62
2, 21930, Note_off_c, 0, 69, 64
2, 21953, Note_off_c, 0, 65, 64
2, 22054, Note_on_c, 0, 59, 39
2, 22080, Note_on_c, 0, 70, 58
2, 22089, Note_off_c, 0, 68, 64
2, 22090, Note_on_c, 0, 65, 66
2, 22120, Control_c, 0, 64, 0
2, 22120, Control_c, 0, 64, 0
2, 22154, Control_c, 0, 64, 127
2, 22154, Control_c, 0, 64, 127
2, 22228, Note_off_c, 0, 70, 64
2, 22240, Note_on_c, 0, 71, 64
2, 22357, Note_on_c, 0, 72, 63
2, 22371, Note_off_c, 0, 71, 64
2, 22447, Note_on_c, 0, 73, 60
2, 22483, Note_off_c, 0, 72, 64
2, 22561, Note_on_c, 0, 77, 63
2, 22581, Control_c, 0, 64, 0
2, 22581, Control_c, 0, 64, 0
2, 22589, Note_off_c, 0, 73, 64
2, 22614, Control_c, 0, 64, 127
2, 22614, Control_c, 0, 64, 127
2, 22634, Note_off_c, 0, 65, 64
2, 22673, Note_off_c, 0, 59, 64
2, 22690, Note_on_c, 0, 75, 58
2, 22695, Note_off_c, 0, 77, 64
2, 22699, Note_on_c, 0, 71, 50
2, 22747, Note_off_c, 0, 75, 64
2, 22778, Note_off_c, 0, 71, 64
2, 22862, Note_on_c, 0, 73, 60
2, 22866, Note_on_c, 0, 42, 49
2, 22866, Note_on_c, 0, 70, 41
2, 22897, Control_c, 0, 64, 0
2, 22897, Control_c, 0, 64, 0
2, 22948, Control_c, 0, 64, 127
2, 22948, Control_c, 0, 64, 127
2, 23047, Note_off_c, 0, 73, 64
2, 23067, Note_off_c, 0, 70, 64
2, 23085, Note_on_c, 0, 49, 48
2, 23106, Note_off_c, 0, 42, 64
2, 23225, Note_on_c, 0, 69, 50
2, 23234, Note_on_c, 0, 72, 50
2, 23270, Note_off_c, 0, 49, 64
2, 23278, Control_c, 0, 64, 0
2, 23278, Control_c, 0, 64, 0
2, 23286, Note_on_c, 0, 61, 56
2, 23288, Note_off_c, 0, 69, 64
2, 23292, Note_on_c, 0, 51, 48
2, 23307, Note_off_c, 0, 72, 64
2, 23326, Control_c, 0, 64, 127
2, 23326, Control_c, 0, 64, 127
2, 23432, Note_on_c, 0, 68, 56
2, 23483, Note_off_c, 0, 61, 64
2, 23492, Note_on_c, 0, 71, 59
2, 23498, Note_on_c, 0, 53, 52
2, 23501, Note_off_c, 0, 51, 64
2, 23508, Control_c, 0, 64, 0
2, 23508, Control_c, 0, 64, 0
2, 23515, Note_off_c, 0, 68, 64
2, 23545, Control_c, 0, 64, 127
2, 23545, Control_c, 0, 64, 127
2, 23611, Note_off_c, 0, 71, 64
2, 23637, Note_off_c, 0, 53, 64
2, 23640, Note_on_c, 0, 70, 51
2, 23658, Note_on_c, 0, 66, 42
2, 23690, Note_on_c, 0, 54, 54
2, 23701, Control_c, 0, 64, 0
2, 23701, Control_c, 0, 64, 0
2, 23702, Note_on_c, 0, 61, 69
2, 23719, Note_off_c, 0, 66, 64
2, 23727, Note_off_c, 0, 70, 64
2, 23748, Control_c, 0, 64, 127
2, 23748, Control_c, 0, 64, 127
2, 23766, Note_off_c, 0, 61, 64
2, 23878, Note_on_c, 0, 70, 55
2, 23878, Note_on_c, 0, 66, 55
2, 23911, Note_off_c, 0, 66, 64
2, 23911, Note_off_c, 0, 70, 64
2, 23925, Note_off_c, 0, 54, 64
2, 23930, Note_on_c, 0, 64, 63
2, 23930, Control_c, 0, 64, 0
2, 23930, Control_c, 0, 64, 0
2, 23939, Note_on_c, 0, 61, 43
2, 23942, Note_on_c, 0, 70, 60
2, 23990, Control_c, 0, 64, 127
2, 23990, Control_c, 0, 64, 127
2, 24041, Note_off_c, 0, 64, 64
2, 24080, Note_off_c, 0, 70, 64
2, 24146, Note_on_c, 0, 66, 58
2, 24151, Note_on_c, 0, 63, 65
2, 24156, Note_off_c, 0, 61, 64
2, 24158, Control_c, 0, 64, 0
2, 24158, Control_c, 0, 64, 0
2, 24224, Control_c, 0, 64, 127
2, 24224, Control_c, 0, 64, 127
2, 24368, Note_on_c, 0, 47, 58
2, 24378, Control_c, 0, 64, 0
2, 24378, Control_c, 0, 64, 0
2, 24421, Control_c, 0, 64, 127
2, 24421, Control_c, 0, 64, 127
2, 24473, Note_off_c, 0, 66, 64
2, 24496, Note_off_c, 0, 63, 64
2, 24502, Note_on_c, 0, 71, 32
2, 24505, Note_on_c, 0, 75, 54
2, 24574, Note_on_c, 0, 66, 60
2, 24582, Note_off_c, 0, 71, 64
2, 24582, Note_on_c, 0, 63, 44
2, 24582, Note_on_c, 0, 59, 44
2, 24582, Note_on_c, 0, 54, 44
2, 24585, Note_off_c, 0, 75, 64
2, 24626, Note_off_c, 0, 47, 64
2, 24715, Note_on_c, 0, 73, 59
2, 24784, Control_c, 0, 64, 0
2, 24784, Control_c, 0, 64, 0
2, 24790, Note_on_c, 0, 77, 65
2, 24792, Note_on_c, 0, 35, 65
2, 24796, Note_off_c, 0, 54, 64
2, 24796, Note_off_c, 0, 59, 64
2, 24796, Note_off_c, 0, 63, 64
2, 24800, Note_off_c, 0, 73, 64
2, 24813, Note_off_c, 0, 66, 64
2, 24821, Control_c, 0, 64, 127
2, 24821, Control_c, 0, 64, 127
2, 24895, Note_off_c, 0, 77, 64
2, 24912, Note_on_c, 0, 75, 36
2, 24913, Note_on_c, 0, 78, 57
2, 24987, Note_off_c, 0, 75, 64
2, 25003, Note_on_c, 0, 66, 62
2, 25004, Note_on_c, 0, 54, 41
2, 25011, Note_on_c, 0, 63, 50
2, 25018, Note_off_c, 0, 78, 64
2, 25047, Note_off_c, 0, 66, 64
2, 25056, Note_off_c, 0, 63, 64
2, 25063, Note_off_c, 0, 54, 64
2, 25111, Note_on_c, 0, 75, 54
2, 25122, Note_on_c, 0, 78, 58
2, 25166, Note_on_c, 0, 80, 67
2, 25173, Note_off_c, 0, 75, 64
2, 25184, Note_off_c, 0, 78, 64
2, 25200, Note_on_c, 0, 78, 69
2, 25224, Note_off_c, 0, 80, 64
2, 25236, Note_on_c, 0, 54, 31
2, 25239, Note_on_c, 0, 73, 54
2, 25243, Note_on_c, 0, 77, 67
2, 25248, Note_on_c, 0, 66, 37
2, 25254, Control_c, 0, 64, 0
2, 25254, Control_c, 0, 64, 0
2, 25276, Note_off_c, 0, 78, 64
2, 25288, Control_c, 0, 64, 127
2, 25288, Control_c, 0, 64, 127
2, 25310, Note_off_c, 0, 66, 64
2, 25315, Note_off_c, 0, 35, 64
2, 25334, Note_on_c, 0, 75, 64
2, 25337, Note_on_c, 0, 71, 56
2, 25341, Note_off_c, 0, 73, 64
2, 25345, Note_off_c, 0, 77, 64
2, 25381, Note_off_c, 0, 54, 64
2, 25391, Note_off_c, 0, 75, 64
2, 25410, Note_off_c, 0, 71, 64
2, 25452, Control_c, 0, 64, 0
2, 25452, Control_c, 0, 64, 0
2, 25462, Note_on_c, 0, 73, 69
2, 25462, Note_on_c, 0, 42, 59
2, 25466, Note_on_c, 0, 70, 64
2, 25501, Control_c, 0, 64, 127
2, 25501, Control_c, 0, 64, 127
2, 25685, Note_on_c, 0, 49, 58
2, 25697, Note_off_c, 0, 70, 64
2, 25702, Note_off_c, 0, 42, 64
2, 25705, Note_off_c, 0, 73, 64
2, 25825, Note_on_c, 0, 72, 50
2, 25827, Note_on_c, 0, 69, 36
2, 25848, Note_off_c, 0, 49, 64
2, 25864, Note_off_c, 0, 72, 64
2, 25874, Note_on_c, 0, 61, 66
2, 25874, Control_c, 0, 64, 0
2, 25874, Control_c, 0, 64, 0
2, 25886, Note_off_c, 0, 69, 64
2, 25894, Note_on_c, 0, 51, 52
2, 25942, Control_c, 0, 64, 127
2, 25942, Control_c, 0, 64, 127
2, 26019, Note_on_c, 0, 68, 59
2, 26078, Note_off_c, 0, 61, 64
2, 26083, Note_on_c, 0, 71, 62
2, 26086, Note_on_c, 0, 53, 50
2, 26090, Note_off_c, 0, 51, 64
2, 26099, Control_c, 0, 64, 0
2, 26099, Control_c, 0, 64, 0
2, 26100, Note_off_c, 0, 68, 64
2, 26130, Control_c, 0, 64, 127
2, 26130, Control_c, 0, 64, 127
2, 26156, Note_off_c, 0, 53, 64
2, 26165, Note_off_c, 0, 71, 64
2, 26214, Note_on_c, 0, 66, 46
2, 26227, Note_on_c, 0, 70, 49
2, 26272, Note_off_c, 0, 66, 64
2, 26272, Note_on_c, 0, 54, 50
2, 26280, Note_on_c, 0, 61, 64
2, 26297, Note_off_c, 0, 70, 64
2, 26301, Control_c, 0, 64, 0
2, 26301, Control_c, 0, 64, 0
2, 26335, Control_c, 0, 64, 127
2, 26335, Control_c, 0, 64, 127
2, 26347, Note_off_c, 0, 61, 64
2, 26417, Note_off_c, 0, 54, 64
2, 26417, Note_on_c, 0, 70, 59
2, 26417, Note_on_c, 0, 66, 46
2, 26469, Note_on_c, 0, 69, 59
2, 26472, Note_on_c, 0, 63, 66
2, 26475, Note_off_c, 0, 66, 64
2, 26476, Note_off_c, 0, 70, 64
2, 26485, Note_on_c, 0, 61, 46
2, 26506, Control_c, 0, 64, 0
2, 26506, Control_c, 0, 64, 0
2, 26548, Control_c, 0, 64, 127
2, 26548, Control_c, 0, 64, 127
2, 26636, Note_off_c, 0, 61, 64
2, 26636, Note_off_c, 0, 63, 64
2, 26644, Note_off_c, 0, 69, 64
2, 26685, Control_c, 0, 64, 0
2, 26685, Control_c, 0, 64, 0
2, 26692, Note_on_c, 0, 68, 62
2, 26692, Note_on_c, 0, 66, 58
2, 26699, Note_on_c, 0, 60, 59
2, 26764, Control_c, 0, 64, 127
2, 26764, Control_c, 0, 64, 127
2, 26911, Note_on_c, 0, 44, 55
2, 26915, Note_off_c, 0, 60, 64
2, 26946, Note_off_c, 0, 66, 64
2, 26946, Note_off_c, 0, 68, 64
2, 27056, Note_on_c, 0, 72, 59
2, 27098, Control_c, 0, 64, 0
2, 27098, Control_c, 0, 64, 0
2, 27107, Note_on_c, 0, 66, 59
2, 27107, Note_on_c, 0, 58, 51
2, 27112, Note_on_c, 0, 68, 69
2, 27115, Note_off_c, 0, 72, 64
2, 27115, Note_on_c, 0, 56, 46
2, 27153, Control_c, 0, 64, 127
2, 27153, Control_c, 0, 64, 127
2, 27187, Note_off_c, 0, 56, 64
2, 27196, Note_off_c, 0, 58, 64
2, 27203, Note_off_c, 0, 44, 64
2, 27210, Note_off_c, 0, 66, 64
2, 27240, Note_on_c, 0, 73, 58
2, 27242, Note_off_c, 0, 68, 64
2, 27302, Control_c, 0, 64, 0
2, 27302, Control_c, 0, 64, 0
2, 27311, Note_on_c, 0, 74, 65
2, 27311, Note_on_c, 0, 56, 55
2, 27323, Note_on_c, 0, 59, 43
2, 27327, Note_off_c, 0, 73, 64
2, 27350, Control_c, 0, 64, 127
2, 27350, Control_c, 0, 64, 127
2, 27369, Note_off_c, 0, 56, 64
2, 27370, Note_off_c, 0, 59, 64
2, 27414, Note_on_c, 0, 75, 59
2, 27427, Note_off_c, 0, 74, 64
2, 27492, Control_c, 0, 64, 0
2, 27492, Control_c, 0, 64, 0
2, 27494, Note_on_c, 0, 60, 43
2, 27494, Note_on_c, 0, 56, 58
2, 27499, Note_on_c, 0, 68, 69
2, 27499, Note_on_c, 0, 66, 67
2, 27514, Note_off_c, 0, 75, 64
2, 27548, Note_off_c, 0, 60, 64
2, 27556, Note_off_c, 0, 56, 64
2, 27559, Control_c, 0, 64, 127
2, 27559, Control_c, 0, 64, 127
2, 27598, Note_on_c, 0, 78, 62
2, 27605, Note_off_c, 0, 66, 64
2, 27605, Note_off_c, 0, 68, 64
2, 27694, Note_on_c, 0, 56, 36
2, 27702, Note_on_c, 0, 65, 55
2, 27702, Note_on_c, 0, 49, 51
2, 27703, Control_c, 0, 64, 0
2, 27703, Control_c, 0, 64, 0
2, 27708, Note_on_c, 0, 61, 49
2, 27717, Note_on_c, 0, 77, 64
2, 27740, Note_off_c, 0, 78, 64
2, 27755, Control_c, 0, 64, 127
2, 27755, Control_c, 0, 64, 127
2, 27784, Note_off_c, 0, 56, 64
2, 27792, Note_off_c, 0, 49, 64
2, 27798, Note_off_c, 0, 61, 64
2, 27810, Note_off_c, 0, 65, 64
2, 27825, Note_off_c, 0, 77, 64
2, 27862, Note_on_c, 0, 70, 71
2, 27905, Note_off_c, 0, 70, 64
2, 27915, Note_on_c, 0, 70, 74
2, 27927, Note_on_c, 0, 44, 62
2, 27932, Control_c, 0, 64, 0
2, 27932, Control_c, 0, 64, 0
2, 27975, Control_c, 0, 64, 127
2, 27975, Control_c, 0, 64, 127
2, 28128, Note_on_c, 0, 56, 56
2, 28134, Note_on_c, 0, 66, 71
2, 28135, Note_on_c, 0, 63, 57
2, 28145, Control_c, 0, 64, 0
2, 28145, Control_c, 0, 64, 0
2, 28181, Control_c, 0, 64, 127
2, 28181, Control_c, 0, 64, 127
2, 28192, Note_off_c, 0, 63, 64
2, 28202, Note_off_c, 0, 56, 64
2, 28222, Note_off_c, 0, 44, 64
2, 28230, Note_off_c, 0, 66, 64
2, 28260, Note_on_c, 0, 72, 60
2, 28261, Note_off_c, 0, 70, 64
2, 28295, Note_on_c, 0, 70, 55
2, 28306, Note_off_c, 0, 72, 64
2, 28322, Note_on_c, 0, 68, 64
2, 28328, Note_on_c, 0, 66, 42
2, 28338, Note_on_c, 0, 56, 57
2, 28343, Note_on_c, 0, 58, 50
2, 28346, Note_off_c, 0, 70, 64
2, 28354, Control_c, 0, 64, 0
2, 28354, Control_c, 0, 64, 0
2, 28389, Control_c, 0, 64, 127
2, 28389, Control_c, 0, 64, 127
2, 28397, Note_off_c, 0, 56, 64
2, 28404, Note_off_c, 0, 58, 64
2, 28443, Note_off_c, 0, 66, 64
2, 28452, Note_off_c, 0, 68, 64
2, 28478, Note_on_c, 0, 73, 59
2, 28526, Note_on_c, 0, 59, 39
2, 28528, Note_on_c, 0, 56, 55
2, 28530, Note_on_c, 0, 74, 64
2, 28552, Control_c, 0, 64, 0
2, 28552, Control_c, 0, 64, 0
2, 28560, Note_off_c, 0, 73, 64
2, 28572, Note_off_c, 0, 59, 64
2, 28581, Control_c, 0, 64, 127
2, 28581, Control_c, 0, 64, 127
2, 28585, Note_off_c, 0, 56, 64
2, 28622, Note_on_c, 0, 75, 62
2, 28641, Note_off_c, 0, 74, 64
2, 28722, Note_on_c, 0, 66, 69
2, 28722, Note_on_c, 0, 56, 58
2, 28724, Note_on_c, 0, 68, 73
2, 28733, Note_on_c, 0, 60, 40
2, 28740, Control_c, 0, 64, 0
2, 28740, Control_c, 0, 64, 0
2, 28742, Note_off_c, 0, 75, 64
2, 28762, Control_c, 0, 64, 127
2, 28762, Control_c, 0, 64, 127
2, 28770, Note_off_c, 0, 60, 64
2, 28778, Note_off_c, 0, 56, 64
2, 28830, Note_off_c, 0, 66, 64
2, 28830, Note_on_c, 0, 78, 63
2, 28832, Note_off_c, 0, 68, 64
2, 28951, Note_on_c, 0, 49, 56
2, 28957, Note_on_c, 0, 61, 54
2, 28962, Note_on_c, 0, 77, 62
2, 28962, Note_on_c, 0, 65, 62
2, 28972, Note_on_c, 0, 56, 26
2, 28973, Note_off_c, 0, 78, 64
2, 28974, Control_c, 0, 64, 0
2, 28974, Control_c, 0, 64, 0
2, 29009, Control_c, 0, 64, 127
2, 29009, Control_c, 0, 64, 127
2, 29059, Note_off_c, 0, 49, 64
2, 29065, Note_off_c, 0, 61, 64
2, 29070, Note_off_c, 0, 65, 64
2, 29070, Note_off_c, 0, 77, 64
2, 29080, Note_off_c, 0, 56, 64
2, 29138, Note_on_c, 0, 71, 62
2, 29142, Note_on_c, 0, 75, 62
2, 29172, Note_off_c, 0, 71, 64
2, 29174, Note_off_c, 0, 75, 64
2, 29200, Note_on_c, 0, 71, 69
2, 29203, Note_on_c, 0, 75, 71
2, 29216, Note_on_c, 0, 42, 66
2, 29228, Control_c, 0, 64, 0
2, 29228, Control_c, 0, 64, 0
2, 29292, Control_c, 0, 64, 127
2, 29292, Control_c, 0, 64, 127
2, 29446, Note_off_c, 0, 42, 64
2, 29480, Note_off_c, 0, 75, 64
2, 29480, Note_on_c, 0, 49, 41
2, 29487, Note_off_c, 0, 71, 64
2, 29621, Note_on_c, 0, 70, 56
2, 29628, Note_on_c, 0, 73, 44
2, 29652, Note_off_c, 0, 49, 64
2, 29667, Note_on_c, 0, 61, 69
2, 29670, Note_on_c, 0, 51, 60
2, 29680, Control_c, 0, 64, 0
2, 29680, Control_c, 0, 64, 0
2, 29698, Note_off_c, 0, 73, 64
2, 29699, Note_off_c, 0, 70, 64
2, 29729, Control_c, 0, 64, 127
2, 29729, Control_c, 0, 64, 127
2, 29820, Note_on_c, 0, 69, 58
2, 29864, Note_off_c, 0, 61, 64
2, 29873, Note_on_c, 0, 72, 64
2, 29874, Note_off_c, 0, 51, 64
2, 29876, Control_c, 0, 64, 0
2, 29876, Control_c, 0, 64, 0
2, 29886, Note_on_c, 0, 53, 60
2, 29925, Control_c, 0, 64, 127
2, 29925, Control_c, 0, 64, 127
2, 29929, Note_off_c, 0, 69, 64
2, 29941, Note_off_c, 0, 72, 64
2, 30022, Note_on_c, 0, 71, 55
2, 30025, Note_on_c, 0, 68, 59
2, 30059, Note_off_c, 0, 53, 64
2, 30077, Note_on_c, 0, 61, 73
2, 30080, Note_on_c, 0, 54, 57
2, 30091, Note_off_c, 0, 68, 64
2, 30092, Note_off_c, 0, 71, 64
2, 30092, Control_c, 0, 64, 0
2, 30092, Control_c, 0, 64, 0
2, 30128, Control_c, 0, 64, 127
2, 30128, Control_c, 0, 64, 127
2, 30141, Note_off_c, 0, 61, 64
2, 30223, Note_on_c, 0, 70, 55
2, 30234, Note_on_c, 0, 66, 64
2, 30259, Note_off_c, 0, 66, 64
2, 30272, Note_off_c, 0, 70, 64
2, 30291, Note_on_c, 0, 70, 64
2, 30291, Note_on_c, 0, 64, 63
2, 30299, Note_on_c, 0, 61, 43
2, 30311, Control_c, 0, 64, 0
2, 30311, Control_c, 0, 64, 0
2, 30318, Note_off_c, 0, 54, 64
2, 30374, Control_c, 0, 64, 127
2, 30374, Control_c, 0, 64, 127
2, 30417, Note_off_c, 0, 64, 64
2, 30419, Note_off_c, 0, 70, 64
2, 30492, Note_off_c, 0, 61, 64
2, 30507, Note_on_c, 0, 66, 58
2, 30509, Note_on_c, 0, 63, 62
2, 30517, Control_c, 0, 64, 0
2, 30517, Control_c, 0, 64, 0
2, 30579, Control_c, 0, 64, 127
2, 30579, Control_c, 0, 64, 127
2, 30715, Control_c, 0, 64, 0
2, 30715, Control_c, 0, 64, 0
2, 30722, Note_on_c, 0, 47, 56
2, 30771, Control_c, 0, 64, 127
2, 30771, Control_c, 0, 64, 127
2, 30824, Note_off_c, 0, 63, 64
2, 30864, Note_off_c, 0, 66, 64
2, 30881, Note_on_c, 0, 71, 47
2, 30887, Note_on_c, 0, 75, 55
2, 30929, Note_on_c, 0, 54, 57
2, 30934, Note_on_c, 0, 63, 59
2, 30935, Note_on_c, 0, 66, 69
2, 30952, Note_off_c, 0, 71, 64
2, 30958, Note_off_c, 0, 75, 64
2, 31036, Note_off_c, 0, 63, 64
2, 31081, Note_off_c, 0, 47, 64
2, 31083, Note_on_c, 0, 73, 62
2, 31141, Note_off_c, 0, 54, 64
2, 31145, Note_on_c, 0, 35, 79
2, 31152, Note_on_c, 0, 77, 64
2, 31152, Control_c, 0, 64, 0
2, 31152, Control_c, 0, 64, 0
2, 31182, Note_off_c, 0, 73, 64
2, 31182, Note_off_c, 0, 66, 64
2, 31198, Control_c, 0, 64, 127
2, 31198, Control_c, 0, 64, 127
2, 31244, Note_off_c, 0, 77, 64
2, 31266, Note_on_c, 0, 78, 62
2, 31272, Note_on_c, 0, 75, 51
2, 31346, Note_off_c, 0, 75, 64
2, 31349, Note_off_c, 0, 78, 64
2, 31370, Note_on_c, 0, 63, 58
2, 31370, Note_on_c, 0, 54, 47
2, 31374, Note_on_c, 0, 66, 62
2, 31415, Note_off_c, 0, 54, 64
2, 31422, Note_off_c, 0, 63, 64
2, 31467, Note_off_c, 0, 66, 64
2, 31498, Note_on_c, 0, 75, 33
2, 31509, Note_on_c, 0, 78, 55
2, 31526, Note_off_c, 0, 75, 64
2, 31550, Note_on_c, 0, 80, 69
2, 31560, Note_off_c, 0, 78, 64
2, 31581, Note_on_c, 0, 78, 69
2, 31604, Note_off_c, 0, 80, 64
2, 31614, Note_on_c, 0, 73, 57
2, 31619, Note_on_c, 0, 77, 69
2, 31622, Note_on_c, 0, 66, 48
2, 31625, Note_on_c, 0, 54, 36
2, 31648, Note_off_c, 0, 78, 64
2, 31648, Control_c, 0, 64, 0
2, 31648, Control_c, 0, 64, 0
2, 31684, Control_c, 0, 64, 127
2, 31684, Control_c, 0, 64, 127
2, 31689, Note_off_c, 0, 35, 64
2, 31701, Note_off_c, 0, 66, 64
2, 31704, Note_off_c, 0, 54, 64
2, 31734, Note_off_c, 0, 73, 64
2, 31739, Note_off_c, 0, 77, 64
2, 31739, Note_on_c, 0, 75, 64
2, 31744, Note_on_c, 0, 71, 55
2, 31768, Note_off_c, 0, 75, 64
2, 31781, Note_off_c, 0, 71, 64
2, 31853, Note_on_c, 0, 73, 69
2, 31854, Note_on_c, 0, 42, 62
2, 31856, Note_on_c, 0, 70, 69
2, 31867, Control_c, 0, 64, 0
2, 31867, Control_c, 0, 64, 0
2, 31922, Control_c, 0, 64, 127
2, 31922, Control_c, 0, 64, 127
2, 32056, Control_c, 0, 64, 0
2, 32056, Control_c, 0, 64, 0
2, 32062, Note_off_c, 0, 70, 64
2, 32062, Note_on_c, 0, 49, 60
2, 32077, Note_off_c, 0, 42, 64
2, 32081, Note_off_c, 0, 73, 64
2, 32082, Control_c, 0, 64, 127
2, 32082, Control_c, 0, 64, 127
2, 32193, Note_on_c, 0, 69, 55
2, 32198, Note_on_c, 0, 72, 47
2, 32228, Note_off_c, 0, 49, 64
2, 32247, Note_on_c, 0, 61, 73
2, 32262, Control_c, 0, 64, 0
2, 32262, Control_c, 0, 64, 0
2, 32270, Note_off_c, 0, 69, 64
2, 32270, Note_on_c, 0, 51, 56
2, 32275, Note_off_c, 0, 72, 64
2, 32299, Control_c, 0, 64, 127
2, 32299, Control_c, 0, 64, 127
2, 32390, Note_on_c, 0, 68, 54
2, 32448, Note_off_c, 0, 61, 64
2, 32448, Note_on_c, 0, 71, 63
2, 32453, Note_off_c, 0, 51, 64
2, 32455, Note_on_c, 0, 53, 59
2, 32459, Control_c, 0, 64, 0
2, 32459, Control_c, 0, 64, 0
2, 32466, Note_off_c, 0, 68, 64
2, 32503, Control_c, 0, 64, 127
2, 32503, Control_c, 0, 64, 127
2, 32518, Note_off_c, 0, 71, 64
2, 32582, Note_on_c, 0, 66, 32
2, 32587, Note_on_c, 0, 70, 62
2, 32609, Note_off_c, 0, 53, 64
2, 32628, Note_on_c, 0, 54, 50
2, 32635, Note_on_c, 0, 61, 69
2, 32648, Control_c, 0, 64, 0
2, 32648, Control_c, 0, 64, 0
2, 32656, Note_off_c, 0, 66, 64
2, 32661, Note_off_c, 0, 70, 64
2, 32692, Control_c, 0, 64, 127
2, 32692, Control_c, 0, 64, 127
2, 32707, Note_off_c, 0, 61, 64
2, 32774, Note_on_c, 0, 66, 32
2, 32775, Note_on_c, 0, 70, 56
2, 32796, Note_on_c, 0, 54, 50
2, 32822, Note_on_c, 0, 69, 57
2, 32830, Note_on_c, 0, 63, 59
2, 32832, Note_on_c, 0, 61, 43
2, 32838, Note_off_c, 0, 66, 64
2, 32838, Note_off_c, 0, 54, 64
2, 32839, Note_off_c, 0, 70, 64
2, 32859, Control_c, 0, 64, 0
2, 32859, Control_c, 0, 64, 0
2, 32914, Control_c, 0, 64, 127
2, 32914, Control_c, 0, 64, 127
2, 32936, Note_off_c, 0, 54, 64
2, 33003, Note_off_c, 0, 69, 64
2, 33008, Note_off_c, 0, 63, 64
2, 33010, Note_off_c, 0, 61, 64
2, 33028, Note_on_c, 0, 66, 62
2, 33033, Note_on_c, 0, 68, 59
2, 33035, Note_on_c, 0, 60, 65
2, 33042, Control_c, 0, 64, 0
2, 33042, Control_c, 0, 64, 0
2, 33096, Control_c, 0, 64, 127
2, 33096, Control_c, 0, 64, 127
2, 33226, Note_off_c, 0, 60, 64
2, 33235, Note_on_c, 0, 44, 62
2, 33237, Note_off_c, 0, 68, 64
2, 33244, Note_off_c, 0, 66, 64
2, 33381, Note_on_c, 0, 72, 58
2, 33421, Note_on_c, 0, 66, 58
2, 33424, Note_on_c, 0, 68, 59
2, 33428, Note_on_c, 0, 58, 56
2, 33428, Note_on_c, 0, 56, 50
2, 33435, Note_off_c, 0, 72, 64
2, 33440, Control_c, 0, 64, 0
2, 33440, Control_c, 0, 64, 0
2, 33493, Control_c, 0, 64, 127
2, 33493, Control_c, 0, 64, 127
2, 33497, Note_off_c, 0, 56, 64
2, 33497, Note_off_c, 0, 58, 64
2, 33525, Note_off_c, 0, 68, 64
2, 33526, Note_off_c, 0, 66, 64
2, 33530, Note_off_c, 0, 44, 64
2, 33570, Note_on_c, 0, 73, 58
2, 33624, Note_on_c, 0, 74, 67
2, 33628, Note_on_c, 0, 59, 58
2, 33630, Note_on_c, 0, 56, 62
2, 33632, Control_c, 0, 64, 0
2, 33632, Control_c, 0, 64, 0
2, 33646, Note_off_c, 0, 73, 64
2, 33657, Control_c, 0, 64, 127
2, 33657, Control_c, 0, 64, 127
2, 33683, Note_off_c, 0, 59, 64
2, 33685, Note_off_c, 0, 56, 64
2, 33726, Note_on_c, 0, 75, 58
2, 33751, Note_off_c, 0, 74, 64
2, 33806, Note_on_c, 0, 66, 69
2, 33813, Note_on_c, 0, 68, 73
2, 33816, Note_on_c, 0, 56, 56
2, 33828, Note_on_c, 0, 60, 41
2, 33828, Control_c, 0, 64, 0
2, 33828, Control_c, 0, 64, 0
2, 33846, Note_off_c, 0, 75, 64
2, 33865, Control_c, 0, 64, 127
2, 33865, Control_c, 0, 64, 127
2, 33872, Note_off_c, 0, 60, 64
2, 33872, Note_off_c, 0, 56, 64
2, 33894, Note_on_c, 0, 78, 62
2, 33930, Note_off_c, 0, 66, 64
2, 33938, Note_off_c, 0, 68, 64
2, 34006, Note_on_c, 0, 56, 59
2, 34009, Note_on_c, 0, 49, 52
2, 34014, Note_on_c, 0, 65, 47
2, 34014, Note_on_c, 0, 61, 59
2, 34019, Note_on_c, 0, 77, 57
2, 34023, Control_c, 0, 64, 0
2, 34023, Control_c, 0, 64, 0
2, 34027, Note_off_c, 0, 78, 64
2, 34072, Control_c, 0, 64, 127
2, 34072, Control_c, 0, 64, 127
2, 34114, Note_off_c, 0, 56, 64
2, 34117, Note_off_c, 0, 49, 64
2, 34122, Note_off_c, 0, 61, 64
2, 34122, Note_off_c, 0, 65, 64
2, 34127, Note_off_c, 0, 77, 64
2, 34146, Note_on_c, 0, 70, 63
2, 34189, Note_off_c, 0, 70, 64
2, 34199, Note_on_c, 0, 70, 71
2, 34206, Note_on_c, 0, 44, 62
2, 34220, Control_c, 0, 64, 0
2, 34220, Control_c, 0, 64, 0
2, 34284, Control_c, 0, 64, 127
2, 34284, Control_c, 0, 64, 127
2, 34408, Control_c, 0, 64, 0
2, 34408, Control_c, 0, 64, 0
2, 34412, Note_on_c, 0, 56, 56
2, 34414, Note_on_c, 0, 66, 77
2, 34420, Note_on_c, 0, 63, 32
2, 34440, Note_off_c, 0, 70, 64
2, 34443, Control_c, 0, 64, 127
2, 34443, Control_c, 0, 64, 127
2, 34471, Note_off_c, 0, 56, 64
2, 34486, Note_on_c, 0, 72, 47
2, 34502, Note_off_c, 0, 63, 64
2, 34505, Note_off_c, 0, 66, 64
2, 34508, Note_off_c, 0, 44, 64
2, 34526, Note_on_c, 0, 70, 80
2, 34553, Note_off_c, 0, 72, 64
2, 34592, Note_off_c, 0, 70, 64
2, 34599, Note_on_c, 0, 66, 73
2, 34605, Note_on_c, 0, 56, 65
2, 34612, Note_on_c, 0, 68, 62
2, 34614, Note_on_c, 0, 58, 32
2, 34618, Control_c, 0, 64, 0
2, 34618, Control_c, 0, 64, 0
2, 34656, Control_c, 0, 64, 127
2, 34656, Control_c, 0, 64, 127
2, 34668, Note_off_c, 0, 58, 64
2, 34668, Note_off_c, 0, 56, 64
2, 34703, Note_off_c, 0, 66, 64
2, 34720, Note_on_c, 0, 73, 58
2, 34730, Note_off_c, 0, 68, 64
2, 34792, Note_on_c, 0, 56, 62
2, 34798, Note_on_c, 0, 74, 65
2, 34798, Note_on_c, 0, 59, 58
2, 34805, Note_off_c, 0, 73, 64
2, 34807, Control_c, 0, 64, 0
2, 34807, Control_c, 0, 64, 0
2, 34829, Control_c, 0, 64, 127
2, 34829, Control_c, 0, 64, 127
2, 34843, Note_off_c, 0, 56, 64
2, 34847, Note_off_c, 0, 59, 64
2, 34894, Note_on_c, 0, 75, 69
2, 34909, Note_off_c, 0, 74, 64
2, 34984, Note_on_c, 0, 66, 58
2, 34985, Note_on_c, 0, 68, 63
2, 34992, Note_on_c, 0, 56, 60
2, 34994, Control_c, 0, 64, 0
2, 34994, Control_c, 0, 64, 0
2, 35003, Note_on_c, 0, 60, 47
2, 35012, Note_off_c, 0, 75, 64
2, 35032, Control_c, 0, 64, 127
2, 35032, Control_c, 0, 64, 127
2, 35044, Note_off_c, 0, 60, 64
2, 35050, Note_off_c, 0, 56, 64
2, 35086, Note_off_c, 0, 68, 64
2, 35098, Note_on_c, 0, 78, 69
2, 35108, Note_off_c, 0, 66, 64
2, 35175, Control_c, 0, 64, 0
2, 35175, Control_c, 0, 64, 0
2, 35188, Note_on_c, 0, 49, 58
2, 35191, Note_on_c, 0, 61, 56
2, 35191, Note_on_c, 0, 56, 74
2, 35198, Note_on_c, 0, 77, 69
2, 35201, Note_on_c, 0, 65, 58
2, 35212, Control_c, 0, 64, 127
2, 35212, Control_c, 0, 64, 127
2, 35222, Note_off_c, 0, 78, 64
2, 35315, Note_on_c, 0, 47, 73
2, 35375, Note_off_c, 0, 49, 64
2, 35462, Note_on_c, 0, 46, 59
2, 35476, Note_off_c, 0, 47, 64
2, 35477, Control_c, 0, 64, 0
2, 35477, Control_c, 0, 64, 0
2, 35510, Note_on_c, 0, 80, 89
2, 35511, Note_off_c, 0, 56, 64
2, 35511, Note_off_c, 0, 61, 64
2, 35518, Note_off_c, 0, 77, 64
2, 35521, Note_off_c, 0, 65, 64
2, 35529, Control_c, 0, 64, 127
2, 35529, Control_c, 0, 64, 127
2, 35718, Note_on_c, 0, 58, 36
2, 35727, Note_on_c, 0, 74, 60
2, 35727, Note_on_c, 0, 68, 44
2, 35809, Note_on_c, 0, 79, 62
2, 35830, Note_off_c, 0, 58, 64
2, 35831, Note_off_c, 0, 46, 64
2, 35832, Note_off_c, 0, 80, 64
2, 35839, Note_off_c, 0, 68, 64
2, 35839, Note_off_c, 0, 74, 64
2, 35894, Note_on_c, 0, 75, 66
2, 35894, Note_on_c, 0, 73, 54
2, 35894, Note_on_c, 0, 67, 44
2, 35894, Note_on_c, 0, 63, 54
2, 35894, Note_on_c, 0, 58, 55
2, 35894, Note_on_c, 0, 51, 54
2, 35910, Control_c, 0, 64, 0
2, 35910, Control_c, 0, 64, 0
2, 35923, Note_off_c, 0, 79, 64
2, 35924, Control_c, 0, 64, 127
2, 35924, Control_c, 0, 64, 127
2, 35970, Note_on_c, 0, 77, 62
2, 35990, Note_off_c, 0, 75, 64
2, 36006, Note_off_c, 0, 51, 64
2, 36006, Note_off_c, 0, 58, 64
2, 36006, Note_off_c, 0, 63, 64
2, 36006, Note_off_c, 0, 67, 64
2, 36006, Note_off_c, 0, 73, 64
2, 36047, Note_on_c, 0, 44, 60
2, 36051, Note_on_c, 0, 78, 72
2, 36071, Note_off_c, 0, 77, 64
2, 36106, Note_on_c, 0, 80, 65
2, 36125, Note_off_c, 0, 78, 64
2, 36146, Note_on_c, 0, 78, 65
2, 36154, Note_off_c, 0, 80, 64
2, 36219, Note_on_c, 0, 56, 44
2, 36222, Note_on_c, 0, 72, 55
2, 36222, Note_on_c, 0, 66, 56
2, 36224, Note_on_c, 0, 77, 67
2, 36231, Note_off_c, 0, 78, 64
2, 36236, Control_c, 0, 64, 0
2, 36236, Control_c, 0, 64, 0
2, 36248, Control_c, 0, 64, 127
2, 36248, Control_c, 0, 64, 127
2, 36302, Note_on_c, 0, 75, 64
2, 36322, Note_off_c, 0, 77, 64
2, 36331, Note_off_c, 0, 56, 64
2, 36334, Note_off_c, 0, 66, 64
2, 36334, Note_off_c, 0, 72, 64
2, 36359, Note_off_c, 0, 44, 64
2, 36374, Note_on_c, 0, 49, 43
2, 36375, Note_on_c, 0, 77, 64
2, 36375, Control_c, 0, 64, 0
2, 36375, Control_c, 0, 64, 0
2, 36378, Note_on_c, 0, 61, 41
2, 36378, Note_on_c, 0, 56, 41
2, 36384, Note_on_c, 0, 71, 63
2, 36385, Note_on_c, 0, 65, 48
2, 36387, Control_c, 0, 64, 127
2, 36387, Control_c, 0, 64, 127
2, 36390, Note_off_c, 0, 75, 64
2, 36395, Control_c, 0, 64, 0
2, 36395, Control_c, 0, 64, 0
2, 36407, Control_c, 0, 64, 127
2, 36407, Control_c, 0, 64, 127
2, 36462, Note_on_c, 0, 73, 66
2, 36486, Note_off_c, 0, 49, 64
2, 36488, Note_off_c, 0, 77, 64
2, 36490, Note_off_c, 0, 56, 64
2, 36490, Note_off_c, 0, 61, 64
2, 36496, Note_off_c, 0, 71, 64
2, 36497, Note_off_c, 0, 65, 64
2, 36559, Note_on_c, 0, 76, 71
2, 36565, Note_on_c, 0, 42, 51
2, 36573, Note_off_c, 0, 73, 64
2, 36577, Control_c, 0, 64, 0
2, 36577, Control_c, 0, 64, 0
2, 36617, Control_c, 0, 64, 127
2, 36617, Control_c, 0, 64, 127
2, 36718, Note_on_c, 0, 64, 42
2, 36722, Note_on_c, 0, 54, 28
2, 36725, Note_on_c, 0, 70, 42
2, 36801, Note_on_c, 0, 75, 63
2, 36817, Note_off_c, 0, 76, 64
2, 36830, Note_off_c, 0, 64, 64
2, 36834, Note_off_c, 0, 54, 64
2, 36837, Note_off_c, 0, 70, 64
2, 36869, Note_off_c, 0, 42, 64
2, 36874, Note_on_c, 0, 71, 64
2, 36874, Note_on_c, 0, 69, 44
2, 36874, Note_on_c, 0, 63, 56
2, 36874, Note_on_c, 0, 59, 42
2, 36874, Note_on_c, 0, 54, 56
2, 36876, Note_on_c, 0, 47, 44
2, 36887, Note_off_c, 0, 75, 64
2, 36941, Note_on_c, 0, 73, 52
2, 36950, Note_off_c, 0, 71, 64
2, 36986, Note_off_c, 0, 54, 64
2, 36986, Note_off_c, 0, 59, 64
2, 36986, Note_off_c, 0, 63, 64
2, 36986, Note_off_c, 0, 69, 64
2, 36988, Note_off_c, 0, 47, 64
2, 37026, Note_on_c, 0, 74, 52
2, 37034, Note_on_c, 0, 40, 55
2, 37047, Note_off_c, 0, 73, 64
2, 37094, Note_on_c, 0, 76, 65
2, 37105, Note_off_c, 0, 74, 64
2, 37138, Note_on_c, 0, 74, 66
2, 37151, Note_off_c, 0, 76, 64
2, 37196, Note_on_c, 0, 62, 50
2, 37198, Note_on_c, 0, 73, 58
2, 37200, Note_on_c, 0, 68, 56
2, 37203, Note_on_c, 0, 52, 31
2, 37231, Note_off_c, 0, 74, 64
2, 37275, Note_on_c, 0, 71, 62
2, 37277, Note_off_c, 0, 73, 64
2, 37308, Note_off_c, 0, 62, 64
2, 37312, Note_off_c, 0, 68, 64
2, 37315, Note_off_c, 0, 52, 64
2, 37315, Note_off_c, 0, 40, 64
2, 37370, Note_on_c, 0, 69, 64
2, 37373, Note_on_c, 0, 61, 60
2, 37375, Note_on_c, 0, 73, 62
2, 37377, Note_on_c, 0, 45, 32
2, 37383, Note_on_c, 0, 57, 24
2, 37384, Note_off_c, 0, 71, 64
2, 37390, Control_c, 0, 64, 0
2, 37390, Control_c, 0, 64, 0
2, 37445, Control_c, 0, 64, 127
2, 37445, Control_c, 0, 64, 127
2, 37571, Note_off_c, 0, 69, 64
2, 37574, Note_off_c, 0, 61, 64
2, 37576, Note_off_c, 0, 73, 64
2, 37578, Note_off_c, 0, 45, 64
2, 37584, Note_off_c, 0, 57, 64
2, 37594, Note_on_c, 0, 73, 74
2, 37610, Note_on_c, 0, 39, 44
2, 37612, Control_c, 0, 64, 0
2, 37612, Control_c, 0, 64, 0
2, 37650, Control_c, 0, 64, 127
2, 37650, Control_c, 0, 64, 127
2, 37791, Note_on_c, 0, 61, 50
2, 37791, Note_on_c, 0, 51, 51
2, 37795, Note_on_c, 0, 67, 48
2, 37827, Note_off_c, 0, 73, 64
2, 37879, Note_on_c, 0, 72, 62
2, 37903, Note_off_c, 0, 51, 64
2, 37903, Note_off_c, 0, 61, 64
2, 37907, Note_off_c, 0, 67, 64
2, 37941, Note_off_c, 0, 39, 64
2, 37952, Control_c, 0, 64, 0
2, 37952, Control_c, 0, 64, 0
2, 37954, Note_on_c, 0, 56, 48
2, 37954, Note_on_c, 0, 51, 48
2, 37954, Note_on_c, 0, 44, 43
2, 37958, Note_on_c, 0, 60, 54
2, 37959, Note_on_c, 0, 66, 57
2, 37960, Note_on_c, 0, 68, 66
2, 37960, Control_c, 0, 64, 127
2, 37960, Control_c, 0, 64, 127
2, 37972, Note_off_c, 0, 72, 64
2, 37980, Control_c, 0, 64, 127
2, 37980, Control_c, 0, 64, 127
2, 38034, Note_on_c, 0, 70, 54
2, 38049, Note_off_c, 0, 68, 64
2, 38066, Note_off_c, 0, 44, 64
2, 38066, Note_off_c, 0, 51, 64
2, 38066, Note_off_c, 0, 56, 64
2, 38070, Note_off_c, 0, 60, 64
2, 38071, Note_off_c, 0, 66, 64
2, 38109, Note_on_c, 0, 71, 60
2, 38118, Note_on_c, 0, 37, 50
2, 38121, Note_off_c, 0, 70, 64
2, 38122, Control_c, 0, 64, 0
2, 38122, Control_c, 0, 64, 0
2, 38138, Control_c, 0, 64, 127
2, 38138, Control_c, 0, 64, 127
2, 38170, Note_on_c, 0, 73, 57
2, 38191, Note_off_c, 0, 71, 64
2, 38210, Note_on_c, 0, 71, 55
2, 38221, Note_off_c, 0, 73, 64
2, 38265, Control_c, 0, 64, 0
2, 38265, Control_c, 0, 64, 0
2, 38278, Note_on_c, 0, 70, 56
2, 38278, Note_on_c, 0, 65, 56
2, 38278, Note_on_c, 0, 49, 34
2, 38279, Note_on_c, 0, 59, 47
2, 38289, Control_c, 0, 64, 127
2, 38289, Control_c, 0, 64, 127
2, 38302, Note_off_c, 0, 71, 64
2, 38354, Note_on_c, 0, 68, 50
2, 38357, Note_off_c, 0, 70, 64
2, 38390, Note_off_c, 0, 49, 64
2, 38390, Note_off_c, 0, 65, 64
2, 38391, Note_off_c, 0, 59, 64
2, 38410, Note_off_c, 0, 37, 64
2, 38430, Note_on_c, 0, 70, 69
2, 38430, Note_on_c, 0, 58, 50
2, 38430, Note_on_c, 0, 54, 39
2, 38430, Note_on_c, 0, 42, 37
2, 38430, Control_c, 0, 64, 0
2, 38430, Control_c, 0, 64, 0
2, 38431, Note_off_c, 0, 68, 64
2, 38434, Note_on_c, 0, 49, 41
2, 38455, Control_c, 0, 64, 127
2, 38455, Control_c, 0, 64, 127
2, 38508, Note_on_c, 0, 66, 49
2, 38531, Note_off_c, 0, 70, 64
2, 38542, Note_off_c, 0, 42, 64
2, 38542, Note_off_c, 0, 54, 64
2, 38542, Note_off_c, 0, 58, 64
2, 38546, Note_off_c, 0, 49, 64
2, 38580, Control_c, 0, 64, 0
2, 38580, Control_c, 0, 64, 0
2, 38582, Note_on_c, 0, 54, 51
2, 38586, Note_on_c, 0, 63, 75
2, 38586, Note_on_c, 0, 47, 51
2, 38588, Note_on_c, 0, 59, 63
2, 38607, Note_off_c, 0, 66, 64
2, 38621, Control_c, 0, 64, 127
2, 38621, Control_c, 0, 64, 127
2, 38719, Note_off_c, 0, 47, 64
2, 38723, Note_off_c, 0, 54, 64
2, 38736, Note_off_c, 0, 63, 64
2, 38738, Note_off_c, 0, 59, 64
2, 38758, Note_on_c, 0, 47, 46
2, 38760, Note_on_c, 0, 63, 49
2, 38765, Note_on_c, 0, 66, 64
2, 38769, Note_on_c, 0, 54, 52
2, 38780, Control_c, 0, 64, 0
2, 38780, Control_c, 0, 64, 0
2, 38793, Control_c, 0, 64, 127
2, 38793, Control_c, 0, 64, 127
2, 38833, Note_on_c, 0, 68, 65
2, 38848, Note_off_c, 0, 66, 64
2, 38872, Note_off_c, 0, 47, 64
2, 38874, Note_off_c, 0, 63, 64
2, 38883, Note_off_c, 0, 54, 64
2, 38918, Note_on_c, 0, 54, 55
2, 38919, Note_on_c, 0, 70, 64
2, 38924, Note_off_c, 0, 68, 64
2, 38925, Note_on_c, 0, 63, 60
2, 38925, Note_on_c, 0, 42, 55
2, 38925, Control_c, 0, 64, 0
2, 38925, Control_c, 0, 64, 0
2, 38940, Control_c, 0, 64, 127
2, 38940, Control_c, 0, 64, 127
2, 39002, Note_on_c, 0, 71, 67
2, 39016, Note_off_c, 0, 70, 64
2, 39032, Note_off_c, 0, 54, 64
2, 39039, Note_off_c, 0, 42, 64
2, 39039, Note_off_c, 0, 63, 64
2, 39077, Note_on_c, 0, 63, 59
2, 39077, Note_on_c, 0, 54, 58
2, 39078, Control_c, 0, 64, 0
2, 39078, Control_c, 0, 64, 0
2, 39085, Note_on_c, 0, 47, 59
2, 39094, Control_c, 0, 64, 127
2, 39094, Control_c, 0, 64, 127
2, 39125, Note_on_c, 0, 73, 62
2, 39145, Note_off_c, 0, 71, 64
2, 39173, Note_on_c, 0, 71, 63
2, 39183, Note_off_c, 0, 73, 64
2, 39191, Note_off_c, 0, 54, 64
2, 39191, Note_off_c, 0, 63, 64
2, 39199, Note_off_c, 0, 47, 64
2, 39223, Note_on_c, 0, 54, 49
2, 39234, Note_on_c, 0, 61, 58
2, 39236, Note_on_c, 0, 70, 80
2, 39242, Note_on_c, 0, 49, 36
2, 39256, Note_off_c, 0, 71, 64
2, 39302, Note_on_c, 0, 68, 58
2, 39325, Note_off_c, 0, 70, 64
2, 39337, Note_off_c, 0, 54, 64
2, 39348, Note_off_c, 0, 61, 64
2, 39356, Note_off_c, 0, 49, 64
2, 39374, Note_on_c, 0, 61, 47
2, 39374, Control_c, 0, 64, 0
2, 39374, Control_c, 0, 64, 0
2, 39380, Note_on_c, 0, 70, 77
2, 39380, Note_on_c, 0, 54, 58
2, 39386, Note_on_c, 0, 42, 64
2, 39393, Note_off_c, 0, 68, 64
2, 39402, Control_c, 0, 64, 127
2, 39402, Control_c, 0, 64, 127
2, 39458, Note_on_c, 0, 66, 57
2, 39478, Note_off_c, 0, 70, 64
2, 39488, Note_off_c, 0, 61, 64
2, 39494, Note_off_c, 0, 54, 64
2, 39500, Note_off_c, 0, 42, 64
2, 39521, Control_c, 0, 64, 0
2, 39521, Control_c, 0, 64, 0
2, 39530, Note_on_c, 0, 54, 47
2, 39536, Note_on_c, 0, 63, 60
2, 39538, Note_on_c, 0, 47, 59
2, 39552, Note_off_c, 0, 66, 64
2, 39556, Control_c, 0, 64, 127
2, 39556, Control_c, 0, 64, 127
2, 39614, Note_on_c, 0, 65, 50
2, 39644, Note_off_c, 0, 54, 64
2, 39650, Note_off_c, 0, 63, 64
2, 39652, Note_off_c, 0, 47, 64
2, 39654, Control_c, 0, 64, 0
2, 39654, Control_c, 0, 64, 0
2, 39685, Note_on_c, 0, 54, 43
2, 39688, Note_on_c, 0, 66, 55
2, 39690, Note_on_c, 0, 63, 58
2, 39693, Note_on_c, 0, 47, 56
2, 39698, Note_off_c, 0, 65, 64
2, 39711, Control_c, 0, 64, 127
2, 39711, Control_c, 0, 64, 127
2, 39763, Note_on_c, 0, 68, 64
2, 39782, Note_off_c, 0, 66, 64
2, 39799, Note_off_c, 0, 54, 64
2, 39801, Control_c, 0, 64, 0
2, 39801, Control_c, 0, 64, 0
2, 39804, Note_off_c, 0, 63, 64
2, 39807, Note_off_c, 0, 47, 64
2, 39840, Note_on_c, 0, 63, 50
2, 39842, Note_on_c, 0, 70, 64
2, 39844, Note_on_c, 0, 54, 40
2, 39848, Note_on_c, 0, 42, 56
2, 39858, Control_c, 0, 64, 127
2, 39858, Control_c, 0, 64, 127
2, 39860, Note_off_c, 0, 68, 64
2, 39916, Note_on_c, 0, 71, 64
2, 39930, Note_off_c, 0, 70, 64
2, 39954, Note_off_c, 0, 63, 64
2, 39958, Note_off_c, 0, 54, 64
2, 39962, Note_off_c, 0, 42, 64
2, 39968, Control_c, 0, 64, 0
2, 39968, Control_c, 0, 64, 0
2, 39994, Note_on_c, 0, 63, 60
2, 39999, Note_on_c, 0, 54, 55
2, 40005, Note_on_c, 0, 47, 62
2, 40012, Control_c, 0, 64, 127
2, 40012, Control_c, 0, 64, 127
2, 40054, Note_on_c, 0, 73, 58
2, 40064, Note_off_c, 0, 71, 64
2, 40086, Note_on_c, 0, 71, 73
2, 40108, Note_off_c, 0, 63, 64
2, 40112, Note_off_c, 0, 73, 64
2, 40113, Note_off_c, 0, 54, 64
2, 40119, Note_off_c, 0, 47, 64
2, 40123, Control_c, 0, 64, 0
2, 40123, Control_c, 0, 64, 0
2, 40154, Note_on_c, 0, 47, 50
2, 40155, Note_on_c, 0, 53, 50
2, 40158, Note_on_c, 0, 63, 58
2, 40165, Note_on_c, 0, 70, 56
2, 40171, Control_c, 0, 64, 127
2, 40171, Control_c, 0, 64, 127
2, 40187, Note_off_c, 0, 71, 64
2, 40226, Note_on_c, 0, 68, 73
2, 40252, Note_off_c, 0, 70, 64
2, 40268, Note_off_c, 0, 47, 64
2, 40269, Note_off_c, 0, 53, 64
2, 40272, Note_off_c, 0, 63, 64
2, 40318, Note_on_c, 0, 46, 44
2, 40322, Note_on_c, 0, 53, 47
2, 40323, Note_on_c, 0, 70, 92
2, 40330, Note_on_c, 0, 62, 66
2, 40338, Control_c, 0, 64, 0
2, 40338, Control_c, 0, 64, 0
2, 40342, Note_off_c, 0, 68, 64
2, 40382, Control_c, 0, 64, 127
2, 40382, Control_c, 0, 64, 127
2, 40438, Note_off_c, 0, 46, 64
2, 40442, Note_off_c, 0, 53, 64
2, 40443, Note_off_c, 0, 70, 64
2, 40450, Note_off_c, 0, 62, 64
2, 40580, Note_on_c, 0, 34, 67
2, 40583, Note_on_c, 0, 80, 95
2, 40590, Control_c, 0, 64, 0
2, 40590, Control_c, 0, 64, 0
2, 40636, Control_c, 0, 64, 127
2, 40636, Control_c, 0, 64, 127
2, 40802, Note_on_c, 0, 68, 72
2, 40802, Note_on_c, 0, 58, 59
2, 40804, Note_on_c, 0, 74, 67
2, 40883, Note_on_c, 0, 79, 71
2, 40890, Note_off_c, 0, 80, 64
2, 40903, Note_off_c, 0, 34, 64
2, 40914, Note_off_c, 0, 58, 64
2, 40914, Note_off_c, 0, 68, 64
2, 40916, Note_off_c, 0, 74, 64
2, 40956, Note_on_c, 0, 58, 57
2, 40956, Note_on_c, 0, 51, 58
2, 40956, Note_on_c, 0, 67, 2
2, 40956, Note_on_c, 0, 63, 60
2, 40958, Note_on_c, 0, 75, 74
2, 40958, Note_on_c, 0, 73, 48
2, 40975, Control_c, 0, 64, 0
2, 40975, Control_c, 0, 64, 0
2, 40977, Note_off_c, 0, 79, 64
2, 40986, Control_c, 0, 64, 127
2, 40986, Control_c, 0, 64, 127
2, 41030, Note_on_c, 0, 77, 66
2, 41046, Note_off_c, 0, 75, 64
2, 41068, Note_off_c, 0, 63, 64
2, 41068, Note_off_c, 0, 67, 64
2, 41068, Note_off_c, 0, 51, 64
2, 41068, Note_off_c, 0, 58, 64
2, 41070, Note_off_c, 0, 73, 64
2, 41110, Note_on_c, 0, 73, 74
2, 41110, Note_on_c, 0, 66, 69
2, 41110, Note_on_c, 0, 58, 32
2, 41110, Note_on_c, 0, 46, 62
2, 41113, Note_on_c, 0, 78, 74
2, 41124, Control_c, 0, 64, 0
2, 41124, Control_c, 0, 64, 0
2, 41127, Note_off_c, 0, 77, 64
2, 41140, Control_c, 0, 64, 127
2, 41140, Control_c, 0, 64, 127
2, 41178, Note_on_c, 0, 80, 70
2, 41201, Note_off_c, 0, 78, 64
2, 41222, Note_off_c, 0, 46, 64
2, 41222, Note_off_c, 0, 58, 64
2, 41222, Note_off_c, 0, 66, 64
2, 41222, Note_off_c, 0, 73, 64
2, 41222, Note_on_c, 0, 78, 70
2, 41240, Note_off_c, 0, 80, 64
2, 41271, Control_c, 0, 64, 0
2, 41271, Control_c, 0, 64, 0
2, 41282, Note_on_c, 0, 72, 71
2, 41282, Note_on_c, 0, 66, 72
2, 41282, Note_on_c, 0, 56, 51
2, 41286, Note_on_c, 0, 44, 59
2, 41290, Control_c, 0, 64, 127
2, 41290, Control_c, 0, 64, 127
2, 41300, Note_on_c, 0, 77, 75
2, 41318, Note_off_c, 0, 78, 64
2, 41370, Note_on_c, 0, 77, 36
2, 41374, Note_off_c, 0, 77, 64
2, 41376, Note_on_c, 0, 75, 75
2, 41394, Note_off_c, 0, 56, 64
2, 41394, Note_off_c, 0, 66, 64
2, 41394, Note_off_c, 0, 72, 64
2, 41398, Note_off_c, 0, 77, 64
2, 41398, Note_off_c, 0, 44, 64
2, 41445, Control_c, 0, 64, 0
2, 41445, Control_c, 0, 64, 0
2, 41446, Note_on_c, 0, 65, 40
2, 41446, Note_on_c, 0, 61, 59
2, 41450, Note_on_c, 0, 71, 50
2, 41450, Note_on_c, 0, 56, 59
2, 41450, Note_on_c, 0, 49, 57
2, 41451, Note_off_c, 0, 75, 64
2, 41451, Note_on_c, 0, 77, 70
2, 41467, Control_c, 0, 64, 127
2, 41467, Control_c, 0, 64, 127
2, 41483, Control_c, 0, 64, 127
2, 41483, Control_c, 0, 64, 127
2, 41524, Note_on_c, 0, 73, 78
2, 41543, Note_off_c, 0, 77, 64
2, 41558, Note_off_c, 0, 61, 64
2, 41558, Note_off_c, 0, 65, 64
2, 41562, Note_off_c, 0, 49, 64
2, 41562, Note_off_c, 0, 56, 64
2, 41562, Note_off_c, 0, 71, 64
2, 41598, Note_on_c, 0, 64, 64
2, 41600, Note_on_c, 0, 44, 58
2, 41600, Note_on_c, 0, 76, 73
2, 41601, Note_on_c, 0, 71, 57
2, 41601, Note_on_c, 0, 56, 41
2, 41607, Note_off_c, 0, 73, 64
2, 41621, Control_c, 0, 64, 0
2, 41621, Control_c, 0, 64, 0
2, 41632, Control_c, 0, 64, 127
2, 41632, Control_c, 0, 64, 127
2, 41710, Note_off_c, 0, 64, 64
2, 41712, Note_off_c, 0, 44, 64
2, 41713, Note_off_c, 0, 56, 64
2, 41713, Note_off_c, 0, 71, 64
2, 41768, Note_on_c, 0, 42, 57
2, 41770, Note_on_c, 0, 54, 39
2, 41771, Note_on_c, 0, 70, 74
2, 41771, Note_on_c, 0, 64, 65
2, 41783, Control_c, 0, 64, 0
2, 41783, Control_c, 0, 64, 0
2, 41794, Control_c, 0, 64, 127
2, 41794, Control_c, 0, 64, 127
2, 41854, Note_on_c, 0, 75, 59
2, 41864, Note_off_c, 0, 76, 64
2, 41880, Note_off_c, 0, 42, 64
2, 41882, Note_off_c, 0, 54, 64
2, 41883, Note_off_c, 0, 64, 64
2, 41883, Note_off_c, 0, 70, 64
2, 41942, Note_on_c, 0, 47, 52
2, 41942, Note_on_c, 0, 54, 32
2, 41942, Note_on_c, 0, 59, 32
2, 41942, Note_on_c, 0, 63, 71
2, 41942, Note_on_c, 0, 69, 64
2, 41943, Note_on_c, 0, 71, 72
2, 41945, Control_c, 0, 64, 0
2, 41945, Control_c, 0, 64, 0
2, 41958, Control_c, 0, 64, 127
2, 41958, Control_c, 0, 64, 127
2, 41963, Note_off_c, 0, 75, 64
2, 41974, Control_c, 0, 64, 127
2, 41974, Control_c, 0, 64, 127
2, 42024, Note_on_c, 0, 73, 55
2, 42054, Note_off_c, 0, 69, 64
2, 42054, Note_off_c, 0, 63, 64
2, 42054, Note_off_c, 0, 59, 64
2, 42054, Note_off_c, 0, 54, 64
2, 42054, Note_off_c, 0, 47, 64
2, 42055, Note_off_c, 0, 71, 64
2, 42101, Note_on_c, 0, 74, 60
2, 42102, Note_on_c, 0, 42, 63
2, 42102, Note_on_c, 0, 62, 60
2, 42102, Note_on_c, 0, 69, 60
2, 42102, Note_on_c, 0, 54, 27
2, 42112, Note_off_c, 0, 73, 64
2, 42162, Note_on_c, 0, 76, 65
2, 42168, Note_off_c, 0, 74, 64
2, 42200, Note_on_c, 0, 74, 64
2, 42214, Note_off_c, 0, 76, 64
2, 42214, Note_off_c, 0, 54, 64
2, 42214, Note_off_c, 0, 69, 64
2, 42214, Note_off_c, 0, 62, 64
2, 42214, Note_off_c, 0, 42, 64
2, 42254, Control_c, 0, 64, 0
2, 42254, Control_c, 0, 64, 0
2, 42278, Note_on_c, 0, 68, 55
2, 42278, Note_on_c, 0, 73, 55
2, 42278, Note_on_c, 0, 62, 59
2, 42280, Note_on_c, 0, 52, 29
2, 42282, Note_on_c, 0, 40, 51
2, 42291, Note_off_c, 0, 74, 64
2, 42296, Control_c, 0, 64, 127
2, 42296, Control_c, 0, 64, 127
2, 42367, Note_on_c, 0, 71, 57
2, 42381, Note_off_c, 0, 73, 64
2, 42390, Note_off_c, 0, 62, 64
2, 42390, Note_off_c, 0, 68, 64
2, 42392, Note_off_c, 0, 52, 64
2, 42394, Note_off_c, 0, 40, 64
2, 42466, Note_on_c, 0, 73, 66
2, 42466, Note_on_c, 0, 69, 39
2, 42466, Note_on_c, 0, 61, 46
2, 42466, Note_on_c, 0, 57, 35
2, 42466, Note_on_c, 0, 52, 35
2, 42466, Note_on_c, 0, 45, 36
2, 42476, Control_c, 0, 64, 0
2, 42476, Control_c, 0, 64, 0
2, 42489, Note_off_c, 0, 71, 64
2, 42496, Control_c, 0, 64, 0
2, 42496, Control_c, 0, 64, 0
2, 42542, Control_c, 0, 64, 127
2, 42542, Control_c, 0, 64, 127
2, 42676, Note_off_c, 0, 45, 64
2, 42676, Note_off_c, 0, 52, 64
2, 42676, Note_off_c, 0, 57, 64
2, 42676, Note_off_c, 0, 61, 64
2, 42676, Note_off_c, 0, 69, 64
2, 42676, Note_off_c, 0, 73, 64
2, 42698, Note_on_c, 0, 61, 58
2, 42698, Note_on_c, 0, 73, 71
2, 42698, Note_on_c, 0, 68, 36
2, 42698, Note_on_c, 0, 52, 27
2, 42698, Note_on_c, 0, 40, 9
2, 42708, Control_c, 0, 64, 0
2, 42708, Control_c, 0, 64, 0
2, 42744, Control_c, 0, 64, 127
2, 42744, Control_c, 0, 64, 127
2, 42810, Note_off_c, 0, 40, 64
2, 42810, Note_off_c, 0, 52, 64
2, 42810, Note_off_c, 0, 68, 64
2, 42810, Note_off_c, 0, 61, 64
2, 42876, Control_c, 0, 64, 0
2, 42876, Control_c, 0, 64, 0
2, 42886, Note_on_c, 0, 39, 54
2, 42887, Note_on_c, 0, 67, 50
2, 42887, Note_on_c, 0, 51, 41
2, 42888, Note_on_c, 0, 61, 34
2, 42896, Control_c, 0, 64, 127
2, 42896, Control_c, 0, 64, 127
2, 42961, Note_on_c, 0, 72, 59
2, 42977, Note_off_c, 0, 73, 64
2, 42998, Note_off_c, 0, 39, 64
2, 42999, Note_off_c, 0, 51, 64
2, 42999, Note_off_c, 0, 67, 64
2, 43000, Note_off_c, 0, 61, 64
2, 43031, Note_on_c, 0, 44, 42
2, 43032, Note_on_c, 0, 56, 41
2, 43034, Note_on_c, 0, 68, 65
2, 43034, Note_on_c, 0, 66, 48
2, 43034, Note_on_c, 0, 60, 41
2, 43034, Note_on_c, 0, 51, 41
2, 43035, Control_c, 0, 64, 0
2, 43035, Control_c, 0, 64, 0
2, 43054, Note_off_c, 0, 72, 64
2, 43056, Control_c, 0, 64, 127
2, 43056, Control_c, 0, 64, 127
2, 43107, Note_on_c, 0, 70, 54
2, 43114, Note_off_c, 0, 68, 64
2, 43143, Note_off_c, 0, 44, 64
2, 43144, Note_off_c, 0, 56, 64
2, 43146, Note_off_c, 0, 51, 64
2, 43146, Note_off_c, 0, 60, 64
2, 43146, Note_off_c, 0, 66, 64
2, 43194, Note_on_c, 0, 66, 37
2, 43194, Note_on_c, 0, 51, 28
2, 43194, Note_on_c, 0, 39, 43
2, 43196, Note_on_c, 0, 71, 59
2, 43204, Note_off_c, 0, 70, 64
2, 43249, Note_on_c, 0, 73, 42
2, 43254, Note_off_c, 0, 71, 64
2, 43286, Note_on_c, 0, 71, 57
2, 43295, Note_off_c, 0, 73, 64
2, 43306, Note_off_c, 0, 39, 64
2, 43306, Note_off_c, 0, 51, 64
2, 43306, Note_off_c, 0, 66, 64
2, 43343, Control_c, 0, 64, 0
2, 43343, Control_c, 0, 64, 0
2, 43354, Note_on_c, 0, 49, 32
2, 43354, Note_on_c, 0, 37, 37
2, 43356, Note_on_c, 0, 70, 60
2, 43356, Note_on_c, 0, 65, 43
2, 43359, Note_on_c, 0, 59, 36
2, 43365, Note_off_c, 0, 71, 64
2, 43365, Control_c, 0, 64, 127
2, 43365, Control_c, 0, 64, 127
2, 43424, Note_on_c, 0, 68, 56
2, 43431, Note_off_c, 0, 70, 64
2, 43466, Note_off_c, 0, 37, 64
2, 43466, Note_off_c, 0, 49, 64
2, 43468, Note_off_c, 0, 65, 64
2, 43471, Note_off_c, 0, 59, 64
2, 43493, Control_c, 0, 64, 0
2, 43493, Control_c, 0, 64, 0
2, 43498, Note_on_c, 0, 70, 59
2, 43498, Note_on_c, 0, 58, 43
2, 43498, Note_on_c, 0, 54, 32
2, 43500, Note_off_c, 0, 68, 64
2, 43500, Note_on_c, 0, 42, 32
2, 43532, Control_c, 0, 64, 127
2, 43532, Control_c, 0, 64, 127
2, 43583, Note_on_c, 0, 66, 48
2, 43589, Note_off_c, 0, 70, 64
2, 43610, Note_off_c, 0, 54, 64
2, 43610, Note_off_c, 0, 58, 64
2, 43612, Note_off_c, 0, 42, 64
2, 43638, Control_c, 0, 64, 0
2, 43638, Control_c, 0, 64, 0
2, 43646, Note_on_c, 0, 47, 58
2, 43646, Note_on_c, 0, 54, 58
2, 43646, Note_on_c, 0, 63, 73
2, 43646, Note_on_c, 0, 59, 70
2, 43664, Note_off_c, 0, 66, 64
2, 43688, Control_c, 0, 64, 127
2, 43688, Control_c, 0, 64, 127
2, 43794, Note_off_c, 0, 59, 64
2, 43794, Note_off_c, 0, 63, 64
2, 43794, Note_off_c, 0, 54, 64
2, 43794, Note_off_c, 0, 47, 64
2, 43802, Note_on_c, 0, 63, 58
2, 43808, Note_on_c, 0, 66, 66
2, 43812, Note_on_c, 0, 54, 46
2, 43834, Note_on_c, 0, 47, 27
2, 43877, Note_on_c, 0, 68, 63
2, 43886, Note_off_c, 0, 66, 64
2, 43916, Note_off_c, 0, 63, 64
2, 43926, Note_off_c, 0, 54, 64
2, 43948, Note_off_c, 0, 47, 64
2, 43952, Control_c, 0, 64, 0
2, 43952, Control_c, 0, 64, 0
2, 43958, Note_on_c, 0, 70, 59
2, 43958, Note_on_c, 0, 63, 60
2, 43962, Note_on_c, 0, 54, 56
2, 43964, Note_off_c, 0, 68, 64
2, 43964, Note_on_c, 0, 42, 63
2, 43982, Control_c, 0, 64, 127
2, 43982, Control_c, 0, 64, 127
2, 44033, Note_on_c, 0, 71, 72
2, 44049, Note_off_c, 0, 70, 64
2, 44072, Note_off_c, 0, 63, 64
2, 44076, Note_off_c, 0, 54, 64
2, 44078, Note_off_c, 0, 42, 64
2, 44090, Control_c, 0, 64, 0
2, 44090, Control_c, 0, 64, 0
2, 44104, Note_on_c, 0, 63, 60
2, 44112, Note_on_c, 0, 47, 58
2, 44115, Note_on_c, 0, 54, 42
2, 44144, Control_c, 0, 64, 127
2, 44144, Control_c, 0, 64, 127
2, 44148, Note_on_c, 0, 73, 67
2, 44158, Note_off_c, 0, 71, 64
2, 44195, Note_on_c, 0, 71, 56
2, 44203, Note_off_c, 0, 73, 64
2, 44218, Note_off_c, 0, 63, 64
2, 44218, Control_c, 0, 64, 0
2, 44218, Control_c, 0, 64, 0
2, 44226, Note_off_c, 0, 47, 64
2, 44229, Note_off_c, 0, 54, 64
2, 44250, Note_on_c, 0, 61, 51
2, 44250, Note_on_c, 0, 42, 64
2, 44256, Note_on_c, 0, 54, 46
2, 44259, Note_on_c, 0, 70, 73
2, 44270, Note_off_c, 0, 71, 64
2, 44277, Control_c, 0, 64, 127
2, 44277, Control_c, 0, 64, 127
2, 44321, Note_on_c, 0, 68, 59
2, 44341, Note_off_c, 0, 70, 64
2, 44364, Note_off_c, 0, 42, 64
2, 44364, Note_off_c, 0, 61, 64
2, 44370, Note_off_c, 0, 54, 64
2, 44377, Control_c, 0, 64, 0
2, 44377, Control_c, 0, 64, 0
2, 44397, Note_on_c, 0, 70, 74
2, 44397, Note_on_c, 0, 61, 56
2, 44401, Note_on_c, 0, 42, 56
2, 44406, Note_off_c, 0, 68, 64
2, 44406, Note_on_c, 0, 54, 40
2, 44414, Control_c, 0, 64, 127
2, 44414, Control_c, 0, 64, 127
2, 44475, Note_on_c, 0, 66, 62
2, 44494, Note_off_c, 0, 70, 64
2, 44511, Note_off_c, 0, 61, 64
2, 44514, Control_c, 0, 64, 0
2, 44514, Control_c, 0, 64, 0
2, 44515, Note_off_c, 0, 42, 64
2, 44520, Note_off_c, 0, 54, 64
2, 44538, Note_on_c, 0, 54, 56
2, 44543, Note_on_c, 0, 63, 65
2, 44547, Note_on_c, 0, 47, 55
2, 44560, Control_c, 0, 64, 127
2, 44560, Control_c, 0, 64, 127
2, 44566, Note_off_c, 0, 66, 64
2, 44612, Note_on_c, 0, 65, 56
2, 44648, Control_c, 0, 64, 0
2, 44648, Control_c, 0, 64, 0
2, 44652, Note_off_c, 0, 54, 64
2, 44657, Note_off_c, 0, 63, 64
2, 44661, Note_off_c, 0, 47, 64
2, 44674, Note_on_c, 0, 54, 57
2, 44680, Note_on_c, 0, 63, 58
2, 44686, Note_on_c, 0, 66, 56
2, 44688, Note_on_c, 0, 47, 46
2, 44695, Note_off_c, 0, 65, 64
2, 44697, Control_c, 0, 64, 127
2, 44697, Control_c, 0, 64, 127
2, 44754, Note_on_c, 0, 68, 62
2, 44771, Note_off_c, 0, 66, 64
2, 44788, Note_off_c, 0, 54, 64
2, 44794, Note_off_c, 0, 63, 64
2, 44794, Control_c, 0, 64, 0
2, 44794, Control_c, 0, 64, 0
2, 44802, Note_off_c, 0, 47, 64
2, 44816, Control_c, 0, 64, 127
2, 44816, Control_c, 0, 64, 127
2, 44823, Note_on_c, 0, 54, 56
2, 44823, Note_on_c, 0, 42, 63
2, 44828, Note_on_c, 0, 70, 64
2, 44832, Note_on_c, 0, 63, 54
2, 44844, Note_off_c, 0, 68, 64
2, 44910, Note_on_c, 0, 71, 73
2, 44937, Note_off_c, 0, 42, 64
2, 44937, Note_off_c, 0, 54, 64
2, 44943, Control_c, 0, 64, 0
2, 44943, Control_c, 0, 64, 0
2, 44946, Note_off_c, 0, 63, 64
2, 44950, Note_off_c, 0, 70, 64
2, 44967, Note_on_c, 0, 54, 52
2, 44974, Note_on_c, 0, 63, 62
2, 44974, Note_on_c, 0, 47, 58
2, 44982, Control_c, 0, 64, 127
2, 44982, Control_c, 0, 64, 127
2, 45011, Note_on_c, 0, 73, 62
2, 45029, Note_off_c, 0, 71, 64
2, 45064, Note_on_c, 0, 71, 62
2, 45079, Note_off_c, 0, 73, 64
2, 45081, Note_off_c, 0, 54, 64
2, 45082, Control_c, 0, 64, 0
2, 45082, Control_c, 0, 64, 0
2, 45088, Note_off_c, 0, 47, 64
2, 45088, Note_off_c, 0, 63, 64
2, 45108, Note_on_c, 0, 54, 46
2, 45113, Note_on_c, 0, 61, 49
2, 45119, Note_on_c, 0, 70, 62
2, 45119, Note_on_c, 0, 47, 42
2, 45127, Control_c, 0, 64, 127
2, 45127, Control_c, 0, 64, 127
2, 45134, Note_off_c, 0, 71, 64
2, 45182, Note_on_c, 0, 68, 73
2, 45210, Note_off_c, 0, 70, 64
2, 45219, Control_c, 0, 64, 0
2, 45219, Control_c, 0, 64, 0
2, 45222, Note_off_c, 0, 54, 64
2, 45227, Note_off_c, 0, 61, 64
2, 45233, Note_off_c, 0, 47, 64
2, 45241, Note_on_c, 0, 54, 46
2, 45245, Note_on_c, 0, 42, 69
2, 45248, Note_on_c, 0, 70, 82
2, 45248, Note_on_c, 0, 61, 25
2, 45259, Note_off_c, 0, 68, 64
2, 45261, Control_c, 0, 64, 127
2, 45261, Control_c, 0, 64, 127
2, 45314, Note_on_c, 0, 66, 50
2, 45336, Note_off_c, 0, 70, 64
2, 45355, Note_off_c, 0, 54, 64
2, 45359, Note_off_c, 0, 42, 64
2, 45359, Control_c, 0, 64, 0
2, 45359, Control_c, 0, 64, 0
2, 45362, Note_off_c, 0, 61, 64
2, 45375, Note_on_c, 0, 54, 62
2, 45378, Note_on_c, 0, 63, 59
2, 45383, Note_on_c, 0, 70, 73
2, 45383, Note_on_c, 0, 47, 58
2, 45389, Control_c, 0, 64, 127
2, 45389, Control_c, 0, 64, 127
2, 45399, Note_off_c, 0, 66, 64
2, 45439, Note_on_c, 0, 68, 66
2, 45459, Note_off_c, 0, 70, 64
2, 45480, Control_c, 0, 64, 0
2, 45480, Control_c, 0, 64, 0
2, 45489, Note_off_c, 0, 54, 64
2, 45492, Note_off_c, 0, 63, 64
2, 45497, Note_off_c, 0, 47, 64
2, 45505, Note_on_c, 0, 61, 62
2, 45511, Note_on_c, 0, 54, 46
2, 45514, Note_on_c, 0, 70, 74
2, 45514, Note_on_c, 0, 42, 58
2, 45527, Control_c, 0, 64, 127
2, 45527, Control_c, 0, 64, 127
2, 45539, Note_off_c, 0, 68, 64
2, 45571, Note_on_c, 0, 66, 56
2, 45581, Note_off_c, 0, 70, 64
2, 45609, Control_c, 0, 64, 0
2, 45609, Control_c, 0, 64, 0
2, 45619, Note_off_c, 0, 61, 64
2, 45625, Note_off_c, 0, 54, 64
2, 45628, Note_off_c, 0, 42, 64
2, 45641, Note_on_c, 0, 63, 59
2, 45647, Note_on_c, 0, 70, 74
2, 45647, Note_on_c, 0, 54, 58
2, 45652, Note_on_c, 0, 47, 48
2, 45657, Control_c, 0, 64, 127
2, 45657, Control_c, 0, 64, 127
2, 45661, Note_off_c, 0, 66, 64
2, 45703, Note_on_c, 0, 68, 70
2, 45724, Note_off_c, 0, 70, 64
2, 45747, Control_c, 0, 64, 0
2, 45747, Control_c, 0, 64, 0
2, 45755, Note_off_c, 0, 63, 64
2, 45761, Note_off_c, 0, 54, 64
2, 45766, Note_off_c, 0, 47, 64
2, 45768, Note_on_c, 0, 61, 62
2, 45771, Note_on_c, 0, 70, 77
2, 45778, Note_on_c, 0, 54, 42
2, 45778, Note_on_c, 0, 42, 55
2, 45786, Control_c, 0, 64, 127
2, 45786, Control_c, 0, 64, 127
2, 45794, Note_off_c, 0, 68, 64
2, 45828, Note_on_c, 0, 66, 59
2, 45852, Note_off_c, 0, 70, 64
2, 45867, Control_c, 0, 64, 0
2, 45867, Control_c, 0, 64, 0
2, 45882, Note_off_c, 0, 61, 64
2, 45892, Note_off_c, 0, 42, 64
2, 45892, Note_off_c, 0, 54, 64
2, 45901, Note_on_c, 0, 70, 77
2, 45905, Note_on_c, 0, 54, 58
2, 45906, Note_on_c, 0, 63, 59
2, 45909, Note_on_c, 0, 47, 62
2, 45914, Note_off_c, 0, 66, 64
2, 45915, Control_c, 0, 64, 127
2, 45915, Control_c, 0, 64, 127
2, 45956, Note_on_c, 0, 68, 67
2, 45964, Note_off_c, 0, 70, 64
2, 45997, Control_c, 0, 64, 0
2, 45997, Control_c, 0, 64, 0
2, 46019, Note_off_c, 0, 54, 64
2, 46020, Note_off_c, 0, 63, 64
2, 46021, Note_on_c, 0, 61, 60
2, 46023, Note_off_c, 0, 47, 64
2, 46027, Note_on_c, 0, 70, 80
2, 46033, Note_on_c, 0, 42, 46
2, 46033, Control_c, 0, 64, 127
2, 46033, Control_c, 0, 64, 127
2, 46040, Note_on_c, 0, 54, 55
2, 46043, Note_off_c, 0, 68, 64
2, 46087, Note_on_c, 0, 66, 73
2, 46102, Note_off_c, 0, 70, 64
2, 46135, Note_off_c, 0, 61, 64
2, 46135, Control_c, 0, 64, 0
2, 46135, Control_c, 0, 64, 0
2, 46147, Note_off_c, 0, 42, 64
2, 46154, Note_off_c, 0, 54, 64
2, 46156, Note_on_c, 0, 63, 50
2, 46161, Note_on_c, 0, 54, 57
2, 46164, Note_on_c, 0, 69, 74
2, 46167, Note_on_c, 0, 47, 56
2, 46175, Control_c, 0, 64, 127
2, 46175, Control_c, 0, 64, 127
2, 46184, Note_off_c, 0, 66, 64
2, 46223, Note_on_c, 0, 68, 72
2, 46243, Note_off_c, 0, 69, 64
2, 46247, Control_c, 0, 64, 0
2, 46247, Control_c, 0, 64, 0
2, 46270, Note_off_c, 0, 63, 64
2, 46275, Note_off_c, 0, 54, 64
2, 46281, Note_off_c, 0, 47, 64
2, 46283, Note_on_c, 0, 61, 54
2, 46291, Note_on_c, 0, 42, 43
2, 46292, Note_on_c, 0, 54, 59
2, 46300, Note_on_c, 0, 69, 49
2, 46305, Control_c, 0, 64, 127
2, 46305, Control_c, 0, 64, 127
2, 46310, Note_off_c, 0, 68, 64
2, 46358, Note_on_c, 0, 66, 41
2, 46380, Note_off_c, 0, 69, 64
2, 46397, Note_off_c, 0, 61, 64
2, 46403, Control_c, 0, 64, 0
2, 46403, Control_c, 0, 64, 0
2, 46405, Note_off_c, 0, 42, 64
2, 46406, Note_off_c, 0, 54, 64
2, 46429, Note_on_c, 0, 69, 57
2, 46429, Note_on_c, 0, 63, 46
2, 46435, Note_on_c, 0, 47, 55
2, 46437, Note_on_c, 0, 54, 41
2, 46443, Note_off_c, 0, 66, 64
2, 46450, Control_c, 0, 64, 127
2, 46450, Control_c, 0, 64, 127
2, 46491, Note_on_c, 0, 68, 55
2, 46502, Note_off_c, 0, 69, 64
2, 46543, Note_off_c, 0, 63, 64
2, 46549, Note_off_c, 0, 47, 64
2, 46551, Note_off_c, 0, 54, 64
2, 46559, Control_c, 0, 64, 0
2, 46559, Control_c, 0, 64, 0
2, 46564, Note_on_c, 0, 61, 47
2, 46571, Note_on_c, 0, 54, 46
2, 46571, Note_on_c, 0, 42, 49
2, 46574, Note_on_c, 0, 69, 44
2, 46589, Note_off_c, 0, 68, 64
2, 46589, Control_c, 0, 64, 127
2, 46589, Control_c, 0, 64, 127
2, 46638, Note_on_c, 0, 66, 63
2, 46654, Note_off_c, 0, 69, 64
2, 46678, Note_off_c, 0, 61, 64
2, 46685, Note_off_c, 0, 42, 64
2, 46685, Note_off_c, 0, 54, 64
2, 46705, Control_c, 0, 64, 0
2, 46705, Control_c, 0, 64, 0
2, 46716, Note_on_c, 0, 54, 33
2, 46720, Note_on_c, 0, 69, 43
2, 46720, Note_on_c, 0, 47, 41
2, 46724, Note_on_c, 0, 63, 36
2, 46733, Note_off_c, 0, 66, 64
2, 46754, Control_c, 0, 64, 127
2, 46754, Control_c, 0, 64, 127
2, 46796, Note_on_c, 0, 68, 49
2, 46801, Note_off_c, 0, 69, 64
2, 46830, Note_off_c, 0, 54, 64
2, 46834, Note_off_c, 0, 47, 64
2, 46838, Note_off_c, 0, 63, 64
2, 46864, Control_c, 0, 64, 0
2, 46864, Control_c, 0, 64, 0
2, 46882, Note_on_c, 0, 42, 35
2, 46884, Note_on_c, 0, 61, 40
2, 46888, Note_on_c, 0, 69, 48
2, 46892, Note_on_c, 0, 54, 26
2, 46902, Note_off_c, 0, 68, 64
2, 46911, Control_c, 0, 64, 127
2, 46911, Control_c, 0, 64, 127
2, 46979, Note_on_c, 0, 66, 39
2, 46986, Note_off_c, 0, 69, 64
2, 46996, Note_off_c, 0, 42, 64
2, 46998, Note_off_c, 0, 61, 64
2, 47006, Note_off_c, 0, 54, 64
2, 47075, Note_off_c, 0, 66, 64
2, 47118, Control_c, 0, 64, 0
2, 47118, Control_c, 0, 64, 0
2, 47133, Note_on_c, 0, 63, 47
2, 47134, Note_on_c, 0, 69, 54
2, 47141, Note_on_c, 0, 35, 47
2, 47181, Control_c, 0, 64, 127
2, 47181, Control_c, 0, 64, 127
2, 47376, Note_on_c, 0, 42, 56
2, 47380, Note_off_c, 0, 35, 64
2, 47472, Note_on_c, 0, 47, 55
2, 47492, Note_off_c, 0, 42, 64
2, 47534, Note_on_c, 0, 56, 57
2, 47548, Note_off_c, 0, 47, 64
2, 47594, Note_on_c, 0, 54, 58
2, 47601, Note_off_c, 0, 56, 64
2, 47633, Note_on_c, 0, 56, 64
2, 47639, Note_off_c, 0, 54, 64
2, 47670, Note_on_c, 0, 54, 56
2, 47684, Note_off_c, 0, 56, 64
2, 47701, Control_c, 0, 64, 0
2, 47701, Control_c, 0, 64, 0
2, 47718, Note_on_c, 0, 47, 74
2, 47738, Note_off_c, 0, 54, 64
2, 47868, Control_c, 0, 64, 127
2, 47868, Control_c, 0, 64, 127
2, 47875, Note_on_c, 0, 59, 63
2, 47889, Note_off_c, 0, 47, 64
2, 47933, Note_off_c, 0, 59, 64
2, 48033, Note_off_c, 0, 69, 64
2, 48048, Note_on_c, 0, 40, 66
2, 48052, Note_on_c, 0, 69, 64
2, 48052, Note_on_c, 0, 62, 63
2, 48052, Control_c, 0, 64, 0
2, 48052, Control_c, 0, 64, 0
2, 48081, Note_off_c, 0, 63, 64
2, 48094, Control_c, 0, 64, 127
2, 48094, Control_c, 0, 64, 127
2, 48278, Note_on_c, 0, 47, 55
2, 48298, Note_off_c, 0, 40, 64
2, 48362, Note_on_c, 0, 52, 51
2, 48380, Note_off_c, 0, 47, 64
2, 48426, Note_on_c, 0, 61, 56
2, 48445, Note_off_c, 0, 52, 64
2, 48498, Note_on_c, 0, 59, 57
2, 48502, Note_on_c, 0, 68, 77
2, 48509, Note_off_c, 0, 61, 64
2, 48525, Note_on_c, 0, 61, 55
2, 48537, Note_off_c, 0, 59, 64
2, 48541, Note_off_c, 0, 69, 64
2, 48566, Note_on_c, 0, 59, 55
2, 48582, Note_off_c, 0, 61, 64
2, 48583, Control_c, 0, 64, 0
2, 48583, Control_c, 0, 64, 0
2, 48624, Note_on_c, 0, 52, 73
2, 48636, Note_off_c, 0, 59, 64
2, 48699, Control_c, 0, 64, 127
2, 48699, Control_c, 0, 64, 127
2, 48775, Note_on_c, 0, 64, 58
2, 48791, Note_off_c, 0, 52, 64
2, 48833, Note_off_c, 0, 64, 64
2, 48947, Note_off_c, 0, 62, 64
2, 48958, Note_on_c, 0, 62, 69
2, 48963, Note_on_c, 0, 33, 59
2, 48965, Note_on_c, 0, 67, 64
2, 48980, Control_c, 0, 64, 0
2, 48980, Control_c, 0, 64, 0
2, 49000, Note_off_c, 0, 68, 64
2, 49019, Control_c, 0, 64, 127
2, 49019, Control_c, 0, 64, 127
2, 49191, Note_on_c, 0, 40, 57
2, 49202, Note_off_c, 0, 33, 64
2, 49269, Note_on_c, 0, 45, 51
2, 49287, Note_off_c, 0, 40, 64
2, 49328, Note_on_c, 0, 54, 64
2, 49345, Note_off_c, 0, 45, 64
2, 49400, Note_on_c, 0, 52, 52
2, 49402, Note_on_c, 0, 61, 69
2, 49412, Note_off_c, 0, 54, 64
2, 49421, Note_off_c, 0, 62, 64
2, 49426, Note_on_c, 0, 54, 55
2, 49448, Note_off_c, 0, 52, 64
2, 49470, Note_on_c, 0, 52, 52
2, 49479, Control_c, 0, 64, 0
2, 49479, Control_c, 0, 64, 0
2, 49482, Note_off_c, 0, 54, 64
2, 49523, Note_on_c, 0, 45, 67
2, 49545, Note_off_c, 0, 52, 64
2, 49629, Control_c, 0, 64, 127
2, 49629, Control_c, 0, 64, 127
2, 49676, Note_on_c, 0, 57, 58
2, 49678, Note_off_c, 0, 45, 64
2, 49734, Note_off_c, 0, 57, 64
2, 49826, Note_off_c, 0, 67, 64
2, 49843, Note_on_c, 0, 67, 66
2, 49847, Note_on_c, 0, 38, 64
2, 49849, Note_on_c, 0, 60, 62
2, 49858, Control_c, 0, 64, 0
2, 49858, Control_c, 0, 64, 0
2, 49880, Note_off_c, 0, 61, 64
2, 49887, Control_c, 0, 64, 127
2, 49887, Control_c, 0, 64, 127
2, 50090, Note_on_c, 0, 45, 54
2, 50105, Note_off_c, 0, 38, 64
2, 50185, Note_on_c, 0, 50, 51
2, 50192, Note_off_c, 0, 45, 64
2, 50246, Note_on_c, 0, 59, 62
2, 50267, Note_off_c, 0, 50, 64
2, 50309, Note_on_c, 0, 57, 52
2, 50313, Note_off_c, 0, 59, 64
2, 50323, Note_on_c, 0, 66, 70
2, 50339, Note_off_c, 0, 60, 64
2, 50356, Note_on_c, 0, 59, 54
2, 50369, Note_off_c, 0, 57, 64
2, 50379, Note_off_c, 0, 67, 64
2, 50380, Note_on_c, 0, 57, 47
2, 50394, Note_off_c, 0, 59, 64
2, 50431, Note_on_c, 0, 50, 62
2, 50442, Control_c, 0, 64, 0
2, 50442, Control_c, 0, 64, 0
2, 50491, Control_c, 0, 64, 127
2, 50491, Control_c, 0, 64, 127
2, 50580, Note_off_c, 0, 50, 64
2, 50599, Note_on_c, 0, 62, 60
2, 50609, Control_c, 0, 64, 127
2, 50609, Control_c, 0, 64, 127
2, 50799, Note_on_c, 0, 61, 44
2, 50805, Note_on_c, 0, 49, 46
2, 50809, Note_off_c, 0, 62, 64
2, 50815, Control_c, 0, 64, 0
2, 50815, Control_c, 0, 64, 0
2, 50866, Control_c, 0, 64, 127
2, 50866, Control_c, 0, 64, 127
2, 51017, Note_off_c, 0, 57, 64
2, 51017, Note_off_c, 0, 61, 64
2, 51033, Note_off_c, 0, 49, 64
2, 51067, Control_c, 0, 64, 127
2, 51067, Control_c, 0, 64, 127
2, 51109, Note_on_c, 0, 68, 46
2, 51142, Note_off_c, 0, 66, 64
2, 51167, Note_off_c, 0, 68, 64
2, 51186, Note_on_c, 0, 69, 51
2, 51255, Note_on_c, 0, 72, 55
2, 51279, Note_off_c, 0, 69, 64
2, 51331, Note_on_c, 0, 74, 42
2, 51341, Note_off_c, 0, 72, 64
2, 51351, Control_c, 0, 64, 0
2, 51351, Control_c, 0, 64, 0
2, 51371, Note_on_c, 0, 76, 54
2, 51381, Note_off_c, 0, 74, 64
2, 51415, Note_on_c, 0, 74, 54
2, 51430, Note_off_c, 0, 76, 64
2, 51462, Note_on_c, 0, 73, 59
2, 51472, Note_off_c, 0, 74, 64
2, 51611, Note_on_c, 0, 78, 55
2, 51623, Control_c, 0, 64, 127
2, 51623, Control_c, 0, 64, 127
2, 51629, Note_off_c, 0, 73, 64
2, 51755, Note_on_c, 0, 73, 66
2, 51755, Control_c, 0, 64, 0
2, 51755, Control_c, 0, 64, 0
2, 51762, Note_on_c, 0, 49, 52
2, 51770, Control_c, 0, 64, 127
2, 51770, Control_c, 0, 64, 127
2, 51777, Note_off_c, 0, 78, 64
2, 51799, Note_on_c, 0, 74, 51
2, 51802, Note_off_c, 0, 73, 64
2, 51814, Note_off_c, 0, 49, 64
2, 51834, Note_on_c, 0, 73, 60
2, 51852, Note_off_c, 0, 74, 64
2, 51883, Note_on_c, 0, 72, 55
2, 51889, Note_off_c, 0, 73, 64
2, 51953, Note_on_c, 0, 56, 54
2, 52026, Note_on_c, 0, 57, 50
2, 52042, Note_off_c, 0, 56, 64
2, 52045, Note_on_c, 0, 78, 63
2, 52098, Note_off_c, 0, 57, 64
2, 52103, Note_on_c, 0, 60, 59
2, 52126, Note_off_c, 0, 72, 64
2, 52163, Note_off_c, 0, 60, 64
2, 52186, Note_on_c, 0, 71, 55
2, 52186, Note_on_c, 0, 62, 65
2, 52201, Note_off_c, 0, 78, 64
2, 52230, Note_on_c, 0, 73, 62
2, 52235, Note_on_c, 0, 64, 69
2, 52244, Note_off_c, 0, 71, 64
2, 52246, Note_off_c, 0, 62, 64
2, 52255, Control_c, 0, 64, 0
2, 52255, Control_c, 0, 64, 0
2, 52268, Note_on_c, 0, 71, 57
2, 52271, Note_on_c, 0, 62, 60
2, 52281, Note_off_c, 0, 73, 64
2, 52284, Note_off_c, 0, 64, 64
2, 52320, Note_on_c, 0, 70, 66
2, 52328, Note_off_c, 0, 71, 64
2, 52330, Note_on_c, 0, 61, 64
2, 52345, Note_off_c, 0, 62, 64
2, 52405, Control_c, 0, 64, 127
2, 52405, Control_c, 0, 64, 127
2, 52444, Control_c, 0, 64, 0
2, 52444, Control_c, 0, 64, 0
2, 52470, Note_off_c, 0, 70, 64
2, 52483, Note_off_c, 0, 61, 64
2, 52488, Note_on_c, 0, 73, 63
2, 52488, Note_on_c, 0, 66, 63
2, 52496, Note_on_c, 0, 69, 63
2, 52510, Control_c, 0, 64, 127
2, 52510, Control_c, 0, 64, 127
2, 52536, Note_off_c, 0, 66, 64
2, 52563, Note_off_c, 0, 69, 64
2, 52571, Note_off_c, 0, 73, 64
2, 52641, Note_on_c, 0, 61, 59
2, 52647, Note_on_c, 0, 69, 54
2, 52680, Note_on_c, 0, 71, 55
2, 52686, Note_on_c, 0, 62, 69
2, 52692, Note_off_c, 0, 69, 64
2, 52694, Note_off_c, 0, 61, 64
2, 52731, Note_off_c, 0, 62, 64
2, 52731, Note_on_c, 0, 69, 59
2, 52733, Note_on_c, 0, 61, 65
2, 52740, Note_off_c, 0, 71, 64
2, 52771, Note_on_c, 0, 68, 69
2, 52775, Control_c, 0, 64, 0
2, 52775, Control_c, 0, 64, 0
2, 52779, Note_off_c, 0, 69, 64
2, 52781, Note_off_c, 0, 61, 64
2, 52784, Note_on_c, 0, 60, 72
2, 52798, Control_c, 0, 64, 127
2, 52798, Control_c, 0, 64, 127
2, 52852, Note_off_c, 0, 68, 64
2, 52929, Note_on_c, 0, 73, 66
2, 52933, Note_on_c, 0, 61, 77
2, 52938, Note_on_c, 0, 59, 62
2, 52942, Note_off_c, 0, 60, 64
2, 52945, Control_c, 0, 64, 0
2, 52945, Control_c, 0, 64, 0
2, 52967, Control_c, 0, 64, 127
2, 52967, Control_c, 0, 64, 127
2, 52985, Note_off_c, 0, 59, 64
2, 53006, Note_off_c, 0, 61, 64
2, 53063, Note_off_c, 0, 73, 64
2, 53078, Note_on_c, 0, 68, 62
2, 53092, Control_c, 0, 64, 0
2, 53092, Control_c, 0, 64, 0
2, 53096, Note_on_c, 0, 59, 56
2, 53115, Control_c, 0, 64, 127
2, 53115, Control_c, 0, 64, 127
2, 53120, Note_on_c, 0, 69, 64
2, 53125, Note_on_c, 0, 61, 72
2, 53131, Note_off_c, 0, 68, 64
2, 53143, Note_off_c, 0, 59, 64
2, 53160, Note_on_c, 0, 68, 65
2, 53165, Note_off_c, 0, 61, 64
2, 53169, Note_on_c, 0, 59, 57
2, 53176, Note_off_c, 0, 69, 64
2, 53210, Control_c, 0, 64, 0
2, 53210, Control_c, 0, 64, 0
2, 53216, Note_on_c, 0, 67, 74
2, 53218, Note_off_c, 0, 68, 64
2, 53222, Note_on_c, 0, 58, 64
2, 53231, Note_off_c, 0, 59, 64
2, 53247, Control_c, 0, 64, 127
2, 53247, Control_c, 0, 64, 127
2, 53359, Note_off_c, 0, 67, 64
2, 53367, Control_c, 0, 64, 0
2, 53367, Control_c, 0, 64, 0
2, 53372, Note_off_c, 0, 58, 64
2, 53376, Note_on_c, 0, 73, 75
2, 53376, Note_on_c, 0, 57, 65
2, 53377, Note_on_c, 0, 66, 82
2, 53413, Control_c, 0, 64, 127
2, 53413, Control_c, 0, 64, 127
2, 53458, Note_off_c, 0, 66, 64
2, 53517, Note_off_c, 0, 73, 64
2, 53532, Note_on_c, 0, 66, 80
2, 53538, Note_on_c, 0, 56, 66
2, 53538, Control_c, 0, 64, 0
2, 53538, Control_c, 0, 64, 0
2, 53557, Note_off_c, 0, 57, 64
2, 53563, Control_c, 0, 64, 127
2, 53563, Control_c, 0, 64, 127
2, 53580, Note_on_c, 0, 68, 73
2, 53584, Note_off_c, 0, 66, 64
2, 53613, Note_on_c, 0, 66, 70
2, 53632, Note_off_c, 0, 68, 64
2, 53675, Note_on_c, 0, 65, 74
2, 53683, Control_c, 0, 64, 0
2, 53683, Control_c, 0, 64, 0
2, 53685, Note_off_c, 0, 66, 64
2, 53685, Note_on_c, 0, 44, 65
2, 53715, Control_c, 0, 64, 127
2, 53715, Control_c, 0, 64, 127
2, 53759, Note_off_c, 0, 65, 64
2, 53761, Note_on_c, 0, 68, 74
2, 53767, Note_on_c, 0, 64, 72
2, 53810, Note_off_c, 0, 56, 64
2, 53829, Note_off_c, 0, 64, 64
2, 53845, Control_c, 0, 64, 0
2, 53845, Control_c, 0, 64, 0
2, 53850, Note_off_c, 0, 68, 64
2, 53852, Note_on_c, 0, 54, 69
2, 53856, Note_on_c, 0, 63, 80
2, 53856, Note_on_c, 0, 60, 63
2, 53873, Control_c, 0, 64, 127
2, 53873, Control_c, 0, 64, 127
2, 53888, Note_off_c, 0, 60, 64
2, 53894, Note_off_c, 0, 54, 64
2, 53938, Note_on_c, 0, 68, 81
2, 53947, Note_off_c, 0, 63, 64
2, 53961, Note_off_c, 0, 44, 64
2, 54029, Note_on_c, 0, 61, 85
2, 54032, Note_on_c, 0, 37, 71
2, 54038, Control_c, 0, 64, 0
2, 54038, Control_c, 0, 64, 0
2, 54058, Control_c, 0, 64, 127
2, 54058, Control_c, 0, 64, 127
2, 54064, Note_off_c, 0, 68, 64
2, 54100, Note_off_c, 0, 61, 64
2, 54107, Note_on_c, 0, 62, 55
2, 54146, Note_off_c, 0, 62, 64
2, 54147, Note_on_c, 0, 64, 60
2, 54179, Note_on_c, 0, 62, 77
2, 54189, Control_c, 0, 64, 0
2, 54189, Control_c, 0, 64, 0
2, 54192, Note_off_c, 0, 64, 64
2, 54205, Note_on_c, 0, 59, 67
2, 54209, Note_on_c, 0, 61, 78
2, 54215, Note_on_c, 0, 53, 54
2, 54215, Note_on_c, 0, 49, 48
2, 54220, Note_off_c, 0, 62, 64
2, 54228, Control_c, 0, 64, 127
2, 54228, Control_c, 0, 64, 127
2, 54243, Note_off_c, 0, 49, 64
2, 54250, Note_off_c, 0, 59, 64
2, 54257, Note_off_c, 0, 53, 64
2, 54297, Note_off_c, 0, 61, 64
2, 54311, Note_on_c, 0, 62, 72
2, 54317, Note_off_c, 0, 37, 64
2, 54318, Note_on_c, 0, 71, 70
2, 54396, Note_off_c, 0, 62, 64
2, 54402, Control_c, 0, 64, 0
2, 54402, Control_c, 0, 64, 0
2, 54411, Note_on_c, 0, 69, 72
2, 54416, Note_on_c, 0, 61, 78
2, 54421, Note_on_c, 0, 49, 62
2, 54426, Note_on_c, 0, 59, 71
2, 54426, Note_on_c, 0, 53, 67
2, 54429, Note_off_c, 0, 71, 64
2, 54433, Control_c, 0, 64, 127
2, 54433, Control_c, 0, 64, 127
2, 54457, Note_off_c, 0, 59, 64
2, 54461, Note_off_c, 0, 49, 64
2, 54463, Note_off_c, 0, 53, 64
2, 54491, Note_off_c, 0, 61, 64
2, 54507, Note_on_c, 0, 68, 73
2, 54513, Note_off_c, 0, 69, 64
2, 54516, Note_on_c, 0, 65, 54
2, 54592, Note_off_c, 0, 65, 64
2, 54621, Note_off_c, 0, 68, 64
2, 54628, Note_on_c, 0, 66, 93
2, 54630, Control_c, 0, 64, 0
2, 54630, Control_c, 0, 64, 0
2, 54638, Note_on_c, 0, 42, 83
2, 54638, Note_on_c, 0, 30, 72
2, 54665, Control_c, 0, 64, 127
2, 54665, Control_c, 0, 64, 127
2, 54826, Note_on_c, 0, 49, 59
2, 54833, Note_on_c, 0, 61, 69
2, 54834, Note_on_c, 0, 68, 69
2, 54837, Note_off_c, 0, 66, 64
2, 54841, Note_on_c, 0, 57, 64
2, 54868, Note_off_c, 0, 49, 64
2, 54874, Note_off_c, 0, 57, 64
2, 54878, Note_off_c, 0, 61, 64
2, 54884, Note_off_c, 0, 68, 64
2, 54895, Note_on_c, 0, 66, 78
2, 54951, Note_off_c, 0, 30, 64
2, 54951, Note_off_c, 0, 42, 64
2, 54961, Note_off_c, 0, 66, 64
2, 54963, Note_on_c, 0, 69, 64
2, 54972, Note_on_c, 0, 61, 59
2, 54978, Note_on_c, 0, 57, 59
2, 54978, Note_on_c, 0, 49, 57
2, 55003, Note_off_c, 0, 57, 64
2, 55007, Note_off_c, 0, 49, 64
2, 55010, Note_off_c, 0, 61, 64
2, 55037, Note_on_c, 0, 72, 70
2, 55058, Note_off_c, 0, 69, 64
2, 55104, Note_on_c, 0, 74, 64
2, 55115, Note_on_c, 0, 42, 77
2, 55118, Note_off_c, 0, 72, 64
2, 55160, Note_on_c, 0, 76, 70
2, 55172, Note_off_c, 0, 74, 64
2, 55196, Note_on_c, 0, 74, 70
2, 55213, Note_off_c, 0, 76, 64
2, 55216, Control_c, 0, 64, 0
2, 55216, Control_c, 0, 64, 0
2, 55233, Note_on_c, 0, 73, 87
2, 55241, Note_on_c, 0, 64, 69
2, 55241, Note_on_c, 0, 58, 74
2, 55241, Note_on_c, 0, 54, 73
2, 55252, Note_off_c, 0, 74, 64
2, 55266, Note_off_c, 0, 54, 64
2, 55269, Note_off_c, 0, 64, 64
2, 55271, Note_off_c, 0, 58, 64
2, 55384, Note_off_c, 0, 42, 64
2, 55412, Note_on_c, 0, 78, 73
2, 55412, Control_c, 0, 64, 127
2, 55412, Control_c, 0, 64, 127
2, 55419, Note_off_c, 0, 73, 64
2, 55423, Note_on_c, 0, 66, 74
2, 55429, Note_on_c, 0, 58, 73
2, 55432, Note_on_c, 0, 54, 74
2, 55437, Note_on_c, 0, 64, 73
2, 55460, Note_off_c, 0, 54, 64
2, 55460, Note_off_c, 0, 58, 64
2, 55462, Note_off_c, 0, 64, 64
2, 55537, Note_off_c, 0, 66, 64
2, 55581, Note_on_c, 0, 73, 71
2, 55585, Note_on_c, 0, 47, 62
2, 55597, Note_off_c, 0, 78, 64
2, 55625, Note_on_c, 0, 74, 62
2, 55629, Note_off_c, 0, 73, 64
2, 55665, Note_on_c, 0, 73, 73
2, 55678, Note_off_c, 0, 74, 64
2, 55693, Control_c, 0, 64, 0
2, 55693, Control_c, 0, 64, 0
2, 55698, Note_on_c, 0, 64, 69
2, 55703, Note_on_c, 0, 54, 67
2, 55705, Note_on_c, 0, 72, 77
2, 55717, Note_off_c, 0, 73, 64
2, 55734, Note_off_c, 0, 64, 64
2, 55737, Note_off_c, 0, 54, 64
2, 55750, Control_c, 0, 64, 127
2, 55750, Control_c, 0, 64, 127
2, 55853, Control_c, 0, 64, 0
2, 55853, Control_c, 0, 64, 0
2, 55878, Note_on_c, 0, 54, 65
2, 55881, Note_off_c, 0, 47, 64
2, 55881, Note_on_c, 0, 78, 70
2, 55881, Note_on_c, 0, 71, 69
2, 55882, Note_on_c, 0, 62, 73
2, 55890, Control_c, 0, 64, 127
2, 55890, Control_c, 0, 64, 127
2, 55896, Note_off_c, 0, 72, 64
2, 55916, Note_off_c, 0, 62, 64
2, 55927, Note_off_c, 0, 54, 64
2, 55962, Note_off_c, 0, 71, 64
2, 56030, Note_on_c, 0, 71, 59
2, 56033, Control_c, 0, 64, 0
2, 56033, Control_c, 0, 64, 0
2, 56038, Note_off_c, 0, 78, 64
2, 56038, Note_on_c, 0, 42, 73
2, 56049, Control_c, 0, 64, 127
2, 56049, Control_c, 0, 64, 127
2, 56074, Note_on_c, 0, 73, 73
2, 56087, Note_off_c, 0, 71, 64
2, 56118, Note_on_c, 0, 71, 63
2, 56129, Note_off_c, 0, 73, 64
2, 56157, Note_on_c, 0, 62, 66
2, 56159, Control_c, 0, 64, 0
2, 56159, Control_c, 0, 64, 0
2, 56164, Note_on_c, 0, 70, 71
2, 56166, Note_on_c, 0, 54, 73
2, 56178, Note_off_c, 0, 71, 64
2, 56187, Control_c, 0, 64, 127
2, 56187, Control_c, 0, 64, 127
2, 56195, Note_off_c, 0, 54, 64
2, 56196, Note_off_c, 0, 62, 64
2, 56292, Note_off_c, 0, 70, 64
2, 56314, Note_off_c, 0, 42, 64
2, 56353, Note_on_c, 0, 54, 58
2, 56355, Note_on_c, 0, 73, 69
2, 56360, Note_on_c, 0, 69, 70
2, 56360, Note_on_c, 0, 61, 62
2, 56379, Control_c, 0, 64, 0
2, 56379, Control_c, 0, 64, 0
2, 56399, Control_c, 0, 64, 127
2, 56399, Control_c, 0, 64, 127
2, 56407, Note_off_c, 0, 61, 64
2, 56414, Note_off_c, 0, 54, 64
2, 56450, Note_off_c, 0, 73, 64
2, 56529, Note_off_c, 0, 69, 64
2, 56542, Note_on_c, 0, 50, 56
2, 56578, Note_on_c, 0, 66, 77
2, 56617, Control_c, 0, 64, 0
2, 56617, Control_c, 0, 64, 0
2, 56656, Control_c, 0, 64, 127
2, 56656, Control_c, 0, 64, 127
2, 56757, Note_on_c, 0, 61, 58
2, 56764, Note_on_c, 0, 54, 41
2, 56815, Note_off_c, 0, 61, 64
2, 56815, Note_on_c, 0, 68, 62
2, 56817, Note_off_c, 0, 54, 64
2, 56828, Note_off_c, 0, 66, 64
2, 56888, Note_on_c, 0, 69, 67
2, 56891, Note_off_c, 0, 68, 64
2, 56897, Note_on_c, 0, 59, 64
2, 56897, Note_on_c, 0, 54, 41
2, 56948, Note_off_c, 0, 59, 64
2, 56957, Note_on_c, 0, 71, 60
2, 56959, Note_off_c, 0, 54, 64
2, 56960, Note_off_c, 0, 50, 64
2, 56965, Note_off_c, 0, 69, 64
2, 57004, Control_c, 0, 64, 0
2, 57004, Control_c, 0, 64, 0
2, 57009, Note_off_c, 0, 71, 64
2, 57013, Note_on_c, 0, 69, 71
2, 57033, Note_on_c, 0, 49, 64
2, 57038, Control_c, 0, 64, 127
2, 57038, Control_c, 0, 64, 127
2, 57063, Note_on_c, 0, 71, 62
2, 57072, Note_off_c, 0, 69, 64
2, 57108, Note_on_c, 0, 69, 69
2, 57119, Note_off_c, 0, 71, 64
2, 57138, Control_c, 0, 64, 0
2, 57138, Control_c, 0, 64, 0
2, 57148, Note_on_c, 0, 59, 49
2, 57148, Note_on_c, 0, 54, 47
2, 57152, Note_on_c, 0, 68, 80
2, 57170, Note_off_c, 0, 69, 64
2, 57183, Control_c, 0, 64, 127
2, 57183, Control_c, 0, 64, 127
2, 57206, Note_off_c, 0, 59, 64
2, 57215, Note_off_c, 0, 54, 64
2, 57292, Note_off_c, 0, 49, 64
2, 57348, Note_on_c, 0, 53, 42
2, 57352, Note_on_c, 0, 59, 48
2, 57363, Note_on_c, 0, 73, 66
2, 57375, Control_c, 0, 64, 0
2, 57375, Control_c, 0, 64, 0
2, 57379, Note_off_c, 0, 68, 64
2, 57406, Control_c, 0, 64, 127
2, 57406, Control_c, 0, 64, 127
2, 57534, Note_off_c, 0, 53, 64
2, 57547, Note_on_c, 0, 50, 47
2, 57581, Note_off_c, 0, 59, 64
2, 57608, Note_on_c, 0, 66, 77
2, 57623, Note_off_c, 0, 73, 64
2, 57629, Control_c, 0, 64, 0
2, 57629, Control_c, 0, 64, 0
2, 57668, Control_c, 0, 64, 127
2, 57668, Control_c, 0, 64, 127
2, 57776, Note_on_c, 0, 61, 33
2, 57783, Note_on_c, 0, 54, 50
2, 57826, Note_off_c, 0, 61, 64
2, 57831, Note_off_c, 0, 66, 64
2, 57832, Note_on_c, 0, 68, 60
2, 57843, Note_off_c, 0, 54, 64
2, 57906, Note_on_c, 0, 69, 66
2, 57918, Note_off_c, 0, 68, 64
2, 57919, Note_on_c, 0, 54, 50
2, 57924, Note_on_c, 0, 59, 50
2, 57942, Note_off_c, 0, 50, 64
2, 57974, Note_on_c, 0, 73, 69
2, 57986, Note_off_c, 0, 59, 64
2, 57991, Note_off_c, 0, 54, 64
2, 57998, Note_on_c, 0, 71, 75
2, 58002, Note_off_c, 0, 73, 64
2, 58014, Note_off_c, 0, 69, 64
2, 58047, Note_on_c, 0, 69, 71
2, 58051, Note_off_c, 0, 71, 64
2, 58054, Note_on_c, 0, 49, 59
2, 58061, Control_c, 0, 64, 0
2, 58061, Control_c, 0, 64, 0
2, 58083, Control_c, 0, 64, 127
2, 58083, Control_c, 0, 64, 127
2, 58101, Note_on_c, 0, 71, 62
2, 58116, Note_off_c, 0, 69, 64
2, 58155, Note_on_c, 0, 69, 63
2, 58168, Note_off_c, 0, 71, 64
2, 58196, Note_on_c, 0, 54, 50
2, 58201, Control_c, 0, 64, 0
2, 58201, Control_c, 0, 64, 0
2, 58208, Note_on_c, 0, 59, 41
2, 58213, Note_on_c, 0, 68, 70
2, 58227, Control_c, 0, 64, 127
2, 58227, Control_c, 0, 64, 127
2, 58231, Note_off_c, 0, 69, 64
2, 58273, Note_off_c, 0, 59, 64
2, 58299, Note_off_c, 0, 54, 64
2, 58373, Note_off_c, 0, 49, 64
2, 58441, Note_on_c, 0, 53, 36
2, 58451, Note_on_c, 0, 59, 47
2, 58484, Note_on_c, 0, 73, 69
2, 58499, Note_off_c, 0, 68, 64
2, 58517, Control_c, 0, 64, 0
2, 58517, Control_c, 0, 64, 0
2, 58548, Control_c, 0, 64, 127
2, 58548, Control_c, 0, 64, 127
2, 58698, Note_off_c, 0, 53, 64
2, 58698, Note_on_c, 0, 50, 41
2, 58741, Note_off_c, 0, 59, 64
2, 58794, Note_on_c, 0, 66, 77
2, 58819, Note_off_c, 0, 73, 64
2, 58833, Control_c, 0, 64, 0
2, 58833, Control_c, 0, 64, 0
2, 58872, Control_c, 0, 64, 127
2, 58872, Control_c, 0, 64, 127
2, 59022, Note_on_c, 0, 61, 55
2, 59029, Note_on_c, 0, 54, 39
2, 59089, Note_off_c, 0, 61, 64
2, 59098, Note_on_c, 0, 68, 66
2, 59099, Note_off_c, 0, 66, 64
2, 59104, Note_off_c, 0, 54, 64
2, 59173, Note_off_c, 0, 68, 64
2, 59174, Note_off_c, 0, 50, 64
2, 59182, Note_on_c, 0, 69, 62
2, 59188, Note_on_c, 0, 54, 49
2, 59195, Note_on_c, 0, 59, 50
2, 59218, Note_off_c, 0, 54, 64
2, 59229, Note_off_c, 0, 59, 64
2, 59261, Note_on_c, 0, 71, 64
2, 59297, Note_off_c, 0, 69, 64
2, 59337, Control_c, 0, 64, 0
2, 59337, Control_c, 0, 64, 0
2, 59343, Note_on_c, 0, 44, 63
2, 59343, Note_on_c, 0, 73, 69
2, 59361, Control_c, 0, 64, 127
2, 59361, Control_c, 0, 64, 127
2, 59369, Note_off_c, 0, 71, 64
2, 59424, Note_on_c, 0, 76, 69
2, 59445, Note_off_c, 0, 73, 64
2, 59505, Note_on_c, 0, 74, 65
2, 59514, Note_on_c, 0, 66, 70
2, 59519, Note_off_c, 0, 76, 64
2, 59523, Note_on_c, 0, 56, 32
2, 59526, Note_on_c, 0, 59, 58
2, 59531, Note_on_c, 0, 62, 46
2, 59533, Control_c, 0, 64, 0
2, 59533, Control_c, 0, 64, 0
2, 59555, Control_c, 0, 64, 127
2, 59555, Control_c, 0, 64, 127
2, 59605, Note_off_c, 0, 74, 64
2, 59628, Note_off_c, 0, 66, 64
2, 59633, Note_off_c, 0, 62, 64
2, 59645, Note_off_c, 0, 59, 64
2, 59672, Note_off_c, 0, 56, 64
2, 59847, Note_on_c, 0, 66, 67
2, 59859, Note_off_c, 0, 44, 64
2, 59913, Note_off_c, 0, 66, 64
2, 59968, Note_on_c, 0, 66, 64
2, 60064, Note_on_c, 0, 65, 66
2, 60073, Note_off_c, 0, 66, 64
2, 60172, Note_on_c, 0, 49, 58
2, 60178, Note_on_c, 0, 69, 65
2, 60184, Note_on_c, 0, 59, 29
2, 60201, Control_c, 0, 64, 0
2, 60201, Control_c, 0, 64, 0
2, 60232, Note_off_c, 0, 59, 64
2, 60234, Control_c, 0, 64, 127
2, 60234, Control_c, 0, 64, 127
2, 60257, Note_off_c, 0, 65, 64
2, 60376, Note_on_c, 0, 50, 58
2, 60378, Note_on_c, 0, 65, 55
2, 60384, Note_on_c, 0, 59, 42
2, 60387, Control_c, 0, 64, 0
2, 60387, Control_c, 0, 64, 0
2, 60392, Note_off_c, 0, 69, 64
2, 60392, Note_off_c, 0, 49, 64
2, 60420, Control_c, 0, 64, 127
2, 60420, Control_c, 0, 64, 127
2, 60460, Note_on_c, 0, 68, 64
2, 60483, Note_off_c, 0, 65, 64
2, 60504, Note_off_c, 0, 68, 64
2, 60504, Note_off_c, 0, 50, 64
2, 60541, Note_on_c, 0, 68, 66
2, 60587, Note_off_c, 0, 59, 64
2, 60623, Note_on_c, 0, 66, 74
2, 60643, Note_off_c, 0, 68, 64
2, 60678, Note_off_c, 0, 66, 64
2, 60702, Note_on_c, 0, 71, 63
2, 60708, Note_on_c, 0, 50, 64
2, 60715, Note_on_c, 0, 60, 59
2, 60730, Control_c, 0, 64, 0
2, 60730, Control_c, 0, 64, 0
2, 60748, Control_c, 0, 64, 127
2, 60748, Control_c, 0, 64, 127
2, 60754, Note_off_c, 0, 60, 64
2, 60868, Note_on_c, 0, 66, 59
2, 60873, Note_off_c, 0, 50, 64
2, 60878, Note_on_c, 0, 60, 58
2, 60879, Note_on_c, 0, 51, 59
2, 60900, Note_off_c, 0, 71, 64
2, 60935, Note_off_c, 0, 66, 64
2, 60950, Note_on_c, 0, 69, 46
2, 60968, Note_off_c, 0, 60, 64
2, 61010, Note_off_c, 0, 69, 64
2, 61033, Note_on_c, 0, 67, 59
2, 61039, Note_on_c, 0, 60, 57
2, 61042, Note_off_c, 0, 51, 64
2, 61045, Note_on_c, 0, 52, 62
2, 61052, Control_c, 0, 64, 0
2, 61052, Control_c, 0, 64, 0
2, 61065, Control_c, 0, 64, 127
2, 61065, Control_c, 0, 64, 127
2, 61094, Note_off_c, 0, 60, 64
2, 61106, Note_on_c, 0, 68, 70
2, 61124, Note_off_c, 0, 67, 64
2, 61177, Note_off_c, 0, 68, 64
2, 61180, Control_c, 0, 64, 0
2, 61180, Control_c, 0, 64, 0
2, 61186, Note_on_c, 0, 40, 58
2, 61187, Note_on_c, 0, 69, 63
2, 61190, Note_on_c, 0, 61, 77
2, 61216, Control_c, 0, 64, 127
2, 61216, Control_c, 0, 64, 127
2, 61242, Note_off_c, 0, 52, 64
2, 61257, Note_on_c, 0, 68, 56
2, 61261, Note_off_c, 0, 69, 64
2, 61271, Note_off_c, 0, 61, 64
2, 61299, Note_off_c, 0, 68, 64
2, 61317, Note_off_c, 0, 40, 64
2, 61334, Note_on_c, 0, 68, 67
2, 61336, Control_c, 0, 64, 0
2, 61336, Control_c, 0, 64, 0
2, 61340, Note_on_c, 0, 41, 63
2, 61340, Note_on_c, 0, 73, 69
2, 61342, Note_on_c, 0, 62, 67
2, 61353, Control_c, 0, 64, 127
2, 61353, Control_c, 0, 64, 127
2, 61407, Note_off_c, 0, 68, 64
2, 61415, Note_off_c, 0, 62, 64
2, 61419, Note_off_c, 0, 73, 64
2, 61421, Note_on_c, 0, 71, 64
2, 61464, Note_off_c, 0, 71, 64
2, 61497, Control_c, 0, 64, 0
2, 61497, Control_c, 0, 64, 0
2, 61502, Note_on_c, 0, 62, 67
2, 61504, Note_off_c, 0, 41, 64
2, 61504, Note_on_c, 0, 71, 69
2, 61504, Note_on_c, 0, 42, 77
2, 61510, Note_on_c, 0, 66, 73
2, 61515, Control_c, 0, 64, 127
2, 61515, Control_c, 0, 64, 127
2, 61547, Note_off_c, 0, 66, 64
2, 61575, Note_off_c, 0, 62, 64
2, 61578, Note_off_c, 0, 71, 64
2, 61593, Note_on_c, 0, 70, 65
2, 61597, Note_on_c, 0, 61, 80
2, 61624, Note_off_c, 0, 61, 64
2, 61648, Note_off_c, 0, 70, 64
2, 61700, Note_on_c, 0, 74, 77
2, 61700, Note_on_c, 0, 70, 77
2, 61704, Note_on_c, 0, 64, 73
2, 61709, Note_on_c, 0, 54, 62
2, 61713, Control_c, 0, 64, 0
2, 61713, Control_c, 0, 64, 0
2, 61723, Control_c, 0, 64, 127
2, 61723, Control_c, 0, 64, 127
2, 61782, Note_off_c, 0, 42, 64
2, 61815, Note_off_c, 0, 70, 64
2, 61819, Note_off_c, 0, 64, 64
2, 61845, Note_off_c, 0, 54, 64
2, 61899, Note_on_c, 0, 70, 69
2, 61899, Note_on_c, 0, 64, 73
2, 61906, Note_on_c, 0, 55, 58
2, 61906, Note_on_c, 0, 43, 56
2, 61912, Control_c, 0, 64, 0
2, 61912, Control_c, 0, 64, 0
2, 61931, Control_c, 0, 64, 127
2, 61931, Control_c, 0, 64, 127
2, 61949, Note_off_c, 0, 43, 64
2, 61964, Note_off_c, 0, 55, 64
2, 61978, Note_off_c, 0, 74, 64
2, 62007, Note_on_c, 0, 73, 66
2, 62017, Note_off_c, 0, 70, 64
2, 62029, Note_off_c, 0, 64, 64
2, 62054, Note_off_c, 0, 73, 64
2, 62077, Control_c, 0, 64, 0
2, 62077, Control_c, 0, 64, 0
2, 62078, Note_on_c, 0, 64, 77
2, 62082, Note_on_c, 0, 68, 77
2, 62083, Note_on_c, 0, 73, 74
2, 62084, Control_c, 0, 64, 127
2, 62084, Control_c, 0, 64, 127
2, 62086, Note_on_c, 0, 44, 66
2, 62089, Note_on_c, 0, 56, 69
2, 62106, Note_off_c, 0, 64, 64
2, 62108, Control_c, 0, 64, 127
2, 62108, Control_c, 0, 64, 127
2, 62110, Note_off_c, 0, 68, 64
2, 62122, Note_off_c, 0, 44, 64
2, 62129, Note_off_c, 0, 56, 64
2, 62167, Note_off_c, 0, 73, 64
2, 62206, Note_on_c, 0, 72, 66
2, 62206, Note_on_c, 0, 68, 73
2, 62206, Note_on_c, 0, 63, 73
2, 62228, Note_off_c, 0, 63, 64
2, 62228, Note_off_c, 0, 68, 64
2, 62230, Note_off_c, 0, 72, 64
2, 62264, Note_on_c, 0, 56, 64
2, 62270, Note_on_c, 0, 80, 89
2, 62270, Note_on_c, 0, 72, 80
2, 62270, Note_on_c, 0, 68, 70
2, 62270, Note_on_c, 0, 66, 56
2, 62270, Note_on_c, 0, 63, 67
2, 62283, Control_c, 0, 64, 0
2, 62283, Control_c, 0, 64, 0
2, 62298, Note_off_c, 0, 66, 64
2, 62304, Note_off_c, 0, 68, 64
2, 62305, Note_off_c, 0, 72, 64
2, 62305, Control_c, 0, 64, 127
2, 62305, Control_c, 0, 64, 127
2, 62312, Note_off_c, 0, 56, 64
2, 62318, Note_off_c, 0, 63, 64
2, 62450, Note_on_c, 0, 63, 58
2, 62450, Note_on_c, 0, 56, 44
2, 62454, Note_on_c, 0, 66, 56
2, 62457, Note_on_c, 0, 72, 69
2, 62457, Note_on_c, 0, 68, 73
2, 62465, Note_off_c, 0, 63, 64
2, 62469, Note_off_c, 0, 56, 64
2, 62478, Note_off_c, 0, 80, 64
2, 62482, Note_off_c, 0, 66, 64
2, 62514, Note_off_c, 0, 72, 64
2, 62554, Note_on_c, 0, 78, 80
2, 62622, Note_off_c, 0, 78, 64
2, 62641, Note_off_c, 0, 68, 64
2, 62675, Note_on_c, 0, 49, 85
2, 62675, Note_on_c, 0, 37, 80
2, 62678, Note_on_c, 0, 78, 102
2, 62685, Control_c, 0, 64, 0
2, 62685, Control_c, 0, 64, 0
2, 62707, Control_c, 0, 64, 127
2, 62707, Control_c, 0, 64, 127
2, 62915, Note_off_c, 0, 37, 64
2, 62915, Note_off_c, 0, 49, 64
2, 62918, Note_on_c, 0, 68, 59
2, 62918, Note_on_c, 0, 56, 58
2, 62920, Note_on_c, 0, 71, 58
2, 62922, Note_on_c, 0, 65, 51
2, 62925, Note_on_c, 0, 61, 56
2, 62955, Note_off_c, 0, 56, 64
2, 62959, Note_off_c, 0, 61, 64
2, 62976, Note_off_c, 0, 68, 64
2, 62986, Note_off_c, 0, 65, 64
2, 62999, Note_off_c, 0, 71, 64
2, 63006, Note_on_c, 0, 77, 65
2, 63030, Note_off_c, 0, 78, 64
2, 63122, Note_on_c, 0, 68, 58
2, 63123, Note_on_c, 0, 65, 60
2, 63123, Note_on_c, 0, 56, 46
2, 63128, Note_on_c, 0, 71, 72
2, 63130, Note_on_c, 0, 61, 48
2, 63149, Note_off_c, 0, 77, 64
2, 63163, Note_off_c, 0, 61, 64
2, 63166, Note_off_c, 0, 56, 64
2, 63173, Note_off_c, 0, 65, 64
2, 63180, Note_off_c, 0, 68, 64
2, 63226, Note_on_c, 0, 73, 70
2, 63280, Note_off_c, 0, 71, 64
2, 63326, Note_on_c, 0, 76, 63
2, 63349, Note_off_c, 0, 73, 64
2, 63431, Note_on_c, 0, 75, 58
2, 63452, Note_off_c, 0, 76, 64
2, 63525, Note_on_c, 0, 74, 55
2, 63528, Note_on_c, 0, 49, 52
2, 63532, Note_on_c, 0, 65, 59
2, 63532, Note_on_c, 0, 59, 58
2, 63544, Note_off_c, 0, 75, 64
2, 63571, Note_on_c, 0, 76, 55
2, 63578, Note_off_c, 0, 74, 64
2, 63624, Note_on_c, 0, 74, 58
2, 63637, Note_off_c, 0, 49, 64
2, 63639, Note_off_c, 0, 76, 64
2, 63641, Note_off_c, 0, 59, 64
2, 63641, Note_off_c, 0, 65, 64
2, 63706, Note_on_c, 0, 73, 52
2, 63711, Note_on_c, 0, 49, 37
2, 63714, Note_on_c, 0, 57, 55
2, 63716, Note_off_c, 0, 74, 64
2, 63718, Note_on_c, 0, 65, 57
2, 63787, Note_off_c, 0, 65, 64
2, 63794, Note_on_c, 0, 71, 52
2, 63795, Note_on_c, 0, 56, 54
2, 63812, Note_off_c, 0, 73, 64
2, 63818, Note_off_c, 0, 57, 64
2, 63823, Note_off_c, 0, 49, 64
2, 63895, Note_on_c, 0, 61, 54
2, 63907, Note_on_c, 0, 42, 93
2, 63920, Note_on_c, 0, 73, 51
2, 63922, Note_on_c, 0, 69, 48
2, 63935, Note_off_c, 0, 56, 64
2, 63936, Note_off_c, 0, 71, 64
2, 63959, Control_c, 0, 64, 0
2, 63959, Control_c, 0, 64, 0
2, 63977, Note_off_c, 0, 61, 64
2, 63982, Control_c, 0, 64, 127
2, 63982, Control_c, 0, 64, 127
2, 64014, Note_on_c, 0, 49, 72
2, 64022, Note_off_c, 0, 73, 64
2, 64028, Note_on_c, 0, 71, 60
2, 64031, Note_on_c, 0, 68, 67
2, 64034, Note_off_c, 0, 42, 64
2, 64036, Note_off_c, 0, 69, 64
2, 64142, Note_on_c, 0, 69, 67
2, 64144, Note_off_c, 0, 49, 64
2, 64149, Note_off_c, 0, 68, 64
2, 64149, Note_on_c, 0, 66, 46
2, 64149, Note_on_c, 0, 61, 94
2, 64161, Note_off_c, 0, 71, 64
2, 64165, Control_c, 0, 64, 0
2, 64165, Control_c, 0, 64, 0
2, 64194, Control_c, 0, 64, 127
2, 64194, Control_c, 0, 64, 127
2, 64318, Note_off_c, 0, 61, 64
2, 64354, Note_on_c, 0, 57, 69
2, 64363, Control_c, 0, 64, 0
2, 64363, Control_c, 0, 64, 0
2, 64384, Control_c, 0, 64, 127
2, 64384, Control_c, 0, 64, 127
2, 64414, Note_off_c, 0, 57, 64
2, 64498, Note_on_c, 0, 54, 74
2, 64530, Note_off_c, 0, 54, 64
2, 64534, Note_off_c, 0, 69, 64
2, 64544, Control_c, 0, 64, 0
2, 64544, Control_c, 0, 64, 0
2, 64551, Note_off_c, 0, 66, 64
2, 64560, Note_on_c, 0, 54, 71
2, 64568, Control_c, 0, 64, 127
2, 64568, Control_c, 0, 64, 127
2, 64671, Note_on_c, 0, 53, 65
2, 64742, Note_off_c, 0, 54, 64
2, 64776, Note_on_c, 0, 57, 71
2, 64799, Note_off_c, 0, 53, 64
2, 64846, Control_c, 0, 64, 0
2, 64846, Control_c, 0, 64, 0
2, 64854, Note_on_c, 0, 61, 71
2, 64878, Control_c, 0, 64, 127
2, 64878, Control_c, 0, 64, 127
2, 64951, Note_on_c, 0, 66, 69
2, 64975, Note_off_c, 0, 61, 64
2, 65009, Note_off_c, 0, 66, 64
2, 65014, Note_off_c, 0, 57, 64
2, 65035, Note_on_c, 0, 56, 77
2, 65036, Note_on_c, 0, 68, 62
2, 65036, Note_on_c, 0, 65, 63
2, 65064, Note_off_c, 0, 65, 64
2, 65086, Note_off_c, 0, 56, 64
2, 65094, Note_off_c, 0, 68, 64
2, 65117, Note_on_c, 0, 56, 70
2, 65120, Note_on_c, 0, 65, 63
2, 65120, Note_on_c, 0, 61, 74
2, 65123, Note_on_c, 0, 71, 66
2, 65148, Note_off_c, 0, 65, 64
2, 65194, Note_off_c, 0, 71, 64
2, 65204, Note_on_c, 0, 66, 63
2, 65207, Note_on_c, 0, 69, 62
2, 65219, Note_on_c, 0, 54, 74
2, 65224, Note_off_c, 0, 56, 64
2, 65231, Control_c, 0, 64, 0
2, 65231, Control_c, 0, 64, 0
2, 65232, Note_off_c, 0, 66, 64
2, 65240, Note_off_c, 0, 61, 64
2, 65278, Control_c, 0, 64, 127
2, 65278, Control_c, 0, 64, 127
2, 65288, Note_off_c, 0, 69, 64
2, 65313, Note_on_c, 0, 59, 73
2, 65322, Note_off_c, 0, 54, 64
2, 65399, Note_on_c, 0, 62, 62
2, 65484, Note_on_c, 0, 68, 63
2, 65525, Note_off_c, 0, 62, 64
2, 65542, Note_off_c, 0, 68, 64
2, 65562, Note_on_c, 0, 57, 67
2, 65564, Note_on_c, 0, 66, 49
2, 65565, Note_off_c, 0, 59, 64
2, 65566, Note_on_c, 0, 69, 64
2, 65601, Note_off_c, 0, 69, 64
2, 65606, Note_off_c, 0, 66, 64
2, 65631, Note_off_c, 0, 57, 64
2, 65643, Note_on_c, 0, 73, 73
2, 65648, Note_on_c, 0, 55, 66
2, 65653, Note_on_c, 0, 62, 55
2, 65654, Note_on_c, 0, 65, 57
2, 65658, Control_c, 0, 64, 0
2, 65658, Control_c, 0, 64, 0
2, 65670, Control_c, 0, 64, 127
2, 65670, Control_c, 0, 64, 127
2, 65677, Note_off_c, 0, 65, 64
2, 65702, Note_off_c, 0, 73, 64
2, 65731, Note_on_c, 0, 71, 64
2, 65731, Note_on_c, 0, 56, 77
2, 65739, Note_off_c, 0, 55, 64
2, 65754, Control_c, 0, 64, 0
2, 65754, Control_c, 0, 64, 0
2, 65771, Note_off_c, 0, 62, 64
2, 65801, Control_c, 0, 64, 127
2, 65801, Control_c, 0, 64, 127
2, 65807, Note_off_c, 0, 71, 64
2, 65817, Note_off_c, 0, 56, 64
2, 65817, Note_on_c, 0, 57, 69
2, 65888, Note_off_c, 0, 57, 64
2, 65891, Note_on_c, 0, 56, 67
2, 65895, Note_on_c, 0, 64, 69
2, 65957, Note_off_c, 0, 56, 64
2, 65972, Note_on_c, 0, 69, 64
2, 65976, Note_on_c, 0, 61, 80
2, 65998, Note_off_c, 0, 64, 64
2, 66019, Note_off_c, 0, 61, 64
2, 66044, Note_on_c, 0, 68, 64
2, 66046, Note_on_c, 0, 71, 60
2, 66051, Note_on_c, 0, 59, 77
2, 66062, Note_off_c, 0, 69, 64
2, 66080, Note_off_c, 0, 68, 64
2, 66101, Note_off_c, 0, 59, 64
2, 66105, Note_off_c, 0, 71, 64
2, 66131, Control_c, 0, 64, 0
2, 66131, Control_c, 0, 64, 0
2, 66136, Note_on_c, 0, 67, 69
2, 66137, Note_on_c, 0, 74, 70
2, 66138, Note_on_c, 0, 64, 59
2, 66138, Note_on_c, 0, 59, 73
2, 66160, Control_c, 0, 64, 127
2, 66160, Control_c, 0, 64, 127
2, 66206, Note_off_c, 0, 59, 64
2, 66207, Note_on_c, 0, 73, 63
2, 66215, Note_off_c, 0, 74, 64
2, 66224, Note_on_c, 0, 58, 85
2, 66281, Note_off_c, 0, 73, 64
2, 66302, Note_off_c, 0, 58, 64
2, 66307, Control_c, 0, 64, 0
2, 66307, Control_c, 0, 64, 0
2, 66312, Note_on_c, 0, 62, 80
2, 66349, Control_c, 0, 64, 127
2, 66349, Control_c, 0, 64, 127
2, 66362, Note_off_c, 0, 67, 64
2, 66364, Note_off_c, 0, 64, 64
2, 66426, Note_on_c, 0, 71, 73
2, 66459, Note_off_c, 0, 71, 64
2, 66476, Note_on_c, 0, 71, 73
2, 66556, Note_on_c, 0, 61, 73
2, 66559, Note_on_c, 0, 70, 82
2, 66570, Note_off_c, 0, 71, 64
2, 66574, Note_off_c, 0, 62, 64
2, 66583, Note_off_c, 0, 61, 64
2, 66595, Note_off_c, 0, 70, 64
2, 66644, Note_on_c, 0, 66, 58
2, 66644, Note_on_c, 0, 63, 77
2, 66647, Note_on_c, 0, 69, 71
2, 66647, Note_on_c, 0, 61, 73
2, 66694, Note_off_c, 0, 66, 64
2, 66699, Note_off_c, 0, 63, 64
2, 66729, Note_on_c, 0, 68, 74
2, 66733, Note_off_c, 0, 61, 64
2, 66736, Note_on_c, 0, 60, 59
2, 66743, Note_off_c, 0, 69, 64
2, 66768, Note_off_c, 0, 68, 64
2, 66797, Note_off_c, 0, 60, 64
2, 66849, Note_on_c, 0, 68, 92
2, 66854, Control_c, 0, 64, 0
2, 66854, Control_c, 0, 64, 0
2, 66965, Control_c, 0, 64, 127
2, 66965, Control_c, 0, 64, 127
2, 67136, Note_on_c, 0, 66, 69
2, 67158, Note_off_c, 0, 68, 64
2, 67178, Note_off_c, 0, 66, 64
2, 67221, Control_c, 0, 64, 0
2, 67221, Control_c, 0, 64, 0
2, 67228, Note_on_c, 0, 66, 78
2, 67237, Control_c, 0, 64, 127
2, 67237, Control_c, 0, 64, 127
2, 67279, Note_off_c, 0, 66, 64
2, 67374, Note_on_c, 0, 68, 77
2, 67376, Note_on_c, 0, 65, 77
2, 67404, Note_off_c, 0, 68, 64
2, 67409, Note_off_c, 0, 65, 64
2, 67434, Note_on_c, 0, 80, 77
2, 67438, Note_on_c, 0, 68, 80
2, 67443, Note_on_c, 0, 65, 78
2, 67448, Control_c, 0, 64, 0
2, 67448, Control_c, 0, 64, 0
2, 67488, Control_c, 0, 64, 127
2, 67488, Control_c, 0, 64, 127
2, 67620, Note_off_c, 0, 80, 64
2, 67639, Note_off_c, 0, 68, 64
2, 67665, Note_off_c, 0, 65, 64
2, 67758, Note_on_c, 0, 78, 65
2, 67758, Note_on_c, 0, 72, 69
2, 67762, Note_on_c, 0, 68, 62
2, 67764, Note_on_c, 0, 63, 76
2, 67798, Note_off_c, 0, 72, 64
2, 67798, Note_off_c, 0, 78, 64
2, 67802, Note_off_c, 0, 68, 64
2, 67804, Note_off_c, 0, 63, 64
2, 67819, Note_on_c, 0, 68, 73
2, 67822, Note_on_c, 0, 72, 77
2, 67823, Note_on_c, 0, 78, 80
2, 67829, Note_on_c, 0, 63, 83
2, 67833, Control_c, 0, 64, 0
2, 67833, Control_c, 0, 64, 0
2, 67862, Control_c, 0, 64, 127
2, 67862, Control_c, 0, 64, 127
2, 67882, Note_off_c, 0, 72, 64
2, 67886, Note_off_c, 0, 63, 64
2, 67892, Note_off_c, 0, 68, 64
2, 67900, Note_off_c, 0, 78, 64
2, 68022, Note_on_c, 0, 61, 80
2, 68026, Note_on_c, 0, 73, 78
2, 68030, Note_on_c, 0, 77, 69
2, 68030, Note_on_c, 0, 68, 63
2, 68047, Control_c, 0, 64, 127
2, 68047, Control_c, 0, 64, 127
2, 68055, Note_off_c, 0, 61, 64
2, 68058, Note_off_c, 0, 68, 64
2, 68061, Note_off_c, 0, 73, 64
2, 68065, Note_off_c, 0, 77, 64
2, 68077, Control_c, 0, 64, 0
2, 68077, Control_c, 0, 64, 0
2, 68084, Note_on_c, 0, 77, 77
2, 68084, Note_on_c, 0, 68, 77
2, 68086, Note_on_c, 0, 73, 78
2, 68089, Note_on_c, 0, 61, 85
2, 68115, Control_c, 0, 64, 127
2, 68115, Control_c, 0, 64, 127
2, 68168, Note_off_c, 0, 61, 64
2, 68173, Note_off_c, 0, 73, 64
2, 68182, Note_off_c, 0, 68, 64
2, 68187, Note_off_c, 0, 77, 64
2, 68376, Note_on_c, 0, 74, 64
2, 68376, Note_on_c, 0, 65, 56
2, 68379, Note_on_c, 0, 59, 62
2, 68380, Note_on_c, 0, 68, 63
2, 68466, Note_off_c, 0, 74, 64
2, 68474, Note_on_c, 0, 66, 70
2, 68474, Note_on_c, 0, 57, 62
2, 68477, Note_on_c, 0, 74, 64
2, 68477, Note_on_c, 0, 69, 73
2, 68494, Note_off_c, 0, 65, 64
2, 68497, Note_off_c, 0, 59, 64
2, 68498, Note_off_c, 0, 68, 64
2, 68500, Control_c, 0, 64, 0
2, 68500, Control_c, 0, 64, 0
2, 68513, Control_c, 0, 64, 127
2, 68513, Control_c, 0, 64, 127
2, 68615, Note_off_c, 0, 66, 64
2, 68618, Note_off_c, 0, 69, 64
2, 68618, Note_off_c, 0, 74, 64
2, 68624, Note_on_c, 0, 71, 37
2, 68627, Note_on_c, 0, 76, 59
2, 68627, Note_on_c, 0, 56, 60
2, 68628, Note_on_c, 0, 64, 56
2, 68636, Note_off_c, 0, 57, 64
2, 68683, Note_on_c, 0, 74, 66
2, 68697, Note_off_c, 0, 76, 64
2, 68740, Note_off_c, 0, 64, 64
2, 68755, Note_on_c, 0, 73, 73
2, 68756, Note_on_c, 0, 69, 69
2, 68763, Note_on_c, 0, 64, 64
2, 68763, Note_on_c, 0, 57, 59
2, 68766, Note_off_c, 0, 74, 64
2, 68770, Note_off_c, 0, 71, 64
2, 68792, Control_c, 0, 64, 0
2, 68792, Control_c, 0, 64, 0
2, 68808, Note_off_c, 0, 56, 64
2, 68821, Control_c, 0, 64, 127
2, 68821, Control_c, 0, 64, 127
2, 68992, Note_off_c, 0, 73, 64
2, 68993, Note_off_c, 0, 69, 64
2, 69000, Note_off_c, 0, 57, 64
2, 69000, Note_off_c, 0, 64, 64
2, 69022, Note_on_c, 0, 51, 62
2, 69024, Note_on_c, 0, 66, 55
2, 69028, Note_on_c, 0, 69, 70
2, 69029, Note_on_c, 0, 73, 64
2, 69061, Control_c, 0, 64, 0
2, 69061, Control_c, 0, 64, 0
2, 69113, Control_c, 0, 64, 127
2, 69113, Control_c, 0, 64, 127
2, 69266, Note_off_c, 0, 66, 64
2, 69270, Note_off_c, 0, 69, 64
2, 69270, Note_on_c, 0, 71, 70
2, 69279, Note_off_c, 0, 73, 64
2, 69410, Note_on_c, 0, 73, 55
2, 69416, Note_on_c, 0, 61, 69
2, 69417, Note_off_c, 0, 71, 64
2, 69418, Note_on_c, 0, 68, 55
2, 69425, Note_on_c, 0, 53, 58
2, 69435, Note_off_c, 0, 51, 64
2, 69468, Note_on_c, 0, 71, 64
2, 69483, Note_off_c, 0, 73, 64
2, 69526, Note_off_c, 0, 61, 64
2, 69543, Note_off_c, 0, 71, 64
2, 69543, Note_off_c, 0, 68, 64
2, 69543, Note_on_c, 0, 54, 69
2, 69545, Note_on_c, 0, 61, 59
2, 69550, Note_off_c, 0, 53, 64
2, 69550, Note_on_c, 0, 69, 62
2, 69554, Note_on_c, 0, 66, 64
2, 69565, Control_c, 0, 64, 0
2, 69565, Control_c, 0, 64, 0
2, 69605, Control_c, 0, 64, 127
2, 69605, Control_c, 0, 64, 127
2, 69823, Note_on_c, 0, 67, 62
2, 69825, Note_on_c, 0, 62, 62
2, 69830, Note_on_c, 0, 59, 49
2, 69830, Note_on_c, 0, 47, 47
2, 69853, Note_off_c, 0, 54, 64
2, 69855, Note_off_c, 0, 61, 64
2, 69860, Note_off_c, 0, 69, 64
2, 69864, Note_off_c, 0, 66, 64
2, 69871, Control_c, 0, 64, 0
2, 69871, Control_c, 0, 64, 0
2, 69908, Control_c, 0, 64, 127
2, 69908, Control_c, 0, 64, 127
2, 70111, Note_off_c, 0, 47, 64
2, 70118, Note_on_c, 0, 55, 46
2, 70121, Control_c, 0, 64, 0
2, 70121, Control_c, 0, 64, 0
2, 70132, Control_c, 0, 64, 127
2, 70132, Control_c, 0, 64, 127
2, 70187, Note_off_c, 0, 59, 64
2, 70298, Note_on_c, 0, 66, 62
2, 70305, Note_on_c, 0, 48, 54
2, 70335, Note_off_c, 0, 62, 64
2, 70367, Note_on_c, 0, 64, 56
2, 70386, Note_off_c, 0, 66, 64
2, 70436, Note_on_c, 0, 52, 55
2, 70443, Note_off_c, 0, 48, 64
2, 70447, Note_on_c, 0, 60, 62
2, 70456, Control_c, 0, 64, 0
2, 70456, Control_c, 0, 64, 0
2, 70482, Note_off_c, 0, 64, 64
2, 70502, Control_c, 0, 64, 127
2, 70502, Control_c, 0, 64, 127
2, 70756, Note_on_c, 0, 59, 46
2, 70763, Note_on_c, 0, 50, 49
2, 70775, Note_off_c, 0, 52, 64
2, 70782, Note_off_c, 0, 60, 64
2, 70791, Control_c, 0, 64, 0
2, 70791, Control_c, 0, 64, 0
2, 70838, Control_c, 0, 64, 127
2, 70838, Control_c, 0, 64, 127
2, 71022, Note_off_c, 0, 67, 64
2, 71045, Note_on_c, 0, 66, 57
2, 71049, Note_on_c, 0, 56, 52
2, 71061, Note_off_c, 0, 59, 64
2, 71065, Note_off_c, 0, 55, 64
2, 71078, Control_c, 0, 64, 0
2, 71078, Control_c, 0, 64, 0
2, 71109, Control_c, 0, 64, 127
2, 71109, Control_c, 0, 64, 127
2, 71207, Note_on_c, 0, 57, 57
2, 71208, Note_on_c, 0, 60, 56
2, 71227, Note_off_c, 0, 56, 64
2, 71414, Note_off_c, 0, 66, 64
2, 71434, Note_on_c, 0, 61, 46
2, 71438, Note_on_c, 0, 69, 57
2, 71442, Note_on_c, 0, 49, 48
2, 71445, Note_on_c, 0, 66, 57
2, 71456, Note_off_c, 0, 60, 64
2, 71460, Note_off_c, 0, 50, 64
2, 71478, Control_c, 0, 64, 0
2, 71478, Control_c, 0, 64, 0
2, 71480, Control_c, 0, 64, 0
2, 71480, Control_c, 0, 64, 0
2, 71481, Note_off_c, 0, 57, 64
2, 71509, Control_c, 0, 64, 127
2, 71509, Control_c, 0, 64, 127
2, 71531, Control_c, 0, 64, 127
2, 71531, Control_c, 0, 64, 127
2, 71902, Note_on_c, 0, 37, 46
2, 71908, Note_on_c, 0, 59, 40
2, 71909, Note_on_c, 0, 68, 55
2, 71917, Note_off_c, 0, 69, 64
2, 71970, Note_off_c, 0, 61, 64
2, 71984, Control_c, 0, 64, 0
2, 71984, Control_c, 0, 64, 0
2, 72023, Control_c, 0, 64, 127
2, 72023, Control_c, 0, 64, 127
2, 72108, Note_on_c, 0, 65, 58
2, 72120, Note_off_c, 0, 66, 64
2, 72324, Note_on_c, 0, 58, 47
2, 72330, Note_on_c, 0, 66, 43
2, 72334, Note_on_c, 0, 42, 39
2, 72342, Note_off_c, 0, 65, 64
2, 72352, Note_off_c, 0, 37, 64
2, 72358, Note_off_c, 0, 59, 64
2, 72359, Note_off_c, 0, 68, 64
2, 72389, Control_c, 0, 64, 0
2, 72389, Control_c, 0, 64, 0
2, 72436, Control_c, 0, 64, 127
2, 72436, Control_c, 0, 64, 127
2, 72652, Note_off_c, 0, 58, 64
2, 72666, Note_off_c, 0, 66, 64
2, 72921, Note_on_c, 0, 73, 52
2, 72979, Control_c, 0, 64, 0
2, 72979, Control_c, 0, 64, 0
2, 73010, Control_c, 0, 64, 127
2, 73010, Control_c, 0, 64, 127
2, 73208, Note_off_c, 0, 49, 64
2, 73210, Note_off_c, 0, 42, 64
2, 73567, Note_on_c, 0, 64, 47
2, 73625, Control_c, 0, 64, 0
2, 73625, Control_c, 0, 64, 0
2, 73644, Control_c, 0, 64, 127
2, 73644, Control_c, 0, 64, 127
2, 73725, Note_on_c, 0, 63, 59
2, 73748, Note_off_c, 0, 64, 64
2, 73868, Note_on_c, 0, 65, 62
2, 73883, Note_off_c, 0, 63, 64
2, 74008, Note_on_c, 0, 54, 35
2, 74009, Note_on_c, 0, 66, 57
2, 74009, Note_on_c, 0, 47, 47
2, 74036, Note_off_c, 0, 65, 64
2, 74039, Control_c, 0, 64, 0
2, 74039, Control_c, 0, 64, 0
2, 74050, Control_c, 0, 64, 127
2, 74050, Control_c, 0, 64, 127
2, 74088, Note_off_c, 0, 73, 64
2, 74148, Note_on_c, 0, 68, 62
2, 74168, Note_off_c, 0, 66, 64
2, 74267, Note_off_c, 0, 54, 64
2, 74268, Note_off_c, 0, 47, 64
2, 74272, Note_on_c, 0, 63, 58
2, 74278, Note_on_c, 0, 70, 63
2, 74278, Note_on_c, 0, 42, 47
2, 74291, Note_on_c, 0, 54, 35
2, 74302, Note_off_c, 0, 68, 64
2, 74397, Note_on_c, 0, 71, 63
2, 74410, Note_off_c, 0, 70, 64
2, 74469, Note_off_c, 0, 63, 64
2, 74475, Note_off_c, 0, 42, 64
2, 74488, Note_off_c, 0, 54, 64
2, 74507, Note_on_c, 0, 63, 57
2, 74512, Note_on_c, 0, 54, 46
2, 74515, Note_on_c, 0, 47, 59
2, 74536, Control_c, 0, 64, 0
2, 74536, Control_c, 0, 64, 0
2, 74549, Control_c, 0, 64, 127
2, 74549, Control_c, 0, 64, 127
2, 74608, Note_on_c, 0, 73, 65
2, 74629, Note_off_c, 0, 71, 64
2, 74654, Note_on_c, 0, 71, 69
2, 74674, Note_off_c, 0, 73, 64
2, 74704, Note_off_c, 0, 63, 64
2, 74709, Note_off_c, 0, 54, 64
2, 74712, Note_off_c, 0, 47, 64
2, 74722, Note_on_c, 0, 70, 71
2, 74726, Note_on_c, 0, 49, 50
2, 74727, Note_on_c, 0, 61, 59
2, 74733, Note_on_c, 0, 54, 41
2, 74742, Note_off_c, 0, 71, 64
2, 74752, Control_c, 0, 64, 0
2, 74752, Control_c, 0, 64, 0
2, 74762, Control_c, 0, 64, 127
2, 74762, Control_c, 0, 64, 127
2, 74827, Note_on_c, 0, 68, 62
2, 74843, Note_off_c, 0, 70, 64
2, 74898, Note_off_c, 0, 49, 64
2, 74899, Note_off_c, 0, 61, 64
2, 74905, Note_off_c, 0, 54, 64
2, 74915, Note_on_c, 0, 70, 59
2, 74918, Note_off_c, 0, 68, 64
2, 74922, Note_on_c, 0, 61, 62
2, 74922, Note_on_c, 0, 42, 56
2, 74928, Note_on_c, 0, 54, 44
2, 74942, Control_c, 0, 64, 0
2, 74942, Control_c, 0, 64, 0
2, 74954, Control_c, 0, 64, 127
2, 74954, Control_c, 0, 64, 127
2, 75010, Note_on_c, 0, 66, 65
2, 75034, Note_off_c, 0, 70, 64
2, 75094, Note_off_c, 0, 42, 64
2, 75094, Note_off_c, 0, 61, 64
2, 75100, Note_off_c, 0, 54, 64
2, 75110, Note_on_c, 0, 63, 65
2, 75111, Note_on_c, 0, 54, 40
2, 75111, Control_c, 0, 64, 0
2, 75111, Control_c, 0, 64, 0
2, 75119, Note_on_c, 0, 47, 44
2, 75130, Note_off_c, 0, 66, 64
2, 75135, Control_c, 0, 64, 127
2, 75135, Control_c, 0, 64, 127
2, 75187, Note_on_c, 0, 65, 63
2, 75241, Note_off_c, 0, 63, 64
2, 75242, Note_off_c, 0, 54, 64
2, 75250, Note_off_c, 0, 47, 64
2, 75276, Note_on_c, 0, 54, 47
2, 75282, Note_on_c, 0, 63, 62
2, 75285, Note_on_c, 0, 66, 77
2, 75285, Note_on_c, 0, 47, 58
2, 75291, Note_off_c, 0, 65, 64
2, 75361, Note_on_c, 0, 68, 63
2, 75391, Note_off_c, 0, 66, 64
2, 75407, Note_off_c, 0, 54, 64
2, 75413, Note_off_c, 0, 63, 64
2, 75416, Note_off_c, 0, 47, 64
2, 75440, Note_on_c, 0, 42, 56
2, 75445, Note_on_c, 0, 63, 52
2, 75449, Note_on_c, 0, 54, 50
2, 75452, Note_on_c, 0, 70, 81
2, 75472, Note_off_c, 0, 68, 64
2, 75541, Note_on_c, 0, 71, 63
2, 75571, Note_off_c, 0, 42, 64
2, 75576, Note_off_c, 0, 63, 64
2, 75578, Note_off_c, 0, 70, 64
2, 75580, Note_off_c, 0, 54, 64
2, 75630, Note_off_c, 0, 71, 64
2, 75630, Note_on_c, 0, 47, 58
2, 75632, Note_on_c, 0, 63, 65
2, 75634, Note_on_c, 0, 54, 40
2, 75694, Note_on_c, 0, 73, 59
2, 75748, Note_on_c, 0, 71, 55
2, 75761, Note_off_c, 0, 47, 64
2, 75763, Note_off_c, 0, 63, 64
2, 75765, Note_off_c, 0, 54, 64
2, 75766, Note_off_c, 0, 73, 64
2, 75797, Note_on_c, 0, 70, 74
2, 75804, Note_on_c, 0, 54, 50
2, 75806, Control_c, 0, 64, 0
2, 75806, Control_c, 0, 64, 0
2, 75808, Note_on_c, 0, 61, 55
2, 75812, Note_on_c, 0, 49, 50
2, 75816, Control_c, 0, 64, 127
2, 75816, Control_c, 0, 64, 127
2, 75830, Note_off_c, 0, 71, 64
2, 75876, Note_on_c, 0, 68, 50
2, 75898, Note_off_c, 0, 70, 64
2, 75918, Note_off_c, 0, 54, 64
2, 75922, Note_off_c, 0, 61, 64
2, 75926, Note_off_c, 0, 49, 64
2, 75938, Note_on_c, 0, 42, 51
2, 75947, Note_on_c, 0, 61, 65
2, 75948, Note_on_c, 0, 70, 83
2, 75951, Note_on_c, 0, 54, 48
2, 75968, Note_off_c, 0, 68, 64
2, 76052, Note_off_c, 0, 42, 64
2, 76061, Note_off_c, 0, 61, 64
2, 76065, Note_off_c, 0, 54, 64
2, 76068, Note_off_c, 0, 70, 64
2, 76099, Note_on_c, 0, 63, 72
2, 76107, Note_on_c, 0, 47, 55
2, 76108, Note_on_c, 0, 54, 41
2, 76167, Note_on_c, 0, 65, 62
2, 76213, Note_off_c, 0, 63, 64
2, 76221, Note_off_c, 0, 47, 64
2, 76222, Note_off_c, 0, 54, 64
2, 76244, Note_on_c, 0, 63, 59
2, 76244, Note_on_c, 0, 54, 49
2, 76248, Note_on_c, 0, 66, 65
2, 76248, Note_on_c, 0, 47, 59
2, 76257, Note_off_c, 0, 65, 64
2, 76310, Note_on_c, 0, 68, 58
2, 76333, Note_off_c, 0, 66, 64
2, 76358, Note_off_c, 0, 54, 64
2, 76358, Note_off_c, 0, 63, 64
2, 76362, Note_off_c, 0, 47, 64
2, 76382, Note_on_c, 0, 42, 59
2, 76386, Note_on_c, 0, 70, 71
2, 76386, Note_on_c, 0, 63, 56
2, 76389, Note_on_c, 0, 54, 55
2, 76399, Note_off_c, 0, 68, 64
2, 76451, Note_on_c, 0, 71, 55
2, 76496, Note_off_c, 0, 42, 64
2, 76500, Note_off_c, 0, 63, 64
2, 76500, Note_off_c, 0, 70, 64
2, 76503, Note_off_c, 0, 54, 64
2, 76524, Note_on_c, 0, 54, 58
2, 76530, Note_on_c, 0, 63, 82
2, 76530, Note_on_c, 0, 47, 57
2, 76569, Note_on_c, 0, 73, 62
2, 76596, Note_off_c, 0, 71, 64
2, 76617, Note_on_c, 0, 71, 62
2, 76632, Note_off_c, 0, 73, 64
2, 76638, Note_off_c, 0, 54, 64
2, 76644, Note_off_c, 0, 47, 64
2, 76644, Note_off_c, 0, 63, 64
2, 76658, Note_on_c, 0, 54, 56
2, 76667, Note_on_c, 0, 70, 73
2, 76667, Note_on_c, 0, 49, 42
2, 76674, Note_on_c, 0, 61, 54
2, 76682, Note_off_c, 0, 71, 64
2, 76734, Note_on_c, 0, 68, 47
2, 76744, Note_off_c, 0, 70, 64
2, 76772, Note_off_c, 0, 54, 64
2, 76781, Note_off_c, 0, 49, 64
2, 76788, Note_off_c, 0, 61, 64
2, 76795, Note_on_c, 0, 70, 74
2, 76801, Note_on_c, 0, 42, 64
2, 76803, Note_on_c, 0, 61, 50
2, 76806, Note_on_c, 0, 54, 46
2, 76807, Note_off_c, 0, 68, 64
2, 76865, Note_on_c, 0, 66, 70
2, 76882, Note_off_c, 0, 70, 64
2, 76915, Note_off_c, 0, 42, 64
2, 76917, Note_off_c, 0, 61, 64
2, 76920, Note_off_c, 0, 54, 64
2, 76929, Note_on_c, 0, 54, 50
2, 76929, Note_on_c, 0, 47, 58
2, 76935, Note_on_c, 0, 63, 73
2, 76948, Note_off_c, 0, 66, 64
2, 76998, Note_on_c, 0, 65, 60
2, 77023, Note_off_c, 0, 47, 64
2, 77023, Note_off_c, 0, 54, 64
2, 77029, Note_off_c, 0, 63, 64
2, 77054, Control_c, 0, 64, 0
2, 77054, Control_c, 0, 64, 0
2, 77060, Note_on_c, 0, 54, 57
2, 77060, Note_on_c, 0, 47, 62
2, 77064, Note_on_c, 0, 63, 59
2, 77068, Note_on_c, 0, 66, 56
2, 77074, Control_c, 0, 64, 127
2, 77074, Control_c, 0, 64, 127
2, 77080, Note_off_c, 0, 65, 64
2, 77122, Note_on_c, 0, 68, 57
2, 77142, Note_off_c, 0, 66, 64
2, 77154, Note_off_c, 0, 47, 64
2, 77154, Note_off_c, 0, 54, 64
2, 77158, Note_off_c, 0, 63, 64
2, 77191, Note_on_c, 0, 63, 50
2, 77194, Note_on_c, 0, 70, 65
2, 77198, Note_on_c, 0, 54, 48
2, 77198, Note_on_c, 0, 42, 73
2, 77214, Note_off_c, 0, 68, 64
2, 77257, Note_on_c, 0, 71, 52
2, 77285, Note_off_c, 0, 63, 64
2, 77292, Note_off_c, 0, 42, 64
2, 77292, Note_off_c, 0, 54, 64
2, 77301, Note_off_c, 0, 70, 64
2, 77307, Control_c, 0, 64, 0
2, 77307, Control_c, 0, 64, 0
2, 77319, Control_c, 0, 64, 127
2, 77319, Control_c, 0, 64, 127
2, 77326, Note_on_c, 0, 63, 72
2, 77332, Note_on_c, 0, 54, 59
2, 77335, Note_on_c, 0, 47, 62
2, 77363, Note_on_c, 0, 73, 63
2, 77375, Note_off_c, 0, 71, 64
2, 77413, Note_on_c, 0, 71, 55
2, 77420, Note_off_c, 0, 63, 64
2, 77426, Note_off_c, 0, 54, 64
2, 77429, Note_off_c, 0, 47, 64
2, 77432, Note_off_c, 0, 73, 64
2, 77445, Note_on_c, 0, 54, 58
2, 77460, Note_on_c, 0, 61, 56
2, 77460, Note_on_c, 0, 49, 36
2, 77466, Note_on_c, 0, 70, 47
2, 77476, Note_off_c, 0, 71, 64
2, 77519, Note_on_c, 0, 68, 69
2, 77530, Note_off_c, 0, 70, 64
2, 77539, Note_off_c, 0, 54, 64
2, 77554, Note_off_c, 0, 49, 64
2, 77554, Note_off_c, 0, 61, 64
2, 77568, Control_c, 0, 64, 0
2, 77568, Control_c, 0, 64, 0
2, 77574, Note_on_c, 0, 70, 71
2, 77577, Note_on_c, 0, 61, 50
2, 77580, Note_on_c, 0, 42, 66
2, 77586, Note_off_c, 0, 68, 64
2, 77588, Control_c, 0, 64, 127
2, 77588, Control_c, 0, 64, 127
2, 77593, Note_on_c, 0, 54, 50
2, 77642, Note_on_c, 0, 66, 56
2, 77653, Note_off_c, 0, 70, 64
2, 77671, Note_off_c, 0, 61, 64
2, 77674, Note_off_c, 0, 42, 64
2, 77687, Note_off_c, 0, 54, 64
2, 77689, Control_c, 0, 64, 0
2, 77689, Control_c, 0, 64, 0
2, 77703, Note_on_c, 0, 63, 58
2, 77703, Note_on_c, 0, 70, 69
2, 77703, Control_c, 0, 64, 127
2, 77703, Control_c, 0, 64, 127
2, 77709, Note_off_c, 0, 66, 64
2, 77712, Note_on_c, 0, 54, 43
2, 77712, Note_on_c, 0, 47, 50
2, 77759, Note_on_c, 0, 68, 43
2, 77767, Note_off_c, 0, 70, 64
2, 77797, Note_off_c, 0, 63, 64
2, 77806, Note_off_c, 0, 47, 64
2, 77806, Note_off_c, 0, 54, 64
2, 77819, Note_on_c, 0, 70, 69
2, 77819, Note_on_c, 0, 61, 55
2, 77825, Note_on_c, 0, 42, 50
2, 77831, Note_off_c, 0, 68, 64
2, 77838, Note_on_c, 0, 54, 43
2, 77884, Note_on_c, 0, 66, 43
2, 77897, Note_off_c, 0, 70, 64
2, 77913, Note_off_c, 0, 61, 64
2, 77919, Note_off_c, 0, 42, 64
2, 77932, Note_off_c, 0, 54, 64
2, 77946, Note_on_c, 0, 63, 58
2, 77947, Note_on_c, 0, 70, 69
2, 77958, Note_on_c, 0, 54, 57
2, 77959, Note_off_c, 0, 66, 64
2, 77960, Note_on_c, 0, 47, 59
2, 77997, Note_on_c, 0, 68, 80
2, 78012, Note_off_c, 0, 70, 64
2, 78040, Note_off_c, 0, 63, 64
2, 78052, Note_off_c, 0, 54, 64
2, 78054, Note_off_c, 0, 47, 64
2, 78060, Note_on_c, 0, 70, 73
2, 78067, Note_on_c, 0, 61, 58
2, 78073, Note_on_c, 0, 42, 57
2, 78075, Note_off_c, 0, 68, 64
2, 78084, Note_on_c, 0, 54, 47
2, 78114, Note_on_c, 0, 66, 77
2, 78131, Note_off_c, 0, 70, 64
2, 78160, Control_c, 0, 64, 0
2, 78160, Control_c, 0, 64, 0
2, 78161, Note_off_c, 0, 61, 64
2, 78167, Note_off_c, 0, 42, 64
2, 78178, Note_off_c, 0, 54, 64
2, 78183, Control_c, 0, 64, 127
2, 78183, Control_c, 0, 64, 127
2, 78189, Note_on_c, 0, 70, 72
2, 78189, Note_on_c, 0, 63, 59
2, 78195, Note_on_c, 0, 47, 55
2, 78198, Note_on_c, 0, 54, 55
2, 78211, Note_off_c, 0, 66, 64
2, 78235, Note_on_c, 0, 68, 81
2, 78245, Note_off_c, 0, 70, 64
2, 78271, Control_c, 0, 64, 0
2, 78271, Control_c, 0, 64, 0
2, 78283, Note_off_c, 0, 63, 64
2, 78284, Control_c, 0, 64, 127
2, 78284, Control_c, 0, 64, 127
2, 78289, Note_off_c, 0, 47, 64
2, 78292, Note_off_c, 0, 54, 64
2, 78298, Note_on_c, 0, 61, 58
2, 78301, Note_on_c, 0, 70, 73
2, 78304, Note_on_c, 0, 42, 64
2, 78313, Note_on_c, 0, 54, 55
2, 78321, Note_off_c, 0, 68, 64
2, 78349, Note_on_c, 0, 66, 82
2, 78361, Note_off_c, 0, 70, 64
2, 78392, Note_off_c, 0, 61, 64
2, 78398, Note_off_c, 0, 42, 64
2, 78407, Note_off_c, 0, 54, 64
2, 78415, Note_on_c, 0, 63, 57
2, 78418, Note_on_c, 0, 70, 75
2, 78423, Note_on_c, 0, 47, 58
2, 78428, Note_on_c, 0, 54, 59
2, 78443, Note_off_c, 0, 66, 64
2, 78468, Note_on_c, 0, 68, 64
2, 78481, Note_off_c, 0, 70, 64
2, 78498, Control_c, 0, 64, 0
2, 78498, Control_c, 0, 64, 0
2, 78509, Note_off_c, 0, 63, 64
2, 78510, Control_c, 0, 64, 127
2, 78510, Control_c, 0, 64, 127
2, 78517, Note_off_c, 0, 47, 64
2, 78522, Note_off_c, 0, 54, 64
2, 78530, Note_on_c, 0, 61, 62
2, 78530, Note_on_c, 0, 42, 64
2, 78538, Note_on_c, 0, 54, 59
2, 78539, Note_on_c, 0, 70, 73
2, 78549, Note_off_c, 0, 68, 64
2, 78586, Note_on_c, 0, 66, 65
2, 78602, Control_c, 0, 64, 0
2, 78602, Control_c, 0, 64, 0
2, 78603, Note_off_c, 0, 70, 64
2, 78622, Control_c, 0, 64, 127
2, 78622, Control_c, 0, 64, 127
2, 78624, Note_off_c, 0, 42, 64
2, 78624, Note_off_c, 0, 61, 64
2, 78632, Note_off_c, 0, 54, 64
2, 78639, Note_on_c, 0, 47, 49
2, 78643, Note_on_c, 0, 54, 63
2, 78647, Note_on_c, 0, 63, 58
2, 78650, Note_on_c, 0, 70, 75
2, 78666, Note_off_c, 0, 66, 64
2, 78700, Note_on_c, 0, 68, 60
2, 78714, Note_off_c, 0, 70, 64
2, 78723, Control_c, 0, 64, 0
2, 78723, Control_c, 0, 64, 0
2, 78733, Note_off_c, 0, 47, 64
2, 78737, Note_off_c, 0, 54, 64
2, 78740, Control_c, 0, 64, 127
2, 78740, Control_c, 0, 64, 127
2, 78741, Note_off_c, 0, 63, 64
2, 78759, Note_on_c, 0, 42, 67
2, 78760, Note_on_c, 0, 61, 59
2, 78763, Note_on_c, 0, 54, 60
2, 78765, Note_on_c, 0, 70, 70
2, 78785, Note_off_c, 0, 68, 64
2, 78813, Note_on_c, 0, 66, 60
2, 78824, Note_off_c, 0, 70, 64
2, 78842, Control_c, 0, 64, 0
2, 78842, Control_c, 0, 64, 0
2, 78853, Note_off_c, 0, 42, 64
2, 78854, Note_off_c, 0, 61, 64
2, 78857, Note_off_c, 0, 54, 64
2, 78863, Control_c, 0, 64, 127
2, 78863, Control_c, 0, 64, 127
2, 78870, Note_on_c, 0, 47, 59
2, 78876, Note_on_c, 0, 63, 59
2, 78876, Note_on_c, 0, 54, 66
2, 78882, Note_on_c, 0, 70, 73
2, 78895, Note_off_c, 0, 66, 64
2, 78935, Note_on_c, 0, 68, 57
2, 78945, Note_off_c, 0, 70, 64
2, 78954, Control_c, 0, 64, 0
2, 78954, Control_c, 0, 64, 0
2, 78964, Note_off_c, 0, 47, 64
2, 78970, Note_off_c, 0, 54, 64
2, 78970, Note_off_c, 0, 63, 64
2, 78975, Control_c, 0, 64, 127
2, 78975, Control_c, 0, 64, 127
2, 79006, Note_on_c, 0, 70, 87
2, 79006, Note_on_c, 0, 61, 75
2, 79006, Note_on_c, 0, 54, 86
2, 79013, Note_on_c, 0, 42, 80
2, 79018, Note_off_c, 0, 68, 64
2, 79106, Note_off_c, 0, 61, 64
2, 79122, Note_off_c, 0, 70, 64
2, 79132, Note_off_c, 0, 54, 64
2, 79141, Note_off_c, 0, 42, 64
2, 79215, Control_c, 0, 64, 0
2, 79215, Control_c, 0, 64, 0
2, 79433, Note_on_c, 0, 37, 83
2, 79493, Control_c, 0, 64, 127
2, 79493, Control_c, 0, 64, 127
2, 79586, Note_on_c, 0, 63, 64
2, 79613, Note_off_c, 0, 63, 64
2, 79624, Control_c, 0, 64, 0
2, 79624, Control_c, 0, 64, 0
2, 79636, Control_c, 0, 64, 127
2, 79636, Control_c, 0, 64, 127
2, 79641, Note_on_c, 0, 63, 82
2, 79809, Note_off_c, 0, 37, 64
2, 79851, Note_on_c, 0, 37, 52
2, 79855, Note_on_c, 0, 49, 50
2, 79860, Note_on_c, 0, 59, 55
2, 79860, Note_on_c, 0, 53, 55
2, 79864, Control_c, 0, 64, 0
2, 79864, Control_c, 0, 64, 0
2, 79883, Control_c, 0, 64, 127
2, 79883, Control_c, 0, 64, 127
2, 79949, Note_off_c, 0, 63, 64
2, 79950, Note_on_c, 0, 65, 73
2, 80024, Note_off_c, 0, 65, 64
2, 80032, Note_off_c, 0, 37, 64
2, 80036, Note_off_c, 0, 49, 64
2, 80041, Note_off_c, 0, 53, 64
2, 80041, Note_off_c, 0, 59, 64
2, 80041, Note_on_c, 0, 65, 86
2, 80042, Note_on_c, 0, 58, 63
2, 80044, Note_on_c, 0, 54, 55
2, 80048, Note_on_c, 0, 49, 50
2, 80050, Note_on_c, 0, 42, 47
2, 80063, Control_c, 0, 64, 0
2, 80063, Control_c, 0, 64, 0
2, 80121, Control_c, 0, 64, 127
2, 80121, Control_c, 0, 64, 127
2, 80174, Note_off_c, 0, 65, 64
2, 80184, Note_on_c, 0, 66, 69
2, 80214, Note_off_c, 0, 66, 64
2, 80225, Control_c, 0, 64, 0
2, 80225, Control_c, 0, 64, 0
2, 80237, Note_on_c, 0, 66, 73
2, 80258, Control_c, 0, 64, 127
2, 80258, Control_c, 0, 64, 127
2, 80281, Note_off_c, 0, 58, 64
2, 80283, Note_off_c, 0, 54, 64
2, 80287, Note_off_c, 0, 49, 64
2, 80289, Note_off_c, 0, 42, 64
2, 80396, Note_on_c, 0, 49, 46
2, 80404, Note_on_c, 0, 54, 55
2, 80404, Note_on_c, 0, 37, 52
2, 80410, Note_on_c, 0, 58, 55
2, 80515, Note_on_c, 0, 65, 63
2, 80524, Note_off_c, 0, 66, 64
2, 80582, Note_on_c, 0, 63, 72
2, 80592, Note_off_c, 0, 65, 64
2, 80604, Note_off_c, 0, 49, 64
2, 80613, Note_on_c, 0, 65, 62
2, 80620, Note_off_c, 0, 63, 64
2, 80636, Note_on_c, 0, 49, 32
2, 80637, Note_on_c, 0, 53, 49
2, 80637, Control_c, 0, 64, 0
2, 80637, Control_c, 0, 64, 0
2, 80643, Note_off_c, 0, 37, 64
2, 80643, Note_off_c, 0, 54, 64
2, 80644, Note_on_c, 0, 63, 73
2, 80644, Note_on_c, 0, 59, 41
2, 80644, Note_on_c, 0, 44, 32
2, 80645, Control_c, 0, 64, 0
2, 80645, Control_c, 0, 64, 0
2, 80649, Note_off_c, 0, 58, 64
2, 80660, Control_c, 0, 64, 127
2, 80660, Control_c, 0, 64, 127
2, 80668, Control_c, 0, 64, 127
2, 80668, Control_c, 0, 64, 127
2, 80672, Note_off_c, 0, 65, 64
2, 80692, Note_off_c, 0, 63, 64
2, 80734, Note_on_c, 0, 61, 73
2, 80742, Note_on_c, 0, 61, 73
2, 80774, Note_off_c, 0, 49, 64
2, 80775, Note_off_c, 0, 53, 64
2, 80782, Note_off_c, 0, 44, 64
2, 80782, Note_off_c, 0, 59, 64
2, 80824, Control_c, 0, 64, 0
2, 80824, Control_c, 0, 64, 0
2, 80831, Note_off_c, 0, 61, 64
2, 80832, Note_on_c, 0, 63, 78
2, 80839, Note_off_c, 0, 61, 64
2, 80856, Control_c, 0, 64, 127
2, 80856, Control_c, 0, 64, 127
2, 81021, Control_c, 0, 64, 0
2, 81021, Control_c, 0, 64, 0
2, 81028, Note_on_c, 0, 53, 49
2, 81029, Note_on_c, 0, 49, 49
2, 81029, Note_on_c, 0, 37, 50
2, 81033, Note_on_c, 0, 59, 52
2, 81044, Control_c, 0, 64, 127
2, 81044, Control_c, 0, 64, 127
2, 81045, Control_c, 0, 64, 0
2, 81045, Control_c, 0, 64, 0
2, 81074, Control_c, 0, 64, 127
2, 81074, Control_c, 0, 64, 127
2, 81134, Note_on_c, 0, 65, 55
2, 81164, Note_off_c, 0, 63, 64
2, 81210, Note_off_c, 0, 49, 64
2, 81220, Note_on_c, 0, 54, 55
2, 81220, Note_on_c, 0, 49, 55
2, 81222, Note_on_c, 0, 58, 62
2, 81226, Note_on_c, 0, 42, 55
2, 81229, Note_on_c, 0, 66, 77
2, 81235, Control_c, 0, 64, 0
2, 81235, Control_c, 0, 64, 0
2, 81236, Note_off_c, 0, 53, 64
2, 81237, Note_off_c, 0, 37, 64
2, 81238, Control_c, 0, 64, 127
2, 81238, Control_c, 0, 64, 127
2, 81241, Note_off_c, 0, 59, 64
2, 81246, Note_off_c, 0, 65, 64
2, 81278, Control_c, 0, 64, 127
2, 81278, Control_c, 0, 64, 127
2, 81358, Note_off_c, 0, 49, 64
2, 81358, Note_off_c, 0, 54, 64
2, 81360, Note_off_c, 0, 58, 64
2, 81364, Note_off_c, 0, 42, 64
2, 81434, Note_on_c, 0, 63, 73
2, 81434, Control_c, 0, 64, 0
2, 81434, Control_c, 0, 64, 0
2, 81456, Note_off_c, 0, 66, 64
2, 81466, Control_c, 0, 64, 127
2, 81466, Control_c, 0, 64, 127
2, 81639, Control_c, 0, 64, 0
2, 81639, Control_c, 0, 64, 0
2, 81644, Note_on_c, 0, 58, 62
2, 81644, Note_on_c, 0, 54, 55
2, 81647, Note_on_c, 0, 42, 48
2, 81648, Note_on_c, 0, 49, 46
2, 81662, Control_c, 0, 64, 127
2, 81662, Control_c, 0, 64, 127
2, 81674, Control_c, 0, 64, 127
2, 81674, Control_c, 0, 64, 127
2, 81825, Note_off_c, 0, 54, 64
2, 81825, Note_off_c, 0, 58, 64
2, 81828, Note_off_c, 0, 42, 64
2, 81829, Note_off_c, 0, 49, 64
2, 81845, Note_on_c, 0, 49, 52
2, 81848, Note_on_c, 0, 37, 55
2, 81852, Note_on_c, 0, 59, 62
2, 81852, Note_on_c, 0, 53, 55
2, 81857, Control_c, 0, 64, 0
2, 81857, Control_c, 0, 64, 0
2, 81870, Control_c, 0, 64, 127
2, 81870, Control_c, 0, 64, 127
2, 81898, Control_c, 0, 64, 127
2, 81898, Control_c, 0, 64, 127
2, 81974, Note_off_c, 0, 63, 64
2, 81988, Note_on_c, 0, 63, 74
2, 82011, Note_off_c, 0, 63, 64
2, 82027, Note_off_c, 0, 59, 64
2, 82038, Note_off_c, 0, 37, 64
2, 82044, Note_on_c, 0, 63, 74
2, 82048, Note_off_c, 0, 49, 64
2, 82050, Control_c, 0, 64, 0
2, 82050, Control_c, 0, 64, 0
2, 82055, Note_off_c, 0, 53, 64
2, 82073, Control_c, 0, 64, 127
2, 82073, Control_c, 0, 64, 127
2, 82228, Note_on_c, 0, 53, 55
2, 82228, Note_on_c, 0, 49, 46
2, 82231, Note_on_c, 0, 59, 49
2, 82237, Note_on_c, 0, 37, 48
2, 82246, Control_c, 0, 64, 127
2, 82246, Control_c, 0, 64, 127
2, 82253, Control_c, 0, 64, 0
2, 82253, Control_c, 0, 64, 0
2, 82273, Control_c, 0, 64, 127
2, 82273, Control_c, 0, 64, 127
2, 82336, Note_on_c, 0, 65, 64
2, 82362, Note_off_c, 0, 63, 64
2, 82366, Note_off_c, 0, 49, 64
2, 82366, Note_off_c, 0, 53, 64
2, 82369, Note_off_c, 0, 59, 64
2, 82375, Note_off_c, 0, 37, 64
2, 82428, Note_on_c, 0, 53, 55
2, 82430, Note_on_c, 0, 68, 71
2, 82434, Note_on_c, 0, 58, 59
2, 82436, Note_on_c, 0, 38, 50
2, 82440, Note_on_c, 0, 50, 52
2, 82444, Control_c, 0, 64, 0
2, 82444, Control_c, 0, 64, 0
2, 82446, Control_c, 0, 64, 127
2, 82446, Control_c, 0, 64, 127
2, 82462, Note_off_c, 0, 65, 64
2, 82465, Control_c, 0, 64, 127
2, 82465, Control_c, 0, 64, 127
2, 82570, Note_on_c, 0, 66, 55
2, 82585, Note_off_c, 0, 68, 64
2, 82588, Note_off_c, 0, 53, 64
2, 82594, Note_off_c, 0, 66, 64
2, 82594, Note_off_c, 0, 58, 64
2, 82596, Note_off_c, 0, 38, 64
2, 82600, Note_off_c, 0, 50, 64
2, 82620, Note_on_c, 0, 51, 55
2, 82623, Note_on_c, 0, 66, 73
2, 82632, Note_on_c, 0, 58, 65
2, 82635, Note_on_c, 0, 54, 62
2, 82640, Note_on_c, 0, 39, 51
2, 82643, Control_c, 0, 64, 0
2, 82643, Control_c, 0, 64, 0
2, 82654, Control_c, 0, 64, 127
2, 82654, Control_c, 0, 64, 127
2, 82666, Control_c, 0, 64, 127
2, 82666, Control_c, 0, 64, 127
2, 82780, Note_off_c, 0, 51, 64
2, 82792, Note_off_c, 0, 58, 64
2, 82795, Note_off_c, 0, 54, 64
2, 82800, Note_off_c, 0, 39, 64
2, 82828, Note_on_c, 0, 34, 57
2, 82832, Control_c, 0, 64, 0
2, 82832, Control_c, 0, 64, 0
2, 82836, Note_on_c, 0, 46, 57
2, 82838, Note_on_c, 0, 61, 57
2, 82838, Note_on_c, 0, 54, 59
2, 82859, Control_c, 0, 64, 127
2, 82859, Control_c, 0, 64, 127
2, 82921, Note_on_c, 0, 65, 64
2, 82942, Note_off_c, 0, 66, 64
2, 82988, Note_off_c, 0, 34, 64
2, 82996, Note_off_c, 0, 46, 64
2, 82998, Note_off_c, 0, 54, 64
2, 82998, Note_off_c, 0, 61, 64
2, 83011, Note_off_c, 0, 65, 64
2, 83012, Note_on_c, 0, 63, 71
2, 83032, Note_on_c, 0, 65, 63
2, 83044, Note_off_c, 0, 63, 64
2, 83064, Note_on_c, 0, 56, 56
2, 83068, Note_on_c, 0, 54, 56
2, 83068, Note_on_c, 0, 35, 56
2, 83069, Note_on_c, 0, 63, 73
2, 83076, Note_on_c, 0, 47, 56
2, 83077, Control_c, 0, 64, 0
2, 83077, Control_c, 0, 64, 0
2, 83083, Control_c, 0, 64, 127
2, 83083, Control_c, 0, 64, 127
2, 83100, Note_off_c, 0, 65, 64
2, 83107, Control_c, 0, 64, 127
2, 83107, Control_c, 0, 64, 127
2, 83182, Note_on_c, 0, 61, 62
2, 83193, Note_off_c, 0, 63, 64
2, 83224, Note_off_c, 0, 56, 64
2, 83228, Note_off_c, 0, 54, 64
2, 83268, Note_on_c, 0, 44, 58
2, 83268, Note_on_c, 0, 32, 58
2, 83272, Note_on_c, 0, 54, 56
2, 83276, Note_on_c, 0, 59, 56
2, 83279, Note_on_c, 0, 63, 78
2, 83294, Note_off_c, 0, 61, 64
2, 83295, Control_c, 0, 64, 127
2, 83295, Control_c, 0, 64, 127
2, 83297, Control_c, 0, 64, 0
2, 83297, Control_c, 0, 64, 0
2, 83319, Note_off_c, 0, 35, 64
2, 83327, Note_off_c, 0, 47, 64
2, 83327, Control_c, 0, 64, 127
2, 83327, Control_c, 0, 64, 127
2, 83432, Note_off_c, 0, 54, 64
2, 83436, Note_off_c, 0, 59, 64
2, 83500, Control_c, 0, 64, 127
2, 83500, Control_c, 0, 64, 127
2, 83505, Note_off_c, 0, 32, 64
2, 83505, Note_off_c, 0, 44, 64
2, 83513, Note_on_c, 0, 59, 58
2, 83516, Note_on_c, 0, 53, 56
2, 83516, Note_on_c, 0, 37, 69
2, 83516, Note_on_c, 0, 25, 69
2, 83518, Note_on_c, 0, 65, 86
2, 83527, Control_c, 0, 64, 0
2, 83527, Control_c, 0, 64, 0
2, 83540, Control_c, 0, 64, 127
2, 83540, Control_c, 0, 64, 127
2, 83541, Note_off_c, 0, 63, 64
2, 83673, Note_off_c, 0, 59, 64
2, 83676, Note_off_c, 0, 25, 64
2, 83676, Note_off_c, 0, 37, 64
2, 83676, Note_off_c, 0, 53, 64
2, 83762, Note_on_c, 0, 68, 73
2, 83764, Note_on_c, 0, 53, 56
2, 83766, Note_on_c, 0, 59, 56
2, 83766, Note_on_c, 0, 25, 69
2, 83774, Note_off_c, 0, 65, 64
2, 83774, Note_on_c, 0, 37, 78
2, 83781, Control_c, 0, 64, 0
2, 83781, Control_c, 0, 64, 0
2, 83811, Control_c, 0, 64, 127
2, 83811, Control_c, 0, 64, 127
2, 83924, Note_off_c, 0, 53, 64
2, 83926, Note_off_c, 0, 25, 64
2, 83926, Note_off_c, 0, 59, 64
2, 83934, Note_off_c, 0, 37, 64
2, 84065, Note_on_c, 0, 66, 71
2, 84069, Note_off_c, 0, 68, 64
2, 84101, Note_off_c, 0, 66, 64
2, 84125, Note_on_c, 0, 66, 79
2, 84128, Note_on_c, 0, 54, 62
2, 84128, Note_on_c, 0, 30, 55
2, 84131, Note_on_c, 0, 58, 62
2, 84131, Note_on_c, 0, 42, 62
2, 84151, Control_c, 0, 64, 0
2, 84151, Control_c, 0, 64, 0
2, 84200, Control_c, 0, 64, 0
2, 84232, Control_c, 0, 64, 127
2, 84348, Control_c, 0, 64, 127
2, 84348, Control_c, 0, 64, 127
2, 84445, Note_off_c, 0, 66, 64
2, 84448, Note_off_c, 0, 30, 64
2, 84448, Note_off_c, 0, 54, 64
2, 84448, Control_c, 0, 64, 0
2, 84451, Note_off_c, 0, 42, 64
2, 84451, Note_off_c, 0, 58, 64
2, 84595, Control_c, 0, 64, 0
