2, 0, Program_c, 0, 0
2, 0, Control_c, 0, 7, 127
2, 39, Note_on_c, 0, 65, 33
2, 48, Control_c, 0, 64, 0
2, 60, Control_c, 0, 64, 0
2, 130, Control_c, 0, 64, 127
2, 142, Control_c, 0, 64, 127
2, 290, Note_on_c, 0, 77, 29
2, 300, Note_off_c, 0, 65, 64
2, 732, Note_on_c, 0, 65, 39
2, 734, Note_off_c, 0, 77, 64
2, 911, Note_on_c, 0, 77, 26
2, 934, Note_off_c, 0, 65, 64
2, 1022, Note_on_c, 0, 65, 40
2, 1023, Note_off_c, 0, 77, 64
2, 1164, Note_on_c, 0, 76, 39
2, 1191, Control_c, 0, 64, 0
2, 1203, Control_c, 0, 64, 0
2, 1228, Control_c, 0, 64, 127
2, 1237, Note_off_c, 0, 65, 64
2, 1240, Control_c, 0, 64, 127
2, 1534, Note_on_c, 0, 66, 29
2, 1543, Note_off_c, 0, 76, 64
2, 1671, Note_on_c, 0, 76, 40
2, 1699, Note_off_c, 0, 66, 64
2, 1779, Note_off_c, 0, 76, 64
2, 1782, Note_on_c, 0, 66, 54
2, 1907, Note_on_c, 0, 75, 50
2, 1974, Control_c, 0, 64, 0
2, 1986, Control_c, 0, 64, 0
2, 2015, Control_c, 0, 64, 127
2, 2027, Control_c, 0, 64, 127
2, 2041, Note_off_c, 0, 66, 64
2, 2273, Note_on_c, 0, 67, 46
2, 2276, Note_off_c, 0, 75, 64
2, 2383, Note_on_c, 0, 75, 53
2, 2417, Note_off_c, 0, 67, 64
2, 2485, Note_on_c, 0, 67, 55
2, 2487, Note_off_c, 0, 75, 64
2, 2622, Note_on_c, 0, 74, 53
2, 2674, Control_c, 0, 64, 0
2, 2686, Control_c, 0, 64, 0
2, 2716, Control_c, 0, 64, 127
2, 2728, Control_c, 0, 64, 127
2, 2819, Note_off_c, 0, 67, 64
2, 3033, Note_on_c, 0, 68, 53
2, 3045, Note_off_c, 0, 74, 64
2, 3197, Note_on_c, 0, 74, 50
2, 3235, Note_off_c, 0, 68, 64
2, 3358, Note_on_c, 0, 68, 53
2, 3359, Note_off_c, 0, 74, 64
2, 3539, Note_on_c, 0, 73, 49
2, 3553, Note_on_c, 0, 41, 49
2, 3554, Control_c, 0, 64, 0
2, 3566, Control_c, 0, 64, 0
2, 3607, Control_c, 0, 64, 127
2, 3619, Control_c, 0, 64, 127
2, 3658, Note_off_c, 0, 68, 64
2, 3718, Note_off_c, 0, 41, 64
2, 3894, Note_on_c, 0, 53, 29
2, 3897, Note_on_c, 0, 63, 29
2, 3911, Control_c, 0, 64, 0
2, 3923, Control_c, 0, 64, 0
2, 3933, Control_c, 0, 64, 127
2, 3945, Control_c, 0, 64, 127
2, 3982, Note_off_c, 0, 53, 64
2, 3985, Note_off_c, 0, 63, 64
2, 4030, Note_on_c, 0, 69, 53
2, 4037, Note_off_c, 0, 73, 64
2, 4149, Note_on_c, 0, 53, 46
2, 4151, Note_on_c, 0, 63, 46
2, 4152, Note_on_c, 0, 73, 50
2, 4159, Note_off_c, 0, 69, 64
2, 4237, Note_off_c, 0, 53, 64
2, 4239, Note_off_c, 0, 63, 64
2, 4264, Note_on_c, 0, 69, 44
2, 4287, Note_off_c, 0, 73, 64
2, 4316, Note_off_c, 0, 69, 64
2, 4357, Note_on_c, 0, 69, 54
2, 4363, Note_on_c, 0, 46, 49
2, 4375, Control_c, 0, 64, 0
2, 4387, Control_c, 0, 64, 0
2, 4418, Control_c, 0, 64, 127
2, 4430, Control_c, 0, 64, 127
2, 4511, Note_on_c, 0, 70, 53
2, 4528, Note_off_c, 0, 46, 64
2, 4531, Note_off_c, 0, 69, 64
2, 4544, Note_off_c, 0, 70, 64
2, 4572, Note_on_c, 0, 53, 53
2, 4574, Control_c, 0, 64, 0
2, 4577, Note_on_c, 0, 61, 39
2, 4581, Note_on_c, 0, 70, 65
2, 4586, Control_c, 0, 64, 0
2, 4622, Control_c, 0, 64, 127
2, 4634, Control_c, 0, 64, 127
2, 4660, Note_off_c, 0, 53, 64
2, 4665, Note_off_c, 0, 61, 64
2, 4758, Note_off_c, 0, 70, 64
2, 4790, Note_on_c, 0, 70, 58
2, 4793, Note_on_c, 0, 61, 49
2, 4800, Note_on_c, 0, 51, 40
2, 4801, Note_on_c, 0, 55, 40
2, 4807, Control_c, 0, 64, 0
2, 4819, Control_c, 0, 64, 0
2, 4841, Control_c, 0, 64, 127
2, 4853, Control_c, 0, 64, 127
2, 4881, Note_off_c, 0, 61, 64
2, 4888, Note_off_c, 0, 51, 64
2, 4889, Note_off_c, 0, 55, 64
2, 5004, Note_off_c, 0, 70, 64
2, 5006, Note_on_c, 0, 77, 58
2, 5006, Note_on_c, 0, 44, 49
2, 5016, Control_c, 0, 64, 0
2, 5028, Control_c, 0, 64, 0
2, 5059, Control_c, 0, 64, 127
2, 5071, Control_c, 0, 64, 127
2, 5171, Note_off_c, 0, 44, 64
2, 5234, Note_on_c, 0, 66, 46
2, 5240, Control_c, 0, 64, 0
2, 5240, Note_on_c, 0, 56, 54
2, 5252, Control_c, 0, 64, 0
2, 5262, Control_c, 0, 64, 127
2, 5274, Control_c, 0, 64, 127
2, 5308, Note_off_c, 0, 77, 64
2, 5322, Note_off_c, 0, 66, 64
2, 5328, Note_off_c, 0, 56, 64
2, 5338, Note_on_c, 0, 72, 59
2, 5436, Note_on_c, 0, 66, 49
2, 5445, Note_on_c, 0, 77, 59
2, 5448, Control_c, 0, 64, 0
2, 5451, Note_on_c, 0, 56, 46
2, 5460, Control_c, 0, 64, 0
2, 5468, Note_off_c, 0, 72, 64
2, 5471, Control_c, 0, 64, 127
2, 5483, Control_c, 0, 64, 127
2, 5524, Note_off_c, 0, 66, 64
2, 5539, Note_off_c, 0, 56, 64
2, 5540, Note_on_c, 0, 72, 55
2, 5562, Note_off_c, 0, 77, 64
2, 5590, Note_off_c, 0, 72, 64
2, 5627, Note_on_c, 0, 49, 49
2, 5627, Control_c, 0, 64, 0
2, 5631, Note_on_c, 0, 72, 61
2, 5639, Control_c, 0, 64, 0
2, 5680, Control_c, 0, 64, 127
2, 5692, Control_c, 0, 64, 127
2, 5775, Note_on_c, 0, 73, 58
2, 5792, Note_off_c, 0, 49, 64
2, 5793, Note_off_c, 0, 72, 64
2, 5801, Note_off_c, 0, 73, 64
2, 5821, Note_on_c, 0, 56, 55
2, 5824, Note_on_c, 0, 73, 67
2, 5827, Control_c, 0, 64, 0
2, 5835, Note_on_c, 0, 65, 40
2, 5839, Control_c, 0, 64, 0
2, 5863, Control_c, 0, 64, 127
2, 5875, Control_c, 0, 64, 127
2, 5909, Note_off_c, 0, 56, 64
2, 5923, Note_off_c, 0, 65, 64
2, 6001, Note_off_c, 0, 73, 64
2, 6032, Note_on_c, 0, 73, 70
2, 6036, Control_c, 0, 64, 0
2, 6039, Note_on_c, 0, 65, 46
2, 6041, Note_on_c, 0, 58, 53
2, 6045, Note_on_c, 0, 55, 35
2, 6048, Control_c, 0, 64, 0
2, 6075, Control_c, 0, 64, 127
2, 6087, Control_c, 0, 64, 127
2, 6127, Note_off_c, 0, 65, 64
2, 6129, Note_off_c, 0, 58, 64
2, 6133, Note_off_c, 0, 55, 64
2, 6239, Note_on_c, 0, 80, 67
2, 6239, Note_on_c, 0, 48, 59
2, 6251, Control_c, 0, 64, 0
2, 6253, Note_off_c, 0, 73, 64
2, 6263, Control_c, 0, 64, 0
2, 6285, Control_c, 0, 64, 127
2, 6297, Control_c, 0, 64, 127
2, 6404, Note_off_c, 0, 48, 64
2, 6449, Note_on_c, 0, 70, 53
2, 6449, Note_on_c, 0, 60, 33
2, 6452, Note_on_c, 0, 65, 53
2, 6458, Control_c, 0, 64, 0
2, 6470, Control_c, 0, 64, 0
2, 6500, Control_c, 0, 64, 127
2, 6512, Control_c, 0, 64, 127
2, 6537, Note_off_c, 0, 60, 64
2, 6537, Note_off_c, 0, 70, 64
2, 6540, Note_off_c, 0, 65, 64
2, 6540, Note_off_c, 0, 80, 64
2, 6540, Note_on_c, 0, 76, 61
2, 6639, Note_on_c, 0, 80, 63
2, 6645, Note_on_c, 0, 60, 50
2, 6649, Note_on_c, 0, 70, 58
2, 6650, Note_off_c, 0, 76, 64
2, 6660, Note_on_c, 0, 67, 54
2, 6733, Note_off_c, 0, 60, 64
2, 6737, Note_off_c, 0, 70, 64
2, 6738, Note_on_c, 0, 76, 59
2, 6748, Note_off_c, 0, 67, 64
2, 6759, Note_off_c, 0, 80, 64
2, 6787, Note_off_c, 0, 76, 64
2, 6827, Note_on_c, 0, 76, 67
2, 6833, Note_on_c, 0, 53, 55
2, 6836, Control_c, 0, 64, 0
2, 6848, Control_c, 0, 64, 0
2, 6888, Control_c, 0, 64, 127
2, 6900, Control_c, 0, 64, 127
2, 6975, Note_on_c, 0, 77, 65
2, 6985, Note_off_c, 0, 76, 64
2, 7002, Note_off_c, 0, 77, 64
2, 7026, Note_on_c, 0, 77, 70
2, 7031, Note_on_c, 0, 68, 53
2, 7033, Note_on_c, 0, 60, 54
2, 7119, Note_off_c, 0, 68, 64
2, 7121, Note_off_c, 0, 60, 64
2, 7203, Note_off_c, 0, 77, 64
2, 7231, Note_on_c, 0, 77, 65
2, 7234, Note_on_c, 0, 89, 67
2, 7236, Note_on_c, 0, 68, 46
2, 7238, Note_off_c, 0, 53, 64
2, 7242, Note_on_c, 0, 60, 46
2, 7324, Note_off_c, 0, 68, 64
2, 7330, Note_off_c, 0, 60, 64
2, 7424, Note_on_c, 0, 81, 68
2, 7426, Control_c, 0, 64, 0
2, 7430, Note_on_c, 0, 41, 58
2, 7438, Control_c, 0, 64, 0
2, 7465, Control_c, 0, 64, 127
2, 7477, Control_c, 0, 64, 127
2, 7542, Note_off_c, 0, 89, 64
2, 7560, Note_off_c, 0, 77, 64
2, 7568, Note_on_c, 0, 90, 70
2, 7574, Note_on_c, 0, 78, 70
2, 7595, Note_off_c, 0, 41, 64
2, 7598, Note_off_c, 0, 78, 64
2, 7598, Note_off_c, 0, 90, 64
2, 7621, Note_on_c, 0, 69, 59
2, 7622, Note_on_c, 0, 90, 70
2, 7622, Note_on_c, 0, 78, 70
2, 7624, Control_c, 0, 64, 0
2, 7630, Note_on_c, 0, 60, 55
2, 7636, Control_c, 0, 64, 0
2, 7638, Control_c, 0, 64, 127
2, 7650, Note_off_c, 0, 81, 64
2, 7650, Control_c, 0, 64, 127
2, 7709, Note_off_c, 0, 69, 64
2, 7718, Note_off_c, 0, 60, 64
2, 7781, Note_off_c, 0, 90, 64
2, 7787, Note_off_c, 0, 78, 64
2, 7817, Note_on_c, 0, 69, 70
2, 7820, Note_on_c, 0, 72, 33
2, 7828, Note_on_c, 0, 63, 39
2, 7908, Note_off_c, 0, 72, 64
2, 7916, Note_off_c, 0, 63, 64
2, 8037, Note_on_c, 0, 84, 53
2, 8040, Note_on_c, 0, 72, 46
2, 8040, Note_on_c, 0, 46, 49
2, 8052, Control_c, 0, 64, 0
2, 8064, Control_c, 0, 64, 0
2, 8069, Note_off_c, 0, 69, 64
2, 8084, Control_c, 0, 64, 127
2, 8096, Control_c, 0, 64, 127
2, 8205, Note_off_c, 0, 46, 64
2, 8213, Note_off_c, 0, 84, 64
2, 8243, Note_off_c, 0, 72, 64
2, 8243, Note_on_c, 0, 61, 29
2, 8253, Note_on_c, 0, 53, 36
2, 8331, Note_off_c, 0, 61, 64
2, 8339, Note_on_c, 0, 82, 33
2, 8341, Note_off_c, 0, 53, 64
2, 8347, Note_on_c, 0, 70, 49
2, 8374, Note_off_c, 0, 82, 64
2, 8440, Note_on_c, 0, 68, 58
2, 8452, Note_off_c, 0, 70, 64
2, 8453, Note_on_c, 0, 53, 44
2, 8459, Note_on_c, 0, 61, 33
2, 8522, Note_on_c, 0, 66, 55
2, 8530, Note_off_c, 0, 68, 64
2, 8541, Note_off_c, 0, 53, 64
2, 8547, Note_off_c, 0, 61, 64
2, 8626, Note_on_c, 0, 73, 49
2, 8630, Control_c, 0, 64, 0
2, 8632, Note_on_c, 0, 65, 44
2, 8634, Note_off_c, 0, 66, 64
2, 8634, Note_on_c, 0, 46, 44
2, 8642, Control_c, 0, 64, 0
2, 8685, Control_c, 0, 64, 127
2, 8697, Control_c, 0, 64, 127
2, 8799, Note_off_c, 0, 46, 64
2, 8832, Note_on_c, 0, 63, 33
2, 8832, Note_on_c, 0, 53, 40
2, 8833, Control_c, 0, 64, 0
2, 8845, Control_c, 0, 64, 0
2, 8875, Control_c, 0, 64, 127
2, 8887, Control_c, 0, 64, 127
2, 8913, Note_off_c, 0, 73, 64
2, 8920, Note_off_c, 0, 53, 64
2, 8920, Note_off_c, 0, 63, 64
2, 8923, Note_on_c, 0, 69, 40
2, 8926, Note_on_c, 0, 66, 36
2, 8953, Note_off_c, 0, 65, 64
2, 9024, Note_on_c, 0, 63, 40
2, 9031, Note_on_c, 0, 65, 49
2, 9032, Note_on_c, 0, 53, 45
2, 9041, Note_on_c, 0, 73, 49
2, 9048, Note_off_c, 0, 69, 64
2, 9051, Note_off_c, 0, 66, 64
2, 9092, Note_off_c, 0, 63, 64
2, 9100, Note_off_c, 0, 65, 64
2, 9119, Note_on_c, 0, 69, 49
2, 9120, Note_off_c, 0, 53, 64
2, 9131, Note_on_c, 0, 63, 46
2, 9138, Note_off_c, 0, 73, 64
2, 9174, Note_off_c, 0, 63, 64
2, 9183, Note_off_c, 0, 69, 64
2, 9212, Note_on_c, 0, 63, 49
2, 9216, Note_on_c, 0, 69, 49
2, 9217, Control_c, 0, 64, 0
2, 9223, Note_on_c, 0, 46, 44
2, 9229, Control_c, 0, 64, 0
2, 9273, Control_c, 0, 64, 127
2, 9285, Control_c, 0, 64, 127
2, 9310, Note_off_c, 0, 63, 64
2, 9314, Note_off_c, 0, 69, 64
2, 9345, Note_on_c, 0, 70, 49
2, 9352, Note_on_c, 0, 61, 55
2, 9378, Note_off_c, 0, 61, 64
2, 9378, Note_off_c, 0, 70, 64
2, 9388, Note_off_c, 0, 46, 64
2, 9398, Note_on_c, 0, 70, 58
2, 9403, Control_c, 0, 64, 0
2, 9404, Note_on_c, 0, 61, 53
2, 9412, Note_on_c, 0, 58, 44
2, 9415, Control_c, 0, 64, 0
2, 9421, Note_on_c, 0, 53, 49
2, 9445, Control_c, 0, 64, 127
2, 9457, Control_c, 0, 64, 127
2, 9500, Note_off_c, 0, 58, 64
2, 9509, Note_off_c, 0, 53, 64
2, 9535, Note_off_c, 0, 70, 64
2, 9541, Note_off_c, 0, 61, 64
2, 9588, Note_on_c, 0, 67, 50
2, 9597, Note_on_c, 0, 70, 59
2, 9599, Control_c, 0, 64, 0
2, 9603, Note_on_c, 0, 61, 46
2, 9611, Note_on_c, 0, 51, 49
2, 9611, Control_c, 0, 64, 0
2, 9645, Control_c, 0, 64, 127
2, 9657, Control_c, 0, 64, 127
2, 9691, Note_off_c, 0, 61, 64
2, 9699, Note_off_c, 0, 51, 64
2, 9767, Note_off_c, 0, 67, 64
2, 9776, Note_off_c, 0, 70, 64
2, 9799, Note_on_c, 0, 77, 53
2, 9801, Note_on_c, 0, 68, 55
2, 9807, Note_on_c, 0, 44, 49
2, 9810, Control_c, 0, 64, 0
2, 9822, Control_c, 0, 64, 0
2, 9864, Control_c, 0, 64, 127
2, 9876, Control_c, 0, 64, 127
2, 9972, Note_off_c, 0, 44, 64
2, 9997, Note_on_c, 0, 56, 45
2, 10001, Control_c, 0, 64, 0
2, 10001, Note_on_c, 0, 66, 40
2, 10013, Control_c, 0, 64, 0
2, 10042, Note_off_c, 0, 68, 64
2, 10044, Control_c, 0, 64, 127
2, 10056, Control_c, 0, 64, 127
2, 10069, Note_off_c, 0, 77, 64
2, 10078, Note_on_c, 0, 72, 49
2, 10085, Note_off_c, 0, 56, 64
2, 10085, Note_on_c, 0, 69, 45
2, 10089, Note_off_c, 0, 66, 64
2, 10182, Note_on_c, 0, 68, 53
2, 10182, Note_on_c, 0, 66, 46
2, 10186, Note_on_c, 0, 77, 53
2, 10186, Note_on_c, 0, 56, 49
2, 10192, Control_c, 0, 64, 0
2, 10193, Note_off_c, 0, 69, 64
2, 10204, Control_c, 0, 64, 0
2, 10209, Note_off_c, 0, 72, 64
2, 10215, Control_c, 0, 64, 127
2, 10227, Control_c, 0, 64, 127
2, 10270, Note_off_c, 0, 66, 64
2, 10273, Note_on_c, 0, 72, 53
2, 10274, Note_off_c, 0, 56, 64
2, 10289, Note_off_c, 0, 68, 64
2, 10293, Note_off_c, 0, 77, 64
2, 10296, Note_on_c, 0, 66, 58
2, 10309, Note_off_c, 0, 72, 64
2, 10326, Note_off_c, 0, 66, 64
2, 10352, Note_on_c, 0, 72, 53
2, 10356, Control_c, 0, 64, 0
2, 10356, Note_on_c, 0, 66, 53
2, 10360, Note_on_c, 0, 49, 46
2, 10368, Control_c, 0, 64, 0
2, 10401, Control_c, 0, 64, 127
2, 10413, Control_c, 0, 64, 127
2, 10421, Note_off_c, 0, 72, 64
2, 10425, Note_off_c, 0, 66, 64
2, 10477, Note_on_c, 0, 73, 49
2, 10481, Note_on_c, 0, 65, 53
2, 10501, Note_off_c, 0, 65, 64
2, 10501, Note_off_c, 0, 73, 64
2, 10518, Control_c, 0, 64, 0
2, 10523, Note_on_c, 0, 73, 65
2, 10523, Note_on_c, 0, 65, 58
2, 10525, Note_off_c, 0, 49, 64
2, 10530, Control_c, 0, 64, 0
2, 10537, Note_on_c, 0, 61, 49
2, 10539, Note_on_c, 0, 56, 49
2, 10581, Control_c, 0, 64, 127
2, 10593, Control_c, 0, 64, 127
2, 10625, Note_off_c, 0, 61, 64
2, 10627, Note_off_c, 0, 56, 64
2, 10668, Note_off_c, 0, 65, 64
2, 10668, Note_off_c, 0, 73, 64
2, 10721, Note_on_c, 0, 73, 63
2, 10721, Note_on_c, 0, 71, 58
2, 10724, Note_on_c, 0, 55, 49
2, 10728, Note_on_c, 0, 65, 44
2, 10729, Control_c, 0, 64, 0
2, 10741, Control_c, 0, 64, 0
2, 10768, Control_c, 0, 64, 127
2, 10780, Control_c, 0, 64, 127
2, 10812, Note_off_c, 0, 55, 64
2, 10816, Note_off_c, 0, 65, 64
2, 10917, Note_on_c, 0, 80, 61
2, 10918, Control_c, 0, 64, 0
2, 10923, Note_on_c, 0, 72, 58
2, 10923, Note_on_c, 0, 48, 54
2, 10930, Control_c, 0, 64, 0
2, 10934, Note_off_c, 0, 71, 64
2, 10934, Note_off_c, 0, 73, 64
2, 10966, Control_c, 0, 64, 127
2, 10978, Control_c, 0, 64, 127
2, 11088, Note_off_c, 0, 48, 64
2, 11112, Control_c, 0, 64, 0
2, 11116, Note_on_c, 0, 60, 55
2, 11120, Note_on_c, 0, 70, 44
2, 11124, Control_c, 0, 64, 0
2, 11154, Control_c, 0, 64, 127
2, 11166, Control_c, 0, 64, 127
2, 11196, Note_on_c, 0, 76, 53
2, 11198, Note_off_c, 0, 80, 64
2, 11198, Note_on_c, 0, 73, 53
2, 11204, Note_off_c, 0, 60, 64
2, 11205, Note_off_c, 0, 72, 64
2, 11208, Note_off_c, 0, 70, 64
2, 11286, Note_on_c, 0, 70, 54
2, 11290, Note_on_c, 0, 60, 55
2, 11296, Note_on_c, 0, 72, 59
2, 11297, Note_on_c, 0, 80, 55
2, 11302, Note_off_c, 0, 73, 64
2, 11320, Note_off_c, 0, 76, 64
2, 11374, Note_off_c, 0, 70, 64
2, 11378, Note_off_c, 0, 60, 64
2, 11380, Note_on_c, 0, 76, 55
2, 11382, Note_on_c, 0, 70, 55
2, 11383, Note_off_c, 0, 72, 64
2, 11385, Note_off_c, 0, 80, 64
2, 11423, Note_off_c, 0, 70, 64
2, 11430, Note_off_c, 0, 76, 64
2, 11467, Note_on_c, 0, 76, 53
2, 11469, Note_on_c, 0, 70, 55
2, 11472, Control_c, 0, 64, 0
2, 11476, Note_on_c, 0, 53, 55
2, 11484, Control_c, 0, 64, 0
2, 11517, Control_c, 0, 64, 127
2, 11529, Control_c, 0, 64, 127
2, 11596, Note_on_c, 0, 77, 58
2, 11598, Note_on_c, 0, 69, 55
2, 11602, Note_off_c, 0, 76, 64
2, 11604, Note_off_c, 0, 70, 64
2, 11622, Note_off_c, 0, 69, 64
2, 11623, Note_off_c, 0, 77, 64
2, 11641, Note_off_c, 0, 53, 64
2, 11642, Note_on_c, 0, 69, 58
2, 11644, Note_on_c, 0, 77, 67
2, 11656, Note_on_c, 0, 65, 49
2, 11658, Note_on_c, 0, 60, 58
2, 11744, Note_off_c, 0, 65, 64
2, 11746, Note_off_c, 0, 60, 64
2, 11779, Note_off_c, 0, 69, 64
2, 11796, Note_on_c, 0, 53, 65
2, 11802, Note_off_c, 0, 77, 64
2, 11812, Note_on_c, 0, 60, 58
2, 11833, Note_on_c, 0, 89, 70
2, 11836, Note_on_c, 0, 77, 63
2, 11842, Note_on_c, 0, 69, 55
2, 11997, Note_off_c, 0, 77, 64
2, 12012, Note_off_c, 0, 53, 64
2, 12017, Note_off_c, 0, 89, 64
2, 12024, Control_c, 0, 64, 0
2, 12036, Note_on_c, 0, 41, 65
2, 12036, Control_c, 0, 64, 0
2, 12038, Note_off_c, 0, 60, 64
2, 12045, Note_on_c, 0, 92, 70
2, 12048, Note_on_c, 0, 80, 70
2, 12064, Control_c, 0, 64, 127
2, 12064, Control_c, 0, 64, 0
2, 12076, Control_c, 0, 64, 127
2, 12076, Control_c, 0, 64, 0
2, 12081, Note_off_c, 0, 69, 64
2, 12109, Control_c, 0, 64, 127
2, 12121, Control_c, 0, 64, 127
2, 12172, Note_off_c, 0, 92, 64
2, 12173, Note_on_c, 0, 90, 70
2, 12175, Note_off_c, 0, 80, 64
2, 12176, Note_on_c, 0, 78, 70
2, 12196, Note_off_c, 0, 78, 64
2, 12196, Note_off_c, 0, 90, 64
2, 12225, Note_on_c, 0, 90, 70
2, 12228, Note_on_c, 0, 78, 70
2, 12239, Note_on_c, 0, 69, 55
2, 12241, Note_on_c, 0, 72, 59
2, 12246, Note_on_c, 0, 60, 53
2, 12251, Note_on_c, 0, 63, 54
2, 12378, Note_off_c, 0, 69, 64
2, 12385, Note_off_c, 0, 60, 64
2, 12390, Note_off_c, 0, 63, 64
2, 12430, Note_off_c, 0, 90, 64
2, 12436, Note_on_c, 0, 69, 70
2, 12438, Note_on_c, 0, 53, 44
2, 12439, Note_off_c, 0, 41, 64
2, 12444, Note_on_c, 0, 63, 40
2, 12448, Note_on_c, 0, 60, 36
2, 12454, Note_off_c, 0, 78, 64
2, 12467, Note_off_c, 0, 72, 64
2, 12577, Note_off_c, 0, 53, 64
2, 12583, Note_off_c, 0, 63, 64
2, 12587, Note_off_c, 0, 60, 64
2, 12647, Note_on_c, 0, 70, 70
2, 12649, Note_on_c, 0, 46, 45
2, 12668, Control_c, 0, 64, 0
2, 12671, Note_off_c, 0, 69, 64
2, 12680, Control_c, 0, 64, 0
2, 12720, Control_c, 0, 64, 127
2, 12732, Control_c, 0, 64, 127
2, 12867, Note_on_c, 0, 53, 39
2, 12869, Note_on_c, 0, 61, 31
2, 12873, Control_c, 0, 64, 0
2, 12885, Control_c, 0, 64, 0
2, 12912, Note_off_c, 0, 46, 64
2, 12917, Control_c, 0, 64, 127
2, 12929, Control_c, 0, 64, 127
2, 12955, Note_off_c, 0, 53, 64
2, 12957, Note_off_c, 0, 61, 64
2, 13068, Note_on_c, 0, 51, 33
2, 13073, Note_on_c, 0, 61, 49
2, 13076, Note_on_c, 0, 54, 26
2, 13090, Control_c, 0, 64, 0
2, 13102, Control_c, 0, 64, 0
2, 13116, Control_c, 0, 64, 127
2, 13128, Control_c, 0, 64, 127
2, 13156, Note_off_c, 0, 51, 64
2, 13161, Note_off_c, 0, 61, 64
2, 13164, Note_off_c, 0, 54, 64
2, 13273, Control_c, 0, 64, 0
2, 13277, Note_on_c, 0, 44, 46
2, 13285, Control_c, 0, 64, 0
2, 13328, Control_c, 0, 64, 127
2, 13340, Control_c, 0, 64, 127
2, 13388, Note_on_c, 0, 68, 44
2, 13392, Note_on_c, 0, 66, 36
2, 13404, Note_off_c, 0, 70, 64
2, 13425, Control_c, 0, 64, 0
2, 13437, Control_c, 0, 64, 0
2, 13442, Note_off_c, 0, 44, 64
2, 13444, Note_on_c, 0, 56, 39
2, 13446, Note_on_c, 0, 60, 54
2, 13448, Note_on_c, 0, 51, 46
2, 13473, Note_off_c, 0, 68, 64
2, 13477, Note_off_c, 0, 66, 64
2, 13483, Control_c, 0, 64, 127
2, 13495, Control_c, 0, 64, 127
2, 13532, Note_off_c, 0, 56, 64
2, 13534, Note_off_c, 0, 60, 64
2, 13536, Note_off_c, 0, 51, 64
2, 13552, Note_on_c, 0, 66, 55
2, 13555, Note_on_c, 0, 68, 55
2, 13637, Control_c, 0, 64, 0
2, 13645, Note_off_c, 0, 66, 64
2, 13646, Note_on_c, 0, 75, 61
2, 13649, Control_c, 0, 64, 0
2, 13655, Note_on_c, 0, 56, 49
2, 13655, Note_on_c, 0, 51, 46
2, 13659, Note_on_c, 0, 60, 46
2, 13663, Note_off_c, 0, 68, 64
2, 13681, Control_c, 0, 64, 127
2, 13693, Control_c, 0, 64, 127
2, 13743, Note_off_c, 0, 51, 64
2, 13743, Note_off_c, 0, 56, 64
2, 13747, Note_off_c, 0, 60, 64
2, 13812, Note_off_c, 0, 75, 64
2, 13827, Note_on_c, 0, 37, 55
2, 13830, Control_c, 0, 64, 0
2, 13830, Note_on_c, 0, 70, 49
2, 13842, Control_c, 0, 64, 0
2, 13879, Control_c, 0, 64, 127
2, 13891, Control_c, 0, 64, 127
2, 13948, Note_on_c, 0, 65, 35
2, 13950, Note_on_c, 0, 68, 40
2, 13952, Note_off_c, 0, 70, 64
2, 13990, Control_c, 0, 64, 0
2, 13992, Note_off_c, 0, 37, 64
2, 14002, Control_c, 0, 64, 0
2, 14008, Note_on_c, 0, 61, 58
2, 14012, Note_on_c, 0, 56, 46
2, 14012, Note_on_c, 0, 53, 46
2, 14033, Note_off_c, 0, 65, 64
2, 14035, Note_off_c, 0, 68, 64
2, 14043, Control_c, 0, 64, 127
2, 14055, Control_c, 0, 64, 127
2, 14092, Note_on_c, 0, 65, 61
2, 14096, Note_off_c, 0, 61, 64
2, 14099, Note_on_c, 0, 68, 40
2, 14100, Note_off_c, 0, 53, 64
2, 14100, Note_off_c, 0, 56, 64
2, 14189, Control_c, 0, 64, 0
2, 14191, Note_on_c, 0, 77, 65
2, 14196, Note_on_c, 0, 61, 46
2, 14201, Control_c, 0, 64, 0
2, 14205, Note_on_c, 0, 56, 45
2, 14205, Note_on_c, 0, 53, 46
2, 14209, Note_off_c, 0, 65, 64
2, 14216, Note_off_c, 0, 68, 64
2, 14233, Control_c, 0, 64, 127
2, 14245, Control_c, 0, 64, 127
2, 14284, Note_off_c, 0, 61, 64
2, 14293, Note_off_c, 0, 53, 64
2, 14293, Note_off_c, 0, 56, 64
2, 14358, Note_off_c, 0, 77, 64
2, 14375, Note_on_c, 0, 70, 49
2, 14378, Control_c, 0, 64, 0
2, 14382, Note_on_c, 0, 44, 50
2, 14390, Control_c, 0, 64, 0
2, 14426, Control_c, 0, 64, 127
2, 14438, Control_c, 0, 64, 127
2, 14500, Note_on_c, 0, 66, 40
2, 14501, Note_on_c, 0, 68, 40
2, 14524, Note_off_c, 0, 70, 64
2, 14538, Control_c, 0, 64, 0
2, 14547, Note_off_c, 0, 44, 64
2, 14548, Note_on_c, 0, 56, 46
2, 14548, Note_on_c, 0, 51, 49
2, 14550, Control_c, 0, 64, 0
2, 14552, Note_on_c, 0, 60, 39
2, 14571, Control_c, 0, 64, 127
2, 14583, Control_c, 0, 64, 127
2, 14585, Note_off_c, 0, 66, 64
2, 14586, Note_off_c, 0, 68, 64
2, 14636, Note_off_c, 0, 51, 64
2, 14636, Note_off_c, 0, 56, 64
2, 14640, Note_off_c, 0, 60, 64
2, 14652, Note_on_c, 0, 68, 53
2, 14652, Note_on_c, 0, 66, 58
2, 14728, Note_on_c, 0, 78, 70
2, 14742, Note_on_c, 0, 51, 39
2, 14744, Note_on_c, 0, 60, 44
2, 14745, Note_on_c, 0, 56, 49
2, 14766, Note_off_c, 0, 66, 64
2, 14766, Note_off_c, 0, 68, 64
2, 14830, Note_off_c, 0, 51, 64
2, 14832, Note_off_c, 0, 60, 64
2, 14833, Note_off_c, 0, 56, 64
2, 14860, Note_on_c, 0, 73, 55
2, 14860, Note_on_c, 0, 71, 55
2, 14863, Note_on_c, 0, 65, 50
2, 14895, Note_off_c, 0, 78, 64
2, 14918, Note_on_c, 0, 49, 40
2, 14920, Control_c, 0, 64, 0
2, 14921, Note_on_c, 0, 82, 83
2, 14932, Control_c, 0, 64, 0
2, 14975, Control_c, 0, 64, 127
2, 14987, Control_c, 0, 64, 127
2, 15011, Note_off_c, 0, 71, 64
2, 15011, Note_off_c, 0, 73, 64
2, 15014, Note_off_c, 0, 65, 64
2, 15083, Note_off_c, 0, 49, 64
2, 15092, Note_on_c, 0, 65, 44
2, 15095, Note_on_c, 0, 56, 40
2, 15099, Note_on_c, 0, 59, 45
2, 15100, Control_c, 0, 64, 0
2, 15112, Control_c, 0, 64, 0
2, 15133, Control_c, 0, 64, 127
2, 15145, Control_c, 0, 64, 127
2, 15180, Note_off_c, 0, 65, 64
2, 15183, Note_off_c, 0, 56, 64
2, 15187, Note_off_c, 0, 59, 64
2, 15228, Note_on_c, 0, 80, 40
2, 15264, Note_off_c, 0, 82, 64
2, 15264, Note_on_c, 0, 71, 50
2, 15269, Control_c, 0, 64, 0
2, 15278, Note_on_c, 0, 50, 49
2, 15281, Control_c, 0, 64, 0
2, 15324, Control_c, 0, 64, 127
2, 15336, Control_c, 0, 64, 127
2, 15351, Note_off_c, 0, 80, 64
2, 15362, Note_off_c, 0, 71, 64
2, 15401, Note_on_c, 0, 80, 50
2, 15434, Control_c, 0, 64, 0
2, 15438, Note_on_c, 0, 70, 61
2, 15441, Note_on_c, 0, 51, 55
2, 15443, Note_off_c, 0, 50, 64
2, 15446, Control_c, 0, 64, 0
2, 15480, Control_c, 0, 64, 127
2, 15492, Control_c, 0, 64, 127
2, 15527, Note_off_c, 0, 80, 64
2, 15551, Note_off_c, 0, 70, 64
2, 15577, Note_on_c, 0, 80, 55
2, 15606, Note_off_c, 0, 51, 64
2, 15607, Note_on_c, 0, 70, 58
2, 15608, Note_on_c, 0, 63, 46
2, 15609, Note_on_c, 0, 58, 44
2, 15609, Note_on_c, 0, 54, 41
2, 15687, Note_off_c, 0, 80, 64
2, 15696, Note_off_c, 0, 63, 64
2, 15697, Note_off_c, 0, 54, 64
2, 15697, Note_off_c, 0, 58, 64
2, 15698, Note_off_c, 0, 70, 64
2, 15717, Note_on_c, 0, 80, 54
2, 15761, Control_c, 0, 64, 0
2, 15768, Note_on_c, 0, 42, 49
2, 15770, Note_on_c, 0, 70, 55
2, 15773, Control_c, 0, 64, 0
2, 15818, Control_c, 0, 64, 127
2, 15830, Control_c, 0, 64, 127
2, 15852, Note_off_c, 0, 70, 64
2, 15884, Note_on_c, 0, 78, 49
2, 15888, Note_off_c, 0, 80, 64
2, 15929, Note_on_c, 0, 69, 55
2, 15931, Control_c, 0, 64, 0
2, 15932, Note_on_c, 0, 44, 55
2, 15933, Note_off_c, 0, 42, 64
2, 15943, Control_c, 0, 64, 0
2, 15977, Control_c, 0, 64, 127
2, 15989, Control_c, 0, 64, 127
2, 16042, Note_off_c, 0, 69, 64
2, 16043, Note_off_c, 0, 78, 64
2, 16064, Note_on_c, 0, 78, 40
2, 16096, Note_on_c, 0, 61, 53
2, 16097, Note_off_c, 0, 44, 64
2, 16098, Note_on_c, 0, 68, 65
2, 16100, Note_on_c, 0, 53, 45
2, 16103, Control_c, 0, 64, 0
2, 16115, Control_c, 0, 64, 0
2, 16125, Control_c, 0, 64, 127
2, 16137, Control_c, 0, 64, 127
2, 16184, Note_off_c, 0, 61, 64
2, 16188, Note_off_c, 0, 53, 64
2, 16193, Note_off_c, 0, 78, 64
2, 16208, Note_off_c, 0, 68, 64
2, 16212, Note_on_c, 0, 78, 53
2, 16270, Note_on_c, 0, 68, 63
2, 16270, Note_on_c, 0, 61, 53
2, 16272, Note_on_c, 0, 53, 49
2, 16349, Note_off_c, 0, 78, 64
2, 16358, Note_off_c, 0, 61, 64
2, 16360, Note_off_c, 0, 53, 64
2, 16382, Note_off_c, 0, 68, 64
2, 16391, Note_on_c, 0, 77, 55
2, 16435, Control_c, 0, 64, 0
2, 16437, Note_on_c, 0, 67, 55
2, 16444, Note_on_c, 0, 44, 50
2, 16447, Control_c, 0, 64, 0
2, 16478, Control_c, 0, 64, 127
2, 16490, Control_c, 0, 64, 127
2, 16495, Note_off_c, 0, 77, 64
2, 16542, Note_off_c, 0, 67, 64
2, 16542, Note_on_c, 0, 77, 50
2, 16592, Control_c, 0, 64, 0
2, 16598, Note_on_c, 0, 66, 63
2, 16600, Note_on_c, 0, 60, 53
2, 16600, Note_on_c, 0, 56, 40
2, 16603, Note_on_c, 0, 51, 49
2, 16604, Control_c, 0, 64, 0
2, 16609, Note_off_c, 0, 44, 64
2, 16612, Control_c, 0, 64, 127
2, 16624, Control_c, 0, 64, 127
2, 16671, Note_off_c, 0, 77, 64
2, 16688, Note_off_c, 0, 56, 64
2, 16688, Note_off_c, 0, 60, 64
2, 16691, Note_off_c, 0, 51, 64
2, 16704, Note_off_c, 0, 66, 64
2, 16707, Note_on_c, 0, 77, 58
2, 16776, Note_on_c, 0, 60, 58
2, 16776, Note_on_c, 0, 56, 33
2, 16776, Note_on_c, 0, 51, 40
2, 16778, Note_on_c, 0, 66, 58
2, 16864, Note_off_c, 0, 51, 64
2, 16864, Note_off_c, 0, 56, 64
2, 16864, Note_off_c, 0, 60, 64
2, 16878, Note_off_c, 0, 77, 64
2, 16880, Note_on_c, 0, 75, 58
2, 16897, Note_off_c, 0, 66, 64
2, 16943, Control_c, 0, 64, 0
2, 16944, Note_on_c, 0, 65, 58
2, 16946, Note_on_c, 0, 49, 55
2, 16955, Control_c, 0, 64, 0
2, 16997, Control_c, 0, 64, 127
2, 17009, Control_c, 0, 64, 127
2, 17022, Note_off_c, 0, 75, 64
2, 17056, Note_on_c, 0, 75, 40
2, 17104, Note_off_c, 0, 65, 64
2, 17111, Note_off_c, 0, 49, 64
2, 17124, Note_on_c, 0, 65, 58
2, 17128, Note_on_c, 0, 61, 46
2, 17128, Note_on_c, 0, 53, 40
2, 17131, Note_on_c, 0, 73, 63
2, 17132, Note_on_c, 0, 56, 39
2, 17136, Note_off_c, 0, 75, 64
2, 17186, Note_on_c, 0, 75, 55
2, 17194, Note_off_c, 0, 73, 64
2, 17207, Control_c, 0, 64, 0
2, 17216, Note_off_c, 0, 53, 64
2, 17216, Note_off_c, 0, 61, 64
2, 17219, Control_c, 0, 64, 0
2, 17220, Note_off_c, 0, 56, 64
2, 17231, Note_on_c, 0, 73, 46
2, 17249, Note_off_c, 0, 75, 64
2, 17276, Note_on_c, 0, 43, 49
2, 17282, Note_on_c, 0, 72, 55
2, 17283, Note_on_c, 0, 64, 54
2, 17284, Note_off_c, 0, 65, 64
2, 17289, Control_c, 0, 64, 0
2, 17295, Note_off_c, 0, 73, 64
2, 17301, Control_c, 0, 64, 0
2, 17326, Control_c, 0, 64, 127
2, 17338, Control_c, 0, 64, 127
2, 17352, Note_off_c, 0, 72, 64
2, 17380, Note_on_c, 0, 70, 58
2, 17411, Note_off_c, 0, 64, 64
2, 17420, Note_off_c, 0, 70, 64
2, 17440, Control_c, 0, 64, 0
2, 17440, Note_on_c, 0, 60, 58
2, 17441, Note_off_c, 0, 43, 64
2, 17442, Note_on_c, 0, 70, 65
2, 17445, Note_on_c, 0, 44, 55
2, 17452, Control_c, 0, 64, 0
2, 17493, Control_c, 0, 64, 127
2, 17505, Control_c, 0, 64, 127
2, 17548, Note_on_c, 0, 66, 26
2, 17549, Note_on_c, 0, 68, 49
2, 17579, Note_off_c, 0, 60, 64
2, 17581, Note_off_c, 0, 70, 64
2, 17598, Control_c, 0, 64, 0
2, 17608, Note_on_c, 0, 51, 44
2, 17609, Note_on_c, 0, 60, 55
2, 17609, Note_on_c, 0, 56, 49
2, 17610, Note_off_c, 0, 44, 64
2, 17610, Control_c, 0, 64, 0
2, 17633, Note_off_c, 0, 66, 64
2, 17634, Note_off_c, 0, 68, 64
2, 17696, Note_off_c, 0, 51, 64
2, 17697, Note_off_c, 0, 56, 64
2, 17700, Note_on_c, 0, 68, 61
2, 17700, Note_on_c, 0, 66, 61
2, 17720, Note_off_c, 0, 60, 64
2, 17776, Note_on_c, 0, 75, 65
2, 17778, Control_c, 0, 64, 127
2, 17790, Control_c, 0, 64, 127
2, 17791, Note_off_c, 0, 66, 64
2, 17791, Note_off_c, 0, 68, 64
2, 17796, Note_on_c, 0, 60, 53
2, 17799, Note_on_c, 0, 56, 54
2, 17802, Note_on_c, 0, 51, 44
2, 17884, Note_off_c, 0, 60, 64
2, 17887, Note_off_c, 0, 56, 64
2, 17890, Note_off_c, 0, 51, 64
2, 17939, Note_off_c, 0, 75, 64
2, 17950, Control_c, 0, 64, 0
2, 17950, Note_on_c, 0, 70, 55
2, 17956, Note_on_c, 0, 37, 68
2, 17962, Control_c, 0, 64, 0
2, 18006, Control_c, 0, 64, 127
2, 18018, Control_c, 0, 64, 127
2, 18057, Note_on_c, 0, 68, 40
2, 18060, Note_on_c, 0, 65, 50
2, 18068, Note_off_c, 0, 70, 64
2, 18108, Note_on_c, 0, 56, 36
2, 18112, Control_c, 0, 64, 0
2, 18115, Note_on_c, 0, 61, 31
2, 18115, Note_on_c, 0, 53, 49
2, 18121, Note_off_c, 0, 37, 64
2, 18124, Control_c, 0, 64, 0
2, 18142, Note_off_c, 0, 68, 64
2, 18145, Note_off_c, 0, 65, 64
2, 18150, Control_c, 0, 64, 127
2, 18162, Control_c, 0, 64, 127
2, 18196, Note_off_c, 0, 56, 64
2, 18203, Note_off_c, 0, 53, 64
2, 18205, Note_on_c, 0, 68, 53
2, 18206, Note_on_c, 0, 65, 59
2, 18226, Note_off_c, 0, 61, 64
2, 18271, Control_c, 0, 64, 0
2, 18283, Control_c, 0, 64, 0
2, 18290, Note_off_c, 0, 68, 64
2, 18291, Note_off_c, 0, 65, 64
2, 18297, Note_on_c, 0, 77, 65
2, 18307, Note_on_c, 0, 61, 58
2, 18307, Note_on_c, 0, 56, 49
2, 18307, Note_on_c, 0, 53, 49
2, 18327, Control_c, 0, 64, 127
2, 18339, Control_c, 0, 64, 127
2, 18409, Note_off_c, 0, 56, 64
2, 18417, Note_off_c, 0, 53, 64
2, 18417, Note_off_c, 0, 61, 64
2, 18447, Control_c, 0, 64, 0
2, 18458, Note_off_c, 0, 77, 64
2, 18459, Control_c, 0, 64, 0
2, 18466, Note_on_c, 0, 70, 53
2, 18466, Note_on_c, 0, 44, 58
2, 18505, Control_c, 0, 64, 127
2, 18517, Control_c, 0, 64, 127
2, 18564, Note_on_c, 0, 68, 40
2, 18564, Note_on_c, 0, 66, 44
2, 18583, Note_off_c, 0, 70, 64
2, 18608, Control_c, 0, 64, 0
2, 18620, Control_c, 0, 64, 0
2, 18624, Note_on_c, 0, 60, 45
2, 18629, Note_on_c, 0, 56, 63
2, 18630, Note_on_c, 0, 51, 59
2, 18631, Note_off_c, 0, 44, 64
2, 18649, Note_off_c, 0, 66, 64
2, 18649, Note_off_c, 0, 68, 64
2, 18652, Control_c, 0, 64, 127
2, 18664, Control_c, 0, 64, 127
2, 18712, Note_off_c, 0, 60, 64
2, 18713, Note_on_c, 0, 68, 61
2, 18713, Note_on_c, 0, 66, 58
2, 18717, Note_off_c, 0, 56, 64
2, 18718, Note_off_c, 0, 51, 64
2, 18783, Control_c, 0, 64, 0
2, 18793, Note_on_c, 0, 78, 67
2, 18795, Control_c, 0, 64, 0
2, 18796, Note_on_c, 0, 60, 49
2, 18796, Note_on_c, 0, 56, 36
2, 18798, Note_off_c, 0, 66, 64
2, 18798, Note_off_c, 0, 68, 64
2, 18800, Note_on_c, 0, 51, 40
2, 18839, Control_c, 0, 64, 127
2, 18851, Control_c, 0, 64, 127
2, 18884, Note_off_c, 0, 56, 64
2, 18884, Note_off_c, 0, 60, 64
2, 18888, Note_off_c, 0, 51, 64
2, 18936, Note_on_c, 0, 73, 55
2, 18936, Note_on_c, 0, 71, 46
2, 18940, Note_on_c, 0, 65, 55
2, 18954, Note_off_c, 0, 78, 64
2, 18964, Control_c, 0, 64, 0
2, 18970, Note_on_c, 0, 49, 53
2, 18976, Control_c, 0, 64, 0
2, 18978, Note_on_c, 0, 82, 83
2, 19012, Control_c, 0, 64, 127
2, 19024, Control_c, 0, 64, 127
2, 19034, Note_off_c, 0, 65, 64
2, 19051, Note_off_c, 0, 71, 64
2, 19051, Note_off_c, 0, 73, 64
2, 19118, Control_c, 0, 64, 0
2, 19130, Control_c, 0, 64, 0
2, 19135, Note_off_c, 0, 49, 64
2, 19137, Note_on_c, 0, 56, 46
2, 19140, Note_on_c, 0, 59, 44
2, 19141, Note_on_c, 0, 65, 49
2, 19158, Control_c, 0, 64, 127
2, 19170, Control_c, 0, 64, 127
2, 19225, Note_off_c, 0, 56, 64
2, 19228, Note_off_c, 0, 59, 64
2, 19229, Note_off_c, 0, 65, 64
2, 19230, Note_off_c, 0, 82, 64
2, 19274, Note_on_c, 0, 80, 45
2, 19290, Control_c, 0, 64, 0
2, 19302, Note_on_c, 0, 71, 55
2, 19302, Control_c, 0, 64, 0
2, 19309, Note_on_c, 0, 50, 49
2, 19351, Control_c, 0, 64, 127
2, 19363, Control_c, 0, 64, 127
2, 19395, Note_off_c, 0, 80, 64
2, 19420, Note_off_c, 0, 71, 64
2, 19437, Control_c, 0, 64, 0
2, 19440, Note_on_c, 0, 80, 59
2, 19449, Control_c, 0, 64, 0
2, 19459, Note_on_c, 0, 70, 65
2, 19464, Note_on_c, 0, 51, 55
2, 19474, Note_off_c, 0, 50, 64
2, 19502, Control_c, 0, 64, 127
2, 19514, Control_c, 0, 64, 127
2, 19558, Note_off_c, 0, 80, 64
2, 19568, Note_off_c, 0, 70, 64
2, 19599, Note_on_c, 0, 80, 61
2, 19601, Control_c, 0, 64, 0
2, 19613, Control_c, 0, 64, 0
2, 19620, Note_on_c, 0, 70, 59
2, 19620, Note_on_c, 0, 63, 46
2, 19620, Note_on_c, 0, 54, 39
2, 19627, Note_on_c, 0, 58, 41
2, 19629, Note_off_c, 0, 51, 64
2, 19633, Control_c, 0, 64, 127
2, 19645, Control_c, 0, 64, 127
2, 19708, Note_off_c, 0, 54, 64
2, 19708, Note_off_c, 0, 63, 64
2, 19715, Note_off_c, 0, 58, 64
2, 19717, Note_off_c, 0, 80, 64
2, 19728, Note_off_c, 0, 70, 64
2, 19742, Note_on_c, 0, 80, 59
2, 19768, Control_c, 0, 64, 0
2, 19774, Note_on_c, 0, 42, 49
2, 19780, Note_on_c, 0, 70, 55
2, 19780, Control_c, 0, 64, 0
2, 19817, Control_c, 0, 64, 127
2, 19829, Control_c, 0, 64, 127
2, 19869, Note_off_c, 0, 70, 64
2, 19884, Note_off_c, 0, 80, 64
2, 19891, Note_on_c, 0, 78, 53
2, 19930, Note_on_c, 0, 69, 55
2, 19936, Control_c, 0, 64, 0
2, 19936, Note_on_c, 0, 44, 53
2, 19939, Note_off_c, 0, 42, 64
2, 19948, Control_c, 0, 64, 0
2, 19971, Control_c, 0, 64, 127
2, 19983, Control_c, 0, 64, 127
2, 20024, Note_off_c, 0, 69, 64
2, 20031, Note_off_c, 0, 78, 64
2, 20057, Note_on_c, 0, 78, 40
2, 20096, Note_on_c, 0, 68, 67
2, 20099, Note_on_c, 0, 53, 46
2, 20100, Note_on_c, 0, 61, 54
2, 20100, Control_c, 0, 64, 0
2, 20101, Note_off_c, 0, 44, 64
2, 20112, Control_c, 0, 64, 0
2, 20124, Control_c, 0, 64, 127
2, 20136, Control_c, 0, 64, 127
2, 20176, Note_off_c, 0, 68, 64
2, 20187, Note_off_c, 0, 53, 64
2, 20188, Note_off_c, 0, 61, 64
2, 20188, Note_off_c, 0, 78, 64
2, 20208, Note_on_c, 0, 78, 53
2, 20256, Note_on_c, 0, 68, 53
2, 20256, Note_on_c, 0, 61, 53
2, 20261, Note_on_c, 0, 53, 49
2, 20337, Note_off_c, 0, 78, 64
2, 20344, Note_off_c, 0, 61, 64
2, 20345, Note_off_c, 0, 68, 64
2, 20349, Note_off_c, 0, 53, 64
2, 20359, Note_on_c, 0, 77, 39
2, 20401, Note_on_c, 0, 67, 54
2, 20402, Control_c, 0, 64, 0
2, 20409, Note_on_c, 0, 44, 58
2, 20414, Control_c, 0, 64, 0
2, 20438, Control_c, 0, 64, 127
2, 20450, Control_c, 0, 64, 127
2, 20473, Note_off_c, 0, 77, 64
2, 20507, Note_off_c, 0, 67, 64
2, 20508, Note_on_c, 0, 76, 50
2, 20566, Control_c, 0, 64, 0
2, 20569, Note_on_c, 0, 66, 65
2, 20572, Note_on_c, 0, 60, 55
2, 20572, Note_on_c, 0, 54, 45
2, 20572, Note_on_c, 0, 51, 46
2, 20578, Control_c, 0, 64, 0
2, 20595, Control_c, 0, 64, 127
2, 20607, Control_c, 0, 64, 127
2, 20631, Note_off_c, 0, 76, 64
2, 20660, Note_off_c, 0, 51, 64
2, 20660, Note_off_c, 0, 54, 64
2, 20660, Note_off_c, 0, 60, 64
2, 20671, Note_on_c, 0, 75, 58
2, 20679, Note_off_c, 0, 66, 64
2, 20714, Control_c, 0, 64, 0
2, 20726, Control_c, 0, 64, 0
2, 20731, Note_on_c, 0, 65, 55
2, 20739, Control_c, 0, 64, 127
2, 20751, Control_c, 0, 64, 127
2, 20823, Note_off_c, 0, 75, 64
2, 20830, Note_off_c, 0, 65, 64
2, 20839, Note_on_c, 0, 74, 45
2, 20866, Control_c, 0, 64, 0
2, 20878, Control_c, 0, 64, 0
2, 20885, Note_on_c, 0, 64, 55
2, 20900, Control_c, 0, 64, 127
2, 20910, Note_off_c, 0, 44, 64
2, 20912, Control_c, 0, 64, 127
2, 20977, Note_off_c, 0, 64, 64
2, 20991, Note_on_c, 0, 73, 54
2, 20995, Note_off_c, 0, 74, 64
2, 21029, Control_c, 0, 64, 0
2, 21041, Control_c, 0, 64, 0
2, 21052, Note_on_c, 0, 63, 65
2, 21096, Control_c, 0, 64, 127
2, 21108, Control_c, 0, 64, 127
2, 21118, Note_off_c, 0, 73, 64
2, 21186, Note_on_c, 0, 73, 59
2, 21191, Note_off_c, 0, 63, 64
2, 21220, Control_c, 0, 64, 0
2, 21232, Control_c, 0, 64, 0
2, 21244, Control_c, 0, 64, 127
2, 21255, Note_on_c, 0, 63, 65
2, 21256, Control_c, 0, 64, 127
2, 21378, Note_off_c, 0, 73, 64
2, 21435, Note_on_c, 0, 73, 70
2, 21511, Note_off_c, 0, 63, 64
2, 21556, Note_on_c, 0, 63, 58
2, 21570, Note_on_c, 0, 41, 53
2, 21583, Control_c, 0, 64, 0
2, 21595, Control_c, 0, 64, 0
2, 21628, Control_c, 0, 64, 127
2, 21640, Control_c, 0, 64, 127
2, 21735, Note_off_c, 0, 41, 64
2, 21869, Note_on_c, 0, 53, 41
2, 21879, Note_on_c, 0, 60, 41
2, 21891, Control_c, 0, 64, 0
2, 21903, Control_c, 0, 64, 0
2, 21912, Note_off_c, 0, 63, 64
2, 21923, Control_c, 0, 64, 127
2, 21935, Control_c, 0, 64, 127
2, 21957, Note_off_c, 0, 53, 64
2, 21967, Note_off_c, 0, 60, 64
2, 21986, Note_off_c, 0, 73, 64
2, 21987, Note_on_c, 0, 69, 44
2, 21987, Note_on_c, 0, 66, 44
2, 22109, Note_on_c, 0, 73, 55
2, 22109, Note_on_c, 0, 65, 49
2, 22114, Note_on_c, 0, 53, 49
2, 22116, Note_off_c, 0, 66, 64
2, 22116, Note_on_c, 0, 60, 49
2, 22117, Note_off_c, 0, 69, 64
2, 22118, Control_c, 0, 64, 0
2, 22130, Control_c, 0, 64, 0
2, 22150, Control_c, 0, 64, 127
2, 22162, Control_c, 0, 64, 127
2, 22202, Note_off_c, 0, 53, 64
2, 22204, Note_off_c, 0, 60, 64
2, 22236, Note_on_c, 0, 69, 45
2, 22236, Note_on_c, 0, 63, 49
2, 22248, Note_off_c, 0, 65, 64
2, 22248, Note_off_c, 0, 73, 64
2, 22291, Note_off_c, 0, 69, 64
2, 22294, Note_off_c, 0, 63, 64
2, 22325, Note_on_c, 0, 69, 49
2, 22329, Note_on_c, 0, 63, 63
2, 22333, Control_c, 0, 64, 0
2, 22333, Note_on_c, 0, 46, 49
2, 22345, Control_c, 0, 64, 0
2, 22375, Control_c, 0, 64, 127
2, 22387, Control_c, 0, 64, 127
2, 22418, Note_off_c, 0, 69, 64
2, 22445, Note_off_c, 0, 63, 64
2, 22457, Note_on_c, 0, 70, 55
2, 22464, Note_on_c, 0, 61, 61
2, 22491, Note_off_c, 0, 70, 64
2, 22492, Note_off_c, 0, 61, 64
2, 22498, Note_off_c, 0, 46, 64
2, 22516, Note_on_c, 0, 70, 63
2, 22516, Note_on_c, 0, 61, 59
2, 22519, Control_c, 0, 64, 0
2, 22524, Note_on_c, 0, 58, 49
2, 22525, Note_on_c, 0, 53, 53
2, 22531, Control_c, 0, 64, 0
2, 22545, Control_c, 0, 64, 127
2, 22557, Control_c, 0, 64, 127
2, 22612, Note_off_c, 0, 58, 64
2, 22613, Note_off_c, 0, 53, 64
2, 22661, Note_off_c, 0, 61, 64
2, 22661, Note_off_c, 0, 70, 64
2, 22711, Note_on_c, 0, 70, 63
2, 22713, Note_on_c, 0, 61, 49
2, 22715, Note_on_c, 0, 67, 58
2, 22721, Note_on_c, 0, 51, 49
2, 22724, Control_c, 0, 64, 0
2, 22736, Control_c, 0, 64, 0
2, 22765, Control_c, 0, 64, 127
2, 22777, Control_c, 0, 64, 127
2, 22801, Note_off_c, 0, 61, 64
2, 22809, Note_off_c, 0, 51, 64
2, 22880, Note_off_c, 0, 70, 64
2, 22884, Note_off_c, 0, 67, 64
2, 22907, Note_on_c, 0, 44, 49
2, 22909, Note_on_c, 0, 68, 63
2, 22915, Note_on_c, 0, 77, 65
2, 22915, Control_c, 0, 64, 0
2, 22927, Control_c, 0, 64, 0
2, 22957, Control_c, 0, 64, 127
2, 22969, Control_c, 0, 64, 127
2, 23072, Note_off_c, 0, 44, 64
2, 23089, Note_on_c, 0, 56, 55
2, 23094, Note_on_c, 0, 66, 49
2, 23095, Control_c, 0, 64, 0
2, 23107, Control_c, 0, 64, 0
2, 23141, Control_c, 0, 64, 127
2, 23142, Note_off_c, 0, 68, 64
2, 23153, Control_c, 0, 64, 127
2, 23166, Note_on_c, 0, 72, 58
2, 23169, Note_on_c, 0, 69, 58
2, 23177, Note_off_c, 0, 56, 64
2, 23182, Note_off_c, 0, 66, 64
2, 23194, Note_off_c, 0, 77, 64
2, 23262, Note_on_c, 0, 66, 44
2, 23267, Note_on_c, 0, 77, 58
2, 23272, Control_c, 0, 64, 0
2, 23275, Note_off_c, 0, 72, 64
2, 23275, Note_on_c, 0, 68, 65
2, 23275, Note_on_c, 0, 56, 50
2, 23284, Control_c, 0, 64, 0
2, 23290, Note_off_c, 0, 69, 64
2, 23307, Control_c, 0, 64, 127
2, 23319, Control_c, 0, 64, 127
2, 23350, Note_off_c, 0, 66, 64
2, 23360, Note_off_c, 0, 77, 64
2, 23363, Note_off_c, 0, 56, 64
2, 23366, Note_on_c, 0, 72, 59
2, 23367, Note_off_c, 0, 68, 64
2, 23370, Note_on_c, 0, 66, 65
2, 23399, Note_off_c, 0, 66, 64
2, 23401, Note_off_c, 0, 72, 64
2, 23429, Control_c, 0, 64, 0
2, 23431, Note_on_c, 0, 72, 63
2, 23438, Note_on_c, 0, 66, 59
2, 23441, Control_c, 0, 64, 0
2, 23447, Note_on_c, 0, 49, 55
2, 23485, Control_c, 0, 64, 127
2, 23497, Control_c, 0, 64, 127
2, 23520, Note_off_c, 0, 72, 64
2, 23527, Note_off_c, 0, 66, 64
2, 23560, Note_on_c, 0, 73, 63
2, 23567, Note_on_c, 0, 65, 63
2, 23581, Note_off_c, 0, 65, 64
2, 23585, Note_off_c, 0, 73, 64
2, 23599, Control_c, 0, 64, 0
2, 23610, Note_on_c, 0, 73, 70
2, 23611, Control_c, 0, 64, 0
2, 23612, Note_off_c, 0, 49, 64
2, 23618, Note_on_c, 0, 65, 67
2, 23618, Note_on_c, 0, 61, 55
2, 23622, Note_on_c, 0, 56, 55
2, 23643, Control_c, 0, 64, 127
2, 23655, Control_c, 0, 64, 127
2, 23706, Note_off_c, 0, 61, 64
2, 23710, Note_off_c, 0, 56, 64
2, 23764, Note_off_c, 0, 73, 64
2, 23772, Note_off_c, 0, 65, 64
2, 23801, Note_on_c, 0, 71, 63
2, 23803, Note_on_c, 0, 73, 70
2, 23807, Control_c, 0, 64, 0
2, 23808, Note_on_c, 0, 65, 49
2, 23808, Note_on_c, 0, 55, 53
2, 23819, Control_c, 0, 64, 0
2, 23848, Control_c, 0, 64, 127
2, 23860, Control_c, 0, 64, 127
2, 23896, Note_off_c, 0, 55, 64
2, 23896, Note_off_c, 0, 65, 64
2, 24020, Note_on_c, 0, 80, 70
2, 24022, Control_c, 0, 64, 0
2, 24026, Note_on_c, 0, 72, 67
2, 24027, Note_on_c, 0, 48, 63
2, 24034, Control_c, 0, 64, 0
2, 24037, Note_off_c, 0, 71, 64
2, 24039, Note_off_c, 0, 73, 64
2, 24067, Control_c, 0, 64, 127
2, 24079, Control_c, 0, 64, 127
2, 24192, Note_off_c, 0, 48, 64
2, 24235, Control_c, 0, 64, 0
2, 24241, Note_on_c, 0, 60, 53
2, 24247, Note_on_c, 0, 70, 40
2, 24247, Control_c, 0, 64, 0
2, 24252, Control_c, 0, 64, 127
2, 24254, Note_on_c, 0, 67, 39
2, 24264, Control_c, 0, 64, 127
2, 24276, Note_off_c, 0, 80, 64
2, 24300, Note_on_c, 0, 76, 65
2, 24304, Note_off_c, 0, 72, 64
2, 24304, Note_on_c, 0, 73, 53
2, 24329, Note_off_c, 0, 60, 64
2, 24335, Note_off_c, 0, 70, 64
2, 24342, Note_off_c, 0, 67, 64
2, 24391, Note_on_c, 0, 70, 58
2, 24393, Note_on_c, 0, 60, 61
2, 24399, Note_off_c, 0, 73, 64
2, 24402, Note_on_c, 0, 80, 59
2, 24402, Note_on_c, 0, 67, 55
2, 24403, Note_on_c, 0, 72, 70
2, 24417, Note_off_c, 0, 76, 64
2, 24479, Note_off_c, 0, 70, 64
2, 24479, Note_on_c, 0, 76, 63
2, 24481, Note_off_c, 0, 60, 64
2, 24482, Note_on_c, 0, 70, 70
2, 24490, Note_off_c, 0, 67, 64
2, 24510, Note_off_c, 0, 80, 64
2, 24511, Note_off_c, 0, 72, 64
2, 24521, Note_off_c, 0, 70, 64
2, 24529, Note_off_c, 0, 76, 64
2, 24546, Control_c, 0, 64, 0
2, 24550, Note_on_c, 0, 70, 67
2, 24555, Note_on_c, 0, 76, 59
2, 24558, Control_c, 0, 64, 0
2, 24567, Note_on_c, 0, 53, 59
2, 24602, Control_c, 0, 64, 127
2, 24614, Control_c, 0, 64, 127
2, 24676, Note_on_c, 0, 69, 65
2, 24680, Note_on_c, 0, 77, 67
2, 24686, Note_off_c, 0, 76, 64
2, 24686, Note_off_c, 0, 70, 64
2, 24707, Note_off_c, 0, 69, 64
2, 24709, Note_off_c, 0, 77, 64
2, 24726, Note_on_c, 0, 77, 70
2, 24730, Note_on_c, 0, 69, 65
2, 24734, Note_on_c, 0, 65, 59
2, 24740, Note_on_c, 0, 60, 59
2, 24822, Note_off_c, 0, 65, 64
2, 24828, Note_off_c, 0, 60, 64
2, 24855, Note_off_c, 0, 77, 64
2, 24859, Note_off_c, 0, 69, 64
2, 24912, Note_on_c, 0, 89, 70
2, 24912, Note_on_c, 0, 77, 65
2, 24922, Note_on_c, 0, 69, 49
2, 24928, Note_on_c, 0, 60, 58
2, 24972, Note_off_c, 0, 53, 64
2, 25055, Note_off_c, 0, 60, 64
2, 25075, Control_c, 0, 64, 0
2, 25087, Control_c, 0, 64, 0
2, 25094, Note_on_c, 0, 41, 85
2, 25121, Control_c, 0, 64, 127
2, 25133, Control_c, 0, 64, 127
2, 25140, Note_off_c, 0, 77, 64
2, 25143, Note_off_c, 0, 89, 64
2, 25176, Note_off_c, 0, 69, 64
2, 25208, Note_on_c, 0, 78, 70
2, 25212, Note_on_c, 0, 90, 70
2, 25224, Note_off_c, 0, 78, 64
2, 25231, Note_off_c, 0, 90, 64
2, 25256, Note_on_c, 0, 90, 70
2, 25259, Note_off_c, 0, 41, 64
2, 25260, Note_on_c, 0, 78, 70
2, 25265, Note_on_c, 0, 60, 55
2, 25270, Note_on_c, 0, 69, 58
2, 25353, Note_off_c, 0, 60, 64
2, 25358, Note_off_c, 0, 69, 64
2, 25434, Note_off_c, 0, 90, 64
2, 25438, Note_off_c, 0, 78, 64
2, 25448, Note_on_c, 0, 63, 39
2, 25455, Note_on_c, 0, 72, 20
2, 25456, Note_on_c, 0, 69, 65
2, 25536, Note_off_c, 0, 63, 64
2, 25543, Note_off_c, 0, 72, 64
2, 25647, Note_on_c, 0, 46, 41
2, 25668, Note_on_c, 0, 72, 54
2, 25691, Note_off_c, 0, 69, 64
2, 25733, Control_c, 0, 64, 0
2, 25745, Control_c, 0, 64, 0
2, 25787, Control_c, 0, 64, 127
2, 25799, Control_c, 0, 64, 127
2, 25905, Note_on_c, 0, 61, 29
2, 25912, Note_on_c, 0, 53, 44
2, 25934, Note_off_c, 0, 72, 64
2, 25981, Note_on_c, 0, 70, 45
2, 25985, Note_off_c, 0, 46, 64
2, 25993, Note_off_c, 0, 61, 64
2, 26000, Note_off_c, 0, 53, 64
2, 26031, Note_off_c, 0, 70, 64
2, 26085, Note_on_c, 0, 61, 40
2, 26086, Note_on_c, 0, 70, 59
2, 26093, Note_on_c, 0, 53, 40
2, 26142, Note_on_c, 0, 68, 58
2, 26161, Note_off_c, 0, 70, 64
2, 26173, Note_off_c, 0, 61, 64
2, 26181, Note_off_c, 0, 53, 64
2, 26197, Note_on_c, 0, 66, 53
2, 26220, Note_off_c, 0, 68, 64
2, 26269, Note_on_c, 0, 65, 53
2, 26270, Control_c, 0, 64, 0
2, 26272, Note_on_c, 0, 73, 67
2, 26272, Note_on_c, 0, 46, 33
2, 26282, Control_c, 0, 64, 0
2, 26287, Note_off_c, 0, 66, 64
2, 26325, Control_c, 0, 64, 127
2, 26337, Control_c, 0, 64, 127
2, 26383, Note_on_c, 0, 68, 46
2, 26394, Note_off_c, 0, 65, 64
2, 26415, Note_on_c, 0, 66, 56
2, 26437, Note_off_c, 0, 46, 64
2, 26439, Note_off_c, 0, 68, 64
2, 26449, Control_c, 0, 64, 0
2, 26458, Note_on_c, 0, 53, 49
2, 26460, Note_on_c, 0, 60, 46
2, 26461, Control_c, 0, 64, 0
2, 26464, Note_on_c, 0, 63, 44
2, 26467, Note_on_c, 0, 65, 62
2, 26472, Note_off_c, 0, 66, 64
2, 26504, Control_c, 0, 64, 127
2, 26511, Note_off_c, 0, 73, 64
2, 26516, Control_c, 0, 64, 127
2, 26537, Note_on_c, 0, 69, 49
2, 26546, Note_off_c, 0, 53, 64
2, 26546, Note_on_c, 0, 66, 45
2, 26548, Note_off_c, 0, 60, 64
2, 26552, Note_off_c, 0, 63, 64
2, 26561, Note_off_c, 0, 65, 64
2, 26628, Note_on_c, 0, 65, 55
2, 26628, Note_on_c, 0, 63, 45
2, 26630, Note_off_c, 0, 66, 64
2, 26630, Note_on_c, 0, 60, 46
2, 26630, Note_on_c, 0, 53, 49
2, 26637, Note_on_c, 0, 73, 59
2, 26669, Note_off_c, 0, 69, 64
2, 26680, Note_off_c, 0, 63, 64
2, 26692, Note_on_c, 0, 63, 55
2, 26693, Note_off_c, 0, 65, 64
2, 26697, Note_on_c, 0, 69, 50
2, 26702, Note_off_c, 0, 73, 64
2, 26718, Note_off_c, 0, 53, 64
2, 26718, Note_off_c, 0, 60, 64
2, 26753, Note_off_c, 0, 63, 64
2, 26754, Note_off_c, 0, 69, 64
2, 26775, Control_c, 0, 64, 0
2, 26780, Note_on_c, 0, 69, 65
2, 26784, Note_on_c, 0, 63, 55
2, 26786, Note_on_c, 0, 46, 49
2, 26787, Control_c, 0, 64, 0
2, 26832, Control_c, 0, 64, 127
2, 26844, Control_c, 0, 64, 127
2, 26849, Note_off_c, 0, 69, 64
2, 26853, Note_off_c, 0, 63, 64
2, 26897, Note_on_c, 0, 70, 55
2, 26897, Note_on_c, 0, 61, 65
2, 26917, Note_off_c, 0, 70, 64
2, 26922, Note_off_c, 0, 61, 64
2, 26940, Control_c, 0, 64, 0
2, 26947, Note_on_c, 0, 61, 59
2, 26948, Note_on_c, 0, 70, 70
2, 26948, Note_on_c, 0, 58, 54
2, 26948, Note_on_c, 0, 53, 54
2, 26951, Note_off_c, 0, 46, 64
2, 26952, Control_c, 0, 64, 0
2, 26988, Control_c, 0, 64, 127
2, 27000, Control_c, 0, 64, 127
2, 27029, Control_c, 0, 64, 0
2, 27036, Note_off_c, 0, 53, 64
2, 27036, Note_off_c, 0, 58, 64
2, 27041, Control_c, 0, 64, 0
2, 27102, Note_off_c, 0, 61, 64
2, 27105, Note_off_c, 0, 70, 64
2, 27136, Note_on_c, 0, 70, 50
2, 27136, Note_on_c, 0, 67, 53
2, 27136, Note_on_c, 0, 51, 49
2, 27139, Note_on_c, 0, 61, 49
2, 27148, Control_c, 0, 64, 0
2, 27160, Control_c, 0, 64, 0
2, 27204, Note_on_c, 0, 72, 55
2, 27206, Control_c, 0, 64, 127
2, 27218, Control_c, 0, 64, 127
2, 27224, Note_off_c, 0, 51, 64
2, 27227, Note_off_c, 0, 61, 64
2, 27228, Note_off_c, 0, 70, 64
2, 27231, Note_off_c, 0, 67, 64
2, 27251, Note_on_c, 0, 70, 61
2, 27261, Note_off_c, 0, 72, 64
2, 27330, Note_off_c, 0, 70, 64
2, 27336, Note_on_c, 0, 44, 31
2, 27369, Note_on_c, 0, 68, 53
2, 27374, Control_c, 0, 64, 0
2, 27378, Note_on_c, 0, 77, 58
2, 27386, Control_c, 0, 64, 0
2, 27429, Control_c, 0, 64, 127
2, 27441, Control_c, 0, 64, 127
2, 27501, Note_off_c, 0, 44, 64
2, 27502, Note_on_c, 0, 71, 53
2, 27506, Note_off_c, 0, 68, 64
2, 27542, Note_on_c, 0, 69, 59
2, 27551, Note_off_c, 0, 71, 64
2, 27556, Control_c, 0, 64, 0
2, 27568, Control_c, 0, 64, 0
2, 27572, Note_on_c, 0, 63, 59
2, 27574, Note_on_c, 0, 56, 49
2, 27576, Note_on_c, 0, 68, 63
2, 27576, Note_on_c, 0, 66, 55
2, 27587, Note_off_c, 0, 69, 64
2, 27602, Control_c, 0, 64, 127
2, 27614, Control_c, 0, 64, 127
2, 27617, Note_off_c, 0, 77, 64
2, 27650, Note_on_c, 0, 72, 55
2, 27653, Note_on_c, 0, 69, 55
2, 27660, Note_off_c, 0, 68, 64
2, 27660, Note_off_c, 0, 63, 64
2, 27662, Note_off_c, 0, 56, 64
2, 27664, Note_off_c, 0, 66, 64
2, 27720, Control_c, 0, 64, 0
2, 27720, Note_on_c, 0, 66, 55
2, 27720, Note_on_c, 0, 63, 46
2, 27732, Control_c, 0, 64, 0
2, 27740, Note_on_c, 0, 56, 46
2, 27741, Note_off_c, 0, 69, 64
2, 27741, Note_on_c, 0, 68, 61
2, 27745, Note_on_c, 0, 77, 70
2, 27750, Control_c, 0, 64, 127
2, 27762, Control_c, 0, 64, 127
2, 27778, Note_off_c, 0, 66, 64
2, 27780, Note_off_c, 0, 72, 64
2, 27808, Note_off_c, 0, 63, 64
2, 27812, Note_on_c, 0, 66, 55
2, 27814, Note_on_c, 0, 72, 65
2, 27828, Note_off_c, 0, 56, 64
2, 27832, Note_off_c, 0, 68, 64
2, 27836, Note_off_c, 0, 77, 64
2, 27849, Note_off_c, 0, 66, 64
2, 27852, Note_off_c, 0, 72, 64
2, 27865, Control_c, 0, 64, 0
2, 27877, Control_c, 0, 64, 0
2, 27885, Note_on_c, 0, 72, 65
2, 27885, Note_on_c, 0, 66, 65
2, 27893, Note_on_c, 0, 49, 61
2, 27926, Control_c, 0, 64, 127
2, 27935, Note_off_c, 0, 66, 64
2, 27938, Control_c, 0, 64, 127
2, 27951, Note_off_c, 0, 72, 64
2, 28000, Note_on_c, 0, 73, 65
2, 28004, Note_on_c, 0, 65, 59
2, 28020, Control_c, 0, 64, 0
2, 28028, Note_off_c, 0, 65, 64
2, 28029, Note_off_c, 0, 73, 64
2, 28032, Control_c, 0, 64, 0
2, 28045, Note_on_c, 0, 73, 70
2, 28049, Note_on_c, 0, 65, 58
2, 28052, Note_on_c, 0, 56, 59
2, 28055, Note_on_c, 0, 61, 53
2, 28058, Note_off_c, 0, 49, 64
2, 28074, Control_c, 0, 64, 127
2, 28086, Control_c, 0, 64, 127
2, 28092, Control_c, 0, 64, 0
2, 28104, Control_c, 0, 64, 0
2, 28140, Note_off_c, 0, 56, 64
2, 28143, Note_off_c, 0, 61, 64
2, 28190, Note_off_c, 0, 73, 64
2, 28194, Note_off_c, 0, 65, 64
2, 28224, Note_on_c, 0, 73, 68
2, 28224, Note_on_c, 0, 71, 61
2, 28229, Control_c, 0, 64, 0
2, 28231, Note_on_c, 0, 65, 53
2, 28231, Note_on_c, 0, 55, 53
2, 28241, Control_c, 0, 64, 0
2, 28267, Control_c, 0, 64, 127
2, 28279, Control_c, 0, 64, 127
2, 28285, Note_off_c, 0, 71, 64
2, 28286, Note_on_c, 0, 75, 70
2, 28291, Note_off_c, 0, 73, 64
2, 28319, Note_off_c, 0, 55, 64
2, 28319, Note_off_c, 0, 65, 64
2, 28336, Note_on_c, 0, 73, 70
2, 28351, Note_off_c, 0, 75, 64
2, 28401, Control_c, 0, 64, 0
2, 28404, Note_on_c, 0, 72, 65
2, 28407, Note_on_c, 0, 80, 70
2, 28407, Note_on_c, 0, 48, 63
2, 28413, Control_c, 0, 64, 0
2, 28419, Note_off_c, 0, 73, 64
2, 28456, Control_c, 0, 64, 127
2, 28468, Control_c, 0, 64, 127
2, 28512, Note_on_c, 0, 75, 70
2, 28533, Note_off_c, 0, 72, 64
2, 28546, Note_on_c, 0, 73, 53
2, 28567, Control_c, 0, 64, 0
2, 28568, Note_off_c, 0, 75, 64
2, 28572, Note_off_c, 0, 48, 64
2, 28579, Control_c, 0, 64, 0
2, 28596, Note_on_c, 0, 70, 49
2, 28596, Note_on_c, 0, 60, 49
2, 28597, Note_on_c, 0, 72, 70
2, 28597, Note_on_c, 0, 67, 54
2, 28620, Control_c, 0, 64, 127
2, 28624, Note_off_c, 0, 73, 64
2, 28632, Control_c, 0, 64, 127
2, 28669, Note_on_c, 0, 76, 59
2, 28672, Note_on_c, 0, 73, 59
2, 28674, Note_off_c, 0, 80, 64
2, 28684, Note_off_c, 0, 60, 64
2, 28684, Note_off_c, 0, 70, 64
2, 28685, Note_off_c, 0, 67, 64
2, 28691, Note_off_c, 0, 72, 64
2, 28748, Note_on_c, 0, 72, 67
2, 28748, Note_on_c, 0, 70, 59
2, 28748, Note_on_c, 0, 67, 59
2, 28749, Note_on_c, 0, 80, 70
2, 28749, Note_on_c, 0, 60, 63
2, 28754, Note_off_c, 0, 76, 64
2, 28760, Note_off_c, 0, 73, 64
2, 28806, Note_off_c, 0, 70, 64
2, 28818, Note_off_c, 0, 80, 64
2, 28829, Note_on_c, 0, 76, 65
2, 28834, Note_on_c, 0, 70, 65
2, 28836, Note_off_c, 0, 67, 64
2, 28837, Note_off_c, 0, 60, 64
2, 28845, Note_off_c, 0, 72, 64
2, 28873, Note_off_c, 0, 70, 64
2, 28880, Note_off_c, 0, 76, 64
2, 28898, Control_c, 0, 64, 0
2, 28910, Control_c, 0, 64, 0
2, 28914, Note_on_c, 0, 76, 68
2, 28914, Note_on_c, 0, 70, 70
2, 28921, Note_on_c, 0, 53, 59
2, 28951, Control_c, 0, 64, 127
2, 28963, Control_c, 0, 64, 127
2, 29001, Note_off_c, 0, 76, 64
2, 29002, Note_off_c, 0, 70, 64
2, 29016, Note_on_c, 0, 77, 70
2, 29018, Note_on_c, 0, 69, 70
2, 29049, Note_off_c, 0, 69, 64
2, 29052, Note_off_c, 0, 77, 64
2, 29052, Control_c, 0, 64, 0
2, 29064, Control_c, 0, 64, 0
2, 29072, Note_on_c, 0, 77, 70
2, 29077, Note_on_c, 0, 69, 67
2, 29082, Note_on_c, 0, 60, 61
2, 29083, Note_on_c, 0, 65, 59
2, 29086, Note_off_c, 0, 53, 64
2, 29088, Control_c, 0, 64, 127
2, 29100, Control_c, 0, 64, 127
2, 29170, Note_off_c, 0, 60, 64
2, 29171, Note_off_c, 0, 65, 64
2, 29174, Note_off_c, 0, 69, 64
2, 29224, Note_on_c, 0, 53, 59
2, 29237, Note_off_c, 0, 77, 64
2, 29248, Note_on_c, 0, 60, 59
2, 29253, Note_on_c, 0, 89, 70
2, 29256, Note_on_c, 0, 77, 68
2, 29262, Note_on_c, 0, 69, 55
2, 29389, Note_off_c, 0, 53, 64
2, 29400, Note_off_c, 0, 60, 64
2, 29428, Note_off_c, 0, 69, 64
2, 29436, Note_on_c, 0, 92, 70
2, 29436, Note_on_c, 0, 41, 61
2, 29439, Control_c, 0, 64, 0
2, 29440, Note_on_c, 0, 80, 70
2, 29447, Note_off_c, 0, 89, 64
2, 29451, Note_off_c, 0, 77, 64
2, 29451, Control_c, 0, 64, 0
2, 29467, Control_c, 0, 64, 127
2, 29479, Control_c, 0, 64, 127
2, 29523, Note_off_c, 0, 92, 64
2, 29524, Note_off_c, 0, 80, 64
2, 29570, Note_on_c, 0, 90, 70
2, 29570, Note_on_c, 0, 78, 70
2, 29587, Note_off_c, 0, 78, 64
2, 29592, Note_off_c, 0, 90, 64
2, 29599, Control_c, 0, 64, 0
2, 29601, Note_off_c, 0, 41, 64
2, 29607, Note_on_c, 0, 90, 70
2, 29611, Control_c, 0, 64, 0
2, 29612, Note_on_c, 0, 69, 61
2, 29616, Note_on_c, 0, 72, 58
2, 29616, Note_on_c, 0, 63, 39
2, 29616, Note_on_c, 0, 60, 53
2, 29617, Note_on_c, 0, 78, 70
2, 29634, Control_c, 0, 64, 127
2, 29646, Control_c, 0, 64, 127
2, 29751, Note_off_c, 0, 69, 64
2, 29755, Note_off_c, 0, 60, 64
2, 29755, Note_off_c, 0, 63, 64
2, 29783, Note_off_c, 0, 90, 64
2, 29792, Note_off_c, 0, 72, 64
2, 29792, Note_on_c, 0, 69, 70
2, 29793, Note_off_c, 0, 78, 64
2, 29800, Note_on_c, 0, 63, 31
2, 29800, Note_on_c, 0, 60, 49
2, 29800, Note_on_c, 0, 53, 49
2, 29919, Control_c, 0, 64, 0
2, 29931, Control_c, 0, 64, 0
2, 30032, Note_on_c, 0, 70, 68
2, 30039, Note_on_c, 0, 46, 44
2, 30041, Note_off_c, 0, 53, 64
2, 30041, Note_off_c, 0, 60, 64
2, 30041, Note_off_c, 0, 63, 64
2, 30056, Control_c, 0, 64, 0
2, 30068, Note_off_c, 0, 69, 64
2, 30068, Control_c, 0, 64, 0
2, 30118, Control_c, 0, 64, 127
2, 30130, Control_c, 0, 64, 127
2, 30260, Note_on_c, 0, 61, 29
2, 30260, Note_on_c, 0, 53, 33
2, 30348, Note_off_c, 0, 53, 64
2, 30348, Note_off_c, 0, 61, 64
2, 30354, Control_c, 0, 64, 0
2, 30366, Control_c, 0, 64, 0
2, 30377, Control_c, 0, 64, 127
2, 30389, Control_c, 0, 64, 127
2, 30428, Note_off_c, 0, 46, 64
2, 30504, Note_on_c, 0, 51, 27
2, 30512, Note_on_c, 0, 61, 40
2, 30512, Note_on_c, 0, 54, 20
2, 30526, Control_c, 0, 64, 0
2, 30538, Control_c, 0, 64, 0
2, 30552, Control_c, 0, 64, 127
2, 30564, Control_c, 0, 64, 127
2, 30592, Note_off_c, 0, 51, 64
2, 30600, Note_off_c, 0, 54, 64
2, 30600, Note_off_c, 0, 61, 64
2, 30657, Note_off_c, 0, 70, 64
2, 30709, Control_c, 0, 64, 0
2, 30713, Note_on_c, 0, 44, 46
2, 30721, Control_c, 0, 64, 0
2, 30764, Control_c, 0, 64, 127
2, 30776, Control_c, 0, 64, 127
2, 30824, Note_on_c, 0, 68, 44
2, 30828, Note_on_c, 0, 66, 36
2, 30861, Control_c, 0, 64, 0
2, 30873, Control_c, 0, 64, 0
2, 30878, Note_off_c, 0, 44, 64
2, 30880, Note_on_c, 0, 56, 39
2, 30882, Note_on_c, 0, 60, 54
2, 30884, Note_on_c, 0, 51, 46
2, 30909, Note_off_c, 0, 68, 64
2, 30913, Note_off_c, 0, 66, 64
2, 30919, Control_c, 0, 64, 127
2, 30931, Control_c, 0, 64, 127
2, 30968, Note_off_c, 0, 56, 64
2, 30970, Note_off_c, 0, 60, 64
2, 30972, Note_off_c, 0, 51, 64
2, 30988, Note_on_c, 0, 66, 55
2, 30991, Note_on_c, 0, 68, 55
2, 31073, Control_c, 0, 64, 0
2, 31081, Note_off_c, 0, 66, 64
2, 31082, Note_on_c, 0, 75, 63
2, 31085, Control_c, 0, 64, 0
2, 31091, Note_on_c, 0, 56, 49
2, 31091, Note_on_c, 0, 51, 46
2, 31095, Note_on_c, 0, 60, 46
2, 31099, Note_off_c, 0, 68, 64
2, 31117, Control_c, 0, 64, 127
2, 31129, Control_c, 0, 64, 127
2, 31179, Note_off_c, 0, 51, 64
2, 31179, Note_off_c, 0, 56, 64
2, 31183, Note_off_c, 0, 60, 64
2, 31248, Note_off_c, 0, 75, 64
2, 31263, Note_on_c, 0, 37, 55
2, 31266, Control_c, 0, 64, 0
2, 31266, Note_on_c, 0, 70, 49
2, 31278, Control_c, 0, 64, 0
2, 31315, Control_c, 0, 64, 127
2, 31327, Control_c, 0, 64, 127
2, 31384, Note_on_c, 0, 65, 35
2, 31386, Note_on_c, 0, 68, 40
2, 31388, Note_off_c, 0, 70, 64
2, 31426, Control_c, 0, 64, 0
2, 31428, Note_off_c, 0, 37, 64
2, 31438, Control_c, 0, 64, 0
2, 31444, Note_on_c, 0, 61, 58
2, 31448, Note_on_c, 0, 56, 46
2, 31448, Note_on_c, 0, 53, 46
2, 31469, Note_off_c, 0, 65, 64
2, 31471, Note_off_c, 0, 68, 64
2, 31479, Control_c, 0, 64, 127
2, 31491, Control_c, 0, 64, 127
2, 31528, Note_on_c, 0, 65, 61
2, 31532, Note_off_c, 0, 61, 64
2, 31535, Note_on_c, 0, 68, 40
2, 31536, Note_off_c, 0, 53, 64
2, 31536, Note_off_c, 0, 56, 64
2, 31625, Control_c, 0, 64, 0
2, 31627, Note_on_c, 0, 77, 65
2, 31632, Note_on_c, 0, 61, 46
2, 31637, Control_c, 0, 64, 0
2, 31641, Note_on_c, 0, 56, 45
2, 31641, Note_on_c, 0, 53, 46
2, 31645, Note_off_c, 0, 65, 64
2, 31652, Note_off_c, 0, 68, 64
2, 31669, Control_c, 0, 64, 127
2, 31681, Control_c, 0, 64, 127
2, 31720, Note_off_c, 0, 61, 64
2, 31729, Note_off_c, 0, 53, 64
2, 31729, Note_off_c, 0, 56, 64
2, 31794, Note_off_c, 0, 77, 64
2, 31811, Note_on_c, 0, 70, 49
2, 31814, Control_c, 0, 64, 0
2, 31818, Note_on_c, 0, 44, 50
2, 31826, Control_c, 0, 64, 0
2, 31862, Control_c, 0, 64, 127
2, 31874, Control_c, 0, 64, 127
2, 31936, Note_on_c, 0, 66, 40
2, 31937, Note_on_c, 0, 68, 40
2, 31960, Note_off_c, 0, 70, 64
2, 31974, Control_c, 0, 64, 0
2, 31983, Note_off_c, 0, 44, 64
2, 31984, Note_on_c, 0, 56, 46
2, 31984, Note_on_c, 0, 51, 49
2, 31986, Control_c, 0, 64, 0
2, 31988, Note_on_c, 0, 60, 39
2, 32007, Control_c, 0, 64, 127
2, 32019, Control_c, 0, 64, 127
2, 32021, Note_off_c, 0, 66, 64
2, 32022, Note_off_c, 0, 68, 64
2, 32072, Note_off_c, 0, 51, 64
2, 32072, Note_off_c, 0, 56, 64
2, 32076, Note_off_c, 0, 60, 64
2, 32088, Note_on_c, 0, 68, 53
2, 32088, Note_on_c, 0, 66, 58
2, 32164, Note_on_c, 0, 78, 70
2, 32178, Note_on_c, 0, 51, 39
2, 32180, Note_on_c, 0, 60, 44
2, 32181, Note_on_c, 0, 56, 49
2, 32202, Note_off_c, 0, 66, 64
2, 32202, Note_off_c, 0, 68, 64
2, 32266, Note_off_c, 0, 51, 64
2, 32268, Note_off_c, 0, 60, 64
2, 32269, Note_off_c, 0, 56, 64
2, 32296, Note_on_c, 0, 73, 63
2, 32296, Note_on_c, 0, 71, 55
2, 32299, Note_on_c, 0, 65, 50
2, 32331, Note_off_c, 0, 78, 64
2, 32354, Note_on_c, 0, 49, 40
2, 32356, Control_c, 0, 64, 0
2, 32357, Note_on_c, 0, 82, 83
2, 32368, Control_c, 0, 64, 0
2, 32411, Control_c, 0, 64, 127
2, 32423, Control_c, 0, 64, 127
2, 32447, Note_off_c, 0, 71, 64
2, 32447, Note_off_c, 0, 73, 64
2, 32450, Note_off_c, 0, 65, 64
2, 32519, Note_off_c, 0, 49, 64
2, 32528, Note_on_c, 0, 65, 44
2, 32531, Note_on_c, 0, 56, 40
2, 32535, Note_on_c, 0, 59, 45
2, 32536, Control_c, 0, 64, 0
2, 32548, Control_c, 0, 64, 0
2, 32569, Control_c, 0, 64, 127
2, 32581, Control_c, 0, 64, 127
2, 32616, Note_off_c, 0, 65, 64
2, 32619, Note_off_c, 0, 56, 64
2, 32623, Note_off_c, 0, 59, 64
2, 32664, Note_on_c, 0, 80, 40
2, 32700, Note_off_c, 0, 82, 64
2, 32700, Note_on_c, 0, 71, 50
2, 32705, Control_c, 0, 64, 0
2, 32714, Note_on_c, 0, 50, 49
2, 32717, Control_c, 0, 64, 0
2, 32760, Control_c, 0, 64, 127
2, 32772, Control_c, 0, 64, 127
2, 32787, Note_off_c, 0, 80, 64
2, 32798, Note_off_c, 0, 71, 64
2, 32837, Note_on_c, 0, 80, 50
2, 32870, Control_c, 0, 64, 0
2, 32874, Note_on_c, 0, 70, 61
2, 32877, Note_on_c, 0, 51, 55
2, 32879, Note_off_c, 0, 50, 64
2, 32882, Control_c, 0, 64, 0
2, 32916, Control_c, 0, 64, 127
2, 32928, Control_c, 0, 64, 127
2, 32963, Note_off_c, 0, 80, 64
2, 32987, Note_off_c, 0, 70, 64
2, 33013, Note_on_c, 0, 80, 55
2, 33042, Note_off_c, 0, 51, 64
2, 33043, Note_on_c, 0, 70, 58
2, 33044, Note_on_c, 0, 63, 46
2, 33045, Note_on_c, 0, 58, 44
2, 33045, Note_on_c, 0, 54, 41
2, 33123, Note_off_c, 0, 80, 64
2, 33132, Note_off_c, 0, 63, 64
2, 33133, Note_off_c, 0, 54, 64
2, 33133, Note_off_c, 0, 58, 64
2, 33134, Note_off_c, 0, 70, 64
2, 33153, Note_on_c, 0, 80, 54
2, 33197, Control_c, 0, 64, 0
2, 33204, Note_on_c, 0, 42, 49
2, 33206, Note_on_c, 0, 70, 55
2, 33209, Control_c, 0, 64, 0
2, 33254, Control_c, 0, 64, 127
2, 33266, Control_c, 0, 64, 127
2, 33288, Note_off_c, 0, 70, 64
2, 33320, Note_on_c, 0, 78, 49
2, 33324, Note_off_c, 0, 80, 64
2, 33365, Note_on_c, 0, 69, 55
2, 33367, Control_c, 0, 64, 0
2, 33368, Note_on_c, 0, 44, 55
2, 33369, Note_off_c, 0, 42, 64
2, 33379, Control_c, 0, 64, 0
2, 33413, Control_c, 0, 64, 127
2, 33425, Control_c, 0, 64, 127
2, 33478, Note_off_c, 0, 69, 64
2, 33479, Note_off_c, 0, 78, 64
2, 33500, Note_on_c, 0, 78, 40
2, 33532, Note_on_c, 0, 61, 53
2, 33533, Note_off_c, 0, 44, 64
2, 33534, Note_on_c, 0, 68, 65
2, 33536, Note_on_c, 0, 53, 45
2, 33539, Control_c, 0, 64, 0
2, 33551, Control_c, 0, 64, 0
2, 33561, Control_c, 0, 64, 127
2, 33573, Control_c, 0, 64, 127
2, 33620, Note_off_c, 0, 61, 64
2, 33624, Note_off_c, 0, 53, 64
2, 33629, Note_off_c, 0, 78, 64
2, 33644, Note_off_c, 0, 68, 64
2, 33648, Note_on_c, 0, 78, 53
2, 33706, Note_on_c, 0, 68, 63
2, 33706, Note_on_c, 0, 61, 53
2, 33708, Note_on_c, 0, 53, 49
2, 33785, Note_off_c, 0, 78, 64
2, 33794, Note_off_c, 0, 61, 64
2, 33796, Note_off_c, 0, 53, 64
2, 33818, Note_off_c, 0, 68, 64
2, 33827, Note_on_c, 0, 77, 55
2, 33871, Control_c, 0, 64, 0
2, 33873, Note_on_c, 0, 67, 55
2, 33880, Note_on_c, 0, 44, 50
2, 33883, Control_c, 0, 64, 0
2, 33914, Control_c, 0, 64, 127
2, 33926, Control_c, 0, 64, 127
2, 33931, Note_off_c, 0, 77, 64
2, 33978, Note_off_c, 0, 67, 64
2, 33978, Note_on_c, 0, 77, 50
2, 34028, Control_c, 0, 64, 0
2, 34034, Note_on_c, 0, 66, 63
2, 34036, Note_on_c, 0, 60, 53
2, 34036, Note_on_c, 0, 56, 40
2, 34039, Note_on_c, 0, 51, 49
2, 34040, Control_c, 0, 64, 0
2, 34045, Note_off_c, 0, 44, 64
2, 34048, Control_c, 0, 64, 127
2, 34060, Control_c, 0, 64, 127
2, 34107, Note_off_c, 0, 77, 64
2, 34124, Note_off_c, 0, 56, 64
2, 34124, Note_off_c, 0, 60, 64
2, 34127, Note_off_c, 0, 51, 64
2, 34140, Note_off_c, 0, 66, 64
2, 34143, Note_on_c, 0, 77, 58
2, 34212, Note_on_c, 0, 60, 58
2, 34212, Note_on_c, 0, 56, 33
2, 34212, Note_on_c, 0, 51, 40
2, 34214, Note_on_c, 0, 66, 58
2, 34300, Note_off_c, 0, 51, 64
2, 34300, Note_off_c, 0, 56, 64
2, 34300, Note_off_c, 0, 60, 64
2, 34314, Note_off_c, 0, 77, 64
2, 34316, Note_on_c, 0, 75, 50
2, 34333, Note_off_c, 0, 66, 64
2, 34379, Control_c, 0, 64, 0
2, 34380, Note_on_c, 0, 65, 58
2, 34382, Note_on_c, 0, 49, 55
2, 34391, Control_c, 0, 64, 0
2, 34430, Note_off_c, 0, 75, 64
2, 34433, Control_c, 0, 64, 127
2, 34445, Control_c, 0, 64, 127
2, 34492, Note_on_c, 0, 75, 40
2, 34540, Note_off_c, 0, 65, 64
2, 34547, Note_off_c, 0, 49, 64
2, 34560, Note_on_c, 0, 65, 67
2, 34564, Note_on_c, 0, 61, 46
2, 34564, Note_on_c, 0, 53, 40
2, 34567, Note_on_c, 0, 73, 63
2, 34568, Note_on_c, 0, 56, 39
2, 34572, Note_off_c, 0, 75, 64
2, 34622, Note_on_c, 0, 75, 55
2, 34630, Note_off_c, 0, 73, 64
2, 34652, Note_off_c, 0, 53, 64
2, 34652, Note_off_c, 0, 61, 64
2, 34656, Note_off_c, 0, 56, 64
2, 34667, Control_c, 0, 64, 0
2, 34667, Note_on_c, 0, 73, 40
2, 34673, Note_off_c, 0, 75, 64
2, 34679, Control_c, 0, 64, 0
2, 34712, Note_on_c, 0, 43, 49
2, 34718, Note_on_c, 0, 72, 65
2, 34719, Note_on_c, 0, 64, 54
2, 34720, Note_off_c, 0, 65, 64
2, 34725, Control_c, 0, 64, 0
2, 34731, Note_off_c, 0, 73, 64
2, 34737, Control_c, 0, 64, 0
2, 34762, Control_c, 0, 64, 127
2, 34774, Control_c, 0, 64, 127
2, 34788, Note_off_c, 0, 72, 64
2, 34816, Note_on_c, 0, 70, 58
2, 34823, Note_off_c, 0, 64, 64
2, 34856, Note_off_c, 0, 70, 64
2, 34876, Control_c, 0, 64, 0
2, 34876, Note_on_c, 0, 60, 58
2, 34877, Note_off_c, 0, 43, 64
2, 34878, Note_on_c, 0, 70, 65
2, 34881, Note_on_c, 0, 44, 55
2, 34888, Control_c, 0, 64, 0
2, 34929, Control_c, 0, 64, 127
2, 34941, Control_c, 0, 64, 127
2, 34984, Note_on_c, 0, 66, 26
2, 34985, Note_on_c, 0, 68, 49
2, 35011, Note_off_c, 0, 60, 64
2, 35013, Note_off_c, 0, 70, 64
2, 35034, Control_c, 0, 64, 0
2, 35044, Note_on_c, 0, 51, 44
2, 35045, Note_on_c, 0, 60, 55
2, 35045, Note_on_c, 0, 56, 49
2, 35046, Note_off_c, 0, 44, 64
2, 35046, Control_c, 0, 64, 0
2, 35069, Note_off_c, 0, 66, 64
2, 35070, Note_off_c, 0, 68, 64
2, 35132, Note_off_c, 0, 51, 64
2, 35133, Note_off_c, 0, 56, 64
2, 35136, Note_on_c, 0, 68, 61
2, 35136, Note_on_c, 0, 66, 61
2, 35156, Note_off_c, 0, 60, 64
2, 35212, Note_on_c, 0, 75, 65
2, 35214, Control_c, 0, 64, 127
2, 35226, Control_c, 0, 64, 127
2, 35227, Note_off_c, 0, 66, 64
2, 35227, Note_off_c, 0, 68, 64
2, 35232, Note_on_c, 0, 60, 53
2, 35235, Note_on_c, 0, 56, 54
2, 35238, Note_on_c, 0, 51, 44
2, 35320, Note_off_c, 0, 60, 64
2, 35323, Note_off_c, 0, 56, 64
2, 35326, Note_off_c, 0, 51, 64
2, 35375, Note_off_c, 0, 75, 64
2, 35386, Control_c, 0, 64, 0
2, 35386, Note_on_c, 0, 70, 55
2, 35392, Note_on_c, 0, 37, 68
2, 35398, Control_c, 0, 64, 0
2, 35442, Control_c, 0, 64, 127
2, 35454, Control_c, 0, 64, 127
2, 35493, Note_on_c, 0, 68, 40
2, 35496, Note_on_c, 0, 65, 50
2, 35504, Note_off_c, 0, 70, 64
2, 35544, Note_on_c, 0, 56, 36
2, 35548, Control_c, 0, 64, 0
2, 35551, Note_on_c, 0, 61, 31
2, 35551, Note_on_c, 0, 53, 49
2, 35557, Note_off_c, 0, 37, 64
2, 35560, Control_c, 0, 64, 0
2, 35578, Note_off_c, 0, 68, 64
2, 35581, Note_off_c, 0, 65, 64
2, 35586, Control_c, 0, 64, 127
2, 35598, Control_c, 0, 64, 127
2, 35632, Note_off_c, 0, 56, 64
2, 35639, Note_off_c, 0, 53, 64
2, 35639, Note_off_c, 0, 61, 64
2, 35641, Note_on_c, 0, 68, 53
2, 35642, Note_on_c, 0, 65, 59
2, 35707, Control_c, 0, 64, 0
2, 35719, Control_c, 0, 64, 0
2, 35726, Note_off_c, 0, 68, 64
2, 35727, Note_off_c, 0, 65, 64
2, 35733, Note_on_c, 0, 77, 65
2, 35743, Note_on_c, 0, 61, 58
2, 35743, Note_on_c, 0, 56, 49
2, 35743, Note_on_c, 0, 53, 49
2, 35763, Control_c, 0, 64, 127
2, 35775, Control_c, 0, 64, 127
2, 35831, Note_off_c, 0, 53, 64
2, 35831, Note_off_c, 0, 56, 64
2, 35831, Note_off_c, 0, 61, 64
2, 35883, Control_c, 0, 64, 0
2, 35894, Note_off_c, 0, 77, 64
2, 35895, Control_c, 0, 64, 0
2, 35902, Note_on_c, 0, 70, 53
2, 35902, Note_on_c, 0, 44, 58
2, 35941, Control_c, 0, 64, 127
2, 35953, Control_c, 0, 64, 127
2, 36000, Note_on_c, 0, 68, 40
2, 36000, Note_on_c, 0, 66, 44
2, 36019, Note_off_c, 0, 70, 64
2, 36044, Control_c, 0, 64, 0
2, 36056, Control_c, 0, 64, 0
2, 36060, Note_on_c, 0, 60, 45
2, 36065, Note_on_c, 0, 56, 63
2, 36066, Note_on_c, 0, 51, 59
2, 36067, Note_off_c, 0, 44, 64
2, 36085, Note_off_c, 0, 66, 64
2, 36085, Note_off_c, 0, 68, 64
2, 36088, Control_c, 0, 64, 127
2, 36100, Control_c, 0, 64, 127
2, 36148, Note_off_c, 0, 60, 64
2, 36149, Note_on_c, 0, 68, 61
2, 36149, Note_on_c, 0, 66, 58
2, 36153, Note_off_c, 0, 56, 64
2, 36154, Note_off_c, 0, 51, 64
2, 36219, Control_c, 0, 64, 0
2, 36229, Note_on_c, 0, 78, 67
2, 36231, Control_c, 0, 64, 0
2, 36232, Note_on_c, 0, 60, 49
2, 36232, Note_on_c, 0, 56, 36
2, 36234, Note_off_c, 0, 66, 64
2, 36234, Note_off_c, 0, 68, 64
2, 36236, Note_on_c, 0, 51, 40
2, 36275, Control_c, 0, 64, 127
2, 36287, Control_c, 0, 64, 127
2, 36320, Note_off_c, 0, 56, 64
2, 36320, Note_off_c, 0, 60, 64
2, 36324, Note_off_c, 0, 51, 64
2, 36372, Note_on_c, 0, 73, 55
2, 36372, Note_on_c, 0, 71, 46
2, 36376, Note_on_c, 0, 65, 55
2, 36390, Note_off_c, 0, 78, 64
2, 36400, Control_c, 0, 64, 0
2, 36406, Note_on_c, 0, 49, 53
2, 36412, Control_c, 0, 64, 0
2, 36414, Note_on_c, 0, 82, 83
2, 36448, Control_c, 0, 64, 127
2, 36460, Control_c, 0, 64, 127
2, 36470, Note_off_c, 0, 65, 64
2, 36487, Note_off_c, 0, 71, 64
2, 36487, Note_off_c, 0, 73, 64
2, 36554, Control_c, 0, 64, 0
2, 36566, Control_c, 0, 64, 0
2, 36571, Note_off_c, 0, 49, 64
2, 36573, Note_on_c, 0, 56, 46
2, 36576, Note_on_c, 0, 59, 44
2, 36577, Note_on_c, 0, 65, 49
2, 36594, Control_c, 0, 64, 127
2, 36606, Control_c, 0, 64, 127
2, 36661, Note_off_c, 0, 56, 64
2, 36664, Note_off_c, 0, 59, 64
2, 36665, Note_off_c, 0, 65, 64
2, 36701, Note_off_c, 0, 82, 64
2, 36710, Note_on_c, 0, 80, 45
2, 36726, Control_c, 0, 64, 0
2, 36738, Note_on_c, 0, 71, 55
2, 36738, Control_c, 0, 64, 0
2, 36745, Note_on_c, 0, 50, 49
2, 36787, Control_c, 0, 64, 127
2, 36799, Control_c, 0, 64, 127
2, 36820, Note_off_c, 0, 71, 64
2, 36831, Note_off_c, 0, 80, 64
2, 36873, Control_c, 0, 64, 0
2, 36876, Note_on_c, 0, 80, 59
2, 36885, Control_c, 0, 64, 0
2, 36895, Note_on_c, 0, 70, 65
2, 36900, Note_on_c, 0, 51, 55
2, 36910, Note_off_c, 0, 50, 64
2, 36938, Control_c, 0, 64, 127
2, 36950, Control_c, 0, 64, 127
2, 36994, Note_off_c, 0, 80, 64
2, 37004, Note_off_c, 0, 70, 64
2, 37035, Note_on_c, 0, 80, 61
2, 37037, Control_c, 0, 64, 0
2, 37049, Control_c, 0, 64, 0
2, 37056, Note_on_c, 0, 70, 59
2, 37056, Note_on_c, 0, 63, 46
2, 37056, Note_on_c, 0, 54, 39
2, 37063, Note_on_c, 0, 58, 41
2, 37065, Note_off_c, 0, 51, 64
2, 37069, Control_c, 0, 64, 127
2, 37081, Control_c, 0, 64, 127
2, 37131, Note_off_c, 0, 70, 64
2, 37144, Note_off_c, 0, 54, 64
2, 37144, Note_off_c, 0, 63, 64
2, 37151, Note_off_c, 0, 58, 64
2, 37153, Note_off_c, 0, 80, 64
2, 37178, Note_on_c, 0, 80, 59
2, 37204, Control_c, 0, 64, 0
2, 37210, Note_on_c, 0, 42, 49
2, 37216, Note_on_c, 0, 70, 55
2, 37216, Control_c, 0, 64, 0
2, 37253, Control_c, 0, 64, 127
2, 37265, Control_c, 0, 64, 127
2, 37278, Note_off_c, 0, 70, 64
2, 37320, Note_off_c, 0, 80, 64
2, 37327, Note_on_c, 0, 78, 53
2, 37366, Note_on_c, 0, 69, 55
2, 37372, Note_on_c, 0, 44, 53
2, 37372, Control_c, 0, 64, 0
2, 37375, Note_off_c, 0, 42, 64
2, 37384, Control_c, 0, 64, 0
2, 37407, Control_c, 0, 64, 127
2, 37419, Control_c, 0, 64, 127
2, 37460, Note_off_c, 0, 69, 64
2, 37467, Note_off_c, 0, 78, 64
2, 37493, Note_on_c, 0, 78, 40
2, 37532, Note_on_c, 0, 68, 67
2, 37535, Note_on_c, 0, 53, 46
2, 37536, Control_c, 0, 64, 0
2, 37536, Note_on_c, 0, 61, 54
2, 37537, Note_off_c, 0, 44, 64
2, 37548, Control_c, 0, 64, 0
2, 37560, Control_c, 0, 64, 127
2, 37572, Control_c, 0, 64, 127
2, 37612, Note_off_c, 0, 68, 64
2, 37623, Note_off_c, 0, 53, 64
2, 37624, Note_off_c, 0, 61, 64
2, 37624, Note_off_c, 0, 78, 64
2, 37644, Note_on_c, 0, 78, 53
2, 37692, Note_on_c, 0, 68, 53
2, 37692, Note_on_c, 0, 61, 53
2, 37697, Note_on_c, 0, 53, 49
2, 37773, Note_off_c, 0, 78, 64
2, 37780, Note_off_c, 0, 61, 64
2, 37781, Note_off_c, 0, 68, 64
2, 37785, Note_off_c, 0, 53, 64
2, 37795, Note_on_c, 0, 77, 39
2, 37837, Note_on_c, 0, 67, 54
2, 37838, Control_c, 0, 64, 0
2, 37845, Note_on_c, 0, 44, 58
2, 37850, Control_c, 0, 64, 0
2, 37874, Control_c, 0, 64, 127
2, 37886, Control_c, 0, 64, 127
2, 37909, Note_off_c, 0, 77, 64
2, 37943, Note_off_c, 0, 67, 64
2, 37944, Note_on_c, 0, 76, 50
2, 38002, Control_c, 0, 64, 0
2, 38005, Note_on_c, 0, 66, 65
2, 38008, Note_on_c, 0, 60, 55
2, 38008, Note_on_c, 0, 54, 45
2, 38008, Note_on_c, 0, 51, 46
2, 38010, Note_off_c, 0, 44, 64
2, 38014, Control_c, 0, 64, 0
2, 38031, Control_c, 0, 64, 127
2, 38043, Control_c, 0, 64, 127
2, 38067, Note_off_c, 0, 76, 64
2, 38096, Note_off_c, 0, 51, 64
2, 38096, Note_off_c, 0, 54, 64
2, 38096, Note_off_c, 0, 60, 64
2, 38107, Note_on_c, 0, 75, 58
2, 38115, Note_off_c, 0, 66, 64
2, 38150, Control_c, 0, 64, 0
2, 38162, Control_c, 0, 64, 0
2, 38167, Note_on_c, 0, 65, 55
2, 38175, Control_c, 0, 64, 127
2, 38187, Control_c, 0, 64, 127
2, 38212, Note_off_c, 0, 75, 64
2, 38266, Note_off_c, 0, 65, 64
2, 38275, Note_on_c, 0, 74, 40
2, 38302, Control_c, 0, 64, 0
2, 38314, Control_c, 0, 64, 0
2, 38321, Note_on_c, 0, 64, 55
2, 38336, Control_c, 0, 64, 127
2, 38348, Control_c, 0, 64, 127
2, 38383, Note_off_c, 0, 74, 64
2, 38413, Note_off_c, 0, 64, 64
2, 38427, Note_on_c, 0, 73, 46
2, 38465, Control_c, 0, 64, 0
2, 38477, Control_c, 0, 64, 0
2, 38488, Note_on_c, 0, 63, 65
2, 38532, Control_c, 0, 64, 127
2, 38544, Control_c, 0, 64, 127
2, 38554, Note_off_c, 0, 73, 64
2, 38622, Note_on_c, 0, 73, 53
2, 38627, Note_off_c, 0, 63, 64
2, 38656, Control_c, 0, 64, 0
2, 38668, Control_c, 0, 64, 0
2, 38680, Control_c, 0, 64, 127
2, 38691, Note_on_c, 0, 63, 65
2, 38692, Control_c, 0, 64, 127
2, 38814, Note_off_c, 0, 73, 64
2, 38871, Note_on_c, 0, 73, 67
2, 38947, Note_off_c, 0, 63, 64
2, 38996, Note_on_c, 0, 63, 58
2, 39010, Note_on_c, 0, 41, 53
2, 39019, Control_c, 0, 64, 0
2, 39031, Control_c, 0, 64, 0
2, 39064, Control_c, 0, 64, 127
2, 39076, Control_c, 0, 64, 127
2, 39175, Note_off_c, 0, 41, 64
2, 39305, Note_on_c, 0, 53, 44
2, 39315, Note_on_c, 0, 60, 44
2, 39327, Control_c, 0, 64, 0
2, 39339, Control_c, 0, 64, 0
2, 39352, Note_off_c, 0, 63, 64
2, 39359, Control_c, 0, 64, 127
2, 39371, Control_c, 0, 64, 127
2, 39393, Note_off_c, 0, 53, 64
2, 39403, Note_off_c, 0, 60, 64
2, 39422, Note_off_c, 0, 73, 64
2, 39423, Note_on_c, 0, 69, 45
2, 39423, Note_on_c, 0, 66, 44
2, 39526, Note_off_c, 0, 66, 64
2, 39526, Note_off_c, 0, 69, 64
2, 39545, Note_on_c, 0, 73, 55
2, 39545, Note_on_c, 0, 65, 49
2, 39550, Note_on_c, 0, 53, 49
2, 39552, Note_on_c, 0, 60, 49
2, 39554, Control_c, 0, 64, 0
2, 39566, Control_c, 0, 64, 0
2, 39586, Control_c, 0, 64, 127
2, 39598, Control_c, 0, 64, 127
2, 39638, Note_off_c, 0, 53, 64
2, 39640, Note_off_c, 0, 60, 64
2, 39686, Note_on_c, 0, 69, 45
2, 39689, Note_off_c, 0, 65, 64
2, 39689, Note_off_c, 0, 73, 64
2, 39689, Note_on_c, 0, 63, 49
2, 39723, Note_off_c, 0, 63, 64
2, 39741, Note_off_c, 0, 69, 64
2, 39761, Note_on_c, 0, 69, 49
2, 39765, Note_on_c, 0, 63, 63
2, 39769, Control_c, 0, 64, 0
2, 39769, Note_on_c, 0, 46, 49
2, 39781, Control_c, 0, 64, 0
2, 39811, Control_c, 0, 64, 127
2, 39823, Control_c, 0, 64, 127
2, 39854, Note_off_c, 0, 69, 64
2, 39881, Note_off_c, 0, 63, 64
2, 39893, Note_on_c, 0, 70, 55
2, 39900, Note_on_c, 0, 61, 61
2, 39927, Note_off_c, 0, 70, 64
2, 39928, Note_off_c, 0, 61, 64
2, 39934, Note_off_c, 0, 46, 64
2, 39952, Note_on_c, 0, 70, 63
2, 39952, Note_on_c, 0, 61, 61
2, 39955, Control_c, 0, 64, 0
2, 39960, Note_on_c, 0, 58, 49
2, 39961, Note_on_c, 0, 53, 53
2, 39967, Control_c, 0, 64, 0
2, 39981, Control_c, 0, 64, 127
2, 39993, Control_c, 0, 64, 127
2, 40048, Note_off_c, 0, 58, 64
2, 40049, Note_off_c, 0, 53, 64
2, 40097, Note_off_c, 0, 61, 64
2, 40097, Note_off_c, 0, 70, 64
2, 40147, Note_on_c, 0, 70, 63
2, 40149, Note_on_c, 0, 61, 49
2, 40151, Note_on_c, 0, 67, 58
2, 40157, Note_on_c, 0, 51, 49
2, 40160, Control_c, 0, 64, 0
2, 40172, Control_c, 0, 64, 0
2, 40201, Control_c, 0, 64, 127
2, 40213, Control_c, 0, 64, 127
2, 40237, Note_off_c, 0, 61, 64
2, 40245, Note_off_c, 0, 51, 64
2, 40316, Note_off_c, 0, 70, 64
2, 40320, Note_off_c, 0, 67, 64
2, 40343, Note_on_c, 0, 44, 49
2, 40345, Note_on_c, 0, 68, 63
2, 40351, Control_c, 0, 64, 0
2, 40351, Note_on_c, 0, 77, 65
2, 40363, Control_c, 0, 64, 0
2, 40393, Control_c, 0, 64, 127
2, 40405, Control_c, 0, 64, 127
2, 40508, Note_off_c, 0, 44, 64
2, 40525, Note_on_c, 0, 56, 55
2, 40530, Note_on_c, 0, 66, 49
2, 40531, Control_c, 0, 64, 0
2, 40543, Control_c, 0, 64, 0
2, 40577, Control_c, 0, 64, 127
2, 40578, Note_off_c, 0, 68, 64
2, 40589, Control_c, 0, 64, 127
2, 40602, Note_on_c, 0, 72, 58
2, 40605, Note_on_c, 0, 69, 58
2, 40613, Note_off_c, 0, 56, 64
2, 40618, Note_off_c, 0, 66, 64
2, 40630, Note_off_c, 0, 77, 64
2, 40698, Note_on_c, 0, 66, 44
2, 40703, Note_on_c, 0, 77, 58
2, 40708, Control_c, 0, 64, 0
2, 40711, Note_off_c, 0, 72, 64
2, 40711, Note_on_c, 0, 68, 65
2, 40711, Note_on_c, 0, 56, 50
2, 40720, Control_c, 0, 64, 0
2, 40726, Note_off_c, 0, 69, 64
2, 40743, Control_c, 0, 64, 127
2, 40755, Control_c, 0, 64, 127
2, 40786, Note_off_c, 0, 66, 64
2, 40796, Note_off_c, 0, 77, 64
2, 40799, Note_off_c, 0, 56, 64
2, 40802, Note_on_c, 0, 72, 59
2, 40804, Note_off_c, 0, 68, 64
2, 40806, Note_on_c, 0, 66, 65
2, 40835, Note_off_c, 0, 66, 64
2, 40837, Note_off_c, 0, 72, 64
2, 40865, Control_c, 0, 64, 0
2, 40867, Note_on_c, 0, 72, 63
2, 40874, Note_on_c, 0, 66, 59
2, 40877, Control_c, 0, 64, 0
2, 40883, Note_on_c, 0, 49, 55
2, 40921, Control_c, 0, 64, 127
2, 40933, Control_c, 0, 64, 127
2, 40956, Note_off_c, 0, 72, 64
2, 40963, Note_off_c, 0, 66, 64
2, 40979, Note_off_c, 0, 49, 64
2, 40996, Note_on_c, 0, 73, 63
2, 41003, Note_on_c, 0, 65, 63
2, 41017, Note_off_c, 0, 65, 64
2, 41021, Note_off_c, 0, 73, 64
2, 41035, Control_c, 0, 64, 0
2, 41046, Note_on_c, 0, 73, 70
2, 41047, Control_c, 0, 64, 0
2, 41054, Note_on_c, 0, 65, 67
2, 41054, Note_on_c, 0, 61, 55
2, 41058, Note_on_c, 0, 56, 58
2, 41079, Control_c, 0, 64, 127
2, 41091, Control_c, 0, 64, 127
2, 41142, Note_off_c, 0, 61, 64
2, 41146, Note_off_c, 0, 56, 64
2, 41191, Note_off_c, 0, 73, 64
2, 41199, Note_off_c, 0, 65, 64
2, 41237, Note_on_c, 0, 71, 63
2, 41239, Note_on_c, 0, 73, 70
2, 41243, Control_c, 0, 64, 0
2, 41244, Note_on_c, 0, 65, 49
2, 41244, Note_on_c, 0, 55, 53
2, 41255, Control_c, 0, 64, 0
2, 41284, Control_c, 0, 64, 127
2, 41296, Control_c, 0, 64, 127
2, 41332, Note_off_c, 0, 55, 64
2, 41332, Note_off_c, 0, 65, 64
2, 41456, Note_on_c, 0, 80, 70
2, 41458, Control_c, 0, 64, 0
2, 41462, Note_on_c, 0, 72, 67
2, 41463, Note_on_c, 0, 48, 63
2, 41470, Control_c, 0, 64, 0
2, 41473, Note_off_c, 0, 71, 64
2, 41475, Note_off_c, 0, 73, 64
2, 41503, Control_c, 0, 64, 127
2, 41515, Control_c, 0, 64, 127
2, 41628, Note_off_c, 0, 48, 64
2, 41671, Control_c, 0, 64, 0
2, 41677, Note_on_c, 0, 60, 53
2, 41683, Note_on_c, 0, 70, 40
2, 41683, Control_c, 0, 64, 0
2, 41688, Control_c, 0, 64, 127
2, 41690, Note_on_c, 0, 67, 39
2, 41700, Control_c, 0, 64, 127
2, 41712, Note_off_c, 0, 80, 64
2, 41736, Note_on_c, 0, 76, 65
2, 41740, Note_off_c, 0, 72, 64
2, 41740, Note_on_c, 0, 73, 53
2, 41765, Note_off_c, 0, 60, 64
2, 41771, Note_off_c, 0, 70, 64
2, 41778, Note_off_c, 0, 67, 64
2, 41827, Note_on_c, 0, 70, 58
2, 41829, Note_on_c, 0, 60, 61
2, 41835, Note_off_c, 0, 73, 64
2, 41838, Note_on_c, 0, 80, 68
2, 41838, Note_on_c, 0, 67, 55
2, 41839, Note_on_c, 0, 72, 70
2, 41842, Note_off_c, 0, 76, 64
2, 41915, Note_off_c, 0, 80, 64
2, 41915, Note_off_c, 0, 70, 64
2, 41915, Note_on_c, 0, 76, 63
2, 41916, Note_off_c, 0, 72, 64
2, 41917, Note_off_c, 0, 60, 64
2, 41918, Note_on_c, 0, 70, 70
2, 41926, Note_off_c, 0, 67, 64
2, 41957, Note_off_c, 0, 70, 64
2, 41965, Note_off_c, 0, 76, 64
2, 41982, Control_c, 0, 64, 0
2, 41986, Note_on_c, 0, 70, 67
2, 41991, Note_on_c, 0, 76, 59
2, 41994, Control_c, 0, 64, 0
2, 42003, Note_on_c, 0, 53, 59
2, 42038, Control_c, 0, 64, 127
2, 42050, Control_c, 0, 64, 127
2, 42112, Note_on_c, 0, 69, 65
2, 42116, Note_on_c, 0, 77, 67
2, 42122, Note_off_c, 0, 76, 64
2, 42122, Note_off_c, 0, 70, 64
2, 42143, Note_off_c, 0, 69, 64
2, 42145, Note_off_c, 0, 77, 64
2, 42156, Note_on_c, 0, 65, 59
2, 42156, Note_on_c, 0, 60, 59
2, 42162, Note_on_c, 0, 77, 70
2, 42166, Note_on_c, 0, 69, 67
2, 42244, Note_off_c, 0, 60, 64
2, 42244, Note_off_c, 0, 65, 64
2, 42307, Note_off_c, 0, 77, 64
2, 42311, Note_off_c, 0, 69, 64
2, 42348, Note_on_c, 0, 89, 70
2, 42348, Note_on_c, 0, 77, 65
2, 42358, Note_on_c, 0, 69, 49
2, 42364, Note_on_c, 0, 60, 58
2, 42408, Note_off_c, 0, 53, 64
2, 42446, Note_off_c, 0, 69, 64
2, 42452, Note_off_c, 0, 60, 64
2, 42511, Control_c, 0, 64, 0
2, 42523, Control_c, 0, 64, 0
2, 42530, Note_on_c, 0, 41, 65
2, 42557, Control_c, 0, 64, 127
2, 42569, Control_c, 0, 64, 127
2, 42576, Note_off_c, 0, 77, 64
2, 42579, Note_off_c, 0, 89, 64
2, 42644, Note_on_c, 0, 78, 70
2, 42648, Note_on_c, 0, 90, 70
2, 42660, Note_off_c, 0, 78, 64
2, 42667, Note_off_c, 0, 90, 64
2, 42692, Note_on_c, 0, 90, 70
2, 42692, Note_on_c, 0, 63, 55
2, 42696, Note_on_c, 0, 78, 70
2, 42701, Note_on_c, 0, 60, 55
2, 42706, Note_on_c, 0, 69, 58
2, 42795, Control_c, 0, 64, 0
2, 42807, Control_c, 0, 64, 0
2, 42858, Note_off_c, 0, 63, 64
2, 42879, Note_off_c, 0, 60, 64
2, 42881, Note_off_c, 0, 69, 64
2, 42884, Note_on_c, 0, 63, 44
2, 42891, Note_on_c, 0, 72, 24
2, 42892, Note_on_c, 0, 69, 70
2, 42945, Note_off_c, 0, 90, 64
2, 42954, Note_off_c, 0, 78, 64
2, 42972, Note_off_c, 0, 63, 64
2, 42979, Note_off_c, 0, 72, 64
2, 43031, Note_off_c, 0, 41, 64
2, 43083, Note_on_c, 0, 46, 41
2, 43158, Note_on_c, 0, 72, 54
2, 43169, Control_c, 0, 64, 0
2, 43172, Note_off_c, 0, 69, 64
2, 43181, Control_c, 0, 64, 0
2, 43223, Control_c, 0, 64, 127
2, 43235, Control_c, 0, 64, 127
2, 43341, Note_on_c, 0, 61, 29
2, 43348, Note_on_c, 0, 53, 44
2, 43417, Note_on_c, 0, 70, 45
2, 43421, Note_off_c, 0, 46, 64
2, 43424, Note_off_c, 0, 72, 64
2, 43429, Note_off_c, 0, 61, 64
2, 43436, Note_off_c, 0, 53, 64
2, 43467, Note_off_c, 0, 70, 64
2, 43521, Note_on_c, 0, 61, 40
2, 43522, Note_on_c, 0, 70, 59
2, 43529, Note_on_c, 0, 53, 40
2, 43578, Note_on_c, 0, 68, 58
2, 43597, Note_off_c, 0, 70, 64
2, 43609, Note_off_c, 0, 61, 64
2, 43617, Note_off_c, 0, 53, 64
2, 43633, Note_on_c, 0, 66, 53
2, 43656, Note_off_c, 0, 68, 64
2, 43705, Note_on_c, 0, 65, 53
2, 43706, Control_c, 0, 64, 0
2, 43708, Note_on_c, 0, 73, 67
2, 43708, Note_on_c, 0, 46, 33
2, 43718, Control_c, 0, 64, 0
2, 43723, Note_off_c, 0, 66, 64
2, 43761, Control_c, 0, 64, 127
2, 43773, Control_c, 0, 64, 127
2, 43819, Note_on_c, 0, 68, 40
2, 43830, Note_off_c, 0, 65, 64
2, 43851, Note_on_c, 0, 66, 49
2, 43873, Note_off_c, 0, 46, 64
2, 43875, Note_off_c, 0, 68, 64
2, 43885, Control_c, 0, 64, 0
2, 43894, Note_on_c, 0, 53, 49
2, 43896, Note_on_c, 0, 60, 46
2, 43897, Control_c, 0, 64, 0
2, 43900, Note_on_c, 0, 63, 44
2, 43903, Note_on_c, 0, 65, 54
2, 43908, Note_off_c, 0, 66, 64
2, 43940, Control_c, 0, 64, 127
2, 43947, Note_off_c, 0, 73, 64
2, 43952, Control_c, 0, 64, 127
2, 43973, Note_on_c, 0, 69, 58
2, 43982, Note_off_c, 0, 53, 64
2, 43982, Note_on_c, 0, 66, 45
2, 43984, Note_off_c, 0, 60, 64
2, 43988, Note_off_c, 0, 63, 64
2, 43997, Note_off_c, 0, 65, 64
2, 44064, Note_on_c, 0, 65, 55
2, 44064, Note_on_c, 0, 63, 45
2, 44066, Note_off_c, 0, 66, 64
2, 44066, Note_on_c, 0, 60, 46
2, 44066, Note_on_c, 0, 53, 49
2, 44073, Note_off_c, 0, 69, 64
2, 44073, Note_on_c, 0, 73, 67
2, 44120, Note_off_c, 0, 63, 64
2, 44121, Note_off_c, 0, 65, 64
2, 44133, Note_on_c, 0, 69, 58
2, 44138, Note_off_c, 0, 73, 64
2, 44140, Note_on_c, 0, 63, 55
2, 44154, Note_off_c, 0, 53, 64
2, 44154, Note_off_c, 0, 60, 64
2, 44190, Note_off_c, 0, 69, 64
2, 44201, Note_off_c, 0, 63, 64
2, 44211, Control_c, 0, 64, 0
2, 44216, Note_on_c, 0, 69, 55
2, 44220, Note_on_c, 0, 63, 55
2, 44222, Note_on_c, 0, 46, 49
2, 44223, Control_c, 0, 64, 0
2, 44268, Control_c, 0, 64, 127
2, 44280, Control_c, 0, 64, 127
2, 44281, Note_off_c, 0, 63, 64
2, 44285, Note_off_c, 0, 69, 64
2, 44333, Note_on_c, 0, 70, 49
2, 44333, Note_on_c, 0, 61, 65
2, 44353, Note_off_c, 0, 70, 64
2, 44358, Note_off_c, 0, 61, 64
2, 44376, Control_c, 0, 64, 0
2, 44383, Note_on_c, 0, 61, 59
2, 44384, Note_on_c, 0, 70, 65
2, 44384, Note_on_c, 0, 58, 54
2, 44384, Note_on_c, 0, 53, 54
2, 44387, Note_off_c, 0, 46, 64
2, 44388, Control_c, 0, 64, 0
2, 44424, Control_c, 0, 64, 127
2, 44436, Control_c, 0, 64, 127
2, 44465, Control_c, 0, 64, 0
2, 44472, Note_off_c, 0, 53, 64
2, 44472, Note_off_c, 0, 58, 64
2, 44477, Control_c, 0, 64, 0
2, 44540, Note_off_c, 0, 61, 64
2, 44541, Note_off_c, 0, 70, 64
2, 44572, Note_on_c, 0, 70, 50
2, 44572, Note_on_c, 0, 67, 53
2, 44572, Note_on_c, 0, 51, 49
2, 44575, Note_on_c, 0, 61, 49
2, 44584, Control_c, 0, 64, 0
2, 44596, Control_c, 0, 64, 0
2, 44640, Note_off_c, 0, 70, 64
2, 44640, Note_on_c, 0, 72, 55
2, 44642, Control_c, 0, 64, 127
2, 44654, Control_c, 0, 64, 127
2, 44660, Note_off_c, 0, 51, 64
2, 44663, Note_off_c, 0, 61, 64
2, 44667, Note_off_c, 0, 67, 64
2, 44687, Note_on_c, 0, 70, 61
2, 44697, Note_off_c, 0, 72, 64
2, 44766, Note_off_c, 0, 70, 64
2, 44772, Note_on_c, 0, 44, 31
2, 44805, Note_on_c, 0, 68, 53
2, 44810, Control_c, 0, 64, 0
2, 44814, Note_on_c, 0, 77, 58
2, 44822, Control_c, 0, 64, 0
2, 44865, Control_c, 0, 64, 127
2, 44877, Control_c, 0, 64, 127
2, 44937, Note_off_c, 0, 44, 64
2, 44938, Note_on_c, 0, 71, 53
2, 44942, Note_off_c, 0, 68, 64
2, 44978, Note_on_c, 0, 69, 59
2, 44987, Note_off_c, 0, 71, 64
2, 44992, Control_c, 0, 64, 0
2, 45004, Control_c, 0, 64, 0
2, 45008, Note_on_c, 0, 63, 59
2, 45010, Note_on_c, 0, 56, 49
2, 45012, Note_on_c, 0, 68, 63
2, 45012, Note_on_c, 0, 66, 55
2, 45023, Note_off_c, 0, 69, 64
2, 45038, Control_c, 0, 64, 127
2, 45050, Control_c, 0, 64, 127
2, 45053, Note_off_c, 0, 77, 64
2, 45086, Note_on_c, 0, 72, 55
2, 45089, Note_on_c, 0, 69, 55
2, 45096, Note_off_c, 0, 68, 64
2, 45096, Note_off_c, 0, 63, 64
2, 45098, Note_off_c, 0, 56, 64
2, 45100, Note_off_c, 0, 66, 64
2, 45156, Control_c, 0, 64, 0
2, 45168, Control_c, 0, 64, 0
2, 45172, Note_on_c, 0, 63, 46
2, 45176, Note_on_c, 0, 56, 46
2, 45177, Note_off_c, 0, 69, 64
2, 45177, Note_on_c, 0, 68, 61
2, 45180, Note_on_c, 0, 66, 55
2, 45181, Note_on_c, 0, 77, 59
2, 45184, Note_off_c, 0, 72, 64
2, 45186, Control_c, 0, 64, 127
2, 45198, Control_c, 0, 64, 127
2, 45240, Note_off_c, 0, 66, 64
2, 45249, Note_off_c, 0, 68, 64
2, 45250, Note_on_c, 0, 72, 55
2, 45252, Note_on_c, 0, 66, 55
2, 45253, Note_off_c, 0, 77, 64
2, 45260, Note_off_c, 0, 63, 64
2, 45264, Note_off_c, 0, 56, 64
2, 45288, Note_off_c, 0, 72, 64
2, 45289, Note_off_c, 0, 66, 64
2, 45301, Control_c, 0, 64, 0
2, 45313, Control_c, 0, 64, 0
2, 45321, Note_on_c, 0, 72, 65
2, 45321, Note_on_c, 0, 66, 65
2, 45329, Note_on_c, 0, 49, 61
2, 45362, Control_c, 0, 64, 127
2, 45374, Control_c, 0, 64, 127
2, 45387, Note_off_c, 0, 66, 64
2, 45387, Note_off_c, 0, 72, 64
2, 45436, Note_on_c, 0, 73, 65
2, 45440, Note_on_c, 0, 65, 59
2, 45456, Control_c, 0, 64, 0
2, 45464, Note_off_c, 0, 65, 64
2, 45465, Note_off_c, 0, 73, 64
2, 45468, Control_c, 0, 64, 0
2, 45481, Note_on_c, 0, 73, 70
2, 45485, Note_on_c, 0, 65, 58
2, 45488, Note_on_c, 0, 56, 59
2, 45491, Note_on_c, 0, 61, 53
2, 45494, Note_off_c, 0, 49, 64
2, 45510, Control_c, 0, 64, 127
2, 45522, Control_c, 0, 64, 127
2, 45528, Control_c, 0, 64, 0
2, 45540, Control_c, 0, 64, 0
2, 45576, Note_off_c, 0, 56, 64
2, 45579, Note_off_c, 0, 61, 64
2, 45626, Note_off_c, 0, 73, 64
2, 45630, Note_off_c, 0, 65, 64
2, 45660, Note_on_c, 0, 73, 70
2, 45660, Note_on_c, 0, 71, 63
2, 45665, Control_c, 0, 64, 0
2, 45667, Note_on_c, 0, 65, 53
2, 45667, Note_on_c, 0, 55, 53
2, 45677, Control_c, 0, 64, 0
2, 45703, Control_c, 0, 64, 127
2, 45715, Control_c, 0, 64, 127
2, 45721, Note_off_c, 0, 71, 64
2, 45722, Note_on_c, 0, 75, 70
2, 45727, Note_off_c, 0, 73, 64
2, 45755, Note_off_c, 0, 55, 64
2, 45755, Note_off_c, 0, 65, 64
2, 45772, Note_on_c, 0, 73, 70
2, 45787, Note_off_c, 0, 75, 64
2, 45837, Control_c, 0, 64, 0
2, 45840, Note_on_c, 0, 72, 65
2, 45843, Note_on_c, 0, 80, 70
2, 45843, Note_on_c, 0, 48, 63
2, 45849, Control_c, 0, 64, 0
2, 45855, Note_off_c, 0, 73, 64
2, 45892, Control_c, 0, 64, 127
2, 45904, Control_c, 0, 64, 127
2, 45948, Note_on_c, 0, 75, 80
2, 45969, Note_off_c, 0, 72, 64
2, 45982, Note_on_c, 0, 73, 60
2, 46003, Control_c, 0, 64, 0
2, 46004, Note_off_c, 0, 75, 64
2, 46008, Note_off_c, 0, 48, 64
2, 46015, Control_c, 0, 64, 0
2, 46032, Note_on_c, 0, 70, 49
2, 46032, Note_on_c, 0, 60, 49
2, 46033, Note_on_c, 0, 72, 80
2, 46033, Note_on_c, 0, 67, 54
2, 46056, Control_c, 0, 64, 127
2, 46060, Note_off_c, 0, 73, 64
2, 46068, Control_c, 0, 64, 127
2, 46076, Note_off_c, 0, 80, 64
2, 46105, Note_on_c, 0, 76, 59
2, 46108, Note_on_c, 0, 73, 59
2, 46120, Note_off_c, 0, 60, 64
2, 46120, Note_off_c, 0, 70, 64
2, 46121, Note_off_c, 0, 67, 64
2, 46127, Note_off_c, 0, 72, 64
2, 46184, Note_on_c, 0, 72, 67
2, 46184, Note_on_c, 0, 70, 59
2, 46184, Note_on_c, 0, 67, 59
2, 46185, Note_on_c, 0, 80, 70
2, 46185, Note_on_c, 0, 60, 63
2, 46190, Note_off_c, 0, 76, 64
2, 46196, Note_off_c, 0, 73, 64
2, 46244, Note_off_c, 0, 70, 64
2, 46265, Note_on_c, 0, 76, 65
2, 46270, Note_on_c, 0, 70, 65
2, 46272, Note_off_c, 0, 67, 64
2, 46273, Note_off_c, 0, 60, 64
2, 46281, Note_off_c, 0, 72, 64
2, 46282, Note_off_c, 0, 80, 64
2, 46309, Note_off_c, 0, 70, 64
2, 46316, Note_off_c, 0, 76, 64
2, 46334, Control_c, 0, 64, 0
2, 46346, Control_c, 0, 64, 0
2, 46350, Note_on_c, 0, 76, 68
2, 46350, Note_on_c, 0, 70, 70
2, 46357, Note_on_c, 0, 53, 59
2, 46387, Control_c, 0, 64, 127
2, 46399, Control_c, 0, 64, 127
2, 46437, Note_off_c, 0, 76, 64
2, 46438, Note_off_c, 0, 70, 64
2, 46452, Note_on_c, 0, 77, 70
2, 46454, Note_on_c, 0, 69, 70
2, 46485, Note_off_c, 0, 69, 64
2, 46488, Note_off_c, 0, 77, 64
2, 46488, Control_c, 0, 64, 0
2, 46500, Control_c, 0, 64, 0
2, 46508, Note_on_c, 0, 77, 70
2, 46513, Note_on_c, 0, 69, 67
2, 46518, Note_on_c, 0, 60, 61
2, 46519, Note_on_c, 0, 65, 59
2, 46522, Note_off_c, 0, 53, 64
2, 46524, Control_c, 0, 64, 127
2, 46536, Control_c, 0, 64, 127
2, 46606, Note_off_c, 0, 60, 64
2, 46607, Note_off_c, 0, 65, 64
2, 46640, Note_off_c, 0, 77, 64
2, 46645, Note_off_c, 0, 69, 64
2, 46660, Note_on_c, 0, 53, 59
2, 46684, Note_on_c, 0, 60, 59
2, 46689, Note_on_c, 0, 89, 70
2, 46692, Note_on_c, 0, 77, 68
2, 46698, Note_on_c, 0, 69, 55
2, 46825, Note_off_c, 0, 53, 64
2, 46836, Note_off_c, 0, 60, 64
2, 46864, Note_off_c, 0, 69, 64
2, 46866, Note_off_c, 0, 89, 64
2, 46868, Note_off_c, 0, 77, 64
2, 46872, Note_on_c, 0, 92, 70
2, 46872, Note_on_c, 0, 41, 61
2, 46875, Control_c, 0, 64, 0
2, 46876, Note_on_c, 0, 80, 70
2, 46887, Control_c, 0, 64, 0
2, 46903, Control_c, 0, 64, 127
2, 46915, Control_c, 0, 64, 127
2, 46984, Note_off_c, 0, 80, 64
2, 46986, Note_off_c, 0, 92, 64
2, 47006, Note_on_c, 0, 90, 70
2, 47006, Note_on_c, 0, 78, 70
2, 47023, Note_off_c, 0, 78, 64
2, 47028, Note_off_c, 0, 90, 64
2, 47035, Control_c, 0, 64, 0
2, 47037, Note_off_c, 0, 41, 64
2, 47047, Control_c, 0, 64, 0
2, 47052, Note_on_c, 0, 72, 58
2, 47052, Note_on_c, 0, 69, 61
2, 47053, Note_on_c, 0, 78, 70
2, 47056, Note_on_c, 0, 90, 70
2, 47056, Note_on_c, 0, 63, 39
2, 47056, Note_on_c, 0, 60, 53
2, 47070, Control_c, 0, 64, 127
2, 47082, Control_c, 0, 64, 127
2, 47191, Note_off_c, 0, 69, 64
2, 47191, Note_off_c, 0, 72, 64
2, 47192, Note_off_c, 0, 78, 64
2, 47195, Note_off_c, 0, 60, 64
2, 47195, Note_off_c, 0, 63, 64
2, 47195, Note_off_c, 0, 90, 64
2, 47236, Note_on_c, 0, 63, 31
2, 47236, Note_on_c, 0, 60, 49
2, 47236, Note_on_c, 0, 53, 49
2, 47244, Note_on_c, 0, 69, 70
2, 47355, Control_c, 0, 64, 0
2, 47367, Control_c, 0, 64, 0
2, 47425, Note_off_c, 0, 53, 64
2, 47425, Note_off_c, 0, 60, 64
2, 47454, Note_off_c, 0, 63, 64
2, 47468, Note_on_c, 0, 70, 68
2, 47475, Note_on_c, 0, 46, 44
2, 47490, Note_off_c, 0, 69, 64
2, 47492, Control_c, 0, 64, 0
2, 47504, Control_c, 0, 64, 0
2, 47554, Control_c, 0, 64, 127
2, 47566, Control_c, 0, 64, 127
2, 47779, Note_on_c, 0, 61, 29
2, 47786, Note_on_c, 0, 53, 33
2, 47790, Control_c, 0, 64, 0
2, 47802, Control_c, 0, 64, 0
2, 47813, Control_c, 0, 64, 127
2, 47825, Control_c, 0, 64, 127
2, 47864, Note_off_c, 0, 46, 64
2, 47949, Note_off_c, 0, 61, 64
2, 47956, Note_off_c, 0, 53, 64
2, 48132, Note_off_c, 0, 70, 64
2, 48204, Note_on_c, 0, 77, 49
2, 48204, Note_on_c, 0, 65, 41
2, 48226, Control_c, 0, 64, 0
2, 48238, Control_c, 0, 64, 0
2, 48280, Control_c, 0, 64, 127
2, 48292, Control_c, 0, 64, 127
2, 48662, Note_on_c, 0, 78, 40
2, 48670, Note_on_c, 0, 66, 29
2, 48699, Control_c, 0, 64, 0
2, 48702, Note_off_c, 0, 65, 64
2, 48711, Control_c, 0, 64, 0
2, 48719, Note_off_c, 0, 77, 64
2, 48763, Control_c, 0, 64, 127
2, 48775, Control_c, 0, 64, 127
2, 48999, Note_off_c, 0, 66, 64
2, 48999, Note_on_c, 0, 61, 29
2, 49004, Note_on_c, 0, 73, 49
2, 49025, Note_off_c, 0, 78, 64
2, 49088, Note_off_c, 0, 73, 64
2, 49103, Note_on_c, 0, 64, 40
2, 49106, Note_on_c, 0, 76, 40
2, 49125, Note_off_c, 0, 61, 64
2, 49152, Control_c, 0, 64, 0
2, 49164, Control_c, 0, 64, 0
2, 49192, Note_on_c, 0, 72, 46
2, 49193, Control_c, 0, 64, 127
2, 49195, Note_on_c, 0, 60, 22
2, 49205, Control_c, 0, 64, 127
2, 49223, Note_off_c, 0, 76, 64
2, 49228, Control_c, 0, 64, 0
2, 49238, Note_off_c, 0, 64, 64
2, 49240, Control_c, 0, 64, 0
2, 49277, Note_on_c, 0, 70, 44
2, 49289, Note_on_c, 0, 58, 40
2, 49293, Note_off_c, 0, 72, 64
2, 49319, Note_off_c, 0, 60, 64
2, 49319, Control_c, 0, 64, 127
2, 49331, Control_c, 0, 64, 127
2, 49345, Note_off_c, 0, 70, 64
2, 49351, Note_off_c, 0, 58, 64
2, 49476, Control_c, 0, 64, 0
2, 49482, Note_on_c, 0, 70, 49
2, 49488, Note_on_c, 0, 58, 33
2, 49488, Control_c, 0, 64, 0
2, 49542, Control_c, 0, 64, 127
2, 49554, Control_c, 0, 64, 127
2, 49656, Control_c, 0, 64, 0
2, 49666, Note_on_c, 0, 65, 40
2, 49668, Control_c, 0, 64, 0
2, 49676, Note_on_c, 0, 77, 49
2, 49691, Note_off_c, 0, 70, 64
2, 49697, Note_off_c, 0, 58, 64
2, 49716, Control_c, 0, 64, 127
2, 49728, Control_c, 0, 64, 127
2, 49748, Note_on_c, 0, 68, 39
2, 49750, Note_on_c, 0, 80, 46
2, 49754, Note_off_c, 0, 65, 64
2, 49761, Note_off_c, 0, 77, 64
2, 49787, Control_c, 0, 64, 0
2, 49799, Control_c, 0, 64, 0
2, 49833, Note_on_c, 0, 66, 27
2, 49836, Note_on_c, 0, 78, 44
2, 49842, Note_off_c, 0, 68, 64
2, 49850, Note_off_c, 0, 80, 64
2, 49860, Control_c, 0, 64, 127
2, 49872, Control_c, 0, 64, 127
2, 49898, Note_off_c, 0, 66, 64
2, 49910, Note_off_c, 0, 78, 64
2, 50008, Control_c, 0, 64, 0
2, 50015, Note_on_c, 0, 78, 40
2, 50019, Note_on_c, 0, 66, 40
2, 50020, Control_c, 0, 64, 0
2, 50051, Control_c, 0, 64, 127
2, 50063, Control_c, 0, 64, 127
2, 50105, Note_on_c, 0, 73, 46
2, 50109, Note_off_c, 0, 66, 64
2, 50109, Note_on_c, 0, 61, 29
2, 50120, Note_off_c, 0, 78, 64
2, 50180, Note_off_c, 0, 61, 64
2, 50184, Note_off_c, 0, 73, 64
2, 50189, Note_on_c, 0, 76, 46
2, 50200, Note_on_c, 0, 64, 40
2, 50203, Control_c, 0, 64, 0
2, 50215, Control_c, 0, 64, 0
2, 50247, Control_c, 0, 64, 127
2, 50259, Control_c, 0, 64, 127
2, 50288, Note_on_c, 0, 72, 41
2, 50294, Note_off_c, 0, 76, 64
2, 50301, Note_on_c, 0, 60, 29
2, 50305, Note_off_c, 0, 64, 64
2, 50394, Note_on_c, 0, 70, 33
2, 50396, Note_on_c, 0, 58, 33
2, 50406, Control_c, 0, 64, 0
2, 50412, Note_off_c, 0, 72, 64
2, 50418, Control_c, 0, 64, 0
2, 50440, Note_off_c, 0, 60, 64
2, 50600, Control_c, 0, 64, 127
2, 50612, Control_c, 0, 64, 127
2, 50800, Control_c, 0, 64, 0
2, 50812, Control_c, 0, 64, 0
2, 50926, Note_off_c, 0, 58, 64
2, 50936, Note_on_c, 0, 60, 33
2, 50936, Note_on_c, 0, 55, 27
2, 50936, Note_on_c, 0, 48, 39
2, 50938, Note_on_c, 0, 58, 39
2, 50940, Note_on_c, 0, 64, 40
2, 50956, Control_c, 0, 64, 0
2, 50968, Control_c, 0, 64, 0
2, 50996, Control_c, 0, 64, 127
2, 51008, Control_c, 0, 64, 127
2, 51084, Note_off_c, 0, 48, 64
2, 51084, Note_off_c, 0, 55, 64
2, 51084, Note_off_c, 0, 60, 64
2, 51086, Note_off_c, 0, 58, 64
2, 51088, Note_off_c, 0, 64, 64
2, 51094, Note_off_c, 0, 70, 64
2, 51100, Note_on_c, 0, 60, 40
2, 51104, Note_on_c, 0, 69, 44
2, 51104, Note_on_c, 0, 65, 46
2, 51104, Note_on_c, 0, 57, 40
2, 51104, Note_on_c, 0, 53, 41
2, 51104, Note_on_c, 0, 48, 41
2, 51116, Control_c, 0, 64, 0
2, 51128, Control_c, 0, 64, 0
2, 51135, Note_off_c, 0, 60, 64
2, 51139, Note_off_c, 0, 57, 64
2, 51140, Note_off_c, 0, 65, 64
2, 51141, Note_off_c, 0, 48, 64
2, 51141, Note_off_c, 0, 53, 64
2, 51146, Note_off_c, 0, 69, 64
2, 51292, Note_on_c, 0, 69, 27
2, 51295, Note_on_c, 0, 65, 45
2, 51301, Note_on_c, 0, 57, 31
2, 51304, Note_on_c, 0, 48, 33
2, 51305, Note_on_c, 0, 60, 33
2, 51309, Note_on_c, 0, 53, 33
2, 51320, Control_c, 0, 64, 127
2, 51332, Control_c, 0, 64, 127
2, 51446, Note_off_c, 0, 69, 64
2, 51449, Note_off_c, 0, 65, 64
2, 51455, Note_off_c, 0, 57, 64
2, 51458, Note_off_c, 0, 48, 64
2, 51459, Note_off_c, 0, 60, 64
2, 51463, Note_off_c, 0, 53, 64
2, 51468, Note_on_c, 0, 64, 39
2, 51475, Note_on_c, 0, 72, 40
2, 51476, Note_on_c, 0, 60, 46
2, 51476, Note_on_c, 0, 55, 39
2, 51478, Note_on_c, 0, 48, 44
2, 51535, Note_on_c, 0, 70, 46
2, 51538, Note_off_c, 0, 72, 64
2, 51538, Note_off_c, 0, 64, 64
2, 51542, Note_on_c, 0, 58, 55
2, 51583, Note_off_c, 0, 58, 64
2, 51583, Note_off_c, 0, 70, 64
2, 51588, Note_off_c, 0, 55, 64
2, 51588, Note_off_c, 0, 60, 64
2, 51590, Note_off_c, 0, 48, 64
2, 51601, Control_c, 0, 64, 0
2, 51604, Note_on_c, 0, 65, 44
2, 51607, Note_on_c, 0, 53, 45
2, 51608, Note_on_c, 0, 69, 49
2, 51608, Note_on_c, 0, 57, 49
2, 51608, Note_on_c, 0, 48, 41
2, 51612, Note_on_c, 0, 60, 41
2, 51613, Control_c, 0, 64, 0
2, 51646, Note_off_c, 0, 65, 64
2, 51649, Note_off_c, 0, 53, 64
2, 51650, Note_off_c, 0, 48, 64
2, 51650, Note_off_c, 0, 57, 64
2, 51650, Note_off_c, 0, 69, 64
2, 51654, Note_off_c, 0, 60, 64
2, 51700, Control_c, 0, 64, 0
2, 51712, Control_c, 0, 64, 0
2, 51800, Note_on_c, 0, 65, 46
2, 51800, Note_on_c, 0, 60, 39
2, 51800, Note_on_c, 0, 53, 40
2, 51800, Note_on_c, 0, 48, 40
2, 51802, Note_on_c, 0, 69, 40
2, 51802, Note_on_c, 0, 57, 44
2, 51813, Control_c, 0, 64, 127
2, 51825, Control_c, 0, 64, 127
2, 51940, Control_c, 0, 64, 0
2, 51952, Control_c, 0, 64, 0
2, 51955, Note_off_c, 0, 48, 64
2, 51955, Note_off_c, 0, 53, 64
2, 51955, Note_off_c, 0, 60, 64
2, 51955, Note_off_c, 0, 65, 64
2, 51957, Note_off_c, 0, 57, 64
2, 51957, Note_off_c, 0, 69, 64
2, 51961, Note_on_c, 0, 48, 40
2, 51964, Note_on_c, 0, 70, 49
2, 51966, Note_on_c, 0, 58, 54
2, 51968, Note_on_c, 0, 55, 27
2, 51970, Note_on_c, 0, 64, 40
2, 51996, Control_c, 0, 64, 127
2, 52008, Control_c, 0, 64, 127
2, 52111, Control_c, 0, 64, 0
2, 52113, Note_off_c, 0, 48, 64
2, 52116, Note_off_c, 0, 70, 64
2, 52118, Note_off_c, 0, 58, 64
2, 52120, Note_off_c, 0, 55, 64
2, 52120, Note_on_c, 0, 65, 40
2, 52120, Note_on_c, 0, 60, 41
2, 52122, Note_off_c, 0, 64, 64
2, 52123, Note_on_c, 0, 69, 49
2, 52123, Note_on_c, 0, 57, 46
2, 52123, Control_c, 0, 64, 0
2, 52124, Note_on_c, 0, 53, 44
2, 52124, Note_on_c, 0, 48, 46
2, 52162, Note_off_c, 0, 60, 64
2, 52162, Note_off_c, 0, 65, 64
2, 52165, Note_off_c, 0, 57, 64
2, 52165, Note_off_c, 0, 69, 64
2, 52166, Note_off_c, 0, 48, 64
2, 52166, Note_off_c, 0, 53, 64
2, 52310, Note_on_c, 0, 57, 46
2, 52312, Note_on_c, 0, 48, 44
2, 52314, Note_on_c, 0, 69, 36
2, 52314, Note_on_c, 0, 65, 41
2, 52316, Control_c, 0, 64, 127
2, 52319, Note_on_c, 0, 60, 40
2, 52319, Note_on_c, 0, 53, 39
2, 52328, Control_c, 0, 64, 127
2, 52479, Control_c, 0, 64, 0
2, 52480, Note_off_c, 0, 57, 64
2, 52482, Note_off_c, 0, 48, 64
2, 52484, Note_off_c, 0, 65, 64
2, 52484, Note_off_c, 0, 69, 64
2, 52489, Note_off_c, 0, 53, 64
2, 52489, Note_off_c, 0, 60, 64
2, 52491, Note_on_c, 0, 69, 35
2, 52491, Control_c, 0, 64, 0
2, 52496, Note_on_c, 0, 60, 40
2, 52496, Note_on_c, 0, 58, 40
2, 52496, Note_on_c, 0, 55, 33
2, 52499, Note_on_c, 0, 64, 50
2, 52499, Note_on_c, 0, 48, 40
2, 52532, Control_c, 0, 64, 127
2, 52544, Control_c, 0, 64, 127
2, 52588, Note_on_c, 0, 67, 40
2, 52605, Note_off_c, 0, 69, 64
2, 52676, Note_off_c, 0, 67, 64
2, 52682, Note_off_c, 0, 55, 64
2, 52682, Note_off_c, 0, 58, 64
2, 52682, Note_off_c, 0, 60, 64
2, 52685, Note_off_c, 0, 64, 64
2, 52694, Note_off_c, 0, 48, 64
2, 52696, Note_on_c, 0, 65, 54
2, 52696, Note_on_c, 0, 60, 29
2, 52700, Note_on_c, 0, 57, 33
2, 52702, Note_on_c, 0, 53, 29
2, 52706, Control_c, 0, 64, 0
2, 52718, Control_c, 0, 64, 0
2, 52798, Control_c, 0, 64, 127
2, 52810, Control_c, 0, 64, 127
2, 52976, Control_c, 0, 64, 0
2, 52988, Control_c, 0, 64, 0
2, 53164, Note_off_c, 0, 60, 64
2, 53164, Note_off_c, 0, 65, 64
2, 53168, Note_off_c, 0, 57, 64
2, 53170, Note_off_c, 0, 53, 64
2, 53224, Note_on_c, 0, 77, 40
2, 53228, Note_on_c, 0, 65, 31
2, 53252, Control_c, 0, 64, 0
2, 53264, Control_c, 0, 64, 0
2, 53337, Control_c, 0, 64, 127
2, 53349, Control_c, 0, 64, 127
2, 53504, Note_on_c, 0, 78, 39
2, 53517, Note_on_c, 0, 66, 20
2, 53530, Note_off_c, 0, 77, 64
2, 53532, Note_off_c, 0, 65, 64
2, 53551, Control_c, 0, 64, 0
2, 53563, Control_c, 0, 64, 0
2, 53613, Control_c, 0, 64, 127
2, 53625, Control_c, 0, 64, 127
2, 53894, Note_on_c, 0, 73, 45
2, 53897, Note_on_c, 0, 61, 33
2, 53901, Control_c, 0, 64, 0
2, 53903, Note_off_c, 0, 66, 64
2, 53913, Control_c, 0, 64, 0
2, 53932, Note_off_c, 0, 78, 64
2, 53935, Control_c, 0, 64, 127
2, 53947, Control_c, 0, 64, 127
2, 53985, Note_off_c, 0, 73, 64
2, 53994, Note_on_c, 0, 76, 40
2, 54000, Note_on_c, 0, 64, 27
2, 54002, Note_off_c, 0, 61, 64
2, 54083, Note_on_c, 0, 72, 49
2, 54084, Note_on_c, 0, 60, 35
2, 54096, Note_off_c, 0, 64, 64
2, 54102, Note_off_c, 0, 76, 64
2, 54161, Control_c, 0, 64, 0
2, 54162, Note_on_c, 0, 70, 44
2, 54164, Note_on_c, 0, 58, 40
2, 54173, Control_c, 0, 64, 0
2, 54179, Note_off_c, 0, 60, 64
2, 54181, Note_off_c, 0, 72, 64
2, 54239, Control_c, 0, 64, 127
2, 54251, Control_c, 0, 64, 127
2, 54257, Note_off_c, 0, 70, 64
2, 54264, Note_off_c, 0, 58, 64
2, 54350, Note_on_c, 0, 70, 46
2, 54350, Note_on_c, 0, 58, 29
2, 54357, Control_c, 0, 64, 0
2, 54369, Control_c, 0, 64, 0
2, 54408, Control_c, 0, 64, 127
2, 54420, Control_c, 0, 64, 127
2, 54525, Control_c, 0, 64, 0
2, 54537, Control_c, 0, 64, 0
2, 54541, Note_on_c, 0, 77, 40
2, 54541, Note_on_c, 0, 65, 39
2, 54560, Note_off_c, 0, 58, 64
2, 54560, Note_off_c, 0, 70, 64
2, 54585, Control_c, 0, 64, 127
2, 54597, Control_c, 0, 64, 127
2, 54610, Note_on_c, 0, 80, 36
2, 54614, Note_on_c, 0, 68, 44
2, 54617, Note_off_c, 0, 77, 64
2, 54627, Note_off_c, 0, 65, 64
2, 54657, Control_c, 0, 64, 0
2, 54669, Control_c, 0, 64, 0
2, 54695, Note_on_c, 0, 78, 46
2, 54702, Note_on_c, 0, 66, 29
2, 54710, Note_off_c, 0, 80, 64
2, 54712, Note_off_c, 0, 68, 64
2, 54730, Control_c, 0, 64, 127
2, 54741, Note_off_c, 0, 66, 64
2, 54742, Control_c, 0, 64, 127
2, 54749, Note_off_c, 0, 78, 64
2, 54881, Control_c, 0, 64, 0
2, 54883, Note_on_c, 0, 78, 40
2, 54886, Note_on_c, 0, 66, 41
2, 54893, Control_c, 0, 64, 0
2, 54924, Control_c, 0, 64, 127
2, 54936, Control_c, 0, 64, 127
2, 54968, Note_on_c, 0, 73, 40
2, 54968, Note_on_c, 0, 61, 22
2, 54976, Note_off_c, 0, 66, 64
2, 54986, Note_off_c, 0, 78, 64
2, 55025, Control_c, 0, 64, 0
2, 55037, Control_c, 0, 64, 0
2, 55059, Note_off_c, 0, 61, 64
2, 55059, Note_off_c, 0, 73, 64
2, 55060, Note_on_c, 0, 76, 45
2, 55060, Note_on_c, 0, 64, 36
2, 55086, Control_c, 0, 64, 127
2, 55098, Control_c, 0, 64, 127
2, 55156, Note_on_c, 0, 72, 44
2, 55160, Note_on_c, 0, 60, 29
2, 55168, Note_off_c, 0, 64, 64
2, 55169, Note_off_c, 0, 76, 64
2, 55276, Note_on_c, 0, 58, 24
2, 55278, Note_off_c, 0, 72, 64
2, 55279, Note_on_c, 0, 70, 29
2, 55307, Note_off_c, 0, 60, 64
2, 55326, Control_c, 0, 64, 0
2, 55338, Control_c, 0, 64, 0
2, 55417, Control_c, 0, 64, 127
2, 55429, Control_c, 0, 64, 127
2, 55618, Control_c, 0, 64, 0
2, 55622, Control_c, 0, 64, 0
2, 55630, Control_c, 0, 64, 0
2, 55634, Control_c, 0, 64, 0
2, 55755, Note_off_c, 0, 58, 64
2, 55763, Note_on_c, 0, 64, 41
2, 55768, Note_on_c, 0, 60, 44
2, 55769, Note_on_c, 0, 58, 33
2, 55775, Note_on_c, 0, 55, 35
2, 55777, Control_c, 0, 64, 0
2, 55779, Note_on_c, 0, 48, 33
2, 55789, Control_c, 0, 64, 0
2, 55820, Control_c, 0, 64, 127
2, 55832, Control_c, 0, 64, 127
2, 55911, Note_off_c, 0, 70, 64
2, 55913, Note_off_c, 0, 64, 64
2, 55918, Note_off_c, 0, 60, 64
2, 55919, Note_off_c, 0, 58, 64
2, 55925, Note_off_c, 0, 55, 64
2, 55929, Note_off_c, 0, 48, 64
2, 55930, Note_on_c, 0, 69, 49
2, 55936, Note_on_c, 0, 57, 41
2, 55939, Note_on_c, 0, 65, 40
2, 55945, Note_on_c, 0, 60, 44
2, 55945, Note_on_c, 0, 53, 44
2, 55948, Note_on_c, 0, 48, 44
2, 55950, Control_c, 0, 64, 0
2, 55962, Control_c, 0, 64, 0
2, 55972, Note_off_c, 0, 69, 64
2, 55978, Note_off_c, 0, 57, 64
2, 55981, Note_off_c, 0, 65, 64
2, 55987, Note_off_c, 0, 53, 64
2, 55987, Note_off_c, 0, 60, 64
2, 55990, Note_off_c, 0, 48, 64
2, 56135, Note_on_c, 0, 57, 44
2, 56136, Note_on_c, 0, 69, 46
2, 56136, Note_on_c, 0, 65, 46
2, 56136, Note_on_c, 0, 53, 45
2, 56137, Control_c, 0, 64, 127
2, 56140, Note_on_c, 0, 48, 41
2, 56145, Note_on_c, 0, 60, 31
2, 56149, Control_c, 0, 64, 127
2, 56291, Note_off_c, 0, 57, 64
2, 56292, Note_off_c, 0, 53, 64
2, 56292, Note_off_c, 0, 65, 64
2, 56292, Note_off_c, 0, 69, 64
2, 56296, Note_off_c, 0, 48, 64
2, 56301, Note_off_c, 0, 60, 64
2, 56315, Note_on_c, 0, 48, 45
2, 56317, Note_on_c, 0, 72, 44
2, 56317, Note_on_c, 0, 64, 46
2, 56320, Note_on_c, 0, 60, 40
2, 56322, Note_on_c, 0, 55, 40
2, 56368, Note_on_c, 0, 58, 1
2, 56376, Note_on_c, 0, 70, 44
2, 56390, Note_off_c, 0, 64, 64
2, 56390, Note_off_c, 0, 72, 64
2, 56413, Note_off_c, 0, 58, 64
2, 56421, Note_off_c, 0, 70, 64
2, 56428, Note_off_c, 0, 48, 64
2, 56432, Note_off_c, 0, 60, 64
2, 56434, Note_off_c, 0, 55, 64
2, 56446, Note_on_c, 0, 57, 49
2, 56446, Note_on_c, 0, 53, 44
2, 56448, Note_on_c, 0, 65, 49
2, 56452, Note_on_c, 0, 69, 49
2, 56452, Note_on_c, 0, 48, 44
2, 56453, Control_c, 0, 64, 0
2, 56454, Note_on_c, 0, 60, 46
2, 56465, Control_c, 0, 64, 0
2, 56488, Note_off_c, 0, 53, 64
2, 56488, Note_off_c, 0, 57, 64
2, 56490, Note_off_c, 0, 65, 64
2, 56494, Note_off_c, 0, 48, 64
2, 56494, Note_off_c, 0, 69, 64
2, 56496, Note_off_c, 0, 60, 64
2, 56648, Note_on_c, 0, 69, 33
2, 56648, Note_on_c, 0, 65, 44
2, 56652, Note_on_c, 0, 60, 31
2, 56652, Note_on_c, 0, 48, 41
2, 56656, Note_on_c, 0, 57, 39
2, 56656, Note_on_c, 0, 53, 40
2, 56667, Control_c, 0, 64, 127
2, 56679, Control_c, 0, 64, 127
2, 56804, Control_c, 0, 64, 0
2, 56812, Note_off_c, 0, 48, 64
2, 56816, Control_c, 0, 64, 0
2, 56824, Note_off_c, 0, 65, 64
2, 56824, Note_off_c, 0, 69, 64
2, 56828, Note_off_c, 0, 60, 64
2, 56829, Note_on_c, 0, 48, 40
2, 56832, Note_off_c, 0, 53, 64
2, 56832, Note_off_c, 0, 57, 64
2, 56836, Note_on_c, 0, 60, 44
2, 56836, Note_on_c, 0, 55, 31
2, 56837, Note_on_c, 0, 64, 44
2, 56840, Note_on_c, 0, 70, 46
2, 56840, Note_on_c, 0, 58, 54
2, 56854, Control_c, 0, 64, 127
2, 56866, Control_c, 0, 64, 127
2, 56973, Control_c, 0, 64, 0
2, 56985, Note_off_c, 0, 48, 64
2, 56985, Control_c, 0, 64, 0
2, 56989, Note_on_c, 0, 53, 46
2, 56991, Note_on_c, 0, 65, 44
2, 56992, Note_off_c, 0, 55, 64
2, 56992, Note_off_c, 0, 60, 64
2, 56993, Note_off_c, 0, 64, 64
2, 56996, Note_off_c, 0, 58, 64
2, 56996, Note_off_c, 0, 70, 64
2, 56996, Note_on_c, 0, 48, 44
2, 56999, Note_on_c, 0, 69, 46
2, 56999, Note_on_c, 0, 60, 40
2, 56999, Note_on_c, 0, 57, 44
2, 57031, Note_off_c, 0, 53, 64
2, 57033, Note_off_c, 0, 65, 64
2, 57038, Note_off_c, 0, 48, 64
2, 57041, Note_off_c, 0, 57, 64
2, 57041, Note_off_c, 0, 60, 64
2, 57041, Note_off_c, 0, 69, 64
2, 57114, Control_c, 0, 64, 0
2, 57126, Control_c, 0, 64, 0
2, 57192, Note_on_c, 0, 69, 29
2, 57195, Note_on_c, 0, 53, 40
2, 57196, Note_on_c, 0, 48, 41
2, 57197, Control_c, 0, 64, 127
2, 57199, Note_on_c, 0, 65, 45
2, 57199, Note_on_c, 0, 57, 40
2, 57205, Note_on_c, 0, 60, 39
2, 57209, Control_c, 0, 64, 127
2, 57363, Control_c, 0, 64, 0
2, 57375, Control_c, 0, 64, 0
2, 57380, Note_off_c, 0, 69, 64
2, 57383, Note_off_c, 0, 53, 64
2, 57384, Note_off_c, 0, 48, 64
2, 57387, Note_off_c, 0, 57, 64
2, 57387, Note_off_c, 0, 65, 64
2, 57393, Note_off_c, 0, 60, 64
2, 57395, Note_on_c, 0, 69, 49
2, 57396, Note_on_c, 0, 48, 40
2, 57404, Note_on_c, 0, 60, 40
2, 57406, Note_on_c, 0, 64, 33
2, 57406, Note_on_c, 0, 58, 33
2, 57406, Note_on_c, 0, 55, 40
2, 57475, Control_c, 0, 64, 127
2, 57485, Note_on_c, 0, 67, 40
2, 57487, Control_c, 0, 64, 127
2, 57510, Note_off_c, 0, 69, 64
2, 57570, Control_c, 0, 64, 0
2, 57582, Control_c, 0, 64, 0
2, 57588, Note_off_c, 0, 67, 64
2, 57590, Note_off_c, 0, 48, 64
2, 57598, Note_off_c, 0, 60, 64
2, 57600, Note_off_c, 0, 55, 64
2, 57600, Note_off_c, 0, 58, 64
2, 57600, Note_off_c, 0, 64, 64
2, 57600, Note_on_c, 0, 65, 49
2, 57600, Note_on_c, 0, 57, 40
2, 57600, Note_on_c, 0, 53, 39
2, 57608, Note_on_c, 0, 60, 35
2, 57657, Control_c, 0, 64, 127
2, 57669, Control_c, 0, 64, 127
2, 57840, Note_off_c, 0, 53, 64
2, 57840, Note_off_c, 0, 57, 64
2, 57840, Note_off_c, 0, 65, 64
2, 57848, Note_off_c, 0, 60, 64
2, 57900, Note_on_c, 0, 65, 55
2, 58074, Control_c, 0, 64, 0
2, 58086, Control_c, 0, 64, 0
2, 58191, Note_on_c, 0, 42, 49
2, 58210, Control_c, 0, 64, 0
2, 58222, Control_c, 0, 64, 0
2, 58255, Control_c, 0, 64, 127
2, 58267, Control_c, 0, 64, 127
2, 58324, Note_off_c, 0, 42, 64
2, 58329, Note_on_c, 0, 66, 49
2, 58350, Note_off_c, 0, 65, 64
2, 58391, Note_on_c, 0, 65, 46
2, 58402, Note_off_c, 0, 66, 64
2, 58448, Note_on_c, 0, 63, 49
2, 58456, Control_c, 0, 64, 0
2, 58460, Note_on_c, 0, 51, 31
2, 58461, Note_off_c, 0, 65, 64
2, 58461, Note_on_c, 0, 58, 27
2, 58468, Control_c, 0, 64, 0
2, 58499, Control_c, 0, 64, 127
2, 58511, Control_c, 0, 64, 127
2, 58547, Note_on_c, 0, 65, 53
2, 58548, Note_off_c, 0, 51, 64
2, 58549, Note_off_c, 0, 58, 64
2, 58558, Note_off_c, 0, 63, 64
2, 58618, Control_c, 0, 64, 0
2, 58621, Note_on_c, 0, 66, 44
2, 58630, Note_off_c, 0, 65, 64
2, 58630, Control_c, 0, 64, 0
2, 58637, Note_on_c, 0, 58, 31
2, 58640, Note_on_c, 0, 51, 31
2, 58677, Control_c, 0, 64, 127
2, 58689, Control_c, 0, 64, 127
2, 58699, Note_on_c, 0, 68, 44
2, 58725, Note_off_c, 0, 58, 64
2, 58728, Note_off_c, 0, 51, 64
2, 58734, Note_off_c, 0, 66, 64
2, 58777, Control_c, 0, 64, 0
2, 58789, Note_on_c, 0, 72, 50
2, 58789, Control_c, 0, 64, 0
2, 58796, Note_on_c, 0, 42, 53
2, 58803, Note_off_c, 0, 68, 64
2, 58834, Note_off_c, 0, 72, 64
2, 58929, Note_off_c, 0, 42, 64
2, 58980, Note_on_c, 0, 70, 49
2, 58986, Note_on_c, 0, 58, 33
2, 58989, Control_c, 0, 64, 127
2, 58992, Note_on_c, 0, 51, 27
2, 59001, Control_c, 0, 64, 127
2, 59074, Note_off_c, 0, 58, 64
2, 59080, Note_off_c, 0, 51, 64
2, 59150, Note_on_c, 0, 58, 27
2, 59152, Note_on_c, 0, 51, 33
2, 59238, Note_off_c, 0, 58, 64
2, 59240, Note_off_c, 0, 51, 64
2, 59317, Control_c, 0, 64, 0
2, 59325, Note_on_c, 0, 56, 40
2, 59329, Note_on_c, 0, 44, 46
2, 59329, Control_c, 0, 64, 0
2, 59338, Note_off_c, 0, 70, 64
2, 59374, Control_c, 0, 64, 127
2, 59386, Control_c, 0, 64, 127
2, 59443, Note_on_c, 0, 66, 27
2, 59453, Note_off_c, 0, 56, 64
2, 59462, Note_off_c, 0, 44, 64
2, 59469, Note_off_c, 0, 66, 64
2, 59496, Control_c, 0, 64, 0
2, 59501, Note_on_c, 0, 66, 53
2, 59508, Control_c, 0, 64, 0
2, 59514, Note_on_c, 0, 51, 39
2, 59517, Note_on_c, 0, 60, 29
2, 59532, Control_c, 0, 64, 127
2, 59544, Control_c, 0, 64, 127
2, 59568, Note_on_c, 0, 68, 49
2, 59582, Note_off_c, 0, 66, 64
2, 59602, Note_off_c, 0, 51, 64
2, 59605, Note_off_c, 0, 60, 64
2, 59614, Note_on_c, 0, 66, 45
2, 59635, Note_off_c, 0, 68, 64
2, 59680, Note_on_c, 0, 60, 29
2, 59684, Note_on_c, 0, 51, 39
2, 59685, Note_on_c, 0, 65, 44
2, 59701, Note_off_c, 0, 66, 64
2, 59746, Note_on_c, 0, 63, 33
2, 59756, Note_off_c, 0, 65, 64
2, 59768, Note_off_c, 0, 60, 64
2, 59772, Note_off_c, 0, 51, 64
2, 59814, Control_c, 0, 64, 0
2, 59819, Note_on_c, 0, 65, 58
2, 59823, Note_on_c, 0, 37, 49
2, 59826, Control_c, 0, 64, 0
2, 59832, Note_off_c, 0, 63, 64
2, 59856, Note_off_c, 0, 65, 64
2, 59864, Control_c, 0, 64, 0
2, 59876, Control_c, 0, 64, 0
2, 59956, Note_off_c, 0, 37, 64
2, 60005, Note_on_c, 0, 61, 49
2, 60022, Note_on_c, 0, 56, 39
2, 60022, Note_on_c, 0, 53, 36
2, 60042, Control_c, 0, 64, 127
2, 60054, Control_c, 0, 64, 127
2, 60110, Note_off_c, 0, 53, 64
2, 60110, Note_off_c, 0, 56, 64
2, 60188, Note_on_c, 0, 56, 24
2, 60194, Note_on_c, 0, 53, 19
2, 60276, Note_off_c, 0, 56, 64
2, 60282, Note_off_c, 0, 53, 64
2, 60371, Note_on_c, 0, 42, 27
2, 60372, Note_off_c, 0, 61, 64
2, 60372, Control_c, 0, 64, 0
2, 60372, Note_on_c, 0, 65, 36
2, 60384, Control_c, 0, 64, 0
2, 60423, Control_c, 0, 64, 127
2, 60435, Control_c, 0, 64, 127
2, 60452, Note_on_c, 0, 66, 33
2, 60466, Note_off_c, 0, 65, 64
2, 60504, Note_off_c, 0, 42, 64
2, 60506, Note_on_c, 0, 65, 36
2, 60519, Note_off_c, 0, 66, 64
2, 60536, Control_c, 0, 64, 0
2, 60548, Control_c, 0, 64, 0
2, 60556, Note_on_c, 0, 63, 36
2, 60556, Note_on_c, 0, 51, 19
2, 60566, Note_on_c, 0, 57, 24
2, 60571, Note_off_c, 0, 65, 64
2, 60611, Control_c, 0, 64, 127
2, 60623, Control_c, 0, 64, 127
2, 60638, Note_on_c, 0, 65, 39
2, 60644, Note_off_c, 0, 51, 64
2, 60652, Note_off_c, 0, 63, 64
2, 60654, Note_off_c, 0, 57, 64
2, 60703, Control_c, 0, 64, 0
2, 60715, Control_c, 0, 64, 0
2, 60724, Note_on_c, 0, 66, 31
2, 60731, Note_on_c, 0, 51, 22
2, 60739, Note_on_c, 0, 57, 15
2, 60744, Note_off_c, 0, 65, 64
2, 60755, Control_c, 0, 64, 127
2, 60767, Control_c, 0, 64, 127
2, 60792, Note_on_c, 0, 68, 36
2, 60818, Note_off_c, 0, 66, 64
2, 60819, Note_off_c, 0, 51, 64
2, 60827, Note_off_c, 0, 57, 64
2, 60864, Note_on_c, 0, 71, 45
2, 60865, Control_c, 0, 64, 0
2, 60869, Note_on_c, 0, 42, 40
2, 60877, Control_c, 0, 64, 0
2, 60878, Note_off_c, 0, 68, 64
2, 60912, Note_off_c, 0, 71, 64
2, 61002, Note_off_c, 0, 42, 64
2, 61043, Note_on_c, 0, 61, 19
2, 61052, Note_on_c, 0, 51, 27
2, 61056, Note_on_c, 0, 69, 39
2, 61091, Control_c, 0, 64, 127
2, 61103, Control_c, 0, 64, 127
2, 61131, Note_off_c, 0, 61, 64
2, 61140, Note_off_c, 0, 51, 64
2, 61215, Note_on_c, 0, 61, 20
2, 61223, Note_on_c, 0, 51, 27
2, 61303, Note_off_c, 0, 61, 64
2, 61311, Note_off_c, 0, 51, 64
2, 61369, Control_c, 0, 64, 0
2, 61381, Control_c, 0, 64, 0
2, 61396, Note_on_c, 0, 56, 29
2, 61396, Note_on_c, 0, 44, 33
2, 61406, Note_off_c, 0, 69, 64
2, 61436, Control_c, 0, 64, 127
2, 61448, Control_c, 0, 64, 127
2, 61500, Note_on_c, 0, 66, 33
2, 61529, Note_off_c, 0, 44, 64
2, 61529, Note_off_c, 0, 56, 64
2, 61531, Note_off_c, 0, 66, 64
2, 61544, Control_c, 0, 64, 0
2, 61556, Control_c, 0, 64, 0
2, 61570, Note_on_c, 0, 66, 40
2, 61579, Note_on_c, 0, 54, 26
2, 61580, Note_on_c, 0, 60, 20
2, 61580, Note_on_c, 0, 51, 20
2, 61588, Control_c, 0, 64, 127
2, 61600, Control_c, 0, 64, 127
2, 61622, Note_on_c, 0, 68, 45
2, 61626, Note_off_c, 0, 66, 64
2, 61667, Note_off_c, 0, 54, 64
2, 61668, Note_off_c, 0, 51, 64
2, 61668, Note_off_c, 0, 60, 64
2, 61675, Note_on_c, 0, 66, 39
2, 61690, Note_off_c, 0, 68, 64
2, 61728, Note_on_c, 0, 60, 20
2, 61732, Note_on_c, 0, 54, 24
2, 61737, Note_on_c, 0, 64, 33
2, 61737, Note_on_c, 0, 51, 13
2, 61760, Note_off_c, 0, 66, 64
2, 61799, Note_on_c, 0, 63, 31
2, 61816, Note_off_c, 0, 60, 64
2, 61820, Note_off_c, 0, 54, 64
2, 61825, Note_off_c, 0, 51, 64
2, 61826, Note_off_c, 0, 64, 64
2, 61871, Control_c, 0, 64, 0
2, 61872, Note_on_c, 0, 64, 44
2, 61880, Note_on_c, 0, 37, 40
2, 61883, Control_c, 0, 64, 0
2, 61893, Note_off_c, 0, 63, 64
2, 61913, Note_off_c, 0, 64, 64
2, 62013, Note_off_c, 0, 37, 64
2, 62063, Note_on_c, 0, 61, 33
2, 62068, Note_on_c, 0, 52, 31
2, 62071, Note_on_c, 0, 56, 20
2, 62075, Control_c, 0, 64, 127
2, 62087, Control_c, 0, 64, 127
2, 62156, Note_off_c, 0, 52, 64
2, 62159, Note_off_c, 0, 56, 64
2, 62214, Note_off_c, 0, 61, 64
2, 62235, Note_on_c, 0, 52, 24
2, 62237, Note_on_c, 0, 56, 16
2, 62323, Note_off_c, 0, 52, 64
2, 62325, Note_off_c, 0, 56, 64
2, 62390, Control_c, 0, 64, 0
2, 62402, Control_c, 0, 64, 0
2, 62409, Note_on_c, 0, 68, 70
2, 62420, Note_on_c, 0, 45, 55
2, 62460, Control_c, 0, 64, 127
2, 62472, Control_c, 0, 64, 127
2, 62513, Note_on_c, 0, 69, 58
2, 62529, Note_off_c, 0, 68, 64
2, 62553, Note_off_c, 0, 45, 64
2, 62564, Note_on_c, 0, 68, 70
2, 62578, Note_off_c, 0, 69, 64
2, 62580, Control_c, 0, 64, 0
2, 62592, Control_c, 0, 64, 0
2, 62616, Note_on_c, 0, 61, 45
2, 62621, Note_on_c, 0, 54, 35
2, 62623, Note_on_c, 0, 66, 67
2, 62625, Control_c, 0, 64, 127
2, 62629, Note_on_c, 0, 64, 31
2, 62635, Note_off_c, 0, 68, 64
2, 62637, Control_c, 0, 64, 127
2, 62680, Note_on_c, 0, 68, 70
2, 62692, Note_off_c, 0, 66, 64
2, 62704, Note_off_c, 0, 61, 64
2, 62709, Note_off_c, 0, 54, 64
2, 62717, Note_off_c, 0, 64, 64
2, 62746, Note_on_c, 0, 69, 67
2, 62746, Note_on_c, 0, 64, 33
2, 62751, Note_on_c, 0, 61, 44
2, 62751, Note_on_c, 0, 54, 39
2, 62755, Note_off_c, 0, 68, 64
2, 62813, Note_on_c, 0, 71, 65
2, 62825, Note_off_c, 0, 69, 64
2, 62834, Note_off_c, 0, 64, 64
2, 62839, Note_off_c, 0, 54, 64
2, 62839, Note_off_c, 0, 61, 64
2, 62886, Note_on_c, 0, 75, 67
2, 62893, Control_c, 0, 64, 0
2, 62894, Note_off_c, 0, 71, 64
2, 62894, Note_on_c, 0, 45, 55
2, 62905, Control_c, 0, 64, 0
2, 62919, Note_off_c, 0, 75, 64
2, 63027, Note_off_c, 0, 45, 64
2, 63060, Note_on_c, 0, 73, 70
2, 63066, Note_on_c, 0, 54, 39
2, 63068, Note_on_c, 0, 61, 46
2, 63075, Note_on_c, 0, 64, 40
2, 63087, Control_c, 0, 64, 127
2, 63099, Control_c, 0, 64, 127
2, 63154, Note_off_c, 0, 54, 64
2, 63156, Note_off_c, 0, 61, 64
2, 63163, Note_off_c, 0, 64, 64
2, 63206, Note_on_c, 0, 54, 40
2, 63211, Note_on_c, 0, 64, 39
2, 63211, Note_on_c, 0, 61, 46
2, 63294, Note_off_c, 0, 54, 64
2, 63299, Note_off_c, 0, 61, 64
2, 63299, Note_off_c, 0, 64, 64
2, 63361, Note_off_c, 0, 73, 64
2, 63370, Control_c, 0, 64, 0
2, 63382, Control_c, 0, 64, 0
2, 63394, Note_on_c, 0, 59, 54
2, 63396, Note_on_c, 0, 47, 59
2, 63442, Control_c, 0, 64, 127
2, 63454, Control_c, 0, 64, 127
2, 63515, Note_on_c, 0, 69, 55
2, 63529, Note_off_c, 0, 47, 64
2, 63543, Note_off_c, 0, 69, 64
2, 63550, Note_off_c, 0, 59, 64
2, 63550, Control_c, 0, 64, 0
2, 63562, Control_c, 0, 64, 0
2, 63570, Note_on_c, 0, 69, 65
2, 63583, Note_on_c, 0, 57, 24
2, 63586, Note_on_c, 0, 63, 49
2, 63586, Note_on_c, 0, 54, 46
2, 63614, Control_c, 0, 64, 127
2, 63626, Control_c, 0, 64, 127
2, 63636, Note_on_c, 0, 71, 61
2, 63651, Note_off_c, 0, 69, 64
2, 63671, Note_off_c, 0, 57, 64
2, 63674, Note_off_c, 0, 54, 64
2, 63674, Note_off_c, 0, 63, 64
2, 63688, Note_on_c, 0, 69, 55
2, 63700, Note_off_c, 0, 71, 64
2, 63719, Note_on_c, 0, 63, 39
2, 63726, Note_on_c, 0, 57, 46
2, 63731, Note_on_c, 0, 54, 46
2, 63742, Note_on_c, 0, 68, 70
2, 63759, Note_off_c, 0, 69, 64
2, 63804, Note_on_c, 0, 66, 70
2, 63807, Note_off_c, 0, 63, 64
2, 63814, Note_off_c, 0, 57, 64
2, 63816, Note_off_c, 0, 68, 64
2, 63819, Note_off_c, 0, 54, 64
2, 63869, Control_c, 0, 64, 0
2, 63869, Note_on_c, 0, 68, 70
2, 63876, Note_on_c, 0, 40, 55
2, 63881, Control_c, 0, 64, 0
2, 63886, Note_off_c, 0, 66, 64
2, 63908, Note_off_c, 0, 68, 64
2, 64009, Note_off_c, 0, 40, 64
2, 64056, Note_on_c, 0, 64, 59
2, 64060, Note_on_c, 0, 56, 45
2, 64064, Note_on_c, 0, 59, 40
2, 64075, Control_c, 0, 64, 127
2, 64087, Control_c, 0, 64, 127
2, 64148, Note_off_c, 0, 56, 64
2, 64152, Note_off_c, 0, 59, 64
2, 64223, Note_on_c, 0, 59, 33
2, 64224, Note_on_c, 0, 56, 44
2, 64311, Note_off_c, 0, 59, 64
2, 64312, Note_off_c, 0, 56, 64
2, 64394, Note_off_c, 0, 64, 64
2, 64416, Control_c, 0, 64, 0
2, 64416, Note_on_c, 0, 42, 36
2, 64420, Note_on_c, 0, 64, 40
2, 64428, Control_c, 0, 64, 0
2, 64490, Control_c, 0, 64, 127
2, 64502, Control_c, 0, 64, 127
2, 64521, Note_on_c, 0, 66, 26
2, 64525, Note_off_c, 0, 64, 64
2, 64549, Note_off_c, 0, 42, 64
2, 64569, Control_c, 0, 64, 0
2, 64571, Note_on_c, 0, 64, 45
2, 64581, Control_c, 0, 64, 0
2, 64586, Note_off_c, 0, 66, 64
2, 64611, Note_on_c, 0, 51, 20
2, 64616, Note_on_c, 0, 57, 24
2, 64621, Note_on_c, 0, 63, 41
2, 64622, Control_c, 0, 64, 127
2, 64634, Control_c, 0, 64, 127
2, 64640, Note_off_c, 0, 64, 64
2, 64686, Note_on_c, 0, 64, 40
2, 64699, Note_off_c, 0, 51, 64
2, 64704, Note_off_c, 0, 63, 64
2, 64704, Note_off_c, 0, 57, 64
2, 64752, Note_on_c, 0, 66, 33
2, 64768, Note_on_c, 0, 51, 22
2, 64772, Note_on_c, 0, 57, 15
2, 64788, Note_off_c, 0, 64, 64
2, 64810, Note_on_c, 0, 68, 45
2, 64851, Note_off_c, 0, 66, 64
2, 64856, Note_off_c, 0, 51, 64
2, 64860, Note_off_c, 0, 57, 64
2, 64896, Control_c, 0, 64, 0
2, 64899, Note_on_c, 0, 42, 50
2, 64904, Note_on_c, 0, 71, 53
2, 64908, Control_c, 0, 64, 0
2, 64914, Note_off_c, 0, 68, 64
2, 64962, Control_c, 0, 64, 127
2, 64974, Control_c, 0, 64, 127
2, 65059, Control_c, 0, 64, 0
2, 65060, Note_on_c, 0, 61, 15
2, 65064, Note_on_c, 0, 51, 26
2, 65071, Control_c, 0, 64, 0
2, 65091, Note_off_c, 0, 42, 64
2, 65100, Control_c, 0, 64, 127
2, 65112, Control_c, 0, 64, 127
2, 65148, Note_off_c, 0, 61, 64
2, 65152, Note_off_c, 0, 51, 64
2, 65238, Note_on_c, 0, 61, 26
2, 65239, Note_on_c, 0, 69, 36
2, 65246, Note_on_c, 0, 51, 29
2, 65249, Note_off_c, 0, 71, 64
2, 65326, Note_off_c, 0, 61, 64
2, 65334, Note_off_c, 0, 51, 64
2, 65366, Note_off_c, 0, 69, 64
2, 65433, Note_on_c, 0, 44, 40
2, 65436, Note_on_c, 0, 56, 39
2, 65440, Control_c, 0, 64, 0
2, 65452, Control_c, 0, 64, 0
2, 65483, Control_c, 0, 64, 127
2, 65495, Control_c, 0, 64, 127
2, 65553, Note_on_c, 0, 66, 50
2, 65565, Note_off_c, 0, 56, 64
2, 65566, Note_off_c, 0, 44, 64
2, 65592, Note_off_c, 0, 66, 64
2, 65596, Control_c, 0, 64, 0
2, 65608, Control_c, 0, 64, 0
2, 65624, Note_on_c, 0, 66, 58
2, 65624, Note_on_c, 0, 51, 40
2, 65628, Control_c, 0, 64, 127
2, 65630, Note_on_c, 0, 60, 31
2, 65630, Note_on_c, 0, 54, 39
2, 65640, Control_c, 0, 64, 127
2, 65687, Note_on_c, 0, 68, 31
2, 65711, Note_off_c, 0, 66, 64
2, 65712, Note_off_c, 0, 51, 64
2, 65718, Note_off_c, 0, 54, 64
2, 65718, Note_off_c, 0, 60, 64
2, 65742, Note_on_c, 0, 66, 68
2, 65752, Note_off_c, 0, 68, 64
2, 65789, Note_on_c, 0, 65, 53
2, 65796, Note_on_c, 0, 60, 33
2, 65800, Note_on_c, 0, 54, 15
2, 65803, Note_on_c, 0, 51, 19
2, 65807, Note_off_c, 0, 66, 64
2, 65866, Note_on_c, 0, 63, 58
2, 65884, Note_off_c, 0, 60, 64
2, 65888, Note_off_c, 0, 54, 64
2, 65889, Note_off_c, 0, 65, 64
2, 65891, Note_off_c, 0, 51, 64
2, 65943, Control_c, 0, 64, 0
2, 65948, Note_on_c, 0, 70, 70
2, 65951, Note_on_c, 0, 44, 59
2, 65955, Control_c, 0, 64, 0
2, 65971, Note_off_c, 0, 63, 64
2, 65984, Control_c, 0, 64, 127
2, 65996, Control_c, 0, 64, 127
2, 65998, Control_c, 0, 64, 127
2, 66010, Control_c, 0, 64, 127
2, 66084, Note_off_c, 0, 44, 64
2, 66102, Note_on_c, 0, 51, 50
2, 66108, Note_on_c, 0, 54, 46
2, 66113, Note_on_c, 0, 60, 31
2, 66190, Note_off_c, 0, 51, 64
2, 66196, Note_off_c, 0, 54, 64
2, 66201, Note_off_c, 0, 60, 64
2, 66288, Note_on_c, 0, 68, 70
2, 66292, Note_on_c, 0, 60, 40
2, 66296, Note_off_c, 0, 70, 64
2, 66298, Note_on_c, 0, 54, 36
2, 66303, Note_on_c, 0, 51, 31
2, 66380, Note_off_c, 0, 60, 64
2, 66386, Note_off_c, 0, 54, 64
2, 66391, Note_off_c, 0, 51, 64
2, 66479, Note_off_c, 0, 68, 64
2, 66480, Control_c, 0, 64, 0
2, 66492, Control_c, 0, 64, 0
2, 66499, Note_on_c, 0, 32, 92
2, 66501, Note_on_c, 0, 65, 83
2, 66548, Control_c, 0, 64, 127
2, 66560, Control_c, 0, 64, 127
2, 66632, Note_off_c, 0, 32, 64
2, 66636, Note_on_c, 0, 66, 65
2, 66647, Note_off_c, 0, 65, 64
2, 66691, Note_on_c, 0, 65, 58
2, 66710, Note_off_c, 0, 66, 64
2, 66744, Note_on_c, 0, 60, 40
2, 66744, Note_on_c, 0, 54, 44
2, 66744, Note_on_c, 0, 51, 49
2, 66748, Note_on_c, 0, 63, 70
2, 66781, Note_off_c, 0, 65, 64
2, 66810, Note_on_c, 0, 65, 70
2, 66830, Note_off_c, 0, 63, 64
2, 66832, Note_off_c, 0, 51, 64
2, 66832, Note_off_c, 0, 54, 64
2, 66832, Note_off_c, 0, 60, 64
2, 66860, Control_c, 0, 64, 0
2, 66872, Control_c, 0, 64, 0
2, 66874, Control_c, 0, 64, 127
2, 66886, Control_c, 0, 64, 127
2, 66892, Note_on_c, 0, 66, 63
2, 66894, Note_on_c, 0, 51, 46
2, 66897, Note_on_c, 0, 60, 49
2, 66897, Note_on_c, 0, 54, 33
2, 66916, Note_off_c, 0, 65, 64
2, 66960, Note_on_c, 0, 68, 70
2, 66982, Note_off_c, 0, 51, 64
2, 66985, Note_off_c, 0, 54, 64
2, 66985, Note_off_c, 0, 60, 64
2, 66988, Note_off_c, 0, 66, 64
2, 66995, Control_c, 0, 64, 0
2, 67007, Note_on_c, 0, 72, 75
2, 67007, Control_c, 0, 64, 0
2, 67013, Note_on_c, 0, 44, 70
2, 67020, Note_off_c, 0, 68, 64
2, 67052, Note_off_c, 0, 72, 64
2, 67146, Note_off_c, 0, 44, 64
2, 67181, Note_on_c, 0, 70, 70
2, 67182, Note_on_c, 0, 51, 46
2, 67185, Note_on_c, 0, 54, 46
2, 67190, Note_on_c, 0, 60, 44
2, 67213, Control_c, 0, 64, 127
2, 67225, Control_c, 0, 64, 127
2, 67270, Note_off_c, 0, 51, 64
2, 67273, Note_off_c, 0, 54, 64
2, 67278, Note_off_c, 0, 60, 64
2, 67344, Note_on_c, 0, 51, 44
2, 67349, Note_on_c, 0, 60, 33
2, 67349, Note_on_c, 0, 54, 40
2, 67432, Note_off_c, 0, 51, 64
2, 67437, Note_off_c, 0, 54, 64
2, 67437, Note_off_c, 0, 60, 64
2, 67474, Control_c, 0, 64, 0
2, 67486, Control_c, 0, 64, 0
2, 67502, Note_on_c, 0, 56, 67
2, 67505, Note_off_c, 0, 70, 64
2, 67508, Note_on_c, 0, 44, 70
2, 67561, Control_c, 0, 64, 127
2, 67573, Control_c, 0, 64, 127
2, 67612, Note_on_c, 0, 66, 35
2, 67621, Note_off_c, 0, 56, 64
2, 67641, Note_off_c, 0, 44, 64
2, 67642, Control_c, 0, 64, 0
2, 67645, Note_off_c, 0, 66, 64
2, 67654, Control_c, 0, 64, 0
2, 67679, Note_on_c, 0, 66, 70
2, 67683, Note_on_c, 0, 60, 45
2, 67684, Control_c, 0, 64, 127
2, 67684, Note_on_c, 0, 54, 49
2, 67684, Note_on_c, 0, 51, 50
2, 67696, Control_c, 0, 64, 127
2, 67748, Note_on_c, 0, 68, 65
2, 67758, Note_off_c, 0, 66, 64
2, 67771, Note_off_c, 0, 60, 64
2, 67772, Note_off_c, 0, 51, 64
2, 67772, Note_off_c, 0, 54, 64
2, 67797, Note_on_c, 0, 66, 65
2, 67820, Note_off_c, 0, 68, 64
2, 67824, Note_on_c, 0, 60, 45
2, 67828, Note_on_c, 0, 54, 39
2, 67831, Note_on_c, 0, 51, 39
2, 67846, Note_on_c, 0, 65, 61
2, 67876, Note_off_c, 0, 66, 64
2, 67912, Note_off_c, 0, 60, 64
2, 67912, Note_on_c, 0, 63, 63
2, 67916, Note_off_c, 0, 54, 64
2, 67919, Note_off_c, 0, 51, 64
2, 67935, Note_off_c, 0, 65, 64
2, 67940, Control_c, 0, 64, 0
2, 67952, Control_c, 0, 64, 0
2, 67967, Note_on_c, 0, 37, 70
2, 67977, Note_on_c, 0, 65, 67
2, 67984, Note_off_c, 0, 63, 64
2, 68002, Control_c, 0, 64, 0
2, 68014, Note_off_c, 0, 65, 64
2, 68014, Control_c, 0, 64, 0
2, 68044, Control_c, 0, 64, 127
2, 68056, Control_c, 0, 64, 127
2, 68100, Note_off_c, 0, 37, 64
2, 68154, Note_on_c, 0, 61, 65
2, 68162, Note_on_c, 0, 56, 46
2, 68167, Note_on_c, 0, 53, 45
2, 68174, Control_c, 0, 64, 127
2, 68186, Control_c, 0, 64, 127
2, 68250, Note_off_c, 0, 56, 64
2, 68255, Note_off_c, 0, 53, 64
2, 68314, Note_on_c, 0, 56, 33
2, 68318, Note_on_c, 0, 53, 39
2, 68402, Note_off_c, 0, 56, 64
2, 68404, Note_off_c, 0, 61, 64
2, 68406, Note_off_c, 0, 53, 64
2, 68461, Control_c, 0, 64, 0
2, 68473, Control_c, 0, 64, 0
2, 68484, Note_on_c, 0, 65, 40
2, 68488, Note_on_c, 0, 42, 40
2, 68520, Control_c, 0, 64, 127
2, 68532, Control_c, 0, 64, 127
2, 68545, Note_on_c, 0, 66, 40
2, 68550, Note_off_c, 0, 65, 64
2, 68604, Note_on_c, 0, 65, 39
2, 68613, Control_c, 0, 64, 0
2, 68616, Note_off_c, 0, 66, 64
2, 68621, Note_off_c, 0, 42, 64
2, 68625, Control_c, 0, 64, 0
2, 68649, Note_on_c, 0, 57, 31
2, 68649, Note_on_c, 0, 51, 31
2, 68655, Note_on_c, 0, 63, 53
2, 68671, Note_off_c, 0, 65, 64
2, 68737, Note_off_c, 0, 51, 64
2, 68737, Note_off_c, 0, 57, 64
2, 68738, Note_on_c, 0, 65, 40
2, 68754, Note_off_c, 0, 63, 64
2, 68806, Control_c, 0, 64, 127
2, 68808, Note_on_c, 0, 66, 40
2, 68808, Note_on_c, 0, 57, 31
2, 68808, Note_on_c, 0, 51, 33
2, 68818, Control_c, 0, 64, 127
2, 68837, Note_off_c, 0, 65, 64
2, 68876, Note_on_c, 0, 68, 33
2, 68896, Note_off_c, 0, 51, 64
2, 68896, Note_off_c, 0, 57, 64
2, 68938, Note_off_c, 0, 66, 64
2, 68946, Note_on_c, 0, 42, 49
2, 68956, Control_c, 0, 64, 0
2, 68958, Note_on_c, 0, 71, 44
2, 68968, Control_c, 0, 64, 0
2, 68975, Note_off_c, 0, 68, 64
2, 68997, Note_off_c, 0, 71, 64
2, 69079, Note_off_c, 0, 42, 64
2, 69130, Note_on_c, 0, 61, 24
2, 69139, Note_on_c, 0, 69, 50
2, 69139, Note_on_c, 0, 51, 31
2, 69180, Control_c, 0, 64, 127
2, 69192, Control_c, 0, 64, 127
2, 69218, Note_off_c, 0, 61, 64
2, 69227, Note_off_c, 0, 51, 64
2, 69293, Note_on_c, 0, 61, 20
2, 69299, Note_on_c, 0, 51, 27
2, 69362, Note_off_c, 0, 69, 64
2, 69381, Note_off_c, 0, 61, 64
2, 69387, Note_off_c, 0, 51, 64
2, 69441, Control_c, 0, 64, 0
2, 69453, Control_c, 0, 64, 0
2, 69466, Note_on_c, 0, 56, 45
2, 69473, Note_on_c, 0, 44, 40
2, 69527, Control_c, 0, 64, 127
2, 69539, Control_c, 0, 64, 127
2, 69545, Note_off_c, 0, 56, 64
2, 69578, Note_on_c, 0, 66, 50
2, 69606, Note_off_c, 0, 44, 64
2, 69613, Control_c, 0, 64, 0
2, 69615, Note_off_c, 0, 66, 64
2, 69625, Control_c, 0, 64, 0
2, 69646, Note_on_c, 0, 66, 49
2, 69656, Note_on_c, 0, 54, 31
2, 69662, Note_on_c, 0, 60, 31
2, 69665, Note_on_c, 0, 51, 31
2, 69678, Control_c, 0, 64, 127
2, 69690, Control_c, 0, 64, 127
2, 69722, Note_on_c, 0, 68, 40
2, 69735, Note_off_c, 0, 66, 64
2, 69744, Note_off_c, 0, 54, 64
2, 69750, Note_off_c, 0, 60, 64
2, 69753, Note_off_c, 0, 51, 64
2, 69767, Note_on_c, 0, 66, 46
2, 69792, Note_on_c, 0, 60, 31
2, 69792, Note_on_c, 0, 54, 31
2, 69797, Note_off_c, 0, 68, 64
2, 69799, Note_on_c, 0, 51, 33
2, 69826, Note_on_c, 0, 64, 35
2, 69842, Note_off_c, 0, 66, 64
2, 69880, Note_off_c, 0, 54, 64
2, 69880, Note_off_c, 0, 60, 64
2, 69887, Note_off_c, 0, 51, 64
2, 69898, Note_on_c, 0, 63, 40
2, 69913, Note_off_c, 0, 64, 64
2, 69932, Control_c, 0, 64, 0
2, 69944, Control_c, 0, 64, 0
2, 69955, Note_on_c, 0, 64, 45
2, 69955, Note_on_c, 0, 37, 49
2, 69957, Note_off_c, 0, 63, 64
2, 69999, Note_off_c, 0, 64, 64
2, 70088, Note_off_c, 0, 37, 64
2, 70145, Note_on_c, 0, 61, 37
2, 70148, Note_on_c, 0, 56, 33
2, 70152, Note_on_c, 0, 52, 36
2, 70164, Control_c, 0, 64, 127
2, 70176, Control_c, 0, 64, 127
2, 70236, Note_off_c, 0, 56, 64
2, 70240, Note_off_c, 0, 52, 64
2, 70327, Note_off_c, 0, 61, 64
2, 70343, Note_on_c, 0, 56, 24
2, 70344, Note_on_c, 0, 52, 27
2, 70431, Note_off_c, 0, 56, 64
2, 70432, Note_off_c, 0, 52, 64
2, 70439, Note_on_c, 0, 68, 74
2, 70479, Note_off_c, 0, 68, 64
2, 70489, Control_c, 0, 64, 0
2, 70501, Control_c, 0, 64, 0
2, 70508, Note_on_c, 0, 68, 64
2, 70517, Note_on_c, 0, 45, 67
2, 70570, Control_c, 0, 64, 127
2, 70582, Control_c, 0, 64, 127
2, 70629, Note_on_c, 0, 69, 61
2, 70632, Note_off_c, 0, 68, 64
2, 70650, Note_off_c, 0, 45, 64
2, 70675, Note_on_c, 0, 68, 74
2, 70679, Control_c, 0, 64, 0
2, 70691, Control_c, 0, 64, 0
2, 70698, Note_off_c, 0, 69, 64
2, 70722, Note_on_c, 0, 54, 20
2, 70730, Control_c, 0, 64, 127
2, 70730, Note_on_c, 0, 66, 72
2, 70732, Note_on_c, 0, 64, 45
2, 70735, Note_on_c, 0, 61, 49
2, 70742, Note_off_c, 0, 68, 64
2, 70742, Control_c, 0, 64, 127
2, 70789, Note_on_c, 0, 68, 74
2, 70800, Note_off_c, 0, 66, 64
2, 70810, Note_off_c, 0, 54, 64
2, 70820, Note_off_c, 0, 64, 64
2, 70823, Note_off_c, 0, 61, 64
2, 70857, Note_on_c, 0, 69, 70
2, 70860, Note_on_c, 0, 64, 45
2, 70864, Note_on_c, 0, 54, 49
2, 70870, Note_on_c, 0, 61, 46
2, 70874, Note_off_c, 0, 68, 64
2, 70925, Note_on_c, 0, 71, 67
2, 70937, Note_off_c, 0, 69, 64
2, 70948, Note_off_c, 0, 64, 64
2, 70952, Note_off_c, 0, 54, 64
2, 70958, Note_off_c, 0, 61, 64
2, 70980, Control_c, 0, 64, 0
2, 70992, Control_c, 0, 64, 0
2, 70999, Note_on_c, 0, 75, 67
2, 71001, Note_off_c, 0, 71, 64
2, 71006, Note_on_c, 0, 45, 61
2, 71037, Note_off_c, 0, 75, 64
2, 71139, Note_off_c, 0, 45, 64
2, 71181, Note_on_c, 0, 73, 74
2, 71185, Note_on_c, 0, 64, 50
2, 71185, Note_on_c, 0, 61, 49
2, 71185, Note_on_c, 0, 54, 39
2, 71214, Control_c, 0, 64, 127
2, 71226, Control_c, 0, 64, 127
2, 71273, Note_off_c, 0, 54, 64
2, 71273, Note_off_c, 0, 61, 64
2, 71273, Note_off_c, 0, 64, 64
2, 71322, Note_on_c, 0, 54, 46
2, 71328, Note_on_c, 0, 64, 40
2, 71328, Note_on_c, 0, 61, 50
2, 71410, Note_off_c, 0, 54, 64
2, 71416, Note_off_c, 0, 61, 64
2, 71416, Note_off_c, 0, 64, 64
2, 71481, Control_c, 0, 64, 0
2, 71493, Control_c, 0, 64, 0
2, 71505, Note_on_c, 0, 47, 67
2, 71509, Note_on_c, 0, 59, 75
2, 71515, Note_off_c, 0, 73, 64
2, 71550, Control_c, 0, 64, 127
2, 71562, Control_c, 0, 64, 127
2, 71634, Note_on_c, 0, 69, 67
2, 71638, Note_off_c, 0, 47, 64
2, 71666, Note_off_c, 0, 59, 64
2, 71670, Control_c, 0, 64, 0
2, 71678, Note_off_c, 0, 69, 64
2, 71682, Control_c, 0, 64, 0
2, 71709, Note_on_c, 0, 69, 67
2, 71715, Note_on_c, 0, 63, 54
2, 71720, Note_on_c, 0, 54, 26
2, 71721, Note_on_c, 0, 57, 49
2, 71733, Control_c, 0, 64, 127
2, 71745, Control_c, 0, 64, 127
2, 71769, Note_on_c, 0, 71, 68
2, 71779, Note_off_c, 0, 69, 64
2, 71803, Note_off_c, 0, 63, 64
2, 71808, Note_off_c, 0, 54, 64
2, 71809, Note_off_c, 0, 57, 64
2, 71817, Note_on_c, 0, 69, 68
2, 71830, Note_off_c, 0, 71, 64
2, 71872, Note_on_c, 0, 68, 83
2, 71872, Note_on_c, 0, 63, 54
2, 71876, Note_on_c, 0, 57, 49
2, 71880, Note_on_c, 0, 54, 26
2, 71892, Note_off_c, 0, 69, 64
2, 71929, Note_on_c, 0, 66, 72
2, 71952, Note_off_c, 0, 68, 64
2, 71960, Note_off_c, 0, 63, 64
2, 71964, Note_off_c, 0, 57, 64
2, 71968, Note_off_c, 0, 54, 64
2, 71987, Control_c, 0, 64, 0
2, 71990, Note_on_c, 0, 40, 59
2, 71999, Note_on_c, 0, 68, 83
2, 71999, Control_c, 0, 64, 0
2, 72012, Note_off_c, 0, 66, 64
2, 72039, Note_off_c, 0, 68, 64
2, 72123, Note_off_c, 0, 40, 64
2, 72186, Note_on_c, 0, 56, 49
2, 72187, Note_on_c, 0, 64, 65
2, 72193, Note_on_c, 0, 59, 22
2, 72217, Control_c, 0, 64, 127
2, 72229, Control_c, 0, 64, 127
2, 72274, Note_off_c, 0, 56, 64
2, 72281, Note_off_c, 0, 59, 64
2, 72367, Note_on_c, 0, 59, 26
2, 72370, Note_on_c, 0, 56, 49
2, 72455, Note_off_c, 0, 59, 64
2, 72458, Note_off_c, 0, 56, 64
2, 72480, Note_off_c, 0, 64, 64
2, 72489, Note_on_c, 0, 64, 53
2, 72533, Note_off_c, 0, 64, 64
2, 72558, Control_c, 0, 64, 0
2, 72570, Control_c, 0, 64, 0
2, 72575, Note_on_c, 0, 64, 49
2, 72578, Note_on_c, 0, 42, 46
2, 72604, Control_c, 0, 64, 127
2, 72616, Control_c, 0, 64, 127
2, 72639, Note_off_c, 0, 64, 64
2, 72641, Note_on_c, 0, 66, 39
2, 72673, Note_off_c, 0, 66, 64
2, 72680, Note_on_c, 0, 64, 41
2, 72707, Note_off_c, 0, 64, 64
2, 72711, Note_off_c, 0, 42, 64
2, 72717, Note_on_c, 0, 66, 55
2, 72744, Note_off_c, 0, 66, 64
2, 72752, Note_on_c, 0, 64, 55
2, 72775, Note_off_c, 0, 64, 64
2, 72782, Note_on_c, 0, 66, 54
2, 72813, Note_on_c, 0, 64, 54
2, 72817, Note_off_c, 0, 66, 64
2, 72827, Note_on_c, 0, 51, 39
2, 72832, Note_on_c, 0, 57, 27
2, 72844, Note_on_c, 0, 63, 55
2, 72852, Note_off_c, 0, 64, 64
2, 72914, Note_on_c, 0, 64, 50
2, 72915, Note_off_c, 0, 51, 64
2, 72920, Note_off_c, 0, 57, 64
2, 72922, Note_off_c, 0, 63, 64
2, 72977, Control_c, 0, 64, 0
2, 72989, Control_c, 0, 64, 0
2, 72996, Note_on_c, 0, 66, 49
2, 73002, Note_on_c, 0, 51, 39
2, 73008, Note_on_c, 0, 57, 36
2, 73013, Note_off_c, 0, 64, 64
2, 73036, Control_c, 0, 64, 127
2, 73048, Control_c, 0, 64, 127
2, 73066, Note_on_c, 0, 68, 41
2, 73089, Note_off_c, 0, 66, 64
2, 73090, Note_off_c, 0, 51, 64
2, 73096, Note_off_c, 0, 57, 64
2, 73127, Control_c, 0, 64, 0
2, 73139, Control_c, 0, 64, 0
2, 73148, Note_on_c, 0, 42, 49
2, 73151, Note_on_c, 0, 71, 53
2, 73161, Note_off_c, 0, 68, 64
2, 73196, Control_c, 0, 64, 127
2, 73208, Control_c, 0, 64, 127
2, 73281, Note_off_c, 0, 42, 64
2, 73304, Control_c, 0, 64, 0
2, 73312, Note_on_c, 0, 51, 33
2, 73314, Note_on_c, 0, 61, 36
2, 73316, Control_c, 0, 64, 0
2, 73342, Control_c, 0, 64, 127
2, 73354, Control_c, 0, 64, 127
2, 73400, Note_off_c, 0, 51, 64
2, 73402, Note_off_c, 0, 61, 64
2, 73496, Note_on_c, 0, 61, 24
2, 73508, Note_on_c, 0, 51, 26
2, 73518, Note_on_c, 0, 69, 49
2, 73533, Note_off_c, 0, 71, 64
2, 73584, Note_off_c, 0, 61, 64
2, 73596, Note_off_c, 0, 51, 64
2, 73693, Note_off_c, 0, 69, 64
2, 73709, Control_c, 0, 64, 0
2, 73721, Control_c, 0, 64, 0
2, 73724, Note_on_c, 0, 44, 58
2, 73724, Note_on_c, 0, 32, 67
2, 73728, Note_on_c, 0, 56, 40
2, 73784, Control_c, 0, 64, 127
2, 73796, Control_c, 0, 64, 127
2, 73822, Note_off_c, 0, 56, 64
2, 73838, Control_c, 0, 64, 0
2, 73850, Control_c, 0, 64, 0
2, 73872, Note_on_c, 0, 66, 39
2, 73898, Note_off_c, 0, 66, 64
2, 73906, Control_c, 0, 64, 0
2, 73918, Control_c, 0, 64, 0
2, 73932, Note_on_c, 0, 66, 67
2, 73936, Note_on_c, 0, 51, 55
2, 73940, Note_on_c, 0, 54, 49
2, 73943, Note_on_c, 0, 60, 40
2, 73946, Control_c, 0, 64, 127
2, 73958, Control_c, 0, 64, 127
2, 74006, Note_on_c, 0, 68, 55
2, 74009, Note_off_c, 0, 54, 64
2, 74009, Note_off_c, 0, 51, 64
2, 74016, Note_off_c, 0, 60, 64
2, 74019, Note_off_c, 0, 66, 64
2, 74039, Note_off_c, 0, 32, 64
2, 74039, Note_off_c, 0, 44, 64
2, 74057, Note_on_c, 0, 66, 67
2, 74082, Note_off_c, 0, 68, 64
2, 74112, Note_on_c, 0, 65, 53
2, 74137, Note_off_c, 0, 66, 64
2, 74182, Note_on_c, 0, 63, 70
2, 74183, Note_off_c, 0, 65, 64
2, 74246, Note_off_c, 0, 63, 64
2, 74246, Control_c, 0, 64, 0
2, 74258, Control_c, 0, 64, 0
2, 74268, Note_on_c, 0, 44, 63
2, 74274, Note_on_c, 0, 56, 70
2, 74274, Note_on_c, 0, 32, 94
2, 74302, Control_c, 0, 64, 127
2, 74314, Control_c, 0, 64, 127
2, 74368, Note_off_c, 0, 56, 64
2, 74389, Note_on_c, 0, 66, 70
2, 74394, Note_on_c, 0, 70, 70
2, 74398, Note_off_c, 0, 44, 64
2, 74412, Control_c, 0, 64, 0
2, 74415, Note_off_c, 0, 70, 64
2, 74417, Note_off_c, 0, 66, 64
2, 74424, Control_c, 0, 64, 0
2, 74436, Note_on_c, 0, 44, 31
2, 74442, Note_on_c, 0, 54, 59
2, 74447, Note_on_c, 0, 60, 61
2, 74447, Note_on_c, 0, 51, 59
2, 74448, Note_on_c, 0, 70, 70
2, 74452, Note_on_c, 0, 66, 70
2, 74461, Control_c, 0, 64, 127
2, 74473, Control_c, 0, 64, 127
2, 74495, Note_off_c, 0, 66, 64
2, 74506, Note_off_c, 0, 60, 64
2, 74516, Note_on_c, 0, 72, 65
2, 74519, Note_off_c, 0, 54, 64
2, 74524, Note_off_c, 0, 51, 64
2, 74533, Note_off_c, 0, 70, 64
2, 74563, Note_on_c, 0, 70, 67
2, 74588, Note_off_c, 0, 72, 64
2, 74589, Note_off_c, 0, 32, 64
2, 74612, Note_on_c, 0, 65, 70
2, 74614, Note_on_c, 0, 68, 70
2, 74645, Note_off_c, 0, 70, 64
2, 74687, Note_on_c, 0, 66, 70
2, 74688, Note_on_c, 0, 63, 70
2, 74701, Note_off_c, 0, 65, 64
2, 74703, Note_off_c, 0, 68, 64
2, 74714, Note_off_c, 0, 44, 64
2, 74743, Control_c, 0, 64, 0
2, 74755, Control_c, 0, 64, 0
2, 74763, Note_on_c, 0, 56, 70
2, 74763, Note_on_c, 0, 32, 94
2, 74766, Note_on_c, 0, 44, 70
2, 74783, Note_off_c, 0, 66, 64
2, 74784, Note_off_c, 0, 63, 64
2, 74785, Control_c, 0, 64, 127
2, 74797, Control_c, 0, 64, 127
2, 74861, Note_on_c, 0, 75, 61
2, 74868, Note_on_c, 0, 66, 70
2, 74881, Note_off_c, 0, 56, 64
2, 74891, Note_off_c, 0, 44, 64
2, 74892, Note_off_c, 0, 75, 64
2, 74897, Control_c, 0, 64, 0
2, 74899, Note_off_c, 0, 66, 64
2, 74904, Note_on_c, 0, 44, 44
2, 74908, Note_on_c, 0, 51, 70
2, 74909, Control_c, 0, 64, 0
2, 74916, Note_on_c, 0, 54, 70
2, 74917, Note_on_c, 0, 66, 63
2, 74925, Note_on_c, 0, 75, 70
2, 74933, Control_c, 0, 64, 127
2, 74940, Note_on_c, 0, 60, 70
2, 74945, Control_c, 0, 64, 127
2, 74966, Note_off_c, 0, 44, 64
2, 74976, Note_on_c, 0, 77, 63
2, 74991, Note_off_c, 0, 75, 64
2, 75004, Note_off_c, 0, 51, 64
2, 75015, Note_off_c, 0, 32, 64
2, 75022, Note_off_c, 0, 54, 64
2, 75036, Note_on_c, 0, 75, 68
2, 75038, Note_off_c, 0, 60, 64
2, 75044, Note_off_c, 0, 77, 64
2, 75060, Note_off_c, 0, 66, 64
2, 75080, Note_on_c, 0, 73, 59
2, 75084, Note_on_c, 0, 65, 63
2, 75112, Note_off_c, 0, 75, 64
2, 75148, Note_on_c, 0, 72, 67
2, 75148, Note_on_c, 0, 63, 63
2, 75158, Note_off_c, 0, 73, 64
2, 75162, Note_off_c, 0, 65, 64
2, 75208, Note_off_c, 0, 72, 64
2, 75215, Control_c, 0, 64, 0
2, 75216, Note_off_c, 0, 63, 64
2, 75216, Note_on_c, 0, 32, 94
2, 75217, Note_on_c, 0, 44, 70
2, 75220, Note_on_c, 0, 56, 70
2, 75227, Control_c, 0, 64, 0
2, 75247, Control_c, 0, 64, 127
2, 75259, Control_c, 0, 64, 127
2, 75269, Note_off_c, 0, 56, 64
2, 75299, Control_c, 0, 64, 0
2, 75311, Control_c, 0, 64, 0
2, 75324, Note_on_c, 0, 78, 70
2, 75324, Note_on_c, 0, 69, 70
2, 75331, Control_c, 0, 64, 127
2, 75343, Control_c, 0, 64, 127
2, 75348, Note_off_c, 0, 78, 64
2, 75348, Note_on_c, 0, 51, 49
2, 75352, Note_off_c, 0, 69, 64
2, 75360, Note_on_c, 0, 60, 70
2, 75362, Control_c, 0, 64, 0
2, 75374, Control_c, 0, 64, 0
2, 75376, Note_on_c, 0, 66, 68
2, 75379, Note_on_c, 0, 69, 70
2, 75385, Note_on_c, 0, 78, 70
2, 75398, Control_c, 0, 64, 127
2, 75410, Control_c, 0, 64, 127
2, 75447, Note_on_c, 0, 80, 70
2, 75462, Note_off_c, 0, 78, 64
2, 75468, Note_off_c, 0, 32, 64
2, 75469, Note_off_c, 0, 44, 64
2, 75489, Note_off_c, 0, 69, 64
2, 75504, Note_on_c, 0, 78, 70
2, 75528, Note_off_c, 0, 80, 64
2, 75535, Note_off_c, 0, 51, 64
2, 75552, Note_on_c, 0, 77, 70
2, 75555, Note_off_c, 0, 60, 64
2, 75556, Note_on_c, 0, 68, 70
2, 75576, Note_off_c, 0, 66, 64
2, 75581, Note_off_c, 0, 78, 64
2, 75626, Note_on_c, 0, 75, 67
2, 75631, Note_on_c, 0, 66, 70
2, 75636, Note_off_c, 0, 77, 64
2, 75640, Note_off_c, 0, 68, 64
2, 75699, Control_c, 0, 64, 0
2, 75711, Control_c, 0, 64, 0
2, 75716, Note_off_c, 0, 75, 64
2, 75716, Note_on_c, 0, 32, 94
2, 75717, Note_on_c, 0, 44, 70
2, 75721, Note_off_c, 0, 66, 64
2, 75746, Control_c, 0, 64, 127
2, 75758, Control_c, 0, 64, 127
2, 75787, Control_c, 0, 64, 0
2, 75799, Control_c, 0, 64, 0
2, 75839, Note_on_c, 0, 78, 70
2, 75860, Note_on_c, 0, 51, 70
2, 75862, Note_on_c, 0, 60, 70
2, 75866, Control_c, 0, 64, 0
2, 75872, Note_on_c, 0, 69, 70
2, 75872, Note_on_c, 0, 66, 70
2, 75878, Control_c, 0, 64, 0
2, 75924, Note_off_c, 0, 78, 64
2, 75924, Control_c, 0, 64, 127
2, 75936, Control_c, 0, 64, 127
2, 75951, Note_off_c, 0, 69, 64
2, 75980, Note_on_c, 0, 78, 53
2, 75993, Control_c, 0, 64, 0
2, 76005, Control_c, 0, 64, 0
2, 76010, Note_on_c, 0, 69, 67
2, 76032, Control_c, 0, 64, 127
2, 76044, Control_c, 0, 64, 127
2, 76059, Note_off_c, 0, 78, 64
2, 76103, Note_off_c, 0, 69, 64
2, 76118, Note_on_c, 0, 78, 50
2, 76147, Note_off_c, 0, 66, 64
2, 76155, Note_on_c, 0, 69, 67
2, 76185, Note_off_c, 0, 60, 64
2, 76188, Note_off_c, 0, 51, 64
2, 76205, Note_off_c, 0, 78, 64
2, 76234, Note_off_c, 0, 69, 64
2, 76261, Note_on_c, 0, 78, 49
2, 76300, Note_on_c, 0, 69, 67
2, 76349, Note_off_c, 0, 78, 64
2, 76377, Note_off_c, 0, 69, 64
2, 76408, Note_on_c, 0, 78, 58
2, 76446, Note_on_c, 0, 68, 70
2, 76449, Control_c, 0, 64, 0
2, 76461, Control_c, 0, 64, 0
2, 76464, Control_c, 0, 64, 127
2, 76466, Note_off_c, 0, 32, 64
2, 76467, Note_off_c, 0, 44, 64
2, 76476, Control_c, 0, 64, 127
2, 76497, Note_off_c, 0, 78, 64
2, 76527, Note_off_c, 0, 68, 64
2, 76548, Note_on_c, 0, 77, 53
2, 76588, Control_c, 0, 64, 0
2, 76588, Note_on_c, 0, 67, 70
2, 76599, Control_c, 0, 64, 127
2, 76600, Control_c, 0, 64, 0
2, 76611, Control_c, 0, 64, 127
2, 76669, Note_off_c, 0, 77, 64
2, 76677, Note_off_c, 0, 67, 64
2, 76689, Note_on_c, 0, 76, 58
2, 76736, Control_c, 0, 64, 0
2, 76739, Note_on_c, 0, 66, 65
2, 76748, Control_c, 0, 64, 0
2, 76780, Control_c, 0, 64, 127
2, 76792, Control_c, 0, 64, 127
2, 76820, Note_off_c, 0, 76, 64
2, 76846, Note_on_c, 0, 75, 65
2, 76864, Note_off_c, 0, 66, 64
2, 76877, Control_c, 0, 64, 0
2, 76889, Control_c, 0, 64, 0
2, 76901, Note_on_c, 0, 65, 61
2, 76924, Control_c, 0, 64, 127
2, 76936, Control_c, 0, 64, 127
2, 76998, Note_off_c, 0, 75, 64
2, 77020, Note_on_c, 0, 74, 58
2, 77039, Control_c, 0, 64, 0
2, 77051, Control_c, 0, 64, 0
2, 77062, Note_on_c, 0, 64, 53
2, 77073, Note_off_c, 0, 65, 64
2, 77087, Control_c, 0, 64, 127
2, 77099, Control_c, 0, 64, 127
2, 77198, Note_off_c, 0, 74, 64
2, 77206, Note_on_c, 0, 73, 68
2, 77237, Note_off_c, 0, 64, 64
2, 77241, Control_c, 0, 64, 0
2, 77253, Control_c, 0, 64, 0
2, 77260, Note_on_c, 0, 63, 59
2, 77293, Control_c, 0, 64, 127
2, 77305, Control_c, 0, 64, 127
2, 77361, Note_off_c, 0, 73, 64
2, 77434, Note_on_c, 0, 73, 65
2, 77436, Note_off_c, 0, 63, 64
2, 77531, Note_on_c, 0, 63, 68
2, 77651, Note_off_c, 0, 73, 64
2, 77744, Note_on_c, 0, 73, 70
2, 77825, Note_off_c, 0, 63, 64
2, 77868, Note_on_c, 0, 63, 68
2, 77878, Note_on_c, 0, 41, 54
2, 77880, Control_c, 0, 64, 0
2, 77892, Control_c, 0, 64, 0
2, 77936, Control_c, 0, 64, 127
2, 77948, Control_c, 0, 64, 127
2, 78043, Note_off_c, 0, 41, 64
2, 78109, Note_off_c, 0, 63, 64
2, 78147, Note_on_c, 0, 53, 46
2, 78159, Note_on_c, 0, 60, 46
2, 78164, Control_c, 0, 64, 0
2, 78176, Control_c, 0, 64, 0
2, 78187, Control_c, 0, 64, 127
2, 78199, Control_c, 0, 64, 127
2, 78235, Note_off_c, 0, 53, 64
2, 78237, Note_off_c, 0, 73, 64
2, 78240, Note_on_c, 0, 66, 46
2, 78245, Note_on_c, 0, 69, 45
2, 78247, Note_off_c, 0, 60, 64
2, 78350, Note_off_c, 0, 66, 64
2, 78350, Note_on_c, 0, 73, 53
2, 78353, Note_on_c, 0, 53, 49
2, 78355, Note_off_c, 0, 69, 64
2, 78355, Note_on_c, 0, 65, 49
2, 78363, Note_on_c, 0, 60, 49
2, 78441, Note_off_c, 0, 53, 64
2, 78449, Note_on_c, 0, 69, 49
2, 78451, Note_off_c, 0, 60, 64
2, 78456, Note_off_c, 0, 73, 64
2, 78456, Note_on_c, 0, 63, 55
2, 78461, Note_off_c, 0, 65, 64
2, 78484, Note_off_c, 0, 63, 64
2, 78499, Note_off_c, 0, 69, 64
2, 78530, Note_on_c, 0, 69, 49
2, 78534, Control_c, 0, 64, 0
2, 78534, Note_on_c, 0, 63, 54
2, 78540, Note_on_c, 0, 46, 49
2, 78546, Control_c, 0, 64, 0
2, 78600, Control_c, 0, 64, 127
2, 78612, Note_off_c, 0, 69, 64
2, 78612, Control_c, 0, 64, 127
2, 78615, Note_off_c, 0, 63, 64
2, 78666, Note_on_c, 0, 70, 49
2, 78672, Note_on_c, 0, 61, 61
2, 78689, Note_off_c, 0, 70, 64
2, 78690, Note_off_c, 0, 61, 64
2, 78699, Control_c, 0, 64, 0
2, 78705, Note_off_c, 0, 46, 64
2, 78711, Control_c, 0, 64, 0
2, 78720, Note_on_c, 0, 70, 59
2, 78725, Note_on_c, 0, 61, 59
2, 78725, Note_on_c, 0, 58, 46
2, 78726, Note_on_c, 0, 53, 53
2, 78756, Control_c, 0, 64, 127
2, 78768, Control_c, 0, 64, 127
2, 78813, Note_off_c, 0, 58, 64
2, 78814, Note_off_c, 0, 53, 64
2, 78855, Note_off_c, 0, 70, 64
2, 78860, Note_off_c, 0, 61, 64
2, 78928, Note_on_c, 0, 70, 58
2, 78932, Note_on_c, 0, 67, 61
2, 78932, Note_on_c, 0, 61, 49
2, 78936, Control_c, 0, 64, 0
2, 78940, Note_on_c, 0, 51, 49
2, 78948, Control_c, 0, 64, 0
2, 78979, Control_c, 0, 64, 127
2, 78991, Control_c, 0, 64, 127
2, 79020, Note_off_c, 0, 61, 64
2, 79028, Note_off_c, 0, 51, 64
2, 79083, Note_off_c, 0, 70, 64
2, 79091, Note_off_c, 0, 67, 64
2, 79127, Note_on_c, 0, 68, 65
2, 79129, Note_on_c, 0, 77, 59
2, 79136, Control_c, 0, 64, 0
2, 79137, Note_on_c, 0, 44, 53
2, 79148, Control_c, 0, 64, 0
2, 79191, Control_c, 0, 64, 127
2, 79203, Control_c, 0, 64, 127
2, 79302, Note_off_c, 0, 44, 64
2, 79318, Note_on_c, 0, 66, 49
2, 79324, Note_on_c, 0, 56, 49
2, 79328, Control_c, 0, 64, 0
2, 79333, Note_off_c, 0, 68, 64
2, 79340, Control_c, 0, 64, 0
2, 79343, Control_c, 0, 64, 127
2, 79355, Control_c, 0, 64, 127
2, 79396, Note_on_c, 0, 72, 58
2, 79396, Note_on_c, 0, 69, 58
2, 79406, Note_off_c, 0, 66, 64
2, 79412, Note_off_c, 0, 56, 64
2, 79427, Note_off_c, 0, 77, 64
2, 79479, Control_c, 0, 64, 0
2, 79484, Note_on_c, 0, 66, 46
2, 79491, Control_c, 0, 64, 0
2, 79497, Note_on_c, 0, 77, 58
2, 79498, Note_on_c, 0, 68, 67
2, 79498, Note_on_c, 0, 56, 53
2, 79505, Note_off_c, 0, 69, 64
2, 79517, Note_off_c, 0, 72, 64
2, 79531, Control_c, 0, 64, 127
2, 79543, Control_c, 0, 64, 127
2, 79560, Note_off_c, 0, 77, 64
2, 79561, Note_off_c, 0, 68, 64
2, 79572, Note_off_c, 0, 66, 64
2, 79582, Note_on_c, 0, 72, 58
2, 79582, Note_on_c, 0, 66, 67
2, 79586, Note_off_c, 0, 56, 64
2, 79609, Note_off_c, 0, 66, 64
2, 79619, Note_off_c, 0, 72, 64
2, 79624, Control_c, 0, 64, 0
2, 79636, Control_c, 0, 64, 0
2, 79648, Note_on_c, 0, 72, 61
2, 79649, Note_on_c, 0, 66, 59
2, 79655, Note_on_c, 0, 49, 58
2, 79695, Note_off_c, 0, 66, 64
2, 79698, Control_c, 0, 64, 127
2, 79710, Control_c, 0, 64, 127
2, 79716, Note_off_c, 0, 72, 64
2, 79770, Note_on_c, 0, 73, 50
2, 79772, Note_on_c, 0, 65, 53
2, 79786, Note_off_c, 0, 65, 64
2, 79786, Note_off_c, 0, 73, 64
2, 79799, Control_c, 0, 64, 0
2, 79811, Control_c, 0, 64, 0
2, 79816, Note_on_c, 0, 73, 67
2, 79819, Note_on_c, 0, 65, 58
2, 79820, Note_off_c, 0, 49, 64
2, 79829, Note_on_c, 0, 61, 53
2, 79829, Note_on_c, 0, 56, 59
2, 79853, Control_c, 0, 64, 127
2, 79865, Control_c, 0, 64, 127
2, 79917, Note_off_c, 0, 56, 64
2, 79917, Note_off_c, 0, 61, 64
2, 79948, Note_off_c, 0, 73, 64
2, 79951, Note_off_c, 0, 65, 64
2, 79993, Control_c, 0, 64, 0
2, 80005, Control_c, 0, 64, 0
2, 80013, Note_on_c, 0, 73, 68
2, 80013, Note_on_c, 0, 71, 61
2, 80016, Note_on_c, 0, 65, 53
2, 80016, Note_on_c, 0, 55, 55
2, 80061, Control_c, 0, 64, 127
2, 80073, Control_c, 0, 64, 127
2, 80104, Note_off_c, 0, 55, 64
2, 80104, Note_off_c, 0, 65, 64
2, 80190, Control_c, 0, 64, 0
2, 80194, Note_on_c, 0, 80, 67
2, 80198, Note_on_c, 0, 72, 67
2, 80201, Note_on_c, 0, 48, 63
2, 80202, Control_c, 0, 64, 0
2, 80210, Note_off_c, 0, 71, 64
2, 80210, Note_off_c, 0, 73, 64
2, 80248, Control_c, 0, 64, 127
2, 80260, Control_c, 0, 64, 127
2, 80358, Control_c, 0, 64, 0
2, 80366, Note_off_c, 0, 48, 64
2, 80370, Control_c, 0, 64, 0
2, 80381, Note_on_c, 0, 60, 59
2, 80382, Note_on_c, 0, 70, 67
2, 80416, Control_c, 0, 64, 127
2, 80428, Control_c, 0, 64, 127
2, 80451, Note_on_c, 0, 73, 58
2, 80454, Note_on_c, 0, 76, 59
2, 80461, Note_off_c, 0, 80, 64
2, 80466, Note_off_c, 0, 72, 64
2, 80469, Note_off_c, 0, 60, 64
2, 80470, Note_off_c, 0, 70, 64
2, 80536, Control_c, 0, 64, 0
2, 80544, Note_on_c, 0, 60, 65
2, 80548, Note_on_c, 0, 70, 59
2, 80548, Control_c, 0, 64, 0
2, 80556, Note_on_c, 0, 80, 70
2, 80556, Note_on_c, 0, 72, 70
2, 80576, Note_off_c, 0, 73, 64
2, 80579, Control_c, 0, 64, 127
2, 80580, Note_off_c, 0, 76, 64
2, 80591, Control_c, 0, 64, 127
2, 80632, Note_off_c, 0, 60, 64
2, 80636, Note_off_c, 0, 70, 64
2, 80645, Note_on_c, 0, 76, 55
2, 80647, Note_on_c, 0, 70, 68
2, 80656, Note_off_c, 0, 72, 64
2, 80656, Note_off_c, 0, 80, 64
2, 80679, Note_off_c, 0, 70, 64
2, 80684, Note_off_c, 0, 76, 64
2, 80713, Note_on_c, 0, 70, 68
2, 80716, Note_on_c, 0, 76, 67
2, 80726, Control_c, 0, 64, 0
2, 80728, Note_on_c, 0, 53, 58
2, 80738, Control_c, 0, 64, 0
2, 80765, Control_c, 0, 64, 127
2, 80777, Control_c, 0, 64, 127
2, 80839, Note_on_c, 0, 69, 68
2, 80843, Note_on_c, 0, 77, 68
2, 80846, Note_off_c, 0, 70, 64
2, 80854, Note_off_c, 0, 76, 64
2, 80868, Note_off_c, 0, 69, 64
2, 80869, Note_off_c, 0, 77, 64
2, 80891, Note_on_c, 0, 77, 70
2, 80897, Note_on_c, 0, 69, 68
2, 80903, Note_on_c, 0, 65, 63
2, 80903, Note_on_c, 0, 60, 63
2, 80991, Note_off_c, 0, 60, 64
2, 80991, Note_off_c, 0, 65, 64
2, 81026, Note_off_c, 0, 77, 64
2, 81032, Note_off_c, 0, 69, 64
2, 81084, Note_on_c, 0, 89, 70
2, 81086, Note_on_c, 0, 77, 70
2, 81096, Note_on_c, 0, 69, 70
2, 81102, Note_on_c, 0, 60, 70
2, 81133, Note_off_c, 0, 53, 64
2, 81184, Note_off_c, 0, 69, 64
2, 81190, Note_off_c, 0, 60, 64
2, 81242, Control_c, 0, 64, 0
2, 81254, Control_c, 0, 64, 0
2, 81265, Note_on_c, 0, 41, 70
2, 81292, Control_c, 0, 64, 127
2, 81304, Control_c, 0, 64, 127
2, 81353, Note_off_c, 0, 89, 64
2, 81363, Note_off_c, 0, 77, 64
2, 81384, Note_on_c, 0, 90, 70
2, 81384, Note_on_c, 0, 78, 70
2, 81407, Note_off_c, 0, 78, 64
2, 81408, Note_off_c, 0, 90, 64
2, 81437, Note_on_c, 0, 90, 70
2, 81440, Note_on_c, 0, 78, 70
2, 81440, Note_on_c, 0, 69, 68
2, 81440, Note_on_c, 0, 63, 70
2, 81444, Note_on_c, 0, 60, 53
2, 81528, Note_off_c, 0, 63, 64
2, 81528, Note_off_c, 0, 69, 64
2, 81532, Note_off_c, 0, 60, 64
2, 81613, Note_off_c, 0, 90, 64
2, 81616, Note_off_c, 0, 78, 64
2, 81636, Note_on_c, 0, 63, 39
2, 81639, Note_on_c, 0, 69, 83
2, 81640, Note_on_c, 0, 72, 33
2, 81692, Note_off_c, 0, 41, 64
2, 81724, Note_off_c, 0, 63, 64
2, 81728, Note_off_c, 0, 72, 64
2, 81855, Note_on_c, 0, 46, 49
2, 81880, Note_on_c, 0, 72, 55
2, 81883, Control_c, 0, 64, 0
2, 81895, Control_c, 0, 64, 0
2, 81913, Note_off_c, 0, 69, 64
2, 81947, Control_c, 0, 64, 127
2, 81959, Control_c, 0, 64, 127
2, 82082, Note_on_c, 0, 61, 40
2, 82084, Note_on_c, 0, 53, 44
2, 82170, Note_off_c, 0, 61, 64
2, 82172, Note_off_c, 0, 53, 64
2, 82178, Note_off_c, 0, 46, 64
2, 82178, Note_on_c, 0, 70, 46
2, 82205, Note_off_c, 0, 72, 64
2, 82237, Note_off_c, 0, 70, 64
2, 82302, Note_on_c, 0, 70, 58
2, 82306, Control_c, 0, 64, 0
2, 82309, Note_on_c, 0, 61, 33
2, 82317, Note_on_c, 0, 53, 40
2, 82318, Control_c, 0, 64, 0
2, 82357, Control_c, 0, 64, 127
2, 82369, Control_c, 0, 64, 127
2, 82379, Note_on_c, 0, 68, 58
2, 82397, Note_off_c, 0, 61, 64
2, 82405, Note_off_c, 0, 53, 64
2, 82408, Note_off_c, 0, 70, 64
2, 82437, Note_on_c, 0, 66, 55
2, 82465, Note_off_c, 0, 68, 64
2, 82538, Note_on_c, 0, 73, 53
2, 82538, Note_on_c, 0, 46, 40
2, 82539, Control_c, 0, 64, 0
2, 82542, Note_on_c, 0, 65, 45
2, 82551, Control_c, 0, 64, 0
2, 82554, Note_off_c, 0, 66, 64
2, 82604, Control_c, 0, 64, 127
2, 82616, Control_c, 0, 64, 127
2, 82660, Note_on_c, 0, 68, 25
2, 82665, Note_off_c, 0, 65, 64
2, 82688, Note_on_c, 0, 66, 60
2, 82703, Note_off_c, 0, 46, 64
2, 82711, Note_off_c, 0, 68, 64
2, 82729, Control_c, 0, 64, 0
2, 82733, Note_on_c, 0, 63, 45
2, 82733, Note_on_c, 0, 53, 49
2, 82741, Control_c, 0, 64, 0
2, 82747, Note_on_c, 0, 65, 60
2, 82751, Note_off_c, 0, 66, 64
2, 82778, Control_c, 0, 64, 127
2, 82790, Control_c, 0, 64, 127
2, 82819, Note_on_c, 0, 69, 49
2, 82821, Note_off_c, 0, 53, 64
2, 82821, Note_off_c, 0, 63, 64
2, 82822, Note_off_c, 0, 73, 64
2, 82825, Note_on_c, 0, 66, 40
2, 82846, Note_off_c, 0, 65, 64
2, 82886, Control_c, 0, 64, 0
2, 82898, Control_c, 0, 64, 0
2, 82905, Note_on_c, 0, 63, 45
2, 82908, Note_off_c, 0, 66, 64
2, 82908, Note_on_c, 0, 53, 49
2, 82911, Note_on_c, 0, 65, 55
2, 82917, Note_on_c, 0, 73, 58
2, 82918, Control_c, 0, 64, 127
2, 82927, Note_off_c, 0, 69, 64
2, 82930, Control_c, 0, 64, 127
2, 82967, Note_off_c, 0, 63, 64
2, 82985, Note_on_c, 0, 69, 49
2, 82993, Note_on_c, 0, 63, 58
2, 82996, Note_off_c, 0, 53, 64
2, 83000, Note_off_c, 0, 65, 64
2, 83006, Note_off_c, 0, 73, 64
2, 83019, Note_off_c, 0, 63, 64
2, 83034, Note_off_c, 0, 69, 64
2, 83043, Control_c, 0, 64, 0
2, 83055, Control_c, 0, 64, 0
2, 83059, Note_on_c, 0, 69, 53
2, 83063, Note_on_c, 0, 63, 58
2, 83068, Note_on_c, 0, 46, 49
2, 83115, Control_c, 0, 64, 127
2, 83127, Control_c, 0, 64, 127
2, 83137, Note_off_c, 0, 69, 64
2, 83141, Note_off_c, 0, 63, 64
2, 83174, Note_on_c, 0, 70, 54
2, 83180, Note_on_c, 0, 61, 65
2, 83202, Note_off_c, 0, 70, 64
2, 83206, Note_off_c, 0, 61, 64
2, 83208, Control_c, 0, 64, 0
2, 83220, Control_c, 0, 64, 0
2, 83231, Note_on_c, 0, 70, 59
2, 83231, Note_on_c, 0, 61, 55
2, 83233, Note_off_c, 0, 46, 64
2, 83240, Note_on_c, 0, 58, 50
2, 83240, Note_on_c, 0, 53, 54
2, 83262, Control_c, 0, 64, 127
2, 83274, Control_c, 0, 64, 127
2, 83328, Note_off_c, 0, 53, 64
2, 83328, Note_off_c, 0, 58, 64
2, 83378, Note_off_c, 0, 61, 64
2, 83378, Note_off_c, 0, 70, 64
2, 83408, Note_on_c, 0, 51, 46
2, 83410, Note_on_c, 0, 70, 53
2, 83413, Note_on_c, 0, 61, 50
2, 83415, Note_on_c, 0, 67, 55
2, 83424, Control_c, 0, 64, 0
2, 83436, Control_c, 0, 64, 0
2, 83469, Control_c, 0, 64, 127
2, 83471, Note_on_c, 0, 72, 39
2, 83474, Note_off_c, 0, 70, 64
2, 83481, Control_c, 0, 64, 127
2, 83496, Note_off_c, 0, 51, 64
2, 83501, Note_off_c, 0, 61, 64
2, 83513, Note_off_c, 0, 67, 64
2, 83522, Note_on_c, 0, 70, 61
2, 83535, Note_off_c, 0, 72, 64
2, 83628, Note_on_c, 0, 44, 40
2, 83631, Note_on_c, 0, 68, 58
2, 83632, Note_on_c, 0, 77, 55
2, 83639, Control_c, 0, 64, 0
2, 83646, Note_off_c, 0, 70, 64
2, 83651, Control_c, 0, 64, 0
2, 83701, Control_c, 0, 64, 127
2, 83713, Control_c, 0, 64, 127
2, 83749, Note_on_c, 0, 71, 49
2, 83777, Note_off_c, 0, 68, 64
2, 83793, Note_off_c, 0, 44, 64
2, 83794, Note_on_c, 0, 69, 50
2, 83801, Note_off_c, 0, 71, 64
2, 83803, Control_c, 0, 64, 0
2, 83815, Control_c, 0, 64, 0
2, 83840, Note_on_c, 0, 68, 67
2, 83840, Note_on_c, 0, 66, 61
2, 83840, Note_on_c, 0, 60, 39
2, 83844, Note_on_c, 0, 56, 46
2, 83855, Control_c, 0, 64, 127
2, 83859, Note_off_c, 0, 69, 64
2, 83867, Control_c, 0, 64, 127
2, 83908, Note_on_c, 0, 69, 58
2, 83909, Note_on_c, 0, 72, 53
2, 83916, Note_off_c, 0, 77, 64
2, 83917, Note_off_c, 0, 68, 64
2, 83928, Note_off_c, 0, 60, 64
2, 83928, Note_off_c, 0, 66, 64
2, 83932, Note_off_c, 0, 56, 64
2, 83962, Control_c, 0, 64, 0
2, 83974, Control_c, 0, 64, 0
2, 83989, Note_on_c, 0, 77, 59
2, 83989, Note_on_c, 0, 68, 65
2, 83992, Note_on_c, 0, 66, 45
2, 83993, Note_on_c, 0, 56, 53
2, 83996, Note_on_c, 0, 60, 40
2, 83998, Note_off_c, 0, 69, 64
2, 83999, Note_off_c, 0, 72, 64
2, 84008, Control_c, 0, 64, 127
2, 84020, Control_c, 0, 64, 127
2, 84064, Note_on_c, 0, 72, 49
2, 84070, Note_off_c, 0, 68, 64
2, 84070, Note_off_c, 0, 77, 64
2, 84080, Note_off_c, 0, 66, 64
2, 84081, Note_off_c, 0, 56, 64
2, 84084, Note_off_c, 0, 60, 64
2, 84108, Note_off_c, 0, 72, 64
2, 84119, Control_c, 0, 64, 0
2, 84131, Control_c, 0, 64, 0
2, 84137, Note_on_c, 0, 72, 61
2, 84141, Note_on_c, 0, 66, 65
2, 84143, Note_on_c, 0, 49, 58
2, 84181, Control_c, 0, 64, 127
2, 84193, Control_c, 0, 64, 127
2, 84209, Note_off_c, 0, 72, 64
2, 84213, Note_off_c, 0, 66, 64
2, 84240, Note_on_c, 0, 73, 63
2, 84254, Note_on_c, 0, 65, 58
2, 84269, Note_off_c, 0, 65, 64
2, 84275, Note_off_c, 0, 73, 64
2, 84286, Control_c, 0, 64, 0
2, 84292, Note_on_c, 0, 65, 61
2, 84298, Note_on_c, 0, 73, 67
2, 84298, Control_c, 0, 64, 0
2, 84308, Note_off_c, 0, 49, 64
2, 84309, Note_on_c, 0, 61, 55
2, 84309, Note_on_c, 0, 56, 59
2, 84330, Control_c, 0, 64, 127
2, 84342, Control_c, 0, 64, 127
2, 84397, Note_off_c, 0, 56, 64
2, 84397, Note_off_c, 0, 61, 64
2, 84439, Note_off_c, 0, 65, 64
2, 84445, Note_off_c, 0, 73, 64
2, 84483, Note_on_c, 0, 71, 65
2, 84486, Note_on_c, 0, 73, 70
2, 84490, Control_c, 0, 64, 0
2, 84496, Note_on_c, 0, 65, 46
2, 84496, Note_on_c, 0, 55, 49
2, 84502, Control_c, 0, 64, 0
2, 84538, Note_off_c, 0, 71, 64
2, 84539, Control_c, 0, 64, 127
2, 84551, Control_c, 0, 64, 127
2, 84557, Note_on_c, 0, 75, 70
2, 84563, Note_off_c, 0, 73, 64
2, 84584, Note_off_c, 0, 55, 64
2, 84584, Note_off_c, 0, 65, 64
2, 84600, Note_on_c, 0, 73, 70
2, 84622, Note_off_c, 0, 75, 64
2, 84660, Control_c, 0, 64, 0
2, 84669, Note_on_c, 0, 72, 67
2, 84672, Control_c, 0, 64, 0
2, 84679, Note_on_c, 0, 80, 70
2, 84679, Note_on_c, 0, 48, 63
2, 84686, Note_off_c, 0, 73, 64
2, 84718, Control_c, 0, 64, 127
2, 84730, Control_c, 0, 64, 127
2, 84796, Note_on_c, 0, 75, 59
2, 84799, Note_off_c, 0, 72, 64
2, 84820, Note_on_c, 0, 73, 50
2, 84842, Note_off_c, 0, 75, 64
2, 84844, Note_off_c, 0, 48, 64
2, 84846, Control_c, 0, 64, 0
2, 84851, Note_on_c, 0, 70, 53
2, 84853, Note_on_c, 0, 60, 58
2, 84858, Control_c, 0, 64, 0
2, 84862, Note_on_c, 0, 67, 58
2, 84867, Note_on_c, 0, 72, 70
2, 84876, Note_off_c, 0, 73, 64
2, 84896, Control_c, 0, 64, 127
2, 84908, Control_c, 0, 64, 127
2, 84936, Note_on_c, 0, 76, 70
2, 84937, Note_on_c, 0, 73, 68
2, 84939, Note_off_c, 0, 70, 64
2, 84941, Note_off_c, 0, 60, 64
2, 84948, Note_off_c, 0, 80, 64
2, 84950, Note_off_c, 0, 67, 64
2, 84962, Note_off_c, 0, 72, 64
2, 85004, Control_c, 0, 64, 0
2, 85016, Control_c, 0, 64, 0
2, 85025, Note_on_c, 0, 70, 53
2, 85025, Note_on_c, 0, 60, 58
2, 85026, Note_on_c, 0, 72, 70
2, 85026, Note_on_c, 0, 67, 61
2, 85030, Control_c, 0, 64, 127
2, 85033, Note_on_c, 0, 80, 70
2, 85042, Note_off_c, 0, 76, 64
2, 85042, Control_c, 0, 64, 127
2, 85043, Note_off_c, 0, 73, 64
2, 85087, Note_off_c, 0, 70, 64
2, 85095, Note_on_c, 0, 76, 65
2, 85100, Note_on_c, 0, 70, 65
2, 85101, Note_off_c, 0, 72, 64
2, 85108, Note_off_c, 0, 80, 64
2, 85113, Note_off_c, 0, 60, 64
2, 85114, Note_off_c, 0, 67, 64
2, 85144, Note_off_c, 0, 70, 64
2, 85146, Note_off_c, 0, 76, 64
2, 85157, Control_c, 0, 64, 0
2, 85169, Control_c, 0, 64, 0
2, 85175, Note_on_c, 0, 76, 67
2, 85176, Note_on_c, 0, 70, 68
2, 85185, Note_on_c, 0, 53, 63
2, 85224, Control_c, 0, 64, 127
2, 85236, Control_c, 0, 64, 127
2, 85266, Note_off_c, 0, 76, 64
2, 85277, Note_off_c, 0, 70, 64
2, 85290, Note_on_c, 0, 69, 67
2, 85295, Note_on_c, 0, 77, 70
2, 85319, Note_off_c, 0, 69, 64
2, 85323, Note_off_c, 0, 77, 64
2, 85330, Control_c, 0, 64, 0
2, 85342, Control_c, 0, 64, 0
2, 85347, Note_on_c, 0, 77, 70
2, 85347, Note_on_c, 0, 69, 65
2, 85347, Note_on_c, 0, 65, 61
2, 85350, Note_off_c, 0, 53, 64
2, 85353, Note_on_c, 0, 60, 58
2, 85353, Control_c, 0, 64, 127
2, 85365, Control_c, 0, 64, 127
2, 85435, Note_off_c, 0, 65, 64
2, 85441, Note_off_c, 0, 60, 64
2, 85484, Note_on_c, 0, 53, 53
2, 85489, Note_off_c, 0, 77, 64
2, 85494, Note_off_c, 0, 69, 64
2, 85512, Note_on_c, 0, 60, 70
2, 85524, Note_on_c, 0, 89, 70
2, 85524, Note_on_c, 0, 77, 70
2, 85531, Note_on_c, 0, 69, 70
2, 85701, Note_off_c, 0, 77, 64
2, 85701, Note_off_c, 0, 89, 64
2, 85702, Note_off_c, 0, 69, 64
2, 85707, Control_c, 0, 64, 0
2, 85719, Note_on_c, 0, 92, 70
2, 85719, Control_c, 0, 64, 0
2, 85725, Note_off_c, 0, 60, 64
2, 85728, Note_on_c, 0, 80, 70
2, 85728, Note_on_c, 0, 41, 70
2, 85742, Note_off_c, 0, 53, 64
2, 85754, Control_c, 0, 64, 127
2, 85760, Note_off_c, 0, 80, 64
2, 85766, Control_c, 0, 64, 127
2, 85774, Note_off_c, 0, 92, 64
2, 85856, Note_on_c, 0, 90, 70
2, 85859, Note_on_c, 0, 78, 70
2, 85877, Note_off_c, 0, 78, 64
2, 85880, Note_off_c, 0, 90, 64
2, 85893, Note_off_c, 0, 41, 64
2, 85905, Note_on_c, 0, 90, 70
2, 85915, Note_on_c, 0, 78, 70
2, 85916, Note_on_c, 0, 69, 70
2, 85919, Note_on_c, 0, 72, 70
2, 85920, Note_on_c, 0, 63, 70
2, 85920, Note_on_c, 0, 60, 55
2, 86051, Note_off_c, 0, 69, 64
2, 86055, Note_off_c, 0, 60, 64
2, 86055, Note_off_c, 0, 63, 64
2, 86081, Note_off_c, 0, 90, 64
2, 86091, Note_off_c, 0, 78, 64
2, 86095, Note_off_c, 0, 72, 64
2, 86125, Note_on_c, 0, 69, 70
2, 86135, Note_on_c, 0, 63, 49
2, 86135, Note_on_c, 0, 53, 46
2, 86139, Note_on_c, 0, 60, 49
2, 86345, Note_off_c, 0, 53, 64
2, 86345, Note_off_c, 0, 63, 64
2, 86349, Note_off_c, 0, 60, 64
2, 86350, Note_on_c, 0, 46, 33
2, 86371, Note_on_c, 0, 70, 67
2, 86385, Control_c, 0, 64, 0
2, 86396, Note_off_c, 0, 69, 64
2, 86397, Control_c, 0, 64, 0
2, 86459, Control_c, 0, 64, 127
2, 86471, Control_c, 0, 64, 127
2, 86515, Note_off_c, 0, 46, 64
2, 86555, Control_c, 0, 64, 0
2, 86567, Control_c, 0, 64, 0
2, 86583, Note_on_c, 0, 61, 35
2, 86595, Note_on_c, 0, 53, 40
2, 86616, Control_c, 0, 64, 127
2, 86628, Control_c, 0, 64, 127
2, 86671, Note_off_c, 0, 61, 64
2, 86683, Note_off_c, 0, 53, 64
2, 86754, Control_c, 0, 64, 0
2, 86764, Note_on_c, 0, 61, 39
2, 86766, Control_c, 0, 64, 0
2, 86778, Control_c, 0, 64, 127
2, 86779, Note_on_c, 0, 53, 33
2, 86790, Control_c, 0, 64, 127
2, 86852, Note_off_c, 0, 61, 64
2, 86867, Note_off_c, 0, 53, 64
2, 86914, Control_c, 0, 64, 0
2, 86926, Control_c, 0, 64, 0
2, 86930, Note_on_c, 0, 46, 39
2, 86963, Control_c, 0, 64, 127
2, 86975, Control_c, 0, 64, 127
2, 87006, Note_on_c, 0, 72, 50
2, 87012, Note_off_c, 0, 70, 64
2, 87049, Note_off_c, 0, 72, 64
2, 87073, Note_on_c, 0, 72, 54
2, 87075, Control_c, 0, 64, 0
2, 87080, Note_on_c, 0, 63, 31
2, 87087, Note_on_c, 0, 54, 26
2, 87087, Control_c, 0, 64, 0
2, 87095, Note_off_c, 0, 46, 64
2, 87097, Note_on_c, 0, 58, 29
2, 87114, Control_c, 0, 64, 127
2, 87126, Control_c, 0, 64, 127
2, 87143, Note_off_c, 0, 72, 64
2, 87168, Note_off_c, 0, 63, 64
2, 87175, Note_off_c, 0, 54, 64
2, 87185, Note_off_c, 0, 58, 64
2, 87271, Note_on_c, 0, 63, 27
2, 87278, Note_on_c, 0, 72, 49
2, 87278, Note_on_c, 0, 54, 19
2, 87285, Note_on_c, 0, 58, 27
2, 87337, Note_off_c, 0, 72, 64
2, 87359, Note_off_c, 0, 63, 64
2, 87366, Note_off_c, 0, 54, 64
2, 87373, Note_off_c, 0, 58, 64
2, 87432, Control_c, 0, 64, 0
2, 87435, Note_on_c, 0, 46, 39
2, 87444, Note_on_c, 0, 72, 49
2, 87444, Control_c, 0, 64, 0
2, 87478, Control_c, 0, 64, 127
2, 87490, Control_c, 0, 64, 127
2, 87515, Note_on_c, 0, 73, 55
2, 87541, Note_off_c, 0, 72, 64
2, 87559, Note_off_c, 0, 73, 64
2, 87582, Control_c, 0, 64, 0
2, 87588, Note_on_c, 0, 73, 55
2, 87594, Control_c, 0, 64, 0
2, 87600, Note_off_c, 0, 46, 64
2, 87605, Note_on_c, 0, 64, 26
2, 87612, Note_on_c, 0, 58, 24
2, 87617, Note_on_c, 0, 55, 36
2, 87644, Control_c, 0, 64, 127
2, 87656, Control_c, 0, 64, 127
2, 87693, Note_off_c, 0, 64, 64
2, 87700, Note_off_c, 0, 58, 64
2, 87705, Note_off_c, 0, 55, 64
2, 87765, Note_on_c, 0, 55, 29
2, 87769, Note_on_c, 0, 64, 33
2, 87772, Note_on_c, 0, 58, 24
2, 87853, Note_off_c, 0, 55, 64
2, 87857, Note_off_c, 0, 64, 64
2, 87860, Note_off_c, 0, 58, 64
2, 87922, Note_on_c, 0, 46, 46
2, 87987, Note_on_c, 0, 72, 49
2, 88002, Note_off_c, 0, 73, 64
2, 88034, Note_off_c, 0, 72, 64
2, 88065, Note_on_c, 0, 72, 50
2, 88066, Control_c, 0, 64, 0
2, 88078, Control_c, 0, 64, 0
2, 88082, Note_on_c, 0, 64, 29
2, 88087, Note_off_c, 0, 46, 64
2, 88088, Note_on_c, 0, 60, 27
2, 88092, Note_on_c, 0, 55, 29
2, 88129, Control_c, 0, 64, 127
2, 88141, Control_c, 0, 64, 127
2, 88170, Note_off_c, 0, 64, 64
2, 88176, Note_off_c, 0, 60, 64
2, 88180, Note_off_c, 0, 55, 64
2, 88231, Note_on_c, 0, 55, 31
2, 88233, Note_on_c, 0, 64, 33
2, 88238, Note_on_c, 0, 60, 26
2, 88302, Note_on_c, 0, 70, 45
2, 88308, Note_off_c, 0, 72, 64
2, 88319, Note_off_c, 0, 55, 64
2, 88321, Note_off_c, 0, 64, 64
2, 88326, Note_off_c, 0, 60, 64
2, 88337, Note_off_c, 0, 70, 64
2, 88370, Note_on_c, 0, 46, 49
2, 88372, Control_c, 0, 64, 0
2, 88376, Note_on_c, 0, 70, 55
2, 88384, Control_c, 0, 64, 0
2, 88400, Control_c, 0, 64, 127
2, 88412, Control_c, 0, 64, 127
2, 88442, Note_on_c, 0, 66, 54
2, 88474, Note_off_c, 0, 70, 64
2, 88481, Note_off_c, 0, 66, 64
2, 88486, Control_c, 0, 64, 0
2, 88498, Control_c, 0, 64, 0
2, 88510, Note_on_c, 0, 66, 55
2, 88517, Note_on_c, 0, 54, 26
2, 88520, Note_on_c, 0, 64, 29
2, 88520, Note_on_c, 0, 61, 31
2, 88535, Note_off_c, 0, 46, 64
2, 88552, Control_c, 0, 64, 127
2, 88564, Control_c, 0, 64, 127
2, 88605, Note_off_c, 0, 54, 64
2, 88608, Note_off_c, 0, 61, 64
2, 88608, Note_off_c, 0, 64, 64
2, 88680, Note_on_c, 0, 61, 33
2, 88683, Note_on_c, 0, 54, 29
2, 88684, Note_on_c, 0, 64, 31
2, 88768, Note_off_c, 0, 61, 64
2, 88771, Note_off_c, 0, 54, 64
2, 88772, Note_off_c, 0, 64, 64
2, 88809, Control_c, 0, 64, 0
2, 88821, Control_c, 0, 64, 0
2, 88831, Note_on_c, 0, 46, 46
2, 88848, Control_c, 0, 64, 127
2, 88849, Note_on_c, 0, 72, 49
2, 88860, Control_c, 0, 64, 127
2, 88880, Note_off_c, 0, 66, 64
2, 88909, Note_on_c, 0, 70, 55
2, 88926, Note_off_c, 0, 72, 64
2, 88948, Note_off_c, 0, 70, 64
2, 88960, Control_c, 0, 64, 0
2, 88972, Control_c, 0, 64, 0
2, 88978, Note_on_c, 0, 70, 55
2, 88980, Note_on_c, 0, 60, 31
2, 88986, Note_on_c, 0, 63, 27
2, 88986, Note_on_c, 0, 54, 24
2, 88996, Note_off_c, 0, 46, 64
2, 89046, Control_c, 0, 64, 127
2, 89058, Control_c, 0, 64, 127
2, 89068, Note_off_c, 0, 60, 64
2, 89074, Note_off_c, 0, 54, 64
2, 89074, Note_off_c, 0, 63, 64
2, 89139, Note_on_c, 0, 63, 33
2, 89139, Note_on_c, 0, 60, 35
2, 89150, Note_on_c, 0, 54, 16
2, 89207, Note_on_c, 0, 66, 41
2, 89227, Note_off_c, 0, 60, 64
2, 89227, Note_off_c, 0, 63, 64
2, 89227, Note_off_c, 0, 70, 64
2, 89238, Note_off_c, 0, 54, 64
2, 89259, Note_off_c, 0, 66, 64
2, 89286, Note_on_c, 0, 68, 61
2, 89288, Control_c, 0, 64, 0
2, 89294, Note_on_c, 0, 46, 44
2, 89300, Control_c, 0, 64, 0
2, 89316, Note_on_c, 0, 66, 55
2, 89324, Control_c, 0, 64, 127
2, 89336, Note_off_c, 0, 68, 64
2, 89336, Control_c, 0, 64, 127
2, 89387, Note_on_c, 0, 65, 46
2, 89391, Note_off_c, 0, 66, 64
2, 89423, Control_c, 0, 64, 0
2, 89428, Note_off_c, 0, 65, 64
2, 89435, Control_c, 0, 64, 0
2, 89451, Note_on_c, 0, 65, 50
2, 89451, Note_on_c, 0, 61, 39
2, 89458, Note_on_c, 0, 53, 36
2, 89467, Control_c, 0, 64, 127
2, 89479, Control_c, 0, 64, 127
2, 89539, Note_off_c, 0, 61, 64
2, 89546, Note_off_c, 0, 53, 64
2, 89608, Note_on_c, 0, 61, 36
2, 89613, Note_on_c, 0, 53, 36
2, 89696, Note_off_c, 0, 61, 64
2, 89699, Note_off_c, 0, 46, 64
2, 89701, Note_off_c, 0, 53, 64
2, 89758, Control_c, 0, 64, 0
2, 89770, Control_c, 0, 64, 0
2, 89778, Note_on_c, 0, 46, 40
2, 89781, Note_on_c, 0, 72, 39
2, 89808, Control_c, 0, 64, 127
2, 89820, Control_c, 0, 64, 127
2, 89846, Note_on_c, 0, 70, 40
2, 89856, Note_off_c, 0, 65, 64
2, 89863, Note_off_c, 0, 72, 64
2, 89876, Note_off_c, 0, 70, 64
2, 89900, Control_c, 0, 64, 0
2, 89908, Note_on_c, 0, 70, 49
2, 89912, Control_c, 0, 64, 0
2, 89916, Note_on_c, 0, 60, 19
2, 89919, Note_on_c, 0, 58, 31
2, 89919, Note_on_c, 0, 54, 36
2, 89943, Note_off_c, 0, 46, 64
2, 89991, Control_c, 0, 64, 127
2, 90003, Control_c, 0, 64, 127
2, 90004, Note_off_c, 0, 60, 64
2, 90007, Note_off_c, 0, 54, 64
2, 90007, Note_off_c, 0, 58, 64
2, 90092, Note_on_c, 0, 58, 33
2, 90098, Note_on_c, 0, 60, 29
2, 90101, Note_on_c, 0, 54, 20
2, 90173, Note_off_c, 0, 70, 64
2, 90176, Note_on_c, 0, 63, 39
2, 90180, Note_off_c, 0, 58, 64
2, 90186, Note_off_c, 0, 60, 64
2, 90189, Note_off_c, 0, 54, 64
2, 90232, Note_off_c, 0, 63, 64
2, 90280, Note_on_c, 0, 65, 39
2, 90296, Note_on_c, 0, 46, 26
2, 90317, Note_on_c, 0, 63, 33
2, 90338, Control_c, 0, 64, 0
2, 90348, Note_off_c, 0, 65, 64
2, 90350, Control_c, 0, 64, 0
2, 90370, Control_c, 0, 64, 127
2, 90382, Control_c, 0, 64, 127
2, 90391, Note_off_c, 0, 63, 64
2, 90394, Note_on_c, 0, 61, 46
2, 90431, Note_off_c, 0, 61, 64
2, 90449, Control_c, 0, 64, 0
2, 90461, Note_on_c, 0, 61, 40
2, 90461, Control_c, 0, 64, 0
2, 90468, Note_on_c, 0, 58, 31
2, 90471, Note_on_c, 0, 53, 31
2, 90512, Control_c, 0, 64, 127
2, 90524, Control_c, 0, 64, 127
2, 90556, Note_off_c, 0, 58, 64
2, 90559, Note_off_c, 0, 53, 64
2, 90644, Note_on_c, 0, 53, 31
2, 90649, Note_on_c, 0, 58, 27
2, 90701, Note_off_c, 0, 46, 64
2, 90732, Note_off_c, 0, 53, 64
2, 90737, Note_off_c, 0, 58, 64
2, 90744, Note_off_c, 0, 61, 64
2, 90844, Note_on_c, 0, 46, 20
2, 90846, Control_c, 0, 64, 0
2, 90847, Note_on_c, 0, 70, 40
2, 90858, Control_c, 0, 64, 0
2, 90904, Control_c, 0, 64, 127
2, 90916, Control_c, 0, 64, 127
2, 90973, Note_on_c, 0, 72, 41
2, 90975, Note_off_c, 0, 70, 64
2, 91005, Note_off_c, 0, 72, 64
2, 91009, Note_off_c, 0, 46, 64
2, 91010, Control_c, 0, 64, 0
2, 91022, Control_c, 0, 64, 0
2, 91032, Note_on_c, 0, 72, 46
2, 91034, Note_on_c, 0, 58, 29
2, 91036, Note_on_c, 0, 54, 19
2, 91041, Note_on_c, 0, 63, 19
2, 91045, Control_c, 0, 64, 127
2, 91057, Control_c, 0, 64, 127
2, 91074, Note_off_c, 0, 72, 64
2, 91122, Note_off_c, 0, 58, 64
2, 91124, Note_off_c, 0, 54, 64
2, 91129, Note_off_c, 0, 63, 64
2, 91187, Note_on_c, 0, 63, 27
2, 91194, Note_on_c, 0, 72, 46
2, 91197, Note_on_c, 0, 54, 19
2, 91201, Note_on_c, 0, 58, 19
2, 91240, Note_off_c, 0, 72, 64
2, 91275, Note_off_c, 0, 63, 64
2, 91285, Note_off_c, 0, 54, 64
2, 91289, Note_off_c, 0, 58, 64
2, 91329, Control_c, 0, 64, 0
2, 91341, Control_c, 0, 64, 0
2, 91345, Note_on_c, 0, 46, 29
2, 91358, Note_on_c, 0, 72, 40
2, 91365, Control_c, 0, 64, 127
2, 91377, Control_c, 0, 64, 127
2, 91417, Note_on_c, 0, 73, 49
2, 91438, Note_off_c, 0, 72, 64
2, 91461, Note_off_c, 0, 73, 64
2, 91477, Control_c, 0, 64, 0
2, 91489, Note_on_c, 0, 73, 46
2, 91489, Control_c, 0, 64, 0
2, 91496, Note_on_c, 0, 64, 29
2, 91496, Note_on_c, 0, 55, 27
2, 91503, Note_on_c, 0, 58, 31
2, 91510, Note_off_c, 0, 46, 64
2, 91584, Note_off_c, 0, 55, 64
2, 91584, Note_off_c, 0, 64, 64
2, 91591, Note_off_c, 0, 58, 64
2, 91642, Note_on_c, 0, 55, 24
2, 91646, Note_on_c, 0, 58, 19
2, 91655, Note_on_c, 0, 64, 24
2, 91657, Control_c, 0, 64, 127
2, 91669, Control_c, 0, 64, 127
2, 91730, Note_off_c, 0, 55, 64
2, 91734, Note_off_c, 0, 58, 64
2, 91743, Note_off_c, 0, 64, 64
2, 91804, Note_on_c, 0, 46, 29
2, 91827, Note_off_c, 0, 73, 64
2, 91875, Note_on_c, 0, 72, 46
2, 91914, Note_off_c, 0, 72, 64
2, 91944, Note_on_c, 0, 72, 46
2, 91945, Control_c, 0, 64, 0
2, 91952, Note_on_c, 0, 55, 13
2, 91957, Note_on_c, 0, 60, 22
2, 91957, Control_c, 0, 64, 0
2, 91963, Note_on_c, 0, 64, 11
2, 91969, Note_off_c, 0, 46, 64
2, 92007, Control_c, 0, 64, 127
2, 92019, Control_c, 0, 64, 127
2, 92040, Note_off_c, 0, 55, 64
2, 92045, Note_off_c, 0, 60, 64
2, 92051, Note_off_c, 0, 64, 64
2, 92097, Note_on_c, 0, 60, 26
2, 92100, Note_on_c, 0, 64, 24
2, 92104, Note_on_c, 0, 55, 24
2, 92169, Note_on_c, 0, 70, 40
2, 92177, Note_off_c, 0, 72, 64
2, 92185, Note_off_c, 0, 60, 64
2, 92188, Note_off_c, 0, 64, 64
2, 92192, Note_off_c, 0, 55, 64
2, 92207, Note_off_c, 0, 70, 64
2, 92238, Note_on_c, 0, 46, 29
2, 92242, Control_c, 0, 64, 0
2, 92244, Note_on_c, 0, 70, 46
2, 92254, Control_c, 0, 64, 0
2, 92278, Control_c, 0, 64, 127
2, 92290, Control_c, 0, 64, 127
2, 92324, Note_on_c, 0, 66, 49
2, 92330, Note_off_c, 0, 70, 64
2, 92345, Control_c, 0, 64, 0
2, 92357, Control_c, 0, 64, 0
2, 92368, Note_off_c, 0, 66, 64
2, 92380, Note_on_c, 0, 66, 46
2, 92382, Note_on_c, 0, 61, 27
2, 92382, Note_on_c, 0, 54, 24
2, 92385, Note_on_c, 0, 64, 26
2, 92403, Note_off_c, 0, 46, 64
2, 92418, Control_c, 0, 64, 127
2, 92430, Control_c, 0, 64, 127
2, 92470, Note_off_c, 0, 54, 64
2, 92470, Note_off_c, 0, 61, 64
2, 92473, Note_off_c, 0, 64, 64
2, 92540, Note_on_c, 0, 61, 27
2, 92542, Note_on_c, 0, 64, 26
2, 92546, Note_on_c, 0, 54, 24
2, 92628, Note_off_c, 0, 61, 64
2, 92630, Note_off_c, 0, 64, 64
2, 92634, Note_off_c, 0, 54, 64
2, 92691, Note_on_c, 0, 46, 24
2, 92701, Note_off_c, 0, 66, 64
2, 92704, Control_c, 0, 64, 0
2, 92716, Control_c, 0, 64, 0
2, 92737, Note_on_c, 0, 72, 40
2, 92751, Control_c, 0, 64, 127
2, 92763, Control_c, 0, 64, 127
2, 92796, Note_on_c, 0, 70, 41
2, 92811, Note_off_c, 0, 72, 64
2, 92840, Note_off_c, 0, 70, 64
2, 92856, Note_off_c, 0, 46, 64
2, 92866, Note_on_c, 0, 70, 45
2, 92883, Note_on_c, 0, 63, 26
2, 92889, Note_on_c, 0, 60, 27
2, 92889, Note_on_c, 0, 54, 22
2, 92890, Control_c, 0, 64, 0
2, 92902, Control_c, 0, 64, 0
2, 92936, Control_c, 0, 64, 127
2, 92948, Control_c, 0, 64, 127
2, 92971, Note_off_c, 0, 63, 64
2, 92977, Note_off_c, 0, 54, 64
2, 92977, Note_off_c, 0, 60, 64
2, 93072, Note_on_c, 0, 63, 15
2, 93076, Note_on_c, 0, 60, 19
2, 93092, Note_on_c, 0, 54, 15
2, 93154, Note_on_c, 0, 66, 33
2, 93160, Note_off_c, 0, 63, 64
2, 93160, Note_off_c, 0, 70, 64
2, 93164, Note_off_c, 0, 60, 64
2, 93180, Note_off_c, 0, 54, 64
2, 93236, Note_on_c, 0, 68, 40
2, 93262, Note_off_c, 0, 66, 64
2, 93275, Note_on_c, 0, 66, 39
2, 93276, Control_c, 0, 64, 0
2, 93276, Note_on_c, 0, 46, 19
2, 93288, Control_c, 0, 64, 0
2, 93301, Control_c, 0, 64, 127
2, 93303, Note_off_c, 0, 68, 64
2, 93313, Control_c, 0, 64, 127
2, 93335, Note_on_c, 0, 65, 40
2, 93341, Note_off_c, 0, 66, 64
2, 93374, Note_off_c, 0, 65, 64
2, 93403, Note_on_c, 0, 65, 40
2, 93404, Control_c, 0, 64, 0
2, 93416, Control_c, 0, 64, 0
2, 93428, Note_on_c, 0, 62, 29
2, 93430, Control_c, 0, 64, 127
2, 93433, Note_on_c, 0, 53, 31
2, 93442, Control_c, 0, 64, 127
2, 93516, Note_off_c, 0, 62, 64
2, 93521, Note_off_c, 0, 53, 64
2, 93584, Note_on_c, 0, 62, 29
2, 93588, Note_on_c, 0, 53, 27
2, 93672, Note_off_c, 0, 62, 64
2, 93676, Note_off_c, 0, 53, 64
2, 93681, Note_off_c, 0, 46, 64
2, 93735, Control_c, 0, 64, 0
2, 93741, Note_on_c, 0, 46, 29
2, 93747, Control_c, 0, 64, 0
2, 93790, Control_c, 0, 64, 127
2, 93802, Control_c, 0, 64, 127
2, 93907, Note_on_c, 0, 60, 26
2, 93910, Note_on_c, 0, 53, 16
2, 93917, Note_on_c, 0, 57, 22
2, 93995, Note_off_c, 0, 60, 64
2, 93998, Note_off_c, 0, 53, 64
2, 94005, Note_off_c, 0, 57, 64
2, 94106, Note_on_c, 0, 60, 19
2, 94108, Note_on_c, 0, 53, 15
2, 94112, Note_on_c, 0, 57, 15
2, 94194, Note_off_c, 0, 60, 64
2, 94196, Note_off_c, 0, 53, 64
2, 94200, Note_off_c, 0, 57, 64
2, 94206, Note_off_c, 0, 46, 64
2, 94285, Control_c, 0, 64, 0
2, 94285, Note_on_c, 0, 46, 13
2, 94297, Control_c, 0, 64, 0
2, 94350, Control_c, 0, 64, 127
2, 94362, Control_c, 0, 64, 127
2, 94482, Note_on_c, 0, 53, 16
2, 94488, Note_on_c, 0, 58, 19
2, 94491, Note_on_c, 0, 62, 15
2, 94570, Note_off_c, 0, 53, 64
2, 94576, Note_off_c, 0, 58, 64
2, 94579, Note_off_c, 0, 62, 64
2, 94752, Note_on_c, 0, 53, 13
2, 94755, Note_on_c, 0, 62, 11
2, 94770, Note_on_c, 0, 58, 10
2, 94917, Note_off_c, 0, 46, 64
2, 94967, Note_off_c, 0, 53, 64
2, 94970, Note_off_c, 0, 62, 64
2, 94974, Note_off_c, 0, 58, 64
2, 94980, Control_c, 0, 64, 0
2, 94992, Control_c, 0, 64, 0
2, 95005, Note_off_c, 0, 65, 64
2, 95010, Note_on_c, 0, 46, 33
2, 95016, Control_c, 0, 64, 127
2, 95028, Control_c, 0, 64, 127
2, 95163, Note_on_c, 0, 72, 36
2, 95248, Control_c, 0, 64, 0
2, 95252, Note_on_c, 0, 53, 27
2, 95260, Control_c, 0, 64, 0
2, 95265, Note_on_c, 0, 74, 49
2, 95269, Note_on_c, 0, 63, 20
2, 95283, Note_on_c, 0, 57, 13
2, 95288, Control_c, 0, 64, 127
2, 95289, Note_off_c, 0, 72, 64
2, 95300, Control_c, 0, 64, 127
2, 95340, Note_off_c, 0, 53, 64
2, 95357, Note_off_c, 0, 63, 64
2, 95371, Note_off_c, 0, 57, 64
2, 95436, Note_on_c, 0, 63, 15
2, 95436, Note_on_c, 0, 57, 29
2, 95440, Note_on_c, 0, 53, 26
2, 95506, Note_on_c, 0, 72, 45
2, 95524, Note_off_c, 0, 57, 64
2, 95524, Note_off_c, 0, 63, 64
2, 95527, Note_off_c, 0, 74, 64
2, 95528, Note_off_c, 0, 53, 64
2, 95576, Control_c, 0, 64, 0
2, 95583, Note_on_c, 0, 77, 49
2, 95588, Note_on_c, 0, 63, 31
2, 95588, Control_c, 0, 64, 0
2, 95596, Note_on_c, 0, 53, 31
2, 95597, Control_c, 0, 64, 127
2, 95597, Note_on_c, 0, 57, 24
2, 95608, Note_off_c, 0, 72, 64
2, 95609, Control_c, 0, 64, 127
2, 95658, Note_on_c, 0, 72, 41
2, 95676, Note_off_c, 0, 63, 64
2, 95684, Note_off_c, 0, 53, 64
2, 95685, Note_off_c, 0, 57, 64
2, 95686, Note_off_c, 0, 77, 64
2, 95730, Note_on_c, 0, 63, 29
2, 95734, Note_on_c, 0, 74, 49
2, 95734, Note_on_c, 0, 53, 29
2, 95737, Note_on_c, 0, 57, 31
2, 95749, Note_off_c, 0, 72, 64
2, 95782, Note_off_c, 0, 46, 64
2, 95818, Note_off_c, 0, 74, 64
2, 95818, Note_off_c, 0, 63, 64
2, 95822, Note_off_c, 0, 53, 64
2, 95825, Note_off_c, 0, 57, 64
2, 95875, Note_on_c, 0, 63, 31
2, 95882, Note_on_c, 0, 57, 26
2, 95893, Note_on_c, 0, 53, 15
2, 95950, Note_on_c, 0, 72, 49
2, 95963, Note_off_c, 0, 63, 64
2, 95970, Note_off_c, 0, 57, 64
2, 95981, Note_off_c, 0, 53, 64
2, 95989, Note_off_c, 0, 72, 64
2, 96019, Note_on_c, 0, 72, 49
2, 96019, Note_on_c, 0, 46, 45
2, 96020, Control_c, 0, 64, 0
2, 96032, Control_c, 0, 64, 0
2, 96043, Control_c, 0, 64, 127
2, 96055, Control_c, 0, 64, 127
2, 96084, Note_on_c, 0, 70, 58
2, 96096, Note_off_c, 0, 72, 64
2, 96128, Control_c, 0, 64, 0
2, 96134, Note_off_c, 0, 70, 64
2, 96140, Control_c, 0, 64, 0
2, 96157, Note_on_c, 0, 54, 26
2, 96159, Note_on_c, 0, 63, 36
2, 96163, Note_on_c, 0, 70, 49
2, 96169, Note_on_c, 0, 58, 31
2, 96184, Note_off_c, 0, 46, 64
2, 96190, Control_c, 0, 64, 127
2, 96202, Control_c, 0, 64, 127
2, 96245, Note_off_c, 0, 54, 64
2, 96247, Note_off_c, 0, 63, 64
2, 96257, Note_off_c, 0, 58, 64
2, 96320, Note_on_c, 0, 63, 16
2, 96322, Note_on_c, 0, 54, 26
2, 96333, Note_on_c, 0, 58, 26
2, 96396, Note_on_c, 0, 66, 45
2, 96400, Note_off_c, 0, 70, 64
2, 96408, Note_off_c, 0, 63, 64
2, 96410, Note_off_c, 0, 54, 64
2, 96421, Note_off_c, 0, 58, 64
2, 96448, Note_off_c, 0, 66, 64
2, 96477, Note_on_c, 0, 68, 58
2, 96486, Note_on_c, 0, 46, 35
2, 96488, Control_c, 0, 64, 0
2, 96500, Control_c, 0, 64, 0
2, 96509, Note_on_c, 0, 66, 49
2, 96526, Note_off_c, 0, 68, 64
2, 96534, Control_c, 0, 64, 127
2, 96546, Control_c, 0, 64, 127
2, 96579, Note_off_c, 0, 66, 64
2, 96584, Note_on_c, 0, 65, 50
2, 96623, Note_off_c, 0, 65, 64
2, 96636, Control_c, 0, 64, 0
2, 96648, Control_c, 0, 64, 0
2, 96651, Note_off_c, 0, 46, 64
2, 96656, Note_on_c, 0, 58, 22
2, 96656, Note_on_c, 0, 53, 31
2, 96660, Note_on_c, 0, 65, 49
2, 96663, Note_on_c, 0, 62, 19
2, 96679, Control_c, 0, 64, 127
2, 96691, Control_c, 0, 64, 127
2, 96744, Note_off_c, 0, 53, 64
2, 96744, Note_off_c, 0, 58, 64
2, 96751, Note_off_c, 0, 62, 64
2, 96831, Note_on_c, 0, 58, 24
2, 96836, Note_on_c, 0, 53, 20
2, 96840, Note_on_c, 0, 62, 26
2, 96919, Note_off_c, 0, 58, 64
2, 96924, Note_off_c, 0, 53, 64
2, 96928, Note_off_c, 0, 62, 64
2, 97057, Control_c, 0, 64, 0
2, 97069, Control_c, 0, 64, 0
2, 97083, Note_on_c, 0, 46, 26
2, 97112, Control_c, 0, 64, 127
2, 97124, Control_c, 0, 64, 127
2, 97153, Note_on_c, 0, 72, 29
2, 97184, Note_off_c, 0, 65, 64
2, 97267, Note_on_c, 0, 74, 31
2, 97275, Note_on_c, 0, 53, 24
2, 97276, Control_c, 0, 64, 0
2, 97284, Note_on_c, 0, 57, 16
2, 97288, Control_c, 0, 64, 0
2, 97292, Control_c, 0, 64, 127
2, 97294, Note_off_c, 0, 72, 64
2, 97298, Note_on_c, 0, 63, 6
2, 97304, Control_c, 0, 64, 127
2, 97363, Note_off_c, 0, 53, 64
2, 97372, Note_off_c, 0, 57, 64
2, 97386, Note_off_c, 0, 63, 64
2, 97452, Note_on_c, 0, 57, 19
2, 97452, Note_on_c, 0, 53, 15
2, 97454, Note_on_c, 0, 63, 11
2, 97517, Note_on_c, 0, 72, 35
2, 97540, Note_off_c, 0, 53, 64
2, 97540, Note_off_c, 0, 57, 64
2, 97540, Note_off_c, 0, 74, 64
2, 97542, Note_off_c, 0, 63, 64
2, 97594, Note_on_c, 0, 77, 35
2, 97600, Note_on_c, 0, 63, 16
2, 97609, Note_on_c, 0, 53, 15
2, 97614, Note_on_c, 0, 57, 11
2, 97616, Note_off_c, 0, 72, 64
2, 97668, Note_on_c, 0, 72, 33
2, 97688, Note_off_c, 0, 63, 64
2, 97689, Note_off_c, 0, 77, 64
2, 97697, Note_off_c, 0, 53, 64
2, 97702, Note_off_c, 0, 57, 64
2, 97735, Control_c, 0, 64, 0
2, 97736, Note_on_c, 0, 74, 33
2, 97742, Note_on_c, 0, 63, 19
2, 97747, Control_c, 0, 64, 0
2, 97752, Control_c, 0, 64, 127
2, 97752, Note_on_c, 0, 53, 19
2, 97757, Note_on_c, 0, 57, 19
2, 97761, Note_off_c, 0, 72, 64
2, 97764, Control_c, 0, 64, 127
2, 97830, Note_off_c, 0, 63, 64
2, 97840, Note_off_c, 0, 53, 64
2, 97845, Note_off_c, 0, 57, 64
2, 97848, Note_off_c, 0, 74, 64
2, 97854, Note_off_c, 0, 46, 64
2, 97900, Note_on_c, 0, 63, 15
2, 97900, Note_on_c, 0, 53, 11
2, 97903, Note_on_c, 0, 57, 11
2, 97969, Note_on_c, 0, 72, 31
2, 97988, Note_off_c, 0, 53, 64
2, 97988, Note_off_c, 0, 63, 64
2, 97991, Note_off_c, 0, 57, 64
2, 98016, Note_off_c, 0, 72, 64
2, 98055, Note_on_c, 0, 46, 35
2, 98064, Control_c, 0, 64, 0
2, 98066, Note_on_c, 0, 72, 29
2, 98076, Control_c, 0, 64, 0
2, 98088, Control_c, 0, 64, 127
2, 98100, Control_c, 0, 64, 127
2, 98135, Note_on_c, 0, 70, 41
2, 98143, Note_off_c, 0, 72, 64
2, 98181, Note_off_c, 0, 70, 64
2, 98209, Note_on_c, 0, 70, 35
2, 98216, Control_c, 0, 64, 0
2, 98217, Note_on_c, 0, 54, 15
2, 98225, Note_on_c, 0, 64, 15
2, 98228, Note_on_c, 0, 61, 10
2, 98228, Control_c, 0, 64, 0
2, 98252, Control_c, 0, 64, 127
2, 98264, Control_c, 0, 64, 127
2, 98305, Note_off_c, 0, 54, 64
2, 98313, Note_off_c, 0, 64, 64
2, 98316, Note_off_c, 0, 61, 64
2, 98385, Note_on_c, 0, 64, 11
2, 98385, Note_on_c, 0, 61, 11
2, 98388, Note_off_c, 0, 70, 64
2, 98388, Control_c, 0, 64, 0
2, 98388, Note_on_c, 0, 54, 11
2, 98398, Control_c, 0, 64, 127
2, 98400, Control_c, 0, 64, 0
2, 98410, Control_c, 0, 64, 127
2, 98473, Note_off_c, 0, 61, 64
2, 98473, Note_off_c, 0, 64, 64
2, 98476, Note_off_c, 0, 54, 64
2, 98484, Note_on_c, 0, 66, 24
2, 98521, Note_off_c, 0, 66, 64
2, 98568, Note_on_c, 0, 61, 7
2, 98575, Note_on_c, 0, 54, 7
2, 98580, Note_on_c, 0, 64, 7
2, 98656, Note_off_c, 0, 61, 64
2, 98663, Note_off_c, 0, 54, 64
2, 98668, Note_off_c, 0, 64, 64
2, 98787, Note_on_c, 0, 64, 6
2, 98790, Note_on_c, 0, 61, 13
2, 98790, Note_on_c, 0, 54, 10
2, 98836, Note_off_c, 0, 46, 64
2, 98875, Note_off_c, 0, 64, 64
2, 98878, Note_off_c, 0, 54, 64
2, 98878, Note_off_c, 0, 61, 64
2, 98997, Note_on_c, 0, 61, 15
2, 99000, Note_on_c, 0, 64, 11
2, 99003, Note_on_c, 0, 54, 7
2, 99085, Note_off_c, 0, 61, 64
2, 99088, Note_off_c, 0, 64, 64
2, 99091, Note_off_c, 0, 54, 64
2, 99276, Note_on_c, 0, 68, 40
2, 99317, Note_on_c, 0, 46, 33
2, 99324, Note_on_c, 0, 66, 55
2, 99337, Control_c, 0, 64, 0
2, 99346, Note_off_c, 0, 68, 64
2, 99349, Control_c, 0, 64, 0
2, 99397, Control_c, 0, 64, 127
2, 99409, Control_c, 0, 64, 127
2, 99482, Note_on_c, 0, 65, 49
2, 99483, Note_off_c, 0, 66, 64
2, 99541, Note_off_c, 0, 65, 64
2, 99579, Note_on_c, 0, 62, 11
2, 99582, Note_on_c, 0, 53, 19
2, 99588, Note_on_c, 0, 65, 33
2, 99593, Control_c, 0, 64, 0
2, 99605, Control_c, 0, 64, 0
2, 99616, Control_c, 0, 64, 127
2, 99628, Control_c, 0, 64, 127
2, 99667, Note_off_c, 0, 62, 64
2, 99670, Note_off_c, 0, 53, 64
2, 99731, Note_on_c, 0, 62, 24
2, 99737, Note_on_c, 0, 53, 19
2, 99819, Note_off_c, 0, 62, 64
2, 99825, Note_off_c, 0, 53, 64
2, 99892, Note_on_c, 0, 53, 24
2, 99897, Note_on_c, 0, 62, 16
2, 99980, Note_off_c, 0, 53, 64
2, 99985, Note_off_c, 0, 62, 64
2, 100052, Note_on_c, 0, 62, 29
2, 100066, Note_on_c, 0, 53, 19
2, 100140, Note_off_c, 0, 62, 64
2, 100154, Note_off_c, 0, 53, 64
2, 100212, Note_on_c, 0, 62, 31
2, 100223, Note_on_c, 0, 53, 35
2, 100300, Note_off_c, 0, 62, 64
2, 100311, Note_off_c, 0, 53, 64
2, 100342, Note_off_c, 0, 46, 64
2, 100388, Note_on_c, 0, 41, 49
2, 100391, Control_c, 0, 64, 0
2, 100403, Control_c, 0, 64, 0
2, 100444, Control_c, 0, 64, 127
2, 100456, Control_c, 0, 64, 127
2, 100540, Note_on_c, 0, 53, 29
2, 100541, Note_on_c, 0, 60, 35
2, 100543, Note_on_c, 0, 57, 36
2, 100628, Note_off_c, 0, 53, 64
2, 100629, Note_off_c, 0, 60, 64
2, 100631, Note_off_c, 0, 57, 64
2, 100704, Note_on_c, 0, 60, 31
2, 100708, Note_on_c, 0, 57, 33
2, 100708, Note_on_c, 0, 53, 29
2, 100744, Note_off_c, 0, 65, 64
2, 100872, Note_on_c, 0, 38, 50
2, 100873, Note_off_c, 0, 41, 64
2, 100879, Note_on_c, 0, 65, 55
2, 100889, Control_c, 0, 64, 0
2, 100901, Control_c, 0, 64, 0
2, 100952, Control_c, 0, 64, 127
2, 100964, Control_c, 0, 64, 127
2, 101023, Note_off_c, 0, 60, 64
2, 101026, Note_off_c, 0, 53, 64
2, 101026, Note_off_c, 0, 57, 64
2, 101081, Note_on_c, 0, 57, 45
2, 101081, Note_on_c, 0, 53, 40
2, 101084, Note_on_c, 0, 62, 33
2, 101169, Note_off_c, 0, 53, 64
2, 101169, Note_off_c, 0, 57, 64
2, 101172, Note_off_c, 0, 62, 64
2, 101274, Note_on_c, 0, 62, 33
2, 101279, Note_on_c, 0, 53, 33
2, 101280, Note_on_c, 0, 57, 40
2, 101496, Note_off_c, 0, 38, 64
2, 101499, Note_on_c, 0, 34, 78
2, 101521, Control_c, 0, 64, 0
2, 101533, Control_c, 0, 64, 0
2, 101610, Control_c, 0, 64, 127
2, 101622, Control_c, 0, 64, 127
2, 101648, Note_off_c, 0, 62, 64
2, 101653, Note_off_c, 0, 53, 64
2, 101654, Note_off_c, 0, 57, 64
2, 101837, Note_on_c, 0, 62, 22
2, 101842, Note_on_c, 0, 58, 33
2, 101848, Note_on_c, 0, 50, 39
2, 101925, Note_off_c, 0, 62, 64
2, 101930, Note_off_c, 0, 58, 64
2, 101936, Note_off_c, 0, 50, 64
2, 102060, Note_on_c, 0, 58, 35
2, 102073, Note_on_c, 0, 62, 20
2, 102088, Note_on_c, 0, 50, 20
2, 102148, Note_off_c, 0, 58, 64
2, 102161, Note_off_c, 0, 62, 64
2, 102176, Note_off_c, 0, 50, 64
2, 102266, Note_on_c, 0, 58, 31
2, 102273, Note_on_c, 0, 62, 19
2, 102277, Note_on_c, 0, 50, 27
2, 102354, Note_off_c, 0, 58, 64
2, 102361, Note_off_c, 0, 62, 64
2, 102365, Note_off_c, 0, 50, 64
2, 102498, Note_on_c, 0, 58, 27
2, 102508, Note_on_c, 0, 62, 16
2, 102512, Note_on_c, 0, 50, 20
2, 102586, Note_off_c, 0, 58, 64
2, 102596, Note_off_c, 0, 62, 64
2, 102600, Note_off_c, 0, 50, 64
2, 102816, Note_on_c, 0, 58, 19
2, 102829, Note_on_c, 0, 62, 15
2, 102832, Note_on_c, 0, 50, 20
2, 102928, Note_off_c, 0, 65, 64
2, 103190, Note_off_c, 0, 58, 64
2, 103203, Note_off_c, 0, 62, 64
2, 103206, Note_off_c, 0, 50, 64
2, 103248, Note_on_c, 0, 72, 39
2, 103408, Note_on_c, 0, 70, 39
2, 103421, Note_off_c, 0, 72, 64
2, 103487, Note_off_c, 0, 70, 64
2, 103586, Note_on_c, 0, 70, 31
2, 103625, Control_c, 0, 64, 0
2, 103637, Control_c, 0, 64, 0
2, 103679, Control_c, 0, 64, 127
2, 103691, Control_c, 0, 64, 127
2, 104147, Note_on_c, 0, 66, 27
2, 104210, Note_off_c, 0, 70, 64
2, 104229, Note_off_c, 0, 66, 64
2, 104311, Note_on_c, 0, 68, 36
2, 104350, Note_on_c, 0, 66, 33
2, 104387, Note_off_c, 0, 68, 64
2, 104387, Control_c, 0, 64, 0
2, 104399, Control_c, 0, 64, 0
2, 104430, Control_c, 0, 64, 127
2, 104442, Control_c, 0, 64, 127
2, 104561, Note_on_c, 0, 65, 22
2, 104577, Control_c, 0, 64, 0
2, 104586, Note_off_c, 0, 66, 64
2, 104589, Control_c, 0, 64, 0
2, 104610, Control_c, 0, 64, 127
2, 104622, Control_c, 0, 64, 127
2, 104633, Note_off_c, 0, 34, 64
2, 104759, Note_off_c, 0, 65, 64
2, 104885, Note_on_c, 0, 65, 20
2, 104962, Control_c, 0, 64, 0
2, 104974, Control_c, 0, 64, 0
2, 105053, Control_c, 0, 64, 127
2, 105065, Control_c, 0, 64, 127
2, 107285, Note_off_c, 0, 65, 64
