0, 0, Header, 1, 7, 240
1, 0, Start_track
1, 0, Time_signature, 4, 2, 24, 8
1, 0, Tempo, 500000
1, 0, Marker_t, "Chopin: Mazurka, Op. 6 No. 1"
1, 0, End_track
2, 0, Start_track
2, 0, Title_t, "Chopin: Op. 6 No. 1"
2, 0, Program_c, 0, 0
2, 0, Control_c, 0, 7, 127
2, 107, Control_c, 0, 64, 0
2, 107, Control_c, 0, 64, 0
2, 135, Note_on_c, 0, 66, 63
2, 166, Control_c, 0, 64, 127
2, 166, Control_c, 0, 64, 127
2, 355, Note_on_c, 0, 37, 61
2, 371, Control_c, 0, 64, 0
2, 371, Control_c, 0, 64, 0
2, 403, Control_c, 0, 64, 127
2, 403, Control_c, 0, 64, 127
2, 501, Note_on_c, 0, 68, 52
2, 519, Note_off_c, 0, 66, 64
2, 536, Note_on_c, 0, 66, 62
2, 557, Note_off_c, 0, 68, 64
2, 564, Note_on_c, 0, 49, 55
2, 566, Note_off_c, 0, 37, 64
2, 576, Note_on_c, 0, 65, 63
2, 589, Note_on_c, 0, 59, 42
2, 591, Note_off_c, 0, 66, 64
2, 597, Control_c, 0, 64, 0
2, 597, Control_c, 0, 64, 0
2, 618, Control_c, 0, 64, 127
2, 618, Control_c, 0, 64, 127
2, 648, Note_off_c, 0, 49, 64
2, 658, Note_off_c, 0, 59, 64
2, 672, Note_off_c, 0, 65, 64
2, 672, Note_on_c, 0, 66, 70
2, 771, Control_c, 0, 64, 0
2, 771, Control_c, 0, 64, 0
2, 776, Note_on_c, 0, 68, 55
2, 778, Note_on_c, 0, 49, 53
2, 786, Note_on_c, 0, 59, 48
2, 789, Note_off_c, 0, 66, 64
2, 789, Note_on_c, 0, 53, 53
2, 805, Control_c, 0, 64, 127
2, 805, Control_c, 0, 64, 127
2, 817, Note_off_c, 0, 53, 64
2, 817, Note_off_c, 0, 59, 64
2, 831, Note_off_c, 0, 49, 64
2, 917, Note_on_c, 0, 62, 58
2, 936, Note_off_c, 0, 68, 64
2, 975, Note_on_c, 0, 61, 66
2, 975, Control_c, 0, 64, 0
2, 975, Control_c, 0, 64, 0
2, 982, Note_on_c, 0, 42, 50
2, 999, Note_off_c, 0, 62, 64
2, 1031, Control_c, 0, 64, 127
2, 1031, Control_c, 0, 64, 127
2, 1128, Note_on_c, 0, 66, 55
2, 1148, Note_off_c, 0, 61, 64
2, 1164, Note_on_c, 0, 61, 55
2, 1165, Note_on_c, 0, 69, 66
2, 1171, Note_on_c, 0, 54, 57
2, 1175, Control_c, 0, 64, 0
2, 1175, Control_c, 0, 64, 0
2, 1193, Note_off_c, 0, 42, 64
2, 1205, Note_off_c, 0, 66, 64
2, 1208, Note_off_c, 0, 61, 64
2, 1215, Note_off_c, 0, 54, 64
2, 1233, Control_c, 0, 64, 127
2, 1233, Control_c, 0, 64, 127
2, 1264, Control_c, 0, 64, 127
2, 1264, Control_c, 0, 64, 127
2, 1364, Note_off_c, 0, 69, 64
2, 1369, Control_c, 0, 64, 0
2, 1369, Control_c, 0, 64, 0
2, 1384, Note_on_c, 0, 66, 61
2, 1384, Note_on_c, 0, 54, 53
2, 1387, Note_on_c, 0, 69, 61
2, 1387, Note_on_c, 0, 61, 23
2, 1425, Note_off_c, 0, 54, 64
2, 1428, Note_off_c, 0, 61, 64
2, 1433, Control_c, 0, 64, 127
2, 1433, Control_c, 0, 64, 127
2, 1606, Note_on_c, 0, 40, 58
2, 1606, Control_c, 0, 64, 0
2, 1606, Control_c, 0, 64, 0
2, 1633, Control_c, 0, 64, 127
2, 1633, Control_c, 0, 64, 127
2, 1725, Note_on_c, 0, 71, 55
2, 1741, Note_off_c, 0, 69, 64
2, 1755, Note_off_c, 0, 66, 64
2, 1767, Note_on_c, 0, 69, 55
2, 1786, Note_off_c, 0, 71, 64
2, 1800, Note_on_c, 0, 68, 61
2, 1800, Note_on_c, 0, 64, 50
2, 1800, Note_on_c, 0, 52, 48
2, 1807, Note_on_c, 0, 62, 52
2, 1817, Note_off_c, 0, 40, 64
2, 1818, Note_off_c, 0, 69, 64
2, 1819, Control_c, 0, 64, 0
2, 1819, Control_c, 0, 64, 0
2, 1852, Note_off_c, 0, 52, 64
2, 1857, Note_off_c, 0, 62, 64
2, 1858, Control_c, 0, 64, 127
2, 1858, Control_c, 0, 64, 127
2, 1904, Note_on_c, 0, 69, 58
2, 1917, Note_off_c, 0, 64, 64
2, 1927, Note_off_c, 0, 68, 64
2, 1994, Note_on_c, 0, 62, 61
2, 1998, Control_c, 0, 64, 0
2, 1998, Control_c, 0, 64, 0
2, 2004, Note_on_c, 0, 71, 61
2, 2004, Note_on_c, 0, 52, 58
2, 2009, Note_on_c, 0, 59, 55
2, 2020, Note_off_c, 0, 69, 64
2, 2032, Control_c, 0, 64, 127
2, 2032, Control_c, 0, 64, 127
2, 2042, Note_off_c, 0, 59, 64
2, 2055, Note_off_c, 0, 52, 64
2, 2148, Note_on_c, 0, 66, 44
2, 2156, Note_off_c, 0, 71, 64
2, 2192, Note_on_c, 0, 45, 61
2, 2195, Note_on_c, 0, 64, 53
2, 2203, Control_c, 0, 64, 0
2, 2203, Control_c, 0, 64, 0
2, 2228, Note_off_c, 0, 66, 64
2, 2251, Control_c, 0, 64, 127
2, 2251, Control_c, 0, 64, 127
2, 2351, Note_on_c, 0, 69, 37
2, 2370, Note_off_c, 0, 64, 64
2, 2375, Note_off_c, 0, 62, 64
2, 2389, Note_on_c, 0, 73, 74
2, 2392, Note_on_c, 0, 61, 37
2, 2392, Note_on_c, 0, 57, 58
2, 2392, Control_c, 0, 64, 0
2, 2392, Control_c, 0, 64, 0
2, 2411, Note_off_c, 0, 69, 64
2, 2419, Note_off_c, 0, 45, 64
2, 2421, Control_c, 0, 64, 127
2, 2421, Control_c, 0, 64, 127
2, 2436, Note_off_c, 0, 57, 64
2, 2436, Note_off_c, 0, 61, 64
2, 2576, Note_off_c, 0, 73, 64
2, 2592, Note_on_c, 0, 73, 70
2, 2596, Note_on_c, 0, 64, 58
2, 2599, Note_on_c, 0, 57, 57
2, 2615, Control_c, 0, 64, 0
2, 2615, Control_c, 0, 64, 0
2, 2645, Control_c, 0, 64, 127
2, 2645, Control_c, 0, 64, 127
2, 2684, Note_off_c, 0, 57, 64
2, 2684, Note_off_c, 0, 64, 64
2, 2803, Note_on_c, 0, 57, 54
2, 2808, Note_on_c, 0, 63, 22
2, 2810, Note_on_c, 0, 66, 52
2, 2828, Control_c, 0, 64, 0
2, 2828, Control_c, 0, 64, 0
2, 2851, Control_c, 0, 64, 127
2, 2851, Control_c, 0, 64, 127
2, 2928, Note_on_c, 0, 75, 46
2, 2931, Note_off_c, 0, 73, 64
2, 2971, Note_on_c, 0, 73, 54
2, 2985, Note_off_c, 0, 75, 64
2, 3010, Note_on_c, 0, 56, 55
2, 3012, Note_on_c, 0, 72, 57
2, 3022, Note_off_c, 0, 57, 64
2, 3026, Control_c, 0, 64, 0
2, 3026, Control_c, 0, 64, 0
2, 3029, Note_off_c, 0, 73, 64
2, 3048, Control_c, 0, 64, 127
2, 3048, Control_c, 0, 64, 127
2, 3148, Note_on_c, 0, 68, 54
2, 3151, Note_off_c, 0, 72, 64
2, 3213, Note_on_c, 0, 71, 55
2, 3213, Note_on_c, 0, 65, 45
2, 3216, Note_on_c, 0, 61, 52
2, 3222, Note_off_c, 0, 63, 64
2, 3223, Note_off_c, 0, 68, 64
2, 3224, Note_off_c, 0, 66, 64
2, 3226, Control_c, 0, 64, 0
2, 3226, Control_c, 0, 64, 0
2, 3259, Control_c, 0, 64, 127
2, 3259, Control_c, 0, 64, 127
2, 3404, Note_off_c, 0, 61, 64
2, 3415, Note_on_c, 0, 55, 27
2, 3420, Note_on_c, 0, 64, 32
2, 3424, Note_off_c, 0, 65, 64
2, 3426, Note_on_c, 0, 61, 26
2, 3429, Note_off_c, 0, 56, 64
2, 3433, Control_c, 0, 64, 0
2, 3433, Control_c, 0, 64, 0
2, 3456, Control_c, 0, 64, 127
2, 3456, Control_c, 0, 64, 127
2, 3541, Note_on_c, 0, 73, 45
2, 3559, Note_off_c, 0, 71, 64
2, 3590, Note_on_c, 0, 71, 48
2, 3606, Note_off_c, 0, 73, 64
2, 3613, Note_on_c, 0, 54, 44
2, 3626, Note_off_c, 0, 55, 64
2, 3630, Note_on_c, 0, 70, 54
2, 3637, Control_c, 0, 64, 0
2, 3637, Control_c, 0, 64, 0
2, 3643, Note_off_c, 0, 71, 64
2, 3672, Control_c, 0, 64, 127
2, 3672, Control_c, 0, 64, 127
2, 3747, Note_off_c, 0, 70, 64
2, 3750, Note_on_c, 0, 66, 50
2, 3815, Note_on_c, 0, 63, 40
2, 3816, Note_on_c, 0, 69, 55
2, 3819, Note_on_c, 0, 60, 39
2, 3823, Note_off_c, 0, 64, 64
2, 3829, Note_off_c, 0, 66, 64
2, 3829, Note_off_c, 0, 61, 64
2, 3839, Control_c, 0, 64, 0
2, 3839, Control_c, 0, 64, 0
2, 3862, Control_c, 0, 64, 127
2, 3862, Control_c, 0, 64, 127
2, 4025, Note_on_c, 0, 53, 39
2, 4028, Note_on_c, 0, 62, 41
2, 4028, Note_on_c, 0, 59, 42
2, 4034, Note_off_c, 0, 54, 64
2, 4036, Note_off_c, 0, 63, 64
2, 4040, Note_off_c, 0, 60, 64
2, 4049, Control_c, 0, 64, 0
2, 4049, Control_c, 0, 64, 0
2, 4061, Control_c, 0, 64, 127
2, 4061, Control_c, 0, 64, 127
2, 4166, Note_on_c, 0, 71, 39
2, 4176, Note_off_c, 0, 69, 64
2, 4202, Note_on_c, 0, 69, 39
2, 4225, Note_off_c, 0, 71, 64
2, 4226, Note_on_c, 0, 52, 39
2, 4232, Note_off_c, 0, 53, 64
2, 4234, Note_on_c, 0, 68, 37
2, 4255, Control_c, 0, 64, 0
2, 4255, Control_c, 0, 64, 0
2, 4264, Note_off_c, 0, 69, 64
2, 4278, Control_c, 0, 64, 127
2, 4278, Control_c, 0, 64, 127
2, 4368, Note_on_c, 0, 64, 48
2, 4369, Note_off_c, 0, 68, 64
2, 4431, Note_on_c, 0, 67, 57
2, 4437, Note_on_c, 0, 61, 39
2, 4437, Note_on_c, 0, 58, 45
2, 4447, Note_off_c, 0, 59, 64
2, 4447, Note_off_c, 0, 62, 64
2, 4452, Control_c, 0, 64, 0
2, 4452, Control_c, 0, 64, 0
2, 4456, Note_off_c, 0, 64, 64
2, 4476, Control_c, 0, 64, 127
2, 4476, Control_c, 0, 64, 127
2, 4642, Note_off_c, 0, 61, 64
2, 4644, Note_on_c, 0, 61, 36
2, 4644, Note_on_c, 0, 51, 36
2, 4648, Note_on_c, 0, 57, 24
2, 4657, Note_off_c, 0, 58, 64
2, 4658, Control_c, 0, 64, 0
2, 4658, Control_c, 0, 64, 0
2, 4663, Note_off_c, 0, 52, 64
2, 4674, Control_c, 0, 64, 127
2, 4674, Control_c, 0, 64, 127
2, 4784, Note_on_c, 0, 69, 37
2, 4802, Note_off_c, 0, 67, 64
2, 4822, Note_on_c, 0, 67, 46
2, 4840, Note_off_c, 0, 69, 64
2, 4852, Note_on_c, 0, 50, 39
2, 4857, Note_off_c, 0, 51, 64
2, 4860, Control_c, 0, 64, 0
2, 4860, Control_c, 0, 64, 0
2, 4866, Note_on_c, 0, 66, 48
2, 4884, Note_off_c, 0, 67, 64
2, 4899, Control_c, 0, 64, 127
2, 4899, Control_c, 0, 64, 127
2, 4981, Note_on_c, 0, 62, 42
2, 4990, Note_off_c, 0, 66, 64
2, 5015, Note_off_c, 0, 61, 64
2, 5099, Note_on_c, 0, 66, 52
2, 5109, Note_on_c, 0, 56, 40
2, 5112, Note_on_c, 0, 59, 37
2, 5112, Control_c, 0, 64, 0
2, 5112, Control_c, 0, 64, 0
2, 5126, Note_off_c, 0, 62, 64
2, 5127, Note_off_c, 0, 57, 64
2, 5140, Control_c, 0, 64, 127
2, 5140, Control_c, 0, 64, 127
2, 5349, Note_off_c, 0, 56, 64
2, 5352, Note_off_c, 0, 59, 64
2, 5355, Control_c, 0, 64, 0
2, 5355, Control_c, 0, 64, 0
2, 5363, Note_on_c, 0, 49, 59
2, 5363, Note_on_c, 0, 37, 61
2, 5389, Note_off_c, 0, 50, 64
2, 5396, Control_c, 0, 64, 127
2, 5396, Control_c, 0, 64, 127
2, 5532, Note_off_c, 0, 66, 64
2, 5542, Note_on_c, 0, 68, 44
2, 5574, Note_off_c, 0, 37, 64
2, 5574, Note_off_c, 0, 49, 64
2, 5579, Note_on_c, 0, 66, 70
2, 5599, Note_on_c, 0, 49, 42
2, 5603, Note_off_c, 0, 68, 64
2, 5605, Note_on_c, 0, 56, 45
2, 5611, Note_on_c, 0, 65, 61
2, 5611, Note_on_c, 0, 59, 48
2, 5627, Control_c, 0, 64, 0
2, 5627, Control_c, 0, 64, 0
2, 5631, Note_off_c, 0, 66, 64
2, 5650, Control_c, 0, 64, 127
2, 5650, Control_c, 0, 64, 127
2, 5681, Note_off_c, 0, 49, 64
2, 5687, Note_off_c, 0, 59, 64
2, 5696, Note_off_c, 0, 56, 64
2, 5717, Note_on_c, 0, 66, 72
2, 5719, Note_off_c, 0, 65, 64
2, 5813, Control_c, 0, 64, 0
2, 5813, Control_c, 0, 64, 0
2, 5822, Note_on_c, 0, 68, 66
2, 5822, Note_on_c, 0, 49, 55
2, 5825, Note_on_c, 0, 59, 61
2, 5832, Note_on_c, 0, 53, 55
2, 5837, Note_off_c, 0, 66, 64
2, 5856, Control_c, 0, 64, 127
2, 5856, Control_c, 0, 64, 127
2, 5867, Note_off_c, 0, 53, 64
2, 5867, Note_off_c, 0, 59, 64
2, 5880, Note_off_c, 0, 49, 64
2, 5979, Note_on_c, 0, 62, 52
2, 5988, Note_off_c, 0, 68, 64
2, 6016, Note_on_c, 0, 42, 59
2, 6018, Control_c, 0, 64, 0
2, 6018, Control_c, 0, 64, 0
2, 6028, Note_on_c, 0, 61, 65
2, 6056, Note_off_c, 0, 62, 64
2, 6068, Control_c, 0, 64, 127
2, 6068, Control_c, 0, 64, 127
2, 6180, Note_on_c, 0, 66, 54
2, 6198, Note_off_c, 0, 61, 64
2, 6220, Note_on_c, 0, 54, 66
2, 6221, Control_c, 0, 64, 0
2, 6221, Control_c, 0, 64, 0
2, 6227, Note_off_c, 0, 42, 64
2, 6228, Note_on_c, 0, 69, 65
2, 6232, Note_on_c, 0, 61, 55
2, 6259, Note_off_c, 0, 66, 64
2, 6273, Note_off_c, 0, 54, 64
2, 6276, Note_off_c, 0, 61, 64
2, 6376, Control_c, 0, 64, 127
2, 6376, Control_c, 0, 64, 127
2, 6427, Note_off_c, 0, 69, 64
2, 6444, Note_on_c, 0, 54, 61
2, 6448, Note_on_c, 0, 66, 72
2, 6451, Note_on_c, 0, 69, 70
2, 6451, Note_on_c, 0, 61, 55
2, 6472, Control_c, 0, 64, 127
2, 6472, Control_c, 0, 64, 127
2, 6480, Note_off_c, 0, 54, 64
2, 6486, Note_off_c, 0, 61, 64
2, 6660, Note_on_c, 0, 40, 65
2, 6670, Control_c, 0, 64, 0
2, 6670, Control_c, 0, 64, 0
2, 6702, Control_c, 0, 64, 127
2, 6702, Control_c, 0, 64, 127
2, 6780, Note_on_c, 0, 71, 48
2, 6803, Note_off_c, 0, 69, 64
2, 6809, Note_off_c, 0, 66, 64
2, 6820, Note_on_c, 0, 69, 57
2, 6833, Note_off_c, 0, 71, 64
2, 6856, Note_on_c, 0, 68, 66
2, 6859, Note_on_c, 0, 52, 52
2, 6864, Note_on_c, 0, 59, 50
2, 6869, Note_on_c, 0, 64, 28
2, 6871, Note_off_c, 0, 40, 64
2, 6875, Note_off_c, 0, 69, 64
2, 6879, Control_c, 0, 64, 0
2, 6879, Control_c, 0, 64, 0
2, 6911, Note_off_c, 0, 59, 64
2, 6911, Control_c, 0, 64, 127
2, 6911, Control_c, 0, 64, 127
2, 6917, Note_off_c, 0, 52, 64
2, 6950, Note_off_c, 0, 64, 64
2, 6963, Note_on_c, 0, 69, 61
2, 6984, Note_off_c, 0, 68, 64
2, 7050, Control_c, 0, 64, 0
2, 7050, Control_c, 0, 64, 0
2, 7057, Note_on_c, 0, 71, 66
2, 7057, Note_on_c, 0, 62, 57
2, 7057, Note_on_c, 0, 52, 58
2, 7069, Note_off_c, 0, 69, 64
2, 7098, Control_c, 0, 64, 127
2, 7098, Control_c, 0, 64, 127
2, 7109, Note_off_c, 0, 52, 64
2, 7203, Note_on_c, 0, 66, 49
2, 7218, Note_off_c, 0, 71, 64
2, 7241, Note_on_c, 0, 45, 58
2, 7242, Note_on_c, 0, 64, 66
2, 7252, Control_c, 0, 64, 0
2, 7252, Control_c, 0, 64, 0
2, 7275, Note_off_c, 0, 66, 64
2, 7288, Control_c, 0, 64, 127
2, 7288, Control_c, 0, 64, 127
2, 7388, Note_on_c, 0, 69, 54
2, 7415, Control_c, 0, 64, 0
2, 7415, Control_c, 0, 64, 0
2, 7419, Note_off_c, 0, 64, 64
2, 7424, Note_off_c, 0, 62, 64
2, 7424, Note_on_c, 0, 61, 53
2, 7424, Note_on_c, 0, 57, 58
2, 7428, Note_on_c, 0, 73, 79
2, 7451, Note_off_c, 0, 45, 64
2, 7453, Note_off_c, 0, 69, 64
2, 7468, Note_off_c, 0, 57, 64
2, 7468, Note_off_c, 0, 61, 64
2, 7627, Note_off_c, 0, 73, 64
2, 7657, Note_on_c, 0, 73, 66
2, 7659, Note_on_c, 0, 57, 58
2, 7665, Note_on_c, 0, 64, 57
2, 7681, Control_c, 0, 64, 127
2, 7681, Control_c, 0, 64, 127
2, 7798, Note_off_c, 0, 64, 64
2, 7885, Note_on_c, 0, 76, 61
2, 7893, Note_on_c, 0, 65, 52
2, 7893, Note_on_c, 0, 50, 46
2, 7898, Note_off_c, 0, 73, 64
2, 7914, Control_c, 0, 64, 0
2, 7914, Control_c, 0, 64, 0
2, 7955, Control_c, 0, 64, 127
2, 7955, Control_c, 0, 64, 127
2, 7983, Note_off_c, 0, 50, 64
2, 7989, Note_off_c, 0, 57, 64
2, 8028, Note_off_c, 0, 76, 64
2, 8038, Note_off_c, 0, 65, 64
2, 8042, Note_on_c, 0, 74, 52
2, 8067, Note_on_c, 0, 73, 55
2, 8097, Note_off_c, 0, 74, 64
2, 8112, Note_on_c, 0, 71, 53
2, 8116, Note_on_c, 0, 50, 46
2, 8121, Note_on_c, 0, 65, 29
2, 8121, Note_on_c, 0, 57, 40
2, 8129, Control_c, 0, 64, 0
2, 8129, Control_c, 0, 64, 0
2, 8141, Note_off_c, 0, 73, 64
2, 8171, Control_c, 0, 64, 127
2, 8171, Control_c, 0, 64, 127
2, 8184, Note_off_c, 0, 57, 64
2, 8185, Note_off_c, 0, 50, 64
2, 8217, Note_off_c, 0, 65, 64
2, 8337, Note_on_c, 0, 73, 55
2, 8341, Note_on_c, 0, 64, 49
2, 8345, Note_on_c, 0, 45, 46
2, 8348, Control_c, 0, 64, 0
2, 8348, Control_c, 0, 64, 0
2, 8356, Note_off_c, 0, 71, 64
2, 8358, Note_on_c, 0, 57, 29
2, 8407, Control_c, 0, 64, 127
2, 8407, Control_c, 0, 64, 127
2, 8461, Note_off_c, 0, 64, 64
2, 8482, Note_off_c, 0, 45, 64
2, 8559, Note_on_c, 0, 76, 58
2, 8559, Note_on_c, 0, 65, 57
2, 8566, Note_on_c, 0, 50, 52
2, 8574, Note_off_c, 0, 73, 64
2, 8584, Control_c, 0, 64, 0
2, 8584, Control_c, 0, 64, 0
2, 8620, Control_c, 0, 64, 127
2, 8620, Control_c, 0, 64, 127
2, 8621, Note_off_c, 0, 57, 64
2, 8636, Note_off_c, 0, 50, 64
2, 8700, Note_off_c, 0, 76, 64
2, 8705, Note_on_c, 0, 74, 50
2, 8711, Note_off_c, 0, 65, 64
2, 8738, Note_on_c, 0, 73, 70
2, 8762, Note_off_c, 0, 74, 64
2, 8786, Note_on_c, 0, 57, 49
2, 8786, Note_on_c, 0, 50, 28
2, 8787, Note_on_c, 0, 71, 55
2, 8793, Note_on_c, 0, 65, 50
2, 8799, Control_c, 0, 64, 0
2, 8799, Control_c, 0, 64, 0
2, 8809, Note_off_c, 0, 73, 64
2, 8845, Control_c, 0, 64, 127
2, 8845, Control_c, 0, 64, 127
2, 8878, Note_off_c, 0, 50, 64
2, 8900, Note_off_c, 0, 65, 64
2, 8940, Note_off_c, 0, 57, 64
2, 9003, Note_on_c, 0, 73, 58
2, 9016, Note_on_c, 0, 64, 52
2, 9016, Note_on_c, 0, 45, 53
2, 9022, Note_off_c, 0, 71, 64
2, 9024, Note_on_c, 0, 57, 57
2, 9034, Control_c, 0, 64, 0
2, 9034, Control_c, 0, 64, 0
2, 9066, Control_c, 0, 64, 127
2, 9066, Control_c, 0, 64, 127
2, 9109, Note_off_c, 0, 64, 64
2, 9163, Note_off_c, 0, 45, 64
2, 9261, Note_on_c, 0, 76, 59
2, 9261, Note_on_c, 0, 66, 58
2, 9268, Note_on_c, 0, 50, 52
2, 9281, Control_c, 0, 64, 0
2, 9281, Control_c, 0, 64, 0
2, 9285, Note_off_c, 0, 73, 64
2, 9328, Control_c, 0, 64, 127
2, 9328, Control_c, 0, 64, 127
2, 9333, Note_off_c, 0, 50, 64
2, 9408, Note_on_c, 0, 74, 57
2, 9430, Note_off_c, 0, 76, 64
2, 9456, Note_on_c, 0, 73, 58
2, 9461, Note_off_c, 0, 57, 64
2, 9464, Note_off_c, 0, 74, 64
2, 9500, Note_on_c, 0, 56, 46
2, 9504, Note_on_c, 0, 71, 62
2, 9517, Control_c, 0, 64, 0
2, 9517, Control_c, 0, 64, 0
2, 9529, Note_off_c, 0, 73, 64
2, 9564, Control_c, 0, 64, 127
2, 9564, Control_c, 0, 64, 127
2, 9678, Note_off_c, 0, 66, 64
2, 9760, Note_on_c, 0, 73, 62
2, 9763, Note_on_c, 0, 49, 46
2, 9767, Note_on_c, 0, 61, 44
2, 9769, Note_off_c, 0, 56, 64
2, 9772, Note_on_c, 0, 65, 50
2, 9778, Control_c, 0, 64, 0
2, 9778, Control_c, 0, 64, 0
2, 9786, Note_off_c, 0, 71, 64
2, 9812, Control_c, 0, 64, 127
2, 9812, Control_c, 0, 64, 127
2, 9844, Note_off_c, 0, 49, 64
2, 9878, Note_off_c, 0, 61, 64
2, 9880, Note_off_c, 0, 65, 64
2, 10027, Note_on_c, 0, 54, 28
2, 10032, Note_on_c, 0, 71, 55
2, 10032, Note_on_c, 0, 66, 44
2, 10045, Note_on_c, 0, 62, 36
2, 10059, Control_c, 0, 64, 0
2, 10059, Control_c, 0, 64, 0
2, 10062, Note_off_c, 0, 73, 64
2, 10092, Control_c, 0, 64, 127
2, 10092, Control_c, 0, 64, 127
2, 10140, Note_off_c, 0, 71, 64
2, 10146, Note_on_c, 0, 69, 54
2, 10146, Note_on_c, 0, 61, 44
2, 10202, Note_off_c, 0, 62, 64
2, 10227, Note_off_c, 0, 66, 64
2, 10229, Note_on_c, 0, 68, 55
2, 10235, Note_off_c, 0, 69, 64
2, 10238, Note_on_c, 0, 59, 44
2, 10250, Note_off_c, 0, 61, 64
2, 10328, Note_on_c, 0, 66, 53
2, 10338, Note_on_c, 0, 57, 41
2, 10342, Note_off_c, 0, 68, 64
2, 10349, Note_off_c, 0, 59, 64
2, 10349, Control_c, 0, 64, 0
2, 10349, Control_c, 0, 64, 0
2, 10423, Control_c, 0, 64, 127
2, 10423, Control_c, 0, 64, 127
2, 10502, Note_off_c, 0, 66, 64
2, 10538, Note_off_c, 0, 54, 64
2, 10618, Note_off_c, 0, 57, 64
2, 10662, Control_c, 0, 64, 0
2, 10662, Control_c, 0, 64, 0
2, 10668, Note_on_c, 0, 66, 65
2, 10701, Control_c, 0, 64, 127
2, 10701, Control_c, 0, 64, 127
2, 10912, Note_on_c, 0, 37, 57
2, 10927, Control_c, 0, 64, 0
2, 10927, Control_c, 0, 64, 0
2, 10953, Control_c, 0, 64, 127
2, 10953, Control_c, 0, 64, 127
2, 11041, Note_on_c, 0, 68, 48
2, 11050, Note_off_c, 0, 66, 64
2, 11076, Note_on_c, 0, 66, 66
2, 11091, Note_off_c, 0, 68, 64
2, 11113, Note_on_c, 0, 65, 58
2, 11120, Note_on_c, 0, 49, 37
2, 11123, Note_off_c, 0, 37, 64
2, 11127, Note_on_c, 0, 59, 40
2, 11129, Note_off_c, 0, 66, 64
2, 11138, Control_c, 0, 64, 0
2, 11138, Control_c, 0, 64, 0
2, 11173, Control_c, 0, 64, 127
2, 11173, Control_c, 0, 64, 127
2, 11189, Note_off_c, 0, 59, 64
2, 11194, Note_off_c, 0, 49, 64
2, 11218, Note_on_c, 0, 66, 55
2, 11221, Note_off_c, 0, 65, 64
2, 11320, Note_on_c, 0, 68, 63
2, 11324, Note_on_c, 0, 49, 55
2, 11327, Note_off_c, 0, 66, 64
2, 11331, Control_c, 0, 64, 0
2, 11331, Control_c, 0, 64, 0
2, 11336, Note_on_c, 0, 53, 36
2, 11340, Note_on_c, 0, 59, 29
2, 11356, Control_c, 0, 64, 127
2, 11356, Control_c, 0, 64, 127
2, 11366, Note_off_c, 0, 59, 64
2, 11366, Note_off_c, 0, 53, 64
2, 11392, Note_off_c, 0, 49, 64
2, 11468, Note_on_c, 0, 62, 48
2, 11481, Note_off_c, 0, 68, 64
2, 11515, Note_on_c, 0, 61, 59
2, 11520, Note_on_c, 0, 42, 49
2, 11525, Control_c, 0, 64, 0
2, 11525, Control_c, 0, 64, 0
2, 11546, Note_off_c, 0, 62, 64
2, 11580, Control_c, 0, 64, 127
2, 11580, Control_c, 0, 64, 127
2, 11673, Note_on_c, 0, 66, 52
2, 11690, Note_off_c, 0, 61, 64
2, 11708, Note_on_c, 0, 61, 55
2, 11712, Note_on_c, 0, 54, 58
2, 11713, Note_on_c, 0, 69, 66
2, 11713, Control_c, 0, 64, 0
2, 11713, Control_c, 0, 64, 0
2, 11731, Note_off_c, 0, 42, 64
2, 11742, Note_off_c, 0, 66, 64
2, 11752, Note_off_c, 0, 61, 64
2, 11756, Note_off_c, 0, 54, 64
2, 11828, Control_c, 0, 64, 127
2, 11828, Control_c, 0, 64, 127
2, 11912, Note_off_c, 0, 69, 64
2, 11940, Note_on_c, 0, 69, 70
2, 11940, Note_on_c, 0, 61, 49
2, 11945, Note_on_c, 0, 66, 70
2, 11951, Note_on_c, 0, 54, 58
2, 11960, Control_c, 0, 64, 127
2, 11960, Control_c, 0, 64, 127
2, 11980, Note_off_c, 0, 61, 64
2, 11992, Note_off_c, 0, 54, 64
2, 12155, Note_on_c, 0, 40, 54
2, 12167, Control_c, 0, 64, 0
2, 12167, Control_c, 0, 64, 0
2, 12180, Control_c, 0, 64, 127
2, 12180, Control_c, 0, 64, 127
2, 12239, Note_off_c, 0, 69, 64
2, 12264, Note_on_c, 0, 71, 55
2, 12304, Note_on_c, 0, 69, 52
2, 12313, Note_off_c, 0, 66, 64
2, 12334, Note_off_c, 0, 71, 64
2, 12342, Note_on_c, 0, 68, 63
2, 12342, Note_on_c, 0, 64, 26
2, 12344, Note_on_c, 0, 59, 44
2, 12346, Note_on_c, 0, 52, 54
2, 12348, Note_off_c, 0, 69, 64
2, 12361, Control_c, 0, 64, 0
2, 12361, Control_c, 0, 64, 0
2, 12366, Note_off_c, 0, 40, 64
2, 12398, Note_off_c, 0, 59, 64
2, 12405, Control_c, 0, 64, 127
2, 12405, Control_c, 0, 64, 127
2, 12408, Note_off_c, 0, 52, 64
2, 12434, Note_off_c, 0, 64, 64
2, 12446, Note_on_c, 0, 69, 57
2, 12472, Note_off_c, 0, 68, 64
2, 12533, Control_c, 0, 64, 0
2, 12533, Control_c, 0, 64, 0
2, 12540, Note_on_c, 0, 71, 63
2, 12540, Note_on_c, 0, 62, 52
2, 12546, Note_on_c, 0, 52, 58
2, 12558, Note_off_c, 0, 69, 64
2, 12576, Control_c, 0, 64, 127
2, 12576, Control_c, 0, 64, 127
2, 12596, Note_off_c, 0, 52, 64
2, 12684, Note_on_c, 0, 66, 48
2, 12700, Note_off_c, 0, 71, 64
2, 12717, Control_c, 0, 64, 0
2, 12717, Control_c, 0, 64, 0
2, 12724, Note_on_c, 0, 45, 57
2, 12729, Note_on_c, 0, 64, 55
2, 12768, Note_off_c, 0, 66, 64
2, 12777, Control_c, 0, 64, 127
2, 12777, Control_c, 0, 64, 127
2, 12868, Note_on_c, 0, 69, 48
2, 12898, Note_off_c, 0, 64, 64
2, 12898, Control_c, 0, 64, 0
2, 12898, Control_c, 0, 64, 0
2, 12912, Note_on_c, 0, 73, 71
2, 12912, Note_on_c, 0, 61, 55
2, 12912, Note_on_c, 0, 57, 61
2, 12928, Note_off_c, 0, 62, 64
2, 12930, Note_off_c, 0, 45, 64
2, 12936, Note_off_c, 0, 69, 64
2, 12956, Note_off_c, 0, 57, 64
2, 12956, Note_off_c, 0, 61, 64
2, 13099, Note_off_c, 0, 73, 64
2, 13126, Note_on_c, 0, 73, 66
2, 13133, Note_on_c, 0, 57, 58
2, 13139, Note_on_c, 0, 64, 58
2, 13162, Control_c, 0, 64, 127
2, 13162, Control_c, 0, 64, 127
2, 13208, Note_off_c, 0, 57, 64
2, 13221, Note_off_c, 0, 64, 64
2, 13332, Note_on_c, 0, 66, 45
2, 13332, Note_on_c, 0, 57, 57
2, 13336, Note_on_c, 0, 63, 28
2, 13359, Control_c, 0, 64, 0
2, 13359, Control_c, 0, 64, 0
2, 13405, Control_c, 0, 64, 127
2, 13405, Control_c, 0, 64, 127
2, 13452, Note_on_c, 0, 75, 52
2, 13457, Note_off_c, 0, 73, 64
2, 13500, Note_on_c, 0, 73, 55
2, 13513, Note_off_c, 0, 75, 64
2, 13540, Note_on_c, 0, 56, 55
2, 13544, Note_on_c, 0, 72, 59
2, 13554, Note_off_c, 0, 57, 64
2, 13555, Note_off_c, 0, 73, 64
2, 13555, Control_c, 0, 64, 0
2, 13555, Control_c, 0, 64, 0
2, 13601, Control_c, 0, 64, 127
2, 13601, Control_c, 0, 64, 127
2, 13670, Note_off_c, 0, 72, 64
2, 13670, Note_on_c, 0, 68, 62
2, 13729, Note_on_c, 0, 71, 62
2, 13736, Note_off_c, 0, 66, 64
2, 13738, Note_on_c, 0, 65, 57
2, 13738, Note_on_c, 0, 61, 53
2, 13740, Note_off_c, 0, 63, 64
2, 13745, Note_off_c, 0, 68, 64
2, 13745, Control_c, 0, 64, 0
2, 13745, Control_c, 0, 64, 0
2, 13790, Control_c, 0, 64, 127
2, 13790, Control_c, 0, 64, 127
2, 13925, Note_off_c, 0, 61, 64
2, 13926, Note_on_c, 0, 55, 49
2, 13933, Note_on_c, 0, 61, 37
2, 13936, Note_on_c, 0, 64, 41
2, 13947, Note_off_c, 0, 65, 64
2, 13948, Control_c, 0, 64, 0
2, 13948, Control_c, 0, 64, 0
2, 13957, Note_off_c, 0, 56, 64
2, 14000, Control_c, 0, 64, 127
2, 14000, Control_c, 0, 64, 127
2, 14048, Note_on_c, 0, 73, 52
2, 14073, Note_off_c, 0, 71, 64
2, 14093, Note_on_c, 0, 71, 53
2, 14113, Note_off_c, 0, 73, 64
2, 14131, Note_on_c, 0, 54, 52
2, 14134, Control_c, 0, 64, 0
2, 14134, Control_c, 0, 64, 0
2, 14141, Note_on_c, 0, 70, 55
2, 14147, Note_off_c, 0, 55, 64
2, 14154, Note_off_c, 0, 71, 64
2, 14191, Control_c, 0, 64, 127
2, 14191, Control_c, 0, 64, 127
2, 14255, Note_on_c, 0, 66, 59
2, 14268, Note_off_c, 0, 70, 64
2, 14316, Note_on_c, 0, 69, 58
2, 14320, Note_on_c, 0, 63, 49
2, 14326, Note_on_c, 0, 60, 50
2, 14329, Note_off_c, 0, 66, 64
2, 14337, Control_c, 0, 64, 0
2, 14337, Control_c, 0, 64, 0
2, 14342, Note_off_c, 0, 61, 64
2, 14345, Note_off_c, 0, 64, 64
2, 14378, Control_c, 0, 64, 127
2, 14378, Control_c, 0, 64, 127
2, 14508, Note_on_c, 0, 59, 37
2, 14509, Note_on_c, 0, 62, 48
2, 14511, Note_on_c, 0, 53, 46
2, 14515, Note_off_c, 0, 63, 64
2, 14518, Note_off_c, 0, 54, 64
2, 14521, Note_off_c, 0, 60, 64
2, 14532, Control_c, 0, 64, 0
2, 14532, Control_c, 0, 64, 0
2, 14579, Control_c, 0, 64, 127
2, 14579, Control_c, 0, 64, 127
2, 14638, Note_on_c, 0, 71, 49
2, 14642, Note_off_c, 0, 69, 64
2, 14667, Note_on_c, 0, 69, 52
2, 14688, Note_off_c, 0, 71, 64
2, 14703, Note_on_c, 0, 52, 50
2, 14705, Note_on_c, 0, 68, 46
2, 14707, Control_c, 0, 64, 0
2, 14707, Control_c, 0, 64, 0
2, 14716, Note_off_c, 0, 53, 64
2, 14728, Note_off_c, 0, 69, 64
2, 14763, Control_c, 0, 64, 127
2, 14763, Control_c, 0, 64, 127
2, 14820, Note_on_c, 0, 64, 44
2, 14825, Note_off_c, 0, 68, 64
2, 14888, Control_c, 0, 64, 0
2, 14888, Control_c, 0, 64, 0
2, 14895, Note_on_c, 0, 67, 61
2, 14895, Note_on_c, 0, 61, 45
2, 14902, Note_on_c, 0, 58, 48
2, 14911, Note_off_c, 0, 59, 64
2, 14912, Note_off_c, 0, 62, 64
2, 14914, Note_off_c, 0, 64, 64
2, 14950, Control_c, 0, 64, 127
2, 14950, Control_c, 0, 64, 127
2, 15082, Note_off_c, 0, 61, 64
2, 15085, Note_on_c, 0, 51, 46
2, 15092, Note_on_c, 0, 57, 39
2, 15093, Note_on_c, 0, 61, 44
2, 15094, Control_c, 0, 64, 0
2, 15094, Control_c, 0, 64, 0
2, 15100, Note_off_c, 0, 52, 64
2, 15131, Note_off_c, 0, 58, 64
2, 15154, Control_c, 0, 64, 127
2, 15154, Control_c, 0, 64, 127
2, 15220, Note_on_c, 0, 69, 40
2, 15234, Note_off_c, 0, 67, 64
2, 15260, Note_on_c, 0, 67, 48
2, 15280, Note_off_c, 0, 69, 64
2, 15285, Note_on_c, 0, 50, 48
2, 15290, Control_c, 0, 64, 0
2, 15290, Control_c, 0, 64, 0
2, 15300, Note_on_c, 0, 66, 48
2, 15301, Note_off_c, 0, 51, 64
2, 15329, Note_off_c, 0, 67, 64
2, 15337, Control_c, 0, 64, 127
2, 15337, Control_c, 0, 64, 127
2, 15399, Note_on_c, 0, 62, 50
2, 15408, Note_off_c, 0, 66, 64
2, 15460, Note_off_c, 0, 61, 64
2, 15528, Note_on_c, 0, 66, 59
2, 15535, Note_on_c, 0, 56, 45
2, 15538, Note_on_c, 0, 59, 45
2, 15542, Control_c, 0, 64, 0
2, 15542, Control_c, 0, 64, 0
2, 15543, Note_off_c, 0, 57, 64
2, 15551, Note_off_c, 0, 62, 64
2, 15588, Control_c, 0, 64, 127
2, 15588, Control_c, 0, 64, 127
2, 15755, Control_c, 0, 64, 0
2, 15755, Control_c, 0, 64, 0
2, 15768, Note_on_c, 0, 37, 63
2, 15771, Note_on_c, 0, 49, 66
2, 15774, Note_off_c, 0, 56, 64
2, 15777, Note_off_c, 0, 59, 64
2, 15795, Note_off_c, 0, 50, 64
2, 15824, Control_c, 0, 64, 127
2, 15824, Control_c, 0, 64, 127
2, 15925, Note_on_c, 0, 68, 57
2, 15928, Note_off_c, 0, 66, 64
2, 15950, Note_off_c, 0, 49, 64
2, 15958, Note_on_c, 0, 66, 70
2, 15979, Note_off_c, 0, 37, 64
2, 15980, Note_on_c, 0, 49, 46
2, 15983, Note_off_c, 0, 68, 64
2, 15987, Note_on_c, 0, 56, 52
2, 15989, Control_c, 0, 64, 0
2, 15989, Control_c, 0, 64, 0
2, 15996, Note_on_c, 0, 65, 63
2, 15996, Note_on_c, 0, 59, 48
2, 16010, Note_off_c, 0, 66, 64
2, 16030, Control_c, 0, 64, 127
2, 16030, Control_c, 0, 64, 127
2, 16056, Note_off_c, 0, 49, 64
2, 16057, Note_off_c, 0, 59, 64
2, 16067, Note_off_c, 0, 56, 64
2, 16089, Note_on_c, 0, 66, 72
2, 16100, Note_off_c, 0, 65, 64
2, 16172, Control_c, 0, 64, 0
2, 16172, Control_c, 0, 64, 0
2, 16187, Note_on_c, 0, 68, 66
2, 16193, Note_on_c, 0, 59, 58
2, 16195, Note_on_c, 0, 49, 61
2, 16199, Note_on_c, 0, 53, 59
2, 16200, Note_off_c, 0, 66, 64
2, 16229, Control_c, 0, 64, 127
2, 16229, Control_c, 0, 64, 127
2, 16238, Note_off_c, 0, 59, 64
2, 16239, Note_off_c, 0, 53, 64
2, 16253, Note_off_c, 0, 49, 64
2, 16330, Note_on_c, 0, 62, 58
2, 16345, Note_off_c, 0, 68, 64
2, 16360, Control_c, 0, 64, 0
2, 16360, Control_c, 0, 64, 0
2, 16375, Note_on_c, 0, 61, 66
2, 16381, Note_on_c, 0, 42, 55
2, 16404, Note_off_c, 0, 62, 64
2, 16419, Control_c, 0, 64, 127
2, 16419, Control_c, 0, 64, 127
2, 16518, Note_on_c, 0, 66, 54
2, 16532, Note_off_c, 0, 61, 64
2, 16556, Note_on_c, 0, 69, 66
2, 16556, Note_on_c, 0, 61, 55
2, 16556, Note_on_c, 0, 54, 66
2, 16557, Control_c, 0, 64, 0
2, 16557, Control_c, 0, 64, 0
2, 16587, Note_off_c, 0, 66, 64
2, 16592, Note_off_c, 0, 42, 64
2, 16600, Note_off_c, 0, 54, 64
2, 16600, Note_off_c, 0, 61, 64
2, 16672, Control_c, 0, 64, 127
2, 16672, Control_c, 0, 64, 127
2, 16755, Note_off_c, 0, 69, 64
2, 16783, Note_on_c, 0, 61, 70
2, 16783, Note_on_c, 0, 54, 71
2, 16786, Note_on_c, 0, 69, 72
2, 16791, Note_on_c, 0, 66, 70
2, 16800, Control_c, 0, 64, 127
2, 16800, Control_c, 0, 64, 127
2, 16820, Note_off_c, 0, 61, 64
2, 16830, Note_off_c, 0, 54, 64
2, 16983, Note_on_c, 0, 40, 67
2, 16988, Control_c, 0, 64, 0
2, 16988, Control_c, 0, 64, 0
2, 17019, Control_c, 0, 64, 127
2, 17019, Control_c, 0, 64, 127
2, 17116, Note_on_c, 0, 71, 52
2, 17122, Note_off_c, 0, 69, 64
2, 17149, Note_off_c, 0, 66, 64
2, 17152, Note_on_c, 0, 69, 55
2, 17169, Note_off_c, 0, 71, 64
2, 17176, Note_on_c, 0, 64, 41
2, 17178, Note_on_c, 0, 52, 52
2, 17186, Note_on_c, 0, 59, 44
2, 17191, Note_on_c, 0, 68, 70
2, 17194, Note_off_c, 0, 40, 64
2, 17195, Control_c, 0, 64, 0
2, 17195, Control_c, 0, 64, 0
2, 17198, Note_off_c, 0, 69, 64
2, 17229, Control_c, 0, 64, 127
2, 17229, Control_c, 0, 64, 127
2, 17244, Note_off_c, 0, 59, 64
2, 17245, Note_off_c, 0, 52, 64
2, 17257, Note_off_c, 0, 64, 64
2, 17289, Note_on_c, 0, 69, 58
2, 17306, Note_off_c, 0, 68, 64
2, 17361, Control_c, 0, 64, 0
2, 17361, Control_c, 0, 64, 0
2, 17372, Note_on_c, 0, 71, 66
2, 17376, Note_on_c, 0, 62, 58
2, 17381, Note_off_c, 0, 69, 64
2, 17381, Note_on_c, 0, 52, 58
2, 17417, Control_c, 0, 64, 127
2, 17417, Control_c, 0, 64, 127
2, 17431, Note_off_c, 0, 52, 64
2, 17500, Note_on_c, 0, 66, 58
2, 17519, Note_off_c, 0, 71, 64
2, 17545, Note_on_c, 0, 64, 59
2, 17547, Control_c, 0, 64, 0
2, 17547, Control_c, 0, 64, 0
2, 17555, Note_on_c, 0, 45, 55
2, 17560, Note_off_c, 0, 66, 64
2, 17561, Note_off_c, 0, 62, 64
2, 17607, Control_c, 0, 64, 127
2, 17607, Control_c, 0, 64, 127
2, 17700, Note_on_c, 0, 69, 44
2, 17715, Note_off_c, 0, 64, 64
2, 17725, Control_c, 0, 64, 0
2, 17725, Control_c, 0, 64, 0
2, 17736, Note_on_c, 0, 61, 49
2, 17736, Note_on_c, 0, 57, 58
2, 17740, Note_on_c, 0, 73, 76
2, 17750, Note_off_c, 0, 69, 64
2, 17759, Note_off_c, 0, 45, 64
2, 17780, Note_off_c, 0, 57, 64
2, 17780, Note_off_c, 0, 61, 64
2, 17927, Note_off_c, 0, 73, 64
2, 17945, Note_on_c, 0, 73, 80
2, 17954, Note_on_c, 0, 64, 70
2, 17954, Note_on_c, 0, 57, 55
2, 17977, Control_c, 0, 64, 127
2, 17977, Control_c, 0, 64, 127
2, 18111, Note_off_c, 0, 64, 64
2, 18189, Note_on_c, 0, 76, 59
2, 18199, Note_on_c, 0, 50, 37
2, 18202, Note_on_c, 0, 65, 44
2, 18212, Note_off_c, 0, 73, 64
2, 18226, Control_c, 0, 64, 0
2, 18226, Control_c, 0, 64, 0
2, 18291, Control_c, 0, 64, 127
2, 18291, Control_c, 0, 64, 127
2, 18315, Note_off_c, 0, 57, 64
2, 18317, Note_off_c, 0, 50, 64
2, 18343, Note_on_c, 0, 74, 52
2, 18354, Note_off_c, 0, 65, 64
2, 18354, Note_off_c, 0, 76, 64
2, 18371, Note_on_c, 0, 73, 53
2, 18405, Note_off_c, 0, 74, 64
2, 18422, Note_on_c, 0, 71, 61
2, 18432, Note_on_c, 0, 65, 46
2, 18432, Note_on_c, 0, 57, 52
2, 18432, Note_on_c, 0, 50, 52
2, 18446, Control_c, 0, 64, 0
2, 18446, Control_c, 0, 64, 0
2, 18451, Note_off_c, 0, 73, 64
2, 18491, Control_c, 0, 64, 127
2, 18491, Control_c, 0, 64, 127
2, 18500, Note_off_c, 0, 50, 64
2, 18500, Note_off_c, 0, 57, 64
2, 18533, Note_off_c, 0, 65, 64
2, 18636, Note_on_c, 0, 73, 59
2, 18638, Note_on_c, 0, 64, 48
2, 18651, Note_on_c, 0, 57, 44
2, 18651, Note_on_c, 0, 45, 44
2, 18654, Control_c, 0, 64, 0
2, 18654, Control_c, 0, 64, 0
2, 18660, Note_off_c, 0, 71, 64
2, 18720, Control_c, 0, 64, 127
2, 18720, Control_c, 0, 64, 127
2, 18765, Note_off_c, 0, 64, 64
2, 18856, Note_off_c, 0, 45, 64
2, 18857, Note_on_c, 0, 76, 61
2, 18857, Note_on_c, 0, 65, 53
2, 18864, Note_on_c, 0, 50, 57
2, 18864, Control_c, 0, 64, 0
2, 18864, Control_c, 0, 64, 0
2, 18873, Note_off_c, 0, 73, 64
2, 18914, Note_off_c, 0, 50, 64
2, 18923, Control_c, 0, 64, 127
2, 18923, Control_c, 0, 64, 127
2, 18961, Note_off_c, 0, 57, 64
2, 18982, Note_on_c, 0, 74, 58
2, 18986, Note_off_c, 0, 76, 64
2, 18991, Note_off_c, 0, 65, 64
2, 19020, Note_on_c, 0, 73, 61
2, 19047, Note_off_c, 0, 74, 64
2, 19065, Note_on_c, 0, 71, 57
2, 19068, Note_on_c, 0, 65, 44
2, 19068, Note_on_c, 0, 57, 37
2, 19074, Note_on_c, 0, 50, 36
2, 19074, Control_c, 0, 64, 0
2, 19074, Control_c, 0, 64, 0
2, 19096, Note_off_c, 0, 73, 64
2, 19122, Control_c, 0, 64, 127
2, 19122, Control_c, 0, 64, 127
2, 19151, Note_off_c, 0, 50, 64
2, 19167, Note_off_c, 0, 65, 64
2, 19217, Note_off_c, 0, 57, 64
2, 19286, Note_on_c, 0, 73, 53
2, 19292, Note_on_c, 0, 64, 44
2, 19295, Note_on_c, 0, 57, 44
2, 19297, Note_on_c, 0, 45, 42
2, 19302, Note_off_c, 0, 71, 64
2, 19308, Control_c, 0, 64, 0
2, 19308, Control_c, 0, 64, 0
2, 19368, Control_c, 0, 64, 127
2, 19368, Control_c, 0, 64, 127
2, 19398, Note_off_c, 0, 64, 64
2, 19476, Note_off_c, 0, 45, 64
2, 19548, Note_on_c, 0, 66, 58
2, 19550, Note_on_c, 0, 76, 54
2, 19557, Note_off_c, 0, 73, 64
2, 19558, Note_on_c, 0, 50, 49
2, 19583, Control_c, 0, 64, 0
2, 19583, Control_c, 0, 64, 0
2, 19627, Control_c, 0, 64, 127
2, 19627, Control_c, 0, 64, 127
2, 19701, Note_on_c, 0, 74, 45
2, 19709, Note_off_c, 0, 76, 64
2, 19717, Note_off_c, 0, 50, 64
2, 19734, Note_on_c, 0, 73, 45
2, 19754, Note_off_c, 0, 74, 64
2, 19774, Note_off_c, 0, 57, 64
2, 19777, Note_on_c, 0, 71, 55
2, 19790, Note_on_c, 0, 56, 54
2, 19800, Note_off_c, 0, 73, 64
2, 19816, Control_c, 0, 64, 0
2, 19816, Control_c, 0, 64, 0
2, 19847, Control_c, 0, 64, 127
2, 19847, Control_c, 0, 64, 127
2, 19918, Note_off_c, 0, 66, 64
2, 19943, Note_off_c, 0, 56, 64
2, 20037, Note_on_c, 0, 73, 50
2, 20043, Note_on_c, 0, 49, 40
2, 20048, Note_on_c, 0, 61, 31
2, 20052, Note_on_c, 0, 65, 44
2, 20053, Note_off_c, 0, 71, 64
2, 20073, Control_c, 0, 64, 0
2, 20073, Control_c, 0, 64, 0
2, 20110, Control_c, 0, 64, 127
2, 20110, Control_c, 0, 64, 127
2, 20147, Note_off_c, 0, 49, 64
2, 20188, Note_off_c, 0, 65, 64
2, 20192, Note_off_c, 0, 61, 64
2, 20246, Note_off_c, 0, 73, 64
2, 20307, Note_on_c, 0, 66, 37
2, 20310, Note_on_c, 0, 54, 33
2, 20311, Note_on_c, 0, 71, 48
2, 20320, Note_on_c, 0, 62, 33
2, 20336, Control_c, 0, 64, 0
2, 20336, Control_c, 0, 64, 0
2, 20360, Control_c, 0, 64, 127
2, 20360, Control_c, 0, 64, 127
2, 20388, Note_off_c, 0, 71, 64
2, 20402, Note_on_c, 0, 61, 44
2, 20406, Note_on_c, 0, 69, 33
2, 20449, Note_off_c, 0, 62, 64
2, 20458, Note_off_c, 0, 66, 64
2, 20480, Note_on_c, 0, 68, 49
2, 20488, Note_off_c, 0, 69, 64
2, 20492, Note_on_c, 0, 59, 44
2, 20504, Note_off_c, 0, 61, 64
2, 20563, Note_on_c, 0, 66, 40
2, 20572, Note_on_c, 0, 57, 33
2, 20575, Note_off_c, 0, 59, 64
2, 20579, Control_c, 0, 64, 0
2, 20579, Control_c, 0, 64, 0
2, 20585, Note_off_c, 0, 68, 64
2, 20623, Note_off_c, 0, 54, 64
2, 20655, Control_c, 0, 64, 127
2, 20655, Control_c, 0, 64, 127
2, 20703, Note_off_c, 0, 66, 64
2, 20750, Note_off_c, 0, 57, 64
2, 20812, Note_on_c, 0, 73, 65
2, 21072, Control_c, 0, 64, 0
2, 21072, Control_c, 0, 64, 0
2, 21080, Note_off_c, 0, 73, 64
2, 21092, Note_on_c, 0, 73, 83
2, 21095, Note_on_c, 0, 85, 83
2, 21095, Note_on_c, 0, 37, 76
2, 21099, Note_on_c, 0, 49, 79
2, 21123, Control_c, 0, 64, 127
2, 21123, Control_c, 0, 64, 127
2, 21203, Control_c, 0, 64, 127
2, 21203, Control_c, 0, 64, 127
2, 21248, Note_off_c, 0, 73, 64
2, 21298, Note_on_c, 0, 56, 44
2, 21305, Note_on_c, 0, 73, 66
2, 21372, Note_off_c, 0, 73, 64
2, 21390, Note_on_c, 0, 68, 80
2, 21395, Note_on_c, 0, 61, 58
2, 21470, Note_off_c, 0, 61, 64
2, 21478, Note_on_c, 0, 72, 66
2, 21478, Note_on_c, 0, 63, 44
2, 21544, Note_on_c, 0, 66, 63
2, 21555, Note_on_c, 0, 74, 66
2, 21561, Note_off_c, 0, 72, 64
2, 21575, Note_off_c, 0, 63, 64
2, 21601, Note_off_c, 0, 68, 64
2, 21638, Control_c, 0, 64, 0
2, 21638, Control_c, 0, 64, 0
2, 21644, Note_off_c, 0, 66, 64
2, 21646, Note_on_c, 0, 73, 63
2, 21653, Note_on_c, 0, 65, 67
2, 21668, Note_off_c, 0, 74, 64
2, 21692, Control_c, 0, 64, 127
2, 21692, Control_c, 0, 64, 127
2, 21709, Note_off_c, 0, 49, 64
2, 21722, Note_off_c, 0, 37, 64
2, 21731, Note_off_c, 0, 85, 64
2, 21790, Note_on_c, 0, 72, 63
2, 21796, Note_on_c, 0, 63, 58
2, 21799, Note_off_c, 0, 65, 64
2, 21804, Note_off_c, 0, 73, 64
2, 21842, Note_on_c, 0, 71, 62
2, 21842, Note_on_c, 0, 62, 65
2, 21846, Control_c, 0, 64, 0
2, 21846, Control_c, 0, 64, 0
2, 21854, Note_off_c, 0, 72, 64
2, 21856, Note_off_c, 0, 63, 64
2, 21884, Control_c, 0, 64, 127
2, 21884, Control_c, 0, 64, 127
2, 21916, Note_off_c, 0, 71, 64
2, 22018, Note_off_c, 0, 56, 64
2, 22046, Note_on_c, 0, 59, 59
2, 22048, Note_on_c, 0, 71, 67
2, 22050, Note_off_c, 0, 62, 64
2, 22077, Note_off_c, 0, 59, 64
2, 22091, Note_off_c, 0, 71, 64
2, 22266, Control_c, 0, 64, 0
2, 22266, Control_c, 0, 64, 0
2, 22275, Note_on_c, 0, 85, 80
2, 22282, Note_on_c, 0, 37, 71
2, 22283, Note_on_c, 0, 73, 85
2, 22283, Note_on_c, 0, 49, 83
2, 22311, Control_c, 0, 64, 127
2, 22311, Control_c, 0, 64, 127
2, 22439, Note_off_c, 0, 73, 64
2, 22500, Note_on_c, 0, 56, 62
2, 22507, Note_on_c, 0, 73, 66
2, 22590, Note_off_c, 0, 73, 64
2, 22596, Note_on_c, 0, 68, 80
2, 22603, Note_on_c, 0, 61, 59
2, 22673, Note_off_c, 0, 61, 64
2, 22679, Note_on_c, 0, 63, 61
2, 22683, Note_on_c, 0, 72, 66
2, 22696, Note_off_c, 0, 68, 64
2, 22755, Note_on_c, 0, 66, 66
2, 22764, Note_on_c, 0, 74, 66
2, 22779, Note_off_c, 0, 72, 64
2, 22781, Note_off_c, 0, 63, 64
2, 22799, Note_off_c, 0, 37, 64
2, 22804, Note_off_c, 0, 49, 64
2, 22806, Note_off_c, 0, 85, 64
2, 22849, Note_off_c, 0, 66, 64
2, 22857, Control_c, 0, 64, 0
2, 22857, Control_c, 0, 64, 0
2, 22863, Note_on_c, 0, 73, 72
2, 22867, Note_on_c, 0, 65, 65
2, 22878, Note_off_c, 0, 74, 64
2, 22905, Control_c, 0, 64, 127
2, 22905, Control_c, 0, 64, 127
2, 22945, Note_on_c, 0, 72, 48
2, 22948, Note_on_c, 0, 63, 54
2, 22954, Note_off_c, 0, 73, 64
2, 22974, Note_off_c, 0, 65, 64
2, 23039, Note_on_c, 0, 62, 53
2, 23040, Note_off_c, 0, 72, 64
2, 23045, Note_on_c, 0, 80, 81
2, 23045, Note_on_c, 0, 71, 66
2, 23052, Note_off_c, 0, 63, 64
2, 23056, Control_c, 0, 64, 0
2, 23056, Control_c, 0, 64, 0
2, 23089, Control_c, 0, 64, 127
2, 23089, Control_c, 0, 64, 127
2, 23200, Note_off_c, 0, 56, 64
2, 23237, Note_on_c, 0, 59, 65
2, 23247, Note_off_c, 0, 62, 64
2, 23268, Note_off_c, 0, 59, 64
2, 23333, Note_on_c, 0, 78, 57
2, 23340, Note_off_c, 0, 71, 64
2, 23341, Note_off_c, 0, 80, 64
2, 23472, Note_on_c, 0, 85, 88
2, 23476, Note_on_c, 0, 77, 80
2, 23476, Note_on_c, 0, 73, 80
2, 23478, Control_c, 0, 64, 0
2, 23478, Control_c, 0, 64, 0
2, 23485, Note_on_c, 0, 49, 80
2, 23485, Note_on_c, 0, 37, 72
2, 23492, Note_off_c, 0, 78, 64
2, 23520, Control_c, 0, 64, 127
2, 23520, Control_c, 0, 64, 127
2, 23632, Note_off_c, 0, 73, 64
2, 23709, Note_on_c, 0, 56, 61
2, 23711, Note_on_c, 0, 73, 62
2, 23733, Control_c, 0, 64, 0
2, 23733, Control_c, 0, 64, 0
2, 23757, Control_c, 0, 64, 127
2, 23757, Control_c, 0, 64, 127
2, 23803, Note_on_c, 0, 68, 79
2, 23807, Note_on_c, 0, 61, 62
2, 23812, Note_off_c, 0, 73, 64
2, 23884, Note_on_c, 0, 63, 50
2, 23885, Note_off_c, 0, 61, 64
2, 23890, Note_on_c, 0, 72, 66
2, 23911, Note_off_c, 0, 68, 64
2, 23965, Note_on_c, 0, 66, 67
2, 23972, Note_on_c, 0, 74, 66
2, 23988, Note_off_c, 0, 72, 64
2, 23988, Note_off_c, 0, 63, 64
2, 23994, Note_off_c, 0, 85, 64
2, 24006, Note_off_c, 0, 37, 64
2, 24007, Note_off_c, 0, 49, 64
2, 24011, Note_off_c, 0, 77, 64
2, 24057, Note_off_c, 0, 66, 64
2, 24062, Note_on_c, 0, 73, 70
2, 24078, Note_on_c, 0, 65, 66
2, 24081, Control_c, 0, 64, 0
2, 24081, Control_c, 0, 64, 0
2, 24088, Note_off_c, 0, 74, 64
2, 24116, Control_c, 0, 64, 127
2, 24116, Control_c, 0, 64, 127
2, 24202, Note_on_c, 0, 63, 63
2, 24207, Note_off_c, 0, 65, 64
2, 24216, Note_on_c, 0, 72, 66
2, 24238, Note_off_c, 0, 73, 64
2, 24252, Note_on_c, 0, 71, 70
2, 24260, Note_on_c, 0, 62, 67
2, 24261, Control_c, 0, 64, 0
2, 24261, Control_c, 0, 64, 0
2, 24267, Note_off_c, 0, 63, 64
2, 24269, Note_off_c, 0, 72, 64
2, 24307, Control_c, 0, 64, 127
2, 24307, Control_c, 0, 64, 127
2, 24313, Note_off_c, 0, 71, 64
2, 24468, Note_off_c, 0, 62, 64
2, 24473, Note_on_c, 0, 59, 65
2, 24474, Note_on_c, 0, 71, 66
2, 24486, Control_c, 0, 64, 0
2, 24486, Control_c, 0, 64, 0
2, 24490, Note_off_c, 0, 56, 64
2, 24516, Control_c, 0, 64, 127
2, 24516, Control_c, 0, 64, 127
2, 24524, Note_off_c, 0, 71, 64
2, 24576, Note_off_c, 0, 59, 64
2, 24708, Note_on_c, 0, 85, 79
2, 24713, Note_on_c, 0, 73, 79
2, 24713, Note_on_c, 0, 37, 66
2, 24718, Note_on_c, 0, 49, 81
2, 24729, Control_c, 0, 64, 0
2, 24729, Control_c, 0, 64, 0
2, 24743, Control_c, 0, 64, 127
2, 24743, Control_c, 0, 64, 127
2, 24869, Note_off_c, 0, 73, 64
2, 24948, Note_on_c, 0, 56, 59
2, 24954, Note_on_c, 0, 73, 67
2, 25055, Note_off_c, 0, 73, 64
2, 25057, Note_on_c, 0, 68, 79
2, 25057, Note_on_c, 0, 61, 59
2, 25141, Note_off_c, 0, 61, 64
2, 25144, Note_on_c, 0, 63, 55
2, 25148, Note_on_c, 0, 72, 66
2, 25160, Note_off_c, 0, 68, 64
2, 25228, Note_on_c, 0, 66, 65
2, 25234, Note_on_c, 0, 74, 63
2, 25235, Note_off_c, 0, 37, 64
2, 25243, Note_off_c, 0, 72, 64
2, 25246, Note_off_c, 0, 63, 64
2, 25247, Note_off_c, 0, 49, 64
2, 25250, Note_off_c, 0, 85, 64
2, 25345, Note_on_c, 0, 73, 63
2, 25350, Note_on_c, 0, 65, 58
2, 25356, Note_off_c, 0, 74, 64
2, 25359, Note_off_c, 0, 66, 64
2, 25373, Control_c, 0, 64, 0
2, 25373, Control_c, 0, 64, 0
2, 25417, Control_c, 0, 64, 127
2, 25417, Control_c, 0, 64, 127
2, 25471, Note_on_c, 0, 63, 57
2, 25484, Note_on_c, 0, 72, 61
2, 25491, Note_off_c, 0, 65, 64
2, 25523, Note_off_c, 0, 73, 64
2, 25630, Note_on_c, 0, 71, 57
2, 25630, Note_on_c, 0, 62, 39
2, 25636, Note_off_c, 0, 72, 64
2, 25636, Note_off_c, 0, 63, 64
2, 25826, Note_on_c, 0, 61, 42
2, 25829, Note_on_c, 0, 69, 57
2, 25833, Note_off_c, 0, 56, 64
2, 25848, Note_off_c, 0, 62, 64
2, 25865, Note_off_c, 0, 71, 64
2, 25865, Control_c, 0, 64, 0
2, 25865, Control_c, 0, 64, 0
2, 25878, Control_c, 0, 64, 127
2, 25878, Control_c, 0, 64, 127
2, 25992, Note_on_c, 0, 59, 46
2, 25998, Note_off_c, 0, 61, 64
2, 26052, Note_on_c, 0, 68, 58
2, 26074, Note_off_c, 0, 69, 64
2, 26081, Control_c, 0, 64, 0
2, 26081, Control_c, 0, 64, 0
2, 26126, Note_on_c, 0, 66, 59
2, 26135, Note_on_c, 0, 57, 59
2, 26146, Note_off_c, 0, 68, 64
2, 26157, Note_off_c, 0, 59, 64
2, 26176, Control_c, 0, 64, 127
2, 26176, Control_c, 0, 64, 127
2, 26277, Note_on_c, 0, 68, 37
2, 26283, Note_off_c, 0, 66, 64
2, 26309, Note_on_c, 0, 66, 61
2, 26329, Note_off_c, 0, 68, 64
2, 26339, Note_on_c, 0, 56, 58
2, 26349, Note_on_c, 0, 65, 55
2, 26350, Note_off_c, 0, 57, 64
2, 26361, Control_c, 0, 64, 0
2, 26361, Control_c, 0, 64, 0
2, 26371, Note_off_c, 0, 66, 64
2, 26398, Control_c, 0, 64, 127
2, 26398, Control_c, 0, 64, 127
2, 26454, Note_on_c, 0, 66, 67
2, 26468, Note_off_c, 0, 65, 64
2, 26551, Note_on_c, 0, 68, 67
2, 26552, Note_on_c, 0, 49, 52
2, 26558, Control_c, 0, 64, 0
2, 26558, Control_c, 0, 64, 0
2, 26561, Note_off_c, 0, 66, 64
2, 26561, Note_on_c, 0, 53, 52
2, 26567, Note_on_c, 0, 59, 50
2, 26568, Note_off_c, 0, 56, 64
2, 26596, Note_off_c, 0, 59, 64
2, 26600, Control_c, 0, 64, 127
2, 26600, Control_c, 0, 64, 127
2, 26604, Note_off_c, 0, 53, 64
2, 26614, Note_off_c, 0, 49, 64
2, 26718, Note_on_c, 0, 62, 55
2, 26727, Note_off_c, 0, 68, 64
2, 26757, Note_on_c, 0, 61, 66
2, 26762, Note_on_c, 0, 42, 57
2, 26764, Control_c, 0, 64, 0
2, 26764, Control_c, 0, 64, 0
2, 26787, Note_off_c, 0, 62, 64
2, 26829, Control_c, 0, 64, 127
2, 26829, Control_c, 0, 64, 127
2, 26916, Note_on_c, 0, 66, 52
2, 26937, Note_off_c, 0, 61, 64
2, 26956, Note_on_c, 0, 61, 55
2, 26958, Note_on_c, 0, 54, 59
2, 26958, Control_c, 0, 64, 0
2, 26958, Control_c, 0, 64, 0
2, 26963, Note_on_c, 0, 69, 65
2, 26973, Note_off_c, 0, 42, 64
2, 26987, Note_off_c, 0, 66, 64
2, 27000, Note_off_c, 0, 61, 64
2, 27002, Note_off_c, 0, 54, 64
2, 27072, Control_c, 0, 64, 127
2, 27072, Control_c, 0, 64, 127
2, 27162, Note_off_c, 0, 69, 64
2, 27180, Note_on_c, 0, 54, 58
2, 27184, Note_on_c, 0, 66, 61
2, 27187, Note_on_c, 0, 69, 62
2, 27187, Note_on_c, 0, 61, 57
2, 27212, Note_off_c, 0, 54, 64
2, 27212, Control_c, 0, 64, 127
2, 27212, Control_c, 0, 64, 127
2, 27216, Note_off_c, 0, 61, 64
2, 27386, Control_c, 0, 64, 0
2, 27386, Control_c, 0, 64, 0
2, 27396, Note_on_c, 0, 40, 59
2, 27434, Control_c, 0, 64, 127
2, 27434, Control_c, 0, 64, 127
2, 27510, Note_on_c, 0, 71, 55
2, 27524, Note_off_c, 0, 69, 64
2, 27544, Note_off_c, 0, 66, 64
2, 27557, Note_on_c, 0, 69, 45
2, 27572, Note_off_c, 0, 71, 64
2, 27589, Note_on_c, 0, 64, 36
2, 27595, Note_on_c, 0, 52, 39
2, 27596, Note_on_c, 0, 68, 66
2, 27596, Note_on_c, 0, 59, 54
2, 27607, Note_off_c, 0, 40, 64
2, 27610, Note_off_c, 0, 69, 64
2, 27613, Control_c, 0, 64, 0
2, 27613, Control_c, 0, 64, 0
2, 27647, Note_off_c, 0, 59, 64
2, 27648, Note_off_c, 0, 52, 64
2, 27648, Control_c, 0, 64, 127
2, 27648, Control_c, 0, 64, 127
2, 27672, Note_off_c, 0, 64, 64
2, 27703, Note_on_c, 0, 69, 58
2, 27730, Note_off_c, 0, 68, 64
2, 27785, Note_on_c, 0, 62, 56
2, 27789, Note_on_c, 0, 71, 66
2, 27792, Control_c, 0, 64, 0
2, 27792, Control_c, 0, 64, 0
2, 27800, Note_on_c, 0, 52, 70
2, 27812, Note_off_c, 0, 69, 64
2, 27824, Control_c, 0, 64, 127
2, 27824, Control_c, 0, 64, 127
2, 27844, Note_off_c, 0, 52, 64
2, 27919, Note_on_c, 0, 66, 63
2, 27926, Note_off_c, 0, 71, 64
2, 27955, Note_off_c, 0, 62, 64
2, 27964, Control_c, 0, 64, 0
2, 27964, Control_c, 0, 64, 0
2, 27973, Note_on_c, 0, 64, 58
2, 27975, Note_on_c, 0, 45, 59
2, 28012, Control_c, 0, 64, 127
2, 28012, Control_c, 0, 64, 127
2, 28020, Note_off_c, 0, 66, 64
2, 28119, Note_on_c, 0, 69, 36
2, 28138, Note_off_c, 0, 64, 64
2, 28145, Control_c, 0, 64, 0
2, 28145, Control_c, 0, 64, 0
2, 28156, Note_on_c, 0, 73, 72
2, 28156, Note_on_c, 0, 61, 35
2, 28160, Note_on_c, 0, 57, 58
2, 28170, Note_off_c, 0, 45, 64
2, 28178, Note_off_c, 0, 69, 64
2, 28185, Control_c, 0, 64, 127
2, 28185, Control_c, 0, 64, 127
2, 28200, Note_off_c, 0, 61, 64
2, 28204, Note_off_c, 0, 57, 64
2, 28345, Control_c, 0, 64, 0
2, 28345, Control_c, 0, 64, 0
2, 28355, Note_off_c, 0, 73, 64
2, 28375, Note_on_c, 0, 73, 80
2, 28378, Note_on_c, 0, 57, 57
2, 28380, Note_on_c, 0, 64, 55
2, 28434, Control_c, 0, 64, 127
2, 28434, Control_c, 0, 64, 127
2, 28486, Note_off_c, 0, 57, 64
2, 28508, Note_off_c, 0, 64, 64
2, 28577, Note_on_c, 0, 57, 57
2, 28580, Note_on_c, 0, 63, 48
2, 28587, Note_on_c, 0, 66, 44
2, 28600, Control_c, 0, 64, 0
2, 28600, Control_c, 0, 64, 0
2, 28642, Control_c, 0, 64, 127
2, 28642, Control_c, 0, 64, 127
2, 28699, Note_on_c, 0, 75, 53
2, 28705, Note_off_c, 0, 73, 64
2, 28744, Note_on_c, 0, 73, 65
2, 28761, Note_off_c, 0, 75, 64
2, 28792, Note_on_c, 0, 72, 61
2, 28793, Note_on_c, 0, 56, 61
2, 28797, Note_off_c, 0, 57, 64
2, 28803, Control_c, 0, 64, 0
2, 28803, Control_c, 0, 64, 0
2, 28806, Note_off_c, 0, 73, 64
2, 28855, Control_c, 0, 64, 127
2, 28855, Control_c, 0, 64, 127
2, 28911, Note_off_c, 0, 72, 64
2, 28920, Note_on_c, 0, 68, 57
2, 28979, Note_on_c, 0, 71, 66
2, 28985, Note_on_c, 0, 65, 54
2, 28985, Note_on_c, 0, 61, 58
2, 28989, Note_off_c, 0, 63, 64
2, 28993, Note_off_c, 0, 68, 64
2, 28996, Note_off_c, 0, 66, 64
2, 29003, Control_c, 0, 64, 0
2, 29003, Control_c, 0, 64, 0
2, 29038, Control_c, 0, 64, 127
2, 29038, Control_c, 0, 64, 127
2, 29177, Note_off_c, 0, 61, 64
2, 29182, Note_on_c, 0, 55, 54
2, 29190, Note_on_c, 0, 64, 57
2, 29190, Note_on_c, 0, 61, 52
2, 29199, Control_c, 0, 64, 0
2, 29199, Control_c, 0, 64, 0
2, 29201, Note_off_c, 0, 65, 64
2, 29210, Note_off_c, 0, 56, 64
2, 29244, Control_c, 0, 64, 127
2, 29244, Control_c, 0, 64, 127
2, 29310, Note_on_c, 0, 73, 57
2, 29321, Note_off_c, 0, 71, 64
2, 29344, Note_on_c, 0, 71, 59
2, 29364, Note_off_c, 0, 73, 64
2, 29376, Control_c, 0, 64, 0
2, 29376, Control_c, 0, 64, 0
2, 29387, Note_on_c, 0, 70, 52
2, 29387, Note_on_c, 0, 54, 58
2, 29401, Note_off_c, 0, 71, 64
2, 29401, Note_off_c, 0, 55, 64
2, 29449, Control_c, 0, 64, 127
2, 29449, Control_c, 0, 64, 127
2, 29522, Note_on_c, 0, 66, 66
2, 29533, Note_off_c, 0, 70, 64
2, 29572, Note_on_c, 0, 69, 63
2, 29576, Note_on_c, 0, 60, 54
2, 29578, Note_off_c, 0, 66, 64
2, 29578, Note_on_c, 0, 63, 48
2, 29597, Control_c, 0, 64, 0
2, 29597, Control_c, 0, 64, 0
2, 29600, Note_off_c, 0, 61, 64
2, 29600, Note_off_c, 0, 64, 64
2, 29630, Control_c, 0, 64, 127
2, 29630, Control_c, 0, 64, 127
2, 29778, Control_c, 0, 64, 0
2, 29778, Control_c, 0, 64, 0
2, 29783, Note_on_c, 0, 59, 45
2, 29783, Note_on_c, 0, 53, 52
2, 29784, Note_on_c, 0, 62, 55
2, 29789, Note_off_c, 0, 60, 64
2, 29791, Note_off_c, 0, 63, 64
2, 29794, Note_off_c, 0, 54, 64
2, 29835, Control_c, 0, 64, 127
2, 29835, Control_c, 0, 64, 127
2, 29906, Note_on_c, 0, 71, 55
2, 29920, Note_off_c, 0, 69, 64
2, 29945, Note_on_c, 0, 69, 54
2, 29965, Note_off_c, 0, 71, 64
2, 29978, Note_on_c, 0, 68, 63
2, 29984, Note_on_c, 0, 52, 61
2, 29991, Control_c, 0, 64, 0
2, 29991, Control_c, 0, 64, 0
2, 29996, Note_off_c, 0, 53, 64
2, 30006, Note_off_c, 0, 69, 64
2, 30027, Control_c, 0, 64, 127
2, 30027, Control_c, 0, 64, 127
2, 30113, Note_off_c, 0, 68, 64
2, 30113, Note_on_c, 0, 64, 54
2, 30174, Note_on_c, 0, 67, 70
2, 30175, Note_on_c, 0, 61, 61
2, 30176, Note_on_c, 0, 58, 65
2, 30181, Note_off_c, 0, 62, 64
2, 30189, Control_c, 0, 64, 0
2, 30189, Control_c, 0, 64, 0
2, 30195, Note_off_c, 0, 64, 64
2, 30196, Note_off_c, 0, 59, 64
2, 30223, Control_c, 0, 64, 127
2, 30223, Control_c, 0, 64, 127
2, 30374, Note_on_c, 0, 51, 65
2, 30379, Note_off_c, 0, 61, 64
2, 30383, Note_off_c, 0, 52, 64
2, 30383, Note_on_c, 0, 61, 70
2, 30384, Note_on_c, 0, 57, 66
2, 30391, Note_off_c, 0, 58, 64
2, 30396, Control_c, 0, 64, 0
2, 30396, Control_c, 0, 64, 0
2, 30429, Control_c, 0, 64, 127
2, 30429, Control_c, 0, 64, 127
2, 30521, Note_on_c, 0, 69, 52
2, 30529, Note_off_c, 0, 67, 64
2, 30559, Note_on_c, 0, 67, 62
2, 30577, Note_off_c, 0, 69, 64
2, 30591, Note_on_c, 0, 50, 66
2, 30597, Note_on_c, 0, 66, 72
2, 30603, Control_c, 0, 64, 0
2, 30603, Control_c, 0, 64, 0
2, 30619, Note_off_c, 0, 51, 64
2, 30622, Note_off_c, 0, 67, 64
2, 30645, Control_c, 0, 64, 127
2, 30645, Control_c, 0, 64, 127
2, 30714, Note_on_c, 0, 62, 61
2, 30726, Note_off_c, 0, 66, 64
2, 30750, Note_off_c, 0, 61, 64
2, 30823, Control_c, 0, 64, 0
2, 30823, Control_c, 0, 64, 0
2, 30830, Note_on_c, 0, 66, 76
2, 30833, Note_off_c, 0, 62, 64
2, 30838, Note_on_c, 0, 59, 61
2, 30838, Note_on_c, 0, 56, 65
2, 30843, Note_off_c, 0, 57, 64
2, 30866, Control_c, 0, 64, 127
2, 30866, Control_c, 0, 64, 127
2, 31098, Note_on_c, 0, 37, 66
2, 31103, Note_off_c, 0, 56, 64
2, 31103, Note_off_c, 0, 59, 64
2, 31103, Note_on_c, 0, 49, 72
2, 31109, Note_off_c, 0, 50, 64
2, 31113, Control_c, 0, 64, 0
2, 31113, Control_c, 0, 64, 0
2, 31162, Control_c, 0, 64, 127
2, 31162, Control_c, 0, 64, 127
2, 31267, Note_on_c, 0, 68, 52
2, 31276, Note_off_c, 0, 66, 64
2, 31298, Note_on_c, 0, 66, 66
2, 31309, Note_off_c, 0, 37, 64
2, 31314, Note_off_c, 0, 49, 64
2, 31327, Note_off_c, 0, 68, 64
2, 31337, Note_on_c, 0, 56, 65
2, 31343, Note_on_c, 0, 49, 58
2, 31349, Note_on_c, 0, 65, 66
2, 31349, Note_on_c, 0, 59, 59
2, 31359, Note_off_c, 0, 66, 64
2, 31360, Control_c, 0, 64, 0
2, 31360, Control_c, 0, 64, 0
2, 31395, Control_c, 0, 64, 127
2, 31395, Control_c, 0, 64, 127
2, 31405, Note_off_c, 0, 49, 64
2, 31422, Note_off_c, 0, 59, 64
2, 31427, Note_off_c, 0, 56, 64
2, 31452, Note_on_c, 0, 66, 55
2, 31460, Note_off_c, 0, 65, 64
2, 31560, Note_on_c, 0, 68, 70
2, 31560, Note_on_c, 0, 49, 59
2, 31560, Control_c, 0, 64, 0
2, 31560, Control_c, 0, 64, 0
2, 31569, Note_off_c, 0, 66, 64
2, 31569, Note_on_c, 0, 59, 66
2, 31569, Note_on_c, 0, 53, 59
2, 31601, Control_c, 0, 64, 127
2, 31601, Control_c, 0, 64, 127
2, 31607, Note_off_c, 0, 59, 64
2, 31616, Note_off_c, 0, 53, 64
2, 31627, Note_off_c, 0, 49, 64
2, 31706, Note_on_c, 0, 62, 57
2, 31729, Note_off_c, 0, 68, 64
2, 31753, Control_c, 0, 64, 0
2, 31753, Control_c, 0, 64, 0
2, 31759, Note_on_c, 0, 61, 70
2, 31764, Note_on_c, 0, 42, 58
2, 31785, Note_off_c, 0, 62, 64
2, 31823, Control_c, 0, 64, 127
2, 31823, Control_c, 0, 64, 127
2, 31919, Note_on_c, 0, 66, 58
2, 31941, Note_off_c, 0, 61, 64
2, 31951, Control_c, 0, 64, 0
2, 31951, Control_c, 0, 64, 0
2, 31952, Note_on_c, 0, 61, 55
2, 31957, Note_on_c, 0, 54, 63
2, 31959, Note_on_c, 0, 69, 66
2, 31975, Note_off_c, 0, 42, 64
2, 31990, Note_off_c, 0, 66, 64
2, 31996, Note_off_c, 0, 61, 64
2, 32001, Note_off_c, 0, 54, 64
2, 32001, Control_c, 0, 64, 127
2, 32001, Control_c, 0, 64, 127
2, 32056, Control_c, 0, 64, 0
2, 32056, Control_c, 0, 64, 0
2, 32080, Control_c, 0, 64, 127
2, 32080, Control_c, 0, 64, 127
2, 32158, Note_off_c, 0, 69, 64
2, 32185, Note_on_c, 0, 69, 66
2, 32185, Note_on_c, 0, 66, 65
2, 32190, Note_on_c, 0, 61, 65
2, 32194, Note_on_c, 0, 54, 62
2, 32208, Control_c, 0, 64, 127
2, 32208, Control_c, 0, 64, 127
2, 32224, Note_off_c, 0, 61, 64
2, 32236, Note_off_c, 0, 54, 64
2, 32397, Note_on_c, 0, 40, 70
2, 32401, Control_c, 0, 64, 0
2, 32401, Control_c, 0, 64, 0
2, 32442, Control_c, 0, 64, 127
2, 32442, Control_c, 0, 64, 127
2, 32525, Note_on_c, 0, 71, 50
2, 32545, Note_off_c, 0, 69, 64
2, 32561, Note_off_c, 0, 66, 64
2, 32563, Note_on_c, 0, 69, 62
2, 32583, Note_off_c, 0, 71, 64
2, 32596, Control_c, 0, 64, 0
2, 32596, Control_c, 0, 64, 0
2, 32602, Note_on_c, 0, 64, 35
2, 32603, Note_on_c, 0, 68, 70
2, 32608, Note_off_c, 0, 40, 64
2, 32608, Note_on_c, 0, 52, 42
2, 32609, Note_on_c, 0, 59, 52
2, 32617, Note_off_c, 0, 69, 64
2, 32649, Control_c, 0, 64, 127
2, 32649, Control_c, 0, 64, 127
2, 32658, Note_off_c, 0, 59, 64
2, 32662, Note_off_c, 0, 52, 64
2, 32706, Note_off_c, 0, 64, 64
2, 32706, Note_on_c, 0, 69, 53
2, 32714, Note_off_c, 0, 68, 64
2, 32783, Control_c, 0, 64, 0
2, 32783, Control_c, 0, 64, 0
2, 32796, Note_on_c, 0, 71, 63
2, 32796, Note_on_c, 0, 62, 61
2, 32806, Note_on_c, 0, 52, 58
2, 32812, Note_off_c, 0, 69, 64
2, 32849, Note_off_c, 0, 52, 64
2, 32851, Control_c, 0, 64, 127
2, 32851, Control_c, 0, 64, 127
2, 32928, Note_on_c, 0, 66, 52
2, 32956, Note_off_c, 0, 71, 64
2, 32976, Note_on_c, 0, 64, 66
2, 32989, Note_on_c, 0, 45, 59
2, 32995, Control_c, 0, 64, 0
2, 32995, Control_c, 0, 64, 0
2, 33012, Note_off_c, 0, 66, 64
2, 33040, Control_c, 0, 64, 127
2, 33040, Control_c, 0, 64, 127
2, 33134, Note_on_c, 0, 69, 48
2, 33145, Control_c, 0, 64, 0
2, 33145, Control_c, 0, 64, 0
2, 33152, Note_off_c, 0, 64, 64
2, 33164, Note_on_c, 0, 61, 31
2, 33164, Note_on_c, 0, 57, 58
2, 33167, Note_on_c, 0, 73, 71
2, 33179, Note_off_c, 0, 62, 64
2, 33186, Control_c, 0, 64, 127
2, 33186, Control_c, 0, 64, 127
2, 33192, Note_off_c, 0, 45, 64
2, 33195, Note_off_c, 0, 69, 64
2, 33203, Control_c, 0, 64, 0
2, 33203, Control_c, 0, 64, 0
2, 33208, Note_off_c, 0, 57, 64
2, 33208, Note_off_c, 0, 61, 64
2, 33250, Control_c, 0, 64, 127
2, 33250, Control_c, 0, 64, 127
2, 33294, Control_c, 0, 64, 0
2, 33294, Control_c, 0, 64, 0
2, 33366, Note_off_c, 0, 73, 64
2, 33384, Note_on_c, 0, 64, 58
2, 33386, Note_on_c, 0, 73, 66
2, 33390, Note_on_c, 0, 57, 59
2, 33417, Control_c, 0, 64, 127
2, 33417, Control_c, 0, 64, 127
2, 33538, Note_off_c, 0, 64, 64
2, 33644, Note_on_c, 0, 50, 39
2, 33647, Note_on_c, 0, 76, 65
2, 33656, Note_on_c, 0, 65, 44
2, 33669, Note_off_c, 0, 73, 64
2, 33675, Control_c, 0, 64, 0
2, 33675, Control_c, 0, 64, 0
2, 33728, Control_c, 0, 64, 127
2, 33728, Control_c, 0, 64, 127
2, 33772, Note_off_c, 0, 50, 64
2, 33800, Note_off_c, 0, 76, 64
2, 33803, Note_on_c, 0, 74, 55
2, 33823, Note_off_c, 0, 65, 64
2, 33839, Note_off_c, 0, 57, 64
2, 33840, Note_on_c, 0, 73, 55
2, 33868, Note_off_c, 0, 74, 64
2, 33885, Note_on_c, 0, 57, 44
2, 33888, Note_on_c, 0, 71, 58
2, 33888, Note_on_c, 0, 65, 42
2, 33888, Note_on_c, 0, 50, 37
2, 33905, Control_c, 0, 64, 0
2, 33905, Control_c, 0, 64, 0
2, 33916, Note_off_c, 0, 73, 64
2, 33948, Control_c, 0, 64, 127
2, 33948, Control_c, 0, 64, 127
2, 33960, Note_off_c, 0, 50, 64
2, 33966, Note_off_c, 0, 57, 64
2, 33999, Note_off_c, 0, 65, 64
2, 34105, Note_on_c, 0, 73, 59
2, 34114, Note_on_c, 0, 64, 50
2, 34120, Note_off_c, 0, 71, 64
2, 34120, Note_on_c, 0, 57, 52
2, 34120, Note_on_c, 0, 45, 55
2, 34136, Control_c, 0, 64, 0
2, 34136, Control_c, 0, 64, 0
2, 34190, Control_c, 0, 64, 127
2, 34190, Control_c, 0, 64, 127
2, 34248, Note_off_c, 0, 64, 64
2, 34284, Note_off_c, 0, 45, 64
2, 34348, Note_on_c, 0, 65, 55
2, 34356, Note_on_c, 0, 76, 59
2, 34361, Note_on_c, 0, 50, 52
2, 34365, Control_c, 0, 64, 0
2, 34365, Control_c, 0, 64, 0
2, 34370, Note_off_c, 0, 73, 64
2, 34409, Control_c, 0, 64, 127
2, 34409, Control_c, 0, 64, 127
2, 34464, Note_off_c, 0, 57, 64
2, 34465, Note_off_c, 0, 50, 64
2, 34500, Note_off_c, 0, 76, 64
2, 34510, Note_on_c, 0, 74, 48
2, 34529, Note_off_c, 0, 65, 64
2, 34541, Note_on_c, 0, 73, 66
2, 34574, Note_off_c, 0, 74, 64
2, 34597, Note_on_c, 0, 71, 53
2, 34597, Note_on_c, 0, 65, 53
2, 34603, Note_on_c, 0, 57, 55
2, 34603, Note_on_c, 0, 50, 58
2, 34619, Note_off_c, 0, 73, 64
2, 34620, Control_c, 0, 64, 0
2, 34620, Control_c, 0, 64, 0
2, 34651, Control_c, 0, 64, 127
2, 34651, Control_c, 0, 64, 127
2, 34692, Note_off_c, 0, 50, 64
2, 34701, Note_off_c, 0, 65, 64
2, 34821, Note_on_c, 0, 73, 61
2, 34824, Note_on_c, 0, 64, 55
2, 34829, Note_on_c, 0, 45, 52
2, 34834, Note_off_c, 0, 71, 64
2, 34851, Control_c, 0, 64, 0
2, 34851, Control_c, 0, 64, 0
2, 34896, Control_c, 0, 64, 127
2, 34896, Control_c, 0, 64, 127
2, 34930, Note_off_c, 0, 64, 64
2, 35095, Note_off_c, 0, 45, 64
2, 35100, Note_on_c, 0, 66, 44
2, 35107, Note_off_c, 0, 73, 64
2, 35107, Note_on_c, 0, 76, 65
2, 35120, Note_on_c, 0, 50, 27
2, 35140, Control_c, 0, 64, 0
2, 35140, Control_c, 0, 64, 0
2, 35185, Control_c, 0, 64, 127
2, 35185, Control_c, 0, 64, 127
2, 35247, Note_off_c, 0, 50, 64
2, 35276, Note_on_c, 0, 74, 46
2, 35288, Note_off_c, 0, 76, 64
2, 35313, Note_on_c, 0, 73, 55
2, 35329, Note_off_c, 0, 74, 64
2, 35362, Note_on_c, 0, 56, 53
2, 35368, Note_on_c, 0, 71, 58
2, 35384, Note_off_c, 0, 73, 64
2, 35391, Control_c, 0, 64, 0
2, 35391, Control_c, 0, 64, 0
2, 35422, Note_off_c, 0, 57, 64
2, 35436, Control_c, 0, 64, 127
2, 35436, Control_c, 0, 64, 127
2, 35532, Note_off_c, 0, 56, 64
2, 35541, Note_off_c, 0, 66, 64
2, 35630, Note_on_c, 0, 73, 46
2, 35636, Note_on_c, 0, 61, 27
2, 35636, Note_on_c, 0, 49, 39
2, 35641, Note_on_c, 0, 65, 44
2, 35646, Note_off_c, 0, 71, 64
2, 35663, Control_c, 0, 64, 0
2, 35663, Control_c, 0, 64, 0
2, 35706, Control_c, 0, 64, 127
2, 35706, Control_c, 0, 64, 127
2, 35728, Note_off_c, 0, 49, 64
2, 35769, Note_off_c, 0, 61, 64
2, 35787, Note_off_c, 0, 65, 64
2, 35914, Note_on_c, 0, 54, 26
2, 35915, Note_on_c, 0, 71, 46
2, 35915, Note_on_c, 0, 66, 37
2, 35921, Note_off_c, 0, 73, 64
2, 35927, Note_on_c, 0, 62, 29
2, 35943, Control_c, 0, 64, 0
2, 35943, Control_c, 0, 64, 0
2, 35974, Control_c, 0, 64, 127
2, 35974, Control_c, 0, 64, 127
2, 36031, Note_on_c, 0, 69, 29
2, 36033, Note_on_c, 0, 61, 33
2, 36041, Note_off_c, 0, 71, 64
2, 36098, Note_off_c, 0, 66, 64
2, 36108, Note_on_c, 0, 68, 39
2, 36116, Note_off_c, 0, 69, 64
2, 36130, Note_on_c, 0, 59, 37
2, 36137, Note_off_c, 0, 61, 64
2, 36137, Note_off_c, 0, 62, 64
2, 36192, Note_on_c, 0, 66, 39
2, 36201, Control_c, 0, 64, 0
2, 36201, Control_c, 0, 64, 0
2, 36212, Note_off_c, 0, 68, 64
2, 36215, Note_off_c, 0, 59, 64
2, 36216, Note_on_c, 0, 57, 22
2, 36222, Note_off_c, 0, 54, 64
2, 36291, Control_c, 0, 64, 127
2, 36291, Control_c, 0, 64, 127
2, 36341, Note_off_c, 0, 66, 64
2, 36480, Note_off_c, 0, 57, 64
2, 36487, Note_on_c, 0, 73, 79
2, 36697, Control_c, 0, 64, 0
2, 36697, Control_c, 0, 64, 0
2, 36703, Note_off_c, 0, 73, 64
2, 36709, Note_on_c, 0, 37, 71
2, 36716, Note_on_c, 0, 85, 74
2, 36716, Note_on_c, 0, 49, 76
2, 36719, Note_on_c, 0, 73, 71
2, 36755, Control_c, 0, 64, 127
2, 36755, Control_c, 0, 64, 127
2, 36875, Note_off_c, 0, 73, 64
2, 36925, Note_on_c, 0, 56, 55
2, 36927, Note_on_c, 0, 73, 72
2, 37017, Note_off_c, 0, 73, 64
2, 37018, Note_on_c, 0, 61, 46
2, 37024, Note_on_c, 0, 68, 83
2, 37094, Note_on_c, 0, 63, 66
2, 37106, Note_on_c, 0, 72, 66
2, 37115, Note_off_c, 0, 61, 64
2, 37131, Note_off_c, 0, 68, 64
2, 37180, Note_on_c, 0, 66, 70
2, 37188, Note_on_c, 0, 74, 66
2, 37199, Note_off_c, 0, 63, 64
2, 37200, Note_off_c, 0, 72, 64
2, 37227, Note_off_c, 0, 37, 64
2, 37232, Note_off_c, 0, 49, 64
2, 37242, Note_off_c, 0, 85, 64
2, 37259, Note_off_c, 0, 66, 64
2, 37272, Note_on_c, 0, 73, 72
2, 37276, Note_on_c, 0, 65, 70
2, 37286, Control_c, 0, 64, 0
2, 37286, Control_c, 0, 64, 0
2, 37293, Note_off_c, 0, 74, 64
2, 37320, Control_c, 0, 64, 127
2, 37320, Control_c, 0, 64, 127
2, 37401, Note_on_c, 0, 63, 66
2, 37409, Note_off_c, 0, 65, 64
2, 37411, Note_on_c, 0, 72, 58
2, 37424, Note_off_c, 0, 73, 64
2, 37453, Note_on_c, 0, 71, 71
2, 37459, Note_off_c, 0, 63, 64
2, 37463, Note_on_c, 0, 62, 71
2, 37466, Note_off_c, 0, 72, 64
2, 37469, Control_c, 0, 64, 0
2, 37469, Control_c, 0, 64, 0
2, 37502, Control_c, 0, 64, 127
2, 37502, Control_c, 0, 64, 127
2, 37508, Note_off_c, 0, 71, 64
2, 37590, Note_off_c, 0, 62, 64
2, 37649, Note_off_c, 0, 56, 64
2, 37659, Note_on_c, 0, 59, 61
2, 37660, Note_on_c, 0, 71, 74
2, 37672, Control_c, 0, 64, 0
2, 37672, Control_c, 0, 64, 0
2, 37685, Control_c, 0, 64, 127
2, 37685, Control_c, 0, 64, 127
2, 37698, Note_off_c, 0, 59, 64
2, 37705, Note_off_c, 0, 71, 64
2, 37866, Note_on_c, 0, 85, 80
2, 37866, Control_c, 0, 64, 0
2, 37866, Control_c, 0, 64, 0
2, 37873, Note_on_c, 0, 73, 74
2, 37873, Note_on_c, 0, 49, 80
2, 37873, Note_on_c, 0, 37, 66
2, 37896, Control_c, 0, 64, 127
2, 37896, Control_c, 0, 64, 127
2, 38029, Note_off_c, 0, 73, 64
2, 38052, Note_on_c, 0, 56, 27
2, 38068, Note_on_c, 0, 73, 67
2, 38145, Note_off_c, 0, 73, 64
2, 38147, Note_on_c, 0, 61, 55
2, 38158, Note_on_c, 0, 68, 80
2, 38225, Note_on_c, 0, 63, 65
2, 38229, Note_off_c, 0, 61, 64
2, 38244, Note_on_c, 0, 72, 67
2, 38264, Note_off_c, 0, 68, 64
2, 38323, Note_on_c, 0, 66, 63
2, 38326, Note_on_c, 0, 74, 66
2, 38340, Note_off_c, 0, 72, 64
2, 38343, Note_off_c, 0, 63, 64
2, 38387, Note_off_c, 0, 37, 64
2, 38389, Note_off_c, 0, 49, 64
2, 38389, Note_off_c, 0, 85, 64
2, 38408, Note_off_c, 0, 66, 64
2, 38412, Note_on_c, 0, 73, 67
2, 38422, Note_on_c, 0, 65, 63
2, 38431, Note_off_c, 0, 74, 64
2, 38493, Note_on_c, 0, 72, 55
2, 38498, Note_on_c, 0, 63, 65
2, 38505, Note_off_c, 0, 73, 64
2, 38521, Note_off_c, 0, 65, 64
2, 38580, Control_c, 0, 64, 0
2, 38580, Control_c, 0, 64, 0
2, 38584, Note_on_c, 0, 80, 70
2, 38590, Note_off_c, 0, 72, 64
2, 38593, Note_off_c, 0, 63, 64
2, 38593, Note_on_c, 0, 71, 66
2, 38598, Note_on_c, 0, 62, 63
2, 38651, Control_c, 0, 64, 127
2, 38651, Control_c, 0, 64, 127
2, 38757, Note_off_c, 0, 56, 64
2, 38780, Note_on_c, 0, 59, 59
2, 38792, Note_off_c, 0, 62, 64
2, 38815, Note_off_c, 0, 59, 64
2, 38871, Note_on_c, 0, 78, 61
2, 38876, Note_off_c, 0, 80, 64
2, 38884, Note_off_c, 0, 71, 64
2, 39010, Control_c, 0, 64, 0
2, 39010, Control_c, 0, 64, 0
2, 39015, Note_on_c, 0, 85, 83
2, 39021, Note_on_c, 0, 37, 71
2, 39023, Note_on_c, 0, 77, 71
2, 39023, Note_on_c, 0, 73, 76
2, 39023, Note_on_c, 0, 49, 79
2, 39036, Note_off_c, 0, 78, 64
2, 39055, Control_c, 0, 64, 127
2, 39055, Control_c, 0, 64, 127
2, 39179, Note_off_c, 0, 73, 64
2, 39240, Note_on_c, 0, 56, 53
2, 39244, Note_on_c, 0, 73, 67
2, 39336, Note_on_c, 0, 61, 61
2, 39341, Note_off_c, 0, 73, 64
2, 39345, Note_on_c, 0, 68, 80
2, 39414, Note_on_c, 0, 63, 50
2, 39423, Note_off_c, 0, 61, 64
2, 39423, Note_on_c, 0, 72, 66
2, 39429, Note_off_c, 0, 68, 64
2, 39506, Note_on_c, 0, 74, 65
2, 39508, Note_on_c, 0, 66, 72
2, 39522, Note_off_c, 0, 72, 64
2, 39527, Note_off_c, 0, 63, 64
2, 39539, Note_off_c, 0, 37, 64
2, 39546, Note_off_c, 0, 49, 64
2, 39552, Note_off_c, 0, 85, 64
2, 39559, Note_off_c, 0, 77, 64
2, 39581, Note_off_c, 0, 66, 64
2, 39597, Note_on_c, 0, 73, 70
2, 39599, Control_c, 0, 64, 0
2, 39599, Control_c, 0, 64, 0
2, 39608, Note_on_c, 0, 65, 67
2, 39624, Note_off_c, 0, 74, 64
2, 39650, Control_c, 0, 64, 127
2, 39650, Control_c, 0, 64, 127
2, 39730, Note_off_c, 0, 65, 64
2, 39730, Note_on_c, 0, 63, 55
2, 39743, Note_on_c, 0, 72, 66
2, 39765, Note_off_c, 0, 73, 64
2, 39784, Note_on_c, 0, 71, 70
2, 39784, Note_on_c, 0, 62, 66
2, 39793, Note_off_c, 0, 63, 64
2, 39797, Note_off_c, 0, 72, 64
2, 39799, Control_c, 0, 64, 0
2, 39799, Control_c, 0, 64, 0
2, 39828, Control_c, 0, 64, 127
2, 39828, Control_c, 0, 64, 127
2, 39839, Note_off_c, 0, 71, 64
2, 39867, Note_off_c, 0, 62, 64
2, 39966, Note_off_c, 0, 56, 64
2, 39980, Note_on_c, 0, 59, 65
2, 39982, Note_on_c, 0, 71, 70
2, 40012, Note_off_c, 0, 59, 64
2, 40025, Note_off_c, 0, 71, 64
2, 40180, Control_c, 0, 64, 0
2, 40180, Control_c, 0, 64, 0
2, 40190, Note_on_c, 0, 85, 79
2, 40190, Note_on_c, 0, 37, 66
2, 40196, Note_on_c, 0, 73, 83
2, 40196, Note_on_c, 0, 49, 80
2, 40215, Control_c, 0, 64, 127
2, 40215, Control_c, 0, 64, 127
2, 40352, Note_off_c, 0, 73, 64
2, 40395, Note_on_c, 0, 56, 59
2, 40405, Note_on_c, 0, 73, 66
2, 40435, Control_c, 0, 64, 0
2, 40435, Control_c, 0, 64, 0
2, 40450, Control_c, 0, 64, 127
2, 40450, Control_c, 0, 64, 127
2, 40493, Note_off_c, 0, 73, 64
2, 40500, Note_on_c, 0, 68, 80
2, 40503, Note_on_c, 0, 61, 58
2, 40585, Note_on_c, 0, 63, 66
2, 40588, Note_on_c, 0, 72, 66
2, 40593, Note_off_c, 0, 61, 64
2, 40593, Note_off_c, 0, 68, 64
2, 40674, Note_on_c, 0, 66, 70
2, 40681, Note_on_c, 0, 74, 66
2, 40692, Note_off_c, 0, 72, 64
2, 40697, Note_off_c, 0, 63, 64
2, 40711, Note_off_c, 0, 37, 64
2, 40713, Note_off_c, 0, 85, 64
2, 40716, Note_off_c, 0, 49, 64
2, 40785, Note_on_c, 0, 73, 61
2, 40791, Note_on_c, 0, 65, 49
2, 40799, Note_off_c, 0, 74, 64
2, 40805, Note_off_c, 0, 66, 64
2, 40812, Control_c, 0, 64, 0
2, 40812, Control_c, 0, 64, 0
2, 40834, Control_c, 0, 64, 127
2, 40834, Control_c, 0, 64, 127
2, 40893, Note_on_c, 0, 63, 55
2, 40897, Note_on_c, 0, 72, 63
2, 40909, Note_off_c, 0, 65, 64
2, 40924, Note_off_c, 0, 73, 64
2, 41011, Note_on_c, 0, 71, 58
2, 41018, Note_off_c, 0, 72, 64
2, 41018, Note_on_c, 0, 62, 40
2, 41031, Note_off_c, 0, 63, 64
2, 41033, Control_c, 0, 64, 0
2, 41033, Control_c, 0, 64, 0
2, 41056, Control_c, 0, 64, 127
2, 41056, Control_c, 0, 64, 127
2, 41180, Note_on_c, 0, 61, 42
2, 41190, Note_on_c, 0, 69, 55
2, 41207, Note_off_c, 0, 62, 64
2, 41213, Note_off_c, 0, 56, 64
2, 41226, Note_off_c, 0, 71, 64
2, 41337, Note_on_c, 0, 59, 48
2, 41357, Note_off_c, 0, 61, 64
2, 41412, Note_on_c, 0, 68, 54
2, 41440, Note_off_c, 0, 69, 64
2, 41479, Control_c, 0, 64, 0
2, 41479, Control_c, 0, 64, 0
2, 41501, Note_on_c, 0, 66, 57
2, 41501, Note_on_c, 0, 57, 50
2, 41514, Note_off_c, 0, 68, 64
2, 41523, Note_off_c, 0, 59, 64
2, 41539, Control_c, 0, 64, 127
2, 41539, Control_c, 0, 64, 127
2, 41650, Note_on_c, 0, 68, 44
2, 41653, Note_off_c, 0, 66, 64
2, 41685, Note_on_c, 0, 66, 62
2, 41704, Note_off_c, 0, 68, 64
2, 41720, Note_on_c, 0, 56, 48
2, 41724, Note_on_c, 0, 65, 57
2, 41725, Note_off_c, 0, 57, 64
2, 41737, Control_c, 0, 64, 0
2, 41737, Control_c, 0, 64, 0
2, 41744, Note_off_c, 0, 66, 64
2, 41770, Control_c, 0, 64, 127
2, 41770, Control_c, 0, 64, 127
2, 41825, Note_on_c, 0, 66, 67
2, 41832, Note_off_c, 0, 65, 64
2, 41923, Control_c, 0, 64, 0
2, 41923, Control_c, 0, 64, 0
2, 41928, Note_on_c, 0, 68, 67
2, 41928, Note_on_c, 0, 49, 58
2, 41936, Note_off_c, 0, 66, 64
2, 41936, Note_on_c, 0, 53, 55
2, 41940, Note_on_c, 0, 59, 52
2, 41955, Note_off_c, 0, 56, 64
2, 41962, Control_c, 0, 64, 127
2, 41962, Control_c, 0, 64, 127
2, 41972, Note_off_c, 0, 59, 64
2, 41973, Note_off_c, 0, 53, 64
2, 41985, Note_off_c, 0, 49, 64
2, 42084, Note_on_c, 0, 62, 52
2, 42089, Note_off_c, 0, 68, 64
2, 42124, Note_on_c, 0, 61, 58
2, 42134, Note_on_c, 0, 42, 58
2, 42143, Control_c, 0, 64, 0
2, 42143, Control_c, 0, 64, 0
2, 42165, Note_off_c, 0, 62, 64
2, 42196, Control_c, 0, 64, 127
2, 42196, Control_c, 0, 64, 127
2, 42284, Note_on_c, 0, 66, 53
2, 42301, Note_off_c, 0, 61, 64
2, 42317, Note_on_c, 0, 54, 58
2, 42319, Note_on_c, 0, 69, 66
2, 42320, Note_on_c, 0, 61, 55
2, 42332, Control_c, 0, 64, 0
2, 42332, Control_c, 0, 64, 0
2, 42345, Note_off_c, 0, 42, 64
2, 42355, Note_off_c, 0, 66, 64
2, 42361, Note_off_c, 0, 54, 64
2, 42364, Note_off_c, 0, 61, 64
2, 42432, Control_c, 0, 64, 127
2, 42432, Control_c, 0, 64, 127
2, 42518, Note_off_c, 0, 69, 64
2, 42552, Note_on_c, 0, 69, 66
2, 42552, Note_on_c, 0, 66, 63
2, 42558, Note_on_c, 0, 61, 58
2, 42565, Note_on_c, 0, 54, 48
2, 42576, Control_c, 0, 64, 127
2, 42576, Control_c, 0, 64, 127
2, 42585, Note_off_c, 0, 61, 64
2, 42589, Note_off_c, 0, 54, 64
2, 42752, Note_on_c, 0, 40, 63
2, 42752, Control_c, 0, 64, 0
2, 42752, Control_c, 0, 64, 0
2, 42794, Control_c, 0, 64, 127
2, 42794, Control_c, 0, 64, 127
2, 42875, Note_on_c, 0, 71, 53
2, 42888, Note_off_c, 0, 69, 64
2, 42906, Note_off_c, 0, 66, 64
2, 42915, Note_on_c, 0, 69, 48
2, 42922, Note_off_c, 0, 71, 64
2, 42945, Note_on_c, 0, 68, 66
2, 42961, Note_on_c, 0, 64, 29
2, 42961, Note_on_c, 0, 52, 52
2, 42963, Note_off_c, 0, 40, 64
2, 42967, Note_off_c, 0, 69, 64
2, 42968, Note_on_c, 0, 59, 49
2, 42977, Control_c, 0, 64, 0
2, 42977, Control_c, 0, 64, 0
2, 43001, Note_off_c, 0, 52, 64
2, 43006, Note_off_c, 0, 59, 64
2, 43013, Control_c, 0, 64, 127
2, 43013, Control_c, 0, 64, 127
2, 43060, Note_off_c, 0, 64, 64
2, 43062, Note_on_c, 0, 69, 55
2, 43082, Note_off_c, 0, 68, 64
2, 43150, Control_c, 0, 64, 0
2, 43150, Control_c, 0, 64, 0
2, 43158, Note_on_c, 0, 71, 72
2, 43158, Note_on_c, 0, 62, 66
2, 43158, Note_on_c, 0, 52, 63
2, 43165, Note_off_c, 0, 69, 64
2, 43185, Control_c, 0, 64, 127
2, 43185, Control_c, 0, 64, 127
2, 43206, Note_off_c, 0, 52, 64
2, 43288, Note_off_c, 0, 71, 64
2, 43300, Note_on_c, 0, 66, 48
2, 43331, Note_on_c, 0, 64, 62
2, 43336, Control_c, 0, 64, 0
2, 43336, Control_c, 0, 64, 0
2, 43345, Note_on_c, 0, 45, 58
2, 43377, Note_off_c, 0, 66, 64
2, 43384, Control_c, 0, 64, 127
2, 43384, Control_c, 0, 64, 127
2, 43464, Note_on_c, 0, 69, 48
2, 43491, Note_off_c, 0, 64, 64
2, 43507, Control_c, 0, 64, 0
2, 43507, Control_c, 0, 64, 0
2, 43512, Note_on_c, 0, 61, 58
2, 43516, Note_on_c, 0, 57, 55
2, 43517, Note_on_c, 0, 73, 74
2, 43518, Note_off_c, 0, 69, 64
2, 43525, Note_off_c, 0, 62, 64
2, 43540, Note_off_c, 0, 45, 64
2, 43556, Note_off_c, 0, 61, 64
2, 43557, Control_c, 0, 64, 127
2, 43557, Control_c, 0, 64, 127
2, 43560, Note_off_c, 0, 57, 64
2, 43651, Control_c, 0, 64, 0
2, 43651, Control_c, 0, 64, 0
2, 43701, Control_c, 0, 64, 127
2, 43701, Control_c, 0, 64, 127
2, 43712, Note_on_c, 0, 64, 58
2, 43715, Control_c, 0, 64, 0
2, 43715, Control_c, 0, 64, 0
2, 43716, Note_off_c, 0, 73, 64
2, 43716, Note_on_c, 0, 57, 55
2, 43723, Note_on_c, 0, 73, 85
2, 43770, Control_c, 0, 64, 127
2, 43770, Control_c, 0, 64, 127
2, 43919, Note_off_c, 0, 57, 64
2, 43933, Note_off_c, 0, 64, 64
2, 43933, Note_on_c, 0, 57, 59
2, 43935, Note_on_c, 0, 63, 58
2, 43940, Note_on_c, 0, 66, 59
2, 43950, Control_c, 0, 64, 0
2, 43950, Control_c, 0, 64, 0
2, 43993, Control_c, 0, 64, 127
2, 43993, Control_c, 0, 64, 127
2, 44034, Note_off_c, 0, 73, 64
2, 44044, Note_on_c, 0, 75, 55
2, 44086, Note_on_c, 0, 73, 61
2, 44103, Note_off_c, 0, 75, 64
2, 44126, Note_on_c, 0, 72, 66
2, 44132, Note_on_c, 0, 56, 66
2, 44144, Note_off_c, 0, 57, 64
2, 44147, Note_off_c, 0, 73, 64
2, 44154, Control_c, 0, 64, 0
2, 44154, Control_c, 0, 64, 0
2, 44198, Control_c, 0, 64, 127
2, 44198, Control_c, 0, 64, 127
2, 44257, Note_off_c, 0, 72, 64
2, 44260, Note_on_c, 0, 68, 63
2, 44320, Note_on_c, 0, 71, 63
2, 44328, Note_on_c, 0, 65, 58
2, 44328, Note_on_c, 0, 61, 58
2, 44335, Note_off_c, 0, 68, 64
2, 44342, Note_off_c, 0, 63, 64
2, 44345, Control_c, 0, 64, 0
2, 44345, Control_c, 0, 64, 0
2, 44347, Note_off_c, 0, 66, 64
2, 44376, Control_c, 0, 64, 127
2, 44376, Control_c, 0, 64, 127
2, 44519, Note_off_c, 0, 61, 64
2, 44525, Note_on_c, 0, 55, 59
2, 44530, Note_on_c, 0, 64, 58
2, 44530, Note_on_c, 0, 61, 50
2, 44537, Note_off_c, 0, 65, 64
2, 44542, Control_c, 0, 64, 0
2, 44542, Control_c, 0, 64, 0
2, 44554, Note_off_c, 0, 56, 64
2, 44587, Control_c, 0, 64, 127
2, 44587, Control_c, 0, 64, 127
2, 44646, Note_off_c, 0, 71, 64
2, 44646, Note_on_c, 0, 73, 57
2, 44685, Note_on_c, 0, 71, 58
2, 44707, Note_off_c, 0, 73, 64
2, 44719, Control_c, 0, 64, 0
2, 44719, Control_c, 0, 64, 0
2, 44722, Note_on_c, 0, 54, 61
2, 44729, Note_on_c, 0, 70, 53
2, 44735, Note_off_c, 0, 55, 64
2, 44744, Note_off_c, 0, 71, 64
2, 44782, Control_c, 0, 64, 127
2, 44782, Control_c, 0, 64, 127
2, 44856, Note_on_c, 0, 66, 66
2, 44864, Note_off_c, 0, 70, 64
2, 44914, Note_on_c, 0, 69, 57
2, 44914, Note_on_c, 0, 63, 54
2, 44919, Note_on_c, 0, 60, 57
2, 44924, Control_c, 0, 64, 0
2, 44924, Control_c, 0, 64, 0
2, 44925, Note_off_c, 0, 61, 64
2, 44925, Note_off_c, 0, 64, 64
2, 44928, Note_off_c, 0, 66, 64
2, 44978, Control_c, 0, 64, 127
2, 44978, Control_c, 0, 64, 127
2, 45108, Note_on_c, 0, 62, 53
2, 45114, Note_on_c, 0, 53, 48
2, 45115, Note_on_c, 0, 59, 50
2, 45121, Note_off_c, 0, 63, 64
2, 45123, Note_off_c, 0, 54, 64
2, 45126, Note_off_c, 0, 60, 64
2, 45131, Control_c, 0, 64, 0
2, 45131, Control_c, 0, 64, 0
2, 45177, Control_c, 0, 64, 127
2, 45177, Control_c, 0, 64, 127
2, 45232, Note_on_c, 0, 71, 53
2, 45241, Note_off_c, 0, 69, 64
2, 45265, Note_on_c, 0, 69, 58
2, 45279, Note_off_c, 0, 71, 64
2, 45291, Note_on_c, 0, 68, 63
2, 45305, Note_on_c, 0, 52, 58
2, 45311, Note_off_c, 0, 53, 64
2, 45316, Control_c, 0, 64, 0
2, 45316, Control_c, 0, 64, 0
2, 45320, Note_off_c, 0, 69, 64
2, 45367, Control_c, 0, 64, 127
2, 45367, Control_c, 0, 64, 127
2, 45418, Note_on_c, 0, 64, 48
2, 45420, Note_off_c, 0, 68, 64
2, 45490, Note_on_c, 0, 67, 72
2, 45492, Note_on_c, 0, 58, 58
2, 45495, Note_on_c, 0, 61, 58
2, 45500, Note_off_c, 0, 62, 64
2, 45501, Control_c, 0, 64, 0
2, 45501, Control_c, 0, 64, 0
2, 45507, Note_off_c, 0, 59, 64
2, 45515, Note_off_c, 0, 64, 64
2, 45559, Control_c, 0, 64, 127
2, 45559, Control_c, 0, 64, 127
2, 45671, Note_off_c, 0, 61, 64
2, 45683, Note_on_c, 0, 61, 57
2, 45684, Note_on_c, 0, 57, 55
2, 45685, Note_on_c, 0, 51, 53
2, 45701, Note_off_c, 0, 58, 64
2, 45705, Control_c, 0, 64, 0
2, 45705, Control_c, 0, 64, 0
2, 45718, Note_off_c, 0, 52, 64
2, 45759, Control_c, 0, 64, 127
2, 45759, Control_c, 0, 64, 127
2, 45816, Note_on_c, 0, 69, 54
2, 45832, Note_off_c, 0, 67, 64
2, 45857, Note_on_c, 0, 67, 55
2, 45871, Note_off_c, 0, 69, 64
2, 45886, Control_c, 0, 64, 0
2, 45886, Control_c, 0, 64, 0
2, 45892, Note_on_c, 0, 50, 58
2, 45894, Note_on_c, 0, 66, 70
2, 45904, Note_off_c, 0, 51, 64
2, 45913, Note_off_c, 0, 67, 64
2, 45955, Control_c, 0, 64, 127
2, 45955, Control_c, 0, 64, 127
2, 45998, Note_on_c, 0, 62, 57
2, 46006, Note_off_c, 0, 66, 64
2, 46050, Note_off_c, 0, 61, 64
2, 46111, Note_on_c, 0, 66, 76
2, 46113, Control_c, 0, 64, 0
2, 46113, Control_c, 0, 64, 0
2, 46119, Note_on_c, 0, 56, 65
2, 46120, Note_on_c, 0, 59, 62
2, 46121, Note_off_c, 0, 57, 64
2, 46132, Note_off_c, 0, 62, 64
2, 46145, Control_c, 0, 64, 127
2, 46145, Control_c, 0, 64, 127
2, 46329, Note_off_c, 0, 56, 64
2, 46330, Note_off_c, 0, 59, 64
2, 46342, Control_c, 0, 64, 0
2, 46342, Control_c, 0, 64, 0
2, 46346, Note_on_c, 0, 37, 66
2, 46350, Note_on_c, 0, 49, 72
2, 46360, Note_off_c, 0, 50, 64
2, 46400, Control_c, 0, 64, 127
2, 46400, Control_c, 0, 64, 127
2, 46500, Note_off_c, 0, 66, 64
2, 46506, Note_on_c, 0, 68, 54
2, 46543, Note_on_c, 0, 66, 70
2, 46557, Note_off_c, 0, 37, 64
2, 46561, Note_off_c, 0, 49, 64
2, 46566, Note_off_c, 0, 68, 64
2, 46573, Note_on_c, 0, 49, 59
2, 46574, Note_on_c, 0, 59, 62
2, 46577, Note_on_c, 0, 56, 61
2, 46578, Control_c, 0, 64, 0
2, 46578, Control_c, 0, 64, 0
2, 46584, Note_on_c, 0, 65, 63
2, 46595, Note_off_c, 0, 66, 64
2, 46628, Control_c, 0, 64, 127
2, 46628, Control_c, 0, 64, 127
2, 46636, Note_off_c, 0, 49, 64
2, 46640, Note_off_c, 0, 56, 64
2, 46642, Note_off_c, 0, 59, 64
2, 46678, Note_on_c, 0, 66, 71
2, 46688, Note_off_c, 0, 65, 64
2, 46771, Control_c, 0, 64, 0
2, 46771, Control_c, 0, 64, 0
2, 46777, Note_on_c, 0, 68, 63
2, 46777, Note_on_c, 0, 49, 58
2, 46786, Note_on_c, 0, 59, 62
2, 46786, Note_on_c, 0, 53, 58
2, 46789, Note_off_c, 0, 66, 64
2, 46824, Note_off_c, 0, 59, 64
2, 46826, Note_off_c, 0, 53, 64
2, 46827, Control_c, 0, 64, 127
2, 46827, Control_c, 0, 64, 127
2, 46838, Note_off_c, 0, 49, 64
2, 46919, Note_on_c, 0, 62, 54
2, 46932, Note_off_c, 0, 68, 64
2, 46967, Note_on_c, 0, 61, 63
2, 46976, Note_on_c, 0, 42, 59
2, 46980, Control_c, 0, 64, 0
2, 46980, Control_c, 0, 64, 0
2, 46999, Note_off_c, 0, 62, 64
2, 47035, Control_c, 0, 64, 127
2, 47035, Control_c, 0, 64, 127
2, 47115, Note_on_c, 0, 66, 54
2, 47138, Note_off_c, 0, 61, 64
2, 47151, Control_c, 0, 64, 0
2, 47151, Control_c, 0, 64, 0
2, 47156, Note_on_c, 0, 61, 55
2, 47157, Note_on_c, 0, 69, 63
2, 47157, Note_on_c, 0, 54, 66
2, 47184, Note_off_c, 0, 66, 64
2, 47187, Note_off_c, 0, 42, 64
2, 47200, Note_off_c, 0, 61, 64
2, 47201, Note_off_c, 0, 54, 64
2, 47276, Control_c, 0, 64, 127
2, 47276, Control_c, 0, 64, 127
2, 47356, Note_off_c, 0, 69, 64
2, 47383, Note_on_c, 0, 69, 62
2, 47383, Note_on_c, 0, 66, 62
2, 47392, Note_on_c, 0, 61, 58
2, 47392, Note_on_c, 0, 54, 63
2, 47408, Control_c, 0, 64, 127
2, 47408, Control_c, 0, 64, 127
2, 47421, Note_off_c, 0, 61, 64
2, 47429, Note_off_c, 0, 54, 64
2, 47580, Control_c, 0, 64, 0
2, 47580, Control_c, 0, 64, 0
2, 47588, Note_on_c, 0, 40, 61
2, 47595, Note_on_c, 0, 52, 58
2, 47631, Control_c, 0, 64, 127
2, 47631, Control_c, 0, 64, 127
2, 47647, Note_off_c, 0, 52, 64
2, 47670, Note_off_c, 0, 69, 64
2, 47694, Note_on_c, 0, 71, 55
2, 47745, Note_on_c, 0, 69, 55
2, 47748, Note_off_c, 0, 66, 64
2, 47755, Note_off_c, 0, 71, 64
2, 47775, Control_c, 0, 64, 0
2, 47775, Control_c, 0, 64, 0
2, 47780, Note_on_c, 0, 68, 59
2, 47780, Note_on_c, 0, 52, 48
2, 47786, Note_on_c, 0, 59, 52
2, 47794, Note_on_c, 0, 64, 44
2, 47799, Note_off_c, 0, 69, 64
2, 47799, Note_off_c, 0, 40, 64
2, 47824, Note_off_c, 0, 52, 64
2, 47828, Note_off_c, 0, 59, 64
2, 47831, Control_c, 0, 64, 127
2, 47831, Control_c, 0, 64, 127
2, 47889, Note_off_c, 0, 64, 64
2, 47889, Note_on_c, 0, 69, 58
2, 47919, Note_off_c, 0, 68, 64
2, 47965, Control_c, 0, 64, 0
2, 47965, Control_c, 0, 64, 0
2, 47971, Note_on_c, 0, 62, 65
2, 47972, Note_on_c, 0, 71, 66
2, 47976, Note_on_c, 0, 52, 62
2, 47986, Note_off_c, 0, 69, 64
2, 48009, Control_c, 0, 64, 127
2, 48009, Control_c, 0, 64, 127
2, 48020, Note_off_c, 0, 52, 64
2, 48110, Note_off_c, 0, 71, 64
2, 48113, Note_on_c, 0, 66, 50
2, 48148, Control_c, 0, 64, 0
2, 48148, Control_c, 0, 64, 0
2, 48154, Note_on_c, 0, 64, 59
2, 48156, Note_on_c, 0, 45, 63
2, 48184, Note_off_c, 0, 66, 64
2, 48219, Control_c, 0, 64, 127
2, 48219, Control_c, 0, 64, 127
2, 48293, Note_on_c, 0, 69, 37
2, 48312, Note_off_c, 0, 64, 64
2, 48334, Control_c, 0, 64, 0
2, 48334, Control_c, 0, 64, 0
2, 48347, Note_on_c, 0, 73, 76
2, 48347, Note_on_c, 0, 61, 28
2, 48351, Note_on_c, 0, 57, 63
2, 48364, Note_off_c, 0, 62, 64
2, 48368, Note_off_c, 0, 69, 64
2, 48371, Note_off_c, 0, 45, 64
2, 48391, Note_off_c, 0, 61, 64
2, 48395, Note_off_c, 0, 57, 64
2, 48546, Note_off_c, 0, 73, 64
2, 48570, Note_on_c, 0, 73, 66
2, 48575, Note_on_c, 0, 57, 62
2, 48577, Note_on_c, 0, 64, 61
2, 48595, Control_c, 0, 64, 127
2, 48595, Control_c, 0, 64, 127
2, 48743, Note_off_c, 0, 64, 64
2, 48840, Note_on_c, 0, 50, 55
2, 48841, Note_on_c, 0, 76, 61
2, 48845, Note_on_c, 0, 65, 54
2, 48851, Note_off_c, 0, 73, 64
2, 48864, Control_c, 0, 64, 0
2, 48864, Control_c, 0, 64, 0
2, 48918, Control_c, 0, 64, 127
2, 48918, Control_c, 0, 64, 127
2, 48967, Note_off_c, 0, 57, 64
2, 48969, Note_off_c, 0, 50, 64
2, 49002, Note_off_c, 0, 76, 64
2, 49003, Note_on_c, 0, 74, 52
2, 49018, Note_off_c, 0, 65, 64
2, 49038, Note_on_c, 0, 73, 58
2, 49070, Note_off_c, 0, 74, 64
2, 49083, Note_on_c, 0, 71, 57
2, 49088, Note_on_c, 0, 57, 53
2, 49092, Note_on_c, 0, 50, 53
2, 49094, Note_on_c, 0, 65, 44
2, 49101, Control_c, 0, 64, 0
2, 49101, Control_c, 0, 64, 0
2, 49110, Note_off_c, 0, 73, 64
2, 49139, Control_c, 0, 64, 127
2, 49139, Control_c, 0, 64, 127
2, 49147, Note_off_c, 0, 57, 64
2, 49153, Note_off_c, 0, 50, 64
2, 49178, Note_off_c, 0, 65, 64
2, 49287, Note_on_c, 0, 73, 62
2, 49294, Note_on_c, 0, 64, 53
2, 49303, Note_on_c, 0, 57, 52
2, 49303, Note_on_c, 0, 45, 50
2, 49311, Note_off_c, 0, 71, 64
2, 49316, Control_c, 0, 64, 0
2, 49316, Control_c, 0, 64, 0
2, 49356, Control_c, 0, 64, 127
2, 49356, Control_c, 0, 64, 127
2, 49421, Note_off_c, 0, 64, 64
2, 49476, Note_off_c, 0, 45, 64
2, 49499, Note_on_c, 0, 65, 66
2, 49503, Note_on_c, 0, 76, 59
2, 49509, Note_on_c, 0, 50, 53
2, 49513, Control_c, 0, 64, 0
2, 49513, Control_c, 0, 64, 0
2, 49523, Note_off_c, 0, 73, 64
2, 49546, Control_c, 0, 64, 127
2, 49546, Control_c, 0, 64, 127
2, 49578, Note_off_c, 0, 50, 64
2, 49600, Note_off_c, 0, 57, 64
2, 49629, Note_on_c, 0, 74, 61
2, 49634, Note_off_c, 0, 76, 64
2, 49643, Note_off_c, 0, 65, 64
2, 49663, Note_on_c, 0, 73, 66
2, 49694, Note_off_c, 0, 74, 64
2, 49704, Note_on_c, 0, 50, 48
2, 49710, Note_on_c, 0, 71, 66
2, 49710, Note_on_c, 0, 65, 58
2, 49710, Note_on_c, 0, 57, 53
2, 49721, Control_c, 0, 64, 0
2, 49721, Control_c, 0, 64, 0
2, 49742, Note_off_c, 0, 73, 64
2, 49758, Control_c, 0, 64, 127
2, 49758, Control_c, 0, 64, 127
2, 49823, Note_off_c, 0, 50, 64
2, 49830, Note_off_c, 0, 65, 64
2, 49885, Note_off_c, 0, 57, 64
2, 49938, Note_on_c, 0, 73, 61
2, 49946, Note_on_c, 0, 64, 50
2, 49949, Note_on_c, 0, 45, 44
2, 49956, Note_on_c, 0, 57, 44
2, 49961, Note_off_c, 0, 71, 64
2, 49975, Control_c, 0, 64, 0
2, 49975, Control_c, 0, 64, 0
2, 50020, Control_c, 0, 64, 127
2, 50020, Control_c, 0, 64, 127
2, 50044, Note_off_c, 0, 64, 64
2, 50144, Note_off_c, 0, 45, 64
2, 50212, Note_on_c, 0, 76, 57
2, 50216, Note_on_c, 0, 66, 41
2, 50220, Note_off_c, 0, 73, 64
2, 50220, Note_on_c, 0, 50, 39
2, 50250, Control_c, 0, 64, 0
2, 50250, Control_c, 0, 64, 0
2, 50285, Control_c, 0, 64, 127
2, 50285, Control_c, 0, 64, 127
2, 50296, Note_off_c, 0, 50, 64
2, 50376, Note_on_c, 0, 74, 45
2, 50406, Note_off_c, 0, 76, 64
2, 50415, Note_on_c, 0, 73, 52
2, 50435, Note_off_c, 0, 74, 64
2, 50459, Note_on_c, 0, 56, 49
2, 50463, Note_off_c, 0, 57, 64
2, 50467, Note_on_c, 0, 71, 55
2, 50484, Note_off_c, 0, 73, 64
2, 50492, Control_c, 0, 64, 0
2, 50492, Control_c, 0, 64, 0
2, 50526, Control_c, 0, 64, 127
2, 50526, Control_c, 0, 64, 127
2, 50628, Note_off_c, 0, 66, 64
2, 50649, Note_off_c, 0, 56, 64
2, 50724, Note_on_c, 0, 73, 50
2, 50730, Note_on_c, 0, 49, 35
2, 50735, Note_on_c, 0, 61, 27
2, 50740, Note_on_c, 0, 65, 44
2, 50741, Note_off_c, 0, 71, 64
2, 50754, Control_c, 0, 64, 0
2, 50754, Control_c, 0, 64, 0
2, 50787, Control_c, 0, 64, 127
2, 50787, Control_c, 0, 64, 127
2, 50831, Note_off_c, 0, 49, 64
2, 50861, Note_off_c, 0, 65, 64
2, 50867, Note_off_c, 0, 61, 64
2, 51009, Note_on_c, 0, 54, 24
2, 51011, Note_on_c, 0, 66, 37
2, 51014, Note_on_c, 0, 71, 45
2, 51020, Note_on_c, 0, 62, 29
2, 51028, Note_off_c, 0, 73, 64
2, 51033, Control_c, 0, 64, 0
2, 51033, Control_c, 0, 64, 0
2, 51058, Control_c, 0, 64, 127
2, 51058, Control_c, 0, 64, 127
2, 51107, Note_off_c, 0, 71, 64
2, 51113, Note_on_c, 0, 61, 44
2, 51118, Note_on_c, 0, 69, 32
2, 51173, Note_off_c, 0, 62, 64
2, 51193, Note_off_c, 0, 66, 64
2, 51201, Note_on_c, 0, 68, 46
2, 51207, Note_on_c, 0, 59, 37
2, 51218, Note_off_c, 0, 69, 64
2, 51224, Note_off_c, 0, 61, 64
2, 51288, Note_on_c, 0, 66, 46
2, 51301, Note_on_c, 0, 57, 24
2, 51301, Control_c, 0, 64, 0
2, 51301, Control_c, 0, 64, 0
2, 51309, Note_off_c, 0, 59, 64
2, 51313, Note_off_c, 0, 68, 64
2, 51336, Note_off_c, 0, 54, 64
2, 51360, Control_c, 0, 64, 127
2, 51360, Control_c, 0, 64, 127
2, 51375, Note_off_c, 0, 66, 64
2, 51555, Note_on_c, 0, 80, 65
2, 51563, Note_on_c, 0, 85, 61
2, 51568, Note_on_c, 0, 78, 58
2, 51571, Note_off_c, 0, 57, 64
2, 51589, Note_off_c, 0, 80, 64
2, 51684, Note_off_c, 0, 78, 64
2, 51795, Note_off_c, 0, 85, 64
2, 51796, Note_on_c, 0, 42, 65
2, 51798, Note_on_c, 0, 78, 66
2, 51799, Note_on_c, 0, 86, 70
2, 51805, Note_on_c, 0, 80, 63
2, 51837, Note_off_c, 0, 80, 64
2, 51844, Note_off_c, 0, 78, 64
2, 51910, Note_on_c, 0, 54, 66
2, 51912, Note_on_c, 0, 78, 66
2, 51914, Note_on_c, 0, 85, 65
2, 51921, Note_on_c, 0, 80, 55
2, 51925, Note_off_c, 0, 42, 64
2, 51928, Note_off_c, 0, 86, 64
2, 51947, Note_off_c, 0, 80, 64
2, 51951, Note_off_c, 0, 54, 64
2, 51956, Note_off_c, 0, 78, 64
2, 52024, Note_on_c, 0, 80, 62
2, 52024, Note_on_c, 0, 78, 66
2, 52024, Note_on_c, 0, 66, 70
2, 52027, Note_on_c, 0, 62, 63
2, 52033, Note_on_c, 0, 83, 57
2, 52045, Note_off_c, 0, 85, 64
2, 52047, Control_c, 0, 64, 0
2, 52047, Control_c, 0, 64, 0
2, 52080, Control_c, 0, 64, 127
2, 52080, Control_c, 0, 64, 127
2, 52121, Note_off_c, 0, 78, 64
2, 52140, Note_off_c, 0, 80, 64
2, 52216, Note_off_c, 0, 83, 64
2, 52218, Note_on_c, 0, 86, 67
2, 52222, Note_on_c, 0, 78, 70
2, 52223, Note_on_c, 0, 80, 65
2, 52229, Note_on_c, 0, 71, 76
2, 52250, Note_off_c, 0, 80, 64
2, 52259, Note_off_c, 0, 62, 64
2, 52283, Note_off_c, 0, 78, 64
2, 52416, Note_on_c, 0, 80, 65
2, 52416, Note_on_c, 0, 61, 54
2, 52420, Note_on_c, 0, 69, 48
2, 52422, Note_on_c, 0, 85, 62
2, 52422, Note_on_c, 0, 78, 67
2, 52428, Note_off_c, 0, 71, 64
2, 52428, Note_off_c, 0, 86, 64
2, 52460, Note_off_c, 0, 80, 64
2, 52463, Note_off_c, 0, 78, 64
2, 52504, Note_on_c, 0, 59, 57
2, 52514, Note_on_c, 0, 86, 65
2, 52518, Note_on_c, 0, 68, 57
2, 52520, Note_on_c, 0, 78, 70
2, 52521, Note_off_c, 0, 61, 64
2, 52522, Note_off_c, 0, 69, 64
2, 52524, Note_on_c, 0, 80, 66
2, 52529, Note_off_c, 0, 85, 64
2, 52553, Note_off_c, 0, 80, 64
2, 52569, Note_off_c, 0, 78, 64
2, 52610, Control_c, 0, 64, 0
2, 52610, Control_c, 0, 64, 0
2, 52620, Note_on_c, 0, 80, 66
2, 52624, Note_on_c, 0, 85, 71
2, 52625, Note_on_c, 0, 78, 70
2, 52625, Note_on_c, 0, 61, 58
2, 52635, Note_off_c, 0, 59, 64
2, 52635, Note_on_c, 0, 69, 44
2, 52636, Note_off_c, 0, 86, 64
2, 52648, Control_c, 0, 64, 127
2, 52648, Control_c, 0, 64, 127
2, 52649, Note_off_c, 0, 68, 64
2, 52657, Note_off_c, 0, 78, 64
2, 52657, Note_off_c, 0, 80, 64
2, 52768, Note_off_c, 0, 61, 64
2, 52778, Note_off_c, 0, 69, 64
2, 52792, Note_off_c, 0, 66, 64
2, 52806, Note_off_c, 0, 85, 64
2, 52808, Note_on_c, 0, 78, 70
2, 52812, Note_on_c, 0, 90, 72
2, 52812, Note_on_c, 0, 54, 55
2, 52818, Note_on_c, 0, 80, 55
2, 52832, Note_off_c, 0, 80, 64
2, 52864, Note_off_c, 0, 78, 64
2, 52993, Note_off_c, 0, 54, 64
2, 53000, Note_on_c, 0, 80, 65
2, 53008, Note_on_c, 0, 86, 67
2, 53014, Note_on_c, 0, 42, 63
2, 53015, Note_on_c, 0, 78, 59
2, 53021, Control_c, 0, 64, 0
2, 53021, Control_c, 0, 64, 0
2, 53022, Note_off_c, 0, 90, 64
2, 53039, Note_off_c, 0, 80, 64
2, 53052, Control_c, 0, 64, 127
2, 53052, Control_c, 0, 64, 127
2, 53056, Note_off_c, 0, 78, 64
2, 53096, Note_on_c, 0, 80, 63
2, 53104, Note_on_c, 0, 85, 74
2, 53107, Note_off_c, 0, 86, 64
2, 53110, Note_on_c, 0, 78, 66
2, 53112, Note_on_c, 0, 54, 66
2, 53129, Note_off_c, 0, 42, 64
2, 53132, Note_off_c, 0, 80, 64
2, 53150, Note_off_c, 0, 78, 64
2, 53152, Note_off_c, 0, 54, 64
2, 53207, Note_on_c, 0, 78, 55
2, 53209, Note_off_c, 0, 85, 64
2, 53211, Note_on_c, 0, 80, 61
2, 53218, Note_on_c, 0, 62, 67
2, 53222, Note_on_c, 0, 83, 50
2, 53224, Note_on_c, 0, 66, 70
2, 53264, Note_off_c, 0, 78, 64
2, 53267, Note_off_c, 0, 80, 64
2, 53388, Note_on_c, 0, 86, 66
2, 53394, Note_on_c, 0, 78, 70
2, 53400, Note_off_c, 0, 62, 64
2, 53400, Note_on_c, 0, 71, 66
2, 53420, Note_off_c, 0, 83, 64
2, 53427, Note_off_c, 0, 78, 64
2, 53514, Note_off_c, 0, 86, 64
2, 53526, Note_on_c, 0, 85, 76
2, 53533, Note_on_c, 0, 78, 70
2, 53567, Note_off_c, 0, 85, 64
2, 53586, Note_off_c, 0, 71, 64
2, 53590, Note_on_c, 0, 97, 83
2, 53590, Note_on_c, 0, 69, 58
2, 53597, Note_on_c, 0, 61, 61
2, 53686, Note_on_c, 0, 68, 66
2, 53693, Note_on_c, 0, 59, 70
2, 53700, Note_off_c, 0, 69, 64
2, 53707, Note_off_c, 0, 61, 64
2, 53748, Note_off_c, 0, 97, 64
2, 53780, Note_on_c, 0, 73, 83
2, 53785, Note_on_c, 0, 61, 70
2, 53787, Note_on_c, 0, 69, 61
2, 53790, Note_off_c, 0, 68, 64
2, 53797, Note_off_c, 0, 59, 64
2, 53927, Note_off_c, 0, 78, 64
2, 53938, Note_off_c, 0, 73, 64
2, 53955, Note_off_c, 0, 61, 64
2, 53957, Note_off_c, 0, 69, 64
2, 53978, Note_on_c, 0, 49, 78
2, 53992, Note_off_c, 0, 66, 64
2, 54158, Control_c, 0, 64, 0
2, 54158, Control_c, 0, 64, 0
2, 54159, Note_off_c, 0, 49, 64
2, 54160, Note_on_c, 0, 74, 57
2, 54167, Note_on_c, 0, 73, 65
2, 54167, Note_on_c, 0, 37, 67
2, 54173, Note_on_c, 0, 80, 58
2, 54194, Control_c, 0, 64, 127
2, 54194, Control_c, 0, 64, 127
2, 54197, Note_off_c, 0, 74, 64
2, 54204, Note_off_c, 0, 73, 64
2, 54244, Note_on_c, 0, 74, 57
2, 54259, Note_off_c, 0, 80, 64
2, 54261, Note_on_c, 0, 49, 74
2, 54268, Note_on_c, 0, 83, 66
2, 54271, Note_on_c, 0, 73, 66
2, 54281, Note_off_c, 0, 74, 64
2, 54282, Control_c, 0, 64, 0
2, 54282, Control_c, 0, 64, 0
2, 54291, Note_on_c, 0, 73, 65
2, 54305, Note_off_c, 0, 49, 64
2, 54307, Note_off_c, 0, 73, 64
2, 54308, Note_off_c, 0, 37, 64
2, 54328, Note_off_c, 0, 73, 64
2, 54356, Note_on_c, 0, 74, 57
2, 54364, Note_on_c, 0, 59, 55
2, 54366, Note_on_c, 0, 61, 79
2, 54369, Note_on_c, 0, 81, 58
2, 54369, Note_on_c, 0, 73, 71
2, 54385, Note_off_c, 0, 83, 64
2, 54393, Note_off_c, 0, 74, 64
2, 54420, Note_off_c, 0, 73, 64
2, 54536, Note_on_c, 0, 74, 57
2, 54544, Note_on_c, 0, 80, 66
2, 54544, Note_on_c, 0, 68, 70
2, 54550, Note_on_c, 0, 73, 72
2, 54559, Note_off_c, 0, 81, 64
2, 54568, Control_c, 0, 64, 0
2, 54568, Control_c, 0, 64, 0
2, 54573, Note_off_c, 0, 74, 64
2, 54585, Control_c, 0, 64, 127
2, 54585, Control_c, 0, 64, 127
2, 54598, Note_off_c, 0, 73, 64
2, 54716, Note_on_c, 0, 74, 57
2, 54724, Note_on_c, 0, 78, 71
2, 54724, Note_on_c, 0, 73, 66
2, 54724, Note_on_c, 0, 66, 53
2, 54733, Note_on_c, 0, 57, 65
2, 54739, Note_off_c, 0, 80, 64
2, 54742, Note_off_c, 0, 68, 64
2, 54746, Note_off_c, 0, 59, 64
2, 54753, Note_off_c, 0, 74, 64
2, 54766, Note_off_c, 0, 73, 64
2, 54812, Note_on_c, 0, 74, 57
2, 54820, Note_on_c, 0, 80, 70
2, 54822, Note_on_c, 0, 73, 66
2, 54826, Note_off_c, 0, 78, 64
2, 54831, Note_on_c, 0, 65, 54
2, 54832, Note_on_c, 0, 56, 58
2, 54838, Note_off_c, 0, 66, 64
2, 54847, Note_off_c, 0, 57, 64
2, 54849, Note_off_c, 0, 74, 64
2, 54860, Note_off_c, 0, 73, 64
2, 54904, Note_on_c, 0, 74, 57
2, 54913, Control_c, 0, 64, 0
2, 54913, Control_c, 0, 64, 0
2, 54915, Note_off_c, 0, 80, 64
2, 54919, Note_on_c, 0, 78, 80
2, 54919, Note_on_c, 0, 73, 79
2, 54924, Note_on_c, 0, 57, 61
2, 54929, Note_on_c, 0, 66, 70
2, 54936, Control_c, 0, 64, 127
2, 54936, Control_c, 0, 64, 127
2, 54941, Note_off_c, 0, 74, 64
2, 54948, Note_off_c, 0, 65, 64
2, 54949, Note_off_c, 0, 56, 64
2, 54959, Note_off_c, 0, 73, 64
2, 55080, Note_on_c, 0, 74, 57
2, 55092, Note_on_c, 0, 85, 80
2, 55093, Note_on_c, 0, 73, 70
2, 55094, Note_off_c, 0, 78, 64
2, 55099, Note_off_c, 0, 57, 64
2, 55101, Note_off_c, 0, 61, 64
2, 55104, Note_off_c, 0, 66, 64
2, 55109, Note_on_c, 0, 49, 80
2, 55117, Note_off_c, 0, 74, 64
2, 55135, Note_off_c, 0, 73, 64
2, 55271, Note_off_c, 0, 49, 64
2, 55272, Note_on_c, 0, 74, 58
2, 55276, Control_c, 0, 64, 0
2, 55276, Control_c, 0, 64, 0
2, 55281, Note_on_c, 0, 80, 66
2, 55282, Note_off_c, 0, 85, 64
2, 55286, Note_on_c, 0, 73, 72
2, 55290, Note_on_c, 0, 37, 53
2, 55306, Control_c, 0, 64, 127
2, 55306, Control_c, 0, 64, 127
2, 55317, Note_off_c, 0, 74, 64
2, 55321, Note_off_c, 0, 73, 64
2, 55372, Note_on_c, 0, 74, 57
2, 55375, Note_on_c, 0, 83, 66
2, 55376, Note_off_c, 0, 80, 64
2, 55380, Note_on_c, 0, 49, 79
2, 55385, Note_on_c, 0, 73, 71
2, 55409, Note_off_c, 0, 74, 64
2, 55412, Note_off_c, 0, 49, 64
2, 55418, Note_off_c, 0, 73, 64
2, 55454, Note_off_c, 0, 37, 64
2, 55456, Note_on_c, 0, 74, 57
2, 55468, Note_on_c, 0, 59, 58
2, 55471, Note_on_c, 0, 61, 76
2, 55473, Note_on_c, 0, 73, 74
2, 55480, Note_on_c, 0, 81, 66
2, 55493, Note_off_c, 0, 74, 64
2, 55497, Note_off_c, 0, 83, 64
2, 55528, Note_off_c, 0, 73, 64
2, 55624, Note_on_c, 0, 74, 57
2, 55636, Note_on_c, 0, 73, 59
2, 55641, Note_on_c, 0, 80, 66
2, 55647, Note_on_c, 0, 68, 83
2, 55661, Note_off_c, 0, 74, 64
2, 55669, Note_off_c, 0, 73, 64
2, 55675, Note_off_c, 0, 81, 64
2, 55774, Note_on_c, 0, 78, 70
2, 55792, Note_off_c, 0, 80, 64
2, 55826, Note_on_c, 0, 90, 88
2, 55829, Note_on_c, 0, 66, 72
2, 55830, Note_off_c, 0, 68, 64
2, 55835, Note_on_c, 0, 57, 63
2, 55847, Note_off_c, 0, 59, 64
2, 55911, Note_off_c, 0, 90, 64
2, 55940, Note_on_c, 0, 56, 58
2, 55943, Note_off_c, 0, 78, 64
2, 55947, Note_on_c, 0, 65, 71
2, 55950, Note_off_c, 0, 66, 64
2, 55956, Note_off_c, 0, 57, 64
2, 56023, Control_c, 0, 64, 0
2, 56023, Control_c, 0, 64, 0
2, 56028, Note_off_c, 0, 61, 64
2, 56034, Note_on_c, 0, 42, 88
2, 56039, Note_on_c, 0, 57, 61
2, 56045, Control_c, 0, 64, 127
2, 56045, Control_c, 0, 64, 127
2, 56049, Note_on_c, 0, 66, 79
2, 56061, Note_off_c, 0, 56, 64
2, 56068, Note_off_c, 0, 65, 64
2, 56163, Note_off_c, 0, 66, 64
2, 56180, Note_off_c, 0, 57, 64
2, 56233, Note_off_c, 0, 42, 64
2, 56265, Note_on_c, 0, 42, 80
2, 56461, Note_on_c, 0, 80, 66
2, 56465, Note_on_c, 0, 30, 70
2, 56465, Control_c, 0, 64, 0
2, 56465, Control_c, 0, 64, 0
2, 56468, Note_off_c, 0, 42, 64
2, 56472, Note_on_c, 0, 86, 70
2, 56472, Note_on_c, 0, 78, 70
2, 56494, Control_c, 0, 64, 127
2, 56494, Control_c, 0, 64, 127
2, 56502, Note_off_c, 0, 78, 64
2, 56508, Note_off_c, 0, 80, 64
2, 56555, Note_on_c, 0, 54, 72
2, 56556, Note_on_c, 0, 80, 74
2, 56561, Note_on_c, 0, 85, 74
2, 56566, Note_on_c, 0, 78, 72
2, 56573, Note_off_c, 0, 86, 64
2, 56581, Note_off_c, 0, 80, 64
2, 56583, Note_off_c, 0, 54, 64
2, 56598, Note_off_c, 0, 78, 64
2, 56648, Note_on_c, 0, 80, 76
2, 56660, Note_on_c, 0, 83, 70
2, 56660, Note_on_c, 0, 78, 71
2, 56660, Note_on_c, 0, 66, 72
2, 56660, Note_on_c, 0, 62, 67
2, 56677, Control_c, 0, 64, 0
2, 56677, Control_c, 0, 64, 0
2, 56678, Note_off_c, 0, 85, 64
2, 56690, Control_c, 0, 64, 127
2, 56690, Control_c, 0, 64, 127
2, 56721, Note_off_c, 0, 80, 64
2, 56735, Note_off_c, 0, 78, 64
2, 56770, Note_off_c, 0, 30, 64
2, 56832, Note_on_c, 0, 71, 66
2, 56840, Note_on_c, 0, 80, 71
2, 56850, Note_on_c, 0, 86, 66
2, 56854, Note_on_c, 0, 78, 72
2, 56855, Note_off_c, 0, 83, 64
2, 56862, Note_off_c, 0, 80, 64
2, 56901, Note_off_c, 0, 78, 64
2, 57024, Note_on_c, 0, 80, 79
2, 57029, Note_on_c, 0, 85, 66
2, 57029, Note_on_c, 0, 61, 57
2, 57033, Note_on_c, 0, 69, 55
2, 57034, Note_off_c, 0, 71, 64
2, 57035, Control_c, 0, 64, 0
2, 57035, Control_c, 0, 64, 0
2, 57040, Note_on_c, 0, 78, 74
2, 57042, Note_off_c, 0, 86, 64
2, 57053, Control_c, 0, 64, 127
2, 57053, Control_c, 0, 64, 127
2, 57056, Note_off_c, 0, 80, 64
2, 57063, Note_off_c, 0, 62, 64
2, 57069, Note_off_c, 0, 78, 64
2, 57120, Note_on_c, 0, 80, 72
2, 57120, Note_on_c, 0, 59, 66
2, 57125, Note_on_c, 0, 68, 66
2, 57126, Note_on_c, 0, 86, 66
2, 57132, Note_off_c, 0, 61, 64
2, 57132, Note_on_c, 0, 78, 70
2, 57136, Note_off_c, 0, 69, 64
2, 57139, Note_off_c, 0, 85, 64
2, 57154, Note_off_c, 0, 80, 64
2, 57172, Note_off_c, 0, 78, 64
2, 57212, Note_on_c, 0, 80, 80
2, 57215, Note_off_c, 0, 59, 64
2, 57218, Note_on_c, 0, 61, 58
2, 57220, Note_off_c, 0, 68, 64
2, 57220, Note_on_c, 0, 69, 54
2, 57224, Note_on_c, 0, 85, 79
2, 57227, Control_c, 0, 64, 0
2, 57227, Control_c, 0, 64, 0
2, 57234, Note_on_c, 0, 78, 72
2, 57239, Note_off_c, 0, 86, 64
2, 57244, Control_c, 0, 64, 127
2, 57244, Control_c, 0, 64, 127
2, 57250, Note_off_c, 0, 80, 64
2, 57257, Note_off_c, 0, 78, 64
2, 57390, Note_on_c, 0, 78, 57
2, 57393, Note_on_c, 0, 80, 65
2, 57394, Note_off_c, 0, 66, 64
2, 57395, Note_off_c, 0, 69, 64
2, 57400, Note_on_c, 0, 90, 74
2, 57400, Note_on_c, 0, 54, 88
2, 57416, Control_c, 0, 64, 0
2, 57416, Control_c, 0, 64, 0
2, 57421, Note_off_c, 0, 61, 64
2, 57423, Note_off_c, 0, 85, 64
2, 57429, Note_off_c, 0, 80, 64
2, 57439, Control_c, 0, 64, 127
2, 57439, Control_c, 0, 64, 127
2, 57444, Note_off_c, 0, 78, 64
2, 57583, Note_on_c, 0, 80, 63
2, 57592, Note_on_c, 0, 78, 61
2, 57596, Note_on_c, 0, 42, 66
2, 57599, Note_off_c, 0, 54, 64
2, 57604, Note_on_c, 0, 86, 66
2, 57606, Note_off_c, 0, 90, 64
2, 57617, Note_off_c, 0, 80, 64
2, 57636, Note_off_c, 0, 78, 64
2, 57672, Note_on_c, 0, 80, 70
2, 57681, Note_on_c, 0, 85, 72
2, 57681, Note_on_c, 0, 54, 74
2, 57686, Note_on_c, 0, 78, 66
2, 57691, Note_off_c, 0, 86, 64
2, 57701, Note_off_c, 0, 80, 64
2, 57718, Note_off_c, 0, 78, 64
2, 57724, Note_off_c, 0, 54, 64
2, 57764, Note_on_c, 0, 80, 70
2, 57776, Note_on_c, 0, 78, 67
2, 57779, Note_on_c, 0, 83, 66
2, 57780, Note_on_c, 0, 66, 67
2, 57783, Note_on_c, 0, 62, 65
2, 57787, Note_off_c, 0, 85, 64
2, 57807, Note_off_c, 0, 42, 64
2, 57819, Note_off_c, 0, 80, 64
2, 57823, Note_off_c, 0, 78, 64
2, 57932, Note_on_c, 0, 80, 67
2, 57944, Note_on_c, 0, 71, 72
2, 57946, Note_on_c, 0, 86, 66
2, 57950, Note_on_c, 0, 78, 70
2, 57969, Note_off_c, 0, 80, 64
2, 57969, Note_off_c, 0, 83, 64
2, 57989, Note_off_c, 0, 78, 64
2, 58066, Note_on_c, 0, 85, 80
2, 58072, Note_on_c, 0, 78, 79
2, 58084, Note_off_c, 0, 86, 64
2, 58101, Note_off_c, 0, 85, 64
2, 58118, Note_on_c, 0, 69, 61
2, 58123, Note_on_c, 0, 61, 66
2, 58130, Note_on_c, 0, 97, 88
2, 58131, Note_off_c, 0, 71, 64
2, 58171, Note_off_c, 0, 62, 64
2, 58215, Note_on_c, 0, 68, 70
2, 58215, Note_on_c, 0, 59, 70
2, 58220, Note_off_c, 0, 69, 64
2, 58225, Note_off_c, 0, 61, 64
2, 58291, Note_off_c, 0, 97, 64
2, 58293, Note_off_c, 0, 59, 64
2, 58313, Note_on_c, 0, 61, 67
2, 58314, Note_off_c, 0, 68, 64
2, 58319, Note_on_c, 0, 69, 70
2, 58320, Note_on_c, 0, 73, 88
2, 58327, Note_off_c, 0, 66, 64
2, 58412, Note_off_c, 0, 73, 64
2, 58443, Note_off_c, 0, 78, 64
2, 58494, Control_c, 0, 64, 0
2, 58494, Control_c, 0, 64, 0
2, 58496, Note_off_c, 0, 61, 64
2, 58498, Note_on_c, 0, 49, 80
2, 58502, Note_off_c, 0, 69, 64
2, 58529, Control_c, 0, 64, 127
2, 58529, Control_c, 0, 64, 127
2, 58672, Note_on_c, 0, 74, 46
2, 58693, Note_on_c, 0, 73, 72
2, 58697, Note_on_c, 0, 80, 65
2, 58697, Note_on_c, 0, 37, 66
2, 58697, Control_c, 0, 64, 0
2, 58697, Control_c, 0, 64, 0
2, 58704, Note_off_c, 0, 49, 64
2, 58709, Note_off_c, 0, 74, 64
2, 58716, Control_c, 0, 64, 127
2, 58716, Control_c, 0, 64, 127
2, 58730, Note_off_c, 0, 73, 64
2, 58768, Note_on_c, 0, 74, 46
2, 58790, Note_on_c, 0, 49, 80
2, 58791, Note_on_c, 0, 73, 66
2, 58795, Note_off_c, 0, 80, 64
2, 58795, Note_on_c, 0, 83, 62
2, 58805, Note_off_c, 0, 74, 64
2, 58824, Note_off_c, 0, 73, 64
2, 58844, Note_off_c, 0, 49, 64
2, 58868, Note_on_c, 0, 74, 46
2, 58882, Note_on_c, 0, 81, 61
2, 58884, Note_on_c, 0, 73, 76
2, 58888, Note_on_c, 0, 59, 52
2, 58891, Note_on_c, 0, 61, 76
2, 58905, Note_off_c, 0, 74, 64
2, 58908, Note_off_c, 0, 37, 64
2, 58911, Note_off_c, 0, 83, 64
2, 58937, Note_off_c, 0, 73, 64
2, 59040, Note_on_c, 0, 74, 46
2, 59056, Note_on_c, 0, 80, 66
2, 59060, Note_on_c, 0, 68, 80
2, 59064, Note_on_c, 0, 73, 79
2, 59077, Note_off_c, 0, 74, 64
2, 59081, Note_off_c, 0, 81, 64
2, 59106, Note_off_c, 0, 73, 64
2, 59208, Note_on_c, 0, 74, 46
2, 59231, Note_on_c, 0, 73, 71
2, 59236, Note_on_c, 0, 66, 54
2, 59239, Note_off_c, 0, 80, 64
2, 59239, Note_on_c, 0, 78, 74
2, 59243, Note_off_c, 0, 68, 64
2, 59245, Note_off_c, 0, 74, 64
2, 59248, Note_on_c, 0, 57, 61
2, 59275, Note_off_c, 0, 73, 64
2, 59275, Note_off_c, 0, 59, 64
2, 59324, Note_on_c, 0, 74, 46
2, 59327, Note_on_c, 0, 80, 70
2, 59334, Note_on_c, 0, 73, 66
2, 59335, Note_on_c, 0, 65, 55
2, 59338, Note_off_c, 0, 78, 64
2, 59348, Note_off_c, 0, 66, 64
2, 59350, Note_on_c, 0, 56, 55
2, 59360, Note_off_c, 0, 57, 64
2, 59361, Note_off_c, 0, 74, 64
2, 59364, Note_off_c, 0, 73, 64
2, 59404, Note_on_c, 0, 74, 46
2, 59422, Note_on_c, 0, 73, 71
2, 59426, Note_on_c, 0, 78, 76
2, 59431, Note_off_c, 0, 65, 64
2, 59435, Note_on_c, 0, 57, 63
2, 59437, Note_on_c, 0, 66, 72
2, 59441, Note_off_c, 0, 74, 64
2, 59446, Note_off_c, 0, 56, 64
2, 59452, Note_off_c, 0, 80, 64
2, 59456, Note_off_c, 0, 73, 64
2, 59503, Note_off_c, 0, 61, 64
2, 59592, Note_on_c, 0, 74, 46
2, 59593, Note_on_c, 0, 49, 72
2, 59595, Note_off_c, 0, 78, 64
2, 59605, Note_off_c, 0, 57, 64
2, 59606, Note_on_c, 0, 73, 80
2, 59607, Note_off_c, 0, 66, 64
2, 59621, Note_on_c, 0, 85, 76
2, 59629, Note_off_c, 0, 74, 64
2, 59645, Note_off_c, 0, 73, 64
2, 59756, Note_off_c, 0, 49, 64
2, 59777, Note_off_c, 0, 85, 64
2, 59788, Note_on_c, 0, 74, 46
2, 59802, Note_on_c, 0, 73, 70
2, 59810, Note_on_c, 0, 80, 83
2, 59810, Note_on_c, 0, 37, 66
2, 59825, Note_off_c, 0, 74, 64
2, 59848, Note_off_c, 0, 73, 64
2, 59892, Note_on_c, 0, 74, 46
2, 59900, Note_on_c, 0, 49, 76
2, 59904, Note_on_c, 0, 83, 66
2, 59905, Note_on_c, 0, 73, 70
2, 59913, Note_off_c, 0, 80, 64
2, 59929, Note_off_c, 0, 74, 64
2, 59945, Note_off_c, 0, 49, 64
2, 59964, Note_off_c, 0, 73, 64
2, 59992, Note_on_c, 0, 74, 46
2, 59998, Note_on_c, 0, 61, 79
2, 60003, Note_on_c, 0, 73, 66
2, 60004, Note_on_c, 0, 81, 80
2, 60012, Note_off_c, 0, 83, 64
2, 60021, Note_off_c, 0, 37, 64
2, 60029, Note_off_c, 0, 74, 64
2, 60104, Note_off_c, 0, 73, 64
2, 60192, Note_on_c, 0, 74, 46
2, 60192, Note_on_c, 0, 61, 2
2, 60196, Note_on_c, 0, 80, 70
2, 60200, Note_on_c, 0, 68, 67
2, 60204, Note_on_c, 0, 73, 70
2, 60210, Note_off_c, 0, 81, 64
2, 60229, Note_off_c, 0, 74, 64
2, 60278, Note_off_c, 0, 61, 64
2, 60287, Note_off_c, 0, 61, 64
2, 60302, Note_off_c, 0, 73, 64
2, 60371, Note_off_c, 0, 80, 64
2, 60389, Note_on_c, 0, 73, 67
2, 60395, Note_on_c, 0, 72, 67
2, 60397, Note_on_c, 0, 66, 58
2, 60402, Note_on_c, 0, 80, 66
2, 60407, Note_on_c, 0, 63, 54
2, 60407, Note_on_c, 0, 56, 66
2, 60410, Note_off_c, 0, 68, 64
2, 60430, Note_off_c, 0, 73, 64
2, 60462, Note_off_c, 0, 72, 64
2, 60474, Note_off_c, 0, 80, 64
2, 60510, Note_on_c, 0, 73, 70
2, 60515, Note_on_c, 0, 80, 67
2, 60520, Note_on_c, 0, 75, 71
2, 60522, Note_on_c, 0, 72, 66
2, 60552, Note_off_c, 0, 73, 64
2, 60554, Note_off_c, 0, 75, 64
2, 60574, Note_off_c, 0, 72, 64
2, 60588, Note_off_c, 0, 80, 64
2, 60605, Note_off_c, 0, 63, 64
2, 60606, Note_off_c, 0, 56, 64
2, 60607, Note_off_c, 0, 66, 64
2, 60641, Note_on_c, 0, 73, 70
2, 60648, Note_on_c, 0, 71, 59
2, 60660, Note_on_c, 0, 80, 72
2, 60660, Note_on_c, 0, 65, 67
2, 60660, Note_on_c, 0, 61, 59
2, 60684, Note_off_c, 0, 73, 64
2, 60699, Control_c, 0, 64, 0
2, 60699, Control_c, 0, 64, 0
2, 60735, Control_c, 0, 64, 127
2, 60735, Control_c, 0, 64, 127
2, 60777, Note_off_c, 0, 80, 64
2, 60830, Note_off_c, 0, 71, 64
2, 60833, Note_off_c, 0, 61, 64
2, 60833, Note_off_c, 0, 65, 64
2, 60896, Note_on_c, 0, 69, 65
2, 60932, Note_on_c, 0, 73, 65
2, 60934, Note_on_c, 0, 68, 80
2, 60946, Note_off_c, 0, 69, 64
2, 60948, Control_c, 0, 64, 0
2, 60948, Control_c, 0, 64, 0
2, 61000, Control_c, 0, 64, 127
2, 61000, Control_c, 0, 64, 127
2, 61211, Note_off_c, 0, 73, 64
2, 61254, Note_on_c, 0, 66, 76
2, 61264, Note_on_c, 0, 37, 58
2, 61280, Note_off_c, 0, 68, 64
2, 61287, Control_c, 0, 64, 0
2, 61287, Control_c, 0, 64, 0
2, 61330, Control_c, 0, 64, 127
2, 61330, Control_c, 0, 64, 127
2, 61406, Note_on_c, 0, 68, 50
2, 61412, Note_off_c, 0, 66, 64
2, 61439, Note_on_c, 0, 66, 55
2, 61468, Note_off_c, 0, 68, 64
2, 61475, Note_off_c, 0, 37, 64
2, 61480, Note_on_c, 0, 65, 66
2, 61492, Note_on_c, 0, 49, 61
2, 61497, Note_on_c, 0, 59, 44
2, 61497, Control_c, 0, 64, 0
2, 61497, Control_c, 0, 64, 0
2, 61501, Note_off_c, 0, 66, 64
2, 61539, Control_c, 0, 64, 127
2, 61539, Control_c, 0, 64, 127
2, 61586, Note_off_c, 0, 49, 64
2, 61595, Note_on_c, 0, 66, 63
2, 61596, Note_off_c, 0, 59, 64
2, 61597, Note_off_c, 0, 65, 64
2, 61694, Note_on_c, 0, 68, 70
2, 61703, Note_on_c, 0, 53, 57
2, 61710, Note_off_c, 0, 66, 64
2, 61710, Note_on_c, 0, 59, 42
2, 61716, Note_on_c, 0, 49, 29
2, 61717, Control_c, 0, 64, 0
2, 61717, Control_c, 0, 64, 0
2, 61739, Note_off_c, 0, 59, 64
2, 61741, Control_c, 0, 64, 127
2, 61741, Control_c, 0, 64, 127
2, 61749, Note_off_c, 0, 53, 64
2, 61770, Note_off_c, 0, 49, 64
2, 61851, Note_on_c, 0, 62, 58
2, 61862, Note_off_c, 0, 68, 64
2, 61899, Note_on_c, 0, 61, 67
2, 61912, Note_on_c, 0, 42, 58
2, 61920, Control_c, 0, 64, 0
2, 61920, Control_c, 0, 64, 0
2, 61928, Note_off_c, 0, 62, 64
2, 61973, Control_c, 0, 64, 127
2, 61973, Control_c, 0, 64, 127
2, 62052, Note_on_c, 0, 66, 48
2, 62083, Note_off_c, 0, 61, 64
2, 62090, Control_c, 0, 64, 0
2, 62090, Control_c, 0, 64, 0
2, 62096, Note_on_c, 0, 54, 62
2, 62100, Note_on_c, 0, 61, 55
2, 62101, Note_on_c, 0, 69, 65
2, 62120, Note_off_c, 0, 66, 64
2, 62123, Note_off_c, 0, 42, 64
2, 62140, Note_off_c, 0, 54, 64
2, 62144, Note_off_c, 0, 61, 64
2, 62208, Control_c, 0, 64, 127
2, 62208, Control_c, 0, 64, 127
2, 62300, Note_off_c, 0, 69, 64
2, 62315, Note_on_c, 0, 66, 62
2, 62319, Note_on_c, 0, 69, 62
2, 62323, Note_on_c, 0, 54, 61
2, 62335, Control_c, 0, 64, 127
2, 62335, Control_c, 0, 64, 127
2, 62364, Note_off_c, 0, 54, 64
2, 62506, Control_c, 0, 64, 0
2, 62506, Control_c, 0, 64, 0
2, 62518, Note_on_c, 0, 40, 63
2, 62554, Control_c, 0, 64, 127
2, 62554, Control_c, 0, 64, 127
2, 62639, Note_on_c, 0, 71, 55
2, 62644, Note_off_c, 0, 69, 64
2, 62670, Note_off_c, 0, 66, 64
2, 62683, Note_on_c, 0, 69, 57
2, 62698, Note_off_c, 0, 71, 64
2, 62716, Control_c, 0, 64, 0
2, 62716, Control_c, 0, 64, 0
2, 62724, Note_on_c, 0, 64, 41
2, 62724, Note_on_c, 0, 59, 54
2, 62724, Note_on_c, 0, 52, 53
2, 62725, Note_on_c, 0, 68, 62
2, 62729, Note_off_c, 0, 40, 64
2, 62739, Note_off_c, 0, 69, 64
2, 62760, Control_c, 0, 64, 127
2, 62760, Control_c, 0, 64, 127
2, 62770, Note_off_c, 0, 59, 64
2, 62773, Note_off_c, 0, 52, 64
2, 62808, Note_off_c, 0, 64, 64
2, 62822, Note_on_c, 0, 69, 57
2, 62851, Note_off_c, 0, 68, 64
2, 62896, Note_on_c, 0, 62, 55
2, 62896, Note_on_c, 0, 52, 57
2, 62900, Note_on_c, 0, 71, 58
2, 62918, Control_c, 0, 64, 0
2, 62918, Control_c, 0, 64, 0
2, 62927, Note_off_c, 0, 69, 64
2, 62946, Control_c, 0, 64, 127
2, 62946, Control_c, 0, 64, 127
2, 62948, Note_off_c, 0, 52, 64
2, 63044, Note_on_c, 0, 66, 44
2, 63059, Note_off_c, 0, 71, 64
2, 63086, Note_on_c, 0, 64, 55
2, 63098, Control_c, 0, 64, 0
2, 63098, Control_c, 0, 64, 0
2, 63101, Note_on_c, 0, 45, 55
2, 63122, Note_off_c, 0, 66, 64
2, 63156, Control_c, 0, 64, 127
2, 63156, Control_c, 0, 64, 127
2, 63228, Note_on_c, 0, 69, 40
2, 63245, Note_off_c, 0, 64, 64
2, 63268, Note_on_c, 0, 57, 58
2, 63273, Note_on_c, 0, 73, 72
2, 63276, Note_on_c, 0, 61, 55
2, 63287, Control_c, 0, 64, 0
2, 63287, Control_c, 0, 64, 0
2, 63289, Note_off_c, 0, 69, 64
2, 63294, Note_off_c, 0, 45, 64
2, 63299, Note_off_c, 0, 62, 64
2, 63312, Note_off_c, 0, 57, 64
2, 63313, Control_c, 0, 64, 127
2, 63313, Control_c, 0, 64, 127
2, 63320, Note_off_c, 0, 61, 64
2, 63384, Control_c, 0, 64, 127
2, 63384, Control_c, 0, 64, 127
2, 63460, Note_off_c, 0, 73, 64
2, 63480, Note_on_c, 0, 73, 71
2, 63486, Control_c, 0, 64, 0
2, 63486, Control_c, 0, 64, 0
2, 63492, Note_on_c, 0, 57, 59
2, 63496, Note_on_c, 0, 64, 57
2, 63534, Control_c, 0, 64, 127
2, 63534, Control_c, 0, 64, 127
2, 63560, Note_off_c, 0, 57, 64
2, 63576, Note_off_c, 0, 64, 64
2, 63680, Note_on_c, 0, 63, 1
2, 63687, Note_on_c, 0, 66, 55
2, 63687, Note_on_c, 0, 57, 58
2, 63707, Control_c, 0, 64, 0
2, 63707, Control_c, 0, 64, 0
2, 63737, Control_c, 0, 64, 127
2, 63737, Control_c, 0, 64, 127
2, 63795, Note_on_c, 0, 75, 46
2, 63806, Note_off_c, 0, 73, 64
2, 63839, Note_on_c, 0, 73, 54
2, 63854, Note_off_c, 0, 75, 64
2, 63874, Note_on_c, 0, 72, 62
2, 63886, Note_on_c, 0, 56, 58
2, 63890, Note_off_c, 0, 73, 64
2, 63893, Note_off_c, 0, 57, 64
2, 63897, Control_c, 0, 64, 0
2, 63897, Control_c, 0, 64, 0
2, 63933, Control_c, 0, 64, 127
2, 63933, Control_c, 0, 64, 127
2, 63999, Note_off_c, 0, 72, 64
2, 64005, Note_on_c, 0, 68, 57
2, 64066, Note_on_c, 0, 71, 65
2, 64076, Note_on_c, 0, 65, 55
2, 64076, Note_on_c, 0, 61, 55
2, 64083, Note_off_c, 0, 68, 64
2, 64085, Note_off_c, 0, 63, 64
2, 64090, Control_c, 0, 64, 0
2, 64090, Control_c, 0, 64, 0
2, 64092, Note_off_c, 0, 66, 64
2, 64126, Control_c, 0, 64, 127
2, 64126, Control_c, 0, 64, 127
2, 64274, Note_off_c, 0, 61, 64
2, 64280, Note_on_c, 0, 61, 36
2, 64286, Note_on_c, 0, 64, 49
2, 64286, Note_on_c, 0, 55, 44
2, 64296, Control_c, 0, 64, 0
2, 64296, Control_c, 0, 64, 0
2, 64302, Note_off_c, 0, 56, 64
2, 64312, Note_off_c, 0, 65, 64
2, 64342, Control_c, 0, 64, 127
2, 64342, Control_c, 0, 64, 127
2, 64399, Note_off_c, 0, 71, 64
2, 64400, Note_on_c, 0, 73, 48
2, 64444, Note_on_c, 0, 71, 53
2, 64463, Note_off_c, 0, 73, 64
2, 64482, Note_on_c, 0, 70, 49
2, 64485, Note_on_c, 0, 54, 49
2, 64491, Control_c, 0, 64, 0
2, 64491, Control_c, 0, 64, 0
2, 64492, Note_off_c, 0, 55, 64
2, 64505, Note_off_c, 0, 71, 64
2, 64539, Control_c, 0, 64, 127
2, 64539, Control_c, 0, 64, 127
2, 64609, Note_on_c, 0, 66, 50
2, 64617, Note_off_c, 0, 70, 64
2, 64672, Note_on_c, 0, 69, 58
2, 64673, Note_on_c, 0, 63, 42
2, 64678, Note_on_c, 0, 60, 53
2, 64679, Note_off_c, 0, 66, 64
2, 64694, Control_c, 0, 64, 0
2, 64694, Control_c, 0, 64, 0
2, 64703, Note_off_c, 0, 61, 64
2, 64709, Note_off_c, 0, 64, 64
2, 64725, Control_c, 0, 64, 127
2, 64725, Control_c, 0, 64, 127
2, 64875, Note_on_c, 0, 62, 46
2, 64879, Note_on_c, 0, 53, 39
2, 64881, Note_on_c, 0, 59, 45
2, 64882, Note_off_c, 0, 63, 64
2, 64887, Note_off_c, 0, 60, 64
2, 64889, Note_off_c, 0, 54, 64
2, 64899, Control_c, 0, 64, 0
2, 64899, Control_c, 0, 64, 0
2, 64943, Control_c, 0, 64, 127
2, 64943, Control_c, 0, 64, 127
2, 64996, Note_on_c, 0, 71, 48
2, 65012, Note_off_c, 0, 69, 64
2, 65024, Note_on_c, 0, 69, 50
2, 65049, Note_off_c, 0, 71, 64
2, 65059, Note_on_c, 0, 68, 49
2, 65071, Note_on_c, 0, 52, 52
2, 65085, Note_off_c, 0, 69, 64
2, 65090, Note_off_c, 0, 53, 64
2, 65095, Control_c, 0, 64, 0
2, 65095, Control_c, 0, 64, 0
2, 65128, Control_c, 0, 64, 127
2, 65128, Control_c, 0, 64, 127
2, 65187, Note_on_c, 0, 64, 45
2, 65193, Note_off_c, 0, 68, 64
2, 65262, Note_on_c, 0, 67, 59
2, 65262, Note_on_c, 0, 61, 46
2, 65269, Note_on_c, 0, 58, 49
2, 65270, Note_off_c, 0, 62, 64
2, 65276, Note_off_c, 0, 59, 64
2, 65280, Control_c, 0, 64, 0
2, 65280, Control_c, 0, 64, 0
2, 65287, Note_off_c, 0, 64, 64
2, 65316, Control_c, 0, 64, 127
2, 65316, Control_c, 0, 64, 127
2, 65437, Note_off_c, 0, 61, 64
2, 65468, Note_on_c, 0, 51, 44
2, 65469, Note_off_c, 0, 52, 64
2, 65480, Note_on_c, 0, 57, 46
2, 65486, Note_off_c, 0, 58, 64
2, 65488, Note_on_c, 0, 61, 48
2, 65488, Control_c, 0, 64, 0
2, 65488, Control_c, 0, 64, 0
2, 65515, Control_c, 0, 64, 127
2, 65515, Control_c, 0, 64, 127
2, 65606, Note_on_c, 0, 69, 42
2, 65619, Note_off_c, 0, 67, 64
2, 65642, Note_on_c, 0, 67, 45
2, 65669, Note_off_c, 0, 69, 64
2, 65671, Note_on_c, 0, 50, 48
2, 65678, Note_on_c, 0, 66, 48
2, 65684, Control_c, 0, 64, 0
2, 65684, Control_c, 0, 64, 0
2, 65698, Note_off_c, 0, 51, 64
2, 65707, Note_off_c, 0, 67, 64
2, 65730, Control_c, 0, 64, 127
2, 65730, Control_c, 0, 64, 127
2, 65794, Note_on_c, 0, 62, 53
2, 65799, Note_off_c, 0, 66, 64
2, 65859, Note_off_c, 0, 61, 64
2, 65897, Control_c, 0, 64, 0
2, 65897, Control_c, 0, 64, 0
2, 65910, Note_on_c, 0, 66, 65
2, 65919, Note_on_c, 0, 56, 53
2, 65921, Note_on_c, 0, 59, 46
2, 65925, Note_off_c, 0, 57, 64
2, 65928, Control_c, 0, 64, 127
2, 65928, Control_c, 0, 64, 127
2, 65935, Note_off_c, 0, 62, 64
2, 66190, Note_on_c, 0, 49, 76
2, 66192, Note_on_c, 0, 37, 66
2, 66193, Note_off_c, 0, 56, 64
2, 66195, Note_off_c, 0, 59, 64
2, 66201, Control_c, 0, 64, 0
2, 66201, Control_c, 0, 64, 0
2, 66223, Note_off_c, 0, 50, 64
2, 66244, Control_c, 0, 64, 127
2, 66244, Control_c, 0, 64, 127
2, 66368, Note_off_c, 0, 66, 64
2, 66371, Note_on_c, 0, 68, 53
2, 66401, Note_off_c, 0, 49, 64
2, 66403, Note_off_c, 0, 37, 64
2, 66408, Note_on_c, 0, 66, 70
2, 66433, Note_off_c, 0, 68, 64
2, 66449, Note_on_c, 0, 49, 65
2, 66452, Note_on_c, 0, 65, 70
2, 66452, Note_on_c, 0, 56, 58
2, 66456, Note_on_c, 0, 59, 63
2, 66465, Note_off_c, 0, 66, 64
2, 66465, Control_c, 0, 64, 0
2, 66465, Control_c, 0, 64, 0
2, 66490, Control_c, 0, 64, 127
2, 66490, Control_c, 0, 64, 127
2, 66508, Note_off_c, 0, 49, 64
2, 66524, Note_off_c, 0, 59, 64
2, 66560, Note_off_c, 0, 56, 64
2, 66567, Note_on_c, 0, 66, 66
2, 66568, Note_off_c, 0, 65, 64
2, 66659, Control_c, 0, 64, 0
2, 66659, Control_c, 0, 64, 0
2, 66671, Note_on_c, 0, 68, 71
2, 66671, Note_on_c, 0, 49, 63
2, 66676, Note_on_c, 0, 59, 66
2, 66676, Note_on_c, 0, 53, 66
2, 66681, Note_off_c, 0, 66, 64
2, 66708, Control_c, 0, 64, 127
2, 66708, Control_c, 0, 64, 127
2, 66720, Note_off_c, 0, 59, 64
2, 66738, Note_off_c, 0, 53, 64
2, 66743, Note_off_c, 0, 49, 64
2, 66828, Note_on_c, 0, 62, 53
2, 66843, Note_off_c, 0, 68, 64
2, 66868, Control_c, 0, 64, 0
2, 66868, Control_c, 0, 64, 0
2, 66876, Note_on_c, 0, 61, 70
2, 66881, Note_on_c, 0, 42, 65
2, 66901, Note_off_c, 0, 62, 64
2, 66938, Control_c, 0, 64, 127
2, 66938, Control_c, 0, 64, 127
2, 67025, Note_on_c, 0, 66, 53
2, 67052, Note_off_c, 0, 61, 64
2, 67064, Control_c, 0, 64, 0
2, 67064, Control_c, 0, 64, 0
2, 67069, Note_on_c, 0, 69, 63
2, 67071, Note_on_c, 0, 54, 67
2, 67072, Note_on_c, 0, 61, 55
2, 67092, Note_off_c, 0, 42, 64
2, 67102, Note_off_c, 0, 66, 64
2, 67115, Note_off_c, 0, 54, 64
2, 67116, Note_off_c, 0, 61, 64
2, 67180, Control_c, 0, 64, 127
2, 67180, Control_c, 0, 64, 127
2, 67268, Note_off_c, 0, 69, 64
2, 67297, Note_on_c, 0, 61, 61
2, 67303, Note_on_c, 0, 69, 65
2, 67304, Note_on_c, 0, 66, 65
2, 67308, Note_on_c, 0, 54, 63
2, 67319, Control_c, 0, 64, 127
2, 67319, Control_c, 0, 64, 127
2, 67337, Note_off_c, 0, 61, 64
2, 67347, Note_off_c, 0, 54, 64
2, 67507, Note_on_c, 0, 40, 70
2, 67517, Control_c, 0, 64, 0
2, 67517, Control_c, 0, 64, 0
2, 67539, Control_c, 0, 64, 127
2, 67539, Control_c, 0, 64, 127
2, 67637, Note_on_c, 0, 71, 52
2, 67659, Note_off_c, 0, 69, 64
2, 67669, Note_off_c, 0, 66, 64
2, 67676, Note_on_c, 0, 69, 55
2, 67689, Note_off_c, 0, 71, 64
2, 67711, Note_on_c, 0, 68, 67
2, 67715, Note_on_c, 0, 64, 44
2, 67718, Note_off_c, 0, 40, 64
2, 67720, Note_on_c, 0, 52, 58
2, 67724, Note_on_c, 0, 59, 66
2, 67724, Control_c, 0, 64, 0
2, 67724, Control_c, 0, 64, 0
2, 67738, Note_off_c, 0, 69, 64
2, 67763, Note_off_c, 0, 59, 64
2, 67771, Control_c, 0, 64, 127
2, 67771, Control_c, 0, 64, 127
2, 67778, Note_off_c, 0, 52, 64
2, 67820, Note_off_c, 0, 64, 64
2, 67828, Note_on_c, 0, 69, 55
2, 67857, Note_off_c, 0, 68, 64
2, 67918, Note_on_c, 0, 71, 66
2, 67918, Note_on_c, 0, 62, 61
2, 67924, Note_on_c, 0, 52, 65
2, 67934, Control_c, 0, 64, 0
2, 67934, Control_c, 0, 64, 0
2, 67945, Note_off_c, 0, 69, 64
2, 67949, Control_c, 0, 64, 127
2, 67949, Control_c, 0, 64, 127
2, 67974, Note_off_c, 0, 52, 64
2, 68053, Note_on_c, 0, 66, 50
2, 68065, Note_off_c, 0, 71, 64
2, 68108, Note_on_c, 0, 45, 66
2, 68109, Control_c, 0, 64, 0
2, 68109, Control_c, 0, 64, 0
2, 68118, Note_on_c, 0, 64, 50
2, 68158, Note_off_c, 0, 66, 64
2, 68168, Control_c, 0, 64, 127
2, 68168, Control_c, 0, 64, 127
2, 68255, Note_on_c, 0, 69, 52
2, 68289, Note_off_c, 0, 64, 64
2, 68296, Control_c, 0, 64, 0
2, 68296, Control_c, 0, 64, 0
2, 68297, Note_off_c, 0, 62, 64
2, 68306, Note_on_c, 0, 73, 74
2, 68308, Note_on_c, 0, 61, 58
2, 68308, Note_on_c, 0, 57, 59
2, 68334, Note_off_c, 0, 69, 64
2, 68338, Control_c, 0, 64, 127
2, 68338, Control_c, 0, 64, 127
2, 68346, Note_off_c, 0, 45, 64
2, 68352, Note_off_c, 0, 57, 64
2, 68352, Note_off_c, 0, 61, 64
2, 68505, Note_off_c, 0, 73, 64
2, 68537, Note_on_c, 0, 73, 61
2, 68537, Note_on_c, 0, 57, 61
2, 68541, Note_on_c, 0, 64, 61
2, 68554, Control_c, 0, 64, 0
2, 68554, Control_c, 0, 64, 0
2, 68618, Control_c, 0, 64, 127
2, 68618, Control_c, 0, 64, 127
2, 68697, Note_off_c, 0, 64, 64
2, 68808, Note_off_c, 0, 73, 64
2, 68817, Note_on_c, 0, 76, 52
2, 68826, Note_on_c, 0, 50, 28
2, 68830, Note_on_c, 0, 65, 26
2, 68854, Control_c, 0, 64, 0
2, 68854, Control_c, 0, 64, 0
2, 68888, Control_c, 0, 64, 127
2, 68888, Control_c, 0, 64, 127
2, 68930, Note_off_c, 0, 57, 64
2, 68940, Note_off_c, 0, 50, 64
2, 68965, Note_on_c, 0, 74, 52
2, 68973, Note_off_c, 0, 76, 64
2, 68992, Note_off_c, 0, 65, 64
2, 68999, Note_on_c, 0, 73, 61
2, 69030, Note_off_c, 0, 74, 64
2, 69050, Note_on_c, 0, 71, 57
2, 69055, Note_on_c, 0, 57, 46
2, 69057, Note_on_c, 0, 50, 40
2, 69065, Note_on_c, 0, 65, 42
2, 69071, Control_c, 0, 64, 0
2, 69071, Control_c, 0, 64, 0
2, 69080, Note_off_c, 0, 73, 64
2, 69097, Control_c, 0, 64, 127
2, 69097, Control_c, 0, 64, 127
2, 69132, Note_off_c, 0, 50, 64
2, 69139, Note_off_c, 0, 57, 64
2, 69155, Note_off_c, 0, 65, 64
2, 69270, Note_on_c, 0, 73, 58
2, 69277, Note_on_c, 0, 64, 44
2, 69285, Note_on_c, 0, 45, 44
2, 69288, Note_on_c, 0, 57, 46
2, 69293, Note_off_c, 0, 71, 64
2, 69304, Control_c, 0, 64, 0
2, 69304, Control_c, 0, 64, 0
2, 69346, Control_c, 0, 64, 127
2, 69346, Control_c, 0, 64, 127
2, 69419, Note_off_c, 0, 64, 64
2, 69464, Note_off_c, 0, 45, 64
2, 69520, Note_on_c, 0, 65, 52
2, 69527, Note_on_c, 0, 76, 57
2, 69532, Note_off_c, 0, 73, 64
2, 69532, Note_on_c, 0, 50, 44
2, 69551, Control_c, 0, 64, 0
2, 69551, Control_c, 0, 64, 0
2, 69574, Control_c, 0, 64, 127
2, 69574, Control_c, 0, 64, 127
2, 69628, Note_off_c, 0, 57, 64
2, 69654, Note_off_c, 0, 50, 64
2, 69677, Note_on_c, 0, 74, 52
2, 69692, Note_off_c, 0, 65, 64
2, 69705, Note_off_c, 0, 76, 64
2, 69716, Note_on_c, 0, 73, 63
2, 69752, Note_on_c, 0, 57, 40
2, 69755, Note_on_c, 0, 50, 35
2, 69761, Note_off_c, 0, 74, 64
2, 69763, Note_on_c, 0, 71, 42
2, 69768, Note_on_c, 0, 65, 39
2, 69785, Control_c, 0, 64, 0
2, 69785, Control_c, 0, 64, 0
2, 69792, Note_off_c, 0, 73, 64
2, 69811, Control_c, 0, 64, 127
2, 69811, Control_c, 0, 64, 127
2, 69866, Note_off_c, 0, 65, 64
2, 69869, Note_off_c, 0, 50, 64
2, 69941, Note_off_c, 0, 57, 64
2, 70010, Note_on_c, 0, 73, 55
2, 70013, Note_on_c, 0, 64, 42
2, 70019, Note_on_c, 0, 45, 35
2, 70024, Note_off_c, 0, 71, 64
2, 70029, Note_on_c, 0, 57, 31
2, 70049, Control_c, 0, 64, 0
2, 70049, Control_c, 0, 64, 0
2, 70085, Control_c, 0, 64, 127
2, 70085, Control_c, 0, 64, 127
2, 70131, Note_off_c, 0, 64, 64
2, 70199, Note_off_c, 0, 45, 64
2, 70312, Note_on_c, 0, 76, 57
2, 70320, Note_on_c, 0, 66, 48
2, 70320, Note_on_c, 0, 50, 48
2, 70327, Note_off_c, 0, 73, 64
2, 70352, Control_c, 0, 64, 0
2, 70352, Control_c, 0, 64, 0
2, 70383, Control_c, 0, 64, 127
2, 70383, Control_c, 0, 64, 127
2, 70403, Note_off_c, 0, 50, 64
2, 70478, Note_on_c, 0, 74, 52
2, 70506, Note_off_c, 0, 76, 64
2, 70508, Note_on_c, 0, 73, 58
2, 70529, Note_off_c, 0, 74, 64
2, 70563, Note_on_c, 0, 71, 61
2, 70566, Note_on_c, 0, 56, 52
2, 70580, Note_off_c, 0, 73, 64
2, 70600, Control_c, 0, 64, 0
2, 70600, Control_c, 0, 64, 0
2, 70622, Note_off_c, 0, 57, 64
2, 70638, Control_c, 0, 64, 127
2, 70638, Control_c, 0, 64, 127
2, 70782, Note_off_c, 0, 66, 64
2, 70864, Note_off_c, 0, 56, 64
2, 70887, Note_on_c, 0, 73, 57
2, 70892, Note_on_c, 0, 61, 29
2, 70892, Note_on_c, 0, 49, 39
2, 70893, Note_off_c, 0, 71, 64
2, 70899, Note_on_c, 0, 65, 53
2, 70923, Control_c, 0, 64, 0
2, 70923, Control_c, 0, 64, 0
2, 70957, Control_c, 0, 64, 127
2, 70957, Control_c, 0, 64, 127
2, 71029, Note_off_c, 0, 49, 64
2, 71066, Note_off_c, 0, 61, 64
2, 71086, Note_off_c, 0, 65, 64
2, 71279, Note_on_c, 0, 54, 42
2, 71287, Note_on_c, 0, 66, 39
2, 71290, Note_on_c, 0, 71, 46
2, 71295, Note_on_c, 0, 62, 31
2, 71316, Note_off_c, 0, 73, 64
2, 71316, Control_c, 0, 64, 0
2, 71316, Control_c, 0, 64, 0
2, 71350, Control_c, 0, 64, 127
2, 71350, Control_c, 0, 64, 127
2, 71415, Note_off_c, 0, 71, 64
2, 71418, Note_on_c, 0, 61, 52
2, 71423, Note_on_c, 0, 69, 52
2, 71471, Note_off_c, 0, 62, 64
2, 71523, Note_on_c, 0, 68, 54
2, 71531, Note_off_c, 0, 66, 64
2, 71531, Note_on_c, 0, 59, 50
2, 71534, Note_off_c, 0, 61, 64
2, 71536, Note_off_c, 0, 69, 64
2, 71652, Note_on_c, 0, 66, 48
2, 71654, Note_off_c, 0, 59, 64
2, 71659, Note_on_c, 0, 57, 40
2, 71666, Note_off_c, 0, 68, 64
2, 71705, Control_c, 0, 64, 0
2, 71705, Control_c, 0, 64, 0
2, 72687, Note_off_c, 0, 54, 64
2, 72704, Note_off_c, 0, 57, 64
2, 72716, Note_off_c, 0, 66, 64
2, 72716, End_track
3, 0, Start_track
3, 0, Title_t, "Played by Dr. Ron Lubetsky"
3, 0, End_track
4, 0, Start_track
4, 0, Title_t, "Jan. 25, 1998"
4, 0, End_track
5, 0, Start_track
5, 0, Title_t, "email: acuity2020@aol.com"
5, 0, End_track
6, 0, Start_track
6, 0, Title_t, "Copyright  1998"
6, 0, End_track
7, 0, Start_track
7, 0, Title_t, "All Rights Reserved"
7, 0, End_track
0, 0, End_of_file
