2, 0, Program_c, 0, 0
2, 0, Control_c, 0, 7, 127
2, 17, Control_c, 0, 64, 127
2, 17, Control_c, 0, 64, 127
2, 114, Control_c, 0, 64, 0
2, 114, Control_c, 0, 64, 0
2, 132, Note_on_c, 0, 47, 56
2, 132, Note_on_c, 0, 35, 56
2, 134, Note_on_c, 0, 63, 60
2, 134, Note_on_c, 0, 59, 61
2, 134, Note_on_c, 0, 54, 61
2, 184, Control_c, 0, 64, 127
2, 184, Control_c, 0, 64, 127
2, 335, Note_off_c, 0, 35, 64
2, 335, Note_off_c, 0, 47, 64
2, 337, Note_off_c, 0, 54, 64
2, 337, Note_off_c, 0, 59, 64
2, 337, Note_off_c, 0, 63, 64
2, 366, Note_on_c, 0, 54, 70
2, 433, Note_on_c, 0, 59, 56
2, 470, Note_off_c, 0, 54, 64
2, 523, Note_on_c, 0, 63, 41
2, 557, Note_off_c, 0, 59, 64
2, 590, Note_on_c, 0, 64, 56
2, 593, Note_on_c, 0, 61, 46
2, 612, Note_off_c, 0, 63, 64
2, 674, Note_on_c, 0, 65, 64
2, 680, Note_on_c, 0, 62, 67
2, 683, Control_c, 0, 64, 0
2, 683, Control_c, 0, 64, 0
2, 708, Note_off_c, 0, 64, 64
2, 711, Note_off_c, 0, 61, 64
2, 716, Control_c, 0, 64, 127
2, 716, Control_c, 0, 64, 127
2, 779, Note_off_c, 0, 62, 64
2, 801, Note_off_c, 0, 65, 64
2, 809, Note_on_c, 0, 56, 60
2, 843, Note_off_c, 0, 56, 64
2, 845, Control_c, 0, 64, 0
2, 845, Control_c, 0, 64, 0
2, 850, Note_on_c, 0, 62, 60
2, 851, Note_on_c, 0, 47, 56
2, 851, Note_on_c, 0, 65, 64
2, 856, Note_on_c, 0, 56, 60
2, 886, Control_c, 0, 64, 127
2, 886, Control_c, 0, 64, 127
2, 1024, Note_on_c, 0, 63, 53
2, 1028, Note_off_c, 0, 47, 64
2, 1037, Note_on_c, 0, 66, 59
2, 1037, Note_on_c, 0, 47, 54
2, 1037, Control_c, 0, 64, 0
2, 1037, Control_c, 0, 64, 0
2, 1043, Note_off_c, 0, 62, 64
2, 1044, Note_off_c, 0, 65, 64
2, 1047, Note_on_c, 0, 54, 64
2, 1049, Note_off_c, 0, 56, 64
2, 1067, Control_c, 0, 64, 127
2, 1067, Control_c, 0, 64, 127
2, 1201, Note_on_c, 0, 40, 46
2, 1208, Note_off_c, 0, 47, 64
2, 1217, Note_off_c, 0, 63, 64
2, 1224, Note_on_c, 0, 47, 52
2, 1230, Note_off_c, 0, 66, 64
2, 1240, Note_off_c, 0, 54, 64
2, 1253, Note_on_c, 0, 56, 61
2, 1280, Note_on_c, 0, 64, 57
2, 1286, Control_c, 0, 64, 0
2, 1286, Control_c, 0, 64, 0
2, 1303, Note_on_c, 0, 71, 61
2, 1323, Control_c, 0, 64, 127
2, 1323, Control_c, 0, 64, 127
2, 1331, Note_off_c, 0, 40, 64
2, 1338, Note_off_c, 0, 47, 64
2, 1423, Note_off_c, 0, 56, 64
2, 1450, Note_off_c, 0, 64, 64
2, 1473, Note_off_c, 0, 71, 64
2, 1499, Note_on_c, 0, 59, 50
2, 1568, Note_on_c, 0, 68, 61
2, 1571, Note_on_c, 0, 71, 58
2, 1605, Note_off_c, 0, 59, 64
2, 1672, Note_on_c, 0, 70, 67
2, 1672, Note_on_c, 0, 66, 64
2, 1682, Note_off_c, 0, 68, 64
2, 1685, Note_off_c, 0, 71, 64
2, 1706, Note_on_c, 0, 71, 60
2, 1725, Note_off_c, 0, 66, 64
2, 1725, Note_off_c, 0, 70, 64
2, 1728, Note_on_c, 0, 59, 50
2, 1728, Note_on_c, 0, 52, 51
2, 1732, Note_on_c, 0, 70, 65
2, 1732, Note_on_c, 0, 66, 60
2, 1764, Note_off_c, 0, 71, 64
2, 1813, Note_on_c, 0, 68, 54
2, 1816, Note_on_c, 0, 64, 64
2, 1819, Note_off_c, 0, 66, 64
2, 1819, Note_off_c, 0, 70, 64
2, 1901, Note_off_c, 0, 52, 64
2, 1901, Note_off_c, 0, 59, 64
2, 1904, Note_on_c, 0, 62, 65
2, 1905, Note_on_c, 0, 65, 60
2, 1916, Note_off_c, 0, 64, 64
2, 1917, Control_c, 0, 64, 0
2, 1917, Control_c, 0, 64, 0
2, 1918, Note_off_c, 0, 68, 64
2, 1938, Control_c, 0, 64, 127
2, 1938, Control_c, 0, 64, 127
2, 1994, Note_off_c, 0, 62, 64
2, 1995, Note_off_c, 0, 65, 64
2, 2046, Note_on_c, 0, 56, 50
2, 2076, Note_on_c, 0, 62, 59
2, 2077, Note_off_c, 0, 56, 64
2, 2079, Note_on_c, 0, 65, 56
2, 2080, Note_on_c, 0, 56, 59
2, 2083, Note_on_c, 0, 47, 59
2, 2094, Control_c, 0, 64, 0
2, 2094, Control_c, 0, 64, 0
2, 2133, Control_c, 0, 64, 127
2, 2133, Control_c, 0, 64, 127
2, 2253, Note_off_c, 0, 47, 64
2, 2264, Note_on_c, 0, 54, 59
2, 2268, Note_on_c, 0, 66, 64
2, 2271, Note_on_c, 0, 47, 55
2, 2274, Note_on_c, 0, 63, 60
2, 2284, Note_off_c, 0, 56, 64
2, 2284, Note_off_c, 0, 62, 64
2, 2287, Note_off_c, 0, 65, 64
2, 2441, Note_off_c, 0, 47, 64
2, 2464, Note_on_c, 0, 58, 56
2, 2468, Note_off_c, 0, 54, 64
2, 2468, Note_on_c, 0, 68, 62
2, 2471, Note_on_c, 0, 64, 62
2, 2478, Note_on_c, 0, 30, 55
2, 2480, Control_c, 0, 64, 0
2, 2480, Control_c, 0, 64, 0
2, 2483, Note_off_c, 0, 66, 64
2, 2484, Note_on_c, 0, 42, 59
2, 2489, Note_off_c, 0, 63, 64
2, 2503, Control_c, 0, 64, 127
2, 2503, Control_c, 0, 64, 127
2, 2664, Note_on_c, 0, 54, 57
2, 2667, Note_off_c, 0, 58, 64
2, 2671, Note_off_c, 0, 68, 64
2, 2674, Note_off_c, 0, 64, 64
2, 2681, Note_off_c, 0, 30, 64
2, 2687, Note_off_c, 0, 42, 64
2, 2745, Note_on_c, 0, 68, 58
2, 2762, Note_off_c, 0, 54, 64
2, 2820, Note_on_c, 0, 66, 51
2, 2820, Note_on_c, 0, 63, 48
2, 2843, Note_off_c, 0, 68, 64
2, 2848, Note_on_c, 0, 68, 52
2, 2861, Note_off_c, 0, 63, 64
2, 2861, Note_off_c, 0, 66, 64
2, 2866, Control_c, 0, 64, 0
2, 2866, Control_c, 0, 64, 0
2, 2868, Note_on_c, 0, 54, 50
2, 2868, Note_on_c, 0, 58, 47
2, 2868, Note_on_c, 0, 63, 63
2, 2868, Note_on_c, 0, 66, 67
2, 2872, Note_on_c, 0, 42, 46
2, 2882, Control_c, 0, 64, 0
2, 2882, Control_c, 0, 64, 0
2, 2906, Note_off_c, 0, 68, 64
2, 2925, Control_c, 0, 64, 0
2, 2925, Control_c, 0, 64, 0
2, 2955, Note_off_c, 0, 66, 64
2, 2955, Note_off_c, 0, 63, 64
2, 2968, Control_c, 0, 64, 127
2, 2968, Control_c, 0, 64, 127
2, 2976, Note_on_c, 0, 64, 51
2, 2976, Note_on_c, 0, 61, 56
2, 3039, Note_off_c, 0, 58, 64
2, 3070, Note_on_c, 0, 62, 65
2, 3071, Note_off_c, 0, 54, 64
2, 3073, Note_on_c, 0, 58, 75
2, 3075, Note_off_c, 0, 42, 64
2, 3078, Note_off_c, 0, 61, 64
2, 3078, Note_off_c, 0, 64, 64
2, 3093, Control_c, 0, 64, 0
2, 3093, Control_c, 0, 64, 0
2, 3108, Control_c, 0, 64, 127
2, 3108, Control_c, 0, 64, 127
2, 3198, Note_off_c, 0, 62, 64
2, 3201, Note_off_c, 0, 58, 64
2, 3205, Note_on_c, 0, 51, 60
2, 3240, Note_on_c, 0, 58, 76
2, 3247, Note_on_c, 0, 62, 65
2, 3257, Note_on_c, 0, 44, 57
2, 3266, Control_c, 0, 64, 0
2, 3266, Control_c, 0, 64, 0
2, 3269, Note_off_c, 0, 51, 64
2, 3290, Control_c, 0, 64, 127
2, 3290, Control_c, 0, 64, 127
2, 3437, Note_off_c, 0, 44, 64
2, 3440, Note_on_c, 0, 63, 65
2, 3440, Note_on_c, 0, 59, 65
2, 3440, Note_on_c, 0, 54, 65
2, 3444, Note_on_c, 0, 51, 56
2, 3444, Note_on_c, 0, 44, 56
2, 3448, Note_off_c, 0, 58, 64
2, 3455, Note_off_c, 0, 62, 64
2, 3455, Control_c, 0, 64, 0
2, 3455, Control_c, 0, 64, 0
2, 3485, Control_c, 0, 64, 127
2, 3485, Control_c, 0, 64, 127
2, 3613, Note_off_c, 0, 54, 64
2, 3613, Note_off_c, 0, 59, 64
2, 3613, Note_off_c, 0, 63, 64
2, 3617, Note_off_c, 0, 44, 64
2, 3617, Note_off_c, 0, 51, 64
2, 3640, Note_on_c, 0, 37, 60
2, 3645, Note_on_c, 0, 63, 61
2, 3646, Note_on_c, 0, 59, 59
2, 3662, Control_c, 0, 64, 0
2, 3662, Control_c, 0, 64, 0
2, 3685, Control_c, 0, 64, 127
2, 3685, Control_c, 0, 64, 127
2, 3828, Note_on_c, 0, 49, 44
2, 3828, Note_on_c, 0, 56, 52
2, 3830, Note_on_c, 0, 53, 49
2, 3843, Note_off_c, 0, 37, 64
2, 3848, Note_off_c, 0, 63, 64
2, 3849, Note_off_c, 0, 59, 64
2, 3903, Note_off_c, 0, 56, 64
2, 3903, Note_off_c, 0, 49, 64
2, 3936, Note_on_c, 0, 59, 50
2, 3940, Note_on_c, 0, 63, 72
2, 3960, Note_off_c, 0, 53, 64
2, 3990, Note_off_c, 0, 63, 64
2, 3990, Note_off_c, 0, 59, 64
2, 4018, Note_on_c, 0, 63, 72
2, 4018, Note_on_c, 0, 59, 60
2, 4038, Note_on_c, 0, 65, 64
2, 4049, Note_off_c, 0, 59, 64
2, 4049, Note_off_c, 0, 63, 64
2, 4052, Control_c, 0, 64, 0
2, 4052, Control_c, 0, 64, 0
2, 4054, Note_on_c, 0, 59, 64
2, 4060, Note_on_c, 0, 63, 73
2, 4068, Control_c, 0, 64, 127
2, 4068, Control_c, 0, 64, 127
2, 4092, Note_off_c, 0, 65, 64
2, 4131, Note_off_c, 0, 59, 64
2, 4137, Note_off_c, 0, 63, 64
2, 4170, Note_on_c, 0, 58, 64
2, 4174, Note_on_c, 0, 61, 68
2, 4222, Note_on_c, 0, 42, 61
2, 4227, Note_on_c, 0, 68, 64
2, 4227, Note_on_c, 0, 64, 65
2, 4229, Note_off_c, 0, 58, 64
2, 4233, Note_off_c, 0, 61, 64
2, 4241, Control_c, 0, 64, 0
2, 4241, Control_c, 0, 64, 0
2, 4264, Control_c, 0, 64, 127
2, 4264, Control_c, 0, 64, 127
2, 4321, Note_off_c, 0, 68, 64
2, 4342, Note_on_c, 0, 71, 67
2, 4342, Note_on_c, 0, 68, 65
2, 4349, Note_off_c, 0, 64, 64
2, 4437, Note_on_c, 0, 61, 65
2, 4437, Note_on_c, 0, 58, 67
2, 4446, Note_on_c, 0, 54, 52
2, 4460, Control_c, 0, 64, 0
2, 4460, Control_c, 0, 64, 0
2, 4462, Note_off_c, 0, 42, 64
2, 4464, Note_off_c, 0, 68, 64
2, 4464, Note_off_c, 0, 71, 64
2, 4471, Control_c, 0, 64, 127
2, 4471, Control_c, 0, 64, 127
2, 4560, Note_off_c, 0, 58, 64
2, 4560, Note_off_c, 0, 61, 64
2, 4569, Note_off_c, 0, 54, 64
2, 4630, Note_on_c, 0, 68, 65
2, 4634, Note_on_c, 0, 64, 61
2, 4636, Note_on_c, 0, 54, 51
2, 4636, Note_on_c, 0, 58, 50
2, 4636, Note_on_c, 0, 61, 50
2, 4833, Note_off_c, 0, 68, 64
2, 4837, Note_off_c, 0, 64, 64
2, 4839, Note_off_c, 0, 61, 64
2, 4839, Note_off_c, 0, 58, 64
2, 4839, Note_off_c, 0, 54, 64
2, 4860, Note_on_c, 0, 75, 64
2, 4865, Note_on_c, 0, 66, 61
2, 4865, Note_on_c, 0, 47, 37
2, 4865, Note_on_c, 0, 35, 54
2, 4871, Note_on_c, 0, 63, 53
2, 4885, Control_c, 0, 64, 0
2, 4885, Control_c, 0, 64, 0
2, 4909, Control_c, 0, 64, 127
2, 4909, Control_c, 0, 64, 127
2, 5033, Note_off_c, 0, 75, 64
2, 5038, Note_off_c, 0, 35, 64
2, 5038, Note_off_c, 0, 47, 64
2, 5038, Note_off_c, 0, 66, 64
2, 5044, Note_off_c, 0, 63, 64
2, 5056, Note_on_c, 0, 59, 52
2, 5060, Note_on_c, 0, 63, 52
2, 5061, Note_on_c, 0, 54, 44
2, 5063, Note_on_c, 0, 66, 67
2, 5148, Note_on_c, 0, 75, 51
2, 5148, Note_on_c, 0, 71, 51
2, 5166, Note_off_c, 0, 66, 64
2, 5179, Note_off_c, 0, 59, 64
2, 5183, Note_off_c, 0, 63, 64
2, 5184, Note_off_c, 0, 54, 64
2, 5228, Note_on_c, 0, 76, 54
2, 5228, Note_on_c, 0, 73, 54
2, 5241, Note_off_c, 0, 71, 64
2, 5241, Note_off_c, 0, 75, 64
2, 5301, Note_off_c, 0, 73, 64
2, 5301, Note_off_c, 0, 76, 64
2, 5349, Note_on_c, 0, 77, 61
2, 5354, Note_on_c, 0, 74, 61
2, 5380, Note_off_c, 0, 74, 64
2, 5383, Note_off_c, 0, 77, 64
2, 5412, Note_on_c, 0, 47, 55
2, 5418, Note_on_c, 0, 77, 67
2, 5418, Note_on_c, 0, 74, 70
2, 5425, Control_c, 0, 64, 0
2, 5425, Control_c, 0, 64, 0
2, 5454, Control_c, 0, 64, 127
2, 5454, Control_c, 0, 64, 127
2, 5496, Note_on_c, 0, 68, 64
2, 5539, Note_off_c, 0, 74, 64
2, 5556, Note_off_c, 0, 77, 64
2, 5596, Note_on_c, 0, 59, 32
2, 5596, Note_on_c, 0, 74, 55
2, 5598, Note_on_c, 0, 56, 41
2, 5598, Note_on_c, 0, 77, 62
2, 5600, Note_on_c, 0, 62, 50
2, 5614, Control_c, 0, 64, 0
2, 5614, Control_c, 0, 64, 0
2, 5618, Note_off_c, 0, 68, 64
2, 5648, Control_c, 0, 64, 127
2, 5648, Control_c, 0, 64, 127
2, 5700, Note_off_c, 0, 47, 64
2, 5787, Note_off_c, 0, 59, 64
2, 5796, Note_on_c, 0, 63, 49
2, 5799, Note_off_c, 0, 74, 64
2, 5799, Note_on_c, 0, 78, 67
2, 5799, Note_on_c, 0, 75, 64
2, 5799, Note_on_c, 0, 59, 54
2, 5800, Note_on_c, 0, 66, 60
2, 5800, Note_on_c, 0, 54, 56
2, 5801, Note_off_c, 0, 77, 64
2, 5801, Note_off_c, 0, 56, 64
2, 5803, Note_off_c, 0, 62, 64
2, 5915, Note_on_c, 0, 68, 64
2, 5919, Note_off_c, 0, 63, 64
2, 5922, Note_off_c, 0, 59, 64
2, 5922, Note_off_c, 0, 75, 64
2, 5922, Note_off_c, 0, 78, 64
2, 5923, Note_off_c, 0, 54, 64
2, 5923, Note_off_c, 0, 66, 64
2, 5946, Note_off_c, 0, 68, 64
2, 5983, Note_on_c, 0, 68, 72
2, 6018, Note_on_c, 0, 76, 61
2, 6036, Note_on_c, 0, 52, 48
2, 6040, Note_on_c, 0, 83, 76
2, 6040, Note_on_c, 0, 40, 44
2, 6043, Control_c, 0, 64, 0
2, 6043, Control_c, 0, 64, 0
2, 6081, Control_c, 0, 64, 127
2, 6081, Control_c, 0, 64, 127
2, 6225, Note_off_c, 0, 68, 64
2, 6260, Note_off_c, 0, 76, 64
2, 6282, Note_off_c, 0, 83, 64
2, 6288, Note_on_c, 0, 64, 51
2, 6288, Note_on_c, 0, 56, 55
2, 6289, Note_on_c, 0, 68, 40
2, 6292, Note_on_c, 0, 59, 55
2, 6294, Note_on_c, 0, 71, 51
2, 6373, Note_on_c, 0, 80, 75
2, 6375, Note_on_c, 0, 83, 60
2, 6408, Note_off_c, 0, 52, 64
2, 6412, Note_off_c, 0, 40, 64
2, 6472, Note_on_c, 0, 82, 67
2, 6472, Note_on_c, 0, 78, 67
2, 6478, Note_off_c, 0, 80, 64
2, 6480, Note_off_c, 0, 83, 64
2, 6491, Note_off_c, 0, 56, 64
2, 6491, Note_off_c, 0, 64, 64
2, 6492, Note_off_c, 0, 68, 64
2, 6495, Note_off_c, 0, 59, 64
2, 6497, Note_off_c, 0, 71, 64
2, 6501, Note_on_c, 0, 83, 64
2, 6511, Note_off_c, 0, 78, 64
2, 6511, Note_off_c, 0, 82, 64
2, 6532, Note_on_c, 0, 82, 69
2, 6532, Note_on_c, 0, 78, 76
2, 6568, Note_off_c, 0, 83, 64
2, 6600, Note_on_c, 0, 76, 60
2, 6601, Note_on_c, 0, 80, 56
2, 6603, Note_off_c, 0, 78, 64
2, 6603, Note_off_c, 0, 82, 64
2, 6692, Note_on_c, 0, 74, 72
2, 6694, Note_on_c, 0, 77, 64
2, 6703, Note_off_c, 0, 76, 64
2, 6704, Note_off_c, 0, 80, 64
2, 6712, Note_on_c, 0, 47, 59
2, 6732, Control_c, 0, 64, 0
2, 6732, Control_c, 0, 64, 0
2, 6745, Control_c, 0, 64, 127
2, 6745, Control_c, 0, 64, 127
2, 6800, Note_off_c, 0, 74, 64
2, 6807, Note_off_c, 0, 77, 64
2, 6810, Note_on_c, 0, 68, 62
2, 6856, Note_on_c, 0, 59, 51
2, 6856, Note_on_c, 0, 56, 49
2, 6860, Note_on_c, 0, 74, 59
2, 6860, Note_on_c, 0, 62, 39
2, 6861, Note_on_c, 0, 77, 60
2, 6888, Note_off_c, 0, 68, 64
2, 6889, Control_c, 0, 64, 0
2, 6889, Control_c, 0, 64, 0
2, 6914, Control_c, 0, 64, 127
2, 6914, Control_c, 0, 64, 127
2, 7013, Note_off_c, 0, 47, 64
2, 7039, Note_off_c, 0, 59, 64
2, 7046, Note_on_c, 0, 78, 62
2, 7048, Note_on_c, 0, 66, 60
2, 7049, Note_on_c, 0, 75, 60
2, 7052, Note_on_c, 0, 59, 48
2, 7052, Note_on_c, 0, 54, 49
2, 7055, Note_on_c, 0, 63, 48
2, 7059, Note_off_c, 0, 56, 64
2, 7063, Note_off_c, 0, 62, 64
2, 7063, Note_off_c, 0, 74, 64
2, 7064, Note_off_c, 0, 77, 64
2, 7069, Control_c, 0, 64, 0
2, 7069, Control_c, 0, 64, 0
2, 7099, Control_c, 0, 64, 127
2, 7099, Control_c, 0, 64, 127
2, 7251, Control_c, 0, 64, 127
2, 7251, Control_c, 0, 64, 127
2, 7258, Note_off_c, 0, 63, 64
2, 7260, Note_on_c, 0, 42, 58
2, 7262, Note_off_c, 0, 54, 64
2, 7262, Note_off_c, 0, 59, 64
2, 7264, Note_on_c, 0, 80, 61
2, 7264, Note_on_c, 0, 76, 61
2, 7264, Note_on_c, 0, 70, 60
2, 7264, Note_on_c, 0, 54, 53
2, 7267, Note_off_c, 0, 75, 64
2, 7268, Note_off_c, 0, 66, 64
2, 7270, Note_off_c, 0, 78, 64
2, 7450, Note_off_c, 0, 42, 64
2, 7454, Note_off_c, 0, 54, 64
2, 7454, Note_off_c, 0, 70, 64
2, 7454, Note_off_c, 0, 76, 64
2, 7454, Note_off_c, 0, 80, 64
2, 7499, Note_on_c, 0, 66, 60
2, 7504, Note_on_c, 0, 54, 52
2, 7506, Note_on_c, 0, 64, 51
2, 7506, Note_on_c, 0, 61, 54
2, 7568, Note_off_c, 0, 61, 64
2, 7569, Note_off_c, 0, 54, 64
2, 7579, Note_off_c, 0, 64, 64
2, 7618, Note_on_c, 0, 70, 73
2, 7618, Note_on_c, 0, 76, 60
2, 7618, Note_on_c, 0, 80, 60
2, 7625, Note_off_c, 0, 66, 64
2, 7688, Note_on_c, 0, 78, 68
2, 7688, Note_on_c, 0, 75, 61
2, 7699, Note_off_c, 0, 80, 64
2, 7699, Note_off_c, 0, 76, 64
2, 7699, Note_off_c, 0, 70, 64
2, 7717, Note_on_c, 0, 80, 62
2, 7725, Note_off_c, 0, 75, 64
2, 7725, Note_off_c, 0, 78, 64
2, 7744, Note_on_c, 0, 78, 70
2, 7744, Note_on_c, 0, 75, 75
2, 7744, Note_on_c, 0, 70, 79
2, 7762, Note_off_c, 0, 80, 64
2, 7856, Control_c, 0, 64, 127
2, 7856, Control_c, 0, 64, 127
2, 7867, Note_off_c, 0, 70, 64
2, 7867, Note_off_c, 0, 75, 64
2, 7867, Note_off_c, 0, 78, 64
2, 7876, Note_on_c, 0, 76, 52
2, 7876, Note_on_c, 0, 73, 52
2, 7897, Control_c, 0, 64, 0
2, 7897, Control_c, 0, 64, 0
2, 7916, Note_on_c, 0, 70, 70
2, 7917, Note_on_c, 0, 74, 60
2, 7920, Note_off_c, 0, 73, 64
2, 7920, Note_off_c, 0, 76, 64
2, 7932, Note_on_c, 0, 44, 60
2, 7956, Control_c, 0, 64, 0
2, 7956, Control_c, 0, 64, 0
2, 7979, Control_c, 0, 64, 127
2, 7979, Control_c, 0, 64, 127
2, 8014, Note_off_c, 0, 74, 64
2, 8015, Note_off_c, 0, 70, 64
2, 8020, Note_on_c, 0, 63, 56
2, 8080, Control_c, 0, 64, 127
2, 8080, Control_c, 0, 64, 127
2, 8088, Note_on_c, 0, 74, 64
2, 8088, Note_on_c, 0, 56, 52
2, 8090, Note_on_c, 0, 70, 73
2, 8090, Note_on_c, 0, 59, 73
2, 8092, Note_on_c, 0, 51, 52
2, 8094, Note_off_c, 0, 63, 64
2, 8105, Control_c, 0, 64, 0
2, 8105, Control_c, 0, 64, 0
2, 8105, Control_c, 0, 64, 0
2, 8105, Control_c, 0, 64, 0
2, 8142, Control_c, 0, 64, 127
2, 8142, Control_c, 0, 64, 127
2, 8220, Note_off_c, 0, 44, 64
2, 8261, Note_off_c, 0, 56, 64
2, 8261, Note_off_c, 0, 74, 64
2, 8263, Note_off_c, 0, 59, 64
2, 8263, Note_off_c, 0, 70, 64
2, 8265, Note_off_c, 0, 51, 64
2, 8276, Note_on_c, 0, 51, 49
2, 8279, Note_on_c, 0, 59, 43
2, 8280, Note_on_c, 0, 75, 64
2, 8280, Note_on_c, 0, 63, 43
2, 8280, Note_on_c, 0, 56, 49
2, 8281, Note_on_c, 0, 71, 60
2, 8284, Note_on_c, 0, 66, 49
2, 8449, Note_off_c, 0, 51, 64
2, 8452, Note_off_c, 0, 59, 64
2, 8453, Note_off_c, 0, 56, 64
2, 8453, Note_off_c, 0, 63, 64
2, 8453, Note_off_c, 0, 75, 64
2, 8454, Note_off_c, 0, 71, 64
2, 8457, Note_off_c, 0, 66, 64
2, 8486, Note_on_c, 0, 75, 64
2, 8488, Note_on_c, 0, 65, 60
2, 8490, Note_on_c, 0, 71, 60
2, 8492, Note_on_c, 0, 37, 62
2, 8492, Note_on_c, 0, 49, 62
2, 8499, Control_c, 0, 64, 0
2, 8499, Control_c, 0, 64, 0
2, 8533, Control_c, 0, 64, 127
2, 8533, Control_c, 0, 64, 127
2, 8662, Note_off_c, 0, 75, 64
2, 8662, Note_off_c, 0, 65, 64
2, 8664, Note_off_c, 0, 71, 64
2, 8680, Note_on_c, 0, 68, 48
2, 8680, Note_on_c, 0, 61, 34
2, 8680, Note_on_c, 0, 56, 34
2, 8683, Note_on_c, 0, 65, 54
2, 8776, Note_on_c, 0, 71, 65
2, 8778, Note_off_c, 0, 49, 64
2, 8778, Note_off_c, 0, 37, 64
2, 8783, Note_on_c, 0, 75, 65
2, 8803, Note_off_c, 0, 56, 64
2, 8803, Note_off_c, 0, 61, 64
2, 8803, Note_off_c, 0, 68, 64
2, 8806, Note_off_c, 0, 65, 64
2, 8849, Note_off_c, 0, 71, 64
2, 8856, Note_off_c, 0, 75, 64
2, 8868, Note_on_c, 0, 75, 61
2, 8868, Note_on_c, 0, 71, 51
2, 8896, Note_on_c, 0, 77, 56
2, 8905, Note_off_c, 0, 71, 64
2, 8905, Note_off_c, 0, 75, 64
2, 8920, Note_on_c, 0, 71, 58
2, 8924, Note_on_c, 0, 75, 64
2, 8942, Note_off_c, 0, 77, 64
2, 9003, Note_on_c, 0, 73, 75
2, 9013, Note_off_c, 0, 71, 64
2, 9017, Note_off_c, 0, 75, 64
2, 9108, Note_on_c, 0, 42, 54
2, 9111, Note_on_c, 0, 72, 64
2, 9111, Note_on_c, 0, 71, 65
2, 9122, Note_off_c, 0, 73, 64
2, 9132, Control_c, 0, 64, 0
2, 9132, Control_c, 0, 64, 0
2, 9156, Control_c, 0, 64, 127
2, 9156, Control_c, 0, 64, 127
2, 9192, Note_off_c, 0, 71, 64
2, 9192, Note_off_c, 0, 72, 64
2, 9236, Note_on_c, 0, 70, 65
2, 9238, Note_on_c, 0, 73, 65
2, 9304, Note_on_c, 0, 78, 72
2, 9304, Note_on_c, 0, 61, 34
2, 9304, Note_on_c, 0, 54, 34
2, 9307, Note_off_c, 0, 70, 64
2, 9307, Note_on_c, 0, 66, 65
2, 9307, Note_on_c, 0, 66, 65
2, 9309, Note_off_c, 0, 73, 64
2, 9331, Control_c, 0, 64, 0
2, 9331, Control_c, 0, 64, 0
2, 9331, Control_c, 0, 64, 0
2, 9331, Control_c, 0, 64, 0
2, 9354, Control_c, 0, 64, 127
2, 9354, Control_c, 0, 64, 127
2, 9359, Note_off_c, 0, 54, 64
2, 9359, Note_off_c, 0, 61, 64
2, 9419, Note_on_c, 0, 70, 68
2, 9421, Note_off_c, 0, 42, 64
2, 9423, Note_off_c, 0, 66, 64
2, 9423, Note_off_c, 0, 66, 64
2, 9501, Note_on_c, 0, 71, 64
2, 9505, Note_on_c, 0, 61, 48
2, 9505, Note_on_c, 0, 54, 44
2, 9513, Note_off_c, 0, 70, 64
2, 9560, Note_off_c, 0, 54, 64
2, 9560, Note_off_c, 0, 61, 64
2, 9586, Note_on_c, 0, 75, 56
2, 9597, Note_off_c, 0, 71, 64
2, 9675, Note_on_c, 0, 73, 56
2, 9680, Note_on_c, 0, 54, 38
2, 9684, Note_on_c, 0, 61, 25
2, 9685, Note_on_c, 0, 68, 38
2, 9691, Note_off_c, 0, 75, 64
2, 9696, Control_c, 0, 64, 0
2, 9696, Control_c, 0, 64, 0
2, 9723, Control_c, 0, 64, 127
2, 9723, Control_c, 0, 64, 127
2, 9735, Note_off_c, 0, 54, 64
2, 9739, Note_off_c, 0, 61, 64
2, 9740, Note_off_c, 0, 68, 64
2, 9765, Note_on_c, 0, 77, 47
2, 9774, Note_off_c, 0, 78, 64
2, 9820, Note_off_c, 0, 73, 64
2, 9844, Note_on_c, 0, 75, 55
2, 9856, Note_on_c, 0, 71, 40
2, 9856, Note_on_c, 0, 68, 37
2, 9860, Note_off_c, 0, 77, 64
2, 9867, Note_on_c, 0, 61, 29
2, 9867, Note_on_c, 0, 54, 29
2, 9878, Control_c, 0, 64, 0
2, 9878, Control_c, 0, 64, 0
2, 9890, Control_c, 0, 64, 127
2, 9890, Control_c, 0, 64, 127
2, 9911, Note_off_c, 0, 68, 64
2, 9922, Note_off_c, 0, 54, 64
2, 9922, Note_off_c, 0, 61, 64
2, 9935, Note_on_c, 0, 77, 47
2, 9938, Note_off_c, 0, 75, 64
2, 9980, Note_off_c, 0, 71, 64
2, 10031, Note_on_c, 0, 61, 43
2, 10034, Note_on_c, 0, 78, 58
2, 10034, Note_on_c, 0, 70, 55
2, 10035, Note_on_c, 0, 54, 33
2, 10049, Note_off_c, 0, 77, 64
2, 10053, Control_c, 0, 64, 0
2, 10053, Control_c, 0, 64, 0
2, 10066, Control_c, 0, 64, 127
2, 10066, Control_c, 0, 64, 127
2, 10086, Note_off_c, 0, 61, 64
2, 10090, Note_off_c, 0, 54, 64
2, 10113, Note_on_c, 0, 75, 43
2, 10133, Note_off_c, 0, 78, 64
2, 10178, Note_off_c, 0, 70, 64
2, 10200, Note_on_c, 0, 73, 55
2, 10200, Note_on_c, 0, 71, 52
2, 10200, Note_on_c, 0, 68, 31
2, 10204, Note_on_c, 0, 61, 28
2, 10204, Note_on_c, 0, 54, 28
2, 10219, Note_off_c, 0, 75, 64
2, 10228, Control_c, 0, 64, 0
2, 10228, Control_c, 0, 64, 0
2, 10240, Control_c, 0, 64, 127
2, 10240, Control_c, 0, 64, 127
2, 10266, Note_off_c, 0, 61, 64
2, 10273, Note_off_c, 0, 54, 64
2, 10277, Note_off_c, 0, 68, 64
2, 10283, Note_on_c, 0, 77, 47
2, 10295, Note_off_c, 0, 73, 64
2, 10339, Note_off_c, 0, 71, 64
2, 10378, Note_on_c, 0, 78, 59
2, 10381, Note_on_c, 0, 70, 52
2, 10388, Note_on_c, 0, 54, 34
2, 10391, Note_on_c, 0, 61, 34
2, 10397, Note_off_c, 0, 77, 64
2, 10403, Control_c, 0, 64, 0
2, 10403, Control_c, 0, 64, 0
2, 10426, Control_c, 0, 64, 127
2, 10426, Control_c, 0, 64, 127
2, 10456, Note_off_c, 0, 61, 64
2, 10468, Note_off_c, 0, 54, 64
2, 10506, Note_off_c, 0, 70, 64
2, 10560, Note_on_c, 0, 70, 54
2, 10570, Note_on_c, 0, 54, 31
2, 10570, Control_c, 0, 64, 0
2, 10570, Control_c, 0, 64, 0
2, 10575, Note_on_c, 0, 61, 34
2, 10587, Control_c, 0, 64, 127
2, 10587, Control_c, 0, 64, 127
2, 10626, Note_off_c, 0, 61, 64
2, 10632, Note_off_c, 0, 54, 64
2, 10639, Note_on_c, 0, 80, 52
2, 10652, Note_off_c, 0, 78, 64
2, 10688, Note_off_c, 0, 70, 64
2, 10721, Note_on_c, 0, 78, 54
2, 10730, Note_on_c, 0, 68, 38
2, 10731, Note_off_c, 0, 80, 64
2, 10732, Note_on_c, 0, 61, 25
2, 10735, Note_on_c, 0, 71, 51
2, 10735, Note_on_c, 0, 54, 36
2, 10745, Control_c, 0, 64, 0
2, 10745, Control_c, 0, 64, 0
2, 10763, Control_c, 0, 64, 127
2, 10763, Control_c, 0, 64, 127
2, 10785, Note_off_c, 0, 68, 64
2, 10787, Note_off_c, 0, 61, 64
2, 10790, Note_off_c, 0, 54, 64
2, 10799, Note_on_c, 0, 77, 51
2, 10804, Note_off_c, 0, 78, 64
2, 10884, Note_on_c, 0, 75, 56
2, 10888, Note_on_c, 0, 68, 38
2, 10888, Note_on_c, 0, 54, 34
2, 10892, Note_on_c, 0, 61, 24
2, 10912, Note_off_c, 0, 77, 64
2, 10943, Note_off_c, 0, 54, 64
2, 10943, Note_off_c, 0, 68, 64
2, 10947, Note_off_c, 0, 61, 64
2, 10964, Note_off_c, 0, 71, 64
2, 10972, Note_on_c, 0, 77, 42
2, 10989, Note_off_c, 0, 75, 64
2, 11049, Control_c, 0, 64, 0
2, 11049, Control_c, 0, 64, 0
2, 11064, Note_on_c, 0, 78, 55
2, 11064, Note_on_c, 0, 70, 55
2, 11065, Note_on_c, 0, 54, 34
2, 11071, Note_on_c, 0, 61, 34
2, 11088, Note_off_c, 0, 77, 64
2, 11092, Control_c, 0, 64, 127
2, 11092, Control_c, 0, 64, 127
2, 11120, Note_off_c, 0, 54, 64
2, 11126, Note_off_c, 0, 61, 64
2, 11136, Note_on_c, 0, 75, 54
2, 11149, Note_off_c, 0, 70, 64
2, 11151, Note_off_c, 0, 78, 64
2, 11216, Control_c, 0, 64, 0
2, 11216, Control_c, 0, 64, 0
2, 11222, Note_on_c, 0, 73, 56
2, 11227, Note_off_c, 0, 75, 64
2, 11228, Note_on_c, 0, 71, 51
2, 11228, Note_on_c, 0, 68, 43
2, 11228, Note_on_c, 0, 61, 31
2, 11232, Note_on_c, 0, 54, 34
2, 11265, Control_c, 0, 64, 127
2, 11265, Control_c, 0, 64, 127
2, 11281, Note_off_c, 0, 71, 64
2, 11283, Note_off_c, 0, 61, 64
2, 11283, Note_off_c, 0, 68, 64
2, 11287, Note_off_c, 0, 54, 64
2, 11301, Note_on_c, 0, 77, 47
2, 11307, Note_off_c, 0, 73, 64
2, 11403, Control_c, 0, 64, 0
2, 11403, Control_c, 0, 64, 0
2, 11412, Note_on_c, 0, 70, 54
2, 11412, Note_on_c, 0, 78, 56
2, 11412, Note_on_c, 0, 54, 39
2, 11416, Note_on_c, 0, 61, 45
2, 11440, Note_off_c, 0, 77, 64
2, 11461, Control_c, 0, 64, 127
2, 11461, Control_c, 0, 64, 127
2, 11467, Note_off_c, 0, 54, 64
2, 11471, Note_off_c, 0, 61, 64
2, 11529, Note_off_c, 0, 70, 64
2, 11604, Note_on_c, 0, 61, 45
2, 11608, Note_on_c, 0, 54, 39
2, 11611, Note_on_c, 0, 69, 23
2, 11612, Control_c, 0, 64, 0
2, 11612, Control_c, 0, 64, 0
2, 11638, Control_c, 0, 64, 127
2, 11638, Control_c, 0, 64, 127
2, 11659, Note_off_c, 0, 61, 64
2, 11663, Note_off_c, 0, 54, 64
2, 11683, Note_on_c, 0, 76, 45
2, 11691, Note_off_c, 0, 78, 64
2, 11745, Note_off_c, 0, 76, 64
2, 11752, Note_off_c, 0, 69, 64
2, 11772, Note_on_c, 0, 76, 47
2, 11779, Note_on_c, 0, 69, 45
2, 11781, Control_c, 0, 64, 0
2, 11781, Control_c, 0, 64, 0
2, 11788, Note_on_c, 0, 59, 41
2, 11831, Control_c, 0, 64, 127
2, 11831, Control_c, 0, 64, 127
2, 11843, Note_off_c, 0, 59, 64
2, 11854, Note_on_c, 0, 75, 50
2, 11866, Note_off_c, 0, 76, 64
2, 11890, Note_off_c, 0, 69, 64
2, 11938, Note_on_c, 0, 66, 39
2, 11940, Note_on_c, 0, 73, 53
2, 11942, Note_on_c, 0, 69, 39
2, 11943, Note_on_c, 0, 59, 48
2, 11953, Control_c, 0, 64, 0
2, 11953, Control_c, 0, 64, 0
2, 11956, Note_off_c, 0, 75, 64
2, 11965, Control_c, 0, 64, 127
2, 11965, Control_c, 0, 64, 127
2, 11993, Note_off_c, 0, 66, 64
2, 11998, Note_off_c, 0, 59, 64
2, 12023, Note_on_c, 0, 75, 53
2, 12034, Note_off_c, 0, 73, 64
2, 12070, Note_off_c, 0, 69, 64
2, 12100, Note_on_c, 0, 68, 30
2, 12103, Note_on_c, 0, 76, 47
2, 12104, Note_on_c, 0, 59, 39
2, 12104, Note_on_c, 0, 52, 41
2, 12111, Note_off_c, 0, 75, 64
2, 12115, Control_c, 0, 64, 0
2, 12115, Control_c, 0, 64, 0
2, 12142, Control_c, 0, 64, 127
2, 12142, Control_c, 0, 64, 127
2, 12159, Note_off_c, 0, 52, 64
2, 12159, Note_off_c, 0, 59, 64
2, 12195, Note_on_c, 0, 73, 51
2, 12211, Note_off_c, 0, 76, 64
2, 12243, Note_off_c, 0, 68, 64
2, 12292, Note_on_c, 0, 71, 38
2, 12292, Note_on_c, 0, 69, 25
2, 12293, Note_on_c, 0, 66, 38
2, 12299, Note_on_c, 0, 59, 40
2, 12302, Note_off_c, 0, 73, 64
2, 12303, Control_c, 0, 64, 0
2, 12303, Control_c, 0, 64, 0
2, 12326, Control_c, 0, 64, 127
2, 12326, Control_c, 0, 64, 127
2, 12348, Note_off_c, 0, 66, 64
2, 12354, Note_off_c, 0, 59, 64
2, 12362, Note_on_c, 0, 75, 48
2, 12393, Note_off_c, 0, 69, 64
2, 12393, Note_off_c, 0, 71, 64
2, 12459, Control_c, 0, 64, 0
2, 12459, Control_c, 0, 64, 0
2, 12464, Note_on_c, 0, 52, 41
2, 12464, Note_on_c, 0, 68, 26
2, 12464, Note_on_c, 0, 76, 42
2, 12465, Note_on_c, 0, 59, 41
2, 12482, Note_off_c, 0, 75, 64
2, 12501, Control_c, 0, 64, 127
2, 12501, Control_c, 0, 64, 127
2, 12519, Note_off_c, 0, 52, 64
2, 12520, Note_off_c, 0, 59, 64
2, 12601, Note_off_c, 0, 68, 64
2, 12636, Note_on_c, 0, 68, 26
2, 12640, Note_on_c, 0, 52, 32
2, 12642, Note_on_c, 0, 59, 40
2, 12695, Note_off_c, 0, 52, 64
2, 12697, Note_off_c, 0, 59, 64
2, 12722, Note_on_c, 0, 75, 40
2, 12727, Note_off_c, 0, 76, 64
2, 12773, Note_off_c, 0, 68, 64
2, 12787, Note_off_c, 0, 75, 64
2, 12815, Note_on_c, 0, 58, 41
2, 12816, Note_on_c, 0, 75, 48
2, 12819, Note_on_c, 0, 68, 46
2, 12832, Control_c, 0, 64, 0
2, 12832, Control_c, 0, 64, 0
2, 12865, Control_c, 0, 64, 127
2, 12865, Control_c, 0, 64, 127
2, 12870, Note_off_c, 0, 58, 64
2, 12904, Note_on_c, 0, 74, 40
2, 12915, Note_off_c, 0, 75, 64
2, 12928, Note_off_c, 0, 68, 64
2, 12980, Note_on_c, 0, 73, 48
2, 12980, Note_on_c, 0, 52, 24
2, 12982, Note_on_c, 0, 58, 24
2, 12987, Note_on_c, 0, 68, 43
2, 12989, Note_off_c, 0, 74, 64
2, 13005, Control_c, 0, 64, 0
2, 13005, Control_c, 0, 64, 0
2, 13026, Control_c, 0, 64, 127
2, 13026, Control_c, 0, 64, 127
2, 13035, Note_off_c, 0, 52, 64
2, 13037, Note_off_c, 0, 58, 64
2, 13063, Note_on_c, 0, 74, 44
2, 13072, Note_off_c, 0, 73, 64
2, 13120, Note_off_c, 0, 68, 64
2, 13154, Note_on_c, 0, 67, 37
2, 13154, Note_on_c, 0, 58, 35
2, 13157, Note_on_c, 0, 51, 31
2, 13163, Note_on_c, 0, 75, 26
2, 13169, Control_c, 0, 64, 0
2, 13169, Control_c, 0, 64, 0
2, 13170, Note_off_c, 0, 74, 64
2, 13203, Control_c, 0, 64, 127
2, 13203, Control_c, 0, 64, 127
2, 13209, Note_off_c, 0, 58, 64
2, 13212, Note_off_c, 0, 51, 64
2, 13236, Note_on_c, 0, 71, 41
2, 13257, Note_off_c, 0, 75, 64
2, 13289, Note_off_c, 0, 67, 64
2, 13339, Note_on_c, 0, 70, 45
2, 13340, Note_on_c, 0, 68, 33
2, 13343, Note_off_c, 0, 71, 64
2, 13344, Note_on_c, 0, 65, 38
2, 13347, Note_on_c, 0, 58, 31
2, 13356, Control_c, 0, 64, 0
2, 13356, Control_c, 0, 64, 0
2, 13395, Control_c, 0, 64, 127
2, 13395, Control_c, 0, 64, 127
2, 13399, Note_off_c, 0, 65, 64
2, 13402, Note_off_c, 0, 58, 64
2, 13442, Note_on_c, 0, 74, 41
2, 13452, Note_off_c, 0, 70, 64
2, 13453, Note_off_c, 0, 68, 64
2, 13594, Note_on_c, 0, 75, 33
2, 13602, Note_off_c, 0, 74, 64
2, 13602, Note_on_c, 0, 67, 27
2, 13602, Note_on_c, 0, 51, 18
2, 13609, Note_on_c, 0, 58, 22
2, 13620, Control_c, 0, 64, 0
2, 13620, Control_c, 0, 64, 0
2, 13674, Control_c, 0, 64, 127
2, 13674, Control_c, 0, 64, 127
2, 13709, Note_off_c, 0, 51, 64
2, 13709, Note_off_c, 0, 67, 64
2, 13716, Note_off_c, 0, 58, 64
2, 14080, Control_c, 0, 64, 0
2, 14080, Control_c, 0, 64, 0
2, 14088, Note_on_c, 0, 40, 52
2, 14148, Control_c, 0, 64, 127
2, 14148, Control_c, 0, 64, 127
2, 14421, Note_off_c, 0, 40, 64
2, 14445, Note_on_c, 0, 68, 43
2, 14450, Note_on_c, 0, 61, 25
2, 14460, Note_on_c, 0, 59, 26
2, 14481, Control_c, 0, 64, 0
2, 14481, Control_c, 0, 64, 0
2, 14507, Control_c, 0, 64, 127
2, 14507, Control_c, 0, 64, 127
2, 14583, Note_on_c, 0, 73, 39
2, 14590, Note_off_c, 0, 75, 64
2, 14697, Note_off_c, 0, 73, 64
2, 14698, Note_on_c, 0, 76, 48
2, 14770, Note_off_c, 0, 61, 64
2, 14774, Note_off_c, 0, 59, 64
2, 14787, Note_on_c, 0, 75, 51
2, 14795, Note_off_c, 0, 76, 64
2, 14848, Note_off_c, 0, 68, 64
2, 14872, Note_on_c, 0, 73, 52
2, 14885, Note_off_c, 0, 75, 64
2, 14917, Control_c, 0, 64, 0
2, 14917, Control_c, 0, 64, 0
2, 14952, Control_c, 0, 64, 127
2, 14952, Control_c, 0, 64, 127
2, 14960, Note_on_c, 0, 71, 56
2, 14967, Note_off_c, 0, 73, 64
2, 15039, Note_on_c, 0, 70, 64
2, 15045, Note_off_c, 0, 71, 64
2, 15062, Control_c, 0, 64, 0
2, 15062, Control_c, 0, 64, 0
2, 15093, Control_c, 0, 64, 127
2, 15093, Control_c, 0, 64, 127
2, 15117, Note_on_c, 0, 71, 52
2, 15129, Note_off_c, 0, 70, 64
2, 15196, Note_on_c, 0, 73, 49
2, 15213, Note_off_c, 0, 71, 64
2, 15244, Control_c, 0, 64, 0
2, 15244, Control_c, 0, 64, 0
2, 15286, Note_on_c, 0, 68, 46
2, 15301, Note_off_c, 0, 73, 64
2, 15378, Note_on_c, 0, 66, 51
2, 15378, Note_on_c, 0, 42, 48
2, 15392, Note_off_c, 0, 68, 64
2, 15401, Control_c, 0, 64, 127
2, 15401, Control_c, 0, 64, 127
2, 15621, Control_c, 0, 64, 0
2, 15621, Control_c, 0, 64, 0
2, 15624, Note_on_c, 0, 58, 34
2, 15628, Note_on_c, 0, 64, 26
2, 15628, Note_on_c, 0, 54, 22
2, 15659, Control_c, 0, 64, 127
2, 15659, Control_c, 0, 64, 127
2, 15680, Note_off_c, 0, 42, 64
2, 15713, Note_off_c, 0, 64, 64
2, 15716, Note_off_c, 0, 58, 64
2, 15718, Note_on_c, 0, 68, 52
2, 15720, Note_off_c, 0, 54, 64
2, 15742, Note_off_c, 0, 66, 64
2, 15792, Note_on_c, 0, 66, 64
2, 15792, Note_on_c, 0, 58, 43
2, 15792, Note_on_c, 0, 54, 18
2, 15795, Note_on_c, 0, 64, 37
2, 15820, Note_off_c, 0, 68, 64
2, 15864, Note_off_c, 0, 54, 64
2, 15864, Note_off_c, 0, 58, 64
2, 15867, Note_off_c, 0, 64, 64
2, 15876, Note_on_c, 0, 68, 48
2, 15888, Note_off_c, 0, 66, 64
2, 15967, Control_c, 0, 64, 0
2, 15967, Control_c, 0, 64, 0
2, 15970, Note_on_c, 0, 66, 66
2, 15971, Note_on_c, 0, 47, 53
2, 15978, Note_off_c, 0, 68, 64
2, 15991, Control_c, 0, 64, 127
2, 15991, Control_c, 0, 64, 127
2, 16043, Note_on_c, 0, 70, 45
2, 16049, Note_off_c, 0, 66, 64
2, 16127, Note_on_c, 0, 71, 50
2, 16128, Note_on_c, 0, 54, 42
2, 16131, Note_off_c, 0, 70, 64
2, 16132, Note_on_c, 0, 63, 37
2, 16132, Note_on_c, 0, 59, 50
2, 16174, Control_c, 0, 64, 0
2, 16174, Control_c, 0, 64, 0
2, 16204, Control_c, 0, 64, 127
2, 16204, Control_c, 0, 64, 127
2, 16209, Note_on_c, 0, 75, 57
2, 16249, Note_off_c, 0, 71, 64
2, 16256, Note_off_c, 0, 47, 64
2, 16260, Note_off_c, 0, 59, 64
2, 16260, Note_off_c, 0, 63, 64
2, 16281, Note_off_c, 0, 54, 64
2, 16301, Note_on_c, 0, 80, 65
2, 16315, Note_off_c, 0, 75, 64
2, 16322, Control_c, 0, 64, 0
2, 16322, Control_c, 0, 64, 0
2, 16334, Control_c, 0, 64, 127
2, 16334, Control_c, 0, 64, 127
2, 16379, Note_on_c, 0, 78, 66
2, 16396, Note_off_c, 0, 80, 64
2, 16488, Note_on_c, 0, 40, 41
2, 16497, Note_on_c, 0, 75, 63
2, 16504, Note_off_c, 0, 78, 64
2, 16511, Control_c, 0, 64, 0
2, 16511, Control_c, 0, 64, 0
2, 16566, Control_c, 0, 64, 127
2, 16566, Control_c, 0, 64, 127
2, 16772, Note_on_c, 0, 59, 28
2, 16773, Note_on_c, 0, 68, 28
2, 16776, Note_on_c, 0, 61, 40
2, 16803, Control_c, 0, 64, 0
2, 16803, Control_c, 0, 64, 0
2, 16804, Note_off_c, 0, 40, 64
2, 16839, Control_c, 0, 64, 127
2, 16839, Control_c, 0, 64, 127
2, 16881, Note_on_c, 0, 73, 56
2, 16891, Note_off_c, 0, 75, 64
2, 16946, Note_off_c, 0, 59, 64
2, 16947, Note_off_c, 0, 68, 64
2, 16950, Note_off_c, 0, 61, 64
2, 16988, Note_on_c, 0, 76, 49
2, 17009, Note_off_c, 0, 73, 64
2, 17073, Control_c, 0, 64, 0
2, 17073, Control_c, 0, 64, 0
2, 17078, Note_on_c, 0, 75, 51
2, 17086, Note_off_c, 0, 76, 64
2, 17124, Control_c, 0, 64, 127
2, 17124, Control_c, 0, 64, 127
2, 17155, Note_on_c, 0, 73, 48
2, 17178, Note_off_c, 0, 75, 64
2, 17237, Note_on_c, 0, 71, 46
2, 17257, Note_off_c, 0, 73, 64
2, 17306, Note_on_c, 0, 70, 58
2, 17325, Note_off_c, 0, 71, 64
2, 17381, Note_on_c, 0, 71, 50
2, 17391, Note_off_c, 0, 70, 64
2, 17476, Note_on_c, 0, 73, 56
2, 17495, Note_off_c, 0, 71, 64
2, 17555, Control_c, 0, 64, 0
2, 17555, Control_c, 0, 64, 0
2, 17558, Note_on_c, 0, 68, 45
2, 17578, Note_off_c, 0, 73, 64
2, 17653, Note_on_c, 0, 66, 44
2, 17662, Note_off_c, 0, 68, 64
2, 17844, Note_on_c, 0, 64, 19
2, 17844, Note_on_c, 0, 58, 26
2, 17846, Note_on_c, 0, 54, 20
2, 17870, Control_c, 0, 64, 127
2, 17870, Control_c, 0, 64, 127
2, 17957, Note_on_c, 0, 68, 40
2, 17970, Note_off_c, 0, 66, 64
2, 17987, Note_off_c, 0, 64, 64
2, 18003, Note_off_c, 0, 58, 64
2, 18024, Note_off_c, 0, 54, 64
2, 18049, Note_on_c, 0, 66, 52
2, 18056, Note_off_c, 0, 68, 64
2, 18141, Note_on_c, 0, 73, 46
2, 18177, Note_off_c, 0, 66, 64
2, 18197, Control_c, 0, 64, 0
2, 18197, Control_c, 0, 64, 0
2, 18246, Note_on_c, 0, 66, 52
2, 18281, Note_off_c, 0, 73, 64
2, 18340, Note_on_c, 0, 68, 43
2, 18356, Note_off_c, 0, 66, 64
2, 18439, Note_on_c, 0, 66, 53
2, 18455, Note_off_c, 0, 68, 64
2, 18504, Control_c, 0, 64, 127
2, 18504, Control_c, 0, 64, 127
2, 18530, Note_on_c, 0, 73, 40
2, 18552, Note_off_c, 0, 66, 64
2, 18631, Note_on_c, 0, 65, 44
2, 18638, Note_off_c, 0, 73, 64
2, 18750, Note_on_c, 0, 73, 29
2, 18766, Note_off_c, 0, 65, 64
2, 18812, Control_c, 0, 64, 0
2, 18812, Control_c, 0, 64, 0
2, 18878, Note_on_c, 0, 64, 38
2, 18886, Note_off_c, 0, 73, 64
2, 18992, Note_on_c, 0, 73, 32
2, 19100, Note_on_c, 0, 71, 40
2, 19113, Control_c, 0, 64, 127
2, 19113, Control_c, 0, 64, 127
2, 19117, Note_off_c, 0, 73, 64
2, 19120, Note_off_c, 0, 64, 64
2, 19300, Note_on_c, 0, 64, 21
2, 19300, Note_on_c, 0, 62, 22
2, 19308, Note_on_c, 0, 52, 40
2, 19319, Control_c, 0, 64, 0
2, 19319, Control_c, 0, 64, 0
2, 19362, Control_c, 0, 64, 127
2, 19362, Control_c, 0, 64, 127
2, 19412, Note_off_c, 0, 62, 64
2, 19412, Note_off_c, 0, 64, 64
2, 19420, Note_off_c, 0, 52, 64
2, 19498, Note_on_c, 0, 69, 44
2, 19506, Note_off_c, 0, 71, 64
2, 19576, Note_on_c, 0, 66, 41
2, 19593, Note_off_c, 0, 69, 64
2, 19663, Note_on_c, 0, 68, 47
2, 19665, Control_c, 0, 64, 0
2, 19665, Control_c, 0, 64, 0
2, 19678, Note_off_c, 0, 66, 64
2, 19844, Note_on_c, 0, 52, 34
2, 19844, Note_on_c, 0, 45, 34
2, 19845, Note_on_c, 0, 69, 44
2, 19846, Note_on_c, 0, 61, 34
2, 19899, Note_off_c, 0, 68, 64
2, 19956, Note_off_c, 0, 45, 64
2, 19956, Note_off_c, 0, 52, 64
2, 19958, Note_off_c, 0, 61, 64
2, 19989, Control_c, 0, 64, 127
2, 19989, Control_c, 0, 64, 127
2, 20015, Note_off_c, 0, 69, 64
2, 20015, Note_on_c, 0, 64, 44
2, 20102, Note_on_c, 0, 69, 44
2, 20118, Note_off_c, 0, 64, 64
2, 20182, Note_on_c, 0, 68, 45
2, 20195, Control_c, 0, 64, 0
2, 20195, Control_c, 0, 64, 0
2, 20202, Note_off_c, 0, 69, 64
2, 20362, Note_on_c, 0, 56, 34
2, 20368, Note_on_c, 0, 40, 43
2, 20372, Note_on_c, 0, 62, 33
2, 20438, Control_c, 0, 64, 127
2, 20438, Control_c, 0, 64, 127
2, 20474, Note_off_c, 0, 56, 64
2, 20480, Note_off_c, 0, 40, 64
2, 20484, Note_off_c, 0, 62, 64
2, 20542, Note_on_c, 0, 66, 47
2, 20551, Note_off_c, 0, 68, 64
2, 20621, Note_off_c, 0, 66, 64
2, 20624, Note_on_c, 0, 62, 45
2, 20701, Note_on_c, 0, 66, 51
2, 20714, Note_off_c, 0, 62, 64
2, 20724, Control_c, 0, 64, 0
2, 20724, Control_c, 0, 64, 0
2, 20876, Note_on_c, 0, 45, 30
2, 20881, Note_on_c, 0, 64, 41
2, 20884, Note_on_c, 0, 61, 27
2, 20884, Note_on_c, 0, 57, 40
2, 20884, Note_on_c, 0, 52, 28
2, 20892, Note_off_c, 0, 66, 64
2, 20912, Control_c, 0, 64, 127
2, 20912, Control_c, 0, 64, 127
2, 20988, Note_off_c, 0, 45, 64
2, 20996, Note_off_c, 0, 52, 64
2, 20996, Note_off_c, 0, 57, 64
2, 20996, Note_off_c, 0, 61, 64
2, 21059, Note_off_c, 0, 64, 64
2, 21072, Note_on_c, 0, 64, 46
2, 21075, Control_c, 0, 64, 0
2, 21075, Control_c, 0, 64, 0
2, 21109, Control_c, 0, 64, 127
2, 21109, Control_c, 0, 64, 127
2, 21149, Note_on_c, 0, 73, 42
2, 21175, Control_c, 0, 64, 0
2, 21175, Control_c, 0, 64, 0
2, 21185, Note_off_c, 0, 64, 64
2, 21240, Note_on_c, 0, 71, 41
2, 21260, Note_off_c, 0, 73, 64
2, 21408, Note_on_c, 0, 64, 22
2, 21408, Note_on_c, 0, 62, 25
2, 21414, Note_on_c, 0, 52, 41
2, 21485, Control_c, 0, 64, 127
2, 21485, Control_c, 0, 64, 127
2, 21520, Note_off_c, 0, 62, 64
2, 21520, Note_off_c, 0, 64, 64
2, 21526, Note_off_c, 0, 52, 64
2, 21573, Control_c, 0, 64, 0
2, 21573, Control_c, 0, 64, 0
2, 21587, Note_on_c, 0, 69, 51
2, 21593, Note_off_c, 0, 71, 64
2, 21660, Note_on_c, 0, 66, 46
2, 21675, Note_off_c, 0, 69, 64
2, 21747, Note_on_c, 0, 68, 51
2, 21760, Note_off_c, 0, 66, 64
2, 21912, Note_on_c, 0, 69, 47
2, 21912, Note_on_c, 0, 45, 41
2, 21917, Note_on_c, 0, 61, 41
2, 21921, Note_on_c, 0, 52, 37
2, 21941, Note_off_c, 0, 68, 64
2, 22024, Note_off_c, 0, 45, 64
2, 22029, Note_off_c, 0, 61, 64
2, 22033, Note_off_c, 0, 52, 64
2, 22084, Note_on_c, 0, 64, 47
2, 22111, Note_off_c, 0, 69, 64
2, 22175, Note_on_c, 0, 69, 46
2, 22186, Note_off_c, 0, 64, 64
2, 22264, Note_on_c, 0, 68, 45
2, 22288, Note_off_c, 0, 69, 64
2, 22416, Note_on_c, 0, 64, 34
2, 22416, Note_on_c, 0, 61, 23
2, 22416, Note_on_c, 0, 49, 34
2, 22424, Note_on_c, 0, 56, 23
2, 22452, Control_c, 0, 64, 127
2, 22452, Control_c, 0, 64, 127
2, 22528, Note_off_c, 0, 49, 64
2, 22528, Note_off_c, 0, 61, 64
2, 22528, Note_off_c, 0, 64, 64
2, 22536, Note_off_c, 0, 56, 64
2, 22592, Note_on_c, 0, 66, 62
2, 22601, Control_c, 0, 64, 0
2, 22601, Control_c, 0, 64, 0
2, 22612, Note_off_c, 0, 68, 64
2, 22663, Note_on_c, 0, 63, 57
2, 22683, Note_off_c, 0, 66, 64
2, 22745, Note_on_c, 0, 44, 57
2, 22748, Note_on_c, 0, 56, 55
2, 22749, Note_on_c, 0, 60, 60
2, 22752, Note_on_c, 0, 66, 64
2, 22758, Note_off_c, 0, 63, 64
2, 22802, Control_c, 0, 64, 127
2, 22802, Control_c, 0, 64, 127
2, 22857, Note_off_c, 0, 44, 64
2, 22860, Note_off_c, 0, 56, 64
2, 22861, Note_off_c, 0, 60, 64
2, 22906, Note_on_c, 0, 64, 54
2, 22908, Note_on_c, 0, 61, 64
2, 22910, Note_on_c, 0, 56, 64
2, 22922, Note_off_c, 0, 66, 64
2, 22925, Note_on_c, 0, 37, 51
2, 22926, Control_c, 0, 64, 0
2, 22926, Control_c, 0, 64, 0
2, 22931, Note_on_c, 0, 49, 44
2, 22964, Control_c, 0, 64, 127
2, 22964, Control_c, 0, 64, 127
2, 23020, Note_off_c, 0, 61, 64
2, 23022, Note_off_c, 0, 56, 64
2, 23037, Note_off_c, 0, 37, 64
2, 23043, Note_off_c, 0, 49, 64
2, 23076, Control_c, 0, 64, 0
2, 23076, Control_c, 0, 64, 0
2, 23082, Note_on_c, 0, 66, 62
2, 23089, Note_off_c, 0, 64, 64
2, 23151, Note_on_c, 0, 63, 54
2, 23169, Note_off_c, 0, 66, 64
2, 23239, Note_on_c, 0, 57, 55
2, 23240, Note_on_c, 0, 66, 67
2, 23243, Note_on_c, 0, 59, 54
2, 23249, Note_on_c, 0, 47, 56
2, 23256, Control_c, 0, 64, 127
2, 23256, Control_c, 0, 64, 127
2, 23265, Note_off_c, 0, 63, 64
2, 23351, Note_off_c, 0, 57, 64
2, 23355, Note_off_c, 0, 59, 64
2, 23361, Note_off_c, 0, 47, 64
2, 23414, Note_on_c, 0, 64, 57
2, 23416, Note_on_c, 0, 59, 64
2, 23416, Note_on_c, 0, 56, 62
2, 23416, Control_c, 0, 64, 0
2, 23416, Control_c, 0, 64, 0
2, 23426, Note_on_c, 0, 52, 45
2, 23426, Note_on_c, 0, 40, 49
2, 23427, Note_off_c, 0, 66, 64
2, 23468, Control_c, 0, 64, 127
2, 23468, Control_c, 0, 64, 127
2, 23528, Note_off_c, 0, 56, 64
2, 23528, Note_off_c, 0, 59, 64
2, 23538, Note_off_c, 0, 40, 64
2, 23538, Note_off_c, 0, 52, 64
2, 23577, Control_c, 0, 64, 0
2, 23577, Control_c, 0, 64, 0
2, 23589, Note_on_c, 0, 66, 43
2, 23605, Note_off_c, 0, 64, 64
2, 23666, Note_on_c, 0, 63, 33
2, 23672, Note_off_c, 0, 66, 64
2, 23746, Note_on_c, 0, 66, 68
2, 23748, Note_on_c, 0, 60, 61
2, 23748, Note_on_c, 0, 44, 54
2, 23754, Note_on_c, 0, 56, 59
2, 23765, Note_off_c, 0, 63, 64
2, 23777, Control_c, 0, 64, 127
2, 23777, Control_c, 0, 64, 127
2, 23860, Note_off_c, 0, 44, 64
2, 23860, Note_off_c, 0, 60, 64
2, 23866, Note_off_c, 0, 56, 64
2, 23953, Note_on_c, 0, 56, 50
2, 23960, Note_on_c, 0, 61, 51
2, 23967, Note_on_c, 0, 37, 46
2, 23967, Note_on_c, 0, 49, 41
2, 23967, Note_on_c, 0, 64, 48
2, 23976, Control_c, 0, 64, 0
2, 23976, Control_c, 0, 64, 0
2, 23985, Note_off_c, 0, 66, 64
2, 24000, Control_c, 0, 64, 127
2, 24000, Control_c, 0, 64, 127
2, 24065, Note_off_c, 0, 56, 64
2, 24072, Note_off_c, 0, 61, 64
2, 24079, Note_off_c, 0, 49, 64
2, 24079, Note_off_c, 0, 37, 64
2, 24115, Note_off_c, 0, 64, 64
2, 24140, Control_c, 0, 64, 0
2, 24140, Control_c, 0, 64, 0
2, 24150, Note_on_c, 0, 64, 48
2, 24225, Note_on_c, 0, 73, 46
2, 24264, Note_off_c, 0, 64, 64
2, 24320, Note_on_c, 0, 71, 49
2, 24323, Note_off_c, 0, 73, 64
2, 24494, Note_on_c, 0, 64, 29
2, 24497, Note_on_c, 0, 62, 33
2, 24499, Note_on_c, 0, 52, 34
2, 24516, Control_c, 0, 64, 127
2, 24516, Control_c, 0, 64, 127
2, 24606, Note_off_c, 0, 64, 64
2, 24609, Note_off_c, 0, 62, 64
2, 24611, Note_off_c, 0, 52, 64
2, 24676, Note_on_c, 0, 81, 45
2, 24681, Note_off_c, 0, 71, 64
2, 24761, Note_on_c, 0, 78, 27
2, 24781, Note_off_c, 0, 81, 64
2, 24818, Control_c, 0, 64, 0
2, 24818, Control_c, 0, 64, 0
2, 24844, Note_on_c, 0, 80, 48
2, 24866, Note_off_c, 0, 78, 64
2, 25019, Note_on_c, 0, 81, 46
2, 25026, Note_on_c, 0, 73, 44
2, 25029, Note_on_c, 0, 57, 39
2, 25034, Note_on_c, 0, 69, 27
2, 25036, Note_on_c, 0, 64, 29
2, 25043, Note_off_c, 0, 80, 64
2, 25049, Control_c, 0, 64, 127
2, 25049, Control_c, 0, 64, 127
2, 25138, Note_off_c, 0, 73, 64
2, 25141, Note_off_c, 0, 57, 64
2, 25146, Note_off_c, 0, 69, 64
2, 25148, Note_off_c, 0, 64, 64
2, 25223, Note_on_c, 0, 64, 50
2, 25254, Note_off_c, 0, 81, 64
2, 25298, Note_on_c, 0, 69, 51
2, 25311, Note_off_c, 0, 64, 64
2, 25367, Note_on_c, 0, 68, 51
2, 25374, Control_c, 0, 64, 0
2, 25374, Control_c, 0, 64, 0
2, 25383, Note_off_c, 0, 69, 64
2, 25546, Note_on_c, 0, 56, 30
2, 25547, Note_on_c, 0, 62, 45
2, 25554, Note_on_c, 0, 52, 34
2, 25554, Note_on_c, 0, 40, 40
2, 25577, Control_c, 0, 64, 127
2, 25577, Control_c, 0, 64, 127
2, 25658, Note_off_c, 0, 56, 64
2, 25659, Note_off_c, 0, 62, 64
2, 25666, Note_off_c, 0, 40, 64
2, 25666, Note_off_c, 0, 52, 64
2, 25716, Note_on_c, 0, 78, 52
2, 25742, Note_off_c, 0, 68, 64
2, 25790, Note_on_c, 0, 74, 49
2, 25802, Control_c, 0, 64, 0
2, 25802, Control_c, 0, 64, 0
2, 25812, Note_off_c, 0, 78, 64
2, 25864, Note_on_c, 0, 78, 56
2, 25867, Note_off_c, 0, 74, 64
2, 26029, Note_on_c, 0, 73, 46
2, 26032, Note_on_c, 0, 76, 40
2, 26036, Note_on_c, 0, 64, 33
2, 26036, Note_on_c, 0, 57, 34
2, 26038, Note_on_c, 0, 69, 43
2, 26047, Note_off_c, 0, 78, 64
2, 26054, Control_c, 0, 64, 127
2, 26054, Control_c, 0, 64, 127
2, 26141, Note_off_c, 0, 73, 64
2, 26148, Note_off_c, 0, 57, 64
2, 26148, Note_off_c, 0, 64, 64
2, 26150, Note_off_c, 0, 69, 64
2, 26199, Note_on_c, 0, 64, 49
2, 26213, Note_off_c, 0, 76, 64
2, 26271, Note_on_c, 0, 73, 46
2, 26304, Note_off_c, 0, 64, 64
2, 26320, Control_c, 0, 64, 0
2, 26320, Control_c, 0, 64, 0
2, 26355, Note_on_c, 0, 71, 45
2, 26377, Note_off_c, 0, 73, 64
2, 26524, Note_on_c, 0, 62, 34
2, 26525, Note_on_c, 0, 64, 34
2, 26531, Note_on_c, 0, 52, 40
2, 26539, Control_c, 0, 64, 127
2, 26539, Control_c, 0, 64, 127
2, 26636, Note_off_c, 0, 62, 64
2, 26637, Note_off_c, 0, 64, 64
2, 26643, Note_off_c, 0, 52, 64
2, 26695, Note_on_c, 0, 81, 51
2, 26722, Note_off_c, 0, 71, 64
2, 26784, Note_on_c, 0, 78, 23
2, 26810, Note_off_c, 0, 81, 64
2, 26853, Note_on_c, 0, 80, 51
2, 26878, Note_off_c, 0, 78, 64
2, 27002, Control_c, 0, 64, 0
2, 27002, Control_c, 0, 64, 0
2, 27013, Note_on_c, 0, 57, 45
2, 27017, Note_on_c, 0, 81, 45
2, 27017, Note_on_c, 0, 64, 42
2, 27024, Note_on_c, 0, 73, 44
2, 27029, Note_on_c, 0, 69, 33
2, 27036, Note_off_c, 0, 80, 64
2, 27055, Control_c, 0, 64, 127
2, 27055, Control_c, 0, 64, 127
2, 27125, Note_off_c, 0, 57, 64
2, 27129, Note_off_c, 0, 64, 64
2, 27136, Note_off_c, 0, 73, 64
2, 27141, Note_off_c, 0, 69, 64
2, 27180, Note_on_c, 0, 64, 44
2, 27190, Note_off_c, 0, 81, 64
2, 27255, Note_on_c, 0, 69, 41
2, 27273, Note_off_c, 0, 64, 64
2, 27297, Control_c, 0, 64, 127
2, 27297, Control_c, 0, 64, 127
2, 27333, Note_on_c, 0, 68, 45
2, 27359, Note_off_c, 0, 69, 64
2, 27500, Note_on_c, 0, 61, 23
2, 27504, Note_on_c, 0, 49, 34
2, 27505, Note_on_c, 0, 64, 37
2, 27508, Note_on_c, 0, 56, 2
2, 27521, Control_c, 0, 64, 0
2, 27521, Control_c, 0, 64, 0
2, 27567, Control_c, 0, 64, 127
2, 27567, Control_c, 0, 64, 127
2, 27612, Note_off_c, 0, 61, 64
2, 27616, Note_off_c, 0, 49, 64
2, 27617, Note_off_c, 0, 64, 64
2, 27620, Note_off_c, 0, 56, 64
2, 27658, Control_c, 0, 64, 0
2, 27658, Control_c, 0, 64, 0
2, 27678, Note_on_c, 0, 66, 62
2, 27687, Note_off_c, 0, 68, 64
2, 27750, Note_on_c, 0, 63, 56
2, 27762, Note_off_c, 0, 66, 64
2, 27828, Note_on_c, 0, 56, 68
2, 27829, Note_on_c, 0, 66, 64
2, 27831, Note_on_c, 0, 60, 64
2, 27835, Note_on_c, 0, 44, 54
2, 27856, Note_off_c, 0, 63, 64
2, 27940, Note_off_c, 0, 56, 64
2, 27943, Note_off_c, 0, 60, 64
2, 27947, Note_off_c, 0, 44, 64
2, 27994, Note_on_c, 0, 64, 58
2, 27999, Note_on_c, 0, 56, 62
2, 28004, Note_on_c, 0, 37, 54
2, 28005, Note_on_c, 0, 61, 56
2, 28009, Note_on_c, 0, 49, 49
2, 28020, Note_off_c, 0, 66, 64
2, 28028, Control_c, 0, 64, 127
2, 28028, Control_c, 0, 64, 127
2, 28111, Note_off_c, 0, 56, 64
2, 28116, Note_off_c, 0, 37, 64
2, 28117, Note_off_c, 0, 61, 64
2, 28121, Note_off_c, 0, 49, 64
2, 28145, Control_c, 0, 64, 0
2, 28145, Control_c, 0, 64, 0
2, 28168, Note_on_c, 0, 66, 64
2, 28188, Note_off_c, 0, 64, 64
2, 28236, Note_on_c, 0, 63, 56
2, 28253, Note_off_c, 0, 66, 64
2, 28316, Note_on_c, 0, 66, 67
2, 28320, Note_on_c, 0, 59, 28
2, 28320, Note_on_c, 0, 47, 56
2, 28323, Note_on_c, 0, 57, 64
2, 28326, Note_off_c, 0, 63, 64
2, 28356, Control_c, 0, 64, 127
2, 28356, Control_c, 0, 64, 127
2, 28432, Note_off_c, 0, 47, 64
2, 28432, Note_off_c, 0, 59, 64
2, 28435, Note_off_c, 0, 57, 64
2, 28477, Control_c, 0, 64, 0
2, 28477, Control_c, 0, 64, 0
2, 28488, Note_on_c, 0, 59, 28
2, 28488, Note_on_c, 0, 56, 67
2, 28490, Note_on_c, 0, 52, 50
2, 28492, Note_on_c, 0, 64, 58
2, 28499, Note_on_c, 0, 40, 55
2, 28508, Note_off_c, 0, 66, 64
2, 28600, Note_off_c, 0, 56, 64
2, 28600, Note_off_c, 0, 59, 64
2, 28602, Note_off_c, 0, 52, 64
2, 28611, Note_off_c, 0, 40, 64
2, 28650, Note_on_c, 0, 66, 58
2, 28665, Note_off_c, 0, 64, 64
2, 28724, Note_on_c, 0, 63, 57
2, 28764, Note_off_c, 0, 66, 64
2, 28799, Note_on_c, 0, 44, 60
2, 28807, Note_on_c, 0, 66, 67
2, 28807, Note_on_c, 0, 60, 60
2, 28807, Note_on_c, 0, 56, 62
2, 28817, Note_off_c, 0, 63, 64
2, 28850, Control_c, 0, 64, 127
2, 28850, Control_c, 0, 64, 127
2, 28911, Note_off_c, 0, 44, 64
2, 28919, Note_off_c, 0, 56, 64
2, 28919, Note_off_c, 0, 60, 64
2, 28964, Note_on_c, 0, 49, 41
2, 28972, Note_on_c, 0, 64, 48
2, 28972, Note_on_c, 0, 37, 44
2, 28974, Note_on_c, 0, 56, 51
2, 28979, Note_on_c, 0, 61, 54
2, 28995, Note_off_c, 0, 66, 64
2, 28997, Control_c, 0, 64, 0
2, 28997, Control_c, 0, 64, 0
2, 29042, Control_c, 0, 64, 127
2, 29042, Control_c, 0, 64, 127
2, 29066, Note_off_c, 0, 61, 64
2, 29076, Note_off_c, 0, 49, 64
2, 29084, Note_off_c, 0, 37, 64
2, 29086, Note_off_c, 0, 56, 64
2, 29116, Note_off_c, 0, 64, 64
2, 29180, Note_on_c, 0, 54, 17
2, 29186, Note_on_c, 0, 64, 41
2, 29190, Note_on_c, 0, 58, 34
2, 29199, Note_on_c, 0, 42, 23
2, 29215, Control_c, 0, 64, 0
2, 29215, Control_c, 0, 64, 0
2, 29304, Control_c, 0, 64, 127
2, 29304, Control_c, 0, 64, 127
2, 29388, Note_on_c, 0, 47, 40
2, 29390, Note_on_c, 0, 63, 29
2, 29390, Note_on_c, 0, 59, 28
2, 29397, Note_off_c, 0, 42, 64
2, 29416, Note_off_c, 0, 64, 64
2, 29420, Note_off_c, 0, 58, 64
2, 29433, Control_c, 0, 64, 0
2, 29433, Control_c, 0, 64, 0
2, 29513, Control_c, 0, 64, 127
2, 29513, Control_c, 0, 64, 127
2, 29739, Note_off_c, 0, 47, 64
2, 29752, Note_on_c, 0, 64, 37
2, 29753, Note_on_c, 0, 42, 40
2, 29758, Note_on_c, 0, 58, 40
2, 29768, Control_c, 0, 64, 0
2, 29768, Control_c, 0, 64, 0
2, 29778, Note_off_c, 0, 59, 64
2, 29778, Note_off_c, 0, 63, 64
2, 29835, Note_on_c, 0, 49, 41
2, 29835, Control_c, 0, 64, 127
2, 29835, Control_c, 0, 64, 127
2, 29843, Note_off_c, 0, 42, 64
2, 29893, Control_c, 0, 64, 0
2, 29893, Control_c, 0, 64, 0
2, 29916, Note_on_c, 0, 63, 42
2, 29919, Note_on_c, 0, 59, 45
2, 29928, Note_on_c, 0, 47, 42
2, 29930, Note_off_c, 0, 64, 64
2, 29936, Note_off_c, 0, 58, 64
2, 29944, Note_off_c, 0, 49, 64
2, 30046, Control_c, 0, 64, 127
2, 30046, Control_c, 0, 64, 127
2, 30238, Note_off_c, 0, 63, 64
2, 30241, Note_off_c, 0, 59, 64
2, 30243, Note_on_c, 0, 42, 45
2, 30250, Note_off_c, 0, 47, 64
2, 30250, Note_on_c, 0, 58, 34
2, 30252, Note_on_c, 0, 64, 37
2, 30259, Control_c, 0, 64, 0
2, 30259, Control_c, 0, 64, 0
2, 30312, Control_c, 0, 64, 127
2, 30312, Control_c, 0, 64, 127
2, 30326, Note_on_c, 0, 49, 43
2, 30341, Note_off_c, 0, 42, 64
2, 30400, Control_c, 0, 64, 0
2, 30400, Control_c, 0, 64, 0
2, 30406, Note_on_c, 0, 63, 43
2, 30408, Note_on_c, 0, 59, 37
2, 30411, Note_on_c, 0, 47, 47
2, 30416, Note_off_c, 0, 58, 64
2, 30418, Note_off_c, 0, 64, 64
2, 30419, Note_off_c, 0, 49, 64
2, 30455, Control_c, 0, 64, 127
2, 30455, Control_c, 0, 64, 127
2, 30478, Note_off_c, 0, 59, 64
2, 30486, Note_off_c, 0, 63, 64
2, 30495, Note_on_c, 0, 46, 50
2, 30515, Note_off_c, 0, 47, 64
2, 30544, Control_c, 0, 64, 0
2, 30544, Control_c, 0, 64, 0
2, 30571, Note_on_c, 0, 47, 51
2, 30581, Note_off_c, 0, 46, 64
2, 30581, Note_on_c, 0, 63, 42
2, 30584, Note_on_c, 0, 59, 45
2, 30596, Control_c, 0, 64, 127
2, 30596, Control_c, 0, 64, 127
2, 30658, Note_off_c, 0, 63, 64
2, 30659, Note_on_c, 0, 44, 51
2, 30660, Note_off_c, 0, 59, 64
2, 30676, Note_off_c, 0, 47, 64
2, 30756, Note_on_c, 0, 64, 40
2, 30757, Note_on_c, 0, 58, 45
2, 30758, Control_c, 0, 64, 0
2, 30758, Control_c, 0, 64, 0
2, 30767, Note_on_c, 0, 42, 51
2, 30787, Note_off_c, 0, 44, 64
2, 30851, Control_c, 0, 64, 127
2, 30851, Control_c, 0, 64, 127
2, 30856, Note_on_c, 0, 49, 39
2, 30860, Note_off_c, 0, 42, 64
2, 30928, Control_c, 0, 64, 0
2, 30928, Control_c, 0, 64, 0
2, 30936, Note_on_c, 0, 47, 45
2, 30941, Note_on_c, 0, 63, 34
2, 30948, Note_off_c, 0, 49, 64
2, 30954, Note_on_c, 0, 59, 43
2, 30973, Note_off_c, 0, 64, 64
2, 30974, Note_off_c, 0, 58, 64
2, 31062, Control_c, 0, 64, 127
2, 31062, Control_c, 0, 64, 127
2, 31131, Note_off_c, 0, 54, 64
2, 31154, Note_off_c, 0, 59, 64
2, 31160, Note_off_c, 0, 47, 64
2, 31167, Note_off_c, 0, 63, 64
2, 31368, Control_c, 0, 64, 0
2, 31368, Control_c, 0, 64, 0
2, 31385, Note_on_c, 0, 56, 41
2, 31389, Note_on_c, 0, 44, 55
2, 31395, Note_on_c, 0, 60, 45
2, 31396, Note_on_c, 0, 66, 40
2, 31642, Note_on_c, 0, 61, 47
2, 31644, Note_on_c, 0, 65, 33
2, 31648, Note_on_c, 0, 49, 40
2, 31654, Note_off_c, 0, 44, 64
2, 31693, Note_off_c, 0, 60, 64
2, 31694, Note_off_c, 0, 66, 64
2, 31792, Control_c, 0, 64, 127
2, 31792, Control_c, 0, 64, 127
2, 32028, Note_off_c, 0, 49, 64
2, 32036, Control_c, 0, 64, 0
2, 32036, Control_c, 0, 64, 0
2, 32041, Note_on_c, 0, 60, 43
2, 32043, Note_on_c, 0, 44, 45
2, 32044, Note_on_c, 0, 66, 42
2, 32059, Note_off_c, 0, 61, 64
2, 32061, Note_off_c, 0, 65, 64
2, 32073, Control_c, 0, 64, 127
2, 32073, Control_c, 0, 64, 127
2, 32118, Note_on_c, 0, 51, 45
2, 32135, Note_off_c, 0, 44, 64
2, 32207, Note_on_c, 0, 49, 43
2, 32211, Note_on_c, 0, 61, 44
2, 32220, Note_on_c, 0, 65, 41
2, 32222, Note_off_c, 0, 51, 64
2, 32226, Note_off_c, 0, 60, 64
2, 32233, Control_c, 0, 64, 0
2, 32233, Control_c, 0, 64, 0
2, 32236, Note_off_c, 0, 66, 64
2, 32328, Control_c, 0, 64, 127
2, 32328, Control_c, 0, 64, 127
2, 32461, Note_off_c, 0, 65, 64
2, 32479, Note_off_c, 0, 61, 64
2, 32502, Note_off_c, 0, 49, 64
2, 32556, Note_on_c, 0, 66, 51
2, 32560, Note_on_c, 0, 44, 37
2, 32567, Note_on_c, 0, 60, 37
2, 32568, Control_c, 0, 64, 0
2, 32568, Control_c, 0, 64, 0
2, 32603, Control_c, 0, 64, 127
2, 32603, Control_c, 0, 64, 127
2, 32609, Note_on_c, 0, 68, 50
2, 32610, Note_off_c, 0, 66, 64
2, 32621, Note_off_c, 0, 60, 64
2, 32655, Note_on_c, 0, 66, 51
2, 32656, Note_on_c, 0, 51, 42
2, 32664, Note_off_c, 0, 44, 64
2, 32674, Note_off_c, 0, 68, 64
2, 32708, Note_on_c, 0, 61, 48
2, 32715, Note_on_c, 0, 65, 49
2, 32725, Control_c, 0, 64, 0
2, 32725, Control_c, 0, 64, 0
2, 32730, Note_off_c, 0, 66, 64
2, 32738, Note_on_c, 0, 49, 44
2, 32743, Note_off_c, 0, 51, 64
2, 32760, Note_off_c, 0, 61, 64
2, 32768, Note_off_c, 0, 65, 64
2, 32815, Control_c, 0, 64, 127
2, 32815, Control_c, 0, 64, 127
2, 32831, Note_on_c, 0, 48, 40
2, 32842, Note_off_c, 0, 49, 64
2, 32898, Note_on_c, 0, 65, 41
2, 32898, Note_on_c, 0, 61, 34
2, 32904, Note_on_c, 0, 49, 42
2, 32920, Note_off_c, 0, 48, 64
2, 32956, Note_off_c, 0, 65, 64
2, 32960, Note_off_c, 0, 61, 64
2, 32980, Note_on_c, 0, 46, 43
2, 32992, Note_off_c, 0, 49, 64
2, 33061, Control_c, 0, 64, 0
2, 33061, Control_c, 0, 64, 0
2, 33072, Note_on_c, 0, 60, 47
2, 33074, Note_on_c, 0, 66, 50
2, 33074, Note_on_c, 0, 44, 47
2, 33090, Note_off_c, 0, 46, 64
2, 33154, Control_c, 0, 64, 127
2, 33154, Control_c, 0, 64, 127
2, 33170, Note_on_c, 0, 51, 37
2, 33184, Note_off_c, 0, 44, 64
2, 33270, Note_on_c, 0, 65, 43
2, 33274, Note_on_c, 0, 61, 24
2, 33276, Note_on_c, 0, 49, 33
2, 33283, Note_off_c, 0, 60, 64
2, 33285, Note_off_c, 0, 66, 64
2, 33290, Note_off_c, 0, 51, 64
2, 33290, Control_c, 0, 64, 0
2, 33290, Control_c, 0, 64, 0
2, 33371, Control_c, 0, 64, 127
2, 33371, Control_c, 0, 64, 127
2, 33440, Note_off_c, 0, 49, 64
2, 33466, Note_off_c, 0, 56, 64
2, 33479, Note_off_c, 0, 65, 64
2, 33483, Note_off_c, 0, 61, 64
2, 33666, Note_on_c, 0, 61, 32
2, 33668, Note_on_c, 0, 71, 38
2, 33668, Note_on_c, 0, 65, 36
2, 33668, Note_on_c, 0, 49, 20
2, 33725, Control_c, 0, 64, 0
2, 33725, Control_c, 0, 64, 0
2, 33799, Control_c, 0, 64, 0
2, 33799, Control_c, 0, 64, 0
2, 33827, Control_c, 0, 64, 127
2, 33827, Control_c, 0, 64, 127
2, 33908, Note_on_c, 0, 54, 18
2, 33924, Note_on_c, 0, 70, 43
2, 33924, Note_on_c, 0, 66, 34
2, 33943, Control_c, 0, 64, 0
2, 33943, Control_c, 0, 64, 0
2, 33945, Note_off_c, 0, 49, 64
2, 33945, Note_off_c, 0, 65, 64
2, 33945, Note_off_c, 0, 71, 64
2, 34232, Note_off_c, 0, 70, 64
2, 34236, Note_off_c, 0, 66, 64
2, 34242, Control_c, 0, 64, 0
2, 34242, Control_c, 0, 64, 0
2, 34273, Note_on_c, 0, 49, 41
2, 34276, Note_off_c, 0, 54, 64
2, 34280, Note_on_c, 0, 65, 36
2, 34282, Note_on_c, 0, 71, 39
2, 34297, Control_c, 0, 64, 127
2, 34297, Control_c, 0, 64, 127
2, 34381, Note_on_c, 0, 56, 36
2, 34414, Note_off_c, 0, 49, 64
2, 34466, Control_c, 0, 64, 0
2, 34466, Control_c, 0, 64, 0
2, 34472, Note_on_c, 0, 70, 40
2, 34473, Note_on_c, 0, 66, 36
2, 34477, Note_off_c, 0, 71, 64
2, 34480, Note_on_c, 0, 54, 41
2, 34482, Note_off_c, 0, 65, 64
2, 34501, Note_off_c, 0, 56, 64
2, 34548, Control_c, 0, 64, 127
2, 34548, Control_c, 0, 64, 127
2, 34764, Note_on_c, 0, 51, 22
2, 34783, Note_off_c, 0, 54, 64
2, 34808, Note_off_c, 0, 70, 64
2, 34809, Note_off_c, 0, 66, 64
2, 34848, Note_on_c, 0, 49, 33
2, 34852, Note_on_c, 0, 65, 23
2, 34855, Note_on_c, 0, 71, 31
2, 34857, Note_off_c, 0, 51, 64
2, 34865, Control_c, 0, 64, 0
2, 34865, Control_c, 0, 64, 0
2, 34888, Control_c, 0, 64, 127
2, 34888, Control_c, 0, 64, 127
2, 34904, Note_on_c, 0, 73, 43
2, 34911, Note_off_c, 0, 65, 64
2, 34914, Note_off_c, 0, 71, 64
2, 34934, Note_on_c, 0, 56, 34
2, 34957, Note_off_c, 0, 49, 64
2, 34961, Note_on_c, 0, 71, 34
2, 34966, Note_off_c, 0, 73, 64
2, 35006, Control_c, 0, 64, 0
2, 35006, Control_c, 0, 64, 0
2, 35017, Note_on_c, 0, 70, 47
2, 35020, Note_on_c, 0, 66, 37
2, 35020, Note_on_c, 0, 54, 28
2, 35029, Note_off_c, 0, 71, 64
2, 35041, Note_off_c, 0, 56, 64
2, 35055, Control_c, 0, 64, 127
2, 35055, Control_c, 0, 64, 127
2, 35084, Note_off_c, 0, 70, 64
2, 35087, Note_off_c, 0, 66, 64
2, 35098, Note_on_c, 0, 53, 37
2, 35113, Note_off_c, 0, 54, 64
2, 35182, Note_on_c, 0, 54, 26
2, 35187, Note_on_c, 0, 70, 42
2, 35192, Note_on_c, 0, 66, 39
2, 35200, Note_off_c, 0, 53, 64
2, 35205, Control_c, 0, 64, 0
2, 35205, Control_c, 0, 64, 0
2, 35232, Control_c, 0, 64, 127
2, 35232, Control_c, 0, 64, 127
2, 35256, Note_off_c, 0, 66, 64
2, 35256, Note_off_c, 0, 70, 64
2, 35268, Note_on_c, 0, 51, 37
2, 35289, Note_off_c, 0, 54, 64
2, 35364, Note_on_c, 0, 65, 36
2, 35368, Note_on_c, 0, 71, 37
2, 35370, Note_on_c, 0, 49, 36
2, 35377, Control_c, 0, 64, 0
2, 35377, Control_c, 0, 64, 0
2, 35384, Note_off_c, 0, 51, 64
2, 35412, Control_c, 0, 64, 127
2, 35412, Control_c, 0, 64, 127
2, 35424, Note_on_c, 0, 73, 39
2, 35436, Note_off_c, 0, 65, 64
2, 35443, Note_off_c, 0, 71, 64
2, 35462, Note_on_c, 0, 56, 34
2, 35477, Note_on_c, 0, 71, 40
2, 35492, Note_off_c, 0, 73, 64
2, 35496, Note_off_c, 0, 49, 64
2, 35544, Note_on_c, 0, 70, 43
2, 35547, Control_c, 0, 64, 0
2, 35547, Control_c, 0, 64, 0
2, 35548, Note_on_c, 0, 66, 43
2, 35555, Note_on_c, 0, 54, 34
2, 35556, Note_off_c, 0, 71, 64
2, 35568, Note_off_c, 0, 56, 64
2, 35727, Control_c, 0, 64, 127
2, 35727, Control_c, 0, 64, 127
2, 35778, Note_off_c, 0, 54, 64
2, 35872, Note_off_c, 0, 61, 64
2, 35899, Note_off_c, 0, 70, 64
2, 35903, Note_off_c, 0, 66, 64
2, 35938, Control_c, 0, 64, 0
2, 35938, Control_c, 0, 64, 0
2, 35945, Note_on_c, 0, 70, 37
2, 35949, Note_on_c, 0, 66, 42
2, 35949, Note_on_c, 0, 76, 39
2, 35949, Note_on_c, 0, 54, 45
2, 36180, Note_on_c, 0, 75, 38
2, 36182, Note_on_c, 0, 71, 38
2, 36188, Note_on_c, 0, 59, 36
2, 36194, Note_off_c, 0, 70, 64
2, 36198, Note_off_c, 0, 76, 64
2, 36202, Note_off_c, 0, 54, 64
2, 36325, Control_c, 0, 64, 127
2, 36325, Control_c, 0, 64, 127
2, 36503, Note_off_c, 0, 59, 64
2, 36504, Note_off_c, 0, 75, 64
2, 36506, Note_off_c, 0, 71, 64
2, 36542, Note_on_c, 0, 54, 35
2, 36548, Note_on_c, 0, 70, 37
2, 36555, Note_on_c, 0, 76, 43
2, 36613, Note_on_c, 0, 78, 38
2, 36622, Note_off_c, 0, 76, 64
2, 36631, Note_off_c, 0, 70, 64
2, 36636, Note_on_c, 0, 61, 40
2, 36662, Note_off_c, 0, 54, 64
2, 36663, Note_on_c, 0, 76, 38
2, 36673, Note_off_c, 0, 78, 64
2, 36734, Note_on_c, 0, 75, 42
2, 36740, Note_on_c, 0, 71, 37
2, 36746, Note_off_c, 0, 76, 64
2, 36748, Note_on_c, 0, 59, 34
2, 36760, Note_off_c, 0, 61, 64
2, 36771, Control_c, 0, 64, 0
2, 36771, Control_c, 0, 64, 0
2, 36875, Control_c, 0, 64, 127
2, 36875, Control_c, 0, 64, 127
2, 37024, Note_off_c, 0, 71, 64
2, 37031, Note_off_c, 0, 75, 64
2, 37040, Note_on_c, 0, 56, 40
2, 37068, Note_off_c, 0, 59, 64
2, 37123, Note_on_c, 0, 54, 44
2, 37143, Note_off_c, 0, 56, 64
2, 37182, Control_c, 0, 64, 0
2, 37182, Control_c, 0, 64, 0
2, 37205, Note_on_c, 0, 56, 40
2, 37217, Note_off_c, 0, 54, 64
2, 37290, Note_on_c, 0, 54, 49
2, 37310, Note_off_c, 0, 56, 64
2, 37350, Note_off_c, 0, 66, 64
2, 37382, Note_on_c, 0, 53, 38
2, 37399, Note_off_c, 0, 54, 64
2, 37457, Note_on_c, 0, 52, 51
2, 37473, Note_off_c, 0, 53, 64
2, 37534, Note_on_c, 0, 51, 45
2, 37548, Note_off_c, 0, 52, 64
2, 37621, Note_on_c, 0, 49, 53
2, 37637, Note_off_c, 0, 51, 64
2, 37706, Note_on_c, 0, 51, 64
2, 37732, Note_off_c, 0, 49, 64
2, 37797, Note_on_c, 0, 49, 64
2, 37812, Note_off_c, 0, 51, 64
2, 37885, Note_on_c, 0, 47, 48
2, 37902, Note_off_c, 0, 49, 64
2, 37971, Note_on_c, 0, 46, 62
2, 37992, Note_off_c, 0, 47, 64
2, 38047, Note_on_c, 0, 44, 70
2, 38068, Note_off_c, 0, 46, 64
2, 38150, Note_on_c, 0, 54, 76
2, 38152, Note_on_c, 0, 42, 64
2, 38154, Note_on_c, 0, 30, 64
2, 38176, Note_off_c, 0, 44, 64
2, 38364, Note_on_c, 0, 59, 58
2, 38364, Note_on_c, 0, 63, 56
2, 38370, Note_off_c, 0, 54, 64
2, 38413, Control_c, 0, 64, 127
2, 38413, Control_c, 0, 64, 127
2, 38448, Note_on_c, 0, 54, 65
2, 38462, Note_off_c, 0, 63, 64
2, 38462, Note_off_c, 0, 59, 64
2, 38480, Control_c, 0, 64, 0
2, 38480, Control_c, 0, 64, 0
2, 38507, Control_c, 0, 64, 127
2, 38507, Control_c, 0, 64, 127
2, 38528, Note_on_c, 0, 59, 58
2, 38529, Note_on_c, 0, 63, 54
2, 38537, Note_off_c, 0, 54, 64
2, 38608, Note_on_c, 0, 64, 61
2, 38608, Note_on_c, 0, 61, 51
2, 38616, Note_off_c, 0, 59, 64
2, 38617, Note_off_c, 0, 63, 64
2, 38672, Note_off_c, 0, 42, 64
2, 38674, Note_off_c, 0, 30, 64
2, 38688, Note_on_c, 0, 65, 64
2, 38699, Note_on_c, 0, 62, 64
2, 38709, Note_off_c, 0, 61, 64
2, 38709, Note_off_c, 0, 64, 64
2, 38779, Note_off_c, 0, 62, 64
2, 38779, Note_off_c, 0, 65, 64
2, 38801, Note_on_c, 0, 56, 64
2, 38845, Note_off_c, 0, 56, 64
2, 38850, Note_on_c, 0, 65, 64
2, 38854, Note_on_c, 0, 62, 61
2, 38857, Note_on_c, 0, 56, 64
2, 38858, Note_on_c, 0, 42, 67
2, 38858, Control_c, 0, 64, 0
2, 38858, Control_c, 0, 64, 0
2, 38860, Note_on_c, 0, 30, 64
2, 38904, Control_c, 0, 64, 127
2, 38904, Control_c, 0, 64, 127
2, 38973, Note_off_c, 0, 65, 64
2, 38977, Note_off_c, 0, 62, 64
2, 38980, Note_off_c, 0, 56, 64
2, 38981, Note_off_c, 0, 42, 64
2, 38983, Note_off_c, 0, 30, 64
2, 39024, Note_on_c, 0, 42, 55
2, 39028, Note_on_c, 0, 66, 64
2, 39028, Note_on_c, 0, 54, 50
2, 39028, Note_on_c, 0, 30, 64
2, 39031, Note_on_c, 0, 63, 59
2, 39041, Control_c, 0, 64, 0
2, 39041, Control_c, 0, 64, 0
2, 39067, Control_c, 0, 64, 127
2, 39067, Control_c, 0, 64, 127
2, 39135, Note_off_c, 0, 42, 64
2, 39151, Note_off_c, 0, 30, 64
2, 39151, Note_off_c, 0, 54, 64
2, 39151, Note_off_c, 0, 66, 64
2, 39154, Note_off_c, 0, 63, 64
2, 39194, Note_on_c, 0, 56, 60
2, 39230, Note_on_c, 0, 64, 56
2, 39248, Note_on_c, 0, 42, 61
2, 39250, Note_on_c, 0, 71, 64
2, 39252, Note_on_c, 0, 30, 64
2, 39263, Control_c, 0, 64, 0
2, 39263, Control_c, 0, 64, 0
2, 39263, Control_c, 0, 64, 127
2, 39263, Control_c, 0, 64, 127
2, 39308, Control_c, 0, 64, 127
2, 39308, Control_c, 0, 64, 127
2, 39366, Note_off_c, 0, 56, 64
2, 39379, Note_off_c, 0, 42, 64
2, 39402, Note_off_c, 0, 64, 64
2, 39422, Note_off_c, 0, 71, 64
2, 39460, Note_on_c, 0, 56, 51
2, 39460, Note_on_c, 0, 42, 64
2, 39462, Note_on_c, 0, 59, 57
2, 39496, Note_off_c, 0, 30, 64
2, 39552, Note_on_c, 0, 68, 55
2, 39552, Note_on_c, 0, 64, 55
2, 39553, Note_on_c, 0, 71, 64
2, 39557, Note_off_c, 0, 56, 64
2, 39559, Note_off_c, 0, 59, 64
2, 39624, Note_on_c, 0, 66, 65
2, 39625, Note_on_c, 0, 70, 65
2, 39634, Note_off_c, 0, 71, 64
2, 39634, Note_off_c, 0, 64, 64
2, 39634, Note_off_c, 0, 68, 64
2, 39644, Note_on_c, 0, 71, 70
2, 39656, Note_off_c, 0, 66, 64
2, 39657, Note_off_c, 0, 70, 64
2, 39686, Note_on_c, 0, 70, 75
2, 39690, Note_on_c, 0, 66, 64
2, 39706, Note_off_c, 0, 71, 64
2, 39716, Note_off_c, 0, 42, 64
2, 39763, Note_on_c, 0, 68, 55
2, 39767, Note_off_c, 0, 70, 64
2, 39769, Note_on_c, 0, 64, 67
2, 39771, Note_off_c, 0, 66, 64
2, 39856, Note_on_c, 0, 65, 67
2, 39856, Note_on_c, 0, 62, 75
2, 39863, Note_off_c, 0, 64, 64
2, 39869, Note_off_c, 0, 68, 64
2, 39870, Control_c, 0, 64, 0
2, 39870, Control_c, 0, 64, 0
2, 39902, Control_c, 0, 64, 127
2, 39902, Control_c, 0, 64, 127
2, 39952, Note_off_c, 0, 65, 64
2, 39955, Note_off_c, 0, 62, 64
2, 39966, Note_on_c, 0, 56, 57
2, 40002, Note_off_c, 0, 56, 64
2, 40011, Note_on_c, 0, 65, 64
2, 40012, Note_on_c, 0, 56, 57
2, 40015, Note_on_c, 0, 62, 61
2, 40015, Note_on_c, 0, 42, 64
2, 40016, Note_on_c, 0, 30, 64
2, 40030, Control_c, 0, 64, 0
2, 40030, Control_c, 0, 64, 0
2, 40064, Control_c, 0, 64, 127
2, 40064, Control_c, 0, 64, 127
2, 40138, Note_off_c, 0, 42, 64
2, 40139, Note_off_c, 0, 30, 64
2, 40185, Note_on_c, 0, 54, 56
2, 40187, Note_on_c, 0, 42, 55
2, 40188, Note_on_c, 0, 66, 64
2, 40190, Note_off_c, 0, 65, 64
2, 40190, Note_on_c, 0, 63, 60
2, 40190, Note_on_c, 0, 30, 64
2, 40191, Note_off_c, 0, 56, 64
2, 40194, Note_off_c, 0, 62, 64
2, 40200, Control_c, 0, 64, 0
2, 40200, Control_c, 0, 64, 0
2, 40226, Control_c, 0, 64, 127
2, 40226, Control_c, 0, 64, 127
2, 40310, Note_off_c, 0, 42, 64
2, 40313, Note_off_c, 0, 30, 64
2, 40361, Control_c, 0, 64, 0
2, 40361, Control_c, 0, 64, 0
2, 40364, Note_off_c, 0, 54, 64
2, 40368, Note_on_c, 0, 68, 67
2, 40368, Note_on_c, 0, 42, 55
2, 40370, Note_on_c, 0, 30, 64
2, 40371, Note_on_c, 0, 64, 64
2, 40375, Note_on_c, 0, 58, 50
2, 40379, Note_off_c, 0, 66, 64
2, 40381, Note_off_c, 0, 63, 64
2, 40400, Control_c, 0, 64, 127
2, 40400, Control_c, 0, 64, 127
2, 40515, Note_off_c, 0, 42, 64
2, 40519, Note_off_c, 0, 68, 64
2, 40520, Note_on_c, 0, 42, 55
2, 40520, Control_c, 0, 64, 127
2, 40520, Control_c, 0, 64, 127
2, 40522, Note_off_c, 0, 64, 64
2, 40526, Note_off_c, 0, 58, 64
2, 40527, Note_on_c, 0, 54, 69
2, 40600, Note_on_c, 0, 68, 60
2, 40600, Note_on_c, 0, 64, 49
2, 40600, Note_on_c, 0, 58, 1
2, 40619, Note_off_c, 0, 54, 64
2, 40650, Note_off_c, 0, 30, 64
2, 40657, Note_off_c, 0, 58, 64
2, 40657, Note_off_c, 0, 64, 64
2, 40657, Note_off_c, 0, 68, 64
2, 40666, Note_on_c, 0, 63, 55
2, 40667, Note_on_c, 0, 66, 55
2, 40686, Note_on_c, 0, 68, 59
2, 40698, Note_off_c, 0, 63, 64
2, 40699, Note_off_c, 0, 66, 64
2, 40716, Note_off_c, 0, 42, 64
2, 40720, Note_on_c, 0, 66, 75
2, 40720, Note_on_c, 0, 63, 64
2, 40720, Note_on_c, 0, 43, 65
2, 40720, Note_on_c, 0, 31, 65
2, 40724, Note_on_c, 0, 58, 60
2, 40748, Note_off_c, 0, 68, 64
2, 40780, Note_off_c, 0, 58, 64
2, 40806, Note_on_c, 0, 64, 64
2, 40806, Note_on_c, 0, 61, 60
2, 40813, Note_off_c, 0, 63, 64
2, 40813, Note_off_c, 0, 66, 64
2, 40855, Note_off_c, 0, 31, 64
2, 40855, Note_off_c, 0, 43, 64
2, 40893, Control_c, 0, 64, 0
2, 40893, Control_c, 0, 64, 0
2, 40898, Note_on_c, 0, 62, 67
2, 40900, Note_on_c, 0, 58, 75
2, 40900, Note_on_c, 0, 44, 65
2, 40900, Note_on_c, 0, 32, 65
2, 40914, Note_off_c, 0, 61, 64
2, 40914, Note_off_c, 0, 64, 64
2, 40953, Control_c, 0, 64, 127
2, 40953, Control_c, 0, 64, 127
2, 40980, Note_on_c, 0, 51, 62
2, 41014, Note_off_c, 0, 62, 64
2, 41018, Note_off_c, 0, 44, 64
2, 41019, Note_off_c, 0, 58, 64
2, 41046, Note_off_c, 0, 51, 64
2, 41055, Note_off_c, 0, 32, 64
2, 41065, Note_on_c, 0, 62, 62
2, 41068, Note_on_c, 0, 44, 65
2, 41071, Note_on_c, 0, 58, 70
2, 41078, Control_c, 0, 64, 0
2, 41078, Control_c, 0, 64, 0
2, 41123, Control_c, 0, 64, 127
2, 41123, Control_c, 0, 64, 127
2, 41171, Note_off_c, 0, 44, 64
2, 41245, Note_on_c, 0, 59, 62
2, 41245, Note_on_c, 0, 63, 64
2, 41248, Note_on_c, 0, 51, 54
2, 41248, Note_on_c, 0, 54, 54
2, 41250, Note_on_c, 0, 44, 54
2, 41252, Note_off_c, 0, 62, 64
2, 41257, Control_c, 0, 64, 0
2, 41257, Control_c, 0, 64, 0
2, 41258, Note_off_c, 0, 58, 64
2, 41261, Control_c, 0, 64, 0
2, 41261, Control_c, 0, 64, 0
2, 41293, Control_c, 0, 64, 127
2, 41293, Control_c, 0, 64, 127
2, 41366, Note_off_c, 0, 44, 64
2, 41373, Note_off_c, 0, 63, 64
2, 41373, Note_off_c, 0, 59, 64
2, 41376, Note_off_c, 0, 54, 64
2, 41376, Note_off_c, 0, 51, 64
2, 41423, Note_on_c, 0, 37, 54
2, 41427, Note_on_c, 0, 63, 65
2, 41431, Note_on_c, 0, 59, 64
2, 41438, Control_c, 0, 64, 0
2, 41438, Control_c, 0, 64, 0
2, 41496, Control_c, 0, 64, 127
2, 41496, Control_c, 0, 64, 127
2, 41608, Note_off_c, 0, 59, 64
2, 41612, Note_on_c, 0, 53, 60
2, 41616, Note_on_c, 0, 49, 53
2, 41618, Note_on_c, 0, 56, 60
2, 41623, Note_off_c, 0, 63, 64
2, 41670, Note_off_c, 0, 49, 64
2, 41672, Note_off_c, 0, 56, 64
2, 41696, Note_on_c, 0, 63, 73
2, 41696, Note_on_c, 0, 59, 60
2, 41717, Note_off_c, 0, 53, 64
2, 41722, Note_off_c, 0, 37, 64
2, 41730, Note_off_c, 0, 59, 64
2, 41730, Note_off_c, 0, 63, 64
2, 41743, Note_on_c, 0, 63, 70
2, 41746, Note_on_c, 0, 59, 62
2, 41776, Note_on_c, 0, 65, 64
2, 41786, Control_c, 0, 64, 0
2, 41786, Control_c, 0, 64, 0
2, 41788, Note_off_c, 0, 63, 64
2, 41791, Note_off_c, 0, 59, 64
2, 41798, Note_on_c, 0, 59, 52
2, 41800, Note_on_c, 0, 63, 71
2, 41804, Note_on_c, 0, 49, 53
2, 41806, Note_on_c, 0, 56, 60
2, 41813, Control_c, 0, 64, 127
2, 41813, Control_c, 0, 64, 127
2, 41828, Note_off_c, 0, 65, 64
2, 41858, Note_off_c, 0, 49, 64
2, 41860, Note_off_c, 0, 56, 64
2, 41885, Note_off_c, 0, 59, 64
2, 41887, Note_off_c, 0, 63, 64
2, 41908, Note_on_c, 0, 61, 72
2, 41908, Note_on_c, 0, 59, 70
2, 41964, Note_on_c, 0, 64, 64
2, 41964, Note_on_c, 0, 30, 67
2, 41969, Note_on_c, 0, 42, 65
2, 41970, Note_on_c, 0, 68, 67
2, 41971, Note_off_c, 0, 61, 64
2, 41977, Note_off_c, 0, 59, 64
2, 41977, Control_c, 0, 64, 0
2, 41977, Control_c, 0, 64, 0
2, 42013, Control_c, 0, 64, 127
2, 42013, Control_c, 0, 64, 127
2, 42057, Note_off_c, 0, 68, 64
2, 42068, Note_on_c, 0, 71, 65
2, 42068, Note_on_c, 0, 68, 60
2, 42071, Note_off_c, 0, 64, 64
2, 42132, Note_on_c, 0, 54, 71
2, 42136, Note_off_c, 0, 30, 64
2, 42137, Note_on_c, 0, 61, 65
2, 42139, Note_on_c, 0, 58, 67
2, 42141, Note_off_c, 0, 42, 64
2, 42153, Control_c, 0, 64, 0
2, 42153, Control_c, 0, 64, 0
2, 42155, Note_off_c, 0, 68, 64
2, 42155, Note_off_c, 0, 71, 64
2, 42191, Control_c, 0, 64, 127
2, 42191, Control_c, 0, 64, 127
2, 42295, Note_off_c, 0, 54, 64
2, 42300, Note_off_c, 0, 61, 64
2, 42302, Note_off_c, 0, 58, 64
2, 42330, Control_c, 0, 64, 0
2, 42330, Control_c, 0, 64, 0
2, 42336, Note_on_c, 0, 64, 64
2, 42336, Note_on_c, 0, 61, 65
2, 42337, Note_on_c, 0, 68, 64
2, 42340, Note_on_c, 0, 58, 65
2, 42342, Note_on_c, 0, 54, 71
2, 42350, Control_c, 0, 64, 127
2, 42350, Control_c, 0, 64, 127
2, 42471, Note_off_c, 0, 64, 64
2, 42486, Note_off_c, 0, 61, 64
2, 42490, Note_off_c, 0, 58, 64
2, 42493, Note_off_c, 0, 54, 64
2, 42505, Note_off_c, 0, 68, 64
2, 42539, Note_on_c, 0, 63, 60
2, 42540, Note_on_c, 0, 66, 64
2, 42543, Note_on_c, 0, 75, 64
2, 42545, Note_on_c, 0, 47, 54
2, 42545, Note_on_c, 0, 35, 60
2, 42564, Control_c, 0, 64, 0
2, 42564, Control_c, 0, 64, 0
2, 42607, Control_c, 0, 64, 127
2, 42607, Control_c, 0, 64, 127
2, 42713, Note_off_c, 0, 66, 64
2, 42722, Note_on_c, 0, 54, 54
2, 42735, Note_on_c, 0, 59, 55
2, 42738, Note_on_c, 0, 66, 75
2, 42742, Note_off_c, 0, 63, 64
2, 42746, Note_off_c, 0, 75, 64
2, 42748, Note_off_c, 0, 35, 64
2, 42748, Note_off_c, 0, 47, 64
2, 42752, Note_on_c, 0, 63, 55
2, 42804, Note_on_c, 0, 75, 55
2, 42805, Note_on_c, 0, 71, 55
2, 42820, Note_off_c, 0, 66, 64
2, 42864, Note_off_c, 0, 59, 64
2, 42873, Note_off_c, 0, 54, 64
2, 42881, Note_off_c, 0, 63, 64
2, 42896, Note_on_c, 0, 76, 56
2, 42900, Note_on_c, 0, 73, 75
2, 42907, Note_off_c, 0, 75, 64
2, 42908, Note_off_c, 0, 71, 64
2, 43001, Note_on_c, 0, 77, 64
2, 43001, Note_on_c, 0, 74, 65
2, 43002, Note_off_c, 0, 73, 64
2, 43006, Note_off_c, 0, 76, 64
2, 43036, Note_off_c, 0, 74, 64
2, 43036, Note_off_c, 0, 77, 64
2, 43059, Note_on_c, 0, 74, 74
2, 43059, Note_on_c, 0, 77, 64
2, 43065, Note_on_c, 0, 47, 64
2, 43070, Control_c, 0, 64, 0
2, 43070, Control_c, 0, 64, 0
2, 43108, Control_c, 0, 64, 127
2, 43108, Control_c, 0, 64, 127
2, 43172, Note_on_c, 0, 68, 71
2, 43207, Note_off_c, 0, 77, 64
2, 43210, Note_off_c, 0, 74, 64
2, 43232, Note_on_c, 0, 74, 60
2, 43232, Note_on_c, 0, 62, 55
2, 43232, Note_on_c, 0, 59, 52
2, 43235, Note_on_c, 0, 56, 50
2, 43236, Note_on_c, 0, 77, 70
2, 43250, Note_off_c, 0, 68, 64
2, 43250, Control_c, 0, 64, 0
2, 43250, Control_c, 0, 64, 0
2, 43294, Control_c, 0, 64, 127
2, 43294, Control_c, 0, 64, 127
2, 43352, Note_off_c, 0, 59, 64
2, 43355, Note_off_c, 0, 47, 64
2, 43358, Note_off_c, 0, 62, 64
2, 43360, Note_off_c, 0, 56, 64
2, 43382, Note_off_c, 0, 74, 64
2, 43408, Note_off_c, 0, 77, 64
2, 43416, Note_on_c, 0, 59, 51
2, 43417, Note_on_c, 0, 66, 62
2, 43420, Note_on_c, 0, 75, 59
2, 43420, Note_on_c, 0, 54, 60
2, 43422, Note_on_c, 0, 78, 67
2, 43422, Note_on_c, 0, 63, 59
2, 43530, Note_on_c, 0, 68, 67
2, 43539, Note_off_c, 0, 59, 64
2, 43540, Note_off_c, 0, 66, 64
2, 43543, Note_off_c, 0, 54, 64
2, 43543, Note_off_c, 0, 75, 64
2, 43545, Note_off_c, 0, 63, 64
2, 43545, Note_off_c, 0, 78, 64
2, 43559, Note_off_c, 0, 68, 64
2, 43590, Note_on_c, 0, 68, 64
2, 43626, Note_on_c, 0, 76, 54
2, 43646, Note_on_c, 0, 40, 59
2, 43651, Note_on_c, 0, 83, 73
2, 43659, Control_c, 0, 64, 0
2, 43659, Control_c, 0, 64, 0
2, 43695, Control_c, 0, 64, 127
2, 43695, Control_c, 0, 64, 127
2, 43809, Note_off_c, 0, 68, 64
2, 43845, Note_off_c, 0, 76, 64
2, 43868, Note_on_c, 0, 71, 50
2, 43868, Note_on_c, 0, 68, 48
2, 43868, Note_on_c, 0, 64, 61
2, 43868, Note_on_c, 0, 59, 60
2, 43868, Note_on_c, 0, 56, 52
2, 43870, Note_off_c, 0, 83, 64
2, 43924, Note_off_c, 0, 40, 64
2, 43934, Note_off_c, 0, 56, 64
2, 43934, Note_off_c, 0, 59, 64
2, 43934, Note_off_c, 0, 64, 64
2, 43934, Note_off_c, 0, 68, 64
2, 43944, Note_on_c, 0, 83, 60
2, 43944, Note_on_c, 0, 80, 65
2, 43960, Note_off_c, 0, 71, 64
2, 44001, Note_off_c, 0, 80, 64
2, 44001, Note_off_c, 0, 83, 64
2, 44012, Note_on_c, 0, 83, 65
2, 44026, Control_c, 0, 64, 0
2, 44026, Control_c, 0, 64, 0
2, 44044, Note_on_c, 0, 82, 61
2, 44050, Note_on_c, 0, 78, 60
2, 44061, Note_off_c, 0, 83, 64
2, 44073, Control_c, 0, 64, 127
2, 44073, Control_c, 0, 64, 127
2, 44140, Note_on_c, 0, 80, 72
2, 44142, Note_on_c, 0, 76, 67
2, 44155, Note_off_c, 0, 82, 64
2, 44161, Note_off_c, 0, 78, 64
2, 44232, Note_on_c, 0, 74, 70
2, 44233, Note_on_c, 0, 77, 64
2, 44237, Note_off_c, 0, 80, 64
2, 44239, Note_off_c, 0, 76, 64
2, 44247, Control_c, 0, 64, 0
2, 44247, Control_c, 0, 64, 0
2, 44250, Note_on_c, 0, 47, 65
2, 44285, Control_c, 0, 64, 127
2, 44285, Control_c, 0, 64, 127
2, 44345, Note_on_c, 0, 66, 61
2, 44349, Note_off_c, 0, 74, 64
2, 44350, Note_off_c, 0, 77, 64
2, 44393, Note_on_c, 0, 77, 60
2, 44396, Note_on_c, 0, 74, 59
2, 44400, Note_on_c, 0, 59, 51
2, 44400, Note_on_c, 0, 56, 50
2, 44403, Note_on_c, 0, 62, 58
2, 44417, Note_off_c, 0, 66, 64
2, 44417, Control_c, 0, 64, 0
2, 44417, Control_c, 0, 64, 0
2, 44466, Control_c, 0, 64, 127
2, 44466, Control_c, 0, 64, 127
2, 44533, Note_off_c, 0, 47, 64
2, 44572, Note_on_c, 0, 75, 52
2, 44573, Note_off_c, 0, 56, 64
2, 44573, Note_off_c, 0, 59, 64
2, 44573, Note_on_c, 0, 66, 50
2, 44575, Note_on_c, 0, 78, 62
2, 44576, Note_off_c, 0, 62, 64
2, 44576, Note_on_c, 0, 54, 54
2, 44579, Note_on_c, 0, 63, 51
2, 44580, Note_on_c, 0, 59, 51
2, 44590, Note_off_c, 0, 77, 64
2, 44593, Note_off_c, 0, 74, 64
2, 44594, Control_c, 0, 64, 0
2, 44594, Control_c, 0, 64, 0
2, 44626, Control_c, 0, 64, 127
2, 44626, Control_c, 0, 64, 127
2, 44749, Note_off_c, 0, 54, 64
2, 44752, Note_off_c, 0, 63, 64
2, 44752, Note_on_c, 0, 42, 61
2, 44753, Note_off_c, 0, 59, 64
2, 44756, Note_on_c, 0, 76, 64
2, 44756, Note_on_c, 0, 70, 64
2, 44756, Note_on_c, 0, 54, 61
2, 44763, Note_on_c, 0, 80, 60
2, 44769, Note_off_c, 0, 75, 64
2, 44770, Note_off_c, 0, 66, 64
2, 44771, Control_c, 0, 64, 0
2, 44771, Control_c, 0, 64, 0
2, 44772, Note_off_c, 0, 78, 64
2, 44779, Control_c, 0, 64, 0
2, 44779, Control_c, 0, 64, 0
2, 44823, Control_c, 0, 64, 127
2, 44823, Control_c, 0, 64, 127
2, 44911, Note_off_c, 0, 70, 64
2, 44911, Note_off_c, 0, 76, 64
2, 44918, Note_off_c, 0, 80, 64
2, 44919, Note_off_c, 0, 54, 64
2, 44937, Note_on_c, 0, 54, 28
2, 44944, Note_on_c, 0, 61, 48
2, 44946, Note_on_c, 0, 64, 36
2, 44948, Note_on_c, 0, 66, 68
2, 45028, Note_on_c, 0, 70, 61
2, 45029, Note_off_c, 0, 42, 64
2, 45029, Note_on_c, 0, 80, 62
2, 45029, Note_on_c, 0, 76, 61
2, 45038, Note_off_c, 0, 66, 64
2, 45094, Note_off_c, 0, 70, 64
2, 45095, Note_off_c, 0, 76, 64
2, 45101, Note_off_c, 0, 80, 64
2, 45110, Note_on_c, 0, 80, 64
2, 45129, Control_c, 0, 64, 0
2, 45129, Control_c, 0, 64, 0
2, 45132, Note_on_c, 0, 75, 51
2, 45132, Note_on_c, 0, 70, 62
2, 45132, Note_on_c, 0, 42, 61
2, 45133, Note_on_c, 0, 78, 49
2, 45153, Note_off_c, 0, 64, 64
2, 45156, Control_c, 0, 64, 127
2, 45156, Control_c, 0, 64, 127
2, 45166, Note_off_c, 0, 61, 64
2, 45169, Note_off_c, 0, 80, 64
2, 45186, Note_off_c, 0, 54, 64
2, 45222, Note_on_c, 0, 73, 58
2, 45224, Note_on_c, 0, 76, 60
2, 45237, Note_off_c, 0, 70, 64
2, 45237, Note_off_c, 0, 75, 64
2, 45238, Note_off_c, 0, 78, 64
2, 45246, Control_c, 0, 64, 127
2, 45246, Control_c, 0, 64, 127
2, 45277, Note_off_c, 0, 42, 64
2, 45314, Note_on_c, 0, 70, 65
2, 45316, Note_on_c, 0, 74, 65
2, 45320, Note_on_c, 0, 44, 54
2, 45329, Note_off_c, 0, 73, 64
2, 45331, Note_off_c, 0, 76, 64
2, 45336, Control_c, 0, 64, 0
2, 45336, Control_c, 0, 64, 0
2, 45378, Control_c, 0, 64, 127
2, 45378, Control_c, 0, 64, 127
2, 45420, Note_off_c, 0, 74, 64
2, 45443, Note_off_c, 0, 70, 64
2, 45444, Note_on_c, 0, 63, 58
2, 45480, Note_on_c, 0, 70, 65
2, 45480, Note_on_c, 0, 51, 55
2, 45481, Note_on_c, 0, 74, 60
2, 45484, Note_on_c, 0, 59, 51
2, 45484, Note_on_c, 0, 56, 54
2, 45502, Control_c, 0, 64, 127
2, 45502, Control_c, 0, 64, 127
2, 45503, Control_c, 0, 64, 0
2, 45503, Control_c, 0, 64, 0
2, 45513, Note_off_c, 0, 63, 64
2, 45539, Control_c, 0, 64, 127
2, 45539, Control_c, 0, 64, 127
2, 45583, Note_off_c, 0, 51, 64
2, 45587, Note_off_c, 0, 56, 64
2, 45587, Note_off_c, 0, 59, 64
2, 45664, Note_on_c, 0, 71, 60
2, 45668, Note_on_c, 0, 75, 65
2, 45668, Note_on_c, 0, 66, 49
2, 45668, Note_on_c, 0, 59, 51
2, 45668, Note_on_c, 0, 56, 54
2, 45668, Note_on_c, 0, 51, 55
2, 45675, Note_off_c, 0, 70, 64
2, 45676, Note_off_c, 0, 74, 64
2, 45687, Control_c, 0, 64, 127
2, 45687, Control_c, 0, 64, 127
2, 45691, Note_off_c, 0, 44, 64
2, 45695, Control_c, 0, 64, 0
2, 45695, Control_c, 0, 64, 0
2, 45722, Control_c, 0, 64, 127
2, 45722, Control_c, 0, 64, 127
2, 45771, Note_off_c, 0, 51, 64
2, 45771, Note_off_c, 0, 56, 64
2, 45771, Note_off_c, 0, 59, 64
2, 45787, Note_off_c, 0, 71, 64
2, 45791, Note_off_c, 0, 66, 64
2, 45791, Note_off_c, 0, 75, 64
2, 45845, Note_on_c, 0, 37, 54
2, 45845, Note_on_c, 0, 75, 64
2, 45850, Note_on_c, 0, 71, 61
2, 45857, Control_c, 0, 64, 0
2, 45857, Control_c, 0, 64, 0
2, 45892, Control_c, 0, 64, 127
2, 45892, Control_c, 0, 64, 127
2, 46036, Note_on_c, 0, 61, 54
2, 46036, Note_on_c, 0, 68, 53
2, 46039, Note_on_c, 0, 65, 48
2, 46043, Control_c, 0, 64, 0
2, 46043, Control_c, 0, 64, 0
2, 46050, Note_off_c, 0, 75, 64
2, 46055, Note_off_c, 0, 71, 64
2, 46070, Control_c, 0, 64, 127
2, 46070, Control_c, 0, 64, 127
2, 46091, Note_off_c, 0, 68, 64
2, 46091, Note_off_c, 0, 61, 64
2, 46104, Note_on_c, 0, 75, 65
2, 46120, Note_off_c, 0, 37, 64
2, 46131, Note_off_c, 0, 65, 64
2, 46181, Note_off_c, 0, 75, 64
2, 46196, Note_on_c, 0, 70, 67
2, 46197, Note_on_c, 0, 75, 64
2, 46200, Note_on_c, 0, 64, 59
2, 46200, Note_on_c, 0, 54, 55
2, 46207, Control_c, 0, 64, 0
2, 46207, Control_c, 0, 64, 0
2, 46230, Control_c, 0, 64, 127
2, 46230, Control_c, 0, 64, 127
2, 46255, Note_off_c, 0, 54, 64
2, 46300, Note_on_c, 0, 73, 65
2, 46320, Note_off_c, 0, 75, 64
2, 46329, Note_off_c, 0, 70, 64
2, 46333, Note_off_c, 0, 64, 64
2, 46347, Note_on_c, 0, 47, 58
2, 46356, Note_on_c, 0, 74, 65
2, 46358, Note_on_c, 0, 80, 68
2, 46364, Control_c, 0, 64, 0
2, 46364, Control_c, 0, 64, 0
2, 46366, Note_off_c, 0, 73, 64
2, 46397, Control_c, 0, 64, 127
2, 46397, Control_c, 0, 64, 127
2, 46461, Note_off_c, 0, 74, 64
2, 46469, Note_off_c, 0, 80, 64
2, 46471, Note_on_c, 0, 68, 60
2, 46512, Note_on_c, 0, 59, 51
2, 46512, Note_on_c, 0, 53, 50
2, 46516, Note_on_c, 0, 62, 44
2, 46519, Note_on_c, 0, 80, 72
2, 46520, Note_on_c, 0, 74, 60
2, 46540, Control_c, 0, 64, 0
2, 46540, Control_c, 0, 64, 0
2, 46547, Note_off_c, 0, 68, 64
2, 46564, Control_c, 0, 64, 127
2, 46564, Control_c, 0, 64, 127
2, 46644, Note_off_c, 0, 47, 64
2, 46687, Control_c, 0, 64, 0
2, 46687, Control_c, 0, 64, 0
2, 46688, Note_on_c, 0, 78, 61
2, 46688, Note_on_c, 0, 75, 64
2, 46692, Note_off_c, 0, 53, 64
2, 46692, Note_off_c, 0, 59, 64
2, 46692, Note_on_c, 0, 66, 64
2, 46695, Note_on_c, 0, 63, 53
2, 46695, Note_on_c, 0, 54, 50
2, 46696, Note_off_c, 0, 62, 64
2, 46699, Note_off_c, 0, 80, 64
2, 46700, Note_off_c, 0, 74, 64
2, 46701, Note_on_c, 0, 59, 51
2, 46707, Control_c, 0, 64, 0
2, 46707, Control_c, 0, 64, 0
2, 46731, Control_c, 0, 64, 127
2, 46731, Control_c, 0, 64, 127
2, 46772, Note_off_c, 0, 75, 64
2, 46772, Note_off_c, 0, 78, 64
2, 46776, Note_off_c, 0, 66, 64
2, 46779, Note_off_c, 0, 54, 64
2, 46779, Note_off_c, 0, 63, 64
2, 46785, Note_off_c, 0, 59, 64
2, 46892, Note_on_c, 0, 37, 61
2, 46892, Note_on_c, 0, 75, 62
2, 46896, Note_on_c, 0, 71, 64
2, 46934, Control_c, 0, 64, 0
2, 46934, Control_c, 0, 64, 0
2, 46970, Control_c, 0, 64, 127
2, 46970, Control_c, 0, 64, 127
2, 47060, Note_off_c, 0, 75, 64
2, 47064, Note_off_c, 0, 71, 64
2, 47092, Note_on_c, 0, 68, 54
2, 47095, Note_on_c, 0, 65, 53
2, 47096, Note_on_c, 0, 61, 60
2, 47106, Control_c, 0, 64, 127
2, 47106, Control_c, 0, 64, 127
2, 47147, Note_off_c, 0, 68, 64
2, 47151, Note_off_c, 0, 61, 64
2, 47160, Note_on_c, 0, 75, 62
2, 47171, Note_off_c, 0, 37, 64
2, 47175, Note_off_c, 0, 65, 64
2, 47223, Note_off_c, 0, 75, 64
2, 47249, Note_on_c, 0, 75, 67
2, 47249, Note_on_c, 0, 70, 65
2, 47255, Note_on_c, 0, 64, 64
2, 47255, Note_on_c, 0, 54, 51
2, 47267, Control_c, 0, 64, 0
2, 47267, Control_c, 0, 64, 0
2, 47300, Control_c, 0, 64, 127
2, 47300, Control_c, 0, 64, 127
2, 47313, Note_off_c, 0, 64, 64
2, 47318, Note_off_c, 0, 70, 64
2, 47339, Note_off_c, 0, 54, 64
2, 47352, Note_on_c, 0, 73, 68
2, 47366, Note_off_c, 0, 75, 64
2, 47392, Note_on_c, 0, 47, 52
2, 47400, Note_on_c, 0, 80, 75
2, 47406, Note_on_c, 0, 74, 67
2, 47408, Control_c, 0, 64, 0
2, 47408, Control_c, 0, 64, 0
2, 47409, Note_off_c, 0, 73, 64
2, 47431, Control_c, 0, 64, 127
2, 47431, Control_c, 0, 64, 127
2, 47488, Note_on_c, 0, 68, 65
2, 47512, Note_off_c, 0, 68, 64
2, 47513, Note_off_c, 0, 80, 64
2, 47519, Note_off_c, 0, 74, 64
2, 47528, Note_on_c, 0, 68, 73
2, 47562, Note_on_c, 0, 53, 52
2, 47564, Note_on_c, 0, 62, 51
2, 47564, Note_on_c, 0, 59, 54
2, 47568, Note_on_c, 0, 74, 64
2, 47569, Note_on_c, 0, 80, 72
2, 47574, Note_off_c, 0, 68, 64
2, 47589, Control_c, 0, 64, 0
2, 47589, Control_c, 0, 64, 0
2, 47612, Control_c, 0, 64, 127
2, 47612, Control_c, 0, 64, 127
2, 47682, Note_off_c, 0, 47, 64
2, 47748, Note_on_c, 0, 78, 71
2, 47748, Note_on_c, 0, 75, 64
2, 47753, Note_off_c, 0, 74, 64
2, 47754, Note_off_c, 0, 80, 64
2, 47756, Note_off_c, 0, 53, 64
2, 47757, Note_on_c, 0, 66, 64
2, 47758, Note_off_c, 0, 59, 64
2, 47758, Note_off_c, 0, 62, 64
2, 47763, Note_on_c, 0, 63, 54
2, 47765, Note_on_c, 0, 59, 56
2, 47767, Control_c, 0, 64, 127
2, 47767, Control_c, 0, 64, 127
2, 47768, Note_on_c, 0, 54, 54
2, 47769, Control_c, 0, 64, 0
2, 47769, Control_c, 0, 64, 0
2, 47800, Control_c, 0, 64, 127
2, 47800, Control_c, 0, 64, 127
2, 47832, Note_off_c, 0, 75, 64
2, 47832, Note_off_c, 0, 78, 64
2, 47841, Note_off_c, 0, 66, 64
2, 47847, Note_off_c, 0, 63, 64
2, 47849, Note_off_c, 0, 59, 64
2, 47852, Note_off_c, 0, 54, 64
2, 47960, Note_on_c, 0, 75, 64
2, 47961, Note_on_c, 0, 37, 89
2, 47961, Note_on_c, 0, 71, 60
2, 47969, Control_c, 0, 64, 0
2, 47969, Control_c, 0, 64, 0
2, 48007, Control_c, 0, 64, 127
2, 48007, Control_c, 0, 64, 127
2, 48200, Note_on_c, 0, 65, 59
2, 48201, Note_off_c, 0, 71, 64
2, 48201, Note_on_c, 0, 68, 67
2, 48211, Note_on_c, 0, 61, 52
2, 48211, Control_c, 0, 64, 0
2, 48211, Control_c, 0, 64, 0
2, 48223, Note_off_c, 0, 75, 64
2, 48254, Control_c, 0, 64, 127
2, 48254, Control_c, 0, 64, 127
2, 48315, Note_on_c, 0, 75, 64
2, 48352, Note_off_c, 0, 75, 64
2, 48371, Note_on_c, 0, 75, 67
2, 48473, Note_on_c, 0, 73, 70
2, 48475, Note_off_c, 0, 37, 64
2, 48485, Note_off_c, 0, 75, 64
2, 48518, Note_off_c, 0, 65, 64
2, 48531, Note_on_c, 0, 75, 64
2, 48532, Note_on_c, 0, 71, 55
2, 48544, Control_c, 0, 64, 0
2, 48544, Control_c, 0, 64, 0
2, 48552, Note_off_c, 0, 73, 64
2, 48590, Control_c, 0, 64, 127
2, 48590, Control_c, 0, 64, 127
2, 48632, Note_off_c, 0, 68, 64
2, 48637, Note_off_c, 0, 61, 64
2, 48695, Note_on_c, 0, 65, 64
2, 48699, Note_off_c, 0, 75, 64
2, 48779, Note_on_c, 0, 75, 72
2, 48813, Note_off_c, 0, 75, 64
2, 48839, Note_on_c, 0, 75, 68
2, 48895, Note_off_c, 0, 65, 64
2, 48919, Note_off_c, 0, 71, 64
2, 48937, Note_on_c, 0, 73, 65
2, 48959, Note_off_c, 0, 75, 64
2, 49006, Note_off_c, 0, 73, 64
2, 49010, Note_on_c, 0, 75, 70
2, 49012, Note_on_c, 0, 71, 60
2, 49020, Note_on_c, 0, 30, 77
2, 49028, Note_on_c, 0, 42, 71
2, 49033, Control_c, 0, 64, 0
2, 49033, Control_c, 0, 64, 0
2, 49069, Control_c, 0, 64, 127
2, 49069, Control_c, 0, 64, 127
2, 49262, Note_off_c, 0, 71, 64
2, 49288, Note_on_c, 0, 68, 50
2, 49288, Note_on_c, 0, 64, 51
2, 49294, Note_on_c, 0, 61, 51
2, 49300, Note_off_c, 0, 75, 64
2, 49314, Control_c, 0, 64, 0
2, 49314, Control_c, 0, 64, 0
2, 49337, Control_c, 0, 64, 127
2, 49337, Control_c, 0, 64, 127
2, 49389, Note_on_c, 0, 75, 58
2, 49427, Note_off_c, 0, 75, 64
2, 49457, Note_on_c, 0, 75, 65
2, 49542, Note_off_c, 0, 30, 64
2, 49545, Note_off_c, 0, 42, 64
2, 49559, Note_on_c, 0, 73, 67
2, 49576, Note_off_c, 0, 75, 64
2, 49602, Note_off_c, 0, 64, 64
2, 49630, Note_off_c, 0, 73, 64
2, 49631, Note_on_c, 0, 75, 65
2, 49645, Note_on_c, 0, 71, 49
2, 49668, Control_c, 0, 64, 0
2, 49668, Control_c, 0, 64, 0
2, 49699, Control_c, 0, 64, 127
2, 49699, Control_c, 0, 64, 127
2, 49805, Control_c, 0, 64, 0
2, 49805, Control_c, 0, 64, 0
2, 49812, Note_off_c, 0, 71, 64
2, 49814, Note_off_c, 0, 75, 64
2, 49816, Note_on_c, 0, 64, 60
2, 49844, Control_c, 0, 64, 127
2, 49844, Control_c, 0, 64, 127
2, 49909, Note_on_c, 0, 75, 64
2, 49928, Note_off_c, 0, 68, 64
2, 49932, Note_off_c, 0, 61, 64
2, 49944, Note_off_c, 0, 75, 64
2, 49971, Note_on_c, 0, 75, 60
2, 50037, Note_off_c, 0, 64, 64
2, 50077, Note_on_c, 0, 73, 56
2, 50105, Note_off_c, 0, 75, 64
2, 50167, Note_on_c, 0, 70, 60
2, 50170, Note_on_c, 0, 54, 51
2, 50170, Note_on_c, 0, 61, 48
2, 50179, Note_on_c, 0, 64, 40
2, 50184, Note_off_c, 0, 73, 64
2, 50207, Control_c, 0, 64, 0
2, 50207, Control_c, 0, 64, 0
2, 50260, Note_on_c, 0, 75, 55
2, 50264, Control_c, 0, 64, 127
2, 50264, Control_c, 0, 64, 127
2, 50304, Note_off_c, 0, 70, 64
2, 50344, Note_on_c, 0, 73, 59
2, 50377, Note_off_c, 0, 75, 64
2, 50423, Note_on_c, 0, 69, 58
2, 50439, Note_off_c, 0, 73, 64
2, 50468, Control_c, 0, 64, 0
2, 50468, Control_c, 0, 64, 0
2, 50492, Control_c, 0, 64, 127
2, 50492, Control_c, 0, 64, 127
2, 50499, Note_on_c, 0, 75, 52
2, 50561, Note_off_c, 0, 69, 64
2, 50577, Note_on_c, 0, 73, 58
2, 50607, Note_off_c, 0, 75, 64
2, 50666, Note_on_c, 0, 69, 61
2, 50669, Note_off_c, 0, 73, 64
2, 50742, Note_on_c, 0, 75, 38
2, 50760, Note_off_c, 0, 69, 64
2, 50828, Note_off_c, 0, 75, 64
2, 50833, Note_on_c, 0, 73, 41
2, 50900, Note_on_c, 0, 68, 61
2, 50923, Note_off_c, 0, 73, 64
2, 50993, Note_on_c, 0, 75, 50
2, 50996, Note_on_c, 0, 59, 49
2, 51008, Note_off_c, 0, 61, 64
2, 51008, Control_c, 0, 64, 0
2, 51008, Control_c, 0, 64, 0
2, 51034, Note_off_c, 0, 68, 64
2, 51074, Note_on_c, 0, 73, 50
2, 51083, Note_off_c, 0, 75, 64
2, 51115, Control_c, 0, 64, 127
2, 51115, Control_c, 0, 64, 127
2, 51165, Note_on_c, 0, 68, 62
2, 51170, Note_off_c, 0, 73, 64
2, 51254, Note_on_c, 0, 75, 51
2, 51299, Note_off_c, 0, 68, 64
2, 51339, Note_on_c, 0, 73, 50
2, 51342, Note_off_c, 0, 75, 64
2, 51421, Note_on_c, 0, 67, 52
2, 51438, Note_off_c, 0, 73, 64
2, 51454, Control_c, 0, 64, 0
2, 51454, Control_c, 0, 64, 0
2, 51497, Control_c, 0, 64, 127
2, 51497, Control_c, 0, 64, 127
2, 51507, Note_on_c, 0, 75, 43
2, 51551, Note_off_c, 0, 67, 64
2, 51604, Note_on_c, 0, 73, 34
2, 51618, Note_off_c, 0, 75, 64
2, 51703, Note_on_c, 0, 67, 44
2, 51710, Note_off_c, 0, 73, 64
2, 51804, Note_on_c, 0, 75, 44
2, 51840, Note_off_c, 0, 67, 64
2, 51899, Note_off_c, 0, 75, 64
2, 51908, Note_on_c, 0, 73, 40
2, 52014, Note_off_c, 0, 73, 64
2, 52017, Note_on_c, 0, 66, 49
2, 52124, Note_on_c, 0, 58, 36
2, 52128, Note_on_c, 0, 75, 43
2, 52161, Control_c, 0, 64, 0
2, 52161, Control_c, 0, 64, 0
2, 52170, Note_off_c, 0, 59, 64
2, 52233, Control_c, 0, 64, 127
2, 52233, Control_c, 0, 64, 127
2, 52240, Note_on_c, 0, 73, 42
2, 52246, Note_off_c, 0, 75, 64
2, 52272, Note_off_c, 0, 66, 64
2, 52389, Note_off_c, 0, 73, 64
2, 52407, Note_on_c, 0, 66, 40
2, 52472, Control_c, 0, 64, 0
2, 52472, Control_c, 0, 64, 0
2, 52510, Note_on_c, 0, 75, 37
2, 52540, Control_c, 0, 64, 127
2, 52540, Control_c, 0, 64, 127
2, 52610, Note_on_c, 0, 73, 35
2, 52615, Note_off_c, 0, 64, 64
2, 52618, Note_off_c, 0, 58, 64
2, 52623, Note_off_c, 0, 75, 64
2, 52631, Note_off_c, 0, 66, 64
2, 52638, Note_off_c, 0, 54, 64
2, 52828, Note_on_c, 0, 64, 23
2, 52835, Note_on_c, 0, 66, 24
2, 52838, Note_on_c, 0, 54, 28
2, 52851, Control_c, 0, 64, 0
2, 52851, Control_c, 0, 64, 0
2, 52903, Control_c, 0, 64, 127
2, 52903, Control_c, 0, 64, 127
2, 53042, Note_on_c, 0, 71, 45
2, 53053, Note_off_c, 0, 73, 64
2, 53110, Note_on_c, 0, 68, 40
2, 53130, Note_off_c, 0, 71, 64
2, 53168, Note_off_c, 0, 64, 64
2, 53175, Note_off_c, 0, 66, 64
2, 53179, Control_c, 0, 64, 0
2, 53179, Control_c, 0, 64, 0
2, 53200, Note_on_c, 0, 70, 45
2, 53222, Note_off_c, 0, 68, 64
2, 53235, Control_c, 0, 64, 127
2, 53235, Control_c, 0, 64, 127
2, 53241, Note_off_c, 0, 54, 64
2, 53389, Note_on_c, 0, 47, 42
2, 53389, Note_on_c, 0, 63, 43
2, 53397, Note_on_c, 0, 71, 45
2, 53400, Note_on_c, 0, 54, 35
2, 53400, Note_on_c, 0, 59, 37
2, 53412, Note_off_c, 0, 70, 64
2, 53412, Control_c, 0, 64, 0
2, 53412, Control_c, 0, 64, 0
2, 53447, Control_c, 0, 64, 127
2, 53447, Control_c, 0, 64, 127
2, 53569, Note_on_c, 0, 70, 51
2, 53591, Note_off_c, 0, 71, 64
2, 53649, Note_on_c, 0, 66, 45
2, 53663, Note_off_c, 0, 70, 64
2, 53694, Note_off_c, 0, 63, 64
2, 53705, Note_off_c, 0, 59, 64
2, 53719, Control_c, 0, 64, 0
2, 53719, Control_c, 0, 64, 0
2, 53725, Note_on_c, 0, 68, 55
2, 53748, Note_off_c, 0, 66, 64
2, 53761, Note_off_c, 0, 47, 64
2, 53767, Note_off_c, 0, 54, 64
2, 53780, Control_c, 0, 64, 127
2, 53780, Control_c, 0, 64, 127
2, 53883, Note_on_c, 0, 70, 54
2, 53888, Note_on_c, 0, 63, 45
2, 53892, Note_on_c, 0, 54, 40
2, 53896, Note_on_c, 0, 59, 47
2, 53896, Note_on_c, 0, 47, 43
2, 53902, Note_off_c, 0, 68, 64
2, 53904, Control_c, 0, 64, 0
2, 53904, Control_c, 0, 64, 0
2, 53960, Control_c, 0, 64, 127
2, 53960, Control_c, 0, 64, 127
2, 54033, Control_c, 0, 64, 0
2, 54033, Control_c, 0, 64, 0
2, 54040, Note_off_c, 0, 63, 64
2, 54048, Control_c, 0, 64, 127
2, 54048, Control_c, 0, 64, 127
2, 54052, Note_on_c, 0, 68, 54
2, 54060, Note_off_c, 0, 70, 64
2, 54127, Note_on_c, 0, 64, 47
2, 54147, Note_off_c, 0, 68, 64
2, 54200, Note_on_c, 0, 66, 51
2, 54215, Control_c, 0, 64, 0
2, 54215, Control_c, 0, 64, 0
2, 54219, Note_off_c, 0, 64, 64
2, 54220, Note_off_c, 0, 47, 64
2, 54236, Note_off_c, 0, 54, 64
2, 54239, Note_off_c, 0, 59, 64
2, 54242, Control_c, 0, 64, 127
2, 54242, Control_c, 0, 64, 127
2, 54372, Note_on_c, 0, 68, 47
2, 54377, Note_on_c, 0, 63, 47
2, 54380, Note_on_c, 0, 54, 48
2, 54380, Control_c, 0, 64, 0
2, 54380, Control_c, 0, 64, 0
2, 54387, Note_off_c, 0, 66, 64
2, 54389, Note_on_c, 0, 59, 34
2, 54389, Note_on_c, 0, 47, 40
2, 54441, Control_c, 0, 64, 127
2, 54441, Control_c, 0, 64, 127
2, 54507, Note_off_c, 0, 68, 64
2, 54536, Control_c, 0, 64, 0
2, 54536, Control_c, 0, 64, 0
2, 54544, Note_on_c, 0, 68, 64
2, 54552, Control_c, 0, 64, 127
2, 54552, Control_c, 0, 64, 127
2, 54608, Note_on_c, 0, 66, 65
2, 54611, Note_off_c, 0, 54, 64
2, 54613, Note_off_c, 0, 47, 64
2, 54617, Note_off_c, 0, 63, 64
2, 54621, Note_off_c, 0, 68, 64
2, 54629, Note_off_c, 0, 59, 64
2, 54690, Note_on_c, 0, 63, 59
2, 54704, Note_off_c, 0, 66, 64
2, 54808, Control_c, 0, 64, 0
2, 54808, Control_c, 0, 64, 0
2, 54838, Note_on_c, 0, 54, 54
2, 54838, Note_on_c, 0, 47, 48
2, 54838, Note_on_c, 0, 35, 57
2, 54841, Note_on_c, 0, 59, 51
2, 54874, Note_off_c, 0, 35, 64
2, 54874, Note_off_c, 0, 47, 64
2, 54874, Note_off_c, 0, 54, 64
2, 54877, Note_off_c, 0, 59, 64
2, 54998, Note_on_c, 0, 35, 64
2, 55000, Note_on_c, 0, 59, 55
2, 55000, Note_on_c, 0, 54, 62
2, 55000, Note_on_c, 0, 47, 48
2, 55034, Note_off_c, 0, 35, 64
2, 55036, Note_off_c, 0, 47, 64
2, 55036, Note_off_c, 0, 54, 64
2, 55036, Note_off_c, 0, 59, 64
2, 55164, Note_on_c, 0, 54, 63
2, 55164, Note_on_c, 0, 47, 48
2, 55164, Note_on_c, 0, 35, 74
2, 55166, Note_on_c, 0, 59, 56
2, 55200, Note_off_c, 0, 35, 64
2, 55200, Note_off_c, 0, 47, 64
2, 55200, Note_off_c, 0, 54, 64
2, 55202, Note_off_c, 0, 59, 64
2, 55217, Control_c, 0, 64, 127
2, 55217, Control_c, 0, 64, 127
2, 55453, Control_c, 0, 64, 0
2, 55453, Control_c, 0, 64, 0
2, 55475, Note_off_c, 0, 63, 64
2, 55475, Note_on_c, 0, 68, 65
2, 55551, Note_on_c, 0, 66, 60
2, 55568, Note_off_c, 0, 68, 64
2, 55634, Note_on_c, 0, 63, 73
2, 55642, Note_off_c, 0, 66, 64
2, 55792, Note_on_c, 0, 47, 57
2, 55794, Note_on_c, 0, 59, 61
2, 55794, Note_on_c, 0, 54, 60
2, 55794, Note_on_c, 0, 35, 60
2, 55814, Note_off_c, 0, 63, 64
2, 55817, Control_c, 0, 64, 127
2, 55817, Control_c, 0, 64, 127
2, 55828, Note_off_c, 0, 47, 64
2, 55830, Note_off_c, 0, 35, 64
2, 55830, Note_off_c, 0, 54, 64
2, 55830, Note_off_c, 0, 59, 64
2, 55997, Note_on_c, 0, 71, 64
2, 55997, Note_on_c, 0, 63, 70
2, 55997, Note_on_c, 0, 59, 56
2, 55999, Note_on_c, 0, 54, 60
2, 55999, Note_on_c, 0, 47, 60
2, 56033, Note_off_c, 0, 59, 64
2, 56033, Note_off_c, 0, 63, 64
2, 56033, Note_off_c, 0, 71, 64
2, 56035, Note_off_c, 0, 47, 64
2, 56035, Note_off_c, 0, 54, 64
2, 56230, Note_on_c, 0, 83, 59
2, 56230, Note_on_c, 0, 78, 59
2, 56232, Note_on_c, 0, 87, 64
2, 56233, Note_on_c, 0, 95, 64
2, 56233, Note_on_c, 0, 71, 56
2, 56470, Note_off_c, 0, 78, 64
2, 56470, Note_off_c, 0, 83, 64
2, 56472, Note_off_c, 0, 87, 64
2, 56473, Note_off_c, 0, 71, 64
2, 56473, Note_off_c, 0, 95, 64
