0, 0, Header, 1, 7, 240
1, 0, Start_track
1, 0, Time_signature, 4, 2, 24, 8
1, 0, Tempo, 500000
1, 0, Marker_t, "Chopin: Mazurka, Op. 56 No. 2- Vivace"
1, 0, End_track
2, 0, Start_track
2, 0, Title_t, "Chopin: Op. 56 No. 2"
2, 0, Program_c, 0, 0
2, 0, Control_c, 0, 7, 127
2, 8, Note_on_c, 0, 55, 93
2, 8, Note_on_c, 0, 43, 86
2, 8, Note_on_c, 0, 36, 93
2, 63, Control_c, 0, 64, 127
2, 71, Control_c, 0, 64, 127
2, 83, Control_c, 0, 64, 127
2, 594, Note_off_c, 0, 36, 64
2, 594, Note_off_c, 0, 43, 64
2, 594, Note_off_c, 0, 55, 64
2, 666, Note_on_c, 0, 36, 75
2, 668, Note_on_c, 0, 43, 81
2, 671, Note_on_c, 0, 55, 88
2, 682, Control_c, 0, 64, 0
2, 690, Control_c, 0, 64, 0
2, 696, Note_off_c, 0, 55, 64
2, 696, Note_off_c, 0, 36, 64
2, 700, Note_off_c, 0, 43, 64
2, 702, Control_c, 0, 64, 0
2, 842, Note_on_c, 0, 43, 92
2, 842, Note_on_c, 0, 36, 88
2, 848, Note_on_c, 0, 55, 93
2, 872, Note_off_c, 0, 36, 64
2, 872, Note_off_c, 0, 43, 64
2, 874, Note_off_c, 0, 55, 64
2, 1030, Note_on_c, 0, 55, 102
2, 1037, Note_on_c, 0, 43, 93
2, 1039, Note_on_c, 0, 36, 93
2, 1075, Control_c, 0, 64, 127
2, 1083, Control_c, 0, 64, 127
2, 1095, Control_c, 0, 64, 127
2, 1574, Control_c, 0, 64, 0
2, 1582, Control_c, 0, 64, 0
2, 1594, Control_c, 0, 64, 0
2, 1660, Note_off_c, 0, 55, 64
2, 1667, Note_off_c, 0, 43, 64
2, 1669, Note_off_c, 0, 36, 64
2, 1695, Note_on_c, 0, 43, 82
2, 1695, Note_on_c, 0, 36, 81
2, 1700, Note_on_c, 0, 55, 83
2, 1712, Control_c, 0, 64, 0
2, 1720, Control_c, 0, 64, 0
2, 1727, Note_off_c, 0, 55, 64
2, 1727, Note_off_c, 0, 36, 64
2, 1728, Note_off_c, 0, 43, 64
2, 1732, Control_c, 0, 64, 0
2, 1868, Note_on_c, 0, 55, 95
2, 1869, Note_on_c, 0, 43, 88
2, 1873, Note_on_c, 0, 36, 83
2, 1898, Note_off_c, 0, 36, 64
2, 1898, Note_off_c, 0, 55, 64
2, 1901, Note_off_c, 0, 43, 64
2, 2041, Note_on_c, 0, 60, 66
2, 2044, Note_on_c, 0, 48, 72
2, 2046, Note_on_c, 0, 55, 66
2, 2048, Note_on_c, 0, 36, 65
2, 2050, Note_on_c, 0, 43, 64
2, 2126, Control_c, 0, 64, 127
2, 2134, Control_c, 0, 64, 127
2, 2146, Control_c, 0, 64, 127
2, 2148, Control_c, 0, 64, 0
2, 2156, Control_c, 0, 64, 0
2, 2163, Note_on_c, 0, 64, 52
2, 2168, Control_c, 0, 64, 0
2, 2206, Note_on_c, 0, 67, 66
2, 2216, Note_off_c, 0, 60, 64
2, 2217, Control_c, 0, 64, 127
2, 2225, Control_c, 0, 64, 127
2, 2232, Note_off_c, 0, 64, 64
2, 2237, Control_c, 0, 64, 127
2, 2360, Note_on_c, 0, 64, 67
2, 2366, Note_off_c, 0, 67, 64
2, 2368, Note_on_c, 0, 69, 73
2, 2477, Note_off_c, 0, 64, 64
2, 2522, Control_c, 0, 64, 0
2, 2525, Note_off_c, 0, 55, 64
2, 2526, Note_on_c, 0, 57, 67
2, 2530, Note_on_c, 0, 66, 73
2, 2530, Control_c, 0, 64, 0
2, 2534, Note_off_c, 0, 69, 64
2, 2542, Control_c, 0, 64, 0
2, 2566, Control_c, 0, 64, 127
2, 2574, Control_c, 0, 64, 127
2, 2586, Control_c, 0, 64, 127
2, 2602, Note_off_c, 0, 36, 64
2, 2610, Note_off_c, 0, 43, 64
2, 2612, Note_off_c, 0, 48, 64
2, 2639, Note_on_c, 0, 62, 62
2, 2656, Note_off_c, 0, 66, 64
2, 2671, Control_c, 0, 64, 0
2, 2679, Control_c, 0, 64, 0
2, 2686, Note_on_c, 0, 43, 80
2, 2690, Note_on_c, 0, 65, 71
2, 2691, Control_c, 0, 64, 0
2, 2695, Note_on_c, 0, 59, 80
2, 2696, Note_on_c, 0, 36, 73
2, 2703, Note_off_c, 0, 57, 64
2, 2715, Note_off_c, 0, 43, 64
2, 2718, Note_off_c, 0, 36, 64
2, 2718, Note_off_c, 0, 62, 64
2, 2843, Note_on_c, 0, 64, 63
2, 2844, Note_off_c, 0, 59, 64
2, 2844, Note_on_c, 0, 60, 66
2, 2853, Note_on_c, 0, 43, 89
2, 2855, Note_off_c, 0, 65, 64
2, 2863, Note_on_c, 0, 36, 72
2, 2882, Note_off_c, 0, 36, 64
2, 2886, Note_off_c, 0, 43, 64
2, 2993, Note_off_c, 0, 60, 64
2, 3008, Note_off_c, 0, 64, 64
2, 3013, Note_on_c, 0, 60, 71
2, 3019, Note_on_c, 0, 72, 71
2, 3026, Note_on_c, 0, 36, 71
2, 3029, Note_on_c, 0, 43, 80
2, 3141, Note_on_c, 0, 71, 64
2, 3162, Note_off_c, 0, 72, 64
2, 3176, Note_on_c, 0, 64, 65
2, 3179, Note_on_c, 0, 67, 73
2, 3186, Note_off_c, 0, 60, 64
2, 3213, Note_off_c, 0, 71, 64
2, 3216, Control_c, 0, 64, 127
2, 3224, Control_c, 0, 64, 127
2, 3236, Control_c, 0, 64, 127
2, 3280, Note_on_c, 0, 69, 66
2, 3302, Note_off_c, 0, 67, 64
2, 3304, Note_on_c, 0, 71, 63
2, 3324, Note_off_c, 0, 69, 64
2, 3344, Note_on_c, 0, 69, 66
2, 3349, Note_off_c, 0, 64, 64
2, 3350, Note_on_c, 0, 60, 44
2, 3357, Note_off_c, 0, 71, 64
2, 3478, Note_on_c, 0, 66, 81
2, 3481, Note_off_c, 0, 69, 64
2, 3487, Note_off_c, 0, 60, 64
2, 3491, Note_on_c, 0, 57, 66
2, 3492, Control_c, 0, 64, 0
2, 3500, Control_c, 0, 64, 0
2, 3512, Control_c, 0, 64, 0
2, 3524, Control_c, 0, 64, 127
2, 3532, Control_c, 0, 64, 127
2, 3544, Control_c, 0, 64, 127
2, 3573, Note_off_c, 0, 43, 64
2, 3579, Note_off_c, 0, 36, 64
2, 3596, Note_on_c, 0, 62, 65
2, 3601, Note_off_c, 0, 66, 64
2, 3626, Control_c, 0, 64, 0
2, 3634, Control_c, 0, 64, 0
2, 3641, Note_on_c, 0, 59, 71
2, 3642, Note_on_c, 0, 65, 71
2, 3642, Note_on_c, 0, 43, 71
2, 3642, Note_on_c, 0, 36, 71
2, 3646, Control_c, 0, 64, 0
2, 3653, Note_off_c, 0, 57, 64
2, 3656, Note_off_c, 0, 62, 64
2, 3667, Note_off_c, 0, 36, 64
2, 3667, Note_off_c, 0, 43, 64
2, 3792, Note_on_c, 0, 64, 66
2, 3798, Note_on_c, 0, 55, 73
2, 3802, Note_off_c, 0, 59, 64
2, 3803, Note_off_c, 0, 65, 64
2, 3808, Note_on_c, 0, 43, 80
2, 3808, Note_on_c, 0, 36, 72
2, 3810, Control_c, 0, 64, 127
2, 3818, Control_c, 0, 64, 127
2, 3830, Control_c, 0, 64, 127
2, 3832, Note_off_c, 0, 43, 64
2, 3836, Note_off_c, 0, 36, 64
2, 3913, Note_on_c, 0, 62, 71
2, 3918, Note_off_c, 0, 64, 64
2, 3947, Control_c, 0, 64, 0
2, 3955, Control_c, 0, 64, 0
2, 3962, Note_on_c, 0, 60, 77
2, 3966, Note_on_c, 0, 43, 73
2, 3966, Note_on_c, 0, 36, 74
2, 3967, Control_c, 0, 64, 0
2, 3972, Note_off_c, 0, 55, 64
2, 3980, Note_off_c, 0, 62, 64
2, 4072, Note_on_c, 0, 64, 50
2, 4112, Note_on_c, 0, 67, 71
2, 4120, Note_on_c, 0, 55, 71
2, 4121, Control_c, 0, 64, 127
2, 4126, Note_off_c, 0, 60, 64
2, 4129, Control_c, 0, 64, 127
2, 4141, Control_c, 0, 64, 127
2, 4157, Note_off_c, 0, 64, 64
2, 4272, Note_on_c, 0, 69, 66
2, 4272, Note_on_c, 0, 64, 62
2, 4275, Note_off_c, 0, 67, 64
2, 4283, Note_off_c, 0, 55, 64
2, 4422, Note_off_c, 0, 64, 64
2, 4422, Note_off_c, 0, 69, 64
2, 4447, Note_on_c, 0, 66, 77
2, 4447, Note_on_c, 0, 57, 66
2, 4493, Note_off_c, 0, 43, 64
2, 4495, Note_off_c, 0, 36, 64
2, 4546, Note_on_c, 0, 62, 58
2, 4570, Note_off_c, 0, 66, 64
2, 4579, Control_c, 0, 64, 0
2, 4587, Control_c, 0, 64, 0
2, 4595, Note_on_c, 0, 65, 66
2, 4599, Control_c, 0, 64, 0
2, 4600, Note_on_c, 0, 59, 66
2, 4606, Note_on_c, 0, 43, 81
2, 4606, Note_on_c, 0, 36, 77
2, 4612, Note_off_c, 0, 62, 64
2, 4612, Note_off_c, 0, 57, 64
2, 4628, Note_off_c, 0, 43, 64
2, 4630, Note_off_c, 0, 36, 64
2, 4747, Control_c, 0, 64, 127
2, 4748, Note_on_c, 0, 64, 59
2, 4751, Note_on_c, 0, 60, 62
2, 4755, Control_c, 0, 64, 127
2, 4764, Note_on_c, 0, 43, 80
2, 4767, Control_c, 0, 64, 127
2, 4768, Note_on_c, 0, 36, 73
2, 4772, Note_off_c, 0, 59, 64
2, 4772, Note_off_c, 0, 65, 64
2, 4794, Note_off_c, 0, 36, 64
2, 4794, Note_off_c, 0, 43, 64
2, 4891, Note_off_c, 0, 60, 64
2, 4898, Note_off_c, 0, 64, 64
2, 4909, Note_on_c, 0, 60, 66
2, 4911, Note_on_c, 0, 72, 63
2, 4916, Control_c, 0, 64, 0
2, 4922, Note_on_c, 0, 36, 72
2, 4924, Note_on_c, 0, 43, 77
2, 4924, Control_c, 0, 64, 0
2, 4936, Control_c, 0, 64, 0
2, 5001, Control_c, 0, 64, 127
2, 5009, Control_c, 0, 64, 127
2, 5021, Control_c, 0, 64, 127
2, 5023, Note_on_c, 0, 71, 71
2, 5038, Control_c, 0, 64, 0
2, 5039, Note_off_c, 0, 72, 64
2, 5046, Control_c, 0, 64, 0
2, 5058, Control_c, 0, 64, 0
2, 5064, Note_on_c, 0, 64, 57
2, 5065, Note_on_c, 0, 67, 80
2, 5066, Note_off_c, 0, 60, 64
2, 5081, Note_off_c, 0, 71, 64
2, 5090, Control_c, 0, 64, 127
2, 5098, Control_c, 0, 64, 127
2, 5110, Control_c, 0, 64, 127
2, 5164, Note_on_c, 0, 69, 73
2, 5178, Note_off_c, 0, 67, 64
2, 5189, Note_on_c, 0, 71, 57
2, 5202, Note_off_c, 0, 69, 64
2, 5211, Control_c, 0, 64, 0
2, 5219, Control_c, 0, 64, 0
2, 5226, Note_on_c, 0, 69, 66
2, 5229, Control_c, 0, 64, 127
2, 5229, Note_on_c, 0, 60, 56
2, 5231, Control_c, 0, 64, 0
2, 5235, Note_off_c, 0, 64, 64
2, 5237, Control_c, 0, 64, 127
2, 5248, Note_off_c, 0, 71, 64
2, 5249, Control_c, 0, 64, 127
2, 5357, Note_on_c, 0, 66, 79
2, 5357, Note_on_c, 0, 57, 69
2, 5363, Note_off_c, 0, 69, 64
2, 5366, Note_off_c, 0, 60, 64
2, 5366, Control_c, 0, 64, 0
2, 5374, Control_c, 0, 64, 0
2, 5386, Control_c, 0, 64, 0
2, 5407, Control_c, 0, 64, 127
2, 5415, Control_c, 0, 64, 127
2, 5427, Control_c, 0, 64, 127
2, 5438, Note_off_c, 0, 36, 64
2, 5440, Note_off_c, 0, 43, 64
2, 5456, Control_c, 0, 64, 0
2, 5464, Control_c, 0, 64, 0
2, 5473, Note_on_c, 0, 62, 48
2, 5476, Control_c, 0, 64, 0
2, 5492, Note_off_c, 0, 66, 64
2, 5510, Note_off_c, 0, 57, 64
2, 5516, Note_on_c, 0, 36, 62
2, 5517, Note_on_c, 0, 43, 71
2, 5520, Note_on_c, 0, 65, 62
2, 5520, Note_on_c, 0, 59, 62
2, 5538, Note_off_c, 0, 62, 64
2, 5541, Note_off_c, 0, 43, 64
2, 5543, Note_off_c, 0, 36, 64
2, 5656, Note_on_c, 0, 43, 58
2, 5663, Note_off_c, 0, 59, 64
2, 5663, Note_off_c, 0, 65, 64
2, 5664, Note_on_c, 0, 64, 52
2, 5664, Note_on_c, 0, 60, 54
2, 5664, Note_on_c, 0, 36, 56
2, 5682, Control_c, 0, 64, 127
2, 5686, Note_off_c, 0, 43, 64
2, 5690, Note_off_c, 0, 36, 64
2, 5690, Control_c, 0, 64, 127
2, 5702, Control_c, 0, 64, 127
2, 5792, Note_on_c, 0, 69, 56
2, 5812, Note_off_c, 0, 64, 64
2, 5823, Control_c, 0, 64, 0
2, 5828, Note_on_c, 0, 36, 46
2, 5831, Control_c, 0, 64, 0
2, 5832, Note_on_c, 0, 43, 44
2, 5840, Note_on_c, 0, 65, 56
2, 5841, Note_on_c, 0, 67, 64
2, 5843, Control_c, 0, 64, 0
2, 5874, Note_off_c, 0, 69, 64
2, 5874, Note_off_c, 0, 60, 64
2, 5952, Note_on_c, 0, 71, 47
2, 5988, Note_on_c, 0, 74, 52
2, 6004, Note_off_c, 0, 71, 64
2, 6143, Control_c, 0, 64, 127
2, 6148, Note_on_c, 0, 76, 52
2, 6151, Control_c, 0, 64, 127
2, 6163, Control_c, 0, 64, 127
2, 6171, Note_off_c, 0, 74, 64
2, 6294, Control_c, 0, 64, 0
2, 6302, Control_c, 0, 64, 0
2, 6309, Note_on_c, 0, 72, 52
2, 6309, Note_on_c, 0, 64, 44
2, 6314, Control_c, 0, 64, 0
2, 6320, Note_off_c, 0, 65, 64
2, 6335, Note_off_c, 0, 76, 64
2, 6336, Control_c, 0, 64, 127
2, 6344, Control_c, 0, 64, 127
2, 6356, Control_c, 0, 64, 127
2, 6358, Note_off_c, 0, 36, 64
2, 6362, Note_off_c, 0, 43, 64
2, 6408, Note_off_c, 0, 72, 64
2, 6415, Note_on_c, 0, 71, 44
2, 6416, Control_c, 0, 64, 0
2, 6422, Note_off_c, 0, 67, 64
2, 6423, Note_off_c, 0, 64, 64
2, 6424, Control_c, 0, 64, 0
2, 6436, Control_c, 0, 64, 0
2, 6456, Note_on_c, 0, 64, 44
2, 6459, Note_on_c, 0, 67, 58
2, 6462, Note_on_c, 0, 43, 66
2, 6462, Note_on_c, 0, 36, 58
2, 6476, Note_off_c, 0, 71, 64
2, 6488, Note_off_c, 0, 36, 64
2, 6488, Note_off_c, 0, 43, 64
2, 6502, Control_c, 0, 64, 0
2, 6510, Control_c, 0, 64, 0
2, 6522, Control_c, 0, 64, 0
2, 6586, Note_on_c, 0, 69, 48
2, 6601, Note_off_c, 0, 67, 64
2, 6610, Note_on_c, 0, 71, 56
2, 6632, Note_off_c, 0, 69, 64
2, 6632, Note_on_c, 0, 43, 64
2, 6632, Note_on_c, 0, 36, 58
2, 6639, Control_c, 0, 64, 127
2, 6647, Control_c, 0, 64, 127
2, 6649, Note_off_c, 0, 64, 64
2, 6654, Note_on_c, 0, 60, 50
2, 6656, Note_on_c, 0, 69, 48
2, 6659, Control_c, 0, 64, 127
2, 6671, Note_off_c, 0, 71, 64
2, 6675, Note_off_c, 0, 36, 64
2, 6675, Note_off_c, 0, 43, 64
2, 6779, Control_c, 0, 64, 0
2, 6784, Note_on_c, 0, 67, 54
2, 6787, Control_c, 0, 64, 0
2, 6793, Note_on_c, 0, 43, 58
2, 6793, Note_on_c, 0, 36, 54
2, 6797, Note_off_c, 0, 69, 64
2, 6798, Note_on_c, 0, 50, 54
2, 6799, Control_c, 0, 64, 0
2, 6858, Control_c, 0, 64, 127
2, 6866, Control_c, 0, 64, 127
2, 6878, Control_c, 0, 64, 127
2, 6905, Note_on_c, 0, 66, 56
2, 6912, Note_off_c, 0, 67, 64
2, 6926, Control_c, 0, 64, 0
2, 6934, Control_c, 0, 64, 0
2, 6945, Note_on_c, 0, 62, 47
2, 6946, Control_c, 0, 64, 0
2, 6950, Note_off_c, 0, 60, 64
2, 6952, Note_on_c, 0, 57, 42
2, 6971, Note_off_c, 0, 66, 64
2, 6973, Control_c, 0, 64, 127
2, 6981, Control_c, 0, 64, 127
2, 6993, Control_c, 0, 64, 127
2, 7087, Control_c, 0, 64, 0
2, 7095, Control_c, 0, 64, 0
2, 7101, Note_on_c, 0, 59, 56
2, 7104, Note_off_c, 0, 62, 64
2, 7104, Note_on_c, 0, 65, 47
2, 7107, Control_c, 0, 64, 0
2, 7111, Note_off_c, 0, 57, 64
2, 7125, Control_c, 0, 64, 127
2, 7133, Control_c, 0, 64, 127
2, 7145, Control_c, 0, 64, 127
2, 7231, Note_off_c, 0, 50, 64
2, 7239, Control_c, 0, 64, 0
2, 7245, Note_off_c, 0, 43, 64
2, 7247, Control_c, 0, 64, 0
2, 7253, Note_off_c, 0, 36, 64
2, 7259, Control_c, 0, 64, 0
2, 7267, Note_on_c, 0, 64, 52
2, 7267, Note_on_c, 0, 60, 52
2, 7269, Note_off_c, 0, 59, 64
2, 7272, Note_off_c, 0, 65, 64
2, 7275, Note_on_c, 0, 43, 44
2, 7282, Note_on_c, 0, 52, 44
2, 7282, Note_on_c, 0, 36, 56
2, 7315, Note_off_c, 0, 36, 64
2, 7315, Note_off_c, 0, 43, 64
2, 7322, Note_off_c, 0, 52, 64
2, 7396, Note_off_c, 0, 60, 64
2, 7419, Note_on_c, 0, 36, 50
2, 7420, Note_off_c, 0, 64, 64
2, 7426, Note_on_c, 0, 43, 52
2, 7436, Note_on_c, 0, 60, 56
2, 7436, Note_on_c, 0, 52, 62
2, 7451, Note_off_c, 0, 36, 64
2, 7460, Note_off_c, 0, 43, 64
2, 7462, Note_off_c, 0, 52, 64
2, 7478, Note_off_c, 0, 60, 64
2, 7585, Note_on_c, 0, 55, 24
2, 7591, Note_on_c, 0, 36, 65
2, 7594, Note_on_c, 0, 60, 27
2, 7594, Note_on_c, 0, 43, 57
2, 7600, Note_on_c, 0, 67, 59
2, 7600, Note_on_c, 0, 52, 72
2, 7601, Control_c, 0, 64, 127
2, 7609, Control_c, 0, 64, 127
2, 7621, Note_off_c, 0, 36, 64
2, 7621, Control_c, 0, 64, 127
2, 7625, Note_off_c, 0, 52, 64
2, 7627, Note_off_c, 0, 43, 64
2, 7743, Note_off_c, 0, 55, 64
2, 7752, Note_off_c, 0, 60, 64
2, 7776, Note_on_c, 0, 65, 64
2, 7776, Note_on_c, 0, 43, 62
2, 7783, Note_on_c, 0, 36, 64
2, 7784, Control_c, 0, 64, 0
2, 7784, Note_on_c, 0, 50, 71
2, 7792, Control_c, 0, 64, 0
2, 7804, Control_c, 0, 64, 0
2, 7889, Note_on_c, 0, 71, 54
2, 7933, Note_on_c, 0, 74, 50
2, 7955, Note_off_c, 0, 71, 64
2, 7959, Control_c, 0, 64, 127
2, 7967, Control_c, 0, 64, 127
2, 7979, Control_c, 0, 64, 127
2, 8092, Note_on_c, 0, 76, 55
2, 8099, Note_off_c, 0, 74, 64
2, 8105, Note_off_c, 0, 43, 64
2, 8118, Note_off_c, 0, 36, 64
2, 8124, Note_off_c, 0, 65, 64
2, 8136, Note_off_c, 0, 50, 64
2, 8204, Note_on_c, 0, 36, 56
2, 8226, Note_on_c, 0, 43, 55
2, 8244, Note_on_c, 0, 72, 59
2, 8249, Note_on_c, 0, 64, 55
2, 8252, Note_on_c, 0, 52, 64
2, 8254, Note_off_c, 0, 36, 64
2, 8260, Control_c, 0, 64, 0
2, 8268, Note_off_c, 0, 43, 64
2, 8268, Control_c, 0, 64, 0
2, 8273, Note_off_c, 0, 76, 64
2, 8280, Note_off_c, 0, 52, 64
2, 8280, Control_c, 0, 64, 0
2, 8366, Note_on_c, 0, 71, 47
2, 8376, Note_off_c, 0, 64, 64
2, 8380, Note_on_c, 0, 36, 64
2, 8382, Note_on_c, 0, 43, 65
2, 8383, Note_off_c, 0, 72, 64
2, 8386, Note_off_c, 0, 67, 64
2, 8394, Note_on_c, 0, 52, 71
2, 8414, Note_off_c, 0, 36, 64
2, 8414, Note_on_c, 0, 67, 50
2, 8420, Note_off_c, 0, 43, 64
2, 8423, Note_off_c, 0, 52, 64
2, 8445, Note_off_c, 0, 71, 64
2, 8513, Note_on_c, 0, 69, 47
2, 8521, Note_off_c, 0, 67, 64
2, 8544, Note_on_c, 0, 71, 50
2, 8549, Note_off_c, 0, 69, 64
2, 8552, Note_on_c, 0, 43, 33
2, 8555, Note_on_c, 0, 36, 33
2, 8560, Control_c, 0, 64, 127
2, 8560, Note_on_c, 0, 52, 65
2, 8567, Note_on_c, 0, 60, 37
2, 8568, Note_on_c, 0, 69, 66
2, 8568, Control_c, 0, 64, 127
2, 8580, Control_c, 0, 64, 127
2, 8588, Note_off_c, 0, 52, 64
2, 8590, Note_off_c, 0, 43, 64
2, 8592, Note_off_c, 0, 36, 64
2, 8605, Note_off_c, 0, 71, 64
2, 8696, Note_on_c, 0, 67, 57
2, 8699, Note_on_c, 0, 36, 57
2, 8708, Note_on_c, 0, 50, 64
2, 8708, Note_on_c, 0, 43, 41
2, 8719, Control_c, 0, 64, 0
2, 8723, Note_off_c, 0, 69, 64
2, 8727, Control_c, 0, 64, 0
2, 8739, Control_c, 0, 64, 0
2, 8812, Note_on_c, 0, 66, 50
2, 8823, Note_off_c, 0, 67, 64
2, 8844, Note_off_c, 0, 60, 64
2, 8846, Note_on_c, 0, 62, 55
2, 8848, Note_on_c, 0, 57, 59
2, 8871, Note_off_c, 0, 66, 64
2, 8922, Control_c, 0, 64, 127
2, 8930, Control_c, 0, 64, 127
2, 8942, Control_c, 0, 64, 127
2, 8967, Control_c, 0, 64, 0
2, 8975, Control_c, 0, 64, 0
2, 8987, Control_c, 0, 64, 0
2, 9005, Note_on_c, 0, 59, 64
2, 9007, Note_off_c, 0, 62, 64
2, 9009, Note_off_c, 0, 57, 64
2, 9018, Note_on_c, 0, 64, 55
2, 9043, Control_c, 0, 64, 127
2, 9051, Control_c, 0, 64, 127
2, 9063, Control_c, 0, 64, 127
2, 9090, Note_off_c, 0, 36, 64
2, 9091, Note_off_c, 0, 43, 64
2, 9103, Note_off_c, 0, 50, 64
2, 9149, Note_on_c, 0, 36, 62
2, 9156, Control_c, 0, 64, 0
2, 9164, Control_c, 0, 64, 0
2, 9169, Note_on_c, 0, 43, 59
2, 9176, Control_c, 0, 64, 0
2, 9177, Note_on_c, 0, 60, 59
2, 9182, Note_on_c, 0, 52, 64
2, 9189, Note_off_c, 0, 36, 64
2, 9204, Note_off_c, 0, 43, 64
2, 9208, Note_off_c, 0, 59, 64
2, 9216, Note_off_c, 0, 52, 64
2, 9221, Note_off_c, 0, 64, 64
2, 9323, Note_on_c, 0, 36, 72
2, 9324, Note_on_c, 0, 43, 57
2, 9339, Note_on_c, 0, 52, 72
2, 9362, Note_off_c, 0, 36, 64
2, 9365, Note_off_c, 0, 43, 64
2, 9376, Note_off_c, 0, 52, 64
2, 9461, Note_off_c, 0, 60, 64
2, 9474, Note_on_c, 0, 43, 59
2, 9476, Note_on_c, 0, 36, 65
2, 9488, Note_on_c, 0, 67, 62
2, 9488, Note_on_c, 0, 55, 47
2, 9496, Note_on_c, 0, 60, 59
2, 9501, Note_on_c, 0, 52, 65
2, 9508, Control_c, 0, 64, 127
2, 9516, Control_c, 0, 64, 127
2, 9521, Note_off_c, 0, 36, 64
2, 9526, Note_off_c, 0, 43, 64
2, 9528, Control_c, 0, 64, 127
2, 9535, Note_off_c, 0, 52, 64
2, 9616, Note_off_c, 0, 60, 64
2, 9650, Note_off_c, 0, 55, 64
2, 9650, Note_on_c, 0, 36, 59
2, 9659, Note_on_c, 0, 65, 66
2, 9666, Note_on_c, 0, 43, 26
2, 9667, Note_on_c, 0, 50, 66
2, 9668, Control_c, 0, 64, 0
2, 9676, Control_c, 0, 64, 0
2, 9688, Control_c, 0, 64, 0
2, 9765, Note_on_c, 0, 71, 50
2, 9809, Note_on_c, 0, 74, 65
2, 9824, Note_off_c, 0, 71, 64
2, 9972, Note_on_c, 0, 76, 64
2, 9973, Control_c, 0, 64, 127
2, 9981, Control_c, 0, 64, 127
2, 9991, Note_off_c, 0, 74, 64
2, 9993, Control_c, 0, 64, 127
2, 10021, Note_off_c, 0, 65, 64
2, 10044, Note_off_c, 0, 36, 64
2, 10066, Note_off_c, 0, 43, 64
2, 10067, Note_off_c, 0, 50, 64
2, 10100, Note_on_c, 0, 36, 55
2, 10102, Control_c, 0, 64, 0
2, 10110, Control_c, 0, 64, 0
2, 10118, Note_on_c, 0, 43, 57
2, 10119, Note_on_c, 0, 72, 59
2, 10122, Control_c, 0, 64, 0
2, 10127, Note_on_c, 0, 64, 47
2, 10132, Note_on_c, 0, 52, 64
2, 10133, Note_off_c, 0, 76, 64
2, 10147, Note_off_c, 0, 36, 64
2, 10154, Note_off_c, 0, 43, 64
2, 10161, Note_off_c, 0, 52, 64
2, 10169, Control_c, 0, 64, 127
2, 10177, Control_c, 0, 64, 127
2, 10189, Control_c, 0, 64, 127
2, 10225, Control_c, 0, 64, 0
2, 10231, Note_on_c, 0, 71, 54
2, 10233, Control_c, 0, 64, 0
2, 10245, Control_c, 0, 64, 0
2, 10246, Note_off_c, 0, 72, 64
2, 10248, Note_off_c, 0, 67, 64
2, 10262, Note_on_c, 0, 36, 64
2, 10264, Note_on_c, 0, 43, 50
2, 10268, Note_off_c, 0, 64, 64
2, 10277, Note_on_c, 0, 67, 64
2, 10277, Note_on_c, 0, 52, 66
2, 10290, Note_off_c, 0, 36, 64
2, 10299, Note_off_c, 0, 43, 64
2, 10305, Note_off_c, 0, 71, 64
2, 10306, Note_off_c, 0, 52, 64
2, 10358, Note_on_c, 0, 69, 62
2, 10363, Note_off_c, 0, 67, 64
2, 10389, Note_on_c, 0, 71, 50
2, 10406, Note_off_c, 0, 69, 64
2, 10412, Note_on_c, 0, 60, 54
2, 10419, Note_on_c, 0, 43, 50
2, 10424, Note_on_c, 0, 69, 59
2, 10424, Note_on_c, 0, 52, 64
2, 10424, Note_on_c, 0, 36, 56
2, 10434, Control_c, 0, 64, 127
2, 10442, Control_c, 0, 64, 127
2, 10446, Note_off_c, 0, 71, 64
2, 10452, Note_off_c, 0, 52, 64
2, 10454, Control_c, 0, 64, 127
2, 10458, Note_off_c, 0, 36, 64
2, 10459, Note_off_c, 0, 43, 64
2, 10564, Control_c, 0, 64, 0
2, 10569, Note_off_c, 0, 69, 64
2, 10572, Control_c, 0, 64, 0
2, 10580, Note_on_c, 0, 67, 50
2, 10580, Note_on_c, 0, 43, 31
2, 10580, Note_on_c, 0, 36, 64
2, 10584, Control_c, 0, 64, 0
2, 10587, Note_on_c, 0, 50, 64
2, 10660, Control_c, 0, 64, 127
2, 10668, Control_c, 0, 64, 127
2, 10680, Control_c, 0, 64, 127
2, 10681, Note_off_c, 0, 60, 64
2, 10686, Note_on_c, 0, 66, 40
2, 10701, Note_off_c, 0, 67, 64
2, 10702, Control_c, 0, 64, 0
2, 10710, Control_c, 0, 64, 0
2, 10722, Control_c, 0, 64, 0
2, 10730, Note_on_c, 0, 62, 54
2, 10733, Note_on_c, 0, 57, 62
2, 10759, Note_off_c, 0, 66, 64
2, 10791, Control_c, 0, 64, 127
2, 10799, Control_c, 0, 64, 127
2, 10811, Control_c, 0, 64, 127
2, 10866, Control_c, 0, 64, 0
2, 10874, Control_c, 0, 64, 0
2, 10886, Control_c, 0, 64, 0
2, 10891, Note_off_c, 0, 62, 64
2, 10895, Note_on_c, 0, 65, 55
2, 10897, Note_on_c, 0, 59, 59
2, 10916, Control_c, 0, 64, 127
2, 10918, Note_off_c, 0, 57, 64
2, 10924, Control_c, 0, 64, 127
2, 10932, Note_off_c, 0, 43, 64
2, 10933, Note_off_c, 0, 36, 64
2, 10936, Control_c, 0, 64, 127
2, 10969, Note_off_c, 0, 50, 64
2, 11011, Note_on_c, 0, 36, 59
2, 11038, Note_off_c, 0, 65, 64
2, 11038, Note_on_c, 0, 43, 54
2, 11041, Note_on_c, 0, 64, 57
2, 11043, Note_off_c, 0, 59, 64
2, 11044, Control_c, 0, 64, 0
2, 11047, Note_on_c, 0, 60, 55
2, 11052, Control_c, 0, 64, 0
2, 11059, Note_on_c, 0, 52, 64
2, 11063, Note_off_c, 0, 36, 64
2, 11064, Control_c, 0, 64, 0
2, 11075, Note_off_c, 0, 43, 64
2, 11093, Note_off_c, 0, 52, 64
2, 11167, Note_off_c, 0, 64, 64
2, 11173, Note_off_c, 0, 60, 64
2, 11191, Note_on_c, 0, 43, 59
2, 11194, Note_on_c, 0, 36, 65
2, 11205, Note_on_c, 0, 60, 59
2, 11208, Note_on_c, 0, 55, 62
2, 11215, Note_on_c, 0, 52, 59
2, 11229, Note_off_c, 0, 36, 64
2, 11234, Note_off_c, 0, 43, 64
2, 11246, Note_off_c, 0, 52, 64
2, 11250, Note_off_c, 0, 55, 64
2, 11258, Note_off_c, 0, 60, 64
2, 11352, Note_on_c, 0, 55, 50
2, 11352, Note_on_c, 0, 43, 62
2, 11353, Note_on_c, 0, 36, 64
2, 11360, Note_on_c, 0, 60, 50
2, 11369, Note_on_c, 0, 67, 64
2, 11372, Note_on_c, 0, 52, 73
2, 11388, Note_off_c, 0, 36, 64
2, 11390, Control_c, 0, 64, 127
2, 11395, Note_off_c, 0, 43, 64
2, 11398, Control_c, 0, 64, 127
2, 11404, Note_off_c, 0, 52, 64
2, 11410, Control_c, 0, 64, 127
2, 11482, Note_off_c, 0, 55, 64
2, 11490, Note_off_c, 0, 60, 64
2, 11539, Note_on_c, 0, 65, 65
2, 11543, Note_on_c, 0, 36, 64
2, 11544, Note_on_c, 0, 43, 44
2, 11548, Note_on_c, 0, 50, 72
2, 11552, Control_c, 0, 64, 0
2, 11560, Control_c, 0, 64, 0
2, 11572, Control_c, 0, 64, 0
2, 11647, Note_on_c, 0, 71, 52
2, 11684, Note_on_c, 0, 74, 54
2, 11703, Note_off_c, 0, 71, 64
2, 11828, Control_c, 0, 64, 127
2, 11836, Control_c, 0, 64, 127
2, 11848, Control_c, 0, 64, 127
2, 11853, Note_on_c, 0, 76, 50
2, 11864, Note_off_c, 0, 74, 64
2, 11901, Note_off_c, 0, 36, 64
2, 11902, Note_off_c, 0, 43, 64
2, 11928, Note_off_c, 0, 50, 64
2, 11964, Note_on_c, 0, 36, 59
2, 11987, Note_on_c, 0, 43, 50
2, 12006, Note_on_c, 0, 72, 57
2, 12010, Note_on_c, 0, 64, 47
2, 12011, Note_on_c, 0, 52, 57
2, 12015, Control_c, 0, 64, 0
2, 12017, Note_off_c, 0, 36, 64
2, 12018, Note_off_c, 0, 65, 64
2, 12023, Control_c, 0, 64, 0
2, 12024, Note_off_c, 0, 76, 64
2, 12030, Note_off_c, 0, 43, 64
2, 12035, Control_c, 0, 64, 0
2, 12039, Control_c, 0, 64, 127
2, 12047, Note_off_c, 0, 52, 64
2, 12047, Control_c, 0, 64, 127
2, 12059, Control_c, 0, 64, 127
2, 12106, Control_c, 0, 64, 0
2, 12113, Note_on_c, 0, 71, 55
2, 12114, Control_c, 0, 64, 0
2, 12116, Note_off_c, 0, 67, 64
2, 12126, Control_c, 0, 64, 0
2, 12141, Note_on_c, 0, 36, 64
2, 12145, Note_off_c, 0, 72, 64
2, 12152, Note_on_c, 0, 43, 47
2, 12154, Note_on_c, 0, 67, 64
2, 12159, Note_on_c, 0, 52, 71
2, 12160, Note_off_c, 0, 64, 64
2, 12177, Note_off_c, 0, 36, 64
2, 12177, Note_off_c, 0, 71, 64
2, 12180, Note_off_c, 0, 43, 64
2, 12188, Note_off_c, 0, 52, 64
2, 12246, Note_on_c, 0, 69, 62
2, 12271, Note_on_c, 0, 71, 59
2, 12272, Note_off_c, 0, 67, 64
2, 12288, Note_off_c, 0, 69, 64
2, 12304, Note_on_c, 0, 60, 55
2, 12304, Note_on_c, 0, 43, 57
2, 12313, Note_on_c, 0, 52, 66
2, 12317, Note_on_c, 0, 69, 64
2, 12317, Note_on_c, 0, 36, 33
2, 12332, Note_off_c, 0, 36, 64
2, 12332, Note_off_c, 0, 71, 64
2, 12332, Control_c, 0, 64, 127
2, 12340, Control_c, 0, 64, 127
2, 12349, Note_off_c, 0, 52, 64
2, 12350, Note_off_c, 0, 43, 64
2, 12352, Control_c, 0, 64, 127
2, 12446, Note_on_c, 0, 67, 57
2, 12456, Control_c, 0, 64, 0
2, 12461, Note_on_c, 0, 50, 57
2, 12462, Note_off_c, 0, 69, 64
2, 12462, Note_on_c, 0, 36, 57
2, 12462, Note_on_c, 0, 43, 52
2, 12464, Control_c, 0, 64, 0
2, 12476, Control_c, 0, 64, 0
2, 12566, Note_on_c, 0, 66, 50
2, 12582, Note_off_c, 0, 67, 64
2, 12602, Note_on_c, 0, 62, 59
2, 12615, Note_on_c, 0, 57, 50
2, 12620, Note_off_c, 0, 60, 64
2, 12628, Note_off_c, 0, 66, 64
2, 12653, Control_c, 0, 64, 127
2, 12661, Control_c, 0, 64, 127
2, 12673, Control_c, 0, 64, 127
2, 12727, Control_c, 0, 64, 0
2, 12735, Control_c, 0, 64, 0
2, 12747, Control_c, 0, 64, 0
2, 12762, Note_on_c, 0, 64, 59
2, 12766, Note_on_c, 0, 59, 59
2, 12781, Note_off_c, 0, 62, 64
2, 12781, Note_off_c, 0, 43, 64
2, 12787, Note_off_c, 0, 36, 64
2, 12788, Control_c, 0, 64, 127
2, 12794, Note_off_c, 0, 57, 64
2, 12796, Control_c, 0, 64, 127
2, 12808, Control_c, 0, 64, 127
2, 12814, Note_off_c, 0, 50, 64
2, 12878, Note_on_c, 0, 36, 57
2, 12907, Note_on_c, 0, 43, 54
2, 12916, Control_c, 0, 64, 0
2, 12918, Note_on_c, 0, 60, 59
2, 12923, Note_on_c, 0, 52, 59
2, 12924, Control_c, 0, 64, 0
2, 12934, Note_off_c, 0, 64, 64
2, 12936, Control_c, 0, 64, 0
2, 12938, Note_off_c, 0, 59, 64
2, 12944, Note_off_c, 0, 36, 64
2, 12953, Note_off_c, 0, 43, 64
2, 12970, Note_off_c, 0, 52, 64
2, 13066, Note_on_c, 0, 36, 64
2, 13072, Note_on_c, 0, 43, 64
2, 13091, Note_on_c, 0, 52, 64
2, 13105, Control_c, 0, 64, 127
2, 13112, Note_off_c, 0, 36, 64
2, 13113, Note_off_c, 0, 43, 64
2, 13113, Control_c, 0, 64, 127
2, 13125, Control_c, 0, 64, 127
2, 13132, Note_off_c, 0, 52, 64
2, 13203, Note_off_c, 0, 60, 64
2, 13280, Note_on_c, 0, 52, 66
2, 13281, Control_c, 0, 64, 0
2, 13289, Control_c, 0, 64, 0
2, 13301, Control_c, 0, 64, 0
2, 13409, Control_c, 0, 64, 0
2, 13417, Control_c, 0, 64, 0
2, 13429, Control_c, 0, 64, 0
2, 13448, Note_on_c, 0, 45, 48
2, 13469, Note_off_c, 0, 52, 64
2, 13480, Note_on_c, 0, 52, 71
2, 13507, Control_c, 0, 64, 127
2, 13515, Control_c, 0, 64, 127
2, 13527, Control_c, 0, 64, 127
2, 13583, Note_on_c, 0, 54, 54
2, 13590, Note_off_c, 0, 52, 64
2, 13601, Note_off_c, 0, 45, 64
2, 13645, Control_c, 0, 64, 0
2, 13653, Control_c, 0, 64, 0
2, 13658, Note_on_c, 0, 56, 52
2, 13664, Note_on_c, 0, 64, 47
2, 13665, Control_c, 0, 64, 0
2, 13668, Note_on_c, 0, 60, 44
2, 13678, Note_off_c, 0, 54, 64
2, 13693, Note_off_c, 0, 64, 64
2, 13697, Note_off_c, 0, 60, 64
2, 13717, Control_c, 0, 64, 127
2, 13725, Control_c, 0, 64, 127
2, 13733, Note_on_c, 0, 57, 56
2, 13737, Control_c, 0, 64, 127
2, 13743, Note_off_c, 0, 56, 64
2, 13785, Control_c, 0, 64, 0
2, 13793, Control_c, 0, 64, 0
2, 13802, Note_off_c, 0, 57, 64
2, 13805, Control_c, 0, 64, 0
2, 13809, Note_on_c, 0, 59, 52
2, 13824, Note_on_c, 0, 64, 47
2, 13825, Note_on_c, 0, 69, 42
2, 13833, Control_c, 0, 64, 127
2, 13841, Control_c, 0, 64, 127
2, 13853, Note_off_c, 0, 64, 64
2, 13853, Control_c, 0, 64, 127
2, 13854, Note_off_c, 0, 69, 64
2, 13879, Note_on_c, 0, 60, 42
2, 13884, Note_off_c, 0, 59, 64
2, 13939, Note_off_c, 0, 60, 64
2, 13967, Control_c, 0, 64, 0
2, 13973, Note_on_c, 0, 60, 52
2, 13975, Control_c, 0, 64, 0
2, 13987, Control_c, 0, 64, 0
2, 14028, Note_on_c, 0, 62, 52
2, 14035, Note_off_c, 0, 60, 64
2, 14074, Note_on_c, 0, 60, 46
2, 14087, Note_off_c, 0, 62, 64
2, 14111, Note_on_c, 0, 68, 48
2, 14113, Note_on_c, 0, 62, 48
2, 14123, Note_on_c, 0, 59, 52
2, 14129, Note_off_c, 0, 60, 64
2, 14140, Note_off_c, 0, 68, 64
2, 14142, Note_off_c, 0, 62, 64
2, 14272, Note_on_c, 0, 64, 57
2, 14284, Note_on_c, 0, 68, 42
2, 14286, Note_on_c, 0, 62, 36
2, 14297, Note_off_c, 0, 59, 64
2, 14313, Note_off_c, 0, 68, 64
2, 14315, Note_off_c, 0, 62, 64
2, 14318, Control_c, 0, 64, 127
2, 14326, Control_c, 0, 64, 127
2, 14338, Control_c, 0, 64, 127
2, 14420, Control_c, 0, 64, 0
2, 14421, Note_on_c, 0, 65, 47
2, 14428, Control_c, 0, 64, 0
2, 14429, Note_off_c, 0, 64, 64
2, 14440, Control_c, 0, 64, 0
2, 14474, Control_c, 0, 64, 127
2, 14482, Control_c, 0, 64, 127
2, 14494, Control_c, 0, 64, 127
2, 14533, Note_on_c, 0, 64, 44
2, 14551, Note_off_c, 0, 65, 64
2, 14566, Control_c, 0, 64, 0
2, 14571, Note_on_c, 0, 69, 44
2, 14574, Control_c, 0, 64, 0
2, 14579, Note_on_c, 0, 57, 27
2, 14584, Note_on_c, 0, 60, 48
2, 14586, Control_c, 0, 64, 0
2, 14594, Note_off_c, 0, 64, 64
2, 14616, Control_c, 0, 64, 127
2, 14624, Control_c, 0, 64, 127
2, 14636, Control_c, 0, 64, 127
2, 14732, Note_off_c, 0, 69, 64
2, 14736, Note_on_c, 0, 63, 50
2, 14738, Note_on_c, 0, 69, 48
2, 14741, Note_on_c, 0, 59, 50
2, 14745, Note_off_c, 0, 60, 64
2, 14753, Control_c, 0, 64, 0
2, 14761, Control_c, 0, 64, 0
2, 14766, Note_off_c, 0, 57, 64
2, 14773, Control_c, 0, 64, 0
2, 14792, Control_c, 0, 64, 127
2, 14800, Control_c, 0, 64, 127
2, 14812, Control_c, 0, 64, 127
2, 14897, Control_c, 0, 64, 0
2, 14898, Note_on_c, 0, 64, 44
2, 14900, Note_on_c, 0, 68, 48
2, 14901, Note_off_c, 0, 59, 64
2, 14905, Note_on_c, 0, 59, 42
2, 14905, Note_on_c, 0, 52, 50
2, 14905, Control_c, 0, 64, 0
2, 14908, Note_off_c, 0, 63, 64
2, 14910, Note_off_c, 0, 69, 64
2, 14917, Control_c, 0, 64, 0
2, 14934, Control_c, 0, 64, 127
2, 14942, Control_c, 0, 64, 127
2, 14954, Control_c, 0, 64, 127
2, 15048, Note_off_c, 0, 59, 64
2, 15069, Note_off_c, 0, 64, 64
2, 15071, Note_off_c, 0, 68, 64
2, 15071, Control_c, 0, 64, 0
2, 15073, Note_off_c, 0, 52, 64
2, 15074, Note_on_c, 0, 71, 58
2, 15074, Note_on_c, 0, 66, 58
2, 15074, Note_on_c, 0, 59, 59
2, 15074, Note_on_c, 0, 57, 50
2, 15075, Note_on_c, 0, 47, 56
2, 15076, Note_on_c, 0, 63, 59
2, 15079, Control_c, 0, 64, 0
2, 15091, Control_c, 0, 64, 0
2, 15100, Control_c, 0, 64, 127
2, 15108, Control_c, 0, 64, 127
2, 15120, Control_c, 0, 64, 127
2, 15175, Control_c, 0, 64, 0
2, 15183, Control_c, 0, 64, 0
2, 15195, Control_c, 0, 64, 0
2, 15204, Control_c, 0, 64, 127
2, 15207, Note_off_c, 0, 57, 64
2, 15207, Note_off_c, 0, 59, 64
2, 15207, Note_off_c, 0, 66, 64
2, 15207, Note_off_c, 0, 71, 64
2, 15209, Note_off_c, 0, 63, 64
2, 15212, Control_c, 0, 64, 127
2, 15224, Control_c, 0, 64, 127
2, 15238, Note_off_c, 0, 47, 64
2, 15242, Note_on_c, 0, 76, 58
2, 15243, Note_on_c, 0, 40, 58
2, 15243, Note_on_c, 0, 68, 56
2, 15244, Note_on_c, 0, 64, 56
2, 15245, Note_on_c, 0, 52, 58
2, 15248, Control_c, 0, 64, 0
2, 15256, Control_c, 0, 64, 0
2, 15268, Control_c, 0, 64, 0
2, 15281, Control_c, 0, 64, 127
2, 15289, Control_c, 0, 64, 127
2, 15301, Control_c, 0, 64, 127
2, 15358, Note_off_c, 0, 76, 64
2, 15359, Note_off_c, 0, 68, 64
2, 15360, Note_off_c, 0, 64, 64
2, 15368, Note_off_c, 0, 40, 64
2, 15368, Note_off_c, 0, 52, 64
2, 15400, Note_on_c, 0, 45, 64
2, 15452, Control_c, 0, 64, 0
2, 15459, Note_on_c, 0, 52, 46
2, 15460, Control_c, 0, 64, 0
2, 15472, Control_c, 0, 64, 0
2, 15512, Note_off_c, 0, 45, 64
2, 15558, Note_on_c, 0, 54, 56
2, 15571, Note_off_c, 0, 52, 64
2, 15631, Note_on_c, 0, 64, 48
2, 15632, Note_on_c, 0, 60, 47
2, 15632, Note_on_c, 0, 56, 52
2, 15660, Note_off_c, 0, 64, 64
2, 15661, Note_off_c, 0, 60, 64
2, 15669, Note_off_c, 0, 54, 64
2, 15714, Note_on_c, 0, 57, 54
2, 15728, Note_off_c, 0, 56, 64
2, 15782, Control_c, 0, 64, 127
2, 15790, Control_c, 0, 64, 127
2, 15798, Note_on_c, 0, 59, 50
2, 15802, Control_c, 0, 64, 127
2, 15804, Note_on_c, 0, 69, 58
2, 15804, Note_on_c, 0, 64, 40
2, 15820, Note_off_c, 0, 57, 64
2, 15833, Note_off_c, 0, 64, 64
2, 15833, Note_off_c, 0, 69, 64
2, 15871, Note_on_c, 0, 60, 56
2, 15888, Note_off_c, 0, 59, 64
2, 15917, Note_off_c, 0, 60, 64
2, 15957, Note_on_c, 0, 60, 56
2, 15958, Control_c, 0, 64, 0
2, 15966, Control_c, 0, 64, 0
2, 15978, Control_c, 0, 64, 0
2, 16015, Note_on_c, 0, 62, 58
2, 16023, Note_off_c, 0, 60, 64
2, 16056, Note_on_c, 0, 60, 48
2, 16068, Note_off_c, 0, 62, 64
2, 16101, Note_on_c, 0, 68, 47
2, 16106, Note_on_c, 0, 62, 47
2, 16110, Note_on_c, 0, 59, 52
2, 16123, Note_off_c, 0, 60, 64
2, 16131, Note_off_c, 0, 68, 64
2, 16136, Note_off_c, 0, 62, 64
2, 16177, Control_c, 0, 64, 127
2, 16185, Control_c, 0, 64, 127
2, 16197, Control_c, 0, 64, 127
2, 16233, Control_c, 0, 64, 0
2, 16241, Control_c, 0, 64, 0
2, 16253, Control_c, 0, 64, 0
2, 16259, Note_on_c, 0, 64, 55
2, 16266, Note_on_c, 0, 62, 47
2, 16267, Note_on_c, 0, 68, 48
2, 16271, Note_off_c, 0, 59, 64
2, 16295, Note_off_c, 0, 62, 64
2, 16296, Note_off_c, 0, 68, 64
2, 16296, Control_c, 0, 64, 127
2, 16304, Control_c, 0, 64, 127
2, 16316, Control_c, 0, 64, 127
2, 16402, Note_on_c, 0, 65, 52
2, 16411, Control_c, 0, 64, 0
2, 16419, Control_c, 0, 64, 0
2, 16422, Note_off_c, 0, 64, 64
2, 16431, Control_c, 0, 64, 0
2, 16433, Control_c, 0, 64, 127
2, 16441, Control_c, 0, 64, 127
2, 16453, Control_c, 0, 64, 127
2, 16514, Note_on_c, 0, 64, 48
2, 16525, Note_off_c, 0, 65, 64
2, 16540, Note_on_c, 0, 57, 47
2, 16549, Note_on_c, 0, 69, 50
2, 16549, Note_on_c, 0, 60, 48
2, 16558, Control_c, 0, 64, 0
2, 16566, Control_c, 0, 64, 0
2, 16570, Note_off_c, 0, 64, 64
2, 16578, Control_c, 0, 64, 0
2, 16604, Control_c, 0, 64, 127
2, 16612, Control_c, 0, 64, 127
2, 16624, Control_c, 0, 64, 127
2, 16667, Note_off_c, 0, 60, 64
2, 16689, Note_off_c, 0, 69, 64
2, 16695, Note_off_c, 0, 57, 64
2, 16698, Control_c, 0, 64, 0
2, 16706, Control_c, 0, 64, 0
2, 16712, Note_on_c, 0, 68, 50
2, 16716, Note_on_c, 0, 71, 47
2, 16716, Note_on_c, 0, 62, 48
2, 16718, Control_c, 0, 64, 0
2, 16722, Note_on_c, 0, 52, 47
2, 16742, Control_c, 0, 64, 127
2, 16750, Control_c, 0, 64, 127
2, 16762, Control_c, 0, 64, 127
2, 16826, Note_off_c, 0, 52, 64
2, 16837, Note_on_c, 0, 72, 52
2, 16853, Note_off_c, 0, 71, 64
2, 16853, Note_off_c, 0, 68, 64
2, 16855, Control_c, 0, 64, 0
2, 16863, Control_c, 0, 64, 0
2, 16867, Note_off_c, 0, 62, 64
2, 16871, Note_on_c, 0, 69, 52
2, 16873, Note_on_c, 0, 45, 52
2, 16875, Control_c, 0, 64, 0
2, 16880, Note_on_c, 0, 60, 56
2, 16886, Note_off_c, 0, 72, 64
2, 16899, Control_c, 0, 64, 127
2, 16907, Control_c, 0, 64, 127
2, 16919, Control_c, 0, 64, 127
2, 17006, Note_off_c, 0, 69, 64
2, 17008, Note_off_c, 0, 45, 64
2, 17015, Note_off_c, 0, 60, 64
2, 17027, Control_c, 0, 64, 0
2, 17035, Control_c, 0, 64, 0
2, 17042, Note_on_c, 0, 71, 58
2, 17042, Note_on_c, 0, 64, 64
2, 17043, Note_on_c, 0, 76, 58
2, 17043, Note_on_c, 0, 68, 64
2, 17047, Control_c, 0, 64, 0
2, 17048, Note_on_c, 0, 52, 64
2, 17050, Note_on_c, 0, 40, 59
2, 17075, Control_c, 0, 64, 127
2, 17083, Control_c, 0, 64, 127
2, 17095, Control_c, 0, 64, 127
2, 17178, Note_off_c, 0, 64, 64
2, 17178, Note_off_c, 0, 71, 64
2, 17179, Note_off_c, 0, 68, 64
2, 17179, Note_off_c, 0, 76, 64
2, 17213, Note_off_c, 0, 52, 64
2, 17215, Note_off_c, 0, 40, 64
2, 17226, Note_on_c, 0, 72, 58
2, 17228, Note_on_c, 0, 33, 57
2, 17228, Note_on_c, 0, 45, 62
2, 17228, Note_on_c, 0, 69, 57
2, 17228, Note_on_c, 0, 76, 58
2, 17228, Note_on_c, 0, 81, 58
2, 17246, Control_c, 0, 64, 0
2, 17254, Control_c, 0, 64, 0
2, 17266, Control_c, 0, 64, 0
2, 17269, Control_c, 0, 64, 127
2, 17277, Control_c, 0, 64, 127
2, 17289, Control_c, 0, 64, 127
2, 17314, Note_off_c, 0, 72, 64
2, 17316, Note_off_c, 0, 81, 64
2, 17316, Note_off_c, 0, 76, 64
2, 17316, Note_off_c, 0, 69, 64
2, 17348, Note_off_c, 0, 45, 64
2, 17348, Note_off_c, 0, 33, 64
2, 17432, Note_on_c, 0, 45, 44
2, 17452, Control_c, 0, 64, 0
2, 17460, Control_c, 0, 64, 0
2, 17466, Note_on_c, 0, 52, 47
2, 17472, Control_c, 0, 64, 0
2, 17512, Control_c, 0, 64, 127
2, 17520, Control_c, 0, 64, 127
2, 17532, Control_c, 0, 64, 127
2, 17542, Note_on_c, 0, 54, 54
2, 17551, Note_off_c, 0, 52, 64
2, 17579, Control_c, 0, 64, 0
2, 17583, Note_off_c, 0, 45, 64
2, 17587, Control_c, 0, 64, 0
2, 17599, Control_c, 0, 64, 0
2, 17616, Note_on_c, 0, 64, 46
2, 17616, Note_on_c, 0, 60, 50
2, 17623, Note_on_c, 0, 56, 48
2, 17645, Note_off_c, 0, 60, 64
2, 17645, Note_off_c, 0, 64, 64
2, 17649, Note_off_c, 0, 54, 64
2, 17703, Note_on_c, 0, 57, 52
2, 17725, Note_off_c, 0, 56, 64
2, 17785, Note_on_c, 0, 64, 50
2, 17785, Note_on_c, 0, 59, 52
2, 17788, Note_on_c, 0, 69, 44
2, 17793, Control_c, 0, 64, 127
2, 17799, Note_off_c, 0, 57, 64
2, 17801, Control_c, 0, 64, 127
2, 17813, Control_c, 0, 64, 127
2, 17814, Note_off_c, 0, 64, 64
2, 17817, Note_off_c, 0, 69, 64
2, 17862, Note_on_c, 0, 60, 52
2, 17865, Note_off_c, 0, 59, 64
2, 17913, Note_off_c, 0, 60, 64
2, 17946, Control_c, 0, 64, 0
2, 17948, Note_on_c, 0, 60, 52
2, 17954, Control_c, 0, 64, 0
2, 17966, Control_c, 0, 64, 0
2, 18008, Note_on_c, 0, 62, 47
2, 18015, Note_off_c, 0, 60, 64
2, 18043, Note_on_c, 0, 60, 41
2, 18059, Note_off_c, 0, 62, 64
2, 18100, Note_on_c, 0, 68, 48
2, 18102, Note_on_c, 0, 62, 44
2, 18104, Note_on_c, 0, 59, 52
2, 18108, Note_off_c, 0, 60, 64
2, 18129, Note_off_c, 0, 68, 64
2, 18131, Note_off_c, 0, 62, 64
2, 18260, Note_on_c, 0, 64, 48
2, 18264, Note_on_c, 0, 68, 48
2, 18266, Note_on_c, 0, 62, 47
2, 18277, Control_c, 0, 64, 127
2, 18283, Note_off_c, 0, 59, 64
2, 18285, Control_c, 0, 64, 127
2, 18293, Note_off_c, 0, 68, 64
2, 18295, Note_off_c, 0, 62, 64
2, 18297, Control_c, 0, 64, 127
2, 18395, Control_c, 0, 64, 0
2, 18403, Control_c, 0, 64, 0
2, 18407, Note_on_c, 0, 65, 48
2, 18408, Note_off_c, 0, 64, 64
2, 18415, Control_c, 0, 64, 0
2, 18448, Control_c, 0, 64, 127
2, 18456, Control_c, 0, 64, 127
2, 18468, Control_c, 0, 64, 127
2, 18520, Note_on_c, 0, 64, 44
2, 18524, Note_off_c, 0, 65, 64
2, 18539, Control_c, 0, 64, 0
2, 18547, Control_c, 0, 64, 0
2, 18559, Control_c, 0, 64, 0
2, 18560, Note_on_c, 0, 60, 29
2, 18560, Note_on_c, 0, 57, 41
2, 18568, Note_on_c, 0, 69, 48
2, 18579, Note_off_c, 0, 64, 64
2, 18604, Control_c, 0, 64, 127
2, 18612, Control_c, 0, 64, 127
2, 18624, Control_c, 0, 64, 127
2, 18687, Note_off_c, 0, 60, 64
2, 18695, Note_off_c, 0, 69, 64
2, 18716, Note_on_c, 0, 69, 52
2, 18716, Note_on_c, 0, 63, 56
2, 18717, Note_off_c, 0, 57, 64
2, 18722, Note_on_c, 0, 59, 50
2, 18723, Control_c, 0, 64, 0
2, 18731, Control_c, 0, 64, 0
2, 18738, Control_c, 0, 64, 127
2, 18743, Control_c, 0, 64, 0
2, 18746, Control_c, 0, 64, 127
2, 18758, Control_c, 0, 64, 127
2, 18861, Note_off_c, 0, 59, 64
2, 18866, Note_off_c, 0, 63, 64
2, 18866, Note_off_c, 0, 69, 64
2, 18877, Note_on_c, 0, 64, 52
2, 18883, Note_on_c, 0, 68, 48
2, 18884, Note_on_c, 0, 59, 54
2, 18884, Note_on_c, 0, 52, 47
2, 18886, Control_c, 0, 64, 0
2, 18894, Control_c, 0, 64, 0
2, 18906, Control_c, 0, 64, 0
2, 18920, Control_c, 0, 64, 127
2, 18928, Control_c, 0, 64, 127
2, 18940, Control_c, 0, 64, 127
2, 19037, Note_off_c, 0, 64, 64
2, 19043, Note_off_c, 0, 68, 64
2, 19043, Control_c, 0, 64, 0
2, 19044, Note_off_c, 0, 52, 64
2, 19044, Note_off_c, 0, 59, 64
2, 19051, Control_c, 0, 64, 0
2, 19056, Note_on_c, 0, 57, 50
2, 19056, Note_on_c, 0, 59, 50
2, 19056, Note_on_c, 0, 63, 59
2, 19056, Note_on_c, 0, 66, 58
2, 19056, Note_on_c, 0, 71, 59
2, 19058, Note_on_c, 0, 47, 48
2, 19063, Control_c, 0, 64, 0
2, 19085, Control_c, 0, 64, 127
2, 19093, Control_c, 0, 64, 127
2, 19105, Control_c, 0, 64, 127
2, 19218, Note_off_c, 0, 71, 64
2, 19218, Note_off_c, 0, 66, 64
2, 19218, Note_off_c, 0, 63, 64
2, 19218, Note_off_c, 0, 59, 64
2, 19218, Note_off_c, 0, 57, 64
2, 19233, Note_off_c, 0, 47, 64
2, 19240, Note_on_c, 0, 52, 59
2, 19242, Note_on_c, 0, 76, 59
2, 19242, Note_on_c, 0, 68, 56
2, 19242, Note_on_c, 0, 64, 54
2, 19242, Note_on_c, 0, 40, 45
2, 19243, Control_c, 0, 64, 0
2, 19251, Control_c, 0, 64, 0
2, 19263, Control_c, 0, 64, 0
2, 19275, Control_c, 0, 64, 127
2, 19283, Control_c, 0, 64, 127
2, 19295, Control_c, 0, 64, 127
2, 19344, Note_on_c, 0, 45, 71
2, 19347, Note_off_c, 0, 64, 64
2, 19347, Note_off_c, 0, 68, 64
2, 19347, Note_off_c, 0, 76, 64
2, 19365, Note_off_c, 0, 52, 64
2, 19367, Note_off_c, 0, 40, 64
2, 19385, Control_c, 0, 64, 0
2, 19393, Control_c, 0, 64, 0
2, 19398, Note_on_c, 0, 52, 57
2, 19405, Control_c, 0, 64, 0
2, 19446, Control_c, 0, 64, 127
2, 19452, Note_off_c, 0, 45, 64
2, 19454, Control_c, 0, 64, 127
2, 19466, Control_c, 0, 64, 127
2, 19480, Note_on_c, 0, 54, 56
2, 19501, Note_off_c, 0, 52, 64
2, 19511, Control_c, 0, 64, 0
2, 19519, Control_c, 0, 64, 0
2, 19531, Control_c, 0, 64, 0
2, 19554, Note_on_c, 0, 56, 52
2, 19558, Note_on_c, 0, 64, 48
2, 19558, Note_on_c, 0, 60, 48
2, 19587, Note_off_c, 0, 60, 64
2, 19587, Note_off_c, 0, 64, 64
2, 19590, Note_off_c, 0, 54, 64
2, 19639, Note_on_c, 0, 57, 48
2, 19659, Note_off_c, 0, 56, 64
2, 19700, Control_c, 0, 64, 127
2, 19708, Control_c, 0, 64, 127
2, 19720, Control_c, 0, 64, 127
2, 19722, Note_on_c, 0, 59, 52
2, 19724, Note_on_c, 0, 69, 29
2, 19726, Note_on_c, 0, 64, 47
2, 19742, Note_off_c, 0, 57, 64
2, 19753, Note_off_c, 0, 69, 64
2, 19755, Note_off_c, 0, 64, 64
2, 19801, Note_on_c, 0, 60, 57
2, 19819, Note_off_c, 0, 59, 64
2, 19851, Note_off_c, 0, 60, 64
2, 19878, Control_c, 0, 64, 0
2, 19886, Control_c, 0, 64, 0
2, 19892, Note_on_c, 0, 60, 52
2, 19898, Control_c, 0, 64, 0
2, 19947, Note_on_c, 0, 62, 49
2, 19952, Note_off_c, 0, 60, 64
2, 19988, Note_on_c, 0, 60, 47
2, 19999, Note_off_c, 0, 62, 64
2, 20044, Note_on_c, 0, 59, 52
2, 20046, Note_on_c, 0, 68, 44
2, 20048, Note_on_c, 0, 62, 50
2, 20060, Note_off_c, 0, 60, 64
2, 20077, Note_off_c, 0, 68, 64
2, 20079, Note_off_c, 0, 62, 64
2, 20206, Note_on_c, 0, 68, 47
2, 20206, Note_on_c, 0, 64, 72
2, 20208, Note_on_c, 0, 62, 47
2, 20215, Note_off_c, 0, 59, 64
2, 20222, Control_c, 0, 64, 127
2, 20230, Control_c, 0, 64, 127
2, 20239, Note_off_c, 0, 68, 64
2, 20241, Note_off_c, 0, 62, 64
2, 20242, Control_c, 0, 64, 127
2, 20340, Control_c, 0, 64, 0
2, 20348, Control_c, 0, 64, 0
2, 20360, Control_c, 0, 64, 0
2, 20360, Note_on_c, 0, 65, 49
2, 20363, Note_off_c, 0, 64, 64
2, 20398, Control_c, 0, 64, 127
2, 20406, Control_c, 0, 64, 127
2, 20418, Control_c, 0, 64, 127
2, 20474, Note_on_c, 0, 64, 48
2, 20482, Note_off_c, 0, 65, 64
2, 20505, Control_c, 0, 64, 0
2, 20513, Note_on_c, 0, 69, 50
2, 20513, Control_c, 0, 64, 0
2, 20517, Note_on_c, 0, 60, 44
2, 20522, Note_on_c, 0, 57, 44
2, 20525, Control_c, 0, 64, 0
2, 20536, Note_off_c, 0, 64, 64
2, 20545, Control_c, 0, 64, 127
2, 20553, Control_c, 0, 64, 127
2, 20565, Control_c, 0, 64, 127
2, 20659, Control_c, 0, 64, 0
2, 20660, Note_off_c, 0, 69, 64
2, 20664, Note_off_c, 0, 60, 64
2, 20667, Control_c, 0, 64, 0
2, 20676, Note_on_c, 0, 68, 44
2, 20677, Note_on_c, 0, 71, 48
2, 20677, Note_on_c, 0, 62, 48
2, 20677, Note_on_c, 0, 52, 48
2, 20679, Control_c, 0, 64, 0
2, 20680, Note_off_c, 0, 57, 64
2, 20704, Control_c, 0, 64, 127
2, 20712, Control_c, 0, 64, 127
2, 20724, Control_c, 0, 64, 127
2, 20792, Note_on_c, 0, 72, 44
2, 20803, Note_off_c, 0, 68, 64
2, 20804, Note_off_c, 0, 62, 64
2, 20804, Note_off_c, 0, 71, 64
2, 20820, Control_c, 0, 64, 0
2, 20828, Note_off_c, 0, 52, 64
2, 20828, Control_c, 0, 64, 0
2, 20833, Note_on_c, 0, 69, 52
2, 20840, Control_c, 0, 64, 0
2, 20840, Note_on_c, 0, 57, 48
2, 20840, Note_on_c, 0, 45, 44
2, 20841, Note_on_c, 0, 60, 50
2, 20848, Note_off_c, 0, 72, 64
2, 20856, Control_c, 0, 64, 127
2, 20864, Control_c, 0, 64, 127
2, 20876, Control_c, 0, 64, 127
2, 20968, Note_off_c, 0, 69, 64
2, 20976, Note_off_c, 0, 60, 64
2, 20990, Note_off_c, 0, 45, 64
2, 20990, Note_off_c, 0, 57, 64
2, 20996, Note_on_c, 0, 52, 58
2, 20996, Note_on_c, 0, 62, 56
2, 20996, Note_on_c, 0, 64, 57
2, 20996, Note_on_c, 0, 68, 58
2, 20996, Note_on_c, 0, 71, 62
2, 20996, Note_on_c, 0, 76, 62
2, 20998, Note_on_c, 0, 40, 58
2, 21016, Control_c, 0, 64, 0
2, 21024, Control_c, 0, 64, 0
2, 21035, Control_c, 0, 64, 127
2, 21036, Control_c, 0, 64, 0
2, 21043, Control_c, 0, 64, 127
2, 21055, Control_c, 0, 64, 127
2, 21104, Control_c, 0, 64, 0
2, 21112, Control_c, 0, 64, 0
2, 21123, Control_c, 0, 64, 127
2, 21124, Control_c, 0, 64, 0
2, 21131, Control_c, 0, 64, 127
2, 21143, Control_c, 0, 64, 127
2, 21158, Note_off_c, 0, 76, 64
2, 21158, Note_off_c, 0, 71, 64
2, 21158, Note_off_c, 0, 68, 64
2, 21158, Note_off_c, 0, 64, 64
2, 21158, Note_off_c, 0, 62, 64
2, 21160, Note_off_c, 0, 52, 64
2, 21162, Note_off_c, 0, 40, 64
2, 21196, Note_on_c, 0, 69, 58
2, 21196, Note_on_c, 0, 45, 59
2, 21196, Note_on_c, 0, 33, 57
2, 21197, Note_on_c, 0, 81, 57
2, 21197, Note_on_c, 0, 72, 59
2, 21203, Control_c, 0, 64, 0
2, 21211, Control_c, 0, 64, 0
2, 21223, Control_c, 0, 64, 0
2, 21240, Control_c, 0, 64, 127
2, 21248, Control_c, 0, 64, 127
2, 21260, Control_c, 0, 64, 127
2, 21289, Note_off_c, 0, 69, 64
2, 21290, Note_off_c, 0, 72, 64
2, 21290, Note_off_c, 0, 81, 64
2, 21360, Note_off_c, 0, 33, 64
2, 21360, Note_off_c, 0, 45, 64
2, 21373, Control_c, 0, 64, 0
2, 21381, Control_c, 0, 64, 0
2, 21390, Note_on_c, 0, 35, 59
2, 21392, Note_on_c, 0, 47, 65
2, 21393, Control_c, 0, 64, 0
2, 21420, Control_c, 0, 64, 127
2, 21428, Control_c, 0, 64, 127
2, 21440, Control_c, 0, 64, 127
2, 21511, Note_on_c, 0, 75, 56
2, 21548, Note_on_c, 0, 76, 59
2, 21552, Control_c, 0, 64, 0
2, 21560, Control_c, 0, 64, 0
2, 21565, Note_off_c, 0, 75, 64
2, 21572, Control_c, 0, 64, 0
2, 21576, Note_on_c, 0, 69, 50
2, 21578, Note_on_c, 0, 66, 57
2, 21578, Note_on_c, 0, 59, 55
2, 21584, Note_on_c, 0, 75, 62
2, 21593, Note_off_c, 0, 35, 64
2, 21595, Note_off_c, 0, 47, 64
2, 21596, Control_c, 0, 64, 127
2, 21602, Note_off_c, 0, 76, 64
2, 21604, Control_c, 0, 64, 127
2, 21611, Note_off_c, 0, 59, 64
2, 21612, Note_off_c, 0, 69, 64
2, 21614, Note_off_c, 0, 66, 64
2, 21616, Control_c, 0, 64, 127
2, 21662, Note_on_c, 0, 73, 57
2, 21681, Note_off_c, 0, 75, 64
2, 21717, Control_c, 0, 64, 0
2, 21725, Control_c, 0, 64, 0
2, 21732, Note_on_c, 0, 75, 65
2, 21736, Note_on_c, 0, 69, 50
2, 21737, Control_c, 0, 64, 0
2, 21738, Note_on_c, 0, 66, 59
2, 21740, Note_on_c, 0, 59, 57
2, 21746, Control_c, 0, 64, 127
2, 21754, Control_c, 0, 64, 127
2, 21756, Note_off_c, 0, 73, 64
2, 21766, Control_c, 0, 64, 127
2, 21807, Note_on_c, 0, 76, 57
2, 21825, Note_off_c, 0, 75, 64
2, 21850, Note_off_c, 0, 69, 64
2, 21852, Note_off_c, 0, 66, 64
2, 21854, Note_off_c, 0, 59, 64
2, 21888, Note_on_c, 0, 78, 55
2, 21908, Note_off_c, 0, 76, 64
2, 21972, Note_on_c, 0, 80, 65
2, 21980, Note_off_c, 0, 78, 64
2, 21986, Control_c, 0, 64, 0
2, 21994, Control_c, 0, 64, 0
2, 22006, Control_c, 0, 64, 0
2, 22035, Note_on_c, 0, 76, 59
2, 22041, Note_on_c, 0, 52, 59
2, 22042, Note_on_c, 0, 59, 62
2, 22048, Note_on_c, 0, 68, 59
2, 22050, Note_off_c, 0, 80, 64
2, 22064, Note_off_c, 0, 52, 64
2, 22071, Note_off_c, 0, 68, 64
2, 22072, Note_off_c, 0, 59, 64
2, 22216, Note_on_c, 0, 52, 62
2, 22222, Note_on_c, 0, 68, 64
2, 22222, Note_on_c, 0, 59, 64
2, 22230, Control_c, 0, 64, 127
2, 22238, Control_c, 0, 64, 127
2, 22250, Control_c, 0, 64, 127
2, 22292, Note_off_c, 0, 76, 64
2, 22298, Note_on_c, 0, 71, 50
2, 22330, Note_off_c, 0, 52, 64
2, 22336, Note_off_c, 0, 59, 64
2, 22336, Note_off_c, 0, 68, 64
2, 22352, Control_c, 0, 64, 0
2, 22360, Control_c, 0, 64, 0
2, 22365, Note_on_c, 0, 74, 59
2, 22367, Control_c, 0, 64, 127
2, 22371, Note_off_c, 0, 71, 64
2, 22372, Control_c, 0, 64, 0
2, 22375, Control_c, 0, 64, 127
2, 22387, Control_c, 0, 64, 127
2, 22441, Note_off_c, 0, 74, 64
2, 22458, Note_on_c, 0, 73, 66
2, 22494, Note_off_c, 0, 73, 64
2, 22497, Note_on_c, 0, 74, 55
2, 22505, Control_c, 0, 64, 0
2, 22513, Control_c, 0, 64, 0
2, 22525, Control_c, 0, 64, 0
2, 22527, Note_on_c, 0, 57, 55
2, 22528, Note_on_c, 0, 67, 59
2, 22533, Note_on_c, 0, 73, 66
2, 22533, Note_on_c, 0, 64, 59
2, 22548, Note_off_c, 0, 74, 64
2, 22562, Note_off_c, 0, 64, 64
2, 22563, Note_off_c, 0, 57, 64
2, 22564, Note_off_c, 0, 67, 64
2, 22614, Note_on_c, 0, 71, 59
2, 22624, Note_off_c, 0, 73, 64
2, 22686, Control_c, 0, 64, 127
2, 22686, Note_on_c, 0, 73, 64
2, 22694, Control_c, 0, 64, 127
2, 22696, Note_on_c, 0, 67, 31
2, 22704, Note_off_c, 0, 71, 64
2, 22704, Note_on_c, 0, 57, 59
2, 22706, Control_c, 0, 64, 127
2, 22709, Note_on_c, 0, 64, 64
2, 22767, Note_on_c, 0, 74, 54
2, 22777, Note_off_c, 0, 73, 64
2, 22810, Note_off_c, 0, 67, 64
2, 22818, Note_off_c, 0, 57, 64
2, 22823, Note_off_c, 0, 64, 64
2, 22843, Note_on_c, 0, 76, 54
2, 22862, Note_off_c, 0, 74, 64
2, 22914, Note_on_c, 0, 78, 66
2, 22944, Note_off_c, 0, 76, 64
2, 22957, Control_c, 0, 64, 0
2, 22965, Control_c, 0, 64, 0
2, 22977, Control_c, 0, 64, 0
2, 22985, Note_on_c, 0, 57, 59
2, 22993, Note_on_c, 0, 74, 63
2, 22993, Note_on_c, 0, 66, 73
2, 22993, Note_on_c, 0, 50, 62
2, 23010, Note_off_c, 0, 66, 64
2, 23011, Note_off_c, 0, 78, 64
2, 23017, Note_off_c, 0, 50, 64
2, 23017, Note_off_c, 0, 57, 64
2, 23156, Note_on_c, 0, 66, 59
2, 23165, Note_on_c, 0, 57, 59
2, 23169, Note_on_c, 0, 50, 56
2, 23176, Control_c, 0, 64, 127
2, 23184, Control_c, 0, 64, 127
2, 23196, Control_c, 0, 64, 127
2, 23229, Note_off_c, 0, 74, 64
2, 23244, Note_on_c, 0, 69, 50
2, 23270, Note_off_c, 0, 66, 64
2, 23271, Control_c, 0, 64, 0
2, 23279, Note_off_c, 0, 57, 64
2, 23279, Control_c, 0, 64, 0
2, 23283, Note_off_c, 0, 50, 64
2, 23291, Control_c, 0, 64, 0
2, 23299, Note_on_c, 0, 72, 59
2, 23309, Note_off_c, 0, 69, 64
2, 23313, Control_c, 0, 64, 127
2, 23321, Control_c, 0, 64, 127
2, 23333, Control_c, 0, 64, 127
2, 23415, Note_on_c, 0, 71, 59
2, 23432, Note_off_c, 0, 72, 64
2, 23448, Note_on_c, 0, 72, 57
2, 23457, Note_off_c, 0, 71, 64
2, 23458, Control_c, 0, 64, 0
2, 23466, Control_c, 0, 64, 0
2, 23474, Note_on_c, 0, 62, 64
2, 23474, Note_on_c, 0, 55, 59
2, 23478, Control_c, 0, 64, 0
2, 23480, Note_on_c, 0, 65, 32
2, 23484, Note_on_c, 0, 71, 57
2, 23501, Note_off_c, 0, 72, 64
2, 23504, Note_off_c, 0, 55, 64
2, 23504, Note_off_c, 0, 62, 64
2, 23510, Note_off_c, 0, 65, 64
2, 23553, Note_on_c, 0, 69, 62
2, 23572, Note_off_c, 0, 71, 64
2, 23627, Note_on_c, 0, 71, 57
2, 23635, Control_c, 0, 64, 127
2, 23640, Note_on_c, 0, 65, 33
2, 23642, Note_on_c, 0, 62, 66
2, 23642, Note_on_c, 0, 55, 66
2, 23643, Control_c, 0, 64, 127
2, 23650, Note_off_c, 0, 69, 64
2, 23655, Control_c, 0, 64, 127
2, 23707, Note_on_c, 0, 72, 40
2, 23734, Note_off_c, 0, 71, 64
2, 23754, Note_off_c, 0, 65, 64
2, 23756, Note_off_c, 0, 55, 64
2, 23756, Note_off_c, 0, 62, 64
2, 23780, Note_on_c, 0, 74, 59
2, 23790, Note_off_c, 0, 72, 64
2, 23858, Note_on_c, 0, 76, 64
2, 23876, Note_off_c, 0, 74, 64
2, 23933, Note_on_c, 0, 36, 59
2, 23935, Control_c, 0, 64, 0
2, 23939, Note_on_c, 0, 72, 64
2, 23941, Note_on_c, 0, 64, 64
2, 23943, Note_on_c, 0, 48, 57
2, 23943, Control_c, 0, 64, 0
2, 23955, Note_off_c, 0, 76, 64
2, 23955, Control_c, 0, 64, 0
2, 23981, Control_c, 0, 64, 127
2, 23989, Control_c, 0, 64, 127
2, 24001, Control_c, 0, 64, 127
2, 24076, Note_on_c, 0, 38, 73
2, 24088, Note_on_c, 0, 65, 56
2, 24092, Note_on_c, 0, 71, 59
2, 24092, Note_on_c, 0, 62, 73
2, 24092, Note_on_c, 0, 50, 81
2, 24099, Control_c, 0, 64, 0
2, 24101, Note_off_c, 0, 36, 64
2, 24107, Note_off_c, 0, 72, 64
2, 24107, Control_c, 0, 64, 0
2, 24109, Note_off_c, 0, 64, 64
2, 24111, Note_off_c, 0, 48, 64
2, 24119, Control_c, 0, 64, 0
2, 24127, Control_c, 0, 64, 127
2, 24135, Control_c, 0, 64, 127
2, 24147, Control_c, 0, 64, 127
2, 24194, Note_off_c, 0, 71, 64
2, 24200, Note_on_c, 0, 40, 73
2, 24208, Note_on_c, 0, 71, 73
2, 24225, Note_off_c, 0, 65, 64
2, 24229, Note_off_c, 0, 62, 64
2, 24235, Note_off_c, 0, 38, 64
2, 24239, Note_on_c, 0, 52, 93
2, 24247, Control_c, 0, 64, 0
2, 24251, Note_off_c, 0, 50, 64
2, 24255, Control_c, 0, 64, 0
2, 24267, Control_c, 0, 64, 0
2, 24272, Note_off_c, 0, 40, 64
2, 24280, Note_off_c, 0, 71, 64
2, 24418, Note_on_c, 0, 56, 75
2, 24424, Note_on_c, 0, 64, 65
2, 24424, Note_on_c, 0, 62, 59
2, 24447, Note_off_c, 0, 56, 64
2, 24453, Note_off_c, 0, 62, 64
2, 24453, Note_off_c, 0, 64, 64
2, 24490, Note_on_c, 0, 53, 65
2, 24512, Note_off_c, 0, 52, 64
2, 24568, Note_off_c, 0, 53, 64
2, 24572, Note_on_c, 0, 64, 57
2, 24572, Note_on_c, 0, 62, 56
2, 24572, Note_on_c, 0, 52, 82
2, 24575, Note_on_c, 0, 56, 66
2, 24601, Note_off_c, 0, 62, 64
2, 24601, Note_off_c, 0, 64, 64
2, 24604, Note_off_c, 0, 56, 64
2, 24723, Note_on_c, 0, 50, 63
2, 24784, Note_off_c, 0, 52, 64
2, 24877, Note_on_c, 0, 48, 73
2, 24877, Note_on_c, 0, 64, 64
2, 24877, Note_on_c, 0, 60, 65
2, 24877, Note_on_c, 0, 57, 56
2, 24878, Note_on_c, 0, 69, 63
2, 24895, Control_c, 0, 64, 127
2, 24896, Note_off_c, 0, 50, 64
2, 24903, Control_c, 0, 64, 127
2, 24906, Note_off_c, 0, 57, 64
2, 24906, Note_off_c, 0, 60, 64
2, 24906, Note_off_c, 0, 64, 64
2, 24907, Note_off_c, 0, 69, 64
2, 24915, Control_c, 0, 64, 127
2, 24960, Note_on_c, 0, 47, 67
2, 24982, Note_off_c, 0, 48, 64
2, 24995, Control_c, 0, 64, 0
2, 25003, Control_c, 0, 64, 0
2, 25015, Control_c, 0, 64, 0
2, 25050, Note_on_c, 0, 81, 73
2, 25050, Note_on_c, 0, 72, 63
2, 25050, Note_on_c, 0, 45, 66
2, 25052, Note_on_c, 0, 76, 71
2, 25052, Note_on_c, 0, 69, 50
2, 25068, Note_off_c, 0, 47, 64
2, 25068, Control_c, 0, 64, 127
2, 25076, Control_c, 0, 64, 127
2, 25079, Note_off_c, 0, 72, 64
2, 25079, Note_off_c, 0, 81, 64
2, 25081, Note_off_c, 0, 69, 64
2, 25081, Note_off_c, 0, 76, 64
2, 25088, Control_c, 0, 64, 127
2, 25166, Control_c, 0, 64, 127
2, 25174, Control_c, 0, 64, 127
2, 25186, Control_c, 0, 64, 127
2, 25197, Note_off_c, 0, 45, 64
2, 25199, Control_c, 0, 64, 0
2, 25207, Control_c, 0, 64, 0
2, 25219, Control_c, 0, 64, 0
2, 25224, Note_on_c, 0, 35, 39
2, 25231, Note_on_c, 0, 47, 48
2, 25254, Control_c, 0, 64, 127
2, 25262, Control_c, 0, 64, 127
2, 25274, Control_c, 0, 64, 127
2, 25333, Note_on_c, 0, 75, 44
2, 25367, Note_on_c, 0, 76, 44
2, 25376, Control_c, 0, 64, 0
2, 25377, Note_off_c, 0, 75, 64
2, 25384, Control_c, 0, 64, 0
2, 25396, Control_c, 0, 64, 0
2, 25399, Note_on_c, 0, 75, 44
2, 25400, Note_on_c, 0, 69, 24
2, 25400, Note_on_c, 0, 66, 29
2, 25413, Note_on_c, 0, 59, 32
2, 25422, Note_off_c, 0, 76, 64
2, 25427, Note_off_c, 0, 35, 64
2, 25429, Note_off_c, 0, 66, 64
2, 25429, Note_off_c, 0, 69, 64
2, 25434, Note_off_c, 0, 47, 64
2, 25442, Note_off_c, 0, 59, 64
2, 25451, Control_c, 0, 64, 127
2, 25459, Control_c, 0, 64, 127
2, 25468, Note_on_c, 0, 73, 44
2, 25471, Control_c, 0, 64, 127
2, 25485, Note_off_c, 0, 75, 64
2, 25537, Control_c, 0, 64, 0
2, 25544, Note_on_c, 0, 69, 24
2, 25545, Control_c, 0, 64, 0
2, 25551, Note_on_c, 0, 75, 50
2, 25551, Note_on_c, 0, 66, 36
2, 25557, Control_c, 0, 64, 127
2, 25557, Note_on_c, 0, 59, 36
2, 25557, Control_c, 0, 64, 0
2, 25565, Control_c, 0, 64, 127
2, 25570, Note_off_c, 0, 73, 64
2, 25577, Control_c, 0, 64, 127
2, 25632, Note_on_c, 0, 76, 36
2, 25646, Note_off_c, 0, 75, 64
2, 25658, Note_off_c, 0, 69, 64
2, 25665, Note_off_c, 0, 66, 64
2, 25671, Note_off_c, 0, 59, 64
2, 25707, Note_on_c, 0, 78, 47
2, 25724, Note_off_c, 0, 76, 64
2, 25774, Note_on_c, 0, 80, 44
2, 25784, Note_off_c, 0, 78, 64
2, 25814, Control_c, 0, 64, 0
2, 25822, Control_c, 0, 64, 0
2, 25834, Control_c, 0, 64, 0
2, 25846, Note_on_c, 0, 52, 39
2, 25853, Note_on_c, 0, 59, 36
2, 25854, Note_on_c, 0, 76, 37
2, 25858, Note_on_c, 0, 68, 42
2, 25871, Note_off_c, 0, 80, 64
2, 25882, Note_off_c, 0, 52, 64
2, 25889, Note_off_c, 0, 59, 64
2, 25894, Note_off_c, 0, 68, 64
2, 26024, Note_on_c, 0, 68, 40
2, 26031, Note_on_c, 0, 59, 36
2, 26035, Note_on_c, 0, 52, 36
2, 26048, Control_c, 0, 64, 127
2, 26056, Control_c, 0, 64, 127
2, 26068, Control_c, 0, 64, 127
2, 26103, Note_on_c, 0, 71, 42
2, 26124, Note_off_c, 0, 76, 64
2, 26138, Note_off_c, 0, 68, 64
2, 26145, Note_off_c, 0, 59, 64
2, 26149, Note_off_c, 0, 52, 64
2, 26163, Note_on_c, 0, 74, 44
2, 26175, Note_off_c, 0, 71, 64
2, 26263, Note_on_c, 0, 73, 48
2, 26265, Note_off_c, 0, 74, 64
2, 26296, Note_on_c, 0, 74, 39
2, 26308, Control_c, 0, 64, 0
2, 26312, Note_off_c, 0, 73, 64
2, 26316, Control_c, 0, 64, 0
2, 26320, Note_on_c, 0, 67, 31
2, 26327, Note_on_c, 0, 64, 39
2, 26327, Note_on_c, 0, 57, 36
2, 26328, Control_c, 0, 64, 0
2, 26332, Note_on_c, 0, 73, 47
2, 26349, Note_off_c, 0, 74, 64
2, 26356, Note_off_c, 0, 67, 64
2, 26360, Note_off_c, 0, 57, 64
2, 26360, Note_off_c, 0, 64, 64
2, 26406, Note_on_c, 0, 71, 36
2, 26418, Note_off_c, 0, 73, 64
2, 26487, Note_on_c, 0, 73, 48
2, 26488, Note_on_c, 0, 67, 31
2, 26496, Note_on_c, 0, 64, 39
2, 26501, Note_off_c, 0, 71, 64
2, 26501, Note_on_c, 0, 57, 39
2, 26507, Control_c, 0, 64, 127
2, 26515, Control_c, 0, 64, 127
2, 26527, Control_c, 0, 64, 127
2, 26564, Note_on_c, 0, 74, 41
2, 26585, Note_off_c, 0, 73, 64
2, 26602, Note_off_c, 0, 67, 64
2, 26610, Note_off_c, 0, 64, 64
2, 26615, Note_off_c, 0, 57, 64
2, 26647, Note_on_c, 0, 76, 39
2, 26672, Note_off_c, 0, 74, 64
2, 26720, Note_on_c, 0, 78, 48
2, 26737, Note_off_c, 0, 76, 64
2, 26767, Control_c, 0, 64, 0
2, 26775, Control_c, 0, 64, 0
2, 26787, Control_c, 0, 64, 0
2, 26790, Note_on_c, 0, 74, 41
2, 26797, Note_on_c, 0, 66, 39
2, 26797, Note_on_c, 0, 57, 36
2, 26800, Note_on_c, 0, 50, 29
2, 26806, Note_off_c, 0, 78, 64
2, 26826, Note_off_c, 0, 57, 64
2, 26826, Note_off_c, 0, 66, 64
2, 26829, Note_off_c, 0, 50, 64
2, 26963, Note_on_c, 0, 66, 39
2, 26971, Note_on_c, 0, 50, 36
2, 26974, Note_on_c, 0, 57, 39
2, 26993, Control_c, 0, 64, 127
2, 27001, Control_c, 0, 64, 127
2, 27013, Control_c, 0, 64, 127
2, 27038, Note_on_c, 0, 69, 37
2, 27040, Note_off_c, 0, 74, 64
2, 27077, Note_off_c, 0, 66, 64
2, 27085, Note_off_c, 0, 50, 64
2, 27088, Note_off_c, 0, 57, 64
2, 27098, Note_on_c, 0, 72, 44
2, 27112, Note_off_c, 0, 69, 64
2, 27208, Note_on_c, 0, 71, 47
2, 27220, Note_off_c, 0, 72, 64
2, 27244, Control_c, 0, 64, 0
2, 27248, Note_on_c, 0, 72, 37
2, 27252, Control_c, 0, 64, 0
2, 27258, Note_off_c, 0, 71, 64
2, 27260, Note_on_c, 0, 65, 28
2, 27262, Note_on_c, 0, 62, 39
2, 27262, Note_on_c, 0, 55, 36
2, 27264, Control_c, 0, 64, 0
2, 27271, Note_on_c, 0, 71, 58
2, 27290, Note_off_c, 0, 72, 64
2, 27296, Note_off_c, 0, 65, 64
2, 27298, Note_off_c, 0, 55, 64
2, 27298, Note_off_c, 0, 62, 64
2, 27342, Note_on_c, 0, 69, 35
2, 27366, Note_off_c, 0, 71, 64
2, 27424, Note_on_c, 0, 65, 24
2, 27424, Note_on_c, 0, 62, 40
2, 27425, Note_on_c, 0, 71, 41
2, 27428, Note_on_c, 0, 55, 42
2, 27444, Control_c, 0, 64, 127
2, 27448, Note_off_c, 0, 69, 64
2, 27452, Control_c, 0, 64, 127
2, 27464, Control_c, 0, 64, 127
2, 27500, Note_on_c, 0, 72, 29
2, 27535, Note_off_c, 0, 71, 64
2, 27538, Note_off_c, 0, 62, 64
2, 27538, Note_off_c, 0, 65, 64
2, 27542, Note_off_c, 0, 55, 64
2, 27582, Note_on_c, 0, 74, 48
2, 27603, Note_off_c, 0, 72, 64
2, 27665, Note_on_c, 0, 76, 44
2, 27695, Note_off_c, 0, 74, 64
2, 27726, Control_c, 0, 64, 0
2, 27734, Note_on_c, 0, 36, 47
2, 27734, Note_on_c, 0, 72, 44
2, 27734, Control_c, 0, 64, 0
2, 27743, Note_on_c, 0, 48, 41
2, 27743, Note_on_c, 0, 64, 47
2, 27746, Control_c, 0, 64, 0
2, 27758, Note_off_c, 0, 76, 64
2, 27767, Control_c, 0, 64, 127
2, 27775, Control_c, 0, 64, 127
2, 27787, Control_c, 0, 64, 127
2, 27880, Note_on_c, 0, 71, 49
2, 27880, Note_on_c, 0, 62, 47
2, 27881, Note_on_c, 0, 38, 50
2, 27882, Note_off_c, 0, 72, 64
2, 27885, Control_c, 0, 64, 0
2, 27885, Note_on_c, 0, 50, 50
2, 27891, Note_off_c, 0, 64, 64
2, 27893, Control_c, 0, 64, 0
2, 27904, Note_off_c, 0, 36, 64
2, 27905, Control_c, 0, 64, 0
2, 27913, Note_off_c, 0, 48, 64
2, 27936, Control_c, 0, 64, 127
2, 27944, Control_c, 0, 64, 127
2, 27956, Control_c, 0, 64, 127
2, 27994, Note_off_c, 0, 71, 64
2, 28016, Note_on_c, 0, 71, 48
2, 28020, Note_on_c, 0, 40, 48
2, 28038, Note_off_c, 0, 62, 64
2, 28038, Note_on_c, 0, 52, 66
2, 28039, Note_off_c, 0, 38, 64
2, 28039, Control_c, 0, 64, 0
2, 28043, Note_off_c, 0, 50, 64
2, 28047, Control_c, 0, 64, 0
2, 28059, Control_c, 0, 64, 0
2, 28097, Note_off_c, 0, 71, 64
2, 28101, Note_off_c, 0, 40, 64
2, 28191, Control_c, 0, 64, 0
2, 28199, Control_c, 0, 64, 0
2, 28211, Control_c, 0, 64, 0
2, 28214, Note_on_c, 0, 64, 42
2, 28214, Note_on_c, 0, 62, 48
2, 28214, Note_on_c, 0, 56, 56
2, 28243, Note_off_c, 0, 56, 64
2, 28243, Note_off_c, 0, 62, 64
2, 28243, Note_off_c, 0, 64, 64
2, 28286, Note_on_c, 0, 53, 49
2, 28306, Note_off_c, 0, 52, 64
2, 28363, Note_on_c, 0, 52, 62
2, 28376, Note_on_c, 0, 64, 50
2, 28376, Note_on_c, 0, 62, 50
2, 28377, Note_off_c, 0, 53, 64
2, 28386, Note_on_c, 0, 56, 47
2, 28405, Note_off_c, 0, 62, 64
2, 28405, Note_off_c, 0, 64, 64
2, 28415, Note_off_c, 0, 56, 64
2, 28523, Note_on_c, 0, 50, 49
2, 28560, Note_off_c, 0, 52, 64
2, 28676, Note_on_c, 0, 69, 48
2, 28677, Note_on_c, 0, 48, 47
2, 28678, Note_on_c, 0, 64, 55
2, 28678, Note_on_c, 0, 57, 49
2, 28679, Note_on_c, 0, 60, 55
2, 28702, Note_off_c, 0, 50, 64
2, 28705, Note_off_c, 0, 69, 64
2, 28707, Note_off_c, 0, 57, 64
2, 28707, Note_off_c, 0, 64, 64
2, 28708, Note_off_c, 0, 60, 64
2, 28808, Note_on_c, 0, 47, 44
2, 28822, Note_off_c, 0, 48, 64
2, 28862, Note_on_c, 0, 81, 50
2, 28862, Note_on_c, 0, 45, 50
2, 28864, Note_on_c, 0, 76, 50
2, 28866, Note_on_c, 0, 72, 55
2, 28866, Note_on_c, 0, 69, 52
2, 28881, Control_c, 0, 64, 127
2, 28889, Control_c, 0, 64, 127
2, 28891, Note_off_c, 0, 81, 64
2, 28893, Note_off_c, 0, 76, 64
2, 28895, Note_off_c, 0, 69, 64
2, 28895, Note_off_c, 0, 72, 64
2, 28900, Note_off_c, 0, 47, 64
2, 28901, Control_c, 0, 64, 127
2, 29029, Note_off_c, 0, 45, 64
2, 29124, Note_on_c, 0, 55, 54
2, 29126, Note_on_c, 0, 48, 62
2, 29131, Note_on_c, 0, 67, 50
2, 29133, Control_c, 0, 64, 0
2, 29141, Control_c, 0, 64, 0
2, 29153, Control_c, 0, 64, 0
2, 29209, Note_on_c, 0, 69, 37
2, 29244, Note_off_c, 0, 67, 64
2, 29286, Note_on_c, 0, 71, 50
2, 29313, Note_off_c, 0, 69, 64
2, 29343, Control_c, 0, 64, 127
2, 29351, Control_c, 0, 64, 127
2, 29360, Note_on_c, 0, 72, 59
2, 29363, Control_c, 0, 64, 127
2, 29372, Note_off_c, 0, 71, 64
2, 29440, Note_on_c, 0, 74, 42
2, 29464, Note_off_c, 0, 72, 64
2, 29510, Note_on_c, 0, 76, 50
2, 29536, Note_off_c, 0, 74, 64
2, 29573, Note_off_c, 0, 48, 64
2, 29587, Note_on_c, 0, 78, 62
2, 29622, Note_off_c, 0, 76, 64
2, 29658, Note_on_c, 0, 57, 57
2, 29662, Note_on_c, 0, 79, 66
2, 29668, Note_off_c, 0, 55, 64
2, 29684, Note_off_c, 0, 78, 64
2, 29732, Note_on_c, 0, 59, 66
2, 29733, Note_on_c, 0, 78, 66
2, 29749, Note_off_c, 0, 79, 64
2, 29752, Note_off_c, 0, 57, 64
2, 29760, Control_c, 0, 64, 0
2, 29768, Control_c, 0, 64, 0
2, 29780, Control_c, 0, 64, 0
2, 29808, Note_on_c, 0, 74, 46
2, 29812, Note_on_c, 0, 60, 54
2, 29828, Note_off_c, 0, 78, 64
2, 29842, Note_off_c, 0, 59, 64
2, 29876, Note_on_c, 0, 62, 62
2, 29879, Note_on_c, 0, 76, 57
2, 29903, Note_off_c, 0, 74, 64
2, 29909, Note_off_c, 0, 60, 64
2, 29956, Note_on_c, 0, 64, 56
2, 29957, Note_on_c, 0, 72, 59
2, 29981, Note_off_c, 0, 76, 64
2, 29981, Note_off_c, 0, 62, 64
2, 30032, Note_on_c, 0, 74, 65
2, 30032, Note_on_c, 0, 66, 65
2, 30046, Note_off_c, 0, 72, 64
2, 30054, Note_off_c, 0, 64, 64
2, 30100, Note_on_c, 0, 76, 55
2, 30100, Note_on_c, 0, 67, 55
2, 30121, Note_off_c, 0, 66, 64
2, 30128, Note_off_c, 0, 74, 64
2, 30186, Note_on_c, 0, 74, 55
2, 30188, Note_on_c, 0, 66, 33
2, 30192, Control_c, 0, 64, 127
2, 30193, Note_off_c, 0, 76, 64
2, 30200, Control_c, 0, 64, 127
2, 30203, Note_off_c, 0, 67, 64
2, 30212, Control_c, 0, 64, 127
2, 30254, Note_on_c, 0, 62, 55
2, 30283, Note_off_c, 0, 66, 64
2, 30339, Note_on_c, 0, 72, 50
2, 30340, Note_on_c, 0, 64, 55
2, 30357, Note_off_c, 0, 62, 64
2, 30362, Note_off_c, 0, 74, 64
2, 30416, Note_on_c, 0, 69, 55
2, 30424, Note_on_c, 0, 60, 52
2, 30448, Note_off_c, 0, 64, 64
2, 30449, Note_off_c, 0, 72, 64
2, 30500, Note_on_c, 0, 67, 63
2, 30503, Note_on_c, 0, 65, 59
2, 30504, Note_on_c, 0, 62, 56
2, 30528, Control_c, 0, 64, 0
2, 30536, Control_c, 0, 64, 0
2, 30540, Note_off_c, 0, 60, 64
2, 30543, Note_off_c, 0, 69, 64
2, 30548, Control_c, 0, 64, 0
2, 30592, Note_on_c, 0, 64, 47
2, 30616, Note_off_c, 0, 62, 64
2, 30664, Note_on_c, 0, 62, 50
2, 30689, Control_c, 0, 64, 127
2, 30696, Note_off_c, 0, 64, 64
2, 30697, Control_c, 0, 64, 127
2, 30709, Control_c, 0, 64, 127
2, 30856, Note_on_c, 0, 72, 48
2, 30859, Note_off_c, 0, 62, 64
2, 30862, Note_on_c, 0, 64, 40
2, 30862, Note_on_c, 0, 60, 54
2, 30864, Note_off_c, 0, 67, 64
2, 30867, Note_off_c, 0, 65, 64
2, 30952, Note_on_c, 0, 57, 44
2, 30969, Note_off_c, 0, 60, 64
2, 31030, Note_off_c, 0, 72, 64
2, 31032, Note_on_c, 0, 55, 50
2, 31032, Note_on_c, 0, 48, 50
2, 31036, Note_off_c, 0, 64, 64
2, 31041, Note_on_c, 0, 67, 41
2, 31046, Control_c, 0, 64, 0
2, 31053, Note_off_c, 0, 57, 64
2, 31054, Control_c, 0, 64, 0
2, 31066, Control_c, 0, 64, 0
2, 31112, Note_on_c, 0, 69, 44
2, 31126, Note_off_c, 0, 67, 64
2, 31181, Note_on_c, 0, 71, 42
2, 31198, Note_off_c, 0, 69, 64
2, 31217, Control_c, 0, 64, 127
2, 31225, Control_c, 0, 64, 127
2, 31237, Control_c, 0, 64, 127
2, 31255, Note_on_c, 0, 72, 42
2, 31267, Note_off_c, 0, 71, 64
2, 31305, Control_c, 0, 64, 0
2, 31313, Control_c, 0, 64, 0
2, 31325, Control_c, 0, 64, 0
2, 31352, Note_on_c, 0, 60, 48
2, 31355, Note_on_c, 0, 74, 41
2, 31367, Note_off_c, 0, 55, 64
2, 31370, Control_c, 0, 64, 127
2, 31371, Note_off_c, 0, 72, 64
2, 31378, Control_c, 0, 64, 127
2, 31390, Control_c, 0, 64, 127
2, 31418, Note_on_c, 0, 76, 44
2, 31434, Note_off_c, 0, 74, 64
2, 31500, Note_on_c, 0, 55, 50
2, 31505, Note_on_c, 0, 78, 48
2, 31527, Note_off_c, 0, 60, 64
2, 31528, Note_off_c, 0, 48, 64
2, 31537, Note_off_c, 0, 76, 64
2, 31537, Control_c, 0, 64, 0
2, 31545, Control_c, 0, 64, 0
2, 31557, Control_c, 0, 64, 0
2, 31588, Note_on_c, 0, 57, 42
2, 31588, Note_on_c, 0, 79, 50
2, 31603, Note_off_c, 0, 78, 64
2, 31609, Note_off_c, 0, 55, 64
2, 31657, Note_on_c, 0, 78, 48
2, 31659, Note_on_c, 0, 59, 40
2, 31678, Note_off_c, 0, 79, 64
2, 31688, Note_off_c, 0, 57, 64
2, 31732, Note_on_c, 0, 60, 40
2, 31733, Note_on_c, 0, 74, 40
2, 31742, Note_off_c, 0, 59, 64
2, 31749, Note_off_c, 0, 78, 64
2, 31808, Note_on_c, 0, 76, 44
2, 31808, Note_on_c, 0, 62, 48
2, 31816, Note_off_c, 0, 74, 64
2, 31822, Note_off_c, 0, 60, 64
2, 31876, Note_on_c, 0, 64, 40
2, 31879, Note_on_c, 0, 72, 50
2, 31897, Note_off_c, 0, 76, 64
2, 31903, Note_off_c, 0, 62, 64
2, 31952, Note_on_c, 0, 74, 54
2, 31955, Note_on_c, 0, 66, 40
2, 31966, Note_off_c, 0, 64, 64
2, 31969, Note_off_c, 0, 72, 64
2, 32025, Note_on_c, 0, 67, 40
2, 32028, Note_on_c, 0, 76, 40
2, 32043, Note_off_c, 0, 66, 64
2, 32045, Note_off_c, 0, 74, 64
2, 32096, Note_on_c, 0, 66, 40
2, 32097, Note_on_c, 0, 74, 44
2, 32116, Note_off_c, 0, 67, 64
2, 32117, Note_off_c, 0, 76, 64
2, 32172, Note_on_c, 0, 62, 41
2, 32173, Note_on_c, 0, 71, 40
2, 32189, Note_off_c, 0, 66, 64
2, 32190, Note_off_c, 0, 74, 64
2, 32244, Note_on_c, 0, 64, 50
2, 32245, Control_c, 0, 64, 127
2, 32249, Note_on_c, 0, 72, 41
2, 32253, Control_c, 0, 64, 127
2, 32258, Note_off_c, 0, 62, 64
2, 32259, Note_off_c, 0, 71, 64
2, 32265, Control_c, 0, 64, 127
2, 32324, Note_on_c, 0, 69, 54
2, 32324, Note_on_c, 0, 60, 20
2, 32332, Note_off_c, 0, 72, 64
2, 32348, Note_off_c, 0, 64, 64
2, 32412, Note_on_c, 0, 62, 50
2, 32416, Note_on_c, 0, 67, 50
2, 32419, Note_on_c, 0, 65, 47
2, 32428, Control_c, 0, 64, 0
2, 32435, Note_off_c, 0, 60, 64
2, 32435, Note_off_c, 0, 69, 64
2, 32436, Control_c, 0, 64, 0
2, 32448, Control_c, 0, 64, 0
2, 32488, Note_on_c, 0, 64, 54
2, 32496, Note_off_c, 0, 62, 64
2, 32516, Control_c, 0, 64, 127
2, 32524, Control_c, 0, 64, 127
2, 32536, Control_c, 0, 64, 127
2, 32570, Note_on_c, 0, 62, 47
2, 32585, Note_off_c, 0, 64, 64
2, 32647, Note_on_c, 0, 59, 44
2, 32659, Note_off_c, 0, 62, 64
2, 32730, Note_on_c, 0, 64, 40
2, 32732, Note_on_c, 0, 60, 46
2, 32740, Note_off_c, 0, 59, 64
2, 32744, Note_off_c, 0, 65, 64
2, 32805, Note_on_c, 0, 57, 50
2, 32826, Note_off_c, 0, 60, 64
2, 32900, Note_on_c, 0, 48, 41
2, 32902, Note_on_c, 0, 55, 28
2, 32911, Note_off_c, 0, 57, 64
2, 32911, Control_c, 0, 64, 0
2, 32919, Control_c, 0, 64, 0
2, 32931, Control_c, 0, 64, 0
2, 32981, Note_on_c, 0, 69, 29
2, 32983, Note_off_c, 0, 64, 64
2, 33010, Note_off_c, 0, 67, 64
2, 33066, Note_on_c, 0, 71, 47
2, 33086, Note_off_c, 0, 69, 64
2, 33139, Note_on_c, 0, 72, 42
2, 33151, Note_off_c, 0, 71, 64
2, 33206, Control_c, 0, 64, 127
2, 33212, Note_on_c, 0, 74, 44
2, 33214, Control_c, 0, 64, 127
2, 33226, Control_c, 0, 64, 127
2, 33228, Note_off_c, 0, 72, 64
2, 33289, Note_on_c, 0, 76, 47
2, 33313, Note_off_c, 0, 74, 64
2, 33364, Note_on_c, 0, 78, 46
2, 33371, Note_off_c, 0, 48, 64
2, 33394, Note_off_c, 0, 76, 64
2, 33443, Note_on_c, 0, 79, 52
2, 33444, Note_on_c, 0, 57, 42
2, 33454, Note_off_c, 0, 78, 64
2, 33470, Note_off_c, 0, 55, 64
2, 33512, Note_on_c, 0, 59, 44
2, 33515, Note_on_c, 0, 78, 48
2, 33533, Note_off_c, 0, 79, 64
2, 33538, Note_off_c, 0, 57, 64
2, 33592, Note_on_c, 0, 60, 26
2, 33594, Note_on_c, 0, 74, 49
2, 33611, Note_off_c, 0, 59, 64
2, 33614, Note_off_c, 0, 78, 64
2, 33659, Control_c, 0, 64, 0
2, 33667, Control_c, 0, 64, 0
2, 33672, Note_on_c, 0, 76, 39
2, 33672, Note_on_c, 0, 62, 42
2, 33679, Control_c, 0, 64, 0
2, 33680, Note_off_c, 0, 60, 64
2, 33682, Note_off_c, 0, 74, 64
2, 33744, Note_on_c, 0, 72, 46
2, 33744, Note_on_c, 0, 64, 44
2, 33757, Note_off_c, 0, 76, 64
2, 33763, Note_off_c, 0, 62, 64
2, 33819, Note_on_c, 0, 74, 57
2, 33819, Note_on_c, 0, 66, 54
2, 33841, Note_off_c, 0, 64, 64
2, 33841, Note_off_c, 0, 72, 64
2, 33888, Note_on_c, 0, 76, 47
2, 33898, Note_on_c, 0, 67, 52
2, 33908, Note_off_c, 0, 74, 64
2, 33917, Note_off_c, 0, 66, 64
2, 33967, Note_on_c, 0, 74, 50
2, 33967, Note_on_c, 0, 66, 39
2, 33973, Note_off_c, 0, 76, 64
2, 33983, Note_off_c, 0, 67, 64
2, 34024, Control_c, 0, 64, 127
2, 34032, Control_c, 0, 64, 127
2, 34040, Note_on_c, 0, 62, 37
2, 34044, Control_c, 0, 64, 127
2, 34066, Note_off_c, 0, 66, 64
2, 34112, Note_on_c, 0, 64, 29
2, 34114, Note_on_c, 0, 72, 47
2, 34126, Note_off_c, 0, 74, 64
2, 34138, Note_off_c, 0, 62, 64
2, 34190, Note_on_c, 0, 69, 35
2, 34192, Note_on_c, 0, 60, 36
2, 34202, Note_off_c, 0, 72, 64
2, 34212, Note_off_c, 0, 64, 64
2, 34251, Control_c, 0, 64, 0
2, 34259, Control_c, 0, 64, 0
2, 34268, Note_on_c, 0, 65, 42
2, 34271, Control_c, 0, 64, 0
2, 34272, Note_on_c, 0, 67, 52
2, 34272, Note_on_c, 0, 62, 33
2, 34298, Note_off_c, 0, 69, 64
2, 34299, Note_off_c, 0, 60, 64
2, 34346, Note_on_c, 0, 64, 49
2, 34351, Note_off_c, 0, 62, 64
2, 34367, Control_c, 0, 64, 127
2, 34375, Control_c, 0, 64, 127
2, 34387, Control_c, 0, 64, 127
2, 34405, Note_off_c, 0, 65, 64
2, 34423, Control_c, 0, 64, 0
2, 34425, Note_on_c, 0, 62, 47
2, 34431, Control_c, 0, 64, 0
2, 34441, Note_off_c, 0, 64, 64
2, 34443, Control_c, 0, 64, 0
2, 34464, Control_c, 0, 64, 127
2, 34472, Control_c, 0, 64, 127
2, 34484, Control_c, 0, 64, 127
2, 34580, Note_on_c, 0, 72, 42
2, 34584, Note_on_c, 0, 60, 40
2, 34586, Note_on_c, 0, 64, 32
2, 34588, Control_c, 0, 64, 0
2, 34596, Control_c, 0, 64, 0
2, 34600, Note_off_c, 0, 62, 64
2, 34608, Control_c, 0, 64, 0
2, 34629, Note_off_c, 0, 67, 64
2, 34636, Control_c, 0, 64, 127
2, 34644, Control_c, 0, 64, 127
2, 34656, Control_c, 0, 64, 127
2, 34665, Note_on_c, 0, 57, 48
2, 34674, Note_off_c, 0, 60, 64
2, 34744, Note_on_c, 0, 55, 44
2, 34744, Note_on_c, 0, 48, 44
2, 34749, Note_on_c, 0, 67, 39
2, 34750, Note_off_c, 0, 57, 64
2, 34750, Control_c, 0, 64, 0
2, 34758, Control_c, 0, 64, 0
2, 34759, Note_off_c, 0, 72, 64
2, 34765, Note_off_c, 0, 64, 64
2, 34770, Control_c, 0, 64, 0
2, 34838, Note_on_c, 0, 69, 36
2, 34847, Note_off_c, 0, 67, 64
2, 34915, Note_on_c, 0, 71, 39
2, 34930, Note_off_c, 0, 69, 64
2, 34984, Note_on_c, 0, 72, 35
2, 34994, Note_off_c, 0, 71, 64
2, 35059, Note_on_c, 0, 74, 37
2, 35063, Note_on_c, 0, 60, 47
2, 35066, Note_off_c, 0, 55, 64
2, 35084, Note_off_c, 0, 72, 64
2, 35085, Control_c, 0, 64, 127
2, 35093, Control_c, 0, 64, 127
2, 35105, Control_c, 0, 64, 127
2, 35138, Note_on_c, 0, 76, 36
2, 35151, Note_off_c, 0, 74, 64
2, 35224, Note_on_c, 0, 55, 44
2, 35225, Note_on_c, 0, 78, 36
2, 35248, Note_off_c, 0, 48, 64
2, 35250, Note_off_c, 0, 60, 64
2, 35250, Control_c, 0, 64, 0
2, 35252, Note_off_c, 0, 76, 64
2, 35258, Control_c, 0, 64, 0
2, 35270, Control_c, 0, 64, 0
2, 35306, Note_on_c, 0, 79, 42
2, 35308, Note_on_c, 0, 57, 35
2, 35321, Note_off_c, 0, 55, 64
2, 35324, Note_off_c, 0, 78, 64
2, 35377, Note_on_c, 0, 78, 44
2, 35380, Note_on_c, 0, 59, 39
2, 35385, Note_off_c, 0, 79, 64
2, 35412, Note_off_c, 0, 57, 64
2, 35457, Note_on_c, 0, 74, 35
2, 35460, Note_on_c, 0, 60, 40
2, 35474, Note_off_c, 0, 59, 64
2, 35475, Note_off_c, 0, 78, 64
2, 35528, Note_on_c, 0, 76, 41
2, 35532, Note_on_c, 0, 62, 47
2, 35546, Note_off_c, 0, 74, 64
2, 35550, Note_off_c, 0, 60, 64
2, 35598, Note_on_c, 0, 72, 44
2, 35598, Note_on_c, 0, 64, 42
2, 35618, Note_off_c, 0, 76, 64
2, 35622, Note_off_c, 0, 62, 64
2, 35673, Note_on_c, 0, 74, 42
2, 35676, Note_on_c, 0, 66, 41
2, 35693, Note_off_c, 0, 64, 64
2, 35693, Note_off_c, 0, 72, 64
2, 35752, Note_on_c, 0, 67, 35
2, 35754, Note_on_c, 0, 76, 29
2, 35760, Note_off_c, 0, 74, 64
2, 35763, Note_off_c, 0, 66, 64
2, 35794, Control_c, 0, 64, 127
2, 35802, Control_c, 0, 64, 127
2, 35814, Control_c, 0, 64, 127
2, 35816, Note_on_c, 0, 66, 31
2, 35818, Note_on_c, 0, 74, 42
2, 35833, Note_off_c, 0, 67, 64
2, 35835, Note_off_c, 0, 76, 64
2, 35898, Note_on_c, 0, 71, 32
2, 35900, Note_on_c, 0, 62, 29
2, 35905, Note_off_c, 0, 66, 64
2, 35907, Note_off_c, 0, 74, 64
2, 35976, Note_on_c, 0, 72, 32
2, 35976, Note_on_c, 0, 64, 37
2, 35986, Note_off_c, 0, 71, 64
2, 35988, Note_off_c, 0, 62, 64
2, 36048, Note_on_c, 0, 69, 35
2, 36048, Note_on_c, 0, 60, 16
2, 36076, Note_off_c, 0, 64, 64
2, 36076, Note_off_c, 0, 72, 64
2, 36120, Note_on_c, 0, 67, 42
2, 36124, Note_on_c, 0, 65, 37
2, 36124, Note_on_c, 0, 62, 44
2, 36132, Control_c, 0, 64, 0
2, 36140, Control_c, 0, 64, 0
2, 36150, Note_off_c, 0, 60, 64
2, 36150, Note_off_c, 0, 69, 64
2, 36152, Control_c, 0, 64, 0
2, 36208, Note_on_c, 0, 64, 44
2, 36214, Control_c, 0, 64, 127
2, 36222, Note_off_c, 0, 62, 64
2, 36222, Control_c, 0, 64, 127
2, 36234, Control_c, 0, 64, 127
2, 36301, Note_on_c, 0, 62, 37
2, 36314, Note_off_c, 0, 64, 64
2, 36380, Note_on_c, 0, 59, 28
2, 36394, Note_off_c, 0, 62, 64
2, 36480, Note_on_c, 0, 60, 35
2, 36485, Control_c, 0, 64, 0
2, 36493, Control_c, 0, 64, 0
2, 36496, Note_off_c, 0, 59, 64
2, 36505, Control_c, 0, 64, 0
2, 36519, Control_c, 0, 64, 127
2, 36527, Control_c, 0, 64, 127
2, 36539, Control_c, 0, 64, 127
2, 36572, Note_on_c, 0, 57, 21
2, 36579, Note_off_c, 0, 60, 64
2, 36664, Note_on_c, 0, 48, 35
2, 36670, Note_on_c, 0, 55, 29
2, 36678, Note_off_c, 0, 57, 64
2, 36699, Control_c, 0, 64, 0
2, 36707, Control_c, 0, 64, 0
2, 36719, Control_c, 0, 64, 0
2, 36804, Note_on_c, 0, 71, 44
2, 36854, Note_on_c, 0, 74, 44
2, 36864, Control_c, 0, 64, 127
2, 36872, Control_c, 0, 64, 127
2, 36884, Control_c, 0, 64, 127
2, 36891, Note_off_c, 0, 71, 64
2, 37012, Note_off_c, 0, 48, 64
2, 37016, Note_on_c, 0, 76, 47
2, 37018, Note_off_c, 0, 55, 64
2, 37040, Note_off_c, 0, 74, 64
2, 37184, Note_on_c, 0, 36, 48
2, 37187, Note_on_c, 0, 43, 28
2, 37192, Note_on_c, 0, 72, 52
2, 37196, Note_on_c, 0, 64, 48
2, 37200, Control_c, 0, 64, 0
2, 37202, Note_off_c, 0, 65, 64
2, 37204, Note_off_c, 0, 76, 64
2, 37208, Control_c, 0, 64, 0
2, 37220, Control_c, 0, 64, 0
2, 37264, Control_c, 0, 64, 127
2, 37272, Control_c, 0, 64, 127
2, 37284, Control_c, 0, 64, 127
2, 37296, Note_on_c, 0, 71, 50
2, 37308, Control_c, 0, 64, 0
2, 37311, Note_off_c, 0, 72, 64
2, 37315, Note_off_c, 0, 67, 64
2, 37316, Control_c, 0, 64, 0
2, 37328, Control_c, 0, 64, 0
2, 37337, Note_on_c, 0, 67, 58
2, 37358, Note_off_c, 0, 71, 64
2, 37366, Control_c, 0, 64, 127
2, 37374, Control_c, 0, 64, 127
2, 37386, Control_c, 0, 64, 127
2, 37464, Note_off_c, 0, 67, 64
2, 37466, Note_on_c, 0, 69, 32
2, 37473, Note_off_c, 0, 64, 64
2, 37492, Note_on_c, 0, 71, 50
2, 37508, Note_off_c, 0, 69, 64
2, 37534, Note_on_c, 0, 69, 52
2, 37541, Note_off_c, 0, 71, 64
2, 37664, Note_on_c, 0, 60, 36
2, 37671, Note_on_c, 0, 67, 52
2, 37683, Control_c, 0, 64, 0
2, 37685, Note_off_c, 0, 69, 64
2, 37691, Control_c, 0, 64, 0
2, 37703, Control_c, 0, 64, 0
2, 37715, Control_c, 0, 64, 127
2, 37723, Control_c, 0, 64, 127
2, 37735, Control_c, 0, 64, 127
2, 37787, Note_on_c, 0, 66, 44
2, 37795, Note_off_c, 0, 67, 64
2, 37817, Control_c, 0, 64, 0
2, 37825, Control_c, 0, 64, 0
2, 37830, Note_on_c, 0, 57, 44
2, 37834, Note_on_c, 0, 62, 48
2, 37837, Control_c, 0, 64, 0
2, 37842, Note_off_c, 0, 60, 64
2, 37855, Note_off_c, 0, 66, 64
2, 37992, Note_on_c, 0, 59, 48
2, 37995, Note_on_c, 0, 65, 44
2, 38004, Note_off_c, 0, 57, 64
2, 38008, Note_off_c, 0, 62, 64
2, 38088, Note_off_c, 0, 43, 64
2, 38097, Note_off_c, 0, 36, 64
2, 38152, Note_on_c, 0, 60, 44
2, 38156, Note_on_c, 0, 64, 44
2, 38175, Note_off_c, 0, 59, 64
2, 38178, Note_off_c, 0, 65, 64
2, 38204, Control_c, 0, 64, 127
2, 38212, Control_c, 0, 64, 127
2, 38224, Control_c, 0, 64, 127
2, 38276, Note_on_c, 0, 36, 50
2, 38299, Note_off_c, 0, 60, 64
2, 38299, Control_c, 0, 64, 0
2, 38300, Note_on_c, 0, 43, 16
2, 38303, Note_off_c, 0, 64, 64
2, 38307, Control_c, 0, 64, 0
2, 38316, Note_off_c, 0, 36, 64
2, 38316, Note_on_c, 0, 52, 56
2, 38319, Control_c, 0, 64, 0
2, 38331, Note_on_c, 0, 60, 41
2, 38340, Note_off_c, 0, 43, 64
2, 38356, Note_off_c, 0, 52, 64
2, 38371, Note_off_c, 0, 60, 64
2, 38448, Note_on_c, 0, 36, 50
2, 38464, Note_on_c, 0, 43, 21
2, 38484, Note_on_c, 0, 52, 52
2, 38488, Note_off_c, 0, 36, 64
2, 38489, Note_on_c, 0, 55, 44
2, 38492, Note_on_c, 0, 60, 37
2, 38500, Note_on_c, 0, 67, 48
2, 38504, Note_off_c, 0, 43, 64
2, 38512, Control_c, 0, 64, 127
2, 38520, Control_c, 0, 64, 127
2, 38524, Note_off_c, 0, 52, 64
2, 38532, Control_c, 0, 64, 127
2, 38630, Note_off_c, 0, 55, 64
2, 38633, Note_off_c, 0, 60, 64
2, 38659, Note_on_c, 0, 36, 47
2, 38665, Note_on_c, 0, 65, 56
2, 38669, Note_on_c, 0, 50, 52
2, 38670, Note_on_c, 0, 43, 21
2, 38678, Control_c, 0, 64, 0
2, 38686, Control_c, 0, 64, 0
2, 38698, Control_c, 0, 64, 0
2, 38769, Note_on_c, 0, 71, 44
2, 38816, Note_on_c, 0, 74, 47
2, 38832, Control_c, 0, 64, 127
2, 38840, Control_c, 0, 64, 127
2, 38843, Note_off_c, 0, 71, 64
2, 38852, Control_c, 0, 64, 127
2, 38972, Note_on_c, 0, 76, 48
2, 38996, Note_off_c, 0, 74, 64
2, 39053, Note_off_c, 0, 50, 64
2, 39060, Note_off_c, 0, 43, 64
2, 39074, Note_off_c, 0, 36, 64
2, 39124, Note_on_c, 0, 36, 48
2, 39132, Note_on_c, 0, 64, 47
2, 39134, Note_on_c, 0, 43, 48
2, 39135, Control_c, 0, 64, 0
2, 39137, Note_on_c, 0, 72, 54
2, 39137, Note_on_c, 0, 52, 50
2, 39143, Control_c, 0, 64, 0
2, 39155, Control_c, 0, 64, 0
2, 39157, Note_off_c, 0, 36, 64
2, 39161, Note_off_c, 0, 43, 64
2, 39163, Note_off_c, 0, 76, 64
2, 39178, Note_off_c, 0, 52, 64
2, 39181, Note_off_c, 0, 65, 64
2, 39246, Note_off_c, 0, 64, 64
2, 39255, Note_on_c, 0, 71, 41
2, 39268, Note_off_c, 0, 72, 64
2, 39268, Note_off_c, 0, 67, 64
2, 39282, Note_on_c, 0, 36, 48
2, 39284, Note_on_c, 0, 64, 47
2, 39288, Note_on_c, 0, 43, 35
2, 39294, Note_on_c, 0, 67, 48
2, 39294, Note_on_c, 0, 52, 54
2, 39315, Note_off_c, 0, 36, 64
2, 39315, Note_off_c, 0, 71, 64
2, 39321, Note_off_c, 0, 43, 64
2, 39325, Note_off_c, 0, 52, 64
2, 39362, Control_c, 0, 64, 127
2, 39370, Control_c, 0, 64, 127
2, 39382, Control_c, 0, 64, 127
2, 39383, Note_on_c, 0, 69, 52
2, 39398, Note_off_c, 0, 64, 64
2, 39402, Note_off_c, 0, 67, 64
2, 39404, Control_c, 0, 64, 0
2, 39406, Note_on_c, 0, 71, 50
2, 39412, Control_c, 0, 64, 0
2, 39422, Note_off_c, 0, 69, 64
2, 39424, Control_c, 0, 64, 0
2, 39436, Note_on_c, 0, 60, 48
2, 39445, Note_on_c, 0, 43, 44
2, 39446, Note_on_c, 0, 52, 52
2, 39451, Note_on_c, 0, 69, 50
2, 39451, Note_on_c, 0, 36, 41
2, 39460, Control_c, 0, 64, 127
2, 39468, Control_c, 0, 64, 127
2, 39471, Note_off_c, 0, 71, 64
2, 39480, Note_off_c, 0, 36, 64
2, 39480, Control_c, 0, 64, 127
2, 39481, Note_off_c, 0, 52, 64
2, 39481, Note_off_c, 0, 43, 64
2, 39600, Note_on_c, 0, 67, 44
2, 39609, Note_on_c, 0, 50, 56
2, 39613, Note_off_c, 0, 69, 64
2, 39613, Note_on_c, 0, 43, 41
2, 39613, Note_on_c, 0, 36, 50
2, 39617, Control_c, 0, 64, 0
2, 39625, Control_c, 0, 64, 0
2, 39637, Control_c, 0, 64, 0
2, 39719, Note_on_c, 0, 66, 27
2, 39737, Note_off_c, 0, 67, 64
2, 39754, Note_on_c, 0, 62, 48
2, 39762, Note_on_c, 0, 57, 52
2, 39768, Note_off_c, 0, 60, 64
2, 39783, Note_off_c, 0, 66, 64
2, 39791, Control_c, 0, 64, 127
2, 39799, Control_c, 0, 64, 127
2, 39811, Control_c, 0, 64, 127
2, 39906, Control_c, 0, 64, 0
2, 39914, Control_c, 0, 64, 0
2, 39920, Note_off_c, 0, 62, 64
2, 39920, Note_on_c, 0, 64, 49
2, 39926, Control_c, 0, 64, 0
2, 39927, Note_on_c, 0, 59, 56
2, 39928, Note_off_c, 0, 57, 64
2, 39956, Control_c, 0, 64, 127
2, 39964, Control_c, 0, 64, 127
2, 39976, Control_c, 0, 64, 127
2, 39980, Note_off_c, 0, 43, 64
2, 39993, Note_off_c, 0, 36, 64
2, 40012, Note_off_c, 0, 50, 64
2, 40064, Control_c, 0, 64, 0
2, 40067, Note_on_c, 0, 36, 52
2, 40072, Control_c, 0, 64, 0
2, 40079, Note_on_c, 0, 43, 49
2, 40084, Control_c, 0, 64, 0
2, 40088, Note_on_c, 0, 60, 48
2, 40095, Note_off_c, 0, 64, 64
2, 40099, Note_on_c, 0, 52, 52
2, 40102, Note_off_c, 0, 59, 64
2, 40109, Note_off_c, 0, 36, 64
2, 40116, Note_off_c, 0, 43, 64
2, 40129, Note_off_c, 0, 52, 64
2, 40240, Note_on_c, 0, 43, 39
2, 40240, Note_on_c, 0, 36, 56
2, 40244, Note_on_c, 0, 55, 54
2, 40251, Note_on_c, 0, 52, 62
2, 40275, Note_off_c, 0, 36, 64
2, 40276, Note_off_c, 0, 55, 64
2, 40276, Note_off_c, 0, 43, 64
2, 40283, Note_off_c, 0, 52, 64
2, 40390, Note_on_c, 0, 36, 56
2, 40392, Note_off_c, 0, 60, 64
2, 40395, Note_on_c, 0, 43, 56
2, 40412, Note_on_c, 0, 52, 57
2, 40417, Note_on_c, 0, 67, 59
2, 40420, Note_on_c, 0, 60, 48
2, 40420, Note_on_c, 0, 55, 48
2, 40425, Note_off_c, 0, 36, 64
2, 40436, Note_off_c, 0, 43, 64
2, 40443, Control_c, 0, 64, 127
2, 40448, Note_off_c, 0, 52, 64
2, 40451, Control_c, 0, 64, 127
2, 40463, Control_c, 0, 64, 127
2, 40553, Note_off_c, 0, 55, 64
2, 40553, Note_off_c, 0, 60, 64
2, 40573, Control_c, 0, 64, 0
2, 40577, Note_on_c, 0, 36, 50
2, 40580, Note_on_c, 0, 65, 62
2, 40581, Control_c, 0, 64, 0
2, 40590, Note_on_c, 0, 50, 54
2, 40590, Note_on_c, 0, 43, 48
2, 40593, Control_c, 0, 64, 0
2, 40693, Note_on_c, 0, 71, 41
2, 40731, Note_on_c, 0, 74, 56
2, 40751, Note_off_c, 0, 71, 64
2, 40752, Control_c, 0, 64, 127
2, 40760, Control_c, 0, 64, 127
2, 40772, Control_c, 0, 64, 127
2, 40901, Note_on_c, 0, 76, 52
2, 40927, Note_off_c, 0, 43, 64
2, 40929, Note_off_c, 0, 74, 64
2, 40929, Note_off_c, 0, 36, 64
2, 40941, Note_off_c, 0, 50, 64
2, 41016, Note_on_c, 0, 36, 44
2, 41040, Control_c, 0, 64, 0
2, 41047, Note_off_c, 0, 36, 64
2, 41048, Note_on_c, 0, 43, 47
2, 41048, Control_c, 0, 64, 0
2, 41056, Note_on_c, 0, 72, 56
2, 41059, Note_off_c, 0, 65, 64
2, 41060, Note_on_c, 0, 64, 50
2, 41060, Control_c, 0, 64, 0
2, 41062, Note_on_c, 0, 52, 58
2, 41073, Note_off_c, 0, 76, 64
2, 41079, Note_off_c, 0, 43, 64
2, 41093, Note_off_c, 0, 52, 64
2, 41169, Note_on_c, 0, 71, 48
2, 41178, Note_off_c, 0, 72, 64
2, 41181, Note_off_c, 0, 67, 64
2, 41190, Note_on_c, 0, 43, 56
2, 41197, Note_on_c, 0, 36, 52
2, 41204, Note_on_c, 0, 52, 58
2, 41212, Note_on_c, 0, 67, 44
2, 41220, Note_off_c, 0, 36, 64
2, 41223, Note_off_c, 0, 64, 64
2, 41229, Note_off_c, 0, 43, 64
2, 41233, Note_off_c, 0, 52, 64
2, 41238, Note_off_c, 0, 71, 64
2, 41307, Note_on_c, 0, 69, 54
2, 41329, Note_on_c, 0, 71, 44
2, 41347, Note_off_c, 0, 69, 64
2, 41355, Note_on_c, 0, 43, 44
2, 41356, Note_on_c, 0, 60, 50
2, 41360, Note_on_c, 0, 52, 57
2, 41364, Note_on_c, 0, 36, 48
2, 41371, Note_on_c, 0, 69, 52
2, 41376, Note_off_c, 0, 67, 64
2, 41378, Control_c, 0, 64, 127
2, 41386, Control_c, 0, 64, 127
2, 41391, Note_off_c, 0, 52, 64
2, 41392, Note_off_c, 0, 36, 64
2, 41392, Note_off_c, 0, 43, 64
2, 41395, Note_off_c, 0, 71, 64
2, 41398, Control_c, 0, 64, 127
2, 41509, Control_c, 0, 64, 0
2, 41517, Control_c, 0, 64, 0
2, 41522, Note_on_c, 0, 67, 46
2, 41526, Note_on_c, 0, 50, 57
2, 41526, Note_on_c, 0, 43, 57
2, 41526, Note_on_c, 0, 36, 56
2, 41529, Control_c, 0, 64, 0
2, 41530, Note_off_c, 0, 69, 64
2, 41631, Note_off_c, 0, 60, 64
2, 41636, Note_on_c, 0, 66, 52
2, 41655, Note_off_c, 0, 67, 64
2, 41676, Note_on_c, 0, 57, 56
2, 41680, Note_on_c, 0, 62, 48
2, 41695, Control_c, 0, 64, 127
2, 41703, Control_c, 0, 64, 127
2, 41707, Note_off_c, 0, 66, 64
2, 41715, Control_c, 0, 64, 127
2, 41820, Control_c, 0, 64, 0
2, 41828, Control_c, 0, 64, 0
2, 41840, Control_c, 0, 64, 0
2, 41841, Note_off_c, 0, 57, 64
2, 41842, Note_on_c, 0, 65, 50
2, 41844, Note_on_c, 0, 59, 56
2, 41845, Note_off_c, 0, 62, 64
2, 41879, Control_c, 0, 64, 127
2, 41887, Control_c, 0, 64, 127
2, 41899, Control_c, 0, 64, 127
2, 41952, Note_off_c, 0, 36, 64
2, 41952, Note_off_c, 0, 43, 64
2, 41952, Note_off_c, 0, 50, 64
2, 41982, Control_c, 0, 64, 0
2, 41985, Note_on_c, 0, 36, 52
2, 41990, Control_c, 0, 64, 0
2, 41994, Note_on_c, 0, 64, 47
2, 41994, Note_on_c, 0, 60, 47
2, 41996, Note_on_c, 0, 43, 52
2, 42002, Control_c, 0, 64, 0
2, 42005, Note_off_c, 0, 59, 64
2, 42008, Note_on_c, 0, 52, 47
2, 42020, Note_off_c, 0, 65, 64
2, 42021, Note_off_c, 0, 36, 64
2, 42033, Note_off_c, 0, 43, 64
2, 42040, Note_off_c, 0, 52, 64
2, 42118, Note_off_c, 0, 60, 64
2, 42118, Note_off_c, 0, 64, 64
2, 42152, Note_on_c, 0, 60, 50
2, 42152, Note_on_c, 0, 43, 56
2, 42152, Note_on_c, 0, 36, 52
2, 42156, Note_on_c, 0, 55, 58
2, 42161, Note_on_c, 0, 52, 62
2, 42191, Note_off_c, 0, 36, 64
2, 42191, Note_off_c, 0, 43, 64
2, 42191, Note_off_c, 0, 60, 64
2, 42195, Note_off_c, 0, 55, 64
2, 42200, Note_off_c, 0, 52, 64
2, 42308, Note_on_c, 0, 55, 58
2, 42308, Note_on_c, 0, 36, 52
2, 42316, Note_on_c, 0, 60, 36
2, 42320, Note_on_c, 0, 43, 58
2, 42324, Note_on_c, 0, 52, 65
2, 42339, Control_c, 0, 64, 127
2, 42340, Note_on_c, 0, 67, 65
2, 42341, Note_off_c, 0, 36, 64
2, 42347, Control_c, 0, 64, 127
2, 42353, Note_off_c, 0, 43, 64
2, 42357, Note_off_c, 0, 52, 64
2, 42359, Control_c, 0, 64, 127
2, 42452, Note_off_c, 0, 55, 64
2, 42460, Note_off_c, 0, 60, 64
2, 42481, Note_on_c, 0, 36, 58
2, 42489, Note_on_c, 0, 43, 44
2, 42491, Control_c, 0, 64, 0
2, 42492, Note_on_c, 0, 65, 65
2, 42499, Note_on_c, 0, 50, 58
2, 42499, Control_c, 0, 64, 0
2, 42511, Control_c, 0, 64, 0
2, 42614, Note_on_c, 0, 71, 48
2, 42649, Note_on_c, 0, 74, 56
2, 42666, Control_c, 0, 64, 127
2, 42670, Note_off_c, 0, 71, 64
2, 42674, Control_c, 0, 64, 127
2, 42686, Control_c, 0, 64, 127
2, 42793, Control_c, 0, 64, 0
2, 42801, Control_c, 0, 64, 0
2, 42811, Control_c, 0, 64, 127
2, 42812, Note_on_c, 0, 76, 52
2, 42813, Control_c, 0, 64, 0
2, 42819, Control_c, 0, 64, 127
2, 42831, Note_off_c, 0, 74, 64
2, 42831, Control_c, 0, 64, 127
2, 42838, Note_off_c, 0, 36, 64
2, 42846, Note_off_c, 0, 43, 64
2, 42856, Note_off_c, 0, 50, 64
2, 42929, Note_on_c, 0, 36, 50
2, 42951, Note_on_c, 0, 43, 48
2, 42958, Control_c, 0, 64, 0
2, 42961, Note_on_c, 0, 72, 56
2, 42962, Note_off_c, 0, 36, 64
2, 42966, Control_c, 0, 64, 0
2, 42970, Note_on_c, 0, 64, 49
2, 42977, Note_on_c, 0, 52, 62
2, 42978, Control_c, 0, 64, 0
2, 42984, Note_off_c, 0, 43, 64
2, 42991, Note_off_c, 0, 76, 64
2, 42994, Note_off_c, 0, 65, 64
2, 43010, Note_off_c, 0, 52, 64
2, 43059, Note_off_c, 0, 67, 64
2, 43075, Note_on_c, 0, 71, 52
2, 43081, Note_off_c, 0, 64, 64
2, 43084, Note_off_c, 0, 72, 64
2, 43104, Note_on_c, 0, 36, 56
2, 43112, Note_on_c, 0, 43, 37
2, 43116, Note_on_c, 0, 52, 56
2, 43125, Note_on_c, 0, 67, 49
2, 43132, Note_on_c, 0, 64, 28
2, 43137, Note_off_c, 0, 36, 64
2, 43145, Note_off_c, 0, 43, 64
2, 43149, Note_off_c, 0, 52, 64
2, 43152, Note_off_c, 0, 71, 64
2, 43217, Note_on_c, 0, 69, 56
2, 43246, Note_on_c, 0, 71, 56
2, 43260, Note_on_c, 0, 36, 50
2, 43264, Note_off_c, 0, 69, 64
2, 43269, Note_on_c, 0, 60, 50
2, 43271, Note_on_c, 0, 43, 44
2, 43277, Control_c, 0, 64, 127
2, 43278, Note_on_c, 0, 69, 50
2, 43278, Note_on_c, 0, 52, 64
2, 43285, Control_c, 0, 64, 127
2, 43290, Note_off_c, 0, 67, 64
2, 43293, Note_off_c, 0, 36, 64
2, 43297, Note_off_c, 0, 64, 64
2, 43297, Control_c, 0, 64, 127
2, 43304, Note_off_c, 0, 43, 64
2, 43307, Note_off_c, 0, 71, 64
2, 43311, Note_off_c, 0, 52, 64
2, 43421, Note_on_c, 0, 67, 52
2, 43422, Note_on_c, 0, 36, 50
2, 43430, Control_c, 0, 64, 0
2, 43431, Note_on_c, 0, 50, 48
2, 43433, Note_off_c, 0, 69, 64
2, 43435, Note_on_c, 0, 43, 44
2, 43438, Control_c, 0, 64, 0
2, 43450, Control_c, 0, 64, 0
2, 43511, Control_c, 0, 64, 127
2, 43519, Control_c, 0, 64, 127
2, 43531, Control_c, 0, 64, 127
2, 43533, Note_on_c, 0, 66, 50
2, 43551, Note_off_c, 0, 67, 64
2, 43551, Control_c, 0, 64, 0
2, 43559, Control_c, 0, 64, 0
2, 43564, Note_on_c, 0, 62, 54
2, 43564, Note_on_c, 0, 57, 54
2, 43571, Control_c, 0, 64, 0
2, 43574, Note_off_c, 0, 60, 64
2, 43595, Control_c, 0, 64, 127
2, 43603, Note_off_c, 0, 66, 64
2, 43603, Control_c, 0, 64, 127
2, 43615, Control_c, 0, 64, 127
2, 43714, Note_off_c, 0, 36, 64
2, 43716, Control_c, 0, 64, 0
2, 43723, Note_off_c, 0, 57, 64
2, 43723, Note_off_c, 0, 62, 64
2, 43723, Note_off_c, 0, 50, 64
2, 43724, Note_on_c, 0, 64, 37
2, 43724, Note_on_c, 0, 59, 54
2, 43724, Control_c, 0, 64, 0
2, 43727, Note_off_c, 0, 43, 64
2, 43736, Control_c, 0, 64, 0
2, 43748, Control_c, 0, 64, 127
2, 43756, Control_c, 0, 64, 127
2, 43768, Control_c, 0, 64, 127
2, 43841, Note_off_c, 0, 59, 64
2, 43841, Note_off_c, 0, 64, 64
2, 43859, Note_on_c, 0, 59, 54
2, 43862, Note_on_c, 0, 64, 49
2, 43897, Note_on_c, 0, 52, 66
2, 43904, Note_on_c, 0, 60, 75
2, 43907, Note_off_c, 0, 59, 64
2, 43908, Note_on_c, 0, 36, 60
2, 43914, Note_on_c, 0, 43, 66
2, 43918, Note_off_c, 0, 64, 64
2, 43964, Control_c, 0, 64, 0
2, 43972, Control_c, 0, 64, 0
2, 43984, Control_c, 0, 64, 0
2, 44055, Note_off_c, 0, 36, 64
2, 44068, Note_off_c, 0, 52, 64
2, 44073, Note_on_c, 0, 48, 79
2, 44073, Note_on_c, 0, 84, 100
2, 44075, Note_off_c, 0, 60, 64
2, 44077, Note_on_c, 0, 64, 81
2, 44079, Note_on_c, 0, 55, 76
2, 44079, Note_on_c, 0, 72, 78
2, 44085, Note_off_c, 0, 43, 64
2, 44111, Control_c, 0, 64, 0
2, 44116, Note_off_c, 0, 72, 64
2, 44119, Control_c, 0, 64, 0
2, 44131, Control_c, 0, 64, 0
2, 44132, Note_off_c, 0, 84, 64
2, 44136, Note_off_c, 0, 64, 64
2, 44138, Note_off_c, 0, 55, 64
2, 44143, Note_off_c, 0, 48, 64
2, 44143, End_track
3, 0, Start_track
3, 0, Title_t, "Played by Dr. Ron Lubetsky"
3, 0, End_track
4, 0, Start_track
4, 0, Title_t, "Feb. 25, 1998"
4, 0, End_track
5, 0, Start_track
5, 0, Title_t, "email: acuity2020@aol.com"
5, 0, End_track
6, 0, Start_track
6, 0, Title_t, "Copyright  1998"
6, 0, End_track
7, 0, Start_track
7, 0, Title_t, "All Rights Reserved"
7, 0, End_track
0, 0, End_of_file
