0, 0, Header, 1, 7, 240
1, 0, Start_track
1, 0, Time_signature, 4, 2, 24, 8
1, 0, Tempo, 500000
1, 0, Marker_t, "Chopin: Mazurka, Op. 63 No. 2- Lento"
1, 0, End_track
2, 0, Start_track
2, 0, Title_t, "Chopin: Op. 63 No. 2"
2, 0, Program_c, 0, 0
2, 0, Control_c, 0, 7, 127
2, 39, Control_c, 0, 64, 127
2, 52, Note_on_c, 0, 48, 55
2, 84, Control_c, 0, 64, 0
2, 108, Control_c, 0, 64, 127
2, 163, Control_c, 0, 64, 0
2, 246, Control_c, 0, 64, 127
2, 292, Note_off_c, 0, 48, 64
2, 324, Note_on_c, 0, 64, 34
2, 327, Note_on_c, 0, 58, 34
2, 400, Note_on_c, 0, 73, 78
2, 455, Note_off_c, 0, 64, 64
2, 458, Note_off_c, 0, 58, 64
2, 712, Note_on_c, 0, 58, 37
2, 713, Note_on_c, 0, 64, 25
2, 716, Control_c, 0, 64, 0
2, 740, Control_c, 0, 64, 127
2, 781, Note_off_c, 0, 58, 64
2, 782, Note_off_c, 0, 64, 64
2, 982, Note_on_c, 0, 48, 45
2, 1126, Note_on_c, 0, 72, 54
2, 1170, Note_off_c, 0, 73, 64
2, 1222, Note_off_c, 0, 48, 64
2, 1280, Note_on_c, 0, 56, 37
2, 1280, Note_on_c, 0, 65, 31
2, 1328, Control_c, 0, 64, 0
2, 1338, Note_on_c, 0, 70, 55
2, 1345, Note_off_c, 0, 72, 64
2, 1374, Control_c, 0, 64, 127
2, 1411, Note_off_c, 0, 65, 64
2, 1411, Note_off_c, 0, 56, 64
2, 1430, Note_on_c, 0, 68, 60
2, 1475, Note_off_c, 0, 70, 64
2, 1520, Note_on_c, 0, 60, 22
2, 1525, Note_on_c, 0, 56, 36
2, 1535, Note_on_c, 0, 67, 47
2, 1555, Note_off_c, 0, 68, 64
2, 1589, Note_off_c, 0, 60, 64
2, 1594, Note_off_c, 0, 56, 64
2, 1642, Note_on_c, 0, 65, 46
2, 1668, Note_off_c, 0, 67, 64
2, 1743, Note_on_c, 0, 48, 47
2, 1743, Note_on_c, 0, 67, 54
2, 1754, Control_c, 0, 64, 0
2, 1759, Note_off_c, 0, 65, 64
2, 1787, Control_c, 0, 64, 127
2, 1842, Note_on_c, 0, 60, 56
2, 1853, Note_off_c, 0, 67, 64
2, 1950, Note_on_c, 0, 72, 57
2, 1956, Note_on_c, 0, 58, 37
2, 1960, Control_c, 0, 64, 0
2, 1967, Note_on_c, 0, 64, 39
2, 1972, Note_off_c, 0, 60, 64
2, 1983, Note_off_c, 0, 48, 64
2, 1984, Control_c, 0, 64, 0
2, 2006, Control_c, 0, 64, 127
2, 2016, Control_c, 0, 64, 127
2, 2087, Note_off_c, 0, 58, 64
2, 2098, Note_off_c, 0, 64, 64
2, 2199, Note_on_c, 0, 64, 29
2, 2200, Note_on_c, 0, 58, 39
2, 2268, Note_off_c, 0, 64, 64
2, 2269, Note_off_c, 0, 58, 64
2, 2314, Note_on_c, 0, 67, 66
2, 2338, Note_off_c, 0, 72, 64
2, 2386, Control_c, 0, 64, 0
2, 2419, Control_c, 0, 64, 127
2, 2464, Note_on_c, 0, 68, 71
2, 2480, Note_on_c, 0, 41, 56
2, 2510, Note_off_c, 0, 67, 64
2, 2523, Control_c, 0, 64, 0
2, 2555, Control_c, 0, 64, 127
2, 2616, Control_c, 0, 64, 0
2, 2648, Control_c, 0, 64, 127
2, 2677, Note_on_c, 0, 72, 65
2, 2708, Note_off_c, 0, 68, 64
2, 2720, Note_off_c, 0, 41, 64
2, 2748, Note_on_c, 0, 77, 72
2, 2758, Note_on_c, 0, 60, 31
2, 2761, Note_on_c, 0, 56, 18
2, 2766, Note_on_c, 0, 65, 25
2, 2776, Note_off_c, 0, 72, 64
2, 2792, Control_c, 0, 64, 0
2, 2836, Control_c, 0, 64, 127
2, 2889, Note_off_c, 0, 60, 64
2, 2892, Note_off_c, 0, 56, 64
2, 2897, Note_off_c, 0, 65, 64
2, 3023, Note_on_c, 0, 61, 33
2, 3023, Note_on_c, 0, 56, 23
2, 3031, Note_on_c, 0, 65, 33
2, 3155, Control_c, 0, 64, 0
2, 3187, Note_off_c, 0, 56, 64
2, 3187, Note_off_c, 0, 61, 64
2, 3187, Control_c, 0, 64, 127
2, 3195, Note_off_c, 0, 65, 64
2, 3319, Note_on_c, 0, 43, 63
2, 3344, Control_c, 0, 64, 0
2, 3387, Control_c, 0, 64, 127
2, 3424, Control_c, 0, 64, 0
2, 3463, Note_off_c, 0, 77, 64
2, 3468, Control_c, 0, 64, 127
2, 3559, Note_off_c, 0, 43, 64
2, 3579, Note_on_c, 0, 51, 38
2, 3594, Note_on_c, 0, 61, 28
2, 3594, Note_on_c, 0, 58, 50
2, 3628, Note_on_c, 0, 77, 77
2, 3645, Control_c, 0, 64, 0
2, 3691, Control_c, 0, 64, 127
2, 3710, Note_off_c, 0, 51, 64
2, 3725, Note_off_c, 0, 58, 64
2, 3725, Note_off_c, 0, 61, 64
2, 3832, Note_on_c, 0, 61, 33
2, 3840, Note_on_c, 0, 58, 23
2, 3841, Note_on_c, 0, 51, 37
2, 3901, Note_off_c, 0, 61, 64
2, 3909, Note_off_c, 0, 58, 64
2, 3910, Note_off_c, 0, 51, 64
2, 3976, Control_c, 0, 64, 0
2, 4019, Control_c, 0, 64, 127
2, 4061, Note_on_c, 0, 44, 42
2, 4098, Control_c, 0, 64, 0
2, 4140, Control_c, 0, 64, 127
2, 4182, Note_on_c, 0, 75, 47
2, 4209, Note_off_c, 0, 77, 64
2, 4277, Control_c, 0, 64, 0
2, 4301, Note_off_c, 0, 44, 64
2, 4304, Note_on_c, 0, 51, 33
2, 4306, Note_on_c, 0, 73, 52
2, 4317, Note_on_c, 0, 60, 37
2, 4323, Control_c, 0, 64, 127
2, 4335, Note_off_c, 0, 75, 64
2, 4339, Control_c, 0, 64, 0
2, 4384, Control_c, 0, 64, 127
2, 4424, Note_on_c, 0, 72, 52
2, 4435, Note_off_c, 0, 51, 64
2, 4441, Note_off_c, 0, 73, 64
2, 4448, Note_off_c, 0, 60, 64
2, 4528, Note_on_c, 0, 70, 32
2, 4535, Note_off_c, 0, 72, 64
2, 4623, Note_on_c, 0, 68, 47
2, 4627, Note_off_c, 0, 70, 64
2, 4730, Control_c, 0, 64, 0
2, 4739, Note_on_c, 0, 67, 43
2, 4746, Note_on_c, 0, 46, 47
2, 4756, Note_off_c, 0, 68, 64
2, 4772, Control_c, 0, 64, 127
2, 4775, Control_c, 0, 64, 0
2, 4828, Control_c, 0, 64, 127
2, 4854, Note_on_c, 0, 66, 53
2, 4874, Note_off_c, 0, 67, 64
2, 4971, Control_c, 0, 64, 0
2, 4972, Note_on_c, 0, 70, 33
2, 4983, Note_on_c, 0, 61, 25
2, 4986, Note_off_c, 0, 46, 64
2, 4991, Note_on_c, 0, 54, 24
2, 5001, Note_off_c, 0, 66, 64
2, 5016, Control_c, 0, 64, 127
2, 5016, Control_c, 0, 64, 0
2, 5060, Control_c, 0, 64, 127
2, 5095, Note_on_c, 0, 65, 46
2, 5114, Note_off_c, 0, 61, 64
2, 5122, Note_off_c, 0, 54, 64
2, 5141, Note_off_c, 0, 70, 64
2, 5222, Note_on_c, 0, 68, 36
2, 5233, Note_on_c, 0, 58, 42
2, 5240, Note_on_c, 0, 61, 24
2, 5248, Note_off_c, 0, 65, 64
2, 5278, Control_c, 0, 64, 0
2, 5309, Control_c, 0, 64, 127
2, 5364, Note_off_c, 0, 58, 64
2, 5368, Note_on_c, 0, 66, 38
2, 5371, Note_off_c, 0, 61, 64
2, 5392, Note_off_c, 0, 68, 64
2, 5407, Control_c, 0, 64, 0
2, 5460, Control_c, 0, 64, 127
2, 5518, Note_on_c, 0, 48, 45
2, 5525, Note_on_c, 0, 65, 45
2, 5534, Note_off_c, 0, 66, 64
2, 5560, Control_c, 0, 64, 0
2, 5616, Control_c, 0, 64, 127
2, 5648, Control_c, 0, 64, 0
2, 5675, Note_on_c, 0, 64, 40
2, 5692, Control_c, 0, 64, 127
2, 5697, Note_off_c, 0, 65, 64
2, 5758, Note_off_c, 0, 48, 64
2, 5862, Note_off_c, 0, 64, 64
2, 5888, Note_on_c, 0, 64, 20
2, 5888, Note_on_c, 0, 55, 30
2, 5891, Note_on_c, 0, 60, 36
2, 5910, Control_c, 0, 64, 0
2, 5920, Control_c, 0, 64, 0
2, 5941, Control_c, 0, 64, 127
2, 5982, Control_c, 0, 64, 127
2, 6019, Note_off_c, 0, 55, 64
2, 6019, Note_off_c, 0, 64, 64
2, 6175, Note_on_c, 0, 64, 19
2, 6188, Note_on_c, 0, 55, 19
2, 6192, Control_c, 0, 64, 0
2, 6244, Note_off_c, 0, 64, 64
2, 6248, Control_c, 0, 64, 127
2, 6257, Note_off_c, 0, 55, 64
2, 6346, Note_off_c, 0, 60, 64
2, 6424, Note_on_c, 0, 60, 69
2, 6516, Note_on_c, 0, 36, 62
2, 6541, Note_on_c, 0, 73, 69
2, 6552, Control_c, 0, 64, 0
2, 6589, Note_off_c, 0, 60, 64
2, 6614, Control_c, 0, 64, 127
2, 6874, Note_off_c, 0, 73, 64
2, 6909, Note_on_c, 0, 64, 44
2, 6911, Note_on_c, 0, 58, 50
2, 6928, Note_on_c, 0, 73, 62
2, 6967, Control_c, 0, 64, 0
2, 7022, Control_c, 0, 64, 127
2, 7040, Note_off_c, 0, 64, 64
2, 7042, Note_off_c, 0, 58, 64
2, 7193, Note_on_c, 0, 58, 39
2, 7202, Note_on_c, 0, 64, 44
2, 7245, Note_off_c, 0, 36, 64
2, 7262, Note_off_c, 0, 58, 64
2, 7271, Note_off_c, 0, 64, 64
2, 7432, Note_on_c, 0, 48, 56
2, 7554, Note_on_c, 0, 72, 62
2, 7577, Note_off_c, 0, 73, 64
2, 7599, Control_c, 0, 64, 0
2, 7652, Note_on_c, 0, 56, 44
2, 7654, Control_c, 0, 64, 127
2, 7656, Note_on_c, 0, 60, 46
2, 7661, Note_on_c, 0, 70, 63
2, 7665, Note_on_c, 0, 65, 46
2, 7672, Note_off_c, 0, 48, 64
2, 7685, Note_off_c, 0, 72, 64
2, 7693, Control_c, 0, 64, 0
2, 7736, Control_c, 0, 64, 127
2, 7748, Note_on_c, 0, 68, 64
2, 7773, Note_off_c, 0, 70, 64
2, 7783, Note_off_c, 0, 56, 64
2, 7787, Note_off_c, 0, 60, 64
2, 7796, Note_off_c, 0, 65, 64
2, 7840, Note_on_c, 0, 60, 44
2, 7844, Note_on_c, 0, 56, 63
2, 7855, Note_on_c, 0, 67, 77
2, 7870, Note_off_c, 0, 68, 64
2, 7909, Note_off_c, 0, 60, 64
2, 7913, Note_off_c, 0, 56, 64
2, 7953, Note_on_c, 0, 65, 77
2, 7983, Note_off_c, 0, 67, 64
2, 8081, Note_on_c, 0, 67, 64
2, 8105, Note_off_c, 0, 65, 64
2, 8106, Note_on_c, 0, 36, 52
2, 8136, Control_c, 0, 64, 0
2, 8158, Control_c, 0, 64, 127
2, 8232, Note_on_c, 0, 60, 75
2, 8248, Note_off_c, 0, 67, 64
2, 8325, Control_c, 0, 64, 0
2, 8346, Note_off_c, 0, 36, 64
2, 8352, Note_on_c, 0, 64, 39
2, 8354, Note_on_c, 0, 58, 57
2, 8356, Note_on_c, 0, 72, 64
2, 8368, Control_c, 0, 64, 127
2, 8391, Note_off_c, 0, 60, 64
2, 8395, Control_c, 0, 64, 0
2, 8447, Control_c, 0, 64, 127
2, 8483, Note_off_c, 0, 64, 64
2, 8485, Note_off_c, 0, 58, 64
2, 8598, Note_on_c, 0, 58, 39
2, 8603, Note_on_c, 0, 64, 39
2, 8667, Note_off_c, 0, 58, 64
2, 8672, Note_off_c, 0, 64, 64
2, 8718, Note_on_c, 0, 67, 63
2, 8732, Note_off_c, 0, 72, 64
2, 8768, Control_c, 0, 64, 0
2, 8790, Control_c, 0, 64, 127
2, 8871, Note_on_c, 0, 69, 75
2, 8892, Note_off_c, 0, 67, 64
2, 8892, Note_on_c, 0, 41, 64
2, 8908, Control_c, 0, 64, 0
2, 8954, Control_c, 0, 64, 127
2, 9008, Note_on_c, 0, 72, 79
2, 9027, Control_c, 0, 64, 0
2, 9052, Note_off_c, 0, 69, 64
2, 9079, Control_c, 0, 64, 127
2, 9132, Note_off_c, 0, 41, 64
2, 9156, Note_on_c, 0, 77, 75
2, 9164, Note_on_c, 0, 53, 53
2, 9172, Note_on_c, 0, 63, 50
2, 9176, Note_off_c, 0, 72, 64
2, 9200, Control_c, 0, 64, 0
2, 9233, Control_c, 0, 64, 127
2, 9295, Note_off_c, 0, 53, 64
2, 9303, Note_off_c, 0, 63, 64
2, 9383, Note_on_c, 0, 53, 60
2, 9392, Note_on_c, 0, 57, 39
2, 9398, Note_on_c, 0, 63, 37
2, 9490, Note_on_c, 0, 76, 81
2, 9514, Note_off_c, 0, 53, 64
2, 9523, Note_off_c, 0, 57, 64
2, 9526, Note_off_c, 0, 77, 64
2, 9529, Note_off_c, 0, 63, 64
2, 9540, Control_c, 0, 64, 0
2, 9586, Control_c, 0, 64, 127
2, 9634, Note_on_c, 0, 46, 46
2, 9694, Note_on_c, 0, 75, 70
2, 9707, Control_c, 0, 64, 0
2, 9716, Note_off_c, 0, 76, 64
2, 9753, Control_c, 0, 64, 127
2, 9828, Note_on_c, 0, 74, 62
2, 9832, Control_c, 0, 64, 0
2, 9861, Note_off_c, 0, 75, 64
2, 9865, Control_c, 0, 64, 127
2, 9874, Note_off_c, 0, 46, 64
2, 9965, Note_on_c, 0, 73, 70
2, 9966, Note_on_c, 0, 61, 31
2, 9974, Note_off_c, 0, 74, 64
2, 9974, Note_on_c, 0, 65, 40
2, 9979, Note_on_c, 0, 55, 34
2, 9981, Note_on_c, 0, 53, 34
2, 9997, Control_c, 0, 64, 0
2, 10050, Control_c, 0, 64, 127
2, 10102, Note_on_c, 0, 69, 56
2, 10118, Note_off_c, 0, 73, 64
2, 10136, Note_off_c, 0, 61, 64
2, 10139, Note_off_c, 0, 65, 64
2, 10148, Note_off_c, 0, 55, 64
2, 10155, Note_off_c, 0, 53, 64
2, 10213, Note_on_c, 0, 70, 60
2, 10246, Note_off_c, 0, 69, 64
2, 10324, Note_on_c, 0, 71, 63
2, 10339, Control_c, 0, 64, 0
2, 10345, Note_off_c, 0, 70, 64
2, 10385, Control_c, 0, 64, 127
2, 10442, Note_on_c, 0, 73, 62
2, 10456, Note_on_c, 0, 48, 50
2, 10466, Note_off_c, 0, 71, 64
2, 10475, Control_c, 0, 64, 0
2, 10528, Control_c, 0, 64, 127
2, 10587, Note_on_c, 0, 75, 52
2, 10602, Note_off_c, 0, 73, 64
2, 10629, Control_c, 0, 64, 0
2, 10640, Note_on_c, 0, 73, 69
2, 10664, Note_off_c, 0, 75, 64
2, 10682, Control_c, 0, 64, 127
2, 10692, Note_on_c, 0, 56, 26
2, 10696, Note_off_c, 0, 48, 64
2, 10707, Note_on_c, 0, 72, 70
2, 10712, Note_on_c, 0, 65, 34
2, 10712, Note_on_c, 0, 60, 26
2, 10726, Note_off_c, 0, 73, 64
2, 10753, Control_c, 0, 64, 0
2, 10804, Control_c, 0, 64, 127
2, 10823, Note_off_c, 0, 56, 64
2, 10843, Note_off_c, 0, 60, 64
2, 10843, Note_off_c, 0, 65, 64
2, 10881, Note_on_c, 0, 67, 56
2, 10889, Note_off_c, 0, 72, 64
2, 11000, Note_on_c, 0, 68, 57
2, 11039, Note_off_c, 0, 67, 64
2, 11101, Note_on_c, 0, 71, 57
2, 11107, Control_c, 0, 64, 0
2, 11127, Note_off_c, 0, 68, 64
2, 11160, Control_c, 0, 64, 127
2, 11192, Note_on_c, 0, 36, 69
2, 11208, Control_c, 0, 64, 0
2, 11219, Note_on_c, 0, 73, 50
2, 11241, Note_off_c, 0, 71, 64
2, 11247, Control_c, 0, 64, 127
2, 11319, Note_on_c, 0, 72, 47
2, 11331, Note_off_c, 0, 73, 64
2, 11385, Control_c, 0, 64, 0
2, 11422, Note_on_c, 0, 55, 34
2, 11432, Note_off_c, 0, 36, 64
2, 11432, Note_on_c, 0, 71, 56
2, 11432, Note_on_c, 0, 64, 51
2, 11436, Control_c, 0, 64, 127
2, 11454, Note_off_c, 0, 72, 64
2, 11460, Control_c, 0, 64, 0
2, 11494, Control_c, 0, 64, 127
2, 11533, Note_on_c, 0, 66, 45
2, 11548, Note_off_c, 0, 71, 64
2, 11553, Note_off_c, 0, 55, 64
2, 11563, Note_off_c, 0, 64, 64
2, 11664, Note_on_c, 0, 67, 53
2, 11664, Note_on_c, 0, 58, 34
2, 11667, Note_on_c, 0, 60, 28
2, 11670, Note_on_c, 0, 64, 25
2, 11686, Note_off_c, 0, 66, 64
2, 11733, Note_off_c, 0, 58, 64
2, 11736, Note_off_c, 0, 60, 64
2, 11739, Note_off_c, 0, 64, 64
2, 11792, Note_on_c, 0, 70, 57
2, 11810, Note_off_c, 0, 67, 64
2, 11840, Control_c, 0, 64, 0
2, 11879, Control_c, 0, 64, 127
2, 11938, Note_on_c, 0, 69, 56
2, 11955, Note_on_c, 0, 41, 56
2, 11977, Note_off_c, 0, 70, 64
2, 12013, Control_c, 0, 64, 0
2, 12056, Control_c, 0, 64, 127
2, 12090, Note_on_c, 0, 68, 56
2, 12092, Control_c, 0, 64, 0
2, 12118, Note_off_c, 0, 69, 64
2, 12126, Control_c, 0, 64, 127
2, 12195, Note_off_c, 0, 41, 64
2, 12256, Note_on_c, 0, 56, 27
2, 12259, Note_on_c, 0, 65, 57
2, 12260, Note_on_c, 0, 60, 27
2, 12286, Note_off_c, 0, 68, 64
2, 12325, Control_c, 0, 64, 0
2, 12367, Control_c, 0, 64, 127
2, 12387, Note_off_c, 0, 56, 64
2, 12391, Note_off_c, 0, 60, 64
2, 12632, Note_on_c, 0, 53, 18
2, 12633, Note_on_c, 0, 56, 15
2, 12636, Note_on_c, 0, 61, 20
2, 12645, Control_c, 0, 64, 0
2, 12688, Control_c, 0, 64, 127
2, 12691, Control_c, 0, 64, 0
2, 12743, Control_c, 0, 64, 127
2, 12763, Note_off_c, 0, 53, 64
2, 12764, Note_off_c, 0, 56, 64
2, 12767, Note_off_c, 0, 61, 64
2, 12928, Note_off_c, 0, 65, 64
2, 12957, Control_c, 0, 64, 0
2, 12963, Note_on_c, 0, 63, 57
2, 12968, Control_c, 0, 64, 0
2, 12999, Control_c, 0, 64, 127
2, 13005, Control_c, 0, 64, 127
2, 13194, Note_on_c, 0, 61, 47
2, 13208, Note_on_c, 0, 43, 37
2, 13208, Note_on_c, 0, 51, 39
2, 13221, Control_c, 0, 64, 0
2, 13260, Control_c, 0, 64, 127
2, 13323, Control_c, 0, 64, 0
2, 13375, Control_c, 0, 64, 127
2, 13395, Note_off_c, 0, 61, 64
2, 13426, Note_on_c, 0, 39, 46
2, 13428, Note_off_c, 0, 51, 64
2, 13433, Note_on_c, 0, 65, 52
2, 13433, Note_on_c, 0, 61, 47
2, 13433, Note_on_c, 0, 55, 44
2, 13437, Note_on_c, 0, 51, 34
2, 13440, Note_off_c, 0, 43, 64
2, 13447, Control_c, 0, 64, 0
2, 13455, Note_off_c, 0, 63, 64
2, 13505, Control_c, 0, 64, 127
2, 13600, Control_c, 0, 64, 0
2, 13610, Note_off_c, 0, 65, 64
2, 13614, Note_on_c, 0, 63, 57
2, 13637, Control_c, 0, 64, 127
2, 13652, Note_on_c, 0, 65, 69
2, 13668, Note_off_c, 0, 63, 64
2, 13683, Control_c, 0, 64, 0
2, 13693, Note_on_c, 0, 63, 70
2, 13705, Note_off_c, 0, 39, 64
2, 13718, Control_c, 0, 64, 127
2, 13720, Note_off_c, 0, 55, 64
2, 13720, Note_off_c, 0, 61, 64
2, 13724, Note_off_c, 0, 65, 64
2, 13724, Note_off_c, 0, 51, 64
2, 13799, Note_on_c, 0, 62, 70
2, 13810, Note_off_c, 0, 63, 64
2, 13853, Control_c, 0, 64, 0
2, 13886, Note_on_c, 0, 63, 79
2, 13892, Control_c, 0, 64, 127
2, 13902, Note_on_c, 0, 44, 52
2, 13902, Note_on_c, 0, 51, 38
2, 13905, Note_off_c, 0, 62, 64
2, 13909, Note_on_c, 0, 60, 45
2, 13924, Control_c, 0, 64, 0
2, 13963, Control_c, 0, 64, 127
2, 14079, Control_c, 0, 64, 0
2, 14127, Note_off_c, 0, 51, 64
2, 14127, Note_off_c, 0, 44, 64
2, 14134, Note_off_c, 0, 60, 64
2, 14137, Control_c, 0, 64, 127
2, 14176, Note_on_c, 0, 51, 37
2, 14182, Note_on_c, 0, 72, 79
2, 14187, Note_on_c, 0, 44, 46
2, 14189, Note_on_c, 0, 60, 52
2, 14196, Note_off_c, 0, 63, 64
2, 14227, Control_c, 0, 64, 0
2, 14284, Control_c, 0, 64, 127
2, 14315, Control_c, 0, 64, 0
2, 14350, Control_c, 0, 64, 127
2, 14416, Note_on_c, 0, 70, 79
2, 14432, Note_off_c, 0, 72, 64
2, 14465, Note_off_c, 0, 44, 64
2, 14498, Note_off_c, 0, 51, 64
2, 14538, Note_off_c, 0, 60, 64
2, 14556, Control_c, 0, 64, 0
2, 14595, Control_c, 0, 64, 127
2, 14642, Note_on_c, 0, 61, 52
2, 14645, Note_on_c, 0, 65, 59
2, 14645, Note_on_c, 0, 58, 50
2, 14652, Note_on_c, 0, 44, 38
2, 14668, Note_on_c, 0, 51, 26
2, 14680, Control_c, 0, 64, 0
2, 14726, Control_c, 0, 64, 127
2, 14847, Note_off_c, 0, 61, 64
2, 14850, Note_off_c, 0, 58, 64
2, 14850, Note_off_c, 0, 65, 64
2, 14857, Note_off_c, 0, 44, 64
2, 14859, Control_c, 0, 64, 0
2, 14870, Note_on_c, 0, 72, 75
2, 14870, Note_on_c, 0, 44, 44
2, 14873, Note_off_c, 0, 51, 64
2, 14879, Note_on_c, 0, 61, 57
2, 14879, Note_on_c, 0, 58, 37
2, 14881, Note_off_c, 0, 70, 64
2, 14881, Note_on_c, 0, 51, 35
2, 14886, Note_on_c, 0, 67, 59
2, 14907, Control_c, 0, 64, 0
2, 14916, Control_c, 0, 64, 127
2, 14965, Control_c, 0, 64, 127
2, 15034, Note_on_c, 0, 68, 62
2, 15057, Note_off_c, 0, 72, 64
2, 15060, Note_on_c, 0, 70, 77
2, 15067, Note_off_c, 0, 68, 64
2, 15096, Control_c, 0, 64, 0
2, 15103, Note_off_c, 0, 44, 64
2, 15103, Note_on_c, 0, 68, 84
2, 15112, Note_off_c, 0, 58, 64
2, 15112, Note_off_c, 0, 61, 64
2, 15114, Note_off_c, 0, 51, 64
2, 15119, Note_off_c, 0, 67, 64
2, 15126, Note_off_c, 0, 70, 64
2, 15138, Control_c, 0, 64, 127
2, 15250, Note_on_c, 0, 67, 70
2, 15275, Note_off_c, 0, 68, 64
2, 15312, Control_c, 0, 64, 0
2, 15315, Note_on_c, 0, 60, 69
2, 15318, Note_on_c, 0, 44, 52
2, 15322, Note_on_c, 0, 68, 79
2, 15324, Note_on_c, 0, 51, 57
2, 15332, Control_c, 0, 64, 0
2, 15345, Note_off_c, 0, 67, 64
2, 15358, Control_c, 0, 64, 127
2, 15371, Control_c, 0, 64, 127
2, 15462, Note_off_c, 0, 60, 64
2, 15465, Note_off_c, 0, 44, 64
2, 15471, Note_off_c, 0, 51, 64
2, 15475, Note_on_c, 0, 44, 63
2, 15535, Note_on_c, 0, 51, 45
2, 15539, Control_c, 0, 64, 0
2, 15564, Note_on_c, 0, 60, 63
2, 15565, Note_on_c, 0, 75, 72
2, 15573, Note_on_c, 0, 63, 64
2, 15596, Control_c, 0, 64, 0
2, 15597, Control_c, 0, 64, 127
2, 15600, Note_off_c, 0, 68, 64
2, 15636, Control_c, 0, 64, 127
2, 15728, Control_c, 0, 64, 0
2, 15770, Control_c, 0, 64, 127
2, 15799, Note_off_c, 0, 44, 64
2, 15805, Note_off_c, 0, 63, 64
2, 15815, Note_on_c, 0, 63, 84
2, 15839, Control_c, 0, 64, 0
2, 15847, Note_off_c, 0, 60, 64
2, 15878, Note_off_c, 0, 75, 64
2, 15879, Control_c, 0, 64, 127
2, 15881, Note_off_c, 0, 51, 64
2, 15964, Control_c, 0, 64, 0
2, 16003, Control_c, 0, 64, 127
2, 16020, Note_on_c, 0, 39, 39
2, 16029, Note_on_c, 0, 51, 35
2, 16032, Note_on_c, 0, 61, 53
2, 16042, Note_on_c, 0, 55, 44
2, 16187, Note_off_c, 0, 39, 64
2, 16196, Note_off_c, 0, 51, 64
2, 16199, Note_off_c, 0, 61, 64
2, 16209, Note_off_c, 0, 55, 64
2, 16228, Control_c, 0, 64, 0
2, 16246, Note_on_c, 0, 65, 69
2, 16248, Note_on_c, 0, 61, 53
2, 16252, Note_on_c, 0, 55, 52
2, 16252, Note_on_c, 0, 39, 52
2, 16254, Note_on_c, 0, 51, 51
2, 16268, Control_c, 0, 64, 127
2, 16270, Control_c, 0, 64, 0
2, 16276, Note_off_c, 0, 63, 64
2, 16300, Control_c, 0, 64, 127
2, 16408, Note_on_c, 0, 63, 79
2, 16416, Note_off_c, 0, 65, 64
2, 16448, Note_on_c, 0, 65, 70
2, 16467, Note_off_c, 0, 63, 64
2, 16471, Control_c, 0, 64, 0
2, 16474, Control_c, 0, 64, 0
2, 16476, Note_off_c, 0, 61, 64
2, 16480, Note_off_c, 0, 39, 64
2, 16480, Note_off_c, 0, 55, 64
2, 16480, Note_on_c, 0, 63, 79
2, 16482, Note_off_c, 0, 51, 64
2, 16507, Control_c, 0, 64, 127
2, 16511, Control_c, 0, 64, 127
2, 16519, Note_off_c, 0, 65, 64
2, 16572, Note_on_c, 0, 62, 78
2, 16586, Note_off_c, 0, 63, 64
2, 16667, Note_on_c, 0, 63, 81
2, 16670, Note_on_c, 0, 60, 64
2, 16673, Note_on_c, 0, 44, 62
2, 16686, Note_off_c, 0, 62, 64
2, 16686, Note_on_c, 0, 51, 44
2, 16693, Control_c, 0, 64, 0
2, 16730, Control_c, 0, 64, 127
2, 16775, Note_on_c, 0, 43, 62
2, 16785, Note_off_c, 0, 44, 64
2, 16833, Note_off_c, 0, 51, 64
2, 16835, Note_off_c, 0, 60, 64
2, 16902, Control_c, 0, 64, 0
2, 16905, Note_on_c, 0, 68, 70
2, 16905, Note_on_c, 0, 41, 51
2, 16910, Note_on_c, 0, 60, 59
2, 16916, Note_off_c, 0, 63, 64
2, 16919, Note_on_c, 0, 53, 31
2, 16932, Control_c, 0, 64, 127
2, 16936, Note_off_c, 0, 43, 64
2, 16946, Control_c, 0, 64, 0
2, 17003, Control_c, 0, 64, 127
2, 17106, Control_c, 0, 64, 0
2, 17139, Control_c, 0, 64, 127
2, 17148, Note_on_c, 0, 67, 79
2, 17154, Note_off_c, 0, 41, 64
2, 17163, Control_c, 0, 64, 0
2, 17169, Note_off_c, 0, 68, 64
2, 17201, Control_c, 0, 64, 127
2, 17237, Note_off_c, 0, 53, 64
2, 17325, Control_c, 0, 64, 0
2, 17362, Control_c, 0, 64, 127
2, 17364, Note_on_c, 0, 43, 57
2, 17368, Note_on_c, 0, 50, 52
2, 17379, Control_c, 0, 64, 0
2, 17409, Control_c, 0, 64, 127
2, 17465, Note_on_c, 0, 59, 63
2, 17485, Note_off_c, 0, 60, 64
2, 17487, Note_off_c, 0, 67, 64
2, 17501, Note_off_c, 0, 43, 64
2, 17505, Note_off_c, 0, 50, 64
2, 17564, Note_on_c, 0, 62, 57
2, 17568, Note_on_c, 0, 55, 40
2, 17578, Control_c, 0, 64, 0
2, 17585, Note_off_c, 0, 59, 64
2, 17590, Note_on_c, 0, 50, 40
2, 17593, Note_on_c, 0, 43, 35
2, 17606, Control_c, 0, 64, 0
2, 17635, Control_c, 0, 64, 127
2, 17661, Control_c, 0, 64, 127
2, 17764, Note_off_c, 0, 62, 64
2, 17768, Note_off_c, 0, 55, 64
2, 17786, Note_on_c, 0, 67, 70
2, 17789, Note_on_c, 0, 60, 57
2, 17795, Control_c, 0, 64, 0
2, 17819, Note_off_c, 0, 50, 64
2, 17826, Note_off_c, 0, 43, 64
2, 17833, Control_c, 0, 64, 127
2, 17903, Note_on_c, 0, 59, 62
2, 17922, Note_off_c, 0, 60, 64
2, 17998, Note_on_c, 0, 57, 69
2, 18006, Note_on_c, 0, 43, 35
2, 18009, Note_on_c, 0, 50, 35
2, 18011, Control_c, 0, 64, 0
2, 18022, Note_off_c, 0, 59, 64
2, 18041, Control_c, 0, 64, 127
2, 18103, Note_on_c, 0, 59, 70
2, 18109, Note_off_c, 0, 57, 64
2, 18173, Note_off_c, 0, 43, 64
2, 18176, Note_off_c, 0, 50, 64
2, 18218, Note_on_c, 0, 62, 72
2, 18221, Note_on_c, 0, 55, 59
2, 18225, Note_off_c, 0, 67, 64
2, 18227, Note_on_c, 0, 43, 39
2, 18229, Note_on_c, 0, 50, 35
2, 18235, Note_off_c, 0, 59, 64
2, 18235, Control_c, 0, 64, 0
2, 18238, Control_c, 0, 64, 0
2, 18265, Control_c, 0, 64, 127
2, 18293, Control_c, 0, 64, 127
2, 18451, Note_off_c, 0, 62, 64
2, 18454, Note_off_c, 0, 55, 64
2, 18460, Note_off_c, 0, 43, 64
2, 18462, Note_off_c, 0, 50, 64
2, 18478, Note_on_c, 0, 61, 63
2, 18478, Note_on_c, 0, 63, 64
2, 18492, Note_on_c, 0, 56, 69
2, 18538, Control_c, 0, 64, 0
2, 18592, Note_on_c, 0, 55, 62
2, 18607, Control_c, 0, 64, 127
2, 18610, Note_off_c, 0, 56, 64
2, 18720, Note_on_c, 0, 53, 45
2, 18744, Note_off_c, 0, 55, 64
2, 18816, Note_on_c, 0, 55, 66
2, 18838, Note_off_c, 0, 53, 64
2, 18867, Control_c, 0, 64, 0
2, 18897, Control_c, 0, 64, 127
2, 18939, Note_off_c, 0, 61, 64
2, 18952, Note_on_c, 0, 39, 63
2, 18954, Note_on_c, 0, 51, 40
2, 18960, Note_on_c, 0, 65, 69
2, 18962, Note_off_c, 0, 55, 64
2, 18964, Note_on_c, 0, 61, 69
2, 18983, Note_off_c, 0, 63, 64
2, 18994, Control_c, 0, 64, 0
2, 19059, Control_c, 0, 64, 127
2, 19134, Note_off_c, 0, 61, 64
2, 19144, Note_off_c, 0, 65, 64
2, 19164, Note_on_c, 0, 63, 62
2, 19170, Control_c, 0, 64, 0
2, 19194, Note_on_c, 0, 65, 71
2, 19212, Note_off_c, 0, 63, 64
2, 19232, Note_on_c, 0, 63, 79
2, 19239, Control_c, 0, 64, 127
2, 19242, Control_c, 0, 64, 0
2, 19258, Note_off_c, 0, 65, 64
2, 19281, Control_c, 0, 64, 127
2, 19338, Note_on_c, 0, 62, 62
2, 19352, Note_off_c, 0, 39, 64
2, 19354, Note_off_c, 0, 63, 64
2, 19354, Note_off_c, 0, 51, 64
2, 19430, Note_on_c, 0, 63, 72
2, 19438, Note_on_c, 0, 60, 66
2, 19442, Note_on_c, 0, 44, 56
2, 19445, Note_on_c, 0, 51, 52
2, 19446, Note_off_c, 0, 62, 64
2, 19452, Control_c, 0, 64, 0
2, 19489, Control_c, 0, 64, 127
2, 19626, Control_c, 0, 64, 0
2, 19635, Note_off_c, 0, 60, 64
2, 19639, Note_off_c, 0, 44, 64
2, 19642, Note_off_c, 0, 51, 64
2, 19658, Note_on_c, 0, 51, 59
2, 19658, Note_on_c, 0, 44, 62
2, 19661, Note_on_c, 0, 72, 79
2, 19665, Note_on_c, 0, 60, 69
2, 19671, Note_off_c, 0, 63, 64
2, 19691, Control_c, 0, 64, 127
2, 19692, Control_c, 0, 64, 0
2, 19740, Control_c, 0, 64, 127
2, 19854, Note_off_c, 0, 60, 64
2, 19860, Note_on_c, 0, 70, 72
2, 19874, Control_c, 0, 64, 0
2, 19880, Note_off_c, 0, 51, 64
2, 19884, Control_c, 0, 64, 0
2, 19893, Note_off_c, 0, 44, 64
2, 19900, Note_off_c, 0, 72, 64
2, 19913, Control_c, 0, 64, 127
2, 19914, Control_c, 0, 64, 127
2, 20065, Note_on_c, 0, 61, 46
2, 20065, Note_on_c, 0, 44, 51
2, 20073, Note_on_c, 0, 65, 52
2, 20073, Note_on_c, 0, 58, 40
2, 20081, Note_on_c, 0, 51, 34
2, 20084, Control_c, 0, 64, 0
2, 20097, Control_c, 0, 64, 0
2, 20119, Control_c, 0, 64, 127
2, 20121, Control_c, 0, 64, 127
2, 20232, Note_off_c, 0, 44, 64
2, 20232, Note_off_c, 0, 61, 64
2, 20240, Note_off_c, 0, 58, 64
2, 20240, Note_off_c, 0, 65, 64
2, 20248, Note_off_c, 0, 51, 64
2, 20284, Note_on_c, 0, 61, 59
2, 20286, Note_on_c, 0, 72, 72
2, 20293, Note_on_c, 0, 44, 56
2, 20297, Note_on_c, 0, 67, 52
2, 20299, Note_on_c, 0, 51, 50
2, 20303, Note_on_c, 0, 58, 35
2, 20309, Control_c, 0, 64, 0
2, 20310, Note_off_c, 0, 70, 64
2, 20324, Control_c, 0, 64, 0
2, 20346, Control_c, 0, 64, 127
2, 20372, Control_c, 0, 64, 127
2, 20441, Note_on_c, 0, 68, 60
2, 20464, Note_off_c, 0, 72, 64
2, 20472, Note_on_c, 0, 70, 84
2, 20480, Note_off_c, 0, 68, 64
2, 20486, Note_off_c, 0, 61, 64
2, 20495, Note_off_c, 0, 44, 64
2, 20499, Note_off_c, 0, 67, 64
2, 20501, Note_off_c, 0, 51, 64
2, 20505, Note_off_c, 0, 58, 64
2, 20516, Control_c, 0, 64, 0
2, 20518, Note_on_c, 0, 68, 78
2, 20525, Control_c, 0, 64, 0
2, 20541, Note_off_c, 0, 70, 64
2, 20546, Control_c, 0, 64, 127
2, 20565, Control_c, 0, 64, 127
2, 20659, Note_on_c, 0, 67, 69
2, 20679, Note_off_c, 0, 68, 64
2, 20716, Note_on_c, 0, 60, 70
2, 20722, Note_on_c, 0, 68, 88
2, 20722, Note_on_c, 0, 44, 62
2, 20728, Note_on_c, 0, 56, 57
2, 20728, Note_on_c, 0, 51, 57
2, 20729, Control_c, 0, 64, 0
2, 20732, Control_c, 0, 64, 0
2, 20738, Note_off_c, 0, 67, 64
2, 20747, Control_c, 0, 64, 127
2, 20751, Control_c, 0, 64, 127
2, 20889, Note_off_c, 0, 44, 64
2, 20892, Note_off_c, 0, 60, 64
2, 20895, Note_off_c, 0, 51, 64
2, 20895, Note_off_c, 0, 56, 64
2, 20898, Note_off_c, 0, 68, 64
2, 20932, Note_on_c, 0, 77, 57
2, 20932, Note_on_c, 0, 65, 55
2, 20936, Note_on_c, 0, 44, 63
2, 20941, Control_c, 0, 64, 0
2, 20957, Note_on_c, 0, 51, 66
2, 20978, Control_c, 0, 64, 127
2, 20987, Note_on_c, 0, 75, 72
2, 20987, Note_on_c, 0, 60, 51
2, 20997, Note_on_c, 0, 63, 84
2, 21012, Control_c, 0, 64, 0
2, 21019, Note_off_c, 0, 65, 64
2, 21019, Note_off_c, 0, 77, 64
2, 21060, Control_c, 0, 64, 127
2, 21157, Control_c, 0, 64, 0
2, 21197, Control_c, 0, 64, 127
2, 21199, Note_off_c, 0, 75, 64
2, 21209, Note_off_c, 0, 63, 64
2, 21226, Note_off_c, 0, 60, 64
2, 21235, Note_off_c, 0, 44, 64
2, 21245, Note_off_c, 0, 51, 64
2, 21252, Control_c, 0, 64, 0
2, 21266, Note_on_c, 0, 63, 85
2, 21301, Control_c, 0, 64, 0
2, 21350, Control_c, 0, 64, 127
2, 21364, Control_c, 0, 64, 0
2, 21379, Control_c, 0, 64, 127
2, 21479, Note_on_c, 0, 39, 66
2, 21487, Note_on_c, 0, 61, 63
2, 21487, Note_on_c, 0, 51, 52
2, 21492, Note_on_c, 0, 55, 56
2, 21503, Control_c, 0, 64, 0
2, 21516, Control_c, 0, 64, 127
2, 21644, Control_c, 0, 64, 0
2, 21646, Note_off_c, 0, 39, 64
2, 21654, Note_off_c, 0, 51, 64
2, 21654, Note_off_c, 0, 61, 64
2, 21659, Note_off_c, 0, 55, 64
2, 21690, Note_on_c, 0, 61, 50
2, 21692, Control_c, 0, 64, 127
2, 21697, Note_on_c, 0, 51, 56
2, 21698, Note_on_c, 0, 55, 70
2, 21701, Note_on_c, 0, 65, 62
2, 21701, Note_on_c, 0, 39, 60
2, 21713, Control_c, 0, 64, 0
2, 21720, Note_off_c, 0, 63, 64
2, 21752, Control_c, 0, 64, 127
2, 21870, Note_on_c, 0, 63, 52
2, 21882, Note_off_c, 0, 65, 64
2, 21884, Control_c, 0, 64, 0
2, 21898, Note_off_c, 0, 61, 64
2, 21900, Note_on_c, 0, 65, 79
2, 21905, Note_off_c, 0, 51, 64
2, 21906, Note_off_c, 0, 55, 64
2, 21909, Note_off_c, 0, 39, 64
2, 21916, Note_off_c, 0, 63, 64
2, 21917, Control_c, 0, 64, 0
2, 21933, Control_c, 0, 64, 0
2, 21943, Note_on_c, 0, 63, 64
2, 21966, Note_off_c, 0, 65, 64
2, 21978, Control_c, 0, 64, 127
2, 21982, Control_c, 0, 64, 127
2, 22084, Note_on_c, 0, 62, 64
2, 22108, Note_off_c, 0, 63, 64
2, 22135, Control_c, 0, 64, 0
2, 22143, Note_on_c, 0, 60, 72
2, 22146, Note_on_c, 0, 63, 89
2, 22148, Control_c, 0, 64, 127
2, 22158, Note_on_c, 0, 51, 35
2, 22159, Note_on_c, 0, 44, 46
2, 22164, Note_off_c, 0, 62, 64
2, 22171, Control_c, 0, 64, 0
2, 22211, Control_c, 0, 64, 127
2, 22345, Control_c, 0, 64, 0
2, 22363, Note_off_c, 0, 60, 64
2, 22378, Note_off_c, 0, 51, 64
2, 22379, Note_off_c, 0, 44, 64
2, 22384, Control_c, 0, 64, 127
2, 22408, Note_on_c, 0, 68, 70
2, 22414, Note_on_c, 0, 41, 60
2, 22417, Note_on_c, 0, 60, 66
2, 22418, Note_on_c, 0, 50, 72
2, 22442, Note_off_c, 0, 63, 64
2, 22449, Control_c, 0, 64, 0
2, 22495, Control_c, 0, 64, 127
2, 22549, Control_c, 0, 64, 0
2, 22610, Control_c, 0, 64, 127
2, 22660, Note_on_c, 0, 67, 79
2, 22676, Note_off_c, 0, 41, 64
2, 22682, Control_c, 0, 64, 0
2, 22703, Note_off_c, 0, 68, 64
2, 22711, Note_off_c, 0, 50, 64
2, 22714, Control_c, 0, 64, 127
2, 22803, Control_c, 0, 64, 0
2, 22843, Control_c, 0, 64, 127
2, 22868, Note_on_c, 0, 50, 52
2, 22869, Note_on_c, 0, 43, 46
2, 22881, Control_c, 0, 64, 0
2, 22911, Control_c, 0, 64, 127
2, 22967, Note_on_c, 0, 59, 52
2, 22977, Note_off_c, 0, 60, 64
2, 23016, Note_off_c, 0, 67, 64
2, 23035, Note_off_c, 0, 50, 64
2, 23036, Note_off_c, 0, 43, 64
2, 23068, Note_off_c, 0, 59, 64
2, 23072, Note_on_c, 0, 62, 46
2, 23074, Note_on_c, 0, 55, 62
2, 23081, Control_c, 0, 64, 0
2, 23081, Note_on_c, 0, 50, 57
2, 23084, Note_on_c, 0, 43, 46
2, 23089, Control_c, 0, 64, 0
2, 23127, Control_c, 0, 64, 127
2, 23138, Control_c, 0, 64, 127
2, 23285, Note_on_c, 0, 60, 63
2, 23287, Note_on_c, 0, 67, 66
2, 23298, Note_off_c, 0, 62, 64
2, 23300, Note_off_c, 0, 55, 64
2, 23307, Note_off_c, 0, 50, 64
2, 23310, Note_off_c, 0, 43, 64
2, 23314, Control_c, 0, 64, 0
2, 23346, Control_c, 0, 64, 127
2, 23383, Note_on_c, 0, 59, 64
2, 23399, Note_off_c, 0, 60, 64
2, 23488, Note_on_c, 0, 43, 45
2, 23490, Note_on_c, 0, 50, 59
2, 23497, Note_on_c, 0, 57, 52
2, 23513, Control_c, 0, 64, 0
2, 23533, Note_off_c, 0, 59, 64
2, 23543, Note_off_c, 0, 43, 64
2, 23543, Control_c, 0, 64, 127
2, 23544, Note_off_c, 0, 50, 64
2, 23588, Note_on_c, 0, 59, 57
2, 23606, Note_off_c, 0, 57, 64
2, 23671, Note_on_c, 0, 62, 71
2, 23678, Note_on_c, 0, 55, 71
2, 23680, Note_off_c, 0, 59, 64
2, 23683, Note_off_c, 0, 67, 64
2, 23687, Note_on_c, 0, 43, 57
2, 23689, Note_on_c, 0, 50, 64
2, 23721, Control_c, 0, 64, 0
2, 23770, Control_c, 0, 64, 127
2, 23883, Note_off_c, 0, 50, 64
2, 23900, Note_off_c, 0, 43, 64
2, 23904, Note_on_c, 0, 69, 78
2, 23906, Note_on_c, 0, 67, 72
2, 23919, Note_off_c, 0, 62, 64
2, 23926, Note_off_c, 0, 55, 64
2, 23929, Control_c, 0, 64, 0
2, 23968, Control_c, 0, 64, 127
2, 23989, Note_on_c, 0, 66, 79
2, 24033, Note_off_c, 0, 67, 64
2, 24086, Note_on_c, 0, 64, 70
2, 24096, Note_on_c, 0, 43, 47
2, 24105, Control_c, 0, 64, 0
2, 24110, Note_on_c, 0, 57, 27
2, 24110, Note_on_c, 0, 50, 52
2, 24112, Note_off_c, 0, 66, 64
2, 24139, Note_off_c, 0, 69, 64
2, 24148, Control_c, 0, 64, 127
2, 24165, Note_on_c, 0, 66, 79
2, 24191, Note_off_c, 0, 64, 64
2, 24263, Note_off_c, 0, 43, 64
2, 24277, Note_off_c, 0, 50, 64
2, 24277, Note_off_c, 0, 57, 64
2, 24295, Note_on_c, 0, 57, 52
2, 24296, Note_on_c, 0, 43, 62
2, 24296, Note_on_c, 0, 74, 70
2, 24302, Note_on_c, 0, 62, 70
2, 24303, Note_on_c, 0, 50, 63
2, 24319, Note_off_c, 0, 66, 64
2, 24488, Note_off_c, 0, 74, 64
2, 24494, Note_off_c, 0, 62, 64
2, 24504, Note_on_c, 0, 74, 79
2, 24505, Note_on_c, 0, 72, 77
2, 24507, Control_c, 0, 64, 0
2, 24521, Note_off_c, 0, 50, 64
2, 24525, Note_off_c, 0, 43, 64
2, 24531, Note_off_c, 0, 57, 64
2, 24532, Control_c, 0, 64, 127
2, 24561, Control_c, 0, 64, 0
2, 24600, Control_c, 0, 64, 127
2, 24624, Note_on_c, 0, 71, 66
2, 24627, Note_off_c, 0, 74, 64
2, 24676, Note_on_c, 0, 74, 88
2, 24701, Note_off_c, 0, 71, 64
2, 24707, Note_off_c, 0, 72, 64
2, 24728, Note_off_c, 0, 74, 64
2, 24737, Control_c, 0, 64, 0
2, 24753, Note_on_c, 0, 69, 84
2, 24761, Note_on_c, 0, 74, 81
2, 24767, Note_on_c, 0, 59, 40
2, 24771, Note_on_c, 0, 50, 59
2, 24776, Note_on_c, 0, 43, 40
2, 24780, Control_c, 0, 64, 127
2, 24790, Control_c, 0, 64, 0
2, 24828, Control_c, 0, 64, 127
2, 24876, Note_on_c, 0, 71, 70
2, 24898, Note_off_c, 0, 69, 64
2, 24934, Note_off_c, 0, 59, 64
2, 24938, Note_off_c, 0, 50, 64
2, 24943, Note_off_c, 0, 43, 64
2, 24987, Note_on_c, 0, 59, 52
2, 24989, Note_on_c, 0, 79, 84
2, 24993, Note_on_c, 0, 43, 45
2, 24997, Note_on_c, 0, 67, 71
2, 24997, Note_on_c, 0, 50, 56
2, 25000, Note_off_c, 0, 74, 64
2, 25019, Control_c, 0, 64, 0
2, 25023, Note_off_c, 0, 71, 64
2, 25051, Control_c, 0, 64, 127
2, 25139, Control_c, 0, 64, 0
2, 25164, Control_c, 0, 64, 127
2, 25207, Note_off_c, 0, 79, 64
2, 25215, Note_off_c, 0, 67, 64
2, 25221, Note_on_c, 0, 67, 78
2, 25224, Note_on_c, 0, 65, 70
2, 25245, Note_off_c, 0, 59, 64
2, 25248, Control_c, 0, 64, 0
2, 25251, Note_off_c, 0, 43, 64
2, 25255, Note_off_c, 0, 50, 64
2, 25281, Control_c, 0, 64, 127
2, 25337, Note_on_c, 0, 64, 71
2, 25388, Note_off_c, 0, 65, 64
2, 25422, Control_c, 0, 64, 0
2, 25431, Note_on_c, 0, 62, 79
2, 25437, Note_on_c, 0, 58, 59
2, 25440, Note_on_c, 0, 48, 63
2, 25444, Note_on_c, 0, 43, 46
2, 25450, Note_off_c, 0, 64, 64
2, 25457, Control_c, 0, 64, 0
2, 25460, Control_c, 0, 64, 127
2, 25496, Control_c, 0, 64, 127
2, 25523, Note_on_c, 0, 64, 64
2, 25546, Note_off_c, 0, 62, 64
2, 25604, Note_off_c, 0, 58, 64
2, 25607, Note_off_c, 0, 48, 64
2, 25611, Note_off_c, 0, 43, 64
2, 25631, Note_on_c, 0, 58, 52
2, 25632, Note_on_c, 0, 60, 63
2, 25632, Note_on_c, 0, 43, 52
2, 25637, Note_on_c, 0, 72, 84
2, 25639, Note_on_c, 0, 48, 59
2, 25651, Control_c, 0, 64, 0
2, 25653, Note_off_c, 0, 67, 64
2, 25656, Note_off_c, 0, 64, 64
2, 25683, Control_c, 0, 64, 127
2, 25801, Note_off_c, 0, 60, 64
2, 25806, Note_off_c, 0, 72, 64
2, 25829, Note_off_c, 0, 58, 64
2, 25833, Control_c, 0, 64, 0
2, 25838, Note_on_c, 0, 72, 79
2, 25838, Note_on_c, 0, 70, 70
2, 25843, Note_off_c, 0, 43, 64
2, 25846, Note_off_c, 0, 48, 64
2, 25879, Control_c, 0, 64, 127
2, 25880, Control_c, 0, 64, 0
2, 25913, Control_c, 0, 64, 127
2, 25948, Note_on_c, 0, 68, 79
2, 25955, Note_off_c, 0, 72, 64
2, 25968, Note_off_c, 0, 70, 64
2, 26003, Note_on_c, 0, 72, 84
2, 26054, Note_off_c, 0, 72, 64
2, 26075, Note_on_c, 0, 67, 79
2, 26076, Note_on_c, 0, 72, 84
2, 26085, Note_on_c, 0, 41, 62
2, 26088, Note_on_c, 0, 56, 52
2, 26089, Control_c, 0, 64, 0
2, 26093, Note_on_c, 0, 48, 53
2, 26093, Control_c, 0, 64, 0
2, 26095, Note_off_c, 0, 68, 64
2, 26127, Control_c, 0, 64, 127
2, 26128, Control_c, 0, 64, 127
2, 26180, Note_on_c, 0, 68, 69
2, 26198, Note_off_c, 0, 72, 64
2, 26208, Note_off_c, 0, 67, 64
2, 26252, Note_off_c, 0, 41, 64
2, 26255, Note_off_c, 0, 56, 64
2, 26260, Note_off_c, 0, 48, 64
2, 26309, Note_on_c, 0, 77, 70
2, 26315, Note_on_c, 0, 56, 53
2, 26315, Note_on_c, 0, 41, 52
2, 26318, Note_on_c, 0, 65, 70
2, 26319, Note_off_c, 0, 68, 64
2, 26331, Note_on_c, 0, 48, 46
2, 26465, Control_c, 0, 64, 0
2, 26511, Control_c, 0, 64, 127
2, 26553, Note_off_c, 0, 77, 64
2, 26562, Note_off_c, 0, 65, 64
2, 26600, Note_on_c, 0, 65, 75
2, 26636, Note_off_c, 0, 48, 64
2, 26645, Note_off_c, 0, 56, 64
2, 26645, Control_c, 0, 64, 0
2, 26655, Note_off_c, 0, 41, 64
2, 26676, Control_c, 0, 64, 127
2, 26725, Control_c, 0, 64, 0
2, 26727, Note_on_c, 0, 63, 64
2, 26759, Control_c, 0, 64, 127
2, 26796, Note_off_c, 0, 65, 64
2, 26833, Note_on_c, 0, 56, 66
2, 26835, Note_on_c, 0, 61, 78
2, 26845, Note_on_c, 0, 41, 51
2, 26848, Note_on_c, 0, 48, 57
2, 26861, Note_off_c, 0, 63, 64
2, 26871, Control_c, 0, 64, 0
2, 26901, Control_c, 0, 64, 127
2, 27000, Note_off_c, 0, 56, 64
2, 27012, Note_off_c, 0, 41, 64
2, 27015, Note_off_c, 0, 48, 64
2, 27047, Note_on_c, 0, 56, 88
2, 27060, Note_off_c, 0, 61, 64
2, 27060, Note_on_c, 0, 48, 69
2, 27065, Note_on_c, 0, 41, 64
2, 27065, Control_c, 0, 64, 0
2, 27113, Control_c, 0, 64, 127
2, 27128, Note_on_c, 0, 58, 70
2, 27168, Note_off_c, 0, 56, 64
2, 27235, Note_on_c, 0, 60, 84
2, 27249, Note_off_c, 0, 58, 64
2, 27262, Note_off_c, 0, 48, 64
2, 27267, Note_off_c, 0, 41, 64
2, 27277, Control_c, 0, 64, 0
2, 27308, Control_c, 0, 64, 127
2, 27438, Note_on_c, 0, 55, 72
2, 27438, Control_c, 0, 64, 0
2, 27440, Note_on_c, 0, 48, 62
2, 27445, Note_on_c, 0, 52, 70
2, 27445, Note_on_c, 0, 36, 69
2, 27503, Control_c, 0, 64, 0
2, 27506, Control_c, 0, 64, 127
2, 27533, Control_c, 0, 64, 127
2, 27605, Note_off_c, 0, 55, 64
2, 27607, Note_off_c, 0, 48, 64
2, 27612, Note_off_c, 0, 36, 64
2, 27612, Note_off_c, 0, 52, 64
2, 27644, Note_off_c, 0, 60, 64
2, 27670, Note_on_c, 0, 55, 70
2, 27672, Note_on_c, 0, 60, 79
2, 27673, Note_on_c, 0, 52, 72
2, 27686, Note_on_c, 0, 48, 77
2, 27686, Note_on_c, 0, 36, 72
2, 27687, Control_c, 0, 64, 0
2, 27695, Control_c, 0, 64, 0
2, 27697, Control_c, 0, 64, 0
2, 27728, Control_c, 0, 64, 127
2, 27745, Control_c, 0, 64, 127
2, 27907, Note_on_c, 0, 65, 79
2, 27912, Note_off_c, 0, 60, 64
2, 27965, Note_off_c, 0, 36, 64
2, 27972, Note_off_c, 0, 55, 64
2, 27975, Note_off_c, 0, 52, 64
2, 27988, Note_off_c, 0, 48, 64
2, 28017, Note_on_c, 0, 63, 75
2, 28038, Note_off_c, 0, 65, 64
2, 28070, Control_c, 0, 64, 0
2, 28118, Note_on_c, 0, 61, 66
2, 28124, Note_on_c, 0, 53, 72
2, 28128, Note_off_c, 0, 63, 64
2, 28131, Note_on_c, 0, 37, 70
2, 28135, Note_on_c, 0, 44, 47
2, 28138, Control_c, 0, 64, 127
2, 28145, Control_c, 0, 64, 0
2, 28210, Control_c, 0, 64, 127
2, 28291, Note_off_c, 0, 53, 64
2, 28298, Note_off_c, 0, 37, 64
2, 28302, Note_off_c, 0, 44, 64
2, 28319, Control_c, 0, 64, 0
2, 28327, Control_c, 0, 64, 0
2, 28358, Note_on_c, 0, 56, 70
2, 28360, Control_c, 0, 64, 127
2, 28367, Note_on_c, 0, 37, 70
2, 28368, Note_on_c, 0, 53, 39
2, 28373, Note_on_c, 0, 44, 70
2, 28374, Note_off_c, 0, 61, 64
2, 28389, Control_c, 0, 64, 0
2, 28428, Control_c, 0, 64, 127
2, 28488, Note_on_c, 0, 58, 72
2, 28515, Note_off_c, 0, 56, 64
2, 28626, Control_c, 0, 64, 0
2, 28627, Note_off_c, 0, 37, 64
2, 28628, Note_off_c, 0, 53, 64
2, 28632, Note_on_c, 0, 60, 75
2, 28633, Note_off_c, 0, 44, 64
2, 28657, Note_off_c, 0, 58, 64
2, 28678, Control_c, 0, 64, 127
2, 28777, Control_c, 0, 64, 0
2, 28842, Control_c, 0, 64, 127
2, 28896, Note_on_c, 0, 56, 77
2, 28896, Note_on_c, 0, 32, 66
2, 28901, Note_on_c, 0, 51, 79
2, 28906, Note_on_c, 0, 44, 66
2, 28911, Control_c, 0, 64, 0
2, 28970, Control_c, 0, 64, 127
2, 29021, Control_c, 0, 64, 0
2, 29060, Control_c, 0, 64, 127
2, 29063, Note_off_c, 0, 32, 64
2, 29063, Note_off_c, 0, 56, 64
2, 29068, Note_off_c, 0, 51, 64
2, 29073, Note_off_c, 0, 44, 64
2, 29112, Note_off_c, 0, 60, 64
2, 29216, Note_on_c, 0, 32, 72
2, 29224, Note_on_c, 0, 60, 79
2, 29228, Note_on_c, 0, 51, 75
2, 29231, Note_on_c, 0, 44, 72
2, 29231, Note_on_c, 0, 56, 78
2, 29247, Control_c, 0, 64, 0
2, 29258, Control_c, 0, 64, 0
2, 29305, Control_c, 0, 64, 127
2, 29310, Control_c, 0, 64, 127
2, 29530, Note_off_c, 0, 32, 64
2, 29542, Note_off_c, 0, 51, 64
2, 29543, Control_c, 0, 64, 0
2, 29545, Note_off_c, 0, 56, 64
2, 29545, Note_off_c, 0, 44, 64
2, 29548, Note_off_c, 0, 60, 64
2, 29588, Note_on_c, 0, 60, 94
2, 29602, Control_c, 0, 64, 127
2, 29648, Note_on_c, 0, 40, 76
2, 29661, Note_on_c, 0, 73, 104
2, 29672, Control_c, 0, 64, 0
2, 29701, Note_off_c, 0, 60, 64
2, 29711, Control_c, 0, 64, 127
2, 29879, Control_c, 0, 64, 0
2, 29937, Control_c, 0, 64, 127
2, 29998, Note_off_c, 0, 73, 64
2, 30042, Note_on_c, 0, 58, 66
2, 30054, Note_on_c, 0, 60, 52
2, 30070, Note_on_c, 0, 67, 34
2, 30078, Note_on_c, 0, 73, 101
2, 30103, Control_c, 0, 64, 0
2, 30110, Control_c, 0, 64, 0
2, 30130, Control_c, 0, 64, 127
2, 30162, Control_c, 0, 64, 127
2, 30173, Note_off_c, 0, 58, 64
2, 30185, Note_off_c, 0, 60, 64
2, 30201, Note_off_c, 0, 67, 64
2, 30304, Control_c, 0, 64, 0
2, 30323, Note_on_c, 0, 58, 62
2, 30327, Note_on_c, 0, 67, 40
2, 30335, Note_on_c, 0, 60, 44
2, 30343, Control_c, 0, 64, 127
2, 30439, Control_c, 0, 64, 0
2, 30486, Note_off_c, 0, 40, 64
2, 30612, Note_off_c, 0, 58, 64
2, 30616, Note_off_c, 0, 67, 64
2, 30624, Note_off_c, 0, 60, 64
2, 30641, Note_on_c, 0, 41, 67
2, 30683, Control_c, 0, 64, 0
2, 30715, Control_c, 0, 64, 127
2, 30735, Control_c, 0, 64, 0
2, 30742, Control_c, 0, 64, 0
2, 30762, Control_c, 0, 64, 127
2, 30788, Note_on_c, 0, 72, 72
2, 30794, Control_c, 0, 64, 127
2, 30797, Note_off_c, 0, 73, 64
2, 30905, Note_on_c, 0, 56, 46
2, 30908, Note_on_c, 0, 70, 71
2, 30916, Note_on_c, 0, 65, 42
2, 30938, Note_off_c, 0, 72, 64
2, 30944, Control_c, 0, 64, 0
2, 30972, Control_c, 0, 64, 127
2, 30997, Note_on_c, 0, 68, 76
2, 31010, Note_off_c, 0, 70, 64
2, 31036, Note_off_c, 0, 56, 64
2, 31047, Note_off_c, 0, 65, 64
2, 31071, Control_c, 0, 64, 0
2, 31101, Note_on_c, 0, 56, 53
2, 31105, Note_on_c, 0, 60, 59
2, 31109, Note_on_c, 0, 67, 81
2, 31127, Note_off_c, 0, 68, 64
2, 31212, Note_on_c, 0, 65, 72
2, 31226, Note_off_c, 0, 56, 64
2, 31227, Note_off_c, 0, 67, 64
2, 31230, Note_off_c, 0, 60, 64
2, 31275, Note_off_c, 0, 41, 64
2, 31307, Note_on_c, 0, 48, 72
2, 31312, Note_on_c, 0, 67, 75
2, 31315, Control_c, 0, 64, 0
2, 31321, Control_c, 0, 64, 0
2, 31337, Note_off_c, 0, 65, 64
2, 31347, Control_c, 0, 64, 127
2, 31360, Control_c, 0, 64, 127
2, 31424, Note_on_c, 0, 60, 69
2, 31452, Note_off_c, 0, 67, 64
2, 31533, Note_on_c, 0, 72, 81
2, 31543, Note_on_c, 0, 58, 53
2, 31549, Note_off_c, 0, 60, 64
2, 31560, Note_on_c, 0, 64, 30
2, 31560, Control_c, 0, 64, 0
2, 31576, Control_c, 0, 64, 0
2, 31600, Control_c, 0, 64, 127
2, 31604, Control_c, 0, 64, 127
2, 31674, Note_off_c, 0, 58, 64
2, 31691, Note_off_c, 0, 64, 64
2, 31740, Note_on_c, 0, 64, 35
2, 31744, Note_off_c, 0, 48, 64
2, 31747, Note_on_c, 0, 60, 39
2, 31750, Note_on_c, 0, 58, 39
2, 31809, Note_off_c, 0, 64, 64
2, 31816, Note_off_c, 0, 60, 64
2, 31819, Note_off_c, 0, 58, 64
2, 31847, Note_on_c, 0, 67, 72
2, 31858, Note_off_c, 0, 72, 64
2, 31953, Control_c, 0, 64, 0
2, 31968, Note_on_c, 0, 68, 76
2, 31969, Note_on_c, 0, 41, 63
2, 31992, Control_c, 0, 64, 127
2, 31999, Note_off_c, 0, 67, 64
2, 31999, Control_c, 0, 64, 0
2, 32038, Control_c, 0, 64, 127
2, 32129, Note_on_c, 0, 72, 77
2, 32150, Note_off_c, 0, 68, 64
2, 32189, Note_on_c, 0, 56, 38
2, 32192, Control_c, 0, 64, 0
2, 32194, Note_on_c, 0, 77, 79
2, 32196, Note_on_c, 0, 65, 53
2, 32201, Note_on_c, 0, 60, 53
2, 32217, Note_off_c, 0, 72, 64
2, 32232, Control_c, 0, 64, 127
2, 32234, Control_c, 0, 64, 0
2, 32271, Control_c, 0, 64, 127
2, 32320, Note_off_c, 0, 56, 64
2, 32327, Note_off_c, 0, 65, 64
2, 32332, Note_off_c, 0, 60, 64
2, 32406, Note_off_c, 0, 41, 64
2, 32415, Note_on_c, 0, 61, 51
2, 32415, Note_on_c, 0, 56, 56
2, 32421, Note_on_c, 0, 65, 38
2, 32484, Note_off_c, 0, 56, 64
2, 32484, Note_off_c, 0, 61, 64
2, 32490, Note_off_c, 0, 65, 64
2, 32631, Control_c, 0, 64, 0
2, 32662, Note_on_c, 0, 43, 81
2, 32670, Control_c, 0, 64, 127
2, 32693, Control_c, 0, 64, 0
2, 32739, Control_c, 0, 64, 127
2, 32821, Note_off_c, 0, 77, 64
2, 32866, Control_c, 0, 64, 0
2, 32903, Control_c, 0, 64, 127
2, 32950, Note_on_c, 0, 51, 59
2, 32954, Note_on_c, 0, 61, 50
2, 32961, Note_on_c, 0, 58, 44
2, 32990, Note_on_c, 0, 77, 94
2, 33020, Control_c, 0, 64, 0
2, 33042, Control_c, 0, 64, 127
2, 33081, Note_off_c, 0, 51, 64
2, 33085, Note_off_c, 0, 61, 64
2, 33092, Note_off_c, 0, 58, 64
2, 33288, Note_on_c, 0, 51, 37
2, 33296, Note_on_c, 0, 58, 31
2, 33300, Note_on_c, 0, 61, 28
2, 33325, Control_c, 0, 64, 0
2, 33328, Note_off_c, 0, 77, 64
2, 33371, Control_c, 0, 64, 127
2, 33413, Note_off_c, 0, 51, 64
2, 33421, Note_off_c, 0, 58, 64
2, 33425, Note_off_c, 0, 61, 64
2, 33428, Note_on_c, 0, 77, 84
2, 33457, Note_off_c, 0, 43, 64
2, 33566, Note_on_c, 0, 44, 71
2, 33598, Control_c, 0, 64, 0
2, 33647, Control_c, 0, 64, 127
2, 33652, Control_c, 0, 64, 0
2, 33674, Control_c, 0, 64, 127
2, 33677, Note_on_c, 0, 75, 56
2, 33746, Note_off_c, 0, 77, 64
2, 33791, Note_on_c, 0, 51, 63
2, 33791, Note_on_c, 0, 73, 79
2, 33798, Note_on_c, 0, 60, 50
2, 33813, Control_c, 0, 64, 0
2, 33821, Note_off_c, 0, 75, 64
2, 33824, Control_c, 0, 64, 127
2, 33888, Note_on_c, 0, 72, 79
2, 33917, Note_off_c, 0, 73, 64
2, 33986, Note_off_c, 0, 51, 64
2, 33986, Note_on_c, 0, 70, 59
2, 34018, Note_off_c, 0, 60, 64
2, 34027, Note_off_c, 0, 72, 64
2, 34086, Note_on_c, 0, 68, 57
2, 34110, Note_off_c, 0, 70, 64
2, 34155, Note_off_c, 0, 44, 64
2, 34194, Note_on_c, 0, 67, 46
2, 34198, Note_on_c, 0, 46, 59
2, 34221, Control_c, 0, 64, 0
2, 34224, Note_off_c, 0, 68, 64
2, 34230, Control_c, 0, 64, 0
2, 34259, Control_c, 0, 64, 127
2, 34279, Control_c, 0, 64, 127
2, 34292, Note_on_c, 0, 66, 62
2, 34322, Note_off_c, 0, 67, 64
2, 34401, Note_on_c, 0, 70, 60
2, 34408, Note_on_c, 0, 61, 56
2, 34408, Note_on_c, 0, 54, 27
2, 34421, Note_off_c, 0, 66, 64
2, 34445, Control_c, 0, 64, 0
2, 34456, Control_c, 0, 64, 127
2, 34461, Control_c, 0, 64, 0
2, 34492, Control_c, 0, 64, 127
2, 34516, Note_on_c, 0, 65, 69
2, 34539, Note_off_c, 0, 54, 64
2, 34539, Note_off_c, 0, 61, 64
2, 34555, Note_off_c, 0, 70, 64
2, 34640, Note_on_c, 0, 61, 36
2, 34644, Note_on_c, 0, 58, 53
2, 34652, Note_on_c, 0, 68, 61
2, 34692, Control_c, 0, 64, 0
2, 34698, Note_off_c, 0, 65, 64
2, 34715, Control_c, 0, 64, 127
2, 34781, Note_on_c, 0, 66, 55
2, 34787, Note_off_c, 0, 46, 64
2, 34810, Note_off_c, 0, 68, 64
2, 34816, Note_off_c, 0, 61, 64
2, 34820, Note_off_c, 0, 58, 64
2, 34853, Control_c, 0, 64, 0
2, 34891, Control_c, 0, 64, 127
2, 34917, Note_on_c, 0, 65, 62
2, 34928, Note_on_c, 0, 48, 50
2, 34945, Note_off_c, 0, 66, 64
2, 34970, Control_c, 0, 64, 0
2, 35009, Control_c, 0, 64, 127
2, 35069, Note_on_c, 0, 64, 50
2, 35087, Note_off_c, 0, 65, 64
2, 35093, Control_c, 0, 64, 0
2, 35124, Control_c, 0, 64, 127
2, 35241, Note_off_c, 0, 64, 64
2, 35242, Note_on_c, 0, 60, 54
2, 35248, Note_on_c, 0, 64, 40
2, 35248, Note_on_c, 0, 55, 46
2, 35288, Control_c, 0, 64, 0
2, 35310, Control_c, 0, 64, 127
2, 35324, Control_c, 0, 64, 0
2, 35347, Control_c, 0, 64, 127
2, 35379, Note_off_c, 0, 55, 64
2, 35379, Note_off_c, 0, 64, 64
2, 35517, Note_on_c, 0, 64, 40
2, 35520, Note_on_c, 0, 55, 39
2, 35602, Control_c, 0, 64, 0
2, 35641, Control_c, 0, 64, 127
2, 35685, Note_off_c, 0, 64, 64
2, 35688, Note_off_c, 0, 55, 64
2, 35721, Note_off_c, 0, 60, 64
2, 35787, Note_off_c, 0, 48, 64
2, 35809, Note_on_c, 0, 60, 88
2, 35892, Note_on_c, 0, 36, 71
2, 35920, Control_c, 0, 64, 0
2, 35920, Note_on_c, 0, 73, 78
2, 35925, Control_c, 0, 64, 0
2, 35942, Control_c, 0, 64, 127
2, 35962, Note_off_c, 0, 60, 64
2, 35975, Control_c, 0, 64, 127
2, 36252, Note_off_c, 0, 73, 64
2, 36276, Note_on_c, 0, 58, 34
2, 36279, Note_on_c, 0, 64, 40
2, 36332, Note_on_c, 0, 73, 94
2, 36378, Control_c, 0, 64, 0
2, 36407, Note_off_c, 0, 58, 64
2, 36407, Control_c, 0, 64, 127
2, 36410, Note_off_c, 0, 64, 64
2, 36557, Control_c, 0, 64, 0
2, 36580, Note_on_c, 0, 58, 44
2, 36587, Note_on_c, 0, 64, 45
2, 36607, Control_c, 0, 64, 127
2, 36687, Note_off_c, 0, 36, 64
2, 36742, Control_c, 0, 64, 0
2, 36806, Note_off_c, 0, 58, 64
2, 36810, Note_on_c, 0, 48, 52
2, 36813, Note_off_c, 0, 64, 64
2, 36875, Note_off_c, 0, 73, 64
2, 36914, Note_on_c, 0, 72, 70
2, 36972, Note_on_c, 0, 70, 69
2, 36992, Note_off_c, 0, 72, 64
2, 37000, Note_on_c, 0, 72, 75
2, 37010, Control_c, 0, 64, 0
2, 37019, Note_off_c, 0, 70, 64
2, 37022, Note_on_c, 0, 56, 28
2, 37028, Note_on_c, 0, 70, 94
2, 37028, Note_on_c, 0, 60, 40
2, 37035, Note_on_c, 0, 65, 40
2, 37039, Control_c, 0, 64, 127
2, 37050, Note_off_c, 0, 72, 64
2, 37050, Note_off_c, 0, 48, 64
2, 37058, Control_c, 0, 64, 0
2, 37080, Control_c, 0, 64, 127
2, 37117, Note_on_c, 0, 68, 79
2, 37128, Note_off_c, 0, 70, 64
2, 37153, Note_off_c, 0, 56, 64
2, 37159, Note_off_c, 0, 60, 64
2, 37166, Note_off_c, 0, 65, 64
2, 37216, Note_on_c, 0, 60, 47
2, 37222, Note_on_c, 0, 56, 27
2, 37224, Note_on_c, 0, 67, 66
2, 37247, Note_off_c, 0, 68, 64
2, 37285, Note_off_c, 0, 60, 64
2, 37291, Note_off_c, 0, 56, 64
2, 37321, Note_on_c, 0, 65, 69
2, 37342, Note_off_c, 0, 67, 64
2, 37374, Control_c, 0, 64, 0
2, 37428, Note_on_c, 0, 36, 66
2, 37431, Note_on_c, 0, 67, 82
2, 37447, Note_off_c, 0, 65, 64
2, 37452, Control_c, 0, 64, 0
2, 37503, Control_c, 0, 64, 127
2, 37555, Note_on_c, 0, 60, 77
2, 37594, Note_off_c, 0, 67, 64
2, 37668, Note_off_c, 0, 36, 64
2, 37668, Note_on_c, 0, 58, 60
2, 37677, Note_on_c, 0, 64, 51
2, 37677, Note_on_c, 0, 72, 85
2, 37683, Note_off_c, 0, 60, 64
2, 37690, Control_c, 0, 64, 0
2, 37712, Control_c, 0, 64, 127
2, 37722, Control_c, 0, 64, 0
2, 37753, Control_c, 0, 64, 127
2, 37799, Note_off_c, 0, 58, 64
2, 37808, Note_off_c, 0, 64, 64
2, 37949, Note_on_c, 0, 58, 36
2, 37955, Note_on_c, 0, 64, 32
2, 38018, Note_off_c, 0, 58, 64
2, 38024, Note_off_c, 0, 64, 64
2, 38062, Note_off_c, 0, 72, 64
2, 38084, Control_c, 0, 64, 0
2, 38099, Note_on_c, 0, 67, 72
2, 38135, Control_c, 0, 64, 127
2, 38263, Note_on_c, 0, 41, 52
2, 38278, Note_on_c, 0, 69, 72
2, 38306, Control_c, 0, 64, 0
2, 38312, Note_off_c, 0, 67, 64
2, 38345, Control_c, 0, 64, 127
2, 38354, Control_c, 0, 64, 0
2, 38385, Control_c, 0, 64, 127
2, 38440, Note_on_c, 0, 72, 68
2, 38471, Note_off_c, 0, 69, 64
2, 38503, Note_off_c, 0, 41, 64
2, 38587, Note_on_c, 0, 53, 46
2, 38593, Note_on_c, 0, 77, 77
2, 38594, Note_on_c, 0, 63, 40
2, 38604, Note_off_c, 0, 72, 64
2, 38619, Control_c, 0, 64, 0
2, 38649, Control_c, 0, 64, 127
2, 38718, Note_off_c, 0, 53, 64
2, 38725, Note_off_c, 0, 63, 64
2, 38829, Note_on_c, 0, 53, 33
2, 38833, Note_on_c, 0, 63, 28
2, 38836, Note_on_c, 0, 57, 37
2, 38898, Note_off_c, 0, 53, 64
2, 38902, Note_off_c, 0, 63, 64
2, 38905, Note_off_c, 0, 57, 64
2, 38938, Control_c, 0, 64, 0
2, 38966, Note_on_c, 0, 76, 70
2, 38977, Control_c, 0, 64, 127
2, 38980, Note_off_c, 0, 77, 64
2, 39094, Note_on_c, 0, 46, 57
2, 39108, Note_on_c, 0, 75, 52
2, 39117, Control_c, 0, 64, 0
2, 39134, Note_off_c, 0, 76, 64
2, 39147, Control_c, 0, 64, 127
2, 39234, Note_on_c, 0, 74, 52
2, 39251, Control_c, 0, 64, 0
2, 39258, Note_off_c, 0, 75, 64
2, 39281, Control_c, 0, 64, 127
2, 39334, Note_off_c, 0, 46, 64
2, 39362, Note_on_c, 0, 53, 45
2, 39371, Note_on_c, 0, 73, 59
2, 39373, Note_on_c, 0, 55, 27
2, 39378, Note_on_c, 0, 65, 27
2, 39381, Note_on_c, 0, 61, 26
2, 39385, Note_off_c, 0, 74, 64
2, 39417, Control_c, 0, 64, 0
2, 39463, Control_c, 0, 64, 127
2, 39515, Note_on_c, 0, 69, 46
2, 39545, Note_off_c, 0, 73, 64
2, 39575, Note_off_c, 0, 65, 64
2, 39582, Note_off_c, 0, 61, 64
2, 39591, Note_off_c, 0, 55, 64
2, 39594, Note_off_c, 0, 53, 64
2, 39623, Note_on_c, 0, 70, 51
2, 39651, Note_off_c, 0, 69, 64
2, 39720, Note_on_c, 0, 71, 47
2, 39740, Note_off_c, 0, 70, 64
2, 39749, Control_c, 0, 64, 0
2, 39779, Control_c, 0, 64, 127
2, 39831, Note_on_c, 0, 48, 51
2, 39837, Note_on_c, 0, 73, 62
2, 39850, Note_off_c, 0, 71, 64
2, 39850, Control_c, 0, 64, 0
2, 39883, Control_c, 0, 64, 127
2, 39981, Note_on_c, 0, 75, 52
2, 39993, Note_off_c, 0, 73, 64
2, 40036, Note_on_c, 0, 73, 60
2, 40049, Control_c, 0, 64, 0
2, 40055, Note_off_c, 0, 75, 64
2, 40068, Note_on_c, 0, 56, 31
2, 40069, Note_on_c, 0, 60, 45
2, 40071, Note_off_c, 0, 48, 64
2, 40075, Note_on_c, 0, 72, 57
2, 40085, Note_on_c, 0, 65, 27
2, 40095, Note_off_c, 0, 73, 64
2, 40095, Control_c, 0, 64, 127
2, 40127, Control_c, 0, 64, 0
2, 40164, Control_c, 0, 64, 127
2, 40224, Note_on_c, 0, 67, 63
2, 40256, Note_off_c, 0, 72, 64
2, 40286, Note_off_c, 0, 65, 64
2, 40299, Note_off_c, 0, 60, 64
2, 40321, Note_off_c, 0, 56, 64
2, 40361, Note_on_c, 0, 68, 62
2, 40390, Note_off_c, 0, 67, 64
2, 40482, Control_c, 0, 64, 0
2, 40504, Note_on_c, 0, 71, 57
2, 40515, Control_c, 0, 64, 127
2, 40530, Note_off_c, 0, 68, 64
2, 40655, Note_on_c, 0, 36, 62
2, 40680, Note_on_c, 0, 73, 69
2, 40703, Note_off_c, 0, 71, 64
2, 40703, Control_c, 0, 64, 0
2, 40749, Control_c, 0, 64, 127
2, 40759, Control_c, 0, 64, 0
2, 40796, Control_c, 0, 64, 127
2, 40874, Note_on_c, 0, 72, 39
2, 40895, Note_off_c, 0, 73, 64
2, 40895, Note_off_c, 0, 36, 64
2, 41006, Note_on_c, 0, 55, 31
2, 41014, Note_on_c, 0, 71, 53
2, 41014, Note_on_c, 0, 64, 26
2, 41025, Note_off_c, 0, 72, 64
2, 41155, Note_off_c, 0, 55, 64
2, 41158, Note_on_c, 0, 66, 47
2, 41163, Note_off_c, 0, 71, 64
2, 41171, Note_off_c, 0, 64, 64
2, 41330, Note_on_c, 0, 67, 56
2, 41335, Control_c, 0, 64, 0
2, 41336, Note_on_c, 0, 58, 27
2, 41339, Note_on_c, 0, 60, 27
2, 41351, Note_on_c, 0, 64, 25
2, 41353, Note_off_c, 0, 66, 64
2, 41381, Control_c, 0, 64, 127
2, 41387, Control_c, 0, 64, 0
2, 41415, Control_c, 0, 64, 127
2, 41489, Note_off_c, 0, 64, 64
2, 41490, Note_off_c, 0, 60, 64
2, 41505, Note_off_c, 0, 58, 64
2, 41523, Note_on_c, 0, 70, 52
2, 41542, Note_off_c, 0, 67, 64
2, 41768, Note_on_c, 0, 41, 44
2, 41768, Note_on_c, 0, 69, 44
2, 41813, Note_off_c, 0, 70, 64
2, 41850, Control_c, 0, 64, 0
2, 41898, Control_c, 0, 64, 127
2, 41980, Note_on_c, 0, 68, 47
2, 42012, Note_off_c, 0, 69, 64
2, 42019, Control_c, 0, 64, 0
2, 42047, Control_c, 0, 64, 127
2, 42239, Note_on_c, 0, 65, 27
2, 42245, Note_on_c, 0, 56, 31
2, 42251, Note_on_c, 0, 48, 34
2, 42261, Note_off_c, 0, 68, 64
2, 42350, Control_c, 0, 64, 0
2, 42482, Control_c, 0, 64, 0
2, 42530, Control_c, 0, 64, 127
2, 42564, Control_c, 0, 64, 127
2, 42982, Control_c, 0, 64, 0
2, 43196, Control_c, 0, 64, 127
2, 43336, Control_c, 0, 64, 0
2, 43515, Note_off_c, 0, 48, 64
2, 43536, Note_off_c, 0, 41, 64
2, 43544, Note_off_c, 0, 56, 64
2, 43567, Note_off_c, 0, 65, 64
2, 43968, Control_c, 0, 64, 0
2, 43968, End_track
3, 0, Start_track
3, 0, Title_t, "Played by Dr. Ron Lubetsky"
3, 0, End_track
4, 0, Start_track
4, 0, Title_t, "March 1, 1998"
4, 0, End_track
5, 0, Start_track
5, 0, Title_t, "email: acuity2020@aol.com"
5, 0, End_track
6, 0, Start_track
6, 0, Title_t, "Copyright  1998"
6, 0, End_track
7, 0, Start_track
7, 0, Title_t, "All Rights Reserved"
7, 0, End_track
0, 0, End_of_file
