0, 0, Header, 1, 7, 240
1, 0, Start_track
1, 0, Time_signature, 4, 2, 24, 8
1, 0, Tempo, 500000
1, 0, Marker_t, "Chopin: Mazurka, Op. 68 No. 2 (posth.)- Lento"
1, 0, End_track
2, 0, Start_track
2, 0, Title_t, "Chopin: Op. 68 No. 2 (posth.)"
2, 0, Program_c, 0, 0
2, 0, Control_c, 0, 7, 127
2, 85, Note_on_c, 0, 64, 54
2, 92, Control_c, 0, 64, 127
2, 128, Note_on_c, 0, 69, 62
2, 157, Note_off_c, 0, 64, 64
2, 294, Note_on_c, 0, 72, 64
2, 318, Note_off_c, 0, 69, 64
2, 335, Note_on_c, 0, 64, 74
2, 378, Note_on_c, 0, 33, 63
2, 384, Note_off_c, 0, 72, 64
2, 384, Note_on_c, 0, 76, 72
2, 392, Control_c, 0, 64, 0
2, 402, Note_off_c, 0, 64, 64
2, 435, Control_c, 0, 64, 127
2, 460, Note_off_c, 0, 76, 64
2, 606, Note_on_c, 0, 76, 60
2, 651, Note_on_c, 0, 52, 49
2, 652, Note_on_c, 0, 72, 79
2, 656, Note_on_c, 0, 60, 44
2, 664, Control_c, 0, 64, 0
2, 667, Note_off_c, 0, 76, 64
2, 687, Control_c, 0, 64, 127
2, 736, Note_off_c, 0, 52, 64
2, 747, Note_off_c, 0, 60, 64
2, 789, Note_off_c, 0, 72, 64
2, 908, Note_on_c, 0, 52, 49
2, 914, Note_on_c, 0, 59, 39
2, 926, Note_on_c, 0, 75, 50
2, 949, Note_on_c, 0, 76, 57
2, 957, Note_off_c, 0, 75, 64
2, 991, Note_on_c, 0, 75, 63
2, 996, Note_off_c, 0, 76, 64
2, 1019, Note_on_c, 0, 76, 60
2, 1027, Note_off_c, 0, 75, 64
2, 1040, Note_off_c, 0, 52, 64
2, 1059, Note_on_c, 0, 75, 63
2, 1075, Note_off_c, 0, 76, 64
2, 1095, Note_on_c, 0, 74, 62
2, 1096, Note_off_c, 0, 33, 64
2, 1112, Note_off_c, 0, 75, 64
2, 1129, Note_on_c, 0, 75, 55
2, 1137, Note_off_c, 0, 74, 64
2, 1163, Note_on_c, 0, 76, 68
2, 1172, Note_off_c, 0, 59, 64
2, 1174, Note_off_c, 0, 75, 64
2, 1175, Control_c, 0, 64, 0
2, 1180, Note_on_c, 0, 45, 64
2, 1189, Control_c, 0, 64, 0
2, 1225, Control_c, 0, 64, 127
2, 1233, Note_off_c, 0, 76, 64
2, 1355, Note_on_c, 0, 76, 64
2, 1398, Note_on_c, 0, 69, 74
2, 1414, Note_off_c, 0, 76, 64
2, 1415, Note_on_c, 0, 52, 62
2, 1418, Note_on_c, 0, 60, 53
2, 1424, Control_c, 0, 64, 0
2, 1446, Control_c, 0, 64, 127
2, 1466, Note_off_c, 0, 45, 64
2, 1473, Note_off_c, 0, 52, 64
2, 1483, Note_off_c, 0, 60, 64
2, 1633, Note_on_c, 0, 72, 74
2, 1635, Note_off_c, 0, 69, 64
2, 1641, Note_on_c, 0, 60, 49
2, 1643, Note_on_c, 0, 52, 53
2, 1650, Control_c, 0, 64, 0
2, 1682, Control_c, 0, 64, 127
2, 1850, Control_c, 0, 64, 0
2, 1855, Note_on_c, 0, 71, 68
2, 1859, Note_on_c, 0, 45, 63
2, 1866, Note_off_c, 0, 52, 64
2, 1885, Control_c, 0, 64, 127
2, 1892, Note_off_c, 0, 72, 64
2, 1905, Note_off_c, 0, 60, 64
2, 1942, Note_off_c, 0, 71, 64
2, 2026, Note_off_c, 0, 45, 64
2, 2048, Note_on_c, 0, 71, 68
2, 2073, Control_c, 0, 64, 0
2, 2081, Note_on_c, 0, 66, 81
2, 2094, Note_on_c, 0, 62, 35
2, 2094, Note_on_c, 0, 52, 59
2, 2104, Note_off_c, 0, 71, 64
2, 2117, Control_c, 0, 64, 127
2, 2171, Note_off_c, 0, 52, 64
2, 2222, Note_off_c, 0, 62, 64
2, 2223, Note_off_c, 0, 66, 64
2, 2316, Note_on_c, 0, 69, 49
2, 2323, Note_on_c, 0, 62, 44
2, 2323, Note_on_c, 0, 52, 55
2, 2353, Note_on_c, 0, 68, 67
2, 2356, Note_off_c, 0, 69, 64
2, 2386, Note_off_c, 0, 68, 64
2, 2392, Note_on_c, 0, 69, 68
2, 2418, Note_off_c, 0, 62, 64
2, 2420, Note_off_c, 0, 52, 64
2, 2426, Note_on_c, 0, 68, 79
2, 2434, Note_off_c, 0, 69, 64
2, 2459, Note_off_c, 0, 68, 64
2, 2467, Note_on_c, 0, 69, 54
2, 2485, Note_on_c, 0, 68, 68
2, 2490, Note_off_c, 0, 69, 64
2, 2503, Note_on_c, 0, 66, 67
2, 2520, Note_off_c, 0, 68, 64
2, 2536, Note_on_c, 0, 68, 72
2, 2553, Note_off_c, 0, 66, 64
2, 2579, Note_on_c, 0, 69, 72
2, 2588, Note_off_c, 0, 68, 64
2, 2593, Note_on_c, 0, 45, 60
2, 2612, Control_c, 0, 64, 0
2, 2655, Control_c, 0, 64, 127
2, 2675, Note_off_c, 0, 69, 64
2, 2776, Note_on_c, 0, 64, 40
2, 2819, Note_on_c, 0, 69, 77
2, 2821, Note_on_c, 0, 52, 60
2, 2824, Note_on_c, 0, 60, 54
2, 2840, Control_c, 0, 64, 0
2, 2845, Note_off_c, 0, 64, 64
2, 2870, Note_off_c, 0, 45, 64
2, 2877, Control_c, 0, 64, 127
2, 2896, Note_off_c, 0, 52, 64
2, 2910, Note_off_c, 0, 60, 64
2, 2984, Note_off_c, 0, 69, 64
2, 3005, Note_on_c, 0, 64, 68
2, 3041, Control_c, 0, 64, 0
2, 3048, Note_on_c, 0, 60, 49
2, 3048, Note_on_c, 0, 52, 62
2, 3052, Note_on_c, 0, 69, 84
2, 3066, Note_off_c, 0, 64, 64
2, 3080, Control_c, 0, 64, 127
2, 3215, Note_on_c, 0, 72, 67
2, 3252, Note_off_c, 0, 69, 64
2, 3266, Note_on_c, 0, 76, 78
2, 3267, Note_on_c, 0, 45, 67
2, 3280, Note_off_c, 0, 52, 64
2, 3282, Note_off_c, 0, 60, 64
2, 3284, Note_off_c, 0, 72, 64
2, 3284, Control_c, 0, 64, 0
2, 3299, Control_c, 0, 64, 127
2, 3329, Note_off_c, 0, 76, 64
2, 3454, Note_on_c, 0, 76, 49
2, 3489, Note_on_c, 0, 72, 64
2, 3495, Note_on_c, 0, 60, 57
2, 3499, Note_off_c, 0, 45, 64
2, 3499, Note_on_c, 0, 52, 54
2, 3503, Note_off_c, 0, 76, 64
2, 3515, Control_c, 0, 64, 0
2, 3536, Control_c, 0, 64, 127
2, 3583, Note_off_c, 0, 60, 64
2, 3584, Note_off_c, 0, 52, 64
2, 3629, Note_off_c, 0, 72, 64
2, 3731, Note_on_c, 0, 59, 44
2, 3741, Note_on_c, 0, 52, 55
2, 3742, Note_on_c, 0, 75, 50
2, 3765, Note_on_c, 0, 76, 57
2, 3773, Note_off_c, 0, 75, 64
2, 3807, Note_on_c, 0, 75, 63
2, 3812, Note_off_c, 0, 76, 64
2, 3835, Note_off_c, 0, 52, 64
2, 3835, Note_on_c, 0, 76, 60
2, 3843, Note_off_c, 0, 75, 64
2, 3875, Note_on_c, 0, 75, 63
2, 3891, Note_off_c, 0, 76, 64
2, 3911, Note_on_c, 0, 74, 62
2, 3928, Note_off_c, 0, 75, 64
2, 3945, Note_on_c, 0, 75, 55
2, 3953, Note_off_c, 0, 74, 64
2, 3953, Note_off_c, 0, 59, 64
2, 3979, Note_on_c, 0, 76, 68
2, 3980, Note_on_c, 0, 45, 60
2, 3990, Note_off_c, 0, 75, 64
2, 3991, Control_c, 0, 64, 0
2, 3993, Control_c, 0, 64, 0
2, 4032, Control_c, 0, 64, 127
2, 4049, Note_off_c, 0, 76, 64
2, 4151, Note_on_c, 0, 76, 63
2, 4190, Note_on_c, 0, 69, 73
2, 4203, Note_off_c, 0, 76, 64
2, 4215, Note_on_c, 0, 60, 40
2, 4220, Note_on_c, 0, 52, 44
2, 4223, Control_c, 0, 64, 0
2, 4241, Note_off_c, 0, 45, 64
2, 4258, Control_c, 0, 64, 127
2, 4267, Note_off_c, 0, 52, 64
2, 4272, Note_off_c, 0, 60, 64
2, 4411, Note_on_c, 0, 72, 72
2, 4415, Note_off_c, 0, 69, 64
2, 4416, Note_on_c, 0, 60, 49
2, 4419, Note_on_c, 0, 52, 55
2, 4434, Control_c, 0, 64, 0
2, 4457, Control_c, 0, 64, 127
2, 4629, Note_on_c, 0, 71, 68
2, 4631, Note_on_c, 0, 45, 63
2, 4640, Note_off_c, 0, 52, 64
2, 4644, Control_c, 0, 64, 0
2, 4667, Note_off_c, 0, 72, 64
2, 4683, Note_off_c, 0, 60, 64
2, 4688, Control_c, 0, 64, 127
2, 4713, Note_off_c, 0, 71, 64
2, 4755, Note_off_c, 0, 45, 64
2, 4812, Note_on_c, 0, 71, 59
2, 4850, Note_on_c, 0, 52, 60
2, 4856, Note_on_c, 0, 62, 39
2, 4861, Note_on_c, 0, 66, 86
2, 4864, Control_c, 0, 64, 0
2, 4872, Note_off_c, 0, 71, 64
2, 4892, Control_c, 0, 64, 127
2, 4938, Note_off_c, 0, 52, 64
2, 4976, Note_off_c, 0, 62, 64
2, 5076, Note_on_c, 0, 62, 39
2, 5079, Note_on_c, 0, 52, 44
2, 5083, Note_off_c, 0, 66, 64
2, 5096, Note_on_c, 0, 69, 63
2, 5126, Note_on_c, 0, 68, 74
2, 5135, Note_off_c, 0, 69, 64
2, 5158, Note_on_c, 0, 69, 79
2, 5164, Note_off_c, 0, 68, 64
2, 5197, Note_off_c, 0, 69, 64
2, 5198, Note_on_c, 0, 68, 74
2, 5203, Note_off_c, 0, 52, 64
2, 5205, Note_off_c, 0, 62, 64
2, 5224, Note_on_c, 0, 69, 68
2, 5236, Note_off_c, 0, 68, 64
2, 5254, Note_on_c, 0, 68, 74
2, 5259, Note_off_c, 0, 69, 64
2, 5286, Note_on_c, 0, 66, 67
2, 5295, Note_off_c, 0, 68, 64
2, 5327, Note_on_c, 0, 68, 74
2, 5332, Note_off_c, 0, 66, 64
2, 5375, Note_off_c, 0, 68, 64
2, 5394, Note_on_c, 0, 69, 74
2, 5444, Note_on_c, 0, 45, 44
2, 5492, Note_on_c, 0, 81, 68
2, 5521, Control_c, 0, 64, 0
2, 5552, Control_c, 0, 64, 127
2, 5764, Control_c, 0, 64, 0
2, 5773, Note_on_c, 0, 60, 38
2, 5774, Note_on_c, 0, 52, 48
2, 5780, Note_off_c, 0, 81, 64
2, 5796, Control_c, 0, 64, 127
2, 5820, Note_off_c, 0, 69, 64
2, 5954, Note_on_c, 0, 64, 50
2, 6019, Note_on_c, 0, 69, 50
2, 6026, Control_c, 0, 64, 0
2, 6048, Control_c, 0, 64, 127
2, 6058, Note_off_c, 0, 45, 64
2, 6071, Note_off_c, 0, 52, 64
2, 6078, Note_off_c, 0, 64, 64
2, 6080, Note_off_c, 0, 60, 64
2, 6210, Note_on_c, 0, 72, 67
2, 6218, Note_off_c, 0, 69, 64
2, 6260, Note_on_c, 0, 64, 73
2, 6284, Note_off_c, 0, 72, 64
2, 6303, Note_on_c, 0, 76, 67
2, 6308, Note_on_c, 0, 33, 73
2, 6319, Control_c, 0, 64, 0
2, 6346, Control_c, 0, 64, 127
2, 6353, Note_off_c, 0, 64, 64
2, 6392, Note_off_c, 0, 76, 64
2, 6503, Note_on_c, 0, 76, 49
2, 6548, Note_on_c, 0, 72, 82
2, 6554, Note_on_c, 0, 60, 37
2, 6555, Note_on_c, 0, 52, 50
2, 6563, Note_off_c, 0, 76, 64
2, 6592, Note_off_c, 0, 33, 64
2, 6617, Note_off_c, 0, 52, 64
2, 6622, Note_off_c, 0, 60, 64
2, 6716, Note_off_c, 0, 72, 64
2, 6775, Note_on_c, 0, 52, 56
2, 6776, Note_on_c, 0, 59, 56
2, 6790, Note_on_c, 0, 75, 57
2, 6813, Note_on_c, 0, 76, 65
2, 6821, Note_off_c, 0, 75, 64
2, 6855, Note_on_c, 0, 75, 72
2, 6860, Note_off_c, 0, 76, 64
2, 6883, Note_on_c, 0, 76, 69
2, 6891, Note_off_c, 0, 75, 64
2, 6923, Note_on_c, 0, 75, 72
2, 6939, Note_off_c, 0, 76, 64
2, 6959, Note_on_c, 0, 74, 71
2, 6976, Note_off_c, 0, 75, 64
2, 6993, Note_on_c, 0, 75, 63
2, 7001, Note_off_c, 0, 74, 64
2, 7014, Note_off_c, 0, 52, 64
2, 7018, Note_on_c, 0, 45, 63
2, 7027, Note_on_c, 0, 76, 78
2, 7033, Note_off_c, 0, 59, 64
2, 7034, Control_c, 0, 64, 0
2, 7038, Note_off_c, 0, 75, 64
2, 7039, Control_c, 0, 64, 0
2, 7088, Control_c, 0, 64, 127
2, 7097, Note_off_c, 0, 76, 64
2, 7177, Note_on_c, 0, 76, 67
2, 7221, Note_on_c, 0, 69, 72
2, 7236, Note_on_c, 0, 60, 55
2, 7239, Note_off_c, 0, 76, 64
2, 7239, Note_on_c, 0, 52, 72
2, 7243, Control_c, 0, 64, 0
2, 7250, Note_off_c, 0, 45, 64
2, 7276, Control_c, 0, 64, 127
2, 7282, Note_off_c, 0, 52, 64
2, 7282, Note_off_c, 0, 60, 64
2, 7442, Note_on_c, 0, 72, 77
2, 7448, Note_on_c, 0, 52, 50
2, 7450, Note_on_c, 0, 60, 56
2, 7458, Note_off_c, 0, 69, 64
2, 7475, Control_c, 0, 64, 0
2, 7520, Control_c, 0, 64, 127
2, 7653, Note_on_c, 0, 71, 77
2, 7658, Note_on_c, 0, 45, 69
2, 7675, Note_off_c, 0, 72, 64
2, 7675, Control_c, 0, 64, 0
2, 7682, Note_off_c, 0, 52, 64
2, 7721, Note_off_c, 0, 60, 64
2, 7723, Control_c, 0, 64, 127
2, 7743, Note_off_c, 0, 71, 64
2, 7813, Note_off_c, 0, 45, 64
2, 7817, Note_on_c, 0, 71, 72
2, 7855, Note_on_c, 0, 66, 78
2, 7872, Note_off_c, 0, 71, 64
2, 7872, Note_on_c, 0, 62, 49
2, 7877, Note_on_c, 0, 52, 69
2, 7877, Control_c, 0, 64, 0
2, 7900, Control_c, 0, 64, 127
2, 7916, Note_off_c, 0, 52, 64
2, 7923, Note_off_c, 0, 62, 64
2, 8029, Note_off_c, 0, 66, 64
2, 8044, Note_on_c, 0, 69, 56
2, 8071, Note_off_c, 0, 69, 64
2, 8074, Note_on_c, 0, 62, 33
2, 8075, Note_on_c, 0, 52, 55
2, 8081, Note_on_c, 0, 68, 77
2, 8114, Note_off_c, 0, 68, 64
2, 8120, Note_on_c, 0, 69, 78
2, 8154, Note_on_c, 0, 68, 90
2, 8162, Note_off_c, 0, 69, 64
2, 8187, Note_off_c, 0, 68, 64
2, 8195, Note_on_c, 0, 69, 62
2, 8213, Note_on_c, 0, 68, 78
2, 8218, Note_off_c, 0, 69, 64
2, 8219, Note_off_c, 0, 62, 64
2, 8231, Note_on_c, 0, 66, 77
2, 8248, Note_off_c, 0, 68, 64
2, 8264, Note_on_c, 0, 68, 82
2, 8281, Note_off_c, 0, 66, 64
2, 8288, Note_on_c, 0, 69, 78
2, 8312, Note_on_c, 0, 45, 72
2, 8316, Note_off_c, 0, 68, 64
2, 8322, Control_c, 0, 64, 0
2, 8342, Note_off_c, 0, 52, 64
2, 8371, Control_c, 0, 64, 127
2, 8432, Note_off_c, 0, 69, 64
2, 8468, Note_on_c, 0, 64, 65
2, 8506, Note_on_c, 0, 69, 93
2, 8515, Note_on_c, 0, 60, 65
2, 8516, Note_off_c, 0, 45, 64
2, 8516, Note_on_c, 0, 52, 73
2, 8523, Control_c, 0, 64, 0
2, 8538, Note_off_c, 0, 64, 64
2, 8553, Note_off_c, 0, 60, 64
2, 8553, Control_c, 0, 64, 127
2, 8561, Note_off_c, 0, 52, 64
2, 8666, Note_off_c, 0, 69, 64
2, 8686, Note_on_c, 0, 64, 83
2, 8720, Note_on_c, 0, 52, 46
2, 8725, Note_on_c, 0, 69, 73
2, 8726, Note_on_c, 0, 60, 71
2, 8738, Control_c, 0, 64, 0
2, 8767, Note_off_c, 0, 64, 64
2, 8781, Control_c, 0, 64, 127
2, 8883, Note_on_c, 0, 72, 82
2, 8909, Note_off_c, 0, 69, 64
2, 8934, Note_on_c, 0, 76, 83
2, 8938, Note_off_c, 0, 60, 64
2, 8940, Note_on_c, 0, 45, 71
2, 8957, Note_off_c, 0, 52, 64
2, 8957, Control_c, 0, 64, 0
2, 8962, Note_off_c, 0, 72, 64
2, 8983, Control_c, 0, 64, 127
2, 9008, Note_off_c, 0, 76, 64
2, 9111, Note_on_c, 0, 76, 62
2, 9145, Note_off_c, 0, 45, 64
2, 9147, Note_on_c, 0, 72, 73
2, 9147, Note_on_c, 0, 60, 67
2, 9147, Note_on_c, 0, 52, 69
2, 9164, Note_off_c, 0, 76, 64
2, 9171, Control_c, 0, 64, 0
2, 9193, Control_c, 0, 64, 127
2, 9203, Note_off_c, 0, 60, 64
2, 9205, Note_off_c, 0, 52, 64
2, 9278, Note_off_c, 0, 72, 64
2, 9356, Note_on_c, 0, 59, 67
2, 9358, Note_on_c, 0, 75, 57
2, 9364, Note_on_c, 0, 52, 60
2, 9381, Note_on_c, 0, 76, 65
2, 9389, Note_off_c, 0, 75, 64
2, 9423, Note_on_c, 0, 75, 72
2, 9428, Note_off_c, 0, 76, 64
2, 9451, Note_on_c, 0, 76, 69
2, 9452, Note_off_c, 0, 52, 64
2, 9459, Note_off_c, 0, 75, 64
2, 9491, Note_on_c, 0, 75, 72
2, 9507, Note_off_c, 0, 76, 64
2, 9527, Note_on_c, 0, 74, 71
2, 9544, Note_off_c, 0, 75, 64
2, 9559, Note_off_c, 0, 59, 64
2, 9561, Note_on_c, 0, 75, 63
2, 9569, Note_off_c, 0, 74, 64
2, 9595, Note_on_c, 0, 76, 78
2, 9596, Note_on_c, 0, 45, 65
2, 9606, Note_off_c, 0, 75, 64
2, 9607, Control_c, 0, 64, 0
2, 9665, Note_off_c, 0, 76, 64
2, 9665, Control_c, 0, 64, 127
2, 9747, Note_on_c, 0, 76, 78
2, 9795, Note_on_c, 0, 69, 85
2, 9800, Note_on_c, 0, 60, 63
2, 9806, Note_on_c, 0, 52, 73
2, 9808, Control_c, 0, 64, 0
2, 9812, Note_off_c, 0, 76, 64
2, 9813, Note_off_c, 0, 45, 64
2, 9839, Note_off_c, 0, 52, 64
2, 9841, Note_off_c, 0, 60, 64
2, 9845, Control_c, 0, 64, 127
2, 9999, Note_on_c, 0, 72, 77
2, 9999, Note_on_c, 0, 52, 56
2, 10004, Note_on_c, 0, 60, 62
2, 10006, Note_off_c, 0, 69, 64
2, 10027, Control_c, 0, 64, 0
2, 10068, Control_c, 0, 64, 127
2, 10209, Note_on_c, 0, 71, 78
2, 10218, Note_off_c, 0, 52, 64
2, 10218, Note_on_c, 0, 45, 73
2, 10228, Control_c, 0, 64, 0
2, 10247, Note_off_c, 0, 72, 64
2, 10273, Note_off_c, 0, 60, 64
2, 10277, Control_c, 0, 64, 127
2, 10283, Note_off_c, 0, 71, 64
2, 10345, Note_off_c, 0, 45, 64
2, 10391, Note_on_c, 0, 71, 73
2, 10427, Note_on_c, 0, 66, 77
2, 10430, Note_on_c, 0, 52, 67
2, 10431, Note_on_c, 0, 62, 55
2, 10441, Control_c, 0, 64, 0
2, 10448, Note_off_c, 0, 71, 64
2, 10464, Control_c, 0, 64, 127
2, 10489, Note_off_c, 0, 52, 64
2, 10502, Note_off_c, 0, 62, 64
2, 10633, Note_on_c, 0, 62, 35
2, 10633, Note_on_c, 0, 52, 56
2, 10656, Note_off_c, 0, 66, 64
2, 10656, Note_on_c, 0, 69, 73
2, 10699, Note_on_c, 0, 68, 82
2, 10700, Note_off_c, 0, 69, 64
2, 10719, Note_off_c, 0, 68, 64
2, 10724, Note_on_c, 0, 69, 85
2, 10732, Note_off_c, 0, 52, 64
2, 10745, Note_off_c, 0, 62, 64
2, 10762, Note_on_c, 0, 68, 85
2, 10778, Note_off_c, 0, 69, 64
2, 10807, Note_off_c, 0, 68, 64
2, 10807, Note_on_c, 0, 66, 85
2, 10842, Note_on_c, 0, 68, 85
2, 10852, Note_off_c, 0, 66, 64
2, 10892, Note_off_c, 0, 68, 64
2, 10916, Note_on_c, 0, 69, 85
2, 10958, Note_on_c, 0, 57, 35
2, 10968, Note_on_c, 0, 60, 46
2, 11003, Note_on_c, 0, 81, 82
2, 11056, Control_c, 0, 64, 0
2, 11118, Control_c, 0, 64, 127
2, 11217, Note_off_c, 0, 81, 64
2, 11269, Note_off_c, 0, 69, 64
2, 11422, Note_on_c, 0, 67, 35
2, 11451, Note_off_c, 0, 57, 64
2, 11472, Note_on_c, 0, 72, 60
2, 11477, Note_off_c, 0, 60, 64
2, 11491, Control_c, 0, 64, 0
2, 11501, Note_off_c, 0, 67, 64
2, 11528, Control_c, 0, 64, 127
2, 11660, Note_on_c, 0, 76, 48
2, 11670, Note_off_c, 0, 72, 64
2, 11708, Note_on_c, 0, 48, 53
2, 11710, Note_on_c, 0, 79, 62
2, 11730, Control_c, 0, 64, 0
2, 11736, Note_off_c, 0, 76, 64
2, 11765, Control_c, 0, 64, 127
2, 11789, Note_off_c, 0, 79, 64
2, 11924, Note_on_c, 0, 79, 54
2, 11965, Note_on_c, 0, 76, 68
2, 11971, Note_on_c, 0, 64, 44
2, 11976, Note_on_c, 0, 55, 53
2, 11982, Note_off_c, 0, 79, 64
2, 11982, Control_c, 0, 64, 0
2, 12002, Note_off_c, 0, 48, 64
2, 12017, Control_c, 0, 64, 127
2, 12064, Note_off_c, 0, 64, 64
2, 12076, Note_off_c, 0, 55, 64
2, 12130, Note_off_c, 0, 76, 64
2, 12191, Note_on_c, 0, 63, 64
2, 12191, Note_on_c, 0, 79, 57
2, 12201, Note_on_c, 0, 55, 54
2, 12211, Control_c, 0, 64, 0
2, 12223, Note_on_c, 0, 78, 68
2, 12236, Note_off_c, 0, 79, 64
2, 12247, Control_c, 0, 64, 127
2, 12259, Note_on_c, 0, 79, 68
2, 12280, Note_off_c, 0, 78, 64
2, 12296, Note_on_c, 0, 78, 64
2, 12310, Note_off_c, 0, 79, 64
2, 12333, Note_on_c, 0, 77, 68
2, 12342, Note_off_c, 0, 78, 64
2, 12374, Note_on_c, 0, 78, 60
2, 12387, Note_off_c, 0, 55, 64
2, 12388, Note_off_c, 0, 77, 64
2, 12392, Note_off_c, 0, 63, 64
2, 12410, Note_on_c, 0, 79, 68
2, 12416, Note_on_c, 0, 48, 60
2, 12420, Note_off_c, 0, 78, 64
2, 12433, Control_c, 0, 64, 0
2, 12472, Note_off_c, 0, 79, 64
2, 12483, Control_c, 0, 64, 127
2, 12591, Note_off_c, 0, 48, 64
2, 12604, Note_on_c, 0, 79, 40
2, 12630, Note_on_c, 0, 76, 59
2, 12633, Note_on_c, 0, 55, 57
2, 12637, Note_on_c, 0, 64, 57
2, 12646, Control_c, 0, 64, 0
2, 12660, Note_off_c, 0, 79, 64
2, 12680, Control_c, 0, 64, 127
2, 12696, Note_off_c, 0, 55, 64
2, 12701, Note_off_c, 0, 64, 64
2, 12839, Note_off_c, 0, 76, 64
2, 12849, Note_on_c, 0, 78, 59
2, 12855, Note_on_c, 0, 63, 73
2, 12860, Note_on_c, 0, 55, 60
2, 12873, Control_c, 0, 64, 0
2, 12879, Note_on_c, 0, 79, 57
2, 12904, Note_off_c, 0, 78, 64
2, 12904, Control_c, 0, 64, 127
2, 12924, Note_on_c, 0, 78, 60
2, 12930, Note_off_c, 0, 79, 64
2, 12954, Note_on_c, 0, 79, 59
2, 12995, Note_off_c, 0, 79, 64
2, 13007, Note_on_c, 0, 77, 54
2, 13015, Note_off_c, 0, 78, 64
2, 13036, Note_on_c, 0, 78, 57
2, 13048, Note_off_c, 0, 63, 64
2, 13055, Note_off_c, 0, 77, 64
2, 13076, Note_on_c, 0, 48, 60
2, 13081, Note_on_c, 0, 79, 60
2, 13084, Note_off_c, 0, 78, 64
2, 13091, Note_off_c, 0, 55, 64
2, 13102, Control_c, 0, 64, 0
2, 13129, Note_off_c, 0, 79, 64
2, 13137, Control_c, 0, 64, 127
2, 13213, Note_off_c, 0, 48, 64
2, 13241, Note_on_c, 0, 79, 59
2, 13278, Note_on_c, 0, 64, 53
2, 13280, Note_on_c, 0, 72, 57
2, 13284, Note_on_c, 0, 55, 53
2, 13294, Note_off_c, 0, 79, 64
2, 13301, Control_c, 0, 64, 0
2, 13334, Control_c, 0, 64, 127
2, 13340, Note_off_c, 0, 55, 64
2, 13353, Note_off_c, 0, 64, 64
2, 13498, Note_on_c, 0, 65, 53
2, 13500, Note_on_c, 0, 74, 62
2, 13506, Note_on_c, 0, 55, 60
2, 13516, Note_off_c, 0, 72, 64
2, 13529, Control_c, 0, 64, 0
2, 13559, Control_c, 0, 64, 127
2, 13636, Note_off_c, 0, 74, 64
2, 13664, Note_on_c, 0, 72, 48
2, 13667, Note_off_c, 0, 65, 64
2, 13693, Note_on_c, 0, 74, 53
2, 13717, Note_off_c, 0, 72, 64
2, 13717, Note_off_c, 0, 55, 64
2, 13729, Note_on_c, 0, 48, 44
2, 13736, Note_on_c, 0, 76, 60
2, 13740, Control_c, 0, 64, 0
2, 13748, Note_off_c, 0, 74, 64
2, 13795, Control_c, 0, 64, 127
2, 13991, Note_on_c, 0, 64, 36
2, 13991, Note_on_c, 0, 55, 50
2, 14005, Control_c, 0, 64, 0
2, 14027, Note_off_c, 0, 48, 64
2, 14038, Control_c, 0, 64, 127
2, 14129, Note_off_c, 0, 55, 64
2, 14132, Note_off_c, 0, 64, 64
2, 14322, Note_on_c, 0, 62, 35
2, 14325, Note_on_c, 0, 56, 39
2, 14331, Note_on_c, 0, 52, 44
2, 14373, Control_c, 0, 64, 0
2, 14406, Note_off_c, 0, 76, 64
2, 14407, Control_c, 0, 64, 127
2, 14475, Note_off_c, 0, 52, 64
2, 14476, Note_off_c, 0, 62, 64
2, 14483, Note_off_c, 0, 56, 64
2, 14600, Note_on_c, 0, 64, 54
2, 14678, Note_on_c, 0, 76, 70
2, 14684, Note_on_c, 0, 33, 85
2, 14692, Control_c, 0, 64, 0
2, 14732, Control_c, 0, 64, 127
2, 14753, Note_off_c, 0, 76, 64
2, 14867, Note_off_c, 0, 64, 64
2, 14874, Note_on_c, 0, 76, 58
2, 14915, Note_on_c, 0, 72, 70
2, 14921, Note_on_c, 0, 60, 49
2, 14923, Note_on_c, 0, 52, 60
2, 14928, Control_c, 0, 64, 0
2, 14954, Note_off_c, 0, 76, 64
2, 14961, Control_c, 0, 64, 127
2, 15010, Note_off_c, 0, 60, 64
2, 15018, Note_off_c, 0, 52, 64
2, 15034, Note_off_c, 0, 72, 64
2, 15071, Note_off_c, 0, 33, 64
2, 15137, Note_on_c, 0, 59, 55
2, 15143, Note_on_c, 0, 52, 54
2, 15158, Note_on_c, 0, 75, 49
2, 15181, Note_on_c, 0, 76, 51
2, 15189, Note_off_c, 0, 75, 64
2, 15223, Note_on_c, 0, 75, 58
2, 15228, Note_off_c, 0, 76, 64
2, 15251, Note_on_c, 0, 76, 54
2, 15252, Note_off_c, 0, 52, 64
2, 15259, Note_off_c, 0, 75, 64
2, 15291, Note_on_c, 0, 75, 58
2, 15307, Note_off_c, 0, 76, 64
2, 15327, Note_on_c, 0, 74, 55
2, 15330, Note_off_c, 0, 59, 64
2, 15344, Note_off_c, 0, 75, 64
2, 15361, Note_on_c, 0, 75, 50
2, 15369, Note_off_c, 0, 74, 64
2, 15379, Note_on_c, 0, 45, 55
2, 15395, Note_on_c, 0, 76, 62
2, 15398, Control_c, 0, 64, 0
2, 15406, Note_off_c, 0, 75, 64
2, 15407, Control_c, 0, 64, 0
2, 15428, Control_c, 0, 64, 127
2, 15465, Note_off_c, 0, 76, 64
2, 15539, Note_on_c, 0, 76, 54
2, 15578, Note_on_c, 0, 69, 62
2, 15591, Note_off_c, 0, 76, 64
2, 15595, Note_on_c, 0, 60, 49
2, 15601, Note_off_c, 0, 45, 64
2, 15601, Note_on_c, 0, 52, 45
2, 15607, Control_c, 0, 64, 0
2, 15628, Control_c, 0, 64, 127
2, 15640, Note_off_c, 0, 52, 64
2, 15647, Note_off_c, 0, 60, 64
2, 15792, Note_on_c, 0, 72, 62
2, 15798, Note_on_c, 0, 60, 50
2, 15800, Note_on_c, 0, 52, 58
2, 15805, Note_off_c, 0, 69, 64
2, 15815, Control_c, 0, 64, 0
2, 15857, Control_c, 0, 64, 127
2, 16010, Note_on_c, 0, 71, 65
2, 16016, Note_on_c, 0, 45, 60
2, 16016, Control_c, 0, 64, 0
2, 16024, Note_off_c, 0, 52, 64
2, 16034, Note_off_c, 0, 72, 64
2, 16053, Control_c, 0, 64, 127
2, 16056, Note_off_c, 0, 60, 64
2, 16076, Note_off_c, 0, 71, 64
2, 16118, Note_off_c, 0, 45, 64
2, 16172, Note_on_c, 0, 71, 62
2, 16214, Note_on_c, 0, 66, 73
2, 16220, Note_on_c, 0, 62, 49
2, 16224, Note_on_c, 0, 52, 60
2, 16229, Note_off_c, 0, 71, 64
2, 16232, Control_c, 0, 64, 0
2, 16265, Control_c, 0, 64, 127
2, 16276, Note_off_c, 0, 52, 64
2, 16288, Note_off_c, 0, 62, 64
2, 16386, Note_off_c, 0, 66, 64
2, 16423, Note_on_c, 0, 62, 45
2, 16426, Note_on_c, 0, 52, 55
2, 16432, Note_on_c, 0, 68, 49
2, 16455, Note_off_c, 0, 68, 64
2, 16455, Note_on_c, 0, 69, 64
2, 16489, Note_on_c, 0, 68, 70
2, 16492, Note_off_c, 0, 69, 64
2, 16501, Note_off_c, 0, 52, 64
2, 16514, Note_on_c, 0, 69, 73
2, 16522, Note_off_c, 0, 68, 64
2, 16524, Note_off_c, 0, 62, 64
2, 16550, Note_off_c, 0, 69, 64
2, 16550, Note_on_c, 0, 68, 65
2, 16586, Note_off_c, 0, 68, 64
2, 16589, Note_on_c, 0, 66, 70
2, 16616, Note_on_c, 0, 68, 64
2, 16630, Note_off_c, 0, 66, 64
2, 16660, Note_on_c, 0, 69, 62
2, 16666, Note_on_c, 0, 45, 58
2, 16669, Note_off_c, 0, 68, 64
2, 16678, Control_c, 0, 64, 0
2, 16733, Control_c, 0, 64, 127
2, 16738, Note_off_c, 0, 69, 64
2, 16844, Note_on_c, 0, 64, 45
2, 16882, Note_on_c, 0, 69, 74
2, 16882, Note_on_c, 0, 60, 54
2, 16887, Note_on_c, 0, 52, 60
2, 16894, Note_off_c, 0, 45, 64
2, 16897, Control_c, 0, 64, 0
2, 16910, Note_off_c, 0, 64, 64
2, 16926, Note_off_c, 0, 60, 64
2, 16931, Note_off_c, 0, 52, 64
2, 16931, Control_c, 0, 64, 127
2, 17028, Note_off_c, 0, 69, 64
2, 17049, Note_on_c, 0, 64, 64
2, 17078, Note_on_c, 0, 69, 79
2, 17084, Note_on_c, 0, 60, 54
2, 17087, Note_on_c, 0, 52, 62
2, 17101, Control_c, 0, 64, 0
2, 17114, Note_off_c, 0, 64, 64
2, 17149, Control_c, 0, 64, 127
2, 17232, Note_on_c, 0, 72, 64
2, 17261, Note_off_c, 0, 69, 64
2, 17286, Note_on_c, 0, 76, 73
2, 17287, Note_on_c, 0, 45, 62
2, 17294, Note_off_c, 0, 60, 64
2, 17301, Control_c, 0, 64, 0
2, 17304, Note_off_c, 0, 72, 64
2, 17310, Note_off_c, 0, 52, 64
2, 17339, Control_c, 0, 64, 127
2, 17344, Note_off_c, 0, 76, 64
2, 17445, Note_on_c, 0, 76, 54
2, 17470, Note_off_c, 0, 45, 64
2, 17484, Note_on_c, 0, 52, 62
2, 17486, Note_on_c, 0, 60, 54
2, 17488, Note_on_c, 0, 72, 73
2, 17506, Note_off_c, 0, 76, 64
2, 17507, Control_c, 0, 64, 0
2, 17540, Control_c, 0, 64, 127
2, 17546, Note_off_c, 0, 52, 64
2, 17549, Note_off_c, 0, 60, 64
2, 17565, Note_off_c, 0, 72, 64
2, 17689, Note_on_c, 0, 59, 45
2, 17695, Note_on_c, 0, 76, 49
2, 17697, Note_on_c, 0, 52, 41
2, 17732, Note_on_c, 0, 75, 39
2, 17741, Note_off_c, 0, 76, 64
2, 17760, Note_on_c, 0, 76, 60
2, 17768, Note_off_c, 0, 75, 64
2, 17800, Note_off_c, 0, 52, 64
2, 17804, Note_off_c, 0, 76, 64
2, 17804, Note_on_c, 0, 75, 60
2, 17853, Note_on_c, 0, 74, 58
2, 17860, Note_off_c, 0, 75, 64
2, 17885, Note_off_c, 0, 59, 64
2, 17888, Note_on_c, 0, 75, 51
2, 17899, Note_off_c, 0, 74, 64
2, 17922, Note_on_c, 0, 76, 70
2, 17929, Note_on_c, 0, 45, 58
2, 17936, Note_off_c, 0, 75, 64
2, 17948, Control_c, 0, 64, 0
2, 17990, Control_c, 0, 64, 127
2, 17997, Note_off_c, 0, 76, 64
2, 18093, Note_on_c, 0, 76, 60
2, 18134, Note_on_c, 0, 69, 63
2, 18140, Note_on_c, 0, 60, 54
2, 18142, Note_off_c, 0, 45, 64
2, 18144, Note_off_c, 0, 76, 64
2, 18145, Control_c, 0, 64, 0
2, 18152, Note_on_c, 0, 52, 45
2, 18174, Control_c, 0, 64, 127
2, 18183, Note_off_c, 0, 52, 64
2, 18186, Note_off_c, 0, 60, 64
2, 18330, Note_on_c, 0, 72, 60
2, 18332, Note_on_c, 0, 60, 54
2, 18337, Note_off_c, 0, 69, 64
2, 18340, Note_on_c, 0, 52, 55
2, 18347, Control_c, 0, 64, 0
2, 18410, Control_c, 0, 64, 127
2, 18534, Note_on_c, 0, 71, 63
2, 18543, Note_on_c, 0, 45, 62
2, 18553, Note_off_c, 0, 52, 64
2, 18553, Control_c, 0, 64, 0
2, 18566, Note_off_c, 0, 60, 64
2, 18580, Note_off_c, 0, 72, 64
2, 18610, Control_c, 0, 64, 127
2, 18616, Note_off_c, 0, 71, 64
2, 18658, Note_off_c, 0, 45, 64
2, 18708, Note_on_c, 0, 71, 62
2, 18746, Note_on_c, 0, 66, 70
2, 18753, Note_on_c, 0, 62, 49
2, 18756, Note_on_c, 0, 52, 54
2, 18762, Control_c, 0, 64, 0
2, 18772, Note_off_c, 0, 71, 64
2, 18800, Control_c, 0, 64, 127
2, 18821, Note_off_c, 0, 52, 64
2, 18854, Note_off_c, 0, 62, 64
2, 18940, Note_off_c, 0, 66, 64
2, 18949, Note_on_c, 0, 62, 39
2, 18959, Note_on_c, 0, 52, 39
2, 18996, Note_on_c, 0, 69, 45
2, 19023, Note_off_c, 0, 69, 64
2, 19025, Note_off_c, 0, 52, 64
2, 19033, Note_on_c, 0, 68, 62
2, 19066, Note_off_c, 0, 68, 64
2, 19072, Note_on_c, 0, 69, 63
2, 19106, Note_on_c, 0, 68, 73
2, 19112, Note_off_c, 0, 62, 64
2, 19114, Note_off_c, 0, 69, 64
2, 19139, Note_off_c, 0, 68, 64
2, 19147, Note_on_c, 0, 69, 49
2, 19165, Note_on_c, 0, 68, 63
2, 19170, Note_off_c, 0, 69, 64
2, 19183, Note_on_c, 0, 66, 62
2, 19200, Note_off_c, 0, 68, 64
2, 19216, Note_on_c, 0, 68, 65
2, 19233, Note_off_c, 0, 66, 64
2, 19268, Note_off_c, 0, 68, 64
2, 19290, Note_on_c, 0, 69, 70
2, 19328, Note_on_c, 0, 45, 36
2, 19384, Note_on_c, 0, 81, 63
2, 19411, Control_c, 0, 64, 0
2, 19474, Control_c, 0, 64, 127
2, 19672, Note_on_c, 0, 60, 26
2, 19676, Control_c, 0, 64, 0
2, 19682, Note_on_c, 0, 52, 44
2, 19712, Control_c, 0, 64, 127
2, 19719, Note_off_c, 0, 81, 64
2, 19775, Note_off_c, 0, 69, 64
2, 19827, Note_off_c, 0, 45, 64
2, 19866, Note_on_c, 0, 67, 52
2, 19868, Note_off_c, 0, 52, 64
2, 19905, Note_on_c, 0, 72, 52
2, 19916, Control_c, 0, 64, 0
2, 19948, Note_off_c, 0, 67, 64
2, 19963, Control_c, 0, 64, 127
2, 20060, Note_on_c, 0, 76, 48
2, 20086, Note_off_c, 0, 72, 64
2, 20086, Note_off_c, 0, 60, 64
2, 20111, Note_on_c, 0, 48, 58
2, 20114, Note_on_c, 0, 79, 48
2, 20123, Control_c, 0, 64, 0
2, 20139, Note_off_c, 0, 76, 64
2, 20158, Control_c, 0, 64, 127
2, 20177, Note_off_c, 0, 79, 64
2, 20271, Note_on_c, 0, 79, 41
2, 20318, Note_off_c, 0, 48, 64
2, 20318, Note_on_c, 0, 76, 58
2, 20325, Note_on_c, 0, 64, 52
2, 20325, Note_on_c, 0, 55, 51
2, 20330, Note_off_c, 0, 79, 64
2, 20334, Control_c, 0, 64, 0
2, 20367, Control_c, 0, 64, 127
2, 20395, Note_off_c, 0, 55, 64
2, 20400, Note_off_c, 0, 64, 64
2, 20462, Note_off_c, 0, 76, 64
2, 20547, Note_on_c, 0, 79, 48
2, 20547, Note_on_c, 0, 63, 63
2, 20550, Note_on_c, 0, 55, 51
2, 20560, Control_c, 0, 64, 0
2, 20585, Note_on_c, 0, 78, 52
2, 20592, Note_off_c, 0, 79, 64
2, 20600, Control_c, 0, 64, 127
2, 20622, Note_on_c, 0, 79, 63
2, 20639, Note_off_c, 0, 78, 64
2, 20658, Note_off_c, 0, 79, 64
2, 20660, Note_on_c, 0, 78, 58
2, 20703, Note_off_c, 0, 78, 64
2, 20703, Note_on_c, 0, 77, 58
2, 20729, Note_off_c, 0, 63, 64
2, 20733, Note_on_c, 0, 78, 48
2, 20756, Note_off_c, 0, 77, 64
2, 20760, Note_on_c, 0, 79, 58
2, 20763, Note_off_c, 0, 55, 64
2, 20773, Note_on_c, 0, 48, 52
2, 20780, Note_off_c, 0, 78, 64
2, 20789, Control_c, 0, 64, 0
2, 20818, Note_off_c, 0, 79, 64
2, 20832, Control_c, 0, 64, 127
2, 20940, Note_on_c, 0, 79, 52
2, 20955, Note_off_c, 0, 48, 64
2, 20976, Note_on_c, 0, 76, 58
2, 20985, Note_on_c, 0, 55, 46
2, 20985, Note_on_c, 0, 64, 39
2, 20999, Control_c, 0, 64, 0
2, 21001, Note_off_c, 0, 79, 64
2, 21022, Control_c, 0, 64, 127
2, 21060, Note_off_c, 0, 64, 64
2, 21068, Note_off_c, 0, 55, 64
2, 21174, Note_off_c, 0, 76, 64
2, 21195, Note_on_c, 0, 79, 48
2, 21195, Note_on_c, 0, 63, 52
2, 21198, Note_on_c, 0, 55, 48
2, 21208, Control_c, 0, 64, 0
2, 21233, Note_on_c, 0, 78, 52
2, 21240, Note_off_c, 0, 79, 64
2, 21248, Control_c, 0, 64, 127
2, 21270, Note_on_c, 0, 79, 63
2, 21287, Note_off_c, 0, 78, 64
2, 21306, Note_off_c, 0, 79, 64
2, 21308, Note_on_c, 0, 78, 58
2, 21348, Note_off_c, 0, 63, 64
2, 21351, Note_off_c, 0, 78, 64
2, 21351, Note_on_c, 0, 77, 58
2, 21371, Note_off_c, 0, 55, 64
2, 21381, Note_on_c, 0, 78, 48
2, 21404, Note_off_c, 0, 77, 64
2, 21428, Note_off_c, 0, 78, 64
2, 21428, Note_on_c, 0, 79, 58
2, 21428, Control_c, 0, 64, 0
2, 21433, Note_on_c, 0, 48, 46
2, 21437, Control_c, 0, 64, 0
2, 21470, Control_c, 0, 64, 127
2, 21486, Note_off_c, 0, 79, 64
2, 21593, Note_on_c, 0, 79, 46
2, 21623, Note_off_c, 0, 48, 64
2, 21636, Note_on_c, 0, 72, 58
2, 21649, Note_on_c, 0, 64, 46
2, 21650, Note_off_c, 0, 79, 64
2, 21655, Note_on_c, 0, 55, 42
2, 21666, Control_c, 0, 64, 0
2, 21701, Control_c, 0, 64, 127
2, 21718, Note_off_c, 0, 55, 64
2, 21740, Note_off_c, 0, 64, 64
2, 21853, Note_on_c, 0, 74, 58
2, 21857, Note_on_c, 0, 65, 30
2, 21863, Note_on_c, 0, 55, 45
2, 21876, Note_off_c, 0, 72, 64
2, 21886, Control_c, 0, 64, 0
2, 21920, Control_c, 0, 64, 127
2, 21969, Note_off_c, 0, 74, 64
2, 22026, Note_off_c, 0, 65, 64
2, 22026, Note_on_c, 0, 72, 57
2, 22052, Note_on_c, 0, 74, 58
2, 22074, Note_off_c, 0, 72, 64
2, 22095, Note_on_c, 0, 76, 58
2, 22098, Note_on_c, 0, 48, 37
2, 22107, Note_off_c, 0, 74, 64
2, 22107, Note_off_c, 0, 55, 64
2, 22120, Control_c, 0, 64, 0
2, 22164, Control_c, 0, 64, 127
2, 22344, Note_on_c, 0, 64, 28
2, 22349, Note_on_c, 0, 55, 34
2, 22359, Control_c, 0, 64, 0
2, 22393, Control_c, 0, 64, 127
2, 22418, Note_off_c, 0, 48, 64
2, 22475, Note_off_c, 0, 64, 64
2, 22478, Note_off_c, 0, 55, 64
2, 22647, Note_on_c, 0, 52, 37
2, 22649, Note_on_c, 0, 56, 41
2, 22657, Note_on_c, 0, 62, 24
2, 22687, Control_c, 0, 64, 0
2, 22742, Control_c, 0, 64, 127
2, 22759, Note_off_c, 0, 76, 64
2, 22817, Note_off_c, 0, 62, 64
2, 22820, Note_off_c, 0, 52, 64
2, 22823, Note_off_c, 0, 56, 64
2, 22933, Note_on_c, 0, 64, 52
2, 22991, Note_on_c, 0, 76, 69
2, 23005, Note_on_c, 0, 33, 89
2, 23012, Control_c, 0, 64, 0
2, 23043, Control_c, 0, 64, 127
2, 23056, Note_off_c, 0, 76, 64
2, 23177, Note_on_c, 0, 76, 57
2, 23192, Note_off_c, 0, 64, 64
2, 23218, Note_on_c, 0, 72, 64
2, 23225, Note_on_c, 0, 60, 37
2, 23226, Control_c, 0, 64, 0
2, 23234, Note_on_c, 0, 52, 42
2, 23252, Note_off_c, 0, 76, 64
2, 23260, Control_c, 0, 64, 127
2, 23293, Note_off_c, 0, 72, 64
2, 23293, Note_off_c, 0, 33, 64
2, 23326, Note_off_c, 0, 60, 64
2, 23336, Note_off_c, 0, 52, 64
2, 23442, Note_on_c, 0, 59, 57
2, 23449, Note_on_c, 0, 52, 40
2, 23462, Note_on_c, 0, 75, 42
2, 23485, Note_on_c, 0, 76, 49
2, 23493, Note_off_c, 0, 75, 64
2, 23527, Note_on_c, 0, 75, 52
2, 23532, Note_off_c, 0, 76, 64
2, 23555, Note_on_c, 0, 76, 50
2, 23563, Note_off_c, 0, 75, 64
2, 23595, Note_on_c, 0, 75, 52
2, 23607, Note_off_c, 0, 52, 64
2, 23611, Note_off_c, 0, 76, 64
2, 23631, Note_on_c, 0, 74, 52
2, 23637, Note_off_c, 0, 59, 64
2, 23648, Note_off_c, 0, 75, 64
2, 23665, Note_on_c, 0, 75, 47
2, 23673, Note_off_c, 0, 74, 64
2, 23678, Note_on_c, 0, 45, 52
2, 23692, Control_c, 0, 64, 0
2, 23699, Note_on_c, 0, 76, 57
2, 23710, Note_off_c, 0, 75, 64
2, 23711, Control_c, 0, 64, 0
2, 23735, Control_c, 0, 64, 127
2, 23769, Note_off_c, 0, 76, 64
2, 23823, Note_on_c, 0, 76, 56
2, 23873, Note_on_c, 0, 69, 64
2, 23882, Control_c, 0, 64, 0
2, 23891, Note_on_c, 0, 52, 49
2, 23891, Note_on_c, 0, 60, 32
2, 23897, Note_off_c, 0, 76, 64
2, 23897, Note_off_c, 0, 45, 64
2, 23925, Control_c, 0, 64, 127
2, 23930, Note_off_c, 0, 52, 64
2, 23934, Note_off_c, 0, 60, 64
2, 24077, Note_on_c, 0, 60, 46
2, 24080, Note_on_c, 0, 72, 57
2, 24080, Note_on_c, 0, 52, 52
2, 24085, Note_off_c, 0, 69, 64
2, 24104, Control_c, 0, 64, 0
2, 24137, Control_c, 0, 64, 127
2, 24287, Note_on_c, 0, 71, 64
2, 24296, Note_on_c, 0, 45, 57
2, 24307, Control_c, 0, 64, 0
2, 24320, Note_off_c, 0, 72, 64
2, 24327, Note_off_c, 0, 52, 64
2, 24343, Control_c, 0, 64, 127
2, 24348, Note_off_c, 0, 60, 64
2, 24357, Note_off_c, 0, 71, 64
2, 24388, Note_off_c, 0, 45, 64
2, 24457, Note_on_c, 0, 71, 50
2, 24494, Note_on_c, 0, 66, 69
2, 24494, Note_on_c, 0, 62, 40
2, 24494, Note_on_c, 0, 52, 52
2, 24503, Note_off_c, 0, 71, 64
2, 24509, Control_c, 0, 64, 0
2, 24533, Control_c, 0, 64, 127
2, 24549, Note_off_c, 0, 52, 64
2, 24556, Note_off_c, 0, 62, 64
2, 24654, Note_off_c, 0, 66, 64
2, 24672, Note_on_c, 0, 69, 40
2, 24689, Note_on_c, 0, 68, 57
2, 24697, Note_on_c, 0, 62, 32
2, 24699, Note_off_c, 0, 69, 64
2, 24700, Note_on_c, 0, 52, 52
2, 24722, Note_off_c, 0, 68, 64
2, 24728, Note_on_c, 0, 69, 57
2, 24762, Note_on_c, 0, 68, 69
2, 24770, Note_off_c, 0, 69, 64
2, 24772, Note_off_c, 0, 62, 64
2, 24775, Note_off_c, 0, 52, 64
2, 24795, Note_off_c, 0, 68, 64
2, 24803, Note_on_c, 0, 69, 46
2, 24821, Note_on_c, 0, 68, 57
2, 24826, Note_off_c, 0, 69, 64
2, 24839, Note_on_c, 0, 66, 57
2, 24856, Note_off_c, 0, 68, 64
2, 24872, Note_on_c, 0, 68, 63
2, 24889, Note_off_c, 0, 66, 64
2, 24919, Note_on_c, 0, 69, 57
2, 24924, Note_off_c, 0, 68, 64
2, 24931, Note_on_c, 0, 45, 52
2, 24944, Control_c, 0, 64, 0
2, 24987, Control_c, 0, 64, 127
2, 25024, Note_off_c, 0, 69, 64
2, 25082, Note_on_c, 0, 64, 46
2, 25125, Note_on_c, 0, 69, 40
2, 25131, Note_on_c, 0, 60, 37
2, 25138, Note_on_c, 0, 52, 50
2, 25142, Note_off_c, 0, 45, 64
2, 25154, Control_c, 0, 64, 0
2, 25162, Note_off_c, 0, 64, 64
2, 25191, Control_c, 0, 64, 127
2, 25196, Note_off_c, 0, 52, 64
2, 25198, Note_off_c, 0, 60, 64
2, 25256, Note_off_c, 0, 69, 64
2, 25289, Note_on_c, 0, 64, 63
2, 25325, Note_on_c, 0, 60, 46
2, 25325, Note_on_c, 0, 52, 50
2, 25329, Note_on_c, 0, 69, 63
2, 25357, Control_c, 0, 64, 0
2, 25364, Note_off_c, 0, 64, 64
2, 25401, Control_c, 0, 64, 127
2, 25484, Note_on_c, 0, 72, 57
2, 25507, Note_off_c, 0, 69, 64
2, 25531, Note_on_c, 0, 76, 64
2, 25538, Note_off_c, 0, 52, 64
2, 25540, Note_off_c, 0, 60, 64
2, 25541, Note_on_c, 0, 45, 52
2, 25554, Note_off_c, 0, 72, 64
2, 25556, Control_c, 0, 64, 0
2, 25589, Control_c, 0, 64, 127
2, 25599, Note_off_c, 0, 76, 64
2, 25702, Note_on_c, 0, 76, 50
2, 25733, Note_off_c, 0, 45, 64
2, 25737, Note_on_c, 0, 60, 46
2, 25737, Note_on_c, 0, 52, 52
2, 25738, Note_on_c, 0, 72, 63
2, 25754, Control_c, 0, 64, 0
2, 25761, Note_off_c, 0, 76, 64
2, 25786, Control_c, 0, 64, 127
2, 25804, Note_off_c, 0, 60, 64
2, 25809, Note_off_c, 0, 52, 64
2, 25844, Note_off_c, 0, 72, 64
2, 25944, Note_on_c, 0, 59, 52
2, 25957, Note_on_c, 0, 52, 46
2, 25966, Note_on_c, 0, 75, 42
2, 25989, Note_on_c, 0, 76, 49
2, 25997, Note_off_c, 0, 75, 64
2, 26031, Note_on_c, 0, 75, 52
2, 26036, Note_off_c, 0, 76, 64
2, 26059, Note_on_c, 0, 76, 50
2, 26067, Note_off_c, 0, 75, 64
2, 26088, Note_off_c, 0, 52, 64
2, 26099, Note_on_c, 0, 75, 52
2, 26113, Note_off_c, 0, 59, 64
2, 26115, Note_off_c, 0, 76, 64
2, 26135, Note_on_c, 0, 74, 52
2, 26152, Note_off_c, 0, 75, 64
2, 26169, Note_on_c, 0, 75, 47
2, 26177, Note_off_c, 0, 74, 64
2, 26195, Note_on_c, 0, 45, 50
2, 26203, Note_on_c, 0, 76, 57
2, 26214, Note_off_c, 0, 75, 64
2, 26215, Control_c, 0, 64, 0
2, 26218, Control_c, 0, 64, 0
2, 26252, Control_c, 0, 64, 127
2, 26273, Note_off_c, 0, 76, 64
2, 26370, Note_on_c, 0, 76, 57
2, 26415, Note_on_c, 0, 69, 63
2, 26421, Note_on_c, 0, 60, 37
2, 26425, Note_on_c, 0, 52, 46
2, 26430, Note_off_c, 0, 76, 64
2, 26435, Note_off_c, 0, 45, 64
2, 26440, Control_c, 0, 64, 0
2, 26466, Control_c, 0, 64, 127
2, 26474, Note_off_c, 0, 52, 64
2, 26476, Note_off_c, 0, 60, 64
2, 26605, Note_on_c, 0, 60, 40
2, 26607, Note_on_c, 0, 52, 52
2, 26611, Note_on_c, 0, 72, 57
2, 26614, Note_off_c, 0, 69, 64
2, 26627, Control_c, 0, 64, 0
2, 26670, Control_c, 0, 64, 127
2, 26816, Note_on_c, 0, 71, 57
2, 26823, Note_on_c, 0, 45, 52
2, 26837, Control_c, 0, 64, 0
2, 26843, Note_off_c, 0, 52, 64
2, 26852, Note_off_c, 0, 72, 64
2, 26876, Note_off_c, 0, 60, 64
2, 26888, Control_c, 0, 64, 127
2, 26898, Note_off_c, 0, 71, 64
2, 26951, Note_off_c, 0, 45, 64
2, 27006, Note_on_c, 0, 71, 52
2, 27037, Note_on_c, 0, 66, 64
2, 27043, Note_on_c, 0, 62, 26
2, 27043, Note_on_c, 0, 52, 47
2, 27050, Control_c, 0, 64, 0
2, 27060, Note_off_c, 0, 71, 64
2, 27086, Control_c, 0, 64, 127
2, 27125, Note_off_c, 0, 52, 64
2, 27163, Note_off_c, 0, 62, 64
2, 27193, Note_off_c, 0, 66, 64
2, 27249, Note_on_c, 0, 62, 32
2, 27256, Note_on_c, 0, 52, 40
2, 27282, Note_on_c, 0, 69, 46
2, 27317, Note_off_c, 0, 69, 64
2, 27321, Note_on_c, 0, 68, 64
2, 27351, Note_on_c, 0, 69, 57
2, 27359, Note_off_c, 0, 68, 64
2, 27387, Note_on_c, 0, 68, 64
2, 27399, Note_off_c, 0, 69, 64
2, 27406, Note_off_c, 0, 62, 64
2, 27427, Note_on_c, 0, 66, 63
2, 27430, Note_off_c, 0, 68, 64
2, 27433, Note_off_c, 0, 52, 64
2, 27466, Note_on_c, 0, 68, 63
2, 27468, Note_off_c, 0, 66, 64
2, 27510, Note_off_c, 0, 68, 64
2, 27534, Note_on_c, 0, 69, 69
2, 27632, Note_on_c, 0, 81, 57
2, 27638, Note_on_c, 0, 45, 50
2, 27661, Control_c, 0, 64, 0
2, 27714, Control_c, 0, 64, 127
2, 28011, Note_off_c, 0, 81, 64
2, 28014, Note_on_c, 0, 60, 31
2, 28014, Note_on_c, 0, 52, 50
2, 28068, Note_off_c, 0, 69, 64
2, 28240, Note_on_c, 0, 64, 68
2, 28289, Control_c, 0, 64, 0
2, 28300, Control_c, 0, 64, 127
2, 28319, Note_off_c, 0, 64, 64
2, 28355, Note_on_c, 0, 64, 72
2, 28403, Note_off_c, 0, 60, 64
2, 28411, Note_off_c, 0, 52, 64
2, 28441, Note_off_c, 0, 45, 64
2, 28535, Note_off_c, 0, 64, 64
2, 28587, Note_on_c, 0, 64, 54
2, 28621, Note_off_c, 0, 64, 64
2, 28640, Note_on_c, 0, 64, 62
2, 28644, Note_on_c, 0, 61, 68
2, 28646, Note_on_c, 0, 73, 72
2, 28653, Note_on_c, 0, 45, 50
2, 28654, Note_on_c, 0, 52, 43
2, 28676, Control_c, 0, 64, 0
2, 28689, Control_c, 0, 64, 127
2, 28722, Note_off_c, 0, 64, 64
2, 28731, Note_off_c, 0, 52, 64
2, 28735, Note_off_c, 0, 45, 64
2, 28739, Note_off_c, 0, 73, 64
2, 28778, Note_off_c, 0, 61, 64
2, 28836, Note_on_c, 0, 73, 72
2, 28872, Note_on_c, 0, 64, 68
2, 28878, Note_on_c, 0, 61, 73
2, 28885, Note_on_c, 0, 52, 48
2, 28889, Note_on_c, 0, 45, 43
2, 28895, Note_off_c, 0, 73, 64
2, 28899, Control_c, 0, 64, 0
2, 28942, Control_c, 0, 64, 127
2, 28969, Note_off_c, 0, 61, 64
2, 28999, Note_off_c, 0, 52, 64
2, 29001, Note_off_c, 0, 45, 64
2, 29003, Note_off_c, 0, 64, 64
2, 29082, Note_on_c, 0, 61, 74
2, 29085, Note_on_c, 0, 69, 72
2, 29085, Note_on_c, 0, 52, 59
2, 29091, Note_on_c, 0, 45, 49
2, 29104, Control_c, 0, 64, 0
2, 29122, Note_off_c, 0, 61, 64
2, 29128, Control_c, 0, 64, 127
2, 29164, Note_off_c, 0, 45, 64
2, 29183, Note_off_c, 0, 52, 64
2, 29235, Note_off_c, 0, 69, 64
2, 29284, Note_on_c, 0, 64, 68
2, 29288, Note_on_c, 0, 52, 55
2, 29290, Note_on_c, 0, 73, 83
2, 29290, Note_on_c, 0, 61, 63
2, 29297, Note_on_c, 0, 45, 55
2, 29307, Control_c, 0, 64, 0
2, 29320, Control_c, 0, 64, 127
2, 29429, Note_off_c, 0, 64, 64
2, 29433, Note_off_c, 0, 52, 64
2, 29435, Note_off_c, 0, 61, 64
2, 29435, Note_off_c, 0, 73, 64
2, 29436, Note_on_c, 0, 73, 77
2, 29442, Note_off_c, 0, 45, 64
2, 29468, Note_on_c, 0, 64, 77
2, 29477, Note_on_c, 0, 52, 68
2, 29480, Note_on_c, 0, 61, 86
2, 29480, Note_on_c, 0, 45, 67
2, 29494, Control_c, 0, 64, 0
2, 29498, Note_off_c, 0, 73, 64
2, 29517, Control_c, 0, 64, 127
2, 29632, Note_off_c, 0, 52, 64
2, 29635, Note_off_c, 0, 45, 64
2, 29635, Note_off_c, 0, 61, 64
2, 29661, Note_on_c, 0, 61, 74
2, 29668, Note_on_c, 0, 69, 79
2, 29668, Note_on_c, 0, 52, 67
2, 29671, Note_off_c, 0, 64, 64
2, 29674, Note_on_c, 0, 45, 72
2, 29819, Note_off_c, 0, 61, 64
2, 29826, Note_off_c, 0, 52, 64
2, 29832, Note_off_c, 0, 45, 64
2, 29876, Note_on_c, 0, 76, 73
2, 29878, Note_on_c, 0, 73, 73
2, 29885, Note_off_c, 0, 69, 64
2, 29890, Note_on_c, 0, 64, 68
2, 29891, Note_on_c, 0, 61, 68
2, 29891, Note_on_c, 0, 57, 59
2, 29903, Control_c, 0, 64, 0
2, 29929, Control_c, 0, 64, 127
2, 30068, Note_on_c, 0, 75, 68
2, 30068, Note_on_c, 0, 63, 72
2, 30070, Note_on_c, 0, 60, 68
2, 30072, Note_on_c, 0, 72, 72
2, 30089, Note_off_c, 0, 76, 64
2, 30091, Note_off_c, 0, 73, 64
2, 30103, Note_off_c, 0, 64, 64
2, 30104, Note_off_c, 0, 61, 64
2, 30153, Note_on_c, 0, 62, 54
2, 30161, Note_on_c, 0, 78, 79
2, 30166, Note_on_c, 0, 74, 92
2, 30166, Note_on_c, 0, 66, 79
2, 30170, Note_off_c, 0, 63, 64
2, 30170, Note_off_c, 0, 75, 64
2, 30172, Note_off_c, 0, 60, 64
2, 30174, Note_off_c, 0, 72, 64
2, 30212, Control_c, 0, 64, 0
2, 30302, Control_c, 0, 64, 127
2, 30542, Note_on_c, 0, 73, 79
2, 30544, Note_on_c, 0, 76, 68
2, 30546, Note_off_c, 0, 62, 64
2, 30548, Note_on_c, 0, 61, 62
2, 30554, Note_off_c, 0, 78, 64
2, 30554, Note_on_c, 0, 64, 33
2, 30559, Note_off_c, 0, 66, 64
2, 30559, Note_off_c, 0, 74, 64
2, 30597, Note_off_c, 0, 57, 64
2, 30668, Note_on_c, 0, 75, 49
2, 30668, Note_on_c, 0, 72, 53
2, 30683, Note_off_c, 0, 73, 64
2, 30685, Note_off_c, 0, 76, 64
2, 30689, Note_off_c, 0, 61, 64
2, 30695, Note_off_c, 0, 64, 64
2, 30710, Note_on_c, 0, 78, 63
2, 30714, Note_off_c, 0, 72, 64
2, 30714, Note_off_c, 0, 75, 64
2, 30732, Note_on_c, 0, 57, 30
2, 30747, Note_on_c, 0, 61, 43
2, 30752, Note_on_c, 0, 64, 49
2, 30755, Note_on_c, 0, 76, 54
2, 30763, Note_on_c, 0, 73, 63
2, 30765, Note_off_c, 0, 78, 64
2, 30810, Control_c, 0, 64, 0
2, 30865, Control_c, 0, 64, 127
2, 30984, Note_on_c, 0, 75, 57
2, 30986, Note_off_c, 0, 61, 64
2, 30990, Note_on_c, 0, 60, 59
2, 30991, Note_off_c, 0, 64, 64
2, 30993, Note_on_c, 0, 72, 59
2, 30994, Note_off_c, 0, 76, 64
2, 30997, Note_on_c, 0, 63, 39
2, 31002, Note_off_c, 0, 73, 64
2, 31086, Note_off_c, 0, 75, 64
2, 31092, Note_off_c, 0, 60, 64
2, 31095, Note_off_c, 0, 72, 64
2, 31097, Note_on_c, 0, 74, 63
2, 31097, Note_on_c, 0, 62, 59
2, 31099, Note_off_c, 0, 63, 64
2, 31100, Note_on_c, 0, 78, 59
2, 31108, Note_on_c, 0, 66, 53
2, 31143, Control_c, 0, 64, 0
2, 31216, Control_c, 0, 64, 127
2, 31532, Note_on_c, 0, 61, 33
2, 31532, Note_on_c, 0, 73, 49
2, 31536, Note_on_c, 0, 64, 24
2, 31537, Note_on_c, 0, 76, 49
2, 31538, Note_off_c, 0, 62, 64
2, 31538, Note_off_c, 0, 74, 64
2, 31541, Note_off_c, 0, 78, 64
2, 31549, Note_off_c, 0, 66, 64
2, 31677, Note_off_c, 0, 73, 64
2, 31677, Note_off_c, 0, 61, 64
2, 31681, Note_off_c, 0, 57, 64
2, 31681, Note_off_c, 0, 64, 64
2, 31682, Note_off_c, 0, 76, 64
2, 31724, Note_on_c, 0, 73, 54
2, 31727, Note_on_c, 0, 61, 57
2, 31733, Note_on_c, 0, 64, 54
2, 31739, Note_on_c, 0, 52, 44
2, 31746, Note_on_c, 0, 45, 33
2, 31762, Control_c, 0, 64, 0
2, 31793, Note_off_c, 0, 64, 64
2, 31807, Control_c, 0, 64, 127
2, 31815, Note_off_c, 0, 52, 64
2, 31817, Note_off_c, 0, 73, 64
2, 31821, Note_off_c, 0, 45, 64
2, 31851, Note_off_c, 0, 61, 64
2, 31890, Note_on_c, 0, 73, 67
2, 31920, Note_on_c, 0, 64, 63
2, 31929, Note_on_c, 0, 61, 57
2, 31945, Note_on_c, 0, 52, 39
2, 31945, Note_on_c, 0, 45, 43
2, 31958, Note_off_c, 0, 73, 64
2, 31961, Control_c, 0, 64, 0
2, 32001, Control_c, 0, 64, 127
2, 32050, Note_off_c, 0, 61, 64
2, 32057, Note_off_c, 0, 52, 64
2, 32061, Note_off_c, 0, 45, 64
2, 32155, Note_on_c, 0, 61, 68
2, 32159, Note_off_c, 0, 64, 64
2, 32162, Note_on_c, 0, 69, 67
2, 32165, Note_on_c, 0, 52, 44
2, 32171, Note_on_c, 0, 45, 40
2, 32184, Control_c, 0, 64, 0
2, 32218, Control_c, 0, 64, 127
2, 32227, Note_off_c, 0, 61, 64
2, 32269, Note_off_c, 0, 45, 64
2, 32283, Note_off_c, 0, 52, 64
2, 32374, Note_off_c, 0, 69, 64
2, 32375, Note_on_c, 0, 73, 91
2, 32383, Note_on_c, 0, 64, 73
2, 32383, Note_on_c, 0, 52, 49
2, 32387, Note_on_c, 0, 45, 60
2, 32397, Control_c, 0, 64, 0
2, 32432, Control_c, 0, 64, 127
2, 32452, Note_off_c, 0, 64, 64
2, 32482, Note_off_c, 0, 73, 64
2, 32483, Note_off_c, 0, 45, 64
2, 32504, Note_off_c, 0, 52, 64
2, 32544, Note_on_c, 0, 73, 83
2, 32583, Note_on_c, 0, 64, 77
2, 32593, Note_on_c, 0, 61, 87
2, 32596, Note_on_c, 0, 52, 60
2, 32601, Note_on_c, 0, 45, 59
2, 32611, Note_off_c, 0, 73, 64
2, 32615, Control_c, 0, 64, 0
2, 32653, Control_c, 0, 64, 127
2, 32676, Note_off_c, 0, 45, 64
2, 32679, Note_off_c, 0, 61, 64
2, 32684, Note_off_c, 0, 52, 64
2, 32800, Note_off_c, 0, 64, 64
2, 32822, Note_on_c, 0, 69, 83
2, 32828, Note_on_c, 0, 61, 91
2, 32829, Note_on_c, 0, 57, 74
2, 32835, Note_on_c, 0, 52, 72
2, 32835, Note_on_c, 0, 45, 74
2, 32846, Control_c, 0, 64, 0
2, 32869, Control_c, 0, 64, 127
2, 33023, Note_off_c, 0, 69, 64
2, 33029, Note_off_c, 0, 61, 64
2, 33030, Note_off_c, 0, 57, 64
2, 33036, Note_off_c, 0, 45, 64
2, 33036, Note_off_c, 0, 52, 64
2, 33071, Note_on_c, 0, 73, 77
2, 33072, Note_on_c, 0, 64, 77
2, 33078, Note_on_c, 0, 44, 72
2, 33080, Note_on_c, 0, 56, 68
2, 33088, Control_c, 0, 64, 0
2, 33110, Control_c, 0, 64, 127
2, 33125, Note_off_c, 0, 64, 64
2, 33167, Note_off_c, 0, 56, 64
2, 33177, Note_off_c, 0, 73, 64
2, 33240, Note_on_c, 0, 56, 72
2, 33244, Note_on_c, 0, 63, 79
2, 33249, Note_on_c, 0, 72, 72
2, 33274, Note_off_c, 0, 63, 64
2, 33284, Note_off_c, 0, 72, 64
2, 33297, Note_off_c, 0, 56, 64
2, 33304, Note_on_c, 0, 72, 72
2, 33313, Note_on_c, 0, 63, 74
2, 33336, Note_on_c, 0, 66, 79
2, 33344, Note_on_c, 0, 75, 74
2, 33347, Note_off_c, 0, 72, 64
2, 33349, Note_on_c, 0, 56, 67
2, 33356, Note_off_c, 0, 63, 64
2, 33409, Control_c, 0, 64, 0
2, 33459, Control_c, 0, 64, 127
2, 33615, Note_on_c, 0, 49, 68
2, 33617, Control_c, 0, 64, 0
2, 33624, Note_off_c, 0, 44, 64
2, 33661, Control_c, 0, 64, 127
2, 33729, Note_on_c, 0, 73, 64
2, 33729, Note_on_c, 0, 64, 55
2, 33735, Note_off_c, 0, 75, 64
2, 33751, Note_off_c, 0, 66, 64
2, 33755, Note_off_c, 0, 56, 64
2, 33785, Note_off_c, 0, 64, 64
2, 33787, Note_off_c, 0, 73, 64
2, 33833, Note_off_c, 0, 49, 64
2, 33860, Note_on_c, 0, 64, 57
2, 33860, Note_on_c, 0, 56, 53
2, 33861, Note_on_c, 0, 44, 59
2, 33866, Note_on_c, 0, 73, 55
2, 33873, Control_c, 0, 64, 0
2, 33908, Note_off_c, 0, 64, 64
2, 33920, Control_c, 0, 64, 127
2, 33925, Control_c, 0, 64, 0
2, 33955, Note_off_c, 0, 73, 64
2, 34011, Note_off_c, 0, 56, 64
2, 34036, Note_on_c, 0, 72, 53
2, 34036, Note_on_c, 0, 56, 53
2, 34039, Note_on_c, 0, 63, 59
2, 34088, Note_off_c, 0, 56, 64
2, 34099, Note_on_c, 0, 75, 67
2, 34104, Note_on_c, 0, 56, 48
2, 34105, Note_on_c, 0, 66, 54
2, 34108, Note_off_c, 0, 72, 64
2, 34111, Note_off_c, 0, 63, 64
2, 34139, Control_c, 0, 64, 0
2, 34183, Control_c, 0, 64, 127
2, 34396, Note_on_c, 0, 73, 57
2, 34403, Note_on_c, 0, 64, 39
2, 34412, Note_off_c, 0, 66, 64
2, 34412, Note_on_c, 0, 49, 39
2, 34414, Note_off_c, 0, 75, 64
2, 34419, Note_off_c, 0, 44, 64
2, 34424, Control_c, 0, 64, 0
2, 34465, Control_c, 0, 64, 127
2, 34522, Note_off_c, 0, 73, 64
2, 34543, Note_off_c, 0, 64, 64
2, 34607, Note_off_c, 0, 49, 64
2, 34613, Note_off_c, 0, 56, 64
2, 34725, Note_on_c, 0, 73, 78
2, 34733, Note_on_c, 0, 64, 59
2, 34733, Note_on_c, 0, 45, 39
2, 34738, Note_on_c, 0, 61, 49
2, 34741, Note_on_c, 0, 52, 35
2, 34746, Control_c, 0, 64, 0
2, 34790, Control_c, 0, 64, 127
2, 34900, Note_off_c, 0, 73, 64
2, 34908, Note_off_c, 0, 45, 64
2, 34908, Note_off_c, 0, 64, 64
2, 34913, Note_off_c, 0, 61, 64
2, 34916, Note_off_c, 0, 52, 64
2, 34918, Note_on_c, 0, 73, 74
2, 34948, Note_on_c, 0, 61, 72
2, 34949, Note_on_c, 0, 64, 68
2, 34966, Note_on_c, 0, 52, 39
2, 34969, Note_on_c, 0, 45, 35
2, 34975, Note_off_c, 0, 73, 64
2, 34977, Control_c, 0, 64, 0
2, 35031, Control_c, 0, 64, 127
2, 35133, Note_off_c, 0, 61, 64
2, 35151, Note_off_c, 0, 52, 64
2, 35154, Note_off_c, 0, 45, 64
2, 35165, Note_on_c, 0, 69, 72
2, 35166, Note_on_c, 0, 61, 72
2, 35175, Note_on_c, 0, 52, 53
2, 35179, Note_on_c, 0, 45, 49
2, 35180, Control_c, 0, 64, 0
2, 35188, Note_off_c, 0, 64, 64
2, 35227, Control_c, 0, 64, 127
2, 35331, Note_off_c, 0, 61, 64
2, 35340, Note_off_c, 0, 52, 64
2, 35344, Note_off_c, 0, 45, 64
2, 35345, Note_off_c, 0, 69, 64
2, 35362, Note_on_c, 0, 73, 92
2, 35364, Note_on_c, 0, 61, 96
2, 35366, Note_on_c, 0, 52, 49
2, 35366, Note_on_c, 0, 64, 68
2, 35372, Note_on_c, 0, 45, 63
2, 35384, Control_c, 0, 64, 0
2, 35430, Control_c, 0, 64, 127
2, 35454, Note_off_c, 0, 73, 64
2, 35520, Note_on_c, 0, 73, 91
2, 35529, Note_off_c, 0, 61, 64
2, 35531, Note_off_c, 0, 64, 64
2, 35531, Note_off_c, 0, 52, 64
2, 35537, Note_off_c, 0, 45, 64
2, 35556, Note_on_c, 0, 64, 86
2, 35556, Note_on_c, 0, 61, 96
2, 35562, Note_on_c, 0, 52, 63
2, 35571, Note_on_c, 0, 45, 67
2, 35572, Control_c, 0, 64, 0
2, 35612, Note_off_c, 0, 73, 64
2, 35618, Control_c, 0, 64, 127
2, 35726, Note_off_c, 0, 61, 64
2, 35726, Note_off_c, 0, 64, 64
2, 35732, Note_off_c, 0, 52, 64
2, 35741, Note_off_c, 0, 45, 64
2, 35748, Note_on_c, 0, 69, 83
2, 35748, Note_on_c, 0, 61, 88
2, 35758, Note_on_c, 0, 52, 54
2, 35762, Note_on_c, 0, 45, 78
2, 35933, Note_off_c, 0, 61, 64
2, 35933, Note_off_c, 0, 69, 64
2, 35943, Note_off_c, 0, 52, 64
2, 35947, Note_off_c, 0, 45, 64
2, 35983, Note_on_c, 0, 73, 83
2, 35987, Note_on_c, 0, 76, 83
2, 35991, Note_on_c, 0, 57, 78
2, 35991, Note_on_c, 0, 61, 79
2, 35993, Note_on_c, 0, 64, 74
2, 35998, Control_c, 0, 64, 0
2, 36044, Control_c, 0, 64, 127
2, 36209, Note_off_c, 0, 73, 64
2, 36209, Note_on_c, 0, 72, 79
2, 36210, Note_on_c, 0, 75, 74
2, 36212, Note_on_c, 0, 63, 39
2, 36212, Note_on_c, 0, 60, 39
2, 36213, Note_off_c, 0, 76, 64
2, 36217, Note_off_c, 0, 61, 64
2, 36219, Note_off_c, 0, 64, 64
2, 36292, Note_on_c, 0, 74, 101
2, 36300, Note_on_c, 0, 62, 73
2, 36300, Note_on_c, 0, 78, 83
2, 36303, Note_off_c, 0, 72, 64
2, 36304, Note_off_c, 0, 75, 64
2, 36306, Note_off_c, 0, 60, 64
2, 36306, Note_off_c, 0, 63, 64
2, 36307, Note_on_c, 0, 66, 83
2, 36361, Control_c, 0, 64, 0
2, 36445, Control_c, 0, 64, 127
2, 36677, Note_on_c, 0, 61, 67
2, 36678, Note_on_c, 0, 73, 84
2, 36681, Note_on_c, 0, 76, 72
2, 36685, Note_on_c, 0, 64, 64
2, 36695, Note_off_c, 0, 74, 64
2, 36703, Note_off_c, 0, 78, 64
2, 36703, Note_off_c, 0, 62, 64
2, 36710, Note_off_c, 0, 66, 64
2, 36787, Note_off_c, 0, 57, 64
2, 36812, Note_off_c, 0, 61, 64
2, 36813, Note_off_c, 0, 73, 64
2, 36816, Note_off_c, 0, 76, 64
2, 36816, Note_on_c, 0, 72, 57
2, 36820, Note_off_c, 0, 64, 64
2, 36820, Note_on_c, 0, 75, 36
2, 36845, Note_on_c, 0, 78, 72
2, 36874, Note_off_c, 0, 72, 64
2, 36877, Note_on_c, 0, 64, 49
2, 36878, Note_off_c, 0, 75, 64
2, 36880, Note_on_c, 0, 61, 57
2, 36883, Note_on_c, 0, 76, 54
2, 36884, Note_on_c, 0, 57, 55
2, 36888, Note_on_c, 0, 73, 67
2, 36904, Note_off_c, 0, 78, 64
2, 36936, Control_c, 0, 64, 0
2, 36975, Control_c, 0, 64, 127
2, 37140, Note_on_c, 0, 75, 60
2, 37140, Note_on_c, 0, 72, 55
2, 37140, Note_on_c, 0, 63, 49
2, 37143, Note_on_c, 0, 60, 43
2, 37146, Note_off_c, 0, 64, 64
2, 37149, Note_off_c, 0, 61, 64
2, 37152, Note_off_c, 0, 76, 64
2, 37157, Note_off_c, 0, 73, 64
2, 37209, Note_on_c, 0, 78, 48
2, 37212, Note_on_c, 0, 62, 49
2, 37212, Note_on_c, 0, 74, 57
2, 37214, Note_off_c, 0, 63, 64
2, 37214, Note_off_c, 0, 72, 64
2, 37214, Note_off_c, 0, 75, 64
2, 37217, Note_off_c, 0, 60, 64
2, 37217, Note_on_c, 0, 66, 50
2, 37244, Control_c, 0, 64, 0
2, 37326, Control_c, 0, 64, 127
2, 37681, Control_c, 0, 64, 0
2, 37754, Note_off_c, 0, 74, 64
2, 37776, Note_off_c, 0, 62, 64
2, 37781, Note_off_c, 0, 66, 64
2, 37781, Note_on_c, 0, 76, 57
2, 37784, Note_on_c, 0, 61, 49
2, 37785, Note_on_c, 0, 73, 53
2, 37791, Note_on_c, 0, 64, 24
2, 37799, Note_off_c, 0, 78, 64
2, 37890, Note_off_c, 0, 57, 64
2, 37939, Note_off_c, 0, 61, 64
2, 37940, Note_off_c, 0, 73, 64
2, 37946, Note_off_c, 0, 64, 64
2, 37946, Note_on_c, 0, 61, 59
2, 37948, Note_off_c, 0, 76, 64
2, 37948, Note_on_c, 0, 52, 40
2, 37950, Note_on_c, 0, 73, 68
2, 37950, Note_on_c, 0, 64, 68
2, 37956, Note_on_c, 0, 45, 49
2, 37977, Control_c, 0, 64, 0
2, 38012, Control_c, 0, 64, 127
2, 38111, Note_off_c, 0, 61, 64
2, 38113, Note_off_c, 0, 52, 64
2, 38115, Note_off_c, 0, 64, 64
2, 38115, Note_off_c, 0, 73, 64
2, 38116, Note_on_c, 0, 73, 63
2, 38121, Note_off_c, 0, 45, 64
2, 38159, Note_on_c, 0, 64, 73
2, 38162, Note_on_c, 0, 61, 79
2, 38163, Note_on_c, 0, 45, 49
2, 38168, Note_on_c, 0, 57, 50
2, 38170, Note_on_c, 0, 52, 40
2, 38183, Note_off_c, 0, 73, 64
2, 38201, Control_c, 0, 64, 0
2, 38252, Control_c, 0, 64, 127
2, 38334, Note_off_c, 0, 61, 64
2, 38341, Note_off_c, 0, 57, 64
2, 38351, Note_off_c, 0, 64, 64
2, 38361, Note_off_c, 0, 45, 64
2, 38366, Note_off_c, 0, 52, 64
2, 38372, Note_on_c, 0, 61, 74
2, 38375, Note_on_c, 0, 45, 60
2, 38376, Note_on_c, 0, 69, 68
2, 38384, Note_on_c, 0, 52, 59
2, 38385, Note_on_c, 0, 57, 54
2, 38408, Control_c, 0, 64, 0
2, 38461, Control_c, 0, 64, 127
2, 38500, Note_off_c, 0, 57, 64
2, 38507, Note_off_c, 0, 61, 64
2, 38509, Note_off_c, 0, 45, 64
2, 38525, Note_off_c, 0, 52, 64
2, 38561, Note_off_c, 0, 69, 64
2, 38569, Note_on_c, 0, 73, 79
2, 38575, Note_on_c, 0, 64, 74
2, 38578, Note_on_c, 0, 57, 68
2, 38578, Note_on_c, 0, 52, 59
2, 38580, Note_on_c, 0, 45, 67
2, 38590, Control_c, 0, 64, 0
2, 38636, Control_c, 0, 64, 127
2, 38649, Note_off_c, 0, 64, 64
2, 38699, Note_off_c, 0, 73, 64
2, 38704, Note_off_c, 0, 45, 64
2, 38714, Note_off_c, 0, 57, 64
2, 38716, Note_on_c, 0, 73, 84
2, 38726, Note_off_c, 0, 52, 64
2, 38760, Note_on_c, 0, 64, 63
2, 38762, Note_on_c, 0, 61, 79
2, 38767, Note_on_c, 0, 52, 49
2, 38769, Note_on_c, 0, 57, 60
2, 38769, Note_on_c, 0, 45, 62
2, 38787, Control_c, 0, 64, 0
2, 38826, Control_c, 0, 64, 127
2, 38829, Note_off_c, 0, 73, 64
2, 38948, Note_off_c, 0, 64, 64
2, 38950, Note_off_c, 0, 61, 64
2, 38954, Note_on_c, 0, 69, 74
2, 38955, Note_off_c, 0, 52, 64
2, 38957, Note_off_c, 0, 45, 64
2, 38957, Note_off_c, 0, 57, 64
2, 38960, Note_on_c, 0, 61, 81
2, 38965, Note_on_c, 0, 57, 67
2, 38965, Note_on_c, 0, 52, 63
2, 38971, Note_on_c, 0, 45, 63
2, 38975, Control_c, 0, 64, 0
2, 39013, Control_c, 0, 64, 127
2, 39155, Note_off_c, 0, 69, 64
2, 39158, Note_on_c, 0, 44, 68
2, 39161, Note_off_c, 0, 61, 64
2, 39164, Note_on_c, 0, 56, 68
2, 39165, Note_on_c, 0, 73, 77
2, 39166, Note_off_c, 0, 52, 64
2, 39166, Note_off_c, 0, 57, 64
2, 39170, Note_on_c, 0, 64, 83
2, 39172, Note_off_c, 0, 45, 64
2, 39180, Control_c, 0, 64, 0
2, 39201, Control_c, 0, 64, 127
2, 39214, Note_off_c, 0, 64, 64
2, 39274, Note_off_c, 0, 56, 64
2, 39292, Note_on_c, 0, 56, 68
2, 39296, Note_on_c, 0, 72, 73
2, 39296, Note_on_c, 0, 63, 79
2, 39309, Note_off_c, 0, 73, 64
2, 39324, Note_off_c, 0, 63, 64
2, 39324, Note_off_c, 0, 72, 64
2, 39340, Note_on_c, 0, 72, 73
2, 39340, Note_on_c, 0, 63, 79
2, 39358, Note_off_c, 0, 56, 64
2, 39374, Note_off_c, 0, 63, 64
2, 39374, Note_off_c, 0, 72, 64
2, 39377, Note_on_c, 0, 75, 81
2, 39384, Note_on_c, 0, 56, 64
2, 39387, Note_on_c, 0, 66, 83
2, 39430, Control_c, 0, 64, 0
2, 39462, Control_c, 0, 64, 127
2, 39618, Note_on_c, 0, 49, 73
2, 39632, Note_off_c, 0, 44, 64
2, 39641, Control_c, 0, 64, 0
2, 39674, Control_c, 0, 64, 127
2, 39720, Note_on_c, 0, 73, 72
2, 39723, Note_on_c, 0, 64, 64
2, 39726, Note_off_c, 0, 75, 64
2, 39731, Note_off_c, 0, 66, 64
2, 39772, Note_off_c, 0, 64, 64
2, 39779, Note_off_c, 0, 73, 64
2, 39835, Note_off_c, 0, 56, 64
2, 39839, Note_off_c, 0, 49, 64
2, 39841, Note_on_c, 0, 73, 54
2, 39847, Note_on_c, 0, 64, 57
2, 39849, Note_on_c, 0, 44, 60
2, 39860, Note_on_c, 0, 56, 54
2, 39862, Control_c, 0, 64, 0
2, 39893, Note_off_c, 0, 64, 64
2, 39910, Control_c, 0, 64, 127
2, 39950, Note_off_c, 0, 73, 64
2, 39970, Note_off_c, 0, 56, 64
2, 40011, Note_on_c, 0, 63, 44
2, 40012, Note_on_c, 0, 56, 54
2, 40014, Note_on_c, 0, 72, 50
2, 40080, Note_on_c, 0, 75, 59
2, 40086, Note_off_c, 0, 56, 64
2, 40088, Note_off_c, 0, 72, 64
2, 40094, Note_on_c, 0, 66, 44
2, 40097, Note_off_c, 0, 63, 64
2, 40100, Note_on_c, 0, 56, 49
2, 40117, Control_c, 0, 64, 0
2, 40162, Control_c, 0, 64, 127
2, 40369, Note_off_c, 0, 44, 64
2, 40375, Note_on_c, 0, 73, 53
2, 40379, Note_off_c, 0, 66, 64
2, 40382, Note_on_c, 0, 64, 44
2, 40389, Note_on_c, 0, 49, 33
2, 40394, Note_off_c, 0, 75, 64
2, 40410, Control_c, 0, 64, 0
2, 40463, Control_c, 0, 64, 127
2, 40506, Note_off_c, 0, 56, 64
2, 40519, Note_off_c, 0, 64, 64
2, 40519, Note_off_c, 0, 73, 64
2, 40520, Note_off_c, 0, 49, 64
2, 40692, Note_on_c, 0, 66, 64
2, 40695, Note_on_c, 0, 74, 64
2, 40695, Note_on_c, 0, 62, 55
2, 40699, Note_on_c, 0, 59, 49
2, 40700, Note_on_c, 0, 47, 49
2, 40715, Control_c, 0, 64, 0
2, 40747, Control_c, 0, 64, 127
2, 40771, Note_off_c, 0, 47, 64
2, 40771, Note_off_c, 0, 66, 64
2, 40777, Note_off_c, 0, 74, 64
2, 40778, Note_off_c, 0, 62, 64
2, 40852, Note_off_c, 0, 59, 64
2, 40896, Note_on_c, 0, 74, 68
2, 40948, Note_on_c, 0, 52, 49
2, 40950, Note_on_c, 0, 62, 67
2, 40951, Note_off_c, 0, 74, 64
2, 40954, Note_on_c, 0, 59, 54
2, 40956, Note_on_c, 0, 71, 67
2, 40961, Note_on_c, 0, 68, 67
2, 40970, Control_c, 0, 64, 0
2, 41017, Note_off_c, 0, 68, 64
2, 41017, Control_c, 0, 64, 127
2, 41035, Note_off_c, 0, 71, 64
2, 41049, Note_off_c, 0, 62, 64
2, 41069, Note_off_c, 0, 52, 64
2, 41071, Note_off_c, 0, 59, 64
2, 41173, Note_on_c, 0, 52, 54
2, 41177, Note_on_c, 0, 68, 63
2, 41180, Note_on_c, 0, 62, 63
2, 41181, Note_on_c, 0, 76, 68
2, 41187, Note_on_c, 0, 59, 54
2, 41194, Control_c, 0, 64, 0
2, 41238, Control_c, 0, 64, 127
2, 41253, Note_off_c, 0, 76, 64
2, 41268, Note_off_c, 0, 68, 64
2, 41283, Note_off_c, 0, 59, 64
2, 41291, Note_off_c, 0, 52, 64
2, 41300, Note_off_c, 0, 62, 64
2, 41405, Note_on_c, 0, 64, 68
2, 41410, Note_on_c, 0, 61, 62
2, 41415, Note_on_c, 0, 73, 72
2, 41415, Note_on_c, 0, 57, 54
2, 41415, Note_on_c, 0, 52, 49
2, 41415, Note_on_c, 0, 45, 53
2, 41433, Control_c, 0, 64, 0
2, 41464, Control_c, 0, 64, 127
2, 41471, Note_off_c, 0, 64, 64
2, 41474, Note_off_c, 0, 45, 64
2, 41484, Note_off_c, 0, 52, 64
2, 41487, Note_off_c, 0, 73, 64
2, 41501, Note_off_c, 0, 57, 64
2, 41524, Note_off_c, 0, 61, 64
2, 41550, Note_on_c, 0, 73, 67
2, 41593, Note_on_c, 0, 64, 72
2, 41595, Note_on_c, 0, 61, 77
2, 41611, Note_on_c, 0, 52, 49
2, 41621, Note_on_c, 0, 45, 43
2, 41621, Control_c, 0, 64, 0
2, 41626, Note_off_c, 0, 73, 64
2, 41670, Control_c, 0, 64, 127
2, 41685, Note_off_c, 0, 45, 64
2, 41693, Note_off_c, 0, 61, 64
2, 41721, Note_off_c, 0, 52, 64
2, 41779, Note_off_c, 0, 64, 64
2, 41804, Note_on_c, 0, 61, 67
2, 41814, Note_on_c, 0, 69, 74
2, 41814, Note_on_c, 0, 52, 49
2, 41828, Note_on_c, 0, 45, 48
2, 41829, Control_c, 0, 64, 0
2, 41854, Control_c, 0, 64, 127
2, 41861, Note_off_c, 0, 61, 64
2, 41873, Note_off_c, 0, 45, 64
2, 41874, Note_off_c, 0, 52, 64
2, 41903, Note_off_c, 0, 69, 64
2, 42004, Note_on_c, 0, 63, 67
2, 42005, Note_on_c, 0, 71, 67
2, 42011, Note_on_c, 0, 66, 67
2, 42017, Note_on_c, 0, 54, 54
2, 42017, Note_on_c, 0, 45, 57
2, 42024, Control_c, 0, 64, 0
2, 42056, Note_off_c, 0, 66, 64
2, 42057, Control_c, 0, 64, 127
2, 42071, Note_off_c, 0, 71, 64
2, 42089, Note_off_c, 0, 63, 64
2, 42094, Note_off_c, 0, 45, 64
2, 42096, Note_off_c, 0, 54, 64
2, 42140, Note_on_c, 0, 71, 68
2, 42188, Note_off_c, 0, 71, 64
2, 42200, Note_on_c, 0, 71, 68
2, 42205, Note_on_c, 0, 62, 79
2, 42207, Note_on_c, 0, 65, 83
2, 42214, Note_on_c, 0, 45, 59
2, 42217, Note_on_c, 0, 56, 67
2, 42228, Control_c, 0, 64, 0
2, 42283, Control_c, 0, 64, 127
2, 42289, Note_off_c, 0, 65, 64
2, 42296, Note_off_c, 0, 56, 64
2, 42297, Note_off_c, 0, 45, 64
2, 42308, Note_off_c, 0, 62, 64
2, 42329, Note_off_c, 0, 71, 64
2, 42416, Note_on_c, 0, 71, 68
2, 42418, Note_on_c, 0, 64, 72
2, 42421, Note_on_c, 0, 45, 44
2, 42424, Note_on_c, 0, 56, 63
2, 42428, Note_on_c, 0, 62, 49
2, 42433, Control_c, 0, 64, 0
2, 42477, Control_c, 0, 64, 127
2, 42482, Note_off_c, 0, 64, 64
2, 42485, Note_off_c, 0, 56, 64
2, 42495, Note_off_c, 0, 62, 64
2, 42495, Note_off_c, 0, 71, 64
2, 42505, Note_off_c, 0, 45, 64
2, 42616, Note_on_c, 0, 61, 73
2, 42619, Note_on_c, 0, 73, 68
2, 42619, Note_on_c, 0, 64, 68
2, 42626, Note_on_c, 0, 45, 54
2, 42629, Note_on_c, 0, 57, 49
2, 42639, Control_c, 0, 64, 0
2, 42675, Note_off_c, 0, 64, 64
2, 42683, Note_off_c, 0, 45, 64
2, 42689, Control_c, 0, 64, 127
2, 42693, Note_off_c, 0, 73, 64
2, 42699, Note_off_c, 0, 61, 64
2, 42711, Note_off_c, 0, 57, 64
2, 42758, Note_on_c, 0, 73, 74
2, 42799, Note_on_c, 0, 64, 74
2, 42803, Note_on_c, 0, 61, 79
2, 42813, Note_on_c, 0, 57, 63
2, 42817, Note_on_c, 0, 45, 63
2, 42826, Control_c, 0, 64, 0
2, 42866, Note_off_c, 0, 73, 64
2, 42881, Note_off_c, 0, 45, 64
2, 42881, Control_c, 0, 64, 127
2, 42896, Note_off_c, 0, 61, 64
2, 42901, Note_off_c, 0, 57, 64
2, 42964, Note_off_c, 0, 64, 64
2, 42981, Note_on_c, 0, 61, 68
2, 42992, Note_on_c, 0, 69, 73
2, 43000, Note_on_c, 0, 57, 63
2, 43002, Note_on_c, 0, 45, 67
2, 43002, Control_c, 0, 64, 0
2, 43030, Control_c, 0, 64, 127
2, 43045, Note_off_c, 0, 69, 64
2, 43045, Note_off_c, 0, 61, 64
2, 43068, Note_off_c, 0, 45, 64
2, 43089, Note_off_c, 0, 57, 64
2, 43187, Note_on_c, 0, 69, 72
2, 43189, Note_on_c, 0, 62, 67
2, 43192, Note_on_c, 0, 74, 77
2, 43192, Note_on_c, 0, 54, 63
2, 43197, Note_on_c, 0, 45, 59
2, 43210, Control_c, 0, 64, 0
2, 43248, Control_c, 0, 64, 127
2, 43262, Note_off_c, 0, 69, 64
2, 43269, Note_off_c, 0, 62, 64
2, 43271, Note_off_c, 0, 74, 64
2, 43281, Note_off_c, 0, 45, 64
2, 43288, Note_off_c, 0, 54, 64
2, 43340, Note_on_c, 0, 74, 53
2, 43370, Note_on_c, 0, 69, 73
2, 43377, Note_on_c, 0, 62, 73
2, 43380, Note_on_c, 0, 71, 74
2, 43386, Note_on_c, 0, 53, 54
2, 43388, Control_c, 0, 64, 0
2, 43395, Note_off_c, 0, 74, 64
2, 43395, Note_on_c, 0, 45, 49
2, 43434, Control_c, 0, 64, 127
2, 43467, Note_off_c, 0, 45, 64
2, 43477, Note_off_c, 0, 69, 64
2, 43491, Note_off_c, 0, 53, 64
2, 43497, Note_off_c, 0, 62, 64
2, 43561, Note_off_c, 0, 71, 64
2, 43573, Note_on_c, 0, 68, 72
2, 43576, Note_on_c, 0, 52, 50
2, 43578, Note_on_c, 0, 62, 57
2, 43583, Note_on_c, 0, 76, 68
2, 43586, Note_on_c, 0, 45, 48
2, 43596, Control_c, 0, 64, 0
2, 43637, Control_c, 0, 64, 127
2, 43658, Note_off_c, 0, 76, 64
2, 43680, Note_off_c, 0, 45, 64
2, 43680, Note_off_c, 0, 68, 64
2, 43710, Note_off_c, 0, 62, 64
2, 43721, Note_off_c, 0, 52, 64
2, 43788, Note_on_c, 0, 73, 59
2, 43792, Note_on_c, 0, 64, 64
2, 43792, Note_on_c, 0, 61, 64
2, 43792, Note_on_c, 0, 52, 48
2, 43802, Note_on_c, 0, 45, 48
2, 43811, Control_c, 0, 64, 0
2, 43856, Control_c, 0, 64, 127
2, 43871, Note_off_c, 0, 45, 64
2, 43884, Note_off_c, 0, 73, 64
2, 43890, Note_off_c, 0, 64, 64
2, 43893, Note_off_c, 0, 61, 64
2, 43937, Note_off_c, 0, 52, 64
2, 43943, Note_on_c, 0, 73, 69
2, 43978, Note_on_c, 0, 64, 79
2, 43987, Note_on_c, 0, 61, 79
2, 43993, Control_c, 0, 64, 0
2, 44000, Note_on_c, 0, 52, 49
2, 44005, Note_on_c, 0, 45, 44
2, 44015, Note_off_c, 0, 73, 64
2, 44044, Control_c, 0, 64, 127
2, 44060, Note_off_c, 0, 45, 64
2, 44070, Note_off_c, 0, 61, 64
2, 44080, Note_off_c, 0, 52, 64
2, 44185, Note_off_c, 0, 64, 64
2, 44200, Note_on_c, 0, 61, 68
2, 44204, Note_on_c, 0, 69, 73
2, 44208, Control_c, 0, 64, 0
2, 44214, Note_on_c, 0, 52, 31
2, 44218, Note_on_c, 0, 45, 57
2, 44248, Note_off_c, 0, 61, 64
2, 44256, Control_c, 0, 64, 127
2, 44264, Note_off_c, 0, 52, 64
2, 44277, Note_off_c, 0, 45, 64
2, 44277, Note_off_c, 0, 69, 64
2, 44407, Note_on_c, 0, 63, 60
2, 44408, Control_c, 0, 64, 0
2, 44416, Note_on_c, 0, 71, 68
2, 44418, Note_on_c, 0, 66, 68
2, 44419, Note_on_c, 0, 54, 57
2, 44423, Note_on_c, 0, 45, 59
2, 44452, Control_c, 0, 64, 127
2, 44460, Note_off_c, 0, 66, 64
2, 44485, Note_off_c, 0, 71, 64
2, 44493, Note_off_c, 0, 45, 64
2, 44506, Note_off_c, 0, 54, 64
2, 44528, Note_off_c, 0, 63, 64
2, 44572, Note_on_c, 0, 71, 73
2, 44612, Note_off_c, 0, 71, 64
2, 44624, Note_on_c, 0, 71, 73
2, 44624, Note_on_c, 0, 65, 67
2, 44626, Note_on_c, 0, 62, 77
2, 44633, Note_on_c, 0, 45, 54
2, 44635, Note_on_c, 0, 56, 63
2, 44645, Control_c, 0, 64, 0
2, 44708, Control_c, 0, 64, 127
2, 44725, Note_off_c, 0, 45, 64
2, 44725, Note_off_c, 0, 65, 64
2, 44731, Note_off_c, 0, 56, 64
2, 44753, Note_off_c, 0, 62, 64
2, 44769, Note_off_c, 0, 71, 64
2, 44866, Note_on_c, 0, 71, 67
2, 44872, Note_on_c, 0, 64, 67
2, 44872, Note_on_c, 0, 56, 40
2, 44878, Note_on_c, 0, 62, 62
2, 44878, Note_on_c, 0, 45, 48
2, 44892, Control_c, 0, 64, 0
2, 44945, Control_c, 0, 64, 127
2, 44982, Note_off_c, 0, 64, 64
2, 44987, Note_off_c, 0, 56, 64
2, 44996, Note_off_c, 0, 62, 64
2, 44996, Note_off_c, 0, 71, 64
2, 45003, Note_off_c, 0, 45, 64
2, 45134, Note_on_c, 0, 61, 57
2, 45140, Note_on_c, 0, 73, 74
2, 45140, Note_on_c, 0, 64, 72
2, 45149, Note_on_c, 0, 57, 40
2, 45149, Note_on_c, 0, 45, 49
2, 45154, Control_c, 0, 64, 0
2, 45207, Control_c, 0, 64, 127
2, 45247, Note_off_c, 0, 73, 64
2, 45255, Note_off_c, 0, 64, 64
2, 45268, Note_off_c, 0, 45, 64
2, 45284, Note_off_c, 0, 57, 64
2, 45306, Note_off_c, 0, 61, 64
2, 45370, Note_on_c, 0, 73, 55
2, 45416, Note_on_c, 0, 61, 67
2, 45421, Note_on_c, 0, 64, 50
2, 45441, Note_on_c, 0, 45, 33
2, 45443, Note_on_c, 0, 57, 38
2, 45451, Note_off_c, 0, 73, 64
2, 45453, Control_c, 0, 64, 0
2, 45496, Control_c, 0, 64, 127
2, 45588, Note_off_c, 0, 45, 64
2, 45591, Note_off_c, 0, 61, 64
2, 45605, Note_off_c, 0, 57, 64
2, 45746, Note_on_c, 0, 52, 53
2, 45748, Note_on_c, 0, 61, 67
2, 45753, Note_off_c, 0, 64, 64
2, 45755, Note_on_c, 0, 69, 72
2, 45761, Control_c, 0, 64, 0
2, 45778, Note_on_c, 0, 45, 24
2, 45797, Control_c, 0, 64, 127
2, 45906, Note_off_c, 0, 69, 64
2, 45938, Note_off_c, 0, 61, 64
2, 45964, Note_off_c, 0, 45, 64
2, 46017, Note_off_c, 0, 52, 64
2, 46114, Note_on_c, 0, 64, 68
2, 46229, Note_on_c, 0, 33, 68
2, 46236, Note_on_c, 0, 76, 74
2, 46236, Control_c, 0, 64, 0
2, 46280, Control_c, 0, 64, 127
2, 46328, Note_off_c, 0, 76, 64
2, 46338, Note_off_c, 0, 64, 64
2, 46442, Note_on_c, 0, 76, 62
2, 46486, Note_on_c, 0, 72, 60
2, 46499, Note_on_c, 0, 60, 54
2, 46502, Note_on_c, 0, 52, 62
2, 46502, Control_c, 0, 64, 0
2, 46530, Note_off_c, 0, 76, 64
2, 46538, Control_c, 0, 64, 127
2, 46583, Note_off_c, 0, 52, 64
2, 46593, Note_off_c, 0, 72, 64
2, 46599, Note_off_c, 0, 60, 64
2, 46741, Note_on_c, 0, 59, 44
2, 46743, Note_on_c, 0, 52, 48
2, 46766, Note_on_c, 0, 75, 50
2, 46789, Note_on_c, 0, 76, 57
2, 46792, Note_off_c, 0, 33, 64
2, 46797, Note_off_c, 0, 75, 64
2, 46826, Note_off_c, 0, 52, 64
2, 46831, Note_on_c, 0, 75, 63
2, 46836, Note_off_c, 0, 76, 64
2, 46859, Note_on_c, 0, 76, 60
2, 46867, Note_off_c, 0, 75, 64
2, 46899, Note_on_c, 0, 75, 63
2, 46901, Note_off_c, 0, 59, 64
2, 46915, Note_off_c, 0, 76, 64
2, 46935, Note_on_c, 0, 74, 62
2, 46952, Note_off_c, 0, 75, 64
2, 46969, Note_on_c, 0, 75, 55
2, 46977, Note_off_c, 0, 74, 64
2, 46992, Control_c, 0, 64, 0
2, 47000, Note_on_c, 0, 45, 55
2, 47003, Note_on_c, 0, 76, 68
2, 47014, Note_off_c, 0, 75, 64
2, 47015, Control_c, 0, 64, 0
2, 47048, Control_c, 0, 64, 127
2, 47073, Note_off_c, 0, 76, 64
2, 47150, Note_on_c, 0, 76, 64
2, 47189, Note_on_c, 0, 69, 72
2, 47196, Note_on_c, 0, 60, 53
2, 47196, Note_on_c, 0, 52, 62
2, 47204, Control_c, 0, 64, 0
2, 47208, Note_off_c, 0, 76, 64
2, 47218, Note_off_c, 0, 45, 64
2, 47238, Note_off_c, 0, 52, 64
2, 47241, Note_off_c, 0, 60, 64
2, 47252, Control_c, 0, 64, 127
2, 47411, Note_on_c, 0, 72, 73
2, 47411, Note_on_c, 0, 60, 48
2, 47411, Note_on_c, 0, 52, 59
2, 47420, Control_c, 0, 64, 0
2, 47431, Note_off_c, 0, 69, 64
2, 47464, Control_c, 0, 64, 127
2, 47617, Note_on_c, 0, 45, 63
2, 47620, Note_on_c, 0, 71, 68
2, 47621, Control_c, 0, 64, 0
2, 47628, Note_off_c, 0, 52, 64
2, 47657, Note_off_c, 0, 72, 64
2, 47676, Control_c, 0, 64, 127
2, 47696, Note_off_c, 0, 60, 64
2, 47698, Note_off_c, 0, 71, 64
2, 47756, Note_off_c, 0, 45, 64
2, 47795, Note_on_c, 0, 71, 68
2, 47827, Note_on_c, 0, 66, 73
2, 47836, Control_c, 0, 64, 0
2, 47841, Note_on_c, 0, 52, 59
2, 47841, Note_on_c, 0, 62, 33
2, 47849, Note_off_c, 0, 71, 64
2, 47875, Control_c, 0, 64, 127
2, 47900, Note_off_c, 0, 52, 64
2, 47931, Note_off_c, 0, 62, 64
2, 47984, Note_off_c, 0, 66, 64
2, 48030, Note_on_c, 0, 62, 44
2, 48036, Note_on_c, 0, 52, 57
2, 48044, Note_on_c, 0, 69, 57
2, 48079, Note_on_c, 0, 68, 48
2, 48087, Note_off_c, 0, 69, 64
2, 48112, Note_on_c, 0, 69, 72
2, 48115, Note_off_c, 0, 68, 64
2, 48128, Note_off_c, 0, 52, 64
2, 48137, Note_off_c, 0, 62, 64
2, 48150, Note_on_c, 0, 68, 77
2, 48163, Note_off_c, 0, 69, 64
2, 48187, Note_off_c, 0, 68, 64
2, 48188, Note_on_c, 0, 66, 79
2, 48220, Note_on_c, 0, 68, 77
2, 48233, Note_off_c, 0, 66, 64
2, 48262, Note_on_c, 0, 69, 74
2, 48276, Note_off_c, 0, 68, 64
2, 48282, Note_on_c, 0, 45, 63
2, 48288, Control_c, 0, 64, 0
2, 48338, Control_c, 0, 64, 127
2, 48371, Note_off_c, 0, 69, 64
2, 48436, Note_on_c, 0, 64, 40
2, 48475, Note_on_c, 0, 69, 68
2, 48476, Note_on_c, 0, 60, 62
2, 48485, Note_off_c, 0, 45, 64
2, 48485, Note_on_c, 0, 52, 63
2, 48485, Control_c, 0, 64, 0
2, 48510, Note_off_c, 0, 64, 64
2, 48523, Note_off_c, 0, 60, 64
2, 48527, Note_off_c, 0, 52, 64
2, 48533, Control_c, 0, 64, 127
2, 48620, Note_off_c, 0, 69, 64
2, 48642, Note_on_c, 0, 64, 72
2, 48672, Note_on_c, 0, 60, 50
2, 48680, Note_on_c, 0, 69, 72
2, 48685, Note_on_c, 0, 52, 57
2, 48695, Control_c, 0, 64, 0
2, 48720, Note_off_c, 0, 64, 64
2, 48740, Control_c, 0, 64, 127
2, 48828, Note_on_c, 0, 72, 73
2, 48852, Note_off_c, 0, 69, 64
2, 48878, Control_c, 0, 64, 0
2, 48884, Note_on_c, 0, 45, 63
2, 48885, Note_on_c, 0, 76, 81
2, 48900, Note_off_c, 0, 72, 64
2, 48907, Note_off_c, 0, 52, 64
2, 48910, Note_off_c, 0, 60, 64
2, 48932, Control_c, 0, 64, 127
2, 48952, Note_off_c, 0, 76, 64
2, 49041, Note_on_c, 0, 76, 54
2, 49070, Note_off_c, 0, 45, 64
2, 49080, Note_on_c, 0, 72, 74
2, 49080, Note_on_c, 0, 60, 57
2, 49080, Note_on_c, 0, 52, 60
2, 49082, Control_c, 0, 64, 0
2, 49097, Note_off_c, 0, 76, 64
2, 49133, Control_c, 0, 64, 127
2, 49140, Note_off_c, 0, 52, 64
2, 49155, Note_off_c, 0, 60, 64
2, 49209, Note_off_c, 0, 72, 64
2, 49283, Note_on_c, 0, 76, 59
2, 49291, Note_on_c, 0, 59, 62
2, 49291, Note_on_c, 0, 52, 64
2, 49313, Note_on_c, 0, 75, 72
2, 49325, Note_off_c, 0, 76, 64
2, 49356, Note_on_c, 0, 76, 60
2, 49359, Note_off_c, 0, 75, 64
2, 49391, Note_on_c, 0, 75, 62
2, 49395, Note_off_c, 0, 52, 64
2, 49411, Note_off_c, 0, 76, 64
2, 49434, Note_on_c, 0, 74, 67
2, 49438, Note_off_c, 0, 75, 64
2, 49443, Note_off_c, 0, 59, 64
2, 49466, Note_on_c, 0, 75, 63
2, 49480, Note_off_c, 0, 74, 64
2, 49508, Note_on_c, 0, 76, 74
2, 49508, Note_on_c, 0, 45, 62
2, 49512, Control_c, 0, 64, 0
2, 49520, Note_off_c, 0, 75, 64
2, 49567, Control_c, 0, 64, 127
2, 49574, Note_off_c, 0, 76, 64
2, 49659, Note_on_c, 0, 76, 63
2, 49695, Note_on_c, 0, 69, 68
2, 49700, Note_on_c, 0, 60, 60
2, 49706, Note_off_c, 0, 45, 64
2, 49709, Note_on_c, 0, 52, 63
2, 49709, Control_c, 0, 64, 0
2, 49716, Note_off_c, 0, 76, 64
2, 49742, Note_off_c, 0, 52, 64
2, 49748, Control_c, 0, 64, 127
2, 49754, Note_off_c, 0, 60, 64
2, 49896, Note_on_c, 0, 60, 49
2, 49899, Note_on_c, 0, 72, 68
2, 49902, Note_on_c, 0, 52, 62
2, 49911, Control_c, 0, 64, 0
2, 49918, Note_off_c, 0, 69, 64
2, 49976, Control_c, 0, 64, 127
2, 50101, Note_on_c, 0, 71, 74
2, 50101, Control_c, 0, 64, 0
2, 50108, Note_on_c, 0, 45, 64
2, 50134, Note_off_c, 0, 52, 64
2, 50137, Note_off_c, 0, 72, 64
2, 50156, Note_off_c, 0, 60, 64
2, 50162, Control_c, 0, 64, 127
2, 50189, Note_off_c, 0, 71, 64
2, 50245, Note_off_c, 0, 45, 64
2, 50288, Note_on_c, 0, 71, 68
2, 50327, Note_on_c, 0, 66, 79
2, 50332, Control_c, 0, 64, 0
2, 50343, Note_on_c, 0, 62, 49
2, 50343, Note_on_c, 0, 52, 63
2, 50353, Note_off_c, 0, 71, 64
2, 50376, Control_c, 0, 64, 127
2, 50412, Note_off_c, 0, 52, 64
2, 50435, Note_off_c, 0, 62, 64
2, 50509, Note_off_c, 0, 66, 64
2, 50541, Note_on_c, 0, 62, 50
2, 50544, Note_on_c, 0, 69, 63
2, 50547, Note_on_c, 0, 52, 57
2, 50574, Note_on_c, 0, 68, 74
2, 50583, Note_off_c, 0, 69, 64
2, 50606, Note_on_c, 0, 69, 79
2, 50612, Note_off_c, 0, 68, 64
2, 50645, Note_off_c, 0, 69, 64
2, 50655, Note_off_c, 0, 52, 64
2, 50670, Note_off_c, 0, 62, 64
2, 50672, Note_on_c, 0, 69, 68
2, 50702, Note_on_c, 0, 68, 74
2, 50707, Note_off_c, 0, 69, 64
2, 50734, Note_on_c, 0, 66, 67
2, 50743, Note_off_c, 0, 68, 64
2, 50775, Note_on_c, 0, 68, 74
2, 50780, Note_off_c, 0, 66, 64
2, 50823, Note_off_c, 0, 68, 64
2, 50835, Note_on_c, 0, 69, 79
2, 50887, Note_on_c, 0, 57, 54
2, 50894, Note_on_c, 0, 60, 53
2, 50909, Note_on_c, 0, 81, 77
2, 50936, Control_c, 0, 64, 0
2, 51022, Control_c, 0, 64, 127
2, 51136, Note_off_c, 0, 81, 64
2, 51179, Note_off_c, 0, 69, 64
2, 51236, Note_off_c, 0, 57, 64
2, 51259, Note_off_c, 0, 60, 64
2, 51320, Note_on_c, 0, 67, 62
2, 51365, Note_on_c, 0, 72, 68
2, 51387, Control_c, 0, 64, 0
2, 51401, Note_off_c, 0, 67, 64
2, 51440, Control_c, 0, 64, 127
2, 51536, Note_on_c, 0, 76, 64
2, 51557, Note_off_c, 0, 72, 64
2, 51583, Note_on_c, 0, 79, 74
2, 51585, Note_on_c, 0, 48, 62
2, 51596, Control_c, 0, 64, 0
2, 51600, Note_off_c, 0, 76, 64
2, 51640, Control_c, 0, 64, 127
2, 51657, Note_off_c, 0, 79, 64
2, 51752, Note_on_c, 0, 79, 59
2, 51790, Note_on_c, 0, 64, 67
2, 51797, Note_on_c, 0, 76, 77
2, 51797, Note_on_c, 0, 55, 63
2, 51804, Note_off_c, 0, 48, 64
2, 51804, Control_c, 0, 64, 0
2, 51816, Note_off_c, 0, 79, 64
2, 51848, Note_off_c, 0, 64, 64
2, 51849, Control_c, 0, 64, 127
2, 51860, Note_off_c, 0, 55, 64
2, 51930, Note_off_c, 0, 76, 64
2, 51990, Note_on_c, 0, 79, 68
2, 51999, Note_on_c, 0, 63, 72
2, 52012, Note_on_c, 0, 55, 63
2, 52013, Control_c, 0, 64, 0
2, 52020, Note_on_c, 0, 78, 74
2, 52036, Note_off_c, 0, 79, 64
2, 52061, Control_c, 0, 64, 127
2, 52065, Note_on_c, 0, 79, 72
2, 52085, Note_off_c, 0, 78, 64
2, 52098, Note_on_c, 0, 78, 74
2, 52111, Note_off_c, 0, 79, 64
2, 52136, Note_on_c, 0, 77, 74
2, 52138, Note_off_c, 0, 78, 64
2, 52161, Note_off_c, 0, 63, 64
2, 52167, Note_on_c, 0, 78, 74
2, 52179, Note_off_c, 0, 77, 64
2, 52189, Note_off_c, 0, 55, 64
2, 52198, Note_on_c, 0, 79, 74
2, 52203, Note_on_c, 0, 48, 62
2, 52208, Control_c, 0, 64, 0
2, 52212, Note_off_c, 0, 78, 64
2, 52258, Note_off_c, 0, 79, 64
2, 52274, Control_c, 0, 64, 127
2, 52310, Note_off_c, 0, 48, 64
2, 52370, Note_on_c, 0, 79, 67
2, 52400, Note_on_c, 0, 76, 72
2, 52402, Control_c, 0, 64, 0
2, 52415, Note_on_c, 0, 64, 63
2, 52416, Note_on_c, 0, 55, 67
2, 52426, Note_off_c, 0, 79, 64
2, 52452, Control_c, 0, 64, 127
2, 52470, Note_off_c, 0, 64, 64
2, 52483, Note_off_c, 0, 55, 64
2, 52611, Note_on_c, 0, 79, 72
2, 52622, Note_on_c, 0, 63, 79
2, 52627, Note_on_c, 0, 55, 68
2, 52628, Control_c, 0, 64, 0
2, 52635, Note_off_c, 0, 76, 64
2, 52647, Note_on_c, 0, 78, 64
2, 52660, Note_off_c, 0, 79, 64
2, 52667, Control_c, 0, 64, 127
2, 52678, Note_on_c, 0, 79, 73
2, 52688, Note_off_c, 0, 78, 64
2, 52720, Note_on_c, 0, 78, 73
2, 52732, Note_off_c, 0, 79, 64
2, 52752, Note_on_c, 0, 77, 72
2, 52762, Note_off_c, 0, 78, 64
2, 52784, Note_on_c, 0, 78, 67
2, 52785, Note_off_c, 0, 63, 64
2, 52802, Note_off_c, 0, 77, 64
2, 52815, Note_on_c, 0, 79, 68
2, 52822, Note_off_c, 0, 55, 64
2, 52824, Note_on_c, 0, 48, 55
2, 52828, Note_off_c, 0, 78, 64
2, 52832, Control_c, 0, 64, 0
2, 52863, Note_off_c, 0, 79, 64
2, 52879, Control_c, 0, 64, 127
2, 52929, Note_off_c, 0, 48, 64
2, 52975, Note_on_c, 0, 79, 54
2, 52998, Note_on_c, 0, 72, 68
2, 53007, Control_c, 0, 64, 0
2, 53014, Note_on_c, 0, 64, 63
2, 53021, Note_off_c, 0, 79, 64
2, 53021, Note_on_c, 0, 55, 64
2, 53059, Control_c, 0, 64, 127
2, 53069, Note_off_c, 0, 55, 64
2, 53076, Note_off_c, 0, 64, 64
2, 53200, Note_on_c, 0, 74, 73
2, 53210, Note_on_c, 0, 65, 55
2, 53217, Note_on_c, 0, 55, 59
2, 53223, Note_off_c, 0, 72, 64
2, 53223, Control_c, 0, 64, 0
2, 53277, Control_c, 0, 64, 127
2, 53333, Note_off_c, 0, 74, 64
2, 53344, Note_off_c, 0, 65, 64
2, 53413, Note_on_c, 0, 72, 39
2, 53442, Note_off_c, 0, 55, 64
2, 53452, Note_on_c, 0, 74, 60
2, 53457, Note_on_c, 0, 48, 60
2, 53473, Note_off_c, 0, 72, 64
2, 53483, Control_c, 0, 64, 0
2, 53489, Note_on_c, 0, 76, 77
2, 53506, Note_off_c, 0, 74, 64
2, 53549, Control_c, 0, 64, 127
2, 53724, Note_on_c, 0, 64, 43
2, 53731, Note_off_c, 0, 48, 64
2, 53732, Note_on_c, 0, 55, 44
2, 53741, Control_c, 0, 64, 0
2, 53784, Control_c, 0, 64, 127
2, 53848, Note_off_c, 0, 64, 64
2, 53851, Note_off_c, 0, 55, 64
2, 54032, Note_on_c, 0, 52, 31
2, 54033, Note_on_c, 0, 62, 39
2, 54033, Note_on_c, 0, 56, 49
2, 54065, Control_c, 0, 64, 0
2, 54118, Control_c, 0, 64, 127
2, 54146, Note_off_c, 0, 76, 64
2, 54192, Note_off_c, 0, 62, 64
2, 54195, Note_off_c, 0, 56, 64
2, 54195, Note_off_c, 0, 52, 64
2, 54343, Note_on_c, 0, 64, 57
2, 54405, Note_on_c, 0, 76, 68
2, 54412, Control_c, 0, 64, 0
2, 54422, Note_on_c, 0, 33, 68
2, 54470, Control_c, 0, 64, 127
2, 54480, Note_off_c, 0, 76, 64
2, 54601, Note_on_c, 0, 76, 67
2, 54602, Note_off_c, 0, 64, 64
2, 54640, Note_on_c, 0, 60, 43
2, 54641, Note_on_c, 0, 72, 74
2, 54647, Note_on_c, 0, 52, 53
2, 54654, Control_c, 0, 64, 0
2, 54677, Control_c, 0, 64, 127
2, 54684, Note_off_c, 0, 76, 64
2, 54720, Note_off_c, 0, 52, 64
2, 54736, Note_off_c, 0, 33, 64
2, 54738, Note_off_c, 0, 60, 64
2, 54738, Note_off_c, 0, 72, 64
2, 54872, Note_on_c, 0, 76, 55
2, 54874, Note_on_c, 0, 52, 64
2, 54876, Note_on_c, 0, 59, 73
2, 54877, Control_c, 0, 64, 0
2, 54899, Note_on_c, 0, 75, 54
2, 54912, Note_off_c, 0, 76, 64
2, 54919, Control_c, 0, 64, 127
2, 54936, Note_on_c, 0, 76, 63
2, 54959, Note_off_c, 0, 75, 64
2, 54971, Note_on_c, 0, 75, 67
2, 54978, Note_off_c, 0, 76, 64
2, 55014, Note_on_c, 0, 74, 64
2, 55018, Note_off_c, 0, 75, 64
2, 55043, Note_on_c, 0, 75, 60
2, 55056, Note_off_c, 0, 74, 64
2, 55069, Note_off_c, 0, 52, 64
2, 55077, Note_on_c, 0, 76, 77
2, 55085, Note_on_c, 0, 45, 64
2, 55089, Note_off_c, 0, 59, 64
2, 55092, Note_off_c, 0, 75, 64
2, 55093, Control_c, 0, 64, 0
2, 55144, Note_off_c, 0, 76, 64
2, 55148, Control_c, 0, 64, 127
2, 55227, Note_on_c, 0, 76, 62
2, 55273, Note_on_c, 0, 69, 64
2, 55282, Note_on_c, 0, 60, 63
2, 55283, Note_off_c, 0, 76, 64
2, 55288, Note_off_c, 0, 45, 64
2, 55289, Note_on_c, 0, 52, 67
2, 55293, Control_c, 0, 64, 0
2, 55325, Note_off_c, 0, 52, 64
2, 55334, Note_off_c, 0, 60, 64
2, 55338, Control_c, 0, 64, 127
2, 55473, Note_on_c, 0, 60, 62
2, 55478, Note_on_c, 0, 72, 68
2, 55484, Note_off_c, 0, 69, 64
2, 55484, Note_on_c, 0, 52, 63
2, 55502, Control_c, 0, 64, 0
2, 55554, Control_c, 0, 64, 127
2, 55667, Note_on_c, 0, 71, 68
2, 55675, Note_on_c, 0, 45, 64
2, 55682, Control_c, 0, 64, 0
2, 55697, Note_off_c, 0, 52, 64
2, 55702, Note_off_c, 0, 72, 64
2, 55714, Note_off_c, 0, 60, 64
2, 55721, Control_c, 0, 64, 127
2, 55748, Note_off_c, 0, 71, 64
2, 55809, Note_off_c, 0, 45, 64
2, 55836, Note_on_c, 0, 71, 57
2, 55869, Note_on_c, 0, 66, 77
2, 55882, Control_c, 0, 64, 0
2, 55888, Note_off_c, 0, 71, 64
2, 55890, Note_on_c, 0, 62, 44
2, 55895, Note_on_c, 0, 52, 60
2, 55916, Control_c, 0, 64, 127
2, 55946, Note_off_c, 0, 52, 64
2, 55963, Note_off_c, 0, 62, 64
2, 56042, Note_off_c, 0, 66, 64
2, 56084, Note_on_c, 0, 62, 48
2, 56084, Note_on_c, 0, 52, 59
2, 56091, Note_on_c, 0, 68, 53
2, 56114, Note_on_c, 0, 69, 63
2, 56120, Note_off_c, 0, 68, 64
2, 56150, Note_on_c, 0, 68, 73
2, 56153, Note_off_c, 0, 69, 64
2, 56179, Note_on_c, 0, 69, 67
2, 56182, Note_off_c, 0, 68, 64
2, 56209, Note_on_c, 0, 68, 79
2, 56212, Note_off_c, 0, 62, 64
2, 56216, Note_off_c, 0, 69, 64
2, 56244, Note_on_c, 0, 66, 67
2, 56251, Note_off_c, 0, 68, 64
2, 56281, Note_on_c, 0, 68, 74
2, 56300, Note_off_c, 0, 66, 64
2, 56310, Note_on_c, 0, 69, 72
2, 56323, Note_off_c, 0, 68, 64
2, 56330, Note_on_c, 0, 45, 67
2, 56346, Control_c, 0, 64, 0
2, 56349, Note_off_c, 0, 52, 64
2, 56391, Control_c, 0, 64, 127
2, 56445, Note_off_c, 0, 69, 64
2, 56485, Note_on_c, 0, 64, 49
2, 56523, Note_on_c, 0, 69, 62
2, 56531, Note_on_c, 0, 60, 60
2, 56538, Note_on_c, 0, 52, 67
2, 56543, Note_off_c, 0, 45, 64
2, 56551, Control_c, 0, 64, 0
2, 56560, Note_off_c, 0, 64, 64
2, 56576, Note_off_c, 0, 52, 64
2, 56585, Note_off_c, 0, 60, 64
2, 56588, Control_c, 0, 64, 127
2, 56687, Note_off_c, 0, 69, 64
2, 56698, Note_on_c, 0, 64, 72
2, 56736, Note_on_c, 0, 69, 68
2, 56736, Note_on_c, 0, 60, 60
2, 56742, Note_on_c, 0, 52, 53
2, 56749, Control_c, 0, 64, 0
2, 56784, Note_off_c, 0, 64, 64
2, 56805, Control_c, 0, 64, 127
2, 56898, Note_on_c, 0, 72, 72
2, 56918, Note_off_c, 0, 69, 64
2, 56944, Note_on_c, 0, 45, 67
2, 56946, Note_on_c, 0, 76, 79
2, 56947, Control_c, 0, 64, 0
2, 56964, Note_off_c, 0, 72, 64
2, 56966, Note_off_c, 0, 52, 64
2, 56975, Note_off_c, 0, 60, 64
2, 56996, Control_c, 0, 64, 127
2, 57004, Note_off_c, 0, 76, 64
2, 57115, Note_on_c, 0, 76, 63
2, 57140, Note_off_c, 0, 45, 64
2, 57142, Note_on_c, 0, 60, 57
2, 57144, Note_on_c, 0, 52, 63
2, 57150, Control_c, 0, 64, 0
2, 57157, Note_on_c, 0, 72, 68
2, 57168, Note_off_c, 0, 76, 64
2, 57177, Control_c, 0, 64, 127
2, 57210, Note_off_c, 0, 52, 64
2, 57216, Note_off_c, 0, 60, 64
2, 57278, Note_off_c, 0, 72, 64
2, 57342, Note_on_c, 0, 75, 50
2, 57358, Note_on_c, 0, 59, 68
2, 57360, Note_on_c, 0, 52, 54
2, 57365, Note_on_c, 0, 76, 57
2, 57373, Note_off_c, 0, 75, 64
2, 57407, Note_on_c, 0, 75, 63
2, 57412, Note_off_c, 0, 76, 64
2, 57417, Note_off_c, 0, 52, 64
2, 57435, Note_on_c, 0, 76, 60
2, 57443, Note_off_c, 0, 75, 64
2, 57475, Note_on_c, 0, 75, 63
2, 57491, Note_off_c, 0, 76, 64
2, 57508, Note_off_c, 0, 59, 64
2, 57511, Note_on_c, 0, 74, 62
2, 57528, Note_off_c, 0, 75, 64
2, 57545, Note_on_c, 0, 75, 55
2, 57553, Note_off_c, 0, 74, 64
2, 57572, Note_on_c, 0, 45, 62
2, 57579, Note_on_c, 0, 76, 68
2, 57584, Control_c, 0, 64, 0
2, 57590, Note_off_c, 0, 75, 64
2, 57591, Control_c, 0, 64, 0
2, 57632, Control_c, 0, 64, 127
2, 57649, Note_off_c, 0, 76, 64
2, 57716, Note_on_c, 0, 76, 67
2, 57754, Note_on_c, 0, 69, 72
2, 57763, Note_off_c, 0, 45, 64
2, 57763, Note_on_c, 0, 60, 59
2, 57769, Note_on_c, 0, 52, 59
2, 57770, Note_off_c, 0, 76, 64
2, 57776, Control_c, 0, 64, 0
2, 57806, Note_off_c, 0, 52, 64
2, 57809, Note_off_c, 0, 60, 64
2, 57824, Control_c, 0, 64, 127
2, 57963, Note_on_c, 0, 60, 53
2, 57968, Note_on_c, 0, 72, 67
2, 57968, Note_on_c, 0, 52, 59
2, 57976, Note_off_c, 0, 69, 64
2, 57987, Control_c, 0, 64, 0
2, 58029, Control_c, 0, 64, 127
2, 58179, Note_on_c, 0, 71, 56
2, 58184, Note_on_c, 0, 45, 59
2, 58191, Control_c, 0, 64, 0
2, 58195, Note_off_c, 0, 72, 64
2, 58201, Note_off_c, 0, 52, 64
2, 58228, Note_off_c, 0, 60, 64
2, 58238, Control_c, 0, 64, 127
2, 58251, Note_off_c, 0, 71, 64
2, 58328, Note_off_c, 0, 45, 64
2, 58359, Note_on_c, 0, 71, 55
2, 58397, Note_on_c, 0, 66, 72
2, 58405, Note_off_c, 0, 71, 64
2, 58408, Control_c, 0, 64, 0
2, 58414, Note_on_c, 0, 52, 59
2, 58417, Note_on_c, 0, 62, 54
2, 58446, Control_c, 0, 64, 127
2, 58486, Note_off_c, 0, 52, 64
2, 58516, Note_off_c, 0, 62, 64
2, 58640, Note_on_c, 0, 62, 35
2, 58640, Note_on_c, 0, 52, 44
2, 58662, Note_off_c, 0, 66, 64
2, 58674, Note_on_c, 0, 69, 48
2, 58713, Note_on_c, 0, 68, 67
2, 58729, Note_off_c, 0, 69, 64
2, 58743, Note_on_c, 0, 69, 62
2, 58751, Note_off_c, 0, 68, 64
2, 58779, Note_on_c, 0, 68, 67
2, 58791, Note_off_c, 0, 69, 64
2, 58819, Note_on_c, 0, 66, 62
2, 58822, Note_off_c, 0, 68, 64
2, 58858, Note_on_c, 0, 68, 63
2, 58860, Note_off_c, 0, 66, 64
2, 58860, Note_off_c, 0, 62, 64
2, 58868, Note_off_c, 0, 52, 64
2, 58900, Note_on_c, 0, 69, 59
2, 58902, Note_off_c, 0, 68, 64
2, 59044, Note_on_c, 0, 81, 55
2, 59091, Note_on_c, 0, 45, 40
2, 59179, Control_c, 0, 64, 0
2, 59236, Control_c, 0, 64, 127
2, 59340, Note_off_c, 0, 69, 64
2, 59683, Note_on_c, 0, 60, 29
2, 59691, Note_on_c, 0, 52, 35
2, 59727, Control_c, 0, 64, 0
2, 59760, Control_c, 0, 64, 127
2, 59894, Note_off_c, 0, 52, 64
2, 59923, Note_off_c, 0, 45, 64
2, 59964, Note_off_c, 0, 81, 64
2, 59999, Note_off_c, 0, 60, 64
2, 60364, Control_c, 0, 64, 0
2, 61354, Control_c, 0, 64, 0
2, 61428, Control_c, 0, 64, 127
2, 61428, End_track
3, 0, Start_track
3, 0, Title_t, "Played by Dr. Ron Lubetsky"
3, 0, End_track
4, 0, Start_track
4, 0, Title_t, "March 1, 1998"
4, 0, End_track
5, 0, Start_track
5, 0, Title_t, "email: acuity2020@aol.com"
5, 0, End_track
6, 0, Start_track
6, 0, Title_t, "Copyright  1998"
6, 0, End_track
7, 0, Start_track
7, 0, Title_t, "All Rights Reserved"
7, 0, End_track
0, 0, End_of_file
