0, 0, Header, 1, 7, 240
1, 0, Start_track
1, 0, Time_signature, 4, 2, 24, 8
1, 0, Tempo, 500000
1, 0, Marker_t, "Chopin: Mazurka, Op. 63 No. 3- Allegretto"
1, 0, End_track
2, 0, Start_track
2, 0, Title_t, "Chopin: Op. 63 No. 3"
2, 0, Program_c, 0, 0
2, 0, Control_c, 0, 7, 127
2, 40, Note_on_c, 0, 64, 48
2, 168, Note_on_c, 0, 69, 50
2, 217, Note_off_c, 0, 64, 64
2, 303, Note_on_c, 0, 68, 52
2, 308, Note_on_c, 0, 49, 50
2, 325, Note_off_c, 0, 69, 64
2, 336, Control_c, 0, 64, 0
2, 382, Control_c, 0, 64, 127
2, 544, Control_c, 0, 64, 0
2, 581, Note_on_c, 0, 73, 66
2, 587, Note_on_c, 0, 56, 47
2, 588, Note_on_c, 0, 61, 37
2, 590, Control_c, 0, 64, 127
2, 600, Note_on_c, 0, 64, 27
2, 695, Note_off_c, 0, 68, 64
2, 704, Note_off_c, 0, 56, 64
2, 705, Note_off_c, 0, 61, 64
2, 717, Note_off_c, 0, 64, 64
2, 745, Note_off_c, 0, 49, 64
2, 879, Note_on_c, 0, 56, 42
2, 882, Note_on_c, 0, 64, 33
2, 882, Note_on_c, 0, 61, 42
2, 979, Note_on_c, 0, 75, 66
2, 994, Note_off_c, 0, 73, 64
2, 996, Note_off_c, 0, 56, 64
2, 999, Note_off_c, 0, 61, 64
2, 999, Note_off_c, 0, 64, 64
2, 1100, Note_on_c, 0, 73, 67
2, 1107, Note_on_c, 0, 51, 56
2, 1121, Control_c, 0, 64, 0
2, 1126, Note_off_c, 0, 75, 64
2, 1156, Control_c, 0, 64, 127
2, 1206, Note_on_c, 0, 72, 71
2, 1220, Note_off_c, 0, 73, 64
2, 1311, Note_on_c, 0, 56, 50
2, 1317, Note_on_c, 0, 66, 50
2, 1318, Note_on_c, 0, 75, 62
2, 1323, Note_on_c, 0, 60, 48
2, 1329, Control_c, 0, 64, 0
2, 1333, Note_off_c, 0, 72, 64
2, 1364, Control_c, 0, 64, 127
2, 1398, Note_off_c, 0, 56, 64
2, 1404, Note_off_c, 0, 66, 64
2, 1410, Note_off_c, 0, 60, 64
2, 1510, Note_off_c, 0, 75, 64
2, 1599, Note_on_c, 0, 66, 41
2, 1601, Note_on_c, 0, 60, 44
2, 1602, Note_on_c, 0, 56, 47
2, 1686, Note_off_c, 0, 66, 64
2, 1688, Note_off_c, 0, 60, 64
2, 1689, Note_off_c, 0, 56, 64
2, 1696, Note_off_c, 0, 51, 64
2, 1884, Note_on_c, 0, 48, 57
2, 2197, Note_on_c, 0, 66, 26
2, 2205, Note_on_c, 0, 56, 27
2, 2211, Note_on_c, 0, 63, 47
2, 2214, Note_on_c, 0, 75, 67
2, 2284, Note_off_c, 0, 66, 64
2, 2292, Note_off_c, 0, 56, 64
2, 2298, Note_off_c, 0, 63, 64
2, 2462, Note_on_c, 0, 56, 48
2, 2469, Note_on_c, 0, 66, 44
2, 2473, Note_off_c, 0, 48, 64
2, 2476, Note_on_c, 0, 63, 54
2, 2549, Note_off_c, 0, 56, 64
2, 2556, Note_off_c, 0, 66, 64
2, 2563, Note_off_c, 0, 63, 64
2, 2567, Note_on_c, 0, 76, 73
2, 2597, Note_off_c, 0, 75, 64
2, 2685, Note_on_c, 0, 49, 65
2, 2685, Note_on_c, 0, 75, 64
2, 2705, Note_off_c, 0, 76, 64
2, 2784, Note_on_c, 0, 73, 66
2, 2796, Note_off_c, 0, 75, 64
2, 2891, Note_on_c, 0, 76, 67
2, 2894, Note_on_c, 0, 56, 46
2, 2900, Note_on_c, 0, 61, 52
2, 2910, Note_on_c, 0, 64, 36
2, 2912, Note_off_c, 0, 73, 64
2, 2931, Control_c, 0, 64, 0
2, 2946, Control_c, 0, 64, 127
2, 2981, Note_off_c, 0, 56, 64
2, 2987, Note_off_c, 0, 61, 64
2, 2997, Note_off_c, 0, 64, 64
2, 3068, Note_off_c, 0, 76, 64
2, 3139, Control_c, 0, 64, 0
2, 3150, Note_on_c, 0, 64, 50
2, 3154, Control_c, 0, 64, 127
2, 3156, Note_on_c, 0, 56, 50
2, 3163, Note_on_c, 0, 61, 32
2, 3237, Note_off_c, 0, 64, 64
2, 3243, Note_off_c, 0, 56, 64
2, 3250, Note_off_c, 0, 61, 64
2, 3274, Note_off_c, 0, 49, 64
2, 3383, Note_on_c, 0, 52, 75
2, 3418, Control_c, 0, 64, 0
2, 3432, Control_c, 0, 64, 127
2, 3600, Note_on_c, 0, 61, 46
2, 3602, Note_on_c, 0, 56, 50
2, 3608, Note_on_c, 0, 68, 50
2, 3626, Control_c, 0, 64, 0
2, 3640, Control_c, 0, 64, 127
2, 3657, Note_on_c, 0, 80, 93
2, 3687, Note_off_c, 0, 61, 64
2, 3689, Note_off_c, 0, 56, 64
2, 3695, Note_off_c, 0, 68, 64
2, 3899, Note_on_c, 0, 68, 42
2, 3908, Note_on_c, 0, 56, 44
2, 3920, Note_on_c, 0, 61, 46
2, 3972, Note_off_c, 0, 52, 64
2, 3986, Note_off_c, 0, 68, 64
2, 3995, Note_off_c, 0, 56, 64
2, 4007, Note_off_c, 0, 61, 64
2, 4014, Note_on_c, 0, 81, 73
2, 4028, Note_off_c, 0, 80, 64
2, 4141, Note_on_c, 0, 51, 55
2, 4187, Note_on_c, 0, 80, 82
2, 4201, Note_off_c, 0, 81, 64
2, 4208, Control_c, 0, 64, 0
2, 4230, Control_c, 0, 64, 127
2, 4329, Note_on_c, 0, 79, 67
2, 4351, Note_off_c, 0, 80, 64
2, 4416, Control_c, 0, 64, 0
2, 4438, Control_c, 0, 64, 127
2, 4440, Note_on_c, 0, 58, 44
2, 4445, Note_on_c, 0, 75, 72
2, 4450, Note_on_c, 0, 61, 35
2, 4456, Note_off_c, 0, 79, 64
2, 4459, Note_on_c, 0, 67, 31
2, 4471, Control_c, 0, 64, 0
2, 4502, Control_c, 0, 64, 127
2, 4527, Note_off_c, 0, 58, 64
2, 4537, Note_off_c, 0, 61, 64
2, 4546, Note_off_c, 0, 67, 64
2, 4679, Control_c, 0, 64, 0
2, 4710, Control_c, 0, 64, 127
2, 4718, Note_on_c, 0, 67, 46
2, 4725, Note_on_c, 0, 61, 44
2, 4727, Note_on_c, 0, 58, 46
2, 4730, Note_off_c, 0, 51, 64
2, 4805, Note_off_c, 0, 67, 64
2, 4812, Note_off_c, 0, 61, 64
2, 4814, Note_off_c, 0, 58, 64
2, 4821, Note_on_c, 0, 76, 75
2, 4855, Note_off_c, 0, 75, 64
2, 4962, Note_on_c, 0, 44, 57
2, 4970, Note_on_c, 0, 78, 74
2, 4997, Note_off_c, 0, 76, 64
2, 5005, Control_c, 0, 64, 0
2, 5029, Control_c, 0, 64, 127
2, 5213, Control_c, 0, 64, 0
2, 5237, Note_on_c, 0, 80, 73
2, 5237, Control_c, 0, 64, 127
2, 5244, Note_on_c, 0, 66, 50
2, 5251, Note_off_c, 0, 78, 64
2, 5256, Note_on_c, 0, 60, 29
2, 5260, Note_on_c, 0, 56, 18
2, 5267, Control_c, 0, 64, 0
2, 5284, Control_c, 0, 64, 127
2, 5331, Note_off_c, 0, 66, 64
2, 5343, Note_off_c, 0, 60, 64
2, 5347, Note_off_c, 0, 56, 64
2, 5471, Note_on_c, 0, 56, 32
2, 5475, Control_c, 0, 64, 0
2, 5477, Note_on_c, 0, 66, 37
2, 5480, Note_on_c, 0, 60, 48
2, 5492, Control_c, 0, 64, 127
2, 5551, Note_off_c, 0, 44, 64
2, 5558, Note_off_c, 0, 56, 64
2, 5564, Note_off_c, 0, 66, 64
2, 5567, Note_off_c, 0, 60, 64
2, 5572, Note_on_c, 0, 78, 64
2, 5589, Note_off_c, 0, 80, 64
2, 5697, Note_on_c, 0, 49, 55
2, 5705, Note_on_c, 0, 76, 64
2, 5719, Note_off_c, 0, 78, 64
2, 5813, Note_on_c, 0, 75, 63
2, 5823, Note_off_c, 0, 76, 64
2, 5915, Note_on_c, 0, 56, 35
2, 5919, Note_on_c, 0, 73, 71
2, 5919, Note_on_c, 0, 61, 50
2, 5931, Note_off_c, 0, 75, 64
2, 5931, Note_on_c, 0, 64, 46
2, 5949, Control_c, 0, 64, 0
2, 5975, Control_c, 0, 64, 127
2, 6002, Note_off_c, 0, 56, 64
2, 6006, Note_off_c, 0, 61, 64
2, 6018, Note_off_c, 0, 64, 64
2, 6154, Note_on_c, 0, 71, 64
2, 6157, Control_c, 0, 64, 0
2, 6160, Note_on_c, 0, 64, 41
2, 6163, Note_on_c, 0, 61, 41
2, 6163, Note_on_c, 0, 55, 50
2, 6175, Note_off_c, 0, 73, 64
2, 6183, Control_c, 0, 64, 127
2, 6247, Note_off_c, 0, 64, 64
2, 6250, Note_off_c, 0, 55, 64
2, 6250, Note_off_c, 0, 61, 64
2, 6263, Note_on_c, 0, 69, 66
2, 6279, Note_off_c, 0, 71, 64
2, 6286, Note_off_c, 0, 49, 64
2, 6387, Note_on_c, 0, 68, 67
2, 6398, Note_on_c, 0, 49, 62
2, 6410, Note_off_c, 0, 69, 64
2, 6428, Control_c, 0, 64, 0
2, 6462, Control_c, 0, 64, 127
2, 6636, Control_c, 0, 64, 0
2, 6646, Note_on_c, 0, 73, 73
2, 6652, Note_off_c, 0, 68, 64
2, 6652, Note_on_c, 0, 56, 40
2, 6652, Note_on_c, 0, 64, 33
2, 6658, Note_on_c, 0, 61, 33
2, 6670, Control_c, 0, 64, 127
2, 6680, Control_c, 0, 64, 0
2, 6690, Control_c, 0, 64, 127
2, 6739, Note_off_c, 0, 64, 64
2, 6739, Note_off_c, 0, 56, 64
2, 6745, Note_off_c, 0, 61, 64
2, 6888, Control_c, 0, 64, 0
2, 6898, Control_c, 0, 64, 127
2, 6932, Note_on_c, 0, 64, 32
2, 6940, Note_on_c, 0, 56, 48
2, 6942, Note_on_c, 0, 61, 50
2, 6987, Note_off_c, 0, 49, 64
2, 7019, Note_off_c, 0, 64, 64
2, 7027, Note_off_c, 0, 56, 64
2, 7029, Note_off_c, 0, 61, 64
2, 7038, Note_on_c, 0, 75, 67
2, 7044, Note_off_c, 0, 73, 64
2, 7159, Note_on_c, 0, 51, 66
2, 7179, Note_on_c, 0, 73, 59
2, 7188, Note_off_c, 0, 75, 64
2, 7201, Control_c, 0, 64, 0
2, 7227, Control_c, 0, 64, 127
2, 7287, Note_on_c, 0, 72, 65
2, 7297, Note_off_c, 0, 73, 64
2, 7391, Note_on_c, 0, 66, 62
2, 7391, Note_on_c, 0, 75, 65
2, 7392, Note_on_c, 0, 60, 33
2, 7400, Note_on_c, 0, 56, 32
2, 7409, Control_c, 0, 64, 0
2, 7409, Control_c, 0, 64, 0
2, 7414, Note_off_c, 0, 72, 64
2, 7425, Note_on_c, 0, 66, 37
2, 7435, Control_c, 0, 64, 127
2, 7446, Control_c, 0, 64, 127
2, 7479, Note_off_c, 0, 60, 64
2, 7484, Note_off_c, 0, 66, 64
2, 7484, Note_off_c, 0, 66, 64
2, 7487, Note_off_c, 0, 56, 64
2, 7493, Note_off_c, 0, 75, 64
2, 7617, Control_c, 0, 64, 0
2, 7641, Note_on_c, 0, 66, 37
2, 7648, Note_on_c, 0, 60, 33
2, 7654, Control_c, 0, 64, 127
2, 7656, Note_on_c, 0, 56, 32
2, 7728, Note_off_c, 0, 66, 64
2, 7735, Note_off_c, 0, 60, 64
2, 7743, Note_off_c, 0, 56, 64
2, 7748, Note_off_c, 0, 51, 64
2, 7882, Note_on_c, 0, 48, 59
2, 8136, Note_on_c, 0, 66, 35
2, 8136, Note_on_c, 0, 63, 36
2, 8143, Note_on_c, 0, 56, 26
2, 8157, Note_on_c, 0, 75, 75
2, 8223, Note_off_c, 0, 63, 64
2, 8223, Note_off_c, 0, 66, 64
2, 8230, Note_off_c, 0, 56, 64
2, 8383, Note_on_c, 0, 66, 33
2, 8390, Note_on_c, 0, 56, 40
2, 8396, Note_on_c, 0, 63, 41
2, 8470, Note_off_c, 0, 66, 64
2, 8471, Note_off_c, 0, 48, 64
2, 8477, Note_off_c, 0, 56, 64
2, 8483, Note_off_c, 0, 63, 64
2, 8490, Note_on_c, 0, 76, 73
2, 8494, Note_off_c, 0, 75, 64
2, 8602, Note_on_c, 0, 49, 62
2, 8618, Note_on_c, 0, 75, 75
2, 8631, Note_off_c, 0, 76, 64
2, 8710, Note_on_c, 0, 73, 82
2, 8721, Note_off_c, 0, 75, 64
2, 8821, Note_on_c, 0, 64, 44
2, 8825, Note_off_c, 0, 73, 64
2, 8825, Note_on_c, 0, 76, 81
2, 8831, Note_on_c, 0, 56, 75
2, 8838, Control_c, 0, 64, 0
2, 8861, Control_c, 0, 64, 127
2, 8908, Note_off_c, 0, 64, 64
2, 8918, Note_off_c, 0, 56, 64
2, 9046, Control_c, 0, 64, 0
2, 9069, Control_c, 0, 64, 127
2, 9080, Note_on_c, 0, 64, 63
2, 9080, Note_on_c, 0, 54, 64
2, 9089, Note_on_c, 0, 58, 55
2, 9167, Note_off_c, 0, 54, 64
2, 9167, Note_off_c, 0, 64, 64
2, 9176, Note_off_c, 0, 58, 64
2, 9191, Note_off_c, 0, 49, 64
2, 9349, Note_on_c, 0, 47, 59
2, 9395, Note_on_c, 0, 71, 77
2, 9415, Note_off_c, 0, 76, 64
2, 9427, Control_c, 0, 64, 0
2, 9450, Control_c, 0, 64, 127
2, 9635, Control_c, 0, 64, 0
2, 9653, Note_on_c, 0, 56, 56
2, 9658, Control_c, 0, 64, 127
2, 9659, Note_on_c, 0, 64, 44
2, 9659, Note_on_c, 0, 59, 44
2, 9719, Note_on_c, 0, 83, 97
2, 9740, Note_off_c, 0, 56, 64
2, 9744, Control_c, 0, 64, 0
2, 9746, Note_off_c, 0, 59, 64
2, 9746, Note_off_c, 0, 64, 64
2, 9747, Note_off_c, 0, 71, 64
2, 9755, Control_c, 0, 64, 127
2, 9938, Note_off_c, 0, 47, 64
2, 9952, Control_c, 0, 64, 0
2, 9963, Control_c, 0, 64, 127
2, 9970, Note_on_c, 0, 64, 50
2, 9971, Note_on_c, 0, 56, 50
2, 9979, Note_on_c, 0, 59, 37
2, 10057, Note_off_c, 0, 64, 64
2, 10058, Note_off_c, 0, 56, 64
2, 10066, Note_off_c, 0, 59, 64
2, 10131, Note_on_c, 0, 85, 81
2, 10144, Note_off_c, 0, 83, 64
2, 10265, Note_on_c, 0, 47, 62
2, 10303, Note_on_c, 0, 83, 86
2, 10322, Note_off_c, 0, 85, 64
2, 10326, Control_c, 0, 64, 0
2, 10341, Control_c, 0, 64, 127
2, 10422, Note_on_c, 0, 82, 83
2, 10453, Note_off_c, 0, 83, 64
2, 10534, Control_c, 0, 64, 0
2, 10537, Note_on_c, 0, 78, 93
2, 10540, Note_on_c, 0, 61, 50
2, 10542, Note_on_c, 0, 54, 59
2, 10549, Control_c, 0, 64, 127
2, 10550, Note_on_c, 0, 64, 42
2, 10561, Note_off_c, 0, 82, 64
2, 10566, Control_c, 0, 64, 0
2, 10586, Control_c, 0, 64, 127
2, 10627, Note_off_c, 0, 61, 64
2, 10629, Note_off_c, 0, 54, 64
2, 10637, Note_off_c, 0, 64, 64
2, 10763, Note_on_c, 0, 54, 52
2, 10765, Note_on_c, 0, 64, 59
2, 10766, Note_on_c, 0, 61, 62
2, 10774, Control_c, 0, 64, 0
2, 10794, Control_c, 0, 64, 127
2, 10850, Note_off_c, 0, 54, 64
2, 10852, Note_off_c, 0, 64, 64
2, 10853, Note_off_c, 0, 61, 64
2, 10854, Note_off_c, 0, 47, 64
2, 10881, Note_on_c, 0, 80, 71
2, 10900, Note_off_c, 0, 78, 64
2, 11024, Note_on_c, 0, 35, 73
2, 11024, Note_on_c, 0, 81, 74
2, 11032, Note_off_c, 0, 80, 64
2, 11046, Control_c, 0, 64, 0
2, 11059, Control_c, 0, 64, 127
2, 11254, Control_c, 0, 64, 0
2, 11254, Note_on_c, 0, 54, 63
2, 11257, Note_on_c, 0, 83, 86
2, 11257, Note_on_c, 0, 63, 50
2, 11263, Note_on_c, 0, 59, 65
2, 11267, Control_c, 0, 64, 127
2, 11273, Note_off_c, 0, 81, 64
2, 11341, Note_off_c, 0, 54, 64
2, 11344, Note_off_c, 0, 63, 64
2, 11350, Note_off_c, 0, 59, 64
2, 11461, Note_off_c, 0, 35, 64
2, 11468, Note_on_c, 0, 54, 54
2, 11470, Note_on_c, 0, 63, 52
2, 11475, Note_on_c, 0, 59, 57
2, 11555, Note_off_c, 0, 54, 64
2, 11557, Note_off_c, 0, 63, 64
2, 11562, Note_off_c, 0, 59, 64
2, 11565, Note_on_c, 0, 81, 67
2, 11593, Note_off_c, 0, 83, 64
2, 11756, Note_on_c, 0, 40, 50
2, 11757, Note_off_c, 0, 81, 64
2, 11757, Note_on_c, 0, 80, 75
2, 11792, Control_c, 0, 64, 0
2, 11813, Control_c, 0, 64, 127
2, 11915, Note_on_c, 0, 75, 74
2, 11920, Note_off_c, 0, 80, 64
2, 12000, Control_c, 0, 64, 0
2, 12018, Note_off_c, 0, 75, 64
2, 12020, Note_on_c, 0, 76, 71
2, 12021, Control_c, 0, 64, 127
2, 12045, Note_on_c, 0, 78, 77
2, 12059, Note_off_c, 0, 76, 64
2, 12068, Note_on_c, 0, 56, 55
2, 12075, Note_on_c, 0, 64, 33
2, 12075, Note_on_c, 0, 59, 42
2, 12084, Note_on_c, 0, 76, 75
2, 12088, Note_off_c, 0, 78, 64
2, 12118, Control_c, 0, 64, 0
2, 12155, Note_off_c, 0, 56, 64
2, 12162, Note_off_c, 0, 59, 64
2, 12162, Note_off_c, 0, 64, 64
2, 12169, Control_c, 0, 64, 127
2, 12193, Note_off_c, 0, 40, 64
2, 12224, Note_off_c, 0, 76, 64
2, 12224, Note_on_c, 0, 75, 81
2, 12326, Control_c, 0, 64, 0
2, 12350, Note_off_c, 0, 75, 64
2, 12359, Note_on_c, 0, 76, 75
2, 12377, Control_c, 0, 64, 127
2, 12460, Note_on_c, 0, 78, 67
2, 12474, Note_off_c, 0, 76, 64
2, 12586, Note_on_c, 0, 48, 64
2, 12594, Note_on_c, 0, 80, 77
2, 12614, Note_off_c, 0, 78, 64
2, 12622, Control_c, 0, 64, 0
2, 12647, Control_c, 0, 64, 127
2, 12830, Control_c, 0, 64, 0
2, 12855, Control_c, 0, 64, 127
2, 12880, Note_on_c, 0, 56, 64
2, 12889, Note_on_c, 0, 66, 50
2, 12895, Note_on_c, 0, 63, 48
2, 12899, Control_c, 0, 64, 0
2, 12932, Control_c, 0, 64, 127
2, 12967, Note_off_c, 0, 56, 64
2, 12976, Note_off_c, 0, 66, 64
2, 12982, Note_off_c, 0, 63, 64
2, 13001, Note_on_c, 0, 75, 67
2, 13017, Note_off_c, 0, 80, 64
2, 13023, Note_off_c, 0, 48, 64
2, 13103, Note_on_c, 0, 80, 67
2, 13107, Control_c, 0, 64, 0
2, 13132, Note_off_c, 0, 75, 64
2, 13140, Control_c, 0, 64, 127
2, 13204, Note_on_c, 0, 78, 71
2, 13210, Note_off_c, 0, 80, 64
2, 13321, Note_on_c, 0, 49, 64
2, 13324, Note_off_c, 0, 78, 64
2, 13327, Note_on_c, 0, 76, 73
2, 13337, Control_c, 0, 64, 0
2, 13367, Control_c, 0, 64, 127
2, 13545, Control_c, 0, 64, 0
2, 13560, Note_on_c, 0, 72, 66
2, 13561, Note_off_c, 0, 76, 64
2, 13565, Note_on_c, 0, 56, 54
2, 13568, Note_on_c, 0, 61, 55
2, 13574, Note_on_c, 0, 64, 44
2, 13575, Control_c, 0, 64, 127
2, 13652, Note_off_c, 0, 56, 64
2, 13655, Note_off_c, 0, 61, 64
2, 13661, Note_off_c, 0, 64, 64
2, 13666, Note_on_c, 0, 75, 71
2, 13695, Note_off_c, 0, 72, 64
2, 13758, Note_off_c, 0, 49, 64
2, 13766, Note_on_c, 0, 73, 65
2, 13802, Note_off_c, 0, 75, 64
2, 13871, Note_on_c, 0, 71, 64
2, 13890, Note_off_c, 0, 73, 64
2, 13970, Note_on_c, 0, 37, 66
2, 13979, Note_off_c, 0, 71, 64
2, 13983, Note_on_c, 0, 69, 67
2, 14058, Note_off_c, 0, 69, 64
2, 14169, Note_on_c, 0, 69, 65
2, 14210, Note_off_c, 0, 37, 64
2, 14214, Note_off_c, 0, 69, 64
2, 14219, Note_on_c, 0, 61, 50
2, 14221, Note_on_c, 0, 55, 54
2, 14227, Note_on_c, 0, 64, 50
2, 14229, Note_on_c, 0, 69, 72
2, 14306, Note_off_c, 0, 61, 64
2, 14308, Note_off_c, 0, 55, 64
2, 14313, Note_off_c, 0, 69, 64
2, 14314, Note_off_c, 0, 64, 64
2, 14440, Note_on_c, 0, 69, 67
2, 14440, Note_on_c, 0, 55, 59
2, 14447, Note_on_c, 0, 64, 60
2, 14447, Note_on_c, 0, 61, 60
2, 14527, Note_off_c, 0, 55, 64
2, 14534, Note_off_c, 0, 61, 64
2, 14534, Note_off_c, 0, 64, 64
2, 14659, Note_on_c, 0, 68, 75
2, 14664, Note_on_c, 0, 49, 71
2, 14673, Control_c, 0, 64, 0
2, 14682, Note_off_c, 0, 69, 64
2, 14700, Control_c, 0, 64, 127
2, 14769, Note_on_c, 0, 73, 59
2, 14792, Note_off_c, 0, 68, 64
2, 14872, Note_on_c, 0, 61, 71
2, 14872, Note_on_c, 0, 56, 63
2, 14873, Note_on_c, 0, 75, 73
2, 14881, Control_c, 0, 64, 0
2, 14881, Note_on_c, 0, 64, 62
2, 14893, Control_c, 0, 64, 0
2, 14899, Note_off_c, 0, 73, 64
2, 14908, Control_c, 0, 64, 127
2, 14918, Control_c, 0, 64, 127
2, 14959, Note_off_c, 0, 56, 64
2, 14959, Note_off_c, 0, 61, 64
2, 14968, Note_off_c, 0, 64, 64
2, 14981, Note_on_c, 0, 76, 75
2, 14988, Note_off_c, 0, 49, 64
2, 15001, Note_off_c, 0, 75, 64
2, 15080, Note_on_c, 0, 80, 50
2, 15101, Note_off_c, 0, 76, 64
2, 15101, Control_c, 0, 64, 0
2, 15126, Control_c, 0, 64, 127
2, 15174, Note_off_c, 0, 80, 64
2, 15178, Note_on_c, 0, 85, 83
2, 15309, Note_on_c, 0, 80, 75
2, 15315, Note_off_c, 0, 85, 64
2, 15315, Note_on_c, 0, 48, 64
2, 15341, Control_c, 0, 64, 0
2, 15363, Control_c, 0, 64, 127
2, 15536, Note_on_c, 0, 63, 44
2, 15536, Note_on_c, 0, 56, 55
2, 15542, Note_off_c, 0, 48, 64
2, 15549, Control_c, 0, 64, 0
2, 15571, Control_c, 0, 64, 127
2, 15596, Note_off_c, 0, 80, 64
2, 15623, Note_off_c, 0, 56, 64
2, 15623, Note_off_c, 0, 63, 64
2, 15626, Note_on_c, 0, 75, 72
2, 15741, Note_on_c, 0, 80, 66
2, 15785, Note_off_c, 0, 75, 64
2, 15842, Note_on_c, 0, 78, 71
2, 15851, Note_off_c, 0, 80, 64
2, 15942, Note_on_c, 0, 37, 73
2, 15951, Note_off_c, 0, 78, 64
2, 15953, Note_on_c, 0, 76, 73
2, 16125, Note_off_c, 0, 76, 64
2, 16161, Note_on_c, 0, 72, 64
2, 16172, Note_on_c, 0, 56, 67
2, 16178, Note_on_c, 0, 64, 66
2, 16182, Note_off_c, 0, 37, 64
2, 16259, Note_off_c, 0, 56, 64
2, 16265, Note_off_c, 0, 64, 64
2, 16278, Note_on_c, 0, 75, 66
2, 16306, Note_off_c, 0, 72, 64
2, 16400, Note_on_c, 0, 73, 71
2, 16407, Note_on_c, 0, 56, 62
2, 16412, Note_on_c, 0, 58, 64
2, 16417, Note_on_c, 0, 64, 62
2, 16421, Note_off_c, 0, 75, 64
2, 16494, Note_off_c, 0, 56, 64
2, 16499, Note_off_c, 0, 58, 64
2, 16504, Note_off_c, 0, 64, 64
2, 16518, Note_on_c, 0, 70, 75
2, 16520, Note_off_c, 0, 73, 64
2, 16643, Note_on_c, 0, 39, 82
2, 16650, Note_on_c, 0, 63, 82
2, 16668, Note_off_c, 0, 70, 64
2, 16784, Note_on_c, 0, 64, 44
2, 16795, Note_off_c, 0, 63, 64
2, 16819, Note_on_c, 0, 63, 66
2, 16823, Note_off_c, 0, 64, 64
2, 16844, Note_on_c, 0, 64, 81
2, 16853, Note_off_c, 0, 63, 64
2, 16883, Note_off_c, 0, 39, 64
2, 16889, Note_on_c, 0, 59, 65
2, 16891, Note_on_c, 0, 63, 83
2, 16899, Note_on_c, 0, 51, 54
2, 16909, Note_off_c, 0, 64, 64
2, 16918, Control_c, 0, 64, 0
2, 16932, Control_c, 0, 64, 127
2, 16976, Note_off_c, 0, 59, 64
2, 16986, Note_off_c, 0, 51, 64
2, 17010, Note_on_c, 0, 62, 67
2, 17030, Note_off_c, 0, 63, 64
2, 17126, Control_c, 0, 64, 0
2, 17132, Note_on_c, 0, 63, 67
2, 17137, Note_off_c, 0, 62, 64
2, 17140, Control_c, 0, 64, 127
2, 17140, Note_on_c, 0, 61, 59
2, 17144, Note_on_c, 0, 55, 59
2, 17150, Note_on_c, 0, 51, 40
2, 17227, Note_off_c, 0, 61, 64
2, 17231, Note_off_c, 0, 55, 64
2, 17237, Note_off_c, 0, 51, 64
2, 17262, Note_on_c, 0, 71, 66
2, 17295, Note_off_c, 0, 63, 64
2, 17374, Note_on_c, 0, 68, 71
2, 17380, Note_off_c, 0, 71, 64
2, 17392, Note_on_c, 0, 44, 73
2, 17501, Note_on_c, 0, 56, 81
2, 17577, Note_off_c, 0, 68, 64
2, 17632, Note_off_c, 0, 44, 64
2, 17639, Note_on_c, 0, 50, 65
2, 17656, Note_on_c, 0, 59, 59
2, 17661, Note_on_c, 0, 68, 90
2, 17676, Note_off_c, 0, 56, 64
2, 17707, Control_c, 0, 64, 0
2, 17719, Control_c, 0, 64, 127
2, 17780, Note_on_c, 0, 52, 66
2, 17799, Note_off_c, 0, 50, 64
2, 17915, Control_c, 0, 64, 0
2, 17924, Note_on_c, 0, 51, 75
2, 17927, Control_c, 0, 64, 127
2, 17928, Note_off_c, 0, 59, 64
2, 17939, Note_off_c, 0, 52, 64
2, 17952, Control_c, 0, 64, 0
2, 17974, Control_c, 0, 64, 127
2, 18054, Note_off_c, 0, 68, 64
2, 18061, Note_on_c, 0, 47, 73
2, 18076, Note_off_c, 0, 51, 64
2, 18160, Control_c, 0, 64, 0
2, 18182, Control_c, 0, 64, 127
2, 18241, Note_on_c, 0, 44, 75
2, 18248, Note_on_c, 0, 80, 88
2, 18259, Note_off_c, 0, 47, 64
2, 18272, Control_c, 0, 64, 0
2, 18308, Control_c, 0, 64, 127
2, 18480, Control_c, 0, 64, 0
2, 18489, Note_on_c, 0, 51, 48
2, 18516, Control_c, 0, 64, 127
2, 18542, Note_on_c, 0, 60, 67
2, 18575, Note_on_c, 0, 66, 82
2, 18575, Control_c, 0, 64, 0
2, 18598, Control_c, 0, 64, 127
2, 18702, Note_on_c, 0, 75, 77
2, 18708, Note_off_c, 0, 51, 64
2, 18718, Note_off_c, 0, 80, 64
2, 18755, Note_off_c, 0, 60, 64
2, 18771, Note_off_c, 0, 66, 64
2, 18783, Note_off_c, 0, 44, 64
2, 18783, Control_c, 0, 64, 0
2, 18806, Control_c, 0, 64, 127
2, 18809, Note_on_c, 0, 80, 74
2, 18833, Note_off_c, 0, 75, 64
2, 18899, Note_on_c, 0, 78, 71
2, 18917, Note_off_c, 0, 80, 64
2, 19009, Note_on_c, 0, 49, 67
2, 19017, Note_on_c, 0, 76, 75
2, 19022, Note_off_c, 0, 78, 64
2, 19035, Control_c, 0, 64, 0
2, 19049, Control_c, 0, 64, 127
2, 19243, Control_c, 0, 64, 0
2, 19244, Note_on_c, 0, 56, 59
2, 19248, Note_off_c, 0, 49, 64
2, 19248, Note_off_c, 0, 76, 64
2, 19252, Note_on_c, 0, 72, 66
2, 19252, Note_on_c, 0, 61, 55
2, 19257, Control_c, 0, 64, 127
2, 19260, Note_on_c, 0, 64, 63
2, 19269, Control_c, 0, 64, 0
2, 19292, Control_c, 0, 64, 127
2, 19331, Note_off_c, 0, 56, 64
2, 19339, Note_off_c, 0, 61, 64
2, 19347, Note_off_c, 0, 64, 64
2, 19356, Note_on_c, 0, 75, 71
2, 19389, Note_off_c, 0, 72, 64
2, 19461, Note_on_c, 0, 73, 73
2, 19477, Control_c, 0, 64, 0
2, 19490, Note_off_c, 0, 75, 64
2, 19500, Control_c, 0, 64, 127
2, 19557, Note_on_c, 0, 71, 66
2, 19573, Note_off_c, 0, 73, 64
2, 19660, Note_on_c, 0, 37, 71
2, 19670, Note_on_c, 0, 69, 67
2, 19676, Note_off_c, 0, 71, 64
2, 19677, Control_c, 0, 64, 0
2, 19688, Control_c, 0, 64, 127
2, 19748, Note_off_c, 0, 69, 64
2, 19830, Note_on_c, 0, 69, 74
2, 19879, Note_off_c, 0, 69, 64
2, 19885, Control_c, 0, 64, 0
2, 19886, Note_on_c, 0, 69, 67
2, 19892, Note_on_c, 0, 64, 54
2, 19894, Note_on_c, 0, 55, 54
2, 19896, Control_c, 0, 64, 127
2, 19900, Note_off_c, 0, 37, 64
2, 19979, Note_off_c, 0, 64, 64
2, 19981, Note_off_c, 0, 55, 64
2, 20005, Note_off_c, 0, 69, 64
2, 20082, Note_on_c, 0, 69, 67
2, 20087, Note_on_c, 0, 55, 71
2, 20095, Note_on_c, 0, 64, 74
2, 20174, Note_off_c, 0, 55, 64
2, 20182, Note_off_c, 0, 64, 64
2, 20292, Note_on_c, 0, 68, 74
2, 20306, Note_on_c, 0, 49, 67
2, 20314, Note_off_c, 0, 69, 64
2, 20316, Control_c, 0, 64, 0
2, 20339, Control_c, 0, 64, 127
2, 20400, Note_on_c, 0, 73, 71
2, 20439, Note_off_c, 0, 68, 64
2, 20498, Note_on_c, 0, 75, 71
2, 20504, Note_on_c, 0, 64, 67
2, 20504, Note_on_c, 0, 56, 71
2, 20522, Note_off_c, 0, 73, 64
2, 20524, Control_c, 0, 64, 0
2, 20546, Note_off_c, 0, 49, 64
2, 20547, Control_c, 0, 64, 127
2, 20591, Note_off_c, 0, 56, 64
2, 20591, Note_off_c, 0, 64, 64
2, 20594, Note_on_c, 0, 76, 77
2, 20599, Note_off_c, 0, 75, 64
2, 20686, Note_on_c, 0, 49, 67
2, 20694, Note_on_c, 0, 80, 75
2, 20717, Note_off_c, 0, 76, 64
2, 20789, Note_off_c, 0, 80, 64
2, 20789, Note_on_c, 0, 85, 85
2, 20901, Note_off_c, 0, 49, 64
2, 20905, Note_on_c, 0, 80, 74
2, 20910, Note_off_c, 0, 85, 64
2, 20912, Note_on_c, 0, 48, 67
2, 20940, Control_c, 0, 64, 0
2, 20974, Control_c, 0, 64, 127
2, 21140, Note_on_c, 0, 51, 46
2, 21146, Note_on_c, 0, 63, 50
2, 21148, Control_c, 0, 64, 0
2, 21152, Note_off_c, 0, 48, 64
2, 21153, Note_on_c, 0, 56, 47
2, 21182, Note_off_c, 0, 80, 64
2, 21182, Control_c, 0, 64, 127
2, 21227, Note_off_c, 0, 51, 64
2, 21233, Note_off_c, 0, 63, 64
2, 21240, Note_off_c, 0, 56, 64
2, 21245, Note_on_c, 0, 75, 65
2, 21386, Note_on_c, 0, 47, 65
2, 21388, Note_on_c, 0, 80, 67
2, 21434, Note_off_c, 0, 75, 64
2, 21509, Note_on_c, 0, 79, 74
2, 21530, Note_off_c, 0, 80, 64
2, 21635, Note_on_c, 0, 46, 65
2, 21637, Note_off_c, 0, 47, 64
2, 21643, Note_on_c, 0, 78, 73
2, 21660, Note_off_c, 0, 79, 64
2, 21667, Control_c, 0, 64, 0
2, 21690, Control_c, 0, 64, 127
2, 21758, Note_on_c, 0, 76, 71
2, 21778, Note_off_c, 0, 78, 64
2, 21864, Note_on_c, 0, 52, 66
2, 21867, Note_on_c, 0, 72, 52
2, 21872, Note_on_c, 0, 61, 66
2, 21875, Control_c, 0, 64, 0
2, 21889, Note_off_c, 0, 76, 64
2, 21898, Control_c, 0, 64, 127
2, 21951, Note_off_c, 0, 52, 64
2, 21951, Note_off_c, 0, 46, 64
2, 21959, Note_off_c, 0, 61, 64
2, 21987, Note_on_c, 0, 75, 71
2, 22008, Note_off_c, 0, 72, 64
2, 22100, Note_on_c, 0, 45, 65
2, 22108, Note_on_c, 0, 73, 72
2, 22136, Note_off_c, 0, 75, 64
2, 22229, Note_off_c, 0, 73, 64
2, 22229, Note_on_c, 0, 67, 66
2, 22365, Note_on_c, 0, 68, 63
2, 22383, Note_off_c, 0, 45, 64
2, 22385, Note_off_c, 0, 67, 64
2, 22386, Note_on_c, 0, 44, 65
2, 22404, Control_c, 0, 64, 0
2, 22426, Control_c, 0, 64, 127
2, 22507, Note_on_c, 0, 69, 48
2, 22518, Note_off_c, 0, 68, 64
2, 22541, Note_on_c, 0, 68, 64
2, 22547, Note_off_c, 0, 69, 64
2, 22583, Note_on_c, 0, 69, 60
2, 22586, Note_off_c, 0, 68, 64
2, 22612, Control_c, 0, 64, 0
2, 22612, Note_on_c, 0, 68, 72
2, 22616, Note_on_c, 0, 56, 63
2, 22620, Note_on_c, 0, 64, 57
2, 22626, Note_off_c, 0, 44, 64
2, 22628, Note_off_c, 0, 69, 64
2, 22634, Control_c, 0, 64, 127
2, 22634, Control_c, 0, 64, 0
2, 22659, Control_c, 0, 64, 127
2, 22703, Note_off_c, 0, 56, 64
2, 22707, Note_off_c, 0, 64, 64
2, 22736, Note_on_c, 0, 67, 72
2, 22759, Note_off_c, 0, 68, 64
2, 22842, Control_c, 0, 64, 0
2, 22864, Note_on_c, 0, 68, 67
2, 22864, Note_on_c, 0, 66, 55
2, 22864, Note_on_c, 0, 60, 55
2, 22866, Note_on_c, 0, 56, 55
2, 22867, Control_c, 0, 64, 127
2, 22884, Note_off_c, 0, 67, 64
2, 22887, Control_c, 0, 64, 0
2, 22898, Control_c, 0, 64, 127
2, 22951, Note_off_c, 0, 60, 64
2, 22951, Note_off_c, 0, 66, 64
2, 22953, Note_off_c, 0, 56, 64
2, 23010, Note_on_c, 0, 76, 62
2, 23035, Note_off_c, 0, 68, 64
2, 23095, Control_c, 0, 64, 0
2, 23106, Control_c, 0, 64, 127
2, 23130, Note_on_c, 0, 73, 66
2, 23142, Note_on_c, 0, 49, 66
2, 23156, Note_off_c, 0, 76, 64
2, 23264, Note_on_c, 0, 61, 67
2, 23313, Note_off_c, 0, 73, 64
2, 23382, Note_off_c, 0, 49, 64
2, 23430, Note_on_c, 0, 56, 54
2, 23434, Note_on_c, 0, 73, 75
2, 23437, Note_on_c, 0, 64, 56
2, 23755, Note_on_c, 0, 59, 63
2, 23762, Note_off_c, 0, 56, 64
2, 23769, Note_off_c, 0, 64, 64
2, 23899, Note_on_c, 0, 57, 33
2, 23908, Note_off_c, 0, 73, 64
2, 23936, Note_off_c, 0, 59, 64
2, 24056, Note_on_c, 0, 56, 50
2, 24068, Note_on_c, 0, 63, 66
2, 24072, Note_off_c, 0, 57, 64
2, 24098, Control_c, 0, 64, 0
2, 24111, Control_c, 0, 64, 127
2, 24194, Note_off_c, 0, 63, 64
2, 24216, Note_on_c, 0, 55, 41
2, 24231, Note_off_c, 0, 56, 64
2, 24278, Note_on_c, 0, 63, 66
2, 24306, Control_c, 0, 64, 0
2, 24319, Control_c, 0, 64, 127
2, 24321, Note_off_c, 0, 63, 64
2, 24335, Note_off_c, 0, 61, 64
2, 24338, Note_on_c, 0, 63, 67
2, 24345, Note_on_c, 0, 60, 62
2, 24349, Note_on_c, 0, 54, 47
2, 24358, Note_on_c, 0, 56, 50
2, 24363, Note_off_c, 0, 55, 64
2, 24413, Control_c, 0, 64, 0
2, 24438, Control_c, 0, 64, 127
2, 24497, Note_off_c, 0, 56, 64
2, 24563, Note_on_c, 0, 56, 20
2, 24584, Note_off_c, 0, 60, 64
2, 24595, Note_on_c, 0, 53, 44
2, 24595, Note_on_c, 0, 61, 54
2, 24596, Note_on_c, 0, 65, 66
2, 24600, Note_off_c, 0, 63, 64
2, 24617, Note_off_c, 0, 54, 64
2, 24621, Control_c, 0, 64, 0
2, 24626, Control_c, 0, 64, 0
2, 24638, Control_c, 0, 64, 127
2, 24646, Control_c, 0, 64, 127
2, 24739, Note_off_c, 0, 56, 64
2, 24821, Note_on_c, 0, 51, 50
2, 24822, Note_on_c, 0, 60, 50
2, 24825, Note_off_c, 0, 65, 64
2, 24829, Note_on_c, 0, 56, 47
2, 24834, Note_off_c, 0, 53, 64
2, 24834, Control_c, 0, 64, 0
2, 24846, Control_c, 0, 64, 127
2, 24856, Note_off_c, 0, 61, 64
2, 24940, Note_on_c, 0, 68, 63
2, 25050, Note_on_c, 0, 66, 65
2, 25057, Note_on_c, 0, 44, 50
2, 25079, Note_off_c, 0, 68, 64
2, 25114, Note_off_c, 0, 51, 64
2, 25122, Note_off_c, 0, 56, 64
2, 25264, Note_on_c, 0, 61, 50
2, 25264, Note_on_c, 0, 49, 47
2, 25271, Note_on_c, 0, 65, 71
2, 25277, Note_on_c, 0, 56, 42
2, 25281, Note_off_c, 0, 66, 64
2, 25289, Note_off_c, 0, 60, 64
2, 25299, Control_c, 0, 64, 0
2, 25322, Note_off_c, 0, 44, 64
2, 25322, Control_c, 0, 64, 127
2, 25489, Note_on_c, 0, 42, 48
2, 25493, Note_on_c, 0, 63, 64
2, 25497, Note_on_c, 0, 58, 64
2, 25507, Control_c, 0, 64, 0
2, 25510, Note_off_c, 0, 65, 64
2, 25510, Control_c, 0, 64, 0
2, 25516, Note_off_c, 0, 49, 64
2, 25516, Note_off_c, 0, 61, 64
2, 25526, Control_c, 0, 64, 127
2, 25530, Control_c, 0, 64, 127
2, 25630, Note_off_c, 0, 63, 64
2, 25660, Note_on_c, 0, 63, 66
2, 25690, Note_off_c, 0, 63, 64
2, 25712, Note_on_c, 0, 54, 46
2, 25717, Note_on_c, 0, 63, 71
2, 25718, Control_c, 0, 64, 0
2, 25729, Control_c, 0, 64, 0
2, 25730, Note_off_c, 0, 56, 64
2, 25734, Control_c, 0, 64, 127
2, 25764, Control_c, 0, 64, 127
2, 25804, Note_off_c, 0, 58, 64
2, 25932, Note_on_c, 0, 65, 64
2, 25937, Control_c, 0, 64, 0
2, 25937, Note_on_c, 0, 60, 52
2, 25941, Note_on_c, 0, 44, 46
2, 25942, Note_off_c, 0, 63, 64
2, 25942, Note_on_c, 0, 56, 47
2, 25951, Control_c, 0, 64, 0
2, 25965, Control_c, 0, 64, 127
2, 25969, Note_off_c, 0, 42, 64
2, 25972, Control_c, 0, 64, 127
2, 26033, Note_off_c, 0, 56, 64
2, 26053, Note_off_c, 0, 60, 64
2, 26068, Note_on_c, 0, 63, 67
2, 26083, Note_off_c, 0, 65, 64
2, 26112, Note_on_c, 0, 65, 64
2, 26115, Note_off_c, 0, 54, 64
2, 26120, Note_off_c, 0, 63, 64
2, 26131, Note_on_c, 0, 46, 50
2, 26135, Note_on_c, 0, 63, 66
2, 26140, Note_on_c, 0, 54, 48
2, 26150, Note_off_c, 0, 44, 64
2, 26159, Control_c, 0, 64, 0
2, 26165, Note_off_c, 0, 65, 64
2, 26173, Control_c, 0, 64, 127
2, 26181, Control_c, 0, 64, 0
2, 26193, Control_c, 0, 64, 127
2, 26274, Note_on_c, 0, 62, 62
2, 26296, Note_off_c, 0, 63, 64
2, 26349, Note_on_c, 0, 56, 40
2, 26350, Note_on_c, 0, 63, 57
2, 26357, Note_on_c, 0, 48, 48
2, 26364, Note_off_c, 0, 62, 64
2, 26365, Note_off_c, 0, 46, 64
2, 26389, Control_c, 0, 64, 0
2, 26400, Control_c, 0, 64, 0
2, 26401, Control_c, 0, 64, 127
2, 26422, Control_c, 0, 64, 127
2, 26498, Note_off_c, 0, 54, 64
2, 26592, Note_on_c, 0, 53, 50
2, 26598, Note_on_c, 0, 61, 66
2, 26600, Note_on_c, 0, 49, 42
2, 26608, Control_c, 0, 64, 0
2, 26613, Note_off_c, 0, 63, 64
2, 26629, Note_off_c, 0, 48, 64
2, 26630, Control_c, 0, 64, 127
2, 26827, Note_on_c, 0, 63, 67
2, 26840, Note_on_c, 0, 32, 66
2, 26840, Note_on_c, 0, 44, 66
2, 26840, Note_on_c, 0, 51, 55
2, 26846, Note_off_c, 0, 49, 64
2, 26846, Note_off_c, 0, 53, 64
2, 26927, Note_off_c, 0, 56, 64
2, 26960, Note_off_c, 0, 61, 64
2, 26989, Note_off_c, 0, 63, 64
2, 27001, Note_on_c, 0, 63, 81
2, 27035, Note_off_c, 0, 63, 64
2, 27057, Note_on_c, 0, 63, 67
2, 27066, Note_on_c, 0, 56, 46
2, 27070, Note_on_c, 0, 54, 50
2, 27096, Control_c, 0, 64, 0
2, 27116, Note_off_c, 0, 51, 64
2, 27116, Note_off_c, 0, 44, 64
2, 27116, Note_off_c, 0, 32, 64
2, 27128, Control_c, 0, 64, 127
2, 27257, Note_off_c, 0, 56, 64
2, 27261, Note_off_c, 0, 54, 64
2, 27279, Note_on_c, 0, 65, 62
2, 27284, Note_on_c, 0, 53, 54
2, 27287, Note_on_c, 0, 56, 48
2, 27289, Note_on_c, 0, 61, 56
2, 27296, Note_off_c, 0, 63, 64
2, 27304, Control_c, 0, 64, 0
2, 27336, Control_c, 0, 64, 127
2, 27463, Note_off_c, 0, 53, 64
2, 27466, Note_off_c, 0, 56, 64
2, 27468, Note_off_c, 0, 61, 64
2, 27496, Note_on_c, 0, 51, 26
2, 27498, Note_on_c, 0, 56, 50
2, 27499, Note_on_c, 0, 60, 56
2, 27502, Note_on_c, 0, 68, 59
2, 27515, Control_c, 0, 64, 0
2, 27529, Note_off_c, 0, 65, 64
2, 27539, Control_c, 0, 64, 127
2, 27623, Note_on_c, 0, 70, 65
2, 27643, Note_off_c, 0, 68, 64
2, 27718, Note_on_c, 0, 66, 63
2, 27722, Note_on_c, 0, 44, 54
2, 27723, Control_c, 0, 64, 0
2, 27747, Control_c, 0, 64, 127
2, 27756, Note_off_c, 0, 70, 64
2, 27846, Note_off_c, 0, 60, 64
2, 27909, Note_off_c, 0, 56, 64
2, 27935, Note_off_c, 0, 44, 64
2, 27936, Note_on_c, 0, 61, 50
2, 27940, Note_on_c, 0, 65, 65
2, 27945, Note_on_c, 0, 56, 47
2, 27947, Note_on_c, 0, 49, 54
2, 27951, Note_off_c, 0, 51, 64
2, 27957, Note_off_c, 0, 66, 64
2, 28092, Note_off_c, 0, 61, 64
2, 28159, Note_on_c, 0, 58, 57
2, 28164, Note_on_c, 0, 42, 54
2, 28164, Note_on_c, 0, 63, 64
2, 28181, Note_off_c, 0, 65, 64
2, 28186, Note_off_c, 0, 49, 64
2, 28189, Control_c, 0, 64, 0
2, 28210, Control_c, 0, 64, 127
2, 28323, Note_off_c, 0, 63, 64
2, 28324, Note_on_c, 0, 73, 65
2, 28376, Note_on_c, 0, 63, 67
2, 28380, Note_on_c, 0, 54, 55
2, 28385, Note_off_c, 0, 73, 64
2, 28392, Note_off_c, 0, 56, 64
2, 28397, Control_c, 0, 64, 0
2, 28398, Control_c, 0, 64, 0
2, 28418, Control_c, 0, 64, 127
2, 28441, Control_c, 0, 64, 127
2, 28517, Note_off_c, 0, 58, 64
2, 28604, Note_on_c, 0, 65, 64
2, 28604, Note_on_c, 0, 60, 48
2, 28606, Control_c, 0, 64, 0
2, 28607, Note_off_c, 0, 63, 64
2, 28609, Note_on_c, 0, 53, 33
2, 28614, Note_on_c, 0, 44, 50
2, 28616, Control_c, 0, 64, 0
2, 28619, Note_off_c, 0, 54, 64
2, 28621, Note_off_c, 0, 42, 64
2, 28640, Control_c, 0, 64, 127
2, 28649, Control_c, 0, 64, 127
2, 28692, Note_off_c, 0, 60, 64
2, 28740, Note_on_c, 0, 63, 48
2, 28742, Note_off_c, 0, 65, 64
2, 28772, Note_on_c, 0, 65, 55
2, 28778, Note_off_c, 0, 63, 64
2, 28808, Note_on_c, 0, 63, 63
2, 28814, Note_on_c, 0, 46, 42
2, 28821, Note_off_c, 0, 44, 64
2, 28821, Note_on_c, 0, 54, 40
2, 28824, Control_c, 0, 64, 0
2, 28837, Note_off_c, 0, 65, 64
2, 28840, Note_off_c, 0, 53, 64
2, 28844, Control_c, 0, 64, 0
2, 28848, Control_c, 0, 64, 127
2, 28880, Control_c, 0, 64, 127
2, 28974, Note_on_c, 0, 62, 63
2, 28987, Note_off_c, 0, 63, 64
2, 29033, Note_on_c, 0, 63, 75
2, 29033, Note_on_c, 0, 56, 47
2, 29037, Note_on_c, 0, 48, 48
2, 29048, Note_off_c, 0, 62, 64
2, 29052, Control_c, 0, 64, 0
2, 29057, Control_c, 0, 64, 0
2, 29068, Note_off_c, 0, 46, 64
2, 29088, Control_c, 0, 64, 127
2, 29092, Control_c, 0, 64, 127
2, 29140, Note_off_c, 0, 54, 64
2, 29265, Control_c, 0, 64, 0
2, 29266, Note_on_c, 0, 61, 67
2, 29269, Note_on_c, 0, 49, 50
2, 29272, Note_on_c, 0, 53, 50
2, 29279, Control_c, 0, 64, 0
2, 29285, Note_off_c, 0, 63, 64
2, 29295, Note_off_c, 0, 48, 64
2, 29296, Control_c, 0, 64, 127
2, 29300, Control_c, 0, 64, 127
2, 29464, Note_off_c, 0, 56, 64
2, 29487, Control_c, 0, 64, 0
2, 29504, Control_c, 0, 64, 127
2, 29506, Note_off_c, 0, 61, 64
2, 29509, Note_off_c, 0, 49, 64
2, 29512, Note_off_c, 0, 53, 64
2, 29545, Note_on_c, 0, 37, 57
2, 29547, Note_on_c, 0, 68, 73
2, 29563, Control_c, 0, 64, 0
2, 29606, Control_c, 0, 64, 127
2, 29675, Note_off_c, 0, 68, 64
2, 29771, Control_c, 0, 64, 0
2, 29785, Note_off_c, 0, 37, 64
2, 29786, Note_on_c, 0, 68, 72
2, 29812, Note_off_c, 0, 68, 64
2, 29814, Control_c, 0, 64, 127
2, 29839, Note_on_c, 0, 68, 81
2, 29845, Note_on_c, 0, 65, 63
2, 29845, Note_on_c, 0, 63, 50
2, 29850, Note_on_c, 0, 59, 62
2, 29862, Control_c, 0, 64, 0
2, 29895, Control_c, 0, 64, 127
2, 29937, Note_off_c, 0, 63, 64
2, 30046, Note_off_c, 0, 68, 64
2, 30054, Note_off_c, 0, 65, 64
2, 30070, Control_c, 0, 64, 0
2, 30075, Note_on_c, 0, 66, 57
2, 30078, Note_on_c, 0, 70, 67
2, 30084, Note_off_c, 0, 59, 64
2, 30084, Note_on_c, 0, 61, 37
2, 30088, Note_on_c, 0, 58, 54
2, 30098, Control_c, 0, 64, 0
2, 30103, Control_c, 0, 64, 127
2, 30115, Control_c, 0, 64, 127
2, 30140, Note_off_c, 0, 58, 64
2, 30262, Note_off_c, 0, 70, 64
2, 30300, Control_c, 0, 64, 0
2, 30305, Note_on_c, 0, 73, 72
2, 30306, Control_c, 0, 64, 0
2, 30313, Note_on_c, 0, 49, 59
2, 30323, Control_c, 0, 64, 127
2, 30329, Note_off_c, 0, 66, 64
2, 30336, Note_off_c, 0, 61, 64
2, 30344, Control_c, 0, 64, 127
2, 30445, Note_off_c, 0, 73, 64
2, 30463, Note_on_c, 0, 71, 67
2, 30500, Note_off_c, 0, 71, 64
2, 30508, Control_c, 0, 64, 0
2, 30520, Note_on_c, 0, 71, 75
2, 30529, Note_on_c, 0, 65, 56
2, 30531, Note_on_c, 0, 63, 35
2, 30532, Note_on_c, 0, 56, 47
2, 30545, Control_c, 0, 64, 0
2, 30552, Control_c, 0, 64, 127
2, 30556, Control_c, 0, 64, 127
2, 30745, Note_on_c, 0, 70, 65
2, 30745, Control_c, 0, 64, 0
2, 30751, Note_on_c, 0, 66, 62
2, 30753, Control_c, 0, 64, 0
2, 30755, Note_on_c, 0, 58, 56
2, 30756, Note_on_c, 0, 61, 36
2, 30764, Control_c, 0, 64, 127
2, 30775, Note_off_c, 0, 71, 64
2, 30784, Note_off_c, 0, 65, 64
2, 30785, Control_c, 0, 64, 127
2, 30786, Note_off_c, 0, 63, 64
2, 30787, Note_off_c, 0, 56, 64
2, 30891, Note_off_c, 0, 49, 64
2, 30953, Control_c, 0, 64, 0
2, 30955, Note_off_c, 0, 58, 64
2, 30965, Control_c, 0, 64, 0
2, 30975, Note_on_c, 0, 68, 71
2, 30982, Note_on_c, 0, 49, 57
2, 30993, Control_c, 0, 64, 127
2, 31003, Note_off_c, 0, 70, 64
2, 31014, Note_off_c, 0, 61, 64
2, 31018, Control_c, 0, 64, 127
2, 31128, Note_off_c, 0, 68, 64
2, 31128, Note_on_c, 0, 75, 66
2, 31172, Note_on_c, 0, 63, 46
2, 31173, Control_c, 0, 64, 0
2, 31177, Control_c, 0, 64, 0
2, 31183, Note_on_c, 0, 68, 83
2, 31186, Note_off_c, 0, 66, 64
2, 31188, Note_on_c, 0, 65, 59
2, 31190, Note_off_c, 0, 75, 64
2, 31193, Note_on_c, 0, 59, 59
2, 31226, Control_c, 0, 64, 127
2, 31232, Control_c, 0, 64, 127
2, 31385, Control_c, 0, 64, 0
2, 31399, Control_c, 0, 64, 0
2, 31406, Note_on_c, 0, 70, 71
2, 31415, Note_on_c, 0, 66, 59
2, 31417, Note_on_c, 0, 61, 48
2, 31423, Note_off_c, 0, 63, 64
2, 31424, Note_on_c, 0, 58, 57
2, 31433, Control_c, 0, 64, 127
2, 31434, Note_off_c, 0, 68, 64
2, 31439, Note_off_c, 0, 65, 64
2, 31440, Control_c, 0, 64, 127
2, 31444, Note_off_c, 0, 59, 64
2, 31498, Note_off_c, 0, 61, 64
2, 31498, Note_off_c, 0, 66, 64
2, 31505, Note_off_c, 0, 58, 64
2, 31541, Note_off_c, 0, 70, 64
2, 31551, Note_on_c, 0, 68, 37
2, 31576, Note_on_c, 0, 70, 75
2, 31598, Note_off_c, 0, 68, 64
2, 31607, Control_c, 0, 64, 0
2, 31620, Note_on_c, 0, 68, 73
2, 31628, Note_on_c, 0, 54, 50
2, 31628, Note_on_c, 0, 59, 55
2, 31630, Note_on_c, 0, 63, 55
2, 31641, Control_c, 0, 64, 127
2, 31648, Control_c, 0, 64, 0
2, 31652, Note_off_c, 0, 70, 64
2, 31671, Control_c, 0, 64, 127
2, 31702, Note_off_c, 0, 49, 64
2, 31763, Note_on_c, 0, 67, 74
2, 31782, Note_off_c, 0, 68, 64
2, 31807, Note_off_c, 0, 59, 64
2, 31808, Note_on_c, 0, 49, 44
2, 31816, Note_on_c, 0, 53, 62
2, 31817, Note_off_c, 0, 67, 64
2, 31819, Note_on_c, 0, 68, 83
2, 31820, Note_on_c, 0, 61, 50
2, 31825, Note_off_c, 0, 54, 64
2, 31827, Note_off_c, 0, 63, 64
2, 31828, Note_on_c, 0, 59, 72
2, 31856, Control_c, 0, 64, 0
2, 31861, Control_c, 0, 64, 0
2, 31879, Control_c, 0, 64, 127
2, 31891, Control_c, 0, 64, 127
2, 32067, Note_off_c, 0, 49, 64
2, 32069, Control_c, 0, 64, 0
2, 32072, Note_on_c, 0, 66, 67
2, 32075, Note_off_c, 0, 53, 64
2, 32076, Note_off_c, 0, 59, 64
2, 32079, Note_off_c, 0, 61, 64
2, 32083, Note_on_c, 0, 58, 62
2, 32083, Note_on_c, 0, 54, 55
2, 32083, Note_on_c, 0, 42, 59
2, 32086, Note_off_c, 0, 68, 64
2, 32093, Control_c, 0, 64, 0
2, 32099, Control_c, 0, 64, 127
2, 32127, Control_c, 0, 64, 127
2, 32301, Control_c, 0, 64, 0
2, 32301, Control_c, 0, 64, 0
2, 32312, Note_on_c, 0, 37, 83
2, 32335, Control_c, 0, 64, 127
2, 32339, Note_off_c, 0, 66, 64
2, 32350, Note_off_c, 0, 42, 64
2, 32350, Note_off_c, 0, 54, 64
2, 32350, Note_off_c, 0, 58, 64
2, 32352, Control_c, 0, 64, 127
2, 32368, Control_c, 0, 64, 0
2, 32391, Control_c, 0, 64, 127
2, 32492, Note_on_c, 0, 68, 81
2, 32509, Control_c, 0, 64, 0
2, 32526, Note_off_c, 0, 68, 64
2, 32542, Note_on_c, 0, 63, 63
2, 32545, Note_on_c, 0, 68, 85
2, 32547, Note_on_c, 0, 65, 72
2, 32552, Note_on_c, 0, 59, 57
2, 32560, Control_c, 0, 64, 127
2, 32561, Control_c, 0, 64, 0
2, 32576, Control_c, 0, 64, 0
2, 32599, Control_c, 0, 64, 127
2, 32605, Control_c, 0, 64, 127
2, 32636, Note_off_c, 0, 63, 64
2, 32676, Note_off_c, 0, 37, 64
2, 32761, Note_off_c, 0, 68, 64
2, 32769, Control_c, 0, 64, 0
2, 32777, Note_on_c, 0, 70, 75
2, 32780, Note_off_c, 0, 59, 64
2, 32781, Note_on_c, 0, 61, 47
2, 32781, Note_on_c, 0, 58, 57
2, 32787, Note_on_c, 0, 66, 66
2, 32792, Control_c, 0, 64, 0
2, 32810, Note_off_c, 0, 65, 64
2, 32813, Control_c, 0, 64, 127
2, 32818, Control_c, 0, 64, 127
2, 32852, Note_off_c, 0, 58, 64
2, 33000, Control_c, 0, 64, 0
2, 33003, Control_c, 0, 64, 0
2, 33006, Note_on_c, 0, 73, 75
2, 33014, Note_on_c, 0, 49, 57
2, 33016, Note_off_c, 0, 70, 64
2, 33021, Note_off_c, 0, 66, 64
2, 33026, Control_c, 0, 64, 127
2, 33042, Note_off_c, 0, 61, 64
2, 33055, Control_c, 0, 64, 127
2, 33147, Note_off_c, 0, 73, 64
2, 33165, Note_on_c, 0, 71, 74
2, 33200, Note_off_c, 0, 71, 64
2, 33211, Control_c, 0, 64, 0
2, 33214, Control_c, 0, 64, 0
2, 33223, Note_on_c, 0, 65, 66
2, 33223, Note_on_c, 0, 71, 81
2, 33229, Note_on_c, 0, 61, 47
2, 33231, Note_on_c, 0, 56, 59
2, 33263, Control_c, 0, 64, 127
2, 33285, Control_c, 0, 64, 127
2, 33422, Control_c, 0, 64, 0
2, 33452, Note_off_c, 0, 71, 64
2, 33455, Note_off_c, 0, 56, 64
2, 33465, Control_c, 0, 64, 0
2, 33471, Note_on_c, 0, 66, 66
2, 33471, Note_on_c, 0, 70, 81
2, 33475, Note_on_c, 0, 54, 64
2, 33493, Control_c, 0, 64, 127
2, 33494, Note_off_c, 0, 65, 64
2, 33505, Control_c, 0, 64, 127
2, 33668, Note_off_c, 0, 54, 64
2, 33673, Control_c, 0, 64, 0
2, 33697, Note_off_c, 0, 70, 64
2, 33700, Note_on_c, 0, 75, 75
2, 33701, Note_off_c, 0, 49, 64
2, 33709, Note_on_c, 0, 51, 75
2, 33710, Control_c, 0, 64, 0
2, 33713, Control_c, 0, 64, 127
2, 33733, Note_off_c, 0, 61, 64
2, 33744, Control_c, 0, 64, 127
2, 33885, Note_on_c, 0, 73, 71
2, 33903, Note_off_c, 0, 75, 64
2, 33918, Control_c, 0, 64, 0
2, 33926, Note_off_c, 0, 73, 64
2, 33947, Note_on_c, 0, 63, 64
2, 33947, Note_on_c, 0, 73, 75
2, 33950, Note_off_c, 0, 66, 64
2, 33952, Control_c, 0, 64, 127
2, 33952, Note_on_c, 0, 67, 75
2, 33956, Note_on_c, 0, 58, 65
2, 33962, Control_c, 0, 64, 0
2, 34016, Control_c, 0, 64, 127
2, 34170, Control_c, 0, 64, 0
2, 34198, Note_off_c, 0, 73, 64
2, 34221, Note_on_c, 0, 68, 73
2, 34221, Note_on_c, 0, 71, 73
2, 34222, Note_off_c, 0, 58, 64
2, 34224, Control_c, 0, 64, 127
2, 34228, Note_on_c, 0, 56, 66
2, 34238, Control_c, 0, 64, 0
2, 34250, Note_off_c, 0, 67, 64
2, 34268, Control_c, 0, 64, 127
2, 34428, Note_off_c, 0, 51, 64
2, 34446, Control_c, 0, 64, 0
2, 34476, Control_c, 0, 64, 127
2, 34518, Note_on_c, 0, 76, 79
2, 34523, Note_off_c, 0, 56, 64
2, 34525, Note_on_c, 0, 52, 71
2, 34548, Note_off_c, 0, 63, 64
2, 34552, Control_c, 0, 64, 0
2, 34553, Note_off_c, 0, 71, 64
2, 34592, Control_c, 0, 64, 127
2, 34760, Control_c, 0, 64, 0
2, 34800, Control_c, 0, 64, 127
2, 34811, Note_off_c, 0, 76, 64
2, 34827, Note_on_c, 0, 74, 72
2, 34865, Note_off_c, 0, 74, 64
2, 34868, Note_off_c, 0, 68, 64
2, 34896, Note_on_c, 0, 74, 81
2, 34908, Note_on_c, 0, 64, 59
2, 34908, Note_on_c, 0, 59, 66
2, 34912, Note_on_c, 0, 68, 72
2, 34947, Control_c, 0, 64, 0
2, 34993, Control_c, 0, 64, 127
2, 35023, Note_off_c, 0, 59, 64
2, 35048, Note_off_c, 0, 64, 64
2, 35155, Control_c, 0, 64, 0
2, 35201, Control_c, 0, 64, 127
2, 35248, Note_off_c, 0, 68, 64
2, 35264, Note_on_c, 0, 64, 41
2, 35269, Note_on_c, 0, 68, 72
2, 35271, Note_on_c, 0, 59, 56
2, 35415, Note_off_c, 0, 64, 64
2, 35416, Note_off_c, 0, 59, 64
2, 35636, Note_on_c, 0, 45, 63
2, 35672, Note_off_c, 0, 52, 64
2, 35688, Note_on_c, 0, 67, 72
2, 35711, Note_off_c, 0, 68, 64
2, 35729, Note_off_c, 0, 74, 64
2, 35737, Control_c, 0, 64, 0
2, 35749, Control_c, 0, 64, 127
2, 35876, Note_off_c, 0, 45, 64
2, 35945, Note_off_c, 0, 67, 64
2, 35945, Control_c, 0, 64, 0
2, 35957, Control_c, 0, 64, 127
2, 35992, Note_on_c, 0, 73, 75
2, 35995, Note_on_c, 0, 64, 54
2, 36002, Note_on_c, 0, 67, 41
2, 36002, Note_on_c, 0, 57, 50
2, 36082, Note_off_c, 0, 64, 64
2, 36089, Note_off_c, 0, 57, 64
2, 36089, Note_off_c, 0, 67, 64
2, 36269, Note_on_c, 0, 57, 46
2, 36269, Note_on_c, 0, 63, 42
2, 36279, Note_on_c, 0, 67, 50
2, 36356, Note_off_c, 0, 63, 64
2, 36356, Note_off_c, 0, 57, 64
2, 36366, Note_off_c, 0, 67, 64
2, 36403, Note_off_c, 0, 73, 64
2, 36416, Note_on_c, 0, 75, 65
2, 36549, Note_on_c, 0, 44, 73
2, 36554, Note_on_c, 0, 73, 72
2, 36555, Note_off_c, 0, 75, 64
2, 36588, Control_c, 0, 64, 0
2, 36603, Control_c, 0, 64, 127
2, 36740, Note_on_c, 0, 72, 74
2, 36766, Note_off_c, 0, 73, 64
2, 36789, Note_off_c, 0, 44, 64
2, 36796, Control_c, 0, 64, 0
2, 36808, Note_on_c, 0, 63, 50
2, 36808, Note_on_c, 0, 56, 57
2, 36811, Control_c, 0, 64, 127
2, 36814, Note_on_c, 0, 66, 44
2, 36818, Note_on_c, 0, 75, 75
2, 36858, Note_off_c, 0, 72, 64
2, 36895, Note_off_c, 0, 56, 64
2, 36895, Note_off_c, 0, 63, 64
2, 36901, Note_off_c, 0, 66, 64
2, 37056, Note_on_c, 0, 71, 73
2, 37059, Note_on_c, 0, 66, 29
2, 37065, Note_on_c, 0, 61, 63
2, 37065, Note_on_c, 0, 56, 31
2, 37105, Note_off_c, 0, 75, 64
2, 37112, Control_c, 0, 64, 0
2, 37136, Control_c, 0, 64, 127
2, 37146, Note_off_c, 0, 66, 64
2, 37152, Note_off_c, 0, 56, 64
2, 37152, Note_off_c, 0, 61, 64
2, 37174, Note_on_c, 0, 69, 71
2, 37180, Note_off_c, 0, 71, 64
2, 37282, Note_on_c, 0, 68, 77
2, 37300, Note_off_c, 0, 69, 64
2, 37320, Control_c, 0, 64, 0
2, 37344, Control_c, 0, 64, 127
2, 37511, Note_on_c, 0, 75, 75
2, 37517, Note_on_c, 0, 56, 35
2, 37520, Note_on_c, 0, 66, 35
2, 37520, Note_on_c, 0, 60, 26
2, 37524, Note_off_c, 0, 68, 64
2, 37541, Control_c, 0, 64, 0
2, 37596, Control_c, 0, 64, 127
2, 37604, Note_off_c, 0, 56, 64
2, 37607, Note_off_c, 0, 60, 64
2, 37607, Note_off_c, 0, 66, 64
2, 37749, Control_c, 0, 64, 0
2, 37752, Note_on_c, 0, 60, 40
2, 37758, Note_on_c, 0, 66, 29
2, 37758, Note_on_c, 0, 56, 44
2, 37804, Control_c, 0, 64, 127
2, 37839, Note_off_c, 0, 60, 64
2, 37845, Note_off_c, 0, 56, 64
2, 37845, Note_off_c, 0, 66, 64
2, 37845, Note_on_c, 0, 76, 66
2, 37883, Note_off_c, 0, 75, 64
2, 37995, Note_on_c, 0, 75, 72
2, 38000, Note_on_c, 0, 49, 54
2, 38010, Note_off_c, 0, 76, 64
2, 38015, Control_c, 0, 64, 0
2, 38037, Control_c, 0, 64, 127
2, 38168, Note_on_c, 0, 73, 82
2, 38202, Note_off_c, 0, 75, 64
2, 38223, Control_c, 0, 64, 0
2, 38237, Note_on_c, 0, 64, 55
2, 38240, Note_off_c, 0, 49, 64
2, 38241, Note_on_c, 0, 76, 81
2, 38241, Note_on_c, 0, 61, 46
2, 38241, Note_on_c, 0, 56, 44
2, 38245, Control_c, 0, 64, 127
2, 38277, Control_c, 0, 64, 0
2, 38278, Note_off_c, 0, 73, 64
2, 38344, Control_c, 0, 64, 127
2, 38371, Note_off_c, 0, 64, 64
2, 38375, Note_off_c, 0, 56, 64
2, 38375, Note_off_c, 0, 61, 64
2, 38462, Note_on_c, 0, 71, 72
2, 38485, Control_c, 0, 64, 0
2, 38540, Note_off_c, 0, 76, 64
2, 38552, Control_c, 0, 64, 127
2, 38561, Note_off_c, 0, 71, 64
2, 38561, Note_on_c, 0, 69, 73
2, 38682, Note_on_c, 0, 40, 71
2, 38684, Note_on_c, 0, 68, 74
2, 38702, Control_c, 0, 64, 0
2, 38708, Note_off_c, 0, 69, 64
2, 38718, Control_c, 0, 64, 127
2, 38768, Note_off_c, 0, 68, 64
2, 38910, Control_c, 0, 64, 0
2, 38922, Note_off_c, 0, 40, 64
2, 38926, Control_c, 0, 64, 127
2, 38954, Note_on_c, 0, 80, 75
2, 38963, Note_on_c, 0, 49, 52
2, 38969, Note_on_c, 0, 56, 42
2, 38972, Note_on_c, 0, 61, 21
2, 39000, Control_c, 0, 64, 0
2, 39035, Control_c, 0, 64, 127
2, 39050, Note_off_c, 0, 49, 64
2, 39056, Note_off_c, 0, 56, 64
2, 39059, Note_off_c, 0, 61, 64
2, 39208, Control_c, 0, 64, 0
2, 39222, Note_on_c, 0, 61, 42
2, 39222, Note_on_c, 0, 56, 50
2, 39228, Note_on_c, 0, 49, 40
2, 39243, Control_c, 0, 64, 127
2, 39309, Note_off_c, 0, 56, 64
2, 39309, Note_off_c, 0, 61, 64
2, 39313, Note_on_c, 0, 81, 75
2, 39315, Note_off_c, 0, 49, 64
2, 39379, Note_off_c, 0, 80, 64
2, 39471, Note_on_c, 0, 80, 75
2, 39474, Note_on_c, 0, 39, 72
2, 39491, Note_off_c, 0, 81, 64
2, 39506, Control_c, 0, 64, 0
2, 39530, Control_c, 0, 64, 127
2, 39624, Note_on_c, 0, 79, 66
2, 39655, Note_off_c, 0, 80, 64
2, 39714, Note_off_c, 0, 39, 64
2, 39714, Control_c, 0, 64, 0
2, 39728, Note_on_c, 0, 75, 74
2, 39728, Note_on_c, 0, 61, 64
2, 39735, Note_on_c, 0, 58, 55
2, 39738, Control_c, 0, 64, 127
2, 39742, Note_on_c, 0, 51, 42
2, 39756, Note_off_c, 0, 79, 64
2, 39765, Control_c, 0, 64, 0
2, 39776, Control_c, 0, 64, 127
2, 39815, Note_off_c, 0, 61, 64
2, 39822, Note_off_c, 0, 58, 64
2, 39829, Note_off_c, 0, 51, 64
2, 39955, Note_on_c, 0, 51, 54
2, 39959, Note_on_c, 0, 61, 50
2, 39959, Note_on_c, 0, 55, 55
2, 39973, Control_c, 0, 64, 0
2, 39984, Control_c, 0, 64, 127
2, 40042, Note_off_c, 0, 51, 64
2, 40046, Note_off_c, 0, 55, 64
2, 40046, Note_off_c, 0, 61, 64
2, 40073, Note_on_c, 0, 76, 73
2, 40095, Note_off_c, 0, 75, 64
2, 40180, Note_on_c, 0, 44, 66
2, 40183, Note_on_c, 0, 78, 75
2, 40197, Control_c, 0, 64, 0
2, 40201, Note_off_c, 0, 76, 64
2, 40224, Control_c, 0, 64, 127
2, 40391, Note_on_c, 0, 80, 75
2, 40400, Note_off_c, 0, 78, 64
2, 40400, Note_on_c, 0, 60, 57
2, 40400, Note_on_c, 0, 51, 54
2, 40404, Note_on_c, 0, 56, 54
2, 40405, Control_c, 0, 64, 0
2, 40420, Note_off_c, 0, 44, 64
2, 40420, Control_c, 0, 64, 0
2, 40432, Control_c, 0, 64, 127
2, 40443, Control_c, 0, 64, 127
2, 40487, Note_off_c, 0, 51, 64
2, 40487, Note_off_c, 0, 60, 64
2, 40491, Note_off_c, 0, 56, 64
2, 40606, Note_on_c, 0, 66, 50
2, 40610, Note_on_c, 0, 60, 55
2, 40615, Note_on_c, 0, 56, 54
2, 40628, Control_c, 0, 64, 0
2, 40651, Control_c, 0, 64, 127
2, 40688, Note_on_c, 0, 78, 72
2, 40693, Note_off_c, 0, 66, 64
2, 40697, Note_off_c, 0, 60, 64
2, 40702, Note_off_c, 0, 56, 64
2, 40716, Note_off_c, 0, 80, 64
2, 40823, Note_on_c, 0, 37, 82
2, 40832, Note_on_c, 0, 76, 73
2, 40848, Control_c, 0, 64, 0
2, 40874, Control_c, 0, 64, 127
2, 40876, Note_off_c, 0, 78, 64
2, 40944, Note_on_c, 0, 75, 60
2, 40966, Note_off_c, 0, 76, 64
2, 41042, Note_on_c, 0, 56, 33
2, 41044, Note_on_c, 0, 61, 41
2, 41045, Note_on_c, 0, 73, 71
2, 41052, Note_on_c, 0, 64, 44
2, 41055, Note_off_c, 0, 75, 64
2, 41056, Control_c, 0, 64, 0
2, 41062, Control_c, 0, 64, 0
2, 41063, Note_off_c, 0, 37, 64
2, 41076, Control_c, 0, 64, 127
2, 41082, Control_c, 0, 64, 127
2, 41129, Note_off_c, 0, 56, 64
2, 41131, Note_off_c, 0, 61, 64
2, 41139, Note_off_c, 0, 64, 64
2, 41261, Note_on_c, 0, 55, 35
2, 41261, Note_on_c, 0, 64, 33
2, 41270, Note_on_c, 0, 61, 40
2, 41270, Control_c, 0, 64, 0
2, 41284, Control_c, 0, 64, 127
2, 41286, Note_on_c, 0, 71, 74
2, 41303, Note_off_c, 0, 73, 64
2, 41348, Note_off_c, 0, 64, 64
2, 41348, Note_off_c, 0, 55, 64
2, 41357, Note_off_c, 0, 61, 64
2, 41378, Note_on_c, 0, 69, 65
2, 41403, Note_off_c, 0, 71, 64
2, 41479, Note_on_c, 0, 68, 75
2, 41490, Note_off_c, 0, 69, 64
2, 41494, Note_on_c, 0, 49, 59
2, 41532, Control_c, 0, 64, 0
2, 41548, Control_c, 0, 64, 127
2, 41686, Note_on_c, 0, 73, 74
2, 41697, Note_on_c, 0, 61, 37
2, 41697, Note_on_c, 0, 56, 42
2, 41702, Note_on_c, 0, 64, 29
2, 41709, Note_off_c, 0, 68, 64
2, 41732, Control_c, 0, 64, 0
2, 41734, Note_off_c, 0, 49, 64
2, 41740, Control_c, 0, 64, 0
2, 41756, Control_c, 0, 64, 127
2, 41768, Control_c, 0, 64, 127
2, 41784, Note_off_c, 0, 56, 64
2, 41784, Note_off_c, 0, 61, 64
2, 41789, Note_off_c, 0, 64, 64
2, 41940, Control_c, 0, 64, 0
2, 41957, Note_on_c, 0, 56, 50
2, 41958, Note_on_c, 0, 61, 37
2, 41958, Note_on_c, 0, 64, 54
2, 41976, Control_c, 0, 64, 127
2, 42044, Note_off_c, 0, 56, 64
2, 42045, Note_off_c, 0, 64, 64
2, 42045, Note_off_c, 0, 61, 64
2, 42062, Note_on_c, 0, 75, 67
2, 42091, Note_off_c, 0, 73, 64
2, 42171, Note_on_c, 0, 51, 63
2, 42177, Note_on_c, 0, 73, 72
2, 42190, Note_off_c, 0, 75, 64
2, 42273, Note_on_c, 0, 72, 66
2, 42288, Note_off_c, 0, 73, 64
2, 42360, Note_on_c, 0, 56, 40
2, 42366, Note_on_c, 0, 66, 48
2, 42367, Note_on_c, 0, 60, 50
2, 42368, Note_on_c, 0, 75, 64
2, 42384, Note_off_c, 0, 72, 64
2, 42387, Control_c, 0, 64, 0
2, 42411, Note_off_c, 0, 51, 64
2, 42427, Control_c, 0, 64, 127
2, 42447, Note_off_c, 0, 56, 64
2, 42453, Note_off_c, 0, 66, 64
2, 42454, Note_off_c, 0, 60, 64
2, 42595, Control_c, 0, 64, 0
2, 42613, Note_on_c, 0, 66, 41
2, 42616, Note_on_c, 0, 56, 41
2, 42618, Note_on_c, 0, 60, 46
2, 42622, Note_on_c, 0, 71, 68
2, 42635, Control_c, 0, 64, 127
2, 42654, Note_off_c, 0, 75, 64
2, 42700, Note_off_c, 0, 66, 64
2, 42703, Note_off_c, 0, 56, 64
2, 42705, Note_off_c, 0, 60, 64
2, 42723, Note_on_c, 0, 69, 56
2, 42743, Note_off_c, 0, 71, 64
2, 42825, Note_on_c, 0, 48, 63
2, 42825, Note_on_c, 0, 68, 63
2, 42832, Control_c, 0, 64, 0
2, 42842, Note_off_c, 0, 69, 64
2, 42858, Control_c, 0, 64, 127
2, 43009, Note_on_c, 0, 75, 75
2, 43015, Note_on_c, 0, 66, 32
2, 43021, Note_on_c, 0, 63, 50
2, 43021, Note_on_c, 0, 56, 56
2, 43037, Note_off_c, 0, 68, 64
2, 43040, Control_c, 0, 64, 0
2, 43040, Control_c, 0, 64, 0
2, 43065, Note_off_c, 0, 48, 64
2, 43066, Control_c, 0, 64, 127
2, 43068, Control_c, 0, 64, 127
2, 43102, Note_off_c, 0, 66, 64
2, 43108, Note_off_c, 0, 56, 64
2, 43108, Note_off_c, 0, 63, 64
2, 43248, Control_c, 0, 64, 0
2, 43253, Note_on_c, 0, 66, 32
2, 43253, Note_on_c, 0, 56, 57
2, 43260, Note_on_c, 0, 63, 57
2, 43276, Control_c, 0, 64, 127
2, 43340, Note_off_c, 0, 56, 64
2, 43340, Note_off_c, 0, 66, 64
2, 43347, Note_off_c, 0, 63, 64
2, 43366, Note_on_c, 0, 76, 67
2, 43372, Note_off_c, 0, 75, 64
2, 43502, Note_on_c, 0, 75, 75
2, 43506, Note_on_c, 0, 47, 66
2, 43509, Note_off_c, 0, 76, 64
2, 43525, Control_c, 0, 64, 0
2, 43551, Control_c, 0, 64, 127
2, 43699, Note_on_c, 0, 73, 63
2, 43702, Note_off_c, 0, 75, 64
2, 43733, Control_c, 0, 64, 0
2, 43759, Control_c, 0, 64, 127
2, 43775, Note_on_c, 0, 77, 75
2, 43780, Note_on_c, 0, 68, 65
2, 43783, Note_on_c, 0, 56, 64
2, 43784, Note_on_c, 0, 61, 63
2, 43794, Note_off_c, 0, 73, 64
2, 43867, Note_off_c, 0, 68, 64
2, 43870, Note_off_c, 0, 56, 64
2, 43871, Note_off_c, 0, 61, 64
2, 44096, Note_on_c, 0, 56, 50
2, 44096, Note_on_c, 0, 61, 41
2, 44183, Note_off_c, 0, 61, 64
2, 44183, Note_off_c, 0, 56, 64
2, 44398, Note_off_c, 0, 47, 64
2, 44419, Note_on_c, 0, 46, 66
2, 44431, Note_on_c, 0, 75, 74
2, 44442, Note_off_c, 0, 77, 64
2, 44573, Note_on_c, 0, 73, 75
2, 44596, Note_off_c, 0, 75, 64
2, 44680, Note_on_c, 0, 66, 64
2, 44681, Note_on_c, 0, 54, 64
2, 44684, Note_on_c, 0, 78, 85
2, 44688, Note_on_c, 0, 61, 66
2, 44712, Note_off_c, 0, 73, 64
2, 44767, Note_off_c, 0, 66, 64
2, 44768, Note_off_c, 0, 54, 64
2, 44775, Note_off_c, 0, 61, 64
2, 44882, Note_off_c, 0, 46, 64
2, 44915, Note_on_c, 0, 75, 75
2, 44919, Note_on_c, 0, 45, 73
2, 44924, Note_off_c, 0, 78, 64
2, 44937, Control_c, 0, 64, 0
2, 44959, Control_c, 0, 64, 127
2, 45051, Note_on_c, 0, 73, 81
2, 45085, Note_off_c, 0, 75, 64
2, 45123, Note_on_c, 0, 52, 55
2, 45145, Control_c, 0, 64, 0
2, 45158, Note_off_c, 0, 45, 64
2, 45167, Control_c, 0, 64, 127
2, 45171, Note_on_c, 0, 61, 59
2, 45175, Note_on_c, 0, 57, 50
2, 45224, Note_on_c, 0, 67, 64
2, 45224, Note_on_c, 0, 79, 75
2, 45263, Note_off_c, 0, 73, 64
2, 45269, Control_c, 0, 64, 0
2, 45313, Control_c, 0, 64, 127
2, 45477, Control_c, 0, 64, 0
2, 45511, Note_on_c, 0, 75, 83
2, 45521, Control_c, 0, 64, 127
2, 45525, Note_off_c, 0, 79, 64
2, 45701, Note_on_c, 0, 73, 94
2, 45754, Note_off_c, 0, 75, 64
2, 45934, Note_on_c, 0, 85, 98
2, 46012, Control_c, 0, 64, 0
2, 46038, Control_c, 0, 64, 127
2, 46058, Note_off_c, 0, 73, 64
2, 46220, Control_c, 0, 64, 0
2, 46246, Control_c, 0, 64, 127
2, 46417, Note_off_c, 0, 67, 64
2, 46421, Note_off_c, 0, 57, 64
2, 46445, Note_off_c, 0, 61, 64
2, 46483, Note_off_c, 0, 52, 64
2, 46486, Note_off_c, 0, 85, 64
2, 46569, Note_on_c, 0, 68, 75
2, 46575, Note_on_c, 0, 44, 71
2, 46591, Control_c, 0, 64, 0
2, 46628, Control_c, 0, 64, 127
2, 46736, Note_on_c, 0, 69, 64
2, 46743, Note_off_c, 0, 68, 64
2, 46788, Note_on_c, 0, 68, 66
2, 46795, Note_off_c, 0, 69, 64
2, 46799, Control_c, 0, 64, 0
2, 46815, Note_off_c, 0, 44, 64
2, 46815, Note_on_c, 0, 69, 75
2, 46824, Note_on_c, 0, 56, 66
2, 46827, Note_off_c, 0, 68, 64
2, 46828, Note_on_c, 0, 61, 55
2, 46832, Note_on_c, 0, 64, 59
2, 46836, Control_c, 0, 64, 127
2, 46847, Control_c, 0, 64, 0
2, 46856, Note_on_c, 0, 68, 81
2, 46870, Note_off_c, 0, 69, 64
2, 46872, Control_c, 0, 64, 127
2, 46911, Note_off_c, 0, 56, 64
2, 46915, Note_off_c, 0, 61, 64
2, 46919, Note_off_c, 0, 64, 64
2, 46971, Note_off_c, 0, 68, 64
2, 46976, Note_on_c, 0, 67, 74
2, 47055, Control_c, 0, 64, 0
2, 47080, Control_c, 0, 64, 127
2, 47116, Note_on_c, 0, 68, 75
2, 47116, Note_on_c, 0, 54, 64
2, 47122, Note_on_c, 0, 56, 57
2, 47124, Note_on_c, 0, 60, 57
2, 47142, Note_off_c, 0, 67, 64
2, 47203, Note_off_c, 0, 54, 64
2, 47209, Note_off_c, 0, 56, 64
2, 47211, Note_off_c, 0, 60, 64
2, 47264, Note_on_c, 0, 76, 67
2, 47304, Note_off_c, 0, 68, 64
2, 47398, Note_on_c, 0, 37, 66
2, 47400, Note_on_c, 0, 73, 75
2, 47423, Control_c, 0, 64, 0
2, 47428, Note_off_c, 0, 76, 64
2, 47439, Control_c, 0, 64, 127
2, 47527, Note_off_c, 0, 73, 64
2, 47542, Note_on_c, 0, 61, 74
2, 47631, Control_c, 0, 64, 0
2, 47638, Note_off_c, 0, 37, 64
2, 47647, Control_c, 0, 64, 127
2, 47671, Note_on_c, 0, 64, 33
2, 47675, Note_on_c, 0, 73, 75
2, 47675, Note_on_c, 0, 56, 40
2, 47695, Note_off_c, 0, 61, 64
2, 47711, Control_c, 0, 64, 0
2, 47743, Control_c, 0, 64, 127
2, 47758, Note_off_c, 0, 64, 64
2, 47762, Note_off_c, 0, 56, 64
2, 47919, Control_c, 0, 64, 0
2, 47938, Note_on_c, 0, 56, 32
2, 47951, Control_c, 0, 64, 127
2, 47954, Note_on_c, 0, 64, 36
2, 48025, Note_off_c, 0, 56, 64
2, 48041, Note_off_c, 0, 64, 64
2, 48244, Note_on_c, 0, 52, 65
2, 48261, Note_off_c, 0, 73, 64
2, 48484, Note_off_c, 0, 52, 64
2, 48493, Note_on_c, 0, 56, 37
2, 48515, Note_on_c, 0, 61, 26
2, 48521, Note_on_c, 0, 68, 26
2, 48562, Note_on_c, 0, 80, 75
2, 48580, Note_off_c, 0, 56, 64
2, 48580, Control_c, 0, 64, 0
2, 48602, Note_off_c, 0, 61, 64
2, 48608, Note_off_c, 0, 68, 64
2, 48608, Control_c, 0, 64, 127
2, 48788, Control_c, 0, 64, 0
2, 48814, Note_on_c, 0, 56, 31
2, 48816, Control_c, 0, 64, 127
2, 48820, Note_on_c, 0, 61, 32
2, 48824, Note_on_c, 0, 68, 26
2, 48901, Note_off_c, 0, 56, 64
2, 48907, Note_off_c, 0, 61, 64
2, 48911, Note_off_c, 0, 68, 64
2, 48948, Note_on_c, 0, 81, 73
2, 48965, Note_off_c, 0, 80, 64
2, 49078, Note_on_c, 0, 80, 66
2, 49085, Note_on_c, 0, 51, 59
2, 49098, Control_c, 0, 64, 0
2, 49111, Note_off_c, 0, 81, 64
2, 49120, Control_c, 0, 64, 127
2, 49205, Note_on_c, 0, 79, 66
2, 49237, Note_off_c, 0, 80, 64
2, 49306, Control_c, 0, 64, 0
2, 49325, Note_off_c, 0, 51, 64
2, 49328, Control_c, 0, 64, 127
2, 49353, Note_on_c, 0, 75, 74
2, 49362, Note_on_c, 0, 68, 56
2, 49363, Note_on_c, 0, 58, 52
2, 49372, Note_on_c, 0, 61, 27
2, 49388, Note_off_c, 0, 79, 64
2, 49450, Note_off_c, 0, 58, 64
2, 49459, Note_off_c, 0, 61, 64
2, 49521, Note_on_c, 0, 67, 50
2, 49543, Note_off_c, 0, 68, 64
2, 49658, Note_on_c, 0, 58, 44
2, 49665, Note_on_c, 0, 63, 56
2, 49670, Note_on_c, 0, 61, 27
2, 49684, Control_c, 0, 64, 0
2, 49696, Note_off_c, 0, 67, 64
2, 49704, Control_c, 0, 64, 127
2, 49745, Note_off_c, 0, 58, 64
2, 49757, Note_off_c, 0, 61, 64
2, 49892, Control_c, 0, 64, 0
2, 49912, Control_c, 0, 64, 127
2, 49939, Note_on_c, 0, 78, 73
2, 49948, Note_on_c, 0, 44, 50
2, 49957, Note_off_c, 0, 75, 64
2, 49966, Control_c, 0, 64, 0
2, 49985, Control_c, 0, 64, 127
2, 50174, Control_c, 0, 64, 0
2, 50188, Note_off_c, 0, 44, 64
2, 50192, Note_on_c, 0, 80, 71
2, 50193, Control_c, 0, 64, 127
2, 50201, Note_on_c, 0, 66, 74
2, 50205, Note_on_c, 0, 56, 42
2, 50205, Note_on_c, 0, 51, 50
2, 50213, Note_off_c, 0, 63, 64
2, 50217, Note_on_c, 0, 60, 29
2, 50234, Control_c, 0, 64, 0
2, 50239, Note_off_c, 0, 78, 64
2, 50255, Control_c, 0, 64, 127
2, 50292, Note_off_c, 0, 51, 64
2, 50292, Note_off_c, 0, 56, 64
2, 50304, Note_off_c, 0, 60, 64
2, 50442, Control_c, 0, 64, 0
2, 50457, Note_on_c, 0, 51, 44
2, 50460, Note_on_c, 0, 68, 68
2, 50463, Control_c, 0, 64, 127
2, 50465, Note_on_c, 0, 56, 40
2, 50469, Note_on_c, 0, 60, 33
2, 50487, Note_off_c, 0, 66, 64
2, 50544, Note_off_c, 0, 51, 64
2, 50552, Note_off_c, 0, 56, 64
2, 50556, Note_off_c, 0, 60, 64
2, 50599, Note_on_c, 0, 78, 67
2, 50625, Note_off_c, 0, 80, 64
2, 50715, Note_on_c, 0, 76, 66
2, 50721, Note_on_c, 0, 49, 59
2, 50739, Note_off_c, 0, 78, 64
2, 50740, Control_c, 0, 64, 0
2, 50770, Control_c, 0, 64, 127
2, 50833, Note_on_c, 0, 66, 66
2, 50838, Note_on_c, 0, 75, 55
2, 50850, Note_off_c, 0, 76, 64
2, 50855, Note_off_c, 0, 68, 64
2, 50948, Control_c, 0, 64, 0
2, 50959, Note_on_c, 0, 56, 63
2, 50961, Note_on_c, 0, 73, 63
2, 50967, Note_on_c, 0, 64, 52
2, 50974, Control_c, 0, 64, 0
2, 50978, Control_c, 0, 64, 127
2, 50984, Control_c, 0, 64, 127
2, 50989, Note_off_c, 0, 75, 64
2, 50994, Note_off_c, 0, 66, 64
2, 51018, Note_off_c, 0, 49, 64
2, 51077, Note_on_c, 0, 63, 66
2, 51105, Note_off_c, 0, 64, 64
2, 51182, Control_c, 0, 64, 0
2, 51185, Note_off_c, 0, 56, 64
2, 51192, Control_c, 0, 64, 127
2, 51221, Note_on_c, 0, 55, 40
2, 51225, Note_on_c, 0, 64, 41
2, 51225, Note_on_c, 0, 61, 60
2, 51232, Note_on_c, 0, 71, 75
2, 51255, Control_c, 0, 64, 0
2, 51269, Note_off_c, 0, 73, 64
2, 51272, Note_off_c, 0, 63, 64
2, 51303, Control_c, 0, 64, 127
2, 51308, Note_off_c, 0, 55, 64
2, 51312, Note_off_c, 0, 64, 64
2, 51389, Note_on_c, 0, 69, 74
2, 51401, Note_off_c, 0, 71, 64
2, 51463, Control_c, 0, 64, 0
2, 51511, Control_c, 0, 64, 127
2, 51517, Control_c, 0, 64, 0
2, 51527, Note_on_c, 0, 37, 65
2, 51532, Note_on_c, 0, 68, 75
2, 51535, Note_on_c, 0, 59, 64
2, 51554, Note_off_c, 0, 69, 64
2, 51557, Note_off_c, 0, 61, 64
2, 51563, Control_c, 0, 64, 127
2, 51684, Note_on_c, 0, 57, 58
2, 51706, Note_off_c, 0, 59, 64
2, 51725, Control_c, 0, 64, 0
2, 51766, Note_off_c, 0, 37, 64
2, 51771, Control_c, 0, 64, 127
2, 51808, Note_on_c, 0, 64, 65
2, 51815, Note_on_c, 0, 56, 53
2, 51817, Note_on_c, 0, 73, 81
2, 51828, Control_c, 0, 64, 0
2, 51835, Note_off_c, 0, 57, 64
2, 51876, Control_c, 0, 64, 127
2, 51895, Note_off_c, 0, 64, 64
2, 52036, Control_c, 0, 64, 0
2, 52046, Note_off_c, 0, 56, 64
2, 52075, Note_on_c, 0, 56, 55
2, 52080, Note_on_c, 0, 61, 68
2, 52084, Control_c, 0, 64, 127
2, 52089, Control_c, 0, 64, 0
2, 52095, Note_on_c, 0, 64, 62
2, 52115, Note_off_c, 0, 68, 64
2, 52125, Control_c, 0, 64, 127
2, 52162, Note_off_c, 0, 56, 64
2, 52182, Note_off_c, 0, 64, 64
2, 52229, Note_on_c, 0, 75, 67
2, 52248, Note_off_c, 0, 73, 64
2, 52297, Control_c, 0, 64, 0
2, 52333, Control_c, 0, 64, 127
2, 52347, Note_on_c, 0, 73, 71
2, 52347, Control_c, 0, 64, 0
2, 52352, Note_on_c, 0, 51, 64
2, 52371, Note_off_c, 0, 75, 64
2, 52374, Control_c, 0, 64, 127
2, 52462, Note_on_c, 0, 63, 70
2, 52471, Note_on_c, 0, 72, 66
2, 52483, Note_off_c, 0, 73, 64
2, 52493, Note_off_c, 0, 61, 64
2, 52555, Control_c, 0, 64, 0
2, 52582, Control_c, 0, 64, 127
2, 52590, Note_on_c, 0, 56, 59
2, 52591, Note_off_c, 0, 51, 64
2, 52592, Note_on_c, 0, 75, 66
2, 52600, Note_on_c, 0, 61, 72
2, 52606, Control_c, 0, 64, 0
2, 52617, Control_c, 0, 64, 127
2, 52646, Note_off_c, 0, 72, 64
2, 52648, Note_off_c, 0, 63, 64
2, 52659, Note_off_c, 0, 56, 64
2, 52712, Note_on_c, 0, 60, 56
2, 52725, Note_off_c, 0, 61, 64
2, 52814, Control_c, 0, 64, 0
2, 52825, Control_c, 0, 64, 127
2, 52832, Note_off_c, 0, 75, 64
2, 52841, Note_on_c, 0, 63, 69
2, 52849, Note_on_c, 0, 56, 63
2, 52855, Note_on_c, 0, 71, 64
2, 52865, Control_c, 0, 64, 0
2, 52869, Note_off_c, 0, 60, 64
2, 52878, Control_c, 0, 64, 127
2, 52897, Note_off_c, 0, 56, 64
2, 52963, Note_on_c, 0, 69, 66
2, 53001, Note_off_c, 0, 71, 64
2, 53073, Control_c, 0, 64, 0
2, 53074, Note_on_c, 0, 59, 70
2, 53077, Note_on_c, 0, 68, 73
2, 53083, Note_on_c, 0, 48, 64
2, 53086, Control_c, 0, 64, 127
2, 53093, Note_off_c, 0, 63, 64
2, 53096, Note_off_c, 0, 69, 64
2, 53100, Control_c, 0, 64, 0
2, 53129, Control_c, 0, 64, 127
2, 53189, Note_off_c, 0, 59, 64
2, 53189, Note_on_c, 0, 57, 68
2, 53308, Control_c, 0, 64, 0
2, 53317, Note_on_c, 0, 75, 77
2, 53322, Note_off_c, 0, 48, 64
2, 53330, Note_on_c, 0, 66, 73
2, 53333, Note_on_c, 0, 60, 59
2, 53335, Note_on_c, 0, 56, 65
2, 53337, Control_c, 0, 64, 127
2, 53340, Control_c, 0, 64, 0
2, 53349, Note_off_c, 0, 68, 64
2, 53378, Note_off_c, 0, 57, 64
2, 53404, Note_off_c, 0, 66, 64
2, 53409, Control_c, 0, 64, 127
2, 53441, Note_off_c, 0, 60, 64
2, 53548, Control_c, 0, 64, 0
2, 53574, Note_off_c, 0, 56, 64
2, 53607, Note_on_c, 0, 60, 62
2, 53607, Note_on_c, 0, 56, 64
2, 53610, Note_on_c, 0, 66, 59
2, 53617, Control_c, 0, 64, 127
2, 53650, Note_off_c, 0, 66, 64
2, 53659, Note_off_c, 0, 60, 64
2, 53664, Note_off_c, 0, 56, 64
2, 53744, Note_on_c, 0, 76, 71
2, 53762, Note_off_c, 0, 75, 64
2, 53873, Control_c, 0, 64, 0
2, 53879, Note_on_c, 0, 47, 71
2, 53880, Note_on_c, 0, 75, 75
2, 53896, Note_off_c, 0, 76, 64
2, 53916, Control_c, 0, 64, 127
2, 53994, Note_on_c, 0, 73, 88
2, 54007, Note_off_c, 0, 75, 64
2, 54081, Control_c, 0, 64, 0
2, 54112, Note_off_c, 0, 47, 64
2, 54121, Note_on_c, 0, 68, 71
2, 54124, Control_c, 0, 64, 127
2, 54127, Note_on_c, 0, 56, 65
2, 54135, Note_on_c, 0, 87, 93
2, 54135, Note_on_c, 0, 77, 93
2, 54135, Note_on_c, 0, 61, 67
2, 54146, Note_off_c, 0, 73, 64
2, 54150, Control_c, 0, 64, 0
2, 54171, Control_c, 0, 64, 127
2, 54263, Note_on_c, 0, 85, 93
2, 54282, Note_off_c, 0, 87, 64
2, 54358, Control_c, 0, 64, 0
2, 54379, Control_c, 0, 64, 127
2, 54410, Note_on_c, 0, 89, 77
2, 54438, Note_off_c, 0, 68, 64
2, 54446, Note_off_c, 0, 77, 64
2, 54447, Note_off_c, 0, 85, 64
2, 54452, Note_off_c, 0, 61, 64
2, 54459, Note_off_c, 0, 56, 64
2, 54756, Control_c, 0, 64, 0
2, 54770, Note_on_c, 0, 75, 81
2, 54775, Note_on_c, 0, 34, 75
2, 54778, Note_off_c, 0, 89, 64
2, 54779, Note_on_c, 0, 46, 73
2, 54812, Control_c, 0, 64, 127
2, 54883, Note_on_c, 0, 73, 81
2, 54904, Note_off_c, 0, 75, 64
2, 54964, Control_c, 0, 64, 0
2, 55011, Note_on_c, 0, 70, 71
2, 55015, Note_off_c, 0, 34, 64
2, 55016, Note_on_c, 0, 87, 93
2, 55016, Note_on_c, 0, 58, 67
2, 55019, Note_off_c, 0, 46, 64
2, 55020, Control_c, 0, 64, 127
2, 55021, Note_on_c, 0, 78, 102
2, 55024, Note_on_c, 0, 61, 66
2, 55042, Note_off_c, 0, 73, 64
2, 55132, Note_on_c, 0, 85, 74
2, 55147, Note_off_c, 0, 87, 64
2, 55201, Note_off_c, 0, 78, 64
2, 55240, Note_on_c, 0, 90, 75
2, 55245, Control_c, 0, 64, 0
2, 55248, Note_on_c, 0, 75, 85
2, 55249, Note_on_c, 0, 33, 74
2, 55250, Note_on_c, 0, 45, 75
2, 55271, Note_off_c, 0, 85, 64
2, 55275, Control_c, 0, 64, 127
2, 55328, Note_off_c, 0, 70, 64
2, 55333, Note_off_c, 0, 58, 64
2, 55341, Note_off_c, 0, 61, 64
2, 55363, Note_on_c, 0, 73, 81
2, 55382, Note_off_c, 0, 75, 64
2, 55453, Control_c, 0, 64, 0
2, 55479, Note_on_c, 0, 87, 75
2, 55483, Note_on_c, 0, 57, 77
2, 55483, Control_c, 0, 64, 127
2, 55484, Note_on_c, 0, 61, 74
2, 55484, Note_on_c, 0, 79, 95
2, 55487, Note_on_c, 0, 67, 75
2, 55489, Note_off_c, 0, 33, 64
2, 55490, Note_off_c, 0, 45, 64
2, 55497, Note_off_c, 0, 73, 64
2, 55497, Control_c, 0, 64, 0
2, 55510, Control_c, 0, 64, 127
2, 55581, Note_on_c, 0, 85, 81
2, 55610, Note_off_c, 0, 90, 64
2, 55611, Note_off_c, 0, 87, 64
2, 55704, Note_on_c, 0, 91, 82
2, 55705, Control_c, 0, 64, 0
2, 55713, Note_on_c, 0, 75, 94
2, 55718, Note_off_c, 0, 85, 64
2, 55718, Control_c, 0, 64, 127
2, 55751, Note_off_c, 0, 79, 64
2, 55800, Note_off_c, 0, 57, 64
2, 55801, Note_off_c, 0, 61, 64
2, 55804, Note_off_c, 0, 67, 64
2, 55829, Note_on_c, 0, 73, 85
2, 55847, Note_off_c, 0, 75, 64
2, 55973, Note_off_c, 0, 91, 64
2, 55990, Note_on_c, 0, 97, 102
2, 56012, Note_off_c, 0, 73, 64
2, 56229, Note_off_c, 0, 97, 64
2, 56672, Note_on_c, 0, 32, 85
2, 56685, Note_on_c, 0, 56, 102
2, 56688, Note_on_c, 0, 44, 82
2, 56701, Control_c, 0, 64, 0
2, 56717, Control_c, 0, 64, 127
2, 56750, Control_c, 0, 64, 127
2, 56845, Note_on_c, 0, 57, 85
2, 56854, Note_off_c, 0, 56, 64
2, 56909, Control_c, 0, 64, 0
2, 56912, Note_off_c, 0, 32, 64
2, 56925, Control_c, 0, 64, 127
2, 56928, Note_off_c, 0, 44, 64
2, 56930, Note_on_c, 0, 56, 93
2, 56947, Note_off_c, 0, 57, 64
2, 56956, Control_c, 0, 64, 0
2, 56958, Control_c, 0, 64, 127
2, 56958, Note_on_c, 0, 57, 93
2, 56966, Note_off_c, 0, 56, 64
2, 56969, Note_on_c, 0, 61, 83
2, 56969, Control_c, 0, 64, 127
2, 56974, Note_on_c, 0, 52, 75
2, 56990, Note_on_c, 0, 56, 95
2, 57003, Control_c, 0, 64, 0
2, 57010, Note_off_c, 0, 57, 64
2, 57019, Control_c, 0, 64, 127
2, 57133, Note_on_c, 0, 55, 93
2, 57162, Note_off_c, 0, 56, 64
2, 57164, Control_c, 0, 64, 0
2, 57177, Control_c, 0, 64, 127
2, 57209, Note_off_c, 0, 61, 64
2, 57211, Control_c, 0, 64, 0
2, 57214, Note_off_c, 0, 52, 64
2, 57227, Control_c, 0, 64, 127
2, 57247, Note_on_c, 0, 54, 77
2, 57251, Note_on_c, 0, 56, 102
2, 57254, Note_on_c, 0, 60, 85
2, 57254, Control_c, 0, 64, 0
2, 57268, Note_off_c, 0, 55, 64
2, 57285, Control_c, 0, 64, 127
2, 57380, Note_on_c, 0, 64, 85
2, 57416, Note_off_c, 0, 56, 64
2, 57462, Control_c, 0, 64, 0
2, 57487, Note_off_c, 0, 54, 64
2, 57493, Control_c, 0, 64, 127
2, 57494, Note_off_c, 0, 60, 64
2, 57497, Note_on_c, 0, 37, 93
2, 57504, Note_on_c, 0, 61, 93
2, 57516, Control_c, 0, 64, 0
2, 57531, Note_off_c, 0, 64, 64
2, 57548, Control_c, 0, 64, 127
2, 57724, Control_c, 0, 64, 0
2, 57756, Control_c, 0, 64, 127
2, 57838, Note_off_c, 0, 61, 64
2, 57874, Note_on_c, 0, 49, 101
2, 57945, Note_on_c, 0, 61, 95
2, 57949, Note_on_c, 0, 73, 81
2, 57951, Note_on_c, 0, 64, 81
2, 57967, Note_off_c, 0, 49, 64
2, 58305, Control_c, 0, 64, 0
2, 58513, Control_c, 0, 64, 0
2, 59213, Note_off_c, 0, 37, 64
2, 59274, Note_off_c, 0, 61, 64
2, 59278, Note_off_c, 0, 73, 64
2, 59280, Note_off_c, 0, 64, 64
2, 61176, Control_c, 0, 64, 127
2, 61420, Control_c, 0, 64, 0
2, 61420, End_track
3, 0, Start_track
3, 0, Title_t, "Played by Dr. Ron Lubetsky"
3, 0, End_track
4, 0, Start_track
4, 0, Title_t, "March 1, 1998"
4, 0, End_track
5, 0, Start_track
5, 0, Title_t, "email: acuity2020@aol.com"
5, 0, End_track
6, 0, Start_track
6, 0, Title_t, "Copyright  1998"
6, 0, End_track
7, 0, Start_track
7, 0, Title_t, "All Rights Reserved"
7, 0, End_track
0, 0, End_of_file
