2, 0, Program_c, 0, 0
2, 0, Control_c, 0, 7, 127
2, 153, Control_c, 0, 64, 0
2, 153, Control_c, 0, 64, 0
2, 214, Note_on_c, 0, 78, 53
2, 252, Control_c, 0, 64, 127
2, 252, Control_c, 0, 64, 127
2, 384, Note_on_c, 0, 47, 49
2, 448, Control_c, 0, 64, 0
2, 448, Control_c, 0, 64, 0
2, 490, Control_c, 0, 64, 127
2, 490, Control_c, 0, 64, 127
2, 574, Note_on_c, 0, 83, 50
2, 584, Note_off_c, 0, 47, 64
2, 591, Note_off_c, 0, 78, 64
2, 672, Note_on_c, 0, 55, 30
2, 676, Note_on_c, 0, 64, 24
2, 687, Note_on_c, 0, 59, 17
2, 689, Control_c, 0, 64, 0
2, 689, Control_c, 0, 64, 0
2, 696, Note_off_c, 0, 83, 64
2, 704, Note_on_c, 0, 79, 52
2, 727, Note_off_c, 0, 55, 64
2, 734, Note_off_c, 0, 59, 64
2, 734, Note_on_c, 0, 81, 53
2, 743, Note_off_c, 0, 79, 64
2, 743, Control_c, 0, 64, 127
2, 743, Control_c, 0, 64, 127
2, 750, Note_off_c, 0, 64, 64
2, 777, Note_on_c, 0, 79, 52
2, 798, Note_off_c, 0, 81, 64
2, 863, Note_off_c, 0, 79, 64
2, 869, Note_on_c, 0, 64, 27
2, 870, Note_on_c, 0, 78, 52
2, 873, Note_on_c, 0, 55, 28
2, 877, Note_on_c, 0, 59, 30
2, 883, Control_c, 0, 64, 0
2, 883, Control_c, 0, 64, 0
2, 893, Note_off_c, 0, 64, 64
2, 894, Note_off_c, 0, 55, 64
2, 899, Note_off_c, 0, 59, 64
2, 908, Control_c, 0, 64, 127
2, 908, Control_c, 0, 64, 127
2, 956, Note_off_c, 0, 78, 64
2, 956, Note_on_c, 0, 76, 52
2, 1063, Note_on_c, 0, 78, 52
2, 1067, Control_c, 0, 64, 0
2, 1067, Control_c, 0, 64, 0
2, 1073, Note_on_c, 0, 47, 46
2, 1076, Note_off_c, 0, 76, 64
2, 1094, Control_c, 0, 64, 127
2, 1094, Control_c, 0, 64, 127
2, 1119, Note_on_c, 0, 71, 43
2, 1129, Note_off_c, 0, 78, 64
2, 1204, Control_c, 0, 64, 0
2, 1204, Control_c, 0, 64, 0
2, 1208, Note_on_c, 0, 62, 35
2, 1212, Note_on_c, 0, 54, 38
2, 1217, Note_on_c, 0, 59, 23
2, 1253, Note_off_c, 0, 54, 64
2, 1258, Note_off_c, 0, 59, 64
2, 1259, Note_off_c, 0, 62, 64
2, 1264, Control_c, 0, 64, 127
2, 1264, Control_c, 0, 64, 127
2, 1273, Note_off_c, 0, 47, 64
2, 1423, Note_on_c, 0, 59, 27
2, 1423, Note_on_c, 0, 54, 27
2, 1425, Control_c, 0, 64, 0
2, 1425, Control_c, 0, 64, 0
2, 1433, Note_on_c, 0, 62, 32
2, 1462, Control_c, 0, 64, 127
2, 1462, Control_c, 0, 64, 127
2, 1475, Note_off_c, 0, 62, 64
2, 1479, Note_off_c, 0, 59, 64
2, 1482, Note_off_c, 0, 54, 64
2, 1630, Control_c, 0, 64, 0
2, 1630, Control_c, 0, 64, 0
2, 1635, Note_on_c, 0, 47, 49
2, 1638, Note_on_c, 0, 73, 47
2, 1656, Control_c, 0, 64, 127
2, 1656, Control_c, 0, 64, 127
2, 1732, Note_off_c, 0, 71, 64
2, 1755, Note_on_c, 0, 76, 35
2, 1757, Note_off_c, 0, 73, 64
2, 1815, Note_on_c, 0, 64, 27
2, 1815, Note_on_c, 0, 54, 24
2, 1819, Note_on_c, 0, 58, 24
2, 1829, Note_off_c, 0, 76, 64
2, 1829, Note_on_c, 0, 74, 52
2, 1832, Control_c, 0, 64, 0
2, 1832, Control_c, 0, 64, 0
2, 1835, Note_off_c, 0, 47, 64
2, 1846, Control_c, 0, 64, 127
2, 1846, Control_c, 0, 64, 127
2, 1860, Note_on_c, 0, 76, 53
2, 1862, Note_off_c, 0, 74, 64
2, 1863, Note_off_c, 0, 54, 64
2, 1874, Note_off_c, 0, 64, 64
2, 1876, Note_off_c, 0, 58, 64
2, 1895, Note_on_c, 0, 74, 58
2, 1908, Note_off_c, 0, 76, 64
2, 1981, Note_on_c, 0, 64, 31
2, 1988, Note_on_c, 0, 73, 46
2, 1988, Note_on_c, 0, 58, 36
2, 1988, Note_on_c, 0, 54, 30
2, 1993, Note_off_c, 0, 74, 64
2, 2015, Note_off_c, 0, 64, 64
2, 2021, Note_off_c, 0, 54, 64
2, 2021, Note_off_c, 0, 58, 64
2, 2142, Note_off_c, 0, 73, 64
2, 2155, Note_on_c, 0, 74, 52
2, 2167, Control_c, 0, 64, 0
2, 2167, Control_c, 0, 64, 0
2, 2173, Note_on_c, 0, 47, 52
2, 2208, Note_on_c, 0, 71, 58
2, 2217, Control_c, 0, 64, 127
2, 2217, Control_c, 0, 64, 127
2, 2232, Note_off_c, 0, 74, 64
2, 2300, Control_c, 0, 64, 0
2, 2300, Control_c, 0, 64, 0
2, 2313, Note_on_c, 0, 62, 30
2, 2316, Note_on_c, 0, 54, 38
2, 2323, Note_on_c, 0, 59, 19
2, 2353, Control_c, 0, 64, 127
2, 2353, Control_c, 0, 64, 127
2, 2367, Note_off_c, 0, 54, 64
2, 2373, Note_off_c, 0, 47, 64
2, 2377, Note_off_c, 0, 59, 64
2, 2377, Note_off_c, 0, 62, 64
2, 2520, Note_on_c, 0, 62, 23
2, 2529, Note_on_c, 0, 59, 19
2, 2529, Note_on_c, 0, 54, 20
2, 2570, Note_off_c, 0, 59, 64
2, 2570, Note_off_c, 0, 62, 64
2, 2578, Note_off_c, 0, 54, 64
2, 2726, Note_on_c, 0, 73, 52
2, 2735, Note_on_c, 0, 37, 49
2, 2747, Control_c, 0, 64, 0
2, 2747, Control_c, 0, 64, 0
2, 2760, Note_off_c, 0, 71, 64
2, 2770, Control_c, 0, 64, 127
2, 2770, Control_c, 0, 64, 127
2, 2830, Note_on_c, 0, 71, 46
2, 2851, Note_off_c, 0, 73, 64
2, 2874, Note_on_c, 0, 69, 46
2, 2879, Note_off_c, 0, 71, 64
2, 2902, Note_on_c, 0, 71, 47
2, 2913, Note_off_c, 0, 69, 64
2, 2930, Control_c, 0, 64, 0
2, 2930, Control_c, 0, 64, 0
2, 2935, Note_off_c, 0, 37, 64
2, 2936, Note_on_c, 0, 59, 24
2, 2938, Note_on_c, 0, 69, 50
2, 2938, Note_on_c, 0, 49, 27
2, 2948, Note_off_c, 0, 71, 64
2, 2949, Note_on_c, 0, 53, 35
2, 2974, Note_off_c, 0, 49, 64
2, 2974, Control_c, 0, 64, 127
2, 2974, Control_c, 0, 64, 127
2, 2990, Note_off_c, 0, 53, 64
2, 2994, Note_off_c, 0, 59, 64
2, 3112, Note_on_c, 0, 68, 52
2, 3125, Note_on_c, 0, 49, 26
2, 3130, Note_on_c, 0, 59, 36
2, 3131, Note_off_c, 0, 69, 64
2, 3134, Note_on_c, 0, 53, 32
2, 3169, Note_off_c, 0, 53, 64
2, 3171, Note_off_c, 0, 59, 64
2, 3177, Note_off_c, 0, 49, 64
2, 3311, Note_on_c, 0, 42, 46
2, 3318, Note_on_c, 0, 69, 53
2, 3327, Note_off_c, 0, 68, 64
2, 3327, Control_c, 0, 64, 0
2, 3327, Control_c, 0, 64, 0
2, 3383, Control_c, 0, 64, 127
2, 3383, Control_c, 0, 64, 127
2, 3419, Note_on_c, 0, 73, 46
2, 3447, Note_off_c, 0, 69, 64
2, 3547, Note_on_c, 0, 49, 31
2, 3547, Control_c, 0, 64, 0
2, 3547, Control_c, 0, 64, 0
2, 3554, Note_on_c, 0, 57, 42
2, 3602, Control_c, 0, 64, 127
2, 3602, Control_c, 0, 64, 127
2, 3645, Note_off_c, 0, 73, 64
2, 3766, Note_off_c, 0, 42, 64
2, 3845, Note_on_c, 0, 61, 75
2, 3887, Note_off_c, 0, 57, 64
2, 3891, Control_c, 0, 64, 0
2, 3891, Control_c, 0, 64, 0
2, 3900, Note_off_c, 0, 49, 64
2, 3925, Control_c, 0, 64, 127
2, 3925, Control_c, 0, 64, 127
2, 4144, Note_on_c, 0, 59, 64
2, 4175, Note_off_c, 0, 61, 64
2, 4225, Note_off_c, 0, 59, 64
2, 4236, Note_on_c, 0, 57, 64
2, 4267, Note_on_c, 0, 59, 68
2, 4275, Note_off_c, 0, 57, 64
2, 4302, Note_on_c, 0, 57, 67
2, 4306, Control_c, 0, 64, 0
2, 4306, Control_c, 0, 64, 0
2, 4316, Note_off_c, 0, 59, 64
2, 4382, Control_c, 0, 64, 127
2, 4382, Control_c, 0, 64, 127
2, 4457, Note_on_c, 0, 56, 68
2, 4477, Note_off_c, 0, 57, 64
2, 4506, Control_c, 0, 64, 0
2, 4506, Control_c, 0, 64, 0
2, 4570, Control_c, 0, 64, 127
2, 4570, Control_c, 0, 64, 127
2, 4652, Note_on_c, 0, 57, 67
2, 4664, Note_off_c, 0, 56, 64
2, 4670, Control_c, 0, 64, 0
2, 4670, Control_c, 0, 64, 0
2, 4774, Control_c, 0, 64, 127
2, 4774, Control_c, 0, 64, 127
2, 4880, Note_on_c, 0, 61, 57
2, 4880, Control_c, 0, 64, 0
2, 4880, Control_c, 0, 64, 0
2, 4896, Note_off_c, 0, 57, 64
2, 5055, Control_c, 0, 64, 127
2, 5055, Control_c, 0, 64, 127
2, 5354, Note_on_c, 0, 56, 43
2, 5358, Note_on_c, 0, 59, 53
2, 5363, Note_on_c, 0, 49, 28
2, 5373, Note_off_c, 0, 61, 64
2, 5399, Control_c, 0, 64, 0
2, 5399, Control_c, 0, 64, 0
2, 5461, Control_c, 0, 64, 127
2, 5461, Control_c, 0, 64, 127
2, 5565, Note_on_c, 0, 54, 50
2, 5570, Note_on_c, 0, 57, 53
2, 5581, Control_c, 0, 64, 0
2, 5581, Control_c, 0, 64, 0
2, 5583, Note_off_c, 0, 56, 64
2, 5589, Note_off_c, 0, 59, 64
2, 5605, Control_c, 0, 64, 127
2, 5605, Control_c, 0, 64, 127
2, 5715, Note_off_c, 0, 57, 64
2, 5724, Control_c, 0, 64, 0
2, 5724, Control_c, 0, 64, 0
2, 5738, Note_on_c, 0, 61, 34
2, 5746, Note_on_c, 0, 57, 53
2, 5757, Note_off_c, 0, 54, 64
2, 5761, Control_c, 0, 64, 127
2, 5761, Control_c, 0, 64, 127
2, 5814, Note_off_c, 0, 61, 64
2, 5841, Note_off_c, 0, 57, 64
2, 5848, Note_on_c, 0, 59, 49
2, 5880, Note_on_c, 0, 61, 57
2, 5894, Note_off_c, 0, 59, 64
2, 5916, Control_c, 0, 64, 0
2, 5916, Control_c, 0, 64, 0
2, 5928, Note_on_c, 0, 56, 47
2, 5930, Note_off_c, 0, 61, 64
2, 5932, Note_on_c, 0, 59, 49
2, 5967, Control_c, 0, 64, 127
2, 5967, Control_c, 0, 64, 127
2, 5978, Note_off_c, 0, 59, 64
2, 6006, Note_on_c, 0, 57, 53
2, 6008, Note_on_c, 0, 54, 28
2, 6041, Note_off_c, 0, 56, 64
2, 6071, Control_c, 0, 64, 0
2, 6071, Control_c, 0, 64, 0
2, 6078, Note_off_c, 0, 54, 64
2, 6078, Note_off_c, 0, 57, 64
2, 6092, Note_on_c, 0, 61, 60
2, 6101, Note_on_c, 0, 57, 54
2, 6133, Control_c, 0, 64, 127
2, 6133, Control_c, 0, 64, 127
2, 6162, Note_off_c, 0, 57, 64
2, 6179, Note_off_c, 0, 61, 64
2, 6291, Note_on_c, 0, 61, 58
2, 6293, Control_c, 0, 64, 0
2, 6293, Control_c, 0, 64, 0
2, 6299, Note_on_c, 0, 57, 53
2, 6320, Control_c, 0, 64, 127
2, 6320, Control_c, 0, 64, 127
2, 6376, Note_off_c, 0, 49, 64
2, 6385, Note_off_c, 0, 57, 64
2, 6392, Note_off_c, 0, 61, 64
2, 6460, Note_on_c, 0, 59, 54
2, 6486, Note_on_c, 0, 61, 64
2, 6497, Note_off_c, 0, 59, 64
2, 6510, Note_on_c, 0, 49, 45
2, 6511, Note_on_c, 0, 56, 46
2, 6522, Note_on_c, 0, 59, 60
2, 6534, Note_off_c, 0, 61, 64
2, 6542, Control_c, 0, 64, 0
2, 6542, Control_c, 0, 64, 0
2, 6585, Control_c, 0, 64, 127
2, 6585, Control_c, 0, 64, 127
2, 6688, Note_on_c, 0, 58, 57
2, 6699, Note_on_c, 0, 54, 50
2, 6700, Note_off_c, 0, 56, 64
2, 6702, Note_off_c, 0, 59, 64
2, 6706, Control_c, 0, 64, 0
2, 6706, Control_c, 0, 64, 0
2, 6738, Control_c, 0, 64, 127
2, 6738, Control_c, 0, 64, 127
2, 6807, Note_off_c, 0, 58, 64
2, 6850, Note_on_c, 0, 58, 63
2, 6858, Note_off_c, 0, 54, 64
2, 6860, Note_on_c, 0, 61, 58
2, 6908, Note_off_c, 0, 61, 64
2, 6979, Note_off_c, 0, 58, 64
2, 6985, Note_on_c, 0, 59, 56
2, 7012, Note_on_c, 0, 61, 67
2, 7018, Note_off_c, 0, 59, 64
2, 7020, Note_on_c, 0, 56, 36
2, 7043, Note_on_c, 0, 59, 63
2, 7059, Note_off_c, 0, 61, 64
2, 7093, Note_off_c, 0, 49, 64
2, 7110, Note_on_c, 0, 54, 57
2, 7126, Note_off_c, 0, 56, 64
2, 7128, Note_on_c, 0, 58, 67
2, 7140, Note_off_c, 0, 59, 64
2, 7150, Note_off_c, 0, 54, 64
2, 7234, Note_on_c, 0, 42, 60
2, 7237, Note_on_c, 0, 66, 57
2, 7251, Control_c, 0, 64, 0
2, 7251, Control_c, 0, 64, 0
2, 7268, Note_off_c, 0, 58, 64
2, 7307, Control_c, 0, 64, 127
2, 7307, Control_c, 0, 64, 127
2, 7501, Note_off_c, 0, 42, 64
2, 7527, Note_on_c, 0, 78, 58
2, 7622, Note_off_c, 0, 66, 64
2, 7792, Note_on_c, 0, 47, 47
2, 7796, Control_c, 0, 64, 0
2, 7796, Control_c, 0, 64, 0
2, 7849, Control_c, 0, 64, 127
2, 7849, Control_c, 0, 64, 127
2, 7920, Note_on_c, 0, 83, 42
2, 7926, Note_off_c, 0, 78, 64
2, 7992, Note_off_c, 0, 47, 64
2, 8008, Note_on_c, 0, 55, 34
2, 8016, Note_on_c, 0, 64, 24
2, 8018, Note_on_c, 0, 59, 38
2, 8045, Note_off_c, 0, 83, 64
2, 8052, Note_on_c, 0, 79, 53
2, 8075, Note_off_c, 0, 55, 64
2, 8085, Note_off_c, 0, 59, 64
2, 8086, Note_on_c, 0, 81, 49
2, 8093, Note_off_c, 0, 79, 64
2, 8093, Note_off_c, 0, 64, 64
2, 8125, Note_on_c, 0, 79, 52
2, 8145, Note_off_c, 0, 81, 64
2, 8188, Note_on_c, 0, 59, 38
2, 8188, Note_on_c, 0, 55, 34
2, 8195, Note_on_c, 0, 64, 42
2, 8201, Note_off_c, 0, 79, 64
2, 8205, Note_on_c, 0, 78, 53
2, 8248, Note_off_c, 0, 64, 64
2, 8255, Note_off_c, 0, 55, 64
2, 8255, Note_off_c, 0, 59, 64
2, 8286, Note_off_c, 0, 78, 64
2, 8288, Note_on_c, 0, 76, 52
2, 8364, Control_c, 0, 64, 0
2, 8364, Control_c, 0, 64, 0
2, 8379, Note_on_c, 0, 78, 52
2, 8379, Note_on_c, 0, 47, 46
2, 8387, Note_off_c, 0, 76, 64
2, 8404, Control_c, 0, 64, 127
2, 8404, Control_c, 0, 64, 127
2, 8426, Note_on_c, 0, 71, 41
2, 8446, Note_off_c, 0, 78, 64
2, 8485, Control_c, 0, 64, 0
2, 8485, Control_c, 0, 64, 0
2, 8513, Note_on_c, 0, 62, 34
2, 8515, Note_on_c, 0, 54, 41
2, 8523, Note_on_c, 0, 59, 19
2, 8545, Note_off_c, 0, 59, 64
2, 8555, Note_off_c, 0, 54, 64
2, 8561, Note_off_c, 0, 62, 64
2, 8579, Note_off_c, 0, 47, 64
2, 8709, Control_c, 0, 64, 127
2, 8709, Control_c, 0, 64, 127
2, 8719, Note_on_c, 0, 59, 30
2, 8719, Note_on_c, 0, 54, 30
2, 8724, Note_on_c, 0, 62, 32
2, 8777, Note_off_c, 0, 62, 64
2, 8780, Note_off_c, 0, 59, 64
2, 8782, Note_off_c, 0, 54, 64
2, 8909, Note_on_c, 0, 47, 49
2, 8915, Note_on_c, 0, 73, 53
2, 8916, Control_c, 0, 64, 0
2, 8916, Control_c, 0, 64, 0
2, 8948, Control_c, 0, 64, 127
2, 8948, Control_c, 0, 64, 127
2, 8961, Note_off_c, 0, 71, 64
2, 9022, Note_on_c, 0, 76, 46
2, 9030, Note_off_c, 0, 73, 64
2, 9089, Note_on_c, 0, 54, 26
2, 9091, Note_on_c, 0, 64, 27
2, 9096, Note_on_c, 0, 58, 35
2, 9099, Note_off_c, 0, 76, 64
2, 9104, Note_on_c, 0, 74, 47
2, 9109, Note_off_c, 0, 47, 64
2, 9112, Control_c, 0, 64, 0
2, 9112, Control_c, 0, 64, 0
2, 9123, Control_c, 0, 64, 127
2, 9123, Control_c, 0, 64, 127
2, 9134, Note_off_c, 0, 74, 64
2, 9134, Note_on_c, 0, 76, 53
2, 9142, Note_off_c, 0, 54, 64
2, 9148, Note_off_c, 0, 58, 64
2, 9150, Note_off_c, 0, 64, 64
2, 9168, Note_on_c, 0, 74, 58
2, 9184, Note_off_c, 0, 76, 64
2, 9252, Note_off_c, 0, 74, 64
2, 9255, Note_on_c, 0, 73, 46
2, 9260, Note_on_c, 0, 64, 28
2, 9260, Note_on_c, 0, 58, 38
2, 9266, Note_on_c, 0, 54, 26
2, 9266, Control_c, 0, 64, 0
2, 9266, Control_c, 0, 64, 0
2, 9290, Control_c, 0, 64, 127
2, 9290, Control_c, 0, 64, 127
2, 9298, Note_off_c, 0, 64, 64
2, 9301, Note_off_c, 0, 54, 64
2, 9301, Note_off_c, 0, 58, 64
2, 9415, Note_off_c, 0, 73, 64
2, 9436, Note_on_c, 0, 74, 50
2, 9436, Note_on_c, 0, 47, 49
2, 9448, Control_c, 0, 64, 0
2, 9448, Control_c, 0, 64, 0
2, 9478, Note_on_c, 0, 71, 61
2, 9483, Control_c, 0, 64, 127
2, 9483, Control_c, 0, 64, 127
2, 9503, Note_off_c, 0, 74, 64
2, 9591, Note_on_c, 0, 54, 32
2, 9598, Note_on_c, 0, 62, 27
2, 9603, Note_on_c, 0, 59, 19
2, 9628, Note_off_c, 0, 71, 64
2, 9636, Note_off_c, 0, 47, 64
2, 9733, Note_off_c, 0, 54, 64
2, 9739, Note_off_c, 0, 59, 64
2, 9739, Note_off_c, 0, 62, 64
2, 9830, Note_on_c, 0, 50, 54
2, 9854, Control_c, 0, 64, 0
2, 9854, Control_c, 0, 64, 0
2, 9886, Control_c, 0, 64, 127
2, 9886, Control_c, 0, 64, 127
2, 10050, Note_on_c, 0, 65, 24
2, 10050, Note_on_c, 0, 59, 26
2, 10138, Note_off_c, 0, 59, 64
2, 10140, Note_off_c, 0, 65, 64
2, 10148, Note_on_c, 0, 55, 50
2, 10192, Note_off_c, 0, 50, 64
2, 10276, Note_on_c, 0, 52, 53
2, 10277, Note_on_c, 0, 64, 38
2, 10284, Note_off_c, 0, 55, 64
2, 10286, Note_on_c, 0, 60, 30
2, 10300, Control_c, 0, 64, 0
2, 10300, Control_c, 0, 64, 0
2, 10322, Note_on_c, 0, 53, 53
2, 10323, Note_off_c, 0, 52, 64
2, 10325, Control_c, 0, 64, 127
2, 10325, Control_c, 0, 64, 127
2, 10345, Note_off_c, 0, 60, 64
2, 10348, Note_off_c, 0, 64, 64
2, 10366, Note_on_c, 0, 52, 50
2, 10394, Note_off_c, 0, 53, 64
2, 10437, Control_c, 0, 64, 0
2, 10437, Control_c, 0, 64, 0
2, 10445, Note_on_c, 0, 60, 36
2, 10451, Note_on_c, 0, 64, 30
2, 10451, Note_on_c, 0, 50, 53
2, 10456, Note_off_c, 0, 52, 64
2, 10489, Control_c, 0, 64, 127
2, 10489, Control_c, 0, 64, 127
2, 10504, Note_off_c, 0, 60, 64
2, 10514, Note_off_c, 0, 64, 64
2, 10515, Note_off_c, 0, 50, 64
2, 10528, Note_on_c, 0, 48, 46
2, 10598, Note_on_c, 0, 55, 41
2, 10603, Note_on_c, 0, 59, 36
2, 10610, Note_off_c, 0, 48, 64
2, 10614, Note_on_c, 0, 50, 52
2, 10619, Control_c, 0, 64, 0
2, 10619, Control_c, 0, 64, 0
2, 10624, Note_on_c, 0, 65, 36
2, 10664, Control_c, 0, 64, 127
2, 10664, Control_c, 0, 64, 127
2, 10685, Note_off_c, 0, 59, 64
2, 10691, Note_off_c, 0, 55, 64
2, 10705, Note_off_c, 0, 65, 64
2, 10726, Note_off_c, 0, 50, 64
2, 10739, Note_on_c, 0, 43, 49
2, 10774, Note_on_c, 0, 65, 27
2, 10780, Control_c, 0, 64, 0
2, 10780, Control_c, 0, 64, 0
2, 10784, Note_on_c, 0, 59, 32
2, 10786, Note_on_c, 0, 50, 52
2, 10790, Note_on_c, 0, 55, 23
2, 10819, Control_c, 0, 64, 127
2, 10819, Control_c, 0, 64, 127
2, 10836, Note_off_c, 0, 43, 64
2, 10852, Note_off_c, 0, 65, 64
2, 10885, Note_off_c, 0, 59, 64
2, 10934, Note_off_c, 0, 55, 64
2, 10940, Note_on_c, 0, 48, 47
2, 10945, Note_on_c, 0, 60, 34
2, 10954, Note_off_c, 0, 50, 64
2, 10954, Note_on_c, 0, 64, 26
2, 10954, Control_c, 0, 64, 0
2, 10954, Control_c, 0, 64, 0
2, 10989, Control_c, 0, 64, 127
2, 10989, Control_c, 0, 64, 127
2, 11013, Note_off_c, 0, 64, 64
2, 11016, Note_off_c, 0, 60, 64
2, 11097, Note_on_c, 0, 65, 31
2, 11097, Note_on_c, 0, 59, 32
2, 11097, Note_on_c, 0, 50, 53
2, 11109, Note_off_c, 0, 48, 64
2, 11113, Control_c, 0, 64, 0
2, 11113, Control_c, 0, 64, 0
2, 11126, Control_c, 0, 64, 127
2, 11126, Control_c, 0, 64, 127
2, 11176, Note_off_c, 0, 65, 64
2, 11186, Note_off_c, 0, 50, 64
2, 11186, Note_on_c, 0, 55, 49
2, 11231, Note_off_c, 0, 59, 64
2, 11262, Note_on_c, 0, 64, 38
2, 11267, Note_on_c, 0, 60, 34
2, 11274, Note_on_c, 0, 52, 60
2, 11284, Note_off_c, 0, 55, 64
2, 11321, Note_off_c, 0, 60, 64
2, 11326, Note_on_c, 0, 53, 49
2, 11327, Note_off_c, 0, 52, 64
2, 11329, Note_off_c, 0, 64, 64
2, 11362, Note_on_c, 0, 52, 47
2, 11382, Note_off_c, 0, 53, 64
2, 11405, Control_c, 0, 64, 0
2, 11405, Control_c, 0, 64, 0
2, 11412, Note_on_c, 0, 60, 30
2, 11415, Note_on_c, 0, 64, 30
2, 11433, Note_on_c, 0, 50, 42
2, 11448, Note_off_c, 0, 52, 64
2, 11466, Control_c, 0, 64, 127
2, 11466, Control_c, 0, 64, 127
2, 11485, Note_off_c, 0, 64, 64
2, 11485, Note_off_c, 0, 60, 64
2, 11509, Note_off_c, 0, 50, 64
2, 11518, Note_on_c, 0, 48, 52
2, 11573, Control_c, 0, 64, 0
2, 11573, Control_c, 0, 64, 0
2, 11585, Note_on_c, 0, 59, 24
2, 11585, Note_on_c, 0, 50, 52
2, 11589, Note_on_c, 0, 65, 24
2, 11591, Note_off_c, 0, 48, 64
2, 11591, Note_on_c, 0, 55, 35
2, 11618, Control_c, 0, 64, 127
2, 11618, Control_c, 0, 64, 127
2, 11648, Note_off_c, 0, 55, 64
2, 11660, Note_off_c, 0, 59, 64
2, 11667, Note_off_c, 0, 65, 64
2, 11685, Note_off_c, 0, 50, 64
2, 11709, Note_on_c, 0, 43, 49
2, 11735, Control_c, 0, 64, 0
2, 11735, Control_c, 0, 64, 0
2, 11741, Note_on_c, 0, 65, 38
2, 11745, Note_on_c, 0, 55, 32
2, 11746, Note_on_c, 0, 59, 30
2, 11754, Note_on_c, 0, 50, 46
2, 11766, Control_c, 0, 64, 127
2, 11766, Control_c, 0, 64, 127
2, 11792, Note_off_c, 0, 43, 64
2, 11803, Note_off_c, 0, 65, 64
2, 11843, Note_off_c, 0, 59, 64
2, 11893, Note_on_c, 0, 48, 50
2, 11896, Note_off_c, 0, 50, 64
2, 11903, Note_on_c, 0, 60, 27
2, 11910, Note_on_c, 0, 64, 30
2, 11910, Control_c, 0, 64, 0
2, 11910, Control_c, 0, 64, 0
2, 11918, Note_off_c, 0, 55, 64
2, 11948, Control_c, 0, 64, 127
2, 11948, Control_c, 0, 64, 127
2, 11995, Note_off_c, 0, 64, 64
2, 12031, Note_off_c, 0, 60, 64
2, 12047, Note_on_c, 0, 55, 30
2, 12047, Note_on_c, 0, 50, 50
2, 12054, Note_off_c, 0, 48, 64
2, 12056, Note_on_c, 0, 59, 36
2, 12063, Note_on_c, 0, 65, 34
2, 12073, Control_c, 0, 64, 0
2, 12073, Control_c, 0, 64, 0
2, 12106, Control_c, 0, 64, 127
2, 12106, Control_c, 0, 64, 127
2, 12131, Note_off_c, 0, 65, 64
2, 12190, Note_on_c, 0, 43, 42
2, 12195, Note_off_c, 0, 50, 64
2, 12201, Note_off_c, 0, 59, 64
2, 12216, Note_on_c, 0, 60, 27
2, 12221, Note_on_c, 0, 64, 19
2, 12228, Note_off_c, 0, 55, 64
2, 12228, Note_on_c, 0, 48, 50
2, 12232, Control_c, 0, 64, 0
2, 12232, Control_c, 0, 64, 0
2, 12264, Control_c, 0, 64, 127
2, 12264, Control_c, 0, 64, 127
2, 12270, Note_off_c, 0, 43, 64
2, 12309, Note_off_c, 0, 64, 64
2, 12380, Note_on_c, 0, 65, 30
2, 12381, Note_on_c, 0, 55, 30
2, 12381, Note_on_c, 0, 50, 52
2, 12387, Note_on_c, 0, 59, 19
2, 12390, Note_off_c, 0, 48, 64
2, 12390, Note_off_c, 0, 60, 64
2, 12398, Control_c, 0, 64, 0
2, 12398, Control_c, 0, 64, 0
2, 12442, Control_c, 0, 64, 127
2, 12442, Control_c, 0, 64, 127
2, 12455, Note_off_c, 0, 65, 64
2, 12521, Note_on_c, 0, 43, 38
2, 12524, Note_off_c, 0, 59, 64
2, 12532, Note_off_c, 0, 50, 64
2, 12556, Note_on_c, 0, 60, 27
2, 12560, Note_on_c, 0, 64, 13
2, 12563, Note_on_c, 0, 48, 46
2, 12576, Note_off_c, 0, 55, 64
2, 12578, Control_c, 0, 64, 0
2, 12578, Control_c, 0, 64, 0
2, 12600, Note_off_c, 0, 43, 64
2, 12614, Control_c, 0, 64, 127
2, 12614, Control_c, 0, 64, 127
2, 12659, Note_off_c, 0, 64, 64
2, 12744, Note_on_c, 0, 55, 34
2, 12749, Note_on_c, 0, 50, 46
2, 12754, Note_on_c, 0, 59, 32
2, 12758, Note_off_c, 0, 48, 64
2, 12763, Note_on_c, 0, 65, 19
2, 12779, Note_off_c, 0, 60, 64
2, 12799, Control_c, 0, 64, 0
2, 12799, Control_c, 0, 64, 0
2, 12835, Control_c, 0, 64, 127
2, 12835, Control_c, 0, 64, 127
2, 12908, Note_off_c, 0, 65, 64
2, 12931, Note_on_c, 0, 43, 38
2, 12963, Note_off_c, 0, 50, 64
2, 12993, Note_off_c, 0, 59, 64
2, 12997, Note_on_c, 0, 48, 35
2, 13000, Note_on_c, 0, 64, 23
2, 13006, Note_on_c, 0, 60, 24
2, 13014, Note_off_c, 0, 43, 64
2, 13022, Control_c, 0, 64, 0
2, 13022, Control_c, 0, 64, 0
2, 13030, Note_off_c, 0, 55, 64
2, 13059, Control_c, 0, 64, 127
2, 13059, Control_c, 0, 64, 127
2, 13100, Note_off_c, 0, 64, 64
2, 13111, Note_off_c, 0, 60, 64
2, 13121, Note_off_c, 0, 48, 64
2, 13340, Note_on_c, 0, 55, 45
2, 13346, Note_on_c, 0, 43, 46
2, 13429, Control_c, 0, 64, 0
2, 13429, Control_c, 0, 64, 0
2, 13493, Control_c, 0, 64, 127
2, 13493, Control_c, 0, 64, 127
2, 14141, Note_on_c, 0, 42, 32
2, 14148, Note_on_c, 0, 54, 26
2, 14159, Note_off_c, 0, 55, 64
2, 14162, Note_off_c, 0, 43, 64
2, 14247, Control_c, 0, 64, 0
2, 14247, Control_c, 0, 64, 0
2, 14321, Control_c, 0, 64, 127
2, 14321, Control_c, 0, 64, 127
2, 14768, Note_off_c, 0, 42, 64
2, 14775, Note_off_c, 0, 54, 64
2, 14854, Note_on_c, 0, 47, 30
2, 14854, Note_on_c, 0, 35, 45
2, 14859, Note_on_c, 0, 78, 50
2, 14884, Control_c, 0, 64, 0
2, 14884, Control_c, 0, 64, 0
2, 14929, Control_c, 0, 64, 127
2, 14929, Control_c, 0, 64, 127
2, 15006, Note_on_c, 0, 83, 46
2, 15020, Note_off_c, 0, 78, 64
2, 15054, Note_off_c, 0, 35, 64
2, 15054, Note_off_c, 0, 47, 64
2, 15113, Note_off_c, 0, 83, 64
2, 15116, Note_on_c, 0, 59, 26
2, 15120, Note_on_c, 0, 64, 20
2, 15123, Note_on_c, 0, 55, 20
2, 15131, Note_on_c, 0, 79, 49
2, 15133, Control_c, 0, 64, 0
2, 15133, Control_c, 0, 64, 0
2, 15146, Control_c, 0, 64, 127
2, 15146, Control_c, 0, 64, 127
2, 15156, Note_on_c, 0, 81, 46
2, 15164, Note_off_c, 0, 79, 64
2, 15164, Note_off_c, 0, 59, 64
2, 15169, Note_off_c, 0, 55, 64
2, 15186, Note_off_c, 0, 64, 64
2, 15200, Note_on_c, 0, 79, 46
2, 15221, Note_off_c, 0, 81, 64
2, 15274, Note_off_c, 0, 79, 64
2, 15281, Note_on_c, 0, 64, 31
2, 15285, Note_on_c, 0, 78, 53
2, 15290, Note_on_c, 0, 59, 26
2, 15290, Note_on_c, 0, 55, 27
2, 15306, Note_off_c, 0, 59, 64
2, 15312, Note_off_c, 0, 55, 64
2, 15316, Note_off_c, 0, 64, 64
2, 15366, Note_off_c, 0, 78, 64
2, 15370, Note_on_c, 0, 76, 47
2, 15463, Note_on_c, 0, 78, 52
2, 15472, Control_c, 0, 64, 0
2, 15472, Control_c, 0, 64, 0
2, 15478, Note_off_c, 0, 76, 64
2, 15479, Note_on_c, 0, 47, 34
2, 15488, Control_c, 0, 64, 127
2, 15488, Control_c, 0, 64, 127
2, 15519, Note_on_c, 0, 71, 30
2, 15533, Note_off_c, 0, 78, 64
2, 15607, Control_c, 0, 64, 0
2, 15607, Control_c, 0, 64, 0
2, 15615, Note_on_c, 0, 62, 43
2, 15616, Note_on_c, 0, 54, 21
2, 15623, Note_on_c, 0, 59, 31
2, 15661, Note_off_c, 0, 59, 64
2, 15664, Note_off_c, 0, 62, 64
2, 15666, Note_off_c, 0, 54, 64
2, 15670, Control_c, 0, 64, 127
2, 15670, Control_c, 0, 64, 127
2, 15679, Note_off_c, 0, 47, 64
2, 15683, Control_c, 0, 64, 0
2, 15683, Control_c, 0, 64, 0
2, 15715, Control_c, 0, 64, 127
2, 15715, Control_c, 0, 64, 127
2, 15759, Control_c, 0, 64, 0
2, 15759, Control_c, 0, 64, 0
2, 15773, Control_c, 0, 64, 127
2, 15773, Control_c, 0, 64, 127
2, 15800, Note_on_c, 0, 54, 21
2, 15805, Note_on_c, 0, 59, 24
2, 15809, Note_on_c, 0, 62, 30
2, 15846, Note_off_c, 0, 59, 64
2, 15849, Note_off_c, 0, 62, 64
2, 15850, Note_off_c, 0, 54, 64
2, 15992, Note_on_c, 0, 47, 34
2, 15993, Note_on_c, 0, 73, 49
2, 16003, Control_c, 0, 64, 0
2, 16003, Control_c, 0, 64, 0
2, 16026, Control_c, 0, 64, 127
2, 16026, Control_c, 0, 64, 127
2, 16036, Note_off_c, 0, 71, 64
2, 16091, Note_off_c, 0, 73, 64
2, 16091, Note_on_c, 0, 76, 47
2, 16152, Note_off_c, 0, 76, 64
2, 16160, Note_on_c, 0, 54, 20
2, 16160, Control_c, 0, 64, 0
2, 16160, Control_c, 0, 64, 0
2, 16168, Note_on_c, 0, 64, 20
2, 16173, Note_on_c, 0, 74, 29
2, 16173, Note_on_c, 0, 58, 32
2, 16181, Control_c, 0, 64, 127
2, 16181, Control_c, 0, 64, 127
2, 16191, Note_on_c, 0, 76, 46
2, 16192, Note_off_c, 0, 47, 64
2, 16193, Note_off_c, 0, 74, 64
2, 16214, Note_off_c, 0, 54, 64
2, 16227, Note_off_c, 0, 58, 64
2, 16227, Note_on_c, 0, 74, 52
2, 16232, Note_off_c, 0, 64, 64
2, 16243, Note_off_c, 0, 76, 64
2, 16312, Note_off_c, 0, 74, 64
2, 16317, Note_on_c, 0, 58, 38
2, 16318, Note_on_c, 0, 73, 49
2, 16320, Note_on_c, 0, 64, 30
2, 16322, Note_on_c, 0, 54, 26
2, 16334, Control_c, 0, 64, 0
2, 16334, Control_c, 0, 64, 0
2, 16345, Control_c, 0, 64, 127
2, 16345, Control_c, 0, 64, 127
2, 16353, Note_off_c, 0, 54, 64
2, 16356, Note_off_c, 0, 58, 64
2, 16360, Note_off_c, 0, 64, 64
2, 16472, Note_off_c, 0, 73, 64
2, 16487, Note_on_c, 0, 74, 49
2, 16489, Note_on_c, 0, 47, 49
2, 16510, Control_c, 0, 64, 0
2, 16510, Control_c, 0, 64, 0
2, 16532, Control_c, 0, 64, 127
2, 16532, Control_c, 0, 64, 127
2, 16538, Note_on_c, 0, 71, 60
2, 16553, Note_off_c, 0, 74, 64
2, 16631, Note_on_c, 0, 62, 38
2, 16638, Note_on_c, 0, 54, 35
2, 16643, Note_on_c, 0, 59, 21
2, 16647, Control_c, 0, 64, 0
2, 16647, Control_c, 0, 64, 0
2, 16669, Control_c, 0, 64, 127
2, 16669, Control_c, 0, 64, 127
2, 16689, Note_off_c, 0, 47, 64
2, 16691, Note_off_c, 0, 54, 64
2, 16699, Note_off_c, 0, 59, 64
2, 16700, Note_off_c, 0, 62, 64
2, 16857, Note_on_c, 0, 59, 19
2, 16860, Note_on_c, 0, 54, 21
2, 16861, Note_on_c, 0, 62, 28
2, 16870, Control_c, 0, 64, 0
2, 16870, Control_c, 0, 64, 0
2, 16903, Control_c, 0, 64, 127
2, 16903, Control_c, 0, 64, 127
2, 16917, Note_off_c, 0, 59, 64
2, 16921, Note_off_c, 0, 62, 64
2, 16932, Note_off_c, 0, 54, 64
2, 17046, Control_c, 0, 64, 0
2, 17046, Control_c, 0, 64, 0
2, 17075, Note_on_c, 0, 37, 53
2, 17077, Note_on_c, 0, 73, 52
2, 17102, Control_c, 0, 64, 0
2, 17102, Control_c, 0, 64, 0
2, 17109, Note_off_c, 0, 71, 64
2, 17142, Control_c, 0, 64, 127
2, 17142, Control_c, 0, 64, 127
2, 17182, Note_on_c, 0, 71, 42
2, 17196, Note_off_c, 0, 73, 64
2, 17225, Note_on_c, 0, 69, 53
2, 17233, Note_off_c, 0, 71, 64
2, 17257, Note_on_c, 0, 71, 52
2, 17271, Note_off_c, 0, 69, 64
2, 17275, Note_off_c, 0, 37, 64
2, 17277, Note_on_c, 0, 49, 24
2, 17284, Note_on_c, 0, 59, 49
2, 17289, Note_on_c, 0, 53, 38
2, 17294, Note_on_c, 0, 69, 46
2, 17294, Control_c, 0, 64, 0
2, 17294, Control_c, 0, 64, 0
2, 17302, Note_off_c, 0, 71, 64
2, 17321, Control_c, 0, 64, 127
2, 17321, Control_c, 0, 64, 127
2, 17333, Note_off_c, 0, 49, 64
2, 17335, Note_off_c, 0, 59, 64
2, 17340, Note_off_c, 0, 53, 64
2, 17446, Note_on_c, 0, 68, 52
2, 17456, Note_on_c, 0, 53, 38
2, 17457, Note_on_c, 0, 49, 38
2, 17461, Note_off_c, 0, 69, 64
2, 17463, Note_on_c, 0, 59, 32
2, 17499, Note_off_c, 0, 49, 64
2, 17500, Note_off_c, 0, 59, 64
2, 17507, Note_off_c, 0, 53, 64
2, 17633, Note_on_c, 0, 42, 31
2, 17634, Note_on_c, 0, 69, 52
2, 17641, Note_off_c, 0, 68, 64
2, 17666, Control_c, 0, 64, 0
2, 17666, Control_c, 0, 64, 0
2, 17678, Control_c, 0, 64, 127
2, 17678, Control_c, 0, 64, 127
2, 17729, Note_on_c, 0, 73, 52
2, 17749, Note_off_c, 0, 69, 64
2, 17843, Control_c, 0, 64, 0
2, 17843, Control_c, 0, 64, 0
2, 17849, Note_on_c, 0, 49, 31
2, 17853, Note_on_c, 0, 57, 38
2, 17903, Control_c, 0, 64, 127
2, 17903, Control_c, 0, 64, 127
2, 17918, Note_off_c, 0, 73, 64
2, 18066, Note_off_c, 0, 42, 64
2, 18132, Note_on_c, 0, 61, 71
2, 18173, Control_c, 0, 64, 0
2, 18173, Control_c, 0, 64, 0
2, 18180, Note_off_c, 0, 57, 64
2, 18187, Note_off_c, 0, 49, 64
2, 18249, Control_c, 0, 64, 127
2, 18249, Control_c, 0, 64, 127
2, 18436, Note_on_c, 0, 59, 65
2, 18452, Note_off_c, 0, 61, 64
2, 18519, Note_off_c, 0, 59, 64
2, 18533, Note_on_c, 0, 57, 68
2, 18565, Note_on_c, 0, 59, 68
2, 18574, Note_off_c, 0, 57, 64
2, 18602, Note_on_c, 0, 57, 64
2, 18608, Control_c, 0, 64, 0
2, 18608, Control_c, 0, 64, 0
2, 18614, Note_off_c, 0, 59, 64
2, 18670, Control_c, 0, 64, 127
2, 18670, Control_c, 0, 64, 127
2, 18760, Note_on_c, 0, 56, 64
2, 18780, Note_off_c, 0, 57, 64
2, 18799, Control_c, 0, 64, 0
2, 18799, Control_c, 0, 64, 0
2, 18821, Control_c, 0, 64, 127
2, 18821, Control_c, 0, 64, 127
2, 18943, Note_on_c, 0, 57, 67
2, 18953, Note_off_c, 0, 56, 64
2, 18959, Control_c, 0, 64, 0
2, 18959, Control_c, 0, 64, 0
2, 19025, Control_c, 0, 64, 127
2, 19025, Control_c, 0, 64, 127
2, 19097, Control_c, 0, 64, 0
2, 19097, Control_c, 0, 64, 0
2, 19120, Note_on_c, 0, 61, 67
2, 19147, Note_off_c, 0, 57, 64
2, 19196, Control_c, 0, 64, 127
2, 19196, Control_c, 0, 64, 127
2, 19466, Note_on_c, 0, 59, 57
2, 19466, Note_on_c, 0, 56, 56
2, 19473, Note_on_c, 0, 49, 56
2, 19476, Note_off_c, 0, 61, 64
2, 19500, Control_c, 0, 64, 0
2, 19500, Control_c, 0, 64, 0
2, 19547, Control_c, 0, 64, 127
2, 19547, Control_c, 0, 64, 127
2, 19639, Control_c, 0, 64, 0
2, 19639, Control_c, 0, 64, 0
2, 19648, Note_on_c, 0, 57, 53
2, 19648, Note_on_c, 0, 54, 50
2, 19656, Note_off_c, 0, 56, 64
2, 19662, Note_off_c, 0, 59, 64
2, 19682, Control_c, 0, 64, 127
2, 19682, Control_c, 0, 64, 127
2, 19778, Note_off_c, 0, 57, 64
2, 19803, Note_on_c, 0, 61, 53
2, 19810, Note_on_c, 0, 57, 67
2, 19820, Note_off_c, 0, 54, 64
2, 19864, Note_off_c, 0, 57, 64
2, 19865, Note_off_c, 0, 61, 64
2, 19903, Note_on_c, 0, 59, 50
2, 19925, Note_on_c, 0, 61, 67
2, 19940, Note_off_c, 0, 59, 64
2, 19964, Note_on_c, 0, 56, 57
2, 19970, Note_on_c, 0, 59, 67
2, 19973, Control_c, 0, 64, 0
2, 19973, Control_c, 0, 64, 0
2, 19981, Note_off_c, 0, 61, 64
2, 20018, Control_c, 0, 64, 127
2, 20018, Control_c, 0, 64, 127
2, 20055, Note_on_c, 0, 57, 53
2, 20062, Note_off_c, 0, 59, 64
2, 20062, Note_off_c, 0, 56, 64
2, 20068, Note_on_c, 0, 54, 35
2, 20101, Control_c, 0, 64, 0
2, 20101, Control_c, 0, 64, 0
2, 20110, Note_off_c, 0, 57, 64
2, 20123, Note_on_c, 0, 61, 64
2, 20128, Note_on_c, 0, 57, 60
2, 20133, Note_off_c, 0, 54, 64
2, 20149, Control_c, 0, 64, 127
2, 20149, Control_c, 0, 64, 127
2, 20183, Note_off_c, 0, 57, 64
2, 20186, Note_off_c, 0, 61, 64
2, 20297, Note_on_c, 0, 61, 65
2, 20305, Note_on_c, 0, 57, 64
2, 20366, Note_off_c, 0, 57, 64
2, 20378, Note_off_c, 0, 49, 64
2, 20389, Note_off_c, 0, 61, 64
2, 20415, Note_on_c, 0, 59, 56
2, 20442, Note_on_c, 0, 61, 69
2, 20454, Note_off_c, 0, 59, 64
2, 20477, Note_on_c, 0, 59, 56
2, 20480, Note_on_c, 0, 56, 46
2, 20481, Note_on_c, 0, 49, 58
2, 20486, Note_off_c, 0, 61, 64
2, 20500, Control_c, 0, 64, 0
2, 20500, Control_c, 0, 64, 0
2, 20553, Control_c, 0, 64, 127
2, 20553, Control_c, 0, 64, 127
2, 20637, Note_on_c, 0, 58, 57
2, 20645, Note_off_c, 0, 56, 64
2, 20645, Note_on_c, 0, 54, 53
2, 20653, Note_off_c, 0, 59, 64
2, 20658, Control_c, 0, 64, 0
2, 20658, Control_c, 0, 64, 0
2, 20678, Control_c, 0, 64, 127
2, 20678, Control_c, 0, 64, 127
2, 20739, Note_off_c, 0, 58, 64
2, 20779, Note_off_c, 0, 54, 64
2, 20795, Note_on_c, 0, 58, 65
2, 20801, Note_on_c, 0, 61, 60
2, 20860, Note_off_c, 0, 61, 64
2, 20886, Note_off_c, 0, 58, 64
2, 20914, Note_on_c, 0, 59, 47
2, 20939, Note_on_c, 0, 61, 60
2, 20948, Note_on_c, 0, 56, 43
2, 20950, Note_off_c, 0, 59, 64
2, 20972, Note_on_c, 0, 59, 60
2, 20985, Note_off_c, 0, 61, 64
2, 21043, Note_off_c, 0, 49, 64
2, 21046, Note_on_c, 0, 54, 57
2, 21058, Note_on_c, 0, 58, 67
2, 21059, Note_off_c, 0, 56, 64
2, 21067, Note_off_c, 0, 59, 64
2, 21082, Note_off_c, 0, 54, 64
2, 21168, Note_on_c, 0, 66, 60
2, 21172, Note_on_c, 0, 42, 60
2, 21176, Note_on_c, 0, 54, 36
2, 21177, Control_c, 0, 64, 0
2, 21177, Control_c, 0, 64, 0
2, 21205, Note_off_c, 0, 58, 64
2, 21217, Note_off_c, 0, 54, 64
2, 21240, Control_c, 0, 64, 127
2, 21240, Control_c, 0, 64, 127
2, 21445, Note_off_c, 0, 42, 64
2, 21452, Note_on_c, 0, 78, 57
2, 21553, Note_off_c, 0, 66, 64
2, 21786, Note_on_c, 0, 47, 46
2, 21825, Control_c, 0, 64, 0
2, 21825, Control_c, 0, 64, 0
2, 21865, Control_c, 0, 64, 127
2, 21865, Control_c, 0, 64, 127
2, 21946, Note_on_c, 0, 83, 42
2, 21956, Note_off_c, 0, 78, 64
2, 21986, Note_off_c, 0, 47, 64
2, 22066, Note_on_c, 0, 64, 20
2, 22066, Note_on_c, 0, 59, 30
2, 22077, Note_on_c, 0, 55, 15
2, 22081, Note_off_c, 0, 83, 64
2, 22090, Note_on_c, 0, 79, 52
2, 22095, Control_c, 0, 64, 0
2, 22095, Control_c, 0, 64, 0
2, 22106, Control_c, 0, 64, 127
2, 22106, Control_c, 0, 64, 127
2, 22119, Note_on_c, 0, 81, 52
2, 22126, Note_off_c, 0, 79, 64
2, 22136, Note_off_c, 0, 55, 64
2, 22147, Note_off_c, 0, 59, 64
2, 22151, Note_off_c, 0, 64, 64
2, 22160, Note_on_c, 0, 79, 52
2, 22180, Note_off_c, 0, 81, 64
2, 22236, Note_off_c, 0, 79, 64
2, 22248, Note_on_c, 0, 78, 38
2, 22251, Note_on_c, 0, 55, 32
2, 22255, Note_on_c, 0, 64, 30
2, 22257, Note_on_c, 0, 59, 32
2, 22261, Control_c, 0, 64, 0
2, 22261, Control_c, 0, 64, 0
2, 22272, Control_c, 0, 64, 127
2, 22272, Control_c, 0, 64, 127
2, 22280, Note_off_c, 0, 59, 64
2, 22280, Note_off_c, 0, 64, 64
2, 22284, Note_off_c, 0, 55, 64
2, 22330, Note_on_c, 0, 76, 52
2, 22334, Note_off_c, 0, 78, 64
2, 22422, Note_on_c, 0, 78, 49
2, 22425, Note_on_c, 0, 47, 49
2, 22430, Control_c, 0, 64, 0
2, 22430, Control_c, 0, 64, 0
2, 22438, Note_off_c, 0, 76, 64
2, 22448, Control_c, 0, 64, 127
2, 22448, Control_c, 0, 64, 127
2, 22468, Note_on_c, 0, 71, 43
2, 22489, Note_off_c, 0, 78, 64
2, 22516, Control_c, 0, 64, 0
2, 22516, Control_c, 0, 64, 0
2, 22557, Note_on_c, 0, 62, 34
2, 22563, Note_on_c, 0, 59, 30
2, 22568, Note_on_c, 0, 54, 30
2, 22596, Note_off_c, 0, 59, 64
2, 22597, Note_off_c, 0, 62, 64
2, 22601, Note_off_c, 0, 54, 64
2, 22611, Control_c, 0, 64, 127
2, 22611, Control_c, 0, 64, 127
2, 22625, Note_off_c, 0, 47, 64
2, 22753, Note_on_c, 0, 54, 26
2, 22761, Note_on_c, 0, 59, 28
2, 22763, Note_on_c, 0, 62, 32
2, 22771, Control_c, 0, 64, 0
2, 22771, Control_c, 0, 64, 0
2, 22797, Control_c, 0, 64, 127
2, 22797, Control_c, 0, 64, 127
2, 22810, Note_off_c, 0, 59, 64
2, 22814, Note_off_c, 0, 62, 64
2, 22815, Note_off_c, 0, 54, 64
2, 22935, Note_on_c, 0, 47, 38
2, 22942, Note_on_c, 0, 73, 53
2, 22950, Control_c, 0, 64, 0
2, 22950, Control_c, 0, 64, 0
2, 22961, Control_c, 0, 64, 127
2, 22961, Control_c, 0, 64, 127
2, 22995, Note_off_c, 0, 71, 64
2, 23040, Note_on_c, 0, 76, 52
2, 23044, Note_off_c, 0, 73, 64
2, 23102, Note_off_c, 0, 76, 64
2, 23104, Note_on_c, 0, 74, 47
2, 23111, Note_on_c, 0, 54, 21
2, 23115, Note_on_c, 0, 64, 24
2, 23117, Control_c, 0, 64, 0
2, 23117, Control_c, 0, 64, 0
2, 23124, Note_on_c, 0, 58, 36
2, 23133, Note_on_c, 0, 76, 54
2, 23135, Note_off_c, 0, 47, 64
2, 23142, Note_off_c, 0, 74, 64
2, 23157, Control_c, 0, 64, 127
2, 23157, Control_c, 0, 64, 127
2, 23168, Note_off_c, 0, 54, 64
2, 23170, Note_on_c, 0, 74, 58
2, 23173, Note_off_c, 0, 58, 64
2, 23178, Note_off_c, 0, 64, 64
2, 23185, Note_off_c, 0, 76, 64
2, 23255, Note_off_c, 0, 74, 64
2, 23260, Note_on_c, 0, 73, 45
2, 23271, Note_on_c, 0, 64, 28
2, 23276, Note_on_c, 0, 54, 20
2, 23278, Note_on_c, 0, 58, 35
2, 23299, Note_off_c, 0, 64, 64
2, 23301, Note_off_c, 0, 58, 64
2, 23305, Note_off_c, 0, 54, 64
2, 23396, Note_off_c, 0, 73, 64
2, 23426, Note_on_c, 0, 74, 52
2, 23426, Note_on_c, 0, 47, 38
2, 23440, Control_c, 0, 64, 0
2, 23440, Control_c, 0, 64, 0
2, 23475, Note_on_c, 0, 71, 53
2, 23475, Control_c, 0, 64, 127
2, 23475, Control_c, 0, 64, 127
2, 23498, Note_off_c, 0, 74, 64
2, 23572, Control_c, 0, 64, 0
2, 23572, Control_c, 0, 64, 0
2, 23586, Note_on_c, 0, 54, 38
2, 23591, Note_on_c, 0, 59, 32
2, 23594, Note_on_c, 0, 62, 30
2, 23602, Control_c, 0, 64, 127
2, 23602, Control_c, 0, 64, 127
2, 23612, Note_off_c, 0, 71, 64
2, 23626, Note_off_c, 0, 47, 64
2, 23699, Note_off_c, 0, 54, 64
2, 23703, Note_off_c, 0, 59, 64
2, 23722, Note_off_c, 0, 62, 64
2, 23820, Note_on_c, 0, 50, 53
2, 24021, Note_on_c, 0, 59, 30
2, 24027, Note_on_c, 0, 65, 19
2, 24042, Control_c, 0, 64, 0
2, 24042, Control_c, 0, 64, 0
2, 24086, Control_c, 0, 64, 127
2, 24086, Control_c, 0, 64, 127
2, 24104, Note_off_c, 0, 59, 64
2, 24113, Note_off_c, 0, 65, 64
2, 24116, Note_on_c, 0, 55, 42
2, 24144, Note_off_c, 0, 50, 64
2, 24235, Note_on_c, 0, 52, 32
2, 24244, Note_on_c, 0, 64, 38
2, 24245, Note_on_c, 0, 60, 26
2, 24248, Note_off_c, 0, 55, 64
2, 24254, Control_c, 0, 64, 0
2, 24254, Control_c, 0, 64, 0
2, 24276, Control_c, 0, 64, 127
2, 24276, Control_c, 0, 64, 127
2, 24283, Note_off_c, 0, 52, 64
2, 24287, Note_on_c, 0, 53, 41
2, 24304, Note_off_c, 0, 60, 64
2, 24314, Note_off_c, 0, 64, 64
2, 24321, Note_on_c, 0, 52, 50
2, 24341, Note_off_c, 0, 53, 64
2, 24389, Control_c, 0, 64, 0
2, 24389, Control_c, 0, 64, 0
2, 24398, Note_on_c, 0, 60, 34
2, 24401, Note_on_c, 0, 50, 46
2, 24409, Note_off_c, 0, 52, 64
2, 24410, Note_on_c, 0, 64, 23
2, 24431, Control_c, 0, 64, 127
2, 24431, Control_c, 0, 64, 127
2, 24460, Note_off_c, 0, 60, 64
2, 24464, Note_off_c, 0, 64, 64
2, 24468, Note_off_c, 0, 50, 64
2, 24483, Note_on_c, 0, 48, 49
2, 24558, Note_on_c, 0, 59, 19
2, 24562, Note_on_c, 0, 50, 50
2, 24565, Note_off_c, 0, 48, 64
2, 24565, Note_on_c, 0, 65, 23
2, 24571, Note_on_c, 0, 55, 28
2, 24571, Control_c, 0, 64, 0
2, 24571, Control_c, 0, 64, 0
2, 24614, Control_c, 0, 64, 127
2, 24614, Control_c, 0, 64, 127
2, 24628, Note_off_c, 0, 59, 64
2, 24630, Note_off_c, 0, 55, 64
2, 24644, Note_off_c, 0, 65, 64
2, 24670, Note_off_c, 0, 50, 64
2, 24685, Note_on_c, 0, 43, 43
2, 24714, Note_on_c, 0, 65, 32
2, 24719, Control_c, 0, 64, 0
2, 24719, Control_c, 0, 64, 0
2, 24724, Note_on_c, 0, 55, 30
2, 24730, Note_on_c, 0, 59, 24
2, 24731, Note_on_c, 0, 50, 47
2, 24751, Control_c, 0, 64, 127
2, 24751, Control_c, 0, 64, 127
2, 24777, Note_off_c, 0, 65, 64
2, 24790, Note_off_c, 0, 43, 64
2, 24800, Note_off_c, 0, 59, 64
2, 24807, Note_off_c, 0, 55, 64
2, 24864, Note_on_c, 0, 60, 32
2, 24864, Note_on_c, 0, 48, 47
2, 24869, Note_off_c, 0, 50, 64
2, 24875, Note_on_c, 0, 64, 23
2, 24886, Control_c, 0, 64, 0
2, 24886, Control_c, 0, 64, 0
2, 24918, Control_c, 0, 64, 127
2, 24918, Control_c, 0, 64, 127
2, 24931, Note_off_c, 0, 64, 64
2, 24932, Note_off_c, 0, 60, 64
2, 25014, Note_on_c, 0, 50, 45
2, 25017, Note_on_c, 0, 59, 30
2, 25023, Note_off_c, 0, 48, 64
2, 25023, Note_on_c, 0, 65, 26
2, 25027, Control_c, 0, 64, 0
2, 25027, Control_c, 0, 64, 0
2, 25049, Control_c, 0, 64, 127
2, 25049, Control_c, 0, 64, 127
2, 25070, Note_off_c, 0, 65, 64
2, 25081, Note_off_c, 0, 59, 64
2, 25091, Note_on_c, 0, 55, 49
2, 25098, Note_off_c, 0, 50, 64
2, 25170, Control_c, 0, 64, 0
2, 25170, Control_c, 0, 64, 0
2, 25178, Note_on_c, 0, 60, 26
2, 25178, Note_on_c, 0, 52, 42
2, 25184, Note_on_c, 0, 64, 26
2, 25188, Note_off_c, 0, 55, 64
2, 25212, Control_c, 0, 64, 127
2, 25212, Control_c, 0, 64, 127
2, 25229, Note_on_c, 0, 53, 43
2, 25236, Note_off_c, 0, 52, 64
2, 25243, Note_off_c, 0, 60, 64
2, 25246, Note_off_c, 0, 64, 64
2, 25268, Note_on_c, 0, 52, 38
2, 25294, Note_off_c, 0, 53, 64
2, 25313, Control_c, 0, 64, 0
2, 25313, Control_c, 0, 64, 0
2, 25325, Note_on_c, 0, 60, 30
2, 25334, Note_on_c, 0, 64, 27
2, 25334, Note_on_c, 0, 50, 34
2, 25343, Note_off_c, 0, 52, 64
2, 25357, Control_c, 0, 64, 127
2, 25357, Control_c, 0, 64, 127
2, 25390, Note_off_c, 0, 60, 64
2, 25393, Note_off_c, 0, 64, 64
2, 25404, Note_off_c, 0, 50, 64
2, 25410, Note_on_c, 0, 48, 38
2, 25473, Control_c, 0, 64, 0
2, 25473, Control_c, 0, 64, 0
2, 25481, Note_on_c, 0, 50, 53
2, 25484, Note_on_c, 0, 55, 24
2, 25487, Note_on_c, 0, 59, 19
2, 25492, Note_off_c, 0, 48, 64
2, 25494, Note_on_c, 0, 65, 24
2, 25516, Control_c, 0, 64, 127
2, 25516, Control_c, 0, 64, 127
2, 25553, Note_off_c, 0, 59, 64
2, 25559, Note_off_c, 0, 55, 64
2, 25560, Note_off_c, 0, 65, 64
2, 25583, Note_off_c, 0, 50, 64
2, 25602, Note_on_c, 0, 43, 43
2, 25629, Note_on_c, 0, 65, 27
2, 25633, Note_on_c, 0, 50, 42
2, 25639, Note_on_c, 0, 59, 23
2, 25643, Note_on_c, 0, 55, 24
2, 25650, Note_off_c, 0, 43, 64
2, 25691, Note_off_c, 0, 65, 64
2, 25704, Note_off_c, 0, 59, 64
2, 25718, Note_off_c, 0, 55, 64
2, 25788, Note_on_c, 0, 60, 30
2, 25788, Note_on_c, 0, 48, 49
2, 25796, Note_off_c, 0, 50, 64
2, 25796, Note_on_c, 0, 64, 26
2, 25802, Control_c, 0, 64, 0
2, 25802, Control_c, 0, 64, 0
2, 25836, Control_c, 0, 64, 127
2, 25836, Control_c, 0, 64, 127
2, 25857, Note_off_c, 0, 64, 64
2, 25896, Note_off_c, 0, 60, 64
2, 25935, Note_on_c, 0, 50, 46
2, 25940, Note_off_c, 0, 48, 64
2, 25945, Note_on_c, 0, 65, 26
2, 25945, Note_on_c, 0, 55, 30
2, 25949, Note_on_c, 0, 59, 26
2, 25949, Control_c, 0, 64, 0
2, 25949, Control_c, 0, 64, 0
2, 25986, Control_c, 0, 64, 127
2, 25986, Control_c, 0, 64, 127
2, 26011, Note_off_c, 0, 65, 64
2, 26040, Note_on_c, 0, 43, 38
2, 26074, Note_off_c, 0, 59, 64
2, 26077, Note_off_c, 0, 50, 64
2, 26096, Note_on_c, 0, 48, 52
2, 26101, Note_on_c, 0, 60, 26
2, 26105, Note_on_c, 0, 64, 19
2, 26115, Control_c, 0, 64, 0
2, 26115, Control_c, 0, 64, 0
2, 26116, Note_off_c, 0, 43, 64
2, 26126, Note_off_c, 0, 55, 64
2, 26140, Control_c, 0, 64, 127
2, 26140, Control_c, 0, 64, 127
2, 26188, Note_off_c, 0, 64, 64
2, 26232, Note_off_c, 0, 60, 64
2, 26257, Note_on_c, 0, 50, 46
2, 26258, Control_c, 0, 64, 0
2, 26258, Control_c, 0, 64, 0
2, 26266, Note_on_c, 0, 65, 36
2, 26267, Note_off_c, 0, 48, 64
2, 26267, Note_on_c, 0, 59, 23
2, 26273, Note_on_c, 0, 55, 27
2, 26312, Control_c, 0, 64, 127
2, 26312, Control_c, 0, 64, 127
2, 26346, Note_off_c, 0, 65, 64
2, 26385, Note_on_c, 0, 43, 39
2, 26395, Note_off_c, 0, 50, 64
2, 26407, Note_off_c, 0, 59, 64
2, 26421, Note_on_c, 0, 64, 31
2, 26424, Note_on_c, 0, 60, 32
2, 26430, Note_on_c, 0, 48, 41
2, 26437, Control_c, 0, 64, 0
2, 26437, Control_c, 0, 64, 0
2, 26451, Control_c, 0, 64, 127
2, 26451, Control_c, 0, 64, 127
2, 26476, Note_off_c, 0, 43, 64
2, 26497, Note_off_c, 0, 55, 64
2, 26521, Note_off_c, 0, 64, 64
2, 26560, Note_off_c, 0, 60, 64
2, 26583, Note_off_c, 0, 48, 64
2, 26589, Note_on_c, 0, 50, 47
2, 26598, Note_on_c, 0, 59, 24
2, 26598, Note_on_c, 0, 55, 20
2, 26603, Note_on_c, 0, 65, 31
2, 26619, Control_c, 0, 64, 0
2, 26619, Control_c, 0, 64, 0
2, 26649, Control_c, 0, 64, 127
2, 26649, Control_c, 0, 64, 127
2, 26672, Note_off_c, 0, 65, 64
2, 26747, Note_on_c, 0, 43, 34
2, 26770, Note_off_c, 0, 59, 64
2, 26791, Note_off_c, 0, 50, 64
2, 26795, Note_on_c, 0, 64, 26
2, 26800, Note_on_c, 0, 48, 39
2, 26805, Note_on_c, 0, 60, 30
2, 26822, Note_off_c, 0, 55, 64
2, 26839, Note_off_c, 0, 43, 64
2, 26869, Note_off_c, 0, 64, 64
2, 26919, Note_off_c, 0, 48, 64
2, 27049, Note_off_c, 0, 60, 64
2, 27073, Note_on_c, 0, 55, 38
2, 27073, Note_on_c, 0, 43, 42
2, 27128, Control_c, 0, 64, 0
2, 27128, Control_c, 0, 64, 0
2, 27184, Control_c, 0, 64, 127
2, 27184, Control_c, 0, 64, 127
2, 27785, Note_on_c, 0, 42, 56
2, 27790, Note_off_c, 0, 43, 64
2, 27790, Note_off_c, 0, 55, 64
2, 27791, Note_on_c, 0, 54, 43
2, 27850, Control_c, 0, 64, 0
2, 27850, Control_c, 0, 64, 0
2, 27902, Control_c, 0, 64, 127
2, 27902, Control_c, 0, 64, 127
2, 28290, Note_on_c, 0, 41, 67
2, 28293, Note_on_c, 0, 53, 64
2, 28335, Note_off_c, 0, 42, 64
2, 28341, Note_off_c, 0, 54, 64
2, 28563, Control_c, 0, 64, 127
2, 28563, Control_c, 0, 64, 127
2, 28568, Note_on_c, 0, 34, 87
2, 28626, Note_off_c, 0, 41, 64
2, 28631, Note_off_c, 0, 53, 64
2, 28744, Note_on_c, 0, 70, 57
2, 28744, Note_on_c, 0, 62, 54
2, 28745, Note_on_c, 0, 74, 57
2, 28752, Note_on_c, 0, 65, 57
2, 28752, Note_on_c, 0, 58, 50
2, 28757, Note_on_c, 0, 53, 49
2, 28764, Control_c, 0, 64, 0
2, 28764, Control_c, 0, 64, 0
2, 28768, Note_off_c, 0, 34, 64
2, 28786, Control_c, 0, 64, 127
2, 28786, Control_c, 0, 64, 127
2, 28894, Note_off_c, 0, 62, 64
2, 28894, Note_off_c, 0, 70, 64
2, 28895, Note_off_c, 0, 74, 64
2, 28902, Note_off_c, 0, 58, 64
2, 28902, Note_off_c, 0, 65, 64
2, 28907, Note_off_c, 0, 53, 64
2, 28927, Note_on_c, 0, 75, 68
2, 28932, Note_on_c, 0, 70, 63
2, 28932, Note_on_c, 0, 66, 58
2, 28939, Note_on_c, 0, 63, 60
2, 28944, Note_on_c, 0, 58, 49
2, 28944, Note_on_c, 0, 54, 54
2, 29077, Note_off_c, 0, 75, 64
2, 29082, Note_off_c, 0, 66, 64
2, 29082, Note_off_c, 0, 70, 64
2, 29089, Note_off_c, 0, 63, 64
2, 29094, Note_off_c, 0, 54, 64
2, 29094, Note_off_c, 0, 58, 64
2, 29108, Note_on_c, 0, 46, 72
2, 29114, Note_on_c, 0, 78, 71
2, 29124, Control_c, 0, 64, 0
2, 29124, Control_c, 0, 64, 0
2, 29147, Control_c, 0, 64, 127
2, 29147, Control_c, 0, 64, 127
2, 29203, Note_off_c, 0, 78, 64
2, 29240, Note_on_c, 0, 77, 41
2, 29240, Note_on_c, 0, 74, 56
2, 29264, Note_on_c, 0, 65, 35
2, 29267, Note_on_c, 0, 62, 26
2, 29267, Note_on_c, 0, 58, 41
2, 29272, Note_on_c, 0, 72, 68
2, 29290, Note_off_c, 0, 74, 64
2, 29299, Control_c, 0, 64, 0
2, 29299, Control_c, 0, 64, 0
2, 29308, Note_off_c, 0, 46, 64
2, 29323, Control_c, 0, 64, 127
2, 29323, Control_c, 0, 64, 127
2, 29332, Note_off_c, 0, 72, 64
2, 29336, Note_off_c, 0, 77, 64
2, 29364, Note_off_c, 0, 65, 64
2, 29367, Note_off_c, 0, 58, 64
2, 29367, Note_off_c, 0, 62, 64
2, 29368, Note_on_c, 0, 77, 41
2, 29382, Note_on_c, 0, 74, 56
2, 29395, Control_c, 0, 64, 0
2, 29395, Control_c, 0, 64, 0
2, 29429, Note_on_c, 0, 70, 67
2, 29437, Note_on_c, 0, 53, 53
2, 29438, Control_c, 0, 64, 0
2, 29438, Control_c, 0, 64, 0
2, 29455, Note_off_c, 0, 74, 64
2, 29464, Note_off_c, 0, 77, 64
2, 29585, Note_on_c, 0, 82, 90
2, 29592, Note_on_c, 0, 34, 97
2, 29605, Control_c, 0, 64, 0
2, 29605, Control_c, 0, 64, 0
2, 29629, Note_off_c, 0, 70, 64
2, 29630, Control_c, 0, 64, 127
2, 29630, Control_c, 0, 64, 127
2, 29637, Note_off_c, 0, 53, 64
2, 29757, Note_on_c, 0, 74, 52
2, 29757, Note_on_c, 0, 70, 52
2, 29760, Note_on_c, 0, 53, 31
2, 29761, Note_on_c, 0, 65, 53
2, 29761, Note_on_c, 0, 62, 46
2, 29761, Note_on_c, 0, 58, 52
2, 29776, Control_c, 0, 64, 0
2, 29776, Control_c, 0, 64, 0
2, 29785, Note_off_c, 0, 82, 64
2, 29792, Note_off_c, 0, 34, 64
2, 29802, Control_c, 0, 64, 127
2, 29802, Control_c, 0, 64, 127
2, 29859, Note_off_c, 0, 70, 64
2, 29907, Note_off_c, 0, 74, 64
2, 29910, Note_off_c, 0, 53, 64
2, 29911, Note_off_c, 0, 58, 64
2, 29911, Note_off_c, 0, 62, 64
2, 29911, Note_off_c, 0, 65, 64
2, 29912, Note_on_c, 0, 70, 49
2, 29919, Note_on_c, 0, 75, 60
2, 29919, Note_on_c, 0, 66, 58
2, 29919, Note_on_c, 0, 63, 52
2, 29927, Note_on_c, 0, 54, 38
2, 29931, Note_on_c, 0, 58, 38
2, 30062, Note_off_c, 0, 70, 64
2, 30069, Note_off_c, 0, 63, 64
2, 30069, Note_off_c, 0, 66, 64
2, 30069, Note_off_c, 0, 75, 64
2, 30075, Note_on_c, 0, 78, 72
2, 30075, Note_on_c, 0, 46, 71
2, 30077, Note_off_c, 0, 54, 64
2, 30081, Note_off_c, 0, 58, 64
2, 30090, Control_c, 0, 64, 0
2, 30090, Control_c, 0, 64, 0
2, 30104, Control_c, 0, 64, 127
2, 30104, Control_c, 0, 64, 127
2, 30184, Note_off_c, 0, 78, 64
2, 30190, Note_on_c, 0, 74, 46
2, 30197, Note_on_c, 0, 77, 46
2, 30208, Note_on_c, 0, 65, 53
2, 30208, Note_on_c, 0, 58, 42
2, 30210, Note_on_c, 0, 62, 31
2, 30233, Note_on_c, 0, 72, 71
2, 30239, Note_off_c, 0, 74, 64
2, 30243, Control_c, 0, 64, 0
2, 30243, Control_c, 0, 64, 0
2, 30256, Control_c, 0, 64, 127
2, 30256, Control_c, 0, 64, 127
2, 30269, Note_off_c, 0, 77, 64
2, 30275, Note_off_c, 0, 46, 64
2, 30289, Note_off_c, 0, 72, 64
2, 30308, Note_off_c, 0, 58, 64
2, 30308, Note_off_c, 0, 65, 64
2, 30310, Note_off_c, 0, 62, 64
2, 30336, Note_on_c, 0, 77, 41
2, 30347, Note_on_c, 0, 74, 50
2, 30371, Control_c, 0, 64, 0
2, 30371, Control_c, 0, 64, 0
2, 30383, Note_on_c, 0, 53, 60
2, 30387, Note_on_c, 0, 70, 71
2, 30406, Note_off_c, 0, 74, 64
2, 30414, Control_c, 0, 64, 0
2, 30414, Control_c, 0, 64, 0
2, 30432, Note_off_c, 0, 77, 64
2, 30530, Note_on_c, 0, 34, 98
2, 30536, Control_c, 0, 64, 0
2, 30536, Control_c, 0, 64, 0
2, 30560, Control_c, 0, 64, 127
2, 30560, Control_c, 0, 64, 127
2, 30583, Note_off_c, 0, 53, 64
2, 30587, Note_off_c, 0, 70, 64
2, 30679, Note_on_c, 0, 53, 39
2, 30682, Note_on_c, 0, 65, 64
2, 30682, Note_on_c, 0, 62, 39
2, 30689, Note_on_c, 0, 74, 61
2, 30689, Note_on_c, 0, 70, 64
2, 30689, Note_on_c, 0, 58, 34
2, 30701, Control_c, 0, 64, 0
2, 30701, Control_c, 0, 64, 0
2, 30721, Control_c, 0, 64, 127
2, 30721, Control_c, 0, 64, 127
2, 30730, Note_off_c, 0, 34, 64
2, 30795, Note_off_c, 0, 70, 64
2, 30805, Note_off_c, 0, 58, 64
2, 30829, Note_off_c, 0, 53, 64
2, 30830, Note_on_c, 0, 70, 54
2, 30830, Note_on_c, 0, 66, 58
2, 30832, Note_off_c, 0, 62, 64
2, 30832, Note_off_c, 0, 65, 64
2, 30832, Note_on_c, 0, 63, 50
2, 30833, Note_on_c, 0, 75, 63
2, 30839, Note_off_c, 0, 74, 64
2, 30844, Note_on_c, 0, 54, 36
2, 30848, Note_on_c, 0, 58, 41
2, 30938, Note_off_c, 0, 70, 64
2, 30976, Note_on_c, 0, 46, 43
2, 30980, Note_off_c, 0, 66, 64
2, 30982, Note_off_c, 0, 63, 64
2, 30983, Note_off_c, 0, 75, 64
2, 30989, Note_on_c, 0, 78, 72
2, 30994, Note_off_c, 0, 54, 64
2, 30998, Note_off_c, 0, 58, 64
2, 30999, Control_c, 0, 64, 0
2, 30999, Control_c, 0, 64, 0
2, 31015, Control_c, 0, 64, 127
2, 31015, Control_c, 0, 64, 127
2, 31086, Note_off_c, 0, 78, 64
2, 31088, Note_on_c, 0, 77, 45
2, 31095, Note_on_c, 0, 74, 60
2, 31124, Note_on_c, 0, 65, 65
2, 31131, Note_on_c, 0, 62, 31
2, 31135, Note_on_c, 0, 72, 75
2, 31136, Note_on_c, 0, 58, 39
2, 31140, Control_c, 0, 64, 0
2, 31140, Control_c, 0, 64, 0
2, 31158, Control_c, 0, 64, 127
2, 31158, Control_c, 0, 64, 127
2, 31165, Note_off_c, 0, 74, 64
2, 31176, Note_off_c, 0, 46, 64
2, 31179, Note_off_c, 0, 77, 64
2, 31215, Note_off_c, 0, 72, 64
2, 31219, Note_off_c, 0, 65, 64
2, 31232, Note_on_c, 0, 77, 49
2, 31239, Note_on_c, 0, 74, 54
2, 31243, Control_c, 0, 64, 0
2, 31243, Control_c, 0, 64, 0
2, 31284, Note_on_c, 0, 53, 60
2, 31286, Control_c, 0, 64, 0
2, 31286, Control_c, 0, 64, 0
2, 31290, Note_on_c, 0, 70, 81
2, 31293, Note_off_c, 0, 62, 64
2, 31297, Note_off_c, 0, 58, 64
2, 31298, Note_off_c, 0, 74, 64
2, 31328, Note_off_c, 0, 77, 64
2, 31434, Note_on_c, 0, 46, 73
2, 31440, Note_on_c, 0, 82, 96
2, 31440, Note_on_c, 0, 34, 90
2, 31443, Note_on_c, 0, 94, 78
2, 31484, Note_off_c, 0, 53, 64
2, 31490, Note_off_c, 0, 70, 64
2, 31509, Control_c, 0, 64, 0
2, 31509, Control_c, 0, 64, 0
2, 31529, Control_c, 0, 64, 127
2, 31529, Control_c, 0, 64, 127
2, 31584, Note_on_c, 0, 65, 64
2, 31589, Note_on_c, 0, 53, 53
2, 31594, Note_on_c, 0, 62, 56
2, 31597, Note_on_c, 0, 74, 65
2, 31597, Note_on_c, 0, 70, 69
2, 31601, Note_on_c, 0, 58, 36
2, 31610, Control_c, 0, 64, 0
2, 31610, Control_c, 0, 64, 0
2, 31616, Note_off_c, 0, 82, 64
2, 31622, Note_off_c, 0, 94, 64
2, 31632, Control_c, 0, 64, 127
2, 31632, Control_c, 0, 64, 127
2, 31634, Note_off_c, 0, 46, 64
2, 31640, Note_off_c, 0, 34, 64
2, 31697, Note_off_c, 0, 70, 64
2, 31734, Note_off_c, 0, 65, 64
2, 31739, Note_off_c, 0, 53, 64
2, 31744, Note_off_c, 0, 62, 64
2, 31747, Note_off_c, 0, 74, 64
2, 31751, Note_off_c, 0, 58, 64
2, 31753, Note_on_c, 0, 66, 64
2, 31753, Note_on_c, 0, 63, 61
2, 31757, Note_on_c, 0, 75, 72
2, 31762, Note_on_c, 0, 70, 61
2, 31762, Note_on_c, 0, 54, 48
2, 31768, Note_on_c, 0, 58, 52
2, 31895, Note_on_c, 0, 46, 68
2, 31902, Note_on_c, 0, 78, 76
2, 31903, Note_off_c, 0, 63, 64
2, 31903, Note_off_c, 0, 66, 64
2, 31907, Note_off_c, 0, 75, 64
2, 31909, Control_c, 0, 64, 0
2, 31909, Control_c, 0, 64, 0
2, 31912, Note_off_c, 0, 54, 64
2, 31912, Note_off_c, 0, 70, 64
2, 31918, Note_off_c, 0, 58, 64
2, 31925, Control_c, 0, 64, 127
2, 31925, Control_c, 0, 64, 127
2, 32003, Note_off_c, 0, 78, 64
2, 32016, Note_on_c, 0, 77, 64
2, 32019, Note_on_c, 0, 74, 68
2, 32041, Note_on_c, 0, 65, 73
2, 32041, Note_on_c, 0, 62, 67
2, 32053, Note_on_c, 0, 58, 54
2, 32060, Control_c, 0, 64, 0
2, 32060, Control_c, 0, 64, 0
2, 32063, Note_on_c, 0, 72, 80
2, 32072, Note_off_c, 0, 74, 64
2, 32088, Control_c, 0, 64, 127
2, 32088, Control_c, 0, 64, 127
2, 32094, Note_off_c, 0, 77, 64
2, 32095, Note_off_c, 0, 46, 64
2, 32123, Note_off_c, 0, 72, 64
2, 32141, Note_off_c, 0, 62, 64
2, 32141, Note_off_c, 0, 65, 64
2, 32153, Note_off_c, 0, 58, 64
2, 32160, Note_on_c, 0, 77, 49
2, 32175, Note_on_c, 0, 74, 63
2, 32195, Control_c, 0, 64, 0
2, 32195, Control_c, 0, 64, 0
2, 32206, Note_on_c, 0, 53, 79
2, 32208, Note_on_c, 0, 70, 90
2, 32215, Control_c, 0, 64, 0
2, 32215, Control_c, 0, 64, 0
2, 32225, Note_off_c, 0, 74, 64
2, 32230, Control_c, 0, 64, 127
2, 32230, Control_c, 0, 64, 127
2, 32238, Control_c, 0, 64, 0
2, 32238, Control_c, 0, 64, 0
2, 32256, Note_off_c, 0, 77, 64
2, 32360, Control_c, 0, 64, 0
2, 32360, Control_c, 0, 64, 0
2, 32364, Note_on_c, 0, 39, 97
2, 32392, Control_c, 0, 64, 127
2, 32392, Control_c, 0, 64, 127
2, 32406, Note_off_c, 0, 53, 64
2, 32408, Note_off_c, 0, 70, 64
2, 32517, Note_on_c, 0, 75, 76
2, 32517, Note_on_c, 0, 70, 90
2, 32520, Note_on_c, 0, 63, 76
2, 32520, Note_on_c, 0, 58, 53
2, 32521, Note_on_c, 0, 67, 68
2, 32522, Note_on_c, 0, 79, 76
2, 32530, Control_c, 0, 64, 0
2, 32530, Control_c, 0, 64, 0
2, 32548, Control_c, 0, 64, 127
2, 32548, Control_c, 0, 64, 127
2, 32564, Note_off_c, 0, 39, 64
2, 32629, Note_off_c, 0, 75, 64
2, 32657, Note_off_c, 0, 70, 64
2, 32658, Note_on_c, 0, 68, 65
2, 32660, Note_off_c, 0, 58, 64
2, 32660, Note_off_c, 0, 63, 64
2, 32661, Note_off_c, 0, 67, 64
2, 32662, Note_off_c, 0, 79, 64
2, 32664, Note_on_c, 0, 80, 79
2, 32664, Note_on_c, 0, 75, 71
2, 32664, Note_on_c, 0, 71, 71
2, 32672, Note_on_c, 0, 59, 57
2, 32676, Note_on_c, 0, 63, 57
2, 32798, Note_off_c, 0, 68, 64
2, 32804, Note_off_c, 0, 71, 64
2, 32804, Note_off_c, 0, 75, 64
2, 32804, Note_off_c, 0, 80, 64
2, 32812, Note_off_c, 0, 59, 64
2, 32815, Note_on_c, 0, 51, 78
2, 32816, Note_off_c, 0, 63, 64
2, 32820, Note_on_c, 0, 83, 76
2, 32833, Control_c, 0, 64, 0
2, 32833, Control_c, 0, 64, 0
2, 32845, Control_c, 0, 64, 127
2, 32845, Control_c, 0, 64, 127
2, 32905, Note_on_c, 0, 82, 76
2, 32911, Note_on_c, 0, 79, 65
2, 32926, Note_off_c, 0, 83, 64
2, 32939, Note_on_c, 0, 67, 63
2, 32952, Note_on_c, 0, 58, 65
2, 32953, Note_on_c, 0, 63, 65
2, 32959, Note_on_c, 0, 77, 79
2, 32964, Control_c, 0, 64, 0
2, 32964, Control_c, 0, 64, 0
2, 32972, Note_off_c, 0, 79, 64
2, 32988, Control_c, 0, 64, 127
2, 32988, Control_c, 0, 64, 127
2, 32991, Note_off_c, 0, 82, 64
2, 33015, Note_off_c, 0, 51, 64
2, 33031, Note_off_c, 0, 77, 64
2, 33039, Note_off_c, 0, 67, 64
2, 33052, Note_off_c, 0, 58, 64
2, 33053, Note_off_c, 0, 63, 64
2, 33064, Note_on_c, 0, 82, 76
2, 33064, Note_on_c, 0, 79, 60
2, 33100, Note_on_c, 0, 51, 71
2, 33103, Note_on_c, 0, 75, 90
2, 33116, Note_off_c, 0, 79, 64
2, 33150, Note_off_c, 0, 82, 64
2, 33254, Note_on_c, 0, 99, 81
2, 33259, Control_c, 0, 64, 0
2, 33259, Control_c, 0, 64, 0
2, 33264, Note_on_c, 0, 87, 106
2, 33267, Note_on_c, 0, 39, 101
2, 33300, Note_off_c, 0, 51, 64
2, 33303, Note_off_c, 0, 75, 64
2, 33303, Control_c, 0, 64, 127
2, 33303, Control_c, 0, 64, 127
2, 33424, Note_on_c, 0, 79, 76
2, 33427, Note_on_c, 0, 75, 76
2, 33427, Note_on_c, 0, 70, 84
2, 33437, Note_on_c, 0, 67, 76
2, 33438, Note_on_c, 0, 63, 79
2, 33438, Note_on_c, 0, 58, 71
2, 33454, Note_off_c, 0, 99, 64
2, 33464, Note_off_c, 0, 87, 64
2, 33467, Note_off_c, 0, 39, 64
2, 33574, Note_off_c, 0, 79, 64
2, 33577, Note_off_c, 0, 70, 64
2, 33577, Note_off_c, 0, 75, 64
2, 33587, Note_off_c, 0, 67, 64
2, 33587, Note_on_c, 0, 68, 76
2, 33587, Note_on_c, 0, 59, 67
2, 33588, Note_off_c, 0, 58, 64
2, 33588, Note_off_c, 0, 63, 64
2, 33592, Note_on_c, 0, 63, 57
2, 33593, Note_on_c, 0, 80, 80
2, 33597, Note_on_c, 0, 71, 79
2, 33599, Control_c, 0, 64, 0
2, 33599, Control_c, 0, 64, 0
2, 33600, Note_on_c, 0, 75, 71
2, 33612, Control_c, 0, 64, 127
2, 33612, Control_c, 0, 64, 127
2, 33737, Note_off_c, 0, 59, 64
2, 33737, Note_off_c, 0, 68, 64
2, 33742, Note_off_c, 0, 63, 64
2, 33743, Note_off_c, 0, 80, 64
2, 33743, Note_on_c, 0, 51, 76
2, 33747, Note_off_c, 0, 71, 64
2, 33748, Note_on_c, 0, 83, 76
2, 33750, Note_off_c, 0, 75, 64
2, 33765, Control_c, 0, 64, 0
2, 33765, Control_c, 0, 64, 0
2, 33781, Control_c, 0, 64, 127
2, 33781, Control_c, 0, 64, 127
2, 33851, Note_on_c, 0, 79, 56
2, 33852, Note_on_c, 0, 82, 57
2, 33870, Note_off_c, 0, 83, 64
2, 33896, Note_on_c, 0, 70, 71
2, 33896, Note_on_c, 0, 67, 76
2, 33899, Note_on_c, 0, 77, 84
2, 33900, Note_on_c, 0, 61, 36
2, 33912, Note_off_c, 0, 79, 64
2, 33914, Note_off_c, 0, 82, 64
2, 33943, Note_off_c, 0, 51, 64
2, 33962, Note_off_c, 0, 77, 64
2, 33996, Note_off_c, 0, 67, 64
2, 33996, Note_off_c, 0, 70, 64
2, 34000, Note_off_c, 0, 61, 64
2, 34040, Note_on_c, 0, 82, 57
2, 34040, Note_on_c, 0, 79, 54
2, 34098, Note_on_c, 0, 51, 76
2, 34102, Note_off_c, 0, 82, 64
2, 34102, Note_on_c, 0, 76, 87
2, 34138, Note_off_c, 0, 79, 64
2, 34300, Control_c, 0, 64, 0
2, 34300, Control_c, 0, 64, 0
2, 34337, Note_off_c, 0, 51, 64
2, 34343, Note_on_c, 0, 39, 89
2, 34348, Control_c, 0, 64, 0
2, 34348, Control_c, 0, 64, 0
2, 34360, Control_c, 0, 64, 127
2, 34360, Control_c, 0, 64, 127
2, 34604, Note_on_c, 0, 61, 63
2, 34608, Note_on_c, 0, 70, 58
2, 34609, Note_on_c, 0, 79, 56
2, 34770, Note_on_c, 0, 80, 58
2, 34776, Note_on_c, 0, 62, 46
2, 34779, Note_on_c, 0, 71, 52
2, 34781, Note_off_c, 0, 70, 64
2, 34786, Note_off_c, 0, 79, 64
2, 34792, Note_off_c, 0, 61, 64
2, 34946, Note_on_c, 0, 79, 53
2, 34946, Note_on_c, 0, 75, 54
2, 34946, Note_on_c, 0, 70, 56
2, 34947, Note_on_c, 0, 63, 52
2, 34951, Note_off_c, 0, 76, 64
2, 34959, Note_off_c, 0, 62, 64
2, 34974, Control_c, 0, 64, 0
2, 34974, Control_c, 0, 64, 0
2, 34988, Note_off_c, 0, 80, 64
2, 34996, Control_c, 0, 64, 127
2, 34996, Control_c, 0, 64, 127
2, 35002, Note_off_c, 0, 71, 64
2, 35103, Note_off_c, 0, 39, 64
2, 35113, Note_on_c, 0, 78, 53
2, 35118, Note_on_c, 0, 64, 49
2, 35120, Note_on_c, 0, 73, 42
2, 35127, Note_off_c, 0, 63, 64
2, 35133, Note_off_c, 0, 79, 64
2, 35142, Control_c, 0, 64, 0
2, 35142, Control_c, 0, 64, 0
2, 35151, Note_off_c, 0, 75, 64
2, 35165, Control_c, 0, 64, 127
2, 35165, Control_c, 0, 64, 127
2, 35286, Note_on_c, 0, 77, 50
2, 35292, Note_off_c, 0, 78, 64
2, 35293, Note_on_c, 0, 65, 52
2, 35309, Note_off_c, 0, 64, 64
2, 35476, Note_on_c, 0, 76, 49
2, 35484, Note_on_c, 0, 66, 42
2, 35489, Note_off_c, 0, 77, 64
2, 35496, Control_c, 0, 64, 0
2, 35496, Control_c, 0, 64, 0
2, 35509, Note_off_c, 0, 65, 64
2, 35510, Control_c, 0, 64, 127
2, 35510, Control_c, 0, 64, 127
2, 35661, Note_on_c, 0, 54, 47
2, 35668, Note_off_c, 0, 66, 64
2, 35699, Control_c, 0, 64, 0
2, 35699, Control_c, 0, 64, 0
2, 35721, Control_c, 0, 64, 127
2, 35721, Control_c, 0, 64, 127
2, 35797, Note_on_c, 0, 57, 52
2, 35813, Note_off_c, 0, 54, 64
2, 35838, Note_on_c, 0, 55, 46
2, 35852, Note_off_c, 0, 57, 64
2, 35878, Control_c, 0, 64, 0
2, 35878, Control_c, 0, 64, 0
2, 35929, Control_c, 0, 64, 127
2, 35929, Control_c, 0, 64, 127
2, 36034, Note_off_c, 0, 76, 64
2, 36039, Note_on_c, 0, 54, 42
2, 36047, Note_off_c, 0, 73, 64
2, 36059, Note_off_c, 0, 70, 64
2, 36065, Note_off_c, 0, 55, 64
2, 36101, Control_c, 0, 64, 0
2, 36101, Control_c, 0, 64, 0
2, 36164, Control_c, 0, 64, 127
2, 36164, Control_c, 0, 64, 127
2, 36302, Note_on_c, 0, 49, 34
2, 36328, Note_off_c, 0, 54, 64
2, 36343, Control_c, 0, 64, 0
2, 36343, Control_c, 0, 64, 0
2, 36374, Control_c, 0, 64, 127
2, 36374, Control_c, 0, 64, 127
2, 36642, Note_on_c, 0, 50, 26
2, 36667, Note_off_c, 0, 49, 64
2, 36898, Note_on_c, 0, 47, 51
2, 36916, Note_on_c, 0, 78, 54
2, 36919, Note_off_c, 0, 50, 64
2, 36939, Control_c, 0, 64, 0
2, 36939, Control_c, 0, 64, 0
2, 36984, Control_c, 0, 64, 127
2, 36984, Control_c, 0, 64, 127
2, 37080, Note_on_c, 0, 83, 44
2, 37093, Note_off_c, 0, 78, 64
2, 37098, Note_off_c, 0, 47, 64
2, 37155, Note_on_c, 0, 55, 27
2, 37161, Note_on_c, 0, 59, 35
2, 37171, Note_on_c, 0, 64, 29
2, 37204, Note_off_c, 0, 83, 64
2, 37214, Note_on_c, 0, 79, 56
2, 37214, Control_c, 0, 64, 0
2, 37214, Control_c, 0, 64, 0
2, 37228, Control_c, 0, 64, 127
2, 37228, Control_c, 0, 64, 127
2, 37236, Note_off_c, 0, 59, 64
2, 37240, Note_off_c, 0, 64, 64
2, 37240, Note_off_c, 0, 55, 64
2, 37243, Note_on_c, 0, 81, 57
2, 37250, Note_off_c, 0, 79, 64
2, 37284, Note_on_c, 0, 79, 59
2, 37296, Note_off_c, 0, 81, 64
2, 37360, Note_off_c, 0, 79, 64
2, 37362, Note_on_c, 0, 64, 43
2, 37370, Note_on_c, 0, 55, 39
2, 37372, Note_on_c, 0, 59, 40
2, 37374, Note_on_c, 0, 78, 52
2, 37394, Note_off_c, 0, 55, 64
2, 37397, Note_off_c, 0, 59, 64
2, 37401, Note_off_c, 0, 64, 64
2, 37447, Note_off_c, 0, 78, 64
2, 37478, Note_on_c, 0, 76, 47
2, 37538, Note_on_c, 0, 78, 60
2, 37539, Note_on_c, 0, 47, 60
2, 37549, Note_off_c, 0, 76, 64
2, 37561, Control_c, 0, 64, 0
2, 37561, Control_c, 0, 64, 0
2, 37572, Control_c, 0, 64, 127
2, 37572, Control_c, 0, 64, 127
2, 37591, Note_on_c, 0, 71, 43
2, 37599, Note_off_c, 0, 78, 64
2, 37698, Note_on_c, 0, 54, 34
2, 37703, Note_on_c, 0, 59, 32
2, 37704, Note_on_c, 0, 62, 34
2, 37718, Control_c, 0, 64, 0
2, 37718, Control_c, 0, 64, 0
2, 37739, Note_off_c, 0, 47, 64
2, 37766, Control_c, 0, 64, 127
2, 37766, Control_c, 0, 64, 127
2, 37816, Note_off_c, 0, 59, 64
2, 37825, Note_off_c, 0, 54, 64
2, 37826, Note_off_c, 0, 62, 64
2, 37885, Note_on_c, 0, 54, 34
2, 37887, Note_on_c, 0, 62, 35
2, 37890, Note_on_c, 0, 59, 21
2, 37899, Control_c, 0, 64, 0
2, 37899, Control_c, 0, 64, 0
2, 37919, Control_c, 0, 64, 127
2, 37919, Control_c, 0, 64, 127
2, 37931, Note_off_c, 0, 59, 64
2, 37935, Note_off_c, 0, 62, 64
2, 37935, Note_off_c, 0, 54, 64
2, 38045, Note_on_c, 0, 73, 59
2, 38052, Note_on_c, 0, 47, 52
2, 38093, Note_off_c, 0, 71, 64
2, 38135, Note_on_c, 0, 76, 56
2, 38139, Note_off_c, 0, 73, 64
2, 38196, Note_off_c, 0, 76, 64
2, 38199, Control_c, 0, 64, 0
2, 38199, Control_c, 0, 64, 0
2, 38208, Note_on_c, 0, 54, 24
2, 38209, Note_on_c, 0, 74, 59
2, 38215, Note_on_c, 0, 64, 34
2, 38215, Note_on_c, 0, 58, 27
2, 38232, Note_on_c, 0, 76, 56
2, 38241, Note_off_c, 0, 74, 64
2, 38252, Note_off_c, 0, 47, 64
2, 38254, Note_off_c, 0, 54, 64
2, 38256, Note_off_c, 0, 58, 64
2, 38259, Control_c, 0, 64, 127
2, 38259, Control_c, 0, 64, 127
2, 38268, Note_off_c, 0, 64, 64
2, 38268, Note_on_c, 0, 74, 59
2, 38288, Note_off_c, 0, 76, 64
2, 38348, Note_off_c, 0, 74, 64
2, 38354, Note_on_c, 0, 73, 56
2, 38358, Note_on_c, 0, 58, 36
2, 38362, Note_on_c, 0, 54, 26
2, 38366, Note_on_c, 0, 64, 17
2, 38392, Note_off_c, 0, 64, 64
2, 38393, Note_off_c, 0, 54, 64
2, 38398, Note_off_c, 0, 58, 64
2, 38484, Note_off_c, 0, 73, 64
2, 38507, Note_on_c, 0, 74, 59
2, 38513, Note_on_c, 0, 47, 56
2, 38521, Control_c, 0, 64, 0
2, 38521, Control_c, 0, 64, 0
2, 38555, Control_c, 0, 64, 127
2, 38555, Control_c, 0, 64, 127
2, 38566, Note_on_c, 0, 71, 64
2, 38581, Note_off_c, 0, 74, 64
2, 38644, Control_c, 0, 64, 0
2, 38644, Control_c, 0, 64, 0
2, 38650, Note_on_c, 0, 62, 34
2, 38655, Note_on_c, 0, 59, 31
2, 38657, Note_on_c, 0, 54, 36
2, 38689, Note_off_c, 0, 54, 64
2, 38693, Note_off_c, 0, 59, 64
2, 38696, Control_c, 0, 64, 127
2, 38696, Control_c, 0, 64, 127
2, 38701, Note_off_c, 0, 62, 64
2, 38713, Note_off_c, 0, 47, 64
2, 38853, Note_on_c, 0, 62, 36
2, 38861, Note_on_c, 0, 59, 21
2, 38861, Note_on_c, 0, 54, 34
2, 38866, Control_c, 0, 64, 0
2, 38866, Control_c, 0, 64, 0
2, 38904, Note_off_c, 0, 54, 64
2, 38904, Note_off_c, 0, 59, 64
2, 38904, Note_off_c, 0, 62, 64
2, 38909, Control_c, 0, 64, 127
2, 38909, Control_c, 0, 64, 127
2, 39027, Note_on_c, 0, 73, 57
2, 39037, Note_on_c, 0, 37, 56
2, 39057, Control_c, 0, 64, 0
2, 39057, Control_c, 0, 64, 0
2, 39060, Note_off_c, 0, 71, 64
2, 39098, Control_c, 0, 64, 127
2, 39098, Control_c, 0, 64, 127
2, 39127, Note_on_c, 0, 71, 59
2, 39136, Note_off_c, 0, 73, 64
2, 39173, Note_on_c, 0, 69, 54
2, 39179, Note_off_c, 0, 71, 64
2, 39200, Note_on_c, 0, 71, 60
2, 39213, Control_c, 0, 64, 0
2, 39213, Control_c, 0, 64, 0
2, 39220, Note_off_c, 0, 69, 64
2, 39226, Note_on_c, 0, 49, 32
2, 39228, Note_on_c, 0, 53, 24
2, 39232, Note_on_c, 0, 59, 48
2, 39234, Note_on_c, 0, 69, 54
2, 39237, Note_off_c, 0, 37, 64
2, 39247, Note_off_c, 0, 71, 64
2, 39257, Control_c, 0, 64, 127
2, 39257, Control_c, 0, 64, 127
2, 39261, Note_off_c, 0, 53, 64
2, 39276, Note_off_c, 0, 59, 64
2, 39279, Note_off_c, 0, 49, 64
2, 39388, Note_on_c, 0, 68, 57
2, 39395, Note_on_c, 0, 59, 34
2, 39395, Note_on_c, 0, 49, 35
2, 39396, Note_on_c, 0, 53, 24
2, 39404, Note_off_c, 0, 69, 64
2, 39429, Note_off_c, 0, 53, 64
2, 39436, Note_off_c, 0, 59, 64
2, 39439, Note_off_c, 0, 49, 64
2, 39567, Note_on_c, 0, 42, 43
2, 39573, Note_on_c, 0, 69, 48
2, 39583, Note_off_c, 0, 68, 64
2, 39583, Control_c, 0, 64, 0
2, 39583, Control_c, 0, 64, 0
2, 39619, Control_c, 0, 64, 127
2, 39619, Control_c, 0, 64, 127
2, 39660, Note_on_c, 0, 73, 59
2, 39684, Note_off_c, 0, 69, 64
2, 39776, Note_on_c, 0, 49, 39
2, 39784, Note_on_c, 0, 57, 43
2, 39789, Control_c, 0, 64, 0
2, 39789, Control_c, 0, 64, 0
2, 39814, Control_c, 0, 64, 127
2, 39814, Control_c, 0, 64, 127
2, 39825, Note_off_c, 0, 73, 64
2, 39832, Note_off_c, 0, 42, 64
2, 40010, Note_on_c, 0, 61, 68
2, 40035, Note_off_c, 0, 49, 64
2, 40040, Note_off_c, 0, 57, 64
2, 40044, Control_c, 0, 64, 0
2, 40044, Control_c, 0, 64, 0
2, 40088, Control_c, 0, 64, 127
2, 40088, Control_c, 0, 64, 127
2, 40290, Note_on_c, 0, 59, 60
2, 40308, Note_off_c, 0, 61, 64
2, 40368, Note_off_c, 0, 59, 64
2, 40379, Note_on_c, 0, 57, 60
2, 40406, Note_on_c, 0, 59, 68
2, 40419, Note_off_c, 0, 57, 64
2, 40441, Note_on_c, 0, 57, 68
2, 40446, Control_c, 0, 64, 0
2, 40446, Control_c, 0, 64, 0
2, 40456, Note_off_c, 0, 59, 64
2, 40503, Control_c, 0, 64, 127
2, 40503, Control_c, 0, 64, 127
2, 40594, Note_on_c, 0, 56, 75
2, 40616, Note_off_c, 0, 57, 64
2, 40618, Control_c, 0, 64, 0
2, 40618, Control_c, 0, 64, 0
2, 40662, Control_c, 0, 64, 127
2, 40662, Control_c, 0, 64, 127
2, 40821, Note_on_c, 0, 57, 56
2, 40836, Note_off_c, 0, 56, 64
2, 40849, Control_c, 0, 64, 0
2, 40849, Control_c, 0, 64, 0
2, 41083, Control_c, 0, 64, 127
2, 41083, Control_c, 0, 64, 127
2, 41115, Note_on_c, 0, 61, 32
2, 41136, Note_off_c, 0, 57, 64
2, 41502, Note_on_c, 0, 59, 56
2, 41502, Note_on_c, 0, 56, 53
2, 41502, Note_on_c, 0, 49, 53
2, 41515, Note_off_c, 0, 61, 64
2, 41542, Control_c, 0, 64, 0
2, 41542, Control_c, 0, 64, 0
2, 41574, Control_c, 0, 64, 127
2, 41574, Control_c, 0, 64, 127
2, 41684, Note_on_c, 0, 57, 56
2, 41689, Note_on_c, 0, 54, 47
2, 41698, Note_off_c, 0, 56, 64
2, 41698, Control_c, 0, 64, 0
2, 41698, Control_c, 0, 64, 0
2, 41710, Control_c, 0, 64, 127
2, 41710, Control_c, 0, 64, 127
2, 41715, Note_off_c, 0, 59, 64
2, 41780, Note_off_c, 0, 57, 64
2, 41835, Note_on_c, 0, 61, 53
2, 41836, Note_on_c, 0, 57, 57
2, 41843, Note_off_c, 0, 54, 64
2, 41843, Control_c, 0, 64, 0
2, 41843, Control_c, 0, 64, 0
2, 41866, Control_c, 0, 64, 127
2, 41866, Control_c, 0, 64, 127
2, 41901, Note_off_c, 0, 61, 64
2, 41910, Note_off_c, 0, 57, 64
2, 41920, Note_on_c, 0, 59, 54
2, 41948, Note_on_c, 0, 61, 53
2, 41970, Note_off_c, 0, 59, 64
2, 41984, Note_on_c, 0, 59, 54
2, 41985, Note_on_c, 0, 56, 38
2, 41989, Control_c, 0, 64, 0
2, 41989, Control_c, 0, 64, 0
2, 41999, Note_off_c, 0, 61, 64
2, 42034, Note_off_c, 0, 59, 64
2, 42036, Control_c, 0, 64, 127
2, 42036, Control_c, 0, 64, 127
2, 42060, Note_on_c, 0, 54, 27
2, 42067, Note_on_c, 0, 57, 53
2, 42084, Note_off_c, 0, 56, 64
2, 42128, Note_off_c, 0, 57, 64
2, 42130, Note_off_c, 0, 54, 64
2, 42136, Control_c, 0, 64, 0
2, 42136, Control_c, 0, 64, 0
2, 42160, Note_on_c, 0, 61, 60
2, 42160, Note_on_c, 0, 57, 46
2, 42175, Control_c, 0, 64, 127
2, 42175, Control_c, 0, 64, 127
2, 42209, Note_off_c, 0, 57, 64
2, 42212, Note_off_c, 0, 61, 64
2, 42312, Note_off_c, 0, 49, 64
2, 42315, Note_on_c, 0, 61, 58
2, 42318, Note_on_c, 0, 57, 54
2, 42369, Note_off_c, 0, 57, 64
2, 42385, Note_off_c, 0, 61, 64
2, 42424, Note_on_c, 0, 59, 46
2, 42455, Note_on_c, 0, 61, 58
2, 42467, Note_off_c, 0, 59, 64
2, 42484, Note_on_c, 0, 49, 56
2, 42487, Note_on_c, 0, 56, 43
2, 42487, Control_c, 0, 64, 0
2, 42487, Control_c, 0, 64, 0
2, 42496, Note_on_c, 0, 59, 60
2, 42500, Note_off_c, 0, 61, 64
2, 42538, Control_c, 0, 64, 127
2, 42538, Control_c, 0, 64, 127
2, 42643, Note_off_c, 0, 56, 64
2, 42648, Note_on_c, 0, 54, 50
2, 42650, Note_on_c, 0, 58, 60
2, 42659, Control_c, 0, 64, 0
2, 42659, Control_c, 0, 64, 0
2, 42665, Note_off_c, 0, 59, 64
2, 42680, Control_c, 0, 64, 127
2, 42680, Control_c, 0, 64, 127
2, 42759, Note_off_c, 0, 58, 64
2, 42802, Note_on_c, 0, 58, 67
2, 42803, Control_c, 0, 64, 0
2, 42803, Control_c, 0, 64, 0
2, 42808, Note_off_c, 0, 54, 64
2, 42808, Note_on_c, 0, 61, 57
2, 42830, Control_c, 0, 64, 127
2, 42830, Control_c, 0, 64, 127
2, 42856, Note_off_c, 0, 61, 64
2, 42904, Note_off_c, 0, 58, 64
2, 42912, Note_on_c, 0, 59, 58
2, 42948, Note_on_c, 0, 61, 43
2, 42954, Note_off_c, 0, 59, 64
2, 42956, Note_on_c, 0, 56, 43
2, 42971, Note_on_c, 0, 59, 53
2, 42983, Note_off_c, 0, 61, 64
2, 43036, Note_off_c, 0, 49, 64
2, 43052, Note_on_c, 0, 58, 43
2, 43059, Note_on_c, 0, 54, 56
2, 43065, Note_off_c, 0, 59, 64
2, 43072, Note_off_c, 0, 56, 64
2, 43164, Note_on_c, 0, 66, 58
2, 43167, Note_on_c, 0, 42, 67
2, 43178, Control_c, 0, 64, 0
2, 43178, Control_c, 0, 64, 0
2, 43200, Note_off_c, 0, 58, 64
2, 43207, Note_off_c, 0, 54, 64
2, 43234, Control_c, 0, 64, 127
2, 43234, Control_c, 0, 64, 127
2, 43436, Note_off_c, 0, 42, 64
2, 43442, Note_on_c, 0, 78, 57
2, 43454, Note_off_c, 0, 66, 64
2, 43750, Note_on_c, 0, 47, 41
2, 43790, Control_c, 0, 64, 0
2, 43790, Control_c, 0, 64, 0
2, 43825, Control_c, 0, 64, 127
2, 43825, Control_c, 0, 64, 127
2, 43890, Note_on_c, 0, 83, 52
2, 43901, Note_off_c, 0, 78, 64
2, 43950, Note_off_c, 0, 47, 64
2, 44028, Note_on_c, 0, 59, 31
2, 44031, Note_off_c, 0, 83, 64
2, 44034, Note_on_c, 0, 55, 20
2, 44039, Note_on_c, 0, 64, 19
2, 44050, Note_on_c, 0, 79, 46
2, 44065, Control_c, 0, 64, 0
2, 44065, Control_c, 0, 64, 0
2, 44078, Note_on_c, 0, 81, 52
2, 44086, Note_off_c, 0, 79, 64
2, 44092, Note_off_c, 0, 59, 64
2, 44096, Note_off_c, 0, 55, 64
2, 44096, Control_c, 0, 64, 127
2, 44096, Control_c, 0, 64, 127
2, 44110, Note_off_c, 0, 64, 64
2, 44113, Note_on_c, 0, 79, 53
2, 44132, Note_off_c, 0, 81, 64
2, 44198, Note_off_c, 0, 79, 64
2, 44212, Note_on_c, 0, 64, 31
2, 44214, Note_on_c, 0, 78, 42
2, 44214, Note_on_c, 0, 59, 38
2, 44216, Note_on_c, 0, 55, 20
2, 44272, Note_off_c, 0, 55, 64
2, 44274, Note_off_c, 0, 64, 64
2, 44275, Note_off_c, 0, 59, 64
2, 44292, Note_off_c, 0, 78, 64
2, 44294, Note_on_c, 0, 76, 47
2, 44366, Note_on_c, 0, 78, 52
2, 44371, Control_c, 0, 64, 0
2, 44371, Control_c, 0, 64, 0
2, 44376, Note_on_c, 0, 47, 47
2, 44382, Note_off_c, 0, 76, 64
2, 44407, Control_c, 0, 64, 127
2, 44407, Control_c, 0, 64, 127
2, 44433, Note_on_c, 0, 71, 38
2, 44444, Note_off_c, 0, 78, 64
2, 44496, Control_c, 0, 64, 0
2, 44496, Control_c, 0, 64, 0
2, 44519, Note_on_c, 0, 54, 27
2, 44524, Note_on_c, 0, 62, 27
2, 44524, Note_on_c, 0, 59, 20
2, 44548, Control_c, 0, 64, 127
2, 44548, Control_c, 0, 64, 127
2, 44581, Note_off_c, 0, 54, 64
2, 44586, Note_off_c, 0, 59, 64
2, 44586, Note_off_c, 0, 62, 64
2, 44676, Control_c, 0, 64, 0
2, 44676, Control_c, 0, 64, 0
2, 44692, Note_on_c, 0, 59, 20
2, 44698, Note_on_c, 0, 62, 16
2, 44698, Note_on_c, 0, 54, 17
2, 44728, Control_c, 0, 64, 127
2, 44728, Control_c, 0, 64, 127
2, 44746, Note_off_c, 0, 47, 64
2, 44754, Note_off_c, 0, 59, 64
2, 44760, Note_off_c, 0, 54, 64
2, 44760, Note_off_c, 0, 62, 64
2, 44895, Note_on_c, 0, 73, 53
2, 44898, Note_on_c, 0, 47, 52
2, 44986, Note_off_c, 0, 71, 64
2, 44988, Note_on_c, 0, 76, 49
2, 44994, Note_off_c, 0, 73, 64
2, 45048, Control_c, 0, 64, 0
2, 45048, Control_c, 0, 64, 0
2, 45055, Note_off_c, 0, 76, 64
2, 45060, Note_on_c, 0, 64, 16
2, 45063, Note_on_c, 0, 54, 21
2, 45064, Note_on_c, 0, 58, 31
2, 45079, Note_on_c, 0, 74, 57
2, 45101, Control_c, 0, 64, 127
2, 45101, Control_c, 0, 64, 127
2, 45107, Note_on_c, 0, 76, 53
2, 45122, Note_off_c, 0, 64, 64
2, 45125, Note_off_c, 0, 54, 64
2, 45126, Note_off_c, 0, 58, 64
2, 45127, Note_off_c, 0, 74, 64
2, 45133, Note_off_c, 0, 47, 64
2, 45145, Note_on_c, 0, 74, 64
2, 45158, Note_off_c, 0, 76, 64
2, 45214, Note_on_c, 0, 64, 20
2, 45220, Note_on_c, 0, 58, 27
2, 45225, Note_on_c, 0, 54, 21
2, 45229, Note_on_c, 0, 73, 49
2, 45232, Note_off_c, 0, 74, 64
2, 45276, Note_off_c, 0, 64, 64
2, 45282, Note_off_c, 0, 58, 64
2, 45287, Note_off_c, 0, 54, 64
2, 45377, Note_off_c, 0, 73, 64
2, 45395, Note_on_c, 0, 74, 49
2, 45404, Note_on_c, 0, 47, 52
2, 45412, Control_c, 0, 64, 0
2, 45412, Control_c, 0, 64, 0
2, 45441, Note_on_c, 0, 71, 53
2, 45448, Control_c, 0, 64, 127
2, 45448, Control_c, 0, 64, 127
2, 45461, Note_off_c, 0, 74, 64
2, 45560, Note_on_c, 0, 54, 31
2, 45564, Note_on_c, 0, 62, 23
2, 45572, Note_on_c, 0, 59, 21
2, 45576, Control_c, 0, 64, 0
2, 45576, Control_c, 0, 64, 0
2, 45579, Note_off_c, 0, 71, 64
2, 45599, Control_c, 0, 64, 127
2, 45599, Control_c, 0, 64, 127
2, 45604, Note_off_c, 0, 47, 64
2, 45710, Note_off_c, 0, 54, 64
2, 45730, Note_off_c, 0, 59, 64
2, 45739, Note_off_c, 0, 62, 64
2, 45770, Note_on_c, 0, 50, 60
2, 45939, Note_on_c, 0, 65, 32
2, 45953, Note_on_c, 0, 59, 24
2, 45965, Control_c, 0, 64, 0
2, 45965, Control_c, 0, 64, 0
2, 45996, Control_c, 0, 64, 127
2, 45996, Control_c, 0, 64, 127
2, 46027, Note_off_c, 0, 65, 64
2, 46031, Note_on_c, 0, 55, 47
2, 46050, Note_off_c, 0, 59, 64
2, 46060, Note_off_c, 0, 50, 64
2, 46129, Note_on_c, 0, 52, 38
2, 46138, Note_off_c, 0, 55, 64
2, 46138, Note_on_c, 0, 60, 38
2, 46146, Note_on_c, 0, 64, 36
2, 46148, Control_c, 0, 64, 0
2, 46148, Control_c, 0, 64, 0
2, 46173, Note_on_c, 0, 53, 50
2, 46179, Note_off_c, 0, 52, 64
2, 46188, Control_c, 0, 64, 127
2, 46188, Control_c, 0, 64, 127
2, 46198, Note_off_c, 0, 60, 64
2, 46203, Note_off_c, 0, 64, 64
2, 46208, Note_on_c, 0, 52, 46
2, 46233, Note_off_c, 0, 53, 64
2, 46276, Control_c, 0, 64, 0
2, 46276, Control_c, 0, 64, 0
2, 46286, Note_on_c, 0, 60, 38
2, 46294, Note_on_c, 0, 50, 50
2, 46300, Note_on_c, 0, 64, 28
2, 46302, Note_off_c, 0, 52, 64
2, 46327, Control_c, 0, 64, 127
2, 46327, Control_c, 0, 64, 127
2, 46346, Note_off_c, 0, 64, 64
2, 46367, Note_off_c, 0, 50, 64
2, 46374, Note_off_c, 0, 60, 64
2, 46384, Note_on_c, 0, 48, 38
2, 46432, Note_on_c, 0, 55, 15
2, 46440, Note_on_c, 0, 59, 32
2, 46448, Note_on_c, 0, 50, 49
2, 46451, Note_on_c, 0, 65, 30
2, 46453, Note_off_c, 0, 48, 64
2, 46453, Control_c, 0, 64, 0
2, 46453, Control_c, 0, 64, 0
2, 46487, Control_c, 0, 64, 127
2, 46487, Control_c, 0, 64, 127
2, 46509, Note_off_c, 0, 59, 64
2, 46521, Note_off_c, 0, 65, 64
2, 46522, Note_off_c, 0, 55, 64
2, 46564, Note_off_c, 0, 50, 64
2, 46567, Note_on_c, 0, 43, 43
2, 46592, Note_on_c, 0, 55, 30
2, 46593, Note_on_c, 0, 65, 36
2, 46597, Note_on_c, 0, 59, 34
2, 46602, Control_c, 0, 64, 0
2, 46602, Control_c, 0, 64, 0
2, 46608, Note_on_c, 0, 50, 52
2, 46636, Control_c, 0, 64, 127
2, 46636, Control_c, 0, 64, 127
2, 46653, Note_off_c, 0, 43, 64
2, 46659, Note_off_c, 0, 65, 64
2, 46701, Note_off_c, 0, 59, 64
2, 46704, Note_off_c, 0, 55, 64
2, 46743, Note_on_c, 0, 60, 36
2, 46748, Note_off_c, 0, 50, 64
2, 46751, Note_on_c, 0, 64, 35
2, 46751, Note_on_c, 0, 48, 46
2, 46751, Control_c, 0, 64, 0
2, 46751, Control_c, 0, 64, 0
2, 46788, Control_c, 0, 64, 127
2, 46788, Control_c, 0, 64, 127
2, 46801, Note_off_c, 0, 64, 64
2, 46814, Note_off_c, 0, 60, 64
2, 46885, Note_off_c, 0, 48, 64
2, 46891, Note_on_c, 0, 59, 36
2, 46891, Note_on_c, 0, 50, 49
2, 46894, Note_on_c, 0, 65, 31
2, 46900, Control_c, 0, 64, 0
2, 46900, Control_c, 0, 64, 0
2, 46925, Control_c, 0, 64, 127
2, 46925, Control_c, 0, 64, 127
2, 46945, Note_off_c, 0, 65, 64
2, 46947, Note_off_c, 0, 59, 64
2, 46960, Note_on_c, 0, 55, 50
2, 46963, Note_off_c, 0, 50, 64
2, 47027, Note_off_c, 0, 55, 64
2, 47032, Note_on_c, 0, 64, 30
2, 47036, Note_on_c, 0, 60, 24
2, 47036, Note_on_c, 0, 52, 54
2, 47074, Note_on_c, 0, 53, 46
2, 47081, Note_off_c, 0, 52, 64
2, 47089, Note_off_c, 0, 60, 64
2, 47095, Note_off_c, 0, 64, 64
2, 47117, Note_on_c, 0, 52, 46
2, 47134, Note_off_c, 0, 53, 64
2, 47170, Note_on_c, 0, 60, 32
2, 47174, Note_on_c, 0, 64, 30
2, 47174, Note_on_c, 0, 50, 42
2, 47180, Control_c, 0, 64, 0
2, 47180, Control_c, 0, 64, 0
2, 47189, Note_off_c, 0, 52, 64
2, 47205, Control_c, 0, 64, 127
2, 47205, Control_c, 0, 64, 127
2, 47225, Note_off_c, 0, 60, 64
2, 47235, Note_off_c, 0, 64, 64
2, 47245, Note_off_c, 0, 50, 64
2, 47254, Note_on_c, 0, 48, 52
2, 47315, Note_on_c, 0, 50, 53
2, 47316, Control_c, 0, 64, 0
2, 47316, Control_c, 0, 64, 0
2, 47320, Note_on_c, 0, 59, 31
2, 47326, Note_on_c, 0, 65, 27
2, 47327, Note_off_c, 0, 48, 64
2, 47327, Note_on_c, 0, 55, 23
2, 47359, Control_c, 0, 64, 127
2, 47359, Control_c, 0, 64, 127
2, 47380, Note_off_c, 0, 59, 64
2, 47386, Note_off_c, 0, 55, 64
2, 47393, Note_off_c, 0, 65, 64
2, 47415, Note_off_c, 0, 50, 64
2, 47439, Note_on_c, 0, 43, 49
2, 47458, Control_c, 0, 64, 0
2, 47458, Control_c, 0, 64, 0
2, 47463, Note_on_c, 0, 65, 31
2, 47466, Note_on_c, 0, 59, 34
2, 47466, Note_on_c, 0, 55, 24
2, 47483, Note_on_c, 0, 50, 46
2, 47491, Control_c, 0, 64, 127
2, 47491, Control_c, 0, 64, 127
2, 47513, Note_off_c, 0, 65, 64
2, 47525, Note_off_c, 0, 55, 64
2, 47529, Note_off_c, 0, 59, 64
2, 47536, Note_off_c, 0, 43, 64
2, 47616, Note_off_c, 0, 50, 64
2, 47620, Note_on_c, 0, 60, 32
2, 47620, Control_c, 0, 64, 0
2, 47620, Control_c, 0, 64, 0
2, 47628, Note_on_c, 0, 64, 32
2, 47628, Note_on_c, 0, 48, 46
2, 47658, Control_c, 0, 64, 127
2, 47658, Control_c, 0, 64, 127
2, 47690, Note_off_c, 0, 64, 64
2, 47731, Note_off_c, 0, 60, 64
2, 47762, Note_off_c, 0, 48, 64
2, 47765, Note_on_c, 0, 50, 42
2, 47769, Note_on_c, 0, 59, 30
2, 47772, Note_on_c, 0, 65, 30
2, 47778, Note_on_c, 0, 55, 15
2, 47783, Control_c, 0, 64, 0
2, 47783, Control_c, 0, 64, 0
2, 47815, Control_c, 0, 64, 127
2, 47815, Control_c, 0, 64, 127
2, 47835, Note_off_c, 0, 65, 64
2, 47868, Note_off_c, 0, 55, 64
2, 47881, Note_off_c, 0, 59, 64
2, 47884, Note_on_c, 0, 43, 39
2, 47903, Note_off_c, 0, 50, 64
2, 47920, Note_on_c, 0, 64, 30
2, 47920, Note_on_c, 0, 48, 50
2, 47925, Note_on_c, 0, 60, 24
2, 47930, Control_c, 0, 64, 0
2, 47930, Control_c, 0, 64, 0
2, 47952, Control_c, 0, 64, 127
2, 47952, Control_c, 0, 64, 127
2, 47971, Note_off_c, 0, 43, 64
2, 47994, Note_off_c, 0, 64, 64
2, 48076, Note_off_c, 0, 60, 64
2, 48082, Control_c, 0, 64, 0
2, 48082, Control_c, 0, 64, 0
2, 48088, Note_off_c, 0, 48, 64
2, 48088, Note_on_c, 0, 65, 24
2, 48089, Note_on_c, 0, 50, 45
2, 48096, Note_on_c, 0, 59, 24
2, 48096, Note_on_c, 0, 55, 32
2, 48134, Control_c, 0, 64, 127
2, 48134, Control_c, 0, 64, 127
2, 48141, Note_off_c, 0, 65, 64
2, 48211, Note_off_c, 0, 50, 64
2, 48211, Note_on_c, 0, 43, 31
2, 48234, Note_off_c, 0, 55, 64
2, 48239, Note_off_c, 0, 59, 64
2, 48247, Control_c, 0, 64, 0
2, 48247, Control_c, 0, 64, 0
2, 48252, Note_on_c, 0, 64, 17
2, 48254, Note_on_c, 0, 60, 19
2, 48254, Note_on_c, 0, 48, 41
2, 48267, Control_c, 0, 64, 127
2, 48267, Control_c, 0, 64, 127
2, 48315, Note_off_c, 0, 43, 64
2, 48332, Note_off_c, 0, 64, 64
2, 48404, Note_off_c, 0, 48, 64
2, 48406, Note_off_c, 0, 60, 64
2, 48416, Note_on_c, 0, 65, 30
2, 48420, Note_on_c, 0, 55, 23
2, 48420, Note_on_c, 0, 50, 35
2, 48439, Note_on_c, 0, 59, 17
2, 48479, Note_off_c, 0, 65, 64
2, 48557, Note_on_c, 0, 43, 32
2, 48586, Note_off_c, 0, 50, 64
2, 48615, Note_off_c, 0, 59, 64
2, 48616, Note_on_c, 0, 64, 30
2, 48617, Note_off_c, 0, 55, 64
2, 48617, Note_on_c, 0, 48, 30
2, 48624, Note_on_c, 0, 60, 23
2, 48629, Note_off_c, 0, 43, 64
2, 48633, Control_c, 0, 64, 0
2, 48633, Control_c, 0, 64, 0
2, 48646, Control_c, 0, 64, 127
2, 48646, Control_c, 0, 64, 127
2, 48711, Control_c, 0, 64, 0
2, 48711, Control_c, 0, 64, 0
2, 48743, Control_c, 0, 64, 127
2, 48743, Control_c, 0, 64, 127
2, 48767, Control_c, 0, 64, 0
2, 48767, Control_c, 0, 64, 0
2, 48799, Control_c, 0, 64, 127
2, 48799, Control_c, 0, 64, 127
2, 48808, Note_on_c, 0, 43, 46
2, 48810, Note_off_c, 0, 48, 64
2, 48811, Note_off_c, 0, 64, 64
2, 48816, Note_on_c, 0, 55, 30
2, 48817, Note_off_c, 0, 60, 64
2, 48919, Control_c, 0, 64, 0
2, 48919, Control_c, 0, 64, 0
2, 48970, Control_c, 0, 64, 127
2, 48970, Control_c, 0, 64, 127
2, 49804, Note_on_c, 0, 42, 26
2, 49805, Note_on_c, 0, 54, 24
2, 49814, Note_off_c, 0, 43, 64
2, 49822, Note_off_c, 0, 55, 64
2, 50462, Note_off_c, 0, 42, 64
2, 50463, Note_off_c, 0, 54, 64
2, 50495, Note_on_c, 0, 35, 52
2, 50507, Note_on_c, 0, 47, 32
2, 50544, Note_on_c, 0, 78, 57
2, 50560, Control_c, 0, 64, 0
2, 50560, Control_c, 0, 64, 0
2, 50605, Control_c, 0, 64, 127
2, 50605, Control_c, 0, 64, 127
2, 50659, Note_on_c, 0, 83, 57
2, 50673, Note_off_c, 0, 78, 64
2, 50695, Note_off_c, 0, 35, 64
2, 50707, Note_off_c, 0, 47, 64
2, 50772, Note_on_c, 0, 64, 30
2, 50779, Note_on_c, 0, 59, 46
2, 50779, Note_on_c, 0, 55, 32
2, 50795, Note_on_c, 0, 79, 47
2, 50798, Note_off_c, 0, 83, 64
2, 50808, Control_c, 0, 64, 0
2, 50808, Control_c, 0, 64, 0
2, 50818, Note_on_c, 0, 81, 52
2, 50820, Control_c, 0, 64, 127
2, 50820, Control_c, 0, 64, 127
2, 50831, Note_off_c, 0, 55, 64
2, 50838, Note_off_c, 0, 59, 64
2, 50843, Note_off_c, 0, 79, 64
2, 50843, Note_off_c, 0, 64, 64
2, 50856, Note_on_c, 0, 79, 46
2, 50873, Note_off_c, 0, 81, 64
2, 50933, Note_off_c, 0, 79, 64
2, 50937, Note_on_c, 0, 78, 46
2, 50942, Note_on_c, 0, 64, 47
2, 50950, Note_on_c, 0, 55, 43
2, 50954, Note_on_c, 0, 59, 32
2, 50969, Note_off_c, 0, 59, 64
2, 50975, Note_off_c, 0, 55, 64
2, 50977, Note_off_c, 0, 64, 64
2, 51017, Note_off_c, 0, 78, 64
2, 51022, Note_on_c, 0, 76, 47
2, 51108, Note_on_c, 0, 78, 52
2, 51113, Control_c, 0, 64, 0
2, 51113, Control_c, 0, 64, 0
2, 51119, Note_on_c, 0, 47, 56
2, 51121, Note_off_c, 0, 76, 64
2, 51139, Control_c, 0, 64, 127
2, 51139, Control_c, 0, 64, 127
2, 51164, Note_on_c, 0, 71, 42
2, 51172, Note_off_c, 0, 78, 64
2, 51228, Control_c, 0, 64, 0
2, 51228, Control_c, 0, 64, 0
2, 51247, Note_on_c, 0, 62, 38
2, 51251, Note_on_c, 0, 59, 32
2, 51256, Note_on_c, 0, 54, 34
2, 51280, Note_off_c, 0, 59, 64
2, 51281, Note_off_c, 0, 54, 64
2, 51283, Note_off_c, 0, 62, 64
2, 51319, Note_off_c, 0, 47, 64
2, 51456, Note_on_c, 0, 62, 32
2, 51460, Note_on_c, 0, 59, 32
2, 51460, Note_on_c, 0, 54, 31
2, 51468, Control_c, 0, 64, 127
2, 51468, Control_c, 0, 64, 127
2, 51500, Note_off_c, 0, 59, 64
2, 51503, Note_off_c, 0, 54, 64
2, 51510, Note_off_c, 0, 62, 64
2, 51630, Control_c, 0, 64, 0
2, 51630, Control_c, 0, 64, 0
2, 51640, Note_on_c, 0, 47, 49
2, 51642, Note_on_c, 0, 73, 53
2, 51679, Control_c, 0, 64, 127
2, 51679, Control_c, 0, 64, 127
2, 51695, Note_off_c, 0, 71, 64
2, 51749, Note_on_c, 0, 76, 50
2, 51754, Note_off_c, 0, 73, 64
2, 51798, Control_c, 0, 64, 0
2, 51798, Control_c, 0, 64, 0
2, 51809, Note_on_c, 0, 54, 31
2, 51816, Note_on_c, 0, 64, 46
2, 51820, Note_on_c, 0, 58, 38
2, 51830, Note_off_c, 0, 76, 64
2, 51833, Note_on_c, 0, 74, 47
2, 51840, Note_off_c, 0, 47, 64
2, 51842, Control_c, 0, 64, 127
2, 51842, Control_c, 0, 64, 127
2, 51862, Note_on_c, 0, 76, 53
2, 51869, Note_off_c, 0, 58, 64
2, 51869, Note_off_c, 0, 64, 64
2, 51870, Note_off_c, 0, 54, 64
2, 51873, Note_off_c, 0, 74, 64
2, 51898, Note_on_c, 0, 74, 58
2, 51915, Note_off_c, 0, 76, 64
2, 51945, Control_c, 0, 64, 0
2, 51945, Control_c, 0, 64, 0
2, 51960, Note_on_c, 0, 73, 46
2, 51964, Note_off_c, 0, 74, 64
2, 51965, Note_on_c, 0, 58, 42
2, 51972, Note_on_c, 0, 64, 31
2, 51972, Note_on_c, 0, 54, 26
2, 51989, Control_c, 0, 64, 127
2, 51989, Control_c, 0, 64, 127
2, 51997, Note_off_c, 0, 54, 64
2, 51997, Note_off_c, 0, 64, 64
2, 52000, Note_off_c, 0, 58, 64
2, 52105, Note_off_c, 0, 73, 64
2, 52112, Note_on_c, 0, 74, 49
2, 52124, Note_on_c, 0, 47, 50
2, 52132, Control_c, 0, 64, 0
2, 52132, Control_c, 0, 64, 0
2, 52165, Control_c, 0, 64, 127
2, 52165, Control_c, 0, 64, 127
2, 52170, Note_on_c, 0, 71, 50
2, 52184, Note_off_c, 0, 74, 64
2, 52249, Control_c, 0, 64, 0
2, 52249, Control_c, 0, 64, 0
2, 52260, Note_on_c, 0, 62, 42
2, 52270, Note_on_c, 0, 59, 26
2, 52270, Note_on_c, 0, 54, 30
2, 52307, Note_off_c, 0, 59, 64
2, 52308, Note_off_c, 0, 54, 64
2, 52309, Control_c, 0, 64, 127
2, 52309, Control_c, 0, 64, 127
2, 52318, Note_off_c, 0, 62, 64
2, 52324, Note_off_c, 0, 47, 64
2, 52466, Note_on_c, 0, 59, 20
2, 52469, Control_c, 0, 64, 0
2, 52469, Control_c, 0, 64, 0
2, 52476, Note_on_c, 0, 62, 24
2, 52476, Note_on_c, 0, 54, 23
2, 52505, Control_c, 0, 64, 127
2, 52505, Control_c, 0, 64, 127
2, 52520, Note_off_c, 0, 59, 64
2, 52525, Note_off_c, 0, 62, 64
2, 52533, Note_off_c, 0, 54, 64
2, 52655, Note_on_c, 0, 73, 52
2, 52667, Note_on_c, 0, 37, 49
2, 52680, Control_c, 0, 64, 0
2, 52680, Control_c, 0, 64, 0
2, 52694, Note_off_c, 0, 71, 64
2, 52726, Control_c, 0, 64, 127
2, 52726, Control_c, 0, 64, 127
2, 52767, Note_on_c, 0, 71, 46
2, 52782, Note_off_c, 0, 73, 64
2, 52819, Note_off_c, 0, 71, 64
2, 52822, Note_on_c, 0, 69, 31
2, 52841, Note_on_c, 0, 71, 52
2, 52851, Control_c, 0, 64, 0
2, 52851, Control_c, 0, 64, 0
2, 52854, Note_off_c, 0, 69, 64
2, 52856, Note_on_c, 0, 53, 39
2, 52864, Note_on_c, 0, 49, 42
2, 52867, Note_off_c, 0, 37, 64
2, 52871, Note_on_c, 0, 59, 32
2, 52875, Note_on_c, 0, 69, 47
2, 52887, Note_off_c, 0, 71, 64
2, 52895, Note_off_c, 0, 53, 64
2, 52906, Control_c, 0, 64, 127
2, 52906, Control_c, 0, 64, 127
2, 52914, Note_off_c, 0, 49, 64
2, 52917, Note_off_c, 0, 59, 64
2, 53033, Note_on_c, 0, 68, 52
2, 53040, Note_on_c, 0, 49, 34
2, 53042, Note_on_c, 0, 59, 38
2, 53042, Note_on_c, 0, 53, 39
2, 53064, Note_off_c, 0, 69, 64
2, 53081, Note_off_c, 0, 53, 64
2, 53083, Note_off_c, 0, 59, 64
2, 53093, Note_off_c, 0, 49, 64
2, 53223, Note_on_c, 0, 69, 50
2, 53231, Note_on_c, 0, 42, 49
2, 53233, Note_off_c, 0, 68, 64
2, 53238, Control_c, 0, 64, 0
2, 53238, Control_c, 0, 64, 0
2, 53244, Control_c, 0, 64, 0
2, 53244, Control_c, 0, 64, 0
2, 53269, Control_c, 0, 64, 127
2, 53269, Control_c, 0, 64, 127
2, 53299, Note_on_c, 0, 73, 52
2, 53326, Note_off_c, 0, 69, 64
2, 53381, Note_off_c, 0, 42, 64
2, 53417, Note_on_c, 0, 49, 32
2, 53425, Note_on_c, 0, 57, 31
2, 53435, Control_c, 0, 64, 0
2, 53435, Control_c, 0, 64, 0
2, 53467, Control_c, 0, 64, 127
2, 53467, Control_c, 0, 64, 127
2, 53495, Note_off_c, 0, 73, 64
2, 53668, Note_on_c, 0, 61, 58
2, 53708, Note_off_c, 0, 57, 64
2, 53708, Control_c, 0, 64, 0
2, 53708, Control_c, 0, 64, 0
2, 53722, Note_off_c, 0, 49, 64
2, 53752, Control_c, 0, 64, 127
2, 53752, Control_c, 0, 64, 127
2, 53970, Note_on_c, 0, 59, 47
2, 53980, Note_off_c, 0, 61, 64
2, 54046, Note_off_c, 0, 59, 64
2, 54058, Note_on_c, 0, 57, 49
2, 54086, Note_on_c, 0, 59, 53
2, 54099, Note_off_c, 0, 57, 64
2, 54120, Note_on_c, 0, 57, 52
2, 54132, Control_c, 0, 64, 0
2, 54132, Control_c, 0, 64, 0
2, 54138, Note_off_c, 0, 59, 64
2, 54186, Control_c, 0, 64, 127
2, 54186, Control_c, 0, 64, 127
2, 54275, Note_on_c, 0, 56, 56
2, 54288, Note_off_c, 0, 57, 64
2, 54302, Control_c, 0, 64, 0
2, 54302, Control_c, 0, 64, 0
2, 54325, Control_c, 0, 64, 127
2, 54325, Control_c, 0, 64, 127
2, 54446, Note_on_c, 0, 57, 56
2, 54454, Note_off_c, 0, 56, 64
2, 54454, Control_c, 0, 64, 0
2, 54454, Control_c, 0, 64, 0
2, 54622, Note_on_c, 0, 61, 52
2, 54639, Note_off_c, 0, 57, 64
2, 54683, Control_c, 0, 64, 127
2, 54683, Control_c, 0, 64, 127
2, 55051, Note_off_c, 0, 61, 64
2, 55053, Note_on_c, 0, 59, 46
2, 55053, Note_on_c, 0, 49, 38
2, 55057, Note_on_c, 0, 56, 39
2, 55078, Control_c, 0, 64, 0
2, 55078, Control_c, 0, 64, 0
2, 55134, Control_c, 0, 64, 127
2, 55134, Control_c, 0, 64, 127
2, 55227, Control_c, 0, 64, 0
2, 55227, Control_c, 0, 64, 0
2, 55241, Note_on_c, 0, 57, 38
2, 55241, Note_on_c, 0, 54, 43
2, 55249, Note_off_c, 0, 56, 64
2, 55263, Note_off_c, 0, 59, 64
2, 55326, Control_c, 0, 64, 127
2, 55326, Control_c, 0, 64, 127
2, 55391, Note_off_c, 0, 57, 64
2, 55398, Note_on_c, 0, 61, 38
2, 55415, Note_on_c, 0, 57, 49
2, 55421, Note_off_c, 0, 54, 64
2, 55469, Note_off_c, 0, 57, 64
2, 55475, Note_off_c, 0, 61, 64
2, 55519, Note_on_c, 0, 59, 31
2, 55546, Note_on_c, 0, 61, 58
2, 55567, Note_off_c, 0, 59, 64
2, 55586, Note_on_c, 0, 59, 50
2, 55586, Note_on_c, 0, 56, 45
2, 55592, Control_c, 0, 64, 0
2, 55592, Control_c, 0, 64, 0
2, 55602, Note_off_c, 0, 61, 64
2, 55648, Control_c, 0, 64, 127
2, 55648, Control_c, 0, 64, 127
2, 55663, Note_on_c, 0, 57, 46
2, 55668, Note_off_c, 0, 56, 64
2, 55672, Note_off_c, 0, 59, 64
2, 55679, Note_on_c, 0, 54, 38
2, 55696, Control_c, 0, 64, 0
2, 55696, Control_c, 0, 64, 0
2, 55727, Note_off_c, 0, 57, 64
2, 55734, Note_on_c, 0, 61, 58
2, 55746, Note_off_c, 0, 54, 64
2, 55752, Note_on_c, 0, 57, 46
2, 55777, Control_c, 0, 64, 127
2, 55777, Control_c, 0, 64, 127
2, 55797, Note_off_c, 0, 61, 64
2, 55800, Note_off_c, 0, 57, 64
2, 55927, Note_on_c, 0, 57, 46
2, 55928, Note_on_c, 0, 61, 46
2, 55940, Control_c, 0, 64, 0
2, 55940, Control_c, 0, 64, 0
2, 55960, Control_c, 0, 64, 127
2, 55960, Control_c, 0, 64, 127
2, 55983, Note_off_c, 0, 49, 64
2, 55995, Note_off_c, 0, 57, 64
2, 56011, Note_off_c, 0, 61, 64
2, 56052, Note_on_c, 0, 59, 41
2, 56079, Note_on_c, 0, 61, 58
2, 56093, Note_off_c, 0, 59, 64
2, 56112, Note_on_c, 0, 59, 53
2, 56112, Note_on_c, 0, 49, 46
2, 56121, Note_on_c, 0, 56, 42
2, 56127, Note_off_c, 0, 61, 64
2, 56136, Control_c, 0, 64, 0
2, 56136, Control_c, 0, 64, 0
2, 56170, Control_c, 0, 64, 127
2, 56170, Control_c, 0, 64, 127
2, 56270, Note_off_c, 0, 56, 64
2, 56270, Note_on_c, 0, 58, 58
2, 56277, Note_off_c, 0, 59, 64
2, 56277, Note_on_c, 0, 54, 46
2, 56291, Control_c, 0, 64, 0
2, 56291, Control_c, 0, 64, 0
2, 56311, Control_c, 0, 64, 127
2, 56311, Control_c, 0, 64, 127
2, 56376, Note_off_c, 0, 58, 64
2, 56419, Note_off_c, 0, 54, 64
2, 56428, Note_on_c, 0, 58, 58
2, 56430, Note_on_c, 0, 61, 53
2, 56442, Control_c, 0, 64, 0
2, 56442, Control_c, 0, 64, 0
2, 56456, Control_c, 0, 64, 127
2, 56456, Control_c, 0, 64, 127
2, 56483, Note_off_c, 0, 61, 64
2, 56490, Note_off_c, 0, 58, 64
2, 56525, Note_on_c, 0, 59, 38
2, 56550, Note_on_c, 0, 61, 53
2, 56559, Note_off_c, 0, 59, 64
2, 56566, Control_c, 0, 64, 0
2, 56566, Control_c, 0, 64, 0
2, 56585, Note_on_c, 0, 56, 46
2, 56588, Note_on_c, 0, 59, 57
2, 56596, Note_off_c, 0, 61, 64
2, 56612, Control_c, 0, 64, 127
2, 56612, Control_c, 0, 64, 127
2, 56673, Note_off_c, 0, 49, 64
2, 56686, Note_on_c, 0, 58, 61
2, 56693, Note_on_c, 0, 54, 49
2, 56697, Note_off_c, 0, 59, 64
2, 56700, Note_off_c, 0, 56, 64
2, 56804, Note_on_c, 0, 42, 53
2, 56814, Note_on_c, 0, 66, 56
2, 56843, Control_c, 0, 64, 0
2, 56843, Control_c, 0, 64, 0
2, 56864, Note_off_c, 0, 58, 64
2, 56871, Note_off_c, 0, 54, 64
2, 56887, Control_c, 0, 64, 127
2, 56887, Control_c, 0, 64, 127
2, 57152, Note_on_c, 0, 78, 57
2, 57160, Note_off_c, 0, 42, 64
2, 57287, Note_off_c, 0, 66, 64
2, 57445, Note_on_c, 0, 47, 38
2, 57472, Control_c, 0, 64, 0
2, 57472, Control_c, 0, 64, 0
2, 57515, Control_c, 0, 64, 127
2, 57515, Control_c, 0, 64, 127
2, 57576, Note_on_c, 0, 83, 49
2, 57590, Note_off_c, 0, 78, 64
2, 57645, Note_off_c, 0, 47, 64
2, 57701, Note_on_c, 0, 64, 20
2, 57708, Note_on_c, 0, 59, 41
2, 57715, Note_on_c, 0, 55, 1
2, 57723, Note_off_c, 0, 83, 64
2, 57727, Note_on_c, 0, 79, 51
2, 57732, Control_c, 0, 64, 0
2, 57732, Control_c, 0, 64, 0
2, 57750, Note_on_c, 0, 81, 56
2, 57757, Note_off_c, 0, 59, 64
2, 57758, Note_off_c, 0, 55, 64
2, 57760, Note_off_c, 0, 79, 64
2, 57769, Control_c, 0, 64, 127
2, 57769, Control_c, 0, 64, 127
2, 57776, Note_off_c, 0, 64, 64
2, 57791, Note_on_c, 0, 79, 52
2, 57810, Note_off_c, 0, 81, 64
2, 57871, Note_off_c, 0, 79, 64
2, 57878, Note_on_c, 0, 64, 41
2, 57884, Note_on_c, 0, 78, 42
2, 57888, Note_on_c, 0, 59, 36
2, 57888, Note_on_c, 0, 55, 27
2, 57902, Note_off_c, 0, 59, 64
2, 57906, Note_off_c, 0, 55, 64
2, 57911, Note_off_c, 0, 64, 64
2, 57970, Note_off_c, 0, 78, 64
2, 57970, Note_on_c, 0, 76, 52
2, 58060, Note_on_c, 0, 78, 56
2, 58062, Note_on_c, 0, 47, 46
2, 58070, Control_c, 0, 64, 0
2, 58070, Control_c, 0, 64, 0
2, 58079, Note_off_c, 0, 76, 64
2, 58103, Note_on_c, 0, 71, 52
2, 58108, Control_c, 0, 64, 127
2, 58108, Control_c, 0, 64, 127
2, 58117, Note_off_c, 0, 78, 64
2, 58154, Control_c, 0, 64, 0
2, 58154, Control_c, 0, 64, 0
2, 58191, Note_on_c, 0, 62, 50
2, 58200, Note_on_c, 0, 59, 36
2, 58206, Note_on_c, 0, 54, 30
2, 58228, Note_off_c, 0, 62, 64
2, 58232, Note_off_c, 0, 59, 64
2, 58243, Note_off_c, 0, 54, 64
2, 58262, Note_off_c, 0, 47, 64
2, 58385, Note_on_c, 0, 62, 42
2, 58391, Note_on_c, 0, 59, 31
2, 58395, Note_on_c, 0, 54, 34
2, 58405, Control_c, 0, 64, 127
2, 58405, Control_c, 0, 64, 127
2, 58431, Note_off_c, 0, 59, 64
2, 58438, Note_off_c, 0, 62, 64
2, 58441, Note_off_c, 0, 54, 64
2, 58562, Note_on_c, 0, 73, 52
2, 58566, Note_on_c, 0, 47, 50
2, 58575, Control_c, 0, 64, 0
2, 58575, Control_c, 0, 64, 0
2, 58587, Note_off_c, 0, 71, 64
2, 58597, Control_c, 0, 64, 127
2, 58597, Control_c, 0, 64, 127
2, 58669, Note_on_c, 0, 76, 26
2, 58674, Note_off_c, 0, 73, 64
2, 58732, Note_on_c, 0, 54, 26
2, 58736, Note_on_c, 0, 58, 49
2, 58743, Note_on_c, 0, 64, 24
2, 58756, Control_c, 0, 64, 0
2, 58756, Control_c, 0, 64, 0
2, 58760, Note_off_c, 0, 76, 64
2, 58761, Note_on_c, 0, 74, 44
2, 58766, Note_off_c, 0, 47, 64
2, 58778, Note_off_c, 0, 54, 64
2, 58781, Note_on_c, 0, 76, 51
2, 58787, Note_off_c, 0, 58, 64
2, 58794, Note_off_c, 0, 64, 64
2, 58804, Note_off_c, 0, 74, 64
2, 58820, Note_on_c, 0, 74, 52
2, 58824, Control_c, 0, 64, 127
2, 58824, Control_c, 0, 64, 127
2, 58840, Note_off_c, 0, 76, 64
2, 58848, Control_c, 0, 64, 0
2, 58848, Control_c, 0, 64, 0
2, 58872, Control_c, 0, 64, 127
2, 58872, Control_c, 0, 64, 127
2, 58881, Note_on_c, 0, 54, 30
2, 58889, Note_on_c, 0, 64, 30
2, 58893, Note_on_c, 0, 73, 46
2, 58897, Note_on_c, 0, 58, 32
2, 58909, Note_off_c, 0, 74, 64
2, 58911, Note_off_c, 0, 58, 64
2, 58911, Note_off_c, 0, 64, 64
2, 58911, Note_off_c, 0, 54, 64
2, 59052, Note_on_c, 0, 74, 47
2, 59053, Note_on_c, 0, 47, 52
2, 59065, Note_off_c, 0, 73, 64
2, 59065, Control_c, 0, 64, 0
2, 59065, Control_c, 0, 64, 0
2, 59092, Note_on_c, 0, 71, 61
2, 59105, Control_c, 0, 64, 127
2, 59105, Control_c, 0, 64, 127
2, 59116, Note_off_c, 0, 74, 64
2, 59207, Control_c, 0, 64, 0
2, 59207, Control_c, 0, 64, 0
2, 59210, Note_on_c, 0, 54, 31
2, 59218, Note_on_c, 0, 62, 30
2, 59220, Note_on_c, 0, 59, 31
2, 59239, Control_c, 0, 64, 127
2, 59239, Control_c, 0, 64, 127
2, 59252, Note_off_c, 0, 71, 64
2, 59253, Note_off_c, 0, 47, 64
2, 59372, Note_off_c, 0, 54, 64
2, 59397, Note_off_c, 0, 59, 64
2, 59401, Note_off_c, 0, 62, 64
2, 59439, Note_on_c, 0, 50, 61
2, 59668, Note_on_c, 0, 59, 26
2, 59672, Note_on_c, 0, 65, 19
2, 59696, Control_c, 0, 64, 0
2, 59696, Control_c, 0, 64, 0
2, 59742, Control_c, 0, 64, 127
2, 59742, Control_c, 0, 64, 127
2, 59787, Note_on_c, 0, 55, 45
2, 59801, Note_off_c, 0, 59, 64
2, 59802, Note_off_c, 0, 65, 64
2, 59822, Note_off_c, 0, 50, 64
2, 59913, Note_on_c, 0, 52, 38
2, 59920, Note_on_c, 0, 64, 34
2, 59925, Note_on_c, 0, 60, 30
2, 59930, Note_off_c, 0, 55, 64
2, 59940, Control_c, 0, 64, 0
2, 59940, Control_c, 0, 64, 0
2, 59966, Note_on_c, 0, 53, 50
2, 59973, Note_off_c, 0, 52, 64
2, 59975, Control_c, 0, 64, 127
2, 59975, Control_c, 0, 64, 127
2, 59982, Note_off_c, 0, 60, 64
2, 59984, Note_off_c, 0, 64, 64
2, 60008, Note_on_c, 0, 52, 38
2, 60018, Note_off_c, 0, 53, 64
2, 60068, Note_off_c, 0, 52, 64
2, 60074, Note_on_c, 0, 60, 32
2, 60075, Control_c, 0, 64, 0
2, 60075, Control_c, 0, 64, 0
2, 60083, Note_on_c, 0, 64, 26
2, 60083, Note_on_c, 0, 50, 38
2, 60124, Control_c, 0, 64, 127
2, 60124, Control_c, 0, 64, 127
2, 60139, Note_off_c, 0, 64, 64
2, 60147, Note_off_c, 0, 60, 64
2, 60149, Note_off_c, 0, 50, 64
2, 60162, Note_on_c, 0, 48, 38
2, 60237, Note_off_c, 0, 48, 64
2, 60240, Note_on_c, 0, 50, 50
2, 60242, Note_on_c, 0, 55, 24
2, 60250, Control_c, 0, 64, 0
2, 60250, Control_c, 0, 64, 0
2, 60255, Note_on_c, 0, 65, 36
2, 60255, Note_on_c, 0, 59, 30
2, 60288, Control_c, 0, 64, 127
2, 60288, Control_c, 0, 64, 127
2, 60314, Note_off_c, 0, 59, 64
2, 60314, Note_off_c, 0, 65, 64
2, 60318, Note_off_c, 0, 55, 64
2, 60339, Note_off_c, 0, 50, 64
2, 60345, Note_on_c, 0, 43, 43
2, 60398, Note_on_c, 0, 59, 34
2, 60399, Note_on_c, 0, 50, 49
2, 60403, Control_c, 0, 64, 0
2, 60403, Control_c, 0, 64, 0
2, 60411, Note_on_c, 0, 65, 20
2, 60411, Note_on_c, 0, 55, 19
2, 60435, Control_c, 0, 64, 127
2, 60435, Control_c, 0, 64, 127
2, 60445, Note_off_c, 0, 43, 64
2, 60483, Note_off_c, 0, 65, 64
2, 60489, Note_off_c, 0, 59, 64
2, 60503, Note_off_c, 0, 55, 64
2, 60542, Note_off_c, 0, 50, 64
2, 60542, Note_on_c, 0, 48, 46
2, 60556, Note_on_c, 0, 60, 24
2, 60560, Note_on_c, 0, 64, 36
2, 60561, Control_c, 0, 64, 0
2, 60561, Control_c, 0, 64, 0
2, 60586, Control_c, 0, 64, 127
2, 60586, Control_c, 0, 64, 127
2, 60610, Note_off_c, 0, 64, 64
2, 60641, Note_off_c, 0, 60, 64
2, 60697, Note_on_c, 0, 65, 26
2, 60699, Note_on_c, 0, 59, 34
2, 60702, Note_on_c, 0, 50, 42
2, 60705, Note_off_c, 0, 48, 64
2, 60754, Note_off_c, 0, 65, 64
2, 60760, Note_off_c, 0, 59, 64
2, 60776, Note_on_c, 0, 55, 50
2, 60778, Note_off_c, 0, 50, 64
2, 60840, Note_on_c, 0, 64, 35
2, 60847, Note_on_c, 0, 60, 36
2, 60847, Control_c, 0, 64, 0
2, 60847, Control_c, 0, 64, 0
2, 60852, Note_on_c, 0, 52, 49
2, 60868, Note_off_c, 0, 55, 64
2, 60875, Control_c, 0, 64, 127
2, 60875, Control_c, 0, 64, 127
2, 60905, Note_off_c, 0, 60, 64
2, 60905, Note_off_c, 0, 64, 64
2, 60918, Note_on_c, 0, 53, 52
2, 60921, Note_off_c, 0, 52, 64
2, 60948, Note_on_c, 0, 52, 45
2, 60971, Note_off_c, 0, 53, 64
2, 60988, Note_on_c, 0, 60, 34
2, 60988, Control_c, 0, 64, 0
2, 60988, Control_c, 0, 64, 0
2, 60996, Note_on_c, 0, 64, 27
2, 61020, Note_on_c, 0, 50, 39
2, 61027, Control_c, 0, 64, 127
2, 61027, Control_c, 0, 64, 127
2, 61028, Note_off_c, 0, 52, 64
2, 61049, Note_off_c, 0, 64, 64
2, 61071, Note_off_c, 0, 60, 64
2, 61101, Note_off_c, 0, 50, 64
2, 61102, Note_on_c, 0, 48, 52
2, 61145, Control_c, 0, 64, 0
2, 61145, Control_c, 0, 64, 0
2, 61148, Note_on_c, 0, 59, 23
2, 61152, Note_on_c, 0, 55, 15
2, 61154, Note_on_c, 0, 65, 17
2, 61157, Note_on_c, 0, 50, 46
2, 61171, Note_off_c, 0, 48, 64
2, 61187, Control_c, 0, 64, 127
2, 61187, Control_c, 0, 64, 127
2, 61218, Note_off_c, 0, 55, 64
2, 61232, Note_off_c, 0, 65, 64
2, 61244, Note_off_c, 0, 59, 64
2, 61263, Note_off_c, 0, 50, 64
2, 61276, Note_on_c, 0, 43, 49
2, 61307, Control_c, 0, 64, 0
2, 61307, Control_c, 0, 64, 0
2, 61316, Note_on_c, 0, 55, 15
2, 61319, Note_on_c, 0, 50, 50
2, 61323, Note_on_c, 0, 65, 30
2, 61323, Note_on_c, 0, 59, 24
2, 61337, Control_c, 0, 64, 127
2, 61337, Control_c, 0, 64, 127
2, 61337, Control_c, 0, 64, 0
2, 61337, Control_c, 0, 64, 0
2, 61340, Note_on_c, 0, 59, 23
2, 61346, Note_on_c, 0, 65, 17
2, 61364, Note_off_c, 0, 43, 64
2, 61370, Note_off_c, 0, 65, 64
2, 61382, Note_off_c, 0, 55, 64
2, 61384, Note_off_c, 0, 59, 64
2, 61424, Note_off_c, 0, 65, 64
2, 61436, Note_off_c, 0, 59, 64
2, 61444, Note_off_c, 0, 50, 64
2, 61468, Control_c, 0, 64, 0
2, 61468, Control_c, 0, 64, 0
2, 61471, Note_on_c, 0, 48, 49
2, 61479, Note_on_c, 0, 64, 26
2, 61479, Note_on_c, 0, 60, 27
2, 61518, Control_c, 0, 64, 127
2, 61518, Control_c, 0, 64, 127
2, 61546, Note_off_c, 0, 64, 64
2, 61615, Note_off_c, 0, 60, 64
2, 61622, Note_on_c, 0, 50, 49
2, 61628, Note_on_c, 0, 55, 15
2, 61630, Note_off_c, 0, 48, 64
2, 61632, Note_on_c, 0, 65, 21
2, 61632, Note_on_c, 0, 59, 23
2, 61645, Control_c, 0, 64, 0
2, 61645, Control_c, 0, 64, 0
2, 61645, Control_c, 0, 64, 0
2, 61645, Control_c, 0, 64, 0
2, 61648, Note_on_c, 0, 59, 23
2, 61654, Note_on_c, 0, 65, 17
2, 61657, Note_on_c, 0, 50, 46
2, 61669, Control_c, 0, 64, 127
2, 61669, Control_c, 0, 64, 127
2, 61693, Note_off_c, 0, 65, 64
2, 61694, Note_off_c, 0, 55, 64
2, 61732, Note_off_c, 0, 65, 64
2, 61744, Note_off_c, 0, 59, 64
2, 61756, Note_on_c, 0, 43, 38
2, 61763, Note_off_c, 0, 50, 64
2, 61772, Note_off_c, 0, 50, 64
2, 61782, Note_off_c, 0, 59, 64
2, 61785, Note_on_c, 0, 48, 49
2, 61791, Control_c, 0, 64, 0
2, 61791, Control_c, 0, 64, 0
2, 61798, Note_on_c, 0, 64, 24
2, 61798, Note_on_c, 0, 60, 23
2, 61838, Control_c, 0, 64, 127
2, 61838, Control_c, 0, 64, 127
2, 61844, Note_off_c, 0, 43, 64
2, 61866, Note_off_c, 0, 64, 64
2, 61947, Note_on_c, 0, 59, 30
2, 61951, Note_on_c, 0, 50, 46
2, 61957, Note_off_c, 0, 60, 64
2, 61957, Note_off_c, 0, 48, 64
2, 61957, Note_on_c, 0, 65, 31
2, 61963, Note_on_c, 0, 55, 15
2, 61975, Control_c, 0, 64, 0
2, 61975, Control_c, 0, 64, 0
2, 62018, Control_c, 0, 64, 127
2, 62018, Control_c, 0, 64, 127
2, 62040, Note_off_c, 0, 65, 64
2, 62090, Note_on_c, 0, 43, 45
2, 62101, Note_off_c, 0, 50, 64
2, 62128, Note_on_c, 0, 64, 32
2, 62137, Note_on_c, 0, 60, 23
2, 62143, Note_off_c, 0, 59, 64
2, 62143, Note_on_c, 0, 48, 43
2, 62155, Note_off_c, 0, 55, 64
2, 62159, Control_c, 0, 64, 0
2, 62159, Control_c, 0, 64, 0
2, 62182, Note_off_c, 0, 43, 64
2, 62182, Control_c, 0, 64, 127
2, 62182, Control_c, 0, 64, 127
2, 62230, Note_off_c, 0, 64, 64
2, 62319, Note_off_c, 0, 48, 64
2, 62325, Note_off_c, 0, 60, 64
2, 62328, Note_on_c, 0, 59, 23
2, 62328, Note_on_c, 0, 55, 1
2, 62328, Note_on_c, 0, 50, 42
2, 62329, Note_on_c, 0, 65, 20
2, 62365, Control_c, 0, 64, 0
2, 62365, Control_c, 0, 64, 0
2, 62388, Control_c, 0, 64, 127
2, 62388, Control_c, 0, 64, 127
2, 62410, Note_off_c, 0, 65, 64
2, 62424, Note_off_c, 0, 50, 64
2, 62486, Note_on_c, 0, 43, 32
2, 62490, Note_off_c, 0, 55, 64
2, 62531, Note_on_c, 0, 64, 23
2, 62535, Note_on_c, 0, 60, 20
2, 62540, Note_off_c, 0, 59, 64
2, 62544, Note_on_c, 0, 48, 34
2, 62567, Note_off_c, 0, 43, 64
2, 62705, Note_off_c, 0, 48, 64
2, 62724, Note_off_c, 0, 64, 64
2, 62727, Note_off_c, 0, 60, 64
2, 62900, Note_on_c, 0, 55, 36
2, 62900, Note_on_c, 0, 43, 26
2, 62983, Control_c, 0, 64, 0
2, 62983, Control_c, 0, 64, 0
2, 63043, Control_c, 0, 64, 127
2, 63043, Control_c, 0, 64, 127
2, 63504, Note_on_c, 0, 54, 41
2, 63504, Note_on_c, 0, 42, 50
2, 63538, Note_off_c, 0, 43, 64
2, 63538, Note_off_c, 0, 55, 64
2, 63546, Control_c, 0, 64, 0
2, 63546, Control_c, 0, 64, 0
2, 63579, Control_c, 0, 64, 127
2, 63579, Control_c, 0, 64, 127
2, 63909, Note_on_c, 0, 53, 49
2, 63913, Note_on_c, 0, 41, 56
2, 63922, Note_off_c, 0, 42, 64
2, 63922, Note_off_c, 0, 54, 64
2, 63925, Control_c, 0, 64, 0
2, 63925, Control_c, 0, 64, 0
2, 63960, Control_c, 0, 64, 127
2, 63960, Control_c, 0, 64, 127
2, 64120, Note_on_c, 0, 34, 76
2, 64135, Control_c, 0, 64, 0
2, 64135, Control_c, 0, 64, 0
2, 64136, Note_off_c, 0, 41, 64
2, 64152, Note_off_c, 0, 53, 64
2, 64171, Control_c, 0, 64, 127
2, 64171, Control_c, 0, 64, 127
2, 64315, Note_on_c, 0, 53, 57
2, 64319, Note_on_c, 0, 70, 52
2, 64320, Note_off_c, 0, 34, 64
2, 64321, Note_on_c, 0, 62, 56
2, 64325, Note_on_c, 0, 58, 57
2, 64326, Note_on_c, 0, 74, 59
2, 64326, Note_on_c, 0, 65, 52
2, 64336, Control_c, 0, 64, 0
2, 64336, Control_c, 0, 64, 0
2, 64365, Control_c, 0, 64, 127
2, 64365, Control_c, 0, 64, 127
2, 64465, Note_off_c, 0, 53, 64
2, 64469, Note_off_c, 0, 70, 64
2, 64471, Note_off_c, 0, 62, 64
2, 64475, Note_off_c, 0, 58, 64
2, 64476, Note_off_c, 0, 65, 64
2, 64476, Note_off_c, 0, 74, 64
2, 64490, Note_on_c, 0, 75, 60
2, 64492, Note_on_c, 0, 66, 58
2, 64498, Note_on_c, 0, 70, 63
2, 64502, Note_on_c, 0, 63, 54
2, 64503, Note_on_c, 0, 54, 53
2, 64503, Control_c, 0, 64, 0
2, 64503, Control_c, 0, 64, 0
2, 64511, Note_on_c, 0, 58, 49
2, 64519, Control_c, 0, 64, 127
2, 64519, Control_c, 0, 64, 127
2, 64640, Note_off_c, 0, 75, 64
2, 64642, Note_off_c, 0, 66, 64
2, 64648, Note_off_c, 0, 70, 64
2, 64652, Note_off_c, 0, 63, 64
2, 64653, Note_off_c, 0, 54, 64
2, 64661, Note_off_c, 0, 58, 64
2, 64663, Note_on_c, 0, 46, 63
2, 64665, Note_on_c, 0, 78, 65
2, 64673, Control_c, 0, 64, 0
2, 64673, Control_c, 0, 64, 0
2, 64700, Control_c, 0, 64, 127
2, 64700, Control_c, 0, 64, 127
2, 64746, Note_off_c, 0, 78, 64
2, 64776, Note_on_c, 0, 77, 56
2, 64783, Note_on_c, 0, 74, 46
2, 64810, Note_on_c, 0, 65, 39
2, 64822, Note_on_c, 0, 72, 68
2, 64825, Note_on_c, 0, 62, 23
2, 64837, Note_on_c, 0, 58, 26
2, 64839, Note_off_c, 0, 74, 64
2, 64846, Note_off_c, 0, 77, 64
2, 64846, Control_c, 0, 64, 0
2, 64846, Control_c, 0, 64, 0
2, 64863, Note_off_c, 0, 46, 64
2, 64871, Control_c, 0, 64, 127
2, 64871, Control_c, 0, 64, 127
2, 64884, Note_off_c, 0, 72, 64
2, 64910, Note_off_c, 0, 65, 64
2, 64925, Note_off_c, 0, 62, 64
2, 64928, Note_on_c, 0, 77, 67
2, 64929, Note_on_c, 0, 74, 54
2, 64937, Note_off_c, 0, 58, 64
2, 64966, Note_on_c, 0, 58, 47
2, 64979, Note_on_c, 0, 70, 75
2, 64986, Note_on_c, 0, 53, 57
2, 64987, Control_c, 0, 64, 0
2, 64987, Control_c, 0, 64, 0
2, 64995, Note_off_c, 0, 74, 64
2, 64998, Note_off_c, 0, 77, 64
2, 65004, Control_c, 0, 64, 127
2, 65004, Control_c, 0, 64, 127
2, 65010, Note_off_c, 0, 58, 64
2, 65130, Note_on_c, 0, 82, 90
2, 65139, Note_on_c, 0, 34, 86
2, 65143, Control_c, 0, 64, 0
2, 65143, Control_c, 0, 64, 0
2, 65164, Control_c, 0, 64, 127
2, 65164, Control_c, 0, 64, 127
2, 65172, Note_off_c, 0, 70, 64
2, 65179, Note_off_c, 0, 53, 64
2, 65292, Note_on_c, 0, 53, 50
2, 65299, Note_on_c, 0, 74, 58
2, 65300, Note_on_c, 0, 70, 64
2, 65300, Note_on_c, 0, 62, 57
2, 65306, Note_on_c, 0, 65, 67
2, 65307, Note_on_c, 0, 58, 54
2, 65308, Note_off_c, 0, 82, 64
2, 65314, Control_c, 0, 64, 0
2, 65314, Control_c, 0, 64, 0
2, 65339, Note_off_c, 0, 34, 64
2, 65339, Control_c, 0, 64, 127
2, 65339, Control_c, 0, 64, 127
2, 65442, Note_off_c, 0, 53, 64
2, 65449, Note_off_c, 0, 74, 64
2, 65450, Note_off_c, 0, 62, 64
2, 65450, Note_off_c, 0, 70, 64
2, 65456, Note_off_c, 0, 65, 64
2, 65457, Note_off_c, 0, 58, 64
2, 65465, Note_on_c, 0, 75, 67
2, 65465, Note_on_c, 0, 70, 63
2, 65465, Note_on_c, 0, 66, 58
2, 65467, Note_on_c, 0, 63, 42
2, 65474, Note_on_c, 0, 58, 47
2, 65474, Note_on_c, 0, 54, 46
2, 65603, Note_on_c, 0, 46, 63
2, 65609, Note_on_c, 0, 78, 67
2, 65615, Note_off_c, 0, 66, 64
2, 65615, Note_off_c, 0, 70, 64
2, 65615, Note_off_c, 0, 75, 64
2, 65617, Note_off_c, 0, 63, 64
2, 65622, Control_c, 0, 64, 0
2, 65622, Control_c, 0, 64, 0
2, 65624, Note_off_c, 0, 54, 64
2, 65624, Note_off_c, 0, 58, 64
2, 65664, Control_c, 0, 64, 127
2, 65664, Control_c, 0, 64, 127
2, 65722, Note_off_c, 0, 78, 64
2, 65728, Note_on_c, 0, 74, 53
2, 65736, Note_on_c, 0, 77, 56
2, 65768, Note_on_c, 0, 72, 69
2, 65768, Note_on_c, 0, 65, 56
2, 65774, Control_c, 0, 64, 0
2, 65774, Control_c, 0, 64, 0
2, 65776, Note_on_c, 0, 62, 56
2, 65776, Note_on_c, 0, 58, 53
2, 65782, Note_off_c, 0, 74, 64
2, 65803, Note_off_c, 0, 46, 64
2, 65809, Control_c, 0, 64, 127
2, 65809, Control_c, 0, 64, 127
2, 65814, Note_off_c, 0, 77, 64
2, 65828, Note_off_c, 0, 72, 64
2, 65868, Note_off_c, 0, 65, 64
2, 65872, Note_on_c, 0, 77, 56
2, 65874, Note_on_c, 0, 74, 43
2, 65876, Note_off_c, 0, 58, 64
2, 65876, Note_off_c, 0, 62, 64
2, 65909, Control_c, 0, 64, 0
2, 65909, Control_c, 0, 64, 0
2, 65913, Note_on_c, 0, 53, 60
2, 65919, Note_on_c, 0, 70, 75
2, 65926, Control_c, 0, 64, 127
2, 65926, Control_c, 0, 64, 127
2, 65931, Note_off_c, 0, 74, 64
2, 65950, Note_off_c, 0, 77, 64
2, 66069, Control_c, 0, 64, 0
2, 66069, Control_c, 0, 64, 0
2, 66073, Note_on_c, 0, 34, 90
2, 66105, Control_c, 0, 64, 127
2, 66105, Control_c, 0, 64, 127
2, 66113, Note_off_c, 0, 53, 64
2, 66119, Note_off_c, 0, 70, 64
2, 66230, Note_on_c, 0, 53, 46
2, 66235, Note_on_c, 0, 70, 57
2, 66237, Note_on_c, 0, 65, 67
2, 66240, Note_on_c, 0, 74, 58
2, 66240, Note_on_c, 0, 58, 36
2, 66245, Note_on_c, 0, 62, 47
2, 66253, Control_c, 0, 64, 0
2, 66253, Control_c, 0, 64, 0
2, 66273, Note_off_c, 0, 34, 64
2, 66276, Control_c, 0, 64, 127
2, 66276, Control_c, 0, 64, 127
2, 66370, Note_off_c, 0, 53, 64
2, 66375, Note_off_c, 0, 70, 64
2, 66377, Note_off_c, 0, 65, 64
2, 66380, Note_off_c, 0, 58, 64
2, 66380, Note_off_c, 0, 74, 64
2, 66385, Note_off_c, 0, 62, 64
2, 66387, Note_on_c, 0, 66, 63
2, 66387, Note_on_c, 0, 63, 58
2, 66391, Note_on_c, 0, 75, 58
2, 66391, Note_on_c, 0, 70, 42
2, 66397, Note_on_c, 0, 54, 49
2, 66401, Note_on_c, 0, 58, 50
2, 66527, Note_off_c, 0, 63, 64
2, 66527, Note_off_c, 0, 66, 64
2, 66531, Note_off_c, 0, 70, 64
2, 66531, Note_off_c, 0, 75, 64
2, 66531, Note_on_c, 0, 46, 67
2, 66537, Note_off_c, 0, 54, 64
2, 66538, Note_on_c, 0, 78, 68
2, 66541, Note_off_c, 0, 58, 64
2, 66550, Control_c, 0, 64, 0
2, 66550, Control_c, 0, 64, 0
2, 66578, Control_c, 0, 64, 127
2, 66578, Control_c, 0, 64, 127
2, 66644, Note_off_c, 0, 78, 64
2, 66648, Note_on_c, 0, 77, 50
2, 66651, Note_on_c, 0, 74, 60
2, 66680, Note_on_c, 0, 62, 57
2, 66688, Note_on_c, 0, 65, 56
2, 66690, Note_on_c, 0, 72, 67
2, 66690, Control_c, 0, 64, 0
2, 66690, Control_c, 0, 64, 0
2, 66697, Note_on_c, 0, 58, 35
2, 66707, Note_off_c, 0, 74, 64
2, 66712, Note_off_c, 0, 77, 64
2, 66713, Control_c, 0, 64, 127
2, 66713, Control_c, 0, 64, 127
2, 66731, Note_off_c, 0, 46, 64
2, 66750, Note_off_c, 0, 72, 64
2, 66772, Note_on_c, 0, 77, 56
2, 66775, Note_on_c, 0, 74, 53
2, 66780, Note_off_c, 0, 62, 64
2, 66788, Note_off_c, 0, 65, 64
2, 66797, Note_off_c, 0, 58, 64
2, 66830, Note_on_c, 0, 70, 80
2, 66836, Note_on_c, 0, 53, 60
2, 66843, Note_off_c, 0, 74, 64
2, 66850, Note_off_c, 0, 77, 64
2, 66986, Control_c, 0, 64, 0
2, 66986, Control_c, 0, 64, 0
2, 66992, Note_on_c, 0, 94, 75
2, 66996, Note_on_c, 0, 82, 80
2, 67002, Note_on_c, 0, 34, 60
2, 67008, Note_on_c, 0, 46, 84
2, 67019, Control_c, 0, 64, 127
2, 67019, Control_c, 0, 64, 127
2, 67030, Note_off_c, 0, 70, 64
2, 67036, Note_off_c, 0, 53, 64
2, 67162, Note_on_c, 0, 74, 67
2, 67164, Note_on_c, 0, 65, 63
2, 67167, Note_on_c, 0, 70, 67
2, 67167, Note_on_c, 0, 53, 43
2, 67168, Note_on_c, 0, 62, 53
2, 67168, Note_on_c, 0, 58, 64
2, 67192, Note_off_c, 0, 94, 64
2, 67196, Note_off_c, 0, 82, 64
2, 67202, Note_off_c, 0, 34, 64
2, 67208, Note_off_c, 0, 46, 64
2, 67302, Note_off_c, 0, 74, 64
2, 67304, Note_off_c, 0, 65, 64
2, 67307, Note_off_c, 0, 53, 64
2, 67307, Note_off_c, 0, 70, 64
2, 67308, Note_off_c, 0, 58, 64
2, 67308, Note_off_c, 0, 62, 64
2, 67317, Note_on_c, 0, 66, 60
2, 67317, Note_on_c, 0, 63, 57
2, 67324, Note_on_c, 0, 70, 38
2, 67326, Note_on_c, 0, 75, 69
2, 67329, Note_on_c, 0, 58, 47
2, 67329, Note_on_c, 0, 54, 43
2, 67457, Note_off_c, 0, 63, 64
2, 67457, Note_off_c, 0, 66, 64
2, 67464, Note_off_c, 0, 70, 64
2, 67466, Note_off_c, 0, 75, 64
2, 67469, Note_off_c, 0, 54, 64
2, 67469, Note_off_c, 0, 58, 64
2, 67483, Note_on_c, 0, 78, 67
2, 67487, Note_on_c, 0, 46, 67
2, 67497, Control_c, 0, 64, 0
2, 67497, Control_c, 0, 64, 0
2, 67509, Control_c, 0, 64, 127
2, 67509, Control_c, 0, 64, 127
2, 67595, Note_off_c, 0, 78, 64
2, 67598, Note_on_c, 0, 74, 60
2, 67607, Note_on_c, 0, 77, 54
2, 67627, Note_on_c, 0, 62, 56
2, 67627, Note_on_c, 0, 58, 49
2, 67632, Note_on_c, 0, 65, 57
2, 67643, Note_on_c, 0, 72, 69
2, 67649, Control_c, 0, 64, 0
2, 67649, Control_c, 0, 64, 0
2, 67657, Note_off_c, 0, 74, 64
2, 67659, Note_off_c, 0, 77, 64
2, 67676, Control_c, 0, 64, 127
2, 67676, Control_c, 0, 64, 127
2, 67687, Note_off_c, 0, 46, 64
2, 67702, Note_off_c, 0, 72, 64
2, 67727, Note_off_c, 0, 58, 64
2, 67727, Note_off_c, 0, 62, 64
2, 67732, Note_off_c, 0, 65, 64
2, 67736, Note_on_c, 0, 77, 56
2, 67742, Note_on_c, 0, 74, 53
2, 67787, Note_on_c, 0, 53, 69
2, 67794, Note_on_c, 0, 70, 80
2, 67804, Note_off_c, 0, 74, 64
2, 67814, Note_off_c, 0, 77, 64
2, 67955, Control_c, 0, 64, 0
2, 67955, Control_c, 0, 64, 0
2, 67962, Note_on_c, 0, 39, 89
2, 67987, Note_off_c, 0, 53, 64
2, 67992, Control_c, 0, 64, 127
2, 67992, Control_c, 0, 64, 127
2, 67994, Note_off_c, 0, 70, 64
2, 68119, Note_on_c, 0, 70, 63
2, 68124, Note_on_c, 0, 75, 67
2, 68125, Note_on_c, 0, 63, 56
2, 68128, Note_on_c, 0, 67, 58
2, 68128, Note_on_c, 0, 58, 43
2, 68129, Note_on_c, 0, 79, 60
2, 68141, Control_c, 0, 64, 0
2, 68141, Control_c, 0, 64, 0
2, 68156, Control_c, 0, 64, 127
2, 68156, Control_c, 0, 64, 127
2, 68162, Note_off_c, 0, 39, 64
2, 68254, Note_off_c, 0, 70, 64
2, 68259, Note_off_c, 0, 75, 64
2, 68260, Note_off_c, 0, 63, 64
2, 68263, Note_off_c, 0, 58, 64
2, 68263, Note_off_c, 0, 67, 64
2, 68264, Note_off_c, 0, 79, 64
2, 68264, Note_on_c, 0, 68, 60
2, 68268, Note_on_c, 0, 75, 64
2, 68268, Note_on_c, 0, 59, 65
2, 68271, Note_on_c, 0, 71, 64
2, 68272, Note_on_c, 0, 80, 67
2, 68272, Note_on_c, 0, 63, 65
2, 68399, Note_off_c, 0, 68, 64
2, 68403, Note_off_c, 0, 59, 64
2, 68403, Note_off_c, 0, 75, 64
2, 68406, Note_off_c, 0, 71, 64
2, 68407, Note_off_c, 0, 63, 64
2, 68407, Note_off_c, 0, 80, 64
2, 68435, Note_on_c, 0, 83, 67
2, 68435, Note_on_c, 0, 51, 67
2, 68448, Control_c, 0, 64, 0
2, 68448, Control_c, 0, 64, 0
2, 68460, Control_c, 0, 64, 127
2, 68460, Control_c, 0, 64, 127
2, 68526, Note_on_c, 0, 82, 54
2, 68535, Note_on_c, 0, 79, 57
2, 68543, Note_off_c, 0, 83, 64
2, 68557, Note_on_c, 0, 67, 58
2, 68563, Note_on_c, 0, 63, 53
2, 68564, Note_on_c, 0, 58, 53
2, 68580, Note_on_c, 0, 77, 69
2, 68589, Control_c, 0, 64, 0
2, 68589, Control_c, 0, 64, 0
2, 68596, Note_off_c, 0, 79, 64
2, 68602, Control_c, 0, 64, 127
2, 68602, Control_c, 0, 64, 127
2, 68612, Note_off_c, 0, 82, 64
2, 68635, Note_off_c, 0, 51, 64
2, 68643, Note_off_c, 0, 77, 64
2, 68657, Note_off_c, 0, 67, 64
2, 68663, Note_off_c, 0, 63, 64
2, 68664, Note_off_c, 0, 58, 64
2, 68672, Note_on_c, 0, 82, 54
2, 68676, Note_on_c, 0, 79, 53
2, 68711, Note_on_c, 0, 51, 60
2, 68723, Note_on_c, 0, 75, 80
2, 68733, Note_off_c, 0, 79, 64
2, 68758, Note_off_c, 0, 82, 64
2, 68875, Note_on_c, 0, 99, 67
2, 68888, Note_on_c, 0, 87, 86
2, 68888, Control_c, 0, 64, 0
2, 68888, Control_c, 0, 64, 0
2, 68897, Note_on_c, 0, 39, 102
2, 68898, Note_on_c, 0, 27, 75
2, 68907, Control_c, 0, 64, 127
2, 68907, Control_c, 0, 64, 127
2, 68911, Note_off_c, 0, 51, 64
2, 68923, Note_off_c, 0, 75, 64
2, 69058, Note_on_c, 0, 70, 73
2, 69058, Note_on_c, 0, 58, 53
2, 69064, Note_on_c, 0, 67, 60
2, 69067, Note_on_c, 0, 75, 64
2, 69067, Note_on_c, 0, 63, 60
2, 69070, Note_on_c, 0, 79, 60
2, 69075, Note_off_c, 0, 99, 64
2, 69085, Control_c, 0, 64, 0
2, 69085, Control_c, 0, 64, 0
2, 69088, Note_off_c, 0, 87, 64
2, 69096, Control_c, 0, 64, 127
2, 69096, Control_c, 0, 64, 127
2, 69097, Note_off_c, 0, 39, 64
2, 69098, Note_off_c, 0, 27, 64
2, 69198, Note_off_c, 0, 58, 64
2, 69198, Note_off_c, 0, 70, 64
2, 69204, Note_off_c, 0, 67, 64
2, 69207, Note_off_c, 0, 63, 64
2, 69207, Note_off_c, 0, 75, 64
2, 69210, Note_off_c, 0, 79, 64
2, 69216, Note_on_c, 0, 75, 26
2, 69217, Note_on_c, 0, 80, 67
2, 69217, Note_on_c, 0, 68, 67
2, 69218, Note_on_c, 0, 71, 68
2, 69223, Note_on_c, 0, 59, 60
2, 69224, Note_on_c, 0, 63, 57
2, 69356, Note_off_c, 0, 75, 64
2, 69357, Note_off_c, 0, 68, 64
2, 69357, Note_off_c, 0, 80, 64
2, 69358, Note_off_c, 0, 71, 64
2, 69363, Note_off_c, 0, 59, 64
2, 69364, Note_off_c, 0, 63, 64
2, 69381, Note_on_c, 0, 51, 67
2, 69390, Note_on_c, 0, 83, 65
2, 69509, Note_on_c, 0, 82, 23
2, 69516, Note_on_c, 0, 79, 47
2, 69540, Note_off_c, 0, 83, 64
2, 69562, Note_on_c, 0, 77, 73
2, 69571, Note_off_c, 0, 82, 64
2, 69572, Note_off_c, 0, 79, 64
2, 69578, Note_on_c, 0, 61, 60
2, 69581, Note_off_c, 0, 51, 64
2, 69585, Note_on_c, 0, 70, 71
2, 69587, Note_on_c, 0, 67, 67
2, 69678, Note_off_c, 0, 61, 64
2, 69685, Note_off_c, 0, 70, 64
2, 69687, Note_off_c, 0, 67, 64
2, 69692, Note_off_c, 0, 77, 64
2, 69728, Note_on_c, 0, 82, 63
2, 69735, Note_on_c, 0, 79, 73
2, 69783, Note_on_c, 0, 76, 80
2, 69798, Note_on_c, 0, 51, 65
2, 69804, Note_off_c, 0, 79, 64
2, 69814, Note_off_c, 0, 82, 64
2, 69837, Control_c, 0, 64, 0
2, 69837, Control_c, 0, 64, 0
2, 69851, Control_c, 0, 64, 127
2, 69851, Control_c, 0, 64, 127
2, 69993, Note_on_c, 0, 39, 68
2, 70047, Note_off_c, 0, 51, 64
2, 70193, Note_on_c, 0, 70, 49
2, 70197, Note_on_c, 0, 79, 58
2, 70201, Note_on_c, 0, 61, 58
2, 70235, Control_c, 0, 64, 0
2, 70235, Control_c, 0, 64, 0
2, 70258, Control_c, 0, 64, 127
2, 70258, Control_c, 0, 64, 127
2, 70374, Note_on_c, 0, 80, 53
2, 70380, Note_on_c, 0, 71, 58
2, 70388, Note_off_c, 0, 79, 64
2, 70388, Note_on_c, 0, 62, 58
2, 70394, Note_off_c, 0, 61, 64
2, 70398, Note_off_c, 0, 70, 64
2, 70554, Note_on_c, 0, 79, 58
2, 70560, Note_on_c, 0, 75, 53
2, 70560, Note_on_c, 0, 70, 49
2, 70567, Note_on_c, 0, 63, 58
2, 70573, Note_off_c, 0, 76, 64
2, 70575, Note_off_c, 0, 80, 64
2, 70585, Note_off_c, 0, 71, 64
2, 70590, Note_off_c, 0, 62, 64
2, 70608, Control_c, 0, 64, 0
2, 70608, Control_c, 0, 64, 0
2, 70629, Control_c, 0, 64, 127
2, 70629, Control_c, 0, 64, 127
2, 70731, Note_on_c, 0, 78, 58
2, 70736, Note_on_c, 0, 64, 49
2, 70737, Note_on_c, 0, 73, 46
2, 70757, Note_off_c, 0, 79, 64
2, 70761, Note_off_c, 0, 63, 64
2, 70761, Note_off_c, 0, 75, 64
2, 70761, Note_off_c, 0, 39, 64
2, 70917, Note_on_c, 0, 77, 56
2, 70926, Note_on_c, 0, 65, 52
2, 70937, Note_off_c, 0, 78, 64
2, 70945, Note_off_c, 0, 64, 64
2, 71107, Note_on_c, 0, 76, 46
2, 71113, Note_off_c, 0, 77, 64
2, 71116, Note_on_c, 0, 66, 46
2, 71145, Control_c, 0, 64, 0
2, 71145, Control_c, 0, 64, 0
2, 71151, Note_off_c, 0, 65, 64
2, 71168, Control_c, 0, 64, 127
2, 71168, Control_c, 0, 64, 127
2, 71300, Note_off_c, 0, 66, 64
2, 71307, Note_on_c, 0, 54, 50
2, 71348, Control_c, 0, 64, 0
2, 71348, Control_c, 0, 64, 0
2, 71378, Control_c, 0, 64, 127
2, 71378, Control_c, 0, 64, 127
2, 71447, Note_on_c, 0, 58, 46
2, 71461, Note_off_c, 0, 54, 64
2, 71482, Note_on_c, 0, 56, 49
2, 71498, Note_off_c, 0, 58, 64
2, 71544, Control_c, 0, 64, 0
2, 71544, Control_c, 0, 64, 0
2, 71598, Control_c, 0, 64, 127
2, 71598, Control_c, 0, 64, 127
2, 71698, Note_on_c, 0, 54, 46
2, 71712, Note_off_c, 0, 56, 64
2, 71744, Control_c, 0, 64, 0
2, 71744, Control_c, 0, 64, 0
2, 71758, Note_off_c, 0, 70, 64
2, 71785, Note_off_c, 0, 73, 64
2, 71793, Note_off_c, 0, 76, 64
2, 71809, Control_c, 0, 64, 127
2, 71809, Control_c, 0, 64, 127
2, 71963, Note_on_c, 0, 49, 39
2, 71990, Note_off_c, 0, 54, 64
2, 72006, Control_c, 0, 64, 0
2, 72006, Control_c, 0, 64, 0
2, 72050, Control_c, 0, 64, 127
2, 72050, Control_c, 0, 64, 127
2, 72285, Note_on_c, 0, 54, 34
2, 72294, Note_off_c, 0, 49, 64
2, 72348, Control_c, 0, 64, 0
2, 72348, Control_c, 0, 64, 0
2, 72373, Control_c, 0, 64, 127
2, 72373, Control_c, 0, 64, 127
2, 72464, Control_c, 0, 64, 0
2, 72464, Control_c, 0, 64, 0
2, 72489, Control_c, 0, 64, 127
2, 72489, Control_c, 0, 64, 127
2, 72540, Note_off_c, 0, 54, 64
2, 72590, Note_on_c, 0, 47, 50
2, 72597, Note_on_c, 0, 75, 53
2, 72696, Note_on_c, 0, 76, 52
2, 72717, Note_off_c, 0, 75, 64
2, 72778, Note_on_c, 0, 54, 53
2, 72780, Note_on_c, 0, 77, 61
2, 72784, Control_c, 0, 64, 0
2, 72784, Control_c, 0, 64, 0
2, 72788, Note_on_c, 0, 59, 43
2, 72792, Note_on_c, 0, 63, 43
2, 72809, Control_c, 0, 64, 127
2, 72809, Control_c, 0, 64, 127
2, 72818, Note_off_c, 0, 76, 64
2, 72830, Note_off_c, 0, 47, 64
2, 72867, Note_off_c, 0, 54, 64
2, 72894, Note_off_c, 0, 59, 64
2, 72898, Note_off_c, 0, 63, 64
2, 72972, Note_on_c, 0, 78, 65
2, 72976, Note_on_c, 0, 66, 46
2, 72981, Note_on_c, 0, 63, 53
2, 72983, Note_on_c, 0, 71, 54
2, 72985, Note_off_c, 0, 77, 64
2, 73078, Note_off_c, 0, 63, 64
2, 73082, Note_off_c, 0, 66, 64
2, 73097, Note_off_c, 0, 71, 64
2, 73240, Note_on_c, 0, 79, 60
2, 73250, Note_on_c, 0, 40, 46
2, 73259, Note_off_c, 0, 78, 64
2, 73266, Control_c, 0, 64, 0
2, 73266, Control_c, 0, 64, 0
2, 73286, Control_c, 0, 64, 127
2, 73286, Control_c, 0, 64, 127
2, 73432, Note_on_c, 0, 80, 61
2, 73439, Note_off_c, 0, 79, 64
2, 73490, Note_off_c, 0, 40, 64
2, 73500, Note_on_c, 0, 76, 64
2, 73506, Note_on_c, 0, 68, 27
2, 73515, Note_on_c, 0, 59, 45
2, 73530, Note_on_c, 0, 61, 27
2, 73546, Note_off_c, 0, 80, 64
2, 73581, Control_c, 0, 64, 0
2, 73581, Control_c, 0, 64, 0
2, 73611, Control_c, 0, 64, 127
2, 73611, Control_c, 0, 64, 127
2, 73652, Note_off_c, 0, 68, 64
2, 73668, Note_off_c, 0, 59, 64
2, 73670, Note_off_c, 0, 61, 64
2, 73703, Note_off_c, 0, 76, 64
2, 73832, Note_on_c, 0, 75, 42
2, 73873, Note_off_c, 0, 75, 64
2, 73947, Note_on_c, 0, 75, 49
2, 73953, Note_on_c, 0, 42, 52
2, 73966, Control_c, 0, 64, 0
2, 73966, Control_c, 0, 64, 0
2, 74004, Control_c, 0, 64, 127
2, 74004, Control_c, 0, 64, 127
2, 74025, Note_off_c, 0, 75, 64
2, 74050, Note_on_c, 0, 73, 45
2, 74087, Note_on_c, 0, 75, 52
2, 74095, Note_off_c, 0, 73, 64
2, 74119, Note_on_c, 0, 73, 52
2, 74135, Note_off_c, 0, 75, 64
2, 74142, Note_on_c, 0, 58, 46
2, 74142, Note_on_c, 0, 54, 34
2, 74146, Control_c, 0, 64, 0
2, 74146, Control_c, 0, 64, 0
2, 74153, Note_on_c, 0, 64, 24
2, 74159, Note_on_c, 0, 72, 58
2, 74168, Note_off_c, 0, 73, 64
2, 74184, Note_off_c, 0, 54, 64
2, 74192, Control_c, 0, 64, 127
2, 74192, Control_c, 0, 64, 127
2, 74193, Note_off_c, 0, 42, 64
2, 74196, Note_off_c, 0, 64, 64
2, 74196, Note_off_c, 0, 58, 64
2, 74298, Note_on_c, 0, 64, 39
2, 74304, Note_on_c, 0, 73, 57
2, 74304, Note_on_c, 0, 58, 52
2, 74314, Note_on_c, 0, 54, 27
2, 74324, Note_off_c, 0, 72, 64
2, 74336, Note_off_c, 0, 64, 64
2, 74337, Note_off_c, 0, 54, 64
2, 74337, Note_off_c, 0, 58, 64
2, 74483, Note_on_c, 0, 43, 49
2, 74489, Note_on_c, 0, 76, 54
2, 74494, Note_off_c, 0, 73, 64
2, 74502, Control_c, 0, 64, 0
2, 74502, Control_c, 0, 64, 0
2, 74549, Control_c, 0, 64, 127
2, 74549, Control_c, 0, 64, 127
2, 74673, Note_on_c, 0, 63, 26
2, 74673, Note_on_c, 0, 51, 30
2, 74676, Note_on_c, 0, 58, 41
2, 74701, Control_c, 0, 64, 0
2, 74701, Control_c, 0, 64, 0
2, 74723, Note_off_c, 0, 43, 64
2, 74723, Control_c, 0, 64, 127
2, 74723, Control_c, 0, 64, 127
2, 74748, Note_off_c, 0, 51, 64
2, 74751, Note_off_c, 0, 58, 64
2, 74753, Note_off_c, 0, 63, 64
2, 74892, Note_on_c, 0, 75, 45
2, 74896, Note_on_c, 0, 58, 34
2, 74897, Note_on_c, 0, 63, 21
2, 74901, Note_on_c, 0, 51, 28
2, 74906, Note_off_c, 0, 76, 64
2, 74948, Note_off_c, 0, 51, 64
2, 74951, Note_off_c, 0, 63, 64
2, 74951, Note_off_c, 0, 58, 64
2, 75101, Note_on_c, 0, 44, 56
2, 75111, Note_on_c, 0, 71, 53
2, 75118, Control_c, 0, 64, 0
2, 75118, Control_c, 0, 64, 0
2, 75140, Control_c, 0, 64, 127
2, 75140, Control_c, 0, 64, 127
2, 75172, Note_on_c, 0, 73, 41
2, 75183, Note_off_c, 0, 71, 64
2, 75184, Note_off_c, 0, 75, 64
2, 75244, Note_on_c, 0, 74, 53
2, 75252, Note_on_c, 0, 51, 41
2, 75255, Note_on_c, 0, 56, 38
2, 75256, Note_on_c, 0, 59, 38
2, 75270, Note_off_c, 0, 73, 64
2, 75296, Note_off_c, 0, 59, 64
2, 75299, Note_off_c, 0, 51, 64
2, 75305, Note_off_c, 0, 56, 64
2, 75341, Note_off_c, 0, 44, 64
2, 75439, Note_on_c, 0, 56, 46
2, 75440, Note_on_c, 0, 75, 57
2, 75446, Note_on_c, 0, 51, 32
2, 75448, Note_on_c, 0, 59, 38
2, 75456, Note_off_c, 0, 74, 64
2, 75499, Note_off_c, 0, 56, 64
2, 75504, Note_off_c, 0, 51, 64
2, 75519, Note_off_c, 0, 59, 64
2, 75629, Note_on_c, 0, 78, 53
2, 75631, Note_on_c, 0, 37, 52
2, 75641, Note_off_c, 0, 75, 64
2, 75659, Control_c, 0, 64, 0
2, 75659, Control_c, 0, 64, 0
2, 75682, Control_c, 0, 64, 127
2, 75682, Control_c, 0, 64, 127
2, 75728, Note_on_c, 0, 76, 53
2, 75738, Note_off_c, 0, 78, 64
2, 75784, Note_on_c, 0, 49, 30
2, 75812, Note_on_c, 0, 56, 31
2, 75825, Note_on_c, 0, 61, 23
2, 75826, Note_on_c, 0, 73, 57
2, 75860, Note_off_c, 0, 76, 64
2, 75871, Note_off_c, 0, 37, 64
2, 75904, Note_off_c, 0, 73, 64
2, 75974, Note_off_c, 0, 49, 64
2, 76003, Note_on_c, 0, 68, 52
2, 76037, Note_off_c, 0, 56, 64
2, 76064, Note_off_c, 0, 61, 64
2, 76090, Note_on_c, 0, 70, 38
2, 76098, Note_off_c, 0, 68, 64
2, 76133, Note_on_c, 0, 68, 56
2, 76146, Note_off_c, 0, 70, 64
2, 76196, Note_on_c, 0, 67, 52
2, 76212, Note_off_c, 0, 68, 64
2, 76215, Note_on_c, 0, 50, 49
2, 76242, Control_c, 0, 64, 0
2, 76242, Control_c, 0, 64, 0
2, 76271, Control_c, 0, 64, 127
2, 76271, Control_c, 0, 64, 127
2, 76360, Note_on_c, 0, 68, 58
2, 76377, Note_off_c, 0, 67, 64
2, 76418, Note_on_c, 0, 71, 49
2, 76426, Note_on_c, 0, 56, 46
2, 76433, Note_on_c, 0, 59, 24
2, 76435, Note_on_c, 0, 65, 24
2, 76441, Control_c, 0, 64, 0
2, 76441, Control_c, 0, 64, 0
2, 76455, Note_off_c, 0, 50, 64
2, 76462, Note_off_c, 0, 68, 64
2, 76470, Control_c, 0, 64, 127
2, 76470, Control_c, 0, 64, 127
2, 76517, Note_off_c, 0, 59, 64
2, 76522, Note_off_c, 0, 56, 64
2, 76524, Note_off_c, 0, 65, 64
2, 76658, Note_on_c, 0, 56, 26
2, 76664, Note_on_c, 0, 65, 26
2, 76673, Note_on_c, 0, 70, 58
2, 76679, Note_on_c, 0, 58, 24
2, 76684, Note_off_c, 0, 71, 64
2, 76719, Control_c, 0, 64, 0
2, 76719, Control_c, 0, 64, 0
2, 76749, Control_c, 0, 64, 127
2, 76749, Control_c, 0, 64, 127
2, 76771, Note_off_c, 0, 65, 64
2, 76848, Note_off_c, 0, 58, 64
2, 76864, Note_off_c, 0, 56, 64
2, 76924, Note_on_c, 0, 67, 52
2, 76930, Note_on_c, 0, 51, 52
2, 76938, Note_off_c, 0, 70, 64
2, 76955, Control_c, 0, 64, 0
2, 76955, Control_c, 0, 64, 0
2, 76985, Control_c, 0, 64, 127
2, 76985, Control_c, 0, 64, 127
2, 77124, Note_on_c, 0, 55, 47
2, 77132, Note_on_c, 0, 63, 32
2, 77146, Control_c, 0, 64, 0
2, 77146, Control_c, 0, 64, 0
2, 77149, Note_on_c, 0, 58, 20
2, 77160, Control_c, 0, 64, 127
2, 77160, Control_c, 0, 64, 127
2, 77170, Note_off_c, 0, 51, 64
2, 77217, Note_off_c, 0, 55, 64
2, 77242, Note_off_c, 0, 63, 64
2, 77245, Note_off_c, 0, 58, 64
2, 77308, Note_on_c, 0, 49, 46
2, 77357, Note_on_c, 0, 54, 24
2, 77378, Note_on_c, 0, 58, 49
2, 77407, Note_on_c, 0, 66, 56
2, 77407, Note_on_c, 0, 64, 24
2, 77428, Control_c, 0, 64, 0
2, 77428, Control_c, 0, 64, 0
2, 77431, Note_off_c, 0, 49, 64
2, 77436, Note_off_c, 0, 67, 64
2, 77451, Control_c, 0, 64, 127
2, 77451, Control_c, 0, 64, 127
2, 77497, Note_off_c, 0, 54, 64
2, 77511, Note_off_c, 0, 58, 64
2, 77530, Note_off_c, 0, 64, 64
2, 77679, Note_off_c, 0, 66, 64
2, 77687, Note_on_c, 0, 47, 45
2, 77708, Control_c, 0, 64, 0
2, 77708, Control_c, 0, 64, 0
2, 77740, Control_c, 0, 64, 127
2, 77740, Control_c, 0, 64, 127
2, 77776, Note_on_c, 0, 75, 54
2, 77885, Note_on_c, 0, 76, 53
2, 77916, Note_off_c, 0, 75, 64
2, 77927, Note_off_c, 0, 47, 64
2, 77966, Note_on_c, 0, 78, 56
2, 77972, Note_on_c, 0, 63, 20
2, 77975, Note_off_c, 0, 76, 64
2, 77977, Note_on_c, 0, 54, 34
2, 77979, Control_c, 0, 64, 0
2, 77979, Control_c, 0, 64, 0
2, 77989, Note_on_c, 0, 59, 38
2, 78012, Control_c, 0, 64, 127
2, 78012, Control_c, 0, 64, 127
2, 78061, Note_off_c, 0, 63, 64
2, 78068, Note_off_c, 0, 59, 64
2, 78087, Note_off_c, 0, 54, 64
2, 78147, Note_on_c, 0, 87, 61
2, 78150, Note_off_c, 0, 78, 64
2, 78320, Note_off_c, 0, 87, 64
2, 78322, Note_on_c, 0, 40, 53
2, 78328, Note_on_c, 0, 85, 58
2, 78339, Control_c, 0, 64, 0
2, 78339, Control_c, 0, 64, 0
2, 78362, Control_c, 0, 64, 127
2, 78362, Control_c, 0, 64, 127
2, 78420, Note_on_c, 0, 83, 56
2, 78428, Note_off_c, 0, 85, 64
2, 78524, Note_on_c, 0, 59, 30
2, 78528, Note_on_c, 0, 64, 32
2, 78528, Note_on_c, 0, 61, 30
2, 78533, Note_on_c, 0, 80, 54
2, 78537, Note_on_c, 0, 68, 35
2, 78562, Note_off_c, 0, 40, 64
2, 78566, Note_off_c, 0, 83, 64
2, 78574, Control_c, 0, 64, 0
2, 78574, Control_c, 0, 64, 0
2, 78595, Control_c, 0, 64, 127
2, 78595, Control_c, 0, 64, 127
2, 78648, Note_off_c, 0, 64, 64
2, 78655, Note_off_c, 0, 68, 64
2, 78665, Note_off_c, 0, 59, 64
2, 78669, Note_off_c, 0, 61, 64
2, 78708, Note_on_c, 0, 76, 53
2, 78710, Note_off_c, 0, 80, 64
2, 78897, Note_on_c, 0, 75, 46
2, 78904, Note_on_c, 0, 42, 52
2, 78921, Control_c, 0, 64, 0
2, 78921, Control_c, 0, 64, 0
2, 78934, Note_off_c, 0, 76, 64
2, 78950, Control_c, 0, 64, 127
2, 78950, Control_c, 0, 64, 127
2, 78996, Note_off_c, 0, 75, 64
2, 79010, Note_on_c, 0, 73, 52
2, 79050, Note_off_c, 0, 73, 64
2, 79052, Note_on_c, 0, 75, 50
2, 79085, Note_on_c, 0, 73, 45
2, 79116, Note_off_c, 0, 75, 64
2, 79123, Note_on_c, 0, 54, 30
2, 79131, Note_on_c, 0, 58, 32
2, 79139, Note_on_c, 0, 64, 31
2, 79140, Control_c, 0, 64, 0
2, 79140, Control_c, 0, 64, 0
2, 79144, Note_off_c, 0, 42, 64
2, 79147, Note_on_c, 0, 72, 50
2, 79150, Note_off_c, 0, 73, 64
2, 79165, Control_c, 0, 64, 127
2, 79165, Control_c, 0, 64, 127
2, 79184, Note_off_c, 0, 54, 64
2, 79190, Note_off_c, 0, 58, 64
2, 79191, Note_off_c, 0, 64, 64
2, 79308, Note_on_c, 0, 64, 38
2, 79308, Note_on_c, 0, 54, 35
2, 79309, Note_on_c, 0, 73, 52
2, 79315, Note_on_c, 0, 58, 34
2, 79328, Note_off_c, 0, 72, 64
2, 79343, Note_off_c, 0, 64, 64
2, 79345, Note_off_c, 0, 58, 64
2, 79350, Note_off_c, 0, 54, 64
2, 79502, Note_on_c, 0, 43, 45
2, 79510, Note_on_c, 0, 76, 58
2, 79524, Note_off_c, 0, 73, 64
2, 79527, Control_c, 0, 64, 0
2, 79527, Control_c, 0, 64, 0
2, 79569, Control_c, 0, 64, 127
2, 79569, Control_c, 0, 64, 127
2, 79739, Note_on_c, 0, 51, 38
2, 79742, Note_off_c, 0, 43, 64
2, 79745, Note_on_c, 0, 63, 30
2, 79759, Note_on_c, 0, 58, 23
2, 79775, Control_c, 0, 64, 0
2, 79775, Control_c, 0, 64, 0
2, 79796, Control_c, 0, 64, 127
2, 79796, Control_c, 0, 64, 127
2, 79826, Note_off_c, 0, 51, 64
2, 79829, Note_off_c, 0, 58, 64
2, 79834, Note_off_c, 0, 63, 64
2, 79929, Note_on_c, 0, 75, 47
2, 79932, Note_on_c, 0, 63, 32
2, 79934, Note_on_c, 0, 58, 34
2, 79940, Note_on_c, 0, 51, 20
2, 79942, Note_off_c, 0, 76, 64
2, 79968, Note_off_c, 0, 63, 64
2, 79973, Note_off_c, 0, 58, 64
2, 79978, Note_off_c, 0, 51, 64
2, 80039, Note_off_c, 0, 75, 64
2, 80150, Note_on_c, 0, 44, 47
2, 80160, Note_on_c, 0, 75, 53
2, 80195, Control_c, 0, 64, 0
2, 80195, Control_c, 0, 64, 0
2, 80218, Control_c, 0, 64, 127
2, 80218, Control_c, 0, 64, 127
2, 80390, Note_off_c, 0, 44, 64
2, 80401, Note_off_c, 0, 75, 64
2, 80401, Note_on_c, 0, 53, 24
2, 80404, Note_on_c, 0, 56, 1
2, 80409, Note_on_c, 0, 59, 30
2, 80420, Note_on_c, 0, 63, 26
2, 80492, Note_off_c, 0, 56, 64
2, 80499, Note_on_c, 0, 75, 52
2, 80532, Note_off_c, 0, 75, 64
2, 80536, Note_off_c, 0, 59, 64
2, 80536, Note_on_c, 0, 77, 45
2, 80551, Note_off_c, 0, 53, 64
2, 80562, Note_on_c, 0, 75, 50
2, 80567, Note_off_c, 0, 63, 64
2, 80578, Note_off_c, 0, 77, 64
2, 80605, Note_on_c, 0, 73, 52
2, 80613, Note_off_c, 0, 75, 64
2, 80682, Note_on_c, 0, 71, 49
2, 80708, Note_off_c, 0, 73, 64
2, 80764, Note_on_c, 0, 70, 65
2, 80765, Note_on_c, 0, 46, 49
2, 80770, Control_c, 0, 64, 0
2, 80770, Control_c, 0, 64, 0
2, 80783, Control_c, 0, 64, 127
2, 80783, Control_c, 0, 64, 127
2, 80790, Note_off_c, 0, 71, 64
2, 80833, Note_on_c, 0, 75, 31
2, 80852, Note_off_c, 0, 70, 64
2, 80907, Note_on_c, 0, 78, 61
2, 80911, Note_on_c, 0, 63, 52
2, 80916, Note_on_c, 0, 58, 47
2, 80918, Note_on_c, 0, 54, 49
2, 80924, Control_c, 0, 64, 0
2, 80924, Control_c, 0, 64, 0
2, 80933, Note_off_c, 0, 75, 64
2, 80938, Control_c, 0, 64, 127
2, 80938, Control_c, 0, 64, 127
2, 80988, Control_c, 0, 64, 0
2, 80988, Control_c, 0, 64, 0
2, 81002, Control_c, 0, 64, 127
2, 81002, Control_c, 0, 64, 127
2, 81005, Note_off_c, 0, 46, 64
2, 81038, Note_off_c, 0, 63, 64
2, 81053, Note_off_c, 0, 58, 64
2, 81068, Note_off_c, 0, 54, 64
2, 81105, Note_on_c, 0, 83, 73
2, 81108, Note_on_c, 0, 63, 45
2, 81108, Note_on_c, 0, 58, 47
2, 81112, Note_off_c, 0, 78, 64
2, 81114, Note_on_c, 0, 54, 34
2, 81197, Note_off_c, 0, 58, 64
2, 81204, Note_off_c, 0, 63, 64
2, 81211, Note_off_c, 0, 54, 64
2, 81279, Note_on_c, 0, 82, 58
2, 81285, Note_on_c, 0, 46, 57
2, 81310, Note_off_c, 0, 83, 64
2, 81353, Note_on_c, 0, 77, 53
2, 81362, Note_off_c, 0, 82, 64
2, 81423, Note_on_c, 0, 62, 34
2, 81429, Note_on_c, 0, 80, 61
2, 81432, Note_on_c, 0, 58, 38
2, 81432, Note_on_c, 0, 56, 46
2, 81440, Note_off_c, 0, 77, 64
2, 81444, Control_c, 0, 64, 0
2, 81444, Control_c, 0, 64, 0
2, 81467, Control_c, 0, 64, 127
2, 81467, Control_c, 0, 64, 127
2, 81501, Note_off_c, 0, 56, 64
2, 81512, Note_off_c, 0, 58, 64
2, 81512, Note_off_c, 0, 62, 64
2, 81525, Note_off_c, 0, 46, 64
2, 81612, Note_on_c, 0, 56, 45
2, 81618, Note_on_c, 0, 65, 38
2, 81622, Note_on_c, 0, 58, 38
2, 81689, Note_off_c, 0, 65, 64
2, 81712, Note_on_c, 0, 78, 57
2, 81715, Note_off_c, 0, 58, 64
2, 81737, Note_off_c, 0, 56, 64
2, 81744, Note_off_c, 0, 80, 64
2, 81811, Note_on_c, 0, 75, 54
2, 81816, Note_on_c, 0, 51, 43
2, 81838, Control_c, 0, 64, 0
2, 81838, Control_c, 0, 64, 0
2, 81842, Note_off_c, 0, 78, 64
2, 81868, Control_c, 0, 64, 127
2, 81868, Control_c, 0, 64, 127
2, 82015, Note_on_c, 0, 54, 27
2, 82024, Note_on_c, 0, 58, 20
2, 82027, Note_on_c, 0, 63, 41
2, 82044, Note_on_c, 0, 66, 52
2, 82050, Note_off_c, 0, 75, 64
2, 82056, Note_off_c, 0, 51, 64
2, 82118, Note_off_c, 0, 58, 64
2, 82121, Note_off_c, 0, 63, 64
2, 82128, Note_off_c, 0, 54, 64
2, 82153, Note_on_c, 0, 78, 46
2, 82169, Note_off_c, 0, 66, 64
2, 82228, Note_on_c, 0, 49, 30
2, 82250, Note_on_c, 0, 54, 32
2, 82261, Note_on_c, 0, 58, 38
2, 82279, Note_on_c, 0, 64, 45
2, 82285, Note_on_c, 0, 77, 45
2, 82299, Note_off_c, 0, 78, 64
2, 82382, Note_on_c, 0, 76, 41
2, 82390, Note_off_c, 0, 49, 64
2, 82402, Note_off_c, 0, 77, 64
2, 82409, Note_off_c, 0, 58, 64
2, 82422, Note_off_c, 0, 54, 64
2, 82458, Note_off_c, 0, 64, 64
2, 82482, Note_on_c, 0, 47, 57
2, 82486, Note_on_c, 0, 75, 58
2, 82490, Control_c, 0, 64, 0
2, 82490, Control_c, 0, 64, 0
2, 82496, Note_off_c, 0, 76, 64
2, 82513, Control_c, 0, 64, 127
2, 82513, Control_c, 0, 64, 127
2, 82570, Note_on_c, 0, 76, 53
2, 82572, Note_off_c, 0, 75, 64
2, 82655, Note_on_c, 0, 77, 61
2, 82656, Note_on_c, 0, 59, 58
2, 82658, Note_on_c, 0, 63, 58
2, 82660, Note_on_c, 0, 57, 32
2, 82662, Note_off_c, 0, 76, 64
2, 82680, Control_c, 0, 64, 0
2, 82680, Control_c, 0, 64, 0
2, 82693, Control_c, 0, 64, 127
2, 82693, Control_c, 0, 64, 127
2, 82764, Control_c, 0, 64, 0
2, 82764, Control_c, 0, 64, 0
2, 82775, Note_off_c, 0, 59, 64
2, 82777, Note_off_c, 0, 63, 64
2, 82784, Note_off_c, 0, 57, 64
2, 82868, Note_on_c, 0, 78, 58
2, 82876, Note_on_c, 0, 63, 57
2, 82880, Note_on_c, 0, 59, 35
2, 82882, Note_on_c, 0, 69, 42
2, 82895, Note_off_c, 0, 77, 64
2, 83050, Note_off_c, 0, 59, 64
2, 83052, Note_off_c, 0, 69, 64
2, 83086, Note_off_c, 0, 63, 64
2, 83133, Note_off_c, 0, 47, 64
2, 83138, Note_on_c, 0, 79, 63
2, 83151, Note_on_c, 0, 40, 52
2, 83156, Note_off_c, 0, 78, 64
2, 83179, Control_c, 0, 64, 0
2, 83179, Control_c, 0, 64, 0
2, 83201, Control_c, 0, 64, 127
2, 83201, Control_c, 0, 64, 127
2, 83328, Note_on_c, 0, 80, 69
2, 83347, Note_off_c, 0, 79, 64
2, 83398, Note_on_c, 0, 76, 67
2, 83410, Note_on_c, 0, 68, 45
2, 83424, Note_on_c, 0, 61, 1
2, 83426, Note_on_c, 0, 59, 57
2, 83438, Note_off_c, 0, 80, 64
2, 83464, Control_c, 0, 64, 0
2, 83464, Control_c, 0, 64, 0
2, 83495, Control_c, 0, 64, 127
2, 83495, Control_c, 0, 64, 127
2, 83565, Note_off_c, 0, 59, 64
2, 83565, Note_off_c, 0, 61, 64
2, 83568, Note_off_c, 0, 68, 64
2, 83631, Note_off_c, 0, 40, 64
2, 83783, Note_off_c, 0, 76, 64
2, 83817, Note_on_c, 0, 75, 58
2, 83879, Note_off_c, 0, 75, 64
2, 83956, Note_on_c, 0, 42, 50
2, 83962, Note_on_c, 0, 75, 52
2, 83985, Control_c, 0, 64, 0
2, 83985, Control_c, 0, 64, 0
2, 84017, Control_c, 0, 64, 127
2, 84017, Control_c, 0, 64, 127
2, 84027, Note_off_c, 0, 75, 64
2, 84054, Note_on_c, 0, 73, 53
2, 84092, Note_on_c, 0, 75, 61
2, 84097, Note_off_c, 0, 73, 64
2, 84123, Note_on_c, 0, 73, 61
2, 84148, Note_off_c, 0, 75, 64
2, 84153, Note_on_c, 0, 64, 53
2, 84156, Note_on_c, 0, 58, 49
2, 84160, Note_on_c, 0, 54, 42
2, 84167, Note_on_c, 0, 72, 60
2, 84167, Control_c, 0, 64, 0
2, 84167, Control_c, 0, 64, 0
2, 84177, Note_off_c, 0, 73, 64
2, 84186, Note_off_c, 0, 58, 64
2, 84190, Control_c, 0, 64, 127
2, 84190, Control_c, 0, 64, 127
2, 84196, Note_off_c, 0, 64, 64
2, 84196, Note_off_c, 0, 42, 64
2, 84199, Note_off_c, 0, 54, 64
2, 84320, Note_on_c, 0, 73, 53
2, 84325, Note_on_c, 0, 54, 42
2, 84329, Note_on_c, 0, 58, 49
2, 84334, Note_on_c, 0, 64, 43
2, 84348, Note_off_c, 0, 72, 64
2, 84355, Note_off_c, 0, 64, 64
2, 84359, Note_off_c, 0, 58, 64
2, 84364, Note_off_c, 0, 54, 64
2, 84509, Note_on_c, 0, 43, 58
2, 84515, Note_on_c, 0, 76, 58
2, 84519, Note_off_c, 0, 73, 64
2, 84532, Control_c, 0, 64, 0
2, 84532, Control_c, 0, 64, 0
2, 84564, Control_c, 0, 64, 127
2, 84564, Control_c, 0, 64, 127
2, 84681, Note_on_c, 0, 51, 46
2, 84690, Note_on_c, 0, 63, 42
2, 84696, Note_on_c, 0, 58, 39
2, 84749, Note_off_c, 0, 43, 64
2, 84750, Note_off_c, 0, 51, 64
2, 84758, Note_off_c, 0, 58, 64
2, 84758, Note_off_c, 0, 63, 64
2, 84850, Note_on_c, 0, 75, 49
2, 84852, Note_on_c, 0, 63, 30
2, 84856, Note_on_c, 0, 58, 42
2, 84869, Note_on_c, 0, 51, 27
2, 84879, Note_off_c, 0, 63, 64
2, 84880, Note_off_c, 0, 76, 64
2, 84885, Note_off_c, 0, 58, 64
2, 84891, Note_off_c, 0, 51, 64
2, 85028, Note_on_c, 0, 44, 56
2, 85029, Control_c, 0, 64, 0
2, 85029, Control_c, 0, 64, 0
2, 85032, Note_on_c, 0, 71, 53
2, 85052, Control_c, 0, 64, 127
2, 85052, Control_c, 0, 64, 127
2, 85076, Note_off_c, 0, 75, 64
2, 85091, Note_on_c, 0, 73, 52
2, 85112, Note_off_c, 0, 71, 64
2, 85164, Note_on_c, 0, 74, 52
2, 85169, Note_on_c, 0, 59, 27
2, 85169, Note_on_c, 0, 51, 38
2, 85175, Note_on_c, 0, 56, 50
2, 85188, Control_c, 0, 64, 0
2, 85188, Control_c, 0, 64, 0
2, 85198, Control_c, 0, 64, 127
2, 85198, Control_c, 0, 64, 127
2, 85209, Note_off_c, 0, 51, 64
2, 85212, Note_off_c, 0, 56, 64
2, 85216, Note_off_c, 0, 73, 64
2, 85221, Note_off_c, 0, 59, 64
2, 85268, Note_off_c, 0, 44, 64
2, 85340, Note_on_c, 0, 75, 57
2, 85347, Note_on_c, 0, 56, 43
2, 85347, Note_on_c, 0, 51, 38
2, 85353, Note_on_c, 0, 59, 23
2, 85362, Note_off_c, 0, 74, 64
2, 85363, Note_off_c, 0, 51, 64
2, 85368, Note_off_c, 0, 59, 64
2, 85368, Note_off_c, 0, 56, 64
2, 85543, Note_on_c, 0, 78, 53
2, 85543, Note_on_c, 0, 37, 53
2, 85565, Note_off_c, 0, 75, 64
2, 85571, Control_c, 0, 64, 0
2, 85571, Control_c, 0, 64, 0
2, 85593, Control_c, 0, 64, 127
2, 85593, Control_c, 0, 64, 127
2, 85656, Note_on_c, 0, 76, 53
2, 85663, Note_off_c, 0, 78, 64
2, 85742, Note_on_c, 0, 56, 24
2, 85744, Note_on_c, 0, 61, 46
2, 85750, Note_on_c, 0, 73, 56
2, 85751, Note_on_c, 0, 64, 42
2, 85783, Note_off_c, 0, 37, 64
2, 85785, Note_off_c, 0, 76, 64
2, 85836, Note_off_c, 0, 73, 64
2, 85955, Note_off_c, 0, 56, 64
2, 85962, Note_off_c, 0, 61, 64
2, 85992, Note_off_c, 0, 64, 64
2, 86000, Note_on_c, 0, 68, 49
2, 86048, Note_on_c, 0, 70, 60
2, 86066, Note_off_c, 0, 68, 64
2, 86084, Note_off_c, 0, 70, 64
2, 86087, Note_on_c, 0, 68, 57
2, 86131, Note_on_c, 0, 67, 58
2, 86134, Note_off_c, 0, 68, 64
2, 86144, Note_on_c, 0, 50, 46
2, 86174, Control_c, 0, 64, 0
2, 86174, Control_c, 0, 64, 0
2, 86203, Control_c, 0, 64, 127
2, 86203, Control_c, 0, 64, 127
2, 86296, Note_on_c, 0, 68, 58
2, 86308, Note_off_c, 0, 67, 64
2, 86337, Note_on_c, 0, 71, 53
2, 86344, Note_on_c, 0, 59, 38
2, 86344, Note_on_c, 0, 56, 49
2, 86347, Note_on_c, 0, 65, 45
2, 86370, Control_c, 0, 64, 0
2, 86370, Control_c, 0, 64, 0
2, 86384, Note_off_c, 0, 50, 64
2, 86390, Note_off_c, 0, 68, 64
2, 86391, Control_c, 0, 64, 127
2, 86391, Control_c, 0, 64, 127
2, 86420, Note_off_c, 0, 56, 64
2, 86426, Note_off_c, 0, 65, 64
2, 86442, Note_off_c, 0, 59, 64
2, 86563, Note_on_c, 0, 56, 31
2, 86564, Note_on_c, 0, 65, 26
2, 86571, Note_on_c, 0, 58, 38
2, 86603, Note_on_c, 0, 70, 60
2, 86610, Note_off_c, 0, 71, 64
2, 86629, Control_c, 0, 64, 0
2, 86629, Control_c, 0, 64, 0
2, 86650, Control_c, 0, 64, 127
2, 86650, Control_c, 0, 64, 127
2, 86656, Note_off_c, 0, 65, 64
2, 86759, Note_off_c, 0, 56, 64
2, 86776, Note_off_c, 0, 58, 64
2, 86790, Note_on_c, 0, 51, 30
2, 86808, Note_on_c, 0, 67, 52
2, 86840, Control_c, 0, 64, 0
2, 86840, Control_c, 0, 64, 0
2, 86842, Note_off_c, 0, 70, 64
2, 86869, Control_c, 0, 64, 127
2, 86869, Control_c, 0, 64, 127
2, 87009, Note_on_c, 0, 55, 38
2, 87010, Note_on_c, 0, 63, 36
2, 87014, Note_on_c, 0, 58, 30
2, 87030, Note_off_c, 0, 51, 64
2, 87078, Note_off_c, 0, 55, 64
2, 87081, Note_off_c, 0, 58, 64
2, 87085, Note_off_c, 0, 63, 64
2, 87162, Note_on_c, 0, 49, 34
2, 87214, Note_on_c, 0, 54, 26
2, 87237, Note_on_c, 0, 58, 30
2, 87265, Note_off_c, 0, 49, 64
2, 87270, Note_on_c, 0, 66, 46
2, 87286, Control_c, 0, 64, 0
2, 87286, Control_c, 0, 64, 0
2, 87299, Note_off_c, 0, 67, 64
2, 87300, Note_on_c, 0, 64, 1
2, 87313, Control_c, 0, 64, 127
2, 87313, Control_c, 0, 64, 127
2, 87323, Note_off_c, 0, 54, 64
2, 87325, Note_off_c, 0, 58, 64
2, 87372, Note_off_c, 0, 64, 64
2, 87527, Note_off_c, 0, 66, 64
2, 87532, Note_on_c, 0, 47, 36
2, 87562, Control_c, 0, 64, 0
2, 87562, Control_c, 0, 64, 0
2, 87572, Control_c, 0, 64, 127
2, 87572, Control_c, 0, 64, 127
2, 87578, Note_on_c, 0, 75, 49
2, 87663, Note_on_c, 0, 76, 54
2, 87685, Note_off_c, 0, 75, 64
2, 87736, Note_on_c, 0, 78, 57
2, 87757, Note_off_c, 0, 76, 64
2, 87759, Note_on_c, 0, 63, 43
2, 87761, Note_on_c, 0, 59, 42
2, 87767, Note_on_c, 0, 54, 34
2, 87772, Note_off_c, 0, 47, 64
2, 87872, Note_off_c, 0, 63, 64
2, 87878, Note_off_c, 0, 59, 64
2, 87888, Note_off_c, 0, 54, 64
2, 87918, Note_on_c, 0, 87, 61
2, 87937, Note_off_c, 0, 78, 64
2, 88114, Note_on_c, 0, 40, 50
2, 88130, Note_on_c, 0, 85, 56
2, 88140, Control_c, 0, 64, 0
2, 88140, Control_c, 0, 64, 0
2, 88157, Note_off_c, 0, 87, 64
2, 88160, Control_c, 0, 64, 127
2, 88160, Control_c, 0, 64, 127
2, 88244, Note_on_c, 0, 83, 53
2, 88255, Note_off_c, 0, 85, 64
2, 88337, Note_on_c, 0, 80, 54
2, 88348, Note_on_c, 0, 59, 36
2, 88350, Note_on_c, 0, 68, 39
2, 88352, Note_on_c, 0, 61, 36
2, 88354, Note_off_c, 0, 40, 64
2, 88354, Note_on_c, 0, 64, 30
2, 88357, Note_off_c, 0, 83, 64
2, 88428, Note_off_c, 0, 59, 64
2, 88432, Note_off_c, 0, 61, 64
2, 88456, Note_off_c, 0, 68, 64
2, 88470, Note_off_c, 0, 64, 64
2, 88510, Note_on_c, 0, 76, 54
2, 88512, Note_off_c, 0, 80, 64
2, 88685, Note_on_c, 0, 75, 49
2, 88690, Note_on_c, 0, 42, 49
2, 88706, Control_c, 0, 64, 0
2, 88706, Control_c, 0, 64, 0
2, 88720, Note_off_c, 0, 76, 64
2, 88729, Control_c, 0, 64, 127
2, 88729, Control_c, 0, 64, 127
2, 88766, Note_off_c, 0, 75, 64
2, 88782, Note_on_c, 0, 73, 45
2, 88808, Note_on_c, 0, 75, 52
2, 88826, Note_off_c, 0, 73, 64
2, 88848, Note_on_c, 0, 73, 61
2, 88871, Note_on_c, 0, 54, 24
2, 88874, Note_on_c, 0, 58, 49
2, 88876, Note_on_c, 0, 72, 58
2, 88876, Note_on_c, 0, 64, 34
2, 88878, Note_off_c, 0, 75, 64
2, 88901, Control_c, 0, 64, 0
2, 88901, Control_c, 0, 64, 0
2, 88904, Note_off_c, 0, 73, 64
2, 88914, Control_c, 0, 64, 127
2, 88914, Control_c, 0, 64, 127
2, 88924, Note_off_c, 0, 54, 64
2, 88930, Note_off_c, 0, 58, 64
2, 88930, Note_off_c, 0, 42, 64
2, 88935, Note_off_c, 0, 64, 64
2, 89036, Note_off_c, 0, 72, 64
2, 89036, Note_on_c, 0, 64, 34
2, 89037, Note_on_c, 0, 54, 46
2, 89037, Control_c, 0, 64, 0
2, 89037, Control_c, 0, 64, 0
2, 89037, Note_on_c, 0, 58, 52
2, 89041, Note_on_c, 0, 73, 61
2, 89050, Control_c, 0, 64, 127
2, 89050, Control_c, 0, 64, 127
2, 89071, Note_off_c, 0, 54, 64
2, 89073, Note_off_c, 0, 58, 64
2, 89095, Note_off_c, 0, 64, 64
2, 89251, Note_on_c, 0, 43, 53
2, 89256, Note_on_c, 0, 76, 56
2, 89258, Note_off_c, 0, 73, 64
2, 89275, Control_c, 0, 64, 0
2, 89275, Control_c, 0, 64, 0
2, 89305, Control_c, 0, 64, 127
2, 89305, Control_c, 0, 64, 127
2, 89389, Control_c, 0, 64, 0
2, 89389, Control_c, 0, 64, 0
2, 89402, Control_c, 0, 64, 127
2, 89402, Control_c, 0, 64, 127
2, 89472, Note_on_c, 0, 63, 39
2, 89476, Note_on_c, 0, 58, 34
2, 89477, Note_on_c, 0, 51, 31
2, 89491, Note_off_c, 0, 43, 64
2, 89500, Control_c, 0, 64, 0
2, 89500, Control_c, 0, 64, 0
2, 89514, Control_c, 0, 64, 127
2, 89514, Control_c, 0, 64, 127
2, 89579, Note_off_c, 0, 58, 64
2, 89589, Note_off_c, 0, 63, 64
2, 89597, Note_off_c, 0, 51, 64
2, 89680, Note_on_c, 0, 63, 24
2, 89682, Note_on_c, 0, 75, 50
2, 89692, Note_on_c, 0, 58, 24
2, 89702, Note_off_c, 0, 76, 64
2, 89702, Note_on_c, 0, 51, 20
2, 89789, Note_off_c, 0, 75, 64
2, 89797, Note_off_c, 0, 58, 64
2, 89830, Note_off_c, 0, 51, 64
2, 89838, Note_off_c, 0, 63, 64
2, 89908, Note_on_c, 0, 44, 53
2, 89921, Note_on_c, 0, 75, 56
2, 89938, Control_c, 0, 64, 0
2, 89938, Control_c, 0, 64, 0
2, 89958, Control_c, 0, 64, 127
2, 89958, Control_c, 0, 64, 127
2, 90148, Note_off_c, 0, 44, 64
2, 90172, Note_off_c, 0, 75, 64
2, 90213, Note_on_c, 0, 53, 24
2, 90216, Note_on_c, 0, 56, 1
2, 90221, Note_on_c, 0, 59, 30
2, 90232, Note_on_c, 0, 63, 26
2, 90304, Note_off_c, 0, 56, 64
2, 90311, Note_on_c, 0, 75, 52
2, 90344, Note_off_c, 0, 75, 64
2, 90348, Note_off_c, 0, 59, 64
2, 90348, Note_on_c, 0, 77, 45
2, 90363, Note_off_c, 0, 53, 64
2, 90374, Note_on_c, 0, 75, 50
2, 90379, Note_off_c, 0, 63, 64
2, 90390, Note_off_c, 0, 77, 64
2, 90417, Note_on_c, 0, 73, 52
2, 90425, Note_off_c, 0, 75, 64
2, 90494, Note_on_c, 0, 71, 49
2, 90514, Note_off_c, 0, 73, 64
2, 90576, Note_on_c, 0, 46, 53
2, 90584, Note_on_c, 0, 70, 54
2, 90600, Control_c, 0, 64, 127
2, 90600, Control_c, 0, 64, 127
2, 90604, Note_off_c, 0, 71, 64
2, 90672, Note_on_c, 0, 75, 52
2, 90718, Note_off_c, 0, 70, 64
2, 90749, Note_on_c, 0, 78, 54
2, 90756, Note_on_c, 0, 63, 38
2, 90756, Note_on_c, 0, 58, 46
2, 90758, Note_on_c, 0, 54, 28
2, 90764, Note_off_c, 0, 75, 64
2, 90773, Control_c, 0, 64, 0
2, 90773, Control_c, 0, 64, 0
2, 90795, Control_c, 0, 64, 127
2, 90795, Control_c, 0, 64, 127
2, 90804, Note_off_c, 0, 58, 64
2, 90811, Note_off_c, 0, 54, 64
2, 90814, Note_off_c, 0, 63, 64
2, 90816, Note_off_c, 0, 46, 64
2, 90912, Note_on_c, 0, 58, 46
2, 90916, Note_on_c, 0, 54, 46
2, 90919, Note_on_c, 0, 63, 31
2, 90927, Note_on_c, 0, 83, 65
2, 90944, Note_off_c, 0, 78, 64
2, 90997, Note_off_c, 0, 58, 64
2, 91001, Note_off_c, 0, 54, 64
2, 91002, Note_off_c, 0, 63, 64
2, 91118, Note_on_c, 0, 82, 52
2, 91121, Note_on_c, 0, 46, 46
2, 91135, Note_off_c, 0, 83, 64
2, 91196, Note_on_c, 0, 77, 52
2, 91219, Note_off_c, 0, 82, 64
2, 91280, Note_on_c, 0, 80, 58
2, 91284, Note_on_c, 0, 58, 38
2, 91286, Note_off_c, 0, 77, 64
2, 91286, Note_on_c, 0, 56, 41
2, 91289, Note_on_c, 0, 62, 38
2, 91299, Control_c, 0, 64, 0
2, 91299, Control_c, 0, 64, 0
2, 91321, Control_c, 0, 64, 127
2, 91321, Control_c, 0, 64, 127
2, 91361, Note_off_c, 0, 46, 64
2, 91375, Note_off_c, 0, 56, 64
2, 91379, Note_off_c, 0, 62, 64
2, 91380, Note_off_c, 0, 58, 64
2, 91451, Note_on_c, 0, 56, 31
2, 91462, Note_on_c, 0, 65, 28
2, 91462, Note_on_c, 0, 58, 34
2, 91521, Note_off_c, 0, 65, 64
2, 91531, Note_off_c, 0, 58, 64
2, 91531, Note_off_c, 0, 56, 64
2, 91536, Note_on_c, 0, 78, 57
2, 91560, Note_off_c, 0, 80, 64
2, 91651, Note_on_c, 0, 51, 45
2, 91654, Note_on_c, 0, 75, 54
2, 91671, Note_off_c, 0, 78, 64
2, 91673, Control_c, 0, 64, 0
2, 91673, Control_c, 0, 64, 0
2, 91696, Control_c, 0, 64, 127
2, 91696, Control_c, 0, 64, 127
2, 91815, Note_off_c, 0, 51, 64
2, 91840, Note_on_c, 0, 63, 53
2, 91852, Note_on_c, 0, 54, 27
2, 91854, Note_on_c, 0, 58, 27
2, 91884, Note_off_c, 0, 58, 64
2, 91886, Note_off_c, 0, 54, 64
2, 91898, Note_off_c, 0, 63, 64
2, 92037, Note_off_c, 0, 75, 64
2, 92041, Note_on_c, 0, 54, 46
2, 92044, Note_on_c, 0, 58, 68
2, 92050, Note_on_c, 0, 78, 71
2, 92050, Note_on_c, 0, 66, 67
2, 92094, Note_off_c, 0, 66, 64
2, 92099, Note_off_c, 0, 58, 64
2, 92106, Note_off_c, 0, 54, 64
2, 92119, Note_off_c, 0, 78, 64
2, 92252, Note_on_c, 0, 92, 67
2, 92253, Note_on_c, 0, 80, 71
2, 92257, Note_on_c, 0, 76, 56
2, 92261, Note_on_c, 0, 70, 56
2, 92292, Note_off_c, 0, 92, 64
2, 92294, Note_off_c, 0, 80, 64
2, 92297, Note_off_c, 0, 70, 64
2, 92297, Note_off_c, 0, 76, 64
2, 92376, Note_on_c, 0, 90, 71
2, 92376, Note_on_c, 0, 66, 73
2, 92380, Note_on_c, 0, 78, 69
2, 92394, Note_off_c, 0, 90, 64
2, 92396, Note_off_c, 0, 78, 64
2, 92415, Note_on_c, 0, 76, 84
2, 92421, Note_on_c, 0, 88, 76
2, 92424, Note_on_c, 0, 54, 84
2, 92443, Note_off_c, 0, 66, 64
2, 92570, Note_off_c, 0, 76, 64
2, 92576, Note_off_c, 0, 88, 64
2, 92598, Note_on_c, 0, 70, 71
2, 92604, Note_on_c, 0, 64, 67
2, 92604, Note_on_c, 0, 42, 60
2, 92610, Note_off_c, 0, 54, 64
2, 92611, Control_c, 0, 64, 0
2, 92611, Control_c, 0, 64, 0
2, 92655, Note_off_c, 0, 64, 64
2, 92662, Control_c, 0, 64, 127
2, 92662, Control_c, 0, 64, 127
2, 92666, Note_off_c, 0, 70, 64
2, 92747, Note_off_c, 0, 42, 64
2, 92769, Note_on_c, 0, 47, 60
2, 92771, Note_on_c, 0, 63, 75
2, 92776, Note_on_c, 0, 71, 56
2, 92780, Control_c, 0, 64, 0
2, 92780, Control_c, 0, 64, 0
2, 92809, Control_c, 0, 64, 127
2, 92809, Control_c, 0, 64, 127
2, 92813, Note_off_c, 0, 63, 64
2, 92825, Note_off_c, 0, 71, 64
2, 92865, Note_off_c, 0, 47, 64
2, 92877, Note_on_c, 0, 66, 68
2, 92882, Note_on_c, 0, 54, 56
2, 92884, Note_on_c, 0, 73, 43
2, 92893, Note_off_c, 0, 66, 64
2, 92900, Note_off_c, 0, 73, 64
2, 92913, Note_on_c, 0, 71, 35
2, 92920, Note_on_c, 0, 75, 69
2, 92924, Control_c, 0, 64, 0
2, 92924, Control_c, 0, 64, 0
2, 92932, Note_on_c, 0, 59, 67
2, 92934, Note_on_c, 0, 63, 67
2, 92950, Note_off_c, 0, 54, 64
2, 92961, Control_c, 0, 64, 127
2, 92961, Control_c, 0, 64, 127
2, 93000, Control_c, 0, 64, 0
2, 93000, Control_c, 0, 64, 0
2, 93046, Note_off_c, 0, 71, 64
2, 93052, Control_c, 0, 64, 0
2, 93052, Control_c, 0, 64, 0
2, 93062, Note_off_c, 0, 75, 64
2, 93092, Note_on_c, 0, 75, 53
2, 93092, Note_on_c, 0, 71, 76
2, 93096, Note_on_c, 0, 78, 71
2, 93101, Note_on_c, 0, 90, 68
2, 93217, Note_off_c, 0, 71, 64
2, 93217, Note_off_c, 0, 75, 64
2, 93221, Note_off_c, 0, 78, 64
2, 93225, Note_off_c, 0, 59, 64
2, 93226, Note_off_c, 0, 90, 64
2, 93227, Note_off_c, 0, 63, 64
2, 93254, Note_on_c, 0, 80, 64
2, 93261, Note_on_c, 0, 92, 67
2, 93261, Note_on_c, 0, 76, 60
2, 93264, Note_on_c, 0, 70, 56
2, 93299, Note_off_c, 0, 80, 64
2, 93300, Note_off_c, 0, 70, 64
2, 93306, Note_off_c, 0, 92, 64
2, 93322, Note_off_c, 0, 76, 64
2, 93368, Note_on_c, 0, 90, 69
2, 93368, Note_on_c, 0, 78, 71
2, 93372, Note_on_c, 0, 66, 69
2, 93384, Note_off_c, 0, 78, 64
2, 93384, Note_off_c, 0, 90, 64
2, 93409, Note_on_c, 0, 76, 69
2, 93414, Note_on_c, 0, 88, 68
2, 93418, Note_on_c, 0, 54, 80
2, 93452, Note_off_c, 0, 66, 64
2, 93579, Note_on_c, 0, 42, 67
2, 93585, Note_on_c, 0, 70, 75
2, 93587, Note_on_c, 0, 64, 68
2, 93590, Note_off_c, 0, 76, 64
2, 93595, Note_off_c, 0, 88, 64
2, 93599, Note_off_c, 0, 54, 64
2, 93611, Control_c, 0, 64, 0
2, 93611, Control_c, 0, 64, 0
2, 93622, Control_c, 0, 64, 127
2, 93622, Control_c, 0, 64, 127
2, 93638, Note_off_c, 0, 64, 64
2, 93653, Note_off_c, 0, 70, 64
2, 93727, Note_off_c, 0, 42, 64
2, 93744, Note_on_c, 0, 47, 65
2, 93745, Note_on_c, 0, 71, 65
2, 93746, Note_on_c, 0, 63, 75
2, 93761, Control_c, 0, 64, 0
2, 93761, Control_c, 0, 64, 0
2, 93782, Note_off_c, 0, 63, 64
2, 93783, Control_c, 0, 64, 127
2, 93783, Control_c, 0, 64, 127
2, 93804, Note_off_c, 0, 71, 64
2, 93858, Note_off_c, 0, 47, 64
2, 93864, Note_on_c, 0, 73, 43
2, 93864, Note_on_c, 0, 66, 67
2, 93864, Note_on_c, 0, 54, 53
2, 93880, Note_off_c, 0, 66, 64
2, 93880, Note_off_c, 0, 73, 64
2, 93895, Control_c, 0, 64, 0
2, 93895, Control_c, 0, 64, 0
2, 93896, Note_on_c, 0, 71, 60
2, 93896, Note_on_c, 0, 63, 67
2, 93896, Note_on_c, 0, 59, 67
2, 93898, Note_on_c, 0, 75, 60
2, 93910, Control_c, 0, 64, 127
2, 93910, Control_c, 0, 64, 127
2, 93931, Note_off_c, 0, 54, 64
2, 93932, Note_off_c, 0, 59, 64
2, 93932, Note_off_c, 0, 63, 64
2, 93944, Note_off_c, 0, 71, 64
2, 93951, Note_off_c, 0, 75, 64
2, 94071, Note_on_c, 0, 75, 78
2, 94072, Note_on_c, 0, 78, 58
2, 94144, Control_c, 0, 64, 0
2, 94144, Control_c, 0, 64, 0
2, 94195, Note_off_c, 0, 75, 64
2, 94205, Note_off_c, 0, 78, 64
2, 94230, Note_on_c, 0, 52, 64
2, 94237, Note_on_c, 0, 88, 67
2, 94240, Note_on_c, 0, 85, 56
2, 94240, Control_c, 0, 64, 0
2, 94240, Control_c, 0, 64, 0
2, 94261, Control_c, 0, 64, 127
2, 94261, Control_c, 0, 64, 127
2, 94360, Note_on_c, 0, 73, 63
2, 94364, Note_on_c, 0, 78, 56
2, 94368, Note_on_c, 0, 82, 58
2, 94376, Note_off_c, 0, 73, 64
2, 94380, Note_off_c, 0, 78, 64
2, 94384, Note_off_c, 0, 82, 64
2, 94386, Note_off_c, 0, 85, 64
2, 94388, Note_off_c, 0, 52, 64
2, 94390, Note_off_c, 0, 88, 64
2, 94400, Note_on_c, 0, 80, 78
2, 94400, Note_on_c, 0, 76, 61
2, 94400, Note_on_c, 0, 68, 69
2, 94403, Note_on_c, 0, 64, 39
2, 94404, Control_c, 0, 64, 0
2, 94404, Control_c, 0, 64, 0
2, 94430, Control_c, 0, 64, 127
2, 94430, Control_c, 0, 64, 127
2, 94485, Note_off_c, 0, 68, 64
2, 94485, Note_off_c, 0, 76, 64
2, 94485, Note_off_c, 0, 80, 64
2, 94488, Note_off_c, 0, 64, 64
2, 94524, Note_on_c, 0, 82, 53
2, 94524, Note_on_c, 0, 78, 38
2, 94524, Note_on_c, 0, 73, 64
2, 94540, Note_off_c, 0, 73, 64
2, 94540, Note_off_c, 0, 78, 64
2, 94540, Note_off_c, 0, 82, 64
2, 94552, Note_on_c, 0, 64, 43
2, 94555, Note_on_c, 0, 68, 76
2, 94561, Note_on_c, 0, 76, 54
2, 94565, Note_on_c, 0, 80, 79
2, 94628, Control_c, 0, 64, 0
2, 94628, Control_c, 0, 64, 0
2, 94657, Note_off_c, 0, 64, 64
2, 94673, Note_off_c, 0, 68, 64
2, 94674, Note_off_c, 0, 76, 64
2, 94706, Note_on_c, 0, 42, 67
2, 94708, Note_off_c, 0, 80, 64
2, 94712, Note_on_c, 0, 83, 56
2, 94714, Note_on_c, 0, 87, 69
2, 94844, Note_on_c, 0, 71, 56
2, 94848, Note_on_c, 0, 76, 53
2, 94852, Note_on_c, 0, 80, 47
2, 94860, Note_off_c, 0, 71, 64
2, 94864, Note_off_c, 0, 76, 64
2, 94868, Note_off_c, 0, 80, 64
2, 94873, Note_off_c, 0, 83, 64
2, 94876, Note_on_c, 0, 63, 63
2, 94879, Note_off_c, 0, 87, 64
2, 94880, Note_on_c, 0, 66, 61
2, 94884, Note_on_c, 0, 78, 69
2, 94884, Note_on_c, 0, 75, 75
2, 94917, Note_off_c, 0, 42, 64
2, 94961, Note_off_c, 0, 63, 64
2, 94965, Note_off_c, 0, 66, 64
2, 94969, Note_off_c, 0, 75, 64
2, 94969, Note_off_c, 0, 78, 64
2, 95008, Note_on_c, 0, 71, 54
2, 95012, Note_on_c, 0, 80, 58
2, 95015, Note_on_c, 0, 76, 49
2, 95024, Note_off_c, 0, 71, 64
2, 95028, Note_off_c, 0, 80, 64
2, 95031, Note_off_c, 0, 76, 64
2, 95040, Note_on_c, 0, 66, 68
2, 95044, Note_on_c, 0, 63, 65
2, 95046, Note_on_c, 0, 75, 31
2, 95051, Note_on_c, 0, 78, 75
2, 95154, Note_off_c, 0, 63, 64
2, 95164, Note_off_c, 0, 75, 64
2, 95170, Note_off_c, 0, 66, 64
2, 95178, Note_off_c, 0, 78, 64
2, 95188, Note_on_c, 0, 82, 64
2, 95195, Note_on_c, 0, 85, 67
2, 95199, Note_on_c, 0, 42, 73
2, 95208, Control_c, 0, 64, 0
2, 95208, Control_c, 0, 64, 0
2, 95242, Control_c, 0, 64, 127
2, 95242, Control_c, 0, 64, 127
2, 95318, Note_off_c, 0, 82, 64
2, 95324, Note_on_c, 0, 75, 54
2, 95325, Note_on_c, 0, 78, 47
2, 95325, Note_on_c, 0, 70, 60
2, 95327, Note_off_c, 0, 85, 64
2, 95331, Note_off_c, 0, 42, 64
2, 95340, Note_off_c, 0, 75, 64
2, 95341, Note_off_c, 0, 70, 64
2, 95341, Note_off_c, 0, 78, 64
2, 95361, Note_on_c, 0, 76, 71
2, 95363, Note_on_c, 0, 73, 79
2, 95368, Note_on_c, 0, 61, 47
2, 95372, Note_on_c, 0, 64, 57
2, 95377, Control_c, 0, 64, 0
2, 95377, Control_c, 0, 64, 0
2, 95392, Control_c, 0, 64, 127
2, 95392, Control_c, 0, 64, 127
2, 95446, Note_off_c, 0, 76, 64
2, 95448, Note_off_c, 0, 73, 64
2, 95453, Note_off_c, 0, 61, 64
2, 95457, Note_off_c, 0, 64, 64
2, 95492, Note_on_c, 0, 75, 1
2, 95496, Note_on_c, 0, 70, 69
2, 95498, Note_on_c, 0, 78, 60
2, 95508, Note_off_c, 0, 75, 64
2, 95512, Note_off_c, 0, 70, 64
2, 95514, Note_off_c, 0, 78, 64
2, 95535, Note_on_c, 0, 64, 69
2, 95537, Note_on_c, 0, 76, 71
2, 95540, Note_on_c, 0, 73, 83
2, 95540, Note_on_c, 0, 61, 53
2, 95648, Note_off_c, 0, 61, 64
2, 95660, Note_off_c, 0, 76, 64
2, 95665, Note_off_c, 0, 64, 64
2, 95667, Note_off_c, 0, 73, 64
2, 95704, Note_on_c, 0, 71, 67
2, 95704, Note_on_c, 0, 47, 73
2, 95706, Note_on_c, 0, 75, 65
2, 95784, Note_off_c, 0, 47, 64
2, 95804, Note_off_c, 0, 75, 64
2, 95806, Note_off_c, 0, 71, 64
2, 95832, Note_on_c, 0, 76, 60
2, 95832, Note_on_c, 0, 73, 26
2, 95848, Note_off_c, 0, 73, 64
2, 95848, Note_off_c, 0, 76, 64
2, 95880, Note_on_c, 0, 80, 79
2, 95880, Note_on_c, 0, 74, 76
2, 95880, Note_on_c, 0, 65, 60
2, 95884, Note_on_c, 0, 59, 67
2, 95925, Control_c, 0, 64, 0
2, 95925, Control_c, 0, 64, 0
2, 95945, Control_c, 0, 64, 127
2, 95945, Control_c, 0, 64, 127
2, 96071, Note_off_c, 0, 74, 64
2, 96081, Note_on_c, 0, 78, 67
2, 96081, Note_on_c, 0, 66, 64
2, 96082, Note_on_c, 0, 75, 67
2, 96091, Note_off_c, 0, 80, 64
2, 96103, Note_off_c, 0, 65, 64
2, 96176, Control_c, 0, 64, 0
2, 96176, Control_c, 0, 64, 0
2, 96212, Note_off_c, 0, 75, 64
2, 96212, Note_off_c, 0, 66, 64
2, 96229, Note_off_c, 0, 78, 64
2, 96292, Note_on_c, 0, 76, 60
2, 96292, Note_on_c, 0, 70, 60
2, 96294, Note_on_c, 0, 92, 69
2, 96294, Note_on_c, 0, 80, 67
2, 96300, Control_c, 0, 64, 0
2, 96300, Control_c, 0, 64, 0
2, 96313, Control_c, 0, 64, 127
2, 96313, Control_c, 0, 64, 127
2, 96322, Note_off_c, 0, 76, 64
2, 96332, Note_off_c, 0, 80, 64
2, 96332, Note_off_c, 0, 59, 64
2, 96336, Note_off_c, 0, 92, 64
2, 96343, Note_off_c, 0, 70, 64
2, 96408, Note_on_c, 0, 90, 71
2, 96412, Note_on_c, 0, 78, 67
2, 96416, Note_on_c, 0, 66, 89
2, 96424, Note_off_c, 0, 90, 64
2, 96428, Note_off_c, 0, 78, 64
2, 96448, Note_on_c, 0, 88, 63
2, 96448, Note_on_c, 0, 54, 84
2, 96450, Note_on_c, 0, 76, 80
2, 96464, Note_off_c, 0, 66, 64
2, 96588, Note_off_c, 0, 76, 64
2, 96599, Note_off_c, 0, 88, 64
2, 96616, Note_off_c, 0, 54, 64
2, 96620, Note_on_c, 0, 70, 69
2, 96625, Note_on_c, 0, 42, 60
2, 96626, Note_on_c, 0, 64, 68
2, 96635, Control_c, 0, 64, 0
2, 96635, Control_c, 0, 64, 0
2, 96671, Note_off_c, 0, 64, 64
2, 96676, Control_c, 0, 64, 127
2, 96676, Control_c, 0, 64, 127
2, 96688, Note_off_c, 0, 70, 64
2, 96764, Note_off_c, 0, 42, 64
2, 96776, Note_on_c, 0, 47, 53
2, 96779, Note_on_c, 0, 63, 73
2, 96786, Note_on_c, 0, 71, 58
2, 96793, Control_c, 0, 64, 0
2, 96793, Control_c, 0, 64, 0
2, 96804, Control_c, 0, 64, 127
2, 96804, Control_c, 0, 64, 127
2, 96815, Note_off_c, 0, 63, 64
2, 96851, Note_off_c, 0, 71, 64
2, 96888, Note_on_c, 0, 73, 19
2, 96888, Note_on_c, 0, 54, 53
2, 96891, Note_off_c, 0, 47, 64
2, 96892, Note_on_c, 0, 66, 69
2, 96904, Note_off_c, 0, 73, 64
2, 96908, Note_off_c, 0, 66, 64
2, 96927, Note_on_c, 0, 75, 71
2, 96928, Note_on_c, 0, 59, 68
2, 96929, Note_on_c, 0, 71, 64
2, 96929, Note_on_c, 0, 63, 68
2, 96951, Note_off_c, 0, 54, 64
2, 97000, Note_off_c, 0, 71, 64
2, 97002, Note_off_c, 0, 59, 64
2, 97017, Note_off_c, 0, 63, 64
2, 97020, Note_off_c, 0, 75, 64
2, 97095, Note_on_c, 0, 90, 80
2, 97096, Note_on_c, 0, 75, 38
2, 97096, Note_on_c, 0, 71, 38
2, 97097, Note_on_c, 0, 78, 79
2, 97157, Note_off_c, 0, 90, 64
2, 97159, Note_off_c, 0, 78, 64
2, 97160, Note_off_c, 0, 71, 64
2, 97160, Note_off_c, 0, 75, 64
2, 97244, Note_on_c, 0, 70, 60
2, 97245, Note_on_c, 0, 76, 60
2, 97248, Note_on_c, 0, 92, 69
2, 97251, Note_on_c, 0, 80, 64
2, 97290, Note_off_c, 0, 76, 64
2, 97295, Note_off_c, 0, 70, 64
2, 97297, Note_off_c, 0, 80, 64
2, 97298, Note_off_c, 0, 92, 64
2, 97372, Note_on_c, 0, 90, 73
2, 97372, Note_on_c, 0, 78, 73
2, 97372, Note_on_c, 0, 66, 79
2, 97388, Note_off_c, 0, 78, 64
2, 97388, Note_off_c, 0, 90, 64
2, 97414, Note_on_c, 0, 54, 73
2, 97421, Note_off_c, 0, 66, 64
2, 97421, Note_on_c, 0, 76, 69
2, 97426, Note_on_c, 0, 88, 67
2, 97544, Note_off_c, 0, 76, 64
2, 97549, Note_off_c, 0, 88, 64
2, 97565, Note_off_c, 0, 54, 64
2, 97571, Note_on_c, 0, 42, 60
2, 97573, Note_on_c, 0, 70, 80
2, 97578, Note_on_c, 0, 64, 69
2, 97599, Control_c, 0, 64, 0
2, 97599, Control_c, 0, 64, 0
2, 97620, Control_c, 0, 64, 127
2, 97620, Control_c, 0, 64, 127
2, 97623, Note_off_c, 0, 64, 64
2, 97647, Note_off_c, 0, 70, 64
2, 97709, Note_off_c, 0, 42, 64
2, 97726, Note_on_c, 0, 63, 78
2, 97730, Note_on_c, 0, 71, 67
2, 97730, Note_on_c, 0, 47, 60
2, 97738, Control_c, 0, 64, 0
2, 97738, Control_c, 0, 64, 0
2, 97752, Control_c, 0, 64, 127
2, 97752, Control_c, 0, 64, 127
2, 97761, Note_off_c, 0, 63, 64
2, 97790, Note_off_c, 0, 71, 64
2, 97832, Note_on_c, 0, 73, 54
2, 97832, Note_on_c, 0, 66, 60
2, 97836, Note_on_c, 0, 54, 53
2, 97838, Note_off_c, 0, 47, 64
2, 97848, Note_off_c, 0, 66, 64
2, 97848, Note_off_c, 0, 73, 64
2, 97872, Note_on_c, 0, 75, 68
2, 97876, Note_on_c, 0, 71, 57
2, 97883, Note_on_c, 0, 63, 71
2, 97899, Note_off_c, 0, 54, 64
2, 98018, Note_off_c, 0, 75, 64
2, 98027, Note_off_c, 0, 71, 64
2, 98038, Note_off_c, 0, 63, 64
2, 98039, Note_on_c, 0, 78, 79
2, 98040, Note_on_c, 0, 75, 58
2, 98200, Note_on_c, 0, 88, 58
2, 98200, Note_on_c, 0, 85, 67
2, 98200, Note_on_c, 0, 52, 69
2, 98209, Note_off_c, 0, 75, 64
2, 98209, Note_off_c, 0, 78, 64
2, 98253, Control_c, 0, 64, 0
2, 98253, Control_c, 0, 64, 0
2, 98268, Control_c, 0, 64, 127
2, 98268, Control_c, 0, 64, 127
2, 98304, Note_on_c, 0, 82, 46
2, 98304, Note_on_c, 0, 73, 54
2, 98306, Note_on_c, 0, 78, 49
2, 98320, Note_off_c, 0, 82, 64
2, 98322, Note_off_c, 0, 78, 64
2, 98332, Note_off_c, 0, 52, 64
2, 98332, Note_off_c, 0, 85, 64
2, 98332, Note_off_c, 0, 88, 64
2, 98344, Note_on_c, 0, 80, 72
2, 98344, Note_on_c, 0, 76, 49
2, 98344, Control_c, 0, 64, 0
2, 98344, Control_c, 0, 64, 0
2, 98348, Note_on_c, 0, 68, 61
2, 98348, Note_on_c, 0, 64, 38
2, 98376, Control_c, 0, 64, 127
2, 98376, Control_c, 0, 64, 127
2, 98412, Note_off_c, 0, 76, 64
2, 98412, Note_off_c, 0, 80, 64
2, 98416, Note_off_c, 0, 64, 64
2, 98416, Note_off_c, 0, 68, 64
2, 98417, Note_off_c, 0, 73, 64
2, 98472, Note_on_c, 0, 82, 54
2, 98476, Note_on_c, 0, 78, 52
2, 98476, Note_on_c, 0, 73, 63
2, 98487, Control_c, 0, 64, 0
2, 98487, Control_c, 0, 64, 0
2, 98488, Note_off_c, 0, 82, 64
2, 98492, Note_off_c, 0, 78, 64
2, 98512, Note_on_c, 0, 80, 67
2, 98512, Note_on_c, 0, 76, 69
2, 98515, Note_on_c, 0, 64, 60
2, 98518, Note_on_c, 0, 68, 63
2, 98527, Control_c, 0, 64, 127
2, 98527, Control_c, 0, 64, 127
2, 98589, Note_off_c, 0, 73, 64
2, 98624, Note_off_c, 0, 76, 64
2, 98624, Note_off_c, 0, 80, 64
2, 98627, Note_off_c, 0, 64, 64
2, 98630, Note_off_c, 0, 68, 64
2, 98652, Note_on_c, 0, 87, 60
2, 98654, Control_c, 0, 64, 0
2, 98654, Control_c, 0, 64, 0
2, 98656, Note_on_c, 0, 83, 67
2, 98659, Note_on_c, 0, 54, 69
2, 98701, Control_c, 0, 64, 127
2, 98701, Control_c, 0, 64, 127
2, 98765, Note_on_c, 0, 71, 43
2, 98768, Note_on_c, 0, 80, 47
2, 98768, Note_on_c, 0, 76, 53
2, 98784, Note_off_c, 0, 76, 64
2, 98784, Note_off_c, 0, 80, 64
2, 98797, Note_off_c, 0, 54, 64
2, 98801, Note_off_c, 0, 83, 64
2, 98804, Note_on_c, 0, 63, 58
2, 98808, Note_on_c, 0, 75, 68
2, 98808, Note_on_c, 0, 66, 41
2, 98809, Note_on_c, 0, 78, 68
2, 98813, Note_off_c, 0, 87, 64
2, 98819, Control_c, 0, 64, 0
2, 98819, Control_c, 0, 64, 0
2, 98851, Control_c, 0, 64, 127
2, 98851, Control_c, 0, 64, 127
2, 98872, Note_off_c, 0, 63, 64
2, 98876, Note_off_c, 0, 66, 64
2, 98876, Note_off_c, 0, 75, 64
2, 98877, Note_off_c, 0, 78, 64
2, 98878, Note_off_c, 0, 71, 64
2, 98940, Note_on_c, 0, 71, 56
2, 98942, Note_on_c, 0, 76, 57
2, 98945, Note_on_c, 0, 80, 60
2, 98958, Note_off_c, 0, 76, 64
2, 98961, Note_off_c, 0, 80, 64
2, 98964, Control_c, 0, 64, 0
2, 98964, Control_c, 0, 64, 0
2, 98980, Note_on_c, 0, 66, 68
2, 98980, Note_on_c, 0, 63, 68
2, 98984, Note_on_c, 0, 78, 61
2, 98984, Note_on_c, 0, 75, 57
2, 99001, Control_c, 0, 64, 127
2, 99001, Control_c, 0, 64, 127
2, 99053, Note_off_c, 0, 71, 64
2, 99069, Control_c, 0, 64, 0
2, 99069, Control_c, 0, 64, 0
2, 99092, Note_off_c, 0, 63, 64
2, 99092, Note_off_c, 0, 66, 64
2, 99096, Note_off_c, 0, 75, 64
2, 99096, Note_off_c, 0, 78, 64
2, 99129, Note_on_c, 0, 42, 75
2, 99132, Note_on_c, 0, 85, 80
2, 99132, Note_on_c, 0, 82, 80
2, 99137, Control_c, 0, 64, 0
2, 99137, Control_c, 0, 64, 0
2, 99169, Control_c, 0, 64, 127
2, 99169, Control_c, 0, 64, 127
2, 99192, Control_c, 0, 64, 0
2, 99192, Control_c, 0, 64, 0
2, 99256, Note_on_c, 0, 75, 43
2, 99256, Note_on_c, 0, 70, 65
2, 99260, Note_on_c, 0, 78, 49
2, 99272, Note_off_c, 0, 75, 64
2, 99276, Note_off_c, 0, 78, 64
2, 99280, Note_off_c, 0, 82, 64
2, 99280, Note_off_c, 0, 85, 64
2, 99287, Note_off_c, 0, 42, 64
2, 99288, Note_on_c, 0, 73, 71
2, 99288, Note_on_c, 0, 61, 24
2, 99292, Note_on_c, 0, 64, 63
2, 99295, Note_on_c, 0, 76, 69
2, 99300, Control_c, 0, 64, 0
2, 99300, Control_c, 0, 64, 0
2, 99336, Control_c, 0, 64, 127
2, 99336, Control_c, 0, 64, 127
2, 99356, Note_off_c, 0, 61, 64
2, 99356, Note_off_c, 0, 73, 64
2, 99360, Note_off_c, 0, 64, 64
2, 99363, Note_off_c, 0, 76, 64
2, 99369, Note_off_c, 0, 70, 64
2, 99440, Note_on_c, 0, 75, 60
2, 99440, Note_on_c, 0, 70, 65
2, 99442, Note_on_c, 0, 78, 53
2, 99456, Note_off_c, 0, 75, 64
2, 99457, Control_c, 0, 64, 0
2, 99457, Control_c, 0, 64, 0
2, 99458, Note_off_c, 0, 78, 64
2, 99476, Note_on_c, 0, 64, 42
2, 99476, Note_on_c, 0, 61, 65
2, 99480, Note_on_c, 0, 76, 80
2, 99482, Note_on_c, 0, 73, 72
2, 99497, Control_c, 0, 64, 127
2, 99497, Control_c, 0, 64, 127
2, 99553, Note_off_c, 0, 70, 64
2, 99840, Note_off_c, 0, 73, 64
2, 99840, Note_off_c, 0, 76, 64
2, 99840, Note_off_c, 0, 61, 64
2, 99840, Note_off_c, 0, 64, 64
2, 99856, Note_on_c, 0, 56, 54
2, 99900, Control_c, 0, 64, 0
2, 99900, Control_c, 0, 64, 0
2, 99902, Note_on_c, 0, 54, 54
2, 99911, Note_off_c, 0, 56, 64
2, 99948, Control_c, 0, 64, 127
2, 99948, Control_c, 0, 64, 127
2, 99970, Note_off_c, 0, 54, 64
2, 100041, Note_on_c, 0, 56, 60
2, 100054, Control_c, 0, 64, 0
2, 100054, Control_c, 0, 64, 0
2, 100083, Note_on_c, 0, 54, 52
2, 100091, Note_off_c, 0, 56, 64
2, 100116, Control_c, 0, 64, 127
2, 100116, Control_c, 0, 64, 127
2, 100225, Control_c, 0, 64, 0
2, 100225, Control_c, 0, 64, 0
2, 100236, Note_on_c, 0, 56, 57
2, 100248, Note_off_c, 0, 54, 64
2, 100278, Control_c, 0, 64, 127
2, 100278, Control_c, 0, 64, 127
2, 100346, Note_off_c, 0, 56, 64
2, 100355, Note_on_c, 0, 54, 45
2, 100384, Note_off_c, 0, 54, 64
2, 100408, Note_on_c, 0, 52, 49
2, 100546, Control_c, 0, 64, 0
2, 100546, Control_c, 0, 64, 0
2, 100566, Note_on_c, 0, 42, 49
2, 100591, Note_off_c, 0, 52, 64
2, 100723, Note_off_c, 0, 42, 64
2, 100734, Note_on_c, 0, 47, 38
2, 100788, Control_c, 0, 64, 127
2, 100788, Control_c, 0, 64, 127
2, 100856, Note_on_c, 0, 49, 42
2, 100863, Note_off_c, 0, 47, 64
2, 100883, Control_c, 0, 64, 0
2, 100883, Control_c, 0, 64, 0
2, 100906, Note_on_c, 0, 51, 53
2, 100909, Note_off_c, 0, 49, 64
2, 101074, Note_on_c, 0, 54, 43
2, 101097, Note_off_c, 0, 51, 64
2, 101236, Note_on_c, 0, 56, 52
2, 101253, Note_off_c, 0, 54, 64
2, 101354, Note_on_c, 0, 54, 45
2, 101361, Note_off_c, 0, 56, 64
2, 101378, Control_c, 0, 64, 127
2, 101378, Control_c, 0, 64, 127
2, 101399, Note_off_c, 0, 54, 64
2, 101411, Note_on_c, 0, 52, 53
2, 101573, Note_on_c, 0, 42, 43
2, 101577, Control_c, 0, 64, 0
2, 101577, Control_c, 0, 64, 0
2, 101596, Note_off_c, 0, 52, 64
2, 101740, Note_on_c, 0, 47, 43
2, 101742, Note_off_c, 0, 42, 64
2, 101867, Note_on_c, 0, 49, 46
2, 101875, Note_off_c, 0, 47, 64
2, 101908, Control_c, 0, 64, 127
2, 101908, Control_c, 0, 64, 127
2, 101920, Note_on_c, 0, 51, 49
2, 101927, Note_off_c, 0, 49, 64
2, 101934, Control_c, 0, 64, 0
2, 101934, Control_c, 0, 64, 0
2, 102084, Note_on_c, 0, 54, 45
2, 102103, Note_off_c, 0, 51, 64
2, 102135, Control_c, 0, 64, 127
2, 102135, Control_c, 0, 64, 127
2, 102252, Note_on_c, 0, 64, 38
2, 102267, Note_off_c, 0, 54, 64
2, 102267, Control_c, 0, 64, 0
2, 102267, Control_c, 0, 64, 0
2, 102366, Note_on_c, 0, 58, 41
2, 102418, Note_on_c, 0, 56, 43
2, 102428, Note_off_c, 0, 58, 64
2, 102480, Note_off_c, 0, 56, 64
2, 102545, Note_on_c, 0, 58, 49
2, 102609, Note_on_c, 0, 56, 38
2, 102616, Note_off_c, 0, 58, 64
2, 102665, Control_c, 0, 64, 127
2, 102665, Control_c, 0, 64, 127
2, 102686, Note_off_c, 0, 64, 64
2, 102767, Note_on_c, 0, 63, 49
2, 102798, Control_c, 0, 64, 0
2, 102798, Control_c, 0, 64, 0
2, 102848, Note_off_c, 0, 56, 64
2, 102876, Note_on_c, 0, 56, 46
2, 102938, Note_on_c, 0, 54, 35
2, 102942, Note_off_c, 0, 56, 64
2, 102988, Note_off_c, 0, 54, 64
2, 103057, Note_on_c, 0, 56, 52
2, 103107, Note_on_c, 0, 54, 35
2, 103122, Note_off_c, 0, 56, 64
2, 103186, Control_c, 0, 64, 127
2, 103186, Control_c, 0, 64, 127
2, 103206, Note_off_c, 0, 63, 64
2, 103229, Control_c, 0, 64, 0
2, 103229, Control_c, 0, 64, 0
2, 103286, Note_on_c, 0, 61, 50
2, 103346, Note_off_c, 0, 54, 64
2, 103403, Note_on_c, 0, 54, 39
2, 103448, Note_on_c, 0, 52, 43
2, 103464, Note_off_c, 0, 54, 64
2, 103504, Note_off_c, 0, 52, 64
2, 103574, Note_on_c, 0, 54, 52
2, 103628, Note_on_c, 0, 52, 43
2, 103645, Note_off_c, 0, 54, 64
2, 103700, Control_c, 0, 64, 127
2, 103700, Control_c, 0, 64, 127
2, 103802, Note_off_c, 0, 52, 64
2, 103806, Note_on_c, 0, 51, 45
2, 103811, Note_off_c, 0, 61, 64
2, 103825, Control_c, 0, 64, 0
2, 103825, Control_c, 0, 64, 0
2, 103924, Note_on_c, 0, 52, 42
2, 103932, Note_off_c, 0, 51, 64
2, 103985, Note_on_c, 0, 56, 45
2, 104003, Note_off_c, 0, 52, 64
2, 104155, Control_c, 0, 64, 127
2, 104155, Control_c, 0, 64, 127
2, 104296, Note_on_c, 0, 54, 34
2, 104309, Note_off_c, 0, 56, 64
2, 104358, Control_c, 0, 64, 0
2, 104358, Control_c, 0, 64, 0
2, 104365, Note_on_c, 0, 56, 52
2, 104385, Note_off_c, 0, 54, 64
2, 104483, Note_on_c, 0, 54, 45
2, 104505, Note_off_c, 0, 56, 64
2, 104513, Note_off_c, 0, 54, 64
2, 104522, Note_on_c, 0, 52, 45
2, 104531, Control_c, 0, 64, 127
2, 104531, Control_c, 0, 64, 127
2, 104578, Note_off_c, 0, 52, 64
2, 104703, Note_on_c, 0, 42, 42
2, 104706, Control_c, 0, 64, 0
2, 104706, Control_c, 0, 64, 0
2, 104772, Control_c, 0, 64, 127
2, 104772, Control_c, 0, 64, 127
2, 104883, Note_off_c, 0, 42, 64
2, 104885, Note_on_c, 0, 47, 38
2, 104885, Control_c, 0, 64, 0
2, 104885, Control_c, 0, 64, 0
2, 104991, Note_off_c, 0, 47, 64
2, 104999, Note_on_c, 0, 49, 41
2, 105048, Note_on_c, 0, 51, 50
2, 105059, Note_off_c, 0, 49, 64
2, 105225, Note_on_c, 0, 54, 43
2, 105248, Note_off_c, 0, 51, 64
2, 105390, Note_on_c, 0, 55, 45
2, 105399, Note_off_c, 0, 54, 64
2, 105505, Note_on_c, 0, 54, 35
2, 105536, Note_off_c, 0, 55, 64
2, 105556, Note_on_c, 0, 52, 45
2, 105559, Control_c, 0, 64, 127
2, 105559, Control_c, 0, 64, 127
2, 105566, Note_off_c, 0, 54, 64
2, 105612, Note_off_c, 0, 52, 64
2, 105732, Note_on_c, 0, 42, 43
2, 105746, Control_c, 0, 64, 0
2, 105746, Control_c, 0, 64, 0
2, 105802, Control_c, 0, 64, 127
2, 105802, Control_c, 0, 64, 127
2, 105901, Note_off_c, 0, 42, 64
2, 105904, Note_on_c, 0, 47, 43
2, 105914, Control_c, 0, 64, 0
2, 105914, Control_c, 0, 64, 0
2, 105981, Control_c, 0, 64, 127
2, 105981, Control_c, 0, 64, 127
2, 106011, Control_c, 0, 64, 0
2, 106011, Control_c, 0, 64, 0
2, 106021, Note_on_c, 0, 49, 45
2, 106037, Note_off_c, 0, 47, 64
2, 106068, Note_on_c, 0, 50, 42
2, 106087, Note_off_c, 0, 49, 64
2, 106231, Note_on_c, 0, 54, 35
2, 106257, Note_off_c, 0, 50, 64
2, 106407, Note_on_c, 0, 55, 31
2, 106415, Note_off_c, 0, 54, 64
2, 106475, Control_c, 0, 64, 127
2, 106475, Control_c, 0, 64, 127
2, 106496, Note_on_c, 0, 54, 31
2, 106515, Note_off_c, 0, 55, 64
2, 106570, Note_on_c, 0, 52, 43
2, 106608, Note_off_c, 0, 54, 64
2, 106752, Note_on_c, 0, 43, 43
2, 106760, Control_c, 0, 64, 0
2, 106760, Control_c, 0, 64, 0
2, 106775, Note_off_c, 0, 52, 64
2, 106927, Note_on_c, 0, 55, 45
2, 106994, Note_on_c, 0, 54, 43
2, 107004, Note_off_c, 0, 43, 64
2, 107012, Note_off_c, 0, 55, 64
2, 107032, Control_c, 0, 64, 127
2, 107032, Control_c, 0, 64, 127
2, 107091, Note_on_c, 0, 52, 45
2, 107100, Note_off_c, 0, 54, 64
2, 107269, Control_c, 0, 64, 0
2, 107269, Control_c, 0, 64, 0
2, 107281, Note_on_c, 0, 44, 49
2, 107305, Note_off_c, 0, 52, 64
2, 107465, Note_on_c, 0, 55, 45
2, 107533, Note_off_c, 0, 44, 64
2, 107596, Note_on_c, 0, 54, 34
2, 107646, Note_off_c, 0, 55, 64
2, 107656, Note_on_c, 0, 52, 42
2, 107668, Note_off_c, 0, 54, 64
2, 107874, Note_on_c, 0, 45, 45
2, 107889, Note_off_c, 0, 52, 64
2, 108092, Note_on_c, 0, 55, 43
2, 108126, Note_off_c, 0, 45, 64
2, 108252, Note_on_c, 0, 54, 42
2, 108269, Note_off_c, 0, 55, 64
2, 108311, Note_on_c, 0, 52, 45
2, 108332, Note_off_c, 0, 54, 64
2, 108622, Note_on_c, 0, 46, 45
2, 108643, Note_off_c, 0, 52, 64
2, 108692, Control_c, 0, 64, 127
2, 108692, Control_c, 0, 64, 127
2, 108954, Note_on_c, 0, 47, 38
2, 108974, Note_off_c, 0, 46, 64
2, 108997, Note_on_c, 0, 78, 52
2, 109022, Control_c, 0, 64, 0
2, 109022, Control_c, 0, 64, 0
2, 109061, Control_c, 0, 64, 127
2, 109061, Control_c, 0, 64, 127
2, 109154, Note_off_c, 0, 47, 64
2, 109158, Note_on_c, 0, 83, 47
2, 109173, Note_off_c, 0, 78, 64
2, 109256, Note_on_c, 0, 55, 32
2, 109270, Note_on_c, 0, 59, 38
2, 109272, Note_on_c, 0, 64, 24
2, 109288, Control_c, 0, 64, 0
2, 109288, Control_c, 0, 64, 0
2, 109307, Note_off_c, 0, 83, 64
2, 109310, Note_on_c, 0, 79, 45
2, 109332, Control_c, 0, 64, 127
2, 109332, Control_c, 0, 64, 127
2, 109333, Note_off_c, 0, 55, 64
2, 109339, Note_off_c, 0, 59, 64
2, 109339, Note_on_c, 0, 81, 53
2, 109342, Note_off_c, 0, 64, 64
2, 109347, Note_off_c, 0, 79, 64
2, 109380, Note_on_c, 0, 79, 56
2, 109399, Note_off_c, 0, 81, 64
2, 109452, Note_off_c, 0, 79, 64
2, 109458, Note_on_c, 0, 78, 49
2, 109458, Note_on_c, 0, 64, 38
2, 109464, Note_on_c, 0, 59, 38
2, 109464, Note_on_c, 0, 55, 38
2, 109490, Note_off_c, 0, 55, 64
2, 109490, Note_off_c, 0, 59, 64
2, 109490, Note_off_c, 0, 64, 64
2, 109542, Note_on_c, 0, 76, 53
2, 109547, Note_off_c, 0, 78, 64
2, 109632, Note_on_c, 0, 47, 52
2, 109637, Note_on_c, 0, 78, 50
2, 109645, Control_c, 0, 64, 0
2, 109645, Control_c, 0, 64, 0
2, 109650, Note_off_c, 0, 76, 64
2, 109659, Control_c, 0, 64, 127
2, 109659, Control_c, 0, 64, 127
2, 109681, Control_c, 0, 64, 0
2, 109681, Control_c, 0, 64, 0
2, 109690, Note_on_c, 0, 71, 31
2, 109702, Note_off_c, 0, 78, 64
2, 109771, Note_on_c, 0, 62, 38
2, 109779, Note_on_c, 0, 59, 23
2, 109785, Note_on_c, 0, 54, 32
2, 109820, Note_off_c, 0, 59, 64
2, 109824, Note_off_c, 0, 62, 64
2, 109825, Note_off_c, 0, 54, 64
2, 109832, Note_off_c, 0, 47, 64
2, 109981, Note_on_c, 0, 62, 41
2, 109984, Control_c, 0, 64, 127
2, 109984, Control_c, 0, 64, 127
2, 109997, Note_on_c, 0, 59, 16
2, 109998, Note_on_c, 0, 54, 15
2, 110049, Note_off_c, 0, 62, 64
2, 110050, Note_off_c, 0, 59, 64
2, 110056, Note_off_c, 0, 54, 64
2, 110174, Note_on_c, 0, 47, 49
2, 110175, Note_on_c, 0, 73, 53
2, 110187, Control_c, 0, 64, 0
2, 110187, Control_c, 0, 64, 0
2, 110208, Control_c, 0, 64, 127
2, 110208, Control_c, 0, 64, 127
2, 110216, Note_off_c, 0, 71, 64
2, 110263, Note_off_c, 0, 73, 64
2, 110269, Note_on_c, 0, 76, 50
2, 110328, Note_off_c, 0, 76, 64
2, 110335, Note_on_c, 0, 74, 42
2, 110335, Note_on_c, 0, 54, 28
2, 110345, Note_on_c, 0, 64, 26
2, 110345, Note_on_c, 0, 58, 23
2, 110351, Control_c, 0, 64, 0
2, 110351, Control_c, 0, 64, 0
2, 110367, Note_on_c, 0, 76, 47
2, 110374, Note_off_c, 0, 47, 64
2, 110376, Note_off_c, 0, 74, 64
2, 110388, Note_off_c, 0, 54, 64
2, 110391, Note_off_c, 0, 64, 64
2, 110397, Note_off_c, 0, 58, 64
2, 110397, Note_on_c, 0, 74, 49
2, 110397, Control_c, 0, 64, 127
2, 110397, Control_c, 0, 64, 127
2, 110413, Note_off_c, 0, 76, 64
2, 110484, Control_c, 0, 64, 0
2, 110484, Control_c, 0, 64, 0
2, 110489, Note_off_c, 0, 74, 64
2, 110489, Note_on_c, 0, 73, 42
2, 110491, Note_on_c, 0, 64, 30
2, 110491, Note_on_c, 0, 58, 32
2, 110498, Note_on_c, 0, 54, 28
2, 110505, Control_c, 0, 64, 127
2, 110505, Control_c, 0, 64, 127
2, 110511, Note_off_c, 0, 64, 64
2, 110525, Note_off_c, 0, 54, 64
2, 110525, Note_off_c, 0, 58, 64
2, 110612, Note_off_c, 0, 73, 64
2, 110633, Note_on_c, 0, 74, 49
2, 110646, Note_on_c, 0, 47, 53
2, 110649, Control_c, 0, 64, 0
2, 110649, Control_c, 0, 64, 0
2, 110688, Note_on_c, 0, 71, 52
2, 110703, Note_off_c, 0, 74, 64
2, 110790, Note_on_c, 0, 54, 32
2, 110796, Note_on_c, 0, 62, 26
2, 110806, Note_on_c, 0, 59, 28
2, 110846, Note_off_c, 0, 47, 64
2, 110849, Note_off_c, 0, 59, 64
2, 110853, Note_off_c, 0, 54, 64
2, 110858, Note_off_c, 0, 62, 64
2, 110996, Control_c, 0, 64, 127
2, 110996, Control_c, 0, 64, 127
2, 111003, Note_on_c, 0, 62, 20
2, 111008, Note_on_c, 0, 59, 19
2, 111009, Note_on_c, 0, 54, 21
2, 111040, Note_off_c, 0, 59, 64
2, 111047, Note_off_c, 0, 62, 64
2, 111054, Note_off_c, 0, 54, 64
2, 111214, Note_on_c, 0, 37, 52
2, 111216, Note_on_c, 0, 73, 53
2, 111238, Control_c, 0, 64, 0
2, 111238, Control_c, 0, 64, 0
2, 111247, Note_off_c, 0, 71, 64
2, 111269, Control_c, 0, 64, 127
2, 111269, Control_c, 0, 64, 127
2, 111335, Note_on_c, 0, 71, 47
2, 111349, Note_off_c, 0, 73, 64
2, 111375, Note_on_c, 0, 69, 52
2, 111381, Note_off_c, 0, 71, 64
2, 111404, Note_on_c, 0, 71, 58
2, 111414, Note_off_c, 0, 37, 64
2, 111418, Note_off_c, 0, 69, 64
2, 111420, Note_on_c, 0, 49, 42
2, 111425, Note_on_c, 0, 59, 36
2, 111434, Note_on_c, 0, 53, 30
2, 111441, Control_c, 0, 64, 0
2, 111441, Control_c, 0, 64, 0
2, 111447, Note_on_c, 0, 69, 57
2, 111454, Note_off_c, 0, 71, 64
2, 111465, Control_c, 0, 64, 127
2, 111465, Control_c, 0, 64, 127
2, 111471, Note_off_c, 0, 59, 64
2, 111471, Note_off_c, 0, 49, 64
2, 111479, Note_off_c, 0, 53, 64
2, 111588, Note_on_c, 0, 59, 31
2, 111589, Note_on_c, 0, 49, 34
2, 111593, Note_on_c, 0, 68, 54
2, 111593, Note_on_c, 0, 53, 31
2, 111607, Note_off_c, 0, 69, 64
2, 111630, Note_off_c, 0, 53, 64
2, 111630, Note_off_c, 0, 59, 64
2, 111633, Note_off_c, 0, 49, 64
2, 111783, Note_on_c, 0, 42, 50
2, 111786, Note_on_c, 0, 69, 52
2, 111792, Note_off_c, 0, 68, 64
2, 111792, Control_c, 0, 64, 0
2, 111792, Control_c, 0, 64, 0
2, 111849, Control_c, 0, 64, 127
2, 111849, Control_c, 0, 64, 127
2, 111870, Note_on_c, 0, 73, 53
2, 111899, Note_off_c, 0, 69, 64
2, 111996, Note_on_c, 0, 49, 31
2, 112000, Note_on_c, 0, 57, 38
2, 112001, Control_c, 0, 64, 0
2, 112001, Control_c, 0, 64, 0
2, 112032, Control_c, 0, 64, 127
2, 112032, Control_c, 0, 64, 127
2, 112037, Note_off_c, 0, 73, 64
2, 112091, Note_off_c, 0, 42, 64
2, 112267, Note_on_c, 0, 61, 69
2, 112295, Note_off_c, 0, 57, 64
2, 112301, Note_off_c, 0, 49, 64
2, 112310, Control_c, 0, 64, 0
2, 112310, Control_c, 0, 64, 0
2, 112348, Control_c, 0, 64, 127
2, 112348, Control_c, 0, 64, 127
2, 112557, Note_on_c, 0, 59, 56
2, 112576, Note_off_c, 0, 61, 64
2, 112643, Note_off_c, 0, 59, 64
2, 112661, Note_on_c, 0, 57, 58
2, 112680, Note_on_c, 0, 59, 49
2, 112695, Note_off_c, 0, 57, 64
2, 112718, Note_on_c, 0, 57, 60
2, 112730, Note_off_c, 0, 59, 64
2, 112740, Control_c, 0, 64, 0
2, 112740, Control_c, 0, 64, 0
2, 112796, Control_c, 0, 64, 127
2, 112796, Control_c, 0, 64, 127
2, 112878, Note_on_c, 0, 56, 46
2, 112891, Note_off_c, 0, 57, 64
2, 112919, Control_c, 0, 64, 0
2, 112919, Control_c, 0, 64, 0
2, 112932, Control_c, 0, 64, 127
2, 112932, Control_c, 0, 64, 127
2, 113074, Note_on_c, 0, 57, 58
2, 113083, Note_off_c, 0, 56, 64
2, 113090, Control_c, 0, 64, 0
2, 113090, Control_c, 0, 64, 0
2, 113387, Note_on_c, 0, 61, 53
2, 113414, Note_off_c, 0, 57, 64
2, 113506, Control_c, 0, 64, 127
2, 113506, Control_c, 0, 64, 127
2, 113868, Note_on_c, 0, 56, 47
2, 113868, Note_on_c, 0, 49, 46
2, 113875, Note_off_c, 0, 61, 64
2, 113878, Note_on_c, 0, 59, 36
2, 113909, Control_c, 0, 64, 0
2, 113909, Control_c, 0, 64, 0
2, 113966, Control_c, 0, 64, 127
2, 113966, Control_c, 0, 64, 127
2, 114095, Note_on_c, 0, 57, 58
2, 114097, Note_on_c, 0, 54, 53
2, 114109, Note_off_c, 0, 56, 64
2, 114111, Note_off_c, 0, 59, 64
2, 114119, Control_c, 0, 64, 0
2, 114119, Control_c, 0, 64, 0
2, 114158, Control_c, 0, 64, 127
2, 114158, Control_c, 0, 64, 127
2, 114222, Note_off_c, 0, 57, 64
2, 114276, Note_on_c, 0, 61, 58
2, 114276, Note_on_c, 0, 57, 47
2, 114282, Note_off_c, 0, 54, 64
2, 114331, Note_off_c, 0, 61, 64
2, 114394, Note_off_c, 0, 57, 64
2, 114397, Note_on_c, 0, 59, 60
2, 114428, Note_on_c, 0, 61, 62
2, 114445, Note_off_c, 0, 59, 64
2, 114461, Note_on_c, 0, 56, 38
2, 114472, Note_on_c, 0, 59, 54
2, 114472, Control_c, 0, 64, 0
2, 114472, Control_c, 0, 64, 0
2, 114487, Note_off_c, 0, 61, 64
2, 114513, Control_c, 0, 64, 127
2, 114513, Control_c, 0, 64, 127
2, 114554, Note_on_c, 0, 57, 44
2, 114562, Note_off_c, 0, 56, 64
2, 114565, Note_off_c, 0, 59, 64
2, 114575, Note_on_c, 0, 54, 35
2, 114618, Note_off_c, 0, 57, 64
2, 114620, Control_c, 0, 64, 0
2, 114620, Control_c, 0, 64, 0
2, 114626, Note_on_c, 0, 61, 60
2, 114641, Note_off_c, 0, 54, 64
2, 114643, Note_on_c, 0, 57, 52
2, 114657, Control_c, 0, 64, 127
2, 114657, Control_c, 0, 64, 127
2, 114675, Note_off_c, 0, 61, 64
2, 114698, Note_off_c, 0, 57, 64
2, 114814, Note_on_c, 0, 61, 50
2, 114821, Note_on_c, 0, 57, 54
2, 114842, Note_off_c, 0, 49, 64
2, 114873, Note_off_c, 0, 57, 64
2, 114896, Note_off_c, 0, 61, 64
2, 114919, Note_on_c, 0, 59, 58
2, 114949, Note_on_c, 0, 61, 69
2, 114958, Note_off_c, 0, 59, 64
2, 114983, Note_on_c, 0, 49, 47
2, 114987, Note_on_c, 0, 59, 67
2, 114988, Note_on_c, 0, 56, 56
2, 114995, Note_off_c, 0, 61, 64
2, 115004, Control_c, 0, 64, 0
2, 115004, Control_c, 0, 64, 0
2, 115041, Control_c, 0, 64, 127
2, 115041, Control_c, 0, 64, 127
2, 115156, Note_off_c, 0, 56, 64
2, 115156, Note_on_c, 0, 54, 54
2, 115161, Note_on_c, 0, 58, 64
2, 115168, Note_off_c, 0, 59, 64
2, 115168, Control_c, 0, 64, 0
2, 115168, Control_c, 0, 64, 0
2, 115199, Control_c, 0, 64, 127
2, 115199, Control_c, 0, 64, 127
2, 115280, Note_off_c, 0, 58, 64
2, 115320, Note_off_c, 0, 54, 64
2, 115324, Note_on_c, 0, 58, 73
2, 115329, Note_on_c, 0, 61, 60
2, 115374, Note_off_c, 0, 61, 64
2, 115428, Note_on_c, 0, 59, 43
2, 115448, Note_off_c, 0, 58, 64
2, 115456, Note_on_c, 0, 61, 56
2, 115463, Note_off_c, 0, 59, 64
2, 115491, Note_on_c, 0, 56, 49
2, 115492, Control_c, 0, 64, 0
2, 115492, Control_c, 0, 64, 0
2, 115498, Note_on_c, 0, 59, 67
2, 115503, Note_off_c, 0, 61, 64
2, 115517, Control_c, 0, 64, 127
2, 115517, Control_c, 0, 64, 127
2, 115591, Note_off_c, 0, 49, 64
2, 115608, Note_off_c, 0, 56, 64
2, 115608, Note_on_c, 0, 58, 69
2, 115610, Note_on_c, 0, 54, 43
2, 115616, Note_off_c, 0, 59, 64
2, 115730, Note_on_c, 0, 42, 60
2, 115737, Note_on_c, 0, 66, 64
2, 115765, Control_c, 0, 64, 0
2, 115765, Control_c, 0, 64, 0
2, 115790, Note_off_c, 0, 58, 64
2, 115792, Note_off_c, 0, 54, 64
2, 115826, Control_c, 0, 64, 127
2, 115826, Control_c, 0, 64, 127
2, 116065, Note_off_c, 0, 66, 64
2, 116084, Note_on_c, 0, 78, 53
2, 116100, Note_off_c, 0, 42, 64
2, 116373, Note_on_c, 0, 47, 52
2, 116415, Control_c, 0, 64, 0
2, 116415, Control_c, 0, 64, 0
2, 116454, Control_c, 0, 64, 127
2, 116454, Control_c, 0, 64, 127
2, 116538, Note_on_c, 0, 83, 38
2, 116546, Note_off_c, 0, 78, 64
2, 116573, Note_off_c, 0, 47, 64
2, 116657, Note_on_c, 0, 64, 23
2, 116661, Note_on_c, 0, 55, 17
2, 116667, Note_on_c, 0, 59, 26
2, 116673, Note_off_c, 0, 83, 64
2, 116694, Note_on_c, 0, 79, 49
2, 116712, Control_c, 0, 64, 0
2, 116712, Control_c, 0, 64, 0
2, 116722, Note_on_c, 0, 81, 53
2, 116735, Note_off_c, 0, 79, 64
2, 116735, Note_off_c, 0, 55, 64
2, 116736, Control_c, 0, 64, 127
2, 116736, Control_c, 0, 64, 127
2, 116743, Note_off_c, 0, 64, 64
2, 116748, Note_off_c, 0, 59, 64
2, 116760, Note_on_c, 0, 79, 52
2, 116780, Note_off_c, 0, 81, 64
2, 116843, Note_off_c, 0, 79, 64
2, 116853, Note_on_c, 0, 78, 46
2, 116857, Note_on_c, 0, 64, 32
2, 116861, Note_on_c, 0, 55, 24
2, 116865, Note_on_c, 0, 59, 20
2, 116877, Note_off_c, 0, 59, 64
2, 116880, Note_off_c, 0, 55, 64
2, 116884, Note_off_c, 0, 64, 64
2, 116930, Note_on_c, 0, 76, 50
2, 116940, Note_off_c, 0, 78, 64
2, 117023, Note_on_c, 0, 78, 52
2, 117025, Note_on_c, 0, 47, 50
2, 117033, Control_c, 0, 64, 0
2, 117033, Control_c, 0, 64, 0
2, 117038, Note_off_c, 0, 76, 64
2, 117074, Control_c, 0, 64, 127
2, 117074, Control_c, 0, 64, 127
2, 117079, Note_on_c, 0, 71, 31
2, 117089, Note_off_c, 0, 78, 64
2, 117135, Control_c, 0, 64, 0
2, 117135, Control_c, 0, 64, 0
2, 117181, Note_on_c, 0, 62, 30
2, 117183, Note_on_c, 0, 59, 23
2, 117183, Note_on_c, 0, 54, 31
2, 117225, Note_off_c, 0, 47, 64
2, 117233, Note_off_c, 0, 59, 64
2, 117233, Note_off_c, 0, 62, 64
2, 117235, Note_off_c, 0, 54, 64
2, 117360, Control_c, 0, 64, 127
2, 117360, Control_c, 0, 64, 127
2, 117366, Note_on_c, 0, 54, 23
2, 117370, Note_on_c, 0, 59, 21
2, 117372, Note_on_c, 0, 62, 23
2, 117410, Note_off_c, 0, 59, 64
2, 117414, Note_off_c, 0, 62, 64
2, 117419, Note_off_c, 0, 54, 64
2, 117534, Note_on_c, 0, 73, 52
2, 117542, Note_on_c, 0, 47, 50
2, 117597, Note_off_c, 0, 71, 64
2, 117642, Note_off_c, 0, 73, 64
2, 117643, Note_on_c, 0, 76, 46
2, 117695, Note_on_c, 0, 74, 47
2, 117701, Note_off_c, 0, 76, 64
2, 117710, Note_on_c, 0, 54, 26
2, 117717, Note_on_c, 0, 64, 16
2, 117717, Note_on_c, 0, 58, 28
2, 117724, Control_c, 0, 64, 0
2, 117724, Control_c, 0, 64, 0
2, 117727, Note_on_c, 0, 76, 53
2, 117732, Note_off_c, 0, 74, 64
2, 117742, Note_off_c, 0, 47, 64
2, 117757, Note_on_c, 0, 74, 56
2, 117757, Control_c, 0, 64, 127
2, 117757, Control_c, 0, 64, 127
2, 117767, Note_off_c, 0, 54, 64
2, 117772, Note_off_c, 0, 58, 64
2, 117773, Note_off_c, 0, 76, 64
2, 117779, Note_off_c, 0, 64, 64
2, 117829, Control_c, 0, 64, 0
2, 117829, Control_c, 0, 64, 0
2, 117861, Note_off_c, 0, 74, 64
2, 117867, Note_on_c, 0, 64, 16
2, 117869, Note_on_c, 0, 54, 30
2, 117871, Note_on_c, 0, 73, 46
2, 117871, Note_on_c, 0, 58, 30
2, 117877, Control_c, 0, 64, 127
2, 117877, Control_c, 0, 64, 127
2, 117887, Note_off_c, 0, 64, 64
2, 117891, Note_off_c, 0, 58, 64
2, 117897, Note_off_c, 0, 54, 64
2, 117997, Note_off_c, 0, 73, 64
2, 118027, Note_on_c, 0, 74, 52
2, 118028, Note_on_c, 0, 47, 56
2, 118041, Control_c, 0, 64, 0
2, 118041, Control_c, 0, 64, 0
2, 118069, Control_c, 0, 64, 127
2, 118069, Control_c, 0, 64, 127
2, 118086, Note_on_c, 0, 71, 41
2, 118104, Note_off_c, 0, 74, 64
2, 118196, Note_on_c, 0, 54, 38
2, 118203, Note_on_c, 0, 62, 34
2, 118206, Note_on_c, 0, 59, 38
2, 118206, Control_c, 0, 64, 0
2, 118206, Control_c, 0, 64, 0
2, 118228, Note_off_c, 0, 47, 64
2, 118231, Control_c, 0, 64, 127
2, 118231, Control_c, 0, 64, 127
2, 118240, Note_off_c, 0, 71, 64
2, 118382, Note_off_c, 0, 54, 64
2, 118398, Note_off_c, 0, 59, 64
2, 118405, Note_off_c, 0, 62, 64
2, 118435, Note_on_c, 0, 50, 60
2, 118649, Note_on_c, 0, 65, 30
2, 118654, Note_on_c, 0, 59, 34
2, 118680, Control_c, 0, 64, 0
2, 118680, Control_c, 0, 64, 0
2, 118710, Control_c, 0, 64, 127
2, 118710, Control_c, 0, 64, 127
2, 118764, Note_off_c, 0, 65, 64
2, 118766, Note_on_c, 0, 55, 42
2, 118770, Note_off_c, 0, 59, 64
2, 118790, Note_off_c, 0, 50, 64
2, 118874, Note_on_c, 0, 52, 38
2, 118889, Note_on_c, 0, 64, 36
2, 118892, Note_off_c, 0, 55, 64
2, 118892, Note_on_c, 0, 60, 30
2, 118903, Control_c, 0, 64, 0
2, 118903, Control_c, 0, 64, 0
2, 118920, Note_on_c, 0, 53, 46
2, 118935, Note_off_c, 0, 52, 64
2, 118938, Control_c, 0, 64, 127
2, 118938, Control_c, 0, 64, 127
2, 118949, Note_off_c, 0, 60, 64
2, 118949, Note_off_c, 0, 64, 64
2, 118960, Note_on_c, 0, 52, 49
2, 118988, Note_off_c, 0, 53, 64
2, 119036, Control_c, 0, 64, 0
2, 119036, Control_c, 0, 64, 0
2, 119043, Note_on_c, 0, 60, 36
2, 119043, Note_on_c, 0, 50, 42
2, 119049, Note_off_c, 0, 52, 64
2, 119050, Note_on_c, 0, 64, 26
2, 119072, Control_c, 0, 64, 127
2, 119072, Control_c, 0, 64, 127
2, 119102, Note_off_c, 0, 64, 64
2, 119102, Note_off_c, 0, 50, 64
2, 119104, Note_off_c, 0, 60, 64
2, 119119, Note_on_c, 0, 48, 31
2, 119198, Control_c, 0, 64, 0
2, 119198, Control_c, 0, 64, 0
2, 119203, Note_off_c, 0, 48, 64
2, 119203, Note_on_c, 0, 50, 49
2, 119208, Note_on_c, 0, 55, 24
2, 119210, Note_on_c, 0, 65, 24
2, 119211, Note_on_c, 0, 59, 32
2, 119238, Control_c, 0, 64, 127
2, 119238, Control_c, 0, 64, 127
2, 119278, Note_off_c, 0, 55, 64
2, 119282, Note_off_c, 0, 59, 64
2, 119282, Note_off_c, 0, 65, 64
2, 119306, Note_off_c, 0, 50, 64
2, 119319, Note_on_c, 0, 43, 48
2, 119358, Note_on_c, 0, 65, 31
2, 119360, Note_on_c, 0, 59, 30
2, 119365, Note_on_c, 0, 50, 50
2, 119368, Control_c, 0, 64, 0
2, 119368, Control_c, 0, 64, 0
2, 119374, Note_on_c, 0, 55, 19
2, 119391, Control_c, 0, 64, 127
2, 119391, Control_c, 0, 64, 127
2, 119407, Note_off_c, 0, 43, 64
2, 119425, Note_off_c, 0, 65, 64
2, 119456, Note_off_c, 0, 55, 64
2, 119465, Note_off_c, 0, 59, 64
2, 119511, Note_off_c, 0, 50, 64
2, 119511, Note_on_c, 0, 48, 50
2, 119512, Note_on_c, 0, 60, 38
2, 119520, Note_on_c, 0, 64, 36
2, 119524, Control_c, 0, 64, 0
2, 119524, Control_c, 0, 64, 0
2, 119571, Note_off_c, 0, 64, 64
2, 119571, Control_c, 0, 64, 127
2, 119571, Control_c, 0, 64, 127
2, 119587, Note_off_c, 0, 60, 64
2, 119652, Note_on_c, 0, 50, 49
2, 119656, Note_off_c, 0, 48, 64
2, 119661, Note_on_c, 0, 59, 38
2, 119661, Control_c, 0, 64, 0
2, 119661, Control_c, 0, 64, 0
2, 119668, Note_on_c, 0, 65, 38
2, 119694, Control_c, 0, 64, 127
2, 119694, Control_c, 0, 64, 127
2, 119720, Note_off_c, 0, 65, 64
2, 119728, Note_on_c, 0, 55, 49
2, 119730, Note_off_c, 0, 50, 64
2, 119750, Note_off_c, 0, 59, 64
2, 119810, Control_c, 0, 64, 0
2, 119810, Control_c, 0, 64, 0
2, 119815, Note_on_c, 0, 52, 50
2, 119820, Note_on_c, 0, 64, 36
2, 119820, Note_on_c, 0, 60, 30
2, 119830, Note_off_c, 0, 55, 64
2, 119848, Control_c, 0, 64, 127
2, 119848, Control_c, 0, 64, 127
2, 119868, Note_on_c, 0, 53, 50
2, 119874, Note_off_c, 0, 60, 64
2, 119874, Note_off_c, 0, 52, 64
2, 119881, Note_off_c, 0, 64, 64
2, 119904, Note_on_c, 0, 52, 45
2, 119917, Note_off_c, 0, 53, 64
2, 119949, Note_on_c, 0, 60, 34
2, 119959, Control_c, 0, 64, 0
2, 119959, Control_c, 0, 64, 0
2, 119964, Note_on_c, 0, 64, 27
2, 119972, Note_on_c, 0, 50, 39
2, 119975, Control_c, 0, 64, 127
2, 119975, Control_c, 0, 64, 127
2, 119988, Note_off_c, 0, 52, 64
2, 120022, Note_off_c, 0, 64, 64
2, 120032, Note_off_c, 0, 60, 64
2, 120041, Note_off_c, 0, 50, 64
2, 120047, Note_on_c, 0, 48, 49
2, 120101, Control_c, 0, 64, 0
2, 120101, Control_c, 0, 64, 0
2, 120109, Note_on_c, 0, 50, 49
2, 120116, Note_on_c, 0, 65, 20
2, 120119, Note_off_c, 0, 48, 64
2, 120120, Note_on_c, 0, 59, 23
2, 120120, Note_on_c, 0, 55, 17
2, 120149, Control_c, 0, 64, 127
2, 120149, Control_c, 0, 64, 127
2, 120171, Note_off_c, 0, 55, 64
2, 120177, Note_off_c, 0, 65, 64
2, 120191, Note_off_c, 0, 59, 64
2, 120205, Note_off_c, 0, 50, 64
2, 120228, Note_on_c, 0, 43, 41
2, 120260, Note_on_c, 0, 55, 17
2, 120261, Note_on_c, 0, 65, 30
2, 120261, Note_on_c, 0, 59, 34
2, 120267, Note_on_c, 0, 50, 49
2, 120269, Control_c, 0, 64, 127
2, 120269, Control_c, 0, 64, 127
2, 120271, Control_c, 0, 64, 0
2, 120271, Control_c, 0, 64, 0
2, 120284, Control_c, 0, 64, 127
2, 120284, Control_c, 0, 64, 127
2, 120311, Note_off_c, 0, 55, 64
2, 120311, Note_off_c, 0, 43, 64
2, 120326, Note_off_c, 0, 65, 64
2, 120358, Note_off_c, 0, 59, 64
2, 120401, Note_off_c, 0, 50, 64
2, 120409, Control_c, 0, 64, 0
2, 120409, Control_c, 0, 64, 0
2, 120413, Note_on_c, 0, 48, 46
2, 120417, Note_on_c, 0, 60, 32
2, 120418, Note_on_c, 0, 64, 36
2, 120454, Control_c, 0, 64, 127
2, 120454, Control_c, 0, 64, 127
2, 120485, Note_off_c, 0, 64, 64
2, 120538, Note_off_c, 0, 60, 64
2, 120550, Note_on_c, 0, 50, 52
2, 120555, Note_off_c, 0, 48, 64
2, 120556, Note_on_c, 0, 59, 30
2, 120556, Note_on_c, 0, 55, 17
2, 120562, Note_on_c, 0, 65, 30
2, 120562, Control_c, 0, 64, 0
2, 120562, Control_c, 0, 64, 0
2, 120569, Control_c, 0, 64, 127
2, 120569, Control_c, 0, 64, 127
2, 120594, Control_c, 0, 64, 127
2, 120594, Control_c, 0, 64, 127
2, 120607, Note_off_c, 0, 55, 64
2, 120628, Note_off_c, 0, 65, 64
2, 120673, Note_on_c, 0, 43, 43
2, 120682, Note_off_c, 0, 50, 64
2, 120705, Note_on_c, 0, 64, 32
2, 120705, Note_on_c, 0, 60, 36
2, 120710, Note_on_c, 0, 48, 47
2, 120715, Note_off_c, 0, 59, 64
2, 120715, Control_c, 0, 64, 0
2, 120715, Control_c, 0, 64, 0
2, 120745, Control_c, 0, 64, 127
2, 120745, Control_c, 0, 64, 127
2, 120766, Note_off_c, 0, 43, 64
2, 120780, Note_off_c, 0, 64, 64
2, 120858, Note_on_c, 0, 50, 46
2, 120863, Note_off_c, 0, 60, 64
2, 120870, Note_on_c, 0, 65, 21
2, 120870, Note_on_c, 0, 59, 23
2, 120875, Note_off_c, 0, 48, 64
2, 120875, Control_c, 0, 64, 0
2, 120875, Control_c, 0, 64, 0
2, 120886, Note_on_c, 0, 55, 13
2, 120916, Control_c, 0, 64, 127
2, 120916, Control_c, 0, 64, 127
2, 120945, Note_off_c, 0, 65, 64
2, 120993, Note_on_c, 0, 43, 27
2, 121008, Note_off_c, 0, 50, 64
2, 121030, Note_on_c, 0, 64, 19
2, 121030, Note_on_c, 0, 48, 45
2, 121037, Note_on_c, 0, 60, 21
2, 121040, Note_off_c, 0, 59, 64
2, 121047, Control_c, 0, 64, 0
2, 121047, Control_c, 0, 64, 0
2, 121059, Note_off_c, 0, 55, 64
2, 121069, Control_c, 0, 64, 127
2, 121069, Control_c, 0, 64, 127
2, 121092, Note_off_c, 0, 43, 64
2, 121119, Note_off_c, 0, 64, 64
2, 121203, Note_on_c, 0, 50, 38
2, 121205, Note_on_c, 0, 65, 21
2, 121205, Note_on_c, 0, 59, 21
2, 121213, Note_off_c, 0, 60, 64
2, 121213, Note_off_c, 0, 48, 64
2, 121226, Control_c, 0, 64, 0
2, 121226, Control_c, 0, 64, 0
2, 121240, Note_on_c, 0, 55, 1
2, 121258, Control_c, 0, 64, 127
2, 121258, Control_c, 0, 64, 127
2, 121278, Note_off_c, 0, 65, 64
2, 121343, Note_on_c, 0, 43, 32
2, 121370, Note_off_c, 0, 50, 64
2, 121382, Note_on_c, 0, 64, 16
2, 121390, Note_on_c, 0, 60, 21
2, 121393, Note_on_c, 0, 48, 32
2, 121404, Note_off_c, 0, 59, 64
2, 121407, Control_c, 0, 64, 0
2, 121407, Control_c, 0, 64, 0
2, 121415, Note_off_c, 0, 55, 64
2, 121429, Control_c, 0, 64, 127
2, 121429, Control_c, 0, 64, 127
2, 121462, Note_off_c, 0, 64, 64
2, 121475, Note_off_c, 0, 43, 64
2, 121566, Note_off_c, 0, 48, 64
2, 121569, Note_on_c, 0, 65, 16
2, 121573, Note_on_c, 0, 50, 28
2, 121575, Note_on_c, 0, 59, 21
2, 121583, Note_off_c, 0, 60, 64
2, 121584, Note_on_c, 0, 55, 12
2, 121605, Control_c, 0, 64, 0
2, 121605, Control_c, 0, 64, 0
2, 121618, Control_c, 0, 64, 127
2, 121618, Control_c, 0, 64, 127
2, 121680, Note_off_c, 0, 65, 64
2, 121687, Note_off_c, 0, 59, 64
2, 121694, Note_off_c, 0, 55, 64
2, 121706, Note_off_c, 0, 50, 64
2, 121725, Note_on_c, 0, 43, 27
2, 121771, Note_on_c, 0, 59, 21
2, 121775, Note_on_c, 0, 55, 15
2, 121780, Note_on_c, 0, 65, 16
2, 121780, Note_on_c, 0, 50, 39
2, 121804, Control_c, 0, 64, 0
2, 121804, Control_c, 0, 64, 0
2, 121834, Control_c, 0, 64, 127
2, 121834, Control_c, 0, 64, 127
2, 121897, Note_off_c, 0, 65, 64
2, 121989, Note_on_c, 0, 64, 24
2, 121989, Note_on_c, 0, 60, 20
2, 121998, Note_off_c, 0, 50, 64
2, 122000, Note_on_c, 0, 48, 28
2, 122012, Note_off_c, 0, 59, 64
2, 122018, Note_off_c, 0, 43, 64
2, 122027, Control_c, 0, 64, 0
2, 122027, Control_c, 0, 64, 0
2, 122050, Note_off_c, 0, 55, 64
2, 122058, Control_c, 0, 64, 127
2, 122058, Control_c, 0, 64, 127
2, 122095, Note_off_c, 0, 64, 64
2, 122207, Note_on_c, 0, 65, 16
2, 122211, Note_on_c, 0, 59, 20
2, 122211, Note_on_c, 0, 50, 35
2, 122217, Note_off_c, 0, 60, 64
2, 122218, Note_on_c, 0, 55, 15
2, 122221, Note_off_c, 0, 48, 64
2, 122240, Control_c, 0, 64, 0
2, 122240, Control_c, 0, 64, 0
2, 122271, Control_c, 0, 64, 127
2, 122271, Control_c, 0, 64, 127
2, 122338, Note_off_c, 0, 59, 64
2, 122338, Note_off_c, 0, 65, 64
2, 122381, Note_off_c, 0, 50, 64
2, 122390, Note_on_c, 0, 43, 31
2, 122401, Note_off_c, 0, 55, 64
2, 122451, Note_on_c, 0, 59, 21
2, 122455, Note_on_c, 0, 50, 36
2, 122459, Note_on_c, 0, 65, 17
2, 122467, Note_on_c, 0, 55, 10
2, 122484, Control_c, 0, 64, 0
2, 122484, Control_c, 0, 64, 0
2, 122523, Control_c, 0, 64, 127
2, 122523, Control_c, 0, 64, 127
2, 122618, Note_off_c, 0, 65, 64
2, 122656, Note_off_c, 0, 43, 64
2, 122744, Note_on_c, 0, 64, 21
2, 122748, Note_on_c, 0, 48, 26
2, 122752, Note_off_c, 0, 59, 64
2, 122755, Note_on_c, 0, 60, 16
2, 122756, Note_off_c, 0, 50, 64
2, 122784, Note_off_c, 0, 55, 64
2, 122788, Control_c, 0, 64, 0
2, 122788, Control_c, 0, 64, 0
2, 122844, Control_c, 0, 64, 127
2, 122844, Control_c, 0, 64, 127
2, 122887, Note_off_c, 0, 64, 64
2, 123068, Note_off_c, 0, 48, 64
2, 123110, Note_on_c, 0, 67, 42
2, 123147, Note_off_c, 0, 60, 64
2, 123176, Control_c, 0, 64, 0
2, 123176, Control_c, 0, 64, 0
2, 123223, Control_c, 0, 64, 127
2, 123223, Control_c, 0, 64, 127
2, 123827, Note_on_c, 0, 60, 38
2, 123879, Note_off_c, 0, 67, 64
2, 123898, Control_c, 0, 64, 0
2, 123898, Control_c, 0, 64, 0
2, 123910, Control_c, 0, 64, 127
2, 123910, Control_c, 0, 64, 127
2, 124577, Note_on_c, 0, 67, 30
2, 124597, Note_off_c, 0, 60, 64
2, 124630, Control_c, 0, 64, 0
2, 124630, Control_c, 0, 64, 0
2, 124644, Control_c, 0, 64, 127
2, 124644, Control_c, 0, 64, 127
2, 125357, Note_on_c, 0, 60, 30
2, 125422, Note_off_c, 0, 67, 64
2, 125444, Control_c, 0, 64, 0
2, 125444, Control_c, 0, 64, 0
2, 125455, Control_c, 0, 64, 127
2, 125455, Control_c, 0, 64, 127
2, 126430, Note_on_c, 0, 67, 32
2, 126473, Note_off_c, 0, 60, 64
2, 126542, Control_c, 0, 64, 0
2, 126542, Control_c, 0, 64, 0
2, 126570, Control_c, 0, 64, 127
2, 126570, Control_c, 0, 64, 127
2, 127036, Note_off_c, 0, 67, 64
2, 127474, Note_on_c, 0, 67, 67
2, 127497, Control_c, 0, 64, 0
2, 127497, Control_c, 0, 64, 0
2, 127517, Control_c, 0, 64, 127
2, 127517, Control_c, 0, 64, 127
2, 127641, Note_on_c, 0, 60, 75
2, 127643, Note_off_c, 0, 67, 64
2, 127928, Note_on_c, 0, 59, 67
2, 127949, Note_off_c, 0, 60, 64
2, 127964, Note_off_c, 0, 59, 64
2, 128026, Note_on_c, 0, 42, 78
2, 128031, Note_on_c, 0, 61, 78
2, 128031, Note_on_c, 0, 58, 82
2, 128034, Note_on_c, 0, 52, 69
2, 128086, Note_off_c, 0, 42, 64
2, 128103, Note_off_c, 0, 58, 64
2, 128114, Note_off_c, 0, 61, 64
2, 128115, Note_off_c, 0, 52, 64
2, 128160, Note_on_c, 0, 54, 69
2, 128206, Note_on_c, 0, 58, 69
2, 128209, Note_on_c, 0, 52, 69
2, 128210, Note_on_c, 0, 61, 71
2, 128216, Note_on_c, 0, 42, 69
2, 128219, Control_c, 0, 64, 0
2, 128219, Control_c, 0, 64, 0
2, 128236, Note_off_c, 0, 54, 64
2, 128251, Control_c, 0, 64, 127
2, 128251, Control_c, 0, 64, 127
2, 128280, Note_off_c, 0, 42, 64
2, 128285, Note_off_c, 0, 61, 64
2, 128285, Note_off_c, 0, 58, 64
2, 128295, Note_off_c, 0, 52, 64
2, 128412, Note_on_c, 0, 50, 68
2, 128412, Note_on_c, 0, 35, 78
2, 128416, Note_on_c, 0, 59, 69
2, 128417, Note_on_c, 0, 54, 67
2, 128423, Note_on_c, 0, 47, 78
2, 128455, Control_c, 0, 64, 0
2, 128455, Control_c, 0, 64, 0
2, 128772, Note_off_c, 0, 35, 64
2, 128772, Note_off_c, 0, 50, 64
2, 128776, Note_off_c, 0, 59, 64
2, 128777, Note_off_c, 0, 54, 64
2, 128783, Note_off_c, 0, 47, 64
2, 129367, Control_c, 0, 64, 0
2, 129367, Control_c, 0, 64, 0
