2, 0, Program_c, 0, 0
2, 0, Control_c, 0, 7, 127
2, 190, Control_c, 0, 64, 0
2, 202, Control_c, 0, 64, 0
2, 273, Control_c, 0, 64, 127
2, 285, Control_c, 0, 64, 127
2, 660, Control_c, 0, 64, 0
2, 672, Control_c, 0, 64, 0
2, 679, Note_on_c, 0, 67, 47
2, 746, Control_c, 0, 64, 127
2, 758, Control_c, 0, 64, 127
2, 820, Control_c, 0, 64, 0
2, 832, Control_c, 0, 64, 0
2, 876, Control_c, 0, 64, 127
2, 888, Control_c, 0, 64, 127
2, 998, Note_on_c, 0, 70, 35
2, 1019, Note_off_c, 0, 67, 64
2, 1027, Note_on_c, 0, 68, 43
2, 1057, Note_off_c, 0, 70, 64
2, 1068, Control_c, 0, 64, 0
2, 1072, Note_on_c, 0, 62, 38
2, 1078, Note_on_c, 0, 67, 46
2, 1078, Note_on_c, 0, 55, 24
2, 1080, Control_c, 0, 64, 0
2, 1088, Note_off_c, 0, 68, 64
2, 1095, Control_c, 0, 64, 127
2, 1107, Control_c, 0, 64, 127
2, 1181, Note_off_c, 0, 62, 64
2, 1184, Note_on_c, 0, 71, 43
2, 1187, Note_off_c, 0, 55, 64
2, 1209, Note_off_c, 0, 67, 64
2, 1253, Control_c, 0, 64, 0
2, 1265, Control_c, 0, 64, 0
2, 1278, Note_on_c, 0, 72, 43
2, 1285, Note_on_c, 0, 55, 35
2, 1289, Note_on_c, 0, 65, 43
2, 1294, Note_on_c, 0, 62, 28
2, 1310, Control_c, 0, 64, 127
2, 1312, Note_off_c, 0, 71, 64
2, 1322, Control_c, 0, 64, 127
2, 1366, Note_on_c, 0, 74, 42
2, 1381, Note_off_c, 0, 72, 64
2, 1394, Note_off_c, 0, 55, 64
2, 1403, Note_off_c, 0, 62, 64
2, 1455, Note_on_c, 0, 77, 45
2, 1461, Note_off_c, 0, 74, 64
2, 1487, Note_on_c, 0, 75, 49
2, 1501, Note_off_c, 0, 65, 64
2, 1512, Note_off_c, 0, 77, 64
2, 1556, Note_on_c, 0, 74, 49
2, 1569, Note_off_c, 0, 75, 64
2, 1642, Control_c, 0, 64, 0
2, 1654, Control_c, 0, 64, 0
2, 1660, Note_on_c, 0, 55, 27
2, 1661, Note_on_c, 0, 72, 46
2, 1661, Note_on_c, 0, 48, 30
2, 1666, Note_on_c, 0, 63, 38
2, 1682, Note_off_c, 0, 74, 64
2, 1693, Note_off_c, 0, 55, 64
2, 1694, Note_off_c, 0, 48, 64
2, 1699, Note_off_c, 0, 63, 64
2, 1699, Control_c, 0, 64, 127
2, 1711, Control_c, 0, 64, 127
2, 1855, Note_on_c, 0, 55, 34
2, 1855, Note_on_c, 0, 48, 31
2, 1860, Note_on_c, 0, 63, 41
2, 1888, Note_off_c, 0, 48, 64
2, 1888, Note_off_c, 0, 55, 64
2, 1893, Note_off_c, 0, 63, 64
2, 2025, Note_off_c, 0, 72, 64
2, 2052, Note_on_c, 0, 74, 41
2, 2137, Note_on_c, 0, 75, 38
2, 2144, Note_off_c, 0, 74, 64
2, 2217, Control_c, 0, 64, 0
2, 2218, Note_on_c, 0, 79, 42
2, 2221, Note_off_c, 0, 75, 64
2, 2229, Control_c, 0, 64, 0
2, 2237, Note_on_c, 0, 59, 31
2, 2237, Note_on_c, 0, 55, 31
2, 2238, Note_on_c, 0, 65, 41
2, 2246, Note_on_c, 0, 77, 47
2, 2248, Note_on_c, 0, 48, 26
2, 2254, Control_c, 0, 64, 127
2, 2266, Control_c, 0, 64, 127
2, 2270, Note_off_c, 0, 55, 64
2, 2270, Note_off_c, 0, 59, 64
2, 2271, Note_off_c, 0, 65, 64
2, 2271, Note_off_c, 0, 79, 64
2, 2281, Note_off_c, 0, 48, 64
2, 2433, Note_on_c, 0, 75, 38
2, 2436, Note_on_c, 0, 62, 31
2, 2436, Note_on_c, 0, 48, 27
2, 2437, Note_on_c, 0, 65, 31
2, 2446, Note_off_c, 0, 77, 64
2, 2446, Note_on_c, 0, 55, 24
2, 2469, Note_off_c, 0, 48, 64
2, 2469, Note_off_c, 0, 62, 64
2, 2470, Note_off_c, 0, 65, 64
2, 2479, Note_off_c, 0, 55, 64
2, 2525, Note_on_c, 0, 74, 42
2, 2528, Note_off_c, 0, 75, 64
2, 2607, Note_off_c, 0, 74, 64
2, 2613, Note_on_c, 0, 74, 52
2, 2696, Note_on_c, 0, 75, 52
2, 2716, Note_off_c, 0, 74, 64
2, 2785, Note_on_c, 0, 72, 45
2, 2787, Note_on_c, 0, 63, 38
2, 2790, Note_on_c, 0, 60, 38
2, 2794, Note_on_c, 0, 55, 36
2, 2796, Control_c, 0, 64, 0
2, 2799, Note_on_c, 0, 48, 31
2, 2802, Note_off_c, 0, 75, 64
2, 2808, Control_c, 0, 64, 0
2, 2820, Note_off_c, 0, 63, 64
2, 2823, Note_off_c, 0, 60, 64
2, 2827, Note_off_c, 0, 55, 64
2, 2832, Note_off_c, 0, 48, 64
2, 2965, Control_c, 0, 64, 127
2, 2977, Control_c, 0, 64, 127
2, 3004, Note_on_c, 0, 60, 36
2, 3006, Note_on_c, 0, 55, 31
2, 3008, Note_on_c, 0, 63, 31
2, 3010, Note_on_c, 0, 48, 30
2, 3037, Note_off_c, 0, 60, 64
2, 3039, Note_off_c, 0, 55, 64
2, 3041, Note_off_c, 0, 63, 64
2, 3043, Note_off_c, 0, 48, 64
2, 3180, Note_on_c, 0, 62, 69
2, 3196, Note_off_c, 0, 72, 64
2, 3292, Note_on_c, 0, 65, 56
2, 3301, Note_off_c, 0, 62, 64
2, 3323, Note_on_c, 0, 63, 65
2, 3343, Note_off_c, 0, 65, 64
2, 3380, Note_on_c, 0, 50, 49
2, 3383, Control_c, 0, 64, 0
2, 3388, Note_on_c, 0, 57, 50
2, 3390, Note_on_c, 0, 62, 54
2, 3395, Control_c, 0, 64, 0
2, 3405, Note_off_c, 0, 63, 64
2, 3468, Note_on_c, 0, 66, 54
2, 3489, Note_off_c, 0, 50, 64
2, 3497, Note_off_c, 0, 57, 64
2, 3551, Control_c, 0, 64, 127
2, 3553, Note_on_c, 0, 67, 58
2, 3559, Note_on_c, 0, 57, 49
2, 3562, Note_off_c, 0, 66, 64
2, 3562, Note_on_c, 0, 60, 61
2, 3563, Control_c, 0, 64, 127
2, 3570, Note_on_c, 0, 50, 43
2, 3591, Note_off_c, 0, 62, 64
2, 3634, Note_on_c, 0, 69, 58
2, 3648, Note_off_c, 0, 67, 64
2, 3668, Note_off_c, 0, 57, 64
2, 3679, Note_off_c, 0, 50, 64
2, 3726, Note_on_c, 0, 72, 65
2, 3735, Note_off_c, 0, 69, 64
2, 3752, Note_on_c, 0, 70, 64
2, 3762, Note_off_c, 0, 60, 64
2, 3778, Note_off_c, 0, 72, 64
2, 3822, Note_on_c, 0, 69, 69
2, 3837, Note_off_c, 0, 70, 64
2, 3916, Note_on_c, 0, 55, 46
2, 3916, Note_on_c, 0, 43, 54
2, 3917, Control_c, 0, 64, 0
2, 3920, Note_on_c, 0, 67, 61
2, 3924, Note_on_c, 0, 58, 46
2, 3929, Control_c, 0, 64, 0
2, 3939, Note_off_c, 0, 69, 64
2, 3948, Control_c, 0, 64, 127
2, 3960, Control_c, 0, 64, 127
2, 4095, Note_on_c, 0, 46, 58
2, 4099, Note_off_c, 0, 43, 64
2, 4099, Note_on_c, 0, 62, 43
2, 4104, Control_c, 0, 64, 0
2, 4107, Note_off_c, 0, 58, 64
2, 4116, Control_c, 0, 64, 0
2, 4137, Control_c, 0, 64, 127
2, 4149, Control_c, 0, 64, 127
2, 4284, Note_on_c, 0, 63, 42
2, 4289, Note_off_c, 0, 46, 64
2, 4291, Note_on_c, 0, 69, 61
2, 4291, Note_on_c, 0, 48, 60
2, 4311, Note_off_c, 0, 67, 64
2, 4311, Control_c, 0, 64, 0
2, 4323, Control_c, 0, 64, 0
2, 4334, Control_c, 0, 64, 127
2, 4339, Note_off_c, 0, 62, 64
2, 4346, Control_c, 0, 64, 127
2, 4369, Note_on_c, 0, 70, 64
2, 4381, Note_off_c, 0, 69, 64
2, 4403, Note_off_c, 0, 63, 64
2, 4443, Note_on_c, 0, 74, 56
2, 4446, Note_off_c, 0, 70, 64
2, 4460, Note_on_c, 0, 67, 56
2, 4460, Note_on_c, 0, 63, 56
2, 4465, Control_c, 0, 64, 0
2, 4467, Note_on_c, 0, 45, 54
2, 4473, Note_on_c, 0, 72, 64
2, 4477, Control_c, 0, 64, 0
2, 4493, Note_off_c, 0, 48, 64
2, 4495, Note_off_c, 0, 74, 64
2, 4500, Control_c, 0, 64, 127
2, 4512, Control_c, 0, 64, 127
2, 4577, Control_c, 0, 64, 0
2, 4589, Control_c, 0, 64, 0
2, 4612, Control_c, 0, 64, 127
2, 4624, Control_c, 0, 64, 127
2, 4660, Note_on_c, 0, 70, 58
2, 4669, Note_on_c, 0, 60, 53
2, 4671, Note_on_c, 0, 66, 49
2, 4677, Note_off_c, 0, 63, 64
2, 4677, Note_off_c, 0, 67, 64
2, 4678, Note_on_c, 0, 50, 50
2, 4679, Control_c, 0, 64, 0
2, 4691, Control_c, 0, 64, 0
2, 4709, Control_c, 0, 64, 127
2, 4721, Control_c, 0, 64, 127
2, 4752, Note_on_c, 0, 69, 56
2, 4772, Note_off_c, 0, 70, 64
2, 4800, Note_off_c, 0, 72, 64
2, 4837, Note_off_c, 0, 45, 64
2, 4860, Note_on_c, 0, 67, 71
2, 4864, Control_c, 0, 64, 0
2, 4869, Note_off_c, 0, 66, 64
2, 4873, Note_off_c, 0, 60, 64
2, 4876, Control_c, 0, 64, 0
2, 4879, Note_off_c, 0, 69, 64
2, 4902, Note_off_c, 0, 50, 64
2, 4920, Control_c, 0, 64, 127
2, 4926, Note_off_c, 0, 55, 64
2, 4932, Control_c, 0, 64, 127
2, 5064, Note_on_c, 0, 62, 45
2, 5071, Note_on_c, 0, 59, 36
2, 5083, Control_c, 0, 64, 0
2, 5087, Note_on_c, 0, 43, 45
2, 5095, Control_c, 0, 64, 0
2, 5118, Control_c, 0, 64, 127
2, 5130, Control_c, 0, 64, 127
2, 5292, Note_on_c, 0, 63, 31
2, 5298, Note_on_c, 0, 60, 47
2, 5303, Note_off_c, 0, 62, 64
2, 5305, Note_on_c, 0, 55, 26
2, 5310, Note_off_c, 0, 59, 64
2, 5389, Note_on_c, 0, 64, 46
2, 5395, Note_off_c, 0, 63, 64
2, 5395, Note_on_c, 0, 61, 42
2, 5409, Note_off_c, 0, 60, 64
2, 5414, Note_off_c, 0, 55, 64
2, 5511, Control_c, 0, 64, 0
2, 5522, Note_on_c, 0, 62, 43
2, 5523, Control_c, 0, 64, 0
2, 5528, Note_on_c, 0, 65, 45
2, 5539, Note_on_c, 0, 55, 28
2, 5540, Control_c, 0, 64, 127
2, 5542, Note_off_c, 0, 61, 64
2, 5547, Note_off_c, 0, 64, 64
2, 5552, Control_c, 0, 64, 127
2, 5579, Note_off_c, 0, 43, 64
2, 5631, Note_off_c, 0, 62, 64
2, 5637, Note_off_c, 0, 65, 64
2, 5648, Note_off_c, 0, 55, 64
2, 5671, Note_on_c, 0, 68, 43
2, 5675, Note_off_c, 0, 67, 64
2, 5696, Note_on_c, 0, 70, 43
2, 5706, Note_off_c, 0, 68, 64
2, 5742, Note_on_c, 0, 68, 43
2, 5752, Note_off_c, 0, 70, 64
2, 5761, Note_on_c, 0, 65, 38
2, 5767, Note_on_c, 0, 62, 38
2, 5767, Note_on_c, 0, 55, 35
2, 5775, Note_on_c, 0, 67, 53
2, 5781, Note_off_c, 0, 68, 64
2, 5870, Note_off_c, 0, 65, 64
2, 5876, Note_off_c, 0, 55, 64
2, 5876, Note_off_c, 0, 62, 64
2, 5881, Note_on_c, 0, 71, 45
2, 5921, Note_off_c, 0, 67, 64
2, 5957, Control_c, 0, 64, 0
2, 5969, Control_c, 0, 64, 0
2, 5974, Note_on_c, 0, 65, 28
2, 5975, Note_on_c, 0, 72, 45
2, 5975, Note_on_c, 0, 62, 31
2, 5975, Note_on_c, 0, 55, 31
2, 5993, Note_on_c, 0, 67, 1
2, 5994, Note_off_c, 0, 71, 64
2, 6004, Control_c, 0, 64, 127
2, 6016, Control_c, 0, 64, 127
2, 6060, Note_on_c, 0, 74, 43
2, 6077, Note_off_c, 0, 72, 64
2, 6083, Note_off_c, 0, 65, 64
2, 6084, Note_off_c, 0, 55, 64
2, 6084, Note_off_c, 0, 62, 64
2, 6092, Note_off_c, 0, 67, 64
2, 6143, Note_on_c, 0, 77, 43
2, 6157, Note_off_c, 0, 74, 64
2, 6172, Note_on_c, 0, 75, 46
2, 6195, Note_off_c, 0, 77, 64
2, 6236, Note_on_c, 0, 74, 43
2, 6252, Note_off_c, 0, 75, 64
2, 6318, Note_on_c, 0, 72, 43
2, 6319, Control_c, 0, 64, 0
2, 6324, Note_on_c, 0, 48, 31
2, 6325, Note_on_c, 0, 55, 32
2, 6330, Note_on_c, 0, 63, 38
2, 6331, Control_c, 0, 64, 0
2, 6355, Note_off_c, 0, 74, 64
2, 6357, Note_off_c, 0, 48, 64
2, 6358, Note_off_c, 0, 55, 64
2, 6363, Note_off_c, 0, 63, 64
2, 6528, Note_on_c, 0, 63, 41
2, 6536, Control_c, 0, 64, 127
2, 6536, Note_on_c, 0, 48, 35
2, 6538, Note_on_c, 0, 55, 38
2, 6548, Control_c, 0, 64, 127
2, 6561, Note_off_c, 0, 63, 64
2, 6569, Note_off_c, 0, 48, 64
2, 6571, Note_off_c, 0, 55, 64
2, 6721, Note_on_c, 0, 74, 43
2, 6741, Note_off_c, 0, 72, 64
2, 6792, Note_on_c, 0, 75, 49
2, 6817, Note_off_c, 0, 74, 64
2, 6861, Note_off_c, 0, 75, 64
2, 6864, Note_on_c, 0, 79, 38
2, 6876, Note_on_c, 0, 65, 38
2, 6876, Note_on_c, 0, 48, 31
2, 6879, Note_on_c, 0, 59, 31
2, 6882, Control_c, 0, 64, 0
2, 6887, Note_on_c, 0, 77, 42
2, 6887, Note_on_c, 0, 55, 34
2, 6894, Control_c, 0, 64, 0
2, 6909, Note_off_c, 0, 48, 64
2, 6909, Note_off_c, 0, 65, 64
2, 6912, Note_off_c, 0, 59, 64
2, 6918, Control_c, 0, 64, 127
2, 6920, Note_off_c, 0, 55, 64
2, 6930, Control_c, 0, 64, 127
2, 6932, Note_off_c, 0, 79, 64
2, 7067, Note_on_c, 0, 75, 38
2, 7074, Note_on_c, 0, 62, 31
2, 7076, Note_on_c, 0, 65, 38
2, 7076, Note_on_c, 0, 48, 31
2, 7081, Note_on_c, 0, 55, 26
2, 7086, Control_c, 0, 64, 127
2, 7089, Note_off_c, 0, 77, 64
2, 7098, Control_c, 0, 64, 127
2, 7107, Note_off_c, 0, 62, 64
2, 7109, Note_off_c, 0, 48, 64
2, 7109, Note_off_c, 0, 65, 64
2, 7114, Note_off_c, 0, 55, 64
2, 7166, Note_on_c, 0, 74, 45
2, 7176, Note_off_c, 0, 75, 64
2, 7202, Note_off_c, 0, 74, 64
2, 7234, Note_on_c, 0, 74, 52
2, 7307, Note_on_c, 0, 75, 49
2, 7316, Note_off_c, 0, 74, 64
2, 7366, Control_c, 0, 64, 0
2, 7378, Control_c, 0, 64, 0
2, 7388, Note_on_c, 0, 63, 38
2, 7391, Note_on_c, 0, 72, 41
2, 7393, Note_on_c, 0, 55, 41
2, 7397, Note_off_c, 0, 75, 64
2, 7397, Note_on_c, 0, 48, 38
2, 7399, Note_on_c, 0, 60, 41
2, 7421, Note_off_c, 0, 63, 64
2, 7426, Note_off_c, 0, 55, 64
2, 7430, Note_off_c, 0, 48, 64
2, 7432, Note_off_c, 0, 60, 64
2, 7614, Control_c, 0, 64, 127
2, 7626, Control_c, 0, 64, 127
2, 7634, Note_on_c, 0, 55, 27
2, 7636, Note_on_c, 0, 63, 38
2, 7642, Note_on_c, 0, 60, 31
2, 7642, Note_on_c, 0, 48, 31
2, 7667, Note_off_c, 0, 55, 64
2, 7669, Note_off_c, 0, 63, 64
2, 7675, Note_off_c, 0, 48, 64
2, 7675, Note_off_c, 0, 60, 64
2, 7813, Note_on_c, 0, 62, 67
2, 7822, Note_off_c, 0, 72, 64
2, 7940, Note_on_c, 0, 63, 61
2, 7948, Note_off_c, 0, 62, 64
2, 7964, Note_on_c, 0, 65, 50
2, 7983, Note_off_c, 0, 63, 64
2, 7999, Control_c, 0, 64, 0
2, 8000, Note_on_c, 0, 63, 54
2, 8011, Control_c, 0, 64, 0
2, 8021, Note_on_c, 0, 50, 58
2, 8027, Note_on_c, 0, 57, 49
2, 8031, Note_off_c, 0, 65, 64
2, 8040, Note_on_c, 0, 62, 63
2, 8047, Control_c, 0, 64, 127
2, 8049, Note_off_c, 0, 63, 64
2, 8059, Control_c, 0, 64, 127
2, 8130, Note_off_c, 0, 50, 64
2, 8134, Note_on_c, 0, 66, 67
2, 8136, Note_off_c, 0, 57, 64
2, 8216, Note_on_c, 0, 67, 68
2, 8221, Control_c, 0, 64, 0
2, 8227, Note_on_c, 0, 57, 50
2, 8228, Note_off_c, 0, 66, 64
2, 8232, Note_on_c, 0, 50, 54
2, 8233, Note_on_c, 0, 60, 60
2, 8233, Control_c, 0, 64, 0
2, 8245, Control_c, 0, 64, 127
2, 8247, Note_off_c, 0, 62, 64
2, 8257, Control_c, 0, 64, 127
2, 8319, Note_on_c, 0, 69, 54
2, 8336, Note_off_c, 0, 57, 64
2, 8337, Note_off_c, 0, 67, 64
2, 8341, Note_off_c, 0, 50, 64
2, 8406, Note_on_c, 0, 72, 61
2, 8425, Note_off_c, 0, 69, 64
2, 8435, Note_on_c, 0, 70, 61
2, 8448, Note_off_c, 0, 60, 64
2, 8458, Note_off_c, 0, 72, 64
2, 8502, Note_on_c, 0, 69, 64
2, 8516, Note_off_c, 0, 70, 64
2, 8589, Note_on_c, 0, 43, 54
2, 8596, Control_c, 0, 64, 0
2, 8597, Note_on_c, 0, 67, 50
2, 8597, Note_on_c, 0, 55, 42
2, 8599, Note_on_c, 0, 58, 41
2, 8608, Note_off_c, 0, 69, 64
2, 8608, Control_c, 0, 64, 0
2, 8628, Control_c, 0, 64, 127
2, 8640, Control_c, 0, 64, 127
2, 8769, Note_on_c, 0, 62, 46
2, 8773, Note_on_c, 0, 46, 58
2, 8776, Note_off_c, 0, 43, 64
2, 8776, Control_c, 0, 64, 0
2, 8786, Note_off_c, 0, 58, 64
2, 8788, Control_c, 0, 64, 127
2, 8788, Control_c, 0, 64, 0
2, 8800, Control_c, 0, 64, 127
2, 8973, Note_on_c, 0, 69, 60
2, 8978, Note_off_c, 0, 46, 64
2, 8980, Note_on_c, 0, 63, 39
2, 8980, Note_on_c, 0, 48, 54
2, 8988, Note_off_c, 0, 67, 64
2, 8990, Note_off_c, 0, 62, 64
2, 8991, Control_c, 0, 64, 0
2, 9003, Control_c, 0, 64, 0
2, 9029, Control_c, 0, 64, 127
2, 9041, Control_c, 0, 64, 127
2, 9078, Note_on_c, 0, 70, 50
2, 9089, Note_off_c, 0, 69, 64
2, 9141, Note_off_c, 0, 63, 64
2, 9154, Note_on_c, 0, 74, 56
2, 9164, Note_off_c, 0, 70, 64
2, 9186, Control_c, 0, 64, 0
2, 9188, Note_on_c, 0, 63, 50
2, 9188, Note_on_c, 0, 45, 53
2, 9192, Note_on_c, 0, 72, 65
2, 9192, Note_on_c, 0, 67, 42
2, 9198, Control_c, 0, 64, 0
2, 9207, Note_off_c, 0, 74, 64
2, 9213, Note_off_c, 0, 48, 64
2, 9225, Control_c, 0, 64, 127
2, 9237, Control_c, 0, 64, 127
2, 9388, Note_on_c, 0, 70, 36
2, 9388, Note_on_c, 0, 66, 50
2, 9388, Note_on_c, 0, 60, 46
2, 9388, Note_on_c, 0, 50, 38
2, 9408, Control_c, 0, 64, 0
2, 9410, Note_off_c, 0, 72, 64
2, 9411, Note_off_c, 0, 63, 64
2, 9417, Note_off_c, 0, 67, 64
2, 9420, Control_c, 0, 64, 0
2, 9440, Note_off_c, 0, 45, 64
2, 9445, Control_c, 0, 64, 127
2, 9457, Control_c, 0, 64, 127
2, 9487, Note_on_c, 0, 69, 61
2, 9499, Note_off_c, 0, 70, 64
2, 9514, Control_c, 0, 64, 0
2, 9526, Control_c, 0, 64, 0
2, 9611, Note_off_c, 0, 50, 64
2, 9611, Note_off_c, 0, 66, 64
2, 9612, Note_on_c, 0, 67, 69
2, 9615, Note_off_c, 0, 69, 64
2, 9628, Control_c, 0, 64, 0
2, 9628, Note_on_c, 0, 43, 50
2, 9629, Note_off_c, 0, 60, 64
2, 9640, Control_c, 0, 64, 0
2, 9659, Note_off_c, 0, 55, 64
2, 9666, Control_c, 0, 64, 127
2, 9678, Control_c, 0, 64, 127
2, 9863, Note_on_c, 0, 62, 49
2, 9869, Note_on_c, 0, 59, 46
2, 9872, Note_on_c, 0, 55, 49
2, 9874, Control_c, 0, 64, 0
2, 9886, Control_c, 0, 64, 0
2, 9906, Control_c, 0, 64, 127
2, 9918, Control_c, 0, 64, 127
2, 10001, Note_off_c, 0, 43, 64
2, 10101, Note_off_c, 0, 67, 64
2, 10155, Note_on_c, 0, 67, 64
2, 10156, Note_on_c, 0, 58, 21
2, 10156, Note_on_c, 0, 52, 43
2, 10161, Note_on_c, 0, 61, 49
2, 10184, Note_off_c, 0, 62, 64
2, 10187, Control_c, 0, 64, 0
2, 10190, Note_off_c, 0, 59, 64
2, 10193, Note_off_c, 0, 55, 64
2, 10199, Control_c, 0, 64, 0
2, 10211, Control_c, 0, 64, 127
2, 10223, Control_c, 0, 64, 127
2, 10364, Note_off_c, 0, 67, 64
2, 10393, Note_on_c, 0, 67, 60
2, 10432, Note_off_c, 0, 67, 64
2, 10462, Note_on_c, 0, 67, 73
2, 10471, Note_on_c, 0, 44, 73
2, 10476, Control_c, 0, 64, 0
2, 10488, Control_c, 0, 64, 0
2, 10492, Control_c, 0, 64, 127
2, 10504, Control_c, 0, 64, 127
2, 10589, Note_on_c, 0, 68, 60
2, 10614, Note_off_c, 0, 67, 64
2, 10679, Note_off_c, 0, 58, 64
2, 10696, Note_on_c, 0, 60, 69
2, 10698, Control_c, 0, 64, 0
2, 10699, Note_off_c, 0, 61, 64
2, 10700, Note_on_c, 0, 56, 41
2, 10700, Note_on_c, 0, 53, 32
2, 10710, Control_c, 0, 64, 0
2, 10722, Control_c, 0, 64, 127
2, 10731, Note_off_c, 0, 52, 64
2, 10734, Control_c, 0, 64, 127
2, 10847, Note_off_c, 0, 53, 64
2, 10847, Note_off_c, 0, 56, 64
2, 10878, Note_on_c, 0, 53, 50
2, 10881, Note_on_c, 0, 56, 53
2, 10893, Note_off_c, 0, 44, 64
2, 10952, Note_on_c, 0, 67, 61
2, 10973, Note_off_c, 0, 68, 64
2, 11028, Note_off_c, 0, 56, 64
2, 11030, Note_off_c, 0, 53, 64
2, 11055, Note_on_c, 0, 32, 69
2, 11056, Control_c, 0, 64, 0
2, 11063, Note_on_c, 0, 64, 61
2, 11064, Note_off_c, 0, 67, 64
2, 11068, Control_c, 0, 64, 0
2, 11069, Control_c, 0, 64, 127
2, 11081, Control_c, 0, 64, 127
2, 11184, Note_on_c, 0, 65, 69
2, 11197, Note_off_c, 0, 64, 64
2, 11247, Note_on_c, 0, 56, 46
2, 11250, Note_on_c, 0, 48, 49
2, 11256, Note_on_c, 0, 74, 67
2, 11276, Note_off_c, 0, 65, 64
2, 11394, Note_off_c, 0, 56, 64
2, 11397, Note_off_c, 0, 48, 64
2, 11435, Note_on_c, 0, 56, 46
2, 11442, Note_on_c, 0, 53, 49
2, 11466, Note_off_c, 0, 32, 64
2, 11535, Note_on_c, 0, 72, 61
2, 11556, Note_off_c, 0, 74, 64
2, 11582, Note_off_c, 0, 56, 64
2, 11589, Note_off_c, 0, 53, 64
2, 11626, Note_on_c, 0, 34, 67
2, 11640, Note_on_c, 0, 65, 64
2, 11644, Control_c, 0, 64, 0
2, 11654, Note_off_c, 0, 72, 64
2, 11656, Control_c, 0, 64, 0
2, 11676, Control_c, 0, 64, 127
2, 11688, Control_c, 0, 64, 127
2, 11721, Note_on_c, 0, 67, 46
2, 11775, Note_off_c, 0, 65, 64
2, 11792, Note_off_c, 0, 60, 64
2, 11823, Note_on_c, 0, 46, 54
2, 11824, Note_on_c, 0, 60, 53
2, 11826, Note_on_c, 0, 56, 58
2, 11866, Control_c, 0, 64, 0
2, 11878, Control_c, 0, 64, 0
2, 11888, Control_c, 0, 64, 127
2, 11900, Control_c, 0, 64, 127
2, 11970, Note_off_c, 0, 46, 64
2, 11973, Note_off_c, 0, 56, 64
2, 12012, Note_on_c, 0, 62, 69
2, 12024, Note_on_c, 0, 56, 53
2, 12027, Note_on_c, 0, 46, 53
2, 12040, Note_off_c, 0, 60, 64
2, 12048, Note_off_c, 0, 34, 64
2, 12137, Note_on_c, 0, 65, 64
2, 12151, Note_off_c, 0, 62, 64
2, 12158, Note_off_c, 0, 67, 64
2, 12171, Note_off_c, 0, 56, 64
2, 12174, Note_off_c, 0, 46, 64
2, 12234, Control_c, 0, 64, 0
2, 12236, Note_on_c, 0, 39, 64
2, 12243, Note_on_c, 0, 63, 69
2, 12246, Control_c, 0, 64, 0
2, 12256, Control_c, 0, 64, 127
2, 12258, Note_off_c, 0, 65, 64
2, 12268, Control_c, 0, 64, 127
2, 12400, Note_on_c, 0, 70, 50
2, 12402, Note_off_c, 0, 63, 64
2, 12434, Note_off_c, 0, 70, 64
2, 12473, Note_on_c, 0, 70, 75
2, 12515, Note_on_c, 0, 58, 28
2, 12517, Note_on_c, 0, 79, 63
2, 12517, Note_on_c, 0, 67, 57
2, 12520, Note_on_c, 0, 63, 38
2, 12527, Note_off_c, 0, 70, 64
2, 12535, Control_c, 0, 64, 0
2, 12547, Control_c, 0, 64, 0
2, 12559, Control_c, 0, 64, 127
2, 12571, Control_c, 0, 64, 127
2, 12649, Note_off_c, 0, 39, 64
2, 12662, Note_off_c, 0, 58, 64
2, 12664, Note_off_c, 0, 67, 64
2, 12667, Note_off_c, 0, 63, 64
2, 12746, Note_on_c, 0, 67, 54
2, 12746, Note_on_c, 0, 59, 50
2, 12749, Note_on_c, 0, 63, 52
2, 12839, Note_on_c, 0, 77, 56
2, 12863, Note_off_c, 0, 79, 64
2, 12893, Note_off_c, 0, 59, 64
2, 12893, Note_off_c, 0, 67, 64
2, 12896, Note_off_c, 0, 63, 64
2, 12940, Note_on_c, 0, 63, 30
2, 12940, Note_on_c, 0, 60, 61
2, 12942, Note_on_c, 0, 75, 64
2, 12947, Note_on_c, 0, 68, 56
2, 12948, Control_c, 0, 64, 0
2, 12960, Control_c, 0, 64, 0
2, 12973, Note_off_c, 0, 77, 64
2, 12976, Control_c, 0, 64, 127
2, 12988, Control_c, 0, 64, 127
2, 13087, Note_off_c, 0, 60, 64
2, 13087, Note_off_c, 0, 63, 64
2, 13094, Note_off_c, 0, 68, 64
2, 13097, Note_on_c, 0, 62, 61
2, 13106, Note_on_c, 0, 72, 60
2, 13112, Note_off_c, 0, 75, 64
2, 13132, Note_on_c, 0, 70, 69
2, 13147, Note_on_c, 0, 67, 56
2, 13147, Note_on_c, 0, 63, 54
2, 13149, Control_c, 0, 64, 0
2, 13154, Note_off_c, 0, 62, 64
2, 13158, Note_off_c, 0, 72, 64
2, 13161, Control_c, 0, 64, 0
2, 13182, Control_c, 0, 64, 127
2, 13194, Control_c, 0, 64, 127
2, 13348, Note_on_c, 0, 74, 56
2, 13352, Note_off_c, 0, 70, 64
2, 13366, Control_c, 0, 64, 0
2, 13367, Note_off_c, 0, 63, 64
2, 13367, Note_off_c, 0, 67, 64
2, 13378, Control_c, 0, 64, 0
2, 13380, Note_on_c, 0, 68, 63
2, 13380, Note_on_c, 0, 63, 41
2, 13380, Note_on_c, 0, 56, 43
2, 13387, Note_on_c, 0, 72, 57
2, 13414, Control_c, 0, 64, 127
2, 13426, Control_c, 0, 64, 127
2, 13432, Note_off_c, 0, 74, 64
2, 13600, Note_off_c, 0, 63, 64
2, 13600, Note_off_c, 0, 68, 64
2, 13601, Note_on_c, 0, 70, 64
2, 13601, Note_on_c, 0, 58, 46
2, 13604, Note_on_c, 0, 65, 52
2, 13610, Control_c, 0, 64, 0
2, 13610, Note_on_c, 0, 62, 52
2, 13618, Note_off_c, 0, 72, 64
2, 13622, Control_c, 0, 64, 0
2, 13623, Note_off_c, 0, 56, 64
2, 13625, Control_c, 0, 64, 127
2, 13637, Control_c, 0, 64, 127
2, 13821, Note_off_c, 0, 58, 64
2, 13824, Note_off_c, 0, 65, 64
2, 13824, Note_on_c, 0, 68, 38
2, 13830, Note_off_c, 0, 62, 64
2, 13848, Note_off_c, 0, 70, 64
2, 13901, Note_on_c, 0, 67, 50
2, 13904, Note_on_c, 0, 63, 64
2, 13908, Note_on_c, 0, 58, 45
2, 13908, Note_on_c, 0, 51, 46
2, 13918, Note_off_c, 0, 68, 64
2, 13959, Control_c, 0, 64, 0
2, 13971, Control_c, 0, 64, 0
2, 14013, Control_c, 0, 64, 127
2, 14025, Control_c, 0, 64, 127
2, 14436, Note_on_c, 0, 59, 36
2, 14442, Note_off_c, 0, 63, 64
2, 14444, Note_on_c, 0, 62, 60
2, 14446, Note_off_c, 0, 51, 64
2, 14446, Note_off_c, 0, 58, 64
2, 14454, Note_on_c, 0, 55, 49
2, 14477, Control_c, 0, 64, 0
2, 14489, Control_c, 0, 64, 0
2, 14509, Control_c, 0, 64, 127
2, 14521, Control_c, 0, 64, 127
2, 14591, Note_on_c, 0, 65, 54
2, 14610, Note_off_c, 0, 59, 64
2, 14618, Note_off_c, 0, 62, 64
2, 14641, Note_off_c, 0, 67, 64
2, 14692, Note_on_c, 0, 48, 42
2, 14696, Note_on_c, 0, 60, 54
2, 14699, Note_on_c, 0, 63, 64
2, 14716, Note_off_c, 0, 65, 64
2, 14716, Control_c, 0, 64, 0
2, 14728, Control_c, 0, 64, 0
2, 14741, Control_c, 0, 64, 127
2, 14753, Control_c, 0, 64, 127
2, 14891, Note_off_c, 0, 55, 64
2, 14903, Note_on_c, 0, 67, 46
2, 14904, Note_off_c, 0, 48, 64
2, 14930, Note_off_c, 0, 63, 64
2, 14940, Note_on_c, 0, 56, 41
2, 14940, Note_on_c, 0, 41, 58
2, 14946, Note_on_c, 0, 65, 60
2, 14972, Control_c, 0, 64, 0
2, 14974, Note_off_c, 0, 67, 64
2, 14984, Control_c, 0, 64, 0
2, 15002, Control_c, 0, 64, 127
2, 15014, Control_c, 0, 64, 127
2, 15152, Note_off_c, 0, 41, 64
2, 15152, Note_off_c, 0, 56, 64
2, 15277, Note_on_c, 0, 62, 53
2, 15283, Note_on_c, 0, 50, 31
2, 15288, Note_on_c, 0, 43, 30
2, 15298, Note_off_c, 0, 65, 64
2, 15313, Control_c, 0, 64, 0
2, 15325, Control_c, 0, 64, 0
2, 15352, Note_off_c, 0, 60, 64
2, 15365, Control_c, 0, 64, 127
2, 15377, Control_c, 0, 64, 127
2, 15455, Note_on_c, 0, 59, 38
2, 15463, Note_off_c, 0, 62, 64
2, 15642, Note_on_c, 0, 55, 35
2, 15658, Note_off_c, 0, 59, 64
2, 15685, Control_c, 0, 64, 0
2, 15697, Control_c, 0, 64, 0
2, 15730, Control_c, 0, 64, 127
2, 15742, Control_c, 0, 64, 127
2, 15796, Note_off_c, 0, 50, 64
2, 15801, Note_off_c, 0, 43, 64
2, 15988, Note_on_c, 0, 61, 46
2, 15989, Note_on_c, 0, 67, 61
2, 15994, Note_on_c, 0, 40, 31
2, 15996, Note_on_c, 0, 58, 46
2, 16017, Control_c, 0, 64, 0
2, 16029, Control_c, 0, 64, 127
2, 16029, Control_c, 0, 64, 0
2, 16041, Control_c, 0, 64, 127
2, 16080, Note_off_c, 0, 55, 64
2, 16161, Note_off_c, 0, 67, 64
2, 16193, Note_on_c, 0, 67, 61
2, 16232, Note_off_c, 0, 67, 64
2, 16270, Note_on_c, 0, 41, 64
2, 16275, Note_on_c, 0, 67, 58
2, 16278, Control_c, 0, 64, 0
2, 16290, Control_c, 0, 64, 0
2, 16292, Control_c, 0, 64, 127
2, 16294, Note_off_c, 0, 40, 64
2, 16304, Control_c, 0, 64, 127
2, 16375, Note_on_c, 0, 68, 63
2, 16400, Note_off_c, 0, 67, 64
2, 16484, Note_on_c, 0, 60, 47
2, 16486, Note_on_c, 0, 56, 49
2, 16491, Control_c, 0, 64, 0
2, 16503, Control_c, 0, 64, 0
2, 16504, Control_c, 0, 64, 127
2, 16516, Control_c, 0, 64, 127
2, 16538, Note_off_c, 0, 61, 64
2, 16545, Note_off_c, 0, 58, 64
2, 16578, Note_off_c, 0, 41, 64
2, 16633, Note_off_c, 0, 56, 64
2, 16706, Note_on_c, 0, 48, 23
2, 16708, Note_on_c, 0, 56, 34
2, 16787, Note_on_c, 0, 67, 71
2, 16816, Note_off_c, 0, 68, 64
2, 16853, Note_off_c, 0, 48, 64
2, 16855, Note_off_c, 0, 56, 64
2, 16902, Note_on_c, 0, 32, 65
2, 16907, Note_on_c, 0, 64, 63
2, 16911, Note_off_c, 0, 67, 64
2, 16914, Control_c, 0, 64, 0
2, 16926, Control_c, 0, 64, 0
2, 16939, Control_c, 0, 64, 127
2, 16951, Control_c, 0, 64, 127
2, 17052, Note_on_c, 0, 65, 63
2, 17075, Note_off_c, 0, 64, 64
2, 17118, Note_on_c, 0, 56, 52
2, 17124, Note_on_c, 0, 74, 75
2, 17128, Note_on_c, 0, 48, 36
2, 17153, Note_off_c, 0, 65, 64
2, 17265, Note_off_c, 0, 56, 64
2, 17275, Note_off_c, 0, 48, 64
2, 17313, Note_on_c, 0, 56, 43
2, 17319, Note_off_c, 0, 32, 64
2, 17319, Note_on_c, 0, 53, 45
2, 17402, Note_on_c, 0, 72, 57
2, 17421, Note_off_c, 0, 74, 64
2, 17460, Note_off_c, 0, 56, 64
2, 17466, Note_off_c, 0, 53, 64
2, 17504, Note_on_c, 0, 34, 69
2, 17510, Note_on_c, 0, 65, 61
2, 17521, Note_off_c, 0, 72, 64
2, 17525, Control_c, 0, 64, 0
2, 17537, Control_c, 0, 64, 0
2, 17551, Control_c, 0, 64, 127
2, 17563, Control_c, 0, 64, 127
2, 17607, Note_on_c, 0, 67, 64
2, 17661, Note_off_c, 0, 60, 64
2, 17668, Note_off_c, 0, 65, 64
2, 17700, Note_on_c, 0, 60, 47
2, 17704, Note_on_c, 0, 46, 58
2, 17707, Note_on_c, 0, 56, 58
2, 17851, Note_off_c, 0, 46, 64
2, 17854, Note_off_c, 0, 56, 64
2, 17907, Note_on_c, 0, 46, 50
2, 17910, Note_on_c, 0, 56, 53
2, 17911, Note_on_c, 0, 62, 69
2, 17919, Note_off_c, 0, 34, 64
2, 17934, Note_off_c, 0, 60, 64
2, 18024, Note_on_c, 0, 65, 63
2, 18030, Note_off_c, 0, 67, 64
2, 18036, Note_off_c, 0, 62, 64
2, 18054, Note_off_c, 0, 46, 64
2, 18057, Note_off_c, 0, 56, 64
2, 18111, Note_on_c, 0, 39, 68
2, 18119, Note_on_c, 0, 63, 75
2, 18125, Note_off_c, 0, 65, 64
2, 18301, Note_on_c, 0, 70, 60
2, 18317, Note_off_c, 0, 63, 64
2, 18355, Note_on_c, 0, 75, 73
2, 18355, Note_on_c, 0, 58, 38
2, 18365, Note_on_c, 0, 63, 46
2, 18366, Note_on_c, 0, 67, 53
2, 18367, Control_c, 0, 64, 0
2, 18375, Note_off_c, 0, 70, 64
2, 18379, Control_c, 0, 64, 0
2, 18412, Control_c, 0, 64, 127
2, 18424, Control_c, 0, 64, 127
2, 18502, Note_off_c, 0, 58, 64
2, 18512, Note_off_c, 0, 63, 64
2, 18513, Note_off_c, 0, 67, 64
2, 18575, Note_on_c, 0, 67, 41
2, 18576, Note_on_c, 0, 57, 46
2, 18585, Control_c, 0, 64, 0
2, 18589, Note_on_c, 0, 60, 39
2, 18597, Control_c, 0, 64, 0
2, 18607, Control_c, 0, 64, 127
2, 18619, Control_c, 0, 64, 127
2, 18637, Note_off_c, 0, 39, 64
2, 18722, Note_off_c, 0, 67, 64
2, 18723, Note_off_c, 0, 57, 64
2, 18736, Note_off_c, 0, 60, 64
2, 18779, Note_on_c, 0, 74, 69
2, 18785, Note_on_c, 0, 57, 49
2, 18789, Note_off_c, 0, 75, 64
2, 18790, Note_on_c, 0, 66, 50
2, 18792, Note_on_c, 0, 60, 53
2, 18932, Note_off_c, 0, 57, 64
2, 18937, Note_off_c, 0, 66, 64
2, 18939, Note_off_c, 0, 60, 64
2, 18988, Control_c, 0, 64, 0
2, 18988, Note_on_c, 0, 73, 64
2, 18994, Note_on_c, 0, 66, 49
2, 18994, Note_on_c, 0, 57, 50
2, 18999, Note_on_c, 0, 60, 49
2, 19000, Control_c, 0, 64, 0
2, 19011, Note_off_c, 0, 74, 64
2, 19024, Control_c, 0, 64, 127
2, 19036, Control_c, 0, 64, 127
2, 19125, Note_on_c, 0, 74, 58
2, 19141, Note_off_c, 0, 57, 64
2, 19141, Note_off_c, 0, 66, 64
2, 19146, Note_off_c, 0, 60, 64
2, 19147, Note_off_c, 0, 73, 64
2, 19172, Note_on_c, 0, 75, 64
2, 19178, Note_on_c, 0, 66, 49
2, 19182, Control_c, 0, 64, 0
2, 19188, Note_on_c, 0, 60, 46
2, 19188, Note_on_c, 0, 56, 49
2, 19194, Control_c, 0, 64, 0
2, 19201, Note_off_c, 0, 74, 64
2, 19207, Control_c, 0, 64, 127
2, 19219, Control_c, 0, 64, 127
2, 19326, Note_on_c, 0, 74, 61
2, 19360, Note_off_c, 0, 75, 64
2, 19371, Control_c, 0, 64, 0
2, 19376, Note_on_c, 0, 67, 57
2, 19383, Control_c, 0, 64, 0
2, 19390, Note_on_c, 0, 59, 42
2, 19390, Note_on_c, 0, 55, 31
2, 19399, Note_off_c, 0, 74, 64
2, 19410, Control_c, 0, 64, 127
2, 19422, Control_c, 0, 64, 127
2, 19425, Note_off_c, 0, 66, 64
2, 19435, Note_off_c, 0, 56, 64
2, 19435, Note_off_c, 0, 60, 64
2, 19537, Note_off_c, 0, 55, 64
2, 19537, Note_off_c, 0, 59, 64
2, 19601, Control_c, 0, 64, 0
2, 19602, Note_on_c, 0, 73, 60
2, 19604, Note_on_c, 0, 66, 50
2, 19604, Note_on_c, 0, 57, 36
2, 19606, Note_on_c, 0, 55, 38
2, 19612, Note_off_c, 0, 67, 64
2, 19613, Control_c, 0, 64, 0
2, 19634, Control_c, 0, 64, 127
2, 19646, Control_c, 0, 64, 127
2, 19740, Note_on_c, 0, 74, 60
2, 19751, Note_off_c, 0, 57, 64
2, 19751, Note_off_c, 0, 66, 64
2, 19753, Note_off_c, 0, 55, 64
2, 19775, Note_off_c, 0, 73, 64
2, 19785, Note_on_c, 0, 75, 63
2, 19788, Note_on_c, 0, 66, 45
2, 19796, Note_on_c, 0, 57, 53
2, 19798, Note_on_c, 0, 55, 43
2, 19816, Note_off_c, 0, 74, 64
2, 19929, Note_on_c, 0, 74, 54
2, 19935, Note_off_c, 0, 66, 64
2, 19943, Note_off_c, 0, 57, 64
2, 19945, Note_off_c, 0, 55, 64
2, 19959, Note_off_c, 0, 75, 64
2, 19987, Note_on_c, 0, 59, 46
2, 19989, Note_on_c, 0, 55, 50
2, 19991, Note_on_c, 0, 79, 65
2, 19995, Note_on_c, 0, 65, 49
2, 19999, Control_c, 0, 64, 0
2, 20006, Note_off_c, 0, 74, 64
2, 20011, Control_c, 0, 64, 0
2, 20046, Control_c, 0, 64, 127
2, 20058, Control_c, 0, 64, 127
2, 20134, Note_off_c, 0, 59, 64
2, 20136, Note_off_c, 0, 55, 64
2, 20142, Note_off_c, 0, 65, 64
2, 20197, Note_on_c, 0, 73, 54
2, 20207, Note_on_c, 0, 57, 49
2, 20208, Note_on_c, 0, 66, 46
2, 20210, Control_c, 0, 64, 0
2, 20214, Note_on_c, 0, 55, 46
2, 20222, Control_c, 0, 64, 0
2, 20226, Note_off_c, 0, 79, 64
2, 20227, Control_c, 0, 64, 127
2, 20239, Control_c, 0, 64, 127
2, 20346, Note_on_c, 0, 74, 57
2, 20354, Note_off_c, 0, 57, 64
2, 20355, Note_off_c, 0, 66, 64
2, 20358, Note_off_c, 0, 73, 64
2, 20361, Note_off_c, 0, 55, 64
2, 20400, Note_on_c, 0, 75, 58
2, 20400, Note_on_c, 0, 66, 47
2, 20404, Note_on_c, 0, 57, 46
2, 20411, Note_on_c, 0, 55, 38
2, 20424, Note_off_c, 0, 74, 64
2, 20547, Note_off_c, 0, 66, 64
2, 20551, Note_off_c, 0, 57, 64
2, 20558, Note_off_c, 0, 55, 64
2, 20565, Note_on_c, 0, 74, 46
2, 20605, Note_off_c, 0, 75, 64
2, 20617, Note_on_c, 0, 67, 52
2, 20620, Note_on_c, 0, 59, 46
2, 20625, Note_on_c, 0, 55, 31
2, 20628, Control_c, 0, 64, 0
2, 20630, Note_off_c, 0, 74, 64
2, 20640, Control_c, 0, 64, 0
2, 20671, Control_c, 0, 64, 127
2, 20683, Control_c, 0, 64, 127
2, 20767, Note_off_c, 0, 59, 64
2, 20772, Note_off_c, 0, 55, 64
2, 20850, Note_on_c, 0, 73, 54
2, 20859, Note_on_c, 0, 66, 38
2, 20859, Note_on_c, 0, 57, 41
2, 20866, Note_off_c, 0, 67, 64
2, 20866, Control_c, 0, 64, 0
2, 20866, Note_on_c, 0, 55, 30
2, 20878, Control_c, 0, 64, 0
2, 20912, Control_c, 0, 64, 127
2, 20924, Control_c, 0, 64, 127
2, 21006, Note_off_c, 0, 57, 64
2, 21006, Note_off_c, 0, 66, 64
2, 21013, Note_off_c, 0, 55, 64
2, 21056, Note_on_c, 0, 74, 46
2, 21076, Note_off_c, 0, 73, 64
2, 21100, Note_on_c, 0, 55, 34
2, 21102, Note_on_c, 0, 66, 39
2, 21107, Note_on_c, 0, 75, 57
2, 21108, Note_on_c, 0, 57, 34
2, 21137, Note_off_c, 0, 74, 64
2, 21247, Note_off_c, 0, 55, 64
2, 21249, Note_off_c, 0, 66, 64
2, 21255, Note_off_c, 0, 57, 64
2, 21336, Note_on_c, 0, 74, 46
2, 21369, Note_off_c, 0, 75, 64
2, 21432, Note_on_c, 0, 65, 38
2, 21432, Note_on_c, 0, 59, 36
2, 21440, Note_on_c, 0, 79, 52
2, 21443, Note_on_c, 0, 55, 36
2, 21463, Note_off_c, 0, 74, 64
2, 21488, Control_c, 0, 64, 0
2, 21500, Control_c, 0, 64, 0
2, 21550, Control_c, 0, 64, 127
2, 21562, Control_c, 0, 64, 127
2, 21735, Note_on_c, 0, 73, 43
2, 21759, Note_off_c, 0, 79, 64
2, 21892, Note_on_c, 0, 74, 50
2, 21908, Note_off_c, 0, 73, 64
2, 21945, Note_on_c, 0, 75, 46
2, 21958, Note_off_c, 0, 74, 64
2, 22096, Note_on_c, 0, 74, 53
2, 22129, Note_off_c, 0, 75, 64
2, 22153, Note_on_c, 0, 67, 57
2, 22173, Note_off_c, 0, 74, 64
2, 22202, Control_c, 0, 64, 0
2, 22214, Control_c, 0, 64, 0
2, 22236, Control_c, 0, 64, 127
2, 22248, Control_c, 0, 64, 127
2, 22370, Note_on_c, 0, 73, 50
2, 22522, Note_on_c, 0, 74, 46
2, 22539, Note_off_c, 0, 73, 64
2, 22589, Note_on_c, 0, 75, 58
2, 22603, Note_off_c, 0, 74, 64
2, 22773, Note_on_c, 0, 74, 41
2, 22799, Note_off_c, 0, 75, 64
2, 22915, Note_on_c, 0, 79, 46
2, 22928, Note_off_c, 0, 74, 64
2, 23225, Note_on_c, 0, 73, 43
2, 23242, Control_c, 0, 64, 0
2, 23254, Control_c, 0, 64, 0
2, 23266, Note_off_c, 0, 79, 64
2, 23286, Control_c, 0, 64, 127
2, 23298, Control_c, 0, 64, 127
2, 23435, Note_on_c, 0, 74, 46
2, 23465, Note_off_c, 0, 73, 64
2, 23536, Note_on_c, 0, 75, 46
2, 23569, Note_off_c, 0, 74, 64
2, 23804, Note_on_c, 0, 74, 46
2, 23837, Note_off_c, 0, 75, 64
2, 23964, Note_on_c, 0, 80, 46
2, 23981, Note_off_c, 0, 74, 64
2, 24022, Control_c, 0, 64, 0
2, 24034, Control_c, 0, 64, 0
2, 24054, Control_c, 0, 64, 127
2, 24066, Control_c, 0, 64, 127
2, 24687, Note_on_c, 0, 79, 31
2, 24701, Note_off_c, 0, 80, 64
2, 24852, Note_off_c, 0, 55, 64
2, 24852, Note_off_c, 0, 59, 64
2, 24852, Note_off_c, 0, 65, 64
2, 24853, Note_off_c, 0, 67, 64
2, 25053, Note_on_c, 0, 67, 27
2, 25064, Note_off_c, 0, 79, 64
2, 25179, Note_on_c, 0, 70, 36
2, 25188, Note_off_c, 0, 67, 64
2, 25212, Note_on_c, 0, 68, 50
2, 25229, Note_off_c, 0, 70, 64
2, 25274, Note_on_c, 0, 67, 46
2, 25277, Control_c, 0, 64, 0
2, 25279, Note_off_c, 0, 68, 64
2, 25282, Note_on_c, 0, 62, 28
2, 25282, Note_on_c, 0, 55, 24
2, 25289, Control_c, 0, 64, 0
2, 25301, Control_c, 0, 64, 127
2, 25313, Control_c, 0, 64, 127
2, 25393, Note_on_c, 0, 71, 45
2, 25429, Note_off_c, 0, 55, 64
2, 25429, Note_off_c, 0, 62, 64
2, 25480, Note_on_c, 0, 65, 46
2, 25481, Note_on_c, 0, 55, 30
2, 25482, Note_on_c, 0, 72, 46
2, 25487, Note_on_c, 0, 62, 30
2, 25489, Note_off_c, 0, 67, 64
2, 25502, Note_off_c, 0, 71, 64
2, 25567, Note_on_c, 0, 74, 49
2, 25582, Note_off_c, 0, 72, 64
2, 25628, Note_off_c, 0, 55, 64
2, 25634, Note_off_c, 0, 62, 64
2, 25657, Note_on_c, 0, 77, 52
2, 25668, Note_off_c, 0, 74, 64
2, 25673, Control_c, 0, 64, 0
2, 25683, Note_on_c, 0, 75, 53
2, 25685, Note_off_c, 0, 65, 64
2, 25685, Control_c, 0, 64, 0
2, 25708, Note_off_c, 0, 77, 64
2, 25754, Note_on_c, 0, 74, 53
2, 25763, Note_off_c, 0, 75, 64
2, 25841, Note_on_c, 0, 48, 28
2, 25848, Note_on_c, 0, 72, 50
2, 25848, Note_on_c, 0, 63, 36
2, 25848, Note_on_c, 0, 55, 30
2, 25855, Control_c, 0, 64, 0
2, 25867, Note_off_c, 0, 74, 64
2, 25867, Control_c, 0, 64, 0
2, 25874, Note_off_c, 0, 48, 64
2, 25881, Note_off_c, 0, 55, 64
2, 25881, Note_off_c, 0, 63, 64
2, 25884, Control_c, 0, 64, 127
2, 25896, Control_c, 0, 64, 127
2, 26029, Note_on_c, 0, 63, 36
2, 26035, Note_on_c, 0, 55, 26
2, 26035, Note_on_c, 0, 48, 30
2, 26062, Note_off_c, 0, 63, 64
2, 26068, Note_off_c, 0, 48, 64
2, 26068, Note_off_c, 0, 55, 64
2, 26209, Note_on_c, 0, 74, 52
2, 26236, Note_off_c, 0, 72, 64
2, 26294, Note_on_c, 0, 75, 46
2, 26297, Note_off_c, 0, 74, 64
2, 26376, Note_on_c, 0, 79, 38
2, 26383, Note_on_c, 0, 48, 30
2, 26387, Note_on_c, 0, 59, 28
2, 26388, Note_on_c, 0, 55, 30
2, 26395, Note_on_c, 0, 65, 30
2, 26398, Note_on_c, 0, 77, 43
2, 26416, Note_off_c, 0, 48, 64
2, 26420, Note_off_c, 0, 59, 64
2, 26420, Note_off_c, 0, 79, 64
2, 26421, Note_off_c, 0, 55, 64
2, 26428, Note_off_c, 0, 65, 64
2, 26437, Note_off_c, 0, 75, 64
2, 26572, Note_on_c, 0, 75, 50
2, 26572, Note_on_c, 0, 48, 21
2, 26580, Note_off_c, 0, 77, 64
2, 26580, Note_on_c, 0, 55, 27
2, 26583, Note_on_c, 0, 62, 19
2, 26587, Note_on_c, 0, 65, 15
2, 26605, Note_off_c, 0, 48, 64
2, 26613, Note_off_c, 0, 55, 64
2, 26616, Note_off_c, 0, 62, 64
2, 26620, Note_off_c, 0, 65, 64
2, 26663, Note_on_c, 0, 74, 53
2, 26670, Note_off_c, 0, 75, 64
2, 26711, Note_off_c, 0, 74, 64
2, 26739, Note_on_c, 0, 74, 58
2, 26822, Note_on_c, 0, 75, 58
2, 26837, Note_off_c, 0, 74, 64
2, 26903, Note_on_c, 0, 63, 32
2, 26904, Control_c, 0, 64, 0
2, 26906, Note_on_c, 0, 72, 53
2, 26911, Note_off_c, 0, 75, 64
2, 26916, Note_on_c, 0, 60, 35
2, 26916, Note_on_c, 0, 55, 30
2, 26916, Control_c, 0, 64, 0
2, 26923, Control_c, 0, 64, 127
2, 26923, Note_on_c, 0, 48, 26
2, 26935, Control_c, 0, 64, 127
2, 26936, Note_off_c, 0, 63, 64
2, 26949, Note_off_c, 0, 55, 64
2, 26949, Note_off_c, 0, 60, 64
2, 26956, Note_off_c, 0, 48, 64
2, 27081, Control_c, 0, 64, 0
2, 27093, Control_c, 0, 64, 0
2, 27101, Note_on_c, 0, 63, 31
2, 27108, Note_on_c, 0, 55, 31
2, 27110, Note_on_c, 0, 48, 31
2, 27112, Note_on_c, 0, 60, 35
2, 27127, Control_c, 0, 64, 127
2, 27134, Note_off_c, 0, 63, 64
2, 27139, Control_c, 0, 64, 127
2, 27141, Note_off_c, 0, 55, 64
2, 27143, Note_off_c, 0, 48, 64
2, 27145, Note_off_c, 0, 60, 64
2, 27282, Note_on_c, 0, 62, 60
2, 27288, Note_off_c, 0, 72, 64
2, 27384, Note_on_c, 0, 65, 42
2, 27403, Note_off_c, 0, 62, 64
2, 27419, Note_on_c, 0, 63, 67
2, 27441, Note_off_c, 0, 65, 64
2, 27446, Control_c, 0, 64, 0
2, 27458, Control_c, 0, 64, 0
2, 27468, Note_on_c, 0, 62, 68
2, 27473, Note_on_c, 0, 57, 67
2, 27478, Note_on_c, 0, 50, 60
2, 27479, Note_off_c, 0, 63, 64
2, 27489, Control_c, 0, 64, 127
2, 27501, Control_c, 0, 64, 127
2, 27557, Note_on_c, 0, 66, 61
2, 27618, Control_c, 0, 64, 0
2, 27620, Note_off_c, 0, 57, 64
2, 27625, Note_off_c, 0, 50, 64
2, 27630, Control_c, 0, 64, 0
2, 27645, Note_on_c, 0, 67, 69
2, 27648, Note_on_c, 0, 60, 68
2, 27652, Note_on_c, 0, 57, 64
2, 27655, Note_on_c, 0, 50, 64
2, 27657, Note_off_c, 0, 66, 64
2, 27659, Control_c, 0, 64, 127
2, 27671, Note_off_c, 0, 62, 64
2, 27671, Control_c, 0, 64, 127
2, 27739, Note_on_c, 0, 69, 60
2, 27747, Note_off_c, 0, 67, 64
2, 27799, Note_off_c, 0, 57, 64
2, 27802, Note_off_c, 0, 50, 64
2, 27804, Note_on_c, 0, 72, 61
2, 27811, Note_off_c, 0, 69, 64
2, 27841, Note_on_c, 0, 70, 80
2, 27843, Note_off_c, 0, 60, 64
2, 27851, Note_off_c, 0, 72, 64
2, 27920, Note_on_c, 0, 69, 52
2, 27932, Note_off_c, 0, 70, 64
2, 27997, Control_c, 0, 64, 0
2, 28003, Note_on_c, 0, 67, 64
2, 28009, Control_c, 0, 64, 0
2, 28015, Note_on_c, 0, 58, 46
2, 28015, Note_on_c, 0, 55, 35
2, 28015, Note_on_c, 0, 43, 50
2, 28026, Note_off_c, 0, 69, 64
2, 28046, Control_c, 0, 64, 127
2, 28058, Control_c, 0, 64, 127
2, 28195, Note_on_c, 0, 46, 60
2, 28198, Note_on_c, 0, 62, 41
2, 28200, Note_off_c, 0, 43, 64
2, 28200, Note_off_c, 0, 58, 64
2, 28217, Control_c, 0, 64, 0
2, 28229, Control_c, 0, 64, 0
2, 28250, Control_c, 0, 64, 127
2, 28262, Control_c, 0, 64, 127
2, 28409, Note_on_c, 0, 69, 67
2, 28411, Note_on_c, 0, 63, 54
2, 28411, Note_on_c, 0, 48, 57
2, 28419, Note_off_c, 0, 46, 64
2, 28422, Note_off_c, 0, 62, 64
2, 28433, Note_off_c, 0, 67, 64
2, 28438, Control_c, 0, 64, 0
2, 28450, Control_c, 0, 64, 0
2, 28472, Control_c, 0, 64, 127
2, 28484, Control_c, 0, 64, 127
2, 28522, Note_on_c, 0, 70, 50
2, 28542, Note_off_c, 0, 69, 64
2, 28562, Note_off_c, 0, 63, 64
2, 28584, Control_c, 0, 64, 127
2, 28589, Note_on_c, 0, 74, 63
2, 28592, Note_off_c, 0, 70, 64
2, 28596, Control_c, 0, 64, 127
2, 28620, Control_c, 0, 64, 0
2, 28628, Note_on_c, 0, 72, 61
2, 28628, Note_on_c, 0, 67, 57
2, 28628, Note_on_c, 0, 63, 57
2, 28628, Note_on_c, 0, 45, 56
2, 28632, Control_c, 0, 64, 0
2, 28648, Control_c, 0, 64, 127
2, 28651, Note_off_c, 0, 48, 64
2, 28658, Note_off_c, 0, 74, 64
2, 28660, Control_c, 0, 64, 127
2, 28817, Note_on_c, 0, 70, 60
2, 28820, Note_on_c, 0, 60, 47
2, 28820, Note_on_c, 0, 50, 60
2, 28822, Note_on_c, 0, 66, 50
2, 28831, Control_c, 0, 64, 0
2, 28837, Note_off_c, 0, 72, 64
2, 28840, Note_off_c, 0, 63, 64
2, 28840, Note_off_c, 0, 67, 64
2, 28843, Control_c, 0, 64, 0
2, 28859, Note_off_c, 0, 45, 64
2, 28867, Control_c, 0, 64, 127
2, 28879, Control_c, 0, 64, 127
2, 28912, Note_on_c, 0, 69, 71
2, 28926, Note_off_c, 0, 70, 64
2, 29023, Note_on_c, 0, 67, 73
2, 29028, Control_c, 0, 64, 0
2, 29029, Note_off_c, 0, 55, 64
2, 29036, Note_off_c, 0, 69, 64
2, 29036, Note_off_c, 0, 50, 64
2, 29036, Note_off_c, 0, 60, 64
2, 29038, Note_off_c, 0, 66, 64
2, 29040, Control_c, 0, 64, 0
2, 29077, Control_c, 0, 64, 127
2, 29089, Control_c, 0, 64, 127
2, 29280, Note_on_c, 0, 62, 54
2, 29280, Note_on_c, 0, 59, 52
2, 29280, Note_on_c, 0, 43, 49
2, 29295, Control_c, 0, 64, 0
2, 29307, Control_c, 0, 64, 0
2, 29328, Control_c, 0, 64, 127
2, 29340, Control_c, 0, 64, 127
2, 29520, Note_on_c, 0, 55, 45
2, 29523, Note_on_c, 0, 63, 39
2, 29523, Note_on_c, 0, 60, 53
2, 29531, Note_off_c, 0, 59, 64
2, 29531, Note_off_c, 0, 62, 64
2, 29604, Note_on_c, 0, 61, 32
2, 29606, Note_on_c, 0, 64, 42
2, 29627, Note_off_c, 0, 60, 64
2, 29629, Note_off_c, 0, 55, 64
2, 29649, Note_off_c, 0, 63, 64
2, 29696, Control_c, 0, 64, 0
2, 29708, Control_c, 0, 64, 0
2, 29717, Note_on_c, 0, 65, 46
2, 29717, Note_on_c, 0, 62, 45
2, 29727, Note_on_c, 0, 55, 41
2, 29728, Control_c, 0, 64, 127
2, 29734, Note_off_c, 0, 61, 64
2, 29736, Note_off_c, 0, 64, 64
2, 29740, Control_c, 0, 64, 127
2, 29751, Note_off_c, 0, 43, 64
2, 29826, Note_off_c, 0, 62, 64
2, 29826, Note_off_c, 0, 65, 64
2, 29836, Note_off_c, 0, 55, 64
2, 29850, Note_on_c, 0, 68, 44
2, 29869, Note_on_c, 0, 70, 54
2, 29884, Note_off_c, 0, 68, 64
2, 29884, Note_off_c, 0, 67, 64
2, 29906, Note_on_c, 0, 68, 47
2, 29921, Note_off_c, 0, 70, 64
2, 29959, Note_on_c, 0, 67, 54
2, 29963, Control_c, 0, 64, 0
2, 29968, Note_off_c, 0, 68, 64
2, 29968, Note_on_c, 0, 65, 39
2, 29974, Note_on_c, 0, 62, 39
2, 29975, Control_c, 0, 64, 0
2, 29980, Note_on_c, 0, 55, 36
2, 29987, Control_c, 0, 64, 127
2, 29999, Control_c, 0, 64, 127
2, 30077, Note_off_c, 0, 65, 64
2, 30083, Note_off_c, 0, 62, 64
2, 30089, Note_off_c, 0, 55, 64
2, 30089, Note_on_c, 0, 71, 35
2, 30104, Note_off_c, 0, 67, 64
2, 30176, Note_on_c, 0, 65, 39
2, 30182, Note_on_c, 0, 72, 44
2, 30182, Note_on_c, 0, 62, 35
2, 30182, Note_on_c, 0, 55, 31
2, 30183, Control_c, 0, 64, 0
2, 30194, Note_off_c, 0, 71, 64
2, 30195, Control_c, 0, 64, 0
2, 30206, Control_c, 0, 64, 127
2, 30218, Control_c, 0, 64, 127
2, 30264, Note_on_c, 0, 74, 47
2, 30272, Note_off_c, 0, 62, 64
2, 30280, Note_off_c, 0, 72, 64
2, 30306, Note_off_c, 0, 65, 64
2, 30310, Note_off_c, 0, 55, 64
2, 30345, Note_on_c, 0, 77, 43
2, 30361, Note_off_c, 0, 74, 64
2, 30376, Note_on_c, 0, 75, 54
2, 30398, Note_off_c, 0, 77, 64
2, 30451, Note_on_c, 0, 74, 48
2, 30466, Note_off_c, 0, 75, 64
2, 30536, Note_on_c, 0, 72, 51
2, 30536, Note_on_c, 0, 48, 31
2, 30542, Note_on_c, 0, 55, 31
2, 30546, Control_c, 0, 64, 0
2, 30547, Note_on_c, 0, 63, 39
2, 30558, Control_c, 0, 64, 0
2, 30561, Control_c, 0, 64, 127
2, 30569, Note_off_c, 0, 48, 64
2, 30573, Control_c, 0, 64, 127
2, 30575, Note_off_c, 0, 55, 64
2, 30580, Note_off_c, 0, 63, 64
2, 30585, Note_off_c, 0, 74, 64
2, 30733, Control_c, 0, 64, 0
2, 30745, Control_c, 0, 64, 0
2, 30752, Note_on_c, 0, 55, 39
2, 30752, Note_on_c, 0, 48, 39
2, 30756, Note_on_c, 0, 63, 41
2, 30772, Control_c, 0, 64, 127
2, 30784, Control_c, 0, 64, 127
2, 30785, Note_off_c, 0, 48, 64
2, 30785, Note_off_c, 0, 55, 64
2, 30789, Note_off_c, 0, 63, 64
2, 30913, Note_on_c, 0, 74, 47
2, 30937, Note_off_c, 0, 72, 64
2, 30979, Note_on_c, 0, 75, 51
2, 30998, Note_off_c, 0, 74, 64
2, 31049, Note_on_c, 0, 79, 47
2, 31050, Control_c, 0, 64, 0
2, 31053, Note_off_c, 0, 75, 64
2, 31062, Control_c, 0, 64, 0
2, 31075, Note_on_c, 0, 65, 36
2, 31080, Note_on_c, 0, 59, 29
2, 31085, Note_on_c, 0, 55, 31
2, 31086, Note_on_c, 0, 77, 47
2, 31089, Note_on_c, 0, 48, 27
2, 31106, Control_c, 0, 64, 127
2, 31108, Note_off_c, 0, 65, 64
2, 31113, Note_off_c, 0, 59, 64
2, 31116, Note_off_c, 0, 79, 64
2, 31118, Note_off_c, 0, 55, 64
2, 31118, Control_c, 0, 64, 127
2, 31122, Note_off_c, 0, 48, 64
2, 31243, Control_c, 0, 64, 0
2, 31255, Control_c, 0, 64, 0
2, 31260, Note_on_c, 0, 75, 44
2, 31264, Note_on_c, 0, 65, 26
2, 31264, Note_on_c, 0, 62, 29
2, 31272, Note_on_c, 0, 48, 29
2, 31276, Note_off_c, 0, 77, 64
2, 31278, Note_on_c, 0, 55, 26
2, 31282, Control_c, 0, 64, 127
2, 31294, Control_c, 0, 64, 127
2, 31297, Note_off_c, 0, 62, 64
2, 31297, Note_off_c, 0, 65, 64
2, 31305, Note_off_c, 0, 48, 64
2, 31311, Note_off_c, 0, 55, 64
2, 31351, Note_on_c, 0, 74, 41
2, 31354, Note_off_c, 0, 75, 64
2, 31400, Note_off_c, 0, 74, 64
2, 31425, Note_on_c, 0, 74, 48
2, 31501, Note_on_c, 0, 75, 51
2, 31512, Note_off_c, 0, 74, 64
2, 31551, Control_c, 0, 64, 0
2, 31563, Control_c, 0, 64, 0
2, 31584, Note_off_c, 0, 75, 64
2, 31586, Note_on_c, 0, 72, 48
2, 31586, Note_on_c, 0, 63, 39
2, 31593, Note_on_c, 0, 60, 39
2, 31593, Note_on_c, 0, 55, 31
2, 31593, Note_on_c, 0, 48, 36
2, 31619, Note_off_c, 0, 63, 64
2, 31626, Note_off_c, 0, 48, 64
2, 31626, Note_off_c, 0, 55, 64
2, 31626, Note_off_c, 0, 60, 64
2, 31776, Control_c, 0, 64, 127
2, 31788, Control_c, 0, 64, 127
2, 31796, Note_on_c, 0, 63, 36
2, 31801, Note_on_c, 0, 55, 35
2, 31805, Note_on_c, 0, 48, 35
2, 31808, Note_on_c, 0, 60, 36
2, 31829, Note_off_c, 0, 63, 64
2, 31834, Note_off_c, 0, 55, 64
2, 31838, Note_off_c, 0, 48, 64
2, 31841, Note_off_c, 0, 60, 64
2, 31979, Note_on_c, 0, 74, 45
2, 31997, Note_off_c, 0, 72, 64
2, 32052, Note_on_c, 0, 75, 38
2, 32062, Note_off_c, 0, 74, 64
2, 32120, Note_off_c, 0, 75, 64
2, 32121, Control_c, 0, 64, 0
2, 32122, Note_on_c, 0, 79, 36
2, 32133, Control_c, 0, 64, 0
2, 32140, Note_on_c, 0, 65, 34
2, 32140, Note_on_c, 0, 55, 31
2, 32145, Note_on_c, 0, 59, 31
2, 32150, Note_on_c, 0, 48, 31
2, 32152, Note_on_c, 0, 77, 31
2, 32173, Note_off_c, 0, 55, 64
2, 32173, Note_off_c, 0, 65, 64
2, 32178, Note_off_c, 0, 59, 64
2, 32182, Control_c, 0, 64, 127
2, 32183, Note_off_c, 0, 48, 64
2, 32184, Note_off_c, 0, 79, 64
2, 32194, Control_c, 0, 64, 127
2, 32313, Note_on_c, 0, 75, 45
2, 32322, Note_on_c, 0, 55, 35
2, 32322, Note_on_c, 0, 48, 34
2, 32327, Note_on_c, 0, 65, 19
2, 32328, Note_on_c, 0, 59, 38
2, 32332, Note_off_c, 0, 77, 64
2, 32355, Note_off_c, 0, 48, 64
2, 32355, Note_off_c, 0, 55, 64
2, 32360, Note_off_c, 0, 65, 64
2, 32361, Note_off_c, 0, 59, 64
2, 32405, Note_on_c, 0, 74, 38
2, 32418, Note_off_c, 0, 75, 64
2, 32460, Control_c, 0, 64, 0
2, 32472, Control_c, 0, 64, 0
2, 32486, Note_on_c, 0, 80, 52
2, 32493, Note_off_c, 0, 74, 64
2, 32565, Control_c, 0, 64, 127
2, 32567, Note_on_c, 0, 74, 45
2, 32577, Control_c, 0, 64, 127
2, 32590, Note_off_c, 0, 80, 64
2, 32642, Control_c, 0, 64, 0
2, 32654, Control_c, 0, 64, 0
2, 32661, Note_on_c, 0, 79, 45
2, 32668, Note_on_c, 0, 65, 17
2, 32670, Note_on_c, 0, 48, 26
2, 32674, Note_on_c, 0, 55, 21
2, 32679, Note_off_c, 0, 74, 64
2, 32679, Note_on_c, 0, 59, 24
2, 32680, Control_c, 0, 64, 127
2, 32683, Note_on_c, 0, 77, 28
2, 32692, Control_c, 0, 64, 127
2, 32701, Note_off_c, 0, 65, 64
2, 32703, Note_off_c, 0, 48, 64
2, 32707, Note_off_c, 0, 55, 64
2, 32712, Note_off_c, 0, 59, 64
2, 32725, Note_off_c, 0, 79, 64
2, 32904, Control_c, 0, 64, 127
2, 32915, Note_on_c, 0, 75, 42
2, 32916, Control_c, 0, 64, 127
2, 32932, Note_on_c, 0, 59, 10
2, 32932, Note_on_c, 0, 48, 23
2, 32937, Note_on_c, 0, 55, 15
2, 32940, Note_on_c, 0, 65, 17
2, 32947, Note_off_c, 0, 77, 64
2, 32965, Note_off_c, 0, 48, 64
2, 32965, Note_off_c, 0, 59, 64
2, 32970, Note_off_c, 0, 55, 64
2, 32973, Note_off_c, 0, 65, 64
2, 33017, Note_on_c, 0, 74, 41
2, 33037, Note_off_c, 0, 75, 64
2, 33167, Note_on_c, 0, 36, 54
2, 33167, Control_c, 0, 64, 0
2, 33173, Note_on_c, 0, 80, 46
2, 33179, Control_c, 0, 64, 0
2, 33186, Note_off_c, 0, 74, 64
2, 33192, Control_c, 0, 64, 127
2, 33204, Control_c, 0, 64, 127
2, 33330, Note_on_c, 0, 74, 41
2, 33369, Note_off_c, 0, 80, 64
2, 33462, Note_on_c, 0, 79, 38
2, 33468, Note_on_c, 0, 59, 36
2, 33471, Note_on_c, 0, 56, 35
2, 33475, Note_off_c, 0, 74, 64
2, 33478, Note_on_c, 0, 65, 38
2, 33494, Note_on_c, 0, 77, 28
2, 33547, Note_off_c, 0, 79, 64
2, 33615, Note_off_c, 0, 59, 64
2, 33618, Note_off_c, 0, 56, 64
2, 33625, Note_off_c, 0, 65, 64
2, 33764, Note_on_c, 0, 75, 38
2, 33768, Note_on_c, 0, 65, 24
2, 33768, Note_on_c, 0, 59, 34
2, 33768, Note_on_c, 0, 56, 23
2, 33780, Control_c, 0, 64, 0
2, 33792, Control_c, 0, 64, 0
2, 33795, Note_off_c, 0, 77, 64
2, 33812, Control_c, 0, 64, 127
2, 33824, Control_c, 0, 64, 127
2, 33906, Note_on_c, 0, 74, 38
2, 33923, Note_off_c, 0, 75, 64
2, 33955, Note_off_c, 0, 36, 64
2, 33965, Note_off_c, 0, 74, 64
2, 34027, Note_on_c, 0, 74, 38
2, 34140, Note_off_c, 0, 59, 64
2, 34142, Note_off_c, 0, 56, 64
2, 34142, Note_on_c, 0, 75, 42
2, 34165, Note_off_c, 0, 65, 64
2, 34167, Note_off_c, 0, 74, 64
2, 34306, Note_on_c, 0, 72, 38
2, 34315, Note_on_c, 0, 56, 28
2, 34318, Note_on_c, 0, 65, 23
2, 34319, Note_on_c, 0, 60, 28
2, 34328, Note_off_c, 0, 75, 64
2, 34628, Note_off_c, 0, 56, 64
2, 34631, Note_off_c, 0, 65, 64
2, 34632, Note_off_c, 0, 60, 64
2, 34698, Note_on_c, 0, 60, 20
2, 34700, Note_on_c, 0, 65, 20
2, 34701, Note_on_c, 0, 56, 21
2, 34719, Control_c, 0, 64, 0
2, 34731, Control_c, 0, 64, 0
2, 34732, Control_c, 0, 64, 127
2, 34744, Control_c, 0, 64, 127
2, 35095, Note_off_c, 0, 60, 64
2, 35097, Note_off_c, 0, 65, 64
2, 35098, Note_off_c, 0, 56, 64
2, 35138, Note_on_c, 0, 62, 23
2, 35141, Note_on_c, 0, 50, 27
2, 35167, Control_c, 0, 64, 0
2, 35179, Control_c, 0, 64, 0
2, 35219, Control_c, 0, 64, 127
2, 35231, Control_c, 0, 64, 127
2, 35366, Note_on_c, 0, 51, 23
2, 35373, Note_on_c, 0, 63, 27
2, 35388, Note_off_c, 0, 50, 64
2, 35395, Note_off_c, 0, 62, 64
2, 35636, Note_on_c, 0, 48, 17
2, 35638, Note_on_c, 0, 60, 16
2, 35656, Note_off_c, 0, 63, 64
2, 35674, Control_c, 0, 64, 0
2, 35681, Note_off_c, 0, 51, 64
2, 35686, Control_c, 0, 64, 0
2, 35921, Control_c, 0, 64, 127
2, 35933, Control_c, 0, 64, 127
2, 37602, Note_off_c, 0, 48, 64
2, 37640, Note_off_c, 0, 60, 64
2, 37653, Note_off_c, 0, 72, 64
2, 37727, Control_c, 0, 64, 0
2, 37739, Control_c, 0, 64, 0
