0, 0, Header, 1, 7, 240
1, 0, Start_track
1, 0, Time_signature, 4, 2, 24, 8
1, 0, Tempo, 500000
1, 0, Marker_t, "Chopin: Mazurka, Op. 17 No. 2- Lento ma non troppo"
1, 0, End_track
2, 0, Start_track
2, 0, Title_t, "Chopin: Op. 17 No. 2"
2, 0, Program_c, 0, 0
2, 0, Control_c, 0, 7, 127
2, 0, Control_c, 0, 64, 127
2, 261, Control_c, 0, 64, 0
2, 341, Control_c, 0, 64, 127
2, 497, Control_c, 0, 64, 0
2, 534, Control_c, 0, 64, 127
2, 541, Note_on_c, 0, 71, 61
2, 549, Control_c, 0, 64, 0
2, 629, Control_c, 0, 64, 127
2, 747, Note_on_c, 0, 40, 57
2, 776, Control_c, 0, 64, 0
2, 785, Control_c, 0, 64, 0
2, 798, Note_on_c, 0, 69, 65
2, 799, Control_c, 0, 64, 127
2, 822, Control_c, 0, 64, 127
2, 832, Note_off_c, 0, 71, 64
2, 1018, Note_on_c, 0, 67, 55
2, 1041, Note_off_c, 0, 69, 64
2, 1054, Note_off_c, 0, 40, 64
2, 1064, Note_on_c, 0, 66, 66
2, 1064, Control_c, 0, 64, 0
2, 1071, Note_on_c, 0, 55, 41
2, 1079, Note_on_c, 0, 59, 29
2, 1087, Control_c, 0, 64, 127
2, 1096, Note_off_c, 0, 67, 64
2, 1156, Note_off_c, 0, 55, 64
2, 1172, Note_off_c, 0, 59, 64
2, 1270, Control_c, 0, 64, 0
2, 1279, Note_on_c, 0, 64, 66
2, 1279, Note_on_c, 0, 59, 35
2, 1279, Note_on_c, 0, 55, 36
2, 1286, Control_c, 0, 64, 127
2, 1298, Note_off_c, 0, 66, 64
2, 1475, Note_on_c, 0, 45, 46
2, 1518, Note_off_c, 0, 55, 64
2, 1518, Note_off_c, 0, 59, 64
2, 1541, Note_on_c, 0, 74, 70
2, 1557, Note_off_c, 0, 64, 64
2, 1558, Control_c, 0, 64, 0
2, 1574, Control_c, 0, 64, 127
2, 1790, Note_on_c, 0, 64, 22
2, 1790, Note_on_c, 0, 60, 31
2, 1790, Note_on_c, 0, 57, 35
2, 1797, Note_off_c, 0, 45, 64
2, 1865, Note_off_c, 0, 57, 64
2, 1866, Note_off_c, 0, 60, 64
2, 1872, Note_off_c, 0, 64, 64
2, 1947, Control_c, 0, 64, 0
2, 1993, Control_c, 0, 64, 127
2, 1993, Note_on_c, 0, 72, 57
2, 1994, Note_on_c, 0, 57, 33
2, 2002, Note_on_c, 0, 64, 31
2, 2004, Note_on_c, 0, 60, 28
2, 2010, Note_off_c, 0, 74, 64
2, 2120, Note_off_c, 0, 57, 64
2, 2122, Note_off_c, 0, 60, 64
2, 2153, Control_c, 0, 64, 0
2, 2158, Note_off_c, 0, 64, 64
2, 2184, Control_c, 0, 64, 127
2, 2214, Note_on_c, 0, 50, 53
2, 2220, Note_on_c, 0, 60, 44
2, 2223, Note_on_c, 0, 64, 35
2, 2228, Note_on_c, 0, 71, 66
2, 2230, Note_off_c, 0, 72, 64
2, 2235, Control_c, 0, 64, 0
2, 2281, Control_c, 0, 64, 127
2, 2335, Note_off_c, 0, 64, 64
2, 2356, Note_off_c, 0, 60, 64
2, 2374, Note_on_c, 0, 69, 57
2, 2409, Note_off_c, 0, 71, 64
2, 2441, Note_on_c, 0, 64, 57
2, 2441, Control_c, 0, 64, 0
2, 2448, Note_on_c, 0, 62, 23
2, 2455, Note_on_c, 0, 59, 36
2, 2471, Note_off_c, 0, 69, 64
2, 2472, Control_c, 0, 64, 127
2, 2546, Note_off_c, 0, 59, 64
2, 2546, Note_off_c, 0, 62, 64
2, 2552, Note_on_c, 0, 66, 55
2, 2568, Note_off_c, 0, 64, 64
2, 2605, Control_c, 0, 64, 0
2, 2641, Control_c, 0, 64, 127
2, 2663, Note_on_c, 0, 62, 61
2, 2667, Note_on_c, 0, 57, 33
2, 2671, Note_on_c, 0, 60, 37
2, 2677, Note_off_c, 0, 66, 64
2, 2732, Note_off_c, 0, 50, 64
2, 2787, Note_off_c, 0, 57, 64
2, 2798, Note_off_c, 0, 60, 64
2, 2811, Note_on_c, 0, 67, 59
2, 2838, Note_off_c, 0, 62, 64
2, 2843, Note_off_c, 0, 67, 64
2, 2867, Note_on_c, 0, 67, 66
2, 2893, Control_c, 0, 64, 0
2, 2896, Note_on_c, 0, 43, 58
2, 2906, Note_on_c, 0, 72, 66
2, 2923, Note_off_c, 0, 67, 64
2, 2929, Control_c, 0, 64, 127
2, 3119, Note_on_c, 0, 62, 39
2, 3124, Note_on_c, 0, 55, 39
2, 3194, Note_off_c, 0, 43, 64
2, 3266, Note_off_c, 0, 62, 64
2, 3280, Note_off_c, 0, 55, 64
2, 3363, Control_c, 0, 64, 0
2, 3385, Control_c, 0, 64, 127
2, 3396, Note_on_c, 0, 71, 61
2, 3423, Note_off_c, 0, 72, 64
2, 3635, Note_on_c, 0, 47, 41
2, 3651, Control_c, 0, 64, 0
2, 3673, Control_c, 0, 64, 127
2, 3744, Note_off_c, 0, 71, 64
2, 3807, Note_on_c, 0, 72, 53
2, 3858, Note_on_c, 0, 66, 36
2, 3861, Note_on_c, 0, 69, 19
2, 3865, Note_on_c, 0, 59, 40
2, 3871, Note_on_c, 0, 73, 62
2, 3876, Note_on_c, 0, 71, 39
2, 3881, Note_off_c, 0, 72, 64
2, 3914, Note_off_c, 0, 71, 64
2, 3918, Note_off_c, 0, 73, 64
2, 3928, Note_off_c, 0, 59, 64
2, 3928, Note_off_c, 0, 66, 64
2, 3934, Note_off_c, 0, 69, 64
2, 3938, Note_off_c, 0, 47, 64
2, 3976, Note_on_c, 0, 74, 67
2, 3976, Note_on_c, 0, 71, 55
2, 4015, Control_c, 0, 64, 0
2, 4018, Note_off_c, 0, 74, 64
2, 4051, Control_c, 0, 64, 127
2, 4080, Note_on_c, 0, 75, 70
2, 4080, Note_on_c, 0, 66, 40
2, 4082, Note_on_c, 0, 69, 37
2, 4084, Note_on_c, 0, 59, 39
2, 4255, Note_off_c, 0, 71, 64
2, 4263, Note_off_c, 0, 69, 64
2, 4264, Note_off_c, 0, 75, 64
2, 4270, Note_off_c, 0, 66, 64
2, 4286, Note_off_c, 0, 59, 64
2, 4293, Note_on_c, 0, 76, 63
2, 4298, Note_on_c, 0, 52, 46
2, 4303, Control_c, 0, 64, 0
2, 4339, Control_c, 0, 64, 127
2, 4416, Note_off_c, 0, 76, 64
2, 4435, Note_on_c, 0, 78, 49
2, 4497, Note_on_c, 0, 79, 57
2, 4497, Note_on_c, 0, 67, 37
2, 4497, Note_on_c, 0, 59, 45
2, 4499, Note_off_c, 0, 78, 64
2, 4566, Note_off_c, 0, 59, 64
2, 4572, Note_off_c, 0, 67, 64
2, 4627, Note_on_c, 0, 84, 59
2, 4668, Control_c, 0, 64, 0
2, 4689, Note_off_c, 0, 79, 64
2, 4697, Note_off_c, 0, 52, 64
2, 4700, Control_c, 0, 64, 127
2, 4723, Note_on_c, 0, 83, 62
2, 4733, Note_on_c, 0, 67, 31
2, 4738, Note_on_c, 0, 59, 41
2, 4739, Note_off_c, 0, 84, 64
2, 4808, Note_off_c, 0, 59, 64
2, 4814, Note_off_c, 0, 67, 64
2, 4942, Note_on_c, 0, 82, 62
2, 4948, Note_on_c, 0, 52, 41
2, 4954, Note_off_c, 0, 83, 64
2, 4956, Control_c, 0, 64, 0
2, 4976, Note_off_c, 0, 82, 64
2, 4988, Control_c, 0, 64, 127
2, 5101, Note_on_c, 0, 78, 49
2, 5148, Note_on_c, 0, 66, 41
2, 5150, Note_on_c, 0, 82, 74
2, 5155, Note_on_c, 0, 61, 28
2, 5155, Note_on_c, 0, 58, 31
2, 5169, Note_off_c, 0, 78, 64
2, 5221, Note_off_c, 0, 61, 64
2, 5221, Note_off_c, 0, 82, 64
2, 5224, Note_off_c, 0, 66, 64
2, 5252, Note_off_c, 0, 58, 64
2, 5311, Control_c, 0, 64, 0
2, 5314, Note_on_c, 0, 81, 54
2, 5352, Control_c, 0, 64, 127
2, 5360, Note_on_c, 0, 78, 66
2, 5364, Note_on_c, 0, 57, 41
2, 5365, Note_on_c, 0, 66, 46
2, 5365, Note_on_c, 0, 60, 45
2, 5380, Note_off_c, 0, 81, 64
2, 5466, Note_off_c, 0, 57, 64
2, 5479, Note_off_c, 0, 66, 64
2, 5486, Note_off_c, 0, 60, 64
2, 5489, Control_c, 0, 64, 0
2, 5524, Note_off_c, 0, 78, 64
2, 5531, Control_c, 0, 64, 127
2, 5563, Note_off_c, 0, 52, 64
2, 5580, Note_on_c, 0, 81, 61
2, 5586, Note_on_c, 0, 52, 45
2, 5599, Control_c, 0, 64, 0
2, 5614, Note_off_c, 0, 81, 64
2, 5640, Control_c, 0, 64, 127
2, 5738, Note_on_c, 0, 78, 66
2, 5777, Control_c, 0, 64, 0
2, 5783, Note_on_c, 0, 63, 45
2, 5789, Note_on_c, 0, 57, 46
2, 5796, Note_on_c, 0, 81, 57
2, 5803, Note_off_c, 0, 78, 64
2, 5819, Control_c, 0, 64, 127
2, 5833, Note_off_c, 0, 63, 64
2, 5836, Note_off_c, 0, 57, 64
2, 5949, Control_c, 0, 64, 0
2, 5960, Note_off_c, 0, 81, 64
2, 5968, Note_on_c, 0, 79, 50
2, 5985, Control_c, 0, 64, 127
2, 6009, Note_on_c, 0, 64, 45
2, 6015, Note_on_c, 0, 76, 61
2, 6015, Note_on_c, 0, 55, 37
2, 6038, Note_off_c, 0, 79, 64
2, 6051, Note_off_c, 0, 64, 64
2, 6054, Note_off_c, 0, 55, 64
2, 6065, Note_off_c, 0, 52, 64
2, 6068, Note_off_c, 0, 76, 64
2, 6228, Note_on_c, 0, 71, 52
2, 6234, Note_on_c, 0, 47, 57
2, 6237, Control_c, 0, 64, 0
2, 6273, Control_c, 0, 64, 127
2, 6343, Note_off_c, 0, 71, 64
2, 6380, Note_on_c, 0, 71, 36
2, 6381, Note_on_c, 0, 72, 54
2, 6422, Note_off_c, 0, 72, 64
2, 6422, Note_off_c, 0, 71, 64
2, 6440, Note_on_c, 0, 66, 36
2, 6440, Note_on_c, 0, 59, 37
2, 6447, Note_on_c, 0, 73, 66
2, 6447, Note_on_c, 0, 71, 58
2, 6450, Note_on_c, 0, 69, 44
2, 6486, Note_off_c, 0, 71, 64
2, 6492, Note_off_c, 0, 73, 64
2, 6493, Note_off_c, 0, 69, 64
2, 6496, Note_off_c, 0, 66, 64
2, 6499, Note_off_c, 0, 59, 64
2, 6528, Note_off_c, 0, 47, 64
2, 6542, Note_on_c, 0, 74, 66
2, 6544, Note_on_c, 0, 71, 52
2, 6582, Note_off_c, 0, 74, 64
2, 6587, Note_off_c, 0, 71, 64
2, 6595, Control_c, 0, 64, 0
2, 6620, Control_c, 0, 64, 127
2, 6643, Note_on_c, 0, 75, 72
2, 6644, Note_on_c, 0, 71, 52
2, 6644, Note_on_c, 0, 66, 45
2, 6648, Note_on_c, 0, 69, 36
2, 6651, Note_on_c, 0, 59, 36
2, 6832, Note_off_c, 0, 59, 64
2, 6839, Note_off_c, 0, 66, 64
2, 6850, Note_off_c, 0, 69, 64
2, 6857, Control_c, 0, 64, 0
2, 6863, Note_on_c, 0, 76, 57
2, 6869, Note_on_c, 0, 52, 45
2, 6873, Control_c, 0, 64, 127
2, 6874, Note_off_c, 0, 75, 64
2, 6875, Note_off_c, 0, 71, 64
2, 6883, Control_c, 0, 64, 0
2, 6908, Control_c, 0, 64, 127
2, 6993, Note_on_c, 0, 91, 58
2, 7010, Note_off_c, 0, 76, 64
2, 7015, Note_off_c, 0, 91, 64
2, 7084, Note_on_c, 0, 90, 55
2, 7120, Note_on_c, 0, 91, 55
2, 7140, Note_off_c, 0, 90, 64
2, 7145, Control_c, 0, 64, 0
2, 7148, Note_on_c, 0, 90, 74
2, 7152, Note_on_c, 0, 67, 33
2, 7152, Note_on_c, 0, 59, 41
2, 7161, Control_c, 0, 64, 127
2, 7174, Note_off_c, 0, 91, 64
2, 7249, Note_on_c, 0, 88, 50
2, 7280, Note_off_c, 0, 90, 64
2, 7311, Control_c, 0, 64, 0
2, 7337, Control_c, 0, 64, 127
2, 7339, Note_off_c, 0, 67, 64
2, 7345, Note_off_c, 0, 59, 64
2, 7350, Note_off_c, 0, 52, 64
2, 7356, Note_on_c, 0, 84, 57
2, 7376, Note_off_c, 0, 88, 64
2, 7466, Note_on_c, 0, 83, 37
2, 7482, Note_off_c, 0, 84, 64
2, 7574, Note_on_c, 0, 42, 52
2, 7580, Note_on_c, 0, 82, 62
2, 7592, Note_off_c, 0, 83, 64
2, 7599, Control_c, 0, 64, 0
2, 7625, Control_c, 0, 64, 127
2, 7695, Note_on_c, 0, 85, 58
2, 7708, Note_off_c, 0, 82, 64
2, 7808, Note_on_c, 0, 83, 61
2, 7808, Note_on_c, 0, 54, 23
2, 7809, Note_on_c, 0, 87, 70
2, 7815, Note_on_c, 0, 61, 31
2, 7818, Note_on_c, 0, 64, 20
2, 7840, Note_off_c, 0, 85, 64
2, 7905, Note_off_c, 0, 61, 64
2, 7914, Note_on_c, 0, 80, 37
2, 7915, Note_off_c, 0, 64, 64
2, 7930, Note_off_c, 0, 83, 64
2, 7931, Note_off_c, 0, 87, 64
2, 7947, Note_off_c, 0, 54, 64
2, 7985, Control_c, 0, 64, 0
2, 8016, Control_c, 0, 64, 127
2, 8031, Note_off_c, 0, 80, 64
2, 8032, Note_on_c, 0, 61, 41
2, 8035, Note_on_c, 0, 76, 54
2, 8036, Note_on_c, 0, 64, 37
2, 8037, Note_on_c, 0, 54, 44
2, 8092, Note_off_c, 0, 42, 64
2, 8108, Note_off_c, 0, 64, 64
2, 8123, Note_off_c, 0, 61, 64
2, 8136, Note_off_c, 0, 54, 64
2, 8179, Note_off_c, 0, 76, 64
2, 8201, Note_on_c, 0, 82, 58
2, 8201, Note_on_c, 0, 78, 53
2, 8215, Note_off_c, 0, 82, 64
2, 8222, Note_off_c, 0, 78, 64
2, 8244, Note_on_c, 0, 82, 67
2, 8248, Note_on_c, 0, 78, 70
2, 8254, Note_on_c, 0, 47, 40
2, 8273, Control_c, 0, 64, 0
2, 8304, Control_c, 0, 64, 127
2, 8381, Note_on_c, 0, 83, 55
2, 8384, Note_on_c, 0, 75, 66
2, 8385, Note_off_c, 0, 82, 64
2, 8389, Note_off_c, 0, 78, 64
2, 8510, Note_on_c, 0, 66, 50
2, 8512, Note_on_c, 0, 59, 50
2, 8592, Note_off_c, 0, 47, 64
2, 8598, Note_off_c, 0, 83, 64
2, 8601, Note_off_c, 0, 75, 64
2, 8671, Note_off_c, 0, 59, 64
2, 8690, Note_off_c, 0, 66, 64
2, 8711, Control_c, 0, 64, 0
2, 8725, Note_on_c, 0, 71, 52
2, 8734, Control_c, 0, 64, 127
2, 8938, Note_on_c, 0, 40, 46
2, 8987, Note_on_c, 0, 69, 52
2, 8999, Control_c, 0, 64, 0
2, 9005, Note_off_c, 0, 71, 64
2, 9022, Control_c, 0, 64, 127
2, 9170, Note_on_c, 0, 67, 41
2, 9184, Note_off_c, 0, 69, 64
2, 9216, Note_on_c, 0, 59, 35
2, 9223, Note_on_c, 0, 55, 39
2, 9230, Note_on_c, 0, 66, 46
2, 9245, Note_off_c, 0, 67, 64
2, 9299, Note_off_c, 0, 40, 64
2, 9303, Note_off_c, 0, 59, 64
2, 9310, Note_off_c, 0, 55, 64
2, 9383, Control_c, 0, 64, 0
2, 9418, Note_on_c, 0, 64, 50
2, 9419, Note_on_c, 0, 55, 33
2, 9425, Note_off_c, 0, 66, 64
2, 9426, Note_on_c, 0, 59, 33
2, 9429, Control_c, 0, 64, 127
2, 9616, Note_on_c, 0, 45, 41
2, 9653, Note_off_c, 0, 55, 64
2, 9660, Note_off_c, 0, 59, 64
2, 9660, Note_on_c, 0, 74, 52
2, 9671, Control_c, 0, 64, 0
2, 9677, Note_off_c, 0, 64, 64
2, 9717, Control_c, 0, 64, 127
2, 9878, Note_on_c, 0, 64, 26
2, 9881, Note_on_c, 0, 60, 18
2, 9881, Note_on_c, 0, 57, 22
2, 9946, Note_off_c, 0, 60, 64
2, 9948, Note_off_c, 0, 57, 64
2, 9955, Note_off_c, 0, 64, 64
2, 9977, Note_off_c, 0, 45, 64
2, 10018, Control_c, 0, 64, 0
2, 10061, Note_off_c, 0, 74, 64
2, 10063, Control_c, 0, 64, 127
2, 10071, Note_on_c, 0, 72, 45
2, 10076, Note_on_c, 0, 57, 28
2, 10081, Note_on_c, 0, 64, 32
2, 10086, Note_on_c, 0, 60, 31
2, 10122, Note_off_c, 0, 57, 64
2, 10139, Note_off_c, 0, 60, 64
2, 10145, Note_off_c, 0, 64, 64
2, 10217, Control_c, 0, 64, 0
2, 10244, Control_c, 0, 64, 127
2, 10280, Note_on_c, 0, 50, 33
2, 10287, Note_on_c, 0, 60, 32
2, 10290, Note_on_c, 0, 71, 52
2, 10293, Note_on_c, 0, 64, 28
2, 10296, Note_off_c, 0, 72, 64
2, 10306, Control_c, 0, 64, 0
2, 10351, Control_c, 0, 64, 127
2, 10381, Note_off_c, 0, 64, 64
2, 10408, Note_off_c, 0, 60, 64
2, 10423, Note_on_c, 0, 69, 46
2, 10453, Note_off_c, 0, 71, 64
2, 10500, Note_on_c, 0, 64, 46
2, 10502, Note_off_c, 0, 69, 64
2, 10505, Control_c, 0, 64, 0
2, 10512, Note_on_c, 0, 62, 28
2, 10512, Note_on_c, 0, 59, 28
2, 10532, Control_c, 0, 64, 127
2, 10575, Note_off_c, 0, 62, 64
2, 10590, Note_off_c, 0, 59, 64
2, 10600, Note_on_c, 0, 66, 46
2, 10614, Note_off_c, 0, 64, 64
2, 10650, Control_c, 0, 64, 0
2, 10705, Note_on_c, 0, 62, 52
2, 10705, Note_on_c, 0, 57, 29
2, 10709, Control_c, 0, 64, 127
2, 10709, Note_on_c, 0, 60, 31
2, 10713, Note_off_c, 0, 66, 64
2, 10751, Note_off_c, 0, 57, 64
2, 10752, Note_off_c, 0, 60, 64
2, 10770, Note_off_c, 0, 50, 64
2, 10842, Note_on_c, 0, 67, 52
2, 10862, Note_off_c, 0, 62, 64
2, 10881, Note_off_c, 0, 67, 64
2, 10902, Note_on_c, 0, 67, 52
2, 10930, Note_on_c, 0, 72, 52
2, 10938, Control_c, 0, 64, 0
2, 10944, Note_on_c, 0, 43, 31
2, 10958, Note_off_c, 0, 67, 64
2, 10997, Control_c, 0, 64, 127
2, 11166, Note_on_c, 0, 55, 31
2, 11167, Note_on_c, 0, 62, 35
2, 11252, Note_off_c, 0, 43, 64
2, 11324, Control_c, 0, 64, 0
2, 11339, Note_off_c, 0, 62, 64
2, 11347, Note_off_c, 0, 55, 64
2, 11362, Control_c, 0, 64, 127
2, 11408, Note_on_c, 0, 71, 42
2, 11432, Note_off_c, 0, 72, 64
2, 11612, Control_c, 0, 64, 0
2, 11618, Note_on_c, 0, 47, 41
2, 11650, Control_c, 0, 64, 127
2, 11763, Note_on_c, 0, 72, 41
2, 11768, Note_off_c, 0, 71, 64
2, 11802, Note_off_c, 0, 72, 64
2, 11814, Note_on_c, 0, 66, 40
2, 11817, Note_on_c, 0, 69, 35
2, 11820, Note_on_c, 0, 71, 31
2, 11822, Note_on_c, 0, 59, 39
2, 11825, Note_on_c, 0, 73, 50
2, 11864, Note_off_c, 0, 71, 64
2, 11868, Note_off_c, 0, 73, 64
2, 11874, Note_off_c, 0, 66, 64
2, 11876, Note_off_c, 0, 59, 64
2, 11879, Note_off_c, 0, 69, 64
2, 11920, Note_off_c, 0, 47, 64
2, 11926, Note_on_c, 0, 74, 48
2, 11928, Note_on_c, 0, 71, 31
2, 11942, Control_c, 0, 64, 0
2, 11955, Note_off_c, 0, 71, 64
2, 11961, Note_off_c, 0, 74, 64
2, 11997, Control_c, 0, 64, 127
2, 12012, Note_on_c, 0, 75, 57
2, 12012, Note_on_c, 0, 71, 31
2, 12012, Note_on_c, 0, 69, 28
2, 12012, Note_on_c, 0, 59, 28
2, 12015, Note_on_c, 0, 66, 36
2, 12204, Note_off_c, 0, 59, 64
2, 12204, Note_off_c, 0, 69, 64
2, 12204, Note_off_c, 0, 71, 64
2, 12207, Note_off_c, 0, 66, 64
2, 12221, Note_on_c, 0, 76, 52
2, 12230, Control_c, 0, 64, 0
2, 12232, Note_off_c, 0, 75, 64
2, 12234, Note_on_c, 0, 52, 40
2, 12285, Control_c, 0, 64, 127
2, 12347, Note_off_c, 0, 76, 64
2, 12361, Note_on_c, 0, 78, 39
2, 12413, Note_off_c, 0, 78, 64
2, 12413, Note_on_c, 0, 59, 35
2, 12416, Note_on_c, 0, 79, 41
2, 12421, Note_on_c, 0, 67, 22
2, 12486, Note_off_c, 0, 59, 64
2, 12493, Note_off_c, 0, 67, 64
2, 12527, Note_on_c, 0, 84, 46
2, 12541, Control_c, 0, 64, 0
2, 12574, Note_off_c, 0, 79, 64
2, 12610, Control_c, 0, 64, 127
2, 12624, Note_off_c, 0, 84, 64
2, 12633, Note_on_c, 0, 83, 52
2, 12633, Note_on_c, 0, 67, 31
2, 12639, Note_on_c, 0, 59, 36
2, 12666, Note_off_c, 0, 52, 64
2, 12751, Note_off_c, 0, 67, 64
2, 12829, Control_c, 0, 64, 0
2, 12836, Note_off_c, 0, 59, 64
2, 12836, Note_on_c, 0, 82, 46
2, 12849, Note_on_c, 0, 52, 42
2, 12864, Note_off_c, 0, 83, 64
2, 12870, Note_off_c, 0, 82, 64
2, 12898, Control_c, 0, 64, 127
2, 12996, Note_on_c, 0, 78, 46
2, 13044, Note_on_c, 0, 58, 33
2, 13049, Note_on_c, 0, 61, 33
2, 13051, Note_on_c, 0, 82, 57
2, 13051, Note_on_c, 0, 66, 35
2, 13068, Note_off_c, 0, 78, 64
2, 13123, Note_off_c, 0, 66, 64
2, 13126, Note_off_c, 0, 61, 64
2, 13128, Note_off_c, 0, 82, 64
2, 13146, Note_off_c, 0, 58, 64
2, 13176, Control_c, 0, 64, 0
2, 13221, Note_on_c, 0, 81, 46
2, 13222, Control_c, 0, 64, 127
2, 13260, Note_on_c, 0, 78, 52
2, 13260, Note_on_c, 0, 66, 31
2, 13267, Note_on_c, 0, 60, 35
2, 13274, Note_on_c, 0, 57, 28
2, 13285, Note_off_c, 0, 81, 64
2, 13396, Control_c, 0, 64, 0
2, 13409, Control_c, 0, 64, 127
2, 13435, Note_off_c, 0, 66, 64
2, 13442, Note_off_c, 0, 60, 64
2, 13449, Note_off_c, 0, 57, 64
2, 13461, Note_off_c, 0, 78, 64
2, 13462, Note_off_c, 0, 52, 64
2, 13464, Control_c, 0, 64, 0
2, 13476, Note_on_c, 0, 81, 48
2, 13481, Note_on_c, 0, 52, 45
2, 13510, Note_off_c, 0, 81, 64
2, 13510, Control_c, 0, 64, 127
2, 13571, Control_c, 0, 64, 0
2, 13614, Control_c, 0, 64, 127
2, 13622, Note_on_c, 0, 78, 46
2, 13668, Note_on_c, 0, 63, 37
2, 13673, Note_on_c, 0, 57, 37
2, 13677, Note_on_c, 0, 81, 49
2, 13684, Control_c, 0, 64, 0
2, 13690, Note_off_c, 0, 78, 64
2, 13697, Control_c, 0, 64, 127
2, 13769, Note_off_c, 0, 63, 64
2, 13774, Note_off_c, 0, 57, 64
2, 13805, Control_c, 0, 64, 0
2, 13831, Control_c, 0, 64, 127
2, 13840, Note_off_c, 0, 81, 64
2, 13843, Note_on_c, 0, 79, 46
2, 13859, Control_c, 0, 64, 0
2, 13884, Note_on_c, 0, 64, 29
2, 13889, Note_on_c, 0, 76, 44
2, 13889, Note_on_c, 0, 55, 35
2, 13902, Control_c, 0, 64, 127
2, 13918, Note_off_c, 0, 79, 64
2, 13932, Note_off_c, 0, 64, 64
2, 13936, Note_off_c, 0, 55, 64
2, 13954, Note_off_c, 0, 76, 64
2, 13960, Note_off_c, 0, 52, 64
2, 14008, Control_c, 0, 64, 0
2, 14030, Control_c, 0, 64, 127
2, 14092, Note_on_c, 0, 71, 49
2, 14093, Control_c, 0, 64, 0
2, 14111, Note_on_c, 0, 47, 44
2, 14119, Control_c, 0, 64, 127
2, 14198, Control_c, 0, 64, 0
2, 14214, Note_off_c, 0, 71, 64
2, 14234, Control_c, 0, 64, 127
2, 14243, Note_on_c, 0, 72, 45
2, 14244, Note_on_c, 0, 71, 31
2, 14264, Note_off_c, 0, 71, 64
2, 14282, Note_off_c, 0, 72, 64
2, 14296, Control_c, 0, 64, 0
2, 14303, Note_on_c, 0, 66, 31
2, 14305, Note_on_c, 0, 59, 35
2, 14311, Note_on_c, 0, 73, 57
2, 14311, Note_on_c, 0, 71, 45
2, 14314, Note_on_c, 0, 69, 26
2, 14318, Control_c, 0, 64, 127
2, 14342, Note_off_c, 0, 71, 64
2, 14352, Note_off_c, 0, 73, 64
2, 14361, Note_off_c, 0, 59, 64
2, 14364, Note_off_c, 0, 66, 64
2, 14370, Note_off_c, 0, 69, 64
2, 14400, Note_off_c, 0, 47, 64
2, 14408, Note_on_c, 0, 74, 44
2, 14412, Note_on_c, 0, 71, 42
2, 14443, Control_c, 0, 64, 0
2, 14445, Note_off_c, 0, 74, 64
2, 14454, Note_off_c, 0, 71, 64
2, 14469, Control_c, 0, 64, 127
2, 14486, Control_c, 0, 64, 0
2, 14501, Note_on_c, 0, 66, 39
2, 14508, Note_on_c, 0, 69, 31
2, 14509, Note_on_c, 0, 59, 33
2, 14515, Note_on_c, 0, 71, 48
2, 14516, Note_on_c, 0, 75, 62
2, 14522, Control_c, 0, 64, 127
2, 14693, Note_off_c, 0, 66, 64
2, 14700, Note_off_c, 0, 69, 64
2, 14701, Note_off_c, 0, 59, 64
2, 14707, Note_off_c, 0, 71, 64
2, 14731, Control_c, 0, 64, 0
2, 14740, Note_on_c, 0, 76, 46
2, 14743, Note_on_c, 0, 52, 46
2, 14755, Note_off_c, 0, 75, 64
2, 14757, Control_c, 0, 64, 127
2, 14900, Note_on_c, 0, 91, 48
2, 14919, Note_off_c, 0, 76, 64
2, 14955, Note_off_c, 0, 91, 64
2, 14983, Note_on_c, 0, 90, 52
2, 15022, Note_on_c, 0, 91, 52
2, 15025, Note_off_c, 0, 90, 64
2, 15034, Note_on_c, 0, 67, 23
2, 15038, Note_on_c, 0, 59, 28
2, 15054, Note_on_c, 0, 90, 52
2, 15083, Note_off_c, 0, 91, 64
2, 15149, Note_on_c, 0, 88, 41
2, 15170, Note_off_c, 0, 90, 64
2, 15209, Note_off_c, 0, 67, 64
2, 15209, Control_c, 0, 64, 0
2, 15224, Control_c, 0, 64, 127
2, 15240, Note_on_c, 0, 84, 45
2, 15248, Note_off_c, 0, 59, 64
2, 15255, Note_off_c, 0, 52, 64
2, 15292, Note_off_c, 0, 88, 64
2, 15360, Note_on_c, 0, 83, 44
2, 15387, Note_off_c, 0, 84, 64
2, 15468, Note_on_c, 0, 82, 42
2, 15482, Note_on_c, 0, 47, 41
2, 15497, Control_c, 0, 64, 0
2, 15500, Note_off_c, 0, 83, 64
2, 15512, Control_c, 0, 64, 127
2, 15601, Note_on_c, 0, 78, 42
2, 15607, Note_off_c, 0, 82, 64
2, 15716, Note_off_c, 0, 78, 64
2, 15720, Note_on_c, 0, 69, 32
2, 15722, Note_on_c, 0, 84, 42
2, 15723, Note_on_c, 0, 63, 18
2, 15729, Note_on_c, 0, 59, 32
2, 15775, Note_off_c, 0, 47, 64
2, 15800, Note_on_c, 0, 82, 32
2, 15802, Note_off_c, 0, 84, 64
2, 15812, Note_off_c, 0, 69, 64
2, 15815, Note_off_c, 0, 63, 64
2, 15821, Note_off_c, 0, 59, 64
2, 15863, Note_off_c, 0, 82, 64
2, 15866, Note_on_c, 0, 83, 42
2, 15924, Note_on_c, 0, 69, 16
2, 15936, Note_on_c, 0, 81, 32
2, 15940, Note_on_c, 0, 59, 28
2, 15942, Note_on_c, 0, 63, 32
2, 15958, Note_off_c, 0, 83, 64
2, 16008, Note_on_c, 0, 82, 37
2, 16022, Note_off_c, 0, 81, 64
2, 16090, Note_off_c, 0, 69, 64
2, 16092, Note_on_c, 0, 80, 39
2, 16098, Note_off_c, 0, 59, 64
2, 16103, Note_off_c, 0, 82, 64
2, 16108, Note_off_c, 0, 63, 64
2, 16171, Note_on_c, 0, 81, 39
2, 16184, Note_off_c, 0, 80, 64
2, 16187, Note_on_c, 0, 52, 39
2, 16268, Note_on_c, 0, 79, 37
2, 16280, Note_off_c, 0, 81, 64
2, 16285, Control_c, 0, 64, 0
2, 16329, Control_c, 0, 64, 127
2, 16358, Note_on_c, 0, 78, 35
2, 16374, Note_off_c, 0, 79, 64
2, 16500, Note_on_c, 0, 55, 20
2, 16504, Note_on_c, 0, 76, 42
2, 16507, Note_on_c, 0, 59, 20
2, 16517, Note_on_c, 0, 67, 10
2, 16520, Note_off_c, 0, 78, 64
2, 16573, Control_c, 0, 64, 0
2, 16617, Control_c, 0, 64, 127
2, 16769, Note_off_c, 0, 55, 64
2, 16776, Note_off_c, 0, 59, 64
2, 16786, Note_off_c, 0, 67, 64
2, 16806, Note_off_c, 0, 52, 64
2, 17068, Note_on_c, 0, 43, 35
2, 17078, Note_on_c, 0, 65, 31
2, 17224, Note_on_c, 0, 74, 33
2, 17249, Note_off_c, 0, 76, 64
2, 17343, Note_on_c, 0, 71, 37
2, 17343, Note_on_c, 0, 55, 33
2, 17349, Note_on_c, 0, 62, 31
2, 17368, Note_off_c, 0, 74, 64
2, 17370, Note_off_c, 0, 43, 64
2, 17415, Note_off_c, 0, 62, 64
2, 17417, Note_off_c, 0, 55, 64
2, 17428, Note_off_c, 0, 65, 64
2, 17509, Control_c, 0, 64, 0
2, 17535, Control_c, 0, 64, 127
2, 17561, Note_on_c, 0, 69, 40
2, 17565, Note_on_c, 0, 62, 36
2, 17565, Note_on_c, 0, 55, 36
2, 17578, Note_on_c, 0, 65, 19
2, 17582, Note_off_c, 0, 71, 64
2, 17631, Note_off_c, 0, 62, 64
2, 17644, Note_off_c, 0, 65, 64
2, 17718, Note_on_c, 0, 71, 32
2, 17720, Note_off_c, 0, 69, 64
2, 17736, Note_on_c, 0, 69, 40
2, 17756, Note_on_c, 0, 48, 27
2, 17765, Note_off_c, 0, 71, 64
2, 17768, Note_on_c, 0, 64, 41
2, 17771, Note_on_c, 0, 67, 40
2, 17793, Note_off_c, 0, 69, 64
2, 17797, Control_c, 0, 64, 0
2, 17804, Note_off_c, 0, 55, 64
2, 17823, Note_off_c, 0, 48, 64
2, 17823, Control_c, 0, 64, 127
2, 17876, Note_off_c, 0, 64, 64
2, 17983, Note_on_c, 0, 64, 40
2, 17987, Note_on_c, 0, 55, 36
2, 17991, Note_on_c, 0, 48, 31
2, 18066, Note_off_c, 0, 48, 64
2, 18074, Note_off_c, 0, 55, 64
2, 18091, Note_off_c, 0, 64, 64
2, 18107, Note_off_c, 0, 67, 64
2, 18176, Note_on_c, 0, 76, 46
2, 18176, Note_on_c, 0, 64, 41
2, 18184, Note_on_c, 0, 55, 27
2, 18188, Note_on_c, 0, 48, 20
2, 18237, Note_off_c, 0, 55, 64
2, 18284, Note_off_c, 0, 64, 64
2, 18344, Control_c, 0, 64, 0
2, 18348, Note_on_c, 0, 56, 36
2, 18363, Control_c, 0, 64, 127
2, 18399, Note_on_c, 0, 55, 39
2, 18415, Note_on_c, 0, 65, 37
2, 18422, Note_off_c, 0, 56, 64
2, 18500, Note_off_c, 0, 55, 64
2, 18521, Note_on_c, 0, 74, 37
2, 18540, Note_off_c, 0, 76, 64
2, 18560, Note_off_c, 0, 48, 64
2, 18574, Note_off_c, 0, 65, 64
2, 18606, Note_off_c, 0, 74, 64
2, 18612, Note_on_c, 0, 71, 39
2, 18622, Note_on_c, 0, 65, 37
2, 18622, Note_on_c, 0, 55, 35
2, 18631, Note_on_c, 0, 48, 27
2, 18632, Control_c, 0, 64, 0
2, 18651, Control_c, 0, 64, 127
2, 18733, Note_off_c, 0, 48, 64
2, 18746, Note_off_c, 0, 65, 64
2, 18748, Note_off_c, 0, 55, 64
2, 18822, Note_on_c, 0, 69, 35
2, 18825, Note_on_c, 0, 65, 36
2, 18825, Note_on_c, 0, 55, 36
2, 18832, Note_on_c, 0, 48, 36
2, 18843, Note_off_c, 0, 71, 64
2, 18909, Note_off_c, 0, 48, 64
2, 18941, Note_off_c, 0, 55, 64
2, 18960, Note_on_c, 0, 71, 29
2, 18968, Note_off_c, 0, 65, 64
2, 18969, Note_off_c, 0, 69, 64
2, 18992, Note_on_c, 0, 69, 40
2, 19009, Note_off_c, 0, 71, 64
2, 19016, Note_on_c, 0, 64, 29
2, 19020, Note_on_c, 0, 67, 53
2, 19021, Note_on_c, 0, 55, 33
2, 19027, Note_on_c, 0, 48, 31
2, 19034, Note_off_c, 0, 69, 64
2, 19119, Note_off_c, 0, 48, 64
2, 19125, Note_off_c, 0, 55, 64
2, 19159, Note_off_c, 0, 64, 64
2, 19198, Control_c, 0, 64, 0
2, 19210, Control_c, 0, 64, 127
2, 19231, Note_on_c, 0, 64, 41
2, 19240, Note_on_c, 0, 55, 31
2, 19247, Note_on_c, 0, 48, 33
2, 19313, Note_off_c, 0, 48, 64
2, 19320, Note_off_c, 0, 55, 64
2, 19339, Note_off_c, 0, 64, 64
2, 19441, Note_on_c, 0, 72, 40
2, 19450, Note_on_c, 0, 64, 36
2, 19454, Note_off_c, 0, 67, 64
2, 19454, Note_on_c, 0, 48, 39
2, 19460, Note_on_c, 0, 57, 24
2, 19486, Control_c, 0, 64, 0
2, 19498, Control_c, 0, 64, 127
2, 19574, Note_off_c, 0, 64, 64
2, 19580, Note_off_c, 0, 57, 64
2, 19613, Note_off_c, 0, 48, 64
2, 19619, Control_c, 0, 64, 0
2, 19633, Control_c, 0, 64, 127
2, 19662, Note_on_c, 0, 50, 40
2, 19663, Note_on_c, 0, 65, 42
2, 19673, Note_on_c, 0, 57, 36
2, 19747, Note_off_c, 0, 50, 64
2, 19791, Note_off_c, 0, 72, 64
2, 19806, Note_off_c, 0, 65, 64
2, 19813, Note_on_c, 0, 71, 41
2, 19814, Control_c, 0, 64, 0
2, 19829, Control_c, 0, 64, 127
2, 19868, Note_on_c, 0, 52, 39
2, 19875, Note_on_c, 0, 74, 46
2, 19875, Note_on_c, 0, 64, 37
2, 19875, Note_on_c, 0, 45, 41
2, 19885, Note_off_c, 0, 71, 64
2, 19907, Control_c, 0, 64, 0
2, 19914, Note_off_c, 0, 57, 64
2, 19921, Control_c, 0, 64, 127
2, 19996, Note_off_c, 0, 74, 64
2, 19997, Note_on_c, 0, 72, 40
2, 20046, Control_c, 0, 64, 0
2, 20068, Control_c, 0, 64, 127
2, 20088, Note_on_c, 0, 60, 41
2, 20095, Note_on_c, 0, 69, 42
2, 20102, Control_c, 0, 64, 0
2, 20111, Note_off_c, 0, 72, 64
2, 20117, Control_c, 0, 64, 127
2, 20197, Note_off_c, 0, 60, 64
2, 20229, Note_off_c, 0, 64, 64
2, 20252, Control_c, 0, 64, 0
2, 20285, Control_c, 0, 64, 127
2, 20300, Note_off_c, 0, 45, 64
2, 20307, Note_on_c, 0, 50, 35
2, 20311, Note_on_c, 0, 72, 41
2, 20311, Note_on_c, 0, 65, 41
2, 20313, Note_on_c, 0, 57, 39
2, 20321, Note_off_c, 0, 52, 64
2, 20328, Note_off_c, 0, 69, 64
2, 20334, Control_c, 0, 64, 0
2, 20356, Control_c, 0, 64, 127
2, 20442, Note_off_c, 0, 57, 64
2, 20449, Note_off_c, 0, 72, 64
2, 20457, Note_off_c, 0, 65, 64
2, 20462, Note_on_c, 0, 71, 23
2, 20474, Note_off_c, 0, 50, 64
2, 20508, Note_on_c, 0, 52, 35
2, 20513, Note_on_c, 0, 45, 36
2, 20517, Note_on_c, 0, 74, 46
2, 20520, Note_on_c, 0, 64, 33
2, 20530, Note_off_c, 0, 71, 64
2, 20540, Control_c, 0, 64, 0
2, 20573, Control_c, 0, 64, 127
2, 20641, Note_on_c, 0, 72, 41
2, 20647, Note_off_c, 0, 74, 64
2, 20699, Control_c, 0, 64, 0
2, 20712, Control_c, 0, 64, 127
2, 20727, Note_on_c, 0, 69, 40
2, 20736, Note_on_c, 0, 60, 35
2, 20737, Note_off_c, 0, 45, 64
2, 20766, Note_off_c, 0, 72, 64
2, 20815, Note_off_c, 0, 69, 64
2, 20827, Note_off_c, 0, 64, 64
2, 20834, Note_off_c, 0, 60, 64
2, 20936, Note_off_c, 0, 52, 64
2, 20955, Note_on_c, 0, 47, 41
2, 20956, Note_on_c, 0, 68, 33
2, 20956, Note_on_c, 0, 63, 35
2, 20964, Note_on_c, 0, 59, 19
2, 20987, Control_c, 0, 64, 0
2, 21000, Control_c, 0, 64, 127
2, 21034, Note_off_c, 0, 47, 64
2, 21089, Note_off_c, 0, 59, 64
2, 21106, Note_on_c, 0, 66, 29
2, 21108, Note_on_c, 0, 57, 36
2, 21110, Note_off_c, 0, 63, 64
2, 21115, Note_off_c, 0, 68, 64
2, 21120, Control_c, 0, 64, 0
2, 21146, Control_c, 0, 64, 127
2, 21161, Note_on_c, 0, 69, 41
2, 21171, Note_on_c, 0, 61, 36
2, 21174, Note_off_c, 0, 66, 64
2, 21192, Note_off_c, 0, 57, 64
2, 21295, Note_off_c, 0, 61, 64
2, 21312, Note_off_c, 0, 69, 64
2, 21320, Note_on_c, 0, 63, 31
2, 21320, Note_on_c, 0, 59, 31
2, 21324, Note_on_c, 0, 68, 36
2, 21329, Control_c, 0, 64, 0
2, 21342, Control_c, 0, 64, 127
2, 21361, Control_c, 0, 64, 0
2, 21374, Control_c, 0, 64, 127
2, 21385, Note_on_c, 0, 64, 41
2, 21388, Note_on_c, 0, 56, 39
2, 21388, Note_on_c, 0, 52, 36
2, 21408, Note_off_c, 0, 63, 64
2, 21408, Control_c, 0, 64, 0
2, 21416, Note_off_c, 0, 68, 64
2, 21426, Note_off_c, 0, 59, 64
2, 21434, Control_c, 0, 64, 127
2, 21453, Note_off_c, 0, 64, 64
2, 21577, Control_c, 0, 64, 0
2, 21613, Control_c, 0, 64, 127
2, 21622, Note_on_c, 0, 76, 42
2, 21629, Note_on_c, 0, 64, 41
2, 21649, Control_c, 0, 64, 0
2, 21662, Control_c, 0, 64, 127
2, 21727, Note_off_c, 0, 76, 64
2, 21750, Note_off_c, 0, 64, 64
2, 21783, Note_off_c, 0, 52, 64
2, 21855, Note_on_c, 0, 64, 36
2, 21856, Note_on_c, 0, 76, 46
2, 21864, Note_off_c, 0, 56, 64
2, 21865, Control_c, 0, 64, 0
2, 21901, Control_c, 0, 64, 127
2, 21925, Note_off_c, 0, 76, 64
2, 21956, Note_off_c, 0, 64, 64
2, 22111, Note_on_c, 0, 76, 57
2, 22120, Note_on_c, 0, 64, 41
2, 22361, Note_off_c, 0, 64, 64
2, 22372, Control_c, 0, 64, 0
2, 22393, Control_c, 0, 64, 127
2, 22401, Note_on_c, 0, 65, 35
2, 22529, Note_on_c, 0, 74, 20
2, 22544, Note_off_c, 0, 76, 64
2, 22611, Note_off_c, 0, 65, 64
2, 22645, Note_off_c, 0, 74, 64
2, 22648, Note_on_c, 0, 71, 36
2, 22651, Note_on_c, 0, 55, 36
2, 22653, Note_on_c, 0, 65, 35
2, 22660, Control_c, 0, 64, 0
2, 22681, Control_c, 0, 64, 127
2, 22719, Note_off_c, 0, 55, 64
2, 22765, Note_off_c, 0, 71, 64
2, 22778, Note_off_c, 0, 65, 64
2, 22810, Control_c, 0, 64, 0
2, 22856, Control_c, 0, 64, 127
2, 22869, Note_on_c, 0, 69, 36
2, 22870, Note_on_c, 0, 65, 31
2, 22876, Note_on_c, 0, 55, 37
2, 22978, Note_off_c, 0, 69, 64
2, 23021, Note_on_c, 0, 71, 27
2, 23034, Note_off_c, 0, 65, 64
2, 23052, Note_on_c, 0, 69, 36
2, 23073, Note_off_c, 0, 71, 64
2, 23079, Note_on_c, 0, 64, 31
2, 23080, Note_on_c, 0, 67, 31
2, 23088, Note_on_c, 0, 48, 33
2, 23098, Control_c, 0, 64, 0
2, 23112, Note_off_c, 0, 69, 64
2, 23144, Control_c, 0, 64, 127
2, 23185, Note_off_c, 0, 64, 64
2, 23210, Note_off_c, 0, 48, 64
2, 23248, Note_off_c, 0, 55, 64
2, 23298, Note_on_c, 0, 64, 40
2, 23308, Note_on_c, 0, 48, 29
2, 23312, Note_on_c, 0, 55, 27
2, 23320, Note_off_c, 0, 67, 64
2, 23361, Note_off_c, 0, 55, 64
2, 23378, Note_off_c, 0, 48, 64
2, 23429, Note_off_c, 0, 64, 64
2, 23468, Control_c, 0, 64, 0
2, 23492, Control_c, 0, 64, 127
2, 23525, Note_on_c, 0, 64, 40
2, 23528, Note_on_c, 0, 55, 31
2, 23530, Note_on_c, 0, 76, 46
2, 23537, Note_on_c, 0, 48, 27
2, 23587, Note_off_c, 0, 55, 64
2, 23616, Note_off_c, 0, 64, 64
2, 23688, Note_on_c, 0, 56, 36
2, 23738, Note_on_c, 0, 65, 42
2, 23738, Note_on_c, 0, 55, 39
2, 23750, Note_off_c, 0, 76, 64
2, 23756, Control_c, 0, 64, 0
2, 23761, Note_off_c, 0, 56, 64
2, 23780, Control_c, 0, 64, 127
2, 23861, Note_on_c, 0, 74, 37
2, 23874, Note_off_c, 0, 55, 64
2, 23892, Note_off_c, 0, 65, 64
2, 23909, Note_off_c, 0, 48, 64
2, 23952, Note_off_c, 0, 74, 64
2, 23963, Note_on_c, 0, 71, 36
2, 23963, Note_on_c, 0, 55, 37
2, 23966, Note_on_c, 0, 65, 36
2, 23967, Note_on_c, 0, 48, 31
2, 24031, Note_off_c, 0, 48, 64
2, 24041, Note_off_c, 0, 55, 64
2, 24075, Note_off_c, 0, 65, 64
2, 24114, Note_off_c, 0, 71, 64
2, 24114, Control_c, 0, 64, 0
2, 24156, Control_c, 0, 64, 127
2, 24170, Note_on_c, 0, 69, 41
2, 24172, Note_on_c, 0, 65, 35
2, 24178, Note_on_c, 0, 55, 31
2, 24182, Note_on_c, 0, 48, 24
2, 24238, Note_off_c, 0, 48, 64
2, 24238, Note_off_c, 0, 55, 64
2, 24245, Note_off_c, 0, 69, 64
2, 24306, Note_off_c, 0, 65, 64
2, 24313, Note_on_c, 0, 71, 41
2, 24348, Note_on_c, 0, 69, 41
2, 24359, Note_off_c, 0, 71, 64
2, 24373, Note_on_c, 0, 67, 41
2, 24373, Note_on_c, 0, 64, 46
2, 24385, Note_on_c, 0, 55, 31
2, 24391, Note_off_c, 0, 69, 64
2, 24392, Note_on_c, 0, 48, 31
2, 24402, Control_c, 0, 64, 0
2, 24444, Control_c, 0, 64, 127
2, 24456, Note_off_c, 0, 64, 64
2, 24493, Note_off_c, 0, 48, 64
2, 24512, Note_off_c, 0, 55, 64
2, 24602, Note_on_c, 0, 64, 41
2, 24608, Note_on_c, 0, 55, 36
2, 24618, Note_on_c, 0, 48, 24
2, 24661, Note_off_c, 0, 48, 64
2, 24667, Note_off_c, 0, 55, 64
2, 24689, Note_off_c, 0, 64, 64
2, 24798, Control_c, 0, 64, 0
2, 24821, Control_c, 0, 64, 127
2, 24837, Note_on_c, 0, 72, 44
2, 24837, Note_on_c, 0, 55, 37
2, 24837, Note_on_c, 0, 48, 36
2, 24841, Note_on_c, 0, 64, 45
2, 24882, Note_off_c, 0, 67, 64
2, 24895, Note_off_c, 0, 64, 64
2, 24970, Note_off_c, 0, 55, 64
2, 24990, Control_c, 0, 64, 0
2, 25013, Control_c, 0, 64, 127
2, 25014, Note_off_c, 0, 48, 64
2, 25060, Note_on_c, 0, 71, 39
2, 25066, Note_on_c, 0, 60, 36
2, 25068, Note_off_c, 0, 72, 64
2, 25070, Note_on_c, 0, 54, 31
2, 25070, Note_on_c, 0, 50, 36
2, 25086, Control_c, 0, 64, 0
2, 25109, Control_c, 0, 64, 127
2, 25151, Note_off_c, 0, 50, 64
2, 25161, Note_off_c, 0, 54, 64
2, 25210, Note_on_c, 0, 69, 41
2, 25242, Note_off_c, 0, 60, 64
2, 25243, Note_off_c, 0, 71, 64
2, 25243, Control_c, 0, 64, 0
2, 25258, Control_c, 0, 64, 127
2, 25278, Control_c, 0, 64, 0
2, 25283, Note_on_c, 0, 71, 46
2, 25283, Note_on_c, 0, 60, 36
2, 25283, Note_on_c, 0, 54, 36
2, 25291, Note_on_c, 0, 50, 35
2, 25292, Note_off_c, 0, 69, 64
2, 25301, Control_c, 0, 64, 127
2, 25400, Note_on_c, 0, 69, 41
2, 25409, Note_off_c, 0, 54, 64
2, 25412, Note_off_c, 0, 50, 64
2, 25435, Note_off_c, 0, 60, 64
2, 25448, Note_off_c, 0, 71, 64
2, 25456, Control_c, 0, 64, 0
2, 25482, Control_c, 0, 64, 127
2, 25505, Note_on_c, 0, 62, 42
2, 25510, Note_on_c, 0, 59, 41
2, 25515, Note_on_c, 0, 55, 31
2, 25515, Note_on_c, 0, 43, 31
2, 25524, Note_on_c, 0, 50, 20
2, 25531, Control_c, 0, 64, 0
2, 25541, Note_off_c, 0, 69, 64
2, 25546, Control_c, 0, 64, 127
2, 25597, Note_off_c, 0, 59, 64
2, 25697, Note_off_c, 0, 55, 64
2, 25728, Note_on_c, 0, 71, 41
2, 25728, Note_on_c, 0, 60, 40
2, 25728, Note_on_c, 0, 54, 20
2, 25744, Control_c, 0, 64, 0
2, 25770, Control_c, 0, 64, 127
2, 25781, Note_off_c, 0, 62, 64
2, 25869, Note_off_c, 0, 54, 64
2, 25869, Note_off_c, 0, 50, 64
2, 25885, Note_on_c, 0, 69, 41
2, 25898, Note_off_c, 0, 60, 64
2, 25908, Note_off_c, 0, 71, 64
2, 25926, Note_off_c, 0, 43, 64
2, 25944, Note_on_c, 0, 71, 41
2, 25944, Note_on_c, 0, 54, 33
2, 25947, Note_on_c, 0, 60, 41
2, 25949, Note_on_c, 0, 43, 35
2, 25955, Note_on_c, 0, 50, 35
2, 25982, Note_off_c, 0, 69, 64
2, 26070, Note_on_c, 0, 69, 39
2, 26075, Note_off_c, 0, 50, 64
2, 26085, Note_off_c, 0, 43, 64
2, 26101, Note_off_c, 0, 71, 64
2, 26106, Note_off_c, 0, 54, 64
2, 26114, Note_off_c, 0, 60, 64
2, 26132, Control_c, 0, 64, 0
2, 26155, Control_c, 0, 64, 127
2, 26175, Note_on_c, 0, 71, 45
2, 26179, Note_on_c, 0, 50, 36
2, 26179, Note_on_c, 0, 43, 33
2, 26185, Note_on_c, 0, 60, 39
2, 26185, Note_on_c, 0, 54, 33
2, 26221, Note_off_c, 0, 69, 64
2, 26284, Note_on_c, 0, 69, 35
2, 26293, Note_off_c, 0, 60, 64
2, 26300, Note_off_c, 0, 71, 64
2, 26336, Note_off_c, 0, 43, 64
2, 26343, Note_off_c, 0, 50, 64
2, 26363, Control_c, 0, 64, 0
2, 26369, Note_off_c, 0, 54, 64
2, 26385, Control_c, 0, 64, 127
2, 26392, Note_on_c, 0, 67, 41
2, 26392, Note_on_c, 0, 59, 26
2, 26397, Note_on_c, 0, 50, 29
2, 26405, Note_on_c, 0, 43, 26
2, 26420, Control_c, 0, 64, 0
2, 26425, Note_off_c, 0, 69, 64
2, 26443, Control_c, 0, 64, 127
2, 26580, Control_c, 0, 64, 0
2, 26581, Note_off_c, 0, 43, 64
2, 26604, Control_c, 0, 64, 127
2, 26618, Note_on_c, 0, 68, 57
2, 26620, Note_on_c, 0, 60, 39
2, 26623, Note_on_c, 0, 51, 36
2, 26627, Note_on_c, 0, 43, 32
2, 26642, Note_off_c, 0, 59, 64
2, 26651, Control_c, 0, 64, 0
2, 26653, Note_off_c, 0, 50, 64
2, 26657, Note_off_c, 0, 67, 64
2, 26673, Control_c, 0, 64, 127
2, 26752, Note_off_c, 0, 43, 64
2, 26787, Control_c, 0, 64, 0
2, 26811, Control_c, 0, 64, 127
2, 26834, Note_on_c, 0, 61, 41
2, 26840, Note_on_c, 0, 52, 39
2, 26844, Note_on_c, 0, 43, 29
2, 26848, Note_off_c, 0, 60, 64
2, 26849, Note_off_c, 0, 51, 64
2, 26868, Control_c, 0, 64, 0
2, 26892, Control_c, 0, 64, 127
2, 26974, Note_off_c, 0, 43, 64
2, 26999, Control_c, 0, 64, 0
2, 27015, Control_c, 0, 64, 127
2, 27030, Control_c, 0, 64, 0
2, 27053, Control_c, 0, 64, 127
2, 27058, Note_on_c, 0, 62, 40
2, 27063, Note_on_c, 0, 43, 41
2, 27065, Note_on_c, 0, 53, 41
2, 27073, Note_off_c, 0, 61, 64
2, 27075, Control_c, 0, 64, 0
2, 27081, Note_off_c, 0, 52, 64
2, 27099, Control_c, 0, 64, 127
2, 27212, Note_off_c, 0, 43, 64
2, 27238, Control_c, 0, 64, 0
2, 27261, Control_c, 0, 64, 127
2, 27269, Note_on_c, 0, 61, 39
2, 27279, Note_on_c, 0, 52, 37
2, 27280, Note_on_c, 0, 43, 20
2, 27287, Control_c, 0, 64, 0
2, 27295, Note_off_c, 0, 62, 64
2, 27303, Control_c, 0, 64, 127
2, 27308, Note_off_c, 0, 53, 64
2, 27318, Control_c, 0, 64, 0
2, 27341, Control_c, 0, 64, 127
2, 27421, Note_off_c, 0, 43, 64
2, 27485, Note_on_c, 0, 51, 29
2, 27488, Note_on_c, 0, 43, 20
2, 27491, Note_on_c, 0, 60, 28
2, 27526, Control_c, 0, 64, 0
2, 27534, Note_off_c, 0, 61, 64
2, 27544, Note_off_c, 0, 52, 64
2, 27549, Control_c, 0, 64, 127
2, 27590, Note_off_c, 0, 68, 64
2, 27615, Note_off_c, 0, 60, 64
2, 27617, Note_off_c, 0, 51, 64
2, 27629, Note_off_c, 0, 43, 64
2, 27710, Note_on_c, 0, 70, 39
2, 27716, Note_on_c, 0, 51, 35
2, 27717, Note_on_c, 0, 60, 31
2, 27717, Note_on_c, 0, 43, 36
2, 27837, Note_off_c, 0, 70, 64
2, 27845, Note_off_c, 0, 60, 64
2, 27848, Note_on_c, 0, 68, 36
2, 27864, Note_off_c, 0, 51, 64
2, 27876, Control_c, 0, 64, 0
2, 27901, Control_c, 0, 64, 127
2, 27902, Note_off_c, 0, 43, 64
2, 27912, Note_on_c, 0, 70, 46
2, 27913, Note_on_c, 0, 51, 36
2, 27926, Note_on_c, 0, 60, 35
2, 27927, Note_on_c, 0, 43, 27
2, 27946, Note_off_c, 0, 68, 64
2, 28024, Note_on_c, 0, 68, 39
2, 28044, Note_off_c, 0, 60, 64
2, 28054, Note_off_c, 0, 51, 64
2, 28062, Note_off_c, 0, 70, 64
2, 28086, Control_c, 0, 64, 0
2, 28113, Control_c, 0, 64, 127
2, 28115, Note_off_c, 0, 43, 64
2, 28124, Note_off_c, 0, 68, 64
2, 28132, Note_on_c, 0, 62, 41
2, 28138, Note_on_c, 0, 59, 31
2, 28141, Note_on_c, 0, 50, 36
2, 28142, Note_on_c, 0, 43, 39
2, 28164, Control_c, 0, 64, 0
2, 28189, Control_c, 0, 64, 127
2, 28230, Note_off_c, 0, 59, 64
2, 28300, Control_c, 0, 64, 0
2, 28301, Note_off_c, 0, 50, 64
2, 28319, Control_c, 0, 64, 127
2, 28348, Note_off_c, 0, 43, 64
2, 28356, Note_on_c, 0, 70, 39
2, 28357, Note_off_c, 0, 62, 64
2, 28364, Note_on_c, 0, 60, 39
2, 28364, Note_on_c, 0, 51, 37
2, 28368, Note_on_c, 0, 43, 31
2, 28374, Control_c, 0, 64, 0
2, 28401, Control_c, 0, 64, 127
2, 28506, Note_on_c, 0, 68, 42
2, 28511, Note_off_c, 0, 70, 64
2, 28518, Note_off_c, 0, 60, 64
2, 28528, Note_off_c, 0, 51, 64
2, 28555, Note_off_c, 0, 43, 64
2, 28571, Note_on_c, 0, 70, 52
2, 28574, Note_on_c, 0, 60, 41
2, 28574, Note_on_c, 0, 51, 37
2, 28580, Note_on_c, 0, 43, 35
2, 28584, Note_off_c, 0, 68, 64
2, 28588, Control_c, 0, 64, 0
2, 28607, Control_c, 0, 64, 127
2, 28683, Note_on_c, 0, 68, 44
2, 28692, Note_off_c, 0, 70, 64
2, 28736, Note_off_c, 0, 51, 64
2, 28738, Control_c, 0, 64, 0
2, 28745, Note_off_c, 0, 60, 64
2, 28771, Control_c, 0, 64, 127
2, 28786, Note_off_c, 0, 43, 64
2, 28788, Note_on_c, 0, 70, 49
2, 28791, Note_on_c, 0, 51, 35
2, 28796, Note_on_c, 0, 60, 45
2, 28800, Note_off_c, 0, 68, 64
2, 28806, Note_on_c, 0, 43, 23
2, 28892, Note_on_c, 0, 68, 31
2, 28914, Note_off_c, 0, 70, 64
2, 28922, Note_off_c, 0, 60, 64
2, 28932, Note_off_c, 0, 51, 64
2, 28961, Control_c, 0, 64, 0
2, 28984, Note_on_c, 0, 67, 37
2, 28992, Control_c, 0, 64, 127
2, 28993, Note_on_c, 0, 59, 33
2, 28994, Note_off_c, 0, 43, 64
2, 28999, Note_on_c, 0, 50, 36
2, 29002, Note_off_c, 0, 68, 64
2, 29010, Note_on_c, 0, 43, 26
2, 29026, Control_c, 0, 64, 0
2, 29059, Control_c, 0, 64, 127
2, 29158, Note_off_c, 0, 59, 64
2, 29175, Note_off_c, 0, 50, 64
2, 29182, Note_off_c, 0, 43, 64
2, 29205, Note_off_c, 0, 67, 64
2, 29214, Control_c, 0, 64, 0
2, 29216, Note_on_c, 0, 43, 22
2, 29222, Note_on_c, 0, 60, 35
2, 29228, Note_on_c, 0, 51, 31
2, 29229, Note_on_c, 0, 69, 54
2, 29237, Control_c, 0, 64, 127
2, 29249, Control_c, 0, 64, 0
2, 29280, Control_c, 0, 64, 127
2, 29372, Note_off_c, 0, 43, 64
2, 29424, Note_on_c, 0, 43, 20
2, 29436, Note_on_c, 0, 52, 35
2, 29445, Note_on_c, 0, 61, 40
2, 29450, Note_off_c, 0, 51, 64
2, 29471, Note_off_c, 0, 60, 64
2, 29502, Control_c, 0, 64, 0
2, 29525, Control_c, 0, 64, 127
2, 29565, Note_off_c, 0, 43, 64
2, 29583, Control_c, 0, 64, 0
2, 29607, Control_c, 0, 64, 127
2, 29622, Control_c, 0, 64, 0
2, 29645, Control_c, 0, 64, 127
2, 29648, Note_on_c, 0, 53, 36
2, 29652, Note_on_c, 0, 62, 41
2, 29655, Note_off_c, 0, 61, 64
2, 29655, Note_on_c, 0, 43, 26
2, 29660, Note_off_c, 0, 52, 64
2, 29814, Note_off_c, 0, 43, 64
2, 29830, Control_c, 0, 64, 0
2, 29853, Control_c, 0, 64, 127
2, 29860, Note_on_c, 0, 61, 39
2, 29864, Note_on_c, 0, 52, 35
2, 29871, Control_c, 0, 64, 0
2, 29872, Note_on_c, 0, 43, 20
2, 29877, Note_off_c, 0, 62, 64
2, 29895, Control_c, 0, 64, 127
2, 29900, Note_off_c, 0, 53, 64
2, 29910, Control_c, 0, 64, 0
2, 29933, Control_c, 0, 64, 127
2, 30013, Note_off_c, 0, 43, 64
2, 30020, Control_c, 0, 64, 0
2, 30048, Control_c, 0, 64, 127
2, 30074, Note_on_c, 0, 51, 35
2, 30079, Note_on_c, 0, 60, 29
2, 30080, Note_on_c, 0, 43, 20
2, 30086, Note_off_c, 0, 52, 64
2, 30098, Note_off_c, 0, 61, 64
2, 30118, Control_c, 0, 64, 0
2, 30141, Control_c, 0, 64, 127
2, 30221, Note_off_c, 0, 43, 64
2, 30243, Control_c, 0, 64, 0
2, 30269, Control_c, 0, 64, 127
2, 30292, Note_on_c, 0, 67, 37
2, 30293, Note_on_c, 0, 59, 40
2, 30298, Note_on_c, 0, 50, 36
2, 30301, Note_off_c, 0, 60, 64
2, 30302, Note_on_c, 0, 43, 35
2, 30308, Control_c, 0, 64, 0
2, 30311, Note_off_c, 0, 69, 64
2, 30316, Note_off_c, 0, 51, 64
2, 30336, Control_c, 0, 64, 127
2, 30445, Control_c, 0, 64, 0
2, 30447, Note_off_c, 0, 43, 64
2, 30463, Control_c, 0, 64, 127
2, 30494, Control_c, 0, 64, 0
2, 30498, Note_on_c, 0, 51, 36
2, 30501, Note_on_c, 0, 68, 53
2, 30506, Note_on_c, 0, 60, 39
2, 30508, Note_on_c, 0, 43, 32
2, 30515, Note_off_c, 0, 59, 64
2, 30517, Control_c, 0, 64, 127
2, 30520, Note_off_c, 0, 50, 64
2, 30531, Control_c, 0, 64, 0
2, 30534, Note_off_c, 0, 67, 64
2, 30557, Control_c, 0, 64, 127
2, 30686, Control_c, 0, 64, 0
2, 30709, Control_c, 0, 64, 127
2, 30714, Note_off_c, 0, 43, 64
2, 30714, Note_on_c, 0, 52, 36
2, 30718, Note_on_c, 0, 61, 46
2, 30733, Note_off_c, 0, 51, 64
2, 30733, Control_c, 0, 64, 0
2, 30741, Note_off_c, 0, 60, 64
2, 30744, Note_on_c, 0, 43, 20
2, 30751, Control_c, 0, 64, 127
2, 30782, Control_c, 0, 64, 0
2, 30805, Control_c, 0, 64, 127
2, 30881, Control_c, 0, 64, 0
2, 30885, Note_off_c, 0, 43, 64
2, 30900, Control_c, 0, 64, 127
2, 30917, Note_on_c, 0, 62, 40
2, 30921, Note_on_c, 0, 53, 42
2, 30936, Note_on_c, 0, 43, 20
2, 30943, Note_off_c, 0, 61, 64
2, 30947, Note_off_c, 0, 52, 64
2, 30974, Control_c, 0, 64, 0
2, 30997, Control_c, 0, 64, 127
2, 31077, Note_off_c, 0, 43, 64
2, 31118, Control_c, 0, 64, 0
2, 31120, Note_on_c, 0, 43, 31
2, 31126, Note_on_c, 0, 69, 58
2, 31127, Note_on_c, 0, 61, 46
2, 31134, Note_on_c, 0, 52, 37
2, 31141, Control_c, 0, 64, 127
2, 31156, Note_off_c, 0, 62, 64
2, 31160, Note_off_c, 0, 53, 64
2, 31169, Control_c, 0, 64, 0
2, 31188, Control_c, 0, 64, 127
2, 31194, Note_off_c, 0, 68, 64
2, 31297, Control_c, 0, 64, 0
2, 31310, Control_c, 0, 64, 127
2, 31311, Note_off_c, 0, 43, 64
2, 31343, Note_on_c, 0, 60, 37
2, 31349, Note_on_c, 0, 51, 36
2, 31368, Note_on_c, 0, 43, 20
2, 31376, Note_off_c, 0, 61, 64
2, 31383, Note_off_c, 0, 52, 64
2, 31406, Control_c, 0, 64, 0
2, 31429, Control_c, 0, 64, 127
2, 31509, Note_off_c, 0, 43, 64
2, 31526, Control_c, 0, 64, 0
2, 31549, Control_c, 0, 64, 127
2, 31552, Note_on_c, 0, 43, 20
2, 31557, Note_on_c, 0, 59, 26
2, 31564, Note_on_c, 0, 50, 28
2, 31565, Note_off_c, 0, 60, 64
2, 31565, Note_on_c, 0, 67, 31
2, 31571, Note_off_c, 0, 51, 64
2, 31585, Control_c, 0, 64, 0
2, 31597, Note_off_c, 0, 69, 64
2, 31598, Control_c, 0, 64, 127
2, 31725, Note_off_c, 0, 43, 64
2, 31750, Control_c, 0, 64, 0
2, 31760, Note_on_c, 0, 43, 15
2, 31765, Note_on_c, 0, 51, 27
2, 31773, Control_c, 0, 64, 127
2, 31776, Note_on_c, 0, 69, 41
2, 31778, Note_on_c, 0, 60, 24
2, 31786, Note_off_c, 0, 50, 64
2, 31790, Note_off_c, 0, 67, 64
2, 31812, Note_off_c, 0, 59, 64
2, 31814, Control_c, 0, 64, 0
2, 31837, Control_c, 0, 64, 127
2, 31932, Control_c, 0, 64, 0
2, 31946, Note_off_c, 0, 43, 64
2, 31954, Control_c, 0, 64, 127
2, 31974, Control_c, 0, 64, 0
2, 31976, Note_on_c, 0, 43, 15
2, 31982, Note_off_c, 0, 51, 64
2, 31983, Note_on_c, 0, 61, 31
2, 31987, Note_on_c, 0, 52, 18
2, 31995, Note_off_c, 0, 60, 64
2, 31997, Control_c, 0, 64, 127
2, 32038, Control_c, 0, 64, 0
2, 32061, Control_c, 0, 64, 127
2, 32162, Note_off_c, 0, 43, 64
2, 32182, Control_c, 0, 64, 0
2, 32200, Note_on_c, 0, 62, 28
2, 32200, Note_on_c, 0, 53, 26
2, 32200, Note_on_c, 0, 43, 15
2, 32204, Note_off_c, 0, 52, 64
2, 32205, Control_c, 0, 64, 127
2, 32207, Note_off_c, 0, 61, 64
2, 32220, Control_c, 0, 64, 0
2, 32242, Control_c, 0, 64, 127
2, 32262, Control_c, 0, 64, 0
2, 32285, Control_c, 0, 64, 127
2, 32345, Control_c, 0, 64, 0
2, 32380, Control_c, 0, 64, 127
2, 32386, Note_off_c, 0, 43, 64
2, 32404, Note_on_c, 0, 61, 33
2, 32408, Note_on_c, 0, 43, 15
2, 32412, Note_on_c, 0, 52, 29
2, 32433, Note_off_c, 0, 62, 64
2, 32448, Note_off_c, 0, 53, 64
2, 32470, Control_c, 0, 64, 0
2, 32493, Control_c, 0, 64, 127
2, 32526, Control_c, 0, 64, 0
2, 32549, Control_c, 0, 64, 127
2, 32576, Control_c, 0, 64, 0
2, 32589, Control_c, 0, 64, 127
2, 32594, Note_off_c, 0, 43, 64
2, 32616, Note_on_c, 0, 43, 15
2, 32617, Note_on_c, 0, 68, 32
2, 32622, Note_off_c, 0, 69, 64
2, 32622, Note_on_c, 0, 51, 29
2, 32625, Note_on_c, 0, 60, 31
2, 32629, Note_off_c, 0, 52, 64
2, 32633, Control_c, 0, 64, 0
2, 32638, Note_off_c, 0, 61, 64
2, 32668, Control_c, 0, 64, 127
2, 32802, Note_off_c, 0, 43, 64
2, 32814, Control_c, 0, 64, 0
2, 32835, Note_on_c, 0, 59, 33
2, 32836, Note_off_c, 0, 60, 64
2, 32837, Control_c, 0, 64, 127
2, 32839, Note_off_c, 0, 68, 64
2, 32839, Note_on_c, 0, 67, 35
2, 32848, Note_on_c, 0, 50, 31
2, 32848, Note_on_c, 0, 43, 23
2, 32856, Note_off_c, 0, 51, 64
2, 32864, Control_c, 0, 64, 0
2, 32877, Control_c, 0, 64, 127
2, 33034, Note_off_c, 0, 43, 64
2, 33040, Note_off_c, 0, 67, 64
2, 33052, Note_off_c, 0, 59, 64
2, 33052, Note_on_c, 0, 51, 36
2, 33055, Note_on_c, 0, 60, 31
2, 33060, Note_on_c, 0, 68, 36
2, 33064, Note_off_c, 0, 50, 64
2, 33065, Note_on_c, 0, 43, 23
2, 33253, Note_off_c, 0, 68, 64
2, 33260, Note_off_c, 0, 51, 64
2, 33265, Note_off_c, 0, 43, 64
2, 33273, Note_off_c, 0, 60, 64
2, 33274, Note_on_c, 0, 60, 40
2, 33274, Note_on_c, 0, 51, 33
2, 33276, Note_on_c, 0, 68, 46
2, 33280, Note_on_c, 0, 43, 31
2, 33434, Note_off_c, 0, 68, 64
2, 33442, Note_off_c, 0, 51, 64
2, 33456, Note_off_c, 0, 60, 64
2, 33468, Note_off_c, 0, 43, 64
2, 33471, Note_on_c, 0, 60, 45
2, 33474, Note_on_c, 0, 68, 50
2, 33483, Note_on_c, 0, 51, 39
2, 33487, Note_on_c, 0, 43, 36
2, 33681, Note_off_c, 0, 43, 64
2, 33686, Note_off_c, 0, 60, 64
2, 33690, Note_off_c, 0, 68, 64
2, 33697, Note_on_c, 0, 61, 44
2, 33697, Note_on_c, 0, 43, 37
2, 33702, Note_on_c, 0, 69, 42
2, 33702, Note_on_c, 0, 52, 37
2, 33703, Note_off_c, 0, 51, 64
2, 33868, Note_off_c, 0, 52, 64
2, 33870, Note_off_c, 0, 61, 64
2, 33875, Note_off_c, 0, 69, 64
2, 33877, Note_off_c, 0, 43, 64
2, 33907, Note_on_c, 0, 69, 42
2, 33909, Note_on_c, 0, 61, 48
2, 33909, Note_on_c, 0, 43, 44
2, 33911, Note_on_c, 0, 52, 42
2, 34067, Note_off_c, 0, 61, 64
2, 34080, Control_c, 0, 64, 0
2, 34090, Note_off_c, 0, 69, 64
2, 34112, Note_off_c, 0, 52, 64
2, 34114, Control_c, 0, 64, 127
2, 34121, Note_off_c, 0, 43, 64
2, 34125, Note_on_c, 0, 69, 49
2, 34129, Note_on_c, 0, 61, 49
2, 34135, Note_on_c, 0, 43, 41
2, 34137, Note_on_c, 0, 52, 41
2, 34299, Control_c, 0, 64, 0
2, 34324, Control_c, 0, 64, 127
2, 34326, Note_off_c, 0, 61, 64
2, 34332, Note_off_c, 0, 52, 64
2, 34344, Note_off_c, 0, 43, 64
2, 34351, Note_on_c, 0, 70, 48
2, 34351, Note_on_c, 0, 61, 49
2, 34356, Note_on_c, 0, 52, 41
2, 34360, Note_off_c, 0, 69, 64
2, 34361, Note_on_c, 0, 42, 55
2, 34368, Control_c, 0, 64, 0
2, 34402, Control_c, 0, 64, 127
2, 34529, Note_off_c, 0, 70, 64
2, 34534, Note_off_c, 0, 42, 64
2, 34546, Note_off_c, 0, 52, 64
2, 34548, Note_off_c, 0, 61, 64
2, 34548, Control_c, 0, 64, 0
2, 34559, Control_c, 0, 64, 127
2, 34566, Note_on_c, 0, 70, 53
2, 34569, Note_on_c, 0, 61, 59
2, 34574, Note_on_c, 0, 52, 50
2, 34574, Note_on_c, 0, 42, 50
2, 34587, Control_c, 0, 64, 0
2, 34612, Control_c, 0, 64, 127
2, 34767, Note_off_c, 0, 61, 64
2, 34772, Note_off_c, 0, 42, 64
2, 34781, Note_off_c, 0, 52, 64
2, 34799, Note_on_c, 0, 52, 45
2, 34805, Note_on_c, 0, 42, 53
2, 34807, Note_off_c, 0, 70, 64
2, 34809, Note_on_c, 0, 70, 57
2, 34809, Note_on_c, 0, 61, 54
2, 34816, Control_c, 0, 64, 0
2, 34836, Control_c, 0, 64, 0
2, 34847, Control_c, 0, 64, 127
2, 34851, Control_c, 0, 64, 127
2, 35050, Note_off_c, 0, 52, 64
2, 35055, Note_off_c, 0, 42, 64
2, 35065, Note_on_c, 0, 53, 45
2, 35071, Note_on_c, 0, 47, 52
2, 35075, Note_on_c, 0, 71, 57
2, 35075, Note_on_c, 0, 62, 57
2, 35087, Note_off_c, 0, 61, 64
2, 35104, Control_c, 0, 64, 0
2, 35105, Note_off_c, 0, 70, 64
2, 35139, Control_c, 0, 64, 127
2, 35308, Note_off_c, 0, 71, 64
2, 35313, Note_off_c, 0, 47, 64
2, 35313, Note_off_c, 0, 53, 64
2, 35341, Note_off_c, 0, 62, 64
2, 35358, Note_on_c, 0, 71, 53
2, 35366, Note_on_c, 0, 63, 58
2, 35372, Note_on_c, 0, 54, 50
2, 35374, Note_on_c, 0, 47, 54
2, 35457, Control_c, 0, 64, 0
2, 35487, Control_c, 0, 64, 127
2, 35637, Note_on_c, 0, 59, 50
2, 35654, Note_off_c, 0, 47, 64
2, 35672, Note_on_c, 0, 64, 55
2, 35681, Note_off_c, 0, 54, 64
2, 35711, Note_off_c, 0, 63, 64
2, 35716, Note_on_c, 0, 52, 54
2, 35720, Note_off_c, 0, 71, 64
2, 35721, Note_on_c, 0, 69, 67
2, 35721, Note_on_c, 0, 40, 57
2, 35738, Note_off_c, 0, 59, 64
2, 35745, Control_c, 0, 64, 0
2, 35775, Control_c, 0, 64, 127
2, 35785, Note_off_c, 0, 64, 64
2, 35980, Note_off_c, 0, 69, 64
2, 35981, Note_on_c, 0, 67, 61
2, 36022, Note_on_c, 0, 55, 45
2, 36024, Note_on_c, 0, 59, 45
2, 36030, Note_on_c, 0, 66, 67
2, 36062, Note_off_c, 0, 67, 64
2, 36096, Note_off_c, 0, 52, 64
2, 36121, Note_off_c, 0, 55, 64
2, 36137, Note_off_c, 0, 59, 64
2, 36158, Note_off_c, 0, 40, 64
2, 36213, Control_c, 0, 64, 0
2, 36225, Control_c, 0, 64, 127
2, 36246, Note_off_c, 0, 66, 64
2, 36251, Note_on_c, 0, 64, 65
2, 36251, Note_on_c, 0, 55, 42
2, 36255, Note_on_c, 0, 59, 46
2, 36464, Note_on_c, 0, 45, 37
2, 36478, Note_on_c, 0, 74, 48
2, 36488, Note_off_c, 0, 64, 64
2, 36493, Note_off_c, 0, 55, 64
2, 36497, Note_off_c, 0, 59, 64
2, 36501, Control_c, 0, 64, 0
2, 36513, Control_c, 0, 64, 127
2, 36688, Note_on_c, 0, 60, 24
2, 36691, Note_on_c, 0, 57, 24
2, 36696, Note_on_c, 0, 64, 23
2, 36772, Note_off_c, 0, 57, 64
2, 36777, Note_off_c, 0, 60, 64
2, 36783, Note_off_c, 0, 64, 64
2, 36787, Note_off_c, 0, 45, 64
2, 36835, Control_c, 0, 64, 0
2, 36857, Control_c, 0, 64, 127
2, 36880, Note_off_c, 0, 74, 64
2, 36887, Note_on_c, 0, 72, 46
2, 36900, Note_on_c, 0, 57, 29
2, 36903, Note_on_c, 0, 64, 29
2, 36904, Note_on_c, 0, 60, 32
2, 36955, Note_off_c, 0, 57, 64
2, 36978, Note_off_c, 0, 64, 64
2, 36979, Note_off_c, 0, 60, 64
2, 37045, Control_c, 0, 64, 0
2, 37058, Control_c, 0, 64, 127
2, 37101, Note_off_c, 0, 72, 64
2, 37101, Note_on_c, 0, 50, 29
2, 37106, Note_on_c, 0, 71, 41
2, 37110, Note_on_c, 0, 60, 32
2, 37115, Note_on_c, 0, 64, 29
2, 37123, Control_c, 0, 64, 0
2, 37145, Control_c, 0, 64, 127
2, 37210, Note_off_c, 0, 64, 64
2, 37234, Note_off_c, 0, 60, 64
2, 37257, Note_on_c, 0, 69, 42
2, 37292, Note_off_c, 0, 71, 64
2, 37318, Note_on_c, 0, 62, 29
2, 37319, Note_on_c, 0, 64, 39
2, 37320, Note_on_c, 0, 59, 24
2, 37325, Note_off_c, 0, 69, 64
2, 37333, Control_c, 0, 64, 0
2, 37346, Control_c, 0, 64, 127
2, 37392, Note_off_c, 0, 62, 64
2, 37408, Note_off_c, 0, 59, 64
2, 37414, Note_on_c, 0, 66, 42
2, 37431, Note_off_c, 0, 64, 64
2, 37459, Control_c, 0, 64, 0
2, 37482, Control_c, 0, 64, 127
2, 37528, Note_on_c, 0, 60, 31
2, 37528, Note_on_c, 0, 57, 29
2, 37529, Note_on_c, 0, 62, 42
2, 37532, Note_off_c, 0, 66, 64
2, 37574, Note_off_c, 0, 50, 64
2, 37603, Note_off_c, 0, 57, 64
2, 37616, Note_off_c, 0, 60, 64
2, 37688, Note_on_c, 0, 67, 42
2, 37704, Note_off_c, 0, 62, 64
2, 37727, Note_on_c, 0, 43, 41
2, 37740, Note_on_c, 0, 72, 46
2, 37747, Control_c, 0, 64, 0
2, 37770, Control_c, 0, 64, 127
2, 37786, Note_off_c, 0, 67, 64
2, 37947, Note_on_c, 0, 55, 36
2, 37951, Note_on_c, 0, 62, 32
2, 38018, Note_off_c, 0, 43, 64
2, 38046, Control_c, 0, 64, 0
2, 38071, Note_off_c, 0, 62, 64
2, 38074, Control_c, 0, 64, 127
2, 38081, Note_off_c, 0, 55, 64
2, 38159, Note_on_c, 0, 71, 36
2, 38177, Note_off_c, 0, 72, 64
2, 38334, Control_c, 0, 64, 0
2, 38344, Note_on_c, 0, 47, 49
2, 38362, Control_c, 0, 64, 127
2, 38415, Note_off_c, 0, 71, 64
2, 38500, Note_on_c, 0, 72, 42
2, 38511, Note_on_c, 0, 71, 27
2, 38542, Note_off_c, 0, 71, 64
2, 38542, Note_on_c, 0, 66, 23
2, 38544, Note_off_c, 0, 72, 64
2, 38552, Note_on_c, 0, 69, 23
2, 38556, Note_on_c, 0, 59, 23
2, 38560, Note_on_c, 0, 73, 49
2, 38573, Note_on_c, 0, 71, 29
2, 38598, Note_off_c, 0, 71, 64
2, 38609, Note_off_c, 0, 73, 64
2, 38611, Note_off_c, 0, 59, 64
2, 38621, Note_off_c, 0, 69, 64
2, 38627, Note_off_c, 0, 66, 64
2, 38638, Note_off_c, 0, 47, 64
2, 38663, Note_on_c, 0, 74, 46
2, 38664, Note_on_c, 0, 71, 41
2, 38694, Control_c, 0, 64, 0
2, 38706, Note_off_c, 0, 74, 64
2, 38709, Note_off_c, 0, 71, 64
2, 38709, Control_c, 0, 64, 127
2, 38763, Note_on_c, 0, 66, 36
2, 38768, Note_on_c, 0, 75, 50
2, 38768, Note_on_c, 0, 59, 32
2, 38773, Note_on_c, 0, 69, 29
2, 38776, Note_on_c, 0, 71, 20
2, 38972, Note_on_c, 0, 76, 45
2, 38975, Note_on_c, 0, 52, 44
2, 38979, Note_off_c, 0, 66, 64
2, 38982, Control_c, 0, 64, 0
2, 38984, Note_off_c, 0, 59, 64
2, 38984, Note_off_c, 0, 75, 64
2, 38989, Note_off_c, 0, 69, 64
2, 38992, Note_off_c, 0, 71, 64
2, 38997, Control_c, 0, 64, 127
2, 39118, Note_on_c, 0, 78, 36
2, 39133, Note_off_c, 0, 76, 64
2, 39162, Note_on_c, 0, 67, 29
2, 39168, Note_off_c, 0, 78, 64
2, 39169, Note_on_c, 0, 59, 40
2, 39177, Note_on_c, 0, 79, 44
2, 39230, Note_off_c, 0, 67, 64
2, 39234, Note_off_c, 0, 59, 64
2, 39286, Note_on_c, 0, 84, 42
2, 39296, Control_c, 0, 64, 0
2, 39326, Control_c, 0, 64, 127
2, 39336, Note_off_c, 0, 79, 64
2, 39381, Note_on_c, 0, 67, 29
2, 39385, Note_on_c, 0, 83, 45
2, 39391, Note_on_c, 0, 59, 40
2, 39419, Note_off_c, 0, 52, 64
2, 39495, Note_off_c, 0, 84, 64
2, 39498, Note_off_c, 0, 67, 64
2, 39516, Control_c, 0, 64, 0
2, 39530, Control_c, 0, 64, 127
2, 39565, Note_off_c, 0, 83, 64
2, 39574, Note_on_c, 0, 82, 53
2, 39584, Control_c, 0, 64, 0
2, 39592, Note_on_c, 0, 52, 41
2, 39595, Note_off_c, 0, 59, 64
2, 39614, Control_c, 0, 64, 127
2, 39623, Note_off_c, 0, 82, 64
2, 39720, Control_c, 0, 64, 0
2, 39732, Note_on_c, 0, 78, 41
2, 39744, Control_c, 0, 64, 127
2, 39783, Note_on_c, 0, 82, 50
2, 39783, Note_on_c, 0, 61, 36
2, 39783, Note_on_c, 0, 58, 36
2, 39790, Note_on_c, 0, 66, 32
2, 39799, Note_off_c, 0, 78, 64
2, 39804, Control_c, 0, 64, 0
2, 39818, Control_c, 0, 64, 127
2, 39851, Note_off_c, 0, 82, 64
2, 39856, Note_off_c, 0, 66, 64
2, 39858, Note_off_c, 0, 61, 64
2, 39887, Note_off_c, 0, 58, 64
2, 39936, Control_c, 0, 64, 0
2, 39951, Note_on_c, 0, 81, 40
2, 39959, Control_c, 0, 64, 127
2, 39992, Note_on_c, 0, 66, 39
2, 39995, Note_on_c, 0, 78, 49
2, 39995, Note_on_c, 0, 60, 39
2, 40003, Note_on_c, 0, 57, 32
2, 40008, Control_c, 0, 64, 0
2, 40016, Note_off_c, 0, 81, 64
2, 40032, Control_c, 0, 64, 127
2, 40101, Note_off_c, 0, 57, 64
2, 40114, Note_off_c, 0, 66, 64
2, 40137, Control_c, 0, 64, 0
2, 40150, Control_c, 0, 64, 127
2, 40182, Note_off_c, 0, 60, 64
2, 40188, Note_off_c, 0, 78, 64
2, 40190, Note_off_c, 0, 52, 64
2, 40198, Note_on_c, 0, 81, 44
2, 40200, Note_on_c, 0, 52, 41
2, 40224, Control_c, 0, 64, 0
2, 40232, Note_off_c, 0, 81, 64
2, 40247, Control_c, 0, 64, 127
2, 40352, Note_on_c, 0, 78, 46
2, 40402, Note_on_c, 0, 57, 40
2, 40404, Note_on_c, 0, 81, 45
2, 40406, Note_on_c, 0, 63, 28
2, 40415, Note_off_c, 0, 78, 64
2, 40425, Control_c, 0, 64, 0
2, 40438, Control_c, 0, 64, 127
2, 40500, Note_off_c, 0, 57, 64
2, 40514, Note_off_c, 0, 63, 64
2, 40560, Note_off_c, 0, 81, 64
2, 40573, Note_on_c, 0, 79, 41
2, 40614, Note_on_c, 0, 64, 29
2, 40619, Note_on_c, 0, 55, 29
2, 40621, Note_on_c, 0, 76, 42
2, 40644, Note_off_c, 0, 79, 64
2, 40667, Note_off_c, 0, 55, 64
2, 40667, Note_off_c, 0, 64, 64
2, 40688, Note_off_c, 0, 52, 64
2, 40689, Note_off_c, 0, 76, 64
2, 40834, Note_on_c, 0, 71, 44
2, 40838, Note_on_c, 0, 47, 49
2, 40955, Note_off_c, 0, 71, 64
2, 40992, Note_on_c, 0, 72, 41
2, 40997, Note_on_c, 0, 71, 39
2, 41033, Note_off_c, 0, 71, 64
2, 41037, Note_off_c, 0, 72, 64
2, 41043, Note_on_c, 0, 66, 19
2, 41044, Note_on_c, 0, 59, 33
2, 41054, Note_on_c, 0, 73, 50
2, 41054, Note_on_c, 0, 69, 20
2, 41056, Note_on_c, 0, 71, 28
2, 41082, Note_off_c, 0, 71, 64
2, 41098, Note_off_c, 0, 73, 64
2, 41105, Note_off_c, 0, 59, 64
2, 41112, Note_off_c, 0, 66, 64
2, 41122, Note_off_c, 0, 69, 64
2, 41126, Note_off_c, 0, 47, 64
2, 41142, Note_on_c, 0, 74, 48
2, 41145, Note_on_c, 0, 71, 42
2, 41183, Note_off_c, 0, 74, 64
2, 41187, Note_off_c, 0, 71, 64
2, 41252, Note_on_c, 0, 75, 57
2, 41253, Note_on_c, 0, 66, 41
2, 41253, Note_on_c, 0, 59, 39
2, 41259, Note_on_c, 0, 69, 36
2, 41414, Control_c, 0, 64, 0
2, 41437, Control_c, 0, 64, 127
2, 41445, Note_off_c, 0, 59, 64
2, 41445, Note_off_c, 0, 66, 64
2, 41451, Note_off_c, 0, 69, 64
2, 41456, Note_on_c, 0, 76, 42
2, 41468, Note_on_c, 0, 52, 45
2, 41471, Note_off_c, 0, 75, 64
2, 41501, Note_off_c, 0, 76, 64
2, 41577, Note_on_c, 0, 91, 58
2, 41633, Note_off_c, 0, 91, 64
2, 41661, Note_on_c, 0, 90, 58
2, 41674, Note_on_c, 0, 91, 65
2, 41687, Note_on_c, 0, 67, 46
2, 41689, Note_on_c, 0, 59, 57
2, 41695, Note_off_c, 0, 90, 64
2, 41702, Control_c, 0, 64, 0
2, 41712, Note_on_c, 0, 90, 63
2, 41725, Control_c, 0, 64, 127
2, 41734, Note_off_c, 0, 91, 64
2, 41803, Note_on_c, 0, 88, 27
2, 41825, Note_off_c, 0, 59, 64
2, 41838, Control_c, 0, 64, 0
2, 41847, Note_off_c, 0, 90, 64
2, 41858, Note_off_c, 0, 67, 64
2, 41864, Control_c, 0, 64, 127
2, 41885, Note_off_c, 0, 52, 64
2, 41907, Note_on_c, 0, 84, 57
2, 41923, Note_off_c, 0, 88, 64
2, 42003, Note_on_c, 0, 83, 54
2, 42034, Note_off_c, 0, 84, 64
2, 42051, Control_c, 0, 64, 0
2, 42067, Control_c, 0, 64, 127
2, 42114, Note_on_c, 0, 52, 32
2, 42119, Note_on_c, 0, 82, 37
2, 42126, Control_c, 0, 64, 0
2, 42143, Note_off_c, 0, 83, 64
2, 42152, Control_c, 0, 64, 127
2, 42216, Note_on_c, 0, 83, 39
2, 42244, Note_off_c, 0, 82, 64
2, 42314, Note_on_c, 0, 63, 15
2, 42319, Note_on_c, 0, 84, 35
2, 42323, Note_on_c, 0, 59, 26
2, 42330, Note_off_c, 0, 83, 64
2, 42330, Note_on_c, 0, 71, 13
2, 42339, Control_c, 0, 64, 0
2, 42355, Control_c, 0, 64, 127
2, 42401, Note_off_c, 0, 59, 64
2, 42401, Note_off_c, 0, 63, 64
2, 42409, Note_on_c, 0, 82, 44
2, 42413, Note_off_c, 0, 52, 64
2, 42436, Note_off_c, 0, 84, 64
2, 42438, Note_off_c, 0, 71, 64
2, 42460, Control_c, 0, 64, 0
2, 42483, Control_c, 0, 64, 127
2, 42503, Note_off_c, 0, 82, 64
2, 42506, Note_on_c, 0, 83, 36
2, 42528, Note_on_c, 0, 63, 24
2, 42537, Note_on_c, 0, 71, 18
2, 42538, Note_on_c, 0, 59, 23
2, 42578, Note_on_c, 0, 78, 44
2, 42589, Note_off_c, 0, 83, 64
2, 42645, Note_off_c, 0, 71, 64
2, 42646, Note_on_c, 0, 81, 37
2, 42655, Note_off_c, 0, 63, 64
2, 42656, Note_off_c, 0, 59, 64
2, 42674, Note_off_c, 0, 78, 64
2, 42728, Control_c, 0, 64, 0
2, 42729, Note_on_c, 0, 79, 39
2, 42736, Note_on_c, 0, 52, 26
2, 42740, Control_c, 0, 64, 127
2, 42748, Control_c, 0, 64, 0
2, 42754, Note_off_c, 0, 81, 64
2, 42771, Control_c, 0, 64, 127
2, 42840, Note_off_c, 0, 79, 64
2, 42857, Note_on_c, 0, 91, 33
2, 42925, Note_off_c, 0, 91, 64
2, 42935, Note_on_c, 0, 90, 36
2, 42974, Note_off_c, 0, 90, 64
2, 42983, Note_on_c, 0, 91, 39
2, 43003, Note_on_c, 0, 59, 20
2, 43004, Note_on_c, 0, 67, 14
2, 43011, Note_on_c, 0, 90, 36
2, 43016, Control_c, 0, 64, 0
2, 43028, Control_c, 0, 64, 127
2, 43040, Note_off_c, 0, 91, 64
2, 43104, Note_on_c, 0, 88, 28
2, 43129, Note_off_c, 0, 90, 64
2, 43133, Note_off_c, 0, 52, 64
2, 43144, Control_c, 0, 64, 0
2, 43155, Control_c, 0, 64, 127
2, 43219, Note_on_c, 0, 84, 32
2, 43240, Note_off_c, 0, 88, 64
2, 43253, Note_off_c, 0, 67, 64
2, 43307, Note_on_c, 0, 83, 28
2, 43327, Note_off_c, 0, 59, 64
2, 43335, Note_off_c, 0, 84, 64
2, 43419, Note_on_c, 0, 52, 26
2, 43426, Note_on_c, 0, 82, 29
2, 43432, Control_c, 0, 64, 0
2, 43443, Control_c, 0, 64, 127
2, 43453, Note_off_c, 0, 83, 64
2, 43540, Note_on_c, 0, 83, 32
2, 43553, Note_off_c, 0, 82, 64
2, 43648, Note_on_c, 0, 59, 19
2, 43652, Note_on_c, 0, 84, 29
2, 43652, Note_on_c, 0, 71, 11
2, 43656, Note_on_c, 0, 63, 9
2, 43659, Note_on_c, 0, 69, 13
2, 43684, Note_off_c, 0, 83, 64
2, 43725, Note_off_c, 0, 52, 64
2, 43727, Note_on_c, 0, 82, 36
2, 43750, Note_off_c, 0, 59, 64
2, 43763, Note_off_c, 0, 84, 64
2, 43771, Note_off_c, 0, 63, 64
2, 43775, Note_off_c, 0, 69, 64
2, 43785, Note_off_c, 0, 71, 64
2, 43841, Note_on_c, 0, 83, 32
2, 43853, Note_on_c, 0, 63, 20
2, 43856, Note_off_c, 0, 82, 64
2, 43857, Note_on_c, 0, 59, 20
2, 43860, Note_on_c, 0, 71, 11
2, 43864, Note_on_c, 0, 69, 13
2, 43924, Note_on_c, 0, 78, 32
2, 43946, Note_off_c, 0, 83, 64
2, 43951, Note_off_c, 0, 69, 64
2, 43959, Note_off_c, 0, 63, 64
2, 43968, Note_off_c, 0, 71, 64
2, 43970, Note_off_c, 0, 59, 64
2, 44016, Note_on_c, 0, 81, 23
2, 44052, Note_off_c, 0, 78, 64
2, 44100, Note_on_c, 0, 52, 35
2, 44106, Note_on_c, 0, 79, 39
2, 44130, Note_off_c, 0, 81, 64
2, 44222, Note_on_c, 0, 100, 52
2, 44277, Note_off_c, 0, 79, 64
2, 44285, Note_off_c, 0, 100, 64
2, 44313, Note_on_c, 0, 96, 58
2, 44338, Note_on_c, 0, 98, 67
2, 44360, Note_on_c, 0, 64, 46
2, 44366, Note_on_c, 0, 59, 46
2, 44368, Note_on_c, 0, 71, 29
2, 44369, Note_off_c, 0, 96, 64
2, 44371, Note_on_c, 0, 67, 29
2, 44378, Note_on_c, 0, 96, 42
2, 44400, Note_off_c, 0, 98, 64
2, 44454, Note_on_c, 0, 95, 54
2, 44489, Note_off_c, 0, 96, 64
2, 44559, Note_on_c, 0, 91, 63
2, 44593, Note_off_c, 0, 95, 64
2, 44646, Note_on_c, 0, 88, 54
2, 44710, Note_off_c, 0, 91, 64
2, 44721, Note_off_c, 0, 52, 64
2, 44732, Note_on_c, 0, 84, 44
2, 44747, Note_off_c, 0, 64, 64
2, 44753, Note_off_c, 0, 59, 64
2, 44768, Note_off_c, 0, 88, 64
2, 44774, Note_off_c, 0, 71, 64
2, 44777, Note_off_c, 0, 67, 64
2, 44808, Note_on_c, 0, 83, 39
2, 44845, Note_off_c, 0, 84, 64
2, 44901, Note_on_c, 0, 52, 46
2, 44906, Note_on_c, 0, 82, 45
2, 44908, Control_c, 0, 64, 0
2, 44924, Control_c, 0, 64, 127
2, 44940, Note_off_c, 0, 83, 64
2, 45048, Note_on_c, 0, 78, 27
2, 45060, Note_off_c, 0, 82, 64
2, 45157, Note_on_c, 0, 84, 48
2, 45166, Note_on_c, 0, 71, 23
2, 45166, Note_on_c, 0, 63, 26
2, 45166, Note_on_c, 0, 59, 27
2, 45170, Note_on_c, 0, 69, 20
2, 45196, Control_c, 0, 64, 0
2, 45198, Note_off_c, 0, 78, 64
2, 45212, Control_c, 0, 64, 127
2, 45236, Note_on_c, 0, 82, 52
2, 45274, Note_off_c, 0, 84, 64
2, 45317, Note_off_c, 0, 59, 64
2, 45331, Note_on_c, 0, 83, 42
2, 45341, Note_off_c, 0, 63, 64
2, 45347, Note_off_c, 0, 69, 64
2, 45347, Note_off_c, 0, 71, 64
2, 45397, Note_off_c, 0, 82, 64
2, 45435, Note_on_c, 0, 81, 44
2, 45446, Note_on_c, 0, 71, 15
2, 45446, Note_on_c, 0, 69, 15
2, 45446, Note_on_c, 0, 63, 19
2, 45455, Note_on_c, 0, 59, 11
2, 45475, Note_off_c, 0, 83, 64
2, 45527, Note_on_c, 0, 82, 46
2, 45568, Note_off_c, 0, 81, 64
2, 45628, Note_off_c, 0, 63, 64
2, 45629, Note_off_c, 0, 69, 64
2, 45631, Note_on_c, 0, 80, 37
2, 45636, Note_off_c, 0, 71, 64
2, 45652, Note_off_c, 0, 59, 64
2, 45667, Note_off_c, 0, 82, 64
2, 45677, Note_off_c, 0, 52, 64
2, 45746, Note_on_c, 0, 81, 37
2, 45756, Note_on_c, 0, 52, 36
2, 45776, Note_off_c, 0, 80, 64
2, 45872, Note_on_c, 0, 79, 35
2, 45903, Note_off_c, 0, 81, 64
2, 45966, Control_c, 0, 64, 0
2, 45998, Note_on_c, 0, 78, 35
2, 46021, Control_c, 0, 64, 127
2, 46025, Note_off_c, 0, 79, 64
2, 46084, Control_c, 0, 64, 0
2, 46161, Control_c, 0, 64, 127
2, 46179, Note_on_c, 0, 76, 32
2, 46187, Note_off_c, 0, 78, 64
2, 46187, Note_on_c, 0, 59, 18
2, 46194, Note_on_c, 0, 67, 11
2, 46254, Control_c, 0, 64, 0
2, 46309, Control_c, 0, 64, 127
2, 46372, Control_c, 0, 64, 0
2, 46449, Control_c, 0, 64, 127
2, 46492, Control_c, 0, 64, 0
2, 46596, Control_c, 0, 64, 127
2, 46780, Control_c, 0, 64, 0
2, 46884, Control_c, 0, 64, 127
2, 47298, Control_c, 0, 64, 0
2, 47543, Note_off_c, 0, 52, 64
2, 47543, Note_off_c, 0, 59, 64
2, 47543, Note_off_c, 0, 76, 64
2, 47549, Note_off_c, 0, 67, 64
2, 47586, Control_c, 0, 64, 0
2, 47586, End_track
3, 0, Start_track
3, 0, Title_t, "Played by Dr. Ron Lubetsky"
3, 0, End_track
4, 0, Start_track
4, 0, Title_t, "Jan. 15, 1998"
4, 0, End_track
5, 0, Start_track
5, 0, Title_t, "email: acuity2020@aol.com"
5, 0, End_track
6, 0, Start_track
6, 0, Title_t, "Copyright  1998"
6, 0, End_track
7, 0, Start_track
7, 0, Title_t, "All Rights Reserved"
7, 0, End_track
0, 0, End_of_file
