0, 0, Header, 1, 7, 240
1, 0, Start_track
1, 0, Time_signature, 4, 2, 24, 8
1, 0, Tempo, 500000
1, 0, Marker_t, "Chopin: Mazurka, Op. 67 No. 4 (posth.)- Moderato animato"
1, 0, End_track
2, 0, Start_track
2, 0, Title_t, "Chopin: Op. 67 No. 4 (posth.)"
2, 0, Program_c, 0, 0
2, 0, Control_c, 0, 7, 127
2, 28, Control_c, 0, 64, 0
2, 36, Note_on_c, 0, 76, 81
2, 266, Note_on_c, 0, 45, 63
2, 275, Control_c, 0, 64, 127
2, 324, Control_c, 0, 64, 127
2, 537, Note_on_c, 0, 64, 45
2, 548, Note_on_c, 0, 57, 24
2, 553, Note_on_c, 0, 52, 28
2, 555, Note_off_c, 0, 45, 64
2, 631, Note_off_c, 0, 64, 64
2, 642, Note_off_c, 0, 57, 64
2, 647, Note_off_c, 0, 52, 64
2, 652, Note_on_c, 0, 77, 48
2, 660, Note_off_c, 0, 76, 64
2, 660, Control_c, 0, 64, 0
2, 752, Note_on_c, 0, 76, 66
2, 761, Note_on_c, 0, 57, 36
2, 764, Note_on_c, 0, 64, 34
2, 764, Note_on_c, 0, 52, 36
2, 789, Note_off_c, 0, 77, 64
2, 792, Note_on_c, 0, 77, 69
2, 794, Note_off_c, 0, 76, 64
2, 832, Note_on_c, 0, 76, 69
2, 845, Note_off_c, 0, 77, 64
2, 855, Note_off_c, 0, 57, 64
2, 858, Note_off_c, 0, 52, 64
2, 858, Note_off_c, 0, 64, 64
2, 885, Note_on_c, 0, 75, 72
2, 899, Note_off_c, 0, 76, 64
2, 907, Control_c, 0, 64, 127
2, 944, Control_c, 0, 64, 0
2, 966, Note_on_c, 0, 76, 80
2, 983, Control_c, 0, 64, 127
2, 984, Note_off_c, 0, 75, 64
2, 1047, Note_on_c, 0, 71, 78
2, 1097, Note_off_c, 0, 76, 64
2, 1132, Note_on_c, 0, 56, 36
2, 1135, Note_on_c, 0, 72, 69
2, 1135, Note_on_c, 0, 52, 28
2, 1144, Note_on_c, 0, 62, 29
2, 1144, Control_c, 0, 64, 0
2, 1150, Note_on_c, 0, 64, 24
2, 1164, Note_off_c, 0, 71, 64
2, 1180, Control_c, 0, 64, 127
2, 1226, Note_off_c, 0, 56, 64
2, 1229, Note_off_c, 0, 52, 64
2, 1238, Note_off_c, 0, 62, 64
2, 1244, Note_off_c, 0, 64, 64
2, 1316, Note_on_c, 0, 56, 36
2, 1319, Note_on_c, 0, 52, 28
2, 1328, Note_on_c, 0, 74, 72
2, 1328, Note_on_c, 0, 62, 29
2, 1328, Control_c, 0, 64, 0
2, 1334, Note_on_c, 0, 64, 24
2, 1362, Note_off_c, 0, 72, 64
2, 1364, Control_c, 0, 64, 127
2, 1410, Note_off_c, 0, 56, 64
2, 1413, Note_off_c, 0, 52, 64
2, 1422, Note_off_c, 0, 62, 64
2, 1428, Note_off_c, 0, 64, 64
2, 1520, Note_on_c, 0, 45, 72
2, 1528, Note_on_c, 0, 72, 79
2, 1542, Control_c, 0, 64, 0
2, 1576, Control_c, 0, 64, 0
2, 1587, Control_c, 0, 64, 127
2, 1615, Control_c, 0, 64, 127
2, 1726, Note_off_c, 0, 74, 64
2, 1760, Note_on_c, 0, 57, 29
2, 1764, Note_on_c, 0, 52, 47
2, 1771, Note_on_c, 0, 64, 34
2, 1776, Control_c, 0, 64, 0
2, 1777, Control_c, 0, 64, 0
2, 1792, Control_c, 0, 64, 127
2, 1812, Control_c, 0, 64, 127
2, 1819, Note_off_c, 0, 45, 64
2, 1854, Note_off_c, 0, 57, 64
2, 1858, Note_off_c, 0, 52, 64
2, 1865, Note_off_c, 0, 64, 64
2, 1867, Note_on_c, 0, 74, 59
2, 1884, Note_off_c, 0, 72, 64
2, 1944, Note_on_c, 0, 72, 59
2, 1958, Note_on_c, 0, 57, 42
2, 1959, Note_on_c, 0, 64, 42
2, 1960, Control_c, 0, 64, 0
2, 1961, Note_off_c, 0, 74, 64
2, 1962, Note_on_c, 0, 52, 45
2, 1974, Note_on_c, 0, 74, 70
2, 1996, Control_c, 0, 64, 127
2, 2000, Note_off_c, 0, 72, 64
2, 2020, Note_on_c, 0, 72, 70
2, 2052, Note_off_c, 0, 74, 64
2, 2052, Note_off_c, 0, 57, 64
2, 2053, Note_off_c, 0, 64, 64
2, 2056, Note_off_c, 0, 52, 64
2, 2074, Note_on_c, 0, 71, 59
2, 2120, Note_off_c, 0, 72, 64
2, 2132, Control_c, 0, 64, 0
2, 2141, Note_on_c, 0, 72, 77
2, 2160, Note_off_c, 0, 71, 64
2, 2163, Control_c, 0, 64, 127
2, 2174, Control_c, 0, 64, 0
2, 2219, Control_c, 0, 64, 127
2, 2227, Note_on_c, 0, 68, 73
2, 2257, Note_off_c, 0, 72, 64
2, 2312, Note_on_c, 0, 65, 32
2, 2317, Note_on_c, 0, 69, 74
2, 2320, Note_on_c, 0, 57, 56
2, 2324, Note_on_c, 0, 60, 45
2, 2328, Note_on_c, 0, 57, 25
2, 2328, Note_on_c, 0, 51, 26
2, 2330, Note_on_c, 0, 65, 34
2, 2330, Note_on_c, 0, 51, 34
2, 2334, Control_c, 0, 64, 0
2, 2339, Note_off_c, 0, 68, 64
2, 2357, Control_c, 0, 64, 127
2, 2406, Note_off_c, 0, 65, 64
2, 2409, Control_c, 0, 64, 0
2, 2414, Note_off_c, 0, 57, 64
2, 2418, Note_off_c, 0, 60, 64
2, 2422, Note_off_c, 0, 51, 64
2, 2422, Note_off_c, 0, 57, 64
2, 2424, Note_off_c, 0, 51, 64
2, 2424, Note_off_c, 0, 65, 64
2, 2424, Control_c, 0, 64, 127
2, 2504, Note_on_c, 0, 57, 56
2, 2508, Note_on_c, 0, 71, 81
2, 2508, Note_on_c, 0, 60, 45
2, 2514, Note_on_c, 0, 65, 34
2, 2514, Note_on_c, 0, 51, 34
2, 2542, Note_off_c, 0, 69, 64
2, 2598, Note_off_c, 0, 57, 64
2, 2602, Note_off_c, 0, 60, 64
2, 2608, Note_off_c, 0, 51, 64
2, 2608, Note_off_c, 0, 65, 64
2, 2764, Control_c, 0, 64, 0
2, 2773, Note_on_c, 0, 45, 51
2, 2777, Note_on_c, 0, 69, 83
2, 2786, Control_c, 0, 64, 0
2, 2795, Control_c, 0, 64, 127
2, 2830, Note_off_c, 0, 71, 64
2, 2839, Control_c, 0, 64, 127
2, 2966, Control_c, 0, 64, 0
2, 2989, Control_c, 0, 64, 127
2, 3054, Note_on_c, 0, 64, 47
2, 3058, Note_on_c, 0, 57, 62
2, 3063, Note_on_c, 0, 52, 51
2, 3077, Control_c, 0, 64, 0
2, 3097, Note_off_c, 0, 45, 64
2, 3107, Control_c, 0, 64, 127
2, 3146, Note_on_c, 0, 71, 81
2, 3176, Note_off_c, 0, 69, 64
2, 3228, Note_on_c, 0, 72, 54
2, 3259, Note_off_c, 0, 71, 64
2, 3309, Note_on_c, 0, 68, 79
2, 3328, Note_off_c, 0, 52, 64
2, 3333, Note_off_c, 0, 57, 64
2, 3335, Note_off_c, 0, 64, 64
2, 3339, Note_off_c, 0, 72, 64
2, 3404, Note_on_c, 0, 69, 71
2, 3418, Control_c, 0, 64, 0
2, 3436, Note_off_c, 0, 68, 64
2, 3471, Control_c, 0, 64, 127
2, 3484, Note_on_c, 0, 63, 70
2, 3511, Note_off_c, 0, 69, 64
2, 3568, Note_on_c, 0, 64, 67
2, 3600, Control_c, 0, 64, 0
2, 3608, Note_off_c, 0, 63, 64
2, 3709, Control_c, 0, 64, 0
2, 3739, Control_c, 0, 64, 127
2, 3762, Note_on_c, 0, 67, 59
2, 3791, Note_off_c, 0, 64, 64
2, 3850, Note_on_c, 0, 65, 81
2, 3868, Note_off_c, 0, 67, 64
2, 3940, Note_on_c, 0, 64, 74
2, 3944, Note_on_c, 0, 40, 72
2, 3963, Note_off_c, 0, 65, 64
2, 3970, Control_c, 0, 64, 127
2, 4014, Note_on_c, 0, 62, 70
2, 4064, Note_off_c, 0, 64, 64
2, 4097, Note_on_c, 0, 59, 72
2, 4111, Control_c, 0, 64, 0
2, 4116, Note_on_c, 0, 56, 47
2, 4116, Note_on_c, 0, 50, 42
2, 4120, Note_on_c, 0, 52, 19
2, 4121, Note_off_c, 0, 62, 64
2, 4161, Control_c, 0, 64, 127
2, 4210, Note_off_c, 0, 50, 64
2, 4210, Note_off_c, 0, 56, 64
2, 4214, Note_off_c, 0, 52, 64
2, 4230, Note_off_c, 0, 40, 64
2, 4232, Control_c, 0, 64, 0
2, 4287, Note_on_c, 0, 60, 81
2, 4287, Note_on_c, 0, 56, 34
2, 4288, Note_on_c, 0, 52, 18
2, 4288, Note_on_c, 0, 50, 29
2, 4292, Control_c, 0, 64, 0
2, 4302, Note_off_c, 0, 59, 64
2, 4323, Control_c, 0, 64, 127
2, 4381, Note_off_c, 0, 56, 64
2, 4382, Note_off_c, 0, 50, 64
2, 4382, Note_off_c, 0, 52, 64
2, 4468, Note_on_c, 0, 57, 72
2, 4474, Note_on_c, 0, 45, 64
2, 4487, Control_c, 0, 64, 0
2, 4526, Note_off_c, 0, 60, 64
2, 4560, Control_c, 0, 64, 127
2, 4602, Control_c, 0, 64, 127
2, 4680, Note_on_c, 0, 52, 39
2, 4690, Note_on_c, 0, 60, 70
2, 4743, Control_c, 0, 64, 0
2, 4793, Control_c, 0, 64, 127
2, 4887, Note_on_c, 0, 64, 93
2, 4890, Note_off_c, 0, 52, 64
2, 4894, Note_off_c, 0, 60, 64
2, 4924, Control_c, 0, 64, 0
2, 4927, Note_off_c, 0, 45, 64
2, 4945, Note_off_c, 0, 57, 64
2, 4955, Control_c, 0, 64, 127
2, 5100, Note_on_c, 0, 33, 88
2, 5119, Control_c, 0, 64, 0
2, 5162, Note_on_c, 0, 76, 110
2, 5171, Control_c, 0, 64, 0
2, 5185, Note_off_c, 0, 64, 64
2, 5192, Control_c, 0, 64, 127
2, 5217, Control_c, 0, 64, 127
2, 5463, Note_off_c, 0, 33, 64
2, 5479, Note_on_c, 0, 64, 53
2, 5488, Note_on_c, 0, 60, 53
2, 5489, Note_on_c, 0, 57, 66
2, 5496, Note_on_c, 0, 52, 33
2, 5573, Note_off_c, 0, 64, 64
2, 5582, Note_off_c, 0, 60, 64
2, 5583, Note_off_c, 0, 57, 64
2, 5588, Note_on_c, 0, 81, 93
2, 5590, Note_off_c, 0, 52, 64
2, 5617, Note_off_c, 0, 76, 64
2, 5676, Note_on_c, 0, 79, 90
2, 5688, Note_on_c, 0, 64, 41
2, 5688, Note_on_c, 0, 52, 40
2, 5693, Note_on_c, 0, 57, 47
2, 5695, Note_on_c, 0, 60, 47
2, 5698, Note_off_c, 0, 81, 64
2, 5755, Note_on_c, 0, 77, 81
2, 5782, Note_off_c, 0, 52, 64
2, 5782, Note_off_c, 0, 64, 64
2, 5784, Note_off_c, 0, 79, 64
2, 5787, Note_off_c, 0, 57, 64
2, 5789, Note_off_c, 0, 60, 64
2, 5803, Control_c, 0, 64, 0
2, 5829, Note_on_c, 0, 76, 81
2, 5843, Control_c, 0, 64, 0
2, 5849, Control_c, 0, 64, 127
2, 5868, Note_off_c, 0, 77, 64
2, 5872, Control_c, 0, 64, 127
2, 5904, Note_on_c, 0, 71, 87
2, 5920, Note_off_c, 0, 76, 64
2, 5973, Note_on_c, 0, 56, 55
2, 5973, Note_on_c, 0, 52, 63
2, 5981, Note_on_c, 0, 72, 83
2, 5981, Note_on_c, 0, 62, 47
2, 5986, Note_on_c, 0, 64, 47
2, 5990, Control_c, 0, 64, 0
2, 6007, Note_off_c, 0, 71, 64
2, 6012, Control_c, 0, 64, 127
2, 6067, Note_off_c, 0, 52, 64
2, 6067, Note_off_c, 0, 56, 64
2, 6075, Note_off_c, 0, 62, 64
2, 6080, Note_off_c, 0, 64, 64
2, 6143, Note_on_c, 0, 52, 69
2, 6147, Note_on_c, 0, 56, 55
2, 6151, Note_on_c, 0, 62, 36
2, 6154, Note_on_c, 0, 64, 45
2, 6157, Note_on_c, 0, 74, 83
2, 6217, Note_off_c, 0, 72, 64
2, 6237, Note_off_c, 0, 52, 64
2, 6241, Note_off_c, 0, 56, 64
2, 6245, Note_off_c, 0, 62, 64
2, 6248, Note_off_c, 0, 64, 64
2, 6357, Note_on_c, 0, 45, 72
2, 6366, Note_on_c, 0, 72, 81
2, 6375, Control_c, 0, 64, 0
2, 6419, Control_c, 0, 64, 127
2, 6438, Note_off_c, 0, 74, 64
2, 6475, Control_c, 0, 64, 0
2, 6504, Control_c, 0, 64, 127
2, 6592, Note_on_c, 0, 52, 66
2, 6599, Note_on_c, 0, 57, 47
2, 6601, Note_on_c, 0, 60, 32
2, 6613, Control_c, 0, 64, 0
2, 6622, Control_c, 0, 64, 0
2, 6636, Control_c, 0, 64, 127
2, 6644, Control_c, 0, 64, 127
2, 6651, Note_off_c, 0, 45, 64
2, 6677, Note_on_c, 0, 77, 90
2, 6686, Note_off_c, 0, 52, 64
2, 6693, Note_off_c, 0, 57, 64
2, 6695, Note_off_c, 0, 60, 64
2, 6700, Note_off_c, 0, 72, 64
2, 6749, Note_on_c, 0, 60, 58
2, 6752, Note_on_c, 0, 52, 58
2, 6758, Note_on_c, 0, 57, 51
2, 6760, Note_on_c, 0, 76, 87
2, 6783, Note_off_c, 0, 77, 64
2, 6835, Note_on_c, 0, 74, 77
2, 6843, Note_off_c, 0, 60, 64
2, 6846, Note_off_c, 0, 52, 64
2, 6852, Note_off_c, 0, 57, 64
2, 6875, Note_off_c, 0, 76, 64
2, 6916, Note_on_c, 0, 72, 90
2, 6951, Note_off_c, 0, 74, 64
2, 6971, Note_on_c, 0, 68, 95
2, 7007, Control_c, 0, 64, 0
2, 7021, Note_off_c, 0, 72, 64
2, 7044, Note_on_c, 0, 51, 55
2, 7048, Note_on_c, 0, 53, 59
2, 7051, Control_c, 0, 64, 127
2, 7053, Note_on_c, 0, 69, 78
2, 7060, Note_on_c, 0, 60, 38
2, 7060, Control_c, 0, 64, 0
2, 7073, Note_off_c, 0, 68, 64
2, 7105, Control_c, 0, 64, 127
2, 7138, Note_off_c, 0, 51, 64
2, 7142, Note_off_c, 0, 53, 64
2, 7154, Note_off_c, 0, 60, 64
2, 7229, Note_on_c, 0, 71, 81
2, 7236, Note_on_c, 0, 60, 47
2, 7237, Note_on_c, 0, 53, 55
2, 7237, Note_on_c, 0, 51, 47
2, 7245, Control_c, 0, 64, 0
2, 7268, Control_c, 0, 64, 127
2, 7290, Note_off_c, 0, 69, 64
2, 7330, Note_off_c, 0, 60, 64
2, 7331, Note_off_c, 0, 51, 64
2, 7331, Note_off_c, 0, 53, 64
2, 7430, Note_on_c, 0, 45, 72
2, 7433, Note_on_c, 0, 69, 81
2, 7456, Control_c, 0, 64, 0
2, 7491, Note_off_c, 0, 71, 64
2, 7519, Control_c, 0, 64, 127
2, 7643, Note_on_c, 0, 52, 81
2, 7646, Note_on_c, 0, 60, 51
2, 7676, Control_c, 0, 64, 0
2, 7692, Control_c, 0, 64, 0
2, 7721, Control_c, 0, 64, 127
2, 7730, Note_on_c, 0, 71, 81
2, 7737, Control_c, 0, 64, 127
2, 7744, Note_off_c, 0, 69, 64
2, 7816, Note_on_c, 0, 72, 65
2, 7820, Note_off_c, 0, 45, 64
2, 7852, Note_off_c, 0, 52, 64
2, 7861, Note_off_c, 0, 60, 64
2, 7865, Note_off_c, 0, 71, 64
2, 7887, Note_on_c, 0, 68, 87
2, 7942, Note_off_c, 0, 72, 64
2, 7979, Note_on_c, 0, 71, 72
2, 7998, Note_off_c, 0, 68, 64
2, 8006, Control_c, 0, 64, 0
2, 8059, Note_on_c, 0, 69, 78
2, 8086, Note_off_c, 0, 71, 64
2, 8088, Control_c, 0, 64, 0
2, 8126, Note_on_c, 0, 63, 75
2, 8146, Note_off_c, 0, 69, 64
2, 8151, Control_c, 0, 64, 127
2, 8195, Note_on_c, 0, 64, 66
2, 8238, Note_off_c, 0, 63, 64
2, 8270, Note_on_c, 0, 67, 80
2, 8307, Note_off_c, 0, 64, 64
2, 8308, Control_c, 0, 64, 0
2, 8336, Note_on_c, 0, 66, 80
2, 8353, Control_c, 0, 64, 127
2, 8376, Note_off_c, 0, 67, 64
2, 8418, Note_on_c, 0, 65, 79
2, 8421, Note_on_c, 0, 40, 77
2, 8452, Control_c, 0, 64, 127
2, 8463, Note_off_c, 0, 66, 64
2, 8488, Note_on_c, 0, 64, 75
2, 8507, Note_off_c, 0, 65, 64
2, 8560, Note_on_c, 0, 63, 72
2, 8560, Control_c, 0, 64, 0
2, 8572, Note_on_c, 0, 56, 70
2, 8576, Note_on_c, 0, 50, 71
2, 8584, Note_on_c, 0, 52, 1
2, 8602, Control_c, 0, 64, 127
2, 8603, Note_off_c, 0, 64, 64
2, 8638, Control_c, 0, 64, 0
2, 8643, Note_on_c, 0, 62, 66
2, 8666, Note_off_c, 0, 56, 64
2, 8670, Note_off_c, 0, 50, 64
2, 8678, Note_off_c, 0, 52, 64
2, 8682, Note_off_c, 0, 63, 64
2, 8700, Note_off_c, 0, 40, 64
2, 8725, Note_on_c, 0, 56, 43
2, 8728, Note_on_c, 0, 59, 71
2, 8728, Note_on_c, 0, 52, 43
2, 8728, Note_on_c, 0, 50, 62
2, 8733, Control_c, 0, 64, 0
2, 8761, Note_off_c, 0, 62, 64
2, 8761, Control_c, 0, 64, 127
2, 8807, Note_on_c, 0, 60, 77
2, 8819, Note_off_c, 0, 56, 64
2, 8822, Note_off_c, 0, 50, 64
2, 8822, Note_off_c, 0, 52, 64
2, 8828, Note_off_c, 0, 59, 64
2, 8905, Note_on_c, 0, 57, 76
2, 8906, Note_on_c, 0, 45, 58
2, 8918, Control_c, 0, 64, 0
2, 8943, Note_off_c, 0, 60, 64
2, 8981, Control_c, 0, 64, 127
2, 9084, Control_c, 0, 64, 127
2, 9112, Note_on_c, 0, 52, 66
2, 9116, Note_on_c, 0, 60, 47
2, 9192, Control_c, 0, 64, 0
2, 9230, Note_off_c, 0, 45, 64
2, 9234, Control_c, 0, 64, 127
2, 9306, Note_on_c, 0, 64, 90
2, 9310, Note_off_c, 0, 52, 64
2, 9315, Note_off_c, 0, 60, 64
2, 9336, Note_off_c, 0, 57, 64
2, 9365, Control_c, 0, 64, 0
2, 9393, Control_c, 0, 64, 127
2, 9520, Note_on_c, 0, 45, 78
2, 9524, Note_on_c, 0, 66, 101
2, 9544, Note_off_c, 0, 64, 64
2, 9548, Control_c, 0, 64, 0
2, 9550, Control_c, 0, 64, 0
2, 9600, Control_c, 0, 64, 127
2, 9613, Control_c, 0, 64, 127
2, 9782, Note_on_c, 0, 54, 36
2, 9784, Note_on_c, 0, 63, 42
2, 9784, Note_on_c, 0, 59, 47
2, 9847, Note_off_c, 0, 45, 64
2, 9856, Note_on_c, 0, 68, 83
2, 9876, Note_off_c, 0, 54, 64
2, 9878, Note_off_c, 0, 59, 64
2, 9878, Note_off_c, 0, 63, 64
2, 9880, Note_off_c, 0, 66, 64
2, 9933, Note_on_c, 0, 63, 47
2, 9934, Note_on_c, 0, 54, 47
2, 9941, Note_on_c, 0, 69, 83
2, 9941, Note_on_c, 0, 59, 42
2, 9953, Note_off_c, 0, 68, 64
2, 9998, Note_on_c, 0, 71, 93
2, 10013, Note_off_c, 0, 69, 64
2, 10027, Note_off_c, 0, 63, 64
2, 10028, Note_off_c, 0, 54, 64
2, 10035, Note_off_c, 0, 59, 64
2, 10070, Note_on_c, 0, 72, 78
2, 10084, Note_off_c, 0, 71, 64
2, 10119, Note_on_c, 0, 74, 82
2, 10133, Note_off_c, 0, 72, 64
2, 10160, Note_on_c, 0, 72, 83
2, 10180, Control_c, 0, 64, 0
2, 10183, Control_c, 0, 64, 0
2, 10192, Note_off_c, 0, 74, 64
2, 10199, Note_on_c, 0, 57, 62
2, 10202, Note_on_c, 0, 62, 53
2, 10202, Note_on_c, 0, 53, 51
2, 10208, Note_on_c, 0, 71, 100
2, 10232, Control_c, 0, 64, 127
2, 10240, Note_off_c, 0, 72, 64
2, 10247, Control_c, 0, 64, 127
2, 10293, Note_off_c, 0, 57, 64
2, 10296, Note_off_c, 0, 53, 64
2, 10296, Note_off_c, 0, 62, 64
2, 10361, Note_on_c, 0, 76, 90
2, 10366, Note_on_c, 0, 62, 57
2, 10366, Note_on_c, 0, 56, 66
2, 10366, Note_on_c, 0, 52, 78
2, 10419, Note_off_c, 0, 71, 64
2, 10460, Note_off_c, 0, 52, 64
2, 10460, Note_off_c, 0, 56, 64
2, 10460, Note_off_c, 0, 62, 64
2, 10540, Note_on_c, 0, 71, 93
2, 10546, Note_on_c, 0, 45, 81
2, 10552, Control_c, 0, 64, 0
2, 10555, Note_off_c, 0, 76, 64
2, 10598, Control_c, 0, 64, 127
2, 10712, Note_on_c, 0, 52, 70
2, 10715, Note_on_c, 0, 62, 53
2, 10716, Note_on_c, 0, 56, 50
2, 10778, Note_on_c, 0, 72, 88
2, 10797, Note_off_c, 0, 71, 64
2, 10806, Note_off_c, 0, 52, 64
2, 10809, Note_off_c, 0, 62, 64
2, 10810, Note_off_c, 0, 56, 64
2, 10815, Control_c, 0, 64, 0
2, 10844, Note_off_c, 0, 45, 64
2, 10850, Note_on_c, 0, 74, 90
2, 10856, Note_on_c, 0, 62, 53
2, 10856, Note_on_c, 0, 56, 71
2, 10860, Note_on_c, 0, 52, 66
2, 10879, Control_c, 0, 64, 127
2, 10885, Note_off_c, 0, 72, 64
2, 10919, Note_on_c, 0, 76, 78
2, 10941, Note_off_c, 0, 74, 64
2, 10950, Note_off_c, 0, 56, 64
2, 10950, Note_off_c, 0, 62, 64
2, 10954, Note_off_c, 0, 52, 64
2, 10964, Control_c, 0, 64, 0
2, 10976, Note_on_c, 0, 77, 93
2, 10978, Note_on_c, 0, 45, 81
2, 11008, Note_off_c, 0, 76, 64
2, 11019, Control_c, 0, 64, 127
2, 11020, Note_on_c, 0, 79, 95
2, 11034, Note_off_c, 0, 77, 64
2, 11068, Note_on_c, 0, 77, 71
2, 11101, Note_off_c, 0, 79, 64
2, 11112, Note_on_c, 0, 52, 71
2, 11114, Note_on_c, 0, 60, 66
2, 11127, Note_on_c, 0, 76, 102
2, 11146, Note_off_c, 0, 77, 64
2, 11184, Control_c, 0, 64, 0
2, 11206, Note_off_c, 0, 52, 64
2, 11208, Note_off_c, 0, 60, 64
2, 11230, Control_c, 0, 64, 127
2, 11286, Note_on_c, 0, 81, 97
2, 11296, Note_on_c, 0, 60, 57
2, 11296, Note_on_c, 0, 52, 77
2, 11304, Note_off_c, 0, 76, 64
2, 11354, Note_off_c, 0, 45, 64
2, 11390, Note_off_c, 0, 52, 64
2, 11390, Note_off_c, 0, 60, 64
2, 11409, Note_off_c, 0, 81, 64
2, 11508, Note_on_c, 0, 47, 58
2, 11521, Note_on_c, 0, 81, 102
2, 11544, Control_c, 0, 64, 0
2, 11589, Control_c, 0, 64, 127
2, 11596, Control_c, 0, 64, 0
2, 11651, Control_c, 0, 64, 127
2, 11739, Note_on_c, 0, 55, 53
2, 11740, Control_c, 0, 64, 0
2, 11746, Note_on_c, 0, 65, 53
2, 11750, Note_on_c, 0, 62, 40
2, 11770, Control_c, 0, 64, 127
2, 11816, Note_on_c, 0, 79, 82
2, 11823, Note_off_c, 0, 47, 64
2, 11833, Note_off_c, 0, 55, 64
2, 11840, Note_off_c, 0, 65, 64
2, 11843, Note_off_c, 0, 81, 64
2, 11844, Note_off_c, 0, 62, 64
2, 11858, Note_off_c, 0, 79, 64
2, 11893, Note_on_c, 0, 79, 81
2, 11950, Note_on_c, 0, 77, 90
2, 11966, Note_off_c, 0, 79, 64
2, 11998, Note_off_c, 0, 77, 64
2, 12016, Control_c, 0, 64, 0
2, 12022, Note_on_c, 0, 48, 78
2, 12028, Note_on_c, 0, 77, 82
2, 12054, Control_c, 0, 64, 127
2, 12081, Note_on_c, 0, 76, 87
2, 12106, Note_off_c, 0, 77, 64
2, 12133, Note_off_c, 0, 76, 64
2, 12156, Note_on_c, 0, 76, 81
2, 12163, Note_on_c, 0, 64, 38
2, 12165, Note_on_c, 0, 55, 57
2, 12176, Control_c, 0, 64, 0
2, 12221, Control_c, 0, 64, 127
2, 12222, Note_on_c, 0, 71, 72
2, 12233, Note_off_c, 0, 76, 64
2, 12257, Note_off_c, 0, 71, 64
2, 12257, Note_off_c, 0, 64, 64
2, 12259, Note_off_c, 0, 55, 64
2, 12293, Note_on_c, 0, 71, 78
2, 12293, Note_on_c, 0, 64, 70
2, 12299, Note_on_c, 0, 55, 63
2, 12352, Note_on_c, 0, 72, 77
2, 12353, Note_off_c, 0, 48, 64
2, 12372, Control_c, 0, 64, 0
2, 12381, Note_off_c, 0, 71, 64
2, 12387, Note_off_c, 0, 64, 64
2, 12393, Note_off_c, 0, 55, 64
2, 12402, Control_c, 0, 64, 127
2, 12437, Note_on_c, 0, 41, 66
2, 12444, Note_on_c, 0, 79, 78
2, 12457, Note_off_c, 0, 72, 64
2, 12461, Control_c, 0, 64, 0
2, 12508, Control_c, 0, 64, 127
2, 12618, Note_on_c, 0, 53, 27
2, 12624, Note_on_c, 0, 57, 25
2, 12627, Note_on_c, 0, 64, 22
2, 12648, Control_c, 0, 64, 0
2, 12686, Control_c, 0, 64, 127
2, 12692, Note_on_c, 0, 77, 70
2, 12712, Note_off_c, 0, 53, 64
2, 12718, Note_off_c, 0, 57, 64
2, 12721, Note_off_c, 0, 64, 64
2, 12725, Note_off_c, 0, 79, 64
2, 12735, Note_off_c, 0, 41, 64
2, 12738, Note_off_c, 0, 77, 64
2, 12770, Note_on_c, 0, 64, 33
2, 12770, Note_on_c, 0, 57, 51
2, 12777, Note_on_c, 0, 53, 41
2, 12778, Note_on_c, 0, 77, 77
2, 12844, Note_on_c, 0, 76, 70
2, 12864, Note_off_c, 0, 57, 64
2, 12864, Note_off_c, 0, 64, 64
2, 12865, Note_off_c, 0, 77, 64
2, 12871, Note_off_c, 0, 53, 64
2, 12883, Note_off_c, 0, 76, 64
2, 12907, Note_on_c, 0, 47, 53
2, 12914, Note_on_c, 0, 76, 78
2, 12914, Control_c, 0, 64, 0
2, 12937, Control_c, 0, 64, 127
2, 12979, Note_on_c, 0, 74, 66
2, 12995, Note_off_c, 0, 76, 64
2, 13026, Note_off_c, 0, 74, 64
2, 13040, Control_c, 0, 64, 0
2, 13049, Note_on_c, 0, 57, 50
2, 13052, Note_on_c, 0, 74, 70
2, 13058, Note_on_c, 0, 62, 41
2, 13058, Note_on_c, 0, 53, 50
2, 13082, Control_c, 0, 64, 127
2, 13093, Control_c, 0, 64, 0
2, 13112, Note_on_c, 0, 69, 66
2, 13135, Note_off_c, 0, 74, 64
2, 13140, Control_c, 0, 64, 127
2, 13143, Note_off_c, 0, 57, 64
2, 13152, Note_off_c, 0, 53, 64
2, 13152, Note_off_c, 0, 62, 64
2, 13187, Note_on_c, 0, 72, 72
2, 13204, Note_off_c, 0, 47, 64
2, 13205, Note_off_c, 0, 69, 64
2, 13256, Note_on_c, 0, 71, 66
2, 13284, Note_off_c, 0, 72, 64
2, 13360, Note_on_c, 0, 52, 72
2, 13369, Note_on_c, 0, 66, 81
2, 13397, Note_off_c, 0, 71, 64
2, 13409, Control_c, 0, 64, 0
2, 13472, Control_c, 0, 64, 127
2, 13546, Control_c, 0, 64, 0
2, 13569, Control_c, 0, 64, 127
2, 13624, Note_on_c, 0, 63, 47
2, 13640, Note_on_c, 0, 57, 43
2, 13645, Note_on_c, 0, 59, 43
2, 13672, Control_c, 0, 64, 0
2, 13683, Note_on_c, 0, 68, 66
2, 13696, Note_off_c, 0, 66, 64
2, 13701, Note_off_c, 0, 52, 64
2, 13714, Control_c, 0, 64, 127
2, 13718, Note_off_c, 0, 63, 64
2, 13734, Note_off_c, 0, 57, 64
2, 13739, Note_off_c, 0, 59, 64
2, 13766, Note_on_c, 0, 69, 81
2, 13766, Note_on_c, 0, 63, 60
2, 13768, Note_on_c, 0, 59, 45
2, 13768, Note_on_c, 0, 57, 26
2, 13770, Note_off_c, 0, 68, 64
2, 13828, Note_on_c, 0, 71, 81
2, 13856, Note_off_c, 0, 69, 64
2, 13860, Note_off_c, 0, 63, 64
2, 13862, Note_off_c, 0, 57, 64
2, 13862, Note_off_c, 0, 59, 64
2, 13894, Note_on_c, 0, 72, 69
2, 13906, Control_c, 0, 64, 0
2, 13914, Note_on_c, 0, 52, 82
2, 13937, Control_c, 0, 64, 127
2, 13941, Note_off_c, 0, 71, 64
2, 13948, Note_on_c, 0, 74, 70
2, 13970, Note_off_c, 0, 72, 64
2, 13994, Note_on_c, 0, 72, 78
2, 14015, Note_off_c, 0, 74, 64
2, 14037, Note_on_c, 0, 57, 71
2, 14040, Note_on_c, 0, 62, 62
2, 14041, Control_c, 0, 64, 0
2, 14041, Control_c, 0, 64, 0
2, 14050, Note_on_c, 0, 71, 102
2, 14061, Control_c, 0, 64, 127
2, 14069, Note_off_c, 0, 72, 64
2, 14104, Control_c, 0, 64, 127
2, 14131, Note_off_c, 0, 57, 64
2, 14134, Note_off_c, 0, 62, 64
2, 14184, Note_off_c, 0, 52, 64
2, 14205, Note_on_c, 0, 62, 45
2, 14205, Note_on_c, 0, 56, 52
2, 14210, Note_on_c, 0, 52, 56
2, 14214, Note_on_c, 0, 76, 87
2, 14227, Control_c, 0, 64, 0
2, 14259, Control_c, 0, 64, 127
2, 14272, Note_off_c, 0, 71, 64
2, 14299, Note_off_c, 0, 56, 64
2, 14299, Note_off_c, 0, 62, 64
2, 14318, Note_off_c, 0, 52, 64
2, 14371, Note_off_c, 0, 76, 64
2, 14374, Note_on_c, 0, 71, 97
2, 14518, Note_on_c, 0, 62, 59
2, 14525, Note_on_c, 0, 56, 55
2, 14525, Note_on_c, 0, 52, 51
2, 14538, Control_c, 0, 64, 0
2, 14569, Control_c, 0, 64, 127
2, 14606, Note_on_c, 0, 72, 83
2, 14612, Note_off_c, 0, 62, 64
2, 14619, Note_off_c, 0, 52, 64
2, 14619, Note_off_c, 0, 56, 64
2, 14668, Note_on_c, 0, 74, 86
2, 14672, Note_off_c, 0, 71, 64
2, 14673, Control_c, 0, 64, 0
2, 14675, Note_on_c, 0, 62, 55
2, 14678, Note_on_c, 0, 56, 72
2, 14685, Note_on_c, 0, 52, 63
2, 14693, Control_c, 0, 64, 127
2, 14722, Note_off_c, 0, 72, 64
2, 14744, Note_on_c, 0, 76, 90
2, 14769, Note_off_c, 0, 62, 64
2, 14772, Note_off_c, 0, 56, 64
2, 14776, Note_off_c, 0, 74, 64
2, 14779, Note_off_c, 0, 52, 64
2, 14810, Note_on_c, 0, 77, 82
2, 14820, Control_c, 0, 64, 0
2, 14826, Note_on_c, 0, 45, 88
2, 14848, Control_c, 0, 64, 127
2, 14855, Note_off_c, 0, 76, 64
2, 14859, Control_c, 0, 64, 0
2, 14865, Note_on_c, 0, 79, 93
2, 14891, Control_c, 0, 64, 127
2, 14896, Note_off_c, 0, 77, 64
2, 14917, Note_on_c, 0, 77, 90
2, 14954, Note_on_c, 0, 60, 72
2, 14956, Note_on_c, 0, 64, 82
2, 14964, Note_on_c, 0, 57, 62
2, 14966, Note_on_c, 0, 76, 102
2, 14966, Control_c, 0, 64, 0
2, 14973, Note_on_c, 0, 52, 71
2, 14975, Note_off_c, 0, 79, 64
2, 14985, Control_c, 0, 64, 127
2, 14999, Note_off_c, 0, 77, 64
2, 15098, Note_off_c, 0, 64, 64
2, 15098, Note_off_c, 0, 60, 64
2, 15102, Note_off_c, 0, 57, 64
2, 15114, Note_off_c, 0, 52, 64
2, 15116, Note_off_c, 0, 45, 64
2, 15148, Note_on_c, 0, 84, 120
2, 15197, Note_off_c, 0, 76, 64
2, 15347, Control_c, 0, 64, 0
2, 15369, Note_on_c, 0, 40, 63
2, 15436, Control_c, 0, 64, 127
2, 15452, Control_c, 0, 64, 0
2, 15480, Control_c, 0, 64, 127
2, 15496, Note_on_c, 0, 83, 88
2, 15513, Note_off_c, 0, 84, 64
2, 15598, Control_c, 0, 64, 0
2, 15617, Control_c, 0, 64, 127
2, 15624, Note_on_c, 0, 82, 106
2, 15627, Note_on_c, 0, 69, 38
2, 15635, Note_on_c, 0, 64, 62
2, 15635, Note_on_c, 0, 60, 53
2, 15657, Note_off_c, 0, 83, 64
2, 15688, Note_off_c, 0, 40, 64
2, 15726, Note_off_c, 0, 82, 64
2, 15755, Note_on_c, 0, 72, 81
2, 15840, Note_on_c, 0, 81, 90
2, 15863, Note_off_c, 0, 72, 64
2, 15929, Note_on_c, 0, 80, 93
2, 15948, Note_off_c, 0, 81, 64
2, 15975, Note_off_c, 0, 80, 64
2, 15979, Control_c, 0, 64, 0
2, 15991, Note_off_c, 0, 64, 64
2, 16011, Note_on_c, 0, 80, 90
2, 16042, Note_off_c, 0, 69, 64
2, 16066, Note_off_c, 0, 60, 64
2, 16068, Control_c, 0, 64, 127
2, 16096, Note_on_c, 0, 79, 77
2, 16123, Note_off_c, 0, 80, 64
2, 16177, Note_on_c, 0, 78, 90
2, 16194, Note_off_c, 0, 79, 64
2, 16244, Note_on_c, 0, 69, 62
2, 16265, Note_off_c, 0, 78, 64
2, 16315, Note_on_c, 0, 77, 77
2, 16343, Note_off_c, 0, 69, 64
2, 16383, Note_on_c, 0, 76, 72
2, 16401, Note_off_c, 0, 77, 64
2, 16433, Note_off_c, 0, 76, 64
2, 16447, Control_c, 0, 64, 0
2, 16459, Note_on_c, 0, 40, 72
2, 16464, Note_on_c, 0, 76, 63
2, 16498, Control_c, 0, 64, 127
2, 16532, Note_on_c, 0, 75, 71
2, 16545, Note_off_c, 0, 76, 64
2, 16601, Note_on_c, 0, 56, 56
2, 16606, Note_on_c, 0, 62, 52
2, 16613, Note_on_c, 0, 74, 81
2, 16617, Note_on_c, 0, 52, 43
2, 16629, Note_off_c, 0, 75, 64
2, 16673, Note_on_c, 0, 64, 62
2, 16695, Note_off_c, 0, 56, 64
2, 16698, Note_off_c, 0, 74, 64
2, 16700, Note_off_c, 0, 62, 64
2, 16711, Note_off_c, 0, 52, 64
2, 16744, Note_off_c, 0, 40, 64
2, 16760, Note_on_c, 0, 72, 70
2, 16766, Note_on_c, 0, 62, 52
2, 16770, Note_on_c, 0, 56, 58
2, 16776, Note_on_c, 0, 52, 26
2, 16789, Note_off_c, 0, 64, 64
2, 16839, Note_on_c, 0, 71, 63
2, 16855, Note_off_c, 0, 72, 64
2, 16860, Note_off_c, 0, 62, 64
2, 16864, Note_off_c, 0, 56, 64
2, 16870, Note_off_c, 0, 52, 64
2, 16876, Note_off_c, 0, 71, 64
2, 16918, Note_on_c, 0, 71, 75
2, 16927, Note_on_c, 0, 45, 53
2, 16938, Control_c, 0, 64, 0
2, 16982, Control_c, 0, 64, 127
2, 16995, Note_on_c, 0, 72, 66
2, 17028, Note_off_c, 0, 71, 64
2, 17071, Note_on_c, 0, 69, 54
2, 17079, Control_c, 0, 64, 0
2, 17080, Control_c, 0, 64, 0
2, 17084, Note_on_c, 0, 52, 58
2, 17087, Note_on_c, 0, 60, 38
2, 17092, Note_off_c, 0, 72, 64
2, 17110, Control_c, 0, 64, 127
2, 17130, Control_c, 0, 64, 127
2, 17178, Note_off_c, 0, 52, 64
2, 17181, Note_off_c, 0, 60, 64
2, 17236, Note_on_c, 0, 60, 51
2, 17244, Note_on_c, 0, 52, 58
2, 17330, Note_off_c, 0, 60, 64
2, 17338, Note_off_c, 0, 52, 64
2, 17363, Note_off_c, 0, 45, 64
2, 17399, Note_off_c, 0, 69, 64
2, 17418, Note_on_c, 0, 45, 45
2, 17478, Note_on_c, 0, 66, 85
2, 17510, Control_c, 0, 64, 0
2, 17556, Control_c, 0, 64, 127
2, 17570, Control_c, 0, 64, 0
2, 17614, Control_c, 0, 64, 127
2, 17712, Control_c, 0, 64, 0
2, 17716, Note_on_c, 0, 54, 45
2, 17720, Note_on_c, 0, 63, 47
2, 17722, Note_on_c, 0, 59, 55
2, 17742, Control_c, 0, 64, 127
2, 17772, Note_off_c, 0, 45, 64
2, 17784, Note_on_c, 0, 68, 72
2, 17805, Note_off_c, 0, 66, 64
2, 17810, Note_off_c, 0, 54, 64
2, 17814, Note_off_c, 0, 63, 64
2, 17816, Note_off_c, 0, 59, 64
2, 17863, Note_on_c, 0, 69, 77
2, 17864, Note_on_c, 0, 63, 34
2, 17867, Note_off_c, 0, 68, 64
2, 17872, Note_on_c, 0, 59, 41
2, 17873, Note_on_c, 0, 54, 35
2, 17918, Note_on_c, 0, 71, 84
2, 17950, Note_off_c, 0, 69, 64
2, 17958, Note_off_c, 0, 63, 64
2, 17966, Note_off_c, 0, 59, 64
2, 17967, Note_off_c, 0, 54, 64
2, 17985, Note_on_c, 0, 72, 72
2, 17994, Note_off_c, 0, 71, 64
2, 18027, Note_on_c, 0, 74, 72
2, 18039, Note_off_c, 0, 72, 64
2, 18073, Note_on_c, 0, 72, 88
2, 18092, Control_c, 0, 64, 0
2, 18100, Note_off_c, 0, 74, 64
2, 18106, Note_on_c, 0, 57, 64
2, 18112, Note_on_c, 0, 53, 51
2, 18113, Note_on_c, 0, 71, 90
2, 18118, Note_on_c, 0, 62, 40
2, 18129, Note_off_c, 0, 72, 64
2, 18142, Control_c, 0, 64, 0
2, 18158, Control_c, 0, 64, 127
2, 18188, Control_c, 0, 64, 127
2, 18200, Note_off_c, 0, 57, 64
2, 18206, Note_off_c, 0, 53, 64
2, 18212, Note_off_c, 0, 62, 64
2, 18263, Note_on_c, 0, 52, 61
2, 18269, Note_on_c, 0, 76, 74
2, 18273, Note_on_c, 0, 62, 51
2, 18275, Note_on_c, 0, 56, 60
2, 18285, Note_off_c, 0, 71, 64
2, 18357, Note_off_c, 0, 52, 64
2, 18367, Note_off_c, 0, 62, 64
2, 18369, Note_off_c, 0, 56, 64
2, 18462, Note_on_c, 0, 71, 77
2, 18462, Note_on_c, 0, 45, 63
2, 18472, Control_c, 0, 64, 0
2, 18482, Note_off_c, 0, 76, 64
2, 18509, Control_c, 0, 64, 127
2, 18637, Note_on_c, 0, 52, 29
2, 18638, Note_on_c, 0, 56, 37
2, 18644, Note_on_c, 0, 62, 29
2, 18711, Note_on_c, 0, 72, 76
2, 18724, Control_c, 0, 64, 0
2, 18731, Note_off_c, 0, 52, 64
2, 18732, Note_off_c, 0, 56, 64
2, 18738, Note_off_c, 0, 62, 64
2, 18745, Note_off_c, 0, 71, 64
2, 18762, Note_off_c, 0, 45, 64
2, 18779, Note_on_c, 0, 74, 63
2, 18780, Note_on_c, 0, 56, 63
2, 18787, Note_on_c, 0, 52, 60
2, 18790, Control_c, 0, 64, 127
2, 18800, Note_on_c, 0, 62, 26
2, 18853, Note_off_c, 0, 72, 64
2, 18856, Note_on_c, 0, 76, 58
2, 18874, Note_off_c, 0, 56, 64
2, 18881, Note_off_c, 0, 52, 64
2, 18894, Note_off_c, 0, 62, 64
2, 18897, Control_c, 0, 64, 0
2, 18902, Note_off_c, 0, 74, 64
2, 18905, Note_on_c, 0, 77, 69
2, 18913, Note_on_c, 0, 45, 72
2, 18934, Control_c, 0, 64, 127
2, 18962, Note_on_c, 0, 79, 69
2, 18966, Note_off_c, 0, 76, 64
2, 18990, Note_off_c, 0, 77, 64
2, 19008, Note_on_c, 0, 77, 72
2, 19042, Note_off_c, 0, 79, 64
2, 19042, Note_on_c, 0, 52, 55
2, 19051, Note_on_c, 0, 60, 45
2, 19065, Note_on_c, 0, 76, 84
2, 19081, Note_off_c, 0, 77, 64
2, 19104, Control_c, 0, 64, 0
2, 19136, Note_off_c, 0, 52, 64
2, 19141, Control_c, 0, 64, 127
2, 19145, Note_off_c, 0, 60, 64
2, 19250, Note_on_c, 0, 81, 85
2, 19252, Note_off_c, 0, 76, 64
2, 19258, Note_on_c, 0, 60, 34
2, 19270, Note_on_c, 0, 52, 29
2, 19271, Note_off_c, 0, 45, 64
2, 19352, Note_off_c, 0, 60, 64
2, 19364, Note_off_c, 0, 52, 64
2, 19379, Note_off_c, 0, 81, 64
2, 19476, Note_on_c, 0, 47, 55
2, 19512, Note_on_c, 0, 81, 79
2, 19529, Control_c, 0, 64, 0
2, 19536, Control_c, 0, 64, 0
2, 19566, Control_c, 0, 64, 127
2, 19602, Control_c, 0, 64, 127
2, 19756, Note_on_c, 0, 55, 45
2, 19768, Note_on_c, 0, 65, 34
2, 19769, Note_on_c, 0, 62, 36
2, 19831, Note_on_c, 0, 79, 69
2, 19832, Note_off_c, 0, 47, 64
2, 19849, Note_off_c, 0, 81, 64
2, 19850, Note_off_c, 0, 55, 64
2, 19862, Note_off_c, 0, 65, 64
2, 19863, Note_off_c, 0, 62, 64
2, 19876, Note_off_c, 0, 79, 64
2, 19915, Note_on_c, 0, 79, 68
2, 19968, Note_on_c, 0, 77, 68
2, 19988, Note_off_c, 0, 79, 64
2, 20011, Note_off_c, 0, 77, 64
2, 20021, Control_c, 0, 64, 0
2, 20047, Note_on_c, 0, 48, 63
2, 20050, Note_on_c, 0, 77, 77
2, 20089, Control_c, 0, 64, 127
2, 20104, Note_on_c, 0, 76, 62
2, 20118, Note_off_c, 0, 77, 64
2, 20148, Control_c, 0, 64, 0
2, 20154, Note_off_c, 0, 76, 64
2, 20168, Control_c, 0, 64, 0
2, 20178, Note_on_c, 0, 64, 55
2, 20180, Note_on_c, 0, 76, 62
2, 20184, Note_on_c, 0, 55, 62
2, 20187, Control_c, 0, 64, 127
2, 20234, Control_c, 0, 64, 127
2, 20237, Note_on_c, 0, 71, 51
2, 20250, Note_off_c, 0, 76, 64
2, 20272, Note_off_c, 0, 64, 64
2, 20278, Note_off_c, 0, 71, 64
2, 20278, Note_off_c, 0, 55, 64
2, 20308, Note_on_c, 0, 64, 58
2, 20315, Note_on_c, 0, 71, 68
2, 20321, Note_on_c, 0, 55, 56
2, 20374, Note_on_c, 0, 72, 55
2, 20382, Note_off_c, 0, 48, 64
2, 20390, Note_off_c, 0, 71, 64
2, 20402, Note_off_c, 0, 64, 64
2, 20415, Note_off_c, 0, 55, 64
2, 20445, Note_on_c, 0, 41, 47
2, 20451, Note_on_c, 0, 79, 69
2, 20453, Control_c, 0, 64, 0
2, 20469, Note_off_c, 0, 72, 64
2, 20511, Control_c, 0, 64, 127
2, 20613, Note_on_c, 0, 53, 51
2, 20618, Note_on_c, 0, 57, 41
2, 20619, Note_on_c, 0, 64, 58
2, 20653, Control_c, 0, 64, 0
2, 20682, Note_on_c, 0, 77, 56
2, 20705, Note_off_c, 0, 79, 64
2, 20707, Note_off_c, 0, 53, 64
2, 20712, Note_off_c, 0, 57, 64
2, 20713, Note_off_c, 0, 64, 64
2, 20721, Note_off_c, 0, 77, 64
2, 20721, Control_c, 0, 64, 127
2, 20744, Note_off_c, 0, 41, 64
2, 20752, Note_on_c, 0, 64, 36
2, 20756, Note_on_c, 0, 57, 51
2, 20757, Note_on_c, 0, 53, 51
2, 20763, Note_on_c, 0, 77, 58
2, 20780, Control_c, 0, 64, 0
2, 20819, Control_c, 0, 64, 127
2, 20821, Note_on_c, 0, 76, 47
2, 20845, Note_off_c, 0, 77, 64
2, 20846, Note_off_c, 0, 64, 64
2, 20850, Note_off_c, 0, 57, 64
2, 20851, Note_off_c, 0, 53, 64
2, 20861, Note_off_c, 0, 76, 64
2, 20877, Note_on_c, 0, 47, 55
2, 20883, Control_c, 0, 64, 0
2, 20897, Note_on_c, 0, 76, 62
2, 20910, Control_c, 0, 64, 127
2, 20965, Note_on_c, 0, 74, 55
2, 20985, Note_off_c, 0, 76, 64
2, 20998, Note_off_c, 0, 74, 64
2, 21009, Control_c, 0, 64, 0
2, 21021, Note_on_c, 0, 53, 47
2, 21024, Note_on_c, 0, 57, 29
2, 21026, Note_on_c, 0, 62, 34
2, 21038, Note_on_c, 0, 74, 56
2, 21055, Control_c, 0, 64, 127
2, 21085, Control_c, 0, 64, 0
2, 21091, Note_on_c, 0, 69, 45
2, 21108, Note_off_c, 0, 74, 64
2, 21115, Note_off_c, 0, 53, 64
2, 21118, Note_off_c, 0, 57, 64
2, 21120, Note_off_c, 0, 62, 64
2, 21143, Control_c, 0, 64, 127
2, 21164, Note_off_c, 0, 47, 64
2, 21168, Note_on_c, 0, 72, 62
2, 21209, Note_off_c, 0, 69, 64
2, 21234, Note_on_c, 0, 71, 58
2, 21260, Note_off_c, 0, 72, 64
2, 21356, Note_on_c, 0, 52, 58
2, 21362, Note_on_c, 0, 66, 77
2, 21366, Control_c, 0, 64, 0
2, 21385, Note_off_c, 0, 71, 64
2, 21440, Control_c, 0, 64, 127
2, 21515, Control_c, 0, 64, 0
2, 21542, Control_c, 0, 64, 127
2, 21564, Note_on_c, 0, 63, 35
2, 21569, Note_on_c, 0, 57, 36
2, 21571, Note_on_c, 0, 59, 45
2, 21634, Note_on_c, 0, 68, 77
2, 21641, Control_c, 0, 64, 0
2, 21643, Note_off_c, 0, 52, 64
2, 21658, Note_off_c, 0, 63, 64
2, 21663, Note_off_c, 0, 57, 64
2, 21665, Note_off_c, 0, 59, 64
2, 21668, Note_off_c, 0, 66, 64
2, 21687, Control_c, 0, 64, 127
2, 21696, Note_on_c, 0, 57, 36
2, 21704, Note_on_c, 0, 59, 19
2, 21711, Note_on_c, 0, 63, 45
2, 21713, Note_on_c, 0, 69, 69
2, 21721, Note_off_c, 0, 68, 64
2, 21728, Note_on_c, 0, 63, 19
2, 21768, Note_on_c, 0, 71, 77
2, 21783, Note_off_c, 0, 69, 64
2, 21790, Note_off_c, 0, 57, 64
2, 21798, Note_off_c, 0, 59, 64
2, 21805, Note_off_c, 0, 63, 64
2, 21822, Note_off_c, 0, 63, 64
2, 21822, Control_c, 0, 64, 0
2, 21832, Note_on_c, 0, 72, 81
2, 21833, Note_on_c, 0, 52, 69
2, 21850, Control_c, 0, 64, 127
2, 21855, Note_off_c, 0, 71, 64
2, 21880, Note_on_c, 0, 74, 29
2, 21903, Note_off_c, 0, 72, 64
2, 21928, Note_on_c, 0, 72, 69
2, 21947, Note_off_c, 0, 74, 64
2, 21957, Control_c, 0, 64, 0
2, 21972, Note_on_c, 0, 62, 44
2, 21976, Note_on_c, 0, 71, 85
2, 21976, Note_on_c, 0, 57, 55
2, 21976, Control_c, 0, 64, 127
2, 21991, Note_off_c, 0, 72, 64
2, 21998, Control_c, 0, 64, 0
2, 22066, Note_off_c, 0, 62, 64
2, 22070, Note_off_c, 0, 57, 64
2, 22072, Note_off_c, 0, 52, 64
2, 22072, Control_c, 0, 64, 127
2, 22094, Control_c, 0, 64, 0
2, 22108, Note_on_c, 0, 62, 49
2, 22116, Note_on_c, 0, 76, 76
2, 22116, Note_on_c, 0, 56, 40
2, 22116, Note_on_c, 0, 52, 45
2, 22134, Control_c, 0, 64, 127
2, 22199, Note_off_c, 0, 71, 64
2, 22202, Note_off_c, 0, 62, 64
2, 22210, Note_off_c, 0, 56, 64
2, 22232, Note_off_c, 0, 52, 64
2, 22280, Note_on_c, 0, 71, 84
2, 22296, Note_off_c, 0, 76, 64
2, 22400, Note_on_c, 0, 62, 41
2, 22400, Note_on_c, 0, 56, 44
2, 22400, Note_on_c, 0, 52, 47
2, 22454, Control_c, 0, 64, 0
2, 22482, Control_c, 0, 64, 127
2, 22485, Note_on_c, 0, 72, 85
2, 22494, Note_off_c, 0, 52, 64
2, 22494, Note_off_c, 0, 56, 64
2, 22494, Note_off_c, 0, 62, 64
2, 22522, Note_off_c, 0, 71, 64
2, 22543, Note_on_c, 0, 74, 63
2, 22548, Note_on_c, 0, 62, 55
2, 22552, Note_on_c, 0, 56, 47
2, 22552, Note_on_c, 0, 52, 36
2, 22589, Control_c, 0, 64, 0
2, 22597, Note_off_c, 0, 72, 64
2, 22608, Control_c, 0, 64, 127
2, 22613, Note_on_c, 0, 76, 72
2, 22642, Note_off_c, 0, 62, 64
2, 22646, Note_off_c, 0, 52, 64
2, 22646, Note_off_c, 0, 56, 64
2, 22659, Note_off_c, 0, 74, 64
2, 22683, Note_on_c, 0, 77, 72
2, 22700, Control_c, 0, 64, 0
2, 22707, Note_on_c, 0, 45, 78
2, 22726, Control_c, 0, 64, 0
2, 22728, Note_on_c, 0, 79, 85
2, 22730, Note_off_c, 0, 76, 64
2, 22732, Control_c, 0, 64, 127
2, 22747, Note_off_c, 0, 77, 64
2, 22766, Control_c, 0, 64, 127
2, 22773, Note_on_c, 0, 77, 69
2, 22820, Note_off_c, 0, 79, 64
2, 22837, Note_on_c, 0, 76, 85
2, 22840, Note_on_c, 0, 52, 55
2, 22842, Note_on_c, 0, 60, 47
2, 22854, Note_on_c, 0, 64, 41
2, 22854, Note_on_c, 0, 57, 41
2, 22859, Note_off_c, 0, 77, 64
2, 22993, Note_off_c, 0, 45, 64
2, 23015, Note_off_c, 0, 64, 64
2, 23020, Note_off_c, 0, 60, 64
2, 23020, Note_off_c, 0, 52, 64
2, 23024, Note_off_c, 0, 57, 64
2, 23040, Note_on_c, 0, 84, 99
2, 23076, Note_off_c, 0, 76, 64
2, 23323, Note_on_c, 0, 40, 78
2, 23332, Control_c, 0, 64, 0
2, 23361, Control_c, 0, 64, 0
2, 23364, Control_c, 0, 64, 127
2, 23413, Control_c, 0, 64, 127
2, 23496, Note_on_c, 0, 83, 77
2, 23519, Note_off_c, 0, 84, 64
2, 23632, Note_on_c, 0, 82, 69
2, 23647, Note_on_c, 0, 69, 58
2, 23648, Note_on_c, 0, 64, 22
2, 23655, Note_on_c, 0, 60, 45
2, 23665, Note_off_c, 0, 83, 64
2, 23719, Note_on_c, 0, 72, 58
2, 23725, Note_off_c, 0, 40, 64
2, 23791, Note_on_c, 0, 81, 69
2, 23810, Note_off_c, 0, 82, 64
2, 23822, Note_off_c, 0, 64, 64
2, 23827, Note_off_c, 0, 72, 64
2, 23843, Note_off_c, 0, 69, 64
2, 23859, Note_on_c, 0, 80, 68
2, 23862, Note_off_c, 0, 60, 64
2, 23891, Note_off_c, 0, 81, 64
2, 23899, Note_off_c, 0, 80, 64
2, 23943, Note_on_c, 0, 80, 68
2, 23993, Control_c, 0, 64, 0
2, 24010, Note_on_c, 0, 79, 62
2, 24039, Note_off_c, 0, 80, 64
2, 24045, Control_c, 0, 64, 127
2, 24076, Note_on_c, 0, 78, 68
2, 24096, Note_off_c, 0, 79, 64
2, 24147, Note_on_c, 0, 69, 55
2, 24190, Note_off_c, 0, 78, 64
2, 24216, Note_on_c, 0, 77, 68
2, 24248, Note_off_c, 0, 69, 64
2, 24278, Note_on_c, 0, 76, 47
2, 24292, Note_off_c, 0, 77, 64
2, 24324, Note_off_c, 0, 76, 64
2, 24350, Control_c, 0, 64, 0
2, 24361, Note_on_c, 0, 40, 68
2, 24366, Note_on_c, 0, 76, 58
2, 24401, Control_c, 0, 64, 127
2, 24425, Note_on_c, 0, 75, 62
2, 24469, Note_off_c, 0, 76, 64
2, 24511, Note_on_c, 0, 74, 58
2, 24511, Note_on_c, 0, 56, 49
2, 24511, Note_on_c, 0, 52, 47
2, 24519, Note_on_c, 0, 62, 35
2, 24526, Note_off_c, 0, 75, 64
2, 24576, Note_on_c, 0, 64, 52
2, 24605, Note_off_c, 0, 52, 64
2, 24605, Note_off_c, 0, 56, 64
2, 24613, Note_off_c, 0, 62, 64
2, 24617, Note_off_c, 0, 74, 64
2, 24646, Note_off_c, 0, 40, 64
2, 24670, Note_on_c, 0, 72, 63
2, 24670, Note_on_c, 0, 52, 44
2, 24676, Note_on_c, 0, 56, 35
2, 24677, Note_on_c, 0, 62, 35
2, 24716, Note_off_c, 0, 64, 64
2, 24764, Note_off_c, 0, 52, 64
2, 24768, Note_on_c, 0, 71, 34
2, 24770, Note_off_c, 0, 56, 64
2, 24771, Note_off_c, 0, 62, 64
2, 24782, Note_off_c, 0, 72, 64
2, 24806, Note_off_c, 0, 71, 64
2, 24851, Note_on_c, 0, 71, 56
2, 24864, Note_on_c, 0, 45, 45
2, 24890, Control_c, 0, 64, 0
2, 24935, Control_c, 0, 64, 127
2, 24954, Note_on_c, 0, 72, 45
2, 24981, Note_off_c, 0, 71, 64
2, 24982, Control_c, 0, 64, 0
2, 25033, Control_c, 0, 64, 127
2, 25059, Note_on_c, 0, 69, 51
2, 25061, Note_on_c, 0, 52, 36
2, 25069, Note_on_c, 0, 60, 22
2, 25074, Control_c, 0, 64, 0
2, 25082, Note_off_c, 0, 72, 64
2, 25090, Note_off_c, 0, 45, 64
2, 25098, Control_c, 0, 64, 127
2, 25155, Note_off_c, 0, 52, 64
2, 25163, Note_off_c, 0, 60, 64
2, 25298, Note_on_c, 0, 57, 36
2, 25303, Note_on_c, 0, 64, 29
2, 25312, Note_on_c, 0, 52, 22
2, 25334, Control_c, 0, 64, 0
2, 25347, Control_c, 0, 64, 127
2, 25522, Control_c, 0, 64, 0
2, 25564, Note_on_c, 0, 73, 70
2, 25567, Control_c, 0, 64, 127
2, 25573, Note_off_c, 0, 69, 64
2, 25606, Note_off_c, 0, 64, 64
2, 25610, Note_off_c, 0, 52, 64
2, 25610, Note_off_c, 0, 57, 64
2, 25622, Control_c, 0, 64, 0
2, 25660, Control_c, 0, 64, 127
2, 25706, Control_c, 0, 64, 0
2, 25730, Control_c, 0, 64, 127
2, 25779, Note_on_c, 0, 64, 41
2, 25783, Note_on_c, 0, 57, 40
2, 25789, Note_on_c, 0, 52, 38
2, 25862, Note_off_c, 0, 57, 64
2, 25864, Note_off_c, 0, 52, 64
2, 25865, Note_off_c, 0, 64, 64
2, 25966, Control_c, 0, 64, 0
2, 25979, Control_c, 0, 64, 127
2, 25982, Note_on_c, 0, 57, 32
2, 25986, Note_on_c, 0, 52, 27
2, 25990, Note_on_c, 0, 74, 72
2, 25997, Note_on_c, 0, 64, 25
2, 26009, Note_off_c, 0, 73, 64
2, 26166, Note_off_c, 0, 64, 64
2, 26166, Note_on_c, 0, 73, 78
2, 26168, Note_off_c, 0, 57, 64
2, 26179, Note_off_c, 0, 52, 64
2, 26185, Note_off_c, 0, 74, 64
2, 26241, Note_on_c, 0, 70, 78
2, 26254, Control_c, 0, 64, 0
2, 26269, Note_off_c, 0, 73, 64
2, 26292, Control_c, 0, 64, 127
2, 26320, Note_on_c, 0, 64, 25
2, 26323, Note_on_c, 0, 56, 41
2, 26326, Note_on_c, 0, 71, 58
2, 26326, Note_on_c, 0, 52, 40
2, 26328, Note_on_c, 0, 62, 22
2, 26338, Note_off_c, 0, 70, 64
2, 26396, Note_on_c, 0, 74, 66
2, 26414, Note_off_c, 0, 64, 64
2, 26417, Note_off_c, 0, 56, 64
2, 26420, Note_off_c, 0, 52, 64
2, 26422, Note_off_c, 0, 62, 64
2, 26454, Note_off_c, 0, 71, 64
2, 26464, Note_on_c, 0, 64, 12
2, 26472, Note_on_c, 0, 62, 27
2, 26472, Note_on_c, 0, 56, 40
2, 26472, Note_on_c, 0, 52, 33
2, 26474, Note_on_c, 0, 78, 78
2, 26483, Control_c, 0, 64, 0
2, 26513, Note_off_c, 0, 74, 64
2, 26513, Control_c, 0, 64, 127
2, 26555, Note_on_c, 0, 76, 72
2, 26558, Note_off_c, 0, 64, 64
2, 26566, Note_off_c, 0, 78, 64
2, 26566, Note_off_c, 0, 52, 64
2, 26566, Note_off_c, 0, 56, 64
2, 26566, Note_off_c, 0, 62, 64
2, 26637, Control_c, 0, 64, 0
2, 26643, Note_on_c, 0, 71, 72
2, 26664, Control_c, 0, 64, 127
2, 26667, Note_off_c, 0, 76, 64
2, 26792, Note_on_c, 0, 64, 25
2, 26792, Note_on_c, 0, 56, 41
2, 26800, Note_on_c, 0, 62, 22
2, 26800, Note_on_c, 0, 52, 40
2, 26886, Note_off_c, 0, 56, 64
2, 26886, Note_off_c, 0, 64, 64
2, 26894, Note_off_c, 0, 52, 64
2, 26894, Note_off_c, 0, 62, 64
2, 26952, Note_on_c, 0, 62, 19
2, 26960, Note_on_c, 0, 64, 22
2, 26960, Note_on_c, 0, 56, 42
2, 26962, Note_on_c, 0, 73, 71
2, 26962, Note_on_c, 0, 52, 36
2, 27046, Note_off_c, 0, 62, 64
2, 27049, Note_off_c, 0, 71, 64
2, 27054, Note_off_c, 0, 56, 64
2, 27054, Note_off_c, 0, 64, 64
2, 27056, Note_off_c, 0, 52, 64
2, 27112, Note_on_c, 0, 45, 66
2, 27115, Control_c, 0, 64, 0
2, 27118, Note_on_c, 0, 71, 58
2, 27145, Control_c, 0, 64, 127
2, 27157, Control_c, 0, 64, 0
2, 27191, Control_c, 0, 64, 127
2, 27193, Note_off_c, 0, 73, 64
2, 27216, Note_on_c, 0, 68, 71
2, 27269, Control_c, 0, 64, 0
2, 27280, Note_off_c, 0, 71, 64
2, 27296, Control_c, 0, 64, 127
2, 27296, Note_on_c, 0, 61, 40
2, 27307, Note_on_c, 0, 69, 78
2, 27307, Note_on_c, 0, 52, 33
2, 27337, Note_off_c, 0, 68, 64
2, 27343, Note_off_c, 0, 45, 64
2, 27385, Note_on_c, 0, 71, 66
2, 27390, Note_off_c, 0, 61, 64
2, 27401, Note_off_c, 0, 52, 64
2, 27422, Note_off_c, 0, 69, 64
2, 27472, Note_on_c, 0, 61, 41
2, 27475, Note_on_c, 0, 73, 70
2, 27488, Note_on_c, 0, 52, 41
2, 27550, Note_off_c, 0, 71, 64
2, 27560, Note_on_c, 0, 64, 62
2, 27566, Note_off_c, 0, 61, 64
2, 27582, Note_off_c, 0, 52, 64
2, 27636, Note_off_c, 0, 73, 64
2, 27658, Note_on_c, 0, 44, 53
2, 27665, Note_on_c, 0, 76, 82
2, 27676, Control_c, 0, 64, 0
2, 27700, Control_c, 0, 64, 127
2, 27723, Note_off_c, 0, 64, 64
2, 27789, Control_c, 0, 64, 0
2, 27823, Control_c, 0, 64, 127
2, 27871, Note_on_c, 0, 68, 66
2, 27874, Note_on_c, 0, 56, 27
2, 27882, Note_on_c, 0, 61, 33
2, 27951, Note_off_c, 0, 44, 64
2, 27965, Note_off_c, 0, 68, 64
2, 27968, Note_off_c, 0, 56, 64
2, 27976, Note_off_c, 0, 61, 64
2, 28044, Note_on_c, 0, 68, 40
2, 28044, Note_on_c, 0, 56, 41
2, 28048, Note_on_c, 0, 61, 41
2, 28050, Note_on_c, 0, 78, 78
2, 28082, Note_off_c, 0, 76, 64
2, 28138, Note_off_c, 0, 56, 64
2, 28138, Note_off_c, 0, 68, 64
2, 28142, Note_off_c, 0, 61, 64
2, 28208, Note_on_c, 0, 76, 81
2, 28233, Note_off_c, 0, 78, 64
2, 28281, Note_on_c, 0, 74, 78
2, 28308, Control_c, 0, 64, 0
2, 28321, Note_off_c, 0, 76, 64
2, 28332, Control_c, 0, 64, 127
2, 28356, Note_on_c, 0, 75, 75
2, 28368, Note_on_c, 0, 68, 50
2, 28368, Note_on_c, 0, 60, 40
2, 28375, Note_off_c, 0, 74, 64
2, 28376, Note_on_c, 0, 66, 51
2, 28378, Note_on_c, 0, 56, 27
2, 28434, Note_on_c, 0, 78, 87
2, 28462, Note_off_c, 0, 60, 64
2, 28462, Note_off_c, 0, 68, 64
2, 28470, Note_off_c, 0, 66, 64
2, 28472, Note_off_c, 0, 56, 64
2, 28479, Note_off_c, 0, 75, 64
2, 28507, Note_on_c, 0, 81, 81
2, 28519, Note_on_c, 0, 66, 33
2, 28520, Note_on_c, 0, 68, 32
2, 28526, Note_off_c, 0, 78, 64
2, 28528, Note_on_c, 0, 60, 22
2, 28530, Control_c, 0, 64, 0
2, 28539, Note_on_c, 0, 56, 41
2, 28540, Control_c, 0, 64, 127
2, 28585, Note_on_c, 0, 80, 77
2, 28600, Note_off_c, 0, 81, 64
2, 28613, Note_off_c, 0, 66, 64
2, 28614, Note_off_c, 0, 68, 64
2, 28622, Note_off_c, 0, 60, 64
2, 28633, Note_off_c, 0, 56, 64
2, 28667, Note_on_c, 0, 75, 88
2, 28674, Control_c, 0, 64, 0
2, 28694, Note_off_c, 0, 80, 64
2, 28697, Control_c, 0, 64, 127
2, 28824, Note_on_c, 0, 68, 38
2, 28824, Note_on_c, 0, 60, 25
2, 28827, Note_on_c, 0, 66, 50
2, 28836, Note_on_c, 0, 56, 32
2, 28918, Note_off_c, 0, 60, 64
2, 28918, Note_off_c, 0, 68, 64
2, 28921, Note_off_c, 0, 66, 64
2, 28930, Note_off_c, 0, 56, 64
2, 28992, Note_on_c, 0, 66, 50
2, 29000, Note_on_c, 0, 60, 25
2, 29001, Note_on_c, 0, 68, 38
2, 29007, Note_on_c, 0, 76, 78
2, 29007, Note_on_c, 0, 56, 50
2, 29084, Note_off_c, 0, 75, 64
2, 29086, Note_off_c, 0, 66, 64
2, 29094, Note_off_c, 0, 60, 64
2, 29095, Note_off_c, 0, 68, 64
2, 29101, Note_off_c, 0, 56, 64
2, 29162, Control_c, 0, 64, 0
2, 29172, Control_c, 0, 64, 127
2, 29197, Note_on_c, 0, 75, 63
2, 29197, Note_on_c, 0, 49, 69
2, 29216, Control_c, 0, 64, 0
2, 29228, Control_c, 0, 64, 127
2, 29259, Note_off_c, 0, 76, 64
2, 29288, Note_on_c, 0, 73, 78
2, 29302, Note_off_c, 0, 75, 64
2, 29306, Control_c, 0, 64, 0
2, 29329, Control_c, 0, 64, 127
2, 29335, Note_off_c, 0, 73, 64
2, 29370, Note_on_c, 0, 73, 78
2, 29404, Note_on_c, 0, 56, 38
2, 29412, Note_on_c, 0, 78, 79
2, 29412, Note_on_c, 0, 61, 29
2, 29413, Note_on_c, 0, 64, 36
2, 29439, Note_off_c, 0, 73, 64
2, 29485, Note_off_c, 0, 49, 64
2, 29498, Note_off_c, 0, 56, 64
2, 29500, Note_on_c, 0, 76, 70
2, 29506, Note_off_c, 0, 61, 64
2, 29507, Note_off_c, 0, 64, 64
2, 29529, Note_off_c, 0, 78, 64
2, 29619, Note_on_c, 0, 75, 72
2, 29622, Note_on_c, 0, 68, 63
2, 29622, Note_on_c, 0, 52, 45
2, 29624, Note_on_c, 0, 59, 45
2, 29631, Note_on_c, 0, 62, 24
2, 29635, Note_on_c, 0, 64, 27
2, 29642, Note_off_c, 0, 76, 64
2, 29644, Control_c, 0, 64, 0
2, 29677, Control_c, 0, 64, 127
2, 29716, Note_off_c, 0, 52, 64
2, 29718, Note_off_c, 0, 59, 64
2, 29725, Note_off_c, 0, 62, 64
2, 29726, Note_on_c, 0, 74, 79
2, 29729, Note_off_c, 0, 64, 64
2, 29746, Note_off_c, 0, 75, 64
2, 29824, Note_on_c, 0, 45, 69
2, 29847, Note_on_c, 0, 73, 81
2, 29848, Control_c, 0, 64, 0
2, 29860, Control_c, 0, 64, 127
2, 29864, Control_c, 0, 64, 0
2, 29896, Note_off_c, 0, 74, 64
2, 29920, Control_c, 0, 64, 0
2, 29923, Control_c, 0, 64, 127
2, 29932, Control_c, 0, 64, 127
2, 29970, Note_off_c, 0, 68, 64
2, 30040, Note_on_c, 0, 64, 22
2, 30044, Note_on_c, 0, 67, 55
2, 30044, Note_on_c, 0, 57, 36
2, 30112, Note_off_c, 0, 45, 64
2, 30134, Note_off_c, 0, 64, 64
2, 30138, Note_off_c, 0, 57, 64
2, 30199, Note_off_c, 0, 67, 64
2, 30216, Note_on_c, 0, 64, 29
2, 30218, Note_on_c, 0, 74, 69
2, 30220, Note_on_c, 0, 67, 55
2, 30220, Note_on_c, 0, 57, 45
2, 30248, Note_off_c, 0, 73, 64
2, 30276, Control_c, 0, 64, 0
2, 30309, Control_c, 0, 64, 127
2, 30310, Note_off_c, 0, 64, 64
2, 30314, Note_off_c, 0, 57, 64
2, 30375, Note_on_c, 0, 50, 47
2, 30379, Note_on_c, 0, 73, 70
2, 30397, Note_off_c, 0, 74, 64
2, 30404, Control_c, 0, 64, 0
2, 30438, Control_c, 0, 64, 127
2, 30453, Note_on_c, 0, 70, 73
2, 30459, Note_off_c, 0, 67, 64
2, 30487, Note_off_c, 0, 73, 64
2, 30496, Control_c, 0, 64, 0
2, 30542, Note_on_c, 0, 66, 56
2, 30548, Note_on_c, 0, 62, 28
2, 30548, Note_on_c, 0, 59, 45
2, 30548, Note_on_c, 0, 57, 45
2, 30552, Control_c, 0, 64, 0
2, 30552, Note_on_c, 0, 71, 69
2, 30555, Control_c, 0, 64, 127
2, 30564, Control_c, 0, 64, 127
2, 30578, Note_off_c, 0, 70, 64
2, 30626, Note_on_c, 0, 74, 59
2, 30642, Note_off_c, 0, 57, 64
2, 30642, Note_off_c, 0, 59, 64
2, 30642, Note_off_c, 0, 62, 64
2, 30649, Note_off_c, 0, 71, 64
2, 30688, Note_on_c, 0, 62, 29
2, 30688, Note_on_c, 0, 57, 22
2, 30689, Note_off_c, 0, 66, 64
2, 30696, Note_on_c, 0, 80, 70
2, 30696, Note_on_c, 0, 59, 19
2, 30704, Note_on_c, 0, 66, 62
2, 30709, Control_c, 0, 64, 0
2, 30718, Note_off_c, 0, 74, 64
2, 30741, Control_c, 0, 64, 127
2, 30748, Note_off_c, 0, 50, 64
2, 30782, Note_off_c, 0, 57, 64
2, 30782, Note_off_c, 0, 62, 64
2, 30790, Note_off_c, 0, 59, 64
2, 30792, Note_on_c, 0, 78, 54
2, 30814, Note_off_c, 0, 80, 64
2, 30865, Note_on_c, 0, 71, 80
2, 30878, Control_c, 0, 64, 0
2, 30891, Control_c, 0, 64, 127
2, 30924, Note_off_c, 0, 78, 64
2, 30943, Note_off_c, 0, 66, 64
2, 31024, Note_on_c, 0, 62, 36
2, 31026, Note_on_c, 0, 52, 45
2, 31027, Note_on_c, 0, 57, 34
2, 31028, Note_on_c, 0, 65, 47
2, 31036, Control_c, 0, 64, 0
2, 31043, Control_c, 0, 64, 0
2, 31061, Control_c, 0, 64, 127
2, 31070, Control_c, 0, 64, 127
2, 31118, Note_off_c, 0, 62, 64
2, 31120, Note_off_c, 0, 52, 64
2, 31121, Note_off_c, 0, 57, 64
2, 31210, Note_on_c, 0, 73, 69
2, 31216, Note_on_c, 0, 62, 28
2, 31216, Note_on_c, 0, 56, 28
2, 31217, Note_on_c, 0, 52, 36
2, 31222, Note_on_c, 0, 64, 44
2, 31240, Control_c, 0, 64, 0
2, 31243, Note_off_c, 0, 65, 64
2, 31253, Control_c, 0, 64, 127
2, 31291, Note_off_c, 0, 71, 64
2, 31310, Note_off_c, 0, 56, 64
2, 31310, Note_off_c, 0, 62, 64
2, 31311, Note_off_c, 0, 52, 64
2, 31341, Control_c, 0, 64, 0
2, 31373, Control_c, 0, 64, 127
2, 31408, Note_on_c, 0, 71, 70
2, 31412, Note_on_c, 0, 45, 59
2, 31423, Note_off_c, 0, 73, 64
2, 31427, Note_off_c, 0, 64, 64
2, 31435, Control_c, 0, 64, 0
2, 31478, Control_c, 0, 64, 127
2, 31503, Note_on_c, 0, 68, 55
2, 31510, Control_c, 0, 64, 0
2, 31523, Control_c, 0, 64, 127
2, 31534, Note_off_c, 0, 71, 64
2, 31577, Note_on_c, 0, 61, 36
2, 31579, Note_on_c, 0, 52, 45
2, 31585, Note_on_c, 0, 69, 63
2, 31593, Control_c, 0, 64, 0
2, 31617, Note_off_c, 0, 68, 64
2, 31629, Control_c, 0, 64, 127
2, 31661, Note_on_c, 0, 71, 59
2, 31671, Note_off_c, 0, 61, 64
2, 31673, Note_off_c, 0, 52, 64
2, 31675, Control_c, 0, 64, 0
2, 31684, Note_off_c, 0, 69, 64
2, 31690, Note_off_c, 0, 45, 64
2, 31693, Control_c, 0, 64, 127
2, 31742, Note_on_c, 0, 73, 70
2, 31775, Note_off_c, 0, 71, 64
2, 31811, Note_on_c, 0, 64, 69
2, 31872, Control_c, 0, 64, 0
2, 31885, Control_c, 0, 64, 127
2, 31891, Note_off_c, 0, 73, 64
2, 31897, Control_c, 0, 64, 0
2, 31904, Note_on_c, 0, 38, 59
2, 31907, Note_on_c, 0, 66, 63
2, 31920, Note_off_c, 0, 64, 64
2, 31926, Control_c, 0, 64, 127
2, 31984, Note_on_c, 0, 68, 78
2, 32008, Note_off_c, 0, 66, 64
2, 32056, Note_on_c, 0, 69, 64
2, 32067, Control_c, 0, 64, 0
2, 32100, Note_off_c, 0, 68, 64
2, 32110, Control_c, 0, 64, 127
2, 32148, Note_on_c, 0, 71, 69
2, 32171, Note_off_c, 0, 69, 64
2, 32189, Note_off_c, 0, 38, 64
2, 32205, Note_on_c, 0, 66, 51
2, 32208, Note_on_c, 0, 59, 29
2, 32208, Note_on_c, 0, 57, 47
2, 32215, Note_on_c, 0, 73, 70
2, 32216, Note_on_c, 0, 66, 59
2, 32225, Control_c, 0, 64, 0
2, 32243, Note_off_c, 0, 71, 64
2, 32261, Control_c, 0, 64, 127
2, 32299, Note_off_c, 0, 66, 64
2, 32302, Note_off_c, 0, 57, 64
2, 32302, Note_off_c, 0, 59, 64
2, 32305, Note_on_c, 0, 74, 63
2, 32310, Note_off_c, 0, 66, 64
2, 32342, Note_off_c, 0, 73, 64
2, 32392, Control_c, 0, 64, 0
2, 32403, Note_on_c, 0, 75, 78
2, 32404, Note_on_c, 0, 52, 69
2, 32431, Control_c, 0, 64, 127
2, 32437, Note_off_c, 0, 74, 64
2, 32493, Note_on_c, 0, 78, 63
2, 32516, Note_off_c, 0, 75, 64
2, 32529, Control_c, 0, 64, 0
2, 32558, Control_c, 0, 64, 127
2, 32577, Note_on_c, 0, 76, 73
2, 32584, Note_on_c, 0, 69, 47
2, 32585, Note_on_c, 0, 61, 59
2, 32588, Note_on_c, 0, 64, 27
2, 32611, Note_off_c, 0, 78, 64
2, 32655, Note_on_c, 0, 80, 64
2, 32671, Note_off_c, 0, 76, 64
2, 32697, Note_off_c, 0, 52, 64
2, 32744, Note_on_c, 0, 81, 78
2, 32773, Note_off_c, 0, 80, 64
2, 32779, Control_c, 0, 64, 0
2, 32830, Control_c, 0, 64, 127
2, 32845, Note_off_c, 0, 64, 64
2, 32848, Note_off_c, 0, 69, 64
2, 32858, Note_on_c, 0, 85, 79
2, 32862, Note_off_c, 0, 61, 64
2, 32882, Note_off_c, 0, 81, 64
2, 32938, Note_off_c, 0, 85, 64
2, 33024, Control_c, 0, 64, 0
2, 33063, Control_c, 0, 64, 127
2, 33076, Note_on_c, 0, 78, 66
2, 33082, Note_on_c, 0, 40, 58
2, 33090, Control_c, 0, 64, 0
2, 33130, Control_c, 0, 64, 127
2, 33208, Note_on_c, 0, 80, 45
2, 33213, Note_off_c, 0, 78, 64
2, 33251, Note_on_c, 0, 78, 66
2, 33266, Note_off_c, 0, 80, 64
2, 33280, Note_on_c, 0, 52, 45
2, 33285, Note_on_c, 0, 62, 45
2, 33290, Note_on_c, 0, 76, 66
2, 33295, Control_c, 0, 64, 0
2, 33308, Control_c, 0, 64, 127
2, 33326, Note_off_c, 0, 78, 64
2, 33374, Note_off_c, 0, 52, 64
2, 33377, Note_on_c, 0, 68, 65
2, 33379, Note_off_c, 0, 62, 64
2, 33381, Note_off_c, 0, 40, 64
2, 33407, Note_off_c, 0, 76, 64
2, 33411, Control_c, 0, 64, 0
2, 33447, Note_on_c, 0, 62, 60
2, 33447, Note_on_c, 0, 52, 58
2, 33455, Note_on_c, 0, 73, 47
2, 33462, Control_c, 0, 64, 127
2, 33470, Note_off_c, 0, 68, 64
2, 33532, Note_on_c, 0, 64, 72
2, 33541, Note_off_c, 0, 52, 64
2, 33541, Note_off_c, 0, 62, 64
2, 33546, Note_off_c, 0, 73, 64
2, 33579, Note_off_c, 0, 64, 64
2, 33622, Note_on_c, 0, 64, 60
2, 33622, Note_on_c, 0, 45, 56
2, 33635, Control_c, 0, 64, 0
2, 33667, Control_c, 0, 64, 127
2, 33701, Note_on_c, 0, 69, 60
2, 33722, Control_c, 0, 64, 0
2, 33749, Note_off_c, 0, 64, 64
2, 33753, Note_off_c, 0, 69, 64
2, 33762, Control_c, 0, 64, 127
2, 33784, Note_on_c, 0, 69, 58
2, 33789, Note_on_c, 0, 61, 40
2, 33794, Note_on_c, 0, 52, 40
2, 33883, Note_off_c, 0, 61, 64
2, 33888, Note_off_c, 0, 52, 64
2, 33897, Note_off_c, 0, 45, 64
2, 33927, Control_c, 0, 64, 0
2, 33940, Control_c, 0, 64, 127
2, 33953, Note_on_c, 0, 61, 33
2, 33968, Note_on_c, 0, 52, 33
2, 34047, Note_off_c, 0, 61, 64
2, 34062, Note_off_c, 0, 52, 64
2, 34063, Note_off_c, 0, 69, 64
2, 34132, Note_on_c, 0, 73, 62
2, 34172, Control_c, 0, 64, 0
2, 34234, Control_c, 0, 64, 127
2, 34267, Control_c, 0, 64, 0
2, 34299, Control_c, 0, 64, 127
2, 34360, Note_on_c, 0, 52, 25
2, 34362, Note_on_c, 0, 64, 21
2, 34367, Note_on_c, 0, 57, 25
2, 34454, Note_off_c, 0, 52, 64
2, 34456, Note_off_c, 0, 64, 64
2, 34461, Note_off_c, 0, 57, 64
2, 34609, Note_on_c, 0, 64, 31
2, 34612, Note_on_c, 0, 74, 56
2, 34617, Note_on_c, 0, 52, 25
2, 34620, Note_on_c, 0, 57, 21
2, 34655, Control_c, 0, 64, 0
2, 34680, Note_off_c, 0, 73, 64
2, 34686, Control_c, 0, 64, 127
2, 34703, Note_off_c, 0, 64, 64
2, 34711, Note_off_c, 0, 52, 64
2, 34714, Note_off_c, 0, 57, 64
2, 34804, Control_c, 0, 64, 0
2, 34820, Note_on_c, 0, 73, 61
2, 34841, Note_off_c, 0, 74, 64
2, 34866, Control_c, 0, 64, 127
2, 34889, Note_on_c, 0, 70, 76
2, 34926, Note_off_c, 0, 73, 64
2, 34964, Note_on_c, 0, 56, 51
2, 34973, Note_on_c, 0, 52, 43
2, 34976, Note_on_c, 0, 71, 73
2, 34983, Note_on_c, 0, 64, 31
2, 34983, Note_on_c, 0, 62, 25
2, 34986, Note_off_c, 0, 70, 64
2, 35042, Note_on_c, 0, 74, 76
2, 35058, Note_off_c, 0, 56, 64
2, 35067, Note_off_c, 0, 52, 64
2, 35077, Note_off_c, 0, 62, 64
2, 35077, Note_off_c, 0, 64, 64
2, 35102, Note_off_c, 0, 71, 64
2, 35117, Note_on_c, 0, 78, 71
2, 35120, Note_on_c, 0, 56, 25
2, 35126, Note_on_c, 0, 52, 25
2, 35126, Control_c, 0, 64, 0
2, 35133, Note_on_c, 0, 64, 21
2, 35139, Note_on_c, 0, 62, 21
2, 35155, Note_off_c, 0, 74, 64
2, 35157, Control_c, 0, 64, 127
2, 35188, Note_on_c, 0, 76, 71
2, 35205, Note_off_c, 0, 78, 64
2, 35214, Note_off_c, 0, 56, 64
2, 35220, Note_off_c, 0, 52, 64
2, 35227, Note_off_c, 0, 64, 64
2, 35233, Note_off_c, 0, 62, 64
2, 35264, Control_c, 0, 64, 0
2, 35271, Note_on_c, 0, 71, 76
2, 35287, Control_c, 0, 64, 0
2, 35297, Control_c, 0, 64, 127
2, 35304, Note_off_c, 0, 76, 64
2, 35318, Control_c, 0, 64, 127
2, 35418, Note_on_c, 0, 52, 31
2, 35421, Note_on_c, 0, 62, 25
2, 35423, Note_on_c, 0, 64, 31
2, 35432, Note_on_c, 0, 56, 43
2, 35512, Note_off_c, 0, 52, 64
2, 35515, Note_off_c, 0, 62, 64
2, 35517, Note_off_c, 0, 64, 64
2, 35526, Note_off_c, 0, 56, 64
2, 35591, Note_on_c, 0, 52, 38
2, 35592, Note_on_c, 0, 62, 27
2, 35595, Note_on_c, 0, 73, 70
2, 35595, Note_on_c, 0, 64, 31
2, 35597, Note_on_c, 0, 56, 35
2, 35625, Note_off_c, 0, 71, 64
2, 35685, Note_off_c, 0, 52, 64
2, 35686, Note_off_c, 0, 62, 64
2, 35689, Note_off_c, 0, 64, 64
2, 35691, Note_off_c, 0, 56, 64
2, 35758, Control_c, 0, 64, 0
2, 35771, Note_on_c, 0, 45, 63
2, 35776, Note_on_c, 0, 71, 61
2, 35789, Control_c, 0, 64, 127
2, 35789, Control_c, 0, 64, 0
2, 35820, Note_off_c, 0, 73, 64
2, 35834, Control_c, 0, 64, 127
2, 35856, Note_on_c, 0, 68, 74
2, 35896, Note_off_c, 0, 71, 64
2, 35896, Control_c, 0, 64, 0
2, 35927, Note_on_c, 0, 61, 38
2, 35929, Control_c, 0, 64, 127
2, 35935, Note_on_c, 0, 69, 74
2, 35936, Note_on_c, 0, 52, 45
2, 35971, Note_off_c, 0, 68, 64
2, 35989, Note_off_c, 0, 45, 64
2, 36001, Note_on_c, 0, 71, 68
2, 36021, Note_off_c, 0, 61, 64
2, 36030, Note_off_c, 0, 52, 64
2, 36037, Note_off_c, 0, 69, 64
2, 36076, Note_on_c, 0, 73, 74
2, 36086, Note_on_c, 0, 61, 36
2, 36108, Note_on_c, 0, 52, 36
2, 36134, Note_off_c, 0, 71, 64
2, 36151, Note_on_c, 0, 64, 68
2, 36180, Note_off_c, 0, 61, 64
2, 36197, Note_off_c, 0, 73, 64
2, 36202, Note_off_c, 0, 52, 64
2, 36244, Note_on_c, 0, 44, 75
2, 36256, Note_on_c, 0, 76, 87
2, 36266, Control_c, 0, 64, 0
2, 36286, Note_off_c, 0, 64, 64
2, 36309, Control_c, 0, 64, 127
2, 36421, Control_c, 0, 64, 0
2, 36456, Note_on_c, 0, 56, 21
2, 36460, Note_on_c, 0, 68, 25
2, 36462, Note_on_c, 0, 61, 35
2, 36466, Control_c, 0, 64, 127
2, 36538, Note_off_c, 0, 44, 64
2, 36550, Note_off_c, 0, 56, 64
2, 36554, Note_off_c, 0, 68, 64
2, 36556, Note_off_c, 0, 61, 64
2, 36597, Note_on_c, 0, 78, 78
2, 36606, Note_on_c, 0, 68, 43
2, 36607, Note_on_c, 0, 61, 51
2, 36610, Note_on_c, 0, 56, 31
2, 36612, Note_off_c, 0, 76, 64
2, 36700, Note_off_c, 0, 68, 64
2, 36701, Note_off_c, 0, 61, 64
2, 36704, Note_off_c, 0, 56, 64
2, 36757, Control_c, 0, 64, 0
2, 36760, Note_on_c, 0, 76, 87
2, 36780, Control_c, 0, 64, 127
2, 36792, Note_off_c, 0, 78, 64
2, 36833, Note_on_c, 0, 74, 76
2, 36858, Note_off_c, 0, 76, 64
2, 36898, Control_c, 0, 64, 0
2, 36908, Note_on_c, 0, 68, 51
2, 36908, Note_on_c, 0, 66, 43
2, 36910, Note_on_c, 0, 75, 76
2, 36917, Note_on_c, 0, 60, 40
2, 36923, Note_on_c, 0, 56, 25
2, 36931, Note_off_c, 0, 74, 64
2, 36941, Control_c, 0, 64, 127
2, 36977, Note_on_c, 0, 78, 83
2, 37002, Note_off_c, 0, 66, 64
2, 37002, Note_off_c, 0, 68, 64
2, 37011, Note_off_c, 0, 60, 64
2, 37012, Note_off_c, 0, 75, 64
2, 37017, Note_off_c, 0, 56, 64
2, 37047, Note_on_c, 0, 68, 40
2, 37052, Note_on_c, 0, 81, 83
2, 37055, Note_on_c, 0, 66, 41
2, 37056, Note_on_c, 0, 60, 31
2, 37061, Note_on_c, 0, 56, 25
2, 37072, Note_off_c, 0, 78, 64
2, 37119, Note_on_c, 0, 80, 87
2, 37134, Note_off_c, 0, 81, 64
2, 37141, Note_off_c, 0, 68, 64
2, 37149, Note_off_c, 0, 66, 64
2, 37150, Note_off_c, 0, 60, 64
2, 37155, Note_off_c, 0, 56, 64
2, 37202, Note_on_c, 0, 75, 91
2, 37214, Control_c, 0, 64, 0
2, 37221, Note_off_c, 0, 80, 64
2, 37240, Control_c, 0, 64, 127
2, 37348, Note_on_c, 0, 68, 51
2, 37352, Note_on_c, 0, 56, 21
2, 37353, Note_on_c, 0, 66, 51
2, 37358, Note_on_c, 0, 60, 40
2, 37389, Control_c, 0, 64, 0
2, 37412, Control_c, 0, 64, 127
2, 37442, Note_off_c, 0, 68, 64
2, 37446, Note_off_c, 0, 56, 64
2, 37447, Note_off_c, 0, 66, 64
2, 37452, Note_off_c, 0, 60, 64
2, 37494, Note_on_c, 0, 68, 53
2, 37496, Note_on_c, 0, 66, 53
2, 37504, Note_on_c, 0, 76, 83
2, 37504, Note_on_c, 0, 60, 25
2, 37507, Note_on_c, 0, 56, 41
2, 37526, Note_off_c, 0, 75, 64
2, 37588, Note_off_c, 0, 68, 64
2, 37590, Note_off_c, 0, 66, 64
2, 37598, Note_off_c, 0, 60, 64
2, 37601, Note_off_c, 0, 56, 64
2, 37659, Note_on_c, 0, 75, 78
2, 37659, Note_on_c, 0, 49, 69
2, 37670, Control_c, 0, 64, 0
2, 37682, Control_c, 0, 64, 127
2, 37690, Note_off_c, 0, 76, 64
2, 37741, Note_on_c, 0, 73, 86
2, 37757, Note_off_c, 0, 75, 64
2, 37780, Note_off_c, 0, 73, 64
2, 37814, Note_on_c, 0, 73, 63
2, 37840, Note_on_c, 0, 61, 47
2, 37846, Control_c, 0, 64, 0
2, 37847, Note_on_c, 0, 78, 96
2, 37849, Note_on_c, 0, 56, 22
2, 37854, Note_on_c, 0, 64, 31
2, 37872, Control_c, 0, 64, 127
2, 37873, Control_c, 0, 64, 0
2, 37883, Note_off_c, 0, 73, 64
2, 37911, Control_c, 0, 64, 127
2, 37934, Note_off_c, 0, 61, 64
2, 37936, Note_on_c, 0, 76, 87
2, 37943, Note_off_c, 0, 56, 64
2, 37948, Note_off_c, 0, 64, 64
2, 37949, Note_off_c, 0, 49, 64
2, 37960, Note_off_c, 0, 78, 64
2, 38046, Note_on_c, 0, 68, 64
2, 38048, Note_on_c, 0, 52, 45
2, 38050, Note_on_c, 0, 75, 63
2, 38056, Note_on_c, 0, 64, 18
2, 38056, Note_on_c, 0, 62, 18
2, 38056, Note_on_c, 0, 59, 31
2, 38069, Control_c, 0, 64, 0
2, 38074, Note_off_c, 0, 76, 64
2, 38093, Control_c, 0, 64, 127
2, 38140, Note_on_c, 0, 74, 74
2, 38142, Note_off_c, 0, 52, 64
2, 38150, Note_off_c, 0, 59, 64
2, 38150, Note_off_c, 0, 62, 64
2, 38150, Note_off_c, 0, 64, 64
2, 38160, Note_off_c, 0, 75, 64
2, 38248, Note_on_c, 0, 45, 67
2, 38258, Note_off_c, 0, 68, 64
2, 38258, Note_on_c, 0, 73, 81
2, 38278, Control_c, 0, 64, 0
2, 38288, Note_off_c, 0, 74, 64
2, 38302, Control_c, 0, 64, 0
2, 38311, Control_c, 0, 64, 127
2, 38314, Control_c, 0, 64, 127
2, 38436, Note_on_c, 0, 67, 57
2, 38438, Note_on_c, 0, 64, 47
2, 38442, Note_on_c, 0, 57, 45
2, 38505, Control_c, 0, 64, 0
2, 38532, Note_off_c, 0, 64, 64
2, 38536, Note_off_c, 0, 57, 64
2, 38543, Control_c, 0, 64, 127
2, 38555, Note_off_c, 0, 45, 64
2, 38569, Note_off_c, 0, 67, 64
2, 38593, Note_on_c, 0, 64, 36
2, 38602, Note_on_c, 0, 74, 78
2, 38603, Note_on_c, 0, 67, 44
2, 38607, Note_on_c, 0, 57, 36
2, 38625, Note_off_c, 0, 73, 64
2, 38687, Note_off_c, 0, 64, 64
2, 38701, Note_off_c, 0, 57, 64
2, 38701, Control_c, 0, 64, 0
2, 38725, Control_c, 0, 64, 127
2, 38749, Note_on_c, 0, 50, 58
2, 38752, Note_on_c, 0, 73, 72
2, 38766, Control_c, 0, 64, 0
2, 38773, Note_off_c, 0, 74, 64
2, 38790, Control_c, 0, 64, 127
2, 38831, Note_on_c, 0, 70, 57
2, 38842, Note_off_c, 0, 67, 64
2, 38881, Note_off_c, 0, 73, 64
2, 38910, Control_c, 0, 64, 0
2, 38912, Note_on_c, 0, 66, 64
2, 38914, Note_on_c, 0, 59, 47
2, 38914, Note_on_c, 0, 57, 38
2, 38920, Note_on_c, 0, 62, 31
2, 38924, Note_on_c, 0, 71, 81
2, 38943, Control_c, 0, 64, 127
2, 38947, Note_off_c, 0, 70, 64
2, 38992, Note_on_c, 0, 74, 41
2, 39008, Note_off_c, 0, 57, 64
2, 39008, Note_off_c, 0, 59, 64
2, 39014, Note_off_c, 0, 62, 64
2, 39049, Note_off_c, 0, 71, 64
2, 39061, Note_off_c, 0, 66, 64
2, 39064, Note_on_c, 0, 80, 73
2, 39080, Note_on_c, 0, 66, 64
2, 39084, Note_on_c, 0, 59, 25
2, 39087, Note_on_c, 0, 62, 22
2, 39087, Note_on_c, 0, 57, 27
2, 39097, Note_off_c, 0, 50, 64
2, 39098, Note_off_c, 0, 74, 64
2, 39160, Note_on_c, 0, 78, 64
2, 39178, Note_off_c, 0, 59, 64
2, 39179, Note_off_c, 0, 80, 64
2, 39181, Note_off_c, 0, 57, 64
2, 39181, Note_off_c, 0, 62, 64
2, 39221, Note_on_c, 0, 71, 82
2, 39240, Control_c, 0, 64, 0
2, 39263, Control_c, 0, 64, 127
2, 39266, Note_off_c, 0, 78, 64
2, 39319, Note_off_c, 0, 66, 64
2, 39365, Note_on_c, 0, 65, 50
2, 39365, Note_on_c, 0, 62, 36
2, 39371, Note_on_c, 0, 57, 31
2, 39374, Note_on_c, 0, 52, 25
2, 39388, Control_c, 0, 64, 0
2, 39398, Control_c, 0, 64, 0
2, 39401, Control_c, 0, 64, 127
2, 39422, Control_c, 0, 64, 127
2, 39459, Note_off_c, 0, 62, 64
2, 39465, Note_off_c, 0, 57, 64
2, 39468, Note_off_c, 0, 52, 64
2, 39523, Note_on_c, 0, 73, 72
2, 39531, Note_on_c, 0, 56, 45
2, 39533, Note_on_c, 0, 64, 44
2, 39533, Note_on_c, 0, 62, 36
2, 39538, Note_on_c, 0, 52, 36
2, 39549, Note_off_c, 0, 71, 64
2, 39556, Note_off_c, 0, 65, 64
2, 39625, Note_off_c, 0, 56, 64
2, 39627, Note_off_c, 0, 62, 64
2, 39632, Note_off_c, 0, 52, 64
2, 39698, Note_on_c, 0, 45, 72
2, 39700, Note_on_c, 0, 71, 68
2, 39712, Control_c, 0, 64, 0
2, 39736, Note_off_c, 0, 73, 64
2, 39736, Control_c, 0, 64, 127
2, 39765, Note_on_c, 0, 68, 63
2, 39797, Note_off_c, 0, 71, 64
2, 39846, Note_on_c, 0, 61, 72
2, 39847, Note_on_c, 0, 52, 72
2, 39853, Note_on_c, 0, 69, 72
2, 39865, Control_c, 0, 64, 0
2, 39872, Control_c, 0, 64, 0
2, 39886, Note_off_c, 0, 68, 64
2, 39886, Control_c, 0, 64, 127
2, 39895, Control_c, 0, 64, 127
2, 39912, Note_off_c, 0, 64, 64
2, 39925, Note_on_c, 0, 71, 56
2, 39940, Note_off_c, 0, 61, 64
2, 39941, Note_off_c, 0, 52, 64
2, 39941, Note_off_c, 0, 45, 64
2, 39948, Note_off_c, 0, 69, 64
2, 40000, Note_on_c, 0, 73, 78
2, 40020, Control_c, 0, 64, 0
2, 40030, Note_off_c, 0, 71, 64
2, 40033, Control_c, 0, 64, 127
2, 40073, Note_on_c, 0, 64, 74
2, 40105, Note_off_c, 0, 73, 64
2, 40154, Note_on_c, 0, 66, 92
2, 40161, Note_on_c, 0, 38, 93
2, 40161, Control_c, 0, 64, 0
2, 40183, Note_off_c, 0, 64, 64
2, 40187, Control_c, 0, 64, 127
2, 40222, Note_on_c, 0, 68, 72
2, 40248, Note_off_c, 0, 66, 64
2, 40297, Note_on_c, 0, 69, 78
2, 40310, Note_off_c, 0, 68, 64
2, 40344, Control_c, 0, 64, 0
2, 40368, Control_c, 0, 64, 127
2, 40372, Note_on_c, 0, 71, 55
2, 40424, Note_off_c, 0, 69, 64
2, 40432, Note_on_c, 0, 59, 72
2, 40436, Note_on_c, 0, 73, 81
2, 40440, Note_on_c, 0, 66, 38
2, 40440, Note_on_c, 0, 57, 72
2, 40443, Note_off_c, 0, 38, 64
2, 40467, Note_off_c, 0, 71, 64
2, 40497, Control_c, 0, 64, 0
2, 40514, Note_on_c, 0, 74, 72
2, 40518, Control_c, 0, 64, 127
2, 40526, Note_off_c, 0, 59, 64
2, 40534, Note_off_c, 0, 57, 64
2, 40534, Note_off_c, 0, 66, 64
2, 40548, Note_off_c, 0, 73, 64
2, 40605, Note_on_c, 0, 40, 66
2, 40608, Note_on_c, 0, 75, 78
2, 40621, Control_c, 0, 64, 0
2, 40629, Note_off_c, 0, 74, 64
2, 40654, Control_c, 0, 64, 127
2, 40697, Note_on_c, 0, 78, 63
2, 40718, Note_off_c, 0, 75, 64
2, 40780, Note_on_c, 0, 76, 81
2, 40788, Note_on_c, 0, 64, 58
2, 40789, Note_on_c, 0, 69, 74
2, 40789, Note_on_c, 0, 61, 58
2, 40793, Control_c, 0, 64, 0
2, 40811, Note_off_c, 0, 78, 64
2, 40812, Control_c, 0, 64, 0
2, 40819, Control_c, 0, 64, 127
2, 40825, Control_c, 0, 64, 127
2, 40854, Note_on_c, 0, 80, 86
2, 40890, Note_off_c, 0, 76, 64
2, 40891, Note_off_c, 0, 40, 64
2, 40953, Note_on_c, 0, 81, 90
2, 40984, Note_off_c, 0, 69, 64
2, 40988, Note_off_c, 0, 64, 64
2, 40991, Note_off_c, 0, 80, 64
2, 40991, Control_c, 0, 64, 0
2, 41004, Note_off_c, 0, 61, 64
2, 41014, Control_c, 0, 64, 127
2, 41044, Note_on_c, 0, 85, 91
2, 41073, Note_off_c, 0, 81, 64
2, 41110, Note_off_c, 0, 85, 64
2, 41248, Note_on_c, 0, 78, 80
2, 41250, Note_on_c, 0, 40, 72
2, 41253, Control_c, 0, 64, 0
2, 41263, Control_c, 0, 64, 0
2, 41284, Control_c, 0, 64, 127
2, 41286, Control_c, 0, 64, 127
2, 41354, Note_on_c, 0, 80, 59
2, 41375, Note_off_c, 0, 78, 64
2, 41398, Note_on_c, 0, 78, 78
2, 41407, Note_off_c, 0, 80, 64
2, 41434, Note_on_c, 0, 52, 78
2, 41439, Note_on_c, 0, 62, 23
2, 41443, Note_on_c, 0, 76, 80
2, 41444, Control_c, 0, 64, 0
2, 41457, Control_c, 0, 64, 127
2, 41469, Note_off_c, 0, 78, 64
2, 41522, Note_on_c, 0, 68, 69
2, 41528, Note_off_c, 0, 52, 64
2, 41533, Note_off_c, 0, 62, 64
2, 41541, Note_off_c, 0, 76, 64
2, 41542, Note_off_c, 0, 40, 64
2, 41592, Note_on_c, 0, 73, 88
2, 41598, Note_on_c, 0, 62, 69
2, 41610, Note_on_c, 0, 52, 52
2, 41614, Note_off_c, 0, 68, 64
2, 41623, Control_c, 0, 64, 0
2, 41646, Control_c, 0, 64, 127
2, 41687, Note_on_c, 0, 64, 88
2, 41692, Note_off_c, 0, 62, 64
2, 41704, Note_off_c, 0, 52, 64
2, 41708, Note_off_c, 0, 73, 64
2, 41734, Note_off_c, 0, 64, 64
2, 41777, Note_on_c, 0, 64, 71
2, 41781, Note_on_c, 0, 45, 69
2, 41799, Control_c, 0, 64, 0
2, 41839, Control_c, 0, 64, 127
2, 41868, Note_on_c, 0, 69, 78
2, 41895, Control_c, 0, 64, 0
2, 41916, Control_c, 0, 64, 127
2, 41928, Note_off_c, 0, 69, 64
2, 41935, Note_off_c, 0, 64, 64
2, 41966, Note_on_c, 0, 69, 78
2, 41968, Note_on_c, 0, 61, 51
2, 41979, Note_on_c, 0, 52, 71
2, 42062, Note_off_c, 0, 61, 64
2, 42073, Note_off_c, 0, 52, 64
2, 42233, Note_on_c, 0, 76, 91
2, 42261, Note_off_c, 0, 69, 64
2, 42275, Note_off_c, 0, 45, 64
2, 42431, Control_c, 0, 64, 0
2, 42471, Control_c, 0, 64, 127
2, 42474, Control_c, 0, 64, 0
2, 42484, Note_on_c, 0, 45, 79
2, 42511, Control_c, 0, 64, 127
2, 42752, Note_on_c, 0, 64, 25
2, 42752, Note_on_c, 0, 57, 47
2, 42752, Note_on_c, 0, 52, 53
2, 42773, Note_off_c, 0, 45, 64
2, 42846, Note_off_c, 0, 52, 64
2, 42846, Note_off_c, 0, 57, 64
2, 42846, Note_off_c, 0, 64, 64
2, 42857, Note_on_c, 0, 77, 81
2, 42878, Note_off_c, 0, 76, 64
2, 42944, Note_on_c, 0, 76, 87
2, 42944, Note_on_c, 0, 64, 38
2, 42944, Note_on_c, 0, 57, 51
2, 42944, Note_on_c, 0, 52, 50
2, 42960, Note_off_c, 0, 77, 64
2, 42994, Note_on_c, 0, 77, 90
2, 43004, Note_off_c, 0, 76, 64
2, 43025, Note_on_c, 0, 76, 90
2, 43038, Note_off_c, 0, 52, 64
2, 43038, Note_off_c, 0, 57, 64
2, 43038, Note_off_c, 0, 64, 64
2, 43041, Note_off_c, 0, 77, 64
2, 43086, Note_on_c, 0, 75, 76
2, 43095, Note_off_c, 0, 76, 64
2, 43106, Control_c, 0, 64, 0
2, 43143, Control_c, 0, 64, 127
2, 43156, Control_c, 0, 64, 0
2, 43167, Note_on_c, 0, 76, 91
2, 43187, Control_c, 0, 64, 127
2, 43199, Note_off_c, 0, 75, 64
2, 43252, Note_on_c, 0, 71, 51
2, 43270, Note_off_c, 0, 76, 64
2, 43323, Note_on_c, 0, 72, 87
2, 43328, Note_on_c, 0, 62, 33
2, 43328, Note_on_c, 0, 56, 51
2, 43328, Note_on_c, 0, 52, 53
2, 43334, Note_on_c, 0, 64, 33
2, 43339, Control_c, 0, 64, 0
2, 43357, Note_off_c, 0, 71, 64
2, 43372, Control_c, 0, 64, 127
2, 43422, Note_off_c, 0, 52, 64
2, 43422, Note_off_c, 0, 56, 64
2, 43422, Note_off_c, 0, 62, 64
2, 43428, Note_off_c, 0, 64, 64
2, 43488, Note_on_c, 0, 64, 33
2, 43488, Note_on_c, 0, 62, 33
2, 43488, Note_on_c, 0, 52, 66
2, 43492, Note_on_c, 0, 74, 74
2, 43496, Note_on_c, 0, 56, 43
2, 43509, Note_off_c, 0, 72, 64
2, 43582, Note_off_c, 0, 52, 64
2, 43582, Note_off_c, 0, 62, 64
2, 43582, Note_off_c, 0, 64, 64
2, 43590, Note_off_c, 0, 56, 64
2, 43595, Control_c, 0, 64, 0
2, 43628, Control_c, 0, 64, 127
2, 43671, Note_on_c, 0, 45, 78
2, 43675, Note_on_c, 0, 72, 90
2, 43684, Control_c, 0, 64, 0
2, 43696, Note_off_c, 0, 74, 64
2, 43721, Control_c, 0, 64, 127
2, 43788, Control_c, 0, 64, 0
2, 43819, Control_c, 0, 64, 127
2, 43852, Note_on_c, 0, 52, 32
2, 43856, Note_on_c, 0, 57, 62
2, 43858, Note_on_c, 0, 64, 66
2, 43946, Note_off_c, 0, 52, 64
2, 43950, Note_off_c, 0, 57, 64
2, 43952, Note_off_c, 0, 64, 64
2, 43954, Note_on_c, 0, 74, 87
2, 43960, Note_off_c, 0, 45, 64
2, 43971, Control_c, 0, 64, 0
2, 44004, Control_c, 0, 64, 127
2, 44007, Note_off_c, 0, 72, 64
2, 44021, Note_off_c, 0, 74, 64
2, 44024, Note_on_c, 0, 64, 57
2, 44024, Note_on_c, 0, 57, 62
2, 44024, Note_on_c, 0, 52, 66
2, 44025, Note_on_c, 0, 72, 87
2, 44052, Note_on_c, 0, 74, 81
2, 44073, Note_off_c, 0, 72, 64
2, 44090, Note_on_c, 0, 72, 83
2, 44118, Note_off_c, 0, 52, 64
2, 44118, Note_off_c, 0, 57, 64
2, 44118, Note_off_c, 0, 64, 64
2, 44120, Note_off_c, 0, 74, 64
2, 44144, Note_on_c, 0, 71, 81
2, 44167, Note_off_c, 0, 72, 64
2, 44179, Control_c, 0, 64, 0
2, 44205, Control_c, 0, 64, 127
2, 44212, Note_on_c, 0, 72, 87
2, 44227, Control_c, 0, 64, 0
2, 44229, Note_off_c, 0, 71, 64
2, 44260, Control_c, 0, 64, 127
2, 44285, Note_on_c, 0, 68, 87
2, 44316, Control_c, 0, 64, 0
2, 44318, Note_off_c, 0, 72, 64
2, 44353, Control_c, 0, 64, 127
2, 44360, Note_on_c, 0, 51, 53
2, 44366, Control_c, 0, 64, 0
2, 44368, Note_on_c, 0, 60, 62
2, 44373, Note_on_c, 0, 69, 83
2, 44373, Note_on_c, 0, 57, 50
2, 44378, Note_on_c, 0, 65, 38
2, 44387, Control_c, 0, 64, 127
2, 44392, Note_off_c, 0, 68, 64
2, 44454, Note_off_c, 0, 51, 64
2, 44462, Note_off_c, 0, 60, 64
2, 44467, Note_off_c, 0, 57, 64
2, 44472, Note_off_c, 0, 65, 64
2, 44512, Note_on_c, 0, 57, 43
2, 44520, Note_on_c, 0, 60, 32
2, 44522, Note_on_c, 0, 65, 45
2, 44529, Note_on_c, 0, 71, 85
2, 44529, Note_on_c, 0, 51, 34
2, 44573, Note_off_c, 0, 69, 64
2, 44606, Note_off_c, 0, 57, 64
2, 44614, Note_off_c, 0, 60, 64
2, 44616, Note_off_c, 0, 65, 64
2, 44623, Note_off_c, 0, 51, 64
2, 44711, Note_on_c, 0, 69, 87
2, 44719, Control_c, 0, 64, 0
2, 44723, Note_off_c, 0, 71, 64
2, 44732, Note_on_c, 0, 45, 51
2, 44762, Control_c, 0, 64, 127
2, 44811, Control_c, 0, 64, 0
2, 44837, Control_c, 0, 64, 127
2, 44929, Note_on_c, 0, 52, 72
2, 44936, Note_on_c, 0, 64, 57
2, 44936, Note_on_c, 0, 57, 57
2, 44966, Control_c, 0, 64, 0
2, 44998, Control_c, 0, 64, 0
2, 45007, Control_c, 0, 64, 127
2, 45008, Note_off_c, 0, 45, 64
2, 45013, Note_on_c, 0, 71, 81
2, 45019, Control_c, 0, 64, 127
2, 45028, Note_off_c, 0, 69, 64
2, 45098, Note_on_c, 0, 72, 82
2, 45116, Note_off_c, 0, 71, 64
2, 45170, Note_on_c, 0, 68, 96
2, 45203, Note_off_c, 0, 72, 64
2, 45223, Note_off_c, 0, 64, 64
2, 45243, Note_off_c, 0, 57, 64
2, 45253, Note_on_c, 0, 69, 87
2, 45276, Note_off_c, 0, 68, 64
2, 45291, Note_off_c, 0, 52, 64
2, 45331, Note_on_c, 0, 63, 82
2, 45331, Control_c, 0, 64, 0
2, 45347, Note_off_c, 0, 69, 64
2, 45351, Control_c, 0, 64, 0
2, 45365, Control_c, 0, 64, 127
2, 45394, Control_c, 0, 64, 127
2, 45414, Note_on_c, 0, 64, 81
2, 45425, Note_off_c, 0, 63, 64
2, 45436, Control_c, 0, 64, 0
2, 45592, Note_on_c, 0, 67, 81
2, 45598, Control_c, 0, 64, 0
2, 45609, Note_off_c, 0, 64, 64
2, 45639, Control_c, 0, 64, 127
2, 45664, Note_on_c, 0, 65, 83
2, 45691, Note_off_c, 0, 67, 64
2, 45737, Note_on_c, 0, 64, 81
2, 45740, Note_on_c, 0, 40, 71
2, 45763, Note_off_c, 0, 65, 64
2, 45764, Control_c, 0, 64, 127
2, 45815, Note_on_c, 0, 62, 71
2, 45843, Note_off_c, 0, 64, 64
2, 45897, Note_on_c, 0, 59, 93
2, 45904, Note_on_c, 0, 52, 32
2, 45905, Control_c, 0, 64, 0
2, 45912, Note_on_c, 0, 50, 32
2, 45918, Note_on_c, 0, 56, 32
2, 45921, Note_off_c, 0, 62, 64
2, 45957, Control_c, 0, 64, 127
2, 45963, Control_c, 0, 64, 0
2, 45997, Control_c, 0, 64, 127
2, 45998, Note_off_c, 0, 52, 64
2, 46006, Note_off_c, 0, 50, 64
2, 46012, Note_off_c, 0, 56, 64
2, 46033, Note_off_c, 0, 40, 64
2, 46068, Control_c, 0, 64, 0
2, 46108, Note_on_c, 0, 60, 87
2, 46116, Note_on_c, 0, 56, 50
2, 46119, Note_on_c, 0, 52, 43
2, 46120, Note_on_c, 0, 50, 57
2, 46130, Note_off_c, 0, 59, 64
2, 46210, Note_off_c, 0, 56, 64
2, 46213, Note_off_c, 0, 52, 64
2, 46214, Note_off_c, 0, 50, 64
2, 46312, Note_on_c, 0, 57, 78
2, 46316, Note_on_c, 0, 45, 47
2, 46334, Note_off_c, 0, 60, 64
2, 46356, Control_c, 0, 64, 0
2, 46396, Control_c, 0, 64, 127
2, 46396, Control_c, 0, 64, 127
2, 46537, Control_c, 0, 64, 0
2, 46568, Note_off_c, 0, 45, 64
2, 46586, Note_on_c, 0, 60, 57
2, 46588, Note_on_c, 0, 52, 66
2, 46589, Control_c, 0, 64, 127
2, 46784, Note_on_c, 0, 64, 97
2, 46823, Note_off_c, 0, 60, 64
2, 46828, Note_off_c, 0, 52, 64
2, 46837, Note_off_c, 0, 57, 64
2, 46974, Note_on_c, 0, 33, 81
2, 46988, Control_c, 0, 64, 0
2, 47028, Control_c, 0, 64, 127
2, 47061, Note_on_c, 0, 76, 110
2, 47070, Control_c, 0, 64, 0
2, 47091, Note_off_c, 0, 64, 64
2, 47122, Control_c, 0, 64, 127
2, 47355, Note_off_c, 0, 33, 64
2, 47381, Note_on_c, 0, 64, 53
2, 47381, Note_on_c, 0, 60, 47
2, 47387, Note_on_c, 0, 57, 53
2, 47392, Note_on_c, 0, 52, 50
2, 47475, Note_off_c, 0, 60, 64
2, 47475, Note_off_c, 0, 64, 64
2, 47481, Note_off_c, 0, 57, 64
2, 47486, Note_off_c, 0, 52, 64
2, 47487, Note_on_c, 0, 81, 90
2, 47510, Note_off_c, 0, 76, 64
2, 47582, Note_on_c, 0, 79, 101
2, 47593, Note_on_c, 0, 64, 47
2, 47593, Note_on_c, 0, 52, 51
2, 47598, Note_off_c, 0, 81, 64
2, 47602, Note_on_c, 0, 60, 47
2, 47602, Note_on_c, 0, 57, 53
2, 47655, Note_on_c, 0, 77, 102
2, 47687, Note_off_c, 0, 52, 64
2, 47687, Note_off_c, 0, 64, 64
2, 47694, Note_off_c, 0, 79, 64
2, 47696, Note_off_c, 0, 57, 64
2, 47696, Note_off_c, 0, 60, 64
2, 47702, Control_c, 0, 64, 0
2, 47736, Note_on_c, 0, 76, 90
2, 47754, Control_c, 0, 64, 127
2, 47773, Note_off_c, 0, 77, 64
2, 47811, Note_on_c, 0, 71, 81
2, 47826, Note_off_c, 0, 76, 64
2, 47864, Control_c, 0, 64, 0
2, 47874, Note_on_c, 0, 56, 62
2, 47878, Note_on_c, 0, 52, 53
2, 47880, Note_on_c, 0, 72, 99
2, 47887, Note_on_c, 0, 64, 38
2, 47893, Note_on_c, 0, 62, 33
2, 47903, Note_off_c, 0, 71, 64
2, 47908, Control_c, 0, 64, 127
2, 47968, Note_off_c, 0, 56, 64
2, 47972, Note_off_c, 0, 52, 64
2, 47981, Note_off_c, 0, 64, 64
2, 47987, Note_off_c, 0, 62, 64
2, 48029, Note_on_c, 0, 64, 53
2, 48029, Note_on_c, 0, 56, 58
2, 48035, Note_on_c, 0, 62, 50
2, 48038, Note_on_c, 0, 52, 66
2, 48042, Note_on_c, 0, 74, 83
2, 48093, Note_off_c, 0, 72, 64
2, 48123, Note_off_c, 0, 56, 64
2, 48123, Note_off_c, 0, 64, 64
2, 48129, Note_off_c, 0, 62, 64
2, 48132, Note_off_c, 0, 52, 64
2, 48224, Note_on_c, 0, 45, 70
2, 48225, Note_on_c, 0, 72, 102
2, 48240, Control_c, 0, 64, 0
2, 48244, Note_off_c, 0, 74, 64
2, 48273, Control_c, 0, 64, 127
2, 48400, Note_on_c, 0, 57, 40
2, 48405, Note_on_c, 0, 52, 51
2, 48408, Note_on_c, 0, 60, 43
2, 48474, Note_on_c, 0, 77, 93
2, 48494, Note_off_c, 0, 57, 64
2, 48496, Control_c, 0, 64, 0
2, 48499, Note_off_c, 0, 52, 64
2, 48502, Note_off_c, 0, 60, 64
2, 48506, Note_off_c, 0, 72, 64
2, 48521, Note_off_c, 0, 45, 64
2, 48540, Control_c, 0, 64, 127
2, 48549, Note_on_c, 0, 57, 58
2, 48551, Note_on_c, 0, 60, 66
2, 48556, Note_on_c, 0, 52, 66
2, 48558, Note_on_c, 0, 76, 90
2, 48561, Note_off_c, 0, 77, 64
2, 48627, Note_on_c, 0, 74, 88
2, 48643, Note_off_c, 0, 57, 64
2, 48645, Note_off_c, 0, 60, 64
2, 48650, Note_off_c, 0, 52, 64
2, 48653, Note_off_c, 0, 76, 64
2, 48676, Control_c, 0, 64, 0
2, 48696, Note_on_c, 0, 72, 88
2, 48708, Control_c, 0, 64, 127
2, 48715, Note_off_c, 0, 74, 64
2, 48762, Note_on_c, 0, 68, 97
2, 48776, Note_off_c, 0, 72, 64
2, 48829, Control_c, 0, 64, 0
2, 48834, Note_on_c, 0, 69, 102
2, 48836, Note_on_c, 0, 60, 53
2, 48836, Note_on_c, 0, 51, 66
2, 48843, Note_on_c, 0, 53, 66
2, 48850, Note_off_c, 0, 68, 64
2, 48862, Control_c, 0, 64, 127
2, 48872, Control_c, 0, 64, 0
2, 48905, Control_c, 0, 64, 127
2, 48930, Note_off_c, 0, 51, 64
2, 48930, Note_off_c, 0, 60, 64
2, 48937, Note_off_c, 0, 53, 64
2, 48997, Note_on_c, 0, 71, 93
2, 48997, Note_on_c, 0, 60, 58
2, 48997, Note_on_c, 0, 53, 53
2, 49006, Note_on_c, 0, 51, 53
2, 49056, Note_off_c, 0, 69, 64
2, 49091, Note_off_c, 0, 53, 64
2, 49091, Note_off_c, 0, 60, 64
2, 49100, Note_off_c, 0, 51, 64
2, 49202, Note_on_c, 0, 69, 90
2, 49204, Note_on_c, 0, 45, 81
2, 49226, Control_c, 0, 64, 0
2, 49259, Note_off_c, 0, 71, 64
2, 49308, Control_c, 0, 64, 0
2, 49340, Control_c, 0, 64, 127
2, 49445, Note_on_c, 0, 60, 62
2, 49445, Note_on_c, 0, 52, 81
2, 49461, Control_c, 0, 64, 0
2, 49468, Control_c, 0, 64, 127
2, 49494, Control_c, 0, 64, 127
2, 49534, Note_on_c, 0, 71, 88
2, 49557, Note_off_c, 0, 69, 64
2, 49577, Note_off_c, 0, 60, 64
2, 49589, Note_off_c, 0, 52, 64
2, 49596, Note_off_c, 0, 45, 64
2, 49632, Note_on_c, 0, 72, 88
2, 49681, Note_off_c, 0, 71, 64
2, 49720, Note_on_c, 0, 68, 77
2, 49762, Note_off_c, 0, 72, 64
2, 49804, Note_on_c, 0, 71, 88
2, 49827, Note_off_c, 0, 68, 64
2, 49858, Control_c, 0, 64, 0
2, 49888, Note_on_c, 0, 69, 62
2, 49919, Note_off_c, 0, 71, 64
2, 49960, Note_on_c, 0, 63, 70
2, 49983, Note_off_c, 0, 69, 64
2, 50032, Note_on_c, 0, 64, 72
2, 50062, Note_off_c, 0, 63, 64
2, 50063, Control_c, 0, 64, 0
2, 50100, Control_c, 0, 64, 127
2, 50104, Note_on_c, 0, 67, 78
2, 50136, Note_off_c, 0, 64, 64
2, 50168, Note_on_c, 0, 66, 87
2, 50171, Control_c, 0, 64, 127
2, 50193, Note_off_c, 0, 67, 64
2, 50231, Note_on_c, 0, 40, 72
2, 50236, Note_on_c, 0, 65, 81
2, 50267, Note_off_c, 0, 66, 64
2, 50268, Control_c, 0, 64, 127
2, 50305, Note_on_c, 0, 64, 66
2, 50331, Note_off_c, 0, 65, 64
2, 50368, Control_c, 0, 64, 0
2, 50375, Note_on_c, 0, 63, 87
2, 50384, Note_on_c, 0, 52, 47
2, 50387, Note_on_c, 0, 56, 57
2, 50391, Note_on_c, 0, 50, 63
2, 50395, Note_off_c, 0, 64, 64
2, 50417, Control_c, 0, 64, 127
2, 50449, Note_on_c, 0, 62, 82
2, 50478, Note_off_c, 0, 52, 64
2, 50481, Note_off_c, 0, 56, 64
2, 50485, Note_off_c, 0, 50, 64
2, 50488, Note_off_c, 0, 63, 64
2, 50519, Note_off_c, 0, 40, 64
2, 50519, Control_c, 0, 64, 0
2, 50534, Note_on_c, 0, 59, 78
2, 50544, Note_on_c, 0, 56, 71
2, 50544, Note_on_c, 0, 52, 51
2, 50544, Note_on_c, 0, 50, 51
2, 50555, Note_off_c, 0, 62, 64
2, 50571, Control_c, 0, 64, 127
2, 50617, Note_on_c, 0, 60, 82
2, 50638, Note_off_c, 0, 50, 64
2, 50638, Note_off_c, 0, 52, 64
2, 50638, Note_off_c, 0, 56, 64
2, 50656, Note_off_c, 0, 59, 64
2, 50695, Control_c, 0, 64, 0
2, 50737, Note_on_c, 0, 45, 62
2, 50740, Note_on_c, 0, 57, 66
2, 50750, Note_off_c, 0, 60, 64
2, 50755, Control_c, 0, 64, 0
2, 50803, Control_c, 0, 64, 127
2, 50819, Control_c, 0, 64, 127
2, 50900, Control_c, 0, 64, 127
2, 50917, Note_off_c, 0, 45, 64
2, 50954, Note_on_c, 0, 60, 38
2, 50963, Note_on_c, 0, 52, 50
2, 51000, Control_c, 0, 64, 0
2, 51049, Control_c, 0, 64, 127
2, 51117, Note_on_c, 0, 64, 83
2, 51151, Control_c, 0, 64, 0
2, 51160, Note_off_c, 0, 52, 64
2, 51174, Note_off_c, 0, 60, 64
2, 51203, Control_c, 0, 64, 127
2, 51219, Note_off_c, 0, 57, 64
2, 51304, Note_on_c, 0, 45, 32
2, 51334, Note_on_c, 0, 66, 91
2, 51343, Control_c, 0, 64, 0
2, 51355, Note_off_c, 0, 64, 64
2, 51387, Control_c, 0, 64, 0
2, 51398, Control_c, 0, 64, 127
2, 51451, Control_c, 0, 64, 127
2, 51563, Note_on_c, 0, 54, 33
2, 51568, Note_on_c, 0, 63, 47
2, 51570, Note_on_c, 0, 59, 47
2, 51632, Note_on_c, 0, 68, 70
2, 51635, Note_off_c, 0, 45, 64
2, 51657, Note_off_c, 0, 54, 64
2, 51662, Note_off_c, 0, 63, 64
2, 51663, Note_off_c, 0, 66, 64
2, 51664, Note_off_c, 0, 59, 64
2, 51716, Note_on_c, 0, 69, 72
2, 51716, Note_on_c, 0, 63, 51
2, 51716, Note_on_c, 0, 54, 53
2, 51724, Note_on_c, 0, 59, 32
2, 51733, Note_off_c, 0, 68, 64
2, 51773, Note_on_c, 0, 71, 87
2, 51810, Note_off_c, 0, 54, 64
2, 51810, Note_off_c, 0, 63, 64
2, 51812, Note_off_c, 0, 69, 64
2, 51818, Note_off_c, 0, 59, 64
2, 51840, Note_on_c, 0, 72, 91
2, 51886, Note_off_c, 0, 71, 64
2, 51892, Note_on_c, 0, 74, 81
2, 51915, Note_off_c, 0, 72, 64
2, 51940, Note_on_c, 0, 72, 101
2, 51969, Control_c, 0, 64, 0
2, 51970, Note_off_c, 0, 74, 64
2, 51975, Control_c, 0, 64, 0
2, 51976, Note_on_c, 0, 57, 51
2, 51981, Note_on_c, 0, 53, 51
2, 51984, Note_on_c, 0, 71, 104
2, 51994, Note_on_c, 0, 62, 25
2, 52002, Note_off_c, 0, 72, 64
2, 52010, Control_c, 0, 64, 127
2, 52030, Control_c, 0, 64, 127
2, 52070, Note_off_c, 0, 57, 64
2, 52075, Note_off_c, 0, 53, 64
2, 52088, Note_off_c, 0, 62, 64
2, 52136, Note_on_c, 0, 62, 59
2, 52142, Note_on_c, 0, 76, 81
2, 52142, Note_on_c, 0, 56, 72
2, 52145, Note_on_c, 0, 52, 78
2, 52164, Note_off_c, 0, 71, 64
2, 52230, Note_off_c, 0, 62, 64
2, 52236, Note_off_c, 0, 56, 64
2, 52239, Note_off_c, 0, 52, 64
2, 52332, Note_on_c, 0, 71, 96
2, 52339, Note_on_c, 0, 45, 87
2, 52352, Control_c, 0, 64, 0
2, 52377, Note_off_c, 0, 76, 64
2, 52386, Control_c, 0, 64, 127
2, 52512, Note_on_c, 0, 56, 50
2, 52515, Note_on_c, 0, 52, 43
2, 52519, Note_on_c, 0, 62, 40
2, 52578, Note_on_c, 0, 72, 90
2, 52601, Control_c, 0, 64, 0
2, 52606, Note_off_c, 0, 56, 64
2, 52609, Note_off_c, 0, 52, 64
2, 52613, Note_off_c, 0, 62, 64
2, 52628, Note_off_c, 0, 71, 64
2, 52633, Note_off_c, 0, 45, 64
2, 52642, Control_c, 0, 64, 127
2, 52649, Note_on_c, 0, 74, 74
2, 52656, Note_on_c, 0, 62, 56
2, 52656, Note_on_c, 0, 56, 63
2, 52671, Note_on_c, 0, 52, 38
2, 52704, Note_off_c, 0, 72, 64
2, 52724, Note_on_c, 0, 76, 87
2, 52750, Note_off_c, 0, 56, 64
2, 52750, Note_off_c, 0, 62, 64
2, 52762, Note_off_c, 0, 74, 64
2, 52765, Note_off_c, 0, 52, 64
2, 52784, Note_on_c, 0, 77, 83
2, 52793, Note_on_c, 0, 45, 93
2, 52797, Control_c, 0, 64, 0
2, 52819, Control_c, 0, 64, 127
2, 52836, Note_on_c, 0, 79, 90
2, 52850, Note_off_c, 0, 76, 64
2, 52864, Note_off_c, 0, 77, 64
2, 52885, Note_on_c, 0, 77, 93
2, 52903, Note_off_c, 0, 79, 64
2, 52924, Note_on_c, 0, 76, 106
2, 52930, Note_on_c, 0, 52, 71
2, 52937, Note_on_c, 0, 60, 57
2, 52944, Note_off_c, 0, 77, 64
2, 52984, Control_c, 0, 64, 0
2, 53018, Control_c, 0, 64, 127
2, 53024, Note_off_c, 0, 52, 64
2, 53031, Note_off_c, 0, 60, 64
2, 53111, Note_on_c, 0, 81, 106
2, 53130, Note_on_c, 0, 60, 53
2, 53135, Note_off_c, 0, 76, 64
2, 53139, Note_on_c, 0, 52, 53
2, 53147, Note_off_c, 0, 45, 64
2, 53213, Note_off_c, 0, 81, 64
2, 53224, Note_off_c, 0, 60, 64
2, 53233, Note_off_c, 0, 52, 64
2, 53362, Note_on_c, 0, 47, 81
2, 53366, Note_on_c, 0, 81, 106
2, 53382, Control_c, 0, 64, 0
2, 53427, Control_c, 0, 64, 127
2, 53429, Control_c, 0, 64, 0
2, 53451, Control_c, 0, 64, 127
2, 53604, Note_on_c, 0, 55, 57
2, 53608, Note_on_c, 0, 62, 50
2, 53617, Note_on_c, 0, 65, 41
2, 53667, Note_off_c, 0, 47, 64
2, 53683, Note_on_c, 0, 79, 88
2, 53698, Note_off_c, 0, 55, 64
2, 53702, Note_off_c, 0, 62, 64
2, 53710, Note_off_c, 0, 81, 64
2, 53711, Note_off_c, 0, 65, 64
2, 53730, Note_off_c, 0, 79, 64
2, 53765, Note_on_c, 0, 79, 82
2, 53821, Note_on_c, 0, 77, 72
2, 53844, Note_off_c, 0, 79, 64
2, 53866, Note_off_c, 0, 77, 64
2, 53883, Control_c, 0, 64, 0
2, 53903, Note_on_c, 0, 48, 81
2, 53905, Note_on_c, 0, 77, 96
2, 53920, Control_c, 0, 64, 127
2, 53964, Note_on_c, 0, 76, 82
2, 53977, Note_off_c, 0, 77, 64
2, 54010, Note_off_c, 0, 76, 64
2, 54014, Control_c, 0, 64, 0
2, 54034, Note_on_c, 0, 76, 82
2, 54046, Note_on_c, 0, 64, 51
2, 54053, Note_on_c, 0, 55, 50
2, 54059, Control_c, 0, 64, 127
2, 54100, Note_on_c, 0, 71, 87
2, 54115, Note_off_c, 0, 76, 64
2, 54140, Note_off_c, 0, 64, 64
2, 54144, Note_off_c, 0, 71, 64
2, 54147, Note_off_c, 0, 55, 64
2, 54174, Note_on_c, 0, 64, 70
2, 54175, Note_on_c, 0, 71, 87
2, 54183, Note_on_c, 0, 55, 72
2, 54236, Note_on_c, 0, 72, 81
2, 54248, Note_off_c, 0, 48, 64
2, 54252, Note_off_c, 0, 71, 64
2, 54268, Note_off_c, 0, 64, 64
2, 54277, Note_off_c, 0, 55, 64
2, 54350, Note_on_c, 0, 41, 53
2, 54358, Note_on_c, 0, 79, 90
2, 54378, Note_off_c, 0, 72, 64
2, 54378, Control_c, 0, 64, 0
2, 54413, Control_c, 0, 64, 127
2, 54515, Control_c, 0, 64, 0
2, 54552, Control_c, 0, 64, 127
2, 54580, Note_on_c, 0, 64, 32
2, 54593, Note_on_c, 0, 57, 40
2, 54599, Note_on_c, 0, 53, 31
2, 54650, Note_off_c, 0, 41, 64
2, 54666, Note_on_c, 0, 77, 72
2, 54674, Note_off_c, 0, 64, 64
2, 54684, Note_off_c, 0, 79, 64
2, 54687, Note_off_c, 0, 57, 64
2, 54693, Note_off_c, 0, 53, 64
2, 54721, Note_off_c, 0, 77, 64
2, 54751, Note_on_c, 0, 77, 78
2, 54760, Note_on_c, 0, 57, 43
2, 54767, Note_on_c, 0, 64, 51
2, 54768, Note_on_c, 0, 53, 32
2, 54771, Control_c, 0, 64, 127
2, 54832, Note_on_c, 0, 76, 78
2, 54854, Note_off_c, 0, 57, 64
2, 54861, Note_off_c, 0, 64, 64
2, 54862, Note_off_c, 0, 53, 64
2, 54862, Note_off_c, 0, 77, 64
2, 54877, Note_off_c, 0, 76, 64
2, 54910, Note_on_c, 0, 76, 77
2, 54910, Note_on_c, 0, 47, 72
2, 54918, Control_c, 0, 64, 0
2, 54933, Control_c, 0, 64, 127
2, 54976, Note_on_c, 0, 74, 63
2, 54992, Note_off_c, 0, 76, 64
2, 55010, Control_c, 0, 64, 0
2, 55016, Note_off_c, 0, 74, 64
2, 55041, Control_c, 0, 64, 0
2, 55045, Control_c, 0, 64, 127
2, 55050, Note_on_c, 0, 74, 71
2, 55055, Note_on_c, 0, 62, 62
2, 55060, Note_on_c, 0, 57, 47
2, 55061, Note_on_c, 0, 53, 51
2, 55075, Control_c, 0, 64, 127
2, 55117, Note_on_c, 0, 69, 56
2, 55130, Note_off_c, 0, 74, 64
2, 55149, Note_off_c, 0, 62, 64
2, 55154, Note_off_c, 0, 57, 64
2, 55155, Note_off_c, 0, 53, 64
2, 55185, Note_on_c, 0, 72, 71
2, 55202, Note_off_c, 0, 47, 64
2, 55218, Note_off_c, 0, 69, 64
2, 55254, Note_on_c, 0, 71, 66
2, 55278, Note_off_c, 0, 72, 64
2, 55339, Note_on_c, 0, 52, 63
2, 55346, Note_on_c, 0, 66, 86
2, 55362, Control_c, 0, 64, 0
2, 55392, Note_off_c, 0, 71, 64
2, 55403, Control_c, 0, 64, 127
2, 55407, Control_c, 0, 64, 127
2, 55512, Note_on_c, 0, 59, 47
2, 55512, Note_on_c, 0, 57, 43
2, 55516, Note_on_c, 0, 63, 38
2, 55550, Control_c, 0, 64, 0
2, 55565, Control_c, 0, 64, 127
2, 55585, Note_on_c, 0, 68, 81
2, 55606, Note_off_c, 0, 57, 64
2, 55606, Note_off_c, 0, 59, 64
2, 55608, Note_off_c, 0, 66, 64
2, 55610, Note_off_c, 0, 63, 64
2, 55651, Note_off_c, 0, 52, 64
2, 55660, Note_on_c, 0, 69, 72
2, 55664, Note_on_c, 0, 63, 43
2, 55672, Note_on_c, 0, 59, 20
2, 55673, Control_c, 0, 64, 0
2, 55676, Note_on_c, 0, 57, 20
2, 55677, Note_off_c, 0, 68, 64
2, 55707, Control_c, 0, 64, 127
2, 55716, Note_on_c, 0, 71, 81
2, 55734, Note_off_c, 0, 69, 64
2, 55758, Note_off_c, 0, 63, 64
2, 55766, Note_off_c, 0, 59, 64
2, 55770, Note_off_c, 0, 57, 64
2, 55779, Note_on_c, 0, 72, 90
2, 55785, Note_on_c, 0, 52, 66
2, 55790, Control_c, 0, 64, 0
2, 55798, Note_off_c, 0, 71, 64
2, 55804, Control_c, 0, 64, 127
2, 55823, Note_on_c, 0, 74, 81
2, 55835, Note_off_c, 0, 72, 64
2, 55866, Note_on_c, 0, 72, 88
2, 55887, Note_off_c, 0, 74, 64
2, 55887, Note_off_c, 0, 52, 64
2, 55916, Note_on_c, 0, 57, 51
2, 55921, Note_on_c, 0, 71, 90
2, 55923, Note_on_c, 0, 62, 38
2, 55935, Note_off_c, 0, 72, 64
2, 55994, Control_c, 0, 64, 0
2, 56010, Note_off_c, 0, 57, 64
2, 56017, Note_off_c, 0, 62, 64
2, 56039, Control_c, 0, 64, 127
2, 56073, Note_on_c, 0, 62, 66
2, 56073, Control_c, 0, 64, 0
2, 56080, Note_on_c, 0, 76, 91
2, 56080, Note_on_c, 0, 56, 66
2, 56085, Note_on_c, 0, 52, 58
2, 56102, Note_off_c, 0, 71, 64
2, 56127, Control_c, 0, 64, 127
2, 56167, Note_off_c, 0, 62, 64
2, 56174, Note_off_c, 0, 56, 64
2, 56201, Note_off_c, 0, 52, 64
2, 56246, Note_on_c, 0, 71, 97
2, 56281, Note_off_c, 0, 76, 64
2, 56416, Note_on_c, 0, 62, 57
2, 56416, Note_on_c, 0, 56, 57
2, 56416, Note_on_c, 0, 52, 63
2, 56422, Control_c, 0, 64, 0
2, 56436, Control_c, 0, 64, 127
2, 56484, Note_on_c, 0, 72, 87
2, 56510, Note_off_c, 0, 52, 64
2, 56510, Note_off_c, 0, 56, 64
2, 56510, Note_off_c, 0, 62, 64
2, 56533, Note_off_c, 0, 71, 64
2, 56556, Note_on_c, 0, 74, 81
2, 56558, Note_on_c, 0, 56, 71
2, 56564, Note_on_c, 0, 62, 66
2, 56570, Note_on_c, 0, 52, 57
2, 56593, Note_off_c, 0, 72, 64
2, 56620, Note_on_c, 0, 76, 88
2, 56652, Note_off_c, 0, 56, 64
2, 56655, Note_off_c, 0, 74, 64
2, 56658, Note_off_c, 0, 62, 64
2, 56664, Note_off_c, 0, 52, 64
2, 56704, Note_on_c, 0, 77, 90
2, 56705, Control_c, 0, 64, 0
2, 56708, Note_on_c, 0, 45, 97
2, 56716, Control_c, 0, 64, 0
2, 56739, Note_off_c, 0, 76, 64
2, 56741, Control_c, 0, 64, 127
2, 56759, Control_c, 0, 64, 127
2, 56763, Note_on_c, 0, 79, 97
2, 56773, Note_off_c, 0, 77, 64
2, 56812, Note_on_c, 0, 77, 97
2, 56836, Note_off_c, 0, 79, 64
2, 56868, Note_on_c, 0, 76, 93
2, 56871, Note_on_c, 0, 60, 53
2, 56875, Note_off_c, 0, 77, 64
2, 56878, Note_on_c, 0, 64, 82
2, 56884, Note_on_c, 0, 57, 47
2, 56884, Note_on_c, 0, 52, 41
2, 56993, Note_off_c, 0, 45, 64
2, 57077, Control_c, 0, 64, 0
2, 57080, Note_on_c, 0, 84, 114
2, 57088, Note_off_c, 0, 60, 64
2, 57093, Note_off_c, 0, 64, 64
2, 57097, Note_off_c, 0, 57, 64
2, 57107, Note_off_c, 0, 76, 64
2, 57109, Note_off_c, 0, 52, 64
2, 57117, Control_c, 0, 64, 127
2, 57348, Control_c, 0, 64, 0
2, 57365, Note_on_c, 0, 40, 102
2, 57373, Control_c, 0, 64, 127
2, 57389, Control_c, 0, 64, 0
2, 57427, Control_c, 0, 64, 127
2, 57555, Note_on_c, 0, 83, 78
2, 57590, Note_off_c, 0, 84, 64
2, 57656, Note_on_c, 0, 60, 50
2, 57670, Note_on_c, 0, 82, 102
2, 57670, Note_on_c, 0, 64, 58
2, 57678, Note_on_c, 0, 69, 66
2, 57689, Note_off_c, 0, 83, 64
2, 57709, Control_c, 0, 64, 0
2, 57749, Control_c, 0, 64, 127
2, 57757, Note_on_c, 0, 72, 77
2, 57771, Note_off_c, 0, 82, 64
2, 57834, Note_on_c, 0, 81, 90
2, 57902, Note_off_c, 0, 72, 64
2, 57911, Note_on_c, 0, 80, 81
2, 57919, Note_off_c, 0, 81, 64
2, 57928, Note_off_c, 0, 40, 64
2, 57964, Note_off_c, 0, 80, 64
2, 57991, Note_on_c, 0, 80, 78
2, 58021, Control_c, 0, 64, 0
2, 58059, Control_c, 0, 64, 127
2, 58068, Note_on_c, 0, 79, 87
2, 58097, Note_off_c, 0, 80, 64
2, 58110, Note_off_c, 0, 60, 64
2, 58124, Note_off_c, 0, 64, 64
2, 58132, Note_off_c, 0, 69, 64
2, 58168, Note_on_c, 0, 78, 93
2, 58202, Note_off_c, 0, 79, 64
2, 58258, Note_on_c, 0, 69, 57
2, 58299, Note_off_c, 0, 78, 64
2, 58347, Note_on_c, 0, 77, 87
2, 58416, Note_off_c, 0, 69, 64
2, 58426, Note_on_c, 0, 76, 90
2, 58453, Note_off_c, 0, 77, 64
2, 58488, Note_off_c, 0, 76, 64
2, 58531, Note_on_c, 0, 76, 78
2, 58546, Note_on_c, 0, 40, 57
2, 58559, Control_c, 0, 64, 0
2, 58593, Control_c, 0, 64, 127
2, 58628, Note_on_c, 0, 75, 72
2, 58652, Note_off_c, 0, 76, 64
2, 58741, Note_on_c, 0, 74, 81
2, 58743, Note_on_c, 0, 52, 51
2, 58747, Note_on_c, 0, 56, 25
2, 58749, Note_on_c, 0, 62, 40
2, 58763, Note_off_c, 0, 75, 64
2, 58837, Note_off_c, 0, 52, 64
2, 58841, Note_off_c, 0, 56, 64
2, 58843, Note_off_c, 0, 62, 64
2, 58847, Note_on_c, 0, 64, 54
2, 58848, Note_off_c, 0, 40, 64
2, 58913, Note_off_c, 0, 74, 64
2, 58963, Note_on_c, 0, 72, 66
2, 58963, Note_on_c, 0, 56, 33
2, 58969, Note_on_c, 0, 62, 40
2, 58969, Note_on_c, 0, 52, 51
2, 59002, Control_c, 0, 64, 0
2, 59025, Control_c, 0, 64, 127
2, 59045, Note_off_c, 0, 64, 64
2, 59057, Note_off_c, 0, 56, 64
2, 59063, Note_off_c, 0, 52, 64
2, 59063, Note_off_c, 0, 62, 64
2, 59081, Note_on_c, 0, 71, 51
2, 59113, Note_off_c, 0, 72, 64
2, 59142, Note_off_c, 0, 71, 64
2, 59191, Control_c, 0, 64, 0
2, 59225, Control_c, 0, 64, 127
2, 59238, Note_on_c, 0, 45, 41
2, 59243, Note_on_c, 0, 71, 66
2, 59296, Control_c, 0, 64, 0
2, 59338, Control_c, 0, 64, 127
2, 59417, Note_on_c, 0, 72, 51
2, 59481, Note_off_c, 0, 71, 64
2, 59621, Note_on_c, 0, 69, 57
2, 59621, Note_on_c, 0, 52, 31
2, 59627, Note_on_c, 0, 60, 25
2, 59634, Control_c, 0, 64, 0
2, 59643, Note_off_c, 0, 72, 64
2, 59657, Control_c, 0, 64, 127
2, 59695, Control_c, 0, 64, 0
2, 59928, Control_c, 0, 64, 0
2, 59970, Control_c, 0, 64, 127
2, 60148, Control_c, 0, 64, 127
2, 60172, Control_c, 0, 64, 0
2, 60186, Control_c, 0, 64, 127
2, 60216, Control_c, 0, 64, 0
2, 60241, Control_c, 0, 64, 127
2, 60327, Control_c, 0, 64, 0
2, 60340, Control_c, 0, 64, 0
2, 60478, Note_off_c, 0, 52, 64
2, 60478, Note_off_c, 0, 69, 64
2, 60484, Note_off_c, 0, 60, 64
2, 60553, Note_off_c, 0, 45, 64
2, 60780, Control_c, 0, 64, 127
2, 60804, Control_c, 0, 64, 0
2, 60818, Control_c, 0, 64, 127
2, 60848, Control_c, 0, 64, 0
2, 60873, Control_c, 0, 64, 127
2, 60972, Control_c, 0, 64, 0
2, 60972, End_track
3, 0, Start_track
3, 0, Title_t, "Played by Dr. Ron Lubetsky"
3, 0, End_track
4, 0, Start_track
4, 0, Title_t, "Jan. 13, 1998"
4, 0, End_track
5, 0, Start_track
5, 0, Title_t, "email: acuity2020@aol.com"
5, 0, End_track
6, 0, Start_track
6, 0, Title_t, "Copyright  1998"
6, 0, End_track
7, 0, Start_track
7, 0, Title_t, "All Rights Reserved"
7, 0, End_track
0, 0, End_of_file
