0, 0, Header, 1, 7, 240
1, 0, Start_track
1, 0, Time_signature, 4, 2, 24, 8
1, 0, Tempo, 500000
1, 0, Marker_t, "Chopin: Mazurka, Op. 24 No. 3- Moderato con anima"
1, 0, End_track
2, 0, Start_track
2, 0, Title_t, "Chopin: Op. 24 No. 3"
2, 0, Program_c, 0, 0
2, 0, Control_c, 0, 7, 127
2, 60, Note_on_c, 0, 68, 70
2, 61, Control_c, 0, 64, 127
2, 61, Control_c, 0, 64, 127
2, 270, Note_on_c, 0, 39, 49
2, 275, Note_on_c, 0, 67, 69
2, 291, Note_off_c, 0, 68, 64
2, 303, Control_c, 0, 64, 0
2, 303, Control_c, 0, 64, 0
2, 325, Control_c, 0, 64, 127
2, 325, Control_c, 0, 64, 127
2, 431, Note_off_c, 0, 39, 64
2, 466, Note_on_c, 0, 65, 51
2, 483, Note_off_c, 0, 67, 64
2, 513, Note_on_c, 0, 63, 60
2, 520, Control_c, 0, 64, 0
2, 520, Control_c, 0, 64, 0
2, 522, Note_on_c, 0, 61, 32
2, 522, Note_on_c, 0, 51, 26
2, 531, Note_on_c, 0, 55, 29
2, 537, Note_off_c, 0, 65, 64
2, 559, Control_c, 0, 64, 127
2, 559, Control_c, 0, 64, 127
2, 595, Note_off_c, 0, 51, 64
2, 595, Note_off_c, 0, 61, 64
2, 604, Note_off_c, 0, 55, 64
2, 760, Note_on_c, 0, 55, 27
2, 767, Note_on_c, 0, 51, 35
2, 773, Note_on_c, 0, 61, 31
2, 833, Note_off_c, 0, 55, 64
2, 840, Note_off_c, 0, 51, 64
2, 846, Note_off_c, 0, 61, 64
2, 908, Note_on_c, 0, 73, 60
2, 924, Note_off_c, 0, 63, 64
2, 1013, Control_c, 0, 64, 0
2, 1013, Control_c, 0, 64, 0
2, 1019, Note_on_c, 0, 44, 52
2, 1022, Note_on_c, 0, 72, 69
2, 1034, Note_off_c, 0, 73, 64
2, 1041, Control_c, 0, 64, 127
2, 1041, Control_c, 0, 64, 127
2, 1086, Note_off_c, 0, 72, 64
2, 1103, Note_on_c, 0, 68, 57
2, 1133, Note_off_c, 0, 68, 64
2, 1165, Note_on_c, 0, 68, 70
2, 1180, Note_off_c, 0, 44, 64
2, 1221, Note_on_c, 0, 56, 43
2, 1224, Note_on_c, 0, 77, 70
2, 1228, Note_on_c, 0, 51, 43
2, 1228, Control_c, 0, 64, 0
2, 1228, Control_c, 0, 64, 0
2, 1234, Note_on_c, 0, 60, 40
2, 1257, Note_off_c, 0, 68, 64
2, 1268, Control_c, 0, 64, 127
2, 1268, Control_c, 0, 64, 127
2, 1294, Note_off_c, 0, 56, 64
2, 1301, Note_off_c, 0, 51, 64
2, 1307, Note_off_c, 0, 60, 64
2, 1460, Note_on_c, 0, 60, 41
2, 1463, Note_on_c, 0, 51, 48
2, 1467, Note_on_c, 0, 56, 32
2, 1533, Note_off_c, 0, 60, 64
2, 1536, Note_off_c, 0, 51, 64
2, 1540, Note_off_c, 0, 56, 64
2, 1581, Note_on_c, 0, 75, 54
2, 1601, Note_off_c, 0, 77, 64
2, 1702, Note_off_c, 0, 75, 64
2, 1704, Note_on_c, 0, 61, 34
2, 1704, Note_on_c, 0, 58, 57
2, 1710, Note_on_c, 0, 67, 69
2, 1710, Note_on_c, 0, 51, 49
2, 1738, Control_c, 0, 64, 0
2, 1738, Control_c, 0, 64, 0
2, 1793, Control_c, 0, 64, 127
2, 1793, Control_c, 0, 64, 127
2, 1872, Note_on_c, 0, 65, 62
2, 1879, Note_on_c, 0, 56, 36
2, 1892, Note_off_c, 0, 67, 64
2, 1894, Note_off_c, 0, 58, 64
2, 1918, Control_c, 0, 64, 0
2, 1918, Control_c, 0, 64, 0
2, 1928, Note_on_c, 0, 63, 57
2, 1938, Note_on_c, 0, 55, 23
2, 1942, Note_off_c, 0, 65, 64
2, 1944, Note_off_c, 0, 56, 64
2, 1974, Control_c, 0, 64, 127
2, 1974, Control_c, 0, 64, 127
2, 2049, Note_off_c, 0, 61, 64
2, 2078, Note_off_c, 0, 51, 64
2, 2123, Note_on_c, 0, 73, 60
2, 2136, Note_on_c, 0, 51, 43
2, 2154, Note_off_c, 0, 63, 64
2, 2155, Note_off_c, 0, 55, 64
2, 2337, Note_on_c, 0, 72, 62
2, 2348, Note_on_c, 0, 44, 56
2, 2351, Note_off_c, 0, 51, 64
2, 2351, Note_off_c, 0, 73, 64
2, 2358, Control_c, 0, 64, 0
2, 2358, Control_c, 0, 64, 0
2, 2396, Control_c, 0, 64, 127
2, 2396, Control_c, 0, 64, 127
2, 2436, Note_on_c, 0, 70, 60
2, 2454, Note_off_c, 0, 72, 64
2, 2509, Note_off_c, 0, 44, 64
2, 2539, Note_on_c, 0, 68, 60
2, 2546, Note_on_c, 0, 56, 43
2, 2548, Note_on_c, 0, 51, 35
2, 2554, Note_on_c, 0, 60, 27
2, 2557, Note_off_c, 0, 70, 64
2, 2563, Control_c, 0, 64, 0
2, 2563, Control_c, 0, 64, 0
2, 2608, Control_c, 0, 64, 127
2, 2608, Control_c, 0, 64, 127
2, 2766, Note_on_c, 0, 52, 40
2, 2781, Note_off_c, 0, 51, 64
2, 2872, Note_on_c, 0, 67, 62
2, 2884, Note_off_c, 0, 56, 64
2, 2885, Note_off_c, 0, 60, 64
2, 2890, Note_off_c, 0, 68, 64
2, 2966, Note_off_c, 0, 52, 64
2, 3020, Note_on_c, 0, 65, 54
2, 3020, Note_on_c, 0, 37, 62
2, 3031, Control_c, 0, 64, 0
2, 3031, Control_c, 0, 64, 0
2, 3038, Note_off_c, 0, 67, 64
2, 3074, Control_c, 0, 64, 127
2, 3074, Control_c, 0, 64, 127
2, 3092, Note_off_c, 0, 65, 64
2, 3181, Note_off_c, 0, 37, 64
2, 3205, Note_on_c, 0, 68, 57
2, 3240, Note_off_c, 0, 68, 64
2, 3264, Note_on_c, 0, 68, 65
2, 3265, Note_on_c, 0, 61, 40
2, 3272, Note_on_c, 0, 56, 23
2, 3274, Note_on_c, 0, 53, 35
2, 3278, Control_c, 0, 64, 0
2, 3278, Control_c, 0, 64, 0
2, 3313, Control_c, 0, 64, 127
2, 3313, Control_c, 0, 64, 127
2, 3372, Note_on_c, 0, 70, 47
2, 3384, Note_off_c, 0, 68, 64
2, 3390, Note_off_c, 0, 61, 64
2, 3397, Note_off_c, 0, 56, 64
2, 3399, Note_off_c, 0, 53, 64
2, 3415, Note_on_c, 0, 68, 59
2, 3432, Note_off_c, 0, 70, 64
2, 3470, Note_on_c, 0, 67, 36
2, 3498, Note_off_c, 0, 68, 64
2, 3574, Note_on_c, 0, 65, 48
2, 3590, Note_off_c, 0, 67, 64
2, 3659, Note_on_c, 0, 63, 57
2, 3662, Control_c, 0, 64, 0
2, 3662, Control_c, 0, 64, 0
2, 3667, Note_on_c, 0, 39, 48
2, 3674, Note_off_c, 0, 65, 64
2, 3689, Control_c, 0, 64, 127
2, 3689, Control_c, 0, 64, 127
2, 3699, Note_off_c, 0, 63, 64
2, 3876, Note_on_c, 0, 72, 59
2, 3916, Note_on_c, 0, 51, 60
2, 3967, Note_on_c, 0, 60, 54
2, 4017, Note_on_c, 0, 80, 70
2, 4024, Note_on_c, 0, 68, 70
2, 4448, Note_off_c, 0, 60, 64
2, 4489, Note_off_c, 0, 68, 64
2, 4500, Note_on_c, 0, 68, 52
2, 4505, Note_off_c, 0, 80, 64
2, 4520, Note_off_c, 0, 72, 64
2, 4580, Note_off_c, 0, 51, 64
2, 4590, Note_off_c, 0, 39, 64
2, 4657, Note_on_c, 0, 67, 44
2, 4662, Note_on_c, 0, 51, 34
2, 4663, Note_off_c, 0, 68, 64
2, 4667, Note_on_c, 0, 58, 39
2, 4674, Note_on_c, 0, 61, 26
2, 4682, Control_c, 0, 64, 0
2, 4682, Control_c, 0, 64, 0
2, 4735, Control_c, 0, 64, 127
2, 4735, Control_c, 0, 64, 127
2, 4806, Note_off_c, 0, 58, 64
2, 4815, Note_on_c, 0, 56, 35
2, 4823, Note_on_c, 0, 65, 49
2, 4829, Note_off_c, 0, 67, 64
2, 4855, Control_c, 0, 64, 0
2, 4855, Control_c, 0, 64, 0
2, 4867, Note_off_c, 0, 56, 64
2, 4870, Note_on_c, 0, 63, 39
2, 4877, Note_on_c, 0, 55, 29
2, 4879, Note_off_c, 0, 65, 64
2, 4914, Control_c, 0, 64, 127
2, 4914, Control_c, 0, 64, 127
2, 4993, Note_off_c, 0, 51, 64
2, 5005, Note_off_c, 0, 61, 64
2, 5063, Note_on_c, 0, 73, 47
2, 5063, Note_on_c, 0, 51, 44
2, 5119, Note_off_c, 0, 63, 64
2, 5126, Note_off_c, 0, 55, 64
2, 5238, Note_off_c, 0, 51, 64
2, 5260, Note_on_c, 0, 72, 51
2, 5279, Note_on_c, 0, 44, 41
2, 5279, Control_c, 0, 64, 0
2, 5279, Control_c, 0, 64, 0
2, 5296, Note_off_c, 0, 73, 64
2, 5323, Control_c, 0, 64, 127
2, 5323, Control_c, 0, 64, 127
2, 5353, Note_on_c, 0, 70, 39
2, 5368, Note_off_c, 0, 72, 64
2, 5440, Note_off_c, 0, 44, 64
2, 5451, Note_on_c, 0, 68, 52
2, 5457, Note_on_c, 0, 51, 35
2, 5464, Control_c, 0, 64, 0
2, 5464, Control_c, 0, 64, 0
2, 5467, Note_on_c, 0, 56, 35
2, 5472, Note_on_c, 0, 60, 34
2, 5488, Note_off_c, 0, 70, 64
2, 5513, Control_c, 0, 64, 127
2, 5513, Control_c, 0, 64, 127
2, 5641, Note_on_c, 0, 52, 40
2, 5670, Note_off_c, 0, 51, 64
2, 5728, Note_on_c, 0, 67, 47
2, 5749, Note_off_c, 0, 68, 64
2, 5798, Note_off_c, 0, 56, 64
2, 5817, Note_off_c, 0, 60, 64
2, 5835, Note_on_c, 0, 65, 54
2, 5838, Note_on_c, 0, 37, 56
2, 5844, Control_c, 0, 64, 0
2, 5844, Control_c, 0, 64, 0
2, 5850, Note_off_c, 0, 52, 64
2, 5853, Note_off_c, 0, 67, 64
2, 5888, Control_c, 0, 64, 127
2, 5888, Control_c, 0, 64, 127
2, 5909, Note_off_c, 0, 65, 64
2, 5964, Note_on_c, 0, 68, 51
2, 5995, Note_off_c, 0, 68, 64
2, 5999, Note_off_c, 0, 37, 64
2, 6025, Note_on_c, 0, 68, 69
2, 6030, Note_on_c, 0, 61, 48
2, 6032, Note_on_c, 0, 56, 36
2, 6032, Note_on_c, 0, 53, 40
2, 6046, Control_c, 0, 64, 0
2, 6046, Control_c, 0, 64, 0
2, 6089, Control_c, 0, 64, 127
2, 6089, Control_c, 0, 64, 127
2, 6117, Note_on_c, 0, 70, 51
2, 6122, Note_off_c, 0, 68, 64
2, 6153, Note_on_c, 0, 68, 52
2, 6156, Note_off_c, 0, 61, 64
2, 6158, Note_off_c, 0, 53, 64
2, 6158, Note_off_c, 0, 56, 64
2, 6180, Note_off_c, 0, 70, 64
2, 6202, Note_on_c, 0, 67, 34
2, 6226, Note_off_c, 0, 68, 64
2, 6288, Note_off_c, 0, 67, 64
2, 6296, Note_on_c, 0, 65, 47
2, 6376, Control_c, 0, 64, 0
2, 6376, Control_c, 0, 64, 0
2, 6384, Note_on_c, 0, 63, 59
2, 6387, Note_on_c, 0, 39, 49
2, 6396, Note_off_c, 0, 65, 64
2, 6408, Control_c, 0, 64, 127
2, 6408, Control_c, 0, 64, 127
2, 6420, Note_off_c, 0, 63, 64
2, 6582, Note_on_c, 0, 72, 62
2, 6625, Note_on_c, 0, 51, 39
2, 6676, Note_on_c, 0, 60, 60
2, 6729, Note_on_c, 0, 68, 77
2, 6736, Note_on_c, 0, 84, 79
2, 6744, Control_c, 0, 64, 0
2, 6744, Control_c, 0, 64, 0
2, 6796, Control_c, 0, 64, 127
2, 6796, Control_c, 0, 64, 127
2, 7008, Note_on_c, 0, 82, 60
2, 7020, Note_off_c, 0, 84, 64
2, 7023, Note_off_c, 0, 68, 64
2, 7044, Note_off_c, 0, 39, 64
2, 7076, Note_on_c, 0, 80, 59
2, 7102, Note_off_c, 0, 82, 64
2, 7136, Note_on_c, 0, 77, 57
2, 7141, Note_off_c, 0, 51, 64
2, 7145, Note_off_c, 0, 80, 64
2, 7184, Note_off_c, 0, 72, 64
2, 7194, Note_on_c, 0, 39, 36
2, 7199, Control_c, 0, 64, 0
2, 7199, Control_c, 0, 64, 0
2, 7217, Note_on_c, 0, 79, 66
2, 7231, Note_off_c, 0, 77, 64
2, 7246, Note_off_c, 0, 60, 64
2, 7248, Control_c, 0, 64, 127
2, 7248, Control_c, 0, 64, 127
2, 7295, Note_on_c, 0, 77, 41
2, 7318, Note_off_c, 0, 79, 64
2, 7355, Note_off_c, 0, 39, 64
2, 7385, Note_on_c, 0, 75, 49
2, 7392, Note_on_c, 0, 51, 40
2, 7399, Note_on_c, 0, 61, 36
2, 7404, Control_c, 0, 64, 0
2, 7404, Control_c, 0, 64, 0
2, 7410, Note_off_c, 0, 77, 64
2, 7431, Control_c, 0, 64, 127
2, 7431, Control_c, 0, 64, 127
2, 7454, Note_on_c, 0, 73, 40
2, 7464, Note_off_c, 0, 75, 64
2, 7465, Note_off_c, 0, 51, 64
2, 7472, Note_off_c, 0, 61, 64
2, 7537, Note_on_c, 0, 70, 57
2, 7548, Note_off_c, 0, 73, 64
2, 7559, Note_on_c, 0, 61, 34
2, 7567, Note_on_c, 0, 51, 36
2, 7632, Note_off_c, 0, 61, 64
2, 7637, Note_on_c, 0, 65, 36
2, 7640, Note_off_c, 0, 51, 64
2, 7645, Note_off_c, 0, 70, 64
2, 7727, Note_on_c, 0, 63, 52
2, 7729, Note_off_c, 0, 65, 64
2, 7735, Note_on_c, 0, 44, 44
2, 7745, Control_c, 0, 64, 0
2, 7745, Control_c, 0, 64, 0
2, 7801, Control_c, 0, 64, 127
2, 7801, Control_c, 0, 64, 127
2, 7870, Note_off_c, 0, 63, 64
2, 7896, Note_off_c, 0, 44, 64
2, 7915, Note_on_c, 0, 72, 43
2, 7975, Note_on_c, 0, 51, 23
2, 7977, Note_on_c, 0, 56, 24
2, 7980, Note_on_c, 0, 68, 41
2, 7986, Note_on_c, 0, 60, 23
2, 8003, Control_c, 0, 64, 0
2, 8003, Control_c, 0, 64, 0
2, 8013, Note_off_c, 0, 72, 64
2, 8066, Control_c, 0, 64, 127
2, 8066, Control_c, 0, 64, 127
2, 8212, Note_off_c, 0, 56, 64
2, 8215, Note_off_c, 0, 51, 64
2, 8222, Note_off_c, 0, 60, 64
2, 8228, Note_on_c, 0, 70, 60
2, 8233, Note_off_c, 0, 68, 64
2, 8331, Note_on_c, 0, 68, 41
2, 8355, Note_off_c, 0, 70, 64
2, 8472, Note_on_c, 0, 67, 54
2, 8475, Note_on_c, 0, 39, 48
2, 8484, Note_off_c, 0, 68, 64
2, 8497, Control_c, 0, 64, 0
2, 8497, Control_c, 0, 64, 0
2, 8551, Control_c, 0, 64, 127
2, 8551, Control_c, 0, 64, 127
2, 8625, Note_off_c, 0, 67, 64
2, 8627, Note_on_c, 0, 65, 43
2, 8636, Note_off_c, 0, 39, 64
2, 8676, Note_on_c, 0, 55, 27
2, 8678, Note_on_c, 0, 61, 43
2, 8681, Note_on_c, 0, 63, 51
2, 8686, Note_on_c, 0, 51, 26
2, 8686, Control_c, 0, 64, 0
2, 8686, Control_c, 0, 64, 0
2, 8700, Note_off_c, 0, 65, 64
2, 8739, Control_c, 0, 64, 127
2, 8739, Control_c, 0, 64, 127
2, 8749, Note_off_c, 0, 55, 64
2, 8751, Note_off_c, 0, 61, 64
2, 8759, Note_off_c, 0, 51, 64
2, 8856, Note_on_c, 0, 55, 26
2, 8866, Note_on_c, 0, 61, 23
2, 8866, Note_on_c, 0, 51, 34
2, 8929, Note_off_c, 0, 55, 64
2, 8939, Note_off_c, 0, 51, 64
2, 8939, Note_off_c, 0, 61, 64
2, 8945, Note_off_c, 0, 63, 64
2, 8950, Note_on_c, 0, 73, 52
2, 9051, Control_c, 0, 64, 0
2, 9051, Control_c, 0, 64, 0
2, 9059, Note_on_c, 0, 72, 52
2, 9059, Note_on_c, 0, 44, 47
2, 9075, Note_off_c, 0, 73, 64
2, 9100, Control_c, 0, 64, 127
2, 9100, Control_c, 0, 64, 127
2, 9130, Note_off_c, 0, 72, 64
2, 9145, Note_on_c, 0, 68, 43
2, 9181, Note_off_c, 0, 68, 64
2, 9207, Note_on_c, 0, 68, 52
2, 9220, Note_off_c, 0, 44, 64
2, 9246, Note_on_c, 0, 56, 35
2, 9248, Note_on_c, 0, 51, 34
2, 9250, Note_on_c, 0, 77, 54
2, 9252, Note_on_c, 0, 60, 27
2, 9260, Control_c, 0, 64, 0
2, 9260, Control_c, 0, 64, 0
2, 9292, Note_off_c, 0, 68, 64
2, 9300, Control_c, 0, 64, 127
2, 9300, Control_c, 0, 64, 127
2, 9319, Note_off_c, 0, 56, 64
2, 9321, Note_off_c, 0, 51, 64
2, 9325, Note_off_c, 0, 60, 64
2, 9455, Note_on_c, 0, 60, 35
2, 9460, Note_on_c, 0, 56, 14
2, 9465, Note_on_c, 0, 51, 21
2, 9518, Note_on_c, 0, 75, 38
2, 9528, Note_off_c, 0, 60, 64
2, 9533, Note_off_c, 0, 56, 64
2, 9533, Note_off_c, 0, 77, 64
2, 9538, Note_off_c, 0, 51, 64
2, 9629, Note_on_c, 0, 67, 62
2, 9630, Note_off_c, 0, 75, 64
2, 9646, Note_on_c, 0, 61, 31
2, 9653, Note_on_c, 0, 58, 49
2, 9653, Note_on_c, 0, 51, 36
2, 9662, Control_c, 0, 64, 0
2, 9662, Control_c, 0, 64, 0
2, 9716, Control_c, 0, 64, 127
2, 9716, Control_c, 0, 64, 127
2, 9768, Note_off_c, 0, 58, 64
2, 9784, Note_on_c, 0, 65, 56
2, 9789, Note_on_c, 0, 56, 39
2, 9798, Note_off_c, 0, 67, 64
2, 9829, Note_on_c, 0, 55, 35
2, 9834, Note_off_c, 0, 56, 64
2, 9835, Note_on_c, 0, 63, 57
2, 9840, Control_c, 0, 64, 0
2, 9840, Control_c, 0, 64, 0
2, 9849, Note_off_c, 0, 65, 64
2, 9886, Control_c, 0, 64, 127
2, 9886, Control_c, 0, 64, 127
2, 10015, Note_off_c, 0, 51, 64
2, 10026, Note_on_c, 0, 51, 33
2, 10032, Note_on_c, 0, 73, 45
2, 10046, Note_off_c, 0, 61, 64
2, 10048, Note_off_c, 0, 55, 64
2, 10054, Note_off_c, 0, 63, 64
2, 10193, Note_off_c, 0, 51, 64
2, 10238, Note_on_c, 0, 72, 56
2, 10244, Note_on_c, 0, 44, 45
2, 10247, Note_off_c, 0, 73, 64
2, 10267, Control_c, 0, 64, 0
2, 10267, Control_c, 0, 64, 0
2, 10298, Control_c, 0, 64, 127
2, 10298, Control_c, 0, 64, 127
2, 10342, Note_on_c, 0, 70, 54
2, 10354, Note_off_c, 0, 72, 64
2, 10405, Note_off_c, 0, 44, 64
2, 10453, Note_on_c, 0, 68, 57
2, 10465, Note_on_c, 0, 51, 41
2, 10468, Note_on_c, 0, 56, 27
2, 10473, Note_off_c, 0, 70, 64
2, 10473, Note_on_c, 0, 60, 28
2, 10488, Control_c, 0, 64, 0
2, 10488, Control_c, 0, 64, 0
2, 10542, Control_c, 0, 64, 127
2, 10542, Control_c, 0, 64, 127
2, 10699, Note_on_c, 0, 52, 29
2, 10709, Note_off_c, 0, 51, 64
2, 10794, Note_on_c, 0, 67, 42
2, 10802, Note_off_c, 0, 68, 64
2, 10915, Note_off_c, 0, 52, 64
2, 10921, Note_off_c, 0, 56, 64
2, 10926, Note_off_c, 0, 60, 64
2, 10939, Note_on_c, 0, 65, 62
2, 10945, Note_on_c, 0, 37, 48
2, 10953, Note_off_c, 0, 67, 64
2, 10955, Control_c, 0, 64, 0
2, 10955, Control_c, 0, 64, 0
2, 10999, Control_c, 0, 64, 127
2, 10999, Control_c, 0, 64, 127
2, 11013, Note_off_c, 0, 65, 64
2, 11106, Note_off_c, 0, 37, 64
2, 11114, Note_on_c, 0, 68, 65
2, 11150, Note_off_c, 0, 68, 64
2, 11176, Note_on_c, 0, 56, 44
2, 11178, Note_on_c, 0, 53, 47
2, 11181, Note_on_c, 0, 61, 26
2, 11184, Note_on_c, 0, 68, 62
2, 11196, Control_c, 0, 64, 0
2, 11196, Control_c, 0, 64, 0
2, 11198, Control_c, 0, 64, 0
2, 11198, Control_c, 0, 64, 0
2, 11251, Control_c, 0, 64, 127
2, 11251, Control_c, 0, 64, 127
2, 11295, Note_on_c, 0, 70, 49
2, 11301, Note_off_c, 0, 68, 64
2, 11302, Note_off_c, 0, 56, 64
2, 11307, Note_off_c, 0, 61, 64
2, 11323, Note_off_c, 0, 53, 64
2, 11330, Note_on_c, 0, 68, 73
2, 11352, Note_off_c, 0, 70, 64
2, 11384, Note_on_c, 0, 67, 49
2, 11402, Note_off_c, 0, 68, 64
2, 11468, Note_on_c, 0, 65, 59
2, 11473, Note_off_c, 0, 67, 64
2, 11542, Control_c, 0, 64, 0
2, 11542, Control_c, 0, 64, 0
2, 11548, Note_on_c, 0, 39, 64
2, 11551, Note_on_c, 0, 63, 64
2, 11570, Note_off_c, 0, 65, 64
2, 11581, Control_c, 0, 64, 127
2, 11581, Control_c, 0, 64, 127
2, 11592, Note_off_c, 0, 63, 64
2, 11746, Note_on_c, 0, 72, 70
2, 11762, Note_on_c, 0, 51, 57
2, 11809, Note_on_c, 0, 60, 70
2, 11868, Note_on_c, 0, 68, 70
2, 11875, Note_on_c, 0, 80, 77
2, 11881, Control_c, 0, 64, 0
2, 11881, Control_c, 0, 64, 0
2, 11905, Control_c, 0, 64, 127
2, 11905, Control_c, 0, 64, 127
2, 12144, Note_off_c, 0, 39, 64
2, 12238, Note_off_c, 0, 68, 64
2, 12252, Note_off_c, 0, 72, 64
2, 12259, Note_off_c, 0, 60, 64
2, 12293, Note_off_c, 0, 80, 64
2, 12316, Note_on_c, 0, 68, 52
2, 12338, Note_off_c, 0, 51, 64
2, 12430, Control_c, 0, 64, 0
2, 12430, Control_c, 0, 64, 0
2, 12437, Note_on_c, 0, 51, 34
2, 12438, Note_on_c, 0, 67, 47
2, 12444, Note_on_c, 0, 58, 36
2, 12451, Note_on_c, 0, 61, 21
2, 12465, Note_off_c, 0, 68, 64
2, 12504, Control_c, 0, 64, 127
2, 12504, Control_c, 0, 64, 127
2, 12571, Note_off_c, 0, 58, 64
2, 12581, Note_on_c, 0, 56, 31
2, 12587, Note_on_c, 0, 65, 40
2, 12588, Note_off_c, 0, 67, 64
2, 12614, Control_c, 0, 64, 0
2, 12614, Control_c, 0, 64, 0
2, 12626, Note_on_c, 0, 55, 26
2, 12632, Note_off_c, 0, 56, 64
2, 12633, Note_on_c, 0, 63, 39
2, 12641, Note_off_c, 0, 65, 64
2, 12664, Control_c, 0, 64, 127
2, 12664, Control_c, 0, 64, 127
2, 12753, Note_off_c, 0, 51, 64
2, 12769, Note_off_c, 0, 55, 64
2, 12806, Note_on_c, 0, 51, 43
2, 12819, Note_on_c, 0, 73, 60
2, 12903, Note_off_c, 0, 63, 64
2, 12904, Note_off_c, 0, 61, 64
2, 12988, Note_off_c, 0, 51, 64
2, 13001, Note_on_c, 0, 72, 60
2, 13004, Control_c, 0, 64, 0
2, 13004, Control_c, 0, 64, 0
2, 13008, Note_on_c, 0, 44, 43
2, 13022, Note_off_c, 0, 73, 64
2, 13062, Control_c, 0, 64, 127
2, 13062, Control_c, 0, 64, 127
2, 13087, Note_on_c, 0, 70, 48
2, 13099, Note_off_c, 0, 72, 64
2, 13169, Note_off_c, 0, 44, 64
2, 13184, Note_on_c, 0, 51, 41
2, 13186, Note_on_c, 0, 68, 44
2, 13191, Note_on_c, 0, 60, 34
2, 13192, Note_on_c, 0, 56, 1
2, 13196, Control_c, 0, 64, 0
2, 13196, Control_c, 0, 64, 0
2, 13220, Note_off_c, 0, 70, 64
2, 13252, Control_c, 0, 64, 127
2, 13252, Control_c, 0, 64, 127
2, 13357, Note_on_c, 0, 52, 43
2, 13385, Note_off_c, 0, 51, 64
2, 13442, Note_on_c, 0, 67, 48
2, 13457, Note_off_c, 0, 68, 64
2, 13538, Control_c, 0, 64, 0
2, 13538, Control_c, 0, 64, 0
2, 13539, Note_off_c, 0, 52, 64
2, 13543, Note_on_c, 0, 37, 59
2, 13546, Note_on_c, 0, 65, 56
2, 13565, Note_off_c, 0, 67, 64
2, 13568, Note_off_c, 0, 60, 64
2, 13569, Note_off_c, 0, 56, 64
2, 13588, Control_c, 0, 64, 127
2, 13588, Control_c, 0, 64, 127
2, 13616, Note_off_c, 0, 65, 64
2, 13681, Note_on_c, 0, 68, 52
2, 13704, Note_off_c, 0, 37, 64
2, 13716, Note_off_c, 0, 68, 64
2, 13739, Note_on_c, 0, 68, 60
2, 13744, Note_on_c, 0, 56, 26
2, 13744, Note_on_c, 0, 53, 52
2, 13746, Note_on_c, 0, 61, 48
2, 13753, Control_c, 0, 64, 0
2, 13753, Control_c, 0, 64, 0
2, 13789, Control_c, 0, 64, 127
2, 13789, Control_c, 0, 64, 127
2, 13825, Note_off_c, 0, 68, 64
2, 13825, Note_on_c, 0, 70, 52
2, 13863, Note_on_c, 0, 68, 60
2, 13870, Note_off_c, 0, 53, 64
2, 13870, Note_off_c, 0, 56, 64
2, 13872, Note_off_c, 0, 61, 64
2, 13887, Note_off_c, 0, 70, 64
2, 13916, Note_on_c, 0, 67, 39
2, 13942, Note_off_c, 0, 68, 64
2, 14002, Note_on_c, 0, 65, 51
2, 14016, Note_off_c, 0, 67, 64
2, 14075, Note_on_c, 0, 63, 57
2, 14076, Control_c, 0, 64, 0
2, 14076, Control_c, 0, 64, 0
2, 14085, Note_on_c, 0, 39, 51
2, 14095, Note_off_c, 0, 65, 64
2, 14102, Control_c, 0, 64, 127
2, 14102, Control_c, 0, 64, 127
2, 14113, Note_off_c, 0, 63, 64
2, 14258, Note_on_c, 0, 72, 66
2, 14296, Note_on_c, 0, 51, 62
2, 14352, Note_on_c, 0, 60, 59
2, 14399, Note_on_c, 0, 68, 74
2, 14410, Note_on_c, 0, 84, 87
2, 14430, Control_c, 0, 64, 0
2, 14430, Control_c, 0, 64, 0
2, 14460, Control_c, 0, 64, 127
2, 14460, Control_c, 0, 64, 127
2, 14623, Note_off_c, 0, 68, 64
2, 14647, Note_off_c, 0, 72, 64
2, 14670, Note_on_c, 0, 82, 57
2, 14680, Note_off_c, 0, 84, 64
2, 14681, Note_off_c, 0, 39, 64
2, 14732, Note_on_c, 0, 80, 60
2, 14764, Note_off_c, 0, 82, 64
2, 14770, Note_off_c, 0, 60, 64
2, 14784, Note_on_c, 0, 77, 62
2, 14807, Note_off_c, 0, 80, 64
2, 14809, Control_c, 0, 64, 0
2, 14809, Control_c, 0, 64, 0
2, 14827, Note_on_c, 0, 39, 49
2, 14855, Note_off_c, 0, 51, 64
2, 14856, Note_on_c, 0, 79, 69
2, 14862, Control_c, 0, 64, 127
2, 14862, Control_c, 0, 64, 127
2, 14867, Note_off_c, 0, 77, 64
2, 14945, Note_on_c, 0, 77, 39
2, 14982, Note_off_c, 0, 79, 64
2, 14988, Note_off_c, 0, 39, 64
2, 15000, Control_c, 0, 64, 0
2, 15000, Control_c, 0, 64, 0
2, 15008, Note_on_c, 0, 51, 44
2, 15016, Note_on_c, 0, 61, 41
2, 15020, Note_on_c, 0, 75, 54
2, 15035, Note_off_c, 0, 77, 64
2, 15045, Control_c, 0, 64, 127
2, 15045, Control_c, 0, 64, 127
2, 15081, Note_off_c, 0, 51, 64
2, 15089, Note_off_c, 0, 61, 64
2, 15104, Note_on_c, 0, 73, 34
2, 15111, Note_off_c, 0, 75, 64
2, 15170, Note_on_c, 0, 61, 34
2, 15176, Note_off_c, 0, 73, 64
2, 15177, Note_on_c, 0, 70, 57
2, 15181, Note_on_c, 0, 51, 34
2, 15243, Note_off_c, 0, 61, 64
2, 15248, Note_on_c, 0, 65, 54
2, 15254, Note_off_c, 0, 51, 64
2, 15254, Note_off_c, 0, 70, 64
2, 15330, Note_off_c, 0, 65, 64
2, 15345, Note_on_c, 0, 63, 54
2, 15361, Note_on_c, 0, 44, 36
2, 15366, Control_c, 0, 64, 0
2, 15366, Control_c, 0, 64, 0
2, 15408, Control_c, 0, 64, 127
2, 15408, Control_c, 0, 64, 127
2, 15513, Note_on_c, 0, 72, 40
2, 15522, Note_off_c, 0, 44, 64
2, 15552, Note_on_c, 0, 51, 27
2, 15564, Note_on_c, 0, 68, 39
2, 15570, Note_on_c, 0, 60, 26
2, 15572, Note_off_c, 0, 63, 64
2, 15585, Control_c, 0, 64, 0
2, 15585, Control_c, 0, 64, 0
2, 15593, Note_off_c, 0, 72, 64
2, 15618, Control_c, 0, 64, 127
2, 15618, Control_c, 0, 64, 127
2, 15747, Note_off_c, 0, 68, 64
2, 15792, Note_off_c, 0, 51, 64
2, 15804, Note_on_c, 0, 68, 43
2, 15807, Note_on_c, 0, 72, 47
2, 15810, Note_off_c, 0, 60, 64
2, 15998, Note_on_c, 0, 59, 27
2, 15999, Note_on_c, 0, 74, 49
2, 16007, Note_on_c, 0, 65, 32
2, 16009, Control_c, 0, 64, 0
2, 16009, Control_c, 0, 64, 0
2, 16014, Note_off_c, 0, 72, 64
2, 16043, Control_c, 0, 64, 127
2, 16043, Control_c, 0, 64, 127
2, 16176, Note_on_c, 0, 67, 18
2, 16178, Note_on_c, 0, 75, 51
2, 16184, Note_on_c, 0, 63, 35
2, 16184, Note_on_c, 0, 60, 35
2, 16197, Note_off_c, 0, 74, 64
2, 16202, Control_c, 0, 64, 0
2, 16202, Control_c, 0, 64, 0
2, 16205, Note_off_c, 0, 65, 64
2, 16208, Note_off_c, 0, 59, 64
2, 16208, Note_off_c, 0, 68, 64
2, 16241, Note_off_c, 0, 67, 64
2, 16246, Control_c, 0, 64, 127
2, 16246, Control_c, 0, 64, 127
2, 16249, Note_off_c, 0, 60, 64
2, 16249, Note_off_c, 0, 63, 64
2, 16263, Note_on_c, 0, 73, 43
2, 16264, Note_off_c, 0, 75, 64
2, 16345, Note_on_c, 0, 72, 51
2, 16352, Note_off_c, 0, 73, 64
2, 16352, Note_on_c, 0, 63, 35
2, 16358, Note_on_c, 0, 66, 39
2, 16366, Note_on_c, 0, 57, 35
2, 16374, Control_c, 0, 64, 0
2, 16374, Control_c, 0, 64, 0
2, 16417, Control_c, 0, 64, 127
2, 16417, Control_c, 0, 64, 127
2, 16521, Note_on_c, 0, 73, 47
2, 16528, Note_on_c, 0, 61, 35
2, 16529, Note_off_c, 0, 63, 64
2, 16533, Note_on_c, 0, 58, 35
2, 16534, Control_c, 0, 64, 0
2, 16534, Control_c, 0, 64, 0
2, 16535, Note_off_c, 0, 66, 64
2, 16538, Note_off_c, 0, 72, 64
2, 16541, Note_on_c, 0, 65, 24
2, 16543, Note_off_c, 0, 57, 64
2, 16584, Control_c, 0, 64, 127
2, 16584, Control_c, 0, 64, 127
2, 16593, Note_off_c, 0, 61, 64
2, 16608, Note_off_c, 0, 65, 64
2, 16614, Note_off_c, 0, 73, 64
2, 16614, Note_on_c, 0, 72, 51
2, 16696, Note_on_c, 0, 61, 18
2, 16698, Note_on_c, 0, 64, 43
2, 16701, Note_on_c, 0, 70, 32
2, 16701, Note_on_c, 0, 55, 35
2, 16707, Note_off_c, 0, 58, 64
2, 16712, Control_c, 0, 64, 0
2, 16712, Control_c, 0, 64, 0
2, 16715, Note_off_c, 0, 72, 64
2, 16744, Control_c, 0, 64, 127
2, 16744, Control_c, 0, 64, 127
2, 16864, Note_on_c, 0, 60, 35
2, 16866, Note_on_c, 0, 72, 43
2, 16866, Note_on_c, 0, 56, 35
2, 16866, Control_c, 0, 64, 0
2, 16866, Control_c, 0, 64, 0
2, 16874, Note_on_c, 0, 63, 26
2, 16876, Note_off_c, 0, 61, 64
2, 16878, Note_off_c, 0, 64, 64
2, 16881, Note_off_c, 0, 55, 64
2, 16881, Note_off_c, 0, 70, 64
2, 16897, Control_c, 0, 64, 127
2, 16897, Control_c, 0, 64, 127
2, 17026, Note_on_c, 0, 68, 39
2, 17028, Note_on_c, 0, 74, 49
2, 17038, Note_on_c, 0, 59, 35
2, 17040, Control_c, 0, 64, 0
2, 17040, Control_c, 0, 64, 0
2, 17041, Note_off_c, 0, 60, 64
2, 17043, Note_off_c, 0, 56, 64
2, 17043, Note_off_c, 0, 72, 64
2, 17045, Note_on_c, 0, 65, 18
2, 17051, Note_off_c, 0, 63, 64
2, 17085, Control_c, 0, 64, 127
2, 17085, Control_c, 0, 64, 127
2, 17199, Note_on_c, 0, 75, 43
2, 17205, Note_on_c, 0, 67, 27
2, 17208, Note_on_c, 0, 63, 35
2, 17209, Note_on_c, 0, 60, 31
2, 17220, Note_off_c, 0, 68, 64
2, 17220, Control_c, 0, 64, 0
2, 17220, Control_c, 0, 64, 0
2, 17222, Note_off_c, 0, 74, 64
2, 17232, Note_off_c, 0, 59, 64
2, 17239, Note_off_c, 0, 65, 64
2, 17246, Control_c, 0, 64, 127
2, 17246, Control_c, 0, 64, 127
2, 17270, Note_off_c, 0, 67, 64
2, 17273, Note_off_c, 0, 63, 64
2, 17274, Note_off_c, 0, 60, 64
2, 17284, Note_on_c, 0, 73, 48
2, 17287, Note_off_c, 0, 75, 64
2, 17360, Note_on_c, 0, 63, 18
2, 17362, Note_on_c, 0, 72, 47
2, 17366, Note_on_c, 0, 66, 43
2, 17366, Note_on_c, 0, 57, 35
2, 17378, Note_off_c, 0, 73, 64
2, 17385, Control_c, 0, 64, 0
2, 17385, Control_c, 0, 64, 0
2, 17419, Control_c, 0, 64, 127
2, 17419, Control_c, 0, 64, 127
2, 17520, Note_on_c, 0, 58, 35
2, 17528, Note_on_c, 0, 65, 31
2, 17528, Note_on_c, 0, 61, 43
2, 17529, Note_on_c, 0, 73, 47
2, 17537, Control_c, 0, 64, 0
2, 17537, Control_c, 0, 64, 0
2, 17546, Note_off_c, 0, 63, 64
2, 17548, Note_off_c, 0, 72, 64
2, 17552, Note_off_c, 0, 57, 64
2, 17552, Note_off_c, 0, 66, 64
2, 17577, Control_c, 0, 64, 127
2, 17577, Control_c, 0, 64, 127
2, 17585, Note_off_c, 0, 58, 64
2, 17593, Note_off_c, 0, 61, 64
2, 17593, Note_off_c, 0, 65, 64
2, 17612, Note_on_c, 0, 72, 48
2, 17619, Note_off_c, 0, 73, 64
2, 17691, Note_on_c, 0, 70, 48
2, 17696, Note_on_c, 0, 64, 43
2, 17696, Note_on_c, 0, 61, 35
2, 17697, Control_c, 0, 64, 0
2, 17697, Control_c, 0, 64, 0
2, 17706, Note_on_c, 0, 55, 31
2, 17717, Note_off_c, 0, 72, 64
2, 17747, Control_c, 0, 64, 127
2, 17747, Control_c, 0, 64, 127
2, 17886, Note_on_c, 0, 56, 35
2, 17887, Note_on_c, 0, 72, 48
2, 17888, Note_on_c, 0, 60, 18
2, 17891, Note_off_c, 0, 61, 64
2, 17891, Note_off_c, 0, 64, 64
2, 17891, Note_on_c, 0, 63, 23
2, 17901, Note_off_c, 0, 55, 64
2, 17901, Control_c, 0, 64, 0
2, 17901, Control_c, 0, 64, 0
2, 17907, Note_off_c, 0, 70, 64
2, 17937, Control_c, 0, 64, 127
2, 17937, Control_c, 0, 64, 127
2, 17986, Control_c, 0, 64, 0
2, 17986, Control_c, 0, 64, 0
2, 18002, Control_c, 0, 64, 0
2, 18002, Control_c, 0, 64, 0
2, 18002, Control_c, 0, 64, 0
2, 18002, Control_c, 0, 64, 0
2, 18018, Control_c, 0, 64, 0
2, 18018, Control_c, 0, 64, 0
2, 18018, Control_c, 0, 64, 0
2, 18018, Control_c, 0, 64, 0
2, 18086, Note_on_c, 0, 70, 48
2, 18096, Note_on_c, 0, 64, 26
2, 18096, Note_on_c, 0, 61, 43
2, 18096, Control_c, 0, 64, 0
2, 18096, Control_c, 0, 64, 0
2, 18102, Note_on_c, 0, 55, 29
2, 18103, Note_off_c, 0, 56, 64
2, 18104, Note_off_c, 0, 72, 64
2, 18105, Note_off_c, 0, 60, 64
2, 18108, Note_off_c, 0, 63, 64
2, 18156, Control_c, 0, 64, 127
2, 18156, Control_c, 0, 64, 127
2, 18162, Control_c, 0, 64, 0
2, 18162, Control_c, 0, 64, 0
2, 18248, Note_on_c, 0, 72, 47
2, 18256, Note_on_c, 0, 63, 34
2, 18256, Note_on_c, 0, 60, 34
2, 18264, Note_on_c, 0, 56, 26
2, 18264, Control_c, 0, 64, 0
2, 18264, Control_c, 0, 64, 0
2, 18273, Note_off_c, 0, 70, 64
2, 18282, Note_off_c, 0, 61, 64
2, 18282, Note_off_c, 0, 64, 64
2, 18288, Note_off_c, 0, 55, 64
2, 18293, Control_c, 0, 64, 127
2, 18293, Control_c, 0, 64, 127
2, 18321, Note_off_c, 0, 60, 64
2, 18321, Note_off_c, 0, 63, 64
2, 18329, Note_off_c, 0, 56, 64
2, 18332, Note_on_c, 0, 70, 49
2, 18339, Note_off_c, 0, 72, 64
2, 18416, Note_on_c, 0, 62, 17
2, 18419, Note_on_c, 0, 68, 47
2, 18424, Note_on_c, 0, 53, 23
2, 18429, Note_on_c, 0, 59, 19
2, 18430, Control_c, 0, 64, 0
2, 18430, Control_c, 0, 64, 0
2, 18433, Note_off_c, 0, 70, 64
2, 18455, Control_c, 0, 64, 127
2, 18455, Control_c, 0, 64, 127
2, 18581, Note_on_c, 0, 70, 44
2, 18584, Note_on_c, 0, 58, 40
2, 18588, Note_on_c, 0, 55, 29
2, 18591, Note_off_c, 0, 62, 64
2, 18592, Note_on_c, 0, 61, 27
2, 18594, Note_off_c, 0, 68, 64
2, 18599, Note_off_c, 0, 53, 64
2, 18599, Control_c, 0, 64, 0
2, 18599, Control_c, 0, 64, 0
2, 18604, Note_off_c, 0, 59, 64
2, 18635, Control_c, 0, 64, 127
2, 18635, Control_c, 0, 64, 127
2, 18649, Note_off_c, 0, 58, 64
2, 18653, Note_off_c, 0, 55, 64
2, 18657, Note_off_c, 0, 61, 64
2, 18665, Note_on_c, 0, 68, 47
2, 18684, Note_off_c, 0, 70, 64
2, 18739, Note_on_c, 0, 67, 47
2, 18741, Note_on_c, 0, 58, 24
2, 18743, Note_on_c, 0, 60, 36
2, 18744, Note_on_c, 0, 52, 18
2, 18747, Note_off_c, 0, 68, 64
2, 18759, Control_c, 0, 64, 0
2, 18759, Control_c, 0, 64, 0
2, 18794, Control_c, 0, 64, 127
2, 18794, Control_c, 0, 64, 127
2, 18912, Note_on_c, 0, 68, 48
2, 18919, Note_off_c, 0, 58, 64
2, 18920, Note_on_c, 0, 60, 18
2, 18921, Note_off_c, 0, 60, 64
2, 18922, Note_off_c, 0, 52, 64
2, 18922, Note_on_c, 0, 56, 23
2, 18924, Note_on_c, 0, 53, 23
2, 18929, Note_off_c, 0, 67, 64
2, 18930, Control_c, 0, 64, 0
2, 18930, Control_c, 0, 64, 0
2, 18976, Control_c, 0, 64, 127
2, 18976, Control_c, 0, 64, 127
2, 19078, Note_off_c, 0, 60, 64
2, 19094, Note_on_c, 0, 67, 41
2, 19096, Note_on_c, 0, 60, 18
2, 19100, Note_off_c, 0, 56, 64
2, 19102, Note_off_c, 0, 53, 64
2, 19103, Note_on_c, 0, 58, 18
2, 19104, Note_on_c, 0, 52, 17
2, 19112, Note_off_c, 0, 68, 64
2, 19126, Control_c, 0, 64, 0
2, 19126, Control_c, 0, 64, 0
2, 19157, Control_c, 0, 64, 127
2, 19157, Control_c, 0, 64, 127
2, 19283, Note_on_c, 0, 68, 40
2, 19287, Note_off_c, 0, 60, 64
2, 19288, Note_on_c, 0, 56, 26
2, 19288, Note_on_c, 0, 53, 18
2, 19298, Note_off_c, 0, 67, 64
2, 19303, Note_off_c, 0, 58, 64
2, 19304, Note_off_c, 0, 52, 64
2, 19309, Note_on_c, 0, 60, 24
2, 19326, Control_c, 0, 64, 0
2, 19326, Control_c, 0, 64, 0
2, 19353, Note_off_c, 0, 53, 64
2, 19353, Note_off_c, 0, 56, 64
2, 19357, Control_c, 0, 64, 127
2, 19357, Control_c, 0, 64, 127
2, 19374, Note_off_c, 0, 60, 64
2, 19395, Note_on_c, 0, 67, 35
2, 19467, Note_off_c, 0, 68, 64
2, 19519, Note_on_c, 0, 65, 34
2, 19520, Note_on_c, 0, 59, 27
2, 19520, Note_on_c, 0, 55, 26
2, 19527, Note_on_c, 0, 49, 27
2, 19546, Note_off_c, 0, 67, 64
2, 19556, Control_c, 0, 64, 0
2, 19556, Control_c, 0, 64, 0
2, 19586, Control_c, 0, 64, 127
2, 19586, Control_c, 0, 64, 127
2, 19796, Note_off_c, 0, 55, 64
2, 19808, Note_on_c, 0, 64, 24
2, 19821, Note_on_c, 0, 55, 26
2, 19829, Note_on_c, 0, 48, 19
2, 19837, Note_off_c, 0, 59, 64
2, 19844, Note_off_c, 0, 49, 64
2, 19844, Control_c, 0, 64, 0
2, 19844, Control_c, 0, 64, 0
2, 19846, Note_off_c, 0, 65, 64
2, 19906, Control_c, 0, 64, 127
2, 19906, Control_c, 0, 64, 127
2, 19987, Note_on_c, 0, 67, 32
2, 20002, Note_off_c, 0, 64, 64
2, 20152, Note_on_c, 0, 60, 26
2, 20410, Note_on_c, 0, 72, 43
2, 20439, Note_off_c, 0, 67, 64
2, 20674, Note_off_c, 0, 72, 64
2, 20691, Note_on_c, 0, 72, 44
2, 21121, Note_off_c, 0, 72, 64
2, 21162, Note_on_c, 0, 72, 43
2, 21441, Note_off_c, 0, 72, 64
2, 21492, Note_on_c, 0, 72, 41
2, 22070, Note_off_c, 0, 72, 64
2, 22112, Note_on_c, 0, 72, 35
2, 22561, Note_off_c, 0, 72, 64
2, 22642, Note_on_c, 0, 72, 24
2, 22817, Note_off_c, 0, 60, 64
2, 23502, Note_off_c, 0, 48, 64
2, 23520, Note_off_c, 0, 55, 64
2, 23631, Note_on_c, 0, 70, 43
2, 23639, Note_off_c, 0, 72, 64
2, 23736, Note_on_c, 0, 68, 43
2, 23762, Note_off_c, 0, 70, 64
2, 23834, Note_on_c, 0, 67, 48
2, 23837, Note_on_c, 0, 58, 40
2, 23842, Note_on_c, 0, 51, 32
2, 23845, Note_off_c, 0, 68, 64
2, 23847, Note_on_c, 0, 61, 26
2, 23860, Control_c, 0, 64, 0
2, 23860, Control_c, 0, 64, 0
2, 23908, Control_c, 0, 64, 127
2, 23908, Control_c, 0, 64, 127
2, 23981, Note_on_c, 0, 65, 47
2, 23989, Note_off_c, 0, 58, 64
2, 23990, Note_off_c, 0, 67, 64
2, 23994, Note_on_c, 0, 56, 31
2, 24027, Note_on_c, 0, 55, 34
2, 24040, Note_on_c, 0, 63, 32
2, 24048, Note_off_c, 0, 56, 64
2, 24055, Note_off_c, 0, 65, 64
2, 24061, Control_c, 0, 64, 0
2, 24061, Control_c, 0, 64, 0
2, 24094, Control_c, 0, 64, 127
2, 24094, Control_c, 0, 64, 127
2, 24193, Note_off_c, 0, 61, 64
2, 24204, Note_off_c, 0, 55, 64
2, 24204, Note_off_c, 0, 51, 64
2, 24216, Note_on_c, 0, 51, 48
2, 24310, Note_on_c, 0, 73, 51
2, 24319, Note_off_c, 0, 63, 64
2, 24390, Note_off_c, 0, 51, 64
2, 24436, Note_on_c, 0, 72, 57
2, 24436, Note_on_c, 0, 44, 41
2, 24450, Control_c, 0, 64, 0
2, 24450, Control_c, 0, 64, 0
2, 24460, Note_off_c, 0, 73, 64
2, 24491, Control_c, 0, 64, 127
2, 24491, Control_c, 0, 64, 127
2, 24517, Note_off_c, 0, 72, 64
2, 24530, Note_on_c, 0, 68, 26
2, 24597, Note_off_c, 0, 44, 64
2, 24604, Note_off_c, 0, 68, 64
2, 24612, Note_on_c, 0, 68, 43
2, 24642, Note_off_c, 0, 68, 64
2, 24643, Note_on_c, 0, 51, 32
2, 24645, Note_on_c, 0, 56, 34
2, 24648, Note_on_c, 0, 60, 29
2, 24654, Note_on_c, 0, 77, 52
2, 24662, Control_c, 0, 64, 0
2, 24662, Control_c, 0, 64, 0
2, 24687, Control_c, 0, 64, 127
2, 24687, Control_c, 0, 64, 127
2, 24716, Note_off_c, 0, 51, 64
2, 24718, Note_off_c, 0, 56, 64
2, 24721, Note_off_c, 0, 60, 64
2, 24862, Note_on_c, 0, 51, 35
2, 24865, Note_on_c, 0, 56, 27
2, 24870, Note_on_c, 0, 60, 18
2, 24935, Note_off_c, 0, 51, 64
2, 24938, Note_off_c, 0, 56, 64
2, 24943, Note_off_c, 0, 60, 64
2, 24952, Note_on_c, 0, 75, 35
2, 24964, Note_off_c, 0, 77, 64
2, 25044, Note_off_c, 0, 75, 64
2, 25055, Note_on_c, 0, 67, 57
2, 25055, Note_on_c, 0, 51, 36
2, 25056, Note_on_c, 0, 61, 26
2, 25060, Note_on_c, 0, 58, 49
2, 25074, Control_c, 0, 64, 0
2, 25074, Control_c, 0, 64, 0
2, 25105, Control_c, 0, 64, 127
2, 25105, Control_c, 0, 64, 127
2, 25188, Note_on_c, 0, 65, 36
2, 25193, Note_off_c, 0, 67, 64
2, 25196, Note_on_c, 0, 56, 39
2, 25200, Note_off_c, 0, 58, 64
2, 25227, Control_c, 0, 64, 0
2, 25227, Control_c, 0, 64, 0
2, 25236, Note_on_c, 0, 63, 57
2, 25241, Note_on_c, 0, 55, 35
2, 25256, Note_off_c, 0, 65, 64
2, 25264, Note_off_c, 0, 56, 64
2, 25270, Control_c, 0, 64, 127
2, 25270, Control_c, 0, 64, 127
2, 25342, Note_off_c, 0, 61, 64
2, 25372, Note_off_c, 0, 51, 64
2, 25408, Note_on_c, 0, 73, 51
2, 25411, Note_on_c, 0, 51, 43
2, 25430, Note_off_c, 0, 63, 64
2, 25435, Note_off_c, 0, 55, 64
2, 25580, Note_off_c, 0, 51, 64
2, 25584, Note_on_c, 0, 72, 60
2, 25591, Note_on_c, 0, 44, 40
2, 25593, Control_c, 0, 64, 0
2, 25593, Control_c, 0, 64, 0
2, 25606, Note_off_c, 0, 73, 64
2, 25635, Control_c, 0, 64, 127
2, 25635, Control_c, 0, 64, 127
2, 25665, Note_on_c, 0, 70, 60
2, 25679, Note_off_c, 0, 72, 64
2, 25749, Note_on_c, 0, 68, 52
2, 25752, Note_off_c, 0, 44, 64
2, 25756, Control_c, 0, 64, 0
2, 25756, Control_c, 0, 64, 0
2, 25762, Note_on_c, 0, 51, 39
2, 25767, Note_on_c, 0, 60, 34
2, 25767, Note_on_c, 0, 56, 19
2, 25771, Note_off_c, 0, 70, 64
2, 25804, Control_c, 0, 64, 127
2, 25804, Control_c, 0, 64, 127
2, 25910, Note_on_c, 0, 52, 44
2, 25930, Note_off_c, 0, 51, 64
2, 25991, Note_on_c, 0, 67, 52
2, 26004, Note_off_c, 0, 68, 64
2, 26074, Note_off_c, 0, 52, 64
2, 26097, Note_off_c, 0, 56, 64
2, 26103, Control_c, 0, 64, 0
2, 26103, Control_c, 0, 64, 0
2, 26106, Note_off_c, 0, 60, 64
2, 26109, Note_on_c, 0, 65, 54
2, 26110, Note_on_c, 0, 37, 54
2, 26118, Note_off_c, 0, 67, 64
2, 26163, Control_c, 0, 64, 127
2, 26163, Control_c, 0, 64, 127
2, 26182, Note_off_c, 0, 65, 64
2, 26241, Note_on_c, 0, 68, 56
2, 26265, Note_off_c, 0, 68, 64
2, 26271, Note_off_c, 0, 37, 64
2, 26288, Note_on_c, 0, 56, 36
2, 26292, Note_on_c, 0, 61, 40
2, 26292, Note_on_c, 0, 53, 40
2, 26301, Note_on_c, 0, 68, 56
2, 26310, Control_c, 0, 64, 0
2, 26310, Control_c, 0, 64, 0
2, 26318, Control_c, 0, 64, 0
2, 26318, Control_c, 0, 64, 0
2, 26341, Control_c, 0, 64, 127
2, 26341, Control_c, 0, 64, 127
2, 26385, Note_off_c, 0, 68, 64
2, 26390, Note_on_c, 0, 70, 43
2, 26414, Note_off_c, 0, 56, 64
2, 26418, Note_off_c, 0, 53, 64
2, 26418, Note_off_c, 0, 61, 64
2, 26428, Note_on_c, 0, 68, 64
2, 26451, Note_off_c, 0, 70, 64
2, 26480, Note_on_c, 0, 67, 44
2, 26505, Note_off_c, 0, 68, 64
2, 26567, Note_on_c, 0, 65, 51
2, 26570, Note_off_c, 0, 67, 64
2, 26619, Control_c, 0, 64, 0
2, 26619, Control_c, 0, 64, 0
2, 26647, Note_on_c, 0, 63, 54
2, 26650, Note_on_c, 0, 39, 52
2, 26659, Control_c, 0, 64, 127
2, 26659, Control_c, 0, 64, 127
2, 26664, Note_off_c, 0, 65, 64
2, 26677, Note_off_c, 0, 63, 64
2, 26823, Note_on_c, 0, 72, 69
2, 26844, Note_on_c, 0, 51, 48
2, 26889, Note_on_c, 0, 60, 59
2, 26953, Note_on_c, 0, 68, 74
2, 26958, Control_c, 0, 64, 0
2, 26958, Control_c, 0, 64, 0
2, 26964, Note_on_c, 0, 80, 70
2, 26982, Control_c, 0, 64, 127
2, 26982, Control_c, 0, 64, 127
2, 27312, Note_off_c, 0, 51, 64
2, 27323, Note_off_c, 0, 68, 64
2, 27323, Note_off_c, 0, 72, 64
2, 27334, Note_off_c, 0, 80, 64
2, 27342, Note_off_c, 0, 60, 64
2, 27380, Note_on_c, 0, 68, 54
2, 27500, Note_on_c, 0, 67, 44
2, 27505, Note_on_c, 0, 51, 36
2, 27509, Note_on_c, 0, 58, 39
2, 27514, Control_c, 0, 64, 0
2, 27514, Control_c, 0, 64, 0
2, 27523, Note_on_c, 0, 61, 24
2, 27529, Note_off_c, 0, 68, 64
2, 27570, Control_c, 0, 64, 127
2, 27570, Control_c, 0, 64, 127
2, 27573, Note_off_c, 0, 39, 64
2, 27654, Note_on_c, 0, 56, 32
2, 27662, Note_on_c, 0, 65, 47
2, 27663, Note_off_c, 0, 58, 64
2, 27672, Note_off_c, 0, 67, 64
2, 27701, Control_c, 0, 64, 0
2, 27701, Control_c, 0, 64, 0
2, 27714, Note_on_c, 0, 55, 36
2, 27716, Note_on_c, 0, 63, 43
2, 27726, Note_off_c, 0, 56, 64
2, 27729, Note_off_c, 0, 65, 64
2, 27742, Control_c, 0, 64, 127
2, 27742, Control_c, 0, 64, 127
2, 27815, Note_off_c, 0, 51, 64
2, 27849, Note_off_c, 0, 55, 64
2, 27878, Note_on_c, 0, 51, 52
2, 27888, Note_on_c, 0, 73, 60
2, 27895, Note_off_c, 0, 61, 64
2, 27940, Note_off_c, 0, 63, 64
2, 28056, Control_c, 0, 64, 0
2, 28056, Control_c, 0, 64, 0
2, 28060, Note_off_c, 0, 51, 64
2, 28064, Note_on_c, 0, 44, 43
2, 28067, Note_on_c, 0, 72, 56
2, 28076, Note_off_c, 0, 73, 64
2, 28108, Control_c, 0, 64, 127
2, 28108, Control_c, 0, 64, 127
2, 28153, Note_on_c, 0, 70, 39
2, 28162, Note_off_c, 0, 72, 64
2, 28221, Note_on_c, 0, 51, 36
2, 28225, Note_off_c, 0, 44, 64
2, 28228, Note_on_c, 0, 68, 51
2, 28236, Note_on_c, 0, 56, 43
2, 28238, Note_on_c, 0, 60, 31
2, 28245, Control_c, 0, 64, 0
2, 28245, Control_c, 0, 64, 0
2, 28252, Note_off_c, 0, 70, 64
2, 28280, Control_c, 0, 64, 127
2, 28280, Control_c, 0, 64, 127
2, 28393, Note_on_c, 0, 52, 43
2, 28418, Note_off_c, 0, 51, 64
2, 28480, Note_on_c, 0, 67, 49
2, 28487, Note_off_c, 0, 68, 64
2, 28490, Note_off_c, 0, 56, 64
2, 28516, Note_off_c, 0, 60, 64
2, 28535, Note_off_c, 0, 52, 64
2, 28575, Note_on_c, 0, 65, 57
2, 28581, Control_c, 0, 64, 0
2, 28581, Control_c, 0, 64, 0
2, 28585, Note_on_c, 0, 37, 65
2, 28591, Note_off_c, 0, 67, 64
2, 28628, Control_c, 0, 64, 127
2, 28628, Control_c, 0, 64, 127
2, 28647, Note_off_c, 0, 65, 64
2, 28709, Note_on_c, 0, 68, 57
2, 28735, Note_off_c, 0, 68, 64
2, 28746, Note_off_c, 0, 37, 64
2, 28760, Note_on_c, 0, 56, 18
2, 28764, Note_on_c, 0, 68, 52
2, 28766, Note_on_c, 0, 53, 40
2, 28772, Note_on_c, 0, 61, 26
2, 28781, Control_c, 0, 64, 0
2, 28781, Control_c, 0, 64, 0
2, 28810, Control_c, 0, 64, 127
2, 28810, Control_c, 0, 64, 127
2, 28856, Note_off_c, 0, 68, 64
2, 28856, Note_on_c, 0, 70, 44
2, 28886, Note_off_c, 0, 56, 64
2, 28892, Note_off_c, 0, 53, 64
2, 28895, Note_on_c, 0, 68, 52
2, 28898, Note_off_c, 0, 61, 64
2, 28918, Note_off_c, 0, 70, 64
2, 28952, Note_on_c, 0, 67, 34
2, 28979, Note_off_c, 0, 68, 64
2, 29030, Note_off_c, 0, 67, 64
2, 29038, Note_on_c, 0, 65, 39
2, 29110, Control_c, 0, 64, 0
2, 29110, Control_c, 0, 64, 0
2, 29119, Note_on_c, 0, 63, 56
2, 29125, Note_on_c, 0, 39, 51
2, 29136, Note_off_c, 0, 65, 64
2, 29140, Control_c, 0, 64, 127
2, 29140, Control_c, 0, 64, 127
2, 29151, Note_off_c, 0, 63, 64
2, 29295, Note_on_c, 0, 72, 56
2, 29328, Note_on_c, 0, 51, 56
2, 29387, Note_on_c, 0, 60, 59
2, 29437, Note_on_c, 0, 68, 69
2, 29439, Note_on_c, 0, 84, 86
2, 29462, Control_c, 0, 64, 0
2, 29462, Control_c, 0, 64, 0
2, 29485, Control_c, 0, 64, 127
2, 29485, Control_c, 0, 64, 127
2, 29638, Note_off_c, 0, 60, 64
2, 29703, Note_off_c, 0, 68, 64
2, 29704, Note_on_c, 0, 82, 59
2, 29721, Note_off_c, 0, 39, 64
2, 29739, Note_off_c, 0, 84, 64
2, 29769, Note_on_c, 0, 80, 56
2, 29799, Note_off_c, 0, 82, 64
2, 29814, Note_off_c, 0, 51, 64
2, 29825, Note_off_c, 0, 72, 64
2, 29836, Note_on_c, 0, 77, 56
2, 29845, Note_off_c, 0, 80, 64
2, 29870, Control_c, 0, 64, 0
2, 29870, Control_c, 0, 64, 0
2, 29884, Note_on_c, 0, 39, 49
2, 29909, Control_c, 0, 64, 127
2, 29909, Control_c, 0, 64, 127
2, 29916, Note_on_c, 0, 79, 66
2, 29931, Note_off_c, 0, 77, 64
2, 30001, Note_on_c, 0, 77, 41
2, 30041, Note_off_c, 0, 79, 64
2, 30045, Note_off_c, 0, 39, 64
2, 30060, Control_c, 0, 64, 0
2, 30060, Control_c, 0, 64, 0
2, 30071, Note_on_c, 0, 51, 36
2, 30075, Note_on_c, 0, 61, 29
2, 30080, Note_on_c, 0, 75, 54
2, 30088, Control_c, 0, 64, 127
2, 30088, Control_c, 0, 64, 127
2, 30102, Note_off_c, 0, 77, 64
2, 30144, Note_off_c, 0, 51, 64
2, 30148, Note_off_c, 0, 61, 64
2, 30162, Note_on_c, 0, 73, 48
2, 30169, Note_off_c, 0, 75, 64
2, 30232, Note_off_c, 0, 73, 64
2, 30232, Note_on_c, 0, 70, 64
2, 30248, Note_on_c, 0, 61, 31
2, 30254, Note_on_c, 0, 51, 29
2, 30309, Note_off_c, 0, 70, 64
2, 30314, Note_on_c, 0, 65, 56
2, 30321, Note_off_c, 0, 61, 64
2, 30327, Note_off_c, 0, 51, 64
2, 30389, Note_off_c, 0, 65, 64
2, 30396, Note_on_c, 0, 63, 51
2, 30406, Control_c, 0, 64, 0
2, 30406, Control_c, 0, 64, 0
2, 30420, Note_on_c, 0, 44, 32
2, 30463, Control_c, 0, 64, 127
2, 30463, Control_c, 0, 64, 127
2, 30508, Note_off_c, 0, 63, 64
2, 30556, Note_on_c, 0, 72, 39
2, 30572, Note_off_c, 0, 44, 64
2, 30611, Note_on_c, 0, 51, 26
2, 30612, Note_on_c, 0, 68, 36
2, 30623, Note_on_c, 0, 60, 31
2, 30630, Control_c, 0, 64, 0
2, 30630, Control_c, 0, 64, 0
2, 30634, Note_off_c, 0, 72, 64
2, 30666, Control_c, 0, 64, 127
2, 30666, Control_c, 0, 64, 127
2, 30779, Note_off_c, 0, 68, 64
2, 30840, Note_on_c, 0, 68, 40
2, 30845, Note_on_c, 0, 72, 46
2, 30851, Note_off_c, 0, 51, 64
2, 30863, Note_off_c, 0, 60, 64
2, 31016, Note_on_c, 0, 59, 32
2, 31019, Note_on_c, 0, 74, 47
2, 31019, Note_on_c, 0, 65, 31
2, 31033, Note_off_c, 0, 72, 64
2, 31034, Control_c, 0, 64, 0
2, 31034, Control_c, 0, 64, 0
2, 31065, Control_c, 0, 64, 127
2, 31065, Control_c, 0, 64, 127
2, 31180, Note_on_c, 0, 67, 27
2, 31183, Note_on_c, 0, 75, 49
2, 31184, Note_on_c, 0, 63, 27
2, 31184, Note_on_c, 0, 60, 27
2, 31192, Note_off_c, 0, 74, 64
2, 31197, Control_c, 0, 64, 0
2, 31197, Control_c, 0, 64, 0
2, 31214, Note_off_c, 0, 59, 64
2, 31216, Control_c, 0, 64, 127
2, 31216, Control_c, 0, 64, 127
2, 31217, Note_off_c, 0, 65, 64
2, 31222, Note_off_c, 0, 68, 64
2, 31245, Note_off_c, 0, 67, 64
2, 31249, Note_off_c, 0, 60, 64
2, 31249, Note_off_c, 0, 63, 64
2, 31266, Note_on_c, 0, 73, 44
2, 31271, Note_off_c, 0, 75, 64
2, 31341, Note_on_c, 0, 72, 44
2, 31344, Note_on_c, 0, 66, 40
2, 31344, Note_on_c, 0, 63, 17
2, 31348, Note_on_c, 0, 57, 39
2, 31349, Note_off_c, 0, 73, 64
2, 31365, Control_c, 0, 64, 0
2, 31365, Control_c, 0, 64, 0
2, 31396, Control_c, 0, 64, 127
2, 31396, Control_c, 0, 64, 127
2, 31504, Note_on_c, 0, 73, 47
2, 31508, Note_off_c, 0, 72, 64
2, 31508, Note_on_c, 0, 65, 29
2, 31508, Note_on_c, 0, 61, 40
2, 31510, Note_on_c, 0, 58, 27
2, 31511, Note_off_c, 0, 63, 64
2, 31511, Note_off_c, 0, 66, 64
2, 31515, Note_off_c, 0, 57, 64
2, 31523, Control_c, 0, 64, 0
2, 31523, Control_c, 0, 64, 0
2, 31546, Control_c, 0, 64, 127
2, 31546, Control_c, 0, 64, 127
2, 31573, Note_off_c, 0, 61, 64
2, 31573, Note_off_c, 0, 65, 64
2, 31575, Note_off_c, 0, 58, 64
2, 31582, Note_on_c, 0, 72, 49
2, 31586, Note_off_c, 0, 73, 64
2, 31648, Note_on_c, 0, 70, 47
2, 31648, Note_on_c, 0, 64, 32
2, 31648, Note_on_c, 0, 61, 27
2, 31648, Note_on_c, 0, 55, 24
2, 31661, Note_off_c, 0, 72, 64
2, 31675, Control_c, 0, 64, 0
2, 31675, Control_c, 0, 64, 0
2, 31720, Control_c, 0, 64, 127
2, 31720, Control_c, 0, 64, 127
2, 31832, Note_on_c, 0, 60, 13
2, 31835, Note_on_c, 0, 56, 24
2, 31836, Note_on_c, 0, 72, 40
2, 31836, Note_on_c, 0, 63, 19
2, 31848, Note_off_c, 0, 55, 64
2, 31848, Note_off_c, 0, 61, 64
2, 31848, Note_off_c, 0, 64, 64
2, 31852, Note_off_c, 0, 70, 64
2, 31854, Control_c, 0, 64, 0
2, 31854, Control_c, 0, 64, 0
2, 31877, Control_c, 0, 64, 127
2, 31877, Control_c, 0, 64, 127
2, 32031, Note_on_c, 0, 74, 40
2, 32032, Note_off_c, 0, 60, 64
2, 32035, Note_off_c, 0, 56, 64
2, 32036, Note_off_c, 0, 63, 64
2, 32036, Note_off_c, 0, 72, 64
2, 32037, Note_on_c, 0, 59, 29
2, 32044, Note_on_c, 0, 68, 26
2, 32045, Note_on_c, 0, 65, 26
2, 32063, Control_c, 0, 64, 0
2, 32063, Control_c, 0, 64, 0
2, 32117, Control_c, 0, 64, 127
2, 32117, Control_c, 0, 64, 127
2, 32224, Note_on_c, 0, 63, 40
2, 32224, Note_on_c, 0, 60, 21
2, 32226, Note_on_c, 0, 75, 40
2, 32228, Note_on_c, 0, 67, 19
2, 32235, Note_off_c, 0, 74, 64
2, 32241, Note_off_c, 0, 59, 64
2, 32248, Note_off_c, 0, 68, 64
2, 32249, Note_off_c, 0, 65, 64
2, 32251, Control_c, 0, 64, 0
2, 32251, Control_c, 0, 64, 0
2, 32267, Control_c, 0, 64, 127
2, 32267, Control_c, 0, 64, 127
2, 32289, Note_off_c, 0, 60, 64
2, 32289, Note_off_c, 0, 63, 64
2, 32293, Note_off_c, 0, 67, 64
2, 32303, Note_off_c, 0, 75, 64
2, 32303, Note_on_c, 0, 73, 44
2, 32380, Note_on_c, 0, 72, 40
2, 32384, Note_on_c, 0, 66, 11
2, 32384, Note_on_c, 0, 63, 32
2, 32388, Note_on_c, 0, 57, 32
2, 32389, Note_off_c, 0, 73, 64
2, 32401, Control_c, 0, 64, 0
2, 32401, Control_c, 0, 64, 0
2, 32436, Control_c, 0, 64, 127
2, 32436, Control_c, 0, 64, 127
2, 32536, Note_on_c, 0, 61, 17
2, 32538, Note_on_c, 0, 58, 29
2, 32544, Note_on_c, 0, 65, 31
2, 32545, Note_on_c, 0, 73, 46
2, 32552, Note_off_c, 0, 72, 64
2, 32556, Note_off_c, 0, 63, 64
2, 32556, Note_off_c, 0, 66, 64
2, 32560, Note_off_c, 0, 57, 64
2, 32560, Control_c, 0, 64, 0
2, 32560, Control_c, 0, 64, 0
2, 32583, Control_c, 0, 64, 127
2, 32583, Control_c, 0, 64, 127
2, 32601, Note_off_c, 0, 61, 64
2, 32603, Note_off_c, 0, 58, 64
2, 32609, Note_off_c, 0, 65, 64
2, 32627, Note_on_c, 0, 72, 50
2, 32638, Note_off_c, 0, 73, 64
2, 32700, Note_on_c, 0, 70, 54
2, 32704, Note_on_c, 0, 61, 40
2, 32705, Note_on_c, 0, 64, 32
2, 32706, Note_on_c, 0, 55, 29
2, 32711, Note_off_c, 0, 72, 64
2, 32720, Control_c, 0, 64, 0
2, 32720, Control_c, 0, 64, 0
2, 32758, Control_c, 0, 64, 127
2, 32758, Control_c, 0, 64, 127
2, 32882, Note_on_c, 0, 72, 47
2, 32886, Note_on_c, 0, 63, 14
2, 32888, Note_on_c, 0, 60, 32
2, 32892, Note_off_c, 0, 70, 64
2, 32895, Note_on_c, 0, 56, 31
2, 32896, Note_off_c, 0, 61, 64
2, 32897, Note_off_c, 0, 64, 64
2, 32898, Note_off_c, 0, 55, 64
2, 32906, Control_c, 0, 64, 0
2, 32906, Control_c, 0, 64, 0
2, 32928, Control_c, 0, 64, 127
2, 32928, Control_c, 0, 64, 127
2, 32962, Control_c, 0, 64, 0
2, 32962, Control_c, 0, 64, 0
2, 32978, Control_c, 0, 64, 0
2, 32978, Control_c, 0, 64, 0
2, 32978, Control_c, 0, 64, 0
2, 32978, Control_c, 0, 64, 0
2, 32986, Control_c, 0, 64, 0
2, 32986, Control_c, 0, 64, 0
2, 33078, Note_on_c, 0, 70, 49
2, 33078, Note_on_c, 0, 61, 39
2, 33078, Control_c, 0, 64, 0
2, 33078, Control_c, 0, 64, 0
2, 33085, Note_off_c, 0, 72, 64
2, 33087, Note_on_c, 0, 64, 40
2, 33087, Note_on_c, 0, 55, 29
2, 33089, Note_off_c, 0, 63, 64
2, 33091, Note_off_c, 0, 60, 64
2, 33098, Note_off_c, 0, 56, 64
2, 33127, Control_c, 0, 64, 127
2, 33127, Control_c, 0, 64, 127
2, 33264, Control_c, 0, 64, 0
2, 33264, Control_c, 0, 64, 0
2, 33271, Note_on_c, 0, 72, 43
2, 33272, Note_on_c, 0, 63, 35
2, 33273, Note_on_c, 0, 60, 31
2, 33274, Note_on_c, 0, 56, 29
2, 33281, Note_off_c, 0, 61, 64
2, 33281, Note_off_c, 0, 70, 64
2, 33287, Control_c, 0, 64, 127
2, 33287, Control_c, 0, 64, 127
2, 33290, Note_off_c, 0, 55, 64
2, 33290, Note_off_c, 0, 64, 64
2, 33337, Note_off_c, 0, 63, 64
2, 33338, Note_off_c, 0, 60, 64
2, 33339, Note_off_c, 0, 56, 64
2, 33341, Note_on_c, 0, 70, 41
2, 33351, Note_off_c, 0, 72, 64
2, 33422, Note_on_c, 0, 68, 40
2, 33428, Note_on_c, 0, 62, 31
2, 33432, Note_on_c, 0, 59, 35
2, 33436, Note_off_c, 0, 70, 64
2, 33436, Note_on_c, 0, 53, 29
2, 33441, Control_c, 0, 64, 0
2, 33441, Control_c, 0, 64, 0
2, 33465, Control_c, 0, 64, 127
2, 33465, Control_c, 0, 64, 127
2, 33577, Note_on_c, 0, 70, 40
2, 33581, Note_off_c, 0, 68, 64
2, 33584, Note_on_c, 0, 58, 14
2, 33587, Note_off_c, 0, 62, 64
2, 33587, Note_on_c, 0, 61, 29
2, 33589, Note_on_c, 0, 55, 29
2, 33591, Note_off_c, 0, 59, 64
2, 33595, Note_off_c, 0, 53, 64
2, 33598, Control_c, 0, 64, 0
2, 33598, Control_c, 0, 64, 0
2, 33621, Control_c, 0, 64, 127
2, 33621, Control_c, 0, 64, 127
2, 33649, Note_off_c, 0, 58, 64
2, 33652, Note_off_c, 0, 61, 64
2, 33654, Note_off_c, 0, 55, 64
2, 33657, Note_on_c, 0, 68, 34
2, 33666, Note_off_c, 0, 70, 64
2, 33728, Note_on_c, 0, 67, 36
2, 33728, Note_on_c, 0, 60, 36
2, 33736, Note_on_c, 0, 52, 29
2, 33740, Note_on_c, 0, 58, 32
2, 33743, Note_off_c, 0, 68, 64
2, 33753, Control_c, 0, 64, 0
2, 33753, Control_c, 0, 64, 0
2, 33778, Control_c, 0, 64, 127
2, 33778, Control_c, 0, 64, 127
2, 33897, Note_on_c, 0, 68, 39
2, 33903, Note_off_c, 0, 60, 64
2, 33903, Note_off_c, 0, 67, 64
2, 33906, Note_on_c, 0, 56, 21
2, 33910, Note_on_c, 0, 53, 18
2, 33911, Note_off_c, 0, 52, 64
2, 33915, Note_off_c, 0, 58, 64
2, 33918, Note_on_c, 0, 60, 18
2, 33929, Control_c, 0, 64, 0
2, 33929, Control_c, 0, 64, 0
2, 33969, Control_c, 0, 64, 127
2, 33969, Control_c, 0, 64, 127
2, 34093, Note_on_c, 0, 67, 35
2, 34102, Note_on_c, 0, 52, 26
2, 34106, Note_off_c, 0, 56, 64
2, 34107, Note_on_c, 0, 58, 26
2, 34110, Note_off_c, 0, 53, 64
2, 34112, Note_off_c, 0, 68, 64
2, 34116, Control_c, 0, 64, 0
2, 34116, Control_c, 0, 64, 0
2, 34118, Note_off_c, 0, 60, 64
2, 34120, Note_on_c, 0, 60, 18
2, 34161, Control_c, 0, 64, 127
2, 34161, Control_c, 0, 64, 127
2, 34302, Note_off_c, 0, 52, 64
2, 34307, Note_off_c, 0, 58, 64
2, 34309, Note_on_c, 0, 68, 32
2, 34315, Note_on_c, 0, 53, 17
2, 34320, Note_off_c, 0, 60, 64
2, 34323, Note_on_c, 0, 56, 19
2, 34330, Note_on_c, 0, 60, 18
2, 34334, Note_off_c, 0, 67, 64
2, 34338, Control_c, 0, 64, 0
2, 34338, Control_c, 0, 64, 0
2, 34380, Control_c, 0, 64, 127
2, 34380, Control_c, 0, 64, 127
2, 34415, Note_on_c, 0, 67, 29
2, 34493, Note_off_c, 0, 68, 64
2, 34544, Note_on_c, 0, 59, 24
2, 34545, Note_off_c, 0, 53, 64
2, 34548, Note_on_c, 0, 65, 32
2, 34549, Note_on_c, 0, 49, 24
2, 34553, Note_off_c, 0, 56, 64
2, 34555, Note_on_c, 0, 55, 26
2, 34560, Note_off_c, 0, 60, 64
2, 34576, Control_c, 0, 64, 0
2, 34576, Control_c, 0, 64, 0
2, 34585, Note_off_c, 0, 67, 64
2, 34611, Control_c, 0, 64, 127
2, 34611, Control_c, 0, 64, 127
2, 34861, Note_off_c, 0, 59, 64
2, 34866, Note_off_c, 0, 49, 64
2, 34872, Note_off_c, 0, 55, 64
2, 34875, Note_on_c, 0, 64, 29
2, 34881, Note_on_c, 0, 55, 26
2, 34887, Note_off_c, 0, 65, 64
2, 34901, Note_on_c, 0, 48, 21
2, 34913, Control_c, 0, 64, 0
2, 34913, Control_c, 0, 64, 0
2, 34980, Control_c, 0, 64, 127
2, 34980, Control_c, 0, 64, 127
2, 35070, Note_on_c, 0, 67, 24
2, 35214, Note_on_c, 0, 60, 29
2, 35228, Note_off_c, 0, 67, 64
2, 35251, Control_c, 0, 64, 0
2, 35251, Control_c, 0, 64, 0
2, 35283, Control_c, 0, 64, 127
2, 35283, Control_c, 0, 64, 127
2, 35591, Note_on_c, 0, 72, 44
2, 35640, Control_c, 0, 64, 0
2, 35640, Control_c, 0, 64, 0
2, 35652, Control_c, 0, 64, 127
2, 35652, Control_c, 0, 64, 127
2, 35868, Note_off_c, 0, 72, 64
2, 35915, Note_on_c, 0, 72, 44
2, 36340, Note_off_c, 0, 72, 64
2, 36414, Note_on_c, 0, 72, 27
2, 36662, Note_off_c, 0, 72, 64
2, 36734, Note_on_c, 0, 72, 24
2, 37329, Note_off_c, 0, 72, 64
2, 37353, Note_on_c, 0, 72, 23
2, 37790, Note_off_c, 0, 72, 64
2, 37880, Note_on_c, 0, 72, 23
2, 38061, Note_off_c, 0, 60, 64
2, 38830, Note_off_c, 0, 48, 64
2, 38853, Note_off_c, 0, 55, 64
2, 38853, Note_off_c, 0, 64, 64
2, 38910, Note_on_c, 0, 70, 44
2, 38924, Note_off_c, 0, 72, 64
2, 39034, Note_on_c, 0, 68, 39
2, 39057, Note_off_c, 0, 70, 64
2, 39144, Note_on_c, 0, 67, 49
2, 39161, Note_on_c, 0, 51, 19
2, 39165, Note_on_c, 0, 58, 24
2, 39168, Note_on_c, 0, 61, 26
2, 39169, Control_c, 0, 64, 0
2, 39169, Control_c, 0, 64, 0
2, 39176, Note_off_c, 0, 68, 64
2, 39213, Control_c, 0, 64, 127
2, 39213, Control_c, 0, 64, 127
2, 39288, Note_on_c, 0, 65, 40
2, 39293, Note_on_c, 0, 56, 29
2, 39298, Note_off_c, 0, 67, 64
2, 39303, Note_off_c, 0, 58, 64
2, 39336, Control_c, 0, 64, 0
2, 39336, Control_c, 0, 64, 0
2, 39342, Note_on_c, 0, 63, 44
2, 39356, Note_off_c, 0, 65, 64
2, 39366, Note_off_c, 0, 56, 64
2, 39372, Note_on_c, 0, 55, 19
2, 39392, Control_c, 0, 64, 127
2, 39392, Control_c, 0, 64, 127
2, 39474, Note_off_c, 0, 51, 64
2, 39490, Note_off_c, 0, 55, 64
2, 39496, Note_off_c, 0, 61, 64
2, 39519, Note_on_c, 0, 51, 39
2, 39590, Note_off_c, 0, 63, 64
2, 39605, Note_on_c, 0, 73, 44
2, 39682, Note_off_c, 0, 51, 64
2, 39719, Note_on_c, 0, 44, 44
2, 39722, Note_on_c, 0, 72, 52
2, 39730, Control_c, 0, 64, 0
2, 39730, Control_c, 0, 64, 0
2, 39744, Note_off_c, 0, 73, 64
2, 39770, Control_c, 0, 64, 127
2, 39770, Control_c, 0, 64, 127
2, 39794, Note_off_c, 0, 72, 64
2, 39800, Note_on_c, 0, 68, 41
2, 39833, Note_off_c, 0, 68, 64
2, 39862, Note_on_c, 0, 68, 57
2, 39880, Note_off_c, 0, 44, 64
2, 39902, Control_c, 0, 64, 0
2, 39902, Control_c, 0, 64, 0
2, 39909, Note_on_c, 0, 51, 27
2, 39915, Note_on_c, 0, 56, 26
2, 39922, Note_on_c, 0, 60, 31
2, 39925, Note_on_c, 0, 77, 51
2, 39945, Control_c, 0, 64, 127
2, 39945, Control_c, 0, 64, 127
2, 39954, Note_off_c, 0, 68, 64
2, 39982, Note_off_c, 0, 51, 64
2, 39988, Note_off_c, 0, 56, 64
2, 39995, Note_off_c, 0, 60, 64
2, 40095, Note_on_c, 0, 60, 18
2, 40103, Note_on_c, 0, 51, 34
2, 40111, Note_on_c, 0, 56, 27
2, 40160, Note_on_c, 0, 75, 43
2, 40166, Note_off_c, 0, 77, 64
2, 40168, Note_off_c, 0, 60, 64
2, 40176, Note_off_c, 0, 51, 64
2, 40184, Note_off_c, 0, 56, 64
2, 40246, Note_off_c, 0, 75, 64
2, 40262, Note_on_c, 0, 67, 54
2, 40272, Note_on_c, 0, 51, 44
2, 40281, Note_on_c, 0, 61, 34
2, 40291, Note_on_c, 0, 58, 34
2, 40301, Control_c, 0, 64, 0
2, 40301, Control_c, 0, 64, 0
2, 40331, Control_c, 0, 64, 127
2, 40331, Control_c, 0, 64, 127
2, 40384, Note_on_c, 0, 56, 35
2, 40397, Note_on_c, 0, 65, 52
2, 40399, Note_off_c, 0, 51, 64
2, 40402, Note_off_c, 0, 67, 64
2, 40417, Note_off_c, 0, 58, 64
2, 40440, Note_off_c, 0, 61, 64
2, 40440, Note_on_c, 0, 55, 17
2, 40445, Control_c, 0, 64, 0
2, 40445, Control_c, 0, 64, 0
2, 40451, Note_on_c, 0, 63, 51
2, 40457, Note_off_c, 0, 56, 64
2, 40475, Note_off_c, 0, 65, 64
2, 40489, Control_c, 0, 64, 127
2, 40489, Control_c, 0, 64, 127
2, 40614, Note_on_c, 0, 51, 47
2, 40621, Note_off_c, 0, 55, 64
2, 40623, Note_on_c, 0, 73, 52
2, 40634, Note_off_c, 0, 63, 64
2, 40800, Note_on_c, 0, 72, 57
2, 40803, Control_c, 0, 64, 0
2, 40803, Control_c, 0, 64, 0
2, 40809, Note_on_c, 0, 44, 43
2, 40814, Note_off_c, 0, 51, 64
2, 40832, Note_off_c, 0, 73, 64
2, 40851, Control_c, 0, 64, 127
2, 40851, Control_c, 0, 64, 127
2, 40882, Note_on_c, 0, 70, 47
2, 40891, Note_off_c, 0, 72, 64
2, 40959, Note_on_c, 0, 68, 52
2, 40969, Note_on_c, 0, 51, 41
2, 40970, Note_off_c, 0, 44, 64
2, 40982, Note_on_c, 0, 60, 32
2, 40982, Note_on_c, 0, 56, 34
2, 40983, Note_off_c, 0, 70, 64
2, 40988, Control_c, 0, 64, 0
2, 40988, Control_c, 0, 64, 0
2, 41032, Control_c, 0, 64, 127
2, 41032, Control_c, 0, 64, 127
2, 41125, Note_on_c, 0, 52, 40
2, 41157, Note_off_c, 0, 51, 64
2, 41205, Note_on_c, 0, 67, 48
2, 41216, Note_off_c, 0, 68, 64
2, 41222, Note_off_c, 0, 56, 64
2, 41240, Note_off_c, 0, 60, 64
2, 41306, Note_on_c, 0, 37, 49
2, 41307, Note_on_c, 0, 65, 54
2, 41319, Note_off_c, 0, 52, 64
2, 41320, Note_off_c, 0, 67, 64
2, 41322, Control_c, 0, 64, 0
2, 41322, Control_c, 0, 64, 0
2, 41343, Control_c, 0, 64, 127
2, 41343, Control_c, 0, 64, 127
2, 41377, Note_off_c, 0, 65, 64
2, 41428, Note_on_c, 0, 68, 59
2, 41456, Note_off_c, 0, 68, 64
2, 41467, Note_off_c, 0, 37, 64
2, 41480, Note_on_c, 0, 53, 34
2, 41487, Control_c, 0, 64, 0
2, 41487, Control_c, 0, 64, 0
2, 41488, Note_on_c, 0, 56, 40
2, 41490, Note_on_c, 0, 68, 60
2, 41494, Note_on_c, 0, 61, 32
2, 41527, Control_c, 0, 64, 127
2, 41527, Control_c, 0, 64, 127
2, 41569, Note_on_c, 0, 70, 52
2, 41572, Note_off_c, 0, 68, 64
2, 41606, Note_off_c, 0, 53, 64
2, 41607, Note_on_c, 0, 68, 59
2, 41614, Note_off_c, 0, 56, 64
2, 41620, Note_off_c, 0, 61, 64
2, 41632, Note_off_c, 0, 70, 64
2, 41672, Note_on_c, 0, 67, 44
2, 41690, Note_off_c, 0, 68, 64
2, 41752, Note_on_c, 0, 65, 49
2, 41757, Note_off_c, 0, 67, 64
2, 41803, Control_c, 0, 64, 0
2, 41803, Control_c, 0, 64, 0
2, 41826, Note_on_c, 0, 63, 54
2, 41829, Note_on_c, 0, 39, 44
2, 41837, Note_off_c, 0, 65, 64
2, 41842, Control_c, 0, 64, 127
2, 41842, Control_c, 0, 64, 127
2, 41863, Note_off_c, 0, 63, 64
2, 42016, Note_on_c, 0, 72, 57
2, 42039, Note_on_c, 0, 51, 62
2, 42099, Note_on_c, 0, 60, 59
2, 42144, Note_on_c, 0, 68, 78
2, 42152, Note_on_c, 0, 80, 77
2, 42279, Control_c, 0, 64, 0
2, 42279, Control_c, 0, 64, 0
2, 42404, Note_off_c, 0, 68, 64
2, 42515, Note_off_c, 0, 60, 64
2, 42564, Note_on_c, 0, 68, 56
2, 42587, Note_off_c, 0, 72, 64
2, 42591, Note_off_c, 0, 80, 64
2, 42609, Note_off_c, 0, 51, 64
2, 42659, Control_c, 0, 64, 0
2, 42659, Control_c, 0, 64, 0
2, 42664, Note_on_c, 0, 51, 47
2, 42669, Note_on_c, 0, 67, 49
2, 42672, Note_on_c, 0, 58, 43
2, 42675, Note_on_c, 0, 61, 34
2, 42691, Note_off_c, 0, 68, 64
2, 42713, Note_off_c, 0, 39, 64
2, 42716, Control_c, 0, 64, 127
2, 42716, Control_c, 0, 64, 127
2, 42797, Note_off_c, 0, 58, 64
2, 42798, Note_on_c, 0, 56, 32
2, 42804, Note_on_c, 0, 65, 48
2, 42813, Note_off_c, 0, 67, 64
2, 42850, Control_c, 0, 64, 0
2, 42850, Control_c, 0, 64, 0
2, 42855, Note_on_c, 0, 63, 48
2, 42865, Note_off_c, 0, 65, 64
2, 42870, Note_on_c, 0, 55, 23
2, 42877, Control_c, 0, 64, 127
2, 42877, Control_c, 0, 64, 127
2, 42880, Note_off_c, 0, 56, 64
2, 42950, Note_off_c, 0, 51, 64
2, 42971, Note_off_c, 0, 55, 64
2, 42975, Note_off_c, 0, 61, 64
2, 43007, Note_on_c, 0, 51, 47
2, 43016, Note_on_c, 0, 73, 56
2, 43032, Note_off_c, 0, 63, 64
2, 43181, Note_on_c, 0, 44, 36
2, 43184, Note_off_c, 0, 51, 64
2, 43194, Note_on_c, 0, 72, 56
2, 43205, Control_c, 0, 64, 0
2, 43205, Control_c, 0, 64, 0
2, 43207, Note_off_c, 0, 73, 64
2, 43250, Control_c, 0, 64, 127
2, 43250, Control_c, 0, 64, 127
2, 43270, Note_on_c, 0, 70, 54
2, 43279, Note_off_c, 0, 72, 64
2, 43336, Note_on_c, 0, 51, 32
2, 43342, Note_off_c, 0, 44, 64
2, 43347, Note_on_c, 0, 68, 65
2, 43355, Note_on_c, 0, 56, 31
2, 43358, Control_c, 0, 64, 0
2, 43358, Control_c, 0, 64, 0
2, 43364, Note_on_c, 0, 60, 19
2, 43368, Note_off_c, 0, 70, 64
2, 43394, Control_c, 0, 64, 127
2, 43394, Control_c, 0, 64, 127
2, 43507, Note_on_c, 0, 52, 47
2, 43523, Note_off_c, 0, 51, 64
2, 43598, Note_on_c, 0, 67, 49
2, 43610, Note_off_c, 0, 68, 64
2, 43655, Note_off_c, 0, 56, 64
2, 43659, Note_off_c, 0, 52, 64
2, 43664, Note_off_c, 0, 60, 64
2, 43680, Note_on_c, 0, 37, 49
2, 43680, Control_c, 0, 64, 0
2, 43680, Control_c, 0, 64, 0
2, 43691, Note_on_c, 0, 65, 56
2, 43709, Note_off_c, 0, 67, 64
2, 43728, Control_c, 0, 64, 127
2, 43728, Control_c, 0, 64, 127
2, 43763, Note_off_c, 0, 65, 64
2, 43817, Note_on_c, 0, 68, 59
2, 43840, Note_off_c, 0, 68, 64
2, 43841, Note_off_c, 0, 37, 64
2, 43871, Control_c, 0, 64, 0
2, 43871, Control_c, 0, 64, 0
2, 43879, Note_on_c, 0, 68, 60
2, 43879, Note_on_c, 0, 61, 51
2, 43879, Note_on_c, 0, 53, 40
2, 43886, Note_on_c, 0, 56, 32
2, 43914, Control_c, 0, 64, 127
2, 43914, Control_c, 0, 64, 127
2, 43959, Note_off_c, 0, 68, 64
2, 43959, Note_on_c, 0, 70, 43
2, 44000, Note_on_c, 0, 68, 51
2, 44005, Note_off_c, 0, 53, 64
2, 44005, Note_off_c, 0, 61, 64
2, 44012, Note_off_c, 0, 56, 64
2, 44022, Note_off_c, 0, 70, 64
2, 44061, Note_on_c, 0, 67, 36
2, 44083, Note_off_c, 0, 68, 64
2, 44140, Note_on_c, 0, 65, 44
2, 44146, Note_off_c, 0, 67, 64
2, 44194, Control_c, 0, 64, 0
2, 44194, Control_c, 0, 64, 0
2, 44204, Note_on_c, 0, 63, 56
2, 44209, Note_on_c, 0, 39, 54
2, 44218, Note_off_c, 0, 65, 64
2, 44225, Control_c, 0, 64, 127
2, 44225, Control_c, 0, 64, 127
2, 44238, Note_off_c, 0, 63, 64
2, 44369, Note_on_c, 0, 72, 62
2, 44392, Note_on_c, 0, 51, 57
2, 44443, Note_on_c, 0, 60, 62
2, 44496, Note_on_c, 0, 68, 73
2, 44506, Note_on_c, 0, 84, 100
2, 44513, Control_c, 0, 64, 0
2, 44513, Control_c, 0, 64, 0
2, 44535, Control_c, 0, 64, 127
2, 44535, Control_c, 0, 64, 127
2, 44763, Note_off_c, 0, 68, 64
2, 44805, Note_off_c, 0, 39, 64
2, 44855, Note_off_c, 0, 84, 64
2, 44861, Note_off_c, 0, 72, 64
2, 44868, Note_on_c, 0, 82, 66
2, 44921, Note_off_c, 0, 60, 64
2, 44922, Note_on_c, 0, 80, 56
2, 44958, Note_off_c, 0, 82, 64
2, 44987, Note_on_c, 0, 77, 39
2, 45001, Note_off_c, 0, 51, 64
2, 45003, Note_off_c, 0, 80, 64
2, 45050, Control_c, 0, 64, 0
2, 45050, Control_c, 0, 64, 0
2, 45055, Note_on_c, 0, 39, 36
2, 45059, Note_on_c, 0, 79, 54
2, 45067, Control_c, 0, 64, 127
2, 45067, Control_c, 0, 64, 127
2, 45081, Note_off_c, 0, 77, 64
2, 45154, Note_on_c, 0, 77, 34
2, 45167, Note_off_c, 0, 79, 64
2, 45216, Note_off_c, 0, 39, 64
2, 45225, Note_on_c, 0, 75, 51
2, 45229, Note_on_c, 0, 51, 34
2, 45236, Note_on_c, 0, 61, 31
2, 45248, Note_off_c, 0, 77, 64
2, 45302, Note_off_c, 0, 51, 64
2, 45306, Note_on_c, 0, 73, 43
2, 45309, Note_off_c, 0, 61, 64
2, 45318, Note_off_c, 0, 75, 64
2, 45376, Note_on_c, 0, 51, 34
2, 45377, Note_on_c, 0, 61, 31
2, 45383, Note_off_c, 0, 73, 64
2, 45383, Note_on_c, 0, 70, 56
2, 45449, Note_off_c, 0, 51, 64
2, 45450, Note_off_c, 0, 61, 64
2, 45468, Note_off_c, 0, 70, 64
2, 45471, Note_on_c, 0, 65, 27
2, 45526, Control_c, 0, 64, 0
2, 45526, Control_c, 0, 64, 0
2, 45534, Note_on_c, 0, 63, 49
2, 45541, Note_on_c, 0, 44, 34
2, 45543, Control_c, 0, 64, 127
2, 45543, Control_c, 0, 64, 127
2, 45549, Note_off_c, 0, 65, 64
2, 45614, Note_on_c, 0, 72, 56
2, 45639, Note_off_c, 0, 63, 64
2, 45684, Control_c, 0, 64, 0
2, 45684, Control_c, 0, 64, 0
2, 45689, Note_on_c, 0, 84, 44
2, 45698, Note_on_c, 0, 51, 34
2, 45702, Note_off_c, 0, 44, 64
2, 45705, Note_on_c, 0, 60, 34
2, 45712, Control_c, 0, 64, 127
2, 45712, Control_c, 0, 64, 127
2, 45730, Note_off_c, 0, 72, 64
2, 45770, Note_on_c, 0, 82, 51
2, 45771, Note_off_c, 0, 51, 64
2, 45778, Note_off_c, 0, 60, 64
2, 45789, Note_off_c, 0, 84, 64
2, 45843, Note_on_c, 0, 60, 27
2, 45849, Note_on_c, 0, 80, 44
2, 45858, Note_on_c, 0, 51, 19
2, 45864, Note_off_c, 0, 82, 64
2, 45916, Note_off_c, 0, 60, 64
2, 45918, Note_on_c, 0, 77, 40
2, 45922, Note_off_c, 0, 80, 64
2, 45931, Note_off_c, 0, 51, 64
2, 45984, Note_on_c, 0, 44, 39
2, 45989, Control_c, 0, 64, 0
2, 45989, Control_c, 0, 64, 0
2, 45996, Note_on_c, 0, 79, 48
2, 46000, Note_off_c, 0, 77, 64
2, 46019, Control_c, 0, 64, 127
2, 46019, Control_c, 0, 64, 127
2, 46065, Note_on_c, 0, 77, 27
2, 46077, Note_off_c, 0, 79, 64
2, 46130, Note_on_c, 0, 61, 24
2, 46130, Note_on_c, 0, 51, 24
2, 46131, Control_c, 0, 64, 0
2, 46131, Control_c, 0, 64, 0
2, 46138, Note_on_c, 0, 75, 51
2, 46145, Note_off_c, 0, 44, 64
2, 46150, Control_c, 0, 64, 127
2, 46150, Control_c, 0, 64, 127
2, 46159, Note_off_c, 0, 77, 64
2, 46196, Note_on_c, 0, 73, 35
2, 46203, Note_off_c, 0, 51, 64
2, 46203, Note_off_c, 0, 61, 64
2, 46213, Note_off_c, 0, 75, 64
2, 46273, Note_on_c, 0, 70, 51
2, 46276, Note_on_c, 0, 61, 32
2, 46278, Note_off_c, 0, 73, 64
2, 46282, Note_on_c, 0, 51, 26
2, 46342, Note_on_c, 0, 65, 44
2, 46349, Note_off_c, 0, 61, 64
2, 46355, Note_off_c, 0, 51, 64
2, 46355, Note_off_c, 0, 70, 64
2, 46396, Control_c, 0, 64, 0
2, 46396, Control_c, 0, 64, 0
2, 46410, Control_c, 0, 64, 127
2, 46410, Control_c, 0, 64, 127
2, 46420, Note_on_c, 0, 63, 35
2, 46420, Note_on_c, 0, 44, 26
2, 46430, Control_c, 0, 64, 0
2, 46430, Control_c, 0, 64, 0
2, 46447, Control_c, 0, 64, 127
2, 46447, Control_c, 0, 64, 127
2, 46451, Note_off_c, 0, 65, 64
2, 46496, Note_on_c, 0, 72, 54
2, 46505, Note_off_c, 0, 63, 64
2, 46548, Control_c, 0, 64, 0
2, 46548, Control_c, 0, 64, 0
2, 46552, Note_on_c, 0, 60, 27
2, 46554, Note_on_c, 0, 51, 14
2, 46562, Note_on_c, 0, 84, 35
2, 46578, Control_c, 0, 64, 127
2, 46578, Control_c, 0, 64, 127
2, 46581, Note_off_c, 0, 44, 64
2, 46596, Note_off_c, 0, 72, 64
2, 46621, Note_on_c, 0, 82, 39
2, 46625, Note_off_c, 0, 60, 64
2, 46627, Note_off_c, 0, 51, 64
2, 46641, Note_off_c, 0, 84, 64
2, 46686, Note_on_c, 0, 80, 47
2, 46696, Note_on_c, 0, 60, 31
2, 46710, Note_on_c, 0, 51, 14
2, 46712, Note_off_c, 0, 82, 64
2, 46755, Note_on_c, 0, 77, 36
2, 46760, Note_off_c, 0, 80, 64
2, 46769, Note_off_c, 0, 60, 64
2, 46783, Note_off_c, 0, 51, 64
2, 46832, Note_on_c, 0, 75, 35
2, 46836, Note_on_c, 0, 44, 43
2, 46860, Note_off_c, 0, 77, 64
2, 46895, Note_off_c, 0, 75, 64
2, 46909, Note_on_c, 0, 72, 49
2, 46978, Note_on_c, 0, 84, 47
2, 46984, Note_on_c, 0, 51, 31
2, 46987, Note_on_c, 0, 63, 27
2, 46997, Note_off_c, 0, 44, 64
2, 47046, Note_on_c, 0, 82, 39
2, 47057, Note_off_c, 0, 51, 64
2, 47059, Note_off_c, 0, 84, 64
2, 47060, Note_off_c, 0, 63, 64
2, 47096, Note_off_c, 0, 72, 64
2, 47118, Note_on_c, 0, 80, 40
2, 47120, Note_on_c, 0, 63, 36
2, 47128, Note_on_c, 0, 51, 27
2, 47144, Note_off_c, 0, 82, 64
2, 47187, Note_on_c, 0, 77, 35
2, 47193, Note_off_c, 0, 63, 64
2, 47196, Note_off_c, 0, 80, 64
2, 47201, Note_off_c, 0, 51, 64
2, 47250, Note_on_c, 0, 75, 44
2, 47256, Note_on_c, 0, 44, 43
2, 47257, Note_off_c, 0, 77, 64
2, 47323, Note_on_c, 0, 72, 34
2, 47325, Note_off_c, 0, 75, 64
2, 47392, Note_on_c, 0, 63, 41
2, 47392, Note_on_c, 0, 51, 34
2, 47400, Note_on_c, 0, 84, 35
2, 47400, Control_c, 0, 64, 0
2, 47400, Control_c, 0, 64, 0
2, 47414, Control_c, 0, 64, 127
2, 47414, Control_c, 0, 64, 127
2, 47417, Note_off_c, 0, 44, 64
2, 47465, Note_off_c, 0, 51, 64
2, 47465, Note_off_c, 0, 63, 64
2, 47469, Note_on_c, 0, 82, 34
2, 47520, Note_off_c, 0, 84, 64
2, 47541, Note_on_c, 0, 80, 36
2, 47544, Note_on_c, 0, 63, 32
2, 47556, Note_on_c, 0, 51, 21
2, 47565, Note_off_c, 0, 82, 64
2, 47587, Note_off_c, 0, 72, 64
2, 47617, Note_off_c, 0, 63, 64
2, 47619, Note_on_c, 0, 77, 34
2, 47629, Note_off_c, 0, 51, 64
2, 47632, Note_off_c, 0, 80, 64
2, 47689, Note_off_c, 0, 77, 64
2, 47691, Note_on_c, 0, 75, 35
2, 47698, Note_on_c, 0, 44, 35
2, 47710, Control_c, 0, 64, 0
2, 47710, Control_c, 0, 64, 0
2, 47739, Control_c, 0, 64, 127
2, 47739, Control_c, 0, 64, 127
2, 47777, Note_on_c, 0, 72, 31
2, 47783, Note_off_c, 0, 75, 64
2, 47859, Note_off_c, 0, 44, 64
2, 47873, Note_on_c, 0, 63, 26
2, 47877, Note_on_c, 0, 51, 17
2, 47883, Note_on_c, 0, 84, 34
2, 47946, Note_off_c, 0, 63, 64
2, 47950, Note_off_c, 0, 51, 64
2, 47957, Note_on_c, 0, 82, 34
2, 47975, Note_off_c, 0, 84, 64
2, 48036, Note_off_c, 0, 72, 64
2, 48045, Note_on_c, 0, 80, 32
2, 48071, Note_off_c, 0, 82, 64
2, 48139, Note_on_c, 0, 77, 21
2, 48151, Note_off_c, 0, 80, 64
2, 48227, Note_on_c, 0, 75, 31
2, 48231, Note_off_c, 0, 77, 64
2, 48328, Note_on_c, 0, 72, 32
2, 48338, Note_off_c, 0, 75, 64
2, 48420, Note_on_c, 0, 79, 31
2, 48449, Note_off_c, 0, 72, 64
2, 48459, Control_c, 0, 64, 0
2, 48459, Control_c, 0, 64, 0
2, 48481, Control_c, 0, 64, 127
2, 48481, Control_c, 0, 64, 127
2, 48519, Note_on_c, 0, 77, 26
2, 48532, Note_off_c, 0, 79, 64
2, 48636, Note_on_c, 0, 75, 24
2, 48654, Note_off_c, 0, 77, 64
2, 48738, Note_on_c, 0, 68, 29
2, 48754, Note_off_c, 0, 75, 64
2, 48925, Note_on_c, 0, 72, 18
2, 48928, Note_off_c, 0, 68, 64
2, 49140, Control_c, 0, 64, 0
2, 49140, Control_c, 0, 64, 0
2, 50295, Note_off_c, 0, 72, 64
2, 50295, End_track
3, 0, Start_track
3, 0, Title_t, "Played by Dr. Ron Lubetsky"
3, 0, End_track
4, 0, Start_track
4, 0, Title_t, "Feb. 12, 1998"
4, 0, End_track
5, 0, Start_track
5, 0, Title_t, "email: acuity2020@aol.com"
5, 0, End_track
6, 0, Start_track
6, 0, Title_t, "Copyright  1998"
6, 0, End_track
7, 0, Start_track
7, 0, Title_t, "All Rights Reserved"
7, 0, End_track
0, 0, End_of_file
