0, 0, Header, 1, 7, 240
1, 0, Start_track
1, 0, Time_signature, 4, 2, 24, 8
1, 0, Tempo, 500000
1, 0, Marker_t, "Chopin: Mazurka, Op. 67 No. 3 (posth.)- Allegretto"
1, 0, End_track
2, 0, Start_track
2, 0, Title_t, "Chopin: Op. 67 No. 3 (posth.) "
2, 0, Program_c, 0, 0
2, 0, Control_c, 0, 7, 127
2, 11, Note_on_c, 0, 67, 58
2, 71, Control_c, 0, 64, 127
2, 205, Note_on_c, 0, 48, 33
2, 256, Note_on_c, 0, 76, 72
2, 282, Control_c, 0, 64, 0
2, 287, Note_off_c, 0, 67, 64
2, 359, Control_c, 0, 64, 127
2, 529, Note_on_c, 0, 64, 41
2, 542, Note_on_c, 0, 55, 38
2, 610, Note_off_c, 0, 64, 64
2, 612, Note_off_c, 0, 55, 64
2, 633, Note_on_c, 0, 75, 53
2, 649, Note_off_c, 0, 76, 64
2, 725, Note_off_c, 0, 48, 64
2, 750, Note_on_c, 0, 64, 38
2, 750, Note_on_c, 0, 55, 53
2, 771, Note_on_c, 0, 77, 71
2, 786, Note_off_c, 0, 75, 64
2, 792, Note_off_c, 0, 64, 64
2, 796, Note_off_c, 0, 55, 64
2, 853, Note_on_c, 0, 76, 62
2, 909, Note_off_c, 0, 77, 64
2, 921, Note_on_c, 0, 48, 38
2, 937, Note_on_c, 0, 74, 72
2, 941, Control_c, 0, 64, 0
2, 967, Control_c, 0, 64, 127
2, 998, Note_off_c, 0, 76, 64
2, 1013, Note_on_c, 0, 73, 72
2, 1045, Note_off_c, 0, 74, 64
2, 1091, Note_on_c, 0, 76, 77
2, 1091, Note_on_c, 0, 57, 53
2, 1097, Control_c, 0, 64, 0
2, 1104, Note_on_c, 0, 54, 38
2, 1108, Note_on_c, 0, 62, 31
2, 1154, Control_c, 0, 64, 127
2, 1160, Note_off_c, 0, 57, 64
2, 1164, Note_off_c, 0, 62, 64
2, 1164, Note_off_c, 0, 73, 64
2, 1166, Note_off_c, 0, 54, 64
2, 1300, Note_on_c, 0, 54, 37
2, 1303, Note_on_c, 0, 74, 58
2, 1308, Note_on_c, 0, 62, 33
2, 1308, Note_on_c, 0, 57, 37
2, 1317, Note_off_c, 0, 76, 64
2, 1337, Note_off_c, 0, 48, 64
2, 1350, Note_off_c, 0, 62, 64
2, 1396, Note_off_c, 0, 57, 64
2, 1400, Note_off_c, 0, 54, 64
2, 1407, Note_off_c, 0, 74, 64
2, 1528, Note_on_c, 0, 48, 53
2, 1534, Note_on_c, 0, 74, 72
2, 1559, Control_c, 0, 64, 0
2, 1625, Control_c, 0, 64, 127
2, 1756, Note_on_c, 0, 56, 41
2, 1763, Note_on_c, 0, 59, 41
2, 1763, Note_on_c, 0, 53, 33
2, 1768, Note_on_c, 0, 62, 47
2, 1830, Note_off_c, 0, 56, 64
2, 1834, Note_off_c, 0, 59, 64
2, 1838, Note_off_c, 0, 53, 64
2, 1838, Note_on_c, 0, 73, 66
2, 1844, Note_off_c, 0, 62, 64
2, 1847, Note_off_c, 0, 74, 64
2, 1928, Note_on_c, 0, 76, 58
2, 1938, Note_on_c, 0, 62, 33
2, 1944, Note_on_c, 0, 59, 33
2, 1945, Note_on_c, 0, 56, 41
2, 1951, Note_on_c, 0, 53, 31
2, 1973, Note_off_c, 0, 73, 64
2, 1997, Note_off_c, 0, 53, 64
2, 2007, Note_off_c, 0, 59, 64
2, 2007, Note_off_c, 0, 48, 64
2, 2011, Note_off_c, 0, 56, 64
2, 2018, Note_on_c, 0, 74, 63
2, 2023, Note_off_c, 0, 62, 64
2, 2051, Note_off_c, 0, 76, 64
2, 2120, Note_off_c, 0, 74, 64
2, 2123, Note_on_c, 0, 72, 66
2, 2131, Note_on_c, 0, 48, 53
2, 2146, Note_on_c, 0, 74, 63
2, 2162, Note_off_c, 0, 72, 64
2, 2191, Note_on_c, 0, 72, 63
2, 2250, Note_off_c, 0, 74, 64
2, 2270, Note_on_c, 0, 71, 78
2, 2279, Note_off_c, 0, 72, 64
2, 2306, Control_c, 0, 64, 0
2, 2322, Note_on_c, 0, 52, 41
2, 2335, Note_on_c, 0, 55, 38
2, 2339, Note_on_c, 0, 60, 41
2, 2342, Note_on_c, 0, 74, 77
2, 2388, Note_off_c, 0, 71, 64
2, 2388, Control_c, 0, 64, 127
2, 2408, Note_off_c, 0, 52, 64
2, 2420, Note_off_c, 0, 55, 64
2, 2425, Note_off_c, 0, 60, 64
2, 2563, Note_on_c, 0, 72, 78
2, 2571, Note_on_c, 0, 52, 50
2, 2574, Note_on_c, 0, 60, 33
2, 2579, Note_on_c, 0, 55, 41
2, 2581, Note_off_c, 0, 74, 64
2, 2593, Note_off_c, 0, 48, 64
2, 2606, Note_off_c, 0, 60, 64
2, 2608, Note_off_c, 0, 55, 64
2, 2616, Note_off_c, 0, 52, 64
2, 2799, Note_on_c, 0, 69, 83
2, 2802, Note_on_c, 0, 42, 62
2, 2806, Note_off_c, 0, 72, 64
2, 2828, Control_c, 0, 64, 0
2, 2892, Control_c, 0, 64, 127
2, 3077, Note_on_c, 0, 60, 38
2, 3078, Note_on_c, 0, 57, 47
2, 3081, Note_on_c, 0, 50, 38
2, 3160, Note_on_c, 0, 68, 68
2, 3190, Note_off_c, 0, 69, 64
2, 3228, Note_off_c, 0, 50, 64
2, 3231, Note_off_c, 0, 57, 64
2, 3234, Note_off_c, 0, 42, 64
2, 3251, Note_off_c, 0, 60, 64
2, 3274, Note_on_c, 0, 71, 60
2, 3297, Note_off_c, 0, 68, 64
2, 3343, Note_on_c, 0, 69, 76
2, 3362, Note_off_c, 0, 71, 64
2, 3425, Note_on_c, 0, 43, 77
2, 3435, Control_c, 0, 64, 0
2, 3441, Note_on_c, 0, 67, 72
2, 3471, Control_c, 0, 64, 127
2, 3490, Note_off_c, 0, 69, 64
2, 3569, Note_on_c, 0, 72, 81
2, 3591, Note_off_c, 0, 67, 64
2, 3614, Note_on_c, 0, 76, 83
2, 3615, Note_on_c, 0, 60, 62
2, 3615, Note_on_c, 0, 52, 63
2, 3620, Note_on_c, 0, 55, 53
2, 3631, Control_c, 0, 64, 0
2, 3640, Note_off_c, 0, 72, 64
2, 3667, Control_c, 0, 64, 127
2, 3676, Note_off_c, 0, 55, 64
2, 3676, Note_off_c, 0, 52, 64
2, 3676, Note_off_c, 0, 60, 64
2, 3789, Note_on_c, 0, 52, 50
2, 3795, Note_on_c, 0, 60, 47
2, 3805, Note_on_c, 0, 55, 47
2, 3827, Note_off_c, 0, 55, 64
2, 3827, Note_off_c, 0, 60, 64
2, 3828, Note_off_c, 0, 52, 64
2, 3857, Note_off_c, 0, 43, 64
2, 3987, Note_on_c, 0, 43, 72
2, 3994, Control_c, 0, 64, 0
2, 4021, Control_c, 0, 64, 127
2, 4075, Note_off_c, 0, 76, 64
2, 4098, Note_on_c, 0, 74, 31
2, 4119, Note_on_c, 0, 76, 66
2, 4128, Note_off_c, 0, 74, 64
2, 4154, Note_on_c, 0, 74, 66
2, 4172, Note_off_c, 0, 76, 64
2, 4188, Note_on_c, 0, 53, 50
2, 4197, Note_on_c, 0, 59, 53
2, 4197, Control_c, 0, 64, 0
2, 4204, Note_on_c, 0, 73, 79
2, 4204, Note_on_c, 0, 55, 38
2, 4218, Note_off_c, 0, 74, 64
2, 4232, Control_c, 0, 64, 127
2, 4250, Note_off_c, 0, 55, 64
2, 4255, Note_off_c, 0, 53, 64
2, 4272, Note_off_c, 0, 59, 64
2, 4289, Note_on_c, 0, 74, 77
2, 4327, Note_off_c, 0, 73, 64
2, 4362, Note_on_c, 0, 76, 66
2, 4371, Note_on_c, 0, 53, 50
2, 4371, Note_on_c, 0, 59, 63
2, 4378, Note_on_c, 0, 55, 53
2, 4385, Note_off_c, 0, 74, 64
2, 4419, Note_off_c, 0, 43, 64
2, 4421, Note_off_c, 0, 59, 64
2, 4432, Note_off_c, 0, 55, 64
2, 4438, Note_off_c, 0, 53, 64
2, 4439, Note_on_c, 0, 77, 77
2, 4463, Note_off_c, 0, 76, 64
2, 4512, Note_on_c, 0, 48, 62
2, 4515, Note_on_c, 0, 81, 72
2, 4534, Control_c, 0, 64, 0
2, 4546, Note_off_c, 0, 77, 64
2, 4587, Control_c, 0, 64, 127
2, 4734, Note_on_c, 0, 63, 33
2, 4744, Note_on_c, 0, 54, 31
2, 4952, Note_on_c, 0, 79, 72
2, 4969, Note_off_c, 0, 81, 64
2, 4969, Note_on_c, 0, 55, 33
2, 4975, Note_off_c, 0, 48, 64
2, 4976, Note_on_c, 0, 64, 33
2, 5034, Note_off_c, 0, 63, 64
2, 5038, Note_off_c, 0, 54, 64
2, 5210, Note_off_c, 0, 79, 64
2, 5219, Note_on_c, 0, 48, 62
2, 5227, Note_off_c, 0, 55, 64
2, 5234, Note_off_c, 0, 64, 64
2, 5270, Note_on_c, 0, 76, 88
2, 5271, Note_on_c, 0, 67, 71
2, 5300, Control_c, 0, 64, 0
2, 5363, Control_c, 0, 64, 127
2, 5503, Note_on_c, 0, 64, 32
2, 5503, Note_on_c, 0, 55, 47
2, 5595, Note_on_c, 0, 66, 64
2, 5596, Note_on_c, 0, 75, 72
2, 5611, Note_off_c, 0, 55, 64
2, 5615, Note_off_c, 0, 64, 64
2, 5624, Note_off_c, 0, 76, 64
2, 5625, Note_off_c, 0, 67, 64
2, 5702, Note_on_c, 0, 69, 70
2, 5702, Note_on_c, 0, 77, 62
2, 5705, Note_on_c, 0, 64, 47
2, 5709, Note_on_c, 0, 55, 62
2, 5718, Note_off_c, 0, 75, 64
2, 5721, Note_off_c, 0, 66, 64
2, 5733, Note_off_c, 0, 48, 64
2, 5764, Note_off_c, 0, 64, 64
2, 5774, Note_off_c, 0, 55, 64
2, 5801, Note_on_c, 0, 76, 66
2, 5803, Note_on_c, 0, 67, 63
2, 5814, Note_off_c, 0, 77, 64
2, 5814, Note_off_c, 0, 69, 64
2, 5882, Note_on_c, 0, 74, 53
2, 5894, Note_off_c, 0, 76, 64
2, 5913, Note_on_c, 0, 76, 66
2, 5922, Note_off_c, 0, 74, 64
2, 5928, Note_on_c, 0, 48, 71
2, 5952, Note_on_c, 0, 66, 80
2, 5952, Note_on_c, 0, 74, 73
2, 5954, Control_c, 0, 64, 0
2, 5959, Note_off_c, 0, 67, 64
2, 5974, Note_off_c, 0, 76, 64
2, 6000, Control_c, 0, 64, 127
2, 6033, Note_on_c, 0, 73, 74
2, 6036, Note_on_c, 0, 65, 56
2, 6052, Note_off_c, 0, 74, 64
2, 6052, Note_off_c, 0, 66, 64
2, 6104, Control_c, 0, 64, 0
2, 6112, Note_on_c, 0, 76, 88
2, 6116, Note_on_c, 0, 67, 77
2, 6125, Note_on_c, 0, 62, 58
2, 6125, Note_on_c, 0, 57, 53
2, 6127, Note_on_c, 0, 54, 62
2, 6138, Control_c, 0, 64, 127
2, 6143, Note_off_c, 0, 73, 64
2, 6144, Note_off_c, 0, 65, 64
2, 6176, Note_off_c, 0, 57, 64
2, 6178, Note_off_c, 0, 54, 64
2, 6178, Note_off_c, 0, 62, 64
2, 6292, Note_on_c, 0, 74, 77
2, 6296, Note_on_c, 0, 57, 33
2, 6296, Note_on_c, 0, 54, 56
2, 6298, Note_on_c, 0, 66, 72
2, 6300, Note_on_c, 0, 62, 28
2, 6315, Note_off_c, 0, 48, 64
2, 6344, Note_off_c, 0, 57, 64
2, 6352, Note_off_c, 0, 76, 64
2, 6356, Note_off_c, 0, 67, 64
2, 6362, Note_off_c, 0, 54, 64
2, 6447, Note_off_c, 0, 74, 64
2, 6478, Note_on_c, 0, 74, 88
2, 6483, Note_on_c, 0, 65, 72
2, 6487, Note_off_c, 0, 62, 64
2, 6488, Note_on_c, 0, 48, 53
2, 6512, Control_c, 0, 64, 0
2, 6538, Note_off_c, 0, 66, 64
2, 6564, Control_c, 0, 64, 127
2, 6656, Note_on_c, 0, 56, 62
2, 6665, Note_on_c, 0, 53, 40
2, 6665, Note_on_c, 0, 59, 43
2, 6675, Note_on_c, 0, 62, 32
2, 6704, Note_off_c, 0, 65, 64
2, 6708, Note_off_c, 0, 74, 64
2, 6728, Note_on_c, 0, 64, 50
2, 6731, Note_off_c, 0, 59, 64
2, 6733, Note_on_c, 0, 73, 71
2, 6743, Note_off_c, 0, 56, 64
2, 6746, Note_off_c, 0, 53, 64
2, 6752, Note_off_c, 0, 62, 64
2, 6826, Note_on_c, 0, 76, 71
2, 6829, Note_on_c, 0, 67, 72
2, 6832, Note_on_c, 0, 53, 55
2, 6834, Note_on_c, 0, 62, 23
2, 6838, Note_on_c, 0, 56, 33
2, 6841, Note_on_c, 0, 59, 23
2, 6854, Note_off_c, 0, 64, 64
2, 6856, Note_off_c, 0, 73, 64
2, 6876, Note_off_c, 0, 59, 64
2, 6880, Note_off_c, 0, 62, 64
2, 6881, Note_off_c, 0, 48, 64
2, 6887, Note_off_c, 0, 56, 64
2, 6916, Note_on_c, 0, 65, 66
2, 6919, Note_on_c, 0, 74, 62
2, 6928, Note_off_c, 0, 53, 64
2, 6963, Note_off_c, 0, 76, 64
2, 6966, Note_off_c, 0, 67, 64
2, 6993, Note_on_c, 0, 72, 81
2, 7008, Note_off_c, 0, 74, 64
2, 7031, Note_off_c, 0, 72, 64
2, 7034, Note_on_c, 0, 74, 59
2, 7045, Note_on_c, 0, 48, 38
2, 7064, Note_on_c, 0, 72, 90
2, 7064, Note_on_c, 0, 64, 68
2, 7070, Note_off_c, 0, 65, 64
2, 7077, Control_c, 0, 64, 0
2, 7088, Note_off_c, 0, 74, 64
2, 7113, Control_c, 0, 64, 127
2, 7156, Note_on_c, 0, 63, 70
2, 7163, Note_on_c, 0, 71, 65
2, 7176, Note_off_c, 0, 64, 64
2, 7176, Note_off_c, 0, 72, 64
2, 7253, Note_on_c, 0, 74, 87
2, 7260, Note_on_c, 0, 65, 90
2, 7266, Control_c, 0, 64, 0
2, 7273, Note_off_c, 0, 63, 64
2, 7274, Note_on_c, 0, 60, 32
2, 7278, Note_on_c, 0, 52, 33
2, 7278, Note_on_c, 0, 55, 32
2, 7280, Note_off_c, 0, 71, 64
2, 7289, Control_c, 0, 64, 127
2, 7336, Note_off_c, 0, 52, 64
2, 7340, Note_off_c, 0, 55, 64
2, 7343, Note_off_c, 0, 60, 64
2, 7444, Note_on_c, 0, 60, 50
2, 7448, Note_on_c, 0, 64, 70
2, 7448, Note_on_c, 0, 72, 65
2, 7448, Note_on_c, 0, 55, 46
2, 7451, Note_on_c, 0, 52, 57
2, 7456, Note_off_c, 0, 48, 64
2, 7464, Note_off_c, 0, 65, 64
2, 7479, Note_off_c, 0, 60, 64
2, 7480, Note_off_c, 0, 55, 64
2, 7484, Note_off_c, 0, 52, 64
2, 7515, Note_off_c, 0, 74, 64
2, 7640, Note_on_c, 0, 69, 83
2, 7644, Note_on_c, 0, 65, 79
2, 7645, Note_off_c, 0, 72, 64
2, 7645, Note_off_c, 0, 64, 64
2, 7647, Note_on_c, 0, 41, 72
2, 7656, Control_c, 0, 64, 0
2, 7699, Control_c, 0, 64, 127
2, 7772, Note_on_c, 0, 71, 72
2, 7777, Note_off_c, 0, 69, 64
2, 7792, Note_on_c, 0, 69, 86
2, 7806, Note_off_c, 0, 71, 64
2, 7820, Note_on_c, 0, 71, 86
2, 7828, Note_off_c, 0, 69, 64
2, 7843, Note_on_c, 0, 69, 96
2, 7852, Note_off_c, 0, 71, 64
2, 7865, Note_on_c, 0, 57, 45
2, 7865, Note_on_c, 0, 53, 59
2, 7870, Note_on_c, 0, 60, 29
2, 7895, Note_off_c, 0, 65, 64
2, 7924, Note_off_c, 0, 53, 64
2, 7940, Note_off_c, 0, 57, 64
2, 7955, Note_off_c, 0, 60, 64
2, 7977, Note_on_c, 0, 68, 91
2, 7977, Note_on_c, 0, 64, 38
2, 7993, Note_off_c, 0, 69, 64
2, 7995, Note_off_c, 0, 41, 64
2, 8060, Note_on_c, 0, 60, 72
2, 8066, Note_on_c, 0, 53, 72
2, 8071, Note_on_c, 0, 57, 70
2, 8072, Note_on_c, 0, 71, 86
2, 8072, Note_on_c, 0, 67, 74
2, 8075, Note_off_c, 0, 64, 64
2, 8089, Note_off_c, 0, 68, 64
2, 8091, Note_off_c, 0, 57, 64
2, 8094, Note_off_c, 0, 60, 64
2, 8096, Note_off_c, 0, 53, 64
2, 8160, Note_on_c, 0, 69, 84
2, 8161, Note_on_c, 0, 65, 93
2, 8176, Note_off_c, 0, 67, 64
2, 8176, Note_off_c, 0, 71, 64
2, 8242, Note_on_c, 0, 43, 83
2, 8244, Note_on_c, 0, 64, 90
2, 8245, Note_on_c, 0, 67, 91
2, 8252, Control_c, 0, 64, 0
2, 8260, Note_off_c, 0, 69, 64
2, 8261, Note_off_c, 0, 65, 64
2, 8310, Control_c, 0, 64, 127
2, 8328, Note_off_c, 0, 67, 64
2, 8334, Note_off_c, 0, 64, 64
2, 8391, Note_on_c, 0, 64, 78
2, 8394, Note_on_c, 0, 72, 83
2, 8439, Note_on_c, 0, 67, 63
2, 8440, Note_on_c, 0, 76, 96
2, 8442, Note_on_c, 0, 52, 72
2, 8449, Note_on_c, 0, 60, 52
2, 8456, Control_c, 0, 64, 0
2, 8465, Note_off_c, 0, 64, 64
2, 8468, Note_off_c, 0, 72, 64
2, 8491, Control_c, 0, 64, 127
2, 8497, Note_off_c, 0, 52, 64
2, 8507, Note_off_c, 0, 60, 64
2, 8590, Note_off_c, 0, 43, 64
2, 8615, Note_on_c, 0, 60, 56
2, 8621, Note_on_c, 0, 52, 70
2, 8649, Note_off_c, 0, 60, 64
2, 8658, Note_off_c, 0, 52, 64
2, 8802, Note_on_c, 0, 43, 83
2, 8809, Control_c, 0, 64, 0
2, 8832, Control_c, 0, 64, 127
2, 8849, Note_off_c, 0, 67, 64
2, 8850, Note_off_c, 0, 76, 64
2, 8884, Note_on_c, 0, 74, 78
2, 8887, Note_on_c, 0, 65, 78
2, 8936, Note_on_c, 0, 76, 86
2, 8945, Note_off_c, 0, 74, 64
2, 8973, Note_on_c, 0, 74, 87
2, 8992, Note_off_c, 0, 76, 64
2, 8993, Note_on_c, 0, 55, 52
2, 8999, Note_on_c, 0, 73, 99
2, 9001, Note_on_c, 0, 50, 72
2, 9005, Note_on_c, 0, 59, 70
2, 9008, Note_on_c, 0, 64, 72
2, 9014, Control_c, 0, 64, 0
2, 9022, Note_off_c, 0, 74, 64
2, 9026, Note_off_c, 0, 65, 64
2, 9037, Control_c, 0, 64, 127
2, 9047, Note_off_c, 0, 55, 64
2, 9050, Note_off_c, 0, 50, 64
2, 9060, Note_off_c, 0, 59, 64
2, 9097, Note_on_c, 0, 65, 83
2, 9104, Note_on_c, 0, 74, 79
2, 9112, Note_off_c, 0, 64, 64
2, 9150, Note_off_c, 0, 43, 64
2, 9154, Note_off_c, 0, 73, 64
2, 9198, Note_on_c, 0, 59, 79
2, 9198, Note_on_c, 0, 69, 95
2, 9204, Note_on_c, 0, 77, 91
2, 9207, Note_on_c, 0, 55, 64
2, 9208, Note_on_c, 0, 50, 78
2, 9222, Note_off_c, 0, 74, 64
2, 9225, Note_off_c, 0, 55, 64
2, 9227, Note_off_c, 0, 59, 64
2, 9233, Note_off_c, 0, 50, 64
2, 9253, Note_off_c, 0, 65, 64
2, 9327, Note_off_c, 0, 69, 64
2, 9359, Note_on_c, 0, 67, 79
2, 9361, Note_on_c, 0, 76, 72
2, 9409, Note_off_c, 0, 77, 64
2, 9427, Note_on_c, 0, 74, 79
2, 9431, Note_on_c, 0, 65, 91
2, 9431, Note_on_c, 0, 48, 100
2, 9433, Control_c, 0, 64, 127
2, 9440, Note_on_c, 0, 36, 97
2, 9444, Control_c, 0, 64, 0
2, 9451, Note_off_c, 0, 67, 64
2, 9453, Note_off_c, 0, 76, 64
2, 9482, Control_c, 0, 64, 127
2, 9647, Note_on_c, 0, 76, 59
2, 9648, Note_on_c, 0, 67, 70
2, 9670, Note_off_c, 0, 65, 64
2, 9696, Note_on_c, 0, 72, 81
2, 9701, Note_off_c, 0, 74, 64
2, 9701, Note_on_c, 0, 64, 91
2, 9707, Note_off_c, 0, 48, 64
2, 9709, Note_on_c, 0, 60, 59
2, 9709, Note_on_c, 0, 48, 52
2, 9712, Note_on_c, 0, 55, 59
2, 9722, Note_off_c, 0, 76, 64
2, 9723, Note_off_c, 0, 67, 64
2, 9757, Control_c, 0, 64, 0
2, 9822, Control_c, 0, 64, 127
2, 9828, Note_off_c, 0, 36, 64
2, 10042, Note_on_c, 0, 67, 71
2, 10087, Note_off_c, 0, 72, 64
2, 10088, Control_c, 0, 64, 0
2, 10092, Note_off_c, 0, 64, 64
2, 10133, Note_off_c, 0, 55, 64
2, 10134, Control_c, 0, 64, 127
2, 10140, Note_off_c, 0, 48, 64
2, 10258, Note_off_c, 0, 60, 64
2, 10278, Note_on_c, 0, 48, 50
2, 10338, Note_on_c, 0, 76, 81
2, 10364, Note_off_c, 0, 67, 64
2, 10382, Control_c, 0, 64, 0
2, 10434, Control_c, 0, 64, 127
2, 10581, Note_on_c, 0, 64, 28
2, 10585, Note_on_c, 0, 55, 31
2, 10657, Note_on_c, 0, 75, 63
2, 10663, Note_off_c, 0, 64, 64
2, 10671, Note_off_c, 0, 55, 64
2, 10676, Note_off_c, 0, 76, 64
2, 10746, Note_off_c, 0, 48, 64
2, 10756, Note_on_c, 0, 77, 76
2, 10760, Note_on_c, 0, 64, 40
2, 10760, Note_on_c, 0, 55, 40
2, 10777, Note_off_c, 0, 75, 64
2, 10850, Note_on_c, 0, 76, 76
2, 10867, Note_off_c, 0, 77, 64
2, 10913, Note_off_c, 0, 64, 64
2, 10917, Note_off_c, 0, 55, 64
2, 10933, Note_on_c, 0, 74, 76
2, 10939, Note_on_c, 0, 48, 56
2, 10948, Note_off_c, 0, 76, 64
2, 10951, Control_c, 0, 64, 0
2, 10982, Control_c, 0, 64, 127
2, 11001, Note_on_c, 0, 73, 83
2, 11020, Note_off_c, 0, 74, 64
2, 11092, Note_on_c, 0, 54, 38
2, 11093, Note_on_c, 0, 57, 40
2, 11096, Note_on_c, 0, 76, 90
2, 11108, Note_on_c, 0, 62, 28
2, 11108, Control_c, 0, 64, 0
2, 11114, Note_off_c, 0, 73, 64
2, 11152, Note_off_c, 0, 57, 64
2, 11156, Note_off_c, 0, 54, 64
2, 11158, Control_c, 0, 64, 127
2, 11162, Note_off_c, 0, 62, 64
2, 11298, Note_on_c, 0, 54, 38
2, 11302, Note_on_c, 0, 57, 37
2, 11303, Note_on_c, 0, 62, 28
2, 11308, Note_on_c, 0, 74, 76
2, 11321, Note_off_c, 0, 76, 64
2, 11339, Note_off_c, 0, 62, 64
2, 11357, Note_off_c, 0, 48, 64
2, 11365, Note_off_c, 0, 57, 64
2, 11378, Note_off_c, 0, 54, 64
2, 11387, Note_off_c, 0, 74, 64
2, 11508, Note_on_c, 0, 48, 57
2, 11508, Note_on_c, 0, 74, 72
2, 11545, Control_c, 0, 64, 0
2, 11609, Control_c, 0, 64, 127
2, 11673, Control_c, 0, 64, 0
2, 11691, Note_on_c, 0, 56, 28
2, 11694, Note_on_c, 0, 59, 28
2, 11698, Note_on_c, 0, 53, 21
2, 11701, Note_on_c, 0, 62, 37
2, 11714, Control_c, 0, 64, 127
2, 11780, Note_on_c, 0, 73, 65
2, 11781, Note_off_c, 0, 59, 64
2, 11787, Note_off_c, 0, 62, 64
2, 11787, Note_off_c, 0, 56, 64
2, 11790, Note_off_c, 0, 53, 64
2, 11798, Note_off_c, 0, 74, 64
2, 11872, Note_on_c, 0, 62, 28
2, 11872, Note_on_c, 0, 56, 38
2, 11874, Note_on_c, 0, 76, 76
2, 11874, Note_on_c, 0, 59, 37
2, 11881, Note_on_c, 0, 53, 26
2, 11884, Note_off_c, 0, 73, 64
2, 11927, Note_off_c, 0, 53, 64
2, 11933, Note_off_c, 0, 56, 64
2, 11938, Note_off_c, 0, 59, 64
2, 11946, Note_off_c, 0, 62, 64
2, 11953, Note_off_c, 0, 48, 64
2, 11960, Note_on_c, 0, 74, 81
2, 11992, Note_off_c, 0, 76, 64
2, 12061, Note_on_c, 0, 72, 72
2, 12069, Note_off_c, 0, 74, 64
2, 12074, Note_on_c, 0, 48, 56
2, 12090, Note_on_c, 0, 74, 72
2, 12098, Note_off_c, 0, 72, 64
2, 12114, Control_c, 0, 64, 0
2, 12121, Note_on_c, 0, 72, 90
2, 12139, Control_c, 0, 64, 127
2, 12144, Note_off_c, 0, 74, 64
2, 12174, Note_on_c, 0, 71, 90
2, 12192, Note_off_c, 0, 72, 64
2, 12248, Note_on_c, 0, 74, 76
2, 12257, Note_on_c, 0, 52, 40
2, 12264, Note_on_c, 0, 60, 40
2, 12264, Note_on_c, 0, 55, 38
2, 12276, Control_c, 0, 64, 0
2, 12281, Note_off_c, 0, 71, 64
2, 12320, Note_off_c, 0, 55, 64
2, 12321, Control_c, 0, 64, 127
2, 12326, Note_off_c, 0, 52, 64
2, 12336, Note_off_c, 0, 60, 64
2, 12435, Note_on_c, 0, 72, 87
2, 12440, Note_off_c, 0, 48, 64
2, 12450, Note_on_c, 0, 52, 28
2, 12450, Note_on_c, 0, 60, 28
2, 12450, Note_on_c, 0, 55, 28
2, 12455, Note_off_c, 0, 74, 64
2, 12483, Note_off_c, 0, 60, 64
2, 12484, Note_off_c, 0, 55, 64
2, 12486, Note_off_c, 0, 52, 64
2, 12660, Note_on_c, 0, 42, 57
2, 12666, Note_on_c, 0, 69, 87
2, 12670, Note_off_c, 0, 72, 64
2, 12692, Control_c, 0, 64, 0
2, 12745, Control_c, 0, 64, 127
2, 12935, Note_on_c, 0, 50, 47
2, 12938, Note_on_c, 0, 60, 40
2, 12951, Note_on_c, 0, 57, 53
2, 12975, Control_c, 0, 64, 0
2, 12988, Control_c, 0, 64, 127
2, 13008, Note_off_c, 0, 42, 64
2, 13028, Note_on_c, 0, 68, 68
2, 13045, Note_off_c, 0, 69, 64
2, 13088, Note_off_c, 0, 50, 64
2, 13092, Note_off_c, 0, 57, 64
2, 13098, Note_off_c, 0, 60, 64
2, 13138, Note_on_c, 0, 71, 58
2, 13164, Note_off_c, 0, 68, 64
2, 13212, Note_on_c, 0, 69, 65
2, 13245, Note_off_c, 0, 71, 64
2, 13280, Note_on_c, 0, 43, 72
2, 13291, Note_on_c, 0, 67, 81
2, 13292, Control_c, 0, 64, 0
2, 13317, Note_off_c, 0, 69, 64
2, 13338, Control_c, 0, 64, 127
2, 13423, Note_on_c, 0, 72, 60
2, 13462, Note_on_c, 0, 55, 50
2, 13462, Note_on_c, 0, 52, 56
2, 13466, Note_on_c, 0, 60, 45
2, 13468, Note_on_c, 0, 76, 88
2, 13472, Note_off_c, 0, 67, 64
2, 13486, Control_c, 0, 64, 0
2, 13491, Note_off_c, 0, 72, 64
2, 13511, Note_off_c, 0, 52, 64
2, 13512, Control_c, 0, 64, 127
2, 13518, Note_off_c, 0, 55, 64
2, 13521, Note_off_c, 0, 60, 64
2, 13628, Note_off_c, 0, 43, 64
2, 13635, Note_on_c, 0, 60, 43
2, 13636, Note_on_c, 0, 52, 45
2, 13648, Note_on_c, 0, 55, 45
2, 13669, Note_off_c, 0, 60, 64
2, 13671, Note_off_c, 0, 55, 64
2, 13672, Note_off_c, 0, 52, 64
2, 13820, Note_on_c, 0, 43, 62
2, 13833, Control_c, 0, 64, 0
2, 13846, Control_c, 0, 64, 127
2, 13875, Note_off_c, 0, 76, 64
2, 13903, Note_on_c, 0, 74, 66
2, 13934, Note_on_c, 0, 76, 66
2, 13952, Note_off_c, 0, 74, 64
2, 13969, Note_on_c, 0, 74, 72
2, 13986, Note_off_c, 0, 76, 64
2, 13993, Note_on_c, 0, 53, 57
2, 13998, Note_on_c, 0, 59, 62
2, 14000, Note_on_c, 0, 55, 53
2, 14006, Control_c, 0, 64, 0
2, 14012, Note_on_c, 0, 73, 83
2, 14018, Note_off_c, 0, 74, 64
2, 14022, Control_c, 0, 64, 127
2, 14034, Note_off_c, 0, 55, 64
2, 14038, Note_off_c, 0, 53, 64
2, 14042, Note_off_c, 0, 59, 64
2, 14087, Note_on_c, 0, 74, 71
2, 14097, Note_off_c, 0, 73, 64
2, 14163, Note_on_c, 0, 76, 62
2, 14168, Note_off_c, 0, 43, 64
2, 14169, Note_on_c, 0, 53, 50
2, 14179, Note_on_c, 0, 55, 45
2, 14180, Note_on_c, 0, 59, 50
2, 14191, Note_off_c, 0, 74, 64
2, 14224, Note_off_c, 0, 55, 64
2, 14229, Note_off_c, 0, 53, 64
2, 14235, Note_on_c, 0, 77, 72
2, 14242, Note_off_c, 0, 59, 64
2, 14290, Note_off_c, 0, 76, 64
2, 14317, Note_on_c, 0, 48, 45
2, 14317, Note_on_c, 0, 81, 74
2, 14340, Control_c, 0, 64, 0
2, 14362, Note_off_c, 0, 77, 64
2, 14392, Control_c, 0, 64, 127
2, 14516, Note_on_c, 0, 63, 45
2, 14517, Note_on_c, 0, 54, 45
2, 14599, Note_off_c, 0, 54, 64
2, 14617, Note_off_c, 0, 63, 64
2, 14732, Note_on_c, 0, 79, 63
2, 14732, Note_on_c, 0, 64, 33
2, 14736, Note_on_c, 0, 55, 47
2, 14746, Note_off_c, 0, 48, 64
2, 14758, Note_off_c, 0, 81, 64
2, 14997, Note_on_c, 0, 48, 47
2, 15032, Note_on_c, 0, 67, 71
2, 15033, Note_on_c, 0, 76, 78
2, 15046, Note_off_c, 0, 64, 64
2, 15046, Note_off_c, 0, 79, 64
2, 15050, Note_off_c, 0, 55, 64
2, 15057, Control_c, 0, 64, 0
2, 15114, Control_c, 0, 64, 127
2, 15250, Note_on_c, 0, 64, 38
2, 15250, Note_on_c, 0, 55, 66
2, 15340, Note_on_c, 0, 66, 70
2, 15341, Note_on_c, 0, 75, 47
2, 15354, Note_off_c, 0, 55, 64
2, 15358, Note_off_c, 0, 64, 64
2, 15362, Note_off_c, 0, 67, 64
2, 15363, Note_off_c, 0, 76, 64
2, 15424, Note_on_c, 0, 69, 54
2, 15425, Note_on_c, 0, 77, 75
2, 15435, Note_on_c, 0, 64, 63
2, 15442, Note_on_c, 0, 55, 58
2, 15446, Note_off_c, 0, 66, 64
2, 15447, Note_off_c, 0, 75, 64
2, 15458, Note_off_c, 0, 48, 64
2, 15491, Note_off_c, 0, 64, 64
2, 15502, Note_off_c, 0, 55, 64
2, 15515, Note_on_c, 0, 67, 77
2, 15518, Note_on_c, 0, 76, 71
2, 15529, Note_off_c, 0, 69, 64
2, 15530, Note_off_c, 0, 77, 64
2, 15595, Note_on_c, 0, 74, 70
2, 15605, Note_off_c, 0, 76, 64
2, 15619, Note_on_c, 0, 76, 78
2, 15631, Note_off_c, 0, 74, 64
2, 15635, Note_on_c, 0, 48, 63
2, 15646, Control_c, 0, 64, 0
2, 15660, Note_on_c, 0, 66, 66
2, 15660, Note_on_c, 0, 74, 72
2, 15666, Note_off_c, 0, 67, 64
2, 15691, Note_off_c, 0, 76, 64
2, 15710, Control_c, 0, 64, 127
2, 15734, Note_on_c, 0, 73, 81
2, 15736, Note_on_c, 0, 65, 73
2, 15746, Note_off_c, 0, 74, 64
2, 15746, Note_off_c, 0, 66, 64
2, 15818, Note_on_c, 0, 76, 71
2, 15824, Note_on_c, 0, 67, 91
2, 15824, Note_on_c, 0, 57, 53
2, 15828, Note_on_c, 0, 62, 62
2, 15832, Note_on_c, 0, 54, 41
2, 15833, Note_off_c, 0, 73, 64
2, 15835, Note_off_c, 0, 65, 64
2, 15877, Note_off_c, 0, 54, 64
2, 15881, Note_off_c, 0, 57, 64
2, 15894, Note_off_c, 0, 62, 64
2, 16002, Note_on_c, 0, 66, 81
2, 16006, Note_on_c, 0, 74, 65
2, 16009, Note_on_c, 0, 54, 58
2, 16011, Note_off_c, 0, 48, 64
2, 16015, Note_on_c, 0, 62, 62
2, 16018, Note_on_c, 0, 57, 51
2, 16026, Note_off_c, 0, 76, 64
2, 16032, Note_off_c, 0, 67, 64
2, 16054, Note_off_c, 0, 66, 64
2, 16061, Note_off_c, 0, 57, 64
2, 16064, Note_off_c, 0, 74, 64
2, 16077, Note_off_c, 0, 54, 64
2, 16089, Note_off_c, 0, 62, 64
2, 16195, Note_on_c, 0, 48, 66
2, 16197, Note_on_c, 0, 74, 87
2, 16201, Note_on_c, 0, 65, 78
2, 16215, Control_c, 0, 64, 0
2, 16279, Control_c, 0, 64, 127
2, 16371, Note_on_c, 0, 56, 58
2, 16372, Note_on_c, 0, 53, 38
2, 16379, Note_on_c, 0, 59, 43
2, 16382, Note_on_c, 0, 62, 33
2, 16444, Note_on_c, 0, 64, 77
2, 16447, Note_on_c, 0, 73, 81
2, 16451, Note_off_c, 0, 59, 64
2, 16456, Note_off_c, 0, 62, 64
2, 16456, Note_off_c, 0, 56, 64
2, 16458, Note_off_c, 0, 74, 64
2, 16461, Note_off_c, 0, 53, 64
2, 16462, Note_off_c, 0, 65, 64
2, 16544, Note_on_c, 0, 67, 87
2, 16544, Note_on_c, 0, 76, 77
2, 16556, Note_on_c, 0, 53, 66
2, 16558, Note_off_c, 0, 64, 64
2, 16561, Note_off_c, 0, 73, 64
2, 16574, Note_on_c, 0, 62, 32
2, 16579, Note_on_c, 0, 59, 32
2, 16579, Note_on_c, 0, 56, 41
2, 16613, Note_off_c, 0, 62, 64
2, 16620, Note_off_c, 0, 59, 64
2, 16624, Note_off_c, 0, 56, 64
2, 16625, Note_off_c, 0, 53, 64
2, 16629, Note_on_c, 0, 74, 72
2, 16636, Note_on_c, 0, 65, 72
2, 16654, Note_off_c, 0, 76, 64
2, 16654, Note_off_c, 0, 67, 64
2, 16662, Note_off_c, 0, 48, 64
2, 16712, Note_on_c, 0, 72, 90
2, 16724, Note_off_c, 0, 74, 64
2, 16741, Note_on_c, 0, 74, 78
2, 16748, Note_off_c, 0, 72, 64
2, 16779, Note_off_c, 0, 65, 64
2, 16780, Note_on_c, 0, 48, 77
2, 16783, Note_on_c, 0, 72, 81
2, 16785, Note_on_c, 0, 64, 77
2, 16796, Control_c, 0, 64, 0
2, 16808, Note_off_c, 0, 74, 64
2, 16826, Control_c, 0, 64, 127
2, 16868, Note_on_c, 0, 63, 87
2, 16869, Note_on_c, 0, 71, 82
2, 16881, Note_off_c, 0, 72, 64
2, 16883, Note_off_c, 0, 64, 64
2, 16960, Note_on_c, 0, 74, 78
2, 16964, Note_on_c, 0, 65, 90
2, 16977, Note_off_c, 0, 63, 64
2, 16977, Note_on_c, 0, 60, 71
2, 16977, Note_on_c, 0, 52, 71
2, 16978, Note_off_c, 0, 71, 64
2, 16981, Note_on_c, 0, 55, 62
2, 16983, Control_c, 0, 64, 0
2, 17016, Control_c, 0, 64, 127
2, 17024, Note_off_c, 0, 55, 64
2, 17029, Note_off_c, 0, 52, 64
2, 17037, Note_off_c, 0, 60, 64
2, 17153, Note_off_c, 0, 48, 64
2, 17156, Note_on_c, 0, 55, 70
2, 17157, Note_on_c, 0, 72, 66
2, 17157, Note_on_c, 0, 64, 70
2, 17160, Note_on_c, 0, 60, 47
2, 17167, Note_on_c, 0, 52, 41
2, 17175, Note_off_c, 0, 74, 64
2, 17179, Note_off_c, 0, 65, 64
2, 17190, Note_off_c, 0, 52, 64
2, 17195, Note_off_c, 0, 60, 64
2, 17218, Note_off_c, 0, 55, 64
2, 17353, Note_on_c, 0, 41, 87
2, 17359, Note_on_c, 0, 65, 90
2, 17361, Note_on_c, 0, 69, 88
2, 17369, Control_c, 0, 64, 0
2, 17372, Note_off_c, 0, 64, 64
2, 17372, Note_off_c, 0, 72, 64
2, 17399, Control_c, 0, 64, 127
2, 17452, Note_on_c, 0, 71, 78
2, 17454, Note_off_c, 0, 69, 64
2, 17491, Note_on_c, 0, 69, 88
2, 17498, Note_off_c, 0, 71, 64
2, 17527, Note_on_c, 0, 71, 93
2, 17533, Note_off_c, 0, 69, 64
2, 17556, Note_on_c, 0, 69, 100
2, 17560, Note_on_c, 0, 57, 52
2, 17566, Note_on_c, 0, 60, 36
2, 17566, Note_on_c, 0, 53, 59
2, 17579, Note_off_c, 0, 71, 64
2, 17582, Note_off_c, 0, 65, 64
2, 17593, Note_off_c, 0, 41, 64
2, 17624, Note_on_c, 0, 64, 83
2, 17626, Note_off_c, 0, 57, 64
2, 17629, Note_on_c, 0, 68, 91
2, 17635, Note_off_c, 0, 53, 64
2, 17638, Note_off_c, 0, 69, 64
2, 17648, Note_off_c, 0, 60, 64
2, 17724, Note_on_c, 0, 71, 95
2, 17727, Note_on_c, 0, 67, 83
2, 17733, Note_on_c, 0, 60, 72
2, 17733, Note_on_c, 0, 57, 78
2, 17733, Note_on_c, 0, 53, 70
2, 17735, Note_off_c, 0, 68, 64
2, 17741, Note_off_c, 0, 64, 64
2, 17755, Note_off_c, 0, 60, 64
2, 17756, Note_off_c, 0, 53, 64
2, 17756, Note_off_c, 0, 57, 64
2, 17806, Note_on_c, 0, 69, 78
2, 17809, Note_on_c, 0, 65, 91
2, 17822, Note_off_c, 0, 71, 64
2, 17825, Note_off_c, 0, 67, 64
2, 17889, Note_on_c, 0, 43, 79
2, 17899, Note_on_c, 0, 67, 87
2, 17899, Control_c, 0, 64, 0
2, 17904, Note_on_c, 0, 64, 91
2, 17914, Note_off_c, 0, 69, 64
2, 17917, Note_off_c, 0, 65, 64
2, 17949, Control_c, 0, 64, 127
2, 17984, Note_off_c, 0, 67, 64
2, 18017, Note_off_c, 0, 64, 64
2, 18034, Note_on_c, 0, 64, 83
2, 18034, Note_on_c, 0, 72, 83
2, 18092, Note_on_c, 0, 67, 90
2, 18097, Note_on_c, 0, 76, 103
2, 18097, Note_on_c, 0, 52, 64
2, 18106, Note_on_c, 0, 60, 47
2, 18109, Control_c, 0, 64, 0
2, 18116, Note_off_c, 0, 72, 64
2, 18116, Note_off_c, 0, 64, 64
2, 18129, Note_off_c, 0, 43, 64
2, 18145, Note_off_c, 0, 52, 64
2, 18148, Note_off_c, 0, 60, 64
2, 18148, Control_c, 0, 64, 127
2, 18269, Note_on_c, 0, 52, 79
2, 18272, Note_on_c, 0, 60, 72
2, 18308, Note_off_c, 0, 52, 64
2, 18312, Note_off_c, 0, 60, 64
2, 18452, Note_on_c, 0, 43, 87
2, 18459, Control_c, 0, 64, 0
2, 18475, Control_c, 0, 64, 127
2, 18547, Note_off_c, 0, 67, 64
2, 18548, Note_on_c, 0, 65, 72
2, 18551, Note_on_c, 0, 74, 73
2, 18552, Note_off_c, 0, 76, 64
2, 18584, Note_on_c, 0, 76, 91
2, 18591, Note_off_c, 0, 74, 64
2, 18608, Note_on_c, 0, 74, 73
2, 18636, Note_off_c, 0, 76, 64
2, 18640, Control_c, 0, 64, 0
2, 18647, Note_on_c, 0, 64, 55
2, 18648, Note_on_c, 0, 59, 72
2, 18648, Note_on_c, 0, 55, 72
2, 18648, Note_on_c, 0, 50, 79
2, 18653, Note_on_c, 0, 73, 99
2, 18656, Note_off_c, 0, 65, 64
2, 18660, Control_c, 0, 64, 127
2, 18664, Note_off_c, 0, 74, 64
2, 18687, Note_off_c, 0, 50, 64
2, 18688, Note_off_c, 0, 55, 64
2, 18688, Note_off_c, 0, 59, 64
2, 18692, Note_off_c, 0, 43, 64
2, 18745, Note_on_c, 0, 65, 87
2, 18745, Note_on_c, 0, 74, 83
2, 18755, Note_off_c, 0, 64, 64
2, 18761, Note_off_c, 0, 73, 64
2, 18832, Note_on_c, 0, 69, 95
2, 18832, Note_on_c, 0, 59, 72
2, 18832, Note_on_c, 0, 55, 79
2, 18832, Note_on_c, 0, 50, 79
2, 18836, Note_on_c, 0, 77, 95
2, 18853, Note_off_c, 0, 74, 64
2, 18853, Note_off_c, 0, 65, 64
2, 18871, Note_off_c, 0, 50, 64
2, 18871, Note_off_c, 0, 55, 64
2, 18872, Note_off_c, 0, 59, 64
2, 18968, Note_on_c, 0, 67, 81
2, 18968, Note_on_c, 0, 76, 78
2, 18983, Note_off_c, 0, 69, 64
2, 18987, Note_off_c, 0, 77, 64
2, 19022, Note_on_c, 0, 74, 83
2, 19024, Note_on_c, 0, 36, 97
2, 19028, Note_on_c, 0, 65, 95
2, 19033, Note_on_c, 0, 48, 91
2, 19041, Control_c, 0, 64, 127
2, 19042, Note_off_c, 0, 76, 64
2, 19042, Note_off_c, 0, 67, 64
2, 19045, Control_c, 0, 64, 0
2, 19078, Control_c, 0, 64, 127
2, 19231, Note_off_c, 0, 65, 64
2, 19233, Note_off_c, 0, 74, 64
2, 19238, Note_on_c, 0, 67, 72
2, 19244, Note_on_c, 0, 76, 83
2, 19273, Note_off_c, 0, 48, 64
2, 19290, Note_on_c, 0, 72, 79
2, 19300, Note_off_c, 0, 67, 64
2, 19300, Note_on_c, 0, 48, 83
2, 19300, Note_on_c, 0, 64, 95
2, 19307, Note_on_c, 0, 55, 81
2, 19307, Note_on_c, 0, 60, 79
2, 19318, Note_off_c, 0, 76, 64
2, 19339, Control_c, 0, 64, 0
2, 19412, Control_c, 0, 64, 127
2, 19424, Note_off_c, 0, 36, 64
2, 19527, Note_off_c, 0, 72, 64
2, 19537, Note_off_c, 0, 64, 64
2, 19537, Note_off_c, 0, 48, 64
2, 19544, Note_off_c, 0, 60, 64
2, 19544, Note_off_c, 0, 55, 64
2, 19697, Note_on_c, 0, 38, 91
2, 19753, Control_c, 0, 64, 0
2, 19768, Note_on_c, 0, 50, 97
2, 19772, Note_on_c, 0, 62, 115
2, 19814, Control_c, 0, 64, 127
2, 19937, Note_off_c, 0, 38, 64
2, 20048, Note_on_c, 0, 60, 52
2, 20048, Note_on_c, 0, 66, 52
2, 20048, Note_on_c, 0, 69, 52
2, 20144, Note_on_c, 0, 71, 60
2, 20144, Note_on_c, 0, 67, 60
2, 20144, Note_on_c, 0, 59, 60
2, 20153, Note_off_c, 0, 69, 64
2, 20153, Note_off_c, 0, 66, 64
2, 20153, Note_off_c, 0, 60, 64
2, 20240, Note_on_c, 0, 69, 63
2, 20243, Note_on_c, 0, 72, 63
2, 20244, Note_on_c, 0, 57, 63
2, 20249, Note_off_c, 0, 59, 64
2, 20249, Note_off_c, 0, 67, 64
2, 20249, Note_off_c, 0, 71, 64
2, 20328, Note_on_c, 0, 59, 70
2, 20328, Note_on_c, 0, 71, 70
2, 20335, Note_on_c, 0, 67, 70
2, 20345, Note_off_c, 0, 69, 64
2, 20348, Note_off_c, 0, 72, 64
2, 20349, Note_off_c, 0, 57, 64
2, 20408, Note_on_c, 0, 57, 75
2, 20408, Note_on_c, 0, 72, 75
2, 20416, Note_on_c, 0, 69, 75
2, 20433, Note_off_c, 0, 71, 64
2, 20433, Note_off_c, 0, 59, 64
2, 20440, Note_off_c, 0, 67, 64
2, 20488, Note_on_c, 0, 55, 75
2, 20496, Note_on_c, 0, 74, 75
2, 20498, Note_on_c, 0, 71, 75
2, 20513, Note_off_c, 0, 72, 64
2, 20513, Note_off_c, 0, 57, 64
2, 20521, Note_off_c, 0, 69, 64
2, 20679, Control_c, 0, 64, 0
2, 20680, Note_on_c, 0, 67, 77
2, 20685, Note_on_c, 0, 61, 81
2, 20685, Note_on_c, 0, 70, 77
2, 20685, Note_on_c, 0, 76, 77
2, 20686, Note_off_c, 0, 55, 64
2, 20694, Note_off_c, 0, 74, 64
2, 20696, Note_off_c, 0, 71, 64
2, 20720, Control_c, 0, 64, 127
2, 20744, Note_off_c, 0, 50, 64
2, 20753, Note_off_c, 0, 62, 64
2, 20911, Control_c, 0, 64, 0
2, 20920, Note_off_c, 0, 67, 64
2, 20925, Note_off_c, 0, 76, 64
2, 20925, Note_off_c, 0, 70, 64
2, 20925, Note_off_c, 0, 61, 64
2, 20936, Note_on_c, 0, 38, 93
2, 20977, Control_c, 0, 64, 127
2, 20992, Note_on_c, 0, 62, 101
2, 20992, Note_on_c, 0, 50, 78
2, 21040, Note_off_c, 0, 38, 64
2, 21280, Note_on_c, 0, 60, 53
2, 21280, Note_on_c, 0, 66, 53
2, 21280, Note_on_c, 0, 69, 53
2, 21360, Note_on_c, 0, 67, 57
2, 21360, Note_on_c, 0, 71, 57
2, 21364, Note_on_c, 0, 59, 57
2, 21385, Note_off_c, 0, 69, 64
2, 21385, Note_off_c, 0, 66, 64
2, 21385, Note_off_c, 0, 60, 64
2, 21456, Note_on_c, 0, 69, 56
2, 21456, Note_on_c, 0, 72, 56
2, 21461, Note_on_c, 0, 57, 56
2, 21465, Note_off_c, 0, 71, 64
2, 21465, Note_off_c, 0, 67, 64
2, 21469, Note_off_c, 0, 59, 64
2, 21548, Note_on_c, 0, 55, 60
2, 21549, Note_on_c, 0, 67, 60
2, 21549, Note_on_c, 0, 71, 60
2, 21561, Note_off_c, 0, 72, 64
2, 21561, Note_off_c, 0, 69, 64
2, 21566, Note_off_c, 0, 57, 64
2, 21636, Note_on_c, 0, 66, 51
2, 21636, Note_on_c, 0, 69, 51
2, 21640, Note_on_c, 0, 57, 51
2, 21653, Note_off_c, 0, 55, 64
2, 21654, Note_off_c, 0, 71, 64
2, 21654, Note_off_c, 0, 67, 64
2, 21716, Note_on_c, 0, 64, 50
2, 21720, Note_on_c, 0, 67, 50
2, 21720, Note_on_c, 0, 58, 50
2, 21741, Note_off_c, 0, 69, 64
2, 21741, Note_off_c, 0, 66, 64
2, 21745, Note_off_c, 0, 57, 64
2, 21896, Note_on_c, 0, 55, 66
2, 21899, Note_on_c, 0, 61, 66
2, 21918, Control_c, 0, 64, 0
2, 21920, Note_off_c, 0, 58, 64
2, 21941, Control_c, 0, 64, 127
2, 22043, Note_off_c, 0, 50, 64
2, 22051, Note_off_c, 0, 62, 64
2, 22114, Control_c, 0, 64, 0
2, 22120, Note_on_c, 0, 38, 91
2, 22131, Note_off_c, 0, 64, 64
2, 22135, Note_off_c, 0, 67, 64
2, 22136, Note_off_c, 0, 55, 64
2, 22139, Note_off_c, 0, 61, 64
2, 22147, Control_c, 0, 64, 127
2, 22176, Note_on_c, 0, 50, 60
2, 22184, Note_on_c, 0, 62, 102
2, 22204, Note_off_c, 0, 38, 64
2, 22472, Note_on_c, 0, 60, 53
2, 22472, Note_on_c, 0, 69, 53
2, 22474, Note_on_c, 0, 66, 53
2, 22561, Note_on_c, 0, 67, 57
2, 22561, Note_on_c, 0, 59, 57
2, 22569, Note_on_c, 0, 71, 60
2, 22577, Note_off_c, 0, 69, 64
2, 22577, Note_off_c, 0, 60, 64
2, 22579, Note_off_c, 0, 66, 64
2, 22643, Note_on_c, 0, 57, 62
2, 22648, Note_on_c, 0, 72, 62
2, 22649, Note_on_c, 0, 69, 62
2, 22666, Note_off_c, 0, 59, 64
2, 22666, Note_off_c, 0, 67, 64
2, 22674, Note_off_c, 0, 71, 64
2, 22731, Note_on_c, 0, 59, 70
2, 22734, Note_on_c, 0, 67, 70
2, 22738, Note_on_c, 0, 71, 70
2, 22748, Note_off_c, 0, 57, 64
2, 22753, Note_off_c, 0, 72, 64
2, 22754, Note_off_c, 0, 69, 64
2, 22804, Note_on_c, 0, 57, 71
2, 22811, Note_on_c, 0, 69, 71
2, 22813, Note_on_c, 0, 72, 71
2, 22836, Note_off_c, 0, 59, 64
2, 22839, Note_off_c, 0, 67, 64
2, 22843, Note_off_c, 0, 71, 64
2, 22889, Control_c, 0, 64, 0
2, 22894, Note_on_c, 0, 55, 66
2, 22898, Note_on_c, 0, 71, 66
2, 22900, Note_on_c, 0, 74, 66
2, 22909, Note_off_c, 0, 57, 64
2, 22916, Note_off_c, 0, 69, 64
2, 22918, Note_off_c, 0, 72, 64
2, 22921, Control_c, 0, 64, 127
2, 23076, Note_on_c, 0, 70, 66
2, 23076, Note_on_c, 0, 67, 66
2, 23079, Note_on_c, 0, 76, 66
2, 23079, Note_on_c, 0, 61, 66
2, 23088, Note_off_c, 0, 55, 64
2, 23092, Note_off_c, 0, 71, 64
2, 23094, Note_off_c, 0, 74, 64
2, 23111, Note_off_c, 0, 50, 64
2, 23119, Note_off_c, 0, 62, 64
2, 23248, Note_on_c, 0, 38, 58
2, 23316, Note_off_c, 0, 67, 64
2, 23316, Note_off_c, 0, 70, 64
2, 23319, Note_off_c, 0, 61, 64
2, 23319, Note_off_c, 0, 76, 64
2, 23324, Note_on_c, 0, 62, 88
2, 23325, Note_on_c, 0, 50, 91
2, 23354, Control_c, 0, 64, 0
2, 23359, Note_off_c, 0, 38, 64
2, 23399, Control_c, 0, 64, 127
2, 23600, Note_on_c, 0, 66, 66
2, 23600, Note_on_c, 0, 60, 66
2, 23606, Note_on_c, 0, 69, 66
2, 23688, Note_on_c, 0, 67, 66
2, 23688, Note_on_c, 0, 71, 66
2, 23693, Note_on_c, 0, 59, 66
2, 23705, Note_off_c, 0, 60, 64
2, 23705, Note_off_c, 0, 66, 64
2, 23711, Note_off_c, 0, 69, 64
2, 23776, Note_on_c, 0, 72, 66
2, 23779, Note_on_c, 0, 57, 66
2, 23780, Note_on_c, 0, 69, 66
2, 23793, Note_off_c, 0, 71, 64
2, 23793, Note_off_c, 0, 67, 64
2, 23798, Note_off_c, 0, 59, 64
2, 23862, Note_off_c, 0, 50, 64
2, 23869, Note_off_c, 0, 62, 64
2, 23888, Note_on_c, 0, 65, 62
2, 23888, Note_on_c, 0, 62, 62
2, 23892, Note_on_c, 0, 71, 62
2, 23906, Note_off_c, 0, 72, 64
2, 23909, Note_off_c, 0, 57, 64
2, 23910, Note_off_c, 0, 69, 64
2, 23998, Note_on_c, 0, 57, 58
2, 24000, Note_on_c, 0, 72, 58
2, 24018, Note_off_c, 0, 62, 64
2, 24018, Note_off_c, 0, 65, 64
2, 24022, Note_off_c, 0, 71, 64
2, 24103, Note_on_c, 0, 74, 57
2, 24104, Note_on_c, 0, 59, 57
2, 24143, Note_off_c, 0, 57, 64
2, 24143, Control_c, 0, 64, 0
2, 24145, Note_off_c, 0, 72, 64
2, 24197, Control_c, 0, 64, 127
2, 24331, Note_on_c, 0, 57, 53
2, 24332, Note_on_c, 0, 67, 53
2, 24335, Note_off_c, 0, 59, 64
2, 24336, Control_c, 0, 64, 0
2, 24345, Note_off_c, 0, 74, 64
2, 24362, Control_c, 0, 64, 127
2, 24467, Note_on_c, 0, 55, 66
2, 24473, Note_off_c, 0, 57, 64
2, 24505, Note_off_c, 0, 67, 64
2, 24552, Note_on_c, 0, 67, 62
2, 24680, Note_on_c, 0, 48, 63
2, 24707, Note_off_c, 0, 55, 64
2, 24748, Note_on_c, 0, 76, 70
2, 24750, Control_c, 0, 64, 0
2, 24770, Note_off_c, 0, 67, 64
2, 24869, Control_c, 0, 64, 127
2, 25027, Note_on_c, 0, 64, 34
2, 25034, Note_on_c, 0, 55, 47
2, 25118, Note_off_c, 0, 55, 64
2, 25120, Note_on_c, 0, 75, 58
2, 25127, Note_off_c, 0, 64, 64
2, 25165, Note_off_c, 0, 76, 64
2, 25166, Note_off_c, 0, 48, 64
2, 25216, Note_on_c, 0, 77, 68
2, 25226, Note_on_c, 0, 64, 40
2, 25228, Note_off_c, 0, 75, 64
2, 25232, Note_on_c, 0, 55, 47
2, 25288, Note_on_c, 0, 76, 70
2, 25300, Note_off_c, 0, 64, 64
2, 25334, Note_off_c, 0, 77, 64
2, 25372, Note_on_c, 0, 48, 64
2, 25375, Note_on_c, 0, 74, 68
2, 25380, Control_c, 0, 64, 0
2, 25384, Note_off_c, 0, 55, 64
2, 25428, Control_c, 0, 64, 127
2, 25434, Note_off_c, 0, 76, 64
2, 25451, Note_on_c, 0, 73, 81
2, 25498, Note_off_c, 0, 74, 64
2, 25516, Note_on_c, 0, 76, 81
2, 25521, Control_c, 0, 64, 0
2, 25526, Note_on_c, 0, 57, 47
2, 25533, Note_on_c, 0, 54, 45
2, 25540, Note_on_c, 0, 62, 34
2, 25564, Note_off_c, 0, 73, 64
2, 25572, Control_c, 0, 64, 127
2, 25598, Note_off_c, 0, 62, 64
2, 25598, Note_off_c, 0, 57, 64
2, 25601, Note_off_c, 0, 54, 64
2, 25703, Note_on_c, 0, 54, 54
2, 25706, Note_on_c, 0, 74, 72
2, 25709, Note_on_c, 0, 57, 45
2, 25714, Note_on_c, 0, 62, 36
2, 25716, Note_off_c, 0, 76, 64
2, 25737, Note_off_c, 0, 48, 64
2, 25771, Note_off_c, 0, 57, 64
2, 25776, Note_off_c, 0, 74, 64
2, 25812, Note_off_c, 0, 54, 64
2, 25903, Note_off_c, 0, 62, 64
2, 25909, Note_on_c, 0, 48, 58
2, 25913, Note_on_c, 0, 74, 81
2, 25930, Control_c, 0, 64, 0
2, 25995, Control_c, 0, 64, 127
2, 26132, Note_on_c, 0, 56, 45
2, 26139, Note_on_c, 0, 59, 40
2, 26139, Note_on_c, 0, 53, 34
2, 26146, Note_on_c, 0, 62, 34
2, 26214, Note_off_c, 0, 59, 64
2, 26220, Note_off_c, 0, 56, 64
2, 26224, Note_off_c, 0, 53, 64
2, 26227, Note_off_c, 0, 62, 64
2, 26230, Note_on_c, 0, 73, 72
2, 26303, Note_off_c, 0, 74, 64
2, 26326, Note_on_c, 0, 62, 36
2, 26326, Note_on_c, 0, 56, 56
2, 26332, Note_on_c, 0, 76, 74
2, 26332, Note_on_c, 0, 59, 47
2, 26338, Note_on_c, 0, 53, 34
2, 26372, Note_off_c, 0, 53, 64
2, 26377, Note_off_c, 0, 73, 64
2, 26385, Note_off_c, 0, 59, 64
2, 26387, Note_off_c, 0, 48, 64
2, 26393, Note_off_c, 0, 56, 64
2, 26403, Note_on_c, 0, 74, 74
2, 26417, Note_off_c, 0, 76, 64
2, 26423, Note_off_c, 0, 62, 64
2, 26482, Note_off_c, 0, 74, 64
2, 26497, Note_on_c, 0, 72, 72
2, 26501, Note_on_c, 0, 48, 55
2, 26524, Note_on_c, 0, 74, 70
2, 26532, Note_off_c, 0, 72, 64
2, 26560, Note_on_c, 0, 72, 68
2, 26577, Note_off_c, 0, 74, 64
2, 26609, Note_on_c, 0, 71, 72
2, 26647, Note_off_c, 0, 72, 64
2, 26654, Control_c, 0, 64, 0
2, 26669, Note_on_c, 0, 52, 47
2, 26675, Note_on_c, 0, 60, 45
2, 26675, Note_on_c, 0, 55, 54
2, 26676, Note_on_c, 0, 74, 81
2, 26708, Note_off_c, 0, 71, 64
2, 26720, Control_c, 0, 64, 127
2, 26731, Note_off_c, 0, 52, 64
2, 26738, Note_off_c, 0, 55, 64
2, 26789, Note_off_c, 0, 60, 64
2, 26840, Note_on_c, 0, 55, 50
2, 26843, Note_on_c, 0, 60, 34
2, 26849, Note_on_c, 0, 52, 47
2, 26851, Note_on_c, 0, 72, 74
2, 26865, Note_off_c, 0, 48, 64
2, 26871, Note_off_c, 0, 60, 64
2, 26879, Note_off_c, 0, 52, 64
2, 26879, Note_off_c, 0, 74, 64
2, 26888, Note_off_c, 0, 55, 64
2, 27041, Note_on_c, 0, 69, 81
2, 27046, Note_on_c, 0, 42, 64
2, 27049, Note_off_c, 0, 72, 64
2, 27077, Control_c, 0, 64, 0
2, 27121, Control_c, 0, 64, 127
2, 27286, Note_off_c, 0, 42, 64
2, 27296, Control_c, 0, 64, 0
2, 27304, Note_on_c, 0, 60, 34
2, 27306, Note_on_c, 0, 57, 51
2, 27311, Note_on_c, 0, 50, 31
2, 27336, Control_c, 0, 64, 127
2, 27378, Note_on_c, 0, 68, 68
2, 27408, Note_off_c, 0, 57, 64
2, 27411, Note_off_c, 0, 60, 64
2, 27414, Note_off_c, 0, 69, 64
2, 27427, Note_off_c, 0, 50, 64
2, 27468, Note_off_c, 0, 68, 64
2, 27470, Note_on_c, 0, 71, 74
2, 27545, Note_on_c, 0, 69, 68
2, 27568, Note_off_c, 0, 71, 64
2, 27630, Note_on_c, 0, 43, 70
2, 27630, Note_on_c, 0, 67, 81
2, 27640, Control_c, 0, 64, 0
2, 27672, Note_off_c, 0, 69, 64
2, 27683, Control_c, 0, 64, 127
2, 27779, Note_on_c, 0, 72, 64
2, 27802, Note_off_c, 0, 67, 64
2, 27825, Note_on_c, 0, 76, 81
2, 27833, Note_on_c, 0, 60, 45
2, 27838, Note_on_c, 0, 52, 40
2, 27838, Note_on_c, 0, 55, 45
2, 27846, Note_off_c, 0, 72, 64
2, 27854, Control_c, 0, 64, 0
2, 27870, Note_off_c, 0, 43, 64
2, 27876, Control_c, 0, 64, 127
2, 27880, Note_off_c, 0, 52, 64
2, 27884, Note_off_c, 0, 60, 64
2, 27884, Note_off_c, 0, 55, 64
2, 28030, Note_on_c, 0, 52, 54
2, 28034, Note_on_c, 0, 60, 54
2, 28036, Note_on_c, 0, 55, 47
2, 28066, Note_off_c, 0, 55, 64
2, 28069, Note_off_c, 0, 60, 64
2, 28073, Note_off_c, 0, 52, 64
2, 28244, Note_on_c, 0, 43, 72
2, 28251, Control_c, 0, 64, 0
2, 28287, Control_c, 0, 64, 127
2, 28376, Note_on_c, 0, 74, 51
2, 28378, Note_off_c, 0, 76, 64
2, 28402, Note_on_c, 0, 76, 72
2, 28416, Note_off_c, 0, 74, 64
2, 28438, Note_on_c, 0, 74, 72
2, 28448, Control_c, 0, 64, 0
2, 28455, Note_off_c, 0, 76, 64
2, 28462, Note_on_c, 0, 53, 68
2, 28470, Note_on_c, 0, 59, 70
2, 28475, Note_on_c, 0, 55, 58
2, 28476, Note_off_c, 0, 43, 64
2, 28478, Note_on_c, 0, 73, 81
2, 28483, Control_c, 0, 64, 127
2, 28490, Note_off_c, 0, 74, 64
2, 28506, Note_off_c, 0, 55, 64
2, 28507, Note_off_c, 0, 53, 64
2, 28513, Note_off_c, 0, 59, 64
2, 28550, Note_on_c, 0, 74, 81
2, 28565, Note_off_c, 0, 73, 64
2, 28628, Note_on_c, 0, 76, 81
2, 28642, Note_on_c, 0, 53, 51
2, 28650, Note_on_c, 0, 59, 51
2, 28656, Note_on_c, 0, 55, 33
2, 28672, Note_off_c, 0, 59, 64
2, 28679, Note_off_c, 0, 74, 64
2, 28687, Note_off_c, 0, 55, 64
2, 28701, Note_on_c, 0, 77, 72
2, 28706, Note_off_c, 0, 53, 64
2, 28764, Note_off_c, 0, 76, 64
2, 28785, Note_on_c, 0, 81, 81
2, 28802, Note_on_c, 0, 48, 68
2, 28818, Control_c, 0, 64, 0
2, 28841, Note_off_c, 0, 77, 64
2, 28861, Control_c, 0, 64, 127
2, 29008, Note_on_c, 0, 54, 47
2, 29014, Note_on_c, 0, 63, 51
2, 29210, Note_on_c, 0, 55, 58
2, 29216, Note_on_c, 0, 79, 72
2, 29218, Note_on_c, 0, 64, 31
2, 29219, Note_off_c, 0, 54, 64
2, 29225, Note_off_c, 0, 63, 64
2, 29230, Note_off_c, 0, 48, 64
2, 29250, Note_off_c, 0, 81, 64
2, 29451, Note_on_c, 0, 48, 70
2, 29453, Note_off_c, 0, 55, 64
2, 29463, Note_off_c, 0, 79, 64
2, 29465, Note_off_c, 0, 64, 64
2, 29482, Note_on_c, 0, 67, 81
2, 29482, Note_on_c, 0, 76, 90
2, 29495, Control_c, 0, 64, 0
2, 29558, Control_c, 0, 64, 127
2, 29718, Note_on_c, 0, 64, 38
2, 29724, Note_on_c, 0, 55, 66
2, 29814, Note_on_c, 0, 75, 72
2, 29816, Note_on_c, 0, 66, 78
2, 29832, Note_off_c, 0, 55, 64
2, 29836, Note_off_c, 0, 64, 64
2, 29840, Note_off_c, 0, 76, 64
2, 29840, Note_off_c, 0, 67, 64
2, 29904, Note_on_c, 0, 69, 82
2, 29904, Note_on_c, 0, 77, 71
2, 29914, Note_off_c, 0, 75, 64
2, 29916, Note_off_c, 0, 66, 64
2, 29921, Note_on_c, 0, 64, 53
2, 29928, Note_on_c, 0, 55, 66
2, 29943, Note_off_c, 0, 48, 64
2, 29976, Note_off_c, 0, 64, 64
2, 29999, Note_off_c, 0, 55, 64
2, 30004, Note_on_c, 0, 67, 88
2, 30009, Note_on_c, 0, 76, 66
2, 30021, Note_off_c, 0, 77, 64
2, 30021, Note_off_c, 0, 69, 64
2, 30080, Note_on_c, 0, 74, 49
2, 30084, Note_off_c, 0, 76, 64
2, 30107, Note_on_c, 0, 76, 54
2, 30116, Note_off_c, 0, 74, 64
2, 30128, Note_on_c, 0, 66, 54
2, 30131, Control_c, 0, 64, 0
2, 30134, Note_on_c, 0, 48, 66
2, 30134, Note_on_c, 0, 74, 81
2, 30151, Note_off_c, 0, 67, 64
2, 30169, Note_off_c, 0, 76, 64
2, 30170, Control_c, 0, 64, 127
2, 30235, Note_on_c, 0, 73, 83
2, 30239, Note_on_c, 0, 65, 59
2, 30241, Note_off_c, 0, 66, 64
2, 30247, Note_off_c, 0, 74, 64
2, 30294, Control_c, 0, 64, 0
2, 30313, Note_on_c, 0, 76, 88
2, 30316, Note_on_c, 0, 67, 75
2, 30320, Note_on_c, 0, 57, 53
2, 30322, Note_on_c, 0, 62, 66
2, 30323, Note_off_c, 0, 73, 64
2, 30327, Note_off_c, 0, 65, 64
2, 30327, Note_on_c, 0, 54, 47
2, 30340, Control_c, 0, 64, 127
2, 30382, Note_off_c, 0, 54, 64
2, 30382, Note_off_c, 0, 62, 64
2, 30382, Note_off_c, 0, 57, 64
2, 30493, Note_on_c, 0, 74, 65
2, 30496, Note_on_c, 0, 66, 77
2, 30500, Note_on_c, 0, 62, 37
2, 30504, Note_on_c, 0, 57, 47
2, 30504, Note_on_c, 0, 54, 47
2, 30506, Note_off_c, 0, 76, 64
2, 30509, Note_off_c, 0, 67, 64
2, 30574, Note_off_c, 0, 74, 64
2, 30577, Note_off_c, 0, 66, 64
2, 30578, Note_off_c, 0, 57, 64
2, 30588, Note_off_c, 0, 54, 64
2, 30613, Note_off_c, 0, 62, 64
2, 30626, Note_off_c, 0, 48, 64
2, 30684, Note_on_c, 0, 65, 81
2, 30690, Note_on_c, 0, 74, 82
2, 30697, Note_on_c, 0, 48, 77
2, 30726, Control_c, 0, 64, 0
2, 30769, Control_c, 0, 64, 127
2, 30870, Note_on_c, 0, 59, 53
2, 30874, Note_on_c, 0, 56, 71
2, 30874, Note_on_c, 0, 53, 47
2, 30880, Note_on_c, 0, 62, 50
2, 30948, Note_on_c, 0, 73, 57
2, 30952, Note_on_c, 0, 64, 62
2, 30961, Note_off_c, 0, 56, 64
2, 30961, Note_off_c, 0, 59, 64
2, 30965, Note_off_c, 0, 53, 64
2, 30969, Note_off_c, 0, 62, 64
2, 30972, Note_off_c, 0, 65, 64
2, 30978, Note_off_c, 0, 74, 64
2, 31036, Note_on_c, 0, 67, 72
2, 31039, Note_on_c, 0, 76, 74
2, 31053, Note_on_c, 0, 62, 47
2, 31053, Note_on_c, 0, 59, 51
2, 31062, Note_on_c, 0, 56, 62
2, 31065, Note_off_c, 0, 73, 64
2, 31069, Note_off_c, 0, 64, 64
2, 31105, Note_off_c, 0, 62, 64
2, 31108, Note_off_c, 0, 59, 64
2, 31116, Note_off_c, 0, 56, 64
2, 31128, Note_off_c, 0, 48, 64
2, 31132, Note_on_c, 0, 65, 66
2, 31136, Note_on_c, 0, 74, 59
2, 31146, Note_off_c, 0, 67, 64
2, 31149, Note_off_c, 0, 76, 64
2, 31184, Note_on_c, 0, 72, 72
2, 31192, Note_off_c, 0, 74, 64
2, 31216, Note_on_c, 0, 74, 46
2, 31234, Note_off_c, 0, 72, 64
2, 31244, Note_on_c, 0, 48, 66
2, 31244, Note_on_c, 0, 64, 76
2, 31244, Note_on_c, 0, 72, 99
2, 31252, Note_on_c, 0, 48, 77
2, 31257, Note_off_c, 0, 65, 64
2, 31273, Note_off_c, 0, 74, 64
2, 31292, Control_c, 0, 64, 0
2, 31319, Control_c, 0, 64, 127
2, 31372, Note_on_c, 0, 71, 62
2, 31378, Note_on_c, 0, 63, 70
2, 31386, Note_off_c, 0, 72, 64
2, 31386, Note_off_c, 0, 64, 64
2, 31473, Note_off_c, 0, 71, 64
2, 31475, Note_on_c, 0, 74, 81
2, 31475, Note_on_c, 0, 65, 81
2, 31479, Note_off_c, 0, 63, 64
2, 31493, Note_on_c, 0, 52, 53
2, 31497, Note_on_c, 0, 60, 47
2, 31498, Note_on_c, 0, 55, 50
2, 31530, Control_c, 0, 64, 0
2, 31573, Control_c, 0, 64, 127
2, 31597, Note_off_c, 0, 52, 64
2, 31600, Note_off_c, 0, 55, 64
2, 31604, Note_off_c, 0, 60, 64
2, 31694, Note_on_c, 0, 72, 66
2, 31698, Note_on_c, 0, 64, 77
2, 31707, Control_c, 0, 64, 0
2, 31711, Note_on_c, 0, 60, 53
2, 31714, Note_off_c, 0, 65, 64
2, 31714, Note_off_c, 0, 74, 64
2, 31717, Note_on_c, 0, 55, 53
2, 31720, Note_on_c, 0, 52, 66
2, 31728, Control_c, 0, 64, 127
2, 31767, Note_off_c, 0, 60, 64
2, 31774, Note_off_c, 0, 55, 64
2, 31787, Note_off_c, 0, 52, 64
2, 31933, Note_off_c, 0, 72, 64
2, 31937, Note_off_c, 0, 64, 64
2, 31940, Note_on_c, 0, 65, 59
2, 31943, Note_on_c, 0, 69, 73
2, 31947, Note_on_c, 0, 41, 59
2, 31963, Control_c, 0, 64, 0
2, 31976, Control_c, 0, 64, 127
2, 32060, Note_on_c, 0, 71, 45
2, 32087, Note_off_c, 0, 69, 64
2, 32104, Note_on_c, 0, 69, 67
2, 32113, Note_off_c, 0, 71, 64
2, 32132, Note_on_c, 0, 71, 86
2, 32149, Note_off_c, 0, 69, 64
2, 32155, Note_on_c, 0, 57, 72
2, 32155, Note_on_c, 0, 60, 79
2, 32159, Note_on_c, 0, 53, 78
2, 32164, Note_on_c, 0, 69, 74
2, 32170, Control_c, 0, 64, 0
2, 32173, Note_off_c, 0, 71, 64
2, 32187, Note_off_c, 0, 41, 64
2, 32193, Control_c, 0, 64, 127
2, 32211, Note_off_c, 0, 57, 64
2, 32214, Note_off_c, 0, 53, 64
2, 32218, Note_off_c, 0, 60, 64
2, 32248, Note_on_c, 0, 64, 83
2, 32252, Note_off_c, 0, 65, 64
2, 32255, Note_on_c, 0, 68, 97
2, 32260, Note_off_c, 0, 69, 64
2, 32348, Note_on_c, 0, 67, 83
2, 32352, Note_on_c, 0, 71, 91
2, 32355, Note_on_c, 0, 57, 78
2, 32360, Note_on_c, 0, 53, 70
2, 32361, Note_off_c, 0, 64, 64
2, 32362, Note_on_c, 0, 60, 63
2, 32368, Note_off_c, 0, 68, 64
2, 32373, Control_c, 0, 64, 0
2, 32386, Control_c, 0, 64, 127
2, 32392, Note_off_c, 0, 60, 64
2, 32392, Note_off_c, 0, 57, 64
2, 32394, Note_off_c, 0, 53, 64
2, 32432, Note_on_c, 0, 69, 74
2, 32438, Note_on_c, 0, 65, 91
2, 32448, Note_off_c, 0, 67, 64
2, 32452, Note_off_c, 0, 71, 64
2, 32528, Note_on_c, 0, 67, 81
2, 32532, Note_on_c, 0, 43, 83
2, 32532, Note_on_c, 0, 64, 91
2, 32536, Note_off_c, 0, 69, 64
2, 32539, Control_c, 0, 64, 0
2, 32542, Note_off_c, 0, 65, 64
2, 32566, Control_c, 0, 64, 127
2, 32612, Note_off_c, 0, 48, 64
2, 32612, Note_off_c, 0, 48, 64
2, 32635, Note_off_c, 0, 67, 64
2, 32655, Note_off_c, 0, 64, 64
2, 32663, Note_on_c, 0, 72, 81
2, 32667, Note_on_c, 0, 64, 79
2, 32723, Note_on_c, 0, 52, 59
2, 32726, Note_on_c, 0, 67, 91
2, 32732, Note_on_c, 0, 60, 64
2, 32733, Note_on_c, 0, 76, 96
2, 32741, Control_c, 0, 64, 0
2, 32756, Note_off_c, 0, 72, 64
2, 32756, Control_c, 0, 64, 127
2, 32760, Note_off_c, 0, 64, 64
2, 32772, Note_off_c, 0, 60, 64
2, 32772, Note_off_c, 0, 52, 64
2, 32772, Note_off_c, 0, 43, 64
2, 32928, Note_on_c, 0, 55, 59
2, 32928, Note_on_c, 0, 52, 59
2, 32935, Note_on_c, 0, 60, 64
2, 32967, Note_off_c, 0, 60, 64
2, 32967, Note_off_c, 0, 55, 64
2, 32974, Note_off_c, 0, 52, 64
2, 33135, Note_on_c, 0, 43, 87
2, 33142, Control_c, 0, 64, 0
2, 33157, Control_c, 0, 64, 127
2, 33203, Note_off_c, 0, 67, 64
2, 33210, Note_off_c, 0, 76, 64
2, 33237, Note_on_c, 0, 74, 79
2, 33242, Note_on_c, 0, 65, 72
2, 33288, Note_on_c, 0, 76, 90
2, 33298, Note_off_c, 0, 74, 64
2, 33316, Note_on_c, 0, 74, 90
2, 33336, Note_off_c, 0, 76, 64
2, 33340, Note_on_c, 0, 64, 9
2, 33344, Note_on_c, 0, 73, 104
2, 33353, Note_on_c, 0, 50, 59
2, 33354, Note_off_c, 0, 74, 64
2, 33358, Note_on_c, 0, 55, 64
2, 33363, Note_on_c, 0, 59, 73
2, 33369, Note_off_c, 0, 65, 64
2, 33375, Note_off_c, 0, 43, 64
2, 33379, Control_c, 0, 64, 0
2, 33406, Control_c, 0, 64, 127
2, 33413, Note_off_c, 0, 55, 64
2, 33415, Note_off_c, 0, 50, 64
2, 33425, Note_off_c, 0, 59, 64
2, 33459, Note_on_c, 0, 74, 83
2, 33462, Note_on_c, 0, 65, 91
2, 33469, Note_off_c, 0, 73, 64
2, 33503, Note_off_c, 0, 64, 64
2, 33557, Note_off_c, 0, 65, 64
2, 33564, Note_on_c, 0, 69, 91
2, 33564, Note_on_c, 0, 77, 91
2, 33573, Note_on_c, 0, 59, 81
2, 33573, Note_on_c, 0, 55, 79
2, 33576, Note_on_c, 0, 50, 79
2, 33588, Note_off_c, 0, 74, 64
2, 33600, Note_off_c, 0, 59, 64
2, 33602, Note_off_c, 0, 55, 64
2, 33608, Note_off_c, 0, 50, 64
2, 33709, Note_off_c, 0, 77, 64
2, 33709, Note_off_c, 0, 69, 64
2, 33736, Note_on_c, 0, 76, 78
2, 33736, Note_on_c, 0, 67, 83
2, 33804, Note_on_c, 0, 36, 97
2, 33805, Control_c, 0, 64, 127
2, 33806, Note_on_c, 0, 74, 81
2, 33808, Note_on_c, 0, 65, 97
2, 33812, Note_on_c, 0, 48, 97
2, 33828, Control_c, 0, 64, 0
2, 33832, Note_off_c, 0, 67, 64
2, 33832, Note_off_c, 0, 76, 64
2, 33861, Control_c, 0, 64, 127
2, 34016, Note_off_c, 0, 74, 64
2, 34018, Note_off_c, 0, 65, 64
2, 34068, Note_off_c, 0, 48, 64
2, 34073, Note_on_c, 0, 67, 73
2, 34073, Note_on_c, 0, 76, 78
2, 34122, Note_on_c, 0, 72, 83
2, 34126, Note_on_c, 0, 64, 95
2, 34142, Note_on_c, 0, 48, 79
2, 34142, Note_on_c, 0, 55, 79
2, 34142, Note_on_c, 0, 60, 81
2, 34152, Note_off_c, 0, 76, 64
2, 34152, Note_off_c, 0, 67, 64
2, 34192, Control_c, 0, 64, 0
2, 34236, Note_off_c, 0, 36, 64
2, 34293, Control_c, 0, 64, 127
2, 34836, Note_off_c, 0, 64, 64
2, 34844, Note_off_c, 0, 55, 64
2, 34844, Note_off_c, 0, 48, 64
2, 34848, Note_off_c, 0, 72, 64
2, 34850, Note_off_c, 0, 60, 64
2, 34964, Control_c, 0, 64, 0
2, 36164, Control_c, 0, 64, 127
2, 36164, End_track
3, 0, Start_track
3, 0, Title_t, "Played by Dr. Ron Lubetsky"
3, 0, End_track
4, 0, Start_track
4, 0, Title_t, "Jan. 12, 1998"
4, 0, End_track
5, 0, Start_track
5, 0, Title_t, "email: acuity2020@aol.com"
5, 0, End_track
6, 0, Start_track
6, 0, Title_t, "Copyright  1998"
6, 0, End_track
7, 0, Start_track
7, 0, Title_t, "All Rights Reserved"
7, 0, End_track
0, 0, End_of_file
