0, 0, Header, 1, 7, 240
1, 0, Start_track
1, 0, Time_signature, 4, 2, 24, 8
1, 0, Tempo, 500000
1, 0, Marker_t, "Chopin: Mazurka, Op. 30 No. 3- Allegro non troppo"
1, 0, End_track
2, 0, Start_track
2, 0, Title_t, "Chopin: Op. 30 No. 3"
2, 0, Program_c, 0, 0
2, 0, Control_c, 0, 7, 127
2, 13, Note_on_c, 0, 56, 60
2, 137, Control_c, 0, 64, 0
2, 137, Control_c, 0, 64, 0
2, 202, Control_c, 0, 64, 127
2, 202, Control_c, 0, 64, 127
2, 621, Note_off_c, 0, 56, 64
2, 650, Note_on_c, 0, 56, 56
2, 1201, Note_off_c, 0, 56, 64
2, 1265, Note_on_c, 0, 56, 49
2, 1335, Note_off_c, 0, 56, 64
2, 1455, Note_on_c, 0, 56, 64
2, 1756, Note_off_c, 0, 56, 64
2, 1842, Note_on_c, 0, 56, 49
2, 1913, Note_off_c, 0, 56, 64
2, 2030, Note_on_c, 0, 56, 67
2, 2152, Control_c, 0, 64, 0
2, 2152, Control_c, 0, 64, 0
2, 2398, Note_off_c, 0, 56, 64
2, 2427, Note_on_c, 0, 56, 52
2, 2469, Control_c, 0, 64, 0
2, 2469, Control_c, 0, 64, 0
2, 2471, Control_c, 0, 64, 0
2, 2471, Control_c, 0, 64, 0
2, 2484, Control_c, 0, 64, 127
2, 2484, Control_c, 0, 64, 127
2, 2502, Control_c, 0, 64, 127
2, 2502, Control_c, 0, 64, 127
2, 2548, Control_c, 0, 64, 0
2, 2548, Control_c, 0, 64, 0
2, 2580, Control_c, 0, 64, 127
2, 2580, Control_c, 0, 64, 127
2, 2607, Note_on_c, 0, 53, 45
2, 2612, Note_off_c, 0, 56, 64
2, 2689, Note_on_c, 0, 54, 45
2, 2698, Control_c, 0, 64, 0
2, 2698, Control_c, 0, 64, 0
2, 2701, Control_c, 0, 64, 0
2, 2701, Control_c, 0, 64, 0
2, 2712, Note_off_c, 0, 53, 64
2, 2737, Control_c, 0, 64, 127
2, 2737, Control_c, 0, 64, 127
2, 2739, Control_c, 0, 64, 127
2, 2739, Control_c, 0, 64, 127
2, 2763, Note_on_c, 0, 56, 35
2, 2796, Note_off_c, 0, 54, 64
2, 2832, Note_on_c, 0, 58, 36
2, 2838, Note_off_c, 0, 56, 64
2, 2902, Note_off_c, 0, 58, 64
2, 2907, Note_on_c, 0, 56, 52
2, 2940, Note_on_c, 0, 58, 58
2, 2946, Note_off_c, 0, 56, 64
2, 2966, Control_c, 0, 64, 0
2, 2966, Control_c, 0, 64, 0
2, 2969, Control_c, 0, 64, 0
2, 2969, Control_c, 0, 64, 0
2, 2975, Note_on_c, 0, 56, 64
2, 2986, Note_off_c, 0, 58, 64
2, 3037, Control_c, 0, 64, 127
2, 3037, Control_c, 0, 64, 127
2, 3146, Control_c, 0, 64, 127
2, 3146, Control_c, 0, 64, 127
2, 3151, Note_on_c, 0, 53, 49
2, 3156, Note_off_c, 0, 56, 64
2, 3234, Note_on_c, 0, 54, 50
2, 3259, Note_off_c, 0, 53, 64
2, 3323, Note_on_c, 0, 56, 43
2, 3363, Note_off_c, 0, 54, 64
2, 3408, Note_on_c, 0, 58, 39
2, 3434, Note_off_c, 0, 56, 64
2, 3500, Control_c, 0, 64, 0
2, 3500, Control_c, 0, 64, 0
2, 3506, Note_on_c, 0, 56, 54
2, 3519, Control_c, 0, 64, 0
2, 3519, Control_c, 0, 64, 0
2, 3520, Note_off_c, 0, 58, 64
2, 3556, Note_on_c, 0, 58, 50
2, 3564, Note_off_c, 0, 56, 64
2, 3612, Note_on_c, 0, 56, 54
2, 3619, Note_off_c, 0, 58, 64
2, 3651, Note_on_c, 0, 53, 46
2, 3671, Note_off_c, 0, 56, 64
2, 3733, Note_on_c, 0, 54, 46
2, 3750, Note_off_c, 0, 53, 64
2, 3824, Note_on_c, 0, 56, 57
2, 3861, Note_off_c, 0, 54, 64
2, 3914, Note_on_c, 0, 58, 52
2, 3924, Control_c, 0, 64, 127
2, 3924, Control_c, 0, 64, 127
2, 3929, Note_off_c, 0, 56, 64
2, 3935, Control_c, 0, 64, 127
2, 3935, Control_c, 0, 64, 127
2, 3998, Note_on_c, 0, 56, 68
2, 4009, Note_off_c, 0, 58, 64
2, 4086, Note_on_c, 0, 61, 64
2, 4094, Control_c, 0, 64, 0
2, 4094, Control_c, 0, 64, 0
2, 4095, Control_c, 0, 64, 0
2, 4095, Control_c, 0, 64, 0
2, 4109, Note_off_c, 0, 56, 64
2, 4151, Control_c, 0, 64, 127
2, 4151, Control_c, 0, 64, 127
2, 4173, Note_on_c, 0, 63, 70
2, 4194, Note_off_c, 0, 61, 64
2, 4245, Control_c, 0, 64, 127
2, 4245, Control_c, 0, 64, 127
2, 4249, Note_on_c, 0, 66, 68
2, 4275, Note_off_c, 0, 63, 64
2, 4352, Note_on_c, 0, 65, 71
2, 4388, Note_off_c, 0, 66, 64
2, 4432, Note_on_c, 0, 63, 83
2, 4465, Note_off_c, 0, 65, 64
2, 4544, Note_on_c, 0, 65, 76
2, 4544, Note_on_c, 0, 61, 83
2, 4544, Note_on_c, 0, 37, 69
2, 4544, Note_on_c, 0, 25, 69
2, 4566, Note_off_c, 0, 63, 64
2, 4588, Control_c, 0, 64, 0
2, 4588, Control_c, 0, 64, 0
2, 4618, Control_c, 0, 64, 127
2, 4618, Control_c, 0, 64, 127
2, 4620, Note_off_c, 0, 61, 64
2, 4620, Note_off_c, 0, 65, 64
2, 4680, Note_on_c, 0, 66, 69
2, 4680, Note_on_c, 0, 63, 71
2, 4680, Note_on_c, 0, 61, 63
2, 4724, Note_on_c, 0, 53, 65
2, 4728, Note_on_c, 0, 67, 72
2, 4728, Note_on_c, 0, 64, 76
2, 4751, Note_off_c, 0, 61, 64
2, 4751, Note_off_c, 0, 63, 64
2, 4751, Note_off_c, 0, 66, 64
2, 4752, Control_c, 0, 64, 0
2, 4752, Control_c, 0, 64, 0
2, 4779, Control_c, 0, 64, 127
2, 4779, Control_c, 0, 64, 127
2, 4784, Note_off_c, 0, 25, 64
2, 4784, Note_off_c, 0, 37, 64
2, 4890, Note_off_c, 0, 53, 64
2, 4890, Note_off_c, 0, 64, 64
2, 4890, Note_off_c, 0, 67, 64
2, 4896, Note_on_c, 0, 65, 76
2, 4896, Note_on_c, 0, 44, 65
2, 4900, Note_on_c, 0, 68, 80
2, 5062, Note_off_c, 0, 44, 64
2, 5062, Note_off_c, 0, 65, 64
2, 5066, Note_off_c, 0, 68, 64
2, 5081, Note_on_c, 0, 37, 63
2, 5084, Note_on_c, 0, 70, 83
2, 5084, Note_on_c, 0, 66, 83
2, 5182, Note_off_c, 0, 66, 64
2, 5182, Note_off_c, 0, 70, 64
2, 5200, Note_on_c, 0, 68, 58
2, 5200, Note_on_c, 0, 65, 54
2, 5200, Note_on_c, 0, 61, 65
2, 5218, Note_off_c, 0, 37, 64
2, 5251, Note_on_c, 0, 53, 76
2, 5257, Note_on_c, 0, 77, 83
2, 5257, Note_on_c, 0, 73, 83
2, 5271, Note_off_c, 0, 61, 64
2, 5271, Note_off_c, 0, 65, 64
2, 5271, Note_off_c, 0, 68, 64
2, 5279, Control_c, 0, 64, 0
2, 5279, Control_c, 0, 64, 0
2, 5302, Control_c, 0, 64, 127
2, 5302, Control_c, 0, 64, 127
2, 5446, Note_off_c, 0, 53, 64
2, 5451, Note_on_c, 0, 44, 61
2, 5460, Note_off_c, 0, 73, 64
2, 5466, Note_off_c, 0, 77, 64
2, 5620, Note_off_c, 0, 44, 64
2, 5633, Control_c, 0, 64, 0
2, 5633, Control_c, 0, 64, 0
2, 5640, Note_on_c, 0, 75, 71
2, 5640, Note_on_c, 0, 72, 71
2, 5640, Note_on_c, 0, 30, 60
2, 5662, Control_c, 0, 64, 127
2, 5662, Control_c, 0, 64, 127
2, 5738, Note_off_c, 0, 72, 64
2, 5738, Note_off_c, 0, 75, 64
2, 5764, Note_on_c, 0, 70, 46
2, 5768, Note_on_c, 0, 73, 45
2, 5768, Note_on_c, 0, 58, 54
2, 5779, Note_off_c, 0, 30, 64
2, 5794, Note_off_c, 0, 70, 64
2, 5802, Control_c, 0, 64, 0
2, 5802, Control_c, 0, 64, 0
2, 5808, Note_on_c, 0, 66, 83
2, 5808, Note_on_c, 0, 49, 52
2, 5810, Note_on_c, 0, 70, 83
2, 5839, Note_off_c, 0, 58, 64
2, 5839, Note_off_c, 0, 73, 64
2, 5844, Control_c, 0, 64, 127
2, 5844, Control_c, 0, 64, 127
2, 5970, Note_off_c, 0, 66, 64
2, 5972, Note_off_c, 0, 70, 64
2, 5987, Note_off_c, 0, 49, 64
2, 6004, Note_on_c, 0, 58, 65
2, 6006, Note_on_c, 0, 66, 76
2, 6006, Note_on_c, 0, 42, 60
2, 6163, Note_off_c, 0, 42, 64
2, 6166, Note_off_c, 0, 58, 64
2, 6168, Note_off_c, 0, 66, 64
2, 6186, Control_c, 0, 64, 0
2, 6186, Control_c, 0, 64, 0
2, 6191, Note_on_c, 0, 37, 54
2, 6192, Note_on_c, 0, 65, 69
2, 6192, Note_on_c, 0, 56, 61
2, 6202, Control_c, 0, 64, 127
2, 6202, Control_c, 0, 64, 127
2, 6290, Note_off_c, 0, 56, 64
2, 6290, Note_off_c, 0, 65, 64
2, 6317, Note_on_c, 0, 70, 48
2, 6317, Note_on_c, 0, 61, 60
2, 6320, Note_on_c, 0, 66, 54
2, 6368, Note_on_c, 0, 65, 83
2, 6370, Note_off_c, 0, 37, 64
2, 6372, Note_on_c, 0, 68, 71
2, 6372, Note_on_c, 0, 53, 72
2, 6376, Control_c, 0, 64, 0
2, 6376, Control_c, 0, 64, 0
2, 6386, Note_off_c, 0, 70, 64
2, 6388, Note_off_c, 0, 66, 64
2, 6389, Note_off_c, 0, 61, 64
2, 6429, Control_c, 0, 64, 127
2, 6429, Control_c, 0, 64, 127
2, 6534, Control_c, 0, 64, 0
2, 6534, Control_c, 0, 64, 0
2, 6550, Control_c, 0, 64, 127
2, 6550, Control_c, 0, 64, 127
2, 6557, Note_off_c, 0, 65, 64
2, 6561, Note_off_c, 0, 68, 64
2, 6562, Note_on_c, 0, 44, 52
2, 6575, Note_off_c, 0, 53, 64
2, 6729, Note_off_c, 0, 44, 64
2, 6740, Note_on_c, 0, 75, 45
2, 6740, Note_on_c, 0, 30, 45
2, 6746, Note_on_c, 0, 72, 43
2, 6755, Control_c, 0, 64, 0
2, 6755, Control_c, 0, 64, 0
2, 6768, Control_c, 0, 64, 127
2, 6768, Control_c, 0, 64, 127
2, 6838, Note_off_c, 0, 75, 64
2, 6844, Note_off_c, 0, 72, 64
2, 6868, Note_on_c, 0, 69, 45
2, 6868, Note_on_c, 0, 57, 52
2, 6876, Note_on_c, 0, 73, 45
2, 6901, Note_off_c, 0, 69, 64
2, 6905, Note_off_c, 0, 30, 64
2, 6909, Note_off_c, 0, 73, 64
2, 6924, Note_on_c, 0, 69, 50
2, 6926, Note_on_c, 0, 66, 54
2, 6927, Control_c, 0, 64, 0
2, 6927, Control_c, 0, 64, 0
2, 6939, Note_on_c, 0, 49, 38
2, 6946, Note_off_c, 0, 57, 64
2, 6955, Control_c, 0, 64, 127
2, 6955, Control_c, 0, 64, 127
2, 7031, Control_c, 0, 64, 0
2, 7031, Control_c, 0, 64, 0
2, 7044, Control_c, 0, 64, 127
2, 7044, Control_c, 0, 64, 127
2, 7093, Note_off_c, 0, 69, 64
2, 7095, Note_off_c, 0, 66, 64
2, 7100, Note_on_c, 0, 66, 42
2, 7102, Note_on_c, 0, 42, 45
2, 7104, Note_on_c, 0, 57, 43
2, 7108, Note_off_c, 0, 49, 64
2, 7264, Note_off_c, 0, 66, 64
2, 7266, Note_off_c, 0, 42, 64
2, 7268, Note_off_c, 0, 57, 64
2, 7280, Note_on_c, 0, 56, 46
2, 7284, Note_on_c, 0, 37, 46
2, 7285, Note_on_c, 0, 65, 38
2, 7320, Note_off_c, 0, 65, 64
2, 7322, Note_off_c, 0, 56, 64
2, 7404, Note_on_c, 0, 69, 46
2, 7404, Note_on_c, 0, 66, 49
2, 7408, Note_on_c, 0, 61, 56
2, 7443, Note_off_c, 0, 37, 64
2, 7455, Note_on_c, 0, 68, 52
2, 7463, Note_on_c, 0, 65, 50
2, 7465, Control_c, 0, 64, 0
2, 7465, Control_c, 0, 64, 0
2, 7471, Note_off_c, 0, 66, 64
2, 7472, Note_off_c, 0, 69, 64
2, 7472, Note_on_c, 0, 53, 46
2, 7480, Note_off_c, 0, 61, 64
2, 7614, Control_c, 0, 64, 127
2, 7614, Control_c, 0, 64, 127
2, 7624, Note_off_c, 0, 53, 64
2, 7645, Note_off_c, 0, 65, 64
2, 7652, Note_off_c, 0, 68, 64
2, 7655, Note_on_c, 0, 44, 41
2, 7822, Note_off_c, 0, 44, 64
2, 7822, Control_c, 0, 64, 0
2, 7822, Control_c, 0, 64, 0
2, 7836, Note_on_c, 0, 56, 83
2, 7836, Note_on_c, 0, 25, 83
2, 7837, Note_on_c, 0, 65, 83
2, 7844, Note_on_c, 0, 37, 83
2, 7874, Control_c, 0, 64, 127
2, 7874, Control_c, 0, 64, 127
2, 7934, Note_off_c, 0, 56, 64
2, 7935, Note_off_c, 0, 65, 64
2, 7973, Note_off_c, 0, 25, 64
2, 7981, Note_off_c, 0, 37, 64
2, 8000, Note_on_c, 0, 61, 61
2, 8002, Note_on_c, 0, 70, 61
2, 8006, Note_on_c, 0, 66, 43
2, 8045, Control_c, 0, 64, 0
2, 8045, Control_c, 0, 64, 0
2, 8048, Note_on_c, 0, 65, 83
2, 8049, Note_on_c, 0, 68, 83
2, 8056, Note_on_c, 0, 53, 83
2, 8071, Note_off_c, 0, 61, 64
2, 8073, Note_off_c, 0, 70, 64
2, 8077, Note_off_c, 0, 66, 64
2, 8097, Control_c, 0, 64, 127
2, 8097, Control_c, 0, 64, 127
2, 8205, Note_off_c, 0, 53, 64
2, 8235, Note_off_c, 0, 68, 64
2, 8235, Note_off_c, 0, 65, 64
2, 8237, Note_on_c, 0, 44, 69
2, 8386, Note_off_c, 0, 44, 64
2, 8418, Control_c, 0, 64, 0
2, 8418, Control_c, 0, 64, 0
2, 8424, Note_on_c, 0, 65, 41
2, 8424, Note_on_c, 0, 56, 41
2, 8425, Note_on_c, 0, 37, 41
2, 8447, Control_c, 0, 64, 127
2, 8447, Control_c, 0, 64, 127
2, 8522, Note_off_c, 0, 56, 64
2, 8522, Note_off_c, 0, 65, 64
2, 8568, Note_on_c, 0, 66, 46
2, 8568, Note_on_c, 0, 61, 46
2, 8572, Note_on_c, 0, 69, 35
2, 8610, Note_off_c, 0, 37, 64
2, 8614, Control_c, 0, 64, 0
2, 8614, Control_c, 0, 64, 0
2, 8620, Note_on_c, 0, 68, 58
2, 8620, Note_on_c, 0, 65, 58
2, 8629, Note_on_c, 0, 53, 52
2, 8639, Note_off_c, 0, 61, 64
2, 8639, Note_off_c, 0, 66, 64
2, 8643, Note_off_c, 0, 69, 64
2, 8645, Control_c, 0, 64, 127
2, 8645, Control_c, 0, 64, 127
2, 8791, Note_off_c, 0, 65, 64
2, 8792, Note_off_c, 0, 68, 64
2, 8804, Note_off_c, 0, 53, 64
2, 8804, Note_on_c, 0, 44, 43
2, 8953, Note_off_c, 0, 44, 64
2, 8984, Note_on_c, 0, 70, 64
2, 8985, Control_c, 0, 64, 0
2, 8985, Control_c, 0, 64, 0
2, 8991, Note_on_c, 0, 66, 60
2, 8991, Note_on_c, 0, 32, 79
2, 9004, Control_c, 0, 64, 127
2, 9004, Control_c, 0, 64, 127
2, 9082, Note_off_c, 0, 70, 64
2, 9089, Note_off_c, 0, 66, 64
2, 9103, Note_on_c, 0, 60, 64
2, 9105, Note_on_c, 0, 68, 71
2, 9106, Note_on_c, 0, 72, 60
2, 9142, Note_off_c, 0, 32, 64
2, 9157, Note_on_c, 0, 54, 64
2, 9158, Note_on_c, 0, 73, 79
2, 9162, Note_on_c, 0, 70, 71
2, 9174, Note_off_c, 0, 60, 64
2, 9176, Note_off_c, 0, 68, 64
2, 9177, Note_off_c, 0, 72, 64
2, 9329, Note_off_c, 0, 54, 64
2, 9330, Note_off_c, 0, 73, 64
2, 9334, Note_off_c, 0, 70, 64
2, 9338, Note_on_c, 0, 72, 64
2, 9341, Note_on_c, 0, 75, 71
2, 9347, Note_on_c, 0, 44, 72
2, 9510, Note_off_c, 0, 72, 64
2, 9513, Note_off_c, 0, 75, 64
2, 9519, Note_off_c, 0, 44, 64
2, 9519, Control_c, 0, 64, 0
2, 9519, Control_c, 0, 64, 0
2, 9534, Note_on_c, 0, 37, 76
2, 9535, Note_on_c, 0, 73, 76
2, 9537, Note_on_c, 0, 77, 78
2, 9568, Control_c, 0, 64, 127
2, 9568, Control_c, 0, 64, 127
2, 9633, Note_off_c, 0, 73, 64
2, 9635, Note_off_c, 0, 77, 64
2, 9668, Note_on_c, 0, 78, 34
2, 9668, Note_on_c, 0, 75, 64
2, 9668, Note_on_c, 0, 61, 74
2, 9715, Note_off_c, 0, 37, 64
2, 9718, Note_on_c, 0, 79, 87
2, 9718, Note_on_c, 0, 53, 72
2, 9724, Note_on_c, 0, 76, 89
2, 9739, Note_off_c, 0, 61, 64
2, 9739, Note_off_c, 0, 75, 64
2, 9739, Note_off_c, 0, 78, 64
2, 9872, Note_off_c, 0, 53, 64
2, 9872, Note_off_c, 0, 79, 64
2, 9878, Note_off_c, 0, 76, 64
2, 9889, Note_on_c, 0, 77, 80
2, 9892, Note_on_c, 0, 80, 85
2, 9900, Note_on_c, 0, 44, 52
2, 10043, Note_off_c, 0, 77, 64
2, 10046, Note_off_c, 0, 80, 64
2, 10054, Note_off_c, 0, 44, 64
2, 10074, Note_on_c, 0, 32, 77
2, 10076, Note_on_c, 0, 84, 90
2, 10080, Note_on_c, 0, 80, 91
2, 10087, Control_c, 0, 64, 0
2, 10087, Control_c, 0, 64, 0
2, 10100, Control_c, 0, 64, 127
2, 10100, Control_c, 0, 64, 127
2, 10174, Note_off_c, 0, 84, 64
2, 10178, Note_off_c, 0, 80, 64
2, 10179, Note_on_c, 0, 82, 94
2, 10180, Note_on_c, 0, 78, 86
2, 10196, Note_on_c, 0, 60, 58
2, 10211, Note_on_c, 0, 84, 94
2, 10215, Note_off_c, 0, 82, 64
2, 10245, Note_on_c, 0, 82, 83
2, 10265, Note_off_c, 0, 32, 64
2, 10267, Note_off_c, 0, 60, 64
2, 10270, Note_off_c, 0, 84, 64
2, 10270, Control_c, 0, 64, 0
2, 10270, Control_c, 0, 64, 0
2, 10284, Note_on_c, 0, 77, 86
2, 10284, Note_on_c, 0, 54, 56
2, 10287, Note_on_c, 0, 80, 86
2, 10290, Note_off_c, 0, 78, 64
2, 10296, Control_c, 0, 64, 127
2, 10296, Control_c, 0, 64, 127
2, 10307, Note_off_c, 0, 82, 64
2, 10426, Note_off_c, 0, 54, 64
2, 10426, Note_off_c, 0, 77, 64
2, 10429, Note_off_c, 0, 80, 64
2, 10433, Note_on_c, 0, 78, 78
2, 10435, Note_on_c, 0, 44, 70
2, 10440, Note_on_c, 0, 75, 74
2, 10575, Note_off_c, 0, 78, 64
2, 10577, Note_off_c, 0, 44, 64
2, 10582, Note_off_c, 0, 75, 64
2, 10624, Note_on_c, 0, 37, 80
2, 10625, Note_on_c, 0, 73, 91
2, 10628, Note_on_c, 0, 77, 76
2, 10633, Control_c, 0, 64, 0
2, 10633, Control_c, 0, 64, 0
2, 10655, Control_c, 0, 64, 127
2, 10655, Control_c, 0, 64, 127
2, 10723, Note_off_c, 0, 73, 64
2, 10726, Note_off_c, 0, 77, 64
2, 10732, Note_on_c, 0, 61, 64
2, 10736, Note_on_c, 0, 75, 58
2, 10739, Note_on_c, 0, 68, 58
2, 10789, Note_on_c, 0, 53, 78
2, 10793, Note_on_c, 0, 65, 94
2, 10797, Note_on_c, 0, 73, 94
2, 10803, Note_off_c, 0, 61, 64
2, 10804, Control_c, 0, 64, 0
2, 10804, Control_c, 0, 64, 0
2, 10807, Note_off_c, 0, 75, 64
2, 10810, Note_off_c, 0, 68, 64
2, 10823, Note_off_c, 0, 37, 64
2, 10859, Control_c, 0, 64, 127
2, 10859, Control_c, 0, 64, 127
2, 10952, Control_c, 0, 64, 0
2, 10952, Control_c, 0, 64, 0
2, 10988, Note_on_c, 0, 44, 78
2, 10997, Control_c, 0, 64, 127
2, 10997, Control_c, 0, 64, 127
2, 11009, Note_off_c, 0, 53, 64
2, 11024, Note_off_c, 0, 73, 64
2, 11028, Note_off_c, 0, 65, 64
2, 11155, Note_off_c, 0, 44, 64
2, 11164, Note_on_c, 0, 66, 45
2, 11168, Note_on_c, 0, 69, 46
2, 11170, Note_on_c, 0, 32, 45
2, 11262, Note_off_c, 0, 66, 64
2, 11264, Note_on_c, 0, 72, 46
2, 11266, Note_off_c, 0, 69, 64
2, 11266, Note_on_c, 0, 68, 58
2, 11266, Note_on_c, 0, 60, 49
2, 11342, Note_on_c, 0, 73, 54
2, 11342, Note_on_c, 0, 54, 53
2, 11351, Note_on_c, 0, 69, 46
2, 11362, Note_off_c, 0, 72, 64
2, 11364, Note_off_c, 0, 60, 64
2, 11364, Note_off_c, 0, 68, 64
2, 11365, Note_off_c, 0, 32, 64
2, 11492, Note_off_c, 0, 54, 64
2, 11492, Note_off_c, 0, 73, 64
2, 11501, Note_off_c, 0, 69, 64
2, 11524, Note_on_c, 0, 75, 52
2, 11525, Note_on_c, 0, 72, 42
2, 11527, Note_on_c, 0, 44, 46
2, 11687, Note_off_c, 0, 75, 64
2, 11688, Note_off_c, 0, 72, 64
2, 11690, Note_off_c, 0, 44, 64
2, 11694, Control_c, 0, 64, 0
2, 11694, Control_c, 0, 64, 0
2, 11712, Note_on_c, 0, 76, 52
2, 11712, Note_on_c, 0, 73, 52
2, 11714, Note_on_c, 0, 37, 47
2, 11731, Control_c, 0, 64, 127
2, 11731, Control_c, 0, 64, 127
2, 11800, Note_on_c, 0, 61, 52
2, 11804, Note_on_c, 0, 79, 28
2, 11804, Note_on_c, 0, 75, 54
2, 11810, Note_off_c, 0, 73, 64
2, 11810, Note_off_c, 0, 76, 64
2, 11884, Note_on_c, 0, 76, 56
2, 11884, Note_on_c, 0, 52, 46
2, 11886, Note_on_c, 0, 80, 54
2, 11898, Note_off_c, 0, 61, 64
2, 11902, Note_off_c, 0, 75, 64
2, 11902, Note_off_c, 0, 79, 64
2, 11911, Note_off_c, 0, 37, 64
2, 12041, Note_off_c, 0, 52, 64
2, 12041, Note_off_c, 0, 76, 64
2, 12043, Note_off_c, 0, 80, 64
2, 12060, Note_on_c, 0, 81, 52
2, 12060, Note_on_c, 0, 78, 38
2, 12067, Note_on_c, 0, 44, 43
2, 12217, Note_off_c, 0, 78, 64
2, 12217, Note_off_c, 0, 81, 64
2, 12224, Note_off_c, 0, 44, 64
2, 12232, Note_on_c, 0, 84, 46
2, 12232, Note_on_c, 0, 80, 52
2, 12237, Note_on_c, 0, 32, 52
2, 12320, Note_on_c, 0, 81, 31
2, 12320, Note_on_c, 0, 78, 52
2, 12320, Note_on_c, 0, 60, 52
2, 12330, Note_off_c, 0, 80, 64
2, 12330, Note_off_c, 0, 84, 64
2, 12348, Note_on_c, 0, 83, 46
2, 12348, Note_on_c, 0, 83, 46
2, 12353, Note_off_c, 0, 81, 64
2, 12386, Note_on_c, 0, 81, 52
2, 12391, Note_off_c, 0, 60, 64
2, 12400, Note_off_c, 0, 78, 64
2, 12408, Note_on_c, 0, 54, 52
2, 12411, Note_on_c, 0, 76, 52
2, 12414, Note_off_c, 0, 83, 64
2, 12414, Note_off_c, 0, 83, 64
2, 12415, Note_on_c, 0, 80, 54
2, 12431, Control_c, 0, 64, 0
2, 12431, Control_c, 0, 64, 0
2, 12432, Note_off_c, 0, 32, 64
2, 12438, Note_off_c, 0, 81, 64
2, 12464, Control_c, 0, 64, 127
2, 12464, Control_c, 0, 64, 127
2, 12519, Note_off_c, 0, 54, 64
2, 12568, Note_off_c, 0, 76, 64
2, 12572, Note_off_c, 0, 80, 64
2, 12587, Note_on_c, 0, 75, 52
2, 12591, Note_on_c, 0, 78, 52
2, 12598, Note_on_c, 0, 44, 50
2, 12744, Note_off_c, 0, 75, 64
2, 12748, Note_off_c, 0, 78, 64
2, 12755, Note_off_c, 0, 44, 64
2, 12772, Note_on_c, 0, 76, 52
2, 12775, Note_on_c, 0, 37, 52
2, 12776, Note_on_c, 0, 73, 45
2, 12787, Control_c, 0, 64, 0
2, 12787, Control_c, 0, 64, 0
2, 12801, Control_c, 0, 64, 127
2, 12801, Control_c, 0, 64, 127
2, 12870, Note_off_c, 0, 76, 64
2, 12874, Note_off_c, 0, 73, 64
2, 12892, Note_on_c, 0, 61, 58
2, 12896, Note_on_c, 0, 75, 47
2, 12896, Note_on_c, 0, 68, 46
2, 12932, Note_on_c, 0, 52, 46
2, 12937, Note_on_c, 0, 64, 46
2, 12940, Note_on_c, 0, 73, 50
2, 12955, Control_c, 0, 64, 0
2, 12955, Control_c, 0, 64, 0
2, 12963, Note_off_c, 0, 61, 64
2, 12967, Note_off_c, 0, 68, 64
2, 12967, Note_off_c, 0, 75, 64
2, 12972, Note_off_c, 0, 37, 64
2, 13002, Control_c, 0, 64, 127
2, 13002, Control_c, 0, 64, 127
2, 13127, Note_on_c, 0, 44, 46
2, 13145, Note_off_c, 0, 52, 64
2, 13149, Note_off_c, 0, 64, 64
2, 13153, Note_off_c, 0, 73, 64
2, 13282, Control_c, 0, 64, 0
2, 13282, Control_c, 0, 64, 0
2, 13312, Note_off_c, 0, 44, 64
2, 13324, Note_on_c, 0, 37, 84
2, 13326, Note_on_c, 0, 65, 72
2, 13326, Note_on_c, 0, 61, 86
2, 13328, Note_on_c, 0, 25, 83
2, 13376, Control_c, 0, 64, 127
2, 13376, Control_c, 0, 64, 127
2, 13424, Note_off_c, 0, 61, 64
2, 13424, Note_off_c, 0, 65, 64
2, 13468, Note_on_c, 0, 66, 76
2, 13468, Note_on_c, 0, 63, 90
2, 13468, Note_on_c, 0, 61, 69
2, 13512, Control_c, 0, 64, 0
2, 13512, Control_c, 0, 64, 0
2, 13520, Note_off_c, 0, 37, 64
2, 13520, Note_on_c, 0, 67, 78
2, 13520, Note_on_c, 0, 64, 78
2, 13520, Note_on_c, 0, 53, 76
2, 13524, Note_off_c, 0, 25, 64
2, 13534, Control_c, 0, 64, 127
2, 13534, Control_c, 0, 64, 127
2, 13539, Note_off_c, 0, 61, 64
2, 13539, Note_off_c, 0, 63, 64
2, 13539, Note_off_c, 0, 66, 64
2, 13677, Note_off_c, 0, 53, 64
2, 13677, Note_off_c, 0, 64, 64
2, 13677, Note_off_c, 0, 67, 64
2, 13688, Note_on_c, 0, 65, 83
2, 13690, Note_on_c, 0, 68, 86
2, 13696, Note_on_c, 0, 44, 79
2, 13845, Note_off_c, 0, 65, 64
2, 13847, Note_off_c, 0, 68, 64
2, 13853, Note_off_c, 0, 44, 64
2, 13854, Control_c, 0, 64, 0
2, 13854, Control_c, 0, 64, 0
2, 13863, Note_on_c, 0, 70, 94
2, 13863, Note_on_c, 0, 66, 94
2, 13869, Note_on_c, 0, 37, 78
2, 13894, Control_c, 0, 64, 127
2, 13894, Control_c, 0, 64, 127
2, 13961, Note_off_c, 0, 66, 64
2, 13961, Note_off_c, 0, 70, 64
2, 13980, Note_on_c, 0, 68, 71
2, 13980, Note_on_c, 0, 65, 63
2, 13987, Note_on_c, 0, 61, 76
2, 14033, Control_c, 0, 64, 0
2, 14033, Control_c, 0, 64, 0
2, 14041, Note_on_c, 0, 73, 94
2, 14041, Note_on_c, 0, 53, 86
2, 14042, Note_on_c, 0, 77, 94
2, 14051, Note_off_c, 0, 65, 64
2, 14051, Note_off_c, 0, 68, 64
2, 14054, Note_off_c, 0, 37, 64
2, 14058, Note_off_c, 0, 61, 64
2, 14106, Control_c, 0, 64, 127
2, 14106, Control_c, 0, 64, 127
2, 14201, Control_c, 0, 64, 0
2, 14201, Control_c, 0, 64, 0
2, 14230, Note_on_c, 0, 44, 63
2, 14248, Control_c, 0, 64, 127
2, 14248, Control_c, 0, 64, 127
2, 14309, Note_off_c, 0, 53, 64
2, 14338, Note_off_c, 0, 77, 64
2, 14346, Note_off_c, 0, 73, 64
2, 14387, Note_off_c, 0, 44, 64
2, 14391, Control_c, 0, 64, 0
2, 14391, Control_c, 0, 64, 0
2, 14408, Note_on_c, 0, 75, 74
2, 14408, Note_on_c, 0, 72, 74
2, 14408, Note_on_c, 0, 30, 83
2, 14434, Control_c, 0, 64, 127
2, 14434, Control_c, 0, 64, 127
2, 14506, Note_off_c, 0, 72, 64
2, 14506, Note_off_c, 0, 75, 64
2, 14520, Note_on_c, 0, 73, 77
2, 14520, Note_on_c, 0, 70, 70
2, 14528, Note_on_c, 0, 58, 83
2, 14562, Control_c, 0, 64, 0
2, 14562, Control_c, 0, 64, 0
2, 14567, Note_off_c, 0, 70, 64
2, 14571, Note_on_c, 0, 66, 91
2, 14574, Note_on_c, 0, 49, 76
2, 14584, Note_on_c, 0, 70, 94
2, 14591, Note_off_c, 0, 73, 64
2, 14599, Note_off_c, 0, 58, 64
2, 14605, Note_off_c, 0, 30, 64
2, 14611, Control_c, 0, 64, 127
2, 14611, Control_c, 0, 64, 127
2, 14738, Note_off_c, 0, 66, 64
2, 14741, Note_off_c, 0, 49, 64
2, 14751, Note_off_c, 0, 70, 64
2, 14752, Note_on_c, 0, 58, 65
2, 14752, Note_on_c, 0, 42, 98
2, 14755, Note_on_c, 0, 66, 87
2, 14768, Control_c, 0, 64, 0
2, 14768, Control_c, 0, 64, 0
2, 14790, Control_c, 0, 64, 127
2, 14790, Control_c, 0, 64, 127
2, 14919, Note_off_c, 0, 42, 64
2, 14919, Note_off_c, 0, 58, 64
2, 14922, Note_off_c, 0, 66, 64
2, 14925, Note_on_c, 0, 56, 78
2, 14929, Control_c, 0, 64, 0
2, 14929, Control_c, 0, 64, 0
2, 14935, Note_on_c, 0, 65, 78
2, 14935, Note_on_c, 0, 37, 83
2, 14968, Control_c, 0, 64, 127
2, 14968, Control_c, 0, 64, 127
2, 15023, Note_off_c, 0, 56, 64
2, 15033, Note_off_c, 0, 65, 64
2, 15049, Note_on_c, 0, 70, 75
2, 15054, Note_on_c, 0, 66, 54
2, 15058, Note_on_c, 0, 61, 84
2, 15101, Note_on_c, 0, 68, 87
2, 15104, Note_on_c, 0, 65, 91
2, 15110, Note_on_c, 0, 53, 84
2, 15114, Control_c, 0, 64, 0
2, 15114, Control_c, 0, 64, 0
2, 15120, Note_off_c, 0, 70, 64
2, 15125, Note_off_c, 0, 66, 64
2, 15126, Note_off_c, 0, 37, 64
2, 15129, Note_off_c, 0, 61, 64
2, 15148, Control_c, 0, 64, 127
2, 15148, Control_c, 0, 64, 127
2, 15277, Note_off_c, 0, 65, 64
2, 15277, Note_off_c, 0, 68, 64
2, 15281, Note_off_c, 0, 53, 64
2, 15300, Note_on_c, 0, 44, 63
2, 15445, Note_off_c, 0, 44, 64
2, 15472, Control_c, 0, 64, 0
2, 15472, Control_c, 0, 64, 0
2, 15478, Note_on_c, 0, 30, 46
2, 15484, Note_on_c, 0, 75, 45
2, 15487, Note_on_c, 0, 72, 45
2, 15524, Control_c, 0, 64, 127
2, 15524, Control_c, 0, 64, 127
2, 15582, Note_off_c, 0, 75, 64
2, 15585, Note_off_c, 0, 72, 64
2, 15592, Note_on_c, 0, 73, 49
2, 15596, Note_on_c, 0, 69, 45
2, 15599, Note_on_c, 0, 57, 49
2, 15635, Note_off_c, 0, 69, 64
2, 15644, Control_c, 0, 64, 0
2, 15644, Control_c, 0, 64, 0
2, 15654, Note_on_c, 0, 69, 53
2, 15655, Note_on_c, 0, 66, 57
2, 15663, Note_off_c, 0, 73, 64
2, 15663, Note_on_c, 0, 49, 39
2, 15665, Note_off_c, 0, 30, 64
2, 15670, Note_off_c, 0, 57, 64
2, 15699, Control_c, 0, 64, 127
2, 15699, Control_c, 0, 64, 127
2, 15818, Note_off_c, 0, 69, 64
2, 15819, Note_off_c, 0, 66, 64
2, 15827, Note_off_c, 0, 49, 64
2, 15828, Note_on_c, 0, 57, 24
2, 15832, Note_on_c, 0, 66, 49
2, 15841, Note_on_c, 0, 42, 42
2, 15992, Note_off_c, 0, 57, 64
2, 15996, Note_off_c, 0, 66, 64
2, 16000, Note_on_c, 0, 65, 30
2, 16002, Note_on_c, 0, 56, 39
2, 16005, Note_off_c, 0, 42, 64
2, 16009, Note_on_c, 0, 37, 47
2, 16009, Control_c, 0, 64, 0
2, 16009, Control_c, 0, 64, 0
2, 16037, Control_c, 0, 64, 127
2, 16037, Control_c, 0, 64, 127
2, 16098, Note_off_c, 0, 65, 64
2, 16100, Note_off_c, 0, 56, 64
2, 16129, Note_on_c, 0, 69, 49
2, 16129, Note_on_c, 0, 66, 38
2, 16132, Note_on_c, 0, 61, 58
2, 16183, Note_on_c, 0, 68, 50
2, 16183, Note_on_c, 0, 65, 47
2, 16187, Control_c, 0, 64, 0
2, 16187, Control_c, 0, 64, 0
2, 16198, Note_off_c, 0, 37, 64
2, 16200, Note_off_c, 0, 66, 64
2, 16200, Note_off_c, 0, 69, 64
2, 16203, Note_off_c, 0, 61, 64
2, 16206, Note_on_c, 0, 53, 45
2, 16220, Control_c, 0, 64, 127
2, 16220, Control_c, 0, 64, 127
2, 16335, Note_off_c, 0, 53, 64
2, 16345, Note_off_c, 0, 65, 64
2, 16345, Note_off_c, 0, 68, 64
2, 16362, Note_on_c, 0, 44, 47
2, 16508, Control_c, 0, 64, 0
2, 16508, Control_c, 0, 64, 0
2, 16521, Note_off_c, 0, 44, 64
2, 16540, Note_on_c, 0, 56, 94
2, 16544, Note_on_c, 0, 65, 94
2, 16544, Note_on_c, 0, 37, 94
2, 16544, Note_on_c, 0, 25, 94
2, 16582, Control_c, 0, 64, 127
2, 16582, Control_c, 0, 64, 127
2, 16638, Note_off_c, 0, 56, 64
2, 16642, Note_off_c, 0, 65, 64
2, 16676, Note_on_c, 0, 61, 94
2, 16680, Note_on_c, 0, 70, 93
2, 16680, Note_on_c, 0, 66, 84
2, 16734, Note_on_c, 0, 68, 94
2, 16734, Note_on_c, 0, 53, 94
2, 16735, Note_on_c, 0, 65, 94
2, 16740, Note_off_c, 0, 25, 64
2, 16740, Note_off_c, 0, 37, 64
2, 16747, Note_off_c, 0, 61, 64
2, 16751, Note_off_c, 0, 66, 64
2, 16751, Note_off_c, 0, 70, 64
2, 16919, Note_on_c, 0, 44, 76
2, 16937, Note_off_c, 0, 65, 64
2, 16945, Note_off_c, 0, 53, 64
2, 16945, Note_off_c, 0, 68, 64
2, 17074, Note_off_c, 0, 44, 64
2, 17082, Control_c, 0, 64, 0
2, 17082, Control_c, 0, 64, 0
2, 17100, Note_on_c, 0, 37, 46
2, 17104, Note_on_c, 0, 56, 43
2, 17105, Note_on_c, 0, 65, 41
2, 17126, Control_c, 0, 64, 127
2, 17126, Control_c, 0, 64, 127
2, 17202, Note_off_c, 0, 56, 64
2, 17203, Note_off_c, 0, 65, 64
2, 17236, Note_on_c, 0, 69, 31
2, 17240, Note_on_c, 0, 66, 24
2, 17240, Note_on_c, 0, 61, 54
2, 17261, Note_off_c, 0, 37, 64
2, 17272, Control_c, 0, 64, 0
2, 17272, Control_c, 0, 64, 0
2, 17287, Note_on_c, 0, 68, 61
2, 17287, Note_on_c, 0, 65, 52
2, 17288, Note_on_c, 0, 53, 46
2, 17307, Note_off_c, 0, 69, 64
2, 17311, Note_off_c, 0, 61, 64
2, 17311, Note_off_c, 0, 66, 64
2, 17316, Control_c, 0, 64, 127
2, 17316, Control_c, 0, 64, 127
2, 17444, Note_off_c, 0, 65, 64
2, 17444, Note_off_c, 0, 68, 64
2, 17445, Note_off_c, 0, 53, 64
2, 17452, Note_on_c, 0, 44, 43
2, 17615, Note_off_c, 0, 44, 64
2, 17627, Control_c, 0, 64, 0
2, 17627, Control_c, 0, 64, 0
2, 17637, Note_on_c, 0, 70, 60
2, 17637, Note_on_c, 0, 66, 54
2, 17642, Note_on_c, 0, 32, 93
2, 17658, Control_c, 0, 64, 127
2, 17658, Control_c, 0, 64, 127
2, 17735, Note_off_c, 0, 66, 64
2, 17735, Note_off_c, 0, 70, 64
2, 17748, Note_on_c, 0, 72, 58
2, 17748, Note_on_c, 0, 68, 72
2, 17754, Note_on_c, 0, 60, 58
2, 17808, Note_on_c, 0, 54, 57
2, 17814, Note_on_c, 0, 73, 75
2, 17814, Note_on_c, 0, 70, 73
2, 17819, Note_off_c, 0, 68, 64
2, 17819, Note_off_c, 0, 72, 64
2, 17825, Note_off_c, 0, 60, 64
2, 17825, Note_off_c, 0, 32, 64
2, 17966, Note_off_c, 0, 54, 64
2, 17972, Note_off_c, 0, 70, 64
2, 17972, Note_off_c, 0, 73, 64
2, 17982, Note_on_c, 0, 75, 63
2, 17982, Note_on_c, 0, 72, 52
2, 17986, Note_on_c, 0, 44, 57
2, 18140, Note_off_c, 0, 72, 64
2, 18140, Note_off_c, 0, 75, 64
2, 18144, Note_off_c, 0, 44, 64
2, 18154, Note_on_c, 0, 37, 69
2, 18156, Note_on_c, 0, 77, 76
2, 18156, Note_on_c, 0, 73, 76
2, 18164, Control_c, 0, 64, 0
2, 18164, Control_c, 0, 64, 0
2, 18186, Control_c, 0, 64, 127
2, 18186, Control_c, 0, 64, 127
2, 18254, Note_off_c, 0, 73, 64
2, 18254, Note_off_c, 0, 77, 64
2, 18268, Note_on_c, 0, 75, 74
2, 18269, Note_on_c, 0, 78, 61
2, 18269, Note_on_c, 0, 61, 56
2, 18329, Note_off_c, 0, 37, 64
2, 18335, Note_on_c, 0, 79, 84
2, 18336, Note_on_c, 0, 76, 75
2, 18339, Note_off_c, 0, 75, 64
2, 18339, Note_on_c, 0, 53, 76
2, 18340, Note_off_c, 0, 61, 64
2, 18340, Note_off_c, 0, 78, 64
2, 18489, Note_off_c, 0, 79, 64
2, 18490, Note_off_c, 0, 76, 64
2, 18493, Note_off_c, 0, 53, 64
2, 18496, Note_on_c, 0, 80, 91
2, 18496, Note_on_c, 0, 77, 71
2, 18502, Note_on_c, 0, 44, 76
2, 18650, Note_off_c, 0, 77, 64
2, 18650, Note_off_c, 0, 80, 64
2, 18656, Note_off_c, 0, 44, 64
2, 18656, Note_on_c, 0, 84, 91
2, 18660, Note_on_c, 0, 80, 91
2, 18660, Note_on_c, 0, 32, 90
2, 18665, Control_c, 0, 64, 0
2, 18665, Control_c, 0, 64, 0
2, 18712, Control_c, 0, 64, 127
2, 18712, Control_c, 0, 64, 127
2, 18754, Note_off_c, 0, 84, 64
2, 18758, Note_off_c, 0, 80, 64
2, 18760, Note_on_c, 0, 82, 94
2, 18760, Note_on_c, 0, 60, 64
2, 18762, Note_on_c, 0, 78, 83
2, 18797, Note_on_c, 0, 84, 87
2, 18802, Note_off_c, 0, 82, 64
2, 18822, Note_on_c, 0, 82, 84
2, 18831, Note_off_c, 0, 60, 64
2, 18841, Note_off_c, 0, 78, 64
2, 18845, Note_off_c, 0, 84, 64
2, 18845, Control_c, 0, 64, 0
2, 18845, Control_c, 0, 64, 0
2, 18855, Note_off_c, 0, 32, 64
2, 18868, Note_on_c, 0, 77, 84
2, 18868, Note_on_c, 0, 54, 67
2, 18871, Note_on_c, 0, 80, 86
2, 18881, Control_c, 0, 64, 127
2, 18881, Control_c, 0, 64, 127
2, 18888, Note_off_c, 0, 82, 64
2, 18973, Control_c, 0, 64, 0
2, 18973, Control_c, 0, 64, 0
2, 18996, Note_off_c, 0, 54, 64
2, 19022, Note_off_c, 0, 77, 64
2, 19025, Note_off_c, 0, 80, 64
2, 19031, Note_on_c, 0, 44, 78
2, 19032, Note_on_c, 0, 78, 78
2, 19034, Note_on_c, 0, 75, 86
2, 19185, Note_off_c, 0, 44, 64
2, 19186, Note_off_c, 0, 78, 64
2, 19188, Note_off_c, 0, 75, 64
2, 19214, Note_on_c, 0, 77, 80
2, 19215, Note_on_c, 0, 73, 83
2, 19221, Note_on_c, 0, 37, 76
2, 19228, Control_c, 0, 64, 0
2, 19228, Control_c, 0, 64, 0
2, 19253, Control_c, 0, 64, 127
2, 19253, Control_c, 0, 64, 127
2, 19312, Note_off_c, 0, 77, 64
2, 19313, Note_off_c, 0, 73, 64
2, 19328, Note_on_c, 0, 75, 72
2, 19331, Note_on_c, 0, 61, 81
2, 19332, Note_on_c, 0, 68, 57
2, 19372, Note_on_c, 0, 65, 78
2, 19373, Note_on_c, 0, 73, 93
2, 19378, Note_on_c, 0, 53, 76
2, 19386, Note_off_c, 0, 37, 64
2, 19395, Control_c, 0, 64, 0
2, 19395, Control_c, 0, 64, 0
2, 19399, Note_off_c, 0, 75, 64
2, 19402, Note_off_c, 0, 61, 64
2, 19403, Note_off_c, 0, 68, 64
2, 19440, Control_c, 0, 64, 127
2, 19440, Control_c, 0, 64, 127
2, 19548, Note_off_c, 0, 53, 64
2, 19572, Note_on_c, 0, 44, 46
2, 19575, Note_off_c, 0, 65, 64
2, 19576, Note_off_c, 0, 73, 64
2, 19711, Note_off_c, 0, 44, 64
2, 19727, Control_c, 0, 64, 0
2, 19727, Control_c, 0, 64, 0
2, 19733, Note_on_c, 0, 69, 49
2, 19733, Note_on_c, 0, 66, 45
2, 19739, Note_on_c, 0, 32, 46
2, 19758, Control_c, 0, 64, 127
2, 19758, Control_c, 0, 64, 127
2, 19810, Note_on_c, 0, 68, 52
2, 19812, Note_on_c, 0, 60, 38
2, 19817, Note_on_c, 0, 72, 46
2, 19831, Note_off_c, 0, 66, 64
2, 19831, Note_off_c, 0, 69, 64
2, 19893, Note_on_c, 0, 54, 35
2, 19895, Note_on_c, 0, 73, 49
2, 19896, Note_on_c, 0, 69, 45
2, 19908, Note_off_c, 0, 68, 64
2, 19910, Note_off_c, 0, 60, 64
2, 19915, Note_off_c, 0, 72, 64
2, 19930, Note_off_c, 0, 32, 64
2, 20047, Note_off_c, 0, 54, 64
2, 20049, Note_off_c, 0, 73, 64
2, 20050, Note_off_c, 0, 69, 64
2, 20078, Note_on_c, 0, 75, 53
2, 20079, Note_on_c, 0, 72, 49
2, 20100, Note_on_c, 0, 51, 34
2, 20100, Control_c, 0, 64, 0
2, 20100, Control_c, 0, 64, 0
2, 20115, Control_c, 0, 64, 127
2, 20115, Control_c, 0, 64, 127
2, 20232, Note_off_c, 0, 75, 64
2, 20233, Note_off_c, 0, 72, 64
2, 20254, Note_off_c, 0, 51, 64
2, 20255, Control_c, 0, 64, 0
2, 20255, Control_c, 0, 64, 0
2, 20263, Note_on_c, 0, 37, 60
2, 20267, Note_on_c, 0, 76, 52
2, 20267, Note_on_c, 0, 73, 53
2, 20285, Control_c, 0, 64, 127
2, 20285, Control_c, 0, 64, 127
2, 20347, Note_on_c, 0, 75, 52
2, 20348, Note_on_c, 0, 79, 38
2, 20350, Note_on_c, 0, 61, 58
2, 20365, Note_off_c, 0, 73, 64
2, 20365, Note_off_c, 0, 76, 64
2, 20428, Note_on_c, 0, 52, 27
2, 20432, Note_on_c, 0, 76, 46
2, 20434, Note_on_c, 0, 80, 52
2, 20445, Note_off_c, 0, 75, 64
2, 20446, Note_off_c, 0, 79, 64
2, 20448, Note_off_c, 0, 61, 64
2, 20460, Note_off_c, 0, 37, 64
2, 20590, Note_off_c, 0, 52, 64
2, 20592, Note_on_c, 0, 78, 58
2, 20594, Note_off_c, 0, 76, 64
2, 20596, Note_off_c, 0, 80, 64
2, 20599, Note_on_c, 0, 81, 54
2, 20606, Note_on_c, 0, 44, 43
2, 20754, Note_off_c, 0, 78, 64
2, 20761, Note_off_c, 0, 81, 64
2, 20768, Note_off_c, 0, 44, 64
2, 20772, Note_on_c, 0, 84, 52
2, 20779, Note_on_c, 0, 80, 49
2, 20781, Note_on_c, 0, 32, 49
2, 20870, Note_off_c, 0, 84, 64
2, 20876, Note_on_c, 0, 81, 52
2, 20877, Note_off_c, 0, 80, 64
2, 20880, Note_on_c, 0, 78, 50
2, 20880, Note_on_c, 0, 60, 28
2, 20916, Note_on_c, 0, 83, 52
2, 20917, Note_off_c, 0, 78, 64
2, 20922, Note_off_c, 0, 81, 64
2, 20940, Note_on_c, 0, 81, 52
2, 20951, Note_off_c, 0, 60, 64
2, 20956, Note_on_c, 0, 54, 43
2, 20959, Note_on_c, 0, 80, 58
2, 20962, Note_on_c, 0, 76, 52
2, 20974, Note_off_c, 0, 32, 64
2, 20982, Control_c, 0, 64, 0
2, 20982, Control_c, 0, 64, 0
2, 20986, Note_off_c, 0, 81, 64
2, 20988, Note_off_c, 0, 83, 64
2, 21015, Control_c, 0, 64, 127
2, 21015, Control_c, 0, 64, 127
2, 21110, Note_off_c, 0, 54, 64
2, 21113, Note_off_c, 0, 80, 64
2, 21116, Note_off_c, 0, 76, 64
2, 21128, Note_on_c, 0, 78, 50
2, 21134, Note_on_c, 0, 75, 46
2, 21137, Note_on_c, 0, 44, 49
2, 21282, Note_off_c, 0, 78, 64
2, 21288, Note_off_c, 0, 75, 64
2, 21291, Note_off_c, 0, 44, 64
2, 21306, Note_on_c, 0, 73, 49
2, 21308, Note_on_c, 0, 76, 49
2, 21310, Note_on_c, 0, 37, 45
2, 21324, Control_c, 0, 64, 0
2, 21324, Control_c, 0, 64, 0
2, 21349, Control_c, 0, 64, 127
2, 21349, Control_c, 0, 64, 127
2, 21404, Note_off_c, 0, 73, 64
2, 21406, Note_off_c, 0, 76, 64
2, 21416, Note_on_c, 0, 61, 52
2, 21420, Note_on_c, 0, 75, 35
2, 21420, Note_on_c, 0, 68, 38
2, 21466, Note_on_c, 0, 73, 53
2, 21468, Note_on_c, 0, 64, 19
2, 21468, Note_on_c, 0, 52, 43
2, 21475, Control_c, 0, 64, 0
2, 21475, Control_c, 0, 64, 0
2, 21487, Note_off_c, 0, 61, 64
2, 21491, Note_off_c, 0, 68, 64
2, 21491, Note_off_c, 0, 75, 64
2, 21505, Note_off_c, 0, 37, 64
2, 21512, Control_c, 0, 64, 127
2, 21512, Control_c, 0, 64, 127
2, 21671, Note_on_c, 0, 44, 52
2, 21679, Note_off_c, 0, 52, 64
2, 21747, Note_off_c, 0, 73, 64
2, 21749, Note_off_c, 0, 64, 64
2, 21850, Note_off_c, 0, 44, 64
2, 21899, Note_on_c, 0, 76, 79
2, 21906, Note_on_c, 0, 30, 72
2, 21908, Note_on_c, 0, 42, 77
2, 21914, Control_c, 0, 64, 0
2, 21914, Control_c, 0, 64, 0
2, 21962, Control_c, 0, 64, 127
2, 21962, Control_c, 0, 64, 127
2, 22162, Note_on_c, 0, 54, 43
2, 22166, Note_on_c, 0, 58, 60
2, 22173, Note_on_c, 0, 64, 43
2, 22203, Note_off_c, 0, 54, 64
2, 22207, Note_off_c, 0, 58, 64
2, 22214, Note_off_c, 0, 64, 64
2, 22350, Note_on_c, 0, 64, 62
2, 22351, Note_on_c, 0, 54, 62
2, 22356, Note_on_c, 0, 58, 48
2, 22391, Note_off_c, 0, 64, 64
2, 22392, Note_off_c, 0, 54, 64
2, 22397, Note_off_c, 0, 58, 64
2, 22494, Note_off_c, 0, 76, 64
2, 22518, Note_on_c, 0, 63, 57
2, 22521, Note_on_c, 0, 54, 60
2, 22528, Note_on_c, 0, 59, 59
2, 22559, Note_off_c, 0, 63, 64
2, 22562, Note_off_c, 0, 54, 64
2, 22569, Note_off_c, 0, 59, 64
2, 22594, Note_on_c, 0, 75, 60
2, 22615, Note_on_c, 0, 76, 73
2, 22631, Note_off_c, 0, 75, 64
2, 22659, Note_on_c, 0, 75, 79
2, 22669, Note_off_c, 0, 76, 64
2, 22678, Note_off_c, 0, 30, 64
2, 22680, Note_off_c, 0, 42, 64
2, 22700, Note_on_c, 0, 63, 59
2, 22701, Note_on_c, 0, 59, 62
2, 22701, Note_on_c, 0, 54, 59
2, 22709, Note_on_c, 0, 74, 79
2, 22715, Note_off_c, 0, 75, 64
2, 22718, Control_c, 0, 64, 0
2, 22718, Control_c, 0, 64, 0
2, 22732, Control_c, 0, 64, 127
2, 22732, Control_c, 0, 64, 127
2, 22741, Note_off_c, 0, 63, 64
2, 22742, Note_off_c, 0, 54, 64
2, 22742, Note_off_c, 0, 59, 64
2, 22824, Note_on_c, 0, 75, 79
2, 22851, Note_off_c, 0, 74, 64
2, 22887, Note_on_c, 0, 83, 83
2, 22891, Note_on_c, 0, 63, 59
2, 22891, Note_on_c, 0, 54, 59
2, 22896, Note_on_c, 0, 59, 64
2, 22903, Note_off_c, 0, 75, 64
2, 22932, Note_off_c, 0, 54, 64
2, 22932, Note_off_c, 0, 63, 64
2, 22937, Note_off_c, 0, 59, 64
2, 23031, Note_on_c, 0, 75, 70
2, 23057, Note_off_c, 0, 83, 64
2, 23064, Note_on_c, 0, 42, 66
2, 23080, Note_on_c, 0, 80, 79
2, 23086, Control_c, 0, 64, 0
2, 23086, Control_c, 0, 64, 0
2, 23100, Note_off_c, 0, 75, 64
2, 23124, Control_c, 0, 64, 127
2, 23124, Control_c, 0, 64, 127
2, 23277, Note_on_c, 0, 54, 39
2, 23284, Note_on_c, 0, 58, 62
2, 23289, Note_on_c, 0, 64, 62
2, 23318, Note_off_c, 0, 54, 64
2, 23325, Note_off_c, 0, 58, 64
2, 23330, Note_off_c, 0, 64, 64
2, 23349, Note_on_c, 0, 78, 69
2, 23378, Note_off_c, 0, 80, 64
2, 23443, Note_on_c, 0, 58, 55
2, 23447, Note_on_c, 0, 64, 50
2, 23447, Note_on_c, 0, 54, 51
2, 23450, Note_on_c, 0, 76, 74
2, 23456, Note_off_c, 0, 78, 64
2, 23484, Note_off_c, 0, 58, 64
2, 23488, Note_off_c, 0, 54, 64
2, 23488, Note_off_c, 0, 64, 64
2, 23526, Note_off_c, 0, 76, 64
2, 23549, Note_on_c, 0, 73, 71
2, 23585, Note_off_c, 0, 73, 64
2, 23589, Note_off_c, 0, 42, 64
2, 23628, Note_on_c, 0, 47, 60
2, 23635, Note_on_c, 0, 73, 79
2, 23644, Control_c, 0, 64, 0
2, 23644, Control_c, 0, 64, 0
2, 23658, Control_c, 0, 64, 127
2, 23658, Control_c, 0, 64, 127
2, 23721, Note_on_c, 0, 75, 63
2, 23745, Note_off_c, 0, 73, 64
2, 23813, Note_on_c, 0, 71, 70
2, 23819, Note_off_c, 0, 75, 64
2, 23820, Note_on_c, 0, 63, 47
2, 23820, Note_on_c, 0, 59, 51
2, 23834, Note_on_c, 0, 54, 31
2, 23837, Control_c, 0, 64, 0
2, 23837, Control_c, 0, 64, 0
2, 23861, Note_off_c, 0, 59, 64
2, 23861, Note_off_c, 0, 63, 64
2, 23871, Control_c, 0, 64, 127
2, 23871, Control_c, 0, 64, 127
2, 23875, Note_off_c, 0, 54, 64
2, 24004, Note_on_c, 0, 59, 51
2, 24007, Note_on_c, 0, 63, 56
2, 24011, Note_on_c, 0, 54, 51
2, 24045, Note_off_c, 0, 59, 64
2, 24048, Note_off_c, 0, 63, 64
2, 24052, Note_off_c, 0, 54, 64
2, 24119, Control_c, 0, 64, 127
2, 24119, Control_c, 0, 64, 127
2, 24165, Note_off_c, 0, 47, 64
2, 24251, Note_on_c, 0, 41, 65
2, 24252, Note_on_c, 0, 75, 54
2, 24273, Note_off_c, 0, 71, 64
2, 24285, Control_c, 0, 64, 0
2, 24285, Control_c, 0, 64, 0
2, 24310, Control_c, 0, 64, 127
2, 24310, Control_c, 0, 64, 127
2, 24459, Note_on_c, 0, 53, 39
2, 24460, Note_on_c, 0, 57, 38
2, 24462, Note_on_c, 0, 63, 31
2, 24500, Note_off_c, 0, 53, 64
2, 24501, Note_off_c, 0, 57, 64
2, 24503, Note_off_c, 0, 63, 64
2, 24634, Note_on_c, 0, 63, 43
2, 24636, Note_on_c, 0, 57, 38
2, 24636, Note_on_c, 0, 53, 38
2, 24675, Note_off_c, 0, 63, 64
2, 24677, Note_off_c, 0, 53, 64
2, 24677, Note_off_c, 0, 57, 64
2, 24788, Note_off_c, 0, 41, 64
2, 24793, Note_on_c, 0, 58, 42
2, 24793, Control_c, 0, 64, 0
2, 24793, Control_c, 0, 64, 0
2, 24802, Note_on_c, 0, 53, 32
2, 24804, Note_on_c, 0, 62, 36
2, 24824, Control_c, 0, 64, 127
2, 24824, Control_c, 0, 64, 127
2, 24834, Note_off_c, 0, 58, 64
2, 24843, Note_off_c, 0, 53, 64
2, 24845, Note_off_c, 0, 62, 64
2, 24853, Note_off_c, 0, 75, 64
2, 24854, Note_on_c, 0, 74, 52
2, 24904, Note_off_c, 0, 74, 64
2, 24907, Note_on_c, 0, 75, 46
2, 24929, Note_on_c, 0, 74, 52
2, 24940, Note_off_c, 0, 75, 64
2, 24957, Note_on_c, 0, 58, 38
2, 24961, Note_on_c, 0, 53, 31
2, 24962, Control_c, 0, 64, 0
2, 24962, Control_c, 0, 64, 0
2, 24970, Note_on_c, 0, 62, 30
2, 24978, Note_on_c, 0, 73, 54
2, 24982, Control_c, 0, 64, 127
2, 24982, Control_c, 0, 64, 127
2, 24991, Note_off_c, 0, 74, 64
2, 24998, Note_off_c, 0, 58, 64
2, 25002, Note_off_c, 0, 53, 64
2, 25011, Note_off_c, 0, 62, 64
2, 25105, Note_on_c, 0, 74, 50
2, 25126, Note_off_c, 0, 73, 64
2, 25187, Note_on_c, 0, 82, 60
2, 25197, Note_off_c, 0, 74, 64
2, 25197, Note_on_c, 0, 53, 31
2, 25200, Note_on_c, 0, 62, 38
2, 25206, Note_on_c, 0, 58, 38
2, 25238, Note_off_c, 0, 53, 64
2, 25241, Note_off_c, 0, 62, 64
2, 25247, Note_off_c, 0, 58, 64
2, 25364, Note_on_c, 0, 74, 49
2, 25411, Note_off_c, 0, 82, 64
2, 25425, Note_on_c, 0, 79, 53
2, 25429, Note_on_c, 0, 41, 49
2, 25442, Note_off_c, 0, 74, 64
2, 25450, Control_c, 0, 64, 0
2, 25450, Control_c, 0, 64, 0
2, 25485, Control_c, 0, 64, 127
2, 25485, Control_c, 0, 64, 127
2, 25649, Note_on_c, 0, 53, 36
2, 25655, Note_on_c, 0, 63, 36
2, 25659, Note_on_c, 0, 57, 37
2, 25690, Note_off_c, 0, 53, 64
2, 25696, Note_off_c, 0, 63, 64
2, 25700, Note_off_c, 0, 57, 64
2, 25737, Note_on_c, 0, 77, 46
2, 25767, Note_off_c, 0, 79, 64
2, 25816, Note_on_c, 0, 75, 47
2, 25828, Note_on_c, 0, 63, 37
2, 25832, Note_on_c, 0, 53, 18
2, 25836, Note_on_c, 0, 57, 36
2, 25840, Note_off_c, 0, 77, 64
2, 25869, Note_off_c, 0, 63, 64
2, 25873, Note_off_c, 0, 53, 64
2, 25877, Note_off_c, 0, 57, 64
2, 25889, Note_on_c, 0, 72, 35
2, 25892, Note_off_c, 0, 75, 64
2, 25927, Note_off_c, 0, 72, 64
2, 25951, Note_off_c, 0, 41, 64
2, 25968, Note_on_c, 0, 72, 46
2, 25968, Note_on_c, 0, 46, 42
2, 25981, Control_c, 0, 64, 0
2, 25981, Control_c, 0, 64, 0
2, 26012, Control_c, 0, 64, 127
2, 26012, Control_c, 0, 64, 127
2, 26063, Note_on_c, 0, 74, 46
2, 26083, Note_off_c, 0, 72, 64
2, 26132, Note_on_c, 0, 58, 46
2, 26136, Note_on_c, 0, 53, 31
2, 26137, Note_on_c, 0, 62, 35
2, 26142, Note_on_c, 0, 70, 53
2, 26156, Note_off_c, 0, 74, 64
2, 26173, Note_off_c, 0, 53, 64
2, 26177, Note_off_c, 0, 58, 64
2, 26179, Note_off_c, 0, 62, 64
2, 26337, Note_on_c, 0, 58, 40
2, 26339, Note_on_c, 0, 53, 36
2, 26344, Note_on_c, 0, 62, 39
2, 26375, Note_off_c, 0, 53, 64
2, 26375, Note_off_c, 0, 58, 64
2, 26376, Note_off_c, 0, 62, 64
2, 26506, Note_off_c, 0, 46, 64
2, 26552, Note_on_c, 0, 64, 45
2, 26556, Note_on_c, 0, 55, 50
2, 26562, Note_on_c, 0, 61, 26
2, 26564, Note_on_c, 0, 58, 21
2, 26564, Control_c, 0, 64, 0
2, 26564, Control_c, 0, 64, 0
2, 26631, Control_c, 0, 64, 127
2, 26631, Control_c, 0, 64, 127
2, 26640, Note_off_c, 0, 70, 64
2, 26665, Note_off_c, 0, 64, 64
2, 26669, Note_off_c, 0, 55, 64
2, 26675, Note_off_c, 0, 61, 64
2, 26677, Note_off_c, 0, 58, 64
2, 26804, Note_on_c, 0, 58, 21
2, 26805, Note_on_c, 0, 76, 65
2, 26807, Note_on_c, 0, 55, 43
2, 26817, Note_on_c, 0, 61, 43
2, 26821, Note_on_c, 0, 64, 35
2, 26832, Control_c, 0, 64, 0
2, 26832, Control_c, 0, 64, 0
2, 26876, Control_c, 0, 64, 127
2, 26876, Control_c, 0, 64, 127
2, 26917, Note_off_c, 0, 58, 64
2, 26920, Note_off_c, 0, 55, 64
2, 26930, Note_off_c, 0, 61, 64
2, 26934, Note_off_c, 0, 64, 64
2, 27053, Note_on_c, 0, 58, 31
2, 27053, Note_on_c, 0, 54, 26
2, 27063, Note_on_c, 0, 64, 26
2, 27068, Control_c, 0, 64, 0
2, 27068, Control_c, 0, 64, 0
2, 27074, Note_on_c, 0, 61, 19
2, 27095, Control_c, 0, 64, 127
2, 27095, Control_c, 0, 64, 127
2, 27166, Note_off_c, 0, 54, 64
2, 27166, Note_off_c, 0, 58, 64
2, 27176, Note_off_c, 0, 64, 64
2, 27187, Note_off_c, 0, 61, 64
2, 27270, Note_on_c, 0, 54, 30
2, 27276, Note_on_c, 0, 59, 24
2, 27277, Note_on_c, 0, 63, 26
2, 27277, Control_c, 0, 64, 0
2, 27277, Control_c, 0, 64, 0
2, 27297, Control_c, 0, 64, 127
2, 27297, Control_c, 0, 64, 127
2, 27371, Note_on_c, 0, 75, 52
2, 27377, Note_off_c, 0, 76, 64
2, 27383, Note_off_c, 0, 54, 64
2, 27389, Note_off_c, 0, 59, 64
2, 27390, Note_off_c, 0, 63, 64
2, 27419, Note_on_c, 0, 76, 52
2, 27421, Note_off_c, 0, 75, 64
2, 27446, Note_on_c, 0, 75, 60
2, 27465, Note_off_c, 0, 76, 64
2, 27480, Note_on_c, 0, 63, 45
2, 27480, Note_on_c, 0, 59, 49
2, 27480, Note_on_c, 0, 54, 41
2, 27492, Control_c, 0, 64, 0
2, 27492, Control_c, 0, 64, 0
2, 27495, Note_on_c, 0, 74, 58
2, 27502, Note_off_c, 0, 75, 64
2, 27517, Control_c, 0, 64, 127
2, 27517, Control_c, 0, 64, 127
2, 27593, Note_off_c, 0, 54, 64
2, 27593, Note_off_c, 0, 59, 64
2, 27593, Note_off_c, 0, 63, 64
2, 27596, Note_on_c, 0, 75, 65
2, 27628, Note_off_c, 0, 74, 64
2, 27685, Note_on_c, 0, 83, 60
2, 27688, Note_on_c, 0, 59, 50
2, 27691, Note_on_c, 0, 54, 50
2, 27694, Note_on_c, 0, 63, 52
2, 27698, Note_off_c, 0, 75, 64
2, 27801, Note_off_c, 0, 59, 64
2, 27804, Note_off_c, 0, 54, 64
2, 27807, Note_off_c, 0, 63, 64
2, 27844, Note_on_c, 0, 75, 56
2, 27869, Note_off_c, 0, 83, 64
2, 27884, Note_on_c, 0, 42, 69
2, 27895, Note_on_c, 0, 80, 65
2, 27910, Note_off_c, 0, 75, 64
2, 27911, Control_c, 0, 64, 0
2, 27911, Control_c, 0, 64, 0
2, 27947, Control_c, 0, 64, 127
2, 27947, Control_c, 0, 64, 127
2, 28072, Note_on_c, 0, 58, 38
2, 28074, Note_on_c, 0, 54, 38
2, 28080, Note_on_c, 0, 64, 1
2, 28175, Note_on_c, 0, 78, 53
2, 28185, Note_off_c, 0, 58, 64
2, 28187, Note_off_c, 0, 54, 64
2, 28193, Note_off_c, 0, 64, 64
2, 28219, Note_off_c, 0, 80, 64
2, 28258, Note_on_c, 0, 54, 38
2, 28264, Note_on_c, 0, 64, 1
2, 28264, Note_on_c, 0, 58, 57
2, 28265, Note_on_c, 0, 76, 60
2, 28272, Note_off_c, 0, 78, 64
2, 28341, Note_off_c, 0, 76, 64
2, 28358, Note_on_c, 0, 73, 58
2, 28371, Note_off_c, 0, 54, 64
2, 28377, Note_off_c, 0, 58, 64
2, 28377, Note_off_c, 0, 64, 64
2, 28398, Note_off_c, 0, 73, 64
2, 28413, Note_off_c, 0, 42, 64
2, 28434, Note_on_c, 0, 73, 71
2, 28438, Note_on_c, 0, 47, 53
2, 28452, Control_c, 0, 64, 0
2, 28452, Control_c, 0, 64, 0
2, 28476, Control_c, 0, 64, 127
2, 28476, Control_c, 0, 64, 127
2, 28585, Note_off_c, 0, 73, 64
2, 28586, Note_on_c, 0, 75, 38
2, 28627, Note_on_c, 0, 71, 58
2, 28630, Note_on_c, 0, 59, 49
2, 28632, Note_on_c, 0, 54, 1
2, 28635, Note_on_c, 0, 63, 49
2, 28640, Control_c, 0, 64, 0
2, 28640, Control_c, 0, 64, 0
2, 28644, Note_off_c, 0, 75, 64
2, 28688, Control_c, 0, 64, 127
2, 28688, Control_c, 0, 64, 127
2, 28743, Note_off_c, 0, 59, 64
2, 28745, Note_off_c, 0, 54, 64
2, 28748, Note_off_c, 0, 63, 64
2, 28808, Note_on_c, 0, 54, 42
2, 28810, Note_on_c, 0, 63, 43
2, 28815, Note_on_c, 0, 59, 43
2, 28921, Note_off_c, 0, 54, 64
2, 28923, Note_off_c, 0, 63, 64
2, 28928, Note_off_c, 0, 59, 64
2, 28973, Note_off_c, 0, 47, 64
2, 29007, Note_on_c, 0, 53, 21
2, 29012, Note_on_c, 0, 57, 38
2, 29019, Note_on_c, 0, 63, 26
2, 29043, Note_off_c, 0, 71, 64
2, 29058, Note_on_c, 0, 75, 68
2, 29074, Control_c, 0, 64, 0
2, 29074, Control_c, 0, 64, 0
2, 29120, Note_off_c, 0, 53, 64
2, 29125, Note_off_c, 0, 57, 64
2, 29127, Control_c, 0, 64, 127
2, 29127, Control_c, 0, 64, 127
2, 29132, Note_off_c, 0, 63, 64
2, 29262, Note_on_c, 0, 63, 42
2, 29262, Note_on_c, 0, 57, 46
2, 29268, Note_on_c, 0, 53, 38
2, 29375, Note_off_c, 0, 57, 64
2, 29375, Note_off_c, 0, 63, 64
2, 29381, Note_off_c, 0, 53, 64
2, 29429, Note_on_c, 0, 63, 38
2, 29432, Note_on_c, 0, 57, 38
2, 29445, Note_on_c, 0, 53, 24
2, 29542, Note_off_c, 0, 63, 64
2, 29545, Note_off_c, 0, 57, 64
2, 29558, Note_off_c, 0, 53, 64
2, 29589, Control_c, 0, 64, 0
2, 29589, Control_c, 0, 64, 0
2, 29595, Note_on_c, 0, 58, 50
2, 29595, Note_on_c, 0, 53, 46
2, 29602, Note_on_c, 0, 62, 43
2, 29628, Control_c, 0, 64, 127
2, 29628, Control_c, 0, 64, 127
2, 29679, Note_on_c, 0, 74, 30
2, 29699, Note_off_c, 0, 75, 64
2, 29708, Note_off_c, 0, 53, 64
2, 29708, Note_off_c, 0, 58, 64
2, 29715, Note_off_c, 0, 62, 64
2, 29715, Note_on_c, 0, 75, 54
2, 29723, Note_off_c, 0, 74, 64
2, 29753, Note_on_c, 0, 74, 52
2, 29760, Note_off_c, 0, 75, 64
2, 29776, Control_c, 0, 64, 0
2, 29776, Control_c, 0, 64, 0
2, 29782, Note_on_c, 0, 58, 45
2, 29786, Note_on_c, 0, 62, 38
2, 29792, Note_on_c, 0, 53, 36
2, 29795, Note_on_c, 0, 73, 58
2, 29808, Note_off_c, 0, 74, 64
2, 29831, Control_c, 0, 64, 127
2, 29831, Control_c, 0, 64, 127
2, 29895, Note_off_c, 0, 58, 64
2, 29899, Note_off_c, 0, 62, 64
2, 29904, Note_on_c, 0, 74, 60
2, 29905, Note_off_c, 0, 53, 64
2, 29930, Note_off_c, 0, 73, 64
2, 29985, Note_on_c, 0, 82, 71
2, 29992, Note_off_c, 0, 74, 64
2, 29992, Note_on_c, 0, 62, 50
2, 29992, Note_on_c, 0, 53, 43
2, 29998, Note_on_c, 0, 58, 50
2, 30105, Note_off_c, 0, 53, 64
2, 30105, Note_off_c, 0, 62, 64
2, 30111, Note_off_c, 0, 58, 64
2, 30153, Note_on_c, 0, 74, 56
2, 30155, Note_off_c, 0, 82, 64
2, 30221, Note_on_c, 0, 41, 60
2, 30224, Note_on_c, 0, 79, 57
2, 30233, Control_c, 0, 64, 0
2, 30233, Control_c, 0, 64, 0
2, 30250, Note_off_c, 0, 74, 64
2, 30272, Control_c, 0, 64, 127
2, 30272, Control_c, 0, 64, 127
2, 30452, Note_on_c, 0, 57, 31
2, 30458, Note_on_c, 0, 63, 27
2, 30458, Note_on_c, 0, 53, 31
2, 30543, Note_on_c, 0, 77, 52
2, 30557, Note_off_c, 0, 79, 64
2, 30565, Note_off_c, 0, 57, 64
2, 30571, Note_off_c, 0, 53, 64
2, 30571, Note_off_c, 0, 63, 64
2, 30653, Note_on_c, 0, 75, 52
2, 30660, Note_on_c, 0, 53, 31
2, 30664, Note_on_c, 0, 63, 28
2, 30670, Note_on_c, 0, 57, 31
2, 30694, Note_off_c, 0, 77, 64
2, 30773, Note_off_c, 0, 53, 64
2, 30776, Note_on_c, 0, 72, 52
2, 30777, Note_off_c, 0, 63, 64
2, 30783, Note_off_c, 0, 57, 64
2, 30791, Note_off_c, 0, 75, 64
2, 30900, Note_on_c, 0, 53, 41
2, 30913, Note_on_c, 0, 56, 38
2, 30934, Note_on_c, 0, 62, 26
2, 30951, Control_c, 0, 64, 0
2, 30951, Control_c, 0, 64, 0
2, 30952, Note_on_c, 0, 71, 52
2, 30981, Control_c, 0, 64, 127
2, 30981, Control_c, 0, 64, 127
2, 30983, Note_off_c, 0, 72, 64
2, 30984, Note_off_c, 0, 41, 64
2, 31094, Note_off_c, 0, 53, 64
2, 31157, Note_off_c, 0, 56, 64
2, 31162, Note_off_c, 0, 62, 64
2, 31200, Note_on_c, 0, 52, 38
2, 31228, Note_on_c, 0, 55, 35
2, 31237, Note_on_c, 0, 61, 24
2, 31264, Note_on_c, 0, 70, 58
2, 31279, Note_off_c, 0, 71, 64
2, 31289, Control_c, 0, 64, 0
2, 31289, Control_c, 0, 64, 0
2, 31311, Note_on_c, 0, 72, 52
2, 31321, Note_off_c, 0, 70, 64
2, 31327, Control_c, 0, 64, 127
2, 31327, Control_c, 0, 64, 127
2, 31357, Note_on_c, 0, 70, 71
2, 31368, Note_off_c, 0, 72, 64
2, 31389, Note_on_c, 0, 72, 57
2, 31403, Note_off_c, 0, 70, 64
2, 31433, Note_off_c, 0, 72, 64
2, 31435, Note_on_c, 0, 70, 60
2, 31459, Note_on_c, 0, 72, 58
2, 31472, Note_off_c, 0, 70, 64
2, 31498, Note_on_c, 0, 70, 56
2, 31501, Note_off_c, 0, 72, 64
2, 31532, Note_on_c, 0, 72, 10
2, 31540, Note_off_c, 0, 70, 64
2, 31576, Note_on_c, 0, 70, 38
2, 31589, Note_off_c, 0, 72, 64
2, 31630, Note_on_c, 0, 69, 54
2, 31635, Note_off_c, 0, 70, 64
2, 31675, Note_on_c, 0, 70, 54
2, 31695, Note_off_c, 0, 69, 64
2, 31756, Note_on_c, 0, 79, 50
2, 31762, Note_off_c, 0, 55, 64
2, 31766, Note_off_c, 0, 61, 64
2, 31782, Note_off_c, 0, 52, 64
2, 31792, Note_off_c, 0, 70, 64
2, 31800, Note_on_c, 0, 76, 34
2, 31824, Note_off_c, 0, 79, 64
2, 31828, Note_on_c, 0, 73, 34
2, 31865, Note_off_c, 0, 76, 64
2, 31868, Note_on_c, 0, 70, 57
2, 31893, Note_off_c, 0, 73, 64
2, 31902, Note_on_c, 0, 67, 61
2, 31933, Note_off_c, 0, 70, 64
2, 31949, Note_on_c, 0, 49, 49
2, 31956, Note_on_c, 0, 58, 43
2, 31959, Note_on_c, 0, 64, 64
2, 31965, Note_on_c, 0, 52, 41
2, 31971, Note_off_c, 0, 67, 64
2, 31978, Control_c, 0, 64, 0
2, 31978, Control_c, 0, 64, 0
2, 32018, Control_c, 0, 64, 127
2, 32018, Control_c, 0, 64, 127
2, 32062, Note_off_c, 0, 49, 64
2, 32069, Note_off_c, 0, 58, 64
2, 32078, Note_off_c, 0, 52, 64
2, 32109, Note_off_c, 0, 64, 64
2, 32171, Note_on_c, 0, 67, 38
2, 32212, Note_on_c, 0, 70, 58
2, 32215, Note_on_c, 0, 49, 50
2, 32222, Note_on_c, 0, 58, 31
2, 32232, Note_on_c, 0, 52, 31
2, 32237, Note_off_c, 0, 67, 64
2, 32237, Control_c, 0, 64, 0
2, 32237, Control_c, 0, 64, 0
2, 32258, Control_c, 0, 64, 127
2, 32258, Control_c, 0, 64, 127
2, 32328, Note_off_c, 0, 49, 64
2, 32335, Note_off_c, 0, 58, 64
2, 32345, Note_off_c, 0, 52, 64
2, 32418, Note_on_c, 0, 68, 58
2, 32421, Note_on_c, 0, 58, 38
2, 32427, Note_on_c, 0, 52, 46
2, 32427, Note_on_c, 0, 49, 42
2, 32437, Control_c, 0, 64, 0
2, 32437, Control_c, 0, 64, 0
2, 32440, Note_off_c, 0, 70, 64
2, 32450, Control_c, 0, 64, 127
2, 32450, Control_c, 0, 64, 127
2, 32534, Note_off_c, 0, 58, 64
2, 32540, Note_off_c, 0, 49, 64
2, 32540, Note_off_c, 0, 52, 64
2, 32607, Note_on_c, 0, 67, 61
2, 32614, Note_on_c, 0, 58, 36
2, 32616, Note_on_c, 0, 52, 41
2, 32616, Note_on_c, 0, 49, 38
2, 32626, Note_off_c, 0, 68, 64
2, 32643, Control_c, 0, 64, 0
2, 32643, Control_c, 0, 64, 0
2, 32665, Control_c, 0, 64, 127
2, 32665, Control_c, 0, 64, 127
2, 32727, Note_off_c, 0, 58, 64
2, 32729, Note_off_c, 0, 49, 64
2, 32729, Note_off_c, 0, 52, 64
2, 32834, Note_on_c, 0, 53, 34
2, 32843, Note_on_c, 0, 65, 52
2, 32843, Note_on_c, 0, 58, 31
2, 32843, Note_on_c, 0, 49, 34
2, 32854, Control_c, 0, 64, 0
2, 32854, Control_c, 0, 64, 0
2, 32864, Note_off_c, 0, 67, 64
2, 32913, Control_c, 0, 64, 127
2, 32913, Control_c, 0, 64, 127
2, 32947, Note_off_c, 0, 53, 64
2, 32956, Note_off_c, 0, 49, 64
2, 32956, Note_off_c, 0, 58, 64
2, 33000, Note_off_c, 0, 65, 64
2, 33053, Note_on_c, 0, 49, 42
2, 33060, Note_on_c, 0, 58, 42
2, 33066, Note_on_c, 0, 53, 34
2, 33166, Note_off_c, 0, 49, 64
2, 33173, Note_off_c, 0, 58, 64
2, 33179, Note_off_c, 0, 53, 64
2, 33258, Note_on_c, 0, 49, 43
2, 33259, Note_on_c, 0, 67, 61
2, 33264, Note_on_c, 0, 52, 52
2, 33266, Note_on_c, 0, 58, 50
2, 33278, Control_c, 0, 64, 0
2, 33278, Control_c, 0, 64, 0
2, 33320, Control_c, 0, 64, 127
2, 33320, Control_c, 0, 64, 127
2, 33371, Note_off_c, 0, 49, 64
2, 33376, Note_on_c, 0, 70, 56
2, 33377, Note_off_c, 0, 52, 64
2, 33379, Note_off_c, 0, 58, 64
2, 33409, Note_off_c, 0, 67, 64
2, 33455, Note_on_c, 0, 73, 64
2, 33456, Note_off_c, 0, 70, 64
2, 33459, Note_on_c, 0, 52, 46
2, 33464, Note_on_c, 0, 58, 46
2, 33464, Note_on_c, 0, 49, 43
2, 33470, Control_c, 0, 64, 0
2, 33470, Control_c, 0, 64, 0
2, 33504, Control_c, 0, 64, 127
2, 33504, Control_c, 0, 64, 127
2, 33572, Note_off_c, 0, 52, 64
2, 33577, Note_off_c, 0, 49, 64
2, 33577, Note_off_c, 0, 58, 64
2, 33637, Note_on_c, 0, 52, 50
2, 33640, Note_on_c, 0, 72, 65
2, 33643, Note_on_c, 0, 58, 52
2, 33649, Note_off_c, 0, 73, 64
2, 33649, Note_on_c, 0, 49, 41
2, 33750, Note_off_c, 0, 52, 64
2, 33756, Note_off_c, 0, 58, 64
2, 33762, Note_off_c, 0, 49, 64
2, 33822, Note_on_c, 0, 70, 64
2, 33827, Note_on_c, 0, 58, 49
2, 33832, Note_on_c, 0, 52, 35
2, 33832, Note_on_c, 0, 49, 49
2, 33836, Note_off_c, 0, 72, 64
2, 33850, Control_c, 0, 64, 0
2, 33850, Control_c, 0, 64, 0
2, 33886, Control_c, 0, 64, 127
2, 33886, Control_c, 0, 64, 127
2, 33940, Note_off_c, 0, 58, 64
2, 33945, Note_off_c, 0, 49, 64
2, 33945, Note_off_c, 0, 52, 64
2, 34036, Note_on_c, 0, 68, 60
2, 34040, Note_on_c, 0, 49, 43
2, 34044, Note_on_c, 0, 59, 43
2, 34045, Note_on_c, 0, 53, 42
2, 34052, Note_off_c, 0, 70, 64
2, 34060, Control_c, 0, 64, 0
2, 34060, Control_c, 0, 64, 0
2, 34127, Control_c, 0, 64, 127
2, 34127, Control_c, 0, 64, 127
2, 34153, Note_off_c, 0, 49, 64
2, 34157, Note_off_c, 0, 59, 64
2, 34158, Note_off_c, 0, 53, 64
2, 34213, Note_off_c, 0, 68, 64
2, 34270, Note_on_c, 0, 60, 50
2, 34270, Note_on_c, 0, 53, 52
2, 34273, Note_on_c, 0, 48, 46
2, 34383, Note_off_c, 0, 53, 64
2, 34383, Note_off_c, 0, 60, 64
2, 34386, Note_off_c, 0, 48, 64
2, 34506, Note_on_c, 0, 71, 64
2, 34514, Note_on_c, 0, 62, 52
2, 34515, Note_on_c, 0, 53, 52
2, 34515, Note_on_c, 0, 48, 49
2, 34534, Control_c, 0, 64, 0
2, 34534, Control_c, 0, 64, 0
2, 34564, Control_c, 0, 64, 127
2, 34564, Control_c, 0, 64, 127
2, 34627, Note_off_c, 0, 62, 64
2, 34628, Note_off_c, 0, 48, 64
2, 34628, Note_off_c, 0, 53, 64
2, 34648, Note_on_c, 0, 74, 58
2, 34708, Note_off_c, 0, 71, 64
2, 34738, Note_on_c, 0, 77, 64
2, 34746, Note_off_c, 0, 74, 64
2, 34747, Note_on_c, 0, 56, 54
2, 34748, Note_on_c, 0, 53, 50
2, 34750, Control_c, 0, 64, 0
2, 34750, Control_c, 0, 64, 0
2, 34755, Note_on_c, 0, 48, 45
2, 34783, Control_c, 0, 64, 127
2, 34783, Control_c, 0, 64, 127
2, 34860, Note_off_c, 0, 56, 64
2, 34861, Note_off_c, 0, 53, 64
2, 34868, Note_off_c, 0, 48, 64
2, 34937, Note_on_c, 0, 53, 52
2, 34940, Note_on_c, 0, 76, 60
2, 34940, Note_on_c, 0, 55, 49
2, 34944, Note_on_c, 0, 48, 38
2, 34975, Note_off_c, 0, 77, 64
2, 35050, Note_off_c, 0, 53, 64
2, 35053, Note_off_c, 0, 55, 64
2, 35057, Note_off_c, 0, 48, 64
2, 35135, Note_on_c, 0, 74, 64
2, 35147, Note_on_c, 0, 55, 39
2, 35152, Note_on_c, 0, 48, 46
2, 35153, Note_on_c, 0, 53, 28
2, 35161, Note_off_c, 0, 76, 64
2, 35163, Control_c, 0, 64, 0
2, 35163, Control_c, 0, 64, 0
2, 35165, Control_c, 0, 64, 0
2, 35165, Control_c, 0, 64, 0
2, 35206, Control_c, 0, 64, 127
2, 35206, Control_c, 0, 64, 127
2, 35260, Note_off_c, 0, 55, 64
2, 35265, Note_off_c, 0, 48, 64
2, 35266, Note_off_c, 0, 53, 64
2, 35356, Note_on_c, 0, 72, 56
2, 35360, Note_on_c, 0, 55, 31
2, 35369, Note_on_c, 0, 48, 20
2, 35373, Note_on_c, 0, 52, 24
2, 35374, Note_off_c, 0, 74, 64
2, 35379, Control_c, 0, 64, 0
2, 35379, Control_c, 0, 64, 0
2, 35415, Control_c, 0, 64, 127
2, 35415, Control_c, 0, 64, 127
2, 35473, Note_off_c, 0, 55, 64
2, 35482, Note_off_c, 0, 48, 64
2, 35486, Note_off_c, 0, 52, 64
2, 35556, Note_on_c, 0, 55, 45
2, 35556, Note_on_c, 0, 48, 43
2, 35556, Control_c, 0, 64, 0
2, 35556, Control_c, 0, 64, 0
2, 35562, Note_on_c, 0, 50, 42
2, 35583, Control_c, 0, 64, 127
2, 35583, Control_c, 0, 64, 127
2, 35669, Note_off_c, 0, 48, 64
2, 35669, Note_off_c, 0, 55, 64
2, 35675, Note_off_c, 0, 50, 64
2, 35677, Note_off_c, 0, 72, 64
2, 35784, Note_on_c, 0, 48, 54
2, 35788, Note_on_c, 0, 76, 65
2, 35797, Control_c, 0, 64, 0
2, 35797, Control_c, 0, 64, 0
2, 35842, Control_c, 0, 64, 127
2, 35842, Control_c, 0, 64, 127
2, 35904, Note_on_c, 0, 79, 56
2, 35945, Note_off_c, 0, 76, 64
2, 35993, Note_on_c, 0, 82, 65
2, 35998, Note_off_c, 0, 79, 64
2, 36007, Note_on_c, 0, 58, 50
2, 36012, Note_on_c, 0, 64, 42
2, 36012, Note_on_c, 0, 55, 53
2, 36024, Control_c, 0, 64, 0
2, 36024, Control_c, 0, 64, 0
2, 36037, Control_c, 0, 64, 127
2, 36037, Control_c, 0, 64, 127
2, 36048, Note_off_c, 0, 58, 64
2, 36053, Note_off_c, 0, 55, 64
2, 36053, Note_off_c, 0, 64, 64
2, 36190, Note_on_c, 0, 64, 45
2, 36197, Note_on_c, 0, 58, 53
2, 36205, Note_on_c, 0, 55, 38
2, 36231, Note_off_c, 0, 64, 64
2, 36238, Note_off_c, 0, 58, 64
2, 36246, Note_off_c, 0, 55, 64
2, 36296, Note_on_c, 0, 80, 58
2, 36325, Note_off_c, 0, 48, 64
2, 36334, Note_off_c, 0, 82, 64
2, 36432, Note_on_c, 0, 79, 61
2, 36433, Note_on_c, 0, 41, 58
2, 36442, Control_c, 0, 64, 0
2, 36442, Control_c, 0, 64, 0
2, 36449, Note_off_c, 0, 80, 64
2, 36477, Control_c, 0, 64, 127
2, 36477, Control_c, 0, 64, 127
2, 36697, Note_on_c, 0, 65, 31
2, 36704, Note_on_c, 0, 60, 34
2, 36708, Note_on_c, 0, 56, 34
2, 36738, Note_off_c, 0, 65, 64
2, 36745, Note_off_c, 0, 60, 64
2, 36749, Note_off_c, 0, 56, 64
2, 36952, Note_off_c, 0, 41, 64
2, 36974, Note_on_c, 0, 65, 27
2, 36980, Note_on_c, 0, 77, 52
2, 36980, Note_on_c, 0, 60, 24
2, 36980, Note_on_c, 0, 56, 24
2, 36997, Note_off_c, 0, 79, 64
2, 37005, Control_c, 0, 64, 0
2, 37005, Control_c, 0, 64, 0
2, 37015, Note_off_c, 0, 65, 64
2, 37017, Control_c, 0, 64, 127
2, 37017, Control_c, 0, 64, 127
2, 37021, Note_off_c, 0, 56, 64
2, 37021, Note_off_c, 0, 60, 64
2, 37101, Note_off_c, 0, 77, 64
2, 37290, Note_on_c, 0, 64, 63
2, 37294, Note_on_c, 0, 36, 61
2, 37315, Control_c, 0, 64, 0
2, 37315, Control_c, 0, 64, 0
2, 37349, Control_c, 0, 64, 127
2, 37349, Control_c, 0, 64, 127
2, 37468, Note_on_c, 0, 67, 42
2, 37516, Note_on_c, 0, 52, 46
2, 37520, Note_on_c, 0, 58, 31
2, 37520, Note_on_c, 0, 48, 1
2, 37524, Note_on_c, 0, 61, 65
2, 37525, Note_on_c, 0, 70, 64
2, 37557, Note_off_c, 0, 52, 64
2, 37560, Control_c, 0, 64, 0
2, 37560, Control_c, 0, 64, 0
2, 37561, Note_off_c, 0, 48, 64
2, 37561, Note_off_c, 0, 58, 64
2, 37582, Control_c, 0, 64, 127
2, 37582, Control_c, 0, 64, 127
2, 37613, Note_off_c, 0, 67, 64
2, 37735, Note_on_c, 0, 58, 31
2, 37735, Note_on_c, 0, 52, 46
2, 37736, Note_on_c, 0, 48, 52
2, 37776, Note_off_c, 0, 52, 64
2, 37776, Note_off_c, 0, 58, 64
2, 37777, Note_off_c, 0, 48, 64
2, 37819, Note_off_c, 0, 36, 64
2, 37834, Note_on_c, 0, 68, 60
2, 37838, Note_on_c, 0, 60, 57
2, 37842, Note_off_c, 0, 61, 64
2, 37843, Note_off_c, 0, 70, 64
2, 37948, Note_on_c, 0, 41, 58
2, 37951, Note_on_c, 0, 67, 61
2, 37955, Note_on_c, 0, 58, 64
2, 37962, Note_off_c, 0, 68, 64
2, 37966, Note_off_c, 0, 60, 64
2, 37990, Control_c, 0, 64, 0
2, 37990, Control_c, 0, 64, 0
2, 38053, Control_c, 0, 64, 127
2, 38053, Control_c, 0, 64, 127
2, 38165, Note_on_c, 0, 65, 57
2, 38171, Note_on_c, 0, 56, 52
2, 38174, Note_off_c, 0, 64, 64
2, 38178, Note_on_c, 0, 53, 31
2, 38178, Control_c, 0, 64, 0
2, 38178, Control_c, 0, 64, 0
2, 38185, Note_off_c, 0, 67, 64
2, 38185, Note_on_c, 0, 48, 36
2, 38189, Note_off_c, 0, 58, 64
2, 38219, Note_off_c, 0, 53, 64
2, 38226, Note_off_c, 0, 48, 64
2, 38240, Control_c, 0, 64, 127
2, 38240, Control_c, 0, 64, 127
2, 38331, Note_off_c, 0, 56, 64
2, 38353, Note_off_c, 0, 65, 64
2, 38364, Note_on_c, 0, 53, 42
2, 38364, Note_on_c, 0, 48, 52
2, 38405, Note_off_c, 0, 48, 64
2, 38405, Note_off_c, 0, 53, 64
2, 38487, Note_off_c, 0, 41, 64
2, 38585, Note_on_c, 0, 67, 68
2, 38589, Note_on_c, 0, 39, 65
2, 38596, Control_c, 0, 64, 0
2, 38596, Control_c, 0, 64, 0
2, 38641, Control_c, 0, 64, 127
2, 38641, Control_c, 0, 64, 127
2, 38724, Note_on_c, 0, 70, 53
2, 38768, Note_on_c, 0, 65, 49
2, 38773, Note_on_c, 0, 61, 53
2, 38780, Note_on_c, 0, 73, 71
2, 38780, Note_on_c, 0, 51, 57
2, 38787, Note_on_c, 0, 55, 47
2, 38797, Control_c, 0, 64, 0
2, 38797, Control_c, 0, 64, 0
2, 38823, Note_off_c, 0, 70, 64
2, 38843, Control_c, 0, 64, 127
2, 38843, Control_c, 0, 64, 127
2, 38901, Control_c, 0, 64, 0
2, 38901, Control_c, 0, 64, 0
2, 38903, Note_off_c, 0, 61, 64
2, 38910, Note_off_c, 0, 51, 64
2, 38917, Note_off_c, 0, 55, 64
2, 38960, Note_on_c, 0, 61, 54
2, 38960, Note_on_c, 0, 55, 49
2, 38960, Note_on_c, 0, 51, 58
2, 39023, Note_off_c, 0, 51, 64
2, 39023, Note_off_c, 0, 55, 64
2, 39023, Note_off_c, 0, 61, 64
2, 39039, Note_on_c, 0, 72, 61
2, 39045, Note_on_c, 0, 63, 67
2, 39083, Note_off_c, 0, 65, 64
2, 39090, Note_off_c, 0, 73, 64
2, 39103, Note_off_c, 0, 39, 64
2, 39137, Note_on_c, 0, 70, 56
2, 39140, Note_on_c, 0, 61, 71
2, 39148, Note_on_c, 0, 44, 46
2, 39156, Note_off_c, 0, 72, 64
2, 39157, Control_c, 0, 64, 0
2, 39157, Control_c, 0, 64, 0
2, 39162, Note_off_c, 0, 63, 64
2, 39202, Control_c, 0, 64, 127
2, 39202, Control_c, 0, 64, 127
2, 39328, Note_on_c, 0, 68, 68
2, 39329, Note_off_c, 0, 67, 64
2, 39333, Note_on_c, 0, 60, 56
2, 39337, Note_on_c, 0, 56, 26
2, 39350, Note_on_c, 0, 51, 34
2, 39350, Control_c, 0, 64, 0
2, 39350, Control_c, 0, 64, 0
2, 39371, Note_off_c, 0, 70, 64
2, 39374, Note_off_c, 0, 61, 64
2, 39378, Note_off_c, 0, 56, 64
2, 39391, Note_off_c, 0, 51, 64
2, 39397, Control_c, 0, 64, 127
2, 39397, Control_c, 0, 64, 127
2, 39479, Note_off_c, 0, 68, 64
2, 39484, Note_off_c, 0, 60, 64
2, 39510, Note_on_c, 0, 51, 49
2, 39516, Note_on_c, 0, 56, 38
2, 39551, Note_off_c, 0, 51, 64
2, 39557, Note_off_c, 0, 56, 64
2, 39644, Note_off_c, 0, 44, 64
2, 39678, Note_on_c, 0, 71, 71
2, 39678, Note_on_c, 0, 43, 68
2, 39694, Control_c, 0, 64, 0
2, 39694, Control_c, 0, 64, 0
2, 39719, Control_c, 0, 64, 127
2, 39719, Control_c, 0, 64, 127
2, 39806, Note_on_c, 0, 74, 61
2, 39847, Note_on_c, 0, 77, 71
2, 39848, Note_on_c, 0, 68, 71
2, 39858, Note_on_c, 0, 55, 58
2, 39862, Note_on_c, 0, 59, 58
2, 39865, Note_on_c, 0, 65, 60
2, 39876, Control_c, 0, 64, 0
2, 39876, Control_c, 0, 64, 0
2, 39899, Note_off_c, 0, 55, 64
2, 39903, Note_off_c, 0, 59, 64
2, 39906, Note_off_c, 0, 65, 64
2, 39922, Control_c, 0, 64, 127
2, 39922, Control_c, 0, 64, 127
2, 39960, Note_off_c, 0, 74, 64
2, 40041, Note_on_c, 0, 55, 64
2, 40045, Note_on_c, 0, 65, 61
2, 40045, Note_on_c, 0, 59, 64
2, 40082, Note_off_c, 0, 55, 64
2, 40086, Note_off_c, 0, 59, 64
2, 40086, Note_off_c, 0, 65, 64
2, 40137, Note_on_c, 0, 67, 69
2, 40140, Note_on_c, 0, 76, 64
2, 40186, Note_off_c, 0, 43, 64
2, 40192, Note_off_c, 0, 77, 64
2, 40193, Note_off_c, 0, 68, 64
2, 40259, Note_on_c, 0, 74, 73
2, 40262, Note_on_c, 0, 65, 58
2, 40266, Note_on_c, 0, 48, 60
2, 40275, Note_off_c, 0, 67, 64
2, 40278, Note_off_c, 0, 76, 64
2, 40296, Control_c, 0, 64, 0
2, 40296, Control_c, 0, 64, 0
2, 40341, Control_c, 0, 64, 127
2, 40341, Control_c, 0, 64, 127
2, 40438, Note_off_c, 0, 71, 64
2, 40464, Note_on_c, 0, 72, 61
2, 40474, Note_on_c, 0, 64, 38
2, 40478, Note_on_c, 0, 60, 49
2, 40478, Note_on_c, 0, 55, 41
2, 40486, Note_off_c, 0, 74, 64
2, 40488, Control_c, 0, 64, 0
2, 40488, Control_c, 0, 64, 0
2, 40489, Note_off_c, 0, 65, 64
2, 40532, Control_c, 0, 64, 127
2, 40532, Control_c, 0, 64, 127
2, 40567, Note_off_c, 0, 72, 64
2, 40577, Note_off_c, 0, 64, 64
2, 40581, Note_off_c, 0, 55, 64
2, 40581, Note_off_c, 0, 60, 64
2, 40738, Note_on_c, 0, 76, 78
2, 40741, Note_off_c, 0, 48, 64
2, 40976, Note_on_c, 0, 36, 68
2, 41006, Control_c, 0, 64, 0
2, 41006, Control_c, 0, 64, 0
2, 41030, Control_c, 0, 64, 127
2, 41030, Control_c, 0, 64, 127
2, 41190, Note_on_c, 0, 79, 58
2, 41248, Note_on_c, 0, 82, 76
2, 41248, Note_on_c, 0, 73, 75
2, 41251, Note_on_c, 0, 58, 65
2, 41255, Note_on_c, 0, 55, 60
2, 41261, Note_on_c, 0, 64, 57
2, 41277, Control_c, 0, 64, 0
2, 41277, Control_c, 0, 64, 0
2, 41299, Note_off_c, 0, 55, 64
2, 41303, Note_off_c, 0, 58, 64
2, 41307, Note_off_c, 0, 64, 64
2, 41311, Note_off_c, 0, 79, 64
2, 41313, Control_c, 0, 64, 127
2, 41313, Control_c, 0, 64, 127
2, 41482, Note_on_c, 0, 55, 53
2, 41484, Note_on_c, 0, 64, 54
2, 41484, Note_on_c, 0, 58, 64
2, 41495, Note_off_c, 0, 36, 64
2, 41528, Note_off_c, 0, 55, 64
2, 41530, Note_off_c, 0, 58, 64
2, 41530, Note_off_c, 0, 64, 64
2, 41610, Note_on_c, 0, 80, 50
2, 41615, Note_on_c, 0, 72, 52
2, 41638, Note_off_c, 0, 73, 64
2, 41638, Note_off_c, 0, 82, 64
2, 41762, Note_on_c, 0, 79, 60
2, 41767, Note_on_c, 0, 70, 65
2, 41767, Note_on_c, 0, 41, 54
2, 41777, Note_off_c, 0, 80, 64
2, 41782, Note_off_c, 0, 72, 64
2, 41815, Control_c, 0, 64, 0
2, 41815, Control_c, 0, 64, 0
2, 41847, Control_c, 0, 64, 127
2, 41847, Control_c, 0, 64, 127
2, 42024, Note_on_c, 0, 61, 49
2, 42030, Note_on_c, 0, 53, 28
2, 42034, Note_on_c, 0, 64, 34
2, 42048, Control_c, 0, 64, 0
2, 42048, Control_c, 0, 64, 0
2, 42060, Control_c, 0, 64, 127
2, 42060, Control_c, 0, 64, 127
2, 42264, Note_off_c, 0, 76, 64
2, 42294, Note_off_c, 0, 41, 64
2, 42296, Note_on_c, 0, 77, 52
2, 42300, Note_on_c, 0, 68, 38
2, 42308, Note_on_c, 0, 60, 34
2, 42312, Note_on_c, 0, 65, 28
2, 42314, Note_off_c, 0, 79, 64
2, 42319, Note_off_c, 0, 70, 64
2, 42324, Note_off_c, 0, 61, 64
2, 42329, Control_c, 0, 64, 0
2, 42329, Control_c, 0, 64, 0
2, 42334, Note_off_c, 0, 64, 64
2, 42354, Note_off_c, 0, 53, 64
2, 42387, Control_c, 0, 64, 127
2, 42387, Control_c, 0, 64, 127
2, 42411, Note_off_c, 0, 60, 64
2, 42415, Note_off_c, 0, 65, 64
2, 42593, Note_on_c, 0, 42, 57
2, 42603, Control_c, 0, 64, 0
2, 42603, Control_c, 0, 64, 0
2, 42624, Note_off_c, 0, 77, 64
2, 42627, Control_c, 0, 64, 127
2, 42627, Control_c, 0, 64, 127
2, 42633, Note_off_c, 0, 68, 64
2, 42712, Note_on_c, 0, 66, 31
2, 42717, Note_on_c, 0, 75, 24
2, 42745, Note_on_c, 0, 77, 61
2, 42756, Note_off_c, 0, 75, 64
2, 42784, Note_on_c, 0, 75, 56
2, 42816, Note_off_c, 0, 77, 64
2, 42828, Note_on_c, 0, 63, 49
2, 42828, Note_on_c, 0, 58, 52
2, 42828, Note_on_c, 0, 54, 24
2, 42845, Note_on_c, 0, 74, 35
2, 42848, Note_on_c, 0, 65, 52
2, 42854, Note_off_c, 0, 66, 64
2, 42858, Note_off_c, 0, 75, 64
2, 42869, Note_off_c, 0, 54, 64
2, 42869, Note_off_c, 0, 58, 64
2, 42869, Note_off_c, 0, 63, 64
2, 42871, Control_c, 0, 64, 0
2, 42871, Control_c, 0, 64, 0
2, 42905, Control_c, 0, 64, 127
2, 42905, Control_c, 0, 64, 127
2, 42957, Note_on_c, 0, 75, 54
2, 42967, Note_on_c, 0, 66, 61
2, 42979, Note_off_c, 0, 74, 64
2, 42982, Note_off_c, 0, 65, 64
2, 43060, Note_on_c, 0, 54, 24
2, 43064, Note_on_c, 0, 63, 49
2, 43064, Note_on_c, 0, 58, 52
2, 43067, Note_on_c, 0, 77, 54
2, 43071, Note_on_c, 0, 68, 69
2, 43074, Note_off_c, 0, 75, 64
2, 43081, Note_off_c, 0, 66, 64
2, 43101, Note_off_c, 0, 54, 64
2, 43105, Note_off_c, 0, 58, 64
2, 43105, Note_off_c, 0, 63, 64
2, 43115, Note_off_c, 0, 42, 64
2, 43170, Note_on_c, 0, 78, 67
2, 43170, Note_on_c, 0, 70, 65
2, 43181, Note_off_c, 0, 77, 64
2, 43183, Note_off_c, 0, 68, 64
2, 43200, Note_off_c, 0, 70, 64
2, 43208, Note_off_c, 0, 78, 64
2, 43270, Note_on_c, 0, 44, 54
2, 43275, Note_on_c, 0, 70, 65
2, 43279, Note_on_c, 0, 78, 67
2, 43289, Control_c, 0, 64, 0
2, 43289, Control_c, 0, 64, 0
2, 43308, Note_off_c, 0, 70, 64
2, 43313, Control_c, 0, 64, 127
2, 43313, Control_c, 0, 64, 127
2, 43320, Note_off_c, 0, 78, 64
2, 43406, Note_on_c, 0, 78, 53
2, 43414, Note_on_c, 0, 70, 42
2, 43458, Note_on_c, 0, 73, 61
2, 43460, Note_on_c, 0, 65, 60
2, 43464, Note_off_c, 0, 78, 64
2, 43466, Note_off_c, 0, 70, 64
2, 43468, Note_on_c, 0, 53, 53
2, 43472, Note_on_c, 0, 56, 45
2, 43474, Note_on_c, 0, 61, 58
2, 43481, Control_c, 0, 64, 0
2, 43481, Control_c, 0, 64, 0
2, 43509, Note_off_c, 0, 53, 64
2, 43513, Note_off_c, 0, 56, 64
2, 43515, Note_off_c, 0, 61, 64
2, 43668, Note_on_c, 0, 61, 52
2, 43668, Control_c, 0, 64, 127
2, 43668, Control_c, 0, 64, 127
2, 43676, Note_on_c, 0, 56, 45
2, 43676, Note_on_c, 0, 53, 53
2, 43705, Note_off_c, 0, 73, 64
2, 43709, Note_off_c, 0, 61, 64
2, 43717, Note_off_c, 0, 53, 64
2, 43717, Note_off_c, 0, 56, 64
2, 43723, Note_off_c, 0, 65, 64
2, 43761, Note_on_c, 0, 77, 52
2, 43761, Note_on_c, 0, 68, 54
2, 43786, Note_off_c, 0, 44, 64
2, 43793, Note_off_c, 0, 68, 64
2, 43800, Note_off_c, 0, 77, 64
2, 43857, Control_c, 0, 64, 0
2, 43857, Control_c, 0, 64, 0
2, 43860, Note_on_c, 0, 77, 61
2, 43860, Note_on_c, 0, 68, 58
2, 43866, Note_on_c, 0, 44, 64
2, 43911, Control_c, 0, 64, 127
2, 43911, Control_c, 0, 64, 127
2, 43936, Note_off_c, 0, 68, 64
2, 43939, Note_off_c, 0, 77, 64
2, 43971, Control_c, 0, 64, 127
2, 43971, Control_c, 0, 64, 127
2, 43992, Note_on_c, 0, 68, 58
2, 43994, Note_on_c, 0, 77, 39
2, 44049, Note_on_c, 0, 72, 58
2, 44053, Note_on_c, 0, 51, 54
2, 44055, Note_off_c, 0, 68, 64
2, 44057, Note_off_c, 0, 77, 64
2, 44057, Note_on_c, 0, 63, 67
2, 44057, Note_on_c, 0, 54, 50
2, 44063, Note_on_c, 0, 60, 49
2, 44069, Control_c, 0, 64, 0
2, 44069, Control_c, 0, 64, 0
2, 44094, Note_off_c, 0, 51, 64
2, 44098, Note_off_c, 0, 54, 64
2, 44104, Note_off_c, 0, 60, 64
2, 44137, Note_off_c, 0, 44, 64
2, 44145, Control_c, 0, 64, 127
2, 44145, Control_c, 0, 64, 127
2, 44219, Control_c, 0, 64, 0
2, 44219, Control_c, 0, 64, 0
2, 44234, Note_on_c, 0, 45, 61
2, 44255, Control_c, 0, 64, 127
2, 44255, Control_c, 0, 64, 127
2, 44366, Note_off_c, 0, 72, 64
2, 44368, Note_on_c, 0, 75, 64
2, 44374, Note_off_c, 0, 63, 64
2, 44401, Note_off_c, 0, 45, 64
2, 44426, Control_c, 0, 64, 0
2, 44426, Control_c, 0, 64, 0
2, 44428, Note_off_c, 0, 75, 64
2, 44440, Note_on_c, 0, 46, 58
2, 44443, Note_on_c, 0, 75, 49
2, 44443, Note_on_c, 0, 66, 73
2, 44486, Control_c, 0, 64, 127
2, 44486, Control_c, 0, 64, 127
2, 44560, Note_off_c, 0, 75, 64
2, 44563, Note_on_c, 0, 73, 61
2, 44580, Note_off_c, 0, 66, 64
2, 44594, Note_off_c, 0, 73, 64
2, 44628, Note_on_c, 0, 65, 52
2, 44629, Note_on_c, 0, 73, 56
2, 44632, Control_c, 0, 64, 0
2, 44632, Control_c, 0, 64, 0
2, 44636, Note_on_c, 0, 53, 32
2, 44638, Note_on_c, 0, 61, 49
2, 44700, Control_c, 0, 64, 127
2, 44700, Control_c, 0, 64, 127
2, 44735, Note_off_c, 0, 61, 64
2, 44737, Note_off_c, 0, 73, 64
2, 44738, Note_off_c, 0, 53, 64
2, 44927, Note_off_c, 0, 46, 64
2, 44984, Note_on_c, 0, 73, 63
2, 45104, Note_on_c, 0, 39, 60
2, 45104, Control_c, 0, 64, 0
2, 45104, Control_c, 0, 64, 0
2, 45150, Control_c, 0, 64, 127
2, 45150, Control_c, 0, 64, 127
2, 45232, Note_on_c, 0, 63, 38
2, 45237, Note_on_c, 0, 72, 56
2, 45252, Note_off_c, 0, 73, 64
2, 45254, Note_off_c, 0, 65, 64
2, 45271, Note_on_c, 0, 73, 54
2, 45278, Note_off_c, 0, 72, 64
2, 45317, Note_on_c, 0, 72, 60
2, 45342, Note_off_c, 0, 73, 64
2, 45355, Control_c, 0, 64, 0
2, 45355, Control_c, 0, 64, 0
2, 45368, Note_on_c, 0, 71, 60
2, 45368, Note_on_c, 0, 62, 41
2, 45368, Note_on_c, 0, 60, 45
2, 45372, Note_on_c, 0, 54, 53
2, 45372, Note_on_c, 0, 51, 52
2, 45381, Control_c, 0, 64, 127
2, 45381, Control_c, 0, 64, 127
2, 45387, Note_off_c, 0, 63, 64
2, 45394, Note_off_c, 0, 72, 64
2, 45409, Note_off_c, 0, 60, 64
2, 45413, Note_off_c, 0, 51, 64
2, 45413, Note_off_c, 0, 54, 64
2, 45465, Note_off_c, 0, 62, 64
2, 45465, Note_off_c, 0, 71, 64
2, 45468, Note_on_c, 0, 72, 61
2, 45468, Note_on_c, 0, 63, 64
2, 45576, Note_on_c, 0, 73, 69
2, 45576, Note_on_c, 0, 60, 45
2, 45576, Note_on_c, 0, 54, 52
2, 45576, Note_on_c, 0, 51, 52
2, 45579, Note_on_c, 0, 65, 63
2, 45601, Note_off_c, 0, 63, 64
2, 45601, Note_off_c, 0, 72, 64
2, 45617, Note_off_c, 0, 51, 64
2, 45617, Note_off_c, 0, 54, 64
2, 45617, Note_off_c, 0, 60, 64
2, 45617, Note_off_c, 0, 39, 64
2, 45680, Note_on_c, 0, 75, 69
2, 45680, Note_on_c, 0, 66, 69
2, 45689, Note_off_c, 0, 73, 64
2, 45692, Note_off_c, 0, 65, 64
2, 45722, Note_off_c, 0, 66, 64
2, 45736, Note_off_c, 0, 75, 64
2, 45771, Note_on_c, 0, 75, 65
2, 45772, Note_on_c, 0, 66, 67
2, 45777, Control_c, 0, 64, 0
2, 45777, Control_c, 0, 64, 0
2, 45781, Note_on_c, 0, 41, 57
2, 45839, Control_c, 0, 64, 127
2, 45839, Control_c, 0, 64, 127
2, 45857, Note_off_c, 0, 75, 64
2, 45858, Note_off_c, 0, 66, 64
2, 45885, Control_c, 0, 64, 0
2, 45885, Control_c, 0, 64, 0
2, 45912, Note_on_c, 0, 75, 65
2, 45912, Note_on_c, 0, 66, 67
2, 45954, Control_c, 0, 64, 0
2, 45954, Control_c, 0, 64, 0
2, 45964, Note_on_c, 0, 70, 54
2, 45968, Note_on_c, 0, 61, 69
2, 45968, Note_on_c, 0, 58, 58
2, 45968, Note_on_c, 0, 49, 52
2, 45981, Note_off_c, 0, 66, 64
2, 45981, Note_off_c, 0, 75, 64
2, 46009, Note_off_c, 0, 49, 64
2, 46009, Note_off_c, 0, 58, 64
2, 46022, Control_c, 0, 64, 127
2, 46022, Control_c, 0, 64, 127
2, 46138, Note_on_c, 0, 58, 42
2, 46140, Note_on_c, 0, 49, 52
2, 46179, Note_off_c, 0, 58, 64
2, 46181, Note_off_c, 0, 49, 64
2, 46232, Note_off_c, 0, 70, 64
2, 46236, Note_off_c, 0, 61, 64
2, 46236, Note_on_c, 0, 73, 61
2, 46242, Note_on_c, 0, 65, 56
2, 46273, Note_off_c, 0, 41, 64
2, 46277, Note_off_c, 0, 73, 64
2, 46283, Note_off_c, 0, 65, 64
2, 46317, Control_c, 0, 64, 0
2, 46317, Control_c, 0, 64, 0
2, 46324, Note_on_c, 0, 73, 69
2, 46324, Note_on_c, 0, 65, 63
2, 46327, Note_on_c, 0, 41, 61
2, 46379, Control_c, 0, 64, 127
2, 46379, Control_c, 0, 64, 127
2, 46398, Note_off_c, 0, 65, 64
2, 46398, Note_off_c, 0, 73, 64
2, 46440, Note_on_c, 0, 73, 63
2, 46440, Note_on_c, 0, 65, 63
2, 46489, Note_on_c, 0, 60, 61
2, 46492, Note_on_c, 0, 69, 64
2, 46504, Note_off_c, 0, 65, 64
2, 46504, Note_off_c, 0, 73, 64
2, 46510, Control_c, 0, 64, 0
2, 46510, Control_c, 0, 64, 0
2, 46516, Note_on_c, 0, 48, 61
2, 46520, Note_on_c, 0, 57, 38
2, 46557, Note_off_c, 0, 48, 64
2, 46557, Control_c, 0, 64, 127
2, 46557, Control_c, 0, 64, 127
2, 46561, Note_off_c, 0, 57, 64
2, 46680, Note_on_c, 0, 48, 64
2, 46687, Note_on_c, 0, 57, 52
2, 46721, Note_off_c, 0, 48, 64
2, 46728, Note_off_c, 0, 57, 64
2, 46820, Note_on_c, 0, 72, 53
2, 46832, Note_off_c, 0, 60, 64
2, 46835, Note_off_c, 0, 69, 64
2, 46868, Note_off_c, 0, 72, 64
2, 46869, Note_off_c, 0, 41, 64
2, 46889, Note_on_c, 0, 63, 64
2, 46894, Note_on_c, 0, 34, 84
2, 46897, Note_on_c, 0, 72, 78
2, 46898, Control_c, 0, 64, 0
2, 46898, Control_c, 0, 64, 0
2, 46943, Control_c, 0, 64, 127
2, 46943, Control_c, 0, 64, 127
2, 47040, Note_off_c, 0, 72, 64
2, 47044, Note_on_c, 0, 70, 72
2, 47080, Note_off_c, 0, 70, 64
2, 47096, Control_c, 0, 64, 0
2, 47096, Control_c, 0, 64, 0
2, 47108, Note_on_c, 0, 70, 76
2, 47108, Note_on_c, 0, 46, 71
2, 47112, Note_on_c, 0, 53, 71
2, 47113, Note_on_c, 0, 61, 78
2, 47114, Note_on_c, 0, 58, 79
2, 47120, Note_off_c, 0, 34, 64
2, 47136, Note_off_c, 0, 63, 64
2, 47153, Control_c, 0, 64, 127
2, 47153, Control_c, 0, 64, 127
2, 47211, Note_off_c, 0, 46, 64
2, 47215, Note_off_c, 0, 53, 64
2, 47216, Note_off_c, 0, 61, 64
2, 47217, Note_off_c, 0, 58, 64
2, 47269, Control_c, 0, 64, 127
2, 47269, Control_c, 0, 64, 127
2, 47293, Note_off_c, 0, 70, 64
2, 47456, Note_on_c, 0, 73, 58
2, 47460, Note_on_c, 0, 65, 58
2, 47628, Note_off_c, 0, 73, 64
2, 47650, Note_on_c, 0, 32, 60
2, 47651, Note_on_c, 0, 44, 65
2, 47651, Control_c, 0, 64, 0
2, 47651, Control_c, 0, 64, 0
2, 47671, Note_on_c, 0, 66, 52
2, 47674, Note_off_c, 0, 65, 64
2, 47683, Control_c, 0, 64, 127
2, 47683, Control_c, 0, 64, 127
2, 47798, Note_on_c, 0, 75, 53
2, 47845, Note_on_c, 0, 77, 53
2, 47853, Note_off_c, 0, 75, 64
2, 47890, Note_off_c, 0, 32, 64
2, 47891, Note_off_c, 0, 44, 64
2, 47892, Note_on_c, 0, 75, 52
2, 47915, Note_off_c, 0, 77, 64
2, 47920, Note_on_c, 0, 65, 53
2, 47922, Note_on_c, 0, 74, 42
2, 47938, Note_on_c, 0, 56, 53
2, 47940, Note_on_c, 0, 51, 52
2, 47943, Note_on_c, 0, 60, 52
2, 47947, Note_off_c, 0, 75, 64
2, 47951, Note_off_c, 0, 66, 64
2, 47964, Control_c, 0, 64, 0
2, 47964, Control_c, 0, 64, 0
2, 47979, Note_off_c, 0, 56, 64
2, 47981, Note_off_c, 0, 51, 64
2, 47984, Note_off_c, 0, 60, 64
2, 47984, Control_c, 0, 64, 127
2, 47984, Control_c, 0, 64, 127
2, 48033, Note_on_c, 0, 75, 60
2, 48036, Note_on_c, 0, 66, 65
2, 48040, Note_off_c, 0, 65, 64
2, 48042, Note_off_c, 0, 74, 64
2, 48148, Note_on_c, 0, 77, 49
2, 48151, Note_on_c, 0, 68, 69
2, 48156, Note_on_c, 0, 56, 52
2, 48156, Note_on_c, 0, 51, 52
2, 48159, Note_on_c, 0, 60, 50
2, 48163, Note_off_c, 0, 75, 64
2, 48166, Note_off_c, 0, 66, 64
2, 48197, Note_off_c, 0, 51, 64
2, 48197, Note_off_c, 0, 56, 64
2, 48200, Note_off_c, 0, 60, 64
2, 48253, Note_on_c, 0, 78, 69
2, 48256, Note_on_c, 0, 70, 67
2, 48266, Note_off_c, 0, 77, 64
2, 48269, Note_off_c, 0, 68, 64
2, 48311, Note_off_c, 0, 70, 64
2, 48324, Note_off_c, 0, 78, 64
2, 48365, Note_on_c, 0, 70, 67
2, 48367, Control_c, 0, 64, 0
2, 48367, Control_c, 0, 64, 0
2, 48372, Note_on_c, 0, 78, 67
2, 48377, Note_on_c, 0, 49, 61
2, 48377, Note_on_c, 0, 37, 52
2, 48390, Control_c, 0, 64, 127
2, 48390, Control_c, 0, 64, 127
2, 48394, Note_off_c, 0, 78, 64
2, 48394, Note_off_c, 0, 70, 64
2, 48436, Note_on_c, 0, 78, 65
2, 48436, Note_on_c, 0, 70, 67
2, 48460, Note_off_c, 0, 70, 64
2, 48462, Note_off_c, 0, 78, 64
2, 48488, Note_on_c, 0, 78, 65
2, 48488, Note_on_c, 0, 70, 67
2, 48495, Note_on_c, 0, 70, 57
2, 48512, Note_off_c, 0, 70, 64
2, 48514, Note_off_c, 0, 78, 64
2, 48525, Note_off_c, 0, 70, 64
2, 48565, Note_on_c, 0, 65, 60
2, 48573, Note_on_c, 0, 73, 58
2, 48576, Note_on_c, 0, 61, 60
2, 48576, Note_on_c, 0, 56, 57
2, 48576, Note_on_c, 0, 53, 46
2, 48594, Control_c, 0, 64, 0
2, 48594, Control_c, 0, 64, 0
2, 48617, Note_off_c, 0, 53, 64
2, 48617, Note_off_c, 0, 56, 64
2, 48617, Note_off_c, 0, 61, 64
2, 48617, Note_off_c, 0, 37, 64
2, 48617, Note_off_c, 0, 49, 64
2, 48627, Control_c, 0, 64, 127
2, 48627, Control_c, 0, 64, 127
2, 48753, Note_on_c, 0, 61, 58
2, 48760, Note_on_c, 0, 56, 57
2, 48760, Note_on_c, 0, 53, 46
2, 48779, Note_off_c, 0, 65, 64
2, 48787, Note_off_c, 0, 73, 64
2, 48794, Note_off_c, 0, 61, 64
2, 48801, Note_off_c, 0, 53, 64
2, 48801, Note_off_c, 0, 56, 64
2, 48849, Note_on_c, 0, 77, 54
2, 48851, Note_on_c, 0, 68, 60
2, 48881, Note_off_c, 0, 68, 64
2, 48889, Note_off_c, 0, 77, 64
2, 48943, Note_on_c, 0, 68, 65
2, 48944, Control_c, 0, 64, 0
2, 48944, Control_c, 0, 64, 0
2, 48950, Note_on_c, 0, 77, 65
2, 48956, Note_on_c, 0, 44, 61
2, 48964, Control_c, 0, 64, 127
2, 48964, Control_c, 0, 64, 127
2, 48970, Note_off_c, 0, 68, 64
2, 48973, Note_off_c, 0, 77, 64
2, 49002, Note_on_c, 0, 68, 63
2, 49009, Note_on_c, 0, 77, 57
2, 49038, Note_off_c, 0, 68, 64
2, 49045, Note_off_c, 0, 77, 64
2, 49062, Note_on_c, 0, 68, 63
2, 49069, Note_on_c, 0, 77, 57
2, 49098, Note_off_c, 0, 68, 64
2, 49105, Note_off_c, 0, 77, 64
2, 49136, Note_on_c, 0, 63, 65
2, 49140, Note_on_c, 0, 72, 60
2, 49140, Control_c, 0, 64, 0
2, 49140, Control_c, 0, 64, 0
2, 49152, Note_on_c, 0, 60, 64
2, 49154, Note_on_c, 0, 54, 52
2, 49154, Note_on_c, 0, 51, 54
2, 49179, Note_off_c, 0, 60, 64
2, 49185, Note_off_c, 0, 51, 64
2, 49185, Note_off_c, 0, 54, 64
2, 49188, Control_c, 0, 64, 127
2, 49188, Control_c, 0, 64, 127
2, 49219, Note_off_c, 0, 44, 64
2, 49274, Note_off_c, 0, 72, 64
2, 49276, Note_off_c, 0, 63, 64
2, 49313, Note_on_c, 0, 45, 56
2, 49422, Note_on_c, 0, 75, 62
2, 49429, Note_off_c, 0, 45, 64
2, 49509, Note_on_c, 0, 46, 57
2, 49516, Note_on_c, 0, 66, 75
2, 49523, Control_c, 0, 64, 0
2, 49523, Control_c, 0, 64, 0
2, 49556, Control_c, 0, 64, 127
2, 49556, Control_c, 0, 64, 127
2, 49592, Note_off_c, 0, 46, 64
2, 49657, Note_on_c, 0, 73, 61
2, 49659, Note_off_c, 0, 75, 64
2, 49687, Note_off_c, 0, 73, 64
2, 49714, Note_on_c, 0, 65, 54
2, 49714, Note_on_c, 0, 61, 64
2, 49716, Note_on_c, 0, 73, 60
2, 49722, Note_on_c, 0, 53, 54
2, 49723, Note_off_c, 0, 66, 64
2, 49736, Control_c, 0, 64, 0
2, 49736, Control_c, 0, 64, 0
2, 49807, Control_c, 0, 64, 127
2, 49807, Control_c, 0, 64, 127
2, 49923, Note_off_c, 0, 61, 64
2, 49936, Note_off_c, 0, 53, 64
2, 50018, Note_off_c, 0, 73, 64
2, 50092, Note_on_c, 0, 73, 64
2, 50220, Note_on_c, 0, 39, 61
2, 50348, Note_on_c, 0, 63, 53
2, 50349, Note_on_c, 0, 72, 49
2, 50355, Note_off_c, 0, 65, 64
2, 50366, Note_off_c, 0, 73, 64
2, 50398, Note_on_c, 0, 73, 54
2, 50408, Note_off_c, 0, 72, 64
2, 50435, Note_on_c, 0, 72, 43
2, 50449, Note_off_c, 0, 73, 64
2, 50479, Note_on_c, 0, 71, 41
2, 50484, Note_on_c, 0, 62, 53
2, 50484, Note_on_c, 0, 60, 58
2, 50484, Note_on_c, 0, 51, 41
2, 50486, Note_on_c, 0, 54, 46
2, 50490, Note_off_c, 0, 63, 64
2, 50495, Note_off_c, 0, 72, 64
2, 50516, Control_c, 0, 64, 0
2, 50516, Control_c, 0, 64, 0
2, 50525, Note_off_c, 0, 51, 64
2, 50525, Note_off_c, 0, 60, 64
2, 50527, Note_off_c, 0, 54, 64
2, 50532, Control_c, 0, 64, 127
2, 50532, Control_c, 0, 64, 127
2, 50576, Note_on_c, 0, 72, 54
2, 50578, Note_on_c, 0, 63, 67
2, 50582, Note_off_c, 0, 71, 64
2, 50587, Note_off_c, 0, 62, 64
2, 50676, Note_on_c, 0, 73, 61
2, 50678, Note_on_c, 0, 65, 65
2, 50686, Note_off_c, 0, 72, 64
2, 50688, Note_off_c, 0, 63, 64
2, 50688, Note_on_c, 0, 60, 52
2, 50688, Note_on_c, 0, 54, 52
2, 50690, Note_on_c, 0, 51, 53
2, 50729, Note_off_c, 0, 54, 64
2, 50729, Note_off_c, 0, 60, 64
2, 50731, Note_off_c, 0, 51, 64
2, 50761, Note_off_c, 0, 39, 64
2, 50778, Note_on_c, 0, 75, 67
2, 50780, Note_on_c, 0, 66, 71
2, 50793, Note_off_c, 0, 73, 64
2, 50795, Note_off_c, 0, 65, 64
2, 50826, Note_off_c, 0, 75, 64
2, 50828, Note_off_c, 0, 66, 64
2, 50886, Note_on_c, 0, 75, 69
2, 50886, Note_on_c, 0, 66, 71
2, 50895, Note_on_c, 0, 41, 63
2, 50895, Control_c, 0, 64, 0
2, 50895, Control_c, 0, 64, 0
2, 50909, Note_off_c, 0, 66, 64
2, 50915, Note_off_c, 0, 75, 64
2, 50923, Control_c, 0, 64, 127
2, 50923, Control_c, 0, 64, 127
2, 50963, Note_on_c, 0, 66, 61
2, 50964, Note_on_c, 0, 75, 65
2, 50983, Note_off_c, 0, 66, 64
2, 50986, Note_off_c, 0, 75, 64
2, 51020, Note_on_c, 0, 75, 65
2, 51024, Note_on_c, 0, 66, 61
2, 51087, Note_off_c, 0, 66, 64
2, 51091, Note_off_c, 0, 75, 64
2, 51092, Note_on_c, 0, 70, 61
2, 51100, Note_on_c, 0, 61, 64
2, 51100, Note_on_c, 0, 58, 54
2, 51100, Note_on_c, 0, 49, 57
2, 51117, Control_c, 0, 64, 0
2, 51117, Control_c, 0, 64, 0
2, 51149, Control_c, 0, 64, 127
2, 51149, Control_c, 0, 64, 127
2, 51157, Note_off_c, 0, 58, 64
2, 51160, Note_off_c, 0, 49, 64
2, 51175, Note_off_c, 0, 41, 64
2, 51281, Note_off_c, 0, 70, 64
2, 51283, Note_off_c, 0, 61, 64
2, 51440, Note_on_c, 0, 73, 56
2, 51444, Note_on_c, 0, 65, 61
2, 51512, Note_off_c, 0, 73, 64
2, 51516, Note_off_c, 0, 65, 64
2, 51559, Note_on_c, 0, 73, 65
2, 51560, Note_on_c, 0, 29, 72
2, 51564, Note_on_c, 0, 65, 49
2, 51589, Note_off_c, 0, 65, 64
2, 51598, Note_off_c, 0, 73, 64
2, 51634, Note_on_c, 0, 65, 58
2, 51636, Note_on_c, 0, 73, 52
2, 51657, Note_off_c, 0, 65, 64
2, 51660, Note_off_c, 0, 73, 64
2, 51690, Note_on_c, 0, 73, 54
2, 51703, Note_on_c, 0, 65, 36
2, 51765, Note_off_c, 0, 73, 64
2, 51776, Note_on_c, 0, 60, 52
2, 51776, Note_on_c, 0, 57, 49
2, 51778, Note_off_c, 0, 65, 64
2, 51780, Note_on_c, 0, 69, 56
2, 51780, Note_on_c, 0, 48, 54
2, 51780, Note_on_c, 0, 41, 54
2, 51817, Control_c, 0, 64, 0
2, 51817, Control_c, 0, 64, 0
2, 51870, Control_c, 0, 64, 127
2, 51870, Control_c, 0, 64, 127
2, 51953, Note_off_c, 0, 69, 64
2, 52027, Note_off_c, 0, 29, 64
2, 52074, Control_c, 0, 64, 0
2, 52074, Control_c, 0, 64, 0
2, 52099, Control_c, 0, 64, 127
2, 52099, Control_c, 0, 64, 127
2, 52148, Note_on_c, 0, 72, 49
2, 52152, Note_on_c, 0, 63, 30
2, 52178, Note_off_c, 0, 57, 64
2, 52178, Note_off_c, 0, 60, 64
2, 52182, Note_off_c, 0, 41, 64
2, 52182, Note_off_c, 0, 48, 64
2, 52284, Note_on_c, 0, 73, 56
2, 52286, Note_off_c, 0, 72, 64
2, 52288, Note_on_c, 0, 65, 49
2, 52294, Note_off_c, 0, 63, 64
2, 52339, Note_off_c, 0, 73, 64
2, 52343, Note_off_c, 0, 65, 64
2, 52386, Note_on_c, 0, 73, 54
2, 52388, Note_on_c, 0, 65, 38
2, 52492, Note_off_c, 0, 73, 64
2, 52494, Note_off_c, 0, 65, 64
2, 52499, Note_on_c, 0, 69, 58
2, 52499, Note_on_c, 0, 60, 60
2, 52528, Control_c, 0, 64, 0
2, 52528, Control_c, 0, 64, 0
2, 52542, Control_c, 0, 64, 127
2, 52542, Control_c, 0, 64, 127
2, 52710, Note_on_c, 0, 72, 46
2, 52712, Note_on_c, 0, 63, 26
2, 52724, Note_off_c, 0, 69, 64
2, 52731, Note_off_c, 0, 60, 64
2, 52904, Note_on_c, 0, 53, 52
2, 52907, Note_on_c, 0, 41, 46
2, 52924, Note_off_c, 0, 72, 64
2, 52926, Note_off_c, 0, 63, 64
2, 52930, Control_c, 0, 64, 0
2, 52930, Control_c, 0, 64, 0
2, 52974, Control_c, 0, 64, 127
2, 52974, Control_c, 0, 64, 127
2, 52982, Note_off_c, 0, 41, 64
2, 53105, Note_on_c, 0, 41, 52
2, 53337, Note_off_c, 0, 41, 64
2, 53525, Note_on_c, 0, 40, 58
2, 53539, Control_c, 0, 64, 0
2, 53539, Control_c, 0, 64, 0
2, 53572, Control_c, 0, 64, 127
2, 53572, Control_c, 0, 64, 127
2, 53600, Note_off_c, 0, 40, 64
2, 53740, Note_on_c, 0, 40, 52
2, 53972, Note_off_c, 0, 40, 64
2, 54149, Note_on_c, 0, 73, 50
2, 54154, Note_on_c, 0, 65, 52
2, 54158, Control_c, 0, 64, 0
2, 54158, Control_c, 0, 64, 0
2, 54181, Control_c, 0, 64, 127
2, 54181, Control_c, 0, 64, 127
2, 54197, Note_off_c, 0, 65, 64
2, 54200, Note_off_c, 0, 73, 64
2, 54243, Note_on_c, 0, 73, 53
2, 54252, Note_on_c, 0, 65, 42
2, 54350, Note_on_c, 0, 69, 54
2, 54351, Note_on_c, 0, 60, 50
2, 54358, Note_off_c, 0, 73, 64
2, 54367, Note_off_c, 0, 65, 64
2, 54367, Control_c, 0, 64, 0
2, 54367, Control_c, 0, 64, 0
2, 54409, Control_c, 0, 64, 127
2, 54409, Control_c, 0, 64, 127
2, 54552, Note_on_c, 0, 63, 38
2, 54554, Note_on_c, 0, 72, 46
2, 54592, Note_off_c, 0, 69, 64
2, 54593, Note_off_c, 0, 60, 64
2, 54755, Note_off_c, 0, 63, 64
2, 54757, Note_off_c, 0, 72, 64
2, 54768, Note_on_c, 0, 73, 52
2, 54783, Note_on_c, 0, 65, 31
2, 54801, Control_c, 0, 64, 0
2, 54801, Control_c, 0, 64, 0
2, 54814, Control_c, 0, 64, 127
2, 54814, Control_c, 0, 64, 127
2, 54819, Note_off_c, 0, 65, 64
2, 54822, Note_off_c, 0, 73, 64
2, 54864, Note_on_c, 0, 73, 53
2, 54878, Note_on_c, 0, 65, 31
2, 54953, Note_off_c, 0, 65, 64
2, 54967, Note_off_c, 0, 73, 64
2, 54980, Note_on_c, 0, 60, 46
2, 54984, Note_on_c, 0, 69, 52
2, 55030, Control_c, 0, 64, 0
2, 55030, Control_c, 0, 64, 0
2, 55074, Control_c, 0, 64, 127
2, 55074, Control_c, 0, 64, 127
2, 55261, Note_on_c, 0, 72, 39
2, 55267, Note_on_c, 0, 63, 32
2, 55282, Note_off_c, 0, 60, 64
2, 55286, Note_off_c, 0, 69, 64
2, 55452, Note_off_c, 0, 72, 64
2, 55458, Note_off_c, 0, 63, 64
2, 55493, Note_on_c, 0, 39, 53
2, 55507, Control_c, 0, 64, 0
2, 55507, Control_c, 0, 64, 0
2, 55555, Control_c, 0, 64, 127
2, 55555, Control_c, 0, 64, 127
2, 55568, Note_off_c, 0, 39, 64
2, 55726, Note_on_c, 0, 39, 61
2, 55756, Control_c, 0, 64, 0
2, 55756, Control_c, 0, 64, 0
2, 55787, Control_c, 0, 64, 127
2, 55787, Control_c, 0, 64, 127
2, 55958, Note_off_c, 0, 39, 64
2, 56138, Note_on_c, 0, 38, 83
2, 56155, Control_c, 0, 64, 0
2, 56155, Control_c, 0, 64, 0
2, 56178, Control_c, 0, 64, 127
2, 56178, Control_c, 0, 64, 127
2, 56213, Note_off_c, 0, 38, 64
2, 56352, Note_on_c, 0, 38, 100
2, 56437, Control_c, 0, 64, 0
2, 56437, Control_c, 0, 64, 0
2, 56720, Note_off_c, 0, 38, 64
2, 56742, Control_c, 0, 64, 0
2, 56742, Control_c, 0, 64, 0
2, 56764, Note_on_c, 0, 61, 83
2, 56764, Note_on_c, 0, 37, 84
2, 56766, Note_off_c, 0, 53, 64
2, 56768, Note_on_c, 0, 65, 74
2, 56787, Control_c, 0, 64, 127
2, 56787, Control_c, 0, 64, 127
2, 56862, Note_off_c, 0, 61, 64
2, 56866, Note_off_c, 0, 65, 64
2, 56908, Note_on_c, 0, 61, 70
2, 56912, Note_on_c, 0, 66, 57
2, 56912, Note_on_c, 0, 63, 81
2, 56959, Note_off_c, 0, 37, 64
2, 56964, Control_c, 0, 64, 0
2, 56964, Control_c, 0, 64, 0
2, 56969, Note_on_c, 0, 67, 78
2, 56970, Note_on_c, 0, 64, 78
2, 56971, Note_on_c, 0, 53, 68
2, 56979, Note_off_c, 0, 61, 64
2, 56983, Note_off_c, 0, 63, 64
2, 56983, Note_off_c, 0, 66, 64
2, 57007, Control_c, 0, 64, 127
2, 57007, Control_c, 0, 64, 127
2, 57126, Note_off_c, 0, 67, 64
2, 57127, Note_off_c, 0, 64, 64
2, 57128, Note_off_c, 0, 53, 64
2, 57156, Note_on_c, 0, 68, 81
2, 57156, Note_on_c, 0, 65, 70
2, 57161, Note_on_c, 0, 44, 72
2, 57300, Note_on_c, 0, 70, 72
2, 57313, Note_off_c, 0, 65, 64
2, 57313, Note_off_c, 0, 68, 64
2, 57318, Note_off_c, 0, 44, 64
2, 57339, Note_on_c, 0, 72, 72
2, 57341, Note_off_c, 0, 70, 64
2, 57356, Note_on_c, 0, 37, 78
2, 57360, Note_on_c, 0, 70, 83
2, 57363, Note_on_c, 0, 66, 71
2, 57384, Control_c, 0, 64, 0
2, 57384, Control_c, 0, 64, 0
2, 57395, Note_off_c, 0, 72, 64
2, 57408, Control_c, 0, 64, 127
2, 57408, Control_c, 0, 64, 127
2, 57458, Note_off_c, 0, 70, 64
2, 57461, Note_off_c, 0, 66, 64
2, 57500, Note_on_c, 0, 68, 78
2, 57500, Note_on_c, 0, 65, 74
2, 57500, Note_on_c, 0, 61, 62
2, 57553, Note_off_c, 0, 37, 64
2, 57556, Note_on_c, 0, 53, 70
2, 57557, Control_c, 0, 64, 0
2, 57557, Control_c, 0, 64, 0
2, 57562, Note_on_c, 0, 77, 81
2, 57564, Note_on_c, 0, 73, 84
2, 57571, Note_off_c, 0, 61, 64
2, 57571, Note_off_c, 0, 65, 64
2, 57571, Note_off_c, 0, 68, 64
2, 57607, Control_c, 0, 64, 127
2, 57607, Control_c, 0, 64, 127
2, 57732, Note_off_c, 0, 53, 64
2, 57756, Control_c, 0, 64, 0
2, 57756, Control_c, 0, 64, 0
2, 57760, Note_on_c, 0, 44, 83
2, 57770, Control_c, 0, 64, 127
2, 57770, Control_c, 0, 64, 127
2, 57772, Note_off_c, 0, 73, 64
2, 57778, Note_off_c, 0, 77, 64
2, 57933, Note_off_c, 0, 44, 64
2, 57952, Note_on_c, 0, 75, 75
2, 57953, Note_on_c, 0, 72, 72
2, 57953, Note_on_c, 0, 30, 70
2, 57960, Control_c, 0, 64, 0
2, 57960, Control_c, 0, 64, 0
2, 57991, Control_c, 0, 64, 127
2, 57991, Control_c, 0, 64, 127
2, 58050, Note_off_c, 0, 75, 64
2, 58051, Note_off_c, 0, 72, 64
2, 58064, Note_on_c, 0, 70, 64
2, 58065, Note_on_c, 0, 73, 64
2, 58067, Note_on_c, 0, 58, 75
2, 58102, Note_off_c, 0, 70, 64
2, 58120, Note_on_c, 0, 70, 87
2, 58120, Control_c, 0, 64, 0
2, 58120, Control_c, 0, 64, 0
2, 58127, Note_on_c, 0, 66, 91
2, 58133, Note_on_c, 0, 49, 83
2, 58136, Note_off_c, 0, 73, 64
2, 58138, Note_off_c, 0, 58, 64
2, 58146, Note_off_c, 0, 30, 64
2, 58166, Control_c, 0, 64, 127
2, 58166, Control_c, 0, 64, 127
2, 58284, Note_off_c, 0, 70, 64
2, 58291, Note_off_c, 0, 66, 64
2, 58297, Note_off_c, 0, 49, 64
2, 58308, Note_on_c, 0, 66, 78
2, 58316, Note_on_c, 0, 58, 76
2, 58316, Note_on_c, 0, 42, 76
2, 58472, Note_off_c, 0, 66, 64
2, 58480, Note_off_c, 0, 42, 64
2, 58480, Note_off_c, 0, 58, 64
2, 58487, Control_c, 0, 64, 0
2, 58487, Control_c, 0, 64, 0
2, 58493, Note_on_c, 0, 56, 83
2, 58493, Note_on_c, 0, 37, 76
2, 58499, Note_on_c, 0, 65, 76
2, 58532, Control_c, 0, 64, 127
2, 58532, Control_c, 0, 64, 127
2, 58591, Note_off_c, 0, 56, 64
2, 58597, Note_off_c, 0, 65, 64
2, 58624, Note_on_c, 0, 61, 79
2, 58625, Note_on_c, 0, 70, 67
2, 58628, Note_on_c, 0, 66, 79
2, 58669, Control_c, 0, 64, 0
2, 58669, Control_c, 0, 64, 0
2, 58673, Note_on_c, 0, 68, 84
2, 58679, Note_on_c, 0, 65, 91
2, 58679, Note_on_c, 0, 53, 91
2, 58688, Note_off_c, 0, 37, 64
2, 58695, Note_off_c, 0, 61, 64
2, 58696, Note_off_c, 0, 70, 64
2, 58699, Note_off_c, 0, 66, 64
2, 58733, Control_c, 0, 64, 127
2, 58733, Control_c, 0, 64, 127
2, 58829, Note_off_c, 0, 68, 64
2, 58834, Note_off_c, 0, 65, 64
2, 58850, Note_off_c, 0, 53, 64
2, 58860, Note_on_c, 0, 44, 52
2, 59029, Note_off_c, 0, 44, 64
2, 59047, Control_c, 0, 64, 0
2, 59047, Control_c, 0, 64, 0
2, 59050, Note_on_c, 0, 30, 52
2, 59055, Note_on_c, 0, 75, 53
2, 59057, Note_on_c, 0, 72, 52
2, 59091, Control_c, 0, 64, 127
2, 59091, Control_c, 0, 64, 127
2, 59142, Control_c, 0, 64, 0
2, 59142, Control_c, 0, 64, 0
2, 59153, Note_off_c, 0, 75, 64
2, 59155, Note_off_c, 0, 72, 64
2, 59180, Note_on_c, 0, 73, 54
2, 59180, Note_on_c, 0, 69, 60
2, 59182, Note_on_c, 0, 57, 49
2, 59217, Note_off_c, 0, 69, 64
2, 59226, Control_c, 0, 64, 0
2, 59226, Control_c, 0, 64, 0
2, 59232, Note_on_c, 0, 66, 67
2, 59233, Note_on_c, 0, 69, 60
2, 59239, Note_on_c, 0, 49, 54
2, 59245, Note_off_c, 0, 30, 64
2, 59251, Note_off_c, 0, 73, 64
2, 59253, Note_off_c, 0, 57, 64
2, 59268, Control_c, 0, 64, 127
2, 59268, Control_c, 0, 64, 127
2, 59396, Note_off_c, 0, 66, 64
2, 59397, Note_off_c, 0, 69, 64
2, 59403, Note_off_c, 0, 49, 64
2, 59410, Note_on_c, 0, 66, 53
2, 59414, Note_on_c, 0, 42, 52
2, 59417, Note_on_c, 0, 57, 58
2, 59574, Note_off_c, 0, 66, 64
2, 59578, Note_off_c, 0, 42, 64
2, 59581, Note_off_c, 0, 57, 64
2, 59584, Note_on_c, 0, 56, 52
2, 59584, Note_on_c, 0, 37, 52
2, 59588, Note_on_c, 0, 65, 46
2, 59589, Control_c, 0, 64, 0
2, 59589, Control_c, 0, 64, 0
2, 59617, Control_c, 0, 64, 127
2, 59617, Control_c, 0, 64, 127
2, 59666, Control_c, 0, 64, 0
2, 59666, Control_c, 0, 64, 0
2, 59682, Note_off_c, 0, 56, 64
2, 59686, Note_off_c, 0, 65, 64
2, 59728, Note_on_c, 0, 69, 50
2, 59728, Note_on_c, 0, 66, 41
2, 59732, Note_on_c, 0, 61, 58
2, 59769, Control_c, 0, 64, 0
2, 59769, Control_c, 0, 64, 0
2, 59772, Note_on_c, 0, 68, 52
2, 59774, Note_on_c, 0, 65, 45
2, 59775, Note_off_c, 0, 37, 64
2, 59776, Note_on_c, 0, 53, 49
2, 59799, Note_off_c, 0, 66, 64
2, 59799, Note_off_c, 0, 69, 64
2, 59803, Note_off_c, 0, 61, 64
2, 59813, Control_c, 0, 64, 127
2, 59813, Control_c, 0, 64, 127
2, 59944, Note_off_c, 0, 68, 64
2, 59946, Note_off_c, 0, 65, 64
2, 59947, Note_on_c, 0, 44, 52
2, 59948, Note_off_c, 0, 53, 64
2, 60100, Control_c, 0, 64, 0
2, 60100, Control_c, 0, 64, 0
2, 60112, Note_off_c, 0, 44, 64
2, 60117, Note_on_c, 0, 56, 94
2, 60122, Note_on_c, 0, 65, 94
2, 60124, Note_on_c, 0, 37, 94
2, 60124, Note_on_c, 0, 25, 94
2, 60159, Control_c, 0, 64, 127
2, 60159, Control_c, 0, 64, 127
2, 60215, Note_off_c, 0, 56, 64
2, 60220, Note_off_c, 0, 65, 64
2, 60258, Note_on_c, 0, 70, 94
2, 60264, Note_on_c, 0, 66, 86
2, 60267, Note_on_c, 0, 61, 94
2, 60295, Control_c, 0, 64, 0
2, 60295, Control_c, 0, 64, 0
2, 60304, Note_on_c, 0, 68, 86
2, 60304, Note_on_c, 0, 65, 93
2, 60313, Note_on_c, 0, 53, 93
2, 60319, Note_off_c, 0, 25, 64
2, 60319, Note_off_c, 0, 37, 64
2, 60329, Note_off_c, 0, 70, 64
2, 60335, Note_off_c, 0, 66, 64
2, 60338, Note_off_c, 0, 61, 64
2, 60352, Control_c, 0, 64, 127
2, 60352, Control_c, 0, 64, 127
2, 60500, Note_off_c, 0, 53, 64
2, 60507, Note_off_c, 0, 65, 64
2, 60509, Note_off_c, 0, 68, 64
2, 60512, Note_on_c, 0, 44, 76
2, 60657, Note_off_c, 0, 44, 64
2, 60680, Note_on_c, 0, 37, 43
2, 60681, Note_on_c, 0, 56, 36
2, 60683, Note_on_c, 0, 65, 39
2, 60686, Control_c, 0, 64, 0
2, 60686, Control_c, 0, 64, 0
2, 60712, Control_c, 0, 64, 127
2, 60712, Control_c, 0, 64, 127
2, 60779, Note_off_c, 0, 56, 64
2, 60781, Note_off_c, 0, 65, 64
2, 60820, Note_on_c, 0, 69, 50
2, 60820, Note_on_c, 0, 66, 46
2, 60820, Note_on_c, 0, 61, 54
2, 60866, Control_c, 0, 64, 0
2, 60866, Control_c, 0, 64, 0
2, 60872, Note_on_c, 0, 68, 42
2, 60872, Note_on_c, 0, 65, 45
2, 60875, Note_off_c, 0, 37, 64
2, 60880, Note_on_c, 0, 53, 46
2, 60891, Note_off_c, 0, 61, 64
2, 60891, Note_off_c, 0, 66, 64
2, 60891, Note_off_c, 0, 69, 64
2, 60903, Control_c, 0, 64, 127
2, 60903, Control_c, 0, 64, 127
2, 61029, Note_off_c, 0, 65, 64
2, 61029, Note_off_c, 0, 68, 64
2, 61037, Note_off_c, 0, 53, 64
2, 61052, Note_on_c, 0, 44, 42
2, 61209, Note_off_c, 0, 44, 64
2, 61234, Note_on_c, 0, 32, 72
2, 61236, Note_on_c, 0, 70, 92
2, 61239, Note_on_c, 0, 66, 89
2, 61239, Control_c, 0, 64, 0
2, 61239, Control_c, 0, 64, 0
2, 61263, Control_c, 0, 64, 127
2, 61263, Control_c, 0, 64, 127
2, 61334, Note_off_c, 0, 70, 64
2, 61337, Note_off_c, 0, 66, 64
2, 61349, Note_on_c, 0, 68, 78
2, 61355, Note_on_c, 0, 72, 56
2, 61360, Note_on_c, 0, 60, 61
2, 61394, Note_on_c, 0, 54, 68
2, 61396, Note_on_c, 0, 70, 78
2, 61402, Note_on_c, 0, 73, 80
2, 61420, Note_off_c, 0, 68, 64
2, 61422, Control_c, 0, 64, 0
2, 61422, Control_c, 0, 64, 0
2, 61425, Note_off_c, 0, 32, 64
2, 61426, Note_off_c, 0, 72, 64
2, 61431, Note_off_c, 0, 60, 64
2, 61445, Control_c, 0, 64, 127
2, 61445, Control_c, 0, 64, 127
2, 61548, Note_off_c, 0, 54, 64
2, 61550, Note_off_c, 0, 70, 64
2, 61556, Note_off_c, 0, 73, 64
2, 61582, Note_on_c, 0, 75, 76
2, 61582, Note_on_c, 0, 72, 76
2, 61596, Note_on_c, 0, 44, 63
2, 61736, Note_off_c, 0, 72, 64
2, 61736, Note_off_c, 0, 75, 64
2, 61750, Note_off_c, 0, 44, 64
2, 61756, Control_c, 0, 64, 0
2, 61756, Control_c, 0, 64, 0
2, 61762, Note_on_c, 0, 37, 63
2, 61766, Note_on_c, 0, 77, 70
2, 61766, Note_on_c, 0, 73, 83
2, 61794, Control_c, 0, 64, 127
2, 61794, Control_c, 0, 64, 127
2, 61864, Note_off_c, 0, 73, 64
2, 61864, Note_off_c, 0, 77, 64
2, 61880, Note_on_c, 0, 78, 63
2, 61880, Note_on_c, 0, 75, 77
2, 61884, Note_on_c, 0, 61, 78
2, 61938, Note_on_c, 0, 53, 71
2, 61939, Note_on_c, 0, 79, 78
2, 61940, Note_on_c, 0, 76, 75
2, 61949, Control_c, 0, 64, 0
2, 61949, Control_c, 0, 64, 0
2, 61951, Note_off_c, 0, 75, 64
2, 61951, Note_off_c, 0, 78, 64
2, 61955, Note_off_c, 0, 61, 64
2, 61957, Note_off_c, 0, 37, 64
2, 61960, Control_c, 0, 64, 127
2, 61960, Control_c, 0, 64, 127
2, 62095, Note_off_c, 0, 53, 64
2, 62096, Note_off_c, 0, 79, 64
2, 62097, Note_off_c, 0, 76, 64
2, 62112, Note_on_c, 0, 77, 81
2, 62113, Note_on_c, 0, 80, 84
2, 62118, Note_on_c, 0, 44, 67
2, 62269, Note_off_c, 0, 77, 64
2, 62270, Note_off_c, 0, 80, 64
2, 62275, Note_off_c, 0, 44, 64
2, 62287, Note_on_c, 0, 80, 94
2, 62288, Note_on_c, 0, 84, 94
2, 62292, Control_c, 0, 64, 0
2, 62292, Control_c, 0, 64, 0
2, 62296, Note_on_c, 0, 32, 86
2, 62324, Control_c, 0, 64, 127
2, 62324, Control_c, 0, 64, 127
2, 62385, Note_off_c, 0, 80, 64
2, 62386, Note_off_c, 0, 84, 64
2, 62388, Note_on_c, 0, 78, 84
2, 62391, Note_on_c, 0, 82, 94
2, 62392, Note_on_c, 0, 60, 57
2, 62432, Note_on_c, 0, 84, 94
2, 62439, Note_off_c, 0, 82, 64
2, 62445, Note_off_c, 0, 78, 64
2, 62463, Note_off_c, 0, 60, 64
2, 62464, Note_on_c, 0, 82, 86
2, 62472, Note_off_c, 0, 84, 64
2, 62482, Control_c, 0, 64, 0
2, 62482, Control_c, 0, 64, 0
2, 62492, Note_on_c, 0, 77, 86
2, 62493, Note_off_c, 0, 32, 64
2, 62496, Note_on_c, 0, 80, 83
2, 62500, Note_on_c, 0, 54, 76
2, 62505, Control_c, 0, 64, 127
2, 62505, Control_c, 0, 64, 127
2, 62525, Note_off_c, 0, 82, 64
2, 62654, Note_off_c, 0, 77, 64
2, 62658, Note_off_c, 0, 80, 64
2, 62662, Note_off_c, 0, 54, 64
2, 62664, Note_on_c, 0, 78, 83
2, 62664, Note_on_c, 0, 75, 87
2, 62672, Note_on_c, 0, 44, 71
2, 62826, Note_off_c, 0, 75, 64
2, 62826, Note_off_c, 0, 78, 64
2, 62834, Note_off_c, 0, 44, 64
2, 62846, Note_on_c, 0, 77, 83
2, 62846, Note_on_c, 0, 73, 87
2, 62855, Note_on_c, 0, 37, 94
2, 62870, Control_c, 0, 64, 0
2, 62870, Control_c, 0, 64, 0
2, 62904, Control_c, 0, 64, 127
2, 62904, Control_c, 0, 64, 127
2, 62944, Note_off_c, 0, 73, 64
2, 62944, Note_off_c, 0, 77, 64
2, 62965, Note_on_c, 0, 75, 76
2, 62971, Note_on_c, 0, 68, 75
2, 62974, Note_on_c, 0, 61, 79
2, 63012, Note_on_c, 0, 73, 94
2, 63019, Note_on_c, 0, 65, 94
2, 63026, Note_on_c, 0, 53, 76
2, 63030, Control_c, 0, 64, 0
2, 63030, Control_c, 0, 64, 0
2, 63036, Note_off_c, 0, 75, 64
2, 63042, Note_off_c, 0, 68, 64
2, 63045, Note_off_c, 0, 61, 64
2, 63052, Note_off_c, 0, 37, 64
2, 63063, Control_c, 0, 64, 127
2, 63063, Control_c, 0, 64, 127
2, 63209, Note_on_c, 0, 44, 71
2, 63225, Note_off_c, 0, 73, 64
2, 63239, Note_off_c, 0, 53, 64
2, 63249, Note_off_c, 0, 65, 64
2, 63360, Note_off_c, 0, 44, 64
2, 63367, Control_c, 0, 64, 0
2, 63367, Control_c, 0, 64, 0
2, 63381, Note_on_c, 0, 32, 47
2, 63387, Note_on_c, 0, 69, 53
2, 63389, Note_on_c, 0, 66, 52
2, 63420, Control_c, 0, 64, 127
2, 63420, Control_c, 0, 64, 127
2, 63468, Note_on_c, 0, 60, 46
2, 63476, Note_on_c, 0, 72, 49
2, 63480, Note_on_c, 0, 68, 52
2, 63485, Note_off_c, 0, 69, 64
2, 63487, Note_off_c, 0, 66, 64
2, 63540, Note_on_c, 0, 54, 38
2, 63547, Note_on_c, 0, 73, 58
2, 63556, Note_on_c, 0, 69, 50
2, 63559, Control_c, 0, 64, 0
2, 63559, Control_c, 0, 64, 0
2, 63566, Note_off_c, 0, 60, 64
2, 63574, Note_off_c, 0, 72, 64
2, 63578, Note_off_c, 0, 68, 64
2, 63578, Note_off_c, 0, 32, 64
2, 63579, Control_c, 0, 64, 127
2, 63579, Control_c, 0, 64, 127
2, 63698, Note_off_c, 0, 54, 64
2, 63705, Note_off_c, 0, 73, 64
2, 63714, Note_off_c, 0, 69, 64
2, 63736, Note_on_c, 0, 75, 61
2, 63740, Note_on_c, 0, 72, 52
2, 63746, Note_on_c, 0, 44, 46
2, 63894, Note_off_c, 0, 75, 64
2, 63898, Note_off_c, 0, 72, 64
2, 63899, Control_c, 0, 64, 0
2, 63899, Control_c, 0, 64, 0
2, 63904, Note_off_c, 0, 44, 64
2, 63912, Note_on_c, 0, 37, 53
2, 63916, Note_on_c, 0, 76, 53
2, 63919, Note_on_c, 0, 73, 53
2, 63936, Control_c, 0, 64, 127
2, 63936, Control_c, 0, 64, 127
2, 64000, Note_on_c, 0, 75, 38
2, 64003, Note_on_c, 0, 79, 58
2, 64003, Note_on_c, 0, 61, 64
2, 64014, Note_off_c, 0, 76, 64
2, 64017, Note_off_c, 0, 73, 64
2, 64076, Note_on_c, 0, 80, 49
2, 64077, Note_on_c, 0, 52, 52
2, 64084, Note_on_c, 0, 76, 56
2, 64084, Control_c, 0, 64, 0
2, 64084, Control_c, 0, 64, 0
2, 64098, Note_off_c, 0, 75, 64
2, 64101, Note_off_c, 0, 61, 64
2, 64101, Note_off_c, 0, 79, 64
2, 64103, Note_off_c, 0, 37, 64
2, 64106, Control_c, 0, 64, 127
2, 64106, Control_c, 0, 64, 127
2, 64230, Note_off_c, 0, 80, 64
2, 64231, Note_off_c, 0, 52, 64
2, 64238, Note_off_c, 0, 76, 64
2, 64258, Note_on_c, 0, 81, 53
2, 64260, Note_on_c, 0, 78, 60
2, 64263, Note_on_c, 0, 44, 46
2, 64412, Note_off_c, 0, 81, 64
2, 64414, Note_off_c, 0, 78, 64
2, 64417, Note_off_c, 0, 44, 64
2, 64433, Note_on_c, 0, 80, 53
2, 64436, Note_on_c, 0, 84, 53
2, 64436, Note_on_c, 0, 32, 49
2, 64441, Control_c, 0, 64, 0
2, 64441, Control_c, 0, 64, 0
2, 64463, Control_c, 0, 64, 127
2, 64463, Control_c, 0, 64, 127
2, 64531, Note_off_c, 0, 80, 64
2, 64531, Note_on_c, 0, 81, 53
2, 64532, Note_on_c, 0, 78, 57
2, 64532, Note_on_c, 0, 60, 38
2, 64534, Note_off_c, 0, 84, 64
2, 64562, Note_on_c, 0, 83, 46
2, 64566, Note_off_c, 0, 81, 64
2, 64591, Note_off_c, 0, 78, 64
2, 64594, Note_on_c, 0, 81, 53
2, 64603, Note_off_c, 0, 60, 64
2, 64620, Note_off_c, 0, 83, 64
2, 64628, Note_on_c, 0, 76, 52
2, 64629, Note_off_c, 0, 32, 64
2, 64629, Note_on_c, 0, 80, 60
2, 64632, Note_on_c, 0, 54, 30
2, 64633, Control_c, 0, 64, 0
2, 64633, Control_c, 0, 64, 0
2, 64644, Note_off_c, 0, 81, 64
2, 64654, Control_c, 0, 64, 127
2, 64654, Control_c, 0, 64, 127
2, 64788, Note_on_c, 0, 78, 54
2, 64790, Note_off_c, 0, 76, 64
2, 64790, Note_on_c, 0, 75, 58
2, 64791, Note_off_c, 0, 80, 64
2, 64794, Note_off_c, 0, 54, 64
2, 64794, Note_on_c, 0, 44, 43
2, 64950, Note_off_c, 0, 78, 64
2, 64952, Note_off_c, 0, 75, 64
2, 64956, Note_off_c, 0, 44, 64
2, 64961, Note_on_c, 0, 37, 53
2, 64963, Note_on_c, 0, 73, 52
2, 64964, Note_on_c, 0, 76, 49
2, 64971, Control_c, 0, 64, 0
2, 64971, Control_c, 0, 64, 0
2, 65006, Control_c, 0, 64, 127
2, 65006, Control_c, 0, 64, 127
2, 65060, Note_on_c, 0, 75, 31
2, 65060, Note_on_c, 0, 61, 60
2, 65061, Note_off_c, 0, 73, 64
2, 65062, Note_off_c, 0, 76, 64
2, 65064, Note_on_c, 0, 68, 36
2, 65127, Note_on_c, 0, 73, 52
2, 65131, Note_on_c, 0, 64, 45
2, 65137, Control_c, 0, 64, 0
2, 65137, Control_c, 0, 64, 0
2, 65151, Note_on_c, 0, 52, 50
2, 65156, Note_off_c, 0, 37, 64
2, 65158, Note_off_c, 0, 61, 64
2, 65158, Note_off_c, 0, 75, 64
2, 65162, Note_off_c, 0, 68, 64
2, 65190, Control_c, 0, 64, 127
2, 65190, Control_c, 0, 64, 127
2, 65326, Note_off_c, 0, 52, 64
2, 65333, Note_on_c, 0, 44, 58
2, 65344, Note_off_c, 0, 73, 64
2, 65348, Note_off_c, 0, 64, 64
2, 65490, Note_off_c, 0, 44, 64
2, 65559, Note_on_c, 0, 56, 83
2, 65560, Note_on_c, 0, 65, 83
2, 65562, Note_on_c, 0, 49, 83
2, 65608, Control_c, 0, 64, 0
2, 65608, Control_c, 0, 64, 0
2, 65968, Control_c, 0, 64, 127
2, 65968, Control_c, 0, 64, 127
2, 67437, Note_off_c, 0, 49, 64
2, 67437, Note_off_c, 0, 65, 64
2, 67449, Note_off_c, 0, 56, 64
2, 67490, Control_c, 0, 64, 0
2, 67490, Control_c, 0, 64, 0
2, 67490, End_track
3, 0, Start_track
3, 0, Title_t, "Played by Dr. Ron Lubetsky"
3, 0, End_track
4, 0, Start_track
4, 0, Title_t, "Feb. 8, 1998"
4, 0, End_track
5, 0, Start_track
5, 0, Title_t, "email: acuity2020@aol.com"
5, 0, End_track
6, 0, Start_track
6, 0, Title_t, "Copyright  1998"
6, 0, End_track
7, 0, Start_track
7, 0, Title_t, "All Rights Reserved"
7, 0, End_track
0, 0, End_of_file
