0, 0, Header, 1, 7, 240
1, 0, Start_track
1, 0, Time_signature, 4, 2, 24, 8
1, 0, Tempo, 500000
1, 0, Marker_t, "Chopin: Mazurka, Op. 41 No. 3- Animato"
1, 0, End_track
2, 0, Start_track
2, 0, Title_t, "Chopin: Op. 41 No. 3"
2, 0, Program_c, 0, 0
2, 0, Control_c, 0, 7, 127
2, 117, Note_on_c, 0, 35, 59
2, 120, Note_on_c, 0, 47, 49
2, 121, Note_on_c, 0, 54, 54
2, 124, Note_on_c, 0, 61, 59
2, 127, Note_on_c, 0, 64, 52
2, 137, Control_c, 0, 64, 127
2, 160, Note_off_c, 0, 35, 64
2, 162, Note_off_c, 0, 47, 64
2, 176, Note_on_c, 0, 59, 40
2, 177, Note_on_c, 0, 63, 51
2, 193, Note_off_c, 0, 64, 64
2, 204, Note_off_c, 0, 54, 64
2, 207, Note_off_c, 0, 61, 64
2, 214, Note_off_c, 0, 59, 64
2, 222, Note_off_c, 0, 63, 64
2, 252, Control_c, 0, 64, 0
2, 256, Note_on_c, 0, 63, 52
2, 258, Note_on_c, 0, 35, 56
2, 259, Note_on_c, 0, 59, 51
2, 259, Note_on_c, 0, 54, 48
2, 259, Note_on_c, 0, 47, 47
2, 289, Control_c, 0, 64, 127
2, 346, Note_off_c, 0, 35, 64
2, 353, Note_off_c, 0, 47, 64
2, 380, Note_off_c, 0, 59, 64
2, 380, Note_off_c, 0, 63, 64
2, 386, Note_off_c, 0, 54, 64
2, 524, Note_on_c, 0, 35, 52
2, 525, Note_on_c, 0, 61, 50
2, 525, Note_on_c, 0, 54, 48
2, 526, Note_on_c, 0, 64, 49
2, 528, Note_on_c, 0, 47, 55
2, 564, Note_off_c, 0, 35, 64
2, 572, Note_off_c, 0, 47, 64
2, 581, Control_c, 0, 64, 127
2, 584, Note_on_c, 0, 63, 48
2, 584, Note_on_c, 0, 59, 48
2, 602, Note_off_c, 0, 54, 64
2, 606, Note_off_c, 0, 64, 64
2, 608, Note_off_c, 0, 61, 64
2, 619, Note_off_c, 0, 59, 64
2, 631, Note_off_c, 0, 63, 64
2, 640, Note_on_c, 0, 47, 52
2, 640, Note_on_c, 0, 35, 46
2, 644, Note_on_c, 0, 54, 54
2, 646, Note_on_c, 0, 63, 51
2, 647, Note_on_c, 0, 59, 55
2, 668, Control_c, 0, 64, 0
2, 696, Control_c, 0, 64, 0
2, 723, Control_c, 0, 64, 127
2, 733, Control_c, 0, 64, 127
2, 760, Note_off_c, 0, 47, 64
2, 768, Note_off_c, 0, 35, 64
2, 798, Note_off_c, 0, 59, 64
2, 811, Note_off_c, 0, 63, 64
2, 812, Note_off_c, 0, 54, 64
2, 924, Note_on_c, 0, 61, 46
2, 926, Note_on_c, 0, 64, 51
2, 928, Note_on_c, 0, 47, 52
2, 929, Note_on_c, 0, 54, 49
2, 933, Note_on_c, 0, 35, 49
2, 970, Note_on_c, 0, 63, 33
2, 970, Note_on_c, 0, 59, 54
2, 980, Note_off_c, 0, 47, 64
2, 985, Note_off_c, 0, 35, 64
2, 991, Note_off_c, 0, 64, 64
2, 1008, Note_off_c, 0, 54, 64
2, 1009, Note_off_c, 0, 61, 64
2, 1013, Note_off_c, 0, 59, 64
2, 1021, Note_off_c, 0, 63, 64
2, 1048, Control_c, 0, 64, 0
2, 1054, Note_on_c, 0, 63, 49
2, 1054, Note_on_c, 0, 54, 50
2, 1056, Note_on_c, 0, 59, 50
2, 1063, Note_on_c, 0, 47, 46
2, 1063, Note_on_c, 0, 35, 42
2, 1089, Control_c, 0, 64, 127
2, 1112, Control_c, 0, 64, 0
2, 1167, Control_c, 0, 64, 127
2, 1182, Note_off_c, 0, 35, 64
2, 1196, Note_off_c, 0, 47, 64
2, 1196, Note_off_c, 0, 59, 64
2, 1204, Note_off_c, 0, 63, 64
2, 1205, Note_off_c, 0, 54, 64
2, 1328, Control_c, 0, 64, 0
2, 1340, Note_on_c, 0, 61, 41
2, 1340, Note_on_c, 0, 35, 42
2, 1341, Note_on_c, 0, 47, 41
2, 1342, Note_on_c, 0, 64, 43
2, 1342, Note_on_c, 0, 54, 40
2, 1359, Control_c, 0, 64, 127
2, 1391, Note_on_c, 0, 63, 44
2, 1392, Note_on_c, 0, 59, 42
2, 1402, Note_off_c, 0, 35, 64
2, 1403, Note_off_c, 0, 47, 64
2, 1404, Note_off_c, 0, 64, 64
2, 1417, Note_off_c, 0, 54, 64
2, 1431, Note_off_c, 0, 61, 64
2, 1434, Note_off_c, 0, 59, 64
2, 1440, Note_off_c, 0, 63, 64
2, 1460, Note_on_c, 0, 63, 47
2, 1460, Note_on_c, 0, 59, 50
2, 1460, Note_on_c, 0, 54, 50
2, 1460, Note_on_c, 0, 35, 41
2, 1464, Note_on_c, 0, 47, 47
2, 1469, Control_c, 0, 64, 0
2, 1492, Control_c, 0, 64, 0
2, 1503, Control_c, 0, 64, 127
2, 1533, Control_c, 0, 64, 127
2, 1720, Note_off_c, 0, 35, 64
2, 1734, Control_c, 0, 64, 0
2, 1740, Note_on_c, 0, 35, 102
2, 1767, Control_c, 0, 64, 127
2, 1772, Control_c, 0, 64, 0
2, 1783, Note_off_c, 0, 54, 64
2, 1783, Note_off_c, 0, 59, 64
2, 1783, Note_off_c, 0, 63, 64
2, 1787, Note_off_c, 0, 47, 64
2, 1803, Note_off_c, 0, 35, 64
2, 1803, Control_c, 0, 64, 127
2, 1892, Note_on_c, 0, 49, 41
2, 1892, Note_on_c, 0, 61, 43
2, 1913, Control_c, 0, 64, 0
2, 1938, Control_c, 0, 64, 0
2, 1947, Control_c, 0, 64, 127
2, 1952, Note_on_c, 0, 47, 48
2, 1953, Note_on_c, 0, 59, 47
2, 1963, Note_off_c, 0, 61, 64
2, 1967, Note_off_c, 0, 49, 64
2, 2004, Note_on_c, 0, 52, 46
2, 2009, Note_on_c, 0, 64, 39
2, 2049, Note_off_c, 0, 59, 64
2, 2051, Note_off_c, 0, 47, 64
2, 2060, Note_on_c, 0, 66, 43
2, 2062, Note_on_c, 0, 54, 55
2, 2083, Note_off_c, 0, 52, 64
2, 2088, Note_off_c, 0, 64, 64
2, 2121, Note_on_c, 0, 68, 56
2, 2127, Note_on_c, 0, 56, 59
2, 2135, Note_off_c, 0, 66, 64
2, 2137, Note_off_c, 0, 54, 64
2, 2178, Control_c, 0, 64, 0
2, 2180, Note_on_c, 0, 51, 48
2, 2187, Note_on_c, 0, 63, 48
2, 2210, Note_off_c, 0, 68, 64
2, 2211, Control_c, 0, 64, 127
2, 2216, Note_off_c, 0, 56, 64
2, 2244, Note_on_c, 0, 64, 41
2, 2244, Note_on_c, 0, 52, 50
2, 2253, Note_off_c, 0, 51, 64
2, 2260, Note_off_c, 0, 63, 64
2, 2296, Note_on_c, 0, 56, 62
2, 2300, Note_on_c, 0, 68, 50
2, 2309, Note_off_c, 0, 52, 64
2, 2309, Note_off_c, 0, 64, 64
2, 2344, Note_on_c, 0, 71, 43
2, 2344, Note_on_c, 0, 59, 64
2, 2367, Note_off_c, 0, 56, 64
2, 2371, Note_off_c, 0, 68, 64
2, 2382, Control_c, 0, 64, 0
2, 2399, Note_on_c, 0, 61, 67
2, 2400, Note_on_c, 0, 73, 55
2, 2416, Note_off_c, 0, 71, 64
2, 2426, Note_off_c, 0, 59, 64
2, 2448, Note_on_c, 0, 75, 74
2, 2451, Note_on_c, 0, 63, 78
2, 2468, Note_off_c, 0, 61, 64
2, 2469, Note_off_c, 0, 73, 64
2, 2480, Note_off_c, 0, 75, 64
2, 2514, Note_on_c, 0, 70, 58
2, 2516, Note_off_c, 0, 63, 64
2, 2562, Note_on_c, 0, 71, 44
2, 2565, Note_on_c, 0, 49, 65
2, 2588, Note_off_c, 0, 70, 64
2, 2605, Note_on_c, 0, 73, 59
2, 2631, Note_off_c, 0, 71, 64
2, 2657, Note_on_c, 0, 71, 54
2, 2680, Note_off_c, 0, 73, 64
2, 2693, Note_on_c, 0, 59, 46
2, 2696, Note_on_c, 0, 70, 71
2, 2697, Note_on_c, 0, 53, 37
2, 2710, Note_off_c, 0, 71, 64
2, 2722, Note_off_c, 0, 49, 64
2, 2730, Note_off_c, 0, 53, 64
2, 2730, Note_off_c, 0, 59, 64
2, 2739, Note_on_c, 0, 68, 70
2, 2746, Note_off_c, 0, 70, 64
2, 2792, Note_on_c, 0, 66, 62
2, 2795, Note_on_c, 0, 42, 62
2, 2803, Note_off_c, 0, 68, 64
2, 2853, Note_on_c, 0, 61, 67
2, 2880, Note_off_c, 0, 66, 64
2, 2896, Note_on_c, 0, 58, 58
2, 2896, Note_on_c, 0, 52, 48
2, 2899, Note_on_c, 0, 63, 64
2, 2915, Note_off_c, 0, 61, 64
2, 2946, Note_off_c, 0, 52, 64
2, 2946, Note_off_c, 0, 58, 64
2, 2958, Note_on_c, 0, 64, 49
2, 2972, Note_off_c, 0, 63, 64
2, 2998, Control_c, 0, 64, 127
2, 3004, Note_on_c, 0, 68, 57
2, 3004, Note_on_c, 0, 58, 40
2, 3004, Note_on_c, 0, 52, 41
2, 3034, Note_off_c, 0, 64, 64
2, 3034, Note_off_c, 0, 42, 64
2, 3054, Note_off_c, 0, 52, 64
2, 3054, Note_off_c, 0, 58, 64
2, 3056, Note_on_c, 0, 66, 49
2, 3068, Note_off_c, 0, 68, 64
2, 3105, Control_c, 0, 64, 0
2, 3113, Note_off_c, 0, 66, 64
2, 3138, Control_c, 0, 64, 127
2, 3140, Note_on_c, 0, 54, 67
2, 3140, Note_on_c, 0, 47, 58
2, 3144, Note_on_c, 0, 64, 65
2, 3144, Note_on_c, 0, 61, 62
2, 3144, Note_on_c, 0, 35, 63
2, 3179, Note_off_c, 0, 47, 64
2, 3180, Note_off_c, 0, 35, 64
2, 3193, Note_off_c, 0, 54, 64
2, 3200, Note_on_c, 0, 59, 50
2, 3201, Note_on_c, 0, 63, 48
2, 3207, Note_off_c, 0, 64, 64
2, 3220, Note_off_c, 0, 61, 64
2, 3236, Note_off_c, 0, 63, 64
2, 3237, Note_off_c, 0, 59, 64
2, 3245, Control_c, 0, 64, 0
2, 3257, Note_on_c, 0, 63, 60
2, 3262, Note_on_c, 0, 59, 60
2, 3262, Note_on_c, 0, 35, 57
2, 3263, Note_on_c, 0, 54, 60
2, 3267, Note_on_c, 0, 47, 58
2, 3292, Control_c, 0, 64, 127
2, 3366, Note_off_c, 0, 35, 64
2, 3372, Note_off_c, 0, 47, 64
2, 3381, Note_off_c, 0, 63, 64
2, 3384, Note_off_c, 0, 59, 64
2, 3388, Note_off_c, 0, 54, 64
2, 3442, Control_c, 0, 64, 127
2, 3528, Note_on_c, 0, 54, 43
2, 3530, Note_on_c, 0, 61, 49
2, 3532, Note_on_c, 0, 64, 52
2, 3536, Note_on_c, 0, 47, 58
2, 3536, Note_on_c, 0, 35, 55
2, 3549, Control_c, 0, 64, 0
2, 3572, Note_on_c, 0, 59, 48
2, 3573, Note_off_c, 0, 35, 64
2, 3574, Note_on_c, 0, 63, 52
2, 3577, Note_off_c, 0, 47, 64
2, 3582, Control_c, 0, 64, 127
2, 3591, Note_off_c, 0, 61, 64
2, 3593, Note_off_c, 0, 64, 64
2, 3607, Note_off_c, 0, 54, 64
2, 3622, Note_off_c, 0, 59, 64
2, 3624, Note_off_c, 0, 63, 64
2, 3648, Note_on_c, 0, 47, 57
2, 3652, Note_on_c, 0, 35, 54
2, 3653, Note_on_c, 0, 54, 55
2, 3655, Note_on_c, 0, 63, 58
2, 3655, Note_on_c, 0, 59, 57
2, 3671, Control_c, 0, 64, 0
2, 3689, Control_c, 0, 64, 0
2, 3720, Control_c, 0, 64, 127
2, 3736, Control_c, 0, 64, 127
2, 3754, Note_off_c, 0, 35, 64
2, 3761, Note_off_c, 0, 47, 64
2, 3793, Note_off_c, 0, 59, 64
2, 3797, Note_off_c, 0, 63, 64
2, 3819, Note_off_c, 0, 54, 64
2, 3913, Control_c, 0, 64, 0
2, 3932, Note_on_c, 0, 35, 51
2, 3933, Note_on_c, 0, 54, 48
2, 3936, Note_on_c, 0, 64, 51
2, 3936, Note_on_c, 0, 61, 46
2, 3936, Note_on_c, 0, 47, 55
2, 3956, Control_c, 0, 64, 127
2, 3974, Note_off_c, 0, 35, 64
2, 3981, Note_off_c, 0, 47, 64
2, 3984, Note_on_c, 0, 63, 48
2, 3984, Note_on_c, 0, 59, 47
2, 3997, Note_off_c, 0, 64, 64
2, 4015, Note_off_c, 0, 54, 64
2, 4016, Note_off_c, 0, 61, 64
2, 4024, Note_off_c, 0, 59, 64
2, 4039, Note_off_c, 0, 63, 64
2, 4058, Note_on_c, 0, 59, 50
2, 4058, Note_on_c, 0, 54, 50
2, 4059, Note_on_c, 0, 63, 50
2, 4060, Note_on_c, 0, 47, 51
2, 4060, Note_on_c, 0, 35, 49
2, 4078, Control_c, 0, 64, 0
2, 4115, Control_c, 0, 64, 0
2, 4116, Control_c, 0, 64, 127
2, 4155, Note_off_c, 0, 35, 64
2, 4164, Control_c, 0, 64, 127
2, 4172, Note_off_c, 0, 47, 64
2, 4182, Note_off_c, 0, 63, 64
2, 4185, Note_off_c, 0, 54, 64
2, 4189, Note_off_c, 0, 59, 64
2, 4338, Control_c, 0, 64, 0
2, 4344, Note_on_c, 0, 64, 49
2, 4344, Note_on_c, 0, 61, 44
2, 4344, Note_on_c, 0, 54, 43
2, 4344, Note_on_c, 0, 47, 49
2, 4344, Note_on_c, 0, 35, 43
2, 4357, Control_c, 0, 64, 0
2, 4369, Control_c, 0, 64, 127
2, 4392, Note_on_c, 0, 63, 41
2, 4392, Note_on_c, 0, 59, 39
2, 4396, Note_off_c, 0, 35, 64
2, 4400, Control_c, 0, 64, 127
2, 4404, Note_off_c, 0, 47, 64
2, 4409, Note_off_c, 0, 64, 64
2, 4416, Note_off_c, 0, 54, 64
2, 4424, Note_off_c, 0, 61, 64
2, 4432, Note_off_c, 0, 59, 64
2, 4447, Note_off_c, 0, 63, 64
2, 4452, Note_on_c, 0, 47, 48
2, 4456, Note_on_c, 0, 59, 49
2, 4456, Note_on_c, 0, 54, 48
2, 4456, Note_on_c, 0, 35, 43
2, 4457, Note_on_c, 0, 63, 46
2, 4471, Control_c, 0, 64, 0
2, 4504, Control_c, 0, 64, 127
2, 4522, Control_c, 0, 64, 0
2, 4560, Control_c, 0, 64, 127
2, 4704, Note_off_c, 0, 35, 64
2, 4704, Control_c, 0, 64, 0
2, 4720, Note_off_c, 0, 47, 64
2, 4722, Note_on_c, 0, 35, 102
2, 4724, Note_off_c, 0, 54, 64
2, 4724, Note_off_c, 0, 59, 64
2, 4725, Note_off_c, 0, 63, 64
2, 4743, Control_c, 0, 64, 127
2, 4782, Control_c, 0, 64, 0
2, 4800, Note_off_c, 0, 35, 64
2, 4813, Control_c, 0, 64, 127
2, 4868, Note_on_c, 0, 49, 25
2, 4869, Note_on_c, 0, 61, 46
2, 4903, Control_c, 0, 64, 0
2, 4912, Note_on_c, 0, 59, 51
2, 4912, Note_on_c, 0, 47, 62
2, 4915, Control_c, 0, 64, 0
2, 4935, Note_off_c, 0, 49, 64
2, 4936, Note_off_c, 0, 61, 64
2, 4948, Control_c, 0, 64, 127
2, 4976, Note_on_c, 0, 52, 51
2, 4978, Note_on_c, 0, 64, 25
2, 5006, Note_off_c, 0, 59, 64
2, 5012, Note_off_c, 0, 47, 64
2, 5024, Note_on_c, 0, 54, 64
2, 5026, Note_on_c, 0, 66, 50
2, 5051, Note_off_c, 0, 52, 64
2, 5053, Note_off_c, 0, 64, 64
2, 5086, Note_on_c, 0, 68, 63
2, 5086, Note_on_c, 0, 56, 62
2, 5104, Note_off_c, 0, 54, 64
2, 5106, Note_off_c, 0, 66, 64
2, 5136, Note_on_c, 0, 63, 46
2, 5136, Note_on_c, 0, 51, 54
2, 5148, Control_c, 0, 64, 0
2, 5151, Note_off_c, 0, 56, 64
2, 5151, Note_off_c, 0, 68, 64
2, 5187, Control_c, 0, 64, 127
2, 5192, Note_on_c, 0, 64, 49
2, 5196, Note_on_c, 0, 52, 49
2, 5206, Note_off_c, 0, 51, 64
2, 5206, Note_off_c, 0, 63, 64
2, 5240, Note_on_c, 0, 68, 49
2, 5240, Note_on_c, 0, 56, 49
2, 5263, Note_off_c, 0, 64, 64
2, 5267, Note_off_c, 0, 52, 64
2, 5296, Note_on_c, 0, 71, 39
2, 5300, Note_on_c, 0, 59, 62
2, 5315, Note_off_c, 0, 56, 64
2, 5315, Note_off_c, 0, 68, 64
2, 5347, Control_c, 0, 64, 0
2, 5348, Note_on_c, 0, 73, 39
2, 5348, Note_on_c, 0, 61, 57
2, 5368, Note_off_c, 0, 71, 64
2, 5372, Note_off_c, 0, 59, 64
2, 5396, Note_on_c, 0, 75, 67
2, 5396, Note_on_c, 0, 63, 63
2, 5420, Note_off_c, 0, 61, 64
2, 5420, Note_off_c, 0, 73, 64
2, 5433, Note_off_c, 0, 75, 64
2, 5457, Note_off_c, 0, 63, 64
2, 5482, Note_on_c, 0, 69, 58
2, 5530, Note_on_c, 0, 70, 62
2, 5536, Note_on_c, 0, 46, 64
2, 5551, Note_off_c, 0, 69, 64
2, 5576, Note_on_c, 0, 72, 46
2, 5607, Note_off_c, 0, 70, 64
2, 5616, Note_on_c, 0, 70, 59
2, 5642, Note_off_c, 0, 72, 64
2, 5652, Note_on_c, 0, 68, 67
2, 5652, Note_on_c, 0, 55, 52
2, 5656, Note_on_c, 0, 63, 54
2, 5672, Note_off_c, 0, 70, 64
2, 5695, Note_off_c, 0, 46, 64
2, 5699, Note_off_c, 0, 55, 64
2, 5703, Note_off_c, 0, 63, 64
2, 5711, Note_on_c, 0, 67, 58
2, 5727, Note_off_c, 0, 68, 64
2, 5760, Note_on_c, 0, 46, 81
2, 5763, Note_on_c, 0, 68, 62
2, 5783, Note_off_c, 0, 67, 64
2, 5816, Note_on_c, 0, 64, 58
2, 5849, Note_off_c, 0, 68, 64
2, 5884, Note_on_c, 0, 62, 51
2, 5884, Note_on_c, 0, 56, 55
2, 5885, Note_on_c, 0, 65, 66
2, 5898, Note_off_c, 0, 64, 64
2, 5922, Note_off_c, 0, 56, 64
2, 5922, Note_off_c, 0, 62, 64
2, 5952, Note_on_c, 0, 68, 54
2, 5960, Note_off_c, 0, 65, 64
2, 5999, Note_off_c, 0, 46, 64
2, 6004, Note_on_c, 0, 72, 62
2, 6004, Note_on_c, 0, 62, 49
2, 6004, Note_on_c, 0, 56, 51
2, 6022, Note_off_c, 0, 68, 64
2, 6047, Note_off_c, 0, 56, 64
2, 6047, Note_off_c, 0, 62, 64
2, 6088, Note_on_c, 0, 70, 57
2, 6092, Note_off_c, 0, 72, 64
2, 6136, Note_on_c, 0, 67, 63
2, 6136, Note_on_c, 0, 51, 71
2, 6165, Note_off_c, 0, 70, 64
2, 6263, Note_on_c, 0, 70, 70
2, 6264, Note_off_c, 0, 67, 64
2, 6268, Note_on_c, 0, 55, 52
2, 6270, Note_on_c, 0, 63, 51
2, 6310, Note_on_c, 0, 72, 58
2, 6314, Note_off_c, 0, 55, 64
2, 6316, Note_off_c, 0, 63, 64
2, 6322, Note_off_c, 0, 70, 64
2, 6346, Note_on_c, 0, 70, 58
2, 6369, Note_off_c, 0, 72, 64
2, 6375, Note_off_c, 0, 51, 64
2, 6380, Note_on_c, 0, 63, 50
2, 6380, Note_on_c, 0, 55, 51
2, 6392, Note_on_c, 0, 68, 63
2, 6415, Note_off_c, 0, 70, 64
2, 6416, Note_off_c, 0, 55, 64
2, 6416, Note_off_c, 0, 63, 64
2, 6437, Note_on_c, 0, 67, 64
2, 6457, Note_off_c, 0, 68, 64
2, 6492, Note_on_c, 0, 46, 62
2, 6496, Note_on_c, 0, 68, 71
2, 6510, Note_off_c, 0, 67, 64
2, 6551, Note_on_c, 0, 64, 63
2, 6576, Note_off_c, 0, 68, 64
2, 6604, Note_on_c, 0, 65, 66
2, 6604, Note_on_c, 0, 62, 56
2, 6605, Note_on_c, 0, 56, 58
2, 6626, Note_off_c, 0, 64, 64
2, 6643, Note_off_c, 0, 62, 64
2, 6644, Note_off_c, 0, 56, 64
2, 6677, Note_on_c, 0, 68, 54
2, 6694, Note_off_c, 0, 65, 64
2, 6728, Note_on_c, 0, 56, 58
2, 6731, Note_off_c, 0, 46, 64
2, 6732, Note_on_c, 0, 72, 55
2, 6732, Note_on_c, 0, 62, 58
2, 6747, Note_off_c, 0, 68, 64
2, 6776, Note_on_c, 0, 70, 49
2, 6781, Note_off_c, 0, 56, 64
2, 6785, Note_off_c, 0, 62, 64
2, 6798, Note_off_c, 0, 72, 64
2, 6837, Note_on_c, 0, 51, 60
2, 6840, Note_on_c, 0, 67, 60
2, 6860, Note_off_c, 0, 70, 64
2, 6968, Note_on_c, 0, 55, 50
2, 6972, Note_on_c, 0, 70, 48
2, 6972, Note_on_c, 0, 63, 52
2, 6996, Note_off_c, 0, 67, 64
2, 7002, Note_off_c, 0, 51, 64
2, 7004, Note_on_c, 0, 72, 58
2, 7014, Note_off_c, 0, 70, 64
2, 7022, Note_off_c, 0, 55, 64
2, 7026, Note_off_c, 0, 63, 64
2, 7042, Note_on_c, 0, 70, 51
2, 7058, Note_off_c, 0, 72, 64
2, 7095, Note_on_c, 0, 68, 59
2, 7114, Note_off_c, 0, 70, 64
2, 7145, Note_on_c, 0, 67, 56
2, 7173, Note_off_c, 0, 68, 64
2, 7196, Note_on_c, 0, 42, 55
2, 7200, Note_on_c, 0, 66, 55
2, 7237, Note_off_c, 0, 67, 64
2, 7252, Note_on_c, 0, 61, 56
2, 7274, Note_off_c, 0, 66, 64
2, 7312, Note_on_c, 0, 63, 55
2, 7312, Note_on_c, 0, 52, 46
2, 7314, Note_on_c, 0, 58, 50
2, 7315, Control_c, 0, 64, 127
2, 7335, Note_off_c, 0, 61, 64
2, 7361, Note_off_c, 0, 58, 64
2, 7366, Note_off_c, 0, 52, 64
2, 7372, Note_on_c, 0, 64, 42
2, 7389, Note_off_c, 0, 63, 64
2, 7416, Note_on_c, 0, 68, 49
2, 7416, Note_on_c, 0, 58, 50
2, 7420, Note_off_c, 0, 64, 64
2, 7420, Note_on_c, 0, 52, 58
2, 7435, Note_off_c, 0, 42, 64
2, 7464, Note_off_c, 0, 58, 64
2, 7467, Note_off_c, 0, 52, 64
2, 7476, Note_on_c, 0, 66, 48
2, 7479, Note_off_c, 0, 68, 64
2, 7517, Note_off_c, 0, 66, 64
2, 7531, Control_c, 0, 64, 0
2, 7538, Note_on_c, 0, 47, 58
2, 7538, Note_on_c, 0, 35, 62
2, 7542, Note_on_c, 0, 64, 63
2, 7542, Note_on_c, 0, 54, 70
2, 7543, Note_on_c, 0, 61, 67
2, 7574, Note_off_c, 0, 47, 64
2, 7577, Note_off_c, 0, 35, 64
2, 7586, Note_on_c, 0, 59, 63
2, 7593, Note_on_c, 0, 63, 57
2, 7608, Note_off_c, 0, 64, 64
2, 7618, Note_off_c, 0, 54, 64
2, 7622, Note_off_c, 0, 61, 64
2, 7635, Note_off_c, 0, 59, 64
2, 7635, Control_c, 0, 64, 0
2, 7642, Note_off_c, 0, 63, 64
2, 7658, Note_on_c, 0, 35, 58
2, 7662, Note_on_c, 0, 47, 60
2, 7664, Note_on_c, 0, 54, 63
2, 7664, Note_on_c, 0, 59, 63
2, 7670, Note_on_c, 0, 63, 63
2, 7685, Control_c, 0, 64, 127
2, 7743, Note_off_c, 0, 63, 64
2, 7759, Control_c, 0, 64, 127
2, 7792, Note_off_c, 0, 59, 64
2, 7798, Note_off_c, 0, 35, 64
2, 7798, Note_off_c, 0, 47, 64
2, 7806, Note_off_c, 0, 54, 64
2, 7910, Note_on_c, 0, 54, 47
2, 7912, Note_on_c, 0, 64, 54
2, 7914, Note_on_c, 0, 61, 55
2, 7914, Note_on_c, 0, 47, 58
2, 7914, Note_on_c, 0, 35, 55
2, 7951, Note_off_c, 0, 47, 64
2, 7959, Note_off_c, 0, 35, 64
2, 7969, Note_on_c, 0, 63, 50
2, 7972, Note_on_c, 0, 59, 46
2, 7973, Note_off_c, 0, 54, 64
2, 7975, Control_c, 0, 64, 0
2, 7981, Note_off_c, 0, 64, 64
2, 7991, Note_off_c, 0, 61, 64
2, 8008, Note_off_c, 0, 63, 64
2, 8011, Note_off_c, 0, 59, 64
2, 8034, Note_on_c, 0, 63, 57
2, 8034, Note_on_c, 0, 59, 57
2, 8034, Note_on_c, 0, 54, 57
2, 8034, Note_on_c, 0, 47, 57
2, 8038, Note_on_c, 0, 35, 50
2, 8047, Control_c, 0, 64, 0
2, 8079, Control_c, 0, 64, 0
2, 8094, Control_c, 0, 64, 127
2, 8129, Control_c, 0, 64, 127
2, 8155, Note_off_c, 0, 35, 64
2, 8155, Note_off_c, 0, 47, 64
2, 8169, Note_off_c, 0, 63, 64
2, 8185, Note_off_c, 0, 59, 64
2, 8196, Note_off_c, 0, 54, 64
2, 8300, Control_c, 0, 64, 0
2, 8310, Note_on_c, 0, 54, 47
2, 8310, Note_on_c, 0, 35, 51
2, 8313, Note_on_c, 0, 64, 51
2, 8314, Note_on_c, 0, 47, 55
2, 8315, Note_on_c, 0, 61, 49
2, 8332, Control_c, 0, 64, 127
2, 8362, Note_off_c, 0, 35, 64
2, 8368, Note_off_c, 0, 47, 64
2, 8370, Note_on_c, 0, 63, 46
2, 8370, Note_on_c, 0, 59, 48
2, 8380, Note_off_c, 0, 64, 64
2, 8385, Note_off_c, 0, 54, 64
2, 8405, Note_off_c, 0, 59, 64
2, 8408, Note_off_c, 0, 61, 64
2, 8416, Note_off_c, 0, 63, 64
2, 8438, Note_on_c, 0, 54, 55
2, 8439, Note_on_c, 0, 59, 55
2, 8440, Note_on_c, 0, 63, 55
2, 8442, Note_on_c, 0, 47, 55
2, 8442, Note_on_c, 0, 35, 51
2, 8456, Control_c, 0, 64, 0
2, 8491, Control_c, 0, 64, 0
2, 8492, Control_c, 0, 64, 127
2, 8538, Control_c, 0, 64, 127
2, 8563, Note_off_c, 0, 35, 64
2, 8563, Note_off_c, 0, 47, 64
2, 8622, Note_off_c, 0, 59, 64
2, 8630, Note_off_c, 0, 63, 64
2, 8650, Note_off_c, 0, 54, 64
2, 8696, Control_c, 0, 64, 0
2, 8717, Note_on_c, 0, 47, 54
2, 8717, Note_on_c, 0, 35, 54
2, 8718, Note_on_c, 0, 61, 49
2, 8718, Note_on_c, 0, 54, 48
2, 8721, Note_on_c, 0, 64, 49
2, 8728, Control_c, 0, 64, 127
2, 8744, Control_c, 0, 64, 0
2, 8750, Note_off_c, 0, 35, 64
2, 8757, Note_off_c, 0, 47, 64
2, 8770, Note_on_c, 0, 63, 41
2, 8773, Note_on_c, 0, 59, 39
2, 8776, Control_c, 0, 64, 127
2, 8786, Note_off_c, 0, 54, 64
2, 8787, Note_off_c, 0, 64, 64
2, 8787, Note_off_c, 0, 61, 64
2, 8809, Note_off_c, 0, 59, 64
2, 8810, Note_off_c, 0, 63, 64
2, 8830, Note_on_c, 0, 47, 52
2, 8835, Note_on_c, 0, 63, 51
2, 8835, Note_on_c, 0, 59, 49
2, 8838, Note_on_c, 0, 54, 48
2, 8839, Note_on_c, 0, 35, 51
2, 8843, Control_c, 0, 64, 0
2, 8880, Control_c, 0, 64, 127
2, 8900, Control_c, 0, 64, 0
2, 8936, Control_c, 0, 64, 127
2, 9089, Note_off_c, 0, 35, 64
2, 9092, Control_c, 0, 64, 0
2, 9105, Note_on_c, 0, 35, 102
2, 9134, Control_c, 0, 64, 127
2, 9140, Control_c, 0, 64, 0
2, 9172, Control_c, 0, 64, 127
2, 9173, Note_off_c, 0, 47, 64
2, 9178, Note_off_c, 0, 59, 64
2, 9178, Note_off_c, 0, 63, 64
2, 9181, Note_off_c, 0, 54, 64
2, 9195, Note_off_c, 0, 35, 64
2, 9250, Note_on_c, 0, 49, 39
2, 9256, Note_on_c, 0, 61, 43
2, 9287, Control_c, 0, 64, 0
2, 9287, Control_c, 0, 64, 0
2, 9311, Note_on_c, 0, 59, 46
2, 9314, Note_on_c, 0, 47, 49
2, 9317, Note_off_c, 0, 49, 64
2, 9323, Note_off_c, 0, 61, 64
2, 9324, Control_c, 0, 64, 127
2, 9362, Note_on_c, 0, 52, 46
2, 9369, Note_on_c, 0, 64, 35
2, 9401, Note_off_c, 0, 59, 64
2, 9404, Note_off_c, 0, 47, 64
2, 9414, Note_on_c, 0, 54, 55
2, 9421, Note_on_c, 0, 66, 27
2, 9436, Note_off_c, 0, 52, 64
2, 9443, Note_off_c, 0, 64, 64
2, 9470, Note_on_c, 0, 68, 49
2, 9470, Note_on_c, 0, 56, 58
2, 9497, Note_off_c, 0, 54, 64
2, 9504, Note_off_c, 0, 66, 64
2, 9522, Note_on_c, 0, 51, 46
2, 9526, Note_on_c, 0, 63, 43
2, 9536, Control_c, 0, 64, 0
2, 9544, Note_off_c, 0, 56, 64
2, 9544, Note_off_c, 0, 68, 64
2, 9574, Note_on_c, 0, 52, 50
2, 9574, Note_on_c, 0, 64, 56
2, 9578, Control_c, 0, 64, 127
2, 9594, Note_off_c, 0, 51, 64
2, 9598, Note_off_c, 0, 63, 64
2, 9626, Note_on_c, 0, 68, 46
2, 9630, Note_on_c, 0, 56, 46
2, 9649, Note_off_c, 0, 64, 64
2, 9649, Note_off_c, 0, 52, 64
2, 9690, Note_on_c, 0, 71, 50
2, 9690, Note_on_c, 0, 59, 59
2, 9702, Note_off_c, 0, 68, 64
2, 9706, Note_off_c, 0, 56, 64
2, 9731, Control_c, 0, 64, 0
2, 9746, Note_on_c, 0, 73, 34
2, 9746, Note_on_c, 0, 61, 66
2, 9767, Note_off_c, 0, 59, 64
2, 9767, Note_off_c, 0, 71, 64
2, 9806, Note_on_c, 0, 75, 69
2, 9806, Note_on_c, 0, 63, 74
2, 9820, Note_off_c, 0, 61, 64
2, 9820, Note_off_c, 0, 73, 64
2, 9843, Note_off_c, 0, 75, 64
2, 9868, Note_off_c, 0, 63, 64
2, 9869, Note_on_c, 0, 70, 63
2, 9921, Note_on_c, 0, 71, 58
2, 9922, Note_on_c, 0, 49, 65
2, 9931, Note_off_c, 0, 70, 64
2, 9966, Note_on_c, 0, 73, 62
2, 9968, Note_off_c, 0, 71, 64
2, 9994, Note_on_c, 0, 71, 54
2, 10030, Note_off_c, 0, 73, 64
2, 10046, Note_on_c, 0, 70, 78
2, 10046, Note_on_c, 0, 59, 43
2, 10046, Note_on_c, 0, 53, 49
2, 10056, Note_off_c, 0, 71, 64
2, 10081, Note_off_c, 0, 49, 64
2, 10084, Note_off_c, 0, 53, 64
2, 10084, Note_off_c, 0, 59, 64
2, 10095, Note_off_c, 0, 70, 64
2, 10098, Note_on_c, 0, 68, 64
2, 10151, Note_on_c, 0, 42, 74
2, 10157, Note_on_c, 0, 66, 71
2, 10182, Note_off_c, 0, 68, 64
2, 10209, Note_on_c, 0, 61, 57
2, 10216, Note_off_c, 0, 66, 64
2, 10254, Note_on_c, 0, 58, 58
2, 10258, Note_on_c, 0, 52, 34
2, 10260, Note_on_c, 0, 63, 66
2, 10278, Note_off_c, 0, 61, 64
2, 10299, Note_off_c, 0, 58, 64
2, 10303, Note_off_c, 0, 52, 64
2, 10322, Note_on_c, 0, 64, 64
2, 10332, Note_off_c, 0, 63, 64
2, 10360, Control_c, 0, 64, 127
2, 10366, Note_on_c, 0, 68, 62
2, 10370, Note_on_c, 0, 58, 44
2, 10372, Note_on_c, 0, 52, 59
2, 10374, Note_off_c, 0, 64, 64
2, 10390, Note_off_c, 0, 42, 64
2, 10417, Note_off_c, 0, 58, 64
2, 10419, Note_off_c, 0, 52, 64
2, 10436, Note_on_c, 0, 66, 52
2, 10456, Control_c, 0, 64, 0
2, 10458, Note_off_c, 0, 68, 64
2, 10512, Control_c, 0, 64, 127
2, 10514, Note_on_c, 0, 35, 56
2, 10518, Note_on_c, 0, 54, 65
2, 10518, Note_on_c, 0, 64, 70
2, 10518, Note_on_c, 0, 47, 51
2, 10520, Note_on_c, 0, 61, 65
2, 10534, Note_off_c, 0, 66, 64
2, 10548, Note_off_c, 0, 35, 64
2, 10554, Note_off_c, 0, 47, 64
2, 10578, Note_on_c, 0, 59, 55
2, 10581, Note_on_c, 0, 63, 41
2, 10586, Note_off_c, 0, 54, 64
2, 10587, Note_off_c, 0, 64, 64
2, 10594, Note_off_c, 0, 61, 64
2, 10610, Control_c, 0, 64, 0
2, 10626, Note_off_c, 0, 59, 64
2, 10627, Note_on_c, 0, 47, 47
2, 10629, Note_off_c, 0, 63, 64
2, 10633, Note_on_c, 0, 59, 52
2, 10633, Note_on_c, 0, 54, 57
2, 10633, Note_on_c, 0, 35, 50
2, 10638, Note_on_c, 0, 63, 57
2, 10669, Control_c, 0, 64, 127
2, 10756, Note_off_c, 0, 63, 64
2, 10763, Note_off_c, 0, 59, 64
2, 10769, Note_off_c, 0, 54, 64
2, 10794, Note_off_c, 0, 35, 64
2, 10799, Note_off_c, 0, 47, 64
2, 10804, Control_c, 0, 64, 127
2, 10882, Control_c, 0, 64, 0
2, 10894, Note_on_c, 0, 64, 50
2, 10895, Note_on_c, 0, 61, 49
2, 10898, Note_on_c, 0, 54, 40
2, 10898, Note_on_c, 0, 47, 58
2, 10898, Note_on_c, 0, 35, 55
2, 10900, Control_c, 0, 64, 0
2, 10913, Control_c, 0, 64, 127
2, 10937, Note_off_c, 0, 35, 64
2, 10937, Note_on_c, 0, 63, 52
2, 10938, Note_on_c, 0, 59, 46
2, 10940, Note_off_c, 0, 47, 64
2, 10945, Note_off_c, 0, 64, 64
2, 10956, Control_c, 0, 64, 127
2, 10969, Note_off_c, 0, 54, 64
2, 10974, Note_off_c, 0, 59, 64
2, 10974, Note_off_c, 0, 61, 64
2, 10989, Note_off_c, 0, 63, 64
2, 11018, Control_c, 0, 64, 0
2, 11022, Note_on_c, 0, 59, 55
2, 11022, Note_on_c, 0, 54, 52
2, 11026, Note_on_c, 0, 63, 57
2, 11029, Note_on_c, 0, 47, 57
2, 11034, Note_on_c, 0, 35, 49
2, 11054, Control_c, 0, 64, 0
2, 11065, Control_c, 0, 64, 127
2, 11113, Control_c, 0, 64, 127
2, 11140, Note_off_c, 0, 63, 64
2, 11142, Note_off_c, 0, 54, 64
2, 11147, Note_off_c, 0, 59, 64
2, 11183, Note_off_c, 0, 35, 64
2, 11185, Note_off_c, 0, 47, 64
2, 11288, Control_c, 0, 64, 0
2, 11302, Note_on_c, 0, 47, 51
2, 11302, Note_on_c, 0, 35, 46
2, 11306, Note_on_c, 0, 54, 46
2, 11307, Note_on_c, 0, 64, 49
2, 11307, Note_on_c, 0, 61, 46
2, 11326, Control_c, 0, 64, 0
2, 11327, Control_c, 0, 64, 127
2, 11354, Note_off_c, 0, 47, 64
2, 11357, Control_c, 0, 64, 127
2, 11358, Note_off_c, 0, 35, 64
2, 11365, Note_on_c, 0, 63, 41
2, 11370, Note_on_c, 0, 59, 42
2, 11375, Note_off_c, 0, 64, 64
2, 11380, Note_off_c, 0, 54, 64
2, 11396, Note_off_c, 0, 61, 64
2, 11404, Note_off_c, 0, 63, 64
2, 11405, Note_off_c, 0, 59, 64
2, 11414, Control_c, 0, 64, 0
2, 11434, Note_on_c, 0, 63, 52
2, 11438, Note_on_c, 0, 54, 52
2, 11438, Note_on_c, 0, 59, 55
2, 11444, Note_on_c, 0, 35, 46
2, 11445, Note_on_c, 0, 47, 51
2, 11454, Control_c, 0, 64, 127
2, 11462, Control_c, 0, 64, 0
2, 11509, Control_c, 0, 64, 127
2, 11584, Note_off_c, 0, 35, 64
2, 11592, Note_off_c, 0, 47, 64
2, 11599, Note_off_c, 0, 54, 64
2, 11607, Note_off_c, 0, 59, 64
2, 11608, Note_off_c, 0, 63, 64
2, 11694, Control_c, 0, 64, 0
2, 11710, Note_on_c, 0, 47, 47
2, 11710, Note_on_c, 0, 35, 44
2, 11715, Note_on_c, 0, 61, 43
2, 11715, Note_on_c, 0, 54, 42
2, 11716, Note_on_c, 0, 64, 44
2, 11732, Control_c, 0, 64, 0
2, 11734, Control_c, 0, 64, 127
2, 11763, Note_off_c, 0, 47, 64
2, 11765, Note_on_c, 0, 63, 37
2, 11766, Note_on_c, 0, 59, 33
2, 11769, Note_off_c, 0, 35, 64
2, 11771, Control_c, 0, 64, 127
2, 11782, Note_off_c, 0, 64, 64
2, 11797, Note_off_c, 0, 54, 64
2, 11804, Note_off_c, 0, 61, 64
2, 11805, Note_off_c, 0, 59, 64
2, 11810, Note_off_c, 0, 63, 64
2, 11820, Control_c, 0, 64, 0
2, 11838, Note_on_c, 0, 63, 49
2, 11838, Note_on_c, 0, 59, 48
2, 11838, Note_on_c, 0, 54, 49
2, 11844, Note_on_c, 0, 47, 47
2, 11844, Note_on_c, 0, 35, 43
2, 11858, Control_c, 0, 64, 0
2, 11860, Control_c, 0, 64, 127
2, 11898, Control_c, 0, 64, 127
2, 12080, Control_c, 0, 64, 0
2, 12094, Note_off_c, 0, 35, 64
2, 12106, Note_on_c, 0, 35, 102
2, 12114, Control_c, 0, 64, 127
2, 12138, Control_c, 0, 64, 0
2, 12145, Note_off_c, 0, 54, 64
2, 12145, Note_off_c, 0, 59, 64
2, 12145, Note_off_c, 0, 63, 64
2, 12151, Note_off_c, 0, 47, 64
2, 12178, Control_c, 0, 64, 127
2, 12184, Note_off_c, 0, 35, 64
2, 12239, Note_on_c, 0, 49, 49
2, 12243, Note_on_c, 0, 61, 51
2, 12264, Control_c, 0, 64, 0
2, 12268, Control_c, 0, 64, 0
2, 12302, Note_on_c, 0, 59, 32
2, 12302, Note_on_c, 0, 47, 59
2, 12304, Control_c, 0, 64, 127
2, 12321, Note_off_c, 0, 49, 64
2, 12325, Note_off_c, 0, 61, 64
2, 12363, Note_on_c, 0, 64, 32
2, 12366, Note_on_c, 0, 52, 58
2, 12396, Note_off_c, 0, 47, 64
2, 12396, Note_off_c, 0, 59, 64
2, 12414, Note_on_c, 0, 54, 51
2, 12417, Note_on_c, 0, 66, 49
2, 12440, Note_off_c, 0, 64, 64
2, 12443, Note_off_c, 0, 52, 64
2, 12474, Note_on_c, 0, 56, 57
2, 12475, Note_on_c, 0, 68, 58
2, 12491, Note_off_c, 0, 54, 64
2, 12494, Note_off_c, 0, 66, 64
2, 12524, Control_c, 0, 64, 0
2, 12538, Note_on_c, 0, 51, 46
2, 12545, Note_on_c, 0, 63, 41
2, 12558, Control_c, 0, 64, 127
2, 12559, Note_off_c, 0, 56, 64
2, 12560, Note_off_c, 0, 68, 64
2, 12602, Note_on_c, 0, 64, 56
2, 12602, Note_on_c, 0, 52, 42
2, 12615, Note_off_c, 0, 51, 64
2, 12622, Note_off_c, 0, 63, 64
2, 12662, Note_on_c, 0, 56, 49
2, 12666, Note_on_c, 0, 68, 56
2, 12688, Note_off_c, 0, 52, 64
2, 12688, Note_off_c, 0, 64, 64
2, 12712, Control_c, 0, 64, 0
2, 12714, Note_on_c, 0, 71, 41
2, 12714, Note_on_c, 0, 59, 62
2, 12735, Note_off_c, 0, 56, 64
2, 12739, Note_off_c, 0, 68, 64
2, 12766, Note_on_c, 0, 61, 64
2, 12769, Note_on_c, 0, 73, 46
2, 12791, Note_off_c, 0, 59, 64
2, 12791, Note_off_c, 0, 71, 64
2, 12838, Note_on_c, 0, 62, 71
2, 12839, Note_on_c, 0, 74, 67
2, 12849, Note_off_c, 0, 61, 64
2, 12852, Note_off_c, 0, 73, 64
2, 12877, Note_off_c, 0, 74, 64
2, 12895, Note_on_c, 0, 68, 65
2, 12909, Note_off_c, 0, 62, 64
2, 12946, Note_on_c, 0, 69, 58
2, 12946, Note_on_c, 0, 45, 58
2, 12956, Note_off_c, 0, 68, 64
2, 12988, Note_on_c, 0, 71, 58
2, 12999, Note_off_c, 0, 69, 64
2, 13035, Note_on_c, 0, 69, 62
2, 13052, Note_off_c, 0, 71, 64
2, 13081, Note_on_c, 0, 67, 62
2, 13090, Note_on_c, 0, 62, 59
2, 13090, Note_on_c, 0, 54, 50
2, 13097, Note_off_c, 0, 69, 64
2, 13101, Note_off_c, 0, 45, 64
2, 13137, Note_off_c, 0, 54, 64
2, 13137, Note_off_c, 0, 62, 64
2, 13154, Note_on_c, 0, 66, 58
2, 13169, Note_off_c, 0, 67, 64
2, 13202, Note_on_c, 0, 67, 62
2, 13206, Note_on_c, 0, 45, 58
2, 13225, Note_off_c, 0, 66, 64
2, 13258, Note_on_c, 0, 63, 64
2, 13267, Note_off_c, 0, 67, 64
2, 13310, Note_on_c, 0, 61, 58
2, 13310, Note_on_c, 0, 55, 39
2, 13312, Note_on_c, 0, 64, 63
2, 13333, Note_off_c, 0, 63, 64
2, 13363, Note_off_c, 0, 55, 64
2, 13363, Note_off_c, 0, 61, 64
2, 13369, Note_on_c, 0, 67, 49
2, 13394, Note_off_c, 0, 64, 64
2, 13426, Note_on_c, 0, 61, 62
2, 13430, Note_on_c, 0, 55, 58
2, 13430, Note_on_c, 0, 71, 57
2, 13444, Note_off_c, 0, 67, 64
2, 13445, Note_off_c, 0, 45, 64
2, 13457, Note_off_c, 0, 55, 64
2, 13459, Note_off_c, 0, 61, 64
2, 13487, Note_on_c, 0, 69, 56
2, 13493, Note_off_c, 0, 71, 64
2, 13558, Note_on_c, 0, 66, 72
2, 13558, Note_on_c, 0, 50, 67
2, 13568, Note_off_c, 0, 69, 64
2, 13700, Note_on_c, 0, 69, 62
2, 13702, Note_on_c, 0, 57, 49
2, 13705, Note_off_c, 0, 66, 64
2, 13705, Note_on_c, 0, 62, 46
2, 13705, Note_on_c, 0, 54, 50
2, 13739, Note_on_c, 0, 71, 69
2, 13749, Note_off_c, 0, 57, 64
2, 13752, Note_off_c, 0, 54, 64
2, 13752, Note_off_c, 0, 62, 64
2, 13758, Note_off_c, 0, 69, 64
2, 13778, Note_on_c, 0, 69, 51
2, 13797, Note_off_c, 0, 50, 64
2, 13798, Note_off_c, 0, 71, 64
2, 13826, Note_on_c, 0, 57, 49
2, 13826, Note_on_c, 0, 54, 50
2, 13830, Note_on_c, 0, 62, 44
2, 13833, Note_on_c, 0, 67, 62
2, 13853, Note_off_c, 0, 69, 64
2, 13869, Note_off_c, 0, 62, 64
2, 13870, Note_off_c, 0, 54, 64
2, 13870, Note_off_c, 0, 57, 64
2, 13885, Note_on_c, 0, 66, 77
2, 13892, Note_off_c, 0, 67, 64
2, 13935, Note_on_c, 0, 67, 62
2, 13938, Note_on_c, 0, 45, 58
2, 13942, Note_off_c, 0, 66, 64
2, 13988, Note_on_c, 0, 63, 62
2, 13991, Note_off_c, 0, 67, 64
2, 14034, Note_on_c, 0, 64, 54
2, 14038, Note_on_c, 0, 61, 47
2, 14038, Note_on_c, 0, 55, 26
2, 14063, Note_off_c, 0, 63, 64
2, 14072, Note_off_c, 0, 55, 64
2, 14072, Note_off_c, 0, 61, 64
2, 14097, Note_on_c, 0, 67, 51
2, 14106, Note_off_c, 0, 64, 64
2, 14146, Note_on_c, 0, 55, 36
2, 14150, Note_on_c, 0, 61, 47
2, 14151, Note_on_c, 0, 71, 54
2, 14163, Note_off_c, 0, 67, 64
2, 14177, Note_off_c, 0, 45, 64
2, 14182, Note_off_c, 0, 55, 64
2, 14184, Note_off_c, 0, 61, 64
2, 14216, Note_on_c, 0, 69, 52
2, 14219, Note_off_c, 0, 71, 64
2, 14299, Note_on_c, 0, 62, 63
2, 14301, Note_off_c, 0, 69, 64
2, 14307, Note_on_c, 0, 38, 80
2, 14336, Control_c, 0, 64, 127
2, 14392, Control_c, 0, 64, 0
2, 14446, Note_on_c, 0, 60, 50
2, 14446, Note_on_c, 0, 50, 49
2, 14450, Note_on_c, 0, 54, 52
2, 14485, Note_off_c, 0, 50, 64
2, 14485, Note_off_c, 0, 60, 64
2, 14486, Note_off_c, 0, 38, 64
2, 14489, Note_off_c, 0, 54, 64
2, 14549, Control_c, 0, 64, 127
2, 14566, Note_on_c, 0, 59, 49
2, 14566, Note_on_c, 0, 55, 40
2, 14566, Note_on_c, 0, 50, 40
2, 14614, Note_off_c, 0, 50, 64
2, 14614, Note_off_c, 0, 55, 64
2, 14614, Note_off_c, 0, 59, 64
2, 14646, Note_off_c, 0, 62, 64
2, 14715, Control_c, 0, 64, 0
2, 14723, Note_on_c, 0, 62, 59
2, 14730, Note_on_c, 0, 38, 71
2, 14780, Control_c, 0, 64, 127
2, 14836, Control_c, 0, 64, 0
2, 14856, Note_on_c, 0, 50, 32
2, 14856, Note_on_c, 0, 48, 32
2, 14858, Note_on_c, 0, 57, 51
2, 14895, Note_off_c, 0, 48, 64
2, 14895, Note_off_c, 0, 50, 64
2, 14897, Note_off_c, 0, 57, 64
2, 14909, Note_off_c, 0, 38, 64
2, 14988, Note_on_c, 0, 50, 49
2, 14990, Note_on_c, 0, 55, 51
2, 14992, Note_on_c, 0, 47, 39
2, 14993, Control_c, 0, 64, 127
2, 15036, Note_off_c, 0, 50, 64
2, 15038, Note_off_c, 0, 55, 64
2, 15040, Note_off_c, 0, 47, 64
2, 15078, Note_off_c, 0, 62, 64
2, 15104, Note_on_c, 0, 60, 50
2, 15108, Note_on_c, 0, 62, 43
2, 15119, Note_on_c, 0, 38, 64
2, 15133, Note_off_c, 0, 60, 64
2, 15137, Note_off_c, 0, 62, 64
2, 15148, Note_on_c, 0, 62, 46
2, 15148, Note_on_c, 0, 59, 58
2, 15159, Control_c, 0, 64, 0
2, 15177, Note_off_c, 0, 59, 64
2, 15177, Note_off_c, 0, 62, 64
2, 15188, Note_on_c, 0, 62, 56
2, 15188, Note_on_c, 0, 57, 60
2, 15211, Note_on_c, 0, 38, 67
2, 15217, Note_off_c, 0, 57, 64
2, 15217, Note_off_c, 0, 62, 64
2, 15240, Note_on_c, 0, 62, 70
2, 15240, Note_on_c, 0, 60, 59
2, 15240, Note_on_c, 0, 54, 56
2, 15240, Note_on_c, 0, 50, 58
2, 15283, Note_off_c, 0, 50, 64
2, 15283, Note_off_c, 0, 54, 64
2, 15283, Note_off_c, 0, 60, 64
2, 15283, Note_off_c, 0, 62, 64
2, 15404, Note_on_c, 0, 62, 58
2, 15404, Note_on_c, 0, 50, 55
2, 15408, Note_on_c, 0, 59, 60
2, 15408, Note_on_c, 0, 55, 54
2, 15498, Note_off_c, 0, 50, 64
2, 15502, Note_off_c, 0, 55, 64
2, 15502, Note_off_c, 0, 59, 64
2, 15505, Note_off_c, 0, 62, 64
2, 15564, Note_on_c, 0, 62, 46
2, 15564, Note_on_c, 0, 57, 42
2, 15564, Note_on_c, 0, 38, 50
2, 15593, Note_off_c, 0, 57, 64
2, 15593, Note_off_c, 0, 62, 64
2, 15604, Note_on_c, 0, 62, 47
2, 15608, Note_on_c, 0, 55, 57
2, 15613, Note_on_c, 0, 38, 65
2, 15633, Note_off_c, 0, 62, 64
2, 15637, Note_off_c, 0, 55, 64
2, 15648, Note_on_c, 0, 62, 56
2, 15648, Note_on_c, 0, 54, 63
2, 15677, Note_off_c, 0, 54, 64
2, 15677, Note_off_c, 0, 62, 64
2, 15692, Note_on_c, 0, 62, 64
2, 15696, Note_on_c, 0, 57, 64
2, 15696, Note_on_c, 0, 50, 48
2, 15696, Note_on_c, 0, 48, 52
2, 15745, Note_off_c, 0, 62, 64
2, 15749, Note_off_c, 0, 48, 64
2, 15749, Note_off_c, 0, 50, 64
2, 15749, Note_off_c, 0, 57, 64
2, 15798, Note_off_c, 0, 38, 64
2, 15810, Note_off_c, 0, 38, 64
2, 15842, Note_on_c, 0, 55, 65
2, 15843, Note_on_c, 0, 62, 71
2, 15843, Note_on_c, 0, 47, 51
2, 15846, Note_on_c, 0, 50, 44
2, 15936, Note_off_c, 0, 55, 64
2, 15937, Note_off_c, 0, 47, 64
2, 15937, Note_off_c, 0, 62, 64
2, 15940, Note_off_c, 0, 50, 64
2, 16001, Note_on_c, 0, 74, 56
2, 16004, Note_on_c, 0, 38, 56
2, 16007, Note_on_c, 0, 62, 59
2, 16007, Note_on_c, 0, 50, 56
2, 16046, Control_c, 0, 64, 127
2, 16103, Control_c, 0, 64, 0
2, 16136, Note_on_c, 0, 57, 52
2, 16137, Note_on_c, 0, 60, 52
2, 16142, Note_on_c, 0, 66, 57
2, 16152, Control_c, 0, 64, 127
2, 16183, Note_off_c, 0, 38, 64
2, 16186, Note_off_c, 0, 57, 64
2, 16186, Note_off_c, 0, 50, 64
2, 16187, Note_off_c, 0, 60, 64
2, 16192, Note_off_c, 0, 66, 64
2, 16244, Control_c, 0, 64, 127
2, 16281, Note_off_c, 0, 62, 64
2, 16283, Control_c, 0, 64, 0
2, 16288, Note_on_c, 0, 62, 52
2, 16289, Note_on_c, 0, 67, 51
2, 16292, Note_on_c, 0, 59, 44
2, 16301, Control_c, 0, 64, 127
2, 16338, Note_off_c, 0, 62, 64
2, 16339, Note_off_c, 0, 67, 64
2, 16342, Note_off_c, 0, 59, 64
2, 16388, Control_c, 0, 64, 127
2, 16395, Note_off_c, 0, 74, 64
2, 16406, Control_c, 0, 64, 0
2, 16416, Note_on_c, 0, 50, 60
2, 16416, Note_on_c, 0, 38, 56
2, 16422, Note_on_c, 0, 74, 63
2, 16426, Note_on_c, 0, 62, 60
2, 16442, Control_c, 0, 64, 127
2, 16490, Control_c, 0, 64, 127
2, 16508, Control_c, 0, 64, 0
2, 16544, Note_on_c, 0, 65, 44
2, 16544, Note_on_c, 0, 59, 57
2, 16545, Note_on_c, 0, 68, 51
2, 16547, Control_c, 0, 64, 0
2, 16558, Control_c, 0, 64, 127
2, 16594, Note_off_c, 0, 59, 64
2, 16594, Note_off_c, 0, 65, 64
2, 16595, Note_off_c, 0, 68, 64
2, 16595, Note_off_c, 0, 38, 64
2, 16595, Note_off_c, 0, 50, 64
2, 16596, Control_c, 0, 64, 127
2, 16656, Control_c, 0, 64, 0
2, 16688, Control_c, 0, 64, 127
2, 16689, Control_c, 0, 64, 127
2, 16692, Note_on_c, 0, 66, 48
2, 16692, Note_on_c, 0, 60, 52
2, 16694, Note_on_c, 0, 69, 50
2, 16727, Control_c, 0, 64, 0
2, 16742, Note_off_c, 0, 60, 64
2, 16742, Note_off_c, 0, 66, 64
2, 16744, Note_off_c, 0, 69, 64
2, 16745, Control_c, 0, 64, 127
2, 16760, Control_c, 0, 64, 127
2, 16801, Note_off_c, 0, 74, 64
2, 16805, Note_off_c, 0, 62, 64
2, 16812, Note_on_c, 0, 38, 41
2, 16812, Control_c, 0, 64, 0
2, 16818, Note_on_c, 0, 72, 52
2, 16819, Note_on_c, 0, 74, 54
2, 16819, Note_on_c, 0, 50, 47
2, 16820, Note_on_c, 0, 62, 54
2, 16832, Control_c, 0, 64, 127
2, 16839, Control_c, 0, 64, 127
2, 16847, Note_off_c, 0, 72, 64
2, 16848, Note_off_c, 0, 74, 64
2, 16849, Note_off_c, 0, 62, 64
2, 16850, Control_c, 0, 64, 0
2, 16864, Note_off_c, 0, 38, 64
2, 16864, Note_off_c, 0, 38, 64
2, 16868, Note_on_c, 0, 74, 54
2, 16868, Note_on_c, 0, 62, 54
2, 16871, Note_on_c, 0, 71, 60
2, 16886, Control_c, 0, 64, 127
2, 16897, Note_off_c, 0, 62, 64
2, 16897, Note_off_c, 0, 74, 64
2, 16900, Note_off_c, 0, 71, 64
2, 16904, Note_on_c, 0, 74, 54
2, 16908, Note_on_c, 0, 62, 54
2, 16910, Note_on_c, 0, 69, 59
2, 16923, Control_c, 0, 64, 0
2, 16933, Note_off_c, 0, 74, 64
2, 16937, Note_off_c, 0, 62, 64
2, 16939, Note_off_c, 0, 69, 64
2, 16944, Note_on_c, 0, 74, 65
2, 16944, Note_on_c, 0, 54, 59
2, 16946, Note_off_c, 0, 50, 64
2, 16948, Note_on_c, 0, 72, 58
2, 16948, Note_on_c, 0, 50, 54
2, 16952, Control_c, 0, 64, 0
2, 16952, Note_on_c, 0, 60, 52
2, 16954, Note_on_c, 0, 62, 57
2, 16996, Control_c, 0, 64, 0
2, 17002, Control_c, 0, 64, 127
2, 17015, Note_off_c, 0, 54, 64
2, 17015, Note_off_c, 0, 74, 64
2, 17019, Note_off_c, 0, 72, 64
2, 17023, Note_off_c, 0, 60, 64
2, 17023, Control_c, 0, 64, 127
2, 17025, Note_off_c, 0, 62, 64
2, 17079, Note_off_c, 0, 50, 64
2, 17081, Note_on_c, 0, 62, 52
2, 17084, Note_on_c, 0, 59, 50
2, 17084, Note_on_c, 0, 50, 46
2, 17085, Note_on_c, 0, 74, 56
2, 17090, Note_on_c, 0, 71, 60
2, 17090, Note_on_c, 0, 55, 46
2, 17100, Control_c, 0, 64, 0
2, 17133, Control_c, 0, 64, 127
2, 17144, Control_c, 0, 64, 0
2, 17156, Control_c, 0, 64, 0
2, 17156, Control_c, 0, 64, 0
2, 17160, Control_c, 0, 64, 0
2, 17171, Control_c, 0, 64, 127
2, 17174, Note_off_c, 0, 38, 64
2, 17176, Note_off_c, 0, 62, 64
2, 17179, Note_off_c, 0, 50, 64
2, 17179, Note_off_c, 0, 59, 64
2, 17180, Note_off_c, 0, 74, 64
2, 17183, Control_c, 0, 64, 127
2, 17185, Note_off_c, 0, 55, 64
2, 17185, Note_off_c, 0, 71, 64
2, 17187, Control_c, 0, 64, 127
2, 17204, Control_c, 0, 64, 127
2, 17216, Note_on_c, 0, 62, 54
2, 17216, Note_on_c, 0, 50, 54
2, 17217, Note_on_c, 0, 69, 46
2, 17220, Note_on_c, 0, 74, 50
2, 17222, Note_on_c, 0, 38, 41
2, 17245, Note_off_c, 0, 62, 64
2, 17246, Note_off_c, 0, 69, 64
2, 17249, Note_off_c, 0, 74, 64
2, 17256, Control_c, 0, 64, 0
2, 17258, Note_off_c, 0, 50, 64
2, 17264, Note_on_c, 0, 62, 48
2, 17264, Note_on_c, 0, 67, 51
2, 17264, Note_on_c, 0, 74, 48
2, 17283, Control_c, 0, 64, 127
2, 17293, Note_off_c, 0, 74, 64
2, 17293, Note_off_c, 0, 67, 64
2, 17293, Note_off_c, 0, 62, 64
2, 17304, Note_on_c, 0, 62, 49
2, 17308, Note_on_c, 0, 74, 47
2, 17309, Note_on_c, 0, 66, 52
2, 17333, Note_off_c, 0, 62, 64
2, 17337, Note_off_c, 0, 74, 64
2, 17338, Note_off_c, 0, 66, 64
2, 17340, Note_on_c, 0, 60, 44
2, 17340, Note_on_c, 0, 50, 48
2, 17344, Note_on_c, 0, 69, 58
2, 17344, Note_on_c, 0, 62, 47
2, 17344, Note_on_c, 0, 54, 49
2, 17346, Note_on_c, 0, 74, 49
2, 17367, Control_c, 0, 64, 0
2, 17423, Note_off_c, 0, 50, 64
2, 17423, Note_off_c, 0, 60, 64
2, 17427, Note_off_c, 0, 54, 64
2, 17427, Note_off_c, 0, 62, 64
2, 17427, Note_off_c, 0, 69, 64
2, 17429, Note_off_c, 0, 74, 64
2, 17433, Note_off_c, 0, 38, 64
2, 17440, Control_c, 0, 64, 0
2, 17464, Note_on_c, 0, 43, 59
2, 17467, Control_c, 0, 64, 127
2, 17488, Note_on_c, 0, 67, 59
2, 17488, Note_on_c, 0, 59, 59
2, 17490, Note_on_c, 0, 79, 60
2, 17492, Note_on_c, 0, 50, 60
2, 17572, Note_off_c, 0, 43, 64
2, 17582, Note_off_c, 0, 67, 64
2, 17586, Note_off_c, 0, 50, 64
2, 17588, Control_c, 0, 64, 0
2, 17596, Note_off_c, 0, 59, 64
2, 17600, Control_c, 0, 64, 0
2, 17600, Control_c, 0, 64, 0
2, 17604, Control_c, 0, 64, 0
2, 17611, Note_off_c, 0, 79, 64
2, 17615, Control_c, 0, 64, 127
2, 17627, Control_c, 0, 64, 127
2, 17631, Control_c, 0, 64, 127
2, 17671, Note_on_c, 0, 83, 72
2, 17674, Note_on_c, 0, 71, 72
2, 17681, Note_on_c, 0, 35, 71
2, 17687, Note_on_c, 0, 47, 67
2, 17700, Control_c, 0, 64, 127
2, 17778, Control_c, 0, 64, 0
2, 17810, Note_on_c, 0, 59, 46
2, 17811, Note_on_c, 0, 63, 50
2, 17811, Note_on_c, 0, 54, 58
2, 17838, Control_c, 0, 64, 127
2, 17859, Note_off_c, 0, 59, 64
2, 17860, Note_off_c, 0, 54, 64
2, 17860, Note_off_c, 0, 63, 64
2, 17860, Note_off_c, 0, 35, 64
2, 17866, Note_off_c, 0, 47, 64
2, 17942, Control_c, 0, 64, 0
2, 17950, Note_on_c, 0, 55, 51
2, 17951, Note_on_c, 0, 59, 56
2, 17952, Note_on_c, 0, 64, 51
2, 17958, Control_c, 0, 64, 127
2, 17969, Note_off_c, 0, 83, 64
2, 17989, Note_off_c, 0, 55, 64
2, 17990, Note_off_c, 0, 59, 64
2, 17991, Note_off_c, 0, 64, 64
2, 18014, Note_off_c, 0, 71, 64
2, 18072, Control_c, 0, 64, 0
2, 18086, Note_on_c, 0, 35, 41
2, 18086, Note_on_c, 0, 83, 58
2, 18086, Note_on_c, 0, 81, 54
2, 18086, Note_on_c, 0, 71, 26
2, 18087, Note_on_c, 0, 47, 40
2, 18115, Note_off_c, 0, 71, 64
2, 18115, Note_off_c, 0, 81, 64
2, 18115, Note_off_c, 0, 83, 64
2, 18131, Control_c, 0, 64, 127
2, 18134, Note_on_c, 0, 83, 51
2, 18134, Note_on_c, 0, 79, 56
2, 18134, Note_on_c, 0, 71, 23
2, 18144, Control_c, 0, 64, 127
2, 18163, Note_off_c, 0, 71, 64
2, 18163, Note_off_c, 0, 79, 64
2, 18163, Note_off_c, 0, 83, 64
2, 18178, Note_on_c, 0, 83, 49
2, 18178, Note_on_c, 0, 78, 63
2, 18178, Note_on_c, 0, 71, 25
2, 18195, Control_c, 0, 64, 0
2, 18207, Note_off_c, 0, 71, 64
2, 18207, Note_off_c, 0, 78, 64
2, 18207, Note_off_c, 0, 83, 64
2, 18222, Control_c, 0, 64, 0
2, 18226, Note_on_c, 0, 59, 52
2, 18226, Note_on_c, 0, 63, 58
2, 18226, Note_on_c, 0, 71, 58
2, 18226, Note_on_c, 0, 81, 59
2, 18230, Note_on_c, 0, 69, 49
2, 18230, Note_on_c, 0, 83, 57
2, 18282, Control_c, 0, 64, 127
2, 18287, Control_c, 0, 64, 127
2, 18293, Note_off_c, 0, 81, 64
2, 18293, Note_off_c, 0, 71, 64
2, 18293, Note_off_c, 0, 63, 64
2, 18293, Note_off_c, 0, 59, 64
2, 18297, Note_off_c, 0, 83, 64
2, 18297, Note_off_c, 0, 69, 64
2, 18304, Note_off_c, 0, 35, 64
2, 18305, Note_off_c, 0, 47, 64
2, 18354, Note_on_c, 0, 71, 55
2, 18354, Note_on_c, 0, 64, 58
2, 18354, Note_on_c, 0, 59, 26
2, 18358, Note_on_c, 0, 83, 59
2, 18358, Note_on_c, 0, 67, 58
2, 18360, Note_on_c, 0, 79, 64
2, 18386, Control_c, 0, 64, 0
2, 18402, Control_c, 0, 64, 127
2, 18415, Control_c, 0, 64, 127
2, 18455, Note_off_c, 0, 59, 64
2, 18455, Note_off_c, 0, 64, 64
2, 18455, Note_off_c, 0, 71, 64
2, 18459, Note_off_c, 0, 67, 64
2, 18459, Note_off_c, 0, 83, 64
2, 18461, Note_off_c, 0, 79, 64
2, 18504, Note_on_c, 0, 71, 65
2, 18506, Note_on_c, 0, 78, 72
2, 18508, Note_on_c, 0, 83, 59
2, 18516, Control_c, 0, 64, 0
2, 18516, Note_on_c, 0, 47, 41
2, 18516, Note_on_c, 0, 35, 32
2, 18533, Note_off_c, 0, 71, 64
2, 18534, Control_c, 0, 64, 127
2, 18535, Note_off_c, 0, 78, 64
2, 18537, Note_off_c, 0, 83, 64
2, 18552, Note_on_c, 0, 83, 58
2, 18552, Note_on_c, 0, 71, 64
2, 18557, Note_on_c, 0, 76, 64
2, 18575, Control_c, 0, 64, 127
2, 18581, Note_off_c, 0, 71, 64
2, 18581, Note_off_c, 0, 83, 64
2, 18586, Note_off_c, 0, 76, 64
2, 18596, Note_on_c, 0, 83, 65
2, 18600, Note_on_c, 0, 71, 26
2, 18603, Note_on_c, 0, 75, 71
2, 18625, Note_off_c, 0, 83, 64
2, 18629, Note_off_c, 0, 71, 64
2, 18632, Note_off_c, 0, 75, 64
2, 18639, Control_c, 0, 64, 0
2, 18642, Note_on_c, 0, 78, 63
2, 18643, Note_on_c, 0, 69, 54
2, 18644, Note_on_c, 0, 71, 25
2, 18644, Note_on_c, 0, 59, 59
2, 18647, Note_on_c, 0, 83, 83
2, 18647, Note_on_c, 0, 63, 60
2, 18662, Control_c, 0, 64, 0
2, 18695, Note_off_c, 0, 35, 64
2, 18695, Note_off_c, 0, 47, 64
2, 18705, Control_c, 0, 64, 127
2, 18709, Control_c, 0, 64, 127
2, 18719, Note_off_c, 0, 78, 64
2, 18720, Note_off_c, 0, 69, 64
2, 18721, Note_off_c, 0, 59, 64
2, 18721, Note_off_c, 0, 71, 64
2, 18724, Note_off_c, 0, 63, 64
2, 18724, Note_off_c, 0, 83, 64
2, 18731, Control_c, 0, 64, 127
2, 18752, Note_on_c, 0, 52, 55
2, 18768, Note_on_c, 0, 88, 71
2, 18768, Note_on_c, 0, 76, 71
2, 18768, Note_on_c, 0, 59, 71
2, 18772, Note_on_c, 0, 67, 71
2, 18849, Control_c, 0, 64, 127
2, 18849, Control_c, 0, 64, 127
2, 18853, Control_c, 0, 64, 127
2, 18859, Control_c, 0, 64, 127
2, 18861, Note_off_c, 0, 52, 64
2, 18869, Note_off_c, 0, 67, 64
2, 18873, Control_c, 0, 64, 127
2, 18874, Note_off_c, 0, 59, 64
2, 18874, Note_off_c, 0, 76, 64
2, 18874, Note_off_c, 0, 88, 64
2, 18908, Note_on_c, 0, 66, 67
2, 18908, Note_on_c, 0, 59, 58
2, 18908, Note_on_c, 0, 57, 58
2, 18908, Note_on_c, 0, 47, 77
2, 18910, Note_on_c, 0, 71, 70
2, 18925, Control_c, 0, 64, 127
2, 18937, Note_off_c, 0, 47, 64
2, 18937, Note_off_c, 0, 57, 64
2, 18937, Note_off_c, 0, 59, 64
2, 18937, Note_off_c, 0, 66, 64
2, 18939, Note_off_c, 0, 71, 64
2, 18954, Note_on_c, 0, 47, 54
2, 18956, Note_on_c, 0, 64, 64
2, 18956, Note_on_c, 0, 59, 24
2, 18956, Note_on_c, 0, 57, 24
2, 18958, Note_on_c, 0, 71, 24
2, 18978, Control_c, 0, 64, 127
2, 18983, Note_off_c, 0, 47, 64
2, 18985, Note_off_c, 0, 57, 64
2, 18985, Note_off_c, 0, 59, 64
2, 18985, Note_off_c, 0, 64, 64
2, 18987, Note_off_c, 0, 71, 64
2, 18998, Note_on_c, 0, 71, 60
2, 18998, Note_on_c, 0, 47, 25
2, 19000, Note_on_c, 0, 63, 58
2, 19000, Note_on_c, 0, 59, 60
2, 19000, Note_on_c, 0, 57, 60
2, 19027, Note_off_c, 0, 47, 64
2, 19027, Note_off_c, 0, 71, 64
2, 19029, Note_off_c, 0, 57, 64
2, 19029, Note_off_c, 0, 59, 64
2, 19029, Note_off_c, 0, 63, 64
2, 19048, Note_on_c, 0, 71, 60
2, 19048, Note_on_c, 0, 66, 71
2, 19048, Note_on_c, 0, 59, 81
2, 19050, Note_on_c, 0, 57, 54
2, 19052, Note_on_c, 0, 47, 63
2, 19099, Note_off_c, 0, 59, 64
2, 19099, Note_off_c, 0, 66, 64
2, 19099, Note_off_c, 0, 71, 64
2, 19101, Note_off_c, 0, 57, 64
2, 19103, Note_off_c, 0, 47, 64
2, 19106, Control_c, 0, 64, 0
2, 19137, Control_c, 0, 64, 0
2, 19149, Control_c, 0, 64, 127
2, 19153, Control_c, 0, 64, 127
2, 19180, Note_on_c, 0, 40, 70
2, 19200, Note_on_c, 0, 47, 70
2, 19202, Note_on_c, 0, 55, 70
2, 19204, Note_on_c, 0, 76, 70
2, 19206, Note_on_c, 0, 64, 70
2, 19293, Control_c, 0, 64, 127
2, 19293, Control_c, 0, 64, 127
2, 19297, Control_c, 0, 64, 127
2, 19317, Control_c, 0, 64, 127
2, 19327, Note_off_c, 0, 40, 64
2, 19341, Note_off_c, 0, 64, 64
2, 19343, Note_off_c, 0, 76, 64
2, 19345, Note_off_c, 0, 55, 64
2, 19346, Note_off_c, 0, 47, 64
2, 19369, Control_c, 0, 64, 127
2, 19380, Control_c, 0, 64, 127
2, 19394, Note_on_c, 0, 78, 83
2, 19394, Note_on_c, 0, 42, 83
2, 19398, Note_on_c, 0, 66, 83
2, 19398, Note_on_c, 0, 30, 98
2, 19432, Control_c, 0, 64, 127
2, 19524, Control_c, 0, 64, 0
2, 19553, Note_on_c, 0, 54, 58
2, 19554, Note_on_c, 0, 61, 54
2, 19555, Note_on_c, 0, 64, 58
2, 19570, Control_c, 0, 64, 127
2, 19581, Control_c, 0, 64, 0
2, 19596, Note_off_c, 0, 54, 64
2, 19597, Note_off_c, 0, 61, 64
2, 19598, Note_off_c, 0, 64, 64
2, 19667, Control_c, 0, 64, 0
2, 19687, Note_off_c, 0, 42, 64
2, 19690, Note_on_c, 0, 47, 65
2, 19691, Note_off_c, 0, 30, 64
2, 19702, Note_on_c, 0, 54, 65
2, 19704, Note_on_c, 0, 62, 73
2, 19718, Control_c, 0, 64, 127
2, 19734, Note_off_c, 0, 47, 64
2, 19747, Note_off_c, 0, 62, 64
2, 19748, Note_off_c, 0, 54, 64
2, 19787, Note_off_c, 0, 78, 64
2, 19791, Note_off_c, 0, 66, 64
2, 19805, Control_c, 0, 64, 0
2, 19822, Control_c, 0, 64, 127
2, 19824, Control_c, 0, 64, 127
2, 19828, Note_on_c, 0, 42, 58
2, 19830, Note_on_c, 0, 78, 60
2, 19830, Note_on_c, 0, 66, 54
2, 19832, Note_on_c, 0, 76, 59
2, 19834, Note_on_c, 0, 30, 64
2, 19850, Control_c, 0, 64, 127
2, 19859, Note_off_c, 0, 66, 64
2, 19859, Note_off_c, 0, 78, 64
2, 19861, Note_off_c, 0, 76, 64
2, 19866, Note_on_c, 0, 74, 52
2, 19870, Note_on_c, 0, 78, 54
2, 19874, Note_on_c, 0, 66, 52
2, 19876, Control_c, 0, 64, 127
2, 19895, Note_off_c, 0, 74, 64
2, 19899, Note_off_c, 0, 78, 64
2, 19903, Note_off_c, 0, 66, 64
2, 19906, Note_on_c, 0, 78, 49
2, 19910, Note_on_c, 0, 73, 59
2, 19918, Note_on_c, 0, 66, 56
2, 19922, Control_c, 0, 64, 0
2, 19935, Note_off_c, 0, 78, 64
2, 19939, Note_off_c, 0, 73, 64
2, 19947, Note_off_c, 0, 66, 64
2, 19950, Note_on_c, 0, 49, 65
2, 19954, Note_on_c, 0, 76, 65
2, 19954, Note_on_c, 0, 58, 65
2, 19956, Note_on_c, 0, 78, 65
2, 19958, Note_on_c, 0, 66, 66
2, 19968, Control_c, 0, 64, 0
2, 20014, Control_c, 0, 64, 127
2, 20061, Note_off_c, 0, 49, 64
2, 20065, Note_off_c, 0, 58, 64
2, 20065, Note_off_c, 0, 76, 64
2, 20067, Note_off_c, 0, 78, 64
2, 20069, Note_off_c, 0, 66, 64
2, 20110, Note_on_c, 0, 59, 58
2, 20111, Note_on_c, 0, 74, 60
2, 20111, Control_c, 0, 64, 0
2, 20113, Note_on_c, 0, 78, 60
2, 20114, Note_on_c, 0, 50, 60
2, 20114, Note_on_c, 0, 66, 60
2, 20121, Note_off_c, 0, 42, 64
2, 20127, Note_off_c, 0, 30, 64
2, 20162, Control_c, 0, 64, 127
2, 20195, Note_off_c, 0, 59, 64
2, 20196, Note_off_c, 0, 74, 64
2, 20198, Note_off_c, 0, 78, 64
2, 20199, Note_off_c, 0, 50, 64
2, 20199, Note_off_c, 0, 66, 64
2, 20232, Note_on_c, 0, 42, 58
2, 20234, Note_on_c, 0, 73, 66
2, 20235, Note_on_c, 0, 30, 55
2, 20236, Note_on_c, 0, 78, 63
2, 20236, Note_on_c, 0, 66, 65
2, 20249, Control_c, 0, 64, 0
2, 20255, Control_c, 0, 64, 127
2, 20263, Note_off_c, 0, 73, 64
2, 20265, Note_off_c, 0, 66, 64
2, 20265, Note_off_c, 0, 78, 64
2, 20266, Control_c, 0, 64, 127
2, 20280, Note_on_c, 0, 78, 59
2, 20280, Note_on_c, 0, 66, 51
2, 20282, Note_on_c, 0, 71, 51
2, 20294, Control_c, 0, 64, 127
2, 20309, Note_off_c, 0, 66, 64
2, 20309, Note_off_c, 0, 78, 64
2, 20311, Note_off_c, 0, 71, 64
2, 20324, Note_on_c, 0, 78, 60
2, 20328, Note_on_c, 0, 70, 64
2, 20328, Note_on_c, 0, 66, 54
2, 20349, Control_c, 0, 64, 0
2, 20353, Note_off_c, 0, 78, 64
2, 20357, Note_off_c, 0, 66, 64
2, 20357, Note_off_c, 0, 70, 64
2, 20366, Control_c, 0, 64, 0
2, 20376, Note_on_c, 0, 78, 64
2, 20376, Note_on_c, 0, 73, 64
2, 20376, Note_on_c, 0, 66, 64
2, 20376, Note_on_c, 0, 64, 64
2, 20376, Note_on_c, 0, 58, 58
2, 20376, Note_on_c, 0, 54, 58
2, 20411, Note_off_c, 0, 42, 64
2, 20414, Note_off_c, 0, 30, 64
2, 20522, Note_off_c, 0, 54, 64
2, 20522, Note_off_c, 0, 58, 64
2, 20522, Note_off_c, 0, 64, 64
2, 20522, Note_off_c, 0, 66, 64
2, 20522, Note_off_c, 0, 73, 64
2, 20522, Note_off_c, 0, 78, 64
2, 20540, Note_on_c, 0, 47, 77
2, 20557, Note_on_c, 0, 54, 86
2, 20559, Note_on_c, 0, 62, 86
2, 20566, Note_on_c, 0, 83, 95
2, 20567, Note_on_c, 0, 71, 86
2, 20699, Control_c, 0, 64, 127
2, 20700, Note_off_c, 0, 54, 64
2, 20702, Note_off_c, 0, 62, 64
2, 20704, Note_off_c, 0, 47, 64
2, 20709, Note_off_c, 0, 83, 64
2, 20710, Note_off_c, 0, 71, 64
2, 20736, Note_on_c, 0, 95, 93
2, 20736, Note_on_c, 0, 83, 92
2, 20736, Note_on_c, 0, 59, 88
2, 20736, Control_c, 0, 64, 127
2, 20738, Note_on_c, 0, 71, 83
2, 20793, Control_c, 0, 64, 0
2, 20800, Note_off_c, 0, 59, 64
2, 20800, Note_off_c, 0, 83, 64
2, 20800, Note_off_c, 0, 95, 64
2, 20802, Note_off_c, 0, 71, 64
2, 20868, Control_c, 0, 64, 0
2, 20872, Note_on_c, 0, 70, 57
2, 20874, Note_on_c, 0, 94, 57
2, 20874, Note_on_c, 0, 82, 57
2, 20874, Note_on_c, 0, 58, 67
2, 20890, Note_on_c, 0, 95, 75
2, 20890, Note_on_c, 0, 83, 77
2, 20890, Note_on_c, 0, 71, 92
2, 20890, Note_on_c, 0, 59, 83
2, 20898, Control_c, 0, 64, 127
2, 20901, Note_off_c, 0, 70, 64
2, 20903, Note_off_c, 0, 58, 64
2, 20903, Note_off_c, 0, 82, 64
2, 20903, Note_off_c, 0, 94, 64
2, 20954, Note_off_c, 0, 59, 64
2, 20954, Note_off_c, 0, 71, 64
2, 20954, Note_off_c, 0, 83, 64
2, 20954, Note_off_c, 0, 95, 64
2, 21032, Control_c, 0, 64, 0
2, 21041, Note_on_c, 0, 47, 90
2, 21042, Note_on_c, 0, 83, 101
2, 21042, Note_on_c, 0, 59, 102
2, 21044, Note_on_c, 0, 71, 36
2, 21078, Control_c, 0, 64, 127
2, 21105, Note_off_c, 0, 47, 64
2, 21106, Note_off_c, 0, 59, 64
2, 21106, Note_off_c, 0, 83, 64
2, 21108, Note_off_c, 0, 71, 64
2, 21180, Control_c, 0, 64, 127
2, 21201, Control_c, 0, 64, 0
2, 21209, Note_on_c, 0, 59, 102
2, 21209, Note_on_c, 0, 47, 102
2, 21210, Note_on_c, 0, 35, 102
2, 21215, Note_on_c, 0, 71, 94
2, 21241, Control_c, 0, 64, 127
2, 21273, Note_off_c, 0, 47, 64
2, 21273, Note_off_c, 0, 59, 64
2, 21312, Control_c, 0, 64, 0
2, 21342, Control_c, 0, 64, 127
2, 21342, Note_on_c, 0, 61, 53
2, 21342, Note_on_c, 0, 49, 52
2, 21376, Control_c, 0, 64, 0
2, 21388, Control_c, 0, 64, 0
2, 21402, Note_on_c, 0, 47, 49
2, 21403, Note_on_c, 0, 59, 47
2, 21413, Note_off_c, 0, 61, 64
2, 21417, Note_off_c, 0, 49, 64
2, 21454, Note_on_c, 0, 52, 47
2, 21459, Note_on_c, 0, 64, 40
2, 21476, Control_c, 0, 64, 0
2, 21499, Note_off_c, 0, 59, 64
2, 21501, Note_off_c, 0, 47, 64
2, 21510, Note_on_c, 0, 66, 44
2, 21512, Note_on_c, 0, 54, 58
2, 21522, Control_c, 0, 64, 127
2, 21533, Note_off_c, 0, 52, 64
2, 21538, Note_off_c, 0, 64, 64
2, 21571, Note_on_c, 0, 68, 60
2, 21577, Note_on_c, 0, 56, 63
2, 21585, Note_off_c, 0, 66, 64
2, 21587, Note_off_c, 0, 54, 64
2, 21630, Note_on_c, 0, 51, 52
2, 21637, Note_on_c, 0, 63, 52
2, 21645, Control_c, 0, 64, 0
2, 21660, Note_off_c, 0, 68, 64
2, 21666, Note_off_c, 0, 56, 64
2, 21685, Control_c, 0, 64, 127
2, 21694, Note_on_c, 0, 64, 44
2, 21694, Note_on_c, 0, 52, 54
2, 21703, Note_off_c, 0, 51, 64
2, 21710, Note_off_c, 0, 63, 64
2, 21746, Note_on_c, 0, 56, 70
2, 21750, Note_on_c, 0, 68, 57
2, 21759, Note_off_c, 0, 52, 64
2, 21759, Note_off_c, 0, 64, 64
2, 21759, Note_off_c, 0, 71, 64
2, 21794, Note_on_c, 0, 71, 48
2, 21794, Note_on_c, 0, 59, 73
2, 21817, Note_off_c, 0, 56, 64
2, 21820, Control_c, 0, 64, 0
2, 21821, Note_off_c, 0, 68, 64
2, 21832, Control_c, 0, 64, 0
2, 21849, Note_on_c, 0, 61, 78
2, 21850, Note_on_c, 0, 73, 64
2, 21866, Note_off_c, 0, 71, 64
2, 21876, Note_off_c, 0, 59, 64
2, 21898, Note_on_c, 0, 75, 87
2, 21901, Note_on_c, 0, 63, 91
2, 21918, Note_off_c, 0, 61, 64
2, 21919, Note_off_c, 0, 73, 64
2, 21930, Note_off_c, 0, 75, 64
2, 21964, Note_on_c, 0, 70, 58
2, 21966, Note_off_c, 0, 63, 64
2, 21994, Note_off_c, 0, 35, 64
2, 22012, Note_on_c, 0, 71, 44
2, 22015, Note_on_c, 0, 49, 65
2, 22038, Note_off_c, 0, 70, 64
2, 22055, Note_on_c, 0, 73, 59
2, 22081, Note_off_c, 0, 71, 64
2, 22107, Note_on_c, 0, 71, 54
2, 22130, Note_off_c, 0, 73, 64
2, 22143, Note_on_c, 0, 59, 46
2, 22146, Note_on_c, 0, 70, 71
2, 22147, Note_on_c, 0, 53, 37
2, 22160, Note_off_c, 0, 71, 64
2, 22172, Note_off_c, 0, 49, 64
2, 22180, Note_off_c, 0, 53, 64
2, 22180, Note_off_c, 0, 59, 64
2, 22189, Note_on_c, 0, 68, 70
2, 22196, Note_off_c, 0, 70, 64
2, 22242, Note_on_c, 0, 66, 62
2, 22245, Note_on_c, 0, 42, 62
2, 22253, Note_off_c, 0, 68, 64
2, 22303, Note_on_c, 0, 61, 70
2, 22330, Note_off_c, 0, 66, 64
2, 22346, Note_on_c, 0, 58, 62
2, 22346, Note_on_c, 0, 52, 51
2, 22349, Note_on_c, 0, 63, 77
2, 22365, Note_off_c, 0, 61, 64
2, 22396, Note_off_c, 0, 52, 64
2, 22396, Note_off_c, 0, 58, 64
2, 22408, Note_on_c, 0, 64, 62
2, 22422, Note_off_c, 0, 63, 64
2, 22448, Control_c, 0, 64, 127
2, 22454, Note_on_c, 0, 68, 73
2, 22454, Note_on_c, 0, 58, 44
2, 22454, Note_on_c, 0, 52, 47
2, 22484, Note_off_c, 0, 64, 64
2, 22484, Note_off_c, 0, 42, 64
2, 22504, Note_off_c, 0, 52, 64
2, 22504, Note_off_c, 0, 58, 64
2, 22506, Note_on_c, 0, 66, 65
2, 22518, Note_off_c, 0, 68, 64
2, 22563, Note_off_c, 0, 66, 64
2, 22569, Control_c, 0, 64, 0
2, 22577, Note_on_c, 0, 59, 100
2, 22577, Note_on_c, 0, 47, 100
2, 22578, Note_on_c, 0, 35, 100
2, 22583, Note_on_c, 0, 71, 93
2, 22601, Control_c, 0, 64, 127
2, 22609, Control_c, 0, 64, 127
2, 22641, Note_off_c, 0, 47, 64
2, 22641, Note_off_c, 0, 59, 64
2, 22698, Control_c, 0, 64, 127
2, 22726, Note_on_c, 0, 49, 39
2, 22727, Note_on_c, 0, 61, 71
2, 22761, Control_c, 0, 64, 0
2, 22770, Note_on_c, 0, 59, 56
2, 22770, Note_on_c, 0, 47, 67
2, 22793, Note_off_c, 0, 49, 64
2, 22794, Note_off_c, 0, 61, 64
2, 22822, Control_c, 0, 64, 0
2, 22834, Note_on_c, 0, 52, 50
2, 22836, Note_on_c, 0, 64, 24
2, 22864, Note_off_c, 0, 59, 64
2, 22870, Note_off_c, 0, 47, 64
2, 22882, Note_on_c, 0, 54, 65
2, 22884, Note_on_c, 0, 66, 52
2, 22892, Control_c, 0, 64, 127
2, 22909, Note_off_c, 0, 52, 64
2, 22911, Note_off_c, 0, 64, 64
2, 22944, Note_on_c, 0, 68, 66
2, 22944, Note_on_c, 0, 56, 65
2, 22962, Note_off_c, 0, 54, 64
2, 22964, Note_off_c, 0, 66, 64
2, 22994, Note_on_c, 0, 63, 49
2, 22994, Note_on_c, 0, 51, 58
2, 23009, Note_off_c, 0, 56, 64
2, 23009, Note_off_c, 0, 68, 64
2, 23013, Control_c, 0, 64, 0
2, 23045, Control_c, 0, 64, 127
2, 23050, Note_on_c, 0, 64, 55
2, 23053, Control_c, 0, 64, 127
2, 23054, Note_on_c, 0, 52, 55
2, 23064, Note_off_c, 0, 51, 64
2, 23064, Note_off_c, 0, 63, 64
2, 23094, Note_off_c, 0, 35, 64
2, 23094, Note_off_c, 0, 71, 64
2, 23098, Note_on_c, 0, 68, 56
2, 23098, Note_on_c, 0, 56, 56
2, 23121, Note_off_c, 0, 64, 64
2, 23125, Note_off_c, 0, 52, 64
2, 23142, Control_c, 0, 64, 127
2, 23154, Note_on_c, 0, 71, 46
2, 23158, Note_on_c, 0, 59, 72
2, 23173, Note_off_c, 0, 56, 64
2, 23173, Note_off_c, 0, 68, 64
2, 23205, Control_c, 0, 64, 0
2, 23206, Note_on_c, 0, 73, 47
2, 23206, Note_on_c, 0, 61, 69
2, 23226, Note_off_c, 0, 71, 64
2, 23230, Note_off_c, 0, 59, 64
2, 23254, Note_on_c, 0, 75, 82
2, 23254, Note_on_c, 0, 63, 77
2, 23266, Control_c, 0, 64, 0
2, 23278, Note_off_c, 0, 61, 64
2, 23278, Note_off_c, 0, 73, 64
2, 23291, Note_off_c, 0, 75, 64
2, 23315, Note_off_c, 0, 63, 64
2, 23320, Note_on_c, 0, 69, 58
2, 23358, Note_on_c, 0, 70, 62
2, 23364, Note_on_c, 0, 46, 64
2, 23389, Note_off_c, 0, 69, 64
2, 23404, Note_on_c, 0, 72, 46
2, 23435, Note_off_c, 0, 70, 64
2, 23444, Note_on_c, 0, 70, 59
2, 23470, Note_off_c, 0, 72, 64
2, 23480, Note_on_c, 0, 68, 67
2, 23480, Note_on_c, 0, 55, 52
2, 23484, Note_on_c, 0, 63, 54
2, 23500, Note_off_c, 0, 70, 64
2, 23523, Note_off_c, 0, 46, 64
2, 23527, Note_off_c, 0, 55, 64
2, 23531, Note_off_c, 0, 63, 64
2, 23539, Note_on_c, 0, 67, 58
2, 23555, Note_off_c, 0, 68, 64
2, 23588, Note_on_c, 0, 46, 81
2, 23591, Note_on_c, 0, 68, 62
2, 23611, Note_off_c, 0, 67, 64
2, 23644, Note_on_c, 0, 64, 58
2, 23677, Note_off_c, 0, 68, 64
2, 23712, Note_on_c, 0, 62, 51
2, 23712, Note_on_c, 0, 56, 55
2, 23713, Note_on_c, 0, 65, 66
2, 23726, Note_off_c, 0, 64, 64
2, 23750, Note_off_c, 0, 56, 64
2, 23750, Note_off_c, 0, 62, 64
2, 23780, Note_on_c, 0, 68, 54
2, 23788, Note_off_c, 0, 65, 64
2, 23816, Note_on_c, 0, 72, 62
2, 23816, Note_on_c, 0, 62, 49
2, 23816, Note_on_c, 0, 56, 51
2, 23827, Note_off_c, 0, 46, 64
2, 23850, Note_off_c, 0, 68, 64
2, 23859, Note_off_c, 0, 56, 64
2, 23859, Note_off_c, 0, 62, 64
2, 23876, Note_on_c, 0, 70, 57
2, 23904, Note_off_c, 0, 72, 64
2, 23946, Note_on_c, 0, 51, 71
2, 23947, Note_on_c, 0, 67, 63
2, 23964, Note_off_c, 0, 70, 64
2, 24061, Note_on_c, 0, 70, 70
2, 24066, Note_on_c, 0, 55, 52
2, 24068, Note_on_c, 0, 63, 51
2, 24075, Note_off_c, 0, 67, 64
2, 24108, Note_on_c, 0, 72, 58
2, 24112, Note_off_c, 0, 55, 64
2, 24114, Note_off_c, 0, 63, 64
2, 24120, Note_off_c, 0, 70, 64
2, 24144, Note_on_c, 0, 70, 58
2, 24167, Note_off_c, 0, 72, 64
2, 24178, Note_on_c, 0, 63, 50
2, 24178, Note_on_c, 0, 55, 51
2, 24185, Note_off_c, 0, 51, 64
2, 24190, Note_on_c, 0, 68, 63
2, 24213, Note_off_c, 0, 70, 64
2, 24214, Note_off_c, 0, 55, 64
2, 24214, Note_off_c, 0, 63, 64
2, 24235, Note_on_c, 0, 67, 64
2, 24255, Note_off_c, 0, 68, 64
2, 24290, Note_on_c, 0, 46, 62
2, 24294, Note_on_c, 0, 68, 71
2, 24308, Note_off_c, 0, 67, 64
2, 24349, Note_on_c, 0, 64, 63
2, 24374, Note_off_c, 0, 68, 64
2, 24402, Note_on_c, 0, 65, 75
2, 24402, Note_on_c, 0, 62, 56
2, 24403, Note_on_c, 0, 56, 58
2, 24424, Note_off_c, 0, 64, 64
2, 24441, Note_off_c, 0, 62, 64
2, 24442, Note_off_c, 0, 56, 64
2, 24475, Note_on_c, 0, 68, 62
2, 24492, Note_off_c, 0, 65, 64
2, 24526, Note_on_c, 0, 56, 58
2, 24529, Note_off_c, 0, 46, 64
2, 24530, Note_on_c, 0, 72, 63
2, 24530, Note_on_c, 0, 62, 58
2, 24545, Note_off_c, 0, 68, 64
2, 24574, Note_on_c, 0, 70, 56
2, 24579, Note_off_c, 0, 56, 64
2, 24583, Note_off_c, 0, 62, 64
2, 24596, Note_off_c, 0, 72, 64
2, 24635, Note_on_c, 0, 51, 62
2, 24638, Note_on_c, 0, 67, 62
2, 24658, Note_off_c, 0, 70, 64
2, 24766, Note_on_c, 0, 55, 47
2, 24770, Note_on_c, 0, 70, 50
2, 24770, Note_on_c, 0, 63, 48
2, 24794, Note_off_c, 0, 67, 64
2, 24800, Note_off_c, 0, 51, 64
2, 24802, Note_on_c, 0, 72, 62
2, 24812, Note_off_c, 0, 70, 64
2, 24820, Note_off_c, 0, 55, 64
2, 24824, Note_off_c, 0, 63, 64
2, 24840, Note_on_c, 0, 70, 55
2, 24856, Note_off_c, 0, 72, 64
2, 24893, Note_on_c, 0, 68, 65
2, 24912, Note_off_c, 0, 70, 64
2, 24943, Note_on_c, 0, 67, 62
2, 24971, Note_off_c, 0, 68, 64
2, 24994, Note_on_c, 0, 42, 63
2, 24998, Note_on_c, 0, 66, 71
2, 25035, Note_off_c, 0, 67, 64
2, 25050, Note_on_c, 0, 61, 73
2, 25072, Note_off_c, 0, 66, 64
2, 25110, Note_on_c, 0, 63, 73
2, 25110, Note_on_c, 0, 52, 57
2, 25112, Note_on_c, 0, 58, 62
2, 25113, Control_c, 0, 64, 127
2, 25133, Note_off_c, 0, 61, 64
2, 25159, Note_off_c, 0, 58, 64
2, 25164, Note_off_c, 0, 52, 64
2, 25170, Note_on_c, 0, 64, 58
2, 25187, Note_off_c, 0, 63, 64
2, 25210, Note_on_c, 0, 52, 65
2, 25214, Note_on_c, 0, 68, 67
2, 25214, Note_on_c, 0, 58, 57
2, 25218, Note_off_c, 0, 64, 64
2, 25233, Note_off_c, 0, 42, 64
2, 25257, Note_off_c, 0, 52, 64
2, 25262, Note_off_c, 0, 58, 64
2, 25274, Note_on_c, 0, 66, 67
2, 25277, Note_off_c, 0, 68, 64
2, 25292, Control_c, 0, 64, 127
2, 25315, Note_off_c, 0, 66, 64
2, 25333, Control_c, 0, 64, 0
2, 25341, Note_on_c, 0, 59, 93
2, 25341, Note_on_c, 0, 47, 93
2, 25342, Note_on_c, 0, 35, 93
2, 25347, Note_on_c, 0, 71, 86
2, 25373, Control_c, 0, 64, 127
2, 25466, Note_off_c, 0, 47, 64
2, 25466, Note_off_c, 0, 59, 64
2, 25474, Note_on_c, 0, 61, 62
2, 25474, Note_on_c, 0, 49, 58
2, 25478, Control_c, 0, 64, 0
2, 25508, Control_c, 0, 64, 0
2, 25520, Control_c, 0, 64, 0
2, 25531, Control_c, 0, 64, 127
2, 25534, Note_on_c, 0, 47, 66
2, 25535, Note_on_c, 0, 59, 64
2, 25545, Note_off_c, 0, 61, 64
2, 25549, Note_off_c, 0, 49, 64
2, 25557, Control_c, 0, 64, 127
2, 25586, Note_on_c, 0, 52, 54
2, 25591, Note_on_c, 0, 64, 46
2, 25631, Note_off_c, 0, 59, 64
2, 25633, Note_off_c, 0, 47, 64
2, 25642, Note_on_c, 0, 66, 49
2, 25644, Note_on_c, 0, 54, 63
2, 25655, Control_c, 0, 64, 0
2, 25665, Note_off_c, 0, 52, 64
2, 25670, Note_off_c, 0, 64, 64
2, 25703, Note_on_c, 0, 68, 62
2, 25709, Note_on_c, 0, 56, 65
2, 25717, Note_off_c, 0, 66, 64
2, 25719, Note_off_c, 0, 54, 64
2, 25736, Control_c, 0, 64, 127
2, 25762, Note_on_c, 0, 51, 51
2, 25769, Note_on_c, 0, 63, 51
2, 25777, Control_c, 0, 64, 0
2, 25792, Note_off_c, 0, 68, 64
2, 25798, Note_off_c, 0, 56, 64
2, 25817, Control_c, 0, 64, 127
2, 25826, Note_on_c, 0, 64, 42
2, 25826, Note_on_c, 0, 52, 51
2, 25835, Note_off_c, 0, 51, 64
2, 25842, Note_off_c, 0, 63, 64
2, 25878, Note_on_c, 0, 56, 62
2, 25882, Note_on_c, 0, 68, 50
2, 25891, Note_off_c, 0, 52, 64
2, 25891, Note_off_c, 0, 64, 64
2, 25891, Note_off_c, 0, 71, 64
2, 25922, Control_c, 0, 64, 0
2, 25926, Note_on_c, 0, 71, 42
2, 25926, Note_on_c, 0, 59, 63
2, 25949, Note_off_c, 0, 56, 64
2, 25952, Control_c, 0, 64, 0
2, 25953, Note_off_c, 0, 68, 64
2, 25964, Control_c, 0, 64, 0
2, 25975, Control_c, 0, 64, 127
2, 25981, Note_on_c, 0, 61, 65
2, 25982, Note_on_c, 0, 73, 52
2, 25998, Note_off_c, 0, 71, 64
2, 26008, Note_off_c, 0, 59, 64
2, 26030, Note_on_c, 0, 75, 70
2, 26033, Note_on_c, 0, 63, 72
2, 26050, Note_off_c, 0, 61, 64
2, 26051, Note_off_c, 0, 73, 64
2, 26062, Note_off_c, 0, 75, 64
2, 26096, Note_on_c, 0, 70, 58
2, 26098, Note_off_c, 0, 63, 64
2, 26099, Control_c, 0, 64, 0
2, 26126, Note_off_c, 0, 35, 64
2, 26144, Note_on_c, 0, 71, 44
2, 26147, Note_on_c, 0, 49, 65
2, 26170, Note_off_c, 0, 70, 64
2, 26187, Note_on_c, 0, 73, 59
2, 26213, Note_off_c, 0, 71, 64
2, 26239, Note_on_c, 0, 71, 54
2, 26262, Note_off_c, 0, 73, 64
2, 26275, Note_on_c, 0, 59, 46
2, 26278, Note_on_c, 0, 70, 71
2, 26279, Note_on_c, 0, 53, 37
2, 26292, Note_off_c, 0, 71, 64
2, 26304, Note_off_c, 0, 49, 64
2, 26312, Note_off_c, 0, 53, 64
2, 26312, Note_off_c, 0, 59, 64
2, 26321, Note_on_c, 0, 68, 70
2, 26328, Note_off_c, 0, 70, 64
2, 26374, Note_on_c, 0, 66, 62
2, 26377, Note_on_c, 0, 42, 62
2, 26385, Note_off_c, 0, 68, 64
2, 26435, Note_on_c, 0, 61, 70
2, 26462, Note_off_c, 0, 66, 64
2, 26478, Note_on_c, 0, 58, 62
2, 26478, Note_on_c, 0, 52, 51
2, 26481, Note_on_c, 0, 63, 67
2, 26497, Note_off_c, 0, 61, 64
2, 26528, Note_off_c, 0, 52, 64
2, 26528, Note_off_c, 0, 58, 64
2, 26540, Note_on_c, 0, 64, 54
2, 26554, Note_off_c, 0, 63, 64
2, 26580, Control_c, 0, 64, 127
2, 26586, Note_on_c, 0, 68, 64
2, 26586, Note_on_c, 0, 58, 44
2, 26586, Note_on_c, 0, 52, 47
2, 26616, Note_off_c, 0, 64, 64
2, 26616, Note_off_c, 0, 42, 64
2, 26636, Note_off_c, 0, 52, 64
2, 26636, Note_off_c, 0, 58, 64
2, 26638, Note_on_c, 0, 66, 57
2, 26650, Note_off_c, 0, 68, 64
2, 26695, Note_off_c, 0, 66, 64
2, 26730, Note_on_c, 0, 71, 92
2, 26730, Note_on_c, 0, 59, 87
2, 26733, Control_c, 0, 64, 0
2, 26734, Note_on_c, 0, 47, 89
2, 26734, Note_on_c, 0, 35, 106
2, 26796, Control_c, 0, 64, 127
2, 26892, Note_off_c, 0, 59, 64
2, 26900, Note_on_c, 0, 61, 72
2, 26901, Note_off_c, 0, 47, 64
2, 26904, Note_on_c, 0, 49, 58
2, 26913, Control_c, 0, 64, 0
2, 26952, Note_on_c, 0, 59, 72
2, 26952, Note_on_c, 0, 47, 65
2, 26977, Note_off_c, 0, 61, 64
2, 26981, Note_off_c, 0, 49, 64
2, 27000, Note_on_c, 0, 64, 57
2, 27004, Note_on_c, 0, 52, 73
2, 27024, Control_c, 0, 64, 127
2, 27029, Note_off_c, 0, 47, 64
2, 27029, Note_off_c, 0, 59, 64
2, 27060, Note_on_c, 0, 66, 52
2, 27064, Note_on_c, 0, 54, 75
2, 27077, Note_off_c, 0, 64, 64
2, 27081, Note_off_c, 0, 52, 64
2, 27120, Note_on_c, 0, 55, 75
2, 27124, Note_on_c, 0, 67, 75
2, 27137, Note_off_c, 0, 66, 64
2, 27141, Note_off_c, 0, 54, 64
2, 27177, Control_c, 0, 64, 0
2, 27180, Note_on_c, 0, 51, 52
2, 27184, Note_on_c, 0, 63, 57
2, 27197, Note_off_c, 0, 55, 64
2, 27201, Note_off_c, 0, 67, 64
2, 27240, Note_on_c, 0, 52, 48
2, 27240, Control_c, 0, 64, 127
2, 27244, Note_on_c, 0, 64, 65
2, 27257, Note_off_c, 0, 51, 64
2, 27261, Note_off_c, 0, 63, 64
2, 27274, Note_off_c, 0, 71, 64
2, 27300, Note_on_c, 0, 67, 50
2, 27300, Note_on_c, 0, 55, 56
2, 27328, Note_off_c, 0, 52, 64
2, 27332, Note_off_c, 0, 64, 64
2, 27347, Control_c, 0, 64, 127
2, 27357, Control_c, 0, 64, 0
2, 27364, Note_on_c, 0, 71, 48
2, 27364, Note_on_c, 0, 59, 39
2, 27377, Note_off_c, 0, 55, 64
2, 27377, Note_off_c, 0, 67, 64
2, 27420, Note_on_c, 0, 61, 59
2, 27424, Note_on_c, 0, 73, 52
2, 27441, Note_off_c, 0, 59, 64
2, 27441, Note_off_c, 0, 71, 64
2, 27480, Note_on_c, 0, 75, 55
2, 27482, Note_off_c, 0, 35, 64
2, 27484, Note_on_c, 0, 63, 57
2, 27497, Note_off_c, 0, 61, 64
2, 27501, Note_off_c, 0, 73, 64
2, 27540, Note_on_c, 0, 70, 42
2, 27544, Note_on_c, 0, 58, 35
2, 27557, Note_off_c, 0, 75, 64
2, 27561, Note_off_c, 0, 63, 64
2, 27561, Control_c, 0, 64, 0
2, 27600, Note_on_c, 0, 71, 55
2, 27604, Note_on_c, 0, 59, 40
2, 27617, Note_off_c, 0, 70, 64
2, 27621, Note_off_c, 0, 58, 64
2, 27660, Note_on_c, 0, 75, 44
2, 27660, Note_on_c, 0, 63, 52
2, 27677, Note_off_c, 0, 71, 64
2, 27681, Note_off_c, 0, 59, 64
2, 27720, Note_on_c, 0, 64, 48
2, 27724, Note_on_c, 0, 76, 42
2, 27761, Note_off_c, 0, 63, 64
2, 27761, Note_off_c, 0, 75, 64
2, 27784, Note_on_c, 0, 78, 47
2, 27784, Note_on_c, 0, 66, 50
2, 27791, Control_c, 0, 64, 127
2, 27808, Note_off_c, 0, 64, 64
2, 27812, Note_off_c, 0, 76, 64
2, 27840, Note_on_c, 0, 67, 57
2, 27844, Note_on_c, 0, 79, 55
2, 27861, Note_off_c, 0, 66, 64
2, 27861, Note_off_c, 0, 78, 64
2, 27904, Note_on_c, 0, 75, 41
2, 27904, Note_on_c, 0, 63, 40
2, 27928, Note_off_c, 0, 67, 64
2, 27932, Note_off_c, 0, 79, 64
2, 27964, Note_on_c, 0, 76, 41
2, 27964, Note_on_c, 0, 64, 27
2, 27981, Note_off_c, 0, 63, 64
2, 27981, Note_off_c, 0, 75, 64
2, 28005, Control_c, 0, 64, 0
2, 28020, Note_on_c, 0, 79, 28
2, 28024, Note_on_c, 0, 67, 41
2, 28041, Note_off_c, 0, 64, 64
2, 28041, Note_off_c, 0, 76, 64
2, 28084, Note_on_c, 0, 83, 31
2, 28084, Note_on_c, 0, 71, 40
2, 28097, Note_off_c, 0, 79, 64
2, 28101, Note_off_c, 0, 67, 64
2, 28144, Note_on_c, 0, 85, 36
2, 28144, Note_on_c, 0, 73, 41
2, 28161, Note_off_c, 0, 71, 64
2, 28161, Note_off_c, 0, 83, 64
2, 28204, Note_on_c, 0, 87, 31
2, 28204, Note_on_c, 0, 75, 35
2, 28221, Note_off_c, 0, 73, 64
2, 28221, Note_off_c, 0, 85, 64
2, 28280, Control_c, 0, 64, 127
2, 28551, Note_off_c, 0, 75, 64
2, 28551, Note_off_c, 0, 87, 64
2, 28597, Control_c, 0, 64, 0
2, 28634, Control_c, 0, 64, 127
2, 28647, Note_on_c, 0, 64, 58
2, 28647, Note_on_c, 0, 35, 51
2, 28650, Note_on_c, 0, 61, 54
2, 28652, Note_on_c, 0, 54, 51
2, 28652, Note_on_c, 0, 47, 56
2, 28699, Note_off_c, 0, 47, 64
2, 28702, Note_on_c, 0, 63, 62
2, 28706, Note_off_c, 0, 35, 64
2, 28706, Note_on_c, 0, 59, 58
2, 28709, Note_off_c, 0, 64, 64
2, 28724, Control_c, 0, 64, 127
2, 28729, Note_off_c, 0, 54, 64
2, 28733, Note_off_c, 0, 61, 64
2, 28742, Note_off_c, 0, 59, 64
2, 28745, Note_off_c, 0, 63, 64
2, 28765, Note_on_c, 0, 54, 63
2, 28766, Note_on_c, 0, 47, 55
2, 28766, Note_on_c, 0, 35, 48
2, 28768, Note_on_c, 0, 59, 63
2, 28771, Note_on_c, 0, 63, 65
2, 28773, Control_c, 0, 64, 0
2, 28809, Control_c, 0, 64, 127
2, 28818, Note_off_c, 0, 35, 64
2, 28825, Note_off_c, 0, 47, 64
2, 28896, Note_off_c, 0, 63, 64
2, 28905, Note_off_c, 0, 54, 64
2, 28905, Note_off_c, 0, 59, 64
2, 29041, Control_c, 0, 64, 0
2, 29062, Note_on_c, 0, 54, 46
2, 29065, Note_on_c, 0, 64, 51
2, 29065, Note_on_c, 0, 61, 46
2, 29066, Note_on_c, 0, 47, 56
2, 29070, Note_on_c, 0, 35, 49
2, 29078, Control_c, 0, 64, 127
2, 29111, Note_on_c, 0, 63, 51
2, 29114, Note_off_c, 0, 47, 64
2, 29120, Note_on_c, 0, 59, 49
2, 29122, Note_off_c, 0, 35, 64
2, 29130, Note_off_c, 0, 64, 64
2, 29146, Note_off_c, 0, 61, 64
2, 29153, Note_off_c, 0, 54, 64
2, 29163, Note_off_c, 0, 59, 64
2, 29170, Note_off_c, 0, 63, 64
2, 29184, Note_on_c, 0, 54, 56
2, 29190, Note_on_c, 0, 63, 57
2, 29193, Note_on_c, 0, 59, 60
2, 29193, Note_on_c, 0, 47, 49
2, 29197, Note_on_c, 0, 35, 49
2, 29206, Control_c, 0, 64, 0
2, 29217, Control_c, 0, 64, 0
2, 29252, Control_c, 0, 64, 127
2, 29253, Control_c, 0, 64, 127
2, 29269, Note_off_c, 0, 35, 64
2, 29275, Note_off_c, 0, 47, 64
2, 29320, Note_off_c, 0, 54, 64
2, 29327, Note_off_c, 0, 59, 64
2, 29327, Note_off_c, 0, 63, 64
2, 29501, Control_c, 0, 64, 0
2, 29506, Note_on_c, 0, 54, 43
2, 29510, Note_on_c, 0, 47, 50
2, 29510, Note_on_c, 0, 35, 46
2, 29511, Note_on_c, 0, 64, 47
2, 29511, Note_on_c, 0, 61, 47
2, 29524, Control_c, 0, 64, 127
2, 29566, Note_off_c, 0, 35, 64
2, 29569, Note_off_c, 0, 47, 64
2, 29570, Note_on_c, 0, 63, 47
2, 29577, Note_on_c, 0, 59, 41
2, 29584, Note_off_c, 0, 64, 64
2, 29597, Note_off_c, 0, 54, 64
2, 29599, Note_off_c, 0, 61, 64
2, 29614, Note_off_c, 0, 59, 64
2, 29622, Note_off_c, 0, 63, 64
2, 29634, Note_on_c, 0, 35, 44
2, 29640, Note_on_c, 0, 63, 41
2, 29642, Note_on_c, 0, 54, 27
2, 29642, Note_on_c, 0, 47, 42
2, 29645, Note_on_c, 0, 59, 47
2, 29650, Control_c, 0, 64, 0
2, 29674, Control_c, 0, 64, 0
2, 29696, Control_c, 0, 64, 127
2, 29729, Control_c, 0, 64, 127
2, 29900, Note_off_c, 0, 35, 64
2, 29906, Note_off_c, 0, 63, 64
2, 29908, Note_off_c, 0, 47, 64
2, 29908, Note_off_c, 0, 54, 64
2, 29911, Note_off_c, 0, 59, 64
2, 29945, Control_c, 0, 64, 0
2, 29968, Control_c, 0, 64, 127
2, 30084, Control_c, 0, 64, 0
2, 30118, Control_c, 0, 64, 0
2, 30173, Control_c, 0, 64, 127
2, 30528, Control_c, 0, 64, 0
2, 30528, End_track
3, 0, Start_track
3, 0, Title_t, "Played by Dr. Ron Lubetsky"
3, 0, End_track
4, 0, Start_track
4, 0, Title_t, "Feb. 23, 1998"
4, 0, End_track
5, 0, Start_track
5, 0, Title_t, "email: acuity2020@aol.com"
5, 0, End_track
6, 0, Start_track
6, 0, Title_t, "Copyright  1998"
6, 0, End_track
7, 0, Start_track
7, 0, Title_t, "All Rights Reserved"
7, 0, End_track
0, 0, End_of_file
