2, 0, Program_c, 0, 0
2, 0, Control_c, 0, 7, 127
2, 108, Control_c, 0, 64, 0
2, 116, Control_c, 0, 64, 0
2, 156, Control_c, 0, 64, 127
2, 163, Note_on_c, 0, 62, 66
2, 164, Control_c, 0, 64, 127
2, 458, Note_on_c, 0, 74, 73
2, 464, Note_on_c, 0, 38, 52
2, 488, Note_off_c, 0, 62, 64
2, 496, Control_c, 0, 64, 0
2, 504, Control_c, 0, 64, 0
2, 543, Control_c, 0, 64, 127
2, 551, Control_c, 0, 64, 127
2, 660, Note_on_c, 0, 77, 65
2, 681, Note_off_c, 0, 74, 64
2, 708, Note_on_c, 0, 75, 58
2, 715, Note_off_c, 0, 77, 64
2, 737, Control_c, 0, 64, 0
2, 744, Note_on_c, 0, 74, 75
2, 745, Control_c, 0, 64, 0
2, 751, Note_off_c, 0, 75, 64
2, 752, Note_on_c, 0, 54, 42
2, 752, Note_on_c, 0, 62, 42
2, 755, Note_on_c, 0, 60, 42
2, 775, Control_c, 0, 64, 127
2, 783, Control_c, 0, 64, 127
2, 800, Note_off_c, 0, 60, 64
2, 800, Note_off_c, 0, 62, 64
2, 830, Note_off_c, 0, 54, 64
2, 841, Note_off_c, 0, 38, 64
2, 969, Note_on_c, 0, 54, 42
2, 973, Note_on_c, 0, 69, 72
2, 976, Note_on_c, 0, 62, 42
2, 979, Note_on_c, 0, 60, 42
2, 1015, Note_off_c, 0, 60, 64
2, 1015, Note_off_c, 0, 74, 64
2, 1028, Note_off_c, 0, 62, 64
2, 1034, Note_off_c, 0, 54, 64
2, 1208, Note_on_c, 0, 43, 35
2, 1208, Note_on_c, 0, 70, 74
2, 1221, Control_c, 0, 64, 0
2, 1229, Control_c, 0, 64, 0
2, 1236, Note_off_c, 0, 69, 64
2, 1268, Control_c, 0, 64, 127
2, 1276, Control_c, 0, 64, 127
2, 1416, Note_on_c, 0, 58, 46
2, 1420, Note_on_c, 0, 55, 28
2, 1432, Note_on_c, 0, 62, 46
2, 1473, Note_off_c, 0, 58, 64
2, 1486, Note_off_c, 0, 62, 64
2, 1492, Note_off_c, 0, 55, 64
2, 1516, Note_off_c, 0, 70, 64
2, 1523, Note_off_c, 0, 43, 64
2, 1530, Note_on_c, 0, 67, 72
2, 1636, Note_on_c, 0, 63, 54
2, 1636, Note_on_c, 0, 55, 55
2, 1648, Note_on_c, 0, 58, 46
2, 1665, Note_on_c, 0, 74, 82
2, 1675, Note_off_c, 0, 67, 64
2, 1681, Note_off_c, 0, 63, 64
2, 1691, Note_off_c, 0, 58, 64
2, 1691, Note_off_c, 0, 55, 64
2, 1760, Note_on_c, 0, 75, 82
2, 1790, Note_off_c, 0, 74, 64
2, 1882, Note_on_c, 0, 45, 66
2, 1888, Note_on_c, 0, 77, 74
2, 1895, Control_c, 0, 64, 0
2, 1896, Note_off_c, 0, 75, 64
2, 1903, Control_c, 0, 64, 0
2, 1923, Control_c, 0, 64, 127
2, 1931, Control_c, 0, 64, 127
2, 2024, Note_on_c, 0, 81, 82
2, 2048, Note_off_c, 0, 77, 64
2, 2060, Note_on_c, 0, 79, 80
2, 2069, Note_off_c, 0, 81, 64
2, 2096, Note_on_c, 0, 60, 21
2, 2096, Note_on_c, 0, 63, 55
2, 2096, Note_on_c, 0, 53, 40
2, 2101, Control_c, 0, 64, 0
2, 2106, Note_on_c, 0, 77, 77
2, 2109, Note_off_c, 0, 79, 64
2, 2109, Control_c, 0, 64, 0
2, 2132, Control_c, 0, 64, 127
2, 2140, Control_c, 0, 64, 127
2, 2154, Note_off_c, 0, 53, 64
2, 2154, Note_off_c, 0, 63, 64
2, 2158, Note_off_c, 0, 60, 64
2, 2181, Note_off_c, 0, 45, 64
2, 2288, Note_on_c, 0, 60, 21
2, 2295, Note_on_c, 0, 53, 49
2, 2303, Note_off_c, 0, 77, 64
2, 2303, Note_on_c, 0, 63, 46
2, 2306, Note_on_c, 0, 72, 75
2, 2342, Note_off_c, 0, 63, 64
2, 2350, Note_off_c, 0, 60, 64
2, 2360, Note_off_c, 0, 53, 64
2, 2529, Note_on_c, 0, 46, 62
2, 2566, Note_on_c, 0, 74, 80
2, 2580, Control_c, 0, 64, 0
2, 2588, Control_c, 0, 64, 0
2, 2592, Note_off_c, 0, 72, 64
2, 2629, Control_c, 0, 64, 127
2, 2637, Control_c, 0, 64, 127
2, 2816, Note_on_c, 0, 58, 46
2, 2820, Note_on_c, 0, 53, 35
2, 2826, Note_on_c, 0, 62, 35
2, 2893, Note_off_c, 0, 58, 64
2, 2893, Note_off_c, 0, 62, 64
2, 2898, Note_off_c, 0, 53, 64
2, 2899, Note_off_c, 0, 46, 64
2, 2982, Note_off_c, 0, 74, 64
2, 3044, Note_on_c, 0, 58, 36
2, 3044, Note_on_c, 0, 53, 28
2, 3046, Note_on_c, 0, 74, 82
2, 3053, Note_on_c, 0, 62, 27
2, 3091, Note_off_c, 0, 74, 64
2, 3134, Note_on_c, 0, 74, 85
2, 3164, Note_off_c, 0, 62, 64
2, 3170, Note_off_c, 0, 74, 64
2, 3176, Note_off_c, 0, 58, 64
2, 3180, Note_off_c, 0, 53, 64
2, 3216, Note_on_c, 0, 74, 88
2, 3320, Note_on_c, 0, 77, 72
2, 3341, Note_off_c, 0, 74, 64
2, 3360, Note_on_c, 0, 75, 82
2, 3379, Note_off_c, 0, 77, 64
2, 3392, Control_c, 0, 64, 0
2, 3399, Note_on_c, 0, 54, 28
2, 3400, Note_on_c, 0, 50, 35
2, 3400, Control_c, 0, 64, 0
2, 3409, Note_on_c, 0, 60, 41
2, 3414, Note_on_c, 0, 74, 94
2, 3423, Note_off_c, 0, 75, 64
2, 3438, Control_c, 0, 64, 127
2, 3446, Control_c, 0, 64, 127
2, 3466, Note_off_c, 0, 50, 64
2, 3468, Note_off_c, 0, 60, 64
2, 3471, Note_off_c, 0, 54, 64
2, 3592, Note_on_c, 0, 60, 21
2, 3600, Note_on_c, 0, 54, 49
2, 3602, Note_on_c, 0, 50, 35
2, 3605, Note_on_c, 0, 69, 65
2, 3608, Note_off_c, 0, 74, 64
2, 3636, Note_off_c, 0, 50, 64
2, 3644, Note_off_c, 0, 54, 64
2, 3654, Note_off_c, 0, 60, 64
2, 3754, Note_off_c, 0, 69, 64
2, 3762, Note_on_c, 0, 72, 72
2, 3791, Note_on_c, 0, 70, 82
2, 3798, Note_on_c, 0, 43, 74
2, 3810, Control_c, 0, 64, 0
2, 3815, Note_off_c, 0, 72, 64
2, 3818, Control_c, 0, 64, 0
2, 3840, Control_c, 0, 64, 127
2, 3848, Control_c, 0, 64, 127
2, 3893, Note_on_c, 0, 69, 69
2, 3907, Note_off_c, 0, 70, 64
2, 3957, Note_on_c, 0, 58, 59
2, 3966, Note_on_c, 0, 50, 69
2, 3968, Control_c, 0, 64, 0
2, 3969, Note_on_c, 0, 67, 75
2, 3976, Control_c, 0, 64, 0
2, 3982, Note_off_c, 0, 69, 64
2, 3983, Control_c, 0, 64, 127
2, 3991, Control_c, 0, 64, 127
2, 4169, Note_off_c, 0, 50, 64
2, 4172, Note_on_c, 0, 72, 81
2, 4172, Note_on_c, 0, 63, 88
2, 4178, Note_on_c, 0, 55, 65
2, 4178, Note_on_c, 0, 48, 63
2, 4186, Note_off_c, 0, 67, 64
2, 4186, Control_c, 0, 64, 0
2, 4194, Control_c, 0, 64, 0
2, 4210, Note_off_c, 0, 58, 64
2, 4232, Control_c, 0, 64, 127
2, 4240, Control_c, 0, 64, 127
2, 4367, Note_on_c, 0, 67, 66
2, 4379, Note_off_c, 0, 72, 64
2, 4382, Note_off_c, 0, 43, 64
2, 4402, Note_off_c, 0, 63, 64
2, 4429, Note_on_c, 0, 69, 72
2, 4446, Note_off_c, 0, 67, 64
2, 4496, Note_off_c, 0, 48, 64
2, 4504, Note_on_c, 0, 70, 81
2, 4510, Note_on_c, 0, 62, 88
2, 4512, Note_on_c, 0, 43, 65
2, 4518, Note_off_c, 0, 69, 64
2, 4519, Note_on_c, 0, 50, 74
2, 4521, Control_c, 0, 64, 0
2, 4529, Control_c, 0, 64, 0
2, 4537, Note_off_c, 0, 55, 64
2, 4562, Control_c, 0, 64, 127
2, 4570, Control_c, 0, 64, 127
2, 4663, Note_off_c, 0, 62, 64
2, 4702, Note_on_c, 0, 72, 81
2, 4708, Note_on_c, 0, 55, 72
2, 4708, Note_on_c, 0, 63, 88
2, 4709, Note_on_c, 0, 48, 69
2, 4716, Note_off_c, 0, 50, 64
2, 4716, Note_off_c, 0, 43, 64
2, 4720, Note_off_c, 0, 70, 64
2, 4720, Control_c, 0, 64, 0
2, 4728, Control_c, 0, 64, 0
2, 4766, Control_c, 0, 64, 127
2, 4774, Control_c, 0, 64, 127
2, 4903, Note_on_c, 0, 67, 82
2, 4907, Note_off_c, 0, 72, 64
2, 4935, Note_off_c, 0, 63, 64
2, 4980, Note_on_c, 0, 69, 74
2, 4994, Note_off_c, 0, 67, 64
2, 5076, Note_off_c, 0, 48, 64
2, 5079, Note_on_c, 0, 43, 63
2, 5082, Note_on_c, 0, 70, 75
2, 5085, Note_on_c, 0, 62, 74
2, 5090, Control_c, 0, 64, 0
2, 5091, Note_on_c, 0, 50, 54
2, 5098, Control_c, 0, 64, 0
2, 5107, Note_off_c, 0, 69, 64
2, 5121, Note_off_c, 0, 55, 64
2, 5132, Control_c, 0, 64, 127
2, 5140, Control_c, 0, 64, 127
2, 5319, Note_off_c, 0, 62, 64
2, 5334, Note_on_c, 0, 72, 85
2, 5341, Note_off_c, 0, 50, 64
2, 5341, Note_on_c, 0, 55, 52
2, 5341, Note_on_c, 0, 63, 75
2, 5346, Note_on_c, 0, 48, 55
2, 5350, Note_off_c, 0, 43, 64
2, 5352, Control_c, 0, 64, 0
2, 5358, Note_off_c, 0, 70, 64
2, 5360, Control_c, 0, 64, 0
2, 5391, Control_c, 0, 64, 127
2, 5399, Control_c, 0, 64, 127
2, 5581, Note_off_c, 0, 63, 64
2, 5581, Note_off_c, 0, 55, 64
2, 5586, Note_off_c, 0, 48, 64
2, 5611, Note_on_c, 0, 42, 67
2, 5617, Control_c, 0, 64, 0
2, 5623, Note_on_c, 0, 62, 69
2, 5625, Note_on_c, 0, 74, 72
2, 5625, Control_c, 0, 64, 0
2, 5630, Control_c, 0, 64, 127
2, 5638, Control_c, 0, 64, 127
2, 5651, Note_off_c, 0, 72, 64
2, 5684, Note_off_c, 0, 62, 64
2, 5756, Note_on_c, 0, 75, 58
2, 5760, Note_off_c, 0, 74, 64
2, 5828, Note_on_c, 0, 50, 35
2, 5834, Note_on_c, 0, 74, 86
2, 5835, Control_c, 0, 64, 0
2, 5838, Note_off_c, 0, 75, 64
2, 5840, Note_on_c, 0, 60, 32
2, 5843, Control_c, 0, 64, 0
2, 5873, Control_c, 0, 64, 127
2, 5881, Control_c, 0, 64, 127
2, 5888, Note_off_c, 0, 50, 64
2, 5906, Note_off_c, 0, 42, 64
2, 5912, Note_off_c, 0, 60, 64
2, 6005, Note_on_c, 0, 50, 66
2, 6014, Note_on_c, 0, 60, 47
2, 6017, Note_on_c, 0, 69, 69
2, 6044, Note_off_c, 0, 60, 64
2, 6047, Note_off_c, 0, 74, 64
2, 6049, Note_off_c, 0, 50, 64
2, 6191, Note_on_c, 0, 70, 85
2, 6197, Note_on_c, 0, 43, 62
2, 6205, Note_off_c, 0, 69, 64
2, 6206, Control_c, 0, 64, 0
2, 6214, Control_c, 0, 64, 0
2, 6243, Control_c, 0, 64, 127
2, 6251, Control_c, 0, 64, 127
2, 6410, Note_on_c, 0, 55, 23
2, 6413, Note_on_c, 0, 62, 47
2, 6417, Note_on_c, 0, 58, 46
2, 6501, Note_off_c, 0, 43, 64
2, 6522, Note_on_c, 0, 67, 74
2, 6524, Note_off_c, 0, 62, 64
2, 6530, Note_off_c, 0, 58, 64
2, 6531, Note_off_c, 0, 55, 64
2, 6552, Note_off_c, 0, 70, 64
2, 6644, Note_on_c, 0, 55, 42
2, 6644, Note_on_c, 0, 58, 42
2, 6652, Note_on_c, 0, 74, 82
2, 6656, Note_on_c, 0, 63, 54
2, 6660, Note_off_c, 0, 67, 64
2, 6671, Control_c, 0, 64, 0
2, 6679, Control_c, 0, 64, 0
2, 6703, Control_c, 0, 64, 127
2, 6711, Control_c, 0, 64, 127
2, 6717, Note_off_c, 0, 63, 64
2, 6722, Note_off_c, 0, 58, 64
2, 6736, Note_off_c, 0, 55, 64
2, 6771, Note_on_c, 0, 75, 73
2, 6809, Note_off_c, 0, 74, 64
2, 6871, Note_on_c, 0, 45, 80
2, 6872, Note_on_c, 0, 77, 75
2, 6878, Control_c, 0, 64, 0
2, 6882, Note_off_c, 0, 75, 64
2, 6886, Control_c, 0, 64, 0
2, 6908, Control_c, 0, 64, 127
2, 6916, Control_c, 0, 64, 127
2, 6992, Note_on_c, 0, 81, 73
2, 7000, Note_off_c, 0, 77, 64
2, 7023, Note_on_c, 0, 79, 72
2, 7041, Note_off_c, 0, 81, 64
2, 7048, Note_on_c, 0, 60, 21
2, 7053, Note_on_c, 0, 63, 40
2, 7057, Control_c, 0, 64, 0
2, 7058, Note_on_c, 0, 77, 90
2, 7065, Control_c, 0, 64, 0
2, 7069, Note_on_c, 0, 53, 35
2, 7074, Note_off_c, 0, 79, 64
2, 7090, Control_c, 0, 64, 127
2, 7098, Control_c, 0, 64, 127
2, 7110, Note_off_c, 0, 60, 64
2, 7117, Note_off_c, 0, 53, 64
2, 7125, Note_off_c, 0, 63, 64
2, 7163, Note_off_c, 0, 45, 64
2, 7251, Note_on_c, 0, 53, 49
2, 7256, Note_on_c, 0, 57, 35
2, 7256, Note_on_c, 0, 63, 46
2, 7263, Note_on_c, 0, 72, 72
2, 7264, Note_off_c, 0, 77, 64
2, 7295, Note_off_c, 0, 63, 64
2, 7303, Note_off_c, 0, 53, 64
2, 7306, Note_off_c, 0, 57, 64
2, 7474, Note_on_c, 0, 46, 66
2, 7520, Note_on_c, 0, 74, 81
2, 7522, Control_c, 0, 64, 0
2, 7530, Control_c, 0, 64, 0
2, 7549, Note_off_c, 0, 72, 64
2, 7571, Control_c, 0, 64, 127
2, 7579, Control_c, 0, 64, 127
2, 7735, Note_on_c, 0, 58, 29
2, 7745, Note_on_c, 0, 53, 36
2, 7748, Note_on_c, 0, 62, 28
2, 7798, Note_off_c, 0, 58, 64
2, 7806, Note_off_c, 0, 53, 64
2, 7809, Note_off_c, 0, 62, 64
2, 7826, Note_off_c, 0, 46, 64
2, 7850, Note_off_c, 0, 74, 64
2, 7921, Note_on_c, 0, 53, 46
2, 7925, Note_on_c, 0, 74, 82
2, 7935, Note_on_c, 0, 62, 36
2, 7936, Note_on_c, 0, 58, 36
2, 7965, Note_off_c, 0, 74, 64
2, 8010, Note_on_c, 0, 74, 82
2, 8046, Note_off_c, 0, 74, 64
2, 8081, Note_off_c, 0, 62, 64
2, 8085, Note_off_c, 0, 58, 64
2, 8085, Control_c, 0, 64, 0
2, 8089, Note_on_c, 0, 74, 88
2, 8093, Control_c, 0, 64, 0
2, 8097, Note_off_c, 0, 53, 64
2, 8117, Control_c, 0, 64, 127
2, 8125, Control_c, 0, 64, 127
2, 8188, Note_off_c, 0, 74, 64
2, 8200, Note_on_c, 0, 77, 49
2, 8226, Note_on_c, 0, 75, 72
2, 8246, Note_off_c, 0, 77, 64
2, 8253, Note_on_c, 0, 54, 39
2, 8256, Control_c, 0, 64, 0
2, 8257, Note_on_c, 0, 50, 41
2, 8262, Note_on_c, 0, 60, 40
2, 8264, Control_c, 0, 64, 0
2, 8270, Note_on_c, 0, 74, 82
2, 8283, Note_off_c, 0, 75, 64
2, 8299, Control_c, 0, 64, 127
2, 8307, Control_c, 0, 64, 127
2, 8311, Note_off_c, 0, 54, 64
2, 8322, Note_off_c, 0, 50, 64
2, 8328, Note_off_c, 0, 60, 64
2, 8448, Note_on_c, 0, 54, 21
2, 8453, Note_on_c, 0, 50, 27
2, 8459, Note_on_c, 0, 69, 74
2, 8459, Note_on_c, 0, 60, 28
2, 8460, Note_off_c, 0, 74, 64
2, 8510, Note_off_c, 0, 54, 64
2, 8511, Note_off_c, 0, 50, 64
2, 8539, Note_off_c, 0, 60, 64
2, 8668, Note_on_c, 0, 70, 77
2, 8682, Note_off_c, 0, 69, 64
2, 8688, Note_on_c, 0, 43, 69
2, 8716, Control_c, 0, 64, 0
2, 8724, Control_c, 0, 64, 0
2, 8736, Control_c, 0, 64, 127
2, 8744, Control_c, 0, 64, 127
2, 8938, Note_on_c, 0, 67, 72
2, 8944, Note_on_c, 0, 62, 29
2, 8944, Note_on_c, 0, 58, 46
2, 8952, Note_on_c, 0, 55, 46
2, 8965, Note_off_c, 0, 70, 64
2, 8993, Note_off_c, 0, 62, 64
2, 9003, Note_off_c, 0, 43, 64
2, 9005, Note_off_c, 0, 55, 64
2, 9018, Note_off_c, 0, 58, 64
2, 9061, Note_on_c, 0, 82, 88
2, 9070, Note_off_c, 0, 67, 64
2, 9167, Note_on_c, 0, 48, 41
2, 9176, Note_on_c, 0, 81, 81
2, 9179, Note_on_c, 0, 63, 60
2, 9183, Note_on_c, 0, 55, 55
2, 9211, Note_off_c, 0, 82, 64
2, 9267, Note_on_c, 0, 79, 82
2, 9281, Note_off_c, 0, 81, 64
2, 9323, Note_off_c, 0, 79, 64
2, 9334, Note_off_c, 0, 55, 64
2, 9348, Note_off_c, 0, 63, 64
2, 9358, Note_on_c, 0, 50, 72
2, 9363, Note_on_c, 0, 79, 95
2, 9371, Note_off_c, 0, 48, 64
2, 9411, Control_c, 0, 64, 0
2, 9419, Control_c, 0, 64, 0
2, 9433, Control_c, 0, 64, 127
2, 9441, Control_c, 0, 64, 127
2, 9470, Note_on_c, 0, 77, 74
2, 9495, Note_off_c, 0, 79, 64
2, 9569, Note_on_c, 0, 55, 55
2, 9575, Note_on_c, 0, 60, 56
2, 9575, Note_on_c, 0, 75, 73
2, 9576, Note_off_c, 0, 77, 64
2, 9667, Note_off_c, 0, 60, 64
2, 9699, Note_off_c, 0, 75, 64
2, 9699, Note_on_c, 0, 77, 59
2, 9742, Note_on_c, 0, 75, 75
2, 9745, Note_off_c, 0, 55, 64
2, 9765, Note_on_c, 0, 54, 32
2, 9768, Note_off_c, 0, 77, 64
2, 9772, Note_on_c, 0, 60, 55
2, 9789, Control_c, 0, 64, 0
2, 9797, Control_c, 0, 64, 0
2, 9802, Note_on_c, 0, 74, 86
2, 9804, Control_c, 0, 64, 127
2, 9812, Control_c, 0, 64, 127
2, 9813, Note_off_c, 0, 75, 64
2, 9833, Note_off_c, 0, 50, 64
2, 9848, Note_off_c, 0, 60, 64
2, 9863, Note_off_c, 0, 54, 64
2, 9931, Note_on_c, 0, 72, 69
2, 9958, Note_off_c, 0, 74, 64
2, 10053, Note_on_c, 0, 70, 75
2, 10069, Note_on_c, 0, 43, 55
2, 10075, Note_off_c, 0, 72, 64
2, 10096, Control_c, 0, 64, 0
2, 10104, Control_c, 0, 64, 0
2, 10142, Control_c, 0, 64, 127
2, 10150, Control_c, 0, 64, 127
2, 10188, Note_on_c, 0, 69, 35
2, 10217, Note_off_c, 0, 70, 64
2, 10301, Note_on_c, 0, 67, 59
2, 10302, Note_on_c, 0, 50, 33
2, 10308, Note_on_c, 0, 58, 27
2, 10317, Control_c, 0, 64, 0
2, 10325, Control_c, 0, 64, 0
2, 10329, Note_off_c, 0, 69, 64
2, 10372, Control_c, 0, 64, 127
2, 10380, Control_c, 0, 64, 127
2, 10400, Note_off_c, 0, 50, 64
2, 10408, Note_off_c, 0, 58, 64
2, 10551, Note_on_c, 0, 58, 35
2, 10570, Note_on_c, 0, 50, 27
2, 10601, Note_off_c, 0, 67, 64
2, 10604, Note_off_c, 0, 43, 64
2, 10606, Note_off_c, 0, 58, 64
2, 10614, Note_off_c, 0, 50, 64
2, 10785, Note_on_c, 0, 41, 69
2, 10794, Control_c, 0, 64, 0
2, 10802, Note_on_c, 0, 72, 80
2, 10802, Control_c, 0, 64, 0
2, 10836, Control_c, 0, 64, 127
2, 10844, Control_c, 0, 64, 127
2, 10849, Note_on_c, 0, 67, 80
2, 10876, Note_off_c, 0, 72, 64
2, 10976, Note_on_c, 0, 63, 56
2, 10985, Note_on_c, 0, 53, 52
2, 10996, Note_on_c, 0, 58, 52
2, 11059, Note_off_c, 0, 58, 64
2, 11067, Note_off_c, 0, 53, 64
2, 11105, Note_off_c, 0, 63, 64
2, 11192, Note_on_c, 0, 63, 52
2, 11192, Note_on_c, 0, 53, 62
2, 11195, Note_on_c, 0, 58, 63
2, 11247, Note_off_c, 0, 58, 64
2, 11274, Note_off_c, 0, 63, 64
2, 11302, Note_off_c, 0, 53, 64
2, 11315, Note_off_c, 0, 41, 64
2, 11384, Note_on_c, 0, 53, 46
2, 11384, Note_on_c, 0, 63, 64
2, 11384, Note_on_c, 0, 69, 82
2, 11384, Note_on_c, 0, 60, 57
2, 11390, Control_c, 0, 64, 0
2, 11397, Note_off_c, 0, 67, 64
2, 11398, Control_c, 0, 64, 0
2, 11404, Control_c, 0, 64, 127
2, 11412, Control_c, 0, 64, 127
2, 11424, Note_on_c, 0, 58, 56
2, 11431, Note_on_c, 0, 67, 82
2, 11440, Note_off_c, 0, 69, 64
2, 11476, Note_on_c, 0, 57, 55
2, 11479, Note_off_c, 0, 60, 64
2, 11481, Note_on_c, 0, 65, 82
2, 11498, Note_off_c, 0, 67, 64
2, 11518, Note_off_c, 0, 58, 64
2, 11535, Control_c, 0, 64, 0
2, 11543, Control_c, 0, 64, 0
2, 11552, Note_on_c, 0, 62, 36
2, 11552, Note_on_c, 0, 58, 66
2, 11556, Note_on_c, 0, 70, 82
2, 11564, Note_off_c, 0, 57, 64
2, 11565, Note_off_c, 0, 63, 64
2, 11579, Note_off_c, 0, 65, 64
2, 11580, Note_off_c, 0, 53, 64
2, 11581, Control_c, 0, 64, 127
2, 11589, Control_c, 0, 64, 127
2, 11731, Note_off_c, 0, 58, 64
2, 11731, Note_off_c, 0, 62, 64
2, 11746, Note_on_c, 0, 74, 79
2, 11753, Control_c, 0, 64, 0
2, 11754, Note_on_c, 0, 46, 54
2, 11758, Note_off_c, 0, 70, 64
2, 11761, Control_c, 0, 64, 0
2, 11792, Control_c, 0, 64, 127
2, 11800, Control_c, 0, 64, 127
2, 11936, Note_off_c, 0, 46, 64
2, 11968, Note_on_c, 0, 41, 59
2, 11973, Control_c, 0, 64, 0
2, 11974, Note_on_c, 0, 72, 73
2, 11981, Control_c, 0, 64, 0
2, 11997, Note_off_c, 0, 74, 64
2, 12012, Control_c, 0, 64, 127
2, 12020, Control_c, 0, 64, 127
2, 12024, Note_on_c, 0, 67, 92
2, 12040, Note_off_c, 0, 72, 64
2, 12153, Note_on_c, 0, 58, 59
2, 12153, Note_on_c, 0, 53, 40
2, 12161, Control_c, 0, 64, 0
2, 12163, Note_on_c, 0, 63, 62
2, 12169, Control_c, 0, 64, 0
2, 12182, Control_c, 0, 64, 127
2, 12190, Control_c, 0, 64, 127
2, 12198, Note_off_c, 0, 63, 64
2, 12212, Note_off_c, 0, 58, 64
2, 12229, Note_off_c, 0, 53, 64
2, 12337, Note_on_c, 0, 53, 59
2, 12343, Note_on_c, 0, 63, 55
2, 12346, Note_on_c, 0, 58, 56
2, 12394, Note_off_c, 0, 63, 64
2, 12406, Note_off_c, 0, 58, 64
2, 12433, Note_off_c, 0, 53, 64
2, 12516, Note_off_c, 0, 41, 64
2, 12529, Note_on_c, 0, 63, 60
2, 12532, Note_on_c, 0, 60, 66
2, 12535, Note_on_c, 0, 69, 79
2, 12536, Control_c, 0, 64, 0
2, 12538, Note_on_c, 0, 53, 35
2, 12544, Control_c, 0, 64, 0
2, 12551, Note_off_c, 0, 67, 64
2, 12557, Control_c, 0, 64, 127
2, 12565, Control_c, 0, 64, 127
2, 12581, Note_on_c, 0, 67, 73
2, 12584, Note_on_c, 0, 58, 51
2, 12599, Note_off_c, 0, 69, 64
2, 12605, Note_off_c, 0, 60, 64
2, 12632, Note_on_c, 0, 65, 56
2, 12632, Note_on_c, 0, 57, 52
2, 12648, Note_off_c, 0, 67, 64
2, 12656, Note_off_c, 0, 58, 64
2, 12683, Control_c, 0, 64, 0
2, 12691, Control_c, 0, 64, 0
2, 12698, Note_off_c, 0, 53, 64
2, 12703, Note_on_c, 0, 58, 50
2, 12707, Note_on_c, 0, 62, 41
2, 12707, Note_on_c, 0, 70, 79
2, 12710, Note_off_c, 0, 63, 64
2, 12717, Note_off_c, 0, 65, 64
2, 12722, Control_c, 0, 64, 127
2, 12730, Control_c, 0, 64, 127
2, 12732, Note_off_c, 0, 57, 64
2, 12895, Note_on_c, 0, 74, 66
2, 12897, Note_on_c, 0, 46, 71
2, 12905, Note_off_c, 0, 70, 64
2, 12913, Note_off_c, 0, 58, 64
2, 12917, Note_off_c, 0, 62, 64
2, 12984, Note_on_c, 0, 75, 66
2, 13014, Note_off_c, 0, 74, 64
2, 13028, Note_off_c, 0, 46, 64
2, 13080, Note_on_c, 0, 71, 66
2, 13080, Note_on_c, 0, 55, 59
2, 13082, Note_on_c, 0, 62, 62
2, 13086, Control_c, 0, 64, 0
2, 13086, Note_on_c, 0, 77, 59
2, 13086, Note_on_c, 0, 67, 44
2, 13094, Control_c, 0, 64, 0
2, 13099, Note_off_c, 0, 75, 64
2, 13116, Control_c, 0, 64, 127
2, 13124, Control_c, 0, 64, 127
2, 13128, Note_on_c, 0, 79, 62
2, 13139, Note_off_c, 0, 67, 64
2, 13141, Note_off_c, 0, 77, 64
2, 13152, Note_off_c, 0, 62, 64
2, 13155, Note_off_c, 0, 55, 64
2, 13185, Note_on_c, 0, 77, 66
2, 13199, Note_off_c, 0, 79, 64
2, 13201, Note_off_c, 0, 71, 64
2, 13247, Note_on_c, 0, 60, 72
2, 13255, Note_on_c, 0, 76, 67
2, 13255, Note_on_c, 0, 67, 64
2, 13256, Note_on_c, 0, 70, 66
2, 13258, Control_c, 0, 64, 0
2, 13266, Control_c, 0, 64, 0
2, 13268, Note_off_c, 0, 77, 64
2, 13281, Control_c, 0, 64, 127
2, 13289, Control_c, 0, 64, 127
2, 13308, Note_off_c, 0, 70, 64
2, 13340, Note_off_c, 0, 67, 64
2, 13353, Note_off_c, 0, 60, 64
2, 13436, Note_on_c, 0, 70, 63
2, 13436, Note_on_c, 0, 67, 59
2, 13440, Note_on_c, 0, 60, 66
2, 13441, Note_on_c, 0, 72, 66
2, 13476, Note_off_c, 0, 76, 64
2, 13516, Note_off_c, 0, 67, 64
2, 13517, Note_on_c, 0, 74, 74
2, 13531, Note_off_c, 0, 70, 64
2, 13535, Note_off_c, 0, 72, 64
2, 13573, Note_off_c, 0, 60, 64
2, 13600, Note_on_c, 0, 75, 66
2, 13605, Note_on_c, 0, 69, 72
2, 13608, Note_on_c, 0, 53, 66
2, 13610, Note_off_c, 0, 74, 64
2, 13613, Control_c, 0, 64, 0
2, 13613, Note_on_c, 0, 60, 54
2, 13621, Control_c, 0, 64, 0
2, 13624, Control_c, 0, 64, 127
2, 13632, Control_c, 0, 64, 127
2, 13663, Note_on_c, 0, 77, 54
2, 13679, Note_off_c, 0, 75, 64
2, 13688, Note_off_c, 0, 60, 64
2, 13708, Note_on_c, 0, 75, 64
2, 13712, Note_off_c, 0, 69, 64
2, 13724, Note_off_c, 0, 77, 64
2, 13728, Note_off_c, 0, 53, 64
2, 13760, Note_on_c, 0, 74, 64
2, 13767, Note_on_c, 0, 58, 54
2, 13771, Note_off_c, 0, 75, 64
2, 13772, Note_on_c, 0, 65, 59
2, 13773, Control_c, 0, 64, 0
2, 13775, Note_on_c, 0, 68, 74
2, 13781, Control_c, 0, 64, 0
2, 13803, Control_c, 0, 64, 127
2, 13811, Control_c, 0, 64, 127
2, 13891, Note_off_c, 0, 65, 64
2, 13900, Note_off_c, 0, 58, 64
2, 13916, Note_off_c, 0, 68, 64
2, 13947, Note_on_c, 0, 70, 75
2, 13948, Note_on_c, 0, 68, 48
2, 13952, Note_on_c, 0, 58, 62
2, 13952, Note_on_c, 0, 65, 48
2, 13972, Note_off_c, 0, 74, 64
2, 14027, Note_off_c, 0, 65, 64
2, 14045, Note_off_c, 0, 68, 64
2, 14062, Note_off_c, 0, 58, 64
2, 14117, Note_on_c, 0, 73, 63
2, 14119, Note_off_c, 0, 70, 64
2, 14120, Note_on_c, 0, 58, 66
2, 14124, Note_on_c, 0, 67, 66
2, 14124, Note_on_c, 0, 51, 64
2, 14132, Control_c, 0, 64, 0
2, 14140, Control_c, 0, 64, 0
2, 14143, Control_c, 0, 64, 127
2, 14151, Control_c, 0, 64, 127
2, 14177, Note_on_c, 0, 75, 64
2, 14184, Note_off_c, 0, 73, 64
2, 14204, Note_off_c, 0, 67, 64
2, 14226, Note_off_c, 0, 58, 64
2, 14229, Note_on_c, 0, 73, 54
2, 14240, Note_off_c, 0, 75, 64
2, 14275, Note_off_c, 0, 51, 64
2, 14278, Note_on_c, 0, 72, 66
2, 14286, Note_on_c, 0, 66, 74
2, 14288, Note_off_c, 0, 73, 64
2, 14288, Note_on_c, 0, 56, 66
2, 14290, Control_c, 0, 64, 0
2, 14293, Note_on_c, 0, 63, 64
2, 14298, Control_c, 0, 64, 0
2, 14320, Control_c, 0, 64, 127
2, 14328, Control_c, 0, 64, 127
2, 14362, Note_off_c, 0, 63, 64
2, 14368, Note_off_c, 0, 56, 64
2, 14430, Note_off_c, 0, 66, 64
2, 14461, Note_on_c, 0, 66, 29
2, 14462, Note_on_c, 0, 56, 64
2, 14462, Note_on_c, 0, 68, 74
2, 14468, Note_on_c, 0, 63, 55
2, 14486, Note_off_c, 0, 72, 64
2, 14516, Note_off_c, 0, 66, 64
2, 14542, Note_off_c, 0, 63, 64
2, 14542, Note_on_c, 0, 70, 66
2, 14550, Note_off_c, 0, 68, 64
2, 14553, Note_off_c, 0, 56, 64
2, 14634, Note_on_c, 0, 65, 72
2, 14641, Note_on_c, 0, 49, 54
2, 14642, Note_on_c, 0, 71, 59
2, 14644, Note_on_c, 0, 56, 48
2, 14647, Control_c, 0, 64, 0
2, 14655, Control_c, 0, 64, 0
2, 14664, Note_off_c, 0, 70, 64
2, 14677, Control_c, 0, 64, 127
2, 14685, Control_c, 0, 64, 127
2, 14696, Note_on_c, 0, 73, 66
2, 14711, Note_off_c, 0, 71, 64
2, 14717, Note_off_c, 0, 65, 64
2, 14757, Note_on_c, 0, 71, 59
2, 14765, Note_off_c, 0, 73, 64
2, 14777, Note_off_c, 0, 49, 64
2, 14785, Note_off_c, 0, 56, 64
2, 14819, Note_on_c, 0, 54, 54
2, 14820, Control_c, 0, 64, 0
2, 14820, Note_on_c, 0, 64, 59
2, 14824, Note_on_c, 0, 70, 59
2, 14827, Note_on_c, 0, 61, 48
2, 14828, Control_c, 0, 64, 0
2, 14844, Note_off_c, 0, 71, 64
2, 14862, Control_c, 0, 64, 127
2, 14870, Control_c, 0, 64, 127
2, 14942, Note_off_c, 0, 64, 64
2, 14949, Note_off_c, 0, 61, 64
2, 14955, Note_off_c, 0, 54, 64
2, 15008, Note_on_c, 0, 64, 54
2, 15012, Note_on_c, 0, 61, 37
2, 15012, Note_on_c, 0, 66, 64
2, 15015, Note_on_c, 0, 54, 46
2, 15050, Note_off_c, 0, 70, 64
2, 15166, Note_off_c, 0, 64, 64
2, 15167, Note_off_c, 0, 61, 64
2, 15212, Note_on_c, 0, 48, 67
2, 15222, Note_off_c, 0, 66, 64
2, 15226, Note_on_c, 0, 64, 83
2, 15238, Note_off_c, 0, 54, 64
2, 15240, Note_on_c, 0, 72, 75
2, 15246, Control_c, 0, 64, 0
2, 15254, Control_c, 0, 64, 0
2, 15279, Note_on_c, 0, 67, 87
2, 15289, Control_c, 0, 64, 127
2, 15290, Note_off_c, 0, 64, 64
2, 15297, Control_c, 0, 64, 127
2, 15302, Note_off_c, 0, 72, 64
2, 15400, Note_on_c, 0, 58, 75
2, 15407, Note_on_c, 0, 64, 67
2, 15460, Note_off_c, 0, 64, 64
2, 15464, Note_off_c, 0, 58, 64
2, 15587, Note_on_c, 0, 58, 52
2, 15603, Note_on_c, 0, 64, 59
2, 15639, Note_off_c, 0, 64, 64
2, 15657, Note_off_c, 0, 58, 64
2, 15720, Note_off_c, 0, 48, 64
2, 15776, Note_on_c, 0, 60, 66
2, 15776, Note_on_c, 0, 53, 57
2, 15780, Note_on_c, 0, 63, 64
2, 15780, Note_on_c, 0, 69, 77
2, 15795, Note_off_c, 0, 67, 64
2, 15824, Note_on_c, 0, 58, 52
2, 15827, Note_on_c, 0, 67, 74
2, 15841, Note_off_c, 0, 69, 64
2, 15852, Note_off_c, 0, 60, 64
2, 15872, Note_on_c, 0, 57, 52
2, 15872, Note_on_c, 0, 65, 79
2, 15887, Note_off_c, 0, 67, 64
2, 15909, Note_off_c, 0, 58, 64
2, 15917, Note_off_c, 0, 53, 64
2, 15935, Control_c, 0, 64, 0
2, 15936, Note_on_c, 0, 62, 64
2, 15936, Note_on_c, 0, 70, 101
2, 15940, Note_on_c, 0, 58, 80
2, 15943, Control_c, 0, 64, 0
2, 15950, Note_off_c, 0, 63, 64
2, 15953, Note_off_c, 0, 57, 64
2, 15965, Note_off_c, 0, 65, 64
2, 15967, Control_c, 0, 64, 127
2, 15975, Control_c, 0, 64, 127
2, 16063, Note_off_c, 0, 62, 64
2, 16067, Note_off_c, 0, 58, 64
2, 16117, Note_on_c, 0, 46, 72
2, 16123, Note_on_c, 0, 74, 62
2, 16134, Note_off_c, 0, 70, 64
2, 16288, Note_off_c, 0, 46, 64
2, 16294, Note_off_c, 0, 74, 64
2, 16304, Note_on_c, 0, 48, 82
2, 16308, Note_on_c, 0, 64, 80
2, 16308, Note_on_c, 0, 72, 72
2, 16313, Control_c, 0, 64, 0
2, 16321, Control_c, 0, 64, 0
2, 16354, Control_c, 0, 64, 127
2, 16362, Control_c, 0, 64, 127
2, 16368, Note_on_c, 0, 67, 84
2, 16376, Note_off_c, 0, 72, 64
2, 16378, Note_off_c, 0, 64, 64
2, 16510, Control_c, 0, 64, 0
2, 16510, Note_on_c, 0, 64, 59
2, 16510, Note_on_c, 0, 58, 52
2, 16518, Control_c, 0, 64, 0
2, 16522, Control_c, 0, 64, 127
2, 16530, Control_c, 0, 64, 127
2, 16555, Note_off_c, 0, 58, 64
2, 16570, Note_off_c, 0, 64, 64
2, 16682, Note_on_c, 0, 64, 46
2, 16682, Note_on_c, 0, 58, 71
2, 16729, Note_off_c, 0, 64, 64
2, 16740, Note_off_c, 0, 58, 64
2, 16841, Note_off_c, 0, 48, 64
2, 16860, Note_on_c, 0, 53, 55
2, 16864, Note_on_c, 0, 63, 71
2, 16864, Note_on_c, 0, 60, 67
2, 16866, Note_on_c, 0, 69, 82
2, 16876, Note_off_c, 0, 67, 64
2, 16916, Note_on_c, 0, 67, 79
2, 16916, Note_on_c, 0, 58, 46
2, 16931, Note_off_c, 0, 69, 64
2, 16941, Note_off_c, 0, 60, 64
2, 16956, Note_on_c, 0, 57, 46
2, 16962, Note_on_c, 0, 65, 59
2, 16972, Note_off_c, 0, 67, 64
2, 16979, Note_off_c, 0, 58, 64
2, 17007, Control_c, 0, 64, 0
2, 17013, Note_off_c, 0, 53, 64
2, 17015, Control_c, 0, 64, 0
2, 17020, Note_on_c, 0, 62, 36
2, 17024, Note_on_c, 0, 70, 95
2, 17024, Note_on_c, 0, 58, 67
2, 17032, Control_c, 0, 64, 127
2, 17036, Note_off_c, 0, 57, 64
2, 17037, Note_off_c, 0, 63, 64
2, 17040, Control_c, 0, 64, 127
2, 17044, Note_off_c, 0, 65, 64
2, 17141, Note_off_c, 0, 62, 64
2, 17145, Note_off_c, 0, 58, 64
2, 17196, Note_off_c, 0, 70, 64
2, 17207, Note_on_c, 0, 46, 72
2, 17213, Note_on_c, 0, 74, 74
2, 17280, Note_on_c, 0, 75, 66
2, 17322, Note_off_c, 0, 74, 64
2, 17328, Note_off_c, 0, 46, 64
2, 17373, Note_on_c, 0, 55, 59
2, 17380, Note_on_c, 0, 62, 52
2, 17383, Note_on_c, 0, 67, 63
2, 17387, Note_off_c, 0, 75, 64
2, 17387, Note_on_c, 0, 77, 63
2, 17388, Note_on_c, 0, 71, 74
2, 17389, Control_c, 0, 64, 0
2, 17397, Control_c, 0, 64, 0
2, 17410, Control_c, 0, 64, 127
2, 17418, Control_c, 0, 64, 127
2, 17432, Note_on_c, 0, 79, 66
2, 17444, Note_off_c, 0, 77, 64
2, 17446, Note_off_c, 0, 67, 64
2, 17485, Note_on_c, 0, 77, 63
2, 17492, Note_off_c, 0, 71, 64
2, 17501, Note_off_c, 0, 79, 64
2, 17533, Note_off_c, 0, 62, 64
2, 17540, Note_off_c, 0, 55, 64
2, 17552, Note_on_c, 0, 76, 71
2, 17556, Control_c, 0, 64, 0
2, 17556, Note_on_c, 0, 60, 66
2, 17560, Note_on_c, 0, 67, 63
2, 17560, Note_on_c, 0, 70, 74
2, 17564, Control_c, 0, 64, 0
2, 17568, Note_off_c, 0, 77, 64
2, 17570, Control_c, 0, 64, 127
2, 17578, Control_c, 0, 64, 127
2, 17662, Note_off_c, 0, 70, 64
2, 17671, Note_off_c, 0, 67, 64
2, 17692, Note_off_c, 0, 60, 64
2, 17738, Note_on_c, 0, 70, 63
2, 17742, Note_on_c, 0, 67, 44
2, 17742, Note_on_c, 0, 72, 67
2, 17744, Note_on_c, 0, 60, 62
2, 17759, Note_off_c, 0, 76, 64
2, 17818, Note_on_c, 0, 74, 72
2, 17822, Note_off_c, 0, 67, 64
2, 17832, Note_off_c, 0, 72, 64
2, 17835, Note_off_c, 0, 70, 64
2, 17850, Note_off_c, 0, 60, 64
2, 17907, Note_on_c, 0, 75, 66
2, 17907, Note_on_c, 0, 69, 66
2, 17908, Note_on_c, 0, 60, 56
2, 17911, Note_on_c, 0, 53, 67
2, 17915, Control_c, 0, 64, 0
2, 17923, Note_off_c, 0, 74, 64
2, 17923, Control_c, 0, 64, 0
2, 17925, Control_c, 0, 64, 127
2, 17933, Control_c, 0, 64, 127
2, 17961, Note_on_c, 0, 77, 63
2, 17970, Note_off_c, 0, 60, 64
2, 17980, Note_off_c, 0, 75, 64
2, 18008, Note_off_c, 0, 53, 64
2, 18013, Note_off_c, 0, 69, 64
2, 18013, Note_on_c, 0, 75, 63
2, 18022, Note_off_c, 0, 77, 64
2, 18061, Note_on_c, 0, 74, 57
2, 18067, Note_on_c, 0, 58, 48
2, 18070, Note_on_c, 0, 65, 63
2, 18071, Note_on_c, 0, 68, 74
2, 18074, Control_c, 0, 64, 0
2, 18075, Note_off_c, 0, 75, 64
2, 18082, Control_c, 0, 64, 0
2, 18095, Control_c, 0, 64, 127
2, 18103, Control_c, 0, 64, 127
2, 18158, Note_off_c, 0, 65, 64
2, 18163, Note_off_c, 0, 58, 64
2, 18228, Note_off_c, 0, 68, 64
2, 18239, Note_on_c, 0, 58, 74
2, 18243, Note_on_c, 0, 70, 66
2, 18244, Note_on_c, 0, 68, 66
2, 18245, Note_on_c, 0, 65, 67
2, 18269, Note_off_c, 0, 74, 64
2, 18300, Note_off_c, 0, 68, 64
2, 18312, Note_on_c, 0, 72, 66
2, 18317, Note_off_c, 0, 70, 64
2, 18350, Note_off_c, 0, 58, 64
2, 18351, Note_off_c, 0, 65, 64
2, 18388, Note_on_c, 0, 73, 66
2, 18388, Note_on_c, 0, 67, 64
2, 18392, Note_on_c, 0, 64, 48
2, 18392, Note_on_c, 0, 58, 59
2, 18398, Note_on_c, 0, 52, 59
2, 18410, Control_c, 0, 64, 0
2, 18418, Control_c, 0, 64, 0
2, 18419, Note_off_c, 0, 72, 64
2, 18423, Control_c, 0, 64, 127
2, 18431, Control_c, 0, 64, 127
2, 18441, Note_off_c, 0, 64, 64
2, 18448, Note_on_c, 0, 75, 74
2, 18452, Note_off_c, 0, 52, 64
2, 18457, Note_off_c, 0, 58, 64
2, 18470, Note_off_c, 0, 73, 64
2, 18488, Note_on_c, 0, 73, 72
2, 18501, Note_off_c, 0, 67, 64
2, 18516, Note_off_c, 0, 75, 64
2, 18568, Note_on_c, 0, 53, 48
2, 18572, Note_on_c, 0, 72, 72
2, 18572, Note_on_c, 0, 67, 64
2, 18572, Note_on_c, 0, 58, 48
2, 18574, Control_c, 0, 64, 0
2, 18576, Note_on_c, 0, 63, 64
2, 18582, Control_c, 0, 64, 0
2, 18598, Note_off_c, 0, 73, 64
2, 18604, Control_c, 0, 64, 127
2, 18612, Control_c, 0, 64, 127
2, 18621, Note_off_c, 0, 53, 64
2, 18625, Note_off_c, 0, 58, 64
2, 18628, Note_off_c, 0, 67, 64
2, 18632, Note_off_c, 0, 63, 64
2, 18748, Note_on_c, 0, 53, 59
2, 18748, Note_on_c, 0, 74, 71
2, 18752, Note_on_c, 0, 65, 52
2, 18754, Note_on_c, 0, 63, 63
2, 18756, Note_on_c, 0, 57, 66
2, 18770, Note_off_c, 0, 72, 64
2, 18811, Note_on_c, 0, 72, 72
2, 18823, Note_off_c, 0, 74, 64
2, 18870, Note_off_c, 0, 53, 64
2, 18874, Note_off_c, 0, 65, 64
2, 18876, Note_off_c, 0, 63, 64
2, 18878, Note_off_c, 0, 57, 64
2, 18902, Control_c, 0, 64, 0
2, 18910, Control_c, 0, 64, 0
2, 18922, Note_on_c, 0, 70, 82
2, 18922, Note_on_c, 0, 62, 55
2, 18924, Note_on_c, 0, 58, 64
2, 18930, Control_c, 0, 64, 127
2, 18935, Note_off_c, 0, 72, 64
2, 18938, Control_c, 0, 64, 127
2, 19042, Control_c, 0, 64, 0
2, 19050, Control_c, 0, 64, 0
2, 19072, Control_c, 0, 64, 127
2, 19080, Control_c, 0, 64, 127
2, 19101, Note_off_c, 0, 62, 64
2, 19103, Note_off_c, 0, 58, 64
2, 19134, Note_on_c, 0, 46, 55
2, 19140, Note_on_c, 0, 82, 65
2, 19253, Note_off_c, 0, 46, 64
2, 19254, Note_off_c, 0, 82, 64
2, 19321, Note_on_c, 0, 94, 81
2, 19327, Note_on_c, 0, 34, 80
2, 19390, Control_c, 0, 64, 0
2, 19398, Control_c, 0, 64, 0
2, 19437, Note_off_c, 0, 94, 64
2, 19438, Control_c, 0, 64, 0
2, 19446, Control_c, 0, 64, 0
2, 19458, Note_off_c, 0, 70, 64
2, 19464, Note_off_c, 0, 34, 64
2, 19505, Note_on_c, 0, 41, 56
2, 19511, Note_on_c, 0, 72, 82
2, 19536, Control_c, 0, 64, 0
2, 19544, Control_c, 0, 64, 0
2, 19565, Note_on_c, 0, 67, 82
2, 19567, Control_c, 0, 64, 127
2, 19575, Control_c, 0, 64, 127
2, 19587, Note_off_c, 0, 72, 64
2, 19692, Control_c, 0, 64, 0
2, 19696, Note_on_c, 0, 53, 31
2, 19700, Note_on_c, 0, 58, 56
2, 19700, Control_c, 0, 64, 0
2, 19704, Note_on_c, 0, 63, 66
2, 19705, Control_c, 0, 64, 127
2, 19713, Control_c, 0, 64, 127
2, 19749, Note_off_c, 0, 53, 64
2, 19774, Note_off_c, 0, 58, 64
2, 19792, Note_off_c, 0, 63, 64
2, 19872, Note_on_c, 0, 53, 40
2, 19875, Note_on_c, 0, 58, 62
2, 19877, Note_on_c, 0, 63, 52
2, 19928, Note_off_c, 0, 53, 64
2, 19937, Note_off_c, 0, 63, 64
2, 19940, Note_off_c, 0, 58, 64
2, 20040, Note_on_c, 0, 53, 52
2, 20042, Note_on_c, 0, 69, 80
2, 20044, Note_on_c, 0, 63, 50
2, 20044, Control_c, 0, 64, 0
2, 20048, Note_on_c, 0, 60, 44
2, 20052, Control_c, 0, 64, 0
2, 20058, Control_c, 0, 64, 127
2, 20064, Note_off_c, 0, 67, 64
2, 20066, Control_c, 0, 64, 127
2, 20083, Note_off_c, 0, 41, 64
2, 20088, Note_on_c, 0, 67, 75
2, 20096, Note_on_c, 0, 58, 56
2, 20108, Note_off_c, 0, 69, 64
2, 20141, Note_off_c, 0, 67, 64
2, 20154, Note_off_c, 0, 60, 64
2, 20156, Note_on_c, 0, 65, 73
2, 20160, Note_on_c, 0, 57, 46
2, 20176, Note_off_c, 0, 58, 64
2, 20200, Note_on_c, 0, 62, 60
2, 20200, Note_on_c, 0, 58, 69
2, 20201, Note_off_c, 0, 53, 64
2, 20202, Control_c, 0, 64, 0
2, 20206, Note_on_c, 0, 70, 105
2, 20210, Control_c, 0, 64, 0
2, 20211, Note_off_c, 0, 63, 64
2, 20223, Note_off_c, 0, 65, 64
2, 20233, Note_off_c, 0, 57, 64
2, 20237, Control_c, 0, 64, 127
2, 20245, Control_c, 0, 64, 127
2, 20337, Note_off_c, 0, 58, 64
2, 20337, Note_off_c, 0, 62, 64
2, 20385, Note_on_c, 0, 46, 85
2, 20393, Note_on_c, 0, 74, 67
2, 20403, Note_off_c, 0, 70, 64
2, 20474, Note_off_c, 0, 46, 64
2, 20530, Note_off_c, 0, 74, 64
2, 20563, Note_on_c, 0, 41, 81
2, 20568, Control_c, 0, 64, 0
2, 20569, Note_on_c, 0, 72, 82
2, 20576, Control_c, 0, 64, 0
2, 20600, Control_c, 0, 64, 127
2, 20608, Control_c, 0, 64, 127
2, 20615, Note_on_c, 0, 67, 80
2, 20636, Note_off_c, 0, 72, 64
2, 20738, Note_on_c, 0, 53, 33
2, 20744, Note_on_c, 0, 63, 48
2, 20746, Note_on_c, 0, 58, 59
2, 20792, Note_off_c, 0, 53, 64
2, 20796, Note_off_c, 0, 58, 64
2, 20799, Note_off_c, 0, 63, 64
2, 20916, Note_on_c, 0, 63, 71
2, 20921, Note_on_c, 0, 53, 62
2, 20924, Note_on_c, 0, 58, 46
2, 20978, Note_off_c, 0, 58, 64
2, 20985, Note_off_c, 0, 63, 64
2, 21002, Note_off_c, 0, 53, 64
2, 21085, Control_c, 0, 64, 0
2, 21087, Note_off_c, 0, 41, 64
2, 21092, Note_on_c, 0, 53, 69
2, 21093, Control_c, 0, 64, 0
2, 21096, Note_on_c, 0, 60, 70
2, 21099, Note_on_c, 0, 69, 73
2, 21100, Control_c, 0, 64, 127
2, 21108, Control_c, 0, 64, 127
2, 21110, Note_off_c, 0, 67, 64
2, 21140, Note_on_c, 0, 58, 62
2, 21140, Note_on_c, 0, 67, 72
2, 21155, Note_off_c, 0, 69, 64
2, 21192, Note_off_c, 0, 60, 64
2, 21192, Note_on_c, 0, 57, 23
2, 21197, Note_on_c, 0, 65, 75
2, 21205, Note_off_c, 0, 67, 64
2, 21207, Note_off_c, 0, 58, 64
2, 21248, Note_on_c, 0, 62, 63
2, 21250, Note_on_c, 0, 70, 100
2, 21253, Note_on_c, 0, 58, 74
2, 21254, Note_off_c, 0, 53, 64
2, 21255, Control_c, 0, 64, 0
2, 21263, Control_c, 0, 64, 0
2, 21270, Note_off_c, 0, 57, 64
2, 21275, Control_c, 0, 64, 127
2, 21283, Control_c, 0, 64, 127
2, 21292, Note_off_c, 0, 65, 64
2, 21422, Note_off_c, 0, 70, 64
2, 21433, Note_on_c, 0, 46, 74
2, 21433, Note_on_c, 0, 74, 71
2, 21437, Note_off_c, 0, 62, 64
2, 21442, Note_off_c, 0, 58, 64
2, 21502, Note_on_c, 0, 75, 74
2, 21549, Note_off_c, 0, 74, 64
2, 21549, Note_off_c, 0, 46, 64
2, 21600, Note_on_c, 0, 77, 62
2, 21600, Note_on_c, 0, 67, 54
2, 21601, Note_on_c, 0, 62, 63
2, 21601, Note_on_c, 0, 55, 48
2, 21607, Note_on_c, 0, 71, 62
2, 21608, Control_c, 0, 64, 0
2, 21616, Control_c, 0, 64, 0
2, 21627, Note_off_c, 0, 75, 64
2, 21629, Control_c, 0, 64, 127
2, 21637, Control_c, 0, 64, 127
2, 21643, Note_on_c, 0, 79, 54
2, 21651, Note_off_c, 0, 67, 64
2, 21652, Note_off_c, 0, 77, 64
2, 21701, Note_off_c, 0, 71, 64
2, 21705, Note_on_c, 0, 77, 62
2, 21720, Note_off_c, 0, 79, 64
2, 21757, Note_off_c, 0, 55, 64
2, 21760, Note_off_c, 0, 62, 64
2, 21766, Note_on_c, 0, 60, 59
2, 21770, Control_c, 0, 64, 0
2, 21770, Note_on_c, 0, 76, 74
2, 21770, Note_on_c, 0, 67, 59
2, 21773, Note_on_c, 0, 70, 74
2, 21778, Control_c, 0, 64, 0
2, 21780, Note_off_c, 0, 77, 64
2, 21783, Control_c, 0, 64, 127
2, 21791, Control_c, 0, 64, 127
2, 21870, Note_off_c, 0, 67, 64
2, 21887, Note_off_c, 0, 70, 64
2, 21899, Note_off_c, 0, 60, 64
2, 21936, Note_on_c, 0, 70, 1
2, 21938, Note_on_c, 0, 60, 59
2, 21940, Note_on_c, 0, 72, 71
2, 21940, Note_on_c, 0, 67, 48
2, 21967, Note_off_c, 0, 76, 64
2, 22006, Note_off_c, 0, 67, 64
2, 22009, Note_on_c, 0, 74, 66
2, 22017, Note_off_c, 0, 70, 64
2, 22030, Note_off_c, 0, 72, 64
2, 22056, Note_off_c, 0, 60, 64
2, 22097, Note_on_c, 0, 75, 62
2, 22100, Note_on_c, 0, 69, 63
2, 22100, Note_on_c, 0, 60, 62
2, 22100, Note_on_c, 0, 53, 64
2, 22106, Note_off_c, 0, 74, 64
2, 22106, Note_on_c, 0, 65, 55
2, 22112, Control_c, 0, 64, 0
2, 22120, Control_c, 0, 64, 0
2, 22122, Control_c, 0, 64, 127
2, 22130, Control_c, 0, 64, 127
2, 22141, Note_on_c, 0, 77, 62
2, 22156, Note_off_c, 0, 75, 64
2, 22175, Note_off_c, 0, 60, 64
2, 22192, Note_off_c, 0, 65, 64
2, 22197, Note_off_c, 0, 53, 64
2, 22198, Note_on_c, 0, 75, 59
2, 22205, Note_off_c, 0, 69, 64
2, 22210, Note_off_c, 0, 77, 64
2, 22252, Note_on_c, 0, 74, 63
2, 22252, Note_on_c, 0, 58, 48
2, 22256, Note_on_c, 0, 65, 62
2, 22256, Note_on_c, 0, 68, 72
2, 22268, Note_off_c, 0, 75, 64
2, 22271, Control_c, 0, 64, 0
2, 22279, Control_c, 0, 64, 0
2, 22282, Control_c, 0, 64, 127
2, 22290, Control_c, 0, 64, 127
2, 22331, Note_off_c, 0, 65, 64
2, 22350, Note_off_c, 0, 68, 64
2, 22362, Note_off_c, 0, 58, 64
2, 22424, Note_on_c, 0, 70, 63
2, 22424, Note_on_c, 0, 68, 55
2, 22428, Note_on_c, 0, 65, 55
2, 22428, Note_on_c, 0, 58, 66
2, 22447, Note_off_c, 0, 74, 64
2, 22530, Control_c, 0, 64, 0
2, 22536, Note_off_c, 0, 68, 64
2, 22538, Control_c, 0, 64, 0
2, 22572, Note_off_c, 0, 65, 64
2, 22602, Note_off_c, 0, 58, 64
2, 22604, Note_on_c, 0, 73, 66
2, 22604, Note_on_c, 0, 67, 62
2, 22604, Note_on_c, 0, 58, 66
2, 22606, Note_on_c, 0, 51, 54
2, 22613, Control_c, 0, 64, 0
2, 22621, Note_off_c, 0, 70, 64
2, 22621, Control_c, 0, 64, 0
2, 22623, Control_c, 0, 64, 127
2, 22631, Control_c, 0, 64, 127
2, 22650, Note_on_c, 0, 75, 59
2, 22662, Note_off_c, 0, 73, 64
2, 22687, Note_off_c, 0, 67, 64
2, 22707, Note_off_c, 0, 58, 64
2, 22712, Note_on_c, 0, 73, 46
2, 22722, Note_off_c, 0, 75, 64
2, 22749, Note_on_c, 0, 72, 72
2, 22749, Note_on_c, 0, 66, 63
2, 22752, Note_off_c, 0, 51, 64
2, 22761, Note_off_c, 0, 73, 64
2, 22761, Note_on_c, 0, 56, 64
2, 22763, Control_c, 0, 64, 0
2, 22764, Note_on_c, 0, 63, 59
2, 22771, Control_c, 0, 64, 0
2, 22794, Control_c, 0, 64, 127
2, 22802, Control_c, 0, 64, 127
2, 22900, Note_off_c, 0, 63, 64
2, 22909, Note_off_c, 0, 56, 64
2, 22910, Note_off_c, 0, 66, 64
2, 22915, Control_c, 0, 64, 0
2, 22923, Control_c, 0, 64, 0
2, 22928, Note_on_c, 0, 66, 55
2, 22929, Note_on_c, 0, 68, 64
2, 22930, Note_on_c, 0, 63, 66
2, 22934, Note_on_c, 0, 56, 57
2, 22947, Note_off_c, 0, 72, 64
2, 22951, Control_c, 0, 64, 127
2, 22959, Control_c, 0, 64, 127
2, 22984, Note_off_c, 0, 66, 64
2, 23005, Note_on_c, 0, 70, 63
2, 23021, Note_off_c, 0, 68, 64
2, 23045, Note_off_c, 0, 56, 64
2, 23052, Note_off_c, 0, 63, 64
2, 23100, Control_c, 0, 64, 0
2, 23103, Note_on_c, 0, 71, 63
2, 23104, Note_on_c, 0, 65, 55
2, 23104, Note_on_c, 0, 56, 37
2, 23107, Note_on_c, 0, 49, 62
2, 23108, Control_c, 0, 64, 0
2, 23116, Note_off_c, 0, 70, 64
2, 23127, Control_c, 0, 64, 127
2, 23135, Control_c, 0, 64, 127
2, 23158, Note_on_c, 0, 73, 71
2, 23173, Note_off_c, 0, 71, 64
2, 23176, Note_off_c, 0, 65, 64
2, 23225, Note_on_c, 0, 71, 55
2, 23239, Note_off_c, 0, 49, 64
2, 23244, Note_off_c, 0, 73, 64
2, 23256, Note_off_c, 0, 56, 64
2, 23271, Note_on_c, 0, 70, 71
2, 23277, Note_on_c, 0, 64, 62
2, 23282, Note_on_c, 0, 54, 46
2, 23282, Note_on_c, 0, 61, 52
2, 23284, Control_c, 0, 64, 0
2, 23289, Note_off_c, 0, 71, 64
2, 23292, Control_c, 0, 64, 0
2, 23333, Control_c, 0, 64, 127
2, 23341, Control_c, 0, 64, 127
2, 23350, Note_off_c, 0, 54, 64
2, 23354, Note_off_c, 0, 61, 64
2, 23421, Note_off_c, 0, 64, 64
2, 23468, Note_on_c, 0, 66, 75
2, 23472, Note_on_c, 0, 64, 62
2, 23475, Note_on_c, 0, 61, 48
2, 23478, Note_on_c, 0, 54, 55
2, 23505, Note_off_c, 0, 70, 64
2, 23555, Note_off_c, 0, 61, 64
2, 23558, Note_off_c, 0, 64, 64
2, 23578, Note_off_c, 0, 54, 64
2, 23602, Control_c, 0, 64, 0
2, 23610, Control_c, 0, 64, 0
2, 23626, Control_c, 0, 64, 0
2, 23634, Control_c, 0, 64, 0
2, 23683, Note_off_c, 0, 66, 64
2, 23696, Note_on_c, 0, 48, 65
2, 23700, Note_on_c, 0, 64, 73
2, 23701, Control_c, 0, 64, 0
2, 23704, Note_on_c, 0, 72, 82
2, 23709, Control_c, 0, 64, 0
2, 23747, Note_on_c, 0, 67, 90
2, 23755, Control_c, 0, 64, 127
2, 23759, Note_off_c, 0, 72, 64
2, 23763, Control_c, 0, 64, 127
2, 23771, Note_off_c, 0, 64, 64
2, 23868, Note_on_c, 0, 58, 62
2, 23874, Note_on_c, 0, 64, 48
2, 23921, Note_off_c, 0, 58, 64
2, 23923, Note_off_c, 0, 64, 64
2, 24049, Note_on_c, 0, 58, 44
2, 24057, Note_on_c, 0, 64, 48
2, 24111, Note_off_c, 0, 64, 64
2, 24116, Note_off_c, 0, 58, 64
2, 24218, Note_off_c, 0, 48, 64
2, 24226, Control_c, 0, 64, 0
2, 24234, Control_c, 0, 64, 0
2, 24236, Note_on_c, 0, 63, 62
2, 24238, Note_on_c, 0, 60, 57
2, 24244, Note_on_c, 0, 69, 72
2, 24244, Note_on_c, 0, 53, 55
2, 24252, Control_c, 0, 64, 127
2, 24260, Control_c, 0, 64, 127
2, 24263, Note_off_c, 0, 67, 64
2, 24296, Note_on_c, 0, 67, 65
2, 24303, Note_off_c, 0, 69, 64
2, 24304, Note_on_c, 0, 58, 56
2, 24334, Note_off_c, 0, 60, 64
2, 24344, Note_on_c, 0, 65, 65
2, 24357, Note_on_c, 0, 57, 35
2, 24361, Note_off_c, 0, 67, 64
2, 24384, Note_off_c, 0, 58, 64
2, 24384, Control_c, 0, 64, 0
2, 24392, Control_c, 0, 64, 0
2, 24404, Note_on_c, 0, 62, 41
2, 24405, Note_on_c, 0, 70, 88
2, 24408, Note_on_c, 0, 58, 58
2, 24415, Note_off_c, 0, 57, 64
2, 24418, Note_off_c, 0, 63, 64
2, 24419, Note_off_c, 0, 53, 64
2, 24420, Control_c, 0, 64, 127
2, 24428, Control_c, 0, 64, 127
2, 24435, Note_off_c, 0, 65, 64
2, 24554, Note_off_c, 0, 62, 64
2, 24558, Note_off_c, 0, 58, 64
2, 24576, Note_on_c, 0, 74, 73
2, 24579, Note_on_c, 0, 46, 72
2, 24605, Note_off_c, 0, 70, 64
2, 24743, Note_off_c, 0, 46, 64
2, 24776, Control_c, 0, 64, 0
2, 24778, Note_on_c, 0, 48, 65
2, 24780, Note_on_c, 0, 72, 73
2, 24783, Note_on_c, 0, 64, 67
2, 24784, Control_c, 0, 64, 0
2, 24786, Note_off_c, 0, 74, 64
2, 24819, Control_c, 0, 64, 127
2, 24827, Control_c, 0, 64, 127
2, 24833, Note_off_c, 0, 64, 64
2, 24836, Note_on_c, 0, 67, 84
2, 24854, Note_off_c, 0, 72, 64
2, 24935, Note_on_c, 0, 58, 36
2, 24943, Note_on_c, 0, 64, 36
2, 24978, Note_off_c, 0, 58, 64
2, 24982, Note_off_c, 0, 64, 64
2, 25119, Note_on_c, 0, 58, 48
2, 25123, Note_on_c, 0, 64, 43
2, 25164, Note_off_c, 0, 64, 64
2, 25170, Note_off_c, 0, 58, 64
2, 25285, Control_c, 0, 64, 0
2, 25293, Control_c, 0, 64, 0
2, 25296, Note_on_c, 0, 63, 51
2, 25296, Note_on_c, 0, 53, 49
2, 25298, Note_on_c, 0, 60, 50
2, 25303, Control_c, 0, 64, 127
2, 25304, Note_on_c, 0, 69, 64
2, 25311, Note_off_c, 0, 48, 64
2, 25311, Control_c, 0, 64, 127
2, 25313, Note_off_c, 0, 67, 64
2, 25340, Note_on_c, 0, 58, 49
2, 25347, Note_on_c, 0, 67, 73
2, 25361, Note_off_c, 0, 69, 64
2, 25399, Note_off_c, 0, 60, 64
2, 25400, Note_on_c, 0, 57, 41
2, 25403, Note_on_c, 0, 65, 58
2, 25413, Note_off_c, 0, 58, 64
2, 25420, Note_off_c, 0, 67, 64
2, 25446, Note_off_c, 0, 53, 64
2, 25448, Note_on_c, 0, 62, 63
2, 25448, Note_on_c, 0, 58, 63
2, 25451, Control_c, 0, 64, 0
2, 25455, Note_on_c, 0, 70, 82
2, 25459, Control_c, 0, 64, 0
2, 25461, Note_off_c, 0, 63, 64
2, 25464, Note_off_c, 0, 57, 64
2, 25469, Note_off_c, 0, 65, 64
2, 25477, Control_c, 0, 64, 127
2, 25485, Control_c, 0, 64, 127
2, 25596, Note_off_c, 0, 58, 64
2, 25596, Note_off_c, 0, 62, 64
2, 25641, Note_on_c, 0, 74, 67
2, 25644, Note_on_c, 0, 46, 79
2, 25656, Control_c, 0, 64, 0
2, 25664, Control_c, 0, 64, 0
2, 25677, Control_c, 0, 64, 127
2, 25680, Note_off_c, 0, 70, 64
2, 25685, Control_c, 0, 64, 127
2, 25708, Note_on_c, 0, 75, 74
2, 25740, Note_off_c, 0, 74, 64
2, 25755, Note_off_c, 0, 46, 64
2, 25804, Note_on_c, 0, 71, 67
2, 25808, Note_on_c, 0, 55, 66
2, 25808, Note_on_c, 0, 62, 56
2, 25810, Note_on_c, 0, 77, 63
2, 25812, Note_on_c, 0, 67, 63
2, 25824, Control_c, 0, 64, 0
2, 25831, Note_off_c, 0, 75, 64
2, 25832, Control_c, 0, 64, 0
2, 25835, Control_c, 0, 64, 127
2, 25843, Control_c, 0, 64, 127
2, 25862, Note_on_c, 0, 79, 71
2, 25866, Note_off_c, 0, 67, 64
2, 25874, Note_off_c, 0, 77, 64
2, 25895, Note_off_c, 0, 71, 64
2, 25920, Note_on_c, 0, 77, 56
2, 25939, Note_off_c, 0, 55, 64
2, 25944, Note_off_c, 0, 62, 64
2, 25944, Note_off_c, 0, 79, 64
2, 25976, Note_on_c, 0, 76, 75
2, 25976, Note_on_c, 0, 60, 67
2, 25977, Control_c, 0, 64, 0
2, 25979, Note_on_c, 0, 70, 74
2, 25980, Note_on_c, 0, 67, 67
2, 25985, Control_c, 0, 64, 0
2, 25987, Note_off_c, 0, 77, 64
2, 25987, Control_c, 0, 64, 127
2, 25995, Control_c, 0, 64, 127
2, 26042, Note_off_c, 0, 67, 64
2, 26047, Note_off_c, 0, 60, 64
2, 26095, Note_off_c, 0, 70, 64
2, 26129, Control_c, 0, 64, 0
2, 26137, Control_c, 0, 64, 0
2, 26146, Note_on_c, 0, 60, 66
2, 26148, Note_on_c, 0, 72, 79
2, 26150, Note_on_c, 0, 67, 66
2, 26152, Note_on_c, 0, 70, 71
2, 26168, Control_c, 0, 64, 127
2, 26171, Note_off_c, 0, 76, 64
2, 26176, Control_c, 0, 64, 127
2, 26195, Note_off_c, 0, 67, 64
2, 26205, Note_off_c, 0, 60, 64
2, 26209, Note_off_c, 0, 70, 64
2, 26216, Note_on_c, 0, 74, 66
2, 26234, Note_off_c, 0, 72, 64
2, 26292, Note_on_c, 0, 60, 66
2, 26292, Note_on_c, 0, 53, 67
2, 26295, Note_on_c, 0, 75, 59
2, 26296, Note_on_c, 0, 69, 52
2, 26306, Note_off_c, 0, 74, 64
2, 26312, Control_c, 0, 64, 0
2, 26320, Control_c, 0, 64, 0
2, 26334, Control_c, 0, 64, 127
2, 26342, Control_c, 0, 64, 127
2, 26348, Note_on_c, 0, 77, 72
2, 26370, Note_off_c, 0, 75, 64
2, 26391, Note_off_c, 0, 69, 64
2, 26399, Note_off_c, 0, 53, 64
2, 26407, Note_on_c, 0, 75, 64
2, 26413, Note_off_c, 0, 60, 64
2, 26419, Note_off_c, 0, 77, 64
2, 26456, Note_on_c, 0, 58, 66
2, 26456, Note_on_c, 0, 68, 66
2, 26461, Note_on_c, 0, 74, 66
2, 26461, Note_on_c, 0, 65, 62
2, 26462, Control_c, 0, 64, 0
2, 26470, Control_c, 0, 64, 0
2, 26476, Note_off_c, 0, 75, 64
2, 26484, Control_c, 0, 64, 127
2, 26492, Control_c, 0, 64, 127
2, 26522, Note_off_c, 0, 68, 64
2, 26527, Note_off_c, 0, 65, 64
2, 26533, Note_off_c, 0, 58, 64
2, 26626, Note_on_c, 0, 70, 72
2, 26628, Note_on_c, 0, 68, 59
2, 26628, Note_on_c, 0, 65, 66
2, 26635, Note_on_c, 0, 58, 74
2, 26651, Note_off_c, 0, 74, 64
2, 26674, Note_off_c, 0, 65, 64
2, 26677, Note_off_c, 0, 68, 64
2, 26688, Note_off_c, 0, 58, 64
2, 26695, Note_on_c, 0, 72, 64
2, 26710, Note_off_c, 0, 70, 64
2, 26792, Note_on_c, 0, 67, 44
2, 26792, Note_on_c, 0, 73, 66
2, 26796, Note_on_c, 0, 52, 59
2, 26797, Note_on_c, 0, 64, 52
2, 26797, Note_on_c, 0, 58, 59
2, 26799, Control_c, 0, 64, 0
2, 26807, Control_c, 0, 64, 0
2, 26813, Note_off_c, 0, 72, 64
2, 26815, Control_c, 0, 64, 127
2, 26823, Control_c, 0, 64, 127
2, 26841, Note_off_c, 0, 52, 64
2, 26846, Note_off_c, 0, 64, 64
2, 26852, Note_on_c, 0, 75, 66
2, 26861, Note_off_c, 0, 73, 64
2, 26876, Note_off_c, 0, 58, 64
2, 26888, Note_on_c, 0, 73, 59
2, 26917, Note_off_c, 0, 75, 64
2, 26919, Note_off_c, 0, 67, 64
2, 26960, Note_on_c, 0, 72, 67
2, 26960, Note_on_c, 0, 67, 64
2, 26960, Note_on_c, 0, 63, 66
2, 26960, Note_on_c, 0, 53, 62
2, 26964, Note_on_c, 0, 58, 32
2, 26968, Control_c, 0, 64, 0
2, 26976, Control_c, 0, 64, 0
2, 26986, Note_off_c, 0, 73, 64
2, 26998, Control_c, 0, 64, 127
2, 27006, Control_c, 0, 64, 127
2, 27035, Note_off_c, 0, 58, 64
2, 27046, Note_off_c, 0, 53, 64
2, 27046, Note_off_c, 0, 63, 64
2, 27046, Note_off_c, 0, 67, 64
2, 27152, Note_on_c, 0, 65, 52
2, 27156, Note_on_c, 0, 53, 52
2, 27158, Note_on_c, 0, 63, 48
2, 27160, Note_on_c, 0, 74, 66
2, 27160, Note_on_c, 0, 57, 52
2, 27164, Note_off_c, 0, 72, 64
2, 27169, Control_c, 0, 64, 0
2, 27177, Control_c, 0, 64, 0
2, 27188, Control_c, 0, 64, 127
2, 27196, Control_c, 0, 64, 127
2, 27224, Note_on_c, 0, 72, 66
2, 27235, Note_off_c, 0, 74, 64
2, 27274, Note_off_c, 0, 65, 64
2, 27280, Note_off_c, 0, 63, 64
2, 27282, Note_off_c, 0, 57, 64
2, 27293, Note_off_c, 0, 53, 64
2, 27314, Note_on_c, 0, 70, 82
2, 27316, Note_on_c, 0, 62, 48
2, 27316, Note_on_c, 0, 58, 66
2, 27331, Note_off_c, 0, 72, 64
2, 27430, Control_c, 0, 64, 0
2, 27438, Control_c, 0, 64, 0
2, 27512, Note_off_c, 0, 62, 64
2, 27520, Note_on_c, 0, 46, 39
2, 27520, Note_on_c, 0, 82, 73
2, 27560, Note_off_c, 0, 58, 64
2, 27724, Note_on_c, 0, 94, 81
2, 27738, Note_on_c, 0, 34, 75
2, 27811, Note_off_c, 0, 82, 64
2, 27886, Note_off_c, 0, 94, 64
2, 27922, Note_off_c, 0, 34, 64
2, 27950, Note_off_c, 0, 46, 64
2, 27979, Note_on_c, 0, 62, 60
2, 27982, Note_off_c, 0, 70, 64
2, 27988, Control_c, 0, 64, 0
2, 27996, Control_c, 0, 64, 0
2, 28036, Control_c, 0, 64, 127
2, 28044, Control_c, 0, 64, 127
2, 28078, Note_on_c, 0, 63, 59
2, 28099, Note_off_c, 0, 62, 64
2, 28204, Note_on_c, 0, 62, 73
2, 28216, Control_c, 0, 64, 0
2, 28224, Control_c, 0, 64, 0
2, 28227, Note_off_c, 0, 63, 64
2, 28281, Control_c, 0, 64, 127
2, 28289, Control_c, 0, 64, 127
2, 28430, Note_on_c, 0, 69, 59
2, 28448, Control_c, 0, 64, 0
2, 28450, Note_off_c, 0, 62, 64
2, 28456, Control_c, 0, 64, 0
2, 28503, Control_c, 0, 64, 127
2, 28511, Control_c, 0, 64, 127
2, 28721, Note_on_c, 0, 67, 67
2, 28739, Note_off_c, 0, 69, 64
2, 28780, Control_c, 0, 64, 0
2, 28788, Control_c, 0, 64, 0
2, 28789, Control_c, 0, 64, 127
2, 28797, Control_c, 0, 64, 127
2, 29053, Note_on_c, 0, 66, 60
2, 29077, Note_off_c, 0, 67, 64
2, 29146, Control_c, 0, 64, 0
2, 29154, Control_c, 0, 64, 0
2, 29175, Control_c, 0, 64, 127
2, 29183, Control_c, 0, 64, 127
2, 29431, Note_on_c, 0, 63, 57
2, 29447, Note_off_c, 0, 66, 64
2, 29495, Control_c, 0, 64, 0
2, 29503, Control_c, 0, 64, 0
2, 29506, Control_c, 0, 64, 127
2, 29514, Control_c, 0, 64, 127
2, 29547, Note_on_c, 0, 62, 75
2, 29561, Note_off_c, 0, 63, 64
2, 29628, Note_on_c, 0, 63, 59
2, 29659, Control_c, 0, 64, 0
2, 29664, Note_off_c, 0, 62, 64
2, 29667, Control_c, 0, 64, 0
2, 29715, Control_c, 0, 64, 127
2, 29723, Control_c, 0, 64, 127
2, 29733, Note_on_c, 0, 62, 80
2, 29759, Note_off_c, 0, 63, 64
2, 29948, Note_on_c, 0, 69, 69
2, 29967, Control_c, 0, 64, 0
2, 29975, Note_off_c, 0, 62, 64
2, 29975, Control_c, 0, 64, 0
2, 30014, Control_c, 0, 64, 127
2, 30022, Control_c, 0, 64, 127
2, 30212, Note_on_c, 0, 67, 69
2, 30236, Note_off_c, 0, 69, 64
2, 30288, Note_on_c, 0, 69, 70
2, 30302, Note_off_c, 0, 67, 64
2, 30345, Note_on_c, 0, 67, 58
2, 30354, Note_off_c, 0, 69, 64
2, 30416, Note_on_c, 0, 66, 77
2, 30422, Control_c, 0, 64, 0
2, 30430, Control_c, 0, 64, 0
2, 30437, Note_off_c, 0, 67, 64
2, 30497, Control_c, 0, 64, 127
2, 30505, Control_c, 0, 64, 127
2, 30711, Note_on_c, 0, 63, 57
2, 30733, Note_off_c, 0, 66, 64
2, 30736, Control_c, 0, 64, 0
2, 30744, Control_c, 0, 64, 0
2, 30785, Control_c, 0, 64, 127
2, 30793, Control_c, 0, 64, 127
2, 31045, Note_on_c, 0, 62, 72
2, 31064, Note_off_c, 0, 63, 64
2, 31076, Control_c, 0, 64, 0
2, 31084, Control_c, 0, 64, 0
2, 31096, Control_c, 0, 64, 127
2, 31104, Control_c, 0, 64, 127
2, 31179, Note_on_c, 0, 63, 46
2, 31195, Note_off_c, 0, 62, 64
2, 31304, Note_on_c, 0, 62, 74
2, 31312, Control_c, 0, 64, 0
2, 31320, Note_off_c, 0, 63, 64
2, 31320, Control_c, 0, 64, 0
2, 31359, Control_c, 0, 64, 127
2, 31367, Control_c, 0, 64, 127
2, 31541, Note_on_c, 0, 72, 77
2, 31592, Note_off_c, 0, 62, 64
2, 31820, Note_on_c, 0, 71, 63
2, 31863, Note_off_c, 0, 72, 64
2, 31928, Note_on_c, 0, 70, 66
2, 31955, Note_off_c, 0, 71, 64
2, 32040, Note_on_c, 0, 69, 58
2, 32057, Note_off_c, 0, 70, 64
2, 32063, Control_c, 0, 64, 0
2, 32071, Control_c, 0, 64, 0
2, 32208, Control_c, 0, 64, 127
2, 32216, Control_c, 0, 64, 127
2, 32281, Note_on_c, 0, 68, 62
2, 32304, Note_off_c, 0, 69, 64
2, 32406, Note_on_c, 0, 67, 56
2, 32429, Note_off_c, 0, 68, 64
2, 32567, Note_on_c, 0, 66, 35
2, 32578, Control_c, 0, 64, 0
2, 32586, Note_off_c, 0, 67, 64
2, 32586, Control_c, 0, 64, 0
2, 32624, Control_c, 0, 64, 127
2, 32632, Control_c, 0, 64, 127
2, 32744, Note_on_c, 0, 73, 56
2, 32786, Note_off_c, 0, 66, 64
2, 32948, Note_on_c, 0, 74, 55
2, 32964, Note_off_c, 0, 73, 64
2, 33001, Control_c, 0, 64, 0
2, 33009, Control_c, 0, 64, 0
2, 33066, Control_c, 0, 64, 127
2, 33074, Control_c, 0, 64, 127
2, 33477, Note_on_c, 0, 75, 37
2, 33521, Note_off_c, 0, 74, 64
2, 33651, Note_on_c, 0, 74, 60
2, 33667, Note_off_c, 0, 75, 64
2, 33817, Note_on_c, 0, 75, 58
2, 33841, Note_off_c, 0, 74, 64
2, 33972, Note_on_c, 0, 74, 71
2, 33984, Note_off_c, 0, 75, 64
2, 34119, Note_on_c, 0, 75, 85
2, 34161, Note_off_c, 0, 74, 64
2, 34280, Note_on_c, 0, 74, 73
2, 34326, Note_off_c, 0, 75, 64
2, 34490, Note_on_c, 0, 75, 70
2, 34528, Note_off_c, 0, 74, 64
2, 34727, Note_on_c, 0, 38, 47
2, 34735, Note_on_c, 0, 74, 86
2, 34756, Control_c, 0, 64, 0
2, 34757, Note_off_c, 0, 75, 64
2, 34764, Control_c, 0, 64, 0
2, 34795, Control_c, 0, 64, 127
2, 34803, Control_c, 0, 64, 127
2, 34940, Note_off_c, 0, 74, 64
2, 34950, Note_on_c, 0, 77, 51
2, 34979, Note_on_c, 0, 75, 66
2, 35002, Note_off_c, 0, 77, 64
2, 35021, Note_on_c, 0, 74, 89
2, 35026, Control_c, 0, 64, 0
2, 35028, Note_on_c, 0, 54, 43
2, 35032, Note_on_c, 0, 60, 47
2, 35034, Control_c, 0, 64, 0
2, 35037, Note_on_c, 0, 62, 47
2, 35038, Note_off_c, 0, 75, 64
2, 35050, Control_c, 0, 64, 127
2, 35058, Control_c, 0, 64, 127
2, 35096, Note_off_c, 0, 60, 64
2, 35111, Note_off_c, 0, 62, 64
2, 35117, Note_off_c, 0, 54, 64
2, 35241, Note_on_c, 0, 54, 47
2, 35248, Note_off_c, 0, 74, 64
2, 35248, Note_on_c, 0, 60, 35
2, 35248, Note_on_c, 0, 69, 75
2, 35254, Note_on_c, 0, 62, 40
2, 35298, Note_off_c, 0, 60, 64
2, 35301, Note_off_c, 0, 62, 64
2, 35306, Note_off_c, 0, 38, 64
2, 35313, Note_off_c, 0, 54, 64
2, 35474, Note_on_c, 0, 70, 90
2, 35478, Note_on_c, 0, 43, 78
2, 35494, Control_c, 0, 64, 0
2, 35502, Control_c, 0, 64, 0
2, 35506, Note_off_c, 0, 69, 64
2, 35525, Control_c, 0, 64, 127
2, 35533, Control_c, 0, 64, 127
2, 35692, Note_on_c, 0, 55, 31
2, 35702, Note_on_c, 0, 62, 49
2, 35703, Note_on_c, 0, 58, 47
2, 35754, Note_off_c, 0, 55, 64
2, 35756, Note_off_c, 0, 62, 64
2, 35759, Note_off_c, 0, 58, 64
2, 35782, Note_on_c, 0, 67, 75
2, 35805, Note_off_c, 0, 70, 64
2, 35876, Note_on_c, 0, 63, 59
2, 35882, Note_on_c, 0, 74, 73
2, 35888, Note_on_c, 0, 55, 60
2, 35888, Note_on_c, 0, 58, 54
2, 35890, Note_off_c, 0, 67, 64
2, 35925, Note_off_c, 0, 63, 64
2, 35940, Note_off_c, 0, 58, 64
2, 35950, Note_off_c, 0, 55, 64
2, 35965, Note_on_c, 0, 75, 82
2, 35988, Note_off_c, 0, 74, 64
2, 36021, Note_off_c, 0, 43, 64
2, 36058, Note_on_c, 0, 77, 72
2, 36062, Note_on_c, 0, 45, 72
2, 36071, Control_c, 0, 64, 0
2, 36076, Note_off_c, 0, 75, 64
2, 36079, Control_c, 0, 64, 0
2, 36092, Control_c, 0, 64, 127
2, 36100, Control_c, 0, 64, 127
2, 36173, Note_on_c, 0, 81, 64
2, 36180, Note_off_c, 0, 77, 64
2, 36204, Note_on_c, 0, 79, 65
2, 36222, Note_off_c, 0, 81, 64
2, 36236, Note_on_c, 0, 53, 54
2, 36237, Note_on_c, 0, 63, 52
2, 36240, Control_c, 0, 64, 0
2, 36240, Note_on_c, 0, 60, 54
2, 36243, Note_on_c, 0, 77, 90
2, 36248, Control_c, 0, 64, 0
2, 36256, Note_off_c, 0, 79, 64
2, 36263, Control_c, 0, 64, 127
2, 36271, Control_c, 0, 64, 127
2, 36280, Note_off_c, 0, 60, 64
2, 36282, Note_off_c, 0, 53, 64
2, 36295, Note_off_c, 0, 63, 64
2, 36419, Note_on_c, 0, 63, 58
2, 36424, Note_on_c, 0, 72, 75
2, 36424, Note_on_c, 0, 53, 54
2, 36433, Note_on_c, 0, 57, 54
2, 36446, Note_off_c, 0, 77, 64
2, 36458, Note_off_c, 0, 63, 64
2, 36470, Note_off_c, 0, 53, 64
2, 36473, Note_off_c, 0, 57, 64
2, 36588, Note_off_c, 0, 45, 64
2, 36623, Note_on_c, 0, 46, 59
2, 36632, Note_on_c, 0, 74, 80
2, 36660, Control_c, 0, 64, 0
2, 36664, Note_off_c, 0, 72, 64
2, 36668, Control_c, 0, 64, 0
2, 36690, Control_c, 0, 64, 127
2, 36698, Control_c, 0, 64, 127
2, 36832, Note_on_c, 0, 53, 35
2, 36841, Note_on_c, 0, 58, 49
2, 36845, Note_on_c, 0, 62, 23
2, 36910, Note_off_c, 0, 53, 64
2, 36913, Note_off_c, 0, 58, 64
2, 36919, Note_off_c, 0, 62, 64
2, 36945, Note_off_c, 0, 74, 64
2, 37021, Note_on_c, 0, 74, 80
2, 37025, Note_on_c, 0, 62, 58
2, 37032, Note_on_c, 0, 58, 49
2, 37032, Note_on_c, 0, 53, 49
2, 37060, Note_off_c, 0, 74, 64
2, 37106, Note_on_c, 0, 74, 85
2, 37131, Note_off_c, 0, 62, 64
2, 37144, Note_off_c, 0, 74, 64
2, 37150, Note_off_c, 0, 58, 64
2, 37158, Note_off_c, 0, 53, 64
2, 37186, Control_c, 0, 64, 0
2, 37190, Note_on_c, 0, 74, 95
2, 37193, Note_off_c, 0, 46, 64
2, 37194, Control_c, 0, 64, 0
2, 37206, Control_c, 0, 64, 127
2, 37214, Control_c, 0, 64, 127
2, 37280, Note_off_c, 0, 74, 64
2, 37285, Note_on_c, 0, 77, 66
2, 37317, Note_on_c, 0, 75, 64
2, 37335, Note_off_c, 0, 77, 64
2, 37344, Control_c, 0, 64, 0
2, 37348, Note_on_c, 0, 54, 59
2, 37352, Control_c, 0, 64, 0
2, 37358, Note_on_c, 0, 60, 37
2, 37358, Note_on_c, 0, 50, 32
2, 37359, Note_on_c, 0, 74, 86
2, 37371, Control_c, 0, 64, 127
2, 37378, Note_off_c, 0, 75, 64
2, 37379, Control_c, 0, 64, 127
2, 37397, Note_off_c, 0, 54, 64
2, 37408, Note_off_c, 0, 50, 64
2, 37410, Note_off_c, 0, 60, 64
2, 37524, Note_on_c, 0, 60, 58
2, 37524, Note_on_c, 0, 54, 59
2, 37530, Note_on_c, 0, 50, 46
2, 37531, Note_on_c, 0, 69, 86
2, 37546, Note_off_c, 0, 74, 64
2, 37554, Note_off_c, 0, 60, 64
2, 37561, Note_off_c, 0, 54, 64
2, 37570, Note_off_c, 0, 50, 64
2, 37665, Note_off_c, 0, 69, 64
2, 37674, Note_on_c, 0, 72, 78
2, 37701, Note_on_c, 0, 70, 87
2, 37714, Note_on_c, 0, 43, 80
2, 37721, Control_c, 0, 64, 0
2, 37726, Note_off_c, 0, 72, 64
2, 37729, Control_c, 0, 64, 0
2, 37741, Control_c, 0, 64, 127
2, 37749, Control_c, 0, 64, 127
2, 37794, Note_on_c, 0, 69, 74
2, 37810, Note_off_c, 0, 70, 64
2, 37878, Note_on_c, 0, 58, 71
2, 37880, Control_c, 0, 64, 0
2, 37880, Note_on_c, 0, 67, 78
2, 37885, Note_off_c, 0, 69, 64
2, 37886, Note_on_c, 0, 50, 72
2, 37888, Control_c, 0, 64, 0
2, 37893, Control_c, 0, 64, 127
2, 37901, Control_c, 0, 64, 127
2, 38096, Note_on_c, 0, 63, 80
2, 38098, Note_on_c, 0, 72, 88
2, 38106, Note_on_c, 0, 55, 71
2, 38107, Note_off_c, 0, 50, 64
2, 38109, Note_on_c, 0, 48, 59
2, 38112, Note_off_c, 0, 67, 64
2, 38132, Control_c, 0, 64, 0
2, 38136, Note_off_c, 0, 43, 64
2, 38140, Control_c, 0, 64, 0
2, 38142, Note_off_c, 0, 58, 64
2, 38186, Control_c, 0, 64, 127
2, 38194, Control_c, 0, 64, 127
2, 38301, Note_on_c, 0, 67, 74
2, 38312, Note_off_c, 0, 72, 64
2, 38356, Note_off_c, 0, 63, 64
2, 38360, Note_on_c, 0, 69, 75
2, 38379, Note_off_c, 0, 67, 64
2, 38444, Note_off_c, 0, 48, 64
2, 38444, Note_on_c, 0, 43, 72
2, 38451, Note_on_c, 0, 70, 89
2, 38455, Note_on_c, 0, 62, 89
2, 38455, Note_on_c, 0, 50, 78
2, 38460, Control_c, 0, 64, 0
2, 38461, Note_off_c, 0, 69, 64
2, 38468, Control_c, 0, 64, 0
2, 38481, Note_off_c, 0, 55, 64
2, 38490, Control_c, 0, 64, 127
2, 38498, Control_c, 0, 64, 127
2, 38528, Note_off_c, 0, 62, 64
2, 38647, Note_on_c, 0, 72, 89
2, 38651, Note_on_c, 0, 63, 87
2, 38657, Note_on_c, 0, 48, 80
2, 38658, Note_off_c, 0, 43, 64
2, 38658, Note_on_c, 0, 55, 80
2, 38664, Note_off_c, 0, 70, 64
2, 38671, Note_off_c, 0, 50, 64
2, 38675, Control_c, 0, 64, 0
2, 38683, Control_c, 0, 64, 0
2, 38741, Control_c, 0, 64, 127
2, 38749, Control_c, 0, 64, 127
2, 38863, Note_on_c, 0, 67, 74
2, 38874, Note_off_c, 0, 72, 64
2, 38945, Note_on_c, 0, 69, 71
2, 38949, Note_off_c, 0, 63, 64
2, 38965, Note_off_c, 0, 67, 64
2, 39037, Note_off_c, 0, 48, 64
2, 39050, Note_on_c, 0, 43, 66
2, 39056, Note_on_c, 0, 62, 89
2, 39059, Note_on_c, 0, 70, 93
2, 39059, Note_on_c, 0, 50, 82
2, 39072, Control_c, 0, 64, 0
2, 39073, Note_off_c, 0, 69, 64
2, 39080, Control_c, 0, 64, 0
2, 39087, Note_off_c, 0, 55, 64
2, 39095, Control_c, 0, 64, 127
2, 39103, Control_c, 0, 64, 127
2, 39260, Note_off_c, 0, 62, 64
2, 39293, Note_off_c, 0, 43, 64
2, 39299, Note_off_c, 0, 50, 64
2, 39304, Note_on_c, 0, 63, 80
2, 39309, Note_on_c, 0, 48, 65
2, 39313, Note_on_c, 0, 55, 69
2, 39320, Note_on_c, 0, 72, 89
2, 39335, Note_off_c, 0, 70, 64
2, 39391, Note_off_c, 0, 55, 64
2, 39419, Note_off_c, 0, 48, 64
2, 39510, Note_off_c, 0, 63, 64
2, 39556, Note_on_c, 0, 42, 75
2, 39557, Control_c, 0, 64, 0
2, 39564, Note_on_c, 0, 62, 81
2, 39565, Note_on_c, 0, 74, 88
2, 39565, Control_c, 0, 64, 0
2, 39566, Note_off_c, 0, 72, 64
2, 39589, Control_c, 0, 64, 127
2, 39597, Control_c, 0, 64, 127
2, 39680, Note_off_c, 0, 62, 64
2, 39683, Note_on_c, 0, 75, 74
2, 39692, Note_off_c, 0, 74, 64
2, 39759, Control_c, 0, 64, 0
2, 39767, Control_c, 0, 64, 0
2, 39776, Note_on_c, 0, 50, 49
2, 39777, Note_off_c, 0, 75, 64
2, 39781, Note_on_c, 0, 74, 88
2, 39784, Note_on_c, 0, 60, 52
2, 39805, Control_c, 0, 64, 127
2, 39813, Control_c, 0, 64, 127
2, 39835, Note_off_c, 0, 50, 64
2, 39843, Note_off_c, 0, 60, 64
2, 39855, Note_off_c, 0, 42, 64
2, 39955, Note_on_c, 0, 50, 59
2, 39957, Note_on_c, 0, 60, 58
2, 39963, Note_on_c, 0, 69, 86
2, 39973, Note_off_c, 0, 74, 64
2, 39997, Note_off_c, 0, 60, 64
2, 40002, Note_off_c, 0, 50, 64
2, 40144, Note_on_c, 0, 70, 86
2, 40145, Control_c, 0, 64, 0
2, 40147, Note_on_c, 0, 43, 88
2, 40153, Control_c, 0, 64, 0
2, 40157, Note_off_c, 0, 69, 64
2, 40176, Control_c, 0, 64, 127
2, 40184, Control_c, 0, 64, 127
2, 40321, Note_on_c, 0, 55, 49
2, 40328, Control_c, 0, 64, 0
2, 40333, Note_on_c, 0, 58, 59
2, 40336, Control_c, 0, 64, 0
2, 40341, Note_on_c, 0, 62, 59
2, 40351, Control_c, 0, 64, 127
2, 40359, Control_c, 0, 64, 127
2, 40395, Note_off_c, 0, 55, 64
2, 40396, Note_off_c, 0, 58, 64
2, 40407, Note_on_c, 0, 67, 82
2, 40411, Note_off_c, 0, 62, 64
2, 40439, Note_off_c, 0, 43, 64
2, 40449, Note_off_c, 0, 70, 64
2, 40526, Note_on_c, 0, 63, 59
2, 40534, Note_on_c, 0, 58, 57
2, 40534, Note_on_c, 0, 55, 59
2, 40539, Control_c, 0, 64, 0
2, 40540, Note_on_c, 0, 74, 89
2, 40547, Control_c, 0, 64, 0
2, 40570, Note_off_c, 0, 63, 64
2, 40572, Note_off_c, 0, 67, 64
2, 40572, Control_c, 0, 64, 127
2, 40576, Note_off_c, 0, 55, 64
2, 40578, Note_off_c, 0, 58, 64
2, 40580, Control_c, 0, 64, 127
2, 40636, Note_on_c, 0, 75, 95
2, 40664, Note_off_c, 0, 74, 64
2, 40739, Note_on_c, 0, 77, 82
2, 40744, Control_c, 0, 64, 0
2, 40744, Note_on_c, 0, 45, 80
2, 40752, Control_c, 0, 64, 0
2, 40760, Note_off_c, 0, 75, 64
2, 40765, Control_c, 0, 64, 127
2, 40773, Control_c, 0, 64, 127
2, 40864, Note_on_c, 0, 81, 81
2, 40874, Note_off_c, 0, 77, 64
2, 40896, Note_on_c, 0, 79, 82
2, 40912, Note_off_c, 0, 81, 64
2, 40920, Note_on_c, 0, 63, 64
2, 40926, Note_on_c, 0, 53, 58
2, 40928, Note_on_c, 0, 60, 54
2, 40934, Control_c, 0, 64, 0
2, 40939, Note_on_c, 0, 77, 93
2, 40942, Control_c, 0, 64, 0
2, 40950, Note_off_c, 0, 79, 64
2, 40964, Control_c, 0, 64, 127
2, 40972, Control_c, 0, 64, 127
2, 40990, Note_off_c, 0, 60, 64
2, 40995, Note_off_c, 0, 53, 64
2, 41006, Note_off_c, 0, 63, 64
2, 41027, Note_off_c, 0, 45, 64
2, 41109, Note_on_c, 0, 53, 59
2, 41115, Note_on_c, 0, 63, 59
2, 41116, Note_off_c, 0, 77, 64
2, 41116, Note_on_c, 0, 72, 78
2, 41122, Note_on_c, 0, 57, 59
2, 41123, Control_c, 0, 64, 0
2, 41131, Control_c, 0, 64, 0
2, 41136, Control_c, 0, 64, 127
2, 41144, Control_c, 0, 64, 127
2, 41158, Note_off_c, 0, 63, 64
2, 41166, Note_off_c, 0, 57, 64
2, 41168, Note_off_c, 0, 53, 64
2, 41356, Note_on_c, 0, 46, 71
2, 41369, Control_c, 0, 64, 0
2, 41370, Note_on_c, 0, 74, 87
2, 41377, Control_c, 0, 64, 0
2, 41390, Note_off_c, 0, 72, 64
2, 41409, Control_c, 0, 64, 127
2, 41417, Control_c, 0, 64, 127
2, 41619, Note_on_c, 0, 53, 59
2, 41621, Note_on_c, 0, 58, 54
2, 41624, Control_c, 0, 64, 0
2, 41626, Note_on_c, 0, 62, 54
2, 41632, Control_c, 0, 64, 0
2, 41644, Control_c, 0, 64, 127
2, 41652, Control_c, 0, 64, 127
2, 41688, Note_off_c, 0, 58, 64
2, 41690, Note_off_c, 0, 53, 64
2, 41696, Note_off_c, 0, 46, 64
2, 41698, Note_off_c, 0, 62, 64
2, 41725, Note_off_c, 0, 74, 64
2, 41838, Note_on_c, 0, 58, 54
2, 41841, Note_on_c, 0, 62, 51
2, 41841, Note_on_c, 0, 53, 40
2, 41844, Note_on_c, 0, 74, 86
2, 41881, Note_off_c, 0, 74, 64
2, 41922, Note_on_c, 0, 74, 89
2, 41960, Note_off_c, 0, 74, 64
2, 41996, Note_on_c, 0, 74, 93
2, 42008, Note_off_c, 0, 62, 64
2, 42019, Note_off_c, 0, 58, 64
2, 42021, Note_off_c, 0, 53, 64
2, 42106, Note_off_c, 0, 74, 64
2, 42117, Note_on_c, 0, 77, 74
2, 42144, Note_on_c, 0, 75, 87
2, 42164, Note_off_c, 0, 77, 64
2, 42167, Control_c, 0, 64, 0
2, 42175, Control_c, 0, 64, 0
2, 42182, Note_on_c, 0, 50, 54
2, 42182, Note_on_c, 0, 54, 43
2, 42185, Note_on_c, 0, 60, 49
2, 42189, Note_on_c, 0, 74, 75
2, 42202, Note_off_c, 0, 75, 64
2, 42217, Control_c, 0, 64, 127
2, 42225, Control_c, 0, 64, 127
2, 42239, Note_off_c, 0, 54, 64
2, 42250, Note_off_c, 0, 50, 64
2, 42254, Note_off_c, 0, 60, 64
2, 42376, Note_on_c, 0, 50, 59
2, 42383, Note_on_c, 0, 60, 59
2, 42383, Note_on_c, 0, 54, 40
2, 42387, Note_on_c, 0, 69, 80
2, 42392, Note_off_c, 0, 74, 64
2, 42405, Note_off_c, 0, 54, 64
2, 42415, Note_off_c, 0, 60, 64
2, 42421, Note_off_c, 0, 50, 64
2, 42603, Control_c, 0, 64, 0
2, 42605, Note_on_c, 0, 70, 100
2, 42605, Note_on_c, 0, 43, 78
2, 42611, Control_c, 0, 64, 0
2, 42632, Note_off_c, 0, 69, 64
2, 42636, Control_c, 0, 64, 127
2, 42644, Control_c, 0, 64, 127
2, 42860, Note_on_c, 0, 58, 66
2, 42861, Note_on_c, 0, 62, 63
2, 42861, Note_on_c, 0, 55, 70
2, 42869, Note_on_c, 0, 67, 79
2, 42887, Note_off_c, 0, 70, 64
2, 42951, Note_off_c, 0, 55, 64
2, 42965, Note_off_c, 0, 58, 64
2, 42967, Note_off_c, 0, 62, 64
2, 42997, Note_on_c, 0, 82, 93
2, 43047, Note_off_c, 0, 67, 64
2, 43127, Note_on_c, 0, 48, 59
2, 43133, Note_on_c, 0, 81, 95
2, 43135, Note_off_c, 0, 43, 64
2, 43135, Note_on_c, 0, 63, 60
2, 43141, Note_on_c, 0, 55, 74
2, 43167, Note_off_c, 0, 82, 64
2, 43236, Note_off_c, 0, 48, 64
2, 43239, Note_on_c, 0, 79, 82
2, 43255, Note_off_c, 0, 81, 64
2, 43282, Note_off_c, 0, 79, 64
2, 43299, Note_off_c, 0, 55, 64
2, 43306, Note_off_c, 0, 63, 64
2, 43344, Note_on_c, 0, 50, 72
2, 43347, Note_on_c, 0, 79, 69
2, 43391, Control_c, 0, 64, 0
2, 43399, Control_c, 0, 64, 0
2, 43421, Control_c, 0, 64, 127
2, 43429, Control_c, 0, 64, 127
2, 43449, Note_on_c, 0, 77, 80
2, 43458, Note_off_c, 0, 79, 64
2, 43564, Note_on_c, 0, 75, 78
2, 43572, Note_off_c, 0, 77, 64
2, 43574, Note_on_c, 0, 55, 71
2, 43578, Note_on_c, 0, 60, 65
2, 43586, Control_c, 0, 64, 0
2, 43594, Control_c, 0, 64, 0
2, 43617, Control_c, 0, 64, 127
2, 43625, Control_c, 0, 64, 127
2, 43722, Note_off_c, 0, 60, 64
2, 43724, Note_on_c, 0, 77, 80
2, 43735, Note_off_c, 0, 75, 64
2, 43753, Note_on_c, 0, 75, 80
2, 43774, Note_off_c, 0, 77, 64
2, 43782, Note_on_c, 0, 54, 65
2, 43805, Note_on_c, 0, 74, 66
2, 43808, Note_on_c, 0, 60, 54
2, 43814, Control_c, 0, 64, 0
2, 43817, Note_off_c, 0, 55, 64
2, 43822, Note_off_c, 0, 75, 64
2, 43822, Control_c, 0, 64, 0
2, 43851, Control_c, 0, 64, 127
2, 43859, Control_c, 0, 64, 127
2, 43942, Note_off_c, 0, 54, 64
2, 43947, Note_off_c, 0, 60, 64
2, 43972, Note_on_c, 0, 72, 78
2, 43995, Note_off_c, 0, 74, 64
2, 44126, Note_off_c, 0, 50, 64
2, 44146, Note_on_c, 0, 70, 89
2, 44148, Note_on_c, 0, 43, 71
2, 44167, Note_off_c, 0, 72, 64
2, 44179, Control_c, 0, 64, 0
2, 44187, Control_c, 0, 64, 0
2, 44219, Control_c, 0, 64, 127
2, 44227, Control_c, 0, 64, 127
2, 44336, Note_on_c, 0, 69, 70
2, 44349, Note_off_c, 0, 70, 64
2, 44526, Note_on_c, 0, 67, 66
2, 44532, Note_on_c, 0, 58, 37
2, 44541, Note_off_c, 0, 69, 64
2, 44545, Note_on_c, 0, 50, 35
2, 44606, Control_c, 0, 64, 0
2, 44614, Control_c, 0, 64, 0
2, 45440, Note_off_c, 0, 50, 64
2, 45455, Note_off_c, 0, 58, 64
2, 45467, Note_off_c, 0, 67, 64
2, 45468, Note_off_c, 0, 43, 64
2, 46871, Control_c, 0, 64, 127
2, 46884, Control_c, 0, 64, 0
