2, 0, Program_c, 0, 0
2, 0, Control_c, 0, 7, 127
2, 5, Control_c, 0, 64, 127
2, 5, Control_c, 0, 64, 127
2, 26, Note_on_c, 0, 76, 46
2, 113, Note_on_c, 0, 71, 50
2, 136, Note_off_c, 0, 76, 64
2, 208, Note_on_c, 0, 72, 50
2, 208, Control_c, 0, 64, 0
2, 208, Control_c, 0, 64, 0
2, 217, Note_off_c, 0, 71, 64
2, 263, Control_c, 0, 64, 127
2, 263, Control_c, 0, 64, 127
2, 434, Control_c, 0, 64, 0
2, 434, Control_c, 0, 64, 0
2, 437, Note_on_c, 0, 69, 44
2, 453, Note_off_c, 0, 72, 64
2, 479, Control_c, 0, 64, 127
2, 479, Control_c, 0, 64, 127
2, 657, Control_c, 0, 64, 0
2, 657, Control_c, 0, 64, 0
2, 666, Note_on_c, 0, 71, 47
2, 684, Note_off_c, 0, 69, 64
2, 686, Control_c, 0, 64, 127
2, 686, Control_c, 0, 64, 127
2, 762, Note_on_c, 0, 68, 44
2, 792, Note_off_c, 0, 71, 64
2, 813, Control_c, 0, 64, 0
2, 813, Control_c, 0, 64, 0
2, 855, Note_on_c, 0, 64, 50
2, 869, Control_c, 0, 64, 127
2, 869, Control_c, 0, 64, 127
2, 885, Note_off_c, 0, 68, 64
2, 1101, Note_on_c, 0, 62, 25
2, 1101, Note_on_c, 0, 59, 35
2, 1108, Note_on_c, 0, 52, 25
2, 1117, Control_c, 0, 64, 0
2, 1117, Control_c, 0, 64, 0
2, 1187, Control_c, 0, 64, 127
2, 1187, Control_c, 0, 64, 127
2, 1353, Note_on_c, 0, 66, 51
2, 1354, Note_off_c, 0, 52, 64
2, 1360, Note_off_c, 0, 62, 64
2, 1366, Note_off_c, 0, 59, 64
2, 1375, Note_off_c, 0, 64, 64
2, 1432, Note_on_c, 0, 68, 49
2, 1455, Note_off_c, 0, 66, 64
2, 1528, Note_on_c, 0, 54, 41
2, 1528, Note_on_c, 0, 52, 43
2, 1535, Note_on_c, 0, 62, 49
2, 1539, Note_on_c, 0, 69, 52
2, 1547, Control_c, 0, 64, 0
2, 1547, Control_c, 0, 64, 0
2, 1550, Note_off_c, 0, 68, 64
2, 1589, Control_c, 0, 64, 127
2, 1589, Control_c, 0, 64, 127
2, 1648, Note_off_c, 0, 52, 64
2, 1648, Note_off_c, 0, 54, 64
2, 1655, Note_off_c, 0, 62, 64
2, 1744, Note_on_c, 0, 71, 59
2, 1746, Note_on_c, 0, 56, 36
2, 1748, Note_on_c, 0, 62, 34
2, 1749, Control_c, 0, 64, 0
2, 1749, Control_c, 0, 64, 0
2, 1756, Note_off_c, 0, 69, 64
2, 1756, Note_on_c, 0, 52, 28
2, 1780, Control_c, 0, 64, 127
2, 1780, Control_c, 0, 64, 127
2, 1866, Note_off_c, 0, 56, 64
2, 1868, Note_off_c, 0, 62, 64
2, 1876, Note_off_c, 0, 52, 64
2, 1955, Note_on_c, 0, 72, 50
2, 1956, Note_on_c, 0, 45, 55
2, 1960, Note_off_c, 0, 71, 64
2, 1960, Control_c, 0, 64, 0
2, 1960, Control_c, 0, 64, 0
2, 1995, Control_c, 0, 64, 127
2, 1995, Control_c, 0, 64, 127
2, 2047, Note_on_c, 0, 77, 55
2, 2060, Note_off_c, 0, 72, 64
2, 2138, Note_on_c, 0, 76, 59
2, 2144, Control_c, 0, 64, 0
2, 2144, Control_c, 0, 64, 0
2, 2148, Note_off_c, 0, 77, 64
2, 2154, Note_on_c, 0, 52, 49
2, 2157, Note_on_c, 0, 60, 41
2, 2196, Control_c, 0, 64, 127
2, 2196, Control_c, 0, 64, 127
2, 2276, Note_off_c, 0, 45, 64
2, 2339, Note_off_c, 0, 52, 64
2, 2342, Note_off_c, 0, 60, 64
2, 2360, Note_on_c, 0, 44, 57
2, 2372, Control_c, 0, 64, 0
2, 2372, Control_c, 0, 64, 0
2, 2398, Control_c, 0, 64, 127
2, 2398, Control_c, 0, 64, 127
2, 2613, Note_on_c, 0, 79, 59
2, 2617, Note_on_c, 0, 43, 51
2, 2617, Control_c, 0, 64, 0
2, 2617, Control_c, 0, 64, 0
2, 2630, Note_off_c, 0, 44, 64
2, 2641, Note_off_c, 0, 76, 64
2, 2652, Control_c, 0, 64, 127
2, 2652, Control_c, 0, 64, 127
2, 2705, Note_on_c, 0, 74, 57
2, 2726, Note_off_c, 0, 79, 64
2, 2795, Note_on_c, 0, 76, 54
2, 2800, Note_on_c, 0, 60, 41
2, 2807, Note_on_c, 0, 64, 41
2, 2813, Note_on_c, 0, 55, 34
2, 2819, Note_off_c, 0, 74, 64
2, 2820, Control_c, 0, 64, 0
2, 2820, Control_c, 0, 64, 0
2, 2853, Control_c, 0, 64, 127
2, 2853, Control_c, 0, 64, 127
2, 2920, Note_off_c, 0, 60, 64
2, 2927, Note_off_c, 0, 64, 64
2, 2933, Note_off_c, 0, 55, 64
2, 2934, Note_off_c, 0, 43, 64
2, 2983, Note_on_c, 0, 72, 56
2, 2992, Note_off_c, 0, 76, 64
2, 2992, Note_on_c, 0, 64, 42
2, 2999, Note_on_c, 0, 69, 29
2, 2999, Note_on_c, 0, 60, 32
2, 3015, Control_c, 0, 64, 0
2, 3015, Control_c, 0, 64, 0
2, 3058, Control_c, 0, 64, 127
2, 3058, Control_c, 0, 64, 127
2, 3179, Note_off_c, 0, 69, 64
2, 3181, Note_off_c, 0, 64, 64
2, 3181, Note_on_c, 0, 74, 57
2, 3194, Note_off_c, 0, 60, 64
2, 3208, Note_off_c, 0, 72, 64
2, 3274, Note_on_c, 0, 71, 57
2, 3302, Note_off_c, 0, 74, 64
2, 3361, Note_on_c, 0, 67, 56
2, 3373, Note_on_c, 0, 62, 36
2, 3381, Note_on_c, 0, 65, 37
2, 3382, Note_on_c, 0, 55, 41
2, 3387, Note_off_c, 0, 71, 64
2, 3392, Control_c, 0, 64, 0
2, 3392, Control_c, 0, 64, 0
2, 3421, Control_c, 0, 64, 127
2, 3421, Control_c, 0, 64, 127
2, 3493, Note_off_c, 0, 62, 64
2, 3501, Note_off_c, 0, 65, 64
2, 3502, Note_off_c, 0, 55, 64
2, 3608, Note_on_c, 0, 65, 26
2, 3613, Note_on_c, 0, 59, 25
2, 3621, Note_on_c, 0, 55, 26
2, 3642, Control_c, 0, 64, 0
2, 3642, Control_c, 0, 64, 0
2, 3694, Control_c, 0, 64, 127
2, 3694, Control_c, 0, 64, 127
2, 3815, Note_on_c, 0, 69, 56
2, 3824, Note_off_c, 0, 55, 64
2, 3824, Note_off_c, 0, 59, 64
2, 3844, Note_off_c, 0, 65, 64
2, 3844, Note_off_c, 0, 67, 64
2, 3897, Note_on_c, 0, 71, 56
2, 3920, Note_off_c, 0, 69, 64
2, 3984, Note_on_c, 0, 57, 39
2, 3985, Note_on_c, 0, 65, 44
2, 3991, Note_on_c, 0, 55, 41
2, 3994, Note_off_c, 0, 71, 64
2, 3994, Note_on_c, 0, 72, 56
2, 3997, Control_c, 0, 64, 0
2, 3997, Control_c, 0, 64, 0
2, 4041, Control_c, 0, 64, 127
2, 4041, Control_c, 0, 64, 127
2, 4104, Note_off_c, 0, 57, 64
2, 4105, Note_off_c, 0, 65, 64
2, 4111, Note_off_c, 0, 55, 64
2, 4187, Note_on_c, 0, 74, 59
2, 4187, Note_on_c, 0, 65, 41
2, 4192, Note_on_c, 0, 59, 39
2, 4194, Note_on_c, 0, 55, 35
2, 4198, Note_off_c, 0, 72, 64
2, 4307, Note_off_c, 0, 65, 64
2, 4312, Note_off_c, 0, 59, 64
2, 4314, Note_off_c, 0, 55, 64
2, 4398, Note_on_c, 0, 76, 49
2, 4409, Note_on_c, 0, 48, 36
2, 4417, Control_c, 0, 64, 0
2, 4417, Control_c, 0, 64, 0
2, 4426, Note_off_c, 0, 74, 64
2, 4449, Control_c, 0, 64, 127
2, 4449, Control_c, 0, 64, 127
2, 4535, Note_on_c, 0, 78, 41
2, 4552, Note_off_c, 0, 76, 64
2, 4625, Note_off_c, 0, 78, 64
2, 4626, Note_on_c, 0, 76, 60
2, 4677, Note_on_c, 0, 54, 25
2, 4679, Note_on_c, 0, 58, 33
2, 4680, Note_on_c, 0, 78, 43
2, 4694, Note_on_c, 0, 64, 24
2, 4701, Note_off_c, 0, 76, 64
2, 4704, Note_off_c, 0, 48, 64
2, 4733, Note_on_c, 0, 80, 44
2, 4745, Note_off_c, 0, 78, 64
2, 4776, Note_on_c, 0, 78, 62
2, 4783, Note_off_c, 0, 80, 64
2, 4821, Note_off_c, 0, 78, 64
2, 4828, Note_on_c, 0, 80, 65
2, 4833, Note_off_c, 0, 54, 64
2, 4835, Note_off_c, 0, 58, 64
2, 4850, Note_off_c, 0, 64, 64
2, 4860, Note_on_c, 0, 78, 62
2, 4864, Note_off_c, 0, 80, 64
2, 4896, Note_off_c, 0, 78, 64
2, 4902, Note_on_c, 0, 80, 63
2, 4929, Note_on_c, 0, 78, 62
2, 4933, Note_off_c, 0, 80, 64
2, 4941, Note_on_c, 0, 48, 52
2, 4956, Note_off_c, 0, 78, 64
2, 4963, Note_on_c, 0, 80, 69
2, 4995, Note_off_c, 0, 80, 64
2, 5000, Note_on_c, 0, 78, 62
2, 5031, Note_on_c, 0, 80, 65
2, 5042, Note_off_c, 0, 78, 64
2, 5060, Note_on_c, 0, 78, 47
2, 5063, Note_off_c, 0, 80, 64
2, 5074, Note_on_c, 0, 76, 56
2, 5093, Note_off_c, 0, 78, 64
2, 5146, Note_on_c, 0, 78, 62
2, 5168, Note_off_c, 0, 76, 64
2, 5238, Note_on_c, 0, 80, 59
2, 5245, Note_off_c, 0, 78, 64
2, 5245, Note_on_c, 0, 47, 50
2, 5254, Control_c, 0, 64, 0
2, 5254, Control_c, 0, 64, 0
2, 5264, Note_off_c, 0, 48, 64
2, 5277, Control_c, 0, 64, 127
2, 5277, Control_c, 0, 64, 127
2, 5345, Note_on_c, 0, 71, 49
2, 5357, Note_off_c, 0, 80, 64
2, 5457, Note_on_c, 0, 80, 57
2, 5460, Note_on_c, 0, 56, 49
2, 5470, Control_c, 0, 64, 0
2, 5470, Control_c, 0, 64, 0
2, 5472, Note_on_c, 0, 64, 27
2, 5478, Note_on_c, 0, 59, 24
2, 5486, Note_off_c, 0, 71, 64
2, 5509, Control_c, 0, 64, 127
2, 5509, Control_c, 0, 64, 127
2, 5580, Note_off_c, 0, 56, 64
2, 5592, Note_off_c, 0, 64, 64
2, 5598, Note_off_c, 0, 59, 64
2, 5673, Note_on_c, 0, 78, 59
2, 5679, Note_on_c, 0, 57, 43
2, 5679, Note_on_c, 0, 63, 28
2, 5685, Note_on_c, 0, 59, 32
2, 5688, Note_off_c, 0, 80, 64
2, 5696, Control_c, 0, 64, 0
2, 5696, Control_c, 0, 64, 0
2, 5698, Note_off_c, 0, 47, 64
2, 5722, Control_c, 0, 64, 127
2, 5722, Control_c, 0, 64, 127
2, 5772, Note_on_c, 0, 80, 59
2, 5790, Note_off_c, 0, 78, 64
2, 5812, Note_off_c, 0, 63, 64
2, 5814, Note_off_c, 0, 59, 64
2, 5820, Note_off_c, 0, 57, 64
2, 5871, Note_on_c, 0, 76, 60
2, 5873, Note_on_c, 0, 52, 49
2, 5881, Control_c, 0, 64, 0
2, 5881, Control_c, 0, 64, 0
2, 5894, Note_off_c, 0, 80, 64
2, 5913, Control_c, 0, 64, 127
2, 5913, Control_c, 0, 64, 127
2, 6046, Note_off_c, 0, 76, 64
2, 6056, Note_on_c, 0, 71, 44
2, 6092, Note_on_c, 0, 68, 35
2, 6092, Note_on_c, 0, 59, 41
2, 6095, Note_on_c, 0, 56, 41
2, 6101, Note_on_c, 0, 64, 34
2, 6105, Note_on_c, 0, 76, 57
2, 6114, Control_c, 0, 64, 0
2, 6114, Control_c, 0, 64, 0
2, 6123, Note_off_c, 0, 71, 64
2, 6139, Control_c, 0, 64, 127
2, 6139, Control_c, 0, 64, 127
2, 6163, Note_off_c, 0, 52, 64
2, 6212, Note_off_c, 0, 59, 64
2, 6212, Note_off_c, 0, 68, 64
2, 6215, Note_off_c, 0, 56, 64
2, 6221, Note_off_c, 0, 64, 64
2, 6324, Note_on_c, 0, 57, 47
2, 6332, Note_on_c, 0, 61, 32
2, 6343, Note_on_c, 0, 67, 25
2, 6346, Control_c, 0, 64, 0
2, 6346, Control_c, 0, 64, 0
2, 6368, Control_c, 0, 64, 127
2, 6368, Control_c, 0, 64, 127
2, 6444, Note_off_c, 0, 57, 64
2, 6452, Note_off_c, 0, 61, 64
2, 6463, Note_off_c, 0, 67, 64
2, 6555, Note_on_c, 0, 77, 51
2, 6560, Note_on_c, 0, 50, 48
2, 6570, Control_c, 0, 64, 0
2, 6570, Control_c, 0, 64, 0
2, 6576, Note_off_c, 0, 76, 64
2, 6593, Control_c, 0, 64, 127
2, 6593, Control_c, 0, 64, 127
2, 6667, Note_on_c, 0, 69, 48
2, 6681, Note_off_c, 0, 77, 64
2, 6779, Note_on_c, 0, 74, 54
2, 6783, Note_on_c, 0, 57, 36
2, 6789, Note_on_c, 0, 62, 40
2, 6790, Note_on_c, 0, 65, 36
2, 6790, Control_c, 0, 64, 0
2, 6790, Control_c, 0, 64, 0
2, 6805, Note_off_c, 0, 69, 64
2, 6832, Control_c, 0, 64, 127
2, 6832, Control_c, 0, 64, 127
2, 6852, Note_off_c, 0, 50, 64
2, 6903, Note_off_c, 0, 57, 64
2, 6909, Note_off_c, 0, 62, 64
2, 6910, Note_off_c, 0, 65, 64
2, 7033, Note_on_c, 0, 56, 39
2, 7037, Note_on_c, 0, 52, 39
2, 7039, Note_on_c, 0, 71, 54
2, 7044, Note_on_c, 0, 62, 35
2, 7046, Control_c, 0, 64, 0
2, 7046, Control_c, 0, 64, 0
2, 7054, Note_off_c, 0, 74, 64
2, 7069, Control_c, 0, 64, 127
2, 7069, Control_c, 0, 64, 127
2, 7153, Note_off_c, 0, 56, 64
2, 7157, Note_off_c, 0, 52, 64
2, 7164, Note_off_c, 0, 62, 64
2, 7242, Note_on_c, 0, 72, 47
2, 7244, Note_off_c, 0, 71, 64
2, 7303, Note_on_c, 0, 71, 48
2, 7323, Note_off_c, 0, 72, 64
2, 7337, Note_on_c, 0, 45, 44
2, 7346, Note_on_c, 0, 69, 55
2, 7363, Note_off_c, 0, 71, 64
2, 7370, Control_c, 0, 64, 0
2, 7370, Control_c, 0, 64, 0
2, 7414, Control_c, 0, 64, 127
2, 7414, Control_c, 0, 64, 127
2, 7621, Note_on_c, 0, 68, 44
2, 7636, Note_off_c, 0, 69, 64
2, 7679, Note_on_c, 0, 69, 43
2, 7688, Note_off_c, 0, 68, 64
2, 7693, Note_on_c, 0, 60, 23
2, 7693, Note_on_c, 0, 52, 24
2, 7710, Control_c, 0, 64, 0
2, 7710, Control_c, 0, 64, 0
2, 7755, Note_off_c, 0, 45, 64
2, 7757, Control_c, 0, 64, 127
2, 7757, Control_c, 0, 64, 127
2, 7890, Note_off_c, 0, 60, 64
2, 7909, Note_off_c, 0, 52, 64
2, 8119, Note_on_c, 0, 52, 23
2, 8124, Note_on_c, 0, 60, 19
2, 8179, Control_c, 0, 64, 0
2, 8179, Control_c, 0, 64, 0
2, 8214, Control_c, 0, 64, 127
2, 8214, Control_c, 0, 64, 127
2, 8453, Note_on_c, 0, 76, 44
2, 8468, Control_c, 0, 64, 0
2, 8468, Control_c, 0, 64, 0
2, 8503, Control_c, 0, 64, 127
2, 8503, Control_c, 0, 64, 127
2, 8508, Note_off_c, 0, 52, 64
2, 8511, Note_off_c, 0, 60, 64
2, 8512, Note_off_c, 0, 69, 64
2, 8586, Note_on_c, 0, 71, 51
2, 8615, Note_off_c, 0, 76, 64
2, 8684, Control_c, 0, 64, 0
2, 8684, Control_c, 0, 64, 0
2, 8694, Note_on_c, 0, 72, 51
2, 8707, Note_off_c, 0, 71, 64
2, 8731, Control_c, 0, 64, 127
2, 8731, Control_c, 0, 64, 127
2, 8882, Control_c, 0, 64, 0
2, 8882, Control_c, 0, 64, 0
2, 8901, Note_on_c, 0, 69, 51
2, 8905, Note_off_c, 0, 72, 64
2, 8923, Control_c, 0, 64, 127
2, 8923, Control_c, 0, 64, 127
2, 9088, Control_c, 0, 64, 0
2, 9088, Control_c, 0, 64, 0
2, 9101, Note_on_c, 0, 71, 51
2, 9120, Note_off_c, 0, 69, 64
2, 9138, Control_c, 0, 64, 127
2, 9138, Control_c, 0, 64, 127
2, 9199, Note_on_c, 0, 68, 55
2, 9228, Note_off_c, 0, 71, 64
2, 9265, Control_c, 0, 64, 0
2, 9265, Control_c, 0, 64, 0
2, 9288, Note_on_c, 0, 64, 52
2, 9310, Control_c, 0, 64, 127
2, 9310, Control_c, 0, 64, 127
2, 9322, Note_off_c, 0, 68, 64
2, 9525, Note_on_c, 0, 52, 43
2, 9532, Note_on_c, 0, 62, 35
2, 9533, Note_on_c, 0, 59, 40
2, 9540, Control_c, 0, 64, 0
2, 9540, Control_c, 0, 64, 0
2, 9594, Control_c, 0, 64, 127
2, 9594, Control_c, 0, 64, 127
2, 9720, Control_c, 0, 64, 0
2, 9720, Control_c, 0, 64, 0
2, 9753, Control_c, 0, 64, 127
2, 9753, Control_c, 0, 64, 127
2, 9759, Note_on_c, 0, 66, 52
2, 9769, Note_off_c, 0, 52, 64
2, 9777, Note_off_c, 0, 59, 64
2, 9780, Note_off_c, 0, 62, 64
2, 9782, Note_off_c, 0, 64, 64
2, 9834, Note_on_c, 0, 68, 51
2, 9863, Note_off_c, 0, 66, 64
2, 9928, Control_c, 0, 64, 0
2, 9928, Control_c, 0, 64, 0
2, 9934, Note_on_c, 0, 54, 34
2, 9935, Note_off_c, 0, 68, 64
2, 9935, Note_on_c, 0, 69, 50
2, 9935, Note_on_c, 0, 62, 44
2, 9935, Note_on_c, 0, 52, 48
2, 9970, Control_c, 0, 64, 127
2, 9970, Control_c, 0, 64, 127
2, 10054, Note_off_c, 0, 54, 64
2, 10055, Note_off_c, 0, 52, 64
2, 10055, Note_off_c, 0, 62, 64
2, 10128, Control_c, 0, 64, 0
2, 10128, Control_c, 0, 64, 0
2, 10140, Note_on_c, 0, 71, 59
2, 10140, Note_on_c, 0, 62, 43
2, 10140, Note_on_c, 0, 56, 44
2, 10147, Note_off_c, 0, 69, 64
2, 10147, Note_on_c, 0, 52, 43
2, 10165, Control_c, 0, 64, 127
2, 10165, Control_c, 0, 64, 127
2, 10260, Note_off_c, 0, 56, 64
2, 10260, Note_off_c, 0, 62, 64
2, 10267, Note_off_c, 0, 52, 64
2, 10362, Note_on_c, 0, 45, 50
2, 10365, Note_on_c, 0, 72, 55
2, 10369, Note_off_c, 0, 71, 64
2, 10371, Control_c, 0, 64, 0
2, 10371, Control_c, 0, 64, 0
2, 10403, Control_c, 0, 64, 127
2, 10403, Control_c, 0, 64, 127
2, 10453, Note_on_c, 0, 77, 55
2, 10473, Note_off_c, 0, 72, 64
2, 10540, Control_c, 0, 64, 0
2, 10540, Control_c, 0, 64, 0
2, 10547, Note_on_c, 0, 76, 62
2, 10560, Note_on_c, 0, 60, 36
2, 10561, Note_off_c, 0, 77, 64
2, 10563, Note_on_c, 0, 52, 44
2, 10592, Control_c, 0, 64, 127
2, 10592, Control_c, 0, 64, 127
2, 10702, Note_off_c, 0, 45, 64
2, 10726, Note_off_c, 0, 60, 64
2, 10729, Note_off_c, 0, 52, 64
2, 10759, Note_on_c, 0, 44, 51
2, 10774, Control_c, 0, 64, 0
2, 10774, Control_c, 0, 64, 0
2, 10808, Control_c, 0, 64, 127
2, 10808, Control_c, 0, 64, 127
2, 10980, Note_off_c, 0, 76, 64
2, 10992, Control_c, 0, 64, 0
2, 10992, Control_c, 0, 64, 0
2, 10999, Note_on_c, 0, 43, 51
2, 11000, Note_on_c, 0, 79, 59
2, 11017, Note_off_c, 0, 44, 64
2, 11030, Control_c, 0, 64, 127
2, 11030, Control_c, 0, 64, 127
2, 11096, Note_on_c, 0, 74, 62
2, 11118, Note_off_c, 0, 79, 64
2, 11187, Note_on_c, 0, 76, 54
2, 11192, Note_on_c, 0, 64, 49
2, 11192, Note_on_c, 0, 55, 40
2, 11197, Note_on_c, 0, 60, 36
2, 11209, Control_c, 0, 64, 0
2, 11209, Control_c, 0, 64, 0
2, 11219, Note_off_c, 0, 74, 64
2, 11246, Control_c, 0, 64, 127
2, 11246, Control_c, 0, 64, 127
2, 11312, Note_off_c, 0, 55, 64
2, 11312, Note_off_c, 0, 64, 64
2, 11317, Note_off_c, 0, 60, 64
2, 11322, Note_off_c, 0, 43, 64
2, 11393, Note_on_c, 0, 72, 57
2, 11400, Note_on_c, 0, 64, 24
2, 11403, Note_off_c, 0, 76, 64
2, 11403, Note_on_c, 0, 60, 44
2, 11413, Note_on_c, 0, 69, 34
2, 11414, Control_c, 0, 64, 0
2, 11414, Control_c, 0, 64, 0
2, 11455, Control_c, 0, 64, 127
2, 11455, Control_c, 0, 64, 127
2, 11580, Note_off_c, 0, 69, 64
2, 11583, Note_off_c, 0, 72, 64
2, 11584, Note_on_c, 0, 74, 58
2, 11598, Note_off_c, 0, 64, 64
2, 11602, Note_off_c, 0, 60, 64
2, 11668, Note_on_c, 0, 71, 56
2, 11697, Note_off_c, 0, 74, 64
2, 11761, Note_on_c, 0, 67, 51
2, 11765, Note_on_c, 0, 62, 48
2, 11766, Note_on_c, 0, 55, 44
2, 11772, Note_off_c, 0, 71, 64
2, 11776, Note_on_c, 0, 65, 34
2, 11780, Control_c, 0, 64, 0
2, 11780, Control_c, 0, 64, 0
2, 11820, Control_c, 0, 64, 127
2, 11820, Control_c, 0, 64, 127
2, 11885, Note_off_c, 0, 62, 64
2, 11886, Note_off_c, 0, 55, 64
2, 11896, Note_off_c, 0, 65, 64
2, 11958, Note_on_c, 0, 65, 35
2, 11958, Note_on_c, 0, 59, 43
2, 11966, Note_on_c, 0, 55, 28
2, 11973, Control_c, 0, 64, 0
2, 11973, Control_c, 0, 64, 0
2, 12015, Control_c, 0, 64, 127
2, 12015, Control_c, 0, 64, 127
2, 12139, Control_c, 0, 64, 0
2, 12139, Control_c, 0, 64, 0
2, 12150, Note_on_c, 0, 69, 58
2, 12156, Note_off_c, 0, 59, 64
2, 12163, Note_off_c, 0, 55, 64
2, 12166, Control_c, 0, 64, 127
2, 12166, Control_c, 0, 64, 127
2, 12178, Note_off_c, 0, 67, 64
2, 12180, Note_off_c, 0, 65, 64
2, 12233, Note_on_c, 0, 71, 55
2, 12260, Note_off_c, 0, 69, 64
2, 12322, Note_on_c, 0, 55, 51
2, 12322, Control_c, 0, 64, 0
2, 12322, Control_c, 0, 64, 0
2, 12327, Note_on_c, 0, 72, 59
2, 12327, Note_on_c, 0, 65, 49
2, 12327, Note_on_c, 0, 57, 49
2, 12335, Note_off_c, 0, 71, 64
2, 12352, Control_c, 0, 64, 127
2, 12352, Control_c, 0, 64, 127
2, 12442, Note_off_c, 0, 55, 64
2, 12447, Note_off_c, 0, 57, 64
2, 12447, Note_off_c, 0, 65, 64
2, 12509, Note_on_c, 0, 74, 59
2, 12509, Note_on_c, 0, 59, 51
2, 12518, Note_on_c, 0, 65, 49
2, 12518, Note_on_c, 0, 55, 44
2, 12519, Note_off_c, 0, 72, 64
2, 12629, Note_off_c, 0, 59, 64
2, 12638, Note_off_c, 0, 55, 64
2, 12638, Note_off_c, 0, 65, 64
2, 12715, Note_on_c, 0, 48, 37
2, 12721, Note_on_c, 0, 76, 55
2, 12740, Control_c, 0, 64, 0
2, 12740, Control_c, 0, 64, 0
2, 12748, Note_off_c, 0, 74, 64
2, 12774, Control_c, 0, 64, 127
2, 12774, Control_c, 0, 64, 127
2, 12844, Note_on_c, 0, 78, 52
2, 12866, Note_off_c, 0, 76, 64
2, 12938, Note_on_c, 0, 76, 62
2, 12960, Note_off_c, 0, 78, 64
2, 13009, Note_on_c, 0, 58, 32
2, 13012, Note_on_c, 0, 64, 28
2, 13016, Note_on_c, 0, 78, 59
2, 13017, Note_on_c, 0, 54, 26
2, 13039, Note_off_c, 0, 76, 64
2, 13100, Note_off_c, 0, 78, 64
2, 13101, Note_off_c, 0, 48, 64
2, 13105, Note_on_c, 0, 80, 44
2, 13129, Note_off_c, 0, 58, 64
2, 13132, Note_off_c, 0, 64, 64
2, 13137, Note_off_c, 0, 54, 64
2, 13148, Note_on_c, 0, 78, 62
2, 13155, Note_off_c, 0, 80, 64
2, 13193, Note_off_c, 0, 78, 64
2, 13200, Note_on_c, 0, 80, 65
2, 13232, Note_on_c, 0, 78, 62
2, 13236, Note_off_c, 0, 80, 64
2, 13268, Note_off_c, 0, 78, 64
2, 13274, Note_on_c, 0, 80, 63
2, 13280, Note_on_c, 0, 48, 49
2, 13301, Note_on_c, 0, 78, 62
2, 13305, Note_off_c, 0, 80, 64
2, 13328, Note_off_c, 0, 78, 64
2, 13335, Note_on_c, 0, 80, 69
2, 13367, Note_off_c, 0, 80, 64
2, 13372, Note_on_c, 0, 78, 62
2, 13403, Note_on_c, 0, 80, 65
2, 13414, Note_off_c, 0, 78, 64
2, 13432, Note_on_c, 0, 78, 47
2, 13435, Note_off_c, 0, 80, 64
2, 13465, Note_off_c, 0, 78, 64
2, 13466, Note_on_c, 0, 76, 52
2, 13533, Note_on_c, 0, 78, 62
2, 13548, Note_off_c, 0, 76, 64
2, 13607, Note_on_c, 0, 80, 60
2, 13612, Control_c, 0, 64, 0
2, 13612, Control_c, 0, 64, 0
2, 13618, Note_on_c, 0, 47, 52
2, 13622, Note_off_c, 0, 78, 64
2, 13648, Control_c, 0, 64, 127
2, 13648, Control_c, 0, 64, 127
2, 13657, Note_off_c, 0, 48, 64
2, 13709, Note_on_c, 0, 71, 36
2, 13727, Note_off_c, 0, 80, 64
2, 13821, Note_on_c, 0, 80, 51
2, 13828, Note_on_c, 0, 56, 46
2, 13831, Note_on_c, 0, 64, 44
2, 13836, Note_on_c, 0, 59, 41
2, 13844, Control_c, 0, 64, 0
2, 13844, Control_c, 0, 64, 0
2, 13849, Note_off_c, 0, 71, 64
2, 13876, Control_c, 0, 64, 127
2, 13876, Control_c, 0, 64, 127
2, 13903, Note_off_c, 0, 47, 64
2, 13948, Note_off_c, 0, 56, 64
2, 13951, Note_off_c, 0, 64, 64
2, 13956, Note_off_c, 0, 59, 64
2, 14033, Note_on_c, 0, 78, 58
2, 14040, Note_on_c, 0, 63, 39
2, 14041, Control_c, 0, 64, 0
2, 14041, Control_c, 0, 64, 0
2, 14047, Note_off_c, 0, 80, 64
2, 14047, Note_on_c, 0, 57, 34
2, 14054, Note_on_c, 0, 59, 26
2, 14071, Control_c, 0, 64, 127
2, 14071, Control_c, 0, 64, 127
2, 14139, Note_on_c, 0, 80, 60
2, 14160, Note_off_c, 0, 63, 64
2, 14162, Note_off_c, 0, 78, 64
2, 14167, Note_off_c, 0, 57, 64
2, 14174, Note_off_c, 0, 59, 64
2, 14235, Note_on_c, 0, 76, 59
2, 14243, Note_on_c, 0, 52, 51
2, 14247, Control_c, 0, 64, 0
2, 14247, Control_c, 0, 64, 0
2, 14257, Note_off_c, 0, 80, 64
2, 14280, Control_c, 0, 64, 127
2, 14280, Control_c, 0, 64, 127
2, 14418, Note_off_c, 0, 76, 64
2, 14424, Note_on_c, 0, 71, 50
2, 14468, Note_on_c, 0, 68, 31
2, 14472, Note_on_c, 0, 56, 44
2, 14478, Note_on_c, 0, 59, 44
2, 14479, Note_on_c, 0, 64, 43
2, 14486, Note_on_c, 0, 76, 62
2, 14491, Control_c, 0, 64, 0
2, 14491, Control_c, 0, 64, 0
2, 14505, Note_off_c, 0, 71, 64
2, 14536, Note_off_c, 0, 52, 64
2, 14539, Control_c, 0, 64, 127
2, 14539, Control_c, 0, 64, 127
2, 14588, Note_off_c, 0, 68, 64
2, 14592, Note_off_c, 0, 56, 64
2, 14598, Note_off_c, 0, 59, 64
2, 14599, Note_off_c, 0, 64, 64
2, 14734, Note_on_c, 0, 61, 26
2, 14737, Note_on_c, 0, 57, 43
2, 14744, Note_on_c, 0, 67, 31
2, 14757, Control_c, 0, 64, 0
2, 14757, Control_c, 0, 64, 0
2, 14800, Control_c, 0, 64, 127
2, 14800, Control_c, 0, 64, 127
2, 14854, Note_off_c, 0, 61, 64
2, 14857, Note_off_c, 0, 57, 64
2, 14864, Note_off_c, 0, 67, 64
2, 14990, Note_on_c, 0, 77, 51
2, 15000, Note_on_c, 0, 50, 49
2, 15012, Control_c, 0, 64, 0
2, 15012, Control_c, 0, 64, 0
2, 15020, Note_off_c, 0, 76, 64
2, 15045, Control_c, 0, 64, 127
2, 15045, Control_c, 0, 64, 127
2, 15118, Note_on_c, 0, 69, 48
2, 15157, Note_off_c, 0, 77, 64
2, 15228, Note_on_c, 0, 74, 51
2, 15232, Note_on_c, 0, 57, 37
2, 15236, Note_on_c, 0, 65, 34
2, 15236, Note_on_c, 0, 62, 32
2, 15242, Control_c, 0, 64, 0
2, 15242, Control_c, 0, 64, 0
2, 15269, Note_off_c, 0, 69, 64
2, 15279, Control_c, 0, 64, 127
2, 15279, Control_c, 0, 64, 127
2, 15300, Note_off_c, 0, 50, 64
2, 15352, Note_off_c, 0, 57, 64
2, 15356, Note_off_c, 0, 62, 64
2, 15356, Note_off_c, 0, 65, 64
2, 15490, Note_on_c, 0, 71, 54
2, 15497, Note_on_c, 0, 56, 33
2, 15504, Note_on_c, 0, 52, 34
2, 15506, Note_on_c, 0, 62, 27
2, 15508, Note_off_c, 0, 74, 64
2, 15516, Control_c, 0, 64, 0
2, 15516, Control_c, 0, 64, 0
2, 15551, Control_c, 0, 64, 127
2, 15551, Control_c, 0, 64, 127
2, 15617, Note_off_c, 0, 56, 64
2, 15624, Note_off_c, 0, 52, 64
2, 15626, Note_off_c, 0, 62, 64
2, 15695, Note_off_c, 0, 71, 64
2, 15695, Note_on_c, 0, 72, 46
2, 15747, Note_on_c, 0, 71, 44
2, 15765, Note_off_c, 0, 72, 64
2, 15788, Note_on_c, 0, 69, 54
2, 15793, Note_on_c, 0, 45, 43
2, 15805, Note_off_c, 0, 71, 64
2, 15824, Control_c, 0, 64, 0
2, 15824, Control_c, 0, 64, 0
2, 15865, Control_c, 0, 64, 127
2, 15865, Control_c, 0, 64, 127
2, 16050, Note_on_c, 0, 68, 43
2, 16070, Note_off_c, 0, 69, 64
2, 16109, Note_on_c, 0, 69, 41
2, 16116, Note_on_c, 0, 52, 28
2, 16119, Note_off_c, 0, 68, 64
2, 16119, Note_on_c, 0, 60, 24
2, 16129, Control_c, 0, 64, 0
2, 16129, Control_c, 0, 64, 0
2, 16174, Control_c, 0, 64, 127
2, 16174, Control_c, 0, 64, 127
2, 16180, Note_off_c, 0, 45, 64
2, 16324, Note_off_c, 0, 52, 64
2, 16327, Note_off_c, 0, 60, 64
2, 16373, Note_on_c, 0, 52, 36
2, 16374, Note_on_c, 0, 60, 26
2, 16392, Control_c, 0, 64, 0
2, 16392, Control_c, 0, 64, 0
2, 16431, Control_c, 0, 64, 127
2, 16431, Control_c, 0, 64, 127
2, 16603, Note_on_c, 0, 47, 50
2, 16610, Control_c, 0, 64, 0
2, 16610, Control_c, 0, 64, 0
2, 16616, Note_off_c, 0, 52, 64
2, 16619, Note_off_c, 0, 60, 64
2, 16656, Control_c, 0, 64, 127
2, 16656, Control_c, 0, 64, 127
2, 16864, Note_on_c, 0, 59, 44
2, 16866, Note_on_c, 0, 66, 52
2, 16866, Note_on_c, 0, 63, 26
2, 16868, Control_c, 0, 64, 0
2, 16868, Control_c, 0, 64, 0
2, 16874, Note_on_c, 0, 57, 26
2, 16876, Control_c, 0, 64, 0
2, 16876, Control_c, 0, 64, 0
2, 16880, Note_off_c, 0, 69, 64
2, 16902, Note_off_c, 0, 47, 64
2, 16905, Control_c, 0, 64, 127
2, 16905, Control_c, 0, 64, 127
2, 16913, Control_c, 0, 64, 127
2, 16913, Control_c, 0, 64, 127
2, 16980, Note_on_c, 0, 68, 41
2, 16981, Note_off_c, 0, 59, 64
2, 16986, Note_off_c, 0, 63, 64
2, 16990, Note_off_c, 0, 57, 64
2, 17003, Note_off_c, 0, 66, 64
2, 17076, Control_c, 0, 64, 0
2, 17076, Control_c, 0, 64, 0
2, 17079, Note_on_c, 0, 63, 40
2, 17080, Note_on_c, 0, 59, 44
2, 17082, Note_on_c, 0, 57, 26
2, 17086, Note_on_c, 0, 69, 55
2, 17096, Note_off_c, 0, 68, 64
2, 17113, Control_c, 0, 64, 127
2, 17113, Control_c, 0, 64, 127
2, 17183, Note_on_c, 0, 78, 50
2, 17196, Note_off_c, 0, 63, 64
2, 17197, Note_off_c, 0, 59, 64
2, 17199, Note_off_c, 0, 57, 64
2, 17200, Note_off_c, 0, 69, 64
2, 17281, Note_off_c, 0, 78, 64
2, 17281, Note_on_c, 0, 76, 50
2, 17288, Note_on_c, 0, 40, 56
2, 17298, Control_c, 0, 64, 0
2, 17298, Control_c, 0, 64, 0
2, 17343, Control_c, 0, 64, 127
2, 17343, Control_c, 0, 64, 127
2, 17382, Note_on_c, 0, 69, 43
2, 17402, Note_off_c, 0, 76, 64
2, 17486, Note_on_c, 0, 68, 51
2, 17490, Note_on_c, 0, 64, 26
2, 17490, Note_on_c, 0, 56, 29
2, 17496, Note_on_c, 0, 59, 36
2, 17502, Control_c, 0, 64, 0
2, 17502, Control_c, 0, 64, 0
2, 17542, Control_c, 0, 64, 127
2, 17542, Control_c, 0, 64, 127
2, 17555, Note_off_c, 0, 69, 64
2, 17592, Note_off_c, 0, 40, 64
2, 17610, Note_off_c, 0, 56, 64
2, 17616, Note_off_c, 0, 59, 64
2, 17616, Note_off_c, 0, 64, 64
2, 17696, Note_on_c, 0, 64, 29
2, 17696, Note_on_c, 0, 56, 35
2, 17699, Note_on_c, 0, 59, 32
2, 17816, Note_off_c, 0, 56, 64
2, 17816, Note_off_c, 0, 64, 64
2, 17819, Note_off_c, 0, 59, 64
2, 17903, Note_on_c, 0, 46, 50
2, 17910, Control_c, 0, 64, 0
2, 17910, Control_c, 0, 64, 0
2, 17942, Control_c, 0, 64, 127
2, 17942, Control_c, 0, 64, 127
2, 18030, Note_on_c, 0, 70, 52
2, 18043, Note_off_c, 0, 68, 64
2, 18074, Note_on_c, 0, 68, 63
2, 18099, Note_off_c, 0, 70, 64
2, 18099, Note_on_c, 0, 56, 34
2, 18108, Note_on_c, 0, 58, 34
2, 18112, Note_on_c, 0, 62, 33
2, 18122, Note_on_c, 0, 65, 62
2, 18122, Control_c, 0, 64, 0
2, 18122, Control_c, 0, 64, 0
2, 18135, Note_off_c, 0, 68, 64
2, 18146, Control_c, 0, 64, 127
2, 18146, Control_c, 0, 64, 127
2, 18201, Note_off_c, 0, 46, 64
2, 18219, Note_off_c, 0, 56, 64
2, 18227, Note_on_c, 0, 67, 59
2, 18228, Note_off_c, 0, 58, 64
2, 18232, Note_off_c, 0, 62, 64
2, 18246, Note_off_c, 0, 65, 64
2, 18305, Note_on_c, 0, 68, 60
2, 18309, Note_on_c, 0, 62, 32
2, 18312, Note_on_c, 0, 56, 39
2, 18313, Note_on_c, 0, 58, 32
2, 18326, Note_off_c, 0, 67, 64
2, 18409, Note_on_c, 0, 77, 50
2, 18429, Note_off_c, 0, 62, 64
2, 18432, Note_off_c, 0, 56, 64
2, 18433, Note_off_c, 0, 58, 64
2, 18433, Note_off_c, 0, 68, 64
2, 18499, Note_on_c, 0, 75, 60
2, 18508, Control_c, 0, 64, 0
2, 18508, Control_c, 0, 64, 0
2, 18516, Note_off_c, 0, 77, 64
2, 18516, Note_on_c, 0, 39, 55
2, 18546, Control_c, 0, 64, 127
2, 18546, Control_c, 0, 64, 127
2, 18592, Note_on_c, 0, 68, 63
2, 18620, Note_off_c, 0, 75, 64
2, 18679, Note_on_c, 0, 67, 51
2, 18688, Note_on_c, 0, 63, 46
2, 18688, Note_on_c, 0, 58, 20
2, 18688, Note_on_c, 0, 55, 33
2, 18689, Note_off_c, 0, 68, 64
2, 18696, Control_c, 0, 64, 0
2, 18696, Control_c, 0, 64, 0
2, 18734, Control_c, 0, 64, 127
2, 18734, Control_c, 0, 64, 127
2, 18794, Note_off_c, 0, 39, 64
2, 18808, Note_off_c, 0, 55, 64
2, 18808, Note_off_c, 0, 58, 64
2, 18808, Note_off_c, 0, 63, 64
2, 18868, Note_on_c, 0, 63, 34
2, 18872, Note_on_c, 0, 58, 20
2, 18875, Note_on_c, 0, 55, 33
2, 18947, Note_on_c, 0, 66, 55
2, 18976, Note_off_c, 0, 67, 64
2, 18988, Note_off_c, 0, 63, 64
2, 18992, Note_off_c, 0, 58, 64
2, 18995, Note_off_c, 0, 55, 64
2, 19052, Note_on_c, 0, 67, 58
2, 19055, Note_on_c, 0, 45, 55
2, 19072, Control_c, 0, 64, 0
2, 19072, Control_c, 0, 64, 0
2, 19090, Note_off_c, 0, 66, 64
2, 19098, Control_c, 0, 64, 127
2, 19098, Control_c, 0, 64, 127
2, 19170, Note_on_c, 0, 69, 41
2, 19190, Note_off_c, 0, 67, 64
2, 19203, Note_on_c, 0, 67, 51
2, 19225, Note_off_c, 0, 69, 64
2, 19248, Note_on_c, 0, 61, 51
2, 19251, Note_on_c, 0, 57, 48
2, 19251, Note_on_c, 0, 55, 48
2, 19252, Control_c, 0, 64, 0
2, 19252, Control_c, 0, 64, 0
2, 19252, Control_c, 0, 64, 0
2, 19252, Control_c, 0, 64, 0
2, 19259, Note_on_c, 0, 64, 59
2, 19273, Note_off_c, 0, 67, 64
2, 19280, Control_c, 0, 64, 127
2, 19280, Control_c, 0, 64, 127
2, 19336, Note_on_c, 0, 66, 60
2, 19352, Note_off_c, 0, 45, 64
2, 19357, Note_off_c, 0, 64, 64
2, 19368, Note_off_c, 0, 61, 64
2, 19371, Note_off_c, 0, 55, 64
2, 19371, Note_off_c, 0, 57, 64
2, 19424, Note_on_c, 0, 61, 43
2, 19427, Note_on_c, 0, 67, 49
2, 19432, Note_off_c, 0, 66, 64
2, 19435, Note_on_c, 0, 57, 48
2, 19436, Control_c, 0, 64, 0
2, 19436, Control_c, 0, 64, 0
2, 19437, Note_on_c, 0, 55, 26
2, 19535, Note_on_c, 0, 76, 51
2, 19544, Note_off_c, 0, 61, 64
2, 19555, Note_off_c, 0, 57, 64
2, 19557, Note_off_c, 0, 55, 64
2, 19584, Note_off_c, 0, 67, 64
2, 19623, Note_on_c, 0, 45, 51
2, 19626, Note_on_c, 0, 74, 51
2, 19640, Control_c, 0, 64, 0
2, 19640, Control_c, 0, 64, 0
2, 19646, Note_off_c, 0, 76, 64
2, 19673, Control_c, 0, 64, 127
2, 19673, Control_c, 0, 64, 127
2, 19726, Note_on_c, 0, 67, 51
2, 19745, Note_off_c, 0, 74, 64
2, 19807, Note_on_c, 0, 66, 56
2, 19814, Note_on_c, 0, 62, 46
2, 19817, Note_on_c, 0, 54, 43
2, 19819, Note_on_c, 0, 57, 44
2, 19830, Control_c, 0, 64, 0
2, 19830, Control_c, 0, 64, 0
2, 19838, Note_off_c, 0, 67, 64
2, 19848, Control_c, 0, 64, 127
2, 19848, Control_c, 0, 64, 127
2, 19900, Note_on_c, 0, 67, 55
2, 19920, Note_off_c, 0, 66, 64
2, 19922, Note_off_c, 0, 45, 64
2, 19934, Note_off_c, 0, 62, 64
2, 19937, Note_off_c, 0, 54, 64
2, 19939, Note_off_c, 0, 57, 64
2, 19989, Note_on_c, 0, 68, 51
2, 19990, Note_on_c, 0, 62, 41
2, 19995, Note_on_c, 0, 59, 41
2, 19997, Note_on_c, 0, 53, 50
2, 20006, Control_c, 0, 64, 0
2, 20006, Control_c, 0, 64, 0
2, 20045, Note_off_c, 0, 67, 64
2, 20049, Control_c, 0, 64, 127
2, 20049, Control_c, 0, 64, 127
2, 20110, Note_off_c, 0, 62, 64
2, 20115, Note_off_c, 0, 59, 64
2, 20116, Note_on_c, 0, 71, 51
2, 20117, Note_off_c, 0, 53, 64
2, 20131, Note_off_c, 0, 68, 64
2, 20180, Note_on_c, 0, 69, 56
2, 20185, Note_on_c, 0, 45, 56
2, 20188, Note_off_c, 0, 71, 64
2, 20193, Control_c, 0, 64, 0
2, 20193, Control_c, 0, 64, 0
2, 20214, Control_c, 0, 64, 127
2, 20214, Control_c, 0, 64, 127
2, 20313, Note_on_c, 0, 63, 60
2, 20353, Note_off_c, 0, 69, 64
2, 20362, Note_on_c, 0, 61, 49
2, 20366, Note_on_c, 0, 66, 59
2, 20368, Note_on_c, 0, 57, 32
2, 20370, Note_on_c, 0, 55, 31
2, 20376, Note_off_c, 0, 63, 64
2, 20380, Control_c, 0, 64, 0
2, 20380, Control_c, 0, 64, 0
2, 20397, Control_c, 0, 64, 127
2, 20397, Control_c, 0, 64, 127
2, 20470, Note_off_c, 0, 45, 64
2, 20480, Note_on_c, 0, 64, 52
2, 20482, Note_off_c, 0, 61, 64
2, 20488, Note_off_c, 0, 57, 64
2, 20490, Note_off_c, 0, 55, 64
2, 20505, Note_off_c, 0, 66, 64
2, 20517, Control_c, 0, 64, 127
2, 20517, Control_c, 0, 64, 127
2, 20540, Note_on_c, 0, 61, 47
2, 20544, Note_on_c, 0, 57, 32
2, 20549, Note_on_c, 0, 67, 55
2, 20549, Note_on_c, 0, 55, 44
2, 20569, Note_off_c, 0, 64, 64
2, 20660, Note_off_c, 0, 61, 64
2, 20663, Note_on_c, 0, 59, 51
2, 20664, Note_off_c, 0, 57, 64
2, 20669, Note_off_c, 0, 55, 64
2, 20698, Note_off_c, 0, 67, 64
2, 20719, Note_on_c, 0, 33, 58
2, 20724, Note_on_c, 0, 57, 50
2, 20731, Control_c, 0, 64, 0
2, 20731, Control_c, 0, 64, 0
2, 20740, Note_off_c, 0, 59, 64
2, 20754, Control_c, 0, 64, 127
2, 20754, Control_c, 0, 64, 127
2, 20841, Note_on_c, 0, 64, 57
2, 20867, Note_off_c, 0, 57, 64
2, 20892, Control_c, 0, 64, 0
2, 20892, Control_c, 0, 64, 0
2, 20898, Note_on_c, 0, 54, 32
2, 20900, Note_on_c, 0, 62, 62
2, 20904, Note_on_c, 0, 57, 52
2, 20916, Note_off_c, 0, 64, 64
2, 20921, Control_c, 0, 64, 127
2, 20921, Control_c, 0, 64, 127
2, 21004, Note_on_c, 0, 67, 56
2, 21018, Note_off_c, 0, 54, 64
2, 21021, Note_off_c, 0, 62, 64
2, 21024, Note_off_c, 0, 57, 64
2, 21079, Note_on_c, 0, 54, 42
2, 21079, Note_on_c, 0, 57, 43
2, 21080, Note_on_c, 0, 62, 46
2, 21085, Note_on_c, 0, 66, 72
2, 21099, Note_off_c, 0, 67, 64
2, 21185, Note_on_c, 0, 71, 58
2, 21198, Note_off_c, 0, 66, 64
2, 21199, Note_off_c, 0, 57, 64
2, 21199, Note_off_c, 0, 54, 64
2, 21200, Note_off_c, 0, 62, 64
2, 21246, Note_off_c, 0, 33, 64
2, 21261, Note_on_c, 0, 69, 56
2, 21267, Control_c, 0, 64, 0
2, 21267, Control_c, 0, 64, 0
2, 21268, Note_off_c, 0, 71, 64
2, 21273, Note_on_c, 0, 45, 54
2, 21295, Note_on_c, 0, 71, 57
2, 21306, Note_off_c, 0, 69, 64
2, 21308, Control_c, 0, 64, 127
2, 21308, Control_c, 0, 64, 127
2, 21343, Note_on_c, 0, 69, 58
2, 21356, Note_off_c, 0, 71, 64
2, 21410, Note_on_c, 0, 68, 65
2, 21420, Note_on_c, 0, 52, 36
2, 21421, Note_off_c, 0, 69, 64
2, 21421, Note_on_c, 0, 61, 33
2, 21433, Control_c, 0, 64, 0
2, 21433, Control_c, 0, 64, 0
2, 21466, Control_c, 0, 64, 127
2, 21466, Control_c, 0, 64, 127
2, 21530, Note_on_c, 0, 67, 62
2, 21540, Note_off_c, 0, 52, 64
2, 21541, Note_off_c, 0, 61, 64
2, 21542, Note_off_c, 0, 45, 64
2, 21550, Note_off_c, 0, 68, 64
2, 21578, Note_off_c, 0, 67, 64
2, 21591, Note_on_c, 0, 69, 60
2, 21597, Note_on_c, 0, 61, 51
2, 21603, Note_on_c, 0, 57, 51
2, 21605, Note_on_c, 0, 67, 51
2, 21611, Control_c, 0, 64, 0
2, 21611, Control_c, 0, 64, 0
2, 21619, Control_c, 0, 64, 0
2, 21619, Control_c, 0, 64, 0
2, 21628, Control_c, 0, 64, 127
2, 21628, Control_c, 0, 64, 127
2, 21717, Note_off_c, 0, 61, 64
2, 21723, Note_off_c, 0, 57, 64
2, 21725, Note_off_c, 0, 67, 64
2, 21728, Note_on_c, 0, 76, 51
2, 21764, Note_off_c, 0, 69, 64
2, 21803, Note_on_c, 0, 74, 57
2, 21804, Note_on_c, 0, 38, 50
2, 21811, Control_c, 0, 64, 0
2, 21811, Control_c, 0, 64, 0
2, 21820, Note_off_c, 0, 76, 64
2, 21846, Control_c, 0, 64, 127
2, 21846, Control_c, 0, 64, 127
2, 21946, Note_off_c, 0, 74, 64
2, 21948, Note_on_c, 0, 67, 43
2, 21993, Note_on_c, 0, 50, 46
2, 22006, Note_on_c, 0, 57, 37
2, 22008, Note_on_c, 0, 66, 58
2, 22010, Note_on_c, 0, 60, 26
2, 22023, Control_c, 0, 64, 0
2, 22023, Control_c, 0, 64, 0
2, 22039, Note_off_c, 0, 67, 64
2, 22039, Control_c, 0, 64, 127
2, 22039, Control_c, 0, 64, 127
2, 22092, Note_off_c, 0, 38, 64
2, 22113, Note_off_c, 0, 50, 64
2, 22123, Note_on_c, 0, 67, 52
2, 22126, Note_off_c, 0, 57, 64
2, 22130, Note_off_c, 0, 60, 64
2, 22135, Note_off_c, 0, 66, 64
2, 22184, Note_on_c, 0, 68, 56
2, 22184, Note_on_c, 0, 60, 54
2, 22184, Note_on_c, 0, 50, 51
2, 22192, Note_on_c, 0, 54, 50
2, 22199, Control_c, 0, 64, 0
2, 22199, Control_c, 0, 64, 0
2, 22227, Note_off_c, 0, 67, 64
2, 22233, Control_c, 0, 64, 127
2, 22233, Control_c, 0, 64, 127
2, 22294, Note_on_c, 0, 71, 52
2, 22314, Note_off_c, 0, 68, 64
2, 22375, Note_on_c, 0, 69, 43
2, 22389, Note_off_c, 0, 71, 64
2, 22422, Note_off_c, 0, 54, 64
2, 22433, Note_off_c, 0, 60, 64
2, 22439, Note_off_c, 0, 50, 64
2, 22478, Note_on_c, 0, 65, 51
2, 22512, Note_off_c, 0, 69, 64
2, 22536, Note_on_c, 0, 66, 57
2, 22546, Note_on_c, 0, 51, 50
2, 22548, Note_on_c, 0, 60, 39
2, 22548, Control_c, 0, 64, 0
2, 22548, Control_c, 0, 64, 0
2, 22556, Note_on_c, 0, 57, 41
2, 22560, Note_off_c, 0, 65, 64
2, 22586, Control_c, 0, 64, 127
2, 22586, Control_c, 0, 64, 127
2, 22648, Note_on_c, 0, 67, 57
2, 22664, Note_off_c, 0, 66, 64
2, 22666, Note_off_c, 0, 51, 64
2, 22668, Note_off_c, 0, 60, 64
2, 22676, Note_off_c, 0, 57, 64
2, 22717, Note_on_c, 0, 51, 55
2, 22720, Note_on_c, 0, 68, 57
2, 22724, Note_on_c, 0, 60, 55
2, 22726, Note_on_c, 0, 54, 51
2, 22736, Control_c, 0, 64, 0
2, 22736, Control_c, 0, 64, 0
2, 22757, Note_off_c, 0, 67, 64
2, 22770, Control_c, 0, 64, 127
2, 22770, Control_c, 0, 64, 127
2, 22825, Note_on_c, 0, 71, 52
2, 22847, Note_off_c, 0, 68, 64
2, 22906, Note_on_c, 0, 69, 41
2, 22918, Note_off_c, 0, 71, 64
2, 22967, Note_on_c, 0, 71, 55
2, 22978, Note_off_c, 0, 69, 64
2, 23013, Note_on_c, 0, 69, 51
2, 23025, Note_off_c, 0, 71, 64
2, 23088, Note_on_c, 0, 66, 49
2, 23099, Note_on_c, 0, 57, 55
2, 23124, Control_c, 0, 64, 0
2, 23124, Control_c, 0, 64, 0
2, 23125, Note_off_c, 0, 54, 64
2, 23160, Control_c, 0, 64, 127
2, 23160, Control_c, 0, 64, 127
2, 23166, Note_off_c, 0, 69, 64
2, 23219, Note_on_c, 0, 67, 62
2, 23229, Note_off_c, 0, 66, 64
2, 23271, Note_on_c, 0, 68, 62
2, 23309, Note_off_c, 0, 67, 64
2, 23385, Note_off_c, 0, 57, 64
2, 23400, Note_on_c, 0, 71, 52
2, 23419, Note_off_c, 0, 68, 64
2, 23423, Note_off_c, 0, 51, 64
2, 23430, Note_off_c, 0, 60, 64
2, 23454, Note_on_c, 0, 52, 36
2, 23491, Note_on_c, 0, 69, 57
2, 23493, Note_on_c, 0, 64, 65
2, 23502, Control_c, 0, 64, 0
2, 23502, Control_c, 0, 64, 0
2, 23508, Note_off_c, 0, 71, 64
2, 23519, Note_off_c, 0, 52, 64
2, 23527, Control_c, 0, 64, 127
2, 23527, Control_c, 0, 64, 127
2, 23568, Note_on_c, 0, 59, 56
2, 23608, Note_off_c, 0, 64, 64
2, 23623, Note_on_c, 0, 67, 44
2, 23635, Note_off_c, 0, 69, 64
2, 23656, Note_off_c, 0, 67, 64
2, 23686, Note_on_c, 0, 60, 69
2, 23692, Note_on_c, 0, 67, 57
2, 23703, Control_c, 0, 64, 0
2, 23703, Control_c, 0, 64, 0
2, 23705, Note_off_c, 0, 59, 64
2, 23716, Control_c, 0, 64, 127
2, 23716, Control_c, 0, 64, 127
2, 23808, Note_on_c, 0, 65, 48
2, 23825, Note_off_c, 0, 67, 64
2, 23847, Note_off_c, 0, 65, 64
2, 23882, Note_on_c, 0, 57, 51
2, 23886, Note_off_c, 0, 60, 64
2, 23891, Note_on_c, 0, 65, 50
2, 23900, Control_c, 0, 64, 0
2, 23900, Control_c, 0, 64, 0
2, 23937, Control_c, 0, 64, 127
2, 23937, Control_c, 0, 64, 127
2, 24001, Note_on_c, 0, 63, 34
2, 24018, Note_off_c, 0, 65, 64
2, 24040, Note_off_c, 0, 63, 64
2, 24092, Note_on_c, 0, 63, 37
2, 24103, Note_on_c, 0, 59, 54
2, 24105, Note_off_c, 0, 57, 64
2, 24125, Control_c, 0, 64, 0
2, 24125, Control_c, 0, 64, 0
2, 24147, Control_c, 0, 64, 127
2, 24147, Control_c, 0, 64, 127
2, 24213, Note_on_c, 0, 56, 41
2, 24260, Note_on_c, 0, 64, 48
2, 24284, Note_off_c, 0, 63, 64
2, 24316, Note_off_c, 0, 64, 64
2, 24334, Note_on_c, 0, 52, 34
2, 24338, Note_on_c, 0, 64, 50
2, 24352, Note_off_c, 0, 56, 64
2, 24353, Control_c, 0, 64, 0
2, 24353, Control_c, 0, 64, 0
2, 24383, Control_c, 0, 64, 127
2, 24383, Control_c, 0, 64, 127
2, 24396, Note_off_c, 0, 59, 64
2, 24624, Note_on_c, 0, 47, 41
2, 24624, Note_on_c, 0, 40, 43
2, 24631, Note_on_c, 0, 62, 51
2, 24634, Note_on_c, 0, 56, 35
2, 24645, Control_c, 0, 64, 0
2, 24645, Control_c, 0, 64, 0
2, 24688, Control_c, 0, 64, 127
2, 24688, Control_c, 0, 64, 127
2, 24841, Note_off_c, 0, 40, 64
2, 24841, Note_off_c, 0, 47, 64
2, 24860, Note_on_c, 0, 66, 50
2, 24864, Note_on_c, 0, 40, 43
2, 24864, Note_on_c, 0, 47, 41
2, 24885, Control_c, 0, 64, 0
2, 24885, Control_c, 0, 64, 0
2, 24892, Note_off_c, 0, 52, 64
2, 24896, Note_off_c, 0, 64, 64
2, 24928, Control_c, 0, 64, 127
2, 24928, Control_c, 0, 64, 127
2, 24976, Note_on_c, 0, 68, 52
2, 25047, Note_off_c, 0, 66, 64
2, 25093, Note_on_c, 0, 69, 63
2, 25106, Note_off_c, 0, 47, 64
2, 25106, Note_off_c, 0, 40, 64
2, 25110, Note_off_c, 0, 68, 64
2, 25114, Note_off_c, 0, 62, 64
2, 25117, Note_off_c, 0, 56, 64
2, 25296, Note_on_c, 0, 71, 60
2, 25297, Note_on_c, 0, 56, 43
2, 25305, Note_on_c, 0, 62, 47
2, 25306, Note_on_c, 0, 52, 49
2, 25319, Control_c, 0, 64, 0
2, 25319, Control_c, 0, 64, 0
2, 25333, Note_off_c, 0, 69, 64
2, 25341, Control_c, 0, 64, 127
2, 25341, Control_c, 0, 64, 127
2, 25417, Note_off_c, 0, 56, 64
2, 25425, Note_off_c, 0, 62, 64
2, 25426, Note_off_c, 0, 52, 64
2, 25505, Note_on_c, 0, 72, 55
2, 25505, Note_on_c, 0, 45, 51
2, 25518, Control_c, 0, 64, 0
2, 25518, Control_c, 0, 64, 0
2, 25527, Note_off_c, 0, 71, 64
2, 25548, Control_c, 0, 64, 127
2, 25548, Control_c, 0, 64, 127
2, 25598, Note_on_c, 0, 77, 56
2, 25650, Note_off_c, 0, 72, 64
2, 25692, Note_on_c, 0, 76, 62
2, 25696, Note_on_c, 0, 60, 44
2, 25706, Note_on_c, 0, 52, 50
2, 25706, Control_c, 0, 64, 0
2, 25706, Control_c, 0, 64, 0
2, 25715, Note_off_c, 0, 77, 64
2, 25734, Control_c, 0, 64, 127
2, 25734, Control_c, 0, 64, 127
2, 25780, Note_on_c, 0, 72, 66
2, 25801, Note_off_c, 0, 76, 64
2, 25825, Note_off_c, 0, 60, 64
2, 25835, Note_off_c, 0, 52, 64
2, 25864, Control_c, 0, 64, 0
2, 25864, Control_c, 0, 64, 0
2, 25870, Note_on_c, 0, 44, 55
2, 25870, Note_on_c, 0, 76, 44
2, 25892, Control_c, 0, 64, 127
2, 25892, Control_c, 0, 64, 127
2, 25897, Note_off_c, 0, 72, 64
2, 25904, Note_off_c, 0, 45, 64
2, 25957, Note_on_c, 0, 78, 62
2, 26004, Note_off_c, 0, 76, 64
2, 26049, Control_c, 0, 64, 0
2, 26049, Control_c, 0, 64, 0
2, 26058, Note_on_c, 0, 79, 59
2, 26064, Note_on_c, 0, 43, 55
2, 26078, Control_c, 0, 64, 127
2, 26078, Control_c, 0, 64, 127
2, 26085, Note_off_c, 0, 44, 64
2, 26089, Note_off_c, 0, 78, 64
2, 26145, Note_on_c, 0, 74, 51
2, 26163, Note_off_c, 0, 79, 64
2, 26226, Note_on_c, 0, 76, 57
2, 26226, Note_on_c, 0, 60, 35
2, 26233, Note_on_c, 0, 64, 43
2, 26237, Note_on_c, 0, 55, 35
2, 26248, Control_c, 0, 64, 0
2, 26248, Control_c, 0, 64, 0
2, 26264, Note_off_c, 0, 74, 64
2, 26272, Control_c, 0, 64, 127
2, 26272, Control_c, 0, 64, 127
2, 26325, Note_on_c, 0, 71, 55
2, 26328, Note_off_c, 0, 76, 64
2, 26346, Note_off_c, 0, 60, 64
2, 26353, Note_off_c, 0, 64, 64
2, 26357, Note_off_c, 0, 55, 64
2, 26366, Note_off_c, 0, 43, 64
2, 26421, Note_on_c, 0, 72, 59
2, 26424, Note_on_c, 0, 69, 27
2, 26425, Note_on_c, 0, 60, 41
2, 26428, Note_off_c, 0, 71, 64
2, 26432, Note_on_c, 0, 64, 27
2, 26432, Control_c, 0, 64, 0
2, 26432, Control_c, 0, 64, 0
2, 26440, Control_c, 0, 64, 0
2, 26440, Control_c, 0, 64, 0
2, 26485, Control_c, 0, 64, 127
2, 26485, Control_c, 0, 64, 127
2, 26507, Note_off_c, 0, 69, 64
2, 26521, Note_off_c, 0, 72, 64
2, 26523, Note_on_c, 0, 69, 62
2, 26652, Note_off_c, 0, 64, 64
2, 26652, Note_on_c, 0, 74, 57
2, 26665, Control_c, 0, 64, 0
2, 26665, Control_c, 0, 64, 0
2, 26686, Note_off_c, 0, 69, 64
2, 26688, Note_off_c, 0, 60, 64
2, 26696, Control_c, 0, 64, 127
2, 26696, Control_c, 0, 64, 127
2, 26743, Note_on_c, 0, 71, 54
2, 26762, Note_off_c, 0, 74, 64
2, 26844, Note_on_c, 0, 67, 50
2, 26864, Note_on_c, 0, 62, 41
2, 26865, Note_on_c, 0, 55, 34
2, 26870, Note_on_c, 0, 65, 25
2, 26871, Note_off_c, 0, 71, 64
2, 26883, Control_c, 0, 64, 0
2, 26883, Control_c, 0, 64, 0
2, 26915, Control_c, 0, 64, 127
2, 26915, Control_c, 0, 64, 127
2, 26984, Note_off_c, 0, 62, 64
2, 26985, Note_off_c, 0, 55, 64
2, 26990, Note_off_c, 0, 65, 64
2, 27112, Note_on_c, 0, 65, 26
2, 27114, Note_on_c, 0, 59, 28
2, 27124, Note_on_c, 0, 55, 25
2, 27136, Control_c, 0, 64, 0
2, 27136, Control_c, 0, 64, 0
2, 27181, Control_c, 0, 64, 127
2, 27181, Control_c, 0, 64, 127
2, 27334, Note_off_c, 0, 59, 64
2, 27334, Note_on_c, 0, 69, 55
2, 27337, Note_off_c, 0, 55, 64
2, 27351, Note_off_c, 0, 65, 64
2, 27367, Note_off_c, 0, 67, 64
2, 27421, Note_on_c, 0, 71, 52
2, 27453, Note_off_c, 0, 69, 64
2, 27485, Control_c, 0, 64, 0
2, 27485, Control_c, 0, 64, 0
2, 27488, Note_on_c, 0, 55, 50
2, 27495, Note_on_c, 0, 57, 44
2, 27498, Note_on_c, 0, 65, 46
2, 27507, Note_on_c, 0, 72, 59
2, 27522, Note_off_c, 0, 71, 64
2, 27530, Control_c, 0, 64, 127
2, 27530, Control_c, 0, 64, 127
2, 27608, Note_off_c, 0, 55, 64
2, 27615, Note_off_c, 0, 57, 64
2, 27618, Note_off_c, 0, 65, 64
2, 27688, Note_on_c, 0, 74, 62
2, 27692, Note_on_c, 0, 65, 50
2, 27696, Note_on_c, 0, 55, 41
2, 27696, Note_on_c, 0, 59, 50
2, 27698, Note_off_c, 0, 72, 64
2, 27873, Note_off_c, 0, 65, 64
2, 27877, Note_off_c, 0, 59, 64
2, 27877, Note_off_c, 0, 55, 64
2, 27882, Note_on_c, 0, 76, 51
2, 27882, Note_on_c, 0, 48, 50
2, 27892, Control_c, 0, 64, 0
2, 27892, Control_c, 0, 64, 0
2, 27904, Note_off_c, 0, 74, 64
2, 27927, Control_c, 0, 64, 127
2, 27927, Control_c, 0, 64, 127
2, 27996, Note_on_c, 0, 78, 49
2, 28021, Note_off_c, 0, 76, 64
2, 28080, Note_on_c, 0, 76, 62
2, 28087, Note_off_c, 0, 78, 64
2, 28140, Control_c, 0, 64, 0
2, 28140, Control_c, 0, 64, 0
2, 28150, Note_on_c, 0, 58, 36
2, 28154, Note_on_c, 0, 54, 26
2, 28156, Note_on_c, 0, 78, 50
2, 28159, Note_on_c, 0, 64, 31
2, 28171, Control_c, 0, 64, 127
2, 28171, Control_c, 0, 64, 127
2, 28182, Note_off_c, 0, 76, 64
2, 28228, Note_off_c, 0, 78, 64
2, 28231, Note_off_c, 0, 48, 64
2, 28231, Note_on_c, 0, 80, 44
2, 28277, Note_on_c, 0, 78, 55
2, 28283, Note_off_c, 0, 80, 64
2, 28285, Note_off_c, 0, 58, 64
2, 28297, Note_off_c, 0, 54, 64
2, 28320, Note_off_c, 0, 78, 64
2, 28321, Note_off_c, 0, 64, 64
2, 28326, Note_on_c, 0, 80, 65
2, 28358, Note_on_c, 0, 78, 65
2, 28359, Note_off_c, 0, 80, 64
2, 28389, Note_off_c, 0, 78, 64
2, 28403, Note_on_c, 0, 80, 63
2, 28406, Note_on_c, 0, 48, 51
2, 28429, Note_on_c, 0, 78, 50
2, 28434, Note_off_c, 0, 80, 64
2, 28450, Note_off_c, 0, 78, 64
2, 28463, Note_on_c, 0, 80, 60
2, 28495, Note_on_c, 0, 78, 60
2, 28507, Note_off_c, 0, 80, 64
2, 28548, Note_off_c, 0, 78, 64
2, 28555, Note_on_c, 0, 76, 54
2, 28624, Note_on_c, 0, 78, 56
2, 28640, Note_off_c, 0, 76, 64
2, 28713, Note_on_c, 0, 80, 51
2, 28722, Note_off_c, 0, 78, 64
2, 28722, Note_on_c, 0, 47, 44
2, 28723, Control_c, 0, 64, 0
2, 28723, Control_c, 0, 64, 0
2, 28746, Note_off_c, 0, 48, 64
2, 28750, Control_c, 0, 64, 127
2, 28750, Control_c, 0, 64, 127
2, 28820, Note_on_c, 0, 71, 51
2, 28833, Note_off_c, 0, 80, 64
2, 28924, Note_on_c, 0, 56, 52
2, 28928, Note_on_c, 0, 80, 58
2, 28928, Note_on_c, 0, 64, 26
2, 28928, Note_on_c, 0, 59, 36
2, 28948, Control_c, 0, 64, 0
2, 28948, Control_c, 0, 64, 0
2, 28963, Note_off_c, 0, 71, 64
2, 28974, Control_c, 0, 64, 127
2, 28974, Control_c, 0, 64, 127
2, 29044, Note_off_c, 0, 56, 64
2, 29048, Note_off_c, 0, 59, 64
2, 29048, Note_off_c, 0, 64, 64
2, 29103, Note_off_c, 0, 47, 64
2, 29128, Note_on_c, 0, 63, 34
2, 29134, Note_on_c, 0, 78, 59
2, 29136, Note_on_c, 0, 59, 26
2, 29139, Note_on_c, 0, 57, 52
2, 29148, Note_off_c, 0, 80, 64
2, 29161, Control_c, 0, 64, 0
2, 29161, Control_c, 0, 64, 0
2, 29193, Control_c, 0, 64, 127
2, 29193, Control_c, 0, 64, 127
2, 29220, Note_on_c, 0, 80, 62
2, 29244, Note_off_c, 0, 78, 64
2, 29248, Note_off_c, 0, 63, 64
2, 29256, Note_off_c, 0, 59, 64
2, 29259, Note_off_c, 0, 57, 64
2, 29324, Note_on_c, 0, 76, 57
2, 29328, Note_on_c, 0, 52, 51
2, 29337, Control_c, 0, 64, 0
2, 29337, Control_c, 0, 64, 0
2, 29342, Note_off_c, 0, 80, 64
2, 29386, Control_c, 0, 64, 127
2, 29386, Control_c, 0, 64, 127
2, 29487, Note_off_c, 0, 76, 64
2, 29491, Note_on_c, 0, 71, 48
2, 29544, Note_on_c, 0, 68, 50
2, 29544, Note_on_c, 0, 64, 34
2, 29547, Note_on_c, 0, 59, 26
2, 29553, Note_on_c, 0, 76, 66
2, 29556, Note_on_c, 0, 56, 37
2, 29568, Control_c, 0, 64, 0
2, 29568, Control_c, 0, 64, 0
2, 29572, Note_off_c, 0, 71, 64
2, 29602, Control_c, 0, 64, 127
2, 29602, Control_c, 0, 64, 127
2, 29617, Note_off_c, 0, 52, 64
2, 29664, Note_off_c, 0, 64, 64
2, 29664, Note_off_c, 0, 68, 64
2, 29667, Note_off_c, 0, 59, 64
2, 29676, Note_off_c, 0, 56, 64
2, 29772, Note_on_c, 0, 57, 37
2, 29774, Note_on_c, 0, 61, 33
2, 29776, Note_on_c, 0, 67, 21
2, 29784, Control_c, 0, 64, 0
2, 29784, Control_c, 0, 64, 0
2, 29810, Control_c, 0, 64, 127
2, 29810, Control_c, 0, 64, 127
2, 29892, Note_off_c, 0, 57, 64
2, 29894, Note_off_c, 0, 61, 64
2, 29896, Note_off_c, 0, 67, 64
2, 30009, Control_c, 0, 64, 0
2, 30009, Control_c, 0, 64, 0
2, 30016, Note_on_c, 0, 77, 56
2, 30016, Note_on_c, 0, 50, 41
2, 30041, Note_off_c, 0, 76, 64
2, 30048, Control_c, 0, 64, 127
2, 30048, Control_c, 0, 64, 127
2, 30133, Note_on_c, 0, 69, 51
2, 30204, Note_off_c, 0, 77, 64
2, 30228, Note_on_c, 0, 74, 57
2, 30235, Note_on_c, 0, 65, 26
2, 30241, Note_on_c, 0, 62, 28
2, 30241, Note_on_c, 0, 57, 32
2, 30248, Control_c, 0, 64, 0
2, 30248, Control_c, 0, 64, 0
2, 30279, Note_off_c, 0, 69, 64
2, 30283, Control_c, 0, 64, 127
2, 30283, Control_c, 0, 64, 127
2, 30315, Note_off_c, 0, 50, 64
2, 30355, Note_off_c, 0, 65, 64
2, 30361, Note_off_c, 0, 57, 64
2, 30361, Note_off_c, 0, 62, 64
2, 30476, Note_on_c, 0, 71, 52
2, 30477, Note_on_c, 0, 52, 43
2, 30481, Note_on_c, 0, 56, 24
2, 30492, Note_on_c, 0, 62, 26
2, 30494, Note_off_c, 0, 74, 64
2, 30499, Control_c, 0, 64, 0
2, 30499, Control_c, 0, 64, 0
2, 30521, Control_c, 0, 64, 127
2, 30521, Control_c, 0, 64, 127
2, 30597, Note_off_c, 0, 52, 64
2, 30601, Note_off_c, 0, 56, 64
2, 30612, Note_off_c, 0, 62, 64
2, 30641, Note_on_c, 0, 72, 44
2, 30650, Note_off_c, 0, 71, 64
2, 30701, Note_on_c, 0, 69, 58
2, 30709, Note_off_c, 0, 72, 64
2, 30733, Note_on_c, 0, 71, 57
2, 30744, Note_off_c, 0, 69, 64
2, 30777, Note_on_c, 0, 69, 59
2, 30791, Note_off_c, 0, 71, 64
2, 30795, Control_c, 0, 64, 0
2, 30795, Control_c, 0, 64, 0
2, 30830, Control_c, 0, 64, 127
2, 30830, Control_c, 0, 64, 127
2, 31008, Note_off_c, 0, 69, 64
2, 31008, Note_on_c, 0, 68, 51
2, 31103, Note_on_c, 0, 60, 56
2, 31104, Note_on_c, 0, 52, 24
2, 31105, Note_on_c, 0, 69, 49
2, 31112, Note_on_c, 0, 45, 33
2, 31129, Control_c, 0, 64, 0
2, 31129, Control_c, 0, 64, 0
2, 31135, Note_off_c, 0, 68, 64
2, 31175, Control_c, 0, 64, 127
2, 31175, Control_c, 0, 64, 127
2, 31327, Note_off_c, 0, 60, 64
2, 31328, Note_off_c, 0, 52, 64
2, 31336, Note_off_c, 0, 45, 64
2, 31474, Note_on_c, 0, 60, 50
2, 31491, Note_on_c, 0, 52, 26
2, 31491, Note_on_c, 0, 45, 28
2, 31504, Control_c, 0, 64, 0
2, 31504, Control_c, 0, 64, 0
2, 31550, Control_c, 0, 64, 127
2, 31550, Control_c, 0, 64, 127
2, 31641, Note_off_c, 0, 45, 64
2, 31644, Note_off_c, 0, 52, 64
2, 31779, Note_on_c, 0, 61, 43
2, 31792, Note_off_c, 0, 60, 64
2, 31798, Note_on_c, 0, 52, 23
2, 31799, Note_on_c, 0, 45, 23
2, 31806, Control_c, 0, 64, 0
2, 31806, Control_c, 0, 64, 0
2, 31849, Control_c, 0, 64, 127
2, 31849, Control_c, 0, 64, 127
2, 32003, Note_off_c, 0, 61, 64
2, 32022, Note_off_c, 0, 52, 64
2, 32023, Note_off_c, 0, 45, 64
2, 32097, Control_c, 0, 64, 0
2, 32097, Control_c, 0, 64, 0
2, 32101, Note_on_c, 0, 61, 41
2, 32101, Note_on_c, 0, 52, 28
2, 32109, Note_on_c, 0, 45, 27
2, 32126, Control_c, 0, 64, 127
2, 32126, Control_c, 0, 64, 127
2, 32136, Note_off_c, 0, 69, 64
2, 32245, Control_c, 0, 64, 0
2, 32245, Control_c, 0, 64, 0
2, 32272, Control_c, 0, 64, 127
2, 32272, Control_c, 0, 64, 127
2, 32325, Note_off_c, 0, 52, 64
2, 32333, Note_off_c, 0, 45, 64
2, 32389, Note_on_c, 0, 64, 43
2, 32389, Note_on_c, 0, 54, 29
2, 32396, Note_on_c, 0, 45, 29
2, 32400, Note_on_c, 0, 38, 31
2, 32408, Note_off_c, 0, 61, 64
2, 32412, Control_c, 0, 64, 0
2, 32412, Control_c, 0, 64, 0
2, 32444, Control_c, 0, 64, 127
2, 32444, Control_c, 0, 64, 127
2, 32594, Note_on_c, 0, 62, 29
2, 32610, Note_off_c, 0, 64, 64
2, 32613, Note_off_c, 0, 54, 64
2, 32620, Note_off_c, 0, 45, 64
2, 32624, Note_off_c, 0, 38, 64
2, 32660, Note_on_c, 0, 61, 41
2, 32667, Note_on_c, 0, 45, 35
2, 32669, Note_on_c, 0, 52, 34
2, 32676, Note_off_c, 0, 62, 64
2, 32677, Control_c, 0, 64, 0
2, 32677, Control_c, 0, 64, 0
2, 32704, Control_c, 0, 64, 127
2, 32704, Control_c, 0, 64, 127
2, 32829, Control_c, 0, 64, 0
2, 32829, Control_c, 0, 64, 0
2, 32856, Control_c, 0, 64, 127
2, 32856, Control_c, 0, 64, 127
2, 32858, Note_off_c, 0, 61, 64
2, 32865, Note_off_c, 0, 45, 64
2, 32867, Note_off_c, 0, 52, 64
2, 32920, Note_on_c, 0, 61, 43
2, 32921, Note_on_c, 0, 45, 41
2, 32924, Note_on_c, 0, 33, 36
2, 32933, Note_on_c, 0, 52, 43
2, 32941, Control_c, 0, 64, 0
2, 32941, Control_c, 0, 64, 0
2, 32986, Control_c, 0, 64, 127
2, 32986, Control_c, 0, 64, 127
2, 33145, Note_off_c, 0, 45, 64
2, 33148, Note_off_c, 0, 33, 64
2, 33157, Note_off_c, 0, 52, 64
2, 33189, Note_on_c, 0, 54, 41
2, 33191, Note_on_c, 0, 57, 49
2, 33199, Note_on_c, 0, 45, 39
2, 33202, Note_on_c, 0, 38, 32
2, 33206, Note_off_c, 0, 61, 64
2, 33211, Control_c, 0, 64, 0
2, 33211, Control_c, 0, 64, 0
2, 33255, Control_c, 0, 64, 127
2, 33255, Control_c, 0, 64, 127
2, 33361, Note_on_c, 0, 59, 43
2, 33387, Note_off_c, 0, 54, 64
2, 33400, Note_off_c, 0, 57, 64
2, 33423, Note_off_c, 0, 45, 64
2, 33426, Note_off_c, 0, 38, 64
2, 33428, Note_on_c, 0, 52, 34
2, 33431, Note_on_c, 0, 61, 46
2, 33440, Note_on_c, 0, 45, 40
2, 33453, Note_off_c, 0, 59, 64
2, 33464, Control_c, 0, 64, 0
2, 33464, Control_c, 0, 64, 0
2, 33497, Control_c, 0, 64, 127
2, 33497, Control_c, 0, 64, 127
2, 33652, Note_off_c, 0, 52, 64
2, 33655, Note_off_c, 0, 61, 64
2, 33688, Note_on_c, 0, 61, 47
2, 33688, Note_on_c, 0, 59, 46
2, 33693, Note_on_c, 0, 44, 41
2, 33694, Note_on_c, 0, 53, 42
2, 33709, Note_off_c, 0, 45, 64
2, 33720, Control_c, 0, 64, 0
2, 33720, Control_c, 0, 64, 0
2, 33764, Control_c, 0, 64, 127
2, 33764, Control_c, 0, 64, 127
2, 33912, Note_off_c, 0, 59, 64
2, 33918, Note_off_c, 0, 53, 64
2, 33968, Note_on_c, 0, 64, 43
2, 33975, Note_on_c, 0, 57, 43
2, 33975, Note_on_c, 0, 54, 43
2, 33979, Note_on_c, 0, 42, 43
2, 33983, Note_off_c, 0, 61, 64
2, 33995, Control_c, 0, 64, 0
2, 33995, Control_c, 0, 64, 0
2, 34014, Note_off_c, 0, 44, 64
2, 34030, Control_c, 0, 64, 127
2, 34030, Control_c, 0, 64, 127
2, 34171, Note_on_c, 0, 62, 44
2, 34199, Note_off_c, 0, 54, 64
2, 34199, Note_off_c, 0, 57, 64
2, 34207, Note_off_c, 0, 64, 64
2, 34232, Note_on_c, 0, 61, 54
2, 34236, Note_on_c, 0, 56, 54
2, 34240, Note_on_c, 0, 41, 39
2, 34246, Control_c, 0, 64, 0
2, 34246, Control_c, 0, 64, 0
2, 34256, Note_off_c, 0, 62, 64
2, 34274, Note_off_c, 0, 42, 64
2, 34301, Control_c, 0, 64, 127
2, 34301, Control_c, 0, 64, 127
2, 34467, Note_off_c, 0, 61, 64
2, 34500, Note_on_c, 0, 57, 56
2, 34500, Note_on_c, 0, 61, 51
2, 34505, Note_on_c, 0, 42, 49
2, 34508, Note_off_c, 0, 56, 64
2, 34508, Note_on_c, 0, 49, 32
2, 34517, Note_off_c, 0, 41, 64
2, 34519, Control_c, 0, 64, 0
2, 34519, Control_c, 0, 64, 0
2, 34541, Control_c, 0, 64, 0
2, 34541, Control_c, 0, 64, 0
2, 34551, Control_c, 0, 64, 127
2, 34551, Control_c, 0, 64, 127
2, 34568, Control_c, 0, 64, 127
2, 34568, Control_c, 0, 64, 127
2, 34731, Control_c, 0, 64, 0
2, 34731, Control_c, 0, 64, 0
2, 34774, Note_off_c, 0, 57, 64
2, 34801, Note_on_c, 0, 39, 50
2, 34804, Note_on_c, 0, 57, 60
2, 34804, Note_on_c, 0, 54, 54
2, 34818, Note_off_c, 0, 61, 64
2, 34823, Note_off_c, 0, 42, 64
2, 34826, Note_off_c, 0, 49, 64
2, 34830, Control_c, 0, 64, 127
2, 34830, Control_c, 0, 64, 127
2, 35004, Note_on_c, 0, 59, 62
2, 35020, Note_off_c, 0, 57, 64
2, 35021, Note_off_c, 0, 54, 64
2, 35052, Note_on_c, 0, 40, 52
2, 35060, Note_on_c, 0, 52, 50
2, 35060, Control_c, 0, 64, 0
2, 35060, Control_c, 0, 64, 0
2, 35067, Note_on_c, 0, 61, 51
2, 35074, Note_off_c, 0, 39, 64
2, 35074, Note_on_c, 0, 57, 55
2, 35100, Control_c, 0, 64, 127
2, 35100, Control_c, 0, 64, 127
2, 35124, Note_off_c, 0, 59, 64
2, 35228, Note_on_c, 0, 62, 34
2, 35258, Note_off_c, 0, 61, 64
2, 35276, Note_off_c, 0, 40, 64
2, 35284, Note_off_c, 0, 52, 64
2, 35298, Note_off_c, 0, 57, 64
2, 35322, Note_on_c, 0, 52, 43
2, 35331, Note_on_c, 0, 63, 59
2, 35343, Control_c, 0, 64, 0
2, 35343, Control_c, 0, 64, 0
2, 35344, Note_off_c, 0, 62, 64
2, 35366, Control_c, 0, 64, 127
2, 35366, Control_c, 0, 64, 127
2, 35453, Note_on_c, 0, 64, 54
2, 35482, Note_off_c, 0, 63, 64
2, 35546, Note_off_c, 0, 52, 64
2, 35576, Note_on_c, 0, 73, 59
2, 35580, Note_on_c, 0, 56, 54
2, 35588, Note_on_c, 0, 52, 54
2, 35593, Note_off_c, 0, 64, 64
2, 35593, Note_on_c, 0, 62, 52
2, 35600, Control_c, 0, 64, 0
2, 35600, Control_c, 0, 64, 0
2, 35622, Control_c, 0, 64, 127
2, 35622, Control_c, 0, 64, 127
2, 35728, Note_on_c, 0, 71, 71
2, 35732, Note_on_c, 0, 78, 59
2, 35750, Note_off_c, 0, 73, 64
2, 35803, Note_off_c, 0, 71, 64
2, 35804, Note_off_c, 0, 56, 64
2, 35805, Note_on_c, 0, 45, 52
2, 35812, Note_off_c, 0, 52, 64
2, 35817, Note_off_c, 0, 62, 64
2, 35828, Note_on_c, 0, 52, 44
2, 35832, Note_on_c, 0, 71, 67
2, 35833, Note_off_c, 0, 78, 64
2, 35835, Note_on_c, 0, 76, 67
2, 35852, Control_c, 0, 64, 0
2, 35852, Control_c, 0, 64, 0
2, 35861, Note_on_c, 0, 62, 58
2, 35881, Control_c, 0, 64, 127
2, 35881, Control_c, 0, 64, 127
2, 35975, Note_on_c, 0, 69, 62
2, 36001, Note_off_c, 0, 71, 64
2, 36029, Note_off_c, 0, 45, 64
2, 36047, Note_off_c, 0, 69, 64
2, 36052, Note_off_c, 0, 52, 64
2, 36060, Note_on_c, 0, 69, 65
2, 36085, Note_on_c, 0, 52, 59
2, 36106, Note_on_c, 0, 81, 72
2, 36106, Note_on_c, 0, 61, 59
2, 36118, Note_off_c, 0, 62, 64
2, 36119, Control_c, 0, 64, 0
2, 36119, Control_c, 0, 64, 0
2, 36142, Note_off_c, 0, 76, 64
2, 36154, Control_c, 0, 64, 127
2, 36154, Control_c, 0, 64, 127
2, 36309, Note_off_c, 0, 52, 64
2, 36330, Note_off_c, 0, 61, 64
2, 36334, Note_on_c, 0, 53, 46
2, 36336, Note_on_c, 0, 61, 49
2, 36345, Note_on_c, 0, 57, 51
2, 36349, Control_c, 0, 64, 0
2, 36349, Control_c, 0, 64, 0
2, 36364, Control_c, 0, 64, 127
2, 36364, Control_c, 0, 64, 127
2, 36458, Note_on_c, 0, 80, 62
2, 36481, Note_off_c, 0, 81, 64
2, 36516, Note_off_c, 0, 80, 64
2, 36558, Note_off_c, 0, 53, 64
2, 36560, Note_off_c, 0, 61, 64
2, 36566, Note_off_c, 0, 69, 64
2, 36569, Note_off_c, 0, 57, 64
2, 36572, Note_on_c, 0, 66, 55
2, 36574, Note_on_c, 0, 54, 44
2, 36576, Note_on_c, 0, 61, 48
2, 36579, Note_on_c, 0, 80, 67
2, 36585, Note_on_c, 0, 57, 49
2, 36589, Control_c, 0, 64, 0
2, 36589, Control_c, 0, 64, 0
2, 36589, Control_c, 0, 64, 0
2, 36589, Control_c, 0, 64, 0
2, 36603, Control_c, 0, 64, 127
2, 36603, Control_c, 0, 64, 127
2, 36604, Control_c, 0, 64, 127
2, 36604, Control_c, 0, 64, 127
2, 36702, Note_on_c, 0, 69, 57
2, 36731, Note_off_c, 0, 66, 64
2, 36786, Note_off_c, 0, 54, 64
2, 36800, Note_off_c, 0, 61, 64
2, 36803, Note_on_c, 0, 54, 48
2, 36809, Note_off_c, 0, 57, 64
2, 36810, Note_on_c, 0, 62, 40
2, 36810, Control_c, 0, 64, 0
2, 36810, Control_c, 0, 64, 0
2, 36819, Note_on_c, 0, 57, 42
2, 36820, Note_on_c, 0, 74, 59
2, 36842, Control_c, 0, 64, 127
2, 36842, Control_c, 0, 64, 127
2, 36857, Note_off_c, 0, 69, 64
2, 36921, Note_on_c, 0, 76, 54
2, 36942, Note_off_c, 0, 74, 64
2, 36971, Note_off_c, 0, 80, 64
2, 37027, Note_off_c, 0, 54, 64
2, 37032, Control_c, 0, 64, 0
2, 37032, Control_c, 0, 64, 0
2, 37034, Note_off_c, 0, 62, 64
2, 37039, Note_on_c, 0, 45, 50
2, 37042, Note_on_c, 0, 80, 69
2, 37043, Note_off_c, 0, 57, 64
2, 37072, Control_c, 0, 64, 127
2, 37072, Control_c, 0, 64, 127
2, 37077, Note_off_c, 0, 76, 64
2, 37144, Note_on_c, 0, 74, 58
2, 37145, Note_on_c, 0, 78, 64
2, 37162, Note_off_c, 0, 80, 64
2, 37216, Note_on_c, 0, 52, 60
2, 37256, Note_on_c, 0, 73, 52
2, 37258, Note_on_c, 0, 61, 41
2, 37264, Note_on_c, 0, 76, 62
2, 37272, Control_c, 0, 64, 0
2, 37272, Control_c, 0, 64, 0
2, 37277, Note_off_c, 0, 74, 64
2, 37278, Note_off_c, 0, 78, 64
2, 37285, Control_c, 0, 64, 127
2, 37285, Control_c, 0, 64, 127
2, 37356, Note_on_c, 0, 67, 63
2, 37366, Note_on_c, 0, 75, 56
2, 37367, Note_off_c, 0, 73, 64
2, 37375, Note_off_c, 0, 76, 64
2, 37456, Note_off_c, 0, 52, 64
2, 37477, Note_on_c, 0, 66, 70
2, 37483, Note_on_c, 0, 46, 63
2, 37487, Note_on_c, 0, 76, 59
2, 37490, Note_off_c, 0, 67, 64
2, 37495, Control_c, 0, 64, 0
2, 37495, Control_c, 0, 64, 0
2, 37498, Note_off_c, 0, 61, 64
2, 37500, Note_off_c, 0, 75, 64
2, 37517, Control_c, 0, 64, 127
2, 37517, Control_c, 0, 64, 127
2, 37525, Note_off_c, 0, 45, 64
2, 37596, Note_on_c, 0, 77, 59
2, 37621, Note_off_c, 0, 76, 64
2, 37697, Note_on_c, 0, 42, 63
2, 37709, Note_on_c, 0, 78, 71
2, 37723, Note_off_c, 0, 77, 64
2, 37735, Note_off_c, 0, 46, 64
2, 37815, Note_on_c, 0, 76, 60
2, 37824, Note_on_c, 0, 70, 48
2, 37837, Note_off_c, 0, 78, 64
2, 37851, Note_off_c, 0, 66, 64
2, 37926, Note_off_c, 0, 70, 64
2, 37930, Note_on_c, 0, 74, 49
2, 37932, Note_on_c, 0, 70, 59
2, 37934, Note_off_c, 0, 76, 64
2, 37939, Note_on_c, 0, 35, 50
2, 37954, Control_c, 0, 64, 0
2, 37954, Control_c, 0, 64, 0
2, 37983, Note_off_c, 0, 42, 64
2, 37988, Control_c, 0, 64, 127
2, 37988, Control_c, 0, 64, 127
2, 38042, Note_on_c, 0, 71, 49
2, 38066, Note_off_c, 0, 70, 64
2, 38075, Note_off_c, 0, 74, 64
2, 38144, Note_off_c, 0, 71, 64
2, 38148, Note_on_c, 0, 68, 62
2, 38148, Note_on_c, 0, 59, 41
2, 38152, Note_on_c, 0, 62, 28
2, 38168, Control_c, 0, 64, 0
2, 38168, Control_c, 0, 64, 0
2, 38181, Control_c, 0, 64, 127
2, 38181, Control_c, 0, 64, 127
2, 38220, Note_off_c, 0, 35, 64
2, 38248, Note_on_c, 0, 73, 57
2, 38248, Note_on_c, 0, 69, 52
2, 38268, Note_off_c, 0, 59, 64
2, 38272, Note_off_c, 0, 62, 64
2, 38273, Note_off_c, 0, 68, 64
2, 38348, Note_on_c, 0, 56, 44
2, 38354, Note_on_c, 0, 76, 47
2, 38356, Note_on_c, 0, 59, 43
2, 38362, Note_off_c, 0, 69, 64
2, 38362, Note_on_c, 0, 66, 60
2, 38374, Control_c, 0, 64, 0
2, 38374, Control_c, 0, 64, 0
2, 38376, Note_off_c, 0, 73, 64
2, 38385, Control_c, 0, 64, 127
2, 38385, Control_c, 0, 64, 127
2, 38459, Note_on_c, 0, 74, 40
2, 38462, Note_on_c, 0, 68, 50
2, 38468, Note_off_c, 0, 56, 64
2, 38473, Note_off_c, 0, 76, 64
2, 38476, Note_off_c, 0, 59, 64
2, 38490, Note_off_c, 0, 66, 64
2, 38564, Note_on_c, 0, 72, 54
2, 38581, Note_off_c, 0, 74, 64
2, 38581, Note_on_c, 0, 59, 44
2, 38581, Note_on_c, 0, 49, 40
2, 38597, Control_c, 0, 64, 0
2, 38597, Control_c, 0, 64, 0
2, 38617, Control_c, 0, 64, 127
2, 38617, Control_c, 0, 64, 127
2, 38672, Note_on_c, 0, 73, 46
2, 38679, Note_off_c, 0, 72, 64
2, 38686, Note_on_c, 0, 65, 59
2, 38701, Note_off_c, 0, 68, 64
2, 38783, Note_off_c, 0, 49, 64
2, 38795, Note_on_c, 0, 74, 50
2, 38800, Note_on_c, 0, 54, 39
2, 38803, Note_on_c, 0, 64, 56
2, 38803, Note_on_c, 0, 58, 37
2, 38805, Note_off_c, 0, 73, 64
2, 38812, Note_off_c, 0, 65, 64
2, 38816, Note_off_c, 0, 59, 64
2, 38832, Control_c, 0, 64, 0
2, 38832, Control_c, 0, 64, 0
2, 38859, Control_c, 0, 64, 127
2, 38859, Control_c, 0, 64, 127
2, 39020, Note_on_c, 0, 66, 49
2, 39034, Note_off_c, 0, 58, 64
2, 39049, Control_c, 0, 64, 0
2, 39049, Control_c, 0, 64, 0
2, 39072, Control_c, 0, 64, 127
2, 39072, Control_c, 0, 64, 127
2, 39144, Note_on_c, 0, 73, 49
2, 39170, Note_off_c, 0, 64, 64
2, 39170, Note_off_c, 0, 74, 64
2, 39275, Note_on_c, 0, 63, 57
2, 39298, Note_off_c, 0, 73, 64
2, 39310, Note_off_c, 0, 66, 64
2, 39396, Note_on_c, 0, 66, 56
2, 39415, Note_off_c, 0, 63, 64
2, 39503, Note_on_c, 0, 47, 51
2, 39510, Control_c, 0, 64, 0
2, 39510, Control_c, 0, 64, 0
2, 39516, Note_on_c, 0, 68, 56
2, 39529, Note_off_c, 0, 66, 64
2, 39541, Control_c, 0, 64, 127
2, 39541, Control_c, 0, 64, 127
2, 39602, Note_on_c, 0, 69, 56
2, 39610, Note_off_c, 0, 68, 64
2, 39724, Note_on_c, 0, 57, 51
2, 39737, Note_on_c, 0, 73, 55
2, 39739, Note_on_c, 0, 63, 51
2, 39751, Control_c, 0, 64, 0
2, 39751, Control_c, 0, 64, 0
2, 39756, Note_off_c, 0, 69, 64
2, 39765, Control_c, 0, 64, 127
2, 39765, Control_c, 0, 64, 127
2, 39792, Note_off_c, 0, 47, 64
2, 39851, Note_on_c, 0, 71, 56
2, 39870, Note_off_c, 0, 73, 64
2, 39952, Note_on_c, 0, 69, 60
2, 39975, Note_off_c, 0, 57, 64
2, 39979, Note_off_c, 0, 71, 64
2, 39982, Note_off_c, 0, 63, 64
2, 40000, Note_off_c, 0, 54, 64
2, 40066, Note_on_c, 0, 59, 51
2, 40094, Note_off_c, 0, 69, 64
2, 40164, Control_c, 0, 64, 0
2, 40164, Control_c, 0, 64, 0
2, 40172, Note_on_c, 0, 40, 51
2, 40182, Note_on_c, 0, 62, 57
2, 40201, Control_c, 0, 64, 127
2, 40201, Control_c, 0, 64, 127
2, 40208, Note_off_c, 0, 59, 64
2, 40290, Note_on_c, 0, 64, 57
2, 40302, Note_off_c, 0, 62, 64
2, 40413, Note_on_c, 0, 66, 52
2, 40413, Note_on_c, 0, 52, 52
2, 40419, Note_on_c, 0, 62, 51
2, 40440, Note_off_c, 0, 64, 64
2, 40440, Control_c, 0, 64, 0
2, 40440, Control_c, 0, 64, 0
2, 40463, Note_off_c, 0, 40, 64
2, 40472, Control_c, 0, 64, 127
2, 40472, Control_c, 0, 64, 127
2, 40529, Note_on_c, 0, 69, 49
2, 40553, Note_off_c, 0, 66, 64
2, 40577, Note_on_c, 0, 68, 60
2, 40597, Note_off_c, 0, 69, 64
2, 40614, Control_c, 0, 64, 0
2, 40614, Control_c, 0, 64, 0
2, 40650, Control_c, 0, 64, 127
2, 40650, Control_c, 0, 64, 127
2, 40689, Note_off_c, 0, 62, 64
2, 40692, Control_c, 0, 64, 0
2, 40692, Control_c, 0, 64, 0
2, 40695, Note_on_c, 0, 66, 55
2, 40700, Note_on_c, 0, 45, 51
2, 40712, Note_off_c, 0, 68, 64
2, 40729, Control_c, 0, 64, 127
2, 40729, Control_c, 0, 64, 127
2, 40808, Note_on_c, 0, 61, 62
2, 40831, Note_off_c, 0, 66, 64
2, 40846, Note_off_c, 0, 52, 64
2, 40901, Note_on_c, 0, 52, 51
2, 40908, Note_off_c, 0, 45, 64
2, 40911, Note_on_c, 0, 64, 57
2, 40943, Note_off_c, 0, 61, 64
2, 41025, Note_off_c, 0, 64, 64
2, 41025, Note_on_c, 0, 74, 41
2, 41123, Note_off_c, 0, 74, 64
2, 41130, Note_on_c, 0, 73, 40
2, 41151, Note_on_c, 0, 64, 62
2, 41156, Control_c, 0, 64, 0
2, 41156, Control_c, 0, 64, 0
2, 41187, Note_off_c, 0, 52, 64
2, 41189, Control_c, 0, 64, 127
2, 41189, Control_c, 0, 64, 127
2, 41257, Note_off_c, 0, 73, 64
2, 41259, Note_on_c, 0, 78, 65
2, 41271, Note_on_c, 0, 71, 52
2, 41281, Note_on_c, 0, 62, 50
2, 41297, Note_off_c, 0, 64, 64
2, 41307, Note_off_c, 0, 71, 64
2, 41327, Note_off_c, 0, 62, 64
2, 41378, Note_off_c, 0, 78, 64
2, 41388, Note_on_c, 0, 71, 63
2, 41395, Note_on_c, 0, 76, 62
2, 41395, Note_on_c, 0, 61, 56
2, 41407, Control_c, 0, 64, 0
2, 41407, Control_c, 0, 64, 0
2, 41429, Control_c, 0, 64, 127
2, 41429, Control_c, 0, 64, 127
2, 41492, Note_off_c, 0, 76, 64
2, 41501, Note_off_c, 0, 71, 64
2, 41536, Note_off_c, 0, 61, 64
2, 41552, Note_on_c, 0, 69, 49
2, 41596, Note_off_c, 0, 69, 64
2, 41608, Note_on_c, 0, 69, 56
2, 41663, Note_on_c, 0, 81, 63
2, 41674, Note_on_c, 0, 45, 55
2, 41688, Control_c, 0, 64, 0
2, 41688, Control_c, 0, 64, 0
2, 41710, Control_c, 0, 64, 127
2, 41710, Control_c, 0, 64, 127
2, 41916, Note_on_c, 0, 57, 50
2, 41916, Note_on_c, 0, 53, 49
2, 41923, Note_on_c, 0, 61, 48
2, 41933, Control_c, 0, 64, 0
2, 41933, Control_c, 0, 64, 0
2, 41948, Control_c, 0, 64, 127
2, 41948, Control_c, 0, 64, 127
2, 41960, Note_off_c, 0, 81, 64
2, 41963, Note_off_c, 0, 45, 64
2, 42045, Note_on_c, 0, 80, 66
2, 42118, Note_off_c, 0, 57, 64
2, 42128, Note_off_c, 0, 53, 64
2, 42133, Note_off_c, 0, 61, 64
2, 42201, Note_on_c, 0, 61, 59
2, 42210, Note_on_c, 0, 54, 44
2, 42210, Note_on_c, 0, 57, 51
2, 42228, Control_c, 0, 64, 0
2, 42228, Control_c, 0, 64, 0
2, 42241, Control_c, 0, 64, 127
2, 42241, Control_c, 0, 64, 127
2, 42287, Note_off_c, 0, 69, 64
2, 42322, Note_on_c, 0, 69, 56
2, 42422, Note_off_c, 0, 54, 64
2, 42425, Note_off_c, 0, 61, 64
2, 42434, Note_off_c, 0, 57, 64
2, 42437, Note_off_c, 0, 80, 64
2, 42439, Note_on_c, 0, 54, 42
2, 42446, Note_on_c, 0, 62, 43
2, 42446, Note_on_c, 0, 57, 50
2, 42453, Note_on_c, 0, 74, 62
2, 42463, Control_c, 0, 64, 0
2, 42463, Control_c, 0, 64, 0
2, 42495, Control_c, 0, 64, 127
2, 42495, Control_c, 0, 64, 127
2, 42549, Note_on_c, 0, 76, 62
2, 42574, Note_off_c, 0, 74, 64
2, 42663, Note_off_c, 0, 54, 64
2, 42670, Note_off_c, 0, 57, 64
2, 42670, Note_off_c, 0, 62, 64
2, 42671, Note_on_c, 0, 80, 62
2, 42673, Note_on_c, 0, 56, 54
2, 42678, Note_on_c, 0, 59, 47
2, 42682, Note_on_c, 0, 62, 41
2, 42692, Control_c, 0, 64, 0
2, 42692, Control_c, 0, 64, 0
2, 42699, Note_off_c, 0, 76, 64
2, 42730, Control_c, 0, 64, 127
2, 42730, Control_c, 0, 64, 127
2, 42829, Note_off_c, 0, 80, 64
2, 42836, Note_on_c, 0, 78, 60
2, 42861, Note_off_c, 0, 69, 64
2, 42874, Note_off_c, 0, 78, 64
2, 42897, Note_off_c, 0, 56, 64
2, 42898, Note_on_c, 0, 78, 65
2, 42902, Note_off_c, 0, 59, 64
2, 42906, Note_off_c, 0, 62, 64
2, 42907, Note_on_c, 0, 57, 49
2, 42911, Note_on_c, 0, 61, 50
2, 42923, Control_c, 0, 64, 0
2, 42923, Control_c, 0, 64, 0
2, 42956, Control_c, 0, 64, 127
2, 42956, Control_c, 0, 64, 127
2, 43015, Note_on_c, 0, 76, 60
2, 43050, Note_off_c, 0, 78, 64
2, 43118, Note_on_c, 0, 58, 58
2, 43126, Note_on_c, 0, 75, 62
2, 43130, Note_on_c, 0, 67, 50
2, 43131, Note_off_c, 0, 57, 64
2, 43135, Note_off_c, 0, 61, 64
2, 43146, Control_c, 0, 64, 0
2, 43146, Control_c, 0, 64, 0
2, 43149, Note_off_c, 0, 76, 64
2, 43177, Control_c, 0, 64, 127
2, 43177, Control_c, 0, 64, 127
2, 43235, Note_on_c, 0, 73, 59
2, 43249, Note_off_c, 0, 75, 64
2, 43339, Note_on_c, 0, 59, 51
2, 43346, Note_on_c, 0, 75, 55
2, 43355, Control_c, 0, 64, 0
2, 43355, Control_c, 0, 64, 0
2, 43357, Note_off_c, 0, 58, 64
2, 43366, Note_off_c, 0, 73, 64
2, 43380, Control_c, 0, 64, 127
2, 43380, Control_c, 0, 64, 127
2, 43441, Note_on_c, 0, 78, 48
2, 43448, Note_on_c, 0, 61, 41
2, 43471, Note_off_c, 0, 59, 64
2, 43472, Note_off_c, 0, 75, 64
2, 43472, Note_on_c, 0, 76, 42
2, 43486, Note_off_c, 0, 78, 64
2, 43518, Note_off_c, 0, 67, 64
2, 43572, Note_on_c, 0, 69, 41
2, 43584, Note_on_c, 0, 70, 62
2, 43587, Note_on_c, 0, 63, 51
2, 43594, Note_off_c, 0, 76, 64
2, 43600, Control_c, 0, 64, 0
2, 43600, Control_c, 0, 64, 0
2, 43637, Control_c, 0, 64, 127
2, 43637, Control_c, 0, 64, 127
2, 43727, Note_off_c, 0, 69, 64
2, 43730, Note_on_c, 0, 71, 56
2, 43759, Note_off_c, 0, 70, 64
2, 43767, Note_off_c, 0, 61, 64
2, 43773, Note_off_c, 0, 63, 64
2, 43797, Note_on_c, 0, 75, 51
2, 43814, Note_on_c, 0, 68, 49
2, 43816, Note_on_c, 0, 63, 49
2, 43818, Note_off_c, 0, 71, 64
2, 43818, Note_on_c, 0, 59, 42
2, 43823, Control_c, 0, 64, 0
2, 43823, Control_c, 0, 64, 0
2, 43846, Control_c, 0, 64, 127
2, 43846, Control_c, 0, 64, 127
2, 43919, Note_off_c, 0, 68, 64
2, 43921, Note_off_c, 0, 63, 64
2, 43925, Note_on_c, 0, 70, 62
2, 43929, Note_off_c, 0, 75, 64
2, 43942, Note_off_c, 0, 59, 64
2, 44017, Note_on_c, 0, 73, 57
2, 44023, Note_on_c, 0, 66, 42
2, 44023, Note_on_c, 0, 57, 44
2, 44033, Control_c, 0, 64, 0
2, 44033, Control_c, 0, 64, 0
2, 44067, Control_c, 0, 64, 127
2, 44067, Control_c, 0, 64, 127
2, 44085, Note_off_c, 0, 70, 64
2, 44095, Note_off_c, 0, 57, 64
2, 44095, Note_off_c, 0, 66, 64
2, 44123, Note_on_c, 0, 71, 55
2, 44136, Note_off_c, 0, 73, 64
2, 44223, Note_on_c, 0, 76, 56
2, 44236, Note_on_c, 0, 64, 35
2, 44241, Note_on_c, 0, 56, 41
2, 44246, Control_c, 0, 64, 0
2, 44246, Control_c, 0, 64, 0
2, 44253, Note_off_c, 0, 71, 64
2, 44258, Note_on_c, 0, 59, 23
2, 44272, Control_c, 0, 64, 127
2, 44272, Control_c, 0, 64, 127
2, 44287, Note_off_c, 0, 59, 64
2, 44299, Note_off_c, 0, 64, 64
2, 44305, Note_off_c, 0, 56, 64
2, 44359, Control_c, 0, 64, 0
2, 44359, Control_c, 0, 64, 0
2, 44363, Note_on_c, 0, 70, 57
2, 44382, Control_c, 0, 64, 127
2, 44382, Control_c, 0, 64, 127
2, 44437, Note_off_c, 0, 76, 64
2, 44471, Note_on_c, 0, 73, 52
2, 44474, Note_on_c, 0, 47, 34
2, 44501, Control_c, 0, 64, 0
2, 44501, Control_c, 0, 64, 0
2, 44524, Note_off_c, 0, 70, 64
2, 44530, Control_c, 0, 64, 127
2, 44530, Control_c, 0, 64, 127
2, 44577, Note_on_c, 0, 71, 52
2, 44583, Note_off_c, 0, 73, 64
2, 44697, Note_on_c, 0, 77, 62
2, 44697, Control_c, 0, 64, 0
2, 44697, Control_c, 0, 64, 0
2, 44714, Note_off_c, 0, 71, 64
2, 44723, Control_c, 0, 64, 127
2, 44723, Control_c, 0, 64, 127
2, 44751, Note_off_c, 0, 47, 64
2, 44812, Note_on_c, 0, 70, 65
2, 44822, Note_off_c, 0, 77, 64
2, 44915, Note_off_c, 0, 70, 64
2, 44933, Note_on_c, 0, 35, 64
2, 44936, Note_on_c, 0, 73, 62
2, 44946, Control_c, 0, 64, 0
2, 44946, Control_c, 0, 64, 0
2, 44959, Control_c, 0, 64, 127
2, 44959, Control_c, 0, 64, 127
2, 45040, Note_off_c, 0, 73, 64
2, 45050, Note_on_c, 0, 71, 57
2, 45129, Note_off_c, 0, 71, 64
2, 45131, Note_on_c, 0, 59, 39
2, 45188, Note_on_c, 0, 63, 71
2, 45200, Note_on_c, 0, 85, 72
2, 45214, Control_c, 0, 64, 0
2, 45214, Control_c, 0, 64, 0
2, 45220, Note_on_c, 0, 69, 49
2, 45228, Control_c, 0, 64, 127
2, 45228, Control_c, 0, 64, 127
2, 45246, Note_off_c, 0, 35, 64
2, 45371, Note_off_c, 0, 59, 64
2, 45371, Note_on_c, 0, 83, 59
2, 45391, Note_off_c, 0, 85, 64
2, 45428, Note_off_c, 0, 63, 64
2, 45431, Note_on_c, 0, 82, 65
2, 45451, Note_off_c, 0, 83, 64
2, 45460, Note_off_c, 0, 69, 64
2, 45537, Note_on_c, 0, 81, 60
2, 45549, Note_off_c, 0, 82, 64
2, 45663, Note_on_c, 0, 40, 49
2, 45664, Note_on_c, 0, 80, 57
2, 45689, Control_c, 0, 64, 0
2, 45689, Control_c, 0, 64, 0
2, 45694, Note_off_c, 0, 81, 64
2, 45702, Control_c, 0, 64, 127
2, 45702, Control_c, 0, 64, 127
2, 45784, Note_on_c, 0, 78, 52
2, 45809, Note_off_c, 0, 80, 64
2, 45904, Note_on_c, 0, 59, 49
2, 45904, Note_on_c, 0, 64, 41
2, 45904, Note_on_c, 0, 68, 41
2, 45911, Note_on_c, 0, 77, 56
2, 45915, Note_off_c, 0, 78, 64
2, 45961, Control_c, 0, 64, 0
2, 45961, Control_c, 0, 64, 0
2, 45963, Note_off_c, 0, 40, 64
2, 45974, Control_c, 0, 64, 127
2, 45974, Control_c, 0, 64, 127
2, 45998, Note_on_c, 0, 76, 55
2, 46006, Note_off_c, 0, 77, 64
2, 46082, Note_on_c, 0, 75, 52
2, 46108, Note_off_c, 0, 76, 64
2, 46147, Note_on_c, 0, 74, 56
2, 46158, Note_off_c, 0, 75, 64
2, 46164, Note_off_c, 0, 64, 64
2, 46179, Note_off_c, 0, 68, 64
2, 46212, Note_on_c, 0, 73, 62
2, 46223, Note_off_c, 0, 74, 64
2, 46230, Note_off_c, 0, 59, 64
2, 46267, Note_on_c, 0, 72, 51
2, 46268, Note_off_c, 0, 73, 64
2, 46339, Note_on_c, 0, 71, 58
2, 46339, Note_on_c, 0, 67, 58
2, 46339, Note_on_c, 0, 64, 55
2, 46349, Control_c, 0, 64, 0
2, 46349, Control_c, 0, 64, 0
2, 46353, Note_off_c, 0, 72, 64
2, 46457, Note_on_c, 0, 62, 39
2, 46476, Control_c, 0, 64, 127
2, 46476, Control_c, 0, 64, 127
2, 46507, Note_off_c, 0, 67, 64
2, 46515, Note_on_c, 0, 72, 51
2, 46523, Note_off_c, 0, 64, 64
2, 46526, Control_c, 0, 64, 0
2, 46526, Control_c, 0, 64, 0
2, 46532, Note_off_c, 0, 71, 64
2, 46556, Note_on_c, 0, 67, 51
2, 46561, Note_on_c, 0, 64, 51
2, 46567, Note_on_c, 0, 60, 42
2, 46600, Note_off_c, 0, 72, 64
2, 46621, Note_off_c, 0, 62, 64
2, 46630, Control_c, 0, 64, 127
2, 46630, Control_c, 0, 64, 127
2, 46671, Note_on_c, 0, 59, 34
2, 46685, Note_off_c, 0, 60, 64
2, 46709, Control_c, 0, 64, 0
2, 46709, Control_c, 0, 64, 0
2, 46742, Control_c, 0, 64, 127
2, 46742, Control_c, 0, 64, 127
2, 46779, Note_on_c, 0, 57, 43
2, 46812, Note_off_c, 0, 59, 64
2, 46868, Note_on_c, 0, 69, 47
2, 46868, Note_on_c, 0, 55, 43
2, 46902, Note_off_c, 0, 67, 64
2, 46913, Note_off_c, 0, 64, 64
2, 46918, Note_off_c, 0, 57, 64
2, 46966, Note_on_c, 0, 71, 51
2, 46969, Note_on_c, 0, 62, 49
2, 46972, Note_on_c, 0, 54, 37
2, 46991, Control_c, 0, 64, 0
2, 46991, Control_c, 0, 64, 0
2, 46992, Note_off_c, 0, 69, 64
2, 47007, Note_off_c, 0, 55, 64
2, 47070, Note_on_c, 0, 53, 29
2, 47082, Note_off_c, 0, 54, 64
2, 47099, Note_off_c, 0, 71, 64
2, 47132, Note_on_c, 0, 71, 43
2, 47141, Note_off_c, 0, 62, 64
2, 47170, Note_on_c, 0, 59, 55
2, 47172, Note_on_c, 0, 62, 55
2, 47172, Control_c, 0, 64, 0
2, 47172, Control_c, 0, 64, 0
2, 47181, Note_on_c, 0, 55, 47
2, 47200, Note_off_c, 0, 53, 64
2, 47205, Note_off_c, 0, 71, 64
2, 47259, Control_c, 0, 64, 127
2, 47259, Control_c, 0, 64, 127
2, 47269, Note_on_c, 0, 54, 47
2, 47305, Control_c, 0, 64, 0
2, 47305, Control_c, 0, 64, 0
2, 47317, Note_off_c, 0, 55, 64
2, 47358, Control_c, 0, 64, 127
2, 47358, Control_c, 0, 64, 127
2, 47374, Note_on_c, 0, 50, 49
2, 47390, Note_off_c, 0, 54, 64
2, 47404, Control_c, 0, 64, 0
2, 47404, Control_c, 0, 64, 0
2, 47427, Control_c, 0, 64, 127
2, 47427, Control_c, 0, 64, 127
2, 47468, Note_on_c, 0, 67, 56
2, 47473, Note_on_c, 0, 47, 54
2, 47479, Note_off_c, 0, 50, 64
2, 47494, Note_off_c, 0, 62, 64
2, 47494, Note_off_c, 0, 59, 64
2, 47573, Control_c, 0, 64, 0
2, 47573, Control_c, 0, 64, 0
2, 47580, Note_on_c, 0, 64, 55
2, 47584, Note_on_c, 0, 65, 55
2, 47584, Note_on_c, 0, 58, 63
2, 47584, Note_on_c, 0, 42, 66
2, 47596, Note_off_c, 0, 67, 64
2, 47599, Note_off_c, 0, 47, 64
2, 47603, Control_c, 0, 64, 127
2, 47603, Control_c, 0, 64, 127
2, 47617, Note_off_c, 0, 42, 64
2, 47697, Note_off_c, 0, 64, 64
2, 47697, Note_on_c, 0, 66, 57
2, 47701, Note_off_c, 0, 58, 64
2, 47701, Note_off_c, 0, 65, 64
2, 47724, Note_off_c, 0, 66, 64
2, 47747, Note_on_c, 0, 66, 74
2, 47812, Note_on_c, 0, 54, 44
2, 47815, Note_on_c, 0, 61, 51
2, 47821, Note_on_c, 0, 64, 49
2, 47825, Control_c, 0, 64, 0
2, 47825, Control_c, 0, 64, 0
2, 47829, Note_on_c, 0, 79, 55
2, 47839, Note_off_c, 0, 66, 64
2, 47852, Control_c, 0, 64, 127
2, 47852, Control_c, 0, 64, 127
2, 47926, Note_off_c, 0, 64, 64
2, 47927, Note_off_c, 0, 61, 64
2, 47932, Note_off_c, 0, 54, 64
2, 47989, Note_on_c, 0, 78, 52
2, 48006, Note_off_c, 0, 79, 64
2, 48034, Control_c, 0, 64, 0
2, 48034, Control_c, 0, 64, 0
2, 48045, Note_on_c, 0, 61, 51
2, 48054, Note_on_c, 0, 64, 48
2, 48056, Note_on_c, 0, 54, 47
2, 48068, Note_on_c, 0, 77, 52
2, 48077, Control_c, 0, 64, 127
2, 48077, Control_c, 0, 64, 127
2, 48116, Note_off_c, 0, 78, 64
2, 48133, Control_c, 0, 64, 0
2, 48133, Control_c, 0, 64, 0
2, 48184, Note_on_c, 0, 76, 52
2, 48211, Note_off_c, 0, 77, 64
2, 48252, Note_off_c, 0, 61, 64
2, 48261, Note_off_c, 0, 64, 64
2, 48263, Note_off_c, 0, 54, 64
2, 48276, Control_c, 0, 64, 0
2, 48276, Control_c, 0, 64, 0
2, 48283, Note_on_c, 0, 75, 52
2, 48283, Note_on_c, 0, 47, 49
2, 48296, Note_off_c, 0, 76, 64
2, 48313, Control_c, 0, 64, 127
2, 48313, Control_c, 0, 64, 127
2, 48388, Note_on_c, 0, 74, 52
2, 48408, Note_off_c, 0, 75, 64
2, 48493, Note_on_c, 0, 73, 50
2, 48493, Note_on_c, 0, 54, 51
2, 48500, Note_off_c, 0, 47, 64
2, 48500, Note_on_c, 0, 62, 44
2, 48511, Control_c, 0, 64, 0
2, 48511, Control_c, 0, 64, 0
2, 48518, Note_off_c, 0, 74, 64
2, 48547, Control_c, 0, 64, 127
2, 48547, Control_c, 0, 64, 127
2, 48576, Note_on_c, 0, 72, 44
2, 48598, Note_off_c, 0, 73, 64
2, 48651, Note_on_c, 0, 71, 41
2, 48666, Note_off_c, 0, 54, 64
2, 48673, Note_off_c, 0, 62, 64
2, 48677, Note_off_c, 0, 72, 64
2, 48712, Note_on_c, 0, 69, 48
2, 48729, Note_off_c, 0, 71, 64
2, 48780, Note_on_c, 0, 67, 51
2, 48794, Note_off_c, 0, 69, 64
2, 48833, Note_on_c, 0, 66, 52
2, 48855, Note_off_c, 0, 67, 64
2, 48908, Note_on_c, 0, 67, 14
2, 48922, Note_off_c, 0, 66, 64
2, 48928, Note_on_c, 0, 64, 51
2, 48934, Note_on_c, 0, 71, 51
2, 48972, Control_c, 0, 64, 0
2, 48972, Control_c, 0, 64, 0
2, 49056, Note_on_c, 0, 62, 43
2, 49077, Control_c, 0, 64, 127
2, 49077, Control_c, 0, 64, 127
2, 49082, Note_off_c, 0, 71, 64
2, 49101, Note_off_c, 0, 67, 64
2, 49106, Note_off_c, 0, 64, 64
2, 49116, Note_on_c, 0, 72, 52
2, 49127, Control_c, 0, 64, 0
2, 49127, Control_c, 0, 64, 0
2, 49160, Note_on_c, 0, 67, 50
2, 49160, Note_on_c, 0, 60, 41
2, 49163, Note_on_c, 0, 64, 51
2, 49181, Note_off_c, 0, 72, 64
2, 49209, Note_off_c, 0, 62, 64
2, 49265, Note_on_c, 0, 59, 34
2, 49280, Note_off_c, 0, 60, 64
2, 49341, Control_c, 0, 64, 127
2, 49341, Control_c, 0, 64, 127
2, 49371, Note_on_c, 0, 57, 34
2, 49405, Note_off_c, 0, 59, 64
2, 49418, Note_off_c, 0, 64, 64
2, 49468, Note_on_c, 0, 69, 43
2, 49468, Note_on_c, 0, 55, 36
2, 49483, Note_off_c, 0, 57, 64
2, 49494, Note_off_c, 0, 67, 64
2, 49559, Note_off_c, 0, 69, 64
2, 49565, Note_on_c, 0, 50, 41
2, 49568, Note_on_c, 0, 67, 44
2, 49574, Note_on_c, 0, 71, 44
2, 49574, Note_on_c, 0, 62, 50
2, 49579, Control_c, 0, 64, 0
2, 49579, Control_c, 0, 64, 0
2, 49582, Note_off_c, 0, 55, 64
2, 49620, Control_c, 0, 64, 127
2, 49620, Control_c, 0, 64, 127
2, 49665, Note_on_c, 0, 49, 43
2, 49681, Note_off_c, 0, 50, 64
2, 49713, Note_off_c, 0, 67, 64
2, 49719, Note_off_c, 0, 62, 64
2, 49719, Note_off_c, 0, 71, 64
2, 49725, Note_on_c, 0, 71, 39
2, 49753, Control_c, 0, 64, 0
2, 49753, Control_c, 0, 64, 0
2, 49757, Note_on_c, 0, 62, 55
2, 49763, Note_on_c, 0, 59, 55
2, 49766, Note_off_c, 0, 49, 64
2, 49780, Note_on_c, 0, 52, 54
2, 49789, Note_off_c, 0, 71, 64
2, 49857, Control_c, 0, 64, 127
2, 49857, Control_c, 0, 64, 127
2, 49870, Note_on_c, 0, 50, 47
2, 49916, Note_off_c, 0, 52, 64
2, 49916, Control_c, 0, 64, 0
2, 49916, Control_c, 0, 64, 0
2, 49932, Control_c, 0, 64, 127
2, 49932, Control_c, 0, 64, 127
2, 49968, Note_on_c, 0, 47, 49
2, 49973, Note_off_c, 0, 50, 64
2, 50080, Note_off_c, 0, 59, 64
2, 50080, Note_on_c, 0, 64, 60
2, 50081, Note_on_c, 0, 43, 56
2, 50087, Note_off_c, 0, 47, 64
2, 50094, Note_off_c, 0, 62, 64
2, 50185, Note_on_c, 0, 65, 62
2, 50189, Note_on_c, 0, 54, 57
2, 50191, Note_on_c, 0, 60, 56
2, 50198, Control_c, 0, 64, 0
2, 50198, Control_c, 0, 64, 0
2, 50207, Note_off_c, 0, 64, 64
2, 50211, Note_on_c, 0, 38, 55
2, 50216, Note_off_c, 0, 43, 64
2, 50225, Control_c, 0, 64, 127
2, 50225, Control_c, 0, 64, 127
2, 50267, Note_off_c, 0, 38, 64
2, 50279, Note_on_c, 0, 66, 65
2, 50301, Note_off_c, 0, 65, 64
2, 50305, Note_off_c, 0, 54, 64
2, 50307, Note_off_c, 0, 60, 64
2, 50319, Note_off_c, 0, 66, 64
2, 50339, Note_on_c, 0, 66, 74
2, 50406, Note_on_c, 0, 76, 62
2, 50407, Note_on_c, 0, 50, 52
2, 50412, Note_on_c, 0, 60, 36
2, 50416, Note_on_c, 0, 57, 49
2, 50430, Control_c, 0, 64, 0
2, 50430, Control_c, 0, 64, 0
2, 50432, Note_off_c, 0, 66, 64
2, 50467, Control_c, 0, 64, 127
2, 50467, Control_c, 0, 64, 127
2, 50523, Note_off_c, 0, 50, 64
2, 50528, Note_off_c, 0, 60, 64
2, 50532, Note_off_c, 0, 57, 64
2, 50548, Note_on_c, 0, 75, 57
2, 50571, Note_off_c, 0, 76, 64
2, 50636, Note_on_c, 0, 74, 54
2, 50640, Control_c, 0, 64, 0
2, 50640, Control_c, 0, 64, 0
2, 50644, Note_on_c, 0, 50, 51
2, 50649, Note_on_c, 0, 54, 43
2, 50653, Note_off_c, 0, 75, 64
2, 50657, Note_on_c, 0, 60, 32
2, 50685, Control_c, 0, 64, 127
2, 50685, Control_c, 0, 64, 127
2, 50746, Note_on_c, 0, 73, 54
2, 50760, Note_off_c, 0, 50, 64
2, 50765, Note_off_c, 0, 54, 64
2, 50773, Note_off_c, 0, 60, 64
2, 50776, Note_off_c, 0, 74, 64
2, 50857, Note_on_c, 0, 72, 57
2, 50862, Note_on_c, 0, 43, 51
2, 50868, Control_c, 0, 64, 0
2, 50868, Control_c, 0, 64, 0
2, 50885, Note_off_c, 0, 73, 64
2, 50905, Control_c, 0, 64, 127
2, 50905, Control_c, 0, 64, 127
2, 50963, Note_on_c, 0, 71, 51
2, 50975, Note_off_c, 0, 72, 64
2, 51063, Note_on_c, 0, 70, 49
2, 51072, Note_on_c, 0, 59, 51
2, 51078, Note_off_c, 0, 43, 64
2, 51078, Note_on_c, 0, 50, 54
2, 51081, Note_off_c, 0, 71, 64
2, 51095, Control_c, 0, 64, 0
2, 51095, Control_c, 0, 64, 0
2, 51117, Control_c, 0, 64, 127
2, 51117, Control_c, 0, 64, 127
2, 51145, Note_on_c, 0, 69, 52
2, 51155, Note_off_c, 0, 70, 64
2, 51209, Note_on_c, 0, 68, 58
2, 51216, Note_off_c, 0, 69, 64
2, 51244, Note_off_c, 0, 59, 64
2, 51250, Note_off_c, 0, 50, 64
2, 51269, Note_on_c, 0, 67, 54
2, 51290, Note_off_c, 0, 68, 64
2, 51327, Note_on_c, 0, 66, 51
2, 51354, Note_off_c, 0, 67, 64
2, 51392, Note_on_c, 0, 65, 50
2, 51402, Note_off_c, 0, 66, 64
2, 51456, Note_on_c, 0, 67, 43
2, 51460, Control_c, 0, 64, 0
2, 51460, Control_c, 0, 64, 0
2, 51466, Note_on_c, 0, 71, 49
2, 51466, Note_on_c, 0, 64, 52
2, 51475, Note_off_c, 0, 65, 64
2, 51580, Note_on_c, 0, 62, 36
2, 51602, Control_c, 0, 64, 127
2, 51602, Control_c, 0, 64, 127
2, 51626, Note_off_c, 0, 67, 64
2, 51646, Note_off_c, 0, 64, 64
2, 51646, Note_on_c, 0, 72, 52
2, 51657, Note_off_c, 0, 71, 64
2, 51660, Control_c, 0, 64, 0
2, 51660, Control_c, 0, 64, 0
2, 51677, Note_on_c, 0, 67, 47
2, 51684, Note_on_c, 0, 64, 52
2, 51684, Note_on_c, 0, 60, 42
2, 51701, Note_off_c, 0, 72, 64
2, 51720, Note_off_c, 0, 62, 64
2, 51750, Control_c, 0, 64, 127
2, 51750, Control_c, 0, 64, 127
2, 51780, Note_on_c, 0, 59, 36
2, 51792, Note_off_c, 0, 60, 64
2, 51882, Note_on_c, 0, 57, 46
2, 51917, Note_off_c, 0, 59, 64
2, 51945, Note_off_c, 0, 64, 64
2, 51978, Note_on_c, 0, 69, 51
2, 51979, Note_on_c, 0, 55, 48
2, 52001, Note_off_c, 0, 57, 64
2, 52015, Note_off_c, 0, 67, 64
2, 52070, Control_c, 0, 64, 0
2, 52070, Control_c, 0, 64, 0
2, 52078, Note_on_c, 0, 54, 64
2, 52083, Note_on_c, 0, 71, 58
2, 52086, Note_on_c, 0, 62, 48
2, 52097, Note_off_c, 0, 55, 64
2, 52100, Note_off_c, 0, 69, 64
2, 52117, Control_c, 0, 64, 127
2, 52117, Control_c, 0, 64, 127
2, 52192, Note_off_c, 0, 54, 64
2, 52196, Note_on_c, 0, 53, 47
2, 52219, Note_off_c, 0, 71, 64
2, 52227, Note_off_c, 0, 62, 64
2, 52245, Note_on_c, 0, 71, 54
2, 52273, Note_off_c, 0, 53, 64
2, 52277, Control_c, 0, 64, 0
2, 52277, Control_c, 0, 64, 0
2, 52290, Note_on_c, 0, 62, 54
2, 52297, Note_on_c, 0, 59, 67
2, 52306, Note_on_c, 0, 55, 51
2, 52311, Note_off_c, 0, 71, 64
2, 52379, Control_c, 0, 64, 127
2, 52379, Control_c, 0, 64, 127
2, 52394, Note_on_c, 0, 54, 52
2, 52420, Note_off_c, 0, 55, 64
2, 52436, Control_c, 0, 64, 0
2, 52436, Control_c, 0, 64, 0
2, 52458, Control_c, 0, 64, 127
2, 52458, Control_c, 0, 64, 127
2, 52506, Note_on_c, 0, 50, 50
2, 52539, Note_off_c, 0, 54, 64
2, 52585, Note_on_c, 0, 67, 64
2, 52597, Note_on_c, 0, 47, 55
2, 52611, Note_off_c, 0, 50, 64
2, 52613, Note_off_c, 0, 59, 64
2, 52614, Note_off_c, 0, 62, 64
2, 52697, Control_c, 0, 64, 0
2, 52697, Control_c, 0, 64, 0
2, 52701, Note_on_c, 0, 58, 62
2, 52705, Note_on_c, 0, 64, 57
2, 52705, Note_on_c, 0, 65, 57
2, 52708, Note_on_c, 0, 42, 69
2, 52723, Note_off_c, 0, 47, 64
2, 52732, Note_off_c, 0, 67, 64
2, 52735, Control_c, 0, 64, 127
2, 52735, Control_c, 0, 64, 127
2, 52735, Control_c, 0, 64, 127
2, 52735, Control_c, 0, 64, 127
2, 52744, Note_off_c, 0, 42, 64
2, 52799, Note_off_c, 0, 58, 64
2, 52799, Note_on_c, 0, 66, 51
2, 52803, Note_off_c, 0, 65, 64
2, 52803, Note_off_c, 0, 64, 64
2, 52826, Note_off_c, 0, 66, 64
2, 52853, Note_on_c, 0, 66, 73
2, 52917, Note_on_c, 0, 54, 51
2, 52924, Note_on_c, 0, 79, 72
2, 52924, Note_on_c, 0, 64, 54
2, 52928, Control_c, 0, 64, 0
2, 52928, Control_c, 0, 64, 0
2, 52934, Note_off_c, 0, 66, 64
2, 52934, Note_on_c, 0, 58, 41
2, 52970, Control_c, 0, 64, 127
2, 52970, Control_c, 0, 64, 127
2, 53033, Note_off_c, 0, 54, 64
2, 53040, Note_off_c, 0, 64, 64
2, 53050, Note_off_c, 0, 58, 64
2, 53078, Note_on_c, 0, 78, 52
2, 53096, Note_off_c, 0, 79, 64
2, 53128, Control_c, 0, 64, 0
2, 53128, Control_c, 0, 64, 0
2, 53140, Note_on_c, 0, 58, 52
2, 53142, Note_on_c, 0, 54, 49
2, 53149, Note_on_c, 0, 64, 43
2, 53159, Note_on_c, 0, 77, 56
2, 53173, Control_c, 0, 64, 127
2, 53173, Control_c, 0, 64, 127
2, 53242, Note_off_c, 0, 78, 64
2, 53255, Note_on_c, 0, 76, 51
2, 53256, Note_off_c, 0, 58, 64
2, 53258, Note_off_c, 0, 54, 64
2, 53265, Note_off_c, 0, 64, 64
2, 53269, Note_off_c, 0, 77, 64
2, 53354, Control_c, 0, 64, 0
2, 53354, Control_c, 0, 64, 0
2, 53357, Note_on_c, 0, 47, 51
2, 53362, Note_on_c, 0, 75, 41
2, 53372, Note_off_c, 0, 76, 64
2, 53402, Control_c, 0, 64, 127
2, 53402, Control_c, 0, 64, 127
2, 53464, Note_on_c, 0, 74, 39
2, 53472, Note_off_c, 0, 75, 64
2, 53550, Note_on_c, 0, 73, 33
2, 53560, Note_on_c, 0, 54, 41
2, 53566, Note_on_c, 0, 62, 32
2, 53569, Note_off_c, 0, 74, 64
2, 53575, Control_c, 0, 64, 0
2, 53575, Control_c, 0, 64, 0
2, 53611, Control_c, 0, 64, 127
2, 53611, Control_c, 0, 64, 127
2, 53614, Note_off_c, 0, 47, 64
2, 53624, Note_on_c, 0, 72, 34
2, 53634, Note_off_c, 0, 73, 64
2, 53678, Note_on_c, 0, 71, 47
2, 53690, Note_off_c, 0, 72, 64
2, 53727, Note_on_c, 0, 70, 63
2, 53732, Note_off_c, 0, 54, 64
2, 53733, Note_off_c, 0, 71, 64
2, 53747, Note_off_c, 0, 62, 64
2, 53786, Note_on_c, 0, 69, 55
2, 53795, Note_off_c, 0, 70, 64
2, 53830, Note_on_c, 0, 68, 62
2, 53831, Note_off_c, 0, 69, 64
2, 53881, Note_off_c, 0, 68, 64
2, 53881, Note_on_c, 0, 67, 55
2, 53922, Note_on_c, 0, 66, 58
2, 53929, Note_off_c, 0, 67, 64
2, 53948, Note_on_c, 0, 65, 56
2, 53984, Note_off_c, 0, 66, 64
2, 53988, Note_on_c, 0, 67, 58
2, 53988, Note_on_c, 0, 64, 62
2, 53995, Note_on_c, 0, 71, 62
2, 54010, Note_off_c, 0, 65, 64
2, 54011, Control_c, 0, 64, 0
2, 54011, Control_c, 0, 64, 0
2, 54107, Control_c, 0, 64, 127
2, 54107, Control_c, 0, 64, 127
2, 54113, Note_on_c, 0, 62, 55
2, 54114, Note_off_c, 0, 67, 64
2, 54155, Note_off_c, 0, 64, 64
2, 54165, Control_c, 0, 64, 0
2, 54165, Control_c, 0, 64, 0
2, 54172, Note_on_c, 0, 72, 41
2, 54196, Note_off_c, 0, 71, 64
2, 54209, Note_on_c, 0, 67, 57
2, 54211, Note_on_c, 0, 60, 59
2, 54213, Note_on_c, 0, 64, 62
2, 54226, Note_off_c, 0, 62, 64
2, 54237, Note_off_c, 0, 72, 64
2, 54273, Control_c, 0, 64, 127
2, 54273, Control_c, 0, 64, 127
2, 54301, Note_on_c, 0, 59, 51
2, 54324, Note_off_c, 0, 60, 64
2, 54408, Note_on_c, 0, 57, 43
2, 54477, Note_off_c, 0, 59, 64
2, 54497, Note_on_c, 0, 55, 46
2, 54499, Note_on_c, 0, 69, 54
2, 54505, Note_off_c, 0, 57, 64
2, 54532, Note_off_c, 0, 67, 64
2, 54599, Control_c, 0, 64, 0
2, 54599, Control_c, 0, 64, 0
2, 54606, Note_on_c, 0, 63, 54
2, 54607, Note_on_c, 0, 71, 59
2, 54607, Note_on_c, 0, 54, 66
2, 54618, Note_off_c, 0, 64, 64
2, 54619, Note_off_c, 0, 69, 64
2, 54627, Note_off_c, 0, 55, 64
2, 54634, Control_c, 0, 64, 127
2, 54634, Control_c, 0, 64, 127
2, 54678, Note_off_c, 0, 71, 64
2, 54698, Note_on_c, 0, 53, 51
2, 54710, Note_off_c, 0, 54, 64
2, 54745, Note_off_c, 0, 63, 64
2, 54756, Note_on_c, 0, 71, 56
2, 54775, Note_off_c, 0, 53, 64
2, 54795, Control_c, 0, 64, 0
2, 54795, Control_c, 0, 64, 0
2, 54800, Note_on_c, 0, 63, 69
2, 54803, Note_on_c, 0, 59, 65
2, 54819, Note_on_c, 0, 56, 62
2, 54823, Note_off_c, 0, 71, 64
2, 54847, Control_c, 0, 64, 127
2, 54847, Control_c, 0, 64, 127
2, 54904, Note_on_c, 0, 54, 47
2, 54907, Note_off_c, 0, 56, 64
2, 54990, Note_on_c, 0, 51, 50
2, 54993, Note_off_c, 0, 54, 64
2, 54996, Note_on_c, 0, 68, 62
2, 55052, Note_off_c, 0, 63, 64
2, 55077, Note_off_c, 0, 51, 64
2, 55095, Note_on_c, 0, 47, 51
2, 55140, Note_off_c, 0, 47, 64
2, 55179, Control_c, 0, 64, 0
2, 55179, Control_c, 0, 64, 0
2, 55185, Note_off_c, 0, 59, 64
2, 55196, Note_on_c, 0, 64, 55
2, 55199, Note_on_c, 0, 66, 60
2, 55201, Note_on_c, 0, 58, 49
2, 55202, Note_off_c, 0, 68, 64
2, 55205, Note_on_c, 0, 42, 65
2, 55218, Control_c, 0, 64, 127
2, 55218, Control_c, 0, 64, 127
2, 55226, Note_off_c, 0, 42, 64
2, 55312, Note_off_c, 0, 64, 64
2, 55317, Note_off_c, 0, 58, 64
2, 55380, Note_on_c, 0, 76, 41
2, 55425, Note_off_c, 0, 66, 64
2, 55425, Control_c, 0, 64, 0
2, 55425, Control_c, 0, 64, 0
2, 55428, Note_on_c, 0, 64, 50
2, 55428, Note_on_c, 0, 61, 50
2, 55428, Note_on_c, 0, 54, 63
2, 55431, Note_on_c, 0, 75, 65
2, 55431, Note_on_c, 0, 70, 63
2, 55459, Control_c, 0, 64, 127
2, 55459, Control_c, 0, 64, 127
2, 55471, Note_off_c, 0, 76, 64
2, 55555, Note_off_c, 0, 70, 64
2, 55575, Note_off_c, 0, 54, 64
2, 55579, Note_off_c, 0, 64, 64
2, 55584, Note_off_c, 0, 61, 64
2, 55648, Note_on_c, 0, 70, 65
2, 55652, Note_on_c, 0, 61, 50
2, 55656, Note_on_c, 0, 64, 42
2, 55656, Note_on_c, 0, 54, 51
2, 55707, Control_c, 0, 64, 127
2, 55707, Control_c, 0, 64, 127
2, 55776, Control_c, 0, 64, 0
2, 55776, Control_c, 0, 64, 0
2, 55792, Note_on_c, 0, 73, 52
2, 55810, Note_off_c, 0, 75, 64
2, 55884, Note_on_c, 0, 71, 67
2, 55891, Note_off_c, 0, 61, 64
2, 55891, Note_off_c, 0, 64, 64
2, 55891, Note_on_c, 0, 63, 62
2, 55892, Note_off_c, 0, 70, 64
2, 55893, Note_on_c, 0, 56, 52
2, 55899, Control_c, 0, 64, 0
2, 55899, Control_c, 0, 64, 0
2, 55902, Note_off_c, 0, 54, 64
2, 55914, Note_off_c, 0, 73, 64
2, 55928, Control_c, 0, 64, 127
2, 55928, Control_c, 0, 64, 127
2, 55984, Note_on_c, 0, 54, 46
2, 56011, Note_off_c, 0, 56, 64
2, 56038, Note_on_c, 0, 66, 60
2, 56043, Note_on_c, 0, 75, 65
2, 56081, Note_off_c, 0, 71, 64
2, 56088, Note_off_c, 0, 63, 64
2, 56098, Control_c, 0, 64, 0
2, 56098, Control_c, 0, 64, 0
2, 56116, Note_on_c, 0, 78, 79
2, 56116, Note_on_c, 0, 71, 60
2, 56119, Note_on_c, 0, 52, 46
2, 56128, Control_c, 0, 64, 127
2, 56128, Control_c, 0, 64, 127
2, 56129, Note_off_c, 0, 66, 64
2, 56134, Note_off_c, 0, 75, 64
2, 56141, Note_off_c, 0, 54, 64
2, 56192, Note_on_c, 0, 51, 64
2, 56213, Note_off_c, 0, 52, 64
2, 56270, Note_on_c, 0, 49, 62
2, 56300, Note_off_c, 0, 51, 64
2, 56331, Note_on_c, 0, 83, 81
2, 56331, Note_on_c, 0, 75, 62
2, 56341, Note_off_c, 0, 71, 64
2, 56341, Note_off_c, 0, 78, 64
2, 56341, Note_on_c, 0, 47, 62
2, 56368, Note_off_c, 0, 49, 64
2, 56399, Note_on_c, 0, 46, 67
2, 56413, Note_off_c, 0, 47, 64
2, 56473, Note_on_c, 0, 44, 62
2, 56488, Note_off_c, 0, 46, 64
2, 56557, Note_on_c, 0, 42, 78
2, 56560, Note_on_c, 0, 58, 70
2, 56564, Note_on_c, 0, 66, 57
2, 56566, Note_off_c, 0, 75, 64
2, 56566, Note_off_c, 0, 83, 64
2, 56568, Note_on_c, 0, 64, 54
2, 56568, Control_c, 0, 64, 0
2, 56568, Control_c, 0, 64, 0
2, 56580, Note_off_c, 0, 44, 64
2, 56594, Control_c, 0, 64, 127
2, 56594, Control_c, 0, 64, 127
2, 56604, Note_off_c, 0, 42, 64
2, 56676, Note_off_c, 0, 58, 64
2, 56684, Note_off_c, 0, 64, 64
2, 56740, Note_on_c, 0, 76, 50
2, 56790, Note_off_c, 0, 66, 64
2, 56791, Note_on_c, 0, 75, 62
2, 56801, Note_on_c, 0, 54, 55
2, 56801, Note_on_c, 0, 70, 59
2, 56802, Note_on_c, 0, 64, 62
2, 56804, Note_on_c, 0, 61, 50
2, 56809, Note_off_c, 0, 76, 64
2, 56818, Control_c, 0, 64, 0
2, 56818, Control_c, 0, 64, 0
2, 56855, Control_c, 0, 64, 127
2, 56855, Control_c, 0, 64, 127
2, 56933, Note_off_c, 0, 54, 64
2, 56934, Note_off_c, 0, 64, 64
2, 56936, Note_off_c, 0, 61, 64
2, 56939, Note_off_c, 0, 70, 64
2, 57012, Note_on_c, 0, 70, 66
2, 57014, Note_on_c, 0, 64, 59
2, 57020, Note_on_c, 0, 54, 52
2, 57026, Control_c, 0, 64, 0
2, 57026, Control_c, 0, 64, 0
2, 57062, Control_c, 0, 64, 127
2, 57062, Control_c, 0, 64, 127
2, 57119, Note_on_c, 0, 73, 57
2, 57134, Note_off_c, 0, 75, 64
2, 57221, Note_on_c, 0, 71, 64
2, 57222, Note_on_c, 0, 63, 62
2, 57228, Control_c, 0, 64, 0
2, 57228, Control_c, 0, 64, 0
2, 57232, Note_on_c, 0, 56, 52
2, 57236, Note_off_c, 0, 70, 64
2, 57238, Note_off_c, 0, 64, 64
2, 57243, Note_off_c, 0, 73, 64
2, 57244, Note_off_c, 0, 54, 64
2, 57267, Control_c, 0, 64, 127
2, 57267, Control_c, 0, 64, 127
2, 57323, Note_on_c, 0, 54, 27
2, 57339, Note_off_c, 0, 56, 64
2, 57365, Note_on_c, 0, 66, 57
2, 57372, Note_on_c, 0, 75, 67
2, 57414, Note_off_c, 0, 71, 64
2, 57415, Note_off_c, 0, 63, 64
2, 57443, Note_on_c, 0, 78, 74
2, 57447, Note_on_c, 0, 71, 59
2, 57450, Note_on_c, 0, 52, 64
2, 57469, Note_off_c, 0, 66, 64
2, 57476, Note_off_c, 0, 75, 64
2, 57480, Note_off_c, 0, 54, 64
2, 57504, Note_on_c, 0, 51, 52
2, 57525, Note_off_c, 0, 52, 64
2, 57571, Note_on_c, 0, 49, 58
2, 57585, Note_off_c, 0, 51, 64
2, 57646, Note_on_c, 0, 83, 71
2, 57648, Note_on_c, 0, 75, 62
2, 57656, Note_on_c, 0, 47, 70
2, 57667, Note_off_c, 0, 78, 64
2, 57667, Note_off_c, 0, 49, 64
2, 57671, Note_off_c, 0, 71, 64
2, 57713, Note_on_c, 0, 44, 72
2, 57728, Note_off_c, 0, 47, 64
2, 57774, Note_on_c, 0, 42, 63
2, 57797, Note_off_c, 0, 44, 64
2, 57846, Note_off_c, 0, 75, 64
2, 57867, Note_off_c, 0, 83, 64
2, 57876, Note_on_c, 0, 63, 74
2, 57883, Note_on_c, 0, 71, 62
2, 57883, Note_on_c, 0, 35, 78
2, 57886, Control_c, 0, 64, 0
2, 57886, Control_c, 0, 64, 0
2, 57905, Note_off_c, 0, 42, 64
2, 57912, Control_c, 0, 64, 127
2, 57912, Control_c, 0, 64, 127
2, 58019, Note_off_c, 0, 63, 64
2, 58026, Note_off_c, 0, 71, 64
2, 58032, Note_on_c, 0, 66, 65
2, 58036, Note_on_c, 0, 75, 66
2, 58108, Note_on_c, 0, 54, 44
2, 58110, Note_on_c, 0, 63, 65
2, 58114, Note_on_c, 0, 78, 88
2, 58116, Note_on_c, 0, 71, 43
2, 58128, Control_c, 0, 64, 0
2, 58128, Control_c, 0, 64, 0
2, 58133, Note_off_c, 0, 75, 64
2, 58137, Note_off_c, 0, 66, 64
2, 58163, Control_c, 0, 64, 127
2, 58163, Control_c, 0, 64, 127
2, 58214, Note_off_c, 0, 54, 64
2, 58216, Note_off_c, 0, 63, 64
2, 58311, Note_on_c, 0, 83, 71
2, 58313, Note_on_c, 0, 75, 63
2, 58326, Note_off_c, 0, 71, 64
2, 58343, Note_off_c, 0, 78, 64
2, 58406, Note_off_c, 0, 35, 64
2, 58486, Note_off_c, 0, 83, 64
2, 58511, Note_off_c, 0, 75, 64
2, 58514, Control_c, 0, 64, 0
2, 58514, Control_c, 0, 64, 0
2, 58524, Note_on_c, 0, 47, 65
2, 58524, Note_on_c, 0, 71, 67
2, 58524, Note_on_c, 0, 63, 71
2, 58543, Control_c, 0, 64, 127
2, 58543, Control_c, 0, 64, 127
2, 58629, Note_on_c, 0, 75, 59
2, 58629, Note_on_c, 0, 67, 59
2, 58644, Note_off_c, 0, 63, 64
2, 58644, Note_off_c, 0, 71, 64
2, 58716, Note_on_c, 0, 55, 41
2, 58716, Note_on_c, 0, 59, 59
2, 58718, Note_on_c, 0, 63, 57
2, 58730, Note_on_c, 0, 71, 71
2, 58733, Note_on_c, 0, 79, 74
2, 58738, Note_off_c, 0, 67, 64
2, 58738, Note_off_c, 0, 75, 64
2, 58740, Control_c, 0, 64, 0
2, 58740, Control_c, 0, 64, 0
2, 58755, Control_c, 0, 64, 127
2, 58755, Control_c, 0, 64, 127
2, 58800, Note_off_c, 0, 47, 64
2, 58833, Note_on_c, 0, 75, 65
2, 58835, Note_on_c, 0, 83, 64
2, 58844, Note_off_c, 0, 71, 64
2, 58855, Note_off_c, 0, 59, 64
2, 58855, Note_off_c, 0, 55, 64
2, 58857, Note_off_c, 0, 79, 64
2, 58857, Note_off_c, 0, 63, 64
2, 58877, Note_off_c, 0, 75, 64
2, 58913, Note_off_c, 0, 83, 64
2, 58931, Note_on_c, 0, 83, 71
2, 58992, Note_on_c, 0, 87, 63
2, 58995, Note_on_c, 0, 95, 60
2, 59027, Control_c, 0, 64, 0
2, 59027, Control_c, 0, 64, 0
2, 59040, Control_c, 0, 64, 127
2, 59040, Control_c, 0, 64, 127
2, 59097, Note_off_c, 0, 83, 64
2, 59232, Note_off_c, 0, 87, 64
2, 59235, Note_off_c, 0, 95, 64
2, 59331, Note_on_c, 0, 71, 43
2, 59334, Control_c, 0, 64, 0
2, 59334, Control_c, 0, 64, 0
2, 59387, Control_c, 0, 64, 127
2, 59387, Control_c, 0, 64, 127
2, 59433, Note_on_c, 0, 67, 41
2, 59469, Note_off_c, 0, 71, 64
2, 59549, Control_c, 0, 64, 0
2, 59549, Control_c, 0, 64, 0
2, 59551, Note_on_c, 0, 62, 43
2, 59584, Note_off_c, 0, 67, 64
2, 59644, Control_c, 0, 64, 127
2, 59644, Control_c, 0, 64, 127
2, 59663, Note_on_c, 0, 63, 43
2, 59683, Note_off_c, 0, 62, 64
2, 59683, Control_c, 0, 64, 0
2, 59683, Control_c, 0, 64, 0
2, 59735, Control_c, 0, 64, 127
2, 59735, Control_c, 0, 64, 127
2, 59751, Control_c, 0, 64, 0
2, 59751, Control_c, 0, 64, 0
2, 59765, Note_on_c, 0, 66, 37
2, 59787, Control_c, 0, 64, 127
2, 59787, Control_c, 0, 64, 127
2, 59800, Note_off_c, 0, 63, 64
2, 59870, Note_on_c, 0, 67, 43
2, 59883, Note_off_c, 0, 66, 64
2, 59988, Note_on_c, 0, 71, 47
2, 60006, Control_c, 0, 64, 0
2, 60006, Control_c, 0, 64, 0
2, 60022, Note_off_c, 0, 67, 64
2, 60111, Note_on_c, 0, 67, 49
2, 60150, Note_off_c, 0, 71, 64
2, 60166, Control_c, 0, 64, 127
2, 60166, Control_c, 0, 64, 127
2, 60248, Note_on_c, 0, 71, 54
2, 60270, Note_off_c, 0, 67, 64
2, 60378, Note_on_c, 0, 75, 56
2, 60415, Note_off_c, 0, 71, 64
2, 60534, Note_on_c, 0, 78, 56
2, 60574, Note_off_c, 0, 75, 64
2, 60707, Note_on_c, 0, 76, 52
2, 60723, Note_off_c, 0, 78, 64
2, 60737, Control_c, 0, 64, 0
2, 60737, Control_c, 0, 64, 0
2, 60829, Control_c, 0, 64, 127
2, 60829, Control_c, 0, 64, 127
2, 60883, Control_c, 0, 64, 0
2, 60883, Control_c, 0, 64, 0
2, 60897, Note_on_c, 0, 75, 63
2, 60907, Note_off_c, 0, 76, 64
2, 60930, Control_c, 0, 64, 127
2, 60930, Control_c, 0, 64, 127
2, 61004, Control_c, 0, 64, 0
2, 61004, Control_c, 0, 64, 0
2, 61015, Note_on_c, 0, 70, 57
2, 61063, Note_off_c, 0, 75, 64
2, 61070, Control_c, 0, 64, 127
2, 61070, Control_c, 0, 64, 127
2, 61132, Note_on_c, 0, 59, 36
2, 61132, Control_c, 0, 64, 0
2, 61132, Control_c, 0, 64, 0
2, 61136, Note_on_c, 0, 63, 17
2, 61136, Note_on_c, 0, 56, 36
2, 61141, Note_on_c, 0, 71, 74
2, 61157, Note_off_c, 0, 70, 64
2, 61160, Control_c, 0, 64, 127
2, 61160, Control_c, 0, 64, 127
2, 61356, Note_off_c, 0, 59, 64
2, 61359, Note_on_c, 0, 68, 66
2, 61360, Note_off_c, 0, 56, 64
2, 61360, Note_off_c, 0, 63, 64
2, 61361, Note_on_c, 0, 62, 31
2, 61367, Note_on_c, 0, 52, 47
2, 61372, Note_on_c, 0, 56, 32
2, 61375, Control_c, 0, 64, 0
2, 61375, Control_c, 0, 64, 0
2, 61381, Note_off_c, 0, 71, 64
2, 61413, Control_c, 0, 64, 127
2, 61413, Control_c, 0, 64, 127
2, 61563, Note_on_c, 0, 70, 66
2, 61576, Control_c, 0, 64, 0
2, 61576, Control_c, 0, 64, 0
2, 61584, Note_off_c, 0, 68, 64
2, 61600, Control_c, 0, 64, 127
2, 61600, Control_c, 0, 64, 127
2, 61613, Note_off_c, 0, 62, 64
2, 61618, Note_off_c, 0, 52, 64
2, 61623, Note_off_c, 0, 56, 64
2, 61680, Note_on_c, 0, 67, 63
2, 61696, Note_off_c, 0, 70, 64
2, 61772, Note_on_c, 0, 63, 65
2, 61783, Note_on_c, 0, 61, 28
2, 61783, Note_on_c, 0, 51, 34
2, 61788, Note_on_c, 0, 58, 24
2, 61796, Control_c, 0, 64, 0
2, 61796, Control_c, 0, 64, 0
2, 61816, Note_off_c, 0, 67, 64
2, 61830, Control_c, 0, 64, 127
2, 61830, Control_c, 0, 64, 127
2, 61903, Note_off_c, 0, 51, 64
2, 61903, Note_off_c, 0, 61, 64
2, 61908, Note_off_c, 0, 58, 64
2, 61987, Note_on_c, 0, 55, 36
2, 61992, Note_on_c, 0, 61, 32
2, 62000, Note_on_c, 0, 51, 18
2, 62004, Control_c, 0, 64, 0
2, 62004, Control_c, 0, 64, 0
2, 62039, Control_c, 0, 64, 127
2, 62039, Control_c, 0, 64, 127
2, 62182, Control_c, 0, 64, 0
2, 62182, Control_c, 0, 64, 0
2, 62190, Note_on_c, 0, 65, 60
2, 62204, Note_off_c, 0, 51, 64
2, 62208, Control_c, 0, 64, 127
2, 62208, Control_c, 0, 64, 127
2, 62215, Note_off_c, 0, 55, 64
2, 62225, Note_off_c, 0, 63, 64
2, 62226, Note_off_c, 0, 61, 64
2, 62289, Note_on_c, 0, 67, 57
2, 62307, Note_off_c, 0, 65, 64
2, 62375, Note_on_c, 0, 68, 65
2, 62381, Note_on_c, 0, 53, 34
2, 62385, Note_on_c, 0, 61, 35
2, 62386, Note_on_c, 0, 51, 34
2, 62389, Control_c, 0, 64, 0
2, 62389, Control_c, 0, 64, 0
2, 62396, Note_off_c, 0, 67, 64
2, 62424, Control_c, 0, 64, 127
2, 62424, Control_c, 0, 64, 127
2, 62501, Note_off_c, 0, 53, 64
2, 62505, Note_off_c, 0, 61, 64
2, 62506, Note_off_c, 0, 51, 64
2, 62582, Note_on_c, 0, 70, 62
2, 62585, Note_on_c, 0, 61, 39
2, 62585, Note_on_c, 0, 55, 43
2, 62591, Note_on_c, 0, 51, 41
2, 62601, Control_c, 0, 64, 0
2, 62601, Control_c, 0, 64, 0
2, 62612, Control_c, 0, 64, 127
2, 62612, Control_c, 0, 64, 127
2, 62618, Note_off_c, 0, 68, 64
2, 62705, Note_off_c, 0, 55, 64
2, 62705, Note_off_c, 0, 61, 64
2, 62711, Note_off_c, 0, 51, 64
2, 62789, Note_on_c, 0, 71, 57
2, 62796, Note_on_c, 0, 44, 52
2, 62801, Note_off_c, 0, 70, 64
2, 62810, Control_c, 0, 64, 0
2, 62810, Control_c, 0, 64, 0
2, 62840, Control_c, 0, 64, 127
2, 62840, Control_c, 0, 64, 127
2, 62879, Note_on_c, 0, 76, 55
2, 62925, Note_off_c, 0, 71, 64
2, 62991, Note_on_c, 0, 75, 58
2, 62995, Note_on_c, 0, 59, 35
2, 62995, Note_on_c, 0, 51, 40
2, 63008, Note_off_c, 0, 76, 64
2, 63012, Control_c, 0, 64, 0
2, 63012, Control_c, 0, 64, 0
2, 63043, Control_c, 0, 64, 127
2, 63043, Control_c, 0, 64, 127
2, 63240, Note_on_c, 0, 43, 54
2, 63248, Control_c, 0, 64, 0
2, 63248, Control_c, 0, 64, 0
2, 63266, Note_off_c, 0, 44, 64
2, 63272, Control_c, 0, 64, 127
2, 63272, Control_c, 0, 64, 127
2, 63281, Note_off_c, 0, 51, 64
2, 63281, Note_off_c, 0, 59, 64
2, 63469, Control_c, 0, 64, 0
2, 63469, Control_c, 0, 64, 0
2, 63479, Note_on_c, 0, 78, 67
2, 63485, Note_on_c, 0, 42, 55
2, 63497, Note_off_c, 0, 43, 64
2, 63498, Note_off_c, 0, 75, 64
2, 63505, Control_c, 0, 64, 127
2, 63505, Control_c, 0, 64, 127
2, 63568, Note_on_c, 0, 73, 59
2, 63596, Note_off_c, 0, 78, 64
2, 63649, Note_on_c, 0, 54, 28
2, 63666, Note_on_c, 0, 75, 65
2, 63672, Note_on_c, 0, 59, 33
2, 63673, Note_on_c, 0, 63, 41
2, 63679, Control_c, 0, 64, 0
2, 63679, Control_c, 0, 64, 0
2, 63696, Note_off_c, 0, 73, 64
2, 63716, Control_c, 0, 64, 127
2, 63716, Control_c, 0, 64, 127
2, 63769, Note_off_c, 0, 54, 64
2, 63792, Note_off_c, 0, 59, 64
2, 63793, Note_off_c, 0, 63, 64
2, 63815, Note_off_c, 0, 42, 64
2, 63861, Note_on_c, 0, 68, 43
2, 63869, Note_on_c, 0, 71, 71
2, 63869, Note_on_c, 0, 59, 39
2, 63872, Note_on_c, 0, 63, 32
2, 63894, Control_c, 0, 64, 0
2, 63894, Control_c, 0, 64, 0
2, 63897, Note_off_c, 0, 75, 64
2, 63936, Control_c, 0, 64, 127
2, 63936, Control_c, 0, 64, 127
2, 64030, Note_off_c, 0, 68, 64
2, 64061, Note_off_c, 0, 59, 64
2, 64064, Note_off_c, 0, 63, 64
2, 64065, Note_on_c, 0, 73, 67
2, 64078, Note_off_c, 0, 71, 64
2, 64147, Note_on_c, 0, 70, 58
2, 64179, Note_off_c, 0, 73, 64
2, 64240, Note_on_c, 0, 61, 43
2, 64240, Note_on_c, 0, 66, 71
2, 64243, Note_on_c, 0, 64, 34
2, 64248, Note_on_c, 0, 54, 28
2, 64251, Control_c, 0, 64, 0
2, 64251, Control_c, 0, 64, 0
2, 64255, Note_off_c, 0, 70, 64
2, 64295, Control_c, 0, 64, 127
2, 64295, Control_c, 0, 64, 127
2, 64428, Note_off_c, 0, 61, 64
2, 64431, Note_off_c, 0, 64, 64
2, 64436, Note_off_c, 0, 54, 64
2, 64444, Note_on_c, 0, 58, 37
2, 64451, Note_on_c, 0, 64, 34
2, 64455, Note_on_c, 0, 54, 21
2, 64477, Control_c, 0, 64, 0
2, 64477, Control_c, 0, 64, 0
2, 64519, Control_c, 0, 64, 127
2, 64519, Control_c, 0, 64, 127
2, 64624, Note_off_c, 0, 58, 64
2, 64639, Note_off_c, 0, 64, 64
2, 64639, Note_on_c, 0, 68, 62
2, 64644, Note_off_c, 0, 54, 64
2, 64654, Note_off_c, 0, 66, 64
2, 64716, Note_on_c, 0, 70, 44
2, 64745, Note_off_c, 0, 68, 64
2, 64800, Note_on_c, 0, 71, 66
2, 64808, Note_on_c, 0, 64, 42
2, 64810, Note_on_c, 0, 56, 32
2, 64812, Note_on_c, 0, 54, 42
2, 64813, Note_off_c, 0, 70, 64
2, 64825, Control_c, 0, 64, 0
2, 64825, Control_c, 0, 64, 0
2, 64859, Control_c, 0, 64, 127
2, 64859, Control_c, 0, 64, 127
2, 64928, Note_off_c, 0, 64, 64
2, 64930, Note_off_c, 0, 56, 64
2, 64932, Note_off_c, 0, 54, 64
2, 64988, Note_on_c, 0, 73, 69
2, 64993, Note_on_c, 0, 64, 41
2, 64996, Note_on_c, 0, 54, 42
2, 64999, Note_on_c, 0, 58, 44
2, 65010, Note_off_c, 0, 71, 64
2, 65113, Note_off_c, 0, 64, 64
2, 65116, Note_off_c, 0, 54, 64
2, 65119, Note_off_c, 0, 58, 64
2, 65191, Control_c, 0, 64, 0
2, 65191, Control_c, 0, 64, 0
2, 65196, Note_on_c, 0, 47, 62
2, 65196, Note_on_c, 0, 75, 63
2, 65217, Note_off_c, 0, 73, 64
2, 65221, Control_c, 0, 64, 127
2, 65221, Control_c, 0, 64, 127
2, 65344, Note_on_c, 0, 77, 50
2, 65347, Note_off_c, 0, 75, 64
2, 65412, Note_on_c, 0, 75, 74
2, 65436, Note_off_c, 0, 77, 64
2, 65459, Note_on_c, 0, 56, 34
2, 65459, Note_on_c, 0, 53, 21
2, 65465, Note_on_c, 0, 63, 34
2, 65469, Note_off_c, 0, 47, 64
2, 65471, Note_on_c, 0, 77, 52
2, 65478, Note_off_c, 0, 75, 64
2, 65508, Note_off_c, 0, 77, 64
2, 65517, Note_on_c, 0, 79, 29
2, 65548, Note_off_c, 0, 79, 64
2, 65553, Note_on_c, 0, 77, 58
2, 65576, Note_off_c, 0, 77, 64
2, 65584, Note_on_c, 0, 79, 69
2, 65613, Note_on_c, 0, 77, 71
2, 65615, Note_off_c, 0, 79, 64
2, 65644, Note_on_c, 0, 79, 71
2, 65647, Note_off_c, 0, 53, 64
2, 65647, Note_off_c, 0, 56, 64
2, 65648, Note_off_c, 0, 77, 64
2, 65653, Note_off_c, 0, 63, 64
2, 65674, Note_on_c, 0, 77, 74
2, 65677, Note_off_c, 0, 79, 64
2, 65681, Note_on_c, 0, 47, 49
2, 65708, Note_on_c, 0, 79, 56
2, 65714, Note_off_c, 0, 77, 64
2, 65735, Note_off_c, 0, 79, 64
2, 65742, Note_on_c, 0, 77, 69
2, 65783, Note_on_c, 0, 75, 71
2, 65788, Note_off_c, 0, 77, 64
2, 65855, Note_on_c, 0, 77, 65
2, 65871, Note_off_c, 0, 75, 64
2, 65930, Note_on_c, 0, 46, 51
2, 65934, Note_on_c, 0, 79, 73
2, 65937, Control_c, 0, 64, 0
2, 65937, Control_c, 0, 64, 0
2, 65943, Note_off_c, 0, 77, 64
2, 65951, Note_off_c, 0, 47, 64
2, 65962, Control_c, 0, 64, 127
2, 65962, Control_c, 0, 64, 127
2, 66038, Note_on_c, 0, 70, 66
2, 66074, Note_off_c, 0, 79, 64
2, 66147, Note_on_c, 0, 63, 21
2, 66148, Note_on_c, 0, 58, 26
2, 66153, Note_on_c, 0, 55, 40
2, 66153, Note_on_c, 0, 79, 66
2, 66169, Control_c, 0, 64, 0
2, 66169, Control_c, 0, 64, 0
2, 66190, Note_off_c, 0, 70, 64
2, 66198, Control_c, 0, 64, 127
2, 66198, Control_c, 0, 64, 127
2, 66210, Note_off_c, 0, 46, 64
2, 66267, Note_off_c, 0, 63, 64
2, 66268, Note_off_c, 0, 58, 64
2, 66273, Note_off_c, 0, 55, 64
2, 66365, Note_on_c, 0, 77, 57
2, 66376, Note_on_c, 0, 56, 34
2, 66382, Note_on_c, 0, 62, 28
2, 66385, Note_on_c, 0, 58, 25
2, 66389, Control_c, 0, 64, 0
2, 66389, Control_c, 0, 64, 0
2, 66390, Note_off_c, 0, 79, 64
2, 66422, Control_c, 0, 64, 127
2, 66422, Control_c, 0, 64, 127
2, 66492, Note_on_c, 0, 79, 47
2, 66519, Note_off_c, 0, 77, 64
2, 66576, Note_off_c, 0, 79, 64
2, 66576, Note_on_c, 0, 75, 54
2, 66590, Note_on_c, 0, 51, 51
2, 66592, Control_c, 0, 64, 0
2, 66592, Control_c, 0, 64, 0
2, 66600, Note_off_c, 0, 56, 64
2, 66604, Note_off_c, 0, 58, 64
2, 66630, Note_off_c, 0, 62, 64
2, 66630, Control_c, 0, 64, 127
2, 66630, Control_c, 0, 64, 127
2, 66712, Note_off_c, 0, 75, 64
2, 66748, Note_on_c, 0, 70, 65
2, 66803, Note_on_c, 0, 75, 62
2, 66810, Note_on_c, 0, 63, 26
2, 66813, Note_on_c, 0, 67, 37
2, 66817, Note_on_c, 0, 55, 36
2, 66821, Note_on_c, 0, 58, 25
2, 66821, Control_c, 0, 64, 0
2, 66821, Control_c, 0, 64, 0
2, 66846, Control_c, 0, 64, 127
2, 66846, Control_c, 0, 64, 127
2, 66863, Note_off_c, 0, 70, 64
2, 66876, Note_off_c, 0, 51, 64
2, 66930, Note_off_c, 0, 63, 64
2, 66933, Note_off_c, 0, 67, 64
2, 66937, Note_off_c, 0, 55, 64
2, 66941, Note_off_c, 0, 58, 64
2, 67052, Note_on_c, 0, 56, 35
2, 67053, Note_on_c, 0, 60, 42
2, 67059, Note_on_c, 0, 66, 36
2, 67069, Control_c, 0, 64, 0
2, 67069, Control_c, 0, 64, 0
2, 67105, Control_c, 0, 64, 127
2, 67105, Control_c, 0, 64, 127
2, 67172, Note_off_c, 0, 56, 64
2, 67173, Note_off_c, 0, 60, 64
2, 67179, Note_off_c, 0, 66, 64
2, 67291, Note_on_c, 0, 49, 49
2, 67295, Note_on_c, 0, 76, 57
2, 67301, Control_c, 0, 64, 0
2, 67301, Control_c, 0, 64, 0
2, 67308, Note_off_c, 0, 75, 64
2, 67334, Control_c, 0, 64, 127
2, 67334, Control_c, 0, 64, 127
2, 67404, Note_on_c, 0, 68, 49
2, 67459, Note_off_c, 0, 76, 64
2, 67482, Note_on_c, 0, 56, 36
2, 67489, Note_on_c, 0, 58, 39
2, 67493, Note_on_c, 0, 73, 57
2, 67499, Note_on_c, 0, 64, 35
2, 67512, Control_c, 0, 64, 0
2, 67512, Control_c, 0, 64, 0
2, 67521, Note_off_c, 0, 68, 64
2, 67545, Control_c, 0, 64, 127
2, 67545, Control_c, 0, 64, 127
2, 67602, Note_off_c, 0, 56, 64
2, 67609, Note_off_c, 0, 58, 64
2, 67613, Note_off_c, 0, 49, 64
2, 67619, Note_off_c, 0, 64, 64
2, 67717, Note_on_c, 0, 70, 56
2, 67720, Note_on_c, 0, 51, 31
2, 67721, Note_on_c, 0, 61, 31
2, 67726, Note_off_c, 0, 73, 64
2, 67728, Note_on_c, 0, 55, 36
2, 67733, Control_c, 0, 64, 0
2, 67733, Control_c, 0, 64, 0
2, 67755, Control_c, 0, 64, 127
2, 67755, Control_c, 0, 64, 127
2, 67840, Note_off_c, 0, 51, 64
2, 67841, Note_off_c, 0, 61, 64
2, 67848, Note_off_c, 0, 55, 64
2, 67877, Note_on_c, 0, 71, 42
2, 67886, Note_off_c, 0, 70, 64
2, 67920, Note_on_c, 0, 68, 41
2, 67932, Note_off_c, 0, 71, 64
2, 67942, Note_on_c, 0, 44, 36
2, 67952, Note_on_c, 0, 70, 49
2, 67961, Control_c, 0, 64, 0
2, 67961, Control_c, 0, 64, 0
2, 67968, Note_off_c, 0, 68, 64
2, 67978, Note_on_c, 0, 68, 54
2, 67997, Control_c, 0, 64, 127
2, 67997, Control_c, 0, 64, 127
2, 68006, Note_off_c, 0, 70, 64
2, 68141, Note_on_c, 0, 67, 35
2, 68157, Note_off_c, 0, 68, 64
2, 68197, Note_on_c, 0, 68, 48
2, 68216, Note_on_c, 0, 51, 29
2, 68220, Control_c, 0, 64, 0
2, 68220, Control_c, 0, 64, 0
2, 68226, Note_on_c, 0, 59, 27
2, 68229, Note_off_c, 0, 67, 64
2, 68250, Note_off_c, 0, 44, 64
2, 68258, Control_c, 0, 64, 127
2, 68258, Control_c, 0, 64, 127
2, 68378, Note_off_c, 0, 51, 64
2, 68388, Note_off_c, 0, 59, 64
2, 68460, Note_on_c, 0, 56, 27
2, 68460, Note_on_c, 0, 59, 27
2, 68484, Control_c, 0, 64, 0
2, 68484, Control_c, 0, 64, 0
2, 68517, Control_c, 0, 64, 127
2, 68517, Control_c, 0, 64, 127
2, 68622, Note_off_c, 0, 59, 64
2, 68622, Note_off_c, 0, 56, 64
2, 68678, Note_on_c, 0, 46, 55
2, 68687, Control_c, 0, 64, 0
2, 68687, Control_c, 0, 64, 0
2, 68730, Control_c, 0, 64, 127
2, 68730, Control_c, 0, 64, 127
2, 68885, Note_on_c, 0, 56, 43
2, 68890, Note_on_c, 0, 58, 37
2, 68893, Note_on_c, 0, 62, 24
2, 68896, Note_on_c, 0, 65, 59
2, 68904, Control_c, 0, 64, 0
2, 68904, Control_c, 0, 64, 0
2, 68928, Note_off_c, 0, 68, 64
2, 68934, Control_c, 0, 64, 127
2, 68934, Control_c, 0, 64, 127
2, 68983, Note_on_c, 0, 67, 55
2, 69004, Note_off_c, 0, 46, 64
2, 69005, Note_off_c, 0, 56, 64
2, 69010, Note_off_c, 0, 58, 64
2, 69012, Note_off_c, 0, 65, 64
2, 69013, Note_off_c, 0, 62, 64
2, 69077, Note_on_c, 0, 56, 31
2, 69080, Note_on_c, 0, 58, 34
2, 69082, Note_on_c, 0, 62, 24
2, 69088, Note_on_c, 0, 68, 55
2, 69107, Note_off_c, 0, 67, 64
2, 69169, Note_on_c, 0, 77, 56
2, 69197, Note_off_c, 0, 56, 64
2, 69197, Note_off_c, 0, 68, 64
2, 69200, Note_off_c, 0, 58, 64
2, 69202, Note_off_c, 0, 62, 64
2, 69264, Note_on_c, 0, 75, 52
2, 69267, Note_on_c, 0, 51, 51
2, 69278, Control_c, 0, 64, 0
2, 69278, Control_c, 0, 64, 0
2, 69284, Note_off_c, 0, 77, 64
2, 69315, Control_c, 0, 64, 127
2, 69315, Control_c, 0, 64, 127
2, 69350, Note_on_c, 0, 68, 62
2, 69375, Note_off_c, 0, 75, 64
2, 69445, Note_on_c, 0, 67, 52
2, 69445, Note_on_c, 0, 55, 41
2, 69450, Note_on_c, 0, 63, 39
2, 69450, Note_on_c, 0, 58, 37
2, 69468, Control_c, 0, 64, 0
2, 69468, Control_c, 0, 64, 0
2, 69478, Note_off_c, 0, 68, 64
2, 69512, Control_c, 0, 64, 127
2, 69512, Control_c, 0, 64, 127
2, 69565, Note_off_c, 0, 55, 64
2, 69570, Note_off_c, 0, 58, 64
2, 69570, Note_off_c, 0, 63, 64
2, 69618, Note_off_c, 0, 51, 64
2, 69625, Note_on_c, 0, 72, 58
2, 69635, Note_on_c, 0, 63, 41
2, 69636, Note_on_c, 0, 55, 34
2, 69643, Note_on_c, 0, 58, 36
2, 69646, Control_c, 0, 64, 0
2, 69646, Control_c, 0, 64, 0
2, 69662, Control_c, 0, 64, 127
2, 69662, Control_c, 0, 64, 127
2, 69699, Note_off_c, 0, 67, 64
2, 69752, Note_on_c, 0, 70, 65
2, 69755, Note_off_c, 0, 63, 64
2, 69756, Note_off_c, 0, 55, 64
2, 69763, Note_off_c, 0, 58, 64
2, 69772, Note_off_c, 0, 72, 64
2, 69804, Note_on_c, 0, 68, 62
2, 69813, Control_c, 0, 64, 0
2, 69813, Control_c, 0, 64, 0
2, 69826, Note_on_c, 0, 46, 49
2, 69838, Note_off_c, 0, 70, 64
2, 69858, Note_on_c, 0, 70, 69
2, 69864, Control_c, 0, 64, 127
2, 69864, Control_c, 0, 64, 127
2, 69872, Note_off_c, 0, 68, 64
2, 69902, Note_on_c, 0, 68, 62
2, 69924, Note_off_c, 0, 70, 64
2, 69968, Note_on_c, 0, 65, 56
2, 69976, Note_off_c, 0, 68, 64
2, 69986, Note_on_c, 0, 62, 37
2, 69989, Note_on_c, 0, 56, 51
2, 69990, Note_on_c, 0, 58, 35
2, 69990, Control_c, 0, 64, 0
2, 69990, Control_c, 0, 64, 0
2, 70024, Control_c, 0, 64, 127
2, 70024, Control_c, 0, 64, 127
2, 70061, Note_on_c, 0, 67, 54
2, 70080, Note_off_c, 0, 65, 64
2, 70106, Note_off_c, 0, 62, 64
2, 70109, Note_off_c, 0, 56, 64
2, 70110, Note_off_c, 0, 58, 64
2, 70126, Note_off_c, 0, 46, 64
2, 70148, Note_on_c, 0, 68, 58
2, 70148, Note_on_c, 0, 62, 35
2, 70153, Note_on_c, 0, 56, 51
2, 70157, Note_on_c, 0, 58, 44
2, 70173, Note_off_c, 0, 67, 64
2, 70234, Note_on_c, 0, 77, 54
2, 70256, Note_off_c, 0, 68, 64
2, 70268, Note_off_c, 0, 62, 64
2, 70273, Note_off_c, 0, 56, 64
2, 70277, Note_off_c, 0, 58, 64
2, 70323, Note_on_c, 0, 75, 58
2, 70338, Control_c, 0, 64, 0
2, 70338, Control_c, 0, 64, 0
2, 70347, Note_off_c, 0, 77, 64
2, 70350, Note_on_c, 0, 39, 65
2, 70366, Control_c, 0, 64, 127
2, 70366, Control_c, 0, 64, 127
2, 70409, Note_on_c, 0, 68, 57
2, 70438, Note_off_c, 0, 75, 64
2, 70507, Note_on_c, 0, 67, 55
2, 70517, Control_c, 0, 64, 0
2, 70517, Control_c, 0, 64, 0
2, 70521, Note_off_c, 0, 68, 64
2, 70525, Note_on_c, 0, 63, 44
2, 70530, Note_on_c, 0, 55, 26
2, 70560, Control_c, 0, 64, 127
2, 70560, Control_c, 0, 64, 127
2, 70633, Note_off_c, 0, 39, 64
2, 70645, Note_off_c, 0, 63, 64
2, 70650, Note_off_c, 0, 55, 64
2, 70680, Note_on_c, 0, 63, 49
2, 70684, Note_on_c, 0, 58, 55
2, 70696, Note_on_c, 0, 55, 44
2, 70756, Note_on_c, 0, 66, 52
2, 70782, Note_off_c, 0, 67, 64
2, 70800, Note_off_c, 0, 63, 64
2, 70804, Note_off_c, 0, 58, 64
2, 70816, Note_off_c, 0, 55, 64
2, 70862, Note_on_c, 0, 67, 55
2, 70872, Note_on_c, 0, 45, 55
2, 70879, Note_off_c, 0, 66, 64
2, 70885, Control_c, 0, 64, 0
2, 70885, Control_c, 0, 64, 0
2, 70932, Control_c, 0, 64, 127
2, 70932, Control_c, 0, 64, 127
2, 71036, Note_on_c, 0, 55, 49
2, 71036, Note_on_c, 0, 57, 29
2, 71036, Note_on_c, 0, 61, 50
2, 71045, Note_on_c, 0, 64, 52
2, 71060, Note_off_c, 0, 67, 64
2, 71073, Control_c, 0, 64, 0
2, 71073, Control_c, 0, 64, 0
2, 71097, Control_c, 0, 64, 127
2, 71097, Control_c, 0, 64, 127
2, 71122, Note_on_c, 0, 66, 62
2, 71138, Note_off_c, 0, 64, 64
2, 71156, Note_off_c, 0, 61, 64
2, 71156, Note_off_c, 0, 57, 64
2, 71156, Note_off_c, 0, 55, 64
2, 71166, Note_off_c, 0, 45, 64
2, 71204, Note_on_c, 0, 57, 29
2, 71204, Note_on_c, 0, 55, 49
2, 71216, Note_on_c, 0, 67, 49
2, 71219, Note_on_c, 0, 61, 40
2, 71224, Note_off_c, 0, 66, 64
2, 71316, Note_on_c, 0, 76, 48
2, 71324, Note_off_c, 0, 55, 64
2, 71324, Note_off_c, 0, 57, 64
2, 71339, Note_off_c, 0, 61, 64
2, 71361, Note_off_c, 0, 67, 64
2, 71397, Note_on_c, 0, 74, 41
2, 71400, Note_on_c, 0, 45, 58
2, 71416, Note_off_c, 0, 76, 64
2, 71420, Control_c, 0, 64, 0
2, 71420, Control_c, 0, 64, 0
2, 71444, Control_c, 0, 64, 127
2, 71444, Control_c, 0, 64, 127
2, 71511, Note_on_c, 0, 67, 54
2, 71537, Note_off_c, 0, 74, 64
2, 71580, Note_on_c, 0, 54, 36
2, 71582, Note_on_c, 0, 66, 60
2, 71582, Note_on_c, 0, 57, 42
2, 71590, Note_on_c, 0, 62, 41
2, 71592, Control_c, 0, 64, 0
2, 71592, Control_c, 0, 64, 0
2, 71605, Note_off_c, 0, 67, 64
2, 71625, Control_c, 0, 64, 127
2, 71625, Control_c, 0, 64, 127
2, 71671, Note_on_c, 0, 67, 60
2, 71684, Note_off_c, 0, 45, 64
2, 71686, Note_off_c, 0, 66, 64
2, 71700, Note_off_c, 0, 54, 64
2, 71702, Note_off_c, 0, 57, 64
2, 71710, Note_off_c, 0, 62, 64
2, 71754, Note_on_c, 0, 68, 58
2, 71757, Note_on_c, 0, 53, 40
2, 71761, Note_on_c, 0, 59, 49
2, 71764, Note_on_c, 0, 62, 49
2, 71778, Control_c, 0, 64, 0
2, 71778, Control_c, 0, 64, 0
2, 71784, Note_off_c, 0, 67, 64
2, 71808, Control_c, 0, 64, 127
2, 71808, Control_c, 0, 64, 127
2, 71862, Note_on_c, 0, 71, 54
2, 71877, Note_off_c, 0, 53, 64
2, 71881, Note_off_c, 0, 59, 64
2, 71884, Note_off_c, 0, 62, 64
2, 71896, Note_off_c, 0, 68, 64
2, 71937, Note_on_c, 0, 69, 55
2, 71939, Note_on_c, 0, 45, 54
2, 71950, Control_c, 0, 64, 0
2, 71950, Control_c, 0, 64, 0
2, 71955, Note_off_c, 0, 71, 64
2, 71983, Control_c, 0, 64, 127
2, 71983, Control_c, 0, 64, 127
2, 72064, Note_on_c, 0, 63, 62
2, 72080, Note_off_c, 0, 69, 64
2, 72118, Note_on_c, 0, 66, 56
2, 72118, Note_on_c, 0, 61, 62
2, 72122, Control_c, 0, 64, 0
2, 72122, Control_c, 0, 64, 0
2, 72130, Note_on_c, 0, 55, 34
2, 72135, Note_off_c, 0, 63, 64
2, 72162, Control_c, 0, 64, 127
2, 72162, Control_c, 0, 64, 127
2, 72223, Note_off_c, 0, 45, 64
2, 72238, Note_off_c, 0, 61, 64
2, 72238, Note_on_c, 0, 64, 52
2, 72250, Note_off_c, 0, 55, 64
2, 72259, Note_off_c, 0, 66, 64
2, 72297, Note_on_c, 0, 67, 59
2, 72301, Note_on_c, 0, 61, 51
2, 72301, Note_on_c, 0, 55, 55
2, 72323, Note_off_c, 0, 64, 64
2, 72395, Note_on_c, 0, 59, 41
2, 72421, Note_off_c, 0, 55, 64
2, 72421, Note_off_c, 0, 61, 64
2, 72455, Note_off_c, 0, 67, 64
2, 72465, Note_on_c, 0, 57, 63
2, 72472, Note_on_c, 0, 33, 58
2, 72486, Control_c, 0, 64, 0
2, 72486, Control_c, 0, 64, 0
2, 72488, Note_off_c, 0, 59, 64
2, 72510, Control_c, 0, 64, 127
2, 72510, Control_c, 0, 64, 127
2, 72589, Note_on_c, 0, 64, 51
2, 72623, Note_off_c, 0, 57, 64
2, 72641, Note_on_c, 0, 57, 49
2, 72641, Note_on_c, 0, 54, 43
2, 72648, Note_on_c, 0, 62, 62
2, 72654, Control_c, 0, 64, 0
2, 72654, Control_c, 0, 64, 0
2, 72662, Note_off_c, 0, 64, 64
2, 72677, Control_c, 0, 64, 127
2, 72677, Control_c, 0, 64, 127
2, 72746, Note_on_c, 0, 67, 49
2, 72757, Note_off_c, 0, 33, 64
2, 72761, Note_off_c, 0, 54, 64
2, 72761, Note_off_c, 0, 57, 64
2, 72767, Note_off_c, 0, 62, 64
2, 72821, Note_on_c, 0, 54, 49
2, 72822, Note_on_c, 0, 62, 55
2, 72825, Note_on_c, 0, 66, 73
2, 72825, Note_on_c, 0, 57, 41
2, 72841, Note_off_c, 0, 67, 64
2, 72925, Note_on_c, 0, 71, 60
2, 72941, Note_off_c, 0, 54, 64
2, 72942, Note_off_c, 0, 62, 64
2, 72945, Note_off_c, 0, 57, 64
2, 72951, Note_off_c, 0, 66, 64
2, 72996, Note_off_c, 0, 71, 64
2, 72996, Note_on_c, 0, 69, 51
2, 73004, Note_on_c, 0, 45, 56
2, 73004, Control_c, 0, 64, 0
2, 73004, Control_c, 0, 64, 0
2, 73029, Control_c, 0, 64, 127
2, 73029, Control_c, 0, 64, 127
2, 73035, Note_on_c, 0, 71, 59
2, 73047, Note_off_c, 0, 69, 64
2, 73080, Note_on_c, 0, 69, 49
2, 73101, Note_off_c, 0, 71, 64
2, 73145, Note_on_c, 0, 68, 56
2, 73152, Note_off_c, 0, 69, 64
2, 73161, Note_on_c, 0, 61, 51
2, 73164, Control_c, 0, 64, 0
2, 73164, Control_c, 0, 64, 0
2, 73171, Note_on_c, 0, 52, 44
2, 73210, Control_c, 0, 64, 127
2, 73210, Control_c, 0, 64, 127
2, 73273, Note_on_c, 0, 67, 63
2, 73281, Note_off_c, 0, 61, 64
2, 73283, Note_off_c, 0, 45, 64
2, 73288, Note_off_c, 0, 68, 64
2, 73291, Note_off_c, 0, 52, 64
2, 73335, Note_on_c, 0, 69, 57
2, 73339, Note_off_c, 0, 67, 64
2, 73345, Control_c, 0, 64, 0
2, 73345, Control_c, 0, 64, 0
2, 73348, Note_on_c, 0, 67, 55
2, 73348, Note_on_c, 0, 61, 55
2, 73356, Note_on_c, 0, 57, 41
2, 73359, Control_c, 0, 64, 127
2, 73359, Control_c, 0, 64, 127
2, 73456, Note_on_c, 0, 76, 54
2, 73468, Note_off_c, 0, 61, 64
2, 73468, Note_off_c, 0, 67, 64
2, 73476, Note_off_c, 0, 57, 64
2, 73485, Note_off_c, 0, 69, 64
2, 73513, Control_c, 0, 64, 0
2, 73513, Control_c, 0, 64, 0
2, 73521, Note_on_c, 0, 38, 51
2, 73521, Note_on_c, 0, 74, 60
2, 73535, Note_off_c, 0, 76, 64
2, 73555, Control_c, 0, 64, 127
2, 73555, Control_c, 0, 64, 127
2, 73638, Note_on_c, 0, 67, 52
2, 73668, Note_off_c, 0, 74, 64
2, 73685, Note_on_c, 0, 60, 26
2, 73692, Note_on_c, 0, 57, 20
2, 73692, Note_on_c, 0, 50, 49
2, 73697, Note_on_c, 0, 66, 60
2, 73704, Control_c, 0, 64, 0
2, 73704, Control_c, 0, 64, 0
2, 73714, Control_c, 0, 64, 127
2, 73714, Control_c, 0, 64, 127
2, 73721, Note_off_c, 0, 67, 64
2, 73805, Note_off_c, 0, 60, 64
2, 73807, Note_on_c, 0, 67, 57
2, 73812, Note_off_c, 0, 50, 64
2, 73812, Note_off_c, 0, 57, 64
2, 73820, Note_off_c, 0, 66, 64
2, 73871, Note_on_c, 0, 68, 57
2, 73875, Note_on_c, 0, 54, 62
2, 73875, Note_on_c, 0, 60, 62
2, 73876, Note_on_c, 0, 50, 65
2, 73876, Control_c, 0, 64, 0
2, 73876, Control_c, 0, 64, 0
2, 73902, Note_off_c, 0, 67, 64
2, 73935, Control_c, 0, 64, 127
2, 73935, Control_c, 0, 64, 127
2, 73976, Note_on_c, 0, 71, 39
2, 73992, Note_off_c, 0, 68, 64
2, 74035, Note_off_c, 0, 38, 64
2, 74040, Note_on_c, 0, 69, 52
2, 74049, Note_off_c, 0, 71, 64
2, 74091, Note_off_c, 0, 54, 64
2, 74091, Note_off_c, 0, 50, 64
2, 74101, Note_off_c, 0, 60, 64
2, 74163, Note_on_c, 0, 65, 57
2, 74183, Note_off_c, 0, 69, 64
2, 74212, Control_c, 0, 64, 0
2, 74212, Control_c, 0, 64, 0
2, 74220, Note_on_c, 0, 66, 60
2, 74220, Note_on_c, 0, 60, 51
2, 74223, Note_on_c, 0, 57, 46
2, 74225, Note_on_c, 0, 51, 59
2, 74247, Note_off_c, 0, 65, 64
2, 74256, Control_c, 0, 64, 127
2, 74256, Control_c, 0, 64, 127
2, 74331, Note_on_c, 0, 67, 57
2, 74340, Note_off_c, 0, 60, 64
2, 74343, Note_off_c, 0, 57, 64
2, 74345, Note_off_c, 0, 51, 64
2, 74352, Note_off_c, 0, 66, 64
2, 74395, Control_c, 0, 64, 0
2, 74395, Control_c, 0, 64, 0
2, 74400, Note_on_c, 0, 68, 65
2, 74404, Note_on_c, 0, 51, 65
2, 74404, Note_on_c, 0, 54, 65
2, 74405, Note_on_c, 0, 60, 65
2, 74425, Note_off_c, 0, 67, 64
2, 74461, Control_c, 0, 64, 127
2, 74461, Control_c, 0, 64, 127
2, 74484, Note_on_c, 0, 71, 52
2, 74509, Note_off_c, 0, 68, 64
2, 74568, Note_on_c, 0, 69, 51
2, 74579, Note_off_c, 0, 71, 64
2, 74621, Note_on_c, 0, 71, 62
2, 74645, Note_off_c, 0, 69, 64
2, 74673, Note_on_c, 0, 69, 62
2, 74691, Note_off_c, 0, 71, 64
2, 74760, Note_on_c, 0, 66, 43
2, 74763, Note_on_c, 0, 57, 63
2, 74769, Note_off_c, 0, 54, 64
2, 74775, Control_c, 0, 64, 0
2, 74775, Control_c, 0, 64, 0
2, 74800, Note_off_c, 0, 69, 64
2, 74808, Control_c, 0, 64, 127
2, 74808, Control_c, 0, 64, 127
2, 74899, Note_on_c, 0, 67, 63
2, 74902, Note_off_c, 0, 66, 64
2, 74944, Note_on_c, 0, 68, 70
2, 74969, Note_off_c, 0, 67, 64
2, 75046, Note_off_c, 0, 57, 64
2, 75049, Note_off_c, 0, 51, 64
2, 75050, Note_off_c, 0, 60, 64
2, 75059, Note_on_c, 0, 71, 51
2, 75074, Note_on_c, 0, 52, 49
2, 75089, Note_off_c, 0, 68, 64
2, 75129, Note_on_c, 0, 64, 69
2, 75129, Control_c, 0, 64, 0
2, 75129, Control_c, 0, 64, 0
2, 75136, Note_on_c, 0, 69, 57
2, 75141, Note_off_c, 0, 52, 64
2, 75160, Note_off_c, 0, 71, 64
2, 75166, Control_c, 0, 64, 127
2, 75166, Control_c, 0, 64, 127
2, 75212, Note_on_c, 0, 59, 59
2, 75255, Note_off_c, 0, 64, 64
2, 75260, Note_on_c, 0, 67, 51
2, 75277, Note_off_c, 0, 69, 64
2, 75297, Note_off_c, 0, 67, 64
2, 75312, Control_c, 0, 64, 0
2, 75312, Control_c, 0, 64, 0
2, 75317, Note_on_c, 0, 67, 63
2, 75319, Note_on_c, 0, 60, 82
2, 75329, Note_off_c, 0, 59, 64
2, 75360, Control_c, 0, 64, 127
2, 75360, Control_c, 0, 64, 127
2, 75421, Note_on_c, 0, 65, 55
2, 75435, Note_off_c, 0, 67, 64
2, 75459, Note_off_c, 0, 65, 64
2, 75492, Note_on_c, 0, 57, 56
2, 75497, Note_on_c, 0, 65, 57
2, 75512, Control_c, 0, 64, 0
2, 75512, Control_c, 0, 64, 0
2, 75528, Note_off_c, 0, 60, 64
2, 75537, Control_c, 0, 64, 127
2, 75537, Control_c, 0, 64, 127
2, 75604, Note_on_c, 0, 63, 49
2, 75617, Note_off_c, 0, 65, 64
2, 75643, Note_off_c, 0, 63, 64
2, 75687, Note_off_c, 0, 57, 64
2, 75687, Note_on_c, 0, 59, 62
2, 75688, Note_on_c, 0, 63, 56
2, 75703, Control_c, 0, 64, 0
2, 75703, Control_c, 0, 64, 0
2, 75737, Control_c, 0, 64, 127
2, 75737, Control_c, 0, 64, 127
2, 75822, Note_on_c, 0, 56, 51
2, 75868, Note_on_c, 0, 64, 54
2, 75876, Note_off_c, 0, 63, 64
2, 75882, Note_off_c, 0, 59, 64
2, 75922, Note_on_c, 0, 52, 65
2, 75923, Note_off_c, 0, 64, 64
2, 75937, Note_on_c, 0, 64, 57
2, 75941, Note_off_c, 0, 56, 64
2, 75945, Control_c, 0, 64, 0
2, 75945, Control_c, 0, 64, 0
2, 75967, Control_c, 0, 64, 127
2, 75967, Control_c, 0, 64, 127
2, 76148, Note_on_c, 0, 40, 48
2, 76156, Note_on_c, 0, 47, 44
2, 76163, Note_on_c, 0, 62, 47
2, 76166, Note_on_c, 0, 56, 47
2, 76186, Control_c, 0, 64, 0
2, 76186, Control_c, 0, 64, 0
2, 76239, Control_c, 0, 64, 127
2, 76239, Control_c, 0, 64, 127
2, 76268, Note_off_c, 0, 40, 64
2, 76276, Note_off_c, 0, 47, 64
2, 76283, Note_off_c, 0, 62, 64
2, 76286, Note_off_c, 0, 56, 64
2, 76340, Note_on_c, 0, 40, 48
2, 76348, Note_on_c, 0, 47, 44
2, 76356, Note_on_c, 0, 62, 47
2, 76356, Note_on_c, 0, 56, 47
2, 76359, Note_on_c, 0, 66, 67
2, 76394, Control_c, 0, 64, 0
2, 76394, Control_c, 0, 64, 0
2, 76400, Note_off_c, 0, 64, 64
2, 76460, Note_off_c, 0, 40, 64
2, 76468, Note_off_c, 0, 47, 64
2, 76476, Note_off_c, 0, 56, 64
2, 76476, Note_off_c, 0, 62, 64
2, 76480, Note_on_c, 0, 68, 58
2, 76492, Note_off_c, 0, 52, 64
2, 76504, Note_off_c, 0, 66, 64
2, 76547, Note_on_c, 0, 69, 74
2, 76572, Note_off_c, 0, 68, 64
2, 76712, Note_on_c, 0, 71, 69
2, 76717, Note_on_c, 0, 56, 49
2, 76720, Note_on_c, 0, 62, 41
2, 76729, Note_on_c, 0, 52, 36
2, 76729, Control_c, 0, 64, 0
2, 76729, Control_c, 0, 64, 0
2, 76736, Note_off_c, 0, 69, 64
2, 76765, Control_c, 0, 64, 127
2, 76765, Control_c, 0, 64, 127
2, 76837, Note_off_c, 0, 56, 64
2, 76840, Note_off_c, 0, 62, 64
2, 76849, Note_off_c, 0, 52, 64
2, 76905, Note_on_c, 0, 72, 66
2, 76909, Note_on_c, 0, 45, 51
2, 76915, Control_c, 0, 64, 0
2, 76915, Control_c, 0, 64, 0
2, 76918, Note_off_c, 0, 71, 64
2, 76958, Control_c, 0, 64, 127
2, 76958, Control_c, 0, 64, 127
2, 76995, Note_on_c, 0, 77, 71
2, 77026, Note_off_c, 0, 72, 64
2, 77084, Note_on_c, 0, 76, 71
2, 77091, Note_on_c, 0, 60, 43
2, 77095, Note_on_c, 0, 52, 51
2, 77102, Control_c, 0, 64, 0
2, 77102, Control_c, 0, 64, 0
2, 77109, Note_off_c, 0, 77, 64
2, 77131, Control_c, 0, 64, 127
2, 77131, Control_c, 0, 64, 127
2, 77164, Note_on_c, 0, 72, 74
2, 77210, Note_off_c, 0, 76, 64
2, 77222, Note_off_c, 0, 60, 64
2, 77226, Note_off_c, 0, 52, 64
2, 77249, Note_on_c, 0, 76, 64
2, 77254, Control_c, 0, 64, 0
2, 77254, Control_c, 0, 64, 0
2, 77262, Note_on_c, 0, 44, 65
2, 77267, Note_off_c, 0, 45, 64
2, 77284, Note_off_c, 0, 72, 64
2, 77291, Control_c, 0, 64, 127
2, 77291, Control_c, 0, 64, 127
2, 77338, Note_on_c, 0, 78, 85
2, 77388, Note_off_c, 0, 76, 64
2, 77439, Note_on_c, 0, 79, 81
2, 77442, Note_on_c, 0, 43, 56
2, 77442, Control_c, 0, 64, 0
2, 77442, Control_c, 0, 64, 0
2, 77465, Note_off_c, 0, 78, 64
2, 77479, Note_off_c, 0, 44, 64
2, 77479, Control_c, 0, 64, 127
2, 77479, Control_c, 0, 64, 127
2, 77515, Note_on_c, 0, 74, 64
2, 77563, Note_off_c, 0, 79, 64
2, 77609, Note_on_c, 0, 76, 63
2, 77615, Note_on_c, 0, 64, 44
2, 77619, Note_on_c, 0, 60, 27
2, 77622, Note_on_c, 0, 55, 37
2, 77626, Control_c, 0, 64, 0
2, 77626, Control_c, 0, 64, 0
2, 77639, Note_off_c, 0, 74, 64
2, 77668, Control_c, 0, 64, 127
2, 77668, Control_c, 0, 64, 127
2, 77691, Note_on_c, 0, 71, 65
2, 77698, Note_off_c, 0, 76, 64
2, 77735, Note_off_c, 0, 64, 64
2, 77739, Note_off_c, 0, 60, 64
2, 77742, Note_off_c, 0, 55, 64
2, 77752, Note_off_c, 0, 43, 64
2, 77788, Note_on_c, 0, 60, 35
2, 77796, Note_on_c, 0, 64, 21
2, 77802, Note_on_c, 0, 72, 58
2, 77806, Note_on_c, 0, 69, 26
2, 77816, Note_off_c, 0, 71, 64
2, 77825, Control_c, 0, 64, 0
2, 77825, Control_c, 0, 64, 0
2, 77862, Note_off_c, 0, 69, 64
2, 77866, Control_c, 0, 64, 127
2, 77866, Control_c, 0, 64, 127
2, 77894, Note_on_c, 0, 69, 65
2, 77908, Note_off_c, 0, 72, 64
2, 77976, Note_off_c, 0, 64, 64
2, 77985, Note_off_c, 0, 60, 64
2, 78000, Note_on_c, 0, 74, 67
2, 78024, Note_off_c, 0, 69, 64
2, 78078, Note_on_c, 0, 71, 65
2, 78091, Note_off_c, 0, 74, 64
2, 78182, Note_on_c, 0, 67, 71
2, 78191, Note_on_c, 0, 62, 41
2, 78198, Note_on_c, 0, 65, 32
2, 78204, Note_on_c, 0, 55, 32
2, 78211, Control_c, 0, 64, 0
2, 78211, Control_c, 0, 64, 0
2, 78248, Control_c, 0, 64, 127
2, 78248, Control_c, 0, 64, 127
2, 78311, Note_off_c, 0, 62, 64
2, 78318, Note_off_c, 0, 65, 64
2, 78324, Note_off_c, 0, 55, 64
2, 78460, Note_on_c, 0, 65, 20
2, 78461, Note_on_c, 0, 55, 26
2, 78469, Note_on_c, 0, 62, 25
2, 78482, Control_c, 0, 64, 0
2, 78482, Control_c, 0, 64, 0
2, 78516, Control_c, 0, 64, 127
2, 78516, Control_c, 0, 64, 127
2, 78658, Note_off_c, 0, 62, 64
2, 78669, Note_on_c, 0, 69, 55
2, 78682, Note_off_c, 0, 65, 64
2, 78683, Note_off_c, 0, 71, 64
2, 78695, Note_off_c, 0, 55, 64
2, 78695, Note_off_c, 0, 67, 64
2, 78751, Note_on_c, 0, 71, 54
2, 78780, Note_off_c, 0, 69, 64
2, 78831, Note_on_c, 0, 72, 55
2, 78832, Note_on_c, 0, 55, 28
2, 78833, Note_on_c, 0, 65, 34
2, 78836, Note_on_c, 0, 57, 49
2, 78840, Note_off_c, 0, 71, 64
2, 78849, Control_c, 0, 64, 0
2, 78849, Control_c, 0, 64, 0
2, 78873, Control_c, 0, 64, 127
2, 78873, Control_c, 0, 64, 127
2, 78952, Note_off_c, 0, 55, 64
2, 78953, Note_off_c, 0, 65, 64
2, 78956, Note_off_c, 0, 57, 64
2, 79021, Note_on_c, 0, 74, 62
2, 79032, Note_on_c, 0, 65, 36
2, 79037, Note_on_c, 0, 59, 55
2, 79037, Control_c, 0, 64, 127
2, 79037, Control_c, 0, 64, 127
2, 79037, Control_c, 0, 64, 0
2, 79037, Control_c, 0, 64, 0
2, 79040, Note_on_c, 0, 55, 28
2, 79045, Note_off_c, 0, 72, 64
2, 79065, Control_c, 0, 64, 127
2, 79065, Control_c, 0, 64, 127
2, 79152, Note_off_c, 0, 65, 64
2, 79157, Note_off_c, 0, 59, 64
2, 79160, Note_off_c, 0, 55, 64
2, 79224, Note_on_c, 0, 48, 50
2, 79232, Note_on_c, 0, 76, 56
2, 79239, Note_off_c, 0, 74, 64
2, 79256, Control_c, 0, 64, 0
2, 79256, Control_c, 0, 64, 0
2, 79280, Control_c, 0, 64, 127
2, 79280, Control_c, 0, 64, 127
2, 79344, Note_on_c, 0, 78, 63
2, 79367, Note_off_c, 0, 76, 64
2, 79436, Note_on_c, 0, 76, 60
2, 79455, Note_off_c, 0, 78, 64
2, 79480, Note_on_c, 0, 78, 62
2, 79497, Note_on_c, 0, 54, 26
2, 79497, Note_on_c, 0, 64, 21
2, 79502, Note_off_c, 0, 76, 64
2, 79502, Note_on_c, 0, 58, 28
2, 79509, Note_off_c, 0, 48, 64
2, 79537, Note_off_c, 0, 78, 64
2, 79543, Note_on_c, 0, 80, 62
2, 79584, Note_on_c, 0, 78, 70
2, 79589, Note_off_c, 0, 80, 64
2, 79618, Note_off_c, 0, 78, 64
2, 79629, Note_on_c, 0, 80, 63
2, 79656, Note_off_c, 0, 80, 64
2, 79656, Note_on_c, 0, 78, 65
2, 79685, Note_off_c, 0, 78, 64
2, 79694, Note_on_c, 0, 80, 69
2, 79702, Note_on_c, 0, 48, 55
2, 79723, Note_off_c, 0, 64, 64
2, 79723, Note_off_c, 0, 54, 64
2, 79725, Note_off_c, 0, 80, 64
2, 79725, Note_on_c, 0, 78, 65
2, 79728, Note_off_c, 0, 58, 64
2, 79752, Note_on_c, 0, 80, 66
2, 79755, Note_off_c, 0, 78, 64
2, 79792, Note_off_c, 0, 80, 64
2, 79792, Note_on_c, 0, 78, 69
2, 79838, Note_on_c, 0, 76, 62
2, 79851, Note_off_c, 0, 78, 64
2, 79910, Note_on_c, 0, 78, 62
2, 79940, Note_off_c, 0, 76, 64
2, 79988, Note_on_c, 0, 80, 57
2, 79996, Note_off_c, 0, 78, 64
2, 80001, Control_c, 0, 64, 0
2, 80001, Control_c, 0, 64, 0
2, 80006, Note_on_c, 0, 47, 51
2, 80029, Control_c, 0, 64, 127
2, 80029, Control_c, 0, 64, 127
2, 80035, Note_off_c, 0, 48, 64
2, 80093, Note_on_c, 0, 71, 50
2, 80119, Note_off_c, 0, 80, 64
2, 80188, Note_on_c, 0, 59, 35
2, 80191, Note_on_c, 0, 80, 57
2, 80194, Note_on_c, 0, 56, 52
2, 80199, Note_on_c, 0, 64, 41
2, 80203, Control_c, 0, 64, 0
2, 80203, Control_c, 0, 64, 0
2, 80224, Note_off_c, 0, 71, 64
2, 80239, Control_c, 0, 64, 127
2, 80239, Control_c, 0, 64, 127
2, 80289, Note_off_c, 0, 47, 64
2, 80308, Note_off_c, 0, 59, 64
2, 80314, Note_off_c, 0, 56, 64
2, 80319, Note_off_c, 0, 64, 64
2, 80381, Note_on_c, 0, 78, 66
2, 80388, Note_on_c, 0, 59, 35
2, 80389, Note_on_c, 0, 63, 40
2, 80395, Note_off_c, 0, 80, 64
2, 80399, Note_on_c, 0, 57, 37
2, 80404, Control_c, 0, 64, 0
2, 80404, Control_c, 0, 64, 0
2, 80440, Control_c, 0, 64, 127
2, 80440, Control_c, 0, 64, 127
2, 80479, Note_on_c, 0, 80, 62
2, 80502, Note_off_c, 0, 78, 64
2, 80508, Note_off_c, 0, 59, 64
2, 80509, Note_off_c, 0, 63, 64
2, 80519, Note_off_c, 0, 57, 64
2, 80569, Note_on_c, 0, 76, 62
2, 80571, Note_on_c, 0, 52, 52
2, 80590, Control_c, 0, 64, 0
2, 80590, Control_c, 0, 64, 0
2, 80601, Note_off_c, 0, 80, 64
2, 80624, Control_c, 0, 64, 127
2, 80624, Control_c, 0, 64, 127
2, 80712, Note_off_c, 0, 76, 64
2, 80721, Note_on_c, 0, 71, 44
2, 80764, Note_on_c, 0, 64, 27
2, 80764, Note_on_c, 0, 59, 35
2, 80767, Note_on_c, 0, 68, 39
2, 80769, Note_on_c, 0, 56, 35
2, 80776, Note_on_c, 0, 76, 63
2, 80790, Control_c, 0, 64, 0
2, 80790, Control_c, 0, 64, 0
2, 80811, Note_off_c, 0, 71, 64
2, 80826, Control_c, 0, 64, 127
2, 80826, Control_c, 0, 64, 127
2, 80856, Note_off_c, 0, 52, 64
2, 80884, Note_off_c, 0, 59, 64
2, 80884, Note_off_c, 0, 64, 64
2, 80887, Note_off_c, 0, 68, 64
2, 80889, Note_off_c, 0, 56, 64
2, 80964, Note_on_c, 0, 67, 46
2, 80971, Note_on_c, 0, 61, 41
2, 80977, Note_on_c, 0, 57, 43
2, 80989, Control_c, 0, 64, 0
2, 80989, Control_c, 0, 64, 0
2, 81012, Control_c, 0, 64, 127
2, 81012, Control_c, 0, 64, 127
2, 81084, Note_off_c, 0, 67, 64
2, 81091, Note_off_c, 0, 61, 64
2, 81097, Note_off_c, 0, 57, 64
2, 81176, Control_c, 0, 64, 0
2, 81176, Control_c, 0, 64, 0
2, 81180, Note_on_c, 0, 77, 56
2, 81184, Note_on_c, 0, 50, 47
2, 81197, Note_off_c, 0, 76, 64
2, 81215, Control_c, 0, 64, 127
2, 81215, Control_c, 0, 64, 127
2, 81289, Note_on_c, 0, 69, 44
2, 81373, Note_off_c, 0, 77, 64
2, 81387, Note_on_c, 0, 74, 55
2, 81396, Note_on_c, 0, 57, 32
2, 81401, Note_on_c, 0, 65, 28
2, 81405, Note_on_c, 0, 59, 41
2, 81412, Control_c, 0, 64, 0
2, 81412, Control_c, 0, 64, 0
2, 81454, Control_c, 0, 64, 127
2, 81454, Control_c, 0, 64, 127
2, 81469, Note_off_c, 0, 69, 64
2, 81482, Note_off_c, 0, 50, 64
2, 81516, Note_off_c, 0, 57, 64
2, 81521, Note_off_c, 0, 65, 64
2, 81525, Note_off_c, 0, 59, 64
2, 81636, Note_on_c, 0, 56, 26
2, 81638, Note_on_c, 0, 71, 55
2, 81641, Note_off_c, 0, 74, 64
2, 81653, Note_on_c, 0, 62, 25
2, 81653, Note_on_c, 0, 52, 29
2, 81665, Control_c, 0, 64, 0
2, 81665, Control_c, 0, 64, 0
2, 81690, Control_c, 0, 64, 127
2, 81690, Control_c, 0, 64, 127
2, 81756, Note_off_c, 0, 56, 64
2, 81773, Note_off_c, 0, 52, 64
2, 81773, Note_off_c, 0, 62, 64
2, 81834, Note_on_c, 0, 72, 50
2, 81837, Note_off_c, 0, 71, 64
2, 81893, Note_on_c, 0, 69, 55
2, 81899, Note_off_c, 0, 72, 64
2, 81932, Note_on_c, 0, 71, 49
2, 81946, Note_off_c, 0, 69, 64
2, 81975, Note_on_c, 0, 51, 51
2, 81977, Note_on_c, 0, 69, 55
2, 81984, Control_c, 0, 64, 0
2, 81984, Control_c, 0, 64, 0
2, 81992, Note_off_c, 0, 71, 64
2, 82015, Control_c, 0, 64, 127
2, 82015, Control_c, 0, 64, 127
2, 82166, Note_on_c, 0, 68, 52
2, 82171, Note_off_c, 0, 69, 64
2, 82214, Note_on_c, 0, 60, 42
2, 82228, Note_on_c, 0, 66, 37
2, 82235, Note_off_c, 0, 68, 64
2, 82242, Note_on_c, 0, 69, 44
2, 82243, Control_c, 0, 64, 0
2, 82243, Control_c, 0, 64, 0
2, 82258, Control_c, 0, 64, 127
2, 82258, Control_c, 0, 64, 127
2, 82334, Note_off_c, 0, 60, 64
2, 82348, Note_off_c, 0, 66, 64
2, 82438, Note_on_c, 0, 66, 35
2, 82445, Note_on_c, 0, 60, 37
2, 82503, Note_off_c, 0, 51, 64
2, 82558, Note_off_c, 0, 66, 64
2, 82565, Note_off_c, 0, 60, 64
2, 82662, Note_on_c, 0, 39, 50
2, 82674, Control_c, 0, 64, 0
2, 82674, Control_c, 0, 64, 0
2, 82718, Control_c, 0, 64, 127
2, 82718, Control_c, 0, 64, 127
2, 82862, Note_on_c, 0, 66, 46
2, 82874, Note_on_c, 0, 60, 28
2, 82982, Note_off_c, 0, 66, 64
2, 82994, Note_off_c, 0, 60, 64
2, 83035, Note_off_c, 0, 39, 64
2, 83069, Note_on_c, 0, 66, 36
2, 83081, Note_on_c, 0, 60, 28
2, 83189, Note_off_c, 0, 66, 64
2, 83201, Note_off_c, 0, 60, 64
2, 83265, Note_on_c, 0, 51, 42
2, 83279, Control_c, 0, 64, 0
2, 83279, Control_c, 0, 64, 0
2, 83321, Control_c, 0, 64, 127
2, 83321, Control_c, 0, 64, 127
2, 83461, Note_on_c, 0, 66, 35
2, 83475, Note_on_c, 0, 60, 24
2, 83581, Note_off_c, 0, 66, 64
2, 83595, Note_off_c, 0, 60, 64
2, 83638, Note_off_c, 0, 51, 64
2, 83664, Note_on_c, 0, 66, 34
2, 83670, Note_on_c, 0, 60, 33
2, 83784, Note_off_c, 0, 66, 64
2, 83790, Note_off_c, 0, 60, 64
2, 83874, Control_c, 0, 64, 0
2, 83874, Control_c, 0, 64, 0
2, 83901, Note_on_c, 0, 39, 51
2, 83923, Control_c, 0, 64, 127
2, 83923, Control_c, 0, 64, 127
2, 84019, Note_off_c, 0, 69, 64
2, 84138, Note_on_c, 0, 57, 48
2, 84184, Control_c, 0, 64, 0
2, 84184, Control_c, 0, 64, 0
2, 84196, Control_c, 0, 64, 127
2, 84196, Control_c, 0, 64, 127
2, 84230, Note_on_c, 0, 60, 55
2, 84275, Note_off_c, 0, 57, 64
2, 84282, Note_off_c, 0, 39, 64
2, 84329, Note_on_c, 0, 72, 62
2, 84358, Note_off_c, 0, 60, 64
2, 84481, Note_on_c, 0, 71, 56
2, 84503, Note_off_c, 0, 72, 64
2, 84535, Note_off_c, 0, 71, 64
2, 84569, Note_on_c, 0, 51, 48
2, 84571, Note_on_c, 0, 71, 57
2, 84573, Control_c, 0, 64, 0
2, 84573, Control_c, 0, 64, 0
2, 84581, Note_on_c, 0, 78, 62
2, 84594, Control_c, 0, 64, 127
2, 84594, Control_c, 0, 64, 127
2, 84684, Note_on_c, 0, 69, 56
2, 84709, Note_off_c, 0, 71, 64
2, 84766, Note_on_c, 0, 57, 39
2, 84770, Note_off_c, 0, 69, 64
2, 84797, Note_on_c, 0, 69, 52
2, 84807, Note_on_c, 0, 60, 25
2, 84822, Note_on_c, 0, 66, 39
2, 84843, Note_on_c, 0, 84, 82
2, 84855, Note_off_c, 0, 78, 64
2, 84879, Control_c, 0, 64, 0
2, 84879, Control_c, 0, 64, 0
2, 84891, Control_c, 0, 64, 127
2, 84891, Control_c, 0, 64, 127
2, 84917, Note_off_c, 0, 51, 64
2, 84979, Note_off_c, 0, 57, 64
2, 85020, Note_off_c, 0, 60, 64
2, 85035, Note_off_c, 0, 66, 64
2, 85094, Note_on_c, 0, 57, 37
2, 85095, Note_on_c, 0, 60, 48
2, 85101, Note_on_c, 0, 66, 46
2, 85214, Note_off_c, 0, 57, 64
2, 85215, Note_off_c, 0, 60, 64
2, 85221, Note_off_c, 0, 66, 64
2, 85327, Control_c, 0, 64, 0
2, 85327, Control_c, 0, 64, 0
2, 85336, Note_on_c, 0, 39, 40
2, 85344, Note_off_c, 0, 84, 64
2, 85355, Control_c, 0, 64, 127
2, 85355, Control_c, 0, 64, 127
2, 85388, Note_off_c, 0, 69, 64
2, 85552, Note_on_c, 0, 65, 46
2, 85556, Note_on_c, 0, 60, 36
2, 85567, Note_on_c, 0, 57, 23
2, 85672, Note_off_c, 0, 65, 64
2, 85676, Note_off_c, 0, 60, 64
2, 85687, Note_off_c, 0, 57, 64
2, 85701, Note_off_c, 0, 39, 64
2, 85758, Note_on_c, 0, 60, 27
2, 85761, Note_on_c, 0, 65, 33
2, 85765, Note_on_c, 0, 57, 25
2, 85878, Note_off_c, 0, 60, 64
2, 85881, Note_off_c, 0, 65, 64
2, 85885, Note_off_c, 0, 57, 64
2, 85954, Note_on_c, 0, 51, 49
2, 86174, Note_on_c, 0, 60, 27
2, 86184, Note_on_c, 0, 65, 17
2, 86190, Note_on_c, 0, 57, 17
2, 86294, Note_off_c, 0, 60, 64
2, 86304, Note_off_c, 0, 65, 64
2, 86310, Note_off_c, 0, 57, 64
2, 86384, Note_on_c, 0, 60, 16
2, 86391, Note_on_c, 0, 57, 24
2, 86400, Note_on_c, 0, 65, 16
2, 86427, Note_off_c, 0, 51, 64
2, 86504, Note_off_c, 0, 60, 64
2, 86511, Note_off_c, 0, 57, 64
2, 86520, Note_off_c, 0, 65, 64
2, 86612, Note_on_c, 0, 39, 51
2, 86636, Control_c, 0, 64, 0
2, 86636, Control_c, 0, 64, 0
2, 86726, Note_on_c, 0, 57, 55
2, 86833, Note_on_c, 0, 60, 54
2, 86871, Note_off_c, 0, 57, 64
2, 86952, Note_on_c, 0, 65, 57
2, 86973, Note_off_c, 0, 39, 64
2, 86988, Note_off_c, 0, 60, 64
2, 87067, Note_on_c, 0, 72, 65
2, 87127, Note_off_c, 0, 65, 64
2, 87281, Note_on_c, 0, 71, 50
2, 87307, Note_off_c, 0, 72, 64
2, 87341, Note_off_c, 0, 71, 64
2, 87386, Note_on_c, 0, 77, 62
2, 87391, Note_on_c, 0, 71, 51
2, 87395, Note_on_c, 0, 51, 48
2, 87402, Control_c, 0, 64, 0
2, 87402, Control_c, 0, 64, 0
2, 87437, Control_c, 0, 64, 127
2, 87437, Control_c, 0, 64, 127
2, 87495, Note_off_c, 0, 71, 64
2, 87572, Note_on_c, 0, 69, 62
2, 87624, Note_off_c, 0, 69, 64
2, 87649, Note_on_c, 0, 69, 48
2, 87666, Note_on_c, 0, 57, 19
2, 87677, Note_on_c, 0, 60, 21
2, 87690, Note_on_c, 0, 65, 25
2, 87697, Note_on_c, 0, 84, 76
2, 87714, Control_c, 0, 64, 0
2, 87714, Control_c, 0, 64, 0
2, 87737, Note_off_c, 0, 51, 64
2, 87744, Note_off_c, 0, 77, 64
2, 87749, Control_c, 0, 64, 127
2, 87749, Control_c, 0, 64, 127
2, 87786, Note_off_c, 0, 57, 64
2, 87797, Note_off_c, 0, 60, 64
2, 87810, Note_off_c, 0, 65, 64
2, 87953, Note_on_c, 0, 65, 42
2, 87958, Note_on_c, 0, 60, 35
2, 87963, Note_on_c, 0, 57, 32
2, 88073, Note_off_c, 0, 65, 64
2, 88078, Note_off_c, 0, 60, 64
2, 88083, Note_off_c, 0, 57, 64
2, 88109, Note_on_c, 0, 52, 35
2, 88136, Note_off_c, 0, 84, 64
2, 88162, Note_on_c, 0, 64, 71
2, 88178, Control_c, 0, 64, 0
2, 88178, Control_c, 0, 64, 0
2, 88202, Note_off_c, 0, 69, 64
2, 88215, Control_c, 0, 64, 127
2, 88215, Control_c, 0, 64, 127
2, 88335, Note_on_c, 0, 59, 47
2, 88345, Note_on_c, 0, 67, 56
2, 88380, Note_off_c, 0, 67, 64
2, 88405, Note_on_c, 0, 67, 65
2, 88405, Note_on_c, 0, 60, 63
2, 88411, Note_off_c, 0, 52, 64
2, 88421, Control_c, 0, 64, 0
2, 88421, Control_c, 0, 64, 0
2, 88424, Note_off_c, 0, 59, 64
2, 88450, Control_c, 0, 64, 127
2, 88450, Control_c, 0, 64, 127
2, 88460, Note_off_c, 0, 64, 64
2, 88543, Note_on_c, 0, 65, 56
2, 88552, Note_off_c, 0, 67, 64
2, 88578, Note_off_c, 0, 65, 64
2, 88610, Note_on_c, 0, 65, 62
2, 88610, Note_on_c, 0, 57, 63
2, 88620, Note_off_c, 0, 60, 64
2, 88630, Control_c, 0, 64, 0
2, 88630, Control_c, 0, 64, 0
2, 88669, Control_c, 0, 64, 127
2, 88669, Control_c, 0, 64, 127
2, 88751, Note_on_c, 0, 63, 60
2, 88777, Note_off_c, 0, 65, 64
2, 88791, Note_off_c, 0, 63, 64
2, 88820, Note_on_c, 0, 59, 69
2, 88829, Note_on_c, 0, 63, 55
2, 88838, Control_c, 0, 64, 0
2, 88838, Control_c, 0, 64, 0
2, 88844, Note_off_c, 0, 57, 64
2, 88879, Control_c, 0, 64, 127
2, 88879, Control_c, 0, 64, 127
2, 88916, Note_on_c, 0, 56, 69
2, 88930, Note_off_c, 0, 63, 64
2, 88944, Note_off_c, 0, 59, 64
2, 88980, Note_on_c, 0, 64, 51
2, 89021, Note_off_c, 0, 64, 64
2, 89036, Note_on_c, 0, 52, 67
2, 89040, Note_on_c, 0, 64, 58
2, 89057, Control_c, 0, 64, 0
2, 89057, Control_c, 0, 64, 0
2, 89067, Note_off_c, 0, 56, 64
2, 89091, Control_c, 0, 64, 127
2, 89091, Control_c, 0, 64, 127
2, 89275, Note_on_c, 0, 56, 42
2, 89281, Note_on_c, 0, 62, 35
2, 89283, Control_c, 0, 64, 0
2, 89283, Control_c, 0, 64, 0
2, 89292, Note_on_c, 0, 47, 32
2, 89298, Note_on_c, 0, 40, 32
2, 89323, Control_c, 0, 64, 127
2, 89323, Control_c, 0, 64, 127
2, 89575, Note_off_c, 0, 56, 64
2, 89581, Note_off_c, 0, 62, 64
2, 89592, Note_off_c, 0, 47, 64
2, 89598, Note_off_c, 0, 40, 64
2, 89690, Note_on_c, 0, 56, 43
2, 89697, Note_on_c, 0, 62, 44
2, 89699, Note_on_c, 0, 40, 41
2, 89702, Note_on_c, 0, 47, 40
2, 89706, Control_c, 0, 64, 0
2, 89706, Control_c, 0, 64, 0
2, 89731, Control_c, 0, 64, 127
2, 89731, Control_c, 0, 64, 127
2, 89810, Note_off_c, 0, 56, 64
2, 89817, Note_off_c, 0, 62, 64
2, 89819, Note_off_c, 0, 40, 64
2, 89822, Note_off_c, 0, 47, 64
2, 89894, Note_on_c, 0, 56, 47
2, 89902, Note_on_c, 0, 47, 37
2, 89903, Note_on_c, 0, 40, 40
2, 89910, Note_on_c, 0, 62, 34
2, 90014, Note_off_c, 0, 56, 64
2, 90022, Note_off_c, 0, 47, 64
2, 90023, Note_off_c, 0, 40, 64
2, 90030, Note_off_c, 0, 62, 64
2, 90085, Note_on_c, 0, 63, 34
2, 90088, Note_on_c, 0, 59, 52
2, 90100, Note_off_c, 0, 52, 64
2, 90104, Note_off_c, 0, 64, 64
2, 90122, Control_c, 0, 64, 0
2, 90122, Control_c, 0, 64, 0
2, 90149, Control_c, 0, 64, 127
2, 90149, Control_c, 0, 64, 127
2, 90240, Note_on_c, 0, 56, 52
2, 90269, Note_off_c, 0, 59, 64
2, 90288, Note_on_c, 0, 64, 50
2, 90312, Note_off_c, 0, 63, 64
2, 90341, Note_off_c, 0, 64, 64
2, 90362, Note_on_c, 0, 64, 56
2, 90365, Note_off_c, 0, 56, 64
2, 90365, Note_on_c, 0, 52, 59
2, 90374, Control_c, 0, 64, 0
2, 90374, Control_c, 0, 64, 0
2, 90410, Control_c, 0, 64, 127
2, 90410, Control_c, 0, 64, 127
2, 90617, Note_on_c, 0, 56, 40
2, 90620, Control_c, 0, 64, 0
2, 90620, Control_c, 0, 64, 0
2, 90626, Note_on_c, 0, 40, 32
2, 90627, Note_on_c, 0, 62, 42
2, 90627, Note_on_c, 0, 47, 40
2, 90658, Control_c, 0, 64, 127
2, 90658, Control_c, 0, 64, 127
2, 90737, Note_off_c, 0, 56, 64
2, 90746, Note_off_c, 0, 40, 64
2, 90747, Note_off_c, 0, 47, 64
2, 90747, Note_off_c, 0, 62, 64
2, 90868, Note_on_c, 0, 63, 43
2, 90872, Note_on_c, 0, 59, 32
2, 90903, Control_c, 0, 64, 0
2, 90903, Control_c, 0, 64, 0
2, 90908, Note_off_c, 0, 64, 64
2, 90911, Note_off_c, 0, 52, 64
2, 90925, Control_c, 0, 64, 127
2, 90925, Control_c, 0, 64, 127
2, 91008, Note_on_c, 0, 56, 36
2, 91080, Note_on_c, 0, 64, 44
2, 91081, Note_off_c, 0, 59, 64
2, 91091, Note_off_c, 0, 63, 64
2, 91139, Note_off_c, 0, 64, 64
2, 91149, Note_off_c, 0, 56, 64
2, 91160, Note_on_c, 0, 64, 51
2, 91172, Note_on_c, 0, 52, 33
2, 91182, Control_c, 0, 64, 0
2, 91182, Control_c, 0, 64, 0
2, 91195, Control_c, 0, 64, 127
2, 91195, Control_c, 0, 64, 127
2, 91482, Note_on_c, 0, 56, 19
2, 91486, Note_on_c, 0, 47, 24
2, 91486, Note_on_c, 0, 40, 26
2, 91497, Note_on_c, 0, 62, 18
2, 91504, Control_c, 0, 64, 0
2, 91504, Control_c, 0, 64, 0
2, 91528, Control_c, 0, 64, 127
2, 91528, Control_c, 0, 64, 127
2, 91583, Note_off_c, 0, 40, 64
2, 91585, Note_off_c, 0, 56, 64
2, 91586, Note_off_c, 0, 62, 64
2, 91588, Note_off_c, 0, 47, 64
2, 91725, Note_on_c, 0, 40, 26
2, 91728, Note_on_c, 0, 47, 26
2, 91733, Note_on_c, 0, 56, 34
2, 91738, Note_on_c, 0, 62, 34
2, 91835, Note_off_c, 0, 40, 64
2, 91838, Note_off_c, 0, 62, 64
2, 91838, Note_off_c, 0, 56, 64
2, 91850, Note_off_c, 0, 47, 64
2, 91992, Note_on_c, 0, 47, 36
2, 91992, Note_on_c, 0, 62, 40
2, 91994, Note_on_c, 0, 56, 46
2, 92002, Note_on_c, 0, 40, 32
2, 92028, Control_c, 0, 64, 0
2, 92028, Control_c, 0, 64, 0
2, 92042, Control_c, 0, 64, 127
2, 92042, Control_c, 0, 64, 127
2, 92141, Note_off_c, 0, 56, 64
2, 92145, Note_off_c, 0, 40, 64
2, 92148, Note_off_c, 0, 62, 64
2, 92170, Note_off_c, 0, 47, 64
2, 92367, Note_on_c, 0, 62, 36
2, 92368, Note_on_c, 0, 56, 52
2, 92376, Note_on_c, 0, 47, 43
2, 92377, Note_on_c, 0, 40, 40
2, 92409, Control_c, 0, 64, 0
2, 92409, Control_c, 0, 64, 0
2, 92451, Control_c, 0, 64, 127
2, 92451, Control_c, 0, 64, 127
2, 92785, Note_off_c, 0, 62, 64
2, 92786, Note_off_c, 0, 56, 64
2, 92794, Note_off_c, 0, 47, 64
2, 92795, Note_off_c, 0, 40, 64
2, 92831, Note_on_c, 0, 65, 60
2, 92838, Note_on_c, 0, 62, 43
2, 92838, Note_on_c, 0, 56, 42
2, 92839, Note_off_c, 0, 64, 64
2, 92844, Note_on_c, 0, 28, 48
2, 92846, Control_c, 0, 64, 0
2, 92846, Control_c, 0, 64, 0
2, 92851, Note_off_c, 0, 52, 64
2, 92881, Control_c, 0, 64, 127
2, 92881, Control_c, 0, 64, 127
2, 93024, Note_on_c, 0, 66, 62
2, 93052, Note_off_c, 0, 65, 64
2, 93062, Note_off_c, 0, 56, 64
2, 93062, Note_off_c, 0, 62, 64
2, 93152, Note_on_c, 0, 67, 60
2, 93162, Note_off_c, 0, 66, 64
2, 93268, Note_on_c, 0, 68, 66
2, 93290, Note_off_c, 0, 67, 64
2, 93463, Note_on_c, 0, 77, 65
2, 93466, Note_on_c, 0, 62, 41
2, 93466, Note_on_c, 0, 52, 41
2, 93483, Note_off_c, 0, 68, 64
2, 93487, Control_c, 0, 64, 0
2, 93487, Control_c, 0, 64, 0
2, 93509, Control_c, 0, 64, 127
2, 93509, Control_c, 0, 64, 127
2, 93640, Note_off_c, 0, 52, 64
2, 93661, Note_off_c, 0, 62, 64
2, 93685, Note_off_c, 0, 28, 64
2, 93716, Note_on_c, 0, 68, 59
2, 93758, Note_off_c, 0, 77, 64
2, 93925, Note_on_c, 0, 71, 56
2, 93931, Note_on_c, 0, 45, 47
2, 93950, Note_off_c, 0, 68, 64
2, 93960, Control_c, 0, 64, 0
2, 93960, Control_c, 0, 64, 0
2, 94002, Control_c, 0, 64, 127
2, 94002, Control_c, 0, 64, 127
2, 94312, Note_on_c, 0, 69, 50
2, 94322, Note_off_c, 0, 71, 64
2, 94340, Note_off_c, 0, 69, 64
2, 94378, Note_on_c, 0, 69, 62
2, 94476, Note_on_c, 0, 52, 40
2, 94492, Note_on_c, 0, 60, 26
2, 94549, Note_on_c, 0, 81, 62
2, 94598, Note_off_c, 0, 69, 64
2, 94602, Control_c, 0, 64, 0
2, 94602, Control_c, 0, 64, 0
2, 94636, Control_c, 0, 64, 127
2, 94636, Control_c, 0, 64, 127
2, 94876, Note_off_c, 0, 45, 64
2, 94884, Note_off_c, 0, 52, 64
2, 94892, Note_off_c, 0, 81, 64
2, 94900, Note_off_c, 0, 60, 64
2, 95677, Control_c, 0, 64, 0
2, 95677, Control_c, 0, 64, 0
2, 96720, Control_c, 0, 64, 0
2, 96764, Control_c, 0, 64, 127
