0, 0, Header, 1, 7, 240
1, 0, Start_track
1, 0, Time_signature, 4, 2, 24, 8
1, 0, Tempo, 500000
1, 0, Marker_t, "Chopin: Mazurka, Op. 7 No. 2- Vivo  ma non troppo"
1, 0, End_track
2, 0, Start_track
2, 0, Title_t, "Chopin: Op. 7 No. 2"
2, 0, Program_c, 0, 0
2, 0, Control_c, 0, 7, 127
2, 328, Control_c, 0, 64, 127
2, 400, Control_c, 0, 64, 127
2, 542, Control_c, 0, 64, 0
2, 614, Control_c, 0, 64, 0
2, 681, Control_c, 0, 64, 127
2, 717, Note_on_c, 0, 76, 50
2, 753, Control_c, 0, 64, 127
2, 816, Control_c, 0, 64, 0
2, 888, Control_c, 0, 64, 0
2, 892, Control_c, 0, 64, 127
2, 911, Note_on_c, 0, 77, 59
2, 925, Note_off_c, 0, 76, 64
2, 964, Control_c, 0, 64, 127
2, 1033, Control_c, 0, 64, 0
2, 1049, Note_on_c, 0, 76, 55
2, 1067, Note_off_c, 0, 77, 64
2, 1094, Note_on_c, 0, 57, 29
2, 1100, Note_on_c, 0, 65, 33
2, 1101, Note_on_c, 0, 62, 35
2, 1104, Control_c, 0, 64, 127
2, 1105, Control_c, 0, 64, 0
2, 1110, Note_on_c, 0, 74, 59
2, 1125, Note_off_c, 0, 76, 64
2, 1176, Control_c, 0, 64, 127
2, 1238, Control_c, 0, 64, 0
2, 1272, Note_off_c, 0, 74, 64
2, 1272, Note_off_c, 0, 62, 64
2, 1272, Note_off_c, 0, 65, 64
2, 1272, Note_off_c, 0, 57, 64
2, 1294, Control_c, 0, 64, 127
2, 1344, Note_on_c, 0, 77, 58
2, 1344, Note_on_c, 0, 62, 28
2, 1344, Note_on_c, 0, 57, 37
2, 1360, Note_on_c, 0, 65, 31
2, 1430, Control_c, 0, 64, 0
2, 1486, Control_c, 0, 64, 127
2, 1527, Note_off_c, 0, 57, 64
2, 1528, Note_off_c, 0, 62, 64
2, 1545, Note_off_c, 0, 65, 64
2, 1558, Note_off_c, 0, 77, 64
2, 1606, Note_on_c, 0, 77, 57
2, 1631, Control_c, 0, 64, 0
2, 1686, Control_c, 0, 64, 127
2, 1792, Note_on_c, 0, 57, 29
2, 1797, Note_on_c, 0, 60, 28
2, 1805, Note_on_c, 0, 65, 37
2, 1823, Control_c, 0, 64, 0
2, 1878, Control_c, 0, 64, 127
2, 1883, Control_c, 0, 64, 0
2, 1940, Control_c, 0, 64, 127
2, 1977, Note_off_c, 0, 57, 64
2, 1982, Note_off_c, 0, 60, 64
2, 1990, Note_off_c, 0, 65, 64
2, 2045, Note_on_c, 0, 76, 44
2, 2051, Note_on_c, 0, 60, 24
2, 2059, Note_on_c, 0, 57, 22
2, 2061, Note_on_c, 0, 64, 27
2, 2064, Note_off_c, 0, 77, 64
2, 2075, Control_c, 0, 64, 0
2, 2132, Control_c, 0, 64, 127
2, 2208, Note_off_c, 0, 76, 64
2, 2218, Note_off_c, 0, 64, 64
2, 2222, Note_off_c, 0, 60, 64
2, 2230, Control_c, 0, 64, 0
2, 2232, Note_off_c, 0, 57, 64
2, 2245, Note_on_c, 0, 74, 44
2, 2283, Control_c, 0, 64, 127
2, 2284, Note_off_c, 0, 74, 64
2, 2292, Note_on_c, 0, 76, 45
2, 2324, Note_on_c, 0, 74, 46
2, 2332, Note_off_c, 0, 76, 64
2, 2376, Note_on_c, 0, 73, 47
2, 2382, Note_off_c, 0, 74, 64
2, 2422, Control_c, 0, 64, 0
2, 2426, Control_c, 0, 64, 0
2, 2429, Note_on_c, 0, 62, 45
2, 2433, Note_on_c, 0, 56, 32
2, 2434, Note_on_c, 0, 52, 44
2, 2442, Note_off_c, 0, 73, 64
2, 2442, Note_on_c, 0, 74, 49
2, 2460, Control_c, 0, 64, 127
2, 2475, Control_c, 0, 64, 127
2, 2520, Note_on_c, 0, 75, 52
2, 2556, Note_off_c, 0, 74, 64
2, 2570, Control_c, 0, 64, 0
2, 2589, Note_off_c, 0, 62, 64
2, 2593, Note_off_c, 0, 56, 64
2, 2594, Note_off_c, 0, 52, 64
2, 2604, Note_on_c, 0, 62, 42
2, 2604, Note_on_c, 0, 56, 28
2, 2609, Note_on_c, 0, 76, 55
2, 2609, Note_on_c, 0, 52, 40
2, 2617, Note_off_c, 0, 75, 64
2, 2618, Control_c, 0, 64, 127
2, 2618, Control_c, 0, 64, 0
2, 2652, Control_c, 0, 64, 127
2, 2686, Note_on_c, 0, 71, 56
2, 2703, Note_off_c, 0, 76, 64
2, 2755, Note_off_c, 0, 56, 64
2, 2757, Note_off_c, 0, 62, 64
2, 2762, Control_c, 0, 64, 0
2, 2768, Note_off_c, 0, 52, 64
2, 2777, Note_on_c, 0, 74, 63
2, 2798, Note_off_c, 0, 71, 64
2, 2810, Control_c, 0, 64, 127
2, 2983, Note_on_c, 0, 45, 44
2, 3055, Control_c, 0, 64, 0
2, 3098, Control_c, 0, 64, 127
2, 3223, Note_on_c, 0, 72, 53
2, 3223, Note_on_c, 0, 52, 33
2, 3227, Note_on_c, 0, 60, 33
2, 3243, Note_off_c, 0, 74, 64
2, 3247, Control_c, 0, 64, 0
2, 3290, Control_c, 0, 64, 127
2, 3344, Note_off_c, 0, 45, 64
2, 3450, Note_off_c, 0, 72, 64
2, 3457, Control_c, 0, 64, 0
2, 3467, Note_off_c, 0, 52, 64
2, 3472, Note_on_c, 0, 69, 52
2, 3476, Note_off_c, 0, 60, 64
2, 3486, Control_c, 0, 64, 127
2, 3542, Note_on_c, 0, 71, 36
2, 3548, Note_off_c, 0, 69, 64
2, 3585, Note_on_c, 0, 69, 58
2, 3597, Note_off_c, 0, 71, 64
2, 3624, Control_c, 0, 64, 0
2, 3627, Note_on_c, 0, 52, 46
2, 3633, Note_on_c, 0, 60, 40
2, 3636, Note_on_c, 0, 68, 72
2, 3642, Note_off_c, 0, 69, 64
2, 3649, Control_c, 0, 64, 0
2, 3666, Control_c, 0, 64, 127
2, 3678, Control_c, 0, 64, 127
2, 3806, Note_on_c, 0, 69, 65
2, 3810, Note_on_c, 0, 45, 49
2, 3816, Control_c, 0, 64, 0
2, 3820, Note_off_c, 0, 68, 64
2, 3856, Note_off_c, 0, 52, 64
2, 3858, Control_c, 0, 64, 127
2, 3866, Note_off_c, 0, 60, 64
2, 3935, Note_off_c, 0, 45, 64
2, 3970, Control_c, 0, 64, 0
2, 3970, Note_on_c, 0, 71, 79
2, 3994, Note_off_c, 0, 69, 64
2, 4044, Control_c, 0, 64, 127
2, 4132, Note_on_c, 0, 76, 75
2, 4138, Note_on_c, 0, 55, 26
2, 4140, Note_on_c, 0, 52, 26
2, 4144, Note_off_c, 0, 71, 64
2, 4144, Note_on_c, 0, 59, 24
2, 4162, Control_c, 0, 64, 0
2, 4236, Control_c, 0, 64, 127
2, 4323, Note_off_c, 0, 76, 64
2, 4328, Note_on_c, 0, 47, 24
2, 4338, Control_c, 0, 64, 0
2, 4371, Control_c, 0, 64, 127
2, 4471, Note_off_c, 0, 47, 64
2, 4484, Note_off_c, 0, 55, 64
2, 4486, Note_off_c, 0, 52, 64
2, 4488, Note_off_c, 0, 59, 64
2, 4529, Control_c, 0, 64, 0
2, 4530, Control_c, 0, 64, 0
2, 4535, Note_on_c, 0, 71, 70
2, 4562, Control_c, 0, 64, 127
2, 4563, Control_c, 0, 64, 127
2, 4615, Note_on_c, 0, 67, 74
2, 4638, Note_off_c, 0, 71, 64
2, 4708, Note_on_c, 0, 47, 61
2, 4709, Note_off_c, 0, 67, 64
2, 4709, Note_on_c, 0, 64, 78
2, 4709, Note_on_c, 0, 59, 58
2, 4713, Control_c, 0, 64, 0
2, 4715, Note_on_c, 0, 55, 58
2, 4721, Control_c, 0, 64, 0
2, 4754, Control_c, 0, 64, 127
2, 4777, Control_c, 0, 64, 127
2, 4790, Note_on_c, 0, 71, 72
2, 4810, Note_off_c, 0, 64, 64
2, 4873, Note_off_c, 0, 47, 64
2, 4874, Note_off_c, 0, 59, 64
2, 4880, Note_off_c, 0, 55, 64
2, 4883, Note_on_c, 0, 54, 62
2, 4885, Note_on_c, 0, 59, 66
2, 4889, Note_on_c, 0, 63, 81
2, 4889, Note_on_c, 0, 47, 62
2, 4896, Note_off_c, 0, 71, 64
2, 4905, Control_c, 0, 64, 0
2, 4946, Control_c, 0, 64, 0
2, 4969, Control_c, 0, 64, 127
2, 5013, Control_c, 0, 64, 127
2, 5048, Note_off_c, 0, 54, 64
2, 5050, Note_off_c, 0, 59, 64
2, 5054, Note_off_c, 0, 47, 64
2, 5122, Note_on_c, 0, 64, 70
2, 5128, Note_off_c, 0, 63, 64
2, 5130, Note_on_c, 0, 59, 57
2, 5130, Note_on_c, 0, 52, 62
2, 5131, Note_on_c, 0, 55, 61
2, 5138, Control_c, 0, 64, 0
2, 5205, Control_c, 0, 64, 127
2, 5262, Control_c, 0, 64, 0
2, 5295, Note_off_c, 0, 52, 64
2, 5295, Note_off_c, 0, 59, 64
2, 5296, Note_off_c, 0, 55, 64
2, 5306, Control_c, 0, 64, 127
2, 5436, Note_on_c, 0, 40, 68
2, 5454, Control_c, 0, 64, 0
2, 5498, Control_c, 0, 64, 127
2, 5546, Note_off_c, 0, 64, 64
2, 5718, Control_c, 0, 64, 0
2, 5721, Note_off_c, 0, 40, 64
2, 5727, Note_on_c, 0, 76, 53
2, 5782, Control_c, 0, 64, 127
2, 5898, Note_on_c, 0, 77, 55
2, 5908, Control_c, 0, 64, 0
2, 5910, Control_c, 0, 64, 0
2, 5917, Note_off_c, 0, 76, 64
2, 5941, Control_c, 0, 64, 127
2, 5974, Control_c, 0, 64, 127
2, 6028, Note_on_c, 0, 76, 48
2, 6034, Note_off_c, 0, 77, 64
2, 6063, Control_c, 0, 64, 0
2, 6064, Note_on_c, 0, 65, 33
2, 6064, Note_on_c, 0, 62, 36
2, 6064, Note_on_c, 0, 57, 47
2, 6072, Note_on_c, 0, 74, 52
2, 6093, Note_off_c, 0, 76, 64
2, 6100, Control_c, 0, 64, 0
2, 6115, Control_c, 0, 64, 127
2, 6133, Control_c, 0, 64, 127
2, 6238, Control_c, 0, 64, 0
2, 6247, Note_on_c, 0, 77, 59
2, 6249, Note_off_c, 0, 57, 64
2, 6249, Note_off_c, 0, 62, 64
2, 6249, Note_off_c, 0, 65, 64
2, 6255, Control_c, 0, 64, 0
2, 6261, Note_off_c, 0, 74, 64
2, 6264, Note_on_c, 0, 65, 37
2, 6264, Note_on_c, 0, 62, 29
2, 6264, Note_on_c, 0, 57, 43
2, 6282, Control_c, 0, 64, 127
2, 6307, Control_c, 0, 64, 127
2, 6326, Note_off_c, 0, 77, 64
2, 6414, Note_off_c, 0, 62, 64
2, 6415, Note_off_c, 0, 57, 64
2, 6421, Note_off_c, 0, 65, 64
2, 6422, Control_c, 0, 64, 0
2, 6427, Note_on_c, 0, 77, 67
2, 6430, Control_c, 0, 64, 0
2, 6446, Control_c, 0, 64, 127
2, 6474, Control_c, 0, 64, 127
2, 6592, Note_on_c, 0, 57, 31
2, 6596, Note_on_c, 0, 60, 36
2, 6607, Note_on_c, 0, 65, 32
2, 6614, Control_c, 0, 64, 0
2, 6624, Control_c, 0, 64, 0
2, 6638, Control_c, 0, 64, 127
2, 6668, Control_c, 0, 64, 127
2, 6777, Note_off_c, 0, 57, 64
2, 6781, Note_off_c, 0, 60, 64
2, 6786, Note_on_c, 0, 76, 52
2, 6787, Note_on_c, 0, 57, 36
2, 6792, Note_off_c, 0, 65, 64
2, 6792, Note_on_c, 0, 60, 29
2, 6798, Note_on_c, 0, 64, 26
2, 6814, Note_off_c, 0, 77, 64
2, 6816, Control_c, 0, 64, 0
2, 6860, Control_c, 0, 64, 127
2, 6908, Note_off_c, 0, 76, 64
2, 6942, Note_off_c, 0, 60, 64
2, 6945, Note_off_c, 0, 64, 64
2, 6948, Note_off_c, 0, 57, 64
2, 6949, Control_c, 0, 64, 0
2, 6975, Note_on_c, 0, 74, 53
2, 7002, Control_c, 0, 64, 127
2, 7011, Note_on_c, 0, 76, 41
2, 7018, Note_off_c, 0, 74, 64
2, 7048, Note_on_c, 0, 74, 59
2, 7059, Note_off_c, 0, 76, 64
2, 7102, Note_off_c, 0, 74, 64
2, 7102, Note_on_c, 0, 73, 67
2, 7106, Control_c, 0, 64, 0
2, 7120, Note_on_c, 0, 52, 40
2, 7128, Note_on_c, 0, 62, 40
2, 7128, Note_on_c, 0, 56, 32
2, 7141, Control_c, 0, 64, 0
2, 7149, Control_c, 0, 64, 127
2, 7165, Note_on_c, 0, 74, 62
2, 7178, Note_off_c, 0, 73, 64
2, 7194, Control_c, 0, 64, 127
2, 7231, Note_on_c, 0, 75, 55
2, 7268, Note_off_c, 0, 74, 64
2, 7285, Note_off_c, 0, 52, 64
2, 7293, Note_off_c, 0, 56, 64
2, 7293, Note_off_c, 0, 62, 64
2, 7298, Control_c, 0, 64, 0
2, 7304, Control_c, 0, 64, 0
2, 7306, Note_on_c, 0, 56, 23
2, 7307, Note_on_c, 0, 62, 31
2, 7311, Note_on_c, 0, 76, 59
2, 7314, Note_on_c, 0, 52, 32
2, 7321, Note_off_c, 0, 75, 64
2, 7341, Control_c, 0, 64, 127
2, 7354, Control_c, 0, 64, 127
2, 7376, Note_on_c, 0, 71, 62
2, 7395, Note_off_c, 0, 76, 64
2, 7429, Note_off_c, 0, 71, 64
2, 7461, Note_on_c, 0, 71, 59
2, 7474, Note_off_c, 0, 52, 64
2, 7488, Note_off_c, 0, 56, 64
2, 7496, Control_c, 0, 64, 0
2, 7505, Note_off_c, 0, 62, 64
2, 7517, Note_on_c, 0, 74, 62
2, 7524, Note_off_c, 0, 71, 64
2, 7546, Control_c, 0, 64, 127
2, 7620, Control_c, 0, 64, 0
2, 7666, Control_c, 0, 64, 127
2, 7808, Note_on_c, 0, 57, 31
2, 7812, Note_on_c, 0, 53, 31
2, 7812, Control_c, 0, 64, 0
2, 7816, Note_on_c, 0, 62, 32
2, 7858, Control_c, 0, 64, 127
2, 7946, Control_c, 0, 64, 0
2, 7998, Note_off_c, 0, 57, 64
2, 7999, Control_c, 0, 64, 127
2, 8002, Note_off_c, 0, 53, 64
2, 8006, Note_off_c, 0, 62, 64
2, 8067, Note_on_c, 0, 72, 46
2, 8090, Note_on_c, 0, 57, 29
2, 8100, Note_off_c, 0, 74, 64
2, 8100, Note_on_c, 0, 53, 24
2, 8101, Note_on_c, 0, 60, 32
2, 8138, Control_c, 0, 64, 0
2, 8191, Control_c, 0, 64, 127
2, 8284, Note_off_c, 0, 53, 64
2, 8310, Note_off_c, 0, 57, 64
2, 8315, Note_off_c, 0, 72, 64
2, 8317, Note_on_c, 0, 69, 59
2, 8327, Note_off_c, 0, 60, 64
2, 8366, Control_c, 0, 64, 0
2, 8402, Note_on_c, 0, 70, 75
2, 8413, Control_c, 0, 64, 127
2, 8425, Note_off_c, 0, 69, 64
2, 8469, Note_on_c, 0, 69, 61
2, 8484, Note_off_c, 0, 70, 64
2, 8537, Note_on_c, 0, 63, 40
2, 8541, Note_on_c, 0, 67, 70
2, 8541, Note_on_c, 0, 53, 40
2, 8548, Note_off_c, 0, 69, 64
2, 8548, Note_on_c, 0, 60, 36
2, 8558, Control_c, 0, 64, 0
2, 8605, Control_c, 0, 64, 127
2, 8611, Control_c, 0, 64, 0
2, 8652, Control_c, 0, 64, 127
2, 8727, Note_off_c, 0, 63, 64
2, 8731, Note_off_c, 0, 53, 64
2, 8738, Note_off_c, 0, 60, 64
2, 8768, Note_on_c, 0, 69, 65
2, 8783, Note_on_c, 0, 63, 37
2, 8789, Note_on_c, 0, 60, 50
2, 8794, Note_off_c, 0, 67, 64
2, 8794, Note_on_c, 0, 53, 36
2, 8803, Control_c, 0, 64, 0
2, 8844, Control_c, 0, 64, 127
2, 8936, Control_c, 0, 64, 0
2, 8973, Note_off_c, 0, 63, 64
2, 8979, Note_off_c, 0, 60, 64
2, 8984, Note_off_c, 0, 53, 64
2, 8998, Control_c, 0, 64, 127
2, 9075, Note_on_c, 0, 70, 66
2, 9078, Note_on_c, 0, 58, 35
2, 9079, Note_on_c, 0, 62, 41
2, 9086, Note_off_c, 0, 69, 64
2, 9128, Control_c, 0, 64, 0
2, 9190, Control_c, 0, 64, 127
2, 9305, Control_c, 0, 64, 0
2, 9406, Control_c, 0, 64, 127
2, 9464, Note_on_c, 0, 74, 41
2, 9472, Note_on_c, 0, 65, 28
2, 9480, Note_off_c, 0, 70, 64
2, 9484, Note_off_c, 0, 62, 64
2, 9497, Control_c, 0, 64, 0
2, 9598, Control_c, 0, 64, 127
2, 9766, Note_off_c, 0, 58, 64
2, 9904, Note_off_c, 0, 65, 64
2, 9936, Note_off_c, 0, 74, 64
2, 10108, Control_c, 0, 64, 0
2, 10201, Note_on_c, 0, 69, 55
2, 10273, Control_c, 0, 64, 127
2, 10300, Control_c, 0, 64, 0
2, 10344, Note_on_c, 0, 68, 66
2, 10356, Note_off_c, 0, 69, 64
2, 10403, Note_on_c, 0, 64, 44
2, 10411, Note_on_c, 0, 62, 57
2, 10418, Note_off_c, 0, 68, 64
2, 10418, Note_on_c, 0, 59, 45
2, 10418, Note_on_c, 0, 52, 40
2, 10422, Control_c, 0, 64, 0
2, 10456, Control_c, 0, 64, 127
2, 10465, Control_c, 0, 64, 127
2, 10571, Note_off_c, 0, 62, 64
2, 10578, Note_off_c, 0, 52, 64
2, 10578, Note_off_c, 0, 59, 64
2, 10594, Note_on_c, 0, 52, 48
2, 10599, Note_on_c, 0, 68, 66
2, 10602, Note_on_c, 0, 62, 54
2, 10607, Note_on_c, 0, 59, 36
2, 10609, Note_off_c, 0, 64, 64
2, 10614, Control_c, 0, 64, 0
2, 10633, Control_c, 0, 64, 0
2, 10648, Control_c, 0, 64, 127
2, 10677, Control_c, 0, 64, 127
2, 10754, Note_off_c, 0, 52, 64
2, 10762, Note_off_c, 0, 62, 64
2, 10767, Note_off_c, 0, 59, 64
2, 10804, Note_on_c, 0, 69, 67
2, 10805, Note_on_c, 0, 60, 65
2, 10812, Note_on_c, 0, 45, 36
2, 10813, Note_off_c, 0, 68, 64
2, 10818, Note_on_c, 0, 52, 33
2, 10825, Control_c, 0, 64, 0
2, 10869, Control_c, 0, 64, 127
2, 10931, Control_c, 0, 64, 0
2, 10975, Control_c, 0, 64, 127
2, 11022, Note_off_c, 0, 52, 64
2, 11070, Note_off_c, 0, 45, 64
2, 11102, Note_on_c, 0, 33, 44
2, 11123, Control_c, 0, 64, 0
2, 11160, Note_off_c, 0, 60, 64
2, 11167, Control_c, 0, 64, 127
2, 11182, Control_c, 0, 64, 0
2, 11206, Note_off_c, 0, 69, 64
2, 11238, Control_c, 0, 64, 127
2, 11367, Note_on_c, 0, 76, 45
2, 11374, Control_c, 0, 64, 0
2, 11383, Note_off_c, 0, 33, 64
2, 11430, Control_c, 0, 64, 127
2, 11522, Control_c, 0, 64, 0
2, 11544, Note_on_c, 0, 77, 44
2, 11559, Note_off_c, 0, 76, 64
2, 11581, Control_c, 0, 64, 127
2, 11668, Note_on_c, 0, 76, 36
2, 11672, Note_off_c, 0, 77, 64
2, 11703, Control_c, 0, 64, 0
2, 11704, Note_on_c, 0, 57, 39
2, 11711, Note_on_c, 0, 62, 32
2, 11714, Control_c, 0, 64, 0
2, 11720, Note_on_c, 0, 65, 26
2, 11724, Note_on_c, 0, 74, 41
2, 11734, Note_off_c, 0, 76, 64
2, 11754, Control_c, 0, 64, 127
2, 11773, Control_c, 0, 64, 127
2, 11864, Note_off_c, 0, 57, 64
2, 11871, Note_off_c, 0, 62, 64
2, 11880, Note_off_c, 0, 65, 64
2, 11886, Note_on_c, 0, 77, 45
2, 11895, Note_on_c, 0, 62, 28
2, 11895, Control_c, 0, 64, 0
2, 11902, Note_on_c, 0, 57, 27
2, 11903, Note_on_c, 0, 65, 24
2, 11916, Note_off_c, 0, 74, 64
2, 11946, Control_c, 0, 64, 127
2, 11969, Note_off_c, 0, 77, 64
2, 12043, Control_c, 0, 64, 0
2, 12052, Note_off_c, 0, 57, 64
2, 12061, Note_off_c, 0, 62, 64
2, 12067, Note_off_c, 0, 65, 64
2, 12067, Note_on_c, 0, 77, 49
2, 12087, Control_c, 0, 64, 127
2, 12226, Note_on_c, 0, 60, 35
2, 12231, Note_on_c, 0, 57, 24
2, 12235, Control_c, 0, 64, 0
2, 12240, Note_on_c, 0, 65, 28
2, 12246, Control_c, 0, 64, 0
2, 12277, Control_c, 0, 64, 127
2, 12279, Control_c, 0, 64, 127
2, 12386, Note_off_c, 0, 60, 64
2, 12391, Note_off_c, 0, 57, 64
2, 12399, Control_c, 0, 64, 0
2, 12400, Note_off_c, 0, 65, 64
2, 12416, Note_on_c, 0, 60, 26
2, 12418, Note_on_c, 0, 57, 31
2, 12420, Note_on_c, 0, 76, 36
2, 12420, Note_on_c, 0, 64, 26
2, 12434, Control_c, 0, 64, 127
2, 12437, Note_off_c, 0, 77, 64
2, 12438, Control_c, 0, 64, 0
2, 12469, Control_c, 0, 64, 127
2, 12537, Note_off_c, 0, 76, 64
2, 12563, Control_c, 0, 64, 0
2, 12564, Note_on_c, 0, 74, 36
2, 12578, Note_off_c, 0, 60, 64
2, 12580, Note_off_c, 0, 64, 64
2, 12588, Note_off_c, 0, 57, 64
2, 12591, Control_c, 0, 64, 0
2, 12596, Control_c, 0, 64, 127
2, 12601, Note_on_c, 0, 76, 37
2, 12623, Note_off_c, 0, 74, 64
2, 12626, Control_c, 0, 64, 127
2, 12643, Note_on_c, 0, 74, 44
2, 12649, Note_off_c, 0, 76, 64
2, 12693, Note_on_c, 0, 73, 52
2, 12701, Note_off_c, 0, 74, 64
2, 12717, Control_c, 0, 64, 0
2, 12741, Note_on_c, 0, 56, 40
2, 12745, Note_on_c, 0, 62, 31
2, 12751, Note_on_c, 0, 52, 23
2, 12755, Control_c, 0, 64, 0
2, 12765, Note_on_c, 0, 74, 49
2, 12780, Control_c, 0, 64, 127
2, 12783, Note_off_c, 0, 73, 64
2, 12788, Control_c, 0, 64, 127
2, 12826, Note_on_c, 0, 75, 42
2, 12846, Note_off_c, 0, 74, 64
2, 12861, Control_c, 0, 64, 0
2, 12901, Note_off_c, 0, 56, 64
2, 12905, Note_off_c, 0, 62, 64
2, 12906, Control_c, 0, 64, 127
2, 12908, Note_on_c, 0, 56, 29
2, 12909, Note_on_c, 0, 76, 44
2, 12909, Control_c, 0, 64, 0
2, 12911, Note_off_c, 0, 52, 64
2, 12917, Note_on_c, 0, 62, 36
2, 12917, Note_on_c, 0, 52, 36
2, 12919, Note_off_c, 0, 75, 64
2, 12972, Control_c, 0, 64, 127
2, 12980, Note_on_c, 0, 71, 41
2, 12998, Note_off_c, 0, 76, 64
2, 13034, Note_off_c, 0, 62, 64
2, 13042, Note_off_c, 0, 56, 64
2, 13051, Note_off_c, 0, 52, 64
2, 13053, Control_c, 0, 64, 0
2, 13064, Note_on_c, 0, 74, 46
2, 13068, Control_c, 0, 64, 0
2, 13090, Note_off_c, 0, 71, 64
2, 13098, Control_c, 0, 64, 127
2, 13109, Control_c, 0, 64, 127
2, 13226, Note_on_c, 0, 45, 36
2, 13260, Control_c, 0, 64, 0
2, 13261, Control_c, 0, 64, 0
2, 13301, Control_c, 0, 64, 127
2, 13305, Control_c, 0, 64, 127
2, 13425, Note_on_c, 0, 72, 41
2, 13435, Note_on_c, 0, 52, 24
2, 13443, Note_on_c, 0, 60, 19
2, 13453, Control_c, 0, 64, 0
2, 13458, Note_off_c, 0, 74, 64
2, 13497, Control_c, 0, 64, 127
2, 13511, Note_off_c, 0, 45, 64
2, 13585, Control_c, 0, 64, 0
2, 13623, Note_off_c, 0, 72, 64
2, 13623, Note_on_c, 0, 69, 45
2, 13632, Control_c, 0, 64, 127
2, 13656, Note_off_c, 0, 52, 64
2, 13671, Note_off_c, 0, 60, 64
2, 13678, Note_on_c, 0, 71, 39
2, 13685, Note_off_c, 0, 69, 64
2, 13733, Note_off_c, 0, 71, 64
2, 13733, Note_on_c, 0, 69, 46
2, 13767, Control_c, 0, 64, 0
2, 13776, Note_on_c, 0, 60, 32
2, 13776, Note_on_c, 0, 52, 32
2, 13777, Control_c, 0, 64, 0
2, 13784, Note_on_c, 0, 68, 48
2, 13809, Note_off_c, 0, 69, 64
2, 13819, Control_c, 0, 64, 127
2, 13824, Control_c, 0, 64, 127
2, 13947, Note_on_c, 0, 69, 48
2, 13955, Note_on_c, 0, 45, 27
2, 13959, Control_c, 0, 64, 0
2, 13963, Note_off_c, 0, 68, 64
2, 14011, Control_c, 0, 64, 127
2, 14016, Note_off_c, 0, 52, 64
2, 14016, Note_off_c, 0, 60, 64
2, 14109, Note_on_c, 0, 71, 52
2, 14115, Note_off_c, 0, 45, 64
2, 14123, Control_c, 0, 64, 0
2, 14129, Note_off_c, 0, 69, 64
2, 14179, Control_c, 0, 64, 127
2, 14297, Note_on_c, 0, 76, 57
2, 14300, Note_on_c, 0, 59, 27
2, 14306, Note_on_c, 0, 55, 33
2, 14306, Note_on_c, 0, 52, 33
2, 14309, Note_off_c, 0, 71, 64
2, 14315, Control_c, 0, 64, 0
2, 14333, Control_c, 0, 64, 0
2, 14370, Control_c, 0, 64, 127
2, 14371, Control_c, 0, 64, 127
2, 14520, Note_off_c, 0, 52, 64
2, 14525, Control_c, 0, 64, 0
2, 14531, Note_on_c, 0, 47, 39
2, 14562, Control_c, 0, 64, 127
2, 14577, Note_off_c, 0, 76, 64
2, 14701, Control_c, 0, 64, 0
2, 14704, Note_off_c, 0, 47, 64
2, 14711, Note_off_c, 0, 55, 64
2, 14722, Note_off_c, 0, 59, 64
2, 14755, Control_c, 0, 64, 127
2, 14767, Note_on_c, 0, 71, 62
2, 14833, Note_on_c, 0, 67, 52
2, 14858, Note_off_c, 0, 71, 64
2, 14893, Control_c, 0, 64, 0
2, 14897, Control_c, 0, 64, 0
2, 14903, Note_on_c, 0, 64, 62
2, 14910, Note_on_c, 0, 59, 52
2, 14910, Note_on_c, 0, 47, 49
2, 14911, Note_on_c, 0, 55, 52
2, 14918, Note_off_c, 0, 67, 64
2, 14947, Control_c, 0, 64, 127
2, 14951, Control_c, 0, 64, 127
2, 14986, Note_on_c, 0, 71, 58
2, 15010, Note_off_c, 0, 64, 64
2, 15013, Note_off_c, 0, 55, 64
2, 15013, Note_off_c, 0, 47, 64
2, 15015, Note_off_c, 0, 59, 64
2, 15065, Note_on_c, 0, 63, 62
2, 15068, Note_on_c, 0, 59, 54
2, 15068, Note_on_c, 0, 54, 54
2, 15075, Note_on_c, 0, 47, 49
2, 15085, Note_off_c, 0, 71, 64
2, 15089, Control_c, 0, 64, 0
2, 15102, Control_c, 0, 64, 0
2, 15143, Control_c, 0, 64, 127
2, 15164, Control_c, 0, 64, 127
2, 15198, Note_off_c, 0, 47, 64
2, 15215, Note_off_c, 0, 54, 64
2, 15239, Note_off_c, 0, 59, 64
2, 15292, Note_on_c, 0, 64, 54
2, 15294, Control_c, 0, 64, 0
2, 15300, Note_on_c, 0, 59, 46
2, 15300, Note_on_c, 0, 52, 50
2, 15301, Note_on_c, 0, 55, 49
2, 15304, Note_off_c, 0, 63, 64
2, 15356, Control_c, 0, 64, 127
2, 15406, Control_c, 0, 64, 0
2, 15450, Control_c, 0, 64, 127
2, 15543, Note_off_c, 0, 59, 64
2, 15559, Note_off_c, 0, 55, 64
2, 15583, Note_off_c, 0, 52, 64
2, 15583, Note_on_c, 0, 40, 55
2, 15598, Control_c, 0, 64, 0
2, 15642, Control_c, 0, 64, 127
2, 15666, Control_c, 0, 64, 0
2, 15713, Control_c, 0, 64, 127
2, 15725, Note_off_c, 0, 64, 64
2, 15806, Control_c, 0, 64, 0
2, 15826, Note_on_c, 0, 76, 41
2, 15843, Control_c, 0, 64, 127
2, 15858, Control_c, 0, 64, 0
2, 15868, Note_off_c, 0, 40, 64
2, 15905, Control_c, 0, 64, 127
2, 15982, Control_c, 0, 64, 0
2, 15998, Control_c, 0, 64, 0
2, 16003, Note_on_c, 0, 77, 41
2, 16022, Note_off_c, 0, 76, 64
2, 16024, Control_c, 0, 64, 127
2, 16035, Control_c, 0, 64, 127
2, 16121, Note_on_c, 0, 76, 36
2, 16141, Note_off_c, 0, 77, 64
2, 16144, Control_c, 0, 64, 0
2, 16151, Note_on_c, 0, 57, 29
2, 16158, Note_on_c, 0, 65, 26
2, 16164, Note_on_c, 0, 62, 23
2, 16166, Note_on_c, 0, 74, 32
2, 16174, Control_c, 0, 64, 0
2, 16186, Note_off_c, 0, 76, 64
2, 16188, Control_c, 0, 64, 127
2, 16216, Control_c, 0, 64, 127
2, 16321, Note_off_c, 0, 57, 64
2, 16328, Note_off_c, 0, 65, 64
2, 16330, Note_on_c, 0, 77, 41
2, 16334, Note_off_c, 0, 62, 64
2, 16336, Control_c, 0, 64, 0
2, 16341, Note_on_c, 0, 65, 23
2, 16341, Note_on_c, 0, 62, 24
2, 16342, Note_on_c, 0, 57, 24
2, 16354, Note_off_c, 0, 74, 64
2, 16380, Control_c, 0, 64, 127
2, 16409, Note_off_c, 0, 77, 64
2, 16478, Control_c, 0, 64, 0
2, 16500, Note_on_c, 0, 77, 45
2, 16511, Note_off_c, 0, 57, 64
2, 16512, Control_c, 0, 64, 127
2, 16515, Note_off_c, 0, 65, 64
2, 16519, Note_off_c, 0, 62, 64
2, 16637, Control_c, 0, 64, 0
2, 16650, Note_on_c, 0, 60, 28
2, 16652, Note_on_c, 0, 57, 27
2, 16656, Note_on_c, 0, 65, 26
2, 16670, Control_c, 0, 64, 0
2, 16691, Control_c, 0, 64, 127
2, 16704, Control_c, 0, 64, 127
2, 16806, Control_c, 0, 64, 0
2, 16820, Note_off_c, 0, 60, 64
2, 16822, Note_off_c, 0, 57, 64
2, 16826, Note_off_c, 0, 65, 64
2, 16829, Control_c, 0, 64, 0
2, 16837, Note_on_c, 0, 64, 29
2, 16837, Note_on_c, 0, 60, 28
2, 16837, Note_on_c, 0, 57, 28
2, 16842, Note_on_c, 0, 76, 45
2, 16847, Control_c, 0, 64, 127
2, 16860, Note_off_c, 0, 77, 64
2, 16883, Control_c, 0, 64, 127
2, 16946, Note_off_c, 0, 76, 64
2, 16980, Control_c, 0, 64, 0
2, 16990, Note_on_c, 0, 74, 31
2, 16998, Control_c, 0, 64, 0
2, 17007, Note_off_c, 0, 57, 64
2, 17007, Note_off_c, 0, 60, 64
2, 17007, Note_off_c, 0, 64, 64
2, 17011, Control_c, 0, 64, 127
2, 17025, Note_on_c, 0, 76, 40
2, 17039, Control_c, 0, 64, 127
2, 17045, Note_off_c, 0, 74, 64
2, 17062, Note_on_c, 0, 74, 41
2, 17071, Note_off_c, 0, 76, 64
2, 17108, Note_on_c, 0, 73, 46
2, 17117, Note_off_c, 0, 74, 64
2, 17138, Control_c, 0, 64, 0
2, 17161, Note_on_c, 0, 56, 24
2, 17161, Note_on_c, 0, 52, 26
2, 17165, Control_c, 0, 64, 127
2, 17167, Note_on_c, 0, 74, 42
2, 17167, Note_on_c, 0, 62, 28
2, 17172, Control_c, 0, 64, 0
2, 17193, Note_off_c, 0, 73, 64
2, 17203, Control_c, 0, 64, 127
2, 17236, Note_on_c, 0, 75, 41
2, 17258, Note_off_c, 0, 74, 64
2, 17299, Control_c, 0, 64, 0
2, 17311, Note_off_c, 0, 52, 64
2, 17311, Note_off_c, 0, 56, 64
2, 17317, Note_off_c, 0, 62, 64
2, 17323, Note_on_c, 0, 76, 40
2, 17323, Note_on_c, 0, 62, 26
2, 17328, Note_on_c, 0, 56, 20
2, 17330, Control_c, 0, 64, 0
2, 17337, Note_off_c, 0, 75, 64
2, 17337, Note_on_c, 0, 52, 24
2, 17347, Control_c, 0, 64, 127
2, 17357, Control_c, 0, 64, 127
2, 17376, Note_on_c, 0, 71, 46
2, 17402, Note_off_c, 0, 76, 64
2, 17413, Note_off_c, 0, 71, 64
2, 17447, Note_on_c, 0, 71, 45
2, 17473, Note_off_c, 0, 62, 64
2, 17478, Note_off_c, 0, 56, 64
2, 17487, Note_off_c, 0, 52, 64
2, 17491, Control_c, 0, 64, 0
2, 17501, Note_on_c, 0, 74, 46
2, 17510, Note_off_c, 0, 71, 64
2, 17539, Control_c, 0, 64, 127
2, 17570, Control_c, 0, 64, 0
2, 17610, Control_c, 0, 64, 127
2, 17742, Note_on_c, 0, 53, 19
2, 17752, Note_on_c, 0, 62, 19
2, 17752, Note_on_c, 0, 57, 26
2, 17762, Control_c, 0, 64, 0
2, 17802, Control_c, 0, 64, 127
2, 17861, Control_c, 0, 64, 0
2, 17923, Control_c, 0, 64, 127
2, 17927, Note_off_c, 0, 53, 64
2, 17937, Note_off_c, 0, 57, 64
2, 17937, Note_off_c, 0, 62, 64
2, 17996, Note_on_c, 0, 72, 41
2, 18017, Note_on_c, 0, 57, 18
2, 18021, Note_off_c, 0, 74, 64
2, 18021, Note_on_c, 0, 60, 22
2, 18021, Note_on_c, 0, 53, 16
2, 18053, Control_c, 0, 64, 0
2, 18115, Control_c, 0, 64, 127
2, 18227, Note_off_c, 0, 53, 64
2, 18234, Control_c, 0, 64, 0
2, 18235, Note_off_c, 0, 57, 64
2, 18235, Note_off_c, 0, 72, 64
2, 18237, Note_on_c, 0, 69, 46
2, 18243, Note_off_c, 0, 60, 64
2, 18284, Control_c, 0, 64, 127
2, 18298, Note_on_c, 0, 70, 49
2, 18316, Note_off_c, 0, 69, 64
2, 18367, Note_on_c, 0, 69, 46
2, 18378, Note_off_c, 0, 70, 64
2, 18424, Note_on_c, 0, 63, 31
2, 18426, Control_c, 0, 64, 0
2, 18432, Note_on_c, 0, 60, 33
2, 18432, Note_on_c, 0, 53, 39
2, 18433, Note_on_c, 0, 67, 49
2, 18439, Note_off_c, 0, 69, 64
2, 18476, Control_c, 0, 64, 127
2, 18479, Control_c, 0, 64, 0
2, 18535, Control_c, 0, 64, 127
2, 18609, Note_off_c, 0, 63, 64
2, 18617, Note_off_c, 0, 53, 64
2, 18617, Note_off_c, 0, 60, 64
2, 18632, Note_on_c, 0, 60, 26
2, 18636, Note_on_c, 0, 69, 52
2, 18640, Note_on_c, 0, 53, 31
2, 18641, Note_on_c, 0, 63, 31
2, 18661, Note_off_c, 0, 67, 64
2, 18671, Control_c, 0, 64, 0
2, 18727, Control_c, 0, 64, 127
2, 18780, Control_c, 0, 64, 0
2, 18817, Note_off_c, 0, 60, 64
2, 18825, Note_off_c, 0, 53, 64
2, 18826, Note_off_c, 0, 63, 64
2, 18833, Control_c, 0, 64, 127
2, 18912, Note_on_c, 0, 62, 32
2, 18912, Note_on_c, 0, 58, 26
2, 18915, Note_on_c, 0, 70, 49
2, 18940, Note_off_c, 0, 69, 64
2, 18972, Control_c, 0, 64, 0
2, 19025, Control_c, 0, 64, 127
2, 19173, Control_c, 0, 64, 0
2, 19239, Control_c, 0, 64, 127
2, 19296, Note_on_c, 0, 65, 23
2, 19302, Note_on_c, 0, 74, 41
2, 19320, Note_off_c, 0, 70, 64
2, 19327, Note_off_c, 0, 62, 64
2, 19365, Control_c, 0, 64, 0
2, 19431, Control_c, 0, 64, 127
2, 19615, Control_c, 0, 64, 0
2, 19632, Note_off_c, 0, 74, 64
2, 19632, Note_off_c, 0, 65, 64
2, 19632, Note_off_c, 0, 58, 64
2, 19807, Control_c, 0, 64, 0
2, 19821, Control_c, 0, 64, 0
2, 19864, Control_c, 0, 64, 127
2, 19981, Control_c, 0, 64, 0
2, 19981, Note_on_c, 0, 69, 57
2, 20013, Control_c, 0, 64, 0
2, 20030, Control_c, 0, 64, 127
2, 20056, Control_c, 0, 64, 127
2, 20117, Note_on_c, 0, 68, 41
2, 20127, Note_off_c, 0, 69, 64
2, 20158, Note_on_c, 0, 64, 57
2, 20164, Note_on_c, 0, 52, 48
2, 20169, Note_on_c, 0, 59, 44
2, 20173, Control_c, 0, 64, 0
2, 20175, Control_c, 0, 64, 0
2, 20179, Note_off_c, 0, 68, 64
2, 20179, Note_on_c, 0, 62, 36
2, 20206, Control_c, 0, 64, 127
2, 20222, Control_c, 0, 64, 127
2, 20314, Note_off_c, 0, 52, 64
2, 20319, Note_off_c, 0, 59, 64
2, 20329, Note_off_c, 0, 62, 64
2, 20352, Note_on_c, 0, 68, 55
2, 20353, Note_on_c, 0, 52, 52
2, 20361, Note_on_c, 0, 62, 39
2, 20361, Note_on_c, 0, 59, 41
2, 20365, Control_c, 0, 64, 0
2, 20367, Control_c, 0, 64, 0
2, 20373, Note_off_c, 0, 64, 64
2, 20398, Control_c, 0, 64, 127
2, 20416, Control_c, 0, 64, 127
2, 20503, Note_off_c, 0, 52, 64
2, 20511, Note_off_c, 0, 59, 64
2, 20511, Note_off_c, 0, 62, 64
2, 20536, Note_on_c, 0, 69, 57
2, 20536, Note_on_c, 0, 60, 52
2, 20540, Note_on_c, 0, 52, 55
2, 20546, Note_on_c, 0, 45, 57
2, 20557, Control_c, 0, 64, 0
2, 20564, Note_off_c, 0, 68, 64
2, 20608, Control_c, 0, 64, 127
2, 20616, Control_c, 0, 64, 0
2, 20653, Control_c, 0, 64, 127
2, 20789, Note_off_c, 0, 52, 64
2, 20792, Note_on_c, 0, 33, 66
2, 20795, Note_off_c, 0, 45, 64
2, 20808, Control_c, 0, 64, 0
2, 20827, Note_off_c, 0, 60, 64
2, 20845, Control_c, 0, 64, 127
2, 20883, Note_off_c, 0, 69, 64
2, 21001, Note_off_c, 0, 33, 64
2, 21027, Control_c, 0, 64, 0
2, 21062, Control_c, 0, 64, 127
2, 21072, Note_on_c, 0, 71, 53
2, 21219, Control_c, 0, 64, 0
2, 21233, Note_off_c, 0, 71, 64
2, 21236, Note_on_c, 0, 72, 57
2, 21254, Control_c, 0, 64, 127
2, 21264, Control_c, 0, 64, 0
2, 21267, Control_c, 0, 64, 0
2, 21301, Control_c, 0, 64, 127
2, 21307, Control_c, 0, 64, 127
2, 21343, Note_on_c, 0, 74, 53
2, 21369, Note_off_c, 0, 72, 64
2, 21424, Control_c, 0, 64, 0
2, 21426, Note_on_c, 0, 75, 62
2, 21432, Note_on_c, 0, 60, 35
2, 21432, Note_on_c, 0, 56, 45
2, 21437, Note_on_c, 0, 66, 41
2, 21447, Note_off_c, 0, 74, 64
2, 21456, Control_c, 0, 64, 0
2, 21459, Control_c, 0, 64, 0
2, 21467, Control_c, 0, 64, 127
2, 21493, Control_c, 0, 64, 127
2, 21499, Control_c, 0, 64, 127
2, 21552, Note_off_c, 0, 75, 64
2, 21584, Control_c, 0, 64, 0
2, 21598, Control_c, 0, 64, 127
2, 21602, Note_off_c, 0, 56, 64
2, 21602, Note_off_c, 0, 60, 64
2, 21606, Note_on_c, 0, 75, 63
2, 21607, Note_off_c, 0, 66, 64
2, 21609, Note_on_c, 0, 56, 45
2, 21614, Note_on_c, 0, 66, 32
2, 21614, Note_on_c, 0, 60, 41
2, 21616, Control_c, 0, 64, 0
2, 21659, Control_c, 0, 64, 127
2, 21738, Note_off_c, 0, 75, 64
2, 21740, Note_on_c, 0, 77, 54
2, 21771, Control_c, 0, 64, 0
2, 21774, Note_on_c, 0, 75, 63
2, 21776, Control_c, 0, 64, 0
2, 21779, Note_off_c, 0, 56, 64
2, 21784, Note_off_c, 0, 60, 64
2, 21784, Note_off_c, 0, 66, 64
2, 21790, Control_c, 0, 64, 127
2, 21792, Control_c, 0, 64, 127
2, 21797, Note_off_c, 0, 77, 64
2, 21944, Note_on_c, 0, 66, 44
2, 21948, Note_on_c, 0, 60, 45
2, 21948, Note_on_c, 0, 55, 41
2, 21961, Control_c, 0, 64, 0
2, 21963, Control_c, 0, 64, 0
2, 21984, Control_c, 0, 64, 127
2, 21995, Control_c, 0, 64, 127
2, 22101, Control_c, 0, 64, 0
2, 22114, Note_off_c, 0, 66, 64
2, 22118, Note_off_c, 0, 55, 64
2, 22118, Note_off_c, 0, 60, 64
2, 22119, Note_on_c, 0, 74, 53
2, 22131, Control_c, 0, 64, 127
2, 22135, Note_on_c, 0, 55, 36
2, 22139, Note_on_c, 0, 67, 36
2, 22143, Note_off_c, 0, 75, 64
2, 22148, Note_on_c, 0, 59, 35
2, 22153, Control_c, 0, 64, 0
2, 22187, Control_c, 0, 64, 127
2, 22278, Control_c, 0, 64, 0
2, 22293, Control_c, 0, 64, 0
2, 22298, Note_off_c, 0, 59, 64
2, 22298, Note_on_c, 0, 72, 58
2, 22310, Note_off_c, 0, 74, 64
2, 22311, Note_off_c, 0, 67, 64
2, 22314, Control_c, 0, 64, 127
2, 22323, Control_c, 0, 64, 127
2, 22327, Note_off_c, 0, 55, 64
2, 22369, Note_on_c, 0, 74, 52
2, 22392, Note_off_c, 0, 72, 64
2, 22432, Note_on_c, 0, 66, 36
2, 22437, Control_c, 0, 64, 0
2, 22440, Note_on_c, 0, 60, 36
2, 22447, Note_on_c, 0, 75, 62
2, 22447, Note_on_c, 0, 56, 37
2, 22470, Control_c, 0, 64, 0
2, 22478, Note_off_c, 0, 74, 64
2, 22481, Control_c, 0, 64, 127
2, 22506, Control_c, 0, 64, 127
2, 22552, Note_off_c, 0, 75, 64
2, 22602, Note_off_c, 0, 66, 64
2, 22610, Note_off_c, 0, 60, 64
2, 22611, Note_on_c, 0, 75, 62
2, 22615, Note_on_c, 0, 66, 44
2, 22617, Note_off_c, 0, 56, 64
2, 22625, Note_on_c, 0, 56, 41
2, 22627, Note_on_c, 0, 60, 42
2, 22629, Control_c, 0, 64, 0
2, 22673, Control_c, 0, 64, 127
2, 22726, Note_off_c, 0, 56, 64
2, 22733, Note_off_c, 0, 60, 64
2, 22735, Note_on_c, 0, 77, 53
2, 22740, Note_off_c, 0, 75, 64
2, 22771, Control_c, 0, 64, 0
2, 22778, Note_off_c, 0, 66, 64
2, 22784, Note_on_c, 0, 75, 66
2, 22803, Note_off_c, 0, 77, 64
2, 22808, Control_c, 0, 64, 127
2, 22945, Note_on_c, 0, 56, 32
2, 22954, Note_on_c, 0, 59, 41
2, 22956, Control_c, 0, 64, 0
2, 22957, Note_on_c, 0, 65, 32
2, 22963, Control_c, 0, 64, 0
2, 22987, Control_c, 0, 64, 127
2, 23000, Control_c, 0, 64, 127
2, 23094, Control_c, 0, 64, 0
2, 23110, Note_off_c, 0, 56, 64
2, 23119, Note_off_c, 0, 59, 64
2, 23122, Note_off_c, 0, 65, 64
2, 23126, Note_on_c, 0, 56, 45
2, 23130, Note_on_c, 0, 74, 53
2, 23131, Note_on_c, 0, 58, 42
2, 23136, Note_on_c, 0, 65, 36
2, 23140, Note_off_c, 0, 75, 64
2, 23146, Control_c, 0, 64, 127
2, 23148, Control_c, 0, 64, 0
2, 23179, Control_c, 0, 64, 127
2, 23275, Note_off_c, 0, 58, 64
2, 23286, Control_c, 0, 64, 0
2, 23287, Control_c, 0, 64, 0
2, 23292, Note_off_c, 0, 56, 64
2, 23299, Control_c, 0, 64, 127
2, 23301, Note_off_c, 0, 65, 64
2, 23302, Note_on_c, 0, 82, 76
2, 23309, Note_off_c, 0, 74, 64
2, 23338, Control_c, 0, 64, 127
2, 23458, Note_on_c, 0, 55, 36
2, 23462, Note_on_c, 0, 65, 47
2, 23463, Control_c, 0, 64, 0
2, 23463, Note_on_c, 0, 58, 51
2, 23479, Control_c, 0, 64, 0
2, 23491, Control_c, 0, 64, 127
2, 23509, Control_c, 0, 64, 127
2, 23618, Note_off_c, 0, 55, 64
2, 23618, Control_c, 0, 64, 0
2, 23622, Note_off_c, 0, 65, 64
2, 23623, Note_off_c, 0, 58, 64
2, 23638, Note_on_c, 0, 64, 32
2, 23642, Note_on_c, 0, 73, 50
2, 23642, Note_on_c, 0, 55, 27
2, 23647, Note_on_c, 0, 58, 27
2, 23652, Control_c, 0, 64, 127
2, 23655, Control_c, 0, 64, 0
2, 23668, Note_off_c, 0, 82, 64
2, 23701, Control_c, 0, 64, 127
2, 23732, Note_off_c, 0, 58, 64
2, 23738, Note_off_c, 0, 55, 64
2, 23761, Note_off_c, 0, 64, 64
2, 23809, Note_off_c, 0, 73, 64
2, 23809, Note_on_c, 0, 81, 65
2, 23810, Control_c, 0, 64, 0
2, 23844, Control_c, 0, 64, 127
2, 23960, Note_on_c, 0, 64, 36
2, 23960, Note_on_c, 0, 55, 36
2, 23964, Note_on_c, 0, 57, 36
2, 23968, Control_c, 0, 64, 0
2, 24001, Control_c, 0, 64, 127
2, 24120, Note_off_c, 0, 55, 64
2, 24120, Note_off_c, 0, 64, 64
2, 24124, Note_off_c, 0, 57, 64
2, 24139, Note_on_c, 0, 72, 46
2, 24139, Note_on_c, 0, 54, 31
2, 24142, Note_on_c, 0, 63, 28
2, 24146, Note_on_c, 0, 57, 24
2, 24155, Note_off_c, 0, 81, 64
2, 24160, Control_c, 0, 64, 0
2, 24193, Control_c, 0, 64, 127
2, 24291, Note_off_c, 0, 54, 64
2, 24294, Control_c, 0, 64, 0
2, 24300, Note_on_c, 0, 80, 53
2, 24306, Note_off_c, 0, 57, 64
2, 24319, Note_off_c, 0, 63, 64
2, 24320, Control_c, 0, 64, 127
2, 24337, Note_off_c, 0, 72, 64
2, 24463, Note_on_c, 0, 53, 36
2, 24466, Note_on_c, 0, 63, 41
2, 24468, Note_on_c, 0, 56, 37
2, 24477, Control_c, 0, 64, 0
2, 24486, Control_c, 0, 64, 0
2, 24512, Control_c, 0, 64, 127
2, 24530, Control_c, 0, 64, 127
2, 24623, Note_off_c, 0, 53, 64
2, 24626, Note_off_c, 0, 63, 64
2, 24628, Note_off_c, 0, 56, 64
2, 24645, Note_on_c, 0, 71, 49
2, 24657, Note_on_c, 0, 56, 24
2, 24657, Note_on_c, 0, 53, 28
2, 24663, Note_off_c, 0, 80, 64
2, 24663, Note_on_c, 0, 62, 24
2, 24669, Control_c, 0, 64, 0
2, 24722, Control_c, 0, 64, 127
2, 24795, Note_off_c, 0, 56, 64
2, 24797, Note_off_c, 0, 53, 64
2, 24810, Note_off_c, 0, 62, 64
2, 24819, Note_on_c, 0, 79, 52
2, 24826, Control_c, 0, 64, 0
2, 24828, Note_off_c, 0, 71, 64
2, 24884, Control_c, 0, 64, 127
2, 25007, Note_on_c, 0, 62, 26
2, 25007, Note_on_c, 0, 55, 26
2, 25008, Note_on_c, 0, 52, 26
2, 25018, Control_c, 0, 64, 0
2, 25060, Control_c, 0, 64, 0
2, 25076, Control_c, 0, 64, 127
2, 25104, Control_c, 0, 64, 127
2, 25111, Note_on_c, 0, 70, 46
2, 25144, Note_off_c, 0, 79, 64
2, 25167, Note_off_c, 0, 55, 64
2, 25167, Note_off_c, 0, 62, 64
2, 25168, Note_off_c, 0, 52, 64
2, 25232, Note_on_c, 0, 52, 24
2, 25239, Note_on_c, 0, 55, 28
2, 25243, Note_on_c, 0, 69, 40
2, 25243, Note_on_c, 0, 61, 27
2, 25252, Control_c, 0, 64, 0
2, 25256, Note_off_c, 0, 70, 64
2, 25277, Control_c, 0, 64, 0
2, 25296, Control_c, 0, 64, 127
2, 25309, Control_c, 0, 64, 127
2, 25343, Note_on_c, 0, 76, 54
2, 25359, Note_off_c, 0, 69, 64
2, 25397, Note_off_c, 0, 52, 64
2, 25404, Note_off_c, 0, 55, 64
2, 25408, Note_off_c, 0, 61, 64
2, 25443, Control_c, 0, 64, 0
2, 25446, Note_on_c, 0, 77, 49
2, 25453, Note_on_c, 0, 53, 39
2, 25456, Control_c, 0, 64, 0
2, 25458, Note_on_c, 0, 62, 44
2, 25458, Note_on_c, 0, 50, 44
2, 25468, Note_off_c, 0, 76, 64
2, 25469, Control_c, 0, 64, 0
2, 25482, Control_c, 0, 64, 127
2, 25499, Control_c, 0, 64, 127
2, 25501, Control_c, 0, 64, 127
2, 25550, Note_on_c, 0, 76, 52
2, 25572, Note_off_c, 0, 77, 64
2, 25627, Control_c, 0, 64, 0
2, 25633, Note_off_c, 0, 53, 64
2, 25635, Note_on_c, 0, 74, 59
2, 25635, Control_c, 0, 64, 0
2, 25638, Note_off_c, 0, 50, 64
2, 25638, Note_off_c, 0, 62, 64
2, 25640, Note_on_c, 0, 62, 1
2, 25641, Note_on_c, 0, 65, 36
2, 25641, Note_on_c, 0, 57, 45
2, 25648, Control_c, 0, 64, 0
2, 25651, Note_off_c, 0, 76, 64
2, 25662, Control_c, 0, 64, 127
2, 25674, Control_c, 0, 64, 127
2, 25691, Control_c, 0, 64, 127
2, 25754, Note_off_c, 0, 62, 64
2, 25778, Note_off_c, 0, 57, 64
2, 25781, Note_off_c, 0, 65, 64
2, 25802, Note_on_c, 0, 62, 39
2, 25805, Note_on_c, 0, 65, 39
2, 25806, Note_on_c, 0, 57, 36
2, 25808, Control_c, 0, 64, 0
2, 25815, Note_on_c, 0, 77, 62
2, 25819, Control_c, 0, 64, 0
2, 25838, Note_off_c, 0, 74, 64
2, 25845, Control_c, 0, 64, 127
2, 25854, Control_c, 0, 64, 127
2, 25895, Note_off_c, 0, 77, 64
2, 25993, Note_on_c, 0, 77, 65
2, 26000, Control_c, 0, 64, 0
2, 26028, Note_off_c, 0, 57, 64
2, 26031, Note_off_c, 0, 62, 64
2, 26034, Note_off_c, 0, 65, 64
2, 26037, Control_c, 0, 64, 127
2, 26143, Control_c, 0, 64, 0
2, 26152, Note_on_c, 0, 60, 33
2, 26153, Note_on_c, 0, 65, 39
2, 26165, Note_on_c, 0, 57, 32
2, 26178, Control_c, 0, 64, 127
2, 26302, Note_off_c, 0, 60, 64
2, 26303, Note_off_c, 0, 65, 64
2, 26315, Note_off_c, 0, 57, 64
2, 26318, Note_on_c, 0, 60, 36
2, 26320, Note_on_c, 0, 76, 50
2, 26325, Note_on_c, 0, 57, 37
2, 26328, Note_on_c, 0, 64, 29
2, 26335, Control_c, 0, 64, 0
2, 26347, Note_off_c, 0, 77, 64
2, 26370, Control_c, 0, 64, 127
2, 26446, Note_off_c, 0, 76, 64
2, 26479, Note_off_c, 0, 64, 64
2, 26482, Note_off_c, 0, 60, 64
2, 26486, Control_c, 0, 64, 0
2, 26490, Note_off_c, 0, 57, 64
2, 26490, Note_on_c, 0, 74, 54
2, 26526, Control_c, 0, 64, 127
2, 26528, Note_on_c, 0, 76, 48
2, 26544, Note_off_c, 0, 74, 64
2, 26577, Note_on_c, 0, 74, 56
2, 26587, Note_off_c, 0, 76, 64
2, 26633, Note_on_c, 0, 73, 60
2, 26650, Note_off_c, 0, 74, 64
2, 26678, Control_c, 0, 64, 0
2, 26682, Note_on_c, 0, 74, 44
2, 26687, Control_c, 0, 64, 0
2, 26688, Note_on_c, 0, 62, 26
2, 26688, Note_on_c, 0, 56, 49
2, 26689, Note_on_c, 0, 52, 31
2, 26700, Note_off_c, 0, 73, 64
2, 26718, Control_c, 0, 64, 127
2, 26719, Control_c, 0, 64, 127
2, 26767, Note_on_c, 0, 75, 53
2, 26784, Note_off_c, 0, 74, 64
2, 26838, Note_off_c, 0, 56, 64
2, 26838, Note_off_c, 0, 62, 64
2, 26839, Note_off_c, 0, 52, 64
2, 26856, Note_on_c, 0, 56, 39
2, 26856, Note_on_c, 0, 52, 44
2, 26857, Note_on_c, 0, 76, 51
2, 26865, Note_on_c, 0, 62, 35
2, 26879, Control_c, 0, 64, 0
2, 26880, Note_off_c, 0, 75, 64
2, 26902, Control_c, 0, 64, 0
2, 26911, Control_c, 0, 64, 127
2, 26935, Control_c, 0, 64, 127
2, 26954, Note_on_c, 0, 71, 39
2, 27004, Note_off_c, 0, 76, 64
2, 27071, Note_on_c, 0, 74, 53
2, 27083, Note_off_c, 0, 71, 64
2, 27087, Note_off_c, 0, 52, 64
2, 27094, Control_c, 0, 64, 0
2, 27096, Note_off_c, 0, 56, 64
2, 27098, Control_c, 0, 64, 0
2, 27114, Note_off_c, 0, 62, 64
2, 27127, Control_c, 0, 64, 127
2, 27131, Control_c, 0, 64, 127
2, 27261, Note_on_c, 0, 62, 36
2, 27261, Note_on_c, 0, 57, 35
2, 27272, Note_on_c, 0, 53, 29
2, 27290, Control_c, 0, 64, 0
2, 27323, Control_c, 0, 64, 127
2, 27336, Control_c, 0, 64, 0
2, 27373, Control_c, 0, 64, 127
2, 27426, Note_off_c, 0, 57, 64
2, 27426, Note_off_c, 0, 62, 64
2, 27437, Note_off_c, 0, 53, 64
2, 27496, Note_on_c, 0, 72, 36
2, 27499, Note_on_c, 0, 53, 27
2, 27504, Note_on_c, 0, 57, 27
2, 27507, Note_on_c, 0, 60, 35
2, 27518, Note_off_c, 0, 74, 64
2, 27528, Control_c, 0, 64, 0
2, 27565, Control_c, 0, 64, 127
2, 27701, Note_off_c, 0, 53, 64
2, 27713, Note_off_c, 0, 57, 64
2, 27716, Note_off_c, 0, 72, 64
2, 27716, Note_on_c, 0, 69, 52
2, 27723, Note_off_c, 0, 60, 64
2, 27760, Control_c, 0, 64, 0
2, 27797, Control_c, 0, 64, 127
2, 27802, Note_on_c, 0, 70, 59
2, 27825, Note_off_c, 0, 69, 64
2, 27874, Note_on_c, 0, 69, 44
2, 27880, Note_off_c, 0, 70, 64
2, 27926, Note_on_c, 0, 63, 40
2, 27933, Note_on_c, 0, 53, 31
2, 27936, Note_on_c, 0, 60, 36
2, 27940, Note_on_c, 0, 67, 66
2, 27952, Control_c, 0, 64, 0
2, 27965, Note_off_c, 0, 69, 64
2, 27989, Control_c, 0, 64, 127
2, 28001, Control_c, 0, 64, 0
2, 28024, Control_c, 0, 64, 127
2, 28111, Note_off_c, 0, 63, 64
2, 28118, Note_off_c, 0, 53, 64
2, 28121, Note_off_c, 0, 60, 64
2, 28169, Note_on_c, 0, 69, 63
2, 28175, Note_on_c, 0, 53, 37
2, 28178, Note_on_c, 0, 63, 41
2, 28178, Note_on_c, 0, 60, 39
2, 28193, Control_c, 0, 64, 0
2, 28198, Note_off_c, 0, 67, 64
2, 28216, Control_c, 0, 64, 127
2, 28293, Control_c, 0, 64, 0
2, 28347, Control_c, 0, 64, 127
2, 28360, Note_off_c, 0, 53, 64
2, 28363, Note_off_c, 0, 60, 64
2, 28363, Note_off_c, 0, 63, 64
2, 28454, Note_on_c, 0, 70, 70
2, 28459, Note_on_c, 0, 62, 49
2, 28466, Note_on_c, 0, 58, 40
2, 28476, Note_off_c, 0, 69, 64
2, 28485, Control_c, 0, 64, 0
2, 28539, Control_c, 0, 64, 127
2, 28627, Control_c, 0, 64, 0
2, 28683, Control_c, 0, 64, 127
2, 28781, Note_on_c, 0, 74, 53
2, 28792, Note_on_c, 0, 65, 28
2, 28799, Note_off_c, 0, 70, 64
2, 28819, Control_c, 0, 64, 0
2, 28843, Note_off_c, 0, 62, 64
2, 28875, Control_c, 0, 64, 127
2, 28917, Note_off_c, 0, 58, 64
2, 29129, Note_off_c, 0, 65, 64
2, 29147, Note_off_c, 0, 74, 64
2, 29395, Control_c, 0, 64, 0
2, 29418, Control_c, 0, 64, 127
2, 29541, Note_on_c, 0, 69, 59
2, 29585, Control_c, 0, 64, 0
2, 29587, Control_c, 0, 64, 0
2, 29610, Control_c, 0, 64, 127
2, 29618, Control_c, 0, 64, 127
2, 29695, Note_on_c, 0, 68, 55
2, 29718, Note_off_c, 0, 69, 64
2, 29749, Note_on_c, 0, 64, 63
2, 29752, Control_c, 0, 64, 0
2, 29760, Note_on_c, 0, 62, 63
2, 29769, Note_on_c, 0, 52, 58
2, 29772, Note_off_c, 0, 68, 64
2, 29775, Control_c, 0, 64, 127
2, 29777, Control_c, 0, 64, 0
2, 29810, Control_c, 0, 64, 127
2, 29910, Note_off_c, 0, 62, 64
2, 29919, Note_off_c, 0, 52, 64
2, 29920, Control_c, 0, 64, 0
2, 29924, Note_on_c, 0, 68, 60
2, 29930, Note_on_c, 0, 62, 63
2, 29930, Note_on_c, 0, 52, 55
2, 29939, Note_off_c, 0, 64, 64
2, 29944, Control_c, 0, 64, 0
2, 29961, Control_c, 0, 64, 127
2, 29967, Control_c, 0, 64, 127
2, 30080, Note_off_c, 0, 52, 64
2, 30080, Note_off_c, 0, 62, 64
2, 30097, Note_on_c, 0, 69, 64
2, 30103, Note_on_c, 0, 60, 56
2, 30103, Note_on_c, 0, 45, 48
2, 30110, Note_off_c, 0, 68, 64
2, 30112, Note_on_c, 0, 52, 33
2, 30112, Control_c, 0, 64, 0
2, 30153, Control_c, 0, 64, 127
2, 30251, Note_off_c, 0, 60, 64
2, 30284, Note_on_c, 0, 33, 60
2, 30301, Note_off_c, 0, 69, 64
2, 30305, Control_c, 0, 64, 0
2, 30320, Control_c, 0, 64, 127
2, 30343, Note_off_c, 0, 45, 64
2, 30352, Note_off_c, 0, 52, 64
2, 30440, Note_off_c, 0, 33, 64
2, 30474, Note_on_c, 0, 71, 45
2, 30497, Control_c, 0, 64, 0
2, 30512, Control_c, 0, 64, 127
2, 30666, Control_c, 0, 64, 0
2, 30687, Note_on_c, 0, 72, 44
2, 30695, Note_off_c, 0, 71, 64
2, 30729, Control_c, 0, 64, 127
2, 30780, Note_on_c, 0, 74, 41
2, 30802, Note_off_c, 0, 72, 64
2, 30858, Control_c, 0, 64, 0
2, 30864, Control_c, 0, 64, 0
2, 30864, Note_on_c, 0, 75, 46
2, 30864, Note_on_c, 0, 56, 28
2, 30869, Note_on_c, 0, 66, 24
2, 30872, Note_on_c, 0, 60, 31
2, 30882, Note_off_c, 0, 74, 64
2, 30895, Control_c, 0, 64, 127
2, 30921, Control_c, 0, 64, 127
2, 30991, Note_off_c, 0, 75, 64
2, 31014, Note_off_c, 0, 56, 64
2, 31019, Note_off_c, 0, 66, 64
2, 31022, Note_off_c, 0, 60, 64
2, 31033, Note_on_c, 0, 75, 49
2, 31036, Note_on_c, 0, 56, 31
2, 31042, Note_on_c, 0, 66, 26
2, 31046, Note_on_c, 0, 60, 31
2, 31056, Control_c, 0, 64, 0
2, 31087, Control_c, 0, 64, 127
2, 31171, Note_off_c, 0, 75, 64
2, 31176, Note_off_c, 0, 60, 64
2, 31176, Note_on_c, 0, 77, 41
2, 31186, Note_off_c, 0, 56, 64
2, 31196, Note_off_c, 0, 66, 64
2, 31211, Control_c, 0, 64, 0
2, 31217, Note_on_c, 0, 75, 49
2, 31242, Note_off_c, 0, 77, 64
2, 31246, Control_c, 0, 64, 127
2, 31381, Note_on_c, 0, 55, 26
2, 31392, Note_on_c, 0, 60, 31
2, 31395, Note_on_c, 0, 66, 15
2, 31403, Control_c, 0, 64, 0
2, 31416, Control_c, 0, 64, 0
2, 31438, Control_c, 0, 64, 127
2, 31444, Control_c, 0, 64, 127
2, 31531, Note_off_c, 0, 55, 64
2, 31542, Note_off_c, 0, 60, 64
2, 31545, Note_off_c, 0, 66, 64
2, 31572, Control_c, 0, 64, 0
2, 31574, Note_on_c, 0, 55, 23
2, 31579, Note_on_c, 0, 74, 41
2, 31579, Note_on_c, 0, 59, 35
2, 31595, Note_on_c, 0, 67, 32
2, 31600, Note_off_c, 0, 75, 64
2, 31600, Control_c, 0, 64, 127
2, 31608, Control_c, 0, 64, 0
2, 31636, Control_c, 0, 64, 127
2, 31748, Control_c, 0, 64, 0
2, 31761, Note_on_c, 0, 72, 41
2, 31764, Control_c, 0, 64, 0
2, 31769, Note_off_c, 0, 74, 64
2, 31775, Note_off_c, 0, 55, 64
2, 31780, Note_off_c, 0, 59, 64
2, 31781, Control_c, 0, 64, 127
2, 31784, Note_off_c, 0, 67, 64
2, 31792, Control_c, 0, 64, 127
2, 31839, Note_on_c, 0, 74, 36
2, 31865, Note_off_c, 0, 72, 64
2, 31909, Control_c, 0, 64, 0
2, 31916, Note_on_c, 0, 60, 33
2, 31919, Note_on_c, 0, 56, 31
2, 31921, Note_on_c, 0, 75, 46
2, 31921, Note_on_c, 0, 66, 26
2, 31940, Control_c, 0, 64, 0
2, 31952, Control_c, 0, 64, 127
2, 31972, Note_off_c, 0, 74, 64
2, 31973, Control_c, 0, 64, 127
2, 32015, Note_off_c, 0, 75, 64
2, 32066, Note_off_c, 0, 60, 64
2, 32069, Note_off_c, 0, 56, 64
2, 32071, Note_off_c, 0, 66, 64
2, 32083, Note_on_c, 0, 75, 49
2, 32090, Note_on_c, 0, 66, 36
2, 32090, Note_on_c, 0, 56, 36
2, 32094, Note_on_c, 0, 60, 36
2, 32101, Control_c, 0, 64, 0
2, 32144, Control_c, 0, 64, 127
2, 32204, Note_off_c, 0, 60, 64
2, 32211, Note_off_c, 0, 75, 64
2, 32211, Note_on_c, 0, 77, 41
2, 32226, Note_off_c, 0, 56, 64
2, 32241, Note_off_c, 0, 66, 64
2, 32248, Control_c, 0, 64, 0
2, 32254, Note_on_c, 0, 75, 46
2, 32270, Note_off_c, 0, 77, 64
2, 32280, Control_c, 0, 64, 127
2, 32418, Note_on_c, 0, 56, 31
2, 32425, Note_on_c, 0, 59, 37
2, 32428, Control_c, 0, 64, 0
2, 32429, Note_on_c, 0, 65, 27
2, 32440, Control_c, 0, 64, 0
2, 32471, Control_c, 0, 64, 127
2, 32472, Control_c, 0, 64, 127
2, 32568, Note_off_c, 0, 56, 64
2, 32575, Note_off_c, 0, 59, 64
2, 32579, Note_off_c, 0, 65, 64
2, 32586, Control_c, 0, 64, 0
2, 32600, Note_on_c, 0, 56, 28
2, 32601, Note_on_c, 0, 74, 40
2, 32601, Note_on_c, 0, 58, 31
2, 32609, Note_off_c, 0, 75, 64
2, 32613, Note_on_c, 0, 65, 26
2, 32620, Control_c, 0, 64, 0
2, 32624, Control_c, 0, 64, 127
2, 32663, Control_c, 0, 64, 127
2, 32763, Control_c, 0, 64, 0
2, 32773, Note_off_c, 0, 58, 64
2, 32778, Note_off_c, 0, 56, 64
2, 32778, Control_c, 0, 64, 0
2, 32784, Note_on_c, 0, 82, 63
2, 32787, Note_off_c, 0, 65, 64
2, 32798, Control_c, 0, 64, 127
2, 32810, Note_off_c, 0, 74, 64
2, 32816, Control_c, 0, 64, 127
2, 32938, Note_on_c, 0, 65, 32
2, 32938, Note_on_c, 0, 58, 28
2, 32938, Note_on_c, 0, 55, 35
2, 32947, Control_c, 0, 64, 0
2, 32955, Control_c, 0, 64, 0
2, 32990, Control_c, 0, 64, 127
2, 32990, Control_c, 0, 64, 127
2, 33088, Note_off_c, 0, 55, 64
2, 33088, Note_off_c, 0, 58, 64
2, 33088, Note_off_c, 0, 65, 64
2, 33107, Note_on_c, 0, 73, 41
2, 33113, Note_on_c, 0, 58, 29
2, 33119, Note_on_c, 0, 55, 32
2, 33120, Note_on_c, 0, 64, 27
2, 33129, Note_off_c, 0, 82, 64
2, 33139, Control_c, 0, 64, 0
2, 33182, Control_c, 0, 64, 127
2, 33269, Note_off_c, 0, 55, 64
2, 33270, Control_c, 0, 64, 0
2, 33279, Note_off_c, 0, 58, 64
2, 33288, Note_on_c, 0, 81, 55
2, 33293, Note_off_c, 0, 64, 64
2, 33297, Note_off_c, 0, 73, 64
2, 33300, Control_c, 0, 64, 127
2, 33439, Note_on_c, 0, 55, 27
2, 33441, Note_on_c, 0, 64, 28
2, 33441, Note_on_c, 0, 57, 33
2, 33450, Control_c, 0, 64, 0
2, 33462, Control_c, 0, 64, 0
2, 33492, Control_c, 0, 64, 127
2, 33495, Control_c, 0, 64, 127
2, 33589, Note_off_c, 0, 55, 64
2, 33591, Note_off_c, 0, 57, 64
2, 33591, Note_off_c, 0, 64, 64
2, 33620, Note_on_c, 0, 63, 35
2, 33624, Note_on_c, 0, 57, 1
2, 33625, Note_on_c, 0, 72, 35
2, 33625, Note_on_c, 0, 54, 28
2, 33632, Note_off_c, 0, 81, 64
2, 33642, Control_c, 0, 64, 0
2, 33687, Control_c, 0, 64, 127
2, 33773, Control_c, 0, 64, 0
2, 33778, Note_off_c, 0, 54, 64
2, 33786, Note_off_c, 0, 57, 64
2, 33786, Note_off_c, 0, 63, 64
2, 33790, Note_on_c, 0, 80, 45
2, 33819, Control_c, 0, 64, 127
2, 33821, Note_off_c, 0, 72, 64
2, 33955, Note_on_c, 0, 63, 26
2, 33955, Note_on_c, 0, 56, 31
2, 33955, Note_on_c, 0, 53, 31
2, 33965, Control_c, 0, 64, 0
2, 33969, Control_c, 0, 64, 0
2, 34011, Control_c, 0, 64, 127
2, 34020, Control_c, 0, 64, 127
2, 34105, Note_off_c, 0, 53, 64
2, 34105, Note_off_c, 0, 56, 64
2, 34105, Note_off_c, 0, 63, 64
2, 34123, Note_on_c, 0, 71, 44
2, 34138, Note_off_c, 0, 80, 64
2, 34138, Note_on_c, 0, 56, 26
2, 34144, Note_on_c, 0, 53, 26
2, 34145, Note_on_c, 0, 62, 28
2, 34161, Control_c, 0, 64, 0
2, 34212, Control_c, 0, 64, 127
2, 34277, Note_off_c, 0, 53, 64
2, 34289, Note_off_c, 0, 56, 64
2, 34296, Note_on_c, 0, 79, 46
2, 34305, Note_off_c, 0, 62, 64
2, 34310, Control_c, 0, 64, 0
2, 34312, Note_off_c, 0, 71, 64
2, 34359, Control_c, 0, 64, 127
2, 34480, Note_on_c, 0, 62, 26
2, 34480, Note_on_c, 0, 55, 28
2, 34480, Note_on_c, 0, 52, 24
2, 34502, Control_c, 0, 64, 0
2, 34543, Control_c, 0, 64, 0
2, 34551, Control_c, 0, 64, 127
2, 34576, Control_c, 0, 64, 127
2, 34593, Note_on_c, 0, 70, 42
2, 34618, Note_off_c, 0, 79, 64
2, 34670, Note_off_c, 0, 52, 64
2, 34670, Note_off_c, 0, 55, 64
2, 34670, Note_off_c, 0, 62, 64
2, 34712, Note_on_c, 0, 52, 24
2, 34715, Note_on_c, 0, 69, 36
2, 34721, Note_off_c, 0, 70, 64
2, 34721, Note_on_c, 0, 61, 23
2, 34725, Note_on_c, 0, 55, 24
2, 34735, Control_c, 0, 64, 0
2, 34749, Control_c, 0, 64, 0
2, 34768, Control_c, 0, 64, 127
2, 34782, Control_c, 0, 64, 127
2, 34796, Note_off_c, 0, 52, 64
2, 34804, Note_off_c, 0, 55, 64
2, 34812, Note_on_c, 0, 76, 41
2, 34818, Note_off_c, 0, 69, 64
2, 34820, Note_off_c, 0, 61, 64
2, 34911, Note_on_c, 0, 77, 41
2, 34916, Control_c, 0, 64, 0
2, 34926, Note_off_c, 0, 76, 64
2, 34928, Note_on_c, 0, 62, 31
2, 34928, Note_on_c, 0, 53, 27
2, 34934, Note_on_c, 0, 50, 29
2, 34935, Control_c, 0, 64, 127
2, 34941, Control_c, 0, 64, 0
2, 34974, Control_c, 0, 64, 127
2, 35013, Note_on_c, 0, 76, 52
2, 35043, Note_off_c, 0, 77, 64
2, 35078, Note_off_c, 0, 53, 64
2, 35078, Note_off_c, 0, 62, 64
2, 35084, Note_off_c, 0, 50, 64
2, 35088, Control_c, 0, 64, 0
2, 35099, Note_on_c, 0, 74, 52
2, 35100, Note_on_c, 0, 62, 33
2, 35104, Note_on_c, 0, 57, 23
2, 35107, Note_on_c, 0, 65, 35
2, 35108, Control_c, 0, 64, 0
2, 35112, Control_c, 0, 64, 127
2, 35117, Note_off_c, 0, 76, 64
2, 35127, Control_c, 0, 64, 127
2, 35246, Control_c, 0, 64, 0
2, 35250, Note_off_c, 0, 62, 64
2, 35254, Note_off_c, 0, 57, 64
2, 35257, Note_off_c, 0, 65, 64
2, 35267, Note_on_c, 0, 62, 27
2, 35267, Note_on_c, 0, 57, 32
2, 35271, Note_on_c, 0, 77, 52
2, 35271, Note_on_c, 0, 65, 27
2, 35280, Control_c, 0, 64, 0
2, 35290, Note_off_c, 0, 74, 64
2, 35295, Control_c, 0, 64, 127
2, 35304, Control_c, 0, 64, 127
2, 35428, Note_off_c, 0, 77, 64
2, 35438, Control_c, 0, 64, 0
2, 35448, Note_on_c, 0, 77, 55
2, 35460, Note_off_c, 0, 57, 64
2, 35461, Note_off_c, 0, 65, 64
2, 35472, Note_off_c, 0, 62, 64
2, 35487, Control_c, 0, 64, 127
2, 35606, Note_on_c, 0, 65, 36
2, 35610, Note_on_c, 0, 60, 37
2, 35613, Control_c, 0, 64, 0
2, 35614, Note_on_c, 0, 57, 35
2, 35647, Control_c, 0, 64, 127
2, 35756, Note_off_c, 0, 65, 64
2, 35760, Note_off_c, 0, 60, 64
2, 35764, Note_off_c, 0, 57, 64
2, 35786, Note_on_c, 0, 76, 41
2, 35789, Note_on_c, 0, 64, 28
2, 35789, Note_on_c, 0, 60, 27
2, 35794, Note_on_c, 0, 57, 28
2, 35805, Note_off_c, 0, 77, 64
2, 35805, Control_c, 0, 64, 0
2, 35839, Control_c, 0, 64, 127
2, 35895, Note_off_c, 0, 76, 64
2, 35911, Control_c, 0, 64, 0
2, 35931, Note_on_c, 0, 74, 41
2, 35943, Note_off_c, 0, 64, 64
2, 35946, Note_off_c, 0, 60, 64
2, 35953, Note_off_c, 0, 57, 64
2, 35961, Control_c, 0, 64, 127
2, 35979, Note_on_c, 0, 76, 36
2, 36002, Note_off_c, 0, 74, 64
2, 36012, Note_on_c, 0, 74, 41
2, 36027, Note_off_c, 0, 76, 64
2, 36066, Note_on_c, 0, 73, 49
2, 36085, Note_off_c, 0, 74, 64
2, 36092, Note_on_c, 0, 56, 27
2, 36096, Note_on_c, 0, 52, 18
2, 36097, Control_c, 0, 64, 0
2, 36097, Note_on_c, 0, 62, 27
2, 36103, Control_c, 0, 64, 0
2, 36120, Note_on_c, 0, 74, 45
2, 36124, Control_c, 0, 64, 127
2, 36138, Note_off_c, 0, 73, 64
2, 36153, Control_c, 0, 64, 127
2, 36199, Note_on_c, 0, 75, 46
2, 36220, Note_off_c, 0, 74, 64
2, 36232, Note_off_c, 0, 56, 64
2, 36236, Note_off_c, 0, 52, 64
2, 36237, Note_off_c, 0, 62, 64
2, 36269, Note_on_c, 0, 56, 18
2, 36274, Note_on_c, 0, 62, 22
2, 36276, Note_on_c, 0, 52, 23
2, 36289, Control_c, 0, 64, 0
2, 36295, Note_on_c, 0, 76, 39
2, 36316, Control_c, 0, 64, 127
2, 36322, Note_off_c, 0, 75, 64
2, 36375, Note_on_c, 0, 71, 41
2, 36420, Note_off_c, 0, 76, 64
2, 36432, Note_off_c, 0, 71, 64
2, 36470, Note_off_c, 0, 52, 64
2, 36478, Note_on_c, 0, 74, 44
2, 36490, Note_off_c, 0, 56, 64
2, 36519, Note_off_c, 0, 62, 64
2, 36565, Control_c, 0, 64, 0
2, 36611, Control_c, 0, 64, 127
2, 36725, Note_on_c, 0, 57, 22
2, 36732, Note_on_c, 0, 62, 22
2, 36734, Note_on_c, 0, 53, 22
2, 36757, Control_c, 0, 64, 0
2, 36803, Control_c, 0, 64, 127
2, 36888, Control_c, 0, 64, 0
2, 36920, Note_off_c, 0, 57, 64
2, 36927, Note_off_c, 0, 62, 64
2, 36929, Note_off_c, 0, 53, 64
2, 36935, Control_c, 0, 64, 127
2, 37030, Note_on_c, 0, 72, 32
2, 37040, Note_on_c, 0, 57, 26
2, 37047, Note_on_c, 0, 60, 27
2, 37047, Note_on_c, 0, 53, 20
2, 37055, Note_off_c, 0, 74, 64
2, 37080, Control_c, 0, 64, 0
2, 37127, Control_c, 0, 64, 127
2, 37219, Note_off_c, 0, 57, 64
2, 37268, Note_off_c, 0, 53, 64
2, 37280, Note_off_c, 0, 72, 64
2, 37284, Note_on_c, 0, 69, 48
2, 37290, Note_off_c, 0, 60, 64
2, 37292, Control_c, 0, 64, 0
2, 37334, Control_c, 0, 64, 127
2, 37350, Note_on_c, 0, 70, 59
2, 37367, Note_off_c, 0, 69, 64
2, 37416, Note_on_c, 0, 69, 45
2, 37433, Note_off_c, 0, 70, 64
2, 37467, Note_on_c, 0, 63, 41
2, 37474, Note_on_c, 0, 67, 52
2, 37476, Note_on_c, 0, 53, 33
2, 37477, Note_on_c, 0, 60, 32
2, 37484, Control_c, 0, 64, 0
2, 37500, Note_off_c, 0, 69, 64
2, 37526, Control_c, 0, 64, 127
2, 37553, Control_c, 0, 64, 0
2, 37568, Control_c, 0, 64, 127
2, 37657, Note_off_c, 0, 63, 64
2, 37666, Note_off_c, 0, 53, 64
2, 37667, Note_off_c, 0, 60, 64
2, 37707, Note_on_c, 0, 69, 52
2, 37715, Note_on_c, 0, 63, 32
2, 37717, Note_on_c, 0, 53, 28
2, 37722, Note_on_c, 0, 60, 31
2, 37740, Note_off_c, 0, 67, 64
2, 37745, Control_c, 0, 64, 0
2, 37760, Control_c, 0, 64, 127
2, 37848, Control_c, 0, 64, 0
2, 37900, Control_c, 0, 64, 127
2, 37905, Note_off_c, 0, 63, 64
2, 37907, Note_off_c, 0, 53, 64
2, 37912, Note_off_c, 0, 60, 64
2, 37995, Note_on_c, 0, 70, 48
2, 38002, Note_on_c, 0, 58, 32
2, 38003, Note_on_c, 0, 62, 36
2, 38017, Note_off_c, 0, 69, 64
2, 38040, Control_c, 0, 64, 0
2, 38092, Control_c, 0, 64, 127
2, 38251, Control_c, 0, 64, 0
2, 38302, Control_c, 0, 64, 127
2, 38382, Note_on_c, 0, 74, 41
2, 38391, Note_on_c, 0, 65, 23
2, 38401, Note_off_c, 0, 70, 64
2, 38443, Control_c, 0, 64, 0
2, 38456, Note_off_c, 0, 62, 64
2, 38494, Control_c, 0, 64, 127
2, 38682, Note_off_c, 0, 58, 64
2, 38747, Control_c, 0, 64, 0
2, 38785, Control_c, 0, 64, 127
2, 38799, Note_off_c, 0, 65, 64
2, 38811, Note_off_c, 0, 74, 64
2, 38916, Note_on_c, 0, 69, 45
2, 38939, Control_c, 0, 64, 0
2, 38941, Control_c, 0, 64, 0
2, 38963, Control_c, 0, 64, 127
2, 38977, Control_c, 0, 64, 127
2, 39057, Note_on_c, 0, 68, 49
2, 39066, Note_off_c, 0, 69, 64
2, 39102, Note_on_c, 0, 64, 46
2, 39110, Note_on_c, 0, 52, 52
2, 39113, Note_on_c, 0, 62, 53
2, 39116, Note_on_c, 0, 59, 49
2, 39117, Note_off_c, 0, 68, 64
2, 39118, Control_c, 0, 64, 0
2, 39133, Control_c, 0, 64, 0
2, 39143, Control_c, 0, 64, 127
2, 39155, Control_c, 0, 64, 127
2, 39260, Note_off_c, 0, 52, 64
2, 39263, Note_off_c, 0, 62, 64
2, 39266, Note_off_c, 0, 59, 64
2, 39288, Note_on_c, 0, 68, 55
2, 39295, Note_on_c, 0, 52, 46
2, 39297, Note_on_c, 0, 62, 55
2, 39302, Note_on_c, 0, 59, 41
2, 39304, Note_off_c, 0, 64, 64
2, 39310, Control_c, 0, 64, 0
2, 39310, Control_c, 0, 64, 0
2, 39335, Control_c, 0, 64, 127
2, 39341, Control_c, 0, 64, 127
2, 39445, Note_off_c, 0, 52, 64
2, 39447, Note_off_c, 0, 62, 64
2, 39452, Note_off_c, 0, 59, 64
2, 39485, Note_on_c, 0, 69, 61
2, 39497, Note_off_c, 0, 68, 64
2, 39502, Control_c, 0, 64, 0
2, 39533, Control_c, 0, 64, 127
2, 39669, Note_on_c, 0, 45, 35
2, 39672, Note_on_c, 0, 57, 28
2, 39680, Note_on_c, 0, 61, 39
2, 39682, Note_on_c, 0, 64, 41
2, 39819, Note_off_c, 0, 45, 64
2, 39822, Note_off_c, 0, 57, 64
2, 39825, Note_off_c, 0, 61, 64
2, 39827, Note_off_c, 0, 64, 64
2, 39856, Note_on_c, 0, 61, 39
2, 39862, Note_off_c, 0, 69, 64
2, 39863, Note_on_c, 0, 45, 29
2, 39864, Note_on_c, 0, 64, 39
2, 39868, Note_on_c, 0, 57, 28
2, 40001, Note_off_c, 0, 61, 64
2, 40009, Note_off_c, 0, 64, 64
2, 40044, Note_on_c, 0, 67, 46
2, 40046, Note_on_c, 0, 73, 52
2, 40092, Note_off_c, 0, 67, 64
2, 40096, Note_off_c, 0, 73, 64
2, 40173, Note_on_c, 0, 67, 39
2, 40175, Note_on_c, 0, 73, 48
2, 40208, Note_off_c, 0, 67, 64
2, 40231, Note_on_c, 0, 74, 52
2, 40232, Note_off_c, 0, 73, 64
2, 40233, Note_on_c, 0, 66, 50
2, 40233, Control_c, 0, 64, 0
2, 40240, Note_on_c, 0, 50, 48
2, 40246, Note_off_c, 0, 57, 64
2, 40260, Control_c, 0, 64, 127
2, 40263, Note_off_c, 0, 45, 64
2, 40380, Note_off_c, 0, 66, 64
2, 40392, Note_off_c, 0, 74, 64
2, 40415, Note_on_c, 0, 71, 45
2, 40415, Note_on_c, 0, 65, 39
2, 40415, Note_on_c, 0, 38, 52
2, 40422, Control_c, 0, 64, 0
2, 40425, Control_c, 0, 64, 0
2, 40430, Note_off_c, 0, 50, 64
2, 40452, Control_c, 0, 64, 127
2, 40457, Control_c, 0, 64, 127
2, 40589, Note_on_c, 0, 68, 50
2, 40592, Note_off_c, 0, 65, 64
2, 40592, Note_off_c, 0, 71, 64
2, 40597, Note_on_c, 0, 40, 46
2, 40602, Note_on_c, 0, 62, 46
2, 40606, Control_c, 0, 64, 0
2, 40614, Control_c, 0, 64, 0
2, 40630, Note_off_c, 0, 38, 64
2, 40649, Control_c, 0, 64, 127
2, 40656, Control_c, 0, 64, 127
2, 40690, Note_off_c, 0, 62, 64
2, 40731, Note_off_c, 0, 68, 64
2, 40737, Note_on_c, 0, 64, 36
2, 40777, Note_on_c, 0, 69, 46
2, 40777, Note_on_c, 0, 61, 46
2, 40777, Note_on_c, 0, 45, 45
2, 40798, Control_c, 0, 64, 0
2, 40803, Note_off_c, 0, 64, 64
2, 40812, Note_off_c, 0, 40, 64
2, 40848, Control_c, 0, 64, 127
2, 40883, Note_off_c, 0, 61, 64
2, 40901, Note_off_c, 0, 69, 64
2, 40963, Control_c, 0, 64, 0
2, 40973, Note_on_c, 0, 52, 36
2, 40992, Note_off_c, 0, 45, 64
2, 41004, Control_c, 0, 64, 127
2, 41058, Note_on_c, 0, 71, 37
2, 41060, Note_on_c, 0, 68, 45
2, 41147, Control_c, 0, 64, 0
2, 41155, Note_on_c, 0, 73, 46
2, 41155, Control_c, 0, 64, 0
2, 41160, Note_on_c, 0, 57, 46
2, 41165, Note_off_c, 0, 68, 64
2, 41165, Note_on_c, 0, 67, 50
2, 41176, Note_off_c, 0, 52, 64
2, 41178, Note_off_c, 0, 71, 64
2, 41179, Control_c, 0, 64, 127
2, 41196, Control_c, 0, 64, 127
2, 41237, Note_off_c, 0, 73, 64
2, 41284, Note_off_c, 0, 67, 64
2, 41292, Note_on_c, 0, 76, 36
2, 41339, Control_c, 0, 64, 0
2, 41339, Note_on_c, 0, 74, 44
2, 41339, Control_c, 0, 64, 0
2, 41348, Note_on_c, 0, 66, 57
2, 41352, Note_on_c, 0, 50, 49
2, 41355, Note_off_c, 0, 76, 64
2, 41371, Control_c, 0, 64, 127
2, 41375, Note_off_c, 0, 57, 64
2, 41379, Control_c, 0, 64, 127
2, 41440, Note_off_c, 0, 66, 64
2, 41496, Note_off_c, 0, 74, 64
2, 41523, Note_on_c, 0, 38, 39
2, 41528, Note_on_c, 0, 71, 46
2, 41528, Note_on_c, 0, 65, 41
2, 41531, Control_c, 0, 64, 0
2, 41532, Control_c, 0, 64, 0
2, 41566, Control_c, 0, 64, 127
2, 41567, Note_off_c, 0, 50, 64
2, 41571, Control_c, 0, 64, 127
2, 41705, Note_off_c, 0, 65, 64
2, 41705, Note_off_c, 0, 71, 64
2, 41707, Note_on_c, 0, 68, 48
2, 41709, Control_c, 0, 64, 0
2, 41709, Note_on_c, 0, 62, 36
2, 41715, Note_on_c, 0, 40, 50
2, 41724, Control_c, 0, 64, 0
2, 41738, Note_off_c, 0, 38, 64
2, 41758, Control_c, 0, 64, 127
2, 41765, Control_c, 0, 64, 127
2, 41767, Note_on_c, 0, 66, 45
2, 41772, Note_off_c, 0, 68, 64
2, 41788, Note_off_c, 0, 62, 64
2, 41826, Note_on_c, 0, 64, 37
2, 41836, Note_off_c, 0, 66, 64
2, 41891, Note_on_c, 0, 69, 50
2, 41892, Note_on_c, 0, 61, 49
2, 41897, Note_on_c, 0, 45, 36
2, 41901, Control_c, 0, 64, 0
2, 41911, Note_off_c, 0, 64, 64
2, 41930, Note_off_c, 0, 40, 64
2, 41957, Control_c, 0, 64, 127
2, 42061, Control_c, 0, 64, 0
2, 42063, Note_on_c, 0, 52, 42
2, 42068, Note_off_c, 0, 69, 64
2, 42069, Note_off_c, 0, 61, 64
2, 42105, Control_c, 0, 64, 127
2, 42112, Note_off_c, 0, 45, 64
2, 42160, Note_on_c, 0, 71, 28
2, 42163, Note_on_c, 0, 68, 31
2, 42203, Note_off_c, 0, 71, 64
2, 42227, Note_off_c, 0, 68, 64
2, 42253, Control_c, 0, 64, 0
2, 42262, Note_on_c, 0, 73, 53
2, 42262, Note_on_c, 0, 67, 57
2, 42267, Note_on_c, 0, 57, 44
2, 42270, Control_c, 0, 64, 0
2, 42274, Note_off_c, 0, 52, 64
2, 42288, Note_off_c, 0, 73, 64
2, 42290, Control_c, 0, 64, 127
2, 42294, Note_off_c, 0, 67, 64
2, 42297, Control_c, 0, 64, 127
2, 42331, Note_on_c, 0, 67, 50
2, 42336, Note_on_c, 0, 73, 53
2, 42363, Note_off_c, 0, 67, 64
2, 42365, Note_off_c, 0, 73, 64
2, 42388, Note_on_c, 0, 73, 50
2, 42396, Note_on_c, 0, 67, 45
2, 42426, Note_off_c, 0, 67, 64
2, 42426, Note_off_c, 0, 73, 64
2, 42462, Control_c, 0, 64, 0
2, 42466, Note_on_c, 0, 74, 54
2, 42469, Control_c, 0, 64, 0
2, 42469, Note_on_c, 0, 66, 58
2, 42472, Note_off_c, 0, 57, 64
2, 42479, Note_on_c, 0, 50, 46
2, 42482, Control_c, 0, 64, 127
2, 42491, Control_c, 0, 64, 127
2, 42547, Note_off_c, 0, 66, 64
2, 42625, Note_off_c, 0, 74, 64
2, 42648, Note_on_c, 0, 71, 52
2, 42652, Note_on_c, 0, 65, 50
2, 42652, Note_on_c, 0, 38, 41
2, 42661, Control_c, 0, 64, 0
2, 42683, Control_c, 0, 64, 127
2, 42687, Note_off_c, 0, 71, 64
2, 42694, Note_off_c, 0, 50, 64
2, 42704, Note_off_c, 0, 65, 64
2, 42820, Note_on_c, 0, 62, 36
2, 42826, Note_on_c, 0, 68, 53
2, 42838, Control_c, 0, 64, 0
2, 42839, Note_on_c, 0, 40, 41
2, 42850, Note_off_c, 0, 62, 64
2, 42867, Note_off_c, 0, 38, 64
2, 42868, Note_off_c, 0, 68, 64
2, 42882, Control_c, 0, 64, 127
2, 42884, Note_on_c, 0, 62, 37
2, 42885, Note_on_c, 0, 66, 59
2, 42936, Note_off_c, 0, 66, 64
2, 42938, Note_off_c, 0, 62, 64
2, 42948, Note_on_c, 0, 62, 37
2, 42952, Note_on_c, 0, 64, 50
2, 42998, Note_off_c, 0, 64, 64
2, 43002, Note_off_c, 0, 62, 64
2, 43018, Note_on_c, 0, 69, 52
2, 43018, Note_on_c, 0, 61, 58
2, 43022, Note_on_c, 0, 45, 37
2, 43030, Control_c, 0, 64, 0
2, 43054, Note_off_c, 0, 40, 64
2, 43074, Control_c, 0, 64, 127
2, 43134, Note_off_c, 0, 61, 64
2, 43138, Note_off_c, 0, 69, 64
2, 43188, Control_c, 0, 64, 0
2, 43199, Note_on_c, 0, 52, 41
2, 43208, Control_c, 0, 64, 127
2, 43237, Note_off_c, 0, 45, 64
2, 43280, Note_on_c, 0, 68, 46
2, 43282, Note_on_c, 0, 71, 50
2, 43319, Note_off_c, 0, 71, 64
2, 43325, Note_off_c, 0, 68, 64
2, 43380, Note_on_c, 0, 67, 48
2, 43380, Control_c, 0, 64, 0
2, 43387, Note_on_c, 0, 73, 65
2, 43387, Note_on_c, 0, 57, 48
2, 43400, Control_c, 0, 64, 127
2, 43403, Note_off_c, 0, 67, 64
2, 43414, Note_off_c, 0, 52, 64
2, 43415, Control_c, 0, 64, 0
2, 43422, Note_off_c, 0, 73, 64
2, 43429, Control_c, 0, 64, 127
2, 43459, Note_on_c, 0, 74, 52
2, 43460, Note_on_c, 0, 67, 42
2, 43494, Note_off_c, 0, 67, 64
2, 43513, Note_off_c, 0, 74, 64
2, 43524, Note_on_c, 0, 76, 57
2, 43528, Note_on_c, 0, 67, 50
2, 43574, Note_off_c, 0, 76, 64
2, 43579, Note_off_c, 0, 67, 64
2, 43597, Note_on_c, 0, 66, 62
2, 43598, Note_on_c, 0, 74, 52
2, 43602, Note_off_c, 0, 57, 64
2, 43607, Note_on_c, 0, 50, 45
2, 43607, Control_c, 0, 64, 0
2, 43612, Control_c, 0, 64, 0
2, 43621, Control_c, 0, 64, 127
2, 43650, Control_c, 0, 64, 127
2, 43675, Note_off_c, 0, 74, 64
2, 43679, Note_off_c, 0, 66, 64
2, 43784, Note_on_c, 0, 65, 50
2, 43790, Note_on_c, 0, 71, 45
2, 43797, Control_c, 0, 64, 0
2, 43801, Note_on_c, 0, 38, 29
2, 43804, Control_c, 0, 64, 0
2, 43815, Control_c, 0, 64, 127
2, 43817, Note_off_c, 0, 50, 64
2, 43839, Note_off_c, 0, 71, 64
2, 43842, Control_c, 0, 64, 127
2, 43849, Note_off_c, 0, 65, 64
2, 43989, Note_on_c, 0, 68, 52
2, 43989, Control_c, 0, 64, 0
2, 43994, Note_on_c, 0, 62, 45
2, 43994, Note_on_c, 0, 40, 55
2, 43997, Control_c, 0, 64, 0
2, 44007, Control_c, 0, 64, 127
2, 44016, Note_off_c, 0, 38, 64
2, 44037, Note_off_c, 0, 62, 64
2, 44049, Note_on_c, 0, 66, 59
2, 44050, Control_c, 0, 64, 127
2, 44057, Note_on_c, 0, 62, 35
2, 44060, Note_off_c, 0, 68, 64
2, 44107, Note_off_c, 0, 62, 64
2, 44107, Note_off_c, 0, 66, 64
2, 44120, Note_on_c, 0, 64, 45
2, 44120, Note_on_c, 0, 62, 45
2, 44166, Note_off_c, 0, 64, 64
2, 44171, Note_on_c, 0, 61, 50
2, 44174, Note_off_c, 0, 62, 64
2, 44174, Note_on_c, 0, 69, 53
2, 44180, Note_on_c, 0, 45, 45
2, 44189, Control_c, 0, 64, 0
2, 44209, Note_off_c, 0, 40, 64
2, 44242, Control_c, 0, 64, 127
2, 44331, Note_off_c, 0, 61, 64
2, 44345, Note_off_c, 0, 69, 64
2, 44378, Note_on_c, 0, 57, 49
2, 44388, Control_c, 0, 64, 0
2, 44395, Note_off_c, 0, 45, 64
2, 44427, Control_c, 0, 64, 127
2, 44560, Note_on_c, 0, 61, 61
2, 44563, Note_on_c, 0, 73, 63
2, 44563, Note_on_c, 0, 54, 55
2, 44564, Note_on_c, 0, 69, 54
2, 44575, Control_c, 0, 64, 0
2, 44580, Control_c, 0, 64, 0
2, 44593, Note_off_c, 0, 57, 64
2, 44600, Note_off_c, 0, 69, 64
2, 44608, Control_c, 0, 64, 127
2, 44615, Note_off_c, 0, 73, 64
2, 44615, Note_off_c, 0, 61, 64
2, 44619, Control_c, 0, 64, 127
2, 44683, Note_on_c, 0, 73, 61
2, 44684, Note_on_c, 0, 69, 54
2, 44687, Note_on_c, 0, 61, 53
2, 44715, Note_off_c, 0, 69, 64
2, 44716, Note_off_c, 0, 73, 64
2, 44736, Note_on_c, 0, 71, 66
2, 44738, Note_on_c, 0, 74, 57
2, 44746, Note_on_c, 0, 62, 67
2, 44749, Note_off_c, 0, 61, 64
2, 44750, Control_c, 0, 64, 0
2, 44767, Control_c, 0, 64, 0
2, 44774, Control_c, 0, 64, 127
2, 44797, Note_off_c, 0, 71, 64
2, 44800, Control_c, 0, 64, 127
2, 44928, Note_on_c, 0, 59, 55
2, 44932, Note_on_c, 0, 68, 59
2, 44933, Note_off_c, 0, 74, 64
2, 44935, Note_on_c, 0, 71, 49
2, 44942, Control_c, 0, 64, 0
2, 44962, Note_off_c, 0, 62, 64
2, 44966, Control_c, 0, 64, 127
2, 44983, Note_off_c, 0, 68, 64
2, 44993, Note_off_c, 0, 59, 64
2, 45006, Note_off_c, 0, 71, 64
2, 45018, Note_off_c, 0, 54, 64
2, 45096, Note_on_c, 0, 54, 33
2, 45108, Control_c, 0, 64, 0
2, 45109, Note_on_c, 0, 73, 57
2, 45109, Note_on_c, 0, 61, 62
2, 45114, Note_on_c, 0, 69, 62
2, 45155, Control_c, 0, 64, 127
2, 45162, Note_off_c, 0, 73, 64
2, 45168, Note_on_c, 0, 68, 57
2, 45169, Note_off_c, 0, 69, 64
2, 45169, Note_on_c, 0, 59, 57
2, 45172, Note_off_c, 0, 61, 64
2, 45172, Note_on_c, 0, 71, 53
2, 45214, Note_off_c, 0, 68, 64
2, 45228, Note_on_c, 0, 57, 53
2, 45230, Note_on_c, 0, 69, 57
2, 45232, Note_on_c, 0, 66, 59
2, 45233, Note_off_c, 0, 71, 64
2, 45241, Note_off_c, 0, 59, 64
2, 45260, Note_off_c, 0, 66, 64
2, 45269, Note_off_c, 0, 69, 64
2, 45292, Note_on_c, 0, 74, 66
2, 45292, Note_on_c, 0, 71, 53
2, 45299, Note_on_c, 0, 62, 59
2, 45300, Control_c, 0, 64, 0
2, 45316, Note_off_c, 0, 57, 64
2, 45347, Control_c, 0, 64, 127
2, 45360, Note_off_c, 0, 71, 64
2, 45483, Note_off_c, 0, 74, 64
2, 45483, Control_c, 0, 64, 0
2, 45488, Note_on_c, 0, 71, 55
2, 45488, Note_on_c, 0, 68, 57
2, 45488, Note_on_c, 0, 59, 57
2, 45519, Note_off_c, 0, 62, 64
2, 45522, Control_c, 0, 64, 127
2, 45532, Note_off_c, 0, 68, 64
2, 45541, Note_off_c, 0, 59, 64
2, 45543, Note_off_c, 0, 71, 64
2, 45551, Note_off_c, 0, 54, 64
2, 45659, Note_on_c, 0, 54, 61
2, 45660, Note_on_c, 0, 73, 62
2, 45663, Note_on_c, 0, 69, 66
2, 45663, Note_on_c, 0, 61, 62
2, 45674, Control_c, 0, 64, 0
2, 45675, Control_c, 0, 64, 0
2, 45687, Control_c, 0, 64, 127
2, 45706, Note_off_c, 0, 73, 64
2, 45708, Note_off_c, 0, 69, 64
2, 45714, Control_c, 0, 64, 127
2, 45720, Note_off_c, 0, 61, 64
2, 45780, Note_on_c, 0, 69, 61
2, 45783, Note_on_c, 0, 73, 52
2, 45790, Note_on_c, 0, 61, 59
2, 45819, Note_off_c, 0, 69, 64
2, 45822, Note_off_c, 0, 73, 64
2, 45848, Note_on_c, 0, 74, 66
2, 45848, Note_on_c, 0, 71, 59
2, 45857, Note_on_c, 0, 62, 68
2, 45861, Note_off_c, 0, 61, 64
2, 45866, Control_c, 0, 64, 0
2, 45879, Control_c, 0, 64, 127
2, 45902, Note_off_c, 0, 71, 64
2, 46022, Control_c, 0, 64, 0
2, 46032, Note_on_c, 0, 71, 59
2, 46033, Note_off_c, 0, 74, 64
2, 46036, Note_on_c, 0, 59, 55
2, 46038, Note_on_c, 0, 68, 63
2, 46046, Control_c, 0, 64, 127
2, 46049, Note_off_c, 0, 62, 64
2, 46084, Note_off_c, 0, 59, 64
2, 46090, Note_off_c, 0, 68, 64
2, 46098, Note_off_c, 0, 71, 64
2, 46114, Note_off_c, 0, 54, 64
2, 46162, Control_c, 0, 64, 127
2, 46196, Note_on_c, 0, 54, 46
2, 46198, Note_on_c, 0, 73, 57
2, 46198, Note_on_c, 0, 69, 58
2, 46198, Note_on_c, 0, 61, 63
2, 46214, Control_c, 0, 64, 0
2, 46238, Note_on_c, 0, 68, 22
2, 46238, Control_c, 0, 64, 127
2, 46240, Note_on_c, 0, 71, 49
2, 46240, Note_on_c, 0, 59, 53
2, 46257, Note_off_c, 0, 73, 64
2, 46262, Note_off_c, 0, 69, 64
2, 46282, Note_off_c, 0, 61, 64
2, 46298, Note_on_c, 0, 69, 59
2, 46298, Note_on_c, 0, 66, 62
2, 46298, Note_on_c, 0, 57, 57
2, 46324, Note_off_c, 0, 68, 64
2, 46325, Note_off_c, 0, 54, 64
2, 46326, Note_off_c, 0, 59, 64
2, 46326, Note_off_c, 0, 71, 64
2, 46354, Control_c, 0, 64, 127
2, 46360, Note_on_c, 0, 90, 94
2, 46360, Note_on_c, 0, 78, 62
2, 46360, Note_on_c, 0, 54, 68
2, 46360, Note_on_c, 0, 42, 62
2, 46458, Note_off_c, 0, 57, 64
2, 46458, Note_off_c, 0, 66, 64
2, 46458, Note_off_c, 0, 69, 64
2, 46512, Note_off_c, 0, 42, 64
2, 46512, Note_off_c, 0, 54, 64
2, 46512, Note_off_c, 0, 78, 64
2, 46512, Note_off_c, 0, 90, 64
2, 46570, Control_c, 0, 64, 0
2, 46592, Note_on_c, 0, 78, 55
2, 46594, Note_on_c, 0, 90, 91
2, 46594, Note_on_c, 0, 42, 68
2, 46595, Note_on_c, 0, 54, 58
2, 46604, Control_c, 0, 64, 127
2, 46748, Control_c, 0, 64, 0
2, 46772, Note_off_c, 0, 78, 64
2, 46774, Note_off_c, 0, 42, 64
2, 46774, Note_off_c, 0, 90, 64
2, 46775, Note_off_c, 0, 54, 64
2, 46794, Control_c, 0, 64, 127
2, 46804, Note_on_c, 0, 73, 63
2, 46804, Note_on_c, 0, 61, 57
2, 46804, Note_on_c, 0, 54, 57
2, 46805, Note_on_c, 0, 69, 61
2, 46822, Control_c, 0, 64, 0
2, 46847, Note_off_c, 0, 69, 64
2, 46850, Note_off_c, 0, 73, 64
2, 46855, Note_off_c, 0, 61, 64
2, 46856, Control_c, 0, 64, 127
2, 46931, Note_on_c, 0, 61, 50
2, 46936, Note_on_c, 0, 69, 55
2, 46940, Note_on_c, 0, 73, 50
2, 46969, Note_on_c, 0, 74, 57
2, 46975, Note_off_c, 0, 73, 64
2, 46982, Note_on_c, 0, 62, 66
2, 46986, Note_on_c, 0, 71, 52
2, 46992, Note_off_c, 0, 61, 64
2, 46997, Note_off_c, 0, 69, 64
2, 47000, Control_c, 0, 64, 0
2, 47039, Note_off_c, 0, 71, 64
2, 47046, Control_c, 0, 64, 127
2, 47173, Note_on_c, 0, 71, 57
2, 47173, Note_on_c, 0, 59, 61
2, 47174, Note_on_c, 0, 68, 57
2, 47181, Note_off_c, 0, 74, 64
2, 47198, Note_off_c, 0, 62, 64
2, 47218, Note_off_c, 0, 68, 64
2, 47226, Note_off_c, 0, 71, 64
2, 47233, Note_off_c, 0, 59, 64
2, 47259, Note_off_c, 0, 54, 64
2, 47301, Control_c, 0, 64, 0
2, 47339, Control_c, 0, 64, 127
2, 47355, Note_on_c, 0, 73, 62
2, 47355, Note_on_c, 0, 69, 62
2, 47355, Note_on_c, 0, 61, 66
2, 47355, Note_on_c, 0, 54, 55
2, 47396, Note_on_c, 0, 68, 57
2, 47402, Note_off_c, 0, 69, 64
2, 47408, Note_off_c, 0, 73, 64
2, 47414, Note_on_c, 0, 59, 57
2, 47422, Note_on_c, 0, 71, 50
2, 47426, Note_off_c, 0, 61, 64
2, 47443, Note_off_c, 0, 68, 64
2, 47470, Note_on_c, 0, 69, 53
2, 47473, Note_on_c, 0, 66, 66
2, 47475, Note_off_c, 0, 71, 64
2, 47491, Note_off_c, 0, 59, 64
2, 47491, Note_on_c, 0, 57, 52
2, 47504, Note_off_c, 0, 66, 64
2, 47514, Note_off_c, 0, 69, 64
2, 47534, Note_on_c, 0, 74, 63
2, 47539, Note_on_c, 0, 62, 66
2, 47541, Note_on_c, 0, 71, 62
2, 47553, Control_c, 0, 64, 0
2, 47563, Note_off_c, 0, 57, 64
2, 47591, Control_c, 0, 64, 127
2, 47597, Note_off_c, 0, 71, 64
2, 47716, Note_off_c, 0, 74, 64
2, 47720, Note_on_c, 0, 68, 62
2, 47726, Note_on_c, 0, 59, 54
2, 47727, Note_on_c, 0, 71, 61
2, 47756, Note_off_c, 0, 68, 64
2, 47760, Note_off_c, 0, 71, 64
2, 47766, Note_off_c, 0, 62, 64
2, 47847, Note_off_c, 0, 59, 64
2, 47892, Note_on_c, 0, 61, 50
2, 47896, Note_on_c, 0, 69, 55
2, 47898, Note_on_c, 0, 73, 57
2, 47918, Control_c, 0, 64, 0
2, 47991, Note_off_c, 0, 61, 64
2, 47996, Note_on_c, 0, 75, 59
2, 48002, Note_on_c, 0, 59, 40
2, 48011, Note_off_c, 0, 73, 64
2, 48031, Control_c, 0, 64, 127
2, 48043, Note_off_c, 0, 69, 64
2, 48113, Note_on_c, 0, 76, 59
2, 48113, Note_on_c, 0, 68, 63
2, 48119, Note_on_c, 0, 52, 52
2, 48127, Note_off_c, 0, 75, 64
2, 48139, Note_off_c, 0, 54, 64
2, 48170, Control_c, 0, 64, 0
2, 48283, Control_c, 0, 64, 127
2, 48352, Note_off_c, 0, 59, 64
2, 48368, Note_off_c, 0, 68, 64
2, 48420, Note_off_c, 0, 76, 64
2, 48498, Note_on_c, 0, 73, 53
2, 48498, Note_on_c, 0, 69, 52
2, 48506, Note_on_c, 0, 61, 49
2, 48564, Control_c, 0, 64, 0
2, 48604, Note_on_c, 0, 75, 36
2, 48609, Note_on_c, 0, 59, 36
2, 48618, Note_off_c, 0, 73, 64
2, 48620, Note_off_c, 0, 69, 64
2, 48627, Note_off_c, 0, 61, 64
2, 48697, Control_c, 0, 64, 127
2, 48724, Note_off_c, 0, 52, 64
2, 48736, Note_off_c, 0, 75, 64
2, 48739, Note_on_c, 0, 78, 54
2, 48746, Note_on_c, 0, 68, 40
2, 48748, Note_on_c, 0, 52, 26
2, 48804, Note_on_c, 0, 76, 52
2, 48807, Note_off_c, 0, 78, 64
2, 48816, Control_c, 0, 64, 0
2, 48949, Control_c, 0, 64, 127
2, 48982, Note_off_c, 0, 76, 64
2, 49093, Note_off_c, 0, 59, 64
2, 49137, Control_c, 0, 64, 0
2, 49183, Control_c, 0, 64, 127
2, 49214, Note_on_c, 0, 74, 41
2, 49239, Note_off_c, 0, 68, 64
2, 49341, Control_c, 0, 64, 0
2, 49353, Note_off_c, 0, 52, 64
2, 49373, Note_on_c, 0, 73, 50
2, 49377, Note_off_c, 0, 74, 64
2, 49377, Note_on_c, 0, 67, 46
2, 49382, Note_on_c, 0, 57, 49
2, 49386, Control_c, 0, 64, 127
2, 49389, Control_c, 0, 64, 0
2, 49429, Note_off_c, 0, 67, 64
2, 49435, Control_c, 0, 64, 127
2, 49442, Note_off_c, 0, 73, 64
2, 49512, Note_on_c, 0, 73, 45
2, 49518, Note_on_c, 0, 67, 36
2, 49546, Note_off_c, 0, 67, 64
2, 49569, Note_on_c, 0, 74, 50
2, 49575, Note_on_c, 0, 66, 45
2, 49577, Note_off_c, 0, 73, 64
2, 49591, Note_on_c, 0, 50, 27
2, 49593, Control_c, 0, 64, 0
2, 49597, Note_off_c, 0, 57, 64
2, 49638, Control_c, 0, 64, 127
2, 49729, Note_off_c, 0, 66, 64
2, 49743, Note_off_c, 0, 74, 64
2, 49752, Control_c, 0, 64, 0
2, 49775, Note_on_c, 0, 71, 52
2, 49777, Note_on_c, 0, 65, 50
2, 49787, Note_on_c, 0, 38, 45
2, 49796, Control_c, 0, 64, 127
2, 49806, Note_off_c, 0, 50, 64
2, 49820, Note_off_c, 0, 71, 64
2, 49842, Note_off_c, 0, 65, 64
2, 49930, Control_c, 0, 64, 0
2, 49951, Control_c, 0, 64, 127
2, 49980, Note_on_c, 0, 62, 49
2, 49984, Note_on_c, 0, 68, 53
2, 49989, Note_on_c, 0, 40, 46
2, 50002, Note_off_c, 0, 38, 64
2, 50004, Control_c, 0, 64, 0
2, 50048, Control_c, 0, 64, 127
2, 50117, Note_off_c, 0, 62, 64
2, 50122, Note_on_c, 0, 64, 41
2, 50129, Note_off_c, 0, 68, 64
2, 50165, Note_on_c, 0, 69, 46
2, 50176, Note_on_c, 0, 61, 58
2, 50181, Note_on_c, 0, 45, 32
2, 50182, Control_c, 0, 64, 0
2, 50192, Note_off_c, 0, 64, 64
2, 50203, Control_c, 0, 64, 127
2, 50204, Note_off_c, 0, 40, 64
2, 50310, Note_off_c, 0, 69, 64
2, 50317, Note_off_c, 0, 61, 64
2, 50319, Control_c, 0, 64, 0
2, 50354, Control_c, 0, 64, 127
2, 50369, Note_on_c, 0, 52, 44
2, 50396, Note_off_c, 0, 45, 64
2, 50454, Note_on_c, 0, 71, 52
2, 50454, Note_on_c, 0, 68, 52
2, 50505, Control_c, 0, 64, 0
2, 50527, Control_c, 0, 64, 127
2, 50548, Note_on_c, 0, 73, 46
2, 50555, Note_on_c, 0, 67, 46
2, 50555, Note_on_c, 0, 57, 50
2, 50562, Note_off_c, 0, 68, 64
2, 50571, Control_c, 0, 64, 0
2, 50577, Note_off_c, 0, 71, 64
2, 50584, Note_off_c, 0, 52, 64
2, 50606, Control_c, 0, 64, 127
2, 50621, Note_off_c, 0, 73, 64
2, 50664, Note_off_c, 0, 67, 64
2, 50684, Control_c, 0, 64, 0
2, 50695, Note_on_c, 0, 76, 45
2, 50718, Control_c, 0, 64, 127
2, 50728, Note_on_c, 0, 50, 46
2, 50736, Note_on_c, 0, 74, 49
2, 50743, Note_on_c, 0, 66, 50
2, 50751, Note_off_c, 0, 76, 64
2, 50757, Control_c, 0, 64, 0
2, 50770, Note_off_c, 0, 57, 64
2, 50779, Control_c, 0, 64, 127
2, 50855, Note_off_c, 0, 66, 64
2, 50882, Control_c, 0, 64, 0
2, 50893, Note_off_c, 0, 74, 64
2, 50897, Control_c, 0, 64, 127
2, 50922, Note_on_c, 0, 71, 49
2, 50928, Note_on_c, 0, 38, 36
2, 50929, Note_on_c, 0, 65, 46
2, 50936, Control_c, 0, 64, 0
2, 50943, Note_off_c, 0, 50, 64
2, 50967, Note_off_c, 0, 71, 64
2, 50970, Control_c, 0, 64, 127
2, 50988, Note_off_c, 0, 65, 64
2, 51064, Control_c, 0, 64, 0
2, 51101, Control_c, 0, 64, 127
2, 51120, Note_on_c, 0, 68, 50
2, 51120, Note_on_c, 0, 40, 52
2, 51122, Note_on_c, 0, 62, 49
2, 51134, Control_c, 0, 64, 0
2, 51143, Note_off_c, 0, 38, 64
2, 51149, Control_c, 0, 64, 127
2, 51172, Note_on_c, 0, 66, 46
2, 51195, Note_off_c, 0, 68, 64
2, 51234, Note_on_c, 0, 64, 39
2, 51247, Note_off_c, 0, 66, 64
2, 51294, Note_off_c, 0, 62, 64
2, 51300, Note_on_c, 0, 69, 53
2, 51304, Note_on_c, 0, 45, 36
2, 51307, Note_on_c, 0, 61, 57
2, 51316, Control_c, 0, 64, 0
2, 51320, Note_off_c, 0, 64, 64
2, 51335, Note_off_c, 0, 40, 64
2, 51353, Control_c, 0, 64, 127
2, 51412, Control_c, 0, 64, 0
2, 51444, Control_c, 0, 64, 127
2, 51487, Note_on_c, 0, 52, 48
2, 51505, Note_off_c, 0, 69, 64
2, 51513, Note_off_c, 0, 61, 64
2, 51519, Note_off_c, 0, 45, 64
2, 51568, Note_on_c, 0, 68, 46
2, 51570, Note_on_c, 0, 71, 46
2, 51604, Note_off_c, 0, 71, 64
2, 51613, Note_off_c, 0, 68, 64
2, 51615, Control_c, 0, 64, 0
2, 51643, Control_c, 0, 64, 127
2, 51664, Control_c, 0, 64, 0
2, 51671, Note_on_c, 0, 73, 50
2, 51674, Note_on_c, 0, 67, 50
2, 51677, Note_on_c, 0, 57, 46
2, 51696, Control_c, 0, 64, 127
2, 51700, Note_off_c, 0, 73, 64
2, 51702, Note_off_c, 0, 52, 64
2, 51703, Note_off_c, 0, 67, 64
2, 51740, Note_on_c, 0, 73, 46
2, 51740, Note_on_c, 0, 67, 45
2, 51764, Note_off_c, 0, 67, 64
2, 51769, Note_off_c, 0, 73, 64
2, 51792, Note_on_c, 0, 67, 53
2, 51800, Note_on_c, 0, 73, 46
2, 51808, Control_c, 0, 64, 0
2, 51831, Note_off_c, 0, 73, 64
2, 51834, Control_c, 0, 64, 127
2, 51843, Note_off_c, 0, 67, 64
2, 51867, Control_c, 0, 64, 0
2, 51873, Note_on_c, 0, 74, 49
2, 51873, Note_on_c, 0, 66, 52
2, 51880, Note_on_c, 0, 50, 50
2, 51892, Note_off_c, 0, 57, 64
2, 51895, Control_c, 0, 64, 127
2, 52001, Note_off_c, 0, 66, 64
2, 52034, Note_off_c, 0, 74, 64
2, 52052, Note_on_c, 0, 71, 49
2, 52052, Note_on_c, 0, 38, 46
2, 52058, Note_on_c, 0, 65, 49
2, 52060, Control_c, 0, 64, 0
2, 52086, Control_c, 0, 64, 127
2, 52090, Note_off_c, 0, 71, 64
2, 52095, Note_off_c, 0, 50, 64
2, 52102, Note_off_c, 0, 65, 64
2, 52184, Control_c, 0, 64, 0
2, 52216, Control_c, 0, 64, 127
2, 52225, Note_on_c, 0, 68, 46
2, 52230, Note_on_c, 0, 62, 45
2, 52237, Note_on_c, 0, 40, 46
2, 52256, Note_off_c, 0, 62, 64
2, 52263, Note_off_c, 0, 68, 64
2, 52267, Note_off_c, 0, 38, 64
2, 52286, Note_on_c, 0, 66, 53
2, 52295, Note_on_c, 0, 62, 41
2, 52315, Note_off_c, 0, 62, 64
2, 52322, Note_off_c, 0, 66, 64
2, 52344, Note_on_c, 0, 62, 41
2, 52351, Note_on_c, 0, 64, 45
2, 52368, Note_off_c, 0, 62, 64
2, 52388, Note_off_c, 0, 64, 64
2, 52420, Note_on_c, 0, 45, 46
2, 52422, Note_on_c, 0, 69, 49
2, 52427, Note_on_c, 0, 61, 52
2, 52436, Control_c, 0, 64, 0
2, 52452, Note_off_c, 0, 40, 64
2, 52468, Control_c, 0, 64, 127
2, 52538, Note_off_c, 0, 61, 64
2, 52551, Note_off_c, 0, 69, 64
2, 52603, Note_on_c, 0, 52, 45
2, 52635, Note_off_c, 0, 45, 64
2, 52696, Note_on_c, 0, 68, 41
2, 52700, Note_on_c, 0, 71, 50
2, 52728, Note_off_c, 0, 68, 64
2, 52736, Note_off_c, 0, 71, 64
2, 52764, Control_c, 0, 64, 0
2, 52788, Control_c, 0, 64, 127
2, 52791, Note_on_c, 0, 73, 57
2, 52797, Note_on_c, 0, 57, 46
2, 52800, Note_on_c, 0, 67, 41
2, 52818, Note_off_c, 0, 52, 64
2, 52819, Note_off_c, 0, 67, 64
2, 52822, Note_off_c, 0, 73, 64
2, 52863, Note_on_c, 0, 67, 45
2, 52868, Note_on_c, 0, 74, 46
2, 52887, Note_off_c, 0, 67, 64
2, 52905, Note_off_c, 0, 74, 64
2, 52928, Note_on_c, 0, 67, 46
2, 52933, Note_on_c, 0, 76, 48
2, 52957, Control_c, 0, 64, 0
2, 52979, Note_off_c, 0, 67, 64
2, 52981, Note_off_c, 0, 76, 64
2, 52995, Control_c, 0, 64, 127
2, 53002, Note_on_c, 0, 74, 41
2, 53002, Note_on_c, 0, 66, 54
2, 53012, Note_off_c, 0, 57, 64
2, 53016, Control_c, 0, 64, 0
2, 53021, Note_on_c, 0, 50, 45
2, 53040, Control_c, 0, 64, 127
2, 53101, Note_off_c, 0, 74, 64
2, 53107, Note_off_c, 0, 66, 64
2, 53192, Note_on_c, 0, 65, 45
2, 53198, Note_on_c, 0, 71, 49
2, 53209, Control_c, 0, 64, 0
2, 53219, Note_on_c, 0, 38, 26
2, 53234, Note_off_c, 0, 50, 64
2, 53247, Control_c, 0, 64, 127
2, 53329, Note_off_c, 0, 65, 64
2, 53334, Note_off_c, 0, 71, 64
2, 53343, Control_c, 0, 64, 0
2, 53395, Control_c, 0, 64, 127
2, 53411, Note_on_c, 0, 68, 46
2, 53412, Note_on_c, 0, 62, 46
2, 53416, Note_on_c, 0, 40, 39
2, 53434, Note_off_c, 0, 38, 64
2, 53454, Note_off_c, 0, 68, 64
2, 53470, Note_on_c, 0, 66, 58
2, 53533, Note_on_c, 0, 64, 41
2, 53539, Note_off_c, 0, 66, 64
2, 53595, Note_on_c, 0, 69, 50
2, 53595, Control_c, 0, 64, 0
2, 53603, Note_on_c, 0, 61, 58
2, 53604, Note_on_c, 0, 45, 48
2, 53609, Note_off_c, 0, 64, 64
2, 53610, Note_off_c, 0, 62, 64
2, 53631, Note_off_c, 0, 40, 64
2, 53647, Control_c, 0, 64, 127
2, 53694, Control_c, 0, 64, 0
2, 53775, Note_on_c, 0, 57, 46
2, 53779, Control_c, 0, 64, 127
2, 53809, Note_off_c, 0, 69, 64
2, 53815, Note_off_c, 0, 61, 64
2, 53819, Note_off_c, 0, 45, 64
2, 53902, Control_c, 0, 64, 0
2, 53946, Control_c, 0, 64, 0
2, 53968, Note_on_c, 0, 54, 52
2, 53969, Note_on_c, 0, 73, 61
2, 53969, Note_on_c, 0, 61, 66
2, 53971, Control_c, 0, 64, 127
2, 53974, Note_on_c, 0, 69, 61
2, 53990, Note_off_c, 0, 57, 64
2, 54015, Note_off_c, 0, 69, 64
2, 54021, Note_off_c, 0, 61, 64
2, 54024, Note_off_c, 0, 73, 64
2, 54031, Control_c, 0, 64, 127
2, 54096, Note_on_c, 0, 73, 52
2, 54099, Note_on_c, 0, 69, 57
2, 54099, Note_on_c, 0, 61, 66
2, 54128, Note_off_c, 0, 69, 64
2, 54133, Note_off_c, 0, 73, 64
2, 54148, Note_on_c, 0, 74, 62
2, 54152, Note_on_c, 0, 71, 57
2, 54154, Control_c, 0, 64, 0
2, 54160, Note_on_c, 0, 62, 72
2, 54162, Note_off_c, 0, 61, 64
2, 54213, Note_off_c, 0, 71, 64
2, 54223, Control_c, 0, 64, 127
2, 54277, Control_c, 0, 64, 0
2, 54304, Control_c, 0, 64, 127
2, 54348, Note_on_c, 0, 59, 52
2, 54351, Note_on_c, 0, 71, 52
2, 54351, Note_on_c, 0, 68, 62
2, 54364, Note_off_c, 0, 62, 64
2, 54364, Note_off_c, 0, 74, 64
2, 54407, Note_off_c, 0, 68, 64
2, 54414, Note_off_c, 0, 71, 64
2, 54417, Note_off_c, 0, 59, 64
2, 54423, Note_off_c, 0, 54, 64
2, 54468, Control_c, 0, 64, 0
2, 54513, Note_on_c, 0, 69, 62
2, 54514, Note_on_c, 0, 54, 59
2, 54514, Control_c, 0, 64, 127
2, 54515, Note_on_c, 0, 73, 61
2, 54519, Note_on_c, 0, 61, 66
2, 54529, Control_c, 0, 64, 0
2, 54556, Control_c, 0, 64, 127
2, 54570, Note_on_c, 0, 68, 67
2, 54574, Note_on_c, 0, 59, 62
2, 54577, Note_on_c, 0, 71, 57
2, 54582, Note_off_c, 0, 73, 64
2, 54584, Note_off_c, 0, 69, 64
2, 54589, Note_off_c, 0, 61, 64
2, 54613, Note_off_c, 0, 68, 64
2, 54634, Note_on_c, 0, 69, 57
2, 54640, Note_off_c, 0, 71, 64
2, 54640, Note_on_c, 0, 66, 55
2, 54650, Note_on_c, 0, 57, 50
2, 54653, Note_off_c, 0, 59, 64
2, 54672, Note_off_c, 0, 69, 64
2, 54685, Note_off_c, 0, 66, 64
2, 54698, Note_on_c, 0, 74, 62
2, 54704, Note_on_c, 0, 62, 67
2, 54705, Note_on_c, 0, 71, 58
2, 54718, Note_off_c, 0, 57, 64
2, 54720, Control_c, 0, 64, 0
2, 54764, Note_off_c, 0, 71, 64
2, 54766, Control_c, 0, 64, 127
2, 54836, Control_c, 0, 64, 0
2, 54875, Control_c, 0, 64, 127
2, 54894, Note_on_c, 0, 68, 59
2, 54900, Note_on_c, 0, 59, 61
2, 54904, Note_off_c, 0, 74, 64
2, 54904, Note_on_c, 0, 71, 57
2, 54927, Note_off_c, 0, 62, 64
2, 54944, Note_off_c, 0, 68, 64
2, 54946, Note_off_c, 0, 59, 64
2, 54959, Note_off_c, 0, 71, 64
2, 54969, Note_off_c, 0, 54, 64
2, 55012, Control_c, 0, 64, 0
2, 55046, Control_c, 0, 64, 127
2, 55072, Note_on_c, 0, 54, 39
2, 55075, Note_on_c, 0, 69, 66
2, 55075, Note_on_c, 0, 61, 57
2, 55077, Note_on_c, 0, 73, 63
2, 55088, Control_c, 0, 64, 0
2, 55119, Note_off_c, 0, 69, 64
2, 55126, Note_off_c, 0, 73, 64
2, 55127, Control_c, 0, 64, 127
2, 55133, Note_off_c, 0, 61, 64
2, 55181, Control_c, 0, 64, 0
2, 55192, Note_on_c, 0, 73, 41
2, 55198, Note_on_c, 0, 61, 62
2, 55199, Note_on_c, 0, 69, 53
2, 55208, Control_c, 0, 64, 127
2, 55227, Note_off_c, 0, 73, 64
2, 55229, Note_off_c, 0, 69, 64
2, 55252, Note_on_c, 0, 74, 62
2, 55252, Note_on_c, 0, 71, 62
2, 55257, Note_off_c, 0, 61, 64
2, 55261, Note_on_c, 0, 62, 70
2, 55264, Control_c, 0, 64, 0
2, 55298, Control_c, 0, 64, 127
2, 55316, Note_off_c, 0, 71, 64
2, 55349, Control_c, 0, 64, 0
2, 55374, Control_c, 0, 64, 127
2, 55433, Control_c, 0, 64, 0
2, 55440, Note_on_c, 0, 71, 62
2, 55440, Note_on_c, 0, 68, 63
2, 55445, Note_on_c, 0, 59, 52
2, 55447, Note_off_c, 0, 74, 64
2, 55457, Note_off_c, 0, 62, 64
2, 55460, Control_c, 0, 64, 127
2, 55487, Note_off_c, 0, 68, 64
2, 55496, Note_off_c, 0, 71, 64
2, 55499, Note_off_c, 0, 59, 64
2, 55527, Note_off_c, 0, 54, 64
2, 55596, Note_on_c, 0, 54, 59
2, 55601, Note_on_c, 0, 61, 61
2, 55601, Control_c, 0, 64, 0
2, 55604, Note_on_c, 0, 69, 57
2, 55607, Note_on_c, 0, 73, 52
2, 55609, Note_on_c, 0, 66, 67
2, 55626, Control_c, 0, 64, 127
2, 55660, Note_off_c, 0, 66, 64
2, 55660, Note_on_c, 0, 68, 45
2, 55664, Note_off_c, 0, 73, 64
2, 55664, Note_on_c, 0, 59, 36
2, 55666, Note_on_c, 0, 71, 52
2, 55670, Note_off_c, 0, 61, 64
2, 55680, Note_off_c, 0, 69, 64
2, 55702, Note_off_c, 0, 68, 64
2, 55708, Note_on_c, 0, 69, 54
2, 55708, Note_on_c, 0, 66, 52
2, 55708, Note_on_c, 0, 57, 40
2, 55719, Note_off_c, 0, 71, 64
2, 55722, Note_off_c, 0, 59, 64
2, 55735, Note_off_c, 0, 54, 64
2, 55752, Note_off_c, 0, 66, 64
2, 55756, Note_off_c, 0, 69, 64
2, 55762, Note_off_c, 0, 57, 64
2, 55792, Note_on_c, 0, 42, 65
2, 55798, Note_on_c, 0, 90, 102
2, 55798, Note_on_c, 0, 78, 62
2, 55800, Note_on_c, 0, 54, 68
2, 55946, Control_c, 0, 64, 0
2, 55972, Note_off_c, 0, 42, 64
2, 55978, Note_off_c, 0, 78, 64
2, 55978, Note_off_c, 0, 90, 64
2, 55980, Note_off_c, 0, 54, 64
2, 55982, Note_on_c, 0, 90, 100
2, 55982, Note_on_c, 0, 78, 62
2, 55982, Note_on_c, 0, 42, 68
2, 55984, Note_on_c, 0, 54, 67
2, 55985, Control_c, 0, 64, 127
2, 56162, Note_off_c, 0, 42, 64
2, 56162, Note_off_c, 0, 78, 64
2, 56162, Note_off_c, 0, 90, 64
2, 56164, Note_off_c, 0, 54, 64
2, 56176, Note_on_c, 0, 69, 66
2, 56176, Note_on_c, 0, 61, 36
2, 56176, Note_on_c, 0, 54, 58
2, 56178, Note_on_c, 0, 73, 50
2, 56198, Note_off_c, 0, 61, 64
2, 56198, Control_c, 0, 64, 0
2, 56217, Note_off_c, 0, 69, 64
2, 56236, Note_off_c, 0, 73, 64
2, 56237, Control_c, 0, 64, 127
2, 56320, Note_on_c, 0, 61, 62
2, 56321, Note_on_c, 0, 73, 53
2, 56321, Note_on_c, 0, 69, 70
2, 56327, Control_c, 0, 64, 0
2, 56342, Control_c, 0, 64, 127
2, 56352, Note_off_c, 0, 69, 64
2, 56352, Note_off_c, 0, 73, 64
2, 56364, Note_off_c, 0, 61, 64
2, 56373, Note_on_c, 0, 62, 63
2, 56377, Note_on_c, 0, 74, 66
2, 56377, Note_on_c, 0, 71, 62
2, 56426, Note_off_c, 0, 71, 64
2, 56566, Note_on_c, 0, 71, 62
2, 56570, Note_on_c, 0, 59, 57
2, 56571, Note_on_c, 0, 68, 63
2, 56579, Control_c, 0, 64, 0
2, 56584, Note_off_c, 0, 74, 64
2, 56586, Note_off_c, 0, 62, 64
2, 56594, Control_c, 0, 64, 127
2, 56631, Note_off_c, 0, 54, 64
2, 56661, Note_off_c, 0, 68, 64
2, 56689, Control_c, 0, 64, 0
2, 56699, Note_off_c, 0, 59, 64
2, 56699, Note_off_c, 0, 71, 64
2, 56726, Control_c, 0, 64, 127
2, 56740, Note_on_c, 0, 73, 62
2, 56740, Note_on_c, 0, 69, 63
2, 56744, Note_on_c, 0, 54, 59
2, 56747, Note_on_c, 0, 61, 62
2, 56786, Note_off_c, 0, 73, 64
2, 56787, Note_off_c, 0, 69, 64
2, 56800, Note_on_c, 0, 68, 55
2, 56803, Note_on_c, 0, 59, 52
2, 56805, Note_on_c, 0, 71, 62
2, 56812, Note_off_c, 0, 61, 64
2, 56840, Note_off_c, 0, 68, 64
2, 56864, Note_on_c, 0, 66, 61
2, 56864, Note_on_c, 0, 57, 26
2, 56866, Note_on_c, 0, 69, 55
2, 56872, Note_off_c, 0, 71, 64
2, 56887, Note_off_c, 0, 59, 64
2, 56904, Note_off_c, 0, 69, 64
2, 56913, Note_off_c, 0, 57, 64
2, 56923, Note_off_c, 0, 66, 64
2, 56924, Note_on_c, 0, 74, 66
2, 56933, Note_on_c, 0, 71, 62
2, 56933, Note_on_c, 0, 62, 66
2, 56941, Control_c, 0, 64, 0
2, 56978, Control_c, 0, 64, 127
2, 56997, Note_off_c, 0, 71, 64
2, 57117, Note_on_c, 0, 59, 50
2, 57119, Note_on_c, 0, 71, 58
2, 57123, Note_on_c, 0, 68, 61
2, 57130, Note_off_c, 0, 74, 64
2, 57149, Note_off_c, 0, 62, 64
2, 57191, Note_off_c, 0, 68, 64
2, 57262, Note_off_c, 0, 59, 64
2, 57275, Note_off_c, 0, 71, 64
2, 57297, Note_on_c, 0, 73, 61
2, 57297, Note_on_c, 0, 69, 63
2, 57300, Note_on_c, 0, 61, 41
2, 57325, Control_c, 0, 64, 0
2, 57335, Note_off_c, 0, 73, 64
2, 57396, Note_off_c, 0, 61, 64
2, 57396, Note_on_c, 0, 59, 55
2, 57402, Note_on_c, 0, 75, 66
2, 57447, Note_off_c, 0, 54, 64
2, 57458, Note_off_c, 0, 69, 64
2, 57476, Control_c, 0, 64, 127
2, 57521, Note_off_c, 0, 75, 64
2, 57531, Note_on_c, 0, 68, 63
2, 57531, Note_on_c, 0, 52, 36
2, 57535, Note_on_c, 0, 76, 57
2, 57577, Control_c, 0, 64, 0
2, 57728, Control_c, 0, 64, 127
2, 57748, Control_c, 0, 64, 0
2, 57771, Control_c, 0, 64, 127
2, 57829, Note_off_c, 0, 76, 64
2, 57849, Note_off_c, 0, 59, 64
2, 57915, Note_off_c, 0, 68, 64
2, 57972, Note_on_c, 0, 73, 61
2, 57972, Note_on_c, 0, 69, 55
2, 57978, Note_on_c, 0, 61, 55
2, 58000, Control_c, 0, 64, 0
2, 58023, Control_c, 0, 64, 127
2, 58080, Control_c, 0, 64, 0
2, 58082, Note_on_c, 0, 59, 55
2, 58092, Note_on_c, 0, 75, 57
2, 58098, Note_off_c, 0, 73, 64
2, 58127, Note_off_c, 0, 69, 64
2, 58144, Note_off_c, 0, 61, 64
2, 58156, Note_off_c, 0, 52, 64
2, 58249, Control_c, 0, 64, 127
2, 58255, Note_on_c, 0, 52, 52
2, 58280, Note_on_c, 0, 68, 45
2, 58285, Note_on_c, 0, 78, 52
2, 58295, Note_off_c, 0, 75, 64
2, 58332, Control_c, 0, 64, 0
2, 58338, Note_on_c, 0, 76, 57
2, 58348, Note_off_c, 0, 78, 64
2, 58501, Control_c, 0, 64, 127
2, 58558, Note_off_c, 0, 76, 64
2, 58683, Note_off_c, 0, 59, 64
2, 58837, Note_on_c, 0, 74, 50
2, 58849, Control_c, 0, 64, 0
2, 58884, Control_c, 0, 64, 127
2, 58946, Note_off_c, 0, 68, 64
2, 58950, Note_off_c, 0, 52, 64
2, 58973, Note_off_c, 0, 74, 64
2, 59048, Control_c, 0, 64, 0
2, 59063, Note_on_c, 0, 67, 41
2, 59066, Note_on_c, 0, 73, 46
2, 59073, Note_on_c, 0, 57, 31
2, 59093, Control_c, 0, 64, 127
2, 59101, Control_c, 0, 64, 0
2, 59135, Note_off_c, 0, 73, 64
2, 59136, Control_c, 0, 64, 127
2, 59172, Note_off_c, 0, 67, 64
2, 59232, Note_on_c, 0, 73, 41
2, 59245, Control_c, 0, 64, 0
2, 59268, Note_on_c, 0, 74, 46
2, 59270, Control_c, 0, 64, 127
2, 59272, Note_on_c, 0, 66, 31
2, 59282, Note_off_c, 0, 73, 64
2, 59290, Note_off_c, 0, 57, 64
2, 59292, Note_on_c, 0, 50, 45
2, 59300, Control_c, 0, 64, 0
2, 59345, Control_c, 0, 64, 127
2, 59431, Note_off_c, 0, 74, 64
2, 59443, Note_off_c, 0, 66, 64
2, 59446, Control_c, 0, 64, 0
2, 59474, Note_on_c, 0, 71, 48
2, 59479, Control_c, 0, 64, 127
2, 59483, Note_on_c, 0, 65, 41
2, 59489, Note_on_c, 0, 38, 44
2, 59497, Control_c, 0, 64, 0
2, 59507, Note_off_c, 0, 50, 64
2, 59522, Control_c, 0, 64, 127
2, 59539, Note_off_c, 0, 71, 64
2, 59586, Note_off_c, 0, 65, 64
2, 59637, Control_c, 0, 64, 0
2, 59678, Note_on_c, 0, 68, 41
2, 59685, Note_on_c, 0, 40, 44
2, 59686, Note_on_c, 0, 62, 46
2, 59690, Control_c, 0, 64, 127
2, 59698, Control_c, 0, 64, 0
2, 59704, Note_off_c, 0, 38, 64
2, 59731, Control_c, 0, 64, 127
2, 59790, Note_off_c, 0, 62, 64
2, 59820, Note_off_c, 0, 68, 64
2, 59836, Note_on_c, 0, 64, 37
2, 59869, Note_on_c, 0, 69, 49
2, 59875, Note_on_c, 0, 45, 39
2, 59882, Note_on_c, 0, 61, 54
2, 59889, Control_c, 0, 64, 0
2, 59895, Note_off_c, 0, 64, 64
2, 59900, Note_off_c, 0, 40, 64
2, 59942, Control_c, 0, 64, 127
2, 59996, Note_off_c, 0, 61, 64
2, 60013, Note_off_c, 0, 69, 64
2, 60032, Control_c, 0, 64, 0
2, 60057, Control_c, 0, 64, 127
2, 60065, Note_on_c, 0, 52, 40
2, 60082, Note_off_c, 0, 45, 64
2, 60160, Note_on_c, 0, 68, 45
2, 60169, Note_on_c, 0, 71, 49
2, 60262, Note_on_c, 0, 73, 53
2, 60266, Note_on_c, 0, 57, 44
2, 60270, Note_on_c, 0, 67, 41
2, 60275, Note_off_c, 0, 68, 64
2, 60280, Note_off_c, 0, 52, 64
2, 60284, Control_c, 0, 64, 0
2, 60295, Note_off_c, 0, 71, 64
2, 60309, Control_c, 0, 64, 127
2, 60351, Note_off_c, 0, 73, 64
2, 60420, Note_off_c, 0, 67, 64
2, 60420, Note_on_c, 0, 76, 46
2, 60420, Control_c, 0, 64, 0
2, 60447, Control_c, 0, 64, 127
2, 60462, Note_on_c, 0, 50, 48
2, 60467, Note_on_c, 0, 74, 46
2, 60472, Note_on_c, 0, 66, 58
2, 60481, Note_off_c, 0, 57, 64
2, 60481, Note_off_c, 0, 76, 64
2, 60600, Note_off_c, 0, 66, 64
2, 60622, Control_c, 0, 64, 0
2, 60630, Note_off_c, 0, 74, 64
2, 60635, Control_c, 0, 64, 127
2, 60660, Note_on_c, 0, 71, 50
2, 60665, Note_on_c, 0, 65, 45
2, 60672, Control_c, 0, 64, 0
2, 60676, Note_on_c, 0, 38, 20
2, 60687, Note_off_c, 0, 50, 64
2, 60699, Control_c, 0, 64, 127
2, 60719, Note_off_c, 0, 71, 64
2, 60753, Note_off_c, 0, 65, 64
2, 60799, Control_c, 0, 64, 0
2, 60839, Control_c, 0, 64, 127
2, 60850, Note_on_c, 0, 68, 46
2, 60857, Note_on_c, 0, 62, 46
2, 60864, Note_on_c, 0, 40, 37
2, 60874, Control_c, 0, 64, 0
2, 60887, Control_c, 0, 64, 127
2, 60891, Note_off_c, 0, 38, 64
2, 60909, Note_on_c, 0, 66, 40
2, 60926, Note_off_c, 0, 68, 64
2, 60932, Note_off_c, 0, 62, 64
2, 60962, Note_on_c, 0, 64, 48
2, 60979, Note_off_c, 0, 66, 64
2, 61030, Note_on_c, 0, 69, 45
2, 61031, Note_on_c, 0, 61, 50
2, 61042, Note_on_c, 0, 45, 31
2, 61047, Note_off_c, 0, 64, 64
2, 61051, Control_c, 0, 64, 0
2, 61079, Note_off_c, 0, 40, 64
2, 61091, Control_c, 0, 64, 127
2, 61130, Note_off_c, 0, 61, 64
2, 61183, Note_off_c, 0, 69, 64
2, 61212, Note_on_c, 0, 52, 39
2, 61257, Note_off_c, 0, 45, 64
2, 61312, Note_on_c, 0, 71, 37
2, 61318, Note_on_c, 0, 68, 50
2, 61364, Control_c, 0, 64, 0
2, 61380, Note_off_c, 0, 68, 64
2, 61382, Control_c, 0, 64, 127
2, 61385, Note_off_c, 0, 71, 64
2, 61410, Note_on_c, 0, 73, 58
2, 61416, Note_on_c, 0, 57, 41
2, 61418, Note_on_c, 0, 67, 55
2, 61427, Note_off_c, 0, 52, 64
2, 61445, Note_off_c, 0, 73, 64
2, 61447, Note_off_c, 0, 67, 64
2, 61480, Note_on_c, 0, 67, 50
2, 61485, Note_on_c, 0, 73, 54
2, 61504, Note_off_c, 0, 67, 64
2, 61515, Note_off_c, 0, 73, 64
2, 61538, Note_on_c, 0, 73, 52
2, 61540, Note_on_c, 0, 67, 59
2, 61564, Note_off_c, 0, 67, 64
2, 61565, Control_c, 0, 64, 0
2, 61572, Note_off_c, 0, 73, 64
2, 61587, Control_c, 0, 64, 127
2, 61611, Note_on_c, 0, 74, 54
2, 61616, Control_c, 0, 64, 0
2, 61622, Note_on_c, 0, 66, 57
2, 61626, Note_on_c, 0, 50, 45
2, 61631, Note_off_c, 0, 57, 64
2, 61634, Control_c, 0, 64, 127
2, 61734, Note_off_c, 0, 66, 64
2, 61761, Note_off_c, 0, 74, 64
2, 61806, Note_on_c, 0, 71, 48
2, 61811, Note_on_c, 0, 65, 46
2, 61811, Note_on_c, 0, 38, 45
2, 61817, Control_c, 0, 64, 0
2, 61839, Control_c, 0, 64, 127
2, 61841, Note_off_c, 0, 50, 64
2, 61844, Note_off_c, 0, 71, 64
2, 61863, Note_off_c, 0, 65, 64
2, 61951, Control_c, 0, 64, 0
2, 61989, Note_on_c, 0, 68, 52
2, 61990, Note_on_c, 0, 62, 50
2, 61994, Control_c, 0, 64, 127
2, 61997, Note_on_c, 0, 40, 49
2, 62026, Note_off_c, 0, 38, 64
2, 62028, Note_off_c, 0, 62, 64
2, 62032, Note_off_c, 0, 68, 64
2, 62051, Note_on_c, 0, 66, 62
2, 62058, Note_on_c, 0, 62, 45
2, 62112, Note_on_c, 0, 64, 45
2, 62114, Note_off_c, 0, 66, 64
2, 62136, Note_off_c, 0, 62, 64
2, 62159, Note_off_c, 0, 64, 64
2, 62179, Note_on_c, 0, 69, 52
2, 62184, Note_on_c, 0, 61, 58
2, 62194, Note_on_c, 0, 45, 31
2, 62203, Control_c, 0, 64, 0
2, 62212, Note_off_c, 0, 40, 64
2, 62246, Control_c, 0, 64, 127
2, 62301, Note_off_c, 0, 61, 64
2, 62313, Note_off_c, 0, 69, 64
2, 62370, Note_on_c, 0, 52, 32
2, 62409, Note_off_c, 0, 45, 64
2, 62465, Note_on_c, 0, 68, 41
2, 62468, Note_on_c, 0, 71, 45
2, 62505, Note_off_c, 0, 68, 64
2, 62506, Note_off_c, 0, 71, 64
2, 62568, Note_on_c, 0, 67, 46
2, 62570, Note_on_c, 0, 73, 58
2, 62575, Note_on_c, 0, 57, 41
2, 62582, Note_off_c, 0, 67, 64
2, 62585, Note_off_c, 0, 52, 64
2, 62603, Note_off_c, 0, 73, 64
2, 62648, Note_on_c, 0, 74, 53
2, 62650, Note_on_c, 0, 67, 52
2, 62676, Note_off_c, 0, 67, 64
2, 62684, Note_off_c, 0, 74, 64
2, 62708, Note_on_c, 0, 67, 59
2, 62712, Note_on_c, 0, 76, 57
2, 62732, Note_off_c, 0, 67, 64
2, 62757, Control_c, 0, 64, 0
2, 62760, Note_off_c, 0, 76, 64
2, 62780, Note_on_c, 0, 50, 48
2, 62784, Note_on_c, 0, 66, 57
2, 62785, Note_on_c, 0, 74, 57
2, 62788, Control_c, 0, 64, 127
2, 62790, Note_off_c, 0, 57, 64
2, 62828, Note_off_c, 0, 74, 64
2, 62866, Note_off_c, 0, 66, 64
2, 62984, Note_on_c, 0, 65, 45
2, 62988, Note_on_c, 0, 71, 46
2, 62992, Note_on_c, 0, 38, 32
2, 62995, Note_off_c, 0, 50, 64
2, 63009, Control_c, 0, 64, 0
2, 63040, Control_c, 0, 64, 127
2, 63064, Note_off_c, 0, 71, 64
2, 63095, Note_off_c, 0, 65, 64
2, 63207, Note_off_c, 0, 38, 64
2, 63208, Control_c, 0, 64, 0
2, 63208, Note_on_c, 0, 68, 48
2, 63213, Note_on_c, 0, 62, 53
2, 63216, Note_on_c, 0, 40, 45
2, 63243, Control_c, 0, 64, 127
2, 63247, Note_off_c, 0, 62, 64
2, 63256, Note_off_c, 0, 68, 64
2, 63276, Note_on_c, 0, 66, 58
2, 63276, Note_on_c, 0, 62, 42
2, 63318, Note_off_c, 0, 62, 64
2, 63348, Note_off_c, 0, 66, 64
2, 63348, Note_on_c, 0, 62, 53
2, 63351, Note_on_c, 0, 64, 45
2, 63402, Note_off_c, 0, 62, 64
2, 63419, Note_off_c, 0, 64, 64
2, 63431, Note_off_c, 0, 40, 64
2, 63436, Note_on_c, 0, 69, 50
2, 63442, Note_on_c, 0, 61, 52
2, 63448, Note_on_c, 0, 33, 31
2, 63450, Note_on_c, 0, 45, 31
2, 63460, Control_c, 0, 64, 0
2, 63495, Control_c, 0, 64, 127
2, 63546, Note_off_c, 0, 61, 64
2, 63559, Control_c, 0, 64, 0
2, 63568, Note_off_c, 0, 69, 64
2, 63593, Control_c, 0, 64, 127
2, 63688, Note_off_c, 0, 33, 64
2, 63690, Note_off_c, 0, 45, 64
2, 63708, Control_c, 0, 64, 0
2, 63743, Control_c, 0, 64, 127
2, 63779, Note_on_c, 0, 76, 57
2, 63811, Control_c, 0, 64, 0
2, 63845, Control_c, 0, 64, 127
2, 63960, Control_c, 0, 64, 0
2, 63995, Control_c, 0, 64, 127
2, 63997, Control_c, 0, 64, 0
2, 64020, Note_on_c, 0, 77, 50
2, 64031, Note_off_c, 0, 76, 64
2, 64041, Control_c, 0, 64, 127
2, 64185, Note_off_c, 0, 77, 64
2, 64198, Note_on_c, 0, 76, 52
2, 64199, Control_c, 0, 64, 0
2, 64228, Note_on_c, 0, 65, 36
2, 64228, Note_on_c, 0, 62, 41
2, 64236, Note_on_c, 0, 57, 24
2, 64240, Control_c, 0, 64, 127
2, 64241, Note_on_c, 0, 74, 48
2, 64249, Control_c, 0, 64, 0
2, 64261, Note_off_c, 0, 76, 64
2, 64293, Control_c, 0, 64, 127
2, 64363, Control_c, 0, 64, 0
2, 64393, Note_off_c, 0, 62, 64
2, 64393, Note_off_c, 0, 65, 64
2, 64401, Note_off_c, 0, 57, 64
2, 64401, Control_c, 0, 64, 127
2, 64425, Note_on_c, 0, 77, 52
2, 64434, Note_on_c, 0, 62, 28
2, 64434, Note_on_c, 0, 57, 44
2, 64436, Note_on_c, 0, 65, 41
2, 64442, Note_off_c, 0, 74, 64
2, 64451, Control_c, 0, 64, 0
2, 64492, Control_c, 0, 64, 127
2, 64529, Note_off_c, 0, 77, 64
2, 64552, Control_c, 0, 64, 0
2, 64595, Control_c, 0, 64, 127
2, 64607, Note_on_c, 0, 77, 50
2, 64615, Control_c, 0, 64, 0
2, 64621, Note_off_c, 0, 65, 64
2, 64621, Note_off_c, 0, 57, 64
2, 64630, Note_off_c, 0, 62, 64
2, 64653, Control_c, 0, 64, 127
2, 64712, Control_c, 0, 64, 0
2, 64765, Control_c, 0, 64, 127
2, 64781, Note_on_c, 0, 65, 36
2, 64782, Note_on_c, 0, 60, 36
2, 64789, Note_on_c, 0, 57, 31
2, 64804, Control_c, 0, 64, 0
2, 64847, Control_c, 0, 64, 127
2, 64946, Note_off_c, 0, 65, 64
2, 64947, Note_off_c, 0, 60, 64
2, 64954, Note_off_c, 0, 57, 64
2, 64962, Note_on_c, 0, 76, 45
2, 64964, Control_c, 0, 64, 0
2, 64972, Note_on_c, 0, 64, 35
2, 64972, Note_on_c, 0, 60, 32
2, 64972, Note_on_c, 0, 57, 35
2, 64978, Note_off_c, 0, 77, 64
2, 65017, Control_c, 0, 64, 127
2, 65066, Control_c, 0, 64, 0
2, 65085, Note_off_c, 0, 76, 64
2, 65102, Control_c, 0, 64, 127
2, 65112, Note_off_c, 0, 64, 64
2, 65114, Note_off_c, 0, 60, 64
2, 65122, Note_on_c, 0, 74, 55
2, 65126, Note_off_c, 0, 57, 64
2, 65144, Note_on_c, 0, 76, 52
2, 65157, Note_off_c, 0, 74, 64
2, 65187, Note_on_c, 0, 74, 59
2, 65204, Note_off_c, 0, 76, 64
2, 65240, Note_on_c, 0, 73, 63
2, 65242, Control_c, 0, 64, 0
2, 65245, Note_off_c, 0, 74, 64
2, 65275, Control_c, 0, 64, 127
2, 65293, Note_off_c, 0, 73, 64
2, 65298, Note_on_c, 0, 74, 59
2, 65301, Note_on_c, 0, 56, 36
2, 65305, Note_on_c, 0, 52, 37
2, 65309, Note_on_c, 0, 62, 40
2, 65318, Control_c, 0, 64, 0
2, 65354, Control_c, 0, 64, 127
2, 65386, Note_on_c, 0, 75, 54
2, 65407, Note_off_c, 0, 74, 64
2, 65466, Note_off_c, 0, 56, 64
2, 65470, Note_off_c, 0, 52, 64
2, 65473, Note_on_c, 0, 56, 39
2, 65474, Note_off_c, 0, 62, 64
2, 65478, Note_off_c, 0, 75, 64
2, 65481, Note_on_c, 0, 76, 55
2, 65483, Note_on_c, 0, 52, 41
2, 65486, Note_on_c, 0, 62, 35
2, 65494, Control_c, 0, 64, 0
2, 65527, Control_c, 0, 64, 127
2, 65557, Note_on_c, 0, 71, 66
2, 65586, Note_off_c, 0, 76, 64
2, 65610, Note_off_c, 0, 62, 64
2, 65610, Note_off_c, 0, 56, 64
2, 65619, Note_off_c, 0, 52, 64
2, 65655, Control_c, 0, 64, 0
2, 65656, Note_on_c, 0, 74, 59
2, 65678, Note_off_c, 0, 71, 64
2, 65695, Control_c, 0, 64, 127
2, 65860, Note_on_c, 0, 45, 36
2, 65868, Control_c, 0, 64, 0
2, 65889, Control_c, 0, 64, 127
2, 65907, Control_c, 0, 64, 0
2, 65947, Control_c, 0, 64, 127
2, 66096, Note_on_c, 0, 52, 35
2, 66109, Note_on_c, 0, 72, 49
2, 66111, Note_on_c, 0, 60, 23
2, 66120, Control_c, 0, 64, 0
2, 66141, Control_c, 0, 64, 127
2, 66147, Note_off_c, 0, 74, 64
2, 66222, Control_c, 0, 64, 0
2, 66267, Control_c, 0, 64, 127
2, 66307, Note_off_c, 0, 72, 64
2, 66313, Note_off_c, 0, 45, 64
2, 66316, Note_on_c, 0, 69, 49
2, 66322, Note_off_c, 0, 52, 64
2, 66324, Note_off_c, 0, 60, 64
2, 66369, Note_off_c, 0, 69, 64
2, 66369, Note_on_c, 0, 71, 48
2, 66396, Control_c, 0, 64, 0
2, 66400, Note_on_c, 0, 69, 68
2, 66414, Note_off_c, 0, 71, 64
2, 66429, Control_c, 0, 64, 127
2, 66453, Note_off_c, 0, 69, 64
2, 66460, Note_on_c, 0, 52, 50
2, 66461, Note_on_c, 0, 60, 44
2, 66464, Note_on_c, 0, 68, 76
2, 66474, Control_c, 0, 64, 0
2, 66519, Control_c, 0, 64, 127
2, 66632, Note_on_c, 0, 45, 49
2, 66636, Note_on_c, 0, 69, 63
2, 66647, Note_off_c, 0, 68, 64
2, 66648, Control_c, 0, 64, 0
2, 66681, Control_c, 0, 64, 127
2, 66717, Note_off_c, 0, 52, 64
2, 66729, Note_off_c, 0, 60, 64
2, 66754, Control_c, 0, 64, 0
2, 66768, Note_off_c, 0, 45, 64
2, 66798, Note_on_c, 0, 71, 66
2, 66800, Note_off_c, 0, 69, 64
2, 66807, Control_c, 0, 64, 127
2, 66981, Note_on_c, 0, 55, 58
2, 66984, Note_on_c, 0, 76, 70
2, 66990, Note_on_c, 0, 52, 58
2, 66995, Note_on_c, 0, 59, 49
2, 66996, Note_off_c, 0, 71, 64
2, 67006, Control_c, 0, 64, 0
2, 67059, Control_c, 0, 64, 127
2, 67129, Control_c, 0, 64, 0
2, 67138, Note_off_c, 0, 76, 64
2, 67165, Control_c, 0, 64, 127
2, 67174, Note_on_c, 0, 47, 55
2, 67176, Note_off_c, 0, 55, 64
2, 67185, Note_off_c, 0, 52, 64
2, 67190, Note_off_c, 0, 59, 64
2, 67327, Note_off_c, 0, 47, 64
2, 67332, Control_c, 0, 64, 0
2, 67364, Control_c, 0, 64, 127
2, 67381, Control_c, 0, 64, 0
2, 67389, Note_on_c, 0, 71, 70
2, 67417, Control_c, 0, 64, 127
2, 67475, Note_on_c, 0, 67, 62
2, 67492, Note_off_c, 0, 71, 64
2, 67507, Control_c, 0, 64, 0
2, 67549, Control_c, 0, 64, 127
2, 67564, Note_on_c, 0, 64, 78
2, 67569, Note_on_c, 0, 59, 63
2, 67572, Note_off_c, 0, 67, 64
2, 67572, Note_on_c, 0, 55, 66
2, 67572, Note_on_c, 0, 47, 65
2, 67584, Control_c, 0, 64, 0
2, 67616, Control_c, 0, 64, 127
2, 67644, Note_on_c, 0, 71, 63
2, 67669, Note_off_c, 0, 64, 64
2, 67719, Note_off_c, 0, 59, 64
2, 67720, Control_c, 0, 64, 0
2, 67722, Note_off_c, 0, 47, 64
2, 67722, Note_off_c, 0, 55, 64
2, 67730, Note_on_c, 0, 54, 58
2, 67731, Note_on_c, 0, 63, 78
2, 67731, Note_on_c, 0, 59, 62
2, 67731, Note_on_c, 0, 47, 62
2, 67753, Control_c, 0, 64, 127
2, 67759, Control_c, 0, 64, 0
2, 67766, Note_off_c, 0, 71, 64
2, 67801, Control_c, 0, 64, 127
2, 67895, Note_off_c, 0, 54, 64
2, 67896, Note_off_c, 0, 47, 64
2, 67896, Note_off_c, 0, 59, 64
2, 67947, Note_on_c, 0, 64, 71
2, 67950, Note_off_c, 0, 63, 64
2, 67956, Note_on_c, 0, 52, 61
2, 67957, Note_on_c, 0, 59, 54
2, 67962, Note_on_c, 0, 55, 61
2, 67972, Control_c, 0, 64, 0
2, 67979, Control_c, 0, 64, 0
2, 68005, Control_c, 0, 64, 127
2, 68015, Control_c, 0, 64, 127
2, 68203, Note_off_c, 0, 52, 64
2, 68204, Note_off_c, 0, 59, 64
2, 68209, Note_off_c, 0, 55, 64
2, 68216, Control_c, 0, 64, 0
2, 68218, Note_on_c, 0, 40, 62
2, 68231, Control_c, 0, 64, 0
2, 68249, Control_c, 0, 64, 127
2, 68267, Control_c, 0, 64, 127
2, 68355, Note_off_c, 0, 64, 64
2, 68454, Note_on_c, 0, 76, 49
2, 68456, Note_off_c, 0, 40, 64
2, 68468, Control_c, 0, 64, 0
2, 68501, Control_c, 0, 64, 127
2, 68559, Control_c, 0, 64, 0
2, 68601, Control_c, 0, 64, 127
2, 68627, Note_on_c, 0, 77, 51
2, 68647, Note_off_c, 0, 76, 64
2, 68732, Control_c, 0, 64, 0
2, 68751, Note_on_c, 0, 76, 53
2, 68757, Note_off_c, 0, 77, 64
2, 68769, Control_c, 0, 64, 127
2, 68787, Note_on_c, 0, 57, 48
2, 68792, Note_on_c, 0, 65, 43
2, 68792, Note_on_c, 0, 62, 47
2, 68798, Note_on_c, 0, 74, 59
2, 68811, Control_c, 0, 64, 0
2, 68816, Note_off_c, 0, 76, 64
2, 68853, Control_c, 0, 64, 127
2, 68937, Note_off_c, 0, 57, 64
2, 68942, Note_off_c, 0, 62, 64
2, 68942, Note_off_c, 0, 65, 64
2, 68961, Note_on_c, 0, 77, 59
2, 68967, Note_off_c, 0, 74, 64
2, 68976, Note_on_c, 0, 65, 32
2, 68977, Note_on_c, 0, 57, 40
2, 68984, Note_on_c, 0, 62, 27
2, 68984, Control_c, 0, 64, 0
2, 69021, Control_c, 0, 64, 127
2, 69055, Note_off_c, 0, 77, 64
2, 69085, Control_c, 0, 64, 0
2, 69110, Control_c, 0, 64, 127
2, 69123, Note_off_c, 0, 57, 64
2, 69136, Note_off_c, 0, 65, 64
2, 69137, Note_on_c, 0, 77, 70
2, 69144, Note_off_c, 0, 62, 64
2, 69255, Control_c, 0, 64, 0
2, 69288, Control_c, 0, 64, 127
2, 69308, Note_on_c, 0, 65, 35
2, 69312, Note_on_c, 0, 60, 32
2, 69312, Note_on_c, 0, 57, 32
2, 69337, Control_c, 0, 64, 0
2, 69362, Control_c, 0, 64, 127
2, 69420, Control_c, 0, 64, 0
2, 69451, Control_c, 0, 64, 127
2, 69458, Note_off_c, 0, 65, 64
2, 69462, Note_off_c, 0, 57, 64
2, 69462, Note_off_c, 0, 60, 64
2, 69491, Note_on_c, 0, 76, 53
2, 69495, Note_on_c, 0, 64, 36
2, 69497, Note_on_c, 0, 57, 40
2, 69504, Note_on_c, 0, 60, 36
2, 69507, Control_c, 0, 64, 0
2, 69514, Note_off_c, 0, 77, 64
2, 69540, Control_c, 0, 64, 127
2, 69600, Control_c, 0, 64, 0
2, 69606, Note_off_c, 0, 76, 64
2, 69632, Control_c, 0, 64, 127
2, 69648, Note_on_c, 0, 74, 54
2, 69651, Note_off_c, 0, 64, 64
2, 69654, Note_off_c, 0, 60, 64
2, 69660, Note_off_c, 0, 57, 64
2, 69672, Control_c, 0, 64, 0
2, 69680, Note_on_c, 0, 76, 54
2, 69690, Note_off_c, 0, 74, 64
2, 69703, Control_c, 0, 64, 127
2, 69719, Note_on_c, 0, 74, 65
2, 69732, Note_off_c, 0, 76, 64
2, 69766, Note_on_c, 0, 73, 67
2, 69772, Note_off_c, 0, 74, 64
2, 69808, Control_c, 0, 64, 0
2, 69831, Control_c, 0, 64, 127
2, 69840, Note_on_c, 0, 62, 41
2, 69840, Note_on_c, 0, 56, 41
2, 69840, Note_on_c, 0, 52, 41
2, 69841, Note_on_c, 0, 74, 63
2, 69848, Note_off_c, 0, 73, 64
2, 69852, Control_c, 0, 64, 0
2, 69884, Control_c, 0, 64, 127
2, 69930, Note_on_c, 0, 75, 55
2, 69957, Note_off_c, 0, 74, 64
2, 69990, Note_off_c, 0, 52, 64
2, 69990, Note_off_c, 0, 56, 64
2, 69990, Note_off_c, 0, 62, 64
2, 69994, Control_c, 0, 64, 0
2, 70032, Note_on_c, 0, 76, 44
2, 70038, Note_on_c, 0, 62, 40
2, 70038, Note_on_c, 0, 56, 36
2, 70038, Note_on_c, 0, 52, 40
2, 70045, Note_off_c, 0, 75, 64
2, 70050, Control_c, 0, 64, 127
2, 70060, Control_c, 0, 64, 0
2, 70083, Control_c, 0, 64, 127
2, 70117, Note_off_c, 0, 76, 64
2, 70125, Note_on_c, 0, 71, 66
2, 70169, Note_off_c, 0, 71, 64
2, 70197, Note_on_c, 0, 71, 57
2, 70212, Control_c, 0, 64, 0
2, 70215, Note_off_c, 0, 52, 64
2, 70240, Note_off_c, 0, 56, 64
2, 70244, Control_c, 0, 64, 127
2, 70246, Control_c, 0, 64, 0
2, 70253, Note_off_c, 0, 62, 64
2, 70256, Note_on_c, 0, 74, 59
2, 70269, Note_off_c, 0, 71, 64
2, 70302, Control_c, 0, 64, 127
2, 70443, Note_on_c, 0, 57, 43
2, 70449, Note_on_c, 0, 62, 27
2, 70452, Note_on_c, 0, 53, 31
2, 70464, Control_c, 0, 64, 0
2, 70464, Control_c, 0, 64, 0
2, 70496, Control_c, 0, 64, 127
2, 70510, Control_c, 0, 64, 127
2, 70593, Note_off_c, 0, 57, 64
2, 70599, Note_off_c, 0, 62, 64
2, 70602, Note_off_c, 0, 53, 64
2, 70683, Note_on_c, 0, 72, 53
2, 70689, Note_on_c, 0, 57, 32
2, 70699, Note_on_c, 0, 60, 32
2, 70714, Note_on_c, 0, 53, 18
2, 70716, Note_off_c, 0, 74, 64
2, 70716, Control_c, 0, 64, 0
2, 70762, Control_c, 0, 64, 127
2, 70866, Note_off_c, 0, 53, 64
2, 70868, Note_off_c, 0, 57, 64
2, 70874, Note_off_c, 0, 72, 64
2, 70878, Note_off_c, 0, 60, 64
2, 70919, Control_c, 0, 64, 0
2, 70920, Note_on_c, 0, 69, 48
2, 70934, Control_c, 0, 64, 127
2, 71024, Note_on_c, 0, 70, 55
2, 71040, Note_off_c, 0, 69, 64
2, 71076, Note_on_c, 0, 69, 56
2, 71082, Note_off_c, 0, 70, 64
2, 71152, Note_on_c, 0, 67, 72
2, 71152, Note_on_c, 0, 60, 39
2, 71156, Note_on_c, 0, 63, 42
2, 71156, Note_on_c, 0, 53, 32
2, 71169, Note_off_c, 0, 69, 64
2, 71171, Control_c, 0, 64, 0
2, 71176, Control_c, 0, 64, 0
2, 71186, Control_c, 0, 64, 127
2, 71189, Control_c, 0, 64, 127
2, 71293, Note_off_c, 0, 67, 64
2, 71317, Note_off_c, 0, 60, 64
2, 71321, Note_off_c, 0, 53, 64
2, 71321, Note_off_c, 0, 63, 64
2, 71371, Note_on_c, 0, 69, 58
2, 71379, Note_on_c, 0, 63, 46
2, 71382, Note_on_c, 0, 53, 47
2, 71388, Note_on_c, 0, 60, 51
2, 71400, Control_c, 0, 64, 0
2, 71428, Control_c, 0, 64, 0
2, 71441, Control_c, 0, 64, 127
2, 71467, Control_c, 0, 64, 127
2, 71544, Note_off_c, 0, 63, 64
2, 71547, Note_off_c, 0, 53, 64
2, 71553, Note_off_c, 0, 60, 64
2, 71615, Note_on_c, 0, 70, 80
2, 71615, Note_on_c, 0, 62, 40
2, 71625, Note_on_c, 0, 58, 32
2, 71637, Note_off_c, 0, 69, 64
2, 71652, Control_c, 0, 64, 0
2, 71719, Control_c, 0, 64, 127
2, 71787, Control_c, 0, 64, 0
2, 71994, Note_on_c, 0, 74, 54
2, 72009, Note_on_c, 0, 65, 29
2, 72015, Note_off_c, 0, 70, 64
2, 72033, Control_c, 0, 64, 127
2, 72039, Control_c, 0, 64, 0
2, 72285, Control_c, 0, 64, 127
2, 72432, Control_c, 0, 64, 0
2, 72463, Note_off_c, 0, 62, 64
2, 72475, Note_off_c, 0, 58, 64
2, 72534, Note_off_c, 0, 74, 64
2, 72549, Note_off_c, 0, 65, 64
2, 72632, Control_c, 0, 64, 127
2, 72673, Note_on_c, 0, 69, 72
2, 72684, Control_c, 0, 64, 0
2, 72807, Control_c, 0, 64, 0
2, 72808, Note_on_c, 0, 68, 66
2, 72826, Note_off_c, 0, 69, 64
2, 72842, Control_c, 0, 64, 127
2, 72860, Note_on_c, 0, 62, 67
2, 72860, Note_on_c, 0, 59, 33
2, 72860, Note_on_c, 0, 52, 68
2, 72861, Note_on_c, 0, 64, 66
2, 72884, Control_c, 0, 64, 127
2, 72892, Note_off_c, 0, 68, 64
2, 72947, Note_off_c, 0, 64, 64
2, 72989, Control_c, 0, 64, 0
2, 73010, Note_off_c, 0, 52, 64
2, 73010, Note_off_c, 0, 59, 64
2, 73010, Note_off_c, 0, 62, 64
2, 73036, Note_on_c, 0, 68, 71
2, 73036, Note_on_c, 0, 52, 54
2, 73040, Note_on_c, 0, 59, 52
2, 73042, Note_on_c, 0, 62, 67
2, 73047, Control_c, 0, 64, 127
2, 73059, Control_c, 0, 64, 0
2, 73094, Control_c, 0, 64, 127
2, 73186, Note_off_c, 0, 52, 64
2, 73190, Note_off_c, 0, 59, 64
2, 73192, Note_off_c, 0, 62, 64
2, 73209, Note_on_c, 0, 52, 53
2, 73218, Note_on_c, 0, 69, 72
2, 73219, Note_on_c, 0, 45, 53
2, 73225, Note_on_c, 0, 60, 65
2, 73236, Note_off_c, 0, 68, 64
2, 73241, Control_c, 0, 64, 0
2, 73299, Control_c, 0, 64, 127
2, 73369, Control_c, 0, 64, 0
2, 73405, Control_c, 0, 64, 127
2, 73409, Note_off_c, 0, 60, 64
2, 73423, Note_on_c, 0, 33, 70
2, 73449, Note_off_c, 0, 52, 64
2, 73459, Note_off_c, 0, 45, 64
2, 73490, Note_off_c, 0, 69, 64
2, 73596, Note_off_c, 0, 33, 64
2, 73621, Note_on_c, 0, 71, 46
2, 73621, Control_c, 0, 64, 0
2, 73657, Control_c, 0, 64, 127
2, 73728, Control_c, 0, 64, 0
2, 73772, Control_c, 0, 64, 127
2, 73791, Note_off_c, 0, 71, 64
2, 73797, Note_on_c, 0, 72, 51
2, 73873, Note_on_c, 0, 74, 46
2, 73876, Note_off_c, 0, 72, 64
2, 73898, Control_c, 0, 64, 0
2, 73942, Control_c, 0, 64, 127
2, 73951, Note_on_c, 0, 75, 55
2, 73959, Note_on_c, 0, 56, 36
2, 73965, Note_on_c, 0, 60, 39
2, 73967, Note_on_c, 0, 66, 35
2, 73980, Control_c, 0, 64, 0
2, 73985, Note_off_c, 0, 74, 64
2, 74024, Control_c, 0, 64, 127
2, 74070, Note_off_c, 0, 75, 64
2, 74109, Note_off_c, 0, 56, 64
2, 74115, Note_off_c, 0, 60, 64
2, 74117, Note_off_c, 0, 66, 64
2, 74129, Note_on_c, 0, 75, 59
2, 74134, Note_on_c, 0, 66, 41
2, 74135, Note_on_c, 0, 60, 44
2, 74135, Note_on_c, 0, 56, 44
2, 74150, Control_c, 0, 64, 0
2, 74194, Control_c, 0, 64, 127
2, 74249, Control_c, 0, 64, 0
2, 74276, Note_off_c, 0, 75, 64
2, 74278, Note_on_c, 0, 77, 47
2, 74285, Control_c, 0, 64, 127
2, 74288, Note_off_c, 0, 60, 64
2, 74298, Note_off_c, 0, 56, 64
2, 74322, Note_on_c, 0, 75, 59
2, 74328, Note_off_c, 0, 66, 64
2, 74338, Note_off_c, 0, 77, 64
2, 74450, Control_c, 0, 64, 0
2, 74482, Note_on_c, 0, 66, 41
2, 74482, Note_on_c, 0, 55, 45
2, 74490, Note_on_c, 0, 60, 41
2, 74493, Control_c, 0, 64, 127
2, 74501, Control_c, 0, 64, 0
2, 74537, Control_c, 0, 64, 127
2, 74632, Note_off_c, 0, 55, 64
2, 74632, Note_off_c, 0, 66, 64
2, 74640, Note_off_c, 0, 60, 64
2, 74677, Note_on_c, 0, 74, 47
2, 74680, Note_on_c, 0, 67, 31
2, 74680, Note_on_c, 0, 59, 37
2, 74686, Note_on_c, 0, 55, 19
2, 74700, Note_off_c, 0, 75, 64
2, 74702, Control_c, 0, 64, 0
2, 74745, Control_c, 0, 64, 127
2, 74773, Control_c, 0, 64, 0
2, 74795, Note_off_c, 0, 74, 64
2, 74810, Control_c, 0, 64, 127
2, 74857, Note_on_c, 0, 72, 51
2, 74880, Note_off_c, 0, 59, 64
2, 74888, Note_off_c, 0, 67, 64
2, 74896, Note_off_c, 0, 55, 64
2, 74928, Note_on_c, 0, 74, 47
2, 74940, Control_c, 0, 64, 0
2, 74951, Note_off_c, 0, 72, 64
2, 74985, Control_c, 0, 64, 127
2, 75012, Note_on_c, 0, 66, 44
2, 75012, Note_on_c, 0, 56, 44
2, 75018, Note_on_c, 0, 75, 55
2, 75021, Note_on_c, 0, 60, 43
2, 75025, Control_c, 0, 64, 0
2, 75058, Note_off_c, 0, 74, 64
2, 75062, Control_c, 0, 64, 127
2, 75096, Control_c, 0, 64, 0
2, 75112, Note_off_c, 0, 75, 64
2, 75133, Control_c, 0, 64, 127
2, 75162, Note_off_c, 0, 56, 64
2, 75162, Note_off_c, 0, 66, 64
2, 75171, Note_off_c, 0, 60, 64
2, 75178, Note_on_c, 0, 75, 59
2, 75182, Note_on_c, 0, 66, 41
2, 75189, Note_on_c, 0, 60, 37
2, 75192, Note_on_c, 0, 56, 36
2, 75192, Control_c, 0, 64, 0
2, 75237, Control_c, 0, 64, 127
2, 75284, Control_c, 0, 64, 0
2, 75296, Note_off_c, 0, 75, 64
2, 75296, Control_c, 0, 64, 127
2, 75302, Note_on_c, 0, 77, 46
2, 75311, Note_off_c, 0, 60, 64
2, 75313, Note_off_c, 0, 56, 64
2, 75331, Note_off_c, 0, 66, 64
2, 75348, Control_c, 0, 64, 0
2, 75351, Note_on_c, 0, 75, 63
2, 75371, Note_off_c, 0, 77, 64
2, 75385, Control_c, 0, 64, 127
2, 75456, Control_c, 0, 64, 0
2, 75500, Control_c, 0, 64, 127
2, 75513, Note_on_c, 0, 59, 36
2, 75517, Note_on_c, 0, 65, 32
2, 75517, Note_on_c, 0, 56, 26
2, 75536, Control_c, 0, 64, 0
2, 75548, Control_c, 0, 64, 127
2, 75620, Control_c, 0, 64, 0
2, 75657, Control_c, 0, 64, 127
2, 75663, Note_off_c, 0, 59, 64
2, 75667, Note_off_c, 0, 56, 64
2, 75667, Note_off_c, 0, 65, 64
2, 75684, Note_on_c, 0, 58, 43
2, 75690, Note_on_c, 0, 74, 45
2, 75690, Note_on_c, 0, 56, 36
2, 75695, Note_on_c, 0, 65, 32
2, 75708, Control_c, 0, 64, 0
2, 75715, Note_off_c, 0, 75, 64
2, 75752, Control_c, 0, 64, 127
2, 75843, Note_off_c, 0, 58, 64
2, 75846, Note_off_c, 0, 56, 64
2, 75863, Note_on_c, 0, 82, 76
2, 75866, Note_off_c, 0, 65, 64
2, 75872, Control_c, 0, 64, 0
2, 75890, Note_off_c, 0, 74, 64
2, 75909, Control_c, 0, 64, 127
2, 75969, Control_c, 0, 64, 0
2, 76013, Control_c, 0, 64, 127
2, 76027, Note_on_c, 0, 65, 45
2, 76028, Note_on_c, 0, 58, 40
2, 76031, Note_on_c, 0, 55, 36
2, 76177, Note_off_c, 0, 65, 64
2, 76178, Note_off_c, 0, 58, 64
2, 76181, Note_off_c, 0, 55, 64
2, 76202, Note_on_c, 0, 73, 59
2, 76202, Note_on_c, 0, 58, 42
2, 76208, Note_on_c, 0, 64, 48
2, 76212, Note_on_c, 0, 55, 42
2, 76214, Note_off_c, 0, 82, 64
2, 76221, Control_c, 0, 64, 0
2, 76265, Control_c, 0, 64, 127
2, 76291, Control_c, 0, 64, 0
2, 76324, Control_c, 0, 64, 127
2, 76370, Note_off_c, 0, 55, 64
2, 76375, Note_on_c, 0, 81, 66
2, 76379, Note_off_c, 0, 58, 64
2, 76379, Note_off_c, 0, 73, 64
2, 76393, Note_off_c, 0, 64, 64
2, 76484, Control_c, 0, 64, 0
2, 76516, Note_on_c, 0, 55, 46
2, 76517, Note_on_c, 0, 57, 46
2, 76523, Note_on_c, 0, 64, 46
2, 76528, Control_c, 0, 64, 127
2, 76543, Control_c, 0, 64, 0
2, 76576, Control_c, 0, 64, 127
2, 76666, Note_off_c, 0, 55, 64
2, 76667, Note_off_c, 0, 57, 64
2, 76673, Note_off_c, 0, 64, 64
2, 76704, Note_on_c, 0, 72, 54
2, 76718, Note_on_c, 0, 63, 41
2, 76718, Note_on_c, 0, 57, 32
2, 76720, Note_off_c, 0, 81, 64
2, 76720, Note_on_c, 0, 54, 41
2, 76736, Control_c, 0, 64, 0
2, 76780, Control_c, 0, 64, 127
2, 76834, Control_c, 0, 64, 0
2, 76875, Control_c, 0, 64, 127
2, 76877, Note_off_c, 0, 57, 64
2, 76878, Note_off_c, 0, 54, 64
2, 76883, Note_on_c, 0, 80, 58
2, 76906, Note_off_c, 0, 63, 64
2, 76907, Note_off_c, 0, 72, 64
2, 77047, Control_c, 0, 64, 0
2, 77058, Note_on_c, 0, 63, 41
2, 77064, Note_on_c, 0, 56, 37
2, 77069, Note_on_c, 0, 53, 24
2, 77086, Control_c, 0, 64, 0
2, 77110, Control_c, 0, 64, 127
2, 77127, Control_c, 0, 64, 127
2, 77208, Note_off_c, 0, 63, 64
2, 77214, Note_off_c, 0, 56, 64
2, 77219, Note_off_c, 0, 53, 64
2, 77270, Note_on_c, 0, 71, 48
2, 77276, Note_on_c, 0, 53, 28
2, 77277, Note_on_c, 0, 62, 35
2, 77277, Note_on_c, 0, 56, 29
2, 77285, Note_off_c, 0, 80, 64
2, 77299, Control_c, 0, 64, 0
2, 77362, Control_c, 0, 64, 127
2, 77446, Control_c, 0, 64, 0
2, 77456, Note_off_c, 0, 53, 64
2, 77467, Note_off_c, 0, 56, 64
2, 77467, Note_on_c, 0, 79, 50
2, 77479, Note_off_c, 0, 62, 64
2, 77487, Note_off_c, 0, 71, 64
2, 77502, Control_c, 0, 64, 127
2, 77672, Note_on_c, 0, 62, 26
2, 77672, Note_on_c, 0, 55, 20
2, 77679, Note_on_c, 0, 52, 20
2, 77698, Control_c, 0, 64, 0
2, 77708, Control_c, 0, 64, 0
2, 77751, Control_c, 0, 64, 127
2, 77754, Control_c, 0, 64, 127
2, 77793, Note_on_c, 0, 70, 42
2, 77806, Note_off_c, 0, 79, 64
2, 77822, Note_off_c, 0, 55, 64
2, 77822, Note_off_c, 0, 62, 64
2, 77829, Note_off_c, 0, 52, 64
2, 77940, Note_on_c, 0, 55, 27
2, 77941, Note_on_c, 0, 61, 29
2, 77941, Note_on_c, 0, 52, 32
2, 77942, Note_on_c, 0, 69, 53
2, 77947, Note_off_c, 0, 70, 64
2, 77951, Control_c, 0, 64, 0
2, 77960, Control_c, 0, 64, 0
2, 77993, Control_c, 0, 64, 127
2, 78003, Control_c, 0, 64, 127
2, 78062, Note_on_c, 0, 76, 51
2, 78090, Note_off_c, 0, 55, 64
2, 78091, Note_off_c, 0, 52, 64
2, 78091, Note_off_c, 0, 61, 64
2, 78101, Note_off_c, 0, 69, 64
2, 78144, Control_c, 0, 64, 0
2, 78171, Control_c, 0, 64, 127
2, 78179, Note_on_c, 0, 77, 55
2, 78184, Note_on_c, 0, 53, 43
2, 78194, Note_off_c, 0, 76, 64
2, 78194, Note_on_c, 0, 62, 33
2, 78194, Note_on_c, 0, 50, 43
2, 78203, Control_c, 0, 64, 0
2, 78245, Control_c, 0, 64, 127
2, 78282, Note_on_c, 0, 76, 59
2, 78311, Note_off_c, 0, 77, 64
2, 78317, Control_c, 0, 64, 0
2, 78348, Control_c, 0, 64, 127
2, 78349, Note_off_c, 0, 53, 64
2, 78359, Note_off_c, 0, 50, 64
2, 78359, Note_off_c, 0, 62, 64
2, 78373, Note_on_c, 0, 74, 70
2, 78376, Note_on_c, 0, 62, 38
2, 78381, Note_on_c, 0, 65, 41
2, 78389, Note_off_c, 0, 76, 64
2, 78390, Note_on_c, 0, 57, 28
2, 78396, Control_c, 0, 64, 0
2, 78423, Control_c, 0, 64, 127
2, 78486, Control_c, 0, 64, 0
2, 78516, Control_c, 0, 64, 127
2, 78526, Note_off_c, 0, 62, 64
2, 78531, Note_off_c, 0, 65, 64
2, 78540, Note_off_c, 0, 57, 64
2, 78545, Note_on_c, 0, 77, 63
2, 78549, Note_on_c, 0, 57, 39
2, 78553, Note_on_c, 0, 65, 40
2, 78556, Note_on_c, 0, 62, 43
2, 78569, Control_c, 0, 64, 0
2, 78573, Note_off_c, 0, 74, 64
2, 78600, Control_c, 0, 64, 127
2, 78616, Note_off_c, 0, 77, 64
2, 78668, Control_c, 0, 64, 0
2, 78682, Control_c, 0, 64, 127
2, 78726, Note_on_c, 0, 77, 60
2, 78729, Note_off_c, 0, 57, 64
2, 78738, Control_c, 0, 64, 0
2, 78747, Note_off_c, 0, 65, 64
2, 78752, Note_off_c, 0, 62, 64
2, 78768, Control_c, 0, 64, 127
2, 78838, Control_c, 0, 64, 0
2, 78883, Control_c, 0, 64, 127
2, 78887, Note_on_c, 0, 65, 44
2, 78888, Note_on_c, 0, 60, 44
2, 78896, Note_on_c, 0, 57, 31
2, 78920, Control_c, 0, 64, 0
2, 78934, Control_c, 0, 64, 127
2, 79037, Note_off_c, 0, 65, 64
2, 79038, Note_off_c, 0, 60, 64
2, 79046, Note_off_c, 0, 57, 64
2, 79070, Note_on_c, 0, 76, 55
2, 79076, Note_on_c, 0, 60, 29
2, 79079, Note_on_c, 0, 64, 24
2, 79080, Note_on_c, 0, 57, 29
2, 79090, Control_c, 0, 64, 0
2, 79097, Note_off_c, 0, 77, 64
2, 79135, Control_c, 0, 64, 127
2, 79175, Control_c, 0, 64, 0
2, 79197, Note_off_c, 0, 76, 64
2, 79225, Control_c, 0, 64, 127
2, 79243, Note_on_c, 0, 74, 56
2, 79244, Note_off_c, 0, 64, 64
2, 79244, Note_off_c, 0, 60, 64
2, 79250, Note_off_c, 0, 57, 64
2, 79282, Note_on_c, 0, 76, 45
2, 79290, Note_off_c, 0, 74, 64
2, 79325, Note_on_c, 0, 74, 58
2, 79335, Note_off_c, 0, 76, 64
2, 79380, Note_on_c, 0, 73, 70
2, 79382, Control_c, 0, 64, 0
2, 79384, Note_off_c, 0, 74, 64
2, 79418, Note_on_c, 0, 62, 39
2, 79425, Note_on_c, 0, 56, 37
2, 79426, Control_c, 0, 64, 127
2, 79427, Control_c, 0, 64, 0
2, 79433, Note_on_c, 0, 52, 31
2, 79438, Note_on_c, 0, 74, 63
2, 79443, Note_off_c, 0, 73, 64
2, 79477, Control_c, 0, 64, 127
2, 79521, Note_on_c, 0, 75, 61
2, 79544, Note_off_c, 0, 74, 64
2, 79565, Control_c, 0, 64, 0
2, 79568, Note_off_c, 0, 62, 64
2, 79575, Note_off_c, 0, 56, 64
2, 79583, Note_off_c, 0, 52, 64
2, 79611, Note_on_c, 0, 56, 35
2, 79611, Note_on_c, 0, 52, 32
2, 79613, Note_on_c, 0, 76, 59
2, 79613, Control_c, 0, 64, 127
2, 79619, Note_on_c, 0, 62, 32
2, 79621, Note_off_c, 0, 75, 64
2, 79634, Control_c, 0, 64, 0
2, 79678, Control_c, 0, 64, 127
2, 79705, Note_on_c, 0, 71, 68
2, 79735, Note_off_c, 0, 76, 64
2, 79806, Note_on_c, 0, 74, 63
2, 79817, Control_c, 0, 64, 0
2, 79818, Control_c, 0, 64, 0
2, 79832, Note_off_c, 0, 52, 64
2, 79836, Note_off_c, 0, 71, 64
2, 79848, Note_off_c, 0, 56, 64
2, 79849, Control_c, 0, 64, 127
2, 79856, Note_off_c, 0, 62, 64
2, 79865, Control_c, 0, 64, 127
2, 80036, Note_on_c, 0, 62, 37
2, 80038, Note_on_c, 0, 57, 29
2, 80049, Note_on_c, 0, 53, 36
2, 80070, Control_c, 0, 64, 0
2, 80098, Control_c, 0, 64, 0
2, 80101, Control_c, 0, 64, 127
2, 80161, Control_c, 0, 64, 127
2, 80261, Note_off_c, 0, 62, 64
2, 80263, Note_off_c, 0, 57, 64
2, 80274, Note_off_c, 0, 53, 64
2, 80300, Note_on_c, 0, 72, 53
2, 80314, Note_on_c, 0, 60, 28
2, 80320, Note_on_c, 0, 57, 28
2, 80320, Note_on_c, 0, 53, 22
2, 80326, Note_off_c, 0, 74, 64
2, 80350, Control_c, 0, 64, 0
2, 80413, Control_c, 0, 64, 127
2, 80578, Note_off_c, 0, 53, 64
2, 80580, Note_off_c, 0, 57, 64
2, 80582, Note_off_c, 0, 72, 64
2, 80582, Note_on_c, 0, 69, 66
2, 80588, Control_c, 0, 64, 0
2, 80598, Note_off_c, 0, 60, 64
2, 80631, Control_c, 0, 64, 127
2, 80680, Note_on_c, 0, 70, 79
2, 80696, Note_off_c, 0, 69, 64
2, 80750, Note_on_c, 0, 69, 59
2, 80762, Note_off_c, 0, 70, 64
2, 80820, Note_on_c, 0, 67, 78
2, 80824, Note_on_c, 0, 63, 48
2, 80827, Note_off_c, 0, 69, 64
2, 80833, Note_on_c, 0, 60, 37
2, 80834, Note_on_c, 0, 53, 36
2, 80840, Control_c, 0, 64, 0
2, 80883, Control_c, 0, 64, 127
2, 80913, Control_c, 0, 64, 0
2, 80948, Control_c, 0, 64, 127
2, 81014, Note_off_c, 0, 63, 64
2, 81023, Note_off_c, 0, 60, 64
2, 81024, Note_off_c, 0, 53, 64
2, 81109, Note_on_c, 0, 69, 72
2, 81112, Note_on_c, 0, 63, 54
2, 81118, Note_on_c, 0, 53, 36
2, 81120, Note_on_c, 0, 60, 44
2, 81130, Note_off_c, 0, 67, 64
2, 81165, Control_c, 0, 64, 0
2, 81200, Control_c, 0, 64, 127
2, 81270, Control_c, 0, 64, 0
2, 81307, Note_off_c, 0, 63, 64
2, 81313, Note_off_c, 0, 53, 64
2, 81315, Note_off_c, 0, 60, 64
2, 81319, Control_c, 0, 64, 127
2, 81452, Note_on_c, 0, 70, 67
2, 81466, Note_on_c, 0, 62, 46
2, 81466, Note_on_c, 0, 58, 36
2, 81472, Note_off_c, 0, 69, 64
2, 81522, Control_c, 0, 64, 0
2, 81571, Control_c, 0, 64, 127
2, 81784, Control_c, 0, 64, 0
2, 81828, Control_c, 0, 64, 127
2, 81959, Note_on_c, 0, 74, 41
2, 81965, Note_on_c, 0, 65, 31
2, 81973, Note_off_c, 0, 70, 64
2, 82008, Note_off_c, 0, 62, 64
2, 82036, Control_c, 0, 64, 0
2, 82080, Control_c, 0, 64, 127
2, 82332, Note_off_c, 0, 58, 64
2, 82484, Note_off_c, 0, 65, 64
2, 82550, Note_off_c, 0, 74, 64
2, 82632, Control_c, 0, 64, 0
2, 82668, Control_c, 0, 64, 127
2, 82863, Control_c, 0, 64, 0
2, 82867, Note_on_c, 0, 69, 78
2, 82884, Control_c, 0, 64, 0
2, 82889, Control_c, 0, 64, 127
2, 82920, Control_c, 0, 64, 127
2, 83023, Note_on_c, 0, 68, 74
2, 83031, Note_off_c, 0, 69, 64
2, 83076, Note_on_c, 0, 64, 70
2, 83081, Control_c, 0, 64, 0
2, 83086, Note_on_c, 0, 62, 80
2, 83092, Note_on_c, 0, 52, 67
2, 83100, Note_on_c, 0, 59, 52
2, 83105, Note_off_c, 0, 68, 64
2, 83112, Control_c, 0, 64, 127
2, 83115, Control_c, 0, 64, 0
2, 83141, Control_c, 0, 64, 127
2, 83189, Note_off_c, 0, 62, 64
2, 83282, Note_off_c, 0, 52, 64
2, 83290, Note_off_c, 0, 59, 64
2, 83310, Note_on_c, 0, 68, 79
2, 83316, Note_on_c, 0, 62, 78
2, 83316, Note_on_c, 0, 52, 70
2, 83321, Note_off_c, 0, 64, 64
2, 83321, Note_on_c, 0, 59, 65
2, 83333, Control_c, 0, 64, 0
2, 83351, Control_c, 0, 64, 0
2, 83364, Control_c, 0, 64, 127
2, 83383, Control_c, 0, 64, 127
2, 83463, Note_off_c, 0, 62, 64
2, 83506, Note_off_c, 0, 52, 64
2, 83511, Note_off_c, 0, 59, 64
2, 83549, Note_off_c, 0, 68, 64
2, 83576, Note_on_c, 0, 69, 83
2, 83576, Note_on_c, 0, 52, 67
2, 83582, Note_on_c, 0, 60, 78
2, 83586, Note_on_c, 0, 45, 61
2, 83603, Control_c, 0, 64, 0
2, 83635, Control_c, 0, 64, 127
2, 83776, Control_c, 0, 64, 0
2, 83850, Control_c, 0, 64, 127
2, 83964, Note_on_c, 0, 33, 84
2, 83987, Note_off_c, 0, 52, 64
2, 83997, Note_off_c, 0, 45, 64
2, 84028, Control_c, 0, 64, 0
2, 84097, Control_c, 0, 64, 0
2, 84102, Control_c, 0, 64, 127
2, 84165, Note_off_c, 0, 33, 64
2, 84244, Note_off_c, 0, 69, 64
2, 84254, Note_off_c, 0, 60, 64
2, 84349, Control_c, 0, 64, 0
2, 84349, End_track
3, 0, Start_track
3, 0, Title_t, "Played by Dr. Ron Lubetsky"
3, 0, End_track
4, 0, Start_track
4, 0, Title_t, "Jan. 10, 1998"
4, 0, End_track
5, 0, Start_track
5, 0, Title_t, "email: acuity2020@aol.com"
5, 0, End_track
6, 0, Start_track
6, 0, Title_t, "Copyright  1998"
6, 0, End_track
7, 0, Start_track
7, 0, Title_t, "All Rights Reserved"
7, 0, End_track
0, 0, End_of_file
