0, 0, Header, 1, 7, 240
1, 0, Start_track
1, 0, Time_signature, 4, 2, 24, 8
1, 0, Tempo, 500000
1, 0, Marker_t, "Chopin: Mazurka, Op. 17 No. 1- Vivo e risoluto"
1, 0, End_track
2, 0, Start_track
2, 0, Title_t, "Chopin: Op. 17 No. 1"
2, 0, Program_c, 0, 0
2, 0, Control_c, 0, 7, 127
2, 188, Control_c, 0, 64, 127
2, 212, Control_c, 0, 64, 127
2, 219, Control_c, 0, 64, 0
2, 243, Control_c, 0, 64, 0
2, 275, Note_on_c, 0, 65, 66
2, 290, Control_c, 0, 64, 127
2, 314, Control_c, 0, 64, 127
2, 537, Note_on_c, 0, 74, 70
2, 539, Control_c, 0, 64, 0
2, 540, Note_on_c, 0, 77, 74
2, 544, Note_on_c, 0, 34, 41
2, 545, Note_on_c, 0, 46, 64
2, 546, Note_off_c, 0, 65, 64
2, 548, Control_c, 0, 64, 127
2, 548, Note_on_c, 0, 58, 41
2, 563, Control_c, 0, 64, 0
2, 572, Control_c, 0, 64, 127
2, 579, Control_c, 0, 64, 0
2, 592, Control_c, 0, 64, 127
2, 603, Control_c, 0, 64, 0
2, 616, Control_c, 0, 64, 127
2, 649, Note_off_c, 0, 58, 64
2, 784, Note_off_c, 0, 34, 64
2, 785, Note_off_c, 0, 46, 64
2, 806, Note_on_c, 0, 58, 54
2, 809, Note_on_c, 0, 53, 47
2, 813, Note_on_c, 0, 62, 47
2, 879, Note_off_c, 0, 53, 64
2, 887, Note_off_c, 0, 58, 64
2, 901, Note_off_c, 0, 62, 64
2, 944, Note_off_c, 0, 74, 64
2, 946, Note_on_c, 0, 76, 67
2, 948, Note_on_c, 0, 73, 71
2, 978, Note_off_c, 0, 77, 64
2, 1044, Note_on_c, 0, 74, 52
2, 1049, Note_on_c, 0, 77, 66
2, 1058, Note_off_c, 0, 76, 64
2, 1060, Note_off_c, 0, 73, 64
2, 1090, Note_on_c, 0, 79, 68
2, 1096, Note_off_c, 0, 74, 64
2, 1105, Note_off_c, 0, 77, 64
2, 1116, Note_on_c, 0, 74, 72
2, 1116, Note_on_c, 0, 58, 32
2, 1118, Note_on_c, 0, 62, 37
2, 1119, Note_on_c, 0, 77, 72
2, 1124, Note_on_c, 0, 53, 40
2, 1140, Note_off_c, 0, 79, 64
2, 1162, Note_off_c, 0, 58, 64
2, 1167, Note_off_c, 0, 62, 64
2, 1173, Note_off_c, 0, 53, 64
2, 1234, Note_on_c, 0, 76, 74
2, 1239, Note_on_c, 0, 73, 79
2, 1246, Note_off_c, 0, 74, 64
2, 1249, Note_off_c, 0, 77, 64
2, 1354, Control_c, 0, 64, 0
2, 1357, Note_on_c, 0, 77, 72
2, 1359, Note_on_c, 0, 74, 79
2, 1365, Note_off_c, 0, 76, 64
2, 1366, Note_off_c, 0, 73, 64
2, 1369, Note_on_c, 0, 58, 55
2, 1372, Note_on_c, 0, 46, 61
2, 1378, Control_c, 0, 64, 0
2, 1387, Control_c, 0, 64, 127
2, 1411, Control_c, 0, 64, 127
2, 1465, Note_off_c, 0, 46, 64
2, 1482, Note_off_c, 0, 58, 64
2, 1543, Note_on_c, 0, 70, 75
2, 1575, Note_off_c, 0, 70, 64
2, 1596, Note_on_c, 0, 75, 74
2, 1598, Note_on_c, 0, 67, 79
2, 1601, Control_c, 0, 64, 0
2, 1604, Note_on_c, 0, 70, 86
2, 1611, Note_on_c, 0, 58, 60
2, 1614, Note_on_c, 0, 51, 66
2, 1619, Note_off_c, 0, 74, 64
2, 1625, Control_c, 0, 64, 0
2, 1629, Note_off_c, 0, 77, 64
2, 1634, Control_c, 0, 64, 127
2, 1658, Control_c, 0, 64, 127
2, 1717, Note_off_c, 0, 51, 64
2, 1749, Note_off_c, 0, 58, 64
2, 1846, Note_on_c, 0, 65, 70
2, 1847, Note_on_c, 0, 74, 76
2, 1848, Control_c, 0, 64, 0
2, 1856, Note_on_c, 0, 58, 53
2, 1859, Note_on_c, 0, 46, 64
2, 1870, Note_off_c, 0, 75, 64
2, 1872, Note_off_c, 0, 67, 64
2, 1872, Control_c, 0, 64, 0
2, 1878, Note_off_c, 0, 70, 64
2, 1879, Control_c, 0, 64, 127
2, 1903, Control_c, 0, 64, 127
2, 1920, Note_off_c, 0, 58, 64
2, 1932, Note_off_c, 0, 46, 64
2, 2110, Control_c, 0, 64, 0
2, 2111, Note_on_c, 0, 72, 72
2, 2111, Note_on_c, 0, 41, 58
2, 2113, Note_on_c, 0, 63, 79
2, 2113, Note_on_c, 0, 29, 59
2, 2133, Note_off_c, 0, 65, 64
2, 2134, Note_off_c, 0, 74, 64
2, 2134, Control_c, 0, 64, 0
2, 2151, Control_c, 0, 64, 127
2, 2175, Control_c, 0, 64, 127
2, 2351, Note_off_c, 0, 41, 64
2, 2353, Note_off_c, 0, 29, 64
2, 2360, Control_c, 0, 64, 0
2, 2364, Note_on_c, 0, 53, 56
2, 2368, Note_on_c, 0, 57, 51
2, 2384, Control_c, 0, 64, 0
2, 2389, Control_c, 0, 64, 127
2, 2413, Control_c, 0, 64, 127
2, 2466, Note_on_c, 0, 75, 66
2, 2472, Note_on_c, 0, 67, 64
2, 2493, Note_off_c, 0, 63, 64
2, 2499, Note_off_c, 0, 72, 64
2, 2580, Note_on_c, 0, 74, 67
2, 2580, Note_on_c, 0, 65, 63
2, 2592, Note_off_c, 0, 67, 64
2, 2606, Note_off_c, 0, 75, 64
2, 2639, Note_off_c, 0, 57, 64
2, 2643, Note_off_c, 0, 53, 64
2, 2687, Note_on_c, 0, 72, 56
2, 2688, Note_on_c, 0, 63, 75
2, 2707, Note_off_c, 0, 65, 64
2, 2707, Note_off_c, 0, 74, 64
2, 2796, Control_c, 0, 64, 0
2, 2802, Note_on_c, 0, 65, 72
2, 2804, Note_on_c, 0, 74, 63
2, 2806, Note_on_c, 0, 34, 61
2, 2813, Note_on_c, 0, 46, 53
2, 2820, Control_c, 0, 64, 0
2, 2828, Note_off_c, 0, 63, 64
2, 2834, Note_off_c, 0, 72, 64
2, 2838, Control_c, 0, 64, 127
2, 2862, Control_c, 0, 64, 127
2, 2962, Note_off_c, 0, 65, 64
2, 3000, Note_on_c, 0, 65, 71
2, 3024, Note_off_c, 0, 46, 64
2, 3027, Control_c, 0, 64, 0
2, 3036, Note_on_c, 0, 46, 55
2, 3040, Note_on_c, 0, 62, 74
2, 3042, Note_on_c, 0, 70, 75
2, 3042, Note_on_c, 0, 58, 61
2, 3046, Note_off_c, 0, 65, 64
2, 3046, Note_off_c, 0, 34, 64
2, 3047, Note_on_c, 0, 53, 52
2, 3051, Control_c, 0, 64, 0
2, 3061, Control_c, 0, 64, 127
2, 3081, Note_off_c, 0, 74, 64
2, 3085, Control_c, 0, 64, 127
2, 3124, Note_off_c, 0, 46, 64
2, 3140, Note_off_c, 0, 58, 64
2, 3143, Note_off_c, 0, 53, 64
2, 3274, Note_on_c, 0, 74, 63
2, 3274, Note_on_c, 0, 65, 61
2, 3277, Note_off_c, 0, 70, 64
2, 3277, Note_on_c, 0, 46, 54
2, 3283, Note_on_c, 0, 58, 59
2, 3286, Note_on_c, 0, 53, 53
2, 3293, Note_off_c, 0, 62, 64
2, 3326, Note_off_c, 0, 53, 64
2, 3336, Note_off_c, 0, 58, 64
2, 3339, Note_off_c, 0, 46, 64
2, 3500, Note_off_c, 0, 65, 64
2, 3500, Note_off_c, 0, 74, 64
2, 3502, Control_c, 0, 64, 0
2, 3509, Note_on_c, 0, 77, 76
2, 3515, Note_on_c, 0, 74, 72
2, 3515, Note_on_c, 0, 34, 68
2, 3519, Note_on_c, 0, 46, 64
2, 3526, Control_c, 0, 64, 0
2, 3535, Control_c, 0, 64, 127
2, 3559, Control_c, 0, 64, 127
2, 3690, Note_off_c, 0, 77, 64
2, 3696, Note_off_c, 0, 74, 64
2, 3696, Note_on_c, 0, 77, 74
2, 3697, Note_on_c, 0, 74, 63
2, 3720, Note_off_c, 0, 74, 64
2, 3722, Note_off_c, 0, 77, 64
2, 3742, Note_on_c, 0, 77, 79
2, 3747, Note_on_c, 0, 74, 71
2, 3747, Note_on_c, 0, 62, 52
2, 3748, Note_on_c, 0, 58, 60
2, 3754, Note_on_c, 0, 53, 43
2, 3755, Note_off_c, 0, 34, 64
2, 3759, Note_off_c, 0, 46, 64
2, 3803, Note_off_c, 0, 58, 64
2, 3811, Note_off_c, 0, 53, 64
2, 3814, Note_off_c, 0, 62, 64
2, 3869, Note_off_c, 0, 77, 64
2, 3903, Note_off_c, 0, 74, 64
2, 3911, Note_on_c, 0, 77, 75
2, 3912, Note_on_c, 0, 74, 68
2, 3941, Note_on_c, 0, 79, 66
2, 3958, Note_off_c, 0, 77, 64
2, 3959, Note_off_c, 0, 74, 64
2, 3974, Note_on_c, 0, 74, 72
2, 3976, Note_on_c, 0, 77, 74
2, 3977, Note_on_c, 0, 62, 63
2, 3979, Note_on_c, 0, 58, 66
2, 3979, Note_on_c, 0, 53, 63
2, 4001, Note_off_c, 0, 79, 64
2, 4020, Note_off_c, 0, 62, 64
2, 4023, Note_off_c, 0, 58, 64
2, 4032, Note_off_c, 0, 53, 64
2, 4088, Note_on_c, 0, 73, 80
2, 4090, Note_off_c, 0, 74, 64
2, 4091, Note_on_c, 0, 76, 74
2, 4092, Note_off_c, 0, 77, 64
2, 4204, Note_on_c, 0, 77, 79
2, 4207, Note_on_c, 0, 74, 86
2, 4207, Note_on_c, 0, 46, 66
2, 4211, Note_off_c, 0, 73, 64
2, 4212, Note_on_c, 0, 58, 64
2, 4214, Note_off_c, 0, 76, 64
2, 4215, Control_c, 0, 64, 0
2, 4226, Control_c, 0, 64, 127
2, 4239, Control_c, 0, 64, 0
2, 4250, Control_c, 0, 64, 127
2, 4358, Note_off_c, 0, 46, 64
2, 4371, Note_off_c, 0, 58, 64
2, 4373, Note_on_c, 0, 70, 90
2, 4391, Note_off_c, 0, 77, 64
2, 4403, Note_off_c, 0, 74, 64
2, 4406, Note_off_c, 0, 70, 64
2, 4424, Note_on_c, 0, 70, 88
2, 4428, Control_c, 0, 64, 0
2, 4430, Note_on_c, 0, 67, 84
2, 4435, Note_on_c, 0, 75, 82
2, 4439, Note_on_c, 0, 58, 59
2, 4443, Note_on_c, 0, 51, 56
2, 4452, Control_c, 0, 64, 0
2, 4483, Control_c, 0, 64, 127
2, 4507, Control_c, 0, 64, 127
2, 4553, Note_off_c, 0, 51, 64
2, 4567, Note_off_c, 0, 58, 64
2, 4676, Control_c, 0, 64, 0
2, 4683, Note_off_c, 0, 70, 64
2, 4684, Note_on_c, 0, 58, 66
2, 4684, Note_on_c, 0, 46, 71
2, 4685, Note_on_c, 0, 74, 79
2, 4691, Note_on_c, 0, 70, 71
2, 4692, Note_on_c, 0, 65, 74
2, 4697, Note_off_c, 0, 67, 64
2, 4700, Control_c, 0, 64, 0
2, 4702, Note_off_c, 0, 75, 64
2, 4717, Control_c, 0, 64, 127
2, 4728, Note_off_c, 0, 58, 64
2, 4741, Control_c, 0, 64, 127
2, 4750, Note_off_c, 0, 46, 64
2, 4897, Note_off_c, 0, 70, 64
2, 4924, Note_on_c, 0, 70, 72
2, 4924, Note_on_c, 0, 63, 66
2, 4930, Note_on_c, 0, 72, 74
2, 4931, Control_c, 0, 64, 0
2, 4937, Note_on_c, 0, 41, 63
2, 4937, Note_on_c, 0, 29, 67
2, 4942, Note_off_c, 0, 74, 64
2, 4955, Control_c, 0, 64, 0
2, 4958, Note_off_c, 0, 65, 64
2, 4975, Control_c, 0, 64, 127
2, 4999, Control_c, 0, 64, 127
2, 5097, Note_off_c, 0, 70, 64
2, 5172, Control_c, 0, 64, 0
2, 5173, Note_on_c, 0, 60, 55
2, 5177, Note_off_c, 0, 29, 64
2, 5177, Note_off_c, 0, 41, 64
2, 5178, Note_on_c, 0, 53, 47
2, 5182, Note_on_c, 0, 69, 66
2, 5188, Note_off_c, 0, 63, 64
2, 5194, Control_c, 0, 64, 127
2, 5196, Control_c, 0, 64, 0
2, 5218, Control_c, 0, 64, 127
2, 5254, Note_off_c, 0, 72, 64
2, 5293, Note_on_c, 0, 75, 66
2, 5293, Note_on_c, 0, 67, 68
2, 5303, Note_off_c, 0, 69, 64
2, 5410, Note_on_c, 0, 65, 72
2, 5415, Note_on_c, 0, 74, 63
2, 5419, Note_off_c, 0, 75, 64
2, 5434, Note_off_c, 0, 67, 64
2, 5438, Note_off_c, 0, 60, 64
2, 5460, Note_off_c, 0, 53, 64
2, 5508, Note_on_c, 0, 72, 61
2, 5512, Note_off_c, 0, 65, 64
2, 5512, Note_on_c, 0, 63, 74
2, 5535, Note_off_c, 0, 74, 64
2, 5606, Control_c, 0, 64, 0
2, 5624, Note_on_c, 0, 46, 55
2, 5626, Note_on_c, 0, 65, 72
2, 5628, Note_on_c, 0, 74, 63
2, 5628, Note_on_c, 0, 34, 63
2, 5629, Note_off_c, 0, 72, 64
2, 5630, Control_c, 0, 64, 0
2, 5638, Note_off_c, 0, 63, 64
2, 5656, Control_c, 0, 64, 127
2, 5680, Control_c, 0, 64, 127
2, 5754, Note_off_c, 0, 65, 64
2, 5803, Note_off_c, 0, 74, 64
2, 5812, Note_on_c, 0, 65, 66
2, 5838, Control_c, 0, 64, 0
2, 5851, Note_off_c, 0, 65, 64
2, 5856, Note_on_c, 0, 65, 61
2, 5856, Note_on_c, 0, 62, 72
2, 5862, Note_on_c, 0, 70, 71
2, 5862, Control_c, 0, 64, 0
2, 5864, Note_off_c, 0, 46, 64
2, 5868, Note_off_c, 0, 34, 64
2, 5870, Control_c, 0, 64, 127
2, 5870, Note_on_c, 0, 58, 64
2, 5870, Note_on_c, 0, 53, 58
2, 5870, Note_on_c, 0, 46, 46
2, 5894, Control_c, 0, 64, 127
2, 5907, Note_off_c, 0, 46, 64
2, 5915, Note_off_c, 0, 58, 64
2, 5924, Note_off_c, 0, 53, 64
2, 6072, Note_off_c, 0, 65, 64
2, 6080, Note_off_c, 0, 62, 64
2, 6081, Note_on_c, 0, 74, 64
2, 6081, Note_on_c, 0, 58, 54
2, 6084, Note_on_c, 0, 62, 49
2, 6086, Note_on_c, 0, 65, 63
2, 6086, Note_on_c, 0, 46, 59
2, 6088, Note_off_c, 0, 70, 64
2, 6117, Note_off_c, 0, 58, 64
2, 6134, Note_off_c, 0, 46, 64
2, 6261, Control_c, 0, 64, 0
2, 6285, Control_c, 0, 64, 0
2, 6311, Note_off_c, 0, 74, 64
2, 6314, Note_off_c, 0, 62, 64
2, 6314, Note_on_c, 0, 60, 99
2, 6316, Note_off_c, 0, 65, 64
2, 6318, Note_on_c, 0, 48, 93
2, 6318, Note_on_c, 0, 36, 103
2, 6340, Control_c, 0, 64, 127
2, 6364, Control_c, 0, 64, 127
2, 6554, Note_off_c, 0, 60, 64
2, 6602, Note_on_c, 0, 76, 63
2, 6604, Note_on_c, 0, 82, 103
2, 6604, Note_on_c, 0, 70, 72
2, 6605, Note_on_c, 0, 67, 53
2, 6605, Note_on_c, 0, 60, 52
2, 6618, Control_c, 0, 64, 0
2, 6642, Control_c, 0, 64, 0
2, 6661, Control_c, 0, 64, 127
2, 6685, Control_c, 0, 64, 127
2, 6843, Note_off_c, 0, 67, 64
2, 6852, Note_off_c, 0, 60, 64
2, 6939, Note_off_c, 0, 70, 64
2, 6948, Note_off_c, 0, 76, 64
2, 6963, Note_on_c, 0, 81, 86
2, 6963, Note_on_c, 0, 70, 72
2, 6964, Note_on_c, 0, 67, 58
2, 6968, Note_on_c, 0, 76, 59
2, 6968, Note_on_c, 0, 60, 55
2, 6978, Note_off_c, 0, 82, 64
2, 7022, Note_off_c, 0, 67, 64
2, 7027, Note_off_c, 0, 70, 64
2, 7030, Note_off_c, 0, 60, 64
2, 7032, Note_off_c, 0, 76, 64
2, 7069, Control_c, 0, 64, 0
2, 7076, Note_on_c, 0, 76, 63
2, 7076, Note_on_c, 0, 67, 59
2, 7077, Note_on_c, 0, 78, 80
2, 7079, Note_on_c, 0, 70, 90
2, 7081, Note_on_c, 0, 60, 56
2, 7084, Note_off_c, 0, 81, 64
2, 7085, Control_c, 0, 64, 127
2, 7093, Control_c, 0, 64, 0
2, 7109, Control_c, 0, 64, 127
2, 7155, Note_off_c, 0, 67, 64
2, 7181, Note_off_c, 0, 60, 64
2, 7217, Note_off_c, 0, 70, 64
2, 7219, Note_off_c, 0, 76, 64
2, 7240, Note_on_c, 0, 67, 90
2, 7244, Note_on_c, 0, 70, 82
2, 7244, Note_on_c, 0, 60, 59
2, 7250, Note_on_c, 0, 76, 68
2, 7253, Note_on_c, 0, 79, 72
2, 7254, Note_off_c, 0, 78, 64
2, 7263, Note_off_c, 0, 60, 64
2, 7272, Note_off_c, 0, 70, 64
2, 7274, Note_off_c, 0, 76, 64
2, 7277, Note_off_c, 0, 67, 64
2, 7284, Note_on_c, 0, 60, 55
2, 7292, Note_on_c, 0, 76, 67
2, 7292, Note_on_c, 0, 70, 91
2, 7292, Note_on_c, 0, 67, 54
2, 7293, Note_on_c, 0, 81, 99
2, 7300, Note_off_c, 0, 79, 64
2, 7425, Control_c, 0, 64, 0
2, 7449, Control_c, 0, 64, 0
2, 7461, Control_c, 0, 64, 127
2, 7482, Note_off_c, 0, 67, 64
2, 7485, Control_c, 0, 64, 127
2, 7488, Note_off_c, 0, 76, 64
2, 7503, Note_off_c, 0, 70, 64
2, 7508, Note_off_c, 0, 60, 64
2, 7524, Note_on_c, 0, 70, 91
2, 7526, Note_on_c, 0, 79, 99
2, 7528, Note_off_c, 0, 81, 64
2, 7528, Note_on_c, 0, 76, 63
2, 7528, Note_on_c, 0, 67, 66
2, 7529, Note_on_c, 0, 60, 59
2, 7533, Note_off_c, 0, 36, 64
2, 7533, Note_off_c, 0, 48, 64
2, 7645, Note_off_c, 0, 67, 64
2, 7650, Note_off_c, 0, 60, 64
2, 7657, Note_off_c, 0, 76, 64
2, 7657, Note_off_c, 0, 79, 64
2, 7666, Note_off_c, 0, 70, 64
2, 7743, Control_c, 0, 64, 0
2, 7754, Note_on_c, 0, 60, 79
2, 7758, Note_on_c, 0, 36, 79
2, 7761, Note_on_c, 0, 48, 79
2, 7767, Control_c, 0, 64, 0
2, 7779, Control_c, 0, 64, 127
2, 7803, Control_c, 0, 64, 127
2, 7994, Note_off_c, 0, 60, 64
2, 8009, Note_on_c, 0, 76, 82
2, 8009, Note_on_c, 0, 70, 80
2, 8016, Note_on_c, 0, 81, 96
2, 8017, Note_on_c, 0, 67, 75
2, 8017, Note_on_c, 0, 60, 72
2, 8040, Control_c, 0, 64, 0
2, 8064, Control_c, 0, 64, 0
2, 8076, Control_c, 0, 64, 127
2, 8100, Control_c, 0, 64, 127
2, 8326, Note_off_c, 0, 70, 64
2, 8326, Note_off_c, 0, 76, 64
2, 8334, Note_off_c, 0, 60, 64
2, 8334, Note_off_c, 0, 67, 64
2, 8354, Note_on_c, 0, 70, 72
2, 8356, Note_on_c, 0, 76, 90
2, 8357, Note_on_c, 0, 79, 86
2, 8358, Note_on_c, 0, 60, 68
2, 8363, Note_on_c, 0, 67, 68
2, 8380, Note_off_c, 0, 81, 64
2, 8403, Note_off_c, 0, 36, 64
2, 8406, Note_off_c, 0, 48, 64
2, 8421, Note_off_c, 0, 67, 64
2, 8427, Note_off_c, 0, 76, 64
2, 8433, Note_off_c, 0, 70, 64
2, 8440, Note_off_c, 0, 60, 64
2, 8461, Note_on_c, 0, 69, 73
2, 8461, Note_on_c, 0, 65, 67
2, 8463, Control_c, 0, 64, 0
2, 8464, Note_on_c, 0, 60, 57
2, 8468, Note_on_c, 0, 77, 92
2, 8471, Note_on_c, 0, 53, 64
2, 8476, Control_c, 0, 64, 127
2, 8478, Note_off_c, 0, 79, 64
2, 8487, Control_c, 0, 64, 0
2, 8500, Control_c, 0, 64, 127
2, 8536, Note_off_c, 0, 60, 64
2, 8557, Note_off_c, 0, 77, 64
2, 8573, Note_off_c, 0, 53, 64
2, 8581, Note_off_c, 0, 65, 64
2, 8582, Note_off_c, 0, 69, 64
2, 8648, Note_on_c, 0, 70, 75
2, 8648, Note_on_c, 0, 65, 74
2, 8648, Note_on_c, 0, 62, 66
2, 8652, Note_on_c, 0, 74, 72
2, 8660, Control_c, 0, 64, 0
2, 8679, Note_off_c, 0, 65, 64
2, 8684, Control_c, 0, 64, 0
2, 8693, Note_on_c, 0, 60, 59
2, 8694, Note_on_c, 0, 69, 75
2, 8696, Note_on_c, 0, 65, 57
2, 8700, Note_on_c, 0, 72, 75
2, 8700, Note_on_c, 0, 53, 54
2, 8705, Control_c, 0, 64, 127
2, 8712, Note_off_c, 0, 70, 64
2, 8722, Note_off_c, 0, 62, 64
2, 8724, Note_off_c, 0, 74, 64
2, 8729, Control_c, 0, 64, 127
2, 8896, Note_off_c, 0, 53, 64
2, 8897, Note_off_c, 0, 69, 64
2, 8915, Note_off_c, 0, 60, 64
2, 8916, Control_c, 0, 64, 0
2, 8918, Note_off_c, 0, 72, 64
2, 8937, Note_off_c, 0, 65, 64
2, 8938, Note_on_c, 0, 77, 75
2, 8940, Note_on_c, 0, 69, 75
2, 8940, Control_c, 0, 64, 0
2, 8948, Note_on_c, 0, 60, 57
2, 8949, Note_on_c, 0, 65, 70
2, 8949, Note_on_c, 0, 53, 64
2, 8950, Control_c, 0, 64, 127
2, 8974, Control_c, 0, 64, 127
2, 9029, Control_c, 0, 64, 0
2, 9053, Control_c, 0, 64, 0
2, 9065, Control_c, 0, 64, 127
2, 9089, Control_c, 0, 64, 127
2, 9117, Note_off_c, 0, 65, 64
2, 9142, Note_off_c, 0, 69, 64
2, 9145, Note_off_c, 0, 60, 64
2, 9151, Note_off_c, 0, 77, 64
2, 9170, Note_off_c, 0, 53, 64
2, 9177, Control_c, 0, 64, 0
2, 9178, Note_on_c, 0, 60, 86
2, 9184, Note_on_c, 0, 36, 90
2, 9188, Note_on_c, 0, 48, 90
2, 9189, Control_c, 0, 64, 127
2, 9201, Control_c, 0, 64, 0
2, 9213, Control_c, 0, 64, 127
2, 9418, Note_off_c, 0, 60, 64
2, 9429, Note_on_c, 0, 82, 101
2, 9430, Control_c, 0, 64, 0
2, 9432, Note_on_c, 0, 76, 74
2, 9432, Note_on_c, 0, 70, 74
2, 9433, Note_on_c, 0, 67, 68
2, 9433, Note_on_c, 0, 60, 59
2, 9454, Control_c, 0, 64, 0
2, 9481, Control_c, 0, 64, 127
2, 9505, Control_c, 0, 64, 127
2, 9646, Note_off_c, 0, 70, 64
2, 9669, Note_off_c, 0, 67, 64
2, 9671, Note_off_c, 0, 60, 64
2, 9713, Note_off_c, 0, 76, 64
2, 9756, Note_on_c, 0, 70, 60
2, 9761, Note_on_c, 0, 81, 70
2, 9761, Note_on_c, 0, 76, 60
2, 9766, Note_on_c, 0, 60, 40
2, 9770, Note_on_c, 0, 67, 48
2, 9775, Note_off_c, 0, 82, 64
2, 9799, Note_off_c, 0, 70, 64
2, 9807, Note_off_c, 0, 76, 64
2, 9813, Note_off_c, 0, 67, 64
2, 9813, Note_off_c, 0, 60, 64
2, 9822, Note_off_c, 0, 81, 64
2, 9831, Control_c, 0, 64, 0
2, 9855, Control_c, 0, 64, 0
2, 9860, Note_on_c, 0, 67, 43
2, 9861, Note_on_c, 0, 60, 44
2, 9869, Note_on_c, 0, 78, 77
2, 9869, Note_on_c, 0, 70, 73
2, 9872, Note_on_c, 0, 76, 81
2, 9874, Control_c, 0, 64, 127
2, 9898, Control_c, 0, 64, 127
2, 9921, Control_c, 0, 64, 0
2, 9945, Control_c, 0, 64, 0
2, 9957, Control_c, 0, 64, 127
2, 9981, Control_c, 0, 64, 127
2, 9997, Note_off_c, 0, 76, 64
2, 10018, Note_on_c, 0, 70, 75
2, 10021, Note_off_c, 0, 60, 64
2, 10023, Note_off_c, 0, 67, 64
2, 10023, Note_on_c, 0, 79, 73
2, 10027, Note_off_c, 0, 70, 64
2, 10027, Note_off_c, 0, 78, 64
2, 10028, Note_on_c, 0, 76, 68
2, 10028, Note_on_c, 0, 67, 64
2, 10031, Note_on_c, 0, 60, 59
2, 10048, Note_off_c, 0, 70, 64
2, 10054, Control_c, 0, 64, 0
2, 10060, Note_off_c, 0, 76, 64
2, 10069, Note_off_c, 0, 67, 64
2, 10072, Note_off_c, 0, 60, 64
2, 10073, Note_off_c, 0, 79, 64
2, 10074, Note_on_c, 0, 81, 92
2, 10076, Control_c, 0, 64, 127
2, 10078, Note_on_c, 0, 76, 74
2, 10078, Note_on_c, 0, 70, 84
2, 10078, Control_c, 0, 64, 0
2, 10088, Note_on_c, 0, 67, 57
2, 10088, Note_on_c, 0, 60, 54
2, 10100, Control_c, 0, 64, 127
2, 10218, Note_off_c, 0, 76, 64
2, 10241, Note_off_c, 0, 60, 64
2, 10248, Note_off_c, 0, 70, 64
2, 10265, Note_off_c, 0, 67, 64
2, 10286, Control_c, 0, 64, 0
2, 10293, Note_on_c, 0, 70, 78
2, 10298, Note_on_c, 0, 79, 89
2, 10299, Control_c, 0, 64, 127
2, 10301, Note_on_c, 0, 67, 52
2, 10303, Note_on_c, 0, 60, 53
2, 10310, Control_c, 0, 64, 0
2, 10316, Note_off_c, 0, 81, 64
2, 10323, Control_c, 0, 64, 127
2, 10399, Note_off_c, 0, 36, 64
2, 10403, Note_off_c, 0, 48, 64
2, 10453, Note_off_c, 0, 60, 64
2, 10469, Note_off_c, 0, 67, 64
2, 10501, Note_off_c, 0, 70, 64
2, 10506, Note_off_c, 0, 79, 64
2, 10508, Control_c, 0, 64, 0
2, 10512, Note_on_c, 0, 84, 74
2, 10517, Note_on_c, 0, 69, 63
2, 10519, Note_on_c, 0, 75, 72
2, 10519, Note_on_c, 0, 65, 72
2, 10532, Control_c, 0, 64, 0
2, 10542, Control_c, 0, 64, 127
2, 10566, Control_c, 0, 64, 127
2, 10638, Note_off_c, 0, 84, 64
2, 10645, Note_off_c, 0, 65, 64
2, 10645, Note_off_c, 0, 75, 64
2, 10653, Note_off_c, 0, 69, 64
2, 10662, Note_on_c, 0, 68, 64
2, 10668, Note_on_c, 0, 58, 59
2, 10673, Note_on_c, 0, 77, 71
2, 10673, Note_on_c, 0, 74, 70
2, 10715, Control_c, 0, 64, 0
2, 10722, Note_on_c, 0, 63, 70
2, 10723, Note_off_c, 0, 58, 64
2, 10727, Note_off_c, 0, 68, 64
2, 10730, Note_on_c, 0, 67, 72
2, 10732, Note_on_c, 0, 82, 79
2, 10739, Note_off_c, 0, 77, 64
2, 10739, Note_on_c, 0, 73, 75
2, 10739, Control_c, 0, 64, 0
2, 10748, Note_off_c, 0, 74, 64
2, 10751, Control_c, 0, 64, 127
2, 10775, Control_c, 0, 64, 127
2, 10872, Note_off_c, 0, 67, 64
2, 10909, Note_off_c, 0, 63, 64
2, 10942, Note_off_c, 0, 73, 64
2, 10948, Control_c, 0, 64, 0
2, 10951, Note_on_c, 0, 75, 68
2, 10955, Note_on_c, 0, 72, 67
2, 10958, Note_on_c, 0, 56, 64
2, 10963, Note_on_c, 0, 66, 63
2, 10972, Control_c, 0, 64, 0
2, 10990, Control_c, 0, 64, 127
2, 10998, Note_off_c, 0, 82, 64
2, 11014, Control_c, 0, 64, 127
2, 11103, Note_off_c, 0, 56, 64
2, 11145, Note_off_c, 0, 66, 64
2, 11147, Control_c, 0, 64, 0
2, 11162, Note_off_c, 0, 72, 64
2, 11171, Control_c, 0, 64, 0
2, 11178, Note_on_c, 0, 62, 60
2, 11180, Note_on_c, 0, 80, 66
2, 11180, Note_on_c, 0, 72, 63
2, 11182, Control_c, 0, 64, 127
2, 11185, Note_on_c, 0, 65, 60
2, 11190, Note_off_c, 0, 75, 64
2, 11206, Control_c, 0, 64, 127
2, 11273, Note_off_c, 0, 62, 64
2, 11276, Note_off_c, 0, 65, 64
2, 11284, Note_off_c, 0, 72, 64
2, 11325, Note_off_c, 0, 80, 64
2, 11329, Note_on_c, 0, 55, 53
2, 11335, Note_on_c, 0, 65, 56
2, 11341, Note_on_c, 0, 71, 47
2, 11342, Note_on_c, 0, 74, 56
2, 11371, Note_off_c, 0, 71, 64
2, 11374, Note_off_c, 0, 55, 64
2, 11379, Control_c, 0, 64, 0
2, 11388, Note_off_c, 0, 74, 64
2, 11394, Note_on_c, 0, 70, 71
2, 11403, Note_on_c, 0, 79, 55
2, 11403, Control_c, 0, 64, 0
2, 11410, Note_on_c, 0, 60, 52
2, 11412, Note_off_c, 0, 65, 64
2, 11412, Note_on_c, 0, 64, 51
2, 11426, Control_c, 0, 64, 127
2, 11450, Control_c, 0, 64, 127
2, 11624, Control_c, 0, 64, 0
2, 11628, Note_on_c, 0, 72, 63
2, 11630, Note_on_c, 0, 69, 59
2, 11632, Note_on_c, 0, 63, 49
2, 11636, Note_off_c, 0, 60, 64
2, 11639, Note_on_c, 0, 53, 51
2, 11642, Note_off_c, 0, 64, 64
2, 11648, Control_c, 0, 64, 0
2, 11661, Control_c, 0, 64, 127
2, 11666, Note_off_c, 0, 70, 64
2, 11685, Control_c, 0, 64, 127
2, 11700, Note_off_c, 0, 79, 64
2, 11875, Note_off_c, 0, 63, 64
2, 11880, Note_off_c, 0, 72, 64
2, 11888, Note_off_c, 0, 69, 64
2, 11898, Note_off_c, 0, 53, 64
2, 11902, Control_c, 0, 64, 0
2, 11903, Note_on_c, 0, 77, 70
2, 11903, Note_on_c, 0, 74, 67
2, 11903, Note_on_c, 0, 68, 59
2, 11907, Note_on_c, 0, 46, 67
2, 11911, Note_on_c, 0, 34, 63
2, 11926, Control_c, 0, 64, 0
2, 11966, Control_c, 0, 64, 127
2, 11990, Control_c, 0, 64, 127
2, 12054, Note_off_c, 0, 68, 64
2, 12127, Note_on_c, 0, 68, 76
2, 12128, Note_on_c, 0, 65, 63
2, 12132, Note_on_c, 0, 58, 60
2, 12147, Note_off_c, 0, 46, 64
2, 12151, Note_off_c, 0, 34, 64
2, 12159, Note_off_c, 0, 65, 64
2, 12165, Note_off_c, 0, 58, 64
2, 12218, Note_off_c, 0, 68, 64
2, 12251, Note_on_c, 0, 79, 70
2, 12284, Note_off_c, 0, 77, 64
2, 12324, Note_off_c, 0, 74, 64
2, 12347, Note_on_c, 0, 77, 64
2, 12359, Note_off_c, 0, 79, 64
2, 12376, Note_on_c, 0, 79, 74
2, 12383, Note_off_c, 0, 77, 64
2, 12387, Control_c, 0, 64, 0
2, 12395, Note_on_c, 0, 58, 44
2, 12399, Note_on_c, 0, 65, 43
2, 12405, Note_on_c, 0, 77, 80
2, 12411, Note_on_c, 0, 74, 79
2, 12411, Note_on_c, 0, 68, 74
2, 12411, Control_c, 0, 64, 0
2, 12414, Control_c, 0, 64, 127
2, 12428, Note_off_c, 0, 79, 64
2, 12438, Control_c, 0, 64, 127
2, 12460, Note_off_c, 0, 58, 64
2, 12468, Note_off_c, 0, 65, 64
2, 12548, Note_on_c, 0, 73, 66
2, 12551, Note_on_c, 0, 76, 71
2, 12553, Note_off_c, 0, 68, 64
2, 12567, Note_off_c, 0, 77, 64
2, 12576, Note_off_c, 0, 74, 64
2, 12657, Note_on_c, 0, 77, 66
2, 12657, Note_on_c, 0, 74, 67
2, 12661, Note_off_c, 0, 73, 64
2, 12665, Control_c, 0, 64, 0
2, 12666, Note_on_c, 0, 58, 44
2, 12666, Note_on_c, 0, 46, 63
2, 12668, Note_off_c, 0, 76, 64
2, 12673, Note_on_c, 0, 68, 60
2, 12689, Control_c, 0, 64, 0
2, 12701, Control_c, 0, 64, 127
2, 12725, Control_c, 0, 64, 127
2, 12771, Note_off_c, 0, 46, 64
2, 12784, Note_off_c, 0, 58, 64
2, 12795, Note_off_c, 0, 68, 64
2, 12824, Note_on_c, 0, 70, 79
2, 12852, Note_off_c, 0, 70, 64
2, 12875, Note_on_c, 0, 75, 72
2, 12883, Note_off_c, 0, 74, 64
2, 12886, Note_on_c, 0, 70, 84
2, 12886, Note_on_c, 0, 58, 61
2, 12886, Note_on_c, 0, 51, 60
2, 12887, Control_c, 0, 64, 0
2, 12891, Note_on_c, 0, 66, 80
2, 12892, Note_off_c, 0, 77, 64
2, 12911, Control_c, 0, 64, 0
2, 12930, Control_c, 0, 64, 127
2, 12954, Control_c, 0, 64, 127
2, 12984, Note_off_c, 0, 51, 64
2, 13007, Note_off_c, 0, 58, 64
2, 13057, Note_off_c, 0, 70, 64
2, 13088, Note_off_c, 0, 66, 64
2, 13118, Note_on_c, 0, 74, 74
2, 13118, Note_on_c, 0, 70, 72
2, 13118, Note_on_c, 0, 65, 66
2, 13120, Control_c, 0, 64, 0
2, 13124, Note_on_c, 0, 58, 59
2, 13124, Note_on_c, 0, 53, 66
2, 13130, Note_off_c, 0, 75, 64
2, 13144, Control_c, 0, 64, 0
2, 13164, Control_c, 0, 64, 127
2, 13188, Control_c, 0, 64, 127
2, 13245, Note_off_c, 0, 58, 64
2, 13249, Note_off_c, 0, 65, 64
2, 13265, Note_off_c, 0, 70, 64
2, 13272, Note_off_c, 0, 53, 64
2, 13345, Note_on_c, 0, 58, 63
2, 13348, Note_on_c, 0, 63, 80
2, 13353, Note_on_c, 0, 72, 66
2, 13353, Control_c, 0, 64, 0
2, 13357, Note_off_c, 0, 74, 64
2, 13357, Note_on_c, 0, 70, 72
2, 13361, Note_on_c, 0, 54, 49
2, 13377, Control_c, 0, 64, 0
2, 13396, Control_c, 0, 64, 127
2, 13420, Control_c, 0, 64, 127
2, 13425, Note_off_c, 0, 63, 64
2, 13566, Control_c, 0, 64, 0
2, 13580, Note_on_c, 0, 66, 75
2, 13584, Note_on_c, 0, 51, 63
2, 13590, Control_c, 0, 64, 0
2, 13603, Note_off_c, 0, 54, 64
2, 13612, Control_c, 0, 64, 127
2, 13636, Control_c, 0, 64, 127
2, 13661, Note_off_c, 0, 70, 64
2, 13678, Note_on_c, 0, 75, 71
2, 13687, Note_off_c, 0, 72, 64
2, 13739, Note_off_c, 0, 66, 64
2, 13791, Note_off_c, 0, 51, 64
2, 13792, Control_c, 0, 64, 0
2, 13796, Note_on_c, 0, 53, 64
2, 13799, Note_on_c, 0, 65, 63
2, 13802, Note_on_c, 0, 74, 72
2, 13803, Note_on_c, 0, 69, 63
2, 13815, Note_off_c, 0, 75, 64
2, 13816, Control_c, 0, 64, 0
2, 13830, Control_c, 0, 64, 127
2, 13852, Note_off_c, 0, 58, 64
2, 13854, Control_c, 0, 64, 127
2, 13886, Note_off_c, 0, 65, 64
2, 13897, Note_on_c, 0, 72, 61
2, 13907, Note_on_c, 0, 63, 79
2, 13917, Note_off_c, 0, 69, 64
2, 13938, Note_off_c, 0, 74, 64
2, 13950, Note_off_c, 0, 53, 64
2, 13991, Note_off_c, 0, 63, 64
2, 14018, Control_c, 0, 64, 0
2, 14018, Note_on_c, 0, 65, 74
2, 14021, Note_on_c, 0, 74, 67
2, 14026, Note_off_c, 0, 72, 64
2, 14029, Note_on_c, 0, 46, 72
2, 14029, Note_on_c, 0, 34, 63
2, 14042, Control_c, 0, 64, 0
2, 14064, Control_c, 0, 64, 127
2, 14088, Control_c, 0, 64, 127
2, 14135, Note_off_c, 0, 65, 64
2, 14189, Note_off_c, 0, 74, 64
2, 14196, Note_on_c, 0, 65, 79
2, 14231, Note_off_c, 0, 65, 64
2, 14232, Note_off_c, 0, 46, 64
2, 14232, Control_c, 0, 64, 0
2, 14244, Note_on_c, 0, 58, 82
2, 14244, Note_on_c, 0, 53, 74
2, 14247, Note_on_c, 0, 70, 80
2, 14248, Note_on_c, 0, 65, 66
2, 14248, Note_on_c, 0, 46, 63
2, 14252, Note_on_c, 0, 62, 79
2, 14256, Control_c, 0, 64, 0
2, 14269, Note_off_c, 0, 34, 64
2, 14272, Control_c, 0, 64, 127
2, 14296, Control_c, 0, 64, 127
2, 14373, Note_off_c, 0, 62, 64
2, 14393, Note_off_c, 0, 65, 64
2, 14404, Note_off_c, 0, 58, 64
2, 14408, Note_off_c, 0, 46, 64
2, 14415, Note_off_c, 0, 53, 64
2, 14452, Control_c, 0, 64, 127
2, 14456, Note_on_c, 0, 62, 41
2, 14456, Note_on_c, 0, 53, 64
2, 14457, Note_on_c, 0, 65, 72
2, 14457, Note_on_c, 0, 46, 74
2, 14458, Note_off_c, 0, 70, 64
2, 14460, Note_on_c, 0, 74, 72
2, 14462, Note_on_c, 0, 58, 79
2, 14476, Control_c, 0, 64, 127
2, 14483, Control_c, 0, 64, 0
2, 14507, Control_c, 0, 64, 0
2, 14593, Note_off_c, 0, 62, 64
2, 14646, Note_off_c, 0, 65, 64
2, 14676, Control_c, 0, 64, 0
2, 14676, Note_on_c, 0, 77, 72
2, 14677, Note_off_c, 0, 74, 64
2, 14684, Note_off_c, 0, 53, 64
2, 14691, Note_on_c, 0, 56, 64
2, 14692, Note_on_c, 0, 72, 72
2, 14692, Note_on_c, 0, 65, 63
2, 14692, Note_on_c, 0, 60, 67
2, 14700, Note_off_c, 0, 46, 64
2, 14700, Control_c, 0, 64, 0
2, 14709, Note_off_c, 0, 58, 64
2, 14750, Control_c, 0, 64, 127
2, 14774, Control_c, 0, 64, 127
2, 14798, Note_off_c, 0, 56, 64
2, 14803, Note_off_c, 0, 72, 64
2, 14830, Note_off_c, 0, 65, 64
2, 14834, Note_off_c, 0, 60, 64
2, 14905, Note_on_c, 0, 72, 51
2, 14910, Note_on_c, 0, 60, 61
2, 14915, Note_on_c, 0, 65, 59
2, 14915, Note_on_c, 0, 56, 54
2, 14954, Note_off_c, 0, 56, 64
2, 14961, Note_off_c, 0, 72, 64
2, 14970, Note_off_c, 0, 60, 64
2, 14972, Note_off_c, 0, 65, 64
2, 15017, Note_on_c, 0, 79, 63
2, 15030, Note_off_c, 0, 77, 64
2, 15084, Note_on_c, 0, 77, 67
2, 15099, Note_off_c, 0, 79, 64
2, 15112, Note_on_c, 0, 79, 66
2, 15121, Note_off_c, 0, 77, 64
2, 15121, Control_c, 0, 64, 0
2, 15136, Note_on_c, 0, 77, 80
2, 15136, Note_on_c, 0, 72, 66
2, 15137, Note_on_c, 0, 60, 39
2, 15144, Note_on_c, 0, 65, 52
2, 15145, Note_on_c, 0, 56, 51
2, 15145, Control_c, 0, 64, 0
2, 15155, Note_off_c, 0, 79, 64
2, 15160, Control_c, 0, 64, 127
2, 15184, Control_c, 0, 64, 127
2, 15212, Note_off_c, 0, 56, 64
2, 15212, Note_off_c, 0, 60, 64
2, 15230, Note_off_c, 0, 65, 64
2, 15251, Note_on_c, 0, 76, 68
2, 15254, Note_off_c, 0, 77, 64
2, 15264, Note_off_c, 0, 72, 64
2, 15353, Control_c, 0, 64, 0
2, 15356, Note_on_c, 0, 77, 75
2, 15360, Note_on_c, 0, 71, 66
2, 15363, Note_on_c, 0, 62, 64
2, 15367, Note_on_c, 0, 55, 60
2, 15374, Note_off_c, 0, 76, 64
2, 15377, Control_c, 0, 64, 0
2, 15410, Control_c, 0, 64, 127
2, 15434, Control_c, 0, 64, 127
2, 15452, Note_off_c, 0, 55, 64
2, 15477, Note_off_c, 0, 62, 64
2, 15496, Note_off_c, 0, 71, 64
2, 15509, Note_off_c, 0, 77, 64
2, 15516, Note_on_c, 0, 71, 74
2, 15523, Note_on_c, 0, 62, 63
2, 15531, Note_on_c, 0, 55, 52
2, 15550, Note_off_c, 0, 71, 64
2, 15561, Control_c, 0, 64, 0
2, 15562, Note_on_c, 0, 75, 80
2, 15569, Note_on_c, 0, 71, 74
2, 15572, Note_on_c, 0, 67, 67
2, 15585, Control_c, 0, 64, 0
2, 15589, Note_off_c, 0, 62, 64
2, 15605, Control_c, 0, 64, 127
2, 15629, Control_c, 0, 64, 127
2, 15644, Note_off_c, 0, 55, 64
2, 15793, Note_off_c, 0, 67, 64
2, 15794, Control_c, 0, 64, 0
2, 15795, Note_off_c, 0, 71, 64
2, 15799, Note_on_c, 0, 65, 63
2, 15799, Note_on_c, 0, 55, 61
2, 15801, Note_on_c, 0, 74, 72
2, 15805, Note_on_c, 0, 71, 66
2, 15811, Note_off_c, 0, 75, 64
2, 15818, Control_c, 0, 64, 0
2, 15837, Control_c, 0, 64, 127
2, 15861, Control_c, 0, 64, 127
2, 15893, Note_off_c, 0, 55, 64
2, 15945, Note_off_c, 0, 65, 64
2, 15976, Note_off_c, 0, 71, 64
2, 16027, Control_c, 0, 64, 0
2, 16030, Note_on_c, 0, 72, 70
2, 16030, Note_on_c, 0, 70, 70
2, 16034, Note_on_c, 0, 60, 59
2, 16037, Note_on_c, 0, 64, 63
2, 16040, Note_off_c, 0, 74, 64
2, 16051, Control_c, 0, 64, 0
2, 16070, Control_c, 0, 64, 127
2, 16094, Control_c, 0, 64, 127
2, 16112, Note_off_c, 0, 64, 64
2, 16112, Note_off_c, 0, 60, 64
2, 16239, Control_c, 0, 64, 0
2, 16241, Note_off_c, 0, 70, 64
2, 16248, Note_on_c, 0, 69, 64
2, 16248, Note_on_c, 0, 63, 58
2, 16256, Note_on_c, 0, 53, 64
2, 16263, Control_c, 0, 64, 0
2, 16272, Control_c, 0, 64, 127
2, 16296, Control_c, 0, 64, 127
2, 16355, Note_on_c, 0, 75, 66
2, 16355, Note_on_c, 0, 67, 64
2, 16360, Note_off_c, 0, 72, 64
2, 16367, Note_off_c, 0, 63, 64
2, 16369, Note_off_c, 0, 53, 64
2, 16444, Control_c, 0, 64, 0
2, 16459, Control_c, 0, 64, 127
2, 16466, Note_on_c, 0, 65, 58
2, 16468, Control_c, 0, 64, 0
2, 16475, Note_on_c, 0, 74, 68
2, 16483, Control_c, 0, 64, 127
2, 16488, Note_off_c, 0, 75, 64
2, 16490, Note_off_c, 0, 67, 64
2, 16561, Note_on_c, 0, 72, 66
2, 16568, Note_off_c, 0, 65, 64
2, 16568, Note_on_c, 0, 63, 67
2, 16588, Note_off_c, 0, 69, 64
2, 16596, Note_off_c, 0, 74, 64
2, 16672, Control_c, 0, 64, 0
2, 16676, Note_on_c, 0, 58, 72
2, 16679, Note_on_c, 0, 62, 56
2, 16682, Note_on_c, 0, 74, 67
2, 16684, Note_on_c, 0, 70, 86
2, 16696, Control_c, 0, 64, 0
2, 16697, Note_off_c, 0, 63, 64
2, 16697, Control_c, 0, 64, 127
2, 16717, Note_off_c, 0, 72, 64
2, 16721, Control_c, 0, 64, 127
2, 16731, Note_off_c, 0, 58, 64
2, 16736, Note_off_c, 0, 70, 64
2, 16765, Note_off_c, 0, 62, 64
2, 16833, Note_on_c, 0, 53, 74
2, 16836, Note_on_c, 0, 65, 68
2, 16836, Note_on_c, 0, 60, 63
2, 16842, Note_on_c, 0, 72, 51
2, 16844, Control_c, 0, 64, 0
2, 16848, Note_off_c, 0, 74, 64
2, 16864, Note_off_c, 0, 65, 64
2, 16868, Control_c, 0, 64, 0
2, 16872, Note_off_c, 0, 60, 64
2, 16872, Note_off_c, 0, 53, 64
2, 16875, Note_off_c, 0, 72, 64
2, 16882, Note_on_c, 0, 62, 79
2, 16884, Control_c, 0, 64, 127
2, 16884, Note_on_c, 0, 70, 86
2, 16884, Control_c, 0, 64, 127
2, 16884, Note_on_c, 0, 58, 88
2, 16884, Note_on_c, 0, 46, 47
2, 16908, Control_c, 0, 64, 127
2, 16908, Control_c, 0, 64, 127
2, 16915, Control_c, 0, 64, 0
2, 16939, Control_c, 0, 64, 0
2, 17099, Note_off_c, 0, 62, 64
2, 17101, Note_off_c, 0, 46, 64
2, 17101, Note_off_c, 0, 58, 64
2, 17101, Note_off_c, 0, 70, 64
2, 17101, Control_c, 0, 64, 0
2, 17111, Note_on_c, 0, 82, 91
2, 17111, Note_on_c, 0, 46, 80
2, 17114, Note_on_c, 0, 70, 82
2, 17114, Note_on_c, 0, 34, 90
2, 17116, Control_c, 0, 64, 127
2, 17125, Control_c, 0, 64, 0
2, 17140, Control_c, 0, 64, 127
2, 17268, Note_off_c, 0, 46, 64
2, 17271, Note_off_c, 0, 34, 64
2, 17291, Note_off_c, 0, 82, 64
2, 17294, Note_off_c, 0, 70, 64
2, 17324, Control_c, 0, 64, 0
2, 17333, Note_on_c, 0, 60, 79
2, 17339, Note_on_c, 0, 48, 75
2, 17339, Note_on_c, 0, 36, 75
2, 17348, Control_c, 0, 64, 0
2, 17368, Control_c, 0, 64, 127
2, 17392, Control_c, 0, 64, 127
2, 17573, Note_off_c, 0, 60, 64
2, 17591, Note_on_c, 0, 82, 68
2, 17591, Note_on_c, 0, 70, 63
2, 17595, Note_on_c, 0, 76, 60
2, 17595, Note_on_c, 0, 67, 48
2, 17602, Note_on_c, 0, 60, 41
2, 17607, Control_c, 0, 64, 0
2, 17631, Control_c, 0, 64, 0
2, 17649, Control_c, 0, 64, 127
2, 17673, Control_c, 0, 64, 127
2, 17830, Note_off_c, 0, 60, 64
2, 17840, Note_off_c, 0, 67, 64
2, 17885, Note_off_c, 0, 70, 64
2, 17886, Note_off_c, 0, 76, 64
2, 17919, Note_on_c, 0, 81, 56
2, 17922, Note_on_c, 0, 70, 56
2, 17922, Note_on_c, 0, 60, 37
2, 17923, Note_on_c, 0, 76, 58
2, 17929, Note_on_c, 0, 67, 45
2, 17937, Note_off_c, 0, 82, 64
2, 17995, Note_off_c, 0, 70, 64
2, 18017, Note_off_c, 0, 67, 64
2, 18018, Note_off_c, 0, 76, 64
2, 18023, Note_off_c, 0, 60, 64
2, 18027, Note_on_c, 0, 78, 53
2, 18029, Note_on_c, 0, 60, 36
2, 18036, Note_on_c, 0, 76, 52
2, 18036, Note_on_c, 0, 70, 59
2, 18037, Note_on_c, 0, 67, 46
2, 18064, Note_off_c, 0, 81, 64
2, 18076, Note_off_c, 0, 76, 64
2, 18096, Note_off_c, 0, 70, 64
2, 18100, Note_off_c, 0, 67, 64
2, 18108, Note_off_c, 0, 60, 64
2, 18169, Note_off_c, 0, 78, 64
2, 18184, Note_on_c, 0, 76, 58
2, 18187, Note_on_c, 0, 79, 53
2, 18188, Note_on_c, 0, 70, 63
2, 18188, Note_on_c, 0, 67, 52
2, 18188, Note_on_c, 0, 60, 44
2, 18208, Note_off_c, 0, 76, 64
2, 18211, Note_off_c, 0, 67, 64
2, 18214, Note_off_c, 0, 70, 64
2, 18220, Note_off_c, 0, 60, 64
2, 18225, Control_c, 0, 64, 0
2, 18237, Note_on_c, 0, 81, 60
2, 18237, Note_on_c, 0, 76, 55
2, 18237, Note_on_c, 0, 70, 64
2, 18241, Note_on_c, 0, 60, 43
2, 18243, Note_off_c, 0, 79, 64
2, 18243, Note_on_c, 0, 67, 48
2, 18248, Control_c, 0, 64, 127
2, 18249, Control_c, 0, 64, 0
2, 18272, Control_c, 0, 64, 127
2, 18309, Note_off_c, 0, 67, 64
2, 18347, Note_off_c, 0, 60, 64
2, 18350, Note_off_c, 0, 76, 64
2, 18355, Note_off_c, 0, 70, 64
2, 18457, Note_on_c, 0, 70, 63
2, 18465, Note_on_c, 0, 79, 56
2, 18465, Note_on_c, 0, 76, 58
2, 18468, Note_on_c, 0, 67, 48
2, 18468, Note_on_c, 0, 60, 41
2, 18490, Note_off_c, 0, 81, 64
2, 18554, Note_off_c, 0, 36, 64
2, 18554, Note_off_c, 0, 48, 64
2, 18668, Note_off_c, 0, 67, 64
2, 18676, Note_off_c, 0, 60, 64
2, 18683, Control_c, 0, 64, 0
2, 18686, Note_on_c, 0, 36, 60
2, 18691, Note_on_c, 0, 60, 63
2, 18692, Note_on_c, 0, 48, 66
2, 18707, Control_c, 0, 64, 0
2, 18708, Control_c, 0, 64, 127
2, 18709, Note_off_c, 0, 79, 64
2, 18723, Note_off_c, 0, 70, 64
2, 18732, Control_c, 0, 64, 127
2, 18737, Note_off_c, 0, 76, 64
2, 18931, Note_off_c, 0, 60, 64
2, 18957, Note_on_c, 0, 70, 58
2, 18957, Note_on_c, 0, 67, 56
2, 18957, Note_on_c, 0, 60, 56
2, 18963, Note_on_c, 0, 81, 59
2, 18963, Note_on_c, 0, 76, 56
2, 18988, Control_c, 0, 64, 0
2, 19009, Control_c, 0, 64, 127
2, 19012, Control_c, 0, 64, 0
2, 19033, Control_c, 0, 64, 127
2, 19159, Note_off_c, 0, 60, 64
2, 19172, Note_off_c, 0, 67, 64
2, 19232, Note_off_c, 0, 76, 64
2, 19256, Note_off_c, 0, 70, 64
2, 19284, Note_on_c, 0, 79, 58
2, 19287, Note_on_c, 0, 70, 53
2, 19294, Note_on_c, 0, 67, 51
2, 19294, Note_on_c, 0, 60, 53
2, 19301, Note_off_c, 0, 36, 64
2, 19307, Note_off_c, 0, 48, 64
2, 19311, Note_off_c, 0, 81, 64
2, 19369, Note_off_c, 0, 67, 64
2, 19377, Note_off_c, 0, 70, 64
2, 19387, Control_c, 0, 64, 0
2, 19391, Note_off_c, 0, 60, 64
2, 19392, Note_on_c, 0, 69, 59
2, 19394, Note_on_c, 0, 65, 56
2, 19396, Note_on_c, 0, 60, 59
2, 19398, Note_on_c, 0, 53, 59
2, 19399, Note_on_c, 0, 77, 58
2, 19400, Control_c, 0, 64, 127
2, 19411, Control_c, 0, 64, 0
2, 19412, Note_off_c, 0, 79, 64
2, 19424, Control_c, 0, 64, 127
2, 19471, Note_off_c, 0, 60, 64
2, 19496, Note_off_c, 0, 53, 64
2, 19507, Note_off_c, 0, 65, 64
2, 19548, Note_on_c, 0, 65, 60
2, 19552, Control_c, 0, 64, 127
2, 19552, Note_on_c, 0, 70, 55
2, 19552, Note_on_c, 0, 62, 52
2, 19556, Note_on_c, 0, 53, 55
2, 19558, Note_on_c, 0, 74, 58
2, 19571, Note_off_c, 0, 77, 64
2, 19573, Note_off_c, 0, 69, 64
2, 19576, Control_c, 0, 64, 127
2, 19583, Note_off_c, 0, 53, 64
2, 19583, Control_c, 0, 64, 0
2, 19584, Note_off_c, 0, 62, 64
2, 19584, Note_off_c, 0, 65, 64
2, 19594, Control_c, 0, 64, 0
2, 19598, Note_off_c, 0, 70, 64
2, 19598, Note_on_c, 0, 69, 52
2, 19605, Note_on_c, 0, 72, 68
2, 19605, Note_on_c, 0, 60, 55
2, 19607, Control_c, 0, 64, 0
2, 19608, Note_on_c, 0, 65, 32
2, 19613, Note_off_c, 0, 74, 64
2, 19618, Control_c, 0, 64, 0
2, 19619, Control_c, 0, 64, 127
2, 19620, Note_on_c, 0, 53, 55
2, 19643, Control_c, 0, 64, 127
2, 19739, Note_off_c, 0, 69, 64
2, 19788, Note_off_c, 0, 60, 64
2, 19803, Note_off_c, 0, 53, 64
2, 19826, Note_on_c, 0, 77, 60
2, 19826, Note_on_c, 0, 60, 49
2, 19831, Note_off_c, 0, 72, 64
2, 19833, Note_on_c, 0, 69, 60
2, 19833, Note_on_c, 0, 65, 52
2, 19836, Note_on_c, 0, 53, 55
2, 19855, Note_off_c, 0, 65, 64
2, 19919, Note_off_c, 0, 65, 64
2, 20012, Control_c, 0, 64, 0
2, 20024, Note_off_c, 0, 77, 64
2, 20036, Note_off_c, 0, 60, 64
2, 20036, Control_c, 0, 64, 0
2, 20046, Note_off_c, 0, 53, 64
2, 20051, Note_off_c, 0, 69, 64
2, 20053, Note_on_c, 0, 60, 59
2, 20053, Note_on_c, 0, 36, 63
2, 20054, Note_on_c, 0, 48, 63
2, 20061, Control_c, 0, 64, 127
2, 20085, Control_c, 0, 64, 127
2, 20293, Note_off_c, 0, 60, 64
2, 20316, Note_on_c, 0, 70, 69
2, 20319, Note_on_c, 0, 82, 67
2, 20321, Note_on_c, 0, 60, 51
2, 20325, Note_on_c, 0, 76, 66
2, 20325, Note_on_c, 0, 67, 54
2, 20341, Control_c, 0, 64, 0
2, 20365, Control_c, 0, 64, 0
2, 20376, Control_c, 0, 64, 127
2, 20400, Control_c, 0, 64, 127
2, 20560, Note_off_c, 0, 60, 64
2, 20588, Note_off_c, 0, 70, 64
2, 20628, Note_off_c, 0, 76, 64
2, 20630, Note_off_c, 0, 67, 64
2, 20648, Note_on_c, 0, 70, 53
2, 20652, Note_on_c, 0, 81, 58
2, 20656, Note_on_c, 0, 76, 52
2, 20658, Note_on_c, 0, 67, 43
2, 20658, Note_on_c, 0, 60, 36
2, 20678, Note_off_c, 0, 82, 64
2, 20731, Note_off_c, 0, 70, 64
2, 20735, Note_off_c, 0, 76, 64
2, 20737, Control_c, 0, 64, 0
2, 20752, Note_off_c, 0, 60, 64
2, 20753, Note_off_c, 0, 67, 64
2, 20760, Note_on_c, 0, 76, 55
2, 20761, Control_c, 0, 64, 0
2, 20767, Note_on_c, 0, 78, 46
2, 20767, Note_on_c, 0, 70, 58
2, 20767, Note_on_c, 0, 60, 36
2, 20769, Control_c, 0, 64, 127
2, 20772, Note_on_c, 0, 67, 36
2, 20782, Note_off_c, 0, 81, 64
2, 20793, Control_c, 0, 64, 127
2, 20897, Note_off_c, 0, 67, 64
2, 20900, Note_off_c, 0, 60, 64
2, 20910, Note_off_c, 0, 70, 64
2, 20916, Note_off_c, 0, 76, 64
2, 20920, Note_on_c, 0, 76, 56
2, 20920, Note_on_c, 0, 70, 56
2, 20924, Note_on_c, 0, 76, 51
2, 20930, Note_on_c, 0, 67, 51
2, 20930, Note_on_c, 0, 60, 41
2, 20950, Note_off_c, 0, 78, 64
2, 20957, Note_off_c, 0, 70, 64
2, 20972, Note_off_c, 0, 67, 64
2, 20973, Note_on_c, 0, 81, 60
2, 20974, Note_off_c, 0, 60, 64
2, 20975, Note_on_c, 0, 70, 63
2, 20977, Note_on_c, 0, 76, 43
2, 20982, Note_on_c, 0, 67, 51
2, 20985, Note_on_c, 0, 60, 41
2, 21022, Note_off_c, 0, 76, 64
2, 21022, Note_off_c, 0, 76, 64
2, 21084, Note_off_c, 0, 67, 64
2, 21133, Note_off_c, 0, 60, 64
2, 21140, Note_off_c, 0, 76, 64
2, 21165, Note_off_c, 0, 70, 64
2, 21190, Note_on_c, 0, 70, 63
2, 21192, Note_on_c, 0, 67, 48
2, 21193, Note_on_c, 0, 79, 60
2, 21196, Note_on_c, 0, 60, 36
2, 21209, Note_off_c, 0, 81, 64
2, 21268, Note_off_c, 0, 36, 64
2, 21269, Note_off_c, 0, 48, 64
2, 21403, Note_off_c, 0, 70, 64
2, 21417, Control_c, 0, 64, 0
2, 21420, Note_on_c, 0, 84, 49
2, 21424, Note_on_c, 0, 75, 56
2, 21424, Note_on_c, 0, 65, 48
2, 21428, Note_on_c, 0, 69, 47
2, 21437, Note_off_c, 0, 79, 64
2, 21441, Control_c, 0, 64, 0
2, 21445, Note_off_c, 0, 67, 64
2, 21447, Control_c, 0, 64, 127
2, 21454, Note_off_c, 0, 60, 64
2, 21471, Control_c, 0, 64, 127
2, 21540, Note_off_c, 0, 69, 64
2, 21560, Note_off_c, 0, 65, 64
2, 21564, Note_on_c, 0, 58, 49
2, 21565, Note_off_c, 0, 75, 64
2, 21569, Note_on_c, 0, 68, 49
2, 21572, Note_off_c, 0, 84, 64
2, 21576, Note_on_c, 0, 77, 55
2, 21576, Note_on_c, 0, 74, 49
2, 21605, Note_off_c, 0, 68, 64
2, 21610, Note_off_c, 0, 58, 64
2, 21622, Control_c, 0, 64, 0
2, 21624, Note_on_c, 0, 63, 55
2, 21630, Note_on_c, 0, 67, 60
2, 21633, Note_on_c, 0, 82, 63
2, 21633, Note_on_c, 0, 73, 63
2, 21639, Note_off_c, 0, 77, 64
2, 21646, Control_c, 0, 64, 0
2, 21649, Note_off_c, 0, 74, 64
2, 21654, Control_c, 0, 64, 127
2, 21678, Control_c, 0, 64, 127
2, 21755, Note_off_c, 0, 67, 64
2, 21803, Note_off_c, 0, 63, 64
2, 21812, Note_off_c, 0, 73, 64
2, 21843, Control_c, 0, 64, 0
2, 21853, Note_on_c, 0, 56, 52
2, 21854, Note_on_c, 0, 66, 52
2, 21860, Note_on_c, 0, 75, 55
2, 21860, Note_on_c, 0, 72, 52
2, 21867, Control_c, 0, 64, 0
2, 21881, Note_off_c, 0, 82, 64
2, 21888, Control_c, 0, 64, 127
2, 21912, Control_c, 0, 64, 127
2, 22001, Note_off_c, 0, 56, 64
2, 22035, Note_off_c, 0, 72, 64
2, 22036, Note_off_c, 0, 66, 64
2, 22058, Control_c, 0, 64, 0
2, 22079, Note_on_c, 0, 62, 52
2, 22082, Control_c, 0, 64, 0
2, 22088, Note_on_c, 0, 80, 55
2, 22088, Note_on_c, 0, 72, 53
2, 22092, Note_on_c, 0, 65, 46
2, 22100, Control_c, 0, 64, 127
2, 22119, Note_off_c, 0, 75, 64
2, 22124, Control_c, 0, 64, 127
2, 22144, Note_off_c, 0, 62, 64
2, 22193, Note_off_c, 0, 65, 64
2, 22216, Note_off_c, 0, 72, 64
2, 22235, Note_on_c, 0, 71, 49
2, 22236, Note_on_c, 0, 55, 52
2, 22237, Note_on_c, 0, 74, 53
2, 22244, Note_off_c, 0, 80, 64
2, 22245, Note_on_c, 0, 65, 49
2, 22280, Control_c, 0, 64, 0
2, 22296, Note_on_c, 0, 70, 63
2, 22299, Note_off_c, 0, 55, 64
2, 22303, Note_off_c, 0, 71, 64
2, 22304, Control_c, 0, 64, 0
2, 22307, Note_off_c, 0, 74, 64
2, 22308, Note_on_c, 0, 79, 47
2, 22315, Note_on_c, 0, 60, 47
2, 22320, Note_off_c, 0, 65, 64
2, 22321, Note_on_c, 0, 64, 32
2, 22334, Control_c, 0, 64, 127
2, 22358, Control_c, 0, 64, 127
2, 22435, Note_off_c, 0, 64, 64
2, 22456, Note_off_c, 0, 60, 64
2, 22501, Note_off_c, 0, 70, 64
2, 22530, Control_c, 0, 64, 0
2, 22536, Note_on_c, 0, 72, 55
2, 22536, Note_on_c, 0, 69, 51
2, 22544, Note_on_c, 0, 63, 41
2, 22546, Note_on_c, 0, 53, 37
2, 22548, Note_off_c, 0, 79, 64
2, 22554, Control_c, 0, 64, 0
2, 22563, Control_c, 0, 64, 127
2, 22587, Control_c, 0, 64, 127
2, 22770, Note_off_c, 0, 63, 64
2, 22787, Note_off_c, 0, 53, 64
2, 22798, Control_c, 0, 64, 0
2, 22798, Note_on_c, 0, 68, 64
2, 22798, Note_on_c, 0, 34, 64
2, 22805, Note_on_c, 0, 46, 61
2, 22806, Note_on_c, 0, 77, 67
2, 22806, Note_on_c, 0, 74, 66
2, 22820, Note_off_c, 0, 69, 64
2, 22822, Control_c, 0, 64, 0
2, 22839, Note_off_c, 0, 72, 64
2, 22854, Control_c, 0, 64, 127
2, 22878, Control_c, 0, 64, 127
2, 22962, Note_off_c, 0, 68, 64
2, 23029, Note_on_c, 0, 58, 60
2, 23038, Note_off_c, 0, 34, 64
2, 23038, Note_on_c, 0, 68, 72
2, 23045, Note_off_c, 0, 46, 64
2, 23052, Note_on_c, 0, 65, 36
2, 23115, Note_off_c, 0, 58, 64
2, 23122, Note_off_c, 0, 65, 64
2, 23123, Note_off_c, 0, 68, 64
2, 23134, Note_off_c, 0, 74, 64
2, 23150, Note_on_c, 0, 79, 63
2, 23173, Note_off_c, 0, 77, 64
2, 23228, Note_on_c, 0, 77, 61
2, 23233, Note_off_c, 0, 79, 64
2, 23267, Note_off_c, 0, 77, 64
2, 23267, Note_on_c, 0, 79, 63
2, 23284, Note_on_c, 0, 58, 56
2, 23289, Note_on_c, 0, 65, 59
2, 23296, Note_on_c, 0, 68, 59
2, 23297, Note_on_c, 0, 77, 72
2, 23302, Note_on_c, 0, 74, 70
2, 23312, Note_off_c, 0, 79, 64
2, 23340, Note_off_c, 0, 58, 64
2, 23341, Note_off_c, 0, 65, 64
2, 23418, Note_off_c, 0, 68, 64
2, 23420, Note_on_c, 0, 73, 60
2, 23421, Note_on_c, 0, 76, 66
2, 23424, Note_off_c, 0, 74, 64
2, 23427, Note_off_c, 0, 77, 64
2, 23527, Control_c, 0, 64, 0
2, 23532, Note_on_c, 0, 77, 66
2, 23532, Note_on_c, 0, 46, 72
2, 23537, Note_off_c, 0, 73, 64
2, 23538, Note_on_c, 0, 74, 66
2, 23538, Note_on_c, 0, 68, 66
2, 23541, Note_on_c, 0, 58, 63
2, 23546, Note_off_c, 0, 76, 64
2, 23551, Control_c, 0, 64, 127
2, 23551, Control_c, 0, 64, 0
2, 23575, Control_c, 0, 64, 127
2, 23595, Note_off_c, 0, 46, 64
2, 23613, Note_off_c, 0, 58, 64
2, 23689, Note_off_c, 0, 74, 64
2, 23691, Note_off_c, 0, 68, 64
2, 23698, Note_on_c, 0, 70, 75
2, 23725, Note_off_c, 0, 77, 64
2, 23735, Note_off_c, 0, 70, 64
2, 23748, Note_on_c, 0, 75, 71
2, 23752, Note_on_c, 0, 66, 73
2, 23755, Note_on_c, 0, 70, 77
2, 23756, Control_c, 0, 64, 0
2, 23757, Note_on_c, 0, 51, 53
2, 23760, Note_on_c, 0, 58, 46
2, 23780, Control_c, 0, 64, 0
2, 23809, Control_c, 0, 64, 127
2, 23833, Control_c, 0, 64, 127
2, 23876, Note_off_c, 0, 51, 64
2, 23885, Note_off_c, 0, 58, 64
2, 23980, Note_off_c, 0, 70, 64
2, 23983, Control_c, 0, 64, 0
2, 23984, Note_on_c, 0, 65, 64
2, 23986, Note_on_c, 0, 74, 66
2, 23986, Note_on_c, 0, 70, 63
2, 23992, Note_on_c, 0, 58, 41
2, 23993, Note_on_c, 0, 53, 39
2, 24007, Control_c, 0, 64, 0
2, 24020, Note_off_c, 0, 75, 64
2, 24031, Note_off_c, 0, 66, 64
2, 24038, Control_c, 0, 64, 127
2, 24062, Control_c, 0, 64, 127
2, 24069, Note_off_c, 0, 65, 64
2, 24132, Note_off_c, 0, 58, 64
2, 24193, Note_off_c, 0, 53, 64
2, 24199, Note_off_c, 0, 70, 64
2, 24203, Note_on_c, 0, 63, 63
2, 24207, Note_on_c, 0, 70, 63
2, 24212, Note_on_c, 0, 72, 60
2, 24217, Note_on_c, 0, 58, 57
2, 24218, Control_c, 0, 64, 0
2, 24219, Note_on_c, 0, 54, 60
2, 24242, Control_c, 0, 64, 0
2, 24245, Note_off_c, 0, 74, 64
2, 24271, Control_c, 0, 64, 127
2, 24295, Control_c, 0, 64, 127
2, 24321, Note_off_c, 0, 63, 64
2, 24430, Control_c, 0, 64, 0
2, 24435, Note_on_c, 0, 66, 76
2, 24438, Note_on_c, 0, 51, 63
2, 24454, Control_c, 0, 64, 0
2, 24466, Control_c, 0, 64, 127
2, 24490, Control_c, 0, 64, 127
2, 24537, Note_on_c, 0, 75, 66
2, 24547, Note_off_c, 0, 72, 64
2, 24580, Note_off_c, 0, 70, 64
2, 24582, Note_off_c, 0, 66, 64
2, 24602, Note_off_c, 0, 54, 64
2, 24628, Note_off_c, 0, 51, 64
2, 24650, Control_c, 0, 64, 0
2, 24651, Note_on_c, 0, 53, 54
2, 24657, Note_on_c, 0, 74, 64
2, 24657, Note_on_c, 0, 65, 54
2, 24661, Note_off_c, 0, 58, 64
2, 24661, Note_on_c, 0, 69, 60
2, 24670, Note_off_c, 0, 75, 64
2, 24674, Control_c, 0, 64, 0
2, 24695, Control_c, 0, 64, 127
2, 24712, Note_off_c, 0, 65, 64
2, 24719, Control_c, 0, 64, 127
2, 24740, Note_off_c, 0, 69, 64
2, 24749, Note_on_c, 0, 72, 56
2, 24758, Note_off_c, 0, 74, 64
2, 24760, Note_on_c, 0, 63, 67
2, 24822, Note_off_c, 0, 53, 64
2, 24849, Note_off_c, 0, 63, 64
2, 24871, Control_c, 0, 64, 0
2, 24876, Note_on_c, 0, 74, 70
2, 24876, Note_on_c, 0, 46, 67
2, 24877, Note_on_c, 0, 65, 72
2, 24880, Note_on_c, 0, 34, 67
2, 24880, Note_on_c, 0, 22, 64
2, 24881, Note_off_c, 0, 72, 64
2, 24895, Control_c, 0, 64, 0
2, 24918, Control_c, 0, 64, 127
2, 24942, Control_c, 0, 64, 127
2, 24976, Note_off_c, 0, 65, 64
2, 25035, Note_on_c, 0, 65, 79
2, 25058, Note_off_c, 0, 74, 64
2, 25069, Control_c, 0, 64, 0
2, 25074, Note_off_c, 0, 65, 64
2, 25087, Note_off_c, 0, 46, 64
2, 25093, Note_on_c, 0, 62, 76
2, 25093, Control_c, 0, 64, 0
2, 25102, Note_on_c, 0, 70, 80
2, 25104, Note_on_c, 0, 65, 59
2, 25104, Note_on_c, 0, 58, 71
2, 25104, Note_on_c, 0, 53, 54
2, 25110, Note_on_c, 0, 46, 54
2, 25120, Note_off_c, 0, 22, 64
2, 25120, Note_off_c, 0, 34, 64
2, 25124, Control_c, 0, 64, 127
2, 25148, Control_c, 0, 64, 127
2, 25282, Note_off_c, 0, 62, 64
2, 25282, Control_c, 0, 64, 0
2, 25293, Note_off_c, 0, 53, 64
2, 25293, Note_off_c, 0, 58, 64
2, 25293, Note_off_c, 0, 65, 64
2, 25299, Note_off_c, 0, 46, 64
2, 25306, Control_c, 0, 64, 0
2, 25312, Note_on_c, 0, 65, 70
2, 25314, Control_c, 0, 64, 127
2, 25315, Note_on_c, 0, 74, 72
2, 25315, Note_on_c, 0, 46, 71
2, 25319, Note_off_c, 0, 70, 64
2, 25320, Control_c, 0, 64, 127
2, 25320, Note_on_c, 0, 58, 64
2, 25320, Note_on_c, 0, 53, 36
2, 25338, Control_c, 0, 64, 127
2, 25344, Control_c, 0, 64, 127
2, 25351, Control_c, 0, 64, 0
2, 25375, Control_c, 0, 64, 0
2, 25537, Note_off_c, 0, 65, 64
2, 25545, Note_off_c, 0, 58, 64
2, 25549, Note_on_c, 0, 77, 72
2, 25549, Note_on_c, 0, 62, 61
2, 25552, Note_on_c, 0, 56, 59
2, 25554, Control_c, 0, 64, 0
2, 25554, Note_on_c, 0, 72, 70
2, 25559, Note_on_c, 0, 65, 60
2, 25573, Note_off_c, 0, 46, 64
2, 25578, Note_off_c, 0, 53, 64
2, 25578, Control_c, 0, 64, 0
2, 25588, Note_off_c, 0, 74, 64
2, 25622, Control_c, 0, 64, 127
2, 25646, Control_c, 0, 64, 127
2, 25717, Note_off_c, 0, 72, 64
2, 25729, Note_off_c, 0, 56, 64
2, 25738, Note_off_c, 0, 62, 64
2, 25751, Note_off_c, 0, 65, 64
2, 25773, Note_on_c, 0, 72, 66
2, 25776, Note_on_c, 0, 56, 41
2, 25776, Control_c, 0, 64, 127
2, 25786, Note_on_c, 0, 62, 56
2, 25793, Note_on_c, 0, 65, 41
2, 25800, Control_c, 0, 64, 127
2, 25807, Control_c, 0, 64, 0
2, 25831, Control_c, 0, 64, 0
2, 25879, Note_on_c, 0, 79, 64
2, 25883, Note_off_c, 0, 77, 64
2, 25913, Note_off_c, 0, 72, 64
2, 25947, Note_off_c, 0, 65, 64
2, 25947, Note_on_c, 0, 77, 72
2, 25954, Note_off_c, 0, 79, 64
2, 25958, Note_off_c, 0, 56, 64
2, 25964, Note_off_c, 0, 62, 64
2, 25974, Note_on_c, 0, 79, 63
2, 25981, Note_off_c, 0, 77, 64
2, 25993, Control_c, 0, 64, 0
2, 26002, Note_on_c, 0, 72, 52
2, 26010, Note_on_c, 0, 77, 82
2, 26010, Note_on_c, 0, 65, 45
2, 26010, Note_on_c, 0, 56, 51
2, 26016, Note_on_c, 0, 62, 35
2, 26017, Control_c, 0, 64, 0
2, 26029, Control_c, 0, 64, 127
2, 26032, Note_off_c, 0, 79, 64
2, 26053, Control_c, 0, 64, 127
2, 26108, Note_on_c, 0, 76, 79
2, 26116, Note_off_c, 0, 77, 64
2, 26196, Note_off_c, 0, 72, 64
2, 26198, Note_off_c, 0, 62, 64
2, 26198, Note_off_c, 0, 56, 64
2, 26214, Note_off_c, 0, 65, 64
2, 26222, Control_c, 0, 64, 0
2, 26228, Note_on_c, 0, 71, 64
2, 26231, Note_on_c, 0, 77, 72
2, 26233, Note_on_c, 0, 62, 63
2, 26233, Note_on_c, 0, 55, 52
2, 26246, Control_c, 0, 64, 0
2, 26259, Note_off_c, 0, 76, 64
2, 26260, Control_c, 0, 64, 127
2, 26284, Control_c, 0, 64, 127
2, 26347, Note_off_c, 0, 55, 64
2, 26376, Note_off_c, 0, 71, 64
2, 26384, Note_off_c, 0, 62, 64
2, 26386, Note_on_c, 0, 71, 70
2, 26388, Note_on_c, 0, 62, 67
2, 26392, Note_on_c, 0, 55, 45
2, 26404, Note_off_c, 0, 62, 64
2, 26412, Note_off_c, 0, 55, 64
2, 26412, Note_off_c, 0, 71, 64
2, 26418, Control_c, 0, 64, 0
2, 26434, Note_on_c, 0, 75, 80
2, 26436, Note_on_c, 0, 55, 45
2, 26442, Note_on_c, 0, 71, 79
2, 26442, Note_on_c, 0, 67, 63
2, 26442, Control_c, 0, 64, 0
2, 26467, Note_off_c, 0, 77, 64
2, 26476, Control_c, 0, 64, 127
2, 26500, Control_c, 0, 64, 127
2, 26564, Note_off_c, 0, 71, 64
2, 26594, Note_off_c, 0, 67, 64
2, 26618, Note_off_c, 0, 55, 64
2, 26660, Note_on_c, 0, 74, 72
2, 26662, Control_c, 0, 64, 0
2, 26670, Note_on_c, 0, 71, 63
2, 26670, Note_on_c, 0, 55, 63
2, 26671, Note_off_c, 0, 75, 64
2, 26672, Note_on_c, 0, 65, 63
2, 26686, Control_c, 0, 64, 0
2, 26705, Control_c, 0, 64, 127
2, 26729, Control_c, 0, 64, 127
2, 26760, Note_off_c, 0, 55, 64
2, 26809, Note_off_c, 0, 65, 64
2, 26853, Note_off_c, 0, 71, 64
2, 26883, Note_off_c, 0, 74, 64
2, 26885, Control_c, 0, 64, 0
2, 26893, Note_on_c, 0, 72, 68
2, 26896, Note_on_c, 0, 70, 70
2, 26900, Note_on_c, 0, 60, 61
2, 26903, Note_on_c, 0, 64, 63
2, 26909, Control_c, 0, 64, 0
2, 26938, Control_c, 0, 64, 127
2, 26962, Control_c, 0, 64, 127
2, 26982, Note_off_c, 0, 64, 64
2, 26994, Note_off_c, 0, 60, 64
2, 27112, Control_c, 0, 64, 0
2, 27122, Note_on_c, 0, 69, 63
2, 27122, Note_on_c, 0, 53, 64
2, 27125, Note_off_c, 0, 70, 64
2, 27126, Note_off_c, 0, 72, 64
2, 27129, Note_on_c, 0, 63, 58
2, 27136, Control_c, 0, 64, 0
2, 27157, Control_c, 0, 64, 127
2, 27181, Control_c, 0, 64, 127
2, 27204, Note_off_c, 0, 53, 64
2, 27227, Note_on_c, 0, 67, 70
2, 27228, Note_off_c, 0, 63, 64
2, 27230, Note_on_c, 0, 75, 67
2, 27301, Control_c, 0, 64, 0
2, 27325, Control_c, 0, 64, 0
2, 27331, Control_c, 0, 64, 127
2, 27331, Note_on_c, 0, 65, 63
2, 27338, Note_on_c, 0, 74, 60
2, 27347, Note_off_c, 0, 67, 64
2, 27355, Control_c, 0, 64, 127
2, 27362, Note_off_c, 0, 75, 64
2, 27433, Note_on_c, 0, 72, 60
2, 27433, Note_on_c, 0, 63, 72
2, 27439, Note_off_c, 0, 65, 64
2, 27444, Note_off_c, 0, 74, 64
2, 27468, Note_off_c, 0, 69, 64
2, 27538, Note_on_c, 0, 70, 80
2, 27544, Control_c, 0, 64, 0
2, 27544, Note_on_c, 0, 58, 61
2, 27547, Note_on_c, 0, 74, 79
2, 27547, Note_on_c, 0, 62, 63
2, 27549, Note_off_c, 0, 72, 64
2, 27563, Note_off_c, 0, 63, 64
2, 27568, Control_c, 0, 64, 0
2, 27579, Control_c, 0, 64, 127
2, 27603, Control_c, 0, 64, 127
2, 27624, Note_off_c, 0, 70, 64
2, 27626, Note_off_c, 0, 58, 64
2, 27665, Note_off_c, 0, 62, 64
2, 27681, Note_on_c, 0, 53, 76
2, 27682, Note_on_c, 0, 60, 66
2, 27689, Note_on_c, 0, 65, 74
2, 27696, Note_on_c, 0, 72, 64
2, 27708, Control_c, 0, 64, 0
2, 27709, Note_off_c, 0, 60, 64
2, 27711, Note_off_c, 0, 74, 64
2, 27722, Note_off_c, 0, 53, 64
2, 27732, Control_c, 0, 64, 0
2, 27735, Note_off_c, 0, 65, 64
2, 27736, Note_on_c, 0, 70, 86
2, 27741, Note_on_c, 0, 62, 79
2, 27741, Note_on_c, 0, 58, 90
2, 27743, Note_off_c, 0, 72, 64
2, 27744, Note_on_c, 0, 46, 59
2, 27753, Control_c, 0, 64, 127
2, 27777, Control_c, 0, 64, 127
2, 27916, Note_off_c, 0, 70, 64
2, 27921, Note_off_c, 0, 58, 64
2, 27921, Note_off_c, 0, 62, 64
2, 27924, Note_off_c, 0, 46, 64
2, 27950, Control_c, 0, 64, 0
2, 27974, Control_c, 0, 64, 0
2, 27984, Control_c, 0, 64, 127
2, 27986, Note_on_c, 0, 82, 96
2, 27986, Note_on_c, 0, 70, 88
2, 27986, Note_on_c, 0, 34, 84
2, 27987, Note_on_c, 0, 46, 86
2, 28008, Control_c, 0, 64, 127
2, 28224, Note_off_c, 0, 46, 64
2, 28224, Note_off_c, 0, 34, 64
2, 28224, Note_off_c, 0, 70, 64
2, 28224, Note_off_c, 0, 82, 64
2, 28364, Control_c, 0, 64, 0
2, 28377, Note_on_c, 0, 39, 63
2, 28388, Control_c, 0, 64, 0
2, 28394, Control_c, 0, 64, 127
2, 28418, Control_c, 0, 64, 127
2, 28600, Note_on_c, 0, 55, 40
2, 28607, Note_on_c, 0, 46, 24
2, 28617, Note_off_c, 0, 39, 64
2, 28668, Note_off_c, 0, 55, 64
2, 28676, Note_off_c, 0, 46, 64
2, 28794, Note_on_c, 0, 39, 37
2, 28986, Note_on_c, 0, 46, 52
2, 28992, Note_on_c, 0, 55, 27
2, 29034, Note_off_c, 0, 39, 64
2, 29042, Note_off_c, 0, 46, 64
2, 29052, Note_off_c, 0, 55, 64
2, 29087, Note_on_c, 0, 46, 52
2, 29097, Note_on_c, 0, 55, 27
2, 29131, Note_off_c, 0, 55, 64
2, 29141, Note_off_c, 0, 46, 64
2, 29202, Note_on_c, 0, 39, 47
2, 29400, Note_on_c, 0, 46, 47
2, 29411, Note_on_c, 0, 55, 25
2, 29442, Note_off_c, 0, 39, 64
2, 29480, Note_off_c, 0, 46, 64
2, 29483, Note_off_c, 0, 55, 64
2, 29611, Note_on_c, 0, 39, 39
2, 29801, Note_on_c, 0, 46, 46
2, 29809, Note_on_c, 0, 55, 25
2, 29851, Note_off_c, 0, 39, 64
2, 29874, Note_off_c, 0, 55, 64
2, 29879, Note_off_c, 0, 46, 64
2, 30012, Note_on_c, 0, 39, 33
2, 30207, Note_on_c, 0, 46, 36
2, 30224, Note_on_c, 0, 55, 14
2, 30252, Note_off_c, 0, 39, 64
2, 30262, Note_off_c, 0, 46, 64
2, 30273, Note_off_c, 0, 55, 64
2, 30312, Note_on_c, 0, 46, 20
2, 30319, Note_on_c, 0, 55, 20
2, 30346, Note_off_c, 0, 46, 64
2, 30359, Note_off_c, 0, 55, 64
2, 30420, Note_on_c, 0, 39, 37
2, 30607, Note_on_c, 0, 46, 28
2, 30616, Note_on_c, 0, 55, 19
2, 30660, Note_off_c, 0, 39, 64
2, 30684, Note_off_c, 0, 55, 64
2, 30701, Note_off_c, 0, 46, 64
2, 30804, Control_c, 0, 64, 0
2, 30812, Note_on_c, 0, 67, 36
2, 30816, Note_on_c, 0, 39, 40
2, 30828, Control_c, 0, 64, 0
2, 30842, Control_c, 0, 64, 127
2, 30866, Control_c, 0, 64, 127
2, 30895, Note_on_c, 0, 68, 32
2, 30897, Note_off_c, 0, 67, 64
2, 30933, Note_off_c, 0, 68, 64
2, 30959, Note_on_c, 0, 68, 56
2, 31025, Note_on_c, 0, 46, 31
2, 31026, Note_on_c, 0, 79, 51
2, 31026, Note_on_c, 0, 56, 32
2, 31032, Note_off_c, 0, 68, 64
2, 31056, Note_off_c, 0, 39, 64
2, 31091, Note_off_c, 0, 56, 64
2, 31109, Note_off_c, 0, 46, 64
2, 31206, Note_on_c, 0, 39, 49
2, 31307, Note_on_c, 0, 77, 46
2, 31319, Note_off_c, 0, 79, 64
2, 31395, Note_on_c, 0, 56, 47
2, 31398, Note_on_c, 0, 46, 33
2, 31404, Note_on_c, 0, 76, 47
2, 31418, Note_off_c, 0, 77, 64
2, 31440, Note_off_c, 0, 46, 64
2, 31442, Note_off_c, 0, 56, 64
2, 31446, Note_off_c, 0, 39, 64
2, 31507, Note_on_c, 0, 56, 47
2, 31546, Note_off_c, 0, 56, 64
2, 31553, Note_on_c, 0, 77, 49
2, 31572, Note_off_c, 0, 76, 64
2, 31574, Control_c, 0, 64, 0
2, 31591, Note_on_c, 0, 39, 56
2, 31592, Note_on_c, 0, 80, 49
2, 31598, Control_c, 0, 64, 0
2, 31608, Note_off_c, 0, 77, 64
2, 31614, Control_c, 0, 64, 127
2, 31638, Control_c, 0, 64, 127
2, 31779, Note_on_c, 0, 84, 55
2, 31787, Note_on_c, 0, 46, 41
2, 31791, Note_on_c, 0, 56, 32
2, 31815, Note_off_c, 0, 80, 64
2, 31831, Note_off_c, 0, 39, 64
2, 31848, Note_off_c, 0, 56, 64
2, 31900, Note_off_c, 0, 46, 64
2, 31964, Control_c, 0, 64, 0
2, 31974, Note_on_c, 0, 39, 44
2, 31978, Note_on_c, 0, 67, 43
2, 31988, Control_c, 0, 64, 0
2, 31994, Control_c, 0, 64, 127
2, 32002, Note_off_c, 0, 84, 64
2, 32018, Control_c, 0, 64, 127
2, 32060, Note_on_c, 0, 68, 33
2, 32066, Note_off_c, 0, 67, 64
2, 32096, Note_off_c, 0, 68, 64
2, 32135, Note_on_c, 0, 68, 48
2, 32164, Control_c, 0, 64, 0
2, 32180, Note_on_c, 0, 56, 43
2, 32183, Note_on_c, 0, 46, 36
2, 32188, Control_c, 0, 64, 0
2, 32189, Control_c, 0, 64, 127
2, 32200, Note_on_c, 0, 79, 56
2, 32213, Control_c, 0, 64, 127
2, 32214, Note_off_c, 0, 39, 64
2, 32218, Note_off_c, 0, 68, 64
2, 32237, Note_off_c, 0, 56, 64
2, 32256, Note_off_c, 0, 46, 64
2, 32384, Note_on_c, 0, 39, 36
2, 32473, Note_on_c, 0, 77, 46
2, 32489, Note_off_c, 0, 79, 64
2, 32566, Note_on_c, 0, 75, 40
2, 32570, Note_on_c, 0, 46, 43
2, 32577, Note_on_c, 0, 55, 27
2, 32586, Note_off_c, 0, 77, 64
2, 32619, Note_off_c, 0, 55, 64
2, 32620, Note_off_c, 0, 46, 64
2, 32624, Note_off_c, 0, 39, 64
2, 32643, Note_on_c, 0, 46, 47
2, 32653, Note_on_c, 0, 55, 25
2, 32687, Note_off_c, 0, 55, 64
2, 32697, Note_off_c, 0, 46, 64
2, 32725, Note_on_c, 0, 72, 49
2, 32733, Control_c, 0, 64, 0
2, 32747, Note_off_c, 0, 75, 64
2, 32757, Control_c, 0, 64, 0
2, 32770, Note_on_c, 0, 39, 52
2, 32778, Control_c, 0, 64, 127
2, 32781, Note_on_c, 0, 69, 43
2, 32799, Note_off_c, 0, 72, 64
2, 32802, Control_c, 0, 64, 127
2, 32964, Note_on_c, 0, 46, 49
2, 32973, Note_on_c, 0, 70, 48
2, 32976, Note_on_c, 0, 55, 36
2, 33000, Note_off_c, 0, 69, 64
2, 33010, Note_off_c, 0, 39, 64
2, 33064, Note_off_c, 0, 55, 64
2, 33126, Note_off_c, 0, 46, 64
2, 33154, Control_c, 0, 64, 0
2, 33163, Note_on_c, 0, 39, 35
2, 33165, Control_c, 0, 64, 127
2, 33165, Note_on_c, 0, 67, 41
2, 33176, Note_off_c, 0, 70, 64
2, 33178, Control_c, 0, 64, 0
2, 33189, Control_c, 0, 64, 127
2, 33245, Note_on_c, 0, 68, 41
2, 33248, Note_off_c, 0, 67, 64
2, 33283, Note_off_c, 0, 68, 64
2, 33286, Note_off_c, 0, 39, 64
2, 33313, Note_on_c, 0, 68, 63
2, 33354, Note_on_c, 0, 56, 41
2, 33359, Note_on_c, 0, 46, 36
2, 33378, Note_on_c, 0, 79, 48
2, 33403, Note_off_c, 0, 68, 64
2, 33428, Note_off_c, 0, 56, 64
2, 33478, Note_off_c, 0, 46, 64
2, 33549, Note_on_c, 0, 39, 52
2, 33612, Note_off_c, 0, 39, 64
2, 33641, Note_on_c, 0, 77, 49
2, 33659, Note_off_c, 0, 79, 64
2, 33723, Note_on_c, 0, 56, 47
2, 33729, Note_on_c, 0, 46, 46
2, 33737, Note_on_c, 0, 76, 48
2, 33757, Note_off_c, 0, 77, 64
2, 33764, Note_off_c, 0, 56, 64
2, 33769, Note_off_c, 0, 46, 64
2, 33832, Note_on_c, 0, 46, 25
2, 33834, Note_on_c, 0, 56, 51
2, 33866, Note_off_c, 0, 46, 64
2, 33873, Note_off_c, 0, 56, 64
2, 33888, Note_on_c, 0, 77, 48
2, 33899, Note_off_c, 0, 76, 64
2, 33921, Note_on_c, 0, 39, 56
2, 33935, Note_on_c, 0, 80, 56
2, 33951, Note_off_c, 0, 77, 64
2, 34034, Note_off_c, 0, 39, 64
2, 34111, Note_on_c, 0, 84, 48
2, 34117, Control_c, 0, 64, 0
2, 34119, Note_on_c, 0, 46, 48
2, 34122, Note_on_c, 0, 56, 46
2, 34140, Note_on_c, 0, 89, 58
2, 34141, Control_c, 0, 64, 0
2, 34152, Control_c, 0, 64, 127
2, 34154, Note_off_c, 0, 84, 64
2, 34167, Note_off_c, 0, 56, 64
2, 34176, Control_c, 0, 64, 127
2, 34193, Note_off_c, 0, 46, 64
2, 34204, Note_off_c, 0, 80, 64
2, 34340, Note_on_c, 0, 83, 52
2, 34345, Note_off_c, 0, 89, 64
2, 34349, Control_c, 0, 64, 0
2, 34364, Note_on_c, 0, 39, 52
2, 34370, Control_c, 0, 64, 127
2, 34371, Note_on_c, 0, 84, 47
2, 34373, Control_c, 0, 64, 0
2, 34376, Note_off_c, 0, 83, 64
2, 34388, Note_on_c, 0, 83, 51
2, 34394, Control_c, 0, 64, 127
2, 34403, Note_off_c, 0, 84, 64
2, 34570, Note_on_c, 0, 56, 36
2, 34576, Control_c, 0, 64, 0
2, 34579, Note_off_c, 0, 83, 64
2, 34580, Note_on_c, 0, 82, 55
2, 34582, Note_on_c, 0, 62, 25
2, 34600, Control_c, 0, 64, 127
2, 34600, Control_c, 0, 64, 0
2, 34604, Note_off_c, 0, 39, 64
2, 34624, Control_c, 0, 64, 127
2, 34650, Note_off_c, 0, 56, 64
2, 34657, Note_off_c, 0, 62, 64
2, 34690, Note_on_c, 0, 79, 48
2, 34711, Note_off_c, 0, 82, 64
2, 34784, Note_on_c, 0, 82, 45
2, 34790, Note_on_c, 0, 56, 36
2, 34795, Note_on_c, 0, 62, 23
2, 34808, Note_on_c, 0, 83, 45
2, 34814, Note_off_c, 0, 82, 64
2, 34826, Note_off_c, 0, 79, 64
2, 34832, Note_on_c, 0, 82, 45
2, 34864, Note_off_c, 0, 83, 64
2, 34883, Note_off_c, 0, 56, 64
2, 34884, Note_off_c, 0, 62, 64
2, 34992, Note_on_c, 0, 39, 37
2, 34999, Note_on_c, 0, 81, 44
2, 35023, Note_off_c, 0, 82, 64
2, 35123, Note_on_c, 0, 78, 35
2, 35158, Note_off_c, 0, 81, 64
2, 35184, Note_on_c, 0, 81, 39
2, 35200, Note_on_c, 0, 82, 37
2, 35215, Note_off_c, 0, 81, 64
2, 35220, Note_on_c, 0, 56, 39
2, 35224, Note_off_c, 0, 78, 64
2, 35224, Note_on_c, 0, 62, 28
2, 35227, Note_on_c, 0, 81, 37
2, 35232, Note_off_c, 0, 39, 64
2, 35241, Note_off_c, 0, 82, 64
2, 35306, Note_off_c, 0, 56, 64
2, 35310, Note_off_c, 0, 62, 64
2, 35448, Note_on_c, 0, 62, 32
2, 35452, Note_on_c, 0, 80, 35
2, 35456, Note_on_c, 0, 56, 29
2, 35493, Note_off_c, 0, 81, 64
2, 35534, Note_off_c, 0, 62, 64
2, 35542, Note_off_c, 0, 56, 64
2, 35544, Note_on_c, 0, 77, 43
2, 35552, Note_off_c, 0, 80, 64
2, 35665, Note_off_c, 0, 77, 64
2, 35672, Control_c, 0, 64, 0
2, 35682, Note_on_c, 0, 39, 48
2, 35695, Control_c, 0, 64, 127
2, 35696, Control_c, 0, 64, 0
2, 35708, Note_on_c, 0, 67, 49
2, 35719, Control_c, 0, 64, 127
2, 35781, Note_on_c, 0, 68, 41
2, 35785, Note_off_c, 0, 67, 64
2, 35816, Note_off_c, 0, 68, 64
2, 35850, Note_on_c, 0, 68, 55
2, 35892, Note_on_c, 0, 79, 52
2, 35896, Note_on_c, 0, 46, 32
2, 35902, Note_on_c, 0, 56, 24
2, 35915, Note_off_c, 0, 68, 64
2, 35922, Note_off_c, 0, 39, 64
2, 35928, Note_off_c, 0, 46, 64
2, 35938, Note_off_c, 0, 56, 64
2, 36057, Control_c, 0, 64, 0
2, 36068, Note_on_c, 0, 39, 46
2, 36081, Control_c, 0, 64, 0
2, 36085, Control_c, 0, 64, 127
2, 36109, Control_c, 0, 64, 127
2, 36166, Note_on_c, 0, 77, 43
2, 36186, Note_off_c, 0, 79, 64
2, 36264, Note_on_c, 0, 76, 51
2, 36268, Note_on_c, 0, 46, 39
2, 36278, Note_on_c, 0, 56, 39
2, 36299, Note_off_c, 0, 77, 64
2, 36308, Note_off_c, 0, 39, 64
2, 36310, Note_off_c, 0, 56, 64
2, 36313, Note_off_c, 0, 46, 64
2, 36356, Note_on_c, 0, 46, 39
2, 36359, Note_on_c, 0, 56, 39
2, 36395, Note_off_c, 0, 56, 64
2, 36409, Note_on_c, 0, 77, 48
2, 36410, Note_off_c, 0, 46, 64
2, 36414, Control_c, 0, 64, 0
2, 36415, Note_off_c, 0, 76, 64
2, 36438, Control_c, 0, 64, 0
2, 36449, Note_on_c, 0, 39, 56
2, 36456, Control_c, 0, 64, 127
2, 36462, Note_on_c, 0, 80, 49
2, 36480, Control_c, 0, 64, 127
2, 36488, Note_off_c, 0, 77, 64
2, 36643, Note_on_c, 0, 46, 36
2, 36645, Note_on_c, 0, 84, 55
2, 36645, Note_on_c, 0, 56, 32
2, 36664, Note_off_c, 0, 80, 64
2, 36689, Note_off_c, 0, 39, 64
2, 36700, Note_off_c, 0, 56, 64
2, 36724, Note_off_c, 0, 46, 64
2, 36852, Note_on_c, 0, 67, 47
2, 36856, Note_on_c, 0, 39, 44
2, 36874, Control_c, 0, 64, 0
2, 36885, Note_off_c, 0, 84, 64
2, 36898, Control_c, 0, 64, 0
2, 36906, Control_c, 0, 64, 127
2, 36930, Control_c, 0, 64, 127
2, 36948, Note_on_c, 0, 68, 59
2, 36964, Note_off_c, 0, 67, 64
2, 36981, Note_off_c, 0, 68, 64
2, 37035, Note_on_c, 0, 68, 58
2, 37074, Control_c, 0, 64, 0
2, 37074, Note_on_c, 0, 56, 46
2, 37081, Note_on_c, 0, 46, 48
2, 37082, Note_off_c, 0, 68, 64
2, 37087, Note_on_c, 0, 79, 52
2, 37094, Control_c, 0, 64, 127
2, 37096, Note_off_c, 0, 39, 64
2, 37098, Control_c, 0, 64, 0
2, 37118, Control_c, 0, 64, 127
2, 37136, Note_off_c, 0, 56, 64
2, 37169, Note_off_c, 0, 46, 64
2, 37275, Note_on_c, 0, 39, 52
2, 37352, Note_on_c, 0, 77, 47
2, 37382, Note_off_c, 0, 79, 64
2, 37434, Control_c, 0, 64, 0
2, 37444, Note_on_c, 0, 46, 46
2, 37450, Note_on_c, 0, 55, 36
2, 37452, Note_on_c, 0, 75, 41
2, 37458, Control_c, 0, 64, 0
2, 37466, Control_c, 0, 64, 127
2, 37474, Note_off_c, 0, 77, 64
2, 37490, Control_c, 0, 64, 127
2, 37494, Note_off_c, 0, 55, 64
2, 37494, Note_off_c, 0, 46, 64
2, 37515, Note_off_c, 0, 39, 64
2, 37555, Note_on_c, 0, 55, 46
2, 37560, Note_on_c, 0, 46, 36
2, 37588, Note_off_c, 0, 46, 64
2, 37592, Note_on_c, 0, 72, 49
2, 37594, Note_off_c, 0, 55, 64
2, 37607, Control_c, 0, 64, 0
2, 37611, Note_off_c, 0, 75, 64
2, 37631, Control_c, 0, 64, 0
2, 37640, Note_on_c, 0, 69, 46
2, 37640, Note_on_c, 0, 39, 63
2, 37650, Control_c, 0, 64, 127
2, 37664, Note_off_c, 0, 72, 64
2, 37674, Control_c, 0, 64, 127
2, 37805, Control_c, 0, 64, 0
2, 37829, Control_c, 0, 64, 0
2, 37835, Control_c, 0, 64, 127
2, 37837, Note_on_c, 0, 70, 51
2, 37841, Note_on_c, 0, 46, 49
2, 37850, Note_on_c, 0, 55, 36
2, 37859, Control_c, 0, 64, 127
2, 37872, Note_off_c, 0, 69, 64
2, 37880, Note_off_c, 0, 39, 64
2, 37914, Note_off_c, 0, 55, 64
2, 37948, Note_off_c, 0, 46, 64
2, 38062, Control_c, 0, 64, 0
2, 38068, Note_on_c, 0, 67, 32
2, 38072, Note_on_c, 0, 39, 47
2, 38076, Note_off_c, 0, 70, 64
2, 38086, Control_c, 0, 64, 0
2, 38097, Control_c, 0, 64, 127
2, 38121, Control_c, 0, 64, 127
2, 38164, Note_on_c, 0, 68, 53
2, 38171, Note_off_c, 0, 67, 64
2, 38197, Note_off_c, 0, 68, 64
2, 38236, Note_on_c, 0, 68, 63
2, 38265, Control_c, 0, 64, 0
2, 38280, Note_on_c, 0, 56, 52
2, 38280, Note_on_c, 0, 46, 46
2, 38285, Note_off_c, 0, 68, 64
2, 38288, Control_c, 0, 64, 127
2, 38289, Control_c, 0, 64, 0
2, 38292, Note_on_c, 0, 79, 48
2, 38312, Note_off_c, 0, 39, 64
2, 38312, Control_c, 0, 64, 127
2, 38351, Note_off_c, 0, 56, 64
2, 38394, Note_off_c, 0, 46, 64
2, 38464, Note_on_c, 0, 39, 51
2, 38555, Note_on_c, 0, 77, 48
2, 38571, Note_off_c, 0, 79, 64
2, 38637, Note_on_c, 0, 56, 51
2, 38637, Note_on_c, 0, 46, 49
2, 38643, Note_on_c, 0, 76, 51
2, 38659, Note_off_c, 0, 77, 64
2, 38688, Note_off_c, 0, 56, 64
2, 38689, Note_off_c, 0, 46, 64
2, 38704, Note_off_c, 0, 39, 64
2, 38747, Note_on_c, 0, 56, 43
2, 38751, Note_on_c, 0, 46, 41
2, 38787, Note_on_c, 0, 77, 40
2, 38790, Note_off_c, 0, 56, 64
2, 38797, Note_off_c, 0, 46, 64
2, 38803, Note_off_c, 0, 76, 64
2, 38840, Note_on_c, 0, 80, 59
2, 38846, Note_on_c, 0, 39, 51
2, 38855, Note_off_c, 0, 77, 64
2, 39007, Note_on_c, 0, 96, 51
2, 39029, Note_off_c, 0, 80, 64
2, 39048, Note_on_c, 0, 46, 40
2, 39052, Note_on_c, 0, 101, 60
2, 39053, Note_on_c, 0, 56, 27
2, 39086, Note_off_c, 0, 39, 64
2, 39109, Note_off_c, 0, 96, 64
2, 39149, Note_off_c, 0, 56, 64
2, 39172, Note_off_c, 0, 46, 64
2, 39291, Note_off_c, 0, 101, 64
2, 39344, Note_on_c, 0, 39, 45
2, 39352, Note_on_c, 0, 84, 56
2, 39524, Note_on_c, 0, 83, 58
2, 39544, Note_off_c, 0, 84, 64
2, 39584, Note_off_c, 0, 39, 64
2, 39628, Note_on_c, 0, 65, 31
2, 39632, Note_on_c, 0, 82, 48
2, 39632, Note_on_c, 0, 68, 25
2, 39632, Note_on_c, 0, 58, 23
2, 39646, Note_off_c, 0, 83, 64
2, 39705, Note_off_c, 0, 65, 64
2, 39720, Note_off_c, 0, 58, 64
2, 39723, Note_off_c, 0, 68, 64
2, 39748, Note_on_c, 0, 81, 54
2, 39765, Note_off_c, 0, 82, 64
2, 39872, Note_on_c, 0, 80, 51
2, 39874, Note_on_c, 0, 58, 39
2, 39880, Note_on_c, 0, 65, 42
2, 39882, Note_on_c, 0, 68, 32
2, 39934, Note_off_c, 0, 68, 64
2, 39936, Note_off_c, 0, 81, 64
2, 39957, Note_off_c, 0, 58, 64
2, 39963, Note_off_c, 0, 65, 64
2, 40018, Note_on_c, 0, 70, 41
2, 40052, Note_off_c, 0, 80, 64
2, 40140, Note_on_c, 0, 51, 27
2, 40143, Note_off_c, 0, 70, 64
2, 40146, Note_on_c, 0, 77, 48
2, 40146, Control_c, 0, 64, 0
2, 40170, Control_c, 0, 64, 0
2, 40194, Control_c, 0, 64, 127
2, 40218, Control_c, 0, 64, 127
2, 40336, Note_on_c, 0, 79, 39
2, 40347, Note_off_c, 0, 77, 64
2, 40380, Note_off_c, 0, 51, 64
2, 40384, Control_c, 0, 64, 0
2, 40388, Note_on_c, 0, 75, 48
2, 40405, Note_on_c, 0, 58, 17
2, 40408, Control_c, 0, 64, 0
2, 40415, Note_on_c, 0, 67, 20
2, 40418, Note_off_c, 0, 79, 64
2, 40421, Note_on_c, 0, 63, 21
2, 40436, Control_c, 0, 64, 127
2, 40460, Control_c, 0, 64, 127
2, 40677, Note_off_c, 0, 63, 64
2, 40677, Note_off_c, 0, 67, 64
2, 40677, Note_off_c, 0, 58, 64
2, 40680, Note_off_c, 0, 75, 64
2, 40767, Control_c, 0, 64, 0
2, 40791, Control_c, 0, 64, 0
2, 40814, Note_on_c, 0, 65, 66
2, 40825, Control_c, 0, 64, 127
2, 40849, Control_c, 0, 64, 127
2, 41034, Control_c, 0, 64, 0
2, 41058, Control_c, 0, 64, 0
2, 41064, Note_on_c, 0, 77, 74
2, 41065, Note_on_c, 0, 74, 71
2, 41071, Note_off_c, 0, 65, 64
2, 41072, Note_on_c, 0, 34, 64
2, 41078, Note_on_c, 0, 46, 52
2, 41091, Control_c, 0, 64, 127
2, 41115, Control_c, 0, 64, 127
2, 41202, Note_off_c, 0, 74, 64
2, 41210, Note_off_c, 0, 77, 64
2, 41312, Note_off_c, 0, 34, 64
2, 41313, Note_on_c, 0, 58, 32
2, 41316, Note_on_c, 0, 53, 48
2, 41318, Note_off_c, 0, 46, 64
2, 41324, Note_on_c, 0, 62, 32
2, 41375, Note_off_c, 0, 58, 64
2, 41379, Note_off_c, 0, 62, 64
2, 41383, Note_off_c, 0, 53, 64
2, 41412, Note_on_c, 0, 73, 60
2, 41419, Note_on_c, 0, 76, 55
2, 41457, Note_off_c, 0, 73, 64
2, 41467, Note_off_c, 0, 76, 64
2, 41504, Note_on_c, 0, 74, 41
2, 41505, Note_on_c, 0, 77, 64
2, 41524, Note_on_c, 0, 77, 60
2, 41543, Note_off_c, 0, 77, 64
2, 41544, Note_on_c, 0, 79, 51
2, 41553, Note_off_c, 0, 74, 64
2, 41557, Note_on_c, 0, 53, 51
2, 41559, Note_off_c, 0, 77, 64
2, 41560, Note_on_c, 0, 74, 49
2, 41560, Note_on_c, 0, 58, 41
2, 41570, Note_on_c, 0, 62, 31
2, 41573, Note_on_c, 0, 77, 64
2, 41580, Note_off_c, 0, 79, 64
2, 41592, Note_off_c, 0, 62, 64
2, 41609, Note_off_c, 0, 58, 64
2, 41611, Note_off_c, 0, 77, 64
2, 41612, Note_off_c, 0, 53, 64
2, 41627, Note_off_c, 0, 74, 64
2, 41684, Note_on_c, 0, 76, 61
2, 41687, Note_on_c, 0, 73, 72
2, 41730, Note_off_c, 0, 73, 64
2, 41741, Note_off_c, 0, 76, 64
2, 41791, Control_c, 0, 64, 0
2, 41796, Note_on_c, 0, 74, 70
2, 41799, Note_on_c, 0, 77, 71
2, 41807, Note_on_c, 0, 58, 46
2, 41807, Note_on_c, 0, 46, 51
2, 41815, Control_c, 0, 64, 0
2, 41823, Control_c, 0, 64, 127
2, 41847, Control_c, 0, 64, 127
2, 41857, Note_off_c, 0, 74, 64
2, 41864, Note_off_c, 0, 77, 64
2, 41881, Note_off_c, 0, 58, 64
2, 41894, Note_off_c, 0, 46, 64
2, 41952, Note_on_c, 0, 70, 72
2, 41979, Note_off_c, 0, 70, 64
2, 42003, Control_c, 0, 64, 0
2, 42005, Note_on_c, 0, 67, 68
2, 42011, Note_on_c, 0, 70, 71
2, 42013, Note_on_c, 0, 75, 66
2, 42013, Note_on_c, 0, 51, 53
2, 42024, Control_c, 0, 64, 127
2, 42024, Note_on_c, 0, 58, 25
2, 42027, Control_c, 0, 64, 0
2, 42048, Control_c, 0, 64, 127
2, 42072, Note_off_c, 0, 51, 64
2, 42108, Note_off_c, 0, 58, 64
2, 42177, Note_off_c, 0, 70, 64
2, 42216, Note_off_c, 0, 75, 64
2, 42231, Note_off_c, 0, 67, 64
2, 42231, Note_on_c, 0, 70, 27
2, 42232, Control_c, 0, 64, 0
2, 42239, Note_on_c, 0, 74, 64
2, 42239, Note_on_c, 0, 46, 53
2, 42244, Note_on_c, 0, 58, 41
2, 42248, Note_on_c, 0, 65, 56
2, 42253, Control_c, 0, 64, 127
2, 42256, Control_c, 0, 64, 0
2, 42276, Note_off_c, 0, 58, 64
2, 42277, Control_c, 0, 64, 127
2, 42290, Note_off_c, 0, 46, 64
2, 42318, Note_off_c, 0, 65, 64
2, 42351, Note_off_c, 0, 70, 64
2, 42387, Note_off_c, 0, 74, 64
2, 42463, Note_on_c, 0, 72, 72
2, 42464, Note_on_c, 0, 29, 64
2, 42465, Control_c, 0, 64, 0
2, 42468, Note_on_c, 0, 63, 71
2, 42473, Note_on_c, 0, 41, 33
2, 42489, Control_c, 0, 64, 0
2, 42507, Control_c, 0, 64, 127
2, 42531, Control_c, 0, 64, 127
2, 42683, Control_c, 0, 64, 0
2, 42696, Control_c, 0, 64, 127
2, 42699, Note_on_c, 0, 53, 54
2, 42704, Note_off_c, 0, 29, 64
2, 42707, Note_on_c, 0, 57, 56
2, 42707, Control_c, 0, 64, 0
2, 42713, Note_off_c, 0, 41, 64
2, 42720, Control_c, 0, 64, 127
2, 42737, Note_off_c, 0, 63, 64
2, 42744, Note_off_c, 0, 72, 64
2, 42789, Note_on_c, 0, 75, 67
2, 42796, Note_on_c, 0, 67, 63
2, 42842, Note_off_c, 0, 75, 64
2, 42848, Note_off_c, 0, 67, 64
2, 42875, Note_off_c, 0, 57, 64
2, 42898, Note_on_c, 0, 65, 66
2, 42902, Note_on_c, 0, 74, 63
2, 42938, Note_off_c, 0, 65, 64
2, 42940, Note_off_c, 0, 53, 64
2, 42961, Note_off_c, 0, 74, 64
2, 42996, Note_on_c, 0, 63, 76
2, 43000, Note_on_c, 0, 72, 61
2, 43046, Note_off_c, 0, 63, 64
2, 43049, Note_off_c, 0, 72, 64
2, 43083, Control_c, 0, 64, 0
2, 43100, Note_on_c, 0, 34, 63
2, 43107, Note_on_c, 0, 74, 70
2, 43107, Note_on_c, 0, 65, 79
2, 43107, Note_on_c, 0, 46, 58
2, 43107, Control_c, 0, 64, 0
2, 43116, Control_c, 0, 64, 127
2, 43140, Control_c, 0, 64, 127
2, 43160, Note_off_c, 0, 65, 64
2, 43173, Note_off_c, 0, 74, 64
2, 43264, Note_on_c, 0, 65, 71
2, 43272, Note_off_c, 0, 46, 64
2, 43289, Note_off_c, 0, 65, 64
2, 43299, Control_c, 0, 64, 0
2, 43310, Note_on_c, 0, 65, 63
2, 43311, Note_on_c, 0, 70, 80
2, 43316, Note_on_c, 0, 62, 79
2, 43316, Note_on_c, 0, 58, 63
2, 43316, Note_on_c, 0, 46, 56
2, 43321, Note_on_c, 0, 53, 56
2, 43323, Control_c, 0, 64, 127
2, 43323, Control_c, 0, 64, 0
2, 43332, Note_off_c, 0, 65, 64
2, 43340, Note_off_c, 0, 34, 64
2, 43347, Control_c, 0, 64, 127
2, 43365, Note_off_c, 0, 46, 64
2, 43373, Note_off_c, 0, 53, 64
2, 43382, Note_off_c, 0, 58, 64
2, 43401, Note_off_c, 0, 70, 64
2, 43478, Note_off_c, 0, 62, 64
2, 43520, Note_on_c, 0, 65, 72
2, 43523, Note_on_c, 0, 74, 72
2, 43527, Note_on_c, 0, 58, 60
2, 43532, Note_on_c, 0, 46, 60
2, 43537, Note_on_c, 0, 53, 54
2, 43579, Note_off_c, 0, 53, 64
2, 43582, Note_off_c, 0, 46, 64
2, 43584, Note_off_c, 0, 58, 64
2, 43651, Note_off_c, 0, 65, 64
2, 43707, Note_off_c, 0, 74, 64
2, 43731, Control_c, 0, 64, 0
2, 43735, Note_on_c, 0, 77, 72
2, 43735, Note_on_c, 0, 34, 64
2, 43742, Note_on_c, 0, 74, 66
2, 43742, Note_on_c, 0, 46, 59
2, 43755, Control_c, 0, 64, 0
2, 43761, Control_c, 0, 64, 127
2, 43785, Control_c, 0, 64, 127
2, 43789, Note_off_c, 0, 74, 64
2, 43795, Note_off_c, 0, 77, 64
2, 43880, Note_on_c, 0, 77, 74
2, 43884, Note_on_c, 0, 74, 67
2, 43908, Note_off_c, 0, 77, 64
2, 43909, Note_off_c, 0, 74, 64
2, 43909, Control_c, 0, 64, 0
2, 43930, Control_c, 0, 64, 127
2, 43931, Note_on_c, 0, 77, 72
2, 43933, Control_c, 0, 64, 0
2, 43939, Note_on_c, 0, 74, 66
2, 43939, Note_on_c, 0, 53, 39
2, 43944, Note_on_c, 0, 62, 35
2, 43947, Note_on_c, 0, 58, 26
2, 43954, Control_c, 0, 64, 127
2, 43975, Note_off_c, 0, 77, 64
2, 43975, Note_off_c, 0, 34, 64
2, 43982, Note_off_c, 0, 46, 64
2, 43985, Note_off_c, 0, 74, 64
2, 43998, Note_off_c, 0, 62, 64
2, 44004, Note_off_c, 0, 53, 64
2, 44006, Note_off_c, 0, 58, 64
2, 44073, Note_on_c, 0, 77, 74
2, 44105, Note_on_c, 0, 79, 63
2, 44112, Note_off_c, 0, 77, 64
2, 44134, Note_on_c, 0, 77, 74
2, 44142, Note_on_c, 0, 74, 63
2, 44142, Note_on_c, 0, 58, 60
2, 44147, Note_on_c, 0, 62, 45
2, 44147, Note_on_c, 0, 53, 59
2, 44164, Note_off_c, 0, 79, 64
2, 44173, Note_off_c, 0, 77, 64
2, 44185, Note_off_c, 0, 62, 64
2, 44190, Note_off_c, 0, 58, 64
2, 44194, Note_off_c, 0, 74, 64
2, 44201, Note_off_c, 0, 53, 64
2, 44247, Note_on_c, 0, 76, 72
2, 44251, Note_on_c, 0, 73, 82
2, 44288, Note_off_c, 0, 73, 64
2, 44296, Note_off_c, 0, 76, 64
2, 44348, Note_on_c, 0, 77, 67
2, 44352, Control_c, 0, 64, 0
2, 44354, Note_on_c, 0, 74, 70
2, 44357, Note_on_c, 0, 46, 60
2, 44370, Control_c, 0, 64, 127
2, 44376, Control_c, 0, 64, 0
2, 44394, Control_c, 0, 64, 127
2, 44406, Note_off_c, 0, 74, 64
2, 44409, Note_off_c, 0, 77, 64
2, 44439, Note_off_c, 0, 46, 64
2, 44516, Note_on_c, 0, 70, 60
2, 44545, Note_off_c, 0, 70, 64
2, 44562, Control_c, 0, 64, 0
2, 44563, Note_on_c, 0, 67, 72
2, 44567, Note_on_c, 0, 70, 71
2, 44567, Note_on_c, 0, 58, 50
2, 44568, Note_on_c, 0, 75, 72
2, 44568, Note_on_c, 0, 51, 54
2, 44586, Control_c, 0, 64, 0
2, 44589, Control_c, 0, 64, 127
2, 44613, Control_c, 0, 64, 127
2, 44629, Note_off_c, 0, 51, 64
2, 44649, Note_off_c, 0, 58, 64
2, 44676, Note_off_c, 0, 70, 64
2, 44743, Note_off_c, 0, 75, 64
2, 44777, Note_off_c, 0, 67, 64
2, 44788, Control_c, 0, 64, 0
2, 44793, Note_on_c, 0, 74, 68
2, 44796, Note_on_c, 0, 46, 59
2, 44800, Note_on_c, 0, 58, 54
2, 44802, Note_on_c, 0, 65, 64
2, 44809, Note_on_c, 0, 70, 45
2, 44812, Control_c, 0, 64, 0
2, 44821, Control_c, 0, 64, 127
2, 44829, Note_off_c, 0, 70, 64
2, 44844, Note_off_c, 0, 58, 64
2, 44845, Control_c, 0, 64, 127
2, 44861, Note_off_c, 0, 46, 64
2, 44890, Note_off_c, 0, 65, 64
2, 44952, Note_off_c, 0, 74, 64
2, 45029, Note_on_c, 0, 63, 72
2, 45031, Note_on_c, 0, 72, 72
2, 45031, Note_on_c, 0, 70, 72
2, 45034, Control_c, 0, 64, 0
2, 45041, Note_on_c, 0, 29, 64
2, 45044, Note_on_c, 0, 41, 55
2, 45058, Control_c, 0, 64, 0
2, 45072, Control_c, 0, 64, 127
2, 45096, Control_c, 0, 64, 127
2, 45169, Note_off_c, 0, 70, 64
2, 45261, Note_off_c, 0, 63, 64
2, 45277, Note_on_c, 0, 69, 68
2, 45277, Note_on_c, 0, 53, 63
2, 45281, Note_off_c, 0, 29, 64
2, 45281, Note_on_c, 0, 60, 61
2, 45284, Note_off_c, 0, 41, 64
2, 45358, Note_off_c, 0, 72, 64
2, 45382, Note_on_c, 0, 75, 63
2, 45384, Note_on_c, 0, 67, 53
2, 45404, Note_off_c, 0, 69, 64
2, 45430, Note_off_c, 0, 67, 64
2, 45439, Note_off_c, 0, 75, 64
2, 45483, Note_on_c, 0, 74, 70
2, 45489, Note_on_c, 0, 65, 72
2, 45510, Note_off_c, 0, 60, 64
2, 45533, Note_off_c, 0, 65, 64
2, 45533, Note_off_c, 0, 53, 64
2, 45551, Note_off_c, 0, 74, 64
2, 45578, Note_on_c, 0, 72, 60
2, 45587, Note_on_c, 0, 63, 74
2, 45633, Note_off_c, 0, 63, 64
2, 45641, Note_off_c, 0, 72, 64
2, 45681, Control_c, 0, 64, 0
2, 45683, Note_on_c, 0, 74, 66
2, 45692, Note_on_c, 0, 65, 79
2, 45693, Note_on_c, 0, 46, 59
2, 45703, Note_on_c, 0, 58, 44
2, 45705, Control_c, 0, 64, 0
2, 45712, Control_c, 0, 64, 127
2, 45736, Control_c, 0, 64, 127
2, 45748, Note_off_c, 0, 65, 64
2, 45759, Note_off_c, 0, 58, 64
2, 45768, Note_off_c, 0, 46, 64
2, 45769, Note_off_c, 0, 74, 64
2, 45850, Note_on_c, 0, 65, 72
2, 45875, Control_c, 0, 64, 0
2, 45889, Note_off_c, 0, 65, 64
2, 45899, Control_c, 0, 64, 0
2, 45905, Note_on_c, 0, 65, 57
2, 45906, Note_on_c, 0, 70, 72
2, 45906, Note_on_c, 0, 62, 68
2, 45911, Control_c, 0, 64, 127
2, 45912, Note_on_c, 0, 46, 56
2, 45913, Note_on_c, 0, 58, 64
2, 45915, Note_on_c, 0, 53, 57
2, 45935, Control_c, 0, 64, 127
2, 46085, Note_off_c, 0, 53, 64
2, 46106, Note_off_c, 0, 58, 64
2, 46116, Note_off_c, 0, 62, 64
2, 46118, Note_off_c, 0, 46, 64
2, 46123, Note_off_c, 0, 65, 64
2, 46125, Note_on_c, 0, 74, 68
2, 46128, Note_on_c, 0, 65, 66
2, 46128, Note_on_c, 0, 62, 64
2, 46128, Note_on_c, 0, 58, 56
2, 46128, Note_on_c, 0, 53, 53
2, 46132, Note_on_c, 0, 46, 63
2, 46158, Note_off_c, 0, 70, 64
2, 46279, Note_off_c, 0, 46, 64
2, 46318, Note_off_c, 0, 53, 64
2, 46321, Note_off_c, 0, 58, 64
2, 46334, Note_off_c, 0, 65, 64
2, 46352, Control_c, 0, 64, 0
2, 46357, Note_off_c, 0, 62, 64
2, 46374, Note_on_c, 0, 60, 86
2, 46376, Control_c, 0, 64, 0
2, 46381, Note_off_c, 0, 74, 64
2, 46383, Note_on_c, 0, 48, 87
2, 46383, Note_on_c, 0, 36, 87
2, 46405, Control_c, 0, 64, 127
2, 46429, Control_c, 0, 64, 127
2, 46614, Note_off_c, 0, 60, 64
2, 46692, Note_on_c, 0, 82, 90
2, 46692, Note_on_c, 0, 70, 68
2, 46698, Note_on_c, 0, 67, 59
2, 46698, Note_on_c, 0, 60, 67
2, 46701, Note_on_c, 0, 76, 72
2, 46706, Control_c, 0, 64, 0
2, 46730, Control_c, 0, 64, 0
2, 46745, Control_c, 0, 64, 127
2, 46769, Control_c, 0, 64, 127
2, 46849, Note_off_c, 0, 82, 64
2, 46867, Note_off_c, 0, 76, 64
2, 46903, Note_off_c, 0, 70, 64
2, 46919, Note_off_c, 0, 60, 64
2, 46923, Note_off_c, 0, 67, 64
2, 47018, Note_on_c, 0, 70, 66
2, 47019, Note_on_c, 0, 81, 82
2, 47019, Note_on_c, 0, 76, 68
2, 47024, Note_on_c, 0, 60, 63
2, 47028, Note_on_c, 0, 67, 49
2, 47065, Note_off_c, 0, 70, 64
2, 47071, Note_off_c, 0, 76, 64
2, 47077, Note_off_c, 0, 60, 64
2, 47083, Note_off_c, 0, 67, 64
2, 47104, Note_off_c, 0, 81, 64
2, 47108, Control_c, 0, 64, 0
2, 47121, Control_c, 0, 64, 127
2, 47122, Note_on_c, 0, 78, 66
2, 47122, Note_on_c, 0, 70, 75
2, 47124, Note_on_c, 0, 67, 59
2, 47124, Note_on_c, 0, 60, 67
2, 47132, Control_c, 0, 64, 0
2, 47137, Note_on_c, 0, 76, 59
2, 47145, Control_c, 0, 64, 127
2, 47173, Note_off_c, 0, 76, 64
2, 47183, Note_off_c, 0, 78, 64
2, 47184, Note_off_c, 0, 67, 64
2, 47188, Note_off_c, 0, 60, 64
2, 47191, Note_off_c, 0, 70, 64
2, 47271, Note_on_c, 0, 70, 67
2, 47274, Note_on_c, 0, 76, 64
2, 47280, Note_on_c, 0, 60, 64
2, 47283, Note_on_c, 0, 79, 72
2, 47284, Note_on_c, 0, 67, 60
2, 47299, Note_off_c, 0, 70, 64
2, 47303, Note_off_c, 0, 76, 64
2, 47304, Note_off_c, 0, 79, 64
2, 47315, Note_off_c, 0, 60, 64
2, 47323, Note_on_c, 0, 76, 72
2, 47324, Note_on_c, 0, 70, 75
2, 47329, Note_on_c, 0, 81, 76
2, 47329, Note_on_c, 0, 60, 74
2, 47374, Note_off_c, 0, 67, 64
2, 47378, Note_off_c, 0, 70, 64
2, 47378, Note_off_c, 0, 76, 64
2, 47381, Note_off_c, 0, 60, 64
2, 47521, Control_c, 0, 64, 0
2, 47528, Note_off_c, 0, 81, 64
2, 47537, Control_c, 0, 64, 127
2, 47538, Note_on_c, 0, 70, 74
2, 47539, Note_on_c, 0, 79, 87
2, 47544, Note_on_c, 0, 76, 70
2, 47545, Note_on_c, 0, 60, 68
2, 47545, Control_c, 0, 64, 0
2, 47552, Note_on_c, 0, 67, 68
2, 47561, Control_c, 0, 64, 127
2, 47572, Note_off_c, 0, 67, 64
2, 47575, Note_off_c, 0, 60, 64
2, 47580, Note_off_c, 0, 79, 64
2, 47583, Note_off_c, 0, 76, 64
2, 47598, Note_off_c, 0, 36, 64
2, 47598, Note_off_c, 0, 48, 64
2, 47603, Note_off_c, 0, 70, 64
2, 47756, Control_c, 0, 64, 0
2, 47772, Note_on_c, 0, 60, 96
2, 47772, Note_on_c, 0, 48, 83
2, 47772, Note_on_c, 0, 36, 91
2, 47777, Control_c, 0, 64, 127
2, 47780, Control_c, 0, 64, 0
2, 47801, Control_c, 0, 64, 127
2, 48012, Note_off_c, 0, 60, 64
2, 48032, Note_on_c, 0, 70, 84
2, 48036, Note_on_c, 0, 81, 82
2, 48040, Note_on_c, 0, 76, 76
2, 48040, Note_on_c, 0, 67, 75
2, 48040, Note_on_c, 0, 60, 82
2, 48061, Control_c, 0, 64, 0
2, 48085, Control_c, 0, 64, 0
2, 48090, Control_c, 0, 64, 127
2, 48114, Control_c, 0, 64, 127
2, 48171, Note_off_c, 0, 81, 64
2, 48207, Note_off_c, 0, 76, 64
2, 48217, Note_off_c, 0, 70, 64
2, 48225, Note_off_c, 0, 60, 64
2, 48239, Note_off_c, 0, 67, 64
2, 48354, Note_on_c, 0, 79, 82
2, 48356, Note_on_c, 0, 70, 84
2, 48360, Note_on_c, 0, 76, 83
2, 48360, Note_on_c, 0, 67, 74
2, 48363, Note_on_c, 0, 60, 75
2, 48387, Note_off_c, 0, 36, 64
2, 48387, Note_off_c, 0, 48, 64
2, 48399, Note_off_c, 0, 67, 64
2, 48399, Note_off_c, 0, 76, 64
2, 48399, Note_off_c, 0, 79, 64
2, 48402, Note_off_c, 0, 70, 64
2, 48413, Note_off_c, 0, 60, 64
2, 48444, Control_c, 0, 64, 0
2, 48452, Note_on_c, 0, 69, 64
2, 48454, Note_on_c, 0, 60, 59
2, 48460, Note_on_c, 0, 65, 59
2, 48462, Note_on_c, 0, 77, 70
2, 48462, Note_on_c, 0, 53, 64
2, 48468, Control_c, 0, 64, 0
2, 48473, Control_c, 0, 64, 127
2, 48497, Control_c, 0, 64, 127
2, 48520, Note_off_c, 0, 60, 64
2, 48541, Note_off_c, 0, 53, 64
2, 48543, Note_off_c, 0, 65, 64
2, 48552, Note_off_c, 0, 69, 64
2, 48564, Note_off_c, 0, 77, 64
2, 48604, Note_on_c, 0, 65, 66
2, 48604, Note_on_c, 0, 53, 66
2, 48606, Note_on_c, 0, 70, 67
2, 48606, Note_on_c, 0, 62, 65
2, 48611, Note_on_c, 0, 74, 64
2, 48624, Control_c, 0, 64, 0
2, 48643, Note_off_c, 0, 53, 64
2, 48643, Note_off_c, 0, 65, 64
2, 48648, Control_c, 0, 64, 0
2, 48655, Note_off_c, 0, 62, 64
2, 48655, Note_on_c, 0, 60, 57
2, 48658, Note_off_c, 0, 70, 64
2, 48658, Note_on_c, 0, 69, 70
2, 48660, Note_on_c, 0, 72, 72
2, 48660, Note_on_c, 0, 65, 61
2, 48660, Note_on_c, 0, 53, 66
2, 48672, Control_c, 0, 64, 127
2, 48677, Note_off_c, 0, 74, 64
2, 48696, Control_c, 0, 64, 127
2, 48739, Note_off_c, 0, 72, 64
2, 48746, Note_off_c, 0, 69, 64
2, 48746, Note_off_c, 0, 60, 64
2, 48752, Note_off_c, 0, 53, 64
2, 48791, Note_off_c, 0, 65, 64
2, 48863, Note_on_c, 0, 77, 67
2, 48868, Note_on_c, 0, 69, 70
2, 48868, Note_on_c, 0, 60, 54
2, 48873, Note_on_c, 0, 65, 57
2, 48876, Note_on_c, 0, 53, 63
2, 48960, Note_off_c, 0, 77, 64
2, 48970, Note_off_c, 0, 65, 64
2, 48982, Note_off_c, 0, 60, 64
2, 48992, Note_off_c, 0, 69, 64
2, 49007, Note_off_c, 0, 53, 64
2, 49068, Control_c, 0, 64, 0
2, 49080, Note_on_c, 0, 60, 99
2, 49083, Note_on_c, 0, 36, 84
2, 49087, Note_on_c, 0, 48, 84
2, 49088, Control_c, 0, 64, 127
2, 49092, Control_c, 0, 64, 0
2, 49112, Control_c, 0, 64, 127
2, 49320, Note_off_c, 0, 60, 64
2, 49331, Note_on_c, 0, 82, 103
2, 49331, Note_on_c, 0, 70, 86
2, 49335, Note_on_c, 0, 76, 84
2, 49335, Note_on_c, 0, 67, 76
2, 49341, Note_on_c, 0, 60, 68
2, 49347, Control_c, 0, 64, 0
2, 49371, Control_c, 0, 64, 0
2, 49386, Control_c, 0, 64, 127
2, 49410, Control_c, 0, 64, 127
2, 49492, Note_off_c, 0, 82, 64
2, 49512, Note_off_c, 0, 76, 64
2, 49512, Note_off_c, 0, 70, 64
2, 49548, Note_off_c, 0, 60, 64
2, 49557, Note_off_c, 0, 67, 64
2, 49644, Note_on_c, 0, 70, 59
2, 49647, Note_on_c, 0, 81, 75
2, 49647, Note_on_c, 0, 60, 63
2, 49652, Note_on_c, 0, 76, 63
2, 49652, Note_on_c, 0, 67, 58
2, 49691, Note_off_c, 0, 70, 64
2, 49692, Note_off_c, 0, 60, 64
2, 49696, Note_off_c, 0, 67, 64
2, 49699, Note_off_c, 0, 76, 64
2, 49714, Control_c, 0, 64, 0
2, 49715, Note_off_c, 0, 81, 64
2, 49736, Control_c, 0, 64, 127
2, 49738, Control_c, 0, 64, 0
2, 49744, Note_on_c, 0, 78, 74
2, 49747, Note_on_c, 0, 67, 63
2, 49747, Note_on_c, 0, 60, 63
2, 49752, Note_on_c, 0, 76, 70
2, 49752, Note_on_c, 0, 70, 76
2, 49760, Control_c, 0, 64, 127
2, 49797, Note_off_c, 0, 70, 64
2, 49812, Note_off_c, 0, 78, 64
2, 49814, Note_off_c, 0, 67, 64
2, 49819, Note_off_c, 0, 60, 64
2, 49820, Note_off_c, 0, 76, 64
2, 49884, Note_on_c, 0, 79, 83
2, 49886, Note_on_c, 0, 76, 67
2, 49886, Note_on_c, 0, 70, 64
2, 49891, Note_on_c, 0, 60, 68
2, 49894, Note_on_c, 0, 67, 70
2, 49911, Note_off_c, 0, 70, 64
2, 49918, Note_off_c, 0, 76, 64
2, 49921, Control_c, 0, 64, 0
2, 49923, Note_off_c, 0, 79, 64
2, 49924, Note_off_c, 0, 67, 64
2, 49927, Note_off_c, 0, 60, 64
2, 49932, Note_on_c, 0, 81, 84
2, 49934, Note_on_c, 0, 70, 72
2, 49937, Control_c, 0, 64, 127
2, 49938, Note_on_c, 0, 76, 72
2, 49945, Control_c, 0, 64, 0
2, 49950, Note_on_c, 0, 60, 68
2, 49951, Note_on_c, 0, 67, 67
2, 49961, Control_c, 0, 64, 127
2, 49990, Note_off_c, 0, 70, 64
2, 49994, Note_off_c, 0, 67, 64
2, 49994, Note_off_c, 0, 76, 64
2, 49999, Note_off_c, 0, 60, 64
2, 50107, Control_c, 0, 64, 0
2, 50114, Note_off_c, 0, 81, 64
2, 50131, Control_c, 0, 64, 0
2, 50136, Note_on_c, 0, 76, 70
2, 50137, Control_c, 0, 64, 127
2, 50138, Note_on_c, 0, 70, 75
2, 50140, Note_on_c, 0, 60, 67
2, 50146, Note_on_c, 0, 67, 59
2, 50147, Note_on_c, 0, 79, 76
2, 50161, Control_c, 0, 64, 127
2, 50169, Note_off_c, 0, 70, 64
2, 50172, Note_off_c, 0, 79, 64
2, 50175, Note_off_c, 0, 76, 64
2, 50177, Note_off_c, 0, 60, 64
2, 50190, Note_off_c, 0, 67, 64
2, 50298, Note_off_c, 0, 36, 64
2, 50302, Note_off_c, 0, 48, 64
2, 50340, Control_c, 0, 64, 0
2, 50346, Note_on_c, 0, 84, 72
2, 50346, Note_on_c, 0, 75, 67
2, 50346, Note_on_c, 0, 69, 64
2, 50346, Note_on_c, 0, 65, 67
2, 50351, Control_c, 0, 64, 127
2, 50364, Control_c, 0, 64, 0
2, 50375, Control_c, 0, 64, 127
2, 50440, Note_off_c, 0, 84, 64
2, 50441, Note_off_c, 0, 65, 64
2, 50447, Note_off_c, 0, 69, 64
2, 50472, Note_off_c, 0, 75, 64
2, 50490, Note_on_c, 0, 77, 70
2, 50490, Note_on_c, 0, 68, 63
2, 50490, Note_on_c, 0, 58, 59
2, 50493, Note_on_c, 0, 74, 68
2, 50523, Control_c, 0, 64, 0
2, 50528, Note_off_c, 0, 77, 64
2, 50534, Note_off_c, 0, 58, 64
2, 50547, Control_c, 0, 64, 0
2, 50551, Note_off_c, 0, 68, 64
2, 50552, Note_on_c, 0, 67, 68
2, 50552, Control_c, 0, 64, 127
2, 50554, Note_on_c, 0, 82, 76
2, 50555, Note_on_c, 0, 73, 75
2, 50555, Note_on_c, 0, 63, 58
2, 50563, Note_off_c, 0, 74, 64
2, 50576, Control_c, 0, 64, 127
2, 50631, Note_off_c, 0, 67, 64
2, 50645, Note_off_c, 0, 63, 64
2, 50670, Note_off_c, 0, 82, 64
2, 50698, Note_off_c, 0, 73, 64
2, 50736, Control_c, 0, 64, 0
2, 50750, Note_on_c, 0, 75, 70
2, 50750, Note_on_c, 0, 66, 41
2, 50750, Note_on_c, 0, 56, 54
2, 50752, Note_on_c, 0, 72, 66
2, 50760, Control_c, 0, 64, 0
2, 50785, Control_c, 0, 64, 127
2, 50809, Control_c, 0, 64, 127
2, 50867, Note_off_c, 0, 56, 64
2, 50868, Note_off_c, 0, 66, 64
2, 50871, Note_off_c, 0, 75, 64
2, 50881, Note_off_c, 0, 72, 64
2, 50937, Control_c, 0, 64, 0
2, 50961, Control_c, 0, 64, 0
2, 50966, Note_on_c, 0, 80, 66
2, 50966, Note_on_c, 0, 72, 64
2, 50966, Note_on_c, 0, 62, 53
2, 50968, Note_on_c, 0, 65, 51
2, 50974, Control_c, 0, 64, 127
2, 50998, Control_c, 0, 64, 127
2, 51065, Note_off_c, 0, 65, 64
2, 51065, Note_off_c, 0, 62, 64
2, 51082, Note_off_c, 0, 72, 64
2, 51092, Note_off_c, 0, 80, 64
2, 51112, Note_on_c, 0, 65, 56
2, 51113, Note_on_c, 0, 74, 59
2, 51113, Note_on_c, 0, 71, 56
2, 51114, Note_on_c, 0, 55, 56
2, 51147, Control_c, 0, 64, 0
2, 51158, Note_off_c, 0, 71, 64
2, 51158, Note_off_c, 0, 74, 64
2, 51160, Note_off_c, 0, 65, 64
2, 51161, Note_off_c, 0, 55, 64
2, 51164, Note_on_c, 0, 79, 55
2, 51166, Note_on_c, 0, 64, 44
2, 51166, Note_on_c, 0, 60, 56
2, 51167, Note_on_c, 0, 70, 70
2, 51171, Control_c, 0, 64, 0
2, 51176, Control_c, 0, 64, 127
2, 51200, Control_c, 0, 64, 127
2, 51299, Note_off_c, 0, 60, 64
2, 51314, Note_off_c, 0, 64, 64
2, 51325, Note_off_c, 0, 70, 64
2, 51346, Note_off_c, 0, 79, 64
2, 51379, Control_c, 0, 64, 0
2, 51384, Note_on_c, 0, 69, 60
2, 51385, Note_on_c, 0, 72, 61
2, 51386, Note_on_c, 0, 63, 49
2, 51386, Note_on_c, 0, 53, 55
2, 51399, Control_c, 0, 64, 127
2, 51403, Control_c, 0, 64, 0
2, 51423, Control_c, 0, 64, 127
2, 51529, Note_off_c, 0, 53, 64
2, 51554, Note_off_c, 0, 63, 64
2, 51556, Note_off_c, 0, 69, 64
2, 51569, Note_off_c, 0, 72, 64
2, 51639, Control_c, 0, 64, 0
2, 51640, Note_on_c, 0, 68, 54
2, 51643, Note_on_c, 0, 77, 79
2, 51645, Note_on_c, 0, 74, 74
2, 51645, Note_on_c, 0, 46, 63
2, 51650, Note_on_c, 0, 34, 66
2, 51663, Control_c, 0, 64, 0
2, 51681, Control_c, 0, 64, 127
2, 51705, Control_c, 0, 64, 127
2, 51769, Note_off_c, 0, 68, 64
2, 51836, Note_off_c, 0, 74, 64
2, 51855, Note_on_c, 0, 68, 59
2, 51860, Note_on_c, 0, 65, 2
2, 51868, Note_on_c, 0, 58, 36
2, 51885, Note_off_c, 0, 46, 64
2, 51890, Note_off_c, 0, 34, 64
2, 51920, Note_off_c, 0, 58, 64
2, 51920, Note_off_c, 0, 65, 64
2, 51921, Note_off_c, 0, 68, 64
2, 51960, Note_on_c, 0, 79, 71
2, 51974, Note_off_c, 0, 77, 64
2, 52013, Note_off_c, 0, 79, 64
2, 52040, Note_on_c, 0, 77, 54
2, 52064, Note_on_c, 0, 79, 73
2, 52067, Note_off_c, 0, 77, 64
2, 52079, Control_c, 0, 64, 0
2, 52096, Control_c, 0, 64, 127
2, 52100, Note_on_c, 0, 58, 51
2, 52103, Note_on_c, 0, 68, 64
2, 52103, Control_c, 0, 64, 0
2, 52104, Note_on_c, 0, 74, 63
2, 52104, Note_on_c, 0, 65, 37
2, 52110, Note_on_c, 0, 77, 67
2, 52111, Note_off_c, 0, 79, 64
2, 52120, Control_c, 0, 64, 127
2, 52140, Note_off_c, 0, 74, 64
2, 52149, Note_off_c, 0, 65, 64
2, 52153, Note_off_c, 0, 77, 64
2, 52169, Note_off_c, 0, 58, 64
2, 52193, Note_off_c, 0, 68, 64
2, 52220, Note_on_c, 0, 73, 63
2, 52226, Note_on_c, 0, 76, 71
2, 52298, Note_off_c, 0, 76, 64
2, 52306, Note_off_c, 0, 73, 64
2, 52326, Note_on_c, 0, 74, 63
2, 52329, Control_c, 0, 64, 0
2, 52332, Note_on_c, 0, 77, 66
2, 52332, Note_on_c, 0, 68, 72
2, 52336, Note_on_c, 0, 58, 72
2, 52340, Note_on_c, 0, 46, 72
2, 52349, Control_c, 0, 64, 127
2, 52353, Control_c, 0, 64, 0
2, 52373, Control_c, 0, 64, 127
2, 52414, Note_off_c, 0, 46, 64
2, 52418, Note_off_c, 0, 58, 64
2, 52442, Note_off_c, 0, 68, 64
2, 52454, Note_off_c, 0, 77, 64
2, 52459, Note_off_c, 0, 74, 64
2, 52481, Note_on_c, 0, 70, 79
2, 52510, Note_off_c, 0, 70, 64
2, 52536, Note_on_c, 0, 70, 80
2, 52537, Note_on_c, 0, 66, 82
2, 52540, Control_c, 0, 64, 0
2, 52542, Note_on_c, 0, 75, 76
2, 52545, Note_on_c, 0, 58, 59
2, 52547, Note_on_c, 0, 51, 63
2, 52564, Control_c, 0, 64, 0
2, 52581, Control_c, 0, 64, 127
2, 52605, Control_c, 0, 64, 127
2, 52629, Note_off_c, 0, 51, 64
2, 52641, Note_off_c, 0, 58, 64
2, 52643, Note_off_c, 0, 75, 64
2, 52647, Note_off_c, 0, 70, 64
2, 52676, Note_off_c, 0, 66, 64
2, 52752, Control_c, 0, 64, 0
2, 52755, Note_on_c, 0, 70, 67
2, 52758, Note_on_c, 0, 65, 67
2, 52764, Note_on_c, 0, 74, 74
2, 52764, Note_on_c, 0, 58, 63
2, 52764, Note_on_c, 0, 53, 63
2, 52776, Control_c, 0, 64, 0
2, 52790, Control_c, 0, 64, 127
2, 52814, Control_c, 0, 64, 127
2, 52817, Note_off_c, 0, 65, 64
2, 52844, Note_off_c, 0, 53, 64
2, 52851, Note_off_c, 0, 58, 64
2, 52853, Note_off_c, 0, 70, 64
2, 52870, Note_off_c, 0, 74, 64
2, 52967, Control_c, 0, 64, 0
2, 52972, Note_on_c, 0, 63, 72
2, 52975, Note_on_c, 0, 70, 70
2, 52980, Note_on_c, 0, 72, 72
2, 52982, Note_on_c, 0, 58, 61
2, 52982, Note_on_c, 0, 54, 66
2, 52991, Control_c, 0, 64, 0
2, 53016, Control_c, 0, 64, 127
2, 53040, Control_c, 0, 64, 127
2, 53079, Note_off_c, 0, 63, 64
2, 53161, Control_c, 0, 64, 0
2, 53185, Control_c, 0, 64, 0
2, 53190, Control_c, 0, 64, 127
2, 53194, Note_on_c, 0, 66, 79
2, 53194, Note_on_c, 0, 51, 58
2, 53213, Note_off_c, 0, 54, 64
2, 53214, Control_c, 0, 64, 127
2, 53230, Note_off_c, 0, 70, 64
2, 53292, Note_off_c, 0, 72, 64
2, 53292, Note_on_c, 0, 75, 66
2, 53342, Note_off_c, 0, 66, 64
2, 53350, Note_off_c, 0, 75, 64
2, 53366, Note_off_c, 0, 51, 64
2, 53377, Note_off_c, 0, 58, 64
2, 53388, Control_c, 0, 64, 0
2, 53395, Note_on_c, 0, 53, 66
2, 53401, Control_c, 0, 64, 127
2, 53402, Note_on_c, 0, 69, 70
2, 53403, Note_on_c, 0, 65, 66
2, 53406, Note_on_c, 0, 74, 72
2, 53412, Control_c, 0, 64, 0
2, 53425, Control_c, 0, 64, 127
2, 53445, Note_off_c, 0, 65, 64
2, 53452, Note_off_c, 0, 69, 64
2, 53468, Note_off_c, 0, 53, 64
2, 53472, Note_off_c, 0, 74, 64
2, 53501, Note_on_c, 0, 72, 66
2, 53504, Note_on_c, 0, 63, 82
2, 53547, Note_off_c, 0, 63, 64
2, 53551, Note_off_c, 0, 72, 64
2, 53598, Control_c, 0, 64, 0
2, 53600, Note_on_c, 0, 74, 74
2, 53602, Note_on_c, 0, 65, 82
2, 53610, Note_on_c, 0, 46, 61
2, 53613, Note_on_c, 0, 34, 63
2, 53622, Control_c, 0, 64, 0
2, 53625, Control_c, 0, 64, 127
2, 53649, Control_c, 0, 64, 127
2, 53656, Note_off_c, 0, 65, 64
2, 53692, Note_off_c, 0, 74, 64
2, 53740, Note_off_c, 0, 46, 64
2, 53772, Control_c, 0, 64, 0
2, 53776, Note_on_c, 0, 65, 72
2, 53796, Control_c, 0, 64, 0
2, 53812, Control_c, 0, 64, 127
2, 53820, Note_off_c, 0, 65, 64
2, 53828, Note_on_c, 0, 70, 76
2, 53828, Note_on_c, 0, 65, 72
2, 53828, Note_on_c, 0, 62, 72
2, 53832, Note_on_c, 0, 58, 47
2, 53836, Note_on_c, 0, 53, 41
2, 53836, Control_c, 0, 64, 127
2, 53840, Note_on_c, 0, 46, 41
2, 53889, Note_off_c, 0, 34, 64
2, 53979, Note_off_c, 0, 62, 64
2, 53994, Control_c, 0, 64, 0
2, 54007, Note_off_c, 0, 65, 64
2, 54016, Note_off_c, 0, 58, 64
2, 54018, Control_c, 0, 64, 0
2, 54020, Note_off_c, 0, 53, 64
2, 54020, Control_c, 0, 64, 127
2, 54024, Note_off_c, 0, 46, 64
2, 54044, Note_on_c, 0, 74, 74
2, 54044, Note_on_c, 0, 65, 72
2, 54044, Note_on_c, 0, 62, 72
2, 54044, Control_c, 0, 64, 127
2, 54048, Note_on_c, 0, 58, 29
2, 54048, Note_on_c, 0, 53, 32
2, 54048, Note_on_c, 0, 46, 33
2, 54052, Note_off_c, 0, 70, 64
2, 54180, Control_c, 0, 64, 127
2, 54212, Note_off_c, 0, 62, 64
2, 54226, Control_c, 0, 64, 0
2, 54232, Note_off_c, 0, 58, 64
2, 54250, Note_off_c, 0, 65, 64
2, 54282, Control_c, 0, 64, 127
2, 54284, Note_on_c, 0, 77, 67
2, 54294, Note_on_c, 0, 72, 67
2, 54294, Note_on_c, 0, 62, 66
2, 54296, Note_off_c, 0, 46, 64
2, 54296, Note_off_c, 0, 53, 64
2, 54300, Note_on_c, 0, 65, 52
2, 54300, Note_on_c, 0, 56, 53
2, 54310, Control_c, 0, 64, 0
2, 54312, Note_off_c, 0, 74, 64
2, 54366, Control_c, 0, 64, 127
2, 54387, Note_off_c, 0, 56, 64
2, 54393, Note_off_c, 0, 72, 64
2, 54431, Note_off_c, 0, 65, 64
2, 54431, Note_off_c, 0, 62, 64
2, 54505, Note_on_c, 0, 72, 68
2, 54510, Note_on_c, 0, 62, 56
2, 54514, Note_on_c, 0, 65, 52
2, 54517, Note_on_c, 0, 56, 43
2, 54528, Note_off_c, 0, 77, 64
2, 54562, Note_off_c, 0, 56, 64
2, 54566, Note_off_c, 0, 62, 64
2, 54569, Note_off_c, 0, 65, 64
2, 54573, Note_off_c, 0, 72, 64
2, 54605, Note_on_c, 0, 79, 70
2, 54652, Note_on_c, 0, 77, 64
2, 54653, Control_c, 0, 64, 0
2, 54667, Note_off_c, 0, 79, 64
2, 54675, Control_c, 0, 64, 127
2, 54684, Note_on_c, 0, 79, 51
2, 54691, Note_off_c, 0, 77, 64
2, 54724, Note_on_c, 0, 65, 60
2, 54726, Note_on_c, 0, 56, 51
2, 54728, Note_on_c, 0, 62, 59
2, 54732, Note_on_c, 0, 77, 74
2, 54732, Note_on_c, 0, 72, 64
2, 54737, Control_c, 0, 64, 0
2, 54746, Note_off_c, 0, 79, 64
2, 54759, Control_c, 0, 64, 127
2, 54781, Note_off_c, 0, 77, 64
2, 54794, Note_off_c, 0, 56, 64
2, 54795, Note_off_c, 0, 62, 64
2, 54802, Note_off_c, 0, 65, 64
2, 54837, Note_on_c, 0, 76, 74
2, 54872, Note_off_c, 0, 72, 64
2, 54876, Control_c, 0, 64, 0
2, 54878, Note_off_c, 0, 76, 64
2, 54896, Control_c, 0, 64, 127
2, 54937, Note_on_c, 0, 77, 72
2, 54937, Note_on_c, 0, 71, 63
2, 54942, Note_on_c, 0, 62, 63
2, 54945, Note_on_c, 0, 55, 52
2, 54960, Control_c, 0, 64, 0
2, 54980, Control_c, 0, 64, 127
2, 54986, Note_off_c, 0, 55, 64
2, 54998, Note_off_c, 0, 62, 64
2, 55005, Note_off_c, 0, 77, 64
2, 55009, Note_off_c, 0, 71, 64
2, 55061, Control_c, 0, 64, 0
2, 55076, Note_on_c, 0, 71, 74
2, 55076, Note_on_c, 0, 62, 63
2, 55083, Note_on_c, 0, 55, 63
2, 55090, Control_c, 0, 64, 127
2, 55104, Note_off_c, 0, 71, 64
2, 55128, Note_on_c, 0, 75, 76
2, 55129, Note_on_c, 0, 71, 72
2, 55133, Note_on_c, 0, 67, 63
2, 55145, Note_off_c, 0, 62, 64
2, 55145, Control_c, 0, 64, 0
2, 55174, Control_c, 0, 64, 127
2, 55217, Note_off_c, 0, 67, 64
2, 55224, Note_off_c, 0, 75, 64
2, 55225, Note_off_c, 0, 71, 64
2, 55247, Note_off_c, 0, 55, 64
2, 55277, Control_c, 0, 64, 0
2, 55306, Control_c, 0, 64, 127
2, 55342, Note_on_c, 0, 74, 72
2, 55348, Note_on_c, 0, 71, 70
2, 55348, Note_on_c, 0, 65, 61
2, 55355, Note_on_c, 0, 55, 59
2, 55361, Control_c, 0, 64, 0
2, 55390, Control_c, 0, 64, 127
2, 55395, Note_off_c, 0, 74, 64
2, 55408, Note_off_c, 0, 55, 64
2, 55452, Note_off_c, 0, 65, 64
2, 55483, Control_c, 0, 64, 0
2, 55492, Note_off_c, 0, 71, 64
2, 55512, Control_c, 0, 64, 127
2, 55572, Note_on_c, 0, 64, 63
2, 55576, Note_on_c, 0, 60, 49
2, 55580, Note_on_c, 0, 72, 70
2, 55580, Note_on_c, 0, 70, 66
2, 55627, Control_c, 0, 64, 0
2, 55653, Note_off_c, 0, 64, 64
2, 55656, Control_c, 0, 64, 127
2, 55664, Note_off_c, 0, 60, 64
2, 55696, Control_c, 0, 64, 0
2, 55726, Control_c, 0, 64, 127
2, 55800, Note_off_c, 0, 70, 64
2, 55801, Note_off_c, 0, 72, 64
2, 55818, Note_on_c, 0, 53, 52
2, 55823, Note_on_c, 0, 69, 63
2, 55837, Note_on_c, 0, 63, 43
2, 55840, Control_c, 0, 64, 0
2, 55870, Control_c, 0, 64, 127
2, 55897, Note_off_c, 0, 53, 64
2, 55922, Note_off_c, 0, 63, 64
2, 55922, Note_on_c, 0, 67, 54
2, 55925, Note_on_c, 0, 75, 70
2, 55988, Note_off_c, 0, 75, 64
2, 56020, Note_on_c, 0, 74, 59
2, 56024, Note_on_c, 0, 65, 43
2, 56034, Note_off_c, 0, 67, 64
2, 56116, Note_off_c, 0, 74, 64
2, 56118, Note_on_c, 0, 72, 66
2, 56119, Note_on_c, 0, 63, 66
2, 56124, Note_off_c, 0, 65, 64
2, 56147, Note_off_c, 0, 72, 64
2, 56149, Note_off_c, 0, 69, 64
2, 56157, Note_off_c, 0, 63, 64
2, 56213, Note_on_c, 0, 58, 76
2, 56214, Note_on_c, 0, 70, 82
2, 56217, Note_on_c, 0, 74, 79
2, 56221, Note_on_c, 0, 62, 66
2, 56256, Control_c, 0, 64, 0
2, 56268, Note_off_c, 0, 58, 64
2, 56270, Note_off_c, 0, 70, 64
2, 56285, Control_c, 0, 64, 127
2, 56291, Note_off_c, 0, 62, 64
2, 56321, Note_off_c, 0, 74, 64
2, 56358, Note_on_c, 0, 72, 60
2, 56360, Note_on_c, 0, 60, 64
2, 56363, Note_on_c, 0, 65, 66
2, 56364, Note_on_c, 0, 53, 79
2, 56390, Note_off_c, 0, 60, 64
2, 56391, Note_off_c, 0, 53, 64
2, 56400, Control_c, 0, 64, 0
2, 56404, Note_on_c, 0, 58, 72
2, 56406, Note_off_c, 0, 65, 64
2, 56412, Note_on_c, 0, 70, 79
2, 56412, Note_on_c, 0, 62, 74
2, 56412, Note_on_c, 0, 46, 91
2, 56419, Note_off_c, 0, 72, 64
2, 56429, Control_c, 0, 64, 127
2, 56486, Control_c, 0, 64, 0
2, 56500, Control_c, 0, 64, 127
2, 56569, Note_off_c, 0, 58, 64
2, 56592, Note_off_c, 0, 46, 64
2, 56592, Note_off_c, 0, 62, 64
2, 56592, Note_off_c, 0, 70, 64
2, 56630, Control_c, 0, 64, 0
2, 56632, Note_on_c, 0, 46, 99
2, 56632, Note_on_c, 0, 34, 66
2, 56635, Note_on_c, 0, 82, 86
2, 56636, Note_on_c, 0, 70, 99
2, 56644, Control_c, 0, 64, 127
2, 56761, Control_c, 0, 64, 0
2, 56789, Note_off_c, 0, 34, 64
2, 56789, Note_off_c, 0, 46, 64
2, 56809, Control_c, 0, 64, 127
2, 56856, Note_on_c, 0, 36, 63
2, 56864, Note_on_c, 0, 60, 67
2, 56868, Note_on_c, 0, 48, 88
2, 56875, Note_off_c, 0, 82, 64
2, 56876, Note_off_c, 0, 70, 64
2, 56905, Control_c, 0, 64, 0
2, 56953, Control_c, 0, 64, 127
2, 57011, Control_c, 0, 64, 0
2, 57039, Control_c, 0, 64, 127
2, 57081, Note_off_c, 0, 60, 64
2, 57121, Note_on_c, 0, 82, 73
2, 57124, Note_on_c, 0, 70, 59
2, 57128, Note_on_c, 0, 76, 59
2, 57128, Note_on_c, 0, 60, 52
2, 57133, Note_on_c, 0, 67, 50
2, 57155, Control_c, 0, 64, 0
2, 57183, Control_c, 0, 64, 127
2, 57283, Note_off_c, 0, 82, 64
2, 57317, Note_off_c, 0, 76, 64
2, 57327, Note_off_c, 0, 70, 64
2, 57356, Note_off_c, 0, 67, 64
2, 57367, Note_off_c, 0, 60, 64
2, 57428, Note_on_c, 0, 81, 59
2, 57428, Note_on_c, 0, 70, 45
2, 57435, Note_on_c, 0, 76, 46
2, 57435, Note_on_c, 0, 60, 44
2, 57440, Note_on_c, 0, 67, 45
2, 57467, Note_off_c, 0, 70, 64
2, 57473, Note_off_c, 0, 60, 64
2, 57477, Note_off_c, 0, 76, 64
2, 57480, Note_off_c, 0, 67, 64
2, 57497, Note_off_c, 0, 81, 64
2, 57519, Note_on_c, 0, 78, 52
2, 57522, Note_on_c, 0, 70, 60
2, 57526, Note_on_c, 0, 76, 50
2, 57526, Note_on_c, 0, 67, 51
2, 57526, Note_on_c, 0, 60, 52
2, 57549, Control_c, 0, 64, 0
2, 57561, Note_off_c, 0, 76, 64
2, 57576, Note_off_c, 0, 70, 64
2, 57579, Control_c, 0, 64, 127
2, 57580, Note_off_c, 0, 60, 64
2, 57580, Note_off_c, 0, 78, 64
2, 57585, Note_off_c, 0, 67, 64
2, 57646, Note_on_c, 0, 70, 51
2, 57651, Note_on_c, 0, 79, 54
2, 57651, Note_on_c, 0, 76, 44
2, 57657, Note_on_c, 0, 67, 45
2, 57657, Note_on_c, 0, 60, 52
2, 57674, Note_off_c, 0, 70, 64
2, 57682, Note_off_c, 0, 76, 64
2, 57683, Note_off_c, 0, 79, 64
2, 57684, Note_off_c, 0, 60, 64
2, 57693, Control_c, 0, 64, 0
2, 57697, Note_on_c, 0, 81, 59
2, 57702, Note_on_c, 0, 60, 48
2, 57706, Note_on_c, 0, 76, 41
2, 57706, Note_on_c, 0, 70, 53
2, 57723, Control_c, 0, 64, 127
2, 57756, Note_off_c, 0, 76, 64
2, 57758, Note_off_c, 0, 67, 64
2, 57764, Note_off_c, 0, 70, 64
2, 57768, Note_off_c, 0, 60, 64
2, 57869, Note_off_c, 0, 81, 64
2, 57909, Note_on_c, 0, 79, 59
2, 57909, Note_on_c, 0, 70, 53
2, 57913, Note_on_c, 0, 60, 48
2, 57916, Note_on_c, 0, 67, 40
2, 57981, Control_c, 0, 64, 0
2, 58001, Control_c, 0, 64, 127
2, 58060, Note_off_c, 0, 60, 64
2, 58071, Note_off_c, 0, 36, 64
2, 58072, Note_off_c, 0, 67, 64
2, 58079, Note_off_c, 0, 70, 64
2, 58083, Note_off_c, 0, 48, 64
2, 58084, Note_off_c, 0, 79, 64
2, 58114, Note_on_c, 0, 60, 68
2, 58119, Note_on_c, 0, 36, 63
2, 58121, Note_on_c, 0, 48, 64
2, 58125, Control_c, 0, 64, 0
2, 58145, Control_c, 0, 64, 127
2, 58235, Control_c, 0, 64, 0
2, 58263, Control_c, 0, 64, 127
2, 58348, Note_on_c, 0, 81, 56
2, 58348, Note_on_c, 0, 70, 59
2, 58354, Note_off_c, 0, 60, 64
2, 58356, Note_on_c, 0, 76, 46
2, 58356, Note_on_c, 0, 67, 56
2, 58358, Note_on_c, 0, 60, 49
2, 58379, Control_c, 0, 64, 0
2, 58407, Control_c, 0, 64, 127
2, 58466, Note_off_c, 0, 81, 64
2, 58488, Note_off_c, 0, 76, 64
2, 58494, Note_off_c, 0, 60, 64
2, 58494, Note_off_c, 0, 70, 64
2, 58514, Note_off_c, 0, 67, 64
2, 58590, Control_c, 0, 64, 0
2, 58620, Control_c, 0, 64, 127
2, 58635, Note_on_c, 0, 79, 55
2, 58641, Note_on_c, 0, 70, 53
2, 58645, Note_on_c, 0, 67, 49
2, 58648, Note_on_c, 0, 60, 52
2, 58681, Note_off_c, 0, 70, 64
2, 58682, Note_off_c, 0, 79, 64
2, 58687, Note_off_c, 0, 67, 64
2, 58701, Note_off_c, 0, 60, 64
2, 58733, Note_on_c, 0, 69, 53
2, 58733, Note_on_c, 0, 60, 51
2, 58734, Note_off_c, 0, 36, 64
2, 58734, Note_on_c, 0, 65, 51
2, 58734, Control_c, 0, 64, 0
2, 58736, Note_off_c, 0, 48, 64
2, 58744, Note_on_c, 0, 77, 58
2, 58744, Note_on_c, 0, 53, 58
2, 58764, Control_c, 0, 64, 127
2, 58788, Control_c, 0, 64, 0
2, 58827, Note_off_c, 0, 60, 64
2, 58828, Control_c, 0, 64, 127
2, 58845, Note_off_c, 0, 53, 64
2, 58846, Note_off_c, 0, 65, 64
2, 58860, Note_off_c, 0, 77, 64
2, 58875, Note_on_c, 0, 62, 52
2, 58876, Note_off_c, 0, 69, 64
2, 58877, Note_on_c, 0, 74, 56
2, 58877, Note_on_c, 0, 70, 60
2, 58884, Note_on_c, 0, 65, 45
2, 58913, Note_off_c, 0, 70, 64
2, 58914, Note_off_c, 0, 62, 64
2, 58923, Note_on_c, 0, 69, 63
2, 58927, Note_on_c, 0, 72, 63
2, 58927, Note_on_c, 0, 60, 59
2, 58932, Control_c, 0, 64, 0
2, 58943, Note_off_c, 0, 74, 64
2, 58972, Control_c, 0, 64, 127
2, 58983, Note_off_c, 0, 65, 64
2, 58989, Control_c, 0, 64, 0
2, 59011, Control_c, 0, 64, 127
2, 59055, Note_off_c, 0, 69, 64
2, 59079, Note_off_c, 0, 72, 64
2, 59084, Note_off_c, 0, 60, 64
2, 59133, Control_c, 0, 64, 0
2, 59136, Note_on_c, 0, 77, 60
2, 59138, Note_on_c, 0, 69, 56
2, 59139, Note_on_c, 0, 65, 55
2, 59145, Note_on_c, 0, 60, 54
2, 59145, Note_on_c, 0, 53, 56
2, 59155, Control_c, 0, 64, 127
2, 59217, Control_c, 0, 64, 0
2, 59251, Control_c, 0, 64, 127
2, 59298, Note_off_c, 0, 60, 64
2, 59309, Note_off_c, 0, 65, 64
2, 59328, Note_off_c, 0, 69, 64
2, 59343, Note_off_c, 0, 53, 64
2, 59356, Note_on_c, 0, 60, 59
2, 59361, Control_c, 0, 64, 0
2, 59368, Note_on_c, 0, 48, 64
2, 59368, Note_on_c, 0, 36, 60
2, 59383, Note_off_c, 0, 77, 64
2, 59395, Control_c, 0, 64, 127
2, 59499, Control_c, 0, 64, 0
2, 59529, Control_c, 0, 64, 127
2, 59596, Note_off_c, 0, 60, 64
2, 59617, Note_on_c, 0, 70, 54
2, 59618, Note_on_c, 0, 82, 73
2, 59620, Note_on_c, 0, 67, 55
2, 59626, Note_on_c, 0, 76, 56
2, 59626, Note_on_c, 0, 60, 59
2, 59643, Control_c, 0, 64, 0
2, 59673, Control_c, 0, 64, 127
2, 59774, Note_off_c, 0, 82, 64
2, 59784, Note_off_c, 0, 76, 64
2, 59785, Note_off_c, 0, 70, 64
2, 59821, Note_off_c, 0, 60, 64
2, 59826, Note_off_c, 0, 67, 64
2, 59882, Control_c, 0, 64, 0
2, 59918, Control_c, 0, 64, 127
2, 59927, Note_on_c, 0, 81, 55
2, 59927, Note_on_c, 0, 70, 47
2, 59931, Note_on_c, 0, 76, 47
2, 59931, Note_on_c, 0, 60, 45
2, 59932, Note_on_c, 0, 67, 44
2, 59961, Note_off_c, 0, 70, 64
2, 59974, Note_off_c, 0, 76, 64
2, 59976, Note_off_c, 0, 60, 64
2, 59978, Note_off_c, 0, 67, 64
2, 59988, Note_off_c, 0, 81, 64
2, 60012, Note_on_c, 0, 78, 60
2, 60016, Note_on_c, 0, 60, 51
2, 60017, Note_on_c, 0, 70, 59
2, 60017, Note_on_c, 0, 67, 46
2, 60026, Control_c, 0, 64, 0
2, 60034, Note_on_c, 0, 76, 33
2, 60043, Control_c, 0, 64, 0
2, 60048, Note_off_c, 0, 76, 64
2, 60062, Control_c, 0, 64, 127
2, 60073, Note_off_c, 0, 70, 64
2, 60079, Note_off_c, 0, 78, 64
2, 60085, Control_c, 0, 64, 127
2, 60086, Note_off_c, 0, 67, 64
2, 60094, Note_off_c, 0, 60, 64
2, 60147, Note_on_c, 0, 76, 46
2, 60147, Note_on_c, 0, 70, 48
2, 60154, Note_on_c, 0, 79, 46
2, 60159, Note_on_c, 0, 67, 51
2, 60159, Note_on_c, 0, 60, 51
2, 60176, Note_off_c, 0, 70, 64
2, 60177, Note_off_c, 0, 79, 64
2, 60179, Note_off_c, 0, 76, 64
2, 60187, Control_c, 0, 64, 0
2, 60194, Note_off_c, 0, 67, 64
2, 60197, Note_on_c, 0, 81, 59
2, 60200, Note_on_c, 0, 70, 52
2, 60207, Note_on_c, 0, 76, 41
2, 60212, Note_on_c, 0, 67, 43
2, 60229, Control_c, 0, 64, 127
2, 60236, Note_off_c, 0, 76, 64
2, 60236, Control_c, 0, 64, 0
2, 60248, Note_off_c, 0, 70, 64
2, 60258, Note_off_c, 0, 67, 64
2, 60264, Note_off_c, 0, 60, 64
2, 60274, Control_c, 0, 64, 127
2, 60369, Note_off_c, 0, 81, 64
2, 60380, Control_c, 0, 64, 0
2, 60403, Note_on_c, 0, 70, 52
2, 60407, Note_on_c, 0, 60, 45
2, 60410, Note_on_c, 0, 79, 56
2, 60414, Note_on_c, 0, 67, 31
2, 60418, Control_c, 0, 64, 127
2, 60435, Note_off_c, 0, 70, 64
2, 60438, Note_off_c, 0, 79, 64
2, 60444, Note_off_c, 0, 60, 64
2, 60465, Note_off_c, 0, 67, 64
2, 60487, Control_c, 0, 64, 0
2, 60497, Control_c, 0, 64, 127
2, 60583, Note_off_c, 0, 36, 64
2, 60583, Note_off_c, 0, 48, 64
2, 60610, Note_on_c, 0, 69, 49
2, 60610, Note_on_c, 0, 65, 49
2, 60611, Note_on_c, 0, 84, 52
2, 60612, Note_on_c, 0, 75, 48
2, 60631, Control_c, 0, 64, 0
2, 60641, Control_c, 0, 64, 127
2, 60664, Control_c, 0, 64, 0
2, 60691, Control_c, 0, 64, 127
2, 60695, Note_off_c, 0, 75, 64
2, 60702, Note_off_c, 0, 84, 64
2, 60712, Note_off_c, 0, 69, 64
2, 60731, Note_off_c, 0, 65, 64
2, 60760, Note_on_c, 0, 77, 52
2, 60760, Note_on_c, 0, 74, 58
2, 60760, Note_on_c, 0, 68, 51
2, 60760, Note_on_c, 0, 58, 46
2, 60804, Note_on_c, 0, 82, 63
2, 60804, Note_on_c, 0, 63, 46
2, 60806, Note_on_c, 0, 73, 60
2, 60806, Note_on_c, 0, 67, 53
2, 60808, Control_c, 0, 64, 0
2, 60810, Note_off_c, 0, 58, 64
2, 60813, Note_off_c, 0, 77, 64
2, 60814, Note_off_c, 0, 74, 64
2, 60822, Note_off_c, 0, 68, 64
2, 60835, Control_c, 0, 64, 127
2, 60894, Control_c, 0, 64, 0
2, 60924, Control_c, 0, 64, 127
2, 60945, Note_off_c, 0, 63, 64
2, 60957, Note_off_c, 0, 67, 64
2, 60968, Note_off_c, 0, 82, 64
2, 60973, Note_off_c, 0, 73, 64
2, 61012, Note_on_c, 0, 72, 51
2, 61014, Note_on_c, 0, 66, 48
2, 61014, Note_on_c, 0, 56, 48
2, 61015, Note_on_c, 0, 75, 53
2, 61038, Control_c, 0, 64, 0
2, 61068, Control_c, 0, 64, 127
2, 61100, Control_c, 0, 64, 0
2, 61122, Control_c, 0, 64, 127
2, 61161, Note_off_c, 0, 66, 64
2, 61176, Note_off_c, 0, 56, 64
2, 61190, Note_off_c, 0, 72, 64
2, 61198, Note_off_c, 0, 75, 64
2, 61236, Note_on_c, 0, 65, 48
2, 61236, Note_on_c, 0, 62, 46
2, 61237, Note_on_c, 0, 80, 54
2, 61237, Note_on_c, 0, 72, 52
2, 61244, Control_c, 0, 64, 0
2, 61266, Control_c, 0, 64, 127
2, 61295, Control_c, 0, 64, 0
2, 61306, Note_off_c, 0, 65, 64
2, 61308, Note_off_c, 0, 62, 64
2, 61316, Note_off_c, 0, 72, 64
2, 61332, Control_c, 0, 64, 127
2, 61338, Note_off_c, 0, 80, 64
2, 61380, Note_on_c, 0, 71, 46
2, 61380, Note_on_c, 0, 65, 49
2, 61381, Note_on_c, 0, 55, 49
2, 61382, Note_on_c, 0, 74, 46
2, 61402, Note_off_c, 0, 71, 64
2, 61418, Note_off_c, 0, 55, 64
2, 61420, Note_off_c, 0, 74, 64
2, 61428, Note_on_c, 0, 79, 52
2, 61428, Note_on_c, 0, 70, 59
2, 61428, Note_on_c, 0, 64, 46
2, 61428, Note_on_c, 0, 60, 40
2, 61439, Control_c, 0, 64, 0
2, 61469, Note_off_c, 0, 65, 64
2, 61476, Control_c, 0, 64, 127
2, 61534, Control_c, 0, 64, 0
2, 61563, Control_c, 0, 64, 127
2, 61591, Note_off_c, 0, 64, 64
2, 61607, Note_off_c, 0, 70, 64
2, 61610, Note_off_c, 0, 79, 64
2, 61611, Note_off_c, 0, 60, 64
2, 61666, Note_on_c, 0, 72, 56
2, 61666, Note_on_c, 0, 69, 52
2, 61666, Note_on_c, 0, 63, 41
2, 61668, Note_on_c, 0, 53, 46
2, 61678, Control_c, 0, 64, 0
2, 61707, Control_c, 0, 64, 127
2, 61796, Control_c, 0, 64, 0
2, 61826, Control_c, 0, 64, 127
2, 61871, Note_off_c, 0, 53, 64
2, 61887, Note_off_c, 0, 63, 64
2, 61900, Note_off_c, 0, 69, 64
2, 61900, Note_off_c, 0, 72, 64
2, 61909, Note_on_c, 0, 68, 54
2, 61920, Note_on_c, 0, 77, 61
2, 61924, Note_on_c, 0, 46, 66
2, 61928, Note_on_c, 0, 74, 55
2, 61928, Note_on_c, 0, 58, 59
2, 61940, Control_c, 0, 64, 0
2, 61970, Control_c, 0, 64, 127
2, 61986, Note_off_c, 0, 46, 64
2, 61997, Note_off_c, 0, 58, 64
2, 62052, Note_off_c, 0, 74, 64
2, 62064, Note_off_c, 0, 68, 64
2, 62069, Note_off_c, 0, 77, 64
2, 62124, Note_on_c, 0, 65, 56
2, 62130, Note_on_c, 0, 58, 56
2, 62136, Note_on_c, 0, 68, 56
2, 62198, Note_off_c, 0, 65, 64
2, 62202, Note_off_c, 0, 58, 64
2, 62210, Note_off_c, 0, 68, 64
2, 62229, Control_c, 0, 64, 0
2, 62241, Note_on_c, 0, 79, 70
2, 62248, Control_c, 0, 64, 127
2, 62303, Note_off_c, 0, 79, 64
2, 62318, Note_on_c, 0, 77, 59
2, 62354, Note_on_c, 0, 79, 72
2, 62367, Note_off_c, 0, 77, 64
2, 62370, Note_on_c, 0, 58, 60
2, 62373, Control_c, 0, 64, 0
2, 62379, Note_on_c, 0, 65, 47
2, 62380, Note_on_c, 0, 77, 54
2, 62380, Note_on_c, 0, 74, 64
2, 62380, Note_on_c, 0, 68, 59
2, 62392, Control_c, 0, 64, 127
2, 62399, Note_off_c, 0, 79, 64
2, 62403, Note_off_c, 0, 74, 64
2, 62415, Note_off_c, 0, 65, 64
2, 62431, Note_off_c, 0, 58, 64
2, 62431, Note_off_c, 0, 77, 64
2, 62470, Note_off_c, 0, 68, 64
2, 62474, Control_c, 0, 64, 0
2, 62491, Note_on_c, 0, 76, 72
2, 62500, Control_c, 0, 64, 127
2, 62500, Note_on_c, 0, 73, 28
2, 62546, Note_off_c, 0, 73, 64
2, 62552, Note_off_c, 0, 76, 64
2, 62588, Note_on_c, 0, 77, 70
2, 62595, Note_on_c, 0, 74, 64
2, 62598, Note_on_c, 0, 68, 67
2, 62599, Note_on_c, 0, 58, 66
2, 62599, Note_on_c, 0, 46, 67
2, 62618, Control_c, 0, 64, 0
2, 62644, Control_c, 0, 64, 127
2, 62651, Note_off_c, 0, 74, 64
2, 62654, Note_off_c, 0, 46, 64
2, 62655, Note_off_c, 0, 58, 64
2, 62655, Note_off_c, 0, 77, 64
2, 62686, Control_c, 0, 64, 0
2, 62707, Note_off_c, 0, 68, 64
2, 62724, Control_c, 0, 64, 127
2, 62748, Note_on_c, 0, 70, 84
2, 62773, Note_off_c, 0, 70, 64
2, 62809, Note_on_c, 0, 75, 71
2, 62809, Note_on_c, 0, 70, 72
2, 62809, Note_on_c, 0, 66, 72
2, 62809, Note_on_c, 0, 58, 57
2, 62809, Note_on_c, 0, 51, 59
2, 62830, Control_c, 0, 64, 0
2, 62868, Control_c, 0, 64, 127
2, 62893, Control_c, 0, 64, 0
2, 62899, Note_off_c, 0, 51, 64
2, 62932, Control_c, 0, 64, 127
2, 62962, Note_off_c, 0, 70, 64
2, 62968, Note_off_c, 0, 58, 64
2, 62971, Note_off_c, 0, 75, 64
2, 63000, Note_off_c, 0, 66, 64
2, 63032, Note_on_c, 0, 74, 61
2, 63032, Note_on_c, 0, 53, 56
2, 63036, Note_on_c, 0, 70, 59
2, 63036, Note_on_c, 0, 65, 63
2, 63036, Note_on_c, 0, 58, 47
2, 63097, Control_c, 0, 64, 0
2, 63112, Control_c, 0, 64, 0
2, 63135, Note_off_c, 0, 65, 64
2, 63136, Control_c, 0, 64, 127
2, 63169, Control_c, 0, 64, 127
2, 63185, Note_off_c, 0, 58, 64
2, 63202, Note_off_c, 0, 70, 64
2, 63248, Note_off_c, 0, 53, 64
2, 63256, Note_on_c, 0, 58, 56
2, 63260, Note_on_c, 0, 72, 60
2, 63260, Note_on_c, 0, 63, 64
2, 63260, Note_on_c, 0, 54, 59
2, 63264, Note_on_c, 0, 70, 54
2, 63284, Note_off_c, 0, 74, 64
2, 63299, Control_c, 0, 64, 0
2, 63316, Control_c, 0, 64, 0
2, 63352, Control_c, 0, 64, 127
2, 63373, Control_c, 0, 64, 127
2, 63377, Note_off_c, 0, 63, 64
2, 63492, Note_off_c, 0, 54, 64
2, 63492, Note_on_c, 0, 66, 80
2, 63492, Note_on_c, 0, 51, 66
2, 63503, Control_c, 0, 64, 0
2, 63511, Note_off_c, 0, 70, 64
2, 63514, Control_c, 0, 64, 0
2, 63542, Control_c, 0, 64, 127
2, 63556, Control_c, 0, 64, 127
2, 63558, Note_off_c, 0, 72, 64
2, 63595, Note_on_c, 0, 75, 66
2, 63605, Note_off_c, 0, 58, 64
2, 63627, Note_off_c, 0, 66, 64
2, 63654, Note_off_c, 0, 75, 64
2, 63682, Note_off_c, 0, 51, 64
2, 63701, Control_c, 0, 64, 0
2, 63706, Note_on_c, 0, 65, 64
2, 63708, Note_on_c, 0, 74, 71
2, 63708, Note_on_c, 0, 69, 67
2, 63712, Note_on_c, 0, 53, 61
2, 63718, Control_c, 0, 64, 0
2, 63746, Control_c, 0, 64, 127
2, 63748, Control_c, 0, 64, 127
2, 63751, Note_off_c, 0, 65, 64
2, 63761, Note_off_c, 0, 69, 64
2, 63774, Note_off_c, 0, 74, 64
2, 63807, Note_off_c, 0, 53, 64
2, 63807, Note_on_c, 0, 63, 79
2, 63808, Note_on_c, 0, 72, 60
2, 63848, Note_off_c, 0, 72, 64
2, 63850, Note_off_c, 0, 63, 64
2, 63905, Control_c, 0, 64, 0
2, 63936, Note_on_c, 0, 65, 82
2, 63936, Note_on_c, 0, 46, 68
2, 63936, Note_on_c, 0, 34, 68
2, 63940, Note_on_c, 0, 74, 72
2, 63948, Control_c, 0, 64, 127
2, 63965, Control_c, 0, 64, 0
2, 63983, Note_off_c, 0, 65, 64
2, 64012, Control_c, 0, 64, 127
2, 64032, Note_off_c, 0, 74, 64
2, 64116, Note_on_c, 0, 65, 75
2, 64121, Note_off_c, 0, 46, 64
2, 64160, Note_off_c, 0, 65, 64
2, 64169, Control_c, 0, 64, 0
2, 64176, Note_off_c, 0, 34, 64
2, 64176, Note_on_c, 0, 70, 79
2, 64176, Note_on_c, 0, 58, 68
2, 64178, Note_on_c, 0, 65, 55
2, 64180, Note_on_c, 0, 62, 74
2, 64180, Note_on_c, 0, 53, 31
2, 64180, Note_on_c, 0, 46, 59
2, 64212, Control_c, 0, 64, 127
2, 64260, Note_off_c, 0, 65, 64
2, 64268, Note_off_c, 0, 53, 64
2, 64303, Note_off_c, 0, 58, 64
2, 64315, Note_off_c, 0, 70, 64
2, 64316, Note_off_c, 0, 46, 64
2, 64343, Note_off_c, 0, 62, 64
2, 64382, Control_c, 0, 64, 0
2, 64404, Control_c, 0, 64, 0
2, 64408, Note_on_c, 0, 53, 52
2, 64412, Note_on_c, 0, 65, 67
2, 64416, Note_on_c, 0, 74, 72
2, 64416, Note_on_c, 0, 62, 72
2, 64416, Note_on_c, 0, 58, 46
2, 64416, Note_on_c, 0, 46, 46
2, 64451, Control_c, 0, 64, 127
2, 64476, Note_off_c, 0, 62, 64
2, 64496, Note_off_c, 0, 46, 64
2, 64501, Note_off_c, 0, 53, 64
2, 64518, Note_off_c, 0, 58, 64
2, 64522, Note_off_c, 0, 74, 64
2, 64536, Note_off_c, 0, 65, 64
2, 64648, Note_on_c, 0, 77, 72
2, 64652, Note_on_c, 0, 72, 74
2, 64652, Note_on_c, 0, 56, 72
2, 64656, Note_on_c, 0, 65, 70
2, 64656, Note_on_c, 0, 62, 72
2, 64706, Control_c, 0, 64, 0
2, 64728, Control_c, 0, 64, 0
2, 64775, Control_c, 0, 64, 127
2, 64805, Control_c, 0, 64, 0
2, 64826, Control_c, 0, 64, 127
2, 64844, Note_off_c, 0, 56, 64
2, 64844, Note_off_c, 0, 72, 64
2, 64848, Note_off_c, 0, 62, 64
2, 64848, Note_off_c, 0, 65, 64
2, 64867, Note_off_c, 0, 77, 64
2, 64907, Note_on_c, 0, 72, 55
2, 64916, Note_on_c, 0, 62, 60
2, 64919, Note_on_c, 0, 65, 46
2, 64927, Note_on_c, 0, 56, 51
2, 64953, Note_off_c, 0, 72, 64
2, 64959, Note_off_c, 0, 56, 64
2, 64963, Note_off_c, 0, 62, 64
2, 64969, Note_off_c, 0, 65, 64
2, 65012, Note_on_c, 0, 79, 63
2, 65019, Control_c, 0, 64, 0
2, 65048, Control_c, 0, 64, 127
2, 65061, Note_off_c, 0, 79, 64
2, 65074, Note_on_c, 0, 77, 72
2, 65103, Note_on_c, 0, 79, 76
2, 65113, Note_off_c, 0, 77, 64
2, 65127, Note_on_c, 0, 62, 43
2, 65129, Control_c, 0, 64, 0
2, 65135, Note_on_c, 0, 72, 63
2, 65136, Note_on_c, 0, 65, 40
2, 65139, Note_on_c, 0, 77, 72
2, 65139, Note_on_c, 0, 56, 35
2, 65150, Control_c, 0, 64, 127
2, 65160, Note_off_c, 0, 79, 64
2, 65179, Note_off_c, 0, 77, 64
2, 65186, Note_off_c, 0, 62, 64
2, 65196, Note_off_c, 0, 56, 64
2, 65198, Control_c, 0, 64, 0
2, 65206, Note_off_c, 0, 65, 64
2, 65227, Note_on_c, 0, 76, 70
2, 65235, Control_c, 0, 64, 127
2, 65250, Note_off_c, 0, 72, 64
2, 65263, Note_off_c, 0, 76, 64
2, 65326, Note_on_c, 0, 71, 67
2, 65328, Note_on_c, 0, 77, 74
2, 65333, Note_on_c, 0, 62, 66
2, 65339, Note_on_c, 0, 55, 56
2, 65343, Control_c, 0, 64, 0
2, 65372, Control_c, 0, 64, 127
2, 65379, Note_off_c, 0, 71, 64
2, 65382, Note_off_c, 0, 55, 64
2, 65391, Note_off_c, 0, 62, 64
2, 65398, Note_off_c, 0, 77, 64
2, 65430, Control_c, 0, 64, 0
2, 65450, Control_c, 0, 64, 127
2, 65472, Note_on_c, 0, 71, 72
2, 65476, Note_on_c, 0, 62, 70
2, 65483, Note_on_c, 0, 55, 66
2, 65497, Note_off_c, 0, 71, 64
2, 65498, Note_off_c, 0, 62, 64
2, 65507, Note_off_c, 0, 55, 64
2, 65522, Control_c, 0, 64, 0
2, 65528, Note_on_c, 0, 75, 82
2, 65528, Note_on_c, 0, 71, 76
2, 65535, Note_on_c, 0, 67, 64
2, 65540, Note_on_c, 0, 55, 66
2, 65559, Control_c, 0, 64, 127
2, 65634, Note_off_c, 0, 71, 64
2, 65644, Note_off_c, 0, 67, 64
2, 65676, Note_off_c, 0, 55, 64
2, 65687, Control_c, 0, 64, 0
2, 65703, Note_off_c, 0, 75, 64
2, 65726, Control_c, 0, 64, 127
2, 65735, Note_on_c, 0, 65, 63
2, 65738, Note_on_c, 0, 74, 74
2, 65739, Note_on_c, 0, 71, 72
2, 65744, Note_on_c, 0, 55, 59
2, 65754, Control_c, 0, 64, 0
2, 65774, Control_c, 0, 64, 127
2, 65844, Note_off_c, 0, 65, 64
2, 65870, Note_off_c, 0, 71, 64
2, 65875, Note_off_c, 0, 74, 64
2, 65889, Note_off_c, 0, 55, 64
2, 65899, Control_c, 0, 64, 0
2, 65938, Control_c, 0, 64, 127
2, 65980, Note_on_c, 0, 60, 54
2, 65984, Note_on_c, 0, 72, 67
2, 65984, Note_on_c, 0, 70, 66
2, 65984, Note_on_c, 0, 64, 63
2, 66011, Control_c, 0, 64, 0
2, 66050, Control_c, 0, 64, 127
2, 66074, Control_c, 0, 64, 0
2, 66082, Note_off_c, 0, 64, 64
2, 66087, Note_off_c, 0, 60, 64
2, 66087, Control_c, 0, 64, 127
2, 66204, Note_off_c, 0, 70, 64
2, 66208, Note_on_c, 0, 53, 63
2, 66213, Note_on_c, 0, 69, 61
2, 66213, Note_on_c, 0, 63, 60
2, 66223, Control_c, 0, 64, 0
2, 66262, Control_c, 0, 64, 127
2, 66283, Note_off_c, 0, 53, 64
2, 66298, Note_off_c, 0, 63, 64
2, 66300, Note_on_c, 0, 67, 63
2, 66306, Note_on_c, 0, 75, 68
2, 66326, Note_off_c, 0, 72, 64
2, 66370, Note_off_c, 0, 75, 64
2, 66398, Control_c, 0, 64, 0
2, 66404, Note_on_c, 0, 74, 60
2, 66411, Control_c, 0, 64, 127
2, 66419, Note_on_c, 0, 65, 54
2, 66443, Note_off_c, 0, 67, 64
2, 66453, Control_c, 0, 64, 0
2, 66489, Control_c, 0, 64, 127
2, 66491, Note_off_c, 0, 74, 64
2, 66501, Note_off_c, 0, 69, 64
2, 66502, Note_on_c, 0, 72, 67
2, 66506, Note_on_c, 0, 63, 60
2, 66511, Note_off_c, 0, 65, 64
2, 66533, Control_c, 0, 64, 0
2, 66569, Control_c, 0, 64, 127
2, 66600, Note_on_c, 0, 70, 80
2, 66600, Note_on_c, 0, 62, 66
2, 66603, Note_on_c, 0, 58, 72
2, 66606, Note_on_c, 0, 74, 74
2, 66618, Note_off_c, 0, 72, 64
2, 66620, Note_off_c, 0, 63, 64
2, 66674, Control_c, 0, 64, 0
2, 66686, Control_c, 0, 64, 0
2, 66688, Note_off_c, 0, 58, 64
2, 66688, Note_off_c, 0, 62, 64
2, 66700, Note_off_c, 0, 70, 64
2, 66720, Note_off_c, 0, 74, 64
2, 66756, Note_on_c, 0, 72, 79
2, 66756, Note_on_c, 0, 65, 54
2, 66760, Note_on_c, 0, 53, 79
2, 66764, Note_on_c, 0, 60, 74
2, 66777, Control_c, 0, 64, 0
2, 66804, Note_off_c, 0, 65, 64
2, 66804, Note_off_c, 0, 72, 64
2, 66808, Note_off_c, 0, 53, 64
2, 66808, Note_on_c, 0, 62, 64
2, 66808, Note_on_c, 0, 58, 91
2, 66812, Note_off_c, 0, 60, 64
2, 66813, Control_c, 0, 64, 127
2, 66816, Note_on_c, 0, 70, 79
2, 66816, Note_on_c, 0, 46, 72
2, 66857, Control_c, 0, 64, 0
2, 66893, Control_c, 0, 64, 127
2, 66944, Note_off_c, 0, 58, 64
2, 66969, Note_off_c, 0, 46, 64
2, 66980, Note_off_c, 0, 62, 64
2, 66995, Note_off_c, 0, 70, 64
2, 66998, Control_c, 0, 64, 0
2, 67010, Control_c, 0, 64, 0
2, 67088, Note_on_c, 0, 82, 90
2, 67088, Note_on_c, 0, 46, 82
2, 67096, Note_on_c, 0, 70, 99
2, 67096, Note_on_c, 0, 34, 96
2, 67436, Note_off_c, 0, 46, 64
2, 67436, Note_off_c, 0, 82, 64
2, 67444, Note_off_c, 0, 34, 64
2, 67444, Note_off_c, 0, 70, 64
2, 67444, End_track
3, 0, Start_track
3, 0, Title_t, "Played by Dr. Ron Lubetsky"
3, 0, End_track
4, 0, Start_track
4, 0, Title_t, "Jan. 14, 1998"
4, 0, End_track
5, 0, Start_track
5, 0, Title_t, "email: acuity2020@aol.com"
5, 0, End_track
6, 0, Start_track
6, 0, Title_t, "Copyright  1998"
6, 0, End_track
7, 0, Start_track
7, 0, Title_t, "All Rights Reserved"
7, 0, End_track
0, 0, End_of_file
