2, 0, Program_c, 0, 0
2, 0, Control_c, 0, 7, 127
2, 47, Note_on_c, 0, 61, 49
2, 53, Note_on_c, 0, 63, 46
2, 53, Note_on_c, 0, 39, 47
2, 53, Control_c, 0, 64, 0
2, 61, Note_on_c, 0, 55, 42
2, 81, Control_c, 0, 64, 127
2, 241, Note_off_c, 0, 61, 64
2, 247, Note_off_c, 0, 63, 64
2, 255, Note_off_c, 0, 55, 64
2, 271, Note_on_c, 0, 61, 54
2, 273, Note_on_c, 0, 65, 54
2, 279, Note_on_c, 0, 56, 34
2, 282, Note_on_c, 0, 51, 39
2, 305, Control_c, 0, 64, 0
2, 319, Control_c, 0, 64, 127
2, 333, Control_c, 0, 64, 0
2, 361, Control_c, 0, 64, 127
2, 368, Note_off_c, 0, 39, 64
2, 470, Note_off_c, 0, 61, 64
2, 472, Note_off_c, 0, 65, 64
2, 478, Note_off_c, 0, 56, 64
2, 481, Note_off_c, 0, 51, 64
2, 580, Note_on_c, 0, 38, 49
2, 585, Control_c, 0, 64, 0
2, 599, Control_c, 0, 64, 127
2, 648, Note_on_c, 0, 61, 51
2, 650, Note_on_c, 0, 63, 52
2, 650, Note_on_c, 0, 39, 51
2, 659, Note_on_c, 0, 55, 49
2, 663, Control_c, 0, 64, 0
2, 672, Note_off_c, 0, 38, 64
2, 678, Control_c, 0, 64, 127
2, 818, Note_off_c, 0, 61, 64
2, 829, Note_off_c, 0, 55, 64
2, 883, Note_on_c, 0, 67, 54
2, 885, Note_off_c, 0, 63, 64
2, 885, Note_on_c, 0, 61, 51
2, 893, Note_on_c, 0, 55, 34
2, 896, Note_on_c, 0, 51, 44
2, 943, Control_c, 0, 64, 0
2, 957, Note_off_c, 0, 39, 64
2, 958, Control_c, 0, 64, 127
2, 1085, Note_off_c, 0, 67, 64
2, 1087, Note_off_c, 0, 61, 64
2, 1095, Note_off_c, 0, 55, 64
2, 1098, Note_off_c, 0, 51, 64
2, 1187, Note_on_c, 0, 38, 49
2, 1248, Note_on_c, 0, 61, 54
2, 1248, Control_c, 0, 64, 0
2, 1254, Note_on_c, 0, 63, 52
2, 1254, Note_on_c, 0, 39, 51
2, 1262, Note_on_c, 0, 55, 49
2, 1277, Note_off_c, 0, 38, 64
2, 1281, Control_c, 0, 64, 127
2, 1438, Note_off_c, 0, 61, 64
2, 1444, Note_off_c, 0, 63, 64
2, 1452, Note_off_c, 0, 55, 64
2, 1475, Note_on_c, 0, 65, 58
2, 1475, Note_on_c, 0, 61, 57
2, 1480, Note_on_c, 0, 56, 49
2, 1484, Note_on_c, 0, 51, 50
2, 1500, Control_c, 0, 64, 0
2, 1511, Control_c, 0, 64, 127
2, 1528, Control_c, 0, 64, 0
2, 1555, Note_off_c, 0, 39, 64
2, 1561, Control_c, 0, 64, 127
2, 1632, Note_off_c, 0, 61, 64
2, 1676, Note_off_c, 0, 65, 64
2, 1681, Note_off_c, 0, 56, 64
2, 1685, Note_off_c, 0, 51, 64
2, 1768, Note_on_c, 0, 38, 49
2, 1780, Control_c, 0, 64, 0
2, 1791, Control_c, 0, 64, 127
2, 1831, Note_on_c, 0, 39, 58
2, 1832, Control_c, 0, 64, 0
2, 1844, Note_on_c, 0, 61, 57
2, 1845, Note_on_c, 0, 63, 58
2, 1848, Note_on_c, 0, 55, 55
2, 1856, Control_c, 0, 64, 127
2, 1863, Note_off_c, 0, 38, 64
2, 1988, Note_off_c, 0, 61, 64
2, 1989, Note_off_c, 0, 63, 64
2, 1992, Note_off_c, 0, 55, 64
2, 2010, Note_on_c, 0, 55, 35
2, 2062, Note_on_c, 0, 51, 64
2, 2064, Note_on_c, 0, 70, 62
2, 2067, Note_on_c, 0, 61, 62
2, 2097, Control_c, 0, 64, 0
2, 2112, Control_c, 0, 64, 0
2, 2124, Control_c, 0, 64, 127
2, 2136, Note_off_c, 0, 39, 64
2, 2136, Control_c, 0, 64, 127
2, 2243, Note_off_c, 0, 55, 64
2, 2263, Note_off_c, 0, 51, 64
2, 2265, Note_off_c, 0, 70, 64
2, 2268, Note_off_c, 0, 61, 64
2, 2377, Control_c, 0, 64, 0
2, 2381, Note_on_c, 0, 38, 52
2, 2404, Control_c, 0, 64, 127
2, 2468, Note_on_c, 0, 61, 57
2, 2468, Note_on_c, 0, 39, 57
2, 2473, Note_on_c, 0, 63, 58
2, 2479, Note_on_c, 0, 55, 55
2, 2479, Control_c, 0, 64, 0
2, 2493, Note_off_c, 0, 38, 64
2, 2504, Control_c, 0, 64, 127
2, 2612, Note_off_c, 0, 61, 64
2, 2617, Note_off_c, 0, 63, 64
2, 2623, Note_off_c, 0, 55, 64
2, 2722, Note_on_c, 0, 65, 59
2, 2722, Note_on_c, 0, 61, 58
2, 2730, Note_on_c, 0, 56, 56
2, 2731, Note_on_c, 0, 51, 57
2, 2747, Control_c, 0, 64, 0
2, 2759, Control_c, 0, 64, 0
2, 2769, Control_c, 0, 64, 127
2, 2771, Note_off_c, 0, 39, 64
2, 2784, Control_c, 0, 64, 127
2, 2923, Note_off_c, 0, 61, 64
2, 2923, Note_off_c, 0, 65, 64
2, 2931, Note_off_c, 0, 56, 64
2, 2932, Note_off_c, 0, 51, 64
2, 3027, Control_c, 0, 64, 0
2, 3034, Note_on_c, 0, 38, 51
2, 3049, Control_c, 0, 64, 127
2, 3120, Note_on_c, 0, 39, 52
2, 3128, Note_on_c, 0, 63, 58
2, 3128, Note_on_c, 0, 61, 58
2, 3131, Note_on_c, 0, 55, 56
2, 3140, Control_c, 0, 64, 0
2, 3149, Note_off_c, 0, 38, 64
2, 3159, Control_c, 0, 64, 127
2, 3389, Note_off_c, 0, 61, 64
2, 3389, Note_off_c, 0, 63, 64
2, 3392, Note_off_c, 0, 55, 64
2, 3420, Control_c, 0, 64, 0
2, 3435, Note_off_c, 0, 39, 64
2, 3439, Control_c, 0, 64, 127
2, 3440, Note_on_c, 0, 73, 58
2, 3440, Note_on_c, 0, 51, 55
2, 3443, Note_on_c, 0, 58, 56
2, 3448, Note_on_c, 0, 67, 56
2, 3504, Control_c, 0, 64, 0
2, 3546, Control_c, 0, 64, 127
2, 3784, Control_c, 0, 64, 0
2, 3826, Control_c, 0, 64, 127
2, 3893, Note_off_c, 0, 51, 64
2, 3896, Note_off_c, 0, 58, 64
2, 3901, Note_off_c, 0, 67, 64
2, 3936, Note_on_c, 0, 72, 50
2, 3941, Note_on_c, 0, 63, 48
2, 3945, Note_on_c, 0, 51, 39
2, 3948, Note_on_c, 0, 67, 43
2, 3984, Control_c, 0, 64, 0
2, 3989, Note_off_c, 0, 73, 64
2, 4000, Control_c, 0, 64, 127
2, 4257, Note_off_c, 0, 67, 64
2, 4264, Note_off_c, 0, 72, 64
2, 4264, Control_c, 0, 64, 0
2, 4269, Note_off_c, 0, 63, 64
2, 4278, Note_off_c, 0, 51, 64
2, 4280, Control_c, 0, 64, 127
2, 4311, Note_on_c, 0, 70, 47
2, 4315, Note_on_c, 0, 61, 35
2, 4317, Note_on_c, 0, 67, 49
2, 4324, Note_on_c, 0, 51, 32
2, 4387, Control_c, 0, 64, 0
2, 4432, Control_c, 0, 64, 127
2, 4667, Control_c, 0, 64, 0
2, 4712, Control_c, 0, 64, 127
2, 5211, Note_off_c, 0, 70, 64
2, 5215, Note_off_c, 0, 61, 64
2, 5217, Note_off_c, 0, 67, 64
2, 5224, Note_off_c, 0, 51, 64
2, 5375, Note_on_c, 0, 71, 46
2, 5581, Note_on_c, 0, 44, 49
2, 5581, Control_c, 0, 64, 0
2, 5585, Note_on_c, 0, 72, 51
2, 5597, Control_c, 0, 64, 127
2, 5610, Note_off_c, 0, 71, 64
2, 5709, Note_on_c, 0, 73, 34
2, 5737, Note_off_c, 0, 72, 64
2, 5755, Note_on_c, 0, 51, 39
2, 5807, Note_on_c, 0, 60, 32
2, 5823, Note_on_c, 0, 68, 54
2, 5830, Note_on_c, 0, 75, 50
2, 5856, Control_c, 0, 64, 0
2, 5859, Note_off_c, 0, 44, 64
2, 5861, Note_off_c, 0, 73, 64
2, 5861, Control_c, 0, 64, 0
2, 5872, Control_c, 0, 64, 127
2, 5877, Control_c, 0, 64, 127
2, 5882, Note_off_c, 0, 51, 64
2, 5934, Note_off_c, 0, 60, 64
2, 5950, Note_off_c, 0, 68, 64
2, 6119, Note_on_c, 0, 77, 43
2, 6136, Control_c, 0, 64, 0
2, 6152, Control_c, 0, 64, 127
2, 6155, Note_off_c, 0, 75, 64
2, 6206, Note_on_c, 0, 39, 48
2, 6215, Control_c, 0, 64, 0
2, 6219, Note_on_c, 0, 75, 49
2, 6230, Control_c, 0, 64, 127
2, 6237, Note_off_c, 0, 77, 64
2, 6306, Note_on_c, 0, 74, 47
2, 6312, Note_off_c, 0, 75, 64
2, 6406, Note_on_c, 0, 73, 50
2, 6415, Note_on_c, 0, 67, 24
2, 6415, Note_on_c, 0, 61, 33
2, 6420, Control_c, 0, 64, 0
2, 6426, Note_off_c, 0, 74, 64
2, 6435, Control_c, 0, 64, 127
2, 6487, Note_off_c, 0, 61, 64
2, 6487, Note_off_c, 0, 67, 64
2, 6495, Control_c, 0, 64, 0
2, 6502, Note_off_c, 0, 39, 64
2, 6510, Control_c, 0, 64, 127
2, 6579, Note_on_c, 0, 61, 33
2, 6594, Note_on_c, 0, 67, 47
2, 6651, Note_off_c, 0, 61, 64
2, 6666, Note_off_c, 0, 67, 64
2, 6681, Note_on_c, 0, 72, 46
2, 6700, Control_c, 0, 64, 0
2, 6704, Note_off_c, 0, 73, 64
2, 6715, Control_c, 0, 64, 127
2, 6756, Note_on_c, 0, 70, 52
2, 6769, Note_off_c, 0, 72, 64
2, 6776, Note_on_c, 0, 72, 52
2, 6791, Note_off_c, 0, 70, 64
2, 6808, Note_on_c, 0, 70, 58
2, 6811, Note_on_c, 0, 51, 39
2, 6815, Note_off_c, 0, 72, 64
2, 6821, Control_c, 0, 64, 0
2, 6845, Control_c, 0, 64, 127
2, 6906, Note_on_c, 0, 69, 47
2, 6914, Note_off_c, 0, 70, 64
2, 6976, Note_on_c, 0, 70, 63
2, 6981, Note_on_c, 0, 63, 32
2, 6985, Note_on_c, 0, 61, 39
2, 6988, Control_c, 0, 64, 0
2, 6993, Note_off_c, 0, 69, 64
2, 7005, Note_off_c, 0, 51, 64
2, 7014, Control_c, 0, 64, 127
2, 7053, Note_off_c, 0, 63, 64
2, 7057, Note_off_c, 0, 61, 64
2, 7067, Note_on_c, 0, 72, 49
2, 7068, Note_off_c, 0, 70, 64
2, 7101, Control_c, 0, 64, 0
2, 7125, Control_c, 0, 64, 127
2, 7165, Note_on_c, 0, 63, 23
2, 7170, Note_on_c, 0, 67, 46
2, 7172, Note_on_c, 0, 61, 37
2, 7182, Note_off_c, 0, 72, 64
2, 7237, Note_off_c, 0, 63, 64
2, 7244, Note_off_c, 0, 61, 64
2, 7268, Control_c, 0, 64, 0
2, 7294, Control_c, 0, 64, 127
2, 7326, Note_on_c, 0, 70, 42
2, 7357, Note_off_c, 0, 67, 64
2, 7357, Note_on_c, 0, 44, 46
2, 7370, Note_on_c, 0, 68, 48
2, 7387, Control_c, 0, 64, 0
2, 7407, Note_off_c, 0, 70, 64
2, 7431, Control_c, 0, 64, 127
2, 7500, Note_on_c, 0, 67, 32
2, 7510, Note_off_c, 0, 68, 64
2, 7552, Note_off_c, 0, 44, 64
2, 7561, Note_on_c, 0, 68, 51
2, 7567, Note_on_c, 0, 51, 39
2, 7568, Note_on_c, 0, 60, 26
2, 7578, Note_off_c, 0, 67, 64
2, 7592, Control_c, 0, 64, 0
2, 7624, Control_c, 0, 64, 127
2, 7667, Control_c, 0, 64, 0
2, 7711, Control_c, 0, 64, 127
2, 7727, Note_off_c, 0, 51, 64
2, 7728, Note_off_c, 0, 60, 64
2, 7837, Note_on_c, 0, 60, 54
2, 7846, Note_off_c, 0, 68, 64
2, 7872, Control_c, 0, 64, 0
2, 7904, Control_c, 0, 64, 127
2, 8060, Note_on_c, 0, 41, 47
2, 8104, Control_c, 0, 64, 0
2, 8111, Note_on_c, 0, 68, 58
2, 8130, Note_off_c, 0, 60, 64
2, 8134, Control_c, 0, 64, 127
2, 8206, Note_on_c, 0, 70, 58
2, 8241, Note_off_c, 0, 68, 64
2, 8286, Note_on_c, 0, 72, 57
2, 8294, Note_on_c, 0, 56, 32
2, 8297, Control_c, 0, 64, 0
2, 8302, Note_on_c, 0, 65, 34
2, 8305, Note_off_c, 0, 70, 64
2, 8324, Control_c, 0, 64, 127
2, 8366, Note_off_c, 0, 56, 64
2, 8374, Note_off_c, 0, 65, 64
2, 8384, Control_c, 0, 64, 0
2, 8398, Note_off_c, 0, 41, 64
2, 8414, Control_c, 0, 64, 127
2, 8461, Note_on_c, 0, 56, 40
2, 8464, Note_on_c, 0, 60, 32
2, 8468, Note_on_c, 0, 65, 32
2, 8533, Note_off_c, 0, 56, 64
2, 8536, Note_off_c, 0, 60, 64
2, 8540, Note_off_c, 0, 65, 64
2, 8556, Note_on_c, 0, 73, 50
2, 8572, Note_off_c, 0, 72, 64
2, 8577, Control_c, 0, 64, 0
2, 8604, Control_c, 0, 64, 127
2, 8653, Note_on_c, 0, 72, 56
2, 8665, Control_c, 0, 64, 0
2, 8670, Note_on_c, 0, 48, 46
2, 8683, Control_c, 0, 64, 127
2, 8687, Note_off_c, 0, 73, 64
2, 8739, Note_on_c, 0, 71, 51
2, 8752, Note_off_c, 0, 72, 64
2, 8825, Note_on_c, 0, 64, 26
2, 8833, Note_on_c, 0, 58, 29
2, 8837, Note_on_c, 0, 70, 55
2, 8838, Control_c, 0, 64, 0
2, 8846, Note_off_c, 0, 71, 64
2, 8854, Control_c, 0, 64, 127
2, 8897, Note_off_c, 0, 64, 64
2, 8905, Note_off_c, 0, 58, 64
2, 8945, Control_c, 0, 64, 0
2, 8963, Control_c, 0, 64, 127
2, 8991, Note_on_c, 0, 58, 37
2, 8992, Note_on_c, 0, 64, 27
2, 9025, Note_off_c, 0, 48, 64
2, 9063, Note_off_c, 0, 58, 64
2, 9064, Note_off_c, 0, 64, 64
2, 9073, Note_on_c, 0, 68, 49
2, 9095, Note_off_c, 0, 70, 64
2, 9118, Control_c, 0, 64, 0
2, 9134, Control_c, 0, 64, 127
2, 9159, Note_on_c, 0, 67, 34
2, 9171, Note_off_c, 0, 68, 64
2, 9187, Note_on_c, 0, 68, 54
2, 9194, Note_off_c, 0, 67, 64
2, 9197, Note_on_c, 0, 48, 50
2, 9207, Control_c, 0, 64, 0
2, 9223, Note_on_c, 0, 67, 56
2, 9235, Note_off_c, 0, 68, 64
2, 9257, Control_c, 0, 64, 127
2, 9320, Note_on_c, 0, 65, 54
2, 9337, Note_off_c, 0, 67, 64
2, 9384, Note_on_c, 0, 58, 33
2, 9390, Note_on_c, 0, 67, 50
2, 9390, Note_on_c, 0, 60, 35
2, 9397, Note_off_c, 0, 48, 64
2, 9400, Control_c, 0, 64, 0
2, 9421, Note_off_c, 0, 65, 64
2, 9426, Control_c, 0, 64, 127
2, 9456, Note_off_c, 0, 58, 64
2, 9462, Note_off_c, 0, 60, 64
2, 9466, Note_on_c, 0, 68, 52
2, 9487, Control_c, 0, 64, 0
2, 9497, Note_off_c, 0, 67, 64
2, 9537, Control_c, 0, 64, 127
2, 9567, Note_on_c, 0, 60, 39
2, 9572, Note_on_c, 0, 58, 35
2, 9574, Note_on_c, 0, 64, 51
2, 9584, Note_off_c, 0, 68, 64
2, 9639, Note_off_c, 0, 60, 64
2, 9644, Note_off_c, 0, 58, 64
2, 9680, Control_c, 0, 64, 0
2, 9706, Control_c, 0, 64, 127
2, 9776, Note_on_c, 0, 41, 49
2, 9783, Note_on_c, 0, 65, 51
2, 9792, Note_off_c, 0, 64, 64
2, 9799, Control_c, 0, 64, 0
2, 9821, Control_c, 0, 64, 127
2, 9944, Note_on_c, 0, 77, 46
2, 9997, Note_on_c, 0, 49, 46
2, 10003, Note_on_c, 0, 75, 62
2, 10003, Note_on_c, 0, 61, 47
2, 10011, Note_on_c, 0, 56, 39
2, 10017, Note_off_c, 0, 77, 64
2, 10028, Control_c, 0, 64, 0
2, 10042, Control_c, 0, 64, 127
2, 10074, Note_off_c, 0, 41, 64
2, 10079, Control_c, 0, 64, 0
2, 10101, Control_c, 0, 64, 127
2, 10157, Note_off_c, 0, 49, 64
2, 10163, Note_off_c, 0, 61, 64
2, 10171, Note_off_c, 0, 56, 64
2, 10260, Note_on_c, 0, 63, 57
2, 10260, Note_on_c, 0, 51, 43
2, 10266, Note_on_c, 0, 43, 46
2, 10285, Note_off_c, 0, 65, 64
2, 10297, Control_c, 0, 64, 0
2, 10308, Control_c, 0, 64, 0
2, 10317, Note_off_c, 0, 75, 64
2, 10322, Control_c, 0, 64, 127
2, 10329, Control_c, 0, 64, 127
2, 10415, Note_on_c, 0, 73, 50
2, 10441, Note_off_c, 0, 63, 64
2, 10547, Note_on_c, 0, 72, 50
2, 10550, Note_on_c, 0, 44, 50
2, 10555, Note_off_c, 0, 73, 64
2, 10556, Control_c, 0, 64, 0
2, 10568, Note_off_c, 0, 43, 64
2, 10577, Control_c, 0, 64, 0
2, 10579, Control_c, 0, 64, 127
2, 10609, Control_c, 0, 64, 127
2, 10640, Note_on_c, 0, 73, 51
2, 10666, Note_off_c, 0, 72, 64
2, 10735, Note_on_c, 0, 75, 48
2, 10747, Note_on_c, 0, 68, 42
2, 10760, Note_on_c, 0, 60, 37
2, 10766, Note_off_c, 0, 73, 64
2, 10770, Control_c, 0, 64, 0
2, 10791, Control_c, 0, 64, 127
2, 10836, Control_c, 0, 64, 0
2, 10859, Control_c, 0, 64, 127
2, 10873, Note_off_c, 0, 44, 64
2, 10886, Note_off_c, 0, 68, 64
2, 10897, Note_off_c, 0, 51, 64
2, 10898, Note_off_c, 0, 60, 64
2, 10930, Note_on_c, 0, 79, 52
2, 10953, Note_off_c, 0, 75, 64
2, 11033, Note_on_c, 0, 77, 48
2, 11037, Note_off_c, 0, 79, 64
2, 11050, Control_c, 0, 64, 0
2, 11071, Control_c, 0, 64, 127
2, 11115, Note_on_c, 0, 39, 50
2, 11120, Control_c, 0, 64, 0
2, 11125, Note_on_c, 0, 75, 57
2, 11144, Control_c, 0, 64, 127
2, 11152, Note_off_c, 0, 77, 64
2, 11204, Note_on_c, 0, 74, 49
2, 11213, Note_off_c, 0, 75, 64
2, 11289, Note_on_c, 0, 73, 62
2, 11296, Note_on_c, 0, 67, 26
2, 11300, Note_on_c, 0, 61, 37
2, 11311, Control_c, 0, 64, 0
2, 11316, Note_off_c, 0, 74, 64
2, 11335, Control_c, 0, 64, 127
2, 11368, Note_off_c, 0, 67, 64
2, 11372, Note_off_c, 0, 61, 64
2, 11399, Note_off_c, 0, 39, 64
2, 11400, Control_c, 0, 64, 0
2, 11424, Control_c, 0, 64, 127
2, 11477, Note_on_c, 0, 67, 23
2, 11477, Note_on_c, 0, 61, 25
2, 11549, Note_off_c, 0, 61, 64
2, 11549, Note_off_c, 0, 67, 64
2, 11562, Note_on_c, 0, 72, 52
2, 11569, Note_off_c, 0, 73, 64
2, 11591, Control_c, 0, 64, 0
2, 11615, Control_c, 0, 64, 127
2, 11645, Note_on_c, 0, 70, 58
2, 11654, Note_off_c, 0, 72, 64
2, 11680, Note_on_c, 0, 72, 54
2, 11698, Note_off_c, 0, 70, 64
2, 11705, Note_on_c, 0, 51, 39
2, 11712, Note_on_c, 0, 70, 58
2, 11715, Control_c, 0, 64, 0
2, 11735, Note_off_c, 0, 72, 64
2, 11753, Control_c, 0, 64, 127
2, 11809, Note_on_c, 0, 69, 51
2, 11811, Note_off_c, 0, 70, 64
2, 11884, Note_on_c, 0, 70, 62
2, 11884, Control_c, 0, 64, 0
2, 11891, Note_on_c, 0, 61, 50
2, 11901, Note_off_c, 0, 69, 64
2, 11910, Control_c, 0, 64, 127
2, 11969, Note_on_c, 0, 72, 51
2, 11984, Note_off_c, 0, 70, 64
2, 11995, Control_c, 0, 64, 0
2, 12033, Control_c, 0, 64, 127
2, 12054, Note_on_c, 0, 67, 51
2, 12061, Control_c, 0, 64, 0
2, 12065, Note_on_c, 0, 52, 46
2, 12066, Note_off_c, 0, 51, 64
2, 12082, Note_off_c, 0, 72, 64
2, 12091, Control_c, 0, 64, 127
2, 12104, Note_off_c, 0, 61, 64
2, 12164, Control_c, 0, 64, 0
2, 12190, Control_c, 0, 64, 127
2, 12195, Note_on_c, 0, 70, 48
2, 12219, Note_off_c, 0, 67, 64
2, 12232, Note_on_c, 0, 68, 51
2, 12239, Note_on_c, 0, 53, 46
2, 12248, Note_off_c, 0, 52, 64
2, 12255, Control_c, 0, 64, 0
2, 12265, Note_off_c, 0, 70, 64
2, 12308, Control_c, 0, 64, 127
2, 12341, Control_c, 0, 64, 0
2, 12348, Note_off_c, 0, 68, 64
2, 12354, Note_on_c, 0, 67, 48
2, 12371, Control_c, 0, 64, 127
2, 12392, Note_off_c, 0, 53, 64
2, 12408, Note_on_c, 0, 68, 57
2, 12416, Note_on_c, 0, 56, 35
2, 12418, Note_on_c, 0, 60, 39
2, 12423, Control_c, 0, 64, 0
2, 12444, Note_off_c, 0, 67, 64
2, 12447, Control_c, 0, 64, 127
2, 12488, Note_off_c, 0, 56, 64
2, 12490, Note_off_c, 0, 60, 64
2, 12535, Control_c, 0, 64, 0
2, 12588, Control_c, 0, 64, 127
2, 12596, Note_on_c, 0, 56, 32
2, 12604, Note_on_c, 0, 64, 51
2, 12604, Note_on_c, 0, 60, 32
2, 12611, Control_c, 0, 64, 0
2, 12618, Note_off_c, 0, 68, 64
2, 12627, Control_c, 0, 64, 127
2, 12668, Note_off_c, 0, 56, 64
2, 12676, Note_off_c, 0, 60, 64
2, 12703, Control_c, 0, 64, 0
2, 12727, Control_c, 0, 64, 127
2, 12799, Note_on_c, 0, 65, 50
2, 12801, Note_on_c, 0, 49, 46
2, 12808, Control_c, 0, 64, 0
2, 12811, Note_off_c, 0, 64, 64
2, 12844, Control_c, 0, 64, 127
2, 12891, Control_c, 0, 64, 0
2, 12907, Control_c, 0, 64, 127
2, 12920, Note_on_c, 0, 67, 51
2, 12940, Note_off_c, 0, 65, 64
2, 12960, Note_off_c, 0, 49, 64
2, 12964, Note_on_c, 0, 68, 62
2, 12974, Note_on_c, 0, 58, 28
2, 12983, Note_on_c, 0, 65, 29
2, 12983, Note_on_c, 0, 55, 27
2, 12984, Note_off_c, 0, 67, 64
2, 12992, Control_c, 0, 64, 0
2, 13014, Control_c, 0, 64, 127
2, 13046, Note_off_c, 0, 58, 64
2, 13055, Note_off_c, 0, 55, 64
2, 13057, Note_off_c, 0, 65, 64
2, 13088, Control_c, 0, 64, 0
2, 13124, Control_c, 0, 64, 127
2, 13174, Note_on_c, 0, 58, 19
2, 13176, Note_on_c, 0, 55, 19
2, 13180, Note_on_c, 0, 65, 21
2, 13209, Note_on_c, 0, 70, 66
2, 13231, Note_off_c, 0, 68, 64
2, 13246, Note_off_c, 0, 58, 64
2, 13248, Note_off_c, 0, 55, 64
2, 13269, Note_off_c, 0, 65, 64
2, 13272, Control_c, 0, 64, 0
2, 13294, Control_c, 0, 64, 127
2, 13399, Note_on_c, 0, 48, 47
2, 13400, Note_on_c, 0, 72, 52
2, 13412, Note_off_c, 0, 70, 64
2, 13413, Control_c, 0, 64, 0
2, 13426, Control_c, 0, 64, 127
2, 13543, Note_on_c, 0, 73, 32
2, 13557, Note_off_c, 0, 48, 64
2, 13559, Note_off_c, 0, 72, 64
2, 13594, Note_on_c, 0, 72, 47
2, 13594, Note_on_c, 0, 64, 32
2, 13603, Note_on_c, 0, 58, 32
2, 13608, Note_off_c, 0, 73, 64
2, 13632, Control_c, 0, 64, 0
2, 13666, Note_off_c, 0, 64, 64
2, 13667, Control_c, 0, 64, 127
2, 13675, Note_off_c, 0, 58, 64
2, 13693, Control_c, 0, 64, 0
2, 13706, Control_c, 0, 64, 127
2, 13806, Note_on_c, 0, 64, 25
2, 13815, Note_on_c, 0, 58, 28
2, 13878, Note_off_c, 0, 64, 64
2, 13887, Note_off_c, 0, 58, 64
2, 13895, Note_on_c, 0, 67, 51
2, 13908, Note_off_c, 0, 72, 64
2, 13912, Control_c, 0, 64, 0
2, 13947, Control_c, 0, 64, 127
2, 14012, Note_on_c, 0, 65, 54
2, 14022, Note_off_c, 0, 67, 64
2, 14039, Note_on_c, 0, 67, 54
2, 14053, Note_off_c, 0, 65, 64
2, 14064, Note_on_c, 0, 49, 39
2, 14081, Note_on_c, 0, 65, 54
2, 14085, Control_c, 0, 64, 0
2, 14097, Note_off_c, 0, 67, 64
2, 14108, Control_c, 0, 64, 127
2, 14169, Note_on_c, 0, 64, 42
2, 14186, Note_off_c, 0, 65, 64
2, 14215, Note_off_c, 0, 49, 64
2, 14235, Control_c, 0, 64, 0
2, 14243, Note_on_c, 0, 65, 54
2, 14247, Note_on_c, 0, 55, 40
2, 14253, Note_on_c, 0, 58, 39
2, 14254, Note_off_c, 0, 64, 64
2, 14265, Control_c, 0, 64, 127
2, 14319, Note_off_c, 0, 55, 64
2, 14325, Note_off_c, 0, 58, 64
2, 14334, Note_on_c, 0, 67, 51
2, 14349, Note_off_c, 0, 65, 64
2, 14365, Control_c, 0, 64, 0
2, 14388, Control_c, 0, 64, 127
2, 14410, Note_on_c, 0, 68, 51
2, 14417, Note_on_c, 0, 65, 35
2, 14421, Note_on_c, 0, 58, 32
2, 14425, Note_on_c, 0, 55, 26
2, 14427, Note_off_c, 0, 67, 64
2, 14484, Note_off_c, 0, 65, 64
2, 14493, Note_off_c, 0, 58, 64
2, 14494, Note_on_c, 0, 70, 41
2, 14497, Note_off_c, 0, 55, 64
2, 14502, Note_off_c, 0, 68, 64
2, 14515, Control_c, 0, 64, 0
2, 14545, Control_c, 0, 64, 127
2, 14584, Note_on_c, 0, 72, 51
2, 14591, Note_on_c, 0, 48, 47
2, 14597, Note_off_c, 0, 70, 64
2, 14606, Control_c, 0, 64, 0
2, 14643, Control_c, 0, 64, 127
2, 14679, Note_on_c, 0, 75, 42
2, 14704, Note_off_c, 0, 72, 64
2, 14706, Note_on_c, 0, 73, 51
2, 14722, Note_off_c, 0, 75, 64
2, 14737, Note_off_c, 0, 48, 64
2, 14745, Note_on_c, 0, 64, 41
2, 14751, Note_on_c, 0, 55, 47
2, 14757, Control_c, 0, 64, 0
2, 14761, Note_on_c, 0, 72, 51
2, 14773, Note_off_c, 0, 73, 64
2, 14797, Control_c, 0, 64, 127
2, 14886, Control_c, 0, 64, 0
2, 14923, Control_c, 0, 64, 127
2, 14924, Note_off_c, 0, 55, 64
2, 14925, Note_on_c, 0, 48, 48
2, 14938, Note_off_c, 0, 64, 64
2, 15008, Note_on_c, 0, 71, 50
2, 15032, Note_off_c, 0, 72, 64
2, 15037, Control_c, 0, 64, 0
2, 15077, Control_c, 0, 64, 127
2, 15124, Note_on_c, 0, 49, 47
2, 15136, Note_off_c, 0, 48, 64
2, 15137, Note_on_c, 0, 70, 51
2, 15144, Control_c, 0, 64, 0
2, 15158, Note_off_c, 0, 71, 64
2, 15176, Control_c, 0, 64, 127
2, 15207, Note_on_c, 0, 72, 49
2, 15219, Note_off_c, 0, 70, 64
2, 15265, Note_on_c, 0, 70, 62
2, 15282, Note_off_c, 0, 72, 64
2, 15303, Control_c, 0, 64, 0
2, 15312, Note_on_c, 0, 63, 32
2, 15324, Note_on_c, 0, 69, 54
2, 15327, Note_on_c, 0, 55, 34
2, 15335, Control_c, 0, 64, 127
2, 15342, Note_off_c, 0, 70, 64
2, 15370, Note_off_c, 0, 49, 64
2, 15379, Note_on_c, 0, 70, 62
2, 15384, Note_off_c, 0, 63, 64
2, 15393, Note_off_c, 0, 69, 64
2, 15399, Note_off_c, 0, 55, 64
2, 15424, Control_c, 0, 64, 0
2, 15456, Control_c, 0, 64, 127
2, 15471, Note_on_c, 0, 72, 52
2, 15476, Note_on_c, 0, 63, 35
2, 15484, Note_on_c, 0, 55, 34
2, 15493, Note_off_c, 0, 70, 64
2, 15536, Note_on_c, 0, 73, 54
2, 15548, Note_off_c, 0, 63, 64
2, 15556, Note_off_c, 0, 55, 64
2, 15559, Note_off_c, 0, 72, 64
2, 15583, Control_c, 0, 64, 0
2, 15615, Control_c, 0, 64, 127
2, 15629, Note_on_c, 0, 77, 54
2, 15635, Note_on_c, 0, 48, 39
2, 15651, Control_c, 0, 64, 0
2, 15663, Note_off_c, 0, 73, 64
2, 15696, Control_c, 0, 64, 127
2, 15704, Note_on_c, 0, 75, 54
2, 15725, Note_off_c, 0, 77, 64
2, 15819, Note_on_c, 0, 80, 54
2, 15838, Note_off_c, 0, 75, 64
2, 15840, Note_on_c, 0, 63, 32
2, 15848, Note_on_c, 0, 56, 47
2, 15862, Control_c, 0, 64, 0
2, 15865, Note_off_c, 0, 48, 64
2, 15893, Control_c, 0, 64, 127
2, 15931, Control_c, 0, 64, 0
2, 15976, Control_c, 0, 64, 127
2, 16067, Note_on_c, 0, 53, 39
2, 16093, Note_off_c, 0, 63, 64
2, 16101, Note_off_c, 0, 56, 64
2, 16142, Control_c, 0, 64, 0
2, 16173, Control_c, 0, 64, 127
2, 16277, Note_off_c, 0, 53, 64
2, 16279, Control_c, 0, 64, 0
2, 16283, Note_on_c, 0, 69, 51
2, 16283, Note_on_c, 0, 51, 49
2, 16307, Note_off_c, 0, 80, 64
2, 16310, Control_c, 0, 64, 127
2, 16398, Note_on_c, 0, 70, 51
2, 16427, Note_off_c, 0, 69, 64
2, 16496, Note_on_c, 0, 58, 18
2, 16504, Note_on_c, 0, 62, 18
2, 16511, Note_on_c, 0, 68, 37
2, 16512, Note_on_c, 0, 79, 52
2, 16528, Control_c, 0, 64, 0
2, 16535, Note_off_c, 0, 70, 64
2, 16552, Control_c, 0, 64, 127
2, 16559, Control_c, 0, 64, 0
2, 16572, Note_off_c, 0, 51, 64
2, 16590, Control_c, 0, 64, 127
2, 16608, Control_c, 0, 64, 0
2, 16617, Note_on_c, 0, 77, 51
2, 16632, Control_c, 0, 64, 127
2, 16634, Note_off_c, 0, 79, 64
2, 16656, Control_c, 0, 64, 0
2, 16680, Control_c, 0, 64, 127
2, 16711, Note_off_c, 0, 58, 64
2, 16719, Note_off_c, 0, 62, 64
2, 16726, Note_off_c, 0, 68, 64
2, 16728, Note_on_c, 0, 67, 18
2, 16731, Note_on_c, 0, 75, 42
2, 16731, Note_on_c, 0, 61, 26
2, 16734, Note_on_c, 0, 58, 25
2, 16744, Note_off_c, 0, 77, 64
2, 16808, Control_c, 0, 64, 0
2, 16832, Control_c, 0, 64, 127
2, 16867, Note_on_c, 0, 63, 49
2, 16874, Note_off_c, 0, 61, 64
2, 16884, Note_off_c, 0, 75, 64
2, 16884, Note_off_c, 0, 67, 64
2, 16888, Control_c, 0, 64, 0
2, 16891, Note_off_c, 0, 58, 64
2, 16912, Control_c, 0, 64, 127
2, 16936, Control_c, 0, 64, 0
2, 16960, Control_c, 0, 64, 127
2, 16996, Note_on_c, 0, 73, 48
2, 17010, Note_on_c, 0, 44, 49
2, 17039, Note_off_c, 0, 63, 64
2, 17042, Control_c, 0, 64, 0
2, 17075, Control_c, 0, 64, 127
2, 17120, Note_on_c, 0, 72, 46
2, 17135, Note_off_c, 0, 73, 64
2, 17223, Note_off_c, 0, 44, 64
2, 17253, Note_on_c, 0, 68, 48
2, 17253, Note_on_c, 0, 51, 32
2, 17264, Note_off_c, 0, 72, 64
2, 17270, Note_on_c, 0, 60, 31
2, 17284, Control_c, 0, 64, 0
2, 17322, Control_c, 0, 64, 0
2, 17325, Control_c, 0, 64, 127
2, 17355, Control_c, 0, 64, 127
2, 17481, Note_on_c, 0, 46, 49
2, 17517, Note_off_c, 0, 51, 64
2, 17564, Control_c, 0, 64, 0
2, 17605, Control_c, 0, 64, 127
2, 17647, Note_off_c, 0, 60, 64
2, 17729, Note_on_c, 0, 67, 51
2, 17732, Note_on_c, 0, 48, 32
2, 17744, Note_off_c, 0, 68, 64
2, 17744, Note_on_c, 0, 64, 39
2, 17746, Note_on_c, 0, 58, 25
2, 17759, Control_c, 0, 64, 0
2, 17761, Note_off_c, 0, 46, 64
2, 17799, Control_c, 0, 64, 127
2, 17951, Note_on_c, 0, 72, 59
2, 17966, Control_c, 0, 64, 0
2, 17972, Note_off_c, 0, 67, 64
2, 17985, Note_off_c, 0, 64, 64
2, 17996, Note_off_c, 0, 48, 64
2, 18002, Control_c, 0, 64, 127
2, 18039, Control_c, 0, 64, 0
2, 18079, Control_c, 0, 64, 127
2, 18149, Note_on_c, 0, 60, 51
2, 18174, Note_off_c, 0, 58, 64
2, 18237, Note_on_c, 0, 70, 51
2, 18246, Control_c, 0, 64, 0
2, 18259, Note_off_c, 0, 72, 64
2, 18282, Control_c, 0, 64, 127
2, 18288, Note_off_c, 0, 70, 64
2, 18327, Note_on_c, 0, 70, 56
2, 18367, Note_on_c, 0, 68, 51
2, 18370, Control_c, 0, 64, 0
2, 18380, Note_off_c, 0, 70, 64
2, 18397, Control_c, 0, 64, 127
2, 18485, Note_off_c, 0, 60, 64
2, 18491, Note_on_c, 0, 67, 49
2, 18495, Note_off_c, 0, 68, 64
2, 18539, Note_on_c, 0, 68, 64
2, 18552, Note_on_c, 0, 60, 48
2, 18561, Note_off_c, 0, 67, 64
2, 18572, Control_c, 0, 64, 0
2, 18587, Control_c, 0, 64, 127
2, 18650, Control_c, 0, 64, 0
2, 18677, Control_c, 0, 64, 127
2, 18714, Note_off_c, 0, 60, 64
2, 18739, Note_on_c, 0, 61, 33
2, 18743, Note_on_c, 0, 65, 54
2, 18744, Note_on_c, 0, 56, 25
2, 18744, Note_on_c, 0, 53, 26
2, 18760, Control_c, 0, 64, 0
2, 18766, Note_off_c, 0, 68, 64
2, 18799, Control_c, 0, 64, 127
2, 18852, Control_c, 0, 64, 0
2, 18867, Control_c, 0, 64, 127
2, 18930, Note_on_c, 0, 64, 49
2, 18941, Note_off_c, 0, 53, 64
2, 18941, Note_off_c, 0, 56, 64
2, 18942, Note_off_c, 0, 65, 64
2, 18943, Note_off_c, 0, 61, 64
2, 18957, Control_c, 0, 64, 0
2, 18971, Control_c, 0, 64, 127
2, 19011, Note_on_c, 0, 65, 41
2, 19040, Control_c, 0, 64, 0
2, 19057, Note_off_c, 0, 64, 64
2, 19079, Control_c, 0, 64, 127
2, 19113, Note_on_c, 0, 67, 49
2, 19121, Note_on_c, 0, 58, 46
2, 19124, Note_on_c, 0, 61, 36
2, 19132, Note_off_c, 0, 65, 64
2, 19137, Control_c, 0, 64, 0
2, 19160, Control_c, 0, 64, 127
2, 19237, Control_c, 0, 64, 0
2, 19251, Control_c, 0, 64, 127
2, 19294, Note_on_c, 0, 68, 50
2, 19298, Note_on_c, 0, 48, 50
2, 19310, Control_c, 0, 64, 0
2, 19325, Note_off_c, 0, 67, 64
2, 19336, Control_c, 0, 64, 127
2, 19398, Note_off_c, 0, 58, 64
2, 19398, Note_on_c, 0, 67, 33
2, 19410, Note_off_c, 0, 68, 64
2, 19417, Control_c, 0, 64, 0
2, 19440, Control_c, 0, 64, 127
2, 19447, Note_on_c, 0, 65, 49
2, 19466, Note_off_c, 0, 67, 64
2, 19480, Note_on_c, 0, 67, 49
2, 19501, Control_c, 0, 64, 0
2, 19503, Note_off_c, 0, 65, 64
2, 19516, Note_on_c, 0, 65, 54
2, 19516, Control_c, 0, 64, 127
2, 19535, Note_off_c, 0, 67, 64
2, 19583, Note_off_c, 0, 48, 64
2, 19590, Control_c, 0, 64, 0
2, 19605, Note_off_c, 0, 61, 64
2, 19616, Control_c, 0, 64, 127
2, 19637, Note_on_c, 0, 64, 50
2, 19646, Note_off_c, 0, 65, 64
2, 19683, Note_on_c, 0, 56, 42
2, 19689, Note_on_c, 0, 59, 41
2, 19690, Note_on_c, 0, 65, 46
2, 19697, Control_c, 0, 64, 0
2, 19704, Note_off_c, 0, 64, 64
2, 19732, Control_c, 0, 64, 127
2, 19781, Control_c, 0, 64, 0
2, 19796, Control_c, 0, 64, 127
2, 19878, Note_on_c, 0, 62, 50
2, 19886, Note_on_c, 0, 48, 49
2, 19890, Control_c, 0, 64, 0
2, 19896, Note_off_c, 0, 65, 64
2, 19896, Note_off_c, 0, 59, 64
2, 19932, Control_c, 0, 64, 127
2, 19976, Note_off_c, 0, 56, 64
2, 19977, Control_c, 0, 64, 0
2, 20012, Control_c, 0, 64, 127
2, 20053, Note_on_c, 0, 67, 54
2, 20060, Note_off_c, 0, 48, 64
2, 20064, Control_c, 0, 64, 0
2, 20073, Note_off_c, 0, 62, 64
2, 20076, Control_c, 0, 64, 127
2, 20170, Control_c, 0, 64, 0
2, 20181, Note_on_c, 0, 60, 46
2, 20186, Note_off_c, 0, 67, 64
2, 20212, Control_c, 0, 64, 127
2, 20246, Note_on_c, 0, 72, 58
2, 20246, Control_c, 0, 64, 0
2, 20253, Note_on_c, 0, 64, 47
2, 20253, Note_on_c, 0, 55, 46
2, 20271, Note_off_c, 0, 60, 64
2, 20285, Control_c, 0, 64, 127
2, 20344, Control_c, 0, 64, 0
2, 20356, Control_c, 0, 64, 127
2, 20386, Note_off_c, 0, 64, 64
2, 20406, Note_off_c, 0, 55, 64
2, 20438, Note_on_c, 0, 48, 49
2, 20508, Note_on_c, 0, 70, 44
2, 20518, Note_off_c, 0, 72, 64
2, 20526, Control_c, 0, 64, 0
2, 20565, Control_c, 0, 64, 127
2, 20579, Note_off_c, 0, 70, 64
2, 20619, Note_on_c, 0, 70, 63
2, 20652, Note_on_c, 0, 68, 58
2, 20656, Note_on_c, 0, 41, 50
2, 20658, Note_off_c, 0, 48, 64
2, 20662, Control_c, 0, 64, 0
2, 20670, Note_off_c, 0, 70, 64
2, 20686, Control_c, 0, 64, 127
2, 20800, Note_on_c, 0, 67, 51
2, 20808, Note_off_c, 0, 68, 64
2, 20845, Note_on_c, 0, 56, 41
2, 20847, Note_on_c, 0, 68, 64
2, 20860, Note_on_c, 0, 60, 32
2, 20866, Control_c, 0, 64, 0
2, 20870, Note_off_c, 0, 67, 64
2, 20900, Control_c, 0, 64, 127
2, 20917, Note_off_c, 0, 56, 64
2, 20932, Note_off_c, 0, 60, 64
2, 20942, Control_c, 0, 64, 0
2, 20966, Control_c, 0, 64, 127
2, 21042, Note_off_c, 0, 41, 64
2, 21045, Control_c, 0, 64, 0
2, 21051, Note_on_c, 0, 56, 26
2, 21054, Note_on_c, 0, 65, 57
2, 21054, Note_on_c, 0, 62, 39
2, 21067, Note_off_c, 0, 68, 64
2, 21077, Control_c, 0, 64, 127
2, 21123, Note_off_c, 0, 56, 64
2, 21126, Note_off_c, 0, 62, 64
2, 21146, Control_c, 0, 64, 0
2, 21180, Control_c, 0, 64, 127
2, 21246, Note_on_c, 0, 43, 50
2, 21247, Note_on_c, 0, 64, 54
2, 21254, Note_off_c, 0, 65, 64
2, 21257, Control_c, 0, 64, 0
2, 21283, Control_c, 0, 64, 127
2, 21325, Control_c, 0, 64, 0
2, 21344, Note_on_c, 0, 65, 49
2, 21355, Note_off_c, 0, 64, 64
2, 21357, Control_c, 0, 64, 127
2, 21416, Note_on_c, 0, 64, 36
2, 21416, Note_on_c, 0, 55, 43
2, 21419, Note_on_c, 0, 67, 55
2, 21424, Note_on_c, 0, 60, 32
2, 21441, Note_off_c, 0, 65, 64
2, 21488, Note_off_c, 0, 55, 64
2, 21488, Note_off_c, 0, 64, 64
2, 21496, Note_off_c, 0, 60, 64
2, 21537, Control_c, 0, 64, 0
2, 21563, Control_c, 0, 64, 127
2, 21618, Note_off_c, 0, 43, 64
2, 21624, Note_on_c, 0, 65, 21
2, 21631, Note_on_c, 0, 76, 57
2, 21631, Note_on_c, 0, 55, 39
2, 21632, Note_on_c, 0, 59, 32
2, 21638, Note_off_c, 0, 67, 64
2, 21661, Control_c, 0, 64, 0
2, 21675, Control_c, 0, 64, 127
2, 21693, Note_off_c, 0, 59, 64
2, 21696, Note_off_c, 0, 65, 64
2, 21707, Note_off_c, 0, 55, 64
2, 21742, Note_on_c, 0, 74, 44
2, 21757, Note_off_c, 0, 76, 64
2, 21811, Note_on_c, 0, 72, 51
2, 21818, Note_off_c, 0, 74, 64
2, 21844, Note_on_c, 0, 74, 51
2, 21844, Note_on_c, 0, 48, 51
2, 21857, Control_c, 0, 64, 0
2, 21864, Note_off_c, 0, 72, 64
2, 21881, Note_on_c, 0, 72, 49
2, 21895, Control_c, 0, 64, 127
2, 21898, Note_off_c, 0, 74, 64
2, 21941, Control_c, 0, 64, 0
2, 21955, Control_c, 0, 64, 127
2, 21983, Note_on_c, 0, 71, 51
2, 21988, Note_off_c, 0, 72, 64
2, 22046, Note_on_c, 0, 72, 54
2, 22053, Note_on_c, 0, 55, 46
2, 22055, Note_on_c, 0, 64, 40
2, 22062, Control_c, 0, 64, 0
2, 22066, Note_on_c, 0, 60, 34
2, 22070, Note_off_c, 0, 71, 64
2, 22085, Control_c, 0, 64, 127
2, 22121, Note_off_c, 0, 55, 64
2, 22126, Note_off_c, 0, 60, 64
2, 22126, Note_off_c, 0, 64, 64
2, 22137, Control_c, 0, 64, 0
2, 22150, Note_off_c, 0, 48, 64
2, 22175, Control_c, 0, 64, 127
2, 22255, Note_on_c, 0, 56, 51
2, 22255, Control_c, 0, 64, 0
2, 22262, Note_on_c, 0, 65, 46
2, 22262, Note_on_c, 0, 60, 49
2, 22283, Control_c, 0, 64, 127
2, 22342, Control_c, 0, 64, 0
2, 22355, Note_off_c, 0, 72, 64
2, 22365, Control_c, 0, 64, 127
2, 22424, Note_on_c, 0, 72, 47
2, 22455, Note_on_c, 0, 74, 49
2, 22468, Note_off_c, 0, 72, 64
2, 22490, Control_c, 0, 64, 0
2, 22495, Note_on_c, 0, 72, 49
2, 22517, Note_off_c, 0, 74, 64
2, 22517, Control_c, 0, 64, 127
2, 22535, Control_c, 0, 64, 0
2, 22563, Control_c, 0, 64, 127
2, 22630, Note_off_c, 0, 56, 64
2, 22637, Note_off_c, 0, 60, 64
2, 22637, Note_off_c, 0, 65, 64
2, 22646, Note_on_c, 0, 71, 50
2, 22661, Note_off_c, 0, 72, 64
2, 22691, Note_on_c, 0, 72, 58
2, 22691, Note_on_c, 0, 64, 41
2, 22691, Note_on_c, 0, 55, 35
2, 22704, Control_c, 0, 64, 0
2, 22708, Note_on_c, 0, 60, 39
2, 22721, Note_off_c, 0, 71, 64
2, 22731, Control_c, 0, 64, 127
2, 22770, Control_c, 0, 64, 0
2, 22773, Note_off_c, 0, 55, 64
2, 22776, Note_off_c, 0, 60, 64
2, 22790, Note_off_c, 0, 64, 64
2, 22797, Control_c, 0, 64, 127
2, 22924, Note_on_c, 0, 56, 50
2, 22933, Note_on_c, 0, 65, 56
2, 22933, Note_on_c, 0, 60, 36
2, 22947, Control_c, 0, 64, 0
2, 22969, Control_c, 0, 64, 127
2, 22984, Control_c, 0, 64, 0
2, 22992, Note_off_c, 0, 72, 64
2, 23011, Control_c, 0, 64, 127
2, 23095, Note_off_c, 0, 60, 64
2, 23099, Note_off_c, 0, 56, 64
2, 23099, Note_on_c, 0, 72, 62
2, 23139, Note_on_c, 0, 74, 51
2, 23142, Note_off_c, 0, 65, 64
2, 23146, Note_off_c, 0, 72, 64
2, 23169, Control_c, 0, 64, 0
2, 23174, Note_on_c, 0, 72, 54
2, 23180, Note_on_c, 0, 48, 59
2, 23185, Control_c, 0, 64, 127
2, 23199, Note_off_c, 0, 74, 64
2, 23227, Control_c, 0, 64, 0
2, 23249, Control_c, 0, 64, 127
2, 23334, Note_on_c, 0, 71, 42
2, 23338, Note_off_c, 0, 72, 64
2, 23399, Note_on_c, 0, 72, 56
2, 23402, Note_off_c, 0, 48, 64
2, 23405, Note_on_c, 0, 64, 46
2, 23408, Note_on_c, 0, 55, 50
2, 23416, Note_off_c, 0, 71, 64
2, 23424, Control_c, 0, 64, 0
2, 23449, Control_c, 0, 64, 0
2, 23465, Control_c, 0, 64, 127
2, 23476, Control_c, 0, 64, 127
2, 23694, Note_on_c, 0, 48, 51
2, 23704, Control_c, 0, 64, 0
2, 23736, Note_off_c, 0, 55, 64
2, 23748, Note_off_c, 0, 64, 64
2, 23756, Control_c, 0, 64, 127
2, 23823, Note_on_c, 0, 71, 49
2, 23841, Note_off_c, 0, 72, 64
2, 23977, Note_on_c, 0, 72, 49
2, 23990, Note_off_c, 0, 48, 64
2, 23991, Note_on_c, 0, 55, 44
2, 23997, Note_on_c, 0, 64, 39
2, 24000, Note_off_c, 0, 71, 64
2, 24019, Control_c, 0, 64, 0
2, 24054, Control_c, 0, 64, 127
2, 24148, Note_on_c, 0, 71, 42
2, 24163, Note_off_c, 0, 72, 64
2, 24264, Note_off_c, 0, 55, 64
2, 24299, Control_c, 0, 64, 0
2, 24327, Note_on_c, 0, 72, 36
2, 24327, Note_on_c, 0, 48, 32
2, 24334, Control_c, 0, 64, 127
2, 24351, Note_off_c, 0, 71, 64
2, 24360, Control_c, 0, 64, 0
2, 24363, Note_off_c, 0, 64, 64
2, 24385, Control_c, 0, 64, 127
2, 24633, Note_off_c, 0, 48, 64
2, 24640, Control_c, 0, 64, 0
2, 24665, Control_c, 0, 64, 127
2, 24674, Note_on_c, 0, 55, 20
2, 24680, Note_on_c, 0, 64, 23
2, 24687, Note_on_c, 0, 71, 34
2, 24718, Note_off_c, 0, 72, 64
2, 24773, Note_off_c, 0, 64, 64
2, 24785, Note_off_c, 0, 55, 64
2, 24989, Note_on_c, 0, 44, 39
2, 25035, Control_c, 0, 64, 0
2, 25048, Note_on_c, 0, 72, 49
2, 25056, Control_c, 0, 64, 127
2, 25072, Note_off_c, 0, 71, 64
2, 25160, Note_on_c, 0, 73, 51
2, 25196, Note_off_c, 0, 72, 64
2, 25203, Note_on_c, 0, 51, 39
2, 25259, Note_on_c, 0, 60, 34
2, 25283, Note_on_c, 0, 68, 58
2, 25289, Note_on_c, 0, 75, 51
2, 25303, Note_off_c, 0, 51, 64
2, 25313, Note_off_c, 0, 73, 64
2, 25315, Control_c, 0, 64, 0
2, 25327, Note_off_c, 0, 44, 64
2, 25336, Control_c, 0, 64, 127
2, 25359, Note_off_c, 0, 60, 64
2, 25383, Note_off_c, 0, 68, 64
2, 25603, Note_on_c, 0, 77, 49
2, 25618, Note_off_c, 0, 75, 64
2, 25676, Note_on_c, 0, 39, 51
2, 25683, Control_c, 0, 64, 0
2, 25690, Note_on_c, 0, 75, 59
2, 25709, Control_c, 0, 64, 127
2, 25714, Note_off_c, 0, 77, 64
2, 25780, Note_on_c, 0, 74, 39
2, 25790, Note_off_c, 0, 75, 64
2, 25868, Note_on_c, 0, 67, 32
2, 25872, Note_on_c, 0, 73, 62
2, 25872, Note_on_c, 0, 61, 32
2, 25883, Control_c, 0, 64, 0
2, 25888, Note_off_c, 0, 74, 64
2, 25902, Control_c, 0, 64, 127
2, 25940, Note_off_c, 0, 67, 64
2, 25944, Note_off_c, 0, 61, 64
2, 25963, Control_c, 0, 64, 0
2, 25969, Note_off_c, 0, 39, 64
2, 25989, Control_c, 0, 64, 127
2, 26094, Note_on_c, 0, 67, 21
2, 26094, Note_on_c, 0, 61, 32
2, 26163, Control_c, 0, 64, 0
2, 26166, Note_off_c, 0, 61, 64
2, 26166, Note_off_c, 0, 67, 64
2, 26171, Note_on_c, 0, 72, 41
2, 26182, Control_c, 0, 64, 127
2, 26194, Note_off_c, 0, 73, 64
2, 26223, Note_on_c, 0, 70, 47
2, 26230, Note_off_c, 0, 72, 64
2, 26264, Note_on_c, 0, 72, 46
2, 26274, Note_off_c, 0, 70, 64
2, 26274, Control_c, 0, 64, 0
2, 26279, Note_on_c, 0, 51, 46
2, 26298, Note_on_c, 0, 70, 52
2, 26313, Control_c, 0, 64, 127
2, 26321, Note_off_c, 0, 72, 64
2, 26387, Note_on_c, 0, 69, 49
2, 26399, Note_off_c, 0, 70, 64
2, 26442, Control_c, 0, 64, 0
2, 26451, Note_on_c, 0, 70, 58
2, 26452, Note_on_c, 0, 63, 32
2, 26460, Note_on_c, 0, 61, 39
2, 26475, Note_off_c, 0, 69, 64
2, 26476, Control_c, 0, 64, 127
2, 26486, Note_off_c, 0, 51, 64
2, 26524, Note_off_c, 0, 63, 64
2, 26532, Note_off_c, 0, 61, 64
2, 26534, Note_on_c, 0, 72, 51
2, 26554, Control_c, 0, 64, 0
2, 26556, Note_off_c, 0, 70, 64
2, 26593, Control_c, 0, 64, 127
2, 26622, Note_on_c, 0, 63, 39
2, 26624, Note_on_c, 0, 67, 50
2, 26628, Note_on_c, 0, 61, 36
2, 26659, Note_off_c, 0, 72, 64
2, 26694, Note_off_c, 0, 63, 64
2, 26700, Note_off_c, 0, 61, 64
2, 26722, Control_c, 0, 64, 0
2, 26753, Note_on_c, 0, 70, 47
2, 26756, Control_c, 0, 64, 127
2, 26782, Note_off_c, 0, 67, 64
2, 26787, Note_on_c, 0, 68, 52
2, 26795, Note_on_c, 0, 44, 49
2, 26813, Control_c, 0, 64, 0
2, 26827, Note_off_c, 0, 70, 64
2, 26836, Control_c, 0, 64, 127
2, 26895, Note_on_c, 0, 67, 34
2, 26912, Note_off_c, 0, 68, 64
2, 26961, Note_on_c, 0, 68, 59
2, 26976, Note_on_c, 0, 51, 39
2, 26979, Note_off_c, 0, 67, 64
2, 26979, Note_on_c, 0, 60, 42
2, 26984, Control_c, 0, 64, 0
2, 27011, Control_c, 0, 64, 127
2, 27093, Control_c, 0, 64, 0
2, 27096, Note_off_c, 0, 51, 64
2, 27099, Note_off_c, 0, 60, 64
2, 27116, Control_c, 0, 64, 127
2, 27170, Note_off_c, 0, 44, 64
2, 27172, Note_on_c, 0, 60, 50
2, 27191, Note_off_c, 0, 68, 64
2, 27264, Control_c, 0, 64, 0
2, 27291, Control_c, 0, 64, 127
2, 27362, Note_on_c, 0, 41, 44
2, 27392, Control_c, 0, 64, 0
2, 27396, Note_on_c, 0, 68, 58
2, 27411, Note_off_c, 0, 60, 64
2, 27429, Control_c, 0, 64, 127
2, 27479, Note_on_c, 0, 70, 51
2, 27516, Note_off_c, 0, 68, 64
2, 27558, Note_on_c, 0, 72, 58
2, 27560, Note_on_c, 0, 65, 39
2, 27566, Note_on_c, 0, 56, 32
2, 27577, Note_off_c, 0, 70, 64
2, 27578, Control_c, 0, 64, 0
2, 27612, Control_c, 0, 64, 127
2, 27632, Note_off_c, 0, 65, 64
2, 27638, Note_off_c, 0, 56, 64
2, 27672, Control_c, 0, 64, 0
2, 27685, Note_off_c, 0, 41, 64
2, 27709, Control_c, 0, 64, 127
2, 27743, Note_on_c, 0, 56, 32
2, 27744, Control_c, 0, 64, 127
2, 27752, Note_on_c, 0, 65, 39
2, 27755, Note_on_c, 0, 60, 27
2, 27815, Note_off_c, 0, 56, 64
2, 27824, Note_off_c, 0, 65, 64
2, 27827, Note_off_c, 0, 60, 64
2, 27832, Note_on_c, 0, 73, 50
2, 27849, Note_off_c, 0, 72, 64
2, 27858, Control_c, 0, 64, 0
2, 27892, Control_c, 0, 64, 127
2, 27924, Note_on_c, 0, 72, 56
2, 27929, Note_on_c, 0, 48, 50
2, 27935, Control_c, 0, 64, 0
2, 27942, Note_off_c, 0, 73, 64
2, 27946, Control_c, 0, 64, 127
2, 28003, Note_on_c, 0, 71, 52
2, 28018, Note_off_c, 0, 72, 64
2, 28024, Control_c, 0, 64, 127
2, 28097, Note_on_c, 0, 70, 58
2, 28097, Control_c, 0, 64, 0
2, 28107, Note_off_c, 0, 71, 64
2, 28107, Note_on_c, 0, 64, 26
2, 28111, Note_on_c, 0, 58, 32
2, 28131, Control_c, 0, 64, 127
2, 28179, Note_off_c, 0, 64, 64
2, 28183, Note_off_c, 0, 58, 64
2, 28215, Control_c, 0, 64, 0
2, 28226, Control_c, 0, 64, 127
2, 28268, Note_off_c, 0, 48, 64
2, 28291, Note_on_c, 0, 64, 32
2, 28294, Note_on_c, 0, 58, 29
2, 28352, Note_on_c, 0, 68, 51
2, 28363, Note_off_c, 0, 64, 64
2, 28366, Note_off_c, 0, 58, 64
2, 28369, Note_off_c, 0, 70, 64
2, 28377, Control_c, 0, 64, 0
2, 28411, Control_c, 0, 64, 127
2, 28442, Note_on_c, 0, 67, 41
2, 28453, Note_off_c, 0, 68, 64
2, 28467, Note_on_c, 0, 68, 49
2, 28479, Note_off_c, 0, 67, 64
2, 28488, Note_on_c, 0, 48, 49
2, 28496, Control_c, 0, 64, 0
2, 28504, Note_on_c, 0, 67, 44
2, 28512, Note_off_c, 0, 68, 64
2, 28535, Control_c, 0, 64, 127
2, 28592, Note_on_c, 0, 65, 54
2, 28606, Note_off_c, 0, 67, 64
2, 28661, Note_on_c, 0, 67, 50
2, 28666, Control_c, 0, 64, 0
2, 28677, Note_on_c, 0, 60, 25
2, 28683, Note_off_c, 0, 65, 64
2, 28684, Note_on_c, 0, 58, 36
2, 28695, Control_c, 0, 64, 127
2, 28737, Note_on_c, 0, 68, 58
2, 28749, Note_off_c, 0, 60, 64
2, 28756, Note_off_c, 0, 58, 64
2, 28768, Note_off_c, 0, 67, 64
2, 28776, Control_c, 0, 64, 0
2, 28815, Control_c, 0, 64, 127
2, 28840, Note_on_c, 0, 60, 36
2, 28844, Note_on_c, 0, 58, 32
2, 28847, Note_on_c, 0, 64, 44
2, 28856, Note_off_c, 0, 68, 64
2, 28905, Note_off_c, 0, 48, 64
2, 28912, Note_off_c, 0, 60, 64
2, 28916, Note_off_c, 0, 58, 64
2, 28946, Control_c, 0, 64, 0
2, 28975, Control_c, 0, 64, 127
2, 29048, Note_on_c, 0, 65, 57
2, 29048, Note_on_c, 0, 41, 52
2, 29058, Control_c, 0, 64, 0
2, 29065, Note_off_c, 0, 64, 64
2, 29095, Control_c, 0, 64, 127
2, 29215, Note_on_c, 0, 77, 49
2, 29250, Note_on_c, 0, 49, 42
2, 29252, Note_on_c, 0, 56, 42
2, 29254, Note_on_c, 0, 61, 42
2, 29267, Note_on_c, 0, 75, 63
2, 29270, Control_c, 0, 64, 0
2, 29284, Note_off_c, 0, 77, 64
2, 29286, Control_c, 0, 64, 127
2, 29338, Control_c, 0, 64, 0
2, 29375, Control_c, 0, 64, 127
2, 29410, Note_off_c, 0, 49, 64
2, 29412, Note_off_c, 0, 56, 64
2, 29414, Note_off_c, 0, 61, 64
2, 29442, Note_off_c, 0, 41, 64
2, 29479, Note_on_c, 0, 63, 47
2, 29484, Control_c, 0, 64, 0
2, 29493, Note_off_c, 0, 65, 64
2, 29494, Note_on_c, 0, 43, 47
2, 29503, Note_on_c, 0, 51, 50
2, 29503, Control_c, 0, 64, 127
2, 29528, Note_off_c, 0, 75, 64
2, 29550, Control_c, 0, 64, 0
2, 29566, Control_c, 0, 64, 127
2, 29585, Note_on_c, 0, 73, 49
2, 29603, Note_off_c, 0, 63, 64
2, 29682, Note_on_c, 0, 44, 58
2, 29686, Note_on_c, 0, 72, 47
2, 29696, Note_off_c, 0, 43, 64
2, 29699, Note_off_c, 0, 73, 64
2, 29702, Control_c, 0, 64, 0
2, 29709, Note_off_c, 0, 51, 64
2, 29728, Control_c, 0, 64, 127
2, 29764, Control_c, 0, 64, 0
2, 29781, Note_on_c, 0, 73, 46
2, 29783, Control_c, 0, 64, 127
2, 29820, Note_off_c, 0, 72, 64
2, 29868, Note_on_c, 0, 75, 62
2, 29873, Note_on_c, 0, 68, 43
2, 29875, Note_on_c, 0, 60, 51
2, 29883, Control_c, 0, 64, 0
2, 29893, Note_off_c, 0, 73, 64
2, 29897, Control_c, 0, 64, 127
2, 29961, Note_off_c, 0, 44, 64
2, 29982, Control_c, 0, 64, 0
2, 30000, Note_off_c, 0, 68, 64
2, 30002, Note_off_c, 0, 60, 64
2, 30008, Control_c, 0, 64, 127
2, 30137, Note_on_c, 0, 79, 58
2, 30158, Note_off_c, 0, 75, 64
2, 30163, Control_c, 0, 64, 0
2, 30177, Control_c, 0, 64, 127
2, 30265, Note_on_c, 0, 77, 44
2, 30290, Note_off_c, 0, 79, 64
2, 30389, Note_on_c, 0, 75, 56
2, 30402, Note_on_c, 0, 39, 49
2, 30411, Note_off_c, 0, 77, 64
2, 30417, Control_c, 0, 64, 0
2, 30462, Control_c, 0, 64, 127
2, 30497, Note_on_c, 0, 74, 47
2, 30502, Note_off_c, 0, 75, 64
2, 30579, Note_on_c, 0, 73, 58
2, 30583, Note_on_c, 0, 61, 41
2, 30595, Note_on_c, 0, 67, 20
2, 30600, Note_off_c, 0, 74, 64
2, 30608, Control_c, 0, 64, 0
2, 30622, Control_c, 0, 64, 127
2, 30655, Note_off_c, 0, 61, 64
2, 30667, Note_off_c, 0, 67, 64
2, 30697, Control_c, 0, 64, 0
2, 30730, Note_off_c, 0, 39, 64
2, 30742, Control_c, 0, 64, 127
2, 30762, Note_on_c, 0, 61, 39
2, 30766, Note_on_c, 0, 67, 32
2, 30834, Note_off_c, 0, 61, 64
2, 30838, Note_off_c, 0, 67, 64
2, 30847, Note_on_c, 0, 72, 46
2, 30865, Note_off_c, 0, 73, 64
2, 30888, Control_c, 0, 64, 0
2, 30902, Control_c, 0, 64, 127
2, 30908, Note_on_c, 0, 70, 48
2, 30922, Note_off_c, 0, 72, 64
2, 30941, Note_on_c, 0, 72, 54
2, 30956, Note_off_c, 0, 70, 64
2, 30965, Note_on_c, 0, 51, 48
2, 30969, Note_on_c, 0, 70, 58
2, 30982, Control_c, 0, 64, 0
2, 30991, Note_off_c, 0, 72, 64
2, 31004, Control_c, 0, 64, 127
2, 31067, Note_on_c, 0, 69, 50
2, 31076, Note_off_c, 0, 70, 64
2, 31090, Note_off_c, 0, 51, 64
2, 31142, Note_on_c, 0, 70, 57
2, 31146, Note_on_c, 0, 61, 54
2, 31165, Note_off_c, 0, 69, 64
2, 31233, Note_on_c, 0, 72, 47
2, 31250, Note_off_c, 0, 70, 64
2, 31262, Control_c, 0, 64, 0
2, 31284, Control_c, 0, 64, 127
2, 31310, Note_on_c, 0, 67, 50
2, 31315, Note_on_c, 0, 52, 47
2, 31316, Control_c, 0, 64, 0
2, 31351, Note_off_c, 0, 72, 64
2, 31357, Note_off_c, 0, 61, 64
2, 31363, Control_c, 0, 64, 127
2, 31438, Note_on_c, 0, 70, 46
2, 31460, Note_off_c, 0, 67, 64
2, 31476, Note_on_c, 0, 68, 56
2, 31483, Note_on_c, 0, 53, 39
2, 31498, Note_off_c, 0, 52, 64
2, 31508, Control_c, 0, 64, 0
2, 31513, Note_off_c, 0, 70, 64
2, 31551, Control_c, 0, 64, 127
2, 31596, Note_on_c, 0, 67, 47
2, 31596, Control_c, 0, 64, 0
2, 31610, Note_off_c, 0, 68, 64
2, 31643, Control_c, 0, 64, 127
2, 31649, Note_off_c, 0, 53, 64
2, 31649, Note_on_c, 0, 68, 59
2, 31652, Note_on_c, 0, 60, 32
2, 31652, Note_on_c, 0, 56, 32
2, 31667, Control_c, 0, 64, 0
2, 31680, Note_off_c, 0, 67, 64
2, 31703, Control_c, 0, 64, 127
2, 31724, Note_off_c, 0, 56, 64
2, 31724, Note_off_c, 0, 60, 64
2, 31788, Control_c, 0, 64, 0
2, 31831, Control_c, 0, 64, 127
2, 31836, Note_on_c, 0, 60, 32
2, 31842, Note_on_c, 0, 64, 50
2, 31846, Note_on_c, 0, 56, 28
2, 31850, Note_off_c, 0, 68, 64
2, 31855, Control_c, 0, 64, 127
2, 31908, Note_off_c, 0, 60, 64
2, 31918, Note_off_c, 0, 56, 64
2, 31947, Control_c, 0, 64, 0
2, 31983, Control_c, 0, 64, 127
2, 32044, Note_on_c, 0, 49, 49
2, 32049, Note_on_c, 0, 65, 49
2, 32058, Control_c, 0, 64, 0
2, 32069, Note_off_c, 0, 64, 64
2, 32072, Control_c, 0, 64, 127
2, 32135, Control_c, 0, 64, 127
2, 32170, Note_on_c, 0, 67, 43
2, 32180, Note_off_c, 0, 65, 64
2, 32208, Note_on_c, 0, 68, 56
2, 32208, Control_c, 0, 64, 127
2, 32216, Note_on_c, 0, 65, 39
2, 32222, Control_c, 0, 64, 0
2, 32225, Note_on_c, 0, 58, 31
2, 32227, Note_on_c, 0, 55, 28
2, 32245, Note_off_c, 0, 67, 64
2, 32261, Control_c, 0, 64, 127
2, 32288, Note_off_c, 0, 65, 64
2, 32297, Note_off_c, 0, 58, 64
2, 32299, Note_off_c, 0, 55, 64
2, 32338, Control_c, 0, 64, 0
2, 32352, Control_c, 0, 64, 127
2, 32377, Note_off_c, 0, 49, 64
2, 32388, Note_on_c, 0, 65, 27
2, 32388, Note_on_c, 0, 55, 17
2, 32390, Note_on_c, 0, 70, 54
2, 32393, Note_on_c, 0, 58, 32
2, 32430, Note_off_c, 0, 68, 64
2, 32460, Note_off_c, 0, 55, 64
2, 32460, Note_off_c, 0, 65, 64
2, 32465, Note_off_c, 0, 58, 64
2, 32488, Control_c, 0, 64, 127
2, 32502, Control_c, 0, 64, 0
2, 32541, Control_c, 0, 64, 127
2, 32580, Note_on_c, 0, 48, 46
2, 32588, Note_on_c, 0, 72, 52
2, 32595, Control_c, 0, 64, 0
2, 32600, Note_off_c, 0, 70, 64
2, 32620, Control_c, 0, 64, 127
2, 32681, Note_on_c, 0, 73, 43
2, 32692, Note_off_c, 0, 72, 64
2, 32745, Note_on_c, 0, 72, 52
2, 32754, Note_on_c, 0, 64, 29
2, 32759, Note_off_c, 0, 73, 64
2, 32759, Note_on_c, 0, 58, 35
2, 32768, Control_c, 0, 64, 0
2, 32823, Control_c, 0, 64, 127
2, 32826, Note_off_c, 0, 64, 64
2, 32831, Note_off_c, 0, 58, 64
2, 32875, Control_c, 0, 64, 0
2, 32900, Control_c, 0, 64, 127
2, 32935, Note_on_c, 0, 64, 25
2, 32935, Note_on_c, 0, 58, 39
2, 33007, Note_off_c, 0, 58, 64
2, 33007, Note_off_c, 0, 64, 64
2, 33040, Note_on_c, 0, 67, 51
2, 33048, Control_c, 0, 64, 0
2, 33091, Note_off_c, 0, 72, 64
2, 33103, Control_c, 0, 64, 127
2, 33109, Note_off_c, 0, 48, 64
2, 33120, Note_on_c, 0, 65, 45
2, 33122, Note_off_c, 0, 67, 64
2, 33144, Note_on_c, 0, 67, 50
2, 33149, Note_off_c, 0, 65, 64
2, 33156, Control_c, 0, 64, 0
2, 33160, Note_on_c, 0, 49, 39
2, 33168, Note_on_c, 0, 65, 64
2, 33192, Control_c, 0, 64, 127
2, 33194, Note_off_c, 0, 67, 64
2, 33277, Note_on_c, 0, 64, 43
2, 33289, Note_off_c, 0, 65, 64
2, 33323, Control_c, 0, 64, 0
2, 33351, Note_on_c, 0, 65, 66
2, 33352, Note_on_c, 0, 58, 21
2, 33352, Note_on_c, 0, 55, 21
2, 33356, Note_off_c, 0, 64, 64
2, 33361, Control_c, 0, 64, 127
2, 33436, Control_c, 0, 64, 0
2, 33445, Note_off_c, 0, 55, 64
2, 33445, Note_off_c, 0, 58, 64
2, 33445, Note_on_c, 0, 67, 39
2, 33466, Note_off_c, 0, 65, 64
2, 33472, Control_c, 0, 64, 127
2, 33524, Note_on_c, 0, 65, 31
2, 33524, Note_on_c, 0, 58, 40
2, 33526, Note_on_c, 0, 68, 54
2, 33526, Note_on_c, 0, 55, 24
2, 33548, Note_off_c, 0, 67, 64
2, 33571, Note_off_c, 0, 49, 64
2, 33596, Note_off_c, 0, 58, 64
2, 33596, Note_off_c, 0, 65, 64
2, 33598, Note_off_c, 0, 55, 64
2, 33601, Note_on_c, 0, 70, 59
2, 33603, Control_c, 0, 64, 0
2, 33623, Note_off_c, 0, 68, 64
2, 33641, Control_c, 0, 64, 127
2, 33687, Note_on_c, 0, 72, 54
2, 33692, Note_on_c, 0, 48, 46
2, 33700, Control_c, 0, 64, 0
2, 33701, Note_off_c, 0, 70, 64
2, 33734, Control_c, 0, 64, 127
2, 33774, Note_on_c, 0, 75, 46
2, 33811, Note_off_c, 0, 72, 64
2, 33812, Note_on_c, 0, 73, 54
2, 33818, Note_off_c, 0, 75, 64
2, 33847, Note_off_c, 0, 48, 64
2, 33857, Note_on_c, 0, 64, 33
2, 33862, Note_on_c, 0, 55, 32
2, 33863, Note_on_c, 0, 72, 49
2, 33872, Control_c, 0, 64, 0
2, 33879, Note_off_c, 0, 73, 64
2, 33903, Control_c, 0, 64, 127
2, 33980, Control_c, 0, 64, 0
2, 34014, Control_c, 0, 64, 127
2, 34038, Note_on_c, 0, 48, 49
2, 34067, Note_off_c, 0, 64, 64
2, 34072, Note_off_c, 0, 55, 64
2, 34125, Note_on_c, 0, 71, 51
2, 34143, Note_off_c, 0, 72, 64
2, 34152, Control_c, 0, 64, 0
2, 34183, Control_c, 0, 64, 127
2, 34244, Note_on_c, 0, 49, 48
2, 34264, Note_on_c, 0, 70, 54
2, 34277, Note_off_c, 0, 48, 64
2, 34277, Control_c, 0, 64, 0
2, 34290, Note_off_c, 0, 71, 64
2, 34311, Control_c, 0, 64, 127
2, 34359, Note_on_c, 0, 72, 39
2, 34371, Note_off_c, 0, 70, 64
2, 34410, Note_on_c, 0, 70, 62
2, 34432, Note_off_c, 0, 72, 64
2, 34441, Control_c, 0, 64, 0
2, 34448, Note_on_c, 0, 63, 32
2, 34457, Control_c, 0, 64, 127
2, 34464, Note_on_c, 0, 55, 21
2, 34472, Note_on_c, 0, 69, 56
2, 34486, Note_off_c, 0, 70, 64
2, 34519, Note_off_c, 0, 49, 64
2, 34520, Note_off_c, 0, 63, 64
2, 34523, Note_on_c, 0, 70, 62
2, 34536, Note_off_c, 0, 55, 64
2, 34540, Note_off_c, 0, 69, 64
2, 34557, Control_c, 0, 64, 0
2, 34591, Control_c, 0, 64, 127
2, 34606, Note_on_c, 0, 72, 54
2, 34608, Note_on_c, 0, 63, 35
2, 34618, Note_on_c, 0, 55, 31
2, 34625, Note_off_c, 0, 70, 64
2, 34663, Note_on_c, 0, 73, 59
2, 34680, Note_off_c, 0, 63, 64
2, 34689, Note_off_c, 0, 72, 64
2, 34690, Note_off_c, 0, 55, 64
2, 34721, Control_c, 0, 64, 0
2, 34737, Control_c, 0, 64, 127
2, 34751, Note_on_c, 0, 77, 56
2, 34759, Note_on_c, 0, 48, 39
2, 34765, Note_off_c, 0, 73, 64
2, 34774, Control_c, 0, 64, 0
2, 34816, Note_on_c, 0, 75, 62
2, 34820, Control_c, 0, 64, 127
2, 34832, Note_off_c, 0, 77, 64
2, 34920, Note_on_c, 0, 80, 56
2, 34933, Note_off_c, 0, 48, 64
2, 34936, Note_on_c, 0, 56, 39
2, 34941, Note_on_c, 0, 63, 32
2, 34942, Note_off_c, 0, 75, 64
2, 34963, Control_c, 0, 64, 0
2, 34998, Control_c, 0, 64, 127
2, 35054, Control_c, 0, 64, 0
2, 35100, Control_c, 0, 64, 127
2, 35126, Note_on_c, 0, 53, 41
2, 35151, Note_off_c, 0, 56, 64
2, 35156, Note_off_c, 0, 63, 64
2, 35243, Control_c, 0, 64, 0
2, 35278, Control_c, 0, 64, 127
2, 35338, Note_on_c, 0, 51, 48
2, 35341, Note_on_c, 0, 69, 50
2, 35342, Control_c, 0, 64, 0
2, 35364, Note_off_c, 0, 53, 64
2, 35379, Control_c, 0, 64, 127
2, 35390, Note_off_c, 0, 80, 64
2, 35455, Note_on_c, 0, 70, 46
2, 35482, Note_off_c, 0, 69, 64
2, 35556, Note_on_c, 0, 62, 18
2, 35556, Note_on_c, 0, 58, 32
2, 35564, Note_on_c, 0, 79, 48
2, 35567, Note_on_c, 0, 68, 39
2, 35586, Note_off_c, 0, 70, 64
2, 35586, Control_c, 0, 64, 0
2, 35606, Control_c, 0, 64, 127
2, 35622, Control_c, 0, 64, 0
2, 35638, Note_off_c, 0, 51, 64
2, 35659, Control_c, 0, 64, 127
2, 35660, Control_c, 0, 64, 0
2, 35678, Note_on_c, 0, 77, 51
2, 35684, Control_c, 0, 64, 127
2, 35691, Note_off_c, 0, 79, 64
2, 35700, Control_c, 0, 64, 0
2, 35724, Control_c, 0, 64, 127
2, 35770, Note_off_c, 0, 58, 64
2, 35770, Note_off_c, 0, 62, 64
2, 35781, Note_off_c, 0, 68, 64
2, 35786, Note_on_c, 0, 58, 19
2, 35793, Note_on_c, 0, 61, 26
2, 35796, Note_on_c, 0, 67, 18
2, 35799, Note_on_c, 0, 75, 42
2, 35802, Note_off_c, 0, 77, 64
2, 35866, Control_c, 0, 64, 0
2, 35886, Control_c, 0, 64, 127
2, 35912, Note_off_c, 0, 67, 64
2, 35916, Note_on_c, 0, 63, 51
2, 35940, Control_c, 0, 64, 0
2, 35944, Note_off_c, 0, 61, 64
2, 35954, Note_off_c, 0, 75, 64
2, 35960, Note_off_c, 0, 58, 64
2, 35964, Control_c, 0, 64, 127
2, 35980, Control_c, 0, 64, 0
2, 36004, Control_c, 0, 64, 127
2, 36072, Note_on_c, 0, 73, 46
2, 36082, Note_on_c, 0, 44, 35
2, 36095, Note_off_c, 0, 63, 64
2, 36117, Control_c, 0, 64, 0
2, 36143, Control_c, 0, 64, 127
2, 36200, Note_on_c, 0, 72, 44
2, 36212, Note_off_c, 0, 73, 64
2, 36348, Note_off_c, 0, 44, 64
2, 36356, Note_on_c, 0, 68, 51
2, 36362, Note_on_c, 0, 51, 23
2, 36368, Note_off_c, 0, 72, 64
2, 36379, Note_on_c, 0, 60, 23
2, 36392, Control_c, 0, 64, 0
2, 36397, Control_c, 0, 64, 0
2, 36423, Control_c, 0, 64, 127
2, 36437, Control_c, 0, 64, 127
2, 36672, Control_c, 0, 64, 0
2, 36693, Note_on_c, 0, 66, 46
2, 36704, Control_c, 0, 64, 0
2, 36716, Note_off_c, 0, 68, 64
2, 36717, Control_c, 0, 64, 127
2, 36729, Note_off_c, 0, 60, 64
2, 36729, Control_c, 0, 64, 127
2, 36784, Note_off_c, 0, 51, 64
2, 36876, Control_c, 0, 64, 0
2, 36914, Control_c, 0, 64, 127
2, 36984, Control_c, 0, 64, 0
2, 37007, Note_on_c, 0, 65, 32
2, 37008, Note_on_c, 0, 61, 26
2, 37008, Note_on_c, 0, 56, 17
2, 37008, Note_on_c, 0, 49, 24
2, 37009, Control_c, 0, 64, 127
2, 37020, Control_c, 0, 64, 0
2, 37025, Note_off_c, 0, 66, 64
2, 37058, Control_c, 0, 64, 127
2, 37156, Control_c, 0, 64, 0
2, 37159, Note_off_c, 0, 56, 64
2, 37161, Note_off_c, 0, 49, 64
2, 37164, Note_off_c, 0, 61, 64
2, 37175, Note_off_c, 0, 65, 64
2, 37194, Control_c, 0, 64, 127
2, 37204, Note_on_c, 0, 56, 32
2, 37206, Note_on_c, 0, 49, 26
2, 37207, Note_on_c, 0, 61, 32
2, 37208, Note_on_c, 0, 65, 26
2, 37230, Note_off_c, 0, 56, 64
2, 37233, Note_off_c, 0, 61, 64
2, 37238, Note_off_c, 0, 65, 64
2, 37239, Note_off_c, 0, 49, 64
2, 37256, Note_on_c, 0, 56, 17
2, 37259, Note_on_c, 0, 65, 35
2, 37260, Note_on_c, 0, 61, 37
2, 37268, Note_on_c, 0, 49, 37
2, 37276, Control_c, 0, 64, 0
2, 37300, Control_c, 0, 64, 0
2, 37311, Control_c, 0, 64, 127
2, 37338, Control_c, 0, 64, 127
2, 37424, Note_off_c, 0, 56, 64
2, 37427, Note_off_c, 0, 65, 64
2, 37428, Note_off_c, 0, 61, 64
2, 37436, Note_off_c, 0, 49, 64
2, 37503, Note_on_c, 0, 66, 48
2, 37504, Note_on_c, 0, 42, 39
2, 37506, Note_on_c, 0, 58, 49
2, 37522, Control_c, 0, 64, 0
2, 37544, Control_c, 0, 64, 127
2, 37556, Control_c, 0, 64, 0
2, 37591, Control_c, 0, 64, 127
2, 37665, Note_off_c, 0, 66, 64
2, 37666, Note_off_c, 0, 42, 64
2, 37668, Note_off_c, 0, 58, 64
2, 37691, Note_on_c, 0, 65, 44
2, 37732, Note_on_c, 0, 60, 28
2, 37732, Note_on_c, 0, 54, 39
2, 37732, Note_on_c, 0, 44, 34
2, 37735, Note_on_c, 0, 63, 41
2, 37757, Note_off_c, 0, 65, 64
2, 37763, Control_c, 0, 64, 0
2, 37798, Control_c, 0, 64, 127
2, 37802, Control_c, 0, 64, 0
2, 37813, Note_off_c, 0, 44, 64
2, 37822, Note_off_c, 0, 54, 64
2, 37822, Note_off_c, 0, 60, 64
2, 37824, Control_c, 0, 64, 127
2, 37827, Note_off_c, 0, 63, 64
2, 37904, Note_on_c, 0, 44, 37
2, 37911, Note_on_c, 0, 62, 34
2, 37912, Note_on_c, 0, 60, 32
2, 37913, Note_on_c, 0, 53, 37
2, 37948, Note_off_c, 0, 44, 64
2, 37956, Note_off_c, 0, 60, 64
2, 37960, Note_on_c, 0, 44, 37
2, 37963, Note_on_c, 0, 63, 43
2, 37964, Note_on_c, 0, 60, 32
2, 37964, Note_on_c, 0, 54, 44
2, 37966, Control_c, 0, 64, 0
2, 37974, Note_off_c, 0, 53, 64
2, 37980, Note_off_c, 0, 62, 64
2, 38003, Control_c, 0, 64, 127
2, 38043, Control_c, 0, 64, 0
2, 38078, Control_c, 0, 64, 127
2, 38127, Note_off_c, 0, 63, 64
2, 38128, Note_off_c, 0, 44, 64
2, 38132, Note_off_c, 0, 60, 64
2, 38134, Note_off_c, 0, 54, 64
2, 38204, Note_on_c, 0, 50, 46
2, 38206, Note_on_c, 0, 65, 50
2, 38206, Note_on_c, 0, 60, 49
2, 38208, Note_on_c, 0, 44, 44
2, 38218, Control_c, 0, 64, 0
2, 38240, Control_c, 0, 64, 127
2, 38246, Control_c, 0, 64, 0
2, 38283, Control_c, 0, 64, 127
2, 38366, Note_off_c, 0, 50, 64
2, 38368, Note_off_c, 0, 60, 64
2, 38368, Note_off_c, 0, 65, 64
2, 38370, Note_off_c, 0, 44, 64
2, 38401, Note_on_c, 0, 68, 36
2, 38432, Note_on_c, 0, 60, 35
2, 38432, Note_on_c, 0, 51, 42
2, 38434, Note_on_c, 0, 66, 49
2, 38436, Note_on_c, 0, 44, 34
2, 38438, Control_c, 0, 64, 0
2, 38463, Note_off_c, 0, 68, 64
2, 38473, Control_c, 0, 64, 127
2, 38498, Control_c, 0, 64, 0
2, 38520, Control_c, 0, 64, 127
2, 38530, Note_off_c, 0, 44, 64
2, 38530, Note_off_c, 0, 51, 64
2, 38548, Note_off_c, 0, 66, 64
2, 38549, Note_off_c, 0, 60, 64
2, 38600, Note_on_c, 0, 60, 32
2, 38604, Note_on_c, 0, 65, 42
2, 38604, Note_on_c, 0, 50, 39
2, 38604, Note_on_c, 0, 44, 41
2, 38640, Note_on_c, 0, 51, 44
2, 38644, Note_off_c, 0, 60, 64
2, 38648, Note_off_c, 0, 44, 64
2, 38650, Note_on_c, 0, 66, 52
2, 38656, Note_on_c, 0, 60, 32
2, 38656, Note_on_c, 0, 44, 41
2, 38659, Note_off_c, 0, 50, 64
2, 38660, Control_c, 0, 64, 0
2, 38682, Note_off_c, 0, 65, 64
2, 38697, Control_c, 0, 64, 127
2, 38718, Control_c, 0, 64, 0
2, 38753, Control_c, 0, 64, 127
2, 38799, Note_off_c, 0, 44, 64
2, 38799, Note_off_c, 0, 60, 64
2, 38803, Note_off_c, 0, 51, 64
2, 38818, Note_off_c, 0, 66, 64
2, 38876, Note_on_c, 0, 44, 48
2, 38877, Note_on_c, 0, 67, 50
2, 38879, Note_on_c, 0, 58, 50
2, 38887, Note_on_c, 0, 52, 47
2, 38894, Control_c, 0, 64, 0
2, 38925, Control_c, 0, 64, 127
2, 38940, Control_c, 0, 64, 0
2, 38977, Control_c, 0, 64, 127
2, 38997, Note_off_c, 0, 58, 64
2, 39005, Note_off_c, 0, 52, 64
2, 39016, Note_off_c, 0, 67, 64
2, 39104, Note_on_c, 0, 52, 40
2, 39104, Note_on_c, 0, 37, 44
2, 39105, Note_on_c, 0, 61, 49
2, 39107, Note_on_c, 0, 58, 43
2, 39108, Note_on_c, 0, 70, 47
2, 39126, Control_c, 0, 64, 0
2, 39138, Control_c, 0, 64, 127
2, 39164, Note_off_c, 0, 44, 64
2, 39174, Control_c, 0, 64, 0
2, 39205, Control_c, 0, 64, 127
2, 39268, Note_off_c, 0, 37, 64
2, 39268, Note_off_c, 0, 52, 64
2, 39269, Note_off_c, 0, 61, 64
2, 39271, Note_off_c, 0, 58, 64
2, 39272, Note_off_c, 0, 70, 64
2, 39281, Note_on_c, 0, 49, 44
2, 39287, Note_on_c, 0, 55, 41
2, 39289, Note_on_c, 0, 70, 47
2, 39289, Note_on_c, 0, 64, 49
2, 39316, Note_off_c, 0, 49, 64
2, 39317, Note_off_c, 0, 55, 64
2, 39321, Note_off_c, 0, 70, 64
2, 39325, Note_off_c, 0, 64, 64
2, 39339, Note_on_c, 0, 64, 47
2, 39344, Note_on_c, 0, 70, 48
2, 39347, Note_on_c, 0, 55, 44
2, 39355, Note_on_c, 0, 49, 47
2, 39362, Control_c, 0, 64, 0
2, 39385, Control_c, 0, 64, 127
2, 39406, Control_c, 0, 64, 0
2, 39418, Control_c, 0, 64, 127
2, 39500, Note_off_c, 0, 64, 64
2, 39505, Note_off_c, 0, 70, 64
2, 39508, Note_off_c, 0, 55, 64
2, 39516, Note_off_c, 0, 49, 64
2, 39576, Note_on_c, 0, 68, 49
2, 39583, Note_on_c, 0, 65, 49
2, 39583, Note_on_c, 0, 56, 48
2, 39583, Note_on_c, 0, 49, 40
2, 39596, Control_c, 0, 64, 0
2, 39626, Control_c, 0, 64, 127
2, 39642, Control_c, 0, 64, 0
2, 39665, Control_c, 0, 64, 127
2, 39738, Note_off_c, 0, 68, 64
2, 39745, Note_off_c, 0, 49, 64
2, 39745, Note_off_c, 0, 56, 64
2, 39745, Note_off_c, 0, 65, 64
2, 39828, Note_on_c, 0, 61, 44
2, 39830, Control_c, 0, 64, 0
2, 39836, Note_on_c, 0, 65, 41
2, 39838, Note_on_c, 0, 56, 40
2, 39844, Note_on_c, 0, 49, 28
2, 39862, Control_c, 0, 64, 127
2, 39876, Control_c, 0, 64, 0
2, 39906, Control_c, 0, 64, 127
2, 39974, Note_off_c, 0, 56, 64
2, 39990, Note_off_c, 0, 61, 64
2, 39992, Note_off_c, 0, 65, 64
2, 40000, Note_off_c, 0, 49, 64
2, 40014, Note_on_c, 0, 61, 43
2, 40016, Note_on_c, 0, 65, 41
2, 40021, Note_on_c, 0, 56, 40
2, 40024, Note_on_c, 0, 49, 32
2, 40045, Note_off_c, 0, 65, 64
2, 40045, Note_off_c, 0, 61, 64
2, 40052, Note_off_c, 0, 56, 64
2, 40055, Note_off_c, 0, 49, 64
2, 40060, Control_c, 0, 64, 0
2, 40065, Note_on_c, 0, 65, 44
2, 40068, Note_on_c, 0, 56, 48
2, 40069, Note_on_c, 0, 61, 48
2, 40075, Note_on_c, 0, 49, 41
2, 40101, Control_c, 0, 64, 127
2, 40110, Control_c, 0, 64, 0
2, 40142, Control_c, 0, 64, 127
2, 40168, Control_c, 0, 64, 0
2, 40187, Note_off_c, 0, 65, 64
2, 40209, Control_c, 0, 64, 127
2, 40211, Note_off_c, 0, 56, 64
2, 40212, Note_off_c, 0, 61, 64
2, 40216, Note_off_c, 0, 49, 64
2, 40296, Note_on_c, 0, 66, 55
2, 40296, Note_on_c, 0, 58, 54
2, 40301, Note_on_c, 0, 42, 44
2, 40310, Control_c, 0, 64, 0
2, 40332, Control_c, 0, 64, 127
2, 40340, Control_c, 0, 64, 0
2, 40381, Control_c, 0, 64, 127
2, 40448, Control_c, 0, 64, 0
2, 40458, Note_off_c, 0, 58, 64
2, 40462, Note_on_c, 0, 65, 50
2, 40463, Note_off_c, 0, 42, 64
2, 40474, Note_off_c, 0, 66, 64
2, 40489, Control_c, 0, 64, 127
2, 40500, Note_on_c, 0, 60, 44
2, 40500, Note_on_c, 0, 54, 44
2, 40502, Note_on_c, 0, 63, 52
2, 40504, Note_on_c, 0, 44, 41
2, 40525, Note_off_c, 0, 65, 64
2, 40533, Control_c, 0, 64, 0
2, 40570, Control_c, 0, 64, 127
2, 40590, Control_c, 0, 64, 0
2, 40612, Control_c, 0, 64, 127
2, 40670, Note_off_c, 0, 54, 64
2, 40670, Note_off_c, 0, 60, 64
2, 40677, Note_off_c, 0, 63, 64
2, 40679, Note_off_c, 0, 44, 64
2, 40692, Note_on_c, 0, 60, 37
2, 40696, Note_on_c, 0, 62, 39
2, 40696, Note_on_c, 0, 53, 42
2, 40696, Note_on_c, 0, 44, 41
2, 40736, Note_off_c, 0, 60, 64
2, 40736, Control_c, 0, 64, 0
2, 40740, Note_off_c, 0, 44, 64
2, 40741, Note_on_c, 0, 63, 51
2, 40744, Note_on_c, 0, 60, 37
2, 40749, Note_on_c, 0, 54, 49
2, 40752, Note_on_c, 0, 44, 41
2, 40764, Note_off_c, 0, 53, 64
2, 40766, Note_off_c, 0, 62, 64
2, 40780, Control_c, 0, 64, 127
2, 40813, Control_c, 0, 64, 0
2, 40850, Control_c, 0, 64, 127
2, 40937, Note_off_c, 0, 60, 64
2, 40945, Note_off_c, 0, 44, 64
2, 40952, Note_off_c, 0, 63, 64
2, 40959, Note_off_c, 0, 54, 64
2, 40973, Note_on_c, 0, 65, 57
2, 40976, Note_on_c, 0, 60, 52
2, 40976, Note_on_c, 0, 50, 50
2, 40976, Note_on_c, 0, 44, 48
2, 40990, Control_c, 0, 64, 0
2, 41016, Control_c, 0, 64, 0
2, 41022, Control_c, 0, 64, 127
2, 41060, Control_c, 0, 64, 127
2, 41135, Note_off_c, 0, 65, 64
2, 41138, Note_off_c, 0, 44, 64
2, 41138, Note_off_c, 0, 50, 64
2, 41138, Note_off_c, 0, 60, 64
2, 41196, Note_on_c, 0, 60, 46
2, 41199, Note_on_c, 0, 66, 54
2, 41202, Note_on_c, 0, 51, 57
2, 41202, Note_on_c, 0, 44, 51
2, 41210, Control_c, 0, 64, 0
2, 41240, Control_c, 0, 64, 127
2, 41270, Control_c, 0, 64, 0
2, 41302, Control_c, 0, 64, 127
2, 41322, Note_off_c, 0, 44, 64
2, 41343, Note_off_c, 0, 51, 64
2, 41343, Note_off_c, 0, 60, 64
2, 41350, Note_off_c, 0, 66, 64
2, 41352, Note_on_c, 0, 44, 52
2, 41353, Note_on_c, 0, 53, 55
2, 41356, Note_on_c, 0, 60, 50
2, 41357, Note_on_c, 0, 68, 55
2, 41381, Note_off_c, 0, 53, 64
2, 41382, Note_off_c, 0, 44, 64
2, 41386, Note_off_c, 0, 60, 64
2, 41412, Note_on_c, 0, 70, 66
2, 41412, Note_on_c, 0, 44, 67
2, 41413, Note_on_c, 0, 60, 59
2, 41418, Control_c, 0, 64, 0
2, 41422, Note_on_c, 0, 54, 67
2, 41435, Note_off_c, 0, 68, 64
2, 41444, Control_c, 0, 64, 127
2, 41490, Control_c, 0, 64, 0
2, 41520, Control_c, 0, 64, 127
2, 41542, Control_c, 0, 64, 0
2, 41568, Control_c, 0, 64, 127
2, 41574, Note_off_c, 0, 44, 64
2, 41574, Note_off_c, 0, 70, 64
2, 41575, Note_off_c, 0, 60, 64
2, 41584, Note_off_c, 0, 54, 64
2, 41651, Note_on_c, 0, 72, 74
2, 41655, Note_on_c, 0, 66, 73
2, 41655, Note_on_c, 0, 44, 65
2, 41656, Note_on_c, 0, 60, 59
2, 41656, Note_on_c, 0, 51, 64
2, 41677, Control_c, 0, 64, 0
2, 41691, Control_c, 0, 64, 127
2, 41698, Control_c, 0, 64, 0
2, 41724, Control_c, 0, 64, 127
2, 41822, Control_c, 0, 64, 0
2, 41848, Control_c, 0, 64, 127
2, 41869, Note_off_c, 0, 72, 64
2, 41873, Note_off_c, 0, 44, 64
2, 41873, Note_off_c, 0, 66, 64
2, 41874, Note_off_c, 0, 51, 64
2, 41874, Note_off_c, 0, 60, 64
2, 41886, Note_on_c, 0, 75, 65
2, 41888, Note_on_c, 0, 60, 27
2, 41888, Note_on_c, 0, 56, 52
2, 41888, Note_on_c, 0, 49, 28
2, 41890, Note_on_c, 0, 66, 56
2, 41899, Control_c, 0, 64, 0
2, 41926, Control_c, 0, 64, 127
2, 41957, Control_c, 0, 64, 0
2, 41971, Control_c, 0, 64, 127
2, 41989, Note_off_c, 0, 60, 64
2, 41991, Note_off_c, 0, 66, 64
2, 42010, Note_off_c, 0, 56, 64
2, 42018, Note_off_c, 0, 49, 64
2, 42034, Note_off_c, 0, 75, 64
2, 42056, Note_on_c, 0, 60, 54
2, 42060, Note_on_c, 0, 56, 59
2, 42060, Note_on_c, 0, 49, 56
2, 42061, Note_on_c, 0, 75, 57
2, 42061, Note_on_c, 0, 66, 58
2, 42082, Note_off_c, 0, 49, 64
2, 42087, Note_off_c, 0, 60, 64
2, 42089, Note_off_c, 0, 56, 64
2, 42092, Note_off_c, 0, 66, 64
2, 42092, Note_off_c, 0, 75, 64
2, 42112, Note_on_c, 0, 66, 62
2, 42112, Note_on_c, 0, 60, 62
2, 42112, Note_on_c, 0, 56, 62
2, 42112, Note_on_c, 0, 49, 48
2, 42115, Note_on_c, 0, 75, 65
2, 42116, Control_c, 0, 64, 0
2, 42123, Note_on_c, 0, 49, 48
2, 42128, Note_on_c, 0, 56, 62
2, 42155, Control_c, 0, 64, 127
2, 42179, Control_c, 0, 64, 0
2, 42206, Control_c, 0, 64, 127
2, 42208, Control_c, 0, 64, 0
2, 42247, Control_c, 0, 64, 127
2, 42316, Note_off_c, 0, 60, 64
2, 42316, Note_off_c, 0, 66, 64
2, 42319, Note_off_c, 0, 75, 64
2, 42375, Note_on_c, 0, 73, 63
2, 42381, Note_on_c, 0, 49, 44
2, 42384, Note_on_c, 0, 65, 63
2, 42390, Note_on_c, 0, 61, 40
2, 42390, Note_on_c, 0, 56, 32
2, 42396, Control_c, 0, 64, 0
2, 42403, Note_off_c, 0, 49, 64
2, 42403, Note_off_c, 0, 49, 64
2, 42403, Control_c, 0, 64, 0
2, 42408, Note_off_c, 0, 56, 64
2, 42408, Note_off_c, 0, 56, 64
2, 42435, Control_c, 0, 64, 127
2, 42439, Control_c, 0, 64, 127
2, 42488, Control_c, 0, 64, 0
2, 42527, Control_c, 0, 64, 127
2, 42537, Note_off_c, 0, 73, 64
2, 42543, Note_off_c, 0, 49, 64
2, 42546, Note_off_c, 0, 65, 64
2, 42552, Note_off_c, 0, 56, 64
2, 42552, Note_off_c, 0, 61, 64
2, 42652, Note_on_c, 0, 65, 31
2, 42656, Note_on_c, 0, 61, 26
2, 42656, Note_on_c, 0, 56, 16
2, 42660, Note_on_c, 0, 49, 13
2, 42666, Control_c, 0, 64, 0
2, 42683, Control_c, 0, 64, 0
2, 42703, Control_c, 0, 64, 127
2, 42719, Control_c, 0, 64, 127
2, 42750, Note_off_c, 0, 49, 64
2, 42753, Note_off_c, 0, 61, 64
2, 42766, Note_off_c, 0, 56, 64
2, 42772, Note_off_c, 0, 65, 64
2, 42817, Note_on_c, 0, 61, 28
2, 42817, Note_on_c, 0, 56, 29
2, 42817, Note_on_c, 0, 49, 26
2, 42826, Note_on_c, 0, 65, 26
2, 42848, Note_off_c, 0, 49, 64
2, 42849, Note_off_c, 0, 61, 64
2, 42853, Note_off_c, 0, 65, 64
2, 42862, Note_off_c, 0, 56, 64
2, 42876, Note_on_c, 0, 65, 37
2, 42878, Note_on_c, 0, 61, 37
2, 42884, Note_on_c, 0, 49, 32
2, 42885, Note_on_c, 0, 56, 29
2, 42893, Control_c, 0, 64, 0
2, 42918, Control_c, 0, 64, 127
2, 42946, Control_c, 0, 64, 0
2, 42975, Note_off_c, 0, 65, 64
2, 42983, Control_c, 0, 64, 127
2, 42986, Note_off_c, 0, 56, 64
2, 42988, Note_off_c, 0, 61, 64
2, 43016, Note_off_c, 0, 49, 64
2, 43115, Note_on_c, 0, 66, 44
2, 43115, Note_on_c, 0, 58, 41
2, 43116, Note_on_c, 0, 42, 35
2, 43128, Control_c, 0, 64, 0
2, 43150, Control_c, 0, 64, 127
2, 43173, Control_c, 0, 64, 0
2, 43198, Control_c, 0, 64, 127
2, 43277, Note_off_c, 0, 58, 64
2, 43277, Note_off_c, 0, 66, 64
2, 43278, Note_off_c, 0, 42, 64
2, 43286, Note_on_c, 0, 65, 39
2, 43324, Note_on_c, 0, 63, 40
2, 43324, Note_on_c, 0, 54, 41
2, 43328, Note_on_c, 0, 60, 17
2, 43328, Note_on_c, 0, 44, 29
2, 43353, Note_off_c, 0, 65, 64
2, 43362, Control_c, 0, 64, 0
2, 43399, Control_c, 0, 64, 127
2, 43408, Control_c, 0, 64, 0
2, 43430, Control_c, 0, 64, 127
2, 43464, Note_off_c, 0, 44, 64
2, 43471, Note_off_c, 0, 54, 64
2, 43488, Note_off_c, 0, 63, 64
2, 43492, Note_off_c, 0, 60, 64
2, 43500, Note_on_c, 0, 60, 26
2, 43502, Note_on_c, 0, 62, 32
2, 43502, Note_on_c, 0, 44, 37
2, 43504, Note_on_c, 0, 53, 40
2, 43544, Note_off_c, 0, 60, 64
2, 43546, Note_off_c, 0, 44, 64
2, 43556, Note_on_c, 0, 60, 26
2, 43558, Note_on_c, 0, 63, 43
2, 43560, Note_on_c, 0, 44, 37
2, 43564, Note_on_c, 0, 54, 44
2, 43566, Control_c, 0, 64, 0
2, 43567, Note_off_c, 0, 53, 64
2, 43573, Note_off_c, 0, 62, 64
2, 43604, Control_c, 0, 64, 127
2, 43642, Control_c, 0, 64, 0
2, 43679, Control_c, 0, 64, 127
2, 43749, Note_off_c, 0, 60, 64
2, 43753, Note_off_c, 0, 44, 64
2, 43761, Note_off_c, 0, 63, 64
2, 43774, Note_off_c, 0, 54, 64
2, 43793, Note_on_c, 0, 65, 44
2, 43795, Note_on_c, 0, 60, 41
2, 43795, Note_on_c, 0, 44, 44
2, 43801, Note_on_c, 0, 50, 43
2, 43811, Control_c, 0, 64, 0
2, 43834, Control_c, 0, 64, 127
2, 43846, Control_c, 0, 64, 0
2, 43884, Control_c, 0, 64, 127
2, 43955, Note_off_c, 0, 65, 64
2, 43957, Note_off_c, 0, 44, 64
2, 43957, Note_off_c, 0, 60, 64
2, 43963, Note_off_c, 0, 50, 64
2, 43976, Note_on_c, 0, 68, 42
2, 44008, Note_on_c, 0, 60, 35
2, 44008, Note_on_c, 0, 44, 27
2, 44012, Note_on_c, 0, 66, 49
2, 44014, Note_on_c, 0, 51, 43
2, 44027, Control_c, 0, 64, 0
2, 44037, Note_off_c, 0, 68, 64
2, 44050, Control_c, 0, 64, 127
2, 44091, Control_c, 0, 64, 0
2, 44114, Control_c, 0, 64, 127
2, 44149, Note_off_c, 0, 60, 64
2, 44155, Note_off_c, 0, 51, 64
2, 44155, Note_off_c, 0, 44, 64
2, 44160, Note_off_c, 0, 66, 64
2, 44181, Note_on_c, 0, 44, 44
2, 44187, Note_on_c, 0, 65, 41
2, 44187, Note_on_c, 0, 50, 41
2, 44188, Note_on_c, 0, 60, 27
2, 44225, Note_off_c, 0, 44, 64
2, 44232, Note_off_c, 0, 60, 64
2, 44232, Note_on_c, 0, 66, 52
2, 44233, Note_on_c, 0, 51, 58
2, 44236, Note_on_c, 0, 60, 27
2, 44236, Note_on_c, 0, 44, 44
2, 44241, Note_off_c, 0, 50, 64
2, 44247, Control_c, 0, 64, 0
2, 44262, Note_off_c, 0, 65, 64
2, 44270, Control_c, 0, 64, 127
2, 44307, Control_c, 0, 64, 0
2, 44330, Control_c, 0, 64, 127
2, 44429, Note_off_c, 0, 44, 64
2, 44429, Note_off_c, 0, 60, 64
2, 44457, Note_on_c, 0, 44, 41
2, 44460, Note_on_c, 0, 52, 41
2, 44462, Note_off_c, 0, 51, 64
2, 44463, Note_on_c, 0, 58, 47
2, 44464, Note_off_c, 0, 66, 64
2, 44467, Note_on_c, 0, 67, 44
2, 44475, Control_c, 0, 64, 0
2, 44500, Control_c, 0, 64, 127
2, 44527, Control_c, 0, 64, 0
2, 44550, Control_c, 0, 64, 127
2, 44622, Note_off_c, 0, 52, 64
2, 44625, Note_off_c, 0, 58, 64
2, 44629, Note_off_c, 0, 67, 64
2, 44675, Note_on_c, 0, 70, 49
2, 44676, Note_on_c, 0, 58, 43
2, 44680, Note_on_c, 0, 52, 41
2, 44680, Note_on_c, 0, 37, 44
2, 44681, Note_on_c, 0, 61, 49
2, 44699, Control_c, 0, 64, 0
2, 44717, Control_c, 0, 64, 127
2, 44725, Note_off_c, 0, 44, 64
2, 44755, Control_c, 0, 64, 0
2, 44780, Control_c, 0, 64, 127
2, 44817, Note_off_c, 0, 58, 64
2, 44832, Note_off_c, 0, 70, 64
2, 44834, Note_off_c, 0, 61, 64
2, 44844, Note_off_c, 0, 52, 64
2, 44850, Note_off_c, 0, 37, 64
2, 44856, Note_on_c, 0, 64, 43
2, 44858, Note_on_c, 0, 70, 43
2, 44858, Note_on_c, 0, 55, 43
2, 44861, Note_on_c, 0, 49, 44
2, 44881, Note_off_c, 0, 49, 64
2, 44884, Note_off_c, 0, 64, 64
2, 44888, Note_off_c, 0, 55, 64
2, 44897, Note_off_c, 0, 70, 64
2, 44908, Note_on_c, 0, 49, 49
2, 44912, Note_on_c, 0, 64, 47
2, 44914, Note_on_c, 0, 70, 44
2, 44914, Note_on_c, 0, 55, 43
2, 44927, Control_c, 0, 64, 0
2, 44941, Control_c, 0, 64, 127
2, 44979, Control_c, 0, 64, 0
2, 44997, Control_c, 0, 64, 127
2, 45066, Note_off_c, 0, 49, 64
2, 45070, Note_off_c, 0, 64, 64
2, 45072, Note_off_c, 0, 55, 64
2, 45072, Note_off_c, 0, 70, 64
2, 45140, Note_on_c, 0, 65, 54
2, 45141, Note_on_c, 0, 56, 47
2, 45144, Note_on_c, 0, 68, 52
2, 45146, Note_on_c, 0, 49, 40
2, 45160, Control_c, 0, 64, 0
2, 45193, Control_c, 0, 64, 127
2, 45207, Control_c, 0, 64, 0
2, 45221, Control_c, 0, 64, 127
2, 45302, Note_off_c, 0, 65, 64
2, 45303, Note_off_c, 0, 56, 64
2, 45306, Note_off_c, 0, 68, 64
2, 45308, Note_off_c, 0, 49, 64
2, 45369, Note_on_c, 0, 65, 35
2, 45373, Note_on_c, 0, 61, 39
2, 45376, Note_on_c, 0, 56, 32
2, 45382, Note_on_c, 0, 49, 35
2, 45396, Control_c, 0, 64, 0
2, 45419, Control_c, 0, 64, 127
2, 45440, Control_c, 0, 64, 0
2, 45466, Note_off_c, 0, 49, 64
2, 45472, Note_off_c, 0, 56, 64
2, 45473, Control_c, 0, 64, 127
2, 45476, Note_off_c, 0, 65, 64
2, 45480, Note_off_c, 0, 61, 64
2, 45538, Note_on_c, 0, 61, 37
2, 45542, Note_on_c, 0, 65, 34
2, 45542, Note_on_c, 0, 56, 34
2, 45542, Note_on_c, 0, 49, 36
2, 45569, Note_off_c, 0, 61, 64
2, 45571, Note_off_c, 0, 49, 64
2, 45573, Note_off_c, 0, 56, 64
2, 45573, Note_off_c, 0, 65, 64
2, 45591, Note_on_c, 0, 65, 39
2, 45592, Note_on_c, 0, 56, 43
2, 45592, Note_on_c, 0, 49, 40
2, 45595, Note_on_c, 0, 61, 43
2, 45604, Control_c, 0, 64, 0
2, 45630, Control_c, 0, 64, 127
2, 45676, Control_c, 0, 64, 0
2, 45699, Control_c, 0, 64, 127
2, 45708, Control_c, 0, 64, 0
2, 45734, Control_c, 0, 64, 127
2, 45777, Note_off_c, 0, 65, 64
2, 45778, Note_off_c, 0, 49, 64
2, 45778, Note_off_c, 0, 56, 64
2, 45781, Note_off_c, 0, 61, 64
2, 45817, Note_on_c, 0, 66, 51
2, 45820, Note_on_c, 0, 42, 44
2, 45823, Note_on_c, 0, 58, 50
2, 45823, Control_c, 0, 64, 0
2, 45851, Control_c, 0, 64, 127
2, 45884, Control_c, 0, 64, 0
2, 45910, Control_c, 0, 64, 127
2, 45979, Note_off_c, 0, 66, 64
2, 45982, Note_off_c, 0, 42, 64
2, 45985, Note_off_c, 0, 58, 64
2, 45988, Control_c, 0, 64, 0
2, 45991, Note_on_c, 0, 65, 50
2, 46014, Control_c, 0, 64, 127
2, 46036, Note_on_c, 0, 63, 58
2, 46036, Note_on_c, 0, 60, 42
2, 46036, Note_on_c, 0, 54, 49
2, 46040, Note_on_c, 0, 44, 46
2, 46051, Control_c, 0, 64, 0
2, 46056, Note_off_c, 0, 65, 64
2, 46074, Control_c, 0, 64, 127
2, 46103, Control_c, 0, 64, 0
2, 46131, Control_c, 0, 64, 127
2, 46162, Note_off_c, 0, 44, 64
2, 46162, Note_off_c, 0, 60, 64
2, 46162, Note_off_c, 0, 63, 64
2, 46189, Note_off_c, 0, 54, 64
2, 46203, Note_on_c, 0, 44, 49
2, 46204, Note_on_c, 0, 60, 37
2, 46204, Note_on_c, 0, 53, 48
2, 46206, Note_on_c, 0, 62, 42
2, 46247, Note_off_c, 0, 44, 64
2, 46248, Note_off_c, 0, 60, 64
2, 46252, Note_on_c, 0, 63, 62
2, 46252, Note_on_c, 0, 60, 37
2, 46257, Control_c, 0, 64, 0
2, 46260, Note_on_c, 0, 44, 49
2, 46262, Note_on_c, 0, 54, 59
2, 46265, Note_off_c, 0, 53, 64
2, 46278, Note_off_c, 0, 62, 64
2, 46295, Control_c, 0, 64, 127
2, 46331, Control_c, 0, 64, 0
2, 46354, Control_c, 0, 64, 127
2, 46395, Note_off_c, 0, 60, 64
2, 46395, Note_off_c, 0, 63, 64
2, 46403, Note_off_c, 0, 44, 64
2, 46410, Note_off_c, 0, 54, 64
2, 46475, Note_on_c, 0, 44, 41
2, 46478, Note_on_c, 0, 50, 49
2, 46480, Note_on_c, 0, 65, 56
2, 46480, Note_on_c, 0, 60, 52
2, 46494, Control_c, 0, 64, 0
2, 46528, Control_c, 0, 64, 127
2, 46537, Control_c, 0, 64, 0
2, 46575, Control_c, 0, 64, 127
2, 46637, Note_off_c, 0, 44, 64
2, 46640, Note_off_c, 0, 50, 64
2, 46642, Note_off_c, 0, 60, 64
2, 46642, Note_off_c, 0, 65, 64
2, 46703, Note_on_c, 0, 66, 54
2, 46703, Note_on_c, 0, 44, 51
2, 46704, Note_on_c, 0, 60, 51
2, 46704, Note_on_c, 0, 51, 56
2, 46709, Control_c, 0, 64, 0
2, 46737, Control_c, 0, 64, 127
2, 46774, Control_c, 0, 64, 0
2, 46808, Control_c, 0, 64, 127
2, 46825, Note_off_c, 0, 60, 64
2, 46837, Note_off_c, 0, 51, 64
2, 46846, Note_off_c, 0, 44, 64
2, 46850, Note_off_c, 0, 66, 64
2, 46861, Note_on_c, 0, 68, 49
2, 46864, Note_on_c, 0, 53, 54
2, 46864, Note_on_c, 0, 44, 36
2, 46871, Note_on_c, 0, 60, 50
2, 46894, Note_off_c, 0, 60, 64
2, 46894, Note_off_c, 0, 44, 64
2, 46894, Note_off_c, 0, 53, 64
2, 46916, Note_on_c, 0, 44, 63
2, 46920, Note_on_c, 0, 70, 66
2, 46924, Note_on_c, 0, 60, 63
2, 46924, Note_on_c, 0, 54, 66
2, 46924, Control_c, 0, 64, 0
2, 46944, Note_off_c, 0, 68, 64
2, 46946, Control_c, 0, 64, 127
2, 46989, Control_c, 0, 64, 0
2, 47017, Control_c, 0, 64, 127
2, 47020, Control_c, 0, 64, 0
2, 47042, Control_c, 0, 64, 127
2, 47086, Note_off_c, 0, 44, 64
2, 47090, Note_off_c, 0, 70, 64
2, 47094, Note_off_c, 0, 54, 64
2, 47094, Note_off_c, 0, 60, 64
2, 47159, Note_on_c, 0, 72, 64
2, 47160, Note_on_c, 0, 66, 60
2, 47164, Note_on_c, 0, 51, 52
2, 47165, Note_on_c, 0, 60, 52
2, 47165, Note_on_c, 0, 44, 56
2, 47182, Control_c, 0, 64, 0
2, 47204, Control_c, 0, 64, 0
2, 47219, Control_c, 0, 64, 127
2, 47226, Control_c, 0, 64, 127
2, 47300, Control_c, 0, 64, 0
2, 47321, Note_off_c, 0, 72, 64
2, 47322, Note_off_c, 0, 66, 64
2, 47322, Control_c, 0, 64, 127
2, 47326, Note_off_c, 0, 51, 64
2, 47327, Note_off_c, 0, 44, 64
2, 47327, Note_off_c, 0, 60, 64
2, 47380, Note_on_c, 0, 66, 65
2, 47383, Note_on_c, 0, 75, 63
2, 47384, Note_on_c, 0, 60, 43
2, 47384, Note_on_c, 0, 56, 55
2, 47384, Note_on_c, 0, 49, 54
2, 47408, Control_c, 0, 64, 0
2, 47422, Control_c, 0, 64, 127
2, 47462, Control_c, 0, 64, 0
2, 47486, Note_off_c, 0, 66, 64
2, 47499, Control_c, 0, 64, 127
2, 47504, Note_off_c, 0, 49, 64
2, 47521, Note_off_c, 0, 56, 64
2, 47521, Note_off_c, 0, 60, 64
2, 47553, Note_off_c, 0, 75, 64
2, 47556, Note_on_c, 0, 49, 49
2, 47557, Note_on_c, 0, 75, 49
2, 47560, Note_on_c, 0, 60, 47
2, 47561, Note_on_c, 0, 66, 50
2, 47561, Note_on_c, 0, 56, 49
2, 47584, Note_off_c, 0, 49, 64
2, 47587, Note_off_c, 0, 75, 64
2, 47588, Note_off_c, 0, 60, 64
2, 47589, Note_off_c, 0, 56, 64
2, 47589, Note_off_c, 0, 66, 64
2, 47604, Note_on_c, 0, 60, 66
2, 47604, Note_on_c, 0, 56, 62
2, 47608, Note_on_c, 0, 49, 48
2, 47611, Note_on_c, 0, 66, 66
2, 47614, Note_on_c, 0, 75, 71
2, 47627, Control_c, 0, 64, 0
2, 47649, Control_c, 0, 64, 127
2, 47688, Control_c, 0, 64, 0
2, 47702, Control_c, 0, 64, 127
2, 47829, Note_off_c, 0, 56, 64
2, 47829, Note_off_c, 0, 60, 64
2, 47833, Note_off_c, 0, 49, 64
2, 47836, Note_off_c, 0, 66, 64
2, 47839, Note_off_c, 0, 75, 64
2, 47852, Note_on_c, 0, 73, 73
2, 47852, Note_on_c, 0, 49, 48
2, 47856, Note_on_c, 0, 65, 65
2, 47856, Note_on_c, 0, 61, 52
2, 47856, Note_on_c, 0, 56, 57
2, 47867, Control_c, 0, 64, 0
2, 47903, Control_c, 0, 64, 127
2, 47907, Control_c, 0, 64, 0
2, 47929, Control_c, 0, 64, 127
2, 48014, Note_off_c, 0, 49, 64
2, 48014, Note_off_c, 0, 73, 64
2, 48018, Note_off_c, 0, 56, 64
2, 48018, Note_off_c, 0, 61, 64
2, 48018, Note_off_c, 0, 65, 64
2, 48118, Note_on_c, 0, 73, 41
2, 48120, Note_on_c, 0, 65, 32
2, 48120, Note_on_c, 0, 53, 31
2, 48120, Note_on_c, 0, 46, 39
2, 48124, Note_on_c, 0, 61, 20
2, 48134, Control_c, 0, 64, 0
2, 48147, Control_c, 0, 64, 0
2, 48156, Control_c, 0, 64, 127
2, 48183, Control_c, 0, 64, 127
2, 48207, Note_off_c, 0, 61, 64
2, 48209, Note_off_c, 0, 65, 64
2, 48221, Note_off_c, 0, 53, 64
2, 48227, Note_off_c, 0, 73, 64
2, 48233, Note_off_c, 0, 46, 64
2, 48284, Note_on_c, 0, 53, 43
2, 48288, Note_on_c, 0, 73, 39
2, 48288, Note_on_c, 0, 65, 35
2, 48288, Note_on_c, 0, 61, 39
2, 48288, Note_on_c, 0, 46, 35
2, 48308, Note_off_c, 0, 65, 64
2, 48310, Note_off_c, 0, 46, 64
2, 48312, Note_off_c, 0, 73, 64
2, 48313, Note_off_c, 0, 61, 64
2, 48316, Note_off_c, 0, 53, 64
2, 48332, Note_on_c, 0, 65, 43
2, 48332, Note_on_c, 0, 61, 40
2, 48332, Note_on_c, 0, 53, 43
2, 48332, Note_on_c, 0, 46, 39
2, 48335, Note_on_c, 0, 73, 49
2, 48352, Control_c, 0, 64, 0
2, 48369, Control_c, 0, 64, 127
2, 48414, Control_c, 0, 64, 0
2, 48436, Control_c, 0, 64, 127
2, 48438, Note_off_c, 0, 46, 64
2, 48446, Note_off_c, 0, 53, 64
2, 48458, Note_off_c, 0, 61, 64
2, 48460, Note_off_c, 0, 65, 64
2, 48488, Note_off_c, 0, 73, 64
2, 48562, Control_c, 0, 64, 0
2, 48564, Note_on_c, 0, 53, 46
2, 48567, Note_on_c, 0, 75, 50
2, 48568, Note_on_c, 0, 61, 40
2, 48568, Note_on_c, 0, 46, 41
2, 48570, Note_on_c, 0, 65, 48
2, 48589, Control_c, 0, 64, 127
2, 48632, Control_c, 0, 64, 0
2, 48649, Control_c, 0, 64, 127
2, 48726, Note_off_c, 0, 53, 64
2, 48729, Note_off_c, 0, 75, 64
2, 48730, Note_off_c, 0, 46, 64
2, 48730, Note_off_c, 0, 61, 64
2, 48732, Note_off_c, 0, 65, 64
2, 48752, Note_on_c, 0, 73, 43
2, 48784, Note_on_c, 0, 63, 25
2, 48785, Note_on_c, 0, 72, 49
2, 48788, Note_on_c, 0, 57, 39
2, 48788, Note_on_c, 0, 53, 40
2, 48790, Note_on_c, 0, 46, 34
2, 48812, Control_c, 0, 64, 0
2, 48816, Note_off_c, 0, 73, 64
2, 48824, Control_c, 0, 64, 127
2, 48842, Control_c, 0, 64, 0
2, 48869, Control_c, 0, 64, 127
2, 48897, Note_off_c, 0, 57, 64
2, 48897, Note_off_c, 0, 72, 64
2, 48904, Note_off_c, 0, 46, 64
2, 48918, Note_off_c, 0, 53, 64
2, 48932, Note_off_c, 0, 63, 64
2, 48948, Note_on_c, 0, 71, 39
2, 48948, Note_on_c, 0, 63, 34
2, 48948, Note_on_c, 0, 57, 40
2, 48948, Note_on_c, 0, 53, 39
2, 48948, Note_on_c, 0, 46, 37
2, 48975, Note_off_c, 0, 53, 64
2, 48977, Note_off_c, 0, 46, 64
2, 48978, Note_off_c, 0, 57, 64
2, 48980, Note_off_c, 0, 63, 64
2, 49000, Note_on_c, 0, 63, 49
2, 49000, Note_on_c, 0, 57, 39
2, 49000, Note_on_c, 0, 53, 40
2, 49000, Note_on_c, 0, 46, 44
2, 49003, Note_on_c, 0, 72, 51
2, 49015, Note_off_c, 0, 71, 64
2, 49019, Control_c, 0, 64, 0
2, 49034, Control_c, 0, 64, 127
2, 49092, Control_c, 0, 64, 0
2, 49104, Control_c, 0, 64, 127
2, 49175, Note_off_c, 0, 53, 64
2, 49175, Note_off_c, 0, 57, 64
2, 49199, Note_off_c, 0, 63, 64
2, 49203, Note_off_c, 0, 46, 64
2, 49206, Note_off_c, 0, 72, 64
2, 49237, Note_on_c, 0, 65, 56
2, 49237, Note_on_c, 0, 63, 50
2, 49240, Note_on_c, 0, 57, 44
2, 49240, Note_on_c, 0, 46, 28
2, 49241, Note_on_c, 0, 53, 46
2, 49256, Control_c, 0, 64, 0
2, 49280, Control_c, 0, 64, 127
2, 49299, Control_c, 0, 64, 0
2, 49314, Control_c, 0, 64, 127
2, 49399, Note_off_c, 0, 63, 64
2, 49399, Note_off_c, 0, 65, 64
2, 49402, Note_off_c, 0, 46, 64
2, 49402, Note_off_c, 0, 57, 64
2, 49403, Note_off_c, 0, 53, 64
2, 49459, Control_c, 0, 64, 0
2, 49464, Note_on_c, 0, 61, 44
2, 49464, Note_on_c, 0, 58, 39
2, 49464, Note_on_c, 0, 46, 39
2, 49467, Note_on_c, 0, 70, 46
2, 49468, Note_on_c, 0, 53, 36
2, 49485, Control_c, 0, 64, 127
2, 49536, Control_c, 0, 64, 0
2, 49560, Control_c, 0, 64, 127
2, 49580, Note_off_c, 0, 53, 64
2, 49586, Note_off_c, 0, 46, 64
2, 49587, Note_off_c, 0, 70, 64
2, 49594, Note_off_c, 0, 58, 64
2, 49612, Note_off_c, 0, 61, 64
2, 49624, Note_on_c, 0, 61, 49
2, 49628, Note_on_c, 0, 53, 34
2, 49628, Note_on_c, 0, 46, 44
2, 49631, Note_on_c, 0, 70, 26
2, 49648, Note_off_c, 0, 53, 64
2, 49652, Note_off_c, 0, 70, 64
2, 49653, Note_off_c, 0, 61, 64
2, 49661, Note_off_c, 0, 46, 64
2, 49672, Note_on_c, 0, 53, 44
2, 49672, Note_on_c, 0, 46, 35
2, 49675, Note_on_c, 0, 61, 49
2, 49677, Note_on_c, 0, 70, 49
2, 49679, Control_c, 0, 64, 0
2, 49704, Control_c, 0, 64, 127
2, 49739, Control_c, 0, 64, 0
2, 49765, Control_c, 0, 64, 127
2, 49794, Note_off_c, 0, 46, 64
2, 49798, Note_off_c, 0, 53, 64
2, 49803, Note_off_c, 0, 61, 64
2, 49825, Note_off_c, 0, 70, 64
2, 49892, Note_on_c, 0, 53, 40
2, 49895, Note_on_c, 0, 61, 50
2, 49895, Note_on_c, 0, 46, 47
2, 49898, Note_on_c, 0, 58, 47
2, 49899, Note_on_c, 0, 72, 54
2, 49959, Control_c, 0, 64, 0
2, 49984, Control_c, 0, 64, 127
2, 50054, Note_off_c, 0, 53, 64
2, 50057, Note_off_c, 0, 46, 64
2, 50057, Note_off_c, 0, 61, 64
2, 50060, Note_off_c, 0, 58, 64
2, 50061, Note_off_c, 0, 72, 64
2, 50076, Note_on_c, 0, 70, 41
2, 50080, Note_on_c, 0, 61, 17
2, 50109, Note_on_c, 0, 53, 43
2, 50109, Note_on_c, 0, 41, 40
2, 50111, Note_on_c, 0, 69, 44
2, 50111, Note_on_c, 0, 60, 51
2, 50130, Note_off_c, 0, 61, 64
2, 50130, Note_off_c, 0, 70, 64
2, 50210, Note_off_c, 0, 53, 64
2, 50218, Note_off_c, 0, 41, 64
2, 50248, Note_off_c, 0, 60, 64
2, 50259, Note_off_c, 0, 69, 64
2, 50279, Note_on_c, 0, 67, 42
2, 50280, Note_on_c, 0, 58, 49
2, 50280, Note_on_c, 0, 53, 44
2, 50280, Note_on_c, 0, 41, 42
2, 50310, Note_off_c, 0, 58, 64
2, 50313, Note_off_c, 0, 41, 64
2, 50317, Note_off_c, 0, 53, 64
2, 50328, Note_off_c, 0, 67, 64
2, 50337, Control_c, 0, 64, 0
2, 50344, Note_on_c, 0, 69, 47
2, 50344, Note_on_c, 0, 60, 52
2, 50344, Note_on_c, 0, 53, 34
2, 50350, Note_on_c, 0, 41, 37
2, 50379, Control_c, 0, 64, 127
2, 50519, Note_off_c, 0, 53, 64
2, 50539, Note_off_c, 0, 60, 64
2, 50539, Note_off_c, 0, 69, 64
2, 50543, Note_off_c, 0, 41, 64
2, 50560, Note_on_c, 0, 65, 56
2, 50560, Note_on_c, 0, 57, 54
2, 50560, Note_on_c, 0, 53, 49
2, 50560, Note_on_c, 0, 41, 50
2, 50562, Note_on_c, 0, 63, 52
2, 50576, Control_c, 0, 64, 0
2, 50593, Control_c, 0, 64, 127
2, 50617, Control_c, 0, 64, 0
2, 50659, Control_c, 0, 64, 127
2, 50722, Note_off_c, 0, 41, 64
2, 50722, Note_off_c, 0, 53, 64
2, 50722, Note_off_c, 0, 57, 64
2, 50722, Note_off_c, 0, 65, 64
2, 50724, Note_off_c, 0, 63, 64
2, 50788, Note_on_c, 0, 73, 58
2, 50788, Note_on_c, 0, 61, 54
2, 50788, Note_on_c, 0, 58, 48
2, 50788, Note_on_c, 0, 53, 49
2, 50788, Note_on_c, 0, 46, 42
2, 50795, Note_on_c, 0, 65, 57
2, 50808, Control_c, 0, 64, 0
2, 50824, Control_c, 0, 64, 127
2, 50856, Control_c, 0, 64, 0
2, 50873, Control_c, 0, 64, 127
2, 50904, Note_off_c, 0, 61, 64
2, 50910, Note_off_c, 0, 46, 64
2, 50917, Note_off_c, 0, 65, 64
2, 50918, Note_off_c, 0, 53, 64
2, 50931, Note_off_c, 0, 58, 64
2, 50944, Note_off_c, 0, 73, 64
2, 50952, Note_on_c, 0, 53, 52
2, 50953, Note_on_c, 0, 61, 63
2, 50953, Note_on_c, 0, 46, 57
2, 50958, Note_on_c, 0, 73, 58
2, 50958, Note_on_c, 0, 65, 56
2, 50975, Note_off_c, 0, 46, 64
2, 50976, Note_off_c, 0, 53, 64
2, 50980, Note_off_c, 0, 61, 64
2, 50984, Note_off_c, 0, 73, 64
2, 50985, Note_off_c, 0, 65, 64
2, 51001, Control_c, 0, 64, 0
2, 51004, Note_on_c, 0, 61, 51
2, 51004, Note_on_c, 0, 53, 49
2, 51008, Note_on_c, 0, 73, 62
2, 51008, Note_on_c, 0, 65, 58
2, 51008, Note_on_c, 0, 46, 58
2, 51024, Control_c, 0, 64, 127
2, 51088, Control_c, 0, 64, 0
2, 51104, Control_c, 0, 64, 127
2, 51113, Note_off_c, 0, 53, 64
2, 51116, Note_off_c, 0, 61, 64
2, 51124, Note_off_c, 0, 65, 64
2, 51128, Note_off_c, 0, 46, 64
2, 51164, Note_off_c, 0, 73, 64
2, 51212, Control_c, 0, 64, 0
2, 51216, Note_on_c, 0, 61, 56
2, 51220, Note_on_c, 0, 75, 62
2, 51220, Note_on_c, 0, 65, 63
2, 51220, Note_on_c, 0, 53, 55
2, 51220, Note_on_c, 0, 46, 56
2, 51238, Control_c, 0, 64, 127
2, 51281, Control_c, 0, 64, 0
2, 51304, Control_c, 0, 64, 127
2, 51378, Note_off_c, 0, 61, 64
2, 51382, Note_off_c, 0, 46, 64
2, 51382, Note_off_c, 0, 53, 64
2, 51382, Note_off_c, 0, 65, 64
2, 51382, Note_off_c, 0, 75, 64
2, 51388, Note_on_c, 0, 73, 49
2, 51420, Note_on_c, 0, 63, 46
2, 51423, Note_on_c, 0, 72, 57
2, 51424, Note_on_c, 0, 57, 58
2, 51424, Note_on_c, 0, 53, 51
2, 51427, Note_on_c, 0, 46, 50
2, 51454, Note_off_c, 0, 73, 64
2, 51459, Control_c, 0, 64, 0
2, 51469, Control_c, 0, 64, 127
2, 51492, Control_c, 0, 64, 0
2, 51518, Control_c, 0, 64, 127
2, 51536, Note_off_c, 0, 57, 64
2, 51544, Note_off_c, 0, 53, 64
2, 51545, Note_off_c, 0, 63, 64
2, 51547, Note_off_c, 0, 46, 64
2, 51548, Note_off_c, 0, 72, 64
2, 51590, Note_on_c, 0, 71, 52
2, 51596, Note_on_c, 0, 63, 58
2, 51598, Note_on_c, 0, 46, 56
2, 51600, Note_on_c, 0, 57, 58
2, 51600, Note_on_c, 0, 53, 54
2, 51624, Note_off_c, 0, 63, 64
2, 51626, Note_off_c, 0, 53, 64
2, 51626, Note_off_c, 0, 46, 64
2, 51629, Note_off_c, 0, 57, 64
2, 51644, Note_on_c, 0, 72, 58
2, 51647, Note_on_c, 0, 63, 56
2, 51648, Note_on_c, 0, 53, 51
2, 51652, Note_on_c, 0, 46, 52
2, 51655, Note_on_c, 0, 57, 57
2, 51665, Note_off_c, 0, 71, 64
2, 51666, Control_c, 0, 64, 0
2, 51680, Control_c, 0, 64, 127
2, 51739, Control_c, 0, 64, 0
2, 51749, Control_c, 0, 64, 127
2, 51776, Note_off_c, 0, 57, 64
2, 51800, Note_off_c, 0, 63, 64
2, 51800, Note_off_c, 0, 72, 64
2, 51801, Note_off_c, 0, 53, 64
2, 51805, Note_off_c, 0, 46, 64
2, 51884, Note_on_c, 0, 65, 67
2, 51884, Note_on_c, 0, 63, 63
2, 51884, Note_on_c, 0, 53, 54
2, 51884, Note_on_c, 0, 46, 50
2, 51887, Note_on_c, 0, 57, 50
2, 51896, Control_c, 0, 64, 0
2, 51929, Control_c, 0, 64, 127
2, 51946, Control_c, 0, 64, 0
2, 51960, Control_c, 0, 64, 127
2, 52046, Note_off_c, 0, 46, 64
2, 52046, Note_off_c, 0, 53, 64
2, 52046, Note_off_c, 0, 63, 64
2, 52046, Note_off_c, 0, 65, 64
2, 52049, Note_off_c, 0, 57, 64
2, 52091, Note_on_c, 0, 70, 55
2, 52091, Note_on_c, 0, 46, 50
2, 52092, Note_on_c, 0, 61, 58
2, 52092, Note_on_c, 0, 58, 47
2, 52092, Note_on_c, 0, 53, 39
2, 52111, Control_c, 0, 64, 0
2, 52134, Control_c, 0, 64, 127
2, 52176, Control_c, 0, 64, 0
2, 52197, Note_off_c, 0, 58, 64
2, 52209, Control_c, 0, 64, 127
2, 52235, Note_off_c, 0, 61, 64
2, 52238, Note_off_c, 0, 70, 64
2, 52248, Note_off_c, 0, 46, 64
2, 52249, Note_off_c, 0, 53, 64
2, 52252, Note_on_c, 0, 54, 62
2, 52253, Note_on_c, 0, 70, 58
2, 52257, Note_on_c, 0, 61, 64
2, 52260, Note_on_c, 0, 39, 64
2, 52280, Note_off_c, 0, 61, 64
2, 52282, Note_off_c, 0, 70, 64
2, 52285, Note_off_c, 0, 54, 64
2, 52287, Note_off_c, 0, 39, 64
2, 52305, Note_on_c, 0, 70, 58
2, 52307, Note_on_c, 0, 61, 62
2, 52308, Note_on_c, 0, 39, 58
2, 52312, Note_on_c, 0, 54, 58
2, 52326, Control_c, 0, 64, 0
2, 52339, Control_c, 0, 64, 127
2, 52391, Control_c, 0, 64, 0
2, 52414, Control_c, 0, 64, 127
2, 52459, Note_off_c, 0, 39, 64
2, 52464, Note_off_c, 0, 61, 64
2, 52484, Note_off_c, 0, 54, 64
2, 52498, Note_off_c, 0, 70, 64
2, 52528, Note_on_c, 0, 54, 66
2, 52532, Note_on_c, 0, 72, 67
2, 52532, Note_on_c, 0, 61, 73
2, 52532, Note_on_c, 0, 39, 65
2, 52548, Control_c, 0, 64, 0
2, 52559, Control_c, 0, 64, 127
2, 52606, Control_c, 0, 64, 0
2, 52619, Control_c, 0, 64, 127
2, 52690, Note_off_c, 0, 54, 64
2, 52694, Note_off_c, 0, 39, 64
2, 52694, Note_off_c, 0, 61, 64
2, 52694, Note_off_c, 0, 72, 64
2, 52716, Note_on_c, 0, 70, 56
2, 52752, Note_on_c, 0, 60, 42
2, 52753, Note_on_c, 0, 54, 66
2, 52756, Note_on_c, 0, 68, 54
2, 52756, Note_on_c, 0, 44, 58
2, 52764, Control_c, 0, 64, 0
2, 52781, Note_off_c, 0, 70, 64
2, 52785, Control_c, 0, 64, 127
2, 52828, Control_c, 0, 64, 0
2, 52839, Control_c, 0, 64, 127
2, 52862, Note_off_c, 0, 60, 64
2, 52863, Note_off_c, 0, 54, 64
2, 52866, Note_off_c, 0, 44, 64
2, 52866, Note_off_c, 0, 68, 64
2, 52926, Note_on_c, 0, 67, 54
2, 52932, Note_on_c, 0, 60, 54
2, 52932, Note_on_c, 0, 54, 57
2, 52932, Note_on_c, 0, 44, 55
2, 52959, Note_off_c, 0, 44, 64
2, 52959, Note_off_c, 0, 60, 64
2, 52966, Note_off_c, 0, 54, 64
2, 52985, Note_on_c, 0, 68, 78
2, 52988, Note_on_c, 0, 60, 65
2, 52993, Note_on_c, 0, 54, 65
2, 52996, Note_on_c, 0, 44, 65
2, 53002, Control_c, 0, 64, 0
2, 53008, Note_off_c, 0, 67, 64
2, 53018, Control_c, 0, 64, 127
2, 53044, Control_c, 0, 64, 0
2, 53065, Control_c, 0, 64, 127
2, 53137, Note_off_c, 0, 44, 64
2, 53167, Note_off_c, 0, 60, 64
2, 53168, Note_off_c, 0, 54, 64
2, 53206, Note_off_c, 0, 68, 64
2, 53212, Note_on_c, 0, 54, 62
2, 53213, Note_on_c, 0, 63, 71
2, 53216, Note_on_c, 0, 60, 70
2, 53220, Note_on_c, 0, 44, 64
2, 53223, Control_c, 0, 64, 0
2, 53236, Control_c, 0, 64, 127
2, 53282, Control_c, 0, 64, 0
2, 53298, Control_c, 0, 64, 127
2, 53374, Note_off_c, 0, 54, 64
2, 53375, Note_off_c, 0, 63, 64
2, 53378, Note_off_c, 0, 60, 64
2, 53382, Note_off_c, 0, 44, 64
2, 53444, Note_on_c, 0, 61, 72
2, 53444, Note_on_c, 0, 53, 71
2, 53444, Note_on_c, 0, 37, 72
2, 53446, Note_on_c, 0, 65, 72
2, 53465, Control_c, 0, 64, 0
2, 53503, Control_c, 0, 64, 0
2, 53504, Note_off_c, 0, 37, 64
2, 53504, Note_off_c, 0, 53, 64
2, 53504, Note_off_c, 0, 61, 64
2, 53504, Control_c, 0, 64, 127
2, 53515, Note_off_c, 0, 65, 64
2, 53516, Control_c, 0, 64, 127
2, 53629, Note_on_c, 0, 49, 56
2, 53630, Note_on_c, 0, 56, 64
2, 53634, Note_on_c, 0, 65, 54
2, 53634, Note_on_c, 0, 61, 58
2, 53655, Note_off_c, 0, 49, 64
2, 53660, Note_off_c, 0, 56, 64
2, 53666, Note_off_c, 0, 61, 64
2, 53666, Note_off_c, 0, 65, 64
2, 53684, Note_on_c, 0, 65, 54
2, 53688, Note_on_c, 0, 49, 59
2, 53691, Note_on_c, 0, 56, 64
2, 53692, Note_on_c, 0, 61, 64
2, 53700, Control_c, 0, 64, 0
2, 53714, Control_c, 0, 64, 127
2, 53745, Control_c, 0, 64, 0
2, 53784, Control_c, 0, 64, 127
2, 53887, Note_off_c, 0, 65, 64
2, 53891, Note_off_c, 0, 49, 64
2, 53894, Note_off_c, 0, 56, 64
2, 53895, Note_off_c, 0, 61, 64
2, 53913, Note_on_c, 0, 66, 72
2, 53916, Note_on_c, 0, 42, 64
2, 53918, Note_on_c, 0, 58, 73
2, 53934, Control_c, 0, 64, 0
2, 53956, Control_c, 0, 64, 127
2, 53980, Control_c, 0, 64, 0
2, 53994, Control_c, 0, 64, 127
2, 54075, Note_off_c, 0, 66, 64
2, 54078, Note_off_c, 0, 42, 64
2, 54080, Note_off_c, 0, 58, 64
2, 54091, Note_on_c, 0, 65, 48
2, 54124, Note_on_c, 0, 60, 52
2, 54124, Note_on_c, 0, 44, 55
2, 54128, Note_on_c, 0, 54, 59
2, 54131, Note_on_c, 0, 63, 71
2, 54156, Note_off_c, 0, 65, 64
2, 54160, Control_c, 0, 64, 0
2, 54185, Control_c, 0, 64, 127
2, 54214, Control_c, 0, 64, 0
2, 54236, Control_c, 0, 64, 127
2, 54253, Note_off_c, 0, 44, 64
2, 54253, Note_off_c, 0, 60, 64
2, 54257, Note_off_c, 0, 54, 64
2, 54260, Note_off_c, 0, 63, 64
2, 54296, Note_on_c, 0, 62, 50
2, 54296, Note_on_c, 0, 60, 43
2, 54300, Note_on_c, 0, 44, 55
2, 54305, Note_on_c, 0, 53, 62
2, 54340, Note_off_c, 0, 60, 64
2, 54344, Note_off_c, 0, 44, 64
2, 54355, Note_on_c, 0, 63, 62
2, 54355, Note_on_c, 0, 54, 64
2, 54356, Note_on_c, 0, 60, 43
2, 54356, Note_on_c, 0, 44, 55
2, 54362, Note_off_c, 0, 53, 64
2, 54362, Note_off_c, 0, 62, 64
2, 54368, Control_c, 0, 64, 0
2, 54403, Control_c, 0, 64, 127
2, 54440, Control_c, 0, 64, 0
2, 54465, Control_c, 0, 64, 127
2, 54492, Note_off_c, 0, 54, 64
2, 54492, Note_off_c, 0, 63, 64
2, 54493, Note_off_c, 0, 44, 64
2, 54493, Note_off_c, 0, 60, 64
2, 54576, Note_on_c, 0, 44, 56
2, 54578, Note_on_c, 0, 65, 58
2, 54580, Note_on_c, 0, 60, 58
2, 54585, Note_on_c, 0, 50, 57
2, 54599, Control_c, 0, 64, 0
2, 54621, Control_c, 0, 64, 127
2, 54648, Control_c, 0, 64, 0
2, 54683, Control_c, 0, 64, 127
2, 54738, Note_off_c, 0, 44, 64
2, 54740, Note_off_c, 0, 65, 64
2, 54742, Note_off_c, 0, 60, 64
2, 54747, Note_off_c, 0, 50, 64
2, 54755, Note_on_c, 0, 68, 54
2, 54788, Note_on_c, 0, 60, 43
2, 54790, Note_on_c, 0, 66, 63
2, 54792, Note_on_c, 0, 51, 65
2, 54792, Note_on_c, 0, 44, 57
2, 54804, Control_c, 0, 64, 0
2, 54819, Note_off_c, 0, 68, 64
2, 54838, Control_c, 0, 64, 127
2, 54879, Control_c, 0, 64, 0
2, 54901, Control_c, 0, 64, 127
2, 54908, Note_off_c, 0, 60, 64
2, 54910, Note_off_c, 0, 66, 64
2, 54912, Note_off_c, 0, 44, 64
2, 54912, Note_off_c, 0, 51, 64
2, 54956, Note_on_c, 0, 60, 48
2, 54959, Note_on_c, 0, 65, 52
2, 54960, Note_on_c, 0, 50, 57
2, 54960, Note_on_c, 0, 44, 59
2, 55000, Note_off_c, 0, 60, 64
2, 55004, Note_off_c, 0, 44, 64
2, 55005, Note_on_c, 0, 51, 71
2, 55005, Control_c, 0, 64, 0
2, 55013, Note_on_c, 0, 66, 63
2, 55016, Note_on_c, 0, 60, 48
2, 55016, Note_on_c, 0, 44, 59
2, 55026, Note_off_c, 0, 50, 64
2, 55043, Note_off_c, 0, 65, 64
2, 55046, Control_c, 0, 64, 127
2, 55084, Control_c, 0, 64, 0
2, 55118, Control_c, 0, 64, 127
2, 55153, Note_off_c, 0, 51, 64
2, 55159, Note_off_c, 0, 44, 64
2, 55159, Note_off_c, 0, 60, 64
2, 55181, Note_off_c, 0, 66, 64
2, 55229, Note_on_c, 0, 67, 65
2, 55232, Note_on_c, 0, 52, 58
2, 55233, Note_on_c, 0, 58, 72
2, 55233, Note_on_c, 0, 44, 64
2, 55247, Control_c, 0, 64, 0
2, 55278, Control_c, 0, 64, 127
2, 55285, Control_c, 0, 64, 0
2, 55326, Control_c, 0, 64, 127
2, 55384, Note_off_c, 0, 67, 64
2, 55394, Note_off_c, 0, 52, 64
2, 55395, Note_off_c, 0, 58, 64
2, 55450, Control_c, 0, 64, 0
2, 55452, Note_on_c, 0, 52, 56
2, 55456, Note_on_c, 0, 70, 58
2, 55456, Note_on_c, 0, 64, 58
2, 55456, Note_on_c, 0, 61, 62
2, 55456, Note_on_c, 0, 37, 62
2, 55483, Control_c, 0, 64, 127
2, 55527, Note_off_c, 0, 44, 64
2, 55527, Control_c, 0, 64, 0
2, 55558, Control_c, 0, 64, 127
2, 55582, Note_off_c, 0, 61, 64
2, 55597, Note_off_c, 0, 64, 64
2, 55599, Note_off_c, 0, 52, 64
2, 55609, Note_off_c, 0, 37, 64
2, 55609, Note_off_c, 0, 70, 64
2, 55632, Note_on_c, 0, 70, 51
2, 55632, Note_on_c, 0, 64, 51
2, 55635, Note_on_c, 0, 55, 58
2, 55635, Note_on_c, 0, 49, 62
2, 55661, Note_off_c, 0, 49, 64
2, 55661, Note_off_c, 0, 64, 64
2, 55661, Note_off_c, 0, 70, 64
2, 55664, Note_off_c, 0, 55, 64
2, 55682, Control_c, 0, 64, 0
2, 55688, Note_on_c, 0, 70, 51
2, 55688, Note_on_c, 0, 64, 51
2, 55688, Note_on_c, 0, 55, 58
2, 55692, Note_on_c, 0, 49, 62
2, 55711, Control_c, 0, 64, 127
2, 55730, Control_c, 0, 64, 0
2, 55763, Control_c, 0, 64, 127
2, 55848, Note_off_c, 0, 55, 64
2, 55848, Note_off_c, 0, 64, 64
2, 55848, Note_off_c, 0, 70, 64
2, 55852, Note_off_c, 0, 49, 64
2, 55924, Note_on_c, 0, 68, 56
2, 55924, Note_on_c, 0, 65, 56
2, 55924, Note_on_c, 0, 56, 54
2, 55930, Note_on_c, 0, 49, 49
2, 55936, Control_c, 0, 64, 0
2, 55956, Control_c, 0, 64, 127
2, 55962, Control_c, 0, 64, 0
2, 55991, Control_c, 0, 64, 127
2, 56086, Note_off_c, 0, 56, 64
2, 56086, Note_off_c, 0, 65, 64
2, 56086, Note_off_c, 0, 68, 64
2, 56092, Note_off_c, 0, 49, 64
2, 56162, Note_on_c, 0, 65, 58
2, 56164, Note_on_c, 0, 61, 58
2, 56165, Note_on_c, 0, 56, 51
2, 56165, Note_on_c, 0, 49, 54
2, 56172, Control_c, 0, 64, 0
2, 56188, Control_c, 0, 64, 127
2, 56209, Note_off_c, 0, 49, 64
2, 56214, Note_off_c, 0, 56, 64
2, 56216, Note_off_c, 0, 61, 64
2, 56216, Note_off_c, 0, 65, 64
2, 56216, Control_c, 0, 64, 0
2, 56236, Control_c, 0, 64, 127
2, 56324, Note_on_c, 0, 56, 64
2, 56324, Note_on_c, 0, 49, 63
2, 56325, Note_on_c, 0, 61, 58
2, 56327, Note_on_c, 0, 65, 57
2, 56348, Note_off_c, 0, 49, 64
2, 56350, Note_off_c, 0, 61, 64
2, 56357, Note_off_c, 0, 56, 64
2, 56360, Note_off_c, 0, 65, 64
2, 56372, Note_on_c, 0, 56, 51
2, 56376, Note_on_c, 0, 65, 62
2, 56376, Note_on_c, 0, 61, 63
2, 56376, Note_on_c, 0, 49, 56
2, 56392, Control_c, 0, 64, 0
2, 56417, Control_c, 0, 64, 127
2, 56452, Control_c, 0, 64, 0
2, 56468, Control_c, 0, 64, 127
2, 56568, Note_off_c, 0, 56, 64
2, 56572, Note_off_c, 0, 49, 64
2, 56572, Note_off_c, 0, 61, 64
2, 56572, Note_off_c, 0, 65, 64
2, 56583, Control_c, 0, 64, 0
2, 56596, Note_on_c, 0, 42, 66
2, 56600, Note_on_c, 0, 58, 67
2, 56600, Note_on_c, 0, 54, 58
2, 56602, Note_on_c, 0, 66, 67
2, 56647, Control_c, 0, 64, 127
2, 56672, Control_c, 0, 64, 0
2, 56697, Control_c, 0, 64, 127
2, 56758, Note_off_c, 0, 42, 64
2, 56762, Note_off_c, 0, 54, 64
2, 56762, Note_off_c, 0, 58, 64
2, 56764, Note_off_c, 0, 66, 64
2, 56784, Note_on_c, 0, 65, 48
2, 56807, Control_c, 0, 64, 0
2, 56812, Note_on_c, 0, 60, 43
2, 56812, Note_on_c, 0, 54, 58
2, 56814, Note_on_c, 0, 63, 64
2, 56822, Note_on_c, 0, 44, 55
2, 56850, Note_off_c, 0, 65, 64
2, 56857, Control_c, 0, 64, 127
2, 56863, Control_c, 0, 64, 0
2, 56927, Control_c, 0, 64, 127
2, 56975, Note_off_c, 0, 54, 64
2, 56975, Note_off_c, 0, 60, 64
2, 56977, Note_off_c, 0, 63, 64
2, 56984, Note_on_c, 0, 44, 55
2, 56985, Note_off_c, 0, 44, 64
2, 56989, Note_on_c, 0, 62, 46
2, 56990, Note_on_c, 0, 60, 46
2, 56993, Note_on_c, 0, 53, 58
2, 57019, Control_c, 0, 64, 0
2, 57028, Note_off_c, 0, 44, 64
2, 57034, Note_off_c, 0, 60, 64
2, 57036, Note_on_c, 0, 63, 58
2, 57040, Note_on_c, 0, 60, 46
2, 57040, Note_on_c, 0, 54, 62
2, 57044, Note_on_c, 0, 44, 55
2, 57054, Note_off_c, 0, 53, 64
2, 57061, Note_off_c, 0, 62, 64
2, 57069, Control_c, 0, 64, 127
2, 57087, Control_c, 0, 64, 0
2, 57137, Control_c, 0, 64, 127
2, 57233, Note_off_c, 0, 60, 64
2, 57237, Note_off_c, 0, 44, 64
2, 57247, Note_off_c, 0, 63, 64
2, 57250, Control_c, 0, 64, 0
2, 57261, Note_off_c, 0, 54, 64
2, 57264, Note_on_c, 0, 44, 59
2, 57268, Note_on_c, 0, 65, 66
2, 57268, Note_on_c, 0, 60, 63
2, 57268, Note_on_c, 0, 50, 63
2, 57299, Control_c, 0, 64, 0
2, 57304, Control_c, 0, 64, 127
2, 57349, Control_c, 0, 64, 127
2, 57433, Note_off_c, 0, 44, 64
2, 57437, Note_off_c, 0, 50, 64
2, 57437, Note_off_c, 0, 60, 64
2, 57437, Note_off_c, 0, 65, 64
2, 57472, Control_c, 0, 64, 0
2, 57481, Note_on_c, 0, 66, 58
2, 57481, Note_on_c, 0, 44, 52
2, 57487, Note_on_c, 0, 60, 54
2, 57487, Note_on_c, 0, 51, 58
2, 57515, Control_c, 0, 64, 127
2, 57530, Control_c, 0, 64, 0
2, 57584, Control_c, 0, 64, 127
2, 57593, Note_off_c, 0, 60, 64
2, 57611, Note_off_c, 0, 66, 64
2, 57614, Note_off_c, 0, 44, 64
2, 57623, Note_off_c, 0, 51, 64
2, 57652, Note_on_c, 0, 68, 52
2, 57652, Note_on_c, 0, 60, 58
2, 57652, Note_on_c, 0, 53, 54
2, 57652, Note_on_c, 0, 44, 51
2, 57675, Control_c, 0, 64, 0
2, 57687, Note_off_c, 0, 44, 64
2, 57689, Note_off_c, 0, 60, 64
2, 57697, Note_on_c, 0, 60, 58
2, 57700, Note_on_c, 0, 70, 62
2, 57700, Note_on_c, 0, 54, 62
2, 57700, Note_on_c, 0, 44, 59
2, 57709, Note_off_c, 0, 53, 64
2, 57720, Control_c, 0, 64, 127
2, 57726, Note_off_c, 0, 68, 64
2, 57752, Control_c, 0, 64, 0
2, 57795, Control_c, 0, 64, 127
2, 57826, Note_off_c, 0, 60, 64
2, 57829, Note_off_c, 0, 44, 64
2, 57829, Note_off_c, 0, 54, 64
2, 57829, Note_off_c, 0, 70, 64
2, 57916, Note_on_c, 0, 66, 66
2, 57916, Note_on_c, 0, 60, 56
2, 57916, Note_on_c, 0, 51, 66
2, 57916, Note_on_c, 0, 44, 66
2, 57919, Note_on_c, 0, 72, 71
2, 57939, Control_c, 0, 64, 0
2, 57955, Control_c, 0, 64, 0
2, 57963, Control_c, 0, 64, 127
2, 58000, Control_c, 0, 64, 127
2, 58078, Note_off_c, 0, 44, 64
2, 58078, Note_off_c, 0, 51, 64
2, 58078, Note_off_c, 0, 60, 64
2, 58078, Note_off_c, 0, 66, 64
2, 58081, Note_off_c, 0, 72, 64
2, 58155, Control_c, 0, 64, 0
2, 58160, Note_on_c, 0, 75, 58
2, 58160, Note_on_c, 0, 66, 58
2, 58160, Note_on_c, 0, 60, 48
2, 58160, Note_on_c, 0, 56, 51
2, 58160, Note_on_c, 0, 49, 49
2, 58189, Control_c, 0, 64, 127
2, 58219, Control_c, 0, 64, 0
2, 58243, Control_c, 0, 64, 127
2, 58266, Note_off_c, 0, 56, 64
2, 58266, Note_off_c, 0, 66, 64
2, 58269, Note_off_c, 0, 60, 64
2, 58272, Note_off_c, 0, 49, 64
2, 58303, Note_off_c, 0, 75, 64
2, 58319, Note_on_c, 0, 75, 58
2, 58319, Note_on_c, 0, 66, 62
2, 58320, Note_on_c, 0, 60, 58
2, 58320, Note_on_c, 0, 56, 62
2, 58320, Note_on_c, 0, 49, 48
2, 58344, Note_off_c, 0, 75, 64
2, 58345, Note_off_c, 0, 66, 64
2, 58346, Note_off_c, 0, 49, 64
2, 58346, Note_off_c, 0, 60, 64
2, 58348, Note_off_c, 0, 56, 64
2, 58365, Control_c, 0, 64, 0
2, 58371, Note_on_c, 0, 75, 63
2, 58371, Note_on_c, 0, 66, 62
2, 58372, Note_on_c, 0, 60, 58
2, 58372, Note_on_c, 0, 56, 52
2, 58372, Note_on_c, 0, 49, 49
2, 58410, Control_c, 0, 64, 127
2, 58435, Control_c, 0, 64, 0
2, 58469, Control_c, 0, 64, 127
2, 58583, Note_off_c, 0, 66, 64
2, 58583, Note_off_c, 0, 75, 64
2, 58584, Note_off_c, 0, 49, 64
2, 58584, Note_off_c, 0, 56, 64
2, 58584, Note_off_c, 0, 60, 64
2, 58607, Note_on_c, 0, 73, 59
2, 58608, Note_on_c, 0, 65, 56
2, 58608, Note_on_c, 0, 61, 52
2, 58608, Note_on_c, 0, 56, 48
2, 58608, Note_on_c, 0, 49, 52
2, 58635, Control_c, 0, 64, 0
2, 58645, Control_c, 0, 64, 0
2, 58656, Control_c, 0, 64, 127
2, 58690, Control_c, 0, 64, 127
2, 58769, Note_off_c, 0, 73, 64
2, 58770, Note_off_c, 0, 49, 64
2, 58770, Note_off_c, 0, 56, 64
2, 58770, Note_off_c, 0, 61, 64
2, 58770, Note_off_c, 0, 65, 64
2, 58864, Note_on_c, 0, 73, 33
2, 58864, Note_on_c, 0, 65, 32
2, 58864, Note_on_c, 0, 61, 24
2, 58864, Note_on_c, 0, 53, 24
2, 58865, Note_on_c, 0, 46, 39
2, 58866, Control_c, 0, 64, 0
2, 58911, Control_c, 0, 64, 127
2, 58915, Control_c, 0, 64, 0
2, 58936, Control_c, 0, 64, 127
2, 58976, Note_off_c, 0, 65, 64
2, 58981, Note_off_c, 0, 73, 64
2, 59000, Note_off_c, 0, 53, 64
2, 59005, Note_off_c, 0, 61, 64
2, 59022, Note_off_c, 0, 46, 64
2, 59032, Note_on_c, 0, 73, 39
2, 59032, Note_on_c, 0, 65, 36
2, 59032, Note_on_c, 0, 61, 41
2, 59032, Note_on_c, 0, 53, 33
2, 59032, Note_on_c, 0, 46, 36
2, 59050, Note_off_c, 0, 46, 64
2, 59053, Note_off_c, 0, 73, 64
2, 59057, Note_off_c, 0, 53, 64
2, 59063, Note_off_c, 0, 65, 64
2, 59066, Note_off_c, 0, 61, 64
2, 59076, Note_on_c, 0, 53, 42
2, 59080, Note_on_c, 0, 61, 35
2, 59080, Note_on_c, 0, 46, 27
2, 59082, Note_on_c, 0, 73, 44
2, 59082, Note_on_c, 0, 65, 42
2, 59101, Control_c, 0, 64, 0
2, 59114, Control_c, 0, 64, 127
2, 59146, Control_c, 0, 64, 0
2, 59191, Control_c, 0, 64, 127
2, 59254, Note_off_c, 0, 53, 64
2, 59258, Note_off_c, 0, 46, 64
2, 59258, Note_off_c, 0, 61, 64
2, 59260, Note_off_c, 0, 65, 64
2, 59260, Note_off_c, 0, 73, 64
2, 59304, Control_c, 0, 64, 0
2, 59308, Note_on_c, 0, 65, 46
2, 59312, Note_on_c, 0, 61, 41
2, 59312, Note_on_c, 0, 53, 41
2, 59312, Note_on_c, 0, 46, 41
2, 59314, Note_on_c, 0, 75, 52
2, 59338, Control_c, 0, 64, 127
2, 59381, Control_c, 0, 64, 0
2, 59394, Control_c, 0, 64, 127
2, 59470, Note_off_c, 0, 65, 64
2, 59474, Note_off_c, 0, 46, 64
2, 59474, Note_off_c, 0, 53, 64
2, 59474, Note_off_c, 0, 61, 64
2, 59476, Note_off_c, 0, 75, 64
2, 59481, Note_on_c, 0, 73, 33
2, 59519, Note_on_c, 0, 72, 47
2, 59520, Note_on_c, 0, 63, 33
2, 59520, Note_on_c, 0, 57, 42
2, 59520, Note_on_c, 0, 53, 41
2, 59520, Note_on_c, 0, 46, 37
2, 59533, Note_off_c, 0, 73, 64
2, 59553, Control_c, 0, 64, 0
2, 59583, Control_c, 0, 64, 127
2, 59584, Control_c, 0, 64, 0
2, 59618, Control_c, 0, 64, 127
2, 59672, Note_off_c, 0, 72, 64
2, 59673, Note_off_c, 0, 46, 64
2, 59673, Note_off_c, 0, 53, 64
2, 59673, Note_off_c, 0, 57, 64
2, 59673, Note_off_c, 0, 63, 64
2, 59698, Note_on_c, 0, 71, 42
2, 59700, Note_on_c, 0, 63, 37
2, 59703, Note_on_c, 0, 46, 43
2, 59704, Note_on_c, 0, 57, 46
2, 59706, Note_on_c, 0, 53, 46
2, 59725, Note_off_c, 0, 57, 64
2, 59730, Note_off_c, 0, 63, 64
2, 59732, Note_off_c, 0, 53, 64
2, 59736, Note_off_c, 0, 46, 64
2, 59744, Note_on_c, 0, 46, 41
2, 59747, Note_on_c, 0, 72, 46
2, 59747, Note_on_c, 0, 63, 42
2, 59748, Note_on_c, 0, 57, 42
2, 59748, Note_on_c, 0, 53, 41
2, 59756, Note_off_c, 0, 71, 64
2, 59764, Control_c, 0, 64, 0
2, 59783, Control_c, 0, 64, 127
2, 59833, Control_c, 0, 64, 0
2, 59863, Control_c, 0, 64, 127
2, 59934, Note_off_c, 0, 46, 64
2, 59937, Note_off_c, 0, 63, 64
2, 59937, Note_off_c, 0, 72, 64
2, 59938, Note_off_c, 0, 53, 64
2, 59938, Note_off_c, 0, 57, 64
2, 59984, Note_on_c, 0, 63, 41
2, 59988, Note_on_c, 0, 57, 36
2, 59988, Note_on_c, 0, 53, 37
2, 59991, Note_on_c, 0, 65, 49
2, 59991, Note_on_c, 0, 46, 23
2, 60011, Control_c, 0, 64, 0
2, 60044, Control_c, 0, 64, 0
2, 60044, Control_c, 0, 64, 127
2, 60063, Control_c, 0, 64, 127
2, 60146, Note_off_c, 0, 63, 64
2, 60150, Note_off_c, 0, 53, 64
2, 60150, Note_off_c, 0, 57, 64
2, 60153, Note_off_c, 0, 46, 64
2, 60153, Note_off_c, 0, 65, 64
2, 60224, Note_on_c, 0, 70, 40
2, 60224, Control_c, 0, 64, 0
2, 60228, Note_on_c, 0, 61, 46
2, 60228, Note_on_c, 0, 58, 33
2, 60228, Note_on_c, 0, 46, 36
2, 60231, Note_on_c, 0, 53, 35
2, 60254, Control_c, 0, 64, 127
2, 60291, Control_c, 0, 64, 0
2, 60324, Control_c, 0, 64, 127
2, 60348, Note_off_c, 0, 46, 64
2, 60348, Note_off_c, 0, 58, 64
2, 60352, Note_off_c, 0, 70, 64
2, 60359, Note_off_c, 0, 53, 64
2, 60361, Note_off_c, 0, 61, 64
2, 60388, Note_on_c, 0, 61, 49
2, 60388, Note_on_c, 0, 46, 49
2, 60390, Note_on_c, 0, 70, 34
2, 60392, Note_on_c, 0, 53, 46
2, 60411, Note_off_c, 0, 46, 64
2, 60413, Note_off_c, 0, 70, 64
2, 60413, Note_off_c, 0, 61, 64
2, 60415, Note_off_c, 0, 53, 64
2, 60440, Note_on_c, 0, 61, 49
2, 60443, Note_on_c, 0, 70, 49
2, 60443, Control_c, 0, 64, 0
2, 60444, Note_on_c, 0, 53, 43
2, 60444, Note_on_c, 0, 46, 42
2, 60476, Control_c, 0, 64, 127
2, 60504, Control_c, 0, 64, 0
2, 60534, Control_c, 0, 64, 127
2, 60630, Note_off_c, 0, 61, 64
2, 60633, Note_off_c, 0, 70, 64
2, 60634, Note_off_c, 0, 46, 64
2, 60634, Note_off_c, 0, 53, 64
2, 60656, Note_on_c, 0, 53, 39
2, 60656, Control_c, 0, 64, 0
2, 60660, Note_on_c, 0, 58, 40
2, 60660, Note_on_c, 0, 46, 42
2, 60662, Note_on_c, 0, 72, 47
2, 60662, Note_on_c, 0, 61, 47
2, 60680, Control_c, 0, 64, 127
2, 60723, Control_c, 0, 64, 0
2, 60756, Control_c, 0, 64, 127
2, 60764, Control_c, 0, 64, 0
2, 60788, Control_c, 0, 64, 127
2, 60809, Note_off_c, 0, 53, 64
2, 60813, Note_off_c, 0, 46, 64
2, 60813, Note_off_c, 0, 58, 64
2, 60815, Note_off_c, 0, 61, 64
2, 60815, Note_off_c, 0, 72, 64
2, 60840, Note_on_c, 0, 70, 41
2, 60840, Note_on_c, 0, 61, 41
2, 60872, Note_on_c, 0, 53, 46
2, 60875, Note_on_c, 0, 60, 47
2, 60876, Note_on_c, 0, 41, 46
2, 60879, Note_on_c, 0, 69, 41
2, 60907, Control_c, 0, 64, 0
2, 60911, Note_off_c, 0, 61, 64
2, 60911, Note_off_c, 0, 70, 64
2, 60920, Control_c, 0, 64, 127
2, 60936, Control_c, 0, 64, 0
2, 60960, Control_c, 0, 64, 127
2, 61001, Note_off_c, 0, 53, 64
2, 61004, Note_off_c, 0, 60, 64
2, 61005, Note_off_c, 0, 41, 64
2, 61008, Note_off_c, 0, 69, 64
2, 61044, Control_c, 0, 64, 0
2, 61044, Note_on_c, 0, 41, 46
2, 61048, Note_on_c, 0, 67, 39
2, 61048, Note_on_c, 0, 58, 50
2, 61048, Note_on_c, 0, 53, 46
2, 61068, Control_c, 0, 64, 127
2, 61069, Note_off_c, 0, 41, 64
2, 61073, Note_off_c, 0, 53, 64
2, 61075, Note_off_c, 0, 58, 64
2, 61091, Note_off_c, 0, 67, 64
2, 61100, Note_on_c, 0, 41, 26
2, 61107, Note_on_c, 0, 69, 44
2, 61107, Note_on_c, 0, 60, 46
2, 61111, Note_on_c, 0, 53, 41
2, 61116, Control_c, 0, 64, 0
2, 61130, Control_c, 0, 64, 127
2, 61187, Control_c, 0, 64, 0
2, 61200, Control_c, 0, 64, 127
2, 61290, Note_off_c, 0, 41, 64
2, 61297, Note_off_c, 0, 60, 64
2, 61297, Note_off_c, 0, 69, 64
2, 61301, Note_off_c, 0, 53, 64
2, 61328, Note_on_c, 0, 57, 52
2, 61330, Note_on_c, 0, 65, 52
2, 61331, Note_on_c, 0, 63, 52
2, 61332, Note_on_c, 0, 53, 48
2, 61336, Note_on_c, 0, 41, 47
2, 61351, Control_c, 0, 64, 0
2, 61374, Control_c, 0, 64, 127
2, 61396, Control_c, 0, 64, 0
2, 61410, Control_c, 0, 64, 127
2, 61490, Note_off_c, 0, 57, 64
2, 61492, Note_off_c, 0, 65, 64
2, 61493, Note_off_c, 0, 63, 64
2, 61494, Note_off_c, 0, 53, 64
2, 61498, Note_off_c, 0, 41, 64
2, 61560, Note_on_c, 0, 65, 57
2, 61560, Note_on_c, 0, 61, 56
2, 61562, Note_on_c, 0, 46, 54
2, 61564, Note_on_c, 0, 53, 51
2, 61565, Note_on_c, 0, 73, 58
2, 61585, Control_c, 0, 64, 0
2, 61611, Control_c, 0, 64, 127
2, 61631, Control_c, 0, 64, 0
2, 61654, Control_c, 0, 64, 127
2, 61681, Note_off_c, 0, 61, 64
2, 61681, Note_off_c, 0, 65, 64
2, 61683, Note_off_c, 0, 46, 64
2, 61685, Note_off_c, 0, 53, 64
2, 61686, Note_off_c, 0, 73, 64
2, 61721, Note_on_c, 0, 58, 59
2, 61722, Note_on_c, 0, 46, 59
2, 61724, Note_on_c, 0, 73, 62
2, 61724, Note_on_c, 0, 65, 49
2, 61724, Note_on_c, 0, 53, 33
2, 61730, Note_off_c, 0, 73, 64
2, 61738, Note_off_c, 0, 53, 64
2, 61740, Note_off_c, 0, 65, 64
2, 61750, Note_off_c, 0, 58, 64
2, 61752, Note_off_c, 0, 46, 64
2, 61766, Control_c, 0, 64, 0
2, 61774, Note_on_c, 0, 65, 62
2, 61776, Note_on_c, 0, 73, 63
2, 61776, Note_on_c, 0, 58, 58
2, 61776, Note_on_c, 0, 53, 46
2, 61780, Note_on_c, 0, 46, 51
2, 61804, Control_c, 0, 64, 127
2, 61865, Control_c, 0, 64, 0
2, 61891, Control_c, 0, 64, 127
2, 61903, Note_off_c, 0, 65, 64
2, 61905, Note_off_c, 0, 53, 64
2, 61905, Note_off_c, 0, 58, 64
2, 61905, Note_off_c, 0, 73, 64
2, 61909, Note_off_c, 0, 46, 64
2, 62000, Note_on_c, 0, 75, 73
2, 62000, Note_on_c, 0, 46, 58
2, 62004, Note_on_c, 0, 61, 66
2, 62004, Note_on_c, 0, 53, 63
2, 62007, Note_on_c, 0, 65, 71
2, 62011, Control_c, 0, 64, 0
2, 62030, Control_c, 0, 64, 127
2, 62046, Control_c, 0, 64, 0
2, 62084, Control_c, 0, 64, 127
2, 62162, Note_off_c, 0, 46, 64
2, 62162, Note_off_c, 0, 75, 64
2, 62166, Note_off_c, 0, 53, 64
2, 62166, Note_off_c, 0, 61, 64
2, 62169, Note_off_c, 0, 65, 64
2, 62172, Note_on_c, 0, 73, 48
2, 62200, Note_on_c, 0, 63, 51
2, 62204, Note_on_c, 0, 72, 55
2, 62204, Note_on_c, 0, 57, 59
2, 62204, Note_on_c, 0, 53, 52
2, 62204, Note_on_c, 0, 46, 48
2, 62239, Note_off_c, 0, 73, 64
2, 62241, Control_c, 0, 64, 0
2, 62266, Control_c, 0, 64, 127
2, 62291, Control_c, 0, 64, 0
2, 62310, Control_c, 0, 64, 127
2, 62337, Note_off_c, 0, 72, 64
2, 62352, Note_off_c, 0, 63, 64
2, 62356, Note_off_c, 0, 46, 64
2, 62356, Note_off_c, 0, 53, 64
2, 62356, Note_off_c, 0, 57, 64
2, 62360, Note_on_c, 0, 57, 59
2, 62362, Note_on_c, 0, 71, 58
2, 62364, Note_on_c, 0, 63, 57
2, 62364, Note_on_c, 0, 53, 62
2, 62364, Note_on_c, 0, 46, 62
2, 62383, Note_off_c, 0, 57, 64
2, 62387, Note_off_c, 0, 46, 64
2, 62388, Note_off_c, 0, 53, 64
2, 62391, Note_off_c, 0, 63, 64
2, 62408, Note_on_c, 0, 57, 58
2, 62408, Note_on_c, 0, 53, 58
2, 62410, Note_off_c, 0, 71, 64
2, 62412, Note_on_c, 0, 63, 62
2, 62414, Note_on_c, 0, 72, 64
2, 62416, Note_on_c, 0, 46, 54
2, 62433, Control_c, 0, 64, 0
2, 62459, Control_c, 0, 64, 127
2, 62521, Control_c, 0, 64, 0
2, 62546, Control_c, 0, 64, 127
2, 62618, Note_off_c, 0, 63, 64
2, 62618, Note_off_c, 0, 53, 64
2, 62618, Note_off_c, 0, 57, 64
2, 62624, Note_off_c, 0, 72, 64
2, 62626, Note_off_c, 0, 46, 64
2, 62644, Note_on_c, 0, 65, 67
2, 62646, Note_on_c, 0, 63, 65
2, 62648, Note_on_c, 0, 57, 54
2, 62648, Note_on_c, 0, 53, 57
2, 62651, Note_on_c, 0, 46, 58
2, 62666, Control_c, 0, 64, 0
2, 62691, Control_c, 0, 64, 127
2, 62713, Control_c, 0, 64, 0
2, 62739, Control_c, 0, 64, 127
2, 62806, Note_off_c, 0, 65, 64
2, 62808, Note_off_c, 0, 63, 64
2, 62810, Note_off_c, 0, 53, 64
2, 62810, Note_off_c, 0, 57, 64
2, 62813, Note_off_c, 0, 46, 64
2, 62876, Note_on_c, 0, 61, 54
2, 62876, Note_on_c, 0, 53, 54
2, 62878, Note_on_c, 0, 46, 54
2, 62880, Note_on_c, 0, 70, 58
2, 62880, Note_on_c, 0, 58, 54
2, 62895, Control_c, 0, 64, 0
2, 62910, Control_c, 0, 64, 127
2, 62946, Control_c, 0, 64, 0
2, 62971, Control_c, 0, 64, 127
2, 63019, Note_off_c, 0, 53, 64
2, 63019, Note_off_c, 0, 61, 64
2, 63021, Note_off_c, 0, 46, 64
2, 63023, Note_off_c, 0, 58, 64
2, 63027, Note_off_c, 0, 70, 64
2, 63048, Note_on_c, 0, 39, 63
2, 63051, Note_on_c, 0, 70, 58
2, 63052, Note_on_c, 0, 61, 64
2, 63052, Note_on_c, 0, 54, 65
2, 63075, Note_off_c, 0, 61, 64
2, 63076, Note_off_c, 0, 39, 64
2, 63081, Note_off_c, 0, 54, 64
2, 63081, Note_off_c, 0, 70, 64
2, 63096, Note_on_c, 0, 61, 63
2, 63096, Note_on_c, 0, 54, 62
2, 63100, Note_on_c, 0, 39, 57
2, 63103, Note_on_c, 0, 70, 62
2, 63115, Control_c, 0, 64, 0
2, 63149, Control_c, 0, 64, 127
2, 63175, Control_c, 0, 64, 0
2, 63190, Control_c, 0, 64, 127
2, 63275, Note_off_c, 0, 54, 64
2, 63275, Note_off_c, 0, 61, 64
2, 63279, Note_off_c, 0, 39, 64
2, 63282, Note_off_c, 0, 70, 64
2, 63316, Note_on_c, 0, 61, 73
2, 63316, Note_on_c, 0, 54, 62
2, 63316, Note_on_c, 0, 39, 66
2, 63323, Note_on_c, 0, 72, 67
2, 63333, Control_c, 0, 64, 0
2, 63348, Control_c, 0, 64, 127
2, 63395, Control_c, 0, 64, 0
2, 63429, Control_c, 0, 64, 127
2, 63478, Note_off_c, 0, 39, 64
2, 63478, Note_off_c, 0, 54, 64
2, 63478, Note_off_c, 0, 61, 64
2, 63485, Note_off_c, 0, 72, 64
2, 63491, Note_on_c, 0, 70, 49
2, 63528, Note_on_c, 0, 61, 46
2, 63528, Note_on_c, 0, 54, 62
2, 63528, Note_on_c, 0, 44, 55
2, 63529, Note_on_c, 0, 68, 57
2, 63555, Note_off_c, 0, 70, 64
2, 63560, Control_c, 0, 64, 0
2, 63574, Control_c, 0, 64, 127
2, 63613, Control_c, 0, 64, 0
2, 63628, Control_c, 0, 64, 127
2, 63692, Note_off_c, 0, 44, 64
2, 63692, Note_off_c, 0, 54, 64
2, 63692, Note_off_c, 0, 61, 64
2, 63693, Note_off_c, 0, 68, 64
2, 63712, Note_on_c, 0, 67, 55
2, 63712, Note_on_c, 0, 60, 51
2, 63715, Note_on_c, 0, 54, 65
2, 63716, Note_on_c, 0, 44, 58
2, 63738, Note_off_c, 0, 60, 64
2, 63740, Note_off_c, 0, 44, 64
2, 63748, Note_off_c, 0, 54, 64
2, 63752, Note_off_c, 0, 67, 64
2, 63756, Note_on_c, 0, 68, 70
2, 63756, Note_on_c, 0, 60, 58
2, 63756, Note_on_c, 0, 54, 57
2, 63756, Note_on_c, 0, 44, 58
2, 63776, Control_c, 0, 64, 0
2, 63787, Control_c, 0, 64, 127
2, 63840, Control_c, 0, 64, 0
2, 63854, Control_c, 0, 64, 127
2, 63946, Note_off_c, 0, 44, 64
2, 63946, Note_off_c, 0, 54, 64
2, 63946, Note_off_c, 0, 60, 64
2, 63946, Note_off_c, 0, 68, 64
2, 63992, Note_on_c, 0, 60, 67
2, 63995, Note_on_c, 0, 63, 71
2, 63996, Note_on_c, 0, 54, 66
2, 63996, Note_on_c, 0, 44, 66
2, 64007, Control_c, 0, 64, 0
2, 64026, Control_c, 0, 64, 127
2, 64056, Control_c, 0, 64, 0
2, 64067, Control_c, 0, 64, 127
2, 64154, Note_off_c, 0, 60, 64
2, 64157, Note_off_c, 0, 63, 64
2, 64158, Note_off_c, 0, 44, 64
2, 64158, Note_off_c, 0, 54, 64
2, 64230, Note_on_c, 0, 65, 83
2, 64234, Note_on_c, 0, 61, 74
2, 64234, Note_on_c, 0, 53, 81
2, 64234, Note_on_c, 0, 37, 83
2, 64254, Control_c, 0, 64, 0
2, 64266, Control_c, 0, 64, 127
2, 64287, Control_c, 0, 64, 0
2, 64306, Control_c, 0, 64, 127
2, 64335, Note_off_c, 0, 61, 64
2, 64355, Note_off_c, 0, 65, 64
2, 64359, Note_off_c, 0, 37, 64
2, 64359, Note_off_c, 0, 53, 64
2, 64452, Note_on_c, 0, 65, 54
2, 64456, Note_on_c, 0, 56, 71
2, 64456, Note_on_c, 0, 49, 63
2, 64458, Note_on_c, 0, 61, 63
2, 64485, Note_off_c, 0, 61, 64
2, 64485, Note_off_c, 0, 49, 64
2, 64485, Note_off_c, 0, 56, 64
2, 64494, Note_off_c, 0, 65, 64
2, 64501, Control_c, 0, 64, 0
2, 64504, Note_on_c, 0, 61, 65
2, 64504, Note_on_c, 0, 56, 64
2, 64504, Note_on_c, 0, 49, 62
2, 64506, Note_on_c, 0, 65, 62
2, 64531, Control_c, 0, 64, 127
2, 64534, Control_c, 0, 64, 0
2, 64546, Control_c, 0, 64, 127
2, 64623, Note_off_c, 0, 49, 64
2, 64623, Note_off_c, 0, 56, 64
2, 64623, Note_off_c, 0, 61, 64
2, 64625, Note_off_c, 0, 65, 64
2, 64740, Note_on_c, 0, 66, 71
2, 64744, Note_on_c, 0, 42, 66
2, 64745, Note_on_c, 0, 58, 67
2, 64762, Control_c, 0, 64, 0
2, 64775, Control_c, 0, 64, 127
2, 64781, Control_c, 0, 64, 0
2, 64811, Control_c, 0, 64, 127
2, 64902, Note_off_c, 0, 66, 64
2, 64906, Note_off_c, 0, 42, 64
2, 64907, Note_off_c, 0, 58, 64
2, 64941, Note_on_c, 0, 65, 48
2, 64972, Note_on_c, 0, 60, 39
2, 64972, Note_on_c, 0, 44, 54
2, 64973, Note_on_c, 0, 63, 62
2, 64976, Note_on_c, 0, 54, 62
2, 64990, Control_c, 0, 64, 0
2, 65002, Note_off_c, 0, 65, 64
2, 65017, Control_c, 0, 64, 127
2, 65042, Control_c, 0, 64, 0
2, 65055, Control_c, 0, 64, 127
2, 65093, Note_off_c, 0, 44, 64
2, 65093, Note_off_c, 0, 60, 64
2, 65094, Note_off_c, 0, 63, 64
2, 65097, Note_off_c, 0, 54, 64
2, 65164, Note_on_c, 0, 44, 57
2, 65168, Note_on_c, 0, 60, 44
2, 65168, Note_on_c, 0, 53, 57
2, 65170, Note_on_c, 0, 62, 50
2, 65208, Note_off_c, 0, 44, 64
2, 65212, Note_off_c, 0, 60, 64
2, 65216, Note_on_c, 0, 60, 44
2, 65216, Note_on_c, 0, 44, 57
2, 65220, Note_on_c, 0, 63, 65
2, 65222, Note_on_c, 0, 54, 62
2, 65234, Note_off_c, 0, 53, 64
2, 65235, Control_c, 0, 64, 0
2, 65240, Note_off_c, 0, 62, 64
2, 65260, Control_c, 0, 64, 127
2, 65270, Control_c, 0, 64, 0
2, 65297, Control_c, 0, 64, 127
2, 65322, Note_off_c, 0, 44, 64
2, 65322, Note_off_c, 0, 60, 64
2, 65326, Note_off_c, 0, 63, 64
2, 65328, Note_off_c, 0, 54, 64
2, 65456, Note_on_c, 0, 50, 66
2, 65456, Note_on_c, 0, 44, 67
2, 65457, Note_on_c, 0, 65, 67
2, 65457, Note_on_c, 0, 60, 66
2, 65470, Control_c, 0, 64, 0
2, 65500, Control_c, 0, 64, 127
2, 65515, Control_c, 0, 64, 0
2, 65540, Control_c, 0, 64, 127
2, 65618, Note_off_c, 0, 44, 64
2, 65618, Note_off_c, 0, 50, 64
2, 65619, Note_off_c, 0, 60, 64
2, 65619, Note_off_c, 0, 65, 64
2, 65666, Note_on_c, 0, 68, 56
2, 65682, Control_c, 0, 64, 0
2, 65698, Note_on_c, 0, 66, 62
2, 65700, Note_on_c, 0, 60, 46
2, 65700, Note_on_c, 0, 51, 70
2, 65700, Note_on_c, 0, 44, 57
2, 65729, Note_off_c, 0, 68, 64
2, 65735, Control_c, 0, 64, 127
2, 65750, Control_c, 0, 64, 0
2, 65780, Control_c, 0, 64, 127
2, 65843, Note_off_c, 0, 51, 64
2, 65848, Note_off_c, 0, 44, 64
2, 65860, Note_off_c, 0, 66, 64
2, 65872, Note_off_c, 0, 60, 64
2, 65872, Note_on_c, 0, 44, 62
2, 65874, Note_on_c, 0, 50, 58
2, 65881, Note_on_c, 0, 65, 56
2, 65882, Note_on_c, 0, 60, 50
2, 65912, Control_c, 0, 64, 0
2, 65916, Note_off_c, 0, 44, 64
2, 65926, Note_off_c, 0, 60, 64
2, 65932, Note_on_c, 0, 66, 63
2, 65932, Note_on_c, 0, 44, 62
2, 65936, Note_on_c, 0, 60, 50
2, 65936, Note_on_c, 0, 51, 73
2, 65948, Note_off_c, 0, 50, 64
2, 65961, Note_off_c, 0, 65, 64
2, 65962, Control_c, 0, 64, 0
2, 65964, Control_c, 0, 64, 127
2, 65976, Note_off_c, 0, 44, 64
2, 65980, Note_off_c, 0, 60, 64
2, 65991, Note_off_c, 0, 51, 64
2, 66008, Note_off_c, 0, 66, 64
2, 66015, Control_c, 0, 64, 127
2, 66168, Note_on_c, 0, 58, 66
2, 66168, Note_on_c, 0, 52, 65
2, 66168, Note_on_c, 0, 44, 65
2, 66170, Note_on_c, 0, 67, 65
2, 66182, Control_c, 0, 64, 0
2, 66192, Control_c, 0, 64, 0
2, 66207, Control_c, 0, 64, 127
2, 66244, Control_c, 0, 64, 127
2, 66315, Note_off_c, 0, 52, 64
2, 66315, Note_off_c, 0, 58, 64
2, 66317, Note_off_c, 0, 67, 64
2, 66400, Control_c, 0, 64, 0
2, 66412, Note_on_c, 0, 70, 57
2, 66412, Note_on_c, 0, 61, 58
2, 66412, Note_on_c, 0, 37, 58
2, 66417, Note_on_c, 0, 64, 57
2, 66417, Note_on_c, 0, 52, 56
2, 66435, Note_off_c, 0, 44, 64
2, 66444, Control_c, 0, 64, 127
2, 66462, Control_c, 0, 64, 0
2, 66480, Note_off_c, 0, 37, 64
2, 66480, Note_off_c, 0, 61, 64
2, 66480, Note_off_c, 0, 70, 64
2, 66485, Note_off_c, 0, 52, 64
2, 66485, Note_off_c, 0, 64, 64
2, 66487, Control_c, 0, 64, 127
2, 66612, Note_on_c, 0, 70, 58
2, 66613, Note_on_c, 0, 64, 57
2, 66613, Note_on_c, 0, 55, 57
2, 66613, Note_on_c, 0, 49, 59
2, 66634, Note_off_c, 0, 70, 64
2, 66636, Note_off_c, 0, 49, 64
2, 66641, Note_off_c, 0, 64, 64
2, 66645, Note_off_c, 0, 55, 64
2, 66657, Control_c, 0, 64, 0
2, 66665, Note_on_c, 0, 55, 50
2, 66667, Note_on_c, 0, 70, 62
2, 66668, Note_on_c, 0, 64, 67
2, 66673, Note_on_c, 0, 49, 62
2, 66680, Control_c, 0, 64, 0
2, 66688, Control_c, 0, 64, 127
2, 66724, Control_c, 0, 64, 127
2, 66845, Note_off_c, 0, 55, 64
2, 66847, Note_off_c, 0, 70, 64
2, 66848, Note_off_c, 0, 64, 64
2, 66853, Note_off_c, 0, 49, 64
2, 66924, Note_on_c, 0, 65, 65
2, 66929, Note_on_c, 0, 68, 66
2, 66931, Note_on_c, 0, 49, 64
2, 66932, Note_on_c, 0, 56, 62
2, 66937, Control_c, 0, 64, 0
2, 66947, Control_c, 0, 64, 0
2, 66968, Control_c, 0, 64, 127
2, 66992, Control_c, 0, 64, 127
2, 67086, Note_off_c, 0, 65, 64
2, 67091, Note_off_c, 0, 68, 64
2, 67093, Note_off_c, 0, 49, 64
2, 67094, Note_off_c, 0, 56, 64
2, 67220, Control_c, 0, 64, 0
2, 67224, Note_on_c, 0, 56, 48
2, 67224, Note_on_c, 0, 49, 52
2, 67227, Control_c, 0, 64, 0
2, 67227, Note_on_c, 0, 65, 59
2, 67227, Note_on_c, 0, 61, 59
2, 67264, Control_c, 0, 64, 127
2, 67272, Control_c, 0, 64, 127
2, 67291, Note_off_c, 0, 49, 64
2, 67299, Note_off_c, 0, 56, 64
2, 67302, Note_off_c, 0, 61, 64
2, 67302, Note_off_c, 0, 65, 64
2, 67412, Note_on_c, 0, 65, 54
2, 67416, Note_on_c, 0, 49, 52
2, 67417, Note_on_c, 0, 61, 52
2, 67417, Note_on_c, 0, 56, 62
2, 67436, Note_off_c, 0, 49, 64
2, 67438, Note_off_c, 0, 61, 64
2, 67447, Note_off_c, 0, 65, 64
2, 67450, Note_off_c, 0, 56, 64
2, 67461, Control_c, 0, 64, 0
2, 67468, Note_on_c, 0, 49, 57
2, 67469, Note_on_c, 0, 65, 62
2, 67469, Note_on_c, 0, 61, 64
2, 67474, Note_on_c, 0, 56, 52
2, 67495, Control_c, 0, 64, 127
2, 67500, Control_c, 0, 64, 0
2, 67544, Control_c, 0, 64, 127
2, 67658, Note_off_c, 0, 49, 64
2, 67659, Note_off_c, 0, 61, 64
2, 67659, Note_off_c, 0, 65, 64
2, 67664, Note_off_c, 0, 56, 64
2, 67700, Note_on_c, 0, 66, 71
2, 67703, Control_c, 0, 64, 0
2, 67704, Note_on_c, 0, 58, 71
2, 67704, Note_on_c, 0, 42, 62
2, 67741, Control_c, 0, 64, 0
2, 67747, Control_c, 0, 64, 127
2, 67775, Control_c, 0, 64, 127
2, 67862, Note_off_c, 0, 66, 64
2, 67866, Note_off_c, 0, 42, 64
2, 67866, Note_off_c, 0, 58, 64
2, 67895, Note_on_c, 0, 65, 57
2, 67934, Note_on_c, 0, 63, 67
2, 67934, Note_on_c, 0, 44, 58
2, 67936, Note_on_c, 0, 60, 50
2, 67936, Note_on_c, 0, 54, 64
2, 67941, Control_c, 0, 64, 0
2, 67965, Note_off_c, 0, 65, 64
2, 67977, Control_c, 0, 64, 127
2, 67983, Control_c, 0, 64, 0
2, 68027, Control_c, 0, 64, 127
2, 68072, Note_off_c, 0, 54, 64
2, 68085, Note_off_c, 0, 63, 64
2, 68087, Note_off_c, 0, 60, 64
2, 68091, Note_off_c, 0, 44, 64
2, 68112, Note_on_c, 0, 60, 49
2, 68112, Note_on_c, 0, 44, 58
2, 68115, Note_on_c, 0, 53, 62
2, 68117, Note_on_c, 0, 62, 50
2, 68156, Note_off_c, 0, 44, 64
2, 68156, Note_off_c, 0, 60, 64
2, 68156, Control_c, 0, 64, 0
2, 68163, Note_on_c, 0, 63, 63
2, 68164, Note_on_c, 0, 60, 49
2, 68168, Note_on_c, 0, 54, 65
2, 68168, Note_on_c, 0, 44, 59
2, 68184, Note_off_c, 0, 53, 64
2, 68186, Note_off_c, 0, 62, 64
2, 68195, Control_c, 0, 64, 127
2, 68221, Control_c, 0, 64, 0
2, 68257, Control_c, 0, 64, 127
2, 68357, Note_off_c, 0, 60, 64
2, 68361, Note_off_c, 0, 44, 64
2, 68362, Note_off_c, 0, 63, 64
2, 68371, Note_off_c, 0, 54, 64
2, 68392, Note_on_c, 0, 65, 69
2, 68392, Note_on_c, 0, 50, 69
2, 68395, Note_on_c, 0, 60, 70
2, 68395, Note_on_c, 0, 44, 66
2, 68402, Control_c, 0, 64, 0
2, 68436, Control_c, 0, 64, 0
2, 68441, Control_c, 0, 64, 127
2, 68475, Control_c, 0, 64, 127
2, 68554, Note_off_c, 0, 50, 64
2, 68554, Note_off_c, 0, 65, 64
2, 68557, Note_off_c, 0, 44, 64
2, 68557, Note_off_c, 0, 60, 64
2, 68621, Control_c, 0, 64, 0
2, 68624, Note_on_c, 0, 44, 56
2, 68626, Note_on_c, 0, 66, 62
2, 68626, Note_on_c, 0, 60, 57
2, 68626, Note_on_c, 0, 51, 60
2, 68652, Control_c, 0, 64, 127
2, 68682, Control_c, 0, 64, 0
2, 68721, Control_c, 0, 64, 127
2, 68748, Note_off_c, 0, 60, 64
2, 68756, Note_off_c, 0, 51, 64
2, 68760, Note_off_c, 0, 44, 64
2, 68782, Note_off_c, 0, 66, 64
2, 68800, Note_on_c, 0, 53, 55
2, 68800, Note_on_c, 0, 44, 48
2, 68804, Note_on_c, 0, 68, 54
2, 68804, Note_on_c, 0, 60, 60
2, 68830, Control_c, 0, 64, 0
2, 68831, Note_off_c, 0, 60, 64
2, 68835, Note_off_c, 0, 53, 64
2, 68837, Note_off_c, 0, 44, 64
2, 68850, Note_on_c, 0, 60, 63
2, 68852, Note_on_c, 0, 44, 57
2, 68853, Note_on_c, 0, 70, 66
2, 68854, Note_on_c, 0, 54, 70
2, 68865, Control_c, 0, 64, 127
2, 68885, Note_off_c, 0, 68, 64
2, 68901, Control_c, 0, 64, 0
2, 68932, Control_c, 0, 64, 127
2, 68956, Note_off_c, 0, 60, 64
2, 68958, Note_off_c, 0, 44, 64
2, 68959, Note_off_c, 0, 70, 64
2, 68960, Note_off_c, 0, 54, 64
2, 69096, Note_on_c, 0, 66, 72
2, 69096, Note_on_c, 0, 60, 64
2, 69096, Note_on_c, 0, 51, 72
2, 69102, Note_on_c, 0, 72, 73
2, 69104, Note_on_c, 0, 44, 72
2, 69110, Control_c, 0, 64, 0
2, 69130, Control_c, 0, 64, 0
2, 69145, Control_c, 0, 64, 127
2, 69152, Control_c, 0, 64, 127
2, 69265, Note_off_c, 0, 51, 64
2, 69265, Note_off_c, 0, 60, 64
2, 69265, Note_off_c, 0, 66, 64
2, 69271, Note_off_c, 0, 72, 64
2, 69273, Note_off_c, 0, 44, 64
2, 69372, Note_on_c, 0, 49, 59
2, 69374, Note_on_c, 0, 75, 69
2, 69376, Note_on_c, 0, 66, 66
2, 69376, Note_on_c, 0, 60, 59
2, 69376, Note_on_c, 0, 56, 59
2, 69387, Control_c, 0, 64, 0
2, 69410, Control_c, 0, 64, 0
2, 69416, Control_c, 0, 64, 127
2, 69432, Control_c, 0, 64, 127
2, 69534, Note_off_c, 0, 49, 64
2, 69536, Note_off_c, 0, 75, 64
2, 69538, Note_off_c, 0, 56, 64
2, 69538, Note_off_c, 0, 60, 64
2, 69538, Note_off_c, 0, 66, 64
2, 69608, Note_on_c, 0, 75, 59
2, 69608, Note_on_c, 0, 66, 60
2, 69608, Note_on_c, 0, 60, 60
2, 69608, Note_on_c, 0, 56, 62
2, 69608, Note_on_c, 0, 49, 58
2, 69628, Note_off_c, 0, 49, 64
2, 69634, Note_off_c, 0, 56, 64
2, 69636, Note_off_c, 0, 66, 64
2, 69639, Note_off_c, 0, 60, 64
2, 69646, Note_off_c, 0, 75, 64
2, 69664, Note_on_c, 0, 60, 58
2, 69664, Note_on_c, 0, 56, 71
2, 69667, Control_c, 0, 64, 0
2, 69668, Note_on_c, 0, 75, 72
2, 69668, Note_on_c, 0, 49, 65
2, 69670, Note_on_c, 0, 66, 81
2, 69689, Control_c, 0, 64, 0
2, 69696, Control_c, 0, 64, 127
2, 69712, Control_c, 0, 64, 127
2, 69969, Control_c, 0, 64, 0
2, 69992, Control_c, 0, 64, 127
2, 70063, Note_off_c, 0, 56, 64
2, 70067, Note_off_c, 0, 49, 64
2, 70080, Note_on_c, 0, 56, 62
2, 70080, Note_on_c, 0, 49, 62
2, 70082, Note_on_c, 0, 73, 71
2, 70084, Note_on_c, 0, 65, 69
2, 70084, Note_on_c, 0, 61, 62
2, 70091, Note_off_c, 0, 60, 64
2, 70095, Note_off_c, 0, 75, 64
2, 70097, Note_off_c, 0, 66, 64
2, 70138, Control_c, 0, 64, 0
2, 70174, Control_c, 0, 64, 127
2, 70418, Control_c, 0, 64, 0
2, 70454, Control_c, 0, 64, 127
2, 70659, Note_off_c, 0, 49, 64
2, 70659, Note_off_c, 0, 56, 64
2, 70661, Note_off_c, 0, 73, 64
2, 70663, Note_off_c, 0, 61, 64
2, 70663, Note_off_c, 0, 65, 64
2, 70720, Control_c, 0, 64, 0
2, 70726, Note_on_c, 0, 44, 52
2, 70780, Note_on_c, 0, 72, 59
2, 70796, Control_c, 0, 64, 127
2, 70948, Note_on_c, 0, 73, 58
2, 70974, Note_off_c, 0, 72, 64
2, 71000, Control_c, 0, 64, 0
2, 71038, Note_on_c, 0, 51, 54
2, 71065, Note_on_c, 0, 60, 52
2, 71076, Control_c, 0, 64, 127
2, 71083, Note_on_c, 0, 75, 56
2, 71096, Note_on_c, 0, 68, 37
2, 71112, Note_off_c, 0, 73, 64
2, 71160, Note_off_c, 0, 51, 64
2, 71187, Note_off_c, 0, 60, 64
2, 71218, Note_off_c, 0, 68, 64
2, 71388, Note_on_c, 0, 77, 48
2, 71412, Note_off_c, 0, 75, 64
2, 71421, Note_off_c, 0, 44, 64
2, 71483, Note_on_c, 0, 39, 51
2, 71483, Control_c, 0, 64, 0
2, 71491, Note_on_c, 0, 75, 56
2, 71505, Note_off_c, 0, 77, 64
2, 71521, Control_c, 0, 64, 127
2, 71581, Note_on_c, 0, 74, 48
2, 71599, Note_off_c, 0, 75, 64
2, 71671, Note_on_c, 0, 73, 62
2, 71671, Note_on_c, 0, 67, 39
2, 71675, Note_on_c, 0, 61, 41
2, 71689, Control_c, 0, 64, 0
2, 71694, Note_off_c, 0, 74, 64
2, 71714, Control_c, 0, 64, 127
2, 71743, Note_off_c, 0, 67, 64
2, 71747, Note_off_c, 0, 61, 64
2, 71763, Control_c, 0, 64, 0
2, 71801, Control_c, 0, 64, 127
2, 71869, Note_on_c, 0, 67, 19
2, 71875, Note_on_c, 0, 61, 32
2, 71941, Note_off_c, 0, 67, 64
2, 71947, Note_off_c, 0, 61, 64
2, 71968, Note_on_c, 0, 72, 49
2, 71969, Control_c, 0, 64, 0
2, 71994, Control_c, 0, 64, 127
2, 72007, Note_off_c, 0, 73, 64
2, 72012, Note_off_c, 0, 39, 64
2, 72041, Note_on_c, 0, 70, 62
2, 72053, Note_off_c, 0, 72, 64
2, 72071, Note_on_c, 0, 72, 55
2, 72094, Note_off_c, 0, 70, 64
2, 72096, Note_on_c, 0, 51, 49
2, 72104, Control_c, 0, 64, 0
2, 72110, Note_on_c, 0, 70, 58
2, 72131, Note_off_c, 0, 72, 64
2, 72140, Control_c, 0, 64, 127
2, 72189, Note_on_c, 0, 69, 51
2, 72207, Note_off_c, 0, 70, 64
2, 72267, Note_on_c, 0, 63, 39
2, 72268, Control_c, 0, 64, 0
2, 72275, Note_on_c, 0, 70, 62
2, 72275, Note_on_c, 0, 61, 43
2, 72290, Note_off_c, 0, 69, 64
2, 72310, Control_c, 0, 64, 127
2, 72339, Note_off_c, 0, 63, 64
2, 72347, Note_off_c, 0, 61, 64
2, 72349, Note_on_c, 0, 72, 39
2, 72373, Note_off_c, 0, 70, 64
2, 72384, Control_c, 0, 64, 0
2, 72420, Control_c, 0, 64, 127
2, 72436, Note_on_c, 0, 67, 49
2, 72436, Note_on_c, 0, 63, 42
2, 72442, Note_on_c, 0, 61, 42
2, 72471, Note_off_c, 0, 72, 64
2, 72508, Note_off_c, 0, 63, 64
2, 72514, Note_off_c, 0, 61, 64
2, 72548, Control_c, 0, 64, 0
2, 72584, Note_on_c, 0, 70, 50
2, 72590, Control_c, 0, 64, 127
2, 72606, Note_off_c, 0, 51, 64
2, 72610, Note_off_c, 0, 67, 64
2, 72616, Note_on_c, 0, 44, 49
2, 72621, Note_on_c, 0, 68, 55
2, 72637, Control_c, 0, 64, 0
2, 72647, Note_off_c, 0, 70, 64
2, 72684, Control_c, 0, 64, 127
2, 72743, Note_on_c, 0, 67, 42
2, 72758, Note_off_c, 0, 68, 64
2, 72822, Note_on_c, 0, 68, 49
2, 72824, Note_on_c, 0, 51, 42
2, 72830, Note_on_c, 0, 60, 42
2, 72837, Note_off_c, 0, 67, 64
2, 72840, Control_c, 0, 64, 0
2, 72867, Control_c, 0, 64, 127
2, 72917, Control_c, 0, 64, 0
2, 72964, Control_c, 0, 64, 127
2, 72971, Note_off_c, 0, 51, 64
2, 72977, Note_off_c, 0, 60, 64
2, 73072, Note_on_c, 0, 60, 51
2, 73080, Note_off_c, 0, 68, 64
2, 73120, Control_c, 0, 64, 0
2, 73147, Control_c, 0, 64, 127
2, 73154, Note_off_c, 0, 44, 64
2, 73255, Note_on_c, 0, 41, 40
2, 73306, Control_c, 0, 64, 0
2, 73314, Note_on_c, 0, 68, 58
2, 73336, Note_off_c, 0, 60, 64
2, 73344, Control_c, 0, 64, 127
2, 73424, Note_on_c, 0, 70, 47
2, 73451, Note_off_c, 0, 68, 64
2, 73504, Note_on_c, 0, 72, 57
2, 73508, Note_on_c, 0, 60, 28
2, 73508, Note_on_c, 0, 56, 49
2, 73514, Note_on_c, 0, 65, 43
2, 73514, Control_c, 0, 64, 0
2, 73531, Note_off_c, 0, 70, 64
2, 73538, Control_c, 0, 64, 127
2, 73580, Note_off_c, 0, 56, 64
2, 73580, Note_off_c, 0, 60, 64
2, 73586, Note_off_c, 0, 65, 64
2, 73586, Control_c, 0, 64, 0
2, 73624, Control_c, 0, 64, 127
2, 73694, Note_on_c, 0, 56, 35
2, 73700, Note_on_c, 0, 65, 34
2, 73700, Note_on_c, 0, 60, 28
2, 73766, Note_off_c, 0, 56, 64
2, 73772, Note_off_c, 0, 60, 64
2, 73772, Note_off_c, 0, 65, 64
2, 73777, Note_on_c, 0, 73, 51
2, 73784, Note_off_c, 0, 72, 64
2, 73794, Control_c, 0, 64, 0
2, 73818, Control_c, 0, 64, 127
2, 73888, Note_off_c, 0, 41, 64
2, 73901, Note_on_c, 0, 48, 49
2, 73907, Note_on_c, 0, 72, 56
2, 73931, Control_c, 0, 64, 0
2, 73939, Note_off_c, 0, 73, 64
2, 73970, Control_c, 0, 64, 127
2, 74009, Note_on_c, 0, 71, 54
2, 74027, Note_off_c, 0, 72, 64
2, 74089, Control_c, 0, 64, 0
2, 74099, Note_on_c, 0, 70, 50
2, 74101, Note_off_c, 0, 71, 64
2, 74107, Note_on_c, 0, 64, 32
2, 74110, Note_on_c, 0, 58, 39
2, 74132, Control_c, 0, 64, 127
2, 74179, Note_off_c, 0, 64, 64
2, 74182, Note_off_c, 0, 58, 64
2, 74211, Control_c, 0, 64, 0
2, 74250, Control_c, 0, 64, 127
2, 74303, Note_on_c, 0, 64, 27
2, 74307, Note_on_c, 0, 58, 32
2, 74369, Control_c, 0, 64, 0
2, 74375, Note_off_c, 0, 64, 64
2, 74376, Note_on_c, 0, 68, 49
2, 74379, Note_off_c, 0, 58, 64
2, 74394, Note_off_c, 0, 70, 64
2, 74412, Control_c, 0, 64, 127
2, 74432, Note_off_c, 0, 48, 64
2, 74476, Note_on_c, 0, 67, 45
2, 74484, Note_off_c, 0, 68, 64
2, 74505, Note_on_c, 0, 68, 51
2, 74515, Note_off_c, 0, 67, 64
2, 74519, Note_on_c, 0, 48, 43
2, 74536, Control_c, 0, 64, 0
2, 74545, Note_on_c, 0, 67, 54
2, 74558, Note_off_c, 0, 68, 64
2, 74572, Control_c, 0, 64, 127
2, 74630, Note_on_c, 0, 65, 50
2, 74636, Note_off_c, 0, 67, 64
2, 74710, Note_on_c, 0, 67, 51
2, 74710, Control_c, 0, 64, 0
2, 74719, Note_on_c, 0, 60, 32
2, 74720, Note_on_c, 0, 58, 39
2, 74728, Note_off_c, 0, 65, 64
2, 74742, Control_c, 0, 64, 127
2, 74791, Note_off_c, 0, 60, 64
2, 74792, Note_off_c, 0, 58, 64
2, 74792, Note_on_c, 0, 68, 44
2, 74816, Control_c, 0, 64, 0
2, 74831, Note_off_c, 0, 67, 64
2, 74852, Control_c, 0, 64, 127
2, 74892, Note_on_c, 0, 60, 37
2, 74894, Note_on_c, 0, 64, 51
2, 74894, Note_on_c, 0, 58, 39
2, 74910, Note_off_c, 0, 68, 64
2, 74964, Note_off_c, 0, 60, 64
2, 74966, Note_off_c, 0, 58, 64
2, 74990, Control_c, 0, 64, 0
2, 75022, Control_c, 0, 64, 127
2, 75095, Note_off_c, 0, 48, 64
2, 75111, Note_on_c, 0, 41, 49
2, 75112, Note_on_c, 0, 65, 51
2, 75122, Control_c, 0, 64, 0
2, 75130, Note_off_c, 0, 64, 64
2, 75158, Control_c, 0, 64, 127
2, 75292, Note_on_c, 0, 77, 54
2, 75343, Note_on_c, 0, 49, 50
2, 75348, Note_on_c, 0, 75, 64
2, 75348, Note_on_c, 0, 61, 44
2, 75348, Note_on_c, 0, 56, 37
2, 75361, Control_c, 0, 64, 0
2, 75368, Note_off_c, 0, 77, 64
2, 75377, Control_c, 0, 64, 127
2, 75397, Note_off_c, 0, 41, 64
2, 75402, Control_c, 0, 64, 0
2, 75438, Control_c, 0, 64, 127
2, 75503, Note_off_c, 0, 49, 64
2, 75508, Note_off_c, 0, 56, 64
2, 75508, Note_off_c, 0, 61, 64
2, 75612, Note_on_c, 0, 43, 46
2, 75619, Note_on_c, 0, 63, 47
2, 75622, Note_on_c, 0, 51, 46
2, 75635, Note_off_c, 0, 65, 64
2, 75641, Control_c, 0, 64, 0
2, 75651, Control_c, 0, 64, 0
2, 75657, Control_c, 0, 64, 127
2, 75672, Control_c, 0, 64, 127
2, 75733, Note_on_c, 0, 73, 47
2, 75753, Note_off_c, 0, 75, 64
2, 75860, Note_on_c, 0, 44, 46
2, 75863, Note_on_c, 0, 72, 51
2, 75871, Control_c, 0, 64, 0
2, 75874, Note_off_c, 0, 63, 64
2, 75879, Note_off_c, 0, 73, 64
2, 75896, Note_off_c, 0, 43, 64
2, 75904, Control_c, 0, 64, 127
2, 75920, Note_off_c, 0, 51, 64
2, 75931, Control_c, 0, 64, 0
2, 75952, Control_c, 0, 64, 127
2, 75954, Note_on_c, 0, 73, 57
2, 75982, Note_off_c, 0, 72, 64
2, 76047, Note_on_c, 0, 68, 51
2, 76050, Note_on_c, 0, 75, 58
2, 76058, Control_c, 0, 64, 0
2, 76064, Note_on_c, 0, 60, 32
2, 76079, Note_off_c, 0, 73, 64
2, 76093, Control_c, 0, 64, 127
2, 76151, Control_c, 0, 64, 0
2, 76177, Note_off_c, 0, 68, 64
2, 76184, Control_c, 0, 64, 127
2, 76194, Note_off_c, 0, 60, 64
2, 76263, Note_on_c, 0, 79, 49
2, 76284, Note_off_c, 0, 75, 64
2, 76338, Control_c, 0, 64, 0
2, 76359, Note_on_c, 0, 77, 51
2, 76366, Note_off_c, 0, 79, 64
2, 76373, Control_c, 0, 64, 127
2, 76408, Note_off_c, 0, 44, 64
2, 76439, Note_on_c, 0, 39, 47
2, 76445, Control_c, 0, 64, 0
2, 76450, Note_on_c, 0, 75, 59
2, 76473, Control_c, 0, 64, 127
2, 76480, Note_off_c, 0, 77, 64
2, 76530, Note_on_c, 0, 74, 50
2, 76541, Note_off_c, 0, 75, 64
2, 76613, Note_on_c, 0, 73, 62
2, 76620, Note_on_c, 0, 61, 39
2, 76623, Note_on_c, 0, 67, 25
2, 76628, Control_c, 0, 64, 0
2, 76633, Note_off_c, 0, 74, 64
2, 76662, Control_c, 0, 64, 127
2, 76692, Note_off_c, 0, 61, 64
2, 76695, Note_off_c, 0, 67, 64
2, 76725, Control_c, 0, 64, 0
2, 76753, Control_c, 0, 64, 127
2, 76807, Note_on_c, 0, 67, 28
2, 76819, Note_on_c, 0, 61, 27
2, 76879, Note_off_c, 0, 67, 64
2, 76880, Note_on_c, 0, 72, 51
2, 76891, Note_off_c, 0, 61, 64
2, 76908, Control_c, 0, 64, 0
2, 76911, Note_off_c, 0, 73, 64
2, 76938, Note_on_c, 0, 70, 62
2, 76942, Control_c, 0, 64, 127
2, 76948, Note_off_c, 0, 72, 64
2, 76956, Note_off_c, 0, 39, 64
2, 76977, Note_on_c, 0, 72, 58
2, 76996, Note_off_c, 0, 70, 64
2, 77008, Note_on_c, 0, 70, 58
2, 77015, Note_on_c, 0, 51, 42
2, 77020, Control_c, 0, 64, 0
2, 77029, Note_off_c, 0, 72, 64
2, 77055, Control_c, 0, 64, 127
2, 77107, Note_on_c, 0, 69, 49
2, 77113, Note_off_c, 0, 70, 64
2, 77190, Note_on_c, 0, 70, 62
2, 77198, Note_on_c, 0, 61, 47
2, 77212, Control_c, 0, 64, 0
2, 77216, Note_off_c, 0, 69, 64
2, 77228, Control_c, 0, 64, 127
2, 77276, Note_off_c, 0, 51, 64
2, 77283, Note_on_c, 0, 72, 50
2, 77300, Control_c, 0, 64, 0
2, 77308, Note_off_c, 0, 70, 64
2, 77335, Control_c, 0, 64, 127
2, 77370, Note_on_c, 0, 67, 49
2, 77373, Note_on_c, 0, 52, 48
2, 77389, Control_c, 0, 64, 0
2, 77402, Note_off_c, 0, 72, 64
2, 77425, Control_c, 0, 64, 127
2, 77432, Note_off_c, 0, 61, 64
2, 77492, Control_c, 0, 64, 0
2, 77508, Control_c, 0, 64, 127
2, 77516, Note_on_c, 0, 70, 42
2, 77537, Note_off_c, 0, 67, 64
2, 77548, Note_off_c, 0, 52, 64
2, 77552, Note_on_c, 0, 53, 51
2, 77554, Note_on_c, 0, 68, 51
2, 77577, Control_c, 0, 64, 0
2, 77584, Note_off_c, 0, 70, 64
2, 77624, Control_c, 0, 64, 127
2, 77653, Note_on_c, 0, 67, 43
2, 77655, Note_off_c, 0, 68, 64
2, 77669, Control_c, 0, 64, 0
2, 77705, Control_c, 0, 64, 127
2, 77726, Note_on_c, 0, 68, 58
2, 77726, Note_on_c, 0, 56, 39
2, 77732, Note_on_c, 0, 60, 40
2, 77736, Control_c, 0, 64, 0
2, 77750, Note_off_c, 0, 67, 64
2, 77773, Control_c, 0, 64, 127
2, 77798, Note_off_c, 0, 56, 64
2, 77804, Note_off_c, 0, 60, 64
2, 77857, Control_c, 0, 64, 0
2, 77904, Control_c, 0, 64, 127
2, 77916, Note_on_c, 0, 56, 39
2, 77919, Note_on_c, 0, 64, 50
2, 77919, Note_on_c, 0, 60, 37
2, 77929, Note_off_c, 0, 68, 64
2, 77988, Note_off_c, 0, 56, 64
2, 77991, Note_off_c, 0, 60, 64
2, 78016, Control_c, 0, 64, 0
2, 78053, Control_c, 0, 64, 127
2, 78086, Note_off_c, 0, 53, 64
2, 78120, Note_on_c, 0, 65, 50
2, 78125, Note_on_c, 0, 49, 50
2, 78138, Control_c, 0, 64, 0
2, 78150, Note_off_c, 0, 64, 64
2, 78169, Control_c, 0, 64, 127
2, 78240, Note_on_c, 0, 67, 51
2, 78255, Note_off_c, 0, 65, 64
2, 78300, Control_c, 0, 64, 0
2, 78305, Note_on_c, 0, 68, 59
2, 78316, Note_on_c, 0, 58, 21
2, 78320, Note_on_c, 0, 65, 21
2, 78324, Note_on_c, 0, 55, 33
2, 78335, Note_off_c, 0, 67, 64
2, 78335, Control_c, 0, 64, 127
2, 78388, Note_off_c, 0, 58, 64
2, 78392, Note_off_c, 0, 65, 64
2, 78396, Note_off_c, 0, 55, 64
2, 78418, Control_c, 0, 64, 0
2, 78449, Control_c, 0, 64, 127
2, 78484, Note_on_c, 0, 55, 33
2, 78490, Note_on_c, 0, 70, 54
2, 78490, Note_on_c, 0, 65, 20
2, 78490, Note_on_c, 0, 58, 28
2, 78517, Note_off_c, 0, 68, 64
2, 78556, Note_off_c, 0, 55, 64
2, 78562, Note_off_c, 0, 58, 64
2, 78562, Note_off_c, 0, 65, 64
2, 78580, Control_c, 0, 64, 0
2, 78615, Control_c, 0, 64, 127
2, 78640, Note_off_c, 0, 49, 64
2, 78680, Note_on_c, 0, 48, 46
2, 78687, Note_on_c, 0, 72, 52
2, 78689, Control_c, 0, 64, 0
2, 78703, Control_c, 0, 64, 127
2, 78709, Note_off_c, 0, 70, 64
2, 78802, Note_on_c, 0, 73, 50
2, 78806, Note_off_c, 0, 72, 64
2, 78859, Note_on_c, 0, 64, 35
2, 78863, Note_on_c, 0, 72, 51
2, 78863, Note_on_c, 0, 58, 35
2, 78880, Control_c, 0, 64, 0
2, 78903, Note_off_c, 0, 73, 64
2, 78920, Control_c, 0, 64, 127
2, 78931, Note_off_c, 0, 64, 64
2, 78935, Note_off_c, 0, 58, 64
2, 78969, Control_c, 0, 64, 0
2, 78983, Control_c, 0, 64, 127
2, 79043, Note_on_c, 0, 64, 27
2, 79043, Note_on_c, 0, 58, 28
2, 79115, Note_off_c, 0, 58, 64
2, 79115, Note_off_c, 0, 64, 64
2, 79123, Note_on_c, 0, 67, 44
2, 79139, Note_off_c, 0, 72, 64
2, 79160, Control_c, 0, 64, 0
2, 79172, Note_off_c, 0, 48, 64
2, 79200, Control_c, 0, 64, 127
2, 79225, Note_on_c, 0, 65, 47
2, 79231, Note_off_c, 0, 67, 64
2, 79241, Note_on_c, 0, 67, 51
2, 79254, Note_off_c, 0, 65, 64
2, 79271, Note_on_c, 0, 49, 47
2, 79286, Note_on_c, 0, 65, 55
2, 79292, Control_c, 0, 64, 0
2, 79300, Note_off_c, 0, 67, 64
2, 79326, Control_c, 0, 64, 127
2, 79367, Note_on_c, 0, 64, 29
2, 79376, Note_off_c, 0, 65, 64
2, 79447, Control_c, 0, 64, 0
2, 79452, Note_on_c, 0, 65, 50
2, 79456, Note_on_c, 0, 58, 39
2, 79457, Note_on_c, 0, 55, 40
2, 79465, Note_off_c, 0, 64, 64
2, 79467, Control_c, 0, 64, 127
2, 79513, Note_off_c, 0, 55, 64
2, 79517, Note_off_c, 0, 58, 64
2, 79541, Note_on_c, 0, 67, 48
2, 79554, Note_off_c, 0, 65, 64
2, 79572, Control_c, 0, 64, 0
2, 79606, Control_c, 0, 64, 127
2, 79620, Note_on_c, 0, 55, 27
2, 79624, Note_on_c, 0, 58, 41
2, 79625, Note_on_c, 0, 68, 52
2, 79628, Note_on_c, 0, 65, 27
2, 79641, Note_off_c, 0, 67, 64
2, 79692, Note_off_c, 0, 55, 64
2, 79692, Note_off_c, 0, 58, 64
2, 79700, Note_off_c, 0, 65, 64
2, 79710, Note_on_c, 0, 70, 54
2, 79724, Note_off_c, 0, 68, 64
2, 79727, Control_c, 0, 64, 0
2, 79736, Note_off_c, 0, 49, 64
2, 79747, Control_c, 0, 64, 127
2, 79807, Note_on_c, 0, 72, 51
2, 79814, Note_on_c, 0, 48, 51
2, 79824, Note_off_c, 0, 70, 64
2, 79833, Control_c, 0, 64, 0
2, 79868, Control_c, 0, 64, 127
2, 79919, Note_on_c, 0, 75, 48
2, 79938, Note_off_c, 0, 72, 64
2, 79946, Note_on_c, 0, 73, 51
2, 79968, Note_off_c, 0, 75, 64
2, 79989, Note_on_c, 0, 55, 47
2, 79994, Note_on_c, 0, 64, 34
2, 79998, Note_on_c, 0, 72, 54
2, 80005, Control_c, 0, 64, 0
2, 80016, Note_off_c, 0, 73, 64
2, 80049, Control_c, 0, 64, 127
2, 80113, Control_c, 0, 64, 0
2, 80148, Control_c, 0, 64, 127
2, 80183, Note_off_c, 0, 48, 64
2, 80209, Note_on_c, 0, 48, 51
2, 80285, Control_c, 0, 64, 0
2, 80326, Note_on_c, 0, 71, 54
2, 80329, Control_c, 0, 64, 127
2, 80335, Note_off_c, 0, 72, 64
2, 80339, Note_off_c, 0, 55, 64
2, 80344, Note_off_c, 0, 64, 64
2, 80487, Note_on_c, 0, 49, 59
2, 80501, Note_on_c, 0, 70, 52
2, 80518, Note_off_c, 0, 48, 64
2, 80519, Control_c, 0, 64, 0
2, 80535, Note_off_c, 0, 71, 64
2, 80577, Control_c, 0, 64, 127
2, 80629, Note_on_c, 0, 72, 48
2, 80644, Note_off_c, 0, 70, 64
2, 80691, Note_on_c, 0, 70, 62
2, 80707, Note_off_c, 0, 72, 64
2, 80721, Control_c, 0, 64, 0
2, 80744, Note_on_c, 0, 63, 26
2, 80752, Note_on_c, 0, 55, 41
2, 80758, Note_on_c, 0, 69, 62
2, 80763, Control_c, 0, 64, 127
2, 80772, Note_off_c, 0, 70, 64
2, 80799, Control_c, 0, 64, 0
2, 80816, Note_off_c, 0, 63, 64
2, 80821, Note_on_c, 0, 70, 63
2, 80824, Note_off_c, 0, 55, 64
2, 80835, Note_off_c, 0, 69, 64
2, 80857, Control_c, 0, 64, 127
2, 80917, Note_on_c, 0, 72, 54
2, 80920, Note_on_c, 0, 63, 42
2, 80928, Note_on_c, 0, 55, 36
2, 80935, Note_off_c, 0, 70, 64
2, 80987, Note_on_c, 0, 73, 58
2, 80992, Note_off_c, 0, 63, 64
2, 81000, Note_off_c, 0, 55, 64
2, 81001, Control_c, 0, 64, 0
2, 81015, Note_off_c, 0, 72, 64
2, 81043, Control_c, 0, 64, 127
2, 81063, Note_off_c, 0, 49, 64
2, 81092, Note_on_c, 0, 77, 58
2, 81095, Note_on_c, 0, 48, 48
2, 81103, Control_c, 0, 64, 0
2, 81124, Note_off_c, 0, 73, 64
2, 81145, Control_c, 0, 64, 127
2, 81175, Note_on_c, 0, 75, 64
2, 81190, Note_off_c, 0, 77, 64
2, 81295, Note_on_c, 0, 80, 57
2, 81304, Note_on_c, 0, 56, 49
2, 81310, Note_on_c, 0, 63, 39
2, 81318, Note_off_c, 0, 75, 64
2, 81333, Control_c, 0, 64, 0
2, 81367, Control_c, 0, 64, 127
2, 81383, Control_c, 0, 64, 0
2, 81425, Control_c, 0, 64, 127
2, 81512, Note_off_c, 0, 48, 64
2, 81568, Note_on_c, 0, 53, 37
2, 81601, Note_off_c, 0, 56, 64
2, 81607, Note_off_c, 0, 63, 64
2, 81613, Control_c, 0, 64, 0
2, 81647, Control_c, 0, 64, 127
2, 81833, Note_on_c, 0, 69, 41
2, 81848, Note_on_c, 0, 51, 46
2, 81854, Control_c, 0, 64, 0
2, 81863, Note_off_c, 0, 53, 64
2, 81875, Note_off_c, 0, 80, 64
2, 81879, Control_c, 0, 64, 127
2, 81984, Note_on_c, 0, 70, 51
2, 82007, Note_off_c, 0, 69, 64
2, 82098, Note_on_c, 0, 68, 42
2, 82108, Note_on_c, 0, 62, 1
2, 82112, Note_on_c, 0, 79, 42
2, 82112, Note_on_c, 0, 58, 25
2, 82122, Control_c, 0, 64, 0
2, 82134, Control_c, 0, 64, 0
2, 82142, Note_off_c, 0, 70, 64
2, 82148, Control_c, 0, 64, 127
2, 82159, Control_c, 0, 64, 127
2, 82247, Note_on_c, 0, 77, 56
2, 82259, Note_off_c, 0, 79, 64
2, 82342, Note_off_c, 0, 58, 64
2, 82349, Note_off_c, 0, 68, 64
2, 82359, Note_off_c, 0, 62, 64
2, 82402, Control_c, 0, 64, 0
2, 82404, Note_on_c, 0, 67, 25
2, 82407, Note_on_c, 0, 75, 51
2, 82409, Note_on_c, 0, 58, 23
2, 82416, Note_on_c, 0, 61, 24
2, 82419, Note_off_c, 0, 77, 64
2, 82424, Control_c, 0, 64, 0
2, 82428, Control_c, 0, 64, 127
2, 82431, Note_off_c, 0, 51, 64
2, 82448, Control_c, 0, 64, 127
2, 82567, Note_off_c, 0, 61, 64
2, 82575, Note_off_c, 0, 67, 64
2, 82580, Note_off_c, 0, 58, 64
2, 82589, Note_on_c, 0, 63, 47
2, 82618, Note_off_c, 0, 75, 64
2, 82704, Control_c, 0, 64, 0
2, 82728, Control_c, 0, 64, 127
2, 82799, Note_on_c, 0, 73, 39
2, 82817, Note_on_c, 0, 44, 42
2, 82828, Note_off_c, 0, 63, 64
2, 82868, Control_c, 0, 64, 0
2, 82892, Control_c, 0, 64, 127
2, 82975, Note_on_c, 0, 72, 47
2, 82996, Note_off_c, 0, 73, 64
2, 83148, Control_c, 0, 64, 0
2, 83172, Control_c, 0, 64, 127
2, 83195, Note_on_c, 0, 51, 26
2, 83196, Note_on_c, 0, 68, 41
2, 83203, Note_on_c, 0, 60, 27
2, 83239, Note_off_c, 0, 72, 64
2, 83286, Control_c, 0, 64, 0
2, 83340, Control_c, 0, 64, 127
2, 83419, Note_off_c, 0, 44, 64
2, 83566, Control_c, 0, 64, 0
2, 83620, Control_c, 0, 64, 127
2, 83875, Control_c, 0, 64, 0
2, 83980, Note_off_c, 0, 51, 64
2, 83984, Note_off_c, 0, 60, 64
2, 84011, Note_off_c, 0, 68, 64
2, 84155, Control_c, 0, 64, 0
2, 85367, Control_c, 0, 64, 127
