2, 0, Program_c, 0, 0
2, 0, Control_c, 0, 7, 127
2, 36, Note_on_c, 0, 64, 47
2, 44, Control_c, 0, 64, 127
2, 88, Note_on_c, 0, 68, 32
2, 178, Note_on_c, 0, 61, 44
2, 187, Note_off_c, 0, 64, 64
2, 283, Note_on_c, 0, 56, 41
2, 304, Note_off_c, 0, 61, 64
2, 506, Note_on_c, 0, 58, 46
2, 509, Note_on_c, 0, 66, 37
2, 532, Note_off_c, 0, 68, 64
2, 533, Note_off_c, 0, 56, 64
2, 658, Note_on_c, 0, 59, 37
2, 671, Note_off_c, 0, 58, 64
2, 677, Note_on_c, 0, 61, 48
2, 690, Note_off_c, 0, 59, 64
2, 703, Note_off_c, 0, 66, 64
2, 720, Note_on_c, 0, 63, 17
2, 720, Note_on_c, 0, 59, 50
2, 736, Note_off_c, 0, 61, 64
2, 736, Note_on_c, 0, 66, 32
2, 744, Control_c, 0, 64, 0
2, 767, Control_c, 0, 64, 127
2, 820, Note_on_c, 0, 58, 52
2, 843, Note_off_c, 0, 59, 64
2, 856, Note_off_c, 0, 66, 64
2, 876, Note_on_c, 0, 66, 54
2, 913, Note_off_c, 0, 66, 64
2, 935, Note_on_c, 0, 66, 47
2, 955, Note_on_c, 0, 59, 54
2, 963, Note_off_c, 0, 58, 64
2, 1155, Note_off_c, 0, 66, 64
2, 1175, Note_on_c, 0, 66, 40
2, 1175, Note_on_c, 0, 61, 43
2, 1178, Control_c, 0, 64, 0
2, 1198, Note_off_c, 0, 59, 64
2, 1217, Control_c, 0, 64, 127
2, 1284, Control_c, 0, 64, 0
2, 1307, Control_c, 0, 64, 127
2, 1367, Note_off_c, 0, 66, 64
2, 1399, Note_on_c, 0, 62, 46
2, 1404, Note_on_c, 0, 66, 40
2, 1409, Note_off_c, 0, 63, 64
2, 1416, Control_c, 0, 64, 0
2, 1425, Note_off_c, 0, 61, 64
2, 1437, Control_c, 0, 64, 127
2, 1513, Note_on_c, 0, 59, 46
2, 1542, Note_off_c, 0, 66, 64
2, 1558, Note_on_c, 0, 66, 48
2, 1603, Note_off_c, 0, 66, 64
2, 1631, Note_on_c, 0, 54, 46
2, 1641, Note_off_c, 0, 59, 64
2, 1641, Note_on_c, 0, 66, 47
2, 1718, Control_c, 0, 64, 0
2, 1757, Control_c, 0, 64, 127
2, 1848, Note_on_c, 0, 56, 48
2, 1854, Note_on_c, 0, 64, 47
2, 1861, Note_off_c, 0, 66, 64
2, 1862, Control_c, 0, 64, 0
2, 1875, Note_off_c, 0, 54, 64
2, 1884, Control_c, 0, 64, 127
2, 1956, Control_c, 0, 64, 0
2, 1977, Control_c, 0, 64, 127
2, 1989, Note_on_c, 0, 57, 47
2, 2011, Note_off_c, 0, 56, 64
2, 2017, Note_off_c, 0, 64, 64
2, 2027, Note_on_c, 0, 59, 47
2, 2037, Note_off_c, 0, 57, 64
2, 2052, Note_on_c, 0, 64, 46
2, 2060, Note_on_c, 0, 57, 50
2, 2064, Note_on_c, 0, 61, 33
2, 2070, Control_c, 0, 64, 0
2, 2078, Note_off_c, 0, 62, 64
2, 2081, Note_off_c, 0, 59, 64
2, 2101, Control_c, 0, 64, 127
2, 2124, Note_off_c, 0, 61, 64
2, 2164, Note_off_c, 0, 64, 64
2, 2172, Note_on_c, 0, 56, 47
2, 2186, Note_off_c, 0, 57, 64
2, 2224, Note_on_c, 0, 64, 34
2, 2256, Note_off_c, 0, 64, 64
2, 2276, Control_c, 0, 64, 0
2, 2280, Note_on_c, 0, 64, 49
2, 2284, Note_on_c, 0, 57, 48
2, 2296, Note_off_c, 0, 56, 64
2, 2300, Control_c, 0, 64, 127
2, 2402, Control_c, 0, 64, 0
2, 2424, Control_c, 0, 64, 127
2, 2467, Note_off_c, 0, 64, 64
2, 2489, Note_on_c, 0, 64, 46
2, 2493, Control_c, 0, 64, 0
2, 2499, Note_on_c, 0, 59, 43
2, 2518, Control_c, 0, 64, 127
2, 2523, Note_off_c, 0, 57, 64
2, 2610, Control_c, 0, 64, 0
2, 2641, Control_c, 0, 64, 127
2, 2663, Note_off_c, 0, 64, 64
2, 2706, Note_on_c, 0, 60, 47
2, 2711, Note_on_c, 0, 64, 44
2, 2731, Note_off_c, 0, 59, 64
2, 2816, Control_c, 0, 64, 0
2, 2827, Note_on_c, 0, 57, 44
2, 2838, Note_off_c, 0, 60, 64
2, 2840, Control_c, 0, 64, 127
2, 2885, Note_off_c, 0, 64, 64
2, 2900, Note_on_c, 0, 64, 41
2, 2944, Note_off_c, 0, 64, 64
2, 2956, Note_on_c, 0, 64, 32
2, 2956, Note_on_c, 0, 52, 43
2, 2981, Note_off_c, 0, 57, 64
2, 3033, Control_c, 0, 64, 0
2, 3058, Control_c, 0, 64, 127
2, 3183, Note_on_c, 0, 54, 44
2, 3194, Note_off_c, 0, 52, 64
2, 3203, Control_c, 0, 64, 0
2, 3234, Control_c, 0, 64, 127
2, 3314, Note_on_c, 0, 62, 48
2, 3347, Note_off_c, 0, 64, 64
2, 3467, Note_on_c, 0, 55, 47
2, 3468, Note_on_c, 0, 59, 39
2, 3493, Note_off_c, 0, 54, 64
2, 3505, Control_c, 0, 64, 0
2, 3518, Control_c, 0, 64, 127
2, 3660, Note_on_c, 0, 64, 52
2, 3679, Note_off_c, 0, 62, 64
2, 3708, Note_on_c, 0, 50, 40
2, 3708, Note_on_c, 0, 43, 31
2, 3710, Note_on_c, 0, 66, 50
2, 3736, Note_off_c, 0, 64, 64
2, 3738, Control_c, 0, 64, 0
2, 3743, Control_c, 0, 64, 0
2, 3774, Control_c, 0, 64, 127
2, 3775, Control_c, 0, 64, 127
2, 3927, Note_on_c, 0, 67, 52
2, 3952, Note_off_c, 0, 66, 64
2, 4033, Note_off_c, 0, 55, 64
2, 4045, Control_c, 0, 64, 0
2, 4058, Control_c, 0, 64, 127
2, 4136, Note_on_c, 0, 60, 42
2, 4136, Note_on_c, 0, 57, 49
2, 4138, Note_on_c, 0, 64, 57
2, 4154, Note_off_c, 0, 43, 64
2, 4157, Note_off_c, 0, 67, 64
2, 4169, Note_off_c, 0, 50, 64
2, 4169, Control_c, 0, 64, 0
2, 4179, Note_off_c, 0, 59, 64
2, 4188, Control_c, 0, 64, 127
2, 4278, Control_c, 0, 64, 0
2, 4300, Note_on_c, 0, 66, 50
2, 4315, Control_c, 0, 64, 127
2, 4320, Note_off_c, 0, 64, 64
2, 4349, Note_on_c, 0, 67, 63
2, 4355, Note_on_c, 0, 50, 49
2, 4359, Note_off_c, 0, 66, 64
2, 4365, Note_on_c, 0, 43, 37
2, 4390, Control_c, 0, 64, 0
2, 4456, Control_c, 0, 64, 127
2, 4547, Control_c, 0, 64, 0
2, 4574, Note_on_c, 0, 69, 57
2, 4578, Note_on_c, 0, 66, 49
2, 4583, Control_c, 0, 64, 127
2, 4593, Note_off_c, 0, 67, 64
2, 4709, Control_c, 0, 64, 0
2, 4712, Note_off_c, 0, 43, 64
2, 4728, Control_c, 0, 64, 127
2, 4752, Note_off_c, 0, 50, 64
2, 4792, Note_on_c, 0, 71, 55
2, 4794, Note_on_c, 0, 67, 48
2, 4799, Note_on_c, 0, 59, 43
2, 4803, Control_c, 0, 64, 0
2, 4813, Note_off_c, 0, 66, 64
2, 4815, Note_off_c, 0, 57, 64
2, 4815, Note_off_c, 0, 60, 64
2, 4815, Note_off_c, 0, 69, 64
2, 4824, Control_c, 0, 64, 127
2, 4930, Control_c, 0, 64, 0
2, 4943, Note_on_c, 0, 74, 59
2, 4953, Note_off_c, 0, 71, 64
2, 4975, Note_off_c, 0, 74, 64
2, 4996, Control_c, 0, 64, 127
2, 4999, Note_on_c, 0, 50, 55
2, 5000, Note_on_c, 0, 74, 64
2, 5008, Note_on_c, 0, 43, 32
2, 5025, Control_c, 0, 64, 0
2, 5055, Control_c, 0, 64, 127
2, 5087, Control_c, 0, 64, 0
2, 5123, Control_c, 0, 64, 127
2, 5218, Note_on_c, 0, 62, 51
2, 5287, Note_off_c, 0, 43, 64
2, 5324, Note_off_c, 0, 50, 64
2, 5343, Control_c, 0, 64, 0
2, 5364, Control_c, 0, 64, 127
2, 5426, Note_on_c, 0, 64, 35
2, 5429, Note_on_c, 0, 60, 59
2, 5450, Note_off_c, 0, 74, 64
2, 5453, Note_off_c, 0, 67, 64
2, 5458, Note_off_c, 0, 59, 64
2, 5460, Note_off_c, 0, 62, 64
2, 5549, Note_on_c, 0, 57, 58
2, 5565, Control_c, 0, 64, 0
2, 5595, Control_c, 0, 64, 127
2, 5600, Note_off_c, 0, 64, 64
2, 5604, Note_on_c, 0, 64, 43
2, 5627, Note_off_c, 0, 60, 64
2, 5641, Note_off_c, 0, 64, 64
2, 5652, Note_on_c, 0, 52, 47
2, 5664, Note_on_c, 0, 64, 49
2, 5672, Control_c, 0, 64, 0
2, 5687, Note_off_c, 0, 57, 64
2, 5703, Control_c, 0, 64, 127
2, 5887, Note_on_c, 0, 54, 63
2, 5939, Note_off_c, 0, 52, 64
2, 6011, Note_on_c, 0, 62, 39
2, 6038, Note_off_c, 0, 64, 64
2, 6156, Note_on_c, 0, 59, 40
2, 6156, Note_on_c, 0, 55, 39
2, 6169, Control_c, 0, 64, 0
2, 6178, Note_off_c, 0, 54, 64
2, 6212, Control_c, 0, 64, 0
2, 6212, Control_c, 0, 64, 127
2, 6243, Control_c, 0, 64, 127
2, 6333, Note_on_c, 0, 64, 37
2, 6360, Note_off_c, 0, 62, 64
2, 6367, Note_on_c, 0, 66, 55
2, 6374, Note_on_c, 0, 50, 50
2, 6381, Note_on_c, 0, 43, 37
2, 6393, Control_c, 0, 64, 0
2, 6397, Note_off_c, 0, 64, 64
2, 6450, Control_c, 0, 64, 127
2, 6586, Note_on_c, 0, 67, 51
2, 6588, Control_c, 0, 64, 0
2, 6606, Note_off_c, 0, 66, 64
2, 6612, Control_c, 0, 64, 127
2, 6709, Control_c, 0, 64, 0
2, 6752, Control_c, 0, 64, 127
2, 6790, Note_on_c, 0, 64, 55
2, 6796, Note_on_c, 0, 57, 44
2, 6797, Note_off_c, 0, 67, 64
2, 6799, Note_on_c, 0, 60, 49
2, 6809, Note_off_c, 0, 50, 64
2, 6812, Control_c, 0, 64, 0
2, 6813, Note_off_c, 0, 55, 64
2, 6813, Note_off_c, 0, 59, 64
2, 6824, Control_c, 0, 64, 127
2, 6830, Note_off_c, 0, 43, 64
2, 6927, Note_on_c, 0, 66, 46
2, 6933, Control_c, 0, 64, 0
2, 6940, Note_off_c, 0, 64, 64
2, 6986, Note_on_c, 0, 67, 62
2, 6989, Note_on_c, 0, 50, 46
2, 6990, Control_c, 0, 64, 127
2, 6995, Note_on_c, 0, 43, 33
2, 7010, Note_off_c, 0, 66, 64
2, 7035, Control_c, 0, 64, 0
2, 7128, Control_c, 0, 64, 0
2, 7152, Control_c, 0, 64, 127
2, 7155, Control_c, 0, 64, 127
2, 7199, Note_on_c, 0, 66, 55
2, 7202, Note_on_c, 0, 69, 58
2, 7218, Note_off_c, 0, 67, 64
2, 7352, Control_c, 0, 64, 0
2, 7364, Control_c, 0, 64, 127
2, 7400, Note_on_c, 0, 71, 60
2, 7404, Note_on_c, 0, 65, 58
2, 7411, Note_on_c, 0, 59, 51
2, 7418, Note_off_c, 0, 57, 64
2, 7421, Note_off_c, 0, 60, 64
2, 7425, Control_c, 0, 64, 0
2, 7431, Note_off_c, 0, 69, 64
2, 7433, Note_off_c, 0, 66, 64
2, 7455, Control_c, 0, 64, 127
2, 7548, Note_on_c, 0, 73, 55
2, 7575, Control_c, 0, 64, 0
2, 7583, Note_off_c, 0, 43, 64
2, 7585, Note_off_c, 0, 50, 64
2, 7594, Note_on_c, 0, 43, 58
2, 7595, Note_on_c, 0, 74, 70
2, 7608, Control_c, 0, 64, 0
2, 7611, Note_off_c, 0, 59, 64
2, 7624, Note_off_c, 0, 73, 64
2, 7632, Control_c, 0, 64, 127
2, 7695, Control_c, 0, 64, 127
2, 7804, Note_on_c, 0, 75, 62
2, 7807, Note_on_c, 0, 42, 56
2, 7811, Note_on_c, 0, 66, 66
2, 7814, Control_c, 0, 64, 0
2, 7819, Note_off_c, 0, 43, 64
2, 7833, Note_off_c, 0, 65, 64
2, 7836, Control_c, 0, 64, 127
2, 7839, Note_off_c, 0, 74, 64
2, 7965, Control_c, 0, 64, 0
2, 7995, Control_c, 0, 64, 127
2, 8031, Note_on_c, 0, 68, 54
2, 8036, Note_on_c, 0, 76, 69
2, 8036, Note_on_c, 0, 64, 63
2, 8036, Note_on_c, 0, 30, 74
2, 8050, Control_c, 0, 64, 0
2, 8052, Note_off_c, 0, 66, 64
2, 8063, Control_c, 0, 64, 127
2, 8071, Note_off_c, 0, 75, 64
2, 8148, Control_c, 0, 64, 0
2, 8164, Note_on_c, 0, 73, 62
2, 8172, Control_c, 0, 64, 127
2, 8183, Note_off_c, 0, 76, 64
2, 8223, Note_off_c, 0, 68, 64
2, 8228, Note_off_c, 0, 64, 64
2, 8268, Note_on_c, 0, 68, 78
2, 8272, Note_on_c, 0, 64, 73
2, 8272, Note_on_c, 0, 54, 59
2, 8284, Note_off_c, 0, 73, 64
2, 8285, Control_c, 0, 64, 0
2, 8304, Note_off_c, 0, 42, 64
2, 8324, Control_c, 0, 64, 127
2, 8354, Control_c, 0, 64, 0
2, 8376, Control_c, 0, 64, 127
2, 8403, Note_off_c, 0, 30, 64
2, 8491, Note_on_c, 0, 70, 62
2, 8502, Note_off_c, 0, 71, 64
2, 8508, Note_off_c, 0, 68, 64
2, 8552, Note_off_c, 0, 54, 64
2, 8590, Control_c, 0, 64, 0
2, 8603, Control_c, 0, 64, 127
2, 8604, Note_on_c, 0, 54, 64
2, 8671, Note_off_c, 0, 54, 64
2, 8673, Note_off_c, 0, 64, 64
2, 8697, Note_on_c, 0, 66, 74
2, 8700, Note_on_c, 0, 63, 64
2, 8704, Note_on_c, 0, 54, 69
2, 8708, Control_c, 0, 64, 0
2, 8725, Note_off_c, 0, 70, 64
2, 8729, Control_c, 0, 64, 127
2, 8776, Note_off_c, 0, 66, 64
2, 8825, Control_c, 0, 64, 0
2, 8862, Note_on_c, 0, 68, 62
2, 8864, Control_c, 0, 64, 127
2, 8865, Note_on_c, 0, 66, 82
2, 8890, Note_off_c, 0, 66, 64
2, 8892, Note_off_c, 0, 63, 64
2, 8916, Note_on_c, 0, 63, 64
2, 8917, Control_c, 0, 64, 127
2, 8918, Note_on_c, 0, 70, 67
2, 8924, Note_on_c, 0, 66, 78
2, 8935, Note_off_c, 0, 68, 64
2, 9134, Note_off_c, 0, 54, 64
2, 9158, Note_on_c, 0, 71, 64
2, 9158, Note_on_c, 0, 54, 64
2, 9167, Note_off_c, 0, 70, 64
2, 9248, Control_c, 0, 64, 0
2, 9269, Control_c, 0, 64, 127
2, 9378, Note_on_c, 0, 68, 64
2, 9381, Note_on_c, 0, 64, 63
2, 9393, Note_off_c, 0, 63, 64
2, 9408, Note_off_c, 0, 71, 64
2, 9446, Note_off_c, 0, 66, 64
2, 9457, Control_c, 0, 64, 127
2, 9486, Note_off_c, 0, 68, 64
2, 9526, Note_on_c, 0, 66, 83
2, 9529, Note_on_c, 0, 70, 59
2, 9557, Note_off_c, 0, 66, 64
2, 9561, Note_off_c, 0, 54, 64
2, 9579, Note_on_c, 0, 71, 63
2, 9590, Note_off_c, 0, 64, 64
2, 9591, Note_on_c, 0, 66, 80
2, 9596, Note_on_c, 0, 64, 59
2, 9609, Note_off_c, 0, 70, 64
2, 9823, Note_on_c, 0, 73, 73
2, 9823, Note_on_c, 0, 64, 62
2, 9824, Note_on_c, 0, 70, 67
2, 9828, Note_on_c, 0, 54, 69
2, 9835, Control_c, 0, 64, 0
2, 9840, Note_off_c, 0, 71, 64
2, 9856, Control_c, 0, 64, 127
2, 9926, Note_off_c, 0, 64, 64
2, 10063, Note_on_c, 0, 47, 59
2, 10064, Note_on_c, 0, 71, 69
2, 10065, Note_on_c, 0, 63, 62
2, 10067, Note_on_c, 0, 75, 73
2, 10072, Note_off_c, 0, 54, 64
2, 10075, Note_off_c, 0, 64, 64
2, 10078, Control_c, 0, 64, 0
2, 10079, Note_off_c, 0, 73, 64
2, 10080, Note_off_c, 0, 70, 64
2, 10085, Note_off_c, 0, 66, 64
2, 10098, Control_c, 0, 64, 127
2, 10148, Note_off_c, 0, 47, 64
2, 10149, Note_off_c, 0, 71, 64
2, 10150, Note_off_c, 0, 63, 64
2, 10152, Note_off_c, 0, 75, 64
2, 10252, Note_on_c, 0, 71, 73
2, 10252, Note_on_c, 0, 63, 86
2, 10255, Note_on_c, 0, 66, 74
2, 10257, Note_on_c, 0, 78, 73
2, 10291, Note_off_c, 0, 63, 64
2, 10291, Note_off_c, 0, 71, 64
2, 10294, Note_off_c, 0, 66, 64
2, 10296, Note_off_c, 0, 78, 64
2, 10304, Note_on_c, 0, 66, 71
2, 10304, Note_on_c, 0, 63, 77
2, 10307, Note_on_c, 0, 78, 71
2, 10308, Note_on_c, 0, 71, 70
2, 10311, Control_c, 0, 64, 0
2, 10336, Control_c, 0, 64, 127
2, 10375, Control_c, 0, 64, 0
2, 10396, Control_c, 0, 64, 127
2, 10531, Note_off_c, 0, 71, 64
2, 10537, Note_on_c, 0, 80, 64
2, 10541, Note_on_c, 0, 68, 59
2, 10546, Note_on_c, 0, 71, 67
2, 10546, Note_on_c, 0, 64, 59
2, 10547, Note_off_c, 0, 66, 64
2, 10550, Note_off_c, 0, 78, 64
2, 10555, Note_off_c, 0, 63, 64
2, 10556, Control_c, 0, 64, 0
2, 10569, Control_c, 0, 64, 127
2, 10618, Control_c, 0, 64, 0
2, 10638, Control_c, 0, 64, 127
2, 10752, Control_c, 0, 64, 0
2, 10761, Note_off_c, 0, 71, 64
2, 10766, Control_c, 0, 64, 127
2, 10771, Note_on_c, 0, 66, 55
2, 10772, Note_on_c, 0, 63, 60
2, 10773, Note_off_c, 0, 80, 64
2, 10776, Note_on_c, 0, 71, 58
2, 10777, Note_off_c, 0, 68, 64
2, 10777, Note_on_c, 0, 78, 59
2, 10782, Note_off_c, 0, 64, 64
2, 10851, Control_c, 0, 64, 0
2, 10876, Control_c, 0, 64, 127
2, 10885, Note_off_c, 0, 66, 64
2, 10886, Note_off_c, 0, 63, 64
2, 10890, Note_off_c, 0, 71, 64
2, 10891, Note_off_c, 0, 78, 64
2, 10949, Note_on_c, 0, 75, 62
2, 10949, Note_on_c, 0, 59, 55
2, 10952, Note_on_c, 0, 66, 52
2, 10952, Note_on_c, 0, 63, 52
2, 10978, Note_off_c, 0, 63, 64
2, 11008, Note_on_c, 0, 68, 51
2, 11011, Note_on_c, 0, 71, 52
2, 11012, Note_on_c, 0, 63, 64
2, 11015, Note_off_c, 0, 59, 64
2, 11015, Note_off_c, 0, 75, 64
2, 11016, Note_on_c, 0, 56, 66
2, 11018, Note_off_c, 0, 66, 64
2, 11040, Control_c, 0, 64, 0
2, 11070, Control_c, 0, 64, 127
2, 11096, Control_c, 0, 64, 0
2, 11109, Control_c, 0, 64, 127
2, 11235, Note_off_c, 0, 68, 64
2, 11238, Note_off_c, 0, 71, 64
2, 11239, Note_off_c, 0, 63, 64
2, 11243, Note_off_c, 0, 56, 64
2, 11244, Note_on_c, 0, 76, 66
2, 11247, Note_on_c, 0, 68, 58
2, 11248, Note_on_c, 0, 64, 59
2, 11254, Note_on_c, 0, 61, 60
2, 11292, Control_c, 0, 64, 0
2, 11306, Control_c, 0, 64, 127
2, 11461, Note_off_c, 0, 76, 64
2, 11464, Note_off_c, 0, 68, 64
2, 11465, Note_off_c, 0, 64, 64
2, 11471, Note_off_c, 0, 61, 64
2, 11482, Note_on_c, 0, 75, 64
2, 11482, Note_on_c, 0, 68, 59
2, 11482, Note_on_c, 0, 63, 64
2, 11482, Note_on_c, 0, 59, 55
2, 11580, Control_c, 0, 64, 0
2, 11596, Note_off_c, 0, 59, 64
2, 11596, Note_off_c, 0, 63, 64
2, 11596, Note_off_c, 0, 68, 64
2, 11596, Note_off_c, 0, 75, 64
2, 11610, Control_c, 0, 64, 127
2, 11656, Note_on_c, 0, 56, 59
2, 11660, Note_on_c, 0, 68, 59
2, 11660, Note_on_c, 0, 63, 59
2, 11661, Note_on_c, 0, 71, 58
2, 11688, Note_off_c, 0, 68, 64
2, 11712, Note_on_c, 0, 68, 65
2, 11718, Note_off_c, 0, 56, 64
2, 11719, Note_on_c, 0, 64, 67
2, 11721, Note_on_c, 0, 59, 64
2, 11722, Note_off_c, 0, 63, 64
2, 11724, Note_off_c, 0, 71, 64
2, 11728, Note_on_c, 0, 52, 58
2, 11744, Control_c, 0, 64, 0
2, 11773, Control_c, 0, 64, 127
2, 11946, Note_off_c, 0, 68, 64
2, 11953, Note_off_c, 0, 64, 64
2, 11962, Note_off_c, 0, 52, 64
2, 11976, Note_on_c, 0, 71, 66
2, 11979, Note_on_c, 0, 63, 66
2, 11989, Note_on_c, 0, 54, 57
2, 11998, Note_on_c, 0, 47, 44
2, 12002, Control_c, 0, 64, 0
2, 12013, Control_c, 0, 64, 127
2, 12207, Note_off_c, 0, 59, 64
2, 12215, Note_off_c, 0, 71, 64
2, 12218, Note_off_c, 0, 63, 64
2, 12228, Note_off_c, 0, 54, 64
2, 12237, Note_off_c, 0, 47, 64
2, 12242, Note_on_c, 0, 73, 71
2, 12244, Note_on_c, 0, 66, 66
2, 12249, Note_on_c, 0, 64, 64
2, 12251, Note_on_c, 0, 58, 54
2, 12284, Control_c, 0, 64, 0
2, 12313, Control_c, 0, 64, 127
2, 12333, Note_off_c, 0, 73, 64
2, 12340, Note_off_c, 0, 64, 64
2, 12341, Note_off_c, 0, 66, 64
2, 12342, Note_off_c, 0, 58, 64
2, 12454, Note_on_c, 0, 75, 63
2, 12461, Note_on_c, 0, 42, 50
2, 12513, Note_on_c, 0, 73, 63
2, 12517, Note_on_c, 0, 64, 65
2, 12523, Note_on_c, 0, 58, 54
2, 12526, Note_on_c, 0, 66, 60
2, 12530, Note_off_c, 0, 75, 64
2, 12537, Note_off_c, 0, 42, 64
2, 12539, Control_c, 0, 64, 0
2, 12542, Control_c, 0, 64, 0
2, 12553, Control_c, 0, 64, 127
2, 12578, Control_c, 0, 64, 127
2, 12917, Note_on_c, 0, 59, 50
2, 12923, Note_on_c, 0, 63, 57
2, 12923, Note_on_c, 0, 47, 46
2, 12927, Note_off_c, 0, 73, 64
2, 12930, Note_on_c, 0, 71, 51
2, 12931, Note_off_c, 0, 64, 64
2, 12937, Note_off_c, 0, 58, 64
2, 12940, Note_off_c, 0, 66, 64
2, 13002, Note_off_c, 0, 59, 64
2, 13008, Note_off_c, 0, 47, 64
2, 13008, Note_off_c, 0, 63, 64
2, 13015, Note_off_c, 0, 71, 64
2, 13044, Control_c, 0, 64, 0
2, 13048, Note_on_c, 0, 63, 54
2, 13048, Note_on_c, 0, 59, 39
2, 13048, Note_on_c, 0, 47, 43
2, 13050, Note_on_c, 0, 71, 50
2, 13079, Control_c, 0, 64, 0
2, 13092, Control_c, 0, 64, 127
2, 13118, Control_c, 0, 64, 127
2, 13139, Note_off_c, 0, 47, 64
2, 13139, Note_off_c, 0, 59, 64
2, 13139, Note_off_c, 0, 63, 64
2, 13141, Note_off_c, 0, 71, 64
2, 13252, Note_on_c, 0, 68, 64
2, 13301, Note_off_c, 0, 68, 64
2, 13304, Note_on_c, 0, 52, 46
2, 13308, Note_on_c, 0, 68, 70
2, 13308, Note_on_c, 0, 59, 57
2, 13310, Note_on_c, 0, 64, 62
2, 13325, Control_c, 0, 64, 0
2, 13364, Control_c, 0, 64, 127
2, 13541, Note_on_c, 0, 70, 57
2, 13548, Note_on_c, 0, 61, 50
2, 13560, Control_c, 0, 64, 0
2, 13565, Note_off_c, 0, 59, 64
2, 13565, Note_off_c, 0, 68, 64
2, 13580, Control_c, 0, 64, 127
2, 13584, Control_c, 0, 64, 0
2, 13632, Control_c, 0, 64, 127
2, 13648, Note_on_c, 0, 59, 57
2, 13651, Note_on_c, 0, 68, 69
2, 13665, Note_off_c, 0, 61, 64
2, 13674, Note_off_c, 0, 70, 64
2, 13762, Note_off_c, 0, 52, 64
2, 13776, Note_on_c, 0, 58, 50
2, 13776, Note_on_c, 0, 54, 46
2, 13778, Note_on_c, 0, 66, 60
2, 13791, Note_off_c, 0, 59, 64
2, 13793, Note_off_c, 0, 68, 64
2, 13799, Control_c, 0, 64, 0
2, 13830, Control_c, 0, 64, 127
2, 13865, Control_c, 0, 64, 0
2, 13885, Note_off_c, 0, 64, 64
2, 13904, Control_c, 0, 64, 127
2, 13938, Note_off_c, 0, 54, 64
2, 13938, Note_off_c, 0, 58, 64
2, 13940, Note_off_c, 0, 66, 64
2, 13964, Note_on_c, 0, 73, 67
2, 13973, Note_on_c, 0, 42, 70
2, 14004, Note_off_c, 0, 73, 64
2, 14028, Note_on_c, 0, 58, 62
2, 14032, Note_on_c, 0, 73, 73
2, 14032, Note_on_c, 0, 66, 74
2, 14035, Note_on_c, 0, 64, 67
2, 14058, Control_c, 0, 64, 0
2, 14087, Note_off_c, 0, 42, 64
2, 14095, Control_c, 0, 64, 127
2, 14100, Control_c, 0, 64, 0
2, 14120, Control_c, 0, 64, 127
2, 14312, Note_off_c, 0, 66, 64
2, 14328, Note_on_c, 0, 75, 60
2, 14331, Note_on_c, 0, 66, 54
2, 14331, Note_on_c, 0, 42, 42
2, 14335, Note_off_c, 0, 64, 64
2, 14339, Note_on_c, 0, 64, 47
2, 14339, Control_c, 0, 64, 0
2, 14346, Control_c, 0, 64, 0
2, 14351, Note_off_c, 0, 73, 64
2, 14366, Control_c, 0, 64, 127
2, 14370, Control_c, 0, 64, 127
2, 14586, Note_off_c, 0, 58, 64
2, 14598, Control_c, 0, 64, 0
2, 14635, Control_c, 0, 64, 127
2, 14656, Note_on_c, 0, 63, 48
2, 14657, Note_off_c, 0, 66, 64
2, 14658, Note_off_c, 0, 42, 64
2, 14662, Note_on_c, 0, 71, 56
2, 14662, Note_on_c, 0, 59, 27
2, 14665, Note_off_c, 0, 64, 64
2, 14666, Note_on_c, 0, 47, 28
2, 14670, Note_off_c, 0, 75, 64
2, 14686, Control_c, 0, 64, 0
2, 14735, Control_c, 0, 64, 127
2, 14886, Control_c, 0, 64, 0
2, 14906, Control_c, 0, 64, 127
2, 15062, Note_off_c, 0, 59, 64
2, 15067, Note_on_c, 0, 64, 32
2, 15071, Note_on_c, 0, 68, 29
2, 15074, Note_off_c, 0, 63, 64
2, 15078, Note_on_c, 0, 59, 25
2, 15080, Note_off_c, 0, 71, 64
2, 15084, Note_off_c, 0, 47, 64
2, 15084, Note_on_c, 0, 52, 25
2, 15161, Control_c, 0, 64, 0
2, 15207, Control_c, 0, 64, 127
2, 15226, Control_c, 0, 64, 0
2, 15275, Control_c, 0, 64, 127
2, 15701, Control_c, 0, 64, 0
2, 15712, Note_off_c, 0, 68, 64
2, 15736, Note_off_c, 0, 52, 64
2, 15747, Note_off_c, 0, 59, 64
2, 15747, Control_c, 0, 64, 127
2, 15754, Note_off_c, 0, 64, 64
2, 15852, Note_on_c, 0, 68, 39
2, 15855, Note_on_c, 0, 64, 54
2, 15906, Control_c, 0, 64, 0
2, 15954, Control_c, 0, 64, 127
2, 15961, Note_on_c, 0, 61, 48
2, 16090, Note_on_c, 0, 56, 49
2, 16097, Control_c, 0, 64, 0
2, 16117, Control_c, 0, 64, 127
2, 16122, Note_off_c, 0, 61, 64
2, 16309, Note_on_c, 0, 66, 37
2, 16311, Note_on_c, 0, 58, 47
2, 16323, Control_c, 0, 64, 0
2, 16345, Control_c, 0, 64, 127
2, 16354, Note_off_c, 0, 56, 64
2, 16358, Note_off_c, 0, 68, 64
2, 16446, Control_c, 0, 64, 0
2, 16460, Note_on_c, 0, 59, 50
2, 16478, Note_off_c, 0, 58, 64
2, 16482, Note_on_c, 0, 61, 49
2, 16494, Control_c, 0, 64, 127
2, 16499, Note_off_c, 0, 59, 64
2, 16501, Note_off_c, 0, 66, 64
2, 16526, Note_on_c, 0, 63, 34
2, 16527, Note_on_c, 0, 66, 42
2, 16532, Note_on_c, 0, 59, 47
2, 16538, Note_off_c, 0, 64, 64
2, 16542, Note_off_c, 0, 61, 64
2, 16552, Control_c, 0, 64, 0
2, 16567, Control_c, 0, 64, 127
2, 16637, Control_c, 0, 64, 0
2, 16656, Note_on_c, 0, 58, 46
2, 16657, Control_c, 0, 64, 127
2, 16673, Note_off_c, 0, 59, 64
2, 16691, Note_off_c, 0, 66, 64
2, 16696, Note_on_c, 0, 66, 56
2, 16740, Note_off_c, 0, 66, 64
2, 16748, Note_on_c, 0, 59, 51
2, 16756, Note_on_c, 0, 66, 58
2, 16759, Note_off_c, 0, 58, 64
2, 16762, Control_c, 0, 64, 0
2, 16791, Control_c, 0, 64, 127
2, 16863, Control_c, 0, 64, 0
2, 16885, Control_c, 0, 64, 127
2, 16933, Note_off_c, 0, 66, 64
2, 16971, Note_on_c, 0, 66, 43
2, 16976, Note_on_c, 0, 61, 48
2, 16982, Note_off_c, 0, 59, 64
2, 16987, Control_c, 0, 64, 0
2, 17000, Control_c, 0, 64, 127
2, 17092, Control_c, 0, 64, 0
2, 17107, Control_c, 0, 64, 127
2, 17180, Note_off_c, 0, 66, 64
2, 17194, Note_on_c, 0, 66, 42
2, 17194, Note_on_c, 0, 62, 47
2, 17211, Note_off_c, 0, 63, 64
2, 17223, Note_off_c, 0, 61, 64
2, 17302, Control_c, 0, 64, 0
2, 17308, Note_on_c, 0, 59, 39
2, 17331, Control_c, 0, 64, 127
2, 17341, Note_off_c, 0, 66, 64
2, 17344, Note_on_c, 0, 66, 58
2, 17383, Note_off_c, 0, 66, 64
2, 17409, Note_on_c, 0, 54, 49
2, 17419, Note_off_c, 0, 59, 64
2, 17421, Note_on_c, 0, 66, 50
2, 17527, Control_c, 0, 64, 0
2, 17540, Control_c, 0, 64, 127
2, 17630, Note_on_c, 0, 56, 47
2, 17633, Note_on_c, 0, 64, 47
2, 17634, Note_off_c, 0, 66, 64
2, 17646, Note_off_c, 0, 54, 64
2, 17652, Control_c, 0, 64, 0
2, 17673, Control_c, 0, 64, 127
2, 17756, Note_off_c, 0, 62, 64
2, 17776, Note_on_c, 0, 57, 48
2, 17788, Note_off_c, 0, 56, 64
2, 17812, Note_on_c, 0, 59, 47
2, 17820, Note_off_c, 0, 64, 64
2, 17821, Note_on_c, 0, 61, 43
2, 17828, Note_off_c, 0, 57, 64
2, 17844, Note_on_c, 0, 57, 46
2, 17846, Note_on_c, 0, 64, 36
2, 17859, Control_c, 0, 64, 0
2, 17866, Note_off_c, 0, 59, 64
2, 17868, Note_off_c, 0, 61, 64
2, 17875, Control_c, 0, 64, 127
2, 17960, Note_on_c, 0, 56, 46
2, 17967, Note_off_c, 0, 57, 64
2, 17993, Note_off_c, 0, 64, 64
2, 18004, Note_on_c, 0, 64, 28
2, 18039, Note_off_c, 0, 64, 64
2, 18055, Note_on_c, 0, 64, 46
2, 18067, Control_c, 0, 64, 0
2, 18074, Note_on_c, 0, 57, 47
2, 18084, Control_c, 0, 64, 127
2, 18093, Note_off_c, 0, 56, 64
2, 18192, Control_c, 0, 64, 0
2, 18213, Control_c, 0, 64, 127
2, 18259, Note_off_c, 0, 64, 64
2, 18275, Note_on_c, 0, 64, 36
2, 18279, Note_on_c, 0, 59, 46
2, 18295, Note_off_c, 0, 57, 64
2, 18299, Control_c, 0, 64, 0
2, 18319, Control_c, 0, 64, 127
2, 18399, Control_c, 0, 64, 0
2, 18415, Control_c, 0, 64, 127
2, 18484, Note_off_c, 0, 64, 64
2, 18493, Note_on_c, 0, 60, 46
2, 18501, Note_on_c, 0, 64, 41
2, 18525, Note_off_c, 0, 59, 64
2, 18607, Control_c, 0, 64, 0
2, 18608, Note_on_c, 0, 57, 44
2, 18624, Control_c, 0, 64, 127
2, 18625, Note_off_c, 0, 64, 64
2, 18653, Note_on_c, 0, 64, 46
2, 18697, Note_off_c, 0, 64, 64
2, 18720, Note_on_c, 0, 52, 54
2, 18735, Note_off_c, 0, 57, 64
2, 18736, Note_on_c, 0, 64, 37
2, 18839, Control_c, 0, 64, 0
2, 18859, Control_c, 0, 64, 127
2, 18934, Note_on_c, 0, 54, 44
2, 18956, Note_off_c, 0, 52, 64
2, 18957, Control_c, 0, 64, 0
2, 18977, Control_c, 0, 64, 127
2, 19059, Note_on_c, 0, 62, 48
2, 19069, Note_off_c, 0, 64, 64
2, 19222, Note_on_c, 0, 55, 40
2, 19226, Note_on_c, 0, 59, 44
2, 19235, Note_off_c, 0, 60, 64
2, 19245, Note_off_c, 0, 54, 64
2, 19259, Control_c, 0, 64, 0
2, 19272, Control_c, 0, 64, 127
2, 19439, Note_on_c, 0, 64, 44
2, 19444, Note_off_c, 0, 62, 64
2, 19468, Note_on_c, 0, 43, 50
2, 19470, Note_on_c, 0, 50, 47
2, 19482, Note_on_c, 0, 66, 52
2, 19497, Control_c, 0, 64, 0
2, 19498, Control_c, 0, 64, 0
2, 19510, Note_off_c, 0, 64, 64
2, 19517, Control_c, 0, 64, 127
2, 19635, Control_c, 0, 64, 127
2, 19690, Note_on_c, 0, 67, 56
2, 19705, Note_off_c, 0, 66, 64
2, 19799, Control_c, 0, 64, 0
2, 19812, Control_c, 0, 64, 127
2, 19892, Note_on_c, 0, 64, 55
2, 19896, Note_on_c, 0, 57, 48
2, 19900, Note_off_c, 0, 43, 64
2, 19900, Note_on_c, 0, 60, 49
2, 19903, Note_off_c, 0, 55, 64
2, 19907, Note_off_c, 0, 59, 64
2, 19908, Note_off_c, 0, 67, 64
2, 19908, Note_off_c, 0, 50, 64
2, 19908, Control_c, 0, 64, 0
2, 19950, Control_c, 0, 64, 127
2, 20036, Note_on_c, 0, 66, 49
2, 20038, Control_c, 0, 64, 0
2, 20061, Note_off_c, 0, 64, 64
2, 20081, Note_on_c, 0, 67, 63
2, 20090, Note_on_c, 0, 50, 42
2, 20096, Note_on_c, 0, 43, 40
2, 20109, Note_off_c, 0, 66, 64
2, 20133, Control_c, 0, 64, 0
2, 20175, Control_c, 0, 64, 127
2, 20295, Control_c, 0, 64, 127
2, 20304, Note_on_c, 0, 69, 55
2, 20309, Note_on_c, 0, 66, 54
2, 20321, Note_off_c, 0, 67, 64
2, 20448, Control_c, 0, 64, 0
2, 20490, Control_c, 0, 64, 127
2, 20520, Note_on_c, 0, 71, 54
2, 20522, Note_on_c, 0, 67, 58
2, 20526, Note_on_c, 0, 59, 52
2, 20531, Note_off_c, 0, 57, 64
2, 20532, Note_off_c, 0, 66, 64
2, 20533, Note_off_c, 0, 69, 64
2, 20535, Note_off_c, 0, 60, 64
2, 20541, Control_c, 0, 64, 0
2, 20560, Control_c, 0, 64, 127
2, 20673, Control_c, 0, 64, 0
2, 20679, Note_on_c, 0, 74, 59
2, 20682, Note_off_c, 0, 71, 64
2, 20682, Note_off_c, 0, 50, 64
2, 20688, Note_off_c, 0, 43, 64
2, 20712, Note_off_c, 0, 74, 64
2, 20732, Note_on_c, 0, 50, 52
2, 20738, Note_on_c, 0, 74, 71
2, 20741, Note_on_c, 0, 43, 43
2, 20744, Control_c, 0, 64, 0
2, 20784, Control_c, 0, 64, 127
2, 20835, Control_c, 0, 64, 127
2, 20964, Note_on_c, 0, 62, 63
2, 20971, Note_off_c, 0, 67, 64
2, 20996, Note_off_c, 0, 43, 64
2, 21019, Note_off_c, 0, 50, 64
2, 21029, Note_off_c, 0, 59, 64
2, 21081, Control_c, 0, 64, 0
2, 21100, Control_c, 0, 64, 127
2, 21171, Note_on_c, 0, 64, 50
2, 21171, Note_on_c, 0, 60, 71
2, 21175, Note_off_c, 0, 74, 64
2, 21199, Note_off_c, 0, 62, 64
2, 21272, Note_off_c, 0, 64, 64
2, 21284, Control_c, 0, 64, 0
2, 21289, Note_on_c, 0, 57, 59
2, 21324, Control_c, 0, 64, 127
2, 21328, Note_on_c, 0, 64, 54
2, 21361, Note_off_c, 0, 64, 64
2, 21383, Note_on_c, 0, 64, 58
2, 21391, Note_on_c, 0, 52, 66
2, 21397, Control_c, 0, 64, 0
2, 21422, Note_off_c, 0, 57, 64
2, 21437, Control_c, 0, 64, 127
2, 21589, Note_on_c, 0, 54, 57
2, 21608, Note_off_c, 0, 60, 64
2, 21612, Note_off_c, 0, 52, 64
2, 21614, Control_c, 0, 64, 0
2, 21653, Control_c, 0, 64, 127
2, 21691, Note_on_c, 0, 62, 55
2, 21720, Note_off_c, 0, 64, 64
2, 21852, Note_on_c, 0, 59, 48
2, 21857, Note_on_c, 0, 55, 43
2, 21873, Note_off_c, 0, 54, 64
2, 21878, Control_c, 0, 64, 0
2, 21896, Note_off_c, 0, 62, 64
2, 21929, Control_c, 0, 64, 127
2, 21937, Control_c, 0, 64, 0
2, 21977, Control_c, 0, 64, 127
2, 22064, Note_on_c, 0, 64, 47
2, 22107, Note_on_c, 0, 66, 51
2, 22124, Note_on_c, 0, 50, 31
2, 22129, Note_on_c, 0, 43, 25
2, 22133, Note_off_c, 0, 64, 64
2, 22136, Control_c, 0, 64, 0
2, 22154, Control_c, 0, 64, 0
2, 22185, Control_c, 0, 64, 127
2, 22193, Control_c, 0, 64, 127
2, 22325, Note_on_c, 0, 67, 50
2, 22344, Note_off_c, 0, 66, 64
2, 22350, Control_c, 0, 64, 0
2, 22364, Control_c, 0, 64, 127
2, 22387, Note_off_c, 0, 59, 64
2, 22408, Note_off_c, 0, 55, 64
2, 22418, Control_c, 0, 64, 0
2, 22469, Control_c, 0, 64, 127
2, 22538, Note_on_c, 0, 64, 51
2, 22541, Note_on_c, 0, 57, 49
2, 22546, Note_on_c, 0, 60, 49
2, 22547, Note_off_c, 0, 43, 64
2, 22552, Note_off_c, 0, 50, 64
2, 22557, Control_c, 0, 64, 0
2, 22568, Note_off_c, 0, 67, 64
2, 22569, Control_c, 0, 64, 127
2, 22676, Control_c, 0, 64, 0
2, 22684, Note_on_c, 0, 66, 50
2, 22688, Note_off_c, 0, 64, 64
2, 22725, Control_c, 0, 64, 127
2, 22727, Note_on_c, 0, 67, 56
2, 22741, Note_on_c, 0, 50, 48
2, 22744, Note_on_c, 0, 43, 36
2, 22755, Note_off_c, 0, 66, 64
2, 22770, Control_c, 0, 64, 0
2, 22799, Control_c, 0, 64, 127
2, 22890, Control_c, 0, 64, 0
2, 22904, Control_c, 0, 64, 127
2, 22945, Note_on_c, 0, 66, 57
2, 22948, Note_on_c, 0, 69, 57
2, 22973, Note_off_c, 0, 67, 64
2, 23097, Control_c, 0, 64, 0
2, 23109, Control_c, 0, 64, 127
2, 23144, Note_on_c, 0, 71, 64
2, 23146, Note_on_c, 0, 65, 60
2, 23151, Note_on_c, 0, 59, 54
2, 23157, Note_off_c, 0, 57, 64
2, 23159, Control_c, 0, 64, 0
2, 23162, Note_off_c, 0, 60, 64
2, 23163, Note_off_c, 0, 66, 64
2, 23166, Note_off_c, 0, 69, 64
2, 23189, Control_c, 0, 64, 127
2, 23287, Note_on_c, 0, 73, 39
2, 23305, Note_off_c, 0, 50, 64
2, 23308, Note_off_c, 0, 43, 64
2, 23310, Control_c, 0, 64, 0
2, 23332, Note_on_c, 0, 43, 58
2, 23339, Control_c, 0, 64, 127
2, 23340, Note_on_c, 0, 74, 67
2, 23348, Note_off_c, 0, 59, 64
2, 23350, Control_c, 0, 64, 0
2, 23363, Control_c, 0, 64, 127
2, 23369, Note_off_c, 0, 73, 64
2, 23542, Note_on_c, 0, 75, 62
2, 23544, Note_on_c, 0, 66, 59
2, 23551, Note_off_c, 0, 74, 64
2, 23552, Note_on_c, 0, 42, 56
2, 23556, Note_off_c, 0, 65, 64
2, 23568, Control_c, 0, 64, 0
2, 23572, Note_off_c, 0, 43, 64
2, 23580, Control_c, 0, 64, 127
2, 23699, Control_c, 0, 64, 0
2, 23729, Control_c, 0, 64, 127
2, 23755, Note_on_c, 0, 30, 63
2, 23760, Note_on_c, 0, 76, 67
2, 23760, Note_on_c, 0, 68, 54
2, 23760, Note_on_c, 0, 64, 60
2, 23771, Note_off_c, 0, 66, 64
2, 23773, Note_off_c, 0, 75, 64
2, 23777, Control_c, 0, 64, 0
2, 23788, Control_c, 0, 64, 127
2, 23868, Note_on_c, 0, 73, 73
2, 23885, Note_off_c, 0, 76, 64
2, 23890, Control_c, 0, 64, 0
2, 23903, Control_c, 0, 64, 127
2, 23938, Note_off_c, 0, 42, 64
2, 23941, Note_off_c, 0, 64, 64
2, 23941, Note_off_c, 0, 68, 64
2, 23966, Note_on_c, 0, 54, 58
2, 23968, Note_on_c, 0, 68, 80
2, 23974, Note_on_c, 0, 64, 73
2, 23984, Note_off_c, 0, 73, 64
2, 24064, Note_off_c, 0, 30, 64
2, 24108, Control_c, 0, 64, 0
2, 24120, Control_c, 0, 64, 127
2, 24175, Note_off_c, 0, 71, 64
2, 24175, Note_on_c, 0, 70, 64
2, 24187, Note_off_c, 0, 68, 64
2, 24239, Note_off_c, 0, 64, 64
2, 24242, Note_off_c, 0, 54, 64
2, 24276, Note_on_c, 0, 54, 77
2, 24317, Control_c, 0, 64, 0
2, 24328, Control_c, 0, 64, 127
2, 24350, Note_off_c, 0, 54, 64
2, 24368, Control_c, 0, 64, 0
2, 24376, Note_off_c, 0, 70, 64
2, 24377, Note_on_c, 0, 66, 66
2, 24380, Note_on_c, 0, 63, 62
2, 24380, Note_on_c, 0, 54, 73
2, 24397, Control_c, 0, 64, 127
2, 24442, Note_off_c, 0, 66, 64
2, 24445, Note_off_c, 0, 63, 64
2, 24520, Note_on_c, 0, 66, 73
2, 24523, Note_on_c, 0, 68, 69
2, 24568, Note_off_c, 0, 66, 64
2, 24571, Note_off_c, 0, 68, 64
2, 24580, Note_on_c, 0, 70, 69
2, 24580, Note_on_c, 0, 66, 73
2, 24754, Note_off_c, 0, 54, 64
2, 24799, Note_on_c, 0, 71, 62
2, 24803, Note_off_c, 0, 70, 64
2, 24806, Note_on_c, 0, 54, 64
2, 24873, Note_off_c, 0, 66, 64
2, 24908, Control_c, 0, 64, 0
2, 24937, Control_c, 0, 64, 127
2, 25005, Note_on_c, 0, 68, 66
2, 25010, Note_on_c, 0, 64, 62
2, 25020, Note_off_c, 0, 71, 64
2, 25080, Note_off_c, 0, 68, 64
2, 25085, Note_off_c, 0, 64, 64
2, 25140, Note_on_c, 0, 70, 52
2, 25144, Note_on_c, 0, 66, 86
2, 25183, Note_off_c, 0, 66, 64
2, 25186, Note_off_c, 0, 54, 64
2, 25200, Note_on_c, 0, 66, 80
2, 25202, Note_on_c, 0, 64, 57
2, 25204, Note_on_c, 0, 71, 63
2, 25204, Note_on_c, 0, 68, 63
2, 25211, Control_c, 0, 64, 0
2, 25217, Note_off_c, 0, 70, 64
2, 25225, Control_c, 0, 64, 127
2, 25426, Note_on_c, 0, 73, 69
2, 25429, Note_on_c, 0, 70, 67
2, 25431, Note_off_c, 0, 68, 64
2, 25431, Note_off_c, 0, 71, 64
2, 25436, Note_on_c, 0, 54, 64
2, 25455, Control_c, 0, 64, 0
2, 25465, Control_c, 0, 64, 127
2, 25667, Note_on_c, 0, 75, 69
2, 25667, Note_on_c, 0, 71, 67
2, 25667, Note_on_c, 0, 47, 64
2, 25671, Note_on_c, 0, 63, 64
2, 25677, Control_c, 0, 64, 0
2, 25678, Note_off_c, 0, 73, 64
2, 25681, Note_off_c, 0, 70, 64
2, 25681, Note_off_c, 0, 66, 64
2, 25682, Note_off_c, 0, 54, 64
2, 25683, Note_off_c, 0, 64, 64
2, 25699, Control_c, 0, 64, 127
2, 25751, Control_c, 0, 64, 0
2, 25752, Note_off_c, 0, 47, 64
2, 25752, Note_off_c, 0, 71, 64
2, 25752, Note_off_c, 0, 75, 64
2, 25756, Note_off_c, 0, 63, 64
2, 25765, Control_c, 0, 64, 127
2, 25856, Note_on_c, 0, 71, 65
2, 25856, Note_on_c, 0, 66, 65
2, 25856, Note_on_c, 0, 63, 83
2, 25858, Note_on_c, 0, 78, 63
2, 25895, Note_off_c, 0, 63, 64
2, 25895, Note_off_c, 0, 66, 64
2, 25895, Note_off_c, 0, 71, 64
2, 25897, Note_off_c, 0, 78, 64
2, 25908, Note_on_c, 0, 78, 73
2, 25916, Note_on_c, 0, 71, 73
2, 25916, Note_on_c, 0, 66, 66
2, 25918, Note_on_c, 0, 63, 78
2, 25923, Control_c, 0, 64, 0
2, 25944, Control_c, 0, 64, 127
2, 25995, Control_c, 0, 64, 0
2, 26005, Control_c, 0, 64, 127
2, 26110, Note_off_c, 0, 71, 64
2, 26124, Note_on_c, 0, 80, 67
2, 26128, Note_off_c, 0, 78, 64
2, 26129, Note_on_c, 0, 71, 66
2, 26129, Note_on_c, 0, 68, 62
2, 26133, Note_on_c, 0, 64, 60
2, 26136, Note_off_c, 0, 66, 64
2, 26138, Note_off_c, 0, 63, 64
2, 26217, Control_c, 0, 64, 0
2, 26239, Control_c, 0, 64, 127
2, 26337, Note_off_c, 0, 71, 64
2, 26344, Note_on_c, 0, 78, 66
2, 26344, Note_on_c, 0, 66, 55
2, 26344, Note_on_c, 0, 63, 62
2, 26352, Note_on_c, 0, 71, 63
2, 26354, Control_c, 0, 64, 0
2, 26355, Note_off_c, 0, 80, 64
2, 26360, Note_off_c, 0, 68, 64
2, 26364, Note_off_c, 0, 64, 64
2, 26370, Control_c, 0, 64, 127
2, 26463, Control_c, 0, 64, 0
2, 26484, Control_c, 0, 64, 127
2, 26497, Note_off_c, 0, 63, 64
2, 26497, Note_off_c, 0, 66, 64
2, 26497, Note_off_c, 0, 78, 64
2, 26505, Note_off_c, 0, 71, 64
2, 26520, Note_on_c, 0, 68, 52
2, 26522, Note_on_c, 0, 75, 62
2, 26524, Note_on_c, 0, 63, 52
2, 26524, Note_on_c, 0, 59, 62
2, 26573, Note_off_c, 0, 68, 64
2, 26576, Control_c, 0, 64, 0
2, 26577, Note_off_c, 0, 63, 64
2, 26581, Note_on_c, 0, 63, 64
2, 26584, Note_on_c, 0, 71, 60
2, 26586, Note_on_c, 0, 68, 60
2, 26586, Note_on_c, 0, 56, 57
2, 26591, Note_off_c, 0, 75, 64
2, 26593, Note_off_c, 0, 59, 64
2, 26642, Control_c, 0, 64, 127
2, 26803, Note_off_c, 0, 68, 64
2, 26804, Note_on_c, 0, 61, 66
2, 26805, Note_on_c, 0, 64, 64
2, 26806, Note_on_c, 0, 68, 64
2, 26809, Note_on_c, 0, 76, 67
2, 26818, Note_off_c, 0, 63, 64
2, 26818, Control_c, 0, 64, 0
2, 26821, Note_off_c, 0, 71, 64
2, 26823, Note_off_c, 0, 56, 64
2, 26839, Control_c, 0, 64, 127
2, 26894, Control_c, 0, 64, 0
2, 26910, Control_c, 0, 64, 127
2, 27014, Note_off_c, 0, 68, 64
2, 27025, Note_on_c, 0, 75, 62
2, 27031, Note_on_c, 0, 63, 62
2, 27031, Note_on_c, 0, 59, 64
2, 27034, Note_on_c, 0, 68, 47
2, 27039, Note_off_c, 0, 61, 64
2, 27040, Note_off_c, 0, 64, 64
2, 27044, Note_off_c, 0, 76, 64
2, 27116, Control_c, 0, 64, 0
2, 27178, Note_off_c, 0, 75, 64
2, 27182, Control_c, 0, 64, 127
2, 27184, Note_off_c, 0, 59, 64
2, 27184, Note_off_c, 0, 63, 64
2, 27187, Note_off_c, 0, 68, 64
2, 27188, Note_on_c, 0, 56, 52
2, 27192, Note_on_c, 0, 71, 56
2, 27192, Note_on_c, 0, 68, 55
2, 27192, Note_on_c, 0, 63, 66
2, 27236, Note_off_c, 0, 68, 64
2, 27244, Note_on_c, 0, 59, 56
2, 27244, Note_on_c, 0, 52, 55
2, 27248, Note_on_c, 0, 68, 60
2, 27248, Note_on_c, 0, 64, 67
2, 27259, Note_off_c, 0, 56, 64
2, 27263, Note_off_c, 0, 63, 64
2, 27263, Note_off_c, 0, 71, 64
2, 27264, Control_c, 0, 64, 0
2, 27318, Control_c, 0, 64, 127
2, 27358, Control_c, 0, 64, 0
2, 27379, Control_c, 0, 64, 127
2, 27492, Note_on_c, 0, 54, 49
2, 27496, Note_on_c, 0, 47, 47
2, 27499, Note_on_c, 0, 71, 66
2, 27499, Note_on_c, 0, 63, 62
2, 27505, Note_off_c, 0, 52, 64
2, 27509, Note_off_c, 0, 64, 64
2, 27509, Note_off_c, 0, 68, 64
2, 27522, Control_c, 0, 64, 0
2, 27552, Control_c, 0, 64, 127
2, 27763, Note_on_c, 0, 73, 73
2, 27763, Note_on_c, 0, 66, 73
2, 27765, Note_on_c, 0, 64, 69
2, 27766, Note_off_c, 0, 54, 64
2, 27770, Note_off_c, 0, 47, 64
2, 27772, Note_on_c, 0, 58, 63
2, 27772, Control_c, 0, 64, 0
2, 27773, Note_off_c, 0, 63, 64
2, 27773, Note_off_c, 0, 71, 64
2, 27779, Note_off_c, 0, 59, 64
2, 27801, Control_c, 0, 64, 127
2, 27804, Control_c, 0, 64, 0
2, 27854, Note_off_c, 0, 66, 64
2, 27854, Note_off_c, 0, 73, 64
2, 27856, Note_off_c, 0, 64, 64
2, 27858, Control_c, 0, 64, 127
2, 27863, Note_off_c, 0, 58, 64
2, 27997, Note_on_c, 0, 42, 57
2, 28003, Note_on_c, 0, 75, 54
2, 28062, Control_c, 0, 64, 0
2, 28068, Note_on_c, 0, 73, 63
2, 28072, Note_on_c, 0, 64, 69
2, 28073, Note_on_c, 0, 66, 71
2, 28075, Note_on_c, 0, 58, 63
2, 28083, Control_c, 0, 64, 0
2, 28084, Note_off_c, 0, 75, 64
2, 28092, Control_c, 0, 64, 127
2, 28111, Note_off_c, 0, 42, 64
2, 28141, Control_c, 0, 64, 127
2, 28312, Control_c, 0, 64, 0
2, 28341, Control_c, 0, 64, 127
2, 28494, Note_on_c, 0, 63, 55
2, 28498, Note_on_c, 0, 71, 57
2, 28498, Note_on_c, 0, 59, 41
2, 28498, Note_on_c, 0, 47, 41
2, 28499, Note_off_c, 0, 73, 64
2, 28503, Note_off_c, 0, 64, 64
2, 28504, Note_off_c, 0, 66, 64
2, 28506, Note_off_c, 0, 58, 64
2, 28579, Note_off_c, 0, 63, 64
2, 28583, Note_off_c, 0, 47, 64
2, 28583, Note_off_c, 0, 59, 64
2, 28583, Note_off_c, 0, 71, 64
2, 28604, Note_on_c, 0, 59, 49
2, 28608, Note_on_c, 0, 63, 54
2, 28608, Note_on_c, 0, 47, 50
2, 28610, Note_on_c, 0, 71, 51
2, 28623, Control_c, 0, 64, 0
2, 28631, Control_c, 0, 64, 0
2, 28662, Control_c, 0, 64, 127
2, 28681, Control_c, 0, 64, 127
2, 28738, Note_off_c, 0, 59, 64
2, 28742, Note_off_c, 0, 47, 64
2, 28742, Note_off_c, 0, 63, 64
2, 28744, Note_off_c, 0, 71, 64
2, 28815, Note_on_c, 0, 68, 63
2, 28858, Note_off_c, 0, 68, 64
2, 28880, Note_on_c, 0, 64, 65
2, 28880, Note_on_c, 0, 59, 57
2, 28880, Note_on_c, 0, 52, 48
2, 28883, Note_on_c, 0, 68, 73
2, 28896, Control_c, 0, 64, 0
2, 28936, Control_c, 0, 64, 127
2, 29099, Control_c, 0, 64, 0
2, 29109, Note_on_c, 0, 70, 63
2, 29112, Note_on_c, 0, 61, 60
2, 29120, Note_off_c, 0, 59, 64
2, 29124, Control_c, 0, 64, 127
2, 29130, Note_off_c, 0, 68, 64
2, 29171, Control_c, 0, 64, 0
2, 29202, Control_c, 0, 64, 127
2, 29212, Note_on_c, 0, 59, 58
2, 29214, Note_on_c, 0, 68, 73
2, 29221, Note_off_c, 0, 61, 64
2, 29224, Note_off_c, 0, 70, 64
2, 29332, Note_on_c, 0, 54, 66
2, 29334, Note_on_c, 0, 66, 67
2, 29335, Note_off_c, 0, 68, 64
2, 29336, Note_on_c, 0, 58, 66
2, 29337, Note_off_c, 0, 52, 64
2, 29338, Control_c, 0, 64, 0
2, 29355, Note_off_c, 0, 59, 64
2, 29364, Control_c, 0, 64, 127
2, 29399, Note_off_c, 0, 64, 64
2, 29436, Control_c, 0, 64, 0
2, 29476, Control_c, 0, 64, 127
2, 29485, Note_off_c, 0, 54, 64
2, 29487, Note_off_c, 0, 66, 64
2, 29489, Note_off_c, 0, 58, 64
2, 29509, Note_on_c, 0, 73, 69
2, 29509, Note_on_c, 0, 42, 59
2, 29556, Note_off_c, 0, 73, 64
2, 29576, Note_on_c, 0, 64, 69
2, 29576, Note_on_c, 0, 58, 62
2, 29577, Note_on_c, 0, 66, 74
2, 29579, Note_on_c, 0, 73, 73
2, 29598, Control_c, 0, 64, 0
2, 29613, Note_off_c, 0, 42, 64
2, 29639, Control_c, 0, 64, 0
2, 29646, Control_c, 0, 64, 127
2, 29664, Control_c, 0, 64, 127
2, 29873, Note_off_c, 0, 64, 64
2, 29874, Note_off_c, 0, 66, 64
2, 29878, Control_c, 0, 64, 0
2, 29889, Note_on_c, 0, 75, 73
2, 29893, Note_on_c, 0, 66, 56
2, 29893, Note_on_c, 0, 64, 59
2, 29899, Note_on_c, 0, 42, 56
2, 29904, Control_c, 0, 64, 127
2, 29907, Note_off_c, 0, 73, 64
2, 30138, Control_c, 0, 64, 0
2, 30186, Control_c, 0, 64, 127
2, 30276, Note_on_c, 0, 71, 57
2, 30281, Note_on_c, 0, 63, 47
2, 30286, Note_on_c, 0, 59, 36
2, 30291, Note_on_c, 0, 47, 40
2, 30294, Note_off_c, 0, 64, 64
2, 30294, Note_off_c, 0, 66, 64
2, 30294, Note_off_c, 0, 75, 64
2, 30300, Note_off_c, 0, 58, 64
2, 30304, Note_off_c, 0, 42, 64
2, 30315, Control_c, 0, 64, 0
2, 30356, Control_c, 0, 64, 127
2, 30701, Note_off_c, 0, 63, 64
2, 30708, Note_on_c, 0, 69, 37
2, 30719, Note_on_c, 0, 63, 52
2, 30739, Note_off_c, 0, 71, 64
2, 30740, Control_c, 0, 64, 0
2, 30750, Control_c, 0, 64, 127
2, 30855, Control_c, 0, 64, 0
2, 30896, Control_c, 0, 64, 127
2, 31077, Note_off_c, 0, 47, 64
2, 31096, Note_on_c, 0, 47, 41
2, 31099, Note_on_c, 0, 53, 29
2, 31106, Note_off_c, 0, 59, 64
2, 31118, Control_c, 0, 64, 0
2, 31148, Control_c, 0, 64, 127
2, 31280, Control_c, 0, 64, 0
2, 31290, Control_c, 0, 64, 127
2, 31587, Note_on_c, 0, 70, 38
2, 31591, Note_on_c, 0, 46, 32
2, 31601, Note_off_c, 0, 69, 64
2, 31603, Note_on_c, 0, 55, 28
2, 31606, Control_c, 0, 64, 0
2, 31614, Note_off_c, 0, 47, 64
2, 31617, Note_off_c, 0, 53, 64
2, 31658, Control_c, 0, 64, 0
2, 31663, Control_c, 0, 64, 127
2, 31688, Control_c, 0, 64, 127
2, 31694, Note_on_c, 0, 72, 47
2, 31713, Note_off_c, 0, 70, 64
2, 31748, Control_c, 0, 64, 0
2, 31771, Control_c, 0, 64, 127
2, 31787, Note_on_c, 0, 70, 60
2, 31800, Note_off_c, 0, 63, 64
2, 31804, Note_off_c, 0, 72, 64
2, 31881, Note_on_c, 0, 77, 42
2, 31898, Note_off_c, 0, 70, 64
2, 31937, Note_off_c, 0, 46, 64
2, 31938, Note_off_c, 0, 55, 64
2, 31964, Note_on_c, 0, 75, 49
2, 31974, Note_off_c, 0, 77, 64
2, 32042, Note_on_c, 0, 80, 51
2, 32049, Note_off_c, 0, 75, 64
2, 32134, Note_on_c, 0, 79, 48
2, 32144, Note_off_c, 0, 80, 64
2, 32146, Control_c, 0, 64, 0
2, 32203, Control_c, 0, 64, 127
2, 32215, Note_on_c, 0, 84, 56
2, 32251, Note_off_c, 0, 79, 64
2, 32288, Control_c, 0, 64, 0
2, 32293, Control_c, 0, 64, 0
2, 32304, Note_on_c, 0, 67, 46
2, 32305, Note_on_c, 0, 82, 67
2, 32307, Note_on_c, 0, 63, 46
2, 32307, Note_on_c, 0, 58, 46
2, 32311, Control_c, 0, 64, 127
2, 32323, Control_c, 0, 64, 127
2, 32334, Note_off_c, 0, 84, 64
2, 32384, Note_on_c, 0, 86, 54
2, 32393, Note_off_c, 0, 82, 64
2, 32480, Note_on_c, 0, 46, 47
2, 32487, Note_on_c, 0, 87, 59
2, 32491, Control_c, 0, 64, 0
2, 32509, Note_off_c, 0, 67, 64
2, 32512, Note_off_c, 0, 58, 64
2, 32512, Note_off_c, 0, 63, 64
2, 32525, Note_off_c, 0, 86, 64
2, 32534, Note_off_c, 0, 46, 64
2, 32542, Control_c, 0, 64, 127
2, 32570, Note_on_c, 0, 84, 62
2, 32585, Note_off_c, 0, 87, 64
2, 32648, Note_on_c, 0, 82, 72
2, 32667, Note_off_c, 0, 84, 64
2, 32736, Note_on_c, 0, 84, 59
2, 32758, Note_off_c, 0, 82, 64
2, 32820, Note_on_c, 0, 82, 71
2, 32824, Note_on_c, 0, 68, 47
2, 32827, Note_on_c, 0, 62, 47
2, 32828, Note_on_c, 0, 58, 47
2, 32833, Control_c, 0, 64, 0
2, 32843, Note_off_c, 0, 84, 64
2, 32863, Control_c, 0, 64, 127
2, 32894, Note_on_c, 0, 79, 62
2, 32899, Note_off_c, 0, 82, 64
2, 32978, Note_on_c, 0, 80, 52
2, 32987, Note_on_c, 0, 46, 31
2, 32992, Note_off_c, 0, 79, 64
2, 32996, Note_off_c, 0, 68, 64
2, 32999, Note_off_c, 0, 62, 64
2, 33000, Note_off_c, 0, 58, 64
2, 33031, Control_c, 0, 64, 0
2, 33041, Note_off_c, 0, 46, 64
2, 33063, Note_on_c, 0, 77, 50
2, 33071, Note_off_c, 0, 80, 64
2, 33082, Control_c, 0, 64, 127
2, 33145, Note_on_c, 0, 79, 58
2, 33145, Note_on_c, 0, 51, 50
2, 33158, Note_off_c, 0, 77, 64
2, 33212, Note_on_c, 0, 74, 52
2, 33224, Note_off_c, 0, 79, 64
2, 33252, Note_on_c, 0, 75, 55
2, 33266, Note_off_c, 0, 74, 64
2, 33283, Note_on_c, 0, 77, 42
2, 33298, Note_off_c, 0, 75, 64
2, 33310, Note_on_c, 0, 63, 40
2, 33313, Note_on_c, 0, 67, 32
2, 33316, Note_on_c, 0, 58, 41
2, 33322, Control_c, 0, 64, 0
2, 33323, Note_off_c, 0, 51, 64
2, 33328, Note_on_c, 0, 75, 43
2, 33336, Control_c, 0, 64, 127
2, 33348, Note_off_c, 0, 77, 64
2, 33403, Note_on_c, 0, 74, 50
2, 33410, Note_off_c, 0, 75, 64
2, 33460, Note_on_c, 0, 66, 36
2, 33460, Note_on_c, 0, 57, 31
2, 33462, Note_on_c, 0, 75, 52
2, 33476, Note_off_c, 0, 67, 64
2, 33478, Note_off_c, 0, 74, 64
2, 33478, Control_c, 0, 64, 0
2, 33479, Note_off_c, 0, 58, 64
2, 33518, Control_c, 0, 64, 127
2, 33547, Note_on_c, 0, 72, 45
2, 33560, Note_off_c, 0, 75, 64
2, 33615, Control_c, 0, 64, 0
2, 33618, Note_off_c, 0, 63, 64
2, 33622, Note_off_c, 0, 57, 64
2, 33622, Note_off_c, 0, 66, 64
2, 33628, Note_on_c, 0, 70, 64
2, 33645, Note_off_c, 0, 72, 64
2, 33659, Control_c, 0, 64, 127
2, 33705, Note_on_c, 0, 72, 51
2, 33720, Note_off_c, 0, 70, 64
2, 33784, Note_on_c, 0, 58, 40
2, 33788, Note_on_c, 0, 63, 38
2, 33792, Note_on_c, 0, 67, 41
2, 33794, Note_on_c, 0, 70, 63
2, 33798, Control_c, 0, 64, 0
2, 33812, Note_off_c, 0, 72, 64
2, 33812, Control_c, 0, 64, 127
2, 33862, Control_c, 0, 64, 0
2, 33871, Note_on_c, 0, 77, 50
2, 33876, Control_c, 0, 64, 127
2, 33885, Note_off_c, 0, 70, 64
2, 33938, Control_c, 0, 64, 0
2, 33954, Note_on_c, 0, 51, 37
2, 33960, Note_on_c, 0, 75, 56
2, 33963, Control_c, 0, 64, 127
2, 33982, Note_off_c, 0, 77, 64
2, 33988, Note_off_c, 0, 58, 64
2, 33992, Note_off_c, 0, 63, 64
2, 33996, Note_off_c, 0, 67, 64
2, 34008, Note_off_c, 0, 51, 64
2, 34018, Control_c, 0, 64, 0
2, 34038, Note_on_c, 0, 80, 52
2, 34046, Note_off_c, 0, 75, 64
2, 34058, Control_c, 0, 64, 127
2, 34121, Note_on_c, 0, 79, 63
2, 34136, Note_off_c, 0, 80, 64
2, 34155, Control_c, 0, 64, 0
2, 34195, Note_on_c, 0, 84, 56
2, 34199, Control_c, 0, 64, 127
2, 34211, Note_off_c, 0, 79, 64
2, 34264, Note_on_c, 0, 58, 46
2, 34272, Note_on_c, 0, 67, 44
2, 34272, Note_on_c, 0, 63, 43
2, 34279, Note_on_c, 0, 82, 71
2, 34280, Control_c, 0, 64, 0
2, 34291, Note_off_c, 0, 84, 64
2, 34302, Control_c, 0, 64, 127
2, 34338, Control_c, 0, 64, 0
2, 34343, Note_on_c, 0, 86, 60
2, 34352, Control_c, 0, 64, 127
2, 34359, Note_off_c, 0, 82, 64
2, 34418, Control_c, 0, 64, 0
2, 34432, Note_on_c, 0, 87, 59
2, 34439, Note_on_c, 0, 51, 53
2, 34446, Note_off_c, 0, 58, 64
2, 34452, Control_c, 0, 64, 127
2, 34454, Note_off_c, 0, 63, 64
2, 34454, Note_off_c, 0, 67, 64
2, 34467, Note_off_c, 0, 86, 64
2, 34478, Control_c, 0, 64, 0
2, 34493, Note_off_c, 0, 51, 64
2, 34503, Control_c, 0, 64, 127
2, 34506, Note_on_c, 0, 84, 62
2, 34520, Note_off_c, 0, 87, 64
2, 34585, Note_on_c, 0, 82, 62
2, 34613, Note_off_c, 0, 84, 64
2, 34672, Note_on_c, 0, 84, 59
2, 34693, Note_off_c, 0, 82, 64
2, 34740, Note_on_c, 0, 58, 46
2, 34741, Note_on_c, 0, 82, 62
2, 34744, Note_on_c, 0, 68, 46
2, 34744, Note_on_c, 0, 62, 46
2, 34755, Note_off_c, 0, 84, 64
2, 34814, Note_on_c, 0, 79, 55
2, 34820, Control_c, 0, 64, 0
2, 34831, Note_off_c, 0, 82, 64
2, 34842, Control_c, 0, 64, 127
2, 34887, Note_on_c, 0, 80, 58
2, 34900, Note_off_c, 0, 79, 64
2, 34902, Note_on_c, 0, 51, 43
2, 34918, Note_off_c, 0, 58, 64
2, 34922, Note_off_c, 0, 62, 64
2, 34922, Note_off_c, 0, 68, 64
2, 34956, Note_off_c, 0, 51, 64
2, 34958, Control_c, 0, 64, 0
2, 34971, Note_on_c, 0, 77, 46
2, 34984, Note_off_c, 0, 80, 64
2, 34992, Control_c, 0, 64, 127
2, 35060, Note_on_c, 0, 79, 49
2, 35077, Note_off_c, 0, 77, 64
2, 35125, Note_on_c, 0, 74, 51
2, 35156, Note_off_c, 0, 79, 64
2, 35197, Note_on_c, 0, 67, 28
2, 35197, Note_on_c, 0, 61, 43
2, 35200, Note_on_c, 0, 58, 43
2, 35202, Note_on_c, 0, 75, 53
2, 35214, Note_off_c, 0, 74, 64
2, 35269, Note_on_c, 0, 72, 58
2, 35283, Note_off_c, 0, 75, 64
2, 35340, Note_on_c, 0, 51, 45
2, 35352, Note_off_c, 0, 61, 64
2, 35352, Note_off_c, 0, 67, 64
2, 35352, Note_on_c, 0, 73, 51
2, 35355, Note_off_c, 0, 58, 64
2, 35366, Note_off_c, 0, 72, 64
2, 35394, Note_off_c, 0, 51, 64
2, 35427, Note_on_c, 0, 65, 59
2, 35446, Note_off_c, 0, 73, 64
2, 35489, Control_c, 0, 64, 0
2, 35503, Note_on_c, 0, 63, 58
2, 35511, Control_c, 0, 64, 127
2, 35515, Note_off_c, 0, 65, 64
2, 35580, Note_on_c, 0, 65, 49
2, 35595, Note_off_c, 0, 63, 64
2, 35626, Control_c, 0, 64, 0
2, 35651, Note_on_c, 0, 63, 53
2, 35652, Note_on_c, 0, 60, 40
2, 35652, Note_on_c, 0, 51, 34
2, 35664, Note_off_c, 0, 65, 64
2, 35693, Control_c, 0, 64, 127
2, 35724, Note_on_c, 0, 70, 54
2, 35743, Note_off_c, 0, 63, 64
2, 35793, Control_c, 0, 64, 0
2, 35805, Note_on_c, 0, 68, 52
2, 35814, Note_on_c, 0, 44, 50
2, 35818, Control_c, 0, 64, 127
2, 35821, Note_off_c, 0, 70, 64
2, 35830, Note_off_c, 0, 51, 64
2, 35830, Note_off_c, 0, 60, 64
2, 35868, Note_off_c, 0, 44, 64
2, 35868, Note_on_c, 0, 73, 50
2, 35882, Note_off_c, 0, 68, 64
2, 35951, Note_on_c, 0, 72, 68
2, 35958, Note_off_c, 0, 73, 64
2, 36018, Note_on_c, 0, 77, 58
2, 36029, Control_c, 0, 64, 0
2, 36042, Note_off_c, 0, 72, 64
2, 36051, Control_c, 0, 64, 127
2, 36071, Control_c, 0, 64, 0
2, 36093, Note_on_c, 0, 75, 62
2, 36096, Note_on_c, 0, 60, 46
2, 36096, Note_on_c, 0, 51, 40
2, 36109, Control_c, 0, 64, 127
2, 36117, Note_off_c, 0, 77, 64
2, 36160, Note_on_c, 0, 79, 59
2, 36166, Control_c, 0, 64, 0
2, 36185, Note_off_c, 0, 75, 64
2, 36221, Control_c, 0, 64, 0
2, 36233, Control_c, 0, 64, 127
2, 36240, Note_on_c, 0, 80, 71
2, 36242, Note_on_c, 0, 44, 56
2, 36251, Note_off_c, 0, 51, 64
2, 36251, Note_off_c, 0, 60, 64
2, 36253, Control_c, 0, 64, 127
2, 36265, Note_off_c, 0, 79, 64
2, 36296, Note_off_c, 0, 44, 64
2, 36319, Note_on_c, 0, 77, 60
2, 36332, Note_off_c, 0, 80, 64
2, 36333, Control_c, 0, 64, 0
2, 36358, Control_c, 0, 64, 127
2, 36379, Note_on_c, 0, 75, 63
2, 36396, Note_off_c, 0, 77, 64
2, 36457, Note_on_c, 0, 77, 62
2, 36482, Note_off_c, 0, 75, 64
2, 36504, Note_on_c, 0, 55, 38
2, 36508, Note_on_c, 0, 51, 31
2, 36510, Note_on_c, 0, 61, 46
2, 36512, Note_on_c, 0, 75, 62
2, 36512, Control_c, 0, 64, 0
2, 36531, Note_off_c, 0, 77, 64
2, 36532, Control_c, 0, 64, 127
2, 36581, Note_on_c, 0, 72, 57
2, 36598, Note_off_c, 0, 75, 64
2, 36611, Control_c, 0, 64, 0
2, 36649, Control_c, 0, 64, 127
2, 36659, Note_off_c, 0, 55, 64
2, 36660, Note_on_c, 0, 73, 74
2, 36663, Note_off_c, 0, 51, 64
2, 36663, Note_on_c, 0, 44, 53
2, 36665, Note_off_c, 0, 61, 64
2, 36675, Note_off_c, 0, 72, 64
2, 36720, Note_off_c, 0, 44, 64
2, 36727, Note_on_c, 0, 70, 69
2, 36731, Note_off_c, 0, 73, 64
2, 36761, Control_c, 0, 64, 0
2, 36793, Control_c, 0, 64, 127
2, 36804, Note_on_c, 0, 72, 64
2, 36824, Note_off_c, 0, 70, 64
2, 36858, Note_on_c, 0, 67, 57
2, 36873, Note_off_c, 0, 72, 64
2, 36896, Note_on_c, 0, 68, 70
2, 36909, Note_off_c, 0, 67, 64
2, 36925, Note_on_c, 0, 70, 70
2, 36932, Note_off_c, 0, 68, 64
2, 36934, Note_on_c, 0, 56, 44
2, 36936, Note_on_c, 0, 60, 44
2, 36936, Note_on_c, 0, 51, 46
2, 36944, Control_c, 0, 64, 0
2, 36959, Note_on_c, 0, 68, 65
2, 36967, Control_c, 0, 64, 127
2, 36978, Note_off_c, 0, 70, 64
2, 37023, Note_on_c, 0, 67, 65
2, 37033, Note_off_c, 0, 68, 64
2, 37052, Control_c, 0, 64, 0
2, 37068, Control_c, 0, 64, 0
2, 37072, Control_c, 0, 64, 127
2, 37078, Note_on_c, 0, 68, 68
2, 37080, Note_on_c, 0, 59, 44
2, 37086, Note_on_c, 0, 50, 41
2, 37092, Note_off_c, 0, 67, 64
2, 37094, Note_off_c, 0, 51, 64
2, 37094, Note_off_c, 0, 60, 64
2, 37114, Control_c, 0, 64, 127
2, 37152, Note_on_c, 0, 65, 50
2, 37171, Note_off_c, 0, 68, 64
2, 37212, Control_c, 0, 64, 0
2, 37220, Note_off_c, 0, 59, 64
2, 37220, Note_on_c, 0, 63, 49
2, 37221, Note_off_c, 0, 56, 64
2, 37226, Note_off_c, 0, 50, 64
2, 37241, Note_off_c, 0, 65, 64
2, 37253, Control_c, 0, 64, 127
2, 37281, Note_on_c, 0, 65, 53
2, 37292, Note_off_c, 0, 63, 64
2, 37350, Control_c, 0, 64, 0
2, 37364, Note_on_c, 0, 63, 57
2, 37364, Note_on_c, 0, 60, 40
2, 37364, Note_on_c, 0, 56, 36
2, 37364, Note_on_c, 0, 51, 43
2, 37376, Note_off_c, 0, 65, 64
2, 37388, Control_c, 0, 64, 127
2, 37432, Note_on_c, 0, 70, 55
2, 37449, Note_off_c, 0, 63, 64
2, 37484, Control_c, 0, 64, 0
2, 37498, Control_c, 0, 64, 0
2, 37504, Note_on_c, 0, 44, 52
2, 37507, Control_c, 0, 64, 127
2, 37507, Note_on_c, 0, 68, 70
2, 37512, Control_c, 0, 64, 127
2, 37518, Note_off_c, 0, 70, 64
2, 37519, Note_off_c, 0, 51, 64
2, 37519, Note_off_c, 0, 56, 64
2, 37519, Note_off_c, 0, 60, 64
2, 37558, Note_off_c, 0, 44, 64
2, 37567, Note_on_c, 0, 73, 52
2, 37582, Note_off_c, 0, 68, 64
2, 37608, Control_c, 0, 64, 0
2, 37642, Note_on_c, 0, 72, 70
2, 37654, Control_c, 0, 64, 127
2, 37661, Note_off_c, 0, 73, 64
2, 37704, Note_on_c, 0, 77, 52
2, 37731, Note_off_c, 0, 72, 64
2, 37752, Control_c, 0, 64, 0
2, 37752, Control_c, 0, 64, 0
2, 37773, Note_on_c, 0, 75, 59
2, 37773, Note_on_c, 0, 51, 44
2, 37777, Note_on_c, 0, 60, 44
2, 37788, Control_c, 0, 64, 127
2, 37793, Control_c, 0, 64, 127
2, 37798, Note_off_c, 0, 77, 64
2, 37847, Note_on_c, 0, 79, 67
2, 37854, Note_off_c, 0, 75, 64
2, 37890, Control_c, 0, 64, 0
2, 37898, Control_c, 0, 64, 0
2, 37912, Note_on_c, 0, 80, 70
2, 37922, Control_c, 0, 64, 127
2, 37926, Note_on_c, 0, 44, 55
2, 37928, Control_c, 0, 64, 127
2, 37939, Note_off_c, 0, 79, 64
2, 37951, Note_off_c, 0, 51, 64
2, 37955, Note_off_c, 0, 60, 64
2, 37987, Note_on_c, 0, 77, 56
2, 37999, Note_off_c, 0, 44, 64
2, 38004, Note_off_c, 0, 80, 64
2, 38038, Control_c, 0, 64, 0
2, 38051, Note_on_c, 0, 75, 61
2, 38052, Control_c, 0, 64, 127
2, 38067, Note_off_c, 0, 77, 64
2, 38126, Note_on_c, 0, 77, 58
2, 38144, Note_off_c, 0, 75, 64
2, 38165, Control_c, 0, 64, 0
2, 38180, Note_on_c, 0, 55, 47
2, 38180, Note_on_c, 0, 51, 33
2, 38181, Note_on_c, 0, 75, 47
2, 38187, Note_on_c, 0, 61, 58
2, 38204, Control_c, 0, 64, 127
2, 38210, Note_off_c, 0, 77, 64
2, 38256, Note_on_c, 0, 72, 60
2, 38261, Note_off_c, 0, 75, 64
2, 38292, Control_c, 0, 64, 0
2, 38302, Control_c, 0, 64, 0
2, 38315, Control_c, 0, 64, 127
2, 38328, Control_c, 0, 64, 127
2, 38329, Note_on_c, 0, 73, 63
2, 38330, Note_on_c, 0, 44, 59
2, 38338, Note_off_c, 0, 51, 64
2, 38338, Note_off_c, 0, 55, 64
2, 38339, Note_off_c, 0, 72, 64
2, 38345, Note_off_c, 0, 61, 64
2, 38390, Note_on_c, 0, 70, 69
2, 38401, Note_off_c, 0, 73, 64
2, 38438, Control_c, 0, 64, 0
2, 38461, Note_on_c, 0, 72, 68
2, 38462, Control_c, 0, 64, 127
2, 38478, Note_off_c, 0, 70, 64
2, 38532, Note_on_c, 0, 67, 54
2, 38553, Note_off_c, 0, 72, 64
2, 38580, Note_on_c, 0, 70, 66
2, 38603, Note_off_c, 0, 67, 64
2, 38604, Note_on_c, 0, 63, 49
2, 38604, Note_on_c, 0, 60, 49
2, 38604, Note_on_c, 0, 51, 47
2, 38607, Note_on_c, 0, 68, 62
2, 38616, Note_off_c, 0, 44, 64
2, 38620, Note_off_c, 0, 70, 64
2, 38684, Note_on_c, 0, 67, 58
2, 38700, Note_off_c, 0, 68, 64
2, 38705, Control_c, 0, 64, 0
2, 38744, Control_c, 0, 64, 127
2, 38748, Note_on_c, 0, 62, 49
2, 38748, Note_on_c, 0, 56, 54
2, 38748, Note_on_c, 0, 46, 51
2, 38750, Note_on_c, 0, 65, 65
2, 38756, Note_off_c, 0, 51, 64
2, 38756, Note_off_c, 0, 60, 64
2, 38756, Note_off_c, 0, 63, 64
2, 38773, Note_off_c, 0, 67, 64
2, 38814, Note_on_c, 0, 72, 55
2, 38837, Note_off_c, 0, 65, 64
2, 38842, Control_c, 0, 64, 0
2, 38855, Control_c, 0, 64, 127
2, 38881, Note_off_c, 0, 46, 64
2, 38881, Note_off_c, 0, 56, 64
2, 38881, Note_off_c, 0, 62, 64
2, 38889, Note_on_c, 0, 70, 69
2, 38899, Note_off_c, 0, 72, 64
2, 38967, Note_on_c, 0, 72, 50
2, 38981, Note_off_c, 0, 70, 64
2, 39009, Control_c, 0, 64, 0
2, 39035, Note_on_c, 0, 70, 60
2, 39035, Note_on_c, 0, 58, 40
2, 39037, Note_on_c, 0, 67, 40
2, 39048, Note_off_c, 0, 72, 64
2, 39049, Control_c, 0, 64, 127
2, 39101, Note_on_c, 0, 77, 51
2, 39114, Note_off_c, 0, 70, 64
2, 39147, Control_c, 0, 64, 0
2, 39179, Note_on_c, 0, 75, 55
2, 39181, Note_on_c, 0, 51, 52
2, 39185, Control_c, 0, 64, 127
2, 39186, Note_off_c, 0, 77, 64
2, 39213, Note_off_c, 0, 58, 64
2, 39215, Note_off_c, 0, 67, 64
2, 39235, Note_off_c, 0, 51, 64
2, 39244, Note_on_c, 0, 80, 59
2, 39261, Note_off_c, 0, 75, 64
2, 39316, Note_on_c, 0, 79, 67
2, 39332, Note_off_c, 0, 80, 64
2, 39388, Note_on_c, 0, 84, 62
2, 39403, Note_off_c, 0, 79, 64
2, 39422, Control_c, 0, 64, 0
2, 39440, Note_on_c, 0, 58, 46
2, 39444, Note_on_c, 0, 82, 70
2, 39444, Note_on_c, 0, 67, 47
2, 39461, Control_c, 0, 64, 127
2, 39489, Note_off_c, 0, 84, 64
2, 39508, Note_on_c, 0, 86, 59
2, 39523, Note_off_c, 0, 82, 64
2, 39549, Control_c, 0, 64, 0
2, 39562, Control_c, 0, 64, 0
2, 39571, Note_on_c, 0, 87, 70
2, 39582, Note_on_c, 0, 51, 52
2, 39589, Control_c, 0, 64, 127
2, 39595, Note_off_c, 0, 58, 64
2, 39599, Note_off_c, 0, 67, 64
2, 39600, Note_off_c, 0, 86, 64
2, 39605, Control_c, 0, 64, 127
2, 39636, Note_off_c, 0, 51, 64
2, 39639, Note_on_c, 0, 84, 62
2, 39657, Note_off_c, 0, 87, 64
2, 39687, Control_c, 0, 64, 0
2, 39703, Note_on_c, 0, 82, 79
2, 39716, Note_off_c, 0, 84, 64
2, 39725, Control_c, 0, 64, 127
2, 39777, Note_on_c, 0, 84, 62
2, 39785, Note_off_c, 0, 82, 64
2, 39844, Note_on_c, 0, 68, 53
2, 39844, Note_on_c, 0, 62, 45
2, 39848, Note_on_c, 0, 58, 41
2, 39851, Note_on_c, 0, 82, 72
2, 39880, Note_off_c, 0, 84, 64
2, 39912, Note_on_c, 0, 79, 70
2, 39924, Note_off_c, 0, 82, 64
2, 39962, Control_c, 0, 64, 0
2, 39971, Note_on_c, 0, 80, 70
2, 39973, Note_on_c, 0, 51, 47
2, 39983, Note_off_c, 0, 79, 64
2, 39999, Note_off_c, 0, 62, 64
2, 39999, Note_off_c, 0, 68, 64
2, 40001, Control_c, 0, 64, 127
2, 40003, Note_off_c, 0, 58, 64
2, 40027, Note_off_c, 0, 51, 64
2, 40047, Note_on_c, 0, 77, 63
2, 40063, Note_off_c, 0, 80, 64
2, 40102, Control_c, 0, 64, 0
2, 40117, Note_on_c, 0, 79, 51
2, 40132, Note_off_c, 0, 77, 64
2, 40145, Control_c, 0, 64, 127
2, 40165, Note_on_c, 0, 74, 53
2, 40186, Note_off_c, 0, 79, 64
2, 40198, Note_on_c, 0, 75, 52
2, 40207, Note_off_c, 0, 74, 64
2, 40224, Note_on_c, 0, 77, 46
2, 40237, Note_off_c, 0, 75, 64
2, 40243, Control_c, 0, 64, 0
2, 40264, Note_on_c, 0, 67, 36
2, 40264, Note_on_c, 0, 63, 45
2, 40264, Note_on_c, 0, 58, 41
2, 40266, Note_on_c, 0, 75, 58
2, 40269, Control_c, 0, 64, 127
2, 40282, Note_off_c, 0, 77, 64
2, 40324, Note_on_c, 0, 74, 56
2, 40340, Note_off_c, 0, 75, 64
2, 40384, Control_c, 0, 64, 0
2, 40404, Note_on_c, 0, 75, 57
2, 40406, Control_c, 0, 64, 127
2, 40408, Note_on_c, 0, 66, 44
2, 40408, Note_on_c, 0, 57, 36
2, 40415, Note_off_c, 0, 58, 64
2, 40415, Note_off_c, 0, 67, 64
2, 40417, Note_off_c, 0, 74, 64
2, 40480, Note_on_c, 0, 72, 49
2, 40497, Note_off_c, 0, 75, 64
2, 40552, Note_on_c, 0, 70, 69
2, 40565, Control_c, 0, 64, 0
2, 40575, Note_off_c, 0, 63, 64
2, 40578, Note_off_c, 0, 72, 64
2, 40581, Note_off_c, 0, 57, 64
2, 40581, Note_off_c, 0, 66, 64
2, 40598, Control_c, 0, 64, 127
2, 40636, Note_on_c, 0, 72, 50
2, 40650, Note_off_c, 0, 70, 64
2, 40694, Control_c, 0, 64, 0
2, 40712, Note_on_c, 0, 70, 71
2, 40712, Note_on_c, 0, 58, 44
2, 40716, Note_on_c, 0, 67, 44
2, 40723, Control_c, 0, 64, 127
2, 40740, Note_off_c, 0, 72, 64
2, 40780, Note_off_c, 0, 70, 64
2, 40783, Control_c, 0, 64, 0
2, 40788, Note_on_c, 0, 77, 51
2, 40809, Control_c, 0, 64, 127
2, 40860, Note_off_c, 0, 67, 64
2, 40860, Note_off_c, 0, 58, 64
2, 40864, Note_on_c, 0, 75, 58
2, 40864, Note_on_c, 0, 51, 44
2, 40870, Note_off_c, 0, 77, 64
2, 40915, Note_off_c, 0, 51, 64
2, 40924, Control_c, 0, 64, 0
2, 40932, Note_on_c, 0, 80, 50
2, 40936, Note_off_c, 0, 75, 64
2, 40946, Control_c, 0, 64, 127
2, 40998, Note_on_c, 0, 79, 65
2, 41020, Note_off_c, 0, 80, 64
2, 41072, Note_on_c, 0, 84, 68
2, 41089, Note_off_c, 0, 79, 64
2, 41105, Control_c, 0, 64, 0
2, 41113, Control_c, 0, 64, 0
2, 41132, Note_on_c, 0, 82, 78
2, 41132, Note_on_c, 0, 67, 46
2, 41132, Note_on_c, 0, 58, 39
2, 41138, Control_c, 0, 64, 127
2, 41142, Control_c, 0, 64, 127
2, 41159, Note_off_c, 0, 84, 64
2, 41196, Note_on_c, 0, 86, 66
2, 41214, Note_off_c, 0, 82, 64
2, 41234, Control_c, 0, 64, 0
2, 41234, Control_c, 0, 64, 0
2, 41263, Note_on_c, 0, 87, 75
2, 41263, Control_c, 0, 64, 127
2, 41270, Note_on_c, 0, 51, 53
2, 41277, Control_c, 0, 64, 127
2, 41294, Note_off_c, 0, 86, 64
2, 41310, Note_off_c, 0, 58, 64
2, 41310, Note_off_c, 0, 67, 64
2, 41324, Note_off_c, 0, 51, 64
2, 41325, Note_on_c, 0, 84, 60
2, 41337, Note_off_c, 0, 87, 64
2, 41395, Note_on_c, 0, 82, 56
2, 41408, Note_off_c, 0, 84, 64
2, 41466, Note_on_c, 0, 84, 73
2, 41480, Note_off_c, 0, 82, 64
2, 41506, Control_c, 0, 64, 0
2, 41518, Note_on_c, 0, 68, 57
2, 41521, Note_on_c, 0, 62, 48
2, 41522, Note_on_c, 0, 82, 68
2, 41522, Note_on_c, 0, 58, 32
2, 41535, Control_c, 0, 64, 127
2, 41554, Note_off_c, 0, 84, 64
2, 41596, Note_on_c, 0, 79, 66
2, 41607, Note_off_c, 0, 82, 64
2, 41653, Control_c, 0, 64, 0
2, 41658, Note_on_c, 0, 80, 66
2, 41658, Note_on_c, 0, 51, 47
2, 41673, Note_off_c, 0, 79, 64
2, 41673, Note_off_c, 0, 68, 64
2, 41676, Note_off_c, 0, 62, 64
2, 41677, Note_off_c, 0, 58, 64
2, 41682, Control_c, 0, 64, 127
2, 41712, Note_off_c, 0, 51, 64
2, 41727, Note_on_c, 0, 77, 54
2, 41732, Note_off_c, 0, 80, 64
2, 41774, Control_c, 0, 64, 0
2, 41784, Note_on_c, 0, 79, 67
2, 41792, Note_off_c, 0, 77, 64
2, 41817, Control_c, 0, 64, 127
2, 41858, Note_on_c, 0, 74, 62
2, 41873, Note_off_c, 0, 79, 64
2, 41918, Note_on_c, 0, 67, 56
2, 41918, Note_on_c, 0, 61, 55
2, 41918, Note_on_c, 0, 58, 57
2, 41920, Note_on_c, 0, 75, 62
2, 41932, Note_off_c, 0, 74, 64
2, 41980, Note_on_c, 0, 72, 51
2, 41987, Note_off_c, 0, 75, 64
2, 42036, Note_on_c, 0, 73, 58
2, 42042, Note_on_c, 0, 51, 51
2, 42046, Control_c, 0, 64, 0
2, 42055, Note_off_c, 0, 72, 64
2, 42058, Note_off_c, 0, 58, 64
2, 42058, Note_off_c, 0, 61, 64
2, 42058, Note_off_c, 0, 67, 64
2, 42075, Control_c, 0, 64, 127
2, 42095, Note_on_c, 0, 65, 59
2, 42096, Note_off_c, 0, 51, 64
2, 42118, Note_off_c, 0, 73, 64
2, 42163, Control_c, 0, 64, 0
2, 42167, Note_on_c, 0, 63, 62
2, 42178, Control_c, 0, 64, 127
2, 42188, Note_off_c, 0, 65, 64
2, 42225, Note_on_c, 0, 65, 55
2, 42234, Note_off_c, 0, 63, 64
2, 42264, Control_c, 0, 64, 0
2, 42302, Note_on_c, 0, 56, 44
2, 42302, Note_on_c, 0, 51, 42
2, 42303, Note_on_c, 0, 60, 49
2, 42307, Note_on_c, 0, 63, 67
2, 42320, Control_c, 0, 64, 127
2, 42327, Note_off_c, 0, 65, 64
2, 42362, Note_on_c, 0, 70, 56
2, 42386, Note_off_c, 0, 63, 64
2, 42421, Control_c, 0, 64, 0
2, 42435, Note_on_c, 0, 68, 73
2, 42435, Note_on_c, 0, 44, 52
2, 42446, Control_c, 0, 64, 127
2, 42447, Note_off_c, 0, 70, 64
2, 42457, Note_off_c, 0, 51, 64
2, 42457, Note_off_c, 0, 56, 64
2, 42458, Note_off_c, 0, 60, 64
2, 42489, Note_off_c, 0, 44, 64
2, 42494, Note_on_c, 0, 73, 42
2, 42507, Note_off_c, 0, 68, 64
2, 42563, Note_on_c, 0, 72, 73
2, 42579, Note_off_c, 0, 73, 64
2, 42619, Note_on_c, 0, 77, 48
2, 42650, Note_off_c, 0, 72, 64
2, 42656, Control_c, 0, 64, 0
2, 42686, Note_on_c, 0, 75, 73
2, 42687, Note_on_c, 0, 60, 45
2, 42694, Note_on_c, 0, 51, 45
2, 42703, Control_c, 0, 64, 0
2, 42703, Control_c, 0, 64, 127
2, 42709, Note_off_c, 0, 77, 64
2, 42718, Control_c, 0, 64, 127
2, 42752, Note_on_c, 0, 79, 61
2, 42766, Note_off_c, 0, 75, 64
2, 42802, Control_c, 0, 64, 0
2, 42804, Control_c, 0, 64, 0
2, 42822, Note_on_c, 0, 80, 70
2, 42824, Note_on_c, 0, 44, 47
2, 42832, Note_off_c, 0, 60, 64
2, 42837, Control_c, 0, 64, 127
2, 42839, Note_off_c, 0, 51, 64
2, 42843, Note_off_c, 0, 79, 64
2, 42860, Control_c, 0, 64, 127
2, 42878, Note_off_c, 0, 44, 64
2, 42889, Note_on_c, 0, 77, 61
2, 42911, Note_off_c, 0, 80, 64
2, 42945, Note_on_c, 0, 75, 63
2, 42961, Control_c, 0, 64, 0
2, 42964, Note_off_c, 0, 77, 64
2, 42986, Control_c, 0, 64, 127
2, 43012, Note_on_c, 0, 77, 57
2, 43030, Note_off_c, 0, 75, 64
2, 43057, Control_c, 0, 64, 0
2, 43062, Note_on_c, 0, 61, 53
2, 43062, Note_on_c, 0, 55, 42
2, 43066, Note_on_c, 0, 75, 62
2, 43066, Note_on_c, 0, 51, 47
2, 43085, Note_off_c, 0, 77, 64
2, 43087, Control_c, 0, 64, 127
2, 43135, Note_on_c, 0, 72, 71
2, 43149, Note_off_c, 0, 75, 64
2, 43196, Control_c, 0, 64, 0
2, 43200, Note_on_c, 0, 73, 70
2, 43208, Note_on_c, 0, 44, 37
2, 43209, Note_off_c, 0, 72, 64
2, 43217, Note_off_c, 0, 55, 64
2, 43217, Note_off_c, 0, 61, 64
2, 43221, Note_off_c, 0, 51, 64
2, 43243, Control_c, 0, 64, 127
2, 43257, Note_off_c, 0, 44, 64
2, 43264, Note_on_c, 0, 70, 61
2, 43271, Note_off_c, 0, 73, 64
2, 43330, Note_on_c, 0, 72, 71
2, 43342, Control_c, 0, 64, 0
2, 43366, Note_off_c, 0, 70, 64
2, 43377, Control_c, 0, 64, 127
2, 43381, Note_on_c, 0, 67, 61
2, 43396, Note_off_c, 0, 72, 64
2, 43425, Note_on_c, 0, 70, 72
2, 43446, Note_off_c, 0, 67, 64
2, 43454, Note_on_c, 0, 60, 44
2, 43455, Note_on_c, 0, 68, 72
2, 43455, Note_on_c, 0, 56, 45
2, 43459, Note_on_c, 0, 51, 42
2, 43465, Control_c, 0, 64, 0
2, 43475, Control_c, 0, 64, 127
2, 43479, Note_off_c, 0, 70, 64
2, 43517, Note_on_c, 0, 67, 63
2, 43526, Note_off_c, 0, 68, 64
2, 43579, Control_c, 0, 64, 0
2, 43580, Note_on_c, 0, 68, 69
2, 43580, Note_on_c, 0, 59, 51
2, 43580, Note_on_c, 0, 50, 44
2, 43581, Note_off_c, 0, 60, 64
2, 43586, Note_off_c, 0, 51, 64
2, 43588, Note_off_c, 0, 67, 64
2, 43597, Control_c, 0, 64, 0
2, 43614, Control_c, 0, 64, 127
2, 43627, Control_c, 0, 64, 127
2, 43640, Note_on_c, 0, 65, 59
2, 43648, Note_off_c, 0, 68, 64
2, 43705, Note_off_c, 0, 56, 64
2, 43705, Note_on_c, 0, 63, 80
2, 43705, Control_c, 0, 64, 0
2, 43713, Note_off_c, 0, 50, 64
2, 43713, Note_off_c, 0, 59, 64
2, 43729, Note_off_c, 0, 65, 64
2, 43734, Control_c, 0, 64, 127
2, 43760, Note_off_c, 0, 63, 64
2, 43764, Note_on_c, 0, 65, 70
2, 43824, Note_on_c, 0, 56, 49
2, 43826, Note_on_c, 0, 60, 52
2, 43827, Note_on_c, 0, 63, 78
2, 43830, Note_on_c, 0, 51, 51
2, 43838, Control_c, 0, 64, 0
2, 43849, Note_off_c, 0, 65, 64
2, 43852, Control_c, 0, 64, 127
2, 43887, Note_on_c, 0, 70, 63
2, 43915, Note_off_c, 0, 63, 64
2, 43954, Control_c, 0, 64, 0
2, 43956, Note_on_c, 0, 44, 58
2, 43958, Note_on_c, 0, 68, 77
2, 43969, Control_c, 0, 64, 127
2, 43979, Note_off_c, 0, 56, 64
2, 43980, Note_off_c, 0, 70, 64
2, 43981, Note_off_c, 0, 60, 64
2, 43985, Note_off_c, 0, 51, 64
2, 44005, Control_c, 0, 64, 0
2, 44010, Note_off_c, 0, 44, 64
2, 44014, Note_on_c, 0, 73, 64
2, 44015, Control_c, 0, 64, 127
2, 44033, Note_off_c, 0, 68, 64
2, 44090, Note_on_c, 0, 72, 80
2, 44104, Note_off_c, 0, 73, 64
2, 44119, Control_c, 0, 64, 0
2, 44148, Note_on_c, 0, 77, 58
2, 44154, Control_c, 0, 64, 127
2, 44172, Note_off_c, 0, 72, 64
2, 44190, Control_c, 0, 64, 0
2, 44198, Note_on_c, 0, 56, 46
2, 44198, Note_on_c, 0, 51, 44
2, 44200, Note_on_c, 0, 60, 39
2, 44201, Note_on_c, 0, 75, 67
2, 44218, Control_c, 0, 64, 127
2, 44224, Note_off_c, 0, 77, 64
2, 44245, Control_c, 0, 64, 0
2, 44273, Note_on_c, 0, 79, 63
2, 44274, Control_c, 0, 64, 127
2, 44288, Note_off_c, 0, 75, 64
2, 44326, Control_c, 0, 64, 0
2, 44333, Note_on_c, 0, 80, 65
2, 44341, Note_on_c, 0, 44, 47
2, 44349, Note_off_c, 0, 79, 64
2, 44356, Note_off_c, 0, 51, 64
2, 44356, Note_off_c, 0, 56, 64
2, 44358, Note_off_c, 0, 60, 64
2, 44372, Control_c, 0, 64, 127
2, 44378, Control_c, 0, 64, 0
2, 44392, Control_c, 0, 64, 127
2, 44395, Note_off_c, 0, 44, 64
2, 44403, Note_on_c, 0, 77, 58
2, 44426, Note_off_c, 0, 80, 64
2, 44469, Note_on_c, 0, 75, 73
2, 44478, Note_off_c, 0, 77, 64
2, 44494, Control_c, 0, 64, 0
2, 44509, Control_c, 0, 64, 127
2, 44522, Note_on_c, 0, 72, 64
2, 44543, Note_off_c, 0, 75, 64
2, 44575, Note_on_c, 0, 73, 74
2, 44594, Note_off_c, 0, 72, 64
2, 44638, Note_on_c, 0, 77, 71
2, 44672, Note_off_c, 0, 73, 64
2, 44702, Note_on_c, 0, 75, 65
2, 44713, Note_off_c, 0, 77, 64
2, 44730, Control_c, 0, 64, 0
2, 44741, Control_c, 0, 64, 0
2, 44758, Control_c, 0, 64, 127
2, 44770, Note_on_c, 0, 72, 62
2, 44782, Control_c, 0, 64, 127
2, 44786, Note_off_c, 0, 75, 64
2, 44838, Note_on_c, 0, 68, 77
2, 44843, Note_off_c, 0, 72, 64
2, 44866, Control_c, 0, 64, 0
2, 44900, Note_on_c, 0, 70, 64
2, 44912, Control_c, 0, 64, 127
2, 44914, Note_off_c, 0, 68, 64
2, 44958, Note_on_c, 0, 73, 73
2, 44973, Note_off_c, 0, 70, 64
2, 45024, Note_on_c, 0, 72, 71
2, 45043, Note_off_c, 0, 73, 64
2, 45083, Note_on_c, 0, 68, 55
2, 45097, Note_off_c, 0, 72, 64
2, 45114, Control_c, 0, 64, 0
2, 45128, Control_c, 0, 64, 127
2, 45143, Note_on_c, 0, 63, 77
2, 45158, Note_off_c, 0, 68, 64
2, 45212, Note_on_c, 0, 64, 73
2, 45228, Note_off_c, 0, 63, 64
2, 45246, Control_c, 0, 64, 0
2, 45274, Control_c, 0, 64, 127
2, 45281, Control_c, 0, 64, 0
2, 45289, Note_on_c, 0, 68, 63
2, 45306, Note_off_c, 0, 64, 64
2, 45322, Control_c, 0, 64, 127
2, 45345, Note_on_c, 0, 63, 58
2, 45362, Note_off_c, 0, 68, 64
2, 45428, Note_on_c, 0, 60, 55
2, 45442, Note_off_c, 0, 63, 64
2, 45501, Note_on_c, 0, 64, 55
2, 45557, Note_off_c, 0, 60, 64
2, 45565, Note_on_c, 0, 68, 62
2, 45580, Note_off_c, 0, 64, 64
2, 45648, Note_on_c, 0, 63, 57
2, 45654, Control_c, 0, 64, 0
2, 45668, Control_c, 0, 64, 127
2, 45673, Note_off_c, 0, 68, 64
2, 45734, Note_on_c, 0, 60, 55
2, 45753, Note_off_c, 0, 63, 64
2, 45786, Control_c, 0, 64, 0
2, 45811, Note_on_c, 0, 64, 55
2, 45814, Control_c, 0, 64, 127
2, 45859, Note_off_c, 0, 60, 64
2, 45891, Note_on_c, 0, 68, 59
2, 45911, Note_off_c, 0, 64, 64
2, 45966, Note_on_c, 0, 63, 51
2, 46010, Note_off_c, 0, 68, 64
2, 46072, Note_on_c, 0, 60, 41
2, 46086, Note_off_c, 0, 63, 64
2, 46160, Note_on_c, 0, 64, 52
2, 46193, Note_off_c, 0, 60, 64
2, 46276, Note_on_c, 0, 68, 55
2, 46295, Note_off_c, 0, 64, 64
2, 46366, Note_on_c, 0, 63, 41
2, 46389, Note_off_c, 0, 68, 64
2, 46474, Note_on_c, 0, 59, 54
2, 46489, Note_off_c, 0, 63, 64
2, 46609, Note_on_c, 0, 64, 46
2, 46630, Note_off_c, 0, 59, 64
2, 46742, Note_on_c, 0, 68, 58
2, 46755, Note_off_c, 0, 64, 64
2, 46852, Note_on_c, 0, 63, 36
2, 46863, Note_off_c, 0, 68, 64
2, 46998, Note_on_c, 0, 59, 50
2, 47032, Note_off_c, 0, 63, 64
2, 47153, Note_on_c, 0, 64, 33
2, 47177, Note_off_c, 0, 59, 64
2, 47274, Note_on_c, 0, 68, 50
2, 47302, Note_off_c, 0, 64, 64
2, 47455, Note_on_c, 0, 63, 29
2, 47639, Note_on_c, 0, 59, 39
2, 47657, Note_off_c, 0, 63, 64
2, 47786, Note_off_c, 0, 68, 64
2, 47820, Note_on_c, 0, 64, 43
2, 47837, Note_off_c, 0, 59, 64
2, 47862, Control_c, 0, 64, 0
2, 47866, Note_on_c, 0, 68, 47
2, 47911, Control_c, 0, 64, 127
2, 47943, Note_on_c, 0, 61, 54
2, 48068, Note_on_c, 0, 56, 52
2, 48078, Note_off_c, 0, 61, 64
2, 48266, Note_on_c, 0, 66, 57
2, 48276, Note_on_c, 0, 58, 52
2, 48279, Note_off_c, 0, 68, 64
2, 48282, Control_c, 0, 64, 0
2, 48296, Note_off_c, 0, 56, 64
2, 48296, Control_c, 0, 64, 127
2, 48402, Control_c, 0, 64, 0
2, 48411, Note_on_c, 0, 59, 55
2, 48422, Note_off_c, 0, 58, 64
2, 48436, Note_on_c, 0, 61, 56
2, 48440, Note_off_c, 0, 66, 64
2, 48451, Control_c, 0, 64, 127
2, 48455, Note_off_c, 0, 59, 64
2, 48476, Note_on_c, 0, 59, 55
2, 48478, Note_on_c, 0, 66, 48
2, 48478, Note_on_c, 0, 63, 48
2, 48485, Note_off_c, 0, 64, 64
2, 48489, Control_c, 0, 64, 0
2, 48492, Note_off_c, 0, 61, 64
2, 48529, Control_c, 0, 64, 127
2, 48598, Note_on_c, 0, 58, 58
2, 48604, Note_off_c, 0, 59, 64
2, 48616, Note_off_c, 0, 66, 64
2, 48634, Note_on_c, 0, 66, 54
2, 48665, Note_off_c, 0, 66, 64
2, 48682, Control_c, 0, 64, 0
2, 48696, Note_on_c, 0, 59, 58
2, 48698, Note_on_c, 0, 66, 47
2, 48713, Note_off_c, 0, 58, 64
2, 48718, Control_c, 0, 64, 127
2, 48822, Control_c, 0, 64, 0
2, 48836, Control_c, 0, 64, 127
2, 48879, Note_off_c, 0, 66, 64
2, 48896, Note_on_c, 0, 66, 36
2, 48896, Note_on_c, 0, 61, 60
2, 48905, Control_c, 0, 64, 0
2, 48923, Note_off_c, 0, 59, 64
2, 48953, Control_c, 0, 64, 127
2, 49029, Control_c, 0, 64, 0
2, 49069, Control_c, 0, 64, 127
2, 49112, Note_off_c, 0, 66, 64
2, 49116, Note_on_c, 0, 62, 57
2, 49123, Note_on_c, 0, 66, 48
2, 49136, Note_off_c, 0, 61, 64
2, 49136, Note_off_c, 0, 63, 64
2, 49143, Control_c, 0, 64, 0
2, 49180, Control_c, 0, 64, 127
2, 49222, Control_c, 0, 64, 0
2, 49225, Note_on_c, 0, 59, 55
2, 49258, Control_c, 0, 64, 127
2, 49265, Note_off_c, 0, 66, 64
2, 49279, Note_on_c, 0, 66, 69
2, 49326, Note_off_c, 0, 66, 64
2, 49334, Control_c, 0, 64, 0
2, 49341, Note_on_c, 0, 54, 56
2, 49342, Note_on_c, 0, 66, 65
2, 49363, Note_off_c, 0, 59, 64
2, 49369, Control_c, 0, 64, 127
2, 49445, Control_c, 0, 64, 0
2, 49493, Control_c, 0, 64, 127
2, 49557, Note_on_c, 0, 56, 58
2, 49560, Note_on_c, 0, 64, 56
2, 49573, Note_off_c, 0, 66, 64
2, 49574, Control_c, 0, 64, 0
2, 49584, Note_off_c, 0, 54, 64
2, 49605, Control_c, 0, 64, 127
2, 49683, Control_c, 0, 64, 0
2, 49696, Note_on_c, 0, 57, 51
2, 49709, Note_off_c, 0, 56, 64
2, 49720, Control_c, 0, 64, 127
2, 49725, Note_on_c, 0, 59, 57
2, 49740, Note_off_c, 0, 57, 64
2, 49754, Note_off_c, 0, 64, 64
2, 49766, Note_on_c, 0, 61, 33
2, 49770, Note_on_c, 0, 64, 54
2, 49770, Note_on_c, 0, 57, 56
2, 49772, Control_c, 0, 64, 0
2, 49779, Note_off_c, 0, 62, 64
2, 49786, Note_off_c, 0, 59, 64
2, 49802, Control_c, 0, 64, 127
2, 49870, Note_on_c, 0, 56, 60
2, 49874, Control_c, 0, 64, 0
2, 49886, Note_off_c, 0, 57, 64
2, 49909, Control_c, 0, 64, 127
2, 49916, Note_off_c, 0, 64, 64
2, 49926, Note_on_c, 0, 64, 51
2, 49967, Control_c, 0, 64, 0
2, 49969, Note_off_c, 0, 64, 64
2, 49982, Note_on_c, 0, 64, 54
2, 49986, Note_on_c, 0, 57, 62
2, 49994, Note_off_c, 0, 56, 64
2, 50004, Control_c, 0, 64, 127
2, 50114, Control_c, 0, 64, 0
2, 50145, Control_c, 0, 64, 127
2, 50182, Note_off_c, 0, 64, 64
2, 50187, Control_c, 0, 64, 0
2, 50194, Note_on_c, 0, 64, 51
2, 50197, Note_on_c, 0, 59, 51
2, 50202, Note_off_c, 0, 57, 64
2, 50222, Control_c, 0, 64, 127
2, 50312, Control_c, 0, 64, 0
2, 50342, Control_c, 0, 64, 127
2, 50376, Note_off_c, 0, 64, 64
2, 50376, Note_off_c, 0, 61, 64
2, 50404, Note_on_c, 0, 60, 56
2, 50405, Note_on_c, 0, 64, 44
2, 50418, Control_c, 0, 64, 0
2, 50420, Note_off_c, 0, 59, 64
2, 50430, Control_c, 0, 64, 127
2, 50507, Control_c, 0, 64, 0
2, 50524, Note_on_c, 0, 57, 54
2, 50543, Note_off_c, 0, 60, 64
2, 50544, Control_c, 0, 64, 127
2, 50557, Note_off_c, 0, 64, 64
2, 50588, Note_on_c, 0, 64, 48
2, 50630, Control_c, 0, 64, 0
2, 50638, Note_off_c, 0, 64, 64
2, 50639, Note_on_c, 0, 52, 52
2, 50642, Control_c, 0, 64, 127
2, 50651, Note_on_c, 0, 64, 57
2, 50671, Note_off_c, 0, 57, 64
2, 50727, Control_c, 0, 64, 0
2, 50762, Control_c, 0, 64, 127
2, 50875, Note_on_c, 0, 54, 55
2, 50902, Note_off_c, 0, 52, 64
2, 50958, Control_c, 0, 64, 0
2, 50970, Control_c, 0, 64, 127
2, 51025, Note_on_c, 0, 62, 54
2, 51035, Note_off_c, 0, 64, 64
2, 51170, Control_c, 0, 64, 0
2, 51182, Control_c, 0, 64, 127
2, 51206, Note_on_c, 0, 59, 49
2, 51208, Note_on_c, 0, 55, 50
2, 51214, Note_off_c, 0, 54, 64
2, 51246, Control_c, 0, 64, 0
2, 51277, Control_c, 0, 64, 127
2, 51414, Note_on_c, 0, 64, 46
2, 51429, Note_off_c, 0, 62, 64
2, 51470, Note_on_c, 0, 50, 39
2, 51470, Note_on_c, 0, 43, 47
2, 51472, Note_on_c, 0, 66, 54
2, 51486, Control_c, 0, 64, 0
2, 51500, Note_off_c, 0, 64, 64
2, 51525, Control_c, 0, 64, 127
2, 51672, Note_on_c, 0, 67, 55
2, 51696, Note_off_c, 0, 66, 64
2, 51786, Control_c, 0, 64, 0
2, 51817, Control_c, 0, 64, 127
2, 51878, Note_on_c, 0, 64, 58
2, 51879, Note_on_c, 0, 60, 51
2, 51880, Note_on_c, 0, 57, 52
2, 51890, Control_c, 0, 64, 0
2, 51897, Note_off_c, 0, 59, 64
2, 51899, Note_off_c, 0, 55, 64
2, 51903, Note_off_c, 0, 43, 64
2, 51903, Note_off_c, 0, 50, 64
2, 51903, Note_off_c, 0, 67, 64
2, 51929, Control_c, 0, 64, 127
2, 52010, Note_on_c, 0, 66, 54
2, 52023, Note_off_c, 0, 64, 64
2, 52026, Control_c, 0, 64, 0
2, 52065, Control_c, 0, 64, 127
2, 52068, Note_on_c, 0, 67, 67
2, 52076, Note_on_c, 0, 50, 44
2, 52076, Note_on_c, 0, 43, 41
2, 52081, Note_off_c, 0, 66, 64
2, 52095, Control_c, 0, 64, 0
2, 52143, Control_c, 0, 64, 127
2, 52266, Note_on_c, 0, 69, 55
2, 52266, Note_on_c, 0, 66, 54
2, 52279, Note_off_c, 0, 67, 64
2, 52430, Control_c, 0, 64, 0
2, 52469, Control_c, 0, 64, 127
2, 52475, Note_on_c, 0, 71, 57
2, 52478, Note_on_c, 0, 67, 50
2, 52479, Note_on_c, 0, 59, 55
2, 52492, Note_off_c, 0, 66, 64
2, 52492, Note_off_c, 0, 69, 64
2, 52493, Control_c, 0, 64, 0
2, 52495, Note_off_c, 0, 60, 64
2, 52496, Note_off_c, 0, 57, 64
2, 52512, Control_c, 0, 64, 127
2, 52572, Note_off_c, 0, 43, 64
2, 52572, Note_off_c, 0, 50, 64
2, 52606, Note_on_c, 0, 74, 63
2, 52621, Note_off_c, 0, 71, 64
2, 52635, Control_c, 0, 64, 0
2, 52638, Note_off_c, 0, 74, 64
2, 52661, Note_on_c, 0, 50, 56
2, 52665, Note_on_c, 0, 43, 49
2, 52668, Note_on_c, 0, 74, 71
2, 52683, Control_c, 0, 64, 127
2, 52688, Control_c, 0, 64, 0
2, 52718, Control_c, 0, 64, 127
2, 52880, Note_on_c, 0, 62, 56
2, 52885, Note_off_c, 0, 67, 64
2, 52960, Note_off_c, 0, 59, 64
2, 53033, Control_c, 0, 64, 0
2, 53052, Control_c, 0, 64, 127
2, 53070, Note_on_c, 0, 64, 41
2, 53075, Note_on_c, 0, 60, 48
2, 53082, Note_off_c, 0, 74, 64
2, 53091, Note_off_c, 0, 62, 64
2, 53136, Note_off_c, 0, 50, 64
2, 53140, Note_off_c, 0, 43, 64
2, 53179, Note_on_c, 0, 57, 56
2, 53199, Note_off_c, 0, 64, 64
2, 53225, Note_on_c, 0, 64, 42
2, 53228, Control_c, 0, 64, 0
2, 53247, Note_off_c, 0, 60, 64
2, 53258, Control_c, 0, 64, 127
2, 53261, Note_off_c, 0, 64, 64
2, 53282, Note_on_c, 0, 64, 40
2, 53287, Control_c, 0, 64, 0
2, 53293, Note_on_c, 0, 52, 57
2, 53330, Control_c, 0, 64, 127
2, 53333, Note_off_c, 0, 57, 64
2, 53476, Note_on_c, 0, 54, 62
2, 53503, Note_off_c, 0, 52, 64
2, 53506, Control_c, 0, 64, 0
2, 53526, Control_c, 0, 64, 127
2, 53581, Note_on_c, 0, 62, 41
2, 53608, Note_off_c, 0, 64, 64
2, 53706, Note_on_c, 0, 59, 50
2, 53708, Note_on_c, 0, 55, 46
2, 53718, Note_off_c, 0, 54, 64
2, 53725, Control_c, 0, 64, 0
2, 53747, Control_c, 0, 64, 127
2, 53827, Control_c, 0, 64, 0
2, 53859, Note_on_c, 0, 64, 44
2, 53870, Control_c, 0, 64, 127
2, 53895, Note_on_c, 0, 66, 52
2, 53898, Note_on_c, 0, 50, 34
2, 53898, Note_on_c, 0, 43, 42
2, 53902, Note_off_c, 0, 62, 64
2, 53907, Control_c, 0, 64, 0
2, 53921, Note_off_c, 0, 64, 64
2, 53951, Control_c, 0, 64, 127
2, 54046, Control_c, 0, 64, 0
2, 54066, Control_c, 0, 64, 127
2, 54088, Note_on_c, 0, 67, 56
2, 54108, Control_c, 0, 64, 0
2, 54112, Note_off_c, 0, 66, 64
2, 54138, Control_c, 0, 64, 127
2, 54265, Control_c, 0, 64, 0
2, 54274, Note_on_c, 0, 64, 55
2, 54274, Note_on_c, 0, 60, 48
2, 54274, Note_on_c, 0, 57, 49
2, 54278, Note_off_c, 0, 43, 64
2, 54284, Note_off_c, 0, 50, 64
2, 54287, Control_c, 0, 64, 127
2, 54301, Note_off_c, 0, 59, 64
2, 54303, Note_off_c, 0, 55, 64
2, 54304, Note_off_c, 0, 67, 64
2, 54426, Note_on_c, 0, 66, 49
2, 54442, Note_off_c, 0, 64, 64
2, 54447, Control_c, 0, 64, 0
2, 54478, Note_on_c, 0, 43, 23
2, 54481, Note_on_c, 0, 67, 62
2, 54483, Note_on_c, 0, 50, 39
2, 54486, Note_off_c, 0, 66, 64
2, 54491, Control_c, 0, 64, 127
2, 54645, Control_c, 0, 64, 0
2, 54648, Control_c, 0, 64, 0
2, 54675, Note_on_c, 0, 69, 59
2, 54678, Note_on_c, 0, 66, 46
2, 54678, Control_c, 0, 64, 127
2, 54694, Note_off_c, 0, 67, 64
2, 54698, Control_c, 0, 64, 127
2, 54905, Note_on_c, 0, 59, 54
2, 54906, Note_on_c, 0, 71, 57
2, 54908, Note_on_c, 0, 65, 58
2, 54909, Note_off_c, 0, 57, 64
2, 54909, Note_off_c, 0, 60, 64
2, 54916, Note_off_c, 0, 69, 64
2, 54918, Control_c, 0, 64, 0
2, 54925, Note_off_c, 0, 66, 64
2, 54956, Control_c, 0, 64, 127
2, 55041, Note_on_c, 0, 73, 54
2, 55068, Note_off_c, 0, 43, 64
2, 55073, Note_off_c, 0, 50, 64
2, 55095, Note_on_c, 0, 74, 70
2, 55098, Note_on_c, 0, 43, 56
2, 55109, Control_c, 0, 64, 0
2, 55129, Note_off_c, 0, 73, 64
2, 55129, Note_off_c, 0, 59, 64
2, 55132, Control_c, 0, 64, 127
2, 55185, Control_c, 0, 64, 0
2, 55238, Control_c, 0, 64, 127
2, 55311, Note_on_c, 0, 75, 64
2, 55313, Note_on_c, 0, 66, 56
2, 55316, Note_on_c, 0, 42, 55
2, 55324, Note_off_c, 0, 65, 64
2, 55327, Control_c, 0, 64, 0
2, 55329, Note_off_c, 0, 74, 64
2, 55334, Note_off_c, 0, 43, 64
2, 55338, Control_c, 0, 64, 127
2, 55458, Control_c, 0, 64, 0
2, 55496, Control_c, 0, 64, 127
2, 55534, Note_on_c, 0, 64, 58
2, 55535, Note_on_c, 0, 76, 66
2, 55538, Note_on_c, 0, 68, 46
2, 55538, Note_on_c, 0, 30, 71
2, 55545, Note_off_c, 0, 75, 64
2, 55545, Control_c, 0, 64, 0
2, 55555, Control_c, 0, 64, 127
2, 55562, Note_off_c, 0, 66, 64
2, 55636, Note_on_c, 0, 73, 64
2, 55649, Control_c, 0, 64, 0
2, 55655, Note_off_c, 0, 76, 64
2, 55672, Control_c, 0, 64, 127
2, 55682, Note_off_c, 0, 64, 64
2, 55720, Note_off_c, 0, 68, 64
2, 55726, Note_off_c, 0, 30, 64
2, 55728, Note_off_c, 0, 42, 64
2, 55736, Note_on_c, 0, 54, 54
2, 55739, Note_on_c, 0, 68, 77
2, 55742, Note_on_c, 0, 64, 73
2, 55751, Control_c, 0, 64, 0
2, 55757, Note_off_c, 0, 73, 64
2, 55765, Control_c, 0, 64, 127
2, 55867, Control_c, 0, 64, 0
2, 55878, Control_c, 0, 64, 127
2, 55931, Note_on_c, 0, 70, 59
2, 55948, Note_off_c, 0, 68, 64
2, 55948, Note_off_c, 0, 71, 64
2, 55990, Note_off_c, 0, 64, 64
2, 56010, Note_off_c, 0, 54, 64
2, 56042, Note_on_c, 0, 54, 71
2, 56070, Note_off_c, 0, 70, 64
2, 56085, Control_c, 0, 64, 0
2, 56095, Control_c, 0, 64, 127
2, 56116, Note_off_c, 0, 54, 64
2, 56149, Control_c, 0, 64, 0
2, 56157, Note_on_c, 0, 54, 69
2, 56160, Note_on_c, 0, 66, 64
2, 56164, Note_on_c, 0, 63, 59
2, 56176, Control_c, 0, 64, 127
2, 56291, Control_c, 0, 64, 0
2, 56305, Control_c, 0, 64, 127
2, 56313, Note_off_c, 0, 66, 64
2, 56315, Note_on_c, 0, 68, 62
2, 56317, Note_off_c, 0, 63, 64
2, 56320, Note_on_c, 0, 66, 85
2, 56353, Note_off_c, 0, 66, 64
2, 56359, Control_c, 0, 64, 0
2, 56368, Note_on_c, 0, 70, 70
2, 56370, Note_on_c, 0, 63, 46
2, 56371, Note_off_c, 0, 68, 64
2, 56372, Note_on_c, 0, 66, 82
2, 56386, Control_c, 0, 64, 127
2, 56586, Note_off_c, 0, 54, 64
2, 56602, Note_on_c, 0, 71, 64
2, 56603, Note_on_c, 0, 54, 66
2, 56611, Note_off_c, 0, 70, 64
2, 56627, Control_c, 0, 64, 0
2, 56639, Control_c, 0, 64, 127
2, 56689, Control_c, 0, 64, 0
2, 56716, Control_c, 0, 64, 127
2, 56817, Note_on_c, 0, 68, 69
2, 56821, Note_on_c, 0, 64, 69
2, 56827, Note_off_c, 0, 71, 64
2, 56843, Note_off_c, 0, 63, 64
2, 56899, Control_c, 0, 64, 0
2, 56903, Note_off_c, 0, 66, 64
2, 56926, Control_c, 0, 64, 127
2, 56969, Note_on_c, 0, 70, 58
2, 56970, Note_off_c, 0, 68, 64
2, 56970, Note_on_c, 0, 66, 89
2, 56974, Note_off_c, 0, 64, 64
2, 57011, Note_off_c, 0, 66, 64
2, 57026, Note_on_c, 0, 68, 72
2, 57026, Note_on_c, 0, 66, 85
2, 57027, Control_c, 0, 64, 0
2, 57028, Note_on_c, 0, 71, 67
2, 57028, Note_on_c, 0, 64, 66
2, 57035, Control_c, 0, 64, 0
2, 57041, Control_c, 0, 64, 127
2, 57049, Control_c, 0, 64, 127
2, 57060, Note_off_c, 0, 70, 64
2, 57167, Control_c, 0, 64, 0
2, 57179, Control_c, 0, 64, 127
2, 57248, Note_off_c, 0, 54, 64
2, 57262, Note_on_c, 0, 73, 74
2, 57262, Note_on_c, 0, 70, 67
2, 57264, Note_on_c, 0, 64, 64
2, 57270, Note_on_c, 0, 54, 71
2, 57283, Note_off_c, 0, 68, 64
2, 57285, Note_off_c, 0, 71, 64
2, 57287, Control_c, 0, 64, 0
2, 57299, Control_c, 0, 64, 127
2, 57322, Note_off_c, 0, 64, 64
2, 57343, Note_off_c, 0, 70, 64
2, 57345, Note_off_c, 0, 73, 64
2, 57507, Note_on_c, 0, 75, 71
2, 57511, Note_on_c, 0, 63, 69
2, 57513, Note_on_c, 0, 71, 69
2, 57513, Note_on_c, 0, 47, 69
2, 57520, Control_c, 0, 64, 0
2, 57525, Note_off_c, 0, 66, 64
2, 57526, Note_off_c, 0, 54, 64
2, 57527, Note_off_c, 0, 64, 64
2, 57540, Control_c, 0, 64, 127
2, 57567, Control_c, 0, 64, 0
2, 57575, Control_c, 0, 64, 0
2, 57581, Control_c, 0, 64, 127
2, 57589, Control_c, 0, 64, 127
2, 57592, Note_off_c, 0, 75, 64
2, 57596, Note_off_c, 0, 63, 64
2, 57598, Note_off_c, 0, 47, 64
2, 57598, Note_off_c, 0, 71, 64
2, 57710, Note_on_c, 0, 66, 71
2, 57714, Note_on_c, 0, 71, 69
2, 57714, Note_on_c, 0, 63, 83
2, 57716, Note_on_c, 0, 78, 67
2, 57749, Note_off_c, 0, 66, 64
2, 57753, Note_off_c, 0, 63, 64
2, 57753, Note_off_c, 0, 71, 64
2, 57755, Note_off_c, 0, 78, 64
2, 57778, Note_on_c, 0, 78, 73
2, 57778, Note_on_c, 0, 71, 71
2, 57778, Note_on_c, 0, 66, 69
2, 57781, Note_on_c, 0, 63, 78
2, 57783, Control_c, 0, 64, 0
2, 57813, Control_c, 0, 64, 127
2, 57827, Control_c, 0, 64, 0
2, 57839, Control_c, 0, 64, 127
2, 57995, Note_off_c, 0, 71, 64
2, 58008, Note_on_c, 0, 80, 69
2, 58010, Note_on_c, 0, 68, 69
2, 58010, Note_on_c, 0, 64, 64
2, 58015, Note_on_c, 0, 71, 67
2, 58018, Note_off_c, 0, 66, 64
2, 58018, Note_off_c, 0, 78, 64
2, 58021, Note_off_c, 0, 63, 64
2, 58025, Control_c, 0, 64, 0
2, 58036, Control_c, 0, 64, 127
2, 58060, Control_c, 0, 64, 0
2, 58080, Control_c, 0, 64, 127
2, 58226, Note_off_c, 0, 71, 64
2, 58231, Note_on_c, 0, 66, 59
2, 58231, Note_on_c, 0, 63, 63
2, 58234, Note_on_c, 0, 78, 65
2, 58237, Note_on_c, 0, 71, 63
2, 58244, Note_off_c, 0, 80, 64
2, 58246, Note_off_c, 0, 64, 64
2, 58246, Note_off_c, 0, 68, 64
2, 58323, Control_c, 0, 64, 0
2, 58353, Control_c, 0, 64, 127
2, 58384, Note_off_c, 0, 63, 64
2, 58384, Note_off_c, 0, 66, 64
2, 58387, Note_off_c, 0, 78, 64
2, 58390, Note_off_c, 0, 71, 64
2, 58406, Note_on_c, 0, 68, 56
2, 58406, Note_on_c, 0, 59, 58
2, 58410, Note_on_c, 0, 75, 59
2, 58410, Note_on_c, 0, 63, 56
2, 58436, Note_off_c, 0, 68, 64
2, 58444, Note_off_c, 0, 63, 64
2, 58458, Note_on_c, 0, 63, 64
2, 58458, Note_on_c, 0, 56, 64
2, 58461, Note_on_c, 0, 71, 57
2, 58461, Note_on_c, 0, 68, 54
2, 58469, Note_off_c, 0, 59, 64
2, 58470, Control_c, 0, 64, 0
2, 58473, Note_off_c, 0, 75, 64
2, 58510, Control_c, 0, 64, 127
2, 58565, Control_c, 0, 64, 0
2, 58576, Control_c, 0, 64, 127
2, 58678, Note_off_c, 0, 68, 64
2, 58690, Note_on_c, 0, 68, 66
2, 58690, Note_on_c, 0, 64, 66
2, 58691, Note_on_c, 0, 76, 62
2, 58692, Note_on_c, 0, 61, 64
2, 58701, Note_off_c, 0, 56, 64
2, 58701, Note_off_c, 0, 63, 64
2, 58704, Note_off_c, 0, 71, 64
2, 58704, Control_c, 0, 64, 0
2, 58714, Control_c, 0, 64, 127
2, 58901, Note_off_c, 0, 68, 64
2, 58910, Note_on_c, 0, 75, 64
2, 58910, Note_on_c, 0, 59, 63
2, 58913, Note_on_c, 0, 63, 69
2, 58917, Note_on_c, 0, 68, 59
2, 58921, Note_off_c, 0, 64, 64
2, 58922, Note_off_c, 0, 76, 64
2, 58923, Note_off_c, 0, 61, 64
2, 59010, Control_c, 0, 64, 0
2, 59024, Note_off_c, 0, 59, 64
2, 59024, Note_off_c, 0, 75, 64
2, 59027, Note_off_c, 0, 63, 64
2, 59031, Note_off_c, 0, 68, 64
2, 59050, Control_c, 0, 64, 127
2, 59062, Note_on_c, 0, 68, 66
2, 59062, Note_on_c, 0, 63, 66
2, 59064, Note_on_c, 0, 71, 57
2, 59066, Note_on_c, 0, 56, 56
2, 59110, Note_off_c, 0, 68, 64
2, 59118, Note_on_c, 0, 64, 69
2, 59118, Note_on_c, 0, 59, 65
2, 59118, Note_on_c, 0, 52, 55
2, 59120, Note_on_c, 0, 68, 69
2, 59137, Note_off_c, 0, 63, 64
2, 59139, Note_off_c, 0, 71, 64
2, 59141, Note_off_c, 0, 56, 64
2, 59154, Control_c, 0, 64, 0
2, 59193, Control_c, 0, 64, 127
2, 59244, Control_c, 0, 64, 0
2, 59254, Control_c, 0, 64, 127
2, 59364, Note_on_c, 0, 71, 77
2, 59364, Note_on_c, 0, 63, 73
2, 59368, Note_on_c, 0, 54, 54
2, 59371, Note_off_c, 0, 52, 64
2, 59371, Note_off_c, 0, 64, 64
2, 59372, Note_on_c, 0, 47, 55
2, 59373, Note_off_c, 0, 68, 64
2, 59379, Control_c, 0, 64, 0
2, 59409, Control_c, 0, 64, 127
2, 59594, Note_on_c, 0, 64, 69
2, 59594, Note_on_c, 0, 58, 59
2, 59597, Note_on_c, 0, 73, 71
2, 59599, Note_on_c, 0, 66, 71
2, 59622, Note_off_c, 0, 59, 64
2, 59622, Note_off_c, 0, 63, 64
2, 59622, Note_off_c, 0, 71, 64
2, 59622, Control_c, 0, 64, 0
2, 59626, Note_off_c, 0, 54, 64
2, 59630, Note_off_c, 0, 47, 64
2, 59651, Control_c, 0, 64, 127
2, 59694, Control_c, 0, 64, 0
2, 59733, Control_c, 0, 64, 127
2, 59758, Note_off_c, 0, 58, 64
2, 59758, Note_off_c, 0, 64, 64
2, 59761, Note_off_c, 0, 73, 64
2, 59763, Note_off_c, 0, 66, 64
2, 59810, Note_on_c, 0, 42, 65
2, 59817, Note_on_c, 0, 75, 58
2, 59862, Note_on_c, 0, 66, 72
2, 59866, Note_on_c, 0, 64, 67
2, 59866, Note_on_c, 0, 58, 56
2, 59869, Note_on_c, 0, 73, 66
2, 59888, Note_off_c, 0, 75, 64
2, 59895, Control_c, 0, 64, 0
2, 59908, Note_off_c, 0, 42, 64
2, 59919, Control_c, 0, 64, 0
2, 59934, Control_c, 0, 64, 127
2, 59949, Control_c, 0, 64, 127
2, 60162, Control_c, 0, 64, 0
2, 60191, Control_c, 0, 64, 127
2, 60232, Note_on_c, 0, 71, 56
2, 60234, Note_off_c, 0, 66, 64
2, 60234, Note_on_c, 0, 63, 54
2, 60234, Note_on_c, 0, 59, 46
2, 60238, Note_off_c, 0, 58, 64
2, 60238, Note_off_c, 0, 64, 64
2, 60240, Note_on_c, 0, 47, 40
2, 60241, Note_off_c, 0, 73, 64
2, 60323, Note_off_c, 0, 71, 64
2, 60325, Note_off_c, 0, 59, 64
2, 60325, Note_off_c, 0, 63, 64
2, 60331, Note_off_c, 0, 47, 64
2, 60350, Note_on_c, 0, 71, 57
2, 60350, Note_on_c, 0, 63, 55
2, 60354, Note_on_c, 0, 47, 36
2, 60356, Note_on_c, 0, 59, 44
2, 60363, Control_c, 0, 64, 0
2, 60376, Control_c, 0, 64, 127
2, 60435, Control_c, 0, 64, 0
2, 60474, Control_c, 0, 64, 127
2, 60514, Note_off_c, 0, 63, 64
2, 60514, Note_off_c, 0, 71, 64
2, 60518, Note_off_c, 0, 47, 64
2, 60520, Note_off_c, 0, 59, 64
2, 60543, Note_on_c, 0, 68, 71
2, 60581, Note_off_c, 0, 68, 64
2, 60603, Note_on_c, 0, 68, 71
2, 60603, Note_on_c, 0, 64, 59
2, 60606, Note_on_c, 0, 59, 59
2, 60612, Note_on_c, 0, 52, 58
2, 60619, Control_c, 0, 64, 0
2, 60641, Control_c, 0, 64, 127
2, 60822, Note_on_c, 0, 61, 55
2, 60825, Note_on_c, 0, 70, 67
2, 60838, Note_off_c, 0, 68, 64
2, 60841, Note_off_c, 0, 59, 64
2, 60903, Control_c, 0, 64, 0
2, 60916, Control_c, 0, 64, 127
2, 60929, Note_on_c, 0, 59, 59
2, 60931, Note_on_c, 0, 68, 77
2, 60943, Note_off_c, 0, 61, 64
2, 60946, Note_off_c, 0, 70, 64
2, 61050, Note_on_c, 0, 66, 69
2, 61050, Note_on_c, 0, 58, 74
2, 61063, Note_off_c, 0, 52, 64
2, 61064, Control_c, 0, 64, 0
2, 61071, Note_off_c, 0, 68, 64
2, 61079, Note_off_c, 0, 59, 64
2, 61088, Control_c, 0, 64, 127
2, 61137, Note_off_c, 0, 64, 64
2, 61159, Control_c, 0, 64, 0
2, 61181, Control_c, 0, 64, 127
2, 61203, Note_off_c, 0, 58, 64
2, 61203, Note_off_c, 0, 66, 64
2, 61215, Note_on_c, 0, 42, 63
2, 61221, Note_on_c, 0, 73, 73
2, 61259, Note_off_c, 0, 73, 64
2, 61278, Note_on_c, 0, 64, 66
2, 61278, Note_on_c, 0, 58, 69
2, 61280, Note_on_c, 0, 73, 73
2, 61280, Note_on_c, 0, 66, 78
2, 61290, Control_c, 0, 64, 0
2, 61300, Note_off_c, 0, 42, 64
2, 61329, Control_c, 0, 64, 127
2, 61518, Note_off_c, 0, 64, 64
2, 61520, Note_off_c, 0, 66, 64
2, 61532, Note_on_c, 0, 75, 64
2, 61534, Note_on_c, 0, 42, 57
2, 61538, Note_on_c, 0, 66, 63
2, 61538, Note_on_c, 0, 64, 58
2, 61544, Note_off_c, 0, 73, 64
2, 61604, Control_c, 0, 64, 0
2, 61627, Note_off_c, 0, 58, 64
2, 61628, Control_c, 0, 64, 127
2, 61800, Note_on_c, 0, 71, 60
2, 61800, Note_on_c, 0, 63, 58
2, 61806, Note_on_c, 0, 54, 44
2, 61807, Note_on_c, 0, 47, 47
2, 61813, Note_off_c, 0, 75, 64
2, 61815, Note_off_c, 0, 42, 64
2, 61819, Note_off_c, 0, 64, 64
2, 61819, Note_off_c, 0, 66, 64
2, 61830, Control_c, 0, 64, 0
2, 61843, Control_c, 0, 64, 0
2, 61864, Control_c, 0, 64, 127
2, 61869, Control_c, 0, 64, 127
2, 62114, Note_on_c, 0, 62, 50
2, 62117, Note_on_c, 0, 55, 49
2, 62139, Note_off_c, 0, 63, 64
2, 62144, Control_c, 0, 64, 0
2, 62145, Note_off_c, 0, 54, 64
2, 62173, Control_c, 0, 64, 127
2, 62312, Note_off_c, 0, 55, 64
2, 62363, Note_on_c, 0, 64, 48
2, 62367, Note_on_c, 0, 48, 26
2, 62378, Note_off_c, 0, 47, 64
2, 62379, Note_off_c, 0, 62, 64
2, 62383, Control_c, 0, 64, 0
2, 62404, Control_c, 0, 64, 127
2, 62478, Note_on_c, 0, 54, 23
2, 62482, Note_on_c, 0, 60, 25
2, 62482, Note_on_c, 0, 50, 32
2, 62484, Note_on_c, 0, 69, 46
2, 62500, Note_off_c, 0, 64, 64
2, 62501, Note_off_c, 0, 71, 64
2, 62504, Note_off_c, 0, 48, 64
2, 62517, Control_c, 0, 64, 0
2, 62547, Control_c, 0, 64, 127
2, 62684, Control_c, 0, 64, 0
2, 62713, Control_c, 0, 64, 127
2, 62929, Note_on_c, 0, 62, 44
2, 62939, Note_off_c, 0, 69, 64
2, 63002, Note_on_c, 0, 64, 40
2, 63027, Note_off_c, 0, 62, 64
2, 63057, Control_c, 0, 64, 0
2, 63059, Note_off_c, 0, 50, 64
2, 63073, Note_on_c, 0, 62, 57
2, 63074, Note_on_c, 0, 59, 32
2, 63074, Note_on_c, 0, 55, 33
2, 63076, Note_on_c, 0, 50, 38
2, 63079, Note_off_c, 0, 54, 64
2, 63083, Note_off_c, 0, 60, 64
2, 63087, Control_c, 0, 64, 127
2, 63092, Note_off_c, 0, 64, 64
2, 63141, Note_on_c, 0, 69, 47
2, 63167, Note_off_c, 0, 62, 64
2, 63205, Control_c, 0, 64, 0
2, 63210, Note_on_c, 0, 43, 43
2, 63219, Note_on_c, 0, 67, 60
2, 63220, Control_c, 0, 64, 127
2, 63229, Note_off_c, 0, 55, 64
2, 63229, Note_off_c, 0, 59, 64
2, 63231, Note_off_c, 0, 50, 64
2, 63236, Note_off_c, 0, 69, 64
2, 63264, Note_off_c, 0, 43, 64
2, 63277, Note_on_c, 0, 72, 56
2, 63295, Note_off_c, 0, 67, 64
2, 63351, Note_on_c, 0, 71, 66
2, 63369, Note_off_c, 0, 72, 64
2, 63404, Note_on_c, 0, 76, 53
2, 63428, Note_off_c, 0, 71, 64
2, 63468, Control_c, 0, 64, 0
2, 63482, Note_on_c, 0, 74, 58
2, 63485, Note_on_c, 0, 59, 39
2, 63489, Note_on_c, 0, 50, 43
2, 63506, Note_off_c, 0, 76, 64
2, 63506, Control_c, 0, 64, 127
2, 63544, Note_on_c, 0, 78, 56
2, 63562, Note_off_c, 0, 74, 64
2, 63614, Control_c, 0, 64, 0
2, 63618, Note_on_c, 0, 79, 61
2, 63626, Note_on_c, 0, 43, 47
2, 63640, Note_off_c, 0, 59, 64
2, 63644, Note_off_c, 0, 78, 64
2, 63644, Note_off_c, 0, 50, 64
2, 63649, Control_c, 0, 64, 127
2, 63679, Note_on_c, 0, 76, 56
2, 63680, Note_off_c, 0, 43, 64
2, 63697, Note_off_c, 0, 79, 64
2, 63734, Note_on_c, 0, 74, 63
2, 63745, Control_c, 0, 64, 0
2, 63747, Note_off_c, 0, 76, 64
2, 63760, Control_c, 0, 64, 127
2, 63808, Note_on_c, 0, 76, 54
2, 63814, Note_off_c, 0, 74, 64
2, 63870, Note_on_c, 0, 60, 40
2, 63875, Note_on_c, 0, 74, 60
2, 63875, Note_on_c, 0, 54, 46
2, 63879, Note_on_c, 0, 50, 45
2, 63885, Note_off_c, 0, 76, 64
2, 63887, Control_c, 0, 64, 0
2, 63898, Control_c, 0, 64, 127
2, 63936, Note_on_c, 0, 71, 63
2, 63950, Note_off_c, 0, 74, 64
2, 64002, Note_on_c, 0, 72, 62
2, 64008, Control_c, 0, 64, 0
2, 64011, Note_on_c, 0, 43, 38
2, 64018, Note_off_c, 0, 71, 64
2, 64025, Note_off_c, 0, 60, 64
2, 64030, Note_off_c, 0, 54, 64
2, 64034, Note_off_c, 0, 50, 64
2, 64046, Control_c, 0, 64, 127
2, 64065, Note_off_c, 0, 43, 64
2, 64072, Note_on_c, 0, 69, 63
2, 64076, Note_off_c, 0, 72, 64
2, 64136, Note_on_c, 0, 71, 56
2, 64146, Note_off_c, 0, 69, 64
2, 64154, Control_c, 0, 64, 0
2, 64189, Control_c, 0, 64, 127
2, 64200, Note_on_c, 0, 66, 64
2, 64215, Note_off_c, 0, 71, 64
2, 64246, Note_on_c, 0, 67, 56
2, 64259, Note_off_c, 0, 66, 64
2, 64271, Note_on_c, 0, 69, 58
2, 64277, Control_c, 0, 64, 0
2, 64290, Note_off_c, 0, 67, 64
2, 64298, Note_on_c, 0, 67, 55
2, 64298, Note_on_c, 0, 55, 43
2, 64298, Note_on_c, 0, 50, 43
2, 64302, Note_on_c, 0, 59, 43
2, 64303, Control_c, 0, 64, 127
2, 64320, Note_off_c, 0, 69, 64
2, 64357, Note_on_c, 0, 66, 62
2, 64363, Note_off_c, 0, 67, 64
2, 64419, Note_on_c, 0, 67, 53
2, 64423, Note_on_c, 0, 58, 40
2, 64424, Control_c, 0, 64, 0
2, 64427, Control_c, 0, 64, 0
2, 64430, Note_off_c, 0, 66, 64
2, 64434, Note_on_c, 0, 49, 26
2, 64438, Control_c, 0, 64, 127
2, 64445, Note_off_c, 0, 50, 64
2, 64448, Control_c, 0, 64, 127
2, 64449, Note_off_c, 0, 59, 64
2, 64488, Note_on_c, 0, 64, 54
2, 64494, Note_off_c, 0, 67, 64
2, 64542, Control_c, 0, 64, 0
2, 64562, Note_on_c, 0, 62, 59
2, 64572, Note_off_c, 0, 58, 64
2, 64574, Note_off_c, 0, 55, 64
2, 64575, Note_off_c, 0, 64, 64
2, 64579, Control_c, 0, 64, 127
2, 64583, Note_off_c, 0, 49, 64
2, 64624, Note_on_c, 0, 64, 44
2, 64633, Note_off_c, 0, 62, 64
2, 64676, Control_c, 0, 64, 0
2, 64698, Note_on_c, 0, 62, 60
2, 64701, Note_on_c, 0, 59, 39
2, 64701, Note_on_c, 0, 50, 36
2, 64713, Control_c, 0, 64, 127
2, 64716, Note_off_c, 0, 64, 64
2, 64763, Note_on_c, 0, 69, 48
2, 64784, Note_off_c, 0, 62, 64
2, 64817, Control_c, 0, 64, 0
2, 64830, Control_c, 0, 64, 0
2, 64834, Note_on_c, 0, 67, 59
2, 64837, Note_on_c, 0, 43, 47
2, 64843, Control_c, 0, 64, 127
2, 64845, Note_off_c, 0, 69, 64
2, 64853, Control_c, 0, 64, 127
2, 64856, Note_off_c, 0, 50, 64
2, 64856, Note_off_c, 0, 59, 64
2, 64891, Note_off_c, 0, 43, 64
2, 64903, Note_on_c, 0, 72, 50
2, 64924, Note_off_c, 0, 67, 64
2, 64964, Control_c, 0, 64, 0
2, 64977, Note_on_c, 0, 71, 59
2, 64988, Control_c, 0, 64, 127
2, 64991, Note_off_c, 0, 72, 64
2, 65032, Note_on_c, 0, 76, 50
2, 65062, Note_off_c, 0, 71, 64
2, 65082, Control_c, 0, 64, 0
2, 65092, Control_c, 0, 64, 0
2, 65097, Note_on_c, 0, 74, 65
2, 65106, Note_on_c, 0, 50, 45
2, 65110, Note_on_c, 0, 59, 42
2, 65111, Note_off_c, 0, 76, 64
2, 65119, Control_c, 0, 64, 127
2, 65121, Control_c, 0, 64, 127
2, 65164, Note_on_c, 0, 78, 60
2, 65182, Note_off_c, 0, 74, 64
2, 65216, Control_c, 0, 64, 0
2, 65227, Control_c, 0, 64, 0
2, 65231, Note_on_c, 0, 79, 64
2, 65239, Note_on_c, 0, 43, 47
2, 65252, Control_c, 0, 64, 127
2, 65253, Control_c, 0, 64, 127
2, 65261, Note_off_c, 0, 50, 64
2, 65265, Note_off_c, 0, 59, 64
2, 65266, Note_off_c, 0, 78, 64
2, 65292, Note_on_c, 0, 76, 55
2, 65293, Note_off_c, 0, 43, 64
2, 65314, Note_off_c, 0, 79, 64
2, 65350, Note_on_c, 0, 74, 64
2, 65370, Control_c, 0, 64, 0
2, 65375, Note_off_c, 0, 76, 64
2, 65393, Control_c, 0, 64, 127
2, 65420, Note_on_c, 0, 76, 54
2, 65437, Note_off_c, 0, 74, 64
2, 65490, Note_on_c, 0, 60, 36
2, 65490, Note_on_c, 0, 50, 41
2, 65494, Note_on_c, 0, 74, 54
2, 65494, Note_on_c, 0, 54, 43
2, 65507, Note_off_c, 0, 76, 64
2, 65556, Note_on_c, 0, 71, 61
2, 65573, Note_off_c, 0, 74, 64
2, 65612, Note_on_c, 0, 72, 59
2, 65621, Note_on_c, 0, 43, 39
2, 65632, Control_c, 0, 64, 0
2, 65633, Note_off_c, 0, 71, 64
2, 65645, Note_off_c, 0, 50, 64
2, 65645, Note_off_c, 0, 60, 64
2, 65649, Note_off_c, 0, 54, 64
2, 65661, Control_c, 0, 64, 127
2, 65671, Note_on_c, 0, 69, 64
2, 65684, Note_off_c, 0, 72, 64
2, 65740, Note_on_c, 0, 71, 56
2, 65752, Note_off_c, 0, 69, 64
2, 65767, Control_c, 0, 64, 0
2, 65792, Control_c, 0, 64, 127
2, 65804, Note_on_c, 0, 66, 55
2, 65827, Note_off_c, 0, 71, 64
2, 65854, Note_on_c, 0, 69, 56
2, 65881, Note_off_c, 0, 66, 64
2, 65882, Note_on_c, 0, 67, 54
2, 65882, Note_on_c, 0, 62, 44
2, 65882, Note_on_c, 0, 59, 36
2, 65882, Note_on_c, 0, 52, 36
2, 65903, Note_off_c, 0, 43, 64
2, 65915, Note_off_c, 0, 69, 64
2, 65958, Note_on_c, 0, 66, 65
2, 65976, Note_off_c, 0, 67, 64
2, 66002, Control_c, 0, 64, 0
2, 66026, Note_on_c, 0, 64, 60
2, 66030, Note_on_c, 0, 61, 35
2, 66030, Note_on_c, 0, 55, 22
2, 66030, Note_on_c, 0, 45, 26
2, 66042, Note_off_c, 0, 66, 64
2, 66042, Note_off_c, 0, 52, 64
2, 66042, Note_off_c, 0, 59, 64
2, 66042, Note_off_c, 0, 62, 64
2, 66044, Control_c, 0, 64, 127
2, 66099, Note_on_c, 0, 71, 53
2, 66122, Note_off_c, 0, 64, 64
2, 66165, Note_off_c, 0, 45, 64
2, 66165, Note_off_c, 0, 55, 64
2, 66165, Note_off_c, 0, 61, 64
2, 66168, Note_on_c, 0, 69, 61
2, 66184, Note_off_c, 0, 71, 64
2, 66232, Note_on_c, 0, 71, 48
2, 66241, Note_off_c, 0, 69, 64
2, 66283, Control_c, 0, 64, 0
2, 66294, Note_on_c, 0, 69, 58
2, 66295, Note_on_c, 0, 66, 44
2, 66298, Note_on_c, 0, 57, 34
2, 66309, Note_off_c, 0, 71, 64
2, 66320, Control_c, 0, 64, 127
2, 66363, Note_on_c, 0, 76, 45
2, 66384, Note_off_c, 0, 69, 64
2, 66418, Control_c, 0, 64, 0
2, 66424, Note_on_c, 0, 50, 39
2, 66430, Note_on_c, 0, 74, 64
2, 66435, Control_c, 0, 64, 127
2, 66440, Note_off_c, 0, 76, 64
2, 66440, Note_off_c, 0, 66, 64
2, 66443, Note_off_c, 0, 57, 64
2, 66478, Note_off_c, 0, 50, 64
2, 66495, Note_on_c, 0, 79, 64
2, 66515, Note_off_c, 0, 74, 64
2, 66542, Control_c, 0, 64, 0
2, 66565, Note_on_c, 0, 78, 73
2, 66576, Note_off_c, 0, 79, 64
2, 66584, Control_c, 0, 64, 127
2, 66626, Note_on_c, 0, 83, 51
2, 66648, Note_off_c, 0, 78, 64
2, 66671, Control_c, 0, 64, 0
2, 66688, Note_on_c, 0, 81, 58
2, 66691, Note_off_c, 0, 83, 64
2, 66694, Note_on_c, 0, 66, 42
2, 66694, Note_on_c, 0, 57, 44
2, 66711, Control_c, 0, 64, 127
2, 66748, Note_on_c, 0, 85, 62
2, 66763, Note_off_c, 0, 81, 64
2, 66819, Note_on_c, 0, 50, 48
2, 66823, Control_c, 0, 64, 0
2, 66823, Note_on_c, 0, 86, 68
2, 66830, Control_c, 0, 64, 0
2, 66838, Note_off_c, 0, 85, 64
2, 66839, Note_off_c, 0, 57, 64
2, 66839, Note_off_c, 0, 66, 64
2, 66842, Control_c, 0, 64, 127
2, 66860, Control_c, 0, 64, 127
2, 66873, Note_off_c, 0, 50, 64
2, 66883, Note_on_c, 0, 83, 34
2, 66908, Note_off_c, 0, 86, 64
2, 66944, Note_on_c, 0, 81, 62
2, 66958, Control_c, 0, 64, 0
2, 66961, Note_off_c, 0, 83, 64
2, 66975, Control_c, 0, 64, 127
2, 67004, Note_on_c, 0, 83, 64
2, 67016, Note_off_c, 0, 81, 64
2, 67062, Note_on_c, 0, 81, 63
2, 67066, Note_on_c, 0, 67, 48
2, 67067, Note_on_c, 0, 61, 49
2, 67067, Note_on_c, 0, 57, 49
2, 67083, Note_off_c, 0, 83, 64
2, 67118, Note_on_c, 0, 78, 76
2, 67131, Note_off_c, 0, 81, 64
2, 67187, Note_on_c, 0, 79, 76
2, 67199, Note_off_c, 0, 78, 64
2, 67200, Note_on_c, 0, 50, 48
2, 67211, Note_off_c, 0, 67, 64
2, 67211, Control_c, 0, 64, 0
2, 67212, Note_off_c, 0, 57, 64
2, 67212, Note_off_c, 0, 61, 64
2, 67251, Control_c, 0, 64, 127
2, 67254, Note_off_c, 0, 50, 64
2, 67257, Note_on_c, 0, 76, 54
2, 67272, Note_off_c, 0, 79, 64
2, 67314, Note_on_c, 0, 78, 70
2, 67328, Note_off_c, 0, 76, 64
2, 67370, Control_c, 0, 64, 0
2, 67378, Note_on_c, 0, 73, 65
2, 67382, Control_c, 0, 64, 127
2, 67396, Note_off_c, 0, 78, 64
2, 67420, Note_on_c, 0, 74, 71
2, 67420, Note_on_c, 0, 57, 44
2, 67424, Note_on_c, 0, 66, 41
2, 67424, Note_on_c, 0, 62, 41
2, 67438, Note_off_c, 0, 73, 64
2, 67461, Note_on_c, 0, 76, 60
2, 67470, Note_off_c, 0, 74, 64
2, 67470, Control_c, 0, 64, 0
2, 67482, Control_c, 0, 64, 127
2, 67488, Note_on_c, 0, 74, 72
2, 67498, Note_off_c, 0, 76, 64
2, 67534, Note_on_c, 0, 73, 71
2, 67543, Note_off_c, 0, 74, 64
2, 67590, Note_on_c, 0, 74, 66
2, 67594, Note_off_c, 0, 57, 64
2, 67594, Note_on_c, 0, 65, 32
2, 67594, Note_on_c, 0, 56, 29
2, 67594, Control_c, 0, 64, 0
2, 67597, Note_off_c, 0, 73, 64
2, 67598, Note_off_c, 0, 66, 64
2, 67612, Control_c, 0, 64, 127
2, 67657, Note_on_c, 0, 71, 51
2, 67667, Note_off_c, 0, 74, 64
2, 67710, Control_c, 0, 64, 0
2, 67723, Note_on_c, 0, 69, 58
2, 67727, Note_off_c, 0, 62, 64
2, 67730, Note_off_c, 0, 56, 64
2, 67730, Note_off_c, 0, 65, 64
2, 67740, Note_off_c, 0, 71, 64
2, 67742, Control_c, 0, 64, 127
2, 67780, Note_on_c, 0, 71, 48
2, 67802, Note_off_c, 0, 69, 64
2, 67846, Control_c, 0, 64, 0
2, 67850, Note_on_c, 0, 69, 57
2, 67852, Note_on_c, 0, 66, 38
2, 67854, Note_on_c, 0, 57, 40
2, 67866, Control_c, 0, 64, 127
2, 67870, Note_off_c, 0, 71, 64
2, 67919, Note_on_c, 0, 76, 50
2, 67934, Note_off_c, 0, 69, 64
2, 67979, Note_on_c, 0, 50, 48
2, 67988, Note_on_c, 0, 74, 61
2, 67997, Note_off_c, 0, 66, 64
2, 67999, Note_off_c, 0, 57, 64
2, 68001, Note_off_c, 0, 76, 64
2, 68010, Control_c, 0, 64, 0
2, 68022, Control_c, 0, 64, 127
2, 68033, Note_off_c, 0, 50, 64
2, 68047, Note_on_c, 0, 79, 61
2, 68078, Note_off_c, 0, 74, 64
2, 68122, Note_on_c, 0, 78, 74
2, 68134, Control_c, 0, 64, 0
2, 68135, Note_off_c, 0, 79, 64
2, 68152, Control_c, 0, 64, 127
2, 68184, Note_on_c, 0, 83, 53
2, 68195, Note_off_c, 0, 78, 64
2, 68222, Control_c, 0, 64, 0
2, 68230, Note_on_c, 0, 66, 40
2, 68234, Note_on_c, 0, 57, 43
2, 68235, Note_on_c, 0, 81, 68
2, 68249, Control_c, 0, 64, 127
2, 68250, Control_c, 0, 64, 0
2, 68261, Note_off_c, 0, 83, 64
2, 68282, Control_c, 0, 64, 127
2, 68289, Note_on_c, 0, 85, 68
2, 68304, Note_off_c, 0, 81, 64
2, 68362, Note_on_c, 0, 86, 62
2, 68365, Note_on_c, 0, 50, 51
2, 68370, Control_c, 0, 64, 0
2, 68375, Note_off_c, 0, 66, 64
2, 68379, Note_off_c, 0, 57, 64
2, 68382, Control_c, 0, 64, 127
2, 68386, Control_c, 0, 64, 0
2, 68388, Note_off_c, 0, 85, 64
2, 68406, Control_c, 0, 64, 127
2, 68418, Note_on_c, 0, 83, 60
2, 68419, Note_off_c, 0, 50, 64
2, 68435, Note_off_c, 0, 86, 64
2, 68479, Note_on_c, 0, 81, 58
2, 68497, Note_off_c, 0, 83, 64
2, 68532, Note_on_c, 0, 83, 55
2, 68542, Note_off_c, 0, 81, 64
2, 68591, Note_on_c, 0, 81, 54
2, 68594, Note_on_c, 0, 67, 43
2, 68594, Note_on_c, 0, 61, 49
2, 68594, Note_on_c, 0, 57, 48
2, 68609, Note_off_c, 0, 83, 64
2, 68646, Note_on_c, 0, 78, 70
2, 68655, Note_off_c, 0, 81, 64
2, 68719, Note_on_c, 0, 79, 66
2, 68728, Note_on_c, 0, 50, 53
2, 68731, Note_off_c, 0, 78, 64
2, 68739, Note_off_c, 0, 57, 64
2, 68739, Note_off_c, 0, 61, 64
2, 68739, Note_off_c, 0, 67, 64
2, 68762, Control_c, 0, 64, 0
2, 68780, Note_on_c, 0, 76, 57
2, 68782, Note_off_c, 0, 50, 64
2, 68789, Control_c, 0, 64, 127
2, 68801, Note_off_c, 0, 79, 64
2, 68842, Note_on_c, 0, 78, 63
2, 68859, Note_off_c, 0, 76, 64
2, 68896, Note_on_c, 0, 74, 57
2, 68910, Control_c, 0, 64, 0
2, 68911, Note_off_c, 0, 78, 64
2, 68922, Control_c, 0, 64, 127
2, 68958, Note_on_c, 0, 66, 44
2, 68958, Note_on_c, 0, 60, 44
2, 68958, Note_on_c, 0, 57, 44
2, 68964, Note_on_c, 0, 76, 60
2, 68981, Note_off_c, 0, 74, 64
2, 69017, Note_on_c, 0, 71, 50
2, 69031, Note_off_c, 0, 76, 64
2, 69085, Note_on_c, 0, 72, 63
2, 69091, Note_on_c, 0, 50, 40
2, 69102, Note_off_c, 0, 71, 64
2, 69103, Note_off_c, 0, 57, 64
2, 69103, Note_off_c, 0, 60, 64
2, 69103, Note_off_c, 0, 66, 64
2, 69145, Note_off_c, 0, 50, 64
2, 69148, Note_on_c, 0, 64, 47
2, 69164, Note_off_c, 0, 72, 64
2, 69222, Note_on_c, 0, 62, 58
2, 69242, Note_off_c, 0, 64, 64
2, 69281, Note_on_c, 0, 64, 55
2, 69293, Note_off_c, 0, 62, 64
2, 69341, Control_c, 0, 64, 0
2, 69347, Note_on_c, 0, 59, 43
2, 69350, Note_on_c, 0, 50, 43
2, 69353, Note_on_c, 0, 62, 63
2, 69363, Note_off_c, 0, 64, 64
2, 69370, Control_c, 0, 64, 127
2, 69409, Note_on_c, 0, 69, 55
2, 69425, Note_off_c, 0, 62, 64
2, 69468, Control_c, 0, 64, 0
2, 69471, Note_on_c, 0, 43, 43
2, 69478, Note_on_c, 0, 67, 66
2, 69492, Note_off_c, 0, 69, 64
2, 69492, Note_off_c, 0, 59, 64
2, 69492, Control_c, 0, 64, 127
2, 69495, Note_off_c, 0, 50, 64
2, 69525, Note_off_c, 0, 43, 64
2, 69540, Note_on_c, 0, 72, 62
2, 69552, Note_off_c, 0, 67, 64
2, 69581, Control_c, 0, 64, 0
2, 69603, Control_c, 0, 64, 127
2, 69613, Note_on_c, 0, 71, 60
2, 69625, Note_off_c, 0, 72, 64
2, 69668, Note_on_c, 0, 76, 52
2, 69681, Note_off_c, 0, 71, 64
2, 69710, Control_c, 0, 64, 0
2, 69722, Note_on_c, 0, 74, 64
2, 69726, Note_on_c, 0, 59, 46
2, 69726, Note_on_c, 0, 50, 47
2, 69749, Note_off_c, 0, 76, 64
2, 69757, Control_c, 0, 64, 127
2, 69778, Note_on_c, 0, 78, 57
2, 69796, Note_off_c, 0, 74, 64
2, 69837, Control_c, 0, 64, 0
2, 69848, Note_on_c, 0, 43, 52
2, 69853, Note_on_c, 0, 79, 58
2, 69871, Note_off_c, 0, 50, 64
2, 69871, Note_off_c, 0, 59, 64
2, 69871, Control_c, 0, 64, 127
2, 69876, Note_off_c, 0, 78, 64
2, 69881, Control_c, 0, 64, 0
2, 69902, Note_off_c, 0, 43, 64
2, 69910, Control_c, 0, 64, 127
2, 69910, Note_on_c, 0, 76, 54
2, 69932, Note_off_c, 0, 79, 64
2, 69962, Note_on_c, 0, 74, 62
2, 69977, Note_off_c, 0, 76, 64
2, 70008, Control_c, 0, 64, 0
2, 70026, Note_on_c, 0, 76, 56
2, 70032, Control_c, 0, 64, 127
2, 70055, Note_off_c, 0, 74, 64
2, 70074, Control_c, 0, 64, 0
2, 70090, Note_on_c, 0, 54, 48
2, 70090, Note_on_c, 0, 50, 48
2, 70091, Note_on_c, 0, 74, 57
2, 70091, Note_on_c, 0, 60, 45
2, 70100, Note_off_c, 0, 76, 64
2, 70113, Control_c, 0, 64, 127
2, 70121, Control_c, 0, 64, 0
2, 70143, Control_c, 0, 64, 127
2, 70152, Note_on_c, 0, 71, 66
2, 70166, Note_off_c, 0, 74, 64
2, 70217, Note_on_c, 0, 43, 49
2, 70220, Note_on_c, 0, 72, 59
2, 70235, Note_off_c, 0, 71, 64
2, 70235, Note_off_c, 0, 50, 64
2, 70235, Note_off_c, 0, 54, 64
2, 70236, Note_off_c, 0, 60, 64
2, 70250, Control_c, 0, 64, 0
2, 70271, Note_off_c, 0, 43, 64
2, 70286, Note_on_c, 0, 69, 58
2, 70297, Control_c, 0, 64, 127
2, 70332, Note_off_c, 0, 72, 64
2, 70354, Note_on_c, 0, 71, 59
2, 70365, Note_off_c, 0, 69, 64
2, 70377, Control_c, 0, 64, 0
2, 70410, Note_on_c, 0, 66, 57
2, 70411, Control_c, 0, 64, 127
2, 70413, Note_off_c, 0, 71, 64
2, 70442, Note_on_c, 0, 67, 42
2, 70449, Note_off_c, 0, 66, 64
2, 70462, Note_on_c, 0, 69, 62
2, 70468, Control_c, 0, 64, 0
2, 70479, Note_off_c, 0, 67, 64
2, 70486, Note_on_c, 0, 59, 45
2, 70486, Note_on_c, 0, 55, 45
2, 70486, Note_on_c, 0, 50, 50
2, 70489, Note_on_c, 0, 67, 56
2, 70492, Control_c, 0, 64, 127
2, 70508, Note_off_c, 0, 69, 64
2, 70550, Note_on_c, 0, 66, 67
2, 70562, Note_off_c, 0, 67, 64
2, 70597, Control_c, 0, 64, 0
2, 70603, Note_on_c, 0, 49, 43
2, 70604, Note_on_c, 0, 67, 64
2, 70606, Note_on_c, 0, 58, 48
2, 70610, Note_off_c, 0, 50, 64
2, 70610, Note_off_c, 0, 59, 64
2, 70612, Control_c, 0, 64, 127
2, 70614, Control_c, 0, 64, 0
2, 70627, Note_off_c, 0, 66, 64
2, 70653, Control_c, 0, 64, 127
2, 70666, Note_on_c, 0, 64, 59
2, 70683, Note_off_c, 0, 67, 64
2, 70703, Control_c, 0, 64, 0
2, 70724, Note_on_c, 0, 62, 65
2, 70730, Note_off_c, 0, 55, 64
2, 70735, Note_off_c, 0, 64, 64
2, 70735, Note_off_c, 0, 49, 64
2, 70736, Control_c, 0, 64, 127
2, 70738, Note_off_c, 0, 58, 64
2, 70784, Note_on_c, 0, 64, 61
2, 70787, Note_off_c, 0, 62, 64
2, 70822, Control_c, 0, 64, 0
2, 70846, Note_on_c, 0, 59, 43
2, 70847, Note_on_c, 0, 62, 63
2, 70851, Note_on_c, 0, 50, 44
2, 70860, Control_c, 0, 64, 127
2, 70877, Note_off_c, 0, 64, 64
2, 70905, Note_on_c, 0, 69, 56
2, 70926, Note_off_c, 0, 62, 64
2, 70960, Control_c, 0, 64, 0
2, 70967, Note_on_c, 0, 67, 66
2, 70976, Note_on_c, 0, 43, 49
2, 70982, Note_off_c, 0, 69, 64
2, 70984, Control_c, 0, 64, 127
2, 70991, Note_off_c, 0, 59, 64
2, 70996, Note_off_c, 0, 50, 64
2, 71008, Control_c, 0, 64, 0
2, 71026, Note_on_c, 0, 72, 56
2, 71030, Note_off_c, 0, 43, 64
2, 71032, Control_c, 0, 64, 127
2, 71034, Note_off_c, 0, 67, 64
2, 71098, Note_on_c, 0, 71, 63
2, 71112, Note_off_c, 0, 72, 64
2, 71137, Control_c, 0, 64, 0
2, 71148, Note_on_c, 0, 76, 59
2, 71152, Control_c, 0, 64, 127
2, 71170, Note_off_c, 0, 71, 64
2, 71205, Control_c, 0, 64, 0
2, 71210, Note_on_c, 0, 74, 56
2, 71218, Note_on_c, 0, 50, 48
2, 71222, Note_off_c, 0, 76, 64
2, 71222, Note_on_c, 0, 59, 41
2, 71232, Control_c, 0, 64, 127
2, 71243, Control_c, 0, 64, 0
2, 71262, Note_on_c, 0, 78, 70
2, 71276, Control_c, 0, 64, 127
2, 71278, Note_off_c, 0, 74, 64
2, 71320, Control_c, 0, 64, 0
2, 71329, Note_on_c, 0, 79, 60
2, 71337, Note_on_c, 0, 43, 50
2, 71345, Note_off_c, 0, 78, 64
2, 71346, Control_c, 0, 64, 127
2, 71362, Control_c, 0, 64, 0
2, 71363, Note_off_c, 0, 50, 64
2, 71367, Note_off_c, 0, 59, 64
2, 71380, Note_on_c, 0, 76, 56
2, 71391, Note_off_c, 0, 43, 64
2, 71400, Control_c, 0, 64, 127
2, 71408, Note_off_c, 0, 79, 64
2, 71436, Note_on_c, 0, 74, 57
2, 71444, Note_off_c, 0, 76, 64
2, 71500, Control_c, 0, 64, 0
2, 71504, Note_on_c, 0, 76, 44
2, 71521, Note_off_c, 0, 74, 64
2, 71524, Control_c, 0, 64, 127
2, 71562, Note_on_c, 0, 74, 53
2, 71566, Note_on_c, 0, 60, 47
2, 71566, Note_on_c, 0, 54, 43
2, 71566, Note_on_c, 0, 50, 47
2, 71567, Note_off_c, 0, 76, 64
2, 71612, Note_on_c, 0, 71, 61
2, 71625, Note_off_c, 0, 74, 64
2, 71686, Note_on_c, 0, 72, 64
2, 71691, Note_on_c, 0, 43, 47
2, 71695, Note_off_c, 0, 71, 64
2, 71711, Note_off_c, 0, 50, 64
2, 71711, Note_off_c, 0, 54, 64
2, 71711, Note_off_c, 0, 60, 64
2, 71743, Note_on_c, 0, 69, 55
2, 71745, Note_off_c, 0, 43, 64
2, 71745, Control_c, 0, 64, 0
2, 71760, Note_off_c, 0, 72, 64
2, 71772, Control_c, 0, 64, 127
2, 71802, Note_on_c, 0, 71, 64
2, 71820, Note_off_c, 0, 69, 64
2, 71857, Note_on_c, 0, 66, 75
2, 71860, Control_c, 0, 64, 0
2, 71873, Note_off_c, 0, 71, 64
2, 71886, Control_c, 0, 64, 127
2, 71917, Note_on_c, 0, 69, 37
2, 71932, Note_on_c, 0, 67, 77
2, 71936, Note_on_c, 0, 62, 40
2, 71936, Note_on_c, 0, 59, 32
2, 71938, Note_on_c, 0, 52, 31
2, 71940, Note_off_c, 0, 66, 64
2, 71964, Note_off_c, 0, 69, 64
2, 72004, Note_on_c, 0, 66, 65
2, 72019, Note_off_c, 0, 67, 64
2, 72038, Control_c, 0, 64, 0
2, 72069, Note_on_c, 0, 64, 62
2, 72070, Note_on_c, 0, 61, 45
2, 72070, Note_on_c, 0, 55, 36
2, 72070, Note_on_c, 0, 45, 38
2, 72070, Control_c, 0, 64, 127
2, 72071, Note_off_c, 0, 59, 64
2, 72071, Note_off_c, 0, 62, 64
2, 72073, Note_off_c, 0, 52, 64
2, 72093, Note_off_c, 0, 66, 64
2, 72132, Note_on_c, 0, 71, 57
2, 72148, Note_off_c, 0, 64, 64
2, 72161, Control_c, 0, 64, 0
2, 72184, Control_c, 0, 64, 127
2, 72198, Note_on_c, 0, 69, 69
2, 72203, Note_off_c, 0, 45, 64
2, 72203, Note_off_c, 0, 55, 64
2, 72203, Note_off_c, 0, 61, 64
2, 72226, Note_off_c, 0, 71, 64
2, 72256, Note_on_c, 0, 71, 57
2, 72267, Note_off_c, 0, 69, 64
2, 72289, Control_c, 0, 64, 0
2, 72310, Note_on_c, 0, 57, 33
2, 72314, Note_on_c, 0, 66, 50
2, 72315, Note_on_c, 0, 69, 72
2, 72326, Control_c, 0, 64, 127
2, 72342, Note_off_c, 0, 71, 64
2, 72376, Note_on_c, 0, 76, 48
2, 72384, Note_off_c, 0, 69, 64
2, 72418, Control_c, 0, 64, 0
2, 72436, Note_on_c, 0, 50, 46
2, 72442, Note_on_c, 0, 74, 59
2, 72442, Control_c, 0, 64, 127
2, 72455, Note_off_c, 0, 57, 64
2, 72459, Note_off_c, 0, 66, 64
2, 72464, Note_off_c, 0, 76, 64
2, 72490, Note_off_c, 0, 50, 64
2, 72508, Note_on_c, 0, 79, 46
2, 72517, Note_off_c, 0, 74, 64
2, 72565, Note_on_c, 0, 78, 75
2, 72575, Note_off_c, 0, 79, 64
2, 72578, Control_c, 0, 64, 0
2, 72610, Control_c, 0, 64, 127
2, 72623, Note_on_c, 0, 83, 67
2, 72644, Note_off_c, 0, 78, 64
2, 72660, Control_c, 0, 64, 0
2, 72682, Note_on_c, 0, 81, 78
2, 72682, Note_on_c, 0, 66, 47
2, 72685, Note_on_c, 0, 57, 48
2, 72686, Control_c, 0, 64, 127
2, 72700, Note_off_c, 0, 83, 64
2, 72701, Control_c, 0, 64, 0
2, 72724, Control_c, 0, 64, 127
2, 72734, Note_on_c, 0, 85, 66
2, 72757, Note_off_c, 0, 81, 64
2, 72787, Control_c, 0, 64, 0
2, 72795, Note_on_c, 0, 50, 48
2, 72797, Note_on_c, 0, 86, 85
2, 72808, Note_off_c, 0, 85, 64
2, 72812, Control_c, 0, 64, 127
2, 72827, Note_off_c, 0, 66, 64
2, 72829, Control_c, 0, 64, 0
2, 72830, Note_off_c, 0, 57, 64
2, 72845, Note_on_c, 0, 83, 60
2, 72849, Note_off_c, 0, 50, 64
2, 72866, Control_c, 0, 64, 127
2, 72879, Note_off_c, 0, 86, 64
2, 72912, Note_on_c, 0, 81, 73
2, 72928, Note_off_c, 0, 83, 64
2, 72958, Control_c, 0, 64, 0
2, 72971, Note_on_c, 0, 83, 57
2, 72982, Control_c, 0, 64, 127
2, 72989, Note_off_c, 0, 81, 64
2, 73018, Note_on_c, 0, 67, 48
2, 73018, Note_on_c, 0, 61, 48
2, 73018, Note_on_c, 0, 57, 50
2, 73019, Note_on_c, 0, 81, 81
2, 73033, Note_off_c, 0, 83, 64
2, 73072, Note_on_c, 0, 78, 81
2, 73081, Note_off_c, 0, 81, 64
2, 73144, Note_on_c, 0, 79, 70
2, 73150, Note_on_c, 0, 50, 49
2, 73161, Note_off_c, 0, 78, 64
2, 73163, Note_off_c, 0, 57, 64
2, 73163, Note_off_c, 0, 61, 64
2, 73163, Note_off_c, 0, 67, 64
2, 73196, Note_off_c, 0, 50, 64
2, 73200, Control_c, 0, 64, 0
2, 73205, Note_on_c, 0, 76, 69
2, 73211, Note_off_c, 0, 79, 64
2, 73226, Control_c, 0, 64, 127
2, 73264, Note_on_c, 0, 78, 71
2, 73285, Note_off_c, 0, 76, 64
2, 73318, Note_on_c, 0, 73, 67
2, 73327, Control_c, 0, 64, 0
2, 73339, Note_off_c, 0, 78, 64
2, 73352, Control_c, 0, 64, 127
2, 73368, Note_on_c, 0, 74, 51
2, 73381, Note_off_c, 0, 73, 64
2, 73394, Control_c, 0, 64, 0
2, 73396, Note_on_c, 0, 76, 52
2, 73403, Note_off_c, 0, 74, 64
2, 73407, Control_c, 0, 64, 127
2, 73408, Note_on_c, 0, 66, 42
2, 73408, Note_on_c, 0, 62, 42
2, 73408, Note_on_c, 0, 57, 44
2, 73415, Note_on_c, 0, 74, 62
2, 73442, Note_off_c, 0, 76, 64
2, 73463, Note_on_c, 0, 73, 64
2, 73466, Note_off_c, 0, 74, 64
2, 73510, Control_c, 0, 64, 0
2, 73516, Note_on_c, 0, 65, 36
2, 73518, Note_on_c, 0, 56, 43
2, 73519, Note_on_c, 0, 74, 64
2, 73526, Note_off_c, 0, 73, 64
2, 73528, Control_c, 0, 64, 127
2, 73543, Note_off_c, 0, 57, 64
2, 73543, Note_off_c, 0, 66, 64
2, 73574, Note_on_c, 0, 71, 59
2, 73591, Note_off_c, 0, 74, 64
2, 73615, Control_c, 0, 64, 0
2, 73642, Note_on_c, 0, 69, 62
2, 73648, Control_c, 0, 64, 127
2, 73651, Note_off_c, 0, 71, 64
2, 73651, Note_off_c, 0, 65, 64
2, 73653, Note_off_c, 0, 56, 64
2, 73658, Note_off_c, 0, 62, 64
2, 73700, Note_on_c, 0, 71, 53
2, 73712, Note_off_c, 0, 69, 64
2, 73736, Control_c, 0, 64, 0
2, 73759, Control_c, 0, 64, 127
2, 73764, Note_on_c, 0, 69, 56
2, 73766, Note_on_c, 0, 66, 51
2, 73769, Note_on_c, 0, 57, 50
2, 73785, Note_off_c, 0, 71, 64
2, 73817, Note_on_c, 0, 76, 55
2, 73839, Note_off_c, 0, 69, 64
2, 73877, Note_on_c, 0, 50, 53
2, 73884, Note_on_c, 0, 74, 69
2, 73898, Note_off_c, 0, 76, 64
2, 73901, Note_off_c, 0, 66, 64
2, 73904, Note_off_c, 0, 57, 64
2, 73931, Note_off_c, 0, 50, 64
2, 73934, Control_c, 0, 64, 0
2, 73938, Note_on_c, 0, 79, 66
2, 73947, Control_c, 0, 64, 127
2, 73957, Note_off_c, 0, 74, 64
2, 74004, Note_on_c, 0, 78, 73
2, 74023, Note_off_c, 0, 79, 64
2, 74050, Control_c, 0, 64, 0
2, 74066, Note_on_c, 0, 83, 57
2, 74068, Control_c, 0, 64, 127
2, 74081, Note_off_c, 0, 78, 64
2, 74083, Control_c, 0, 64, 0
2, 74112, Control_c, 0, 64, 127
2, 74116, Note_on_c, 0, 81, 69
2, 74124, Note_on_c, 0, 66, 52
2, 74124, Note_on_c, 0, 57, 59
2, 74130, Note_off_c, 0, 83, 64
2, 74155, Control_c, 0, 64, 0
2, 74172, Note_on_c, 0, 85, 66
2, 74188, Control_c, 0, 64, 127
2, 74198, Note_off_c, 0, 81, 64
2, 74220, Note_on_c, 0, 50, 46
2, 74220, Control_c, 0, 64, 0
2, 74224, Note_on_c, 0, 86, 68
2, 74242, Control_c, 0, 64, 127
2, 74256, Note_off_c, 0, 85, 64
2, 74259, Note_off_c, 0, 57, 64
2, 74259, Note_off_c, 0, 66, 64
2, 74276, Control_c, 0, 64, 0
2, 74278, Note_off_c, 0, 50, 64
2, 74278, Note_on_c, 0, 83, 54
2, 74299, Control_c, 0, 64, 127
2, 74305, Note_off_c, 0, 86, 64
2, 74341, Note_on_c, 0, 81, 59
2, 74360, Note_off_c, 0, 83, 64
2, 74400, Note_on_c, 0, 78, 73
2, 74418, Note_off_c, 0, 81, 64
2, 74458, Note_on_c, 0, 79, 67
2, 74473, Note_off_c, 0, 78, 64
2, 74518, Note_on_c, 0, 83, 72
2, 74529, Note_off_c, 0, 79, 64
2, 74580, Note_on_c, 0, 81, 67
2, 74595, Note_off_c, 0, 83, 64
2, 74623, Control_c, 0, 64, 0
2, 74646, Note_on_c, 0, 78, 59
2, 74652, Control_c, 0, 64, 127
2, 74663, Note_off_c, 0, 81, 64
2, 74710, Note_on_c, 0, 74, 60
2, 74720, Control_c, 0, 64, 0
2, 74729, Note_off_c, 0, 78, 64
2, 74733, Control_c, 0, 64, 127
2, 74760, Control_c, 0, 64, 0
2, 74764, Note_on_c, 0, 76, 67
2, 74782, Control_c, 0, 64, 127
2, 74788, Note_off_c, 0, 74, 64
2, 74794, Control_c, 0, 64, 0
2, 74815, Control_c, 0, 64, 127
2, 74829, Note_on_c, 0, 79, 66
2, 74839, Control_c, 0, 64, 0
2, 74849, Note_off_c, 0, 76, 64
2, 74889, Note_on_c, 0, 78, 65
2, 74902, Note_off_c, 0, 79, 64
2, 74917, Control_c, 0, 64, 127
2, 74953, Note_on_c, 0, 74, 56
2, 74969, Note_off_c, 0, 78, 64
2, 75018, Note_on_c, 0, 69, 66
2, 75038, Note_off_c, 0, 74, 64
2, 75093, Note_on_c, 0, 70, 85
2, 75097, Control_c, 0, 64, 0
2, 75113, Note_off_c, 0, 69, 64
2, 75139, Control_c, 0, 64, 127
2, 75165, Note_on_c, 0, 74, 60
2, 75179, Note_off_c, 0, 70, 64
2, 75239, Note_on_c, 0, 69, 69
2, 75259, Note_off_c, 0, 74, 64
2, 75260, Control_c, 0, 64, 0
2, 75273, Control_c, 0, 64, 127
2, 75307, Note_on_c, 0, 66, 72
2, 75322, Note_off_c, 0, 69, 64
2, 75334, Control_c, 0, 64, 0
2, 75355, Control_c, 0, 64, 127
2, 75379, Control_c, 0, 64, 0
2, 75388, Note_on_c, 0, 70, 83
2, 75412, Control_c, 0, 64, 0
2, 75419, Note_off_c, 0, 66, 64
2, 75442, Control_c, 0, 64, 127
2, 75457, Control_c, 0, 64, 127
2, 75460, Note_on_c, 0, 74, 51
2, 75476, Note_off_c, 0, 70, 64
2, 75520, Note_on_c, 0, 69, 58
2, 75557, Note_off_c, 0, 74, 64
2, 75586, Note_on_c, 0, 66, 71
2, 75612, Note_off_c, 0, 69, 64
2, 75637, Control_c, 0, 64, 0
2, 75656, Note_on_c, 0, 70, 79
2, 75679, Control_c, 0, 64, 127
2, 75700, Note_off_c, 0, 66, 64
2, 75713, Note_on_c, 0, 74, 49
2, 75739, Note_off_c, 0, 70, 64
2, 75776, Note_on_c, 0, 69, 64
2, 75803, Note_off_c, 0, 74, 64
2, 75843, Note_on_c, 0, 66, 70
2, 75864, Note_off_c, 0, 69, 64
2, 75915, Note_on_c, 0, 69, 69
2, 75933, Note_off_c, 0, 66, 64
2, 75944, Control_c, 0, 64, 0
2, 75952, Control_c, 0, 64, 0
2, 75965, Control_c, 0, 64, 127
2, 75982, Control_c, 0, 64, 127
2, 75985, Note_on_c, 0, 73, 55
2, 76008, Note_off_c, 0, 69, 64
2, 76054, Note_on_c, 0, 68, 57
2, 76072, Note_off_c, 0, 73, 64
2, 76131, Note_on_c, 0, 65, 57
2, 76152, Note_off_c, 0, 68, 64
2, 76193, Note_on_c, 0, 69, 58
2, 76213, Control_c, 0, 64, 0
2, 76218, Note_off_c, 0, 65, 64
2, 76223, Control_c, 0, 64, 127
2, 76260, Note_on_c, 0, 73, 49
2, 76266, Note_off_c, 0, 69, 64
2, 76329, Note_on_c, 0, 68, 54
2, 76366, Note_off_c, 0, 73, 64
2, 76397, Note_on_c, 0, 65, 54
2, 76410, Note_off_c, 0, 68, 64
2, 76460, Note_on_c, 0, 69, 58
2, 76484, Control_c, 0, 64, 0
2, 76489, Note_off_c, 0, 65, 64
2, 76505, Control_c, 0, 64, 127
2, 76508, Control_c, 0, 64, 0
2, 76522, Control_c, 0, 64, 127
2, 76526, Note_on_c, 0, 73, 54
2, 76546, Note_off_c, 0, 69, 64
2, 76610, Note_on_c, 0, 68, 46
2, 76632, Note_off_c, 0, 73, 64
2, 76688, Note_on_c, 0, 65, 52
2, 76704, Note_off_c, 0, 68, 64
2, 76753, Control_c, 0, 64, 0
2, 76763, Control_c, 0, 64, 127
2, 76769, Note_on_c, 0, 68, 52
2, 76797, Note_off_c, 0, 65, 64
2, 76832, Note_on_c, 0, 72, 42
2, 76857, Note_off_c, 0, 68, 64
2, 76905, Note_on_c, 0, 67, 56
2, 76942, Note_off_c, 0, 72, 64
2, 76970, Note_on_c, 0, 64, 50
2, 77002, Note_off_c, 0, 67, 64
2, 77045, Note_on_c, 0, 67, 59
2, 77048, Control_c, 0, 64, 0
2, 77062, Control_c, 0, 64, 127
2, 77088, Note_off_c, 0, 64, 64
2, 77111, Note_on_c, 0, 71, 60
2, 77132, Note_off_c, 0, 67, 64
2, 77172, Note_on_c, 0, 66, 55
2, 77196, Note_off_c, 0, 71, 64
2, 77242, Note_on_c, 0, 63, 52
2, 77258, Note_off_c, 0, 66, 64
2, 77316, Note_on_c, 0, 66, 41
2, 77332, Note_off_c, 0, 63, 64
2, 77373, Note_on_c, 0, 70, 58
2, 77391, Note_off_c, 0, 66, 64
2, 77446, Note_on_c, 0, 65, 50
2, 77470, Note_off_c, 0, 70, 64
2, 77513, Note_on_c, 0, 62, 56
2, 77528, Note_off_c, 0, 65, 64
2, 77587, Note_on_c, 0, 65, 60
2, 77629, Note_off_c, 0, 62, 64
2, 77647, Note_on_c, 0, 69, 55
2, 77667, Note_off_c, 0, 65, 64
2, 77710, Note_on_c, 0, 64, 58
2, 77728, Note_off_c, 0, 69, 64
2, 77786, Note_on_c, 0, 61, 54
2, 77810, Note_off_c, 0, 64, 64
2, 77862, Note_on_c, 0, 64, 56
2, 77884, Note_off_c, 0, 61, 64
2, 77939, Note_on_c, 0, 68, 58
2, 77958, Note_off_c, 0, 64, 64
2, 78014, Note_on_c, 0, 63, 54
2, 78042, Note_off_c, 0, 68, 64
2, 78094, Note_on_c, 0, 60, 52
2, 78117, Note_off_c, 0, 63, 64
2, 78166, Control_c, 0, 64, 0
2, 78180, Note_on_c, 0, 64, 52
2, 78190, Control_c, 0, 64, 127
2, 78223, Note_off_c, 0, 60, 64
2, 78269, Note_on_c, 0, 68, 59
2, 78285, Note_off_c, 0, 64, 64
2, 78374, Note_on_c, 0, 63, 55
2, 78399, Note_off_c, 0, 68, 64
2, 78496, Note_on_c, 0, 59, 47
2, 78516, Note_off_c, 0, 63, 64
2, 78632, Note_on_c, 0, 64, 37
2, 78674, Control_c, 0, 64, 0
2, 78678, Note_on_c, 0, 68, 40
2, 78691, Note_off_c, 0, 59, 64
2, 78706, Control_c, 0, 64, 0
2, 78707, Control_c, 0, 64, 0
2, 78723, Control_c, 0, 64, 127
2, 78730, Control_c, 0, 64, 127
2, 78746, Control_c, 0, 64, 127
2, 78755, Note_on_c, 0, 61, 46
2, 78880, Note_on_c, 0, 56, 46
2, 78890, Note_off_c, 0, 61, 64
2, 79078, Note_on_c, 0, 66, 50
2, 79088, Note_on_c, 0, 58, 46
2, 79091, Note_off_c, 0, 68, 64
2, 79094, Control_c, 0, 64, 0
2, 79108, Note_off_c, 0, 56, 64
2, 79108, Control_c, 0, 64, 127
2, 79214, Control_c, 0, 64, 0
2, 79223, Note_on_c, 0, 59, 49
2, 79234, Note_off_c, 0, 58, 64
2, 79247, Control_c, 0, 64, 0
2, 79248, Note_on_c, 0, 61, 50
2, 79252, Note_off_c, 0, 66, 64
2, 79263, Control_c, 0, 64, 127
2, 79267, Note_off_c, 0, 59, 64
2, 79286, Control_c, 0, 64, 127
2, 79288, Note_on_c, 0, 59, 49
2, 79290, Note_on_c, 0, 66, 42
2, 79290, Note_on_c, 0, 63, 42
2, 79297, Note_off_c, 0, 64, 64
2, 79301, Control_c, 0, 64, 0
2, 79304, Note_off_c, 0, 61, 64
2, 79341, Control_c, 0, 64, 127
2, 79410, Note_on_c, 0, 58, 51
2, 79416, Note_off_c, 0, 59, 64
2, 79428, Note_off_c, 0, 66, 64
2, 79446, Note_on_c, 0, 66, 48
2, 79477, Note_off_c, 0, 66, 64
2, 79494, Control_c, 0, 64, 0
2, 79508, Note_on_c, 0, 59, 51
2, 79510, Note_on_c, 0, 66, 42
2, 79525, Note_off_c, 0, 58, 64
2, 79530, Control_c, 0, 64, 127
2, 79634, Control_c, 0, 64, 0
2, 79648, Control_c, 0, 64, 127
2, 79691, Note_off_c, 0, 66, 64
2, 79708, Note_on_c, 0, 66, 33
2, 79708, Note_on_c, 0, 61, 55
2, 79717, Control_c, 0, 64, 0
2, 79735, Note_off_c, 0, 59, 64
2, 79765, Control_c, 0, 64, 127
2, 79841, Control_c, 0, 64, 0
2, 79881, Control_c, 0, 64, 127
2, 79924, Note_off_c, 0, 66, 64
2, 79928, Note_on_c, 0, 62, 51
2, 79935, Note_on_c, 0, 66, 44
2, 79948, Note_off_c, 0, 61, 64
2, 79948, Note_off_c, 0, 63, 64
2, 79955, Control_c, 0, 64, 0
2, 79992, Control_c, 0, 64, 127
2, 80034, Control_c, 0, 64, 0
2, 80037, Note_on_c, 0, 59, 50
2, 80070, Control_c, 0, 64, 127
2, 80077, Note_off_c, 0, 66, 64
2, 80091, Note_on_c, 0, 66, 63
2, 80138, Note_off_c, 0, 66, 64
2, 80146, Control_c, 0, 64, 0
2, 80153, Note_on_c, 0, 54, 51
2, 80154, Note_on_c, 0, 66, 59
2, 80175, Note_off_c, 0, 59, 64
2, 80181, Control_c, 0, 64, 127
2, 80257, Control_c, 0, 64, 0
2, 80305, Control_c, 0, 64, 127
2, 80369, Note_on_c, 0, 56, 54
2, 80372, Note_on_c, 0, 64, 51
2, 80385, Note_off_c, 0, 66, 64
2, 80386, Control_c, 0, 64, 0
2, 80396, Note_off_c, 0, 54, 64
2, 80417, Control_c, 0, 64, 127
2, 80495, Control_c, 0, 64, 0
2, 80508, Note_on_c, 0, 57, 48
2, 80521, Note_off_c, 0, 56, 64
2, 80532, Control_c, 0, 64, 127
2, 80537, Note_on_c, 0, 59, 54
2, 80552, Note_off_c, 0, 57, 64
2, 80566, Note_off_c, 0, 64, 64
2, 80578, Note_on_c, 0, 61, 31
2, 80582, Note_on_c, 0, 64, 50
2, 80582, Note_on_c, 0, 57, 51
2, 80584, Control_c, 0, 64, 0
2, 80591, Note_off_c, 0, 62, 64
2, 80598, Note_off_c, 0, 59, 64
2, 80614, Control_c, 0, 64, 127
2, 80682, Note_on_c, 0, 56, 57
2, 80686, Control_c, 0, 64, 0
2, 80698, Note_off_c, 0, 57, 64
2, 80721, Control_c, 0, 64, 127
2, 80728, Note_off_c, 0, 64, 64
2, 80738, Note_on_c, 0, 64, 48
2, 80779, Control_c, 0, 64, 0
2, 80781, Note_off_c, 0, 64, 64
2, 80794, Note_on_c, 0, 64, 51
2, 80798, Note_on_c, 0, 57, 58
2, 80806, Note_off_c, 0, 56, 64
2, 80816, Control_c, 0, 64, 127
2, 80926, Control_c, 0, 64, 0
2, 80957, Control_c, 0, 64, 127
2, 80994, Note_off_c, 0, 64, 64
2, 80999, Control_c, 0, 64, 0
2, 81006, Note_on_c, 0, 64, 49
2, 81009, Note_on_c, 0, 59, 49
2, 81014, Note_off_c, 0, 57, 64
2, 81034, Control_c, 0, 64, 127
2, 81124, Control_c, 0, 64, 0
2, 81154, Control_c, 0, 64, 127
2, 81188, Note_off_c, 0, 64, 64
2, 81188, Note_off_c, 0, 61, 64
2, 81210, Note_on_c, 0, 60, 54
2, 81216, Note_off_c, 0, 59, 64
2, 81217, Note_on_c, 0, 64, 43
2, 81230, Control_c, 0, 64, 0
2, 81242, Control_c, 0, 64, 127
2, 81319, Control_c, 0, 64, 0
2, 81323, Note_on_c, 0, 57, 51
2, 81349, Note_off_c, 0, 60, 64
2, 81356, Control_c, 0, 64, 127
2, 81369, Note_off_c, 0, 64, 64
2, 81406, Note_on_c, 0, 64, 39
2, 81442, Control_c, 0, 64, 0
2, 81451, Note_on_c, 0, 52, 51
2, 81452, Note_off_c, 0, 64, 64
2, 81454, Control_c, 0, 64, 127
2, 81463, Note_on_c, 0, 64, 47
2, 81470, Note_off_c, 0, 57, 64
2, 81539, Control_c, 0, 64, 0
2, 81574, Control_c, 0, 64, 127
2, 81687, Note_on_c, 0, 54, 54
2, 81714, Note_off_c, 0, 52, 64
2, 81770, Control_c, 0, 64, 0
2, 81782, Control_c, 0, 64, 127
2, 81837, Note_on_c, 0, 62, 52
2, 81847, Note_off_c, 0, 64, 64
2, 81982, Control_c, 0, 64, 0
2, 81994, Control_c, 0, 64, 127
2, 82018, Note_on_c, 0, 59, 49
2, 82020, Note_on_c, 0, 55, 50
2, 82026, Note_off_c, 0, 54, 64
2, 82058, Control_c, 0, 64, 0
2, 82089, Control_c, 0, 64, 127
2, 82226, Note_on_c, 0, 64, 46
2, 82241, Note_off_c, 0, 62, 64
2, 82282, Note_on_c, 0, 50, 39
2, 82282, Note_on_c, 0, 43, 47
2, 82284, Note_on_c, 0, 66, 54
2, 82298, Control_c, 0, 64, 0
2, 82312, Note_off_c, 0, 64, 64
2, 82337, Control_c, 0, 64, 127
2, 82484, Note_on_c, 0, 67, 55
2, 82508, Note_off_c, 0, 66, 64
2, 82598, Control_c, 0, 64, 0
2, 82629, Control_c, 0, 64, 127
2, 82690, Note_on_c, 0, 64, 58
2, 82691, Note_on_c, 0, 60, 51
2, 82692, Note_on_c, 0, 57, 52
2, 82702, Control_c, 0, 64, 0
2, 82709, Note_off_c, 0, 59, 64
2, 82711, Note_off_c, 0, 55, 64
2, 82715, Note_off_c, 0, 43, 64
2, 82715, Note_off_c, 0, 50, 64
2, 82715, Note_off_c, 0, 67, 64
2, 82741, Control_c, 0, 64, 127
2, 82822, Note_on_c, 0, 66, 54
2, 82835, Note_off_c, 0, 64, 64
2, 82838, Control_c, 0, 64, 0
2, 82877, Control_c, 0, 64, 127
2, 82880, Note_on_c, 0, 67, 67
2, 82888, Note_on_c, 0, 50, 44
2, 82888, Note_on_c, 0, 43, 41
2, 82893, Note_off_c, 0, 66, 64
2, 82907, Control_c, 0, 64, 0
2, 82955, Control_c, 0, 64, 127
2, 83078, Note_on_c, 0, 69, 56
2, 83078, Note_on_c, 0, 66, 55
2, 83091, Note_off_c, 0, 67, 64
2, 83242, Control_c, 0, 64, 0
2, 83281, Control_c, 0, 64, 127
2, 83287, Note_on_c, 0, 71, 58
2, 83290, Note_on_c, 0, 67, 50
2, 83291, Note_on_c, 0, 59, 55
2, 83304, Note_off_c, 0, 66, 64
2, 83304, Note_off_c, 0, 69, 64
2, 83305, Control_c, 0, 64, 0
2, 83307, Note_off_c, 0, 60, 64
2, 83308, Note_off_c, 0, 57, 64
2, 83324, Control_c, 0, 64, 127
2, 83384, Note_off_c, 0, 43, 64
2, 83384, Note_off_c, 0, 50, 64
2, 83418, Note_on_c, 0, 74, 63
2, 83433, Note_off_c, 0, 71, 64
2, 83447, Control_c, 0, 64, 0
2, 83450, Note_off_c, 0, 74, 64
2, 83473, Note_on_c, 0, 50, 56
2, 83477, Note_on_c, 0, 43, 49
2, 83480, Note_on_c, 0, 74, 71
2, 83495, Control_c, 0, 64, 127
2, 83500, Control_c, 0, 64, 0
2, 83530, Control_c, 0, 64, 127
2, 83692, Note_on_c, 0, 62, 56
2, 83697, Note_off_c, 0, 67, 64
2, 83772, Note_off_c, 0, 59, 64
2, 83845, Control_c, 0, 64, 0
2, 83864, Control_c, 0, 64, 127
2, 83882, Note_on_c, 0, 64, 41
2, 83887, Note_on_c, 0, 60, 63
2, 83894, Note_off_c, 0, 74, 64
2, 83903, Note_off_c, 0, 62, 64
2, 83948, Note_off_c, 0, 50, 64
2, 83952, Note_off_c, 0, 43, 64
2, 83991, Note_on_c, 0, 57, 64
2, 84011, Note_off_c, 0, 64, 64
2, 84037, Note_on_c, 0, 64, 42
2, 84040, Control_c, 0, 64, 0
2, 84059, Note_off_c, 0, 60, 64
2, 84070, Control_c, 0, 64, 127
2, 84073, Note_off_c, 0, 64, 64
2, 84094, Note_on_c, 0, 64, 40
2, 84099, Control_c, 0, 64, 0
2, 84105, Note_on_c, 0, 52, 65
2, 84142, Control_c, 0, 64, 127
2, 84145, Note_off_c, 0, 57, 64
2, 84288, Note_on_c, 0, 54, 62
2, 84315, Note_off_c, 0, 52, 64
2, 84318, Control_c, 0, 64, 0
2, 84338, Control_c, 0, 64, 127
2, 84393, Note_on_c, 0, 62, 49
2, 84420, Note_off_c, 0, 64, 64
2, 84518, Note_on_c, 0, 59, 50
2, 84520, Note_on_c, 0, 55, 46
2, 84530, Note_off_c, 0, 54, 64
2, 84537, Control_c, 0, 64, 0
2, 84559, Control_c, 0, 64, 127
2, 84639, Control_c, 0, 64, 0
2, 84671, Note_on_c, 0, 64, 44
2, 84682, Control_c, 0, 64, 127
2, 84707, Note_on_c, 0, 66, 52
2, 84710, Note_on_c, 0, 50, 34
2, 84710, Note_on_c, 0, 43, 42
2, 84714, Note_off_c, 0, 62, 64
2, 84719, Control_c, 0, 64, 0
2, 84733, Note_off_c, 0, 64, 64
2, 84763, Control_c, 0, 64, 127
2, 84858, Control_c, 0, 64, 0
2, 84878, Control_c, 0, 64, 127
2, 84900, Note_on_c, 0, 67, 56
2, 84920, Control_c, 0, 64, 0
2, 84924, Note_off_c, 0, 66, 64
2, 84950, Control_c, 0, 64, 127
2, 85077, Control_c, 0, 64, 0
2, 85086, Note_on_c, 0, 64, 55
2, 85086, Note_on_c, 0, 60, 48
2, 85086, Note_on_c, 0, 57, 49
2, 85090, Note_off_c, 0, 43, 64
2, 85096, Note_off_c, 0, 50, 64
2, 85099, Control_c, 0, 64, 127
2, 85113, Note_off_c, 0, 59, 64
2, 85115, Note_off_c, 0, 55, 64
2, 85116, Note_off_c, 0, 67, 64
2, 85238, Note_on_c, 0, 66, 49
2, 85254, Note_off_c, 0, 64, 64
2, 85259, Control_c, 0, 64, 0
2, 85290, Note_on_c, 0, 43, 23
2, 85293, Note_on_c, 0, 67, 62
2, 85295, Note_on_c, 0, 50, 39
2, 85298, Note_off_c, 0, 66, 64
2, 85303, Control_c, 0, 64, 127
2, 85457, Control_c, 0, 64, 0
2, 85460, Control_c, 0, 64, 0
2, 85487, Note_on_c, 0, 69, 59
2, 85490, Control_c, 0, 64, 127
2, 85490, Note_on_c, 0, 66, 46
2, 85506, Note_off_c, 0, 67, 64
2, 85510, Control_c, 0, 64, 127
2, 85674, Note_on_c, 0, 65, 58
2, 85674, Note_on_c, 0, 59, 54
2, 85682, Note_on_c, 0, 71, 57
2, 85721, Note_off_c, 0, 57, 64
2, 85721, Note_off_c, 0, 60, 64
2, 85728, Note_off_c, 0, 69, 64
2, 85730, Control_c, 0, 64, 0
2, 85737, Note_off_c, 0, 66, 64
2, 85768, Control_c, 0, 64, 127
2, 85853, Note_on_c, 0, 73, 54
2, 85880, Note_off_c, 0, 43, 64
2, 85885, Note_off_c, 0, 50, 64
2, 85898, Note_off_c, 0, 59, 64
2, 85907, Note_on_c, 0, 74, 69
2, 85910, Note_on_c, 0, 43, 56
2, 85921, Control_c, 0, 64, 0
2, 85941, Note_off_c, 0, 73, 64
2, 85944, Control_c, 0, 64, 127
2, 85997, Control_c, 0, 64, 0
2, 86050, Control_c, 0, 64, 127
2, 86123, Note_on_c, 0, 75, 64
2, 86125, Note_on_c, 0, 66, 56
2, 86128, Note_on_c, 0, 42, 55
2, 86130, Note_off_c, 0, 65, 64
2, 86139, Control_c, 0, 64, 0
2, 86141, Note_off_c, 0, 74, 64
2, 86146, Note_off_c, 0, 43, 64
2, 86150, Control_c, 0, 64, 127
2, 86270, Control_c, 0, 64, 0
2, 86308, Control_c, 0, 64, 127
2, 86346, Note_on_c, 0, 64, 58
2, 86347, Note_on_c, 0, 76, 66
2, 86350, Note_on_c, 0, 68, 46
2, 86350, Note_on_c, 0, 30, 71
2, 86357, Control_c, 0, 64, 0
2, 86367, Control_c, 0, 64, 127
2, 86374, Note_off_c, 0, 66, 64
2, 86392, Note_off_c, 0, 75, 64
2, 86461, Control_c, 0, 64, 0
2, 86484, Control_c, 0, 64, 127
2, 86494, Note_off_c, 0, 64, 64
2, 86506, Note_on_c, 0, 73, 64
2, 86528, Note_off_c, 0, 76, 64
2, 86532, Note_off_c, 0, 68, 64
2, 86538, Note_off_c, 0, 30, 64
2, 86540, Note_off_c, 0, 42, 64
2, 86548, Note_on_c, 0, 54, 44
2, 86551, Note_on_c, 0, 68, 77
2, 86554, Note_on_c, 0, 64, 73
2, 86563, Control_c, 0, 64, 0
2, 86577, Control_c, 0, 64, 127
2, 86592, Note_off_c, 0, 73, 64
2, 86679, Control_c, 0, 64, 0
2, 86690, Control_c, 0, 64, 127
2, 86724, Note_off_c, 0, 71, 64
2, 86743, Note_on_c, 0, 70, 59
2, 86760, Note_off_c, 0, 68, 64
2, 86802, Note_off_c, 0, 64, 64
2, 86822, Note_off_c, 0, 54, 64
2, 86854, Note_on_c, 0, 54, 71
2, 86882, Note_off_c, 0, 70, 64
2, 86897, Control_c, 0, 64, 0
2, 86907, Control_c, 0, 64, 127
2, 86928, Note_off_c, 0, 54, 64
2, 86961, Control_c, 0, 64, 0
2, 86969, Note_on_c, 0, 54, 69
2, 86972, Note_on_c, 0, 66, 64
2, 86976, Note_on_c, 0, 63, 59
2, 86988, Control_c, 0, 64, 127
2, 87103, Control_c, 0, 64, 0
2, 87117, Control_c, 0, 64, 127
2, 87125, Note_off_c, 0, 66, 64
2, 87127, Note_on_c, 0, 68, 62
2, 87129, Note_off_c, 0, 63, 64
2, 87132, Note_on_c, 0, 66, 85
2, 87165, Note_off_c, 0, 66, 64
2, 87171, Control_c, 0, 64, 0
2, 87180, Note_on_c, 0, 70, 70
2, 87182, Note_on_c, 0, 63, 46
2, 87183, Note_off_c, 0, 68, 64
2, 87184, Note_on_c, 0, 66, 82
2, 87198, Control_c, 0, 64, 127
2, 87398, Note_off_c, 0, 54, 64
2, 87414, Note_on_c, 0, 71, 64
2, 87415, Note_on_c, 0, 54, 66
2, 87423, Note_off_c, 0, 70, 64
2, 87439, Control_c, 0, 64, 0
2, 87451, Control_c, 0, 64, 127
2, 87501, Control_c, 0, 64, 0
2, 87528, Control_c, 0, 64, 127
2, 87629, Note_on_c, 0, 68, 69
2, 87633, Note_on_c, 0, 64, 69
2, 87639, Note_off_c, 0, 71, 64
2, 87655, Note_off_c, 0, 63, 64
2, 87711, Control_c, 0, 64, 0
2, 87715, Note_off_c, 0, 66, 64
2, 87738, Control_c, 0, 64, 127
2, 87781, Note_on_c, 0, 70, 58
2, 87782, Note_off_c, 0, 68, 64
2, 87782, Note_on_c, 0, 66, 89
2, 87786, Note_off_c, 0, 64, 64
2, 87823, Note_off_c, 0, 66, 64
2, 87838, Note_on_c, 0, 68, 72
2, 87838, Note_on_c, 0, 66, 85
2, 87839, Control_c, 0, 64, 0
2, 87840, Note_on_c, 0, 71, 67
2, 87840, Note_on_c, 0, 64, 66
2, 87847, Control_c, 0, 64, 0
2, 87853, Control_c, 0, 64, 127
2, 87861, Control_c, 0, 64, 127
2, 87872, Note_off_c, 0, 70, 64
2, 87979, Control_c, 0, 64, 0
2, 87991, Control_c, 0, 64, 127
2, 88060, Note_off_c, 0, 54, 64
2, 88074, Note_on_c, 0, 73, 74
2, 88074, Note_on_c, 0, 70, 67
2, 88076, Note_on_c, 0, 64, 64
2, 88082, Note_on_c, 0, 54, 71
2, 88095, Note_off_c, 0, 68, 64
2, 88097, Note_off_c, 0, 71, 64
2, 88099, Control_c, 0, 64, 0
2, 88111, Control_c, 0, 64, 127
2, 88155, Note_off_c, 0, 70, 64
2, 88157, Note_off_c, 0, 73, 64
2, 88319, Note_on_c, 0, 75, 71
2, 88323, Note_on_c, 0, 63, 69
2, 88325, Note_on_c, 0, 71, 69
2, 88325, Note_on_c, 0, 47, 69
2, 88332, Control_c, 0, 64, 0
2, 88337, Note_off_c, 0, 66, 64
2, 88338, Note_off_c, 0, 54, 64
2, 88352, Control_c, 0, 64, 127
2, 88354, Note_off_c, 0, 64, 64
2, 88354, Note_off_c, 0, 64, 64
2, 88379, Control_c, 0, 64, 0
2, 88387, Control_c, 0, 64, 0
2, 88393, Control_c, 0, 64, 127
2, 88401, Control_c, 0, 64, 127
2, 88404, Note_off_c, 0, 75, 64
2, 88408, Note_off_c, 0, 63, 64
2, 88410, Note_off_c, 0, 47, 64
2, 88410, Note_off_c, 0, 71, 64
2, 88522, Note_on_c, 0, 66, 71
2, 88526, Note_on_c, 0, 71, 69
2, 88526, Note_on_c, 0, 63, 83
2, 88528, Note_on_c, 0, 78, 67
2, 88561, Note_off_c, 0, 66, 64
2, 88565, Note_off_c, 0, 63, 64
2, 88565, Note_off_c, 0, 71, 64
2, 88567, Note_off_c, 0, 78, 64
2, 88590, Note_on_c, 0, 78, 73
2, 88590, Note_on_c, 0, 71, 71
2, 88590, Note_on_c, 0, 66, 69
2, 88593, Note_on_c, 0, 63, 78
2, 88595, Control_c, 0, 64, 0
2, 88625, Control_c, 0, 64, 127
2, 88639, Control_c, 0, 64, 0
2, 88651, Control_c, 0, 64, 127
2, 88807, Note_off_c, 0, 71, 64
2, 88820, Note_on_c, 0, 80, 67
2, 88822, Note_on_c, 0, 68, 67
2, 88822, Note_on_c, 0, 64, 63
2, 88827, Note_on_c, 0, 71, 67
2, 88830, Note_off_c, 0, 66, 64
2, 88830, Note_off_c, 0, 78, 64
2, 88833, Note_off_c, 0, 63, 64
2, 88837, Control_c, 0, 64, 0
2, 88848, Control_c, 0, 64, 127
2, 88872, Control_c, 0, 64, 0
2, 88892, Control_c, 0, 64, 127
2, 89038, Note_off_c, 0, 71, 64
2, 89043, Note_on_c, 0, 66, 59
2, 89043, Note_on_c, 0, 63, 62
2, 89046, Note_on_c, 0, 78, 64
2, 89049, Note_on_c, 0, 71, 62
2, 89056, Note_off_c, 0, 80, 64
2, 89058, Note_off_c, 0, 64, 64
2, 89058, Note_off_c, 0, 68, 64
2, 89135, Control_c, 0, 64, 0
2, 89165, Control_c, 0, 64, 127
2, 89196, Note_off_c, 0, 63, 64
2, 89196, Note_off_c, 0, 66, 64
2, 89199, Note_off_c, 0, 78, 64
2, 89202, Note_off_c, 0, 71, 64
2, 89218, Note_on_c, 0, 68, 56
2, 89218, Note_on_c, 0, 59, 58
2, 89222, Note_on_c, 0, 75, 58
2, 89222, Note_on_c, 0, 63, 56
2, 89248, Note_off_c, 0, 68, 64
2, 89256, Note_off_c, 0, 63, 64
2, 89270, Note_on_c, 0, 63, 63
2, 89270, Note_on_c, 0, 56, 63
2, 89273, Note_on_c, 0, 71, 56
2, 89273, Note_on_c, 0, 68, 52
2, 89281, Note_off_c, 0, 59, 64
2, 89282, Control_c, 0, 64, 0
2, 89285, Note_off_c, 0, 75, 64
2, 89322, Control_c, 0, 64, 127
2, 89377, Control_c, 0, 64, 0
2, 89388, Control_c, 0, 64, 127
2, 89490, Note_off_c, 0, 68, 64
2, 89502, Note_on_c, 0, 68, 65
2, 89502, Note_on_c, 0, 64, 65
2, 89503, Note_on_c, 0, 76, 60
2, 89504, Note_on_c, 0, 61, 63
2, 89513, Note_off_c, 0, 56, 64
2, 89513, Note_off_c, 0, 63, 64
2, 89516, Note_off_c, 0, 71, 64
2, 89516, Control_c, 0, 64, 0
2, 89526, Control_c, 0, 64, 127
2, 89713, Note_off_c, 0, 68, 64
2, 89722, Note_on_c, 0, 75, 63
2, 89722, Note_on_c, 0, 59, 62
2, 89725, Note_on_c, 0, 63, 69
2, 89729, Note_on_c, 0, 68, 59
2, 89733, Note_off_c, 0, 64, 64
2, 89734, Note_off_c, 0, 76, 64
2, 89735, Note_off_c, 0, 61, 64
2, 89822, Control_c, 0, 64, 0
2, 89836, Note_off_c, 0, 59, 64
2, 89836, Note_off_c, 0, 75, 64
2, 89839, Note_off_c, 0, 63, 64
2, 89843, Note_off_c, 0, 68, 64
2, 89862, Control_c, 0, 64, 127
2, 89874, Note_on_c, 0, 68, 65
2, 89874, Note_on_c, 0, 63, 65
2, 89876, Note_on_c, 0, 71, 57
2, 89878, Note_on_c, 0, 56, 55
2, 89922, Note_off_c, 0, 68, 64
2, 89930, Note_on_c, 0, 64, 67
2, 89930, Note_on_c, 0, 59, 64
2, 89930, Note_on_c, 0, 52, 55
2, 89932, Note_on_c, 0, 68, 69
2, 89949, Note_off_c, 0, 63, 64
2, 89951, Note_off_c, 0, 71, 64
2, 89953, Note_off_c, 0, 56, 64
2, 89966, Control_c, 0, 64, 0
2, 90005, Control_c, 0, 64, 127
2, 90056, Control_c, 0, 64, 0
2, 90066, Control_c, 0, 64, 127
2, 90176, Note_on_c, 0, 71, 77
2, 90176, Note_on_c, 0, 63, 73
2, 90180, Note_on_c, 0, 54, 54
2, 90183, Note_off_c, 0, 52, 64
2, 90183, Note_off_c, 0, 64, 64
2, 90184, Note_on_c, 0, 47, 55
2, 90185, Note_off_c, 0, 68, 64
2, 90191, Control_c, 0, 64, 0
2, 90221, Control_c, 0, 64, 127
2, 90406, Note_on_c, 0, 64, 69
2, 90406, Note_on_c, 0, 58, 59
2, 90409, Note_on_c, 0, 73, 71
2, 90411, Note_on_c, 0, 66, 71
2, 90434, Note_off_c, 0, 59, 64
2, 90434, Note_off_c, 0, 63, 64
2, 90434, Note_off_c, 0, 71, 64
2, 90434, Control_c, 0, 64, 0
2, 90438, Note_off_c, 0, 54, 64
2, 90442, Note_off_c, 0, 47, 64
2, 90463, Control_c, 0, 64, 127
2, 90506, Control_c, 0, 64, 0
2, 90545, Control_c, 0, 64, 127
2, 90622, Note_on_c, 0, 42, 63
2, 90627, Note_off_c, 0, 58, 64
2, 90627, Note_off_c, 0, 64, 64
2, 90629, Note_on_c, 0, 75, 56
2, 90630, Note_off_c, 0, 73, 64
2, 90632, Note_off_c, 0, 66, 64
2, 90674, Note_on_c, 0, 66, 71
2, 90678, Note_on_c, 0, 64, 66
2, 90678, Note_on_c, 0, 58, 55
2, 90681, Note_on_c, 0, 73, 65
2, 90700, Note_off_c, 0, 75, 64
2, 90707, Control_c, 0, 64, 0
2, 90720, Note_off_c, 0, 42, 64
2, 90731, Control_c, 0, 64, 0
2, 90746, Control_c, 0, 64, 127
2, 90761, Control_c, 0, 64, 127
2, 90974, Control_c, 0, 64, 0
2, 91003, Control_c, 0, 64, 127
2, 91044, Note_on_c, 0, 71, 47
2, 91046, Note_off_c, 0, 66, 64
2, 91046, Note_on_c, 0, 63, 44
2, 91046, Note_on_c, 0, 59, 36
2, 91050, Note_off_c, 0, 58, 64
2, 91050, Note_off_c, 0, 64, 64
2, 91052, Note_on_c, 0, 47, 32
2, 91053, Note_off_c, 0, 73, 64
2, 91135, Note_off_c, 0, 71, 64
2, 91137, Note_off_c, 0, 59, 64
2, 91137, Note_off_c, 0, 63, 64
2, 91143, Note_off_c, 0, 47, 64
2, 91162, Note_on_c, 0, 71, 57
2, 91162, Note_on_c, 0, 63, 55
2, 91166, Note_on_c, 0, 47, 35
2, 91168, Note_on_c, 0, 59, 43
2, 91175, Control_c, 0, 64, 0
2, 91188, Control_c, 0, 64, 127
2, 91247, Control_c, 0, 64, 0
2, 91286, Control_c, 0, 64, 127
2, 91326, Note_off_c, 0, 63, 64
2, 91326, Note_off_c, 0, 71, 64
2, 91330, Note_off_c, 0, 47, 64
2, 91332, Note_off_c, 0, 59, 64
2, 91355, Note_on_c, 0, 68, 71
2, 91393, Note_off_c, 0, 68, 64
2, 91415, Note_on_c, 0, 68, 71
2, 91415, Note_on_c, 0, 64, 59
2, 91418, Note_on_c, 0, 59, 59
2, 91424, Note_on_c, 0, 52, 58
2, 91431, Control_c, 0, 64, 0
2, 91453, Control_c, 0, 64, 127
2, 91634, Note_on_c, 0, 61, 55
2, 91637, Note_on_c, 0, 70, 67
2, 91650, Note_off_c, 0, 68, 64
2, 91653, Note_off_c, 0, 59, 64
2, 91715, Control_c, 0, 64, 0
2, 91728, Control_c, 0, 64, 127
2, 91741, Note_on_c, 0, 59, 59
2, 91743, Note_on_c, 0, 68, 77
2, 91755, Note_off_c, 0, 61, 64
2, 91758, Note_off_c, 0, 70, 64
2, 91862, Note_on_c, 0, 66, 79
2, 91862, Note_on_c, 0, 58, 65
2, 91875, Note_off_c, 0, 52, 64
2, 91876, Control_c, 0, 64, 0
2, 91883, Note_off_c, 0, 68, 64
2, 91891, Note_off_c, 0, 59, 64
2, 91900, Control_c, 0, 64, 127
2, 91949, Note_off_c, 0, 64, 64
2, 91971, Control_c, 0, 64, 0
2, 91993, Control_c, 0, 64, 127
2, 92027, Note_on_c, 0, 42, 63
2, 92033, Note_on_c, 0, 73, 73
2, 92068, Note_off_c, 0, 58, 64
2, 92068, Note_off_c, 0, 66, 64
2, 92071, Note_off_c, 0, 73, 64
2, 92090, Note_on_c, 0, 64, 66
2, 92090, Note_on_c, 0, 58, 69
2, 92092, Note_on_c, 0, 73, 73
2, 92092, Note_on_c, 0, 66, 78
2, 92102, Control_c, 0, 64, 0
2, 92112, Note_off_c, 0, 42, 64
2, 92141, Control_c, 0, 64, 127
2, 92330, Note_off_c, 0, 64, 64
2, 92332, Note_off_c, 0, 66, 64
2, 92344, Note_on_c, 0, 78, 73
2, 92346, Note_on_c, 0, 42, 57
2, 92356, Note_off_c, 0, 73, 64
2, 92416, Control_c, 0, 64, 0
2, 92439, Note_off_c, 0, 58, 64
2, 92440, Control_c, 0, 64, 127
2, 92594, Note_on_c, 0, 54, 63
2, 92602, Note_on_c, 0, 77, 71
2, 92602, Note_on_c, 0, 64, 62
2, 92602, Note_on_c, 0, 61, 59
2, 92642, Control_c, 0, 64, 0
2, 92645, Control_c, 0, 64, 0
2, 92649, Note_off_c, 0, 42, 64
2, 92649, Note_off_c, 0, 78, 64
2, 92681, Control_c, 0, 64, 127
2, 92689, Control_c, 0, 64, 127
2, 92750, Note_on_c, 0, 78, 73
2, 92761, Note_off_c, 0, 77, 64
2, 92795, Note_off_c, 0, 78, 64
2, 92841, Note_on_c, 0, 78, 69
2, 92870, Note_on_c, 0, 82, 78
2, 92880, Note_off_c, 0, 78, 64
2, 92895, Note_on_c, 0, 80, 78
2, 92913, Control_c, 0, 64, 0
2, 92919, Note_off_c, 0, 82, 64
2, 92970, Control_c, 0, 64, 127
2, 93122, Control_c, 0, 64, 0
2, 93126, Note_on_c, 0, 78, 69
2, 93136, Note_off_c, 0, 80, 64
2, 93168, Control_c, 0, 64, 127
2, 93185, Control_c, 0, 64, 0
2, 93229, Control_c, 0, 64, 127
2, 93355, Note_off_c, 0, 61, 64
2, 93357, Note_off_c, 0, 54, 64
2, 93357, Note_off_c, 0, 64, 64
2, 93380, Note_on_c, 0, 83, 62
2, 93387, Note_on_c, 0, 75, 62
2, 93400, Note_off_c, 0, 78, 64
2, 93453, Control_c, 0, 64, 0
2, 93501, Note_on_c, 0, 78, 52
2, 93504, Note_on_c, 0, 69, 58
2, 93510, Control_c, 0, 64, 127
2, 93528, Note_off_c, 0, 83, 64
2, 93535, Note_off_c, 0, 75, 64
2, 93607, Note_on_c, 0, 42, 52
2, 93607, Note_on_c, 0, 35, 62
2, 93621, Note_on_c, 0, 75, 66
2, 93623, Note_on_c, 0, 66, 74
2, 93624, Note_off_c, 0, 69, 64
2, 93642, Note_off_c, 0, 78, 64
2, 93646, Control_c, 0, 64, 0
2, 93662, Control_c, 0, 64, 0
2, 93677, Control_c, 0, 64, 127
2, 93708, Control_c, 0, 64, 127
2, 93832, Note_on_c, 0, 73, 59
2, 93833, Control_c, 0, 64, 0
2, 93841, Note_on_c, 0, 64, 62
2, 93850, Note_off_c, 0, 75, 64
2, 93851, Control_c, 0, 64, 127
2, 93852, Note_off_c, 0, 66, 64
2, 94010, Note_on_c, 0, 71, 67
2, 94022, Note_off_c, 0, 73, 64
2, 94031, Note_off_c, 0, 64, 64
2, 94037, Note_on_c, 0, 73, 47
2, 94052, Note_off_c, 0, 71, 64
2, 94067, Note_on_c, 0, 63, 77
2, 94068, Note_on_c, 0, 71, 67
2, 94077, Control_c, 0, 64, 0
2, 94086, Note_off_c, 0, 73, 64
2, 94123, Control_c, 0, 64, 127
2, 94164, Note_off_c, 0, 35, 64
2, 94182, Note_off_c, 0, 42, 64
2, 94186, Control_c, 0, 64, 0
2, 94196, Note_on_c, 0, 69, 39
2, 94198, Note_on_c, 0, 70, 62
2, 94210, Note_off_c, 0, 63, 64
2, 94211, Note_off_c, 0, 71, 64
2, 94217, Control_c, 0, 64, 127
2, 94292, Note_on_c, 0, 59, 58
2, 94293, Note_on_c, 0, 71, 69
2, 94296, Note_on_c, 0, 63, 69
2, 94297, Note_on_c, 0, 47, 56
2, 94303, Control_c, 0, 64, 0
2, 94308, Note_off_c, 0, 69, 64
2, 94310, Note_off_c, 0, 70, 64
2, 94349, Control_c, 0, 64, 127
2, 94373, Control_c, 0, 64, 0
2, 94391, Control_c, 0, 64, 127
2, 94504, Note_on_c, 0, 69, 78
2, 94506, Note_on_c, 0, 78, 62
2, 94532, Note_off_c, 0, 71, 64
2, 94535, Note_off_c, 0, 63, 64
2, 94617, Control_c, 0, 64, 0
2, 94663, Control_c, 0, 64, 127
2, 94712, Control_c, 0, 64, 0
2, 94722, Note_on_c, 0, 77, 64
2, 94726, Note_on_c, 0, 68, 64
2, 94728, Note_off_c, 0, 69, 64
2, 94730, Note_off_c, 0, 78, 64
2, 94764, Control_c, 0, 64, 127
2, 94770, Note_off_c, 0, 47, 64
2, 94774, Note_off_c, 0, 59, 64
2, 94830, Note_on_c, 0, 74, 58
2, 94837, Note_on_c, 0, 65, 58
2, 94843, Control_c, 0, 64, 0
2, 94852, Note_off_c, 0, 77, 64
2, 94856, Note_off_c, 0, 68, 64
2, 94889, Control_c, 0, 64, 127
2, 94945, Note_on_c, 0, 71, 52
2, 94946, Note_on_c, 0, 62, 64
2, 94950, Note_off_c, 0, 74, 64
2, 94952, Note_on_c, 0, 41, 41
2, 94952, Note_on_c, 0, 35, 72
2, 94956, Control_c, 0, 64, 0
2, 94957, Note_off_c, 0, 65, 64
2, 94989, Control_c, 0, 64, 127
2, 95136, Note_on_c, 0, 50, 47
2, 95140, Note_on_c, 0, 61, 58
2, 95142, Note_on_c, 0, 70, 62
2, 95148, Note_off_c, 0, 71, 64
2, 95149, Note_off_c, 0, 62, 64
2, 95153, Control_c, 0, 64, 127
2, 95251, Note_off_c, 0, 50, 64
2, 95252, Control_c, 0, 64, 0
2, 95252, Note_on_c, 0, 59, 62
2, 95255, Note_on_c, 0, 68, 46
2, 95262, Note_off_c, 0, 61, 64
2, 95264, Note_off_c, 0, 70, 64
2, 95304, Control_c, 0, 64, 127
2, 95304, Note_on_c, 0, 66, 77
2, 95319, Note_off_c, 0, 68, 64
2, 95322, Note_off_c, 0, 59, 64
2, 95324, Note_off_c, 0, 41, 64
2, 95330, Note_off_c, 0, 35, 64
2, 95332, Note_on_c, 0, 68, 62
2, 95346, Note_off_c, 0, 66, 64
2, 95368, Note_on_c, 0, 58, 64
2, 95373, Note_on_c, 0, 66, 44
2, 95381, Note_off_c, 0, 68, 64
2, 95464, Note_on_c, 0, 64, 58
2, 95467, Note_on_c, 0, 65, 67
2, 95475, Note_off_c, 0, 66, 64
2, 95480, Note_off_c, 0, 58, 64
2, 95496, Control_c, 0, 64, 0
2, 95529, Control_c, 0, 64, 127
2, 95564, Note_on_c, 0, 52, 50
2, 95567, Note_on_c, 0, 66, 55
2, 95567, Note_on_c, 0, 58, 74
2, 95568, Note_on_c, 0, 42, 50
2, 95578, Note_off_c, 0, 64, 64
2, 95581, Note_off_c, 0, 65, 64
2, 95583, Control_c, 0, 64, 0
2, 95626, Control_c, 0, 64, 127
2, 95670, Control_c, 0, 64, 127
2, 95693, Control_c, 0, 64, 127
2, 95764, Note_on_c, 0, 73, 63
2, 95766, Note_on_c, 0, 64, 56
2, 95769, Note_off_c, 0, 52, 64
2, 95769, Note_on_c, 0, 35, 50
2, 95772, Note_off_c, 0, 58, 64
2, 95772, Note_off_c, 0, 66, 64
2, 95773, Note_off_c, 0, 42, 64
2, 95784, Control_c, 0, 64, 0
2, 95806, Control_c, 0, 64, 127
2, 95962, Note_off_c, 0, 35, 64
2, 95969, Note_on_c, 0, 63, 64
2, 95972, Note_on_c, 0, 71, 63
2, 95980, Note_off_c, 0, 64, 64
2, 95990, Note_off_c, 0, 73, 64
2, 96065, Note_on_c, 0, 57, 58
2, 96069, Note_on_c, 0, 66, 58
2, 96097, Note_off_c, 0, 63, 64
2, 96100, Note_off_c, 0, 71, 64
2, 96123, Control_c, 0, 64, 0
2, 96166, Control_c, 0, 64, 127
2, 96168, Note_on_c, 0, 54, 49
2, 96168, Note_on_c, 0, 47, 41
2, 96170, Note_on_c, 0, 63, 77
2, 96170, Note_on_c, 0, 35, 57
2, 96190, Note_off_c, 0, 57, 64
2, 96192, Control_c, 0, 64, 0
2, 96194, Note_off_c, 0, 66, 64
2, 96210, Control_c, 0, 64, 127
2, 96225, Control_c, 0, 64, 127
2, 96324, Control_c, 0, 64, 0
2, 96346, Control_c, 0, 64, 127
2, 96361, Note_off_c, 0, 47, 64
2, 96372, Control_c, 0, 64, 0
2, 96376, Note_on_c, 0, 61, 66
2, 96376, Note_on_c, 0, 56, 64
2, 96376, Note_on_c, 0, 47, 65
2, 96376, Note_on_c, 0, 40, 65
2, 96386, Note_off_c, 0, 35, 64
2, 96389, Note_off_c, 0, 54, 64
2, 96391, Note_off_c, 0, 63, 64
2, 96404, Control_c, 0, 64, 0
2, 96438, Control_c, 0, 64, 127
2, 96579, Note_off_c, 0, 47, 64
2, 96584, Note_on_c, 0, 57, 58
2, 96584, Note_on_c, 0, 42, 65
2, 96588, Note_on_c, 0, 59, 65
2, 96588, Note_on_c, 0, 47, 58
2, 96592, Control_c, 0, 64, 0
2, 96599, Note_off_c, 0, 40, 64
2, 96599, Note_off_c, 0, 56, 64
2, 96599, Note_off_c, 0, 61, 64
2, 96610, Control_c, 0, 64, 0
2, 96653, Control_c, 0, 64, 127
2, 96692, Note_on_c, 0, 63, 59
2, 96709, Note_off_c, 0, 59, 64
2, 96732, Control_c, 0, 64, 0
2, 96765, Control_c, 0, 64, 127
2, 96805, Note_on_c, 0, 66, 64
2, 96808, Note_on_c, 0, 35, 59
2, 96820, Note_off_c, 0, 63, 64
2, 96827, Control_c, 0, 64, 0
2, 96843, Note_off_c, 0, 42, 64
2, 96847, Note_off_c, 0, 47, 64
2, 96867, Control_c, 0, 64, 127
2, 96912, Control_c, 0, 64, 0
2, 96944, Control_c, 0, 64, 0
2, 96978, Control_c, 0, 64, 127
2, 97020, Note_on_c, 0, 68, 62
2, 97039, Note_off_c, 0, 66, 64
2, 97116, Note_on_c, 0, 66, 51
2, 97129, Note_off_c, 0, 68, 64
2, 97132, Control_c, 0, 64, 0
2, 97150, Control_c, 0, 64, 0
2, 97193, Control_c, 0, 64, 127
2, 97202, Control_c, 0, 64, 0
2, 97212, Note_on_c, 0, 56, 63
2, 97213, Note_on_c, 0, 65, 69
2, 97227, Note_off_c, 0, 66, 64
2, 97229, Control_c, 0, 64, 127
2, 97232, Note_off_c, 0, 35, 64
2, 97233, Note_off_c, 0, 57, 64
2, 97320, Note_on_c, 0, 59, 73
2, 97321, Note_on_c, 0, 68, 70
2, 97340, Note_off_c, 0, 56, 64
2, 97341, Note_off_c, 0, 65, 64
2, 97367, Control_c, 0, 64, 0
2, 97407, Control_c, 0, 64, 127
2, 97428, Note_on_c, 0, 62, 70
2, 97433, Note_on_c, 0, 71, 83
2, 97433, Note_on_c, 0, 37, 58
2, 97448, Note_off_c, 0, 59, 64
2, 97448, Control_c, 0, 64, 0
2, 97449, Note_off_c, 0, 68, 64
2, 97487, Control_c, 0, 64, 127
2, 97620, Note_on_c, 0, 53, 55
2, 97622, Note_on_c, 0, 70, 62
2, 97622, Note_on_c, 0, 61, 58
2, 97629, Note_off_c, 0, 62, 64
2, 97634, Note_off_c, 0, 71, 64
2, 97654, Note_off_c, 0, 37, 64
2, 97742, Control_c, 0, 64, 0
2, 97743, Note_on_c, 0, 68, 59
2, 97743, Note_on_c, 0, 59, 69
2, 97749, Note_off_c, 0, 61, 64
2, 97749, Note_off_c, 0, 70, 64
2, 97769, Control_c, 0, 64, 127
2, 97817, Control_c, 0, 64, 0
2, 97844, Note_on_c, 0, 66, 39
2, 97844, Note_on_c, 0, 64, 39
2, 97848, Note_on_c, 0, 54, 62
2, 97849, Control_c, 0, 64, 0
2, 97851, Note_on_c, 0, 58, 74
2, 97859, Note_off_c, 0, 53, 64
2, 97869, Note_off_c, 0, 59, 64
2, 97869, Note_off_c, 0, 68, 64
2, 97870, Control_c, 0, 64, 127
2, 97948, Note_on_c, 0, 61, 73
2, 97955, Note_on_c, 0, 70, 69
2, 97970, Note_off_c, 0, 64, 64
2, 97970, Note_off_c, 0, 66, 64
2, 97977, Note_off_c, 0, 58, 64
2, 97988, Control_c, 0, 64, 0
2, 98006, Note_on_c, 0, 49, 50
2, 98027, Control_c, 0, 64, 127
2, 98037, Note_off_c, 0, 54, 64
2, 98058, Note_on_c, 0, 73, 77
2, 98060, Note_on_c, 0, 64, 69
2, 98062, Note_on_c, 0, 42, 81
2, 98068, Note_off_c, 0, 61, 64
2, 98073, Control_c, 0, 64, 0
2, 98075, Note_off_c, 0, 70, 64
2, 98088, Note_off_c, 0, 49, 64
2, 98093, Control_c, 0, 64, 127
2, 98164, Note_on_c, 0, 68, 64
2, 98165, Note_on_c, 0, 76, 62
2, 98180, Note_off_c, 0, 73, 64
2, 98182, Note_off_c, 0, 64, 64
2, 98250, Note_on_c, 0, 75, 69
2, 98252, Note_on_c, 0, 66, 73
2, 98258, Note_off_c, 0, 68, 64
2, 98259, Note_off_c, 0, 76, 64
2, 98273, Note_off_c, 0, 42, 64
2, 98356, Note_on_c, 0, 73, 58
2, 98357, Control_c, 0, 64, 0
2, 98360, Note_on_c, 0, 64, 66
2, 98362, Note_off_c, 0, 75, 64
2, 98364, Note_off_c, 0, 66, 64
2, 98389, Control_c, 0, 64, 0
2, 98410, Control_c, 0, 64, 127
2, 98424, Control_c, 0, 64, 0
2, 98446, Note_on_c, 0, 75, 65
2, 98448, Note_on_c, 0, 66, 73
2, 98457, Note_on_c, 0, 47, 52
2, 98477, Note_off_c, 0, 73, 64
2, 98481, Note_off_c, 0, 64, 64
2, 98481, Control_c, 0, 64, 127
2, 98531, Note_off_c, 0, 75, 64
2, 98533, Note_off_c, 0, 66, 64
2, 98590, Note_on_c, 0, 54, 54
2, 98595, Note_on_c, 0, 71, 54
2, 98595, Note_on_c, 0, 63, 58
2, 98613, Control_c, 0, 64, 0
2, 98623, Note_off_c, 0, 47, 64
2, 98631, Note_on_c, 0, 66, 64
2, 98633, Control_c, 0, 64, 127
2, 98637, Note_on_c, 0, 75, 69
2, 98637, Note_on_c, 0, 59, 77
2, 98649, Control_c, 0, 64, 0
2, 98659, Note_off_c, 0, 54, 64
2, 98664, Note_off_c, 0, 63, 64
2, 98664, Note_off_c, 0, 71, 64
2, 98705, Control_c, 0, 64, 127
2, 98853, Control_c, 0, 64, 0
2, 98856, Note_on_c, 0, 76, 67
2, 98857, Note_on_c, 0, 68, 64
2, 98863, Note_on_c, 0, 52, 65
2, 98873, Note_off_c, 0, 66, 64
2, 98879, Note_off_c, 0, 59, 64
2, 98879, Note_off_c, 0, 75, 64
2, 98896, Control_c, 0, 64, 127
2, 98964, Control_c, 0, 64, 0
2, 99021, Control_c, 0, 64, 127
2, 99046, Control_c, 0, 64, 0
2, 99052, Note_on_c, 0, 64, 59
2, 99053, Note_on_c, 0, 66, 62
2, 99056, Note_on_c, 0, 58, 69
2, 99058, Note_on_c, 0, 54, 77
2, 99068, Note_off_c, 0, 76, 64
2, 99069, Note_off_c, 0, 68, 64
2, 99075, Note_off_c, 0, 52, 64
2, 99088, Control_c, 0, 64, 127
2, 99169, Note_off_c, 0, 64, 64
2, 99170, Note_off_c, 0, 66, 64
2, 99173, Note_off_c, 0, 58, 64
2, 99189, Control_c, 0, 64, 0
2, 99212, Note_on_c, 0, 61, 73
2, 99216, Note_on_c, 0, 70, 73
2, 99217, Note_on_c, 0, 49, 73
2, 99240, Note_off_c, 0, 54, 64
2, 99245, Control_c, 0, 64, 127
2, 99260, Note_on_c, 0, 42, 90
2, 99261, Note_on_c, 0, 64, 64
2, 99265, Note_on_c, 0, 73, 73
2, 99279, Control_c, 0, 64, 0
2, 99284, Note_off_c, 0, 61, 64
2, 99288, Note_off_c, 0, 70, 64
2, 99289, Note_off_c, 0, 49, 64
2, 99315, Control_c, 0, 64, 127
2, 99354, Note_on_c, 0, 76, 64
2, 99354, Note_on_c, 0, 68, 74
2, 99371, Note_off_c, 0, 73, 64
2, 99373, Note_off_c, 0, 64, 64
2, 99393, Control_c, 0, 64, 0
2, 99436, Control_c, 0, 64, 127
2, 99452, Note_on_c, 0, 75, 60
2, 99456, Note_on_c, 0, 66, 73
2, 99456, Note_on_c, 0, 58, 60
2, 99472, Note_off_c, 0, 68, 64
2, 99472, Note_off_c, 0, 76, 64
2, 99487, Note_off_c, 0, 42, 64
2, 99543, Note_on_c, 0, 64, 62
2, 99547, Note_on_c, 0, 73, 62
2, 99559, Note_off_c, 0, 75, 64
2, 99563, Note_off_c, 0, 66, 64
2, 99571, Note_off_c, 0, 58, 64
2, 99586, Control_c, 0, 64, 0
2, 99628, Control_c, 0, 64, 127
2, 99648, Note_on_c, 0, 47, 64
2, 99651, Note_on_c, 0, 75, 71
2, 99652, Note_on_c, 0, 66, 77
2, 99662, Control_c, 0, 64, 0
2, 99663, Note_off_c, 0, 64, 64
2, 99667, Note_off_c, 0, 73, 64
2, 99694, Control_c, 0, 64, 127
2, 99745, Note_off_c, 0, 75, 64
2, 99746, Note_off_c, 0, 66, 64
2, 99796, Note_on_c, 0, 63, 64
2, 99796, Note_on_c, 0, 54, 58
2, 99798, Note_on_c, 0, 71, 47
2, 99819, Control_c, 0, 64, 0
2, 99836, Note_on_c, 0, 75, 70
2, 99836, Note_on_c, 0, 66, 65
2, 99836, Note_on_c, 0, 59, 67
2, 99841, Control_c, 0, 64, 0
2, 99855, Control_c, 0, 64, 127
2, 99857, Note_off_c, 0, 54, 64
2, 99857, Note_off_c, 0, 63, 64
2, 99859, Note_off_c, 0, 71, 64
2, 99883, Control_c, 0, 64, 127
2, 99996, Note_on_c, 0, 70, 62
2, 100000, Note_on_c, 0, 78, 56
2, 100004, Note_off_c, 0, 59, 64
2, 100004, Note_off_c, 0, 66, 64
2, 100004, Note_off_c, 0, 75, 64
2, 100036, Note_off_c, 0, 47, 64
2, 100036, Note_on_c, 0, 52, 64
2, 100042, Note_on_c, 0, 76, 71
2, 100042, Note_on_c, 0, 68, 78
2, 100059, Note_off_c, 0, 70, 64
2, 100063, Note_off_c, 0, 78, 64
2, 100066, Control_c, 0, 64, 0
2, 100092, Control_c, 0, 64, 127
2, 100202, Control_c, 0, 64, 0
2, 100234, Control_c, 0, 64, 127
2, 100244, Note_on_c, 0, 54, 73
2, 100246, Note_on_c, 0, 58, 73
2, 100248, Note_on_c, 0, 66, 69
2, 100248, Note_on_c, 0, 64, 69
2, 100251, Control_c, 0, 64, 0
2, 100274, Control_c, 0, 64, 127
2, 100277, Note_off_c, 0, 52, 64
2, 100283, Note_off_c, 0, 68, 64
2, 100283, Note_off_c, 0, 76, 64
2, 100290, Control_c, 0, 64, 127
2, 100331, Note_off_c, 0, 58, 64
2, 100333, Note_off_c, 0, 64, 64
2, 100333, Note_off_c, 0, 66, 64
2, 100381, Control_c, 0, 64, 0
2, 100400, Note_on_c, 0, 70, 67
2, 100400, Note_on_c, 0, 49, 81
2, 100404, Note_on_c, 0, 61, 77
2, 100423, Control_c, 0, 64, 127
2, 100428, Note_off_c, 0, 54, 64
2, 100460, Note_on_c, 0, 64, 64
2, 100462, Note_on_c, 0, 73, 63
2, 100468, Note_on_c, 0, 42, 77
2, 100472, Note_off_c, 0, 70, 64
2, 100476, Note_off_c, 0, 61, 64
2, 100477, Control_c, 0, 64, 0
2, 100486, Note_off_c, 0, 49, 64
2, 100503, Control_c, 0, 64, 127
2, 100544, Note_on_c, 0, 76, 69
2, 100544, Note_on_c, 0, 68, 73
2, 100566, Note_off_c, 0, 64, 64
2, 100568, Note_off_c, 0, 73, 64
2, 100606, Control_c, 0, 64, 0
2, 100632, Control_c, 0, 64, 127
2, 100644, Note_on_c, 0, 80, 70
2, 100644, Note_on_c, 0, 71, 74
2, 100644, Note_on_c, 0, 64, 58
2, 100644, Note_on_c, 0, 54, 58
2, 100645, Control_c, 0, 64, 127
2, 100652, Note_off_c, 0, 42, 64
2, 100660, Control_c, 0, 64, 0
2, 100666, Note_off_c, 0, 68, 64
2, 100666, Note_off_c, 0, 76, 64
2, 100689, Control_c, 0, 64, 127
2, 100752, Note_on_c, 0, 78, 57
2, 100752, Note_on_c, 0, 73, 57
2, 100752, Note_on_c, 0, 70, 69
2, 100769, Note_off_c, 0, 71, 64
2, 100769, Note_off_c, 0, 80, 64
2, 100791, Control_c, 0, 64, 0
2, 100814, Control_c, 0, 64, 127
2, 100819, Note_off_c, 0, 54, 64
2, 100819, Note_off_c, 0, 64, 64
2, 100830, Control_c, 0, 64, 127
2, 100844, Note_on_c, 0, 63, 74
2, 100844, Note_on_c, 0, 47, 65
2, 100848, Note_on_c, 0, 75, 85
2, 100848, Note_on_c, 0, 71, 74
2, 100860, Control_c, 0, 64, 0
2, 100874, Note_off_c, 0, 73, 64
2, 100874, Note_off_c, 0, 78, 64
2, 100874, Note_off_c, 0, 70, 64
2, 100896, Control_c, 0, 64, 127
2, 100929, Note_off_c, 0, 63, 64
2, 100933, Note_off_c, 0, 71, 64
2, 100933, Note_off_c, 0, 75, 64
2, 101000, Note_on_c, 0, 71, 55
2, 101004, Note_on_c, 0, 63, 63
2, 101004, Note_on_c, 0, 54, 50
2, 101017, Control_c, 0, 64, 0
2, 101029, Note_off_c, 0, 71, 64
2, 101033, Note_off_c, 0, 63, 64
2, 101042, Note_on_c, 0, 78, 80
2, 101043, Control_c, 0, 64, 127
2, 101044, Note_on_c, 0, 71, 65
2, 101044, Note_on_c, 0, 66, 65
2, 101044, Note_on_c, 0, 63, 73
2, 101048, Note_off_c, 0, 47, 64
2, 101052, Control_c, 0, 64, 127
2, 101054, Control_c, 0, 64, 0
2, 101071, Note_off_c, 0, 54, 64
2, 101084, Control_c, 0, 64, 127
2, 101185, Control_c, 0, 64, 127
2, 101200, Control_c, 0, 64, 0
2, 101229, Control_c, 0, 64, 127
2, 101249, Note_off_c, 0, 71, 64
2, 101265, Note_on_c, 0, 80, 79
2, 101265, Note_on_c, 0, 65, 57
2, 101270, Note_on_c, 0, 62, 64
2, 101271, Note_on_c, 0, 71, 63
2, 101277, Note_off_c, 0, 78, 64
2, 101279, Note_off_c, 0, 63, 64
2, 101279, Note_off_c, 0, 66, 64
2, 101284, Control_c, 0, 64, 0
2, 101328, Control_c, 0, 64, 127
2, 101400, Control_c, 0, 64, 0
2, 101436, Control_c, 0, 64, 127
2, 101473, Note_on_c, 0, 66, 52
2, 101474, Note_off_c, 0, 71, 64
2, 101474, Note_on_c, 0, 78, 60
2, 101476, Note_on_c, 0, 63, 56
2, 101483, Note_on_c, 0, 71, 63
2, 101494, Control_c, 0, 64, 0
2, 101500, Note_off_c, 0, 65, 64
2, 101500, Note_off_c, 0, 80, 64
2, 101505, Note_off_c, 0, 62, 64
2, 101519, Control_c, 0, 64, 127
2, 101558, Note_off_c, 0, 66, 64
2, 101559, Note_off_c, 0, 78, 64
2, 101561, Note_off_c, 0, 63, 64
2, 101568, Note_off_c, 0, 71, 64
2, 101592, Control_c, 0, 64, 127
2, 101594, Control_c, 0, 64, 0
2, 101620, Note_on_c, 0, 71, 63
2, 101620, Note_on_c, 0, 66, 63
2, 101621, Note_on_c, 0, 75, 73
2, 101621, Note_on_c, 0, 59, 58
2, 101624, Control_c, 0, 64, 127
2, 101656, Note_off_c, 0, 66, 64
2, 101656, Note_off_c, 0, 71, 64
2, 101664, Note_on_c, 0, 63, 51
2, 101667, Note_on_c, 0, 78, 80
2, 101668, Note_on_c, 0, 71, 70
2, 101668, Note_on_c, 0, 66, 70
2, 101681, Note_off_c, 0, 75, 64
2, 101681, Control_c, 0, 64, 0
2, 101685, Note_off_c, 0, 59, 64
2, 101726, Control_c, 0, 64, 127
2, 101824, Control_c, 0, 64, 0
2, 101868, Control_c, 0, 64, 127
2, 101881, Note_off_c, 0, 71, 64
2, 101885, Note_on_c, 0, 80, 66
2, 101888, Note_on_c, 0, 65, 56
2, 101888, Note_on_c, 0, 62, 56
2, 101893, Note_on_c, 0, 71, 59
2, 101895, Note_off_c, 0, 63, 64
2, 101898, Note_off_c, 0, 78, 64
2, 101899, Note_off_c, 0, 66, 64
2, 101907, Control_c, 0, 64, 0
2, 101932, Control_c, 0, 64, 127
2, 102034, Control_c, 0, 64, 0
2, 102059, Control_c, 0, 64, 127
2, 102090, Note_off_c, 0, 71, 64
2, 102097, Note_on_c, 0, 66, 49
2, 102100, Note_on_c, 0, 78, 59
2, 102100, Note_on_c, 0, 71, 58
2, 102100, Note_on_c, 0, 63, 54
2, 102116, Note_off_c, 0, 80, 64
2, 102118, Control_c, 0, 64, 0
2, 102119, Note_off_c, 0, 62, 64
2, 102119, Note_off_c, 0, 65, 64
2, 102131, Control_c, 0, 64, 127
2, 102182, Note_off_c, 0, 66, 64
2, 102185, Note_off_c, 0, 63, 64
2, 102185, Note_off_c, 0, 71, 64
2, 102185, Note_off_c, 0, 78, 64
2, 102221, Control_c, 0, 64, 0
2, 102236, Note_on_c, 0, 59, 58
2, 102240, Note_on_c, 0, 75, 74
2, 102240, Note_on_c, 0, 71, 66
2, 102240, Note_on_c, 0, 66, 62
2, 102266, Control_c, 0, 64, 127
2, 102276, Note_off_c, 0, 66, 64
2, 102276, Note_off_c, 0, 71, 64
2, 102292, Note_on_c, 0, 78, 77
2, 102292, Note_on_c, 0, 71, 69
2, 102292, Note_on_c, 0, 66, 69
2, 102292, Note_on_c, 0, 63, 69
2, 102296, Note_off_c, 0, 59, 64
2, 102300, Note_off_c, 0, 75, 64
2, 102301, Control_c, 0, 64, 0
2, 102311, Control_c, 0, 64, 127
2, 102335, Control_c, 0, 64, 127
2, 102447, Control_c, 0, 64, 0
2, 102472, Control_c, 0, 64, 127
2, 102504, Note_on_c, 0, 65, 51
2, 102504, Note_on_c, 0, 61, 27
2, 102507, Note_off_c, 0, 71, 64
2, 102509, Note_on_c, 0, 80, 67
2, 102514, Note_on_c, 0, 71, 66
2, 102519, Control_c, 0, 64, 0
2, 102521, Note_off_c, 0, 78, 64
2, 102529, Note_off_c, 0, 63, 64
2, 102529, Note_off_c, 0, 66, 64
2, 102546, Control_c, 0, 64, 127
2, 102658, Control_c, 0, 64, 0
2, 102671, Control_c, 0, 64, 127
2, 102711, Note_on_c, 0, 78, 59
2, 102711, Note_on_c, 0, 70, 66
2, 102714, Note_on_c, 0, 66, 52
2, 102717, Note_on_c, 0, 54, 54
2, 102718, Note_off_c, 0, 80, 64
2, 102721, Note_off_c, 0, 65, 64
2, 102723, Note_off_c, 0, 71, 64
2, 102724, Control_c, 0, 64, 0
2, 102725, Note_off_c, 0, 61, 64
2, 102747, Control_c, 0, 64, 127
2, 102796, Note_off_c, 0, 70, 64
2, 102796, Note_off_c, 0, 78, 64
2, 102799, Note_off_c, 0, 66, 64
2, 102802, Note_off_c, 0, 54, 64
2, 102841, Control_c, 0, 64, 0
2, 102851, Control_c, 0, 64, 127
2, 102852, Note_on_c, 0, 65, 56
2, 102852, Note_on_c, 0, 61, 56
2, 102853, Note_on_c, 0, 80, 62
2, 102856, Note_on_c, 0, 71, 56
2, 102875, Control_c, 0, 64, 127
2, 102891, Control_c, 0, 64, 0
2, 102904, Note_on_c, 0, 66, 88
2, 102907, Note_on_c, 0, 78, 83
2, 102907, Note_on_c, 0, 70, 88
2, 102912, Note_off_c, 0, 61, 64
2, 102912, Note_off_c, 0, 65, 64
2, 102913, Note_off_c, 0, 80, 64
2, 102913, Note_on_c, 0, 54, 63
2, 102916, Note_off_c, 0, 71, 64
2, 102930, Control_c, 0, 64, 127
2, 103059, Control_c, 0, 64, 0
2, 103086, Control_c, 0, 64, 127
2, 103147, Note_on_c, 0, 71, 54
2, 103148, Note_on_c, 0, 65, 37
2, 103148, Note_on_c, 0, 61, 40
2, 103151, Note_on_c, 0, 80, 67
2, 103160, Note_off_c, 0, 66, 64
2, 103162, Control_c, 0, 64, 0
2, 103163, Note_off_c, 0, 70, 64
2, 103163, Note_off_c, 0, 78, 64
2, 103169, Note_off_c, 0, 54, 64
2, 103188, Control_c, 0, 64, 127
2, 103264, Control_c, 0, 64, 0
2, 103287, Control_c, 0, 64, 127
2, 103375, Control_c, 0, 64, 0
2, 103392, Note_on_c, 0, 78, 57
2, 103392, Note_on_c, 0, 70, 56
2, 103392, Note_on_c, 0, 66, 42
2, 103392, Note_on_c, 0, 54, 49
2, 103407, Note_off_c, 0, 71, 64
2, 103408, Note_off_c, 0, 61, 64
2, 103408, Note_off_c, 0, 65, 64
2, 103411, Note_off_c, 0, 80, 64
2, 103413, Control_c, 0, 64, 127
2, 103431, Control_c, 0, 64, 0
2, 103470, Control_c, 0, 64, 127
2, 103477, Note_off_c, 0, 54, 64
2, 103477, Note_off_c, 0, 66, 64
2, 103477, Note_off_c, 0, 70, 64
2, 103477, Note_off_c, 0, 78, 64
2, 103568, Note_on_c, 0, 78, 62
2, 103568, Note_on_c, 0, 76, 64
2, 103568, Note_on_c, 0, 73, 58
2, 103568, Note_on_c, 0, 66, 62
2, 103615, Note_off_c, 0, 66, 64
2, 103628, Note_on_c, 0, 75, 69
2, 103628, Note_on_c, 0, 59, 59
2, 103631, Note_on_c, 0, 83, 66
2, 103632, Note_on_c, 0, 66, 69
2, 103634, Note_off_c, 0, 73, 64
2, 103634, Note_off_c, 0, 76, 64
2, 103634, Note_off_c, 0, 78, 64
2, 103637, Control_c, 0, 64, 0
2, 103649, Control_c, 0, 64, 0
2, 103702, Control_c, 0, 64, 0
2, 103704, Control_c, 0, 64, 127
2, 103728, Control_c, 0, 64, 127
2, 103837, Note_on_c, 0, 82, 67
2, 103840, Note_on_c, 0, 67, 50
2, 103840, Note_on_c, 0, 63, 52
2, 103843, Note_on_c, 0, 73, 71
2, 103849, Note_off_c, 0, 59, 64
2, 103849, Note_off_c, 0, 75, 64
2, 103852, Note_off_c, 0, 83, 64
2, 103853, Note_off_c, 0, 66, 64
2, 103870, Control_c, 0, 64, 0
2, 103903, Control_c, 0, 64, 127
2, 103915, Control_c, 0, 64, 0
2, 103953, Control_c, 0, 64, 127
2, 104048, Note_on_c, 0, 71, 65
2, 104048, Note_on_c, 0, 68, 55
2, 104048, Note_on_c, 0, 56, 67
2, 104049, Note_on_c, 0, 80, 63
2, 104058, Note_off_c, 0, 82, 64
2, 104061, Note_off_c, 0, 63, 64
2, 104061, Note_off_c, 0, 67, 64
2, 104064, Note_off_c, 0, 73, 64
2, 104081, Control_c, 0, 64, 0
2, 104124, Control_c, 0, 64, 127
2, 104177, Control_c, 0, 64, 0
2, 104189, Control_c, 0, 64, 0
2, 104201, Note_off_c, 0, 56, 64
2, 104201, Note_off_c, 0, 68, 64
2, 104201, Note_off_c, 0, 71, 64
2, 104202, Note_off_c, 0, 80, 64
2, 104220, Note_on_c, 0, 79, 55
2, 104220, Note_on_c, 0, 73, 57
2, 104223, Note_on_c, 0, 70, 51
2, 104223, Note_on_c, 0, 63, 49
2, 104244, Control_c, 0, 64, 127
2, 104268, Note_on_c, 0, 56, 77
2, 104272, Note_on_c, 0, 71, 71
2, 104272, Note_on_c, 0, 68, 71
2, 104273, Note_on_c, 0, 80, 77
2, 104276, Control_c, 0, 64, 0
2, 104288, Note_off_c, 0, 73, 64
2, 104288, Note_off_c, 0, 79, 64
2, 104291, Note_off_c, 0, 63, 64
2, 104291, Note_off_c, 0, 70, 64
2, 104291, Control_c, 0, 64, 127
2, 104327, Control_c, 0, 64, 127
2, 104410, Control_c, 0, 64, 0
2, 104443, Control_c, 0, 64, 127
2, 104488, Note_on_c, 0, 61, 59
2, 104489, Note_on_c, 0, 73, 71
2, 104492, Note_on_c, 0, 65, 62
2, 104494, Note_on_c, 0, 82, 67
2, 104506, Note_off_c, 0, 56, 64
2, 104509, Control_c, 0, 64, 0
2, 104510, Note_off_c, 0, 68, 64
2, 104510, Note_off_c, 0, 71, 64
2, 104511, Note_off_c, 0, 80, 64
2, 104540, Control_c, 0, 64, 127
2, 104594, Note_on_c, 0, 71, 69
2, 104606, Note_off_c, 0, 73, 64
2, 104621, Control_c, 0, 64, 0
2, 104664, Control_c, 0, 64, 127
2, 104708, Note_on_c, 0, 78, 67
2, 104708, Note_on_c, 0, 54, 57
2, 104712, Note_on_c, 0, 70, 73
2, 104712, Note_on_c, 0, 66, 73
2, 104721, Note_off_c, 0, 61, 64
2, 104721, Control_c, 0, 64, 0
2, 104722, Note_off_c, 0, 71, 64
2, 104725, Note_off_c, 0, 65, 64
2, 104727, Note_off_c, 0, 82, 64
2, 104753, Control_c, 0, 64, 127
2, 104816, Control_c, 0, 64, 0
2, 104831, Control_c, 0, 64, 127
2, 104861, Note_off_c, 0, 54, 64
2, 104861, Note_off_c, 0, 78, 64
2, 104865, Note_off_c, 0, 66, 64
2, 104865, Note_off_c, 0, 70, 64
2, 104867, Control_c, 0, 64, 127
2, 104888, Note_on_c, 0, 77, 57
2, 104888, Note_on_c, 0, 71, 44
2, 104888, Note_on_c, 0, 68, 51
2, 104888, Note_on_c, 0, 61, 50
2, 104928, Control_c, 0, 64, 0
2, 104940, Note_on_c, 0, 78, 74
2, 104940, Note_on_c, 0, 54, 77
2, 104944, Note_on_c, 0, 66, 71
2, 104948, Note_on_c, 0, 70, 71
2, 104956, Control_c, 0, 64, 127
2, 104962, Note_off_c, 0, 61, 64
2, 104962, Note_off_c, 0, 68, 64
2, 104962, Note_off_c, 0, 71, 64
2, 104962, Note_off_c, 0, 77, 64
2, 104984, Control_c, 0, 64, 127
2, 105049, Control_c, 0, 64, 0
2, 105080, Control_c, 0, 64, 127
2, 105160, Note_on_c, 0, 80, 69
2, 105160, Note_on_c, 0, 69, 67
2, 105160, Note_on_c, 0, 63, 62
2, 105160, Note_on_c, 0, 59, 64
2, 105160, Control_c, 0, 64, 0
2, 105182, Note_off_c, 0, 54, 64
2, 105182, Note_off_c, 0, 78, 64
2, 105186, Note_off_c, 0, 66, 64
2, 105190, Note_off_c, 0, 70, 64
2, 105198, Control_c, 0, 64, 127
2, 105261, Control_c, 0, 64, 0
2, 105293, Control_c, 0, 64, 127
2, 105390, Note_on_c, 0, 64, 64
2, 105390, Note_on_c, 0, 52, 49
2, 105394, Note_on_c, 0, 68, 55
2, 105396, Note_on_c, 0, 76, 48
2, 105397, Control_c, 0, 64, 0
2, 105406, Note_off_c, 0, 59, 64
2, 105406, Note_off_c, 0, 63, 64
2, 105406, Note_off_c, 0, 69, 64
2, 105406, Note_off_c, 0, 80, 64
2, 105409, Control_c, 0, 64, 0
2, 105451, Control_c, 0, 64, 127
2, 105468, Control_c, 0, 64, 0
2, 105496, Control_c, 0, 64, 127
2, 105524, Control_c, 0, 64, 127
2, 105542, Note_on_c, 0, 64, 57
2, 105542, Note_on_c, 0, 58, 44
2, 105543, Note_off_c, 0, 52, 64
2, 105543, Note_off_c, 0, 64, 64
2, 105546, Note_on_c, 0, 73, 57
2, 105546, Note_on_c, 0, 61, 44
2, 105547, Note_off_c, 0, 68, 64
2, 105549, Note_off_c, 0, 76, 64
2, 105594, Note_on_c, 0, 68, 66
2, 105594, Note_on_c, 0, 46, 66
2, 105598, Note_on_c, 0, 76, 66
2, 105614, Control_c, 0, 64, 0
2, 105626, Note_off_c, 0, 58, 64
2, 105626, Note_off_c, 0, 64, 64
2, 105630, Note_off_c, 0, 61, 64
2, 105630, Note_off_c, 0, 73, 64
2, 105630, Control_c, 0, 64, 0
2, 105661, Control_c, 0, 64, 127
2, 105700, Control_c, 0, 64, 0
2, 105738, Control_c, 0, 64, 127
2, 105832, Note_on_c, 0, 75, 70
2, 105836, Note_on_c, 0, 67, 87
2, 105836, Note_on_c, 0, 58, 41
2, 105836, Note_on_c, 0, 51, 64
2, 105848, Note_off_c, 0, 46, 64
2, 105848, Note_off_c, 0, 68, 64
2, 105851, Control_c, 0, 64, 0
2, 105852, Note_off_c, 0, 76, 64
2, 105883, Control_c, 0, 64, 127
2, 105937, Control_c, 0, 64, 0
2, 105949, Control_c, 0, 64, 0
2, 105961, Note_on_c, 0, 73, 77
2, 105967, Note_off_c, 0, 75, 64
2, 105991, Control_c, 0, 64, 127
2, 106058, Note_on_c, 0, 44, 77
2, 106066, Note_on_c, 0, 71, 80
2, 106066, Note_on_c, 0, 68, 73
2, 106066, Note_on_c, 0, 59, 73
2, 106077, Note_off_c, 0, 73, 64
2, 106083, Control_c, 0, 64, 0
2, 106090, Note_off_c, 0, 51, 64
2, 106090, Note_off_c, 0, 58, 64
2, 106090, Note_off_c, 0, 67, 64
2, 106120, Control_c, 0, 64, 127
2, 106154, Control_c, 0, 64, 0
2, 106170, Control_c, 0, 64, 0
2, 106201, Control_c, 0, 64, 127
2, 106211, Note_off_c, 0, 44, 64
2, 106219, Note_off_c, 0, 59, 64
2, 106219, Note_off_c, 0, 68, 64
2, 106219, Note_off_c, 0, 71, 64
2, 106226, Note_on_c, 0, 59, 73
2, 106230, Note_on_c, 0, 68, 64
2, 106233, Note_on_c, 0, 75, 59
2, 106282, Note_on_c, 0, 63, 52
2, 106282, Note_on_c, 0, 56, 52
2, 106282, Control_c, 0, 64, 0
2, 106286, Note_on_c, 0, 71, 74
2, 106289, Note_on_c, 0, 80, 77
2, 106291, Note_off_c, 0, 59, 64
2, 106295, Note_off_c, 0, 68, 64
2, 106298, Note_off_c, 0, 75, 64
2, 106302, Control_c, 0, 64, 0
2, 106348, Control_c, 0, 64, 127
2, 106391, Control_c, 0, 64, 0
2, 106423, Control_c, 0, 64, 127
2, 106462, Note_on_c, 0, 47, 63
2, 106486, Note_off_c, 0, 63, 64
2, 106490, Note_on_c, 0, 78, 69
2, 106490, Note_on_c, 0, 69, 69
2, 106494, Note_on_c, 0, 63, 73
2, 106506, Note_off_c, 0, 56, 64
2, 106510, Note_off_c, 0, 71, 64
2, 106513, Note_off_c, 0, 80, 64
2, 106529, Control_c, 0, 64, 0
2, 106555, Note_off_c, 0, 47, 64
2, 106563, Control_c, 0, 64, 127
2, 106623, Control_c, 0, 64, 0
2, 106660, Control_c, 0, 64, 127
2, 106720, Control_c, 0, 64, 0
2, 106722, Note_on_c, 0, 64, 64
2, 106725, Note_on_c, 0, 76, 64
2, 106725, Note_on_c, 0, 68, 73
2, 106726, Note_on_c, 0, 59, 41
2, 106726, Note_on_c, 0, 52, 47
2, 106751, Note_off_c, 0, 69, 64
2, 106751, Note_off_c, 0, 78, 64
2, 106755, Note_off_c, 0, 63, 64
2, 106758, Control_c, 0, 64, 127
2, 106822, Control_c, 0, 64, 0
2, 106842, Control_c, 0, 64, 0
2, 106875, Note_off_c, 0, 64, 64
2, 106878, Note_off_c, 0, 68, 64
2, 106878, Note_off_c, 0, 76, 64
2, 106879, Note_off_c, 0, 52, 64
2, 106879, Note_off_c, 0, 59, 64
2, 106882, Note_on_c, 0, 75, 60
2, 106882, Note_on_c, 0, 69, 62
2, 106885, Note_on_c, 0, 59, 63
2, 106886, Note_on_c, 0, 54, 50
2, 106888, Control_c, 0, 64, 127
2, 106923, Note_off_c, 0, 59, 64
2, 106930, Note_on_c, 0, 76, 56
2, 106930, Note_on_c, 0, 68, 66
2, 106930, Note_on_c, 0, 59, 64
2, 106930, Note_on_c, 0, 52, 59
2, 106946, Note_off_c, 0, 69, 64
2, 106946, Note_off_c, 0, 75, 64
2, 106950, Note_off_c, 0, 54, 64
2, 106952, Control_c, 0, 64, 0
2, 106983, Control_c, 0, 64, 127
2, 107069, Control_c, 0, 64, 0
2, 107103, Control_c, 0, 64, 127
2, 107106, Note_on_c, 0, 46, 75
2, 107141, Note_off_c, 0, 68, 64
2, 107146, Note_on_c, 0, 61, 74
2, 107149, Note_on_c, 0, 78, 71
2, 107153, Note_on_c, 0, 68, 73
2, 107159, Control_c, 0, 64, 0
2, 107172, Note_off_c, 0, 52, 64
2, 107172, Note_off_c, 0, 59, 64
2, 107172, Note_off_c, 0, 76, 64
2, 107195, Control_c, 0, 64, 127
2, 107204, Note_off_c, 0, 46, 64
2, 107254, Note_on_c, 0, 76, 62
2, 107260, Control_c, 0, 64, 0
2, 107270, Note_off_c, 0, 78, 64
2, 107298, Control_c, 0, 64, 127
2, 107364, Note_off_c, 0, 61, 64
2, 107364, Control_c, 0, 64, 0
2, 107366, Note_on_c, 0, 67, 34
2, 107366, Note_on_c, 0, 51, 69
2, 107369, Note_on_c, 0, 75, 77
2, 107369, Note_on_c, 0, 58, 73
2, 107380, Note_off_c, 0, 68, 64
2, 107382, Note_off_c, 0, 76, 64
2, 107403, Control_c, 0, 64, 127
2, 107480, Note_off_c, 0, 51, 64
2, 107480, Note_off_c, 0, 67, 64
2, 107483, Note_off_c, 0, 58, 64
2, 107483, Note_off_c, 0, 75, 64
2, 107492, Control_c, 0, 64, 0
2, 107518, Note_on_c, 0, 68, 63
2, 107518, Note_on_c, 0, 58, 58
2, 107521, Note_on_c, 0, 74, 64
2, 107521, Note_on_c, 0, 52, 57
2, 107523, Control_c, 0, 64, 127
2, 107571, Note_off_c, 0, 58, 64
2, 107574, Note_on_c, 0, 75, 75
2, 107574, Note_on_c, 0, 58, 74
2, 107574, Note_on_c, 0, 51, 75
2, 107575, Control_c, 0, 64, 0
2, 107578, Note_on_c, 0, 67, 75
2, 107582, Note_on_c, 0, 58, 74
2, 107594, Note_off_c, 0, 68, 64
2, 107597, Note_off_c, 0, 52, 64
2, 107597, Note_off_c, 0, 74, 64
2, 107624, Control_c, 0, 64, 127
2, 107699, Control_c, 0, 64, 0
2, 107735, Control_c, 0, 64, 127
2, 107744, Note_on_c, 0, 44, 62
2, 107782, Note_on_c, 0, 68, 66
2, 107785, Note_off_c, 0, 58, 64
2, 107786, Note_on_c, 0, 60, 71
2, 107788, Note_on_c, 0, 76, 63
2, 107789, Note_off_c, 0, 67, 64
2, 107793, Note_off_c, 0, 58, 64
2, 107793, Note_off_c, 0, 51, 64
2, 107797, Note_off_c, 0, 75, 64
2, 107804, Control_c, 0, 64, 0
2, 107847, Note_off_c, 0, 44, 64
2, 107850, Control_c, 0, 64, 127
2, 107895, Note_on_c, 0, 66, 70
2, 107904, Control_c, 0, 64, 0
2, 107915, Note_off_c, 0, 68, 64
2, 107943, Control_c, 0, 64, 127
2, 108001, Note_on_c, 0, 49, 55
2, 108002, Note_on_c, 0, 61, 57
2, 108009, Note_off_c, 0, 60, 64
2, 108009, Note_on_c, 0, 73, 67
2, 108009, Note_on_c, 0, 64, 73
2, 108015, Note_off_c, 0, 76, 64
2, 108019, Note_off_c, 0, 66, 64
2, 108020, Control_c, 0, 64, 0
2, 108056, Control_c, 0, 64, 127
2, 108115, Note_off_c, 0, 49, 64
2, 108115, Control_c, 0, 64, 0
2, 108116, Note_off_c, 0, 61, 64
2, 108123, Note_off_c, 0, 64, 64
2, 108123, Note_off_c, 0, 73, 64
2, 108150, Note_on_c, 0, 64, 54
2, 108150, Note_on_c, 0, 49, 54
2, 108154, Note_on_c, 0, 68, 62
2, 108154, Note_on_c, 0, 59, 62
2, 108164, Control_c, 0, 64, 127
2, 108200, Note_off_c, 0, 49, 64
2, 108200, Note_off_c, 0, 64, 64
2, 108204, Note_off_c, 0, 59, 64
2, 108204, Note_off_c, 0, 68, 64
2, 108218, Note_on_c, 0, 49, 26
2, 108222, Note_on_c, 0, 76, 64
2, 108222, Note_on_c, 0, 59, 28
2, 108226, Note_on_c, 0, 68, 80
2, 108230, Control_c, 0, 64, 0
2, 108276, Control_c, 0, 64, 127
2, 108344, Control_c, 0, 64, 0
2, 108389, Note_on_c, 0, 42, 58
2, 108390, Control_c, 0, 64, 127
2, 108448, Note_on_c, 0, 58, 74
2, 108450, Note_on_c, 0, 75, 66
2, 108450, Note_on_c, 0, 66, 69
2, 108455, Note_off_c, 0, 59, 64
2, 108455, Note_off_c, 0, 76, 64
2, 108459, Note_off_c, 0, 68, 64
2, 108461, Note_off_c, 0, 49, 64
2, 108465, Control_c, 0, 64, 0
2, 108480, Note_off_c, 0, 42, 64
2, 108499, Control_c, 0, 64, 127
2, 108557, Note_on_c, 0, 73, 62
2, 108560, Control_c, 0, 64, 0
2, 108562, Note_on_c, 0, 64, 74
2, 108568, Note_off_c, 0, 66, 64
2, 108568, Note_off_c, 0, 75, 64
2, 108596, Control_c, 0, 64, 127
2, 108662, Note_on_c, 0, 75, 64
2, 108662, Note_on_c, 0, 71, 64
2, 108665, Note_on_c, 0, 47, 63
2, 108666, Note_on_c, 0, 63, 73
2, 108666, Note_on_c, 0, 54, 46
2, 108673, Note_off_c, 0, 73, 64
2, 108675, Control_c, 0, 64, 127
2, 108678, Note_off_c, 0, 64, 64
2, 108682, Control_c, 0, 64, 0
2, 108687, Note_off_c, 0, 58, 64
2, 108707, Control_c, 0, 64, 127
2, 108747, Note_off_c, 0, 71, 64
2, 108747, Note_off_c, 0, 75, 64
2, 108750, Note_off_c, 0, 47, 64
2, 108751, Note_off_c, 0, 54, 64
2, 108751, Note_off_c, 0, 63, 64
2, 108770, Control_c, 0, 64, 0
2, 108816, Control_c, 0, 64, 127
2, 108826, Note_on_c, 0, 78, 59
2, 108888, Note_on_c, 0, 83, 67
2, 108890, Note_on_c, 0, 75, 64
2, 108890, Note_on_c, 0, 65, 49
2, 108901, Note_off_c, 0, 78, 64
2, 108908, Control_c, 0, 64, 0
2, 108938, Control_c, 0, 64, 127
2, 109001, Note_on_c, 0, 66, 51
2, 109005, Control_c, 0, 64, 0
2, 109024, Note_off_c, 0, 65, 64
2, 109039, Control_c, 0, 64, 127
2, 109081, Control_c, 0, 64, 0
2, 109094, Note_on_c, 0, 67, 62
2, 109098, Note_on_c, 0, 82, 64
2, 109098, Note_on_c, 0, 73, 67
2, 109113, Control_c, 0, 64, 127
2, 109119, Note_off_c, 0, 83, 64
2, 109121, Note_off_c, 0, 66, 64
2, 109121, Note_off_c, 0, 75, 64
2, 109206, Note_on_c, 0, 63, 47
2, 109215, Control_c, 0, 64, 127
2, 109222, Control_c, 0, 64, 0
2, 109225, Note_off_c, 0, 67, 64
2, 109227, Note_on_c, 0, 80, 46
2, 109238, Note_off_c, 0, 73, 64
2, 109238, Note_off_c, 0, 82, 64
2, 109247, Control_c, 0, 64, 127
2, 109252, Note_on_c, 0, 82, 71
2, 109264, Note_off_c, 0, 80, 64
2, 109271, Control_c, 0, 64, 0
2, 109286, Note_on_c, 0, 71, 55
2, 109286, Note_on_c, 0, 68, 62
2, 109289, Note_on_c, 0, 80, 69
2, 109310, Note_off_c, 0, 82, 64
2, 109311, Note_off_c, 0, 63, 64
2, 109314, Control_c, 0, 64, 127
2, 109371, Note_off_c, 0, 71, 64
2, 109374, Note_off_c, 0, 80, 64
2, 109416, Note_on_c, 0, 63, 51
2, 109435, Note_off_c, 0, 68, 64
2, 109448, Control_c, 0, 64, 0
2, 109455, Note_on_c, 0, 79, 63
2, 109461, Note_on_c, 0, 73, 71
2, 109478, Control_c, 0, 64, 127
2, 109486, Control_c, 0, 64, 0
2, 109494, Note_on_c, 0, 71, 67
2, 109500, Note_on_c, 0, 80, 70
2, 109509, Note_on_c, 0, 56, 50
2, 109526, Note_off_c, 0, 63, 64
2, 109529, Note_off_c, 0, 73, 64
2, 109529, Note_off_c, 0, 79, 64
2, 109531, Control_c, 0, 64, 127
2, 109578, Control_c, 0, 64, 0
2, 109590, Control_c, 0, 64, 127
2, 109621, Control_c, 0, 64, 0
2, 109624, Note_on_c, 0, 66, 54
2, 109650, Note_off_c, 0, 56, 64
2, 109653, Control_c, 0, 64, 127
2, 109721, Control_c, 0, 64, 0
2, 109739, Note_on_c, 0, 82, 69
2, 109744, Note_on_c, 0, 73, 71
2, 109745, Control_c, 0, 64, 127
2, 109750, Note_on_c, 0, 65, 49
2, 109751, Note_off_c, 0, 71, 64
2, 109757, Note_off_c, 0, 80, 64
2, 109773, Note_off_c, 0, 66, 64
2, 109811, Control_c, 0, 64, 0
2, 109830, Note_on_c, 0, 61, 52
2, 109843, Note_off_c, 0, 65, 64
2, 109854, Control_c, 0, 64, 127
2, 109894, Note_on_c, 0, 78, 47
2, 109901, Note_off_c, 0, 82, 64
2, 109910, Control_c, 0, 64, 0
2, 109913, Note_off_c, 0, 73, 64
2, 109917, Note_on_c, 0, 80, 64
2, 109930, Note_off_c, 0, 78, 64
2, 109955, Note_on_c, 0, 78, 63
2, 109956, Control_c, 0, 64, 127
2, 109958, Note_on_c, 0, 70, 62
2, 109958, Note_on_c, 0, 66, 62
2, 109972, Note_off_c, 0, 61, 64
2, 109983, Note_off_c, 0, 80, 64
2, 110026, Control_c, 0, 64, 0
2, 110047, Note_on_c, 0, 61, 62
2, 110064, Note_off_c, 0, 66, 64
2, 110071, Control_c, 0, 64, 127
2, 110102, Note_on_c, 0, 71, 69
2, 110106, Note_on_c, 0, 77, 69
2, 110118, Control_c, 0, 64, 0
2, 110122, Control_c, 0, 64, 0
2, 110127, Note_off_c, 0, 78, 64
2, 110130, Note_off_c, 0, 70, 64
2, 110130, Control_c, 0, 64, 127
2, 110150, Note_off_c, 0, 61, 64
2, 110150, Control_c, 0, 64, 0
2, 110158, Note_on_c, 0, 54, 14
2, 110159, Note_on_c, 0, 78, 77
2, 110160, Note_on_c, 0, 70, 73
2, 110172, Control_c, 0, 64, 127
2, 110176, Note_off_c, 0, 71, 64
2, 110180, Note_off_c, 0, 77, 64
2, 110261, Control_c, 0, 64, 0
2, 110261, Note_on_c, 0, 64, 59
2, 110279, Note_off_c, 0, 54, 64
2, 110285, Control_c, 0, 64, 127
2, 110368, Control_c, 0, 64, 0
2, 110376, Note_on_c, 0, 80, 69
2, 110379, Note_on_c, 0, 69, 73
2, 110379, Note_on_c, 0, 63, 63
2, 110396, Note_off_c, 0, 64, 64
2, 110399, Note_off_c, 0, 78, 64
2, 110400, Note_off_c, 0, 70, 64
2, 110407, Control_c, 0, 64, 127
2, 110450, Control_c, 0, 64, 0
2, 110485, Note_on_c, 0, 59, 49
2, 110496, Control_c, 0, 64, 127
2, 110500, Note_off_c, 0, 63, 64
2, 110566, Control_c, 0, 64, 0
2, 110578, Note_on_c, 0, 68, 64
2, 110580, Note_on_c, 0, 76, 67
2, 110582, Note_on_c, 0, 52, 54
2, 110596, Note_off_c, 0, 59, 64
2, 110601, Note_off_c, 0, 80, 64
2, 110604, Note_off_c, 0, 69, 64
2, 110618, Control_c, 0, 64, 127
2, 110662, Control_c, 0, 64, 0
2, 110690, Control_c, 0, 64, 0
2, 110692, Note_off_c, 0, 68, 64
2, 110694, Note_off_c, 0, 76, 64
2, 110703, Note_on_c, 0, 63, 51
2, 110712, Control_c, 0, 64, 127
2, 110728, Note_off_c, 0, 52, 64
2, 110746, Note_on_c, 0, 64, 55
2, 110748, Note_on_c, 0, 73, 55
2, 110767, Control_c, 0, 64, 0
2, 110771, Control_c, 0, 64, 0
2, 110786, Note_on_c, 0, 68, 64
2, 110790, Note_on_c, 0, 61, 62
2, 110792, Note_on_c, 0, 76, 64
2, 110798, Note_off_c, 0, 64, 64
2, 110800, Note_off_c, 0, 73, 64
2, 110814, Control_c, 0, 64, 127
2, 110824, Note_off_c, 0, 63, 64
2, 110897, Note_on_c, 0, 58, 31
2, 110908, Control_c, 0, 64, 0
2, 110918, Note_off_c, 0, 61, 64
2, 110947, Control_c, 0, 64, 127
2, 110992, Note_off_c, 0, 68, 64
2, 110998, Note_off_c, 0, 76, 64
2, 111004, Control_c, 0, 64, 0
2, 111014, Note_on_c, 0, 67, 62
2, 111016, Note_on_c, 0, 51, 41
2, 111017, Note_on_c, 0, 75, 78
2, 111046, Control_c, 0, 64, 127
2, 111047, Note_off_c, 0, 58, 64
2, 111106, Control_c, 0, 64, 0
2, 111126, Note_on_c, 0, 73, 60
2, 111128, Note_on_c, 0, 58, 58
2, 111148, Note_off_c, 0, 75, 64
2, 111148, Note_off_c, 0, 51, 64
2, 111158, Control_c, 0, 64, 127
2, 111224, Control_c, 0, 64, 0
2, 111228, Note_on_c, 0, 44, 59
2, 111230, Note_on_c, 0, 71, 73
2, 111230, Note_on_c, 0, 68, 73
2, 111235, Control_c, 0, 64, 127
2, 111236, Note_on_c, 0, 59, 59
2, 111244, Note_off_c, 0, 73, 64
2, 111246, Note_off_c, 0, 67, 64
2, 111259, Note_off_c, 0, 58, 64
2, 111275, Control_c, 0, 64, 127
2, 111307, Control_c, 0, 64, 0
2, 111311, Control_c, 0, 64, 0
2, 111313, Note_off_c, 0, 44, 64
2, 111321, Note_off_c, 0, 59, 64
2, 111354, Control_c, 0, 64, 127
2, 111383, Note_off_c, 0, 68, 64
2, 111383, Note_off_c, 0, 71, 64
2, 111388, Note_on_c, 0, 59, 48
2, 111391, Note_on_c, 0, 75, 47
2, 111392, Note_on_c, 0, 68, 54
2, 111407, Control_c, 0, 64, 0
2, 111442, Note_on_c, 0, 80, 71
2, 111442, Note_on_c, 0, 71, 64
2, 111442, Note_on_c, 0, 60, 47
2, 111460, Control_c, 0, 64, 127
2, 111465, Note_off_c, 0, 59, 64
2, 111468, Note_off_c, 0, 75, 64
2, 111469, Note_off_c, 0, 68, 64
2, 111534, Note_on_c, 0, 61, 50
2, 111544, Control_c, 0, 64, 0
2, 111557, Note_off_c, 0, 60, 64
2, 111586, Control_c, 0, 64, 127
2, 111619, Control_c, 0, 64, 0
2, 111648, Note_on_c, 0, 78, 66
2, 111648, Note_on_c, 0, 69, 73
2, 111651, Note_on_c, 0, 62, 47
2, 111659, Note_off_c, 0, 71, 64
2, 111659, Note_off_c, 0, 80, 64
2, 111662, Note_off_c, 0, 61, 64
2, 111682, Control_c, 0, 64, 127
2, 111740, Note_on_c, 0, 63, 64
2, 111755, Note_off_c, 0, 62, 64
2, 111764, Control_c, 0, 64, 0
2, 111775, Control_c, 0, 64, 127
2, 111802, Note_off_c, 0, 69, 64
2, 111804, Note_on_c, 0, 76, 66
2, 111815, Control_c, 0, 64, 127
2, 111818, Note_off_c, 0, 78, 64
2, 111842, Note_off_c, 0, 76, 64
2, 111844, Note_on_c, 0, 78, 69
2, 111868, Note_on_c, 0, 76, 58
2, 111868, Note_on_c, 0, 68, 63
2, 111868, Note_on_c, 0, 64, 51
2, 111873, Note_off_c, 0, 63, 64
2, 111885, Control_c, 0, 64, 127
2, 111909, Note_off_c, 0, 78, 64
2, 111917, Control_c, 0, 64, 0
2, 111930, Control_c, 0, 64, 127
2, 111947, Control_c, 0, 64, 0
2, 111969, Note_on_c, 0, 59, 49
2, 111997, Note_off_c, 0, 64, 64
2, 112000, Control_c, 0, 64, 127
2, 112021, Note_off_c, 0, 68, 64
2, 112021, Note_off_c, 0, 76, 64
2, 112032, Note_on_c, 0, 75, 56
2, 112032, Note_on_c, 0, 69, 58
2, 112088, Note_on_c, 0, 68, 62
2, 112088, Note_on_c, 0, 52, 51
2, 112088, Control_c, 0, 64, 0
2, 112089, Control_c, 0, 64, 127
2, 112090, Note_on_c, 0, 76, 62
2, 112102, Note_off_c, 0, 69, 64
2, 112102, Note_off_c, 0, 75, 64
2, 112106, Note_off_c, 0, 59, 64
2, 112117, Control_c, 0, 64, 127
2, 112159, Control_c, 0, 64, 0
2, 112180, Control_c, 0, 64, 0
2, 112203, Control_c, 0, 64, 127
2, 112211, Note_on_c, 0, 63, 42
2, 112222, Control_c, 0, 64, 127
2, 112231, Note_off_c, 0, 52, 64
2, 112293, Control_c, 0, 64, 0
2, 112294, Note_off_c, 0, 68, 64
2, 112296, Note_off_c, 0, 76, 64
2, 112322, Note_on_c, 0, 78, 67
2, 112324, Note_on_c, 0, 61, 56
2, 112326, Note_on_c, 0, 68, 77
2, 112340, Control_c, 0, 64, 127
2, 112344, Note_off_c, 0, 63, 64
2, 112425, Control_c, 0, 64, 127
2, 112430, Note_on_c, 0, 76, 66
2, 112430, Note_on_c, 0, 46, 62
2, 112432, Note_off_c, 0, 78, 64
2, 112445, Note_off_c, 0, 61, 64
2, 112457, Control_c, 0, 64, 0
2, 112470, Control_c, 0, 64, 127
2, 112523, Control_c, 0, 64, 0
2, 112530, Note_on_c, 0, 51, 63
2, 112532, Note_on_c, 0, 67, 69
2, 112535, Note_on_c, 0, 75, 57
2, 112539, Note_off_c, 0, 68, 64
2, 112542, Note_off_c, 0, 76, 64
2, 112557, Note_on_c, 0, 76, 59
2, 112571, Note_off_c, 0, 46, 64
2, 112593, Note_off_c, 0, 75, 64
2, 112608, Note_on_c, 0, 75, 59
2, 112617, Note_off_c, 0, 67, 64
2, 112620, Note_off_c, 0, 76, 64
2, 112628, Control_c, 0, 64, 0
2, 112629, Control_c, 0, 64, 127
2, 112636, Control_c, 0, 64, 127
2, 112657, Control_c, 0, 64, 127
2, 112660, Note_on_c, 0, 58, 52
2, 112671, Note_off_c, 0, 75, 64
2, 112680, Note_off_c, 0, 51, 64
2, 112709, Note_on_c, 0, 68, 63
2, 112713, Note_on_c, 0, 74, 63
2, 112715, Control_c, 0, 64, 0
2, 112719, Control_c, 0, 64, 0
2, 112720, Control_c, 0, 64, 0
2, 112743, Control_c, 0, 64, 127
2, 112751, Note_on_c, 0, 67, 65
2, 112754, Note_on_c, 0, 75, 74
2, 112758, Note_on_c, 0, 63, 57
2, 112775, Note_off_c, 0, 68, 64
2, 112778, Note_off_c, 0, 58, 64
2, 112779, Note_off_c, 0, 74, 64
2, 112779, Control_c, 0, 64, 127
2, 112833, Control_c, 0, 64, 0
2, 112834, Control_c, 0, 64, 0
2, 112856, Control_c, 0, 64, 127
2, 112863, Note_on_c, 0, 58, 50
2, 112880, Control_c, 0, 64, 127
2, 112891, Note_off_c, 0, 63, 64
2, 112951, Control_c, 0, 64, 0
2, 112970, Note_on_c, 0, 60, 54
2, 112973, Note_on_c, 0, 76, 67
2, 112976, Note_on_c, 0, 68, 73
2, 112995, Note_off_c, 0, 67, 64
2, 112996, Note_off_c, 0, 58, 64
2, 112998, Note_off_c, 0, 75, 64
2, 113012, Control_c, 0, 64, 127
2, 113063, Control_c, 0, 64, 0
2, 113089, Note_on_c, 0, 66, 71
2, 113097, Note_on_c, 0, 44, 62
2, 113102, Note_off_c, 0, 68, 64
2, 113102, Note_off_c, 0, 60, 64
2, 113160, Control_c, 0, 64, 0
2, 113176, Control_c, 0, 64, 127
2, 113194, Note_on_c, 0, 73, 58
2, 113197, Note_on_c, 0, 64, 73
2, 113197, Note_on_c, 0, 49, 54
2, 113210, Note_off_c, 0, 66, 64
2, 113213, Note_off_c, 0, 76, 64
2, 113218, Note_off_c, 0, 44, 64
2, 113232, Control_c, 0, 64, 127
2, 113255, Control_c, 0, 64, 0
2, 113259, Control_c, 0, 64, 0
2, 113298, Note_on_c, 0, 59, 46
2, 113311, Note_off_c, 0, 64, 64
2, 113319, Control_c, 0, 64, 127
2, 113330, Note_on_c, 0, 68, 63
2, 113330, Note_on_c, 0, 64, 74
2, 113331, Note_off_c, 0, 49, 64
2, 113347, Note_off_c, 0, 73, 64
2, 113366, Note_off_c, 0, 64, 64
2, 113366, Note_off_c, 0, 68, 64
2, 113374, Control_c, 0, 64, 0
2, 113374, Control_c, 0, 64, 0
2, 113384, Note_on_c, 0, 64, 54
2, 113386, Note_on_c, 0, 68, 97
2, 113388, Note_on_c, 0, 76, 63
2, 113388, Note_on_c, 0, 48, 34
2, 113396, Control_c, 0, 64, 127
2, 113416, Note_off_c, 0, 59, 64
2, 113426, Control_c, 0, 64, 127
2, 113491, Control_c, 0, 64, 0
2, 113503, Note_on_c, 0, 49, 56
2, 113514, Note_off_c, 0, 48, 64
2, 113552, Control_c, 0, 64, 127
2, 113607, Control_c, 0, 64, 0
2, 113613, Note_off_c, 0, 64, 64
2, 113619, Note_on_c, 0, 75, 71
2, 113622, Note_on_c, 0, 66, 77
2, 113622, Note_on_c, 0, 58, 67
2, 113640, Note_off_c, 0, 68, 64
2, 113642, Note_off_c, 0, 76, 64
2, 113651, Control_c, 0, 64, 127
2, 113653, Note_off_c, 0, 49, 64
2, 113700, Control_c, 0, 64, 0
2, 113724, Note_on_c, 0, 42, 59
2, 113730, Note_on_c, 0, 73, 57
2, 113730, Note_on_c, 0, 64, 74
2, 113739, Note_off_c, 0, 75, 64
2, 113742, Note_off_c, 0, 66, 64
2, 113762, Note_off_c, 0, 58, 64
2, 113772, Control_c, 0, 64, 127
2, 113822, Note_on_c, 0, 47, 69
2, 113826, Note_on_c, 0, 66, 82
2, 113828, Note_on_c, 0, 75, 69
2, 113839, Note_off_c, 0, 64, 64
2, 113839, Note_off_c, 0, 73, 64
2, 113841, Control_c, 0, 64, 0
2, 113847, Note_off_c, 0, 42, 64
2, 113900, Control_c, 0, 64, 127
2, 113914, Control_c, 0, 64, 0
2, 113966, Control_c, 0, 64, 127
2, 113971, Note_off_c, 0, 47, 64
2, 113975, Note_off_c, 0, 66, 64
2, 113977, Note_off_c, 0, 75, 64
2, 113986, Note_on_c, 0, 71, 29
2, 113990, Note_on_c, 0, 63, 50
2, 113990, Note_on_c, 0, 54, 58
2, 114024, Control_c, 0, 64, 0
2, 114028, Note_on_c, 0, 66, 69
2, 114028, Note_on_c, 0, 59, 74
2, 114029, Note_on_c, 0, 75, 77
2, 114053, Note_off_c, 0, 71, 64
2, 114057, Note_off_c, 0, 54, 64
2, 114057, Note_off_c, 0, 63, 64
2, 114091, Control_c, 0, 64, 127
2, 114147, Control_c, 0, 64, 0
2, 114191, Control_c, 0, 64, 127
2, 114242, Note_on_c, 0, 52, 69
2, 114245, Note_on_c, 0, 76, 69
2, 114246, Note_on_c, 0, 68, 71
2, 114252, Control_c, 0, 64, 0
2, 114255, Note_off_c, 0, 59, 64
2, 114255, Note_off_c, 0, 66, 64
2, 114256, Note_off_c, 0, 75, 64
2, 114290, Control_c, 0, 64, 127
2, 114381, Control_c, 0, 64, 0
2, 114440, Control_c, 0, 64, 127
2, 114447, Control_c, 0, 64, 0
2, 114452, Note_on_c, 0, 54, 56
2, 114454, Note_on_c, 0, 58, 67
2, 114456, Note_on_c, 0, 64, 58
2, 114458, Note_on_c, 0, 66, 58
2, 114463, Note_off_c, 0, 52, 64
2, 114466, Note_off_c, 0, 76, 64
2, 114467, Note_off_c, 0, 68, 64
2, 114503, Control_c, 0, 64, 127
2, 114564, Control_c, 0, 64, 0
2, 114614, Note_on_c, 0, 70, 70
2, 114614, Note_on_c, 0, 61, 73
2, 114614, Note_on_c, 0, 49, 64
2, 114621, Note_off_c, 0, 58, 64
2, 114623, Note_off_c, 0, 64, 64
2, 114625, Note_off_c, 0, 66, 64
2, 114631, Control_c, 0, 64, 127
2, 114647, Note_off_c, 0, 54, 64
2, 114659, Note_on_c, 0, 64, 71
2, 114669, Note_on_c, 0, 42, 74
2, 114672, Note_on_c, 0, 73, 64
2, 114684, Control_c, 0, 64, 0
2, 114694, Note_off_c, 0, 49, 64
2, 114694, Note_off_c, 0, 61, 64
2, 114694, Note_off_c, 0, 70, 64
2, 114720, Control_c, 0, 64, 127
2, 114765, Note_on_c, 0, 68, 64
2, 114768, Note_on_c, 0, 76, 62
2, 114790, Note_off_c, 0, 64, 64
2, 114792, Control_c, 0, 64, 0
2, 114803, Note_off_c, 0, 73, 64
2, 114830, Control_c, 0, 64, 127
2, 114866, Note_on_c, 0, 75, 65
2, 114873, Note_off_c, 0, 42, 64
2, 114880, Note_on_c, 0, 66, 73
2, 114880, Note_on_c, 0, 58, 58
2, 114880, Control_c, 0, 64, 0
2, 114892, Note_off_c, 0, 68, 64
2, 114895, Note_off_c, 0, 76, 64
2, 114918, Control_c, 0, 64, 127
2, 114964, Note_off_c, 0, 58, 64
2, 114972, Note_on_c, 0, 64, 71
2, 114975, Note_on_c, 0, 73, 58
2, 114983, Note_off_c, 0, 75, 64
2, 114987, Control_c, 0, 64, 0
2, 114997, Note_off_c, 0, 66, 64
2, 115043, Control_c, 0, 64, 127
2, 115082, Control_c, 0, 64, 0
2, 115084, Note_on_c, 0, 47, 57
2, 115085, Note_on_c, 0, 66, 74
2, 115088, Note_on_c, 0, 75, 73
2, 115104, Note_off_c, 0, 64, 64
2, 115107, Note_off_c, 0, 73, 64
2, 115122, Control_c, 0, 64, 127
2, 115188, Note_on_c, 0, 54, 70
2, 115193, Note_off_c, 0, 66, 64
2, 115196, Note_off_c, 0, 75, 64
2, 115196, Note_on_c, 0, 71, 47
2, 115196, Note_on_c, 0, 63, 51
2, 115224, Control_c, 0, 64, 0
2, 115260, Control_c, 0, 64, 127
2, 115275, Note_off_c, 0, 54, 64
2, 115284, Note_on_c, 0, 66, 69
2, 115284, Note_on_c, 0, 59, 69
2, 115287, Note_off_c, 0, 47, 64
2, 115289, Note_on_c, 0, 75, 74
2, 115292, Control_c, 0, 64, 0
2, 115304, Note_off_c, 0, 63, 64
2, 115304, Note_off_c, 0, 71, 64
2, 115344, Control_c, 0, 64, 127
2, 115420, Control_c, 0, 64, 0
2, 115448, Note_off_c, 0, 59, 64
2, 115448, Note_off_c, 0, 66, 64
2, 115453, Note_off_c, 0, 75, 64
2, 115456, Note_on_c, 0, 70, 56
2, 115458, Control_c, 0, 64, 127
2, 115458, Note_on_c, 0, 78, 41
2, 115494, Note_on_c, 0, 68, 58
2, 115495, Note_on_c, 0, 76, 67
2, 115497, Note_on_c, 0, 52, 64
2, 115507, Note_off_c, 0, 70, 64
2, 115509, Note_off_c, 0, 78, 64
2, 115517, Control_c, 0, 64, 0
2, 115551, Control_c, 0, 64, 127
2, 115622, Control_c, 0, 64, 0
2, 115662, Control_c, 0, 64, 127
2, 115710, Note_on_c, 0, 66, 64
2, 115712, Note_on_c, 0, 64, 64
2, 115713, Note_on_c, 0, 58, 67
2, 115717, Note_on_c, 0, 54, 58
2, 115724, Control_c, 0, 64, 0
2, 115742, Note_off_c, 0, 68, 64
2, 115743, Note_off_c, 0, 76, 64
2, 115745, Note_off_c, 0, 52, 64
2, 115759, Control_c, 0, 64, 127
2, 115832, Control_c, 0, 64, 0
2, 115854, Note_on_c, 0, 70, 71
2, 115854, Note_on_c, 0, 49, 69
2, 115858, Note_on_c, 0, 61, 75
2, 115863, Note_off_c, 0, 66, 64
2, 115865, Note_off_c, 0, 64, 64
2, 115866, Note_off_c, 0, 58, 64
2, 115884, Control_c, 0, 64, 127
2, 115894, Note_off_c, 0, 54, 64
2, 115911, Note_on_c, 0, 64, 71
2, 115917, Note_on_c, 0, 73, 71
2, 115921, Note_off_c, 0, 70, 64
2, 115925, Note_off_c, 0, 61, 64
2, 115932, Control_c, 0, 64, 0
2, 115946, Note_on_c, 0, 42, 58
2, 115975, Control_c, 0, 64, 127
2, 115994, Note_off_c, 0, 49, 64
2, 116014, Note_on_c, 0, 76, 62
2, 116014, Note_on_c, 0, 68, 63
2, 116036, Note_off_c, 0, 64, 64
2, 116042, Note_off_c, 0, 73, 64
2, 116057, Control_c, 0, 64, 0
2, 116091, Control_c, 0, 64, 127
2, 116110, Note_on_c, 0, 66, 80
2, 116110, Note_on_c, 0, 58, 63
2, 116112, Note_on_c, 0, 75, 73
2, 116124, Control_c, 0, 64, 0
2, 116126, Note_off_c, 0, 68, 64
2, 116126, Note_off_c, 0, 76, 64
2, 116133, Note_off_c, 0, 42, 64
2, 116150, Control_c, 0, 64, 127
2, 116218, Note_on_c, 0, 64, 81
2, 116220, Note_on_c, 0, 73, 51
2, 116228, Note_off_c, 0, 66, 64
2, 116230, Note_off_c, 0, 75, 64
2, 116248, Note_off_c, 0, 58, 64
2, 116264, Control_c, 0, 64, 0
2, 116299, Control_c, 0, 64, 127
2, 116315, Control_c, 0, 64, 0
2, 116321, Control_c, 0, 64, 127
2, 116322, Note_on_c, 0, 75, 82
2, 116323, Note_on_c, 0, 66, 86
2, 116324, Note_on_c, 0, 47, 71
2, 116324, Note_on_c, 0, 35, 71
2, 116331, Note_off_c, 0, 73, 64
2, 116336, Note_off_c, 0, 64, 64
2, 116361, Control_c, 0, 64, 127
2, 116436, Note_off_c, 0, 75, 64
2, 116437, Note_off_c, 0, 66, 64
2, 116472, Control_c, 0, 64, 0
2, 116476, Note_on_c, 0, 71, 63
2, 116476, Note_on_c, 0, 63, 36
2, 116476, Note_on_c, 0, 54, 66
2, 116512, Control_c, 0, 64, 0
2, 116515, Control_c, 0, 64, 127
2, 116520, Note_on_c, 0, 75, 83
2, 116524, Note_on_c, 0, 66, 71
2, 116524, Note_on_c, 0, 59, 79
2, 116529, Note_off_c, 0, 35, 64
2, 116532, Note_off_c, 0, 63, 64
2, 116532, Note_off_c, 0, 71, 64
2, 116539, Note_off_c, 0, 54, 64
2, 116558, Control_c, 0, 64, 127
2, 116600, Note_off_c, 0, 47, 64
2, 116664, Control_c, 0, 64, 0
2, 116690, Control_c, 0, 64, 127
2, 116726, Note_on_c, 0, 83, 79
2, 116732, Note_on_c, 0, 71, 83
2, 116734, Note_on_c, 0, 63, 80
2, 116760, Note_off_c, 0, 75, 64
2, 116764, Note_off_c, 0, 59, 64
2, 116764, Note_off_c, 0, 66, 64
2, 116855, Control_c, 0, 64, 0
2, 116861, Control_c, 0, 64, 127
2, 116901, Control_c, 0, 64, 127
2, 116930, Note_on_c, 0, 47, 79
2, 116934, Note_on_c, 0, 66, 92
2, 116936, Note_on_c, 0, 75, 83
2, 116940, Control_c, 0, 64, 0
2, 116966, Note_off_c, 0, 83, 64
2, 116970, Control_c, 0, 64, 127
2, 116972, Note_off_c, 0, 71, 64
2, 116974, Note_off_c, 0, 63, 64
2, 117052, Control_c, 0, 64, 0
2, 117056, Note_off_c, 0, 66, 64
2, 117058, Note_off_c, 0, 75, 64
2, 117084, Note_on_c, 0, 71, 36
2, 117086, Note_on_c, 0, 63, 67
2, 117088, Note_on_c, 0, 54, 72
2, 117098, Control_c, 0, 64, 127
2, 117140, Note_on_c, 0, 66, 75
2, 117140, Note_on_c, 0, 59, 83
2, 117141, Note_on_c, 0, 75, 83
2, 117142, Note_off_c, 0, 71, 64
2, 117144, Note_off_c, 0, 63, 64
2, 117151, Note_off_c, 0, 54, 64
2, 117204, Note_off_c, 0, 47, 64
2, 117340, Note_on_c, 0, 71, 89
2, 117340, Note_on_c, 0, 63, 80
2, 117344, Note_on_c, 0, 90, 88
2, 117344, Note_on_c, 0, 78, 89
2, 117380, Note_off_c, 0, 59, 64
2, 117380, Note_off_c, 0, 66, 64
2, 117381, Note_off_c, 0, 75, 64
2, 117480, Control_c, 0, 64, 0
2, 117510, Control_c, 0, 64, 127
2, 117549, Note_off_c, 0, 63, 64
2, 117549, Note_off_c, 0, 71, 64
2, 117566, Control_c, 0, 64, 0
2, 117572, Note_on_c, 0, 63, 83
2, 117572, Note_on_c, 0, 54, 63
2, 117572, Note_on_c, 0, 71, 69
2, 117576, Note_on_c, 0, 47, 73
2, 117584, Note_off_c, 0, 78, 64
2, 117584, Note_off_c, 0, 90, 64
2, 117595, Control_c, 0, 64, 127
2, 117812, Note_off_c, 0, 71, 64
2, 117818, Note_on_c, 0, 75, 75
2, 117818, Note_on_c, 0, 83, 81
2, 117820, Note_on_c, 0, 95, 83
2, 117822, Note_on_c, 0, 71, 66
2, 117822, Note_on_c, 0, 78, 79
2, 117826, Note_on_c, 0, 66, 74
2, 117999, Note_off_c, 0, 54, 64
2, 117999, Note_off_c, 0, 63, 64
2, 118003, Note_off_c, 0, 47, 64
2, 118106, Control_c, 0, 64, 0
2, 118135, Control_c, 0, 64, 127
2, 118268, Note_on_c, 0, 54, 85
2, 118268, Note_on_c, 0, 47, 92
2, 118270, Note_on_c, 0, 63, 90
2, 118276, Control_c, 0, 64, 0
2, 118322, Control_c, 0, 64, 127
2, 118407, Note_off_c, 0, 83, 64
2, 118407, Note_off_c, 0, 75, 64
2, 118409, Note_off_c, 0, 95, 64
2, 118411, Note_off_c, 0, 78, 64
2, 118411, Note_off_c, 0, 71, 64
2, 118415, Note_off_c, 0, 66, 64
2, 118457, Note_off_c, 0, 63, 64
2, 118459, Note_off_c, 0, 54, 64
2, 118476, Note_on_c, 0, 51, 81
2, 118480, Note_on_c, 0, 59, 74
2, 118480, Note_on_c, 0, 42, 74
2, 118521, Note_on_c, 0, 54, 85
2, 118525, Note_on_c, 0, 63, 94
2, 118525, Note_on_c, 0, 35, 85
2, 118557, Control_c, 0, 64, 0
2, 118592, Note_off_c, 0, 59, 64
2, 118623, Control_c, 0, 64, 127
2, 118816, Control_c, 0, 64, 0
2, 118862, Control_c, 0, 64, 127
2, 119097, Control_c, 0, 64, 0
2, 119163, Control_c, 0, 64, 127
2, 119360, Control_c, 0, 64, 0
2, 119392, Control_c, 0, 64, 127
2, 119447, Note_off_c, 0, 35, 64
2, 119447, Note_off_c, 0, 63, 64
2, 119450, Note_off_c, 0, 54, 64
2, 119481, Note_off_c, 0, 42, 64
2, 119483, Note_off_c, 0, 47, 64
2, 119484, Note_off_c, 0, 51, 64
2, 119608, Control_c, 0, 64, 0
2, 119755, Control_c, 0, 64, 0
