2, 0, Program_c, 0, 0
2, 0, Control_c, 0, 7, 127
2, 116, Control_c, 0, 64, 0
2, 340, Control_c, 0, 64, 127
2, 368, Control_c, 0, 64, 0
2, 592, Control_c, 0, 64, 127
2, 731, Control_c, 0, 64, 0
2, 768, Note_on_c, 0, 41, 61
2, 773, Note_on_c, 0, 48, 38
2, 864, Note_on_c, 0, 40, 71
2, 882, Note_off_c, 0, 41, 64
2, 964, Note_on_c, 0, 36, 59
2, 983, Control_c, 0, 64, 0
2, 988, Note_off_c, 0, 40, 64
2, 1236, Control_c, 0, 64, 127
2, 1455, Note_on_c, 0, 41, 54
2, 1477, Note_off_c, 0, 36, 64
2, 1488, Control_c, 0, 64, 127
2, 1680, Note_on_c, 0, 49, 46
2, 1726, Note_off_c, 0, 48, 64
2, 1919, Note_on_c, 0, 47, 45
2, 1957, Note_off_c, 0, 49, 64
2, 2141, Control_c, 0, 64, 0
2, 2184, Note_on_c, 0, 48, 41
2, 2193, Note_off_c, 0, 47, 64
2, 2308, Note_on_c, 0, 40, 41
2, 2332, Note_off_c, 0, 41, 64
2, 2367, Control_c, 0, 64, 127
2, 2393, Control_c, 0, 64, 0
2, 2413, Note_on_c, 0, 36, 48
2, 2448, Note_off_c, 0, 40, 64
2, 2619, Control_c, 0, 64, 127
2, 2875, Note_on_c, 0, 41, 54
2, 2907, Note_off_c, 0, 36, 64
2, 3126, Note_on_c, 0, 49, 41
2, 3178, Note_off_c, 0, 48, 64
2, 3347, Note_on_c, 0, 47, 46
2, 3365, Note_off_c, 0, 49, 64
2, 3600, Note_on_c, 0, 48, 52
2, 3633, Note_off_c, 0, 47, 64
2, 3712, Note_on_c, 0, 40, 48
2, 3757, Note_off_c, 0, 41, 64
2, 3832, Note_on_c, 0, 36, 41
2, 3849, Control_c, 0, 64, 0
2, 3854, Note_off_c, 0, 40, 64
2, 4078, Control_c, 0, 64, 127
2, 4101, Control_c, 0, 64, 0
2, 4323, Note_on_c, 0, 41, 48
2, 4327, Control_c, 0, 64, 0
2, 4330, Control_c, 0, 64, 127
2, 4368, Note_off_c, 0, 36, 64
2, 4419, Note_off_c, 0, 41, 64
2, 4524, Note_on_c, 0, 41, 46
2, 4579, Control_c, 0, 64, 0
2, 4638, Note_on_c, 0, 40, 54
2, 4656, Note_off_c, 0, 41, 64
2, 4718, Control_c, 0, 64, 127
2, 4739, Note_on_c, 0, 36, 45
2, 4766, Note_off_c, 0, 40, 64
2, 4917, Control_c, 0, 64, 0
2, 4959, Note_on_c, 0, 41, 47
2, 4970, Control_c, 0, 64, 127
2, 4999, Note_off_c, 0, 36, 64
2, 5045, Control_c, 0, 64, 127
2, 5070, Note_on_c, 0, 40, 54
2, 5083, Note_off_c, 0, 41, 64
2, 5169, Control_c, 0, 64, 0
2, 5176, Note_on_c, 0, 36, 43
2, 5205, Note_off_c, 0, 40, 64
2, 5297, Control_c, 0, 64, 127
2, 5329, Note_off_c, 0, 36, 64
2, 5410, Note_on_c, 0, 36, 43
2, 5634, Control_c, 0, 64, 0
2, 5635, Note_on_c, 0, 41, 46
2, 5666, Note_off_c, 0, 36, 64
2, 5677, Note_off_c, 0, 41, 64
2, 5744, Control_c, 0, 64, 127
2, 5764, Note_on_c, 0, 40, 43
2, 5806, Note_off_c, 0, 40, 64
2, 5856, Note_on_c, 0, 41, 54
2, 5886, Control_c, 0, 64, 0
2, 5898, Note_off_c, 0, 41, 64
2, 5977, Note_on_c, 0, 40, 58
2, 5996, Control_c, 0, 64, 127
2, 6019, Note_off_c, 0, 40, 64
2, 6080, Control_c, 0, 64, 127
2, 6098, Note_on_c, 0, 36, 55
2, 6130, Control_c, 0, 64, 0
2, 6140, Note_off_c, 0, 36, 64
2, 6198, Control_c, 0, 64, 127
2, 6219, Note_on_c, 0, 36, 55
2, 6237, Note_off_c, 0, 48, 64
2, 6261, Note_off_c, 0, 36, 64
2, 6332, Control_c, 0, 64, 127
2, 6372, Note_on_c, 0, 65, 45
2, 6380, Note_on_c, 0, 41, 27
2, 6382, Control_c, 0, 64, 0
2, 6386, Control_c, 0, 64, 0
2, 6422, Control_c, 0, 64, 127
2, 6445, Note_off_c, 0, 41, 64
2, 6450, Control_c, 0, 64, 127
2, 6564, Note_on_c, 0, 67, 35
2, 6588, Note_off_c, 0, 65, 64
2, 6605, Note_on_c, 0, 41, 33
2, 6611, Note_on_c, 0, 48, 37
2, 6628, Note_on_c, 0, 68, 46
2, 6631, Note_on_c, 0, 56, 46
2, 6638, Control_c, 0, 64, 0
2, 6664, Note_off_c, 0, 67, 64
2, 6674, Control_c, 0, 64, 127
2, 6687, Note_off_c, 0, 48, 64
2, 6687, Note_off_c, 0, 41, 64
2, 6688, Note_off_c, 0, 56, 64
2, 6720, Note_on_c, 0, 70, 48
2, 6747, Note_off_c, 0, 68, 64
2, 6801, Note_on_c, 0, 41, 39
2, 6808, Note_on_c, 0, 56, 33
2, 6816, Note_on_c, 0, 72, 52
2, 6818, Note_on_c, 0, 48, 20
2, 6839, Note_off_c, 0, 70, 64
2, 6870, Control_c, 0, 64, 0
2, 6893, Note_on_c, 0, 68, 62
2, 6924, Control_c, 0, 64, 127
2, 6929, Note_off_c, 0, 72, 64
2, 6949, Note_off_c, 0, 41, 64
2, 6966, Note_off_c, 0, 48, 64
2, 6970, Note_off_c, 0, 56, 64
2, 6973, Note_off_c, 0, 68, 64
2, 6986, Note_on_c, 0, 67, 44
2, 7011, Note_on_c, 0, 68, 50
2, 7041, Note_off_c, 0, 67, 64
2, 7060, Note_on_c, 0, 67, 48
2, 7082, Note_off_c, 0, 68, 64
2, 7122, Control_c, 0, 64, 0
2, 7129, Note_on_c, 0, 56, 41
2, 7135, Note_on_c, 0, 48, 31
2, 7135, Note_on_c, 0, 41, 27
2, 7157, Note_on_c, 0, 65, 44
2, 7169, Note_off_c, 0, 67, 64
2, 7176, Control_c, 0, 64, 127
2, 7195, Note_off_c, 0, 41, 64
2, 7200, Note_off_c, 0, 48, 64
2, 7216, Note_off_c, 0, 56, 64
2, 7240, Control_c, 0, 64, 0
2, 7253, Control_c, 0, 64, 127
2, 7318, Note_on_c, 0, 56, 36
2, 7321, Note_on_c, 0, 41, 40
2, 7325, Note_on_c, 0, 77, 52
2, 7330, Note_on_c, 0, 48, 35
2, 7390, Note_off_c, 0, 48, 64
2, 7394, Control_c, 0, 64, 0
2, 7403, Note_off_c, 0, 65, 64
2, 7404, Note_off_c, 0, 41, 64
2, 7448, Control_c, 0, 64, 127
2, 7452, Note_off_c, 0, 56, 64
2, 7488, Note_on_c, 0, 70, 57
2, 7492, Control_c, 0, 64, 0
2, 7500, Note_off_c, 0, 77, 64
2, 7505, Control_c, 0, 64, 127
2, 7583, Control_c, 0, 64, 0
2, 7604, Control_c, 0, 64, 127
2, 7612, Note_on_c, 0, 46, 46
2, 7619, Note_on_c, 0, 72, 53
2, 7641, Note_off_c, 0, 70, 64
2, 7646, Control_c, 0, 64, 0
2, 7660, Note_on_c, 0, 53, 27
2, 7662, Note_on_c, 0, 61, 46
2, 7668, Note_on_c, 0, 73, 62
2, 7700, Control_c, 0, 64, 127
2, 7704, Note_off_c, 0, 46, 64
2, 7704, Note_off_c, 0, 72, 64
2, 7727, Control_c, 0, 64, 0
2, 7751, Control_c, 0, 64, 127
2, 7754, Note_off_c, 0, 61, 64
2, 7760, Note_on_c, 0, 75, 54
2, 7776, Note_off_c, 0, 53, 64
2, 7794, Note_off_c, 0, 73, 64
2, 7813, Note_on_c, 0, 61, 63
2, 7820, Note_on_c, 0, 46, 55
2, 7827, Note_on_c, 0, 77, 61
2, 7828, Note_on_c, 0, 53, 27
2, 7835, Control_c, 0, 64, 0
2, 7856, Control_c, 0, 64, 127
2, 7865, Note_off_c, 0, 75, 64
2, 7881, Control_c, 0, 64, 0
2, 7904, Note_on_c, 0, 73, 68
2, 7914, Note_off_c, 0, 61, 64
2, 7924, Note_off_c, 0, 77, 64
2, 7934, Control_c, 0, 64, 127
2, 7940, Note_off_c, 0, 73, 64
2, 7944, Note_off_c, 0, 53, 64
2, 7944, Note_off_c, 0, 46, 64
2, 7979, Control_c, 0, 64, 0
2, 7986, Note_on_c, 0, 73, 67
2, 8003, Control_c, 0, 64, 127
2, 8027, Note_off_c, 0, 73, 64
2, 8028, Note_on_c, 0, 75, 58
2, 8055, Control_c, 0, 64, 0
2, 8065, Note_on_c, 0, 73, 66
2, 8092, Control_c, 0, 64, 127
2, 8102, Note_off_c, 0, 75, 64
2, 8133, Control_c, 0, 64, 0
2, 8141, Note_on_c, 0, 72, 58
2, 8145, Note_on_c, 0, 41, 28
2, 8146, Note_on_c, 0, 48, 52
2, 8151, Note_off_c, 0, 73, 64
2, 8151, Note_on_c, 0, 56, 55
2, 8177, Note_off_c, 0, 41, 64
2, 8184, Note_off_c, 0, 48, 64
2, 8186, Control_c, 0, 64, 127
2, 8193, Note_off_c, 0, 56, 64
2, 8206, Control_c, 0, 64, 0
2, 8245, Control_c, 0, 64, 127
2, 8291, Note_off_c, 0, 72, 64
2, 8300, Note_on_c, 0, 68, 59
2, 8300, Note_on_c, 0, 41, 55
2, 8307, Note_on_c, 0, 56, 61
2, 8307, Control_c, 0, 64, 0
2, 8314, Note_on_c, 0, 48, 44
2, 8344, Control_c, 0, 64, 127
2, 8379, Control_c, 0, 64, 0
2, 8399, Control_c, 0, 64, 127
2, 8458, Control_c, 0, 64, 0
2, 8464, Note_off_c, 0, 48, 64
2, 8464, Note_on_c, 0, 65, 58
2, 8472, Note_off_c, 0, 41, 64
2, 8474, Note_off_c, 0, 56, 64
2, 8492, Note_off_c, 0, 68, 64
2, 8497, Control_c, 0, 64, 127
2, 8533, Control_c, 0, 64, 0
2, 8563, Control_c, 0, 64, 127
2, 8592, Note_on_c, 0, 67, 58
2, 8601, Note_on_c, 0, 41, 58
2, 8613, Note_off_c, 0, 65, 64
2, 8622, Note_on_c, 0, 48, 28
2, 8629, Note_on_c, 0, 68, 61
2, 8631, Control_c, 0, 64, 0
2, 8637, Note_on_c, 0, 56, 62
2, 8651, Control_c, 0, 64, 127
2, 8669, Note_off_c, 0, 41, 64
2, 8672, Note_off_c, 0, 67, 64
2, 8672, Note_off_c, 0, 56, 64
2, 8673, Note_off_c, 0, 48, 64
2, 8697, Control_c, 0, 64, 0
2, 8714, Control_c, 0, 64, 127
2, 8719, Note_on_c, 0, 70, 54
2, 8749, Note_off_c, 0, 68, 64
2, 8784, Note_on_c, 0, 56, 67
2, 8785, Control_c, 0, 64, 0
2, 8791, Note_on_c, 0, 48, 55
2, 8791, Note_on_c, 0, 41, 54
2, 8798, Note_on_c, 0, 72, 57
2, 8815, Control_c, 0, 64, 127
2, 8826, Note_off_c, 0, 70, 64
2, 8846, Control_c, 0, 64, 0
2, 8857, Note_on_c, 0, 68, 74
2, 8886, Note_off_c, 0, 72, 64
2, 8886, Control_c, 0, 64, 127
2, 8902, Note_off_c, 0, 48, 64
2, 8925, Note_off_c, 0, 68, 64
2, 8936, Note_on_c, 0, 67, 58
2, 8949, Control_c, 0, 64, 0
2, 8955, Note_off_c, 0, 41, 64
2, 8960, Note_on_c, 0, 68, 67
2, 8963, Note_off_c, 0, 56, 64
2, 8966, Control_c, 0, 64, 127
2, 8981, Note_off_c, 0, 67, 64
2, 9004, Control_c, 0, 64, 0
2, 9007, Note_on_c, 0, 67, 63
2, 9018, Note_off_c, 0, 68, 64
2, 9030, Control_c, 0, 64, 127
2, 9094, Note_on_c, 0, 65, 55
2, 9098, Control_c, 0, 64, 0
2, 9102, Note_on_c, 0, 56, 66
2, 9103, Note_on_c, 0, 41, 57
2, 9109, Note_on_c, 0, 48, 52
2, 9135, Note_off_c, 0, 67, 64
2, 9138, Control_c, 0, 64, 127
2, 9145, Note_off_c, 0, 48, 64
2, 9146, Note_off_c, 0, 41, 64
2, 9151, Note_off_c, 0, 56, 64
2, 9173, Control_c, 0, 64, 0
2, 9187, Control_c, 0, 64, 127
2, 9254, Note_on_c, 0, 72, 65
2, 9254, Note_on_c, 0, 56, 52
2, 9256, Control_c, 0, 64, 0
2, 9263, Note_on_c, 0, 41, 53
2, 9275, Note_on_c, 0, 48, 40
2, 9282, Control_c, 0, 64, 127
2, 9289, Note_off_c, 0, 65, 64
2, 9313, Note_off_c, 0, 72, 64
2, 9328, Note_off_c, 0, 41, 64
2, 9332, Control_c, 0, 64, 0
2, 9341, Note_off_c, 0, 48, 64
2, 9354, Control_c, 0, 64, 127
2, 9360, Note_off_c, 0, 56, 64
2, 9390, Note_on_c, 0, 72, 68
2, 9419, Note_on_c, 0, 60, 70
2, 9425, Control_c, 0, 64, 0
2, 9432, Note_off_c, 0, 72, 64
2, 9439, Control_c, 0, 64, 127
2, 9491, Control_c, 0, 64, 0
2, 9522, Note_on_c, 0, 62, 55
2, 9526, Control_c, 0, 64, 127
2, 9547, Note_off_c, 0, 60, 64
2, 9576, Note_on_c, 0, 51, 57
2, 9577, Note_on_c, 0, 63, 61
2, 9577, Note_on_c, 0, 55, 46
2, 9582, Note_on_c, 0, 43, 46
2, 9584, Control_c, 0, 64, 0
2, 9606, Control_c, 0, 64, 127
2, 9620, Note_off_c, 0, 43, 64
2, 9622, Note_off_c, 0, 62, 64
2, 9624, Note_off_c, 0, 55, 64
2, 9629, Note_off_c, 0, 51, 64
2, 9635, Control_c, 0, 64, 0
2, 9658, Note_on_c, 0, 65, 63
2, 9674, Control_c, 0, 64, 127
2, 9697, Note_off_c, 0, 63, 64
2, 9737, Note_on_c, 0, 43, 54
2, 9743, Control_c, 0, 64, 0
2, 9749, Note_on_c, 0, 67, 68
2, 9749, Note_on_c, 0, 55, 48
2, 9750, Note_on_c, 0, 50, 33
2, 9771, Note_off_c, 0, 65, 64
2, 9778, Control_c, 0, 64, 127
2, 9794, Note_off_c, 0, 50, 64
2, 9794, Note_off_c, 0, 43, 64
2, 9815, Note_on_c, 0, 59, 68
2, 9817, Note_off_c, 0, 55, 64
2, 9830, Control_c, 0, 64, 0
2, 9832, Note_off_c, 0, 67, 64
2, 9868, Control_c, 0, 64, 127
2, 9887, Control_c, 0, 64, 0
2, 9904, Note_on_c, 0, 60, 70
2, 9923, Note_off_c, 0, 59, 64
2, 9926, Control_c, 0, 64, 127
2, 10045, Note_on_c, 0, 48, 61
2, 10060, Control_c, 0, 64, 0
2, 10065, Note_on_c, 0, 55, 62
2, 10082, Control_c, 0, 64, 0
2, 10087, Control_c, 0, 64, 127
2, 10090, Note_on_c, 0, 64, 65
2, 10120, Control_c, 0, 64, 127
2, 10123, Note_off_c, 0, 48, 64
2, 10135, Note_off_c, 0, 55, 64
2, 10143, Note_off_c, 0, 60, 64
2, 10149, Note_off_c, 0, 64, 64
2, 10194, Note_on_c, 0, 60, 63
2, 10256, Note_off_c, 0, 60, 64
2, 10263, Note_on_c, 0, 48, 27
2, 10271, Note_on_c, 0, 61, 67
2, 10271, Note_on_c, 0, 58, 55
2, 10284, Note_on_c, 0, 64, 45
2, 10301, Note_on_c, 0, 63, 67
2, 10310, Note_off_c, 0, 61, 64
2, 10312, Control_c, 0, 64, 0
2, 10334, Note_on_c, 0, 61, 65
2, 10339, Control_c, 0, 64, 127
2, 10355, Note_off_c, 0, 63, 64
2, 10362, Note_off_c, 0, 64, 64
2, 10386, Note_off_c, 0, 58, 64
2, 10395, Control_c, 0, 64, 0
2, 10409, Note_off_c, 0, 48, 64
2, 10424, Note_on_c, 0, 60, 65
2, 10450, Note_off_c, 0, 61, 64
2, 10450, Control_c, 0, 64, 127
2, 10500, Note_off_c, 0, 60, 64
2, 10505, Note_on_c, 0, 65, 50
2, 10574, Control_c, 0, 64, 0
2, 10620, Control_c, 0, 64, 127
2, 10625, Note_on_c, 0, 67, 54
2, 10640, Note_off_c, 0, 65, 64
2, 10647, Note_on_c, 0, 41, 40
2, 10647, Control_c, 0, 64, 0
2, 10658, Note_on_c, 0, 68, 53
2, 10664, Note_on_c, 0, 48, 48
2, 10671, Note_on_c, 0, 56, 57
2, 10689, Note_off_c, 0, 67, 64
2, 10702, Control_c, 0, 64, 127
2, 10712, Note_off_c, 0, 41, 64
2, 10716, Note_off_c, 0, 48, 64
2, 10723, Note_off_c, 0, 56, 64
2, 10729, Control_c, 0, 64, 0
2, 10747, Note_on_c, 0, 70, 46
2, 10775, Control_c, 0, 64, 127
2, 10779, Note_off_c, 0, 68, 64
2, 10823, Note_on_c, 0, 41, 46
2, 10826, Control_c, 0, 64, 0
2, 10830, Note_on_c, 0, 72, 54
2, 10830, Note_on_c, 0, 56, 33
2, 10840, Note_on_c, 0, 48, 31
2, 10863, Note_off_c, 0, 70, 64
2, 10872, Control_c, 0, 64, 127
2, 10885, Note_on_c, 0, 68, 63
2, 10907, Control_c, 0, 64, 0
2, 10909, Note_off_c, 0, 72, 64
2, 10933, Control_c, 0, 64, 127
2, 10944, Note_off_c, 0, 68, 64
2, 10972, Note_on_c, 0, 67, 59
2, 10981, Control_c, 0, 64, 0
2, 10987, Note_off_c, 0, 41, 64
2, 10987, Note_on_c, 0, 68, 65
2, 10992, Note_off_c, 0, 48, 64
2, 10995, Note_off_c, 0, 67, 64
2, 11003, Note_off_c, 0, 56, 64
2, 11023, Note_on_c, 0, 67, 58
2, 11027, Control_c, 0, 64, 127
2, 11053, Note_off_c, 0, 68, 64
2, 11072, Control_c, 0, 64, 0
2, 11103, Control_c, 0, 64, 127
2, 11142, Note_on_c, 0, 41, 40
2, 11148, Note_on_c, 0, 65, 50
2, 11154, Note_on_c, 0, 56, 37
2, 11159, Control_c, 0, 64, 0
2, 11164, Note_on_c, 0, 48, 26
2, 11172, Note_off_c, 0, 67, 64
2, 11185, Control_c, 0, 64, 127
2, 11210, Note_off_c, 0, 48, 64
2, 11210, Note_off_c, 0, 41, 64
2, 11220, Note_off_c, 0, 56, 64
2, 11321, Note_on_c, 0, 56, 50
2, 11322, Note_on_c, 0, 41, 52
2, 11324, Note_on_c, 0, 77, 59
2, 11324, Control_c, 0, 64, 0
2, 11332, Note_on_c, 0, 48, 49
2, 11355, Control_c, 0, 64, 127
2, 11381, Note_off_c, 0, 77, 64
2, 11383, Note_off_c, 0, 41, 64
2, 11391, Note_off_c, 0, 48, 64
2, 11402, Control_c, 0, 64, 0
2, 11404, Note_off_c, 0, 65, 64
2, 11436, Control_c, 0, 64, 127
2, 11460, Note_off_c, 0, 56, 64
2, 11473, Note_on_c, 0, 70, 61
2, 11547, Control_c, 0, 64, 0
2, 11580, Control_c, 0, 64, 127
2, 11602, Note_on_c, 0, 72, 57
2, 11609, Note_off_c, 0, 70, 64
2, 11617, Note_on_c, 0, 46, 53
2, 11633, Note_on_c, 0, 61, 46
2, 11637, Note_on_c, 0, 53, 46
2, 11643, Note_on_c, 0, 73, 63
2, 11654, Control_c, 0, 64, 0
2, 11678, Note_off_c, 0, 72, 64
2, 11683, Note_off_c, 0, 46, 64
2, 11688, Control_c, 0, 64, 127
2, 11693, Control_c, 0, 64, 0
2, 11695, Note_off_c, 0, 53, 64
2, 11701, Note_off_c, 0, 61, 64
2, 11723, Note_on_c, 0, 75, 63
2, 11734, Control_c, 0, 64, 127
2, 11752, Note_off_c, 0, 73, 64
2, 11798, Note_on_c, 0, 77, 62
2, 11799, Control_c, 0, 64, 0
2, 11807, Note_on_c, 0, 61, 52
2, 11809, Note_on_c, 0, 53, 50
2, 11809, Note_on_c, 0, 46, 57
2, 11822, Note_off_c, 0, 75, 64
2, 11832, Control_c, 0, 64, 127
2, 11853, Control_c, 0, 64, 0
2, 11875, Note_off_c, 0, 77, 64
2, 11875, Note_on_c, 0, 73, 65
2, 11881, Note_off_c, 0, 53, 64
2, 11887, Note_off_c, 0, 61, 64
2, 11897, Control_c, 0, 64, 127
2, 11910, Note_off_c, 0, 73, 64
2, 11927, Note_off_c, 0, 46, 64
2, 11945, Control_c, 0, 64, 0
2, 11951, Note_on_c, 0, 73, 68
2, 11974, Note_on_c, 0, 75, 66
2, 11986, Control_c, 0, 64, 127
2, 11995, Note_off_c, 0, 73, 64
2, 12018, Note_on_c, 0, 73, 55
2, 12035, Note_off_c, 0, 75, 64
2, 12036, Control_c, 0, 64, 0
2, 12067, Control_c, 0, 64, 127
2, 12105, Control_c, 0, 64, 0
2, 12113, Note_on_c, 0, 72, 58
2, 12113, Note_on_c, 0, 56, 54
2, 12113, Note_on_c, 0, 41, 50
2, 12123, Note_on_c, 0, 48, 40
2, 12136, Note_off_c, 0, 73, 64
2, 12149, Note_off_c, 0, 41, 64
2, 12149, Control_c, 0, 64, 127
2, 12159, Note_off_c, 0, 48, 64
2, 12162, Note_off_c, 0, 56, 64
2, 12204, Control_c, 0, 64, 0
2, 12229, Control_c, 0, 64, 127
2, 12283, Note_on_c, 0, 68, 59
2, 12288, Note_on_c, 0, 41, 55
2, 12288, Control_c, 0, 64, 0
2, 12292, Note_on_c, 0, 56, 49
2, 12299, Note_on_c, 0, 48, 37
2, 12300, Note_off_c, 0, 72, 64
2, 12319, Control_c, 0, 64, 127
2, 12349, Note_off_c, 0, 48, 64
2, 12355, Control_c, 0, 64, 0
2, 12385, Control_c, 0, 64, 127
2, 12447, Note_on_c, 0, 65, 58
2, 12456, Control_c, 0, 64, 0
2, 12460, Note_off_c, 0, 68, 64
2, 12464, Note_off_c, 0, 41, 64
2, 12466, Note_off_c, 0, 56, 64
2, 12481, Control_c, 0, 64, 127
2, 12519, Control_c, 0, 64, 0
2, 12551, Control_c, 0, 64, 127
2, 12572, Note_on_c, 0, 67, 62
2, 12594, Note_off_c, 0, 65, 64
2, 12607, Control_c, 0, 64, 0
2, 12612, Note_on_c, 0, 56, 72
2, 12612, Note_on_c, 0, 41, 40
2, 12617, Note_on_c, 0, 68, 62
2, 12617, Note_on_c, 0, 48, 58
2, 12637, Control_c, 0, 64, 127
2, 12642, Note_off_c, 0, 41, 64
2, 12644, Note_off_c, 0, 48, 64
2, 12648, Note_off_c, 0, 56, 64
2, 12648, Note_off_c, 0, 67, 64
2, 12699, Note_on_c, 0, 70, 62
2, 12727, Note_off_c, 0, 68, 64
2, 12767, Note_on_c, 0, 41, 59
2, 12771, Note_on_c, 0, 56, 70
2, 12771, Control_c, 0, 64, 0
2, 12777, Note_on_c, 0, 48, 35
2, 12781, Note_on_c, 0, 72, 65
2, 12792, Note_on_c, 0, 65, 24
2, 12803, Control_c, 0, 64, 127
2, 12816, Note_off_c, 0, 70, 64
2, 12835, Note_off_c, 0, 48, 64
2, 12843, Note_on_c, 0, 68, 68
2, 12855, Control_c, 0, 64, 0
2, 12866, Note_off_c, 0, 72, 64
2, 12870, Control_c, 0, 64, 127
2, 12872, Note_off_c, 0, 65, 64
2, 12902, Note_off_c, 0, 68, 64
2, 12925, Note_on_c, 0, 67, 52
2, 12935, Note_off_c, 0, 41, 64
2, 12939, Note_off_c, 0, 56, 64
2, 12942, Note_on_c, 0, 68, 75
2, 12962, Note_off_c, 0, 67, 64
2, 12985, Note_on_c, 0, 67, 67
2, 13003, Note_off_c, 0, 68, 64
2, 13092, Note_on_c, 0, 56, 52
2, 13099, Note_on_c, 0, 65, 62
2, 13099, Note_on_c, 0, 41, 57
2, 13107, Control_c, 0, 64, 0
2, 13111, Note_on_c, 0, 48, 40
2, 13116, Note_off_c, 0, 67, 64
2, 13122, Control_c, 0, 64, 127
2, 13152, Note_off_c, 0, 48, 64
2, 13152, Note_off_c, 0, 41, 64
2, 13166, Note_off_c, 0, 56, 64
2, 13167, Control_c, 0, 64, 0
2, 13223, Control_c, 0, 64, 127
2, 13265, Note_on_c, 0, 56, 62
2, 13265, Note_on_c, 0, 41, 62
2, 13272, Note_on_c, 0, 72, 68
2, 13273, Note_on_c, 0, 48, 65
2, 13294, Note_off_c, 0, 65, 64
2, 13318, Note_off_c, 0, 72, 64
2, 13320, Note_off_c, 0, 41, 64
2, 13324, Note_off_c, 0, 48, 64
2, 13342, Control_c, 0, 64, 0
2, 13363, Note_off_c, 0, 56, 64
2, 13383, Control_c, 0, 64, 127
2, 13400, Note_on_c, 0, 72, 74
2, 13419, Control_c, 0, 64, 0
2, 13440, Note_on_c, 0, 60, 75
2, 13445, Note_off_c, 0, 72, 64
2, 13475, Control_c, 0, 64, 127
2, 13514, Control_c, 0, 64, 0
2, 13557, Note_on_c, 0, 62, 59
2, 13572, Control_c, 0, 64, 127
2, 13575, Note_off_c, 0, 60, 64
2, 13590, Note_on_c, 0, 51, 61
2, 13594, Control_c, 0, 64, 0
2, 13598, Note_on_c, 0, 55, 49
2, 13600, Note_on_c, 0, 43, 57
2, 13606, Note_on_c, 0, 63, 63
2, 13635, Control_c, 0, 64, 127
2, 13648, Note_off_c, 0, 51, 64
2, 13651, Note_off_c, 0, 43, 64
2, 13652, Note_off_c, 0, 55, 64
2, 13662, Note_off_c, 0, 62, 64
2, 13680, Control_c, 0, 64, 0
2, 13688, Note_on_c, 0, 65, 62
2, 13700, Note_off_c, 0, 63, 64
2, 13757, Control_c, 0, 64, 127
2, 13766, Control_c, 0, 64, 0
2, 13775, Note_on_c, 0, 43, 55
2, 13779, Note_on_c, 0, 67, 71
2, 13779, Note_on_c, 0, 55, 45
2, 13779, Note_on_c, 0, 50, 57
2, 13809, Note_off_c, 0, 65, 64
2, 13817, Note_off_c, 0, 50, 64
2, 13819, Note_off_c, 0, 43, 64
2, 13824, Control_c, 0, 64, 127
2, 13849, Note_on_c, 0, 59, 67
2, 13855, Note_off_c, 0, 55, 64
2, 13862, Control_c, 0, 64, 0
2, 13872, Note_off_c, 0, 67, 64
2, 13898, Control_c, 0, 64, 127
2, 13932, Control_c, 0, 64, 0
2, 13946, Note_on_c, 0, 60, 72
2, 13960, Note_off_c, 0, 59, 64
2, 14009, Control_c, 0, 64, 127
2, 14114, Control_c, 0, 64, 0
2, 14126, Note_on_c, 0, 48, 79
2, 14150, Control_c, 0, 64, 127
2, 14319, Note_on_c, 0, 72, 37
2, 14374, Control_c, 0, 64, 0
2, 14424, Control_c, 0, 64, 127
2, 14479, Note_on_c, 0, 70, 35
2, 14490, Note_off_c, 0, 72, 64
2, 14520, Note_off_c, 0, 60, 64
2, 14552, Control_c, 0, 64, 0
2, 14561, Note_on_c, 0, 68, 28
2, 14571, Control_c, 0, 64, 127
2, 14603, Note_off_c, 0, 70, 64
2, 14626, Control_c, 0, 64, 0
2, 14638, Note_on_c, 0, 67, 40
2, 14641, Note_on_c, 0, 60, 39
2, 14656, Note_off_c, 0, 68, 64
2, 14657, Note_off_c, 0, 48, 64
2, 14676, Control_c, 0, 64, 127
2, 14715, Note_off_c, 0, 60, 64
2, 14728, Control_c, 0, 64, 0
2, 14751, Control_c, 0, 64, 127
2, 14793, Note_off_c, 0, 67, 64
2, 14804, Note_on_c, 0, 60, 35
2, 14804, Control_c, 0, 64, 0
2, 14813, Note_on_c, 0, 67, 37
2, 14823, Control_c, 0, 64, 127
2, 14877, Note_off_c, 0, 60, 64
2, 14878, Note_on_c, 0, 68, 39
2, 14880, Control_c, 0, 64, 0
2, 14892, Control_c, 0, 64, 127
2, 14906, Note_off_c, 0, 67, 64
2, 14963, Note_on_c, 0, 65, 35
2, 14963, Note_on_c, 0, 60, 32
2, 14967, Note_on_c, 0, 53, 31
2, 14970, Note_on_c, 0, 56, 24
2, 14980, Control_c, 0, 64, 0
2, 14997, Note_off_c, 0, 68, 64
2, 15003, Control_c, 0, 64, 127
2, 15015, Note_off_c, 0, 56, 64
2, 15019, Note_off_c, 0, 53, 64
2, 15025, Note_off_c, 0, 60, 64
2, 15043, Note_on_c, 0, 67, 33
2, 15071, Note_off_c, 0, 65, 64
2, 15118, Note_on_c, 0, 56, 26
2, 15121, Note_on_c, 0, 68, 42
2, 15125, Note_on_c, 0, 60, 28
2, 15127, Note_on_c, 0, 53, 32
2, 15132, Control_c, 0, 64, 0
2, 15144, Control_c, 0, 64, 127
2, 15163, Note_off_c, 0, 67, 64
2, 15164, Note_off_c, 0, 56, 64
2, 15167, Note_off_c, 0, 53, 64
2, 15177, Note_off_c, 0, 60, 64
2, 15215, Control_c, 0, 64, 0
2, 15253, Control_c, 0, 64, 127
2, 15270, Note_off_c, 0, 68, 64
2, 15291, Note_on_c, 0, 68, 44
2, 15295, Note_on_c, 0, 56, 22
2, 15300, Note_on_c, 0, 60, 26
2, 15302, Note_on_c, 0, 53, 22
2, 15347, Note_off_c, 0, 53, 64
2, 15356, Note_off_c, 0, 56, 64
2, 15359, Note_off_c, 0, 60, 64
2, 15368, Note_on_c, 0, 72, 37
2, 15393, Note_off_c, 0, 68, 64
2, 15451, Note_on_c, 0, 70, 33
2, 15454, Note_on_c, 0, 53, 28
2, 15458, Note_on_c, 0, 60, 29
2, 15459, Note_on_c, 0, 55, 32
2, 15467, Control_c, 0, 64, 0
2, 15474, Note_off_c, 0, 72, 64
2, 15503, Note_off_c, 0, 53, 64
2, 15505, Control_c, 0, 64, 127
2, 15519, Note_off_c, 0, 55, 64
2, 15525, Control_c, 0, 64, 0
2, 15526, Note_on_c, 0, 68, 39
2, 15528, Note_off_c, 0, 60, 64
2, 15545, Note_off_c, 0, 70, 64
2, 15564, Note_on_c, 0, 67, 28
2, 15567, Control_c, 0, 64, 127
2, 15578, Note_off_c, 0, 68, 64
2, 15592, Note_on_c, 0, 68, 50
2, 15602, Note_off_c, 0, 67, 64
2, 15620, Note_on_c, 0, 60, 32
2, 15624, Note_on_c, 0, 67, 37
2, 15624, Note_on_c, 0, 53, 26
2, 15628, Note_on_c, 0, 58, 37
2, 15650, Note_off_c, 0, 68, 64
2, 15669, Note_off_c, 0, 53, 64
2, 15683, Control_c, 0, 64, 0
2, 15686, Note_off_c, 0, 58, 64
2, 15697, Note_off_c, 0, 60, 64
2, 15722, Note_on_c, 0, 65, 42
2, 15736, Control_c, 0, 64, 127
2, 15738, Note_off_c, 0, 67, 64
2, 15777, Control_c, 0, 64, 0
2, 15782, Note_on_c, 0, 67, 42
2, 15786, Note_on_c, 0, 58, 37
2, 15792, Note_on_c, 0, 60, 33
2, 15792, Note_on_c, 0, 53, 31
2, 15814, Note_off_c, 0, 65, 64
2, 15819, Control_c, 0, 64, 127
2, 15842, Note_off_c, 0, 53, 64
2, 15842, Note_off_c, 0, 58, 64
2, 15845, Note_off_c, 0, 60, 64
2, 15863, Note_on_c, 0, 68, 42
2, 15888, Note_off_c, 0, 67, 64
2, 15935, Control_c, 0, 64, 0
2, 15943, Note_on_c, 0, 65, 46
2, 15943, Note_on_c, 0, 53, 37
2, 15949, Note_on_c, 0, 60, 26
2, 15956, Note_on_c, 0, 56, 28
2, 15973, Note_off_c, 0, 68, 64
2, 15988, Control_c, 0, 64, 127
2, 16005, Note_off_c, 0, 56, 64
2, 16011, Note_off_c, 0, 53, 64
2, 16024, Note_off_c, 0, 60, 64
2, 16048, Note_on_c, 0, 67, 37
2, 16072, Note_off_c, 0, 65, 64
2, 16095, Note_on_c, 0, 68, 48
2, 16109, Note_on_c, 0, 56, 42
2, 16109, Note_on_c, 0, 53, 39
2, 16116, Note_on_c, 0, 60, 39
2, 16140, Note_off_c, 0, 67, 64
2, 16162, Note_off_c, 0, 56, 64
2, 16164, Note_off_c, 0, 53, 64
2, 16177, Note_off_c, 0, 60, 64
2, 16177, Note_on_c, 0, 70, 41
2, 16214, Note_off_c, 0, 68, 64
2, 16214, Control_c, 0, 64, 0
2, 16243, Control_c, 0, 64, 127
2, 16260, Note_on_c, 0, 58, 37
2, 16268, Note_on_c, 0, 56, 18
2, 16268, Note_on_c, 0, 53, 35
2, 16270, Note_on_c, 0, 72, 45
2, 16288, Note_off_c, 0, 70, 64
2, 16309, Note_off_c, 0, 53, 64
2, 16345, Note_on_c, 0, 73, 48
2, 16359, Note_off_c, 0, 58, 64
2, 16371, Note_off_c, 0, 56, 64
2, 16380, Note_off_c, 0, 72, 64
2, 16389, Note_off_c, 0, 73, 64
2, 16395, Control_c, 0, 64, 0
2, 16431, Note_on_c, 0, 73, 50
2, 16433, Control_c, 0, 64, 127
2, 16466, Control_c, 0, 64, 0
2, 16473, Note_on_c, 0, 39, 53
2, 16479, Note_on_c, 0, 77, 45
2, 16485, Note_off_c, 0, 73, 64
2, 16495, Control_c, 0, 64, 127
2, 16557, Note_on_c, 0, 75, 54
2, 16600, Note_off_c, 0, 77, 64
2, 16628, Note_on_c, 0, 61, 40
2, 16632, Note_on_c, 0, 55, 35
2, 16632, Note_on_c, 0, 51, 42
2, 16637, Note_on_c, 0, 73, 58
2, 16645, Note_off_c, 0, 75, 64
2, 16647, Control_c, 0, 64, 0
2, 16669, Note_on_c, 0, 75, 53
2, 16682, Note_off_c, 0, 73, 64
2, 16684, Note_off_c, 0, 55, 64
2, 16685, Control_c, 0, 64, 127
2, 16698, Note_off_c, 0, 51, 64
2, 16699, Note_off_c, 0, 61, 64
2, 16702, Note_on_c, 0, 73, 49
2, 16725, Note_off_c, 0, 75, 64
2, 16725, Control_c, 0, 64, 0
2, 16748, Control_c, 0, 64, 127
2, 16758, Note_off_c, 0, 39, 64
2, 16786, Note_on_c, 0, 72, 49
2, 16788, Note_off_c, 0, 73, 64
2, 16799, Note_on_c, 0, 61, 40
2, 16805, Note_on_c, 0, 55, 35
2, 16807, Note_on_c, 0, 51, 36
2, 16857, Note_off_c, 0, 55, 64
2, 16865, Note_off_c, 0, 51, 64
2, 16866, Note_on_c, 0, 70, 58
2, 16870, Note_off_c, 0, 61, 64
2, 16889, Control_c, 0, 64, 0
2, 16892, Note_off_c, 0, 72, 64
2, 16907, Control_c, 0, 64, 127
2, 16961, Note_on_c, 0, 44, 46
2, 16963, Note_on_c, 0, 68, 55
2, 16967, Note_off_c, 0, 70, 64
2, 16977, Control_c, 0, 64, 0
2, 17000, Control_c, 0, 64, 127
2, 17039, Note_on_c, 0, 70, 55
2, 17061, Note_off_c, 0, 68, 64
2, 17121, Note_on_c, 0, 72, 50
2, 17129, Note_on_c, 0, 56, 36
2, 17131, Note_on_c, 0, 51, 31
2, 17134, Note_on_c, 0, 60, 28
2, 17141, Control_c, 0, 64, 0
2, 17153, Note_off_c, 0, 70, 64
2, 17159, Control_c, 0, 64, 127
2, 17179, Note_off_c, 0, 51, 64
2, 17182, Note_off_c, 0, 60, 64
2, 17182, Note_off_c, 0, 56, 64
2, 17206, Control_c, 0, 64, 0
2, 17229, Control_c, 0, 64, 127
2, 17248, Note_off_c, 0, 44, 64
2, 17260, Note_off_c, 0, 72, 64
2, 17290, Note_on_c, 0, 72, 48
2, 17290, Note_on_c, 0, 60, 39
2, 17298, Note_on_c, 0, 56, 35
2, 17298, Note_on_c, 0, 51, 42
2, 17333, Note_off_c, 0, 60, 64
2, 17341, Note_off_c, 0, 51, 64
2, 17347, Note_off_c, 0, 56, 64
2, 17354, Control_c, 0, 64, 0
2, 17356, Note_on_c, 0, 73, 48
2, 17388, Control_c, 0, 64, 127
2, 17402, Note_off_c, 0, 72, 64
2, 17442, Note_on_c, 0, 77, 49
2, 17442, Note_on_c, 0, 39, 54
2, 17454, Note_off_c, 0, 73, 64
2, 17458, Control_c, 0, 64, 0
2, 17481, Control_c, 0, 64, 127
2, 17544, Note_on_c, 0, 75, 49
2, 17556, Note_off_c, 0, 77, 64
2, 17592, Note_on_c, 0, 73, 65
2, 17606, Note_on_c, 0, 51, 41
2, 17606, Control_c, 0, 64, 0
2, 17608, Note_off_c, 0, 75, 64
2, 17621, Note_on_c, 0, 61, 24
2, 17622, Note_on_c, 0, 55, 27
2, 17628, Note_on_c, 0, 75, 57
2, 17640, Control_c, 0, 64, 127
2, 17644, Note_off_c, 0, 73, 64
2, 17655, Note_on_c, 0, 73, 58
2, 17662, Note_off_c, 0, 55, 64
2, 17663, Note_off_c, 0, 51, 64
2, 17664, Note_off_c, 0, 61, 64
2, 17667, Control_c, 0, 64, 0
2, 17673, Note_off_c, 0, 75, 64
2, 17680, Control_c, 0, 64, 127
2, 17718, Note_off_c, 0, 39, 64
2, 17741, Note_on_c, 0, 72, 54
2, 17745, Note_on_c, 0, 61, 41
2, 17752, Note_on_c, 0, 55, 36
2, 17757, Note_on_c, 0, 51, 39
2, 17768, Note_off_c, 0, 73, 64
2, 17780, Note_off_c, 0, 61, 64
2, 17786, Note_off_c, 0, 55, 64
2, 17795, Note_off_c, 0, 51, 64
2, 17818, Note_on_c, 0, 70, 62
2, 17834, Note_off_c, 0, 72, 64
2, 17892, Note_on_c, 0, 68, 53
2, 17897, Note_on_c, 0, 44, 49
2, 17914, Note_off_c, 0, 70, 64
2, 17919, Control_c, 0, 64, 0
2, 17932, Control_c, 0, 64, 127
2, 17959, Note_on_c, 0, 70, 46
2, 17980, Note_off_c, 0, 68, 64
2, 17982, Control_c, 0, 64, 0
2, 18033, Control_c, 0, 64, 127
2, 18044, Note_on_c, 0, 72, 50
2, 18056, Note_on_c, 0, 51, 54
2, 18066, Note_on_c, 0, 56, 36
2, 18067, Note_on_c, 0, 60, 35
2, 18069, Note_off_c, 0, 70, 64
2, 18132, Note_on_c, 0, 52, 54
2, 18154, Control_c, 0, 64, 0
2, 18180, Note_off_c, 0, 56, 64
2, 18181, Note_off_c, 0, 60, 64
2, 18181, Note_off_c, 0, 44, 64
2, 18184, Note_off_c, 0, 51, 64
2, 18184, Control_c, 0, 64, 127
2, 18212, Note_on_c, 0, 53, 49
2, 18216, Note_on_c, 0, 60, 54
2, 18216, Note_on_c, 0, 56, 35
2, 18230, Note_off_c, 0, 52, 64
2, 18234, Control_c, 0, 64, 0
2, 18275, Note_off_c, 0, 56, 64
2, 18276, Note_off_c, 0, 60, 64
2, 18285, Control_c, 0, 64, 127
2, 18289, Note_off_c, 0, 53, 64
2, 18324, Control_c, 0, 64, 0
2, 18331, Note_off_c, 0, 72, 64
2, 18348, Control_c, 0, 64, 127
2, 18394, Note_on_c, 0, 60, 35
2, 18406, Note_on_c, 0, 70, 41
2, 18406, Control_c, 0, 64, 0
2, 18413, Note_on_c, 0, 53, 31
2, 18416, Note_on_c, 0, 55, 22
2, 18436, Control_c, 0, 64, 127
2, 18459, Control_c, 0, 64, 0
2, 18478, Note_off_c, 0, 55, 64
2, 18483, Note_off_c, 0, 60, 64
2, 18485, Note_off_c, 0, 53, 64
2, 18492, Note_on_c, 0, 68, 33
2, 18504, Control_c, 0, 64, 127
2, 18522, Note_off_c, 0, 70, 64
2, 18558, Note_on_c, 0, 58, 37
2, 18563, Note_on_c, 0, 60, 33
2, 18567, Note_on_c, 0, 67, 42
2, 18570, Note_on_c, 0, 53, 28
2, 18576, Control_c, 0, 64, 0
2, 18591, Note_off_c, 0, 68, 64
2, 18598, Note_off_c, 0, 53, 64
2, 18600, Note_off_c, 0, 58, 64
2, 18600, Control_c, 0, 64, 127
2, 18609, Note_off_c, 0, 60, 64
2, 18623, Control_c, 0, 64, 0
2, 18676, Control_c, 0, 64, 127
2, 18710, Note_off_c, 0, 67, 64
2, 18711, Control_c, 0, 64, 0
2, 18722, Note_on_c, 0, 58, 40
2, 18727, Note_on_c, 0, 60, 36
2, 18732, Note_on_c, 0, 67, 46
2, 18732, Note_on_c, 0, 53, 28
2, 18756, Control_c, 0, 64, 127
2, 18768, Note_off_c, 0, 60, 64
2, 18771, Note_off_c, 0, 58, 64
2, 18776, Control_c, 0, 64, 0
2, 18779, Note_off_c, 0, 53, 64
2, 18800, Note_on_c, 0, 68, 40
2, 18816, Control_c, 0, 64, 127
2, 18825, Note_off_c, 0, 67, 64
2, 18875, Control_c, 0, 64, 0
2, 18884, Note_on_c, 0, 65, 41
2, 18887, Note_on_c, 0, 56, 33
2, 18888, Note_on_c, 0, 60, 22
2, 18894, Note_on_c, 0, 53, 28
2, 18901, Note_off_c, 0, 68, 64
2, 18928, Control_c, 0, 64, 127
2, 18932, Note_off_c, 0, 53, 64
2, 18932, Note_off_c, 0, 56, 64
2, 18937, Note_off_c, 0, 60, 64
2, 18960, Note_on_c, 0, 67, 42
2, 18966, Control_c, 0, 64, 0
2, 18981, Control_c, 0, 64, 127
2, 18996, Note_off_c, 0, 65, 64
2, 19028, Control_c, 0, 64, 0
2, 19045, Note_on_c, 0, 60, 28
2, 19046, Note_on_c, 0, 56, 28
2, 19051, Note_on_c, 0, 68, 45
2, 19051, Note_on_c, 0, 53, 28
2, 19068, Control_c, 0, 64, 127
2, 19080, Note_off_c, 0, 67, 64
2, 19093, Note_off_c, 0, 53, 64
2, 19093, Note_off_c, 0, 56, 64
2, 19095, Note_off_c, 0, 60, 64
2, 19125, Control_c, 0, 64, 0
2, 19138, Control_c, 0, 64, 127
2, 19188, Note_off_c, 0, 68, 64
2, 19203, Note_on_c, 0, 68, 52
2, 19208, Note_on_c, 0, 56, 32
2, 19212, Note_on_c, 0, 53, 27
2, 19216, Note_on_c, 0, 60, 23
2, 19218, Control_c, 0, 64, 0
2, 19233, Control_c, 0, 64, 127
2, 19261, Note_off_c, 0, 53, 64
2, 19261, Note_off_c, 0, 56, 64
2, 19271, Note_off_c, 0, 60, 64
2, 19281, Control_c, 0, 64, 0
2, 19284, Note_on_c, 0, 72, 44
2, 19293, Note_off_c, 0, 68, 64
2, 19303, Control_c, 0, 64, 127
2, 19353, Note_on_c, 0, 70, 45
2, 19359, Note_on_c, 0, 60, 20
2, 19360, Note_on_c, 0, 53, 14
2, 19361, Note_on_c, 0, 55, 24
2, 19367, Note_off_c, 0, 72, 64
2, 19377, Control_c, 0, 64, 0
2, 19390, Control_c, 0, 64, 127
2, 19402, Note_off_c, 0, 53, 64
2, 19413, Note_off_c, 0, 55, 64
2, 19420, Note_off_c, 0, 60, 64
2, 19431, Note_on_c, 0, 68, 48
2, 19436, Note_off_c, 0, 70, 64
2, 19476, Note_on_c, 0, 67, 40
2, 19492, Note_off_c, 0, 68, 64
2, 19500, Note_on_c, 0, 68, 66
2, 19518, Note_off_c, 0, 67, 64
2, 19520, Note_on_c, 0, 60, 29
2, 19520, Note_on_c, 0, 58, 28
2, 19523, Note_on_c, 0, 53, 27
2, 19532, Note_on_c, 0, 67, 59
2, 19533, Control_c, 0, 64, 0
2, 19555, Control_c, 0, 64, 127
2, 19563, Note_off_c, 0, 68, 64
2, 19565, Note_off_c, 0, 53, 64
2, 19566, Note_off_c, 0, 58, 64
2, 19582, Note_off_c, 0, 60, 64
2, 19609, Control_c, 0, 64, 0
2, 19619, Note_on_c, 0, 65, 44
2, 19642, Note_off_c, 0, 67, 64
2, 19643, Control_c, 0, 64, 127
2, 19679, Note_on_c, 0, 58, 29
2, 19680, Note_on_c, 0, 60, 24
2, 19681, Note_on_c, 0, 67, 46
2, 19681, Note_on_c, 0, 53, 24
2, 19714, Note_off_c, 0, 65, 64
2, 19729, Note_off_c, 0, 58, 64
2, 19730, Note_off_c, 0, 60, 64
2, 19737, Note_off_c, 0, 53, 64
2, 19761, Control_c, 0, 64, 0
2, 19767, Note_on_c, 0, 68, 52
2, 19774, Control_c, 0, 64, 127
2, 19791, Note_off_c, 0, 67, 64
2, 19837, Note_on_c, 0, 60, 28
2, 19843, Note_on_c, 0, 65, 50
2, 19843, Note_on_c, 0, 53, 29
2, 19847, Note_on_c, 0, 56, 31
2, 19861, Note_off_c, 0, 68, 64
2, 19861, Control_c, 0, 64, 0
2, 19889, Note_off_c, 0, 56, 64
2, 19891, Note_off_c, 0, 53, 64
2, 19895, Control_c, 0, 64, 127
2, 19906, Note_off_c, 0, 60, 64
2, 19942, Note_on_c, 0, 67, 41
2, 19970, Note_off_c, 0, 65, 64
2, 19991, Note_on_c, 0, 68, 46
2, 20003, Note_on_c, 0, 56, 35
2, 20004, Note_on_c, 0, 60, 26
2, 20007, Note_on_c, 0, 53, 28
2, 20008, Note_off_c, 0, 67, 64
2, 20012, Control_c, 0, 64, 0
2, 20013, Control_c, 0, 64, 0
2, 20026, Control_c, 0, 64, 127
2, 20026, Control_c, 0, 64, 127
2, 20062, Note_off_c, 0, 53, 64
2, 20062, Note_off_c, 0, 56, 64
2, 20064, Note_on_c, 0, 70, 39
2, 20068, Note_off_c, 0, 60, 64
2, 20068, Control_c, 0, 64, 0
2, 20093, Note_off_c, 0, 68, 64
2, 20107, Control_c, 0, 64, 127
2, 20147, Note_on_c, 0, 72, 42
2, 20153, Note_on_c, 0, 58, 35
2, 20155, Note_on_c, 0, 56, 36
2, 20156, Note_on_c, 0, 53, 18
2, 20172, Note_off_c, 0, 70, 64
2, 20209, Note_off_c, 0, 56, 64
2, 20210, Note_off_c, 0, 58, 64
2, 20215, Note_on_c, 0, 73, 48
2, 20218, Note_off_c, 0, 53, 64
2, 20229, Note_off_c, 0, 72, 64
2, 20242, Control_c, 0, 64, 0
2, 20259, Control_c, 0, 64, 127
2, 20263, Note_off_c, 0, 73, 64
2, 20264, Control_c, 0, 64, 0
2, 20276, Note_on_c, 0, 73, 48
2, 20278, Control_c, 0, 64, 127
2, 20304, Note_on_c, 0, 77, 44
2, 20307, Note_on_c, 0, 39, 52
2, 20316, Note_off_c, 0, 73, 64
2, 20320, Control_c, 0, 64, 0
2, 20359, Control_c, 0, 64, 127
2, 20396, Control_c, 0, 64, 0
2, 20404, Note_on_c, 0, 75, 52
2, 20410, Control_c, 0, 64, 127
2, 20424, Note_off_c, 0, 77, 64
2, 20463, Note_on_c, 0, 61, 45
2, 20464, Note_on_c, 0, 55, 29
2, 20465, Note_on_c, 0, 51, 39
2, 20469, Note_on_c, 0, 73, 53
2, 20485, Note_off_c, 0, 75, 64
2, 20494, Control_c, 0, 64, 0
2, 20501, Note_on_c, 0, 75, 46
2, 20504, Note_off_c, 0, 55, 64
2, 20507, Note_off_c, 0, 51, 64
2, 20509, Note_off_c, 0, 73, 64
2, 20511, Control_c, 0, 64, 127
2, 20523, Note_on_c, 0, 73, 46
2, 20525, Note_off_c, 0, 61, 64
2, 20536, Control_c, 0, 64, 0
2, 20543, Note_off_c, 0, 75, 64
2, 20548, Control_c, 0, 64, 127
2, 20591, Note_off_c, 0, 39, 64
2, 20612, Note_on_c, 0, 72, 50
2, 20620, Note_on_c, 0, 51, 37
2, 20623, Note_on_c, 0, 61, 37
2, 20624, Note_on_c, 0, 55, 29
2, 20632, Note_off_c, 0, 73, 64
2, 20648, Control_c, 0, 64, 0
2, 20662, Control_c, 0, 64, 127
2, 20681, Control_c, 0, 64, 0
2, 20686, Note_off_c, 0, 55, 64
2, 20692, Control_c, 0, 64, 127
2, 20692, Note_on_c, 0, 70, 62
2, 20695, Note_off_c, 0, 51, 64
2, 20698, Note_off_c, 0, 61, 64
2, 20708, Note_off_c, 0, 72, 64
2, 20770, Note_on_c, 0, 68, 55
2, 20774, Note_on_c, 0, 44, 49
2, 20784, Note_off_c, 0, 70, 64
2, 20788, Control_c, 0, 64, 0
2, 20800, Control_c, 0, 64, 127
2, 20835, Note_on_c, 0, 70, 57
2, 20860, Note_off_c, 0, 68, 64
2, 20903, Note_off_c, 0, 70, 64
2, 20910, Note_on_c, 0, 72, 49
2, 20918, Note_on_c, 0, 60, 37
2, 20925, Note_on_c, 0, 56, 39
2, 20926, Note_on_c, 0, 51, 39
2, 20933, Control_c, 0, 64, 0
2, 20944, Control_c, 0, 64, 127
2, 20963, Note_off_c, 0, 51, 64
2, 20963, Note_off_c, 0, 56, 64
2, 20968, Note_off_c, 0, 60, 64
2, 20982, Control_c, 0, 64, 0
2, 21006, Control_c, 0, 64, 127
2, 21065, Note_off_c, 0, 72, 64
2, 21065, Note_off_c, 0, 44, 64
2, 21080, Note_on_c, 0, 60, 29
2, 21085, Note_on_c, 0, 72, 48
2, 21088, Note_on_c, 0, 56, 35
2, 21088, Note_on_c, 0, 51, 35
2, 21132, Note_off_c, 0, 60, 64
2, 21136, Note_off_c, 0, 56, 64
2, 21141, Note_on_c, 0, 73, 45
2, 21144, Control_c, 0, 64, 0
2, 21146, Note_off_c, 0, 51, 64
2, 21160, Control_c, 0, 64, 127
2, 21165, Note_off_c, 0, 72, 64
2, 21221, Note_on_c, 0, 77, 52
2, 21221, Note_on_c, 0, 39, 49
2, 21228, Note_off_c, 0, 73, 64
2, 21234, Control_c, 0, 64, 0
2, 21258, Control_c, 0, 64, 127
2, 21316, Note_on_c, 0, 75, 53
2, 21333, Note_off_c, 0, 77, 64
2, 21356, Note_on_c, 0, 73, 44
2, 21367, Note_off_c, 0, 75, 64
2, 21384, Note_on_c, 0, 75, 54
2, 21388, Note_on_c, 0, 61, 46
2, 21396, Note_off_c, 0, 73, 64
2, 21396, Control_c, 0, 64, 0
2, 21401, Note_on_c, 0, 51, 19
2, 21402, Note_on_c, 0, 55, 28
2, 21412, Control_c, 0, 64, 127
2, 21421, Note_on_c, 0, 73, 59
2, 21432, Note_off_c, 0, 75, 64
2, 21448, Note_off_c, 0, 61, 64
2, 21454, Control_c, 0, 64, 0
2, 21473, Note_off_c, 0, 55, 64
2, 21475, Note_off_c, 0, 51, 64
2, 21480, Control_c, 0, 64, 127
2, 21508, Note_off_c, 0, 39, 64
2, 21532, Note_on_c, 0, 72, 46
2, 21532, Note_on_c, 0, 61, 41
2, 21536, Note_on_c, 0, 55, 41
2, 21547, Note_on_c, 0, 51, 39
2, 21548, Note_off_c, 0, 73, 64
2, 21569, Note_off_c, 0, 61, 64
2, 21573, Note_off_c, 0, 55, 64
2, 21587, Note_off_c, 0, 51, 64
2, 21604, Note_on_c, 0, 70, 63
2, 21605, Control_c, 0, 64, 0
2, 21621, Control_c, 0, 64, 127
2, 21623, Note_off_c, 0, 72, 64
2, 21696, Note_on_c, 0, 68, 63
2, 21699, Note_on_c, 0, 44, 54
2, 21706, Control_c, 0, 64, 0
2, 21711, Note_off_c, 0, 70, 64
2, 21732, Control_c, 0, 64, 127
2, 21795, Note_on_c, 0, 70, 57
2, 21827, Note_off_c, 0, 68, 64
2, 21843, Note_on_c, 0, 51, 50
2, 21850, Note_on_c, 0, 72, 61
2, 21850, Note_on_c, 0, 60, 49
2, 21857, Control_c, 0, 64, 0
2, 21869, Note_off_c, 0, 70, 64
2, 21873, Control_c, 0, 64, 127
2, 21915, Control_c, 0, 64, 0
2, 21939, Control_c, 0, 64, 127
2, 21956, Control_c, 0, 64, 0
2, 21959, Note_off_c, 0, 51, 64
2, 21977, Note_off_c, 0, 60, 64
2, 21985, Note_off_c, 0, 44, 64
2, 21992, Control_c, 0, 64, 127
2, 21997, Note_on_c, 0, 44, 78
2, 21998, Note_on_c, 0, 68, 84
2, 22017, Note_off_c, 0, 72, 64
2, 22060, Control_c, 0, 64, 0
2, 22083, Note_off_c, 0, 44, 64
2, 22083, Note_on_c, 0, 72, 67
2, 22096, Control_c, 0, 64, 127
2, 22116, Note_off_c, 0, 68, 64
2, 22122, Note_on_c, 0, 44, 78
2, 22144, Note_on_c, 0, 56, 70
2, 22144, Note_on_c, 0, 51, 42
2, 22145, Note_on_c, 0, 75, 62
2, 22151, Note_on_c, 0, 60, 74
2, 22155, Note_on_c, 0, 66, 74
2, 22156, Note_on_c, 0, 68, 70
2, 22167, Control_c, 0, 64, 0
2, 22169, Note_off_c, 0, 72, 64
2, 22183, Note_off_c, 0, 66, 64
2, 22191, Control_c, 0, 64, 127
2, 22193, Note_off_c, 0, 68, 64
2, 22208, Control_c, 0, 64, 0
2, 22229, Note_off_c, 0, 51, 64
2, 22234, Note_off_c, 0, 60, 64
2, 22244, Control_c, 0, 64, 127
2, 22254, Note_off_c, 0, 56, 64
2, 22257, Note_off_c, 0, 75, 64
2, 22268, Note_on_c, 0, 68, 70
2, 22268, Note_on_c, 0, 66, 58
2, 22273, Note_on_c, 0, 75, 46
2, 22296, Note_off_c, 0, 66, 64
2, 22305, Note_off_c, 0, 68, 64
2, 22312, Control_c, 0, 64, 0
2, 22324, Note_on_c, 0, 77, 70
2, 22324, Note_on_c, 0, 66, 65
2, 22327, Note_on_c, 0, 56, 70
2, 22328, Note_on_c, 0, 68, 57
2, 22331, Note_on_c, 0, 60, 70
2, 22332, Note_on_c, 0, 77, 70
2, 22339, Note_off_c, 0, 77, 64
2, 22340, Note_on_c, 0, 51, 58
2, 22344, Note_off_c, 0, 75, 64
2, 22348, Control_c, 0, 64, 127
2, 22388, Note_off_c, 0, 68, 64
2, 22389, Note_off_c, 0, 66, 64
2, 22401, Control_c, 0, 64, 0
2, 22419, Note_off_c, 0, 60, 64
2, 22435, Control_c, 0, 64, 127
2, 22437, Note_off_c, 0, 56, 64
2, 22442, Note_off_c, 0, 51, 64
2, 22487, Note_on_c, 0, 66, 74
2, 22488, Note_on_c, 0, 68, 70
2, 22491, Note_on_c, 0, 75, 67
2, 22504, Note_on_c, 0, 60, 58
2, 22504, Note_on_c, 0, 56, 59
2, 22508, Note_on_c, 0, 51, 58
2, 22509, Note_off_c, 0, 77, 64
2, 22534, Note_off_c, 0, 68, 64
2, 22537, Note_off_c, 0, 66, 64
2, 22610, Note_off_c, 0, 51, 64
2, 22615, Note_off_c, 0, 60, 64
2, 22622, Control_c, 0, 64, 0
2, 22623, Note_off_c, 0, 56, 64
2, 22644, Note_on_c, 0, 49, 59
2, 22645, Note_off_c, 0, 44, 64
2, 22652, Note_on_c, 0, 68, 70
2, 22653, Control_c, 0, 64, 0
2, 22659, Note_on_c, 0, 73, 70
2, 22659, Note_on_c, 0, 65, 68
2, 22660, Note_on_c, 0, 56, 55
2, 22664, Note_off_c, 0, 75, 64
2, 22665, Note_on_c, 0, 61, 74
2, 22687, Control_c, 0, 64, 127
2, 22689, Note_off_c, 0, 68, 64
2, 22691, Control_c, 0, 64, 127
2, 22692, Note_off_c, 0, 65, 64
2, 22717, Note_off_c, 0, 56, 64
2, 22722, Note_off_c, 0, 61, 64
2, 22776, Note_off_c, 0, 49, 64
2, 22788, Control_c, 0, 64, 0
2, 22796, Note_on_c, 0, 77, 70
2, 22800, Control_c, 0, 64, 0
2, 22800, Note_on_c, 0, 65, 70
2, 22801, Note_on_c, 0, 68, 36
2, 22814, Note_off_c, 0, 73, 64
2, 22815, Note_on_c, 0, 49, 41
2, 22824, Control_c, 0, 64, 127
2, 22830, Note_off_c, 0, 68, 64
2, 22836, Control_c, 0, 64, 127
2, 22844, Note_on_c, 0, 56, 3
2, 22846, Note_off_c, 0, 65, 64
2, 22854, Note_on_c, 0, 68, 75
2, 22857, Note_on_c, 0, 80, 78
2, 22858, Note_on_c, 0, 73, 78
2, 22874, Control_c, 0, 64, 0
2, 22884, Note_on_c, 0, 65, 84
2, 22907, Note_off_c, 0, 77, 64
2, 22923, Control_c, 0, 64, 0
2, 22943, Control_c, 0, 64, 127
2, 22975, Control_c, 0, 64, 127
2, 23040, Control_c, 0, 64, 0
2, 23052, Control_c, 0, 64, 0
2, 23076, Control_c, 0, 64, 127
2, 23088, Control_c, 0, 64, 127
2, 23096, Control_c, 0, 64, 0
2, 23142, Control_c, 0, 64, 127
2, 23175, Control_c, 0, 64, 0
2, 23179, Note_off_c, 0, 49, 64
2, 23180, Note_off_c, 0, 56, 64
2, 23184, Note_off_c, 0, 68, 64
2, 23187, Note_off_c, 0, 80, 64
2, 23188, Note_off_c, 0, 73, 64
2, 23193, Note_off_c, 0, 65, 64
2, 23205, Note_on_c, 0, 66, 49
2, 23208, Note_on_c, 0, 58, 41
2, 23208, Note_on_c, 0, 54, 40
2, 23209, Note_on_c, 0, 70, 41
2, 23209, Note_on_c, 0, 61, 32
2, 23227, Control_c, 0, 64, 127
2, 23236, Note_off_c, 0, 58, 64
2, 23239, Note_off_c, 0, 70, 64
2, 23240, Note_off_c, 0, 54, 64
2, 23243, Note_off_c, 0, 66, 64
2, 23250, Note_off_c, 0, 61, 64
2, 23308, Note_on_c, 0, 66, 45
2, 23308, Note_on_c, 0, 58, 46
2, 23308, Note_on_c, 0, 54, 27
2, 23309, Note_on_c, 0, 72, 41
2, 23312, Note_on_c, 0, 61, 44
2, 23331, Note_off_c, 0, 72, 64
2, 23331, Note_off_c, 0, 54, 64
2, 23337, Note_off_c, 0, 66, 64
2, 23340, Note_off_c, 0, 58, 64
2, 23348, Control_c, 0, 64, 0
2, 23353, Note_on_c, 0, 56, 44
2, 23356, Note_on_c, 0, 73, 52
2, 23358, Note_on_c, 0, 65, 52
2, 23360, Note_on_c, 0, 49, 49
2, 23394, Control_c, 0, 64, 127
2, 23404, Note_off_c, 0, 61, 64
2, 23450, Control_c, 0, 64, 0
2, 23479, Control_c, 0, 64, 127
2, 23528, Note_on_c, 0, 37, 50
2, 23532, Note_on_c, 0, 68, 53
2, 23557, Note_off_c, 0, 73, 64
2, 23585, Control_c, 0, 64, 0
2, 23629, Note_off_c, 0, 56, 64
2, 23630, Control_c, 0, 64, 127
2, 23634, Note_off_c, 0, 65, 64
2, 23636, Note_off_c, 0, 49, 64
2, 23654, Note_off_c, 0, 37, 64
2, 23668, Note_off_c, 0, 68, 64
2, 23692, Note_on_c, 0, 70, 44
2, 23696, Note_on_c, 0, 66, 52
2, 23696, Note_on_c, 0, 61, 41
2, 23696, Note_on_c, 0, 58, 41
2, 23696, Note_on_c, 0, 54, 20
2, 23702, Control_c, 0, 64, 0
2, 23731, Control_c, 0, 64, 127
2, 23762, Note_off_c, 0, 66, 64
2, 23766, Note_off_c, 0, 54, 64
2, 23777, Note_off_c, 0, 70, 64
2, 23785, Note_off_c, 0, 58, 64
2, 23787, Note_off_c, 0, 61, 64
2, 23792, Note_on_c, 0, 58, 37
2, 23793, Note_on_c, 0, 66, 52
2, 23796, Note_on_c, 0, 54, 39
2, 23799, Note_on_c, 0, 72, 45
2, 23799, Note_on_c, 0, 61, 49
2, 23821, Note_off_c, 0, 58, 64
2, 23826, Note_off_c, 0, 66, 64
2, 23837, Note_off_c, 0, 72, 64
2, 23837, Control_c, 0, 64, 0
2, 23841, Note_off_c, 0, 54, 64
2, 23844, Note_on_c, 0, 73, 49
2, 23844, Note_on_c, 0, 65, 50
2, 23848, Note_on_c, 0, 49, 49
2, 23850, Note_on_c, 0, 56, 39
2, 23882, Control_c, 0, 64, 127
2, 23890, Note_off_c, 0, 61, 64
2, 23937, Control_c, 0, 64, 0
2, 23967, Control_c, 0, 64, 127
2, 24003, Note_on_c, 0, 37, 53
2, 24011, Note_on_c, 0, 68, 49
2, 24025, Note_off_c, 0, 73, 64
2, 24068, Control_c, 0, 64, 0
2, 24117, Control_c, 0, 64, 127
2, 24119, Note_off_c, 0, 37, 64
2, 24128, Note_off_c, 0, 65, 64
2, 24131, Note_off_c, 0, 68, 64
2, 24132, Note_off_c, 0, 49, 64
2, 24134, Note_off_c, 0, 56, 64
2, 24136, Note_on_c, 0, 44, 59
2, 24169, Note_on_c, 0, 51, 66
2, 24173, Note_on_c, 0, 68, 79
2, 24173, Note_on_c, 0, 66, 83
2, 24177, Note_on_c, 0, 75, 78
2, 24186, Note_on_c, 0, 60, 83
2, 24189, Control_c, 0, 64, 0
2, 24211, Note_off_c, 0, 66, 64
2, 24211, Note_off_c, 0, 68, 64
2, 24214, Note_off_c, 0, 44, 64
2, 24219, Control_c, 0, 64, 127
2, 24222, Control_c, 0, 64, 0
2, 24241, Note_off_c, 0, 75, 64
2, 24242, Note_off_c, 0, 60, 64
2, 24250, Note_off_c, 0, 51, 64
2, 24259, Control_c, 0, 64, 127
2, 24277, Note_on_c, 0, 75, 72
2, 24281, Note_on_c, 0, 66, 83
2, 24282, Note_on_c, 0, 68, 83
2, 24287, Note_on_c, 0, 44, 80
2, 24304, Control_c, 0, 64, 0
2, 24307, Note_off_c, 0, 66, 64
2, 24308, Note_off_c, 0, 68, 64
2, 24316, Note_on_c, 0, 56, 72
2, 24316, Note_on_c, 0, 51, 72
2, 24320, Control_c, 0, 64, 0
2, 24324, Note_on_c, 0, 60, 78
2, 24328, Note_on_c, 0, 77, 80
2, 24335, Note_on_c, 0, 66, 78
2, 24340, Control_c, 0, 64, 127
2, 24340, Note_on_c, 0, 68, 62
2, 24351, Note_off_c, 0, 75, 64
2, 24369, Control_c, 0, 64, 127
2, 24381, Note_off_c, 0, 56, 64
2, 24383, Note_off_c, 0, 66, 64
2, 24384, Note_off_c, 0, 51, 64
2, 24386, Note_off_c, 0, 60, 64
2, 24390, Note_off_c, 0, 68, 64
2, 24408, Control_c, 0, 64, 0
2, 24442, Control_c, 0, 64, 127
2, 24474, Control_c, 0, 64, 0
2, 24484, Note_on_c, 0, 66, 80
2, 24484, Note_on_c, 0, 56, 78
2, 24488, Note_on_c, 0, 68, 78
2, 24489, Note_on_c, 0, 51, 57
2, 24490, Note_on_c, 0, 75, 76
2, 24498, Note_on_c, 0, 60, 71
2, 24508, Note_off_c, 0, 77, 64
2, 24511, Control_c, 0, 64, 127
2, 24524, Note_off_c, 0, 66, 64
2, 24525, Note_off_c, 0, 68, 64
2, 24552, Note_off_c, 0, 56, 64
2, 24556, Control_c, 0, 64, 0
2, 24564, Note_off_c, 0, 51, 64
2, 24572, Note_off_c, 0, 60, 64
2, 24575, Note_off_c, 0, 44, 64
2, 24592, Control_c, 0, 64, 127
2, 24631, Control_c, 0, 64, 0
2, 24657, Note_on_c, 0, 61, 83
2, 24660, Control_c, 0, 64, 0
2, 24667, Control_c, 0, 64, 127
2, 24668, Note_on_c, 0, 73, 78
2, 24668, Note_on_c, 0, 65, 76
2, 24668, Note_on_c, 0, 49, 65
2, 24672, Note_on_c, 0, 68, 65
2, 24672, Note_on_c, 0, 56, 70
2, 24686, Note_off_c, 0, 75, 64
2, 24694, Control_c, 0, 64, 127
2, 24696, Control_c, 0, 64, 127
2, 24727, Note_off_c, 0, 65, 64
2, 24738, Note_off_c, 0, 68, 64
2, 24747, Note_off_c, 0, 73, 64
2, 24753, Note_off_c, 0, 56, 64
2, 24759, Note_off_c, 0, 49, 64
2, 24777, Note_off_c, 0, 61, 64
2, 24804, Note_on_c, 0, 56, 71
2, 24808, Note_on_c, 0, 65, 78
2, 24811, Note_on_c, 0, 77, 80
2, 24811, Note_on_c, 0, 68, 72
2, 24814, Note_on_c, 0, 49, 62
2, 24843, Note_off_c, 0, 68, 64
2, 24848, Control_c, 0, 64, 0
2, 24854, Note_off_c, 0, 65, 64
2, 24860, Note_on_c, 0, 65, 55
2, 24865, Note_on_c, 0, 80, 83
2, 24868, Note_on_c, 0, 73, 87
2, 24868, Note_on_c, 0, 68, 93
2, 24883, Control_c, 0, 64, 0
2, 24884, Control_c, 0, 64, 127
2, 24890, Note_off_c, 0, 77, 64
2, 24919, Control_c, 0, 64, 127
2, 24928, Note_on_c, 0, 68, 63
2, 24939, Control_c, 0, 64, 0
2, 24948, Control_c, 0, 64, 127
2, 24983, Control_c, 0, 64, 127
2, 25100, Control_c, 0, 64, 0
2, 25115, Control_c, 0, 64, 0
2, 25121, Note_off_c, 0, 56, 64
2, 25136, Control_c, 0, 64, 127
2, 25157, Note_off_c, 0, 65, 64
2, 25158, Control_c, 0, 64, 127
2, 25165, Note_off_c, 0, 49, 64
2, 25168, Note_off_c, 0, 80, 64
2, 25171, Note_off_c, 0, 73, 64
2, 25191, Control_c, 0, 64, 0
2, 25212, Note_on_c, 0, 39, 59
2, 25214, Note_on_c, 0, 63, 55
2, 25214, Note_on_c, 0, 51, 52
2, 25221, Note_on_c, 0, 67, 36
2, 25224, Note_on_c, 0, 72, 36
2, 25235, Control_c, 0, 64, 127
2, 25254, Note_off_c, 0, 67, 64
2, 25265, Note_off_c, 0, 63, 64
2, 25295, Note_off_c, 0, 51, 64
2, 25297, Note_off_c, 0, 39, 64
2, 25302, Control_c, 0, 64, 0
2, 25314, Control_c, 0, 64, 127
2, 25319, Note_on_c, 0, 61, 59
2, 25320, Note_on_c, 0, 67, 55
2, 25327, Note_on_c, 0, 70, 31
2, 25331, Note_on_c, 0, 51, 53
2, 25335, Note_off_c, 0, 72, 64
2, 25348, Note_off_c, 0, 61, 64
2, 25357, Note_off_c, 0, 67, 64
2, 25367, Control_c, 0, 64, 0
2, 25377, Note_on_c, 0, 72, 55
2, 25378, Note_on_c, 0, 63, 59
2, 25387, Note_off_c, 0, 70, 64
2, 25387, Note_on_c, 0, 44, 47
2, 25410, Control_c, 0, 64, 127
2, 25499, Note_off_c, 0, 51, 64
2, 25538, Note_on_c, 0, 51, 53
2, 25545, Note_on_c, 0, 68, 47
2, 25547, Note_on_c, 0, 60, 55
2, 25554, Control_c, 0, 64, 0
2, 25555, Note_off_c, 0, 72, 64
2, 25556, Note_off_c, 0, 63, 64
2, 25566, Control_c, 0, 64, 127
2, 25600, Control_c, 0, 64, 0
2, 25636, Note_off_c, 0, 60, 64
2, 25639, Control_c, 0, 64, 127
2, 25640, Note_off_c, 0, 68, 64
2, 25647, Note_off_c, 0, 51, 64
2, 25648, Note_off_c, 0, 44, 64
2, 25707, Note_on_c, 0, 72, 46
2, 25707, Note_on_c, 0, 63, 55
2, 25712, Note_on_c, 0, 67, 46
2, 25712, Note_on_c, 0, 51, 36
2, 25712, Note_on_c, 0, 39, 45
2, 25743, Note_off_c, 0, 67, 64
2, 25749, Note_off_c, 0, 63, 64
2, 25776, Note_off_c, 0, 51, 64
2, 25777, Control_c, 0, 64, 0
2, 25791, Note_off_c, 0, 39, 64
2, 25805, Control_c, 0, 64, 127
2, 25812, Note_on_c, 0, 70, 44
2, 25816, Note_on_c, 0, 67, 46
2, 25818, Note_on_c, 0, 61, 59
2, 25823, Note_on_c, 0, 51, 55
2, 25844, Note_off_c, 0, 67, 64
2, 25844, Note_off_c, 0, 72, 64
2, 25845, Note_off_c, 0, 61, 64
2, 25852, Control_c, 0, 64, 0
2, 25875, Note_on_c, 0, 72, 59
2, 25875, Note_on_c, 0, 44, 55
2, 25876, Note_on_c, 0, 63, 59
2, 25891, Control_c, 0, 64, 127
2, 25894, Note_off_c, 0, 70, 64
2, 25957, Control_c, 0, 64, 0
2, 25992, Control_c, 0, 64, 127
2, 26012, Note_off_c, 0, 51, 64
2, 26029, Control_c, 0, 64, 0
2, 26040, Note_on_c, 0, 51, 59
2, 26041, Note_on_c, 0, 60, 59
2, 26045, Note_on_c, 0, 68, 53
2, 26054, Note_off_c, 0, 72, 64
2, 26055, Note_off_c, 0, 63, 64
2, 26057, Control_c, 0, 64, 127
2, 26092, Note_off_c, 0, 44, 64
2, 26120, Control_c, 0, 64, 0
2, 26122, Note_off_c, 0, 60, 64
2, 26130, Note_off_c, 0, 68, 64
2, 26139, Note_off_c, 0, 51, 64
2, 26152, Control_c, 0, 64, 127
2, 26159, Note_on_c, 0, 44, 58
2, 26197, Note_on_c, 0, 51, 68
2, 26209, Control_c, 0, 64, 0
2, 26218, Note_on_c, 0, 75, 81
2, 26222, Note_on_c, 0, 66, 83
2, 26222, Note_on_c, 0, 60, 74
2, 26223, Note_on_c, 0, 68, 85
2, 26244, Control_c, 0, 64, 127
2, 26245, Note_off_c, 0, 44, 64
2, 26256, Note_off_c, 0, 66, 64
2, 26258, Note_off_c, 0, 68, 64
2, 26269, Note_off_c, 0, 51, 64
2, 26280, Note_off_c, 0, 60, 64
2, 26290, Control_c, 0, 64, 0
2, 26309, Note_off_c, 0, 75, 64
2, 26319, Note_on_c, 0, 75, 58
2, 26327, Note_on_c, 0, 66, 74
2, 26327, Note_on_c, 0, 44, 68
2, 26332, Note_on_c, 0, 68, 81
2, 26335, Control_c, 0, 64, 127
2, 26357, Note_off_c, 0, 66, 64
2, 26365, Note_off_c, 0, 68, 64
2, 26372, Control_c, 0, 64, 0
2, 26379, Note_on_c, 0, 60, 71
2, 26380, Note_on_c, 0, 56, 42
2, 26380, Note_on_c, 0, 51, 50
2, 26385, Control_c, 0, 64, 127
2, 26385, Note_on_c, 0, 68, 68
2, 26385, Note_on_c, 0, 66, 62
2, 26387, Note_off_c, 0, 75, 64
2, 26389, Note_on_c, 0, 77, 78
2, 26404, Control_c, 0, 64, 127
2, 26435, Note_off_c, 0, 68, 64
2, 26438, Note_off_c, 0, 66, 64
2, 26452, Note_off_c, 0, 51, 64
2, 26452, Note_off_c, 0, 56, 64
2, 26452, Control_c, 0, 64, 0
2, 26460, Note_off_c, 0, 60, 64
2, 26496, Control_c, 0, 64, 127
2, 26520, Control_c, 0, 64, 0
2, 26540, Note_on_c, 0, 56, 58
2, 26540, Note_on_c, 0, 51, 58
2, 26542, Control_c, 0, 64, 0
2, 26544, Note_on_c, 0, 68, 74
2, 26547, Note_on_c, 0, 75, 68
2, 26547, Note_on_c, 0, 66, 75
2, 26548, Note_on_c, 0, 60, 78
2, 26554, Note_off_c, 0, 77, 64
2, 26556, Control_c, 0, 64, 127
2, 26579, Note_off_c, 0, 56, 64
2, 26583, Note_off_c, 0, 51, 64
2, 26587, Control_c, 0, 64, 127
2, 26591, Note_off_c, 0, 60, 64
2, 26602, Note_off_c, 0, 68, 64
2, 26603, Note_off_c, 0, 66, 64
2, 26619, Note_off_c, 0, 44, 64
2, 26637, Control_c, 0, 64, 127
2, 26686, Control_c, 0, 64, 0
2, 26704, Control_c, 0, 64, 0
2, 26712, Note_on_c, 0, 68, 41
2, 26712, Note_on_c, 0, 65, 74
2, 26716, Note_on_c, 0, 73, 71
2, 26719, Note_on_c, 0, 49, 67
2, 26724, Note_on_c, 0, 61, 78
2, 26726, Note_on_c, 0, 56, 58
2, 26738, Note_off_c, 0, 75, 64
2, 26741, Control_c, 0, 64, 127
2, 26748, Control_c, 0, 64, 127
2, 26772, Control_c, 0, 64, 0
2, 26775, Note_off_c, 0, 65, 64
2, 26776, Note_off_c, 0, 68, 64
2, 26776, Note_off_c, 0, 68, 64
2, 26781, Note_off_c, 0, 56, 64
2, 26784, Note_off_c, 0, 68, 64
2, 26787, Note_off_c, 0, 49, 64
2, 26792, Note_off_c, 0, 61, 64
2, 26808, Control_c, 0, 64, 127
2, 26853, Note_on_c, 0, 77, 68
2, 26857, Note_off_c, 0, 73, 64
2, 26858, Note_on_c, 0, 49, 74
2, 26864, Note_on_c, 0, 65, 70
2, 26868, Note_on_c, 0, 68, 62
2, 26886, Note_on_c, 0, 56, 65
2, 26892, Note_off_c, 0, 68, 64
2, 26901, Note_off_c, 0, 65, 64
2, 26913, Control_c, 0, 64, 127
2, 26916, Note_on_c, 0, 73, 83
2, 26916, Note_on_c, 0, 68, 84
2, 26916, Note_on_c, 0, 65, 79
2, 26929, Note_on_c, 0, 80, 78
2, 26933, Control_c, 0, 64, 0
2, 26936, Note_off_c, 0, 77, 64
2, 26938, Control_c, 0, 64, 0
2, 26941, Control_c, 0, 64, 0
2, 26966, Control_c, 0, 64, 127
2, 26974, Control_c, 0, 64, 127
2, 26993, Control_c, 0, 64, 127
2, 27001, Control_c, 0, 64, 0
2, 27041, Control_c, 0, 64, 127
2, 27080, Note_off_c, 0, 56, 64
2, 27165, Control_c, 0, 64, 127
2, 27179, Control_c, 0, 64, 0
2, 27185, Control_c, 0, 64, 0
2, 27193, Control_c, 0, 64, 0
2, 27213, Control_c, 0, 64, 127
2, 27218, Control_c, 0, 64, 127
2, 27226, Control_c, 0, 64, 127
2, 27253, Control_c, 0, 64, 0
2, 27254, Note_off_c, 0, 65, 64
2, 27254, Note_off_c, 0, 68, 64
2, 27254, Note_off_c, 0, 73, 64
2, 27254, Note_off_c, 0, 49, 64
2, 27267, Note_off_c, 0, 80, 64
2, 27272, Note_on_c, 0, 54, 49
2, 27276, Note_on_c, 0, 70, 59
2, 27276, Note_on_c, 0, 66, 57
2, 27276, Note_on_c, 0, 58, 45
2, 27278, Note_on_c, 0, 61, 49
2, 27293, Control_c, 0, 64, 127
2, 27315, Note_off_c, 0, 58, 64
2, 27323, Note_off_c, 0, 54, 64
2, 27325, Note_off_c, 0, 61, 64
2, 27328, Note_off_c, 0, 66, 64
2, 27360, Control_c, 0, 64, 0
2, 27360, Note_on_c, 0, 61, 26
2, 27360, Note_on_c, 0, 54, 55
2, 27364, Note_on_c, 0, 58, 52
2, 27365, Note_on_c, 0, 66, 52
2, 27375, Control_c, 0, 64, 127
2, 27377, Note_on_c, 0, 72, 52
2, 27390, Note_off_c, 0, 70, 64
2, 27407, Note_off_c, 0, 58, 64
2, 27411, Note_off_c, 0, 54, 64
2, 27412, Note_off_c, 0, 66, 64
2, 27427, Note_on_c, 0, 73, 63
2, 27431, Control_c, 0, 64, 0
2, 27432, Note_off_c, 0, 72, 64
2, 27432, Note_on_c, 0, 49, 52
2, 27436, Note_on_c, 0, 56, 37
2, 27438, Note_on_c, 0, 65, 61
2, 27465, Control_c, 0, 64, 127
2, 27472, Note_off_c, 0, 61, 64
2, 27501, Control_c, 0, 64, 0
2, 27534, Control_c, 0, 64, 127
2, 27594, Note_on_c, 0, 68, 66
2, 27599, Note_on_c, 0, 37, 61
2, 27602, Note_off_c, 0, 49, 64
2, 27606, Note_off_c, 0, 56, 64
2, 27608, Note_off_c, 0, 65, 64
2, 27612, Control_c, 0, 64, 0
2, 27620, Note_off_c, 0, 73, 64
2, 27627, Control_c, 0, 64, 127
2, 27654, Control_c, 0, 64, 0
2, 27672, Control_c, 0, 64, 127
2, 27724, Note_off_c, 0, 68, 64
2, 27725, Note_off_c, 0, 37, 64
2, 27753, Control_c, 0, 64, 0
2, 27762, Note_on_c, 0, 61, 53
2, 27762, Note_on_c, 0, 54, 49
2, 27766, Note_on_c, 0, 70, 59
2, 27766, Note_on_c, 0, 66, 55
2, 27771, Note_on_c, 0, 58, 45
2, 27786, Control_c, 0, 64, 127
2, 27800, Note_off_c, 0, 58, 64
2, 27800, Note_off_c, 0, 54, 64
2, 27804, Note_off_c, 0, 66, 64
2, 27804, Note_off_c, 0, 61, 64
2, 27845, Note_on_c, 0, 66, 46
2, 27860, Note_on_c, 0, 72, 49
2, 27860, Note_on_c, 0, 58, 49
2, 27862, Note_on_c, 0, 54, 41
2, 27866, Note_on_c, 0, 61, 45
2, 27871, Note_off_c, 0, 70, 64
2, 27879, Note_off_c, 0, 66, 64
2, 27897, Control_c, 0, 64, 127
2, 27898, Note_off_c, 0, 58, 64
2, 27900, Note_off_c, 0, 54, 64
2, 27906, Control_c, 0, 64, 0
2, 27912, Note_on_c, 0, 73, 62
2, 27914, Note_on_c, 0, 65, 63
2, 27917, Note_on_c, 0, 49, 67
2, 27919, Note_off_c, 0, 72, 64
2, 27924, Note_on_c, 0, 56, 37
2, 27924, Control_c, 0, 64, 127
2, 27975, Note_off_c, 0, 61, 64
2, 27987, Control_c, 0, 64, 0
2, 28029, Control_c, 0, 64, 127
2, 28061, Note_on_c, 0, 37, 59
2, 28073, Note_off_c, 0, 49, 64
2, 28078, Note_on_c, 0, 68, 59
2, 28080, Note_off_c, 0, 56, 64
2, 28098, Note_off_c, 0, 65, 64
2, 28098, Note_off_c, 0, 73, 64
2, 28149, Control_c, 0, 64, 127
2, 28153, Control_c, 0, 64, 0
2, 28172, Note_off_c, 0, 68, 64
2, 28175, Note_off_c, 0, 37, 64
2, 28186, Control_c, 0, 64, 127
2, 28188, Note_on_c, 0, 44, 78
2, 28224, Note_on_c, 0, 51, 71
2, 28238, Note_on_c, 0, 75, 83
2, 28239, Control_c, 0, 64, 0
2, 28247, Note_on_c, 0, 68, 78
2, 28247, Note_on_c, 0, 66, 84
2, 28253, Note_on_c, 0, 60, 84
2, 28281, Control_c, 0, 64, 127
2, 28285, Note_off_c, 0, 66, 64
2, 28292, Note_off_c, 0, 68, 64
2, 28304, Note_off_c, 0, 44, 64
2, 28321, Note_off_c, 0, 75, 64
2, 28321, Control_c, 0, 64, 0
2, 28334, Note_off_c, 0, 51, 64
2, 28343, Note_on_c, 0, 75, 71
2, 28347, Note_off_c, 0, 60, 64
2, 28352, Note_on_c, 0, 66, 83
2, 28359, Note_on_c, 0, 68, 93
2, 28365, Control_c, 0, 64, 127
2, 28366, Note_on_c, 0, 44, 76
2, 28380, Note_off_c, 0, 66, 64
2, 28388, Note_off_c, 0, 68, 64
2, 28400, Note_on_c, 0, 51, 70
2, 28405, Control_c, 0, 64, 0
2, 28412, Note_on_c, 0, 60, 87
2, 28412, Note_on_c, 0, 56, 48
2, 28416, Note_on_c, 0, 77, 93
2, 28416, Note_on_c, 0, 68, 24
2, 28416, Note_on_c, 0, 66, 80
2, 28432, Note_off_c, 0, 75, 64
2, 28438, Control_c, 0, 64, 127
2, 28442, Note_off_c, 0, 56, 64
2, 28449, Note_off_c, 0, 51, 64
2, 28450, Note_off_c, 0, 60, 64
2, 28474, Note_off_c, 0, 68, 64
2, 28494, Control_c, 0, 64, 0
2, 28506, Note_off_c, 0, 66, 64
2, 28532, Control_c, 0, 64, 127
2, 28573, Control_c, 0, 64, 0
2, 28576, Note_on_c, 0, 51, 67
2, 28581, Note_on_c, 0, 75, 78
2, 28582, Note_off_c, 0, 77, 64
2, 28584, Note_on_c, 0, 68, 65
2, 28585, Note_on_c, 0, 66, 97
2, 28588, Note_on_c, 0, 56, 48
2, 28589, Note_on_c, 0, 60, 91
2, 28615, Note_off_c, 0, 51, 64
2, 28617, Control_c, 0, 64, 127
2, 28618, Note_off_c, 0, 56, 64
2, 28630, Note_off_c, 0, 60, 64
2, 28643, Note_off_c, 0, 68, 64
2, 28656, Note_off_c, 0, 44, 64
2, 28657, Note_off_c, 0, 66, 64
2, 28723, Control_c, 0, 64, 0
2, 28746, Control_c, 0, 64, 0
2, 28752, Note_on_c, 0, 68, 83
2, 28753, Note_on_c, 0, 73, 83
2, 28753, Note_on_c, 0, 65, 78
2, 28753, Note_on_c, 0, 49, 62
2, 28756, Note_off_c, 0, 75, 64
2, 28756, Control_c, 0, 64, 127
2, 28761, Note_on_c, 0, 61, 87
2, 28761, Note_on_c, 0, 56, 79
2, 28784, Control_c, 0, 64, 127
2, 28839, Note_off_c, 0, 49, 64
2, 28839, Note_off_c, 0, 65, 64
2, 28841, Note_off_c, 0, 68, 64
2, 28847, Note_off_c, 0, 56, 64
2, 28860, Note_off_c, 0, 61, 64
2, 28861, Control_c, 0, 64, 127
2, 28889, Note_on_c, 0, 49, 70
2, 28896, Note_on_c, 0, 77, 78
2, 28896, Note_on_c, 0, 68, 75
2, 28896, Note_on_c, 0, 65, 65
2, 28900, Note_off_c, 0, 73, 64
2, 28927, Note_on_c, 0, 56, 70
2, 28929, Control_c, 0, 64, 127
2, 28932, Note_off_c, 0, 68, 64
2, 28935, Note_off_c, 0, 65, 64
2, 28948, Note_on_c, 0, 65, 71
2, 28956, Note_on_c, 0, 80, 83
2, 28961, Note_on_c, 0, 73, 87
2, 28961, Note_on_c, 0, 68, 94
2, 28962, Note_off_c, 0, 77, 64
2, 28975, Control_c, 0, 64, 0
2, 29008, Control_c, 0, 64, 127
2, 29039, Control_c, 0, 64, 0
2, 29070, Control_c, 0, 64, 127
2, 29113, Control_c, 0, 64, 127
2, 29181, Control_c, 0, 64, 127
2, 29203, Control_c, 0, 64, 0
2, 29234, Note_off_c, 0, 49, 64
2, 29237, Control_c, 0, 64, 127
2, 29251, Note_off_c, 0, 65, 64
2, 29253, Note_off_c, 0, 80, 64
2, 29257, Note_off_c, 0, 56, 64
2, 29264, Note_off_c, 0, 68, 64
2, 29264, Note_off_c, 0, 73, 64
2, 29272, Note_on_c, 0, 63, 50
2, 29272, Note_on_c, 0, 51, 57
2, 29272, Note_on_c, 0, 39, 55
2, 29276, Note_on_c, 0, 72, 49
2, 29276, Note_on_c, 0, 67, 44
2, 29291, Control_c, 0, 64, 0
2, 29296, Note_on_c, 0, 51, 55
2, 29304, Note_off_c, 0, 67, 64
2, 29317, Note_off_c, 0, 63, 64
2, 29322, Control_c, 0, 64, 127
2, 29344, Note_off_c, 0, 51, 64
2, 29360, Note_off_c, 0, 51, 64
2, 29361, Note_off_c, 0, 39, 64
2, 29364, Control_c, 0, 64, 0
2, 29406, Control_c, 0, 64, 127
2, 29408, Note_on_c, 0, 51, 54
2, 29416, Note_on_c, 0, 70, 40
2, 29416, Note_on_c, 0, 61, 66
2, 29420, Note_on_c, 0, 67, 37
2, 29429, Note_off_c, 0, 72, 64
2, 29439, Note_off_c, 0, 61, 64
2, 29450, Note_off_c, 0, 67, 64
2, 29452, Note_off_c, 0, 70, 64
2, 29455, Control_c, 0, 64, 0
2, 29462, Note_on_c, 0, 72, 62
2, 29466, Note_on_c, 0, 63, 66
2, 29468, Note_on_c, 0, 44, 55
2, 29489, Control_c, 0, 64, 127
2, 29559, Control_c, 0, 64, 0
2, 29573, Control_c, 0, 64, 127
2, 29595, Note_off_c, 0, 51, 64
2, 29616, Control_c, 0, 64, 0
2, 29629, Note_on_c, 0, 51, 55
2, 29636, Note_on_c, 0, 60, 61
2, 29638, Note_on_c, 0, 68, 54
2, 29650, Note_off_c, 0, 72, 64
2, 29654, Note_off_c, 0, 63, 64
2, 29658, Control_c, 0, 64, 127
2, 29688, Note_off_c, 0, 44, 64
2, 29751, Note_off_c, 0, 51, 64
2, 29758, Note_off_c, 0, 60, 64
2, 29760, Note_off_c, 0, 68, 64
2, 29789, Note_on_c, 0, 63, 63
2, 29792, Note_on_c, 0, 72, 52
2, 29795, Note_on_c, 0, 39, 53
2, 29799, Note_on_c, 0, 67, 50
2, 29799, Note_on_c, 0, 51, 36
2, 29811, Control_c, 0, 64, 0
2, 29825, Note_off_c, 0, 67, 64
2, 29825, Control_c, 0, 64, 127
2, 29828, Note_off_c, 0, 63, 64
2, 29889, Note_off_c, 0, 51, 64
2, 29896, Note_off_c, 0, 39, 64
2, 29916, Note_on_c, 0, 67, 52
2, 29916, Note_on_c, 0, 61, 66
2, 29916, Note_on_c, 0, 51, 45
2, 29918, Note_off_c, 0, 72, 64
2, 29920, Note_on_c, 0, 70, 40
2, 29926, Control_c, 0, 64, 0
2, 29939, Note_off_c, 0, 61, 64
2, 29947, Control_c, 0, 64, 127
2, 29955, Note_off_c, 0, 67, 64
2, 29956, Note_off_c, 0, 70, 64
2, 29960, Note_on_c, 0, 72, 44
2, 29964, Note_on_c, 0, 44, 52
2, 29967, Note_on_c, 0, 63, 63
2, 30106, Note_off_c, 0, 51, 64
2, 30116, Control_c, 0, 64, 0
2, 30155, Note_on_c, 0, 56, 44
2, 30162, Note_on_c, 0, 68, 49
2, 30162, Note_on_c, 0, 60, 41
2, 30178, Control_c, 0, 64, 0
2, 30181, Note_off_c, 0, 72, 64
2, 30182, Control_c, 0, 64, 127
2, 30185, Note_off_c, 0, 44, 64
2, 30188, Note_off_c, 0, 63, 64
2, 30199, Control_c, 0, 64, 127
2, 30260, Note_off_c, 0, 68, 64
2, 30264, Note_on_c, 0, 54, 61
2, 30273, Note_off_c, 0, 60, 64
2, 30279, Note_off_c, 0, 56, 64
2, 30342, Note_on_c, 0, 53, 66
2, 30350, Note_on_c, 0, 70, 40
2, 30355, Note_off_c, 0, 54, 64
2, 30355, Note_on_c, 0, 68, 25
2, 30355, Note_on_c, 0, 62, 44
2, 30368, Control_c, 0, 64, 0
2, 30403, Note_off_c, 0, 68, 64
2, 30422, Note_off_c, 0, 70, 64
2, 30424, Note_off_c, 0, 62, 64
2, 30434, Control_c, 0, 64, 127
2, 30460, Control_c, 0, 64, 0
2, 30483, Control_c, 0, 64, 127
2, 30528, Note_on_c, 0, 70, 36
2, 30529, Note_on_c, 0, 68, 32
2, 30530, Note_on_c, 0, 62, 47
2, 30566, Note_off_c, 0, 68, 64
2, 30575, Note_off_c, 0, 70, 64
2, 30576, Note_off_c, 0, 62, 64
2, 30589, Note_on_c, 0, 46, 48
2, 30602, Note_off_c, 0, 53, 64
2, 30618, Control_c, 0, 64, 0
2, 30654, Control_c, 0, 64, 127
2, 30680, Note_on_c, 0, 48, 57
2, 30688, Note_on_c, 0, 70, 47
2, 30689, Note_on_c, 0, 65, 51
2, 30692, Note_off_c, 0, 46, 64
2, 30697, Note_on_c, 0, 68, 55
2, 30712, Control_c, 0, 64, 0
2, 30735, Control_c, 0, 64, 127
2, 30741, Note_off_c, 0, 68, 64
2, 30741, Note_off_c, 0, 70, 64
2, 30744, Note_off_c, 0, 65, 64
2, 30764, Control_c, 0, 64, 0
2, 30772, Note_on_c, 0, 50, 57
2, 30784, Note_off_c, 0, 48, 64
2, 30803, Control_c, 0, 64, 127
2, 30837, Note_on_c, 0, 51, 66
2, 30852, Note_on_c, 0, 63, 51
2, 30856, Note_off_c, 0, 50, 64
2, 30862, Note_on_c, 0, 66, 23
2, 30865, Note_on_c, 0, 70, 23
2, 30870, Control_c, 0, 64, 0
2, 30898, Control_c, 0, 64, 0
2, 30906, Control_c, 0, 64, 127
2, 30919, Note_off_c, 0, 66, 64
2, 30921, Note_on_c, 0, 53, 57
2, 30926, Note_off_c, 0, 63, 64
2, 30937, Note_off_c, 0, 51, 64
2, 30945, Note_off_c, 0, 70, 64
2, 30998, Note_on_c, 0, 54, 70
2, 31016, Control_c, 0, 64, 0
2, 31023, Note_off_c, 0, 53, 64
2, 31023, Note_on_c, 0, 63, 45
2, 31024, Note_on_c, 0, 70, 46
2, 31055, Control_c, 0, 64, 127
2, 31091, Note_off_c, 0, 63, 64
2, 31105, Control_c, 0, 64, 0
2, 31113, Note_off_c, 0, 70, 64
2, 31150, Control_c, 0, 64, 0
2, 31164, Control_c, 0, 64, 127
2, 31168, Note_on_c, 0, 70, 23
2, 31170, Note_on_c, 0, 63, 40
2, 31220, Note_off_c, 0, 70, 64
2, 31224, Note_off_c, 0, 63, 64
2, 31252, Note_on_c, 0, 56, 52
2, 31264, Control_c, 0, 64, 0
2, 31276, Note_off_c, 0, 54, 64
2, 31296, Note_on_c, 0, 54, 59
2, 31317, Control_c, 0, 64, 127
2, 31321, Note_off_c, 0, 56, 64
2, 31336, Note_on_c, 0, 68, 26
2, 31336, Note_on_c, 0, 62, 46
2, 31339, Note_on_c, 0, 53, 57
2, 31344, Note_on_c, 0, 70, 1
2, 31357, Control_c, 0, 64, 0
2, 31360, Note_off_c, 0, 54, 64
2, 31391, Note_off_c, 0, 68, 64
2, 31396, Note_off_c, 0, 70, 64
2, 31416, Control_c, 0, 64, 127
2, 31425, Note_off_c, 0, 62, 64
2, 31432, Control_c, 0, 64, 0
2, 31474, Control_c, 0, 64, 127
2, 31482, Note_on_c, 0, 52, 49
2, 31501, Note_off_c, 0, 53, 64
2, 31504, Note_on_c, 0, 62, 46
2, 31512, Note_on_c, 0, 68, 36
2, 31516, Control_c, 0, 64, 0
2, 31521, Note_on_c, 0, 70, 25
2, 31524, Note_on_c, 0, 53, 54
2, 31540, Note_off_c, 0, 52, 64
2, 31569, Control_c, 0, 64, 127
2, 31593, Note_off_c, 0, 62, 64
2, 31596, Note_off_c, 0, 70, 64
2, 31605, Note_off_c, 0, 68, 64
2, 31622, Control_c, 0, 64, 0
2, 31662, Control_c, 0, 64, 127
2, 31684, Control_c, 0, 64, 0
2, 31690, Note_on_c, 0, 46, 61
2, 31695, Note_on_c, 0, 70, 43
2, 31695, Note_on_c, 0, 68, 45
2, 31695, Note_on_c, 0, 62, 41
2, 31715, Note_off_c, 0, 53, 64
2, 31726, Control_c, 0, 64, 127
2, 31763, Note_off_c, 0, 68, 64
2, 31766, Note_off_c, 0, 62, 64
2, 31777, Control_c, 0, 64, 0
2, 31778, Note_off_c, 0, 70, 64
2, 31828, Control_c, 0, 64, 127
2, 31844, Note_on_c, 0, 51, 55
2, 31860, Note_on_c, 0, 63, 49
2, 31866, Note_on_c, 0, 66, 33
2, 31874, Control_c, 0, 64, 0
2, 31876, Note_off_c, 0, 46, 64
2, 31877, Note_on_c, 0, 70, 23
2, 31914, Control_c, 0, 64, 127
2, 31917, Note_off_c, 0, 66, 64
2, 31921, Note_off_c, 0, 63, 64
2, 31926, Note_off_c, 0, 70, 64
2, 31933, Control_c, 0, 64, 0
2, 31960, Note_on_c, 0, 53, 61
2, 31983, Note_off_c, 0, 51, 64
2, 31995, Control_c, 0, 64, 127
2, 32018, Note_on_c, 0, 54, 67
2, 32024, Note_on_c, 0, 63, 45
2, 32027, Note_on_c, 0, 66, 44
2, 32028, Note_on_c, 0, 70, 46
2, 32029, Control_c, 0, 64, 0
2, 32042, Note_off_c, 0, 53, 64
2, 32072, Note_off_c, 0, 70, 64
2, 32080, Note_off_c, 0, 63, 64
2, 32080, Control_c, 0, 64, 127
2, 32082, Note_off_c, 0, 66, 64
2, 32124, Control_c, 0, 64, 0
2, 32160, Control_c, 0, 64, 127
2, 32185, Note_on_c, 0, 61, 46
2, 32185, Control_c, 0, 64, 0
2, 32192, Note_on_c, 0, 69, 59
2, 32192, Note_on_c, 0, 63, 51
2, 32238, Note_off_c, 0, 63, 64
2, 32246, Control_c, 0, 64, 0
2, 32247, Note_off_c, 0, 61, 64
2, 32247, Control_c, 0, 64, 127
2, 32254, Note_off_c, 0, 69, 64
2, 32304, Control_c, 0, 64, 0
2, 32325, Control_c, 0, 64, 127
2, 32361, Note_on_c, 0, 63, 44
2, 32361, Note_on_c, 0, 60, 40
2, 32371, Note_on_c, 0, 68, 39
2, 32376, Control_c, 0, 64, 0
2, 32404, Note_off_c, 0, 60, 64
2, 32407, Note_off_c, 0, 63, 64
2, 32412, Control_c, 0, 64, 127
2, 32420, Note_off_c, 0, 68, 64
2, 32474, Control_c, 0, 64, 0
2, 32498, Control_c, 0, 64, 0
2, 32499, Control_c, 0, 64, 127
2, 32536, Note_on_c, 0, 60, 51
2, 32541, Note_on_c, 0, 63, 48
2, 32547, Note_on_c, 0, 68, 40
2, 32556, Control_c, 0, 64, 0
2, 32577, Control_c, 0, 64, 127
2, 32584, Note_off_c, 0, 60, 64
2, 32585, Note_off_c, 0, 63, 64
2, 32595, Note_off_c, 0, 68, 64
2, 32621, Control_c, 0, 64, 0
2, 32623, Note_on_c, 0, 44, 63
2, 32643, Note_off_c, 0, 54, 64
2, 32680, Control_c, 0, 64, 127
2, 32703, Note_on_c, 0, 46, 50
2, 32708, Note_on_c, 0, 68, 46
2, 32715, Note_on_c, 0, 66, 36
2, 32715, Note_on_c, 0, 63, 44
2, 32726, Note_off_c, 0, 44, 64
2, 32726, Control_c, 0, 64, 0
2, 32751, Control_c, 0, 64, 127
2, 32755, Note_off_c, 0, 63, 64
2, 32760, Note_off_c, 0, 66, 64
2, 32767, Note_off_c, 0, 68, 64
2, 32768, Note_on_c, 0, 48, 61
2, 32778, Control_c, 0, 64, 0
2, 32785, Note_off_c, 0, 46, 64
2, 32834, Control_c, 0, 64, 127
2, 32872, Note_on_c, 0, 49, 58
2, 32873, Control_c, 0, 64, 0
2, 32883, Note_on_c, 0, 68, 36
2, 32883, Note_on_c, 0, 61, 33
2, 32889, Note_off_c, 0, 48, 64
2, 32891, Note_on_c, 0, 65, 31
2, 32922, Note_off_c, 0, 65, 64
2, 32927, Note_off_c, 0, 68, 64
2, 32932, Control_c, 0, 64, 127
2, 32937, Note_off_c, 0, 61, 64
2, 32955, Control_c, 0, 64, 0
2, 32963, Note_on_c, 0, 51, 55
2, 32970, Control_c, 0, 64, 127
2, 32980, Note_off_c, 0, 49, 64
2, 33030, Control_c, 0, 64, 0
2, 33046, Note_on_c, 0, 68, 41
2, 33052, Note_on_c, 0, 61, 28
2, 33055, Note_on_c, 0, 53, 44
2, 33063, Note_off_c, 0, 51, 64
2, 33086, Control_c, 0, 64, 127
2, 33118, Note_off_c, 0, 61, 64
2, 33121, Note_off_c, 0, 68, 64
2, 33130, Control_c, 0, 64, 0
2, 33190, Control_c, 0, 64, 127
2, 33193, Note_on_c, 0, 54, 58
2, 33207, Control_c, 0, 64, 0
2, 33212, Note_on_c, 0, 68, 23
2, 33213, Note_off_c, 0, 53, 64
2, 33216, Note_on_c, 0, 61, 23
2, 33222, Control_c, 0, 64, 127
2, 33264, Note_off_c, 0, 61, 64
2, 33264, Note_off_c, 0, 68, 64
2, 33275, Note_on_c, 0, 53, 58
2, 33282, Note_off_c, 0, 54, 64
2, 33297, Control_c, 0, 64, 0
2, 33315, Note_off_c, 0, 53, 64
2, 33344, Note_on_c, 0, 53, 66
2, 33356, Note_on_c, 0, 51, 55
2, 33366, Control_c, 0, 64, 127
2, 33367, Note_on_c, 0, 66, 46
2, 33379, Note_on_c, 0, 68, 28
2, 33379, Note_on_c, 0, 60, 46
2, 33382, Control_c, 0, 64, 0
2, 33399, Note_off_c, 0, 53, 64
2, 33430, Note_off_c, 0, 60, 64
2, 33431, Note_off_c, 0, 68, 64
2, 33434, Note_off_c, 0, 66, 64
2, 33442, Control_c, 0, 64, 127
2, 33479, Control_c, 0, 64, 0
2, 33513, Note_on_c, 0, 50, 55
2, 33526, Control_c, 0, 64, 127
2, 33532, Note_off_c, 0, 51, 64
2, 33549, Control_c, 0, 64, 0
2, 33556, Note_on_c, 0, 60, 36
2, 33560, Note_on_c, 0, 68, 32
2, 33560, Note_on_c, 0, 66, 36
2, 33560, Note_on_c, 0, 51, 67
2, 33582, Note_off_c, 0, 50, 64
2, 33586, Control_c, 0, 64, 0
2, 33600, Note_off_c, 0, 60, 64
2, 33605, Note_off_c, 0, 68, 64
2, 33606, Note_off_c, 0, 66, 64
2, 33618, Control_c, 0, 64, 127
2, 33667, Control_c, 0, 64, 0
2, 33726, Control_c, 0, 64, 127
2, 33731, Control_c, 0, 64, 0
2, 33736, Note_on_c, 0, 44, 54
2, 33740, Note_off_c, 0, 51, 64
2, 33740, Note_on_c, 0, 60, 39
2, 33746, Note_on_c, 0, 68, 32
2, 33755, Note_on_c, 0, 66, 21
2, 33778, Control_c, 0, 64, 127
2, 33785, Note_off_c, 0, 60, 64
2, 33799, Note_off_c, 0, 66, 64
2, 33801, Note_off_c, 0, 68, 64
2, 33824, Control_c, 0, 64, 0
2, 33838, Control_c, 0, 64, 0
2, 33870, Control_c, 0, 64, 127
2, 33902, Note_on_c, 0, 53, 54
2, 33909, Note_on_c, 0, 61, 27
2, 33912, Note_on_c, 0, 65, 51
2, 33913, Note_on_c, 0, 68, 33
2, 33919, Control_c, 0, 64, 0
2, 33948, Note_off_c, 0, 44, 64
2, 33960, Note_off_c, 0, 65, 64
2, 33963, Note_off_c, 0, 68, 64
2, 33976, Note_off_c, 0, 61, 64
2, 33978, Control_c, 0, 64, 127
2, 33984, Note_on_c, 0, 51, 58
2, 33998, Note_off_c, 0, 53, 64
2, 34017, Control_c, 0, 64, 0
2, 34073, Control_c, 0, 64, 127
2, 34076, Control_c, 0, 64, 0
2, 34081, Note_on_c, 0, 49, 58
2, 34083, Note_on_c, 0, 61, 36
2, 34087, Note_on_c, 0, 68, 36
2, 34087, Note_on_c, 0, 65, 45
2, 34094, Note_off_c, 0, 51, 64
2, 34122, Control_c, 0, 64, 127
2, 34128, Note_off_c, 0, 65, 64
2, 34130, Note_off_c, 0, 61, 64
2, 34135, Note_off_c, 0, 68, 64
2, 34188, Control_c, 0, 64, 0
2, 34234, Control_c, 0, 64, 127
2, 34257, Note_on_c, 0, 63, 55
2, 34257, Note_on_c, 0, 48, 55
2, 34261, Note_on_c, 0, 69, 59
2, 34261, Note_on_c, 0, 65, 55
2, 34269, Note_off_c, 0, 49, 64
2, 34269, Control_c, 0, 64, 0
2, 34325, Control_c, 0, 64, 127
2, 34336, Note_off_c, 0, 65, 64
2, 34340, Note_off_c, 0, 63, 64
2, 34347, Note_on_c, 0, 47, 42
2, 34350, Note_off_c, 0, 69, 64
2, 34351, Control_c, 0, 64, 0
2, 34370, Note_off_c, 0, 48, 64
2, 34401, Control_c, 0, 64, 127
2, 34421, Note_on_c, 0, 70, 51
2, 34432, Note_on_c, 0, 65, 41
2, 34432, Note_on_c, 0, 63, 46
2, 34432, Note_on_c, 0, 46, 59
2, 34440, Control_c, 0, 64, 0
2, 34455, Note_off_c, 0, 47, 64
2, 34486, Control_c, 0, 64, 127
2, 34494, Note_off_c, 0, 65, 64
2, 34516, Note_off_c, 0, 63, 64
2, 34516, Note_off_c, 0, 70, 64
2, 34518, Control_c, 0, 64, 0
2, 34572, Control_c, 0, 64, 127
2, 34603, Control_c, 0, 64, 0
2, 34616, Note_on_c, 0, 62, 40
2, 34619, Note_on_c, 0, 70, 41
2, 34621, Note_on_c, 0, 65, 46
2, 34653, Control_c, 0, 64, 127
2, 34667, Note_off_c, 0, 46, 64
2, 34689, Note_off_c, 0, 65, 64
2, 34698, Note_off_c, 0, 62, 64
2, 34703, Control_c, 0, 64, 0
2, 34705, Note_off_c, 0, 70, 64
2, 34717, Note_on_c, 0, 46, 66
2, 34760, Control_c, 0, 64, 127
2, 34770, Control_c, 0, 64, 0
2, 34787, Note_on_c, 0, 70, 45
2, 34792, Note_on_c, 0, 48, 57
2, 34796, Note_on_c, 0, 68, 45
2, 34796, Note_on_c, 0, 65, 36
2, 34818, Note_off_c, 0, 46, 64
2, 34824, Control_c, 0, 64, 127
2, 34846, Note_off_c, 0, 70, 64
2, 34855, Control_c, 0, 64, 0
2, 34858, Note_off_c, 0, 68, 64
2, 34862, Note_off_c, 0, 65, 64
2, 34870, Note_on_c, 0, 50, 55
2, 34880, Note_off_c, 0, 48, 64
2, 34901, Control_c, 0, 64, 127
2, 34944, Note_on_c, 0, 51, 71
2, 34955, Control_c, 0, 64, 0
2, 34963, Note_on_c, 0, 66, 44
2, 34963, Note_on_c, 0, 65, 43
2, 34964, Note_off_c, 0, 50, 64
2, 34969, Note_on_c, 0, 70, 32
2, 35012, Control_c, 0, 64, 127
2, 35025, Control_c, 0, 64, 0
2, 35035, Note_on_c, 0, 53, 70
2, 35048, Note_off_c, 0, 70, 64
2, 35049, Note_off_c, 0, 51, 64
2, 35051, Note_off_c, 0, 66, 64
2, 35060, Note_off_c, 0, 65, 64
2, 35061, Control_c, 0, 64, 127
2, 35107, Control_c, 0, 64, 0
2, 35112, Note_on_c, 0, 54, 72
2, 35121, Note_on_c, 0, 63, 43
2, 35127, Note_on_c, 0, 66, 41
2, 35128, Note_on_c, 0, 70, 36
2, 35140, Note_off_c, 0, 53, 64
2, 35153, Control_c, 0, 64, 127
2, 35196, Note_off_c, 0, 66, 64
2, 35201, Control_c, 0, 64, 0
2, 35210, Note_off_c, 0, 63, 64
2, 35214, Note_off_c, 0, 70, 64
2, 35252, Control_c, 0, 64, 127
2, 35269, Note_on_c, 0, 56, 68
2, 35276, Note_on_c, 0, 70, 47
2, 35276, Note_on_c, 0, 63, 47
2, 35277, Control_c, 0, 64, 0
2, 35289, Note_off_c, 0, 54, 64
2, 35313, Control_c, 0, 64, 127
2, 35331, Note_on_c, 0, 54, 44
2, 35349, Control_c, 0, 64, 0
2, 35359, Note_off_c, 0, 56, 64
2, 35367, Note_off_c, 0, 63, 64
2, 35373, Note_off_c, 0, 70, 64
2, 35393, Note_off_c, 0, 54, 64
2, 35412, Note_on_c, 0, 54, 80
2, 35420, Control_c, 0, 64, 127
2, 35444, Note_on_c, 0, 68, 44
2, 35449, Note_on_c, 0, 70, 41
2, 35449, Note_on_c, 0, 63, 45
2, 35453, Control_c, 0, 64, 0
2, 35461, Note_on_c, 0, 53, 63
2, 35475, Note_off_c, 0, 54, 64
2, 35504, Control_c, 0, 64, 127
2, 35527, Note_off_c, 0, 70, 64
2, 35536, Control_c, 0, 64, 0
2, 35537, Note_off_c, 0, 68, 64
2, 35544, Note_off_c, 0, 63, 64
2, 35575, Note_on_c, 0, 52, 66
2, 35591, Note_off_c, 0, 53, 64
2, 35593, Control_c, 0, 64, 127
2, 35601, Control_c, 0, 64, 0
2, 35609, Note_on_c, 0, 53, 61
2, 35613, Note_on_c, 0, 62, 47
2, 35619, Note_on_c, 0, 70, 31
2, 35620, Note_on_c, 0, 68, 23
2, 35628, Note_off_c, 0, 52, 64
2, 35642, Control_c, 0, 64, 0
2, 35672, Control_c, 0, 64, 127
2, 35693, Note_off_c, 0, 70, 64
2, 35693, Note_off_c, 0, 62, 64
2, 35699, Control_c, 0, 64, 0
2, 35708, Note_off_c, 0, 68, 64
2, 35762, Control_c, 0, 64, 127
2, 35788, Control_c, 0, 64, 0
2, 35794, Note_on_c, 0, 46, 66
2, 35798, Note_on_c, 0, 62, 32
2, 35801, Note_on_c, 0, 70, 31
2, 35810, Note_off_c, 0, 53, 64
2, 35814, Note_on_c, 0, 68, 23
2, 35845, Control_c, 0, 64, 127
2, 35866, Control_c, 0, 64, 0
2, 35872, Note_off_c, 0, 68, 64
2, 35881, Note_off_c, 0, 70, 64
2, 35884, Note_off_c, 0, 62, 64
2, 35894, Control_c, 0, 64, 0
2, 35917, Control_c, 0, 64, 127
2, 35951, Note_on_c, 0, 51, 57
2, 35951, Control_c, 0, 64, 0
2, 35959, Note_on_c, 0, 70, 40
2, 35959, Note_on_c, 0, 66, 46
2, 35959, Note_on_c, 0, 63, 47
2, 35970, Note_off_c, 0, 46, 64
2, 36014, Control_c, 0, 64, 127
2, 36026, Control_c, 0, 64, 0
2, 36027, Note_off_c, 0, 63, 64
2, 36027, Note_off_c, 0, 66, 64
2, 36036, Note_off_c, 0, 70, 64
2, 36081, Note_on_c, 0, 53, 57
2, 36087, Control_c, 0, 64, 127
2, 36105, Note_off_c, 0, 51, 64
2, 36118, Control_c, 0, 64, 0
2, 36123, Note_on_c, 0, 70, 44
2, 36123, Note_on_c, 0, 63, 46
2, 36139, Note_on_c, 0, 54, 65
2, 36154, Note_off_c, 0, 53, 64
2, 36169, Control_c, 0, 64, 127
2, 36178, Note_off_c, 0, 70, 64
2, 36187, Note_off_c, 0, 63, 64
2, 36205, Control_c, 0, 64, 0
2, 36257, Control_c, 0, 64, 127
2, 36278, Control_c, 0, 64, 0
2, 36292, Note_on_c, 0, 63, 47
2, 36292, Note_on_c, 0, 61, 45
2, 36301, Note_on_c, 0, 69, 49
2, 36339, Control_c, 0, 64, 127
2, 36347, Note_off_c, 0, 63, 64
2, 36351, Note_off_c, 0, 61, 64
2, 36359, Note_off_c, 0, 69, 64
2, 36372, Control_c, 0, 64, 0
2, 36424, Control_c, 0, 64, 127
2, 36457, Control_c, 0, 64, 0
2, 36466, Note_on_c, 0, 68, 40
2, 36466, Note_on_c, 0, 63, 36
2, 36474, Note_on_c, 0, 61, 25
2, 36504, Note_off_c, 0, 63, 64
2, 36509, Control_c, 0, 64, 127
2, 36514, Note_off_c, 0, 61, 64
2, 36514, Note_off_c, 0, 68, 64
2, 36531, Control_c, 0, 64, 0
2, 36586, Control_c, 0, 64, 127
2, 36624, Control_c, 0, 64, 0
2, 36632, Note_on_c, 0, 60, 44
2, 36635, Note_on_c, 0, 63, 36
2, 36639, Note_on_c, 0, 68, 39
2, 36676, Control_c, 0, 64, 127
2, 36681, Note_off_c, 0, 63, 64
2, 36681, Note_off_c, 0, 60, 64
2, 36684, Note_off_c, 0, 68, 64
2, 36701, Control_c, 0, 64, 0
2, 36730, Note_on_c, 0, 44, 58
2, 36760, Note_off_c, 0, 54, 64
2, 36767, Control_c, 0, 64, 127
2, 36783, Control_c, 0, 64, 0
2, 36799, Note_on_c, 0, 68, 44
2, 36800, Note_on_c, 0, 46, 55
2, 36807, Note_on_c, 0, 66, 40
2, 36809, Note_on_c, 0, 63, 41
2, 36830, Note_off_c, 0, 44, 64
2, 36838, Control_c, 0, 64, 127
2, 36845, Note_off_c, 0, 66, 64
2, 36851, Note_off_c, 0, 63, 64
2, 36858, Note_off_c, 0, 68, 64
2, 36864, Control_c, 0, 64, 0
2, 36879, Note_on_c, 0, 48, 54
2, 36899, Note_off_c, 0, 46, 64
2, 36918, Control_c, 0, 64, 127
2, 36953, Control_c, 0, 64, 0
2, 36961, Note_on_c, 0, 49, 65
2, 36967, Note_on_c, 0, 63, 46
2, 36972, Note_on_c, 0, 68, 33
2, 36974, Note_on_c, 0, 65, 46
2, 36979, Note_off_c, 0, 48, 64
2, 37004, Note_off_c, 0, 65, 64
2, 37009, Note_off_c, 0, 63, 64
2, 37010, Note_off_c, 0, 68, 64
2, 37019, Control_c, 0, 64, 127
2, 37029, Control_c, 0, 64, 0
2, 37041, Note_on_c, 0, 51, 63
2, 37062, Note_off_c, 0, 49, 64
2, 37066, Control_c, 0, 64, 127
2, 37116, Control_c, 0, 64, 0
2, 37123, Note_on_c, 0, 53, 37
2, 37131, Note_on_c, 0, 61, 40
2, 37134, Note_on_c, 0, 68, 36
2, 37134, Note_on_c, 0, 65, 45
2, 37145, Note_off_c, 0, 51, 64
2, 37170, Control_c, 0, 64, 127
2, 37176, Note_off_c, 0, 65, 64
2, 37182, Note_off_c, 0, 68, 64
2, 37183, Note_off_c, 0, 61, 64
2, 37192, Control_c, 0, 64, 0
2, 37264, Control_c, 0, 64, 127
2, 37272, Note_on_c, 0, 54, 70
2, 37281, Control_c, 0, 64, 0
2, 37290, Note_off_c, 0, 53, 64
2, 37298, Note_on_c, 0, 61, 36
2, 37305, Note_on_c, 0, 68, 28
2, 37318, Control_c, 0, 64, 127
2, 37342, Note_off_c, 0, 68, 64
2, 37351, Control_c, 0, 64, 0
2, 37352, Note_off_c, 0, 61, 64
2, 37352, Note_on_c, 0, 53, 63
2, 37371, Note_off_c, 0, 54, 64
2, 37409, Note_off_c, 0, 53, 64
2, 37416, Control_c, 0, 64, 127
2, 37424, Note_on_c, 0, 53, 72
2, 37444, Control_c, 0, 64, 0
2, 37451, Note_on_c, 0, 68, 46
2, 37451, Note_on_c, 0, 66, 36
2, 37452, Note_on_c, 0, 61, 49
2, 37458, Note_on_c, 0, 51, 58
2, 37477, Note_off_c, 0, 53, 64
2, 37491, Note_off_c, 0, 61, 64
2, 37499, Note_off_c, 0, 68, 64
2, 37501, Note_off_c, 0, 66, 64
2, 37516, Control_c, 0, 64, 127
2, 37543, Control_c, 0, 64, 0
2, 37585, Note_on_c, 0, 50, 55
2, 37599, Control_c, 0, 64, 127
2, 37602, Note_off_c, 0, 51, 64
2, 37603, Control_c, 0, 64, 0
2, 37627, Note_on_c, 0, 60, 39
2, 37631, Note_on_c, 0, 68, 25
2, 37631, Note_on_c, 0, 66, 23
2, 37637, Note_on_c, 0, 51, 74
2, 37648, Note_off_c, 0, 50, 64
2, 37661, Note_off_c, 0, 66, 64
2, 37666, Note_off_c, 0, 68, 64
2, 37668, Control_c, 0, 64, 127
2, 37676, Note_off_c, 0, 60, 64
2, 37700, Control_c, 0, 64, 0
2, 37779, Control_c, 0, 64, 127
2, 37795, Control_c, 0, 64, 0
2, 37804, Note_on_c, 0, 44, 54
2, 37811, Note_on_c, 0, 66, 43
2, 37811, Note_on_c, 0, 60, 37
2, 37814, Note_on_c, 0, 68, 43
2, 37826, Note_off_c, 0, 51, 64
2, 37848, Note_off_c, 0, 66, 64
2, 37851, Control_c, 0, 64, 127
2, 37860, Note_off_c, 0, 60, 64
2, 37866, Note_off_c, 0, 68, 64
2, 37870, Control_c, 0, 64, 0
2, 37936, Control_c, 0, 64, 127
2, 37952, Control_c, 0, 64, 0
2, 37974, Note_on_c, 0, 61, 23
2, 37978, Note_on_c, 0, 53, 58
2, 37982, Note_on_c, 0, 68, 25
2, 37986, Note_on_c, 0, 65, 23
2, 37994, Note_off_c, 0, 44, 64
2, 38000, Control_c, 0, 64, 0
2, 38026, Note_off_c, 0, 65, 64
2, 38028, Note_off_c, 0, 61, 64
2, 38031, Control_c, 0, 64, 127
2, 38034, Note_off_c, 0, 68, 64
2, 38043, Control_c, 0, 64, 127
2, 38049, Note_on_c, 0, 51, 59
2, 38066, Note_off_c, 0, 53, 64
2, 38122, Control_c, 0, 64, 0
2, 38138, Note_on_c, 0, 61, 37
2, 38144, Note_on_c, 0, 68, 32
2, 38144, Note_on_c, 0, 49, 58
2, 38146, Control_c, 0, 64, 0
2, 38155, Note_on_c, 0, 65, 31
2, 38161, Note_off_c, 0, 51, 64
2, 38188, Control_c, 0, 64, 127
2, 38193, Note_off_c, 0, 61, 64
2, 38195, Note_off_c, 0, 65, 64
2, 38202, Note_off_c, 0, 68, 64
2, 38219, Control_c, 0, 64, 0
2, 38252, Control_c, 0, 64, 0
2, 38256, Control_c, 0, 64, 127
2, 38295, Control_c, 0, 64, 127
2, 38302, Note_on_c, 0, 61, 44
2, 38308, Note_on_c, 0, 68, 36
2, 38308, Note_on_c, 0, 65, 23
2, 38347, Note_off_c, 0, 61, 64
2, 38348, Note_off_c, 0, 68, 64
2, 38365, Note_off_c, 0, 65, 64
2, 38391, Control_c, 0, 64, 0
2, 38398, Control_c, 0, 64, 0
2, 38442, Control_c, 0, 64, 127
2, 38470, Note_off_c, 0, 49, 64
2, 38471, Note_on_c, 0, 61, 25
2, 38471, Control_c, 0, 64, 0
2, 38477, Note_on_c, 0, 41, 52
2, 38483, Note_on_c, 0, 68, 23
2, 38483, Note_on_c, 0, 65, 23
2, 38508, Control_c, 0, 64, 127
2, 38522, Note_off_c, 0, 65, 64
2, 38531, Note_off_c, 0, 68, 64
2, 38531, Note_off_c, 0, 61, 64
2, 38539, Note_on_c, 0, 39, 55
2, 38563, Note_off_c, 0, 41, 64
2, 38629, Note_on_c, 0, 37, 61
2, 38632, Note_on_c, 0, 68, 36
2, 38636, Note_on_c, 0, 61, 36
2, 38641, Note_on_c, 0, 65, 35
2, 38643, Control_c, 0, 64, 0
2, 38652, Note_off_c, 0, 39, 64
2, 38676, Note_off_c, 0, 65, 64
2, 38681, Note_off_c, 0, 61, 64
2, 38688, Note_off_c, 0, 68, 64
2, 38694, Control_c, 0, 64, 127
2, 38733, Control_c, 0, 64, 0
2, 38772, Control_c, 0, 64, 127
2, 38816, Note_on_c, 0, 65, 32
2, 38816, Note_on_c, 0, 61, 25
2, 38819, Note_on_c, 0, 68, 23
2, 38867, Note_off_c, 0, 65, 64
2, 38870, Note_off_c, 0, 61, 64
2, 38873, Note_off_c, 0, 68, 64
2, 38976, Note_on_c, 0, 56, 51
2, 38985, Control_c, 0, 64, 0
2, 38988, Note_on_c, 0, 64, 44
2, 38992, Note_on_c, 0, 68, 47
2, 39024, Control_c, 0, 64, 127
2, 39049, Note_off_c, 0, 68, 64
2, 39049, Note_off_c, 0, 56, 64
2, 39059, Note_off_c, 0, 64, 64
2, 39153, Note_on_c, 0, 56, 23
2, 39159, Note_on_c, 0, 64, 31
2, 39163, Note_on_c, 0, 68, 18
2, 39198, Note_off_c, 0, 64, 64
2, 39202, Note_off_c, 0, 56, 64
2, 39209, Note_off_c, 0, 68, 64
2, 39316, Note_on_c, 0, 56, 35
2, 39320, Note_on_c, 0, 64, 32
2, 39329, Note_on_c, 0, 68, 18
2, 39377, Note_off_c, 0, 56, 64
2, 39391, Note_off_c, 0, 68, 64
2, 39392, Note_off_c, 0, 64, 64
2, 39398, Control_c, 0, 64, 0
2, 39466, Control_c, 0, 64, 127
2, 39500, Note_on_c, 0, 56, 44
2, 39504, Note_on_c, 0, 68, 43
2, 39504, Note_on_c, 0, 36, 66
2, 39506, Note_on_c, 0, 64, 55
2, 39551, Note_off_c, 0, 37, 64
2, 39556, Note_off_c, 0, 64, 64
2, 39571, Note_off_c, 0, 56, 64
2, 39580, Note_off_c, 0, 68, 64
2, 39650, Control_c, 0, 64, 0
2, 39669, Note_on_c, 0, 56, 40
2, 39672, Note_on_c, 0, 68, 32
2, 39676, Note_on_c, 0, 64, 32
2, 39718, Control_c, 0, 64, 127
2, 39729, Note_off_c, 0, 56, 64
2, 39748, Note_off_c, 0, 64, 64
2, 39772, Note_off_c, 0, 68, 64
2, 39842, Note_on_c, 0, 56, 28
2, 39843, Note_on_c, 0, 64, 32
2, 39844, Note_on_c, 0, 68, 23
2, 39896, Note_off_c, 0, 68, 64
2, 39904, Note_off_c, 0, 56, 64
2, 39917, Note_off_c, 0, 64, 64
2, 40008, Note_on_c, 0, 48, 66
2, 40012, Note_on_c, 0, 55, 27
2, 40016, Note_on_c, 0, 67, 26
2, 40020, Note_on_c, 0, 64, 18
2, 40083, Note_off_c, 0, 55, 64
2, 40085, Note_off_c, 0, 64, 64
2, 40092, Note_off_c, 0, 67, 64
2, 40196, Note_on_c, 0, 64, 32
2, 40200, Note_on_c, 0, 55, 27
2, 40201, Note_on_c, 0, 67, 26
2, 40268, Note_off_c, 0, 64, 64
2, 40271, Note_off_c, 0, 55, 64
2, 40277, Note_off_c, 0, 67, 64
2, 40388, Note_on_c, 0, 67, 26
2, 40392, Note_on_c, 0, 64, 32
2, 40396, Note_on_c, 0, 55, 31
2, 40423, Control_c, 0, 64, 0
2, 40440, Control_c, 0, 64, 127
2, 40463, Note_off_c, 0, 36, 64
2, 40464, Note_off_c, 0, 64, 64
2, 40464, Note_off_c, 0, 67, 64
2, 40472, Note_off_c, 0, 55, 64
2, 40485, Note_off_c, 0, 48, 64
2, 40524, Control_c, 0, 64, 0
2, 40593, Note_on_c, 0, 41, 67
2, 40602, Note_on_c, 0, 55, 40
2, 40604, Note_on_c, 0, 60, 46
2, 40615, Note_on_c, 0, 48, 20
2, 40675, Control_c, 0, 64, 0
2, 40685, Note_on_c, 0, 40, 53
2, 40691, Control_c, 0, 64, 127
2, 40692, Control_c, 0, 64, 127
2, 40697, Note_off_c, 0, 41, 64
2, 40776, Control_c, 0, 64, 0
2, 40799, Note_on_c, 0, 36, 46
2, 40815, Note_off_c, 0, 40, 64
2, 40943, Control_c, 0, 64, 127
2, 41019, Note_off_c, 0, 60, 64
2, 41019, Note_off_c, 0, 55, 64
2, 41046, Control_c, 0, 64, 0
2, 41061, Note_off_c, 0, 48, 64
2, 41077, Control_c, 0, 64, 127
2, 41207, Control_c, 0, 64, 0
2, 41220, Control_c, 0, 64, 127
2, 41243, Note_on_c, 0, 65, 41
2, 41247, Note_on_c, 0, 56, 45
2, 41247, Note_on_c, 0, 41, 57
2, 41261, Note_off_c, 0, 36, 64
2, 41298, Control_c, 0, 64, 0
2, 41329, Control_c, 0, 64, 127
2, 41450, Note_on_c, 0, 49, 53
2, 41459, Control_c, 0, 64, 0
2, 41472, Control_c, 0, 64, 127
2, 41561, Note_off_c, 0, 56, 64
2, 41612, Note_off_c, 0, 65, 64
2, 41639, Note_on_c, 0, 47, 54
2, 41669, Note_off_c, 0, 41, 64
2, 41680, Note_off_c, 0, 49, 64
2, 41737, Control_c, 0, 64, 0
2, 41822, Note_on_c, 0, 55, 41
2, 41829, Note_on_c, 0, 60, 37
2, 41834, Note_on_c, 0, 48, 37
2, 41837, Note_off_c, 0, 47, 64
2, 41893, Control_c, 0, 64, 127
2, 41926, Note_on_c, 0, 40, 52
2, 41989, Control_c, 0, 64, 0
2, 42016, Note_on_c, 0, 36, 52
2, 42030, Note_off_c, 0, 40, 64
2, 42145, Control_c, 0, 64, 127
2, 42207, Control_c, 0, 64, 0
2, 42220, Note_off_c, 0, 55, 64
2, 42241, Note_off_c, 0, 60, 64
2, 42268, Note_off_c, 0, 48, 64
2, 42367, Control_c, 0, 64, 127
2, 42393, Note_off_c, 0, 36, 64
2, 42415, Note_on_c, 0, 56, 46
2, 42418, Note_on_c, 0, 41, 65
2, 42420, Note_on_c, 0, 65, 24
2, 42459, Control_c, 0, 64, 0
2, 42595, Note_on_c, 0, 49, 54
2, 42619, Control_c, 0, 64, 127
2, 42746, Note_off_c, 0, 56, 64
2, 42751, Note_off_c, 0, 65, 64
2, 42795, Note_on_c, 0, 47, 36
2, 42812, Note_off_c, 0, 49, 64
2, 42913, Control_c, 0, 64, 0
2, 42945, Note_off_c, 0, 47, 64
2, 42975, Note_on_c, 0, 55, 29
2, 42981, Note_on_c, 0, 60, 29
2, 42986, Note_on_c, 0, 48, 20
2, 43061, Note_off_c, 0, 41, 64
2, 43067, Note_on_c, 0, 40, 52
2, 43155, Note_on_c, 0, 36, 53
2, 43165, Control_c, 0, 64, 0
2, 43174, Note_off_c, 0, 40, 64
2, 43215, Control_c, 0, 64, 127
2, 43467, Control_c, 0, 64, 127
2, 43472, Control_c, 0, 64, 0
2, 43530, Note_on_c, 0, 41, 63
2, 43552, Note_off_c, 0, 36, 64
2, 43594, Note_off_c, 0, 41, 64
2, 43649, Control_c, 0, 64, 127
2, 43708, Note_on_c, 0, 41, 47
2, 43724, Control_c, 0, 64, 0
2, 43793, Note_on_c, 0, 40, 53
2, 43809, Note_off_c, 0, 41, 64
2, 43859, Control_c, 0, 64, 0
2, 43894, Note_on_c, 0, 36, 42
2, 43895, Control_c, 0, 64, 127
2, 43901, Control_c, 0, 64, 127
2, 43928, Note_off_c, 0, 40, 64
2, 44002, Note_off_c, 0, 36, 64
2, 44045, Control_c, 0, 64, 0
2, 44067, Note_off_c, 0, 48, 64
2, 44067, Note_off_c, 0, 55, 64
2, 44078, Control_c, 0, 64, 127
2, 44086, Note_off_c, 0, 60, 64
2, 44096, Note_on_c, 0, 41, 61
2, 44100, Note_on_c, 0, 60, 26
2, 44100, Note_on_c, 0, 48, 26
2, 44111, Control_c, 0, 64, 0
2, 44112, Note_on_c, 0, 55, 27
2, 44137, Control_c, 0, 64, 0
2, 44147, Control_c, 0, 64, 127
2, 44200, Note_on_c, 0, 40, 37
2, 44215, Note_off_c, 0, 41, 64
2, 44283, Note_on_c, 0, 36, 42
2, 44297, Control_c, 0, 64, 0
2, 44324, Note_off_c, 0, 40, 64
2, 44330, Control_c, 0, 64, 127
2, 44360, Note_off_c, 0, 36, 64
2, 44389, Control_c, 0, 64, 0
2, 44459, Control_c, 0, 64, 0
2, 44471, Control_c, 0, 64, 127
2, 44487, Note_on_c, 0, 36, 40
2, 44638, Control_c, 0, 64, 0
2, 44665, Control_c, 0, 64, 127
2, 44694, Note_off_c, 0, 36, 64
2, 44699, Note_on_c, 0, 41, 50
2, 44711, Control_c, 0, 64, 0
2, 44723, Control_c, 0, 64, 127
2, 44728, Note_off_c, 0, 55, 64
2, 44738, Note_off_c, 0, 60, 64
2, 44741, Note_off_c, 0, 41, 64
2, 44807, Note_on_c, 0, 40, 31
2, 44849, Note_off_c, 0, 40, 64
2, 44890, Control_c, 0, 64, 0
2, 44912, Note_on_c, 0, 41, 40
2, 44917, Control_c, 0, 64, 127
2, 44954, Note_off_c, 0, 41, 64
2, 45030, Note_on_c, 0, 40, 31
2, 45072, Note_off_c, 0, 40, 64
2, 45113, Note_on_c, 0, 36, 33
2, 45141, Note_off_c, 0, 48, 64
2, 45155, Note_off_c, 0, 36, 64
2, 45214, Control_c, 0, 64, 0
2, 45240, Note_on_c, 0, 36, 40
2, 45260, Control_c, 0, 64, 127
2, 45282, Note_off_c, 0, 36, 64
2, 45366, Control_c, 0, 64, 0
2, 45376, Note_on_c, 0, 41, 39
2, 45387, Note_on_c, 0, 65, 42
2, 45389, Control_c, 0, 64, 127
2, 45406, Control_c, 0, 64, 0
2, 45431, Note_off_c, 0, 41, 64
2, 45452, Control_c, 0, 64, 127
2, 45513, Control_c, 0, 64, 0
2, 45536, Control_c, 0, 64, 127
2, 45540, Note_on_c, 0, 67, 49
2, 45572, Note_on_c, 0, 41, 37
2, 45577, Note_off_c, 0, 65, 64
2, 45602, Note_on_c, 0, 68, 48
2, 45602, Note_on_c, 0, 56, 52
2, 45602, Note_on_c, 0, 48, 29
2, 45618, Control_c, 0, 64, 0
2, 45636, Note_off_c, 0, 67, 64
2, 45641, Control_c, 0, 64, 127
2, 45654, Note_off_c, 0, 56, 64
2, 45655, Note_off_c, 0, 41, 64
2, 45662, Note_off_c, 0, 48, 64
2, 45676, Note_on_c, 0, 70, 39
2, 45709, Note_off_c, 0, 68, 64
2, 45732, Note_on_c, 0, 72, 53
2, 45752, Note_on_c, 0, 41, 45
2, 45753, Note_on_c, 0, 56, 53
2, 45754, Note_off_c, 0, 70, 64
2, 45764, Note_on_c, 0, 48, 39
2, 45765, Control_c, 0, 64, 0
2, 45788, Control_c, 0, 64, 127
2, 45799, Control_c, 0, 64, 0
2, 45804, Note_on_c, 0, 68, 62
2, 45825, Control_c, 0, 64, 127
2, 45830, Note_off_c, 0, 72, 64
2, 45832, Note_off_c, 0, 48, 64
2, 45855, Note_off_c, 0, 56, 64
2, 45860, Note_off_c, 0, 41, 64
2, 45890, Note_on_c, 0, 67, 63
2, 45900, Note_off_c, 0, 68, 64
2, 45924, Note_on_c, 0, 68, 59
2, 45940, Note_off_c, 0, 67, 64
2, 45962, Control_c, 0, 64, 0
2, 45964, Note_on_c, 0, 67, 58
2, 45979, Note_off_c, 0, 68, 64
2, 45991, Control_c, 0, 64, 127
2, 46007, Note_on_c, 0, 41, 42
2, 46028, Note_on_c, 0, 48, 48
2, 46045, Note_on_c, 0, 65, 58
2, 46045, Note_on_c, 0, 56, 65
2, 46051, Control_c, 0, 64, 0
2, 46062, Note_off_c, 0, 67, 64
2, 46077, Note_off_c, 0, 41, 64
2, 46077, Control_c, 0, 64, 127
2, 46086, Note_off_c, 0, 48, 64
2, 46103, Note_off_c, 0, 56, 64
2, 46123, Control_c, 0, 64, 0
2, 46145, Control_c, 0, 64, 127
2, 46174, Note_on_c, 0, 41, 50
2, 46195, Note_on_c, 0, 48, 41
2, 46205, Note_on_c, 0, 77, 61
2, 46205, Note_on_c, 0, 56, 66
2, 46214, Control_c, 0, 64, 0
2, 46236, Note_off_c, 0, 41, 64
2, 46237, Note_off_c, 0, 48, 64
2, 46243, Control_c, 0, 64, 127
2, 46259, Note_off_c, 0, 56, 64
2, 46264, Note_off_c, 0, 65, 64
2, 46272, Control_c, 0, 64, 0
2, 46310, Control_c, 0, 64, 127
2, 46361, Note_on_c, 0, 70, 58
2, 46375, Control_c, 0, 64, 0
2, 46376, Note_off_c, 0, 77, 64
2, 46397, Control_c, 0, 64, 127
2, 46433, Control_c, 0, 64, 0
2, 46452, Control_c, 0, 64, 127
2, 46476, Note_on_c, 0, 72, 58
2, 46480, Note_on_c, 0, 46, 54
2, 46492, Note_off_c, 0, 70, 64
2, 46508, Note_on_c, 0, 53, 42
2, 46513, Note_on_c, 0, 61, 65
2, 46518, Note_on_c, 0, 73, 70
2, 46524, Control_c, 0, 64, 0
2, 46548, Note_off_c, 0, 46, 64
2, 46550, Note_off_c, 0, 72, 64
2, 46554, Note_off_c, 0, 53, 64
2, 46562, Note_off_c, 0, 61, 64
2, 46562, Control_c, 0, 64, 127
2, 46587, Control_c, 0, 64, 0
2, 46602, Control_c, 0, 64, 127
2, 46607, Note_on_c, 0, 75, 55
2, 46628, Note_off_c, 0, 73, 64
2, 46675, Note_on_c, 0, 77, 63
2, 46677, Note_on_c, 0, 46, 57
2, 46681, Note_on_c, 0, 61, 57
2, 46684, Note_on_c, 0, 53, 54
2, 46685, Control_c, 0, 64, 0
2, 46686, Note_off_c, 0, 75, 64
2, 46704, Control_c, 0, 64, 127
2, 46719, Note_off_c, 0, 53, 64
2, 46721, Note_off_c, 0, 61, 64
2, 46725, Control_c, 0, 64, 0
2, 46751, Note_on_c, 0, 73, 74
2, 46755, Note_off_c, 0, 46, 64
2, 46757, Control_c, 0, 64, 127
2, 46764, Note_off_c, 0, 77, 64
2, 46787, Note_off_c, 0, 73, 64
2, 46827, Note_on_c, 0, 73, 78
2, 46839, Control_c, 0, 64, 0
2, 46854, Control_c, 0, 64, 127
2, 46862, Note_on_c, 0, 75, 74
2, 46870, Note_off_c, 0, 73, 64
2, 46896, Note_on_c, 0, 73, 62
2, 46901, Control_c, 0, 64, 0
2, 46916, Note_off_c, 0, 75, 64
2, 46922, Control_c, 0, 64, 127
2, 46960, Note_on_c, 0, 41, 48
2, 46977, Note_on_c, 0, 72, 61
2, 46977, Note_on_c, 0, 48, 53
2, 46977, Control_c, 0, 64, 0
2, 46986, Note_on_c, 0, 56, 66
2, 46994, Note_off_c, 0, 73, 64
2, 47007, Note_off_c, 0, 48, 64
2, 47007, Note_off_c, 0, 41, 64
2, 47009, Control_c, 0, 64, 127
2, 47020, Note_off_c, 0, 56, 64
2, 47048, Control_c, 0, 64, 0
2, 47082, Control_c, 0, 64, 127
2, 47136, Note_on_c, 0, 41, 63
2, 47138, Note_on_c, 0, 68, 62
2, 47144, Note_on_c, 0, 48, 59
2, 47150, Note_on_c, 0, 56, 71
2, 47153, Control_c, 0, 64, 0
2, 47159, Note_off_c, 0, 72, 64
2, 47174, Control_c, 0, 64, 127
2, 47195, Control_c, 0, 64, 0
2, 47203, Note_off_c, 0, 48, 64
2, 47212, Note_off_c, 0, 41, 64
2, 47222, Control_c, 0, 64, 127
2, 47280, Note_off_c, 0, 56, 64
2, 47287, Note_off_c, 0, 68, 64
2, 47294, Note_on_c, 0, 65, 67
2, 47300, Control_c, 0, 64, 0
2, 47334, Control_c, 0, 64, 127
2, 47346, Control_c, 0, 64, 0
2, 47377, Control_c, 0, 64, 127
2, 47409, Note_on_c, 0, 67, 61
2, 47425, Note_off_c, 0, 65, 64
2, 47436, Note_on_c, 0, 41, 45
2, 47441, Note_on_c, 0, 68, 67
2, 47447, Note_on_c, 0, 48, 61
2, 47447, Control_c, 0, 64, 0
2, 47454, Note_on_c, 0, 56, 70
2, 47474, Control_c, 0, 64, 127
2, 47484, Note_off_c, 0, 41, 64
2, 47485, Note_off_c, 0, 48, 64
2, 47485, Note_off_c, 0, 67, 64
2, 47490, Note_off_c, 0, 56, 64
2, 47503, Control_c, 0, 64, 0
2, 47521, Note_on_c, 0, 70, 66
2, 47527, Control_c, 0, 64, 127
2, 47545, Note_off_c, 0, 68, 64
2, 47598, Note_on_c, 0, 48, 62
2, 47598, Control_c, 0, 64, 0
2, 47605, Note_on_c, 0, 56, 74
2, 47606, Note_on_c, 0, 72, 68
2, 47606, Note_on_c, 0, 41, 67
2, 47628, Note_off_c, 0, 70, 64
2, 47629, Control_c, 0, 64, 127
2, 47634, Control_c, 0, 64, 0
2, 47648, Note_off_c, 0, 48, 64
2, 47665, Note_on_c, 0, 68, 75
2, 47679, Control_c, 0, 64, 127
2, 47680, Note_off_c, 0, 72, 64
2, 47736, Note_on_c, 0, 67, 74
2, 47744, Note_off_c, 0, 41, 64
2, 47747, Note_off_c, 0, 56, 64
2, 47755, Note_off_c, 0, 68, 64
2, 47755, Control_c, 0, 64, 0
2, 47770, Note_on_c, 0, 68, 71
2, 47779, Control_c, 0, 64, 127
2, 47785, Note_off_c, 0, 67, 64
2, 47807, Note_on_c, 0, 67, 63
2, 47823, Note_off_c, 0, 68, 64
2, 47886, Control_c, 0, 64, 0
2, 47897, Note_on_c, 0, 65, 57
2, 47904, Note_on_c, 0, 56, 71
2, 47907, Note_on_c, 0, 48, 63
2, 47907, Note_on_c, 0, 41, 49
2, 47919, Note_off_c, 0, 67, 64
2, 47931, Control_c, 0, 64, 127
2, 47948, Note_off_c, 0, 41, 64
2, 47948, Note_off_c, 0, 48, 64
2, 47955, Note_off_c, 0, 56, 64
2, 47958, Control_c, 0, 64, 0
2, 48005, Control_c, 0, 64, 127
2, 48053, Note_on_c, 0, 56, 66
2, 48054, Note_on_c, 0, 72, 74
2, 48059, Note_on_c, 0, 41, 66
2, 48063, Note_on_c, 0, 48, 54
2, 48071, Note_off_c, 0, 65, 64
2, 48095, Note_off_c, 0, 48, 64
2, 48099, Note_off_c, 0, 72, 64
2, 48103, Note_off_c, 0, 41, 64
2, 48103, Note_off_c, 0, 56, 64
2, 48105, Control_c, 0, 64, 0
2, 48156, Control_c, 0, 64, 127
2, 48174, Note_on_c, 0, 72, 68
2, 48210, Control_c, 0, 64, 0
2, 48217, Note_on_c, 0, 60, 78
2, 48223, Note_off_c, 0, 72, 64
2, 48257, Control_c, 0, 64, 127
2, 48282, Control_c, 0, 64, 0
2, 48317, Note_on_c, 0, 62, 62
2, 48326, Control_c, 0, 64, 127
2, 48344, Note_off_c, 0, 60, 64
2, 48357, Control_c, 0, 64, 0
2, 48361, Note_on_c, 0, 51, 52
2, 48370, Note_on_c, 0, 55, 59
2, 48371, Note_on_c, 0, 43, 58
2, 48380, Note_on_c, 0, 63, 65
2, 48408, Control_c, 0, 64, 127
2, 48419, Note_off_c, 0, 51, 64
2, 48420, Note_off_c, 0, 62, 64
2, 48421, Note_off_c, 0, 43, 64
2, 48421, Note_off_c, 0, 55, 64
2, 48457, Note_on_c, 0, 65, 66
2, 48468, Note_off_c, 0, 63, 64
2, 48534, Control_c, 0, 64, 0
2, 48540, Note_on_c, 0, 50, 63
2, 48541, Note_on_c, 0, 43, 59
2, 48544, Note_on_c, 0, 67, 74
2, 48548, Note_on_c, 0, 55, 53
2, 48571, Note_off_c, 0, 65, 64
2, 48578, Control_c, 0, 64, 127
2, 48588, Note_off_c, 0, 43, 64
2, 48588, Note_off_c, 0, 50, 64
2, 48611, Note_on_c, 0, 59, 68
2, 48614, Control_c, 0, 64, 0
2, 48622, Note_off_c, 0, 55, 64
2, 48635, Note_off_c, 0, 67, 64
2, 48682, Control_c, 0, 64, 127
2, 48707, Note_on_c, 0, 60, 74
2, 48727, Note_off_c, 0, 59, 64
2, 48829, Note_on_c, 0, 48, 57
2, 48833, Control_c, 0, 64, 0
2, 48855, Note_on_c, 0, 55, 66
2, 48866, Control_c, 0, 64, 0
2, 48869, Note_on_c, 0, 64, 52
2, 48882, Control_c, 0, 64, 127
2, 48927, Note_off_c, 0, 60, 64
2, 48934, Note_off_c, 0, 48, 64
2, 48934, Control_c, 0, 64, 127
2, 48945, Note_off_c, 0, 55, 64
2, 48950, Note_off_c, 0, 64, 64
2, 48982, Note_on_c, 0, 60, 62
2, 49041, Note_off_c, 0, 60, 64
2, 49054, Note_on_c, 0, 61, 68
2, 49062, Note_on_c, 0, 48, 37
2, 49064, Note_on_c, 0, 58, 58
2, 49071, Note_on_c, 0, 64, 54
2, 49081, Note_on_c, 0, 63, 76
2, 49085, Control_c, 0, 64, 0
2, 49090, Note_off_c, 0, 61, 64
2, 49117, Note_on_c, 0, 61, 70
2, 49131, Note_off_c, 0, 63, 64
2, 49131, Note_off_c, 0, 64, 64
2, 49134, Control_c, 0, 64, 127
2, 49166, Note_off_c, 0, 58, 64
2, 49192, Note_off_c, 0, 48, 64
2, 49214, Note_off_c, 0, 61, 64
2, 49226, Note_on_c, 0, 60, 65
2, 49228, Control_c, 0, 64, 0
2, 49274, Control_c, 0, 64, 127
2, 49306, Note_off_c, 0, 60, 64
2, 49314, Note_on_c, 0, 65, 41
2, 49379, Control_c, 0, 64, 0
2, 49422, Control_c, 0, 64, 127
2, 49440, Note_on_c, 0, 67, 46
2, 49452, Note_off_c, 0, 65, 64
2, 49455, Note_on_c, 0, 41, 41
2, 49473, Note_on_c, 0, 48, 40
2, 49478, Note_on_c, 0, 68, 49
2, 49478, Note_on_c, 0, 56, 45
2, 49480, Control_c, 0, 64, 0
2, 49509, Note_off_c, 0, 67, 64
2, 49519, Note_off_c, 0, 41, 64
2, 49524, Note_off_c, 0, 56, 64
2, 49526, Control_c, 0, 64, 127
2, 49533, Control_c, 0, 64, 0
2, 49535, Note_off_c, 0, 48, 64
2, 49557, Note_on_c, 0, 70, 45
2, 49571, Control_c, 0, 64, 127
2, 49592, Note_off_c, 0, 68, 64
2, 49630, Note_on_c, 0, 41, 39
2, 49631, Control_c, 0, 64, 0
2, 49642, Note_on_c, 0, 72, 48
2, 49647, Note_on_c, 0, 56, 45
2, 49647, Note_on_c, 0, 48, 39
2, 49669, Note_off_c, 0, 70, 64
2, 49674, Control_c, 0, 64, 127
2, 49709, Control_c, 0, 64, 0
2, 49710, Note_off_c, 0, 48, 64
2, 49715, Note_on_c, 0, 68, 55
2, 49729, Note_off_c, 0, 72, 64
2, 49732, Control_c, 0, 64, 127
2, 49754, Note_off_c, 0, 56, 64
2, 49758, Note_off_c, 0, 41, 64
2, 49785, Control_c, 0, 64, 0
2, 49791, Note_on_c, 0, 67, 46
2, 49795, Note_off_c, 0, 68, 64
2, 49813, Note_on_c, 0, 68, 52
2, 49823, Control_c, 0, 64, 127
2, 49837, Note_off_c, 0, 67, 64
2, 49850, Note_on_c, 0, 67, 41
2, 49867, Note_off_c, 0, 68, 64
2, 49869, Control_c, 0, 64, 0
2, 49893, Control_c, 0, 64, 127
2, 49934, Note_on_c, 0, 65, 35
2, 49942, Note_on_c, 0, 56, 45
2, 49945, Note_on_c, 0, 41, 39
2, 49946, Note_off_c, 0, 67, 64
2, 49951, Note_on_c, 0, 48, 41
2, 49961, Control_c, 0, 64, 0
2, 49984, Control_c, 0, 64, 127
2, 49988, Note_off_c, 0, 48, 64
2, 49988, Note_off_c, 0, 41, 64
2, 49996, Note_off_c, 0, 56, 64
2, 50007, Control_c, 0, 64, 0
2, 50043, Control_c, 0, 64, 127
2, 50092, Note_on_c, 0, 41, 40
2, 50100, Note_on_c, 0, 77, 49
2, 50100, Note_on_c, 0, 56, 41
2, 50106, Note_on_c, 0, 48, 41
2, 50121, Control_c, 0, 64, 0
2, 50138, Note_off_c, 0, 65, 64
2, 50143, Note_off_c, 0, 77, 64
2, 50145, Note_off_c, 0, 48, 64
2, 50145, Control_c, 0, 64, 127
2, 50151, Control_c, 0, 64, 0
2, 50155, Note_off_c, 0, 41, 64
2, 50195, Control_c, 0, 64, 127
2, 50196, Note_off_c, 0, 56, 64
2, 50220, Note_on_c, 0, 77, 45
2, 50248, Note_on_c, 0, 70, 48
2, 50259, Control_c, 0, 64, 0
2, 50281, Note_off_c, 0, 77, 64
2, 50295, Control_c, 0, 64, 127
2, 50304, Control_c, 0, 64, 0
2, 50340, Control_c, 0, 64, 127
2, 50360, Note_on_c, 0, 72, 45
2, 50386, Note_off_c, 0, 70, 64
2, 50394, Note_on_c, 0, 46, 28
2, 50403, Control_c, 0, 64, 0
2, 50410, Note_on_c, 0, 73, 42
2, 50410, Note_on_c, 0, 61, 41
2, 50410, Note_on_c, 0, 53, 36
2, 50435, Note_off_c, 0, 72, 64
2, 50447, Control_c, 0, 64, 127
2, 50450, Note_off_c, 0, 46, 64
2, 50455, Control_c, 0, 64, 0
2, 50457, Note_off_c, 0, 53, 64
2, 50457, Note_off_c, 0, 61, 64
2, 50491, Note_on_c, 0, 75, 44
2, 50505, Control_c, 0, 64, 127
2, 50518, Note_off_c, 0, 73, 64
2, 50556, Note_on_c, 0, 77, 46
2, 50556, Control_c, 0, 64, 0
2, 50570, Note_on_c, 0, 61, 41
2, 50572, Note_on_c, 0, 46, 41
2, 50576, Note_off_c, 0, 75, 64
2, 50583, Note_on_c, 0, 53, 32
2, 50592, Control_c, 0, 64, 127
2, 50613, Note_off_c, 0, 61, 64
2, 50615, Note_off_c, 0, 53, 64
2, 50620, Control_c, 0, 64, 0
2, 50642, Note_on_c, 0, 73, 55
2, 50647, Note_off_c, 0, 46, 64
2, 50655, Note_off_c, 0, 77, 64
2, 50656, Control_c, 0, 64, 127
2, 50674, Note_off_c, 0, 73, 64
2, 50707, Control_c, 0, 64, 0
2, 50714, Note_on_c, 0, 73, 57
2, 50744, Note_on_c, 0, 75, 53
2, 50756, Note_off_c, 0, 73, 64
2, 50757, Control_c, 0, 64, 127
2, 50780, Note_on_c, 0, 73, 48
2, 50784, Control_c, 0, 64, 0
2, 50795, Note_off_c, 0, 75, 64
2, 50846, Control_c, 0, 64, 127
2, 50862, Note_on_c, 0, 72, 45
2, 50868, Note_on_c, 0, 41, 41
2, 50871, Note_on_c, 0, 56, 41
2, 50872, Control_c, 0, 64, 0
2, 50874, Note_off_c, 0, 73, 64
2, 50879, Note_on_c, 0, 48, 41
2, 50907, Note_off_c, 0, 41, 64
2, 50908, Control_c, 0, 64, 127
2, 50909, Note_off_c, 0, 56, 64
2, 50917, Note_off_c, 0, 48, 64
2, 50953, Control_c, 0, 64, 0
2, 50979, Control_c, 0, 64, 127
2, 51022, Note_off_c, 0, 72, 64
2, 51036, Control_c, 0, 64, 0
2, 51041, Note_on_c, 0, 68, 62
2, 51048, Note_on_c, 0, 41, 36
2, 51054, Note_on_c, 0, 56, 50
2, 51060, Note_on_c, 0, 48, 32
2, 51098, Control_c, 0, 64, 127
2, 51117, Control_c, 0, 64, 0
2, 51141, Control_c, 0, 64, 127
2, 51198, Note_off_c, 0, 48, 64
2, 51204, Note_on_c, 0, 65, 48
2, 51205, Control_c, 0, 64, 0
2, 51221, Note_off_c, 0, 41, 64
2, 51226, Note_off_c, 0, 56, 64
2, 51229, Note_off_c, 0, 68, 64
2, 51231, Control_c, 0, 64, 127
2, 51254, Control_c, 0, 64, 0
2, 51300, Control_c, 0, 64, 127
2, 51319, Note_on_c, 0, 67, 42
2, 51333, Note_off_c, 0, 65, 64
2, 51340, Note_on_c, 0, 41, 41
2, 51358, Note_on_c, 0, 68, 49
2, 51364, Note_on_c, 0, 48, 28
2, 51369, Note_on_c, 0, 56, 50
2, 51369, Control_c, 0, 64, 0
2, 51393, Control_c, 0, 64, 127
2, 51402, Note_off_c, 0, 67, 64
2, 51406, Note_off_c, 0, 56, 64
2, 51407, Note_off_c, 0, 41, 64
2, 51410, Note_off_c, 0, 48, 64
2, 51426, Control_c, 0, 64, 0
2, 51444, Note_on_c, 0, 70, 41
2, 51453, Control_c, 0, 64, 127
2, 51486, Note_off_c, 0, 68, 64
2, 51506, Control_c, 0, 64, 0
2, 51519, Note_on_c, 0, 41, 41
2, 51528, Note_on_c, 0, 72, 48
2, 51528, Note_on_c, 0, 56, 49
2, 51528, Note_on_c, 0, 48, 41
2, 51539, Note_on_c, 0, 65, 20
2, 51552, Control_c, 0, 64, 127
2, 51559, Note_off_c, 0, 70, 64
2, 51589, Control_c, 0, 64, 0
2, 51607, Note_on_c, 0, 68, 54
2, 51608, Control_c, 0, 64, 127
2, 51611, Note_off_c, 0, 72, 64
2, 51633, Note_off_c, 0, 65, 64
2, 51643, Note_off_c, 0, 48, 64
2, 51656, Note_off_c, 0, 56, 64
2, 51657, Note_off_c, 0, 68, 64
2, 51659, Note_off_c, 0, 41, 64
2, 51672, Note_on_c, 0, 67, 49
2, 51678, Control_c, 0, 64, 0
2, 51694, Note_on_c, 0, 68, 49
2, 51705, Control_c, 0, 64, 127
2, 51712, Note_off_c, 0, 67, 64
2, 51733, Note_on_c, 0, 67, 48
2, 51736, Control_c, 0, 64, 0
2, 51749, Note_off_c, 0, 68, 64
2, 51778, Control_c, 0, 64, 127
2, 51833, Note_on_c, 0, 65, 42
2, 51838, Note_on_c, 0, 41, 37
2, 51840, Note_on_c, 0, 56, 40
2, 51841, Control_c, 0, 64, 0
2, 51848, Note_on_c, 0, 48, 39
2, 51852, Note_off_c, 0, 67, 64
2, 51860, Control_c, 0, 64, 127
2, 51875, Note_off_c, 0, 41, 64
2, 51877, Note_off_c, 0, 48, 64
2, 51878, Note_off_c, 0, 56, 64
2, 51896, Control_c, 0, 64, 0
2, 51934, Control_c, 0, 64, 127
2, 51988, Control_c, 0, 64, 0
2, 51991, Note_on_c, 0, 72, 49
2, 51998, Note_on_c, 0, 56, 52
2, 52001, Note_on_c, 0, 41, 45
2, 52006, Note_on_c, 0, 48, 44
2, 52011, Note_off_c, 0, 65, 64
2, 52030, Control_c, 0, 64, 127
2, 52050, Control_c, 0, 64, 0
2, 52061, Note_off_c, 0, 72, 64
2, 52079, Control_c, 0, 64, 127
2, 52111, Note_off_c, 0, 48, 64
2, 52133, Note_off_c, 0, 41, 64
2, 52148, Control_c, 0, 64, 0
2, 52152, Note_on_c, 0, 60, 41
2, 52173, Note_off_c, 0, 56, 64
2, 52186, Control_c, 0, 64, 127
2, 52200, Control_c, 0, 64, 0
2, 52232, Control_c, 0, 64, 127
2, 52265, Note_on_c, 0, 64, 42
2, 52285, Note_off_c, 0, 60, 64
2, 52301, Note_on_c, 0, 41, 36
2, 52302, Note_on_c, 0, 67, 37
2, 52302, Control_c, 0, 64, 0
2, 52311, Note_on_c, 0, 55, 27
2, 52311, Note_on_c, 0, 48, 36
2, 52331, Control_c, 0, 64, 127
2, 52340, Note_off_c, 0, 64, 64
2, 52346, Note_off_c, 0, 55, 64
2, 52346, Note_off_c, 0, 41, 64
2, 52352, Note_off_c, 0, 48, 64
2, 52373, Control_c, 0, 64, 0
2, 52399, Control_c, 0, 64, 127
2, 52402, Note_on_c, 0, 70, 41
2, 52419, Note_off_c, 0, 67, 64
2, 52452, Control_c, 0, 64, 0
2, 52460, Note_on_c, 0, 48, 39
2, 52461, Note_on_c, 0, 55, 48
2, 52465, Note_on_c, 0, 41, 41
2, 52468, Note_on_c, 0, 73, 48
2, 52476, Note_off_c, 0, 70, 64
2, 52484, Control_c, 0, 64, 127
2, 52520, Note_off_c, 0, 41, 64
2, 52520, Control_c, 0, 64, 0
2, 52543, Note_off_c, 0, 48, 64
2, 52546, Control_c, 0, 64, 127
2, 52572, Note_off_c, 0, 55, 64
2, 52579, Note_on_c, 0, 72, 44
2, 52588, Note_off_c, 0, 73, 64
2, 52615, Note_on_c, 0, 68, 57
2, 52625, Control_c, 0, 64, 0
2, 52632, Note_off_c, 0, 72, 64
2, 52651, Control_c, 0, 64, 127
2, 52661, Note_on_c, 0, 70, 54
2, 52667, Note_off_c, 0, 68, 64
2, 52694, Note_on_c, 0, 68, 49
2, 52716, Note_off_c, 0, 70, 64
2, 52752, Note_on_c, 0, 65, 49
2, 52760, Note_on_c, 0, 56, 45
2, 52762, Note_on_c, 0, 48, 41
2, 52762, Note_on_c, 0, 41, 36
2, 52772, Control_c, 0, 64, 0
2, 52775, Note_off_c, 0, 68, 64
2, 52798, Control_c, 0, 64, 127
2, 52802, Note_off_c, 0, 56, 64
2, 52803, Note_off_c, 0, 48, 64
2, 52809, Note_off_c, 0, 41, 64
2, 52825, Control_c, 0, 64, 0
2, 52864, Control_c, 0, 64, 127
2, 52914, Note_on_c, 0, 77, 55
2, 52923, Note_on_c, 0, 56, 45
2, 52923, Note_on_c, 0, 41, 39
2, 52932, Note_on_c, 0, 48, 41
2, 52942, Note_off_c, 0, 65, 64
2, 52949, Note_off_c, 0, 77, 64
2, 52980, Control_c, 0, 64, 0
2, 52994, Control_c, 0, 64, 127
2, 53004, Note_off_c, 0, 48, 64
2, 53018, Note_off_c, 0, 41, 64
2, 53064, Note_off_c, 0, 56, 64
2, 53070, Note_on_c, 0, 60, 48
2, 53077, Control_c, 0, 64, 0
2, 53107, Control_c, 0, 64, 0
2, 53116, Control_c, 0, 64, 127
2, 53138, Control_c, 0, 64, 127
2, 53177, Note_on_c, 0, 64, 33
2, 53200, Note_off_c, 0, 60, 64
2, 53212, Note_on_c, 0, 67, 41
2, 53223, Note_on_c, 0, 55, 44
2, 53223, Note_on_c, 0, 41, 41
2, 53225, Note_on_c, 0, 48, 44
2, 53232, Control_c, 0, 64, 0
2, 53246, Control_c, 0, 64, 127
2, 53252, Note_off_c, 0, 64, 64
2, 53261, Note_off_c, 0, 48, 64
2, 53261, Note_off_c, 0, 55, 64
2, 53264, Control_c, 0, 64, 0
2, 53267, Note_off_c, 0, 41, 64
2, 53280, Control_c, 0, 64, 127
2, 53327, Note_on_c, 0, 70, 41
2, 53338, Note_off_c, 0, 67, 64
2, 53359, Control_c, 0, 64, 0
2, 53373, Note_on_c, 0, 73, 48
2, 53374, Note_on_c, 0, 55, 49
2, 53381, Note_on_c, 0, 48, 32
2, 53381, Note_on_c, 0, 41, 42
2, 53387, Note_off_c, 0, 70, 64
2, 53390, Control_c, 0, 64, 127
2, 53425, Control_c, 0, 64, 0
2, 53447, Control_c, 0, 64, 127
2, 53452, Note_off_c, 0, 41, 64
2, 53464, Note_on_c, 0, 72, 45
2, 53476, Note_off_c, 0, 48, 64
2, 53480, Note_off_c, 0, 73, 64
2, 53516, Control_c, 0, 64, 0
2, 53525, Note_on_c, 0, 68, 48
2, 53532, Note_off_c, 0, 55, 64
2, 53532, Control_c, 0, 64, 127
2, 53535, Note_off_c, 0, 72, 64
2, 53584, Note_on_c, 0, 70, 53
2, 53596, Note_off_c, 0, 68, 64
2, 53617, Note_on_c, 0, 68, 45
2, 53630, Note_off_c, 0, 70, 64
2, 53668, Note_on_c, 0, 65, 36
2, 53676, Note_on_c, 0, 56, 44
2, 53677, Control_c, 0, 64, 0
2, 53686, Note_off_c, 0, 68, 64
2, 53686, Note_on_c, 0, 41, 33
2, 53691, Note_on_c, 0, 48, 39
2, 53699, Control_c, 0, 64, 127
2, 53727, Note_off_c, 0, 41, 64
2, 53729, Note_off_c, 0, 48, 64
2, 53734, Note_off_c, 0, 56, 64
2, 53764, Control_c, 0, 64, 0
2, 53800, Control_c, 0, 64, 127
2, 53839, Note_on_c, 0, 80, 59
2, 53844, Note_on_c, 0, 56, 44
2, 53849, Note_on_c, 0, 41, 45
2, 53851, Note_off_c, 0, 65, 64
2, 53852, Note_on_c, 0, 48, 41
2, 53880, Note_off_c, 0, 80, 64
2, 53904, Note_off_c, 0, 56, 64
2, 53957, Note_off_c, 0, 48, 64
2, 53984, Note_off_c, 0, 41, 64
2, 54016, Control_c, 0, 64, 0
2, 54019, Note_on_c, 0, 60, 54
2, 54052, Control_c, 0, 64, 127
2, 54131, Note_on_c, 0, 64, 41
2, 54153, Note_off_c, 0, 60, 64
2, 54170, Note_on_c, 0, 55, 41
2, 54170, Note_on_c, 0, 41, 36
2, 54178, Note_on_c, 0, 48, 37
2, 54183, Note_on_c, 0, 67, 41
2, 54199, Note_off_c, 0, 64, 64
2, 54215, Note_off_c, 0, 55, 64
2, 54220, Note_off_c, 0, 48, 64
2, 54220, Note_off_c, 0, 41, 64
2, 54221, Control_c, 0, 64, 0
2, 54242, Note_on_c, 0, 70, 20
2, 54246, Control_c, 0, 64, 127
2, 54261, Note_off_c, 0, 67, 64
2, 54320, Note_on_c, 0, 55, 44
2, 54321, Note_on_c, 0, 41, 41
2, 54327, Note_on_c, 0, 48, 36
2, 54334, Note_on_c, 0, 73, 49
2, 54354, Note_off_c, 0, 70, 64
2, 54369, Control_c, 0, 64, 0
2, 54399, Note_off_c, 0, 41, 64
2, 54402, Control_c, 0, 64, 127
2, 54408, Note_off_c, 0, 55, 64
2, 54416, Note_on_c, 0, 72, 41
2, 54423, Note_off_c, 0, 48, 64
2, 54435, Note_off_c, 0, 73, 64
2, 54468, Note_on_c, 0, 68, 57
2, 54473, Control_c, 0, 64, 0
2, 54484, Note_off_c, 0, 72, 64
2, 54498, Control_c, 0, 64, 127
2, 54511, Note_on_c, 0, 70, 52
2, 54528, Note_off_c, 0, 68, 64
2, 54552, Note_on_c, 0, 68, 48
2, 54569, Note_off_c, 0, 70, 64
2, 54621, Control_c, 0, 64, 0
2, 54624, Note_on_c, 0, 48, 50
2, 54631, Note_on_c, 0, 65, 60
2, 54631, Note_on_c, 0, 56, 48
2, 54631, Note_on_c, 0, 41, 48
2, 54643, Note_off_c, 0, 68, 64
2, 54654, Control_c, 0, 64, 127
2, 54788, Control_c, 0, 64, 0
2, 54811, Note_on_c, 0, 58, 41
2, 54816, Note_on_c, 0, 77, 52
2, 54819, Note_on_c, 0, 49, 57
2, 54823, Note_off_c, 0, 41, 64
2, 54827, Note_off_c, 0, 48, 64
2, 54835, Control_c, 0, 64, 127
2, 54840, Note_off_c, 0, 65, 64
2, 54860, Note_off_c, 0, 56, 64
2, 54981, Note_off_c, 0, 58, 64
2, 54989, Note_off_c, 0, 49, 64
2, 55025, Note_on_c, 0, 89, 50
2, 55025, Note_on_c, 0, 56, 58
2, 55032, Note_on_c, 0, 48, 50
2, 55032, Note_on_c, 0, 41, 1
2, 55040, Control_c, 0, 64, 0
2, 55055, Note_off_c, 0, 77, 64
2, 55087, Control_c, 0, 64, 127
2, 55347, Note_on_c, 0, 101, 70
2, 55379, Note_off_c, 0, 89, 64
2, 55732, Note_off_c, 0, 101, 64
2, 55766, Control_c, 0, 64, 0
2, 55858, Note_off_c, 0, 56, 64
2, 55865, Note_off_c, 0, 41, 64
2, 55865, Note_off_c, 0, 48, 64
2, 56018, Control_c, 0, 64, 0
