0, 0, Header, 1, 7, 240
1, 0, Start_track
1, 0, Time_signature, 4, 2, 24, 8
1, 0, Tempo, 500000
1, 0, Marker_t, "Chopin: Mazurka, Op. 7 No. 4- Presto ma non troppo"
1, 0, End_track
2, 0, Start_track
2, 0, Title_t, "Chopin: Op. 7 No. 4"
2, 0, Program_c, 0, 0
2, 0, Control_c, 0, 7, 127
2, 20, Control_c, 0, 64, 127
2, 118, Control_c, 0, 64, 0
2, 156, Control_c, 0, 64, 127
2, 245, Control_c, 0, 64, 0
2, 260, Note_on_c, 0, 63, 42
2, 272, Control_c, 0, 64, 127
2, 288, Control_c, 0, 64, 127
2, 360, Control_c, 0, 64, 0
2, 370, Control_c, 0, 64, 0
2, 372, Note_off_c, 0, 63, 64
2, 376, Note_on_c, 0, 63, 46
2, 376, Note_on_c, 0, 60, 36
2, 376, Note_on_c, 0, 56, 31
2, 377, Note_on_c, 0, 68, 48
2, 404, Control_c, 0, 64, 127
2, 408, Control_c, 0, 64, 127
2, 422, Note_off_c, 0, 56, 64
2, 422, Note_off_c, 0, 60, 64
2, 422, Note_off_c, 0, 63, 64
2, 429, Note_off_c, 0, 68, 64
2, 430, Note_on_c, 0, 70, 28
2, 466, Note_on_c, 0, 68, 49
2, 476, Note_off_c, 0, 70, 64
2, 486, Control_c, 0, 64, 0
2, 497, Control_c, 0, 64, 0
2, 518, Note_on_c, 0, 64, 37
2, 518, Note_on_c, 0, 61, 36
2, 520, Note_on_c, 0, 56, 23
2, 521, Note_on_c, 0, 67, 49
2, 524, Note_off_c, 0, 68, 64
2, 538, Control_c, 0, 64, 127
2, 540, Control_c, 0, 64, 127
2, 564, Note_off_c, 0, 61, 64
2, 564, Note_off_c, 0, 64, 64
2, 566, Note_off_c, 0, 56, 64
2, 569, Note_on_c, 0, 68, 53
2, 588, Note_off_c, 0, 67, 64
2, 612, Control_c, 0, 64, 0
2, 624, Control_c, 0, 64, 0
2, 632, Note_on_c, 0, 56, 22
2, 633, Note_on_c, 0, 70, 52
2, 633, Note_on_c, 0, 61, 29
2, 636, Note_on_c, 0, 64, 28
2, 646, Note_off_c, 0, 68, 64
2, 656, Control_c, 0, 64, 127
2, 666, Control_c, 0, 64, 127
2, 678, Note_off_c, 0, 56, 64
2, 679, Note_off_c, 0, 61, 64
2, 682, Note_off_c, 0, 64, 64
2, 692, Note_on_c, 0, 72, 50
2, 699, Note_off_c, 0, 70, 64
2, 738, Control_c, 0, 64, 0
2, 744, Control_c, 0, 64, 0
2, 752, Note_on_c, 0, 58, 35
2, 752, Note_on_c, 0, 55, 37
2, 756, Note_on_c, 0, 64, 44
2, 757, Note_on_c, 0, 73, 57
2, 778, Control_c, 0, 64, 127
2, 779, Note_off_c, 0, 72, 64
2, 779, Control_c, 0, 64, 127
2, 790, Control_c, 0, 64, 127
2, 798, Note_off_c, 0, 55, 64
2, 798, Note_off_c, 0, 58, 64
2, 800, Note_on_c, 0, 75, 54
2, 802, Note_off_c, 0, 64, 64
2, 807, Note_off_c, 0, 73, 64
2, 846, Note_on_c, 0, 73, 55
2, 853, Note_off_c, 0, 75, 64
2, 853, Control_c, 0, 64, 0
2, 876, Note_on_c, 0, 63, 46
2, 876, Note_on_c, 0, 60, 41
2, 876, Note_on_c, 0, 56, 40
2, 876, Control_c, 0, 64, 0
2, 887, Note_on_c, 0, 72, 54
2, 895, Note_off_c, 0, 73, 64
2, 902, Control_c, 0, 64, 127
2, 902, Control_c, 0, 64, 127
2, 918, Control_c, 0, 64, 127
2, 922, Note_off_c, 0, 56, 64
2, 922, Note_off_c, 0, 60, 64
2, 922, Note_off_c, 0, 63, 64
2, 931, Note_on_c, 0, 73, 57
2, 943, Note_off_c, 0, 72, 64
2, 993, Control_c, 0, 64, 0
2, 996, Control_c, 0, 64, 0
2, 1000, Note_on_c, 0, 55, 36
2, 1003, Note_off_c, 0, 73, 64
2, 1004, Note_on_c, 0, 75, 55
2, 1004, Note_on_c, 0, 63, 48
2, 1004, Note_on_c, 0, 58, 40
2, 1030, Control_c, 0, 64, 127
2, 1031, Control_c, 0, 64, 127
2, 1038, Control_c, 0, 64, 127
2, 1046, Note_off_c, 0, 55, 64
2, 1050, Note_off_c, 0, 58, 64
2, 1050, Note_off_c, 0, 63, 64
2, 1108, Control_c, 0, 64, 0
2, 1140, Note_off_c, 0, 75, 64
2, 1144, Note_on_c, 0, 65, 44
2, 1144, Note_on_c, 0, 56, 41
2, 1146, Note_on_c, 0, 61, 49
2, 1146, Note_on_c, 0, 53, 46
2, 1147, Note_on_c, 0, 80, 67
2, 1173, Note_off_c, 0, 65, 64
2, 1180, Note_off_c, 0, 53, 64
2, 1182, Note_off_c, 0, 61, 64
2, 1183, Note_off_c, 0, 56, 64
2, 1184, Control_c, 0, 64, 127
2, 1184, Control_c, 0, 64, 127
2, 1202, Control_c, 0, 64, 0
2, 1213, Note_off_c, 0, 80, 64
2, 1242, Note_on_c, 0, 73, 50
2, 1245, Control_c, 0, 64, 127
2, 1246, Note_off_c, 0, 73, 64
2, 1246, Note_on_c, 0, 73, 54
2, 1275, Control_c, 0, 64, 0
2, 1294, Note_on_c, 0, 72, 41
2, 1294, Note_on_c, 0, 56, 27
2, 1294, Note_on_c, 0, 51, 40
2, 1296, Note_on_c, 0, 63, 40
2, 1308, Note_off_c, 0, 73, 64
2, 1320, Control_c, 0, 64, 127
2, 1338, Control_c, 0, 64, 0
2, 1340, Note_off_c, 0, 51, 64
2, 1340, Note_off_c, 0, 56, 64
2, 1342, Note_off_c, 0, 63, 64
2, 1354, Note_on_c, 0, 75, 48
2, 1362, Note_off_c, 0, 72, 64
2, 1368, Control_c, 0, 64, 127
2, 1390, Control_c, 0, 64, 0
2, 1412, Note_on_c, 0, 68, 55
2, 1412, Note_on_c, 0, 63, 37
2, 1412, Note_on_c, 0, 60, 31
2, 1412, Note_on_c, 0, 51, 36
2, 1420, Note_off_c, 0, 75, 64
2, 1435, Control_c, 0, 64, 127
2, 1451, Control_c, 0, 64, 0
2, 1458, Note_off_c, 0, 51, 64
2, 1458, Note_off_c, 0, 60, 64
2, 1458, Note_off_c, 0, 63, 64
2, 1471, Note_on_c, 0, 69, 50
2, 1482, Note_off_c, 0, 68, 64
2, 1494, Control_c, 0, 64, 127
2, 1514, Control_c, 0, 64, 0
2, 1540, Note_on_c, 0, 70, 50
2, 1540, Note_on_c, 0, 63, 40
2, 1540, Note_on_c, 0, 61, 31
2, 1540, Note_on_c, 0, 51, 31
2, 1547, Note_off_c, 0, 69, 64
2, 1557, Control_c, 0, 64, 127
2, 1582, Control_c, 0, 64, 0
2, 1586, Note_off_c, 0, 51, 64
2, 1586, Note_off_c, 0, 61, 64
2, 1586, Note_off_c, 0, 63, 64
2, 1599, Note_on_c, 0, 73, 55
2, 1606, Note_off_c, 0, 70, 64
2, 1613, Control_c, 0, 64, 127
2, 1650, Control_c, 0, 64, 0
2, 1652, Note_on_c, 0, 51, 36
2, 1654, Note_on_c, 0, 63, 36
2, 1655, Note_on_c, 0, 65, 55
2, 1656, Note_on_c, 0, 61, 36
2, 1663, Note_off_c, 0, 73, 64
2, 1680, Control_c, 0, 64, 127
2, 1698, Note_off_c, 0, 51, 64
2, 1698, Control_c, 0, 64, 0
2, 1700, Note_off_c, 0, 63, 64
2, 1702, Note_off_c, 0, 61, 64
2, 1714, Note_on_c, 0, 67, 52
2, 1723, Note_off_c, 0, 65, 64
2, 1744, Control_c, 0, 64, 127
2, 1763, Control_c, 0, 64, 0
2, 1774, Note_on_c, 0, 56, 20
2, 1775, Note_on_c, 0, 68, 54
2, 1776, Note_on_c, 0, 63, 40
2, 1776, Note_on_c, 0, 60, 27
2, 1794, Note_off_c, 0, 67, 64
2, 1806, Control_c, 0, 64, 127
2, 1816, Control_c, 0, 64, 0
2, 1820, Note_off_c, 0, 56, 64
2, 1822, Note_off_c, 0, 60, 64
2, 1822, Note_off_c, 0, 63, 64
2, 1847, Control_c, 0, 64, 127
2, 1924, Control_c, 0, 64, 0
2, 1932, Note_on_c, 0, 63, 41
2, 1932, Note_on_c, 0, 60, 36
2, 1932, Note_on_c, 0, 56, 22
2, 1944, Control_c, 0, 64, 0
2, 1955, Control_c, 0, 64, 127
2, 1974, Control_c, 0, 64, 127
2, 1974, Note_on_c, 0, 70, 44
2, 1978, Note_off_c, 0, 56, 64
2, 1978, Note_off_c, 0, 60, 64
2, 1978, Note_off_c, 0, 63, 64
2, 1993, Note_off_c, 0, 68, 64
2, 2010, Note_on_c, 0, 68, 58
2, 2030, Note_off_c, 0, 70, 64
2, 2040, Control_c, 0, 64, 0
2, 2049, Control_c, 0, 64, 0
2, 2052, Note_on_c, 0, 64, 36
2, 2052, Note_on_c, 0, 56, 31
2, 2054, Note_on_c, 0, 67, 53
2, 2056, Note_on_c, 0, 61, 28
2, 2058, Note_off_c, 0, 68, 64
2, 2078, Control_c, 0, 64, 127
2, 2086, Control_c, 0, 64, 127
2, 2098, Note_off_c, 0, 56, 64
2, 2098, Note_off_c, 0, 64, 64
2, 2102, Note_off_c, 0, 61, 64
2, 2116, Note_on_c, 0, 68, 55
2, 2129, Note_off_c, 0, 67, 64
2, 2158, Control_c, 0, 64, 0
2, 2174, Control_c, 0, 64, 0
2, 2174, Note_on_c, 0, 61, 41
2, 2176, Note_on_c, 0, 70, 44
2, 2176, Note_on_c, 0, 64, 40
2, 2176, Note_on_c, 0, 56, 40
2, 2185, Note_off_c, 0, 68, 64
2, 2189, Control_c, 0, 64, 127
2, 2203, Control_c, 0, 64, 127
2, 2220, Note_off_c, 0, 61, 64
2, 2222, Note_off_c, 0, 56, 64
2, 2222, Note_off_c, 0, 64, 64
2, 2222, Note_on_c, 0, 72, 55
2, 2248, Note_off_c, 0, 70, 64
2, 2272, Control_c, 0, 64, 127
2, 2281, Note_on_c, 0, 73, 53
2, 2286, Note_on_c, 0, 55, 41
2, 2286, Control_c, 0, 64, 0
2, 2288, Note_on_c, 0, 64, 44
2, 2288, Note_on_c, 0, 58, 44
2, 2298, Control_c, 0, 64, 0
2, 2303, Note_off_c, 0, 72, 64
2, 2316, Control_c, 0, 64, 127
2, 2328, Note_on_c, 0, 75, 55
2, 2332, Note_off_c, 0, 55, 64
2, 2334, Note_off_c, 0, 58, 64
2, 2334, Note_off_c, 0, 64, 64
2, 2335, Note_off_c, 0, 73, 64
2, 2349, Control_c, 0, 64, 127
2, 2364, Note_on_c, 0, 73, 52
2, 2378, Note_off_c, 0, 75, 64
2, 2391, Control_c, 0, 64, 0
2, 2409, Note_on_c, 0, 72, 53
2, 2410, Note_on_c, 0, 63, 39
2, 2410, Note_on_c, 0, 60, 46
2, 2412, Note_on_c, 0, 56, 49
2, 2420, Control_c, 0, 64, 127
2, 2422, Note_off_c, 0, 73, 64
2, 2454, Note_on_c, 0, 73, 61
2, 2456, Note_off_c, 0, 60, 64
2, 2456, Note_off_c, 0, 63, 64
2, 2458, Note_off_c, 0, 56, 64
2, 2461, Note_off_c, 0, 72, 64
2, 2461, Control_c, 0, 64, 0
2, 2506, Note_on_c, 0, 74, 55
2, 2510, Note_on_c, 0, 63, 41
2, 2510, Note_on_c, 0, 58, 36
2, 2510, Note_on_c, 0, 55, 44
2, 2513, Control_c, 0, 64, 127
2, 2516, Control_c, 0, 64, 0
2, 2520, Note_off_c, 0, 73, 64
2, 2545, Control_c, 0, 64, 127
2, 2556, Note_off_c, 0, 55, 64
2, 2556, Note_off_c, 0, 58, 64
2, 2556, Note_off_c, 0, 63, 64
2, 2559, Note_on_c, 0, 75, 63
2, 2580, Note_off_c, 0, 74, 64
2, 2583, Control_c, 0, 64, 0
2, 2584, Note_off_c, 0, 75, 64
2, 2606, Control_c, 0, 64, 127
2, 2614, Control_c, 0, 64, 127
2, 2628, Note_on_c, 0, 75, 62
2, 2640, Control_c, 0, 64, 0
2, 2668, Note_on_c, 0, 53, 46
2, 2670, Note_on_c, 0, 65, 24
2, 2670, Note_on_c, 0, 61, 36
2, 2673, Note_on_c, 0, 80, 67
2, 2682, Note_off_c, 0, 75, 64
2, 2691, Control_c, 0, 64, 127
2, 2706, Control_c, 0, 64, 0
2, 2714, Note_off_c, 0, 53, 64
2, 2716, Note_off_c, 0, 61, 64
2, 2716, Note_off_c, 0, 65, 64
2, 2724, Note_off_c, 0, 80, 64
2, 2749, Control_c, 0, 64, 127
2, 2781, Note_on_c, 0, 73, 54
2, 2803, Control_c, 0, 64, 0
2, 2836, Note_on_c, 0, 56, 32
2, 2836, Note_on_c, 0, 51, 28
2, 2837, Note_on_c, 0, 63, 36
2, 2839, Note_on_c, 0, 72, 46
2, 2842, Control_c, 0, 64, 0
2, 2851, Note_off_c, 0, 73, 64
2, 2855, Control_c, 0, 64, 127
2, 2858, Control_c, 0, 64, 127
2, 2882, Note_off_c, 0, 51, 64
2, 2882, Note_off_c, 0, 56, 64
2, 2883, Note_off_c, 0, 63, 64
2, 2888, Note_on_c, 0, 75, 42
2, 2897, Note_off_c, 0, 72, 64
2, 2925, Control_c, 0, 64, 0
2, 2948, Control_c, 0, 64, 127
2, 2950, Note_on_c, 0, 68, 55
2, 2950, Note_on_c, 0, 63, 40
2, 2950, Note_on_c, 0, 60, 36
2, 2950, Note_on_c, 0, 51, 36
2, 2953, Control_c, 0, 64, 0
2, 2956, Note_off_c, 0, 75, 64
2, 2996, Note_off_c, 0, 51, 64
2, 2996, Note_off_c, 0, 60, 64
2, 2996, Note_off_c, 0, 63, 64
2, 3004, Control_c, 0, 64, 127
2, 3012, Note_on_c, 0, 69, 49
2, 3016, Note_off_c, 0, 68, 64
2, 3048, Control_c, 0, 64, 0
2, 3070, Note_on_c, 0, 63, 41
2, 3070, Note_on_c, 0, 61, 28
2, 3070, Note_on_c, 0, 51, 36
2, 3071, Note_on_c, 0, 70, 49
2, 3076, Note_off_c, 0, 69, 64
2, 3091, Control_c, 0, 64, 127
2, 3116, Note_off_c, 0, 51, 64
2, 3116, Note_off_c, 0, 61, 64
2, 3116, Note_off_c, 0, 63, 64
2, 3134, Note_on_c, 0, 73, 50
2, 3141, Note_off_c, 0, 70, 64
2, 3163, Control_c, 0, 64, 0
2, 3182, Note_on_c, 0, 63, 36
2, 3182, Note_on_c, 0, 61, 36
2, 3182, Note_on_c, 0, 51, 36
2, 3184, Note_on_c, 0, 65, 50
2, 3184, Control_c, 0, 64, 0
2, 3190, Note_off_c, 0, 73, 64
2, 3200, Control_c, 0, 64, 127
2, 3217, Control_c, 0, 64, 127
2, 3228, Note_off_c, 0, 51, 64
2, 3228, Note_off_c, 0, 61, 64
2, 3228, Note_off_c, 0, 63, 64
2, 3249, Note_on_c, 0, 67, 48
2, 3264, Note_off_c, 0, 65, 64
2, 3295, Control_c, 0, 64, 0
2, 3308, Note_on_c, 0, 68, 54
2, 3309, Control_c, 0, 64, 0
2, 3310, Note_on_c, 0, 63, 40
2, 3310, Note_on_c, 0, 60, 36
2, 3310, Note_on_c, 0, 56, 36
2, 3331, Note_off_c, 0, 67, 64
2, 3346, Control_c, 0, 64, 127
2, 3354, Control_c, 0, 64, 127
2, 3356, Note_off_c, 0, 56, 64
2, 3356, Note_off_c, 0, 60, 64
2, 3356, Note_off_c, 0, 63, 64
2, 3364, Note_off_c, 0, 68, 64
2, 3423, Control_c, 0, 64, 0
2, 3454, Control_c, 0, 64, 127
2, 3470, Note_on_c, 0, 71, 41
2, 3505, Control_c, 0, 64, 0
2, 3510, Note_on_c, 0, 48, 58
2, 3515, Note_on_c, 0, 72, 57
2, 3527, Note_off_c, 0, 71, 64
2, 3554, Control_c, 0, 64, 0
2, 3559, Control_c, 0, 64, 127
2, 3590, Control_c, 0, 64, 127
2, 3651, Note_off_c, 0, 48, 64
2, 3651, Control_c, 0, 64, 0
2, 3656, Note_on_c, 0, 55, 31
2, 3657, Note_on_c, 0, 84, 65
2, 3658, Note_on_c, 0, 64, 36
2, 3658, Note_on_c, 0, 60, 39
2, 3665, Note_off_c, 0, 72, 64
2, 3680, Control_c, 0, 64, 0
2, 3696, Control_c, 0, 64, 127
2, 3702, Note_off_c, 0, 55, 64
2, 3704, Note_off_c, 0, 60, 64
2, 3704, Note_off_c, 0, 64, 64
2, 3712, Control_c, 0, 64, 127
2, 3733, Note_off_c, 0, 84, 64
2, 3746, Note_on_c, 0, 82, 54
2, 3765, Control_c, 0, 64, 0
2, 3776, Note_on_c, 0, 65, 48
2, 3779, Note_on_c, 0, 80, 66
2, 3779, Note_on_c, 0, 53, 46
2, 3780, Note_on_c, 0, 60, 46
2, 3790, Note_off_c, 0, 82, 64
2, 3793, Control_c, 0, 64, 0
2, 3796, Control_c, 0, 64, 127
2, 3822, Note_off_c, 0, 65, 64
2, 3825, Note_off_c, 0, 53, 64
2, 3826, Note_off_c, 0, 60, 64
2, 3837, Control_c, 0, 64, 127
2, 3896, Control_c, 0, 64, 0
2, 3906, Note_on_c, 0, 59, 40
2, 3906, Note_on_c, 0, 55, 46
2, 3909, Note_on_c, 0, 65, 46
2, 3928, Control_c, 0, 64, 0
2, 3932, Control_c, 0, 64, 127
2, 3952, Note_off_c, 0, 55, 64
2, 3952, Note_off_c, 0, 59, 64
2, 3955, Note_off_c, 0, 65, 64
2, 3960, Control_c, 0, 64, 127
2, 3963, Note_on_c, 0, 79, 49
2, 3972, Note_off_c, 0, 80, 64
2, 3996, Note_on_c, 0, 82, 55
2, 4005, Note_off_c, 0, 79, 64
2, 4022, Control_c, 0, 64, 0
2, 4028, Note_on_c, 0, 80, 74
2, 4030, Note_on_c, 0, 65, 42
2, 4030, Note_on_c, 0, 59, 44
2, 4030, Note_on_c, 0, 55, 42
2, 4042, Control_c, 0, 64, 0
2, 4054, Note_off_c, 0, 82, 64
2, 4054, Control_c, 0, 64, 127
2, 4076, Note_off_c, 0, 55, 64
2, 4076, Note_off_c, 0, 59, 64
2, 4076, Note_off_c, 0, 65, 64
2, 4080, Note_on_c, 0, 79, 59
2, 4097, Control_c, 0, 64, 127
2, 4102, Note_off_c, 0, 80, 64
2, 4135, Control_c, 0, 64, 0
2, 4149, Note_on_c, 0, 74, 50
2, 4152, Note_on_c, 0, 59, 44
2, 4152, Note_on_c, 0, 55, 42
2, 4156, Note_on_c, 0, 65, 45
2, 4164, Note_off_c, 0, 79, 64
2, 4169, Control_c, 0, 64, 0
2, 4179, Control_c, 0, 64, 127
2, 4198, Note_off_c, 0, 55, 64
2, 4198, Note_off_c, 0, 59, 64
2, 4202, Note_off_c, 0, 65, 64
2, 4210, Control_c, 0, 64, 127
2, 4246, Note_off_c, 0, 74, 64
2, 4270, Control_c, 0, 64, 0
2, 4274, Note_on_c, 0, 56, 45
2, 4276, Note_on_c, 0, 72, 59
2, 4276, Note_on_c, 0, 60, 41
2, 4279, Note_on_c, 0, 63, 49
2, 4300, Control_c, 0, 64, 0
2, 4302, Control_c, 0, 64, 127
2, 4308, Note_off_c, 0, 72, 64
2, 4320, Note_off_c, 0, 56, 64
2, 4322, Note_off_c, 0, 60, 64
2, 4325, Note_off_c, 0, 63, 64
2, 4339, Control_c, 0, 64, 127
2, 4348, Note_on_c, 0, 72, 58
2, 4384, Control_c, 0, 64, 0
2, 4400, Note_on_c, 0, 84, 66
2, 4400, Note_on_c, 0, 55, 45
2, 4404, Note_on_c, 0, 64, 39
2, 4404, Note_on_c, 0, 60, 35
2, 4434, Control_c, 0, 64, 0
2, 4439, Control_c, 0, 64, 127
2, 4446, Note_off_c, 0, 55, 64
2, 4450, Note_off_c, 0, 60, 64
2, 4450, Note_off_c, 0, 64, 64
2, 4455, Control_c, 0, 64, 127
2, 4460, Note_off_c, 0, 72, 64
2, 4482, Note_off_c, 0, 84, 64
2, 4498, Note_on_c, 0, 82, 58
2, 4511, Control_c, 0, 64, 0
2, 4522, Note_on_c, 0, 80, 62
2, 4522, Note_on_c, 0, 53, 45
2, 4524, Note_on_c, 0, 65, 44
2, 4524, Note_on_c, 0, 60, 42
2, 4542, Note_off_c, 0, 82, 64
2, 4546, Control_c, 0, 64, 0
2, 4552, Control_c, 0, 64, 127
2, 4568, Note_off_c, 0, 53, 64
2, 4570, Note_off_c, 0, 60, 64
2, 4570, Note_off_c, 0, 65, 64
2, 4589, Control_c, 0, 64, 127
2, 4642, Control_c, 0, 64, 0
2, 4654, Note_on_c, 0, 65, 46
2, 4654, Note_on_c, 0, 55, 45
2, 4656, Note_on_c, 0, 59, 49
2, 4681, Control_c, 0, 64, 127
2, 4689, Note_off_c, 0, 80, 64
2, 4693, Control_c, 0, 64, 0
2, 4700, Note_off_c, 0, 55, 64
2, 4700, Note_off_c, 0, 65, 64
2, 4702, Note_off_c, 0, 59, 64
2, 4709, Control_c, 0, 64, 127
2, 4712, Note_on_c, 0, 79, 50
2, 4748, Note_on_c, 0, 82, 61
2, 4752, Note_off_c, 0, 79, 64
2, 4774, Note_on_c, 0, 80, 58
2, 4776, Note_on_c, 0, 59, 45
2, 4776, Note_on_c, 0, 55, 40
2, 4776, Control_c, 0, 64, 0
2, 4778, Note_on_c, 0, 65, 39
2, 4797, Control_c, 0, 64, 127
2, 4799, Control_c, 0, 64, 0
2, 4804, Note_off_c, 0, 82, 64
2, 4822, Note_off_c, 0, 55, 64
2, 4822, Note_off_c, 0, 59, 64
2, 4824, Note_off_c, 0, 65, 64
2, 4838, Control_c, 0, 64, 127
2, 4843, Note_off_c, 0, 80, 64
2, 4864, Note_on_c, 0, 79, 49
2, 4888, Control_c, 0, 64, 0
2, 4896, Note_on_c, 0, 55, 42
2, 4901, Note_on_c, 0, 74, 58
2, 4901, Note_on_c, 0, 65, 46
2, 4904, Note_off_c, 0, 79, 64
2, 4931, Control_c, 0, 64, 127
2, 4933, Control_c, 0, 64, 0
2, 4942, Note_off_c, 0, 55, 64
2, 4947, Note_off_c, 0, 65, 64
2, 4963, Control_c, 0, 64, 127
2, 5022, Note_off_c, 0, 74, 64
2, 5022, Note_on_c, 0, 63, 32
2, 5022, Note_on_c, 0, 56, 28
2, 5023, Note_on_c, 0, 72, 42
2, 5023, Note_on_c, 0, 60, 26
2, 5035, Control_c, 0, 64, 0
2, 5051, Control_c, 0, 64, 127
2, 5068, Note_off_c, 0, 56, 64
2, 5068, Note_off_c, 0, 63, 64
2, 5069, Note_off_c, 0, 60, 64
2, 5069, Control_c, 0, 64, 0
2, 5081, Control_c, 0, 64, 127
2, 5102, Control_c, 0, 64, 127
2, 5141, Control_c, 0, 64, 0
2, 5147, Note_on_c, 0, 73, 40
2, 5154, Note_on_c, 0, 53, 33
2, 5156, Note_on_c, 0, 61, 36
2, 5156, Note_on_c, 0, 56, 24
2, 5157, Note_off_c, 0, 72, 64
2, 5180, Control_c, 0, 64, 127
2, 5200, Note_off_c, 0, 53, 64
2, 5201, Control_c, 0, 64, 0
2, 5202, Note_off_c, 0, 56, 64
2, 5202, Note_off_c, 0, 61, 64
2, 5230, Control_c, 0, 64, 127
2, 5236, Note_off_c, 0, 73, 64
2, 5244, Note_on_c, 0, 77, 33
2, 5275, Control_c, 0, 64, 0
2, 5282, Note_on_c, 0, 72, 44
2, 5282, Note_on_c, 0, 53, 28
2, 5284, Note_on_c, 0, 62, 36
2, 5284, Note_on_c, 0, 56, 35
2, 5288, Note_off_c, 0, 77, 64
2, 5305, Control_c, 0, 64, 127
2, 5322, Control_c, 0, 64, 0
2, 5328, Note_off_c, 0, 53, 64
2, 5330, Note_off_c, 0, 56, 64
2, 5330, Note_off_c, 0, 62, 64
2, 5367, Control_c, 0, 64, 127
2, 5400, Note_on_c, 0, 55, 28
2, 5402, Note_on_c, 0, 65, 28
2, 5402, Note_on_c, 0, 62, 36
2, 5403, Note_on_c, 0, 71, 41
2, 5404, Note_on_c, 0, 62, 24
2, 5411, Control_c, 0, 64, 0
2, 5419, Note_off_c, 0, 72, 64
2, 5423, Control_c, 0, 64, 127
2, 5444, Control_c, 0, 64, 127
2, 5446, Note_off_c, 0, 55, 64
2, 5448, Note_off_c, 0, 62, 64
2, 5448, Note_off_c, 0, 65, 64
2, 5450, Note_off_c, 0, 62, 64
2, 5470, Control_c, 0, 64, 0
2, 5485, Note_off_c, 0, 71, 64
2, 5492, Control_c, 0, 64, 127
2, 5504, Note_on_c, 0, 67, 37
2, 5540, Note_on_c, 0, 65, 31
2, 5542, Note_on_c, 0, 71, 41
2, 5542, Note_on_c, 0, 62, 28
2, 5542, Note_on_c, 0, 55, 33
2, 5543, Control_c, 0, 64, 0
2, 5550, Note_off_c, 0, 67, 64
2, 5572, Control_c, 0, 64, 127
2, 5586, Note_off_c, 0, 65, 64
2, 5588, Note_off_c, 0, 55, 64
2, 5588, Note_off_c, 0, 62, 64
2, 5608, Note_on_c, 0, 74, 39
2, 5620, Control_c, 0, 64, 0
2, 5622, Note_off_c, 0, 71, 64
2, 5646, Control_c, 0, 64, 127
2, 5664, Control_c, 0, 64, 0
2, 5680, Note_on_c, 0, 63, 28
2, 5681, Note_on_c, 0, 72, 39
2, 5682, Note_on_c, 0, 60, 32
2, 5684, Note_off_c, 0, 74, 64
2, 5709, Control_c, 0, 64, 127
2, 5728, Note_off_c, 0, 60, 64
2, 5734, Control_c, 0, 64, 0
2, 5767, Control_c, 0, 64, 127
2, 5806, Note_on_c, 0, 56, 33
2, 5807, Note_on_c, 0, 60, 33
2, 5812, Control_c, 0, 64, 0
2, 5834, Control_c, 0, 64, 127
2, 5852, Note_off_c, 0, 56, 64
2, 5853, Note_off_c, 0, 60, 64
2, 5873, Note_off_c, 0, 63, 64
2, 5900, Control_c, 0, 64, 0
2, 5925, Control_c, 0, 64, 127
2, 5946, Note_on_c, 0, 61, 36
2, 5948, Note_on_c, 0, 73, 44
2, 5948, Note_on_c, 0, 56, 33
2, 5948, Note_on_c, 0, 53, 33
2, 5962, Control_c, 0, 64, 0
2, 5976, Note_off_c, 0, 72, 64
2, 5988, Control_c, 0, 64, 127
2, 5994, Note_off_c, 0, 53, 64
2, 5994, Note_off_c, 0, 56, 64
2, 6030, Note_off_c, 0, 73, 64
2, 6031, Note_on_c, 0, 77, 39
2, 6069, Control_c, 0, 64, 0
2, 6076, Control_c, 0, 64, 0
2, 6084, Note_on_c, 0, 53, 33
2, 6086, Note_on_c, 0, 72, 42
2, 6086, Note_on_c, 0, 62, 33
2, 6086, Note_on_c, 0, 56, 35
2, 6091, Note_off_c, 0, 61, 64
2, 6092, Control_c, 0, 64, 127
2, 6109, Control_c, 0, 64, 127
2, 6112, Note_off_c, 0, 77, 64
2, 6130, Note_off_c, 0, 53, 64
2, 6132, Note_off_c, 0, 56, 64
2, 6236, Note_on_c, 0, 58, 39
2, 6236, Note_on_c, 0, 55, 37
2, 6242, Control_c, 0, 64, 0
2, 6257, Control_c, 0, 64, 0
2, 6267, Control_c, 0, 64, 127
2, 6284, Note_off_c, 0, 55, 64
2, 6301, Control_c, 0, 64, 127
2, 6303, Note_off_c, 0, 58, 64
2, 6400, Note_on_c, 0, 58, 39
2, 6401, Note_on_c, 0, 63, 40
2, 6401, Note_on_c, 0, 55, 36
2, 6408, Note_off_c, 0, 62, 64
2, 6411, Control_c, 0, 64, 0
2, 6434, Control_c, 0, 64, 127
2, 6437, Control_c, 0, 64, 0
2, 6467, Control_c, 0, 64, 127
2, 6475, Note_off_c, 0, 58, 64
2, 6476, Note_off_c, 0, 55, 64
2, 6501, Note_on_c, 0, 70, 53
2, 6513, Note_off_c, 0, 72, 64
2, 6550, Control_c, 0, 64, 0
2, 6578, Note_on_c, 0, 64, 36
2, 6580, Note_on_c, 0, 61, 32
2, 6580, Note_on_c, 0, 55, 32
2, 6581, Note_on_c, 0, 72, 50
2, 6592, Note_off_c, 0, 70, 64
2, 6595, Control_c, 0, 64, 127
2, 6599, Control_c, 0, 64, 0
2, 6602, Note_off_c, 0, 63, 64
2, 6643, Control_c, 0, 64, 127
2, 6647, Note_off_c, 0, 61, 64
2, 6658, Note_off_c, 0, 55, 64
2, 6674, Control_c, 0, 64, 0
2, 6703, Control_c, 0, 64, 127
2, 6708, Note_on_c, 0, 70, 54
2, 6726, Note_off_c, 0, 72, 64
2, 6779, Control_c, 0, 64, 0
2, 6785, Note_off_c, 0, 64, 64
2, 6790, Note_on_c, 0, 60, 33
2, 6790, Note_on_c, 0, 56, 24
2, 6792, Note_on_c, 0, 68, 52
2, 6792, Note_on_c, 0, 63, 35
2, 6798, Note_off_c, 0, 70, 64
2, 6801, Control_c, 0, 64, 0
2, 6809, Control_c, 0, 64, 127
2, 6820, Note_on_c, 0, 70, 49
2, 6833, Note_off_c, 0, 68, 64
2, 6836, Note_off_c, 0, 56, 64
2, 6836, Note_off_c, 0, 60, 64
2, 6838, Note_off_c, 0, 63, 64
2, 6840, Control_c, 0, 64, 127
2, 6868, Note_on_c, 0, 68, 48
2, 6878, Note_off_c, 0, 70, 64
2, 6892, Control_c, 0, 64, 0
2, 6914, Note_on_c, 0, 61, 18
2, 6914, Note_on_c, 0, 56, 23
2, 6915, Note_on_c, 0, 67, 46
2, 6916, Note_on_c, 0, 64, 35
2, 6923, Control_c, 0, 64, 0
2, 6937, Control_c, 0, 64, 127
2, 6938, Note_off_c, 0, 68, 64
2, 6939, Control_c, 0, 64, 127
2, 6960, Note_off_c, 0, 56, 64
2, 6960, Note_off_c, 0, 61, 64
2, 6962, Note_off_c, 0, 64, 64
2, 6963, Control_c, 0, 64, 127
2, 6970, Note_on_c, 0, 68, 53
2, 6990, Note_off_c, 0, 67, 64
2, 7016, Control_c, 0, 64, 0
2, 7030, Note_on_c, 0, 64, 37
2, 7030, Note_on_c, 0, 61, 37
2, 7030, Note_on_c, 0, 56, 36
2, 7031, Note_on_c, 0, 70, 55
2, 7045, Note_off_c, 0, 68, 64
2, 7045, Control_c, 0, 64, 127
2, 7076, Note_off_c, 0, 56, 64
2, 7076, Note_off_c, 0, 61, 64
2, 7076, Note_off_c, 0, 64, 64
2, 7091, Note_on_c, 0, 72, 49
2, 7097, Note_off_c, 0, 70, 64
2, 7143, Control_c, 0, 64, 0
2, 7148, Note_on_c, 0, 55, 40
2, 7150, Note_on_c, 0, 73, 55
2, 7150, Note_on_c, 0, 64, 42
2, 7150, Note_on_c, 0, 58, 40
2, 7164, Note_off_c, 0, 72, 64
2, 7171, Control_c, 0, 64, 0
2, 7182, Control_c, 0, 64, 127
2, 7190, Note_on_c, 0, 75, 53
2, 7194, Note_off_c, 0, 55, 64
2, 7196, Note_off_c, 0, 58, 64
2, 7196, Note_off_c, 0, 64, 64
2, 7199, Note_off_c, 0, 73, 64
2, 7210, Control_c, 0, 64, 127
2, 7234, Note_on_c, 0, 73, 52
2, 7239, Note_off_c, 0, 75, 64
2, 7265, Control_c, 0, 64, 0
2, 7281, Note_on_c, 0, 72, 55
2, 7281, Control_c, 0, 64, 127
2, 7282, Note_on_c, 0, 60, 45
2, 7282, Note_on_c, 0, 56, 36
2, 7284, Note_on_c, 0, 63, 44
2, 7284, Note_on_c, 0, 56, 42
2, 7285, Note_off_c, 0, 73, 64
2, 7299, Control_c, 0, 64, 0
2, 7305, Control_c, 0, 64, 127
2, 7327, Note_on_c, 0, 73, 55
2, 7328, Note_off_c, 0, 56, 64
2, 7328, Note_off_c, 0, 60, 64
2, 7330, Note_off_c, 0, 56, 64
2, 7330, Note_off_c, 0, 63, 64
2, 7337, Note_off_c, 0, 72, 64
2, 7345, Control_c, 0, 64, 127
2, 7396, Note_on_c, 0, 75, 53
2, 7396, Note_on_c, 0, 63, 40
2, 7398, Note_on_c, 0, 58, 35
2, 7398, Note_on_c, 0, 55, 28
2, 7407, Note_off_c, 0, 73, 64
2, 7416, Control_c, 0, 64, 0
2, 7432, Control_c, 0, 64, 127
2, 7442, Note_off_c, 0, 63, 64
2, 7444, Note_off_c, 0, 55, 64
2, 7444, Note_off_c, 0, 58, 64
2, 7513, Control_c, 0, 64, 0
2, 7526, Note_on_c, 0, 65, 48
2, 7526, Note_on_c, 0, 61, 49
2, 7526, Note_on_c, 0, 53, 42
2, 7529, Note_on_c, 0, 80, 72
2, 7532, Control_c, 0, 64, 0
2, 7543, Note_off_c, 0, 75, 64
2, 7552, Control_c, 0, 64, 127
2, 7572, Note_off_c, 0, 53, 64
2, 7572, Note_off_c, 0, 61, 64
2, 7572, Note_off_c, 0, 65, 64
2, 7576, Control_c, 0, 64, 127
2, 7594, Note_off_c, 0, 80, 64
2, 7620, Note_on_c, 0, 73, 58
2, 7641, Control_c, 0, 64, 0
2, 7656, Control_c, 0, 64, 0
2, 7672, Note_on_c, 0, 51, 44
2, 7674, Note_on_c, 0, 72, 55
2, 7674, Note_on_c, 0, 63, 48
2, 7674, Note_on_c, 0, 56, 15
2, 7687, Note_off_c, 0, 73, 64
2, 7687, Control_c, 0, 64, 127
2, 7692, Control_c, 0, 64, 127
2, 7718, Note_off_c, 0, 51, 64
2, 7719, Note_on_c, 0, 75, 49
2, 7720, Note_off_c, 0, 56, 64
2, 7720, Note_off_c, 0, 63, 64
2, 7725, Note_off_c, 0, 72, 64
2, 7758, Control_c, 0, 64, 0
2, 7774, Control_c, 0, 64, 127
2, 7783, Control_c, 0, 64, 0
2, 7786, Note_on_c, 0, 63, 44
2, 7786, Note_on_c, 0, 60, 43
2, 7788, Note_on_c, 0, 68, 55
2, 7788, Note_on_c, 0, 51, 39
2, 7797, Note_off_c, 0, 75, 64
2, 7823, Control_c, 0, 64, 127
2, 7832, Note_off_c, 0, 60, 64
2, 7832, Note_off_c, 0, 63, 64
2, 7834, Note_off_c, 0, 51, 64
2, 7834, Note_on_c, 0, 69, 46
2, 7850, Note_off_c, 0, 68, 64
2, 7874, Control_c, 0, 64, 0
2, 7892, Note_on_c, 0, 70, 55
2, 7894, Note_on_c, 0, 63, 49
2, 7894, Note_on_c, 0, 61, 44
2, 7894, Note_on_c, 0, 51, 42
2, 7900, Note_off_c, 0, 69, 64
2, 7911, Control_c, 0, 64, 0
2, 7918, Control_c, 0, 64, 127
2, 7928, Control_c, 0, 64, 127
2, 7940, Note_off_c, 0, 51, 64
2, 7940, Note_off_c, 0, 61, 64
2, 7940, Note_off_c, 0, 63, 64
2, 7945, Control_c, 0, 64, 127
2, 7947, Note_on_c, 0, 73, 61
2, 7958, Note_off_c, 0, 70, 64
2, 7998, Control_c, 0, 64, 0
2, 8002, Note_on_c, 0, 63, 37
2, 8004, Note_on_c, 0, 65, 57
2, 8004, Note_on_c, 0, 61, 40
2, 8006, Note_on_c, 0, 51, 36
2, 8015, Note_off_c, 0, 73, 64
2, 8019, Control_c, 0, 64, 0
2, 8034, Control_c, 0, 64, 127
2, 8047, Note_off_c, 0, 61, 64
2, 8048, Note_off_c, 0, 63, 64
2, 8052, Note_off_c, 0, 51, 64
2, 8058, Control_c, 0, 64, 127
2, 8059, Note_on_c, 0, 67, 54
2, 8073, Note_off_c, 0, 65, 64
2, 8118, Note_on_c, 0, 63, 45
2, 8122, Note_on_c, 0, 60, 48
2, 8124, Note_on_c, 0, 56, 27
2, 8125, Note_on_c, 0, 68, 58
2, 8125, Control_c, 0, 64, 0
2, 8127, Control_c, 0, 64, 0
2, 8140, Control_c, 0, 64, 127
2, 8144, Note_off_c, 0, 67, 64
2, 8164, Note_off_c, 0, 63, 64
2, 8165, Control_c, 0, 64, 127
2, 8168, Note_off_c, 0, 60, 64
2, 8170, Note_off_c, 0, 56, 64
2, 8264, Control_c, 0, 64, 127
2, 8266, Note_on_c, 0, 63, 35
2, 8266, Note_on_c, 0, 60, 29
2, 8270, Note_on_c, 0, 56, 31
2, 8283, Control_c, 0, 64, 0
2, 8300, Control_c, 0, 64, 127
2, 8312, Note_off_c, 0, 60, 64
2, 8312, Note_off_c, 0, 63, 64
2, 8316, Note_off_c, 0, 56, 64
2, 8317, Control_c, 0, 64, 127
2, 8339, Note_on_c, 0, 70, 29
2, 8351, Note_off_c, 0, 68, 64
2, 8358, Control_c, 0, 64, 0
2, 8368, Note_on_c, 0, 68, 47
2, 8375, Control_c, 0, 64, 127
2, 8382, Note_off_c, 0, 70, 64
2, 8391, Control_c, 0, 64, 0
2, 8398, Note_on_c, 0, 64, 45
2, 8400, Note_on_c, 0, 61, 48
2, 8400, Note_on_c, 0, 56, 36
2, 8406, Note_on_c, 0, 67, 54
2, 8418, Note_off_c, 0, 68, 64
2, 8430, Control_c, 0, 64, 127
2, 8444, Note_off_c, 0, 64, 64
2, 8446, Note_off_c, 0, 56, 64
2, 8446, Note_off_c, 0, 61, 64
2, 8477, Note_off_c, 0, 67, 64
2, 8499, Control_c, 0, 64, 0
2, 8502, Note_on_c, 0, 68, 48
2, 8512, Control_c, 0, 64, 127
2, 8518, Note_on_c, 0, 70, 41
2, 8522, Note_on_c, 0, 64, 29
2, 8522, Note_on_c, 0, 61, 36
2, 8522, Note_on_c, 0, 56, 33
2, 8532, Note_off_c, 0, 68, 64
2, 8568, Note_off_c, 0, 56, 64
2, 8568, Note_off_c, 0, 61, 64
2, 8568, Note_off_c, 0, 64, 64
2, 8583, Note_on_c, 0, 72, 47
2, 8588, Note_off_c, 0, 70, 64
2, 8604, Control_c, 0, 64, 0
2, 8626, Note_on_c, 0, 64, 52
2, 8626, Note_on_c, 0, 58, 46
2, 8626, Note_on_c, 0, 55, 48
2, 8626, Control_c, 0, 64, 0
2, 8637, Note_on_c, 0, 73, 55
2, 8656, Note_off_c, 0, 72, 64
2, 8659, Control_c, 0, 64, 127
2, 8666, Control_c, 0, 64, 127
2, 8672, Note_off_c, 0, 55, 64
2, 8672, Note_off_c, 0, 58, 64
2, 8672, Note_off_c, 0, 64, 64
2, 8678, Note_on_c, 0, 75, 55
2, 8688, Note_off_c, 0, 73, 64
2, 8717, Note_on_c, 0, 73, 47
2, 8722, Note_off_c, 0, 75, 64
2, 8744, Control_c, 0, 64, 0
2, 8748, Note_on_c, 0, 63, 41
2, 8748, Note_on_c, 0, 60, 36
2, 8748, Note_on_c, 0, 56, 36
2, 8753, Note_on_c, 0, 72, 55
2, 8760, Control_c, 0, 64, 0
2, 8766, Note_off_c, 0, 73, 64
2, 8777, Control_c, 0, 64, 127
2, 8787, Control_c, 0, 64, 127
2, 8794, Note_off_c, 0, 56, 64
2, 8794, Note_off_c, 0, 60, 64
2, 8794, Note_off_c, 0, 63, 64
2, 8803, Note_off_c, 0, 72, 64
2, 8806, Note_on_c, 0, 73, 50
2, 8816, Note_off_c, 0, 73, 64
2, 8826, Note_on_c, 0, 73, 52
2, 8844, Note_off_c, 0, 73, 64
2, 8850, Note_on_c, 0, 74, 51
2, 8854, Note_on_c, 0, 63, 40
2, 8854, Note_on_c, 0, 60, 33
2, 8854, Note_on_c, 0, 56, 35
2, 8868, Control_c, 0, 64, 0
2, 8882, Control_c, 0, 64, 127
2, 8889, Note_on_c, 0, 75, 67
2, 8900, Note_off_c, 0, 56, 64
2, 8900, Note_off_c, 0, 60, 64
2, 8900, Note_off_c, 0, 63, 64
2, 8911, Note_off_c, 0, 74, 64
2, 8914, Note_off_c, 0, 75, 64
2, 8952, Note_on_c, 0, 75, 58
2, 8993, Control_c, 0, 64, 0
2, 8996, Note_on_c, 0, 80, 62
2, 8996, Note_on_c, 0, 61, 48
2, 8996, Note_on_c, 0, 56, 55
2, 8996, Note_on_c, 0, 53, 49
2, 8998, Note_on_c, 0, 65, 40
2, 9006, Control_c, 0, 64, 0
2, 9012, Note_off_c, 0, 75, 64
2, 9023, Control_c, 0, 64, 127
2, 9052, Note_off_c, 0, 65, 64
2, 9061, Note_off_c, 0, 61, 64
2, 9061, Control_c, 0, 64, 127
2, 9077, Note_off_c, 0, 53, 64
2, 9084, Note_off_c, 0, 80, 64
2, 9085, Note_off_c, 0, 56, 64
2, 9115, Note_on_c, 0, 73, 58
2, 9146, Control_c, 0, 64, 0
2, 9160, Note_on_c, 0, 72, 53
2, 9164, Note_on_c, 0, 63, 45
2, 9166, Note_on_c, 0, 56, 32
2, 9166, Note_on_c, 0, 51, 40
2, 9169, Note_off_c, 0, 73, 64
2, 9189, Control_c, 0, 64, 127
2, 9210, Note_off_c, 0, 63, 64
2, 9212, Note_off_c, 0, 51, 64
2, 9212, Note_off_c, 0, 56, 64
2, 9225, Control_c, 0, 64, 0
2, 9225, Note_on_c, 0, 75, 48
2, 9232, Note_off_c, 0, 72, 64
2, 9270, Control_c, 0, 64, 0
2, 9279, Control_c, 0, 64, 127
2, 9284, Control_c, 0, 64, 127
2, 9290, Note_on_c, 0, 68, 65
2, 9290, Note_on_c, 0, 63, 44
2, 9292, Note_on_c, 0, 60, 40
2, 9292, Note_on_c, 0, 51, 36
2, 9301, Note_off_c, 0, 75, 64
2, 9336, Note_off_c, 0, 63, 64
2, 9338, Note_off_c, 0, 51, 64
2, 9338, Note_off_c, 0, 60, 64
2, 9343, Note_on_c, 0, 69, 46
2, 9350, Note_off_c, 0, 68, 64
2, 9395, Control_c, 0, 64, 0
2, 9402, Note_on_c, 0, 63, 45
2, 9404, Note_on_c, 0, 61, 40
2, 9405, Note_on_c, 0, 70, 58
2, 9406, Note_on_c, 0, 51, 44
2, 9421, Note_off_c, 0, 69, 64
2, 9423, Control_c, 0, 64, 0
2, 9425, Control_c, 0, 64, 127
2, 9448, Note_off_c, 0, 63, 64
2, 9450, Note_off_c, 0, 61, 64
2, 9452, Note_off_c, 0, 51, 64
2, 9473, Note_on_c, 0, 73, 59
2, 9475, Control_c, 0, 64, 127
2, 9480, Note_off_c, 0, 70, 64
2, 9528, Note_on_c, 0, 63, 41
2, 9528, Note_on_c, 0, 51, 37
2, 9530, Note_on_c, 0, 65, 58
2, 9530, Note_on_c, 0, 61, 36
2, 9547, Note_off_c, 0, 73, 64
2, 9550, Control_c, 0, 64, 0
2, 9574, Note_off_c, 0, 51, 64
2, 9574, Note_off_c, 0, 63, 64
2, 9576, Note_off_c, 0, 61, 64
2, 9593, Control_c, 0, 64, 127
2, 9606, Note_on_c, 0, 67, 54
2, 9618, Note_off_c, 0, 65, 64
2, 9627, Control_c, 0, 64, 0
2, 9662, Note_on_c, 0, 63, 49
2, 9662, Note_on_c, 0, 60, 48
2, 9662, Note_on_c, 0, 56, 36
2, 9663, Note_on_c, 0, 68, 65
2, 9681, Control_c, 0, 64, 127
2, 9686, Note_off_c, 0, 67, 64
2, 9693, Control_c, 0, 64, 0
2, 9708, Note_off_c, 0, 56, 64
2, 9708, Note_off_c, 0, 60, 64
2, 9708, Note_off_c, 0, 63, 64
2, 9723, Control_c, 0, 64, 127
2, 9763, Note_off_c, 0, 68, 64
2, 9801, Control_c, 0, 64, 0
2, 9828, Control_c, 0, 64, 127
2, 9885, Control_c, 0, 64, 0
2, 9895, Note_on_c, 0, 72, 58
2, 9895, Note_on_c, 0, 48, 58
2, 9920, Control_c, 0, 64, 0
2, 9937, Control_c, 0, 64, 127
2, 9955, Control_c, 0, 64, 127
2, 10012, Control_c, 0, 64, 0
2, 10024, Note_on_c, 0, 84, 49
2, 10024, Note_on_c, 0, 64, 36
2, 10024, Note_on_c, 0, 60, 24
2, 10026, Note_on_c, 0, 55, 36
2, 10035, Control_c, 0, 64, 0
2, 10042, Note_off_c, 0, 48, 64
2, 10055, Control_c, 0, 64, 127
2, 10070, Note_off_c, 0, 60, 64
2, 10070, Note_off_c, 0, 64, 64
2, 10072, Note_off_c, 0, 55, 64
2, 10077, Control_c, 0, 64, 127
2, 10086, Note_off_c, 0, 72, 64
2, 10097, Note_off_c, 0, 84, 64
2, 10120, Note_on_c, 0, 82, 58
2, 10150, Note_on_c, 0, 65, 49
2, 10150, Note_on_c, 0, 60, 48
2, 10150, Note_on_c, 0, 53, 36
2, 10154, Note_on_c, 0, 80, 59
2, 10155, Control_c, 0, 64, 0
2, 10165, Control_c, 0, 64, 0
2, 10168, Note_off_c, 0, 82, 64
2, 10185, Control_c, 0, 64, 127
2, 10196, Note_off_c, 0, 53, 64
2, 10196, Note_off_c, 0, 60, 64
2, 10196, Note_off_c, 0, 65, 64
2, 10211, Control_c, 0, 64, 127
2, 10263, Control_c, 0, 64, 0
2, 10274, Note_on_c, 0, 65, 46
2, 10274, Note_on_c, 0, 55, 42
2, 10276, Note_on_c, 0, 59, 49
2, 10289, Control_c, 0, 64, 0
2, 10290, Control_c, 0, 64, 127
2, 10320, Note_off_c, 0, 55, 64
2, 10320, Note_off_c, 0, 65, 64
2, 10322, Note_off_c, 0, 59, 64
2, 10331, Control_c, 0, 64, 127
2, 10332, Note_on_c, 0, 79, 52
2, 10338, Note_off_c, 0, 80, 64
2, 10369, Note_on_c, 0, 82, 61
2, 10372, Note_off_c, 0, 79, 64
2, 10382, Control_c, 0, 64, 0
2, 10398, Note_on_c, 0, 55, 36
2, 10400, Note_on_c, 0, 65, 40
2, 10400, Note_on_c, 0, 59, 42
2, 10402, Note_on_c, 0, 80, 55
2, 10417, Control_c, 0, 64, 127
2, 10421, Note_off_c, 0, 82, 64
2, 10428, Control_c, 0, 64, 0
2, 10444, Note_off_c, 0, 55, 64
2, 10446, Note_off_c, 0, 59, 64
2, 10446, Note_off_c, 0, 65, 64
2, 10446, Control_c, 0, 64, 127
2, 10448, Note_on_c, 0, 79, 55
2, 10471, Note_off_c, 0, 80, 64
2, 10497, Control_c, 0, 64, 0
2, 10510, Note_on_c, 0, 74, 46
2, 10510, Note_on_c, 0, 65, 36
2, 10512, Note_on_c, 0, 59, 49
2, 10512, Note_on_c, 0, 55, 39
2, 10533, Note_off_c, 0, 79, 64
2, 10539, Control_c, 0, 64, 127
2, 10542, Control_c, 0, 64, 0
2, 10556, Note_off_c, 0, 65, 64
2, 10558, Note_off_c, 0, 55, 64
2, 10558, Note_off_c, 0, 59, 64
2, 10564, Control_c, 0, 64, 127
2, 10627, Control_c, 0, 64, 0
2, 10636, Note_on_c, 0, 72, 48
2, 10636, Note_on_c, 0, 60, 36
2, 10636, Note_on_c, 0, 56, 40
2, 10637, Note_on_c, 0, 63, 42
2, 10646, Note_off_c, 0, 74, 64
2, 10657, Control_c, 0, 64, 0
2, 10673, Control_c, 0, 64, 127
2, 10682, Note_off_c, 0, 56, 64
2, 10682, Note_off_c, 0, 60, 64
2, 10683, Note_off_c, 0, 63, 64
2, 10692, Control_c, 0, 64, 127
2, 10712, Note_off_c, 0, 72, 64
2, 10719, Note_on_c, 0, 72, 55
2, 10751, Control_c, 0, 64, 0
2, 10767, Note_on_c, 0, 64, 42
2, 10768, Note_on_c, 0, 84, 58
2, 10768, Note_on_c, 0, 60, 37
2, 10768, Note_on_c, 0, 55, 49
2, 10776, Control_c, 0, 64, 0
2, 10793, Control_c, 0, 64, 127
2, 10805, Note_off_c, 0, 72, 64
2, 10809, Control_c, 0, 64, 127
2, 10813, Note_off_c, 0, 64, 64
2, 10814, Note_off_c, 0, 55, 64
2, 10814, Note_off_c, 0, 60, 64
2, 10844, Note_off_c, 0, 84, 64
2, 10862, Note_on_c, 0, 82, 61
2, 10888, Note_on_c, 0, 53, 48
2, 10890, Note_on_c, 0, 80, 59
2, 10890, Note_on_c, 0, 65, 46
2, 10890, Control_c, 0, 64, 0
2, 10892, Note_on_c, 0, 60, 45
2, 10904, Note_off_c, 0, 82, 64
2, 10908, Control_c, 0, 64, 127
2, 10909, Control_c, 0, 64, 0
2, 10934, Note_off_c, 0, 53, 64
2, 10936, Note_off_c, 0, 65, 64
2, 10938, Note_off_c, 0, 60, 64
2, 10961, Control_c, 0, 64, 127
2, 11004, Control_c, 0, 64, 0
2, 11016, Note_on_c, 0, 65, 48
2, 11016, Note_on_c, 0, 59, 50
2, 11017, Note_on_c, 0, 55, 49
2, 11026, Control_c, 0, 64, 127
2, 11039, Control_c, 0, 64, 0
2, 11062, Note_off_c, 0, 59, 64
2, 11062, Note_off_c, 0, 65, 64
2, 11063, Note_off_c, 0, 55, 64
2, 11065, Note_on_c, 0, 79, 54
2, 11074, Note_off_c, 0, 80, 64
2, 11080, Control_c, 0, 64, 127
2, 11098, Note_on_c, 0, 82, 58
2, 11105, Note_off_c, 0, 79, 64
2, 11119, Control_c, 0, 64, 0
2, 11132, Note_on_c, 0, 80, 61
2, 11132, Note_on_c, 0, 65, 48
2, 11132, Note_on_c, 0, 59, 49
2, 11134, Note_on_c, 0, 55, 42
2, 11150, Note_off_c, 0, 82, 64
2, 11154, Control_c, 0, 64, 127
2, 11170, Control_c, 0, 64, 0
2, 11178, Note_off_c, 0, 59, 64
2, 11178, Note_off_c, 0, 65, 64
2, 11180, Note_off_c, 0, 55, 64
2, 11192, Note_off_c, 0, 80, 64
2, 11195, Control_c, 0, 64, 127
2, 11220, Note_on_c, 0, 79, 58
2, 11238, Control_c, 0, 64, 0
2, 11254, Note_on_c, 0, 65, 49
2, 11254, Note_on_c, 0, 55, 45
2, 11259, Note_on_c, 0, 74, 49
2, 11259, Note_on_c, 0, 59, 44
2, 11266, Note_off_c, 0, 79, 64
2, 11271, Control_c, 0, 64, 127
2, 11294, Control_c, 0, 64, 0
2, 11300, Note_off_c, 0, 55, 64
2, 11300, Note_off_c, 0, 65, 64
2, 11305, Note_off_c, 0, 59, 64
2, 11333, Control_c, 0, 64, 127
2, 11371, Control_c, 0, 64, 0
2, 11376, Note_on_c, 0, 63, 32
2, 11376, Note_on_c, 0, 56, 28
2, 11377, Note_on_c, 0, 72, 44
2, 11377, Note_on_c, 0, 60, 22
2, 11380, Note_off_c, 0, 74, 64
2, 11422, Note_off_c, 0, 56, 64
2, 11422, Note_off_c, 0, 63, 64
2, 11422, Control_c, 0, 64, 0
2, 11423, Note_off_c, 0, 60, 64
2, 11423, Control_c, 0, 64, 127
2, 11467, Control_c, 0, 64, 127
2, 11500, Note_on_c, 0, 73, 36
2, 11501, Control_c, 0, 64, 0
2, 11502, Note_on_c, 0, 61, 31
2, 11502, Note_on_c, 0, 53, 28
2, 11504, Note_on_c, 0, 56, 28
2, 11526, Note_off_c, 0, 72, 64
2, 11542, Control_c, 0, 64, 127
2, 11548, Note_off_c, 0, 53, 64
2, 11548, Note_off_c, 0, 61, 64
2, 11550, Note_off_c, 0, 56, 64
2, 11556, Control_c, 0, 64, 0
2, 11590, Note_on_c, 0, 77, 31
2, 11595, Note_off_c, 0, 73, 64
2, 11596, Control_c, 0, 64, 127
2, 11626, Note_on_c, 0, 62, 28
2, 11630, Note_on_c, 0, 56, 29
2, 11632, Control_c, 0, 64, 0
2, 11634, Note_on_c, 0, 53, 28
2, 11644, Note_on_c, 0, 72, 37
2, 11656, Note_off_c, 0, 77, 64
2, 11657, Control_c, 0, 64, 127
2, 11672, Note_off_c, 0, 62, 64
2, 11676, Note_off_c, 0, 56, 64
2, 11680, Note_off_c, 0, 53, 64
2, 11700, Control_c, 0, 64, 0
2, 11714, Control_c, 0, 64, 127
2, 11756, Control_c, 0, 64, 0
2, 11762, Note_on_c, 0, 71, 39
2, 11762, Note_on_c, 0, 65, 32
2, 11762, Note_on_c, 0, 62, 31
2, 11762, Note_on_c, 0, 55, 28
2, 11767, Note_off_c, 0, 72, 64
2, 11795, Control_c, 0, 64, 127
2, 11808, Note_off_c, 0, 55, 64
2, 11808, Note_off_c, 0, 62, 64
2, 11808, Note_off_c, 0, 65, 64
2, 11821, Control_c, 0, 64, 0
2, 11838, Note_off_c, 0, 71, 64
2, 11848, Control_c, 0, 64, 127
2, 11850, Note_on_c, 0, 67, 31
2, 11884, Control_c, 0, 64, 0
2, 11900, Note_on_c, 0, 71, 39
2, 11900, Note_on_c, 0, 65, 24
2, 11900, Note_on_c, 0, 62, 16
2, 11902, Note_on_c, 0, 55, 28
2, 11919, Note_off_c, 0, 67, 64
2, 11929, Control_c, 0, 64, 127
2, 11946, Note_off_c, 0, 62, 64
2, 11946, Note_off_c, 0, 65, 64
2, 11948, Note_off_c, 0, 55, 64
2, 11960, Control_c, 0, 64, 0
2, 11974, Note_on_c, 0, 74, 28
2, 11984, Control_c, 0, 64, 127
2, 11988, Note_off_c, 0, 71, 64
2, 12018, Control_c, 0, 64, 0
2, 12024, Note_on_c, 0, 63, 26
2, 12024, Note_on_c, 0, 60, 28
2, 12028, Note_on_c, 0, 72, 39
2, 12046, Note_off_c, 0, 74, 64
2, 12058, Control_c, 0, 64, 127
2, 12070, Note_off_c, 0, 60, 64
2, 12090, Note_off_c, 0, 72, 64
2, 12108, Control_c, 0, 64, 0
2, 12131, Control_c, 0, 64, 127
2, 12202, Note_on_c, 0, 56, 27
2, 12204, Note_on_c, 0, 60, 22
2, 12222, Control_c, 0, 64, 0
2, 12236, Control_c, 0, 64, 127
2, 12251, Note_off_c, 0, 60, 64
2, 12255, Note_off_c, 0, 56, 64
2, 12263, Control_c, 0, 64, 0
2, 12288, Control_c, 0, 64, 127
2, 12332, Note_on_c, 0, 61, 26
2, 12334, Note_on_c, 0, 73, 39
2, 12334, Note_on_c, 0, 56, 18
2, 12334, Note_on_c, 0, 53, 26
2, 12336, Note_off_c, 0, 63, 64
2, 12343, Control_c, 0, 64, 0
2, 12369, Note_off_c, 0, 53, 64
2, 12370, Control_c, 0, 64, 127
2, 12372, Note_off_c, 0, 56, 64
2, 12425, Note_on_c, 0, 77, 33
2, 12428, Note_off_c, 0, 73, 64
2, 12459, Control_c, 0, 64, 0
2, 12464, Note_on_c, 0, 72, 36
2, 12464, Note_on_c, 0, 56, 27
2, 12464, Note_on_c, 0, 53, 27
2, 12465, Note_on_c, 0, 62, 27
2, 12477, Note_off_c, 0, 61, 64
2, 12482, Control_c, 0, 64, 0
2, 12493, Control_c, 0, 64, 127
2, 12495, Note_off_c, 0, 53, 64
2, 12506, Note_off_c, 0, 77, 64
2, 12506, Control_c, 0, 64, 127
2, 12510, Note_off_c, 0, 56, 64
2, 12586, Note_off_c, 0, 62, 64
2, 12617, Note_on_c, 0, 62, 36
2, 12617, Note_on_c, 0, 58, 36
2, 12621, Note_on_c, 0, 55, 32
2, 12623, Control_c, 0, 64, 0
2, 12630, Control_c, 0, 64, 0
2, 12653, Control_c, 0, 64, 127
2, 12658, Control_c, 0, 64, 127
2, 12683, Note_off_c, 0, 55, 64
2, 12685, Note_off_c, 0, 58, 64
2, 12731, Control_c, 0, 64, 0
2, 12771, Note_on_c, 0, 63, 37
2, 12775, Note_on_c, 0, 58, 31
2, 12780, Note_off_c, 0, 62, 64
2, 12781, Note_on_c, 0, 55, 24
2, 12785, Control_c, 0, 64, 0
2, 12787, Control_c, 0, 64, 127
2, 12798, Note_off_c, 0, 72, 64
2, 12810, Control_c, 0, 64, 127
2, 12844, Note_off_c, 0, 55, 64
2, 12848, Note_off_c, 0, 58, 64
2, 12858, Control_c, 0, 64, 0
2, 12871, Control_c, 0, 64, 127
2, 12873, Note_on_c, 0, 70, 57
2, 12964, Note_on_c, 0, 72, 46
2, 12964, Note_on_c, 0, 55, 32
2, 12968, Note_off_c, 0, 70, 64
2, 12968, Note_on_c, 0, 61, 31
2, 12972, Note_off_c, 0, 63, 64
2, 12973, Note_on_c, 0, 64, 33
2, 12981, Control_c, 0, 64, 0
2, 12987, Control_c, 0, 64, 0
2, 13015, Control_c, 0, 64, 127
2, 13018, Control_c, 0, 64, 127
2, 13031, Note_off_c, 0, 64, 64
2, 13037, Note_off_c, 0, 61, 64
2, 13038, Note_off_c, 0, 55, 64
2, 13070, Note_on_c, 0, 70, 57
2, 13080, Note_off_c, 0, 72, 64
2, 13082, Control_c, 0, 64, 0
2, 13097, Control_c, 0, 64, 127
2, 13106, Note_off_c, 0, 70, 64
2, 13145, Control_c, 0, 64, 0
2, 13158, Note_on_c, 0, 63, 36
2, 13160, Note_on_c, 0, 60, 29
2, 13161, Note_on_c, 0, 68, 59
2, 13161, Note_on_c, 0, 56, 24
2, 13180, Control_c, 0, 64, 127
2, 13195, Control_c, 0, 64, 0
2, 13197, Note_on_c, 0, 70, 55
2, 13200, Note_off_c, 0, 68, 64
2, 13204, Note_off_c, 0, 63, 64
2, 13206, Note_off_c, 0, 60, 64
2, 13206, Control_c, 0, 64, 127
2, 13207, Note_off_c, 0, 56, 64
2, 13242, Note_on_c, 0, 68, 50
2, 13252, Note_off_c, 0, 70, 64
2, 13253, Control_c, 0, 64, 0
2, 13294, Note_on_c, 0, 67, 57
2, 13296, Note_on_c, 0, 61, 18
2, 13298, Note_on_c, 0, 64, 35
2, 13298, Note_on_c, 0, 56, 28
2, 13306, Note_off_c, 0, 68, 64
2, 13309, Control_c, 0, 64, 127
2, 13339, Note_on_c, 0, 68, 50
2, 13342, Note_off_c, 0, 61, 64
2, 13344, Note_off_c, 0, 56, 64
2, 13344, Note_off_c, 0, 64, 64
2, 13352, Control_c, 0, 64, 0
2, 13365, Control_c, 0, 64, 127
2, 13366, Note_off_c, 0, 67, 64
2, 13380, Control_c, 0, 64, 0
2, 13393, Control_c, 0, 64, 127
2, 13400, Note_on_c, 0, 70, 55
2, 13400, Note_on_c, 0, 64, 36
2, 13402, Note_on_c, 0, 56, 33
2, 13403, Note_on_c, 0, 61, 37
2, 13414, Note_off_c, 0, 68, 64
2, 13446, Note_off_c, 0, 64, 64
2, 13448, Note_off_c, 0, 56, 64
2, 13449, Note_off_c, 0, 61, 64
2, 13456, Note_on_c, 0, 72, 52
2, 13458, Note_off_c, 0, 70, 64
2, 13458, Control_c, 0, 64, 0
2, 13501, Control_c, 0, 64, 127
2, 13509, Control_c, 0, 64, 0
2, 13512, Note_on_c, 0, 73, 55
2, 13516, Note_on_c, 0, 64, 42
2, 13518, Note_on_c, 0, 58, 44
2, 13519, Note_on_c, 0, 55, 42
2, 13531, Note_off_c, 0, 72, 64
2, 13540, Control_c, 0, 64, 127
2, 13545, Note_on_c, 0, 75, 55
2, 13562, Note_off_c, 0, 64, 64
2, 13562, Note_off_c, 0, 73, 64
2, 13564, Note_off_c, 0, 58, 64
2, 13565, Note_off_c, 0, 55, 64
2, 13566, Control_c, 0, 64, 0
2, 13578, Control_c, 0, 64, 127
2, 13587, Note_on_c, 0, 73, 49
2, 13594, Note_off_c, 0, 75, 64
2, 13604, Control_c, 0, 64, 0
2, 13619, Control_c, 0, 64, 127
2, 13636, Note_on_c, 0, 63, 45
2, 13636, Note_on_c, 0, 60, 16
2, 13638, Note_on_c, 0, 72, 55
2, 13638, Note_on_c, 0, 56, 48
2, 13644, Note_off_c, 0, 73, 64
2, 13681, Control_c, 0, 64, 0
2, 13682, Note_off_c, 0, 60, 64
2, 13682, Note_off_c, 0, 63, 64
2, 13684, Note_off_c, 0, 56, 64
2, 13684, Note_on_c, 0, 73, 36
2, 13689, Note_off_c, 0, 72, 64
2, 13717, Control_c, 0, 64, 0
2, 13720, Control_c, 0, 64, 127
2, 13728, Control_c, 0, 64, 127
2, 13737, Note_on_c, 0, 75, 62
2, 13748, Note_on_c, 0, 63, 44
2, 13748, Note_on_c, 0, 55, 36
2, 13749, Note_off_c, 0, 73, 64
2, 13750, Note_on_c, 0, 58, 28
2, 13794, Note_off_c, 0, 55, 64
2, 13794, Note_off_c, 0, 63, 64
2, 13796, Note_off_c, 0, 58, 64
2, 13817, Control_c, 0, 64, 0
2, 13848, Control_c, 0, 64, 127
2, 13852, Note_on_c, 0, 61, 49
2, 13852, Note_on_c, 0, 56, 45
2, 13854, Note_on_c, 0, 80, 61
2, 13854, Note_on_c, 0, 53, 49
2, 13856, Note_on_c, 0, 65, 45
2, 13869, Note_off_c, 0, 75, 64
2, 13874, Control_c, 0, 64, 0
2, 13887, Control_c, 0, 64, 127
2, 13928, Note_off_c, 0, 56, 64
2, 13928, Note_off_c, 0, 61, 64
2, 13929, Control_c, 0, 64, 0
2, 13930, Note_off_c, 0, 53, 64
2, 13930, Note_off_c, 0, 80, 64
2, 13932, Note_off_c, 0, 65, 64
2, 13963, Note_on_c, 0, 73, 52
2, 13971, Control_c, 0, 64, 127
2, 13980, Control_c, 0, 64, 0
2, 14000, Note_on_c, 0, 72, 48
2, 14000, Note_on_c, 0, 63, 40
2, 14002, Note_on_c, 0, 56, 24
2, 14005, Note_on_c, 0, 51, 36
2, 14016, Note_off_c, 0, 73, 64
2, 14023, Control_c, 0, 64, 127
2, 14046, Note_off_c, 0, 63, 64
2, 14048, Note_off_c, 0, 56, 64
2, 14050, Control_c, 0, 64, 0
2, 14051, Note_off_c, 0, 51, 64
2, 14065, Note_on_c, 0, 75, 45
2, 14066, Control_c, 0, 64, 127
2, 14070, Note_off_c, 0, 72, 64
2, 14088, Control_c, 0, 64, 0
2, 14100, Control_c, 0, 64, 127
2, 14116, Note_on_c, 0, 60, 15
2, 14116, Note_on_c, 0, 51, 28
2, 14118, Note_on_c, 0, 63, 36
2, 14120, Note_on_c, 0, 68, 50
2, 14129, Note_off_c, 0, 75, 64
2, 14151, Control_c, 0, 64, 0
2, 14162, Note_off_c, 0, 51, 64
2, 14162, Note_off_c, 0, 60, 64
2, 14164, Note_off_c, 0, 63, 64
2, 14178, Control_c, 0, 64, 127
2, 14179, Note_on_c, 0, 69, 48
2, 14194, Note_off_c, 0, 68, 64
2, 14203, Control_c, 0, 64, 0
2, 14232, Note_on_c, 0, 51, 32
2, 14235, Note_on_c, 0, 70, 50
2, 14235, Note_on_c, 0, 63, 41
2, 14236, Note_on_c, 0, 61, 15
2, 14242, Control_c, 0, 64, 127
2, 14247, Note_off_c, 0, 69, 64
2, 14278, Note_off_c, 0, 51, 64
2, 14281, Note_off_c, 0, 63, 64
2, 14282, Note_off_c, 0, 61, 64
2, 14300, Note_on_c, 0, 73, 54
2, 14312, Note_off_c, 0, 70, 64
2, 14339, Control_c, 0, 64, 0
2, 14354, Note_on_c, 0, 65, 50
2, 14356, Note_on_c, 0, 63, 37
2, 14356, Note_on_c, 0, 61, 36
2, 14356, Note_on_c, 0, 51, 36
2, 14363, Note_off_c, 0, 73, 64
2, 14370, Control_c, 0, 64, 127
2, 14384, Control_c, 0, 64, 0
2, 14402, Note_off_c, 0, 51, 64
2, 14402, Note_off_c, 0, 61, 64
2, 14402, Note_off_c, 0, 63, 64
2, 14406, Note_on_c, 0, 67, 50
2, 14414, Control_c, 0, 64, 127
2, 14419, Note_off_c, 0, 65, 64
2, 14451, Control_c, 0, 64, 0
2, 14468, Note_on_c, 0, 68, 50
2, 14470, Note_on_c, 0, 63, 36
2, 14470, Note_on_c, 0, 60, 35
2, 14470, Note_on_c, 0, 56, 28
2, 14476, Control_c, 0, 64, 0
2, 14484, Note_off_c, 0, 67, 64
2, 14493, Control_c, 0, 64, 127
2, 14495, Control_c, 0, 64, 127
2, 14516, Note_off_c, 0, 56, 64
2, 14516, Note_off_c, 0, 60, 64
2, 14516, Note_off_c, 0, 63, 64
2, 14632, Control_c, 0, 64, 0
2, 14638, Note_on_c, 0, 63, 31
2, 14638, Note_on_c, 0, 60, 29
2, 14638, Note_on_c, 0, 56, 31
2, 14648, Control_c, 0, 64, 127
2, 14684, Note_off_c, 0, 56, 64
2, 14684, Note_off_c, 0, 60, 64
2, 14684, Note_off_c, 0, 63, 64
2, 14694, Note_on_c, 0, 70, 37
2, 14708, Note_off_c, 0, 68, 64
2, 14728, Note_on_c, 0, 68, 55
2, 14733, Control_c, 0, 64, 0
2, 14753, Note_off_c, 0, 70, 64
2, 14756, Control_c, 0, 64, 0
2, 14760, Control_c, 0, 64, 127
2, 14768, Note_on_c, 0, 67, 50
2, 14768, Note_on_c, 0, 64, 37
2, 14768, Note_on_c, 0, 61, 35
2, 14768, Note_on_c, 0, 56, 40
2, 14787, Note_off_c, 0, 68, 64
2, 14803, Control_c, 0, 64, 127
2, 14814, Note_off_c, 0, 56, 64
2, 14814, Note_off_c, 0, 61, 64
2, 14814, Note_off_c, 0, 64, 64
2, 14844, Note_off_c, 0, 67, 64
2, 14846, Note_on_c, 0, 68, 53
2, 14874, Note_on_c, 0, 56, 24
2, 14878, Note_on_c, 0, 70, 52
2, 14878, Note_on_c, 0, 64, 19
2, 14878, Note_on_c, 0, 61, 28
2, 14880, Note_off_c, 0, 68, 64
2, 14912, Control_c, 0, 64, 0
2, 14920, Note_off_c, 0, 56, 64
2, 14924, Note_off_c, 0, 61, 64
2, 14924, Note_off_c, 0, 64, 64
2, 14938, Note_on_c, 0, 72, 54
2, 14940, Note_off_c, 0, 70, 64
2, 14956, Control_c, 0, 64, 127
2, 14966, Control_c, 0, 64, 0
2, 14990, Note_on_c, 0, 73, 63
2, 14990, Note_on_c, 0, 64, 40
2, 14990, Note_on_c, 0, 58, 42
2, 14990, Note_on_c, 0, 55, 42
2, 14996, Control_c, 0, 64, 127
2, 15010, Note_off_c, 0, 72, 64
2, 15030, Note_on_c, 0, 75, 54
2, 15036, Note_off_c, 0, 55, 64
2, 15036, Note_off_c, 0, 58, 64
2, 15036, Note_off_c, 0, 64, 64
2, 15036, Note_off_c, 0, 73, 64
2, 15058, Control_c, 0, 64, 0
2, 15066, Note_on_c, 0, 73, 50
2, 15077, Control_c, 0, 64, 127
2, 15084, Note_off_c, 0, 75, 64
2, 15106, Note_on_c, 0, 72, 55
2, 15106, Note_on_c, 0, 63, 32
2, 15106, Note_on_c, 0, 60, 31
2, 15106, Note_on_c, 0, 56, 32
2, 15122, Note_off_c, 0, 73, 64
2, 15150, Note_on_c, 0, 73, 55
2, 15152, Note_off_c, 0, 56, 64
2, 15152, Note_off_c, 0, 60, 64
2, 15152, Note_off_c, 0, 63, 64
2, 15169, Note_off_c, 0, 72, 64
2, 15174, Note_off_c, 0, 73, 64
2, 15182, Note_on_c, 0, 73, 55
2, 15202, Note_off_c, 0, 73, 64
2, 15214, Note_on_c, 0, 74, 55
2, 15218, Note_on_c, 0, 63, 26
2, 15218, Note_on_c, 0, 58, 26
2, 15222, Note_on_c, 0, 55, 23
2, 15254, Note_on_c, 0, 75, 61
2, 15264, Note_off_c, 0, 58, 64
2, 15264, Note_off_c, 0, 63, 64
2, 15265, Control_c, 0, 64, 0
2, 15268, Note_off_c, 0, 55, 64
2, 15272, Note_off_c, 0, 74, 64
2, 15280, Note_off_c, 0, 75, 64
2, 15291, Control_c, 0, 64, 127
2, 15297, Note_on_c, 0, 75, 55
2, 15338, Control_c, 0, 64, 0
2, 15342, Note_on_c, 0, 61, 46
2, 15345, Note_on_c, 0, 80, 76
2, 15345, Note_on_c, 0, 53, 50
2, 15346, Note_on_c, 0, 56, 55
2, 15348, Note_on_c, 0, 65, 33
2, 15356, Note_off_c, 0, 75, 64
2, 15385, Control_c, 0, 64, 127
2, 15392, Note_off_c, 0, 56, 64
2, 15421, Control_c, 0, 64, 0
2, 15460, Note_on_c, 0, 73, 50
2, 15466, Note_off_c, 0, 61, 64
2, 15469, Note_off_c, 0, 53, 64
2, 15469, Note_off_c, 0, 80, 64
2, 15472, Note_off_c, 0, 65, 64
2, 15494, Control_c, 0, 64, 0
2, 15505, Note_on_c, 0, 72, 45
2, 15516, Control_c, 0, 64, 127
2, 15516, Note_on_c, 0, 63, 36
2, 15519, Note_on_c, 0, 56, 36
2, 15523, Note_off_c, 0, 73, 64
2, 15525, Note_on_c, 0, 51, 36
2, 15538, Control_c, 0, 64, 127
2, 15562, Note_off_c, 0, 63, 64
2, 15565, Note_off_c, 0, 56, 64
2, 15567, Note_off_c, 0, 72, 64
2, 15571, Note_off_c, 0, 51, 64
2, 15571, Note_on_c, 0, 75, 44
2, 15613, Note_off_c, 0, 75, 64
2, 15634, Note_on_c, 0, 68, 55
2, 15642, Note_on_c, 0, 63, 40
2, 15643, Note_on_c, 0, 60, 27
2, 15647, Note_on_c, 0, 51, 36
2, 15674, Control_c, 0, 64, 127
2, 15688, Note_off_c, 0, 63, 64
2, 15689, Note_off_c, 0, 60, 64
2, 15692, Note_on_c, 0, 69, 48
2, 15693, Note_off_c, 0, 51, 64
2, 15702, Note_off_c, 0, 68, 64
2, 15736, Control_c, 0, 64, 0
2, 15751, Note_on_c, 0, 51, 36
2, 15752, Note_on_c, 0, 70, 50
2, 15754, Note_on_c, 0, 61, 41
2, 15757, Note_off_c, 0, 69, 64
2, 15757, Note_on_c, 0, 63, 42
2, 15763, Control_c, 0, 64, 127
2, 15797, Note_off_c, 0, 51, 64
2, 15800, Note_off_c, 0, 61, 64
2, 15803, Note_off_c, 0, 63, 64
2, 15820, Note_on_c, 0, 73, 54
2, 15830, Note_off_c, 0, 70, 64
2, 15847, Control_c, 0, 64, 0
2, 15868, Note_off_c, 0, 73, 64
2, 15873, Control_c, 0, 64, 127
2, 15881, Note_on_c, 0, 65, 50
2, 15881, Note_on_c, 0, 51, 37
2, 15883, Control_c, 0, 64, 0
2, 15883, Note_on_c, 0, 63, 36
2, 15883, Note_on_c, 0, 61, 36
2, 15918, Control_c, 0, 64, 127
2, 15927, Note_off_c, 0, 51, 64
2, 15929, Note_off_c, 0, 61, 64
2, 15929, Note_off_c, 0, 63, 64
2, 15950, Note_on_c, 0, 67, 50
2, 15973, Note_off_c, 0, 65, 64
2, 16002, Note_on_c, 0, 68, 59
2, 16003, Control_c, 0, 64, 0
2, 16006, Note_on_c, 0, 56, 35
2, 16010, Control_c, 0, 64, 0
2, 16010, Note_on_c, 0, 63, 48
2, 16010, Note_on_c, 0, 60, 45
2, 16034, Note_off_c, 0, 67, 64
2, 16046, Control_c, 0, 64, 127
2, 16098, Control_c, 0, 64, 127
2, 16127, Control_c, 0, 64, 0
2, 16146, Note_off_c, 0, 68, 64
2, 16147, Control_c, 0, 64, 127
2, 16150, Note_off_c, 0, 56, 64
2, 16154, Note_off_c, 0, 60, 64
2, 16154, Note_off_c, 0, 63, 64
2, 16254, Control_c, 0, 64, 0
2, 16286, Control_c, 0, 64, 127
2, 16340, Note_on_c, 0, 78, 50
2, 16343, Note_on_c, 0, 66, 52
2, 16349, Note_on_c, 0, 49, 40
2, 16352, Note_on_c, 0, 60, 39
2, 16352, Note_on_c, 0, 56, 36
2, 16376, Note_off_c, 0, 49, 64
2, 16376, Control_c, 0, 64, 127
2, 16379, Note_off_c, 0, 56, 64
2, 16379, Note_off_c, 0, 60, 64
2, 16380, Control_c, 0, 64, 0
2, 16395, Note_on_c, 0, 77, 46
2, 16408, Note_off_c, 0, 66, 64
2, 16410, Control_c, 0, 64, 127
2, 16426, Note_off_c, 0, 78, 64
2, 16438, Control_c, 0, 64, 0
2, 16461, Note_on_c, 0, 75, 28
2, 16465, Control_c, 0, 64, 127
2, 16471, Note_off_c, 0, 77, 64
2, 16474, Note_on_c, 0, 56, 35
2, 16476, Note_on_c, 0, 60, 44
2, 16477, Note_on_c, 0, 49, 39
2, 16484, Note_on_c, 0, 66, 54
2, 16498, Control_c, 0, 64, 0
2, 16501, Note_off_c, 0, 56, 64
2, 16503, Note_off_c, 0, 60, 64
2, 16504, Note_off_c, 0, 49, 64
2, 16517, Control_c, 0, 64, 127
2, 16523, Note_on_c, 0, 77, 49
2, 16532, Note_off_c, 0, 75, 64
2, 16541, Note_off_c, 0, 66, 64
2, 16585, Control_c, 0, 64, 0
2, 16592, Note_on_c, 0, 73, 65
2, 16593, Note_off_c, 0, 77, 64
2, 16598, Note_on_c, 0, 65, 74
2, 16598, Note_on_c, 0, 61, 46
2, 16598, Note_on_c, 0, 56, 27
2, 16598, Note_on_c, 0, 49, 42
2, 16618, Control_c, 0, 64, 0
2, 16620, Control_c, 0, 64, 127
2, 16625, Note_off_c, 0, 49, 64
2, 16625, Note_off_c, 0, 56, 64
2, 16625, Note_off_c, 0, 61, 64
2, 16627, Note_off_c, 0, 65, 64
2, 16652, Control_c, 0, 64, 127
2, 16674, Note_off_c, 0, 73, 64
2, 16712, Control_c, 0, 64, 0
2, 16719, Note_on_c, 0, 70, 62
2, 16719, Note_on_c, 0, 67, 62
2, 16722, Note_on_c, 0, 63, 44
2, 16729, Note_on_c, 0, 58, 49
2, 16732, Note_on_c, 0, 49, 23
2, 16748, Control_c, 0, 64, 127
2, 16749, Note_off_c, 0, 63, 64
2, 16751, Control_c, 0, 64, 0
2, 16756, Note_off_c, 0, 58, 64
2, 16759, Note_off_c, 0, 49, 64
2, 16765, Note_off_c, 0, 67, 64
2, 16774, Note_on_c, 0, 75, 58
2, 16788, Control_c, 0, 64, 127
2, 16790, Note_off_c, 0, 70, 64
2, 16829, Control_c, 0, 64, 0
2, 16834, Note_on_c, 0, 66, 62
2, 16838, Note_on_c, 0, 63, 44
2, 16839, Note_on_c, 0, 70, 65
2, 16842, Note_on_c, 0, 57, 58
2, 16843, Note_on_c, 0, 49, 39
2, 16846, Note_off_c, 0, 75, 64
2, 16849, Control_c, 0, 64, 127
2, 16865, Note_off_c, 0, 63, 64
2, 16869, Note_off_c, 0, 57, 64
2, 16870, Note_off_c, 0, 49, 64
2, 16870, Control_c, 0, 64, 0
2, 16888, Note_off_c, 0, 66, 64
2, 16901, Control_c, 0, 64, 127
2, 16902, Note_on_c, 0, 72, 54
2, 16915, Note_off_c, 0, 70, 64
2, 16956, Control_c, 0, 64, 0
2, 16962, Note_on_c, 0, 66, 58
2, 16964, Note_on_c, 0, 68, 70
2, 16966, Note_on_c, 0, 60, 44
2, 16966, Note_on_c, 0, 49, 36
2, 16968, Note_on_c, 0, 56, 58
2, 16973, Note_off_c, 0, 72, 64
2, 16988, Control_c, 0, 64, 127
2, 16992, Control_c, 0, 64, 0
2, 16993, Note_off_c, 0, 49, 64
2, 16993, Note_off_c, 0, 60, 64
2, 16995, Note_off_c, 0, 56, 64
2, 17007, Note_off_c, 0, 66, 64
2, 17030, Note_off_c, 0, 68, 64
2, 17038, Control_c, 0, 64, 127
2, 17082, Control_c, 0, 64, 0
2, 17096, Note_on_c, 0, 49, 44
2, 17099, Note_on_c, 0, 56, 49
2, 17101, Note_on_c, 0, 78, 50
2, 17101, Note_on_c, 0, 66, 67
2, 17101, Note_on_c, 0, 60, 46
2, 17112, Control_c, 0, 64, 127
2, 17123, Note_off_c, 0, 49, 64
2, 17126, Note_off_c, 0, 56, 64
2, 17128, Note_off_c, 0, 60, 64
2, 17132, Control_c, 0, 64, 0
2, 17157, Note_on_c, 0, 77, 49
2, 17167, Note_off_c, 0, 66, 64
2, 17187, Note_off_c, 0, 78, 64
2, 17200, Control_c, 0, 64, 0
2, 17214, Note_on_c, 0, 56, 35
2, 17217, Note_on_c, 0, 75, 40
2, 17218, Note_on_c, 0, 66, 71
2, 17218, Note_on_c, 0, 60, 44
2, 17219, Control_c, 0, 64, 127
2, 17222, Note_on_c, 0, 49, 44
2, 17237, Note_off_c, 0, 77, 64
2, 17241, Note_off_c, 0, 56, 64
2, 17245, Note_off_c, 0, 60, 64
2, 17249, Note_off_c, 0, 49, 64
2, 17265, Note_off_c, 0, 66, 64
2, 17266, Note_on_c, 0, 77, 53
2, 17280, Control_c, 0, 64, 127
2, 17305, Note_off_c, 0, 75, 64
2, 17320, Control_c, 0, 64, 0
2, 17340, Note_on_c, 0, 65, 74
2, 17344, Note_on_c, 0, 73, 58
2, 17344, Note_on_c, 0, 49, 44
2, 17346, Note_on_c, 0, 61, 39
2, 17348, Note_on_c, 0, 56, 46
2, 17350, Note_off_c, 0, 77, 64
2, 17354, Control_c, 0, 64, 127
2, 17371, Note_off_c, 0, 49, 64
2, 17373, Note_off_c, 0, 61, 64
2, 17375, Note_off_c, 0, 56, 64
2, 17383, Note_off_c, 0, 65, 64
2, 17385, Control_c, 0, 64, 0
2, 17426, Note_off_c, 0, 73, 64
2, 17430, Control_c, 0, 64, 127
2, 17453, Control_c, 0, 64, 0
2, 17465, Note_on_c, 0, 70, 55
2, 17466, Note_on_c, 0, 67, 58
2, 17466, Note_on_c, 0, 58, 44
2, 17468, Note_on_c, 0, 63, 50
2, 17470, Note_on_c, 0, 49, 19
2, 17490, Control_c, 0, 64, 127
2, 17493, Note_off_c, 0, 58, 64
2, 17495, Note_off_c, 0, 63, 64
2, 17497, Note_off_c, 0, 49, 64
2, 17516, Note_off_c, 0, 67, 64
2, 17523, Note_on_c, 0, 75, 58
2, 17531, Control_c, 0, 64, 0
2, 17539, Note_off_c, 0, 70, 64
2, 17561, Control_c, 0, 64, 127
2, 17572, Control_c, 0, 64, 0
2, 17582, Note_on_c, 0, 68, 65
2, 17583, Note_on_c, 0, 66, 61
2, 17586, Note_on_c, 0, 63, 46
2, 17586, Note_on_c, 0, 56, 28
2, 17587, Note_on_c, 0, 49, 40
2, 17599, Note_off_c, 0, 75, 64
2, 17603, Control_c, 0, 64, 127
2, 17613, Note_off_c, 0, 56, 64
2, 17613, Note_off_c, 0, 63, 64
2, 17614, Note_off_c, 0, 49, 64
2, 17628, Note_off_c, 0, 66, 64
2, 17633, Control_c, 0, 64, 0
2, 17642, Note_on_c, 0, 72, 52
2, 17664, Note_off_c, 0, 68, 64
2, 17666, Control_c, 0, 64, 127
2, 17694, Control_c, 0, 64, 0
2, 17710, Note_on_c, 0, 61, 46
2, 17710, Note_on_c, 0, 56, 28
2, 17710, Note_on_c, 0, 49, 41
2, 17711, Note_on_c, 0, 73, 54
2, 17711, Note_on_c, 0, 65, 55
2, 17726, Note_off_c, 0, 72, 64
2, 17737, Note_off_c, 0, 49, 64
2, 17737, Note_off_c, 0, 56, 64
2, 17737, Note_off_c, 0, 61, 64
2, 17740, Control_c, 0, 64, 127
2, 17751, Note_off_c, 0, 65, 64
2, 17771, Control_c, 0, 64, 0
2, 17794, Control_c, 0, 64, 127
2, 17800, Note_off_c, 0, 73, 64
2, 17894, Control_c, 0, 64, 0
2, 17911, Note_on_c, 0, 78, 48
2, 17912, Note_on_c, 0, 60, 44
2, 17914, Note_on_c, 0, 56, 46
2, 17914, Note_on_c, 0, 49, 42
2, 17915, Note_on_c, 0, 66, 44
2, 17933, Note_off_c, 0, 78, 64
2, 17982, Note_on_c, 0, 77, 53
2, 18004, Note_off_c, 0, 77, 64
2, 18042, Control_c, 0, 64, 127
2, 18043, Note_off_c, 0, 60, 64
2, 18045, Note_off_c, 0, 49, 64
2, 18045, Note_off_c, 0, 56, 64
2, 18048, Note_on_c, 0, 56, 40
2, 18050, Note_on_c, 0, 60, 42
2, 18053, Note_on_c, 0, 49, 35
2, 18056, Note_off_c, 0, 66, 64
2, 18059, Note_on_c, 0, 75, 42
2, 18059, Note_on_c, 0, 66, 46
2, 18081, Note_off_c, 0, 75, 64
2, 18106, Note_on_c, 0, 77, 51
2, 18128, Note_off_c, 0, 77, 64
2, 18147, Control_c, 0, 64, 0
2, 18150, Control_c, 0, 64, 0
2, 18160, Note_off_c, 0, 49, 64
2, 18163, Note_off_c, 0, 56, 64
2, 18169, Note_on_c, 0, 49, 40
2, 18171, Note_on_c, 0, 65, 42
2, 18172, Note_on_c, 0, 56, 46
2, 18174, Note_on_c, 0, 61, 46
2, 18180, Note_off_c, 0, 66, 64
2, 18183, Note_off_c, 0, 60, 64
2, 18184, Note_on_c, 0, 73, 29
2, 18187, Control_c, 0, 64, 127
2, 18192, Control_c, 0, 64, 127
2, 18206, Note_off_c, 0, 73, 64
2, 18226, Note_on_c, 0, 68, 58
2, 18248, Note_off_c, 0, 68, 64
2, 18268, Control_c, 0, 64, 0
2, 18271, Note_off_c, 0, 49, 64
2, 18286, Note_on_c, 0, 63, 48
2, 18287, Note_off_c, 0, 56, 64
2, 18290, Note_on_c, 0, 67, 35
2, 18290, Note_on_c, 0, 58, 31
2, 18290, Note_on_c, 0, 49, 44
2, 18292, Control_c, 0, 64, 127
2, 18293, Note_on_c, 0, 70, 55
2, 18293, Control_c, 0, 64, 0
2, 18305, Note_off_c, 0, 61, 64
2, 18306, Note_off_c, 0, 65, 64
2, 18315, Note_off_c, 0, 70, 64
2, 18323, Control_c, 0, 64, 127
2, 18352, Note_on_c, 0, 75, 58
2, 18374, Note_off_c, 0, 75, 64
2, 18395, Control_c, 0, 64, 0
2, 18396, Note_off_c, 0, 49, 64
2, 18407, Note_off_c, 0, 63, 64
2, 18408, Note_on_c, 0, 70, 61
2, 18409, Note_on_c, 0, 66, 50
2, 18410, Note_on_c, 0, 63, 54
2, 18410, Note_on_c, 0, 57, 22
2, 18410, Note_on_c, 0, 49, 32
2, 18421, Note_off_c, 0, 58, 64
2, 18421, Note_off_c, 0, 67, 64
2, 18428, Control_c, 0, 64, 127
2, 18430, Note_off_c, 0, 70, 64
2, 18471, Note_on_c, 0, 72, 48
2, 18493, Note_off_c, 0, 72, 64
2, 18527, Note_off_c, 0, 66, 64
2, 18531, Note_off_c, 0, 63, 64
2, 18533, Control_c, 0, 64, 0
2, 18536, Note_off_c, 0, 49, 64
2, 18540, Note_on_c, 0, 68, 70
2, 18540, Note_on_c, 0, 66, 48
2, 18540, Note_on_c, 0, 49, 42
2, 18543, Note_on_c, 0, 56, 46
2, 18544, Note_on_c, 0, 63, 44
2, 18547, Note_off_c, 0, 57, 64
2, 18556, Control_c, 0, 64, 127
2, 18562, Note_off_c, 0, 68, 64
2, 18588, Control_c, 0, 64, 0
2, 18608, Note_on_c, 0, 80, 55
2, 18611, Control_c, 0, 64, 127
2, 18630, Note_off_c, 0, 80, 64
2, 18670, Note_off_c, 0, 49, 64
2, 18674, Note_off_c, 0, 56, 64
2, 18675, Note_off_c, 0, 63, 64
2, 18678, Note_on_c, 0, 49, 40
2, 18680, Note_on_c, 0, 60, 44
2, 18680, Note_on_c, 0, 56, 44
2, 18682, Note_on_c, 0, 78, 66
2, 18687, Note_off_c, 0, 66, 64
2, 18689, Note_on_c, 0, 66, 52
2, 18704, Note_off_c, 0, 78, 64
2, 18744, Note_on_c, 0, 77, 53
2, 18766, Note_off_c, 0, 77, 64
2, 18799, Note_off_c, 0, 49, 64
2, 18801, Note_off_c, 0, 56, 64
2, 18801, Note_off_c, 0, 60, 64
2, 18802, Note_on_c, 0, 49, 44
2, 18803, Note_off_c, 0, 66, 64
2, 18804, Note_on_c, 0, 56, 44
2, 18805, Note_on_c, 0, 75, 49
2, 18805, Note_on_c, 0, 60, 46
2, 18808, Note_on_c, 0, 66, 44
2, 18827, Note_off_c, 0, 75, 64
2, 18870, Note_on_c, 0, 77, 58
2, 18892, Note_off_c, 0, 77, 64
2, 18912, Control_c, 0, 64, 0
2, 18913, Control_c, 0, 64, 0
2, 18923, Note_off_c, 0, 49, 64
2, 18924, Note_on_c, 0, 49, 40
2, 18925, Note_off_c, 0, 56, 64
2, 18926, Note_off_c, 0, 60, 64
2, 18928, Note_on_c, 0, 65, 40
2, 18928, Note_on_c, 0, 61, 46
2, 18928, Note_on_c, 0, 56, 46
2, 18929, Note_off_c, 0, 66, 64
2, 18930, Note_on_c, 0, 73, 55
2, 18949, Control_c, 0, 64, 127
2, 18952, Note_off_c, 0, 73, 64
2, 18958, Control_c, 0, 64, 127
2, 19008, Note_on_c, 0, 68, 62
2, 19030, Note_off_c, 0, 68, 64
2, 19045, Note_off_c, 0, 49, 64
2, 19049, Note_off_c, 0, 56, 64
2, 19049, Note_off_c, 0, 61, 64
2, 19049, Note_off_c, 0, 65, 64
2, 19058, Note_on_c, 0, 67, 50
2, 19058, Note_on_c, 0, 63, 50
2, 19060, Note_on_c, 0, 58, 39
2, 19060, Note_on_c, 0, 49, 39
2, 19062, Note_on_c, 0, 70, 74
2, 19079, Control_c, 0, 64, 127
2, 19084, Note_off_c, 0, 70, 64
2, 19120, Control_c, 0, 64, 0
2, 19136, Note_on_c, 0, 75, 66
2, 19144, Control_c, 0, 64, 127
2, 19158, Note_off_c, 0, 75, 64
2, 19160, Note_off_c, 0, 49, 64
2, 19179, Note_off_c, 0, 63, 64
2, 19179, Note_off_c, 0, 67, 64
2, 19181, Note_off_c, 0, 58, 64
2, 19202, Note_on_c, 0, 68, 80
2, 19202, Note_on_c, 0, 66, 57
2, 19202, Note_on_c, 0, 49, 41
2, 19204, Note_on_c, 0, 63, 53
2, 19204, Note_on_c, 0, 56, 42
2, 19224, Note_off_c, 0, 68, 64
2, 19288, Control_c, 0, 64, 0
2, 19306, Note_on_c, 0, 72, 52
2, 19320, Control_c, 0, 64, 127
2, 19323, Note_off_c, 0, 49, 64
2, 19323, Note_off_c, 0, 66, 64
2, 19325, Note_off_c, 0, 56, 64
2, 19325, Note_off_c, 0, 63, 64
2, 19328, Note_off_c, 0, 72, 64
2, 19365, Control_c, 0, 64, 127
2, 19415, Note_on_c, 0, 65, 48
2, 19416, Note_on_c, 0, 49, 52
2, 19418, Note_on_c, 0, 73, 78
2, 19418, Note_on_c, 0, 56, 45
2, 19440, Control_c, 0, 64, 0
2, 19463, Control_c, 0, 64, 127
2, 19483, Note_off_c, 0, 65, 64
2, 19484, Note_off_c, 0, 49, 64
2, 19486, Note_off_c, 0, 56, 64
2, 19486, Note_off_c, 0, 73, 64
2, 19546, Control_c, 0, 64, 0
2, 19608, Control_c, 0, 64, 127
2, 19732, Note_on_c, 0, 73, 39
2, 19732, Note_on_c, 0, 64, 44
2, 19737, Note_on_c, 0, 57, 44
2, 19737, Note_on_c, 0, 45, 44
2, 19738, Note_on_c, 0, 76, 44
2, 19765, Control_c, 0, 64, 0
2, 19810, Control_c, 0, 64, 127
2, 19817, Note_on_c, 0, 71, 39
2, 19825, Note_on_c, 0, 74, 39
2, 19826, Note_off_c, 0, 76, 64
2, 19838, Note_off_c, 0, 73, 64
2, 19894, Note_on_c, 0, 69, 39
2, 19901, Note_on_c, 0, 73, 44
2, 19914, Note_off_c, 0, 71, 64
2, 19917, Note_off_c, 0, 74, 64
2, 19917, Control_c, 0, 64, 0
2, 19961, Control_c, 0, 64, 127
2, 20087, Note_off_c, 0, 57, 64
2, 20111, Note_off_c, 0, 69, 64
2, 20116, Note_on_c, 0, 50, 39
2, 20121, Note_on_c, 0, 57, 39
2, 20123, Note_off_c, 0, 64, 64
2, 20127, Note_off_c, 0, 45, 64
2, 20127, Note_on_c, 0, 69, 44
2, 20127, Note_on_c, 0, 66, 45
2, 20128, Note_on_c, 0, 78, 39
2, 20140, Note_off_c, 0, 73, 64
2, 20170, Control_c, 0, 64, 0
2, 20202, Control_c, 0, 64, 127
2, 20361, Note_off_c, 0, 57, 64
2, 20376, Note_on_c, 0, 57, 37
2, 20377, Note_on_c, 0, 64, 39
2, 20380, Note_on_c, 0, 73, 40
2, 20383, Note_on_c, 0, 76, 40
2, 20383, Note_on_c, 0, 45, 35
2, 20411, Note_off_c, 0, 50, 64
2, 20422, Note_off_c, 0, 66, 64
2, 20422, Note_off_c, 0, 69, 64
2, 20423, Note_off_c, 0, 78, 64
2, 20428, Control_c, 0, 64, 0
2, 20463, Control_c, 0, 64, 0
2, 20479, Control_c, 0, 64, 127
2, 20490, Control_c, 0, 64, 127
2, 20796, Control_c, 0, 64, 0
2, 20832, Control_c, 0, 64, 127
2, 20837, Note_off_c, 0, 73, 64
2, 20867, Note_on_c, 0, 73, 42
2, 20867, Note_on_c, 0, 69, 39
2, 20886, Note_off_c, 0, 76, 64
2, 20972, Note_off_c, 0, 45, 64
2, 20976, Note_off_c, 0, 57, 64
2, 21010, Note_off_c, 0, 69, 64
2, 21012, Note_off_c, 0, 73, 64
2, 21021, Note_off_c, 0, 64, 64
2, 21176, Note_on_c, 0, 76, 39
2, 21176, Note_on_c, 0, 73, 39
2, 21180, Note_on_c, 0, 57, 37
2, 21184, Note_on_c, 0, 64, 37
2, 21252, Note_on_c, 0, 74, 39
2, 21252, Note_on_c, 0, 71, 42
2, 21267, Note_off_c, 0, 73, 64
2, 21270, Note_off_c, 0, 76, 64
2, 21326, Note_on_c, 0, 69, 39
2, 21331, Note_on_c, 0, 73, 48
2, 21345, Control_c, 0, 64, 0
2, 21346, Control_c, 0, 64, 0
2, 21351, Note_off_c, 0, 71, 64
2, 21351, Note_off_c, 0, 74, 64
2, 21361, Control_c, 0, 64, 127
2, 21439, Control_c, 0, 64, 127
2, 21611, Note_off_c, 0, 57, 64
2, 21615, Note_off_c, 0, 69, 64
2, 21624, Note_on_c, 0, 69, 39
2, 21624, Note_on_c, 0, 66, 37
2, 21632, Note_on_c, 0, 78, 35
2, 21635, Note_on_c, 0, 57, 28
2, 21636, Note_on_c, 0, 50, 35
2, 21640, Note_off_c, 0, 64, 64
2, 21647, Note_off_c, 0, 73, 64
2, 21678, Control_c, 0, 64, 0
2, 21714, Control_c, 0, 64, 127
2, 22002, Control_c, 0, 64, 0
2, 22057, Control_c, 0, 64, 127
2, 22114, Note_off_c, 0, 69, 64
2, 22116, Note_on_c, 0, 73, 35
2, 22117, Note_on_c, 0, 64, 35
2, 22120, Note_on_c, 0, 76, 39
2, 22121, Note_off_c, 0, 57, 64
2, 22126, Note_on_c, 0, 69, 39
2, 22126, Note_on_c, 0, 57, 32
2, 22131, Note_on_c, 0, 45, 26
2, 22140, Note_off_c, 0, 66, 64
2, 22148, Note_off_c, 0, 78, 64
2, 22152, Note_off_c, 0, 50, 64
2, 22203, Control_c, 0, 64, 0
2, 22221, Control_c, 0, 64, 127
2, 22228, Control_c, 0, 64, 0
2, 22303, Control_c, 0, 64, 0
2, 22321, Control_c, 0, 64, 127
2, 22350, Control_c, 0, 64, 127
2, 22420, Control_c, 0, 64, 0
2, 22443, Control_c, 0, 64, 127
2, 22544, Control_c, 0, 64, 0
2, 22577, Control_c, 0, 64, 127
2, 22652, Control_c, 0, 64, 0
2, 22681, Control_c, 0, 64, 127
2, 22760, Control_c, 0, 64, 0
2, 22783, Control_c, 0, 64, 127
2, 22837, Note_off_c, 0, 64, 64
2, 22854, Note_on_c, 0, 70, 57
2, 22856, Note_on_c, 0, 61, 45
2, 22856, Note_on_c, 0, 55, 48
2, 22858, Note_on_c, 0, 64, 49
2, 22882, Note_off_c, 0, 73, 64
2, 22884, Control_c, 0, 64, 0
2, 22884, Control_c, 0, 64, 0
2, 22888, Note_off_c, 0, 76, 64
2, 22892, Note_off_c, 0, 57, 64
2, 22892, Note_off_c, 0, 69, 64
2, 22897, Note_off_c, 0, 45, 64
2, 22930, Control_c, 0, 64, 127
2, 22939, Control_c, 0, 64, 127
2, 23023, Control_c, 0, 64, 0
2, 23065, Control_c, 0, 64, 127
2, 23078, Note_on_c, 0, 56, 32
2, 23080, Note_on_c, 0, 63, 37
2, 23080, Note_on_c, 0, 60, 31
2, 23083, Note_on_c, 0, 68, 48
2, 23085, Control_c, 0, 64, 0
2, 23103, Control_c, 0, 64, 127
2, 23106, Note_off_c, 0, 70, 64
2, 23108, Note_off_c, 0, 55, 64
2, 23108, Note_off_c, 0, 61, 64
2, 23110, Note_off_c, 0, 64, 64
2, 23124, Note_off_c, 0, 56, 64
2, 23126, Note_off_c, 0, 60, 64
2, 23126, Note_off_c, 0, 63, 64
2, 23127, Control_c, 0, 64, 0
2, 23131, Note_on_c, 0, 70, 49
2, 23137, Note_off_c, 0, 68, 64
2, 23152, Control_c, 0, 64, 127
2, 23175, Note_on_c, 0, 68, 50
2, 23185, Control_c, 0, 64, 0
2, 23190, Note_off_c, 0, 70, 64
2, 23210, Note_on_c, 0, 67, 42
2, 23210, Note_on_c, 0, 64, 44
2, 23213, Note_on_c, 0, 61, 45
2, 23213, Note_on_c, 0, 56, 44
2, 23227, Note_off_c, 0, 68, 64
2, 23232, Control_c, 0, 64, 127
2, 23245, Control_c, 0, 64, 0
2, 23256, Note_off_c, 0, 64, 64
2, 23259, Note_off_c, 0, 56, 64
2, 23259, Note_off_c, 0, 61, 64
2, 23268, Control_c, 0, 64, 127
2, 23275, Note_on_c, 0, 68, 50
2, 23284, Note_off_c, 0, 67, 64
2, 23302, Control_c, 0, 64, 0
2, 23325, Control_c, 0, 64, 127
2, 23328, Note_on_c, 0, 56, 28
2, 23332, Note_on_c, 0, 64, 35
2, 23332, Note_on_c, 0, 61, 28
2, 23340, Note_on_c, 0, 70, 44
2, 23359, Note_off_c, 0, 68, 64
2, 23370, Control_c, 0, 64, 0
2, 23374, Note_off_c, 0, 56, 64
2, 23378, Note_off_c, 0, 61, 64
2, 23378, Note_off_c, 0, 64, 64
2, 23386, Note_on_c, 0, 72, 50
2, 23404, Control_c, 0, 64, 127
2, 23408, Note_off_c, 0, 70, 64
2, 23426, Control_c, 0, 64, 0
2, 23436, Note_on_c, 0, 55, 44
2, 23440, Note_on_c, 0, 64, 44
2, 23440, Note_on_c, 0, 58, 44
2, 23448, Note_on_c, 0, 73, 55
2, 23459, Note_off_c, 0, 72, 64
2, 23459, Control_c, 0, 64, 127
2, 23482, Note_off_c, 0, 55, 64
2, 23486, Note_off_c, 0, 58, 64
2, 23486, Note_off_c, 0, 64, 64
2, 23486, Note_on_c, 0, 75, 54
2, 23493, Control_c, 0, 64, 0
2, 23498, Note_off_c, 0, 73, 64
2, 23512, Note_on_c, 0, 73, 54
2, 23534, Control_c, 0, 64, 0
2, 23535, Note_off_c, 0, 75, 64
2, 23538, Control_c, 0, 64, 127
2, 23561, Note_on_c, 0, 72, 61
2, 23561, Note_on_c, 0, 56, 44
2, 23563, Control_c, 0, 64, 127
2, 23568, Note_on_c, 0, 63, 45
2, 23568, Note_on_c, 0, 60, 44
2, 23573, Note_off_c, 0, 73, 64
2, 23607, Note_off_c, 0, 56, 64
2, 23612, Control_c, 0, 64, 0
2, 23614, Note_off_c, 0, 60, 64
2, 23614, Note_off_c, 0, 63, 64
2, 23620, Note_on_c, 0, 73, 58
2, 23627, Note_off_c, 0, 72, 64
2, 23637, Control_c, 0, 64, 127
2, 23642, Control_c, 0, 64, 0
2, 23665, Control_c, 0, 64, 127
2, 23696, Note_on_c, 0, 75, 65
2, 23696, Note_on_c, 0, 63, 44
2, 23696, Note_on_c, 0, 58, 36
2, 23696, Note_on_c, 0, 55, 40
2, 23703, Note_off_c, 0, 73, 64
2, 23722, Control_c, 0, 64, 0
2, 23742, Note_off_c, 0, 55, 64
2, 23742, Note_off_c, 0, 58, 64
2, 23742, Note_off_c, 0, 63, 64
2, 23751, Control_c, 0, 64, 127
2, 23782, Note_off_c, 0, 75, 64
2, 23818, Note_on_c, 0, 56, 54
2, 23824, Note_on_c, 0, 80, 65
2, 23824, Note_on_c, 0, 65, 53
2, 23824, Note_on_c, 0, 61, 54
2, 23824, Note_on_c, 0, 53, 50
2, 23826, Control_c, 0, 64, 0
2, 23836, Control_c, 0, 64, 0
2, 23864, Control_c, 0, 64, 127
2, 23872, Control_c, 0, 64, 127
2, 23904, Note_off_c, 0, 56, 64
2, 23910, Note_off_c, 0, 53, 64
2, 23910, Note_off_c, 0, 61, 64
2, 23910, Note_off_c, 0, 65, 64
2, 23910, Note_off_c, 0, 80, 64
2, 23942, Note_on_c, 0, 73, 52
2, 23951, Control_c, 0, 64, 0
2, 23965, Control_c, 0, 64, 0
2, 23976, Note_on_c, 0, 63, 36
2, 23976, Note_on_c, 0, 56, 32
2, 23976, Note_on_c, 0, 51, 37
2, 23981, Control_c, 0, 64, 127
2, 23986, Note_on_c, 0, 72, 49
2, 24005, Note_off_c, 0, 73, 64
2, 24007, Control_c, 0, 64, 127
2, 24022, Note_off_c, 0, 51, 64
2, 24022, Note_off_c, 0, 56, 64
2, 24022, Note_off_c, 0, 63, 64
2, 24056, Note_on_c, 0, 75, 42
2, 24062, Note_off_c, 0, 72, 64
2, 24069, Control_c, 0, 64, 0
2, 24094, Control_c, 0, 64, 127
2, 24106, Note_on_c, 0, 51, 41
2, 24108, Note_on_c, 0, 60, 32
2, 24110, Note_on_c, 0, 68, 55
2, 24110, Note_on_c, 0, 63, 40
2, 24118, Note_off_c, 0, 75, 64
2, 24152, Note_off_c, 0, 51, 64
2, 24154, Note_off_c, 0, 60, 64
2, 24156, Note_off_c, 0, 63, 64
2, 24161, Note_on_c, 0, 69, 49
2, 24165, Control_c, 0, 64, 0
2, 24169, Note_off_c, 0, 68, 64
2, 24187, Control_c, 0, 64, 0
2, 24210, Control_c, 0, 64, 127
2, 24211, Control_c, 0, 64, 127
2, 24216, Note_on_c, 0, 51, 37
2, 24219, Note_on_c, 0, 63, 40
2, 24219, Note_on_c, 0, 61, 37
2, 24220, Note_on_c, 0, 70, 50
2, 24230, Note_off_c, 0, 69, 64
2, 24262, Note_off_c, 0, 51, 64
2, 24265, Note_off_c, 0, 61, 64
2, 24265, Note_off_c, 0, 63, 64
2, 24275, Note_on_c, 0, 73, 50
2, 24281, Note_off_c, 0, 70, 64
2, 24312, Control_c, 0, 64, 0
2, 24334, Note_on_c, 0, 51, 32
2, 24338, Note_on_c, 0, 65, 55
2, 24338, Note_on_c, 0, 63, 37
2, 24338, Note_on_c, 0, 61, 36
2, 24346, Control_c, 0, 64, 127
2, 24356, Note_off_c, 0, 73, 64
2, 24358, Control_c, 0, 64, 0
2, 24380, Note_off_c, 0, 51, 64
2, 24384, Note_off_c, 0, 61, 64
2, 24384, Note_off_c, 0, 63, 64
2, 24386, Control_c, 0, 64, 127
2, 24392, Note_on_c, 0, 67, 54
2, 24403, Note_off_c, 0, 65, 64
2, 24435, Control_c, 0, 64, 0
2, 24451, Note_on_c, 0, 68, 67
2, 24454, Note_on_c, 0, 60, 28
2, 24456, Note_on_c, 0, 63, 44
2, 24456, Note_on_c, 0, 56, 36
2, 24474, Note_off_c, 0, 67, 64
2, 24480, Control_c, 0, 64, 127
2, 24500, Note_off_c, 0, 60, 64
2, 24502, Note_off_c, 0, 56, 64
2, 24502, Note_off_c, 0, 63, 64
2, 24554, Control_c, 0, 64, 0
2, 24582, Control_c, 0, 64, 0
2, 24600, Note_on_c, 0, 63, 32
2, 24600, Note_on_c, 0, 60, 23
2, 24600, Note_on_c, 0, 56, 32
2, 24609, Control_c, 0, 64, 127
2, 24636, Control_c, 0, 64, 127
2, 24642, Note_on_c, 0, 70, 40
2, 24646, Note_off_c, 0, 56, 64
2, 24646, Note_off_c, 0, 60, 64
2, 24646, Note_off_c, 0, 63, 64
2, 24662, Note_off_c, 0, 68, 64
2, 24682, Note_on_c, 0, 68, 59
2, 24694, Control_c, 0, 64, 0
2, 24708, Note_off_c, 0, 70, 64
2, 24714, Note_on_c, 0, 67, 54
2, 24718, Note_on_c, 0, 64, 40
2, 24718, Note_on_c, 0, 61, 36
2, 24718, Note_on_c, 0, 56, 32
2, 24723, Control_c, 0, 64, 127
2, 24738, Note_off_c, 0, 68, 64
2, 24764, Note_off_c, 0, 56, 64
2, 24764, Note_off_c, 0, 61, 64
2, 24764, Note_off_c, 0, 64, 64
2, 24779, Note_off_c, 0, 67, 64
2, 24783, Note_on_c, 0, 68, 55
2, 24808, Control_c, 0, 64, 0
2, 24823, Control_c, 0, 64, 0
2, 24832, Note_on_c, 0, 70, 53
2, 24832, Note_on_c, 0, 64, 31
2, 24832, Note_on_c, 0, 61, 35
2, 24835, Note_on_c, 0, 56, 32
2, 24836, Control_c, 0, 64, 127
2, 24849, Note_off_c, 0, 68, 64
2, 24865, Control_c, 0, 64, 127
2, 24878, Note_off_c, 0, 61, 64
2, 24878, Note_off_c, 0, 64, 64
2, 24881, Note_off_c, 0, 56, 64
2, 24888, Note_on_c, 0, 72, 56
2, 24897, Note_off_c, 0, 70, 64
2, 24923, Control_c, 0, 64, 0
2, 24942, Note_on_c, 0, 64, 46
2, 24942, Note_on_c, 0, 55, 45
2, 24943, Note_on_c, 0, 58, 46
2, 24944, Note_on_c, 0, 73, 56
2, 24953, Control_c, 0, 64, 127
2, 24961, Control_c, 0, 64, 0
2, 24963, Note_off_c, 0, 72, 64
2, 24979, Note_on_c, 0, 75, 59
2, 24983, Control_c, 0, 64, 127
2, 24988, Note_off_c, 0, 55, 64
2, 24988, Note_off_c, 0, 64, 64
2, 24989, Note_off_c, 0, 58, 64
2, 25001, Note_off_c, 0, 73, 64
2, 25020, Note_on_c, 0, 73, 55
2, 25034, Note_off_c, 0, 75, 64
2, 25044, Note_on_c, 0, 56, 32
2, 25045, Note_on_c, 0, 63, 35
2, 25046, Note_on_c, 0, 72, 56
2, 25046, Note_on_c, 0, 60, 33
2, 25062, Note_off_c, 0, 73, 64
2, 25090, Note_off_c, 0, 56, 64
2, 25091, Note_off_c, 0, 63, 64
2, 25092, Note_off_c, 0, 60, 64
2, 25095, Note_off_c, 0, 72, 64
2, 25098, Note_on_c, 0, 73, 59
2, 25114, Note_off_c, 0, 73, 64
2, 25126, Note_on_c, 0, 73, 56
2, 25133, Control_c, 0, 64, 0
2, 25137, Control_c, 0, 64, 0
2, 25148, Note_off_c, 0, 73, 64
2, 25156, Note_on_c, 0, 58, 24
2, 25156, Note_on_c, 0, 55, 35
2, 25158, Note_on_c, 0, 74, 58
2, 25158, Note_on_c, 0, 63, 36
2, 25183, Control_c, 0, 64, 127
2, 25195, Note_on_c, 0, 75, 63
2, 25202, Note_off_c, 0, 74, 64
2, 25202, Note_off_c, 0, 55, 64
2, 25202, Note_off_c, 0, 58, 64
2, 25204, Note_off_c, 0, 63, 64
2, 25214, Note_off_c, 0, 75, 64
2, 25258, Note_on_c, 0, 75, 66
2, 25300, Note_on_c, 0, 65, 51
2, 25302, Note_on_c, 0, 80, 84
2, 25302, Note_on_c, 0, 61, 51
2, 25302, Note_on_c, 0, 56, 45
2, 25302, Note_on_c, 0, 53, 54
2, 25317, Note_off_c, 0, 75, 64
2, 25330, Control_c, 0, 64, 0
2, 25358, Control_c, 0, 64, 127
2, 25424, Note_off_c, 0, 65, 64
2, 25426, Note_off_c, 0, 53, 64
2, 25426, Note_off_c, 0, 56, 64
2, 25426, Note_off_c, 0, 61, 64
2, 25426, Note_off_c, 0, 80, 64
2, 25538, Note_on_c, 0, 73, 40
2, 25554, Control_c, 0, 64, 0
2, 25554, Control_c, 0, 64, 0
2, 25578, Note_on_c, 0, 72, 57
2, 25578, Note_on_c, 0, 63, 49
2, 25578, Note_on_c, 0, 56, 45
2, 25578, Note_on_c, 0, 51, 49
2, 25602, Note_off_c, 0, 73, 64
2, 25608, Control_c, 0, 64, 127
2, 25611, Note_off_c, 0, 51, 64
2, 25612, Note_off_c, 0, 63, 64
2, 25624, Note_off_c, 0, 56, 64
2, 25635, Note_on_c, 0, 75, 50
2, 25666, Note_off_c, 0, 72, 64
2, 25698, Note_on_c, 0, 68, 70
2, 25706, Note_on_c, 0, 60, 52
2, 25709, Note_on_c, 0, 63, 53
2, 25714, Note_on_c, 0, 51, 49
2, 25717, Note_off_c, 0, 75, 64
2, 25740, Note_off_c, 0, 51, 64
2, 25743, Note_off_c, 0, 63, 64
2, 25747, Note_off_c, 0, 60, 64
2, 25749, Note_on_c, 0, 69, 62
2, 25766, Note_off_c, 0, 68, 64
2, 25795, Control_c, 0, 64, 0
2, 25817, Note_on_c, 0, 70, 58
2, 25817, Note_on_c, 0, 51, 49
2, 25821, Note_on_c, 0, 63, 54
2, 25821, Note_on_c, 0, 61, 53
2, 25827, Note_off_c, 0, 69, 64
2, 25837, Control_c, 0, 64, 127
2, 25855, Note_off_c, 0, 63, 64
2, 25857, Note_off_c, 0, 51, 64
2, 25863, Note_off_c, 0, 61, 64
2, 25877, Note_on_c, 0, 73, 67
2, 25891, Note_off_c, 0, 70, 64
2, 25933, Control_c, 0, 64, 0
2, 25938, Note_on_c, 0, 63, 54
2, 25938, Note_on_c, 0, 51, 52
2, 25939, Note_on_c, 0, 65, 75
2, 25941, Note_on_c, 0, 61, 49
2, 25955, Control_c, 0, 64, 127
2, 25963, Note_off_c, 0, 73, 64
2, 25975, Note_off_c, 0, 63, 64
2, 25983, Note_off_c, 0, 51, 64
2, 25991, Note_off_c, 0, 61, 64
2, 26001, Note_on_c, 0, 67, 61
2, 26014, Note_off_c, 0, 65, 64
2, 26074, Note_on_c, 0, 60, 59
2, 26077, Note_on_c, 0, 68, 80
2, 26078, Note_on_c, 0, 63, 71
2, 26082, Note_on_c, 0, 56, 59
2, 26093, Note_off_c, 0, 67, 64
2, 26105, Control_c, 0, 64, 0
2, 26339, Note_off_c, 0, 56, 64
2, 26344, Note_off_c, 0, 63, 64
2, 26351, Note_off_c, 0, 60, 64
2, 26357, Note_off_c, 0, 68, 64
2, 26526, Control_c, 0, 64, 0
2, 26560, Control_c, 0, 64, 0
2, 26606, Control_c, 0, 64, 127
2, 26606, End_track
3, 0, Start_track
3, 0, Title_t, "Played by Dr. Ron Lubetsky"
3, 0, End_track
4, 0, Start_track
4, 0, Title_t, "Jan. 12, 1998"
4, 0, End_track
5, 0, Start_track
5, 0, Title_t, "email: acuity2020@aol.com"
5, 0, End_track
6, 0, Start_track
6, 0, Title_t, "Copyright  1998"
6, 0, End_track
7, 0, Start_track
7, 0, Title_t, "All Rights Reserved"
7, 0, End_track
0, 0, End_of_file
