2, 0, Program_c, 0, 0
2, 0, Control_c, 0, 7, 127
2, 747, Control_c, 0, 64, 0
2, 795, Control_c, 0, 64, 0
2, 827, Control_c, 0, 64, 127
2, 831, Note_on_c, 0, 67, 34
2, 875, Control_c, 0, 64, 127
2, 1100, Control_c, 0, 64, 0
2, 1109, Note_on_c, 0, 74, 34
2, 1112, Note_on_c, 0, 71, 30
2, 1112, Note_on_c, 0, 55, 35
2, 1118, Note_on_c, 0, 65, 19
2, 1145, Control_c, 0, 64, 127
2, 1148, Control_c, 0, 64, 0
2, 1158, Note_off_c, 0, 67, 64
2, 1193, Control_c, 0, 64, 127
2, 1309, Note_off_c, 0, 71, 64
2, 1331, Note_off_c, 0, 65, 64
2, 1411, Control_c, 0, 64, 0
2, 1413, Note_on_c, 0, 76, 38
2, 1416, Note_on_c, 0, 71, 31
2, 1422, Note_on_c, 0, 67, 50
2, 1425, Note_on_c, 0, 65, 27
2, 1447, Control_c, 0, 64, 127
2, 1459, Control_c, 0, 64, 0
2, 1462, Note_off_c, 0, 74, 64
2, 1495, Control_c, 0, 64, 127
2, 1672, Note_off_c, 0, 55, 64
2, 1700, Note_on_c, 0, 55, 38
2, 1829, Note_on_c, 0, 74, 41
2, 1874, Note_off_c, 0, 76, 64
2, 1897, Note_off_c, 0, 74, 64
2, 1953, Note_on_c, 0, 74, 41
2, 1969, Note_on_c, 0, 64, 26
2, 1975, Note_off_c, 0, 55, 64
2, 1976, Note_off_c, 0, 71, 64
2, 1977, Control_c, 0, 64, 0
2, 1979, Note_on_c, 0, 60, 24
2, 1983, Note_on_c, 0, 72, 36
2, 1985, Note_off_c, 0, 65, 64
2, 2006, Note_off_c, 0, 74, 64
2, 2017, Control_c, 0, 64, 127
2, 2025, Control_c, 0, 64, 0
2, 2065, Control_c, 0, 64, 127
2, 2160, Note_off_c, 0, 64, 64
2, 2172, Note_off_c, 0, 72, 64
2, 2185, Note_on_c, 0, 71, 41
2, 2190, Note_off_c, 0, 67, 64
2, 2216, Control_c, 0, 64, 0
2, 2224, Note_on_c, 0, 64, 31
2, 2231, Note_on_c, 0, 67, 35
2, 2238, Note_on_c, 0, 72, 52
2, 2244, Note_off_c, 0, 71, 64
2, 2251, Control_c, 0, 64, 127
2, 2264, Control_c, 0, 64, 0
2, 2299, Control_c, 0, 64, 127
2, 2486, Note_on_c, 0, 55, 31
2, 2529, Note_off_c, 0, 60, 64
2, 2604, Note_on_c, 0, 73, 46
2, 2629, Note_off_c, 0, 72, 64
2, 2653, Note_off_c, 0, 64, 64
2, 2720, Control_c, 0, 64, 0
2, 2734, Note_on_c, 0, 59, 34
2, 2734, Note_on_c, 0, 65, 31
2, 2738, Note_on_c, 0, 74, 38
2, 2744, Note_off_c, 0, 55, 64
2, 2748, Control_c, 0, 64, 127
2, 2761, Note_off_c, 0, 73, 64
2, 2768, Control_c, 0, 64, 0
2, 2796, Control_c, 0, 64, 127
2, 2918, Note_on_c, 0, 75, 43
2, 2934, Note_off_c, 0, 65, 64
2, 2935, Note_off_c, 0, 74, 64
2, 2938, Note_off_c, 0, 67, 64
2, 2968, Control_c, 0, 64, 0
2, 2983, Note_on_c, 0, 76, 50
2, 2990, Note_on_c, 0, 71, 42
2, 2991, Note_on_c, 0, 67, 53
2, 2996, Note_off_c, 0, 75, 64
2, 2997, Note_on_c, 0, 65, 45
2, 3016, Control_c, 0, 64, 0
2, 3023, Control_c, 0, 64, 127
2, 3028, Note_off_c, 0, 59, 64
2, 3071, Control_c, 0, 64, 127
2, 3243, Note_on_c, 0, 55, 34
2, 3302, Note_off_c, 0, 71, 64
2, 3361, Note_on_c, 0, 74, 43
2, 3399, Note_off_c, 0, 76, 64
2, 3409, Note_off_c, 0, 65, 64
2, 3456, Note_off_c, 0, 74, 64
2, 3480, Note_on_c, 0, 74, 34
2, 3499, Control_c, 0, 64, 0
2, 3508, Note_on_c, 0, 60, 35
2, 3508, Note_on_c, 0, 64, 30
2, 3517, Note_on_c, 0, 72, 43
2, 3528, Note_off_c, 0, 55, 64
2, 3537, Note_off_c, 0, 74, 64
2, 3547, Control_c, 0, 64, 0
2, 3550, Control_c, 0, 64, 127
2, 3598, Control_c, 0, 64, 127
2, 3693, Note_off_c, 0, 64, 64
2, 3697, Note_on_c, 0, 71, 38
2, 3700, Note_off_c, 0, 67, 64
2, 3704, Note_off_c, 0, 72, 64
2, 3750, Control_c, 0, 64, 0
2, 3753, Note_on_c, 0, 64, 35
2, 3756, Note_on_c, 0, 72, 47
2, 3760, Note_on_c, 0, 67, 28
2, 3766, Note_off_c, 0, 71, 64
2, 3786, Control_c, 0, 64, 127
2, 3798, Control_c, 0, 64, 0
2, 3834, Control_c, 0, 64, 127
2, 3959, Note_off_c, 0, 60, 64
2, 4037, Note_on_c, 0, 60, 28
2, 4257, Note_off_c, 0, 64, 64
2, 4260, Note_off_c, 0, 72, 64
2, 4264, Note_off_c, 0, 67, 64
2, 4282, Note_off_c, 0, 60, 64
2, 4346, Note_on_c, 0, 71, 38
2, 4356, Note_on_c, 0, 52, 23
2, 4356, Note_on_c, 0, 68, 34
2, 4362, Note_on_c, 0, 62, 19
2, 4376, Control_c, 0, 64, 0
2, 4399, Control_c, 0, 64, 127
2, 4424, Control_c, 0, 64, 0
2, 4447, Control_c, 0, 64, 127
2, 4634, Note_off_c, 0, 68, 64
2, 4650, Note_off_c, 0, 62, 64
2, 4673, Note_on_c, 0, 72, 39
2, 4677, Control_c, 0, 64, 0
2, 4678, Note_on_c, 0, 68, 35
2, 4686, Note_on_c, 0, 62, 28
2, 4689, Note_on_c, 0, 64, 35
2, 4695, Note_off_c, 0, 71, 64
2, 4700, Control_c, 0, 64, 127
2, 4725, Control_c, 0, 64, 0
2, 4748, Control_c, 0, 64, 127
2, 4835, Note_off_c, 0, 52, 64
2, 4920, Note_on_c, 0, 52, 30
2, 5038, Note_on_c, 0, 71, 32
2, 5040, Note_off_c, 0, 72, 64
2, 5095, Note_off_c, 0, 71, 64
2, 5144, Note_on_c, 0, 71, 24
2, 5145, Note_off_c, 0, 68, 64
2, 5153, Note_off_c, 0, 62, 64
2, 5176, Note_on_c, 0, 67, 21
2, 5176, Note_on_c, 0, 61, 27
2, 5176, Note_on_c, 0, 57, 27
2, 5183, Note_on_c, 0, 69, 30
2, 5191, Control_c, 0, 64, 0
2, 5213, Control_c, 0, 64, 127
2, 5220, Note_off_c, 0, 52, 64
2, 5232, Note_off_c, 0, 71, 64
2, 5239, Control_c, 0, 64, 0
2, 5261, Control_c, 0, 64, 127
2, 5374, Note_off_c, 0, 61, 64
2, 5374, Note_off_c, 0, 67, 64
2, 5379, Note_off_c, 0, 64, 64
2, 5382, Note_on_c, 0, 68, 38
2, 5410, Note_off_c, 0, 69, 64
2, 5419, Control_c, 0, 64, 0
2, 5430, Note_off_c, 0, 57, 64
2, 5434, Note_on_c, 0, 64, 39
2, 5437, Note_on_c, 0, 67, 38
2, 5437, Note_on_c, 0, 69, 39
2, 5442, Control_c, 0, 64, 127
2, 5444, Note_on_c, 0, 61, 38
2, 5454, Note_off_c, 0, 68, 64
2, 5467, Control_c, 0, 64, 0
2, 5490, Control_c, 0, 64, 127
2, 5707, Note_on_c, 0, 57, 31
2, 5811, Note_on_c, 0, 71, 39
2, 5842, Note_off_c, 0, 69, 64
2, 5943, Control_c, 0, 64, 0
2, 5966, Control_c, 0, 64, 127
2, 5972, Note_on_c, 0, 72, 41
2, 5972, Note_on_c, 0, 66, 35
2, 5978, Note_on_c, 0, 50, 39
2, 5987, Note_off_c, 0, 71, 64
2, 5991, Control_c, 0, 64, 0
2, 5996, Note_off_c, 0, 64, 64
2, 5999, Note_off_c, 0, 67, 64
2, 6006, Note_off_c, 0, 61, 64
2, 6010, Note_off_c, 0, 57, 64
2, 6014, Control_c, 0, 64, 127
2, 6163, Note_off_c, 0, 66, 64
2, 6175, Note_on_c, 0, 73, 39
2, 6196, Note_off_c, 0, 72, 64
2, 6237, Control_c, 0, 64, 0
2, 6239, Note_off_c, 0, 73, 64
2, 6243, Note_on_c, 0, 72, 46
2, 6243, Note_on_c, 0, 76, 47
2, 6244, Note_on_c, 0, 66, 45
2, 6249, Note_on_c, 0, 69, 38
2, 6264, Control_c, 0, 64, 127
2, 6274, Note_off_c, 0, 50, 64
2, 6285, Control_c, 0, 64, 0
2, 6312, Control_c, 0, 64, 127
2, 6518, Note_on_c, 0, 62, 28
2, 6676, Note_on_c, 0, 74, 38
2, 6693, Note_off_c, 0, 76, 64
2, 6727, Note_on_c, 0, 76, 49
2, 6730, Note_off_c, 0, 74, 64
2, 6752, Note_off_c, 0, 72, 64
2, 6753, Note_off_c, 0, 66, 64
2, 6758, Note_off_c, 0, 69, 64
2, 6764, Note_on_c, 0, 74, 46
2, 6776, Note_off_c, 0, 76, 64
2, 6813, Note_on_c, 0, 73, 52
2, 6826, Control_c, 0, 64, 0
2, 6826, Note_on_c, 0, 65, 31
2, 6829, Note_on_c, 0, 71, 38
2, 6836, Note_off_c, 0, 74, 64
2, 6836, Note_on_c, 0, 55, 38
2, 6856, Control_c, 0, 64, 127
2, 6858, Note_off_c, 0, 62, 64
2, 6874, Control_c, 0, 64, 0
2, 6904, Control_c, 0, 64, 127
2, 7068, Note_on_c, 0, 74, 46
2, 7082, Note_off_c, 0, 65, 64
2, 7086, Note_off_c, 0, 71, 64
2, 7122, Control_c, 0, 64, 0
2, 7123, Note_off_c, 0, 73, 64
2, 7139, Note_on_c, 0, 71, 45
2, 7144, Note_on_c, 0, 79, 61
2, 7146, Note_on_c, 0, 67, 38
2, 7146, Note_on_c, 0, 65, 39
2, 7152, Control_c, 0, 64, 127
2, 7154, Note_off_c, 0, 74, 64
2, 7170, Control_c, 0, 64, 0
2, 7200, Control_c, 0, 64, 127
2, 7211, Note_off_c, 0, 55, 64
2, 7477, Note_on_c, 0, 55, 41
2, 7768, Note_off_c, 0, 71, 64
2, 7775, Note_off_c, 0, 65, 64
2, 7775, Note_off_c, 0, 67, 64
2, 7805, Note_off_c, 0, 79, 64
2, 7860, Control_c, 0, 64, 0
2, 7869, Note_on_c, 0, 74, 52
2, 7870, Note_on_c, 0, 71, 47
2, 7874, Note_on_c, 0, 65, 43
2, 7879, Note_on_c, 0, 43, 46
2, 7891, Control_c, 0, 64, 127
2, 7908, Control_c, 0, 64, 0
2, 7939, Control_c, 0, 64, 127
2, 7984, Note_off_c, 0, 55, 64
2, 8158, Note_off_c, 0, 71, 64
2, 8183, Note_off_c, 0, 65, 64
2, 8207, Note_on_c, 0, 76, 50
2, 8213, Note_on_c, 0, 71, 45
2, 8217, Note_on_c, 0, 67, 53
2, 8219, Note_on_c, 0, 65, 45
2, 8244, Note_off_c, 0, 43, 64
2, 8253, Note_off_c, 0, 74, 64
2, 8476, Note_on_c, 0, 55, 43
2, 8618, Note_on_c, 0, 74, 43
2, 8632, Note_off_c, 0, 76, 64
2, 8635, Note_off_c, 0, 71, 64
2, 8651, Note_off_c, 0, 65, 64
2, 8713, Note_off_c, 0, 74, 64
2, 8718, Note_on_c, 0, 72, 49
2, 8746, Note_on_c, 0, 74, 45
2, 8756, Note_off_c, 0, 72, 64
2, 8769, Note_on_c, 0, 64, 50
2, 8771, Control_c, 0, 64, 0
2, 8772, Note_off_c, 0, 55, 64
2, 8777, Note_on_c, 0, 72, 42
2, 8777, Note_on_c, 0, 60, 38
2, 8784, Control_c, 0, 64, 127
2, 8808, Note_off_c, 0, 74, 64
2, 8819, Control_c, 0, 64, 0
2, 8832, Control_c, 0, 64, 127
2, 8960, Note_off_c, 0, 64, 64
2, 8967, Note_on_c, 0, 71, 43
2, 8968, Note_off_c, 0, 72, 64
2, 9007, Note_off_c, 0, 67, 64
2, 9009, Control_c, 0, 64, 0
2, 9011, Note_on_c, 0, 72, 50
2, 9018, Note_on_c, 0, 64, 42
2, 9022, Note_off_c, 0, 71, 64
2, 9028, Note_on_c, 0, 67, 43
2, 9033, Control_c, 0, 64, 127
2, 9057, Control_c, 0, 64, 0
2, 9081, Control_c, 0, 64, 127
2, 9284, Note_on_c, 0, 55, 38
2, 9293, Note_off_c, 0, 60, 64
2, 9404, Note_on_c, 0, 73, 46
2, 9434, Note_off_c, 0, 64, 64
2, 9438, Note_off_c, 0, 72, 64
2, 9538, Control_c, 0, 64, 0
2, 9549, Note_on_c, 0, 74, 49
2, 9549, Control_c, 0, 64, 127
2, 9551, Note_on_c, 0, 65, 41
2, 9551, Note_on_c, 0, 59, 41
2, 9559, Note_off_c, 0, 73, 64
2, 9586, Control_c, 0, 64, 0
2, 9591, Note_off_c, 0, 55, 64
2, 9597, Control_c, 0, 64, 127
2, 9729, Note_off_c, 0, 67, 64
2, 9738, Note_on_c, 0, 75, 45
2, 9762, Note_off_c, 0, 65, 64
2, 9766, Note_off_c, 0, 74, 64
2, 9782, Control_c, 0, 64, 0
2, 9800, Note_on_c, 0, 67, 46
2, 9807, Note_on_c, 0, 76, 50
2, 9807, Note_on_c, 0, 71, 45
2, 9810, Note_on_c, 0, 65, 43
2, 9818, Control_c, 0, 64, 127
2, 9830, Control_c, 0, 64, 0
2, 9844, Note_off_c, 0, 75, 64
2, 9855, Note_off_c, 0, 59, 64
2, 9866, Control_c, 0, 64, 127
2, 10062, Note_on_c, 0, 55, 43
2, 10191, Note_on_c, 0, 74, 45
2, 10202, Note_off_c, 0, 76, 64
2, 10206, Note_off_c, 0, 71, 64
2, 10216, Note_off_c, 0, 65, 64
2, 10288, Note_on_c, 0, 72, 46
2, 10301, Note_off_c, 0, 74, 64
2, 10308, Note_on_c, 0, 74, 43
2, 10327, Note_off_c, 0, 72, 64
2, 10336, Control_c, 0, 64, 0
2, 10345, Note_on_c, 0, 60, 46
2, 10351, Note_on_c, 0, 72, 53
2, 10354, Note_on_c, 0, 64, 42
2, 10362, Control_c, 0, 64, 127
2, 10375, Note_off_c, 0, 55, 64
2, 10379, Note_off_c, 0, 74, 64
2, 10384, Control_c, 0, 64, 0
2, 10410, Control_c, 0, 64, 127
2, 10547, Note_on_c, 0, 71, 38
2, 10554, Note_off_c, 0, 72, 64
2, 10557, Note_off_c, 0, 64, 64
2, 10578, Note_off_c, 0, 67, 64
2, 10578, Control_c, 0, 64, 0
2, 10592, Note_on_c, 0, 64, 36
2, 10597, Note_on_c, 0, 72, 50
2, 10602, Note_on_c, 0, 67, 50
2, 10608, Note_off_c, 0, 71, 64
2, 10611, Control_c, 0, 64, 127
2, 10622, Note_off_c, 0, 60, 64
2, 10626, Control_c, 0, 64, 0
2, 10659, Control_c, 0, 64, 127
2, 10867, Note_on_c, 0, 60, 43
2, 11082, Note_off_c, 0, 60, 64
2, 11118, Note_off_c, 0, 64, 64
2, 11123, Note_off_c, 0, 72, 64
2, 11128, Note_off_c, 0, 67, 64
2, 11143, Note_on_c, 0, 69, 46
2, 11152, Note_on_c, 0, 65, 46
2, 11155, Note_on_c, 0, 60, 38
2, 11162, Note_on_c, 0, 50, 38
2, 11173, Control_c, 0, 64, 0
2, 11208, Control_c, 0, 64, 127
2, 11221, Control_c, 0, 64, 0
2, 11256, Control_c, 0, 64, 127
2, 11362, Note_off_c, 0, 65, 64
2, 11369, Note_off_c, 0, 60, 64
2, 11457, Note_on_c, 0, 71, 49
2, 11460, Control_c, 0, 64, 0
2, 11467, Note_on_c, 0, 65, 45
2, 11467, Note_on_c, 0, 60, 41
2, 11472, Note_on_c, 0, 62, 38
2, 11474, Control_c, 0, 64, 127
2, 11491, Note_off_c, 0, 69, 64
2, 11508, Control_c, 0, 64, 0
2, 11522, Control_c, 0, 64, 127
2, 11639, Note_off_c, 0, 50, 64
2, 11712, Note_on_c, 0, 50, 41
2, 11865, Note_off_c, 0, 60, 64
2, 11880, Note_on_c, 0, 69, 52
2, 11883, Note_off_c, 0, 65, 64
2, 11889, Note_off_c, 0, 71, 64
2, 11920, Note_on_c, 0, 67, 46
2, 11928, Note_off_c, 0, 69, 64
2, 11952, Note_on_c, 0, 69, 45
2, 11976, Note_off_c, 0, 67, 64
2, 11987, Control_c, 0, 64, 0
2, 11991, Note_on_c, 0, 55, 50
2, 11992, Note_on_c, 0, 65, 28
2, 11994, Note_on_c, 0, 59, 31
2, 11997, Note_on_c, 0, 67, 53
2, 12004, Note_off_c, 0, 50, 64
2, 12011, Control_c, 0, 64, 127
2, 12020, Note_off_c, 0, 69, 64
2, 12035, Control_c, 0, 64, 0
2, 12059, Control_c, 0, 64, 127
2, 12172, Note_off_c, 0, 62, 64
2, 12190, Note_on_c, 0, 66, 50
2, 12199, Note_off_c, 0, 65, 64
2, 12201, Note_off_c, 0, 59, 64
2, 12204, Note_off_c, 0, 67, 64
2, 12231, Control_c, 0, 64, 0
2, 12245, Note_on_c, 0, 67, 53
2, 12248, Note_on_c, 0, 62, 47
2, 12248, Note_on_c, 0, 59, 52
2, 12253, Note_on_c, 0, 65, 43
2, 12258, Note_off_c, 0, 55, 64
2, 12262, Note_off_c, 0, 66, 64
2, 12263, Control_c, 0, 64, 127
2, 12279, Control_c, 0, 64, 0
2, 12311, Control_c, 0, 64, 127
2, 12422, Note_off_c, 0, 59, 64
2, 12526, Note_on_c, 0, 55, 38
2, 12662, Note_on_c, 0, 69, 31
2, 12694, Note_off_c, 0, 67, 64
2, 12729, Note_off_c, 0, 55, 64
2, 12732, Note_off_c, 0, 65, 64
2, 12789, Note_on_c, 0, 71, 36
2, 12789, Note_on_c, 0, 43, 52
2, 12792, Note_on_c, 0, 65, 49
2, 12793, Note_off_c, 0, 69, 64
2, 12795, Note_on_c, 0, 67, 49
2, 12798, Note_off_c, 0, 62, 64
2, 12930, Note_off_c, 0, 71, 64
2, 13012, Note_on_c, 0, 72, 49
2, 13069, Note_off_c, 0, 65, 64
2, 13072, Note_off_c, 0, 67, 64
2, 13080, Note_on_c, 0, 76, 52
2, 13085, Control_c, 0, 64, 0
2, 13086, Note_off_c, 0, 72, 64
2, 13086, Note_on_c, 0, 71, 46
2, 13090, Note_on_c, 0, 65, 45
2, 13090, Note_on_c, 0, 67, 35
2, 13111, Note_off_c, 0, 43, 64
2, 13121, Control_c, 0, 64, 127
2, 13133, Control_c, 0, 64, 0
2, 13169, Control_c, 0, 64, 127
2, 13374, Note_on_c, 0, 55, 41
2, 13447, Note_off_c, 0, 65, 64
2, 13454, Note_off_c, 0, 71, 64
2, 13539, Note_on_c, 0, 74, 38
2, 13553, Note_off_c, 0, 76, 64
2, 13691, Note_off_c, 0, 67, 64
2, 13696, Note_off_c, 0, 55, 64
2, 13708, Note_on_c, 0, 64, 39
2, 13712, Control_c, 0, 64, 0
2, 13714, Note_on_c, 0, 71, 43
2, 13718, Note_on_c, 0, 48, 43
2, 13729, Note_off_c, 0, 74, 64
2, 13735, Control_c, 0, 64, 127
2, 13760, Control_c, 0, 64, 0
2, 13783, Control_c, 0, 64, 127
2, 13927, Note_off_c, 0, 71, 64
2, 13980, Note_on_c, 0, 72, 45
2, 14023, Note_off_c, 0, 72, 64
2, 14046, Note_on_c, 0, 72, 46
2, 14111, Note_off_c, 0, 64, 64
2, 14153, Note_on_c, 0, 64, 26
2, 14153, Note_on_c, 0, 55, 35
2, 14156, Note_on_c, 0, 84, 43
2, 14160, Control_c, 0, 64, 0
2, 14208, Control_c, 0, 64, 0
2, 14211, Control_c, 0, 64, 127
2, 14219, Note_off_c, 0, 72, 64
2, 14259, Control_c, 0, 64, 127
2, 14642, Note_on_c, 0, 72, 58
2, 14672, Note_off_c, 0, 84, 64
2, 14839, Note_off_c, 0, 64, 64
2, 14844, Note_off_c, 0, 55, 64
2, 14888, Control_c, 0, 64, 0
2, 14902, Note_off_c, 0, 48, 64
2, 14928, Note_on_c, 0, 37, 46
2, 14931, Control_c, 0, 64, 127
2, 14936, Control_c, 0, 64, 0
2, 14979, Control_c, 0, 64, 127
2, 15090, Note_on_c, 0, 70, 36
2, 15099, Note_off_c, 0, 72, 64
2, 15168, Note_off_c, 0, 37, 64
2, 15211, Note_on_c, 0, 61, 24
2, 15214, Note_on_c, 0, 68, 45
2, 15214, Note_on_c, 0, 52, 30
2, 15225, Note_on_c, 0, 56, 15
2, 15237, Note_off_c, 0, 70, 64
2, 15273, Note_off_c, 0, 61, 64
2, 15276, Note_off_c, 0, 52, 64
2, 15287, Note_off_c, 0, 56, 64
2, 15456, Note_on_c, 0, 56, 12
2, 15456, Note_on_c, 0, 52, 30
2, 15461, Note_on_c, 0, 64, 42
2, 15468, Note_on_c, 0, 61, 20
2, 15488, Note_off_c, 0, 68, 64
2, 15518, Note_off_c, 0, 52, 64
2, 15518, Note_off_c, 0, 56, 64
2, 15530, Note_off_c, 0, 61, 64
2, 15697, Control_c, 0, 64, 0
2, 15708, Control_c, 0, 64, 127
2, 15710, Note_on_c, 0, 62, 43
2, 15713, Note_on_c, 0, 39, 41
2, 15737, Note_off_c, 0, 64, 64
2, 15745, Control_c, 0, 64, 0
2, 15756, Control_c, 0, 64, 127
2, 15833, Note_on_c, 0, 63, 38
2, 15854, Note_off_c, 0, 62, 64
2, 15923, Note_on_c, 0, 51, 28
2, 15925, Note_on_c, 0, 56, 36
2, 15929, Note_on_c, 0, 67, 53
2, 15932, Note_on_c, 0, 60, 19
2, 15953, Note_off_c, 0, 39, 64
2, 15960, Note_off_c, 0, 63, 64
2, 15985, Note_off_c, 0, 51, 64
2, 15987, Note_off_c, 0, 56, 64
2, 15994, Note_off_c, 0, 60, 64
2, 16140, Note_on_c, 0, 56, 19
2, 16148, Note_on_c, 0, 68, 56
2, 16151, Note_on_c, 0, 51, 36
2, 16160, Note_on_c, 0, 60, 28
2, 16181, Note_off_c, 0, 67, 64
2, 16202, Note_off_c, 0, 56, 64
2, 16213, Note_off_c, 0, 51, 64
2, 16222, Note_off_c, 0, 60, 64
2, 16366, Note_on_c, 0, 39, 49
2, 16370, Note_on_c, 0, 69, 45
2, 16401, Note_off_c, 0, 68, 64
2, 16472, Note_on_c, 0, 70, 46
2, 16495, Note_off_c, 0, 69, 64
2, 16535, Control_c, 0, 64, 0
2, 16549, Control_c, 0, 64, 127
2, 16559, Note_on_c, 0, 72, 50
2, 16560, Note_on_c, 0, 67, 20
2, 16560, Note_on_c, 0, 63, 43
2, 16563, Note_on_c, 0, 61, 30
2, 16583, Control_c, 0, 64, 0
2, 16589, Note_off_c, 0, 70, 64
2, 16597, Control_c, 0, 64, 127
2, 16606, Note_off_c, 0, 39, 64
2, 16622, Note_off_c, 0, 63, 64
2, 16622, Note_off_c, 0, 67, 64
2, 16625, Note_off_c, 0, 61, 64
2, 16772, Note_on_c, 0, 67, 23
2, 16772, Note_on_c, 0, 63, 23
2, 16773, Note_on_c, 0, 73, 47
2, 16773, Note_on_c, 0, 61, 41
2, 16799, Note_off_c, 0, 72, 64
2, 16834, Note_off_c, 0, 63, 64
2, 16834, Note_off_c, 0, 67, 64
2, 16835, Note_off_c, 0, 61, 64
2, 16974, Control_c, 0, 64, 0
2, 16989, Note_on_c, 0, 74, 50
2, 16998, Note_on_c, 0, 56, 36
2, 17010, Control_c, 0, 64, 127
2, 17022, Control_c, 0, 64, 0
2, 17023, Note_off_c, 0, 73, 64
2, 17058, Control_c, 0, 64, 127
2, 17230, Note_on_c, 0, 59, 28
2, 17232, Note_on_c, 0, 65, 24
2, 17237, Note_on_c, 0, 68, 24
2, 17421, Note_off_c, 0, 59, 64
2, 17423, Note_off_c, 0, 65, 64
2, 17428, Note_off_c, 0, 68, 64
2, 17532, Note_on_c, 0, 63, 15
2, 17532, Note_on_c, 0, 60, 17
2, 17541, Note_on_c, 0, 75, 42
2, 17542, Note_on_c, 0, 68, 15
2, 17569, Control_c, 0, 64, 0
2, 17585, Note_off_c, 0, 74, 64
2, 17591, Control_c, 0, 64, 127
2, 17617, Control_c, 0, 64, 0
2, 17639, Control_c, 0, 64, 127
2, 17723, Note_off_c, 0, 60, 64
2, 17723, Note_off_c, 0, 63, 64
2, 17733, Note_off_c, 0, 68, 64
2, 17821, Note_off_c, 0, 56, 64
2, 17852, Note_on_c, 0, 51, 43
2, 17948, Note_on_c, 0, 76, 45
2, 17971, Note_off_c, 0, 75, 64
2, 18015, Control_c, 0, 64, 0
2, 18040, Control_c, 0, 64, 127
2, 18052, Note_on_c, 0, 61, 31
2, 18053, Note_on_c, 0, 67, 38
2, 18055, Note_on_c, 0, 77, 43
2, 18059, Note_on_c, 0, 63, 36
2, 18063, Control_c, 0, 64, 0
2, 18071, Note_off_c, 0, 76, 64
2, 18088, Control_c, 0, 64, 127
2, 18092, Note_off_c, 0, 51, 64
2, 18114, Note_off_c, 0, 61, 64
2, 18115, Note_off_c, 0, 67, 64
2, 18121, Note_off_c, 0, 63, 64
2, 18276, Note_on_c, 0, 67, 43
2, 18280, Note_on_c, 0, 63, 17
2, 18282, Note_on_c, 0, 61, 21
2, 18338, Note_off_c, 0, 67, 64
2, 18342, Note_off_c, 0, 63, 64
2, 18344, Note_off_c, 0, 61, 64
2, 18372, Note_on_c, 0, 75, 43
2, 18416, Note_off_c, 0, 77, 64
2, 18480, Note_on_c, 0, 73, 39
2, 18487, Note_on_c, 0, 56, 38
2, 18544, Note_off_c, 0, 75, 64
2, 18598, Note_on_c, 0, 72, 50
2, 18600, Note_off_c, 0, 73, 64
2, 18638, Note_off_c, 0, 72, 64
2, 18670, Note_on_c, 0, 72, 46
2, 18697, Note_on_c, 0, 75, 35
2, 18703, Control_c, 0, 64, 0
2, 18724, Note_off_c, 0, 72, 64
2, 18729, Note_on_c, 0, 68, 36
2, 18731, Control_c, 0, 64, 127
2, 18732, Note_on_c, 0, 60, 36
2, 18734, Note_on_c, 0, 63, 36
2, 18742, Note_on_c, 0, 73, 46
2, 18751, Control_c, 0, 64, 0
2, 18755, Note_off_c, 0, 75, 64
2, 18779, Control_c, 0, 64, 127
2, 18791, Note_off_c, 0, 68, 64
2, 18794, Note_off_c, 0, 60, 64
2, 18796, Note_off_c, 0, 63, 64
2, 18930, Note_off_c, 0, 56, 64
2, 19053, Note_on_c, 0, 51, 35
2, 19175, Note_on_c, 0, 72, 26
2, 19222, Note_off_c, 0, 73, 64
2, 19258, Note_off_c, 0, 51, 64
2, 19312, Note_off_c, 0, 72, 64
2, 19316, Note_on_c, 0, 39, 45
2, 19328, Note_on_c, 0, 62, 30
2, 19332, Note_on_c, 0, 71, 35
2, 19432, Note_on_c, 0, 72, 41
2, 19435, Note_on_c, 0, 63, 41
2, 19440, Note_off_c, 0, 62, 64
2, 19456, Note_off_c, 0, 71, 64
2, 19514, Control_c, 0, 64, 0
2, 19529, Note_on_c, 0, 73, 50
2, 19539, Note_on_c, 0, 65, 42
2, 19540, Note_on_c, 0, 55, 24
2, 19543, Note_off_c, 0, 72, 64
2, 19546, Note_off_c, 0, 63, 64
2, 19547, Note_on_c, 0, 61, 21
2, 19547, Note_on_c, 0, 51, 24
2, 19548, Control_c, 0, 64, 127
2, 19556, Note_off_c, 0, 39, 64
2, 19562, Control_c, 0, 64, 0
2, 19596, Control_c, 0, 64, 127
2, 19602, Note_off_c, 0, 55, 64
2, 19609, Note_off_c, 0, 51, 64
2, 19609, Note_off_c, 0, 61, 64
2, 19742, Note_on_c, 0, 61, 28
2, 19748, Note_on_c, 0, 51, 27
2, 19751, Note_on_c, 0, 55, 24
2, 19804, Note_off_c, 0, 61, 64
2, 19810, Note_off_c, 0, 51, 64
2, 19813, Note_off_c, 0, 55, 64
2, 19824, Note_on_c, 0, 72, 38
2, 19824, Note_on_c, 0, 63, 38
2, 19852, Note_off_c, 0, 73, 64
2, 19862, Note_off_c, 0, 65, 64
2, 19944, Note_on_c, 0, 70, 36
2, 19944, Note_on_c, 0, 61, 45
2, 19952, Note_on_c, 0, 44, 38
2, 19970, Note_off_c, 0, 63, 64
2, 19970, Note_off_c, 0, 72, 64
2, 20056, Note_on_c, 0, 68, 41
2, 20056, Note_on_c, 0, 60, 46
2, 20088, Note_off_c, 0, 61, 64
2, 20088, Note_off_c, 0, 70, 64
2, 20147, Note_on_c, 0, 72, 45
2, 20157, Note_off_c, 0, 60, 64
2, 20157, Note_off_c, 0, 68, 64
2, 20178, Control_c, 0, 64, 0
2, 20187, Note_on_c, 0, 61, 46
2, 20189, Note_on_c, 0, 70, 46
2, 20196, Note_on_c, 0, 51, 28
2, 20203, Note_off_c, 0, 72, 64
2, 20206, Note_on_c, 0, 56, 17
2, 20213, Note_off_c, 0, 44, 64
2, 20223, Control_c, 0, 64, 127
2, 20226, Control_c, 0, 64, 0
2, 20268, Note_off_c, 0, 56, 64
2, 20271, Control_c, 0, 64, 127
2, 20274, Note_off_c, 0, 51, 64
2, 20460, Note_on_c, 0, 60, 38
2, 20467, Note_on_c, 0, 68, 38
2, 20468, Note_on_c, 0, 51, 28
2, 20472, Note_on_c, 0, 56, 17
2, 20481, Note_off_c, 0, 61, 64
2, 20483, Note_off_c, 0, 70, 64
2, 20530, Note_off_c, 0, 51, 64
2, 20534, Note_off_c, 0, 56, 64
2, 20634, Control_c, 0, 64, 0
2, 20682, Control_c, 0, 64, 0
2, 20730, Note_on_c, 0, 63, 36
2, 20733, Note_on_c, 0, 72, 38
2, 20733, Note_on_c, 0, 39, 38
2, 20745, Note_off_c, 0, 60, 64
2, 20752, Note_off_c, 0, 68, 64
2, 20832, Note_on_c, 0, 73, 46
2, 20832, Note_on_c, 0, 65, 38
2, 20845, Note_off_c, 0, 63, 64
2, 20848, Note_off_c, 0, 72, 64
2, 20915, Note_off_c, 0, 65, 64
2, 20920, Note_on_c, 0, 61, 41
2, 20928, Note_on_c, 0, 65, 46
2, 20928, Note_on_c, 0, 58, 41
2, 20936, Control_c, 0, 64, 0
2, 20936, Note_on_c, 0, 51, 38
2, 20962, Control_c, 0, 64, 127
2, 20973, Note_off_c, 0, 39, 64
2, 20983, Note_off_c, 0, 73, 64
2, 20984, Control_c, 0, 64, 0
2, 20990, Note_off_c, 0, 58, 64
2, 20998, Note_off_c, 0, 51, 64
2, 21010, Control_c, 0, 64, 127
2, 21123, Note_off_c, 0, 61, 64
2, 21131, Note_off_c, 0, 65, 64
2, 21175, Note_on_c, 0, 67, 46
2, 21178, Note_on_c, 0, 58, 47
2, 21181, Note_on_c, 0, 51, 38
2, 21355, Control_c, 0, 64, 0
2, 21369, Control_c, 0, 64, 127
2, 21374, Note_off_c, 0, 51, 64
2, 21378, Note_off_c, 0, 67, 64
2, 21381, Note_off_c, 0, 58, 64
2, 21381, Note_on_c, 0, 44, 43
2, 21388, Note_on_c, 0, 59, 46
2, 21390, Note_on_c, 0, 62, 45
2, 21403, Control_c, 0, 64, 0
2, 21417, Control_c, 0, 64, 127
2, 21472, Note_on_c, 0, 60, 50
2, 21475, Note_on_c, 0, 63, 50
2, 21476, Note_off_c, 0, 59, 64
2, 21478, Note_off_c, 0, 62, 64
2, 21535, Control_c, 0, 64, 0
2, 21552, Control_c, 0, 64, 127
2, 21577, Note_on_c, 0, 67, 50
2, 21577, Note_on_c, 0, 51, 49
2, 21581, Note_on_c, 0, 61, 46
2, 21581, Note_on_c, 0, 58, 43
2, 21583, Control_c, 0, 64, 0
2, 21591, Note_off_c, 0, 63, 64
2, 21593, Note_off_c, 0, 60, 64
2, 21600, Control_c, 0, 64, 127
2, 21621, Note_off_c, 0, 44, 64
2, 21639, Note_off_c, 0, 51, 64
2, 21643, Note_off_c, 0, 58, 64
2, 21783, Note_on_c, 0, 68, 49
2, 21783, Note_on_c, 0, 60, 45
2, 21784, Note_on_c, 0, 56, 36
2, 21790, Note_off_c, 0, 67, 64
2, 21790, Note_on_c, 0, 51, 43
2, 21794, Note_off_c, 0, 61, 64
2, 21846, Note_off_c, 0, 56, 64
2, 21852, Note_off_c, 0, 51, 64
2, 21935, Control_c, 0, 64, 0
2, 21949, Control_c, 0, 64, 127
2, 21976, Note_on_c, 0, 66, 43
2, 21980, Note_on_c, 0, 39, 53
2, 21983, Note_on_c, 0, 69, 50
2, 21983, Control_c, 0, 64, 0
2, 21996, Note_off_c, 0, 60, 64
2, 21996, Note_off_c, 0, 68, 64
2, 21997, Control_c, 0, 64, 127
2, 22077, Note_on_c, 0, 67, 53
2, 22078, Note_on_c, 0, 70, 46
2, 22085, Note_off_c, 0, 66, 64
2, 22091, Note_off_c, 0, 69, 64
2, 22156, Note_off_c, 0, 67, 64
2, 22164, Note_on_c, 0, 72, 52
2, 22168, Note_on_c, 0, 68, 42
2, 22168, Note_on_c, 0, 67, 35
2, 22175, Note_off_c, 0, 70, 64
2, 22176, Note_on_c, 0, 63, 41
2, 22176, Note_on_c, 0, 61, 31
2, 22220, Note_off_c, 0, 39, 64
2, 22230, Note_off_c, 0, 67, 64
2, 22238, Note_off_c, 0, 61, 64
2, 22238, Note_off_c, 0, 63, 64
2, 22363, Note_on_c, 0, 73, 52
2, 22367, Note_on_c, 0, 70, 46
2, 22368, Note_on_c, 0, 63, 41
2, 22368, Note_on_c, 0, 61, 38
2, 22375, Note_on_c, 0, 67, 26
2, 22381, Note_off_c, 0, 72, 64
2, 22385, Note_off_c, 0, 68, 64
2, 22430, Note_off_c, 0, 61, 64
2, 22430, Note_off_c, 0, 63, 64
2, 22437, Note_off_c, 0, 67, 64
2, 22557, Control_c, 0, 64, 0
2, 22582, Note_on_c, 0, 74, 52
2, 22584, Note_on_c, 0, 71, 52
2, 22586, Note_off_c, 0, 73, 64
2, 22588, Note_on_c, 0, 56, 32
2, 22590, Note_off_c, 0, 70, 64
2, 22602, Control_c, 0, 64, 127
2, 22605, Control_c, 0, 64, 0
2, 22650, Control_c, 0, 64, 127
2, 22828, Note_on_c, 0, 65, 30
2, 22831, Note_on_c, 0, 59, 35
2, 22834, Note_on_c, 0, 68, 26
2, 22969, Note_off_c, 0, 71, 64
2, 23019, Note_off_c, 0, 65, 64
2, 23022, Note_off_c, 0, 59, 64
2, 23025, Note_off_c, 0, 68, 64
2, 23134, Note_on_c, 0, 72, 36
2, 23135, Control_c, 0, 64, 0
2, 23135, Note_on_c, 0, 75, 41
2, 23136, Note_on_c, 0, 63, 12
2, 23138, Note_off_c, 0, 74, 64
2, 23138, Note_on_c, 0, 60, 21
2, 23144, Note_on_c, 0, 68, 15
2, 23156, Control_c, 0, 64, 127
2, 23183, Control_c, 0, 64, 0
2, 23204, Control_c, 0, 64, 127
2, 23327, Note_off_c, 0, 63, 64
2, 23327, Note_off_c, 0, 75, 64
2, 23329, Note_off_c, 0, 60, 64
2, 23331, Note_off_c, 0, 72, 64
2, 23335, Note_off_c, 0, 68, 64
2, 23366, Note_off_c, 0, 56, 64
2, 23412, Note_on_c, 0, 51, 49
2, 23417, Note_on_c, 0, 72, 45
2, 23422, Note_on_c, 0, 75, 46
2, 23522, Note_on_c, 0, 76, 49
2, 23531, Note_off_c, 0, 75, 64
2, 23581, Note_on_c, 0, 79, 53
2, 23599, Note_off_c, 0, 76, 64
2, 23617, Control_c, 0, 64, 0
2, 23627, Note_on_c, 0, 77, 52
2, 23633, Note_on_c, 0, 73, 54
2, 23636, Note_on_c, 0, 63, 34
2, 23636, Note_on_c, 0, 61, 31
2, 23637, Note_off_c, 0, 72, 64
2, 23638, Note_on_c, 0, 67, 26
2, 23641, Control_c, 0, 64, 127
2, 23642, Note_off_c, 0, 79, 64
2, 23652, Note_off_c, 0, 51, 64
2, 23665, Control_c, 0, 64, 0
2, 23689, Control_c, 0, 64, 127
2, 23698, Note_off_c, 0, 61, 64
2, 23698, Note_off_c, 0, 63, 64
2, 23700, Note_off_c, 0, 67, 64
2, 23855, Note_on_c, 0, 67, 38
2, 23856, Note_on_c, 0, 63, 16
2, 23856, Note_on_c, 0, 61, 36
2, 23917, Note_off_c, 0, 67, 64
2, 23918, Note_off_c, 0, 61, 64
2, 23918, Note_off_c, 0, 63, 64
2, 23944, Note_on_c, 0, 75, 49
2, 23944, Note_on_c, 0, 72, 31
2, 23957, Note_off_c, 0, 77, 64
2, 23963, Note_off_c, 0, 73, 64
2, 24057, Note_on_c, 0, 56, 36
2, 24064, Note_on_c, 0, 73, 56
2, 24065, Note_on_c, 0, 70, 60
2, 24077, Note_off_c, 0, 72, 64
2, 24077, Note_off_c, 0, 75, 64
2, 24152, Note_on_c, 0, 72, 47
2, 24160, Note_on_c, 0, 68, 43
2, 24165, Note_off_c, 0, 73, 64
2, 24166, Note_off_c, 0, 70, 64
2, 24238, Control_c, 0, 64, 0
2, 24242, Note_on_c, 0, 75, 46
2, 24255, Note_off_c, 0, 68, 64
2, 24261, Note_off_c, 0, 72, 64
2, 24262, Note_on_c, 0, 63, 31
2, 24270, Note_on_c, 0, 60, 38
2, 24274, Control_c, 0, 64, 127
2, 24276, Note_on_c, 0, 70, 53
2, 24277, Note_on_c, 0, 73, 49
2, 24286, Control_c, 0, 64, 0
2, 24293, Note_off_c, 0, 75, 64
2, 24322, Control_c, 0, 64, 127
2, 24483, Note_on_c, 0, 51, 38
2, 24489, Note_on_c, 0, 68, 45
2, 24490, Note_on_c, 0, 72, 50
2, 24491, Note_off_c, 0, 70, 64
2, 24492, Note_off_c, 0, 73, 64
2, 24503, Note_off_c, 0, 63, 64
2, 24511, Note_off_c, 0, 60, 64
2, 24513, Note_off_c, 0, 56, 64
2, 24706, Note_on_c, 0, 62, 38
2, 24708, Note_on_c, 0, 39, 42
2, 24712, Note_off_c, 0, 68, 64
2, 24713, Note_off_c, 0, 72, 64
2, 24713, Note_on_c, 0, 71, 38
2, 24759, Note_off_c, 0, 51, 64
2, 24800, Note_on_c, 0, 72, 41
2, 24800, Note_on_c, 0, 63, 42
2, 24809, Note_off_c, 0, 62, 64
2, 24816, Note_off_c, 0, 71, 64
2, 24886, Control_c, 0, 64, 0
2, 24903, Control_c, 0, 64, 127
2, 24911, Note_on_c, 0, 65, 43
2, 24912, Note_on_c, 0, 51, 31
2, 24912, Note_on_c, 0, 61, 36
2, 24912, Note_on_c, 0, 73, 49
2, 24916, Note_off_c, 0, 63, 64
2, 24916, Note_off_c, 0, 72, 64
2, 24918, Note_on_c, 0, 55, 30
2, 24934, Control_c, 0, 64, 0
2, 24948, Note_off_c, 0, 39, 64
2, 24951, Control_c, 0, 64, 127
2, 24974, Note_off_c, 0, 61, 64
2, 24974, Note_off_c, 0, 51, 64
2, 24980, Note_off_c, 0, 55, 64
2, 25131, Note_on_c, 0, 61, 35
2, 25136, Note_on_c, 0, 55, 31
2, 25136, Note_on_c, 0, 51, 9
2, 25193, Note_off_c, 0, 61, 64
2, 25198, Note_off_c, 0, 51, 64
2, 25198, Note_off_c, 0, 55, 64
2, 25223, Note_on_c, 0, 63, 43
2, 25224, Note_on_c, 0, 72, 36
2, 25231, Note_off_c, 0, 65, 64
2, 25232, Note_off_c, 0, 73, 64
2, 25327, Note_on_c, 0, 70, 34
2, 25328, Note_on_c, 0, 61, 45
2, 25331, Note_off_c, 0, 63, 64
2, 25332, Note_off_c, 0, 72, 64
2, 25345, Note_on_c, 0, 44, 31
2, 25464, Note_on_c, 0, 68, 30
2, 25464, Note_on_c, 0, 60, 34
2, 25482, Note_off_c, 0, 70, 64
2, 25483, Note_off_c, 0, 61, 64
2, 25529, Note_off_c, 0, 60, 64
2, 25529, Note_off_c, 0, 68, 64
2, 25552, Note_on_c, 0, 68, 38
2, 25552, Note_on_c, 0, 60, 35
2, 25587, Note_on_c, 0, 72, 41
2, 25611, Control_c, 0, 64, 0
2, 25616, Note_off_c, 0, 60, 64
2, 25616, Note_off_c, 0, 68, 64
2, 25622, Note_on_c, 0, 70, 39
2, 25625, Note_on_c, 0, 61, 49
2, 25635, Note_on_c, 0, 56, 30
2, 25639, Note_off_c, 0, 72, 64
2, 25639, Note_on_c, 0, 51, 23
2, 25652, Control_c, 0, 64, 127
2, 25659, Control_c, 0, 64, 0
2, 25681, Note_off_c, 0, 44, 64
2, 25691, Note_off_c, 0, 56, 64
2, 25698, Note_off_c, 0, 51, 64
2, 25700, Control_c, 0, 64, 127
2, 25904, Note_on_c, 0, 51, 19
2, 25908, Note_on_c, 0, 56, 26
2, 26024, Note_on_c, 0, 68, 31
2, 26031, Note_on_c, 0, 60, 31
2, 26039, Note_off_c, 0, 70, 64
2, 26042, Note_off_c, 0, 61, 64
2, 26057, Note_off_c, 0, 51, 64
2, 26061, Note_off_c, 0, 56, 64
2, 26107, Note_off_c, 0, 68, 64
2, 26114, Note_off_c, 0, 60, 64
2, 26135, Note_on_c, 0, 59, 43
2, 26176, Note_on_c, 0, 65, 43
2, 26210, Control_c, 0, 64, 0
2, 26215, Note_on_c, 0, 71, 36
2, 26236, Note_on_c, 0, 43, 52
2, 26242, Control_c, 0, 64, 127
2, 26244, Note_on_c, 0, 74, 53
2, 26258, Control_c, 0, 64, 0
2, 26290, Note_off_c, 0, 59, 64
2, 26290, Control_c, 0, 64, 127
2, 26349, Note_off_c, 0, 65, 64
2, 26355, Note_off_c, 0, 71, 64
2, 26588, Control_c, 0, 64, 0
2, 26591, Note_on_c, 0, 76, 52
2, 26592, Note_on_c, 0, 71, 41
2, 26592, Note_on_c, 0, 67, 52
2, 26601, Note_on_c, 0, 65, 35
2, 26612, Control_c, 0, 64, 127
2, 26614, Note_off_c, 0, 74, 64
2, 26636, Control_c, 0, 64, 0
2, 26660, Control_c, 0, 64, 127
2, 26671, Note_off_c, 0, 43, 64
2, 26866, Note_on_c, 0, 55, 38
2, 26983, Note_on_c, 0, 74, 45
2, 26988, Note_off_c, 0, 76, 64
2, 27043, Note_off_c, 0, 71, 64
2, 27052, Note_off_c, 0, 65, 64
2, 27070, Note_off_c, 0, 74, 64
2, 27098, Note_on_c, 0, 74, 45
2, 27117, Note_on_c, 0, 64, 35
2, 27120, Control_c, 0, 64, 0
2, 27128, Note_on_c, 0, 60, 43
2, 27134, Note_on_c, 0, 72, 52
2, 27152, Control_c, 0, 64, 127
2, 27156, Note_off_c, 0, 74, 64
2, 27158, Note_off_c, 0, 55, 64
2, 27168, Control_c, 0, 64, 0
2, 27200, Control_c, 0, 64, 127
2, 27298, Note_off_c, 0, 64, 64
2, 27302, Note_on_c, 0, 71, 21
2, 27315, Note_off_c, 0, 72, 64
2, 27315, Note_off_c, 0, 67, 64
2, 27326, Control_c, 0, 64, 0
2, 27337, Note_on_c, 0, 64, 36
2, 27350, Note_on_c, 0, 72, 52
2, 27353, Note_on_c, 0, 67, 49
2, 27358, Control_c, 0, 64, 127
2, 27372, Note_off_c, 0, 71, 64
2, 27374, Control_c, 0, 64, 0
2, 27406, Control_c, 0, 64, 127
2, 27572, Note_on_c, 0, 55, 35
2, 27599, Note_off_c, 0, 60, 64
2, 27674, Note_on_c, 0, 73, 53
2, 27697, Note_off_c, 0, 64, 64
2, 27716, Note_off_c, 0, 72, 64
2, 27768, Control_c, 0, 64, 0
2, 27785, Note_on_c, 0, 74, 43
2, 27788, Note_on_c, 0, 59, 38
2, 27792, Control_c, 0, 64, 127
2, 27793, Note_off_c, 0, 73, 64
2, 27793, Note_on_c, 0, 65, 36
2, 27814, Note_off_c, 0, 55, 64
2, 27816, Control_c, 0, 64, 0
2, 27840, Control_c, 0, 64, 127
2, 27890, Note_off_c, 0, 65, 64
2, 27928, Note_off_c, 0, 67, 64
2, 27948, Note_on_c, 0, 75, 43
2, 27958, Note_off_c, 0, 74, 64
2, 27995, Control_c, 0, 64, 0
2, 28009, Note_on_c, 0, 71, 46
2, 28012, Note_on_c, 0, 76, 50
2, 28012, Note_on_c, 0, 67, 47
2, 28018, Control_c, 0, 64, 127
2, 28018, Note_on_c, 0, 65, 50
2, 28022, Note_off_c, 0, 75, 64
2, 28043, Control_c, 0, 64, 0
2, 28052, Note_off_c, 0, 59, 64
2, 28066, Control_c, 0, 64, 127
2, 28270, Note_on_c, 0, 55, 36
2, 28388, Note_on_c, 0, 74, 43
2, 28418, Note_off_c, 0, 71, 64
2, 28425, Note_off_c, 0, 76, 64
2, 28427, Note_off_c, 0, 65, 64
2, 28473, Note_off_c, 0, 74, 64
2, 28515, Note_on_c, 0, 74, 35
2, 28524, Control_c, 0, 64, 0
2, 28539, Note_off_c, 0, 55, 64
2, 28541, Note_on_c, 0, 64, 28
2, 28542, Note_on_c, 0, 60, 43
2, 28547, Note_on_c, 0, 72, 43
2, 28560, Control_c, 0, 64, 127
2, 28572, Control_c, 0, 64, 0
2, 28580, Note_off_c, 0, 74, 64
2, 28608, Control_c, 0, 64, 127
2, 28691, Note_off_c, 0, 67, 64
2, 28708, Note_off_c, 0, 64, 64
2, 28722, Note_off_c, 0, 72, 64
2, 28732, Note_on_c, 0, 71, 31
2, 28758, Control_c, 0, 64, 0
2, 28764, Note_on_c, 0, 64, 36
2, 28776, Note_on_c, 0, 72, 46
2, 28778, Note_on_c, 0, 67, 39
2, 28783, Note_off_c, 0, 71, 64
2, 28789, Control_c, 0, 64, 127
2, 28806, Control_c, 0, 64, 0
2, 28837, Control_c, 0, 64, 127
2, 28997, Note_off_c, 0, 60, 64
2, 29032, Note_on_c, 0, 60, 36
2, 29213, Note_off_c, 0, 64, 64
2, 29219, Note_off_c, 0, 60, 64
2, 29225, Note_off_c, 0, 72, 64
2, 29227, Note_off_c, 0, 67, 64
2, 29298, Note_on_c, 0, 71, 30
2, 29300, Note_on_c, 0, 68, 23
2, 29303, Note_on_c, 0, 62, 24
2, 29307, Note_on_c, 0, 52, 26
2, 29309, Control_c, 0, 64, 0
2, 29334, Control_c, 0, 64, 127
2, 29357, Control_c, 0, 64, 0
2, 29382, Control_c, 0, 64, 127
2, 29530, Note_off_c, 0, 68, 64
2, 29533, Note_off_c, 0, 62, 64
2, 29594, Control_c, 0, 64, 0
2, 29606, Note_on_c, 0, 72, 38
2, 29609, Note_on_c, 0, 68, 35
2, 29609, Note_on_c, 0, 64, 38
2, 29610, Control_c, 0, 64, 127
2, 29614, Note_on_c, 0, 62, 31
2, 29617, Note_off_c, 0, 71, 64
2, 29642, Note_off_c, 0, 52, 64
2, 29642, Control_c, 0, 64, 0
2, 29658, Control_c, 0, 64, 127
2, 29840, Note_on_c, 0, 52, 30
2, 29969, Note_on_c, 0, 71, 38
2, 29984, Note_off_c, 0, 72, 64
2, 29987, Note_off_c, 0, 68, 64
2, 29992, Note_off_c, 0, 62, 64
2, 30031, Note_off_c, 0, 71, 64
2, 30083, Note_on_c, 0, 71, 35
2, 30103, Control_c, 0, 64, 0
2, 30108, Note_on_c, 0, 67, 38
2, 30118, Note_on_c, 0, 61, 36
2, 30120, Note_off_c, 0, 52, 64
2, 30120, Note_on_c, 0, 57, 31
2, 30122, Note_on_c, 0, 69, 36
2, 30136, Control_c, 0, 64, 127
2, 30151, Control_c, 0, 64, 0
2, 30167, Note_off_c, 0, 71, 64
2, 30184, Control_c, 0, 64, 127
2, 30302, Note_off_c, 0, 64, 64
2, 30306, Note_off_c, 0, 67, 64
2, 30311, Note_on_c, 0, 68, 32
2, 30316, Note_off_c, 0, 61, 64
2, 30320, Note_off_c, 0, 69, 64
2, 30348, Control_c, 0, 64, 0
2, 30354, Note_on_c, 0, 61, 42
2, 30358, Note_on_c, 0, 69, 38
2, 30358, Note_on_c, 0, 67, 38
2, 30361, Control_c, 0, 64, 127
2, 30364, Note_on_c, 0, 64, 38
2, 30371, Note_off_c, 0, 68, 64
2, 30396, Control_c, 0, 64, 0
2, 30409, Control_c, 0, 64, 127
2, 30501, Note_off_c, 0, 67, 64
2, 30514, Note_off_c, 0, 61, 64
2, 30591, Note_off_c, 0, 57, 64
2, 30601, Note_on_c, 0, 57, 38
2, 30728, Note_on_c, 0, 71, 36
2, 30766, Note_off_c, 0, 69, 64
2, 30789, Note_off_c, 0, 64, 64
2, 30792, Control_c, 0, 64, 0
2, 30817, Control_c, 0, 64, 127
2, 30828, Note_on_c, 0, 66, 41
2, 30832, Note_on_c, 0, 72, 43
2, 30840, Control_c, 0, 64, 0
2, 30843, Note_on_c, 0, 50, 39
2, 30853, Note_off_c, 0, 71, 64
2, 30865, Control_c, 0, 64, 127
2, 30885, Note_off_c, 0, 57, 64
2, 31038, Note_on_c, 0, 73, 30
2, 31055, Note_off_c, 0, 72, 64
2, 31070, Note_off_c, 0, 66, 64
2, 31090, Note_on_c, 0, 76, 45
2, 31095, Control_c, 0, 64, 0
2, 31097, Note_on_c, 0, 72, 45
2, 31100, Note_on_c, 0, 66, 41
2, 31104, Note_on_c, 0, 69, 46
2, 31121, Control_c, 0, 64, 127
2, 31131, Note_off_c, 0, 73, 64
2, 31143, Control_c, 0, 64, 0
2, 31160, Note_off_c, 0, 50, 64
2, 31169, Control_c, 0, 64, 127
2, 31314, Note_off_c, 0, 66, 64
2, 31330, Note_on_c, 0, 62, 31
2, 31462, Note_off_c, 0, 76, 64
2, 31467, Note_on_c, 0, 74, 42
2, 31469, Note_off_c, 0, 72, 64
2, 31513, Note_on_c, 0, 76, 50
2, 31520, Note_off_c, 0, 74, 64
2, 31550, Note_on_c, 0, 74, 46
2, 31568, Note_off_c, 0, 76, 64
2, 31569, Note_off_c, 0, 69, 64
2, 31582, Control_c, 0, 64, 0
2, 31595, Note_on_c, 0, 73, 58
2, 31598, Note_on_c, 0, 65, 31
2, 31605, Note_on_c, 0, 71, 41
2, 31605, Note_on_c, 0, 55, 38
2, 31609, Control_c, 0, 64, 127
2, 31626, Note_off_c, 0, 74, 64
2, 31626, Note_off_c, 0, 62, 64
2, 31630, Control_c, 0, 64, 0
2, 31657, Control_c, 0, 64, 127
2, 31821, Note_off_c, 0, 65, 64
2, 31825, Note_off_c, 0, 73, 64
2, 31828, Note_on_c, 0, 74, 46
2, 31840, Note_off_c, 0, 71, 64
2, 31892, Note_on_c, 0, 71, 50
2, 31897, Note_on_c, 0, 79, 58
2, 31900, Note_on_c, 0, 67, 43
2, 31900, Note_on_c, 0, 65, 45
2, 31915, Note_off_c, 0, 74, 64
2, 31936, Note_off_c, 0, 55, 64
2, 32175, Control_c, 0, 64, 0
2, 32204, Note_on_c, 0, 55, 52
2, 32205, Control_c, 0, 64, 127
2, 32223, Control_c, 0, 64, 0
2, 32253, Control_c, 0, 64, 127
2, 32423, Note_off_c, 0, 79, 64
2, 32478, Note_off_c, 0, 67, 64
2, 32480, Note_off_c, 0, 71, 64
2, 32496, Note_off_c, 0, 65, 64
2, 32568, Control_c, 0, 64, 0
2, 32573, Note_on_c, 0, 74, 52
2, 32580, Note_on_c, 0, 71, 50
2, 32580, Note_on_c, 0, 65, 45
2, 32580, Note_on_c, 0, 43, 49
2, 32601, Control_c, 0, 64, 127
2, 32616, Control_c, 0, 64, 0
2, 32638, Note_off_c, 0, 55, 64
2, 32649, Control_c, 0, 64, 127
2, 32874, Note_off_c, 0, 71, 64
2, 32877, Note_off_c, 0, 65, 64
2, 32897, Note_on_c, 0, 76, 52
2, 32904, Note_on_c, 0, 71, 43
2, 32905, Note_on_c, 0, 67, 53
2, 32905, Note_on_c, 0, 65, 46
2, 32934, Note_off_c, 0, 74, 64
2, 32942, Note_off_c, 0, 43, 64
2, 33134, Note_on_c, 0, 55, 43
2, 33243, Note_on_c, 0, 74, 50
2, 33249, Note_off_c, 0, 71, 64
2, 33263, Note_off_c, 0, 76, 64
2, 33276, Note_off_c, 0, 65, 64
2, 33299, Note_off_c, 0, 74, 64
2, 33343, Note_on_c, 0, 72, 43
2, 33359, Note_on_c, 0, 74, 53
2, 33372, Note_on_c, 0, 64, 50
2, 33376, Control_c, 0, 64, 0
2, 33381, Note_off_c, 0, 72, 64
2, 33394, Note_on_c, 0, 60, 50
2, 33404, Note_on_c, 0, 72, 50
2, 33411, Note_off_c, 0, 55, 64
2, 33416, Control_c, 0, 64, 127
2, 33424, Control_c, 0, 64, 0
2, 33437, Note_off_c, 0, 74, 64
2, 33464, Control_c, 0, 64, 127
2, 33575, Note_on_c, 0, 71, 43
2, 33592, Note_off_c, 0, 67, 64
2, 33596, Note_off_c, 0, 72, 64
2, 33599, Note_off_c, 0, 64, 64
2, 33602, Control_c, 0, 64, 0
2, 33614, Note_on_c, 0, 64, 47
2, 33615, Note_on_c, 0, 72, 52
2, 33623, Note_on_c, 0, 67, 52
2, 33626, Control_c, 0, 64, 127
2, 33630, Note_off_c, 0, 60, 64
2, 33630, Note_off_c, 0, 71, 64
2, 33650, Control_c, 0, 64, 0
2, 33674, Control_c, 0, 64, 127
2, 33854, Note_on_c, 0, 55, 41
2, 33955, Note_on_c, 0, 73, 56
2, 33983, Note_off_c, 0, 64, 64
2, 33995, Note_off_c, 0, 72, 64
2, 34060, Control_c, 0, 64, 0
2, 34073, Control_c, 0, 64, 127
2, 34076, Note_on_c, 0, 74, 52
2, 34082, Note_off_c, 0, 73, 64
2, 34082, Note_on_c, 0, 71, 38
2, 34083, Note_on_c, 0, 59, 45
2, 34085, Note_on_c, 0, 65, 42
2, 34096, Note_off_c, 0, 55, 64
2, 34108, Control_c, 0, 64, 0
2, 34121, Control_c, 0, 64, 127
2, 34231, Note_off_c, 0, 67, 64
2, 34247, Note_off_c, 0, 71, 64
2, 34250, Note_off_c, 0, 65, 64
2, 34252, Note_on_c, 0, 75, 49
2, 34295, Control_c, 0, 64, 0
2, 34299, Note_off_c, 0, 74, 64
2, 34309, Note_on_c, 0, 71, 46
2, 34314, Note_on_c, 0, 76, 54
2, 34314, Note_on_c, 0, 67, 50
2, 34318, Control_c, 0, 64, 127
2, 34319, Note_on_c, 0, 65, 46
2, 34324, Note_off_c, 0, 59, 64
2, 34326, Note_off_c, 0, 75, 64
2, 34343, Control_c, 0, 64, 0
2, 34366, Control_c, 0, 64, 127
2, 34544, Note_on_c, 0, 55, 41
2, 34633, Note_on_c, 0, 74, 38
2, 34636, Note_off_c, 0, 71, 64
2, 34641, Note_off_c, 0, 76, 64
2, 34646, Note_off_c, 0, 65, 64
2, 34691, Note_off_c, 0, 74, 64
2, 34713, Note_off_c, 0, 55, 64
2, 34736, Note_on_c, 0, 72, 43
2, 34762, Note_on_c, 0, 74, 52
2, 34764, Control_c, 0, 64, 0
2, 34776, Note_off_c, 0, 72, 64
2, 34788, Note_on_c, 0, 60, 50
2, 34791, Control_c, 0, 64, 127
2, 34795, Note_on_c, 0, 64, 52
2, 34796, Note_on_c, 0, 72, 50
2, 34812, Control_c, 0, 64, 0
2, 34825, Note_off_c, 0, 74, 64
2, 34839, Control_c, 0, 64, 127
2, 34916, Note_off_c, 0, 64, 64
2, 34957, Note_off_c, 0, 72, 64
2, 34969, Note_off_c, 0, 67, 64
2, 34975, Note_on_c, 0, 71, 36
2, 35003, Control_c, 0, 64, 0
2, 35016, Control_c, 0, 64, 127
2, 35019, Note_on_c, 0, 64, 45
2, 35021, Note_on_c, 0, 72, 54
2, 35031, Note_off_c, 0, 60, 64
2, 35031, Note_on_c, 0, 67, 50
2, 35038, Note_off_c, 0, 71, 64
2, 35051, Control_c, 0, 64, 0
2, 35064, Control_c, 0, 64, 127
2, 35292, Note_on_c, 0, 60, 49
2, 35501, Note_off_c, 0, 60, 64
2, 35533, Note_off_c, 0, 64, 64
2, 35535, Note_off_c, 0, 72, 64
2, 35545, Note_off_c, 0, 67, 64
2, 35594, Note_on_c, 0, 50, 39
2, 35603, Note_on_c, 0, 69, 52
2, 35605, Note_on_c, 0, 65, 52
2, 35605, Note_on_c, 0, 60, 50
2, 35616, Control_c, 0, 64, 0
2, 35640, Control_c, 0, 64, 127
2, 35664, Control_c, 0, 64, 0
2, 35688, Control_c, 0, 64, 127
2, 35844, Note_off_c, 0, 65, 64
2, 35859, Note_off_c, 0, 60, 64
2, 35953, Note_on_c, 0, 71, 49
2, 35960, Note_on_c, 0, 65, 46
2, 35963, Note_on_c, 0, 62, 43
2, 35963, Note_on_c, 0, 60, 43
2, 35980, Note_off_c, 0, 69, 64
2, 35997, Note_off_c, 0, 50, 64
2, 36200, Note_on_c, 0, 50, 43
2, 36360, Note_on_c, 0, 69, 41
2, 36368, Note_off_c, 0, 71, 64
2, 36375, Note_off_c, 0, 65, 64
2, 36397, Note_on_c, 0, 67, 38
2, 36403, Note_off_c, 0, 60, 64
2, 36413, Note_off_c, 0, 69, 64
2, 36432, Note_on_c, 0, 69, 39
2, 36439, Control_c, 0, 64, 0
2, 36451, Note_off_c, 0, 67, 64
2, 36456, Note_on_c, 0, 65, 36
2, 36460, Control_c, 0, 64, 127
2, 36461, Note_on_c, 0, 55, 31
2, 36467, Note_on_c, 0, 67, 58
2, 36467, Note_on_c, 0, 59, 24
2, 36487, Control_c, 0, 64, 0
2, 36508, Note_off_c, 0, 69, 64
2, 36508, Control_c, 0, 64, 127
2, 36519, Note_off_c, 0, 50, 64
2, 36626, Note_off_c, 0, 62, 64
2, 36642, Note_on_c, 0, 66, 45
2, 36643, Note_off_c, 0, 65, 64
2, 36654, Note_off_c, 0, 59, 64
2, 36654, Note_off_c, 0, 67, 64
2, 36681, Control_c, 0, 64, 0
2, 36691, Note_on_c, 0, 65, 43
2, 36699, Note_on_c, 0, 59, 38
2, 36700, Note_on_c, 0, 67, 47
2, 36707, Note_on_c, 0, 62, 41
2, 36717, Control_c, 0, 64, 127
2, 36719, Note_off_c, 0, 66, 64
2, 36729, Control_c, 0, 64, 0
2, 36765, Control_c, 0, 64, 127
2, 36911, Note_off_c, 0, 55, 64
2, 36950, Note_on_c, 0, 55, 31
2, 37058, Note_off_c, 0, 59, 64
2, 37066, Note_on_c, 0, 69, 43
2, 37090, Note_off_c, 0, 65, 64
2, 37092, Note_off_c, 0, 67, 64
2, 37184, Note_on_c, 0, 43, 50
2, 37188, Note_on_c, 0, 67, 45
2, 37189, Note_on_c, 0, 65, 45
2, 37189, Note_on_c, 0, 71, 45
2, 37191, Note_off_c, 0, 62, 64
2, 37220, Note_off_c, 0, 69, 64
2, 37236, Note_off_c, 0, 55, 64
2, 37298, Note_off_c, 0, 71, 64
2, 37378, Note_on_c, 0, 72, 46
2, 37410, Note_off_c, 0, 72, 64
2, 37441, Note_off_c, 0, 67, 64
2, 37442, Note_off_c, 0, 65, 64
2, 37457, Note_on_c, 0, 71, 50
2, 37463, Note_on_c, 0, 65, 50
2, 37468, Note_on_c, 0, 67, 50
2, 37469, Note_on_c, 0, 76, 52
2, 37476, Control_c, 0, 64, 0
2, 37490, Control_c, 0, 64, 127
2, 37516, Note_off_c, 0, 43, 64
2, 37524, Control_c, 0, 64, 0
2, 37538, Control_c, 0, 64, 127
2, 37728, Note_on_c, 0, 55, 35
2, 37875, Note_on_c, 0, 74, 43
2, 37918, Note_off_c, 0, 71, 64
2, 37924, Note_off_c, 0, 76, 64
2, 37924, Note_off_c, 0, 65, 64
2, 37929, Note_off_c, 0, 67, 64
2, 38043, Note_off_c, 0, 74, 64
2, 38046, Control_c, 0, 64, 0
2, 38052, Note_on_c, 0, 71, 43
2, 38055, Note_on_c, 0, 64, 43
2, 38059, Note_on_c, 0, 48, 46
2, 38089, Control_c, 0, 64, 127
2, 38094, Control_c, 0, 64, 0
2, 38102, Note_off_c, 0, 55, 64
2, 38137, Control_c, 0, 64, 127
2, 38312, Note_off_c, 0, 71, 64
2, 38363, Note_on_c, 0, 72, 46
2, 38365, Note_off_c, 0, 64, 64
2, 38408, Note_off_c, 0, 72, 64
2, 38441, Note_on_c, 0, 72, 41
2, 38583, Note_on_c, 0, 84, 45
2, 38596, Note_on_c, 0, 55, 28
2, 38599, Note_on_c, 0, 64, 21
2, 38602, Control_c, 0, 64, 0
2, 38650, Control_c, 0, 64, 0
2, 38655, Control_c, 0, 64, 127
2, 38703, Control_c, 0, 64, 127
2, 38815, Note_off_c, 0, 72, 64
2, 39178, Note_off_c, 0, 48, 64
2, 39234, Note_off_c, 0, 84, 64
2, 39247, Note_off_c, 0, 55, 64
2, 39250, Note_off_c, 0, 64, 64
2, 39252, Control_c, 0, 64, 0
2, 39300, Control_c, 0, 64, 0
2, 40065, Control_c, 0, 64, 0
2, 40113, Control_c, 0, 64, 0
