2, 0, Program_c, 0, 0
2, 0, Control_c, 0, 7, 127
2, 13, Control_c, 0, 64, 0
2, 13, Control_c, 0, 64, 0
2, 49, Control_c, 0, 64, 127
2, 49, Control_c, 0, 64, 127
2, 171, Control_c, 0, 64, 0
2, 171, Control_c, 0, 64, 0
2, 292, Control_c, 0, 64, 127
2, 292, Control_c, 0, 64, 127
2, 357, Note_on_c, 0, 69, 65
2, 566, Note_on_c, 0, 38, 65
2, 753, Note_on_c, 0, 66, 65
2, 799, Note_off_c, 0, 69, 64
2, 800, Note_on_c, 0, 60, 52
2, 801, Note_on_c, 0, 62, 69
2, 805, Note_on_c, 0, 50, 49
2, 808, Note_on_c, 0, 57, 47
2, 831, Note_off_c, 0, 66, 64
2, 859, Note_off_c, 0, 60, 64
2, 864, Note_off_c, 0, 50, 64
2, 867, Note_off_c, 0, 57, 64
2, 986, Note_off_c, 0, 62, 64
2, 1000, Note_on_c, 0, 66, 73
2, 1008, Note_on_c, 0, 60, 52
2, 1009, Note_on_c, 0, 50, 58
2, 1011, Note_on_c, 0, 57, 38
2, 1017, Note_on_c, 0, 62, 38
2, 1067, Note_off_c, 0, 60, 64
2, 1068, Note_off_c, 0, 50, 64
2, 1070, Note_off_c, 0, 57, 64
2, 1076, Note_off_c, 0, 62, 64
2, 1100, Note_off_c, 0, 38, 64
2, 1236, Note_on_c, 0, 43, 58
2, 1259, Note_on_c, 0, 67, 68
2, 1267, Note_off_c, 0, 66, 64
2, 1298, Control_c, 0, 64, 0
2, 1298, Control_c, 0, 64, 0
2, 1336, Control_c, 0, 64, 127
2, 1336, Control_c, 0, 64, 127
2, 1525, Note_on_c, 0, 62, 49
2, 1532, Note_on_c, 0, 55, 35
2, 1536, Note_on_c, 0, 58, 34
2, 1608, Note_off_c, 0, 58, 64
2, 1614, Note_off_c, 0, 55, 64
2, 1623, Note_off_c, 0, 62, 64
2, 1790, Note_on_c, 0, 55, 38
2, 1793, Note_on_c, 0, 58, 43
2, 1799, Note_on_c, 0, 69, 69
2, 1806, Note_on_c, 0, 62, 34
2, 1817, Note_off_c, 0, 67, 64
2, 1831, Note_off_c, 0, 43, 64
2, 1842, Control_c, 0, 64, 0
2, 1842, Control_c, 0, 64, 0
2, 1852, Control_c, 0, 64, 127
2, 1852, Control_c, 0, 64, 127
2, 1898, Note_on_c, 0, 70, 73
2, 1922, Note_off_c, 0, 69, 64
2, 1924, Note_off_c, 0, 55, 64
2, 1936, Note_off_c, 0, 58, 64
2, 1947, Note_off_c, 0, 62, 64
2, 1986, Note_on_c, 0, 72, 71
2, 2000, Note_off_c, 0, 70, 64
2, 2091, Note_on_c, 0, 74, 68
2, 2104, Note_off_c, 0, 72, 64
2, 2138, Note_on_c, 0, 75, 73
2, 2151, Note_on_c, 0, 63, 46
2, 2154, Note_on_c, 0, 67, 46
2, 2160, Note_on_c, 0, 60, 46
2, 2161, Note_on_c, 0, 55, 43
2, 2173, Note_off_c, 0, 74, 64
2, 2173, Control_c, 0, 64, 0
2, 2173, Control_c, 0, 64, 0
2, 2196, Control_c, 0, 64, 127
2, 2196, Control_c, 0, 64, 127
2, 2210, Note_off_c, 0, 55, 64
2, 2210, Note_off_c, 0, 60, 64
2, 2216, Note_off_c, 0, 63, 64
2, 2218, Note_off_c, 0, 67, 64
2, 2326, Note_on_c, 0, 78, 75
2, 2333, Note_off_c, 0, 75, 64
2, 2336, Note_on_c, 0, 63, 50
2, 2341, Note_on_c, 0, 60, 53
2, 2344, Note_on_c, 0, 69, 46
2, 2356, Control_c, 0, 64, 0
2, 2356, Control_c, 0, 64, 0
2, 2357, Note_on_c, 0, 55, 32
2, 2393, Control_c, 0, 64, 127
2, 2393, Control_c, 0, 64, 127
2, 2532, Note_on_c, 0, 79, 65
2, 2540, Note_off_c, 0, 60, 64
2, 2540, Note_on_c, 0, 70, 69
2, 2553, Note_off_c, 0, 63, 64
2, 2555, Control_c, 0, 64, 0
2, 2555, Control_c, 0, 64, 0
2, 2556, Note_off_c, 0, 78, 64
2, 2559, Note_off_c, 0, 55, 64
2, 2568, Note_off_c, 0, 69, 64
2, 2578, Control_c, 0, 64, 127
2, 2578, Control_c, 0, 64, 127
2, 2628, Note_on_c, 0, 74, 46
2, 2674, Note_off_c, 0, 79, 64
2, 2727, Note_on_c, 0, 62, 49
2, 2733, Note_on_c, 0, 55, 35
2, 2742, Control_c, 0, 64, 0
2, 2742, Control_c, 0, 64, 0
2, 2764, Control_c, 0, 64, 127
2, 2764, Control_c, 0, 64, 127
2, 2796, Note_off_c, 0, 55, 64
2, 2801, Note_off_c, 0, 62, 64
2, 2959, Note_on_c, 0, 62, 38
2, 2974, Note_on_c, 0, 55, 30
2, 3036, Note_off_c, 0, 62, 64
2, 3038, Note_off_c, 0, 74, 64
2, 3043, Note_off_c, 0, 55, 64
2, 3074, Note_off_c, 0, 70, 64
2, 3249, Note_on_c, 0, 38, 53
2, 3253, Note_on_c, 0, 69, 73
2, 3421, Note_on_c, 0, 66, 64
2, 3466, Note_off_c, 0, 69, 64
2, 3476, Note_on_c, 0, 62, 72
2, 3476, Note_on_c, 0, 50, 60
2, 3488, Note_on_c, 0, 57, 35
2, 3494, Note_on_c, 0, 60, 54
2, 3504, Note_off_c, 0, 66, 64
2, 3535, Note_off_c, 0, 50, 64
2, 3547, Note_off_c, 0, 57, 64
2, 3553, Note_off_c, 0, 60, 64
2, 3627, Note_off_c, 0, 62, 64
2, 3649, Note_on_c, 0, 66, 79
2, 3655, Note_on_c, 0, 57, 60
2, 3660, Note_on_c, 0, 50, 69
2, 3668, Note_on_c, 0, 62, 38
2, 3714, Note_off_c, 0, 57, 64
2, 3719, Note_off_c, 0, 50, 64
2, 3727, Note_off_c, 0, 62, 64
2, 3811, Note_off_c, 0, 38, 64
2, 3853, Note_on_c, 0, 67, 79
2, 3861, Note_on_c, 0, 43, 65
2, 3865, Note_off_c, 0, 66, 64
2, 3879, Control_c, 0, 64, 0
2, 3879, Control_c, 0, 64, 0
2, 3914, Control_c, 0, 64, 127
2, 3914, Control_c, 0, 64, 127
2, 4051, Note_on_c, 0, 55, 35
2, 4052, Note_on_c, 0, 58, 56
2, 4054, Note_on_c, 0, 62, 49
2, 4110, Note_off_c, 0, 62, 64
2, 4113, Note_off_c, 0, 58, 64
2, 4117, Note_off_c, 0, 55, 64
2, 4240, Note_on_c, 0, 74, 60
2, 4242, Note_on_c, 0, 58, 43
2, 4244, Note_on_c, 0, 62, 42
2, 4244, Note_on_c, 0, 55, 43
2, 4262, Control_c, 0, 64, 0
2, 4262, Control_c, 0, 64, 0
2, 4284, Control_c, 0, 64, 127
2, 4284, Control_c, 0, 64, 127
2, 4350, Note_on_c, 0, 73, 57
2, 4355, Note_off_c, 0, 74, 64
2, 4385, Note_off_c, 0, 58, 64
2, 4389, Note_off_c, 0, 62, 64
2, 4391, Note_off_c, 0, 55, 64
2, 4401, Note_off_c, 0, 43, 64
2, 4401, Note_on_c, 0, 70, 64
2, 4406, Note_off_c, 0, 67, 64
2, 4428, Note_off_c, 0, 73, 64
2, 4519, Note_on_c, 0, 69, 56
2, 4534, Note_off_c, 0, 70, 64
2, 4563, Note_on_c, 0, 58, 47
2, 4571, Note_on_c, 0, 55, 52
2, 4575, Note_on_c, 0, 67, 64
2, 4575, Note_on_c, 0, 64, 53
2, 4575, Note_on_c, 0, 50, 53
2, 4587, Note_off_c, 0, 69, 64
2, 4595, Control_c, 0, 64, 0
2, 4595, Control_c, 0, 64, 0
2, 4618, Control_c, 0, 64, 127
2, 4618, Control_c, 0, 64, 127
2, 4641, Note_off_c, 0, 64, 64
2, 4643, Note_off_c, 0, 55, 64
2, 4657, Note_off_c, 0, 58, 64
2, 4671, Note_off_c, 0, 50, 64
2, 4776, Note_on_c, 0, 66, 60
2, 4779, Note_on_c, 0, 50, 38
2, 4784, Note_on_c, 0, 57, 52
2, 4788, Note_on_c, 0, 61, 58
2, 4814, Note_off_c, 0, 67, 64
2, 4817, Control_c, 0, 64, 0
2, 4817, Control_c, 0, 64, 0
2, 4850, Control_c, 0, 64, 127
2, 4850, Control_c, 0, 64, 127
2, 4910, Note_off_c, 0, 66, 64
2, 4980, Note_on_c, 0, 66, 54
2, 5018, Note_off_c, 0, 61, 64
2, 5020, Note_off_c, 0, 57, 64
2, 5046, Note_off_c, 0, 50, 64
2, 5048, Note_on_c, 0, 62, 57
2, 5056, Control_c, 0, 64, 0
2, 5056, Control_c, 0, 64, 0
2, 5067, Control_c, 0, 64, 127
2, 5067, Control_c, 0, 64, 127
2, 5077, Note_off_c, 0, 66, 64
2, 5250, Note_on_c, 0, 57, 42
2, 5257, Note_on_c, 0, 50, 34
2, 5280, Control_c, 0, 64, 0
2, 5280, Control_c, 0, 64, 0
2, 5314, Control_c, 0, 64, 127
2, 5314, Control_c, 0, 64, 127
2, 5345, Note_off_c, 0, 50, 64
2, 5351, Note_off_c, 0, 57, 64
2, 5480, Note_on_c, 0, 50, 21
2, 5486, Note_on_c, 0, 57, 21
2, 5550, Note_on_c, 0, 69, 79
2, 5554, Note_off_c, 0, 62, 64
2, 5561, Note_off_c, 0, 50, 64
2, 5571, Note_off_c, 0, 57, 64
2, 5803, Note_on_c, 0, 38, 63
2, 5831, Control_c, 0, 64, 0
2, 5831, Control_c, 0, 64, 0
2, 5858, Control_c, 0, 64, 127
2, 5858, Control_c, 0, 64, 127
2, 5986, Note_on_c, 0, 66, 58
2, 6047, Note_on_c, 0, 62, 54
2, 6060, Note_off_c, 0, 69, 64
2, 6064, Note_on_c, 0, 57, 47
2, 6064, Note_on_c, 0, 50, 26
2, 6070, Note_off_c, 0, 66, 64
2, 6075, Note_on_c, 0, 60, 49
2, 6134, Note_off_c, 0, 50, 64
2, 6134, Note_off_c, 0, 57, 64
2, 6145, Note_off_c, 0, 60, 64
2, 6257, Note_on_c, 0, 50, 49
2, 6261, Note_on_c, 0, 70, 76
2, 6267, Note_on_c, 0, 66, 69
2, 6272, Note_off_c, 0, 62, 64
2, 6273, Note_on_c, 0, 57, 35
2, 6280, Note_on_c, 0, 62, 31
2, 6327, Note_off_c, 0, 50, 64
2, 6337, Note_off_c, 0, 66, 64
2, 6343, Note_off_c, 0, 57, 64
2, 6350, Note_off_c, 0, 62, 64
2, 6352, Note_off_c, 0, 38, 64
2, 6413, Note_on_c, 0, 69, 68
2, 6435, Note_off_c, 0, 70, 64
2, 6467, Note_on_c, 0, 43, 58
2, 6473, Note_on_c, 0, 67, 72
2, 6484, Note_off_c, 0, 69, 64
2, 6499, Control_c, 0, 64, 0
2, 6499, Control_c, 0, 64, 0
2, 6523, Control_c, 0, 64, 127
2, 6523, Control_c, 0, 64, 127
2, 6660, Note_on_c, 0, 58, 38
2, 6669, Note_on_c, 0, 62, 43
2, 6669, Note_on_c, 0, 55, 35
2, 6728, Note_off_c, 0, 58, 64
2, 6744, Note_off_c, 0, 55, 64
2, 6748, Note_off_c, 0, 62, 64
2, 6849, Note_on_c, 0, 69, 73
2, 6849, Note_on_c, 0, 58, 49
2, 6849, Note_on_c, 0, 55, 35
2, 6856, Note_on_c, 0, 62, 49
2, 6863, Note_off_c, 0, 67, 64
2, 6954, Note_on_c, 0, 70, 72
2, 6965, Note_off_c, 0, 55, 64
2, 6978, Note_off_c, 0, 69, 64
2, 6983, Note_off_c, 0, 58, 64
2, 6985, Note_off_c, 0, 62, 64
2, 7012, Note_off_c, 0, 43, 64
2, 7014, Note_on_c, 0, 72, 69
2, 7017, Note_off_c, 0, 70, 64
2, 7134, Note_on_c, 0, 74, 54
2, 7141, Note_off_c, 0, 72, 64
2, 7174, Note_on_c, 0, 63, 42
2, 7174, Note_on_c, 0, 60, 47
2, 7181, Note_on_c, 0, 67, 43
2, 7184, Note_on_c, 0, 55, 43
2, 7187, Note_on_c, 0, 75, 60
2, 7203, Control_c, 0, 64, 0
2, 7203, Control_c, 0, 64, 0
2, 7213, Note_off_c, 0, 74, 64
2, 7220, Control_c, 0, 64, 127
2, 7220, Control_c, 0, 64, 127
2, 7242, Note_off_c, 0, 55, 64
2, 7246, Note_off_c, 0, 63, 64
2, 7248, Note_off_c, 0, 60, 64
2, 7249, Note_off_c, 0, 67, 64
2, 7366, Note_on_c, 0, 78, 76
2, 7373, Note_off_c, 0, 75, 64
2, 7376, Note_on_c, 0, 63, 43
2, 7380, Note_on_c, 0, 55, 38
2, 7381, Note_on_c, 0, 69, 39
2, 7386, Note_on_c, 0, 60, 41
2, 7406, Control_c, 0, 64, 0
2, 7406, Control_c, 0, 64, 0
2, 7426, Control_c, 0, 64, 127
2, 7426, Control_c, 0, 64, 127
2, 7589, Note_on_c, 0, 70, 43
2, 7590, Note_on_c, 0, 79, 67
2, 7619, Note_off_c, 0, 60, 64
2, 7620, Note_off_c, 0, 55, 64
2, 7623, Note_off_c, 0, 78, 64
2, 7628, Control_c, 0, 64, 0
2, 7628, Control_c, 0, 64, 0
2, 7635, Note_off_c, 0, 63, 64
2, 7639, Note_off_c, 0, 69, 64
2, 7645, Control_c, 0, 64, 127
2, 7645, Control_c, 0, 64, 127
2, 7680, Note_on_c, 0, 74, 68
2, 7714, Note_off_c, 0, 79, 64
2, 7800, Note_on_c, 0, 62, 35
2, 7809, Note_on_c, 0, 55, 35
2, 7824, Control_c, 0, 64, 0
2, 7824, Control_c, 0, 64, 0
2, 7848, Control_c, 0, 64, 127
2, 7848, Control_c, 0, 64, 127
2, 7875, Note_off_c, 0, 62, 64
2, 7880, Note_off_c, 0, 55, 64
2, 8038, Note_on_c, 0, 55, 35
2, 8042, Note_on_c, 0, 62, 38
2, 8086, Note_off_c, 0, 62, 64
2, 8088, Note_off_c, 0, 74, 64
2, 8095, Note_off_c, 0, 55, 64
2, 8153, Note_off_c, 0, 70, 64
2, 8300, Note_on_c, 0, 69, 67
2, 8300, Note_on_c, 0, 38, 47
2, 8467, Note_on_c, 0, 66, 54
2, 8516, Note_on_c, 0, 57, 41
2, 8520, Note_on_c, 0, 62, 61
2, 8520, Note_on_c, 0, 60, 36
2, 8523, Note_off_c, 0, 69, 64
2, 8526, Note_on_c, 0, 50, 43
2, 8549, Note_off_c, 0, 66, 64
2, 8549, Control_c, 0, 64, 0
2, 8549, Control_c, 0, 64, 0
2, 8564, Control_c, 0, 64, 127
2, 8564, Control_c, 0, 64, 127
2, 8575, Note_off_c, 0, 57, 64
2, 8579, Note_off_c, 0, 60, 64
2, 8585, Note_off_c, 0, 50, 64
2, 8644, Note_off_c, 0, 62, 64
2, 8696, Note_on_c, 0, 60, 32
2, 8698, Note_on_c, 0, 66, 63
2, 8698, Note_on_c, 0, 50, 47
2, 8702, Note_on_c, 0, 57, 32
2, 8709, Note_on_c, 0, 62, 30
2, 8755, Note_off_c, 0, 60, 64
2, 8757, Note_off_c, 0, 50, 64
2, 8761, Note_off_c, 0, 57, 64
2, 8768, Note_off_c, 0, 62, 64
2, 8871, Note_off_c, 0, 38, 64
2, 8895, Note_on_c, 0, 43, 50
2, 8904, Note_on_c, 0, 67, 65
2, 8919, Note_off_c, 0, 66, 64
2, 8929, Control_c, 0, 64, 0
2, 8929, Control_c, 0, 64, 0
2, 8954, Control_c, 0, 64, 127
2, 8954, Control_c, 0, 64, 127
2, 9111, Note_on_c, 0, 58, 39
2, 9114, Note_on_c, 0, 62, 31
2, 9117, Note_on_c, 0, 55, 36
2, 9171, Note_off_c, 0, 58, 64
2, 9184, Note_off_c, 0, 55, 64
2, 9184, Note_off_c, 0, 62, 64
2, 9284, Note_on_c, 0, 74, 53
2, 9284, Note_on_c, 0, 55, 31
2, 9288, Note_on_c, 0, 58, 31
2, 9297, Note_on_c, 0, 62, 28
2, 9396, Note_on_c, 0, 73, 52
2, 9409, Note_off_c, 0, 74, 64
2, 9425, Note_off_c, 0, 58, 64
2, 9426, Note_off_c, 0, 55, 64
2, 9436, Note_off_c, 0, 62, 64
2, 9439, Note_off_c, 0, 67, 64
2, 9444, Note_off_c, 0, 43, 64
2, 9444, Note_on_c, 0, 70, 68
2, 9474, Note_off_c, 0, 73, 64
2, 9562, Note_on_c, 0, 69, 54
2, 9583, Note_off_c, 0, 70, 64
2, 9608, Note_on_c, 0, 58, 45
2, 9609, Note_on_c, 0, 64, 49
2, 9615, Note_on_c, 0, 55, 52
2, 9615, Note_on_c, 0, 50, 41
2, 9619, Note_on_c, 0, 67, 57
2, 9629, Note_off_c, 0, 69, 64
2, 9642, Control_c, 0, 64, 0
2, 9642, Control_c, 0, 64, 0
2, 9655, Control_c, 0, 64, 127
2, 9655, Control_c, 0, 64, 127
2, 9677, Note_off_c, 0, 55, 64
2, 9677, Note_off_c, 0, 64, 64
2, 9687, Note_off_c, 0, 58, 64
2, 9693, Note_off_c, 0, 50, 64
2, 9811, Note_on_c, 0, 50, 26
2, 9814, Note_on_c, 0, 66, 57
2, 9818, Note_on_c, 0, 61, 34
2, 9824, Note_on_c, 0, 57, 35
2, 9838, Control_c, 0, 64, 0
2, 9838, Control_c, 0, 64, 0
2, 9842, Note_off_c, 0, 67, 64
2, 9874, Control_c, 0, 64, 127
2, 9874, Control_c, 0, 64, 127
2, 9918, Note_off_c, 0, 66, 64
2, 10008, Note_on_c, 0, 66, 38
2, 10032, Note_off_c, 0, 61, 64
2, 10038, Note_off_c, 0, 57, 64
2, 10044, Note_off_c, 0, 50, 64
2, 10072, Note_on_c, 0, 62, 47
2, 10113, Note_off_c, 0, 66, 64
2, 10296, Note_on_c, 0, 57, 32
2, 10296, Note_on_c, 0, 50, 32
2, 10320, Control_c, 0, 64, 0
2, 10320, Control_c, 0, 64, 0
2, 10346, Control_c, 0, 64, 127
2, 10346, Control_c, 0, 64, 127
2, 10456, Control_c, 0, 64, 0
2, 10456, Control_c, 0, 64, 0
2, 10482, Control_c, 0, 64, 127
2, 10482, Control_c, 0, 64, 127
2, 10488, Note_off_c, 0, 50, 64
2, 10491, Note_off_c, 0, 57, 64
2, 10568, Note_on_c, 0, 57, 21
2, 10576, Note_on_c, 0, 50, 21
2, 10743, Note_off_c, 0, 57, 64
2, 10746, Note_off_c, 0, 62, 64
2, 10757, Note_off_c, 0, 50, 64
2, 10827, Note_on_c, 0, 41, 60
2, 10830, Note_on_c, 0, 65, 73
2, 11074, Note_on_c, 0, 67, 56
2, 11076, Note_on_c, 0, 58, 30
2, 11078, Note_on_c, 0, 53, 43
2, 11084, Note_on_c, 0, 63, 39
2, 11100, Control_c, 0, 64, 0
2, 11100, Control_c, 0, 64, 0
2, 11110, Note_off_c, 0, 65, 64
2, 11114, Control_c, 0, 64, 127
2, 11114, Control_c, 0, 64, 127
2, 11136, Note_off_c, 0, 53, 64
2, 11136, Note_on_c, 0, 69, 52
2, 11140, Note_off_c, 0, 67, 64
2, 11156, Note_off_c, 0, 58, 64
2, 11173, Note_off_c, 0, 63, 64
2, 11190, Note_on_c, 0, 67, 54
2, 11215, Note_off_c, 0, 69, 64
2, 11244, Note_on_c, 0, 65, 65
2, 11252, Note_on_c, 0, 63, 49
2, 11252, Note_on_c, 0, 53, 52
2, 11258, Note_on_c, 0, 57, 54
2, 11258, Control_c, 0, 64, 0
2, 11258, Control_c, 0, 64, 0
2, 11265, Note_off_c, 0, 67, 64
2, 11282, Control_c, 0, 64, 127
2, 11282, Control_c, 0, 64, 127
2, 11311, Note_off_c, 0, 53, 64
2, 11316, Note_off_c, 0, 57, 64
2, 11324, Note_off_c, 0, 63, 64
2, 11424, Note_on_c, 0, 53, 41
2, 11428, Note_on_c, 0, 58, 56
2, 11429, Note_on_c, 0, 67, 58
2, 11429, Note_on_c, 0, 63, 54
2, 11468, Note_off_c, 0, 65, 64
2, 11483, Note_off_c, 0, 53, 64
2, 11488, Note_on_c, 0, 69, 54
2, 11493, Note_off_c, 0, 58, 64
2, 11498, Note_off_c, 0, 63, 64
2, 11498, Note_off_c, 0, 67, 64
2, 11542, Note_on_c, 0, 67, 54
2, 11565, Note_off_c, 0, 69, 64
2, 11589, Control_c, 0, 64, 0
2, 11589, Control_c, 0, 64, 0
2, 11596, Note_on_c, 0, 63, 52
2, 11596, Note_on_c, 0, 57, 53
2, 11596, Note_on_c, 0, 53, 54
2, 11602, Note_off_c, 0, 67, 64
2, 11605, Note_on_c, 0, 65, 54
2, 11612, Note_off_c, 0, 41, 64
2, 11612, Control_c, 0, 64, 127
2, 11612, Control_c, 0, 64, 127
2, 11700, Note_off_c, 0, 57, 64
2, 11720, Note_off_c, 0, 63, 64
2, 11739, Note_off_c, 0, 53, 64
2, 11762, Note_off_c, 0, 65, 64
2, 11778, Note_on_c, 0, 79, 65
2, 11969, Note_off_c, 0, 79, 64
2, 11972, Note_on_c, 0, 41, 46
2, 11974, Note_on_c, 0, 77, 60
2, 11991, Control_c, 0, 64, 0
2, 11991, Control_c, 0, 64, 0
2, 12005, Control_c, 0, 64, 127
2, 12005, Control_c, 0, 64, 127
2, 12027, Note_on_c, 0, 79, 54
2, 12041, Note_off_c, 0, 77, 64
2, 12096, Note_on_c, 0, 77, 42
2, 12106, Note_off_c, 0, 79, 64
2, 12148, Note_on_c, 0, 76, 65
2, 12165, Note_off_c, 0, 77, 64
2, 12169, Note_on_c, 0, 69, 38
2, 12172, Note_on_c, 0, 60, 27
2, 12180, Note_on_c, 0, 63, 31
2, 12228, Note_off_c, 0, 69, 64
2, 12231, Note_off_c, 0, 60, 64
2, 12239, Note_off_c, 0, 63, 64
2, 12329, Note_on_c, 0, 69, 34
2, 12332, Note_on_c, 0, 60, 54
2, 12336, Note_on_c, 0, 63, 41
2, 12388, Note_off_c, 0, 69, 64
2, 12391, Note_off_c, 0, 60, 64
2, 12395, Note_off_c, 0, 63, 64
2, 12421, Note_on_c, 0, 75, 43
2, 12432, Note_off_c, 0, 76, 64
2, 12469, Note_off_c, 0, 75, 64
2, 12498, Note_off_c, 0, 41, 64
2, 12524, Note_on_c, 0, 46, 61
2, 12529, Note_on_c, 0, 75, 56
2, 12626, Note_off_c, 0, 75, 64
2, 12630, Note_on_c, 0, 77, 56
2, 12686, Note_on_c, 0, 75, 43
2, 12701, Note_on_c, 0, 53, 49
2, 12709, Note_off_c, 0, 77, 64
2, 12715, Note_on_c, 0, 58, 46
2, 12745, Note_on_c, 0, 65, 46
2, 12745, Note_on_c, 0, 62, 21
2, 12754, Note_on_c, 0, 74, 60
2, 12760, Note_on_c, 0, 70, 39
2, 12768, Note_off_c, 0, 75, 64
2, 12787, Control_c, 0, 64, 0
2, 12787, Control_c, 0, 64, 0
2, 12792, Note_off_c, 0, 53, 64
2, 12810, Note_off_c, 0, 46, 64
2, 12810, Control_c, 0, 64, 127
2, 12810, Control_c, 0, 64, 127
2, 12825, Note_off_c, 0, 58, 64
2, 12826, Note_off_c, 0, 62, 64
2, 12859, Note_off_c, 0, 65, 64
2, 12957, Note_off_c, 0, 70, 64
2, 13146, Note_off_c, 0, 74, 64
2, 13156, Note_on_c, 0, 41, 73
2, 13163, Note_on_c, 0, 65, 69
2, 13170, Control_c, 0, 64, 0
2, 13170, Control_c, 0, 64, 0
2, 13203, Control_c, 0, 64, 127
2, 13203, Control_c, 0, 64, 127
2, 13349, Note_on_c, 0, 67, 53
2, 13356, Note_on_c, 0, 53, 34
2, 13357, Note_on_c, 0, 63, 47
2, 13359, Note_on_c, 0, 58, 45
2, 13363, Control_c, 0, 64, 0
2, 13363, Control_c, 0, 64, 0
2, 13380, Control_c, 0, 64, 127
2, 13380, Control_c, 0, 64, 127
2, 13388, Note_off_c, 0, 65, 64
2, 13426, Note_off_c, 0, 67, 64
2, 13426, Note_on_c, 0, 69, 50
2, 13437, Note_off_c, 0, 53, 64
2, 13438, Note_off_c, 0, 63, 64
2, 13440, Note_off_c, 0, 58, 64
2, 13470, Note_on_c, 0, 67, 54
2, 13497, Note_off_c, 0, 69, 64
2, 13524, Note_on_c, 0, 53, 53
2, 13526, Note_on_c, 0, 63, 53
2, 13532, Note_on_c, 0, 65, 60
2, 13532, Note_on_c, 0, 57, 52
2, 13532, Control_c, 0, 64, 0
2, 13532, Control_c, 0, 64, 0
2, 13542, Note_off_c, 0, 67, 64
2, 13549, Control_c, 0, 64, 127
2, 13549, Control_c, 0, 64, 127
2, 13605, Note_off_c, 0, 53, 64
2, 13607, Note_off_c, 0, 63, 64
2, 13613, Note_off_c, 0, 57, 64
2, 13689, Note_on_c, 0, 58, 58
2, 13693, Note_on_c, 0, 67, 65
2, 13696, Note_on_c, 0, 53, 41
2, 13699, Note_on_c, 0, 63, 49
2, 13728, Note_off_c, 0, 65, 64
2, 13749, Note_on_c, 0, 69, 52
2, 13756, Note_off_c, 0, 67, 64
2, 13770, Note_off_c, 0, 58, 64
2, 13777, Note_off_c, 0, 53, 64
2, 13780, Note_off_c, 0, 63, 64
2, 13797, Note_on_c, 0, 67, 54
2, 13824, Note_off_c, 0, 69, 64
2, 13848, Note_on_c, 0, 63, 49
2, 13854, Note_on_c, 0, 65, 58
2, 13860, Note_off_c, 0, 67, 64
2, 13861, Note_on_c, 0, 53, 43
2, 13866, Note_on_c, 0, 57, 38
2, 13919, Note_off_c, 0, 41, 64
2, 13929, Note_off_c, 0, 63, 64
2, 13942, Note_off_c, 0, 53, 64
2, 13947, Note_off_c, 0, 57, 64
2, 14006, Note_off_c, 0, 65, 64
2, 14024, Note_on_c, 0, 75, 49
2, 14030, Note_on_c, 0, 67, 38
2, 14037, Note_on_c, 0, 57, 52
2, 14046, Note_on_c, 0, 53, 27
2, 14052, Control_c, 0, 64, 0
2, 14052, Control_c, 0, 64, 0
2, 14063, Control_c, 0, 64, 127
2, 14063, Control_c, 0, 64, 127
2, 14118, Note_off_c, 0, 57, 64
2, 14127, Note_off_c, 0, 53, 64
2, 14211, Note_on_c, 0, 57, 47
2, 14213, Note_on_c, 0, 74, 43
2, 14213, Note_on_c, 0, 65, 58
2, 14217, Note_on_c, 0, 53, 43
2, 14221, Note_off_c, 0, 67, 64
2, 14224, Note_off_c, 0, 75, 64
2, 14232, Control_c, 0, 64, 0
2, 14232, Control_c, 0, 64, 0
2, 14245, Control_c, 0, 64, 127
2, 14245, Control_c, 0, 64, 127
2, 14273, Note_on_c, 0, 75, 53
2, 14290, Note_off_c, 0, 74, 64
2, 14292, Note_off_c, 0, 57, 64
2, 14298, Note_off_c, 0, 53, 64
2, 14332, Note_on_c, 0, 74, 38
2, 14345, Note_off_c, 0, 75, 64
2, 14379, Note_on_c, 0, 73, 63
2, 14384, Note_on_c, 0, 53, 39
2, 14393, Note_on_c, 0, 57, 53
2, 14393, Control_c, 0, 64, 0
2, 14393, Control_c, 0, 64, 0
2, 14404, Note_off_c, 0, 65, 64
2, 14404, Note_on_c, 0, 64, 31
2, 14422, Note_off_c, 0, 74, 64
2, 14423, Control_c, 0, 64, 127
2, 14423, Control_c, 0, 64, 127
2, 14465, Note_off_c, 0, 53, 64
2, 14474, Note_off_c, 0, 57, 64
2, 14545, Note_on_c, 0, 63, 45
2, 14558, Note_on_c, 0, 53, 27
2, 14566, Note_on_c, 0, 57, 36
2, 14595, Note_off_c, 0, 64, 64
2, 14639, Note_off_c, 0, 53, 64
2, 14647, Note_off_c, 0, 57, 64
2, 14654, Note_on_c, 0, 72, 54
2, 14686, Note_off_c, 0, 73, 64
2, 14729, Note_off_c, 0, 72, 64
2, 14736, Note_off_c, 0, 63, 64
2, 14757, Note_on_c, 0, 46, 56
2, 14763, Note_on_c, 0, 72, 54
2, 14841, Note_off_c, 0, 72, 64
2, 14849, Note_on_c, 0, 74, 34
2, 14900, Note_on_c, 0, 72, 49
2, 14921, Note_off_c, 0, 74, 64
2, 14940, Note_on_c, 0, 62, 38
2, 14940, Note_on_c, 0, 58, 27
2, 14946, Note_on_c, 0, 53, 30
2, 14949, Note_on_c, 0, 70, 67
2, 14969, Note_off_c, 0, 72, 64
2, 14970, Control_c, 0, 64, 0
2, 14970, Control_c, 0, 64, 0
2, 14993, Control_c, 0, 64, 127
2, 14993, Control_c, 0, 64, 127
2, 15020, Note_off_c, 0, 58, 64
2, 15020, Note_off_c, 0, 62, 64
2, 15026, Note_off_c, 0, 53, 64
2, 15143, Note_on_c, 0, 58, 42
2, 15149, Note_on_c, 0, 53, 38
2, 15152, Note_on_c, 0, 62, 27
2, 15153, Note_on_c, 0, 69, 60
2, 15187, Note_off_c, 0, 70, 64
2, 15223, Note_off_c, 0, 58, 64
2, 15229, Note_off_c, 0, 53, 64
2, 15232, Note_off_c, 0, 62, 64
2, 15248, Note_on_c, 0, 67, 65
2, 15265, Note_off_c, 0, 69, 64
2, 15289, Note_off_c, 0, 46, 64
2, 15348, Note_on_c, 0, 65, 86
2, 15354, Note_off_c, 0, 67, 64
2, 15369, Note_on_c, 0, 41, 73
2, 15399, Control_c, 0, 64, 0
2, 15399, Control_c, 0, 64, 0
2, 15424, Control_c, 0, 64, 127
2, 15424, Control_c, 0, 64, 127
2, 15565, Note_on_c, 0, 63, 32
2, 15569, Note_on_c, 0, 67, 63
2, 15575, Note_on_c, 0, 53, 45
2, 15576, Note_on_c, 0, 58, 30
2, 15618, Note_off_c, 0, 65, 64
2, 15634, Note_off_c, 0, 67, 64
2, 15636, Note_off_c, 0, 63, 64
2, 15638, Note_on_c, 0, 69, 56
2, 15646, Note_off_c, 0, 53, 64
2, 15647, Note_off_c, 0, 58, 64
2, 15687, Note_on_c, 0, 67, 56
2, 15709, Note_off_c, 0, 69, 64
2, 15732, Note_on_c, 0, 65, 65
2, 15741, Note_on_c, 0, 57, 54
2, 15743, Control_c, 0, 64, 0
2, 15743, Control_c, 0, 64, 0
2, 15751, Note_off_c, 0, 67, 64
2, 15751, Note_on_c, 0, 63, 42
2, 15751, Note_on_c, 0, 53, 45
2, 15762, Control_c, 0, 64, 127
2, 15762, Control_c, 0, 64, 127
2, 15812, Note_off_c, 0, 57, 64
2, 15822, Note_off_c, 0, 53, 64
2, 15822, Note_off_c, 0, 63, 64
2, 15896, Note_on_c, 0, 53, 43
2, 15899, Note_on_c, 0, 67, 60
2, 15899, Note_on_c, 0, 58, 60
2, 15906, Note_on_c, 0, 63, 49
2, 15944, Note_off_c, 0, 65, 64
2, 15952, Note_on_c, 0, 69, 56
2, 15965, Note_off_c, 0, 67, 64
2, 15967, Note_off_c, 0, 53, 64
2, 15970, Note_off_c, 0, 58, 64
2, 15977, Note_off_c, 0, 63, 64
2, 16013, Note_on_c, 0, 67, 58
2, 16033, Note_off_c, 0, 69, 64
2, 16049, Note_on_c, 0, 57, 56
2, 16052, Note_on_c, 0, 63, 49
2, 16056, Note_on_c, 0, 53, 49
2, 16067, Note_off_c, 0, 67, 64
2, 16072, Note_on_c, 0, 65, 61
2, 16120, Note_off_c, 0, 57, 64
2, 16123, Note_off_c, 0, 63, 64
2, 16127, Note_off_c, 0, 53, 64
2, 16132, Note_off_c, 0, 41, 64
2, 16223, Note_on_c, 0, 63, 46
2, 16226, Note_on_c, 0, 79, 69
2, 16230, Note_on_c, 0, 57, 52
2, 16235, Note_on_c, 0, 53, 41
2, 16256, Note_off_c, 0, 65, 64
2, 16294, Note_off_c, 0, 63, 64
2, 16301, Note_off_c, 0, 57, 64
2, 16306, Note_off_c, 0, 53, 64
2, 16397, Note_off_c, 0, 79, 64
2, 16406, Note_on_c, 0, 77, 63
2, 16407, Note_on_c, 0, 41, 56
2, 16423, Control_c, 0, 64, 0
2, 16423, Control_c, 0, 64, 0
2, 16448, Control_c, 0, 64, 127
2, 16448, Control_c, 0, 64, 127
2, 16465, Note_on_c, 0, 79, 43
2, 16475, Note_off_c, 0, 77, 64
2, 16525, Note_on_c, 0, 77, 54
2, 16540, Note_off_c, 0, 79, 64
2, 16579, Note_on_c, 0, 76, 67
2, 16584, Note_on_c, 0, 69, 30
2, 16584, Note_on_c, 0, 63, 38
2, 16584, Note_on_c, 0, 60, 43
2, 16600, Note_off_c, 0, 77, 64
2, 16603, Control_c, 0, 64, 0
2, 16603, Control_c, 0, 64, 0
2, 16618, Control_c, 0, 64, 127
2, 16618, Control_c, 0, 64, 127
2, 16643, Note_off_c, 0, 60, 64
2, 16643, Note_off_c, 0, 63, 64
2, 16643, Note_off_c, 0, 69, 64
2, 16752, Note_on_c, 0, 60, 50
2, 16755, Note_on_c, 0, 63, 46
2, 16756, Note_on_c, 0, 69, 47
2, 16811, Note_off_c, 0, 60, 64
2, 16814, Note_off_c, 0, 63, 64
2, 16815, Note_off_c, 0, 69, 64
2, 16835, Note_on_c, 0, 75, 58
2, 16852, Note_off_c, 0, 76, 64
2, 16888, Note_off_c, 0, 75, 64
2, 16939, Note_off_c, 0, 41, 64
2, 16949, Note_on_c, 0, 75, 54
2, 16949, Note_on_c, 0, 46, 41
2, 17041, Note_on_c, 0, 77, 53
2, 17045, Note_off_c, 0, 75, 64
2, 17093, Note_on_c, 0, 75, 58
2, 17117, Note_off_c, 0, 77, 64
2, 17124, Note_on_c, 0, 53, 42
2, 17142, Note_on_c, 0, 58, 38
2, 17155, Note_on_c, 0, 62, 21
2, 17160, Note_on_c, 0, 65, 52
2, 17172, Note_on_c, 0, 74, 53
2, 17181, Note_on_c, 0, 70, 47
2, 17185, Note_off_c, 0, 75, 64
2, 17212, Note_off_c, 0, 53, 64
2, 17222, Control_c, 0, 64, 0
2, 17222, Control_c, 0, 64, 0
2, 17238, Control_c, 0, 64, 127
2, 17238, Control_c, 0, 64, 127
2, 17245, Note_off_c, 0, 46, 64
2, 17253, Note_off_c, 0, 62, 64
2, 17253, Note_off_c, 0, 58, 64
2, 17260, Note_off_c, 0, 65, 64
2, 17294, Note_off_c, 0, 70, 64
2, 17562, Note_off_c, 0, 74, 64
2, 17562, Note_on_c, 0, 41, 83
2, 17572, Control_c, 0, 64, 0
2, 17572, Control_c, 0, 64, 0
2, 17578, Note_on_c, 0, 65, 75
2, 17610, Control_c, 0, 64, 127
2, 17610, Control_c, 0, 64, 127
2, 17756, Note_on_c, 0, 67, 53
2, 17765, Note_on_c, 0, 63, 43
2, 17771, Note_on_c, 0, 58, 42
2, 17778, Note_off_c, 0, 65, 64
2, 17783, Note_on_c, 0, 53, 32
2, 17816, Note_off_c, 0, 67, 64
2, 17821, Note_on_c, 0, 69, 43
2, 17836, Note_off_c, 0, 63, 64
2, 17842, Note_off_c, 0, 58, 64
2, 17854, Note_off_c, 0, 53, 64
2, 17865, Note_on_c, 0, 67, 57
2, 17889, Note_off_c, 0, 69, 64
2, 17917, Note_on_c, 0, 65, 58
2, 17918, Note_on_c, 0, 53, 54
2, 17924, Note_on_c, 0, 63, 52
2, 17924, Note_on_c, 0, 57, 56
2, 17928, Note_off_c, 0, 67, 64
2, 17989, Note_off_c, 0, 53, 64
2, 17995, Note_off_c, 0, 57, 64
2, 17995, Note_off_c, 0, 63, 64
2, 18064, Note_on_c, 0, 53, 43
2, 18068, Note_on_c, 0, 58, 61
2, 18072, Note_on_c, 0, 67, 63
2, 18078, Note_on_c, 0, 63, 50
2, 18112, Note_off_c, 0, 65, 64
2, 18130, Note_on_c, 0, 69, 47
2, 18135, Note_off_c, 0, 53, 64
2, 18137, Note_off_c, 0, 67, 64
2, 18139, Note_off_c, 0, 58, 64
2, 18149, Note_off_c, 0, 63, 64
2, 18173, Note_on_c, 0, 67, 60
2, 18193, Note_off_c, 0, 69, 64
2, 18220, Note_on_c, 0, 57, 53
2, 18228, Note_on_c, 0, 65, 61
2, 18228, Note_on_c, 0, 63, 47
2, 18228, Note_on_c, 0, 53, 47
2, 18233, Note_off_c, 0, 67, 64
2, 18291, Note_off_c, 0, 57, 64
2, 18294, Note_off_c, 0, 65, 64
2, 18299, Note_off_c, 0, 53, 64
2, 18299, Note_off_c, 0, 63, 64
2, 18334, Note_off_c, 0, 41, 64
2, 18373, Note_on_c, 0, 75, 53
2, 18379, Note_on_c, 0, 67, 41
2, 18383, Note_on_c, 0, 57, 49
2, 18396, Note_on_c, 0, 53, 30
2, 18454, Note_off_c, 0, 57, 64
2, 18467, Note_off_c, 0, 53, 64
2, 18537, Note_on_c, 0, 74, 53
2, 18544, Note_on_c, 0, 65, 54
2, 18546, Note_on_c, 0, 57, 56
2, 18550, Note_off_c, 0, 75, 64
2, 18559, Note_on_c, 0, 53, 31
2, 18583, Note_off_c, 0, 67, 64
2, 18599, Note_on_c, 0, 75, 54
2, 18612, Note_off_c, 0, 74, 64
2, 18617, Note_off_c, 0, 57, 64
2, 18630, Note_off_c, 0, 53, 64
2, 18667, Note_on_c, 0, 74, 50
2, 18675, Note_off_c, 0, 75, 64
2, 18711, Note_on_c, 0, 64, 47
2, 18713, Note_on_c, 0, 73, 63
2, 18719, Note_on_c, 0, 57, 56
2, 18719, Note_on_c, 0, 53, 38
2, 18727, Control_c, 0, 64, 0
2, 18727, Control_c, 0, 64, 0
2, 18733, Note_off_c, 0, 65, 64
2, 18740, Note_off_c, 0, 74, 64
2, 18749, Control_c, 0, 64, 127
2, 18749, Control_c, 0, 64, 127
2, 18790, Note_off_c, 0, 53, 64
2, 18790, Note_off_c, 0, 57, 64
2, 18871, Note_on_c, 0, 63, 47
2, 18884, Note_on_c, 0, 53, 43
2, 18890, Note_on_c, 0, 57, 49
2, 18893, Note_off_c, 0, 64, 64
2, 18955, Note_off_c, 0, 53, 64
2, 18961, Note_off_c, 0, 57, 64
2, 18991, Note_on_c, 0, 72, 63
2, 19016, Note_off_c, 0, 73, 64
2, 19028, Note_off_c, 0, 63, 64
2, 19060, Note_off_c, 0, 72, 64
2, 19092, Note_on_c, 0, 46, 53
2, 19103, Note_on_c, 0, 72, 50
2, 19184, Note_on_c, 0, 74, 31
2, 19188, Note_off_c, 0, 72, 64
2, 19248, Note_on_c, 0, 72, 43
2, 19267, Note_off_c, 0, 74, 64
2, 19308, Note_on_c, 0, 54, 47
2, 19309, Note_on_c, 0, 71, 65
2, 19325, Note_on_c, 0, 62, 32
2, 19326, Note_off_c, 0, 72, 64
2, 19346, Control_c, 0, 64, 0
2, 19346, Control_c, 0, 64, 0
2, 19368, Control_c, 0, 64, 127
2, 19368, Control_c, 0, 64, 127
2, 19433, Note_off_c, 0, 62, 64
2, 19466, Note_off_c, 0, 54, 64
2, 19544, Note_on_c, 0, 55, 49
2, 19545, Note_on_c, 0, 62, 43
2, 19610, Note_off_c, 0, 62, 64
2, 19619, Note_off_c, 0, 55, 64
2, 19633, Note_off_c, 0, 46, 64
2, 19647, Note_on_c, 0, 70, 50
2, 19670, Note_off_c, 0, 71, 64
2, 19808, Note_on_c, 0, 38, 49
2, 19814, Note_on_c, 0, 69, 69
2, 19837, Note_off_c, 0, 70, 64
2, 19855, Control_c, 0, 64, 0
2, 19855, Control_c, 0, 64, 0
2, 19899, Control_c, 0, 64, 127
2, 19899, Control_c, 0, 64, 127
2, 20026, Note_on_c, 0, 66, 60
2, 20064, Note_off_c, 0, 69, 64
2, 20064, Note_on_c, 0, 60, 43
2, 20066, Note_on_c, 0, 57, 49
2, 20072, Note_on_c, 0, 50, 58
2, 20074, Note_on_c, 0, 62, 60
2, 20102, Note_off_c, 0, 66, 64
2, 20108, Control_c, 0, 64, 0
2, 20108, Control_c, 0, 64, 0
2, 20120, Control_c, 0, 64, 127
2, 20120, Control_c, 0, 64, 127
2, 20136, Note_off_c, 0, 60, 64
2, 20138, Note_off_c, 0, 57, 64
2, 20144, Note_off_c, 0, 50, 64
2, 20247, Note_off_c, 0, 62, 64
2, 20264, Note_on_c, 0, 62, 43
2, 20264, Note_on_c, 0, 60, 32
2, 20271, Note_on_c, 0, 66, 67
2, 20277, Note_on_c, 0, 57, 32
2, 20277, Note_on_c, 0, 50, 56
2, 20336, Note_off_c, 0, 60, 64
2, 20336, Note_off_c, 0, 62, 64
2, 20349, Note_off_c, 0, 50, 64
2, 20349, Note_off_c, 0, 57, 64
2, 20391, Note_off_c, 0, 38, 64
2, 20467, Note_on_c, 0, 67, 60
2, 20473, Note_on_c, 0, 43, 63
2, 20505, Note_off_c, 0, 66, 64
2, 20510, Control_c, 0, 64, 0
2, 20510, Control_c, 0, 64, 0
2, 20533, Control_c, 0, 64, 127
2, 20533, Control_c, 0, 64, 127
2, 20670, Note_on_c, 0, 62, 35
2, 20670, Note_on_c, 0, 58, 46
2, 20670, Note_on_c, 0, 55, 34
2, 20750, Note_off_c, 0, 58, 64
2, 20753, Note_off_c, 0, 55, 64
2, 20753, Note_off_c, 0, 62, 64
2, 20904, Note_on_c, 0, 69, 64
2, 20904, Note_on_c, 0, 58, 39
2, 20904, Note_on_c, 0, 55, 30
2, 20907, Note_on_c, 0, 62, 32
2, 20917, Note_off_c, 0, 67, 64
2, 20929, Control_c, 0, 64, 0
2, 20929, Control_c, 0, 64, 0
2, 20949, Control_c, 0, 64, 127
2, 20949, Control_c, 0, 64, 127
2, 21001, Note_on_c, 0, 70, 61
2, 21006, Note_off_c, 0, 43, 64
2, 21031, Note_off_c, 0, 69, 64
2, 21047, Note_off_c, 0, 55, 64
2, 21063, Note_off_c, 0, 58, 64
2, 21074, Note_off_c, 0, 62, 64
2, 21086, Note_off_c, 0, 70, 64
2, 21092, Note_on_c, 0, 72, 73
2, 21223, Note_on_c, 0, 74, 67
2, 21243, Note_off_c, 0, 72, 64
2, 21266, Note_on_c, 0, 63, 56
2, 21272, Note_on_c, 0, 67, 54
2, 21272, Note_on_c, 0, 60, 49
2, 21274, Note_on_c, 0, 75, 68
2, 21282, Note_on_c, 0, 55, 47
2, 21295, Control_c, 0, 64, 0
2, 21295, Control_c, 0, 64, 0
2, 21305, Note_off_c, 0, 74, 64
2, 21308, Control_c, 0, 64, 127
2, 21308, Control_c, 0, 64, 127
2, 21330, Note_off_c, 0, 55, 64
2, 21342, Note_off_c, 0, 60, 64
2, 21344, Note_off_c, 0, 63, 64
2, 21349, Note_off_c, 0, 67, 64
2, 21459, Note_on_c, 0, 78, 73
2, 21462, Note_off_c, 0, 75, 64
2, 21468, Note_on_c, 0, 63, 47
2, 21470, Note_on_c, 0, 69, 46
2, 21479, Note_on_c, 0, 60, 38
2, 21481, Note_on_c, 0, 55, 35
2, 21501, Control_c, 0, 64, 0
2, 21501, Control_c, 0, 64, 0
2, 21512, Control_c, 0, 64, 127
2, 21512, Control_c, 0, 64, 127
2, 21666, Note_on_c, 0, 70, 49
2, 21678, Note_on_c, 0, 79, 76
2, 21688, Note_off_c, 0, 69, 64
2, 21688, Note_off_c, 0, 78, 64
2, 21690, Note_off_c, 0, 60, 64
2, 21696, Note_off_c, 0, 55, 64
2, 21699, Note_off_c, 0, 63, 64
2, 21757, Note_on_c, 0, 74, 67
2, 21760, Note_off_c, 0, 79, 64
2, 21862, Note_on_c, 0, 62, 52
2, 21864, Note_on_c, 0, 55, 43
2, 21917, Note_off_c, 0, 62, 64
2, 21923, Note_off_c, 0, 55, 64
2, 22114, Note_on_c, 0, 62, 43
2, 22120, Note_on_c, 0, 55, 35
2, 22143, Control_c, 0, 64, 0
2, 22143, Control_c, 0, 64, 0
2, 22169, Control_c, 0, 64, 127
2, 22169, Control_c, 0, 64, 127
2, 22200, Note_off_c, 0, 55, 64
2, 22200, Note_off_c, 0, 62, 64
2, 22200, Note_off_c, 0, 70, 64
2, 22200, Note_off_c, 0, 74, 64
2, 22315, Note_on_c, 0, 38, 67
2, 22318, Note_on_c, 0, 69, 73
2, 22351, Control_c, 0, 64, 0
2, 22351, Control_c, 0, 64, 0
2, 22384, Control_c, 0, 64, 127
2, 22384, Control_c, 0, 64, 127
2, 22485, Note_on_c, 0, 66, 56
2, 22536, Note_on_c, 0, 60, 52
2, 22536, Note_on_c, 0, 57, 60
2, 22536, Note_on_c, 0, 50, 38
2, 22537, Note_on_c, 0, 62, 73
2, 22540, Note_off_c, 0, 69, 64
2, 22561, Note_off_c, 0, 66, 64
2, 22561, Control_c, 0, 64, 0
2, 22561, Control_c, 0, 64, 0
2, 22575, Control_c, 0, 64, 127
2, 22575, Control_c, 0, 64, 127
2, 22608, Note_off_c, 0, 50, 64
2, 22608, Note_off_c, 0, 57, 64
2, 22608, Note_off_c, 0, 60, 64
2, 22645, Note_off_c, 0, 62, 64
2, 22704, Note_on_c, 0, 62, 38
2, 22711, Note_on_c, 0, 50, 46
2, 22712, Note_on_c, 0, 60, 43
2, 22718, Note_on_c, 0, 66, 76
2, 22718, Note_on_c, 0, 57, 49
2, 22776, Note_off_c, 0, 62, 64
2, 22783, Note_off_c, 0, 50, 64
2, 22784, Note_off_c, 0, 60, 64
2, 22790, Note_off_c, 0, 57, 64
2, 22877, Note_off_c, 0, 38, 64
2, 22944, Note_on_c, 0, 43, 69
2, 22955, Note_on_c, 0, 67, 73
2, 22966, Note_off_c, 0, 66, 64
2, 22986, Control_c, 0, 64, 0
2, 22986, Control_c, 0, 64, 0
2, 23009, Control_c, 0, 64, 127
2, 23009, Control_c, 0, 64, 127
2, 23145, Note_on_c, 0, 55, 35
2, 23152, Note_on_c, 0, 62, 35
2, 23152, Note_on_c, 0, 58, 58
2, 23227, Note_off_c, 0, 58, 64
2, 23227, Note_off_c, 0, 62, 64
2, 23231, Note_off_c, 0, 55, 64
2, 23333, Note_on_c, 0, 74, 63
2, 23333, Note_on_c, 0, 58, 56
2, 23339, Note_on_c, 0, 55, 38
2, 23342, Note_on_c, 0, 62, 49
2, 23346, Control_c, 0, 64, 0
2, 23346, Control_c, 0, 64, 0
2, 23359, Control_c, 0, 64, 127
2, 23359, Control_c, 0, 64, 127
2, 23432, Note_on_c, 0, 73, 60
2, 23444, Note_off_c, 0, 55, 64
2, 23444, Note_off_c, 0, 58, 64
2, 23453, Note_off_c, 0, 62, 64
2, 23465, Note_off_c, 0, 74, 64
2, 23479, Note_off_c, 0, 67, 64
2, 23484, Note_on_c, 0, 70, 65
2, 23498, Note_off_c, 0, 43, 64
2, 23513, Note_off_c, 0, 73, 64
2, 23597, Note_on_c, 0, 69, 69
2, 23616, Note_off_c, 0, 70, 64
2, 23647, Note_on_c, 0, 67, 69
2, 23647, Note_on_c, 0, 58, 46
2, 23653, Note_on_c, 0, 64, 49
2, 23653, Note_on_c, 0, 50, 43
2, 23659, Note_on_c, 0, 55, 42
2, 23664, Note_off_c, 0, 69, 64
2, 23670, Control_c, 0, 64, 0
2, 23670, Control_c, 0, 64, 0
2, 23680, Control_c, 0, 64, 127
2, 23680, Control_c, 0, 64, 127
2, 23712, Note_off_c, 0, 55, 64
2, 23712, Note_off_c, 0, 64, 64
2, 23724, Note_off_c, 0, 58, 64
2, 23726, Note_off_c, 0, 50, 64
2, 23840, Note_on_c, 0, 66, 68
2, 23843, Note_on_c, 0, 61, 49
2, 23843, Note_on_c, 0, 50, 32
2, 23852, Note_on_c, 0, 57, 47
2, 23855, Note_on_c, 0, 55, 30
2, 23869, Note_off_c, 0, 67, 64
2, 23870, Control_c, 0, 64, 0
2, 23870, Control_c, 0, 64, 0
2, 23892, Control_c, 0, 64, 127
2, 23892, Control_c, 0, 64, 127
2, 23947, Note_off_c, 0, 66, 64
2, 24020, Note_on_c, 0, 66, 63
2, 24063, Note_off_c, 0, 57, 64
2, 24079, Note_off_c, 0, 61, 64
2, 24080, Note_off_c, 0, 55, 64
2, 24084, Control_c, 0, 64, 0
2, 24084, Control_c, 0, 64, 0
2, 24091, Note_off_c, 0, 50, 64
2, 24096, Note_on_c, 0, 62, 60
2, 24111, Control_c, 0, 64, 127
2, 24111, Control_c, 0, 64, 127
2, 24118, Note_off_c, 0, 66, 64
2, 24289, Note_on_c, 0, 57, 36
2, 24300, Note_on_c, 0, 50, 32
2, 24308, Control_c, 0, 64, 0
2, 24308, Control_c, 0, 64, 0
2, 24333, Control_c, 0, 64, 127
2, 24333, Control_c, 0, 64, 127
2, 24359, Note_off_c, 0, 50, 64
2, 24361, Note_off_c, 0, 57, 64
2, 24510, Note_on_c, 0, 57, 30
2, 24514, Note_on_c, 0, 50, 30
2, 24564, Note_on_c, 0, 69, 87
2, 24566, Note_off_c, 0, 62, 64
2, 24588, Control_c, 0, 64, 0
2, 24588, Control_c, 0, 64, 0
2, 24593, Note_off_c, 0, 57, 64
2, 24613, Note_off_c, 0, 50, 64
2, 24613, Control_c, 0, 64, 127
2, 24613, Control_c, 0, 64, 127
2, 24809, Note_on_c, 0, 38, 68
2, 24852, Control_c, 0, 64, 0
2, 24852, Control_c, 0, 64, 0
2, 24865, Control_c, 0, 64, 127
2, 24865, Control_c, 0, 64, 127
2, 24979, Note_on_c, 0, 66, 65
2, 25032, Note_on_c, 0, 62, 73
2, 25038, Note_on_c, 0, 50, 53
2, 25041, Note_on_c, 0, 57, 47
2, 25048, Note_off_c, 0, 69, 64
2, 25064, Note_off_c, 0, 66, 64
2, 25071, Control_c, 0, 64, 0
2, 25071, Control_c, 0, 64, 0
2, 25086, Control_c, 0, 64, 127
2, 25086, Control_c, 0, 64, 127
2, 25110, Note_off_c, 0, 50, 64
2, 25139, Note_off_c, 0, 57, 64
2, 25281, Note_off_c, 0, 62, 64
2, 25283, Note_on_c, 0, 57, 30
2, 25284, Note_on_c, 0, 50, 60
2, 25293, Note_on_c, 0, 70, 76
2, 25293, Note_on_c, 0, 60, 43
2, 25299, Note_on_c, 0, 62, 47
2, 25305, Note_on_c, 0, 66, 43
2, 25336, Control_c, 0, 64, 0
2, 25336, Control_c, 0, 64, 0
2, 25360, Control_c, 0, 64, 127
2, 25360, Control_c, 0, 64, 127
2, 25361, Note_off_c, 0, 57, 64
2, 25362, Note_off_c, 0, 50, 64
2, 25363, Note_off_c, 0, 38, 64
2, 25371, Note_off_c, 0, 60, 64
2, 25377, Note_off_c, 0, 62, 64
2, 25383, Note_off_c, 0, 66, 64
2, 25504, Note_on_c, 0, 69, 64
2, 25530, Note_off_c, 0, 70, 64
2, 25555, Note_on_c, 0, 67, 73
2, 25557, Note_on_c, 0, 43, 60
2, 25571, Note_off_c, 0, 69, 64
2, 25584, Control_c, 0, 64, 0
2, 25584, Control_c, 0, 64, 0
2, 25607, Control_c, 0, 64, 127
2, 25607, Control_c, 0, 64, 127
2, 25751, Note_on_c, 0, 58, 36
2, 25754, Note_on_c, 0, 55, 34
2, 25760, Note_on_c, 0, 62, 47
2, 25780, Control_c, 0, 64, 0
2, 25780, Control_c, 0, 64, 0
2, 25791, Control_c, 0, 64, 127
2, 25791, Control_c, 0, 64, 127
2, 25822, Note_off_c, 0, 58, 64
2, 25832, Note_off_c, 0, 55, 64
2, 25837, Note_off_c, 0, 62, 64
2, 25939, Note_on_c, 0, 58, 53
2, 25941, Note_on_c, 0, 69, 68
2, 25941, Note_on_c, 0, 55, 43
2, 25945, Control_c, 0, 64, 0
2, 25945, Control_c, 0, 64, 0
2, 25954, Note_on_c, 0, 62, 43
2, 25957, Note_off_c, 0, 67, 64
2, 25972, Control_c, 0, 64, 127
2, 25972, Control_c, 0, 64, 127
2, 26039, Note_off_c, 0, 55, 64
2, 26043, Note_on_c, 0, 70, 73
2, 26057, Note_off_c, 0, 58, 64
2, 26066, Note_off_c, 0, 62, 64
2, 26071, Note_off_c, 0, 69, 64
2, 26103, Note_off_c, 0, 43, 64
2, 26107, Note_on_c, 0, 72, 71
2, 26117, Note_off_c, 0, 70, 64
2, 26228, Note_on_c, 0, 74, 69
2, 26245, Note_off_c, 0, 72, 64
2, 26267, Note_on_c, 0, 67, 46
2, 26267, Note_on_c, 0, 63, 46
2, 26271, Note_on_c, 0, 60, 39
2, 26275, Note_on_c, 0, 75, 58
2, 26280, Note_on_c, 0, 55, 38
2, 26287, Control_c, 0, 64, 0
2, 26287, Control_c, 0, 64, 0
2, 26298, Control_c, 0, 64, 127
2, 26298, Control_c, 0, 64, 127
2, 26303, Note_off_c, 0, 74, 64
2, 26333, Note_off_c, 0, 55, 64
2, 26337, Note_off_c, 0, 60, 64
2, 26337, Note_off_c, 0, 63, 64
2, 26337, Note_off_c, 0, 67, 64
2, 26435, Note_on_c, 0, 78, 73
2, 26439, Note_off_c, 0, 75, 64
2, 26441, Note_on_c, 0, 63, 46
2, 26449, Note_on_c, 0, 69, 30
2, 26449, Note_on_c, 0, 60, 35
2, 26455, Note_on_c, 0, 55, 28
2, 26470, Control_c, 0, 64, 0
2, 26470, Control_c, 0, 64, 0
2, 26483, Control_c, 0, 64, 127
2, 26483, Control_c, 0, 64, 127
2, 26619, Note_on_c, 0, 70, 60
2, 26624, Note_on_c, 0, 79, 71
2, 26642, Note_off_c, 0, 60, 64
2, 26651, Note_off_c, 0, 63, 64
2, 26654, Note_off_c, 0, 55, 64
2, 26658, Note_off_c, 0, 69, 64
2, 26658, Note_off_c, 0, 78, 64
2, 26697, Note_on_c, 0, 74, 69
2, 26710, Note_off_c, 0, 79, 64
2, 26794, Note_on_c, 0, 62, 49
2, 26801, Note_on_c, 0, 55, 46
2, 26817, Control_c, 0, 64, 0
2, 26817, Control_c, 0, 64, 0
2, 26838, Control_c, 0, 64, 127
2, 26838, Control_c, 0, 64, 127
2, 26867, Note_off_c, 0, 62, 64
2, 26870, Note_off_c, 0, 55, 64
2, 27005, Note_off_c, 0, 74, 64
2, 27007, Note_on_c, 0, 62, 47
2, 27008, Note_on_c, 0, 55, 43
2, 27043, Note_off_c, 0, 62, 64
2, 27059, Note_off_c, 0, 55, 64
2, 27066, Note_off_c, 0, 70, 64
2, 27241, Note_on_c, 0, 69, 75
2, 27244, Note_on_c, 0, 38, 60
2, 27295, Control_c, 0, 64, 0
2, 27295, Control_c, 0, 64, 0
2, 27308, Control_c, 0, 64, 127
2, 27308, Control_c, 0, 64, 127
2, 27401, Note_on_c, 0, 66, 58
2, 27431, Note_off_c, 0, 69, 64
2, 27451, Note_on_c, 0, 50, 67
2, 27453, Note_on_c, 0, 62, 65
2, 27456, Note_on_c, 0, 60, 52
2, 27457, Note_on_c, 0, 57, 67
2, 27476, Note_off_c, 0, 66, 64
2, 27522, Note_off_c, 0, 50, 64
2, 27527, Note_off_c, 0, 60, 64
2, 27528, Note_off_c, 0, 57, 64
2, 27629, Note_on_c, 0, 50, 61
2, 27630, Note_on_c, 0, 66, 78
2, 27641, Note_off_c, 0, 62, 64
2, 27642, Note_on_c, 0, 57, 35
2, 27645, Note_on_c, 0, 60, 43
2, 27646, Note_on_c, 0, 62, 52
2, 27700, Note_off_c, 0, 50, 64
2, 27713, Note_off_c, 0, 57, 64
2, 27716, Note_off_c, 0, 60, 64
2, 27717, Note_off_c, 0, 62, 64
2, 27802, Note_off_c, 0, 38, 64
2, 27842, Note_on_c, 0, 43, 71
2, 27874, Note_on_c, 0, 67, 82
2, 27885, Note_off_c, 0, 66, 64
2, 27907, Control_c, 0, 64, 0
2, 27907, Control_c, 0, 64, 0
2, 27923, Control_c, 0, 64, 127
2, 27923, Control_c, 0, 64, 127
2, 28087, Note_on_c, 0, 58, 53
2, 28090, Note_on_c, 0, 62, 38
2, 28097, Note_on_c, 0, 55, 42
2, 28113, Control_c, 0, 64, 0
2, 28113, Control_c, 0, 64, 0
2, 28140, Control_c, 0, 64, 127
2, 28140, Control_c, 0, 64, 127
2, 28159, Note_off_c, 0, 58, 64
2, 28162, Note_off_c, 0, 55, 64
2, 28175, Note_off_c, 0, 62, 64
2, 28264, Note_on_c, 0, 74, 63
2, 28267, Note_on_c, 0, 58, 60
2, 28271, Note_on_c, 0, 62, 47
2, 28271, Note_on_c, 0, 55, 53
2, 28368, Note_on_c, 0, 73, 52
2, 28376, Note_off_c, 0, 55, 64
2, 28380, Note_off_c, 0, 58, 64
2, 28385, Note_off_c, 0, 74, 64
2, 28396, Note_off_c, 0, 62, 64
2, 28406, Note_off_c, 0, 67, 64
2, 28408, Note_off_c, 0, 43, 64
2, 28420, Note_on_c, 0, 70, 73
2, 28438, Note_off_c, 0, 73, 64
2, 28526, Note_on_c, 0, 69, 65
2, 28548, Note_off_c, 0, 70, 64
2, 28571, Note_on_c, 0, 58, 41
2, 28575, Note_on_c, 0, 67, 65
2, 28579, Note_on_c, 0, 50, 52
2, 28581, Note_on_c, 0, 64, 43
2, 28588, Note_on_c, 0, 55, 34
2, 28595, Note_off_c, 0, 69, 64
2, 28596, Control_c, 0, 64, 0
2, 28596, Control_c, 0, 64, 0
2, 28609, Control_c, 0, 64, 127
2, 28609, Control_c, 0, 64, 127
2, 28633, Note_off_c, 0, 64, 64
2, 28638, Note_off_c, 0, 55, 64
2, 28645, Note_off_c, 0, 58, 64
2, 28654, Note_off_c, 0, 50, 64
2, 28758, Note_on_c, 0, 66, 65
2, 28765, Note_on_c, 0, 61, 45
2, 28775, Note_on_c, 0, 57, 34
2, 28784, Control_c, 0, 64, 0
2, 28784, Control_c, 0, 64, 0
2, 28791, Note_off_c, 0, 67, 64
2, 28797, Note_on_c, 0, 50, 26
2, 28810, Control_c, 0, 64, 127
2, 28810, Control_c, 0, 64, 127
2, 28867, Note_off_c, 0, 66, 64
2, 28933, Note_on_c, 0, 66, 54
2, 28978, Note_off_c, 0, 57, 64
2, 28982, Note_off_c, 0, 61, 64
2, 28995, Note_off_c, 0, 50, 64
2, 28997, Note_on_c, 0, 62, 60
2, 29016, Note_off_c, 0, 66, 64
2, 29210, Note_on_c, 0, 57, 38
2, 29216, Note_on_c, 0, 50, 34
2, 29233, Control_c, 0, 64, 0
2, 29233, Control_c, 0, 64, 0
2, 29266, Control_c, 0, 64, 127
2, 29266, Control_c, 0, 64, 127
2, 29289, Note_off_c, 0, 50, 64
2, 29292, Note_off_c, 0, 57, 64
2, 29484, Note_on_c, 0, 57, 21
2, 29484, Note_on_c, 0, 50, 19
2, 29553, Note_off_c, 0, 57, 64
2, 29567, Note_off_c, 0, 50, 64
2, 29689, Note_off_c, 0, 62, 64
2, 29784, Note_on_c, 0, 41, 67
2, 29797, Note_on_c, 0, 65, 79
2, 29844, Control_c, 0, 64, 0
2, 29844, Control_c, 0, 64, 0
2, 29858, Control_c, 0, 64, 127
2, 29858, Control_c, 0, 64, 127
2, 30054, Note_on_c, 0, 67, 42
2, 30056, Note_on_c, 0, 58, 45
2, 30071, Note_on_c, 0, 63, 49
2, 30077, Note_on_c, 0, 53, 47
2, 30100, Note_off_c, 0, 65, 64
2, 30130, Note_off_c, 0, 67, 64
2, 30132, Note_on_c, 0, 69, 47
2, 30137, Note_off_c, 0, 58, 64
2, 30152, Note_off_c, 0, 63, 64
2, 30158, Note_off_c, 0, 53, 64
2, 30166, Note_on_c, 0, 67, 56
2, 30193, Note_off_c, 0, 69, 64
2, 30214, Note_on_c, 0, 65, 65
2, 30225, Note_off_c, 0, 67, 64
2, 30228, Note_on_c, 0, 63, 41
2, 30234, Note_on_c, 0, 53, 43
2, 30237, Note_on_c, 0, 57, 42
2, 30309, Note_off_c, 0, 63, 64
2, 30315, Note_off_c, 0, 53, 64
2, 30318, Note_off_c, 0, 57, 64
2, 30381, Note_on_c, 0, 63, 39
2, 30381, Note_on_c, 0, 58, 43
2, 30384, Note_on_c, 0, 53, 43
2, 30388, Note_on_c, 0, 67, 69
2, 30422, Note_off_c, 0, 65, 64
2, 30431, Note_on_c, 0, 69, 54
2, 30456, Note_off_c, 0, 67, 64
2, 30462, Note_off_c, 0, 58, 64
2, 30462, Note_off_c, 0, 63, 64
2, 30465, Note_off_c, 0, 53, 64
2, 30483, Note_on_c, 0, 67, 60
2, 30505, Note_off_c, 0, 69, 64
2, 30535, Note_on_c, 0, 63, 43
2, 30537, Note_on_c, 0, 65, 60
2, 30540, Note_off_c, 0, 67, 64
2, 30540, Note_on_c, 0, 57, 43
2, 30546, Note_on_c, 0, 53, 43
2, 30591, Note_off_c, 0, 41, 64
2, 30616, Note_off_c, 0, 63, 64
2, 30621, Note_off_c, 0, 57, 64
2, 30627, Note_off_c, 0, 53, 64
2, 30703, Note_on_c, 0, 79, 63
2, 30741, Note_off_c, 0, 65, 64
2, 30915, Note_on_c, 0, 41, 60
2, 30925, Note_on_c, 0, 77, 65
2, 30931, Note_off_c, 0, 79, 64
2, 30954, Control_c, 0, 64, 0
2, 30954, Control_c, 0, 64, 0
2, 30971, Control_c, 0, 64, 127
2, 30971, Control_c, 0, 64, 127
2, 31000, Note_on_c, 0, 79, 61
2, 31013, Note_off_c, 0, 77, 64
2, 31057, Note_on_c, 0, 77, 56
2, 31075, Note_off_c, 0, 79, 64
2, 31099, Note_on_c, 0, 76, 60
2, 31112, Note_on_c, 0, 60, 43
2, 31119, Note_on_c, 0, 63, 56
2, 31125, Note_on_c, 0, 69, 46
2, 31135, Note_off_c, 0, 77, 64
2, 31171, Note_off_c, 0, 60, 64
2, 31178, Note_off_c, 0, 63, 64
2, 31184, Note_off_c, 0, 69, 64
2, 31260, Note_on_c, 0, 69, 43
2, 31265, Note_on_c, 0, 63, 47
2, 31265, Note_on_c, 0, 60, 46
2, 31319, Note_off_c, 0, 69, 64
2, 31324, Note_off_c, 0, 60, 64
2, 31324, Note_off_c, 0, 63, 64
2, 31331, Note_on_c, 0, 75, 54
2, 31369, Note_off_c, 0, 76, 64
2, 31400, Note_off_c, 0, 75, 64
2, 31430, Note_on_c, 0, 46, 58
2, 31438, Note_on_c, 0, 75, 61
2, 31457, Note_off_c, 0, 41, 64
2, 31515, Note_on_c, 0, 77, 56
2, 31527, Note_off_c, 0, 75, 64
2, 31552, Note_on_c, 0, 53, 58
2, 31572, Note_on_c, 0, 75, 58
2, 31576, Note_on_c, 0, 58, 36
2, 31596, Note_off_c, 0, 77, 64
2, 31600, Note_on_c, 0, 62, 27
2, 31624, Note_on_c, 0, 65, 43
2, 31635, Note_on_c, 0, 74, 64
2, 31655, Note_off_c, 0, 75, 64
2, 31656, Note_on_c, 0, 70, 53
2, 31665, Control_c, 0, 64, 0
2, 31665, Control_c, 0, 64, 0
2, 31689, Note_off_c, 0, 53, 64
2, 31690, Note_off_c, 0, 58, 64
2, 31697, Control_c, 0, 64, 127
2, 31697, Control_c, 0, 64, 127
2, 31710, Note_off_c, 0, 65, 64
2, 31714, Note_off_c, 0, 46, 64
2, 31716, Note_off_c, 0, 62, 64
2, 31741, Note_off_c, 0, 70, 64
2, 31917, Note_off_c, 0, 74, 64
2, 31979, Note_on_c, 0, 41, 76
2, 31983, Note_on_c, 0, 65, 65
2, 32001, Control_c, 0, 64, 0
2, 32001, Control_c, 0, 64, 0
2, 32014, Control_c, 0, 64, 127
2, 32014, Control_c, 0, 64, 127
2, 32148, Note_on_c, 0, 67, 54
2, 32152, Note_on_c, 0, 53, 41
2, 32153, Note_on_c, 0, 63, 47
2, 32156, Note_on_c, 0, 58, 49
2, 32176, Note_off_c, 0, 65, 64
2, 32198, Note_off_c, 0, 67, 64
2, 32204, Note_on_c, 0, 69, 47
2, 32233, Note_off_c, 0, 53, 64
2, 32234, Note_off_c, 0, 63, 64
2, 32237, Note_off_c, 0, 58, 64
2, 32245, Note_on_c, 0, 67, 54
2, 32268, Note_off_c, 0, 69, 64
2, 32287, Note_on_c, 0, 65, 57
2, 32293, Note_on_c, 0, 63, 60
2, 32299, Note_on_c, 0, 53, 46
2, 32302, Note_on_c, 0, 57, 54
2, 32306, Note_off_c, 0, 67, 64
2, 32374, Note_off_c, 0, 63, 64
2, 32380, Note_off_c, 0, 53, 64
2, 32383, Note_off_c, 0, 57, 64
2, 32432, Note_on_c, 0, 53, 41
2, 32438, Note_on_c, 0, 58, 60
2, 32444, Note_on_c, 0, 67, 47
2, 32446, Note_on_c, 0, 63, 47
2, 32483, Note_off_c, 0, 65, 64
2, 32483, Note_on_c, 0, 69, 54
2, 32496, Note_off_c, 0, 67, 64
2, 32513, Note_off_c, 0, 53, 64
2, 32519, Note_off_c, 0, 58, 64
2, 32527, Note_off_c, 0, 63, 64
2, 32536, Note_on_c, 0, 67, 58
2, 32564, Note_off_c, 0, 69, 64
2, 32580, Note_on_c, 0, 57, 58
2, 32584, Note_on_c, 0, 65, 60
2, 32588, Note_on_c, 0, 63, 53
2, 32592, Note_off_c, 0, 67, 64
2, 32592, Note_on_c, 0, 53, 50
2, 32661, Note_off_c, 0, 57, 64
2, 32669, Note_off_c, 0, 63, 64
2, 32673, Note_off_c, 0, 53, 64
2, 32734, Note_on_c, 0, 75, 53
2, 32738, Note_on_c, 0, 67, 47
2, 32742, Note_off_c, 0, 41, 64
2, 32745, Note_on_c, 0, 57, 49
2, 32747, Note_on_c, 0, 53, 36
2, 32757, Note_off_c, 0, 65, 64
2, 32826, Note_off_c, 0, 57, 64
2, 32828, Note_off_c, 0, 53, 64
2, 32914, Note_on_c, 0, 65, 52
2, 32915, Note_on_c, 0, 74, 54
2, 32920, Note_off_c, 0, 67, 64
2, 32921, Note_on_c, 0, 53, 38
2, 32927, Note_off_c, 0, 75, 64
2, 32928, Note_on_c, 0, 57, 43
2, 32944, Control_c, 0, 64, 0
2, 32944, Control_c, 0, 64, 0
2, 32957, Control_c, 0, 64, 127
2, 32957, Control_c, 0, 64, 127
2, 32980, Note_on_c, 0, 75, 53
2, 32993, Note_off_c, 0, 74, 64
2, 33002, Note_off_c, 0, 53, 64
2, 33009, Note_off_c, 0, 57, 64
2, 33040, Note_on_c, 0, 74, 47
2, 33056, Note_off_c, 0, 75, 64
2, 33092, Note_on_c, 0, 73, 58
2, 33094, Note_on_c, 0, 64, 56
2, 33107, Note_on_c, 0, 57, 53
2, 33107, Note_on_c, 0, 53, 47
2, 33117, Note_off_c, 0, 74, 64
2, 33122, Control_c, 0, 64, 0
2, 33122, Control_c, 0, 64, 0
2, 33134, Note_off_c, 0, 65, 64
2, 33134, Control_c, 0, 64, 127
2, 33134, Control_c, 0, 64, 127
2, 33188, Note_off_c, 0, 53, 64
2, 33188, Note_off_c, 0, 57, 64
2, 33291, Note_off_c, 0, 73, 64
2, 33291, Note_on_c, 0, 63, 38
2, 33298, Note_on_c, 0, 57, 56
2, 33298, Note_on_c, 0, 53, 53
2, 33324, Note_off_c, 0, 64, 64
2, 33379, Note_off_c, 0, 53, 64
2, 33379, Note_off_c, 0, 57, 64
2, 33396, Note_on_c, 0, 72, 58
2, 33422, Note_off_c, 0, 63, 64
2, 33471, Note_off_c, 0, 72, 64
2, 33510, Note_on_c, 0, 72, 58
2, 33518, Note_on_c, 0, 46, 54
2, 33543, Control_c, 0, 64, 0
2, 33543, Control_c, 0, 64, 0
2, 33556, Control_c, 0, 64, 127
2, 33556, Control_c, 0, 64, 127
2, 33570, Note_off_c, 0, 72, 64
2, 33576, Note_on_c, 0, 74, 30
2, 33621, Note_on_c, 0, 72, 52
2, 33645, Note_off_c, 0, 74, 64
2, 33675, Note_on_c, 0, 70, 54
2, 33680, Note_on_c, 0, 62, 46
2, 33680, Note_on_c, 0, 58, 28
2, 33690, Note_off_c, 0, 72, 64
2, 33690, Note_on_c, 0, 53, 21
2, 33741, Note_off_c, 0, 58, 64
2, 33741, Note_off_c, 0, 62, 64
2, 33751, Note_off_c, 0, 53, 64
2, 33835, Note_on_c, 0, 58, 49
2, 33838, Note_on_c, 0, 53, 38
2, 33840, Note_on_c, 0, 62, 46
2, 33845, Note_on_c, 0, 69, 49
2, 33869, Note_off_c, 0, 70, 64
2, 33896, Note_off_c, 0, 58, 64
2, 33899, Note_off_c, 0, 53, 64
2, 33901, Note_off_c, 0, 62, 64
2, 33917, Note_on_c, 0, 67, 52
2, 33935, Note_off_c, 0, 69, 64
2, 34015, Note_on_c, 0, 65, 82
2, 34018, Note_on_c, 0, 41, 69
2, 34022, Note_off_c, 0, 67, 64
2, 34038, Control_c, 0, 64, 0
2, 34038, Control_c, 0, 64, 0
2, 34044, Note_off_c, 0, 46, 64
2, 34060, Control_c, 0, 64, 127
2, 34060, Control_c, 0, 64, 127
2, 34204, Control_c, 0, 64, 0
2, 34204, Control_c, 0, 64, 0
2, 34208, Note_on_c, 0, 53, 53
2, 34211, Note_on_c, 0, 67, 54
2, 34211, Note_on_c, 0, 58, 34
2, 34215, Note_on_c, 0, 63, 38
2, 34227, Control_c, 0, 64, 127
2, 34227, Control_c, 0, 64, 127
2, 34244, Note_off_c, 0, 65, 64
2, 34260, Note_off_c, 0, 67, 64
2, 34263, Note_on_c, 0, 69, 52
2, 34279, Note_off_c, 0, 53, 64
2, 34282, Note_off_c, 0, 58, 64
2, 34286, Note_off_c, 0, 63, 64
2, 34312, Note_on_c, 0, 67, 52
2, 34332, Note_off_c, 0, 69, 64
2, 34356, Note_on_c, 0, 65, 56
2, 34356, Note_on_c, 0, 57, 52
2, 34362, Note_on_c, 0, 63, 47
2, 34362, Note_on_c, 0, 53, 53
2, 34369, Note_off_c, 0, 67, 64
2, 34427, Note_off_c, 0, 57, 64
2, 34433, Note_off_c, 0, 53, 64
2, 34433, Note_off_c, 0, 63, 64
2, 34496, Note_on_c, 0, 53, 53
2, 34500, Note_on_c, 0, 67, 60
2, 34502, Note_on_c, 0, 58, 54
2, 34508, Note_on_c, 0, 63, 54
2, 34545, Note_off_c, 0, 65, 64
2, 34548, Note_on_c, 0, 69, 53
2, 34560, Note_off_c, 0, 67, 64
2, 34567, Note_off_c, 0, 53, 64
2, 34573, Note_off_c, 0, 58, 64
2, 34579, Note_off_c, 0, 63, 64
2, 34601, Note_on_c, 0, 67, 56
2, 34620, Note_off_c, 0, 69, 64
2, 34642, Note_on_c, 0, 63, 56
2, 34647, Note_on_c, 0, 57, 53
2, 34650, Note_on_c, 0, 65, 63
2, 34655, Note_off_c, 0, 67, 64
2, 34655, Note_on_c, 0, 53, 43
2, 34713, Note_off_c, 0, 63, 64
2, 34718, Note_off_c, 0, 57, 64
2, 34726, Note_off_c, 0, 53, 64
2, 34784, Note_off_c, 0, 41, 64
2, 34800, Note_on_c, 0, 79, 65
2, 34808, Note_on_c, 0, 53, 53
2, 34809, Note_on_c, 0, 63, 34
2, 34809, Note_on_c, 0, 57, 38
2, 34848, Note_off_c, 0, 65, 64
2, 34879, Note_off_c, 0, 53, 64
2, 34880, Note_off_c, 0, 57, 64
2, 34880, Note_off_c, 0, 63, 64
2, 34967, Note_on_c, 0, 41, 54
2, 34974, Note_on_c, 0, 77, 63
2, 34976, Note_off_c, 0, 79, 64
2, 35030, Note_on_c, 0, 79, 54
2, 35045, Note_off_c, 0, 77, 64
2, 35087, Note_on_c, 0, 77, 47
2, 35100, Note_off_c, 0, 79, 64
2, 35131, Note_on_c, 0, 76, 58
2, 35137, Note_on_c, 0, 60, 54
2, 35143, Note_on_c, 0, 63, 46
2, 35148, Note_on_c, 0, 69, 34
2, 35157, Note_off_c, 0, 77, 64
2, 35157, Control_c, 0, 64, 0
2, 35157, Control_c, 0, 64, 0
2, 35170, Control_c, 0, 64, 127
2, 35170, Control_c, 0, 64, 127
2, 35196, Note_off_c, 0, 60, 64
2, 35202, Note_off_c, 0, 63, 64
2, 35207, Note_off_c, 0, 69, 64
2, 35287, Note_on_c, 0, 69, 34
2, 35292, Note_on_c, 0, 60, 38
2, 35298, Note_on_c, 0, 63, 38
2, 35346, Note_off_c, 0, 69, 64
2, 35351, Note_off_c, 0, 60, 64
2, 35357, Note_off_c, 0, 63, 64
2, 35399, Note_on_c, 0, 75, 58
2, 35411, Note_off_c, 0, 76, 64
2, 35462, Note_off_c, 0, 75, 64
2, 35496, Note_off_c, 0, 41, 64
2, 35513, Note_on_c, 0, 46, 54
2, 35517, Note_on_c, 0, 75, 49
2, 35614, Note_on_c, 0, 77, 54
2, 35627, Note_off_c, 0, 75, 64
2, 35665, Note_on_c, 0, 75, 53
2, 35693, Note_on_c, 0, 53, 53
2, 35695, Note_off_c, 0, 77, 64
2, 35723, Note_on_c, 0, 58, 38
2, 35746, Note_on_c, 0, 62, 2
2, 35748, Note_on_c, 0, 65, 38
2, 35750, Note_on_c, 0, 74, 63
2, 35758, Note_on_c, 0, 70, 60
2, 35765, Note_off_c, 0, 75, 64
2, 35791, Control_c, 0, 64, 0
2, 35791, Control_c, 0, 64, 0
2, 35794, Note_off_c, 0, 53, 64
2, 35807, Control_c, 0, 64, 127
2, 35807, Control_c, 0, 64, 127
2, 35815, Note_off_c, 0, 46, 64
2, 35824, Note_off_c, 0, 58, 64
2, 35828, Note_off_c, 0, 62, 64
2, 35851, Note_off_c, 0, 65, 64
2, 35879, Note_off_c, 0, 70, 64
2, 36118, Control_c, 0, 64, 0
2, 36118, Control_c, 0, 64, 0
2, 36133, Note_on_c, 0, 41, 76
2, 36155, Note_on_c, 0, 65, 69
2, 36159, Note_off_c, 0, 74, 64
2, 36167, Control_c, 0, 64, 127
2, 36167, Control_c, 0, 64, 127
2, 36345, Note_on_c, 0, 63, 52
2, 36345, Note_on_c, 0, 58, 49
2, 36351, Note_on_c, 0, 67, 50
2, 36359, Note_on_c, 0, 53, 27
2, 36375, Note_off_c, 0, 65, 64
2, 36411, Note_off_c, 0, 67, 64
2, 36413, Note_on_c, 0, 69, 43
2, 36417, Note_off_c, 0, 58, 64
2, 36417, Note_off_c, 0, 63, 64
2, 36431, Note_off_c, 0, 53, 64
2, 36457, Note_on_c, 0, 67, 56
2, 36480, Note_off_c, 0, 69, 64
2, 36488, Control_c, 0, 64, 0
2, 36488, Control_c, 0, 64, 0
2, 36499, Note_on_c, 0, 65, 54
2, 36499, Note_on_c, 0, 63, 41
2, 36499, Note_on_c, 0, 53, 38
2, 36506, Note_on_c, 0, 57, 41
2, 36511, Note_off_c, 0, 67, 64
2, 36515, Control_c, 0, 64, 127
2, 36515, Control_c, 0, 64, 127
2, 36571, Note_off_c, 0, 53, 64
2, 36571, Note_off_c, 0, 63, 64
2, 36578, Note_off_c, 0, 57, 64
2, 36640, Note_on_c, 0, 53, 41
2, 36642, Note_on_c, 0, 58, 53
2, 36646, Note_on_c, 0, 63, 43
2, 36648, Note_on_c, 0, 67, 53
2, 36684, Note_off_c, 0, 65, 64
2, 36691, Note_on_c, 0, 69, 53
2, 36707, Note_off_c, 0, 67, 64
2, 36712, Note_off_c, 0, 53, 64
2, 36714, Note_off_c, 0, 58, 64
2, 36718, Note_off_c, 0, 63, 64
2, 36743, Note_on_c, 0, 67, 58
2, 36760, Note_off_c, 0, 69, 64
2, 36785, Note_on_c, 0, 65, 58
2, 36792, Note_on_c, 0, 57, 43
2, 36794, Note_off_c, 0, 67, 64
2, 36794, Note_on_c, 0, 63, 52
2, 36795, Note_on_c, 0, 53, 38
2, 36864, Note_off_c, 0, 57, 64
2, 36866, Note_off_c, 0, 63, 64
2, 36867, Note_off_c, 0, 53, 64
2, 36905, Note_off_c, 0, 41, 64
2, 36947, Note_on_c, 0, 67, 46
2, 36949, Note_off_c, 0, 65, 64
2, 36956, Note_on_c, 0, 75, 49
2, 36959, Note_on_c, 0, 57, 42
2, 36959, Note_on_c, 0, 53, 34
2, 37031, Note_off_c, 0, 53, 64
2, 37031, Note_off_c, 0, 57, 64
2, 37118, Note_on_c, 0, 65, 58
2, 37130, Note_on_c, 0, 53, 43
2, 37131, Note_on_c, 0, 74, 49
2, 37131, Note_on_c, 0, 57, 53
2, 37144, Note_off_c, 0, 75, 64
2, 37145, Note_off_c, 0, 67, 64
2, 37198, Note_on_c, 0, 75, 54
2, 37202, Note_off_c, 0, 53, 64
2, 37203, Note_off_c, 0, 57, 64
2, 37206, Note_off_c, 0, 74, 64
2, 37254, Note_on_c, 0, 74, 43
2, 37267, Note_off_c, 0, 75, 64
2, 37297, Note_on_c, 0, 73, 56
2, 37304, Note_on_c, 0, 64, 49
2, 37311, Note_on_c, 0, 57, 53
2, 37313, Note_on_c, 0, 53, 43
2, 37326, Note_off_c, 0, 74, 64
2, 37336, Control_c, 0, 64, 0
2, 37336, Control_c, 0, 64, 0
2, 37349, Control_c, 0, 64, 127
2, 37349, Control_c, 0, 64, 127
2, 37361, Note_off_c, 0, 65, 64
2, 37383, Note_off_c, 0, 57, 64
2, 37385, Note_off_c, 0, 53, 64
2, 37486, Note_on_c, 0, 63, 35
2, 37494, Note_on_c, 0, 57, 54
2, 37500, Note_on_c, 0, 53, 38
2, 37530, Note_off_c, 0, 64, 64
2, 37566, Note_off_c, 0, 57, 64
2, 37572, Note_off_c, 0, 53, 64
2, 37609, Note_on_c, 0, 72, 54
2, 37615, Note_off_c, 0, 73, 64
2, 37631, Note_off_c, 0, 63, 64
2, 37683, Note_off_c, 0, 72, 64
2, 37729, Note_on_c, 0, 46, 60
2, 37735, Note_on_c, 0, 72, 50
2, 37848, Note_on_c, 0, 74, 42
2, 37871, Note_off_c, 0, 72, 64
2, 37893, Note_on_c, 0, 72, 50
2, 37916, Note_off_c, 0, 74, 64
2, 37948, Note_on_c, 0, 53, 49
2, 37951, Note_on_c, 0, 70, 43
2, 37952, Note_on_c, 0, 62, 43
2, 37962, Control_c, 0, 64, 0
2, 37962, Control_c, 0, 64, 0
2, 37972, Note_off_c, 0, 72, 64
2, 37977, Control_c, 0, 64, 127
2, 37977, Control_c, 0, 64, 127
2, 38021, Note_off_c, 0, 53, 64
2, 38023, Note_off_c, 0, 62, 64
2, 38158, Note_off_c, 0, 70, 64
2, 38161, Note_on_c, 0, 62, 36
2, 38167, Note_on_c, 0, 53, 49
2, 38211, Note_off_c, 0, 62, 64
2, 38227, Note_off_c, 0, 53, 64
2, 38278, Note_on_c, 0, 70, 71
2, 38337, Note_off_c, 0, 46, 64
2, 38384, Note_off_c, 0, 70, 64
2, 38392, Note_on_c, 0, 68, 63
2, 38400, Note_on_c, 0, 72, 63
2, 38400, Note_on_c, 0, 34, 78
2, 38422, Control_c, 0, 64, 0
2, 38422, Control_c, 0, 64, 0
2, 38447, Note_off_c, 0, 68, 64
2, 38448, Control_c, 0, 64, 127
2, 38448, Control_c, 0, 64, 127
2, 38455, Note_off_c, 0, 72, 64
2, 38516, Note_on_c, 0, 70, 65
2, 38516, Note_on_c, 0, 67, 56
2, 38574, Note_on_c, 0, 65, 60
2, 38577, Note_on_c, 0, 68, 69
2, 38581, Note_on_c, 0, 58, 46
2, 38581, Note_on_c, 0, 53, 36
2, 38586, Note_off_c, 0, 67, 64
2, 38586, Note_off_c, 0, 70, 64
2, 38587, Note_on_c, 0, 62, 42
2, 38587, Control_c, 0, 64, 0
2, 38587, Control_c, 0, 64, 0
2, 38615, Control_c, 0, 64, 127
2, 38615, Control_c, 0, 64, 127
2, 38640, Note_off_c, 0, 53, 64
2, 38640, Note_off_c, 0, 58, 64
2, 38646, Note_off_c, 0, 62, 64
2, 38748, Note_on_c, 0, 62, 39
2, 38757, Note_on_c, 0, 58, 43
2, 38757, Note_on_c, 0, 53, 35
2, 38802, Note_off_c, 0, 65, 64
2, 38805, Note_off_c, 0, 68, 64
2, 38807, Note_off_c, 0, 62, 64
2, 38816, Note_off_c, 0, 53, 64
2, 38816, Note_off_c, 0, 58, 64
2, 38840, Note_on_c, 0, 68, 72
2, 38846, Note_on_c, 0, 72, 67
2, 38901, Note_off_c, 0, 72, 64
2, 38904, Note_off_c, 0, 68, 64
2, 38921, Note_off_c, 0, 34, 64
2, 38939, Note_on_c, 0, 68, 71
2, 38939, Note_on_c, 0, 39, 72
2, 38941, Note_on_c, 0, 72, 71
2, 38953, Control_c, 0, 64, 0
2, 38953, Control_c, 0, 64, 0
2, 38976, Control_c, 0, 64, 127
2, 38976, Control_c, 0, 64, 127
2, 38978, Note_off_c, 0, 68, 64
2, 38980, Note_off_c, 0, 72, 64
2, 39044, Note_on_c, 0, 67, 60
2, 39048, Note_on_c, 0, 70, 54
2, 39097, Note_on_c, 0, 58, 56
2, 39100, Note_off_c, 0, 67, 64
2, 39104, Note_on_c, 0, 67, 60
2, 39106, Note_on_c, 0, 55, 56
2, 39110, Note_on_c, 0, 63, 56
2, 39114, Control_c, 0, 64, 0
2, 39114, Control_c, 0, 64, 0
2, 39127, Note_off_c, 0, 70, 64
2, 39149, Note_off_c, 0, 58, 64
2, 39156, Note_off_c, 0, 55, 64
2, 39163, Control_c, 0, 64, 127
2, 39163, Control_c, 0, 64, 127
2, 39264, Note_off_c, 0, 63, 64
2, 39270, Note_off_c, 0, 67, 64
2, 39270, Note_on_c, 0, 55, 46
2, 39272, Note_on_c, 0, 63, 43
2, 39277, Note_on_c, 0, 58, 43
2, 39317, Note_off_c, 0, 63, 64
2, 39317, Note_off_c, 0, 55, 64
2, 39322, Note_off_c, 0, 58, 64
2, 39352, Note_on_c, 0, 68, 73
2, 39360, Note_on_c, 0, 72, 68
2, 39401, Note_off_c, 0, 68, 64
2, 39401, Note_off_c, 0, 72, 64
2, 39415, Control_c, 0, 64, 0
2, 39415, Control_c, 0, 64, 0
2, 39429, Note_off_c, 0, 39, 64
2, 39430, Note_on_c, 0, 72, 71
2, 39430, Note_on_c, 0, 68, 71
2, 39434, Note_on_c, 0, 46, 68
2, 39456, Control_c, 0, 64, 127
2, 39456, Control_c, 0, 64, 127
2, 39469, Note_off_c, 0, 68, 64
2, 39469, Note_off_c, 0, 72, 64
2, 39536, Note_on_c, 0, 70, 65
2, 39542, Note_on_c, 0, 67, 60
2, 39588, Note_on_c, 0, 65, 57
2, 39589, Control_c, 0, 64, 0
2, 39589, Control_c, 0, 64, 0
2, 39597, Note_on_c, 0, 53, 36
2, 39598, Note_on_c, 0, 68, 69
2, 39598, Note_on_c, 0, 62, 38
2, 39598, Note_on_c, 0, 58, 38
2, 39612, Note_off_c, 0, 67, 64
2, 39620, Note_off_c, 0, 70, 64
2, 39627, Control_c, 0, 64, 127
2, 39627, Control_c, 0, 64, 127
2, 39646, Note_off_c, 0, 62, 64
2, 39648, Note_off_c, 0, 53, 64
2, 39650, Note_off_c, 0, 58, 64
2, 39743, Note_on_c, 0, 58, 38
2, 39748, Note_on_c, 0, 62, 32
2, 39751, Note_on_c, 0, 53, 30
2, 39782, Note_off_c, 0, 53, 64
2, 39785, Note_off_c, 0, 65, 64
2, 39795, Note_off_c, 0, 68, 64
2, 39798, Note_off_c, 0, 62, 64
2, 39800, Note_off_c, 0, 58, 64
2, 39815, Note_off_c, 0, 46, 64
2, 39832, Note_on_c, 0, 72, 69
2, 39832, Note_on_c, 0, 68, 54
2, 39872, Note_off_c, 0, 72, 64
2, 39875, Note_off_c, 0, 68, 64
2, 39905, Note_on_c, 0, 39, 79
2, 39907, Note_on_c, 0, 72, 64
2, 39908, Note_on_c, 0, 68, 69
2, 39946, Note_off_c, 0, 72, 64
2, 39947, Note_off_c, 0, 68, 64
2, 40008, Note_on_c, 0, 70, 61
2, 40008, Note_on_c, 0, 67, 56
2, 40047, Note_off_c, 0, 67, 64
2, 40047, Note_off_c, 0, 70, 64
2, 40070, Note_on_c, 0, 67, 43
2, 40072, Note_on_c, 0, 75, 64
2, 40072, Note_on_c, 0, 51, 38
2, 40075, Note_on_c, 0, 58, 38
2, 40079, Note_on_c, 0, 63, 38
2, 40150, Note_off_c, 0, 51, 64
2, 40153, Note_off_c, 0, 58, 64
2, 40157, Note_off_c, 0, 63, 64
2, 40191, Note_off_c, 0, 67, 64
2, 40193, Note_off_c, 0, 75, 64
2, 40236, Note_on_c, 0, 79, 69
2, 40243, Note_on_c, 0, 63, 61
2, 40248, Note_on_c, 0, 59, 67
2, 40248, Note_on_c, 0, 51, 61
2, 40253, Note_on_c, 0, 67, 82
2, 40262, Control_c, 0, 64, 0
2, 40262, Control_c, 0, 64, 0
2, 40275, Control_c, 0, 64, 127
2, 40275, Control_c, 0, 64, 127
2, 40314, Note_off_c, 0, 63, 64
2, 40319, Note_off_c, 0, 51, 64
2, 40319, Note_off_c, 0, 59, 64
2, 40374, Note_off_c, 0, 67, 64
2, 40374, Note_off_c, 0, 79, 64
2, 40406, Note_on_c, 0, 77, 69
2, 40406, Note_on_c, 0, 68, 75
2, 40406, Note_on_c, 0, 63, 64
2, 40415, Note_on_c, 0, 60, 61
2, 40415, Note_on_c, 0, 51, 43
2, 40416, Control_c, 0, 64, 0
2, 40416, Control_c, 0, 64, 0
2, 40441, Note_off_c, 0, 39, 64
2, 40453, Control_c, 0, 64, 127
2, 40453, Control_c, 0, 64, 127
2, 40477, Note_off_c, 0, 63, 64
2, 40486, Note_off_c, 0, 51, 64
2, 40486, Note_off_c, 0, 60, 64
2, 40502, Note_off_c, 0, 68, 64
2, 40517, Note_on_c, 0, 75, 69
2, 40523, Note_off_c, 0, 77, 64
2, 40554, Control_c, 0, 64, 0
2, 40554, Control_c, 0, 64, 0
2, 40563, Note_on_c, 0, 72, 75
2, 40566, Note_off_c, 0, 75, 64
2, 40569, Note_on_c, 0, 68, 76
2, 40574, Note_on_c, 0, 60, 61
2, 40579, Note_on_c, 0, 63, 54
2, 40582, Note_on_c, 0, 51, 54
2, 40602, Control_c, 0, 64, 127
2, 40602, Control_c, 0, 64, 127
2, 40645, Note_off_c, 0, 60, 64
2, 40649, Note_off_c, 0, 68, 64
2, 40650, Note_off_c, 0, 63, 64
2, 40653, Note_off_c, 0, 51, 64
2, 40700, Note_off_c, 0, 72, 64
2, 40721, Control_c, 0, 64, 0
2, 40721, Control_c, 0, 64, 0
2, 40736, Note_on_c, 0, 75, 67
2, 40740, Note_on_c, 0, 67, 76
2, 40740, Note_on_c, 0, 63, 49
2, 40740, Note_on_c, 0, 51, 54
2, 40749, Note_on_c, 0, 58, 54
2, 40773, Control_c, 0, 64, 127
2, 40773, Control_c, 0, 64, 127
2, 40811, Note_off_c, 0, 51, 64
2, 40811, Note_off_c, 0, 63, 64
2, 40818, Note_off_c, 0, 67, 64
2, 40820, Note_off_c, 0, 58, 64
2, 40834, Note_off_c, 0, 75, 64
2, 40901, Control_c, 0, 64, 0
2, 40901, Control_c, 0, 64, 0
2, 40910, Note_on_c, 0, 68, 71
2, 40912, Note_on_c, 0, 60, 60
2, 40913, Note_on_c, 0, 63, 60
2, 40914, Note_on_c, 0, 77, 71
2, 40914, Note_on_c, 0, 51, 60
2, 40944, Note_off_c, 0, 68, 64
2, 40946, Note_off_c, 0, 60, 64
2, 40947, Note_off_c, 0, 63, 64
2, 40947, Control_c, 0, 64, 127
2, 40947, Control_c, 0, 64, 127
2, 40948, Note_off_c, 0, 51, 64
2, 40948, Note_off_c, 0, 77, 64
2, 41022, Note_on_c, 0, 75, 61
2, 41063, Control_c, 0, 64, 0
2, 41063, Control_c, 0, 64, 0
2, 41077, Note_on_c, 0, 68, 78
2, 41080, Note_on_c, 0, 72, 76
2, 41087, Note_on_c, 0, 63, 54
2, 41088, Note_on_c, 0, 60, 60
2, 41093, Note_on_c, 0, 51, 61
2, 41096, Note_off_c, 0, 75, 64
2, 41130, Control_c, 0, 64, 127
2, 41130, Control_c, 0, 64, 127
2, 41158, Note_off_c, 0, 63, 64
2, 41159, Note_off_c, 0, 60, 64
2, 41164, Note_off_c, 0, 51, 64
2, 41192, Note_off_c, 0, 68, 64
2, 41227, Note_off_c, 0, 72, 64
2, 41276, Note_on_c, 0, 75, 69
2, 41280, Note_on_c, 0, 63, 52
2, 41280, Control_c, 0, 64, 0
2, 41280, Control_c, 0, 64, 0
2, 41289, Note_on_c, 0, 67, 61
2, 41289, Note_on_c, 0, 51, 32
2, 41293, Note_on_c, 0, 58, 52
2, 41303, Control_c, 0, 64, 127
2, 41303, Control_c, 0, 64, 127
2, 41351, Note_off_c, 0, 63, 64
2, 41360, Note_off_c, 0, 51, 64
2, 41364, Note_off_c, 0, 58, 64
2, 41443, Note_off_c, 0, 75, 64
2, 41456, Note_off_c, 0, 67, 64
2, 41484, Note_on_c, 0, 62, 43
2, 41484, Note_on_c, 0, 58, 54
2, 41486, Note_on_c, 0, 72, 65
2, 41487, Note_on_c, 0, 51, 47
2, 41488, Note_on_c, 0, 68, 65
2, 41497, Control_c, 0, 64, 0
2, 41497, Control_c, 0, 64, 0
2, 41525, Note_off_c, 0, 72, 64
2, 41527, Note_off_c, 0, 68, 64
2, 41531, Control_c, 0, 64, 127
2, 41531, Control_c, 0, 64, 127
2, 41555, Note_off_c, 0, 58, 64
2, 41555, Note_off_c, 0, 62, 64
2, 41558, Note_off_c, 0, 51, 64
2, 41600, Note_on_c, 0, 70, 52
2, 41600, Note_on_c, 0, 67, 43
2, 41639, Control_c, 0, 64, 0
2, 41639, Control_c, 0, 64, 0
2, 41644, Note_on_c, 0, 65, 56
2, 41646, Note_on_c, 0, 68, 61
2, 41654, Note_on_c, 0, 58, 35
2, 41660, Note_on_c, 0, 62, 49
2, 41670, Note_on_c, 0, 51, 30
2, 41670, Control_c, 0, 64, 127
2, 41670, Control_c, 0, 64, 127
2, 41683, Note_off_c, 0, 70, 64
2, 41686, Note_off_c, 0, 67, 64
2, 41725, Note_off_c, 0, 58, 64
2, 41731, Note_off_c, 0, 62, 64
2, 41741, Note_off_c, 0, 51, 64
2, 41814, Note_on_c, 0, 51, 43
2, 41821, Note_on_c, 0, 62, 45
2, 41821, Note_on_c, 0, 58, 43
2, 41885, Note_off_c, 0, 51, 64
2, 41892, Note_off_c, 0, 58, 64
2, 41892, Note_off_c, 0, 62, 64
2, 41893, Note_off_c, 0, 65, 64
2, 41895, Note_off_c, 0, 68, 64
2, 41896, Note_on_c, 0, 68, 68
2, 41904, Note_on_c, 0, 72, 65
2, 41947, Note_off_c, 0, 68, 64
2, 41949, Note_off_c, 0, 72, 64
2, 41972, Note_on_c, 0, 68, 65
2, 41976, Note_on_c, 0, 72, 65
2, 41978, Note_on_c, 0, 39, 71
2, 42001, Control_c, 0, 64, 0
2, 42001, Control_c, 0, 64, 0
2, 42026, Control_c, 0, 64, 127
2, 42026, Control_c, 0, 64, 127
2, 42093, Note_off_c, 0, 68, 64
2, 42097, Note_off_c, 0, 72, 64
2, 42104, Note_on_c, 0, 67, 38
2, 42112, Note_on_c, 0, 70, 54
2, 42142, Note_off_c, 0, 67, 64
2, 42152, Note_on_c, 0, 58, 54
2, 42153, Note_on_c, 0, 67, 60
2, 42153, Note_on_c, 0, 63, 56
2, 42161, Note_on_c, 0, 55, 42
2, 42161, Control_c, 0, 64, 0
2, 42161, Control_c, 0, 64, 0
2, 42195, Note_off_c, 0, 70, 64
2, 42210, Control_c, 0, 64, 127
2, 42210, Control_c, 0, 64, 127
2, 42224, Note_off_c, 0, 58, 64
2, 42233, Note_off_c, 0, 55, 64
2, 42308, Note_off_c, 0, 63, 64
2, 42312, Note_on_c, 0, 58, 34
2, 42315, Note_on_c, 0, 55, 46
2, 42318, Note_off_c, 0, 67, 64
2, 42384, Note_off_c, 0, 58, 64
2, 42387, Note_off_c, 0, 55, 64
2, 42416, Note_on_c, 0, 62, 56
2, 42468, Note_on_c, 0, 68, 53
2, 42474, Note_off_c, 0, 39, 64
2, 42477, Note_on_c, 0, 72, 71
2, 42480, Note_on_c, 0, 46, 64
2, 42492, Note_off_c, 0, 62, 64
2, 42494, Control_c, 0, 64, 0
2, 42494, Control_c, 0, 64, 0
2, 42507, Note_off_c, 0, 68, 64
2, 42516, Note_off_c, 0, 72, 64
2, 42531, Control_c, 0, 64, 127
2, 42531, Control_c, 0, 64, 127
2, 42598, Note_on_c, 0, 70, 56
2, 42603, Note_on_c, 0, 67, 64
2, 42642, Note_on_c, 0, 58, 26
2, 42645, Note_on_c, 0, 53, 27
2, 42652, Note_on_c, 0, 65, 56
2, 42658, Note_on_c, 0, 68, 65
2, 42658, Note_on_c, 0, 62, 27
2, 42665, Control_c, 0, 64, 0
2, 42665, Control_c, 0, 64, 0
2, 42672, Note_off_c, 0, 70, 64
2, 42674, Note_off_c, 0, 67, 64
2, 42688, Control_c, 0, 64, 127
2, 42688, Control_c, 0, 64, 127
2, 42714, Note_off_c, 0, 58, 64
2, 42717, Note_off_c, 0, 53, 64
2, 42730, Note_off_c, 0, 62, 64
2, 42808, Note_on_c, 0, 53, 34
2, 42812, Note_on_c, 0, 62, 32
2, 42816, Note_on_c, 0, 58, 41
2, 42855, Note_off_c, 0, 65, 64
2, 42861, Note_off_c, 0, 68, 64
2, 42880, Note_off_c, 0, 53, 64
2, 42884, Note_off_c, 0, 62, 64
2, 42888, Note_off_c, 0, 58, 64
2, 42912, Note_on_c, 0, 72, 56
2, 42913, Note_on_c, 0, 68, 64
2, 42960, Note_off_c, 0, 68, 64
2, 42978, Note_off_c, 0, 72, 64
2, 42994, Note_on_c, 0, 68, 65
2, 42998, Note_on_c, 0, 72, 65
2, 43003, Note_off_c, 0, 46, 64
2, 43008, Note_on_c, 0, 39, 65
2, 43009, Control_c, 0, 64, 0
2, 43009, Control_c, 0, 64, 0
2, 43031, Control_c, 0, 64, 127
2, 43031, Control_c, 0, 64, 127
2, 43033, Note_off_c, 0, 68, 64
2, 43037, Note_off_c, 0, 72, 64
2, 43112, Note_on_c, 0, 70, 34
2, 43112, Note_on_c, 0, 67, 60
2, 43142, Note_off_c, 0, 67, 64
2, 43161, Note_on_c, 0, 67, 57
2, 43169, Note_on_c, 0, 63, 53
2, 43172, Note_on_c, 0, 55, 43
2, 43176, Note_off_c, 0, 70, 64
2, 43179, Note_on_c, 0, 58, 24
2, 43244, Note_off_c, 0, 55, 64
2, 43251, Note_off_c, 0, 58, 64
2, 43265, Note_off_c, 0, 63, 64
2, 43273, Control_c, 0, 64, 0
2, 43273, Control_c, 0, 64, 0
2, 43295, Control_c, 0, 64, 127
2, 43295, Control_c, 0, 64, 127
2, 43305, Control_c, 0, 64, 0
2, 43305, Control_c, 0, 64, 0
2, 43327, Control_c, 0, 64, 127
2, 43327, Control_c, 0, 64, 127
2, 43336, Note_on_c, 0, 63, 35
2, 43344, Note_on_c, 0, 58, 21
2, 43344, Note_on_c, 0, 55, 38
2, 43353, Note_off_c, 0, 67, 64
2, 43416, Note_off_c, 0, 55, 64
2, 43416, Note_off_c, 0, 58, 64
2, 43421, Note_on_c, 0, 70, 46
2, 43423, Note_on_c, 0, 67, 60
2, 43432, Note_off_c, 0, 63, 64
2, 43454, Note_off_c, 0, 70, 64
2, 43456, Note_off_c, 0, 67, 64
2, 43472, Note_on_c, 0, 70, 79
2, 43480, Note_on_c, 0, 67, 63
2, 43508, Note_off_c, 0, 67, 64
2, 43512, Note_on_c, 0, 74, 72
2, 43520, Note_off_c, 0, 70, 64
2, 43525, Note_off_c, 0, 39, 64
2, 43558, Note_on_c, 0, 46, 65
2, 43567, Control_c, 0, 64, 0
2, 43567, Control_c, 0, 64, 0
2, 43572, Note_on_c, 0, 72, 71
2, 43574, Note_on_c, 0, 68, 68
2, 43579, Note_off_c, 0, 74, 64
2, 43606, Control_c, 0, 64, 127
2, 43606, Control_c, 0, 64, 127
2, 43611, Note_off_c, 0, 72, 64
2, 43613, Note_off_c, 0, 68, 64
2, 43696, Note_on_c, 0, 67, 68
2, 43699, Note_on_c, 0, 70, 76
2, 43728, Note_off_c, 0, 67, 64
2, 43748, Note_on_c, 0, 68, 78
2, 43755, Note_on_c, 0, 65, 73
2, 43760, Note_on_c, 0, 58, 45
2, 43764, Note_on_c, 0, 53, 31
2, 43770, Note_on_c, 0, 62, 32
2, 43770, Control_c, 0, 64, 0
2, 43770, Control_c, 0, 64, 0
2, 43777, Note_off_c, 0, 70, 64
2, 43794, Control_c, 0, 64, 127
2, 43794, Control_c, 0, 64, 127
2, 43801, Note_off_c, 0, 53, 64
2, 43806, Note_off_c, 0, 62, 64
2, 43807, Note_off_c, 0, 58, 64
2, 43912, Note_on_c, 0, 58, 60
2, 43917, Note_on_c, 0, 62, 56
2, 43920, Note_on_c, 0, 53, 52
2, 43943, Note_off_c, 0, 62, 64
2, 43944, Note_off_c, 0, 58, 64
2, 43946, Note_off_c, 0, 68, 64
2, 43950, Note_off_c, 0, 53, 64
2, 43953, Note_off_c, 0, 65, 64
2, 44004, Note_on_c, 0, 72, 64
2, 44004, Note_on_c, 0, 68, 61
2, 44033, Note_off_c, 0, 68, 64
2, 44043, Note_off_c, 0, 72, 64
2, 44078, Note_on_c, 0, 72, 69
2, 44079, Note_on_c, 0, 39, 69
2, 44082, Note_on_c, 0, 68, 78
2, 44085, Note_off_c, 0, 46, 64
2, 44087, Control_c, 0, 64, 0
2, 44087, Control_c, 0, 64, 0
2, 44102, Control_c, 0, 64, 127
2, 44102, Control_c, 0, 64, 127
2, 44117, Note_off_c, 0, 72, 64
2, 44121, Note_off_c, 0, 68, 64
2, 44183, Note_on_c, 0, 70, 76
2, 44184, Note_on_c, 0, 67, 78
2, 44206, Note_off_c, 0, 70, 64
2, 44210, Note_off_c, 0, 67, 64
2, 44248, Note_on_c, 0, 51, 41
2, 44249, Note_on_c, 0, 63, 41
2, 44255, Note_on_c, 0, 75, 73
2, 44255, Note_on_c, 0, 58, 41
2, 44262, Note_on_c, 0, 67, 56
2, 44324, Note_off_c, 0, 51, 64
2, 44326, Note_off_c, 0, 63, 64
2, 44333, Note_off_c, 0, 58, 64
2, 44344, Note_off_c, 0, 67, 64
2, 44369, Note_off_c, 0, 75, 64
2, 44412, Note_on_c, 0, 79, 61
2, 44415, Note_on_c, 0, 63, 60
2, 44415, Note_on_c, 0, 51, 64
2, 44421, Note_on_c, 0, 67, 82
2, 44421, Note_on_c, 0, 59, 61
2, 44435, Control_c, 0, 64, 0
2, 44435, Control_c, 0, 64, 0
2, 44451, Control_c, 0, 64, 127
2, 44451, Control_c, 0, 64, 127
2, 44487, Note_off_c, 0, 51, 64
2, 44487, Note_off_c, 0, 63, 64
2, 44493, Note_off_c, 0, 59, 64
2, 44501, Note_off_c, 0, 67, 64
2, 44555, Note_off_c, 0, 79, 64
2, 44579, Note_on_c, 0, 68, 73
2, 44582, Control_c, 0, 64, 0
2, 44582, Control_c, 0, 64, 0
2, 44589, Note_on_c, 0, 63, 61
2, 44590, Note_on_c, 0, 77, 73
2, 44591, Note_on_c, 0, 60, 61
2, 44598, Note_on_c, 0, 51, 56
2, 44631, Control_c, 0, 64, 127
2, 44631, Control_c, 0, 64, 127
2, 44661, Note_off_c, 0, 63, 64
2, 44663, Note_off_c, 0, 60, 64
2, 44670, Note_off_c, 0, 51, 64
2, 44680, Note_off_c, 0, 68, 64
2, 44700, Note_off_c, 0, 77, 64
2, 44706, Note_on_c, 0, 75, 61
2, 44729, Control_c, 0, 64, 0
2, 44729, Control_c, 0, 64, 0
2, 44743, Note_on_c, 0, 72, 73
2, 44746, Note_off_c, 0, 75, 64
2, 44749, Note_on_c, 0, 68, 75
2, 44752, Note_on_c, 0, 63, 60
2, 44754, Note_on_c, 0, 60, 60
2, 44760, Note_on_c, 0, 51, 60
2, 44773, Control_c, 0, 64, 127
2, 44773, Control_c, 0, 64, 127
2, 44820, Note_off_c, 0, 72, 64
2, 44824, Note_off_c, 0, 63, 64
2, 44826, Note_off_c, 0, 60, 64
2, 44828, Note_off_c, 0, 68, 64
2, 44832, Note_off_c, 0, 51, 64
2, 44832, Note_off_c, 0, 39, 64
2, 44925, Note_on_c, 0, 75, 73
2, 44926, Note_on_c, 0, 67, 69
2, 44932, Note_on_c, 0, 63, 52
2, 44933, Control_c, 0, 64, 0
2, 44933, Control_c, 0, 64, 0
2, 44939, Note_on_c, 0, 58, 54
2, 44942, Note_on_c, 0, 51, 31
2, 44969, Control_c, 0, 64, 127
2, 44969, Control_c, 0, 64, 127
2, 44987, Note_off_c, 0, 67, 64
2, 44988, Note_off_c, 0, 51, 64
2, 44992, Note_off_c, 0, 58, 64
2, 45002, Note_off_c, 0, 63, 64
2, 45034, Note_off_c, 0, 75, 64
2, 45092, Note_on_c, 0, 68, 58
2, 45093, Note_on_c, 0, 77, 56
2, 45102, Note_on_c, 0, 63, 27
2, 45103, Note_on_c, 0, 60, 35
2, 45105, Note_on_c, 0, 51, 27
2, 45109, Control_c, 0, 64, 0
2, 45109, Control_c, 0, 64, 0
2, 45144, Control_c, 0, 64, 127
2, 45144, Control_c, 0, 64, 127
2, 45174, Note_off_c, 0, 63, 64
2, 45175, Note_off_c, 0, 60, 64
2, 45177, Note_off_c, 0, 51, 64
2, 45213, Note_off_c, 0, 68, 64
2, 45221, Note_off_c, 0, 77, 64
2, 45221, Note_on_c, 0, 75, 47
2, 45261, Note_on_c, 0, 72, 64
2, 45261, Note_on_c, 0, 68, 57
2, 45267, Note_on_c, 0, 60, 50
2, 45267, Control_c, 0, 64, 0
2, 45267, Control_c, 0, 64, 0
2, 45278, Note_off_c, 0, 75, 64
2, 45278, Note_on_c, 0, 63, 32
2, 45278, Note_on_c, 0, 51, 45
2, 45290, Control_c, 0, 64, 127
2, 45290, Control_c, 0, 64, 127
2, 45339, Note_off_c, 0, 60, 64
2, 45350, Note_off_c, 0, 51, 64
2, 45350, Note_off_c, 0, 63, 64
2, 45365, Note_off_c, 0, 68, 64
2, 45446, Note_on_c, 0, 75, 63
2, 45455, Note_on_c, 0, 63, 42
2, 45455, Note_on_c, 0, 51, 42
2, 45456, Note_on_c, 0, 67, 63
2, 45456, Control_c, 0, 64, 0
2, 45456, Control_c, 0, 64, 0
2, 45465, Note_off_c, 0, 72, 64
2, 45466, Note_on_c, 0, 58, 38
2, 45486, Control_c, 0, 64, 127
2, 45486, Control_c, 0, 64, 127
2, 45527, Note_off_c, 0, 51, 64
2, 45527, Note_off_c, 0, 63, 64
2, 45538, Note_off_c, 0, 58, 64
2, 45570, Note_off_c, 0, 67, 64
2, 45604, Note_off_c, 0, 75, 64
2, 45645, Note_on_c, 0, 58, 43
2, 45649, Note_on_c, 0, 72, 68
2, 45652, Note_on_c, 0, 68, 65
2, 45655, Note_on_c, 0, 51, 34
2, 45660, Note_on_c, 0, 62, 32
2, 45667, Control_c, 0, 64, 0
2, 45667, Control_c, 0, 64, 0
2, 45701, Control_c, 0, 64, 127
2, 45701, Control_c, 0, 64, 127
2, 45717, Note_off_c, 0, 58, 64
2, 45727, Note_off_c, 0, 51, 64
2, 45732, Note_off_c, 0, 62, 64
2, 45750, Note_off_c, 0, 72, 64
2, 45751, Note_on_c, 0, 70, 64
2, 45761, Note_on_c, 0, 67, 49
2, 45766, Note_off_c, 0, 68, 64
2, 45810, Note_on_c, 0, 65, 52
2, 45817, Note_on_c, 0, 68, 60
2, 45830, Control_c, 0, 64, 0
2, 45830, Control_c, 0, 64, 0
2, 45836, Note_off_c, 0, 70, 64
2, 45836, Note_on_c, 0, 58, 43
2, 45838, Note_on_c, 0, 62, 38
2, 45843, Note_off_c, 0, 67, 64
2, 45843, Note_on_c, 0, 51, 32
2, 45864, Control_c, 0, 64, 127
2, 45864, Control_c, 0, 64, 127
2, 45908, Note_off_c, 0, 58, 64
2, 45910, Note_off_c, 0, 62, 64
2, 45915, Note_off_c, 0, 51, 64
2, 46000, Note_on_c, 0, 62, 35
2, 46000, Note_on_c, 0, 58, 43
2, 46008, Note_on_c, 0, 51, 28
2, 46041, Note_off_c, 0, 65, 64
2, 46048, Note_off_c, 0, 68, 64
2, 46072, Note_off_c, 0, 58, 64
2, 46072, Note_off_c, 0, 62, 64
2, 46080, Note_off_c, 0, 51, 64
2, 46088, Note_on_c, 0, 68, 61
2, 46090, Note_on_c, 0, 72, 65
2, 46186, Note_off_c, 0, 68, 64
2, 46188, Note_off_c, 0, 72, 64
2, 46213, Control_c, 0, 64, 0
2, 46213, Control_c, 0, 64, 0
2, 46216, Note_on_c, 0, 61, 56
2, 46222, Note_on_c, 0, 39, 60
2, 46226, Note_on_c, 0, 67, 71
2, 46231, Note_on_c, 0, 72, 72
2, 46251, Control_c, 0, 64, 0
2, 46251, Control_c, 0, 64, 0
2, 46272, Control_c, 0, 64, 127
2, 46272, Control_c, 0, 64, 127
2, 46357, Note_off_c, 0, 67, 64
2, 46363, Note_off_c, 0, 72, 64
2, 46370, Note_on_c, 0, 70, 65
2, 46394, Note_off_c, 0, 61, 64
2, 46437, Note_on_c, 0, 61, 54
2, 46440, Note_on_c, 0, 67, 78
2, 46447, Note_on_c, 0, 58, 43
2, 46448, Note_on_c, 0, 51, 54
2, 46454, Note_off_c, 0, 70, 64
2, 46471, Control_c, 0, 64, 0
2, 46471, Control_c, 0, 64, 0
2, 46493, Control_c, 0, 64, 127
2, 46493, Control_c, 0, 64, 127
2, 46661, Note_off_c, 0, 51, 64
2, 46677, Note_off_c, 0, 61, 64
2, 46693, Note_on_c, 0, 61, 47
2, 46696, Note_on_c, 0, 57, 38
2, 46697, Note_off_c, 0, 58, 64
2, 46703, Note_on_c, 0, 51, 36
2, 46717, Control_c, 0, 64, 0
2, 46717, Control_c, 0, 64, 0
2, 46743, Control_c, 0, 64, 127
2, 46743, Control_c, 0, 64, 127
2, 46763, Note_off_c, 0, 39, 64
2, 46916, Note_off_c, 0, 51, 64
2, 46920, Control_c, 0, 64, 0
2, 46920, Control_c, 0, 64, 0
2, 46946, Note_off_c, 0, 57, 64
2, 46946, Control_c, 0, 64, 127
2, 46946, Control_c, 0, 64, 127
2, 47008, Note_on_c, 0, 69, 68
2, 47016, Note_on_c, 0, 60, 54
2, 47017, Note_on_c, 0, 38, 53
2, 47034, Note_off_c, 0, 67, 64
2, 47043, Control_c, 0, 64, 0
2, 47043, Control_c, 0, 64, 0
2, 47064, Note_off_c, 0, 61, 64
2, 47076, Control_c, 0, 64, 127
2, 47076, Control_c, 0, 64, 127
2, 47188, Note_on_c, 0, 66, 63
2, 47194, Note_off_c, 0, 69, 64
2, 47203, Note_off_c, 0, 60, 64
2, 47240, Note_on_c, 0, 62, 67
2, 47246, Note_on_c, 0, 60, 58
2, 47249, Note_on_c, 0, 50, 38
2, 47255, Note_on_c, 0, 57, 38
2, 47257, Note_off_c, 0, 66, 64
2, 47266, Control_c, 0, 64, 0
2, 47266, Control_c, 0, 64, 0
2, 47292, Control_c, 0, 64, 127
2, 47292, Control_c, 0, 64, 127
2, 47334, Note_off_c, 0, 50, 64
2, 47340, Note_off_c, 0, 57, 64
2, 47383, Note_off_c, 0, 60, 64
2, 47439, Note_on_c, 0, 50, 43
2, 47441, Note_off_c, 0, 62, 64
2, 47444, Note_on_c, 0, 66, 63
2, 47448, Note_on_c, 0, 62, 41
2, 47448, Note_on_c, 0, 60, 54
2, 47448, Note_on_c, 0, 57, 38
2, 47568, Note_off_c, 0, 38, 64
2, 47591, Control_c, 0, 64, 0
2, 47591, Control_c, 0, 64, 0
2, 47613, Control_c, 0, 64, 127
2, 47613, Control_c, 0, 64, 127
2, 47617, Note_off_c, 0, 50, 64
2, 47626, Note_off_c, 0, 57, 64
2, 47661, Note_off_c, 0, 60, 64
2, 47661, Note_off_c, 0, 62, 64
2, 47676, Note_on_c, 0, 43, 67
2, 47712, Note_on_c, 0, 67, 68
2, 47720, Note_on_c, 0, 58, 38
2, 47745, Note_off_c, 0, 66, 64
2, 47745, Control_c, 0, 64, 0
2, 47745, Control_c, 0, 64, 0
2, 47783, Control_c, 0, 64, 127
2, 47783, Control_c, 0, 64, 127
2, 47853, Note_off_c, 0, 58, 64
2, 47952, Note_on_c, 0, 58, 60
2, 47957, Note_on_c, 0, 62, 49
2, 47962, Note_on_c, 0, 55, 30
2, 48019, Note_off_c, 0, 58, 64
2, 48021, Note_off_c, 0, 62, 64
2, 48026, Note_off_c, 0, 55, 64
2, 48092, Note_off_c, 0, 67, 64
2, 48153, Note_on_c, 0, 58, 54
2, 48157, Note_on_c, 0, 69, 63
2, 48162, Note_on_c, 0, 55, 42
2, 48168, Note_on_c, 0, 62, 42
2, 48179, Control_c, 0, 64, 0
2, 48179, Control_c, 0, 64, 0
2, 48195, Control_c, 0, 64, 127
2, 48195, Control_c, 0, 64, 127
2, 48244, Note_on_c, 0, 70, 69
2, 48252, Note_off_c, 0, 55, 64
2, 48252, Note_off_c, 0, 43, 64
2, 48268, Note_off_c, 0, 58, 64
2, 48277, Note_off_c, 0, 69, 64
2, 48283, Note_off_c, 0, 62, 64
2, 48322, Note_on_c, 0, 72, 68
2, 48334, Note_off_c, 0, 70, 64
2, 48441, Note_on_c, 0, 74, 60
2, 48458, Note_off_c, 0, 72, 64
2, 48493, Note_on_c, 0, 75, 67
2, 48496, Note_on_c, 0, 63, 47
2, 48502, Note_on_c, 0, 67, 35
2, 48502, Note_on_c, 0, 60, 38
2, 48509, Note_on_c, 0, 55, 30
2, 48510, Control_c, 0, 64, 0
2, 48510, Control_c, 0, 64, 0
2, 48517, Note_off_c, 0, 74, 64
2, 48538, Control_c, 0, 64, 127
2, 48538, Control_c, 0, 64, 127
2, 48549, Note_off_c, 0, 60, 64
2, 48555, Note_off_c, 0, 55, 64
2, 48556, Note_off_c, 0, 67, 64
2, 48556, Note_off_c, 0, 63, 64
2, 48700, Note_on_c, 0, 78, 68
2, 48705, Note_off_c, 0, 75, 64
2, 48709, Note_on_c, 0, 69, 31
2, 48713, Note_on_c, 0, 63, 42
2, 48715, Note_on_c, 0, 55, 32
2, 48718, Note_on_c, 0, 60, 38
2, 48723, Control_c, 0, 64, 0
2, 48723, Control_c, 0, 64, 0
2, 48771, Control_c, 0, 64, 127
2, 48771, Control_c, 0, 64, 127
2, 48932, Note_on_c, 0, 70, 43
2, 48935, Note_off_c, 0, 60, 64
2, 48936, Note_on_c, 0, 79, 58
2, 48955, Note_off_c, 0, 69, 64
2, 48962, Note_off_c, 0, 63, 64
2, 48962, Note_off_c, 0, 78, 64
2, 48965, Note_off_c, 0, 55, 64
2, 49016, Note_off_c, 0, 79, 64
2, 49020, Note_on_c, 0, 74, 60
2, 49116, Note_on_c, 0, 62, 38
2, 49119, Note_on_c, 0, 55, 41
2, 49124, Control_c, 0, 64, 0
2, 49124, Control_c, 0, 64, 0
2, 49160, Control_c, 0, 64, 127
2, 49160, Control_c, 0, 64, 127
2, 49173, Note_off_c, 0, 55, 64
2, 49175, Note_off_c, 0, 62, 64
2, 49315, Note_on_c, 0, 62, 38
2, 49320, Note_off_c, 0, 74, 64
2, 49321, Note_on_c, 0, 55, 30
2, 49370, Note_off_c, 0, 62, 64
2, 49387, Note_off_c, 0, 55, 64
2, 49415, Note_off_c, 0, 70, 64
2, 49554, Note_on_c, 0, 38, 69
2, 49563, Note_on_c, 0, 69, 80
2, 49599, Control_c, 0, 64, 0
2, 49599, Control_c, 0, 64, 0
2, 49620, Control_c, 0, 64, 127
2, 49620, Control_c, 0, 64, 127
2, 49718, Note_on_c, 0, 66, 65
2, 49752, Note_off_c, 0, 69, 64
2, 49757, Note_on_c, 0, 50, 58
2, 49762, Note_on_c, 0, 62, 69
2, 49764, Note_on_c, 0, 57, 56
2, 49768, Note_on_c, 0, 60, 43
2, 49779, Control_c, 0, 64, 0
2, 49779, Control_c, 0, 64, 0
2, 49786, Note_off_c, 0, 66, 64
2, 49793, Control_c, 0, 64, 127
2, 49793, Control_c, 0, 64, 127
2, 49816, Note_off_c, 0, 50, 64
2, 49823, Note_off_c, 0, 57, 64
2, 49827, Note_off_c, 0, 60, 64
2, 49918, Note_off_c, 0, 62, 64
2, 49946, Note_on_c, 0, 66, 82
2, 49948, Note_on_c, 0, 50, 57
2, 49952, Note_on_c, 0, 57, 45
2, 49955, Note_on_c, 0, 60, 43
2, 49959, Note_on_c, 0, 62, 49
2, 50007, Note_off_c, 0, 50, 64
2, 50011, Note_off_c, 0, 57, 64
2, 50014, Note_off_c, 0, 60, 64
2, 50018, Note_off_c, 0, 62, 64
2, 50100, Note_off_c, 0, 38, 64
2, 50152, Note_on_c, 0, 43, 54
2, 50165, Note_on_c, 0, 67, 80
2, 50182, Control_c, 0, 64, 0
2, 50182, Control_c, 0, 64, 0
2, 50185, Note_off_c, 0, 66, 64
2, 50220, Control_c, 0, 64, 127
2, 50220, Control_c, 0, 64, 127
2, 50346, Note_on_c, 0, 55, 31
2, 50349, Note_on_c, 0, 58, 28
2, 50350, Note_on_c, 0, 62, 41
2, 50413, Note_off_c, 0, 62, 64
2, 50415, Note_off_c, 0, 58, 64
2, 50417, Note_off_c, 0, 55, 64
2, 50491, Note_off_c, 0, 67, 64
2, 50524, Note_on_c, 0, 74, 65
2, 50528, Note_on_c, 0, 58, 43
2, 50533, Control_c, 0, 64, 0
2, 50533, Control_c, 0, 64, 0
2, 50538, Note_on_c, 0, 55, 46
2, 50544, Note_on_c, 0, 62, 36
2, 50561, Control_c, 0, 64, 127
2, 50561, Control_c, 0, 64, 127
2, 50624, Note_on_c, 0, 73, 45
2, 50664, Note_off_c, 0, 55, 64
2, 50670, Note_off_c, 0, 58, 64
2, 50673, Note_off_c, 0, 62, 64
2, 50676, Note_off_c, 0, 74, 64
2, 50686, Note_on_c, 0, 70, 72
2, 50697, Note_off_c, 0, 43, 64
2, 50712, Note_off_c, 0, 73, 64
2, 50791, Note_on_c, 0, 69, 64
2, 50816, Note_off_c, 0, 70, 64
2, 50840, Note_on_c, 0, 67, 69
2, 50844, Note_on_c, 0, 58, 52
2, 50847, Note_on_c, 0, 64, 46
2, 50853, Note_on_c, 0, 55, 42
2, 50862, Note_on_c, 0, 50, 26
2, 50869, Note_off_c, 0, 69, 64
2, 50869, Control_c, 0, 64, 0
2, 50869, Control_c, 0, 64, 0
2, 50883, Control_c, 0, 64, 127
2, 50883, Control_c, 0, 64, 127
2, 50906, Note_off_c, 0, 64, 64
2, 50916, Note_off_c, 0, 55, 64
2, 50921, Note_off_c, 0, 50, 64
2, 50923, Note_off_c, 0, 58, 64
2, 51043, Note_on_c, 0, 66, 69
2, 51043, Note_on_c, 0, 61, 56
2, 51043, Note_on_c, 0, 50, 30
2, 51053, Note_on_c, 0, 55, 27
2, 51073, Control_c, 0, 64, 0
2, 51073, Control_c, 0, 64, 0
2, 51076, Note_off_c, 0, 67, 64
2, 51110, Control_c, 0, 64, 127
2, 51110, Control_c, 0, 64, 127
2, 51171, Note_off_c, 0, 66, 64
2, 51248, Note_on_c, 0, 66, 60
2, 51282, Note_off_c, 0, 55, 64
2, 51285, Control_c, 0, 64, 0
2, 51285, Control_c, 0, 64, 0
2, 51292, Note_off_c, 0, 61, 64
2, 51295, Note_off_c, 0, 50, 64
2, 51304, Control_c, 0, 64, 127
2, 51304, Control_c, 0, 64, 127
2, 51310, Note_on_c, 0, 62, 52
2, 51331, Note_off_c, 0, 66, 64
2, 51481, Note_on_c, 0, 50, 32
2, 51482, Note_on_c, 0, 57, 32
2, 51497, Control_c, 0, 64, 0
2, 51497, Control_c, 0, 64, 0
2, 51513, Control_c, 0, 64, 127
2, 51513, Control_c, 0, 64, 127
2, 51589, Note_off_c, 0, 50, 64
2, 51598, Note_off_c, 0, 57, 64
2, 51717, Note_on_c, 0, 57, 17
2, 51724, Note_on_c, 0, 50, 21
2, 51737, Note_off_c, 0, 62, 64
2, 51746, Note_on_c, 0, 69, 79
2, 51802, Note_off_c, 0, 57, 64
2, 51822, Note_off_c, 0, 50, 64
2, 51972, Note_on_c, 0, 38, 49
2, 52155, Note_on_c, 0, 66, 52
2, 52188, Note_off_c, 0, 69, 64
2, 52208, Note_on_c, 0, 57, 31
2, 52215, Note_on_c, 0, 61, 61
2, 52216, Note_on_c, 0, 50, 34
2, 52250, Control_c, 0, 64, 0
2, 52250, Control_c, 0, 64, 0
2, 52255, Note_off_c, 0, 66, 64
2, 52286, Note_off_c, 0, 57, 64
2, 52294, Note_off_c, 0, 50, 64
2, 52340, Note_on_c, 0, 62, 47
2, 52363, Note_off_c, 0, 61, 64
2, 52435, Note_on_c, 0, 50, 35
2, 52443, Note_on_c, 0, 70, 52
2, 52443, Note_on_c, 0, 66, 52
2, 52443, Note_on_c, 0, 57, 31
2, 52448, Note_on_c, 0, 60, 26
2, 52481, Control_c, 0, 64, 0
2, 52481, Control_c, 0, 64, 0
2, 52504, Control_c, 0, 64, 127
2, 52504, Control_c, 0, 64, 127
2, 52513, Note_off_c, 0, 50, 64
2, 52521, Note_off_c, 0, 57, 64
2, 52526, Note_off_c, 0, 60, 64
2, 52527, Note_off_c, 0, 62, 64
2, 52576, Note_off_c, 0, 38, 64
2, 52587, Note_off_c, 0, 66, 64
2, 52648, Note_on_c, 0, 69, 56
2, 52687, Note_off_c, 0, 70, 64
2, 52700, Note_on_c, 0, 43, 49
2, 52703, Note_on_c, 0, 67, 54
2, 52728, Note_off_c, 0, 69, 64
2, 52736, Control_c, 0, 64, 0
2, 52736, Control_c, 0, 64, 0
2, 52759, Control_c, 0, 64, 127
2, 52759, Control_c, 0, 64, 127
2, 52927, Note_on_c, 0, 58, 38
2, 52932, Note_on_c, 0, 55, 38
2, 52933, Note_on_c, 0, 62, 38
2, 52970, Control_c, 0, 64, 0
2, 52970, Control_c, 0, 64, 0
2, 52993, Control_c, 0, 64, 127
2, 52993, Control_c, 0, 64, 127
2, 53018, Note_off_c, 0, 58, 64
2, 53019, Note_off_c, 0, 62, 64
2, 53027, Note_off_c, 0, 55, 64
2, 53124, Note_on_c, 0, 55, 38
2, 53129, Note_on_c, 0, 58, 38
2, 53139, Note_on_c, 0, 62, 38
2, 53146, Note_on_c, 0, 69, 69
2, 53159, Control_c, 0, 64, 0
2, 53159, Control_c, 0, 64, 0
2, 53173, Note_off_c, 0, 67, 64
2, 53185, Control_c, 0, 64, 127
2, 53185, Control_c, 0, 64, 127
2, 53244, Note_off_c, 0, 55, 64
2, 53244, Note_on_c, 0, 70, 71
2, 53249, Note_off_c, 0, 43, 64
2, 53254, Note_off_c, 0, 58, 64
2, 53267, Note_off_c, 0, 62, 64
2, 53270, Note_off_c, 0, 69, 64
2, 53307, Note_on_c, 0, 72, 71
2, 53322, Note_off_c, 0, 70, 64
2, 53433, Note_on_c, 0, 74, 58
2, 53450, Note_off_c, 0, 72, 64
2, 53467, Note_on_c, 0, 63, 58
2, 53473, Note_on_c, 0, 67, 56
2, 53474, Note_on_c, 0, 60, 46
2, 53479, Note_on_c, 0, 55, 45
2, 53482, Note_on_c, 0, 75, 67
2, 53493, Control_c, 0, 64, 0
2, 53493, Control_c, 0, 64, 0
2, 53505, Note_off_c, 0, 74, 64
2, 53506, Control_c, 0, 64, 127
2, 53506, Control_c, 0, 64, 127
2, 53531, Note_off_c, 0, 60, 64
2, 53539, Note_off_c, 0, 67, 64
2, 53541, Note_off_c, 0, 55, 64
2, 53544, Note_off_c, 0, 63, 64
2, 53667, Note_on_c, 0, 78, 69
2, 53670, Note_on_c, 0, 63, 45
2, 53672, Note_on_c, 0, 69, 47
2, 53680, Note_on_c, 0, 60, 38
2, 53682, Note_on_c, 0, 55, 32
2, 53698, Note_off_c, 0, 75, 64
2, 53703, Control_c, 0, 64, 0
2, 53703, Control_c, 0, 64, 0
2, 53725, Control_c, 0, 64, 127
2, 53725, Control_c, 0, 64, 127
2, 53902, Note_on_c, 0, 79, 71
2, 53908, Note_on_c, 0, 70, 60
2, 53924, Note_off_c, 0, 55, 64
2, 53924, Note_off_c, 0, 60, 64
2, 53927, Note_off_c, 0, 63, 64
2, 53932, Note_off_c, 0, 69, 64
2, 53932, Note_off_c, 0, 78, 64
2, 53941, Control_c, 0, 64, 0
2, 53941, Control_c, 0, 64, 0
2, 53952, Control_c, 0, 64, 127
2, 53952, Control_c, 0, 64, 127
2, 53991, Note_on_c, 0, 74, 69
2, 53999, Note_off_c, 0, 79, 64
2, 54091, Note_on_c, 0, 62, 50
2, 54092, Note_on_c, 0, 55, 46
2, 54105, Control_c, 0, 64, 0
2, 54105, Control_c, 0, 64, 0
2, 54115, Control_c, 0, 64, 127
2, 54115, Control_c, 0, 64, 127
2, 54150, Note_off_c, 0, 62, 64
2, 54153, Note_off_c, 0, 55, 64
2, 54300, Note_on_c, 0, 62, 50
2, 54304, Note_off_c, 0, 74, 64
2, 54305, Note_on_c, 0, 55, 34
2, 54351, Note_off_c, 0, 55, 64
2, 54359, Note_off_c, 0, 62, 64
2, 54383, Note_off_c, 0, 70, 64
2, 54481, Control_c, 0, 64, 0
2, 54481, Control_c, 0, 64, 0
2, 54491, Control_c, 0, 64, 127
2, 54491, Control_c, 0, 64, 127
2, 54545, Note_on_c, 0, 69, 73
2, 54547, Note_on_c, 0, 38, 67
2, 54585, Control_c, 0, 64, 0
2, 54585, Control_c, 0, 64, 0
2, 54606, Control_c, 0, 64, 127
2, 54606, Control_c, 0, 64, 127
2, 54715, Note_on_c, 0, 66, 52
2, 54764, Note_on_c, 0, 62, 60
2, 54772, Note_on_c, 0, 50, 34
2, 54776, Note_on_c, 0, 60, 49
2, 54778, Note_off_c, 0, 69, 64
2, 54780, Note_on_c, 0, 57, 38
2, 54783, Note_off_c, 0, 66, 64
2, 54847, Note_off_c, 0, 60, 64
2, 54857, Note_off_c, 0, 50, 64
2, 54868, Note_off_c, 0, 57, 64
2, 54920, Note_off_c, 0, 62, 64
2, 54948, Note_on_c, 0, 50, 63
2, 54950, Note_on_c, 0, 57, 46
2, 54952, Note_on_c, 0, 66, 75
2, 54952, Note_on_c, 0, 62, 35
2, 54958, Note_on_c, 0, 60, 35
2, 55026, Note_off_c, 0, 50, 64
2, 55028, Note_off_c, 0, 57, 64
2, 55030, Note_off_c, 0, 62, 64
2, 55036, Note_off_c, 0, 60, 64
2, 55098, Note_off_c, 0, 38, 64
2, 55144, Control_c, 0, 64, 0
2, 55144, Control_c, 0, 64, 0
2, 55170, Control_c, 0, 64, 127
2, 55170, Control_c, 0, 64, 127
2, 55176, Note_on_c, 0, 43, 30
2, 55188, Note_on_c, 0, 67, 67
2, 55197, Note_off_c, 0, 66, 64
2, 55225, Control_c, 0, 64, 0
2, 55225, Control_c, 0, 64, 0
2, 55269, Control_c, 0, 64, 127
2, 55269, Control_c, 0, 64, 127
2, 55447, Note_on_c, 0, 58, 45
2, 55460, Note_on_c, 0, 50, 35
2, 55469, Control_c, 0, 64, 0
2, 55469, Control_c, 0, 64, 0
2, 55500, Control_c, 0, 64, 127
2, 55500, Control_c, 0, 64, 127
2, 55606, Note_on_c, 0, 74, 49
2, 55647, Note_off_c, 0, 67, 64
2, 55662, Note_off_c, 0, 74, 64
2, 55721, Note_on_c, 0, 74, 45
2, 55747, Note_on_c, 0, 77, 56
2, 55775, Note_off_c, 0, 74, 64
2, 55787, Note_on_c, 0, 75, 60
2, 55807, Note_off_c, 0, 77, 64
2, 55809, Note_off_c, 0, 50, 64
2, 55814, Control_c, 0, 64, 0
2, 55814, Control_c, 0, 64, 0
2, 55822, Note_off_c, 0, 58, 64
2, 55830, Control_c, 0, 64, 127
2, 55830, Control_c, 0, 64, 127
2, 55869, Note_off_c, 0, 43, 64
2, 56065, Note_on_c, 0, 74, 54
2, 56115, Note_off_c, 0, 75, 64
2, 56148, Note_on_c, 0, 73, 68
2, 56148, Note_on_c, 0, 38, 61
2, 56169, Note_off_c, 0, 74, 64
2, 56172, Control_c, 0, 64, 0
2, 56172, Control_c, 0, 64, 0
2, 56193, Control_c, 0, 64, 127
2, 56193, Control_c, 0, 64, 127
2, 56336, Note_on_c, 0, 74, 47
2, 56353, Note_off_c, 0, 73, 64
2, 56385, Note_on_c, 0, 54, 53
2, 56393, Note_on_c, 0, 69, 63
2, 56400, Note_on_c, 0, 60, 49
2, 56406, Note_on_c, 0, 50, 27
2, 56424, Note_off_c, 0, 74, 64
2, 56430, Control_c, 0, 64, 0
2, 56430, Control_c, 0, 64, 0
2, 56454, Control_c, 0, 64, 127
2, 56454, Control_c, 0, 64, 127
2, 56470, Note_off_c, 0, 60, 64
2, 56479, Note_off_c, 0, 54, 64
2, 56480, Note_off_c, 0, 50, 64
2, 56668, Note_on_c, 0, 50, 47
2, 56673, Note_on_c, 0, 70, 76
2, 56677, Note_on_c, 0, 60, 43
2, 56680, Note_on_c, 0, 54, 35
2, 56690, Note_off_c, 0, 69, 64
2, 56709, Control_c, 0, 64, 0
2, 56709, Control_c, 0, 64, 0
2, 56733, Control_c, 0, 64, 127
2, 56733, Control_c, 0, 64, 127
2, 56745, Note_off_c, 0, 60, 64
2, 56750, Note_off_c, 0, 54, 64
2, 56758, Note_off_c, 0, 50, 64
2, 56837, Note_on_c, 0, 69, 60
2, 56857, Note_off_c, 0, 70, 64
2, 56907, Note_on_c, 0, 43, 45
2, 56923, Note_off_c, 0, 38, 64
2, 56976, Note_on_c, 0, 50, 43
2, 57024, Note_on_c, 0, 58, 43
2, 57044, Note_on_c, 0, 67, 65
2, 57056, Control_c, 0, 64, 0
2, 57056, Control_c, 0, 64, 0
2, 57061, Note_off_c, 0, 69, 64
2, 57100, Control_c, 0, 64, 127
2, 57100, Control_c, 0, 64, 127
2, 57158, Note_off_c, 0, 50, 64
2, 57184, Note_off_c, 0, 58, 64
2, 57210, Note_off_c, 0, 43, 64
2, 57584, Note_on_c, 0, 79, 38
2, 57590, Note_on_c, 0, 31, 47
2, 57623, Control_c, 0, 64, 0
2, 57623, Control_c, 0, 64, 0
2, 57643, Control_c, 0, 64, 127
2, 57643, Control_c, 0, 64, 127
2, 57727, Note_off_c, 0, 31, 64
2, 57728, Note_off_c, 0, 79, 64
2, 57759, Note_off_c, 0, 67, 64
2, 58494, Control_c, 0, 64, 0
2, 58494, Control_c, 0, 64, 0
