0, 0, Header, 1, 7, 240
1, 0, Start_track
1, 0, Time_signature, 4, 2, 24, 8
1, 0, Tempo, 500000
1, 0, Marker_t, "Chopin: Mazurka, Op. 7 No. 5- Vivo"
1, 0, End_track
2, 0, Start_track
2, 0, Title_t, "Chopin: Op. 7 No. 5"
2, 0, Program_c, 0, 0
2, 0, Control_c, 0, 7, 127
2, 121, Control_c, 0, 64, 127
2, 133, Control_c, 0, 64, 127
2, 429, Note_on_c, 0, 43, 66
2, 435, Note_on_c, 0, 55, 66
2, 459, Note_off_c, 0, 43, 64
2, 465, Note_off_c, 0, 55, 64
2, 564, Note_on_c, 0, 55, 66
2, 564, Note_on_c, 0, 43, 66
2, 594, Note_off_c, 0, 43, 64
2, 594, Note_off_c, 0, 55, 64
2, 699, Note_on_c, 0, 55, 66
2, 700, Note_on_c, 0, 43, 66
2, 729, Note_off_c, 0, 55, 64
2, 730, Note_off_c, 0, 43, 64
2, 835, Note_on_c, 0, 55, 63
2, 835, Note_on_c, 0, 43, 63
2, 865, Note_off_c, 0, 43, 64
2, 865, Note_off_c, 0, 55, 64
2, 971, Note_on_c, 0, 43, 57
2, 975, Note_on_c, 0, 55, 57
2, 1001, Note_off_c, 0, 43, 64
2, 1005, Note_off_c, 0, 55, 64
2, 1112, Note_on_c, 0, 55, 50
2, 1112, Note_on_c, 0, 43, 50
2, 1142, Note_off_c, 0, 43, 64
2, 1142, Note_off_c, 0, 55, 64
2, 1245, Note_on_c, 0, 55, 46
2, 1248, Note_on_c, 0, 43, 46
2, 1275, Note_off_c, 0, 55, 64
2, 1278, Note_off_c, 0, 43, 64
2, 1382, Note_on_c, 0, 55, 41
2, 1395, Note_on_c, 0, 43, 41
2, 1412, Note_off_c, 0, 55, 64
2, 1425, Note_off_c, 0, 43, 64
2, 1524, Note_on_c, 0, 55, 35
2, 1526, Note_on_c, 0, 43, 35
2, 1554, Note_off_c, 0, 55, 64
2, 1556, Note_off_c, 0, 43, 64
2, 1655, Note_on_c, 0, 43, 32
2, 1656, Note_on_c, 0, 55, 32
2, 1685, Note_off_c, 0, 43, 64
2, 1686, Note_off_c, 0, 55, 64
2, 1787, Note_on_c, 0, 55, 26
2, 1793, Note_on_c, 0, 43, 26
2, 1817, Note_off_c, 0, 55, 64
2, 1823, Note_off_c, 0, 43, 64
2, 1904, Note_on_c, 0, 43, 24
2, 1916, Note_on_c, 0, 55, 24
2, 1934, Note_off_c, 0, 43, 64
2, 1946, Note_off_c, 0, 55, 64
2, 2030, Note_on_c, 0, 74, 36
2, 2039, Note_on_c, 0, 59, 31
2, 2042, Note_on_c, 0, 65, 35
2, 2048, Note_on_c, 0, 55, 27
2, 2075, Note_off_c, 0, 74, 64
2, 2077, Note_on_c, 0, 76, 20
2, 2094, Note_off_c, 0, 65, 64
2, 2097, Note_off_c, 0, 55, 64
2, 2098, Note_off_c, 0, 59, 64
2, 2122, Note_on_c, 0, 74, 42
2, 2129, Note_off_c, 0, 76, 64
2, 2147, Control_c, 0, 64, 0
2, 2159, Control_c, 0, 64, 0
2, 2160, Note_on_c, 0, 67, 44
2, 2160, Note_on_c, 0, 64, 29
2, 2163, Note_on_c, 0, 60, 24
2, 2163, Note_on_c, 0, 55, 16
2, 2175, Note_off_c, 0, 74, 64
2, 2181, Control_c, 0, 64, 127
2, 2193, Control_c, 0, 64, 127
2, 2204, Note_off_c, 0, 55, 64
2, 2205, Note_off_c, 0, 60, 64
2, 2212, Note_off_c, 0, 64, 64
2, 2281, Note_on_c, 0, 60, 40
2, 2284, Note_on_c, 0, 72, 33
2, 2291, Note_on_c, 0, 64, 35
2, 2295, Note_on_c, 0, 55, 31
2, 2317, Note_off_c, 0, 67, 64
2, 2328, Note_off_c, 0, 55, 64
2, 2340, Note_off_c, 0, 60, 64
2, 2343, Note_off_c, 0, 64, 64
2, 2360, Note_off_c, 0, 72, 64
2, 2366, Note_on_c, 0, 76, 36
2, 2396, Control_c, 0, 64, 0
2, 2401, Note_on_c, 0, 74, 41
2, 2408, Control_c, 0, 64, 0
2, 2411, Note_off_c, 0, 76, 64
2, 2411, Note_on_c, 0, 55, 29
2, 2415, Note_on_c, 0, 59, 29
2, 2419, Note_on_c, 0, 65, 27
2, 2428, Control_c, 0, 64, 127
2, 2440, Control_c, 0, 64, 127
2, 2449, Note_off_c, 0, 74, 64
2, 2449, Note_on_c, 0, 76, 40
2, 2461, Note_off_c, 0, 59, 64
2, 2466, Note_off_c, 0, 55, 64
2, 2470, Note_off_c, 0, 65, 64
2, 2488, Note_on_c, 0, 74, 40
2, 2500, Note_off_c, 0, 76, 64
2, 2513, Control_c, 0, 64, 0
2, 2525, Control_c, 0, 64, 0
2, 2530, Note_on_c, 0, 67, 53
2, 2534, Note_off_c, 0, 74, 64
2, 2539, Note_on_c, 0, 60, 20
2, 2540, Note_on_c, 0, 55, 11
2, 2543, Control_c, 0, 64, 127
2, 2549, Note_on_c, 0, 64, 18
2, 2555, Control_c, 0, 64, 127
2, 2578, Note_off_c, 0, 55, 64
2, 2582, Note_off_c, 0, 60, 64
2, 2585, Note_off_c, 0, 64, 64
2, 2637, Control_c, 0, 64, 0
2, 2649, Control_c, 0, 64, 0
2, 2651, Note_on_c, 0, 72, 41
2, 2651, Note_on_c, 0, 60, 45
2, 2654, Note_on_c, 0, 64, 40
2, 2664, Note_on_c, 0, 55, 31
2, 2667, Control_c, 0, 64, 127
2, 2679, Control_c, 0, 64, 127
2, 2686, Note_off_c, 0, 67, 64
2, 2697, Note_off_c, 0, 55, 64
2, 2703, Note_off_c, 0, 60, 64
2, 2707, Note_off_c, 0, 64, 64
2, 2744, Note_on_c, 0, 76, 40
2, 2752, Note_off_c, 0, 72, 64
2, 2771, Note_on_c, 0, 55, 41
2, 2778, Note_on_c, 0, 65, 44
2, 2778, Note_on_c, 0, 59, 41
2, 2781, Note_on_c, 0, 81, 46
2, 2791, Note_off_c, 0, 76, 64
2, 2817, Note_off_c, 0, 59, 64
2, 2821, Note_off_c, 0, 65, 64
2, 2821, Note_off_c, 0, 55, 64
2, 2890, Note_on_c, 0, 79, 41
2, 2903, Note_on_c, 0, 65, 27
2, 2903, Note_on_c, 0, 59, 31
2, 2907, Note_on_c, 0, 55, 31
2, 2908, Note_off_c, 0, 81, 64
2, 2949, Note_off_c, 0, 59, 64
2, 2953, Note_off_c, 0, 55, 64
2, 2962, Note_off_c, 0, 65, 64
2, 2965, Note_off_c, 0, 79, 64
2, 3004, Note_on_c, 0, 76, 24
2, 3036, Note_on_c, 0, 65, 20
2, 3037, Note_on_c, 0, 77, 46
2, 3040, Note_on_c, 0, 59, 23
2, 3040, Note_on_c, 0, 55, 26
2, 3062, Note_off_c, 0, 76, 64
2, 3070, Note_off_c, 0, 59, 64
2, 3073, Note_off_c, 0, 65, 64
2, 3078, Note_off_c, 0, 55, 64
2, 3098, Note_off_c, 0, 77, 64
2, 3116, Note_on_c, 0, 74, 41
2, 3146, Control_c, 0, 64, 0
2, 3158, Control_c, 0, 64, 0
2, 3168, Note_on_c, 0, 72, 37
2, 3168, Note_on_c, 0, 48, 36
2, 3170, Note_off_c, 0, 74, 64
2, 3176, Control_c, 0, 64, 127
2, 3188, Control_c, 0, 64, 127
2, 3204, Note_off_c, 0, 48, 64
2, 3259, Note_off_c, 0, 72, 64
2, 3260, Note_on_c, 0, 76, 35
2, 3276, Note_on_c, 0, 64, 23
2, 3284, Note_on_c, 0, 79, 32
2, 3284, Note_on_c, 0, 60, 27
2, 3284, Note_on_c, 0, 55, 31
2, 3310, Note_off_c, 0, 55, 64
2, 3312, Note_off_c, 0, 76, 64
2, 3323, Note_off_c, 0, 60, 64
2, 3324, Note_off_c, 0, 64, 64
2, 3361, Note_off_c, 0, 79, 64
2, 3364, Note_on_c, 0, 83, 31
2, 3388, Note_on_c, 0, 60, 31
2, 3391, Note_on_c, 0, 86, 55
2, 3396, Note_on_c, 0, 64, 31
2, 3396, Note_on_c, 0, 55, 31
2, 3413, Note_off_c, 0, 83, 64
2, 3431, Note_off_c, 0, 55, 64
2, 3431, Note_off_c, 0, 60, 64
2, 3442, Note_off_c, 0, 64, 64
2, 3453, Note_off_c, 0, 86, 64
2, 3468, Note_on_c, 0, 84, 59
2, 3506, Control_c, 0, 64, 0
2, 3513, Note_off_c, 0, 84, 64
2, 3518, Control_c, 0, 64, 0
2, 3520, Note_on_c, 0, 59, 36
2, 3520, Note_on_c, 0, 55, 36
2, 3522, Note_on_c, 0, 74, 44
2, 3524, Note_on_c, 0, 65, 33
2, 3528, Control_c, 0, 64, 127
2, 3540, Control_c, 0, 64, 127
2, 3551, Note_off_c, 0, 59, 64
2, 3559, Note_off_c, 0, 55, 64
2, 3560, Note_off_c, 0, 65, 64
2, 3560, Note_on_c, 0, 76, 41
2, 3564, Note_off_c, 0, 74, 64
2, 3606, Note_on_c, 0, 74, 29
2, 3613, Note_off_c, 0, 76, 64
2, 3623, Control_c, 0, 64, 0
2, 3634, Note_on_c, 0, 55, 18
2, 3635, Control_c, 0, 64, 0
2, 3636, Note_on_c, 0, 67, 50
2, 3636, Note_on_c, 0, 64, 23
2, 3636, Note_on_c, 0, 60, 23
2, 3651, Note_off_c, 0, 74, 64
2, 3658, Control_c, 0, 64, 127
2, 3670, Control_c, 0, 64, 127
2, 3675, Note_off_c, 0, 55, 64
2, 3694, Note_off_c, 0, 64, 64
2, 3696, Note_off_c, 0, 60, 64
2, 3772, Note_on_c, 0, 72, 46
2, 3776, Note_on_c, 0, 64, 36
2, 3776, Note_on_c, 0, 60, 37
2, 3776, Note_on_c, 0, 55, 32
2, 3786, Note_off_c, 0, 67, 64
2, 3807, Note_off_c, 0, 55, 64
2, 3826, Note_off_c, 0, 60, 64
2, 3833, Note_off_c, 0, 64, 64
2, 3848, Note_off_c, 0, 72, 64
2, 3848, Note_on_c, 0, 76, 41
2, 3878, Control_c, 0, 64, 0
2, 3880, Note_on_c, 0, 55, 32
2, 3884, Note_on_c, 0, 65, 33
2, 3884, Note_on_c, 0, 59, 32
2, 3885, Note_on_c, 0, 74, 42
2, 3887, Note_off_c, 0, 76, 64
2, 3890, Control_c, 0, 64, 0
2, 3911, Control_c, 0, 64, 127
2, 3923, Control_c, 0, 64, 127
2, 3928, Note_on_c, 0, 76, 46
2, 3929, Note_off_c, 0, 65, 64
2, 3930, Note_off_c, 0, 59, 64
2, 3930, Note_off_c, 0, 55, 64
2, 3937, Note_off_c, 0, 74, 64
2, 3969, Note_on_c, 0, 74, 45
2, 3977, Note_off_c, 0, 76, 64
2, 3998, Control_c, 0, 64, 0
2, 4004, Note_on_c, 0, 64, 31
2, 4008, Note_on_c, 0, 55, 16
2, 4009, Note_on_c, 0, 67, 53
2, 4009, Note_on_c, 0, 60, 27
2, 4010, Control_c, 0, 64, 0
2, 4020, Note_off_c, 0, 74, 64
2, 4031, Control_c, 0, 64, 127
2, 4043, Control_c, 0, 64, 127
2, 4045, Note_off_c, 0, 55, 64
2, 4053, Note_off_c, 0, 64, 64
2, 4058, Note_off_c, 0, 60, 64
2, 4116, Note_on_c, 0, 64, 41
2, 4117, Control_c, 0, 64, 0
2, 4128, Note_on_c, 0, 72, 36
2, 4128, Note_on_c, 0, 60, 46
2, 4129, Control_c, 0, 64, 0
2, 4132, Note_on_c, 0, 55, 41
2, 4140, Control_c, 0, 64, 127
2, 4152, Control_c, 0, 64, 127
2, 4164, Note_off_c, 0, 67, 64
2, 4175, Note_off_c, 0, 55, 64
2, 4176, Note_off_c, 0, 64, 64
2, 4183, Note_off_c, 0, 60, 64
2, 4218, Note_on_c, 0, 76, 36
2, 4227, Note_off_c, 0, 72, 64
2, 4234, Control_c, 0, 64, 0
2, 4246, Control_c, 0, 64, 0
2, 4260, Note_on_c, 0, 65, 27
2, 4260, Note_on_c, 0, 55, 29
2, 4264, Note_on_c, 0, 81, 46
2, 4264, Note_on_c, 0, 59, 29
2, 4268, Control_c, 0, 64, 127
2, 4274, Note_off_c, 0, 76, 64
2, 4280, Control_c, 0, 64, 127
2, 4304, Note_off_c, 0, 65, 64
2, 4309, Note_off_c, 0, 59, 64
2, 4309, Note_off_c, 0, 55, 64
2, 4380, Note_on_c, 0, 79, 41
2, 4380, Note_on_c, 0, 65, 26
2, 4381, Note_off_c, 0, 81, 64
2, 4384, Note_on_c, 0, 59, 27
2, 4384, Note_on_c, 0, 55, 31
2, 4419, Note_off_c, 0, 59, 64
2, 4430, Note_off_c, 0, 55, 64
2, 4434, Note_off_c, 0, 65, 64
2, 4464, Note_off_c, 0, 79, 64
2, 4472, Note_on_c, 0, 76, 40
2, 4512, Note_on_c, 0, 65, 20
2, 4513, Note_on_c, 0, 77, 41
2, 4516, Note_on_c, 0, 59, 29
2, 4516, Note_on_c, 0, 55, 31
2, 4534, Note_off_c, 0, 76, 64
2, 4552, Note_off_c, 0, 59, 64
2, 4556, Note_off_c, 0, 55, 64
2, 4556, Note_off_c, 0, 65, 64
2, 4566, Note_off_c, 0, 77, 64
2, 4596, Note_on_c, 0, 74, 41
2, 4612, Control_c, 0, 64, 0
2, 4620, Note_on_c, 0, 72, 40
2, 4620, Note_on_c, 0, 48, 40
2, 4624, Control_c, 0, 64, 0
2, 4632, Note_off_c, 0, 74, 64
2, 4632, Control_c, 0, 64, 127
2, 4644, Control_c, 0, 64, 127
2, 4656, Note_off_c, 0, 48, 64
2, 4699, Note_off_c, 0, 72, 64
2, 4704, Note_on_c, 0, 74, 41
2, 4744, Note_on_c, 0, 60, 24
2, 4748, Note_on_c, 0, 76, 45
2, 4748, Note_on_c, 0, 64, 22
2, 4748, Note_on_c, 0, 55, 27
2, 4779, Note_off_c, 0, 55, 64
2, 4785, Note_off_c, 0, 74, 64
2, 4786, Note_off_c, 0, 60, 64
2, 4794, Note_off_c, 0, 64, 64
2, 4828, Note_on_c, 0, 71, 35
2, 4836, Note_off_c, 0, 76, 64
2, 4860, Note_on_c, 0, 64, 41
2, 4860, Note_on_c, 0, 60, 45
2, 4864, Note_on_c, 0, 55, 40
2, 4876, Note_on_c, 0, 74, 41
2, 4886, Note_off_c, 0, 71, 64
2, 4902, Note_off_c, 0, 55, 64
2, 4902, Note_off_c, 0, 64, 64
2, 4906, Note_off_c, 0, 60, 64
2, 4934, Note_off_c, 0, 74, 64
2, 4948, Note_on_c, 0, 72, 44
2, 4972, Note_on_c, 0, 50, 41
2, 4980, Note_on_c, 0, 54, 43
2, 4981, Note_on_c, 0, 60, 39
2, 4981, Control_c, 0, 64, 0
2, 4987, Note_on_c, 0, 69, 56
2, 4993, Control_c, 0, 64, 0
2, 4997, Control_c, 0, 64, 127
2, 5000, Note_off_c, 0, 72, 64
2, 5009, Control_c, 0, 64, 127
2, 5026, Note_off_c, 0, 60, 64
2, 5028, Note_off_c, 0, 54, 64
2, 5028, Note_off_c, 0, 50, 64
2, 5034, Note_on_c, 0, 71, 54
2, 5041, Note_off_c, 0, 69, 64
2, 5070, Note_on_c, 0, 69, 48
2, 5073, Control_c, 0, 64, 0
2, 5082, Note_off_c, 0, 71, 64
2, 5085, Control_c, 0, 64, 0
2, 5100, Note_on_c, 0, 55, 27
2, 5101, Note_on_c, 0, 50, 11
2, 5104, Note_on_c, 0, 59, 29
2, 5111, Note_on_c, 0, 62, 59
2, 5119, Note_off_c, 0, 69, 64
2, 5119, Control_c, 0, 64, 127
2, 5131, Control_c, 0, 64, 127
2, 5142, Note_off_c, 0, 59, 64
2, 5154, Note_off_c, 0, 50, 64
2, 5157, Note_off_c, 0, 55, 64
2, 5217, Control_c, 0, 64, 0
2, 5223, Note_on_c, 0, 67, 51
2, 5224, Note_on_c, 0, 50, 45
2, 5225, Note_on_c, 0, 55, 45
2, 5228, Note_on_c, 0, 59, 53
2, 5229, Control_c, 0, 64, 0
2, 5242, Control_c, 0, 64, 127
2, 5247, Note_off_c, 0, 62, 64
2, 5254, Control_c, 0, 64, 127
2, 5257, Note_off_c, 0, 50, 64
2, 5274, Note_off_c, 0, 59, 64
2, 5277, Note_off_c, 0, 55, 64
2, 5304, Note_off_c, 0, 67, 64
2, 5304, Note_on_c, 0, 71, 43
2, 5337, Note_on_c, 0, 69, 53
2, 5341, Note_off_c, 0, 71, 64
2, 5344, Note_on_c, 0, 60, 41
2, 5344, Note_on_c, 0, 54, 41
2, 5344, Note_on_c, 0, 50, 41
2, 5348, Control_c, 0, 64, 0
2, 5360, Control_c, 0, 64, 0
2, 5373, Note_on_c, 0, 71, 51
2, 5379, Note_off_c, 0, 60, 64
2, 5383, Control_c, 0, 64, 127
2, 5388, Note_off_c, 0, 50, 64
2, 5388, Note_off_c, 0, 54, 64
2, 5388, Note_off_c, 0, 69, 64
2, 5395, Control_c, 0, 64, 127
2, 5421, Note_on_c, 0, 69, 48
2, 5433, Note_off_c, 0, 71, 64
2, 5456, Note_on_c, 0, 59, 31
2, 5456, Note_on_c, 0, 55, 31
2, 5460, Note_on_c, 0, 50, 28
2, 5463, Note_on_c, 0, 62, 53
2, 5465, Control_c, 0, 64, 0
2, 5473, Note_off_c, 0, 69, 64
2, 5477, Control_c, 0, 64, 0
2, 5485, Control_c, 0, 64, 127
2, 5494, Note_off_c, 0, 50, 64
2, 5497, Control_c, 0, 64, 127
2, 5499, Note_off_c, 0, 55, 64
2, 5502, Note_off_c, 0, 59, 64
2, 5592, Note_on_c, 0, 59, 24
2, 5592, Note_on_c, 0, 55, 48
2, 5592, Note_on_c, 0, 50, 27
2, 5594, Note_on_c, 0, 67, 47
2, 5622, Note_off_c, 0, 59, 64
2, 5624, Note_off_c, 0, 62, 64
2, 5632, Note_off_c, 0, 55, 64
2, 5634, Note_off_c, 0, 50, 64
2, 5679, Note_on_c, 0, 71, 53
2, 5689, Note_off_c, 0, 67, 64
2, 5706, Control_c, 0, 64, 0
2, 5716, Note_on_c, 0, 50, 39
2, 5718, Control_c, 0, 64, 0
2, 5722, Note_on_c, 0, 54, 41
2, 5724, Note_on_c, 0, 60, 39
2, 5725, Note_on_c, 0, 76, 54
2, 5737, Note_off_c, 0, 71, 64
2, 5740, Control_c, 0, 64, 127
2, 5752, Control_c, 0, 64, 127
2, 5757, Note_off_c, 0, 54, 64
2, 5760, Note_off_c, 0, 50, 64
2, 5767, Note_off_c, 0, 60, 64
2, 5819, Control_c, 0, 64, 0
2, 5831, Control_c, 0, 64, 0
2, 5835, Note_on_c, 0, 74, 51
2, 5843, Note_on_c, 0, 54, 36
2, 5844, Control_c, 0, 64, 127
2, 5851, Note_on_c, 0, 60, 29
2, 5851, Note_on_c, 0, 50, 36
2, 5856, Note_off_c, 0, 76, 64
2, 5856, Control_c, 0, 64, 127
2, 5892, Note_off_c, 0, 50, 64
2, 5894, Note_off_c, 0, 54, 64
2, 5897, Note_off_c, 0, 60, 64
2, 5917, Note_off_c, 0, 74, 64
2, 5940, Note_on_c, 0, 71, 37
2, 5947, Control_c, 0, 64, 0
2, 5959, Control_c, 0, 64, 0
2, 5969, Note_on_c, 0, 54, 41
2, 5969, Note_on_c, 0, 50, 33
2, 5972, Note_on_c, 0, 60, 27
2, 5974, Note_on_c, 0, 72, 51
2, 5979, Control_c, 0, 64, 127
2, 5990, Note_off_c, 0, 71, 64
2, 5991, Control_c, 0, 64, 127
2, 6006, Note_off_c, 0, 60, 64
2, 6008, Note_off_c, 0, 54, 64
2, 6015, Note_off_c, 0, 50, 64
2, 6031, Note_off_c, 0, 72, 64
2, 6052, Note_on_c, 0, 69, 39
2, 6070, Control_c, 0, 64, 0
2, 6076, Note_on_c, 0, 43, 36
2, 6078, Note_on_c, 0, 67, 45
2, 6082, Control_c, 0, 64, 0
2, 6100, Control_c, 0, 64, 127
2, 6104, Note_off_c, 0, 43, 64
2, 6104, Note_off_c, 0, 69, 64
2, 6112, Control_c, 0, 64, 127
2, 6163, Note_on_c, 0, 71, 36
2, 6200, Note_off_c, 0, 67, 64
2, 6204, Note_on_c, 0, 55, 36
2, 6207, Note_on_c, 0, 59, 31
2, 6207, Note_on_c, 0, 50, 33
2, 6208, Note_on_c, 0, 74, 48
2, 6235, Note_off_c, 0, 50, 64
2, 6242, Note_off_c, 0, 59, 64
2, 6245, Note_off_c, 0, 55, 64
2, 6250, Note_off_c, 0, 71, 64
2, 6275, Note_on_c, 0, 78, 40
2, 6305, Note_off_c, 0, 74, 64
2, 6320, Note_on_c, 0, 59, 43
2, 6320, Note_on_c, 0, 55, 51
2, 6320, Note_on_c, 0, 50, 45
2, 6326, Note_on_c, 0, 81, 58
2, 6340, Note_off_c, 0, 78, 64
2, 6356, Note_off_c, 0, 50, 64
2, 6364, Note_off_c, 0, 59, 64
2, 6369, Note_off_c, 0, 55, 64
2, 6385, Note_off_c, 0, 81, 64
2, 6396, Note_on_c, 0, 79, 59
2, 6430, Control_c, 0, 64, 0
2, 6442, Control_c, 0, 64, 0
2, 6444, Note_off_c, 0, 79, 64
2, 6452, Note_on_c, 0, 69, 53
2, 6460, Note_on_c, 0, 50, 41
2, 6463, Control_c, 0, 64, 127
2, 6464, Note_on_c, 0, 54, 37
2, 6472, Note_on_c, 0, 60, 32
2, 6475, Control_c, 0, 64, 127
2, 6477, Note_off_c, 0, 69, 64
2, 6492, Note_on_c, 0, 71, 48
2, 6495, Note_off_c, 0, 60, 64
2, 6510, Note_off_c, 0, 50, 64
2, 6513, Note_off_c, 0, 54, 64
2, 6543, Note_off_c, 0, 71, 64
2, 6544, Note_on_c, 0, 69, 45
2, 6549, Control_c, 0, 64, 0
2, 6561, Control_c, 0, 64, 0
2, 6564, Note_on_c, 0, 59, 18
2, 6568, Note_on_c, 0, 55, 27
2, 6568, Note_on_c, 0, 50, 24
2, 6574, Note_on_c, 0, 62, 53
2, 6576, Note_off_c, 0, 69, 64
2, 6585, Note_off_c, 0, 59, 64
2, 6600, Control_c, 0, 64, 127
2, 6612, Control_c, 0, 64, 127
2, 6613, Note_off_c, 0, 55, 64
2, 6627, Note_off_c, 0, 50, 64
2, 6676, Control_c, 0, 64, 0
2, 6683, Note_off_c, 0, 62, 64
2, 6688, Control_c, 0, 64, 0
2, 6696, Note_on_c, 0, 59, 53
2, 6696, Note_on_c, 0, 50, 27
2, 6698, Note_on_c, 0, 67, 43
2, 6700, Note_on_c, 0, 55, 53
2, 6709, Control_c, 0, 64, 127
2, 6721, Control_c, 0, 64, 127
2, 6738, Note_off_c, 0, 50, 64
2, 6742, Note_off_c, 0, 59, 64
2, 6760, Note_off_c, 0, 55, 64
2, 6767, Note_off_c, 0, 67, 64
2, 6767, Note_on_c, 0, 71, 47
2, 6800, Note_on_c, 0, 60, 36
2, 6801, Note_on_c, 0, 69, 51
2, 6804, Note_on_c, 0, 54, 40
2, 6804, Note_on_c, 0, 50, 37
2, 6808, Note_off_c, 0, 71, 64
2, 6808, Control_c, 0, 64, 0
2, 6820, Control_c, 0, 64, 0
2, 6829, Control_c, 0, 64, 127
2, 6841, Control_c, 0, 64, 127
2, 6846, Note_off_c, 0, 60, 64
2, 6856, Note_on_c, 0, 71, 45
2, 6860, Note_off_c, 0, 54, 64
2, 6864, Note_off_c, 0, 69, 64
2, 6865, Note_off_c, 0, 50, 64
2, 6893, Note_on_c, 0, 69, 37
2, 6909, Note_off_c, 0, 71, 64
2, 6915, Control_c, 0, 64, 0
2, 6924, Note_on_c, 0, 59, 36
2, 6924, Note_on_c, 0, 55, 29
2, 6924, Note_on_c, 0, 50, 13
2, 6927, Control_c, 0, 64, 0
2, 6930, Note_on_c, 0, 62, 49
2, 6931, Control_c, 0, 64, 127
2, 6939, Note_off_c, 0, 69, 64
2, 6943, Control_c, 0, 64, 127
2, 6964, Note_off_c, 0, 55, 64
2, 6966, Note_off_c, 0, 50, 64
2, 6967, Note_off_c, 0, 59, 64
2, 7022, Control_c, 0, 64, 0
2, 7034, Control_c, 0, 64, 0
2, 7046, Control_c, 0, 64, 127
2, 7052, Note_on_c, 0, 50, 32
2, 7053, Note_on_c, 0, 67, 47
2, 7056, Note_on_c, 0, 59, 32
2, 7058, Control_c, 0, 64, 127
2, 7058, Note_on_c, 0, 55, 53
2, 7082, Note_off_c, 0, 59, 64
2, 7082, Note_off_c, 0, 62, 64
2, 7083, Note_off_c, 0, 50, 64
2, 7099, Note_off_c, 0, 55, 64
2, 7127, Note_off_c, 0, 67, 64
2, 7141, Note_on_c, 0, 71, 37
2, 7160, Control_c, 0, 64, 0
2, 7172, Control_c, 0, 64, 0
2, 7172, Note_on_c, 0, 54, 45
2, 7174, Note_on_c, 0, 60, 41
2, 7176, Note_off_c, 0, 71, 64
2, 7180, Note_on_c, 0, 50, 40
2, 7183, Note_on_c, 0, 78, 59
2, 7187, Control_c, 0, 64, 127
2, 7199, Control_c, 0, 64, 127
2, 7210, Note_off_c, 0, 60, 64
2, 7212, Note_off_c, 0, 54, 64
2, 7223, Note_off_c, 0, 50, 64
2, 7235, Note_off_c, 0, 78, 64
2, 7274, Control_c, 0, 64, 0
2, 7286, Control_c, 0, 64, 0
2, 7294, Note_on_c, 0, 54, 45
2, 7295, Note_on_c, 0, 60, 37
2, 7298, Note_on_c, 0, 76, 53
2, 7298, Note_on_c, 0, 50, 41
2, 7307, Control_c, 0, 64, 127
2, 7319, Control_c, 0, 64, 127
2, 7332, Note_off_c, 0, 50, 64
2, 7332, Note_off_c, 0, 54, 64
2, 7335, Note_off_c, 0, 60, 64
2, 7363, Note_off_c, 0, 76, 64
2, 7380, Note_on_c, 0, 71, 45
2, 7390, Control_c, 0, 64, 0
2, 7402, Control_c, 0, 64, 0
2, 7416, Note_on_c, 0, 72, 37
2, 7416, Note_on_c, 0, 50, 36
2, 7420, Note_on_c, 0, 60, 27
2, 7424, Note_on_c, 0, 54, 37
2, 7432, Control_c, 0, 64, 127
2, 7437, Note_off_c, 0, 71, 64
2, 7444, Control_c, 0, 64, 127
2, 7448, Note_off_c, 0, 50, 64
2, 7457, Note_off_c, 0, 54, 64
2, 7462, Note_off_c, 0, 60, 64
2, 7473, Note_off_c, 0, 72, 64
2, 7500, Note_on_c, 0, 69, 40
2, 7514, Control_c, 0, 64, 0
2, 7526, Control_c, 0, 64, 0
2, 7536, Note_on_c, 0, 43, 41
2, 7542, Note_off_c, 0, 69, 64
2, 7543, Note_on_c, 0, 67, 47
2, 7561, Control_c, 0, 64, 127
2, 7573, Control_c, 0, 64, 127
2, 7575, Note_off_c, 0, 43, 64
2, 7618, Note_on_c, 0, 71, 41
2, 7642, Note_off_c, 0, 67, 64
2, 7664, Note_on_c, 0, 50, 36
2, 7665, Note_on_c, 0, 74, 51
2, 7668, Note_on_c, 0, 55, 29
2, 7672, Note_on_c, 0, 59, 29
2, 7694, Note_off_c, 0, 71, 64
2, 7709, Note_off_c, 0, 55, 64
2, 7713, Note_off_c, 0, 59, 64
2, 7725, Note_off_c, 0, 50, 64
2, 7733, Note_off_c, 0, 74, 64
2, 7748, Note_on_c, 0, 78, 37
2, 7772, Note_on_c, 0, 59, 53
2, 7776, Note_off_c, 0, 78, 64
2, 7776, Note_on_c, 0, 81, 64
2, 7776, Note_on_c, 0, 55, 53
2, 7776, Note_on_c, 0, 50, 53
2, 7808, Note_off_c, 0, 50, 64
2, 7815, Note_off_c, 0, 59, 64
2, 7816, Note_off_c, 0, 55, 64
2, 7828, Note_off_c, 0, 81, 64
2, 7844, Note_on_c, 0, 79, 36
2, 7885, Control_c, 0, 64, 0
2, 7888, Note_on_c, 0, 74, 60
2, 7888, Note_on_c, 0, 59, 50
2, 7888, Note_on_c, 0, 55, 50
2, 7892, Note_on_c, 0, 65, 50
2, 7897, Control_c, 0, 64, 0
2, 7904, Note_off_c, 0, 79, 64
2, 7916, Control_c, 0, 64, 127
2, 7928, Control_c, 0, 64, 127
2, 7928, Note_on_c, 0, 76, 56
2, 7930, Note_off_c, 0, 65, 64
2, 7930, Note_off_c, 0, 59, 64
2, 7932, Note_off_c, 0, 55, 64
2, 7955, Note_off_c, 0, 74, 64
2, 7968, Note_on_c, 0, 74, 59
2, 7980, Note_off_c, 0, 76, 64
2, 7988, Control_c, 0, 64, 0
2, 8000, Control_c, 0, 64, 0
2, 8000, Note_on_c, 0, 55, 17
2, 8005, Note_on_c, 0, 60, 40
2, 8009, Note_off_c, 0, 74, 64
2, 8014, Note_on_c, 0, 67, 70
2, 8014, Note_on_c, 0, 64, 42
2, 8031, Control_c, 0, 64, 127
2, 8042, Note_off_c, 0, 55, 64
2, 8043, Control_c, 0, 64, 127
2, 8050, Note_off_c, 0, 60, 64
2, 8054, Note_off_c, 0, 64, 64
2, 8128, Note_on_c, 0, 72, 50
2, 8128, Note_on_c, 0, 60, 64
2, 8128, Note_on_c, 0, 55, 32
2, 8133, Note_on_c, 0, 64, 57
2, 8158, Note_off_c, 0, 67, 64
2, 8170, Note_off_c, 0, 55, 64
2, 8180, Note_off_c, 0, 60, 64
2, 8186, Note_off_c, 0, 64, 64
2, 8201, Note_off_c, 0, 72, 64
2, 8207, Note_on_c, 0, 76, 49
2, 8238, Control_c, 0, 64, 0
2, 8250, Control_c, 0, 64, 0
2, 8253, Note_on_c, 0, 74, 53
2, 8256, Note_on_c, 0, 65, 45
2, 8256, Note_on_c, 0, 59, 47
2, 8261, Note_off_c, 0, 76, 64
2, 8263, Note_on_c, 0, 55, 45
2, 8268, Control_c, 0, 64, 127
2, 8280, Control_c, 0, 64, 127
2, 8301, Note_off_c, 0, 65, 64
2, 8301, Note_on_c, 0, 76, 60
2, 8303, Note_off_c, 0, 59, 64
2, 8309, Note_off_c, 0, 74, 64
2, 8312, Note_off_c, 0, 55, 64
2, 8340, Note_on_c, 0, 74, 48
2, 8352, Control_c, 0, 64, 0
2, 8359, Note_off_c, 0, 76, 64
2, 8364, Control_c, 0, 64, 0
2, 8368, Note_on_c, 0, 60, 32
2, 8374, Note_on_c, 0, 67, 67
2, 8376, Note_on_c, 0, 64, 36
2, 8378, Note_on_c, 0, 55, 18
2, 8384, Note_off_c, 0, 74, 64
2, 8387, Control_c, 0, 64, 127
2, 8399, Control_c, 0, 64, 127
2, 8400, Note_off_c, 0, 55, 64
2, 8419, Note_off_c, 0, 60, 64
2, 8430, Note_off_c, 0, 64, 64
2, 8474, Control_c, 0, 64, 0
2, 8486, Control_c, 0, 64, 0
2, 8492, Note_on_c, 0, 64, 60
2, 8494, Note_on_c, 0, 60, 60
2, 8499, Note_on_c, 0, 72, 48
2, 8500, Note_on_c, 0, 55, 32
2, 8505, Control_c, 0, 64, 127
2, 8517, Control_c, 0, 64, 127
2, 8522, Note_off_c, 0, 55, 64
2, 8526, Note_off_c, 0, 67, 64
2, 8548, Note_off_c, 0, 60, 64
2, 8551, Note_off_c, 0, 64, 64
2, 8560, Control_c, 0, 64, 0
2, 8572, Control_c, 0, 64, 0
2, 8581, Note_on_c, 0, 76, 52
2, 8592, Note_off_c, 0, 72, 64
2, 8595, Control_c, 0, 64, 127
2, 8597, Control_c, 0, 64, 0
2, 8607, Control_c, 0, 64, 127
2, 8609, Control_c, 0, 64, 0
2, 8617, Note_on_c, 0, 65, 43
2, 8617, Note_on_c, 0, 59, 45
2, 8621, Note_on_c, 0, 55, 45
2, 8626, Note_on_c, 0, 81, 61
2, 8640, Note_off_c, 0, 76, 64
2, 8643, Control_c, 0, 64, 127
2, 8655, Control_c, 0, 64, 127
2, 8665, Note_off_c, 0, 59, 64
2, 8669, Note_off_c, 0, 55, 64
2, 8669, Note_off_c, 0, 65, 64
2, 8722, Control_c, 0, 64, 0
2, 8733, Control_c, 0, 64, 127
2, 8734, Control_c, 0, 64, 0
2, 8738, Note_on_c, 0, 79, 52
2, 8740, Note_on_c, 0, 65, 40
2, 8745, Control_c, 0, 64, 127
2, 8747, Note_on_c, 0, 59, 45
2, 8748, Note_on_c, 0, 55, 42
2, 8752, Note_off_c, 0, 81, 64
2, 8789, Note_off_c, 0, 55, 64
2, 8794, Note_off_c, 0, 65, 64
2, 8796, Note_off_c, 0, 59, 64
2, 8819, Note_off_c, 0, 79, 64
2, 8836, Note_on_c, 0, 76, 32
2, 8858, Note_on_c, 0, 65, 29
2, 8864, Note_on_c, 0, 77, 48
2, 8869, Note_on_c, 0, 59, 45
2, 8869, Note_on_c, 0, 55, 40
2, 8878, Note_off_c, 0, 76, 64
2, 8904, Note_off_c, 0, 65, 64
2, 8908, Note_off_c, 0, 59, 64
2, 8912, Note_off_c, 0, 55, 64
2, 8922, Note_off_c, 0, 77, 64
2, 8948, Note_on_c, 0, 74, 56
2, 8952, Control_c, 0, 64, 0
2, 8964, Control_c, 0, 64, 0
2, 8981, Note_on_c, 0, 72, 45
2, 8981, Note_on_c, 0, 48, 45
2, 8996, Control_c, 0, 64, 127
2, 9001, Note_off_c, 0, 74, 64
2, 9008, Control_c, 0, 64, 127
2, 9012, Note_off_c, 0, 48, 64
2, 9052, Note_on_c, 0, 76, 45
2, 9063, Control_c, 0, 64, 0
2, 9075, Control_c, 0, 64, 0
2, 9086, Note_off_c, 0, 72, 64
2, 9092, Note_on_c, 0, 79, 40
2, 9100, Note_on_c, 0, 60, 40
2, 9102, Note_on_c, 0, 55, 35
2, 9104, Note_on_c, 0, 64, 36
2, 9111, Control_c, 0, 64, 127
2, 9123, Control_c, 0, 64, 127
2, 9137, Note_off_c, 0, 55, 64
2, 9138, Note_off_c, 0, 76, 64
2, 9140, Note_off_c, 0, 64, 64
2, 9142, Note_off_c, 0, 60, 64
2, 9152, Note_off_c, 0, 79, 64
2, 9172, Note_on_c, 0, 83, 27
2, 9214, Note_off_c, 0, 83, 64
2, 9214, Note_on_c, 0, 86, 56
2, 9215, Note_on_c, 0, 64, 61
2, 9219, Note_on_c, 0, 60, 56
2, 9219, Note_on_c, 0, 55, 56
2, 9254, Note_off_c, 0, 55, 64
2, 9260, Note_off_c, 0, 60, 64
2, 9261, Note_off_c, 0, 64, 64
2, 9266, Note_off_c, 0, 86, 64
2, 9300, Note_on_c, 0, 84, 48
2, 9314, Control_c, 0, 64, 0
2, 9326, Control_c, 0, 64, 0
2, 9336, Note_on_c, 0, 59, 47
2, 9343, Note_on_c, 0, 55, 45
2, 9344, Note_on_c, 0, 74, 64
2, 9344, Note_on_c, 0, 65, 45
2, 9345, Note_off_c, 0, 84, 64
2, 9356, Control_c, 0, 64, 127
2, 9368, Control_c, 0, 64, 127
2, 9380, Note_off_c, 0, 59, 64
2, 9380, Note_on_c, 0, 76, 41
2, 9383, Note_off_c, 0, 65, 64
2, 9384, Note_off_c, 0, 74, 64
2, 9394, Note_off_c, 0, 55, 64
2, 9418, Note_on_c, 0, 74, 53
2, 9422, Control_c, 0, 64, 0
2, 9434, Control_c, 0, 64, 0
2, 9440, Note_off_c, 0, 76, 64
2, 9458, Note_on_c, 0, 67, 72
2, 9458, Note_on_c, 0, 64, 38
2, 9458, Note_on_c, 0, 55, 23
2, 9460, Note_on_c, 0, 60, 32
2, 9465, Note_off_c, 0, 74, 64
2, 9478, Control_c, 0, 64, 127
2, 9490, Control_c, 0, 64, 127
2, 9497, Note_off_c, 0, 55, 64
2, 9509, Note_off_c, 0, 64, 64
2, 9511, Note_off_c, 0, 60, 64
2, 9547, Control_c, 0, 64, 0
2, 9559, Control_c, 0, 64, 0
2, 9577, Note_on_c, 0, 72, 56
2, 9577, Note_on_c, 0, 60, 60
2, 9580, Note_on_c, 0, 64, 64
2, 9580, Note_on_c, 0, 55, 36
2, 9585, Control_c, 0, 64, 127
2, 9597, Control_c, 0, 64, 127
2, 9608, Note_off_c, 0, 67, 64
2, 9612, Note_off_c, 0, 55, 64
2, 9626, Note_off_c, 0, 60, 64
2, 9632, Note_off_c, 0, 64, 64
2, 9651, Note_off_c, 0, 72, 64
2, 9664, Note_on_c, 0, 76, 54
2, 9688, Control_c, 0, 64, 0
2, 9700, Control_c, 0, 64, 0
2, 9706, Note_on_c, 0, 59, 42
2, 9709, Note_on_c, 0, 55, 40
2, 9710, Note_on_c, 0, 74, 56
2, 9710, Note_on_c, 0, 65, 43
2, 9715, Note_off_c, 0, 76, 64
2, 9721, Control_c, 0, 64, 127
2, 9733, Control_c, 0, 64, 127
2, 9752, Note_off_c, 0, 65, 64
2, 9752, Note_off_c, 0, 59, 64
2, 9752, Note_on_c, 0, 76, 49
2, 9755, Note_off_c, 0, 55, 64
2, 9757, Note_off_c, 0, 74, 64
2, 9798, Note_on_c, 0, 74, 45
2, 9804, Note_off_c, 0, 76, 64
2, 9808, Control_c, 0, 64, 0
2, 9820, Control_c, 0, 64, 0
2, 9825, Note_on_c, 0, 67, 67
2, 9825, Note_on_c, 0, 64, 36
2, 9828, Note_on_c, 0, 60, 32
2, 9832, Note_on_c, 0, 55, 33
2, 9836, Note_off_c, 0, 74, 64
2, 9842, Control_c, 0, 64, 127
2, 9854, Control_c, 0, 64, 127
2, 9870, Note_off_c, 0, 55, 64
2, 9877, Note_off_c, 0, 60, 64
2, 9878, Note_off_c, 0, 64, 64
2, 9944, Note_on_c, 0, 60, 64
2, 9945, Note_on_c, 0, 72, 47
2, 9949, Note_on_c, 0, 64, 64
2, 9952, Note_on_c, 0, 55, 57
2, 9983, Note_off_c, 0, 67, 64
2, 9992, Note_off_c, 0, 55, 64
2, 10001, Note_off_c, 0, 64, 64
2, 10002, Note_off_c, 0, 60, 64
2, 10031, Note_on_c, 0, 76, 53
2, 10032, Note_off_c, 0, 72, 64
2, 10047, Control_c, 0, 64, 0
2, 10059, Control_c, 0, 64, 0
2, 10070, Note_on_c, 0, 55, 42
2, 10076, Note_on_c, 0, 65, 43
2, 10076, Note_on_c, 0, 59, 44
2, 10077, Note_on_c, 0, 81, 61
2, 10089, Note_off_c, 0, 76, 64
2, 10090, Control_c, 0, 64, 127
2, 10102, Control_c, 0, 64, 127
2, 10116, Note_off_c, 0, 55, 64
2, 10122, Note_off_c, 0, 59, 64
2, 10124, Note_off_c, 0, 65, 64
2, 10184, Note_on_c, 0, 79, 56
2, 10188, Note_on_c, 0, 65, 42
2, 10188, Note_on_c, 0, 59, 45
2, 10188, Note_on_c, 0, 55, 43
2, 10207, Note_off_c, 0, 81, 64
2, 10232, Note_off_c, 0, 59, 64
2, 10235, Note_off_c, 0, 55, 64
2, 10238, Note_off_c, 0, 65, 64
2, 10264, Note_on_c, 0, 76, 54
2, 10282, Note_off_c, 0, 79, 64
2, 10300, Note_on_c, 0, 77, 56
2, 10308, Note_on_c, 0, 59, 40
2, 10308, Note_on_c, 0, 55, 35
2, 10310, Note_on_c, 0, 65, 32
2, 10317, Note_off_c, 0, 76, 64
2, 10343, Note_off_c, 0, 59, 64
2, 10347, Note_off_c, 0, 65, 64
2, 10351, Note_off_c, 0, 55, 64
2, 10359, Note_off_c, 0, 77, 64
2, 10394, Note_on_c, 0, 74, 26
2, 10418, Note_off_c, 0, 74, 64
2, 10424, Control_c, 0, 64, 0
2, 10431, Note_on_c, 0, 48, 48
2, 10435, Note_on_c, 0, 72, 47
2, 10436, Control_c, 0, 64, 0
2, 10454, Control_c, 0, 64, 127
2, 10466, Note_off_c, 0, 48, 64
2, 10466, Control_c, 0, 64, 127
2, 10501, Note_off_c, 0, 72, 64
2, 10508, Note_on_c, 0, 74, 54
2, 10539, Control_c, 0, 64, 0
2, 10540, Note_on_c, 0, 76, 45
2, 10547, Note_on_c, 0, 60, 40
2, 10548, Note_on_c, 0, 64, 36
2, 10551, Control_c, 0, 64, 0
2, 10553, Note_on_c, 0, 55, 36
2, 10561, Control_c, 0, 64, 127
2, 10573, Control_c, 0, 64, 127
2, 10583, Note_off_c, 0, 55, 64
2, 10583, Note_off_c, 0, 74, 64
2, 10584, Note_off_c, 0, 60, 64
2, 10590, Note_off_c, 0, 64, 64
2, 10610, Note_off_c, 0, 76, 64
2, 10620, Note_on_c, 0, 71, 56
2, 10666, Note_on_c, 0, 64, 57
2, 10666, Note_on_c, 0, 60, 60
2, 10670, Note_on_c, 0, 55, 57
2, 10675, Note_on_c, 0, 74, 63
2, 10680, Note_off_c, 0, 71, 64
2, 10697, Note_off_c, 0, 64, 64
2, 10700, Note_off_c, 0, 60, 64
2, 10711, Note_off_c, 0, 55, 64
2, 10728, Note_off_c, 0, 74, 64
2, 10748, Note_on_c, 0, 72, 53
2, 10780, Note_on_c, 0, 60, 40
2, 10780, Note_on_c, 0, 50, 40
2, 10783, Note_on_c, 0, 54, 40
2, 10788, Note_off_c, 0, 72, 64
2, 10788, Note_on_c, 0, 69, 43
2, 10793, Control_c, 0, 64, 0
2, 10805, Control_c, 0, 64, 0
2, 10817, Control_c, 0, 64, 127
2, 10819, Note_off_c, 0, 60, 64
2, 10825, Note_off_c, 0, 50, 64
2, 10829, Control_c, 0, 64, 127
2, 10831, Note_off_c, 0, 69, 64
2, 10832, Note_off_c, 0, 54, 64
2, 10836, Note_on_c, 0, 71, 50
2, 10868, Note_on_c, 0, 69, 40
2, 10888, Note_off_c, 0, 71, 64
2, 10894, Control_c, 0, 64, 0
2, 10906, Control_c, 0, 64, 0
2, 10912, Note_on_c, 0, 59, 32
2, 10914, Note_on_c, 0, 50, 27
2, 10916, Note_on_c, 0, 55, 27
2, 10918, Note_on_c, 0, 62, 54
2, 10923, Note_off_c, 0, 69, 64
2, 10930, Control_c, 0, 64, 127
2, 10942, Control_c, 0, 64, 127
2, 10948, Note_off_c, 0, 50, 64
2, 10952, Note_off_c, 0, 59, 64
2, 10962, Note_off_c, 0, 55, 64
2, 11009, Control_c, 0, 64, 0
2, 11021, Control_c, 0, 64, 0
2, 11022, Control_c, 0, 64, 127
2, 11024, Note_on_c, 0, 59, 40
2, 11024, Note_on_c, 0, 55, 50
2, 11027, Note_on_c, 0, 67, 43
2, 11032, Note_on_c, 0, 50, 24
2, 11034, Control_c, 0, 64, 127
2, 11057, Note_off_c, 0, 62, 64
2, 11072, Note_off_c, 0, 55, 64
2, 11072, Note_off_c, 0, 59, 64
2, 11074, Note_off_c, 0, 50, 64
2, 11107, Note_off_c, 0, 67, 64
2, 11114, Note_on_c, 0, 71, 42
2, 11137, Control_c, 0, 64, 0
2, 11148, Note_on_c, 0, 69, 38
2, 11149, Control_c, 0, 64, 0
2, 11153, Note_on_c, 0, 54, 40
2, 11159, Note_on_c, 0, 60, 36
2, 11160, Note_on_c, 0, 50, 36
2, 11166, Note_off_c, 0, 71, 64
2, 11173, Control_c, 0, 64, 127
2, 11185, Control_c, 0, 64, 127
2, 11194, Note_on_c, 0, 71, 45
2, 11196, Note_off_c, 0, 60, 64
2, 11197, Note_off_c, 0, 50, 64
2, 11197, Note_off_c, 0, 54, 64
2, 11204, Note_off_c, 0, 69, 64
2, 11237, Note_on_c, 0, 69, 36
2, 11244, Control_c, 0, 64, 0
2, 11255, Note_off_c, 0, 71, 64
2, 11256, Control_c, 0, 64, 0
2, 11266, Note_on_c, 0, 62, 53
2, 11268, Note_on_c, 0, 59, 32
2, 11268, Note_on_c, 0, 55, 29
2, 11268, Note_on_c, 0, 50, 11
2, 11278, Control_c, 0, 64, 127
2, 11285, Note_off_c, 0, 69, 64
2, 11290, Control_c, 0, 64, 127
2, 11310, Note_off_c, 0, 50, 64
2, 11312, Note_off_c, 0, 55, 64
2, 11313, Note_off_c, 0, 59, 64
2, 11384, Note_on_c, 0, 59, 53
2, 11385, Note_on_c, 0, 67, 42
2, 11388, Note_on_c, 0, 55, 49
2, 11392, Note_on_c, 0, 50, 24
2, 11422, Note_off_c, 0, 62, 64
2, 11430, Note_off_c, 0, 59, 64
2, 11434, Note_off_c, 0, 50, 64
2, 11435, Note_off_c, 0, 55, 64
2, 11475, Note_on_c, 0, 71, 40
2, 11482, Note_off_c, 0, 67, 64
2, 11500, Control_c, 0, 64, 0
2, 11504, Note_on_c, 0, 76, 47
2, 11508, Note_on_c, 0, 54, 40
2, 11512, Control_c, 0, 64, 0
2, 11513, Note_on_c, 0, 50, 36
2, 11516, Note_on_c, 0, 60, 36
2, 11527, Note_off_c, 0, 71, 64
2, 11532, Control_c, 0, 64, 127
2, 11544, Control_c, 0, 64, 127
2, 11549, Note_off_c, 0, 54, 64
2, 11549, Note_off_c, 0, 60, 64
2, 11552, Note_off_c, 0, 50, 64
2, 11632, Note_off_c, 0, 76, 64
2, 11636, Note_on_c, 0, 74, 50
2, 11641, Note_on_c, 0, 60, 36
2, 11641, Note_on_c, 0, 54, 40
2, 11642, Note_on_c, 0, 50, 36
2, 11677, Note_off_c, 0, 54, 64
2, 11680, Note_off_c, 0, 50, 64
2, 11686, Note_off_c, 0, 60, 64
2, 11716, Note_on_c, 0, 71, 45
2, 11722, Note_off_c, 0, 74, 64
2, 11755, Note_on_c, 0, 72, 43
2, 11755, Note_on_c, 0, 60, 32
2, 11758, Note_on_c, 0, 50, 35
2, 11763, Note_on_c, 0, 54, 38
2, 11767, Note_off_c, 0, 71, 64
2, 11792, Note_off_c, 0, 54, 64
2, 11792, Note_off_c, 0, 60, 64
2, 11794, Note_off_c, 0, 50, 64
2, 11817, Note_off_c, 0, 72, 64
2, 11828, Note_on_c, 0, 69, 45
2, 11847, Control_c, 0, 64, 0
2, 11859, Control_c, 0, 64, 0
2, 11865, Note_on_c, 0, 67, 45
2, 11868, Note_on_c, 0, 43, 40
2, 11880, Note_off_c, 0, 69, 64
2, 11897, Control_c, 0, 64, 127
2, 11909, Control_c, 0, 64, 127
2, 11910, Note_off_c, 0, 43, 64
2, 11956, Note_on_c, 0, 71, 40
2, 11968, Note_off_c, 0, 67, 64
2, 11980, Note_on_c, 0, 59, 32
2, 11982, Note_on_c, 0, 50, 32
2, 11984, Note_on_c, 0, 55, 32
2, 11986, Note_on_c, 0, 74, 38
2, 12012, Note_off_c, 0, 50, 64
2, 12014, Note_off_c, 0, 59, 64
2, 12022, Note_off_c, 0, 55, 64
2, 12045, Note_off_c, 0, 71, 64
2, 12056, Note_off_c, 0, 74, 64
2, 12060, Note_on_c, 0, 78, 42
2, 12084, Note_on_c, 0, 81, 45
2, 12088, Note_on_c, 0, 59, 53
2, 12088, Note_on_c, 0, 50, 49
2, 12089, Note_on_c, 0, 55, 56
2, 12110, Note_off_c, 0, 78, 64
2, 12114, Note_off_c, 0, 50, 64
2, 12121, Note_off_c, 0, 59, 64
2, 12129, Note_off_c, 0, 55, 64
2, 12135, Note_off_c, 0, 81, 64
2, 12164, Note_on_c, 0, 79, 45
2, 12194, Control_c, 0, 64, 0
2, 12201, Note_off_c, 0, 79, 64
2, 12204, Note_on_c, 0, 69, 50
2, 12204, Note_on_c, 0, 60, 40
2, 12204, Note_on_c, 0, 54, 40
2, 12204, Note_on_c, 0, 50, 36
2, 12206, Control_c, 0, 64, 0
2, 12233, Control_c, 0, 64, 127
2, 12244, Note_off_c, 0, 54, 64
2, 12244, Note_off_c, 0, 60, 64
2, 12245, Control_c, 0, 64, 127
2, 12251, Note_off_c, 0, 50, 64
2, 12252, Note_on_c, 0, 71, 47
2, 12254, Note_off_c, 0, 69, 64
2, 12300, Note_on_c, 0, 69, 40
2, 12305, Note_off_c, 0, 71, 64
2, 12319, Control_c, 0, 64, 0
2, 12331, Control_c, 0, 64, 0
2, 12332, Note_on_c, 0, 59, 32
2, 12332, Note_on_c, 0, 55, 32
2, 12332, Note_on_c, 0, 50, 11
2, 12340, Note_on_c, 0, 62, 56
2, 12352, Note_off_c, 0, 69, 64
2, 12357, Control_c, 0, 64, 127
2, 12369, Control_c, 0, 64, 127
2, 12374, Note_off_c, 0, 50, 64
2, 12375, Note_off_c, 0, 59, 64
2, 12378, Note_off_c, 0, 55, 64
2, 12448, Note_on_c, 0, 59, 50
2, 12452, Note_on_c, 0, 67, 53
2, 12452, Note_on_c, 0, 55, 50
2, 12456, Note_on_c, 0, 50, 24
2, 12488, Note_off_c, 0, 62, 64
2, 12498, Note_off_c, 0, 50, 64
2, 12500, Note_off_c, 0, 59, 64
2, 12501, Note_off_c, 0, 55, 64
2, 12527, Note_off_c, 0, 67, 64
2, 12550, Note_on_c, 0, 71, 47
2, 12560, Control_c, 0, 64, 0
2, 12572, Control_c, 0, 64, 0
2, 12580, Note_on_c, 0, 50, 36
2, 12584, Note_on_c, 0, 54, 40
2, 12585, Note_on_c, 0, 60, 36
2, 12587, Note_on_c, 0, 69, 50
2, 12599, Control_c, 0, 64, 127
2, 12604, Note_off_c, 0, 71, 64
2, 12611, Control_c, 0, 64, 127
2, 12613, Note_off_c, 0, 60, 64
2, 12616, Note_on_c, 0, 71, 43
2, 12618, Note_off_c, 0, 50, 64
2, 12623, Note_off_c, 0, 54, 64
2, 12637, Note_off_c, 0, 69, 64
2, 12649, Control_c, 0, 64, 0
2, 12660, Note_on_c, 0, 69, 45
2, 12661, Control_c, 0, 64, 0
2, 12669, Note_off_c, 0, 71, 64
2, 12684, Note_on_c, 0, 50, 11
2, 12687, Note_on_c, 0, 55, 32
2, 12688, Note_on_c, 0, 62, 60
2, 12691, Note_on_c, 0, 59, 32
2, 12698, Note_off_c, 0, 69, 64
2, 12702, Control_c, 0, 64, 127
2, 12714, Control_c, 0, 64, 127
2, 12726, Note_off_c, 0, 50, 64
2, 12733, Note_off_c, 0, 55, 64
2, 12737, Note_off_c, 0, 59, 64
2, 12813, Note_on_c, 0, 59, 50
2, 12815, Note_on_c, 0, 67, 40
2, 12816, Note_on_c, 0, 55, 56
2, 12816, Note_on_c, 0, 50, 24
2, 12836, Note_off_c, 0, 62, 64
2, 12857, Note_off_c, 0, 59, 64
2, 12858, Note_off_c, 0, 50, 64
2, 12863, Note_off_c, 0, 55, 64
2, 12888, Note_off_c, 0, 67, 64
2, 12897, Note_on_c, 0, 71, 33
2, 12916, Control_c, 0, 64, 0
2, 12927, Note_off_c, 0, 71, 64
2, 12928, Control_c, 0, 64, 0
2, 12928, Note_on_c, 0, 54, 40
2, 12930, Note_on_c, 0, 50, 40
2, 12934, Note_on_c, 0, 60, 40
2, 12939, Note_on_c, 0, 78, 54
2, 12949, Note_off_c, 0, 54, 64
2, 12953, Control_c, 0, 64, 127
2, 12965, Control_c, 0, 64, 127
2, 12966, Note_off_c, 0, 60, 64
2, 12966, Note_off_c, 0, 50, 64
2, 12990, Note_off_c, 0, 78, 64
2, 13032, Control_c, 0, 64, 0
2, 13044, Control_c, 0, 64, 0
2, 13056, Note_on_c, 0, 76, 47
2, 13056, Note_on_c, 0, 54, 40
2, 13056, Note_on_c, 0, 50, 36
2, 13062, Note_on_c, 0, 60, 38
2, 13076, Control_c, 0, 64, 127
2, 13080, Note_off_c, 0, 54, 64
2, 13081, Note_off_c, 0, 50, 64
2, 13088, Control_c, 0, 64, 127
2, 13098, Note_off_c, 0, 60, 64
2, 13134, Note_off_c, 0, 76, 64
2, 13148, Note_on_c, 0, 71, 42
2, 13180, Note_on_c, 0, 72, 47
2, 13180, Note_on_c, 0, 50, 35
2, 13184, Note_on_c, 0, 60, 32
2, 13184, Note_on_c, 0, 54, 36
2, 13212, Note_off_c, 0, 71, 64
2, 13216, Note_off_c, 0, 54, 64
2, 13224, Note_off_c, 0, 50, 64
2, 13225, Note_off_c, 0, 60, 64
2, 13233, Note_off_c, 0, 72, 64
2, 13260, Note_on_c, 0, 69, 38
2, 13279, Control_c, 0, 64, 0
2, 13291, Control_c, 0, 64, 0
2, 13295, Note_off_c, 0, 69, 64
2, 13296, Note_on_c, 0, 67, 50
2, 13296, Note_on_c, 0, 43, 36
2, 13316, Control_c, 0, 64, 127
2, 13328, Control_c, 0, 64, 127
2, 13329, Note_off_c, 0, 43, 64
2, 13371, Note_off_c, 0, 67, 64
2, 13372, Note_on_c, 0, 71, 42
2, 13404, Note_on_c, 0, 74, 32
2, 13406, Note_on_c, 0, 59, 32
2, 13406, Note_on_c, 0, 55, 32
2, 13406, Note_on_c, 0, 50, 32
2, 13424, Note_off_c, 0, 71, 64
2, 13441, Note_off_c, 0, 50, 64
2, 13446, Note_off_c, 0, 74, 64
2, 13447, Note_off_c, 0, 55, 64
2, 13448, Note_off_c, 0, 59, 64
2, 13484, Note_on_c, 0, 78, 40
2, 13508, Note_on_c, 0, 50, 57
2, 13510, Note_on_c, 0, 81, 45
2, 13512, Note_on_c, 0, 59, 53
2, 13512, Note_on_c, 0, 55, 56
2, 13529, Note_off_c, 0, 78, 64
2, 13544, Note_off_c, 0, 50, 64
2, 13547, Note_off_c, 0, 59, 64
2, 13549, Note_off_c, 0, 55, 64
2, 13581, Note_off_c, 0, 81, 64
2, 13596, Note_on_c, 0, 79, 36
2, 13624, Control_c, 0, 64, 0
2, 13635, Note_on_c, 0, 55, 70
2, 13635, Note_on_c, 0, 43, 64
2, 13636, Control_c, 0, 64, 0
2, 13645, Note_off_c, 0, 79, 64
2, 13653, Control_c, 0, 64, 127
2, 13665, Note_off_c, 0, 43, 64
2, 13665, Note_off_c, 0, 55, 64
2, 13665, Control_c, 0, 64, 127
2, 13730, Control_c, 0, 64, 0
2, 13742, Control_c, 0, 64, 0
2, 13760, Note_on_c, 0, 43, 83
2, 13765, Note_on_c, 0, 55, 81
2, 13779, Control_c, 0, 64, 127
2, 13790, Note_off_c, 0, 43, 64
2, 13791, Control_c, 0, 64, 127
2, 13795, Note_off_c, 0, 55, 64
2, 13889, Note_on_c, 0, 55, 75
2, 13892, Note_on_c, 0, 43, 76
2, 13919, Note_off_c, 0, 55, 64
2, 13922, Note_off_c, 0, 43, 64
2, 14007, Note_on_c, 0, 55, 70
2, 14012, Note_on_c, 0, 43, 72
2, 14037, Note_off_c, 0, 55, 64
2, 14042, Note_off_c, 0, 43, 64
2, 14128, Note_on_c, 0, 55, 66
2, 14130, Note_on_c, 0, 43, 66
2, 14158, Note_off_c, 0, 55, 64
2, 14160, Note_off_c, 0, 43, 64
2, 14251, Note_on_c, 0, 43, 63
2, 14255, Note_on_c, 0, 55, 62
2, 14281, Note_off_c, 0, 43, 64
2, 14285, Note_off_c, 0, 55, 64
2, 14377, Note_on_c, 0, 55, 50
2, 14383, Note_on_c, 0, 43, 50
2, 14407, Note_off_c, 0, 55, 64
2, 14413, Note_off_c, 0, 43, 64
2, 14511, Note_on_c, 0, 55, 48
2, 14511, Note_on_c, 0, 43, 50
2, 14559, Note_off_c, 0, 43, 64
2, 14559, Note_off_c, 0, 55, 64
2, 14645, Note_on_c, 0, 55, 41
2, 14645, Note_on_c, 0, 43, 41
2, 14705, Note_off_c, 0, 43, 64
2, 14705, Note_off_c, 0, 55, 64
2, 14780, Note_on_c, 0, 43, 32
2, 14782, Note_on_c, 0, 55, 32
2, 14843, Note_off_c, 0, 43, 64
2, 14845, Note_off_c, 0, 55, 64
2, 14924, Note_on_c, 0, 55, 32
2, 14928, Note_on_c, 0, 43, 29
2, 14998, Note_off_c, 0, 55, 64
2, 15002, Note_off_c, 0, 43, 64
2, 15080, Note_on_c, 0, 43, 24
2, 15081, Note_on_c, 0, 55, 26
2, 15303, Control_c, 0, 64, 0
2, 15315, Control_c, 0, 64, 0
2, 15372, Note_off_c, 0, 43, 64
2, 15373, Note_off_c, 0, 55, 64
2, 15373, End_track
3, 0, Start_track
3, 0, Title_t, "Played by Dr. Ron Lubetsky"
3, 0, End_track
4, 0, Start_track
4, 0, Title_t, "Jan. 8, 1998"
4, 0, End_track
5, 0, Start_track
5, 0, Title_t, "email: acuity2020@aol.com"
5, 0, End_track
6, 0, Start_track
6, 0, Title_t, "Copyright © 1998"
6, 0, End_track
7, 0, Start_track
7, 0, Title_t, "All Rights Reserved"
7, 0, End_track
0, 0, End_of_file
