0, 0, Header, 1, 7, 240
1, 0, Start_track
1, 0, Time_signature, 4, 2, 24, 8
1, 0, Tempo, 500000
1, 0, Marker_t, "Chopin: Mazurka, Op. 68 No. 1 (posth.)- Vivace"
1, 0, End_track
2, 0, Start_track
2, 0, Title_t, "Chopin: Op. 68 No. 1 (posth.)"
2, 0, Program_c, 0, 0
2, 0, Control_c, 0, 7, 127
2, 16, Note_on_c, 0, 48, 47
2, 18, Note_on_c, 0, 36, 47
2, 18, Note_on_c, 0, 60, 64
2, 20, Note_on_c, 0, 64, 58
2, 22, Note_on_c, 0, 55, 62
2, 56, Note_off_c, 0, 48, 64
2, 58, Note_off_c, 0, 60, 64
2, 58, Note_off_c, 0, 36, 64
2, 60, Note_off_c, 0, 64, 64
2, 62, Note_off_c, 0, 55, 64
2, 92, Note_on_c, 0, 62, 85
2, 96, Note_on_c, 0, 48, 65
2, 96, Note_on_c, 0, 55, 68
2, 99, Note_on_c, 0, 65, 79
2, 100, Note_on_c, 0, 36, 68
2, 136, Note_off_c, 0, 62, 64
2, 140, Note_off_c, 0, 55, 64
2, 140, Note_off_c, 0, 48, 64
2, 143, Note_off_c, 0, 65, 64
2, 144, Note_off_c, 0, 36, 64
2, 174, Note_on_c, 0, 48, 77
2, 176, Note_on_c, 0, 36, 81
2, 178, Note_on_c, 0, 67, 81
2, 180, Note_on_c, 0, 64, 86
2, 186, Note_on_c, 0, 55, 69
2, 227, Note_off_c, 0, 48, 64
2, 229, Note_off_c, 0, 36, 64
2, 231, Note_off_c, 0, 67, 64
2, 233, Note_off_c, 0, 64, 64
2, 239, Note_off_c, 0, 55, 64
2, 362, Note_on_c, 0, 65, 88
2, 365, Note_on_c, 0, 69, 92
2, 367, Note_on_c, 0, 57, 92
2, 373, Note_on_c, 0, 36, 89
2, 374, Note_on_c, 0, 48, 85
2, 398, Control_c, 0, 64, 127
2, 406, Control_c, 0, 64, 127
2, 503, Note_off_c, 0, 65, 64
2, 506, Note_off_c, 0, 69, 64
2, 508, Note_off_c, 0, 57, 64
2, 514, Note_off_c, 0, 36, 64
2, 515, Note_off_c, 0, 48, 64
2, 533, Control_c, 0, 64, 0
2, 541, Control_c, 0, 64, 0
2, 549, Note_on_c, 0, 64, 70
2, 549, Note_on_c, 0, 67, 72
2, 558, Note_on_c, 0, 36, 72
2, 558, Note_on_c, 0, 48, 68
2, 563, Note_on_c, 0, 55, 72
2, 594, Note_off_c, 0, 67, 64
2, 594, Note_off_c, 0, 64, 64
2, 603, Note_off_c, 0, 48, 64
2, 603, Note_off_c, 0, 36, 64
2, 608, Note_off_c, 0, 55, 64
2, 628, Note_on_c, 0, 55, 74
2, 628, Note_on_c, 0, 64, 81
2, 631, Note_on_c, 0, 36, 72
2, 632, Note_on_c, 0, 60, 72
2, 633, Note_on_c, 0, 48, 78
2, 670, Note_off_c, 0, 64, 64
2, 670, Note_off_c, 0, 55, 64
2, 673, Note_off_c, 0, 36, 64
2, 674, Note_off_c, 0, 60, 64
2, 675, Note_off_c, 0, 48, 64
2, 708, Note_on_c, 0, 48, 85
2, 708, Note_on_c, 0, 60, 85
2, 712, Note_on_c, 0, 55, 78
2, 712, Note_on_c, 0, 36, 77
2, 762, Note_off_c, 0, 60, 64
2, 762, Note_off_c, 0, 48, 64
2, 766, Note_off_c, 0, 36, 64
2, 766, Note_off_c, 0, 55, 64
2, 893, Note_on_c, 0, 55, 97
2, 895, Note_on_c, 0, 62, 99
2, 901, Note_on_c, 0, 48, 99
2, 901, Note_on_c, 0, 36, 99
2, 914, Control_c, 0, 64, 127
2, 922, Control_c, 0, 64, 127
2, 1020, Note_off_c, 0, 55, 64
2, 1022, Note_off_c, 0, 62, 64
2, 1028, Note_off_c, 0, 36, 64
2, 1028, Note_off_c, 0, 48, 64
2, 1076, Note_on_c, 0, 55, 77
2, 1076, Note_on_c, 0, 60, 81
2, 1076, Note_on_c, 0, 64, 85
2, 1076, Note_on_c, 0, 36, 69
2, 1080, Note_on_c, 0, 48, 72
2, 1094, Control_c, 0, 64, 0
2, 1102, Control_c, 0, 64, 0
2, 1119, Note_off_c, 0, 36, 64
2, 1119, Note_off_c, 0, 64, 64
2, 1119, Note_off_c, 0, 60, 64
2, 1119, Note_off_c, 0, 55, 64
2, 1123, Note_off_c, 0, 48, 64
2, 1159, Note_on_c, 0, 36, 77
2, 1160, Note_on_c, 0, 48, 81
2, 1160, Note_on_c, 0, 55, 76
2, 1160, Note_on_c, 0, 62, 81
2, 1161, Note_on_c, 0, 65, 85
2, 1203, Note_off_c, 0, 36, 64
2, 1204, Note_off_c, 0, 62, 64
2, 1204, Note_off_c, 0, 55, 64
2, 1204, Note_off_c, 0, 48, 64
2, 1205, Note_off_c, 0, 65, 64
2, 1240, Note_on_c, 0, 67, 85
2, 1242, Note_on_c, 0, 48, 86
2, 1244, Note_on_c, 0, 55, 77
2, 1244, Note_on_c, 0, 36, 81
2, 1245, Note_on_c, 0, 64, 85
2, 1316, Note_off_c, 0, 67, 64
2, 1318, Note_off_c, 0, 48, 64
2, 1320, Note_off_c, 0, 36, 64
2, 1320, Note_off_c, 0, 55, 64
2, 1321, Note_off_c, 0, 64, 64
2, 1416, Note_on_c, 0, 60, 89
2, 1416, Note_on_c, 0, 48, 97
2, 1416, Note_on_c, 0, 41, 99
2, 1422, Note_on_c, 0, 69, 94
2, 1422, Note_on_c, 0, 65, 89
2, 1422, Note_on_c, 0, 57, 92
2, 1454, Control_c, 0, 64, 127
2, 1462, Control_c, 0, 64, 127
2, 1467, Control_c, 0, 64, 0
2, 1475, Control_c, 0, 64, 0
2, 1492, Control_c, 0, 64, 127
2, 1500, Control_c, 0, 64, 127
2, 1559, Note_off_c, 0, 41, 64
2, 1559, Note_off_c, 0, 48, 64
2, 1559, Note_off_c, 0, 60, 64
2, 1565, Note_off_c, 0, 57, 64
2, 1565, Note_off_c, 0, 65, 64
2, 1565, Note_off_c, 0, 69, 64
2, 1596, Note_on_c, 0, 67, 94
2, 1600, Note_on_c, 0, 64, 82
2, 1604, Note_on_c, 0, 55, 81
2, 1605, Note_on_c, 0, 60, 83
2, 1606, Note_on_c, 0, 48, 73
2, 1609, Note_on_c, 0, 36, 82
2, 1611, Control_c, 0, 64, 0
2, 1619, Control_c, 0, 64, 0
2, 1619, Control_c, 0, 64, 0
2, 1627, Control_c, 0, 64, 0
2, 1635, Note_off_c, 0, 60, 64
2, 1638, Note_off_c, 0, 64, 64
2, 1641, Note_off_c, 0, 55, 64
2, 1641, Note_off_c, 0, 67, 64
2, 1643, Note_off_c, 0, 36, 64
2, 1644, Control_c, 0, 64, 127
2, 1646, Note_off_c, 0, 48, 64
2, 1652, Control_c, 0, 64, 127
2, 1690, Note_on_c, 0, 55, 88
2, 1694, Note_on_c, 0, 64, 99
2, 1694, Note_on_c, 0, 60, 90
2, 1699, Note_on_c, 0, 36, 89
2, 1700, Note_on_c, 0, 48, 94
2, 1727, Note_off_c, 0, 48, 64
2, 1727, Note_off_c, 0, 60, 64
2, 1732, Note_off_c, 0, 55, 64
2, 1733, Note_off_c, 0, 36, 64
2, 1735, Note_off_c, 0, 64, 64
2, 1778, Control_c, 0, 64, 0
2, 1785, Note_on_c, 0, 67, 99
2, 1786, Control_c, 0, 64, 0
2, 1786, Note_on_c, 0, 64, 99
2, 1796, Note_on_c, 0, 55, 89
2, 1796, Note_on_c, 0, 36, 90
2, 1801, Note_on_c, 0, 48, 95
2, 1824, Control_c, 0, 64, 127
2, 1832, Control_c, 0, 64, 127
2, 1910, Note_off_c, 0, 67, 64
2, 1911, Note_off_c, 0, 64, 64
2, 1921, Note_off_c, 0, 36, 64
2, 1921, Note_off_c, 0, 55, 64
2, 1926, Note_off_c, 0, 48, 64
2, 1944, Control_c, 0, 64, 0
2, 1952, Control_c, 0, 64, 0
2, 1966, Control_c, 0, 64, 127
2, 1973, Control_c, 0, 64, 0
2, 1974, Control_c, 0, 64, 127
2, 1979, Note_on_c, 0, 71, 83
2, 1981, Control_c, 0, 64, 0
2, 2018, Control_c, 0, 64, 127
2, 2026, Control_c, 0, 64, 127
2, 2048, Note_on_c, 0, 72, 78
2, 2064, Note_off_c, 0, 71, 64
2, 2132, Note_on_c, 0, 57, 47
2, 2132, Note_on_c, 0, 54, 53
2, 2136, Note_on_c, 0, 74, 88
2, 2136, Note_on_c, 0, 62, 47
2, 2136, Note_on_c, 0, 60, 47
2, 2144, Note_off_c, 0, 72, 64
2, 2148, Control_c, 0, 64, 0
2, 2156, Control_c, 0, 64, 0
2, 2170, Control_c, 0, 64, 127
2, 2174, Note_off_c, 0, 74, 64
2, 2178, Control_c, 0, 64, 127
2, 2184, Note_off_c, 0, 57, 64
2, 2185, Note_off_c, 0, 54, 64
2, 2188, Note_off_c, 0, 60, 64
2, 2189, Note_off_c, 0, 62, 64
2, 2210, Note_on_c, 0, 74, 88
2, 2251, Note_off_c, 0, 74, 64
2, 2276, Control_c, 0, 64, 0
2, 2284, Control_c, 0, 64, 0
2, 2284, Note_on_c, 0, 76, 71
2, 2288, Note_on_c, 0, 59, 56
2, 2292, Note_on_c, 0, 62, 56
2, 2292, Note_on_c, 0, 55, 53
2, 2292, Note_on_c, 0, 53, 56
2, 2308, Note_on_c, 0, 74, 90
2, 2335, Note_off_c, 0, 76, 64
2, 2343, Note_off_c, 0, 59, 64
2, 2345, Control_c, 0, 64, 127
2, 2352, Note_off_c, 0, 53, 64
2, 2353, Control_c, 0, 64, 127
2, 2358, Note_off_c, 0, 55, 64
2, 2377, Note_off_c, 0, 62, 64
2, 2441, Control_c, 0, 64, 0
2, 2449, Control_c, 0, 64, 0
2, 2461, Note_on_c, 0, 67, 83
2, 2464, Note_on_c, 0, 62, 51
2, 2464, Note_on_c, 0, 59, 47
2, 2464, Note_on_c, 0, 55, 41
2, 2464, Note_on_c, 0, 53, 47
2, 2468, Note_off_c, 0, 74, 64
2, 2480, Control_c, 0, 64, 127
2, 2488, Control_c, 0, 64, 127
2, 2501, Note_off_c, 0, 53, 64
2, 2506, Note_off_c, 0, 62, 64
2, 2507, Note_off_c, 0, 55, 64
2, 2514, Note_off_c, 0, 59, 64
2, 2540, Note_on_c, 0, 71, 62
2, 2555, Note_off_c, 0, 67, 64
2, 2612, Control_c, 0, 64, 0
2, 2617, Note_on_c, 0, 52, 51
2, 2620, Control_c, 0, 64, 0
2, 2620, Note_on_c, 0, 60, 53
2, 2620, Note_on_c, 0, 55, 41
2, 2621, Note_on_c, 0, 72, 95
2, 2634, Note_off_c, 0, 71, 64
2, 2653, Control_c, 0, 64, 127
2, 2661, Control_c, 0, 64, 127
2, 2702, Note_off_c, 0, 60, 64
2, 2704, Note_on_c, 0, 74, 66
2, 2709, Note_off_c, 0, 72, 64
2, 2714, Note_off_c, 0, 55, 64
2, 2714, Note_off_c, 0, 52, 64
2, 2762, Control_c, 0, 64, 0
2, 2770, Control_c, 0, 64, 0
2, 2774, Note_on_c, 0, 64, 57
2, 2778, Note_on_c, 0, 76, 87
2, 2778, Note_on_c, 0, 48, 57
2, 2783, Note_on_c, 0, 55, 46
2, 2798, Note_off_c, 0, 74, 64
2, 2819, Control_c, 0, 64, 127
2, 2827, Control_c, 0, 64, 127
2, 2853, Note_on_c, 0, 77, 93
2, 2877, Note_off_c, 0, 64, 64
2, 2880, Note_off_c, 0, 76, 64
2, 2884, Note_off_c, 0, 55, 64
2, 2902, Note_off_c, 0, 48, 64
2, 2943, Note_on_c, 0, 79, 83
2, 2971, Note_off_c, 0, 77, 64
2, 3017, Note_on_c, 0, 80, 96
2, 3045, Note_off_c, 0, 79, 64
2, 3071, Control_c, 0, 64, 0
2, 3079, Control_c, 0, 64, 0
2, 3090, Note_on_c, 0, 43, 87
2, 3102, Note_on_c, 0, 81, 101
2, 3110, Control_c, 0, 64, 127
2, 3115, Note_off_c, 0, 80, 64
2, 3118, Control_c, 0, 64, 127
2, 3136, Note_off_c, 0, 81, 64
2, 3172, Note_on_c, 0, 81, 87
2, 3206, Note_off_c, 0, 81, 64
2, 3228, Note_on_c, 0, 83, 101
2, 3242, Control_c, 0, 64, 0
2, 3250, Control_c, 0, 64, 0
2, 3252, Note_on_c, 0, 65, 71
2, 3254, Note_on_c, 0, 59, 71
2, 3256, Note_on_c, 0, 55, 71
2, 3258, Note_on_c, 0, 81, 91
2, 3280, Note_off_c, 0, 83, 64
2, 3282, Control_c, 0, 64, 127
2, 3290, Control_c, 0, 64, 127
2, 3310, Note_off_c, 0, 59, 64
2, 3315, Note_off_c, 0, 55, 64
2, 3324, Note_off_c, 0, 65, 64
2, 3362, Note_off_c, 0, 43, 64
2, 3408, Note_on_c, 0, 59, 46
2, 3409, Note_on_c, 0, 65, 40
2, 3412, Note_on_c, 0, 55, 51
2, 3416, Note_on_c, 0, 79, 110
2, 3426, Note_off_c, 0, 81, 64
2, 3480, Note_off_c, 0, 59, 64
2, 3481, Note_off_c, 0, 65, 64
2, 3484, Note_off_c, 0, 55, 64
2, 3495, Note_on_c, 0, 74, 70
2, 3504, Note_off_c, 0, 79, 64
2, 3563, Note_on_c, 0, 48, 66
2, 3568, Note_on_c, 0, 77, 100
2, 3568, Control_c, 0, 64, 0
2, 3576, Note_off_c, 0, 74, 64
2, 3576, Control_c, 0, 64, 0
2, 3603, Control_c, 0, 64, 127
2, 3608, Note_off_c, 0, 77, 64
2, 3611, Control_c, 0, 64, 127
2, 3644, Note_on_c, 0, 77, 91
2, 3680, Note_off_c, 0, 77, 64
2, 3696, Note_on_c, 0, 79, 93
2, 3715, Note_on_c, 0, 57, 71
2, 3720, Note_on_c, 0, 65, 63
2, 3726, Note_on_c, 0, 77, 87
2, 3730, Control_c, 0, 64, 0
2, 3738, Control_c, 0, 64, 0
2, 3746, Note_off_c, 0, 79, 64
2, 3752, Control_c, 0, 64, 127
2, 3760, Control_c, 0, 64, 127
2, 3876, Note_off_c, 0, 48, 64
2, 3880, Note_on_c, 0, 64, 53
2, 3884, Control_c, 0, 64, 0
2, 3888, Note_on_c, 0, 55, 50
2, 3889, Note_on_c, 0, 76, 72
2, 3892, Note_off_c, 0, 57, 64
2, 3892, Control_c, 0, 64, 0
2, 3897, Note_off_c, 0, 65, 64
2, 3902, Note_off_c, 0, 77, 64
2, 3911, Control_c, 0, 64, 127
2, 3919, Control_c, 0, 64, 127
2, 3976, Control_c, 0, 64, 0
2, 3984, Control_c, 0, 64, 0
2, 3998, Control_c, 0, 64, 127
2, 4006, Control_c, 0, 64, 127
2, 4008, Note_off_c, 0, 64, 64
2, 4016, Note_off_c, 0, 55, 64
2, 4017, Note_off_c, 0, 76, 64
2, 4030, Note_on_c, 0, 69, 53
2, 4043, Note_on_c, 0, 74, 81
2, 4044, Control_c, 0, 64, 0
2, 4050, Note_on_c, 0, 54, 53
2, 4052, Control_c, 0, 64, 0
2, 4052, Note_on_c, 0, 57, 47
2, 4054, Note_on_c, 0, 62, 40
2, 4060, Note_on_c, 0, 60, 31
2, 4068, Note_off_c, 0, 69, 64
2, 4077, Control_c, 0, 64, 127
2, 4084, Note_off_c, 0, 74, 64
2, 4085, Control_c, 0, 64, 127
2, 4104, Note_off_c, 0, 57, 64
2, 4108, Note_off_c, 0, 54, 64
2, 4113, Note_off_c, 0, 60, 64
2, 4120, Note_on_c, 0, 74, 88
2, 4129, Note_off_c, 0, 62, 64
2, 4156, Note_off_c, 0, 74, 64
2, 4176, Note_on_c, 0, 76, 71
2, 4197, Note_on_c, 0, 62, 53
2, 4197, Note_on_c, 0, 55, 53
2, 4202, Note_on_c, 0, 74, 96
2, 4202, Note_on_c, 0, 53, 52
2, 4207, Note_on_c, 0, 59, 45
2, 4209, Control_c, 0, 64, 0
2, 4217, Control_c, 0, 64, 0
2, 4224, Note_off_c, 0, 76, 64
2, 4233, Control_c, 0, 64, 127
2, 4241, Control_c, 0, 64, 127
2, 4258, Note_off_c, 0, 53, 64
2, 4262, Note_off_c, 0, 59, 64
2, 4267, Note_off_c, 0, 55, 64
2, 4269, Note_off_c, 0, 62, 64
2, 4335, Note_off_c, 0, 74, 64
2, 4354, Control_c, 0, 64, 0
2, 4360, Note_on_c, 0, 62, 53
2, 4362, Control_c, 0, 64, 0
2, 4365, Note_on_c, 0, 59, 53
2, 4365, Note_on_c, 0, 55, 47
2, 4365, Note_on_c, 0, 53, 50
2, 4372, Note_on_c, 0, 67, 101
2, 4387, Control_c, 0, 64, 127
2, 4395, Control_c, 0, 64, 127
2, 4407, Note_off_c, 0, 53, 64
2, 4407, Note_off_c, 0, 59, 64
2, 4410, Note_off_c, 0, 55, 64
2, 4410, Note_off_c, 0, 62, 64
2, 4434, Note_on_c, 0, 71, 90
2, 4452, Note_off_c, 0, 67, 64
2, 4508, Note_on_c, 0, 72, 88
2, 4512, Control_c, 0, 64, 0
2, 4514, Note_on_c, 0, 60, 51
2, 4515, Note_on_c, 0, 52, 50
2, 4516, Note_on_c, 0, 55, 53
2, 4520, Control_c, 0, 64, 0
2, 4520, Control_c, 0, 64, 0
2, 4522, Note_off_c, 0, 71, 64
2, 4528, Control_c, 0, 64, 0
2, 4534, Control_c, 0, 64, 127
2, 4542, Control_c, 0, 64, 127
2, 4555, Control_c, 0, 64, 127
2, 4563, Control_c, 0, 64, 127
2, 4569, Note_off_c, 0, 55, 64
2, 4586, Note_off_c, 0, 60, 64
2, 4589, Note_on_c, 0, 74, 76
2, 4603, Note_off_c, 0, 52, 64
2, 4605, Note_off_c, 0, 72, 64
2, 4658, Note_on_c, 0, 76, 88
2, 4665, Note_on_c, 0, 64, 53
2, 4666, Control_c, 0, 64, 0
2, 4674, Control_c, 0, 64, 0
2, 4675, Note_on_c, 0, 55, 50
2, 4681, Note_off_c, 0, 74, 64
2, 4681, Note_on_c, 0, 48, 50
2, 4698, Control_c, 0, 64, 127
2, 4706, Control_c, 0, 64, 127
2, 4728, Note_on_c, 0, 77, 88
2, 4734, Note_off_c, 0, 64, 64
2, 4738, Note_off_c, 0, 76, 64
2, 4750, Note_off_c, 0, 55, 64
2, 4765, Note_off_c, 0, 48, 64
2, 4811, Note_off_c, 0, 77, 64
2, 4811, Note_on_c, 0, 79, 91
2, 4882, Note_on_c, 0, 84, 90
2, 4891, Note_off_c, 0, 79, 64
2, 4966, Note_on_c, 0, 83, 85
2, 4971, Note_on_c, 0, 43, 77
2, 4980, Control_c, 0, 64, 0
2, 4984, Note_off_c, 0, 84, 64
2, 4988, Control_c, 0, 64, 0
2, 5000, Control_c, 0, 64, 127
2, 5008, Control_c, 0, 64, 127
2, 5044, Note_on_c, 0, 81, 76
2, 5072, Note_off_c, 0, 83, 64
2, 5080, Note_off_c, 0, 81, 64
2, 5086, Note_on_c, 0, 83, 62
2, 5107, Note_on_c, 0, 81, 75
2, 5123, Note_off_c, 0, 83, 64
2, 5127, Control_c, 0, 64, 0
2, 5132, Note_on_c, 0, 65, 47
2, 5135, Control_c, 0, 64, 0
2, 5136, Note_on_c, 0, 55, 47
2, 5140, Note_on_c, 0, 62, 40
2, 5142, Note_on_c, 0, 77, 97
2, 5152, Control_c, 0, 64, 127
2, 5160, Control_c, 0, 64, 127
2, 5165, Note_off_c, 0, 81, 64
2, 5185, Note_off_c, 0, 55, 64
2, 5188, Note_off_c, 0, 62, 64
2, 5193, Note_off_c, 0, 65, 64
2, 5211, Note_on_c, 0, 74, 74
2, 5238, Note_off_c, 0, 77, 64
2, 5249, Note_off_c, 0, 43, 64
2, 5279, Note_on_c, 0, 71, 97
2, 5279, Note_on_c, 0, 65, 47
2, 5281, Note_on_c, 0, 55, 53
2, 5287, Note_on_c, 0, 62, 47
2, 5297, Note_off_c, 0, 74, 64
2, 5315, Note_off_c, 0, 62, 64
2, 5316, Note_off_c, 0, 65, 64
2, 5325, Note_off_c, 0, 55, 64
2, 5346, Note_on_c, 0, 67, 83
2, 5369, Note_off_c, 0, 71, 64
2, 5423, Control_c, 0, 64, 0
2, 5431, Control_c, 0, 64, 0
2, 5437, Note_on_c, 0, 64, 71
2, 5440, Note_off_c, 0, 67, 64
2, 5440, Note_on_c, 0, 48, 71
2, 5441, Note_on_c, 0, 72, 71
2, 5467, Control_c, 0, 64, 127
2, 5475, Control_c, 0, 64, 127
2, 5504, Note_on_c, 0, 74, 63
2, 5527, Note_off_c, 0, 72, 64
2, 5533, Note_off_c, 0, 48, 64
2, 5544, Note_on_c, 0, 76, 78
2, 5549, Note_off_c, 0, 64, 64
2, 5558, Note_off_c, 0, 74, 64
2, 5572, Note_on_c, 0, 67, 76
2, 5591, Control_c, 0, 64, 0
2, 5596, Note_on_c, 0, 48, 1
2, 5599, Control_c, 0, 64, 0
2, 5600, Note_on_c, 0, 60, 25
2, 5600, Note_on_c, 0, 55, 38
2, 5604, Note_on_c, 0, 64, 77
2, 5604, Note_on_c, 0, 72, 88
2, 5619, Note_off_c, 0, 76, 64
2, 5648, Control_c, 0, 64, 127
2, 5656, Control_c, 0, 64, 127
2, 5658, Note_off_c, 0, 67, 64
2, 5686, Note_off_c, 0, 55, 64
2, 5688, Note_off_c, 0, 48, 64
2, 5692, Note_off_c, 0, 60, 64
2, 5696, Note_off_c, 0, 72, 64
2, 5696, Note_off_c, 0, 64, 64
2, 5755, Note_on_c, 0, 71, 71
2, 5828, Note_on_c, 0, 72, 88
2, 5853, Note_off_c, 0, 71, 64
2, 5860, Control_c, 0, 64, 0
2, 5868, Control_c, 0, 64, 0
2, 5882, Control_c, 0, 64, 127
2, 5890, Control_c, 0, 64, 127
2, 5893, Control_c, 0, 64, 0
2, 5896, Note_on_c, 0, 60, 62
2, 5896, Note_on_c, 0, 57, 66
2, 5897, Note_on_c, 0, 54, 70
2, 5900, Note_on_c, 0, 62, 53
2, 5901, Control_c, 0, 64, 0
2, 5903, Note_on_c, 0, 74, 93
2, 5922, Note_off_c, 0, 72, 64
2, 5936, Control_c, 0, 64, 127
2, 5941, Note_off_c, 0, 74, 64
2, 5944, Control_c, 0, 64, 127
2, 5946, Note_off_c, 0, 60, 64
2, 5949, Note_off_c, 0, 57, 64
2, 5950, Note_off_c, 0, 62, 64
2, 5951, Note_off_c, 0, 54, 64
2, 5980, Note_on_c, 0, 74, 93
2, 6019, Note_off_c, 0, 74, 64
2, 6040, Note_on_c, 0, 76, 81
2, 6047, Control_c, 0, 64, 0
2, 6053, Note_on_c, 0, 62, 66
2, 6055, Control_c, 0, 64, 0
2, 6059, Note_on_c, 0, 55, 62
2, 6059, Note_on_c, 0, 53, 51
2, 6066, Note_on_c, 0, 74, 88
2, 6066, Note_on_c, 0, 59, 51
2, 6080, Note_off_c, 0, 76, 64
2, 6103, Control_c, 0, 64, 127
2, 6111, Note_off_c, 0, 53, 64
2, 6111, Control_c, 0, 64, 127
2, 6115, Note_off_c, 0, 55, 64
2, 6117, Note_off_c, 0, 59, 64
2, 6127, Note_off_c, 0, 62, 64
2, 6207, Control_c, 0, 64, 0
2, 6211, Note_on_c, 0, 67, 95
2, 6213, Note_on_c, 0, 62, 62
2, 6215, Control_c, 0, 64, 0
2, 6217, Note_on_c, 0, 53, 62
2, 6219, Note_on_c, 0, 59, 51
2, 6223, Note_on_c, 0, 55, 51
2, 6231, Control_c, 0, 64, 127
2, 6236, Note_off_c, 0, 74, 64
2, 6239, Control_c, 0, 64, 127
2, 6252, Note_off_c, 0, 59, 64
2, 6256, Note_off_c, 0, 55, 64
2, 6256, Note_off_c, 0, 53, 64
2, 6256, Note_off_c, 0, 62, 64
2, 6284, Note_on_c, 0, 71, 76
2, 6305, Note_off_c, 0, 67, 64
2, 6355, Control_c, 0, 64, 0
2, 6363, Control_c, 0, 64, 0
2, 6364, Note_on_c, 0, 55, 66
2, 6365, Note_on_c, 0, 52, 63
2, 6367, Note_on_c, 0, 72, 100
2, 6368, Note_on_c, 0, 60, 58
2, 6371, Note_off_c, 0, 71, 64
2, 6400, Control_c, 0, 64, 0
2, 6404, Control_c, 0, 64, 127
2, 6408, Control_c, 0, 64, 0
2, 6412, Control_c, 0, 64, 127
2, 6422, Control_c, 0, 64, 127
2, 6430, Control_c, 0, 64, 127
2, 6445, Note_on_c, 0, 74, 76
2, 6449, Note_off_c, 0, 60, 64
2, 6449, Note_off_c, 0, 72, 64
2, 6452, Note_off_c, 0, 55, 64
2, 6475, Note_off_c, 0, 52, 64
2, 6514, Control_c, 0, 64, 0
2, 6521, Note_on_c, 0, 64, 65
2, 6521, Note_on_c, 0, 55, 57
2, 6521, Note_on_c, 0, 48, 72
2, 6522, Control_c, 0, 64, 0
2, 6522, Note_on_c, 0, 76, 95
2, 6539, Note_off_c, 0, 74, 64
2, 6550, Control_c, 0, 64, 127
2, 6558, Control_c, 0, 64, 127
2, 6594, Note_on_c, 0, 77, 93
2, 6597, Note_off_c, 0, 64, 64
2, 6606, Note_off_c, 0, 76, 64
2, 6616, Note_off_c, 0, 55, 64
2, 6624, Note_off_c, 0, 48, 64
2, 6677, Note_on_c, 0, 79, 91
2, 6697, Note_off_c, 0, 77, 64
2, 6748, Note_on_c, 0, 80, 88
2, 6759, Note_off_c, 0, 79, 64
2, 6799, Control_c, 0, 64, 0
2, 6807, Control_c, 0, 64, 0
2, 6822, Note_on_c, 0, 43, 95
2, 6830, Note_on_c, 0, 81, 96
2, 6849, Control_c, 0, 64, 127
2, 6857, Control_c, 0, 64, 127
2, 6860, Note_off_c, 0, 80, 64
2, 6870, Note_off_c, 0, 81, 64
2, 6904, Note_on_c, 0, 81, 78
2, 6940, Note_off_c, 0, 81, 64
2, 6956, Note_on_c, 0, 83, 103
2, 6970, Control_c, 0, 64, 0
2, 6976, Note_on_c, 0, 59, 65
2, 6976, Note_on_c, 0, 65, 32
2, 6977, Note_on_c, 0, 55, 50
2, 6978, Control_c, 0, 64, 0
2, 6984, Note_on_c, 0, 81, 100
2, 7002, Control_c, 0, 64, 127
2, 7010, Control_c, 0, 64, 127
2, 7013, Note_off_c, 0, 83, 64
2, 7031, Note_off_c, 0, 59, 64
2, 7032, Note_off_c, 0, 55, 64
2, 7037, Note_off_c, 0, 65, 64
2, 7096, Note_off_c, 0, 43, 64
2, 7124, Note_on_c, 0, 59, 62
2, 7126, Note_on_c, 0, 55, 70
2, 7132, Note_on_c, 0, 65, 62
2, 7133, Note_on_c, 0, 79, 102
2, 7144, Note_off_c, 0, 81, 64
2, 7174, Note_off_c, 0, 59, 64
2, 7175, Note_off_c, 0, 65, 64
2, 7175, Note_off_c, 0, 55, 64
2, 7212, Note_on_c, 0, 74, 71
2, 7235, Note_off_c, 0, 79, 64
2, 7275, Note_on_c, 0, 48, 71
2, 7280, Note_on_c, 0, 77, 101
2, 7283, Control_c, 0, 64, 0
2, 7291, Note_off_c, 0, 74, 64
2, 7291, Control_c, 0, 64, 0
2, 7313, Note_off_c, 0, 77, 64
2, 7326, Control_c, 0, 64, 127
2, 7334, Control_c, 0, 64, 127
2, 7355, Note_on_c, 0, 77, 93
2, 7389, Note_off_c, 0, 77, 64
2, 7417, Note_on_c, 0, 79, 91
2, 7423, Control_c, 0, 64, 0
2, 7431, Control_c, 0, 64, 0
2, 7431, Note_on_c, 0, 65, 62
2, 7431, Note_on_c, 0, 57, 65
2, 7439, Note_on_c, 0, 77, 85
2, 7464, Note_off_c, 0, 79, 64
2, 7466, Control_c, 0, 64, 127
2, 7474, Control_c, 0, 64, 127
2, 7580, Note_on_c, 0, 64, 66
2, 7581, Note_on_c, 0, 55, 62
2, 7582, Note_off_c, 0, 48, 64
2, 7591, Note_on_c, 0, 76, 77
2, 7596, Note_off_c, 0, 57, 64
2, 7596, Note_off_c, 0, 65, 64
2, 7604, Note_off_c, 0, 77, 64
2, 7604, Control_c, 0, 64, 0
2, 7612, Control_c, 0, 64, 0
2, 7626, Control_c, 0, 64, 127
2, 7633, Note_off_c, 0, 55, 64
2, 7633, Note_off_c, 0, 64, 64
2, 7634, Control_c, 0, 64, 127
2, 7641, Note_off_c, 0, 76, 64
2, 7696, Control_c, 0, 64, 0
2, 7704, Control_c, 0, 64, 0
2, 7715, Note_on_c, 0, 69, 63
2, 7718, Control_c, 0, 64, 127
2, 7726, Control_c, 0, 64, 127
2, 7737, Note_on_c, 0, 74, 78
2, 7744, Note_on_c, 0, 62, 46
2, 7744, Note_on_c, 0, 60, 56
2, 7746, Control_c, 0, 64, 0
2, 7748, Note_on_c, 0, 57, 66
2, 7748, Note_on_c, 0, 54, 62
2, 7754, Control_c, 0, 64, 0
2, 7764, Note_off_c, 0, 69, 64
2, 7783, Note_off_c, 0, 74, 64
2, 7789, Control_c, 0, 64, 127
2, 7797, Control_c, 0, 64, 127
2, 7801, Note_off_c, 0, 57, 64
2, 7808, Note_off_c, 0, 60, 64
2, 7814, Note_off_c, 0, 62, 64
2, 7815, Note_off_c, 0, 54, 64
2, 7819, Note_on_c, 0, 74, 88
2, 7853, Note_off_c, 0, 74, 64
2, 7880, Note_on_c, 0, 76, 88
2, 7895, Note_on_c, 0, 62, 88
2, 7895, Note_on_c, 0, 55, 71
2, 7896, Control_c, 0, 64, 0
2, 7903, Note_on_c, 0, 59, 76
2, 7903, Note_on_c, 0, 53, 66
2, 7904, Control_c, 0, 64, 0
2, 7909, Note_on_c, 0, 74, 90
2, 7933, Note_off_c, 0, 76, 64
2, 7939, Control_c, 0, 64, 127
2, 7947, Note_off_c, 0, 53, 64
2, 7947, Control_c, 0, 64, 127
2, 7950, Note_off_c, 0, 59, 64
2, 7950, Note_off_c, 0, 55, 64
2, 7957, Note_off_c, 0, 62, 64
2, 8046, Note_on_c, 0, 67, 85
2, 8047, Note_off_c, 0, 74, 64
2, 8058, Note_on_c, 0, 62, 57
2, 8058, Note_on_c, 0, 59, 65
2, 8064, Note_on_c, 0, 55, 53
2, 8064, Note_on_c, 0, 53, 56
2, 8099, Note_off_c, 0, 59, 64
2, 8101, Note_off_c, 0, 55, 64
2, 8105, Note_off_c, 0, 53, 64
2, 8106, Note_off_c, 0, 62, 64
2, 8128, Note_on_c, 0, 71, 78
2, 8138, Note_off_c, 0, 67, 64
2, 8200, Note_on_c, 0, 60, 66
2, 8200, Note_on_c, 0, 55, 66
2, 8201, Note_on_c, 0, 52, 66
2, 8204, Control_c, 0, 64, 0
2, 8211, Note_on_c, 0, 72, 88
2, 8212, Control_c, 0, 64, 0
2, 8212, Control_c, 0, 64, 0
2, 8220, Note_off_c, 0, 71, 64
2, 8220, Control_c, 0, 64, 0
2, 8234, Control_c, 0, 64, 127
2, 8242, Control_c, 0, 64, 127
2, 8249, Control_c, 0, 64, 127
2, 8257, Control_c, 0, 64, 127
2, 8288, Note_off_c, 0, 55, 64
2, 8290, Note_off_c, 0, 60, 64
2, 8292, Note_on_c, 0, 74, 78
2, 8314, Note_off_c, 0, 72, 64
2, 8336, Note_off_c, 0, 52, 64
2, 8347, Control_c, 0, 64, 0
2, 8355, Control_c, 0, 64, 0
2, 8360, Note_on_c, 0, 55, 65
2, 8362, Note_on_c, 0, 64, 70
2, 8366, Note_on_c, 0, 76, 78
2, 8375, Note_on_c, 0, 48, 70
2, 8388, Note_off_c, 0, 74, 64
2, 8392, Control_c, 0, 64, 127
2, 8400, Control_c, 0, 64, 127
2, 8451, Note_on_c, 0, 77, 83
2, 8455, Note_off_c, 0, 64, 64
2, 8460, Note_off_c, 0, 76, 64
2, 8469, Note_off_c, 0, 55, 64
2, 8484, Note_off_c, 0, 48, 64
2, 8529, Note_on_c, 0, 79, 77
2, 8549, Note_off_c, 0, 77, 64
2, 8595, Note_on_c, 0, 84, 90
2, 8612, Note_off_c, 0, 79, 64
2, 8662, Control_c, 0, 64, 0
2, 8670, Control_c, 0, 64, 0
2, 8671, Note_on_c, 0, 83, 90
2, 8681, Note_on_c, 0, 43, 70
2, 8687, Note_off_c, 0, 84, 64
2, 8703, Control_c, 0, 64, 127
2, 8711, Control_c, 0, 64, 127
2, 8743, Note_on_c, 0, 81, 88
2, 8755, Note_off_c, 0, 83, 64
2, 8786, Note_on_c, 0, 83, 56
2, 8805, Note_off_c, 0, 81, 64
2, 8808, Note_on_c, 0, 81, 74
2, 8816, Control_c, 0, 64, 0
2, 8824, Control_c, 0, 64, 0
2, 8824, Note_on_c, 0, 62, 41
2, 8825, Note_on_c, 0, 65, 58
2, 8826, Note_on_c, 0, 55, 51
2, 8828, Note_on_c, 0, 77, 100
2, 8833, Note_off_c, 0, 83, 64
2, 8839, Control_c, 0, 64, 127
2, 8847, Control_c, 0, 64, 127
2, 8864, Note_off_c, 0, 81, 64
2, 8891, Note_off_c, 0, 55, 64
2, 8900, Note_off_c, 0, 62, 64
2, 8900, Note_on_c, 0, 74, 79
2, 8902, Note_off_c, 0, 65, 64
2, 8914, Note_off_c, 0, 77, 64
2, 8951, Note_off_c, 0, 43, 64
2, 8968, Note_on_c, 0, 71, 97
2, 8972, Note_on_c, 0, 55, 70
2, 8978, Note_on_c, 0, 65, 62
2, 8978, Note_on_c, 0, 62, 63
2, 8982, Note_off_c, 0, 74, 64
2, 9036, Note_off_c, 0, 55, 64
2, 9041, Note_on_c, 0, 67, 76
2, 9042, Note_off_c, 0, 62, 64
2, 9042, Note_off_c, 0, 65, 64
2, 9052, Note_off_c, 0, 71, 64
2, 9118, Control_c, 0, 64, 0
2, 9120, Note_on_c, 0, 48, 66
2, 9125, Note_on_c, 0, 64, 78
2, 9126, Control_c, 0, 64, 0
2, 9133, Note_on_c, 0, 72, 78
2, 9149, Note_off_c, 0, 67, 64
2, 9155, Control_c, 0, 64, 127
2, 9163, Control_c, 0, 64, 127
2, 9185, Note_on_c, 0, 74, 65
2, 9212, Note_on_c, 0, 67, 76
2, 9217, Note_off_c, 0, 72, 64
2, 9231, Note_off_c, 0, 64, 64
2, 9232, Control_c, 0, 64, 0
2, 9236, Note_on_c, 0, 76, 81
2, 9240, Control_c, 0, 64, 0
2, 9243, Note_off_c, 0, 48, 64
2, 9254, Control_c, 0, 64, 127
2, 9259, Note_off_c, 0, 74, 64
2, 9262, Control_c, 0, 64, 127
2, 9268, Control_c, 0, 64, 0
2, 9276, Control_c, 0, 64, 0
2, 9276, Note_on_c, 0, 60, 63
2, 9276, Note_on_c, 0, 55, 43
2, 9279, Note_on_c, 0, 72, 78
2, 9279, Note_on_c, 0, 64, 77
2, 9280, Note_on_c, 0, 48, 82
2, 9290, Note_off_c, 0, 76, 64
2, 9292, Note_off_c, 0, 67, 64
2, 9311, Control_c, 0, 64, 127
2, 9319, Control_c, 0, 64, 127
2, 9392, Note_off_c, 0, 55, 64
2, 9392, Note_off_c, 0, 60, 64
2, 9395, Note_off_c, 0, 64, 64
2, 9395, Note_off_c, 0, 72, 64
2, 9396, Note_off_c, 0, 48, 64
2, 9432, Note_on_c, 0, 71, 87
2, 9474, Control_c, 0, 64, 0
2, 9482, Control_c, 0, 64, 0
2, 9515, Note_on_c, 0, 72, 72
2, 9527, Note_off_c, 0, 71, 64
2, 9592, Note_on_c, 0, 62, 82
2, 9592, Note_on_c, 0, 50, 82
2, 9595, Note_on_c, 0, 74, 86
2, 9595, Note_on_c, 0, 60, 79
2, 9595, Note_on_c, 0, 57, 79
2, 9597, Note_on_c, 0, 66, 90
2, 9611, Note_off_c, 0, 72, 64
2, 9617, Control_c, 0, 64, 127
2, 9625, Control_c, 0, 64, 127
2, 9631, Note_off_c, 0, 57, 64
2, 9633, Note_off_c, 0, 66, 64
2, 9634, Note_off_c, 0, 50, 64
2, 9635, Note_off_c, 0, 62, 64
2, 9642, Note_off_c, 0, 60, 64
2, 9648, Note_off_c, 0, 74, 64
2, 9692, Note_on_c, 0, 74, 90
2, 9692, Note_on_c, 0, 50, 76
2, 9696, Note_on_c, 0, 66, 90
2, 9696, Note_on_c, 0, 62, 70
2, 9696, Note_on_c, 0, 60, 79
2, 9696, Note_on_c, 0, 57, 76
2, 9718, Control_c, 0, 64, 0
2, 9726, Control_c, 0, 64, 0
2, 9736, Note_on_c, 0, 59, 71
2, 9736, Note_on_c, 0, 55, 81
2, 9741, Note_on_c, 0, 71, 92
2, 9742, Note_on_c, 0, 67, 85
2, 9743, Note_off_c, 0, 60, 64
2, 9744, Note_off_c, 0, 66, 64
2, 9747, Note_off_c, 0, 50, 64
2, 9748, Note_off_c, 0, 62, 64
2, 9751, Note_off_c, 0, 57, 64
2, 9752, Note_off_c, 0, 74, 64
2, 9777, Control_c, 0, 64, 127
2, 9785, Control_c, 0, 64, 127
2, 9806, Note_off_c, 0, 55, 64
2, 9808, Note_off_c, 0, 59, 64
2, 9814, Note_off_c, 0, 67, 64
2, 9819, Note_off_c, 0, 71, 64
2, 9849, Control_c, 0, 64, 127
2, 9853, Control_c, 0, 64, 127
2, 9857, Control_c, 0, 64, 127
2, 9861, Control_c, 0, 64, 127
2, 9884, Control_c, 0, 64, 0
2, 9892, Control_c, 0, 64, 0
2, 9898, Note_on_c, 0, 31, 86
2, 9900, Note_on_c, 0, 79, 85
2, 9900, Note_on_c, 0, 67, 76
2, 9902, Note_on_c, 0, 71, 85
2, 9902, Note_on_c, 0, 43, 78
2, 9904, Note_on_c, 0, 74, 86
2, 9919, Control_c, 0, 64, 127
2, 9927, Control_c, 0, 64, 127
2, 10026, Note_off_c, 0, 31, 64
2, 10028, Note_off_c, 0, 67, 64
2, 10028, Note_off_c, 0, 79, 64
2, 10030, Note_off_c, 0, 43, 64
2, 10030, Note_off_c, 0, 71, 64
2, 10032, Note_off_c, 0, 74, 64
2, 10046, Control_c, 0, 64, 0
2, 10054, Control_c, 0, 64, 0
2, 10056, Note_on_c, 0, 62, 72
2, 10056, Note_on_c, 0, 60, 73
2, 10056, Note_on_c, 0, 57, 78
2, 10059, Note_on_c, 0, 66, 85
2, 10059, Note_on_c, 0, 50, 76
2, 10060, Note_on_c, 0, 74, 81
2, 10081, Note_off_c, 0, 62, 64
2, 10084, Control_c, 0, 64, 127
2, 10087, Note_off_c, 0, 57, 64
2, 10092, Control_c, 0, 64, 127
2, 10094, Note_off_c, 0, 66, 64
2, 10099, Note_off_c, 0, 74, 64
2, 10104, Note_off_c, 0, 60, 64
2, 10107, Note_off_c, 0, 50, 64
2, 10146, Note_on_c, 0, 50, 57
2, 10154, Note_on_c, 0, 57, 57
2, 10156, Note_on_c, 0, 62, 65
2, 10156, Note_on_c, 0, 60, 63
2, 10160, Note_on_c, 0, 74, 70
2, 10160, Note_on_c, 0, 69, 72
2, 10160, Note_on_c, 0, 66, 72
2, 10203, Control_c, 0, 64, 0
2, 10211, Control_c, 0, 64, 0
2, 10215, Note_on_c, 0, 67, 86
2, 10218, Note_off_c, 0, 57, 64
2, 10219, Note_off_c, 0, 60, 64
2, 10219, Note_off_c, 0, 50, 64
2, 10219, Note_on_c, 0, 59, 79
2, 10219, Note_on_c, 0, 55, 70
2, 10224, Note_off_c, 0, 66, 64
2, 10224, Note_off_c, 0, 69, 64
2, 10225, Note_off_c, 0, 74, 64
2, 10226, Note_off_c, 0, 62, 64
2, 10240, Control_c, 0, 64, 127
2, 10248, Control_c, 0, 64, 127
2, 10293, Note_off_c, 0, 67, 64
2, 10297, Note_off_c, 0, 55, 64
2, 10297, Note_off_c, 0, 59, 64
2, 10317, Control_c, 0, 64, 127
2, 10325, Control_c, 0, 64, 127
2, 10337, Control_c, 0, 64, 127
2, 10345, Control_c, 0, 64, 127
2, 10361, Control_c, 0, 64, 0
2, 10368, Note_on_c, 0, 71, 86
2, 10368, Note_on_c, 0, 62, 88
2, 10369, Control_c, 0, 64, 0
2, 10372, Note_on_c, 0, 67, 88
2, 10374, Note_on_c, 0, 43, 96
2, 10374, Note_on_c, 0, 31, 87
2, 10420, Control_c, 0, 64, 127
2, 10428, Control_c, 0, 64, 127
2, 10436, Note_on_c, 0, 72, 69
2, 10440, Note_on_c, 0, 69, 68
2, 10456, Note_off_c, 0, 67, 64
2, 10456, Note_off_c, 0, 71, 64
2, 10464, Note_off_c, 0, 62, 64
2, 10502, Note_off_c, 0, 31, 64
2, 10502, Note_off_c, 0, 43, 64
2, 10517, Control_c, 0, 64, 0
2, 10525, Control_c, 0, 64, 0
2, 10532, Note_on_c, 0, 74, 81
2, 10532, Note_on_c, 0, 60, 72
2, 10533, Note_on_c, 0, 50, 81
2, 10538, Note_on_c, 0, 62, 73
2, 10538, Note_on_c, 0, 57, 57
2, 10540, Note_off_c, 0, 72, 64
2, 10543, Note_on_c, 0, 66, 85
2, 10544, Note_off_c, 0, 69, 64
2, 10554, Control_c, 0, 64, 127
2, 10562, Control_c, 0, 64, 127
2, 10571, Note_off_c, 0, 50, 64
2, 10571, Note_off_c, 0, 57, 64
2, 10575, Note_off_c, 0, 62, 64
2, 10577, Note_off_c, 0, 60, 64
2, 10577, Note_off_c, 0, 66, 64
2, 10582, Note_off_c, 0, 74, 64
2, 10636, Note_on_c, 0, 62, 63
2, 10638, Note_on_c, 0, 57, 78
2, 10640, Note_on_c, 0, 60, 71
2, 10641, Note_on_c, 0, 50, 76
2, 10644, Note_on_c, 0, 66, 81
2, 10646, Note_on_c, 0, 74, 81
2, 10669, Control_c, 0, 64, 0
2, 10677, Control_c, 0, 64, 0
2, 10696, Note_on_c, 0, 67, 85
2, 10698, Note_on_c, 0, 71, 88
2, 10698, Note_on_c, 0, 55, 87
2, 10703, Note_off_c, 0, 60, 64
2, 10703, Note_on_c, 0, 59, 87
2, 10708, Note_off_c, 0, 66, 64
2, 10708, Note_off_c, 0, 50, 64
2, 10709, Note_off_c, 0, 74, 64
2, 10710, Note_off_c, 0, 57, 64
2, 10711, Note_off_c, 0, 62, 64
2, 10715, Control_c, 0, 64, 127
2, 10723, Control_c, 0, 64, 127
2, 10768, Note_off_c, 0, 67, 64
2, 10770, Note_off_c, 0, 55, 64
2, 10770, Note_off_c, 0, 71, 64
2, 10775, Note_off_c, 0, 59, 64
2, 10813, Control_c, 0, 64, 127
2, 10821, Control_c, 0, 64, 127
2, 10836, Control_c, 0, 64, 0
2, 10844, Control_c, 0, 64, 0
2, 10844, Note_on_c, 0, 43, 81
2, 10850, Note_on_c, 0, 71, 77
2, 10850, Note_on_c, 0, 67, 76
2, 10852, Note_on_c, 0, 79, 86
2, 10852, Note_on_c, 0, 31, 86
2, 10869, Control_c, 0, 64, 127
2, 10877, Control_c, 0, 64, 127
2, 10972, Note_off_c, 0, 43, 64
2, 10978, Note_off_c, 0, 67, 64
2, 10978, Note_off_c, 0, 71, 64
2, 10980, Note_off_c, 0, 31, 64
2, 10980, Note_off_c, 0, 79, 64
2, 10991, Control_c, 0, 64, 0
2, 10999, Control_c, 0, 64, 0
2, 11000, Note_on_c, 0, 66, 85
2, 11002, Note_on_c, 0, 60, 78
2, 11008, Note_on_c, 0, 62, 81
2, 11010, Note_on_c, 0, 50, 81
2, 11011, Note_on_c, 0, 74, 81
2, 11011, Note_on_c, 0, 57, 71
2, 11037, Note_off_c, 0, 62, 64
2, 11040, Control_c, 0, 64, 127
2, 11046, Note_off_c, 0, 66, 64
2, 11048, Note_off_c, 0, 57, 64
2, 11048, Note_off_c, 0, 60, 64
2, 11048, Control_c, 0, 64, 127
2, 11052, Note_off_c, 0, 50, 64
2, 11056, Note_off_c, 0, 74, 64
2, 11100, Note_on_c, 0, 66, 81
2, 11100, Note_on_c, 0, 60, 57
2, 11100, Note_on_c, 0, 57, 65
2, 11100, Note_on_c, 0, 50, 57
2, 11100, Note_on_c, 0, 74, 71
2, 11104, Note_on_c, 0, 62, 56
2, 11141, Note_off_c, 0, 62, 64
2, 11146, Control_c, 0, 64, 0
2, 11148, Note_off_c, 0, 74, 64
2, 11154, Control_c, 0, 64, 0
2, 11164, Note_off_c, 0, 66, 64
2, 11164, Note_on_c, 0, 55, 78
2, 11164, Note_on_c, 0, 62, 73
2, 11164, Note_on_c, 0, 71, 78
2, 11166, Note_off_c, 0, 60, 64
2, 11168, Note_on_c, 0, 74, 77
2, 11170, Note_off_c, 0, 50, 64
2, 11170, Note_on_c, 0, 67, 81
2, 11171, Note_on_c, 0, 59, 87
2, 11174, Note_off_c, 0, 57, 64
2, 11192, Control_c, 0, 64, 127
2, 11200, Control_c, 0, 64, 127
2, 11259, Note_off_c, 0, 67, 64
2, 11261, Note_off_c, 0, 55, 64
2, 11269, Note_off_c, 0, 62, 64
2, 11270, Note_off_c, 0, 59, 64
2, 11274, Note_off_c, 0, 74, 64
2, 11280, Note_off_c, 0, 71, 64
2, 11333, Control_c, 0, 64, 127
2, 11341, Control_c, 0, 64, 127
2, 11362, Note_on_c, 0, 76, 71
2, 11380, Note_on_c, 0, 69, 56
2, 11380, Note_on_c, 0, 54, 53
2, 11388, Note_on_c, 0, 74, 78
2, 11388, Control_c, 0, 64, 0
2, 11395, Note_on_c, 0, 62, 53
2, 11395, Note_on_c, 0, 60, 40
2, 11396, Control_c, 0, 64, 0
2, 11412, Note_off_c, 0, 76, 64
2, 11426, Control_c, 0, 64, 127
2, 11434, Control_c, 0, 64, 127
2, 11446, Note_off_c, 0, 60, 64
2, 11449, Note_off_c, 0, 54, 64
2, 11453, Note_off_c, 0, 62, 64
2, 11468, Note_on_c, 0, 73, 97
2, 11476, Note_off_c, 0, 74, 64
2, 11541, Note_on_c, 0, 62, 62
2, 11541, Control_c, 0, 64, 0
2, 11549, Note_on_c, 0, 76, 88
2, 11549, Control_c, 0, 64, 0
2, 11549, Note_on_c, 0, 59, 53
2, 11549, Note_on_c, 0, 53, 50
2, 11557, Note_on_c, 0, 68, 75
2, 11558, Note_off_c, 0, 73, 64
2, 11565, Control_c, 0, 64, 127
2, 11573, Control_c, 0, 64, 127
2, 11578, Note_off_c, 0, 69, 64
2, 11601, Note_off_c, 0, 59, 64
2, 11605, Note_off_c, 0, 53, 64
2, 11613, Note_on_c, 0, 74, 78
2, 11619, Note_off_c, 0, 62, 64
2, 11627, Note_off_c, 0, 76, 64
2, 11690, Control_c, 0, 64, 0
2, 11698, Control_c, 0, 64, 0
2, 11707, Note_on_c, 0, 67, 93
2, 11708, Note_on_c, 0, 59, 32
2, 11715, Note_on_c, 0, 62, 32
2, 11715, Note_on_c, 0, 53, 31
2, 11725, Note_off_c, 0, 74, 64
2, 11725, Note_off_c, 0, 68, 64
2, 11736, Control_c, 0, 64, 127
2, 11744, Control_c, 0, 64, 127
2, 11781, Note_off_c, 0, 53, 64
2, 11786, Note_off_c, 0, 59, 64
2, 11793, Note_off_c, 0, 62, 64
2, 11852, Note_on_c, 0, 69, 90
2, 11856, Note_on_c, 0, 53, 46
2, 11856, Control_c, 0, 64, 0
2, 11860, Note_on_c, 0, 62, 43
2, 11860, Note_on_c, 0, 59, 43
2, 11860, Note_on_c, 0, 55, 47
2, 11864, Control_c, 0, 64, 0
2, 11869, Note_off_c, 0, 67, 64
2, 11884, Note_off_c, 0, 59, 64
2, 11886, Control_c, 0, 64, 127
2, 11892, Note_off_c, 0, 55, 64
2, 11894, Control_c, 0, 64, 127
2, 11899, Note_off_c, 0, 53, 64
2, 11903, Note_off_c, 0, 62, 64
2, 11917, Note_on_c, 0, 71, 76
2, 11947, Note_off_c, 0, 69, 64
2, 11993, Note_off_c, 0, 71, 64
2, 11996, Note_on_c, 0, 55, 53
2, 11997, Note_on_c, 0, 52, 53
2, 11998, Note_on_c, 0, 60, 40
2, 12003, Note_on_c, 0, 72, 87
2, 12016, Control_c, 0, 64, 0
2, 12024, Control_c, 0, 64, 0
2, 12047, Control_c, 0, 64, 127
2, 12055, Control_c, 0, 64, 127
2, 12082, Note_on_c, 0, 74, 88
2, 12088, Note_off_c, 0, 72, 64
2, 12117, Note_off_c, 0, 55, 64
2, 12118, Note_off_c, 0, 52, 64
2, 12119, Note_off_c, 0, 60, 64
2, 12148, Control_c, 0, 64, 0
2, 12156, Control_c, 0, 64, 0
2, 12156, Note_on_c, 0, 48, 56
2, 12157, Note_on_c, 0, 76, 97
2, 12160, Note_on_c, 0, 55, 56
2, 12164, Note_on_c, 0, 64, 43
2, 12175, Note_off_c, 0, 74, 64
2, 12180, Control_c, 0, 64, 127
2, 12188, Control_c, 0, 64, 127
2, 12219, Note_off_c, 0, 64, 64
2, 12232, Note_on_c, 0, 77, 96
2, 12245, Note_off_c, 0, 76, 64
2, 12246, Note_off_c, 0, 55, 64
2, 12262, Note_off_c, 0, 48, 64
2, 12305, Control_c, 0, 64, 127
2, 12313, Control_c, 0, 64, 127
2, 12314, Note_on_c, 0, 79, 103
2, 12324, Note_off_c, 0, 77, 64
2, 12381, Note_on_c, 0, 80, 93
2, 12408, Note_off_c, 0, 79, 64
2, 12445, Control_c, 0, 64, 0
2, 12453, Control_c, 0, 64, 0
2, 12458, Note_on_c, 0, 43, 95
2, 12464, Note_on_c, 0, 81, 96
2, 12479, Note_off_c, 0, 80, 64
2, 12482, Control_c, 0, 64, 127
2, 12490, Control_c, 0, 64, 127
2, 12498, Note_off_c, 0, 81, 64
2, 12533, Note_on_c, 0, 81, 91
2, 12573, Note_off_c, 0, 81, 64
2, 12602, Control_c, 0, 64, 0
2, 12609, Note_on_c, 0, 83, 101
2, 12610, Control_c, 0, 64, 0
2, 12616, Note_on_c, 0, 55, 47
2, 12618, Note_on_c, 0, 59, 50
2, 12625, Note_on_c, 0, 65, 32
2, 12626, Note_on_c, 0, 81, 96
2, 12639, Control_c, 0, 64, 127
2, 12647, Control_c, 0, 64, 127
2, 12661, Note_off_c, 0, 83, 64
2, 12670, Note_off_c, 0, 55, 64
2, 12672, Note_off_c, 0, 59, 64
2, 12700, Note_off_c, 0, 65, 64
2, 12736, Note_off_c, 0, 43, 64
2, 12756, Note_on_c, 0, 79, 95
2, 12769, Note_on_c, 0, 59, 40
2, 12770, Note_on_c, 0, 55, 46
2, 12774, Note_on_c, 0, 65, 31
2, 12783, Note_off_c, 0, 81, 64
2, 12800, Note_off_c, 0, 59, 64
2, 12815, Note_off_c, 0, 55, 64
2, 12817, Note_off_c, 0, 65, 64
2, 12835, Note_on_c, 0, 74, 70
2, 12860, Note_off_c, 0, 79, 64
2, 12908, Note_on_c, 0, 77, 101
2, 12918, Control_c, 0, 64, 0
2, 12919, Note_off_c, 0, 74, 64
2, 12921, Note_on_c, 0, 48, 57
2, 12926, Control_c, 0, 64, 0
2, 12944, Note_off_c, 0, 77, 64
2, 12953, Control_c, 0, 64, 127
2, 12961, Control_c, 0, 64, 127
2, 12987, Note_on_c, 0, 77, 93
2, 13027, Note_off_c, 0, 77, 64
2, 13048, Note_on_c, 0, 79, 93
2, 13064, Note_on_c, 0, 57, 51
2, 13064, Note_on_c, 0, 77, 90
2, 13064, Note_on_c, 0, 65, 35
2, 13067, Control_c, 0, 64, 0
2, 13075, Control_c, 0, 64, 0
2, 13098, Note_off_c, 0, 79, 64
2, 13104, Control_c, 0, 64, 127
2, 13112, Control_c, 0, 64, 127
2, 13219, Note_off_c, 0, 77, 64
2, 13220, Note_on_c, 0, 55, 47
2, 13221, Note_on_c, 0, 76, 85
2, 13223, Note_off_c, 0, 48, 64
2, 13224, Note_on_c, 0, 64, 26
2, 13229, Note_off_c, 0, 65, 64
2, 13229, Note_off_c, 0, 57, 64
2, 13256, Note_off_c, 0, 64, 64
2, 13258, Note_off_c, 0, 76, 64
2, 13267, Note_off_c, 0, 55, 64
2, 13313, Control_c, 0, 64, 127
2, 13321, Control_c, 0, 64, 127
2, 13352, Note_on_c, 0, 69, 52
2, 13366, Note_on_c, 0, 74, 88
2, 13368, Note_on_c, 0, 62, 25
2, 13368, Note_on_c, 0, 60, 43
2, 13368, Note_on_c, 0, 57, 53
2, 13368, Note_on_c, 0, 54, 46
2, 13385, Control_c, 0, 64, 0
2, 13387, Note_off_c, 0, 69, 64
2, 13393, Control_c, 0, 64, 0
2, 13414, Control_c, 0, 64, 127
2, 13422, Control_c, 0, 64, 127
2, 13426, Note_off_c, 0, 74, 64
2, 13437, Note_off_c, 0, 54, 64
2, 13437, Note_off_c, 0, 57, 64
2, 13437, Note_off_c, 0, 60, 64
2, 13437, Note_off_c, 0, 62, 64
2, 13450, Note_on_c, 0, 74, 93
2, 13503, Note_off_c, 0, 74, 64
2, 13504, Note_on_c, 0, 76, 78
2, 13516, Control_c, 0, 64, 0
2, 13522, Note_on_c, 0, 62, 62
2, 13524, Control_c, 0, 64, 0
2, 13528, Note_on_c, 0, 74, 91
2, 13528, Note_on_c, 0, 55, 52
2, 13533, Note_on_c, 0, 59, 53
2, 13538, Note_on_c, 0, 53, 50
2, 13553, Note_off_c, 0, 76, 64
2, 13562, Control_c, 0, 64, 127
2, 13570, Control_c, 0, 64, 127
2, 13580, Note_off_c, 0, 53, 64
2, 13581, Note_off_c, 0, 55, 64
2, 13584, Note_off_c, 0, 59, 64
2, 13585, Note_off_c, 0, 62, 64
2, 13676, Note_on_c, 0, 67, 96
2, 13679, Note_on_c, 0, 53, 47
2, 13687, Note_on_c, 0, 62, 46
2, 13687, Note_on_c, 0, 59, 47
2, 13687, Note_on_c, 0, 55, 47
2, 13689, Note_off_c, 0, 74, 64
2, 13689, Control_c, 0, 64, 0
2, 13697, Control_c, 0, 64, 0
2, 13707, Control_c, 0, 64, 127
2, 13715, Note_off_c, 0, 59, 64
2, 13715, Control_c, 0, 64, 127
2, 13720, Note_off_c, 0, 62, 64
2, 13724, Note_off_c, 0, 55, 64
2, 13724, Note_off_c, 0, 53, 64
2, 13745, Note_on_c, 0, 71, 72
2, 13756, Note_off_c, 0, 67, 64
2, 13823, Note_on_c, 0, 72, 83
2, 13827, Note_on_c, 0, 60, 47
2, 13828, Note_on_c, 0, 55, 53
2, 13828, Note_on_c, 0, 52, 51
2, 13830, Note_off_c, 0, 71, 64
2, 13836, Control_c, 0, 64, 0
2, 13844, Control_c, 0, 64, 0
2, 13871, Control_c, 0, 64, 127
2, 13879, Control_c, 0, 64, 127
2, 13895, Note_off_c, 0, 60, 64
2, 13896, Note_off_c, 0, 55, 64
2, 13902, Note_on_c, 0, 74, 66
2, 13921, Note_off_c, 0, 72, 64
2, 13941, Note_off_c, 0, 52, 64
2, 13965, Control_c, 0, 64, 0
2, 13973, Control_c, 0, 64, 0
2, 13977, Note_on_c, 0, 76, 75
2, 13980, Note_on_c, 0, 48, 62
2, 13990, Note_on_c, 0, 55, 40
2, 13992, Note_on_c, 0, 64, 53
2, 14001, Note_off_c, 0, 74, 64
2, 14011, Control_c, 0, 64, 127
2, 14019, Control_c, 0, 64, 127
2, 14056, Note_on_c, 0, 77, 88
2, 14058, Note_off_c, 0, 55, 64
2, 14060, Note_off_c, 0, 64, 64
2, 14068, Note_off_c, 0, 48, 64
2, 14069, Note_off_c, 0, 76, 64
2, 14137, Note_on_c, 0, 79, 88
2, 14149, Note_off_c, 0, 77, 64
2, 14173, Control_c, 0, 64, 127
2, 14181, Control_c, 0, 64, 127
2, 14205, Note_on_c, 0, 84, 88
2, 14212, Note_off_c, 0, 79, 64
2, 14276, Note_on_c, 0, 83, 91
2, 14284, Control_c, 0, 64, 0
2, 14289, Note_on_c, 0, 43, 70
2, 14292, Note_off_c, 0, 84, 64
2, 14292, Control_c, 0, 64, 0
2, 14309, Control_c, 0, 64, 127
2, 14317, Control_c, 0, 64, 127
2, 14338, Note_off_c, 0, 83, 64
2, 14364, Note_on_c, 0, 81, 75
2, 14396, Note_on_c, 0, 83, 57
2, 14416, Note_off_c, 0, 81, 64
2, 14420, Note_on_c, 0, 81, 81
2, 14432, Note_on_c, 0, 65, 46
2, 14438, Note_off_c, 0, 83, 64
2, 14440, Note_on_c, 0, 59, 35
2, 14442, Note_on_c, 0, 55, 35
2, 14448, Note_on_c, 0, 77, 100
2, 14452, Control_c, 0, 64, 0
2, 14460, Control_c, 0, 64, 0
2, 14469, Control_c, 0, 64, 127
2, 14471, Note_off_c, 0, 81, 64
2, 14475, Note_off_c, 0, 59, 64
2, 14476, Note_off_c, 0, 55, 64
2, 14476, Note_off_c, 0, 65, 64
2, 14477, Control_c, 0, 64, 127
2, 14510, Note_on_c, 0, 74, 78
2, 14515, Note_off_c, 0, 77, 64
2, 14560, Note_off_c, 0, 43, 64
2, 14577, Note_on_c, 0, 71, 93
2, 14580, Note_on_c, 0, 55, 53
2, 14580, Note_on_c, 0, 65, 40
2, 14580, Note_on_c, 0, 59, 50
2, 14593, Note_off_c, 0, 74, 64
2, 14615, Note_off_c, 0, 59, 64
2, 14617, Note_off_c, 0, 65, 64
2, 14636, Note_off_c, 0, 55, 64
2, 14672, Note_on_c, 0, 67, 76
2, 14692, Note_off_c, 0, 71, 64
2, 14736, Control_c, 0, 64, 0
2, 14743, Note_on_c, 0, 48, 71
2, 14744, Control_c, 0, 64, 0
2, 14744, Note_on_c, 0, 72, 78
2, 14744, Note_on_c, 0, 64, 62
2, 14768, Note_off_c, 0, 67, 64
2, 14787, Control_c, 0, 64, 127
2, 14792, Note_on_c, 0, 74, 57
2, 14795, Control_c, 0, 64, 127
2, 14821, Note_off_c, 0, 72, 64
2, 14821, Note_on_c, 0, 76, 78
2, 14822, Note_off_c, 0, 64, 64
2, 14844, Note_off_c, 0, 74, 64
2, 14848, Note_on_c, 0, 67, 88
2, 14853, Note_off_c, 0, 48, 64
2, 14880, Note_on_c, 0, 55, 22
2, 14884, Note_off_c, 0, 76, 64
2, 14884, Note_on_c, 0, 48, 32
2, 14884, Note_on_c, 0, 60, 25
2, 14884, Note_on_c, 0, 72, 85
2, 14889, Note_on_c, 0, 64, 71
2, 14900, Control_c, 0, 64, 0
2, 14908, Control_c, 0, 64, 0
2, 14922, Note_off_c, 0, 67, 64
2, 14934, Control_c, 0, 64, 127
2, 14942, Control_c, 0, 64, 127
2, 15008, Note_off_c, 0, 55, 64
2, 15012, Note_off_c, 0, 72, 64
2, 15012, Note_off_c, 0, 60, 64
2, 15012, Note_off_c, 0, 48, 64
2, 15017, Note_off_c, 0, 64, 64
2, 15044, Note_on_c, 0, 71, 76
2, 15119, Note_on_c, 0, 72, 82
2, 15140, Note_off_c, 0, 71, 64
2, 15192, Control_c, 0, 64, 0
2, 15200, Control_c, 0, 64, 0
2, 15208, Note_on_c, 0, 57, 72
2, 15208, Note_on_c, 0, 62, 70
2, 15212, Note_on_c, 0, 50, 79
2, 15212, Note_on_c, 0, 60, 77
2, 15212, Note_on_c, 0, 66, 90
2, 15212, Note_on_c, 0, 74, 90
2, 15237, Note_off_c, 0, 72, 64
2, 15237, Control_c, 0, 64, 127
2, 15245, Control_c, 0, 64, 127
2, 15257, Note_off_c, 0, 66, 64
2, 15264, Note_off_c, 0, 74, 64
2, 15264, Note_off_c, 0, 60, 64
2, 15268, Note_off_c, 0, 50, 64
2, 15268, Note_off_c, 0, 57, 64
2, 15269, Note_off_c, 0, 62, 64
2, 15304, Note_on_c, 0, 62, 70
2, 15304, Note_on_c, 0, 66, 82
2, 15304, Note_on_c, 0, 50, 52
2, 15304, Note_on_c, 0, 74, 81
2, 15304, Note_on_c, 0, 57, 79
2, 15308, Note_on_c, 0, 60, 79
2, 15340, Control_c, 0, 64, 0
2, 15348, Control_c, 0, 64, 0
2, 15351, Note_off_c, 0, 57, 64
2, 15353, Note_off_c, 0, 74, 64
2, 15354, Note_on_c, 0, 55, 90
2, 15354, Note_on_c, 0, 71, 100
2, 15356, Note_on_c, 0, 59, 97
2, 15356, Note_on_c, 0, 67, 95
2, 15358, Note_off_c, 0, 50, 64
2, 15360, Note_off_c, 0, 62, 64
2, 15363, Note_off_c, 0, 66, 64
2, 15376, Note_off_c, 0, 60, 64
2, 15400, Control_c, 0, 64, 127
2, 15408, Control_c, 0, 64, 127
2, 15426, Note_off_c, 0, 71, 64
2, 15426, Note_off_c, 0, 55, 64
2, 15428, Note_off_c, 0, 67, 64
2, 15428, Note_off_c, 0, 59, 64
2, 15441, Control_c, 0, 64, 127
2, 15449, Control_c, 0, 64, 127
2, 15500, Control_c, 0, 64, 0
2, 15508, Control_c, 0, 64, 0
2, 15512, Note_on_c, 0, 74, 83
2, 15513, Note_on_c, 0, 67, 83
2, 15515, Note_on_c, 0, 43, 77
2, 15515, Note_on_c, 0, 71, 93
2, 15516, Note_on_c, 0, 31, 75
2, 15516, Note_on_c, 0, 79, 89
2, 15554, Control_c, 0, 64, 127
2, 15562, Control_c, 0, 64, 127
2, 15640, Note_off_c, 0, 74, 64
2, 15641, Note_off_c, 0, 67, 64
2, 15643, Note_off_c, 0, 71, 64
2, 15643, Note_off_c, 0, 43, 64
2, 15644, Note_off_c, 0, 79, 64
2, 15644, Note_off_c, 0, 31, 64
2, 15649, Control_c, 0, 64, 0
2, 15657, Control_c, 0, 64, 0
2, 15668, Note_on_c, 0, 69, 72
2, 15672, Note_on_c, 0, 66, 72
2, 15672, Note_on_c, 0, 62, 68
2, 15675, Note_on_c, 0, 74, 68
2, 15676, Note_on_c, 0, 60, 68
2, 15677, Note_on_c, 0, 57, 65
2, 15677, Note_on_c, 0, 50, 69
2, 15698, Control_c, 0, 64, 127
2, 15703, Note_off_c, 0, 62, 64
2, 15706, Control_c, 0, 64, 127
2, 15707, Note_off_c, 0, 60, 64
2, 15709, Note_off_c, 0, 69, 64
2, 15711, Note_off_c, 0, 57, 64
2, 15712, Note_off_c, 0, 50, 64
2, 15713, Note_off_c, 0, 66, 64
2, 15718, Note_off_c, 0, 74, 64
2, 15768, Note_on_c, 0, 50, 58
2, 15772, Note_on_c, 0, 57, 57
2, 15772, Note_on_c, 0, 60, 48
2, 15772, Note_on_c, 0, 62, 69
2, 15772, Note_on_c, 0, 66, 68
2, 15772, Note_on_c, 0, 69, 65
2, 15772, Note_on_c, 0, 74, 68
2, 15812, Control_c, 0, 64, 0
2, 15820, Control_c, 0, 64, 0
2, 15826, Note_on_c, 0, 67, 92
2, 15828, Note_on_c, 0, 59, 85
2, 15829, Note_off_c, 0, 50, 64
2, 15831, Note_on_c, 0, 55, 73
2, 15833, Note_off_c, 0, 74, 64
2, 15833, Note_off_c, 0, 69, 64
2, 15833, Note_off_c, 0, 66, 64
2, 15833, Note_off_c, 0, 62, 64
2, 15833, Note_off_c, 0, 60, 64
2, 15833, Note_off_c, 0, 57, 64
2, 15856, Control_c, 0, 64, 127
2, 15864, Control_c, 0, 64, 127
2, 15898, Note_off_c, 0, 67, 64
2, 15900, Note_off_c, 0, 59, 64
2, 15903, Note_off_c, 0, 55, 64
2, 15922, Control_c, 0, 64, 127
2, 15930, Control_c, 0, 64, 127
2, 15933, Control_c, 0, 64, 127
2, 15941, Control_c, 0, 64, 127
2, 15983, Control_c, 0, 64, 0
2, 15991, Control_c, 0, 64, 0
2, 15992, Note_on_c, 0, 62, 91
2, 15992, Note_on_c, 0, 43, 81
2, 15992, Note_on_c, 0, 31, 81
2, 15996, Note_on_c, 0, 71, 95
2, 15996, Note_on_c, 0, 55, 78
2, 15997, Note_on_c, 0, 67, 91
2, 16030, Control_c, 0, 64, 127
2, 16038, Control_c, 0, 64, 127
2, 16045, Note_off_c, 0, 67, 64
2, 16058, Note_on_c, 0, 72, 81
2, 16068, Note_off_c, 0, 55, 64
2, 16076, Note_off_c, 0, 62, 64
2, 16083, Note_off_c, 0, 31, 64
2, 16083, Note_off_c, 0, 43, 64
2, 16094, Note_off_c, 0, 71, 64
2, 16133, Control_c, 0, 64, 0
2, 16141, Control_c, 0, 64, 0
2, 16143, Note_on_c, 0, 60, 73
2, 16143, Note_on_c, 0, 74, 81
2, 16144, Note_on_c, 0, 50, 81
2, 16144, Note_on_c, 0, 62, 81
2, 16144, Note_on_c, 0, 66, 87
2, 16148, Note_on_c, 0, 57, 63
2, 16154, Note_off_c, 0, 72, 64
2, 16176, Control_c, 0, 64, 127
2, 16184, Control_c, 0, 64, 127
2, 16195, Note_off_c, 0, 74, 64
2, 16195, Note_off_c, 0, 60, 64
2, 16196, Note_off_c, 0, 66, 64
2, 16196, Note_off_c, 0, 62, 64
2, 16196, Note_off_c, 0, 50, 64
2, 16200, Note_off_c, 0, 57, 64
2, 16244, Note_on_c, 0, 62, 71
2, 16244, Note_on_c, 0, 66, 85
2, 16246, Note_on_c, 0, 60, 69
2, 16248, Note_on_c, 0, 74, 85
2, 16249, Note_on_c, 0, 57, 71
2, 16249, Note_on_c, 0, 50, 72
2, 16282, Control_c, 0, 64, 0
2, 16290, Control_c, 0, 64, 0
2, 16308, Note_on_c, 0, 59, 87
2, 16308, Note_on_c, 0, 55, 85
2, 16312, Note_off_c, 0, 66, 64
2, 16312, Note_off_c, 0, 62, 64
2, 16312, Note_on_c, 0, 71, 88
2, 16314, Note_off_c, 0, 60, 64
2, 16315, Note_on_c, 0, 67, 85
2, 16316, Note_off_c, 0, 74, 64
2, 16317, Note_off_c, 0, 50, 64
2, 16317, Note_off_c, 0, 57, 64
2, 16333, Control_c, 0, 64, 127
2, 16341, Control_c, 0, 64, 127
2, 16378, Control_c, 0, 64, 127
2, 16380, Note_off_c, 0, 55, 64
2, 16380, Note_off_c, 0, 59, 64
2, 16384, Note_off_c, 0, 71, 64
2, 16386, Control_c, 0, 64, 127
2, 16387, Note_off_c, 0, 67, 64
2, 16451, Control_c, 0, 64, 0
2, 16459, Control_c, 0, 64, 0
2, 16460, Note_on_c, 0, 71, 104
2, 16462, Note_on_c, 0, 67, 94
2, 16462, Note_on_c, 0, 31, 99
2, 16464, Note_on_c, 0, 79, 105
2, 16467, Note_on_c, 0, 43, 83
2, 16503, Control_c, 0, 64, 127
2, 16511, Control_c, 0, 64, 127
2, 16588, Note_off_c, 0, 71, 64
2, 16590, Note_off_c, 0, 31, 64
2, 16590, Note_off_c, 0, 67, 64
2, 16592, Note_off_c, 0, 79, 64
2, 16595, Note_off_c, 0, 43, 64
2, 16618, Control_c, 0, 64, 0
2, 16626, Control_c, 0, 64, 0
2, 16628, Note_on_c, 0, 74, 85
2, 16628, Note_on_c, 0, 66, 85
2, 16628, Note_on_c, 0, 50, 81
2, 16629, Note_on_c, 0, 57, 78
2, 16632, Note_on_c, 0, 62, 73
2, 16632, Note_on_c, 0, 60, 81
2, 16647, Control_c, 0, 64, 127
2, 16655, Control_c, 0, 64, 127
2, 16679, Note_off_c, 0, 50, 64
2, 16679, Note_off_c, 0, 66, 64
2, 16679, Note_off_c, 0, 74, 64
2, 16680, Note_off_c, 0, 57, 64
2, 16683, Note_off_c, 0, 60, 64
2, 16683, Note_off_c, 0, 62, 64
2, 16724, Note_on_c, 0, 57, 64
2, 16724, Note_on_c, 0, 50, 65
2, 16726, Note_on_c, 0, 74, 81
2, 16728, Note_on_c, 0, 62, 72
2, 16731, Note_on_c, 0, 66, 81
2, 16732, Note_on_c, 0, 60, 50
2, 16768, Control_c, 0, 64, 0
2, 16774, Note_off_c, 0, 62, 64
2, 16776, Control_c, 0, 64, 0
2, 16778, Note_off_c, 0, 74, 64
2, 16784, Note_on_c, 0, 74, 81
2, 16784, Note_on_c, 0, 59, 88
2, 16786, Note_off_c, 0, 50, 64
2, 16786, Note_off_c, 0, 57, 64
2, 16786, Note_on_c, 0, 71, 92
2, 16786, Note_on_c, 0, 67, 87
2, 16786, Note_on_c, 0, 55, 77
2, 16788, Note_on_c, 0, 62, 78
2, 16793, Note_off_c, 0, 66, 64
2, 16794, Note_off_c, 0, 60, 64
2, 16815, Control_c, 0, 64, 127
2, 16823, Control_c, 0, 64, 127
2, 16894, Control_c, 0, 64, 127
2, 16902, Control_c, 0, 64, 127
2, 16911, Note_off_c, 0, 59, 64
2, 16911, Note_off_c, 0, 74, 64
2, 16913, Note_off_c, 0, 55, 64
2, 16913, Note_off_c, 0, 67, 64
2, 16913, Note_off_c, 0, 71, 64
2, 16915, Note_off_c, 0, 62, 64
2, 16959, Note_on_c, 0, 76, 76
2, 16982, Note_on_c, 0, 69, 76
2, 16984, Control_c, 0, 64, 0
2, 16990, Note_on_c, 0, 74, 72
2, 16990, Note_on_c, 0, 62, 32
2, 16990, Note_on_c, 0, 60, 35
2, 16990, Note_on_c, 0, 54, 47
2, 16992, Control_c, 0, 64, 0
2, 17007, Note_off_c, 0, 76, 64
2, 17023, Control_c, 0, 64, 127
2, 17031, Control_c, 0, 64, 127
2, 17057, Note_off_c, 0, 54, 64
2, 17063, Note_off_c, 0, 60, 64
2, 17071, Note_on_c, 0, 73, 82
2, 17074, Note_off_c, 0, 62, 64
2, 17083, Note_off_c, 0, 74, 64
2, 17138, Note_on_c, 0, 62, 53
2, 17138, Note_on_c, 0, 59, 43
2, 17139, Control_c, 0, 64, 0
2, 17142, Note_on_c, 0, 55, 43
2, 17145, Note_on_c, 0, 53, 47
2, 17146, Note_on_c, 0, 68, 66
2, 17147, Control_c, 0, 64, 0
2, 17152, Note_on_c, 0, 76, 101
2, 17162, Note_off_c, 0, 69, 64
2, 17168, Note_off_c, 0, 73, 64
2, 17170, Note_off_c, 0, 59, 64
2, 17172, Control_c, 0, 64, 127
2, 17180, Control_c, 0, 64, 127
2, 17185, Note_off_c, 0, 53, 64
2, 17199, Note_off_c, 0, 55, 64
2, 17203, Note_off_c, 0, 62, 64
2, 17216, Note_on_c, 0, 74, 75
2, 17232, Note_off_c, 0, 76, 64
2, 17297, Control_c, 0, 64, 0
2, 17303, Note_on_c, 0, 55, 43
2, 17304, Note_on_c, 0, 67, 92
2, 17304, Note_on_c, 0, 62, 51
2, 17304, Note_on_c, 0, 59, 46
2, 17305, Control_c, 0, 64, 0
2, 17310, Note_on_c, 0, 53, 46
2, 17320, Note_off_c, 0, 68, 64
2, 17326, Note_off_c, 0, 74, 64
2, 17338, Control_c, 0, 64, 127
2, 17346, Control_c, 0, 64, 127
2, 17352, Note_off_c, 0, 53, 64
2, 17359, Note_off_c, 0, 59, 64
2, 17359, Note_off_c, 0, 55, 64
2, 17380, Note_off_c, 0, 62, 64
2, 17460, Note_on_c, 0, 69, 91
2, 17460, Control_c, 0, 64, 0
2, 17466, Note_on_c, 0, 62, 50
2, 17468, Control_c, 0, 64, 0
2, 17470, Note_on_c, 0, 53, 47
2, 17472, Note_on_c, 0, 59, 40
2, 17473, Note_on_c, 0, 55, 41
2, 17486, Control_c, 0, 64, 127
2, 17494, Control_c, 0, 64, 127
2, 17500, Note_off_c, 0, 67, 64
2, 17536, Note_off_c, 0, 55, 64
2, 17539, Note_on_c, 0, 71, 87
2, 17544, Note_off_c, 0, 59, 64
2, 17545, Note_off_c, 0, 53, 64
2, 17549, Note_off_c, 0, 62, 64
2, 17555, Note_off_c, 0, 69, 64
2, 17614, Note_on_c, 0, 60, 51
2, 17614, Note_on_c, 0, 52, 51
2, 17618, Note_on_c, 0, 72, 95
2, 17626, Control_c, 0, 64, 0
2, 17634, Control_c, 0, 64, 0
2, 17649, Note_off_c, 0, 71, 64
2, 17659, Control_c, 0, 64, 127
2, 17667, Control_c, 0, 64, 127
2, 17685, Note_off_c, 0, 60, 64
2, 17702, Note_on_c, 0, 74, 81
2, 17708, Note_off_c, 0, 52, 64
2, 17712, Note_off_c, 0, 72, 64
2, 17765, Note_on_c, 0, 76, 102
2, 17772, Note_on_c, 0, 64, 41
2, 17774, Note_on_c, 0, 48, 53
2, 17777, Control_c, 0, 64, 0
2, 17782, Note_on_c, 0, 55, 47
2, 17785, Control_c, 0, 64, 0
2, 17795, Note_off_c, 0, 74, 64
2, 17824, Control_c, 0, 64, 127
2, 17832, Control_c, 0, 64, 127
2, 17849, Note_off_c, 0, 64, 64
2, 17849, Note_on_c, 0, 77, 89
2, 17857, Note_off_c, 0, 76, 64
2, 17872, Note_off_c, 0, 55, 64
2, 17888, Note_off_c, 0, 48, 64
2, 17931, Note_on_c, 0, 79, 91
2, 17950, Note_off_c, 0, 77, 64
2, 18002, Note_on_c, 0, 80, 88
2, 18015, Note_off_c, 0, 79, 64
2, 18066, Control_c, 0, 64, 0
2, 18070, Note_on_c, 0, 43, 95
2, 18074, Control_c, 0, 64, 0
2, 18077, Note_on_c, 0, 81, 96
2, 18092, Control_c, 0, 64, 127
2, 18100, Control_c, 0, 64, 127
2, 18102, Note_off_c, 0, 80, 64
2, 18108, Note_off_c, 0, 81, 64
2, 18142, Note_on_c, 0, 81, 93
2, 18186, Note_off_c, 0, 81, 64
2, 18216, Note_on_c, 0, 83, 90
2, 18227, Control_c, 0, 64, 0
2, 18234, Note_on_c, 0, 65, 71
2, 18235, Control_c, 0, 64, 0
2, 18238, Note_on_c, 0, 55, 71
2, 18240, Note_on_c, 0, 81, 104
2, 18242, Note_on_c, 0, 59, 60
2, 18258, Control_c, 0, 64, 127
2, 18266, Control_c, 0, 64, 127
2, 18274, Note_off_c, 0, 83, 64
2, 18279, Note_off_c, 0, 59, 64
2, 18290, Note_off_c, 0, 55, 64
2, 18294, Note_off_c, 0, 65, 64
2, 18347, Note_off_c, 0, 43, 64
2, 18363, Note_on_c, 0, 79, 96
2, 18370, Note_on_c, 0, 55, 53
2, 18377, Note_on_c, 0, 65, 43
2, 18377, Note_on_c, 0, 59, 40
2, 18382, Note_off_c, 0, 81, 64
2, 18409, Note_off_c, 0, 59, 64
2, 18417, Note_off_c, 0, 55, 64
2, 18421, Note_off_c, 0, 65, 64
2, 18446, Note_on_c, 0, 74, 75
2, 18461, Note_off_c, 0, 79, 64
2, 18523, Note_on_c, 0, 77, 106
2, 18526, Note_on_c, 0, 48, 70
2, 18533, Control_c, 0, 64, 0
2, 18534, Note_off_c, 0, 74, 64
2, 18541, Control_c, 0, 64, 0
2, 18554, Control_c, 0, 64, 127
2, 18560, Note_off_c, 0, 77, 64
2, 18562, Control_c, 0, 64, 127
2, 18595, Note_on_c, 0, 77, 93
2, 18635, Note_off_c, 0, 77, 64
2, 18654, Note_on_c, 0, 79, 91
2, 18668, Note_on_c, 0, 57, 71
2, 18672, Note_on_c, 0, 65, 63
2, 18682, Note_on_c, 0, 77, 103
2, 18684, Control_c, 0, 64, 0
2, 18692, Control_c, 0, 64, 0
2, 18710, Note_off_c, 0, 79, 64
2, 18731, Control_c, 0, 64, 127
2, 18739, Control_c, 0, 64, 127
2, 18816, Control_c, 0, 64, 0
2, 18824, Control_c, 0, 64, 0
2, 18826, Note_on_c, 0, 64, 62
2, 18826, Note_on_c, 0, 55, 47
2, 18831, Note_off_c, 0, 57, 64
2, 18831, Note_on_c, 0, 76, 82
2, 18832, Note_off_c, 0, 48, 64
2, 18835, Note_off_c, 0, 65, 64
2, 18845, Note_off_c, 0, 77, 64
2, 18857, Control_c, 0, 64, 127
2, 18865, Control_c, 0, 64, 127
2, 18872, Note_off_c, 0, 76, 64
2, 18872, Note_off_c, 0, 55, 64
2, 18878, Note_off_c, 0, 64, 64
2, 18961, Note_on_c, 0, 69, 57
2, 18982, Control_c, 0, 64, 0
2, 18986, Note_on_c, 0, 74, 81
2, 18986, Note_on_c, 0, 54, 58
2, 18990, Control_c, 0, 64, 0
2, 18990, Note_on_c, 0, 62, 26
2, 18992, Note_on_c, 0, 60, 47
2, 19009, Note_off_c, 0, 69, 64
2, 19017, Control_c, 0, 64, 127
2, 19025, Control_c, 0, 64, 127
2, 19042, Note_off_c, 0, 74, 64
2, 19050, Note_off_c, 0, 54, 64
2, 19055, Note_off_c, 0, 60, 64
2, 19056, Note_off_c, 0, 62, 64
2, 19066, Note_on_c, 0, 74, 90
2, 19126, Note_off_c, 0, 74, 64
2, 19127, Control_c, 0, 64, 0
2, 19134, Note_on_c, 0, 76, 88
2, 19135, Control_c, 0, 64, 0
2, 19142, Note_on_c, 0, 55, 50
2, 19142, Note_on_c, 0, 53, 47
2, 19145, Note_on_c, 0, 59, 53
2, 19146, Note_on_c, 0, 62, 71
2, 19152, Note_on_c, 0, 74, 96
2, 19176, Control_c, 0, 64, 127
2, 19184, Control_c, 0, 64, 127
2, 19188, Note_off_c, 0, 76, 64
2, 19202, Note_off_c, 0, 59, 64
2, 19205, Note_off_c, 0, 55, 64
2, 19212, Note_off_c, 0, 62, 64
2, 19214, Note_off_c, 0, 53, 64
2, 19294, Note_on_c, 0, 62, 53
2, 19296, Note_on_c, 0, 67, 101
2, 19304, Note_on_c, 0, 59, 40
2, 19305, Note_on_c, 0, 55, 47
2, 19305, Note_on_c, 0, 53, 47
2, 19305, Control_c, 0, 64, 0
2, 19307, Note_off_c, 0, 74, 64
2, 19313, Control_c, 0, 64, 0
2, 19322, Control_c, 0, 64, 127
2, 19330, Control_c, 0, 64, 127
2, 19343, Note_off_c, 0, 59, 64
2, 19350, Note_off_c, 0, 53, 64
2, 19354, Note_off_c, 0, 55, 64
2, 19354, Note_off_c, 0, 62, 64
2, 19368, Note_on_c, 0, 71, 78
2, 19384, Note_off_c, 0, 67, 64
2, 19442, Note_on_c, 0, 55, 47
2, 19443, Note_on_c, 0, 60, 47
2, 19445, Note_on_c, 0, 52, 47
2, 19449, Control_c, 0, 64, 0
2, 19454, Note_on_c, 0, 72, 102
2, 19457, Control_c, 0, 64, 0
2, 19476, Note_off_c, 0, 71, 64
2, 19495, Control_c, 0, 64, 127
2, 19503, Control_c, 0, 64, 127
2, 19521, Note_off_c, 0, 55, 64
2, 19522, Note_off_c, 0, 60, 64
2, 19535, Note_on_c, 0, 74, 75
2, 19559, Note_off_c, 0, 52, 64
2, 19563, Note_off_c, 0, 72, 64
2, 19596, Control_c, 0, 64, 0
2, 19602, Note_on_c, 0, 48, 47
2, 19603, Note_on_c, 0, 64, 53
2, 19604, Control_c, 0, 64, 0
2, 19606, Note_on_c, 0, 76, 88
2, 19612, Note_on_c, 0, 55, 51
2, 19618, Note_off_c, 0, 74, 64
2, 19640, Control_c, 0, 64, 127
2, 19648, Control_c, 0, 64, 127
2, 19683, Note_on_c, 0, 77, 88
2, 19694, Note_off_c, 0, 76, 64
2, 19700, Note_off_c, 0, 64, 64
2, 19701, Note_off_c, 0, 55, 64
2, 19708, Note_off_c, 0, 48, 64
2, 19756, Note_on_c, 0, 79, 88
2, 19777, Note_off_c, 0, 77, 64
2, 19817, Control_c, 0, 64, 0
2, 19825, Control_c, 0, 64, 0
2, 19832, Note_on_c, 0, 84, 88
2, 19840, Note_off_c, 0, 79, 64
2, 19908, Note_on_c, 0, 83, 88
2, 19909, Control_c, 0, 64, 0
2, 19917, Control_c, 0, 64, 0
2, 19919, Note_on_c, 0, 43, 72
2, 19921, Note_off_c, 0, 84, 64
2, 19937, Control_c, 0, 64, 127
2, 19945, Control_c, 0, 64, 127
2, 19980, Note_on_c, 0, 81, 68
2, 19992, Note_off_c, 0, 83, 64
2, 20019, Note_on_c, 0, 83, 78
2, 20037, Note_off_c, 0, 81, 64
2, 20045, Note_on_c, 0, 81, 76
2, 20058, Control_c, 0, 64, 0
2, 20066, Control_c, 0, 64, 0
2, 20068, Note_off_c, 0, 83, 64
2, 20070, Note_on_c, 0, 62, 40
2, 20074, Note_on_c, 0, 65, 47
2, 20078, Note_on_c, 0, 55, 43
2, 20080, Note_on_c, 0, 77, 104
2, 20088, Control_c, 0, 64, 127
2, 20096, Control_c, 0, 64, 127
2, 20111, Note_off_c, 0, 81, 64
2, 20138, Note_off_c, 0, 62, 64
2, 20138, Note_on_c, 0, 74, 63
2, 20141, Note_off_c, 0, 65, 64
2, 20145, Note_off_c, 0, 55, 64
2, 20158, Note_off_c, 0, 77, 64
2, 20191, Note_off_c, 0, 43, 64
2, 20207, Note_on_c, 0, 71, 97
2, 20210, Note_on_c, 0, 62, 43
2, 20211, Note_on_c, 0, 65, 47
2, 20211, Note_on_c, 0, 55, 53
2, 20220, Note_off_c, 0, 74, 64
2, 20277, Note_off_c, 0, 62, 64
2, 20278, Note_off_c, 0, 55, 64
2, 20278, Note_off_c, 0, 65, 64
2, 20278, Note_on_c, 0, 67, 71
2, 20293, Note_off_c, 0, 71, 64
2, 20359, Control_c, 0, 64, 0
2, 20362, Note_on_c, 0, 64, 71
2, 20367, Control_c, 0, 64, 0
2, 20369, Note_on_c, 0, 72, 78
2, 20370, Note_on_c, 0, 48, 70
2, 20382, Note_off_c, 0, 67, 64
2, 20408, Control_c, 0, 64, 127
2, 20416, Control_c, 0, 64, 127
2, 20428, Note_on_c, 0, 74, 62
2, 20454, Note_off_c, 0, 72, 64
2, 20456, Note_off_c, 0, 48, 64
2, 20466, Note_on_c, 0, 76, 88
2, 20480, Note_off_c, 0, 74, 64
2, 20490, Note_on_c, 0, 67, 71
2, 20513, Control_c, 0, 64, 0
2, 20515, Note_off_c, 0, 64, 64
2, 20521, Control_c, 0, 64, 0
2, 20526, Note_on_c, 0, 55, 26
2, 20530, Note_on_c, 0, 72, 83
2, 20530, Note_on_c, 0, 60, 25
2, 20530, Note_on_c, 0, 48, 82
2, 20534, Note_on_c, 0, 64, 70
2, 20544, Note_off_c, 0, 76, 64
2, 20555, Control_c, 0, 64, 127
2, 20563, Control_c, 0, 64, 127
2, 20569, Note_off_c, 0, 67, 64
2, 20691, Note_off_c, 0, 55, 64
2, 20695, Note_off_c, 0, 48, 64
2, 20695, Note_off_c, 0, 60, 64
2, 20695, Note_off_c, 0, 72, 64
2, 20699, Note_off_c, 0, 64, 64
2, 20730, Note_on_c, 0, 72, 64
2, 20891, Control_c, 0, 64, 0
2, 20899, Control_c, 0, 64, 0
2, 20906, Note_on_c, 0, 48, 68
2, 20912, Note_on_c, 0, 84, 82
2, 20950, Control_c, 0, 64, 127
2, 20958, Control_c, 0, 64, 127
2, 20963, Note_off_c, 0, 72, 64
2, 21059, Note_off_c, 0, 84, 64
2, 21121, Note_on_c, 0, 70, 72
2, 21124, Note_on_c, 0, 79, 79
2, 21130, Note_on_c, 0, 55, 36
2, 21131, Note_on_c, 0, 60, 49
2, 21137, Note_on_c, 0, 64, 33
2, 21200, Note_off_c, 0, 48, 64
2, 21248, Note_off_c, 0, 60, 64
2, 21251, Note_off_c, 0, 55, 64
2, 21254, Note_off_c, 0, 64, 64
2, 21304, Note_on_c, 0, 55, 27
2, 21311, Note_on_c, 0, 64, 27
2, 21311, Note_on_c, 0, 60, 17
2, 21366, Note_on_c, 0, 81, 66
2, 21366, Note_on_c, 0, 72, 66
2, 21375, Note_off_c, 0, 70, 64
2, 21378, Note_off_c, 0, 79, 64
2, 21411, Note_off_c, 0, 55, 64
2, 21437, Note_off_c, 0, 64, 64
2, 21442, Note_off_c, 0, 60, 64
2, 21456, Note_on_c, 0, 77, 75
2, 21456, Note_on_c, 0, 69, 75
2, 21460, Note_off_c, 0, 72, 64
2, 21460, Note_off_c, 0, 81, 64
2, 21460, Note_on_c, 0, 53, 69
2, 21470, Control_c, 0, 64, 0
2, 21478, Control_c, 0, 64, 0
2, 21501, Control_c, 0, 64, 127
2, 21509, Control_c, 0, 64, 127
2, 21545, Note_off_c, 0, 69, 64
2, 21545, Note_off_c, 0, 77, 64
2, 21558, Note_on_c, 0, 72, 86
2, 21610, Note_off_c, 0, 72, 64
2, 21622, Note_on_c, 0, 84, 89
2, 21622, Note_on_c, 0, 72, 62
2, 21622, Control_c, 0, 64, 0
2, 21630, Note_on_c, 0, 65, 42
2, 21630, Note_on_c, 0, 60, 42
2, 21630, Control_c, 0, 64, 0
2, 21634, Note_on_c, 0, 57, 51
2, 21655, Control_c, 0, 64, 127
2, 21663, Control_c, 0, 64, 127
2, 21686, Note_off_c, 0, 57, 64
2, 21690, Note_off_c, 0, 60, 64
2, 21699, Note_off_c, 0, 65, 64
2, 21784, Note_off_c, 0, 53, 64
2, 21790, Note_on_c, 0, 65, 51
2, 21790, Note_on_c, 0, 60, 38
2, 21790, Note_on_c, 0, 57, 51
2, 21835, Note_off_c, 0, 57, 64
2, 21835, Note_off_c, 0, 60, 64
2, 21835, Note_off_c, 0, 65, 64
2, 21849, Note_on_c, 0, 78, 79
2, 21851, Note_on_c, 0, 75, 68
2, 21874, Note_off_c, 0, 72, 64
2, 21874, Note_off_c, 0, 84, 64
2, 21926, Note_on_c, 0, 76, 79
2, 21931, Note_on_c, 0, 79, 82
2, 21935, Note_on_c, 0, 48, 69
2, 21941, Control_c, 0, 64, 0
2, 21949, Control_c, 0, 64, 0
2, 21954, Note_off_c, 0, 78, 64
2, 21957, Note_off_c, 0, 75, 64
2, 21963, Control_c, 0, 64, 127
2, 21971, Control_c, 0, 64, 127
2, 22014, Note_on_c, 0, 78, 81
2, 22014, Note_on_c, 0, 81, 75
2, 22026, Note_off_c, 0, 76, 64
2, 22031, Note_off_c, 0, 79, 64
2, 22098, Control_c, 0, 64, 0
2, 22102, Note_on_c, 0, 72, 52
2, 22106, Control_c, 0, 64, 0
2, 22106, Note_on_c, 0, 79, 77
2, 22106, Note_on_c, 0, 60, 27
2, 22111, Note_on_c, 0, 82, 93
2, 22111, Note_on_c, 0, 64, 30
2, 22116, Note_off_c, 0, 78, 64
2, 22119, Control_c, 0, 64, 127
2, 22123, Note_off_c, 0, 81, 64
2, 22127, Control_c, 0, 64, 127
2, 22164, Note_off_c, 0, 72, 64
2, 22168, Note_off_c, 0, 60, 64
2, 22173, Note_off_c, 0, 64, 64
2, 22213, Note_off_c, 0, 48, 64
2, 22250, Note_on_c, 0, 70, 42
2, 22250, Note_on_c, 0, 60, 42
2, 22254, Note_on_c, 0, 64, 33
2, 22312, Note_off_c, 0, 60, 64
2, 22312, Note_off_c, 0, 70, 64
2, 22316, Note_off_c, 0, 64, 64
2, 22326, Note_on_c, 0, 80, 38
2, 22329, Note_on_c, 0, 83, 75
2, 22366, Note_off_c, 0, 79, 64
2, 22389, Note_off_c, 0, 82, 64
2, 22402, Control_c, 0, 64, 0
2, 22407, Note_on_c, 0, 53, 64
2, 22410, Control_c, 0, 64, 0
2, 22414, Note_on_c, 0, 86, 88
2, 22438, Note_off_c, 0, 80, 64
2, 22439, Control_c, 0, 64, 127
2, 22441, Note_off_c, 0, 83, 64
2, 22447, Control_c, 0, 64, 127
2, 22494, Note_off_c, 0, 86, 64
2, 22507, Note_on_c, 0, 84, 64
2, 22510, Note_on_c, 0, 80, 70
2, 22562, Control_c, 0, 64, 0
2, 22570, Control_c, 0, 64, 0
2, 22570, Note_on_c, 0, 81, 55
2, 22573, Note_on_c, 0, 60, 60
2, 22574, Note_on_c, 0, 69, 60
2, 22577, Note_on_c, 0, 89, 79
2, 22580, Note_off_c, 0, 53, 64
2, 22584, Note_off_c, 0, 80, 64
2, 22585, Control_c, 0, 64, 127
2, 22593, Control_c, 0, 64, 127
2, 22596, Note_off_c, 0, 84, 64
2, 22692, Note_off_c, 0, 81, 64
2, 22699, Note_off_c, 0, 89, 64
2, 22722, Note_on_c, 0, 72, 86
2, 22722, Note_on_c, 0, 65, 60
2, 22724, Note_on_c, 0, 57, 51
2, 22737, Note_off_c, 0, 60, 64
2, 22738, Note_off_c, 0, 69, 64
2, 22876, Note_on_c, 0, 84, 87
2, 22885, Note_on_c, 0, 48, 73
2, 22885, Control_c, 0, 64, 0
2, 22886, Note_off_c, 0, 65, 64
2, 22886, Note_off_c, 0, 72, 64
2, 22888, Note_off_c, 0, 57, 64
2, 22893, Control_c, 0, 64, 0
2, 22914, Control_c, 0, 64, 127
2, 22922, Control_c, 0, 64, 127
2, 23044, Note_on_c, 0, 79, 72
2, 23045, Note_on_c, 0, 55, 17
2, 23046, Note_on_c, 0, 70, 83
2, 23046, Note_on_c, 0, 64, 27
2, 23046, Note_on_c, 0, 60, 42
2, 23055, Note_off_c, 0, 84, 64
2, 23060, Control_c, 0, 64, 0
2, 23068, Control_c, 0, 64, 0
2, 23074, Control_c, 0, 64, 127
2, 23082, Control_c, 0, 64, 127
2, 23103, Note_off_c, 0, 60, 64
2, 23103, Note_off_c, 0, 64, 64
2, 23114, Note_off_c, 0, 55, 64
2, 23169, Note_off_c, 0, 48, 64
2, 23202, Note_on_c, 0, 64, 42
2, 23206, Note_on_c, 0, 60, 36
2, 23206, Note_on_c, 0, 55, 17
2, 23257, Note_off_c, 0, 55, 64
2, 23266, Note_on_c, 0, 72, 79
2, 23270, Note_on_c, 0, 81, 55
2, 23285, Note_off_c, 0, 79, 64
2, 23287, Note_off_c, 0, 70, 64
2, 23310, Note_off_c, 0, 60, 64
2, 23344, Note_off_c, 0, 64, 64
2, 23346, Note_on_c, 0, 65, 67
2, 23348, Note_on_c, 0, 53, 77
2, 23348, Note_on_c, 0, 69, 69
2, 23352, Note_on_c, 0, 77, 68
2, 23358, Note_off_c, 0, 72, 64
2, 23360, Control_c, 0, 64, 0
2, 23362, Note_off_c, 0, 81, 64
2, 23368, Control_c, 0, 64, 0
2, 23384, Control_c, 0, 64, 127
2, 23392, Control_c, 0, 64, 127
2, 23423, Note_on_c, 0, 72, 79
2, 23431, Note_off_c, 0, 69, 64
2, 23452, Note_off_c, 0, 65, 64
2, 23456, Note_off_c, 0, 77, 64
2, 23492, Control_c, 0, 64, 0
2, 23500, Control_c, 0, 64, 0
2, 23502, Note_on_c, 0, 69, 65
2, 23502, Note_on_c, 0, 57, 57
2, 23503, Note_on_c, 0, 65, 52
2, 23507, Note_on_c, 0, 77, 83
2, 23519, Note_off_c, 0, 72, 64
2, 23537, Control_c, 0, 64, 127
2, 23545, Control_c, 0, 64, 127
2, 23599, Note_off_c, 0, 65, 64
2, 23610, Note_off_c, 0, 57, 64
2, 23642, Note_on_c, 0, 65, 67
2, 23646, Note_on_c, 0, 62, 60
2, 23669, Note_off_c, 0, 69, 64
2, 23694, Note_off_c, 0, 65, 64
2, 23701, Note_off_c, 0, 62, 64
2, 23718, Note_on_c, 0, 76, 60
2, 23718, Note_on_c, 0, 72, 79
2, 23726, Note_off_c, 0, 77, 64
2, 23786, Note_off_c, 0, 72, 64
2, 23794, Note_on_c, 0, 72, 34
2, 23794, Note_on_c, 0, 65, 27
2, 23794, Note_on_c, 0, 55, 35
2, 23797, Note_on_c, 0, 74, 89
2, 23798, Note_on_c, 0, 62, 27
2, 23805, Note_off_c, 0, 53, 64
2, 23817, Control_c, 0, 64, 0
2, 23818, Note_off_c, 0, 76, 64
2, 23825, Control_c, 0, 64, 0
2, 23834, Note_off_c, 0, 62, 64
2, 23845, Control_c, 0, 64, 127
2, 23852, Note_off_c, 0, 55, 64
2, 23852, Note_off_c, 0, 65, 64
2, 23853, Control_c, 0, 64, 127
2, 23878, Note_on_c, 0, 76, 61
2, 23897, Note_off_c, 0, 74, 64
2, 23955, Note_on_c, 0, 71, 51
2, 23955, Note_on_c, 0, 77, 86
2, 23966, Note_on_c, 0, 65, 42
2, 23966, Note_on_c, 0, 55, 42
2, 23970, Note_on_c, 0, 62, 42
2, 23975, Note_on_c, 0, 79, 101
2, 23976, Note_off_c, 0, 76, 64
2, 23977, Note_off_c, 0, 72, 64
2, 23994, Note_off_c, 0, 77, 64
2, 24012, Note_on_c, 0, 77, 99
2, 24022, Note_off_c, 0, 79, 64
2, 24028, Note_off_c, 0, 55, 64
2, 24034, Note_off_c, 0, 62, 64
2, 24045, Note_off_c, 0, 65, 64
2, 24059, Note_off_c, 0, 71, 64
2, 24059, Note_on_c, 0, 76, 93
2, 24090, Note_off_c, 0, 77, 64
2, 24122, Note_on_c, 0, 71, 81
2, 24125, Note_on_c, 0, 55, 60
2, 24126, Note_on_c, 0, 65, 44
2, 24126, Note_on_c, 0, 62, 48
2, 24128, Note_on_c, 0, 77, 105
2, 24147, Note_off_c, 0, 76, 64
2, 24159, Note_off_c, 0, 62, 64
2, 24168, Note_off_c, 0, 65, 64
2, 24174, Note_off_c, 0, 55, 64
2, 24174, Note_off_c, 0, 71, 64
2, 24198, Note_on_c, 0, 78, 89
2, 24220, Note_off_c, 0, 77, 64
2, 24278, Control_c, 0, 64, 0
2, 24284, Note_on_c, 0, 48, 75
2, 24285, Note_on_c, 0, 81, 91
2, 24286, Control_c, 0, 64, 0
2, 24292, Note_on_c, 0, 70, 84
2, 24310, Note_off_c, 0, 78, 64
2, 24317, Control_c, 0, 64, 127
2, 24325, Control_c, 0, 64, 127
2, 24360, Note_on_c, 0, 79, 65
2, 24382, Note_off_c, 0, 70, 64
2, 24401, Note_off_c, 0, 81, 64
2, 24435, Control_c, 0, 64, 0
2, 24442, Note_on_c, 0, 60, 57
2, 24443, Control_c, 0, 64, 0
2, 24445, Note_on_c, 0, 64, 42
2, 24446, Note_on_c, 0, 76, 94
2, 24446, Note_on_c, 0, 70, 81
2, 24446, Note_on_c, 0, 55, 42
2, 24458, Note_off_c, 0, 79, 64
2, 24472, Control_c, 0, 64, 127
2, 24478, Note_off_c, 0, 60, 64
2, 24480, Control_c, 0, 64, 127
2, 24487, Note_off_c, 0, 55, 64
2, 24497, Note_off_c, 0, 64, 64
2, 24515, Note_off_c, 0, 70, 64
2, 24586, Note_on_c, 0, 60, 53
2, 24588, Note_on_c, 0, 64, 39
2, 24594, Note_on_c, 0, 55, 39
2, 24595, Note_on_c, 0, 70, 82
2, 24600, Note_on_c, 0, 74, 77
2, 24607, Note_off_c, 0, 76, 64
2, 24622, Note_off_c, 0, 60, 64
2, 24635, Note_off_c, 0, 55, 64
2, 24635, Note_off_c, 0, 64, 64
2, 24643, Note_off_c, 0, 48, 64
2, 24716, Note_on_c, 0, 72, 56
2, 24718, Note_off_c, 0, 70, 64
2, 24723, Note_off_c, 0, 74, 64
2, 24744, Control_c, 0, 64, 0
2, 24749, Note_on_c, 0, 48, 77
2, 24752, Control_c, 0, 64, 0
2, 24765, Note_on_c, 0, 84, 87
2, 24781, Note_off_c, 0, 72, 64
2, 24789, Control_c, 0, 64, 127
2, 24797, Control_c, 0, 64, 127
2, 24906, Note_on_c, 0, 70, 93
2, 24910, Note_on_c, 0, 55, 24
2, 24910, Note_on_c, 0, 64, 47
2, 24910, Note_on_c, 0, 60, 26
2, 24913, Note_on_c, 0, 79, 79
2, 24914, Control_c, 0, 64, 0
2, 24922, Control_c, 0, 64, 0
2, 24938, Note_off_c, 0, 84, 64
2, 24946, Note_off_c, 0, 60, 64
2, 24949, Control_c, 0, 64, 127
2, 24957, Control_c, 0, 64, 127
2, 24959, Note_off_c, 0, 64, 64
2, 24965, Note_off_c, 0, 55, 64
2, 25033, Note_off_c, 0, 48, 64
2, 25067, Note_on_c, 0, 60, 42
2, 25072, Note_on_c, 0, 55, 36
2, 25074, Note_on_c, 0, 64, 47
2, 25122, Note_on_c, 0, 81, 57
2, 25122, Note_on_c, 0, 72, 57
2, 25142, Note_off_c, 0, 55, 64
2, 25147, Note_off_c, 0, 79, 64
2, 25152, Note_off_c, 0, 60, 64
2, 25154, Note_off_c, 0, 70, 64
2, 25184, Note_off_c, 0, 64, 64
2, 25205, Control_c, 0, 64, 0
2, 25211, Note_on_c, 0, 53, 73
2, 25213, Control_c, 0, 64, 0
2, 25214, Note_on_c, 0, 77, 70
2, 25216, Note_on_c, 0, 69, 77
2, 25230, Note_off_c, 0, 72, 64
2, 25230, Note_off_c, 0, 81, 64
2, 25259, Control_c, 0, 64, 127
2, 25267, Control_c, 0, 64, 127
2, 25310, Note_on_c, 0, 72, 81
2, 25318, Note_off_c, 0, 77, 64
2, 25320, Note_off_c, 0, 69, 64
2, 25348, Note_off_c, 0, 72, 64
2, 25359, Control_c, 0, 64, 0
2, 25366, Note_on_c, 0, 84, 84
2, 25366, Note_on_c, 0, 65, 36
2, 25367, Control_c, 0, 64, 0
2, 25369, Note_on_c, 0, 57, 39
2, 25370, Note_on_c, 0, 72, 24
2, 25370, Note_on_c, 0, 60, 19
2, 25395, Control_c, 0, 64, 127
2, 25403, Control_c, 0, 64, 127
2, 25428, Note_off_c, 0, 65, 64
2, 25431, Note_off_c, 0, 57, 64
2, 25432, Note_off_c, 0, 60, 64
2, 25513, Note_on_c, 0, 65, 39
2, 25517, Note_on_c, 0, 57, 53
2, 25518, Note_on_c, 0, 60, 52
2, 25526, Note_off_c, 0, 53, 64
2, 25539, Note_off_c, 0, 60, 64
2, 25544, Note_off_c, 0, 65, 64
2, 25551, Note_off_c, 0, 57, 64
2, 25584, Note_on_c, 0, 78, 69
2, 25587, Note_on_c, 0, 75, 68
2, 25610, Note_off_c, 0, 72, 64
2, 25613, Note_off_c, 0, 84, 64
2, 25667, Control_c, 0, 64, 0
2, 25670, Note_on_c, 0, 76, 69
2, 25675, Note_off_c, 0, 75, 64
2, 25675, Note_on_c, 0, 48, 81
2, 25675, Control_c, 0, 64, 0
2, 25675, Note_on_c, 0, 79, 81
2, 25679, Note_off_c, 0, 78, 64
2, 25706, Control_c, 0, 64, 127
2, 25714, Control_c, 0, 64, 127
2, 25750, Note_on_c, 0, 81, 60
2, 25750, Note_on_c, 0, 78, 79
2, 25758, Note_off_c, 0, 76, 64
2, 25763, Note_off_c, 0, 79, 64
2, 25826, Control_c, 0, 64, 0
2, 25830, Note_on_c, 0, 60, 42
2, 25832, Note_on_c, 0, 64, 42
2, 25833, Note_on_c, 0, 82, 99
2, 25834, Note_on_c, 0, 79, 86
2, 25834, Control_c, 0, 64, 0
2, 25834, Note_on_c, 0, 72, 53
2, 25838, Note_off_c, 0, 78, 64
2, 25838, Note_off_c, 0, 81, 64
2, 25855, Control_c, 0, 64, 127
2, 25863, Control_c, 0, 64, 127
2, 25892, Note_off_c, 0, 60, 64
2, 25893, Note_off_c, 0, 72, 64
2, 25894, Note_off_c, 0, 64, 64
2, 25952, Note_off_c, 0, 48, 64
2, 25972, Note_on_c, 0, 70, 49
2, 25974, Note_on_c, 0, 64, 42
2, 25974, Note_on_c, 0, 60, 33
2, 26011, Note_off_c, 0, 64, 64
2, 26019, Note_off_c, 0, 70, 64
2, 26023, Note_off_c, 0, 60, 64
2, 26042, Note_on_c, 0, 80, 73
2, 26046, Note_on_c, 0, 83, 68
2, 26056, Note_off_c, 0, 82, 64
2, 26057, Note_off_c, 0, 79, 64
2, 26127, Note_on_c, 0, 86, 104
2, 26127, Control_c, 0, 64, 0
2, 26128, Note_off_c, 0, 80, 64
2, 26132, Note_off_c, 0, 83, 64
2, 26135, Note_on_c, 0, 53, 55
2, 26135, Control_c, 0, 64, 0
2, 26166, Control_c, 0, 64, 127
2, 26174, Control_c, 0, 64, 127
2, 26203, Note_off_c, 0, 86, 64
2, 26222, Note_on_c, 0, 84, 82
2, 26222, Note_on_c, 0, 80, 68
2, 26274, Note_on_c, 0, 60, 52
2, 26278, Note_on_c, 0, 81, 75
2, 26278, Note_on_c, 0, 69, 60
2, 26279, Note_on_c, 0, 89, 99
2, 26282, Note_off_c, 0, 80, 64
2, 26294, Note_off_c, 0, 84, 64
2, 26300, Note_off_c, 0, 53, 64
2, 26374, Note_off_c, 0, 81, 64
2, 26375, Note_off_c, 0, 89, 64
2, 26405, Note_off_c, 0, 60, 64
2, 26418, Note_on_c, 0, 65, 44
2, 26421, Note_on_c, 0, 57, 51
2, 26422, Note_on_c, 0, 72, 81
2, 26424, Note_off_c, 0, 69, 64
2, 26566, Control_c, 0, 64, 0
2, 26574, Control_c, 0, 64, 0
2, 26575, Note_on_c, 0, 84, 93
2, 26583, Note_on_c, 0, 48, 73
2, 26585, Note_off_c, 0, 72, 64
2, 26593, Note_off_c, 0, 65, 64
2, 26596, Note_off_c, 0, 57, 64
2, 26617, Control_c, 0, 64, 127
2, 26625, Control_c, 0, 64, 127
2, 26733, Note_on_c, 0, 55, 36
2, 26734, Note_on_c, 0, 64, 42
2, 26734, Note_on_c, 0, 60, 42
2, 26741, Note_on_c, 0, 70, 86
2, 26742, Note_on_c, 0, 79, 81
2, 26742, Control_c, 0, 64, 0
2, 26750, Control_c, 0, 64, 0
2, 26754, Note_off_c, 0, 84, 64
2, 26758, Control_c, 0, 64, 127
2, 26766, Control_c, 0, 64, 127
2, 26777, Note_off_c, 0, 60, 64
2, 26785, Note_off_c, 0, 55, 64
2, 26788, Note_off_c, 0, 64, 64
2, 26861, Note_off_c, 0, 48, 64
2, 26876, Note_on_c, 0, 64, 44
2, 26883, Note_on_c, 0, 55, 28
2, 26887, Note_on_c, 0, 60, 36
2, 26934, Note_on_c, 0, 72, 86
2, 26937, Note_on_c, 0, 81, 60
2, 26946, Note_off_c, 0, 70, 64
2, 26947, Note_off_c, 0, 79, 64
2, 26962, Note_off_c, 0, 60, 64
2, 26962, Note_off_c, 0, 55, 64
2, 26962, Note_off_c, 0, 64, 64
2, 27022, Note_on_c, 0, 65, 83
2, 27022, Note_on_c, 0, 57, 75
2, 27023, Note_on_c, 0, 53, 75
2, 27027, Note_on_c, 0, 69, 83
2, 27030, Note_on_c, 0, 77, 75
2, 27030, Note_on_c, 0, 60, 70
2, 27035, Note_off_c, 0, 72, 64
2, 27038, Note_off_c, 0, 81, 64
2, 27050, Control_c, 0, 64, 0
2, 27058, Control_c, 0, 64, 0
2, 27085, Note_off_c, 0, 57, 64
2, 27085, Note_off_c, 0, 65, 64
2, 27086, Note_off_c, 0, 53, 64
2, 27090, Note_off_c, 0, 69, 64
2, 27093, Note_off_c, 0, 60, 64
2, 27093, Note_off_c, 0, 77, 64
2, 27201, Note_on_c, 0, 58, 97
2, 27202, Note_on_c, 0, 55, 81
2, 27206, Note_on_c, 0, 81, 99
2, 27206, Note_on_c, 0, 50, 99
2, 27206, Note_on_c, 0, 46, 99
2, 27207, Note_on_c, 0, 74, 99
2, 27213, Note_on_c, 0, 67, 99
2, 27354, Control_c, 0, 64, 127
2, 27362, Control_c, 0, 64, 127
2, 27592, Note_on_c, 0, 79, 79
2, 27605, Note_off_c, 0, 81, 64
2, 27617, Note_off_c, 0, 58, 64
2, 27618, Note_off_c, 0, 55, 64
2, 27622, Note_off_c, 0, 46, 64
2, 27622, Note_off_c, 0, 50, 64
2, 27623, Note_off_c, 0, 74, 64
2, 27629, Note_off_c, 0, 67, 64
2, 27692, Control_c, 0, 64, 0
2, 27700, Control_c, 0, 64, 0
2, 27702, Note_on_c, 0, 72, 93
2, 27702, Note_on_c, 0, 64, 84
2, 27704, Note_off_c, 0, 79, 64
2, 27704, Note_on_c, 0, 70, 99
2, 27711, Note_on_c, 0, 48, 79
2, 27747, Note_off_c, 0, 48, 64
2, 27748, Note_off_c, 0, 64, 64
2, 27750, Note_off_c, 0, 70, 64
2, 27782, Note_on_c, 0, 73, 106
2, 27796, Note_off_c, 0, 72, 64
2, 27858, Note_on_c, 0, 60, 77
2, 27858, Note_on_c, 0, 55, 67
2, 27859, Note_on_c, 0, 48, 77
2, 27862, Note_on_c, 0, 64, 94
2, 27866, Note_on_c, 0, 72, 90
2, 27866, Note_on_c, 0, 70, 95
2, 27867, Note_off_c, 0, 73, 64
2, 27903, Note_off_c, 0, 55, 64
2, 27907, Note_off_c, 0, 48, 64
2, 27907, Note_off_c, 0, 60, 64
2, 27911, Note_off_c, 0, 64, 64
2, 27920, Note_off_c, 0, 70, 64
2, 27926, Note_on_c, 0, 74, 83
2, 27940, Note_off_c, 0, 72, 64
2, 27994, Note_on_c, 0, 64, 94
2, 27998, Note_off_c, 0, 74, 64
2, 27998, Note_on_c, 0, 72, 89
2, 27998, Note_on_c, 0, 60, 83
2, 27998, Note_on_c, 0, 55, 83
2, 27998, Note_on_c, 0, 48, 89
2, 27999, Note_on_c, 0, 70, 112
2, 28047, Note_off_c, 0, 48, 64
2, 28050, Note_off_c, 0, 70, 64
2, 28056, Note_off_c, 0, 55, 64
2, 28056, Note_off_c, 0, 64, 64
2, 28064, Note_on_c, 0, 76, 112
2, 28066, Note_off_c, 0, 60, 64
2, 28084, Note_off_c, 0, 72, 64
2, 28154, Note_on_c, 0, 60, 99
2, 28154, Note_on_c, 0, 57, 96
2, 28156, Note_on_c, 0, 53, 96
2, 28163, Note_on_c, 0, 77, 99
2, 28163, Note_on_c, 0, 69, 100
2, 28163, Note_on_c, 0, 65, 99
2, 28175, Note_off_c, 0, 76, 64
2, 28192, Control_c, 0, 64, 127
2, 28200, Control_c, 0, 64, 127
2, 28226, Note_off_c, 0, 57, 64
2, 28226, Note_off_c, 0, 60, 64
2, 28228, Note_off_c, 0, 53, 64
2, 28235, Note_off_c, 0, 65, 64
2, 28235, Note_off_c, 0, 69, 64
2, 28235, Note_off_c, 0, 77, 64
2, 28337, Control_c, 0, 64, 0
2, 28345, Control_c, 0, 64, 0
2, 28346, Note_on_c, 0, 81, 99
2, 28346, Note_on_c, 0, 41, 99
2, 28350, Note_on_c, 0, 89, 95
2, 28352, Note_on_c, 0, 77, 99
2, 28352, Note_on_c, 0, 53, 99
2, 28396, Control_c, 0, 64, 127
2, 28404, Control_c, 0, 64, 127
2, 28474, Note_off_c, 0, 41, 64
2, 28474, Note_off_c, 0, 81, 64
2, 28478, Note_off_c, 0, 89, 64
2, 28480, Note_off_c, 0, 53, 64
2, 28480, Note_off_c, 0, 77, 64
2, 28605, Control_c, 0, 64, 0
2, 28613, Control_c, 0, 64, 0
2, 28830, Note_on_c, 0, 60, 90
2, 28830, Note_on_c, 0, 48, 82
2, 28830, Note_on_c, 0, 36, 87
2, 28832, Note_on_c, 0, 55, 85
2, 28833, Note_on_c, 0, 64, 85
2, 28867, Note_off_c, 0, 55, 64
2, 28870, Note_off_c, 0, 48, 64
2, 28872, Note_off_c, 0, 60, 64
2, 28875, Note_off_c, 0, 64, 64
2, 28875, Note_off_c, 0, 36, 64
2, 28906, Note_on_c, 0, 62, 100
2, 28906, Note_on_c, 0, 48, 96
2, 28906, Note_on_c, 0, 36, 98
2, 28908, Note_on_c, 0, 65, 100
2, 28912, Note_on_c, 0, 55, 86
2, 28946, Note_off_c, 0, 36, 64
2, 28946, Note_off_c, 0, 48, 64
2, 28946, Note_off_c, 0, 62, 64
2, 28948, Note_off_c, 0, 65, 64
2, 28952, Note_off_c, 0, 55, 64
2, 28986, Note_on_c, 0, 36, 100
2, 28989, Note_on_c, 0, 67, 102
2, 28991, Note_on_c, 0, 55, 96
2, 28992, Note_on_c, 0, 64, 107
2, 28992, Note_on_c, 0, 48, 98
2, 29031, Note_off_c, 0, 36, 64
2, 29034, Note_off_c, 0, 67, 64
2, 29036, Note_off_c, 0, 55, 64
2, 29037, Note_off_c, 0, 48, 64
2, 29037, Note_off_c, 0, 64, 64
2, 29169, Note_on_c, 0, 69, 107
2, 29169, Note_on_c, 0, 65, 107
2, 29177, Note_on_c, 0, 55, 102
2, 29177, Note_on_c, 0, 48, 107
2, 29178, Note_on_c, 0, 36, 107
2, 29194, Control_c, 0, 64, 127
2, 29202, Control_c, 0, 64, 127
2, 29283, Note_off_c, 0, 65, 64
2, 29283, Note_off_c, 0, 69, 64
2, 29291, Note_off_c, 0, 48, 64
2, 29291, Note_off_c, 0, 55, 64
2, 29292, Note_off_c, 0, 36, 64
2, 29330, Control_c, 0, 64, 0
2, 29338, Control_c, 0, 64, 0
2, 29344, Note_on_c, 0, 67, 100
2, 29344, Note_on_c, 0, 64, 102
2, 29351, Note_on_c, 0, 55, 86
2, 29352, Note_on_c, 0, 48, 90
2, 29358, Note_on_c, 0, 36, 93
2, 29375, Note_off_c, 0, 55, 64
2, 29377, Note_off_c, 0, 64, 64
2, 29384, Note_off_c, 0, 67, 64
2, 29387, Note_off_c, 0, 48, 64
2, 29390, Note_off_c, 0, 36, 64
2, 29418, Note_on_c, 0, 64, 106
2, 29418, Note_on_c, 0, 60, 106
2, 29418, Note_on_c, 0, 55, 100
2, 29418, Note_on_c, 0, 48, 102
2, 29418, Note_on_c, 0, 36, 93
2, 29442, Note_off_c, 0, 60, 64
2, 29448, Note_off_c, 0, 64, 64
2, 29451, Note_off_c, 0, 48, 64
2, 29451, Note_off_c, 0, 55, 64
2, 29458, Note_off_c, 0, 36, 64
2, 29498, Note_on_c, 0, 48, 107
2, 29498, Note_on_c, 0, 36, 102
2, 29506, Note_on_c, 0, 60, 107
2, 29506, Note_on_c, 0, 55, 106
2, 29539, Note_off_c, 0, 36, 64
2, 29539, Note_off_c, 0, 48, 64
2, 29547, Note_off_c, 0, 55, 64
2, 29547, Note_off_c, 0, 60, 64
2, 29678, Control_c, 0, 64, 127
2, 29683, Note_on_c, 0, 55, 107
2, 29686, Control_c, 0, 64, 127
2, 29688, Note_on_c, 0, 62, 107
2, 29688, Note_on_c, 0, 48, 107
2, 29688, Note_on_c, 0, 36, 107
2, 29779, Note_off_c, 0, 55, 64
2, 29784, Note_off_c, 0, 36, 64
2, 29784, Note_off_c, 0, 48, 64
2, 29784, Note_off_c, 0, 62, 64
2, 29844, Note_on_c, 0, 64, 107
2, 29844, Note_on_c, 0, 55, 102
2, 29850, Note_on_c, 0, 60, 107
2, 29851, Control_c, 0, 64, 0
2, 29858, Note_on_c, 0, 48, 96
2, 29858, Note_on_c, 0, 36, 90
2, 29859, Control_c, 0, 64, 0
2, 29873, Note_off_c, 0, 60, 64
2, 29877, Note_off_c, 0, 55, 64
2, 29881, Note_off_c, 0, 64, 64
2, 29887, Note_off_c, 0, 48, 64
2, 29890, Note_off_c, 0, 36, 64
2, 29926, Note_on_c, 0, 55, 106
2, 29928, Note_on_c, 0, 65, 102
2, 29928, Note_on_c, 0, 60, 107
2, 29936, Note_on_c, 0, 36, 96
2, 29938, Note_on_c, 0, 48, 102
2, 29952, Note_off_c, 0, 60, 64
2, 29957, Note_off_c, 0, 55, 64
2, 29963, Note_off_c, 0, 65, 64
2, 29965, Note_off_c, 0, 36, 64
2, 29967, Note_off_c, 0, 48, 64
2, 29994, Note_on_c, 0, 48, 102
2, 30002, Note_on_c, 0, 64, 93
2, 30002, Note_on_c, 0, 60, 106
2, 30002, Note_on_c, 0, 55, 100
2, 30004, Note_on_c, 0, 67, 107
2, 30008, Note_on_c, 0, 36, 102
2, 30033, Note_off_c, 0, 48, 64
2, 30041, Note_off_c, 0, 55, 64
2, 30041, Note_off_c, 0, 60, 64
2, 30041, Note_off_c, 0, 64, 64
2, 30043, Note_off_c, 0, 67, 64
2, 30047, Note_off_c, 0, 36, 64
2, 30178, Note_on_c, 0, 41, 103
2, 30179, Note_on_c, 0, 48, 103
2, 30185, Note_on_c, 0, 69, 103
2, 30185, Note_on_c, 0, 65, 102
2, 30185, Note_on_c, 0, 60, 103
2, 30185, Note_on_c, 0, 57, 102
2, 30215, Control_c, 0, 64, 127
2, 30223, Control_c, 0, 64, 127
2, 30297, Note_off_c, 0, 41, 64
2, 30298, Note_off_c, 0, 48, 64
2, 30304, Note_off_c, 0, 57, 64
2, 30304, Note_off_c, 0, 60, 64
2, 30304, Note_off_c, 0, 65, 64
2, 30304, Note_off_c, 0, 69, 64
2, 30350, Control_c, 0, 64, 0
2, 30358, Control_c, 0, 64, 0
2, 30366, Note_on_c, 0, 67, 102
2, 30366, Note_on_c, 0, 64, 103
2, 30366, Note_on_c, 0, 60, 97
2, 30366, Note_on_c, 0, 55, 93
2, 30366, Note_on_c, 0, 48, 90
2, 30366, Note_on_c, 0, 36, 90
2, 30405, Note_off_c, 0, 36, 64
2, 30405, Note_off_c, 0, 48, 64
2, 30405, Note_off_c, 0, 55, 64
2, 30405, Note_off_c, 0, 60, 64
2, 30405, Note_off_c, 0, 64, 64
2, 30405, Note_off_c, 0, 67, 64
2, 30406, Control_c, 0, 64, 0
2, 30414, Control_c, 0, 64, 0
2, 30448, Control_c, 0, 64, 127
2, 30449, Note_on_c, 0, 60, 93
2, 30449, Note_on_c, 0, 48, 93
2, 30449, Note_on_c, 0, 36, 86
2, 30450, Note_on_c, 0, 55, 90
2, 30453, Note_on_c, 0, 64, 103
2, 30456, Control_c, 0, 64, 127
2, 30485, Note_off_c, 0, 36, 64
2, 30485, Note_off_c, 0, 48, 64
2, 30485, Note_off_c, 0, 60, 64
2, 30486, Note_off_c, 0, 55, 64
2, 30489, Note_off_c, 0, 64, 64
2, 30534, Note_on_c, 0, 67, 107
2, 30534, Note_on_c, 0, 36, 96
2, 30536, Note_on_c, 0, 64, 103
2, 30538, Note_on_c, 0, 48, 100
2, 30540, Note_on_c, 0, 55, 93
2, 30573, Control_c, 0, 64, 0
2, 30581, Control_c, 0, 64, 0
2, 30625, Control_c, 0, 64, 127
2, 30633, Control_c, 0, 64, 127
2, 30653, Note_off_c, 0, 36, 64
2, 30653, Note_off_c, 0, 67, 64
2, 30655, Note_off_c, 0, 64, 64
2, 30657, Note_off_c, 0, 48, 64
2, 30659, Note_off_c, 0, 55, 64
2, 30742, Control_c, 0, 64, 0
2, 30750, Control_c, 0, 64, 0
2, 30767, Note_on_c, 0, 71, 78
2, 30806, Control_c, 0, 64, 127
2, 30814, Control_c, 0, 64, 127
2, 30834, Note_on_c, 0, 72, 78
2, 30857, Note_off_c, 0, 71, 64
2, 30918, Note_on_c, 0, 74, 87
2, 30922, Note_on_c, 0, 57, 41
2, 30925, Note_on_c, 0, 62, 41
2, 30926, Note_on_c, 0, 54, 46
2, 30927, Note_on_c, 0, 60, 38
2, 30936, Note_off_c, 0, 72, 64
2, 30976, Note_off_c, 0, 74, 64
2, 30987, Note_off_c, 0, 60, 64
2, 30991, Note_off_c, 0, 57, 64
2, 30994, Note_off_c, 0, 62, 64
2, 30995, Note_on_c, 0, 74, 86
2, 30996, Note_off_c, 0, 54, 64
2, 31047, Note_off_c, 0, 74, 64
2, 31054, Control_c, 0, 64, 0
2, 31061, Note_on_c, 0, 76, 78
2, 31062, Control_c, 0, 64, 0
2, 31064, Note_on_c, 0, 62, 52
2, 31070, Note_on_c, 0, 74, 97
2, 31074, Note_on_c, 0, 59, 46
2, 31078, Note_on_c, 0, 55, 41
2, 31084, Note_on_c, 0, 53, 45
2, 31093, Note_off_c, 0, 76, 64
2, 31102, Control_c, 0, 64, 127
2, 31110, Control_c, 0, 64, 127
2, 31129, Note_off_c, 0, 53, 64
2, 31131, Note_off_c, 0, 55, 64
2, 31132, Note_off_c, 0, 59, 64
2, 31145, Note_off_c, 0, 74, 64
2, 31145, Note_off_c, 0, 62, 64
2, 31212, Control_c, 0, 64, 0
2, 31220, Control_c, 0, 64, 0
2, 31227, Note_on_c, 0, 62, 52
2, 31230, Note_on_c, 0, 59, 47
2, 31230, Note_on_c, 0, 55, 41
2, 31233, Note_on_c, 0, 67, 78
2, 31233, Note_on_c, 0, 53, 52
2, 31251, Control_c, 0, 64, 127
2, 31259, Control_c, 0, 64, 127
2, 31272, Note_off_c, 0, 62, 64
2, 31274, Note_off_c, 0, 53, 64
2, 31274, Note_off_c, 0, 55, 64
2, 31275, Note_off_c, 0, 59, 64
2, 31297, Note_on_c, 0, 71, 72
2, 31328, Note_off_c, 0, 67, 64
2, 31374, Control_c, 0, 64, 0
2, 31378, Note_on_c, 0, 64, 41
2, 31378, Note_on_c, 0, 52, 34
2, 31381, Note_on_c, 0, 72, 97
2, 31381, Note_on_c, 0, 60, 47
2, 31382, Control_c, 0, 64, 0
2, 31392, Note_off_c, 0, 71, 64
2, 31404, Control_c, 0, 64, 127
2, 31412, Control_c, 0, 64, 127
2, 31447, Note_off_c, 0, 64, 64
2, 31457, Note_on_c, 0, 74, 79
2, 31467, Note_off_c, 0, 60, 64
2, 31477, Note_off_c, 0, 52, 64
2, 31478, Note_off_c, 0, 72, 64
2, 31515, Control_c, 0, 64, 0
2, 31523, Control_c, 0, 64, 0
2, 31526, Note_on_c, 0, 76, 96
2, 31535, Note_on_c, 0, 64, 55
2, 31538, Note_on_c, 0, 48, 56
2, 31541, Note_on_c, 0, 55, 50
2, 31549, Note_off_c, 0, 74, 64
2, 31555, Control_c, 0, 64, 127
2, 31563, Control_c, 0, 64, 127
2, 31587, Note_off_c, 0, 64, 64
2, 31603, Note_off_c, 0, 55, 64
2, 31606, Note_on_c, 0, 77, 92
2, 31614, Note_off_c, 0, 76, 64
2, 31624, Note_off_c, 0, 48, 64
2, 31686, Note_on_c, 0, 79, 96
2, 31695, Note_off_c, 0, 77, 64
2, 31747, Note_on_c, 0, 80, 97
2, 31771, Note_off_c, 0, 79, 64
2, 31806, Control_c, 0, 64, 0
2, 31814, Control_c, 0, 64, 0
2, 31819, Note_on_c, 0, 43, 87
2, 31827, Note_on_c, 0, 81, 109
2, 31835, Note_off_c, 0, 80, 64
2, 31856, Control_c, 0, 64, 127
2, 31864, Control_c, 0, 64, 127
2, 31878, Note_off_c, 0, 81, 64
2, 31895, Note_on_c, 0, 81, 85
2, 31946, Note_off_c, 0, 81, 64
2, 31955, Control_c, 0, 64, 0
2, 31963, Control_c, 0, 64, 0
2, 31963, Note_on_c, 0, 83, 97
2, 31982, Note_on_c, 0, 55, 63
2, 31982, Note_on_c, 0, 59, 52
2, 31986, Note_on_c, 0, 65, 52
2, 31987, Note_on_c, 0, 81, 109
2, 32003, Control_c, 0, 64, 127
2, 32011, Control_c, 0, 64, 127
2, 32014, Note_off_c, 0, 83, 64
2, 32028, Note_off_c, 0, 55, 64
2, 32029, Note_off_c, 0, 59, 64
2, 32030, Note_off_c, 0, 65, 64
2, 32105, Note_off_c, 0, 43, 64
2, 32118, Note_on_c, 0, 65, 46
2, 32122, Note_on_c, 0, 79, 96
2, 32122, Note_on_c, 0, 59, 46
2, 32127, Note_on_c, 0, 55, 50
2, 32136, Note_off_c, 0, 81, 64
2, 32160, Note_off_c, 0, 65, 64
2, 32164, Note_off_c, 0, 59, 64
2, 32169, Note_off_c, 0, 55, 64
2, 32192, Note_on_c, 0, 74, 81
2, 32208, Note_off_c, 0, 79, 64
2, 32268, Note_on_c, 0, 48, 63
2, 32274, Note_on_c, 0, 77, 108
2, 32284, Control_c, 0, 64, 0
2, 32292, Control_c, 0, 64, 0
2, 32294, Note_off_c, 0, 74, 64
2, 32310, Note_off_c, 0, 77, 64
2, 32317, Control_c, 0, 64, 127
2, 32325, Control_c, 0, 64, 127
2, 32343, Note_on_c, 0, 77, 87
2, 32380, Note_off_c, 0, 77, 64
2, 32410, Note_on_c, 0, 79, 95
2, 32419, Note_on_c, 0, 65, 61
2, 32422, Note_on_c, 0, 57, 50
2, 32426, Note_on_c, 0, 77, 100
2, 32428, Control_c, 0, 64, 0
2, 32436, Control_c, 0, 64, 0
2, 32452, Control_c, 0, 64, 127
2, 32460, Control_c, 0, 64, 127
2, 32471, Note_off_c, 0, 79, 64
2, 32568, Note_on_c, 0, 55, 50
2, 32574, Control_c, 0, 64, 0
2, 32580, Note_on_c, 0, 76, 83
2, 32580, Note_on_c, 0, 64, 52
2, 32582, Control_c, 0, 64, 0
2, 32590, Control_c, 0, 64, 127
2, 32595, Note_off_c, 0, 65, 64
2, 32598, Note_off_c, 0, 57, 64
2, 32598, Control_c, 0, 64, 127
2, 32602, Note_off_c, 0, 77, 64
2, 32615, Note_off_c, 0, 55, 64
2, 32621, Note_off_c, 0, 64, 64
2, 32624, Note_off_c, 0, 76, 64
2, 32626, Note_off_c, 0, 48, 64
2, 32710, Note_on_c, 0, 69, 63
2, 32726, Note_on_c, 0, 62, 45
2, 32726, Note_on_c, 0, 57, 46
2, 32726, Note_on_c, 0, 54, 54
2, 32730, Note_on_c, 0, 60, 52
2, 32732, Note_on_c, 0, 74, 69
2, 32734, Control_c, 0, 64, 0
2, 32742, Control_c, 0, 64, 0
2, 32747, Note_off_c, 0, 69, 64
2, 32774, Control_c, 0, 64, 127
2, 32781, Note_off_c, 0, 74, 64
2, 32782, Control_c, 0, 64, 127
2, 32794, Note_off_c, 0, 54, 64
2, 32796, Note_off_c, 0, 60, 64
2, 32796, Note_off_c, 0, 57, 64
2, 32802, Note_off_c, 0, 62, 64
2, 32809, Note_on_c, 0, 74, 87
2, 32847, Note_off_c, 0, 74, 64
2, 32875, Control_c, 0, 64, 0
2, 32882, Note_on_c, 0, 76, 83
2, 32883, Control_c, 0, 64, 0
2, 32894, Note_on_c, 0, 62, 63
2, 32894, Note_on_c, 0, 55, 61
2, 32898, Note_on_c, 0, 59, 52
2, 32898, Note_on_c, 0, 53, 61
2, 32899, Note_on_c, 0, 74, 96
2, 32914, Control_c, 0, 64, 127
2, 32922, Control_c, 0, 64, 127
2, 32932, Note_off_c, 0, 76, 64
2, 32959, Note_off_c, 0, 59, 64
2, 32961, Note_off_c, 0, 55, 64
2, 32966, Note_off_c, 0, 62, 64
2, 32968, Note_off_c, 0, 53, 64
2, 33025, Control_c, 0, 64, 0
2, 33033, Control_c, 0, 64, 0
2, 33035, Note_on_c, 0, 53, 52
2, 33038, Note_on_c, 0, 62, 52
2, 33040, Note_on_c, 0, 55, 46
2, 33046, Note_off_c, 0, 74, 64
2, 33047, Note_on_c, 0, 67, 85
2, 33047, Note_on_c, 0, 59, 52
2, 33060, Control_c, 0, 64, 127
2, 33068, Control_c, 0, 64, 127
2, 33080, Note_off_c, 0, 59, 64
2, 33080, Note_off_c, 0, 62, 64
2, 33080, Note_off_c, 0, 53, 64
2, 33086, Note_off_c, 0, 55, 64
2, 33110, Note_on_c, 0, 71, 72
2, 33131, Note_off_c, 0, 67, 64
2, 33187, Control_c, 0, 64, 0
2, 33194, Note_on_c, 0, 72, 86
2, 33195, Control_c, 0, 64, 0
2, 33198, Note_on_c, 0, 60, 46
2, 33198, Note_on_c, 0, 55, 46
2, 33198, Note_on_c, 0, 52, 52
2, 33204, Note_off_c, 0, 71, 64
2, 33225, Control_c, 0, 64, 127
2, 33233, Control_c, 0, 64, 127
2, 33276, Note_on_c, 0, 74, 61
2, 33281, Note_off_c, 0, 60, 64
2, 33301, Note_off_c, 0, 72, 64
2, 33314, Note_off_c, 0, 52, 64
2, 33321, Note_off_c, 0, 55, 64
2, 33329, Control_c, 0, 64, 0
2, 33337, Control_c, 0, 64, 0
2, 33339, Note_on_c, 0, 64, 52
2, 33341, Note_on_c, 0, 76, 86
2, 33345, Note_on_c, 0, 55, 40
2, 33348, Note_on_c, 0, 48, 52
2, 33362, Note_off_c, 0, 74, 64
2, 33372, Control_c, 0, 64, 127
2, 33380, Control_c, 0, 64, 127
2, 33416, Note_on_c, 0, 77, 86
2, 33439, Note_off_c, 0, 76, 64
2, 33440, Note_off_c, 0, 64, 64
2, 33459, Note_off_c, 0, 55, 64
2, 33466, Control_c, 0, 64, 0
2, 33474, Control_c, 0, 64, 0
2, 33475, Note_off_c, 0, 48, 64
2, 33498, Note_on_c, 0, 79, 83
2, 33512, Control_c, 0, 64, 127
2, 33520, Control_c, 0, 64, 127
2, 33535, Note_off_c, 0, 77, 64
2, 33542, Control_c, 0, 64, 0
2, 33550, Control_c, 0, 64, 0
2, 33564, Note_on_c, 0, 84, 78
2, 33581, Control_c, 0, 64, 127
2, 33587, Note_off_c, 0, 79, 64
2, 33589, Control_c, 0, 64, 127
2, 33639, Note_on_c, 0, 83, 86
2, 33640, Control_c, 0, 64, 0
2, 33648, Control_c, 0, 64, 0
2, 33652, Note_on_c, 0, 43, 76
2, 33669, Note_off_c, 0, 84, 64
2, 33670, Control_c, 0, 64, 127
2, 33678, Control_c, 0, 64, 127
2, 33717, Note_on_c, 0, 81, 78
2, 33724, Note_off_c, 0, 83, 64
2, 33747, Note_on_c, 0, 83, 78
2, 33770, Note_off_c, 0, 81, 64
2, 33777, Note_on_c, 0, 81, 86
2, 33790, Note_on_c, 0, 55, 54
2, 33795, Note_on_c, 0, 62, 23
2, 33799, Note_on_c, 0, 65, 36
2, 33800, Note_off_c, 0, 83, 64
2, 33800, Control_c, 0, 64, 0
2, 33808, Control_c, 0, 64, 0
2, 33814, Note_on_c, 0, 77, 86
2, 33836, Control_c, 0, 64, 127
2, 33840, Note_off_c, 0, 81, 64
2, 33844, Control_c, 0, 64, 127
2, 33848, Note_off_c, 0, 55, 64
2, 33853, Note_off_c, 0, 62, 64
2, 33869, Note_off_c, 0, 65, 64
2, 33875, Note_on_c, 0, 74, 91
2, 33898, Note_off_c, 0, 77, 64
2, 33932, Note_off_c, 0, 43, 64
2, 33944, Note_on_c, 0, 71, 91
2, 33949, Note_on_c, 0, 55, 52
2, 33950, Note_off_c, 0, 74, 64
2, 33953, Note_on_c, 0, 65, 50
2, 33953, Note_on_c, 0, 62, 47
2, 33985, Note_off_c, 0, 62, 64
2, 33990, Note_off_c, 0, 65, 64
2, 33992, Note_off_c, 0, 55, 64
2, 34013, Note_on_c, 0, 67, 72
2, 34026, Note_off_c, 0, 71, 64
2, 34094, Note_on_c, 0, 48, 68
2, 34094, Control_c, 0, 64, 0
2, 34098, Note_on_c, 0, 64, 68
2, 34102, Control_c, 0, 64, 0
2, 34104, Note_on_c, 0, 72, 78
2, 34131, Note_off_c, 0, 67, 64
2, 34133, Control_c, 0, 64, 127
2, 34141, Control_c, 0, 64, 127
2, 34164, Note_on_c, 0, 74, 63
2, 34186, Note_off_c, 0, 72, 64
2, 34190, Note_on_c, 0, 67, 78
2, 34204, Note_off_c, 0, 64, 64
2, 34205, Note_off_c, 0, 48, 64
2, 34214, Note_on_c, 0, 76, 69
2, 34234, Note_off_c, 0, 74, 64
2, 34246, Control_c, 0, 64, 0
2, 34250, Note_on_c, 0, 60, 41
2, 34250, Note_on_c, 0, 48, 68
2, 34252, Note_on_c, 0, 72, 87
2, 34254, Control_c, 0, 64, 0
2, 34254, Note_on_c, 0, 64, 68
2, 34254, Note_on_c, 0, 55, 16
2, 34270, Note_off_c, 0, 67, 64
2, 34275, Note_off_c, 0, 76, 64
2, 34296, Control_c, 0, 64, 127
2, 34304, Control_c, 0, 64, 127
2, 34395, Note_off_c, 0, 48, 64
2, 34395, Note_off_c, 0, 60, 64
2, 34397, Note_off_c, 0, 72, 64
2, 34399, Note_off_c, 0, 55, 64
2, 34399, Note_off_c, 0, 64, 64
2, 34402, Note_on_c, 0, 71, 90
2, 34486, Note_on_c, 0, 72, 90
2, 34490, Note_off_c, 0, 71, 64
2, 34545, Control_c, 0, 64, 0
2, 34553, Control_c, 0, 64, 0
2, 34566, Note_on_c, 0, 50, 82
2, 34570, Note_on_c, 0, 57, 85
2, 34572, Note_on_c, 0, 74, 90
2, 34574, Note_on_c, 0, 60, 90
2, 34575, Note_on_c, 0, 66, 102
2, 34575, Note_on_c, 0, 62, 87
2, 34584, Note_off_c, 0, 72, 64
2, 34594, Note_off_c, 0, 62, 64
2, 34599, Note_off_c, 0, 66, 64
2, 34603, Note_off_c, 0, 50, 64
2, 34605, Note_off_c, 0, 60, 64
2, 34608, Note_off_c, 0, 74, 64
2, 34611, Note_off_c, 0, 57, 64
2, 34678, Note_on_c, 0, 66, 74
2, 34678, Note_on_c, 0, 50, 90
2, 34682, Note_on_c, 0, 62, 72
2, 34682, Note_on_c, 0, 60, 70
2, 34683, Note_on_c, 0, 57, 85
2, 34686, Note_on_c, 0, 74, 90
2, 34729, Note_on_c, 0, 67, 92
2, 34730, Note_on_c, 0, 59, 90
2, 34730, Note_on_c, 0, 55, 90
2, 34732, Note_on_c, 0, 71, 98
2, 34733, Note_off_c, 0, 66, 64
2, 34737, Note_off_c, 0, 60, 64
2, 34737, Note_off_c, 0, 62, 64
2, 34738, Note_off_c, 0, 57, 64
2, 34740, Note_off_c, 0, 50, 64
2, 34748, Note_off_c, 0, 74, 64
2, 34776, Control_c, 0, 64, 127
2, 34784, Control_c, 0, 64, 127
2, 34801, Note_off_c, 0, 67, 64
2, 34802, Note_off_c, 0, 55, 64
2, 34802, Note_off_c, 0, 59, 64
2, 34804, Note_off_c, 0, 71, 64
2, 34859, Control_c, 0, 64, 0
2, 34867, Control_c, 0, 64, 0
2, 34882, Note_on_c, 0, 67, 90
2, 34882, Note_on_c, 0, 43, 87
2, 34882, Note_on_c, 0, 31, 88
2, 34890, Note_on_c, 0, 79, 91
2, 34890, Note_on_c, 0, 74, 77
2, 34890, Note_on_c, 0, 71, 91
2, 34905, Control_c, 0, 64, 127
2, 34913, Control_c, 0, 64, 127
2, 34938, Control_c, 0, 64, 0
2, 34946, Control_c, 0, 64, 0
2, 34977, Control_c, 0, 64, 127
2, 34985, Control_c, 0, 64, 127
2, 35010, Note_off_c, 0, 31, 64
2, 35010, Note_off_c, 0, 43, 64
2, 35010, Note_off_c, 0, 67, 64
2, 35018, Note_off_c, 0, 71, 64
2, 35018, Note_off_c, 0, 74, 64
2, 35018, Note_off_c, 0, 79, 64
2, 35036, Control_c, 0, 64, 0
2, 35042, Note_on_c, 0, 69, 74
2, 35042, Note_on_c, 0, 62, 90
2, 35044, Control_c, 0, 64, 0
2, 35044, Note_on_c, 0, 66, 92
2, 35044, Note_on_c, 0, 57, 90
2, 35046, Note_on_c, 0, 74, 93
2, 35046, Note_on_c, 0, 60, 90
2, 35046, Note_on_c, 0, 50, 82
2, 35062, Control_c, 0, 64, 127
2, 35069, Note_off_c, 0, 66, 64
2, 35070, Control_c, 0, 64, 127
2, 35075, Note_off_c, 0, 62, 64
2, 35079, Note_off_c, 0, 50, 64
2, 35079, Note_off_c, 0, 57, 64
2, 35084, Note_off_c, 0, 74, 64
2, 35088, Note_off_c, 0, 60, 64
2, 35100, Note_off_c, 0, 69, 64
2, 35146, Note_on_c, 0, 66, 74
2, 35150, Note_on_c, 0, 69, 74
2, 35154, Note_on_c, 0, 62, 82
2, 35154, Note_on_c, 0, 50, 66
2, 35158, Note_on_c, 0, 74, 85
2, 35158, Note_on_c, 0, 60, 93
2, 35158, Note_on_c, 0, 57, 72
2, 35182, Control_c, 0, 64, 0
2, 35190, Control_c, 0, 64, 0
2, 35208, Note_off_c, 0, 66, 64
2, 35210, Note_on_c, 0, 55, 102
2, 35211, Note_off_c, 0, 69, 64
2, 35212, Note_off_c, 0, 50, 64
2, 35214, Note_on_c, 0, 67, 102
2, 35214, Note_on_c, 0, 59, 102
2, 35218, Control_c, 0, 64, 127
2, 35224, Note_off_c, 0, 74, 64
2, 35225, Note_off_c, 0, 57, 64
2, 35225, Note_off_c, 0, 60, 64
2, 35226, Control_c, 0, 64, 127
2, 35230, Note_off_c, 0, 62, 64
2, 35250, Control_c, 0, 64, 0
2, 35258, Control_c, 0, 64, 0
2, 35282, Note_off_c, 0, 55, 64
2, 35286, Note_off_c, 0, 59, 64
2, 35286, Note_off_c, 0, 67, 64
2, 35289, Control_c, 0, 64, 127
2, 35297, Control_c, 0, 64, 127
2, 35348, Note_on_c, 0, 43, 98
2, 35348, Control_c, 0, 64, 0
2, 35354, Note_on_c, 0, 31, 90
2, 35356, Control_c, 0, 64, 0
2, 35358, Note_on_c, 0, 71, 93
2, 35358, Note_on_c, 0, 67, 101
2, 35358, Note_on_c, 0, 62, 97
2, 35398, Note_off_c, 0, 67, 64
2, 35406, Note_off_c, 0, 62, 64
2, 35406, Control_c, 0, 64, 127
2, 35414, Control_c, 0, 64, 127
2, 35422, Note_on_c, 0, 69, 37
2, 35425, Note_on_c, 0, 72, 97
2, 35458, Note_off_c, 0, 71, 64
2, 35476, Note_off_c, 0, 43, 64
2, 35482, Note_off_c, 0, 31, 64
2, 35499, Control_c, 0, 64, 0
2, 35507, Control_c, 0, 64, 0
2, 35518, Note_on_c, 0, 74, 90
2, 35518, Note_on_c, 0, 62, 90
2, 35518, Note_on_c, 0, 60, 90
2, 35518, Note_on_c, 0, 57, 90
2, 35518, Note_on_c, 0, 50, 85
2, 35524, Note_off_c, 0, 69, 64
2, 35525, Note_on_c, 0, 66, 98
2, 35527, Note_off_c, 0, 72, 64
2, 35537, Control_c, 0, 64, 127
2, 35545, Control_c, 0, 64, 127
2, 35547, Note_off_c, 0, 62, 64
2, 35548, Note_off_c, 0, 57, 64
2, 35553, Note_off_c, 0, 66, 64
2, 35555, Note_off_c, 0, 50, 64
2, 35555, Note_off_c, 0, 60, 64
2, 35561, Note_off_c, 0, 74, 64
2, 35630, Note_on_c, 0, 62, 85
2, 35634, Note_on_c, 0, 66, 72
2, 35634, Note_on_c, 0, 60, 66
2, 35634, Note_on_c, 0, 50, 68
2, 35638, Note_on_c, 0, 74, 92
2, 35638, Note_on_c, 0, 57, 72
2, 35647, Control_c, 0, 64, 0
2, 35655, Control_c, 0, 64, 0
2, 35678, Note_on_c, 0, 55, 82
2, 35679, Note_off_c, 0, 62, 64
2, 35682, Note_on_c, 0, 67, 91
2, 35682, Note_on_c, 0, 59, 83
2, 35683, Note_off_c, 0, 50, 64
2, 35683, Note_off_c, 0, 60, 64
2, 35683, Note_off_c, 0, 66, 64
2, 35684, Note_on_c, 0, 71, 91
2, 35687, Note_off_c, 0, 57, 64
2, 35687, Note_off_c, 0, 74, 64
2, 35708, Control_c, 0, 64, 127
2, 35716, Control_c, 0, 64, 127
2, 35750, Note_off_c, 0, 55, 64
2, 35754, Note_off_c, 0, 59, 64
2, 35754, Note_off_c, 0, 67, 64
2, 35756, Note_off_c, 0, 71, 64
2, 35836, Control_c, 0, 64, 0
2, 35842, Note_on_c, 0, 74, 90
2, 35844, Control_c, 0, 64, 0
2, 35845, Note_on_c, 0, 71, 91
2, 35845, Note_on_c, 0, 67, 91
2, 35845, Note_on_c, 0, 43, 90
2, 35845, Note_on_c, 0, 31, 88
2, 35846, Note_on_c, 0, 79, 91
2, 35878, Control_c, 0, 64, 127
2, 35886, Control_c, 0, 64, 127
2, 35970, Note_off_c, 0, 74, 64
2, 35973, Note_off_c, 0, 31, 64
2, 35973, Note_off_c, 0, 43, 64
2, 35973, Note_off_c, 0, 67, 64
2, 35973, Note_off_c, 0, 71, 64
2, 35974, Note_off_c, 0, 79, 64
2, 35992, Control_c, 0, 64, 0
2, 36000, Control_c, 0, 64, 0
2, 36002, Note_on_c, 0, 74, 102
2, 36002, Note_on_c, 0, 66, 98
2, 36002, Note_on_c, 0, 62, 90
2, 36009, Note_on_c, 0, 60, 90
2, 36013, Note_on_c, 0, 57, 90
2, 36013, Note_on_c, 0, 50, 93
2, 36031, Control_c, 0, 64, 127
2, 36034, Note_off_c, 0, 62, 64
2, 36038, Note_off_c, 0, 57, 64
2, 36039, Control_c, 0, 64, 127
2, 36041, Note_off_c, 0, 66, 64
2, 36046, Note_off_c, 0, 50, 64
2, 36046, Note_off_c, 0, 60, 64
2, 36053, Note_off_c, 0, 74, 64
2, 36106, Note_on_c, 0, 50, 56
2, 36110, Note_on_c, 0, 66, 74
2, 36110, Note_on_c, 0, 57, 74
2, 36114, Note_on_c, 0, 74, 78
2, 36114, Note_on_c, 0, 62, 70
2, 36114, Note_on_c, 0, 60, 74
2, 36157, Control_c, 0, 64, 0
2, 36164, Note_off_c, 0, 74, 64
2, 36165, Control_c, 0, 64, 0
2, 36170, Note_on_c, 0, 74, 74
2, 36172, Note_off_c, 0, 57, 64
2, 36172, Note_off_c, 0, 66, 64
2, 36172, Note_on_c, 0, 71, 98
2, 36174, Note_on_c, 0, 55, 87
2, 36175, Note_on_c, 0, 59, 93
2, 36175, Note_on_c, 0, 67, 102
2, 36176, Note_off_c, 0, 60, 64
2, 36176, Note_off_c, 0, 62, 64
2, 36183, Note_off_c, 0, 50, 64
2, 36198, Control_c, 0, 64, 127
2, 36206, Control_c, 0, 64, 127
2, 36226, Control_c, 0, 64, 0
2, 36234, Control_c, 0, 64, 0
2, 36325, Control_c, 0, 64, 127
2, 36326, Note_off_c, 0, 67, 64
2, 36326, Note_off_c, 0, 59, 64
2, 36326, Note_off_c, 0, 55, 64
2, 36327, Note_off_c, 0, 71, 64
2, 36328, Note_off_c, 0, 74, 64
2, 36333, Control_c, 0, 64, 127
2, 36379, Note_on_c, 0, 76, 81
2, 36394, Note_on_c, 0, 54, 50
2, 36398, Note_on_c, 0, 69, 75
2, 36398, Note_on_c, 0, 62, 46
2, 36398, Note_on_c, 0, 60, 35
2, 36407, Note_on_c, 0, 74, 87
2, 36416, Control_c, 0, 64, 0
2, 36418, Note_off_c, 0, 76, 64
2, 36424, Control_c, 0, 64, 0
2, 36448, Control_c, 0, 64, 127
2, 36456, Control_c, 0, 64, 127
2, 36468, Note_off_c, 0, 54, 64
2, 36477, Note_off_c, 0, 60, 64
2, 36484, Note_on_c, 0, 73, 90
2, 36485, Note_off_c, 0, 62, 64
2, 36502, Note_off_c, 0, 74, 64
2, 36559, Note_on_c, 0, 68, 66
2, 36563, Note_on_c, 0, 62, 53
2, 36563, Control_c, 0, 64, 0
2, 36566, Note_on_c, 0, 53, 51
2, 36571, Note_off_c, 0, 69, 64
2, 36571, Control_c, 0, 64, 0
2, 36572, Note_on_c, 0, 59, 47
2, 36575, Note_on_c, 0, 76, 88
2, 36585, Control_c, 0, 64, 127
2, 36593, Control_c, 0, 64, 127
2, 36594, Note_off_c, 0, 73, 64
2, 36616, Note_off_c, 0, 59, 64
2, 36620, Note_off_c, 0, 53, 64
2, 36621, Note_off_c, 0, 62, 64
2, 36634, Note_on_c, 0, 74, 89
2, 36657, Note_off_c, 0, 76, 64
2, 36711, Control_c, 0, 64, 0
2, 36718, Note_on_c, 0, 53, 51
2, 36718, Note_on_c, 0, 67, 79
2, 36719, Control_c, 0, 64, 0
2, 36724, Note_on_c, 0, 59, 46
2, 36726, Note_on_c, 0, 62, 46
2, 36732, Note_off_c, 0, 68, 64
2, 36746, Note_off_c, 0, 74, 64
2, 36769, Control_c, 0, 64, 127
2, 36777, Control_c, 0, 64, 127
2, 36792, Note_off_c, 0, 53, 64
2, 36799, Note_off_c, 0, 59, 64
2, 36809, Note_off_c, 0, 62, 64
2, 36876, Note_on_c, 0, 69, 90
2, 36878, Control_c, 0, 64, 0
2, 36886, Control_c, 0, 64, 0
2, 36886, Note_on_c, 0, 59, 47
2, 36888, Note_on_c, 0, 62, 53
2, 36888, Note_on_c, 0, 55, 51
2, 36888, Note_on_c, 0, 53, 51
2, 36905, Control_c, 0, 64, 127
2, 36910, Note_off_c, 0, 67, 64
2, 36913, Control_c, 0, 64, 127
2, 36921, Note_off_c, 0, 59, 64
2, 36928, Note_off_c, 0, 53, 64
2, 36928, Note_off_c, 0, 55, 64
2, 36930, Note_off_c, 0, 62, 64
2, 36950, Note_on_c, 0, 71, 82
2, 36980, Note_off_c, 0, 69, 64
2, 37027, Note_on_c, 0, 60, 41
2, 37030, Note_on_c, 0, 72, 93
2, 37031, Note_on_c, 0, 52, 51
2, 37034, Note_on_c, 0, 55, 53
2, 37047, Note_off_c, 0, 71, 64
2, 37047, Control_c, 0, 64, 0
2, 37055, Control_c, 0, 64, 0
2, 37088, Control_c, 0, 64, 127
2, 37096, Control_c, 0, 64, 127
2, 37112, Note_on_c, 0, 74, 90
2, 37132, Note_off_c, 0, 72, 64
2, 37162, Note_off_c, 0, 60, 64
2, 37167, Note_off_c, 0, 55, 64
2, 37169, Note_off_c, 0, 52, 64
2, 37179, Control_c, 0, 64, 0
2, 37186, Note_on_c, 0, 76, 100
2, 37187, Control_c, 0, 64, 0
2, 37188, Note_on_c, 0, 64, 51
2, 37192, Note_on_c, 0, 48, 43
2, 37196, Note_on_c, 0, 55, 51
2, 37208, Note_off_c, 0, 74, 64
2, 37233, Control_c, 0, 64, 127
2, 37241, Control_c, 0, 64, 127
2, 37261, Note_on_c, 0, 77, 95
2, 37274, Note_off_c, 0, 64, 64
2, 37278, Note_off_c, 0, 76, 64
2, 37290, Note_off_c, 0, 55, 64
2, 37307, Note_off_c, 0, 48, 64
2, 37341, Note_on_c, 0, 79, 99
2, 37342, Control_c, 0, 64, 0
2, 37346, Note_off_c, 0, 77, 64
2, 37350, Control_c, 0, 64, 0
2, 37381, Control_c, 0, 64, 127
2, 37389, Control_c, 0, 64, 127
2, 37412, Note_on_c, 0, 80, 96
2, 37436, Note_off_c, 0, 79, 64
2, 37472, Control_c, 0, 64, 0
2, 37480, Control_c, 0, 64, 0
2, 37482, Note_on_c, 0, 43, 95
2, 37491, Note_on_c, 0, 81, 97
2, 37512, Note_off_c, 0, 80, 64
2, 37521, Control_c, 0, 64, 127
2, 37528, Note_off_c, 0, 81, 64
2, 37529, Control_c, 0, 64, 127
2, 37558, Note_on_c, 0, 81, 87
2, 37597, Note_off_c, 0, 81, 64
2, 37626, Note_on_c, 0, 83, 92
2, 37626, Note_on_c, 0, 55, 63
2, 37631, Note_on_c, 0, 59, 38
2, 37636, Control_c, 0, 64, 0
2, 37639, Note_on_c, 0, 65, 47
2, 37644, Control_c, 0, 64, 0
2, 37649, Note_on_c, 0, 81, 103
2, 37678, Note_off_c, 0, 83, 64
2, 37685, Control_c, 0, 64, 127
2, 37692, Note_off_c, 0, 59, 64
2, 37693, Control_c, 0, 64, 127
2, 37698, Note_off_c, 0, 55, 64
2, 37722, Note_off_c, 0, 65, 64
2, 37766, Note_off_c, 0, 43, 64
2, 37786, Note_on_c, 0, 59, 46
2, 37787, Note_on_c, 0, 79, 102
2, 37787, Note_on_c, 0, 55, 50
2, 37792, Note_on_c, 0, 65, 47
2, 37812, Note_off_c, 0, 81, 64
2, 37840, Note_off_c, 0, 65, 64
2, 37844, Note_off_c, 0, 59, 64
2, 37845, Note_off_c, 0, 55, 64
2, 37860, Note_on_c, 0, 74, 82
2, 37879, Note_off_c, 0, 79, 64
2, 37930, Note_on_c, 0, 48, 65
2, 37939, Note_on_c, 0, 77, 100
2, 37942, Note_off_c, 0, 74, 64
2, 37950, Control_c, 0, 64, 0
2, 37958, Control_c, 0, 64, 0
2, 37979, Note_off_c, 0, 77, 64
2, 37986, Control_c, 0, 64, 127
2, 37994, Control_c, 0, 64, 127
2, 38012, Note_on_c, 0, 77, 93
2, 38052, Note_off_c, 0, 77, 64
2, 38084, Note_on_c, 0, 79, 95
2, 38088, Note_on_c, 0, 57, 63
2, 38092, Note_on_c, 0, 65, 62
2, 38101, Note_on_c, 0, 77, 91
2, 38101, Control_c, 0, 64, 0
2, 38109, Control_c, 0, 64, 0
2, 38135, Note_off_c, 0, 79, 64
2, 38137, Control_c, 0, 64, 127
2, 38145, Control_c, 0, 64, 127
2, 38246, Note_on_c, 0, 64, 31
2, 38246, Note_on_c, 0, 55, 53
2, 38249, Note_off_c, 0, 48, 64
2, 38251, Note_on_c, 0, 76, 85
2, 38259, Note_off_c, 0, 57, 64
2, 38263, Note_off_c, 0, 65, 64
2, 38266, Note_off_c, 0, 77, 64
2, 38288, Note_off_c, 0, 64, 64
2, 38291, Note_off_c, 0, 76, 64
2, 38291, Note_off_c, 0, 55, 64
2, 38372, Note_on_c, 0, 69, 45
2, 38398, Note_on_c, 0, 62, 40
2, 38398, Note_on_c, 0, 57, 53
2, 38399, Note_on_c, 0, 74, 81
2, 38402, Note_on_c, 0, 54, 47
2, 38409, Note_off_c, 0, 69, 64
2, 38412, Control_c, 0, 64, 0
2, 38420, Control_c, 0, 64, 0
2, 38441, Note_off_c, 0, 74, 64
2, 38449, Control_c, 0, 64, 127
2, 38453, Note_off_c, 0, 57, 64
2, 38457, Control_c, 0, 64, 127
2, 38464, Note_off_c, 0, 54, 64
2, 38472, Note_off_c, 0, 62, 64
2, 38481, Note_on_c, 0, 74, 90
2, 38517, Note_off_c, 0, 74, 64
2, 38554, Note_on_c, 0, 76, 83
2, 38554, Note_on_c, 0, 62, 57
2, 38554, Note_on_c, 0, 55, 56
2, 38560, Note_on_c, 0, 59, 45
2, 38560, Note_on_c, 0, 53, 56
2, 38570, Note_on_c, 0, 74, 100
2, 38570, Control_c, 0, 64, 0
2, 38578, Control_c, 0, 64, 0
2, 38602, Note_off_c, 0, 76, 64
2, 38605, Control_c, 0, 64, 127
2, 38609, Note_off_c, 0, 53, 64
2, 38613, Control_c, 0, 64, 127
2, 38615, Note_off_c, 0, 59, 64
2, 38616, Note_off_c, 0, 55, 64
2, 38619, Note_off_c, 0, 62, 64
2, 38704, Control_c, 0, 64, 0
2, 38711, Note_on_c, 0, 67, 90
2, 38712, Control_c, 0, 64, 0
2, 38713, Note_on_c, 0, 59, 50
2, 38716, Note_on_c, 0, 62, 50
2, 38716, Note_on_c, 0, 55, 47
2, 38722, Note_on_c, 0, 53, 47
2, 38727, Control_c, 0, 64, 127
2, 38732, Note_off_c, 0, 74, 64
2, 38735, Control_c, 0, 64, 127
2, 38746, Note_off_c, 0, 59, 64
2, 38756, Note_off_c, 0, 53, 64
2, 38756, Note_off_c, 0, 62, 64
2, 38758, Note_off_c, 0, 55, 64
2, 38785, Note_on_c, 0, 71, 88
2, 38811, Note_off_c, 0, 67, 64
2, 38863, Note_on_c, 0, 52, 51
2, 38863, Control_c, 0, 64, 0
2, 38866, Note_on_c, 0, 55, 53
2, 38867, Note_on_c, 0, 60, 56
2, 38869, Note_on_c, 0, 72, 88
2, 38871, Control_c, 0, 64, 0
2, 38887, Note_off_c, 0, 71, 64
2, 38912, Control_c, 0, 64, 127
2, 38920, Control_c, 0, 64, 127
2, 38947, Note_on_c, 0, 74, 72
2, 38972, Note_off_c, 0, 72, 64
2, 38980, Note_off_c, 0, 52, 64
2, 38983, Note_off_c, 0, 55, 64
2, 38984, Note_off_c, 0, 60, 64
2, 39017, Note_on_c, 0, 76, 90
2, 39024, Note_on_c, 0, 64, 53
2, 39024, Note_on_c, 0, 48, 51
2, 39024, Control_c, 0, 64, 0
2, 39032, Control_c, 0, 64, 0
2, 39035, Note_on_c, 0, 55, 46
2, 39040, Note_off_c, 0, 74, 64
2, 39058, Control_c, 0, 64, 127
2, 39066, Control_c, 0, 64, 127
2, 39099, Note_on_c, 0, 77, 81
2, 39102, Note_off_c, 0, 64, 64
2, 39107, Note_off_c, 0, 76, 64
2, 39118, Note_off_c, 0, 55, 64
2, 39135, Note_off_c, 0, 48, 64
2, 39178, Note_on_c, 0, 79, 83
2, 39194, Control_c, 0, 64, 0
2, 39202, Control_c, 0, 64, 0
2, 39206, Note_off_c, 0, 77, 64
2, 39233, Control_c, 0, 64, 127
2, 39241, Control_c, 0, 64, 127
2, 39255, Note_on_c, 0, 84, 87
2, 39273, Note_off_c, 0, 79, 64
2, 39328, Control_c, 0, 64, 0
2, 39336, Control_c, 0, 64, 0
2, 39338, Note_on_c, 0, 83, 75
2, 39342, Note_on_c, 0, 43, 74
2, 39356, Note_off_c, 0, 84, 64
2, 39364, Control_c, 0, 64, 127
2, 39372, Control_c, 0, 64, 127
2, 39420, Note_off_c, 0, 83, 64
2, 39426, Note_on_c, 0, 81, 74
2, 39454, Note_on_c, 0, 83, 72
2, 39472, Note_off_c, 0, 81, 64
2, 39475, Note_on_c, 0, 81, 83
2, 39495, Control_c, 0, 64, 0
2, 39502, Note_on_c, 0, 55, 38
2, 39502, Note_on_c, 0, 65, 48
2, 39503, Note_off_c, 0, 83, 64
2, 39503, Control_c, 0, 64, 0
2, 39506, Note_on_c, 0, 62, 43
2, 39507, Note_on_c, 0, 77, 83
2, 39524, Control_c, 0, 64, 127
2, 39530, Note_off_c, 0, 81, 64
2, 39532, Control_c, 0, 64, 127
2, 39558, Note_off_c, 0, 55, 64
2, 39571, Note_off_c, 0, 65, 64
2, 39574, Note_off_c, 0, 62, 64
2, 39578, Note_on_c, 0, 74, 70
2, 39583, Note_off_c, 0, 77, 64
2, 39622, Note_off_c, 0, 43, 64
2, 39642, Note_on_c, 0, 62, 49
2, 39643, Note_on_c, 0, 71, 86
2, 39645, Note_on_c, 0, 55, 53
2, 39646, Note_on_c, 0, 65, 49
2, 39674, Note_off_c, 0, 74, 64
2, 39685, Note_off_c, 0, 65, 64
2, 39688, Note_off_c, 0, 55, 64
2, 39690, Note_off_c, 0, 62, 64
2, 39728, Note_off_c, 0, 71, 64
2, 39744, Note_on_c, 0, 67, 85
2, 39812, Control_c, 0, 64, 0
2, 39814, Note_on_c, 0, 48, 63
2, 39814, Note_on_c, 0, 64, 70
2, 39816, Note_on_c, 0, 72, 73
2, 39820, Control_c, 0, 64, 0
2, 39848, Control_c, 0, 64, 127
2, 39854, Note_off_c, 0, 67, 64
2, 39856, Control_c, 0, 64, 127
2, 39884, Note_on_c, 0, 74, 46
2, 39906, Note_on_c, 0, 67, 66
2, 39922, Note_off_c, 0, 72, 64
2, 39933, Note_off_c, 0, 64, 64
2, 39933, Note_off_c, 0, 48, 64
2, 39938, Note_on_c, 0, 76, 69
2, 39960, Note_off_c, 0, 74, 64
2, 39976, Note_off_c, 0, 67, 64
2, 39986, Note_on_c, 0, 60, 19
2, 39986, Note_on_c, 0, 55, 35
2, 39986, Note_on_c, 0, 48, 44
2, 39990, Note_on_c, 0, 72, 71
2, 39993, Note_on_c, 0, 64, 72
2, 40013, Control_c, 0, 64, 0
2, 40016, Note_off_c, 0, 76, 64
2, 40021, Control_c, 0, 64, 0
2, 40127, Control_c, 0, 64, 127
2, 40135, Control_c, 0, 64, 127
2, 40330, Control_c, 0, 64, 0
2, 40338, Control_c, 0, 64, 0
2, 40408, Note_off_c, 0, 48, 64
2, 40408, Note_off_c, 0, 55, 64
2, 40408, Note_off_c, 0, 60, 64
2, 40412, Note_off_c, 0, 72, 64
2, 40415, Note_off_c, 0, 64, 64
2, 42170, Control_c, 0, 64, 127
2, 42196, Control_c, 0, 64, 0
2, 42196, End_track
3, 0, Start_track
3, 0, Title_t, "Played by Dr. Ron Lubetsky"
3, 0, End_track
4, 0, Start_track
4, 0, Title_t, "Feb. 2, 1998"
4, 0, End_track
5, 0, Start_track
5, 0, Title_t, "email: acuity2020@aol.com"
5, 0, End_track
6, 0, Start_track
6, 0, Title_t, "Copyright  1998"
6, 0, End_track
7, 0, Start_track
7, 0, Title_t, "All Rights Reserved"
7, 0, End_track
0, 0, End_of_file
