0, 0, Header, 1, 7, 240
1, 0, Start_track
1, 0, Time_signature, 4, 2, 24, 8
1, 0, Tempo, 500000
1, 0, Marker_t, ML MUsic
1, 0, End_track
2, 0, Start_track
2, 0, Title_t, Ml Music
2, 0, Program_c, 0, 0
2, 571376, Note_on_c, 0, 61, 63
2, 571383, Note_on_c, 0, 52, 48
2, 571387, Note_on_c, 0, 63, 56
2, 571396, Note_on_c, 0, 51, 49
2, 571397, Note_on_c, 0, 53, 44
2, 571398, Control_c, 0, 64, 0
2, 571399, Note_off_c, 0, 75, 64
2, 571399, Control_c, 0, 64, 127
2, 571419, Note_off_c, 0, 61, 64
2, 571433, Note_off_c, 0, 68, 64
2, 571442, Note_on_c, 0, 72, 58
2, 571442, Note_on_c, 0, 64, 55
2, 571442, Note_on_c, 0, 56, 44
2, 571447, Note_on_c, 0, 72, 54
2, 571448, Control_c, 0, 64, 0
2, 571449, Note_on_c, 0, 73, 63
2, 571451, Note_on_c, 0, 63, 58
2, 571547, Note_on_c, 0, 63, 50
2, 571549, Note_on_c, 0, 60, 58
2, 571549, Note_on_c, 0, 52, 58
2, 751549, Control_c, 0, 64, 0
2, 751577, Control_c, 0, 64, 127
2, 751736, Control_c, 0, 64, 0
2, 751798, Control_c, 0, 64, 127
2, 752030, Control_c, 0, 64, 0
2, 752042, Note_off_c, 0, 65, 64
2, 752042, Note_off_c, 0, 67, 64
2, 752048, Note_on_c, 0, 70, 50
2, 752051, Control_c, 0, 64, 0
2, 752051, Control_c, 0, 64, 0
2, 752054, Note_on_c, 0, 77, 69
2, 752090, Note_on_c, 0, 71, 62
2, 752090, Note_on_c, 0, 64, 77
2, 752093, Note_on_c, 0, 73, 68
2, 752098, Note_off_c, 0, 81, 64
2, 752116, Control_c, 0, 64, 0
2, 752116, Control_c, 0, 64, 0
2, 752152, Note_off_c, 0, 81, 64
2, 752158, Control_c, 0, 64, 127
2, 752237, Control_c, 0, 64, 0
2, 752243, Control_c, 0, 64, 127
2, 752332, Note_on_c, 0, 66, 58
2, 752433, Note_off_c, 0, 66, 64
2, 752435, Note_off_c, 0, 53, 64
2, 752572, Note_on_c, 0, 72, 48
2, 752570, Note_on_c, 0, 68, 66
2, 752570, Note_on_c, 0, 57, 36
2, 752575, Note_on_c, 0, 45, 15
2, 752585, Note_off_c, 0, 60, 64
2, 752590, Note_off_c, 0, 59, 64
2, 752647, Note_on_c, 0, 72, 45
2, 752731, Note_off_c, 0, 52, 64
2, 752792, Note_off_c, 0, 55, 64
2, 752790, Note_off_c, 0, 52, 64
2, 752824, Note_on_c, 0, 73, 50
2, 752854, Note_off_c, 0, 74, 64
2, 752935, Control_c, 0, 64, 0
2, 752936, Control_c, 0, 64, 0
2, 752981, Control_c, 0, 64, 127
2, 753015, Control_c, 0, 64, 127
2, 753109, Note_on_c, 0, 58, 30
2, 753143, Note_on_c, 0, 70, 44
2, 753155, Note_off_c, 0, 79, 64
2, 753195, Control_c, 0, 64, 0
2, 753203, Control_c, 0, 64, 127
2, 753334, Note_on_c, 0, 68, 36
2, 753333, Note_on_c, 0, 55, 36
2, 753350, Note_on_c, 0, 70, 28
2, 753390, Note_off_c, 0, 53, 64
2, 753403, Note_off_c, 0, 66, 64
2, 753411, Control_c, 0, 64, 0
2, 753430, Note_on_c, 0, 76, 46
2, 753437, Control_c, 0, 64, 0
2, 753470, Note_off_c, 0, 56, 64
2, 753508, Note_off_c, 0, 58, 64
2, 753511, Note_off_c, 0, 52, 64
2, 753558, Note_on_c, 0, 69, 70
2, 753570, Note_off_c, 0, 45, 64
2, 753585, Note_off_c, 0, 57, 64
2, 753616, Note_off_c, 0, 78, 64
2, 753678, Note_on_c, 0, 68, 42
2, 753684, Note_off_c, 0, 66, 64
2, 753727, Note_off_c, 0, 87, 64
2, 753780, Note_off_c, 0, 74, 64
2, 753819, Note_on_c, 0, 68, 45
2, 753835, Note_on_c, 0, 61, 39
2, 753858, Note_on_c, 0, 93, 74
2, 753857, Note_off_c, 0, 69, 64
2, 753944, Note_on_c, 0, 53, 52
2, 753957, Control_c, 0, 64, 0
2, 753957, Note_off_c, 0, 53, 64
2, 753959, Note_off_c, 0, 60, 64
2, 753981, Control_c, 0, 64, 127
2, 754049, Control_c, 0, 64, 127
2, 754113, Note_off_c, 0, 59, 64
2, 754122, Note_off_c, 0, 69, 64
2, 754130, Note_off_c, 0, 64, 64
2, 754134, Note_off_c, 0, 60, 64
2, 754136, Note_off_c, 0, 59, 64
2, 754177, Note_on_c, 0, 77, 40
2, 754289, Note_on_c, 0, 79, 39
2, 754400, Note_off_c, 0, 77, 64
2, 754405, Note_on_c, 0, 64, 22
2, 754424, Note_off_c, 0, 63, 64
2, 754448, Note_on_c, 0, 68, 36
2, 754450, Note_on_c, 0, 64, 16
2, 754469, Control_c, 0, 64, 0
2, 754474, Control_c, 0, 64, 0
2, 754573, Control_c, 0, 64, 127
2, 754867, Control_c, 0, 64, 127
2, 754929, Note_off_c, 0, 64, 64
2, 754929, Note_off_c, 0, 67, 64
2, 754951, Note_off_c, 0, 54, 64
2, 754951, Note_off_c, 0, 60, 64
2, 755068, Control_c, 0, 64, 0
2, 755241, Control_c, 0, 64, 127
2, 755264, Control_c, 0, 64, 0
2, 755334, Control_c, 0, 64, 0
2, 755558, Control_c, 0, 64, 0
2, 755557, Note_on_c, 0, 67, 62
2, 755558, Note_on_c, 0, 58, 27
2, 755557, Note_on_c, 0, 55, 44
2, 755568, Note_off_c, 0, 66, 64
2, 755623, Note_off_c, 0, 61, 64
2, 755634, Note_off_c, 0, 41, 64
2, 755750, Note_on_c, 0, 55, 29
2, 755743, Note_on_c, 0, 65, 62
2, 755760, Note_off_c, 0, 66, 64
2, 755760, Note_off_c, 0, 55, 64
2, 755787, Note_on_c, 0, 65, 29
2, 755794, Note_on_c, 0, 45, 29
2, 755796, Note_off_c, 0, 65, 64
2, 755809, Note_on_c, 0, 48, 31
2, 755826, Note_off_c, 0, 69, 64
2, 755944, Note_on_c, 0, 65, 12
2, 755945, Note_off_c, 0, 50, 64
2, 755954, Note_off_c, 0, 79, 64
2, 756088, Note_on_c, 0, 78, 28
2, 756144, Note_off_c, 0, 86, 64
2, 756245, Note_on_c, 0, 62, 12
2, 756252, Note_on_c, 0, 60, 19
2, 756257, Note_on_c, 0, 63, 15
2, 756261, Note_off_c, 0, 73, 64
2, 756297, Note_on_c, 0, 50, 105,
2, 1536075, Note_off_c, 0, 55, 64
2, 1536041, Note_off_c, 0, 69, 64
2, 1536247, Note_on_c, 0, 52, 24
2, 1536247, Note_on_c, 0, 68, 27
2, 1536248, Note_off_c, 0, 45, 64
2, 1536264, Note_off_c, 0, 52, 64
2, 1536321, Note_on_c, 0, 67, 24
2, 1536372, Control_c, 0, 64, 0
2, 1536372, Control_c, 0, 64, 0
2, 1536419, Control_c, 0, 64, 127
2, 1536419, Control_c, 0, 64, 127
2, 1536552, Note_off_c, 0, 64, 64
2, 1536561, Note_on_c, 0, 53, 49
2, 1536561, Note_on_c, 0, 57, 40
2, 1536598, Note_off_c, 0, 53, 64
2, 1536617, Note_on_c, 0, 63, 37
2, 1536665, Control_c, 0, 64, 0
2, 1536665, Control_c, 0, 64, 0
2, 1536695, Control_c, 0, 64, 127
2, 1536696, Control_c, 0, 64, 127
2, 1536726, Note_on_c, 0, 78, 57
2, 1536740, Note_on_c, 0, 73, 67
2, 1537690, Note_off_c, 0, 78, 64
2, 1537695, Note_off_c, 0, 75, 64
2, 1537721, Note_on_c, 0, 74, 68
2, 1537737, Control_c, 0, 64, 127
2, 1537737, Control_c, 0, 64, 127
2, 1537739, Note_off_c, 0, 65, 64
2, 1537756, Note_off_c, 0, 50, 64
2, 1537763, Note_off_c, 0, 52, 64
2, 1537793, Note_on_c, 0, 67, 54
2, 1537793, Note_on_c, 0, 59, 52
2, 1537813, Note_off_c, 0, 66, 64
2, 1537921, Note_off_c, 0, 76, 64
2, 1537927, Note_on_c, 0, 79, 49
2, 1537926, Note_on_c, 0, 80, 61
2, 1537932, Note_on_c, 0, 78, 64
2, 1537940, Note_off_c, 0, 78, 64
2, 1537995, Note_on_c, 0, 74, 81
2, 1537995, Note_on_c, 0, 73, 93
2, 1537995, Note_on_c, 0, 60, 44
2, 1538002, Control_c, 0, 64, 127
2, 1538000, Control_c, 0, 64, 127
2, 1538003, Note_off_c, 0, 78, 64
2, 1538035, Note_on_c, 0, 52, 56
2, 1538073, Note_off_c, 0, 50, 64
2, 1538079, Note_off_c, 0, 47, 64
2, 1538078, Note_off_c, 0, 54, 64
2, 1538078, Note_off_c, 0, 58, 64
2, 1538087, Note_off_c, 0, 79, 64
2, 1538095, Note_on_c, 0, 78, 62
2, 1538095, Note_on_c, 0, 56, 65
2, 1538099, Note_on_c, 0, 71, 65
2, 1538104, Control_c, 0, 64, 0
2, 1538104, Control_c, 0, 64, 0
2, 1538143, Control_c, 0, 64, 127
2, 1538143, Control_c, 0, 64, 127
2, 1538256, Note_off_c, 0, 66, 64
2, 1538260, Note_off_c, 0, 61, 64
2, 1538266, Note_on_c, 0, 52, 46
2, 1538274, Note_on_c, 0, 52, 30
2, 1538278, Note_on_c, 0, 62, 27
2, 1538305, Note_on_c, 0, 59, 44
2, 1538307, Note_off_c, 0, 73, 64
2, 1538318, Note_on_c, 0, 63, 41
2, 1538321, Note_on_c, 0, 49, 38
2, 1538338, Control_c, 0, 64, 0
2, 1538338, Control_c, 0, 64, 0
2, 1538343, Note_off_c, 0, 48, 64
2, 1538345, Control_c, 0, 64, 127
2, 1538351, Control_c, 0, 64, 127
2, 1538435, Control_c, 0, 64, 127
2, 1538436, Control_c, 0, 64, 127
2, 1538482, Note_on_c, 0, 76, 53
2, 1538523, Note_off_c, 0, 50, 64
2, 1538523, Note_off_c, 0, 65, 64
2, 1538525, Note_off_c, 0, 64, 64
2, 1538654, Note_off_c, 0, 47, 64
2, 1538840, Note_on_c, 0, 59, 23
2, 1538849, Note_on_c, 0, 58, 18
2, 1538851, Note_on_c, 0, 60, 29
2, 1538924, Note_off_c, 0, 59, 64
2, 1538931, Note_off_c, 0, 61, 64
2, 1538941, Note_off_c, 0, 64, 64
2, 1538947, Note_on_c, 0, 50, 43
2, 1538951, Note_off_c, 0, 60, 64
2, 1538964, Control_c, 0, 64, 0
2, 1538964, Control_c, 0, 64, 0
2, 1538996, Control_c, 0, 64, 127
2, 1538996, Control_c, 0, 64, 127
2, 1539013, Note_on_c, 0, 74, 46
2, 1539029, Note_off_c, 0, 71, 64
2, 1539037, Note_off_c, 0, 58, 64
2, 1539045, Control_c, 0, 64, 0
2, 1539045, Control_c, 0, 64, 0
2, 1539119, Control_c, 0, 64, 127
2, 1539119, Control_c, 0, 64, 127
2, 1539233, Note_off_c, 0, 42, 64
2, 1539256, Note_on_c, 0, 50, 23
2, 1539275, Note_on_c, 0, 64, 38
2, 1539280, Note_on_c, 0, 59, 50
2, 1539288, Note_on_c, 0, 48, 30
2, 1529388, Note_on_c, 0, 59, 39
2, 1529410, Note_off_c, 0, 42, 64
2, 1529466, Control_c, 0, 64, 0
2, 1529466, Control_c, 0, 64, 0
2, 1529467, Note_off_c, 0, 59, 64
2, 1529469, Control_c, 0, 64, 127
2, 1529470, Control_c, 0, 64, 127
2, 1529511, Note_on_c, 0, 90, 60
2, 1529518, Note_off_c, 0, 42, 64
2, 1529572, Note_off_c, 0, 46, 64
2, 1529612, Note_on_c, 0, 52, 42
2, 1529699, Note_off_c, 0, 68, 64
2, 1529700, Note_on_c, 0, 47, 39
2, 1529713, Control_c, 0, 64, 0
2, 1529717, Control_c, 0, 64, 0
2, 1529732, Note_off_c, 0, 47, 64
2, 1529740, Note_off_c, 0, 75, 64
2, 1529748, Control_c, 0, 64, 127
2, 1529749, Control_c, 0, 64, 127
2, 1529871, Note_off_c, 0, 59, 64
2, 1529885, Note_on_c, 0, 45, 42
2, 1529896, Note_on_c, 0, 76, 52
2, 1529899, Note_on_c, 0, 59, 30
2, 1529899, Note_on_c, 0, 61, 46
2, 1529903, Note_off_c, 0, 42, 64
2, 1529920, Note_on_c, 0, 64, 44
2, 1529935, Note_off_c, 0, 59, 64
2, 1529938, Note_off_c, 0, 47, 64
2, 1529973, Note_off_c, 0, 63, 64
2, 1529984, Note_off_c, 0, 59, 64
2, 1529989, Note_on_c, 0, 75, 58
2, 1529990, Note_on_c, 0, 51, 46
2, 1529997, Note_off_c, 0, 63, 64
2, 1530012, Note_off_c, 0, 52, 64
2, 1530025, Note_off_c, 0, 55, 64
2, 1530071, Note_off_c, 0, 58, 64
2, 1530135, Note_on_c, 0, 77, 61
2, 1503210, Note_on_c, 0, 60, 30
2, 1503214, Note_on_c, 0, 83, 75
2, 1503217, Note_on_c, 0, 61, 62
2, 1503265, Note_off_c, 0, 51, 64
2, 1503275, Note_off_c, 0, 78, 64
2, 1503278, Control_c, 0, 64, 0
2, 1503278, Control_c, 0, 64, 0
2, 1503281, Note_off_c, 0, 59, 64
2, 1503285, Control_c, 0, 64, 127
2, 1503285, Control_c, 0, 64, 127
2, 1503415, Note_off_c, 0, 66, 64
2, 1503451, Note_off_c, 0, 56, 64
2, 1503451, Note_off_c, 0, 63, 64
2, 1503451, Note_off_c, 0, 64, 64
2, 1503502, Note_on_c, 0, 53, 32
2, 1503511, Note_on_c, 0, 63, 49
2, 1503542, Note_off_c, 0, 72, 64
2, 1503533, Note_on_c, 0, 77, 53
2, 1503565, Note_off_c, 0, 51, 64
2, 1503632, Control_c, 0, 64, 0
2, 1503633, Control_c, 0, 64, 0
2, 1503648, Control_c, 0, 64, 127
2, 1503648, Control_c, 0, 64, 127
2, 1503649, Note_off_c, 0, 66, 64
2, 1503656, Note_off_c, 0, 59, 64
2, 1503672, Note_off_c, 0, 64, 64
2, 1503701, Note_off_c, 0, 44, 64
2, 1503760, Control_c, 0, 64, 0
2, 1503762, Control_c, 0, 64, 0
2, 1503813, Control_c, 0, 64, 127
2, 1503813, Control_c, 0, 64, 127
2, 1503817, Note_on_c, 0, 55, 31
2, 1503875, Note_off_c, 0, 43, 64
2, 1503880, Note_off_c, 0, 56, 64
2, 1503896, Note_off_c, 0, 55, 64
2, 1503908, Note_on_c, 0, 69, 53
2, 1503918, Note_off_c, 0, 72, 64
2, 1503940, Note_off_c, 0, 56, 64
2, 1503956, Note_on_c, 0, 74, 58
2, 1503970, Note_on_c, 0, 74, 43
2, 1503981, Control_c, 0, 64, 127
2, 1503982, Control_c, 0, 64, 0
2, 1504019, Control_c, 0, 64, 127
2, 1504018, Control_c, 0, 64, 127
2, 1504041, Note_off_c, 0, 61, 64
2, 1504062, Control_c, 0, 64, 0
2, 1504062, Control_c, 0, 64, 0
2, 1504088, Control_c, 0, 64, 127
2, 1504088, Control_c, 0, 64, 127
2, 1504125, Note_on_c, 0, 67, 38
2, 1504201, Note_on_c, 0, 58, 30
2, 1504210, Note_on_c, 0, 68, 46
2, 1504216, Note_off_c, 0, 65, 64
2, 1504224, Note_off_c, 0, 53, 64
2, 1504256, Note_on_c, 0, 67, 38
2, 1504263, Note_on_c, 0, 52, 38
2, 1504275, Note_off_c, 0, 61, 64
2, 1504282, Note_on_c, 0, 64, 43
2, 1504283, Note_on_c, 0, 56, 38
2, 1504308, Control_c, 0, 64, 127
2, 1504307, Control_c, 0, 64, 127
2, 1504316, Note_off_c, 0, 68, 64
2, 1504326, Note_off_c, 0, 55, 64
2, 1504330, Note_off_c, 0, 55, 64
2, 1504362, Note_on_c, 0, 74, 41
2, 1504387, Note_off_c, 0, 61, 64
2, 1504449, Note_on_c, 0, 55, 29
2, 1504462, Note_on_c, 0, 57, 33
2, 1504466, Control_c, 0, 64, 0
2, 1504466, Control_c, 0, 64, 0
2, 1504466, Control_c, 0, 64, 127
2, 1504466, Control_c, 0, 64, 127
2, 1504558, Note_off_c, 0, 54, 64
2, 1504567, Note_off_c, 0, 63, 64
2, 1504568, Note_on_c, 0, 50, 31
2, 1504569, Note_on_c, 0, 52, 44
2, 1504576, Note_on_c, 0, 66, 46
2, 1504588, Control_c, 0, 64, 0
2, 1504588, Control_c, 0, 64, 0
2, 1504595, Note_off_c, 0, 58, 64
2, 1504600, Control_c, 0, 64, 127
2, 1504608, Control_c, 0, 64, 127
2, 1504681, Note_on_c, 0, 50, 30
2, 1504690, Control_c, 0, 64, 0
2, 1504692, Control_c, 0, 64, 0
2, 1504697, Control_c, 0, 64, 127
2, 1504697, Control_c, 0, 64, 127
2, 1504727, Note_on_c, 0, 59, 35
2, 1504731, Note_on_c, 0, 60, 24
2, 1504747, Control_c, 0, 64, 0
2, 1504747, Control_c, 0, 64, 0
2, 1504810, Control_c, 0, 64, 127
2, 1504813, Control_c, 0, 64, 127
2, 1504850, Note_off_c, 0, 30, 64
2, 1504881, Note_off_c, 0, 57, 64
2, 1504884, Note_off_c, 0, 65, 64
2, 1504896, Note_off_c, 0, 62, 64
2, 1504902, Note_on_c, 0, 76, 50
2, 1540812, Note_on_c, 0, 64, 39
2, 1540819, Control_c, 0, 64, 0
2, 1540819, Control_c, 0, 64, 0
2, 1540828, Note_off_c, 0, 73, 64
2, 1540844, Control_c, 0, 64, 127
2, 1540847, Control_c, 0, 64, 127
2, 1540901, Control_c, 0, 64, 0
2, 1540901, Control_c, 0, 64, 0
2, 1540904, Note_on_c, 0, 76, 86
2, 1540905, Note_on_c, 0, 57, 38
2, 1540924, Note_off_c, 0, 68, 64
2, 1540941, Note_on_c, 0, 76, 53
2, 1540943, Control_c, 0, 64, 0
2, 1540943, Control_c, 0, 64, 0
2, 1540943, Note_off_c, 0, 76, 64
2, 1540947, Control_c, 0, 64, 127
2, 1540947, Control_c, 0, 64, 127
2, 1541027, Note_off_c, 0, 58, 64
2, 1541101, Note_on_c, 0, 64, 38
2, 1541102, Note_on_c, 0, 65, 44
2, 1541125, Note_off_c, 0, 59, 64
2, 1541188, Note_on_c, 0, 63, 42
2, 1541187, Note_on_c, 0, 57, 43
2, 1541187, Note_on_c, 0, 62, 42
2, 1541187, Note_on_c, 0, 63, 42
2, 1541198, Control_c, 0, 64, 127
2, 1541198, Control_c, 0, 64, 127
2, 1541248, Note_on_c, 0, 59, 21
2, 1541236, Note_on_c, 0, 52, 31
2, 1541251, Note_off_c, 0, 78, 64
2, 1541306, Note_on_c, 0, 44, 20
2, 1541334, Note_off_c, 0, 70, 64
2, 1541423, Note_on_c, 0, 68, 40
2, 1541427, Note_on_c, 0, 64, 20
2, 1541427, Note_on_c, 0, 52, 28
2, 1541462, Note_on_c, 0, 58, 30
2, 1541492, Note_off_c, 0, 53, 64
2, 1541497, Note_off_c, 0, 59, 64
2, 1541498, Note_off_c, 0, 54, 64
2, 1541529, Note_on_c, 0, 47, 25
2, 1541528, Note_on_c, 0, 62, 28
2, 1541530, Note_on_c, 0, 56, 26
2, 1541531, Note_on_c, 0, 54, 28
2, 1541557, Note_off_c, 0, 59, 64
2, 1541574, Note_off_c, 0, 60, 64
2, 1541669, Note_on_c, 0, 55, 27
2, 1541670, Note_on_c, 0, 52, 39
2, 1541722, Note_on_c, 0, 54, 15
2, 1541729, Note_on_c, 0, 59, 23
2, 1541744, Control_c, 0, 64, 127
2, 1541744, Control_c, 0, 64, 127
2, 1541770, Note_off_c, 0, 64, 64
2, 1541770, Note_off_c, 0, 65, 64
2, 1541780, Note_off_c, 0, 55, 64
2, 1541786, Note_off_c, 0, 64, 64
2, 1541800, Note_on_c, 0, 78, 43
2, 1541816, Note_off_c, 0, 88, 64
2, 1541857, Note_on_c, 0, 52, 41
2, 1541866, Note_off_c, 0, 78, 64
2, 1541945, Note_on_c, 0, 79, 43
2, 1541981, Note_off_c, 0, 88, 64
2, 1541987, Note_off_c, 0, 71, 64
2, 1542059, Note_on_c, 0, 78, 55
2, 1542089, Note_off_c, 0, 83, 64
2, 1542105, Control_c, 0, 64, 0
2, 1542105, Control_c, 0, 64, 0
2, 1542111, Note_on_c, 0, 73, 58
2, 1542117, Control_c, 0, 64, 0
2, 1542117, Control_c, 0, 64, 0
2, 1542126, Note_off_c, 0, 60, 64
2, 1542152, Control_c, 0, 64, 127
2, 1542155, Control_c, 0, 64, 127
2, 1542219, Note_on_c, 0, 74, 66
2, 1542235, Control_c, 0, 64, 0
2, 1542235, Control_c, 0, 64, 0
2, 1542244, Control_c, 0, 64, 127
2, 1542246, Control_c, 0, 64, 127
2, 1542270, Note_off_c, 0, 59, 64
2, 1542281, Note_off_c, 0, 68, 64
2, 1542283, Note_off_c, 0, 57, 64
2, 1542358, Note_on_c, 0, 57, 41
2, 1542408, Note_on_c, 0, 51, 29
2, 1542415, Control_c, 0, 64, 0
2, 1542415, Control_c, 0, 64, 0
2, 1542460, Control_c, 0, 64, 127
2, 1542460, Control_c, 0, 64, 127
2, 1542483, Note_off_c, 0, 44, 64
2, 1542566, Note_on_c, 0, 67, 46
2, 1542572, Note_off_c, 0, 59, 64
2, 1542573, Note_on_c, 0, 51, 43
2, 1542585, Note_off_c, 0, 54, 64
2, 1542609, Note_on_c, 0, 64, 45
2, 1542608, Note_on_c, 0, 54, 41
2, 1542621, Control_c, 0, 64, 0
2, 1542621, Control_c, 0, 64, 0
2, 1542668, Control_c, 0, 64, 127
2, 1542681, Control_c, 0, 64, 127
2, 1542694, Note_off_c, 0, 52, 64
2, 1542848, Note_on_c, 0, 67, 42
2, 1542849, Note_off_c, 0, 55, 64
2, 1542903, Control_c, 0, 64, 0
2, 1542900, Control_c, 0, 64, 0
2, 1542988, Control_c, 0, 64, 127
2, 1542988, Control_c, 0, 64, 127
2, 1543165, Note_on_c, 0, 64, 46
2, 1543166, Note_on_c, 0, 59, 46
2, 1543173, Control_c, 0, 64, 0
2, 1543173, Control_c, 0, 64, 0
2, 1543199, Control_c, 0, 64, 127
2, 1543199, Control_c, 0, 64, 127
2, 1543206, Note_off_c, 0, 54, 64
2, 1543209, Note_off_c, 0, 50, 64
2, 1543223, Note_on_c, 0, 64, 47
2, 1543225, Note_on_c, 0, 58, 38
2, 1543228, Note_on_c, 0, 55, 20
2, 1543233, Control_c, 0, 64, 127
2, 1543234, Control_c, 0, 64, 127
2, 1543238, Note_off_c, 0, 47, 64
2, 1543253, Note_off_c, 0, 51, 64
2, 1543263, Note_off_c, 0, 51, 64
2, 1543268, Note_off_c, 0, 58, 64
2, 1543276, Note_on_c, 0, 53, 37
2, 1543299, Note_on_c, 0, 75, 41
2, 1543399, Note_on_c, 0, 58, 28
2, 1543434, Note_on_c, 0, 62, 23
2, 1543434, Note_on_c, 0, 59, 13
2, 1543452, Control_c, 0, 64, 127
2, 1543462, Control_c, 0, 64, 127
2, 1543482, Note_off_c, 0, 66, 64
2, 1543490, Note_off_c, 0, 51, 64
2, 1543535, Note_on_c, 0, 43, 41
2, 1543739, Note_off_c, 0, 55, 64
2, 1543748, Note_off_c, 0, 55, 64
2, 1543758, Note_off_c, 0, 61, 64
2, 1543829, Note_off_c, 0, 42, 64
2, 1543835, Control_c, 0, 64, 0
2, 1543837, Control_c, 0, 64, 0
2, 1543841, Note_on_c, 0, 50, 38
2, 1543848, Note_on_c, 0, 47, 38
2, 1543863, Control_c, 0, 64, 127
2, 1543863, Control_c, 0, 64, 127
2, 1543941, Note_off_c, 0, 55, 64
2, 1543952, Note_off_c, 0, 60, 64
2, 1543952, Note_off_c, 0, 64, 64
2, 1543953, Note_on_c, 0, 73, 57
2, 1543956, Note_on_c, 0, 63, 37
2, 1543956, Note_on_c, 0, 49, 12
2, 1543956, Note_on_c, 0, 64, 21
2, 1543960, Note_on_c, 0, 58, 12
2, 1543970, Note_on_c, 0, 63, 54
2, 1543965, Control_c, 0, 64, 0
2, 1543965, Control_c, 0, 64, 0
2, 1543985, Control_c, 0, 64, 127
2, 1543987, Control_c, 0, 64, 127
2, 1551005, Note_off_c, 0, 43, 64
2, 1551002, Note_on_c, 0, 59, 47
2, 1551021, Control_c, 0, 64, 0
2, 1551022, Control_c, 0, 64, 127
2, 1551025, Control_c, 0, 64, 0
2, 1551060, Control_c, 0, 64, 127
2, 1551174, Note_on_c, 0, 60, 48
2, 1551179, Control_c, 0, 64, 0
2, 1551181, Control_c, 0, 64, 0
2, 1551201, Control_c, 0, 64, 127
2, 1551220, Control_c, 0, 64, 127
2, 1551263, Note_on_c, 0, 76, 43
2, 1551270, Control_c, 0, 64, 0
2, 1551294, Control_c, 0, 64, 127
2, 1551338, Note_on_c, 0, 00, 56
2, 1551351, Note_on_c, 0, 47, 26
2, 1551353, Note_on_c, 0, 80, 51
2, 5152493, Control_c, 0, 64, 127
2, 1551448, Note_off_c, 0, 54, 64
2, 1551471, Note_off_c, 0, 75, 64
2, 1551501, Note_on_c, 0, 59, 36
2, 1551513, Note_off_c, 0, 72, 64
2, 1551561, Note_on_c, 0, 71, 54
2, 1551570, Note_off_c, 0, 73, 64
2, 1551571, Note_off_c, 0, 76, 64
2, 1551607, Note_on_c, 0, 46, 39
2, 1551726, Note_on_c, 0, 61, 26
2, 1556209, Note_on_c, 0, 59, 25
2, 1556216, Control_c, 0, 64, 0
2, 1556235, Control_c, 0, 64, 127
2, 1556273, Note_off_c, 0, 75, 64
2, 1556323, Note_off_c, 0, 55, 64
2, 1556326, Note_off_c, 0, 59, 64
2, 1556327, Note_off_c, 0, 64, 64
2, 1556330, Note_on_c, 0, 64, 30
2, 1563533, Note_on_c, 0, 56, 26
2, 1563534, Note_on_c, 0, 63, 21
2, 1563539, Note_on_c, 0, 52, 36
2, 1563562, Note_off_c, 0, 60, 64
2, 1563562, Note_off_c, 0, 52, 64
2, 1563663, Control_c, 0, 64, 0
2, 1563675, Control_c, 0, 64, 127
2, 1563708, Note_off_c, 0, 64, 64
2, 1563774, Note_off_c, 0, 60, 64
2, 1563815, Note_on_c, 0, 57, 31
2, 1563818, Note_on_c, 0, 54, 28
2, 1563836, Control_c, 0, 64, 0
2, 1563839, Control_c, 0, 64, 127
2, 1563923, Note_off_c, 0, 47, 64
2, 1563924, Note_off_c, 0, 57, 64
2, 1563927, Note_off_c, 0, 57, 64
2, 1563933, Note_off_c, 0, 62, 64
2, 1564032, Note_off_c, 0, 62, 64
2, 1564052, Note_on_c, 0, 64, 60
2, 1564054, Note_on_c, 0, 43, 52
2, 1564077, Control_c, 0, 64, 0
2, 1564078, Control_c, 0, 64, 0
2, 1564110, Control_c, 0, 64, 127
2, 1564110, Control_c, 0, 64, 127
2, 1564152, Note_off_c, 0, 42, 64
2, 1564192, Note_on_c, 0, 59, 52
2, 1564195, Note_on_c, 0, 57, 44
2, 1564197, Note_on_c, 0, 54, 48
2, 1564204, Note_on_c, 0, 51, 42
2, 1564210, Note_off_c, 0, 71, 64
2, 1564293, Control_c, 0, 64, 127
2, 1564391, Note_on_c, 0, 75, 54
2, 1564401, Control_c, 0, 64, 127
2, 1564413, Note_off_c, 0, 63, 64
2, 1564413, Note_off_c, 0, 64, 64
2, 1564414, Note_off_c, 0, 52, 64
2, 1564417, Note_off_c, 0, 56, 64
2, 1564421, Control_c, 0, 64, 0
2, 1564421, Control_c, 0, 64, 0
2, 1564539, Control_c, 0, 64, 127
2, 1564550, Control_c, 0, 64, 127
2, 1564629, Note_off_c, 0, 61, 64
2, 1564627, Note_off_c, 0, 63, 64
2, 1564640, Control_c, 0, 64, 0
2, 1564640, Control_c, 0, 64, 0
2, 1564651, Note_off_c, 0, 47, 64
2, 1564655, Control_c, 0, 64, 127
2, 1564655, Control_c, 0, 64, 127
2, 1564755, Note_on_c, 0, 64, 45
2, 1564759, Note_off_c, 0, 63, 64
2, 1564768, Note_on_c, 0, 47, 49
2, 1564800, Note_off_c, 0, 49, 64
2, 1568400, Note_on_c, 0, 68, 55
2, 1568426, Note_off_c, 0, 64, 64
2, 1568471, Note_off_c, 0, 57, 64
2, 1568474, Note_on_c, 0, 57, 54
2, 1568480, Note_off_c, 0, 61, 64
2, 1568482, Note_off_c, 0, 66, 64
2, 1568491, Note_off_c, 0, 61, 64
2, 1568512, Control_c, 0, 64, 0
2, 1568596, Control_c, 0, 64, 127
2, 1568614, Note_off_c, 0, 54, 64
2, 1568617, Note_off_c, 0, 59, 64
2, 1568700, Note_on_c, 0, 45, 58
2, 1568805, Note_off_c, 0, 73, 64
2, 1568818, Note_on_c, 0, 78, 66
2, 1568819, Note_on_c, 0, 42, 63
2, 1568895, Note_on_c, 0, 78, 58
2, 1568915, Note_off_c, 0, 47, 64
2, 1568915, Control_c, 0, 64, 0
2, 1568915, Control_c, 0, 64, 0
2, 1569027, Control_c, 0, 64, 127
2, 1569069, Control_c, 0, 64, 127
2, 1569122, Note_off_c, 0, 42, 64
2, 1569218, Note_off_c, 0, 65, 64
2, 1569248, Note_off_c, 0, 54, 64
2, 1569471, Note_on_c, 0, 64, 42
2, 1569480, Note_on_c, 0, 55, 42
2, 1569486, Note_on_c, 0, 61, 28
2, 1569486, Note_on_c, 0, 52, 28
2, 1569489, Note_on_c, 0, 60, 26
2, 1569506, Control_c, 0, 64, 127
2, 1569547, Control_c, 0, 64, 0
2, 1569564, Control_c, 0, 64, 127
2, 1569615, Note_on_c, 0, 65, 102
2, 1569811, Note_off_c, 0, 64, 64
2, 1569818, Note_off_c, 0, 47, 64
2, 1569823, Note_off_c, 0, 47, 64
2, 1569873, Note_on_c, 0, 68, 49
2, 1569878, Note_on_c, 0, 77, 62
2, 1569878, Note_on_c, 0, 47, 56
2, 1569881, Note_on_c, 0, 67, 54
2, 1569887, Note_on_c, 0, 75, 67
2, 1569887, Note_on_c, 0, 65, 65
2, 1569887, Note_on_c, 0, 64, 58
2, 1569887, Note_on_c, 0, 54, 32
2, 1569911, Note_on_c, 0, 60, 47
2, 1569913, Note_on_c, 0, 56, 50
2, 1569916, Note_off_c, 0, 63, 64
2, 1569919, Note_on_c, 0, 54, 46
2, 1569980, Control_c, 0, 64, 0
2, 1569993, Note_on_c, 0, 65, 17
2, 1569993, Note_on_c, 0, 65, 49
2, 1569995, Note_off_c, 0, 56, 64
2, 1569996, Note_off_c, 0, 61, 64
2, 1570024, Note_off_c, 0, 51, 64
2, 1570041, Note_off_c, 0, 47, 64
2, 1570050, Note_off_c, 0, 52, 64
2, 1570071, Note_on_c, 0, 64, 63
2, 1570097, Note_on_c, 0, 56, 53
2, 1570101, Note_on_c, 0, 61, 68
2, 1570105, Note_on_c, 0, 52, 67
2, 1570107, Note_on_c, 0, 57, 71
2, 1570107, Note_on_c, 0, 50, 40
2, 1570131, Note_off_c, 0, 68, 64
2, 1570135, Note_off_c, 0, 50, 64
2, 1570190, Note_on_c, 0, 54, 58
2, 1570194, Note_on_c, 0, 63, 45
2, 1570218, Note_off_c, 0, 64, 64
2, 1570237, Control_c, 0, 64, 0
2, 1570238, Control_c, 0, 64, 0
2, 1570255, Control_c, 0, 64, 127
2, 1570261, Control_c, 0, 64, 127
2, 1570303, Note_off_c, 0, 47, 64
2, 1570321, Note_on_c, 0, 54, 49
2, 1570336, Note_off_c, 0, 66, 64
2, 1570338, Note_off_c, 0, 47, 64
2, 1570350, Control_c, 0, 64, 0
2, 1570366, Control_c, 0, 64, 127
2, 1570452, Note_off_c, 0, 71, 64
2, 1570452, Note_off_c, 0, 63, 64
2, 1570453, Note_off_c, 0, 64, 64
2, 1570456, Note_off_c, 0, 66, 64
2, 1570479, Note_off_c, 0, 47, 64
2, 1570495, Note_off_c, 0, 64, 64
2, 1570500, Note_off_c, 0, 83, 64
2, 1570507, Note_on_c, 0, 64, 33
2, 1570521, Note_on_c, 0, 42, 50
2, 1570586, Note_off_c, 0, 83, 64
2, 1570602, Note_off_c, 0, 64, 64
2, 1570620, Note_off_c, 0, 63, 64
2, 1570631, Note_off_c, 0, 68, 64
2, 1570637, Note_on_c, 0, 54, 46
2, 1570701, Note_on_c, 0, 68, 58
2, 1570707, Note_on_c, 0, 64, 56
2, 1570709, Note_on_c, 0, 66, 59
2, 1570717, Note_on_c, 0, 85, 66
2, 1570717, Note_on_c, 0, 70, 75
2, 1570717, Note_on_c, 0, 61, 71
2, 1570750, Note_on_c, 0, 71, 71
2, 1570764, Note_off_c, 0, 75, 64
2, 1570768, Note_off_c, 0, 75, 64
2, 1570777, Control_c, 0, 64, 127
2, 1570812, Note_off_c, 0, 54, 64
2, 1570825, Note_off_c, 0, 64, 64
2, 1570851, Note_off_c, 0, 64, 64
2, 1570896, Note_on_c, 0, 63, 60
2, 1570921, Control_c, 0, 64, 0
2, 1570922, Control_c, 0, 64, 0
2, 1570927, Note_off_c, 0, 48, 64
2, 1570930, Note_off_c, 0, 61, 64
2, 1570930, Control_c, 0, 64, 127
2, 1570980, Control_c, 0, 64, 0
2, 1571000, Note_off_c, 0, 55, 64
2, 1571005, Note_off_c, 0, 64, 64
2, 1571009, Note_off_c, 0, 42, 64
2, 1571018, Note_on_c, 0, 47, 59
2, 1571035, Note_off_c, 0, 78, 64
2, 1571095, Note_on_c, 0, 78, 62
2, 1571099, Note_off_c, 0, 75, 64
2, 1571112, Note_on_c, 0, 75, 65
2, 1571114, Note_on_c, 0, 68, 62
2, 1571114, Note_on_c, 0, 37, 48
2, 1571122, Note_on_c, 0, 54, 46
2, 1571134, Note_off_c, 0, 66, 64
2, 1571146, Control_c, 0, 64, 127
2, 1571161, Control_c, 0, 64, 0
2, 1571161, Note_on_c, 0, 56, 62
2, 1571191, Control_c, 0, 64, 0
2, 1571202, Control_c, 0, 64, 127
2, 1571205, Note_off_c, 0, 47, 64
2, 1571307, Note_on_c, 0, 75, 66
2, 1571314, Note_on_c, 0, 63, 54
2, 1571315, Note_on_c, 0, 35, 47
2, 1571316, Note_on_c, 0, 71, 58
2, 1571338, Note_off_c, 0, 73, 64
2, 1571338, Note_on_c, 0, 72, 46
2, 1571338, Control_c, 0, 64, 0
2, 1571345, Note_on_c, 0, 63, 58
2, 1571352, Note_off_c, 0, 68, 64
2, 1571353, Note_on_c, 0, 64, 41
2, 1571361, Note_off_c, 0, 76, 64
2, 1571417, Note_off_c, 0, 63, 64
2, 1571418, Note_off_c, 0, 70, 64
2, 1571420, Note_on_c, 0, 68, 35
2, 1571439, Note_off_c, 0, 71, 64
2, 1571498, Note_off_c, 0, 51, 44
2, 1571499, Note_off_c, 0, 42, 64
2, 1571514, Note_on_c, 0, 64, 26
2, 1571516, Control_c, 0, 64, 0
2, 1571609, Control_c, 0, 64, 127
2, 1571634, Note_off_c, 0, 42, 64
2, 1571643, Note_off_c, 0, 54, 64
2, 1571646, Note_off_c, 0, 61, 64
2, 1571647, Note_off_c, 0, 61, 64
2, 1571647, Note_on_c, 0, 64, 57
2, 1571655, Note_on_c, 0, 42, 56
2, 1571659, Note_off_c, 0, 71, 64
2, 1571771, Note_off_c, 0, 75, 64
2, 1571805, Note_on_c, 0, 76, 64
2, 1571836, Note_off_c, 0, 77, 64
2, 1571837, Note_off_c, 0, 76, 64
2, 1571839, Control_c, 0, 64, 127
2, 1571839, Note_off_c, 0, 64, 64
2, 1571873, Note_off_c, 0, 70, 64
2, 1571877, Note_off_c, 0, 75, 64
2, 1571879, Note_off_c, 0, 61, 64
2, 1571922, Note_off_c, 0, 76, 64
2, 1571923, Note_off_c, 0, 78, 64
2, 1571956, Note_on_c, 0, 78, 56
2, 1571956, Control_c, 0, 64, 0
2, 1571959, Note_on_c, 0, 75, 65
2, 1571992, Note_off_c, 0, 78, 64
2, 1572095, Note_on_c, 0, 63, 52
2, 1572097, Note_on_c, 0, 59, 56
2, 1572105, Note_off_c, 0, 68, 64
2, 1572137, Control_c, 0, 64, 0
2, 1572144, Note_off_c, 0, 71, 64
2, 1572144, Control_c, 0, 64, 127
2, 1572286, Note_off_c, 0, 47, 64
2, 1572353, Note_off_c, 0, 75, 64
2, 1572429, Note_off_c, 0, 47, 64
2, 1572460, Control_c, 0, 64, 0
2, 1572461, Control_c, 0, 64, 0
2, 1572490, Note_off_c, 0, 71, 64
2, 1572514, Note_on_c, 0, 75, 58
2, 1572515, Note_on_c, 0, 64, 58
2, 1572521, Note_on_c, 0, 75, 76
2, 1572522, Note_on_c, 0, 68, 63
2, 1572523, Note_on_c, 0, 59, 49
2, 1572531, Note_off_c, 0, 32, 64
2, 1572532, Note_on_c, 0, 63, 63
2, 1572535, Note_on_c, 0, 52, 62
2, 1572535, Note_on_c, 0, 44, 50
2, 1572558, Control_c, 0, 64, 0
2, 1572565, Control_c, 0, 64, 0
2, 1572571, Note_off_c, 0, 61, 64
2, 1572581, Note_off_c, 0, 54, 64
2, 1572659, Control_c, 0, 64, 127
2, 1572659, Control_c, 0, 64, 127
2, 1573236, Note_on_c, 0, 59, 45
2, 1573243, Note_off_c, 0, 50, 64
2, 1573263, Note_on_c, 0, 59, 49
2, 1573262, Note_on_c, 0, 49, 42
2, 1573262, Note_on_c, 0, 75, 62
2, 1573321, Note_off_c, 0, 75, 64
2, 1573322, Note_off_c, 0, 71, 64
2, 1573323, Note_off_c, 0, 68, 64
2, 1573375, Note_on_c, 0, 93, 32
2, 1573397, Note_off_c, 0, 71, 64
2, 1573405, Note_off_c, 0, 54, 64
2, 1573523, Note_on_c, 0, 42, 34
2, 1573527, Note_on_c, 0, 75, 52
2, 1573528, Note_on_c, 0, 64, 45
2, 1573535, Control_c, 0, 64, 0
2, 1573538, Note_on_c, 0, 44, 61
2, 1573542, Control_c, 0, 64, 127
2, 1573557, Control_c, 0, 64, 0
2, 1573560, Note_off_c, 0, 52, 64
2, 1573564, Note_off_c, 0, 59, 64
2, 1573575, Control_c, 0, 64, 127
2, 1573627, Note_on_c, 0, 44, 50
2, 1573652, Control_c, 0, 64, 127
2, 1573663, Note_on_c, 0, 64, 49
2, 1573663, Note_on_c, 0, 61, 58
2, 1573667, Note_on_c, 0, 59, 47
2, 1573685, Control_c, 0, 64, 0
2, 1573891, Control_c, 0, 64, 127
2, 1573901, Control_c, 0, 64, 127
2, 1573990, Note_on_c, 0, 68, 61
2, 1573991, Note_on_c, 0, 51, 40
2, 1573997, Note_off_c, 0, 55, 64
2, 1574007, Note_off_c, 0, 44, 64
2, 1574025, Note_off_c, 0, 65, 64
2, 1574172, Note_on_c, 0, 67, 44
2, 1574176, Note_on_c, 0, 59, 27
2, 1574179, Note_on_c, 0, 56, 19
2, 1574182, Note_on_c, 0, 64, 27
2, 1574188, Note_off_c, 0, 70, 64
2, 1574192, Note_on_c, 0, 54, 28
2, 1574193, Note_off_c, 0, 62, 64
2, 1574198, Note_off_c, 0, 71, 64
2, 1574232, Note_off_c, 0, 73, 64
2, 1574233, Note_on_c, 0, 62, 34
2, 1574245, Note_on_c, 0, 68, 58
2, 1574270, Note_on_c, 0, 64, 49
2, 1574276, Note_off_c, 0, 71, 64
2, 1574277, Control_c, 0, 64, 0
2, 1574304, Control_c, 0, 64, 0
2, 1574305, Control_c, 0, 64, 127
2, 1574319, Control_c, 0, 64, 127
2, 1574398, Note_on_c, 0, 72, 46
2, 1574534, Note_off_c, 0, 64, 64
2, 1574545, Note_on_c, 0, 73, 59
2, 1574565, Note_off_c, 0, 69, 64
2, 1574611, Note_on_c, 0, 70, 58
2, 1574620, Note_off_c, 0, 68, 64
2, 1574637, Note_off_c, 0, 75, 64
2, 1574746, Note_on_c, 0, 68, 32
2, 1574793, Note_on_c, 0, 75, 48
2, 1574782, Note_on_c, 0, 57, 44
2, 1574788, Control_c, 0, 64, 0
2, 1574793, Note_off_c, 0, 75, 64
2, 1574832, Control_c, 0, 64, 127
2, 1574870, Note_off_c, 0, 63, 64
2, 1574870, Note_off_c, 0, 54, 64
2, 1574873, Note_on_c, 0, 66, 45
2, 1574880, Note_off_c, 0, 76, 64
2, 1579417, Note_on_c, 0, 47, 23
2, 1579450, Note_on_c, 0, 42, 11
2, 1579455, Control_c, 0, 64, 0
2, 1579462, Note_on_c, 0, 63, 36
2, 1579463, Note_on_c, 0, 56, 39
2, 1579490, Control_c, 0, 64, 127
2, 1579522, Note_off_c, 0, 77, 64
2, 1579551, Note_off_c, 0, 47, 64
2, 1579558, Note_off_c, 0, 71, 64
2, 1579561, Note_off_c, 0, 54, 64
2, 1579577, Note_off_c, 0, 64, 64
2, 1579598, Note_off_c, 0, 88, 64
2, 1579610, Control_c, 0, 64, 0
2, 1579669, Control_c, 0, 64, 127
2, 1579702, Note_on_c, 0, 85, 66
2, 1579709, Note_on_c, 0, 61, 70
2, 1579710, Note_on_c, 0, 78, 72
2, 1579710, Note_on_c, 0, 66, 54
2, 1579712, Note_on_c, 0, 60, 70
2, 1579712, Note_on_c, 0, 57, 47
2, 1579712, Note_on_c, 0, 48, 55
2, 1579717, Control_c, 0, 64, 0
2, 1579719, Note_off_c, 0, 78, 64
2, 1579736, Note_off_c, 0, 65, 64
2, 1579737, Note_off_c, 0, 80, 64
2, 1579738, Note_off_c, 0, 64, 64
2, 1579756, Note_off_c, 0, 47, 64
2, 1579760, Control_c, 0, 64, 127
2, 1579806, Note_off_c, 0, 63, 64
2, 1579806, Note_off_c, 0, 49, 64
2, 1579842, Note_off_c, 0, 50, 64
2, 1579843, Note_off_c, 0, 47, 64
2, 1579844, Note_off_c, 0, 42, 64
2, 1579847, Note_off_c, 0, 51, 64
2, 1579864, Note_off_c, 0, 61, 64
2, 1579876, Note_off_c, 0, 64, 64
2, 1579877, Note_off_c, 0, 47, 64
2, 1579886, Note_off_c, 0, 48, 64
2, 1579893, Note_on_c, 0, 71, 69
2, 1579904, Note_on_c, 0, 68, 53
2, 1579919, Control_c, 0, 64, 0
2, 1579921, Control_c, 0, 64, 127
2, 1580029, Note_off_c, 0, 61, 64
2, 1580032, Note_off_c, 0, 69, 64
2, 1580035, Note_off_c, 0, 70, 64
2, 1580096, Note_on_c, 0, 66, 56
2, 1580102, Note_on_c, 0, 66, 62
2, 1580103, Note_on_c, 0, 63, 62
2, 1580103, Note_on_c, 0, 59, 58
2, 1580106, Note_off_c, 0, 60, 64
2, 1580106, Note_off_c, 0, 61, 64
2, 1580118, Note_off_c, 0, 71, 64
2, 1580152, Note_off_c, 0, 52, 64
2, 1580172, Note_on_c, 0, 57, 64
2, 1580174, Note_on_c, 0, 59, 56
2, 1580173, Note_on_c, 0, 42, 72
2, 1580181, Note_off_c, 0, 70, 64
2, 1580186, Control_c, 0, 64, 0
2, 1580198, Note_off_c, 0, 75, 64
2, 1580224, Note_off_c, 0, 47, 64
2, 1580230, Note_off_c, 0, 51, 64
2, 1580272, Note_on_c, 0, 63, 70
2, 1580273, Note_on_c, 0, 54, 53
2, 1580304, Note_off_c, 0, 71, 64
2, 1580313, Note_off_c, 0, 58, 64
2, 1580313, Note_off_c, 0, 61, 64
2, 1580329, Note_off_c, 0, 51, 64
2, 1580337, Note_off_c, 0, 63, 64
2, 1580411, Note_off_c, 0, 61, 64
2, 1580417, Note_off_c, 0, 61, 64
2, 1580463, Note_on_c, 0, 61, 58
2, 1580473, Note_off_c, 0, 63, 64
2, 1580545, Note_on_c, 0, 66, 60
2, 1580558, Note_on_c, 0, 54, 39
2, 1580561, Note_on_c, 0, 59, 71
2, 1580564, Note_off_c, 0, 59, 64
2, 1580564, Note_off_c, 0, 64, 64
2, 1580564, Note_off_c, 0, 75, 64
2, 1580570, Note_on_c, 0, 75, 73
2, 1580571, Note_on_c, 0, 64, 50
2, 1580572, Note_on_c, 0, 54, 40
2, 1580572, Note_on_c, 0, 47, 50
2, 1580580, Control_c, 0, 64, 0
2, 1580592, Note_off_c, 0, 58, 64
2, 1580596, Control_c, 0, 64, 127
2, 1580734, Note_off_c, 0, 54, 64
2, 1580734, Note_off_c, 0, 54, 64
2, 1580733, Note_off_c, 0, 63, 64
2, 1580793, Note_on_c, 0, 47, 66
2, 1580794, Note_on_c, 0, 54, 52
2, 1580823, Note_off_c, 0, 54, 64
2, 1580828, Note_off_c, 0, 58, 64
2, 1580892, Control_c, 0, 64, 0
2, 1580892, Control_c, 0, 64, 127
2, 1580965, Note_on_c, 0, 70, 49
2, 1580966, Note_on_c, 0, 44, 9
2, 1580983, Control_c, 0, 64, 127
2, 1580986, Note_off_c, 0, 66, 64
2, 1580986, Note_on_c, 0, 68, 48
2, 1580987, Note_on_c, 0, 57, 44
2, 1580993, Note_on_c, 0, 61, 46
2, 1580995, Note_on_c, 0, 47, 57
2, 1581013, Note_off_c, 0, 52, 64
2, 1581043, Control_c, 0, 64, 127
2, 1581163, Note_off_c, 0, 59, 64
2, 1581163, Note_off_c, 0, 63, 64
2, 1581170, Note_off_c, 0, 47, 64
2, 1581170, Note_off_c, 0, 61, 64
2, 1581211, Control_c, 0, 64, 0
2, 1581223, Note_on_c, 0, 68, 62
2, 1581231, Note_on_c, 0, 56, 53
2, 1581234, Note_off_c, 0, 73, 64
2, 1581245, Note_off_c, 0, 51, 64
2, 1581248, Note_off_c, 0, 59, 64
2, 1581258, Note_on_c, 0, 75, 63
2, 1581267, Note_off_c, 0, 71, 64
2, 1581289, Note_on_c, 0, 75, 62
2, 1581295, Note_off_c, 0, 63, 64
2, 1581303, Note_off_c, 0, 66, 64
2, 1581314, Note_on_c, 0, 80, 70
2, 1581340, Note_on_c, 0, 92, 78
2, 1581365, Note_off_c, 0, 69, 64
2, 1581368, Control_c, 0, 64, 0
2, 1581384, Note_off_c, 0, 70, 64
2, 1581388, Control_c, 0, 64, 127
2, 1581521, Note_on_c, 0, 76, 43
2, 1581525, Note_on_c, 0, 48, 27
2, 1581525, Control_c, 0, 64, 0
2, 1581544, Control_c, 0, 64, 127
2, 1581613, Note_on_c, 0, 70, 44
2, 1581629, Note_off_c, 0, 75, 64
2, 1581635, Note_off_c, 0, 76, 64
2, 1581662, Note_on_c, 0, 72, 41
2, 1581673, Note_off_c, 0, 50, 64
2, 1581738, Note_off_c, 0, 70, 64
2, 1581759, Note_on_c, 0, 54, 27
2, 1581781, Note_on_c, 0, 69, 49
2, 1581791, Note_on_c, 0, 62, 41
2, 1581854, Note_off_c, 0, 47, 64
2, 1581862, Control_c, 0, 64, 0
2, 1581880, Note_off_c, 0, 64, 64
2, 1581912, Control_c, 0, 64, 127
2, 1581929, Note_on_c, 0, 63, 47
2, 1581930, Note_on_c, 0, 61, 38
2, 1581970, Note_off_c, 0, 42, 64
2, 1582064, Note_off_c, 0, 70, 64
2, 1582088, Note_on_c, 0, 78, 52
2, 1582099, Note_off_c, 0, 71, 64
2, 1582117, Note_on_c, 0, 76, 51
2, 1582141, Note_off_c, 0, 75, 64
2, 1582140, Note_on_c, 0, 78, 41
2, 1582140, Note_on_c, 0, 66, 50
2, 1582141, Note_on_c, 0, 58, 34
2, 1582142, Note_on_c, 0, 64, 11
2, 1582145, Note_off_c, 0, 75, 64
2, 1582151, Note_off_c, 0, 71, 64
2, 1582180, Note_off_c, 0, 47, 64
2, 1582180, Note_off_c, 0, 68, 64
2, 1582405, Note_on_c, 0, 54, 27
2, 1582430, Note_off_c, 0, 66, 64
2, 1582438, Note_on_c, 0, 54, 38
2, 1582439, Note_on_c, 0, 50, 24
2, 1582503, Control_c, 0, 64, 0
2, 1582534, Note_off_c, 0, 52, 64
2, 1582560, Control_c, 0, 64, 0
2, 1582595, Control_c, 0, 64, 127
2, 1582728, Note_on_c, 0, 47, 49
2, 1582755, Control_c, 0, 64, 0
2, 1582792, Note_on_c, 0, 51, 46
2, 1582793, Note_on_c, 0, 65, 51
2, 1582800, Control_c, 0, 64, 0
2, 1582803, Control_c, 0, 64, 0
2, 1582819, Control_c, 0, 64, 127
2, 1582870, Control_c, 0, 64, 127
2, 1582979, Note_off_c, 0, 51, 64
2, 1583008, Note_off_c, 0, 61, 64
2, 1583030, Control_c, 0, 64, 0
2, 1583092, Control_c, 0, 64, 127
2, 1583100, Note_off_c, 0, 59, 64
2, 1583188, Control_c, 0, 64, 0
2, 1583197, Note_on_c, 0, 35, 39
2, 1583199, Note_on_c, 0, 59, 44
2, 1583231, Note_on_c, 0, 54, 36
2, 1583243, Note_on_c, 0, 57, 17
2, 1583262, Control_c, 0, 64, 0
2, 1583284, Control_c, 0, 64, 127
2, 1583329, Control_c, 0, 64, 0
2, 1583334, Note_off_c, 0, 70, 64
2, 1583340, Control_c, 0, 64, 127
2, 1583356, Note_on_c, 0, 56, 31
2, 1583370, Note_off_c, 0, 73, 64
2, 1583426, Note_on_c, 0, 59, 26
2, 1583432, Note_off_c, 0, 61, 64
2, 1583434, Note_off_c, 0, 65, 64
2, 1583436, Note_off_c, 0, 60, 64
2, 1583441, Note_off_c, 0, 56, 64
2, 1583446, Note_on_c, 0, 54, 36
2, 1583495, Note_on_c, 0, 59, 32
2, 1583502, Note_on_c, 0, 58, 34
2, 1583503, Note_on_c, 0, 47, 36
2, 1583513, Note_on_c, 0, 39, 32
2, 1583528, Note_off_c, 0, 81, 64
2, 1583533, Note_off_c, 0, 73, 64
2, 1583535, Note_on_c, 0, 72, 41
2, 1583538, Note_on_c, 0, 68, 36
2, 1583578, Control_c, 0, 64, 0
2, 1583717, Note_off_c, 0, 51, 64
2, 1583831, Note_on_c, 0, 73, 49
2, 1583846, Control_c, 0, 64, 0
2, 1583864, Note_on_c, 0, 78, 50
2, 1583865, Note_on_c, 0, 79, 59
2, 1583869, Note_off_c, 0, 59, 64
2, 1583876, Note_off_c, 0, 67, 64
2, 1583927, Control_c, 0, 64, 0
2, 1583927, Control_c, 0, 64, 0
2, 1583940, Control_c, 0, 64, 127
2, 1583976, Note_on_c, 0, 75, 58
2, 1583987, Note_on_c, 0, 46, 47
2, 1584015, Note_off_c, 0, 74, 64
2, 1584158, Note_on_c, 0, 76, 49
2, 1584169, Note_off_c, 0, 79, 64
2, 1584233, Note_on_c, 0, 71, 58
2, 1584236, Note_on_c, 0, 57, 39
2, 1584237, Note_on_c, 0, 54, 20
2, 1584244, Note_on_c, 0, 59, 41
2, 1584271, Control_c, 0, 64, 0
2, 1584282, Control_c, 0, 64, 127
2, 1584363, Note_on_c, 0, 68, 56
2, 1584380, Note_off_c, 0, 71, 64
2, 1584409, Note_off_c, 0, 58, 64
2, 1584517, Note_off_c, 0, 61, 64
2, 1584519, Note_off_c, 0, 59, 64
2, 1584522, Note_off_c, 0, 66, 64
2, 1584537, Note_off_c, 0, 51, 64
2, 1584572, Note_on_c, 0, 35, 50
2, 1584584, Note_on_c, 0, 54, 56
2, 1584589, Note_on_c, 0, 59, 41
2, 1584605, Control_c, 0, 64, 0
2, 1584637, Note_off_c, 0, 51, 64
2, 1584650, Control_c, 0, 64, 127
2, 1584681, Note_off_c, 0, 58, 64
2, 1584877, Control_c, 0, 64, 0
2, 1584928, Control_c, 0, 64, 127
2, 1584968, Note_on_c, 0, 54, 27
2, 1584984, Note_on_c, 0, 57, 28
2, 1584989, Note_on_c, 0, 51, 26
2, 1585040, Note_off_c, 0, 63, 64
2, 1585049, Note_on_c, 0, 54, 12
2, 1585068, Note_off_c, 0, 54, 64
2, 1585114, Note_off_c, 0, 52, 64
2, 1585138, Control_c, 0, 64, 0
2, 1585143, Control_c, 0, 64, 127
2, 1585214, Note_on_c, 0, 64, 37
2, 1585215, Note_on_c, 0, 63, 31
2, 1585334, Note_off_c, 0, 59, 64
2, 1585347, Note_off_c, 0, 61, 64
2, 1585358, Note_off_c, 0, 59, 64
2, 1585376, Note_off_c, 0, 63, 64
2, 1585398, Control_c, 0, 64, 0
2, 1585492, Control_c, 0, 64, 127
2, 1585590, Note_off_c, 0, 57, 64
2, 1585592, Note_off_c, 0, 54, 64
2, 1585709, Note_on_c, 0, 64, 19
2, 1585739, Control_c, 0, 64, 0
2, 1585760, Note_off_c, 0, 58, 64
2, 1585760, Control_c, 0, 64, 127
2, 1585775, Note_off_c, 0, 61, 64
2, 1585776, Note_off_c, 0, 65, 64
2, 1585814, Note_on_c, 0, 54, 37
2, 1585815, Note_on_c, 0, 64, 52
2, 1585831, Note_off_c, 0, 68, 64
2, 1585833, Note_off_c, 0, 62, 64
2, 1585838, Note_on_c, 0, 47, 36
2, 1585885, Note_on_c, 0, 68, 46
2, 1585892, Note_on_c, 0, 61, 36
2, 1585901, Control_c, 0, 64, 0
2, 1585945, Control_c, 0, 64, 0
2, 1585950, Control_c, 0, 64, 127
2, 1586046, Note_on_c, 0, 72, 54
2, 1586046, Note_on_c, 0, 64, 19
2, 1586060, Note_on_c, 0, 43, 37
2, 1586831, 1, 0, 69, 64
2, 1586824, Note_off_c, 0, 76, 64
2, 1586857, Note_off_c, 0, 51, 64
2, 1586992, Note_on_c, 0, 67, 51
2, 1587018, Control_c, 0, 64, 0
2, 1587052, Note_on_c, 0, 76, 64
2, 1587052, Note_on_c, 0, 72, 72
2, 1587052, Note_on_c, 0, 64, 41
2, 1587053, Note_on_c, 0, 54, 39
2, 1587065, Note_on_c, 0, 54, 30
2, 1587067, Note_on_c, 0, 54, 41
2, 1587119, Note_off_c, 0, 64, 64
2, 1587130, Note_on_c, 0, 64, 47
2, 1587134, Note_on_c, 0, 61, 51
2, 1587159, Control_c, 0, 64, 127
2, 1587175, Control_c, 0, 64, 0
2, 1587195, Control_c, 0, 64, 127
2, 1587631, Note_off_c, 0, 58, 64
2, 1587635, Note_off_c, 0, 59, 64
2, 1587636, Note_off_c, 0, 46, 64
2, 1587690, Note_on_c, 0, 75, 63
2, 1587697, Note_on_c, 0, 63, 51
2, 1587698, Note_on_c, 0, 64, 42
2, 1587701, Note_on_c, 0, 70, 55
2, 1587788, Control_c, 0, 64, 0
2, 1587937, Control_c, 0, 64, 127
2, 1588106, Note_off_c, 0, 47, 64
2, 1588126, Note_off_c, 0, 51, 64
2, 1588129, Note_off_c, 0, 53, 64
2, 1588129, Note_off_c, 0, 56, 64
2, 1588129, Note_off_c, 0, 54, 64
2, 1588147, Note_off_c, 0, 34, 64
2, 1588191, Note_on_c, 0, 55, 36
2, 1588215, Note_off_c, 0, 75, 64
2, 1588228, Control_c, 0, 64, 0
2, 1588246, Control_c, 0, 64, 127
2, 1588539, Control_c, 0, 64, 0
2, 1588589, Control_c, 0, 64, 0
2, 1588605, Note_off_c, 0, 51, 64
2, 1588610, Note_off_c, 0, 63, 64
2, 1588623, Note_off_c, 0, 51, 64
2, 1588634, Control_c, 0, 64, 127
2, 1588700, Note_on_c, 0, 71, 32
2, 1588747, Note_off_c, 0, 68, 64
2, 1588749, Note_off_c, 0, 54, 64
2, 1588782, Note_on_c, 0, 75, 52
2, 1588795, Note_on_c, 0, 68, 51
2, 1588834, Note_off_c, 0, 71, 64
2, 1588870, Note_on_c, 0, 56, 48
2, 1588870, Note_on_c, 0, 58, 38
2, 1588871, Note_off_c, 0, 66, 64
2, 1588879, Note_off_c, 0, 54, 64
2, 1588881, Note_off_c, 0, 64, 64
2, 1588899, Note_on_c, 0, 55, 26
2, 1588914, Note_off_c, 0, 73, 64
2, 1589050, Note_on_c, 0, 75, 42
2, 1589059, Note_on_c, 0, 68, 39
2, 1589063, Control_c, 0, 64, 127
2, 1589065, Note_on_c, 0, 59, 32
2, 1589065, Note_on_c, 0, 58, 46
2, 1589077, Note_off_c, 0, 54, 64
2, 1589083, Note_off_c, 0, 56, 64
2, 1589086, Note_off_c, 0, 57, 64
2, 1589108, Note_on_c, 0, 47, 44
2, 1589111, Note_on_c, 0, 66, 45
2, 1589112, Note_on_c, 0, 63, 52
2, 1589117, Note_on_c, 0, 60, 55
2, 1589123, Note_off_c, 0, 54, 64
2, 1589130, Note_on_c, 0, 70, 59
2, 1589134, Note_on_c, 0, 75, 53
2, 1589134, Note_on_c, 0, 61, 58
2, 1589153, Note_off_c, 0, 76, 64
2, 1589156, Note_on_c, 0, 61, 54
2, 1589200, Note_off_c, 0, 67, 64
2, 1589219, Note_on_c, 0, 56, 32
2, 1589219, Note_on_c, 0, 56, 21
2, 1589223, Note_on_c, 0, 64, 25
2, 1589234, Control_c, 0, 64, 0
2, 1589242, Control_c, 0, 64, 127
2, 1589249, Note_off_c, 0, 63, 64
2, 1589264, Note_off_c, 0, 59, 64
2, 1589269, Note_off_c, 0, 57, 64
2, 1589269, Note_off_c, 0, 65, 64
2, 1589269, Note_off_c, 0, 55, 64
2, 1589276, Note_off_c, 0, 68, 64
2, 1589357, Note_on_c, 0, 63, 53
2, 1589359, Note_on_c, 0, 47, 51
2, 1589361, Note_on_c, 0, 75, 52
2, 1589365, Note_on_c, 0, 57, 46
2, 1589370, Control_c, 0, 64, 0
2, 1589373, Note_off_c, 0, 75, 64
2, 1589388, Control_c, 0, 64, 127
2, 1589555, Note_off_c, 0, 52, 64
2, 1589559, Note_off_c, 0, 64, 64
2, 1589569, Note_off_c, 0, 66, 64
2, 1589602, Note_on_c, 0, 68, 52
2, 1589609, Note_on_c, 0, 59, 49
2, 1589614, Note_on_c, 0, 71, 43
2, 1589616, Note_off_c, 0, 61, 64
2, 1589629, Note_off_c, 0, 51, 64
2, 1589637, Note_off_c, 0, 54, 64
2, 1589639, Note_off_c, 0, 66, 64
2, 1589651, Note_off_c, 0, 59, 64
2, 1589681, Note_on_c, 0, 50, 50
2, 1589690, Note_on_c, 0, 68, 46
2, 1589691, Note_on_c, 0, 47, 46
2, 1589700, Note_on_c, 0, 63, 49
2, 1589701, Note_on_c, 0, 63, 49
2, 1589717, Note_off_c, 0, 55, 64
2, 1589743, Note_off_c, 0, 55, 64
2, 1589758, Note_off_c, 0, 55, 64
2, 1589762, Note_on_c, 0, 66, 70
2, 1589774, Control_c, 0, 64, 127
2, 1589800, Note_off_c, 0, 41, 64
2, 1589802, Note_off_c, 0, 52, 64
2, 1589807, Note_off_c, 0, 66, 64
2, 1589921, Control_c, 0, 64, 0
2, 1589929, Control_c, 0, 64, 0
2, 1589929, Note_on_c, 0, 66, 71
2, 1598930, Note_on_c, 0, 75, 66
2, 1598933, Note_on_c, 0, 38, 72
2, 1598929, Note_off_c, 0, 70, 64
2, 1598930, Control_c, 0, 64, 0
2, 1598886, Note_off_c, 0, 75, 64
2, 1598915, Note_off_c, 0, 66, 64
2, 1598943, Control_c, 0, 64, 127
2, 1598970, Note_on_c, 0, 49, 38
2, 1598971, Note_on_c, 0, 57, 36
2, 1598976, Note_on_c, 0, 74, 41
2, 1598985, Note_on_c, 0, 66, 45
2, 1598987, Note_on_c, 0, 59, 31
2, 1598987, Note_on_c, 0, 64, 46
2, 1599005, Control_c, 0, 64, 127
2, 1599021, Note_off_c, 0, 64, 64
2, 1599052, Note_on_c, 0, 54, 42
2, 1599053, Note_on_c, 0, 64, 42
2, 1599060, Note_on_c, 0, 63, 50
2, 1599064, Note_on_c, 0, 68, 67
2, 1599069, Note_off_c, 0, 64, 64
2, 1599092, Note_off_c, 0, 54, 64
2, 1599095, Note_off_c, 0, 67, 64
2, 1599156, Note_on_c, 0, 68, 62
2, 1599161, Note_off_c, 0, 71, 64
2, 1599162, Note_off_c, 0, 71, 64
2, 1599178, Note_off_c, 0, 54, 64
2, 1599179, Note_on_c, 0, 54, 49
2, 1599213, Note_off_c, 0, 64, 64
2, 1599241, Note_on_c, 0, 64, 54
2, 1599266, Control_c, 0, 64, 0
2, 1599268, Note_off_c, 0, 61, 64
2, 1599270, Control_c, 0, 64, 127
2, 1599298, Note_off_c, 0, 54, 64
2, 1599298, Note_off_c, 0, 63, 64
2, 1599298, Note_off_c, 0, 58, 64
2, 1599299, Note_on_c, 0, 52, 77
2, 1599302, Note_on_c, 0, 64, 72
2, 1598332, Note_off_c, 0, 66, 64
2, 1598334, Note_off_c, 0, 54, 64
2, 1598411, Note_on_c, 0, 59, 62
2, 1598416, Note_on_c, 0, 64, 44
2, 1598416, Note_on_c, 0, 55, 47
2, 1598421, Note_on_c, 0, 47, 43
2, 1598436, Note_off_c, 0, 80, 64
2, 1598480, Note_off_c, 0, 53, 64
2, 1598509, Note_on_c, 0, 71, 52
2, 1598509, Note_on_c, 0, 51, 27
2, 1598518, Note_on_c, 0, 56, 22
2, 1598525, Control_c, 0, 64, 0
2, 1598525, Note_on_c, 0, 65, 46
2, 1598526, Note_on_c, 0, 54, 16
2, 1598529, Note_on_c, 0, 59, 33
2, 1598530, Note_on_c, 0, 66, 49
2, 1598540, Note_off_c, 0, 71, 64
2, 1598565, Control_c, 0, 64, 0
2, 1598655, Note_off_c, 0, 35, 64
2, 1598656, Control_c, 0, 64, 127
2, 1598703, Control_c, 0, 64, 0
2, 1598733, Note_on_c, 0, 61, 94
2, 1598740, Note_on_c, 0, 66, 70
2, 1598752, Note_off_c, 0, 68, 64
2, 1598750, Note_off_c, 0, 59, 64
2, 1598750, Note_off_c, 0, 63, 64
2, 1598966, Note_on_c, 0, 63, 69
2, 1598968, Note_on_c, 0, 63, 63
2, 1598977, Note_off_c, 0, 47, 64
2, 1598978, Note_on_c, 0, 55, 51
2, 1599004, Note_on_c, 0, 61, 50
2, 1599005, Note_on_c, 0, 56, 50
2, 1599006, Note_on_c, 0, 59, 50
2, 1599009, Note_on_c, 0, 54, 54
2, 1599037, Note_off_c, 0, 54, 64
2, 1599038, Note_off_c, 0, 68, 64
2, 1599053, Note_on_c, 0, 66, 72
2, 1599067, Control_c, 0, 64, 0
2, 1599095, Note_off_c, 0, 50, 64
2, 1599099, Control_c, 0, 64, 127
2, 1599135, Note_off_c, 0, 66, 64
2, 1599135, Note_off_c, 0, 57, 64
2, 1599143, Note_off_c, 0, 71, 64
2, 1599144, Note_off_c, 0, 66, 64
2, 1599149, Note_on_c, 0, 64, 55
2, 1599153, Note_on_c, 0, 42, 57
2, 1599157, Note_on_c, 0, 63, 62
2, 1599188, Note_off_c, 0, 46, 64
2, 1599216, Note_off_c, 0, 54, 64
2, 1599228, Note_on_c, 0, 35, 52
2, 1599238, Note_on_c, 0, 52, 41
2, 1599245, Control_c, 0, 64, 0
2, 1599263, Control_c, 0, 64, 127
2, 1599323, Note_off_c, 0, 59, 64
2, 1599332, Note_on_c, 0, 75, 63
2, 1599337, Note_off_c, 0, 59, 64
2, 1599358, Note_off_c, 0, 68, 64
2, 1599363, Note_on_c, 0, 66, 62
2, 1599385, Note_off_c, 0, 54, 64
2, 1599388, Note_on_c, 0, 64, 48
2, 1599389, Note_on_c, 0, 68, 40
2, 1599391, Control_c, 0, 64, 0
2, 1599397, Control_c, 0, 64, 127
2, 1599424, Note_on_c, 0, 70, 69
2, 1599424, Note_on_c, 0, 55, 46
2, 1599426, Note_on_c, 0, 56, 53
2, 1599426, Note_on_c, 0, 32, 62
2, 1599426, Note_on_c, 0, 52, 51
2, 1599430, Note_on_c, 0, 75, 62
2, 1599432, Note_on_c, 0, 75, 66
2, 1599443, Note_off_c, 0, 71, 64
2, 1599456, Note_off_c, 0, 63, 64
2, 1599626, Note_on_c, 0, 76, 79
2, 1599653, Note_off_c, 0, 54, 64
2, 1599652, Note_on_c, 0, 59, 75
2, 1599697, Note_off_c, 0, 59, 64
2, 1599698, Note_off_c, 0, 75, 64
2, 1599778, Note_off_c, 0, 57, 64
2, 1599790, Note_off_c, 0, 55, 64
2, 1599793, Note_off_c, 0, 52, 64
2, 1599838, Note_on_c, 0, 53, 67
2, 1599840, Note_on_c, 0, 54, 33
2, 1599826, Note_off_c, 0, 61, 64
2, 1599876, Control_c, 0, 64, 127
2, 1599884, Note_on_c, 0, 66, 64
2, 1599885, Note_on_c, 0, 59, 64
2, 1599907, Note_off_c, 0, 71, 64
2, 1599898, Note_off_c, 0, 57, 64
2, 1599913, Note_on_c, 0, 60, 58
2, 1599921, Note_off_c, 0, 47, 64
2, 1599924, Control_c, 0, 64, 0
2, 1599948, Control_c, 0, 64, 127
2, 1599956, Note_off_c, 0, 64, 64
2, 1599956, Note_off_c, 0, 57, 64
2, 1599963, Note_off_c, 0, 61, 64
2, 1599964, Note_on_c, 0, 59, 51
2, 1599976, Note_on_c, 0, 69, 70
2, 1599976, Note_off_c, 0, 66, 64
2, 1599966, Note_off_c, 0, 66, 64
2, 1599997, Note_on_c, 0, 54, 41
2, 1599997, Note_on_c, 0, 59, 52
2, 1599999, Note_on_c, 0, 59, 36
2, 1599997, Note_on_c, 0, 47, 40
2, 1599998, Note_on_c, 0, 56, 27
2, 1600014, Note_off_c, 0, 55, 64
2, 1600050, Note_off_c, 0, 55, 64
2, 1600051, Note_off_c, 0, 63, 64
2, 1600073, Note_on_c, 0, 44, 64
2, 1600082, Control_c, 0, 64, 0
2, 1600094, Control_c, 0, 64, 127
2, 1600141, Note_on_c, 0, 61, 63
2, 1600145, Note_on_c, 0, 73, 62
2, 1600168, Note_off_c, 0, 60, 64
2, 1600181, Note_off_c, 0, 62, 64
2, 1600190, Note_off_c, 0, 62, 64
2, 1600199, Control_c, 0, 64, 127
2, 1600212, Note_off_c, 0, 42, 64
2, 1600326, Note_on_c, 0, 76, 58
2, 1600361, Note_off_c, 0, 71, 64
2, 1600524, Note_on_c, 0, 54, 57
2, 1600530, Note_on_c, 0, 73, 58
2, 1600546, Note_off_c, 0, 77, 64
2, 1600558, Control_c, 0, 64, 0
2, 1600568, Note_off_c, 0, 60, 64
2, 1600583, Control_c, 0, 64, 127
2, 1600584, Control_c, 0, 64, 127
2, 1600590, Note_off_c, 0, 62, 64
2, 1600603, Note_on_c, 0, 67, 52
2, 1600603, Note_on_c, 0, 55, 46
2, 1600604, Note_on_c, 0, 67, 43
2, 1600604, Note_on_c, 0, 54, 54
2, 1600644, Note_off_c, 0, 65, 64
2, 1600758, Note_off_c, 0, 51, 64
2, 1600754, Control_c, 0, 64, 0
2, 1600768, Control_c, 0, 64, 127
2, 1600826, Control_c, 0, 64, 0
2, 1600843, Note_on_c, 0, 63, 47
2, 1600843, Note_on_c, 0, 59, 38
2, 1600869, Note_off_c, 0, 58, 64
2, 1600879, Note_off_c, 0, 63, 64
2, 1600895, Note_off_c, 0, 64, 64
2, 1600897, Control_c, 0, 64, 127
2, 1601199, Note_off_c, 0, 47, 64
2, 1601225, Note_on_c, 0, 66, 47
2, 1601229, Note_on_c, 0, 63, 55
2, 1601229, Note_on_c, 0, 63, 58
2, 1601247, Control_c, 0, 64, 0
2, 1601249, Note_off_c, 0, 73, 64
2, 1601332, Note_off_c, 0, 55, 64
2, 1601339, Note_off_c, 0, 62, 64
2, 1601339, Note_off_c, 0, 59, 64
2, 1601371, Note_on_c, 0, 58, 56
2, 1601374, Note_on_c, 0, 70, 59
2, 1601374, Note_on_c, 0, 77, 54
2, 1601379, Note_on_c, 0, 62, 58
2, 1601391, Note_off_c, 0, 59, 64
2, 1601392, Note_off_c, 0, 54, 64
2, 1601391, Note_off_c, 0, 52, 64
2, 1601396, Note_off_c, 0, 64, 64
2, 1601396, Note_off_c, 0, 62, 64
2, 1601413, Control_c, 0, 64, 0
2, 1601415, Note_on_c, 0, 66, 61
2, 1601416, Note_on_c, 0, 45, 56
2, 1601433, Note_on_c, 0, 62, 56
2, 1601455, Control_c, 0, 64, 0
2, 1601479, Note_off_c, 0, 54, 64
2, 1601479, Note_off_c, 0, 61, 64
2, 1601488, Note_off_c, 0, 42, 64
2, 1601513, Note_off_c, 0, 64, 64
2, 1601514, Note_off_c, 0, 63, 64
2, 1601635, Note_on_c, 0, 69, 63
2, 1601625, Note_on_c, 0, 74, 62
2, 1601626, Note_on_c, 0, 65, 63
2, 1601634, Control_c, 0, 64, 0
2, 1601638, Control_c, 0, 64, 0
2, 1601651, Note_off_c, 0, 68, 64
2, 1601678, Note_off_c, 0, 48, 64
2, 1601678, Control_c, 0, 64, 127
2, 1601699, Control_c, 0, 64, 127
2, 1602003, Note_off_c, 0, 45, 64
2, 1602014, Note_off_c, 0, 56, 64
2, 1602016, Note_off_c, 0, 62, 64
2, 1602018, Note_off_c, 0, 58, 64
2, 1602035, Note_on_c, 0, 65, 67
2, 1602045, Note_on_c, 0, 44, 67
2, 1602046, Note_on_c, 0, 61, 43
2, 1602055, Note_on_c, 0, 76, 59
2, 1602072, Note_off_c, 0, 62, 64
2, 1602127, Control_c, 0, 64, 0
2, 1602149, Control_c, 0, 64, 127
2, 1602228, Control_c, 0, 64, 127
2, 1602270, Note_off_c, 0, 61, 64
2, 1602364, Note_on_c, 0, 58, 56
2, 1602366, Note_on_c, 0, 60, 52
2, 1602367, Note_on_c, 0, 63, 50
2, 1602383, Note_off_c, 0, 57, 64
2, 1602391, Note_off_c, 0, 58, 64
2, 1602397, Note_off_c, 0, 69, 64
2, 1602421, Note_off_c, 0, 56, 64
2, 1602135, Note_off_c, 0, 61, 64
2, 1602137, Note_off_c, 0, 59, 64
2, 1602147, Note_off_c, 0, 57, 64
2, 1602162, Note_off_c, 0, 47, 64
2, 1602175, Note_off_c, 0, 60, 64
2, 1602175, Note_off_c, 0, 51, 64
2, 1602180, Note_on_c, 0, 72, 63
2, 1602181, Note_on_c, 0, 67, 69
2, 1602181, Note_on_c, 0, 69, 63
2, 1602186, Note_on_c, 0, 48, 44
2, 1602189, Note_on_c, 0, 65, 64
2, 1602215, Note_off_c, 0, 63, 64
2, 1602217, Note_off_c, 0, 67, 64
2, 1602241, Note_off_c, 0, 63, 64
2, 1602243, Note_off_c, 0, 51, 64
2, 1602324, Note_on_c, 0, 67, 63
2, 1602372, Note_off_c, 0, 70, 64
2, 1602389, Control_c, 0, 64, 0
2, 1602399, Note_on_c, 0, 50, 44
2, 1602404, Note_on_c, 0, 71, 63
2, 1602439, Note_off_c, 0, 75, 64
2, 1602505, Note_on_c, 0, 63, 65
2, 1602506, Note_on_c, 0, 61, 63
2, 1602508, Note_on_c, 0, 58, 52
2, 1602508, Note_on_c, 0, 55, 39
2, 1602508, Note_on_c, 0, 59, 35
2, 1602509, Note_on_c, 0, 61, 46
2, 1602509, Control_c, 0, 64, 0
2, 1602511, Control_c, 0, 64, 0
2, 1602514, Control_c, 0, 64, 0
2, 1602523, Note_off_c, 0, 54, 64
2, 1602573, Control_c, 0, 64, 127
2, 1602746, Control_c, 0, 64, 127
2, 1602796, Note_off_c, 0, 59, 64
2, 1602795, Note_off_c, 0, 63, 64
2, 1602799, Note_off_c, 0, 56, 64
2, 1603040, Note_on_c, 0, 54, 51
2, 1603052, Note_off_c, 0, 71, 64
2, 1603053, Note_on_c, 0, 61, 46
2, 1603053, Note_on_c, 0, 34, 69
2, 1603054, Note_on_c, 0, 65, 62
2, 1603059, Note_on_c, 0, 64, 69
2, 1603065, Control_c, 0, 64, 0
2, 1603077, Control_c, 0, 64, 0
2, 1603091, Control_c, 0, 64, 127
2, 1603094, Control_c, 0, 64, 127
2, 1603146, Note_off_c, 0, 48, 64
2, 1603153, Note_off_c, 0, 72, 64
2, 1603171, Note_on_c, 0, 65, 34
2, 1603171, Note_on_c, 0, 62, 57
2, 1603174, Note_on_c, 0, 59, 40
2, 1603174, Note_on_c, 0, 63, 44
2, 1603175, Note_on_c, 0, 77, 48
2, 1603180, Note_off_c, 0, 70, 64
2, 1603211, Note_off_c, 0, 51, 64
2, 1603216, Note_off_c, 0, 63, 64
2, 1603216, Note_off_c, 0, 59, 64
2, 1603225, Note_on_c, 0, 56, 54
2, 1603226, Note_on_c, 0, 55, 36
2, 1603228, Note_on_c, 0, 47, 52
2, 1603268, Control_c, 0, 64, 0
2, 1603273, Note_off_c, 0, 74, 64
2, 1603278, Control_c, 0, 64, 0
2, 1603287, Control_c, 0, 64, 127
2, 1603306, Control_c, 0, 64, 127
2, 1603316, Note_off_c, 0, 59, 64
2, 1603321, Note_off_c, 0, 56, 64
2, 1603345, Note_on_c, 0, 62, 41
2, 1603348, Note_on_c, 0, 67, 56
2, 1603365, Note_off_c, 0, 72, 64
2, 1603365, Note_off_c, 0, 62, 64
2, 1603367, Note_off_c, 0, 65, 64
2, 1603370, Note_off_c, 0, 62, 64
2, 1603391, Note_off_c, 0, 64, 64
2, 1603425, Note_on_c, 0, 77, 50
2, 1603427, Note_on_c, 0, 40, 51
2, 1603454, Control_c, 0, 64, 0
2, 1603510, Control_c, 0, 64, 0
2, 1603531, Note_off_c, 0, 71, 64
2, 1603532, Note_off_c, 0, 73, 64
2, 1603536, Control_c, 0, 64, 127
2, 1603572, Note_off_c, 0, 53, 64
2, 1603580, Note_off_c, 0, 68, 64
2, 1603586, Note_off_c, 0, 60, 64
2, 1603650, Note_off_c, 0, 50, 64
2, 1603655, Note_on_c, 0, 65, 39
2, 1603637, Note_on_c, 0, 62, 33
2, 1604738, Note_on_c, 0, 68, 31
2, 1604852, Note_off_c, 0, 67, 64
2, 1604869, Note_off_c, 0, 57, 64
2, 1604869, Note_off_c, 0, 70, 64
2, 1604880, Note_on_c, 0, 56, 36
2, 1604894, Control_c, 0, 64, 0
2, 1604925, Control_c, 0, 64, 127
2, 1604929, Control_c, 0, 64, 127
2, 1604975, Control_c, 0, 64, 0
2, 1604988, Control_c, 0, 64, 127
2, 1605041, Note_on_c, 0, 66, 49
2, 1605046, Note_on_c, 0, 43, 42
2, 1605053, Note_on_c, 0, 64, 51
2, 1605067, Note_off_c, 0, 52, 64
2, 1605093, Note_on_c, 0, 61, 66
2, 1605093, Note_on_c, 0, 66, 56
2, 1605097, Note_off_c, 0, 54, 64
2, 1605099, Control_c, 0, 64, 0
2, 1605104, Note_off_c, 0, 64, 64
2, 1605109, Control_c, 0, 64, 127
2, 1605199, Note_on_c, 0, 68, 50
2, 1605203, Note_off_c, 0, 63, 64
2, 1605205, Note_on_c, 0, 60, 41
2, 1605205, Note_on_c, 0, 51, 54
2, 1605207, Note_on_c, 0, 55, 31
2, 1605212, Control_c, 0, 64, 127
2, 1605213, Control_c, 0, 64, 127
2, 1605222, Note_off_c, 0, 67, 64
2, 1605237, Note_off_c, 0, 50, 64
2, 1605263, Note_off_c, 0, 70, 64
2, 1605290, Note_on_c, 0, 55, 40
2, 1605292, Note_on_c, 0, 60, 57
2, 1605294, Note_on_c, 0, 51, 41
2, 1605302, Note_off_c, 0, 64, 64
2, 1605316, Note_off_c, 0, 60, 64
2, 1605318, Note_off_c, 0, 55, 64
2, 1605362, Note_off_c, 0, 64, 64
2, 1605368, Control_c, 0, 64, 0
2, 1605375, Note_on_c, 0, 63, 49
2, 1605391, Control_c, 0, 64, 0
2, 1605395, Control_c, 0, 64, 0
2, 1605408, Control_c, 0, 64, 127
2, 1605552, Note_on_c, 0, 44, 49
2, 1605552, Note_on_c, 0, 60, 58
2, 1605555, Note_on_c, 0, 50, 49
2, 1605559, Control_c, 0, 64, 0
2, 1605562, Control_c, 0, 64, 0
2, 1605614, Control_c, 0, 64, 127
2, 1605614, Control_c, 0, 64, 127
2, 1605742, Note_off_c, 0, 60, 64
2, 1605748, Note_off_c, 0, 64, 64
2, 1605749, Note_off_c, 0, 62, 64
2, 1605815, Note_on_c, 0, 60, 49
2, 1605822, Note_on_c, 0, 54, 50
2, 1605826, Note_on_c, 0, 70, 71
2, 1605969, Note_on_c, 0, 65, 36
2, 1605972, Note_off_c, 0, 63, 64
2, 1606395, Note_off_c, 0, 68, 64
2, 1606405, Note_on_c, 0, 62, 50
2, 1606424, Note_on_c, 0, 63, 44
2, 1606473, Control_c, 0, 64, 0
2, 1606481, Note_on_c, 0, 63, 47
2, 1606482, Note_on_c, 0, 58, 51
2, 1606535, Note_on_c, 0, 62, 46
2, 1606535, Control_c, 0, 64, 0
2, 1606536, Control_c, 0, 64, 0
2, 1606545, Control_c, 0, 64, 127
2, 1606625, Control_c, 0, 64, 127
2, 1606693, Control_c, 0, 64, 0
2, 1606696, Control_c, 0, 64, 0
2, 1606701, Control_c, 0, 64, 127
2, 1606710, Control_c, 0, 64, 127
2, 1607137, Note_on_c, 0, 62, 48
2, 1607148, Note_on_c, 0, 55, 56
2, 1607166, Note_off_c, 0, 71, 64
2, 1607206, Note_off_c, 0, 63, 64
2, 1607213, Note_on_c, 0, 48, 49
2, 1607218, Note_on_c, 0, 65, 51
2, 1607244, Note_off_c, 0, 67, 64
2, 1607570, Note_on_c, 0, 53, 43
2, 1607577, Control_c, 0, 64, 0
2, 1607579, Control_c, 0, 64, 0
2, 1607611, Control_c, 0, 64, 127
2, 1607612, Control_c, 0, 64, 127
2, 1607712, Note_on_c, 0, 56, 49
2, 1607712, Note_on_c, 0, 66, 34
2, 1607722, Note_on_c, 0, 65, 34
2, 1607734, Note_off_c, 0, 73, 64
2, 1607764, Control_c, 0, 64, 0
2, 1607796, Note_off_c, 0, 47, 64
2, 1607859, Control_c, 0, 64, 127
2, 1607917, Note_off_c, 0, 67, 64
2, 1607968, Note_off_c, 0, 64, 64
2, 1607976, Control_c, 0, 64, 0
2, 1607975, Control_c, 0, 64, 0
2, 1608006, Control_c, 0, 64, 127
2, 1608006, Control_c, 0, 64, 127
2, 1608069, Note_off_c, 0, 50, 64
2, 1608075, Note_off_c, 0, 71, 64
2, 1608124, Note_on_c, 0, 62, 69
2, 1608130, Note_on_c, 0, 75, 66
2, 1608145, Note_on_c, 0, 60, 39
2, 1608158, Note_off_c, 0, 71, 64
2, 1608246, Note_off_c, 0, 67, 64
2, 1608248, Note_off_c, 0, 62, 64
2, 1608263, Note_on_c, 0, 68, 55
2, 1608271, Note_on_c, 0, 54, 57
2, 1608278, Note_on_c, 0, 73, 62
2, 1608284, Note_off_c, 0, 65, 64
2, 1608295, Note_off_c, 0, 55, 64
2, 1608316, Note_off_c, 0, 63, 64
2, 1608331, Note_on_c, 0, 55, 65
2, 1608334, Note_on_c, 0, 60, 56
2, 1608336, Control_c, 0, 64, 0
2, 1608340, Note_off_c, 0, 44, 64
2, 1608343, Note_off_c, 0, 72, 64
2, 1608354, Note_off_c, 0, 58, 64
2, 1608364, Control_c, 0, 64, 0
2, 1608396, Control_c, 0, 64, 127
2, 1608415, Note_off_c, 0, 58, 64
2, 1608432, Control_c, 0, 64, 0
2, 1608433, Control_c, 0, 64, 0
2, 1608448, Control_c, 0, 64, 127
2, 1608448, Control_c, 0, 64, 127
2, 1608716, Note_on_c, 0, 61, 66
2, 1608725, Note_on_c, 0, 69, 51
2, 1608731, Note_off_c, 0, 50, 64
2, 1608759, Note_off_c, 0, 34, 64
2, 1608796, Note_on_c, 0, 54, 59
2, 1608803, Note_on_c, 0, 60, 54
2, 1608803, Note_on_c, 0, 41, 63
2, 1608845, Note_off_c, 0, 65, 64
2, 1608888, Note_on_c, 0, 72, 63
2, 1608893, Note_off_c, 0, 58, 64
2, 1608894, Note_off_c, 0, 67, 64
2, 1608899, Note_off_c, 0, 57, 64
2, 1608922, Note_on_c, 0, 54, 49
2, 1608926, Note_on_c, 0, 61, 58
2, 1608929, Note_off_c, 0, 76, 64
2, 1608929, Note_on_c, 0, 77, 57
2, 1608937, Note_off_c, 0, 70, 64
2, 1608936, Note_off_c, 0, 75, 64
2, 1608956, Note_off_c, 0, 65, 64
2, 1608962, Note_off_c, 0, 64, 64
2, 1608980, Control_c, 0, 64, 127
2, 1609021, Control_c, 0, 64, 127
2, 1609050, Note_on_c, 0, 75, 67
2, 1609078, Note_off_c, 0, 65, 64
2, 1609142, Note_off_c, 0, 57, 64
2, 1609168, Control_c, 0, 64, 0
2, 1609180, Note_off_c, 0, 50, 64
2, 1609196, Control_c, 0, 64, 127
2, 1609207, Note_on_c, 0, 68, 66
2, 1609207, Note_on_c, 0, 60, 50
2, 1609211, Note_on_c, 0, 63, 49
2, 1609214, Note_on_c, 0, 55, 47
2, 1609219, Note_on_c, 0, 56, 52
2, 1609220, Note_on_c, 0, 64, 67
2, 1609230, Note_off_c, 0, 37, 64
2, 1609236, Note_on_c, 0, 63, 56
2, 1609249, Control_c, 0, 64, 0
2, 1609264, Control_c, 0, 64, 127
2, 1609515, Note_off_c, 0, 55, 64
2, 1609559, Note_off_c, 0, 72, 64
2, 1609617, Note_on_c, 0, 66, 41
2, 1609621, Note_off_c, 0, 43, 64
2, 1609633, Note_on_c, 0, 66, 52
2, 1609634, Note_on_c, 0, 56, 52
2, 1609638, Note_off_c, 0, 56, 64
2, 1609639, Note_off_c, 0, 67, 64
2, 1609699, Note_off_c, 0, 65, 64
2, 1609719, Note_on_c, 0, 65, 47
2, 1609722, Control_c, 0, 64, 0
2, 1609723, Note_off_c, 0, 66, 64
2, 1609768, Control_c, 0, 64, 127
2, 1609808, Note_off_c, 0, 41, 64
2, 1618924, Note_off_c, 0, 61, 64
2, 1618932, Note_off_c, 0, 55, 64
2, 1618979, Note_on_c, 0, 67, 56
2, 1618979, Note_on_c, 0, 54, 49
2, 1618999, Note_off_c, 0, 62, 64
2, 1619009, Note_on_c, 0, 66, 54
2, 1619011, Note_on_c, 0, 66, 46
2, 1619015, Note_on_c, 0, 67, 74
2, 1619020, Note_off_c, 0, 66, 64
2, 1619022, Note_off_c, 0, 57, 64
2, 1619024, Note_off_c, 0, 60, 64
2, 1619026, Note_off_c, 0, 66, 64
2, 1619029, Note_off_c, 0, 57, 64
2, 1619053, Control_c, 0, 64, 0
2, 1619092, Note_off_c, 0, 58, 64
2, 1619115, Note_on_c, 0, 63, 57
2, 1619121, Note_on_c, 0, 75, 62
2, 1619159, Control_c, 0, 64, 0
2, 1619168, Control_c, 0, 64, 0
2, 1619192, Control_c, 0, 64, 127
2, 1619207, Control_c, 0, 64, 127
2, 1619256, Note_off_c, 0, 57, 64
2, 1619272, Note_off_c, 0, 56, 64
2, 1619275, Note_off_c, 0, 61, 64
2, 1619279, Note_off_c, 0, 47, 64
2, 1619288, Note_on_c, 0, 60, 49
2, 1619300, Note_on_c, 0, 48, 58
2, 1619302, Note_on_c, 0, 67, 56
2, 1619304, Note_on_c, 0, 65, 62
2, 1619311, Control_c, 0, 64, 0
2, 1619313, Control_c, 0, 64, 0
2, 1619332, Note_off_c, 0, 75, 64
2, 1619332, Control_c, 0, 64, 0
2, 1619341, Control_c, 0, 64, 127
2, 1619354, Note_on_c, 0, 52, 50
2, 1619361, Note_on_c, 0, 67, 59
2, 1619361, Note_on_c, 0, 57, 52
2, 1619367, Note_off_c, 0, 57, 64
2, 1619367, Note_off_c, 0, 72, 64
2, 1619388, Note_on_c, 0, 56, 52
2, 1619390, Note_on_c, 0, 66, 41
2, 1619390, Note_on_c, 0, 41, 58
2, 1619409, Note_off_c, 0, 66, 64
2, 1619415, Note_off_c, 0, 63, 64
2, 1619418, Note_off_c, 0, 72, 64
2, 1619436, Note_on_c, 0, 66, 67
2, 1619482, Note_off_c, 0, 65, 64
2, 1619489, Note_off_c, 0, 66, 64
2, 1619495, Note_on_c, 0, 75, 59
2, 1619519, Note_off_c, 0, 77, 64
2, 1619537, Note_off_c, 0, 80, 64
2, 1619556, Note_on_c, 0, 76, 52
2, 1619594, Note_off_c, 0, 72, 64
2, 1619605, Note_off_c, 0, 72, 64
2, 1619615, Control_c, 0, 64, 0
2, 1619615, Control_c, 0, 64, 0
2, 1619621, Note_on_c, 0, 75, 66
2, 1619625, Note_on_c, 0, 75, 62
2, 1619631, Note_on_c, 0, 64, 56
2, 1619631, Note_on_c, 0, 54, 56
2, 1619634, Note_off_c, 0, 65, 64
2, 1619633, Note_off_c, 0, 71, 64
2, 1619661, Note_on_c, 0, 67, 50
2, 1619662, Note_on_c, 0, 51, 56
2, 1619679, Control_c, 0, 64, 0
2, 1619683, Control_c, 0, 64, 0
2, 1619685, Control_c, 0, 64, 127
2, 1619693, Control_c, 0, 64, 127
2, 1619706, Note_on_c, 0, 55, 62
2, 1619718, Note_off_c, 0, 63, 64
2, 1619718, Control_c, 0, 64, 0
2, 1619727, Note_on_c, 0, 68, 64
2, 1619728, Note_on_c, 0, 44, 58
2, 1619741, Control_c, 0, 64, 127
2, 1619754, Note_off_c, 0, 59, 64
2, 1619763, Note_off_c, 0, 73, 64
2, 1619795, Control_c, 0, 64, 127
2, 1619816, Note_off_c, 0, 77, 64
2, 1619860, Note_off_c, 0, 66, 64
2, 1619866, Note_off_c, 0, 50, 64
2, 1619874, Note_on_c, 0, 75, 58
2, 1619881, Note_on_c, 0, 60, 56
2, 1619901, Note_on_c, 0, 73, 64
2, 1619905, Note_off_c, 0, 68, 64
2, 1619926, Control_c, 0, 64, 127
2, 1619959, Control_c, 0, 64, 127
2, 1619958, Note_off_c, 0, 69, 64
2, 1619959, Note_off_c, 0, 66, 64
2, 1619960, Note_off_c, 0, 42, 64
2, 1619973, Note_off_c, 0, 70, 64
2, 1619985, Note_off_c, 0, 66, 64
2, 1619985, Note_off_c, 0, 63, 64
2, 1620007, Note_off_c, 0, 58, 64
2, 1620027, Note_off_c, 0, 60, 64
2, 1620031, Note_off_c, 0, 62, 64
2, 1620046, Note_on_c, 0, 62, 66
2, 1620080, Note_off_c, 0, 75, 64
2, 1620082, Note_on_c, 0, 63, 63
2, 1620083, Note_on_c, 0, 59, 67
2, 1620085, Note_on_c, 0, 35, 66
2, 1620085, Note_on_c, 0, 60, 56
2, 1620125, Control_c, 0, 64, 0
2, 1620131, Control_c, 0, 64, 0
2, 1620142, Note_off_c, 0, 58, 64
2, 1620142, Control_c, 0, 64, 127
2, 1620176, Control_c, 0, 64, 127
2, 1620288, Note_off_c, 0, 69, 64
2, 1620427, Control_c, 0, 64, 0
2, 1620455, Note_off_c, 0, 67, 64
2, 1620460, Note_on_c, 0, 63, 51
2, 1620460, Note_on_c, 0, 60, 51
2, 1620465, Note_on_c, 0, 63, 52
2, 1620465, Note_on_c, 0, 62, 47
2, 1620466, Note_on_c, 0, 61, 44
2, 1620482, Control_c, 0, 64, 0
2, 1620490, Note_off_c, 0, 71, 64
2, 1620495, Control_c, 0, 64, 127
2, 1620509, Control_c, 0, 64, 127
2, 1620511, Note_off_c, 0, 64, 64
2, 1620513, Note_off_c, 0, 45, 64
2, 1620515, Note_off_c, 0, 47, 64
2, 1620524, Note_off_c, 0, 63, 64
2, 1620521, Note_off_c, 0, 63, 64
2, 1620523, Note_on_c, 0, 72, 50
2, 1620524, Note_on_c, 0, 73, 72
2, 1620529, Note_on_c, 0, 66, 51
2, 1620529, Note_on_c, 0, 56, 54
2, 1620535, Note_on_c, 0, 72, 60
2, 1620535, Note_on_c, 0, 47, 41
2, 1620554, Note_off_c, 0, 76, 64
2, 1620557, Control_c, 0, 64, 0
2, 1620579, Control_c, 0, 64, 127
2, 1620639, Control_c, 0, 64, 127
2, 1620641, Control_c, 0, 64, 127
2, 1620776, Note_off_c, 0, 65, 64
2, 1620774, Note_off_c, 0, 66, 64
2, 1620788, Note_on_c, 0, 61, 70
2, 1620806, Note_off_c, 0, 54, 64
2, 1620806, Note_off_c, 0, 68, 64
2, 1620820, Note_off_c, 0, 51, 64
2, 1620904, Note_on_c, 0, 61, 59
2, 1620921, Note_on_c, 0, 56, 32
2, 1620933, Control_c, 0, 64, 127
2, 1620938, Control_c, 0, 64, 127
2, 1621030, Note_on_c, 0, 55, 34
2, 1621032, Note_on_c, 0, 64, 54
2, 1621042, Control_c, 0, 64, 0
2, 1621058, Note_off_c, 0, 54, 64
2, 1621061, Note_off_c, 0, 43, 64
2, 1621094, Note_off_c, 0, 59, 64
2, 1621142, Note_on_c, 0, 63, 54
2, 1621142, Note_on_c, 0, 51, 58
2, 1621142, Note_on_c, 0, 59, 58
2, 1621145, Control_c, 0, 64, 0
2, 1621148, Note_off_c, 0, 68, 64
2, 1621152, Control_c, 0, 64, 127
2, 1621157, Control_c, 0, 64, 127
2, 1621176, Control_c, 0, 64, 0
2, 1621293, Note_off_c, 0, 39, 64
2, 1621299, Control_c, 0, 64, 127
2, 1621328, Note_off_c, 0, 47, 64
2, 1621330, Note_off_c, 0, 66, 64
2, 1621343, Note_on_c, 0, 64, 53
2, 1621350, Note_on_c, 0, 57, 54
2, 1621355, Note_on_c, 0, 59, 54
2, 1621377, Control_c, 0, 64, 127
2, 1621432, Note_off_c, 0, 81, 64
2, 1621433, Note_off_c, 0, 47, 64
2, 1621443, Note_off_c, 0, 66, 64
2, 1621460, Note_on_c, 0, 73, 59
2, 1621460, Note_on_c, 0, 66, 63
2, 1621460, Note_on_c, 0, 57, 56
2, 1621460, Control_c, 0, 64, 0
2, 1621461, Note_on_c, 0, 41, 58
2, 1621462, Note_off_c, 0, 58, 64
2, 1621467, Note_off_c, 0, 37, 64
2, 1621470, Note_off_c, 0, 59, 64
2, 1621515, Note_on_c, 0, 67, 51
2, 1621521, Note_off_c, 0, 61, 64
2, 1621521, Note_off_c, 0, 57, 64
2, 1621529, Note_on_c, 0, 75, 57
2, 1621540, Control_c, 0, 64, 127
2, 1621555, Control_c, 0, 64, 127
2, 1621572, Note_off_c, 0, 63, 64
2, 1621572, Note_off_c, 0, 54, 64
2, 1621594, Note_on_c, 0, 67, 57
2, 1621594, Note_on_c, 0, 60, 59
2, 1621603, Note_on_c, 0, 52, 57
2, 1621713, Control_c, 0, 64, 127
2, 1621718, Control_c, 0, 64, 0
2, 1621719, Control_c, 0, 64, 0
2, 1621729, Control_c, 0, 64, 127
2, 1621826, Control_c, 0, 64, 127
2, 1621840, Note_on_c, 0, 51, 50
2, 1621903, Note_off_c, 0, 66, 64
2, 1621913, Note_off_c, 0, 65, 64
2, 1621916, Note_off_c, 0, 60, 64
2, 1621941, Note_off_c, 0, 51, 64
2, 1621962, Note_on_c, 0, 50, 52
2, 1621964, Note_on_c, 0, 63, 54
2, 1621971, Note_on_c, 0, 59, 64
2, 1621976, Note_off_c, 0, 50, 64
2, 1621986, Note_off_c, 0, 60, 64
2, 1621989, Note_on_c, 0, 67, 58
2, 1621994, Note_off_c, 0, 47, 64
2, 1622047, Control_c, 0, 64, 0
2, 1622053, Control_c, 0, 64, 0
2, 1622097, Control_c, 0, 64, 127
2, 1622098, Control_c, 0, 64, 127
2, 1622098, Note_off_c, 0, 62, 64
2, 1622101, Note_off_c, 0, 56, 64
2, 1622109, Note_on_c, 0, 59, 32
2, 1622131, Note_on_c, 0, 60, 26
2, 1622134, Note_on_c, 0, 59, 40
2, 1622136, Note_on_c, 0, 59, 42
2, 1622138, Note_on_c, 0, 64, 58
2, 1622147, Note_off_c, 0, 51, 64
2, 1622151, Note_off_c, 0, 75, 64
2, 1622151, Control_c, 0, 64, 0
2, 1622156, Note_off_c, 0, 71, 64
2, 1622172, Control_c, 0, 64, 127
2, 1622185, Control_c, 0, 64, 127
2, 1622184, Note_off_c, 0, 64, 64
2, 1622186, Control_c, 0, 64, 0
2, 1622198, Note_off_c, 0, 64, 64
2, 1622198, Note_off_c, 0, 81, 64
2, 1622198, Note_off_c, 0, 57, 64
2, 1622197, Note_on_c, 0, 67, 54
2, 1622197, Note_on_c, 0, 61, 52
2, 1622211, Note_off_c, 0, 59, 64
2, 1622214, Note_off_c, 0, 59, 64
2, 1622214, Note_off_c, 0, 61, 64
2, 1622214, Note_off_c, 0, 54, 64
2, 1622227, Note_off_c, 0, 59, 64
2, 1622274, Note_on_c, 0, 75, 58
2, 1622276, Note_on_c, 0, 47, 58
2, 1622277, Note_on_c, 0, 63, 60
2, 1622278, Note_on_c, 0, 73, 73
2, 1622280, Control_c, 0, 64, 127
2, 1622281, Control_c, 0, 64, 0
2, 1622297, Control_c, 0, 64, 127
2, 1622607, Note_off_c, 0, 48, 64
2, 1622614, Note_off_c, 0, 61, 64
2, 1622615, Note_off_c, 0, 71, 64
2, 1622638, Note_off_c, 0, 66, 64
2, 1622648, Control_c, 0, 64, 0
2, 1622653, Note_on_c, 0, 71, 54
2, 1622676, Note_on_c, 0, 39, 64
2, 1622675, Note_on_c, 0, 54, 47
2, 1622683, Note_off_c, 0, 50, 64
2, 1622878, Note_off_c, 0, 59, 64
2, 1622904, Note_off_c, 0, 63, 64
2, 1622939, Note_off_c, 0, 63, 64
2, 1622949, Note_off_c, 0, 69, 64
2, 1622949, Note_on_c, 0, 75, 63
2, 1622947, Note_on_c, 0, 62, 70
2, 1622965, Note_off_c, 0, 71, 64
2, 1622965, Note_off_c, 0, 71, 64
2, 1623031, Note_on_c, 0, 68, 69
2, 1623032, Note_on_c, 0, 52, 49
2, 1623036, Control_c, 0, 64, 127
2, 1623055, Control_c, 0, 64, 0
2, 1623057, Note_off_c, 0, 66, 64
2, 1623059, Note_off_c, 0, 68, 64
2, 1623067, Control_c, 0, 64, 0
2, 1623075, Control_c, 0, 64, 127
2, 1623090, Note_off_c, 0, 47, 64
2, 1623096, Note_on_c, 0, 66, 51
2, 1623096, Note_on_c, 0, 51, 56
2, 1623096, Note_on_c, 0, 59, 56
2, 1623100, Note_on_c, 0, 51, 50
2, 1623102, Note_on_c, 0, 59, 54
2, 1623104, Control_c, 0, 64, 0
2, 1623115, Control_c, 0, 64, 127
2, 1623174, Note_on_c, 0, 64, 54
2, 1623175, Note_on_c, 0, 55, 54
2, 1623192, Note_off_c, 0, 38, 64
2, 1623197, Note_off_c, 0, 61, 64
2, 1623198, Control_c, 0, 64, 0
2, 1623203, Note_off_c, 0, 47, 64
2, 1623210, Note_off_c, 0, 63, 64
2, 1623212, Note_off_c, 0, 53, 64
2, 1623213, Note_off_c, 0, 54, 64
2, 1623212, Note_off_c, 0, 70, 64
2, 1623272, Note_off_c, 0, 49, 64
2, 1623271, Note_off_c, 0, 55, 64
2, 1623276, Note_off_c, 0, 63, 64
2, 1623277, Note_off_c, 0, 60, 64
2, 1623339, Note_on_c, 0, 42, 62
2, 1623353, Note_on_c, 0, 57, 52
2, 1623351, Note_on_c, 0, 55, 62
2, 1623354, Note_off_c, 0, 47, 64
2, 1623375, Control_c, 0, 64, 0
2, 1623397, Note_off_c, 0, 60, 64
2, 1623398, Control_c, 0, 64, 127
2, 1623405, Note_off_c, 0, 58, 64
2, 1623406, Note_off_c, 0, 62, 64
2, 1623425, Note_on_c, 0, 66, 62
2, 1623431, Note_on_c, 0, 71, 67
2, 1623433, Note_on_c, 0, 71, 64
2, 1623439, Note_on_c, 0, 57, 64
2, 1623439, Note_on_c, 0, 37, 54
2, 1623446, Note_off_c, 0, 68, 64
2, 1623446, Note_off_c, 0, 68, 64
2, 1623447, Note_off_c, 0, 51, 64
2, 1623450, Note_off_c, 0, 63, 64
2, 1623450, Note_on_c, 0, 76, 58
2, 1623463, Note_on_c, 0, 72, 58
2, 1623470, Note_off_c, 0, 71, 64
2, 1623504, Note_off_c, 0, 73, 64
2, 1623512, Note_off_c, 0, 37, 64
2, 1623557, Note_on_c, 0, 63, 62
2, 1623559, Note_on_c, 0, 44, 62
2, 1623560, Control_c, 0, 64, 0
2, 1623603, Note_on_c, 0, 71, 50
2, 1623619, Control_c, 0, 64, 127
2, 1623620, Note_off_c, 0, 61, 64
2, 1623622, Note_off_c, 0, 58, 64
2, 1623625, Note_off_c, 0, 55, 64
2, 1623672, Note_off_c, 0, 44, 64
2, 1623679, Note_on_c, 0, 65, 64
2, 1623683, Control_c, 0, 64, 0
2, 1623683, Control_c, 0, 64, 0
2, 1623873, Control_c, 0, 64, 127
2, 1623873, Control_c, 0, 64, 127
2, 1623954, Note_on_c, 0, 47, 32
2, 1623955, Note_on_c, 0, 47, 41
2, 1623959, Note_on_c, 0, 62, 42
2, 1623996, Note_on_c, 0, 55, 44
2, 1623996, Note_on_c, 0, 55, 64
2, 1624914, Note_off_c, 0, 61, 64
2, 1624919, Note_off_c, 0, 61, 64
2, 1624919, Note_off_c, 0, 44, 64
2, 1624919, Control_c, 0, 64, 127
2, 1624953, Note_off_c, 0, 54, 64
2, 1624957, Note_off_c, 0, 63, 64
2, 1624958, Note_off_c, 0, 71, 64
2, 1624972, Note_on_c, 0, 69, 46
2, 1624976, Note_on_c, 0, 65, 52
2, 1624983, Note_off_c, 0, 63, 64
2, 1624989, Note_on_c, 0, 39, 37
2, 1624997, Note_on_c, 0, 73, 61
2, 1625095, Note_off_c, 0, 44, 64
2, 1625099, Note_off_c, 0, 72, 64
2, 1625297, Note_on_c, 0, 54, 51
2, 1625298, Note_on_c, 0, 43, 63
2, 1625391, Control_c, 0, 64, 0
2, 1625394, Note_off_c, 0, 55, 64
2, 1625398, Note_off_c, 0, 50, 64
2, 1625401, Note_off_c, 0, 52, 64
2, 1625417, Control_c, 0, 64, 127
2, 1625427, Control_c, 0, 64, 127
2, 1625439, Note_on_c, 0, 67, 59
2, 1625439, Note_on_c, 0, 61, 64
2, 1625449, Control_c, 0, 64, 0
2, 1625450, Control_c, 0, 64, 0
2, 1625489, Control_c, 0, 64, 127
2, 1625509, Control_c, 0, 64, 127
2, 1625509, Note_on_c, 0, 67, 63
2, 1625538, Control_c, 0, 64, 0
2, 1625583, Control_c, 0, 64, 127
2, 1625601, Note_on_c, 0, 72, 64
2, 1625605, Note_on_c, 0, 60, 52
2, 1625606, Note_on_c, 0, 73, 52
2, 1625617, Note_on_c, 0, 63, 54
2, 1625630, Note_off_c, 0, 74, 64
2, 1625602, Note_off_c, 0, 76, 64
2, 1625616, Control_c, 0, 64, 0
2, 1625622, Control_c, 0, 64, 0
2, 1625622, Control_c, 0, 64, 0
2, 1625626, Note_on_c, 0, 42, 56
2, 1625629, Note_on_c, 0, 67, 74
2, 1625641, Control_c, 0, 64, 127
2, 1625643, Control_c, 0, 64, 127
2, 1625670, Note_on_c, 0, 63, 58
2, 1625680, Note_off_c, 0, 71, 64
2, 1625717, Note_on_c, 0, 40, 57
2, 1625734, Control_c, 0, 64, 127
2, 1625841, Control_c, 0, 64, 127
2, 1625873, Note_off_c, 0, 60, 64
2, 1625879, Note_off_c, 0, 59, 64
2, 1625877, Note_on_c, 0, 73, 55
2, 1625898, Note_off_c, 0, 66, 64
2, 1625898, Note_on_c, 0, 65, 51
2, 1625917, Note_off_c, 0, 65, 64
2, 1625919, Note_off_c, 0, 47, 64
2, 1625930, Control_c, 0, 64, 127
2, 1625931, Control_c, 0, 64, 127
2, 1625975, Note_off_c, 0, 59, 64
2, 1625981, Note_off_c, 0, 64, 64
2, 1625990, Note_on_c, 0, 65, 58
2, 1625995, Note_off_c, 0, 73, 64
2, 1625995, Note_on_c, 0, 43, 57
2, 1625999, Note_on_c, 0, 65, 59
2, 1626015, Note_off_c, 0, 59, 64
2, 1626083, Control_c, 0, 64, 127
2, 1626083, Control_c, 0, 64, 127
2, 1626092, Note_off_c, 0, 63, 64
2, 1626092, Note_off_c, 0, 60, 64
2, 1626093, Control_c, 0, 64, 0
2, 1626096, Control_c, 0, 64, 0
2, 1626139, Note_on_c, 0, 54, 50
2, 1626137, Note_on_c, 0, 57, 46
2, 1626139, Note_on_c, 0, 65, 55
2, 1626139, Note_on_c, 0, 59, 32
2, 1626145, Note_on_c, 0, 55, 46
2, 1626148, Note_off_c, 0, 68, 64
2, 1626164, Note_off_c, 0, 54, 64
2, 1626166, Note_off_c, 0, 59, 64
2, 1626204, Note_on_c, 0, 54, 41
2, 1626224, Note_off_c, 0, 59, 64
2, 1626240, Note_off_c, 0, 64, 64
2, 1626275, Note_on_c, 0, 67, 53
2, 1626275, Note_on_c, 0, 50, 57
2, 1626279, Note_on_c, 0, 59, 52
2, 1626281, Note_on_c, 0, 54, 75
2, 1626302, Note_off_c, 0, 67, 64
2, 1626414, Note_on_c, 0, 71, 65
2, 1626439, Control_c, 0, 64, 127
2, 1626439, Note_on_c, 0, 69, 65
2, 1626443, Note_on_c, 0, 65, 42
2, 1626447, Note_on_c, 0, 51, 50
2, 1626447, Note_on_c, 0, 64, 50
2, 1626450, Control_c, 0, 64, 0
2, 1626475, Note_off_c, 0, 43, 64
2, 1626509, Control_c, 0, 64, 127
2, 1626568, Control_c, 0, 64, 127
2, 1626568, Note_off_c, 0, 66, 64
2, 1626575, Note_off_c, 0, 63, 64
2, 1626579, Note_off_c, 0, 54, 64
2, 1626609, Note_on_c, 0, 55, 50
2, 1626613, Note_off_c, 0, 67, 64
2, 1626613, Note_on_c, 0, 70, 67
2, 1626617, Note_on_c, 0, 42, 48
2, 1626608, Note_off_c, 0, 71, 64
2, 1626608, Note_off_c, 0, 64, 64
2, 1626616, Note_off_c, 0, 51, 64
2, 1626619, Note_on_c, 0, 69, 65
2, 1626619, Note_on_c, 0, 49, 62
2, 1626620, Note_on_c, 0, 48, 50
2, 1626640, Control_c, 0, 64, 127
2, 1626652, Note_off_c, 0, 54, 64
2, 1626664, Note_off_c, 0, 47, 64
2, 1626675, Control_c, 0, 64, 127
2, 1626775, Note_off_c, 0, 52, 64
2, 1626777, Note_off_c, 0, 61, 64
2, 1626790, Note_off_c, 0, 59, 64
2, 1626930, Note_on_c, 0, 61, 62
2, 1626937, Note_off_c, 0, 68, 64
2, 1626939, Note_on_c, 0, 75, 68
2, 1626942, Control_c, 0, 64, 127
2, 1626945, Control_c, 0, 64, 127
2, 1626995, Note_on_c, 0, 69, 44
2, 1627006, Note_off_c, 0, 72, 64
2, 1627102, Control_c, 0, 64, 0
2, 1627028, Control_c, 0, 64, 127
2, 1627067, Note_off_c, 0, 64, 64
2, 1627069, Note_off_c, 0, 59, 64
2, 1627075, Note_off_c, 0, 60, 64
2, 1627109, Control_c, 0, 64, 0
2, 1627269, Control_c, 0, 64, 127
2, 1627269, Control_c, 0, 64, 127
2, 1627283, Note_on_c, 0, 60, 47
2, 1627309, Note_off_c, 0, 51, 64
2, 1627314, Note_on_c, 0, 74, 62
2, 1627314, Note_on_c, 0, 56, 52
2, 1627341, Control_c, 0, 64, 0
2, 1627358, Control_c, 0, 64, 127
2, 1627391, Note_off_c, 0, 65, 64
2, 1627441, Note_on_c, 0, 56, 54
2, 1627448, Note_on_c, 0, 38, 60
2, 1627452, Control_c, 0, 64, 0
2, 1627452, Note_on_c, 0, 59, 64
2, 1627460, Control_c, 0, 64, 127
2, 1627461, Control_c, 0, 64, 127
2, 1627530, Note_off_c, 0, 57, 64
2, 1627532, Note_off_c, 0, 45, 64
2, 1627552, Control_c, 0, 64, 127
2, 1627637, Note_on_c, 0, 56, 48
2, 1627633, Note_on_c, 0, 71, 48
2, 1627632, Note_off_c, 0, 68, 64
2, 1627705, Note_off_c, 0, 45, 64
2, 1627711, Note_on_c, 0, 62, 49
2, 1627712, Note_on_c, 0, 62, 46
2, 1627714, Control_c, 0, 64, 0
2, 1627725, Control_c, 0, 64, 127
2, 1627789, Note_off_c, 0, 48, 64
2, 1627796, Control_c, 0, 64, 0
2, 1627798, Control_c, 0, 64, 127
2, 1627996, Control_c, 0, 64, 127
2, 1628002, Note_off_c, 0, 68, 64
2, 1628013, Control_c, 0, 64, 127
2, 1628086, Note_off_c, 0, 62, 64
2, 1628100, Note_off_c, 0, 70, 64
2, 1628150, Note_on_c, 0, 65, 56
2, 1628168, Note_off_c, 0, 71, 64
2, 1628194, Note_on_c, 0, 67, 56
2, 1628194, Note_on_c, 0, 47, 58
2, 1628297, Note_on_c, 0, 73, 48
2, 1628307, Note_off_c, 0, 69, 64
2, 1628317, Control_c, 0, 64, 127
2, 1628342, Note_off_c, 0, 45, 64
2, 1628354, Note_off_c, 0, 62, 64
2, 1628394, Note_off_c, 0, 66, 64
2, 1628401, Note_off_c, 0, 78, 64
2, 1628593, Control_c, 0, 64, 0
2, 1628605, Note_on_c, 0, 77, 72
2, 1628623, Note_on_c, 0, 64, 54
2, 1628627, Note_off_c, 0, 36, 64
2, 1628630, Note_off_c, 0, 75, 64
2, 1628656, Note_on_c, 0, 67, 50
2, 1628663, Note_off_c, 0, 68, 64
2, 1628754, Note_on_c, 0, 56, 29
2, 1628811, Control_c, 0, 64, 0
2, 1628811, Note_off_c, 0, 75, 64
2, 1628824, Control_c, 0, 64, 127
2, 1628891, Note_off_c, 0, 63, 64
2, 1628893, Note_off_c, 0, 63, 64
2, 1628894, Note_off_c, 0, 60, 64
2, 1628900, Note_on_c, 0, 62, 58
2, 1628901, Note_on_c, 0, 47, 58
2, 1628904, Note_on_c, 0, 47, 55
2, 1628908, Control_c, 0, 64, 0
2, 1628908, Control_c, 0, 64, 0
2, 1628908, Note_off_c, 0, 64, 64
2, 1628908, Note_on_c, 0, 52, 52
2, 1628909, Note_on_c, 0, 57, 49
2, 1628909, Note_on_c, 0, 59, 73
2, 1628910, Note_on_c, 0, 60, 63
2, 1628910, Note_on_c, 0, 60, 62
2, 1628910, Note_on_c, 0, 52, 58
2, 1628918, Note_on_c, 0, 66, 69
2, 1628940, Note_off_c, 0, 50, 64
2, 1629096, Note_off_c, 0, 57, 64
2, 1629098, Note_off_c, 0, 62, 64
2, 1629106, Note_off_c, 0, 57, 64
2, 1629167, Note_off_c, 0, 69, 64
2, 1629217, Note_on_c, 0, 39, 41
2, 1629219, Note_on_c, 0, 65, 50
2, 1629219, Note_on_c, 0, 43, 58
2, 1629223, Note_on_c, 0, 54, 63
2, 1629228, Note_off_c, 0, 69, 64
2, 1629242, Note_on_c, 0, 48, 69
2, 1629245, Note_on_c, 0, 66, 62
2, 1629248, Note_on_c, 0, 59, 63
2, 1629256, Note_on_c, 0, 54, 49
2, 1629310, Note_off_c, 0, 62, 64
2, 1629328, Note_off_c, 0, 54, 64
2, 1629329, Control_c, 0, 64, 0
2, 1629329, Control_c, 0, 64, 0
2, 1629329, Note_off_c, 0, 55, 64
2, 1629362, Note_on_c, 0, 71, 75
2, 1629366, Note_on_c, 0, 56, 71
2, 1629371, Note_on_c, 0, 67, 52
2, 1629371, Note_on_c, 0, 68, 76
2, 1629380, Note_off_c, 0, 72, 64
2, 1629380, Note_off_c, 0, 70, 64
2, 1629382, Note_off_c, 0, 52, 64
2, 1629382, Note_on_c, 0, 50, 52
2, 1629384, Note_on_c, 0, 62, 58
2, 1629404, Note_off_c, 0, 56, 64
2, 1629414, Control_c, 0, 64, 0
2, 1629414, Control_c, 0, 64, 0
2, 1629423, Note_off_c, 0, 57, 64
2, 1629434, Note_on_c, 0, 72, 58
2, 1629439, Note_off_c, 0, 42, 64
2, 1629444, Note_off_c, 0, 62, 64
2, 1629489, Note_on_c, 0, 67, 58
2, 1629494, Note_on_c, 0, 57, 65
2, 1629516, Note_off_c, 0, 71, 64
2, 1629544, Note_on_c, 0, 36, 50
2, 1629546, Note_on_c, 0, 63, 54
2, 1629548, Note_on_c, 0, 56, 49
2, 1629562, Note_off_c, 0, 66, 64
2, 1629585, Note_off_c, 0, 50, 64
2, 1629634, Note_off_c, 0, 59, 64
2, 1629646, Note_off_c, 0, 52, 64
2, 1629697, Control_c, 0, 64, 0
2, 1629698, Control_c, 0, 64, 0
2, 1629707, Note_off_c, 0, 54, 64
2, 1629709, Note_on_c, 0, 66, 62
2, 1629712, Note_on_c, 0, 59, 69
2, 1629714, Note_on_c, 0, 39, 57
2, 1629716, Note_off_c, 0, 44, 64
2, 1629725, Note_off_c, 0, 66, 64
2, 1629731, Control_c, 0, 64, 0
2, 1629731, Control_c, 0, 64, 0
2, 1629763, Control_c, 0, 64, 127
2, 1629763, Control_c, 0, 64, 127
2, 1629803, Note_off_c, 0, 56, 64
2, 1629807, Note_off_c, 0, 50, 64
2, 1629848, Control_c, 0, 64, 0
2, 1629849, Control_c, 0, 64, 0
2, 1629879, Control_c, 0, 64, 127
2, 1629879, Control_c, 0, 64, 127
2, 1629976, Note_on_c, 0, 55, 57
2, 1629979, Note_on_c, 0, 60, 38
2, 1630015, Note_on_c, 0, 61, 57
2, 1630022, Note_on_c, 0, 64, 58
2, 1630083, Note_off_c, 0, 51, 64
2, 1630083, Note_off_c, 0, 65, 64
2, 1630091, Note_off_c, 0, 37, 64
2, 1630096, Note_off_c, 0, 64, 64
2, 1630109, Control_c, 0, 64, 127
2, 1630115, Control_c, 0, 64, 0
2, 1630128, Note_off_c, 0, 49, 64
2, 1630131, Control_c, 0, 64, 127
2, 1630136, Note_off_c, 0, 54, 64
2, 1630216, Control_c, 0, 64, 0
2, 1630236, Note_on_c, 0, 61, 60
2, 1630237, Note_on_c, 0, 55, 34
2, 1630237, Note_on_c, 0, 55, 41
2, 1630240, Note_off_c, 0, 58, 64
2, 1630245, Note_on_c, 0, 54, 49
2, 1630255, Note_off_c, 0, 47, 64
2, 1630258, Note_off_c, 0, 63, 64
2, 1630263, Control_c, 0, 64, 0
2, 1630280, Note_off_c, 0, 64, 64
2, 1630292, Note_off_c, 0, 59, 64
2, 1630294, Note_off_c, 0, 61, 64
2, 1630315, Control_c, 0, 64, 127
2, 1630357, Control_c, 0, 64, 0
2, 1630358, Note_off_c, 0, 67, 64
2, 1630361, Control_c, 0, 64, 127
2, 1630378, Note_off_c, 0, 63, 64
2, 1630386, Note_off_c, 0, 55, 64
2, 1630393, Note_off_c, 0, 66, 64
2, 1630397, Note_off_c, 0, 58, 64
2, 1630398, Note_off_c, 0, 63, 64
2, 1630401, Note_off_c, 0, 64, 64
2, 1630438, Note_on_c, 0, 72, 65
2, 1630454, Note_off_c, 0, 72, 64
2, 1630456, Note_off_c, 0, 66, 64
2, 1630466, Note_off_c, 0, 62, 64
2, 1630466, Note_off_c, 0, 63, 64
2, 1630470, Note_on_c, 0, 76, 51
2, 1630484, Note_off_c, 0, 66, 64
2, 1630488, Note_on_c, 0, 67, 44
2, 1630489, Note_off_c, 0, 50, 64
2, 1630489, Control_c, 0, 64, 0
2, 1630489, Note_off_c, 0, 72, 64
2, 1630492, Note_off_c, 0, 47, 64
2, 1630499, Note_off_c, 0, 68, 64
2, 1630502, Control_c, 0, 64, 127
2, 1630506, Note_off_c, 0, 66, 64
2, 1630531, Note_on_c, 0, 72, 51
2, 1630558, Note_off_c, 0, 54, 64
2, 1630578, Note_off_c, 0, 63, 64
2, 1630651, Note_on_c, 0, 67, 57
2, 1630653, Note_on_c, 0, 64, 58
2, 1630655, Note_off_c, 0, 51, 64
2, 1630663, Note_off_c, 0, 66, 64
2, 1630664, Note_off_c, 0, 59, 64
2, 1630717, Note_off_c, 0, 65, 64
2, 1630755, Note_on_c, 0, 61, 55
2, 1630761, Note_off_c, 0, 52, 64
2, 1630764, Note_on_c, 0, 63, 55
2, 1630767, Note_on_c, 0, 71, 57
2, 1630759, Note_off_c, 0, 60, 64
2, 1630850, Control_c, 0, 64, 0
2, 1630856, Note_off_c, 0, 50, 64
2, 1630866, Note_off_c, 0, 55, 64
2, 1630866, Note_off_c, 0, 60, 64
2, 1630902, Note_on_c, 0, 64, 44
2, 1630907, Note_on_c, 0, 67, 48
2, 1630915, Control_c, 0, 64, 127
2, 1630921, Note_off_c, 0, 60, 64
2, 1630922, Note_off_c, 0, 73, 64
2, 1630934, Control_c, 0, 64, 127
2, 1630961, Note_on_c, 0, 71, 51
2, 1630972, Note_off_c, 0, 66, 64
2, 1630975, Note_off_c, 0, 44, 64
2, 1630977, Note_off_c, 0, 56, 64
2, 1630981, Note_off_c, 0, 69, 64
2, 1630997, Note_off_c, 0, 59, 64
2, 1630998, Note_off_c, 0, 65, 64
2, 1631006, Note_on_c, 0, 73, 73
2, 1631005, Note_on_c, 0, 63, 76
2, 1631006, Note_on_c, 0, 71, 58
2, 1631006, Note_on_c, 0, 56, 78
2, 1631007, Note_on_c, 0, 45, 83
2, 1631028, Note_off_c, 0, 75, 64
2, 1631031, Note_off_c, 0, 73, 64
2, 1631042, Note_off_c, 0, 77, 64
2, 1631064, Note_on_c, 0, 81, 58
2, 1631077, Note_off_c, 0, 72, 64
2, 1631139, Note_on_c, 0, 88, 67
2, 1631141, Control_c, 0, 64, 0
2, 1631143, Note_off_c, 0, 83, 64
2, 1631143, Note_on_c, 0, 87, 83
2, 1631147, Note_on_c, 0, 76, 50
2, 1631149, Note_on_c, 0, 44, 73
2, 1631151, Control_c, 0, 64, 0
2, 1631151, Note_on_c, 0, 63, 51
2, 1631153, Note_on_c, 0, 51, 47
2, 1631169, Control_c, 0, 64, 127
2, 1631169, Control_c, 0, 64, 0
2, 1631174, Note_off_c, 0, 59, 64
2, 1631175, Note_off_c, 0, 54, 64
2, 1631175, Control_c, 0, 64, 127
2, 1631232, Note_on_c, 0, 73, 59
2, 1631240, Note_off_c, 0, 82, 64
2, 1631255, Note_off_c, 0, 75, 64
2, 1631267, Control_c, 0, 64, 0
2, 1631504, Note_on_c, 0, 80, 63
2, 1631504, Note_on_c, 0, 61, 54
2, 1631519, Note_off_c, 0, 83, 64
2, 1631529, Note_off_c, 0, 80, 64
2, 1631588, Note_on_c, 0, 66, 47
2, 1631588, Note_on_c, 0, 76, 66
2, 1631598, Note_off_c, 0, 80, 64
2, 1631611, Note_off_c, 0, 57, 64
2, 1631613, Note_off_c, 0, 63, 64
2, 1631614, Note_off_c, 0, 35, 64
2, 1631615, Note_on_c, 0, 54, 58
2, 1631622, Note_on_c, 0, 69, 60
2, 1631623, End_track
3, 0, Start_track
3, 0, Title_t, Played by Dr. ML
3, 0, End_track
4, 0, Start_track
4, 0, Title_t, FUTURE
4, 0, End_track
5, 0, Start_track
5, 0, Title_t, ML
5, 0, End_track
6, 0, Start_track
6, 0, Title_t, Copyright 2018
6, 0, End_track
7, 0, Start_track
7, 0, Title_t, All Rights Reserved
7, 0, End_track
0, 0, End_of_file
